<?xml version="1.0" standalone="no"?>
<!DOCTYPE svg PUBLIC "-//W3C//DTD SVG 1.1//EN" "http://www.w3.org/Graphics/SVG/1.1/DTD/svg11.dtd" >
<svg viewBox="0 -442 2048 2048">
  <g transform="matrix(1 0 0 -1 0 1606)">
   <path fill="currentColor"
d="M797 935q0 -4 -114 -373h94q17 0 17 -14q0 -19 -16 -67q-7 -21 -26 -21h-100l-54 -174h111q17 0 17 -15q0 -19 -16 -67q-7 -21 -26 -21h-117l-114 -369q-4 -14 -64 -14q-11 0 -11 12q0 4 114 371h-212l-114 -369q-4 -14 -63 -14q-11 0 -11 12q0 4 113 371h-99
q-16 0 -16 16q0 21 15 66q7 21 26 21h106l54 174h-117q-16 0 -16 16q0 20 15 65q7 21 26 21h123l114 372q4 13 64 13q11 0 11 -12q0 -4 -115 -373h213l114 372q4 13 63 13q11 0 11 -12zM577 460h-212l-53 -174h211z" />
  </g>

</svg>
