<?xml version="1.0" standalone="no"?>
<!DOCTYPE svg PUBLIC "-//W3C//DTD SVG 1.1//EN" "http://www.w3.org/Graphics/SVG/1.1/DTD/svg11.dtd" >
<svg viewBox="0 -442 2048 2048">
  <g transform="matrix(1 0 0 -1 0 1606)">
   <path fill="currentColor"
d="M799 943q0 -79 -71 -79q-37 0 -54 35q-6 10 -20 66q-10 37 -44 70q-7 6 -22 17l-97 -402q195 -216 195 -355q0 -27 -5 -48q-64 -270 -351 -270l-25 -99q-3 -12 -32 -12q-23 0 -23 8q0 7 25 108q-75 18 -126 86.5t-51 147.5q0 99 62 99q58 0 65 -91q8 -112 38 -141
q6 -6 30 -26l116 483q-156 181 -156 319q0 115 93 192q86 72 204 76l24 98q3 12 35 12q20 0 20 -8q0 -7 -25 -107q66 -13 127 -62q68 -56 68 -117zM536 1066q-71 -2 -121 -46q-54 -46 -54 -115q0 -71 88 -202zM570 230q0 118 -117 259l-107 -444q96 1 156 44q68 49 68 141z
" />
  </g>

</svg>
