<?xml version="1.0" standalone="no"?>
<!DOCTYPE svg PUBLIC "-//W3C//DTD SVG 1.1//EN" "http://www.w3.org/Graphics/SVG/1.1/DTD/svg11.dtd" >
<svg viewBox="0 -442 2048 2048">
  <g transform="matrix(1 0 0 -1 0 1606)">
   <path fill="currentColor"
d="M1138 534q1 -18 -27 -25t-84 -18q-99 -20 -167 -42q45 -74 45 -149q0 -137 -113 -232q-107 -91 -247 -91q-185 0 -318 103q-145 112 -145 292q0 124 99 237q87 100 213 154q-86 64 -86 150q0 109 114 187q103 70 217 70q79 0 140 -26q80 -35 80 -103q0 -56 -51 -56
q-55 0 -92 60.5t-94 60.5q-75 0 -135 -53.5t-60 -127.5q0 -100 65 -128q68 15 138 15q90 0 90 -48q0 -32 -38 -54q-32 -19 -67 -19q-93 0 -170 38q-204 -100 -204 -310q0 -142 94 -236t236 -94q214 0 263 175q7 25 7 45q0 96 -72 96q-33 0 -111 -39.5t-87 -39.5q-14 0 -17 7
q-19 51 -19 53q0 12 18 19q94 30 280 94q83 31 276 112q10 4 13 4q15 0 17 -34q-1 -24 -1 -47z" />
  </g>

</svg>
