<?xml version="1.0" standalone="no"?>
<!DOCTYPE svg PUBLIC "-//W3C//DTD SVG 1.1//EN" "http://www.w3.org/Graphics/SVG/1.1/DTD/svg11.dtd" >
<svg viewBox="0 -442 2048 2048">
  <g transform="matrix(1 0 0 -1 0 1606)">
   <path fill="currentColor"
d="M683 1115q0 -27 -16 -54l-83 -141q-8 -13 -23 -13q-28 0 -28 28q0 22 15 165q8 75 61 75q74 0 74 -60zM865 855q0 -65 -71 -65q-53 0 -183 38q-20 6 -22 26l1 1q0 21 21 26q169 37 184 37q70 0 70 -63zM494 901q0 -24 -27 -24q-6 0 -162 66q-55 23 -55 66q0 24 21 47
t44 23q33 0 64 -35l109 -123q6 -7 6 -20zM682 593q0 -58 -71 -58q-57 0 -64 75l-15 163q-2 22 18 28l1 1q2 1 6 1q19 0 27 -13l82 -141q16 -28 16 -56zM494 804q0 -10 -115 -138q-32 -35 -66 -35q-23 0 -42.5 22.5t-19.5 46.5q0 42 55 67q147 67 160 67q28 0 28 -30z" />
  </g>

</svg>
