<?xml version="1.0" standalone="no"?>
<!DOCTYPE svg PUBLIC "-//W3C//DTD SVG 1.1//EN" "http://www.w3.org/Graphics/SVG/1.1/DTD/svg11.dtd" >
<svg viewBox="0 -442 2048 2048">
  <g transform="matrix(1 0 0 -1 0 1606)">
   <path fill="currentColor"
d="M744 927q0 -66 -73 -147q-57 -64 -131 -110q76 -19 123 -86q44 -64 44 -144q0 -166 -169 -312q-175 -151 -379 -151q-51 0 -93 21q-51 26 -51 72q0 76 74 76q43 0 91 -43.5t90 -43.5q128 0 220 112q87 105 87 236q0 73 -41 122q-44 53 -116 53q-11 0 -33.5 -4.5
t-33.5 -4.5q-6 0 -16.5 11.5t-10.5 17.5q0 7 10 13q52 26 105 51q57 31 95 67q79 75 79 150q0 60 -46 99q-43 36 -104 36q-106 0 -187 -85q-5 -5 -6 -5q-4 0 -16.5 11t-12.5 15q0 6 2 9q40 67 117.5 115t153.5 48q91 0 157 -53q71 -58 71 -146z" />
  </g>

</svg>
