<?xml version="1.0" standalone="no"?>
<!DOCTYPE svg PUBLIC "-//W3C//DTD SVG 1.1//EN" "http://www.w3.org/Graphics/SVG/1.1/DTD/svg11.dtd" >
<svg viewBox="0 -442 2048 2048">
  <g transform="matrix(1 0 0 -1 0 1606)">
   <path fill="currentColor"
d="M835 1074q0 -6 -99 -53q-366 -173 -471 -519q116 109 254 109q112 0 178.5 -67t66.5 -179q0 -147 -108 -266q-111 -122 -257 -122q-141 0 -225 107q-77 98 -77 243q0 60 11 114q53 260 253 433q156 135 445 246q5 2 8 2q21 0 21 -48zM633 356q0 75 -45 125t-119 50
q-104 0 -171.5 -71.5t-67.5 -175.5q0 -95 39 -166q47 -87 134 -87q101 0 170 116q60 100 60 209z" />
  </g>

</svg>
