<?xml version="1.0" standalone="no"?>
<!DOCTYPE svg PUBLIC "-//W3C//DTD SVG 1.1//EN" "http://www.w3.org/Graphics/SVG/1.1/DTD/svg11.dtd" >
<svg viewBox="0 -442 2048 2048">
  <g transform="matrix(1 0 0 -1 0 1606)">
   <path fill="currentColor"
d="M806 878q0 -103 -72 -189q-65 -78 -167 -118q130 -147 130 -277q0 -20 -3 -37q-22 -130 -115.5 -205t-226.5 -75q-108 0 -181 80q-71 77 -71 186q0 216 280 306q-146 142 -146 277q0 121 95 210.5t217 89.5q103 0 181.5 -73t78.5 -175zM684 873q0 75 -37 132
q-43 65 -114 65q-73 0 -123 -63q-46 -59 -46 -134q0 -105 166 -264q154 111 154 264zM565 252q0 121 -154 268q-187 -122 -187 -290q0 -75 35 -132q41 -67 112 -67q80 0 139 71q55 68 55 150z" />
  </g>

</svg>
