<?xml version="1.0" standalone="no"?>
<!DOCTYPE svg PUBLIC "-//W3C//DTD SVG 1.1//EN" "http://www.w3.org/Graphics/SVG/1.1/DTD/svg11.dtd" >
<svg viewBox="0 -442 2048 2048">
  <g transform="matrix(1 0 0 -1 0 1606)">
   <path fill="currentColor"
d="M824 779q0 -58 -12 -118q-52 -257 -241 -438q-177 -169 -442 -243q-1 -1 -4 -1q-17 0 -17 49q0 13 37 29q25 9 50 19q150 69 278 217q125 146 177 306q-111 -98 -237 -98q-109 0 -174 66t-65 175q0 145 106 262q109 121 252 121q136 0 218 -107q74 -98 74 -239zM689 840
q0 231 -162 231q-98 0 -164 -114q-57 -97 -57 -203q0 -73 41 -121q44 -51 115 -51q227 0 227 258z" />
  </g>

</svg>
