<?xml version="1.0" standalone="no"?>
<!DOCTYPE svg PUBLIC "-//W3C//DTD SVG 1.1//EN" "http://www.w3.org/Graphics/SVG/1.1/DTD/svg11.dtd" >
<svg viewBox="0 -442 2048 2048">
  <g transform="matrix(1 0 0 -1 0 1606)">
   <path fill="currentColor"
d="M380 607q0 -41 -28.5 -69t-69.5 -28q-40 0 -69.5 28.5t-29.5 68.5t29.5 69t69.5 29q41 0 69.5 -28.5t28.5 -69.5zM288 -22q0 -96 -80 -168q-92 -83 -191 -83q-17 0 -17 12q0 33 11 50q42 18 85 36q76 38 76 108q0 50 -58.5 91.5t-58.5 70.5q0 78 82 78q70 0 113 -65
q38 -57 38 -130z" />
  </g>

</svg>
