<?xml version="1.0" standalone="no"?>
<!DOCTYPE svg PUBLIC "-//W3C//DTD SVG 1.1//EN" "http://www.w3.org/Graphics/SVG/1.1/DTD/svg11.dtd" >
<svg viewBox="0 -442 2048 2048">
  <g transform="matrix(1 0 0 -1 0 1606)">
   <path fill="currentColor"
d="M654 897q0 -149 -106 -204l-198 -56q-106 -31 -106 -118q0 -106 108 -106q84 0 84 -53q0 -29 -20 -54t-48 -25q-81 0 -152 100q-65 92 -65 177q0 29 4 45q27 111 123 156q85 26 171 52q94 31 115 108q4 14 4 31q0 47 -34 74t-82 27h-21q-14 -1 -21 -1q-109 0 -109 63
q0 67 76 67q123 0 200 -79.5t77 -203.5zM317 86q0 -44 -27 -76t-70 -32q-41 0 -66.5 29.5t-25.5 70.5q0 44 27 76.5t70 32.5q41 0 66.5 -29.5t25.5 -71.5z" />
  </g>

</svg>
