<?xml version="1.0" standalone="no"?>
<!DOCTYPE svg PUBLIC "-//W3C//DTD SVG 1.1//EN" "http://www.w3.org/Graphics/SVG/1.1/DTD/svg11.dtd" >
<svg viewBox="0 -442 2048 2048">
  <g transform="matrix(1 0 0 -1 0 1606)">
   <path fill="currentColor"
d="M1365 540q0 -204 -128 -366q-137 -174 -336 -174q-111 0 -126 112q-117 -96 -226 -96q-97 0 -153.5 58.5t-56.5 155.5q0 210 138.5 387t301.5 177q128 0 186 -112l33 82h151l-229 -553q-14 -34 -14 -60q0 -60 50 -60q113 0 222 148t109 301q0 195 -147 323
q-141 122 -339 122q-267 0 -469.5 -195t-202.5 -461q0 -227 182 -358q162 -117 397 -117q270 0 493 172l57 -34q-259 -222 -559 -222q-274 0 -465 134q-217 151 -217 414q0 303 220 529.5t522 226.5q243 0 419 -143q187 -153 187 -391zM908 620q0 109 -95 109
q-101 0 -220.5 -187t-119.5 -346q0 -112 111 -112q73 0 136 73q58 67 122 221q66 159 66 242z" />
  </g>

</svg>
