<?xml version="1.0" standalone="no"?>
<!DOCTYPE svg PUBLIC "-//W3C//DTD SVG 1.1//EN" "http://www.w3.org/Graphics/SVG/1.1/DTD/svg11.dtd" >
<svg viewBox="-67 -442 2048 2048">
  <g transform="matrix(1 0 0 -1 0 1606)">
   <path fill="currentColor"
d="M991 33q0 -43 -24 -43q-28 0 -85 5t-86 5t-87.5 -5t-87.5 -5q-11 0 -11 14q0 37 33 42q53 7 61 11q32 21 33 96l2 274h-337l-179 -254q-32 -45 -32 -79q0 -37 50.5 -45.5t50.5 -15.5q0 -43 -27 -43q-26 0 -79 5t-80 5t-80.5 -5t-80.5 -5q-12 0 -12 10q0 30 13 38
q8 6 39 6q58 0 130 99l703 963q9 12 32 12q18 0 18 -51q0 -28 -2 -85t-2 -85q0 -124 1.5 -372t1.5 -372q0 -55 25 -81q18 -19 62 -25q37 -6 37 -14zM744 908l-295 -416h293z" />
  </g>

</svg>
