<?xml version="1.0" standalone="no"?>
<!DOCTYPE svg PUBLIC "-//W3C//DTD SVG 1.1//EN" "http://www.w3.org/Graphics/SVG/1.1/DTD/svg11.dtd" >
<svg viewBox="0 -442 2048 2048">
  <g transform="matrix(1 0 0 -1 0 1606)">
   <path fill="currentColor"
d="M920 872q0 -113 -101 -189q-83 -63 -207 -86q107 -30 176 -93q80 -75 80 -176q0 -152 -163 -252q-142 -87 -305 -87q-38 0 -112.5 5.5t-112.5 5.5q-24 0 -73 -5t-73 -5q-11 0 -11 14q0 18 13 36q23 3 57 11q43 17 62 92l206 800q7 27 7 45q0 39 -38 48q-11 3 -69 3
q-8 0 -8 8q0 21 14 40q8 11 137 22q106 8 155 8q142 0 241 -51q125 -65 125 -194zM766 879q0 173 -198 173q-39 0 -52.5 -11t-23.5 -50l-96 -367h38q137 0 226 58q106 68 106 197zM719 339q0 107 -73 167q-68 55 -177 55q-2 0 -89 -3l-98 -381q-6 -23 -6 -44q0 -78 106 -78
q136 0 232 73q105 80 105 211z" />
  </g>

</svg>
