<?xml version="1.0" standalone="no"?>
<!DOCTYPE svg PUBLIC "-//W3C//DTD SVG 1.1//EN" "http://www.w3.org/Graphics/SVG/1.1/DTD/svg11.dtd" >
<svg viewBox="0 -442 2048 2048">
  <g transform="matrix(1 0 0 -1 0 1606)">
   <path fill="currentColor"
d="M1197 940q0 -7 -15.5 -80t-18.5 -78q-7 -15 -33 -15q-25 0 -25 12q0 8 2 24.5t2 24.5q0 73 -68 137q-91 86 -241 86q-221 0 -377 -181q-149 -173 -149 -398q0 -188 116.5 -309t304.5 -121q89 0 174 62q42 31 131 152q7 9 16 9q8 0 22.5 -10t14.5 -17q0 -6 -25.5 -80
t-31.5 -86q-10 -21 -29 -32q-110 -62 -304 -62q-237 0 -388 161q-148 157 -148 396q0 236 186 405q192 175 474 175q258 0 404 -160q6 -7 6 -15z" />
  </g>

</svg>
