<?xml version="1.0" standalone="no"?>
<!DOCTYPE svg PUBLIC "-//W3C//DTD SVG 1.1//EN" "http://www.w3.org/Graphics/SVG/1.1/DTD/svg11.dtd" >
<svg viewBox="-14 -442 2048 2048">
  <g transform="matrix(1 0 0 -1 0 1606)">
   <path fill="currentColor"
d="M1204 640q0 -263 -192 -458.5t-454 -195.5q-63 0 -188 7t-188 7q-31 0 -92.5 -5t-92.5 -5q-11 0 -11 10q0 42 44 45q62 5 87.5 29t44.5 99l193 750q10 39 10 64q0 57 -61 57q-11 0 -34 -3.5t-34 -3.5q-7 0 -7 10q0 22 14 42q19 28 398 28q252 0 398 -110
q165 -123 165 -367zM1056 649q0 403 -475 403q-63 0 -80 -64l-199 -771q-11 -43 -11 -78q0 -85 127 -85q282 0 456 154q182 161 182 441z" />
  </g>

</svg>
