<?xml version="1.0" standalone="no"?>
<!DOCTYPE svg PUBLIC "-//W3C//DTD SVG 1.1//EN" "http://www.w3.org/Graphics/SVG/1.1/DTD/svg11.dtd" >
<svg viewBox="-2 -442 2048 2048">
  <g transform="matrix(1 0 0 -1 0 1606)">
   <path fill="currentColor"
d="M916 1084q0 -5 -18.5 -96t-20.5 -97q-5 -14 -21 -14q-22 0 -22 26q0 78 -51 107q-36 21 -118 21h-99q-40 0 -55 -15q-11 -11 -21 -50l-93 -359h218q54 0 87.5 49.5t36.5 49.5h22q10 0 10 -8q0 15 -35 -119q-6 -40 -26 -117q-5 -14 -35 -14q-16 0 -16 10q0 7 2 21.5
t2 21.5q0 42 -49 42h-234l-98 -385q-8 -31 -8 -50q0 -46 43 -58q19 -6 80 -6q12 0 12 -9q0 -45 -25 -45q-31 0 -92.5 5t-92.5 5q-65 0 -129 -5t-62 -5q-10 0 -10 10q0 41 39 46q57 6 74 21q24 21 38 76l203 792q9 35 9 50q0 46 -43 58q-19 6 -80 6q-12 0 -12 10q0 44 26 44
q45 0 135 -5t135 -5q61 0 182 4t182 4q30 0 30 -17z" />
  </g>

</svg>
