<?xml version="1.0" standalone="no"?>
<!DOCTYPE svg PUBLIC "-//W3C//DTD SVG 1.1//EN" "http://www.w3.org/Graphics/SVG/1.1/DTD/svg11.dtd" >
<svg viewBox="0 -442 2048 2048">
  <g transform="matrix(1 0 0 -1 0 1606)">
   <path fill="currentColor"
d="M1215 475q0 -29 -2 -34q-4 -10 -27 -10q-82 0 -104 -79q-40 -151 -96 -319q-26 -27 -152 -43q-94 -12 -168 -12q-235 0 -384 152.5t-149 388.5q0 264 203 435q191 161 460 161q93 0 216 -35q138 -40 192 -95q10 -10 10 -20q0 -12 -17 -93t-22 -89q-8 -14 -33 -14
q-22 0 -22 13q0 8 1.5 23.5t1.5 23.5q0 101 -92 164q-84 58 -226 58q-222 0 -376 -181q-148 -173 -148 -398q0 -192 117 -311t309 -119q163 0 221 187q37 120 37 143q0 59 -161 59q-17 0 -17 19q0 36 18 36q-5 0 67 -6q60 -5 132 -5q71 0 132 5q73 6 68 6q11 0 11 -11z" />
  </g>

</svg>
