<?xml version="1.0" standalone="no"?>
<!DOCTYPE svg PUBLIC "-//W3C//DTD SVG 1.1//EN" "http://www.w3.org/Graphics/SVG/1.1/DTD/svg11.dtd" >
<svg viewBox="-9 -442 2048 2048">
  <g transform="matrix(1 0 0 -1 0 1606)">
   <path fill="currentColor"
d="M1370 1094q0 -41 -41 -47q-59 -7 -75 -21q-24 -21 -39 -76l-217 -792q-9 -33 -9 -51q0 -62 93 -62q40 0 40 -8q0 -47 -24 -47q-31 0 -93 5t-93 5q-32 0 -95 -5t-95 -5q-11 0 -11 14q0 34 30 40q59 10 64 13q40 19 59 86l111 400h-592l-109 -400q-5 -18 -5 -32
q0 -67 123 -67q10 0 10 -7q0 -47 -24 -47q-31 0 -93 5t-93 5q-32 0 -95 -5t-95 -5q-11 0 -11 14q0 40 45 40q82 0 109 99l218 792q8 29 8 52q0 45 -43 57q-18 5 -79 5q-10 0 -10 9q0 45 26 45q31 0 92 -5t92 -5q32 0 95.5 5t95.5 5q10 0 10 -9q0 -40 -39 -48
q-60 -12 -71 -20q-29 -22 -44 -76l-95 -343h592l94 343q5 18 5 32q0 67 -123 67q-11 0 -11 9q0 45 26 45q31 0 92.5 -5t92.5 -5q32 0 95.5 5t95.5 5q10 0 10 -9z" />
  </g>

</svg>
