<?xml version="1.0" standalone="no"?>
<!DOCTYPE svg PUBLIC "-//W3C//DTD SVG 1.1//EN" "http://www.w3.org/Graphics/SVG/1.1/DTD/svg11.dtd" >
<svg viewBox="-1 -442 2048 2048">
  <g transform="matrix(1 0 0 -1 0 1606)">
   <path fill="currentColor"
d="M645 1094q0 -42 -42 -47q-61 -7 -77 -21q-24 -21 -38 -76l-204 -792q-7 -27 -7 -50q0 -46 43 -58q19 -6 80 -6q10 0 10 -9q0 -45 -23 -45q-31 0 -93 5t-93 5q-32 0 -95 -5t-95 -5q-12 0 -12 14q0 38 30 42q60 6 63 8q41 18 59 89l204 792q8 31 8 52q0 44 -40 56
q-19 6 -76 6q-10 0 -10 10q0 44 25 44q30 0 91 -5t92 -5q63 0 128 5t62 5q10 0 10 -9z" />
  </g>

</svg>
