<?xml version="1.0" standalone="no"?>
<!DOCTYPE svg PUBLIC "-//W3C//DTD SVG 1.1//EN" "http://www.w3.org/Graphics/SVG/1.1/DTD/svg11.dtd" >
<svg viewBox="-161 -442 2048 2048">
  <g transform="matrix(1 0 0 -1 0 1606)">
   <path fill="currentColor"
d="M624 1093q0 -13 -6 -30q-4 -12 -43 -16q-45 -4 -64 -21q-23 -20 -36 -76l-223 -925q-90 -374 -307 -374q-106 0 -106 88q0 55 58 55q27 0 54 -33t53 -33q21 0 38 22q24 31 65 204l235 981q6 25 6 49q0 46 -43 59q-19 6 -80 6q-12 0 -12 10q0 44 24 44q31 0 92.5 -5
t92.5 -5q32 0 95.5 5t95.5 5q11 0 11 -10z" />
  </g>

</svg>
