<?xml version="1.0" standalone="no"?>
<!DOCTYPE svg PUBLIC "-//W3C//DTD SVG 1.1//EN" "http://www.w3.org/Graphics/SVG/1.1/DTD/svg11.dtd" >
<svg viewBox="-7 -442 2048 2048">
  <g transform="matrix(1 0 0 -1 0 1606)">
   <path fill="currentColor"
d="M1171 1094q0 -44 -26 -44h-9q-60 0 -145 -70l-408 -337l277 -492q60 -107 138 -107q17 0 17 -9q0 -45 -24 -45q2 0 -57 5t-118 5q-30 0 -90 -5t-90 -5q-12 0 -12 14q0 23 14 36q1 1 59 6q48 4 48 37q0 20 -22 60l-235 424l-128 -106l-82 -318q-4 -16 -4 -36
q0 -63 102 -63q9 0 9 -9q0 -45 -24 -45q-29 0 -87.5 5t-88.5 5t-90.5 -5t-90.5 -5q-11 0 -11 14q0 40 46 40q86 0 111 99l203 792q8 31 8 50q0 46 -42 58q-19 6 -80 6q-12 0 -12 10q0 44 25 44q31 0 92 -5t92 -5q63 0 129 5t63 5q11 0 11 -9q0 -41 -40 -47q-58 -8 -73 -21
q-26 -23 -40 -76l-105 -408l483 405q50 42 50 67q0 35 -97 35q-13 0 -13 13q0 41 28 41q27 0 80.5 -5t80.5 -5q28 0 83 5t83 5q12 0 12 -9z" />
  </g>

</svg>
