<?xml version="1.0" standalone="no"?>
<!DOCTYPE svg PUBLIC "-//W3C//DTD SVG 1.1//EN" "http://www.w3.org/Graphics/SVG/1.1/DTD/svg11.dtd" >
<svg viewBox="0 -442 2048 2048">
  <g transform="matrix(1 0 0 -1 0 1606)">
   <path fill="currentColor"
d="M871 199q0 -3 -73 -171q-16 -36 -44 -36q-82 0 -245.5 4.5t-245.5 4.5q-41 0 -123 -5.5t-123 -5.5q-11 0 -11 10q0 39 28 44q60 10 61 10q38 19 56 89l204 792q8 31 8 50q0 46 -43 58q-19 6 -80 6q-11 0 -11 10q0 44 24 44q31 0 92.5 -5t92.5 -5q65 0 129 5t62 5
q12 0 12 -9q0 -40 -41 -46q-58 -9 -73 -22q-25 -22 -39 -76l-187 -724q-13 -50 -13 -79q0 -62 67 -77q23 -5 116 -5q171 0 233 27q37 16 68 53q27 35 53 70q8 10 15 10q6 0 18.5 -10.5t12.5 -15.5z" />
  </g>

</svg>
