<?xml version="1.0" standalone="no"?>
<!DOCTYPE svg PUBLIC "-//W3C//DTD SVG 1.1//EN" "http://www.w3.org/Graphics/SVG/1.1/DTD/svg11.dtd" >
<svg viewBox="-47 -442 2048 2048">
  <g transform="matrix(1 0 0 -1 0 1606)">
   <path fill="currentColor"
d="M1330 1094q0 -41 -31 -45.5t-63 -9.5q-39 -18 -53 -89l-157 -792q-4 -20 -4 -42q0 -72 105 -72q32 0 32 -9q0 -45 -24 -45q-29 0 -87.5 5t-88.5 5t-91 -5t-91 -5q-12 0 -12 10q0 22 12 36q7 9 32 9q72 0 91 98l147 744l-519 -837q-6 -10 -24 -10q-19 0 -20 15l-55 795
l-260 -707q-9 -24 -9 -45q0 -54 118 -54q11 0 11 -9q0 -45 -24 -45q-25 0 -74.5 5t-74.5 5q-26 0 -76.5 -5t-75.5 -5q-11 0 -11 10q0 37 26 44l60 14q40 19 64 85l307 831q-26 74 -140 74q-9 0 -9 7q0 38 21 39l219 9q20 1 24 -54l55 -810l490 808q34 56 54 56q16 0 47.5 -5
t47.5 -5q17 0 52 5t52 5q7 0 7 -9z" />
  </g>

</svg>
