<?xml version="1.0" standalone="no"?>
<!DOCTYPE svg PUBLIC "-//W3C//DTD SVG 1.1//EN" "http://www.w3.org/Graphics/SVG/1.1/DTD/svg11.dtd" >
<svg viewBox="0 -442 2048 2048">
  <g transform="matrix(1 0 0 -1 0 1606)">
   <path fill="currentColor"
d="M1309 1094q0 -38 -26.5 -44.5t-54.5 -12.5q-36 -20 -53 -87l-200 -772q93 -165 93 -167q0 -13 -33 -13q-6 0 -17.5 1t-17.5 1q-77 0 -83 11l-477 878l-192 -746q-4 -16 -4 -31q0 -68 124 -68q11 0 11 -9q0 -45 -24 -45q-25 0 -76.5 5t-77.5 5q-27 0 -79.5 -5t-78.5 -5
q-11 0 -11 10q0 27 14 40q33 2 96 27q28 21 42 76l212 825q-52 80 -182 80q-38 0 -38 12q0 43 24 43q20 0 61.5 -5t62.5 -5q22 0 66 5t66 5q12 0 23 -20l453 -823l178 690q5 19 5 32q0 67 -124 67q-12 0 -12 10q0 44 25 44q24 0 72.5 -5t72.5 -5q25 0 74.5 5t74.5 5
q11 0 11 -9z" />
  </g>

</svg>
