<?xml version="1.0" standalone="no"?>
<!DOCTYPE svg PUBLIC "-//W3C//DTD SVG 1.1//EN" "http://www.w3.org/Graphics/SVG/1.1/DTD/svg11.dtd" >
<svg viewBox="0 -442 2048 2048">
  <g transform="matrix(1 0 0 -1 0 1606)">
   <path fill="currentColor"
d="M1253 579q0 -248 -191 -427q-188 -174 -438 -174q-227 0 -369 156q-137 151 -137 380q0 248 191 426q187 175 437 175q227 0 369 -156q138 -150 138 -380zM1104 624q0 175 -87 294q-98 133 -266 133q-212 0 -354 -190q-131 -174 -131 -393q0 -173 88 -293
q98 -133 266 -133q201 0 347 183q137 171 137 399z" />
  </g>

</svg>
