<?xml version="1.0" standalone="no"?>
<!DOCTYPE svg PUBLIC "-//W3C//DTD SVG 1.1//EN" "http://www.w3.org/Graphics/SVG/1.1/DTD/svg11.dtd" >
<svg viewBox="-7 -442 2048 2048">
  <g transform="matrix(1 0 0 -1 0 1606)">
   <path fill="currentColor"
d="M942 813q0 -133 -106.5 -239t-239.5 -106q-33 0 -81 13q-61 17 -61 40q0 37 18 37q4 0 40 -11t59 -11q100 0 162 94q55 83 55 188q0 97 -63 163.5t-159 66.5q-59 0 -76 -65l-216 -840q-5 -19 -5 -31q0 -68 124 -68q12 0 12 -9q0 -45 -25 -45q-31 0 -92.5 5t-92.5 5
q-32 0 -95 -5t-95 -5q-12 0 -12 14q0 25 14 36q33 5 66 9q51 12 72 94l201 782q8 31 8 49q0 46 -43 59q-20 6 -80 6q-11 0 -11 10q0 22 14 40q18 23 320 23q146 0 259 -75q129 -85 129 -224z" />
  </g>

</svg>
