<?xml version="1.0" standalone="no"?>
<!DOCTYPE svg PUBLIC "-//W3C//DTD SVG 1.1//EN" "http://www.w3.org/Graphics/SVG/1.1/DTD/svg11.dtd" >
<svg viewBox="0 -442 2048 2048">
  <g transform="matrix(1 0 0 -1 0 1606)">
   <path fill="currentColor"
d="M1251 579q0 -192 -128 -356q-124 -159 -311 -216q46 -37 117 -141q68 -99 101 -122t83 -28q45 -1 89 -3q34 -1 34 -14q0 -36 -21 -52q-13 -10 -120 -10q-182 0 -288 177q-30 51 -100 146q-18 20 -44 20q-10 0 -28.5 -1t-28.5 -1q-218 0 -358 161q-132 154 -132 375
q0 248 191 427q188 174 438 174q227 0 369 -156q137 -150 137 -380zM1102 623q0 175 -87 295q-97 133 -266 133q-212 0 -354 -187q-130 -172 -130 -391q0 -184 103 -304q110 -127 291 -127q184 0 319 183q124 168 124 398z" />
  </g>

</svg>
