<?xml version="1.0" standalone="no"?>
<!DOCTYPE svg PUBLIC "-//W3C//DTD SVG 1.1//EN" "http://www.w3.org/Graphics/SVG/1.1/DTD/svg11.dtd" >
<svg viewBox="-20 -442 2048 2048">
  <g transform="matrix(1 0 0 -1 0 1606)">
   <path fill="currentColor"
d="M1004 33q0 -43 -24 -43q-15 0 -44.5 2.5t-44.5 2.5q-13 0 -40 -2.5t-40 -2.5q-53 0 -81 66l-159 377q-29 70 -71 89q-31 14 -115 14l-101 -393q-5 -19 -5 -38q0 -61 110 -61q9 0 9 -9q0 -45 -24 -45l-61 5t-127 5q-32 0 -97 -5t-97 -5q-12 0 -12 14q0 40 53 40
q97 0 135 149l189 732q9 35 9 59q0 43 -38 52q-9 2 -72 2q-26 0 -26 11q0 24 14 40q10 11 164 20q127 8 186 8q137 0 238 -55q125 -68 125 -194q0 -119 -113 -209q-99 -79 -226 -97l2 -4q62 -45 96 -125l113 -269q27 -64 65 -90q33 -22 107 -34zM808 850q0 98 -76 153
q-67 49 -169 49q-46 0 -57 -44l-104 -407h13q393 0 393 249z" />
  </g>

</svg>
