<?xml version="1.0" standalone="no"?>
<!DOCTYPE svg PUBLIC "-//W3C//DTD SVG 1.1//EN" "http://www.w3.org/Graphics/SVG/1.1/DTD/svg11.dtd" >
<svg viewBox="0 -442 2048 2048">
  <g transform="matrix(1 0 0 -1 0 1606)">
   <path fill="currentColor"
d="M755 1021q0 -9 -15 -78.5t-18 -74.5q-8 -13 -37 -13q-24 0 -24 13q0 8 2 24.5t2 24.5q0 60 -40.5 97t-100.5 37q-84 0 -139 -57.5t-55 -142.5q0 -91 89 -193q82 -86 164 -171q89 -102 89 -193v-25q0 -134 -110 -216q-100 -75 -238 -75q-168 0 -260 65q-14 10 -14 22
q0 8 23 85t27 83q9 13 35 13t26 -10q0 -14 -10 -43.5t-10 -45.5q0 -105 157 -105q95 0 161 47q75 54 75 145q0 89 -89 189l-164 172q-89 106 -89 207q0 137 91 225t228 88q62 0 139 -27q105 -37 105 -67z" />
  </g>

</svg>
