<?xml version="1.0" standalone="no"?>
<!DOCTYPE svg PUBLIC "-//W3C//DTD SVG 1.1//EN" "http://www.w3.org/Graphics/SVG/1.1/DTD/svg11.dtd" >
<svg viewBox="0 -442 2048 2048">
  <g transform="matrix(1 0 0 -1 0 1606)">
   <path fill="currentColor"
d="M1158 1144l-14 -43.5t-24 -82.5q-6 -43 -27 -124q-6 -16 -36 -16q-25 0 -25 12q0 13 6 38t6 38q0 65 -79 65h-131q-40 0 -54 -15q-11 -11 -21 -50l-208 -808q-8 -31 -8 -50q0 -45 39 -58q20 -6 77 -6q9 0 9 -9q0 -45 -23 -45q-32 0 -96.5 5t-96.5 5q-33 0 -99 -5t-99 -5
q-11 0 -11 10q0 32 18 41q9 4 46 4q86 0 111 98l212 823q6 23 6 35q0 30 -41 30h-235q-78 0 -109 -66q-16 -41 -33 -82q-7 -5 -28 -5q-26 0 -26 13q0 10 16 60q20 62 21 66q7 42 27 123q6 17 30 17h10q7 -1 10 -1q9 0 10 -23q2 -40 74 -40h648q69 0 80.5 32t41.5 32
q26 0 26 -13z" />
  </g>

</svg>
