<?xml version="1.0" standalone="no"?>
<!DOCTYPE svg PUBLIC "-//W3C//DTD SVG 1.1//EN" "http://www.w3.org/Graphics/SVG/1.1/DTD/svg11.dtd" >
<svg viewBox="0 -442 2048 2048">
  <g transform="matrix(1 0 0 -1 0 1606)">
   <path fill="currentColor"
d="M1309 1093q0 -45 -53 -47q-59 -1 -72 -57l-132 -549q-60 -249 -147 -344q-110 -118 -343 -118q-375 0 -375 275q0 64 20 141l140 541q7 27 7 50q0 46 -43 58q-19 6 -80 6q-11 0 -11 10q0 44 25 44q32 0 96.5 -5t96.5 -5q33 0 99.5 5t99.5 5q12 0 12 -9q0 -39 -35.5 -45.5
t-72.5 -12.5q-45 -19 -62 -86l-143 -554q-19 -74 -19 -128q0 -224 281 -224q173 0 265 113q70 85 116 274l126 518q4 16 4 33q0 66 -125 66q-11 0 -11 9q0 45 25 45q24 0 73 -5t74 -5q26 0 78.5 5t78.5 5q7 0 7 -9z" />
  </g>

</svg>
