<?xml version="1.0" standalone="no"?>
<!DOCTYPE svg PUBLIC "-//W3C//DTD SVG 1.1//EN" "http://www.w3.org/Graphics/SVG/1.1/DTD/svg11.dtd" >
<svg viewBox="0 -442 2048 2048">
  <g transform="matrix(1 0 0 -1 0 1606)">
   <path fill="currentColor"
d="M1733 1094q0 -43 -24 -45q-68 -5 -137 -99l-703 -964q-7 -10 -27 -10q-15 0 -22 57q-3 35 -6 71l-41 329l-328 -448q-7 -9 -27 -9q-16 0 -18 25l-10 103q-14 110 -42 331l-61 495q-8 62 -27 88q-8 11 -36 24t-28 15q0 46 25 46q21 0 63.5 -4.5t63.5 -4.5q23 0 67.5 5.5
t66.5 5.5q15 0 15 -19q0 -29 -9 -34q-31 -7 -63 -14q-25 -8 -25 -65q0 -13 1 -21l102 -782l256 357l-52 427q-6 52 -28 72q-8 8 -47 19q-35 9 -35 15q0 43 25 43q22 0 66.5 -4t66.5 -4q64 0 140 10q18 -5 18 -35q0 -7 -7 -16q-32 -8 -63 -17q-19 -11 -19 -63q0 -2 1 -9
l39 -292l206 286q23 32 23 54q0 27 -38 33t-38 11q0 46 28 46q21 0 61.5 -5t61.5 -5q22 0 65.5 5t64.5 5q11 0 11 -8q0 -11 -7 -32q-5 -14 -21 -14q-56 0 -129 -99l-275 -375l53 -400l533 746q35 49 35 81q0 47 -83 47q-10 0 -10 12q0 42 28 42q24 0 71 -5t71 -5
q25 0 73.5 5t73.5 5q11 0 11 -9z" />
  </g>

</svg>
