<?xml version="1.0" standalone="no"?>
<!DOCTYPE svg PUBLIC "-//W3C//DTD SVG 1.1//EN" "http://www.w3.org/Graphics/SVG/1.1/DTD/svg11.dtd" >
<svg viewBox="-12 -442 2048 2048">
  <g transform="matrix(1 0 0 -1 0 1606)">
   <path fill="currentColor"
d="M1214 1094q0 -10 -8 -31q-5 -13 -21 -14q-83 -4 -173 -99l-344 -363l192 -448q40 -94 121 -95h12q7 1 11 1q21 0 21 -12q0 -43 -24 -43q-30 0 -91 5t-92 5t-94 -5t-94 -5q-11 0 -11 14q0 23 13 36l60 8q50 7 50 45q0 20 -13 50l-150 350l-303 -320q-46 -49 -46 -81
q0 -48 109 -48q15 0 15 -13q0 -41 -27 -41t-81.5 5t-81.5 5q-28 0 -83 -5t-82 -5q-11 0 -11 10q0 12 6 30q5 14 21 14q59 0 153 99l386 408l-162 379q-50 118 -155 118q-31 0 -31 12q0 43 24 43q-4 0 57 -5t124 -5q31 0 93.5 5t93.5 5q12 0 12 -9q0 -29 -15 -42
q-5 -4 -44 -4q-59 0 -59 -36q0 -14 12 -42l139 -325l261 276q46 49 46 80q0 48 -110 48q-14 0 -14 13q0 41 28 41t85 -5t86 -5q30 0 89 5t88 5q12 0 12 -9z" />
  </g>

</svg>
