<?xml version="1.0" standalone="no"?>
<!DOCTYPE svg PUBLIC "-//W3C//DTD SVG 1.1//EN" "http://www.w3.org/Graphics/SVG/1.1/DTD/svg11.dtd" >
<svg viewBox="0 -442 2048 2048">
  <g transform="matrix(1 0 0 -1 0 1606)">
   <path fill="currentColor"
d="M1280 1094q0 -12 -8 -31q-5 -13 -33 -13q-77 0 -173 -100l-451 -469l-83 -323q-9 -35 -9 -52q0 -43 36 -56q19 -6 73 -6q10 0 10 -9q0 -45 -24 -45q-32 0 -95.5 5t-95.5 5q-33 0 -98.5 -5t-98.5 -5q-11 0 -11 14q0 38 47 42q67 7 95 31t44 86l90 354l-173 413
q-50 119 -152 119q-24 0 -24 11q0 43 25 43q32 0 95 -5t95 -5q33 0 98.5 5t98.5 5q11 0 11 -9q0 -28 -13 -42q-30 -3 -60 -7q-51 -7 -51 -47q0 -18 12 -48l152 -379l327 350q45 48 45 79q0 49 -111 49q-14 0 -14 13q0 41 28 41q31 0 94 -5t95 -5q66 0 132 5t63 5q12 0 12 -9
z" />
  </g>

</svg>
