<?xml version="1.0" standalone="no"?>
<!DOCTYPE svg PUBLIC "-//W3C//DTD SVG 1.1//EN" "http://www.w3.org/Graphics/SVG/1.1/DTD/svg11.dtd" >
<svg viewBox="0 -442 2048 2048">
  <g transform="matrix(1 0 0 -1 0 1606)">
   <path fill="currentColor"
d="M577 585q0 -62 -63 -62q-57 0 -57 81q0 20 -41 20q-94 0 -171 -111t-77 -250q0 -67 34 -110q36 -47 102 -47q44 0 76 25q40 31 55 35q31 -15 31 -28q0 -4 -4 -11q-77 -127 -201 -127q-99 0 -159 74q-56 70 -56 171q0 155 110 292q116 147 267 147q57 0 100 -21
q54 -27 54 -78z" />
  </g>

</svg>
