<?xml version="1.0" standalone="no"?>
<!DOCTYPE svg PUBLIC "-//W3C//DTD SVG 1.1//EN" "http://www.w3.org/Graphics/SVG/1.1/DTD/svg11.dtd" >
<svg viewBox="0 -442 2048 2048">
  <g transform="matrix(1 0 0 -1 0 1606)">
   <path fill="currentColor"
d="M783 1144q0 -2 -2 -10l-249 -969q-3 -12 -3 -28q0 -27 21 -27q28 0 80.5 69.5t55.5 69.5q6 0 16.5 -10.5t10.5 -16.5t-2 -10q-27 -58 -92 -128q-77 -82 -125 -82q-66 0 -66 83q0 30 36 182q-169 -267 -316 -267q-60 0 -95 62q-30 52 -30 117q0 163 127 329
q135 176 293 176q67 0 111 -42q91 377 91 384q0 34 -32.5 42t-32.5 15q0 39 61 45q54 5 122 31q20 1 20 -15zM512 532q0 92 -76 92q-74 0 -158 -105q-136 -170 -136 -336q0 -96 69 -96q80 0 194 183q107 174 107 262z" />
  </g>

</svg>
