<?xml version="1.0" standalone="no"?>
<!DOCTYPE svg PUBLIC "-//W3C//DTD SVG 1.1//EN" "http://www.w3.org/Graphics/SVG/1.1/DTD/svg11.dtd" >
<svg viewBox="0 -442 2048 2048">
  <g transform="matrix(1 0 0 -1 0 1606)">
   <path fill="currentColor"
d="M693 534q0 -220 -166 -419q-96 -115 -168 -115q-71 0 -71 59q0 66 60 66q25 0 42.5 -16.5t22.5 -16.5q20 0 49 44q43 65 76.5 172.5t33.5 183.5q0 97 -49 97q-98 0 -238 -211q-116 -175 -157 -306l-13 -40q-10 -21 -33 -21q-67 0 -67 32q0 4 4 18l266 919q5 17 5 32
q0 35 -43 47t-43 20q0 30 26 42q38 4 94 12q8 2 50 14q39 12 44 12q20 0 20 -15q0 -5 -7 -29l-218 -750q200 319 363 319q117 0 117 -150z" />
  </g>

</svg>
