<?xml version="1.0" standalone="no"?>
<!DOCTYPE svg PUBLIC "-//W3C//DTD SVG 1.1//EN" "http://www.w3.org/Graphics/SVG/1.1/DTD/svg11.dtd" >
<svg viewBox="0 -442 2048 2048">
  <g transform="matrix(1 0 0 -1 0 1606)">
   <path fill="currentColor"
d="M431 991q0 -29 -21 -49.5t-50 -20.5t-50 20.5t-21 49.5t21 50t50 21t50 -21t21 -50zM409 208q0 -4 -4 -11q-38 -65 -113 -127q-86 -70 -149 -70q-72 0 -72 64q0 35 20 88l134 353q12 32 12 50q0 19 -16 19q-22 0 -61.5 -34t-42.5 -34q-7 0 -18 11.5t-11 18.5t6 15
q34 43 93 85q69 48 113 48q61 0 61 -56q0 -45 -31 -127l-121 -321q-14 -37 -14 -51q0 -21 22 -21q42 0 101 64.5t61 64.5q6 0 18 -11.5t12 -17.5z" />
  </g>

</svg>
