<?xml version="1.0" standalone="no"?>
<!DOCTYPE svg PUBLIC "-//W3C//DTD SVG 1.1//EN" "http://www.w3.org/Graphics/SVG/1.1/DTD/svg11.dtd" >
<svg viewBox="0 -442 2048 2048">
  <g transform="matrix(1 0 0 -1 0 1606)">
   <path fill="currentColor"
d="M707 568q0 -108 -120 -173q-93 -51 -217 -61q38 -39 59 -92q54 -134 93 -134t86.5 48t50.5 48q8 0 21.5 -13t13.5 -20q0 -6 -6 -15q-110 -156 -213 -156q-67 0 -127 139q-70 164 -101 187q-6 4 -34 16l-93 -319q-6 -19 -22 -19q-76 0 -76 32q0 5 1 8l265 912q9 31 9 54
q0 37 -37 49.5t-37 19.5q0 31 27 42q30 3 87 12q11 2 65 19q22 7 24 7q19 0 19 -15q0 -13 -5 -30l-179 -607q165 174 310 174q55 0 93 -28q43 -32 43 -85zM588 531q0 58 -63 58q-69 0 -161 -67q-73 -53 -131 -123q45 -7 96 -7q88 0 161 28q98 38 98 111z" />
  </g>

</svg>
