<?xml version="1.0" standalone="no"?>
<!DOCTYPE svg PUBLIC "-//W3C//DTD SVG 1.1//EN" "http://www.w3.org/Graphics/SVG/1.1/DTD/svg11.dtd" >
<svg viewBox="0 -442 2048 2048">
  <g transform="matrix(1 0 0 -1 0 1606)">
   <path fill="currentColor"
d="M457 1144q0 -3 -2 -10l-278 -956q-7 -24 -7 -39q0 -31 22 -31q27 0 87.5 65t67.5 65t16.5 -11t9.5 -18q0 -30 -110 -119.5t-150 -89.5q-66 0 -66 61q0 36 16 91l241 828q5 17 5 35q0 33 -38.5 44.5t-38.5 19.5q0 34 26 42q30 3 89 12q27 5 65 18q11 4 24 8q21 0 21 -15z
" />
  </g>

</svg>
