<?xml version="1.0" standalone="no"?>
<!DOCTYPE svg PUBLIC "-//W3C//DTD SVG 1.1//EN" "http://www.w3.org/Graphics/SVG/1.1/DTD/svg11.dtd" >
<svg viewBox="0 -442 2048 2048">
  <g transform="matrix(1 0 0 -1 0 1606)">
   <path fill="currentColor"
d="M1158 212q0 -32 -121.5 -122t-157.5 -90q-58 0 -58 48q0 31 30 104l127 307q24 58 24 91q0 42 -55 42q-85 0 -192 -123q-86 -98 -131 -201q-28 -84 -95 -246q-10 -20 -24 -20q-76 0 -76 33q0 6 2 11l116 300q49 127 49 184q0 62 -44 62q-74 0 -175 -127
q-78 -100 -121 -197q-25 -57 -75 -183q-36 -92 -52 -92q-17 0 -44 12q-30 14 -30 29q0 7 2 12l152 368q36 87 36 125q0 36 -29 36q-26 0 -64.5 -59t-46.5 -59q-5 0 -18 8t-13 12q0 33 76.5 119t108.5 86q73 0 73 -86q0 -50 -28 -132q175 220 312 220q81 0 81 -104
q0 -31 -13 -101q186 205 323 205q104 0 104 -112q0 -48 -26 -111l-129 -312q-6 -15 -6 -25q0 -16 9 -16q24 0 92.5 65t79.5 66q27 -6 27 -27z" />
  </g>

</svg>
