<?xml version="1.0" standalone="no"?>
<!DOCTYPE svg PUBLIC "-//W3C//DTD SVG 1.1//EN" "http://www.w3.org/Graphics/SVG/1.1/DTD/svg11.dtd" >
<svg viewBox="0 -442 2048 2048">
  <g transform="matrix(1 0 0 -1 0 1606)">
   <path fill="currentColor"
d="M778 209q0 -6 -6 -13q-51 -62 -122 -120q-93 -76 -145 -76q-56 0 -56 50q0 34 27 102l133 337q12 30 12 56q0 44 -36 44q-93 0 -218 -158q-99 -126 -150 -246q-17 -57 -63 -165q-13 -24 -31 -24q-19 0 -40 11q-24 13 -24 30q0 8 4 18l122 307q51 128 51 181q0 32 -21 32
q-36 0 -75.5 -60t-45.5 -60q-37 0 -37 26q0 5 2 9q26 54 81 117q67 75 111 75q69 0 69 -95q0 -46 -20 -129q180 226 337 226q105 0 105 -98q0 -26 -18 -72l-131 -333q-14 -36 -14 -57q0 -16 10 -16q28 0 89.5 65.5t70.5 65.5q6 0 17.5 -12t11.5 -18z" />
  </g>

</svg>
