<?xml version="1.0" standalone="no"?>
<!DOCTYPE svg PUBLIC "-//W3C//DTD SVG 1.1//EN" "http://www.w3.org/Graphics/SVG/1.1/DTD/svg11.dtd" >
<svg viewBox="-124 -442 2048 2048">
  <g transform="matrix(1 0 0 -1 0 1606)">
   <path fill="currentColor"
d="M666 507q0 -57 -16 -110q-42 -139 -161.5 -268t-211.5 -129q-64 0 -101 50l-78 -268q-6 -21 -6 -37q0 -40 50.5 -46.5t50.5 -15.5q0 -47 -29 -47q1 0 -43 5t-90 5q-48 0 -94 -5l-46 -5q-15 0 -15 15q0 10 8 29q3 8 48 21q41 12 61 83l224 778q-21 -6 -162 -57
q-25 0 -25 31q0 32 209 97l32 110q10 34 41 34q67 0 67 -18q0 -15 -26 -96q93 21 162 21q71 0 113 -54q38 -50 38 -123zM548 469q0 53 -28 90.5t-80 37.5q-46 0 -109 -11l-119 -411q-3 -10 -3 -29q0 -86 65 -86q59 0 143 105q131 164 131 304z" />
  </g>

</svg>
