<?xml version="1.0" standalone="no"?>
<!DOCTYPE svg PUBLIC "-//W3C//DTD SVG 1.1//EN" "http://www.w3.org/Graphics/SVG/1.1/DTD/svg11.dtd" >
<svg viewBox="0 -442 2048 2048">
  <g transform="matrix(1 0 0 -1 0 1606)">
   <path fill="currentColor"
d="M725 667q0 -3 -1 -6l-253 -825q-14 -46 -14 -81q0 -50 47.5 -57t47.5 -16q0 -46 -30 -46q-1 0 -47 5t-103 5q-60 0 -107 -5t-48 -5q-14 0 -14 15q0 11 9 29q5 9 62 22q54 13 75 82l130 424q-172 -208 -303 -208q-70 0 -114 46t-44 116q0 179 151 348q155 174 331 174
q87 0 132 -71q28 69 53 69q40 0 40 -15zM571 535q0 89 -74 89q-95 0 -236 -188t-141 -313q0 -67 64 -67q105 0 249 188q138 181 138 291z" />
  </g>

</svg>
