<?xml version="1.0" standalone="no"?>
<!DOCTYPE svg PUBLIC "-//W3C//DTD SVG 1.1//EN" "http://www.w3.org/Graphics/SVG/1.1/DTD/svg11.dtd" >
<svg viewBox="0 -442 2048 2048">
  <g transform="matrix(1 0 0 -1 0 1606)">
   <path fill="currentColor"
d="M722 652q0 -12 -3 -20l-152 -429q-13 -37 -13 -78q0 -17 9 -17q21 0 75.5 65.5t58.5 65.5q5 0 14 -11t9 -16q0 -39 -102 -125.5t-151 -86.5q-44 0 -44 41q0 34 27 111l83 237q-98 -119 -206 -226q-165 -163 -230 -163q-45 0 -45 67q0 34 26 97l146 355q10 24 10 35
q0 15 -17 15q-16 0 -64.5 -54.5t-54.5 -54.5q-7 0 -16 11.5t-9 18.5q0 4 7 12q145 174 232 174q48 0 48 -44t-40 -140l-114 -273q-13 -31 -13 -58q0 -18 10 -18q51 0 219 201q157 188 187 260l16 48q13 32 33 32q17 0 38 -8q26 -10 26 -24z" />
  </g>

</svg>
