<?xml version="1.0" standalone="no"?>
<!DOCTYPE svg PUBLIC "-//W3C//DTD SVG 1.1//EN" "http://www.w3.org/Graphics/SVG/1.1/DTD/svg11.dtd" >
<svg viewBox="0 -442 2048 2048">
  <g transform="matrix(1 0 0 -1 0 1606)">
   <path fill="currentColor"
d="M1063 581q0 -191 -131 -386t-260 -195q-87 0 -128 100q-106 -100 -192 -100q-68 0 -111.5 42.5t-43.5 110.5q0 217 187 419h-169q-28 0 -53 -16q-28 -18 -28 -44q0 -3 24 -84q-9 -43 -56 -43q-50 0 -50 53q0 55 55 141q59 92 110 92q23 0 69 -4t69 -4q22 0 64.5 4t64.5 4
q24 0 24 -17q0 -8 -7 -15l-3 -3q-190 -190 -190 -419q0 -44 21 -75q24 -37 65 -37q61 0 133 64q-4 25 -4 46q0 178 65.5 320t152.5 142q66 0 66 -103q0 -163 -192 -397q32 -72 83 -72q85 0 184.5 132.5t99.5 253.5v4l-1 1q0 29 -30 59.5t-30 60.5q0 27 19.5 47.5t45.5 20.5
q77 0 77 -103zM739 548q0 36 -30 36q-38 0 -77 -91q-41 -96 -41 -188q0 -31 5 -63q143 180 143 306z" />
  </g>

</svg>
