<?xml version="1.0" standalone="no"?>
<!DOCTYPE svg PUBLIC "-//W3C//DTD SVG 1.1//EN" "http://www.w3.org/Graphics/SVG/1.1/DTD/svg11.dtd" >
<svg viewBox="-2 -442 2048 2048">
  <g transform="matrix(1 0 0 -1 0 1606)">
   <path fill="currentColor"
d="M679 602q0 -86 -52 -86q-33 0 -44.5 42t-21.5 42q-13 0 -39 -38l-133 -192l57 -180q25 -80 58 -80q36 0 76.5 53.5t43.5 53.5q8 0 19.5 -10.5t11.5 -18.5q0 -36 -65 -109q-68 -77 -111 -77q-77 0 -116 123l-45 142l-103 -150q-80 -117 -144 -117q-73 0 -73 63q0 70 55 70
q20 0 41 -13.5t25 -13.5q14 0 36 32l140 202l-50 157q-25 79 -63 79q-22 0 -51.5 -32t-33.5 -32q-6 0 -17.5 11t-11.5 17q0 7 3 13q22 45 58 83q46 48 85 48q75 0 120 -143l31 -98l86 124q81 117 145 117q83 0 83 -82z" />
  </g>

</svg>
