<?xml version="1.0" standalone="no"?>
<!DOCTYPE svg PUBLIC "-//W3C//DTD SVG 1.1//EN" "http://www.w3.org/Graphics/SVG/1.1/DTD/svg11.dtd" >
<svg viewBox="0 -442 2048 2048">
  <g transform="matrix(1 0 0 -1 0 1606)">
   <path fill="currentColor"
d="M656 651q0 -29 -37 -69q-18 -19 -260 -263q-53 -50 -152 -156q132 -78 184 -187q33 -68 60 -68q24 0 45 42.5t49 42.5q39 0 39 -39q0 -45 -58 -75q-48 -26 -98 -26q-84 0 -179.5 107t-124.5 107q-20 0 -45.5 -30t-45.5 -30q-27 0 -27 22q0 20 77 91q11 10 135 136
q73 71 214 219q-36 7 -65 17q-15 5 -80 46q-55 33 -78 33q-54 0 -54 -59q0 -14 14 -34.5t14 -31.5q0 -19 -23 -19q-26 0 -45 39q-16 33 -16 63q0 61 46 108t106 47q50 0 138.5 -50t137.5 -50q28 0 51.5 48.5t50.5 48.5t27 -30z" />
  </g>

</svg>
