<?xml version="1.0" standalone="no"?>
<!DOCTYPE svg PUBLIC "-//W3C//DTD SVG 1.1//EN" "http://www.w3.org/Graphics/SVG/1.1/DTD/svg11.dtd" >
<svg viewBox="0 -442 2048 2048">
  <g transform="matrix(1 0 0 -1 0 1606)">
   <path fill="currentColor"
d="M877 1301l-8 -45q-133 -29 -189 -115q-48 -73 -54 -217q-7 -188 -68 -281q-64 -100 -234 -168q171 -86 171 -227q0 -70 -48 -197.5t-48 -196.5q0 -128 146 -163l-9 -44q-294 47 -294 236q0 72 53 205t53 205q0 116 -136 162l8 37q196 59 226 251q23 166 47 332
q74 179 384 226z" />
  </g>

</svg>
