<?xml version="1.0" standalone="no"?>
<!DOCTYPE svg PUBLIC "-//W3C//DTD SVG 1.1//EN" "http://www.w3.org/Graphics/SVG/1.1/DTD/svg11.dtd" >
<svg viewBox="-30 -442 2048 2048">
  <g transform="matrix(1 0 0 -1 0 1606)">
   <path fill="currentColor"
d="M635 492l-8 -37q-197 -60 -227 -251l-46 -332q-75 -178 -384 -225l9 44q163 36 211 155q17 44 36 244q15 162 87 247q65 77 210 138q-171 82 -171 223q0 70 48.5 198.5t48.5 197.5q0 127 -147 162l9 45q294 -47 294 -235q0 -73 -53 -205.5t-53 -205.5q0 -117 136 -163z
" />
  </g>

</svg>
