<?xml version="1.0" standalone="no"?>
<!DOCTYPE svg PUBLIC "-//W3C//DTD SVG 1.1//EN" "http://www.w3.org/Graphics/SVG/1.1/DTD/svg11.dtd" >
<svg viewBox="0 -419 2154 2048">
  <g transform="matrix(1 0 0 -1 0 1638)">
   <path fill="currentColor"
d="M2154 -239q0 -74 -53 -127t-127 -53h-1598q-74 0 -127 53t-53 127v1599q0 74 53 127t127 53h1598q74 0 127 -53t53 -127v-1599zM1761 1365v151h-21v-78l-85 78h-11v-151h21v78l86 -78h10zM1614 1365v151h-33v-151h33zM1552 1494v22h-100v-22h31v-129h37v129h32zM2111 818
v84q0 36 -36 36h-38q-36 0 -36 -34v-88q0 -34 36 -34h38q36 0 36 36zM1432 1365v116q0 35 -32 35h-35q-33 0 -33 -34v-117h37v65h27v-65h36zM2111 620v84q0 36 -36 36h-38q-36 0 -36 -34v-88q0 -34 36 -34h38q36 0 36 36zM1308 1365v21h-47v130h-37v-151h84zM2114 513v29
h-116v-27h78q-57 -43 -57 -130h40q-4 93 55 128zM1117 1402h-21q-1 -16 -13 -16h-16l-10 4l-4 10v80l4 10l10 4h16q12 0 13 -16h21q-2 38 -34 38h-32q-35 0 -35 -35v-81q0 -35 35 -35h32q32 0 34 37zM990 1365v151h-34v-151h34zM927 1400q0 25 -24 49l-8 8q-14 14 -14 26
q0 5 2 8q6 4 11 4q11 0 13 -17h20q-2 38 -32 38h-19q-33 0 -33 -35q0 -25 24 -49l9 -9q14 -14 14 -25q0 -4 -2 -8q-6 -4 -11 -4q-2 0 -4 1l-5 2l-4 9v4h-21q0 -37 33 -37h19q32 0 32 35zM2106 317v28h-102v-157h41v66h47v28h-47v35h61zM817 1365v116q0 35 -33 35h-35
q-32 0 -32 -34l-1 -117h37v65h27v-65h37zM689 1400q0 34 -21 41q21 8 21 32q0 43 -34 43h-66v-151h66q34 0 34 35zM1959 -79v1279q0 59 -42.5 101.5t-101.5 42.5h-1280q-59 0 -101.5 -42.5t-42.5 -101.5v-1279q0 -59 42.5 -101.5t101.5 -42.5h1280q59 0 101.5 42.5
t42.5 101.5zM1761 -395v151h-21v-78l-85 78h-11v-151h21v78l86 -78h10zM1614 -395v151h-33v-151h33zM1552 -266v22h-100v-22h31v-129h37v129h32zM349 818v84q0 36 -36 36h-39q-36 0 -36 -34v-88q0 -34 36 -34h39q36 0 36 36zM1432 -395v116q0 35 -32 35h-35q-33 0 -33 -34
v-117h37v65h27v-65h36zM349 620v84q0 36 -36 36h-39q-36 0 -36 -34v-88q0 -34 36 -34h39q36 0 36 36zM1308 -395v21h-47v130h-37v-151h84zM349 421v85q0 36 -36 36h-39q-36 0 -36 -35v-87q0 -35 36 -35h39q36 0 36 36zM1117 -358h-21q-1 -16 -13 -16h-16l-10 4l-4 10v80
l4 10l10 4h16q12 0 13 -16h21q-2 38 -34 38h-32q-35 0 -35 -35v-81q0 -35 35 -35h32q32 0 34 37zM990 -395v151h-34v-151h34zM927 -360q0 25 -24 49l-8 8q-14 14 -14 26q0 5 2 8q6 4 11 4q11 0 13 -17h20q-2 38 -32 38h-19q-33 0 -33 -35q0 -25 24 -49l9 -9q14 -14 14 -25
q0 -4 -2 -8q-6 -4 -11 -4q-2 0 -4 1l-5 2l-4 9v4h-21q0 -37 33 -37h19q32 0 32 35zM349 224v84q0 36 -36 36h-39q-36 0 -36 -34v-88q0 -34 36 -34h39q36 0 36 36zM817 -395v116q0 35 -33 35h-35q-32 0 -32 -34l-1 -117h37v65h27v-65h37zM689 -360q0 34 -21 41q21 8 21 32
q0 43 -34 43h-66v-151h66q34 0 34 35zM2071 818l-4 -10l-11 -4l-10 4l-5 10v83l5 11l10 4l11 -4l4 -11v-83zM1396 1451h-27v29l4 10l9 4l10 -4l4 -10v-29zM2071 620l-4 -10l-11 -4l-10 4l-5 10v84l5 10l10 4l11 -4l4 -10v-84zM780 1451h-27v29l4 10l10 4l9 -4l4 -10v-29z
M652 1465l-4 -10l-10 -4h-13v43h13l10 -4l4 -10v-15zM652 1400l-4 -10l-10 -4h-13v44h14q13 0 13 -14v-16zM1741 0h-334v45h13q75 0 75 43q0 22 -35 105l-69 164h-492l-69 -169q-30 -73 -30 -90q0 -39 75 -51l12 -2v-45h-278v45h11q52 0 88 51q20 28 48 97l400 974h46
l414 -974q63 -148 116 -148h9v-45zM309 818l-5 -10l-10 -4l-11 4l-4 10v83l4 11l11 4l10 -4l5 -11v-83zM1396 -309h-27v29l4 10l9 4l10 -4l4 -10v-29zM309 620l-5 -10l-10 -4l-11 4l-4 10v84l4 10l11 4l10 -4l5 -10v-84zM309 422l-5 -10l-10 -5l-11 5l-4 10v83l4 11l11 4
l10 -4l5 -11v-83zM309 225l-5 -11l-10 -4l-11 4l-4 11v83l4 10l11 4l10 -4l5 -10v-83zM780 -309h-27v29l4 10l10 4l9 -4l4 -10v-29zM652 -295l-4 -10l-10 -4h-13v43h13l10 -4l4 -10v-15zM652 -360l-4 -10l-10 -4h-13v44h14q13 0 13 -14v-16zM1363 413l-227 535l-216 -535
h443z" />
  </g>

</svg>
