<?xml version="1.0" standalone="no"?>
<!DOCTYPE svg PUBLIC "-//W3C//DTD SVG 1.1//EN" "http://www.w3.org/Graphics/SVG/1.1/DTD/svg11.dtd" >
<svg viewBox="0 -442 2048 2048">
  <g transform="matrix(1 0 0 -1 0 1606)">
   <path fill="currentColor"
d="M694 1047q0 -33 -22 -56.5t-54 -23.5q-41 0 -102 58t-94 58q-87 0 -87 -92q0 -119 129 -337q158 -269 181 -338q36 -106 36 -233q0 -159 -94 -275q-98 -120 -254 -134q-44 -4 -68 -4q-62 0 -120 39q-66 43 -66 101q0 34 22 58.5t55 24.5q58 0 107.5 -67.5t91.5 -67.5
q98 0 98 130q0 91 -185 384q-104 164 -136 258q-34 99 -34 229q0 160 95 276q99 120 256 133q47 4 63 4q59 0 116 -33q66 -37 66 -92zM597 43q0 136 -87 309q-81 141 -163 282q-87 156 -87 252q0 100 43 173q-121 -114 -121 -260q0 -136 89 -310q83 -142 167 -284
q89 -156 89 -249q0 -92 -36 -159q106 114 106 246z" />
  </g>

</svg>
