<?xml version="1.0" standalone="no"?>
<!DOCTYPE svg PUBLIC "-//W3C//DTD SVG 1.1//EN" "http://www.w3.org/Graphics/SVG/1.1/DTD/svg11.dtd" >
<svg viewBox="0 -442 2048 2048">
  <g transform="matrix(1 0 0 -1 0 1606)">
   <path fill="currentColor"
d="M552 648q0 -41 -28.5 -69t-69.5 -28q-40 0 -69.5 28.5t-29.5 68.5t29.5 69t69.5 29q41 0 69.5 -28.5t28.5 -69.5zM827 343q0 -21 -21 -21h-703q-22 0 -22 21v60q0 21 22 21h703q21 0 21 -21v-60zM552 97q0 -41 -28.5 -69t-69.5 -28q-40 0 -69.5 28.5t-29.5 68.5t29.5 69
t69.5 29q41 0 69.5 -28.5t28.5 -69.5z" />
  </g>

</svg>
