<?xml version="1.0" standalone="no"?>
<!DOCTYPE svg PUBLIC "-//W3C//DTD SVG 1.1//EN" "http://www.w3.org/Graphics/SVG/1.1/DTD/svg11.dtd" >
<svg viewBox="0 -419 2154 2048">
  <g transform="matrix(1 0 0 -1 0 1638)">
   <path fill="currentColor"
d="M2154 -239q0 -75 -52.5 -127.5t-127.5 -52.5h-1598q-75 0 -127.5 52.5t-52.5 127.5v1599q0 75 52.5 127.5t127.5 52.5h1598q75 0 127.5 -52.5t52.5 -127.5v-1599zM1539 1365v151h-18l-33 -18v-20h16v-113h35zM2112 818v84q0 36 -36 36h-39q-36 0 -36 -34v-88
q0 -34 36 -34h39q36 0 36 36zM1348 1365v151h-21v-78l-85 78h-11v-151h21v78l86 -78h10zM2112 620v84q0 36 -36 36h-39q-36 0 -36 -34v-88q0 -34 36 -34h39q36 0 36 36zM1201 1365v151h-33v-151h33zM1139 1494v22h-101v-22h32v-129h37v129h32zM2098 521v21h-84v-154h36v66
h32v22h-32v45h48zM1019 1365v116q0 35 -32 35h-36q-32 0 -32 -34v-117h36v65h28v-65h36zM2106 317v28h-102v-157h41v66h47v28h-47v35h61zM895 1365v21h-47v130h-37v-151h84zM1959 -79v1279q0 60 -42 102t-102 42h-1280q-60 0 -102 -42t-42 -102v-1279q0 -60 42 -102t102 -42
h1280q60 0 102 42t42 102zM1539 -395v151h-18l-33 -18v-20h16v-113h35zM349 818v84q0 36 -36 36h-39q-36 0 -36 -34v-88q0 -34 36 -34h39q36 0 36 36zM1348 -395v151h-21v-78l-85 78h-11v-151h21v78l86 -78h10zM349 620v84q0 36 -36 36h-39q-36 0 -36 -34v-88q0 -34 36 -34
h39q36 0 36 36zM1201 -395v151h-33v-151h33zM1139 -266v22h-101v-22h32v-129h37v129h32zM350 421q0 36 -24 43q24 8 24 33q0 45 -38 45h-35q-38 0 -38 -36q0 -35 24 -42q-24 -9 -24 -34q0 -45 38 -45h35q38 0 38 36zM1019 -395v116q0 35 -32 35h-36q-32 0 -32 -34v-117h36
v65h28v-65h36zM349 224v84q0 36 -36 36h-39q-36 0 -36 -34v-88q0 -34 36 -34h39q36 0 36 36zM895 -395v21h-47v130h-37v-151h84zM2071 818l-4 -10l-11 -4l-10 4l-5 10v83l5 11l10 4l11 -4l4 -11v-83zM2071 620l-4 -10l-11 -4l-10 4l-5 10v84l5 10l10 4l11 -4l4 -10v-84z
M983 1451h-28v29l5 10l9 4l10 -4l4 -10v-29zM1431 1195l-283 -130h-124l204 130h203zM1673 0h-294v40q77 0 77 38q0 19 -91 236h-432q-88 -212 -88 -228q0 -37 77 -46v-40h-245v40q53 0 85 41q18 23 45 89l351 855h41l363 -855q29 -68 39 -84q29 -46 72 -46v-40zM309 818
l-5 -10l-10 -4l-11 4l-4 10v83l4 11l11 4l10 -4l5 -11v-83zM309 620l-5 -10l-10 -4l-11 4l-4 10v84l4 10l11 4l10 -4l5 -10v-84zM310 489l-5 -10l-10 -4l-11 4l-4 10v16l4 11l11 4l10 -4l5 -11v-16zM310 422l-5 -10l-10 -5l-11 5l-4 10v16q0 15 15 15t15 -15v-16zM983 -309
h-28v29l5 10l9 4l10 -4l4 -10v-29zM309 225l-5 -11l-10 -4l-11 4l-4 11v83l4 10l11 4l10 -4l5 -10v-83zM1340 363l-199 470l-190 -470h389z" />
  </g>

</svg>
