<?xml version="1.0" standalone="no"?>
<!DOCTYPE svg PUBLIC "-//W3C//DTD SVG 1.1//EN" "http://www.w3.org/Graphics/SVG/1.1/DTD/svg11.dtd" >
<svg viewBox="0 -419 2154 2048">
  <g transform="matrix(1 0 0 -1 0 1638)">
   <path fill="currentColor"
d="M2154 -239q0 -75 -52.5 -127.5t-127.5 -52.5h-1598q-75 0 -127.5 52.5t-52.5 127.5v1599q0 75 52.5 127.5t127.5 52.5h1598q75 0 127.5 -52.5t52.5 -127.5v-1599zM1736 1365v34h-34v-34h34zM1669 1365v116q0 35 -33 35h-35q-32 0 -32 -34v-117h36v65h27v-65h37zM2112 818
v84q0 36 -36 36h-39q-36 0 -36 -34v-88q0 -34 36 -34h39q36 0 36 36zM1534 1365v34h-33v-34h33zM1500 1463v18q0 35 -33 35h-67v-151h36v65q64 -1 64 33zM1365 1365v34h-34v-34h34zM1298 1365v151h-34v-151h34zM2107 583v22h-64q2 11 33 42.5t31 46.5q0 44 -35 44h-32
q-30 0 -34 -38h21q0 16 13 16h16l10 -4l4 -10q0 -20 -32 -52.5t-32 -47.5v-19h101zM1151 1365v151h-21v-78l-85 78h-11v-151h21v78l85 -78h11zM2111 385v121q0 36 -36 36h-38q-36 0 -36 -35v-122h40v68h30v-68h40zM1004 1365v151h-34v-151h34zM942 1494v22h-101v-22h32v-129
h37v129h32zM2106 317v28h-102v-157h41v66h47v28h-47v35h61zM822 1365v116q0 35 -33 35h-35q-32 0 -32 -34v-117h36v65h27v-65h37zM698 1365v21h-48v130h-36v-151h84zM1959 -79v1279q0 59 -42.5 101.5t-101.5 42.5h-1280q-59 0 -101.5 -42.5t-42.5 -101.5v-1279
q0 -59 42.5 -101.5t101.5 -42.5h1280q59 0 101.5 42.5t42.5 101.5zM1736 -395v34h-34v-34h34zM1669 -395v116q0 35 -33 35h-35q-32 0 -32 -34v-117h36v65h27v-65h37zM349 818v84q0 36 -36 36h-39q-36 0 -36 -34v-88q0 -34 36 -34h39q36 0 36 36zM1534 -395v34h-33v-34h33z
M1500 -297v18q0 35 -33 35h-67v-151h36v65q64 -1 64 33zM1365 -395v34h-34v-34h34zM1298 -395v151h-34v-151h34zM344 583v22h-64q2 11 33 42.5t31 46.5q0 44 -34 44h-32q-31 0 -35 -38h21q1 16 14 16h15l10 -4l4 -10q0 -20 -31.5 -52.5t-31.5 -47.5v-19h100zM1151 -395v151
h-21v-78l-85 78h-11v-151h21v78l85 -78h11zM344 424v33q0 36 -64 36v28h64v21h-100v-71h50l9 -4l5 -11v-32l-5 -10l-9 -4h-16q-13 0 -14 16h-20q4 -38 34 -38h32q34 0 34 36zM1004 -395v151h-34v-151h34zM942 -266v22h-101v-22h32v-129h37v129h32zM349 224v84q0 36 -36 36
h-39q-36 0 -36 -34v-88q0 -34 36 -34h39q36 0 36 36zM822 -395v116q0 35 -33 35h-35q-32 0 -32 -34v-117h36v65h27v-65h37zM698 -395v21h-48v130h-36v-151h84zM1632 1451h-27v29l4 10l10 4l9 -4l4 -10v-29zM1463 1465l-4 -10l-10 -4h-13v43h13l10 -4l4 -10v-15zM2071 818
l-4 -10l-11 -4l-10 4l-5 10v83l5 11l10 4l11 -4l4 -11v-83zM2071 475h-30v30l5 11l10 4l10 -4l5 -11v-30zM785 1451h-27v29l4 10l10 4l9 -4l4 -10v-29zM1557 647q0 -126 -179 -210q-59 -28 -285 -94v-115q0 -96 29 -137q35 -50 127 -50q79 0 109 37q25 32 25 114l157 50v-22
q0 -111 -124 -182q-106 -61 -226 -61q-233 0 -233 216v346q0 116 -14 154q-24 65 -107 65q-20 0 -43 -3v43q71 40 142 40q121 0 147 -166q128 166 288 166q83 0 135 -54t52 -137zM1632 -309h-27v29l4 10l10 4l9 -4l4 -10v-29zM1463 -295l-4 -10l-10 -4h-13v43h13l10 -4
l4 -10v-15zM309 818l-5 -10l-10 -4l-11 4l-4 10v83l4 11l11 4l10 -4l5 -11v-83zM309 225l-5 -11l-10 -4l-11 4l-4 11v83l4 10l11 4l10 -4l5 -10v-83zM785 -309h-27v29l4 10l10 4l9 -4l4 -10v-29zM1410 623q0 52 -34.5 91t-86.5 39q-87 0 -141.5 -63.5t-54.5 -152.5v-146
q172 55 203 71q114 59 114 161z" />
  </g>

</svg>
