<?xml version="1.0" standalone="no"?>
<!DOCTYPE svg PUBLIC "-//W3C//DTD SVG 1.1//EN" "http://www.w3.org/Graphics/SVG/1.1/DTD/svg11.dtd" >
<svg viewBox="0 -419 2154 2048">
  <g transform="matrix(1 0 0 -1 0 1638)">
   <path fill="currentColor"
d="M2154 -239q0 -75 -52.5 -127.5t-127.5 -52.5h-1598q-75 0 -127.5 52.5t-52.5 127.5v1599q0 75 52.5 127.5t127.5 52.5h1598q75 0 127.5 -52.5t52.5 -127.5v-1599zM1631 1365v60l-5 13l-11 5q16 8 16 29q0 44 -32 44h-68v-151h37v65h13l10 -4l4 -11v-50h36zM2112 818v84
q0 36 -36 36h-39q-36 0 -36 -34v-88q0 -34 36 -34h39q36 0 36 36zM1494 1365v21h-48v44h32v21h-32v43h48v22h-84v-151h84zM1369 1365v151h-33v-151h33zM2107 583v22h-64q2 11 33 42.5t31 46.5q0 44 -35 44h-32q-30 0 -34 -38h21q0 16 13 16h16l10 -4l4 -10q0 -20 -32 -52.5
t-32 -47.5v-19h101zM1311 1494v22h-84v-151h36v65h32v21h-32v43h48zM1197 1365v151h-33v-151h33zM1131 1400v81q0 35 -32 35h-68v-151h68q32 0 32 35zM2098 521v21h-84v-154h36v66h32v22h-32v45h48zM1009 1400v81q0 34 -32 34h-35q-33 0 -33 -33v-84q0 -33 33 -33h35
q32 0 32 35zM2106 317v28h-102v-157h41v66h47v28h-47v35h61zM886 1365v151h-20l-68 -69l-68 69h-11v-151h21v86l54 -55l55 55v-86h37zM1959 -79v1279q0 60 -42 102t-102 42h-1280q-60 0 -102 -42t-42 -102v-1279q0 -60 42 -102t102 -42h1280q60 0 102 42t42 102zM1566 -282
q-3 38 -33 38h-19q-32 0 -32 -35q0 -22 24 -49l8 -9q19 -21 12 -33q-6 -4 -10 -4q-2 0 -5 1l-4 2l-5 9v4h-20q0 -37 32 -37h19q32 0 32 35q0 29 -23 49l-9 8q-21 19 -11 34q6 4 10 4q11 0 13 -17h21zM349 818v84q0 36 -36 36h-39q-36 0 -36 -34v-88q0 -34 36 -34h39
q36 0 36 36zM1461 -395v60l-5 13l-11 5q16 8 16 29q0 44 -33 44h-67v-151h36v65h13l10 -4l4 -10v-51h37zM1333 -395v21h-47v44h32v21h-32v44h47v21h-83v-151h83zM344 583v22h-64q2 11 33 42.5t31 46.5q0 44 -34 44h-32q-31 0 -35 -38h21q1 16 14 16h15l10 -4l4 -10
q0 -20 -31.5 -52.5t-31.5 -47.5v-19h100zM1228 -265v21h-100v-21h32v-130h36v130h32zM349 421q0 36 -23 43q23 8 23 33q0 45 -38 45h-73v-157h73q38 0 38 36zM1104 -265v21h-100v-21h32v-130h36v130h32zM977 -395v21h-47v44h32v21h-32v44h47v21h-83v-151h83zM349 224v84
q0 36 -36 36h-39q-36 0 -36 -34v-88q0 -34 36 -34h39q36 0 36 36zM868 -395v21h-47v130h-37v-151h84zM1595 1465l-4 -10l-10 -4h-13v43h13l10 -4l4 -10v-15zM2071 818l-4 -10l-11 -4l-10 4l-5 10v83l5 11l10 4l11 -4l4 -11v-83zM1095 1400l-4 -10l-10 -4h-13v108h13l10 -4
l4 -10v-80zM973 1400l-4 -10l-10 -4l-9 4l-4 10v80l4 10l9 4l10 -4l4 -10v-80zM1477 977h-66l-238 200l-235 -200h-68l243 325h121zM309 818l-5 -10l-10 -4l-11 4l-4 10v83l4 11l11 4l10 -4l5 -11v-83zM1424 -295l-4 -10l-10 -4h-13v44h13l10 -5l4 -10v-15zM309 489l-5 -10
l-11 -4h-14v45h14l11 -4l5 -11v-16zM309 422l-5 -10l-11 -5h-14v46h15q15 0 15 -15v-16zM309 225l-5 -11l-10 -4l-11 4l-4 11v83l4 10l11 4l10 -4l5 -10v-83z" />
  </g>

</svg>
