<?xml version="1.0" standalone="no"?>
<!DOCTYPE svg PUBLIC "-//W3C//DTD SVG 1.1//EN" "http://www.w3.org/Graphics/SVG/1.1/DTD/svg11.dtd" >
<svg viewBox="0 -419 2154 2048">
  <g transform="matrix(1 0 0 -1 0 1638)">
   <path fill="currentColor"
d="M2154 -239q0 -75 -52.5 -127.5t-127.5 -52.5h-1598q-75 0 -127.5 52.5t-52.5 127.5v1599q0 75 52.5 127.5t127.5 52.5h1598q75 0 127.5 -52.5t52.5 -127.5v-1599zM1741 1400v51h-52v-21h16v-30q0 -13 -13 -14l-10 4l-4 10v80l4 10l10 4h15q12 0 14 -16h20q-2 38 -34 38
h-32q-34 0 -34 -35v-81q0 -35 34 -35h32q34 0 34 35zM1599 1365v151h-21v-78l-85 78h-11v-151h21v78l86 -78h10zM2112 818v84q0 36 -36 36h-39q-36 0 -36 -34v-88q0 -34 36 -34h39q36 0 36 36zM1445 1365v151h-33v-151h33zM1381 1365v151h-21v-78l-86 78h-10v-151h21v78
l85 -78h11zM2107 617v35q0 33 -43 35l43 30v20h-101v-21h59l-43 -30v-20l25 1q23 1 23 -15v-33l-4 -10l-10 -5h-15q-13 0 -14 17h-21q4 -38 33 -38h35q33 0 33 34zM1230 1365v151h-33v-151h33zM1161 1400q0 34 -21 41q21 8 21 32q0 43 -34 43h-66v-151h66q34 0 34 35z
M2111 422v33q0 37 -37 37h-18q-6 -2 -14 -5l-1 -2v4q0 31 53 31v22h-31q-24 0 -43 -17.5t-19 -41.5v-61q0 -36 37 -36h36q37 0 37 36zM1030 1365v151h-20l-68 -69l-68 69h-11v-151h21v86l54 -55l55 55v-86h37zM2106 317v28h-102v-157h41v66h47v28h-47v35h61zM837 1400v81
q0 34 -33 34h-35q-33 0 -33 -33v-84q0 -33 33 -33h35q33 0 33 35zM709 1402h-21q-1 -16 -13 -16h-16l-10 4l-4 10v80l4 10l10 4h16q12 0 13 -16h21q-2 38 -34 38h-32q-34 0 -34 -35v-81q0 -35 34 -35h32q32 0 34 37zM1959 -79v1279q0 60 -42 102t-102 42h-1280
q-60 0 -102 -42t-42 -102v-1279q0 -60 42 -102t102 -42h1280q60 0 102 42t42 102zM1720 -360q0 28 -24 49l-9 8q-21 19 -11 34q6 4 11 4q11 0 13 -17h20q-2 38 -32 38h-19q-33 0 -33 -35q0 -25 24 -49l9 -9q14 -14 14 -25q0 -5 -2 -8q-6 -4 -11 -4q-2 0 -4 1l-5 2l-4 9v4
h-21q0 -37 32 -37h20q32 0 32 35zM1607 -358h-21q-2 -16 -14 -16h-15l-10 4l-4 10v80l4 10l10 4h15q12 0 14 -16h21q-2 38 -35 38h-32q-34 0 -34 -35v-81q0 -35 34 -35h32q32 0 35 37zM349 818v84q0 36 -36 36h-39q-36 0 -36 -34v-88q0 -34 36 -34h39q36 0 36 36zM1477 -395
v151h-34v-151h34zM1407 -266v22h-100v-22h32v-129h36v129h32zM344 617v35q0 33 -43 35l43 30v20h-101v-21h59l-43 -30v-20l25 1q23 1 23 -15v-33l-4 -10l-10 -5h-15q-13 0 -14 17h-21q4 -38 33 -38h35q33 0 33 34zM1272 -395v151h-34v-151h34zM1208 -395v60l-5 13l-11 5
q16 8 16 29q0 44 -32 44h-68v-151h37v65h13l10 -4l4 -11v-50h36zM349 421v85q0 36 -36 36h-39q-36 0 -36 -35v-87q0 -35 36 -35h39q36 0 36 36zM1070 -358h-20q-2 -16 -14 -16h-15l-10 4l-4 10v80l4 10l10 4h15q12 0 14 -16h20q-2 38 -34 38h-32q-34 0 -34 -35v-81
q0 -35 34 -35h32q32 0 34 37zM937 -395v116q0 35 -33 35h-35q-32 0 -32 -34l-1 -117h37v65h27v-65h37zM349 224v84q0 36 -36 36h-39q-36 0 -36 -34v-88q0 -34 36 -34h39q36 0 36 36zM800 -395v151h-34v-151h34zM730 -360v81q0 35 -32 35h-68v-151h68q32 0 32 35zM2071 818
l-4 -10l-11 -4l-10 4l-5 10v83l5 11l10 4l11 -4l4 -11v-83zM1124 1465l-4 -10l-10 -4h-13v43h13l10 -4l4 -10v-15zM1124 1400l-4 -10l-10 -4h-13v44h14q13 0 13 -14v-16zM2071 422l-5 -10l-10 -4l-10 4l-5 10v33l5 10l10 4l10 -4l5 -10v-33zM1470 1304l-243 -325h-121
l-243 325h66l237 -201l236 201h68zM800 1400l-4 -10l-9 -4l-10 4l-4 10v80l4 10l10 4l9 -4l4 -10v-80zM1431 770q-21 -37 -58 -15t-16 58q22 37 59 16t15 -59zM1591 651q20 -35 -15 -56t-57 15q-21 36 16 57q8 4 13 6q26 8 43 -22zM1656 412q0 -43 -41 -43q-43 0 -43 43
q0 42 43 42q41 0 41 -42zM1217 850q0 -43 -41 -43q-43 0 -43 43t43 43q41 0 41 -43zM993 813q21 -36 -16 -58t-58 15q-22 38 15 59t59 -16zM1591 170q-20 -36 -56 -16q-38 21 -16 59q21 36 57 15t15 -58zM831 610q-22 -36 -57 -15t-15 56q17 30 43 22q5 -2 13 -6
q37 -21 16 -57zM1431 53q22 -38 -15 -59q-37 -22 -59 16q-21 36 16 58q37 21 58 -15zM309 818l-5 -10l-10 -4l-11 4l-4 10v83l4 11l11 4l10 -4l5 -11v-83zM778 412q0 -43 -43 -43q-41 0 -41 43q0 42 41 42q43 0 43 -42zM1217 -27q0 -43 -41 -43q-43 0 -43 43q0 41 43 41
q41 0 41 -41zM993 10q-22 -38 -59 -16q-37 21 -15 59q21 36 58 15q37 -22 16 -58zM831 213q22 -38 -16 -59q-36 -20 -56 16q-21 37 15 58t57 -15zM1172 -295l-4 -10l-10 -4h-13v43h13l10 -4l4 -10v-15zM309 422l-5 -10l-10 -5l-11 5l-4 10v83l4 11l11 4l10 -4l5 -11v-83z
M900 -309h-27v29l4 10l10 4l9 -4l4 -10v-29zM309 225l-5 -11l-10 -4l-11 4l-4 11v83l4 10l11 4l10 -4l5 -10v-83zM694 -360l-4 -10l-10 -4h-13v108h13l10 -4l4 -10v-80z" />
  </g>

</svg>
