<?xml version="1.0" standalone="no"?>
<!DOCTYPE svg PUBLIC "-//W3C//DTD SVG 1.1//EN" "http://www.w3.org/Graphics/SVG/1.1/DTD/svg11.dtd" >
<svg viewBox="0 -419 2154 2048">
  <g transform="matrix(1 0 0 -1 0 1638)">
   <path fill="currentColor"
d="M2154 -239q0 -74 -53 -127t-127 -53h-1598q-74 0 -127 53t-53 127v1599q0 74 53 127t127 53h1598q74 0 127 -53t53 -127v-1599zM1604 1402h-20q-2 -16 -14 -16h-16l-10 4l-4 10v80l4 10l10 4h16q12 0 14 -16h20q-2 38 -34 38h-32q-34 0 -34 -35v-81q0 -35 34 -35h32
q32 0 34 37zM2112 818v84q0 36 -36 36h-39q-36 0 -36 -34v-88q0 -34 36 -34h39q36 0 36 36zM1474 1365v151h-34v-151h34zM1400 1365v21h-47v130h-37v-151h84zM2120 634v22h-17v84h-39l-71 -86v-20h70v-50h40v50h17zM1286 1365v21h-47v130h-37v-151h84zM1164 1365v151h-34
v-151h34zM2098 521v21h-84v-154h36v66h32v22h-32v45h48zM1104 1365v60l-6 13l-11 5q17 8 17 29q0 44 -33 44h-68v-151h37v65h13l10 -4l4 -11v-50h37zM974 1465v51h-37v-51l-4 -10l-10 -4l-9 4l-4 10v51h-37v-51q0 -30 32 -35v-65h37v65q32 5 32 35zM2106 317v28h-102v-157
h41v66h47v28h-47v35h61zM846 1402h-20q-2 -16 -14 -16h-16l-10 4l-4 10v80l4 10l10 4h16q12 0 14 -16h20q-2 38 -34 38h-32q-34 0 -34 -35v-81q0 -35 34 -35h32q32 0 34 37zM1959 -79v1279q0 59 -42.5 101.5t-101.5 42.5h-1280q-59 0 -101.5 -42.5t-42.5 -101.5v-1279
q0 -59 42.5 -101.5t101.5 -42.5h1280q59 0 101.5 42.5t42.5 101.5zM1604 -358h-20q-2 -16 -14 -16h-16l-10 4l-4 10v80l4 10l10 4h16q12 0 14 -16h20q-2 38 -34 38h-32q-34 0 -34 -35v-81q0 -35 34 -35h32q32 0 34 37zM349 818v84q0 36 -36 36h-39q-36 0 -36 -34v-88
q0 -34 36 -34h39q36 0 36 36zM1474 -395v151h-34v-151h34zM1400 -395v21h-47v130h-37v-151h84zM353 634v22h-17v84h-38l-68 -86v-20h67v-50h39v50h17zM1286 -395v21h-47v130h-37v-151h84zM1164 -395v151h-34v-151h34zM349 421v85q0 36 -36 36h-39q-36 0 -36 -35v-87
q0 -35 36 -35h39q36 0 36 36zM1104 -395v60l-6 13l-11 5q17 8 17 29q0 44 -33 44h-68v-151h37v65h13l10 -4l4 -11v-50h37zM974 -295v51h-37v-51l-4 -10l-10 -4l-9 4l-4 10v51h-37v-51q0 -30 32 -35v-65h37v65q32 5 32 35zM349 224v84q0 36 -36 36h-39q-36 0 -36 -34v-88
q0 -34 36 -34h39q36 0 36 36zM846 -358h-20q-2 -16 -14 -16h-16l-10 4l-4 10v80l4 10l10 4h16q12 0 14 -16h20q-2 38 -34 38h-32q-34 0 -34 -35v-81q0 -35 34 -35h32q32 0 34 37zM2071 818l-4 -10l-11 -4l-10 4l-5 10v83l5 11l10 4l11 -4l4 -11v-83zM2063 656h-45l45 54v-54
zM1067 1465l-4 -10l-10 -4h-13v43h13l10 -4l4 -10v-15zM1662 0h-413v45q85 0 111 36q19 27 19 112v345h-146l-326 -538h-219v45q45 0 80 36q51 53 172 258q105 179 191 232q-268 96 -268 332q0 146 121 197q78 33 249 33h429v-46q-90 0 -116 -33q-20 -26 -20 -114v-747
q0 -88 20 -114q26 -34 116 -34v-45zM309 818l-5 -10l-10 -4l-11 4l-4 10v83l4 11l11 4l10 -4l5 -11v-83zM297 656h-42l42 53v-53zM1067 -295l-4 -10l-10 -4h-13v43h13l10 -4l4 -10v-15zM309 422l-5 -10l-10 -5l-11 5l-4 10v83l4 11l11 4l10 -4l5 -11v-83zM309 225l-5 -11
l-10 -4l-11 4l-4 11v83l4 10l11 4l10 -4l5 -10v-83zM1379 583v504h-63q-299 0 -299 -215q0 -110 51 -184q22 -32 66 -66q50 -39 80 -39h165z" />
  </g>

</svg>
