<?xml version="1.0" standalone="no"?>
<!DOCTYPE svg PUBLIC "-//W3C//DTD SVG 1.1//EN" "http://www.w3.org/Graphics/SVG/1.1/DTD/svg11.dtd" >
<svg viewBox="0 -419 2154 2048">
  <g transform="matrix(1 0 0 -1 0 1638)">
   <path fill="currentColor"
d="M2154 -239q0 -74 -53 -127t-127 -53h-1598q-74 0 -127 53t-53 127v1599q0 74 53 127t127 53h1598q74 0 127 -53t53 -127v-1599zM1579 1423v93h-38v-116l-4 -10l-10 -4h-13v130h-38v-116l-4 -10l-10 -4h-13v130h-38v-151l38 -1q15 0 27 5v-4h45q23 0 40.5 17.5t17.5 40.5z
M2112 818v84q0 36 -36 36h-39q-36 0 -36 -34v-88q0 -34 36 -34h39q36 0 36 36zM1381 1365v21h-47v44h31v21h-31v43h47v22h-84v-151h84zM2106 619v34q0 36 -64 35v28h64v22h-100v-71h49l10 -5l5 -10v-32l-5 -11l-10 -4h-15q-13 0 -14 17h-20q4 -38 34 -38h32q34 0 34 35z
M1264 1365v60l-5 13l-12 5q17 8 17 29q0 44 -33 44h-68v-151h37v65h13l10 -4l4 -11v-50h37zM1134 1400q0 34 -21 41q21 8 21 32q0 43 -34 43h-67v-151h67q34 0 34 35zM2098 521v21h-84v-154h36v66h32v22h-32v45h48zM1000 1365v21h-47v44h31v21h-31v43h47v22h-84v-151h84z
M2106 317v28h-102v-157h41v66h47v28h-47v35h61zM872 1365v151h-37v-65h-27v65h-37v-151h37v65h27v-65h37zM1959 -79v1279q0 59 -42.5 101.5t-101.5 42.5h-1280q-59 0 -101.5 -42.5t-42.5 -101.5v-1279q0 -59 42.5 -101.5t101.5 -42.5h1280q59 0 101.5 42.5t42.5 101.5z
M1579 -338v93h-38v-115l-4 -10l-10 -4h-13v129h-38v-115l-4 -10l-10 -4h-13v129h-38v-151l38 -1q13 0 27 5v-4h45q23 0 40.5 17.5t17.5 40.5zM349 818v84q0 36 -36 36h-39q-36 0 -36 -34v-88q0 -34 36 -34h39q36 0 36 36zM1381 -396v22h-47v43h31v21h-31v44h47v21h-84v-151
h84zM344 619v34q0 36 -64 35v28h64v22h-100v-71h50l9 -5l5 -10v-32l-5 -11l-9 -4h-16q-13 0 -14 17h-20q4 -38 34 -38h32q34 0 34 35zM1264 -396v61l-5 13l-12 4q17 9 17 29q0 44 -33 44h-68v-151h37v65h13l10 -4l4 -10v-51h37zM1134 -361q0 35 -21 41q21 8 21 32
q0 43 -34 43h-67v-151h67q34 0 34 35zM349 445v61q0 36 -38 36h-35q-38 0 -38 -36v-34q0 -36 38 -36h18q9 0 14 7v-4q0 -32 -52 -31v-22h31q24 0 43 17.5t19 41.5zM1000 -396v22h-47v43h31v21h-31v44h47v21h-84v-151h84zM349 224v84q0 36 -36 36h-39q-36 0 -36 -34v-88
q0 -34 36 -34h39q36 0 36 36zM872 -396v151h-37v-65h-27v65h-37v-151h37v65h27v-65h37zM2071 818l-4 -10l-11 -4l-10 4l-5 10v83l5 11l10 4l11 -4l4 -11v-83zM1227 1465l-4 -10l-10 -4h-13v43h13l10 -4l4 -10v-15zM1097 1465l-4 -10l-10 -4h-13v43h13l10 -4l4 -10v-15z
M1097 1400l-4 -10l-10 -4h-13v44h14q13 0 13 -14v-16zM1596 135q0 -42 -26 -100q-30 -67 -66 -67q-2 0 -17 3q-5 53 -45 107q-14 15 -77 89q-1 1 -180 217q-117 141 -187 204q-91 -58 -91 -127q0 -37 93.5 -168t93.5 -201q0 -36 -16 -69q-20 -41 -52 -41h-249v40
q58 14 58 68q0 37 -37.5 134.5t-37.5 145.5q0 161 184 283q-99 107 -126 145q-64 91 -64 175q0 87 73 174h33q3 -7 5 -21q8 -53 52 -112q8 -10 83 -96l280 -319q21 91 91 207l-5 6q-66 13 -105.5 67t-39.5 123q0 89 50 151h22q7 -17 34 -51q34 -27 117 -41q80 -15 101 -33
q43 -37 43 -148q0 -40 -11 -63q-16 -8 -56.5 -10t-57.5 -12q-25 -15 -59 -102q-33 -82 -33 -118q0 -70 112.5 -218t112.5 -222zM309 818l-5 -10l-10 -4l-11 4l-4 10v83l4 11l11 4l10 -4l5 -11v-83zM1227 -296l-4 -10l-10 -4h-13v44h13l10 -4l4 -10v-16zM1097 -296l-4 -10
l-10 -4h-13v44h13l10 -4l4 -10v-16zM309 473l-5 -10l-10 -5l-11 5l-4 10v33l4 10l11 4l10 -4l5 -10v-33zM1097 -360l-4 -10l-10 -4h-13v43h14q13 0 13 -14v-15zM309 225l-5 -11l-10 -4l-11 4l-4 11v83l4 10l11 4l10 -4l5 -10v-83z" />
  </g>

</svg>
