<?xml version="1.0" standalone="no"?>
<!DOCTYPE svg PUBLIC "-//W3C//DTD SVG 1.1//EN" "http://www.w3.org/Graphics/SVG/1.1/DTD/svg11.dtd" >
<svg viewBox="0 -419 2154 2048">
  <g transform="matrix(1 0 0 -1 0 1638)">
   <path fill="currentColor"
d="M2154 -239q0 -74 -53 -127t-127 -53h-1598q-74 0 -127 53t-53 127v1599q0 74 53 127t127 53h1598q74 0 127 -53t53 -127v-1599zM2112 818v84q0 36 -36 36h-39q-36 0 -36 -34v-88q0 -34 36 -34h39q36 0 36 36zM1525 1402h-21q-1 -16 -13 -16h-16l-10 4l-4 10v80l4 10l10 4
h16q12 0 13 -16h21q-2 38 -34 38h-32q-34 0 -34 -35v-81q0 -35 34 -35h32q32 0 34 37zM1395 1365v151h-34v-151h34zM1332 1400q0 34 -21 41q21 8 21 32q0 43 -34 43h-66v-151h66q34 0 34 35zM2111 619v34q0 36 -37 36h-18q-6 -2 -14 -5l-1 -1v3q0 32 53 32v21h-31
q-24 0 -43 -17.5t-19 -41.5v-61q0 -36 37 -36h36q37 0 37 36zM1194 1365v116q0 35 -32 35h-35q-33 0 -33 -34v-117h37v65h27v-65h36zM2098 521v21h-84v-154h36v66h32v22h-32v45h48zM1057 1365v60l-5 13l-11 5q16 8 16 29q0 44 -32 44h-68v-151h37v65h13l10 -4l4 -11v-50h36z
M2106 317v28h-102v-157h41v66h47v28h-47v35h61zM925 1365v116q0 35 -32 35h-35q-33 0 -33 -34v-117h37v65h27v-65h36zM1959 -79v1279q0 59 -42.5 101.5t-101.5 42.5h-1280q-59 0 -101.5 -42.5t-42.5 -101.5v-1279q0 -59 42.5 -101.5t101.5 -42.5h1280q59 0 101.5 42.5
t42.5 101.5zM1525 -358h-21q-1 -16 -13 -16h-16l-10 4l-4 10v80l4 10l10 4h16q12 0 13 -16h21q-2 38 -34 38h-32q-34 0 -34 -35v-81q0 -35 34 -35h32q32 0 34 37zM349 818v84q0 36 -36 36h-39q-36 0 -36 -34v-88q0 -34 36 -34h39q36 0 36 36zM1395 -395v151h-34v-151h34z
M1332 -360q0 34 -21 41q21 8 21 32q0 43 -34 43h-66v-151h66q34 0 34 35zM349 619v34q0 36 -37 36h-18q-6 -2 -14 -5l-1 -1v3q0 32 53 32v21h-31q-24 0 -43 -17.5t-19 -41.5v-61q0 -36 37 -36h36q37 0 37 36zM1194 -395v116q0 35 -32 35h-35q-33 0 -33 -34v-117h37v65h27
v-65h36zM349 421v85q0 36 -36 36h-39q-36 0 -36 -35v-87q0 -35 36 -35h39q36 0 36 36zM1057 -395v60l-5 13l-11 5q16 8 16 29q0 44 -32 44h-68v-151h37v65h13l10 -4l4 -11v-50h36zM349 224v84q0 36 -36 36h-39q-36 0 -36 -34v-88q0 -34 36 -34h39q36 0 36 36zM925 -395v116
q0 35 -32 35h-35q-33 0 -33 -34v-117h37v65h27v-65h36zM2071 818l-4 -10l-11 -4l-10 4l-5 10v83l5 11l10 4l11 -4l4 -11v-83zM1295 1465l-4 -10l-10 -4h-13v43h13l10 -4l4 -10v-15zM2071 620l-5 -11l-10 -4l-10 4l-5 11v32l5 11l10 4l10 -4l5 -11v-32zM1295 1400l-4 -10
l-10 -4h-13v44h14q13 0 13 -14v-16zM1158 1451h-27v29l4 10l9 4l10 -4l4 -10v-29zM1021 1465l-4 -10l-10 -4h-13v43h13l10 -4l4 -10v-15zM889 1451h-27v29l4 10l9 4l10 -4l4 -10v-29zM1829 897q0 -84 -32 -169q-35 -94 -92 -144q-97 -85 -365 -133q-206 -37 -398 -37
q-173 0 -287 76q-134 89 -134 252q0 63 38 164q46 122 95 122q12 0 12 -16q0 -25 -23 -82.5t-23 -84.5q0 -121 179 -182q132 -45 282 -45q161 0 337 34q204 39 320 108q-1 56 -32 93l-62 74l73 222q112 -116 112 -252zM1218 97l-122 -125l-128 123l125 128zM309 818l-5 -10
l-10 -4l-11 4l-4 10v83l4 11l11 4l10 -4l5 -11v-83zM1295 -295l-4 -10l-10 -4h-13v43h13l10 -4l4 -10v-15zM309 620l-5 -11l-10 -4l-10 4l-5 11v32l5 11l10 4l10 -4l5 -11v-32zM1295 -360l-4 -10l-10 -4h-13v44h14q13 0 13 -14v-16zM1158 -309h-27v29l4 10l9 4l10 -4l4 -10
v-29zM309 422l-5 -10l-10 -5l-11 5l-4 10v83l4 11l11 4l10 -4l5 -11v-83zM1021 -295l-4 -10l-10 -4h-13v43h13l10 -4l4 -10v-15zM889 -309h-27v29l4 10l9 4l10 -4l4 -10v-29zM309 225l-5 -11l-10 -4l-11 4l-4 11v83l4 10l11 4l10 -4l5 -10v-83z" />
  </g>

</svg>
