<?xml version="1.0" standalone="no"?>
<!DOCTYPE svg PUBLIC "-//W3C//DTD SVG 1.1//EN" "http://www.w3.org/Graphics/SVG/1.1/DTD/svg11.dtd" >
<svg viewBox="0 -419 2154 2048">
  <g transform="matrix(1 0 0 -1 0 1638)">
   <path fill="currentColor"
d="M2154 -239q0 -74 -53 -127t-127 -53h-1598q-74 0 -127 53t-53 127v1599q0 74 53 127t127 53h1598q74 0 127 -53t53 -127v-1599zM1768 1365v34h-33v-34h33zM1736 1463v18q0 35 -33 35h-67v-151h36v65q64 -1 64 33zM1597 1400v116h-37v-116l-4 -10l-9 -4l-10 4l-4 10v116
h-36v-118q0 -33 32 -33h35q33 0 33 35zM2112 818v84q0 36 -36 36h-39q-36 0 -36 -34v-88q0 -34 36 -34h39q36 0 36 36zM1469 1400q0 28 -24 49l-9 8q-21 19 -11 34q6 4 11 4q11 0 13 -17h20q-2 38 -32 38h-19q-33 0 -33 -35q0 -25 24 -49l9 -9q14 -14 14 -25q0 -4 -2 -8
q-6 -4 -11 -4q-2 0 -4 1l-5 2l-4 9v4h-21q0 -37 32 -37h20q32 0 32 35zM2107 702v36h-101v-22h64v-13q-32 -66 -32 -84v-36h37q0 55 21 97zM1282 1402h-21q-1 -16 -13 -16h-16l-10 4l-4 10v80l4 10l10 4h16q12 0 14 -16h20q-2 38 -34 38h-32q-34 0 -34 -35v-81q0 -35 34 -35
h32q32 0 34 37zM1152 1365v151h-34v-151h34zM2107 506v36h-101v-21h64v-14q-32 -66 -32 -84v-35h37q0 54 21 96zM1089 1400q0 34 -21 41q21 8 21 32q0 43 -34 43h-66v-151h66q34 0 34 35zM951 1365v116q0 35 -32 35h-35q-33 0 -33 -34v-117h37v65h27v-65h36zM2106 317v28
h-102v-157h41v66h47v28h-47v35h61zM814 1365v60l-5 13l-11 5q16 8 16 29q0 44 -32 44h-68v-151h37v65h13l10 -4l4 -11v-50h36zM682 1365v116q0 35 -32 35h-35q-33 0 -33 -34v-117h37v65h27v-65h36zM1959 -79v1279q0 59 -42.5 101.5t-101.5 42.5h-1280q-59 0 -101.5 -42.5
t-42.5 -101.5v-1279q0 -59 42.5 -101.5t101.5 -42.5h1280q59 0 101.5 42.5t42.5 101.5zM1768 -395v34h-33v-34h33zM1736 -297v18q0 35 -33 35h-67v-151h36v65q64 -1 64 33zM1597 -360v116h-37v-116l-4 -10l-9 -4l-10 4l-4 10v116h-36v-118q0 -33 32 -33h35q33 0 33 35z
M349 818v84q0 36 -36 36h-39q-36 0 -36 -34v-88q0 -34 36 -34h39q36 0 36 36zM1469 -360q0 28 -24 49l-9 8q-21 19 -11 34q6 4 11 4q11 0 13 -17h20q-2 38 -32 38h-19q-33 0 -33 -35q0 -25 24 -49l9 -9q14 -14 14 -25q0 -4 -2 -8q-6 -4 -11 -4q-2 0 -4 1l-5 2l-4 9v4h-21
q0 -37 32 -37h20q32 0 32 35zM344 702v36h-101v-22h64v-13q-32 -66 -32 -84v-36h37q0 55 21 97zM1282 -358h-21q-1 -16 -13 -16h-16l-10 4l-4 10v80l4 10l10 4h16q12 0 14 -16h20q-2 38 -34 38h-32q-34 0 -34 -35v-81q0 -35 34 -35h32q32 0 34 37zM1152 -395v151h-34v-151
h34zM344 424v33q0 36 -64 36v28h64v21h-100v-71h50l9 -4l5 -11v-32l-5 -10l-9 -4h-16q-13 0 -14 16h-20q4 -38 34 -38h32q34 0 34 36zM1089 -360q0 34 -21 41q21 8 21 32q0 43 -34 43h-66v-151h66q34 0 34 35zM951 -395v116q0 35 -32 35h-35q-33 0 -33 -34v-117h37v65h27
v-65h36zM349 224v84q0 36 -36 36h-39q-36 0 -36 -34v-88q0 -34 36 -34h39q36 0 36 36zM814 -395v60l-5 13l-11 5q16 8 16 29q0 44 -32 44h-68v-151h37v65h13l10 -4l4 -11v-50h36zM682 -395v116q0 35 -32 35h-35q-33 0 -33 -34v-117h37v65h27v-65h36zM1699 1465l-4 -10
l-10 -4h-13v43h13l10 -4l4 -10v-15zM2071 818l-4 -10l-11 -4l-10 4l-5 10v83l5 11l10 4l11 -4l4 -11v-83zM1052 1465l-4 -10l-10 -4h-13v43h13l10 -4l4 -10v-15zM1052 1400l-4 -10l-10 -4h-13v44h14q13 0 13 -14v-16zM915 1451h-27v29l4 10l9 4l10 -4l4 -10v-29zM778 1465
l-4 -10l-10 -4h-13v43h13l10 -4l4 -10v-15zM646 1451h-27v29l4 10l9 4l10 -4l4 -10v-29zM1829 897q0 -84 -32 -169q-35 -94 -92 -144q-97 -85 -365 -133q-206 -37 -398 -37q-173 0 -287 76q-134 89 -134 252q0 63 38 164q46 122 95 122q12 0 12 -16q0 -25 -23 -82.5
t-23 -84.5q0 -121 179 -182q132 -45 282 -45q161 0 337 34q204 39 320 108q-1 56 -32 93l-62 74l73 222q112 -116 112 -252zM1581 161l-123 -125l-128 122l125 128zM1699 -295l-4 -10l-10 -4h-13v43h13l10 -4l4 -10v-15zM1310 131l-122 -125l-128 122l125 128zM309 818
l-5 -10l-10 -4l-11 4l-4 10v83l4 11l11 4l10 -4l5 -11v-83zM1040 97l-123 -125l-128 123l125 128zM1052 -295l-4 -10l-10 -4h-13v43h13l10 -4l4 -10v-15zM1052 -360l-4 -10l-10 -4h-13v44h14q13 0 13 -14v-16zM915 -309h-27v29l4 10l9 4l10 -4l4 -10v-29zM309 225l-5 -11
l-10 -4l-11 4l-4 11v83l4 10l11 4l10 -4l5 -10v-83zM778 -295l-4 -10l-10 -4h-13v43h13l10 -4l4 -10v-15zM646 -309h-27v29l4 10l9 4l10 -4l4 -10v-29z" />
  </g>

</svg>
