<?xml version="1.0" standalone="no"?>
<!DOCTYPE svg PUBLIC "-//W3C//DTD SVG 1.1//EN" "http://www.w3.org/Graphics/SVG/1.1/DTD/svg11.dtd" >
<svg viewBox="0 -419 2155 2048">
  <g transform="matrix(1 0 0 -1 0 1638)">
   <path fill="currentColor"
d="M2155 -239q0 -74 -53 -127t-127 -53h-1599q-75 0 -127.5 52.5t-52.5 127.5v1599q0 75 52.5 127.5t127.5 52.5h1599q74 0 127 -53t53 -127v-1599zM1550 1365v116q0 35 -33 35h-35q-32 0 -32 -34l-1 -117h37v65h27v-65h37zM2112 818v84q0 36 -36 36h-39q-36 0 -36 -34v-88
q0 -34 36 -34h39q36 0 36 36zM1422 1365v151h-21v-78l-86 78h-11v-151h21v78l86 -78h11zM2107 702v36h-101v-22h64v-13q-32 -65 -32 -84v-36h37q0 53 32 119zM1281 1365v116q0 35 -33 35h-35q-32 0 -32 -34l-1 -117h37v65h27v-65h37zM1156 1365v116q0 35 -33 35h-35
q-32 0 -32 -34l-1 -117h37v65h27v-65h37zM2112 421q0 36 -24 43q24 8 24 33q0 45 -38 45h-73v-157h73q38 0 38 36zM1028 1365v151h-37v-65h-27v65h-37v-151h37v65h27v-65h37zM2106 317v28h-102v-157h41v66h47v28h-47v35h61zM900 1494v22h-100v-22h32v-129h37v129h31z
M1959 -79v1279q0 59 -42.5 101.5t-101.5 42.5h-1280q-59 0 -101.5 -42.5t-42.5 -101.5v-1279q0 -59 42.5 -101.5t101.5 -42.5h1280q59 0 101.5 42.5t42.5 101.5zM1552 -395v116q0 35 -33 35h-35q-33 0 -33 -34v-117h37v65h27v-65h37zM349 818v84q0 36 -36 36h-39
q-36 0 -36 -34v-88q0 -34 36 -34h39q36 0 36 36zM1422 -395v151h-21v-78l-86 78h-11v-151h21v78l86 -78h11zM344 702v36h-101v-22h64v-13q-32 -65 -32 -84v-36h37q0 53 32 119zM1281 -395v116q0 35 -33 35h-35q-32 0 -32 -34l-1 -117h37v65h27v-65h37zM1156 -395v116
q0 35 -33 35h-35q-32 0 -32 -34l-1 -117h37v65h27v-65h37zM350 421q0 36 -24 43q24 8 24 33q0 45 -38 45h-35q-38 0 -38 -36q0 -35 24 -42q-24 -9 -24 -34q0 -45 38 -45h35q38 0 38 36zM1028 -395v151h-37v-65h-27v65h-37v-151h37v65h27v-65h37zM349 224v84q0 36 -36 36h-39
q-36 0 -36 -34v-88q0 -34 36 -34h39q36 0 36 36zM900 -266v22h-100v-22h32v-129h37v129h31zM1513 1451h-27v29l4 10l10 4l9 -4l4 -10v-29zM2071 818l-4 -10l-11 -4l-10 4l-5 10v83l5 11l10 4l11 -4l4 -11v-83zM1244 1451h-27v29l4 10l10 4l9 -4l4 -10v-29zM1119 1451h-27v29
l4 10l10 4l9 -4l4 -10v-29zM2071 489l-4 -10l-11 -4h-15v45h15l11 -4l4 -11v-16zM2071 422l-4 -10l-11 -5h-15v46h15q15 0 15 -15v-16zM1671 772q0 -128 -101 -212q-96 -80 -226 -80q-102 0 -257 105l-71 -63q148 -99 148 -187q0 -118 -121 -205q-111 -80 -234 -80
q-56 0 -94 46q-35 43 -35 101q0 62 85 98q128 54 134 59q-50 42 -100 85q-43 48 -43 121q0 129 252 318q244 183 378 183q124 0 204.5 -82.5t80.5 -206.5zM1515 -309h-27v29l4 10l9 4l10 -4l4 -10v-29zM309 818l-5 -10l-10 -4l-11 4l-4 10v83l4 11l11 4l10 -4l5 -11v-83z
M1244 -309h-27v29l4 10l10 4l9 -4l4 -10v-29zM1119 -309h-27v29l4 10l10 4l9 -4l4 -10v-29zM310 489l-5 -10l-11 -4l-10 4l-5 10v16l5 11l10 4l11 -4l5 -11v-16zM310 422l-5 -10l-11 -5l-10 5l-5 10v16q0 15 15 15q16 0 16 -15v-16zM309 225l-5 -11l-10 -4l-11 4l-4 11v83
l4 10l11 4l10 -4l5 -10v-83zM1451 774q0 41 -50 57q-49 -18 -123 -86q38 -28 77 -28q96 0 96 57z" />
  </g>

</svg>
