<?xml version="1.0" standalone="no"?>
<!DOCTYPE svg PUBLIC "-//W3C//DTD SVG 1.1//EN" "http://www.w3.org/Graphics/SVG/1.1/DTD/svg11.dtd" >
<svg viewBox="0 -419 2155 2048">
  <g transform="matrix(1 0 0 -1 0 1638)">
   <path fill="currentColor"
d="M2155 -239q0 -74 -53 -127t-127 -53h-1599q-75 0 -127.5 52.5t-52.5 127.5v1599q0 75 52.5 127.5t127.5 52.5h1599q74 0 127 -53t53 -127v-1599zM1576 1365v151h-33v-151h33zM2112 818v84q0 36 -36 36h-39q-36 0 -36 -34v-88q0 -34 36 -34h39q36 0 36 36zM1510 1365v21
h-47v130h-36v-151h83zM1391 1365v116q0 35 -33 35h-35q-33 0 -33 -34v-117h37v65h27v-65h37zM2112 643v61q0 36 -38 36h-35q-38 0 -38 -36v-34q0 -36 38 -36h17q10 0 15 6v-4q0 -31 -52 -31v-22h31q24 0 43 18t19 42zM1260 1400v51h-53v-21h16v-30q0 -13 -13 -14l-10 4
l-4 10v80l4 10l10 4h16q12 0 14 -16h20q-2 38 -34 38h-32q-34 0 -34 -35v-81q0 -35 34 -35h32q34 0 34 35zM2098 521v21h-84v-154h36v66h32v22h-32v45h48zM1129 1365v151h-21v-78l-86 78h-10v-151h20v78l86 -78h11zM984 1365v21h-47v44h32v21h-32v43h47v22h-83v-151h83z
M2106 317v28h-102v-157h41v66h47v28h-47v35h61zM874 1400q0 34 -21 41q21 8 21 32q0 43 -34 43h-66v-151h66q34 0 34 35zM1959 -79v1279q0 59 -42.5 101.5t-101.5 42.5h-1280q-59 0 -101.5 -42.5t-42.5 -101.5v-1279q0 -59 42.5 -101.5t101.5 -42.5h1280q59 0 101.5 42.5
t42.5 101.5zM1576 -395v151h-33v-151h33zM349 818v84q0 36 -36 36h-39q-36 0 -36 -34v-88q0 -34 36 -34h39q36 0 36 36zM1510 -395v21h-47v130h-36v-151h83zM1391 -395v116q0 35 -33 35h-35q-33 0 -33 -34v-117h37v65h27v-65h37zM349 643v61q0 36 -38 36h-35q-38 0 -38 -36
v-34q0 -36 38 -36h18q9 0 14 6v-4q0 -31 -52 -31v-22h31q24 0 43 18t19 42zM1260 -360v51h-53v-21h16v-30q0 -13 -13 -14l-10 4l-4 10v80l4 10l10 4h16q12 0 14 -16h20q-2 38 -34 38h-32q-34 0 -34 -35v-81q0 -35 34 -35h32q34 0 34 35zM350 421q0 36 -24 43q24 8 24 33
q0 45 -38 45h-35q-38 0 -38 -36q0 -35 24 -42q-24 -9 -24 -34q0 -45 38 -45h35q38 0 38 36zM1129 -395v151h-21v-78l-86 78h-10v-151h20v78l86 -78h11zM984 -395v21h-47v44h32v21h-32v43h47v22h-83v-151h83zM349 224v84q0 36 -36 36h-39q-36 0 -36 -34v-88q0 -34 36 -34h39
q36 0 36 36zM874 -360q0 34 -21 41q21 8 21 32q0 43 -34 43h-66v-151h66q34 0 34 35zM2071 818l-4 -10l-11 -4l-10 4l-5 10v83l5 11l10 4l11 -4l4 -11v-83zM1354 1451h-27v29l4 10l10 4l9 -4l4 -10v-29zM2071 670l-4 -10l-11 -4l-10 4l-5 10v33l5 10l10 5l11 -5l4 -10v-33z
M837 1465l-4 -10l-10 -4h-13v43h13l10 -4l4 -10v-15zM837 1400l-4 -10l-10 -4h-13v44h14q13 0 13 -14v-16zM1836 991h-481v-47q372 -170 372 -399q0 -83 -44 -142q-48 -66 -128 -66q-123 0 -123 124q0 106 92 106q58 0 91 -44q24 6 24 44q0 83 -101 154q-94 66 -181 66v-784
l-53 -2q-103 159 -254 264q-160 111 -339 135q-20 61 -80 259l574 272v60h-608l-83 129h1251zM309 818l-5 -10l-10 -4l-11 4l-4 10v83l4 11l11 4l10 -4l5 -11v-83zM1354 -309h-27v29l4 10l10 4l9 -4l4 -10v-29zM309 670l-5 -10l-10 -4l-11 4l-4 10v33l4 10l11 5l10 -5l5 -10
v-33zM310 489l-5 -10l-11 -4l-10 4l-5 10v16l5 11l10 4l11 -4l5 -11v-16zM310 422l-5 -10l-11 -5l-10 5l-5 10v16q0 15 15 15q16 0 16 -15v-16zM309 225l-5 -11l-10 -4l-11 4l-4 11v83l4 10l11 4l10 -4l5 -10v-83zM837 -295l-4 -10l-10 -4h-13v43h13l10 -4l4 -10v-15z
M837 -360l-4 -10l-10 -4h-13v44h14q13 0 13 -14v-16zM1204 314v439l-408 -203l11 -31q242 -86 397 -205z" />
  </g>

</svg>
