<?xml version="1.0" standalone="no"?>
<!DOCTYPE svg PUBLIC "-//W3C//DTD SVG 1.1//EN" "http://www.w3.org/Graphics/SVG/1.1/DTD/svg11.dtd" >
<svg viewBox="0 -419 2155 2048">
  <g transform="matrix(1 0 0 -1 0 1638)">
   <path fill="currentColor"
d="M2155 -239q0 -74 -53 -127t-127 -53h-1599q-75 0 -127.5 52.5t-52.5 127.5v1599q0 75 52.5 127.5t127.5 52.5h1599q74 0 127 -53t53 -127v-1599zM1710 1365v151h-34v-151h34zM1643 1365v151h-37v-65h-27v65h-37v-151h37v65h27v-65h37zM2112 818v84q0 36 -36 36h-39
q-36 0 -36 -34v-88q0 -34 36 -34h39q36 0 36 36zM1512 1365l-66 75l66 76h-34l-49 -56v56h-37v-151h37v53l45 -53h38zM1356 1400v116h-37v-116l-4 -10l-9 -4l-10 4l-4 10v116h-37v-118q0 -33 33 -33h35q33 0 33 35zM2111 584v120q0 36 -36 36h-38q-36 0 -36 -34v-122h40v67
h30v-67h40zM1212 1365v151h-19l-69 -69l-68 69h-11v-151h21v86l54 -55l55 55v-86h37zM2107 506v36h-101v-21h64v-14q-32 -66 -32 -84v-35h37q0 52 32 118zM1003 1365v60l-6 13l-11 5q17 8 17 29q0 44 -33 44h-68v-151h37v65h13l10 -4l4 -11v-50h37zM2106 317v28h-102v-157
h41v66h47v28h-47v35h61zM866 1400v116h-37v-116l-4 -10l-10 -4l-9 4l-4 10v116h-37v-118q0 -33 33 -33h35q33 0 33 35zM741 1400v51h-53v-21h16v-30q0 -13 -13 -14l-10 4l-4 10v80l4 10l10 4h15q12 0 14 -16h21q-2 38 -35 38h-32q-34 0 -34 -35v-81q0 -35 34 -35h32
q35 0 35 35zM1959 -79v1279q0 59 -42.5 101.5t-101.5 42.5h-1280q-59 0 -101.5 -42.5t-42.5 -101.5v-1279q0 -59 42.5 -101.5t101.5 -42.5h1280q59 0 101.5 42.5t42.5 101.5zM1710 -395v151h-34v-151h34zM1643 -395v151h-37v-65h-27v65h-37v-151h37v65h27v-65h37zM349 818
v84q0 36 -36 36h-39q-36 0 -36 -34v-88q0 -34 36 -34h39q36 0 36 36zM1512 -395l-66 75l66 76h-34l-49 -56v56h-37v-151h37v53l45 -53h38zM1356 -360v116h-37v-116l-4 -10l-9 -4l-10 4l-4 10v116h-37v-118q0 -33 33 -33h35q33 0 33 35zM349 584v120q0 36 -36 36h-38
q-36 0 -36 -34v-122h40v67h30v-67h40zM1212 -395v151h-19l-69 -69l-68 69h-11v-151h21v86l54 -55l55 55v-86h37zM349 421v85q0 36 -36 36h-39q-36 0 -36 -35v-87q0 -35 36 -35h39q36 0 36 36zM1003 -395v60l-6 13l-11 5q17 8 17 29q0 44 -33 44h-68v-151h37v65h13l10 -4
l4 -11v-50h37zM349 224v84q0 36 -36 36h-39q-36 0 -36 -34v-88q0 -34 36 -34h39q36 0 36 36zM866 -360v116h-37v-116l-4 -10l-10 -4l-9 4l-4 10v116h-37v-118q0 -33 33 -33h35q33 0 33 35zM741 -360v51h-53v-21h16v-30q0 -13 -13 -14l-10 4l-4 10v80l4 10l10 4h15
q12 0 14 -16h21q-2 38 -35 38h-32q-34 0 -34 -35v-81q0 -35 34 -35h32q35 0 35 35zM2071 818l-4 -10l-11 -4l-10 4l-5 10v83l5 11l10 4l11 -4l4 -11v-83zM2071 673h-30v31l5 10l10 4l10 -4l5 -10v-31zM966 1465l-4 -10l-10 -4h-13v43h13l10 -4l4 -10v-15zM1803 1041h-199
q3 -7 3 -29q0 -287 -99 -492q-21 -30 -49 -89q110 -259 110 -466h-113q-11 110 -71 339l-8 6q-148 -191 -385 -191q-140 0 -233 98t-93 239q0 144 96 237.5t241 93.5q225 0 379 -226q100 161 100 391q0 31 -5 89h-930v115h1256v-115zM309 818l-5 -10l-10 -4l-11 4l-4 10v83
l4 11l11 4l10 -4l5 -11v-83zM309 673h-30v31l5 10l10 4l10 -4l5 -10v-31zM309 422l-5 -10l-10 -5l-11 5l-4 10v83l4 11l11 4l10 -4l5 -11v-83zM966 -295l-4 -10l-10 -4h-13v43h13l10 -4l4 -10v-15zM309 225l-5 -11l-10 -4l-11 4l-4 11v83l4 10l11 4l10 -4l5 -10v-83z
M1312 440q0 30 -79 113q-106 112 -236 112q-93 0 -152.5 -61.5t-59.5 -154.5t67 -151q64 -56 158 -56q116 0 235 116q67 66 67 82z" />
  </g>

</svg>
