<?xml version="1.0" standalone="no"?>
<!DOCTYPE svg PUBLIC "-//W3C//DTD SVG 1.1//EN" "http://www.w3.org/Graphics/SVG/1.1/DTD/svg11.dtd" >
<svg viewBox="0 -419 2155 2048">
  <g transform="matrix(1 0 0 -1 0 1638)">
   <path fill="currentColor"
d="M2155 -239q0 -74 -53 -127t-127 -53h-1599q-75 0 -127.5 52.5t-52.5 127.5v1599q0 75 52.5 127.5t127.5 52.5h1599q74 0 127 -53t53 -127v-1599zM2112 818v84q0 36 -36 36h-39q-36 0 -36 -34v-88q0 -34 36 -34h39q36 0 36 36zM1484 1365v21h-47v130h-36v-151h83z
M1360 1365v151h-33v-151h33zM2112 620q0 36 -24 43q24 8 24 33q0 44 -38 44h-73v-156h73q38 0 38 36zM1293 1365v151h-20l-68 -69l-68 69h-11v-151h21v86l54 -55l55 55v-86h37zM2098 521v21h-84v-154h36v66h32v22h-32v45h48zM1090 1365v116q0 35 -33 35h-35q-32 0 -32 -34
v-117h36v65h27v-65h37zM966 1494v22h-100v-22h32v-129h36v129h32zM2106 317v28h-102v-157h41v66h47v28h-47v35h61zM1959 -79v1279q0 59 -42.5 101.5t-101.5 42.5h-1280q-59 0 -101.5 -42.5t-42.5 -101.5v-1279q0 -59 42.5 -101.5t101.5 -42.5h1280q59 0 101.5 42.5
t42.5 101.5zM349 818v84q0 36 -36 36h-39q-36 0 -36 -34v-88q0 -34 36 -34h39q36 0 36 36zM1484 -395v21h-47v130h-36v-151h83zM1360 -395v151h-33v-151h33zM349 620q0 36 -23 43q23 8 23 33q0 44 -38 44h-73v-156h73q38 0 38 36zM1293 -395v151h-20l-68 -69l-68 69h-11
v-151h21v86l54 -55l55 55v-86h37zM350 421q0 36 -24 43q24 8 24 33q0 45 -38 45h-35q-38 0 -38 -36q0 -35 24 -42q-24 -9 -24 -34q0 -45 38 -45h35q38 0 38 36zM1090 -395v116q0 35 -33 35h-35q-32 0 -32 -34v-117h36v65h27v-65h37zM966 -266v22h-100v-22h32v-129h36v129h32
zM349 224v84q0 36 -36 36h-39q-36 0 -36 -34v-88q0 -34 36 -34h39q36 0 36 36zM2071 818l-4 -10l-11 -4l-10 4l-5 10v83l5 11l10 4l11 -4l4 -11v-83zM2071 688l-4 -11l-11 -4h-15v45h15l11 -4l4 -10v-16zM2071 620l-4 -10l-11 -4h-15v45h15q15 0 15 -14v-17zM1053 1451h-27
v29l4 10l10 4l9 -4l4 -10v-29zM1808 335q0 -113 -68 -181.5t-181 -68.5q-57 0 -129 43q5 22 55 113q37 -37 99 -37q111 0 111 113q0 153 -188 153q-31 0 -162 -3q0 -1 -6 -76q-13 -164 -104 -234q-83 -63 -252 -63q-132 0 -277 85q-164 96 -164 220q0 105 90 145
q60 27 182 29v463h759v-109h-228v-348l112 1q163 1 242 -39q109 -56 109 -206zM309 818l-5 -10l-10 -4l-11 4l-4 10v83l4 11l11 4l10 -4l5 -11v-83zM309 688l-5 -11l-11 -4h-14v45h14l11 -4l5 -10v-16zM309 620l-5 -10l-11 -4h-14v45h15q15 0 15 -14v-17zM310 489l-5 -10
l-11 -4l-10 4l-5 10v16l5 11l10 4l11 -4l5 -11v-16zM1053 -309h-27v29l4 10l10 4l9 -4l4 -10v-29zM310 422l-5 -10l-11 -5l-10 5l-5 10v16q0 15 15 15q16 0 16 -15v-16zM309 225l-5 -11l-10 -4l-11 4l-4 11v83l4 10l11 4l10 -4l5 -10v-83zM1227 574v353h-293v-353h293z
M1227 415v51l-478 -3q-94 -1 -94 -74q0 -51 74 -102q125 -86 254 -86q244 0 244 214z" />
  </g>

</svg>
