<?xml version="1.0" standalone="no"?>
<!DOCTYPE svg PUBLIC "-//W3C//DTD SVG 1.1//EN" "http://www.w3.org/Graphics/SVG/1.1/DTD/svg11.dtd" >
<svg viewBox="0 -419 2155 2048">
  <g transform="matrix(1 0 0 -1 0 1638)">
   <path fill="currentColor"
d="M2155 -239q0 -74 -53 -127t-127 -53h-1599q-74 0 -127 53t-53 127v1599q0 74 53 127t127 53h1599q74 0 127 -53t53 -127v-1599zM1795 1365v151h-20l-68 -69l-69 69h-11v-151h21v86l55 -55l54 55v-86h38zM1600 1365v116q0 35 -33 35h-35q-33 0 -33 -34v-117h37v65h27v-65
h37zM2112 818v84q0 36 -36 36h-39q-36 0 -36 -34v-88q0 -34 36 -34h39q36 0 36 36zM1470 1365v21h-47v130h-37v-151h84zM1355 1365v116q0 35 -33 35h-35q-33 0 -33 -34v-117h37v65h27v-65h37zM2112 620v84q0 36 -36 36h-75v-156h75q36 0 36 36zM1226 1465v51h-37v-51l-4 -10
l-10 -4l-9 4l-4 10v51h-37v-51q0 -30 32 -35v-65h37v65q32 5 32 35zM2107 506v36h-101v-21h64v-14q-32 -64 -32 -84v-35h37q0 53 32 118zM1097 1365v116q0 35 -33 35h-35q-33 0 -33 -34v-117h37v65h27v-65h37zM968 1365v21h-47v130h-37v-151h84zM2106 317v28h-102v-157h41
v66h47v28h-47v35h61zM854 1365v116q0 35 -33 35h-35q-33 0 -33 -34v-117h37v65h27v-65h37zM723 1365v151h-20l-68 -69l-69 69h-11v-151h22v86l54 -55l54 55v-86h38zM1959 -79v1279q0 59 -42.5 101.5t-101.5 42.5h-1280q-59 0 -101.5 -42.5t-42.5 -101.5v-1279
q0 -59 42.5 -101.5t101.5 -42.5h1280q59 0 101.5 42.5t42.5 101.5zM1795 -395v151h-20l-68 -69l-69 69h-11v-151h21v86l55 -55l54 55v-86h38zM1600 -395v116q0 35 -33 35h-35q-33 0 -33 -34v-117h37v65h27v-65h37zM349 818v84q0 36 -36 36h-39q-36 0 -36 -34v-88
q0 -34 36 -34h39q36 0 36 36zM1470 -395v21h-47v130h-37v-151h84zM1355 -395v116q0 35 -33 35h-35q-33 0 -33 -34v-117h37v65h27v-65h37zM349 620v84q0 36 -36 36h-75v-156h75q36 0 36 36zM1226 -295v51h-37v-51l-4 -10l-10 -4l-9 4l-4 10v51h-37v-51q0 -30 32 -35v-65h37
v65q32 5 32 35zM349 421v85q0 36 -36 36h-39q-36 0 -36 -35v-87q0 -35 36 -35h39q36 0 36 36zM1097 -395v116q0 35 -33 35h-35q-33 0 -33 -34v-117h37v65h27v-65h37zM968 -395v21h-47v130h-37v-151h84zM349 224v84q0 36 -36 36h-39q-36 0 -36 -34v-88q0 -34 36 -34h39
q36 0 36 36zM854 -395v116q0 35 -33 35h-35q-33 0 -33 -34v-117h37v65h27v-65h37zM723 -395v151h-20l-68 -69l-69 69h-11v-151h22v86l54 -55l54 55v-86h38zM1563 1451h-27v29l4 10l9 4l10 -4l4 -10v-29zM2071 818l-4 -10l-11 -4l-10 4l-5 10v83l5 11l10 4l11 -4l4 -11v-83z
M1318 1451h-27v29l4 10l10 4l9 -4l4 -10v-29zM2071 620l-4 -10l-11 -4h-15v112h15l11 -4l4 -10v-84zM1060 1451h-27v29l4 10l9 4l10 -4l4 -10v-29zM817 1451h-27v29l4 10l9 4l10 -4l4 -10v-29zM1825 463q0 -109 -130 -173q-94 -46 -227 -60l-61 32q44 19 156 71
q101 48 101 120q0 116 -167 116q-3 -4 -5 -30q-21 -304 -317 -304q-162 0 -225 138q-54 -76 -89 -102q-51 -38 -128 -38q-91 0 -149.5 57t-58.5 147q0 132 133 174q44 14 241 30q21 105 102 177.5t187 72.5q125 0 192 -64q49 -47 108 -176q167 -17 215 -34q122 -43 122 -154
zM1563 -309h-27v29l4 10l9 4l10 -4l4 -10v-29zM309 818l-5 -10l-10 -4l-11 4l-4 10v83l4 11l11 4l10 -4l5 -11v-83zM1318 -309h-27v29l4 10l10 4l9 -4l4 -10v-29zM309 620l-5 -10l-11 -4h-14v112h14l11 -4l5 -10v-84zM1060 -309h-27v29l4 10l9 4l10 -4l4 -10v-29zM309 422
l-5 -10l-10 -5l-11 5l-4 10v83l4 11l11 4l10 -4l5 -11v-83zM309 225l-5 -11l-10 -4l-11 4l-4 11v83l4 10l11 4l10 -4l5 -10v-83zM817 -309h-27v29l4 10l9 4l10 -4l4 -10v-29zM1339 641q-7 68 -41 117q-41 60 -103 60q-76 0 -134 -50q-61 -52 -62 -127h340zM1370 577h-369
v-16q0 -256 184 -256q185 0 185 272zM896 539v34l-4 -3l-83 3q-69 3 -131 -36q-66 -41 -66 -111q0 -109 117 -109q79 0 126 74q41 64 41 148z" />
  </g>

</svg>
