<?xml version="1.0" standalone="no"?>
<!DOCTYPE svg PUBLIC "-//W3C//DTD SVG 1.1//EN" "http://www.w3.org/Graphics/SVG/1.1/DTD/svg11.dtd" >
<svg viewBox="0 -419 2155 2048">
  <g transform="matrix(1 0 0 -1 0 1638)">
   <path fill="currentColor"
d="M2155 -239q0 -74 -53 -127t-127 -53h-1599q-74 0 -127 53t-53 127v1599q0 74 53 127t127 53h1599q74 0 127 -53t53 -127v-1599zM2112 818v84q0 36 -36 36h-39q-36 0 -36 -34v-88q0 -34 36 -34h39q36 0 36 36zM1382 1365v151h-33v-151h33zM2098 583v22h-47v45h31v21h-31
v45h47v22h-84v-155h84zM1324 1365v116q0 35 -33 35h-35q-33 0 -33 -34v-117h37v65h27v-65h37zM1196 1365v151h-37v-65h-27v65h-37v-151h37v65h27v-65h37zM2107 506v36h-101v-21h64v-14q-32 -65 -32 -84v-35h37q0 52 32 118zM1068 1494v22h-100v-22h32v-129h37v129h31z
M2106 317v28h-102v-157h41v66h47v28h-47v35h61zM1959 -79v1279q0 59 -42.5 101.5t-101.5 42.5h-1280q-59 0 -101.5 -42.5t-42.5 -101.5v-1279q0 -59 42.5 -101.5t101.5 -42.5h1280q59 0 101.5 42.5t42.5 101.5zM349 818v84q0 36 -36 36h-39q-36 0 -36 -34v-88q0 -34 36 -34
h39q36 0 36 36zM1382 -395v151h-33v-151h33zM336 583v22h-48v45h32v21h-32v45h48v22h-84v-155h84zM1324 -395v116q0 35 -33 35h-35q-33 0 -33 -34v-117h37v65h27v-65h37zM1196 -395v151h-37v-65h-27v65h-37v-151h37v65h27v-65h37zM349 421v85q0 36 -36 36h-39q-36 0 -36 -35
v-87q0 -35 36 -35h39q36 0 36 36zM1068 -266v22h-100v-22h32v-129h37v129h31zM349 224v84q0 36 -36 36h-39q-36 0 -36 -34v-88q0 -34 36 -34h39q36 0 36 36zM2071 818l-4 -10l-11 -4l-10 4l-5 10v83l5 11l10 4l11 -4l4 -11v-83zM1287 1451h-27v29l4 10l10 4l9 -4l4 -10v-29z
M1708 -8h-186v880q0 33 -22.5 58t-55.5 25q-34 0 -101 -130q-196 -379 -261 -786q-4 -25 -4 -47h-192v750q-31 -5 -49 -5q-80 0 -137.5 55.5t-57.5 135.5q0 90 58.5 144t149.5 54q103 0 165.5 -61.5t62.5 -164.5l-1 -279q0 -12 -6 -39.5t-5 -41.5l1 -16q72 212 116 310
q84 185 181 269q30 26 86 26q103 0 180.5 -73.5t77.5 -175.5v-888zM309 818l-5 -10l-10 -4l-11 4l-4 10v83l4 11l11 4l10 -4l5 -11v-83zM1287 -309h-27v29l4 10l10 4l9 -4l4 -10v-29zM309 422l-5 -10l-10 -5l-11 5l-4 10v83l4 11l11 4l10 -4l5 -11v-83zM309 225l-5 -11
l-10 -4l-11 4l-4 11v83l4 10l11 4l10 -4l5 -10v-83zM917 928q0 34 -24.5 59t-58.5 25q-33 0 -56.5 -25.5t-23.5 -58.5q0 -31 24.5 -55t55.5 -24t57 24t26 55z" />
  </g>

</svg>
