<?xml version="1.0" standalone="no"?>
<!DOCTYPE svg PUBLIC "-//W3C//DTD SVG 1.1//EN" "http://www.w3.org/Graphics/SVG/1.1/DTD/svg11.dtd" >
<svg viewBox="0 -419 2155 2048">
  <g transform="matrix(1 0 0 -1 0 1638)">
   <path fill="currentColor"
d="M2155 -239q0 -74 -53 -127t-127 -53h-1599q-75 0 -127.5 52.5t-52.5 127.5v1599q0 75 52.5 127.5t127.5 52.5h1599q74 0 127 -53t53 -127v-1599zM1588 1365v151h-21v-78l-86 78h-11v-151h21v78l86 -78h11zM2112 818v84q0 36 -36 36h-39q-36 0 -36 -34v-88q0 -34 36 -34
h39q36 0 36 36zM1442 1365v116q0 35 -32 35h-36q-32 0 -32 -34v-117h36v65h28v-65h36zM2098 716v22h-84v-155h36v67h32v21h-32v45h48zM1304 1494v22h-101v-22h32v-129h37v129h32zM1175 1365v21h-48v44h32v21h-32v43h48v22h-84v-151h84zM2098 521v21h-84v-154h36v66h32v22
h-32v45h48zM1061 1400q0 34 -21 41q21 8 21 32q0 43 -34 43h-66v-151h66q34 0 34 35zM927 1365v151h-33v-151h33zM2106 317v28h-102v-157h41v66h47v28h-47v35h61zM863 1494v22h-101v-22h32v-129h37v129h32zM1959 -79v1279q0 59 -42.5 101.5t-101.5 42.5h-1280
q-59 0 -101.5 -42.5t-42.5 -101.5v-1279q0 -59 42.5 -101.5t101.5 -42.5h1280q59 0 101.5 42.5t42.5 101.5zM1588 -395v151h-21v-78l-86 78h-11v-151h21v78l86 -78h11zM349 818v84q0 36 -36 36h-39q-36 0 -36 -34v-88q0 -34 36 -34h39q36 0 36 36zM1442 -395v116
q0 35 -32 35h-36q-32 0 -32 -34v-117h36v65h28v-65h36zM336 716v22h-84v-155h36v67h32v21h-32v45h48zM1304 -266v22h-101v-22h32v-129h37v129h32zM1175 -395v21h-48v44h32v21h-32v43h48v22h-84v-151h84zM349 421v85q0 36 -36 36h-39q-36 0 -36 -35v-87q0 -35 36 -35h39
q36 0 36 36zM1061 -360q0 34 -21 41q21 8 21 32q0 43 -34 43h-66v-151h66q34 0 34 35zM927 -395v151h-33v-151h33zM349 224v84q0 36 -36 36h-39q-36 0 -36 -34v-88q0 -34 36 -34h39q36 0 36 36zM863 -266v22h-101v-22h32v-129h37v129h32zM2071 818l-4 -10l-11 -4l-10 4
l-5 10v83l5 11l10 4l11 -4l4 -11v-83zM1406 1451h-28v29l5 10l9 4l9 -4l5 -10v-29zM1025 1465l-5 -10l-10 -4h-13v43h13l10 -4l5 -10v-15zM1025 1400l-5 -10l-10 -4h-13v44h14q14 0 14 -14v-16zM1525 1139q-1 -52 -41 -1202h-15l-47 1097h-171l-39 -577h-13l-41 577h-146
q-7 -96 -51 -163q-34 -52 -121 -122h-15q103 120 103 285h-44l33 105h608zM309 818l-5 -10l-10 -4l-11 4l-4 10v83l4 11l11 4l10 -4l5 -11v-83zM1406 -309h-28v29l5 10l9 4l9 -4l5 -10v-29zM309 422l-5 -10l-10 -5l-11 5l-4 10v83l4 11l11 4l10 -4l5 -11v-83zM1025 -295
l-5 -10l-10 -4h-13v43h13l10 -4l5 -10v-15zM1025 -360l-5 -10l-10 -4h-13v44h14q14 0 14 -14v-16zM309 225l-5 -11l-10 -4l-11 4l-4 11v83l4 10l11 4l10 -4l5 -10v-83z" />
  </g>

</svg>
