<?xml version="1.0" standalone="no"?>
<!DOCTYPE svg PUBLIC "-//W3C//DTD SVG 1.1//EN" "http://www.w3.org/Graphics/SVG/1.1/DTD/svg11.dtd" >
<svg viewBox="0 -419 2155 2048">
  <g transform="matrix(1 0 0 -1 0 1638)">
   <path fill="currentColor"
d="M2155 -239q0 -75 -52.5 -127.5t-127.5 -52.5h-1599q-75 0 -127.5 52.5t-52.5 127.5v1599q0 75 52.5 127.5t127.5 52.5h1599q75 0 127.5 -52.5t52.5 -127.5v-1599zM2081 978v154h-18l-32 -17v-21h16v-116h34zM1717 1402h-21q-1 -16 -13 -16h-16l-10 4l-4 10v80l4 10l10 4
h16q12 0 13 -16h21q-2 37 -34 37h-32q-35 0 -35 -35v-81q0 -34 35 -34h32q32 0 34 37zM1587 1365v150h-34v-150h34zM1525 1365v21h-47v130h-37v-151h84zM2112 818v84q0 36 -36 36h-39q-36 0 -36 -34v-88q0 -34 36 -34h39q36 0 36 36zM1412 1365v116q0 35 -33 35h-35
q-32 0 -32 -34v-117h36v65h27v-65h37zM2107 617v35q0 33 -43 35l43 30v20h-101v-21h59l-43 -30v-20l25 1q23 1 23 -15v-33l-4 -10l-10 -5h-15q-13 0 -14 17h-21q4 -38 33 -38h35q33 0 33 34zM1288 1494v22h-101v-22h32v-129h37v129h32zM1160 1365v151h-33v-151h33zM2107 388
v21h-64q2 11 33 42.5t31 46.5q0 44 -35 44h-32q-30 0 -34 -38h21q0 17 13 17h16l10 -5l4 -10q0 -20 -32 -52.5t-32 -46.5v-19h101zM971 1400v81q0 35 -32 35h-68v-151h68q32 0 32 35zM2106 317v28h-102v-157h41v66h47v28h-47v35h61zM841 1365v21h-48v130h-36v-151h84z
M733 1400v81q0 34 -32 34h-35q-33 0 -33 -33v-84q0 -33 33 -33h35q32 0 32 35zM1959 -79v1279q0 60 -42 102t-102 42h-1280q-60 0 -102 -42t-42 -102v-1279q0 -60 42 -102t102 -42h1280q60 0 102 42t42 102zM319 978v154h-18l-32 -17v-21h15v-116h35zM1717 -358h-21
q-1 -16 -13 -16h-16l-10 4l-4 10v80l4 10l10 4h16q12 0 13 -16h21q-2 37 -34 37h-32q-35 0 -35 -35v-81q0 -34 35 -34h32q32 0 34 37zM1587 -395v150h-34v-150h34zM1525 -395v21h-47v130h-37v-151h84zM349 818v84q0 36 -36 36h-39q-36 0 -36 -34v-88q0 -34 36 -34h39
q36 0 36 36zM1412 -395v116q0 35 -33 35h-35q-32 0 -32 -34v-117h36v65h27v-65h37zM344 617v35q0 33 -43 35l43 30v20h-101v-21h59l-43 -30v-20l25 1q23 1 23 -15v-33l-4 -10l-10 -5h-15q-13 0 -14 17h-21q4 -38 33 -38h35q33 0 33 34zM1288 -266v22h-101v-22h32v-129h37
v129h32zM1160 -395v151h-33v-151h33zM349 421v85q0 36 -36 36h-39q-36 0 -36 -35v-87q0 -35 36 -35h39q36 0 36 36zM971 -360v81q0 35 -32 35h-68v-151h68q32 0 32 35zM349 224v84q0 36 -36 36h-39q-36 0 -36 -34v-88q0 -34 36 -34h39q36 0 36 36zM841 -395v21h-48v130h-36
v-151h84zM733 -360v81q0 34 -32 34h-35q-33 0 -33 -33v-84q0 -33 33 -33h35q32 0 32 35zM2071 818l-4 -10l-11 -4l-10 4l-5 10v83l5 11l10 4l11 -4l4 -11v-83zM1375 1451h-27v29l4 10l10 4l9 -4l4 -10v-29zM935 1400l-4 -10l-10 -4h-13v108h13l10 -4l4 -10v-80zM697 1400
l-4 -10l-10 -4l-9 4l-4 10v80l4 10l9 4l10 -4l4 -10v-80zM1518 47q0 -43 -43 -43q-35 0 -42 42q-10 65 -10 151q1 134 -1 152l-506 273v-587q0 -41 -43 -41t-43 41v1090q0 32 86 32h27h26q9 -1 2 -1q319 0 437 -245q72 -150 98 -527q12 -175 12 -337zM309 818l-5 -10l-10 -4
l-11 4l-4 10v83l4 11l11 4l10 -4l5 -11v-83zM1375 -309h-27v29l4 10l10 4l9 -4l4 -10v-29zM309 422l-5 -10l-10 -5l-11 5l-4 10v83l4 11l11 4l10 -4l5 -11v-83zM935 -360l-4 -10l-10 -4h-13v108h13l10 -4l4 -10v-80zM309 225l-5 -11l-10 -4l-11 4l-4 11v83l4 10l11 4l10 -4
l5 -10v-83zM697 -360l-4 -10l-10 -4l-9 4l-4 10v80l4 10l9 4l10 -4l4 -10v-80zM1415 450q-24 305 -84 425q-98 196 -356 196q-28 0 -59 -2v-350z" />
  </g>

</svg>
