<?xml version="1.0" standalone="no"?>
<!DOCTYPE svg PUBLIC "-//W3C//DTD SVG 1.1//EN" "http://www.w3.org/Graphics/SVG/1.1/DTD/svg11.dtd" >
<svg viewBox="0 -419 2155 2048">
  <g transform="matrix(1 0 0 -1 0 1638)">
   <path fill="currentColor"
d="M2155 -239q0 -74 -53 -127t-127 -53h-1599q-75 0 -127.5 52.5t-52.5 127.5v1599q0 75 52.5 127.5t127.5 52.5h1599q74 0 127 -53t53 -127v-1599zM2081 978v155h-18l-32 -18v-20h16v-117h34zM1627 1402h-20q-2 -16 -14 -16h-16l-10 4l-4 10v80l4 10l10 4h16q12 0 14 -16
h20q-2 37 -34 37h-32q-34 0 -34 -35v-81q0 -34 34 -34h32q32 0 34 37zM1497 1365v150h-33v-150h33zM2112 818v84q0 36 -36 36h-39q-36 0 -36 -34v-88q0 -34 36 -34h39q36 0 36 36zM1428 1494v21h-101v-21h32v-129h37v129h32zM2107 617v35q0 33 -43 35l43 30v20h-101v-21h59
l-43 -30v-20l25 1q23 1 23 -15v-33l-4 -10l-10 -5h-15q-13 0 -14 17h-21q4 -38 33 -38h35q33 0 33 34zM1290 1365v150h-33v-150h33zM1227 1365v60l-6 13l-11 5q17 8 17 29q0 44 -33 44h-68v-151h37v65h13l10 -4l4 -11v-50h37zM2112 445v61q0 36 -38 36h-35q-38 0 -38 -36
v-34q0 -36 38 -36h17q10 0 15 7v-4q0 -31 -52 -31v-22h31q24 0 43 17.5t19 41.5zM1094 1365v116q0 35 -33 35h-35q-33 0 -33 -34v-117h37v65h27v-65h37zM959 1400v51h-53v-21h16v-30q0 -13 -13 -14l-10 4l-4 10v80l4 10l10 4h16q12 0 13 -16h21q-2 38 -34 38h-32
q-35 0 -35 -35v-81q0 -35 35 -35h32q34 0 34 35zM2098 326v21h-84v-154h36v66h32v22h-32v45h48zM823 1400v116h-36v-116l-5 -10l-9 -4l-9 4l-5 10v116h-36v-118q0 -33 32 -33h36q32 0 32 35zM1959 -79v1279q0 59 -42.5 101.5t-101.5 42.5h-1280q-59 0 -101.5 -42.5
t-42.5 -101.5v-1279q0 -59 42.5 -101.5t101.5 -42.5h1280q59 0 101.5 42.5t42.5 101.5zM319 978v155h-18l-32 -18v-20h15v-117h35zM1627 -358h-20q-2 -16 -14 -16h-16l-10 4l-4 10v80l4 10l10 4h16q12 0 14 -16h20q-2 38 -34 38h-32q-34 0 -34 -35v-81q0 -35 34 -35h32
q32 0 34 37zM1497 -395v151h-33v-151h33zM349 818v84q0 36 -36 36h-39q-36 0 -36 -34v-88q0 -34 36 -34h39q36 0 36 36zM1428 -266v22h-101v-22h32v-129h37v129h32zM1290 -395v151h-33v-151h33zM344 617v35q0 33 -43 35l43 30v20h-101v-21h59l-43 -30v-20l25 1q23 1 23 -15
v-33l-4 -10l-10 -5h-15q-13 0 -14 17h-21q4 -38 33 -38h35q33 0 33 34zM1227 -396v61l-6 13l-11 4q17 9 17 29q0 44 -33 44h-68v-151h37v65h13l10 -4l4 -10v-51h37zM350 421q0 36 -24 43q24 8 24 33q0 45 -38 45h-35q-38 0 -38 -36q0 -35 24 -42q-24 -9 -24 -34
q0 -45 38 -45h35q38 0 38 36zM1094 -396v116q0 35 -33 35h-35q-33 0 -33 -33v-118h37v65h27v-65h37zM959 -361v51h-53v-21h16v-30q0 -13 -13 -13l-10 4l-4 10v80l4 10l10 4h16q12 0 13 -16h21q-2 37 -34 37h-32q-35 0 -35 -35v-81q0 -35 35 -35h32q34 0 34 35zM349 224v84
q0 36 -36 36h-39q-36 0 -36 -34v-88q0 -34 36 -34h39q36 0 36 36zM823 -361v116h-36v-115l-5 -10l-9 -4l-9 4l-5 10v115h-36v-117q0 -33 32 -33h36q32 0 32 34zM2071 818l-4 -10l-11 -4l-10 4l-5 10v83l5 11l10 4l11 -4l4 -11v-83zM1190 1465l-4 -10l-10 -4h-13v43h13l10 -4
l4 -10v-15zM2071 473l-4 -10l-11 -5l-10 5l-5 10v33l5 10l10 4l11 -4l4 -10v-33zM1057 1451h-27v29l4 10l9 4l10 -4l4 -10v-29zM1781 561q0 -24 -29 -30l-792 -169q-25 0 -29 26q-1 7 -1 44l-331 -70q-30 0 -30 30v337q0 30 30 30q50 -10 331 -70q0 40 1 44q4 26 29 26
q8 -2 792 -169q29 -6 29 -29zM309 818l-5 -10l-10 -4l-11 4l-4 10v83l4 11l11 4l10 -4l5 -11v-83zM1190 -295l-4 -11l-10 -4h-13v44h13l10 -4l4 -10v-15zM310 489l-5 -10l-11 -4l-10 4l-5 10v16l5 11l10 4l11 -4l5 -11v-16zM1057 -310h-27v30l4 10l9 4l10 -4l4 -10v-30z
M310 422l-5 -10l-11 -5l-10 5l-5 10v16q0 15 15 15q16 0 16 -15v-16zM309 225l-5 -11l-10 -4l-11 4l-4 11v83l4 10l11 4l10 -4l5 -10v-83zM1603 561l-613 131v-263zM930 494v133l-301 65v-263z" />
  </g>

</svg>
