<?xml version="1.0" standalone="no"?>
<!DOCTYPE svg PUBLIC "-//W3C//DTD SVG 1.1//EN" "http://www.w3.org/Graphics/SVG/1.1/DTD/svg11.dtd" >
<svg viewBox="0 -419 2155 2048">
  <g transform="matrix(1 0 0 -1 0 1638)">
   <path fill="currentColor"
d="M2155 -239q0 -75 -52.5 -127.5t-127.5 -52.5h-1599q-75 0 -127.5 52.5t-52.5 127.5v1599q0 75 52.5 127.5t127.5 52.5h1599q75 0 127.5 -52.5t52.5 -127.5v-1599zM1813 1365v151h-20v-78l-86 78h-11v-151h21v78l86 -78h10zM2081 978v155h-18l-32 -18v-20h16v-117h34z
M1657 1365v116q0 35 -33 35h-35q-33 0 -33 -34v-117h37v65h27v-65h37zM1533 1365v151h-34v-151h34zM2112 818v84q0 36 -36 36h-39q-36 0 -36 -34v-88q0 -34 36 -34h39q36 0 36 36zM1469 1400q0 21 -23.5 49t-23.5 31q1 5 3 11q4 2 11 4q11 0 13 -17h20q-2 38 -32 38h-19
q-33 0 -33 -35q0 -21 24 -49t24 -32l-3 -10l-11 -4l-9 3l-4 9v4h-21q0 -37 32 -37h19q33 0 33 35zM1361 1365v60l-6 13l-11 5q17 8 17 29q0 44 -33 44h-68v-151h37v65h13l10 -4l4 -11v-50h37zM2107 617v35q0 33 -43 35l43 30v20h-101v-21h59l-43 -30v-20l25 1q23 1 23 -15
v-33l-4 -10l-10 -5h-15q-13 0 -14 17h-21q4 -38 33 -38h35q33 0 33 34zM1227 1365v21h-47v44h31v21h-31v43h47v22h-84v-151h84zM2112 421v85q0 36 -36 36h-75v-157h75q36 0 36 36zM1114 1463v18q0 35 -33 35h-67v-151h36v65h13q51 0 51 33zM2098 326v21h-84v-154h36v66h32
v22h-32v45h48zM875 1400v81q0 35 -33 35h-67v-151h67q33 0 33 35zM744 1365v21h-47v130h-36v-151h83zM637 1400v81q0 34 -33 34h-35q-32 0 -32 -33v-84q0 -33 32 -33h35q33 0 33 35zM1959 -79v1279q0 59 -42.5 101.5t-101.5 42.5h-1280q-59 0 -101.5 -42.5t-42.5 -101.5
v-1279q0 -59 42.5 -101.5t101.5 -42.5h1280q59 0 101.5 42.5t42.5 101.5zM1813 -395v151h-20v-78l-86 78h-11v-151h21v78l86 -78h10zM319 978v155h-18l-32 -18v-20h15v-117h35zM1657 -395v116q0 35 -33 35h-35q-33 0 -33 -34v-117h37v65h27v-65h37zM1533 -395v151h-34v-151
h34zM349 818v84q0 36 -36 36h-39q-36 0 -36 -34v-88q0 -34 36 -34h39q36 0 36 36zM1469 -360q0 21 -23.5 49t-23.5 31q1 5 3 11q4 2 11 4q11 0 13 -17h20q-2 38 -32 38h-19q-33 0 -33 -35q0 -21 24 -49t24 -32l-3 -10l-11 -4l-9 3l-4 9v4h-21q0 -37 32 -37h19q33 0 33 35z
M1361 -395v60l-6 13l-11 5q17 8 17 29q0 44 -33 44h-68v-151h37v65h13l10 -4l4 -11v-50h37zM344 617v35q0 33 -43 35l43 30v20h-101v-21h59l-43 -30v-20l25 1q23 1 23 -15v-33l-4 -10l-10 -5h-15q-13 0 -14 17h-21q4 -38 33 -38h35q33 0 33 34zM1227 -395v21h-47v44h31v21
h-31v43h47v22h-84v-151h84zM349 385v121q0 36 -36 36h-38q-36 0 -36 -35v-122h40v68h30v-68h40zM1114 -297v18q0 35 -33 35h-67v-151h36v65h13q51 0 51 33zM349 224v84q0 36 -36 36h-39q-36 0 -36 -34v-88q0 -34 36 -34h39q36 0 36 36zM875 -360v81q0 35 -33 35h-67v-151h67
q33 0 33 35zM744 -395v21h-47v130h-36v-151h83zM637 -360v81q0 34 -33 34h-35q-32 0 -32 -33v-84q0 -33 32 -33h35q33 0 33 35zM1620 1451h-27v29l4 10l9 4l10 -4l4 -10v-29zM2071 818l-4 -10l-11 -4l-10 4l-5 10v83l5 11l10 4l11 -4l4 -11v-83zM1324 1465l-4 -10l-10 -4
h-13v43h13l10 -4l4 -10v-15zM1077 1465l-4 -10l-10 -4h-13v43h13l10 -4l4 -10v-15zM2071 422l-4 -10l-11 -5h-15v113h15l11 -4l4 -11v-83zM838 1400l-4 -10l-10 -4h-13v108h13l10 -4l4 -10v-80zM600 1400l-4 -10l-9 -4l-10 4l-4 10v80l4 10l10 4l9 -4l4 -10v-80zM1712 759
q0 -29 -185 -212v-580q0 -39 -39 -39t-39 39v580q-40 38 -118 115q-39 -39 -117 -115v-580q0 -39 -39 -39t-39 39v580q-40 38 -118 115q-39 -39 -117 -115v-580q0 -39 -39 -39t-39 39v580l-105 102q-80 78 -80 110q0 7 4 11q-2 9 -2 23v360q0 44 23 44q32 0 110 -79
q14 -14 102 -106h796q39 0 39 -39t-39 -39h-796q-48 -52 -154 -152h947q44 0 44 -23zM1620 -309h-27v29l4 10l9 4l10 -4l4 -10v-29zM309 818l-5 -10l-10 -4l-11 4l-4 10v83l4 11l11 4l10 -4l5 -11v-83zM1324 -295l-4 -10l-10 -4h-13v43h13l10 -4l4 -10v-15zM309 475h-30v30
l5 11l10 4l10 -4l5 -11v-30zM1077 -295l-4 -10l-10 -4h-13v43h13l10 -4l4 -10v-15zM309 225l-5 -11l-10 -4l-11 4l-4 11v83l4 10l11 4l10 -4l5 -10v-83zM838 -360l-4 -10l-10 -4h-13v108h13l10 -4l4 -10v-80zM600 -360l-4 -10l-9 -4l-10 4l-4 10v80l4 10l10 4l9 -4l4 -10
v-80zM1574 704h-173q30 -27 88 -85zM1261 704h-172q30 -27 87 -85zM803 972q-28 29 -85 87v-172zM949 704h-173q30 -27 88 -85z" />
  </g>

</svg>
