<?xml version="1.0" standalone="no"?>
<!DOCTYPE svg PUBLIC "-//W3C//DTD SVG 1.1//EN" "http://www.w3.org/Graphics/SVG/1.1/DTD/svg11.dtd" >
<svg viewBox="0 -419 2155 2048">
  <g transform="matrix(1 0 0 -1 0 1638)">
   <path fill="currentColor"
d="M2155 -239q0 -74 -53 -127t-127 -53h-1599q-74 0 -127 53t-53 127v1599q0 74 53 127t127 53h1599q74 0 127 -53t53 -127v-1599zM2081 978v154h-18l-32 -17v-21h16v-116h34zM1589 1499v22h-101v-22h32v-129h37v129h32zM2112 818v84q0 36 -36 36h-39q-36 0 -36 -34v-88
q0 -34 36 -34h39q36 0 36 36zM1458 1365v21h-48v44h32v21h-32v43h48v22h-84v-151h84zM1341 1365v60l-5 13l-11 5q16 8 16 29q0 44 -32 44h-68v-151h36v65h14l9 -4l5 -11v-50h36zM2120 634v22h-17v84h-39l-71 -86v-20h70v-50h40v50h17zM1208 1365v21h-48v44h32v21h-32v43h48
v22h-84v-151h84zM2120 436v22h-17v84h-39l-71 -86v-20h70v-51h40v51h17zM1092 1478q-3 38 -33 38h-19q-32 0 -32 -35q0 -20 23.5 -48.5t23.5 -32.5l-3 -10l-10 -4l-9 3l-5 9v4h-20q0 -37 32 -37h19q32 0 32 35q0 20 -23.5 48.5t-23.5 31.5q1 5 4 11q4 2 10 4q12 0 13 -17h21
zM973 1365v21h-47v44h31v21h-31v43h47v22h-84v-151h84zM2106 317v28h-102v-157h41v66h47v28h-47v35h61zM862 1400v81q0 35 -33 35h-68v-151h68q33 0 33 35zM1959 -79v1279q0 59 -42.5 101.5t-101.5 42.5h-1280q-59 0 -101.5 -42.5t-42.5 -101.5v-1279q0 -59 42.5 -101.5
t101.5 -42.5h1280q59 0 101.5 42.5t42.5 101.5zM319 978v154h-18l-32 -17v-21h15v-116h35zM1589 -261v22h-101v-22h32v-129h37v129h32zM349 818v84q0 36 -36 36h-39q-36 0 -36 -34v-88q0 -34 36 -34h39q36 0 36 36zM1458 -395v21h-48v44h32v21h-32v43h48v22h-84v-151h84z
M1341 -395v60l-5 13l-11 5q16 8 16 29q0 44 -32 44h-68v-151h36v65h14l9 -4l5 -11v-50h36zM353 634v22h-17v84h-38l-68 -86v-20h67v-50h39v50h17zM1208 -395v21h-48v44h32v21h-32v43h48v22h-84v-151h84zM349 421v85q0 36 -36 36h-39q-36 0 -36 -35v-87q0 -35 36 -35h39
q36 0 36 36zM1092 -282q-3 38 -33 38h-19q-32 0 -32 -35q0 -20 23.5 -48.5t23.5 -32.5l-3 -10l-10 -4l-9 3l-5 9v4h-20q0 -37 32 -37h19q32 0 32 35q0 20 -23.5 48.5t-23.5 31.5q1 5 4 11q4 2 10 4q12 0 13 -17h21zM973 -395v21h-47v44h31v21h-31v43h47v22h-84v-151h84z
M349 224v84q0 36 -36 36h-39q-36 0 -36 -34v-88q0 -34 36 -34h39q36 0 36 36zM862 -360v81q0 35 -33 35h-68v-147q57 -4 72 -4q29 0 29 35zM2071 818l-4 -10l-11 -4l-10 4l-5 10v83l5 11l10 4l11 -4l4 -11v-83zM1305 1465l-5 -10l-9 -4h-14v43h14l9 -4l5 -10v-15zM2063 656
h-45l45 54v-54zM2063 458h-45l45 53v-53zM825 1400l-4 -10l-10 -4h-13v108h13l10 -4l4 -10v-80zM1643 2h-255v126q-97 -149 -237 -149q-221 0 -341 182q-103 157 -103 390q0 231 101 402q121 205 337 205q148 0 235 -88l16 4v58h247v-1130zM309 818l-5 -10l-10 -4l-11 4
l-4 10v83l4 11l11 4l10 -4l5 -11v-83zM1305 -295l-5 -10l-9 -4h-14v43h14l9 -4l5 -10v-15zM297 656h-42l42 53v-53zM309 422l-5 -10l-10 -5l-11 5l-4 10v83l4 11l11 4l10 -4l5 -11v-83zM309 225l-5 -11l-10 -4l-11 4l-4 11v83l4 10l11 4l10 -4l5 -10v-83zM825 -360l-4 -10
l-10 -4h-13v108h13l10 -4l4 -10v-80zM1396 856q0 91 -75 152q-70 58 -163 58q-106 0 -168 -130q-49 -103 -49 -224q0 -34 2 -76q71 -31 143 -31q226 0 307 131q3 71 3 120zM1389 608q-150 -98 -266 -98q-77 0 -175 30q12 -216 27 -276q43 -171 176 -171q162 0 212 193
q20 77 26 322z" />
  </g>

</svg>
