<?xml version="1.0" standalone="no"?>
<!DOCTYPE svg PUBLIC "-//W3C//DTD SVG 1.1//EN" "http://www.w3.org/Graphics/SVG/1.1/DTD/svg11.dtd" >
<svg viewBox="0 -419 2155 2048">
  <g transform="matrix(1 0 0 -1 0 1638)">
   <path fill="currentColor"
d="M2155 -239q0 -74 -53 -127t-127 -53h-1599q-75 0 -127.5 52.5t-52.5 127.5v1599q0 75 52.5 127.5t127.5 52.5h1599q74 0 127 -53t53 -127v-1599zM2081 978v155h-18l-32 -18v-20h16v-117h34zM1587 1365v151h-21v-78l-85 78h-11v-151h21v78l85 -78h11zM2112 818v84
q0 36 -36 36h-39q-36 0 -36 -34v-88q0 -34 36 -34h39q36 0 36 36zM1430 1365v116q0 35 -32 35h-35q-33 0 -33 -34v-117h37v65h27v-65h36zM2120 634v22h-17v84h-39l-71 -86v-20h70v-50h40v50h17zM1292 1365v151h-33v-151h33zM1230 1423v93h-36v-116l-4 -10l-10 -4h-13v130
h-37v-151h44q56 0 56 58zM2107 506v36h-101v-21h64v-14q-32 -66 -32 -84v-35h37q0 54 21 96zM1101 1365v116q0 35 -32 35h-35q-33 0 -33 -34v-117h37v65h27v-65h36zM974 1365v151h-36v-65h-27v65h-37v-151h37v65h27v-65h36zM2098 326v21h-84v-154h36v66h32v22h-32v45h48z
M847 1478q-2 38 -33 38h-19q-32 0 -32 -35q0 -20 23.5 -48.5t23.5 -32.5l-3 -10l-10 -4l-9 3l-5 9v4h-20q0 -37 32 -37h19q32 0 32 35q0 19 -23.5 48t-23.5 32q2 5 4 11q4 2 11 4q11 0 12 -17h21zM1959 -79v1279q0 59 -42.5 101.5t-101.5 42.5h-1280q-59 0 -101.5 -42.5
t-42.5 -101.5v-1279q0 -59 42.5 -101.5t101.5 -42.5h1280q59 0 101.5 42.5t42.5 101.5zM319 978v155h-18l-32 -18v-20h15v-117h35zM1587 -395v151h-21v-78l-85 78h-11v-151h21v78l85 -78h11zM349 818v84q0 36 -36 36h-39q-36 0 -36 -34v-88q0 -34 36 -34h39q36 0 36 36z
M1430 -395v116q0 35 -32 35h-35q-33 0 -33 -34v-117h37v65h27v-65h36zM1292 -395v151h-33v-151h33zM353 634v22h-17v84h-38l-68 -86v-20h67v-50h39v50h17zM1230 -337v93h-36v-116l-4 -10l-10 -4h-13v130h-37v-151h44q56 0 56 58zM344 424v33q0 36 -64 36v28h64v21h-100v-71
h50l9 -4l5 -11v-32l-5 -10l-9 -4h-16q-13 0 -14 16h-20q4 -38 34 -38h32q34 0 34 36zM1101 -395v116q0 35 -32 35h-35q-33 0 -33 -34v-117h37v65h27v-65h36zM974 -395v151h-36v-65h-27v65h-37v-151h37v65h27v-65h36zM349 224v84q0 36 -36 36h-39q-36 0 -36 -34v-88
q0 -34 36 -34h39q36 0 36 36zM847 -282q-2 38 -33 38h-19q-32 0 -32 -35q0 -20 23.5 -48.5t23.5 -32.5l-3 -10l-10 -4l-9 3l-5 9v4h-20q0 -37 32 -37h19q32 0 32 35q0 19 -23.5 48t-23.5 32q2 5 4 11q4 2 11 4q11 0 12 -17h21zM2071 818l-4 -10l-11 -4l-10 4l-5 10v83l5 11
l10 4l11 -4l4 -11v-83zM1394 1451h-27v29l4 10l9 4l10 -4l4 -10v-29zM2063 656h-45l45 54v-54zM1065 1451h-27v29l4 10l9 4l10 -4l4 -10v-29zM1521 167q0 -69 -133 -112q-102 -33 -194 -33q-134 0 -246 93q-117 99 -117 230q0 107 128 273q35 46 196 252q-19 1 -140 -52
q-124 -55 -167 -57l-15 8l-4 17q0 84 50 102q19 7 121 7q76 0 196 70q74 43 186 129q90 69 99 69q17 0 17 -15q0 -9 -137 -174q-167 -201 -254 -329q-136 -200 -136 -300q0 -101 61 -160t162 -59q56 0 163.5 40t137.5 40q26 0 26 -39zM309 818l-5 -10l-10 -4l-11 4l-4 10v83
l4 11l11 4l10 -4l5 -11v-83zM1394 -309h-27v29l4 10l9 4l10 -4l4 -10v-29zM297 656h-42l42 53v-53zM1065 -309h-27v29l4 10l9 4l10 -4l4 -10v-29zM309 225l-5 -11l-10 -4l-11 4l-4 11v83l4 10l11 4l10 -4l5 -10v-83z" />
  </g>

</svg>
