<?xml version="1.0" standalone="no"?>
<!DOCTYPE svg PUBLIC "-//W3C//DTD SVG 1.1//EN" "http://www.w3.org/Graphics/SVG/1.1/DTD/svg11.dtd" >
<svg viewBox="0 -419 2155 2048">
  <g transform="matrix(1 0 0 -1 0 1638)">
   <path fill="currentColor"
d="M2155 -239q0 -74 -53 -127t-127 -53h-1599q-74 0 -127 53t-53 127v1599q0 74 53 127t127 53h1599q74 0 127 -53t53 -127v-1599zM2081 978v155h-18l-32 -18v-20h16v-117h34zM1652 1365v116q0 35 -32 35h-36q-32 0 -32 -34v-117h36v65h28v-65h36zM2112 818v84q0 36 -36 36
h-39q-36 0 -36 -34v-88q0 -34 36 -34h39q36 0 36 36zM1523 1465v51h-37v-51l-4 -10l-9 -4l-10 4l-4 10v51h-36v-51q0 -30 31 -35v-65h37v65q32 5 32 35zM1394 1365v151h-21v-78l-86 78h-10v-151h20v78l86 -78h11zM2120 634v22h-17v84h-39l-71 -86v-20h70v-50h40v50h17z
M1241 1365v116q0 35 -33 35h-35q-33 0 -33 -34v-117h37v65h27v-65h37zM2111 385v121q0 36 -36 36h-38q-36 0 -36 -35v-122h40v68h30v-68h40zM1104 1365v151h-20l-69 -69l-68 69h-11v-151h21v86l55 -55l54 55v-86h38zM2098 326v21h-84v-154h36v66h32v22h-32v45h48zM910 1400
q0 18 -24 47t-24 33q2 5 4 11q4 2 11 4q11 0 12 -17h21q-2 38 -32 38h-20q-32 0 -32 -35q0 -18 23.5 -47t23.5 -34l-3 -10l-10 -4l-9 3l-5 9l1 4h-21q0 -37 32 -37h19q33 0 33 35zM798 1400v81q0 34 -32 34h-36q-32 0 -32 -33v-84q0 -33 32 -33h36q32 0 32 35zM1959 -79
v1279q0 59 -42.5 101.5t-101.5 42.5h-1280q-59 0 -101.5 -42.5t-42.5 -101.5v-1279q0 -59 42.5 -101.5t101.5 -42.5h1280q59 0 101.5 42.5t42.5 101.5zM319 978v155h-18l-32 -18v-20h15v-117h35zM1652 -395v116q0 35 -32 35h-36q-32 0 -32 -34v-117h36v65h28v-65h36z
M349 818v84q0 36 -36 36h-39q-36 0 -36 -34v-88q0 -34 36 -34h39q36 0 36 36zM1523 -295v51h-37v-51l-4 -10l-9 -4l-10 4l-4 10v51h-36v-51q0 -30 31 -35v-65h37v65q32 5 32 35zM1394 -395v151h-21v-78l-86 78h-10v-151h20v78l86 -78h11zM353 634v22h-17v84h-38l-68 -86v-20
h67v-50h39v50h17zM1241 -395v116q0 35 -33 35h-35q-33 0 -33 -34v-117h37v65h27v-65h37zM350 421q0 36 -24 43q24 8 24 33q0 45 -38 45h-35q-38 0 -38 -36q0 -35 24 -42q-24 -9 -24 -34q0 -45 38 -45h35q38 0 38 36zM1104 -395v151h-20l-69 -69l-68 69h-11v-151h21v86
l55 -55l54 55v-86h38zM349 224v84q0 36 -36 36h-39q-36 0 -36 -34v-88q0 -34 36 -34h39q36 0 36 36zM910 -360q0 18 -24 47t-24 33q2 5 4 11q4 2 11 4q11 0 12 -17h21q-2 38 -32 38h-20q-32 0 -32 -35q0 -18 23.5 -47t23.5 -34l-3 -10l-10 -4l-9 3l-5 9l1 4h-21
q0 -37 32 -37h19q33 0 33 35zM798 -360v81q0 34 -32 34h-36q-32 0 -32 -33v-84q0 -33 32 -33h36q32 0 32 35zM1616 1451h-28v29l5 10l9 4l9 -4l5 -10v-29zM2071 818l-4 -10l-11 -4l-10 4l-5 10v83l5 11l10 4l11 -4l4 -11v-83zM2063 656h-45l45 54v-54zM1204 1451h-27v29
l4 10l9 4l10 -4l4 -10v-29zM2071 475h-30v30l5 11l10 4l10 -4l5 -11v-30zM762 1400l-5 -10l-9 -4l-10 4l-4 10v80l5 10l9 4l9 -4l5 -10v-80zM1583 1003q-95 -57 -189 -124q156 -261 156 -497q0 -170 -121.5 -295t-291.5 -125q-137 0 -250 95q-120 100 -120 234
q0 311 390 622q-50 72 -99 130l151 91q50 -58 93 -116q94 63 197 120zM1616 -309h-28v29l5 10l9 4l9 -4l5 -10v-29zM309 818l-5 -10l-10 -4l-11 4l-4 10v83l4 11l11 4l10 -4l5 -11v-83zM297 656h-42l42 53v-53zM1204 -309h-27v29l4 10l9 4l10 -4l4 -10v-29zM310 489l-5 -10
l-11 -4l-10 4l-5 10v16l5 11l10 4l11 -4l5 -11v-16zM310 422l-5 -10l-11 -5l-10 5l-5 10v16q0 15 15 15q16 0 16 -15v-16zM309 225l-5 -11l-10 -4l-11 4l-4 11v83l4 10l11 4l10 -4l5 -10v-83zM762 -360l-5 -10l-9 -4l-10 4l-4 10v80l5 10l9 4l9 -4l5 -10v-80zM1389 382
q0 147 -139 386q-308 -259 -308 -458q0 -81 55 -139t136 -58q113 0 185 79q71 76 71 190z" />
  </g>

</svg>
