<?xml version="1.0" standalone="no"?>
<!DOCTYPE svg PUBLIC "-//W3C//DTD SVG 1.1//EN" "http://www.w3.org/Graphics/SVG/1.1/DTD/svg11.dtd" >
<svg viewBox="0 -419 2155 2048">
  <g transform="matrix(1 0 0 -1 0 1638)">
   <path fill="currentColor"
d="M2155 -239q0 -75 -52.5 -127.5t-127.5 -52.5h-1599q-75 0 -127.5 52.5t-52.5 127.5v1599q0 75 52.5 127.5t127.5 52.5h1599q75 0 127.5 -52.5t52.5 -127.5v-1599zM1781 1365v151h-34v-151h34zM2081 978v155h-18l-32 -18v-20h16v-117h34zM1713 1365v151h-36v-65h-28v65
h-36v-151h36v65h28v-65h36zM1586 1494v22h-100v-22h31v-129h37v129h32zM2112 818v84q0 36 -36 36h-39q-36 0 -36 -34v-88q0 -34 36 -34h39q36 0 36 36zM1451 1365v151h-37v-65h-27v65h-37v-151h37v65h27v-65h37zM2111 584v120q0 36 -36 36h-38q-36 0 -36 -34v-122h40v67h30
v-67h40zM1319 1400q0 19 -23.5 48t-23.5 32l3 11q4 2 11 4q11 0 13 -17h20q-2 38 -32 38h-19q-33 0 -33 -35q0 -20 24 -48.5t24 -32.5l-3 -10l-11 -4l-9 3l-4 9v4h-21q0 -37 32 -37h20q32 0 32 35zM1208 1400v81q0 34 -33 34h-35q-33 0 -33 -33v-84q0 -33 33 -33h35
q33 0 33 35zM2106 424v33q0 36 -64 36v28h64v21h-100v-71h49l10 -4l5 -11v-32l-5 -10l-10 -4h-15q-13 0 -14 16h-20q4 -38 34 -38h32q34 0 34 36zM1077 1365v60l-6 13l-11 5q17 8 17 29q0 44 -33 44h-68v-151h37v65h13l10 -4l4 -11v-50h37zM948 1365v116q0 35 -33 35h-35
q-33 0 -33 -34v-117h37v65h27v-65h37zM2098 326v21h-84v-154h36v66h32v22h-32v45h48zM820 1365v151h-37v-65h-27v65h-36v-151h36v65h27v-65h37zM689 1365l-66 75l66 76h-35l-48 -56v56h-37v-151h37v53l45 -53h38zM1959 -79v1279q0 60 -42 102t-102 42h-1280q-60 0 -102 -42
t-42 -102v-1279q0 -60 42 -102t102 -42h1280q60 0 102 42t42 102zM1781 -395v151h-34v-151h34zM319 978v155h-18l-32 -18v-20h15v-117h35zM1713 -395v151h-36v-65h-28v65h-36v-151h36v65h28v-65h36zM1586 -266v22h-100v-22h31v-129h37v129h32zM349 818v84q0 36 -36 36h-39
q-36 0 -36 -34v-88q0 -34 36 -34h39q36 0 36 36zM1451 -395v151h-37v-65h-27v65h-37v-151h37v65h27v-65h37zM1319 -360q0 19 -23.5 48t-23.5 32l3 11q4 2 11 4q11 0 13 -17h20q-2 38 -32 38h-19q-33 0 -33 -35q0 -20 24 -48.5t24 -32.5l-3 -10l-11 -4l-9 3l-4 9v4h-21
q0 -37 32 -37h20q32 0 32 35zM349 584v120q0 36 -36 36h-38q-36 0 -36 -34v-122h40v67h30v-67h40zM1208 -360v81q0 34 -33 34h-35q-33 0 -33 -33v-84q0 -33 33 -33h35q33 0 33 35zM349 421v85q0 36 -36 36h-39q-36 0 -36 -35v-87q0 -35 36 -35h39q36 0 36 36zM1077 -395v60
l-6 13l-11 5q17 8 17 29q0 44 -33 44h-68v-151h37v65h13l10 -4l4 -11v-50h37zM948 -395v116q0 35 -33 35h-35q-33 0 -33 -34v-117h37v65h27v-65h37zM349 224v84q0 36 -36 36h-39q-36 0 -36 -34v-88q0 -34 36 -34h39q36 0 36 36zM820 -395v151h-37v-65h-27v65h-36v-151h36v65
h27v-65h37zM689 -395l-66 75l66 76h-35l-48 -56v56h-37v-151h37v53l45 -53h38zM2071 818l-4 -10l-11 -4l-10 4l-5 10v83l5 11l10 4l11 -4l4 -11v-83zM2071 673h-30v31l5 10l10 4l10 -4l5 -10v-31zM1171 1400l-4 -10l-10 -4l-9 4l-4 10v80l4 10l9 4l10 -4l4 -10v-80z
M1040 1465l-4 -10l-10 -4h-13v43h13l10 -4l4 -10v-15zM911 1451h-27v29l4 10l9 4l10 -4l4 -10v-29zM1726 359q0 -4 -2 -12t-2 -12q-1 -88 -111 -189.5t-199 -101.5q-8 0 -23.5 -3.5t-23.5 -3.5q-29 0 -58 28t-35 57q-5 25 -5 55t9 44q30 36 60 73q-3 -47 36 -100
q40 -57 86 -57q4 0 10.5 -3.5t9.5 -3.5q61 0 96 109q9 28 9 58q0 85 -91 177q-23 23 -174 173q-174 -377 -422 -629q-6 -6 -47 -31q-15 0 -15 15q0 39 34 88q136 198 234 356q28 45 64 120q74 153 74 246q0 119 -93 198q-59 50 -105 50l-7 -3q-4 0 -13 1.5t-13.5 1.5
t-15 3.5t-15.5 3.5q-144 0 -200 -100q-21 -37 -17 -89q0 -3 -2 -11t-2 -12q0 -41 49 -65q40 -20 86 -20q6 0 18 -3.5t18 -3.5q8 0 23.5 2t23.5 2q4 0 12 3t11 3t8.5 2t8.5 2q17 0 28 6q-3 -37 -90 -83q-81 -43 -124 -43q-9 0 -27 4t-25 5q-153 13 -153 146q0 50 24 107
q32 75 160 149q125 72 211 72h62q4 0 9.5 -3t8.5 -3q224 -34 272 -199q1 -11 6 -36q-1 -37 0 -80q8 -62 71 -127q96 -99 161 -147q49 -36 89 -85q28 -34 28 -101zM309 818l-5 -10l-10 -4l-11 4l-4 10v83l4 11l11 4l10 -4l5 -11v-83zM309 673h-30v31l5 10l10 4l10 -4l5 -10
v-31zM1171 -360l-4 -10l-10 -4l-9 4l-4 10v80l4 10l9 4l10 -4l4 -10v-80zM309 422l-5 -10l-10 -5l-11 5l-4 10v83l4 11l11 4l10 -4l5 -11v-83zM1040 -295l-4 -10l-10 -4h-13v43h13l10 -4l4 -10v-15zM911 -309h-27v29l4 10l9 4l10 -4l4 -10v-29zM309 225l-5 -11l-10 -4l-11 4
l-4 11v83l4 10l11 4l10 -4l5 -10v-83z" />
  </g>

</svg>
