<?xml version="1.0" standalone="no"?>
<!DOCTYPE svg PUBLIC "-//W3C//DTD SVG 1.1//EN" "http://www.w3.org/Graphics/SVG/1.1/DTD/svg11.dtd" >
<svg viewBox="0 -419 2155 2048">
  <g transform="matrix(1 0 0 -1 0 1638)">
   <path fill="currentColor"
d="M2155 -239q0 -75 -52.5 -127.5t-127.5 -52.5h-1599q-75 0 -127.5 52.5t-52.5 127.5v1599q0 75 52.5 127.5t127.5 52.5h1599q75 0 127.5 -52.5t52.5 -127.5v-1599zM1783 1365v21h-47v44h32v21h-32v43h47v22h-83v-151h83zM2081 976v154h-18l-32 -17v-21h15v-116h35z
M1674 1400q0 25 -24 49l-8 8q-14 14 -14 26q0 4 2 8q7 4 11 4q11 0 13 -17h20q-2 37 -32 37h-19q-32 0 -32 -34q0 -22 24 -49l8 -9q19 -21 12 -33q-6 -4 -10 -4q-3 0 -5 1l-5 2l-4 9v4h-20q0 -37 32 -37h19q32 0 32 35zM1565 1400v116h-36v-116l-4 -10l-10 -4l-9 4l-4 10
v116h-37v-118q0 -33 33 -33h35q32 0 32 35zM2112 818v84q0 36 -36 36h-39q-36 0 -36 -34v-88q0 -34 36 -34h39q36 0 36 36zM1367 1365v21h-47v44h31v21h-31v43h47v22h-84v-151h84zM2098 716v22h-84v-155h36v67h32v21h-32v45h48zM1251 1494v22h-100v-22h32v-129h36v129h32z
M2098 521v21h-84v-154h36v66h32v22h-32v45h48zM1123 1365v116q0 35 -32 35h-36q-32 0 -32 -34v-117h36v65h28v-65h36zM992 1423v93h-36v-116l-5 -10l-10 -4h-13v130h-36v-151h43q57 0 57 58zM2098 326v21h-84v-154h36v66h32v22h-32v45h48zM861 1365v151h-33v-151h33z
M792 1365v60l-5 13l-11 5q16 8 16 29q0 44 -32 44h-68v-151h36v65h13l10 -4l5 -11v-50h36zM2112 29v84q0 36 -36 36l-75 1v-157h75q36 0 36 36zM667 1463v18q0 35 -33 35h-67v-151h36v65q64 -1 64 33zM1959 -79v1279q0 60 -42 102t-102 42h-1280q-60 0 -102 -42t-42 -102
v-1279q0 -60 42 -102t102 -42h1280q60 0 102 42t42 102zM319 976v154h-18l-32 -17v-21h15v-116h35zM1624 -359v34q0 36 -38 36h-18q-6 -2 -14 -5l-1 -1v4q0 31 53 31v22h-31q-24 0 -43 -18t-19 -42v-61q0 -36 38 -36h35q38 0 38 36zM349 818v84q0 36 -36 36h-39
q-36 0 -36 -34v-88q0 -34 36 -34h39q36 0 36 36zM1479 -395v154h-18l-32 -17v-21h16v-116h34zM1340 -395v21h-48v44h32v21h-32v43h48v22h-84v-151h84zM349 620v84q0 36 -36 36h-39q-36 0 -36 -34v-88q0 -34 36 -34h39q36 0 36 36zM1221 -395v151h-21v-78l-86 78h-11v-151h21
v78l86 -78h11zM349 421v85q0 36 -36 36h-39q-36 0 -36 -35v-87q0 -35 36 -35h39q36 0 36 36zM1071 -395v116q0 35 -33 35h-35q-33 0 -33 -34v-117h37v65h27v-65h37zM936 -395v21h-47v130h-37v-151h84zM349 224v84q0 36 -36 36h-39q-36 0 -36 -34v-88q0 -34 36 -34h39
q36 0 36 36zM825 -297v18q0 35 -33 35h-67v-151h36v65q64 -1 64 33zM349 27v84q0 36 -36 36h-39q-36 0 -36 -34v-88q0 -34 36 -34h39q36 0 36 36zM2071 818l-4 -10l-11 -4l-10 4l-5 10v83l5 11l10 4l11 -4l4 -11v-83zM1087 1451h-28v29l5 10l9 4l9 -4l5 -10v-29zM756 1465
l-5 -10l-10 -4h-13v43h13l10 -4l5 -10v-15zM2071 30l-4 -11l-11 -4h-15v113h15l11 -5l4 -10v-83zM630 1465l-4 -10l-10 -4h-13v43h13l10 -4l4 -10v-15zM1675 755q0 -206 -77 -407q-79 -207 -218 -350q-117 -120 -205 -120t-205 120q-139 143 -218 350q-77 201 -77 407
q0 228 137 359q134 129 363 129q230 0 365 -129.5t135 -358.5zM1583 -358l-4 -11l-11 -4l-10 4l-5 11v32l5 11l10 4l11 -4l4 -11v-32zM309 818l-5 -10l-10 -4l-11 4l-4 10v83l4 11l11 4l10 -4l5 -11v-83zM309 620l-5 -10l-10 -4l-11 4l-4 10v84l4 10l11 4l10 -4l5 -10v-84z
M309 422l-5 -10l-10 -5l-11 5l-4 10v83l4 11l11 4l10 -4l5 -11v-83zM1034 -309h-27v29l4 10l10 4l9 -4l4 -10v-29zM309 225l-5 -11l-10 -4l-11 4l-4 11v83l4 10l11 4l10 -4l5 -10v-83zM788 -295l-4 -10l-10 -4h-13v43h13l10 -4l4 -10v-15zM309 27l-5 -10l-10 -4l-11 4l-4 10
v84l4 10l11 4l10 -4l5 -10v-84zM1635 755q0 212 -123.5 330t-336.5 118q-211 0 -334 -118q-126 -120 -126 -330q0 -198 74 -392q76 -200 210 -337q106 -108 176 -108t176 108q134 137 210 337q74 194 74 392zM1516 572q0 -121 -68 -178q-55 -47 -182 -68q3 134 61 193
q53 54 189 78v-25zM1084 326q-127 21 -182 68q-68 57 -68 178v25q136 -23 189 -77q59 -60 61 -194z" />
  </g>

</svg>
