<?xml version="1.0" standalone="no"?>
<!DOCTYPE svg PUBLIC "-//W3C//DTD SVG 1.1//EN" "http://www.w3.org/Graphics/SVG/1.1/DTD/svg11.dtd" >
<svg viewBox="0 -419 2154 2048">
  <g transform="matrix(1 0 0 -1 0 1638)">
   <path fill="currentColor"
d="M2154 -239q0 -74 -53 -127t-127 -53h-1598q-74 0 -127 53t-53 127v1599q0 74 53 127t127 53h1598q74 0 127 -53t53 -127v-1599zM1578 1365v21h-47v130h-36v-151h83zM2081 778v155h-18l-32 -18v-21h16v-116h34zM1455 1400v116h-37v-116l-4 -10l-9 -4l-10 4l-4 10v116h-36
v-118q0 -33 32 -33h35q33 0 33 35zM2081 583v155h-18l-32 -18v-20h16v-117h34zM1311 1400v51h-53v-21h16v-30q0 -13 -13 -14l-10 4l-4 10v80l4 10l10 4h16q12 0 14 -16h20q-2 38 -34 38h-32q-34 0 -34 -35v-81q0 -35 34 -35h32q34 0 34 35zM1173 1365v151h-21v-78l-86 78
h-10v-151h21v78l85 -78h11zM2098 521v21h-84v-154h36v66h32v22h-32v45h48zM1010 1365v116q0 35 -32 35h-35q-33 0 -33 -34v-117h37v65h27v-65h36zM2106 317v28h-102v-157h41v66h47v28h-47v35h61zM872 1365v151h-37v-65h-27v65h-36v-151h36v65h27v-65h37zM1959 -79v1279
q0 59 -42.5 101.5t-101.5 42.5h-1280q-59 0 -101.5 -42.5t-42.5 -101.5v-1279q0 -59 42.5 -101.5t101.5 -42.5h1280q59 0 101.5 42.5t42.5 101.5zM319 778v155h-18l-32 -18v-21h15v-116h35zM1455 -360v81q0 34 -32 34h-35q-33 0 -33 -33v-84q0 -33 33 -33h35q32 0 32 35z
M319 583v155h-18l-32 -18v-20h15v-117h35zM1320 -395v151h-20l-68 -69l-68 69h-11v-151h21v86l54 -55l55 55v-86h37zM349 421v85q0 36 -36 36h-39q-36 0 -36 -35v-87q0 -35 36 -35h39q36 0 36 36zM1125 -395v116q0 34 -33 34h-35q-32 0 -32 -33v-117h36v65h27v-65h37z
M995 -362v118h-37v-116l-4 -10l-9 -4l-10 4l-4 10v35h-36v-37q0 -33 32 -33h36q32 0 32 33zM349 224v84q0 36 -36 36h-39q-36 0 -36 -34v-88q0 -34 36 -34h39q36 0 36 36zM974 1451h-27v29l4 10l9 4l10 -4l4 -10v-29zM1314 1215q0 -32 -45 -51q-36 -15 -73 -15
q-157 0 -158 121h41q57 -25 194 -36q41 -3 41 -19zM1534 1042q0 -31 -35 -31h-624q-23 0 -41 25.5t-18 49.5q0 20 28 20q9 0 27.5 -4t27.5 -4h528q8 0 23.5 7.5t23.5 7.5q20 0 40 -25t20 -46zM1436 796q0 -101 -95 -153q-76 -42 -186 -42q-95 0 -164 44q-80 51 -80 141
q0 101 99 151q77 39 188 39q88 0 158 -45q80 -51 80 -135zM1370 491q0 -36 -31 -36q-36 0 -36 30q0 36 31 36q36 0 36 -30zM1487 367q0 -30 -34 -30q-30 0 -30 35q0 30 35 30q29 0 29 -35zM1206 531q0 -31 -30 -31q-32 0 -32 31q0 32 32 32q30 0 30 -32zM1529 208
q0 -32 -30 -32q-32 0 -32 32t32 32q30 0 30 -32zM1047 485q0 -30 -36 -30q-31 0 -31 36q0 30 36 30q31 0 31 -36zM1487 48q0 -35 -29 -35q-35 0 -35 30q0 36 29 36q35 0 35 -31zM927 372q0 -35 -30 -35q-34 0 -34 30q0 35 29 35q35 0 35 -30zM1370 -75q0 -30 -36 -30
q-31 0 -31 36q0 30 36 30q31 0 31 -36zM1419 -360l-4 -10l-10 -4l-9 4l-4 10v80l4 10l9 4l10 -4l4 -10v-80zM883 208q0 -32 -32 -32q-30 0 -30 32t30 32q32 0 32 -32zM1206 -115q0 -32 -30 -32q-32 0 -32 32q0 30 32 30q30 0 30 -30zM1047 -69q0 -36 -31 -36q-36 0 -36 30
q0 36 31 36q36 0 36 -30zM927 43q0 -30 -35 -30q-29 0 -29 35q0 31 35 31q29 0 29 -36zM1088 -309h-27v29l4 10l10 4l9 -4l4 -10v-29zM309 422l-5 -10l-10 -5l-11 5l-4 10v83l4 11l11 4l10 -4l5 -11v-83zM309 225l-5 -11l-10 -4l-11 4l-4 11v83l4 10l11 4l10 -4l5 -10v-83z
M1323 787q0 58 -56 90q-46 27 -108 27q-52 0 -94 -35t-42 -86q0 -53 52 -85q45 -28 101 -28q147 0 147 117z" />
  </g>

</svg>
