<?xml version="1.0" standalone="no"?>
<!DOCTYPE svg PUBLIC "-//W3C//DTD SVG 1.1//EN" "http://www.w3.org/Graphics/SVG/1.1/DTD/svg11.dtd" >
<svg viewBox="0 -419 2155 2048">
  <g transform="matrix(1 0 0 -1 0 1638)">
   <path fill="currentColor"
d="M2155 -239q0 -74 -53 -127t-127 -53h-1599q-75 0 -127.5 52.5t-52.5 127.5v1599q0 75 52.5 127.5t127.5 52.5h1599q74 0 127 -53t53 -127v-1599zM2081 978v154h-18l-32 -17v-21h16v-116h34zM1750 1365v151h-20l-68 -68l-69 68h-11v-151h22v86l54 -55l54 55v-86h38z
M1542 1365v60l-5 13l-11 5q16 9 16 29q0 44 -32 44h-68v-151h37v65h13l10 -4l4 -10v-51h36zM2107 778v22h-64q2 11 33 42.5t31 45.5q0 45 -35 45h-32q-30 0 -34 -39h21q0 17 13 17h16l10 -4l4 -11q0 -19 -32 -51.5t-32 -47.5v-19h101zM1410 1400v81q0 35 -32 35h-35
q-33 0 -33 -33v-85q0 -33 33 -33h35q32 0 32 35zM2120 634v22h-17v84h-39l-71 -86v-20h70v-50h40v50h17zM1286 1495v21h-84v-151h36v65h32v21h-32v44h48zM1170 1365v151h-34v-151h34zM2107 506v36h-101v-21h64v-14q-32 -66 -32 -84v-35h37q0 54 21 96zM1103 1365v21h-48v44
h32v21h-32v44h48v21h-84v-151h84zM986 1365v151h-21v-78l-85 78h-11v-151h21v78l86 -78h10zM2098 326v21h-84v-154h36v66h32v22h-32v45h48zM835 1400v116h-37v-116l-4 -10l-10 -4l-9 4l-4 10v116h-37v-118q0 -33 33 -33h35q33 0 33 35zM701 1402h-21q-1 -16 -14 -16h-15
l-10 4l-4 10v80l4 10l10 5h15q12 0 14 -17h21q-2 38 -35 38h-32q-34 0 -34 -35v-81q0 -35 34 -35h32q32 0 35 37zM1959 -79v1279q0 59 -42.5 101.5t-101.5 42.5h-1280q-59 0 -101.5 -42.5t-42.5 -101.5v-1279q0 -59 42.5 -101.5t101.5 -42.5h1280q59 0 101.5 42.5
t42.5 101.5zM319 978v154h-18l-32 -17v-21h15v-116h35zM1656 -360q0 25 -24 49l-8 8q-14 14 -14 26q0 5 2 8q6 4 11 4q11 0 13 -17h20q-2 38 -32 38h-19q-32 0 -32 -35q0 -26 23 -49l9 -9q14 -14 14 -25q0 -4 -2 -8q-6 -4 -11 -4q-2 0 -4 1l-5 2l-4 9v4h-20q0 -37 32 -37h19
q32 0 32 35zM1537 -395v60l-5 13l-11 5q16 9 16 29q0 44 -33 44h-67v-151h36v65h13l10 -4l4 -10v-51h37zM344 778v22h-64q2 11 33 42.5t31 45.5q0 45 -34 45h-32q-31 0 -35 -39h21q1 17 14 17h15l10 -4l4 -11q0 -19 -32 -51.5t-32 -47.5v-19h101zM1409 -395v21h-47v44h32v21
h-32v44h47v21h-83v-151h83zM353 634v22h-17v84h-38l-68 -86v-20h67v-50h39v50h17zM1295 -360q0 34 -21 41q21 8 21 32q0 43 -34 43h-66v-151h66q34 0 34 35zM349 421v85q0 36 -36 36h-39q-36 0 -36 -35v-87q0 -35 36 -35h39q36 0 36 36zM1158 -395v151h-20l-68 -68l-68 68
h-11v-151h21v86l54 -55l55 55v-86h37zM948 -360v116h-37v-116l-4 -10l-9 -4l-10 4l-4 10v116h-37v-118q0 -33 33 -33h35q33 0 33 35zM349 224v84q0 36 -36 36h-39q-36 0 -36 -34v-88q0 -34 36 -34h39q36 0 36 36zM811 -395v151h-21v-78l-86 78h-10v-151h21v78l85 -78h11z
M1506 1465l-4 -10l-10 -4h-13v44h13l10 -5l4 -10v-15zM1374 1400l-4 -10l-10 -4l-9 4l-4 10v80l4 10l9 4l10 -4l4 -10v-80zM2063 656h-45l45 54v-54zM1830 563q0 -37 -20 -37h-217q-9 -2 -63 -17q-171 -48 -320 -205h-38l-9 5q-8 14 -8 44q0 31 22 104t22 111q0 66 -27 154
q-13 41 -17 57q0 22 8 34l9 4h38q166 -171 320 -204q60 -13 63 -13h217l9 -4q11 -15 11 -33zM1195 563q0 -37 -20 -37q8 0 -115 3q-78 2 -114 -6q-123 -27 -205 -77q-72 -44 -166 -142h-37l-10 5q-8 14 -8 44q0 31 22 104t22 111q0 72 -26 154l-18 57q0 22 8 34l10 4h37
q166 -171 320 -204q60 -13 64 -13h216l10 -4q10 -15 10 -33zM1500 -295l-4 -10l-10 -4h-13v44h13l10 -5l4 -10v-15zM297 656h-42l42 53v-53zM1258 -295l-4 -10l-10 -4h-13v44h13l10 -5l4 -10v-15zM1258 -360l-4 -10l-10 -4h-13v44h14q13 0 13 -14v-16zM309 422l-5 -10
l-10 -5l-11 5l-4 10v83l4 11l11 4l10 -4l5 -11v-83zM309 225l-5 -11l-10 -4l-11 4l-4 11v83l4 10l11 4l10 -4l5 -10v-83zM1421 558v5q-43 17 -152 87v-5q0 -14 5 -41t5 -41q0 -15 -5 -46t-5 -46q48 33 152 87zM787 558v5q-43 17 -153 87v-5q0 -14 5.5 -41t5.5 -41
q0 -15 -5.5 -45.5t-5.5 -46.5q49 33 153 87z" />
  </g>

</svg>
