<?xml version="1.0" standalone="no"?>
<!DOCTYPE svg PUBLIC "-//W3C//DTD SVG 1.1//EN" "http://www.w3.org/Graphics/SVG/1.1/DTD/svg11.dtd" >
<svg viewBox="0 -419 2155 2048">
  <g transform="matrix(1 0 0 -1 0 1638)">
   <path fill="currentColor"
d="M2155 -239q0 -75 -52.5 -127.5t-127.5 -52.5h-1599q-75 0 -127.5 52.5t-52.5 127.5v1599q0 75 52.5 127.5t127.5 52.5h1599q75 0 127.5 -52.5t52.5 -127.5v-1599zM1672 1365v151h-21v-78l-86 78h-10v-151h21v78l85 -78h11zM2081 778v155h-18l-32 -18v-21h16v-116h34z
M1515 1365v116q0 35 -32 35h-36q-32 0 -32 -34v-117h36v65h28v-65h36zM1377 1365v151h-33v-151h33zM2111 619v34q0 36 -37 36h-18q-6 -2 -14 -5l-1 -1v3q0 32 53 32v21h-31q-24 0 -43 -17.5t-19 -41.5v-61q0 -36 37 -36h36q37 0 37 36zM1308 1400v81q0 35 -33 35h-68v-151
h68q33 0 33 35zM1181 1365v116q0 35 -32 35h-36q-32 0 -32 -34v-117h36v65h28v-65h36zM2107 506v36h-101v-21h64v-14q-32 -66 -32 -84v-35h37q0 54 21 96zM1054 1365v151h-21v-78l-86 78h-11v-151h21v78l86 -78h11zM2106 317v28h-102v-157h41v66h47v28h-47v35h61zM908 1365
v116q0 35 -32 35h-36q-32 0 -32 -34v-117h36v65h28v-65h36zM779 1402h-21q-2 -16 -14 -16h-15l-10 4l-4 10v80l4 10l10 4h15q12 0 14 -16h21q-2 38 -35 38h-32q-34 0 -34 -35v-81q0 -35 34 -35h32q32 0 35 37zM1959 -79v1279q0 60 -42 102t-102 42h-1280q-60 0 -102 -42
t-42 -102v-1279q0 -60 42 -102t102 -42h1280q60 0 102 42t42 102zM1683 -360q0 25 -24 49l-8 8q-14 14 -14 26q0 5 2 8q7 4 11 4q11 0 13 -17h20q-2 38 -32 38h-19q-32 0 -32 -35q0 -22 24 -49l8 -9q19 -21 12 -33q-6 -4 -10 -4q-3 0 -5 1l-5 2l-4 9v4h-20q0 -37 32 -37h19
q32 0 32 35zM1569 -358h-21q-2 -16 -14 -16h-15l-10 4l-4 10v80l4 10l10 4h15q12 0 14 -16h21q-2 38 -35 38h-32q-34 0 -34 -35v-81q0 -35 34 -35h32q32 0 35 37zM319 778v155h-18l-32 -18v-21h15v-116h35zM1438 -395v151h-33v-151h33zM1373 -360q0 34 -21 41q21 8 21 32
q0 43 -34 43h-66v-151h66q34 0 34 35zM353 634v22h-17v84h-38l-68 -86v-20h67v-50h39v50h17zM1242 -395v116q0 35 -33 35h-35q-32 0 -32 -34v-117h36v65h27v-65h37zM349 421v85q0 36 -36 36h-39q-36 0 -36 -35v-87q0 -35 36 -35h39q36 0 36 36zM1113 -395v21h-47v130h-36
v-151h83zM999 -395v21h-47v130h-36v-151h83zM349 224v84q0 36 -36 36h-39q-36 0 -36 -34v-88q0 -34 36 -34h39q36 0 36 36zM882 -295v51h-36v-51l-5 -10l-9 -4l-9 4l-5 10v51h-36v-51q0 -30 32 -35v-65h36v65q32 5 32 35zM750 -360q0 25 -24 49l-8 8q-14 14 -14 26q0 5 2 8
q7 4 11 4q11 0 13 -17h20q-2 38 -32 38h-19q-32 0 -32 -35q0 -22 24 -49l8 -9q19 -21 12 -33q-6 -4 -10 -4q-3 0 -5 1l-5 2l-4 9v4h-20q0 -37 32 -37h19q32 0 32 35zM1479 1451h-28v29l5 10l9 4l9 -4l5 -10v-29zM1271 1400l-4 -10l-10 -4h-13v108h13l10 -4l4 -10v-80z
M2071 620l-5 -11l-10 -4l-10 4l-5 11v32l5 11l10 4l10 -4l5 -11v-32zM1145 1451h-28v29l5 10l9 4l9 -4l5 -10v-29zM872 1451h-28v29l5 10l9 4l9 -4l5 -10v-29zM1804 398q0 -171 -115 -284.5t-286 -113.5q-168 0 -284 115t-116 283q0 139 73 223h-530v179h857
q169 0 285 -116.5t116 -285.5zM1336 -295l-4 -10l-10 -4h-13v43h13l10 -4l4 -10v-15zM1336 -360l-4 -10l-10 -4h-13v44h14q13 0 13 -14v-16zM297 656h-42l42 53v-53zM1205 -309h-27v29l4 10l10 4l9 -4l4 -10v-29zM309 422l-5 -10l-10 -5l-11 5l-4 10v83l4 11l11 4l10 -4
l5 -11v-83zM309 225l-5 -11l-10 -4l-11 4l-4 11v83l4 10l11 4l10 -4l5 -10v-83zM1626 398q0 96 -63.5 159.5t-159.5 63.5t-159 -63.5t-63 -159.5q0 -95 63.5 -158t158.5 -63t159 63.5t64 157.5z" />
  </g>

</svg>
