<?xml version="1.0" standalone="no"?>
<!DOCTYPE svg PUBLIC "-//W3C//DTD SVG 1.1//EN" "http://www.w3.org/Graphics/SVG/1.1/DTD/svg11.dtd" >
<svg viewBox="0 -419 2155 2048">
  <g transform="matrix(1 0 0 -1 0 1638)">
   <path fill="currentColor"
d="M2155 -239q0 -75 -52.5 -127.5t-127.5 -52.5h-1599q-75 0 -127.5 52.5t-52.5 127.5v1599q0 75 52.5 127.5t127.5 52.5h1599q75 0 127.5 -52.5t52.5 -127.5v-1599zM2081 778v155h-18l-32 -18v-21h16v-116h34zM1512 1365v151h-20l-68 -69l-69 69h-11v-151h22v86l54 -55
l54 55v-86h38zM2111 619v34q0 36 -37 36h-18q-6 -2 -14 -5l-1 -1v3q0 32 53 32v21h-31q-24 0 -43 -17.5t-19 -41.5v-61q0 -36 37 -36h36q37 0 37 36zM1320 1365v116q0 35 -33 35h-35q-32 0 -32 -34v-117h36v65h27v-65h37zM1190 1365v151h-36v-65h-27v65h-37v-151h37v65h27
v-65h36zM2112 445v61q0 36 -38 36h-35q-38 0 -38 -36v-34q0 -36 38 -36h17q10 0 15 7v-4q0 -31 -52 -31v-22h31q24 0 43 17.5t19 41.5zM1061 1400v51h-53v-21h16v-30q0 -13 -13 -14l-10 4l-4 10v80l4 10l10 4h16q12 0 13 -16h21q-2 38 -34 38h-32q-35 0 -35 -35v-81
q0 -35 35 -35h32q34 0 34 35zM939 1400v81q0 34 -33 34h-35q-33 0 -33 -33v-84q0 -33 33 -33h35q33 0 33 35zM2106 317v28h-102v-157h41v66h47v28h-47v35h61zM1959 -79v1279q0 60 -42 102t-102 42h-1280q-60 0 -102 -42t-42 -102v-1279q0 -60 42 -102t102 -42h1280
q60 0 102 42t42 102zM319 778v155h-18l-32 -18v-21h15v-116h35zM1512 -395v151h-20l-68 -69l-69 69h-11v-151h22v86l54 -55l54 55v-86h38zM349 619v34q0 36 -37 36h-18l-14 -5l-1 -1v3q0 32 53 32v21h-31q-24 0 -43 -17.5t-19 -41.5v-61q0 -36 37 -36h36q37 0 37 36z
M1320 -395v116q0 35 -33 35h-35q-32 0 -32 -34v-117h36v65h27v-65h37zM1190 -395v151h-36v-65h-27v65h-37v-151h37v65h27v-65h36zM350 421q0 36 -24 43q24 8 24 33q0 45 -38 45h-35q-38 0 -38 -36q0 -35 24 -42q-24 -9 -24 -34q0 -45 38 -45h35q38 0 38 36zM1061 -360v51
h-53v-21h16v-30q0 -13 -13 -14l-10 4l-4 10v80l4 10l10 4h16q12 0 13 -16h21q-2 38 -34 38h-32q-35 0 -35 -35v-81q0 -35 35 -35h32q34 0 34 35zM939 -360v81q0 34 -33 34h-35q-33 0 -33 -33v-84q0 -33 33 -33h35q33 0 33 35zM349 224v84q0 36 -36 36h-39q-36 0 -36 -34v-88
q0 -34 36 -34h39q36 0 36 36zM1283 1451h-27v29l4 10l10 4l9 -4l4 -10v-29zM2071 620l-5 -11l-10 -4l-10 4l-5 11v32l5 11l10 4l10 -4l5 -11v-32zM2071 473l-4 -10l-11 -5l-10 5l-5 10v33l5 10l10 4l11 -4l4 -10v-33zM902 1400l-4 -10l-10 -4l-9 4l-4 10v80l4 10l9 4l10 -4
l4 -10v-80zM1916 551h-229l-172 -472h-121l173 472h-103l-171 -472h-122l173 472h-103l-171 -472h-122l173 472h-102l-172 -472h-121l172 472h-102l-172 -472h-121l172 472h-241v30h253l168 463h120l-168 -463h102l169 463h120l-168 -463h102l168 463h121l-169 -463h103
l168 463h120l-168 -463h103l168 463h120l-168 -463h218v-30zM1283 -309h-27v29l4 10l10 4l9 -4l4 -10v-29zM309 620l-5 -11l-10 -4l-10 4l-5 11v32l5 11l10 4l10 -4l5 -11v-32zM310 489l-5 -10l-11 -4l-10 4l-5 10v16l5 11l10 4l11 -4l5 -11v-16zM310 422l-5 -10l-11 -5
l-10 5l-5 10v16q0 15 15 15q16 0 16 -15v-16zM902 -360l-4 -10l-10 -4l-9 4l-4 10v80l4 10l9 4l10 -4l4 -10v-80zM309 225l-5 -11l-10 -4l-11 4l-4 11v83l4 10l11 4l10 -4l5 -10v-83z" />
  </g>

</svg>
