<?xml version="1.0" standalone="no"?>
<!DOCTYPE svg PUBLIC "-//W3C//DTD SVG 1.1//EN" "http://www.w3.org/Graphics/SVG/1.1/DTD/svg11.dtd" >
<svg viewBox="0 -419 2154 2048">
  <g transform="matrix(1 0 0 -1 0 1638)">
   <path fill="currentColor"
d="M2154 -239q0 -74 -53 -127t-127 -53h-1598q-74 0 -127 53t-53 127v1599q0 74 53 127t127 53h1598q74 0 127 -53t53 -127v-1599zM2081 778v155h-18l-32 -18v-21h16v-116h34zM1468 1402h-21q-2 -16 -14 -16h-15l-10 4l-4 10v80l4 10l10 4h15q12 0 14 -16h21q-2 37 -35 37
h-32q-34 0 -34 -35v-81q0 -34 34 -34h32q32 0 35 37zM1337 1365v150h-33v-150h33zM2111 619v34q0 36 -37 36h-18q-6 -2 -14 -5l-1 -1v3q0 32 53 32v21h-31q-24 0 -43 -17.5t-19 -41.5v-61q0 -36 37 -36h36q37 0 37 36zM1266 1365v151h-21v-78l-85 78h-11v-151h21v78l86 -78
h10zM2098 521v21h-84v-154h36v66h32v22h-32v45h48zM1114 1400v116h-36v-116l-4 -10l-10 -4l-9 4l-4 10v116h-37v-118q0 -33 33 -33h35q32 0 32 35zM983 1365v60l-5 13l-12 5q17 8 17 29q0 43 -33 43l-68 1v-151h37v65h13l10 -4l4 -11v-50h37zM2106 317v28h-102v-157h41v66
h47v28h-47v35h61zM1959 -79v1279q0 59 -42.5 101.5t-101.5 42.5h-1280q-59 0 -101.5 -42.5t-42.5 -101.5v-1279q0 -59 42.5 -101.5t101.5 -42.5h1280q59 0 101.5 42.5t42.5 101.5zM319 778v155h-18l-32 -18v-21h15v-116h35zM1468 -358h-21q-2 -16 -14 -16h-15l-10 4l-4 10
v80l4 10l10 4h15q12 0 14 -16h21q-2 37 -35 37h-32q-34 0 -34 -35v-81q0 -34 34 -34h32q32 0 35 37zM1337 -395v150h-33v-150h33zM349 619v34q0 36 -37 36h-18q-6 -2 -14 -5l-1 -1v3q0 32 53 32v21h-31q-24 0 -43 -17.5t-19 -41.5v-61q0 -36 37 -36h36q37 0 37 36z
M1266 -395v151h-21v-78l-85 78h-11v-151h21v78l86 -78h10zM349 385v121q0 36 -36 36h-38q-36 0 -36 -35v-122h40v68h30v-68h40zM1114 -360v116h-36v-116l-4 -10l-10 -4l-9 4l-4 10v116h-37v-118q0 -33 33 -33h35q32 0 32 35zM983 -395v60l-5 13l-12 5q17 8 17 29
q0 43 -33 43l-68 1v-151h37v65h13l10 -4l4 -11v-50h37zM349 224v84q0 36 -36 36h-39q-36 0 -36 -34v-88q0 -34 36 -34h39q36 0 36 36zM2071 620l-5 -11l-10 -4l-10 4l-5 11v32l5 11l10 4l10 -4l5 -11v-32zM946 1465l-4 -10l-10 -4h-13v43h13l10 -4l4 -10v-15zM1547 1130
q-5 -11 -11 -32q-72 -231 -239 -383q-140 -127 -391 -232v-492h-103v1139h103v-297q19 1 74 37q52 34 70 53q102 107 151 207h105q-115 -310 -400 -412v-119q130 33 281 160.5t204 250.5q13 31 51 120h105zM309 620l-5 -11l-10 -4l-10 4l-5 11v32l5 11l10 4l10 -4l5 -11v-32
zM309 475h-30v30l5 11l10 4l10 -4l5 -11v-30zM946 -295l-4 -10l-10 -4h-13v43h13l10 -4l4 -10v-15zM309 225l-5 -11l-10 -4l-11 4l-4 11v83l4 10l11 4l10 -4l5 -10v-83z" />
  </g>

</svg>
