<?xml version="1.0" standalone="no"?>
<!DOCTYPE svg PUBLIC "-//W3C//DTD SVG 1.1//EN" "http://www.w3.org/Graphics/SVG/1.1/DTD/svg11.dtd" >
<svg viewBox="0 -419 2155 2048">
  <g transform="matrix(1 0 0 -1 0 1638)">
   <path fill="currentColor"
d="M2155 -239q0 -75 -52.5 -127.5t-127.5 -52.5h-1599q-75 0 -127.5 52.5t-52.5 127.5v1599q0 75 52.5 127.5t127.5 52.5h1599q75 0 127.5 -52.5t52.5 -127.5v-1599zM1604 1400v51h-52v-21h16v-30q0 -13 -14 -14l-10 4l-4 10v80l4 10l10 4h16q12 0 14 -16h20q-2 38 -34 38
h-32q-34 0 -34 -35v-81q0 -35 34 -35h32q34 0 34 35zM2081 778v155h-18l-32 -18v-21h16v-116h34zM1482 1400v81q0 34 -33 34h-35q-32 0 -32 -33v-84q0 -33 32 -33h35q33 0 33 35zM1352 1365v21h-47v130h-36v-151h83zM2107 702v36h-101v-22h64v-13q-32 -66 -32 -84v-36h37
q0 53 32 119zM1235 1365v116q0 35 -33 35h-35q-32 0 -32 -34v-117h36v65h27v-65h37zM2081 388v154h-18l-32 -17v-21h16v-116h34zM1102 1400v51h-53v-21h16v-30q0 -13 -13 -14l-10 4l-4 10v80l4 10l10 4h16q12 0 13 -16h21q-2 38 -34 38h-32q-34 0 -34 -35v-81q0 -35 34 -35
h32q34 0 34 35zM970 1365v116q0 35 -33 35h-35q-32 0 -32 -34v-117h36v65h27v-65h37zM2106 317v28h-102v-157h41v66h47v28h-47v35h61zM846 1494v22h-100v-22h32v-129h36v129h32zM1959 -79v1279q0 59 -42.5 101.5t-101.5 42.5h-1280q-59 0 -101.5 -42.5t-42.5 -101.5v-1279
q0 -59 42.5 -101.5t101.5 -42.5h1280q59 0 101.5 42.5t42.5 101.5zM1604 -360v51h-52v-21h16v-30q0 -13 -14 -14l-10 4l-4 10v80l4 10l10 4h16q12 0 14 -16h20q-2 38 -34 38h-32q-34 0 -34 -35v-81q0 -34 25 -34q9 0 57 3q18 10 18 31zM319 778v155h-18l-32 -18v-21h15v-116
h35zM1482 -360v81q0 34 -33 34h-35q-32 0 -32 -33v-84q0 -33 32 -33h35q33 0 33 35zM1352 -395v21h-47v130h-36v-151h83zM344 702v36h-101v-22h64v-13q-32 -66 -32 -84v-36h37q0 53 32 119zM1235 -395v116q0 35 -33 35h-35q-32 0 -32 -34v-117h36v65h27v-65h37zM349 421v85
q0 36 -36 36h-39q-36 0 -36 -35v-87q0 -35 36 -35h39q36 0 36 36zM1102 -360v51h-53v-21h16v-30q0 -13 -13 -14l-10 4l-4 10v80l4 10l10 4h16q12 0 13 -16h21q-2 38 -34 38h-32q-34 0 -34 -35v-81q0 -35 34 -35h32q34 0 34 35zM970 -395v116q0 35 -33 35h-35q-32 0 -32 -34
v-117h36v65h27v-65h37zM349 224v84q0 36 -36 36h-39q-36 0 -36 -34v-88q0 -34 36 -34h39q36 0 36 36zM846 -266v22h-100v-22h32v-126l36 -2v128h32zM1445 1400l-4 -10l-9 -4l-10 4l-4 10v80l4 10l10 4l9 -4l4 -10v-80zM1198 1451h-27v29l4 10l10 4l9 -4l4 -10v-29zM933 1451
h-27v29l4 10l10 4l9 -4l4 -10v-29zM1869 125q0 -64 -42 -64q-66 0 -79 96q-13 100 -167 151q-114 38 -243 38q-108 0 -320 -43t-320 -43q-68 0 -129 18q-88 26 -88 77q0 24 18 43.5t42 19.5q15 0 72.5 -18.5t89.5 -18.5q104 0 231 26l227 47v211l-56 -1q-214 -4 -381 84
q-207 109 -207 311q0 58 62 58q44 0 57 -49q9 -34 34 -100q97 -187 426 -187q117 0 295 14q47 3 170 11q100 8 157 52q22 17 41 17q24 0 42.5 -19t18.5 -43q0 -22 -20 -43q-62 -65 -187 -74q-58 -1 -210 -12l-122 -12v-204l50 1q203 4 350 -68q188 -92 188 -276zM1445 -360
l-4 -10l-9 -4l-10 4l-4 10v80l4 10l10 4l9 -4l4 -10v-80zM1198 -309h-27v29l4 10l10 4l9 -4l4 -10v-29zM309 422l-5 -10l-10 -5l-11 5l-4 10v83l4 11l11 4l10 -4l5 -11v-83zM933 -309h-27v29l4 10l10 4l9 -4l4 -10v-29zM309 225l-5 -11l-10 -4l-11 4l-4 11v83l4 10l11 4
l10 -4l5 -10v-83z" />
  </g>

</svg>
