<?xml version="1.0" standalone="no"?>
<!DOCTYPE svg PUBLIC "-//W3C//DTD SVG 1.1//EN" "http://www.w3.org/Graphics/SVG/1.1/DTD/svg11.dtd" >
<svg viewBox="0 -419 2155 2048">
  <g transform="matrix(1 0 0 -1 0 1638)">
   <path fill="currentColor"
d="M2155 -239q0 -75 -52.5 -127.5t-127.5 -52.5h-1599q-75 0 -127.5 52.5t-52.5 127.5v1599q0 75 52.5 127.5t127.5 52.5h1599q75 0 127.5 -52.5t52.5 -127.5v-1599zM1723 1365v116q0 35 -32 35h-35q-33 0 -33 -34v-117h37v65h27v-65h36zM1592 1423v93h-37v-116l-5 -10
l-10 -4h-13v130h-37v-116l-5 -10l-10 -4h-13v130h-37v-151q56 0 65 4v-4h44q58 0 58 58zM2081 778v155h-18l-32 -18v-21h16v-116h34zM1393 1365v151h-21v-78l-86 78h-10v-151h21v78l85 -78h11zM2107 702v36h-101v-22h64v-13q-32 -66 -32 -84v-36h37q0 55 21 97zM1245 1365
v116q0 35 -32 35h-35q-33 0 -33 -34v-117h37v65h27v-65h36zM2107 506v36h-101v-21h64v-14q-32 -66 -32 -84v-35h37q0 54 21 96zM1111 1400q0 34 -21 41q21 8 21 32q0 43 -34 43h-66v-151h66q34 0 34 35zM983 1400v51h-53v-21h16v-30q0 -13 -13 -14l-10 4l-4 10v80l4 10l10 4
h16q12 0 13 -16h21q-2 38 -34 38h-32q-34 0 -34 -35v-81q0 -35 34 -35h32q34 0 34 35zM2106 317v28h-102v-157h41v66h47v28h-47v35h61zM851 1365v116q0 35 -33 35h-35q-33 0 -33 -34v-117h37v65h27v-65h37zM727 1494v22h-100v-22h32v-129h36v129h32zM1959 -79v1279
q0 59 -42.5 101.5t-101.5 42.5h-1280q-59 0 -101.5 -42.5t-42.5 -101.5v-1279q0 -59 42.5 -101.5t101.5 -42.5h1280q59 0 101.5 42.5t42.5 101.5zM1723 -395v116q0 35 -32 35h-35q-33 0 -33 -34v-117h37v65h27v-65h36zM1592 -337v93h-37v-116l-5 -10l-10 -4h-13v130h-37
v-116l-5 -10l-10 -4h-13v130h-37v-151q56 0 65 4v-4h44q58 0 58 58zM319 778v155h-18l-32 -18v-21h15v-116h35zM1393 -395v151h-21v-78l-86 78h-10v-151h21v78l85 -78h11zM344 702v36h-101v-22h64v-13q-32 -66 -32 -84v-36h37q0 55 21 97zM1245 -395v116q0 35 -32 35h-35
q-33 0 -33 -34v-117h37v65h27v-65h36zM349 422v33q0 37 -37 37h-18q-6 -2 -14 -5l-1 -2v4q0 31 53 31v22h-31q-24 0 -43 -17.5t-19 -41.5v-61q0 -36 37 -36h36q37 0 37 36zM1111 -360q0 34 -21 41q21 8 21 32q0 43 -34 43h-66v-151h66q34 0 34 35zM983 -360v51h-53v-21h16
v-30q0 -13 -13 -14l-10 4l-4 10v80l4 10l10 4h16q12 0 13 -16h21q-2 38 -34 38h-32q-34 0 -34 -35v-81q0 -35 34 -35h32q34 0 34 35zM349 224v84q0 36 -36 36h-39q-36 0 -36 -34v-88q0 -34 36 -34h39q36 0 36 36zM851 -395v116q0 35 -33 35h-35q-33 0 -33 -34v-117h37v65h27
v-65h37zM727 -266v22h-100v-22h32v-129h36v129h32zM1687 1451h-27v29l4 10l9 4l10 -4l4 -10v-29zM1209 1451h-27v29l4 10l9 4l10 -4l4 -10v-29zM1075 1465l-4 -10l-10 -4h-13v43h13l10 -4l4 -10v-15zM1075 1400l-4 -10l-10 -4h-13v44h13q14 0 14 -14v-16zM814 1451h-27v29
l4 10l10 4l9 -4l4 -10v-29zM1727 261l-61 -104q-309 180 -577 406q-200 -261 -332 -581l-111 46q140 338 353 614q-239 216 -376 420l100 67q127 -190 351 -393q154 183 423 435l82 -88q-265 -247 -415 -426q261 -220 563 -396zM1687 -309h-27v29l4 10l9 4l10 -4l4 -10v-29z
M1209 -309h-27v29l4 10l9 4l10 -4l4 -10v-29zM1075 -295l-4 -10l-10 -4h-13v43h13l10 -4l4 -10v-15zM309 422l-5 -10l-10 -4l-10 4l-5 10v33l5 10l10 4l10 -4l5 -10v-33zM1075 -360l-4 -10l-10 -4h-13v44h13q14 0 14 -14v-16zM309 225l-5 -11l-10 -4l-11 4l-4 11v83l4 10
l11 4l10 -4l5 -10v-83zM814 -309h-27v29l4 10l10 4l9 -4l4 -10v-29z" />
  </g>

</svg>
