<?xml version="1.0" standalone="no"?>
<!DOCTYPE svg PUBLIC "-//W3C//DTD SVG 1.1//EN" "http://www.w3.org/Graphics/SVG/1.1/DTD/svg11.dtd" >
<svg viewBox="0 -419 2154 2048">
  <g transform="matrix(1 0 0 -1 0 1638)">
   <path fill="currentColor"
d="M2154 -239q0 -74 -53 -127t-127 -53h-1598q-74 0 -127 53t-53 127v1599q0 74 53 127t127 53h1598q74 0 127 -53t53 -127v-1599zM1529 1365v60l-6 13l-11 5q17 8 17 29q0 44 -33 44h-68v-151h37v65h13l10 -4l4 -11v-50h37zM2081 778v155h-18l-32 -18v-21h16v-116h34z
M1395 1365v21h-47v44h31v21h-31v43h47v22h-84v-151h84zM2107 702v36h-101v-22h64v-13q-32 -66 -32 -84v-36h37q0 53 32 119zM1278 1365v151h-20l-68 -69l-69 69h-11v-151h21v86l55 -55l54 55v-86h38zM2098 521v21h-84v-154h36v66h32v22h-32v45h48zM1072 1365v151h-36v-65
h-28v65h-36v-151h36v65h28v-65h36zM941 1365l-66 75l66 76h-34l-49 -56v56h-37v-151h37v53l45 -53h38zM2106 317v28h-102v-157h41v66h47v28h-47v35h61zM1959 -79v1279q0 59 -42.5 101.5t-101.5 42.5h-1280q-59 0 -101.5 -42.5t-42.5 -101.5v-1279q0 -59 42.5 -101.5
t101.5 -42.5h1280q59 0 101.5 42.5t42.5 101.5zM1529 -395v60l-6 13l-11 5q17 8 17 29q0 44 -33 44h-68v-151h37v65h13l10 -4l4 -11v-50h37zM319 778v155h-18l-32 -18v-21h15v-116h35zM1395 -395v21h-47v44h31v21h-31v43h47v22h-84v-151h84zM344 702v36h-101v-22h64v-13
q-32 -66 -32 -84v-36h37q0 53 32 119zM1278 -395v151h-20l-68 -69l-69 69h-11v-151h21v86l55 -55l54 55v-86h38zM350 421q0 36 -24 43q24 8 24 33q0 45 -38 45h-35q-38 0 -38 -36q0 -35 24 -42q-24 -9 -24 -34q0 -45 38 -45h35q38 0 38 36zM1072 -395v151h-36v-65h-28v65
h-36v-151h36v65h28v-65h36zM941 -395l-66 75l66 76h-34l-49 -56v56h-37v-151h37v53l45 -53h38zM349 224v84q0 36 -36 36h-39q-36 0 -36 -34v-88q0 -34 36 -34h39q36 0 36 36zM1492 1465l-4 -10l-10 -4h-13v43h13l10 -4l4 -10v-15zM1622 955q0 -18 -46 -38q-41 -18 -63 -18
q-10 0 -60.5 42t-62.5 42q-18 0 -98 -56.5t-94 -56.5q-9 0 -118.5 68.5t-137.5 68.5q-66 0 -66 -54l30 -46q29 -44 29 -75q0 -51 -32 -51q-28 0 -89 44q-27 20 -86 64q12 86 105 166.5t180 80.5q28 0 103 -53q35 -25 102 -73l207 129q29 -6 113 -82.5t84 -101.5zM1563 -18
h-143v625q0 63 -248 63q-288 0 -288 -65v-623h-142v660q0 73 162 114q122 31 218 27q183 -7 245 -18q196 -34 196 -125v-658zM1492 -295l-4 -10l-10 -4h-13v43h13l10 -4l4 -10v-15zM310 489l-5 -10l-11 -4l-10 4l-5 10v16l5 11l10 4l11 -4l5 -11v-16zM310 422l-5 -10l-11 -5
l-10 5l-5 10v16q0 15 15 15q16 0 16 -15v-16zM309 225l-5 -11l-10 -4l-11 4l-4 11v83l4 10l11 4l10 -4l5 -10v-83z" />
  </g>

</svg>
