<?xml version="1.0" standalone="no"?>
<!DOCTYPE svg PUBLIC "-//W3C//DTD SVG 1.1//EN" "http://www.w3.org/Graphics/SVG/1.1/DTD/svg11.dtd" >
<svg viewBox="0 -419 2155 2048">
  <g transform="matrix(1 0 0 -1 0 1638)">
   <path fill="currentColor"
d="M2155 -239q0 -74 -53 -127t-127 -53h-1599q-75 0 -127.5 52.5t-52.5 127.5v1599q0 75 52.5 127.5t127.5 52.5h1599q74 0 127 -53t53 -127v-1599zM2081 778v155h-18l-32 -18v-21h16v-116h34zM1487 1400v116h-37v-116l-4 -10l-9 -4l-10 4l-4 10v116h-37v-118q0 -33 33 -33
h35q33 0 33 35zM1350 1400q0 34 -21 41q21 8 21 32q0 43 -34 43h-67v-151h67q34 0 34 35zM2112 643v61q0 36 -38 36h-35q-38 0 -38 -36v-34q0 -36 38 -36h17q10 0 15 6v-4q0 -31 -52 -31v-22h31q24 0 43 18t19 42zM1213 1365v151h-20l-68 -69l-69 69h-11v-151h22v86l54 -55
l54 55v-86h38zM2120 436v22h-17v84h-39l-71 -86v-20h70v-51h40v51h17zM1012 1365v151h-34v-151h34zM947 1365v21h-47v130h-37v-151h84zM2106 317v28h-102v-157h41v66h47v28h-47v35h61zM1959 -79v1279q0 59 -42.5 101.5t-101.5 42.5h-1280q-59 0 -101.5 -42.5t-42.5 -101.5
v-1279q0 -59 42.5 -101.5t101.5 -42.5h1280q59 0 101.5 42.5t42.5 101.5zM319 778v155h-18l-32 -18v-21h15v-116h35zM1487 -360v116h-37v-116l-4 -10l-9 -4l-10 4l-4 10v116h-37v-118q0 -33 33 -33h35q33 0 33 35zM1350 -360q0 34 -21 41q21 8 21 32q0 43 -34 43h-67v-151
h67q34 0 34 35zM349 643v61q0 36 -38 36h-35q-38 0 -38 -36v-34q0 -36 38 -36h18q9 0 14 6v-4q0 -31 -52 -31v-22h31q24 0 43 18t19 42zM1213 -395v151h-20l-68 -69l-69 69h-11v-151h22v86l54 -55l54 55v-86h38zM349 421v85q0 36 -36 36h-39q-36 0 -36 -35v-87q0 -35 36 -35
h39q36 0 36 36zM1012 -395v151h-34v-151h34zM947 -395v21h-47v130h-37v-151h84zM349 224v84q0 36 -36 36h-39q-36 0 -36 -34v-88q0 -34 36 -34h39q36 0 36 36zM1313 1465l-4 -10l-10 -4h-13v43h13l10 -4l4 -10v-15zM2071 670l-4 -10l-11 -4l-10 4l-5 10v33l5 10l10 5l11 -5
l4 -10v-33zM1313 1400l-4 -10l-10 -4h-13v44h14q13 0 13 -14v-16zM2063 458h-45l45 53v-53zM1725 -16h-1096q246 620 691 1003h-695v150h1095l-1 -6q-62 -36 -243 -192q-437 -377 -615 -821h12q9 1 13 1l839 -1v-134zM1313 -295l-4 -10l-10 -4h-13v43h13l10 -4l4 -10v-15z
M309 670l-5 -10l-10 -4l-11 4l-4 10v33l4 10l11 5l10 -5l5 -10v-33zM1313 -360l-4 -10l-10 -4h-13v44h14q13 0 13 -14v-16zM309 422l-5 -10l-10 -5l-11 5l-4 10v83l4 11l11 4l10 -4l5 -11v-83zM309 225l-5 -11l-10 -4l-11 4l-4 11v83l4 10l11 4l10 -4l5 -10v-83z" />
  </g>

</svg>
