<?xml version="1.0" standalone="no"?>
<!DOCTYPE svg PUBLIC "-//W3C//DTD SVG 1.1//EN" "http://www.w3.org/Graphics/SVG/1.1/DTD/svg11.dtd" >
<svg viewBox="0 -442 2048 2048">
  <g transform="matrix(1 0 0 -1 0 1606)">
   <path fill="currentColor"
d="M1258 285h-46q-94 0 -135 63q-38 68 -75 135q-32 42 -110 42q-27 0 -41 -1l-490 -35h-12q-217 0 -272 62q-27 30 -27 107q0 55 21 116q25 71 64 93l169 -77q-50 -148 -50 -165q0 -27 42 -43q32 -13 64 -13q6 0 15 2l737 157q49 -13 76 -43q29 -33 51 -124q19 -80 19 -137
v-139z" />
  </g>

</svg>
