<?xml version="1.0" standalone="no"?>
<!DOCTYPE svg PUBLIC "-//W3C//DTD SVG 1.1//EN" "http://www.w3.org/Graphics/SVG/1.1/DTD/svg11.dtd" >
<svg viewBox="0 -442 2048 2048">
  <g transform="matrix(1 0 0 -1 0 1606)">
   <path fill="currentColor"
d="M548 1203q0 -119 -122 -198q-107 -69 -233 -69q-25 0 -52 11q-33 13 -33 35q0 23 104.5 60.5t104.5 96.5q0 31 -25 61.5t-25 61.5q0 47 43 76q37 24 87 24q151 0 151 -159zM571 702q0 -138 -135 -208q-106 -55 -258 -55q-96 0 -96 44q0 30 139 76.5t139 98.5
q0 18 -32.5 65t-32.5 74q0 83 134 83q142 0 142 -178zM659 191q0 -183 -188 -301q-164 -103 -358 -103q-63 0 -63 24q0 23 107 64q153 58 200 84q107 59 107 127q0 29 -47 33q-71 7 -86 14q-47 21 -47 90q0 66 71 115q65 44 134 44q170 0 170 -191z" />
  </g>

</svg>
