<?xml version="1.0" standalone="no"?>
<!DOCTYPE svg PUBLIC "-//W3C//DTD SVG 1.1//EN" "http://www.w3.org/Graphics/SVG/1.1/DTD/svg11.dtd" >
<svg viewBox="0 -442 2048 2048">
  <g transform="matrix(1 0 0 -1 0 1606)">
   <path fill="currentColor"
d="M1136 1104q0 -50 -52 -85q-58 37 -142 105q-128 104 -161 126q-105 70 -184 70q-148 0 -243 -78q-47 -38 -119 -145q-53 -78 -96 -78q-27 0 -58 38.5t-31 66.5q0 66 113 167q92 82 175 124q151 76 276 76q98 0 201 -44q90 -38 198 -144q123 -119 123 -199z" />
  </g>

</svg>
