<?xml version="1.0" standalone="no"?>
<!DOCTYPE svg PUBLIC "-//W3C//DTD SVG 1.1//EN" "http://www.w3.org/Graphics/SVG/1.1/DTD/svg11.dtd" >
<svg viewBox="0 -442 2048 2048">
  <g transform="matrix(1 0 0 -1 0 1606)">
   <path fill="currentColor"
d="M1609 2q-334 280 -990 853q-39 33 -109 104q-21 25 -60 144q89 27 102 27q21 0 74 -23t65 -39q2 -8 8 -23q10 -23 29 -49q53 -74 216 -234q106 -104 372 -353q71 -62 142 -123q97 -85 123 -131q17 -28 21 -75q4 -39 7 -78zM1208 11q-254 201 -757 608q-93 77 -242 206
q-33 26 -92 84q-23 28 -67 162q81 24 110 24q62 0 102 -38q15 -14 66 -89q60 -88 166 -187q93 -83 187 -167l507 -459q20 -110 20 -144z" />
  </g>

</svg>
