<?xml version="1.0" standalone="no"?>
<!DOCTYPE svg PUBLIC "-//W3C//DTD SVG 1.1//EN" "http://www.w3.org/Graphics/SVG/1.1/DTD/svg11.dtd" >
<svg viewBox="0 -442 2048 2048">
  <g transform="matrix(1 0 0 -1 0 1606)">
   <path fill="currentColor"
d="M1365 591q0 -42 -33 -97q-37 -59 -76 -59q-1 0 -71 49.5t-128 49.5h-167q-6 -73 -13 -146q-11 -111 -32 -127q-17 -13 -60 -13q-80 0 -108 50q-18 32 -22 114q-3 89 -16 122h-259q-34 0 -104 -65.5t-112 -65.5q-47 0 -79 27q-35 28 -35 74q0 128 225 128q12 0 374 -9
q15 72 15 145q0 17 -8 49.5t-8 49.5q0 29 16 50q106 0 166 -95q50 -80 53 -194q12 -6 30 -6t98 12l181 27q80 12 88 12q85 0 85 -82z" />
  </g>

</svg>
