<?xml version="1.0" standalone="no"?>
<!DOCTYPE svg PUBLIC "-//W3C//DTD SVG 1.1//EN" "http://www.w3.org/Graphics/SVG/1.1/DTD/svg11.dtd" >
<svg viewBox="0 -442 2048 2048">
  <g transform="matrix(1 0 0 -1 0 1606)">
   <path fill="currentColor"
d="M1537 820q0 -121 -308 -334q-190 -131 -428 -255q-148 -77 -172 -77q-19 0 -54.5 21t-35.5 38q0 10 44 31q193 92 394 219q289 182 289 267q0 46 -75 55q-54 6 -61 10q-23 11 -23 55q0 47 55 73q77 36 153 36q85 0 144 -27q78 -37 78 -112zM1029 865q0 -214 -737 -592
q-148 -76 -165 -76q-15 0 -46 19.5t-31 32.5q0 9 8 15q12 9 87 50q243 135 277 155q160 97 254 186q88 84 88 126q0 59 -111 59q-36 0 -42 16.5t-6 40.5q0 101 209 101q215 0 215 -133z" />
  </g>

</svg>
