<?xml version="1.0" standalone="no"?>
<!DOCTYPE svg PUBLIC "-//W3C//DTD SVG 1.1//EN" "http://www.w3.org/Graphics/SVG/1.1/DTD/svg11.dtd" >
<svg viewBox="0 -442 2152 2048">
  <g transform="matrix(1 0 0 -1 0 1606)">
   <path fill="currentColor"
d="M2152 822q0 -31 -7 -47q-15 -36 -121 -127q-88 -77 -276 -216q-287 -182 -636 -182q-250 0 -509 116q-244 110 -434 293q-44 41 -109 124q-10 19 -10 62q57 36 173 36q31 0 53 -14q46 -39 137 -115q214 -179 355 -256q210 -114 418 -114q268 0 533 175q185 122 426 379
q0 -20 3.5 -58t3.5 -56z" />
  </g>

</svg>
