<?xml version="1.0" standalone="no"?>
<!DOCTYPE svg PUBLIC "-//W3C//DTD SVG 1.1//EN" "http://www.w3.org/Graphics/SVG/1.1/DTD/svg11.dtd" >
<svg viewBox="0 -442 2048 2048">
  <g transform="matrix(1 0 0 -1 0 1606)">
   <path fill="currentColor"
d="M974 590q0 -45 -44 -45h-176q-30 -148 -93 -248q-77 -123 -179 -123q-97 0 -141 116q-31 82 -31 198q0 29 3 57h-82q-22 0 -22 -14q0 -4 3 -12.5t3 -12.5q0 -38 -40 -38q-59 0 -94 49q-31 44 -31 106h276q30 148 93 248q77 123 179 123q97 0 141 -116q31 -82 31 -198
q0 -29 -3 -57h173q34 0 34 -33zM660 678q0 164 -80 164q-95 0 -142 -219h218q4 34 4 55zM643 545h-218q-3 -26 -3 -49q0 -170 80 -170q95 0 141 219z" />
  </g>

</svg>
