<?xml version="1.0" standalone="no"?>
<!DOCTYPE svg PUBLIC "-//W3C//DTD SVG 1.1//EN" "http://www.w3.org/Graphics/SVG/1.1/DTD/svg11.dtd" >
<svg viewBox="0 -442 2048 2048">
  <g transform="matrix(1 0 0 -1 0 1606)">
   <path fill="currentColor"
d="M1780 872q0 -31 -34 -99q-39 -78 -136 -144q-86 -58 -182 -85q-179 -50 -469 -50q-31 0 -91.5 7t-91.5 7q-78 0 -117 -19q-11 -5 -20 -18q-5 -69 -52 -134q-52 -72 -117 -72q-52 0 -52 80q0 46 20 73q25 27 50 55q7 11 20 26q16 11 16 17q0 72 -27 142q-34 87 -129 87
q-14 0 -67.5 -15t-69.5 -23q-3 -117 -71 -117q-36 0 -73 42.5t-37 79.5q0 67 117 116q97 41 176 41q221 0 277 -295q175 34 243 34q46 0 136.5 -9t136.5 -9h64q241 0 384 212q14 28 47 70q37 30 149 29v-29z" />
  </g>

</svg>
