<?xml version="1.0" standalone="no"?>
<!DOCTYPE svg PUBLIC "-//W3C//DTD SVG 1.1//EN" "http://www.w3.org/Graphics/SVG/1.1/DTD/svg11.dtd" >
<svg viewBox="0 -442 2048 2048">
  <g transform="matrix(1 0 0 -1 0 1606)">
   <path fill="currentColor"
d="M1609 1005q-133 -148 -267 -297q-195 -208 -344 -321q-199 -150 -339 -150q-175 0 -197 214q-50 -98 -87 -141q-63 -73 -141 -73q-93 0 -142 82q-42 68 -42 167q0 63 22 219q25 178 47 193q48 32 110 32q5 0 50 -7v-30q0 -9 -20 -79q-55 -191 -55 -315q0 -162 62 -162
q51 0 149 181q12 23 31 52q29 28 56 28q67 0 127 -10q-15 -61 -15 -102q0 -149 105 -149q134 0 461 276q214 196 429 392z" />
  </g>

</svg>
