<?xml version="1.0" standalone="no"?>
<!DOCTYPE svg PUBLIC "-//W3C//DTD SVG 1.1//EN" "http://www.w3.org/Graphics/SVG/1.1/DTD/svg11.dtd" >
<svg viewBox="0 -442 2536 2048">
  <g transform="matrix(1 0 0 -1 0 1606)">
   <path fill="currentColor"
d="M2536 72q-34 -19 -64 -19q-88 0 -120 124q-58 -107 -146 -107q-108 0 -138 64l-12 56q-9 44 -22 44q-3 0 -77 -44q-78 -46 -92 -52q-71 -29 -166 -29q-8 0 -16 1l-561 74q-112 0 -358 -33q-119 -16 -137 -16h-115q-18 14 -18 43q0 8 5 52q4 75 13 226h-271q47 -45 47 -82
q0 -63 -87 -157.5t-151 -103.5q3 29 70 116q64 85 64 127q0 28 -32 63q-28 31 -58 44q8 26 18 80h405v547h172l311 -615v-51l-366 24v-216q71 12 213 32q99 11 199 11q94 0 281 -13t281 -13q147 0 260 40q160 56 160 174q0 173 -309 173q-64 0 -138 -56q48 -35 48 -48
q0 -62 -65 -62q-59 0 -120 68q-12 112 -12 92q0 70 137 108q97 26 196 26q165 0 272 -61q132 -76 132 -229q0 -33 -15 -97t-15 -97q0 -78 54 -78q42 0 70 79q20 59 22 115q24 10 34 10q14 0 37 -8q29 -10 36 -12q45 -106 144 -314zM860 513l-226 465v-433q75 -12 226 -32z
" />
  </g>

</svg>
