<?xml version="1.0" standalone="no"?>
<!DOCTYPE svg PUBLIC "-//W3C//DTD SVG 1.1//EN" "http://www.w3.org/Graphics/SVG/1.1/DTD/svg11.dtd" >
<svg viewBox="0 -442 2121 2048">
  <g transform="matrix(1 0 0 -1 0 1606)">
   <path fill="currentColor"
d="M2121 1173q0 -215 -131 -384q-142 -182 -351 -182q-14 0 -39 8t-38 8l-8 -6q-29 -105 -119 -161q-84 -53 -197 -53q-50 0 -114 25q-10 -4 -36 -60q-27 -59 -78 -90q-77 -46 -223 -46q-64 0 -128 32h-1q-6 0 -9 -5q-24 -126 -136 -192q-97 -57 -234 -57q-229 0 -229 135
q0 28 24 50q22 19 45 37q46 -124 212 -124q89 0 157.5 59.5t68.5 146.5q0 -2 -29 47t-29 104v43q27 11 80 32q16 -57 60 -164q34 -62 159 -62q85 0 131 48q34 35 68 126q-67 58 -67 150q0 17 2 33q15 11 112 58q29 -71 58 -141q37 -56 136 -56q10 0 28.5 1.5t28.5 1.5
q36 0 85.5 58.5t49.5 95.5q0 20 -16 55t-16 55q0 42 25 67q13 13 62 41q38 -87 65 -119q46 -51 121 -51q117 0 261 176q71 87 189 280v-20z" />
  </g>

</svg>
