<?xml version="1.0" standalone="no"?>
<!DOCTYPE svg PUBLIC "-//W3C//DTD SVG 1.1//EN" "http://www.w3.org/Graphics/SVG/1.1/DTD/svg11.dtd" >
<svg viewBox="0 -442 2076 2048">
  <g transform="matrix(1 0 0 -1 0 1606)">
   <path fill="currentColor"
d="M2076 352q0 -66 -42.5 -112t-108.5 -46q-80 0 -133 71q-44 -20 -186 -189q-135 -161 -159 -161q-33 0 -55 35q-13 20 -23.5 112.5t-31.5 131.5q-32 61 -223 167q-10 24 -10 39q0 34 40.5 80t73.5 46q40 0 124 -107q77 -97 93 -148q18 -55 34 -201q99 131 199 262
q151 180 241 180q167 0 167 -160zM1365 920q0 -38 -30 -80t-67 -42q-19 0 -53.5 16t-53.5 16q-11 0 -74 -47q-60 -41 -177 -125q-259 -194 -495 -432h-111q259 299 765 703q33 28 102 78q27 16 77 23q41 6 82 11q35 -88 35 -121zM1169 1128q0 -38 -30 -77q-32 -42 -68 -42
q-20 0 -56 16t-56 16q-21 0 -144 -99q-205 -164 -274 -224q-151 -130 -255 -245q-54 -71 -139 -155q-23 -10 -60 -10q-26 0 -37 10q192 289 705 717q80 73 227 183q17 9 144 27q43 -87 43 -117z" />
  </g>

</svg>
