<?xml version="1.0" standalone="no"?>
<!DOCTYPE svg PUBLIC "-//W3C//DTD SVG 1.1//EN" "http://www.w3.org/Graphics/SVG/1.1/DTD/svg11.dtd" >
<svg viewBox="0 -442 2048 2048">
  <g transform="matrix(1 0 0 -1 0 1606)">
   <path fill="currentColor"
d="M1909 930q0 -50 -62 -50q-21 0 -40.5 35t-61.5 35q-103 0 -207 -50q-52 -24 -153 -91q-73 -50 -102 -50q-63 0 -63 51q0 15 7 44t7 44q0 40 -56 64q-43 18 -91 18q-82 0 -124 -81q-21 -40 -93 -40q-52 0 -52 52q0 66 131 120q110 46 190 46q195 0 198 -172q40 43 194 93
q146 47 216 47q54 0 104 -30q58 -34 58 -85zM1845 545q-93 -77 -217 -135q-142 -66 -243 -66q-117 0 -165 105q-18 -58 -62 -110q-52 -62 -103 -62q-120 0 -173 59q-50 55 -54 177h-102q-8 -120 -51 -221q-58 -138 -153 -138q-93 0 -142 116q-37 88 -37 195q0 22 3 48h-135
q1 -137 -61 -137q-90 0 -100 226h303q20 110 69 200q67 121 156 121q70 0 111 -128q27 -88 33 -193h218q-2 -31 -2 -41q0 -160 104 -160q61 0 78 61l30 114q32 61 125 61q-15 0 73 -10q-25 -65 -25 -122q0 -58 15 -78q18 -26 77 -26q88 0 219 52q106 46 211 92zM629 602
q0 189 -82 189q-60 0 -89 -189h171zM629 513h-171q0 -11 -2 -34.5t-2 -36.5q0 -116 66 -116q41 0 75 75q27 57 34 112z" />
  </g>

</svg>
