<?xml version="1.0" standalone="no"?>
<!DOCTYPE svg PUBLIC "-//W3C//DTD SVG 1.1//EN" "http://www.w3.org/Graphics/SVG/1.1/DTD/svg11.dtd" >
<svg viewBox="0 -442 2048 2048">
  <g transform="matrix(1 0 0 -1 0 1606)">
   <path fill="currentColor"
d="M2041 232q-71 -9 -64 -9q-93 0 -120 114q-28 -37 -57 -75q-24 -24 -92 -24t-112 31q-49 35 -49 96q0 12 2 25l-10 12q-143 -84 -167 -94q-69 -28 -191 -28q-94 0 -278.5 32t-278.5 32q-15 0 -155 -10l-315 -22q-85 0 -104 48q215 82 534 82q-7 0 168 -11l335 -21
q16 -1 20 -1q147 0 264 41q165 58 165 176q0 91 -82 138q-67 38 -166 38q-151 0 -209 -60q57 -24 57 -47q0 -26 -19.5 -45.5t-45.5 -19.5q-47 0 -102 55q-28 28 -28 78q0 161 334 161q402 0 402 -287q0 -35 -15.5 -102t-15.5 -102q0 -71 57 -71q62 0 97 204h50q34 0 59 -27
q8 -9 132 -307z" />
  </g>

</svg>
