<?xml version="1.0" standalone="no"?>
<!DOCTYPE svg PUBLIC "-//W3C//DTD SVG 1.1//EN" "http://www.w3.org/Graphics/SVG/1.1/DTD/svg11.dtd" >
<svg viewBox="0 -442 2048 2048">
  <g transform="matrix(1 0 0 -1 0 1606)">
   <path fill="currentColor"
d="M1639 1248l-18 -98q-16 -60 -55 -76q-27 -5 -79 -22q-15 -7 -156 -141l-320 -302q-48 -51 -153 -139q-23 -15 -62 -27q-32 -9 -65 -18l-20 20q158 173 477 515q56 61 112 121q72 75 122 108q18 12 217 59zM1021 333q-22 -19 -199 -194q-121 -121 -211 -177
q-34 -21 -90 -29q-83 -12 -93 -15l-20 30q102 102 205 203q143 138 215 172q31 15 78 15q17 0 57 -3q37 -3 58 -2zM622 333q-98 -105 -195 -209q-143 -149 -201 -178q-51 -25 -176 -25q63 84 219 235q182 177 236 177h117z" />
  </g>

</svg>
