<?xml version="1.0" standalone="no"?>
<!DOCTYPE svg PUBLIC "-//W3C//DTD SVG 1.1//EN" "http://www.w3.org/Graphics/SVG/1.1/DTD/svg11.dtd" >
<svg viewBox="0 -442 2048 2048">
  <g transform="matrix(1 0 0 -1 0 1606)">
   <path fill="currentColor"
d="M687 755q-10 -41 -79 -128q-88 -111 -99 -129q-30 -58 -92 -174h-43q-24 0 -43 51q-10 37 -21 73q-23 71 -105 136q-75 60 -154 84q-1 8 -1 18q0 39 19 76q23 45 58 45q36 0 116 -75q72 -67 96 -110q16 -28 50 -151q53 90 107 180q81 131 134 131q30 0 57 -27z" />
  </g>

</svg>
