<?xml version="1.0" standalone="no"?>
<!DOCTYPE svg PUBLIC "-//W3C//DTD SVG 1.1//EN" "http://www.w3.org/Graphics/SVG/1.1/DTD/svg11.dtd" >
<svg viewBox="0 -442 2048 2048">
  <g transform="matrix(1 0 0 -1 0 1606)">
   <path fill="currentColor"
d="M1390 -68q0 -47 -122 -80q-95 -26 -162 -26q-109 0 -192 50q-99 59 -99 161q0 43 21 93q22 54 54 76q-89 60 -89 142q0 84 89 208q-87 82 -87 157q0 102 104 185q-79 67 -79 169q0 20 3 36q-67 32 -247 68q-174 35 -256 35q-63 0 -145.5 -42t-105.5 -42q-27 0 -27 22
q0 21 29 52q59 63 149.5 102t176.5 39q115 0 335 -83q109 -41 141 -41q10 0 37 31l37 40q23 19 76 36t86 17q52 0 98 -31q51 -35 51 -84q0 -82 -108 -111q-40 -11 -174 -20q-14 -10 -14 -32q0 -75 119 -75q11 0 32.5 5t32.5 5q35 0 69.5 -25t34.5 -58q0 -40 -30.5 -73
t-69.5 -33q-17 0 -47 12.5t-47 12.5q-25 0 -67 -42t-42 -67q0 -16 23.5 -48t38.5 -32q21 0 70.5 25t70.5 25q36 0 68 -27.5t32 -62.5q0 -37 -64 -77q-60 -37 -100 -37q-15 0 -42.5 7t-42.5 7q-20 0 -38 -40q-16 -36 -16 -59q0 -39 18 -80q20 -49 52 -57q59 67 129 67
q39 0 70 -23q34 -26 34 -64q0 -42 -65 -74q-56 -27 -104 -27q-11 0 -32 9t-32 9q-29 0 -51 -43q-19 -36 -19 -69q0 -59 51 -102t111 -43q39 0 112 26t112 26q49 0 49 -25z" />
  </g>

</svg>
