<?xml version="1.0" standalone="no"?>
<!DOCTYPE svg PUBLIC "-//W3C//DTD SVG 1.1//EN" "http://www.w3.org/Graphics/SVG/1.1/DTD/svg11.dtd" >
<svg viewBox="0 -442 2588 2048">
  <g transform="matrix(1 0 0 -1 0 1606)">
   <path fill="currentColor"
d="M1721 1073q-13 0 -49 -3q-32 -3 -50 -3q-33 0 -63 13q-58 26 -169 141q-81 84 -161 168h39q111 0 159 -33q14 -9 114 -115q71 -75 180 -168zM1449 1030h-55q-79 0 -128 27q-70 39 -161 135q-137 146 -146 154q11 -2 23 -2q17 0 51.5 3.5t51.5 3.5q37 0 69 -15
q63 -29 158 -138q68 -84 137 -168zM2588 327q0 -63 -21 -113q-27 -68 -81 -68q-30 0 -57.5 25.5t-27.5 55.5q0 53 55 72q-39 64 -120 87l-138 34q-74 29 -104 111q-111 -117 -190 -117q-92 0 -141 124q-35 -23 -102 -74q-23 -19 -185 -179q-63 -62 -332 -322
q-49 -50 -98 -101q-61 -62 -106 -89q-34 -21 -77 -21q-32 0 -60 10v30q174 209 174 510q0 270 -174 270q-6 0 -85 -9l-166 -19q-52 -6 -60 -6q-166 0 -284 52q-158 70 -158 214q0 181 207 305q180 108 375 108q82 0 150 -24q95 -33 95 -99q0 -50 -62 -84q-54 -29 -108 -29
q-83 0 -123 106q-13 1 -28 1q-118 0 -212 -63q-106 -71 -106 -183q0 -183 291 -183q50 0 148.5 17t148.5 17q163 0 220 -128q37 -83 37 -271v-56q0 -41 -22 -120.5t-22 -121.5q160 168 480 503q57 62 113 124q74 79 123 109q46 28 95 27l22 -17q12 -66 39 -136
q38 -100 76 -100q70 0 114 213q22 -24 83 -36q46 -7 93 -15q-7 -49 -7 -71q0 -91 82 -116l154 -30q82 -27 82 -124z" />
  </g>

</svg>
