<?xml version="1.0" standalone="no"?>
<!DOCTYPE svg PUBLIC "-//W3C//DTD SVG 1.1//EN" "http://www.w3.org/Graphics/SVG/1.1/DTD/svg11.dtd" >
<svg viewBox="0 -442 2048 2048">
  <g transform="matrix(1 0 0 -1 0 1606)">
   <path fill="currentColor"
d="M1764 1147q0 -2 -14 -35t-17 -48q-10 -56 -8 -150q4 -115 1 -151q-59 -49 -97 -49q-55 0 -55 124q0 54 7 92l-8 4l-5 -1q-163 -183 -496 -544q-100 -105 -133 -137q-78 -76 -145 -125q-58 -42 -133 -42q-66 0 -105 33q-19 16 -69 86q-66 -96 -91 -115q-47 -38 -140 -38
q-191 0 -203 313q0 42 -3 126q15 28 44 28q32 0 73 -37q-1 -165 59 -256q8 -1 20 -1q63 0 94 57q15 29 34 116q15 73 36 93q30 28 77 28q55 0 79 -76q18 -70 36 -141q28 -76 92 -76q139 0 887 830q112 124 152 124q31 0 31 -32z" />
  </g>

</svg>
