<?xml version="1.0" standalone="no"?>
<!DOCTYPE svg PUBLIC "-//W3C//DTD SVG 1.1//EN" "http://www.w3.org/Graphics/SVG/1.1/DTD/svg11.dtd" >
<svg viewBox="0 -442 2575 2048">
  <g transform="matrix(1 0 0 -1 0 1606)">
   <path fill="currentColor"
d="M2575 1564q-99 -94 -298 -281q-157 -159 -314 -317q-248 -240 -324 -240q-13 0 -155 56.5t-156 67.5q-37 29 -37 57q0 38 37 69q36 28 75 28q64 0 155 -74.5t106 -74.5q11 0 89 62q107 83 315 255q148 138 453 404zM1479 551q-101 -94 -303 -280q-17 -5 -37 -5
q-21 0 -93 12l319 309zM2115 184q-124 -121 -374 -361q-49 -46 -99 -93q-59 -53 -108 -81q-30 -17 -79 -17q-71 2 -82 0q107 92 416 377q91 86 198 180q7 4 30 4q18 0 50.5 -4t47.5 -5zM1325 646q-101 -94 -304 -279q-9 -2 -22 -2h-51q-49 0 -90 2l323 326q48 -16 144 -47z
M1865 246q-157 -143 -314 -287q-252 -229 -295 -246q-57 -3 -139 -9l542 504q19 20 59 52q10 6 33 6q36 0 114 -20zM957 -47q0 -184 -247 -267q-72 -24 -99 -24q-81 0 -116 3q-18 3 -55 6q19 20 62 53q4 2 56 17q211 61 211 146q0 36 -28 36q-5 0 -15 -4t-15 -4
q-82 0 -82 87q0 55 60 85q47 24 109 24q159 0 159 -158zM562 -26q0 -136 -145 -223q-124 -75 -270 -75q-21 0 -97 20q39 40 67 53q4 2 63 19q195 56 195 139q0 23 -12 30q-127 0 -127 90q0 49 64 82q54 27 108 27q72 0 113 -44.5t41 -117.5z" />
  </g>

</svg>
