<?xml version="1.0" standalone="no"?>
<!DOCTYPE svg PUBLIC "-//W3C//DTD SVG 1.1//EN" "http://www.w3.org/Graphics/SVG/1.1/DTD/svg11.dtd" >
<svg viewBox="0 -442 2048 2048">
  <g transform="matrix(1 0 0 -1 0 1606)">
   <path fill="currentColor"
d="M1817 1288q-152 -166 -302 -349q-46 -49 -121 -153l-12 -86q-8 -53 -64 -53q-41 0 -82 19q-6 11 -6 27t9 46.5t9 46.5q0 43 -36.5 86t-78.5 43q-86 0 -114 -62l-8 -92q-5 -57 -56 -57q-82 0 -70 197q-31 46 -64 46q-20 0 -36 -14q1 -30 1 -45q0 -177 -63 -177
q-94 0 -94 142q0 22 16 63t16 63q0 27 -62 72q-58 43 -89 49q-10 2 -32 2q-244 0 -259 -259h-127q-42 56 -42 99q0 114 154 191q129 66 256 66q86 0 169 -38q99 -44 119 -116q92 24 115 24q70 0 129 -74q102 50 154 50q141 0 221 -147zM1900 680q0 -17 -3 -24
q-6 -14 -130 -150q-483 -530 -792 -530q-36 0 -71.5 19.5l-35.5 19.5q-33 0 -93 -27.5t-93 -27.5q-70 0 -134 62q-59 57 -78 128q-101 -174 -182 -174q-157 0 -157 243q0 7 1 27l17 339q19 9 55 9q130 0 130 -89q0 -10 -13 -73l-36 -175q-17 -83 -17 -93q0 -30 16 -57h29
q45 64 91 128q63 83 118 83q87 0 87 -91q0 -12 -1.5 -36.5t-1.5 -36.5q0 -97 95 -97q83 0 104 85q11 75 23 150q50 26 77 26q35 0 43 -38q2 -10 2 -65q0 -131 119 -131q115 0 423 252l408 350v-6z" />
  </g>

</svg>
