<?xml version="1.0" standalone="no"?>
<!DOCTYPE svg PUBLIC "-//W3C//DTD SVG 1.1//EN" "http://www.w3.org/Graphics/SVG/1.1/DTD/svg11.dtd" >
<svg viewBox="0 -442 2561 2048">
  <g transform="matrix(1 0 0 -1 0 1606)">
   <path fill="currentColor"
d="M2561 1190q-142 -187 -356 -422q-189 -203 -377 -405q-108 -117 -329 -347q-30 -30 -34 -30q-9 0 -46 18q8 97 30 229q11 66 11 84q0 281 -155 281q-63 0 -158 -54q-139 -79 -150 -83v42q0 39 71 119q65 72 108 96q66 37 149 37q134 0 204 -66q56 -53 84 -165l40 -212
q37 40 111 119q191 209 381 418q272 284 416 341zM1076 1135q0 -9 -100 -163q-114 -175 -120 -185h-38q-23 53 -77 154q-29 43 -81 69q-47 22 -95 45q2 34 18 65q20 40 49 40q62 0 138 -103t68 -165q41 76 82 151q67 117 97 117h50q9 -6 9 -25zM922 265q-131 89 -263 177
q-165 113 -238 198q-6 7 -50 127q56 20 79 20q71 0 109 -42q6 -6 34 -53q50 -83 108 -134q3 -3 105 -82q65 -50 94 -92q22 -32 22 -119zM602 272q-32 22 -325 211q-45 29 -91 57q-54 36 -81 68q-13 14 -55 126q60 21 82 21q42 0 102 -37q42 -72 51 -85q31 -46 63 -75
q43 -39 120 -91q103 -69 124 -85q10 -59 10 -110z" />
  </g>

</svg>
