<?xml version="1.0" standalone="no"?>
<!DOCTYPE svg PUBLIC "-//W3C//DTD SVG 1.1//EN" "http://www.w3.org/Graphics/SVG/1.1/DTD/svg11.dtd" >
<svg viewBox="0 -442 2108 2048">
  <g transform="matrix(1 0 0 -1 0 1606)">
   <path fill="currentColor"
d="M2108 744q0 -63 -20 -99q-54 -96 -256 -107q-23 0 -69 -3q-6 -1 -12 -9q-1 -41 -10 -131q-8 -85 -8 -131q0 -26 26 -54q23 -22 46 -43q-49 -126 -154 -126q-72 0 -72 52v236q0 36 8.5 106t8.5 105q-249 19 -261 194q-156 -114 -311 -228q-214 -156 -321 -170
q210 187 640 547q134 105 321 209q13 84 49 261q49 34 84 34q17 0 33.5 -17.5t16.5 -34.5q0 -11 -42 -243q123 -37 208 -128q95 -100 95 -220zM1005 227q-92 -88 -279 -261q-31 -29 -97 -80q-57 -35 -187 -35q348 376 381 376h182zM604 227q-86 -95 -171 -191
q-108 -119 -189 -165q-35 -20 -90 -23l-94 -4q-2 12 -10 20l396 363h158zM1969 796q0 67 -55 128t-122 78l-41 -332h49q58 0 110 34q59 37 59 92zM1648 995q-47 -10 -100.5 -86t-53.5 -126q0 -23 29 -61t51 -38h35z" />
  </g>

</svg>
