<?xml version="1.0" standalone="no"?>
<!DOCTYPE svg PUBLIC "-//W3C//DTD SVG 1.1//EN" "http://www.w3.org/Graphics/SVG/1.1/DTD/svg11.dtd" >
<svg viewBox="0 -442 2048 2048">
  <g transform="matrix(1 0 0 -1 0 1606)">
   <path fill="currentColor"
d="M565 1159q0 -135 -146 -225q-127 -77 -272 -77q-27 0 -97 18q18 20 57 52q2 1 61 18q207 59 207 141q0 23 -12 30q-127 1 -127 89q0 56 60 86q47 24 109 24q160 0 160 -156zM599 666q0 -141 -151 -227q-127 -72 -279 -72q-32 0 -87 18q34 34 67 50q22 7 67 22
q192 65 192 142q0 38 -28 38q-8 0 -13.5 -4.5t-13.5 -4.5q-85 0 -85 85q0 52 59 85q49 27 106 27q73 0 119.5 -43.5t46.5 -115.5zM599 174q0 -191 -250 -278q-66 -23 -90 -23q-98 0 -137 5q-15 3 -47 8q36 41 74 59l64 20q195 61 195 139q0 23 -12 30q-67 5 -88 15
q-40 19 -40 74q0 53 62 85q51 25 110 25q70 0 114.5 -44.5t44.5 -114.5z" />
  </g>

</svg>
