<?xml version="1.0" standalone="no"?>
<!DOCTYPE svg PUBLIC "-//W3C//DTD SVG 1.1//EN" "http://www.w3.org/Graphics/SVG/1.1/DTD/svg11.dtd" >
<svg viewBox="0 -442 2584 2048">
  <g transform="matrix(1 0 0 -1 0 1606)">
   <path fill="currentColor"
d="M2584 993q-145 -420 -476 -420q-23 0 -114 19q-54 -131 -227 -131q-86 0 -158 39q-44 -59 -101 -80q-45 -16 -127 -16q-25 0 -75 9t-75 9q-7 0 -39 -35q-38 -42 -41 -45q-36 -30 -129 -51q-81 -19 -141 -19q-77 0 -149 28q-93 37 -93 101q0 32 35 62q30 23 59 46
q2 -60 77 -103q65 -37 130 -37q52 0 116 33q73 38 73 84q0 5 -23 35q-17 22 -17 87q0 40 10 71q13 1 40 9.5t42 8.5q29 0 45 -66q20 -81 28 -90q40 -48 111 -48q82 0 139 105q-32 49 -32 85q0 54 39 70l82 26q17 -74 33 -148q28 -73 120 -73q46 0 85 33t53 79q2 6 2 88
q0 44 14 65q39 19 79 28q32 -186 149 -186q94 0 246 126q56 47 210 202zM533 881q0 -123 -105 -187q-88 -54 -219 -54q-72 0 -102 55q35 24 90 40q53 13 106 27q72 24 72 65v44l-12 15l-54 -33q-9 5 -25 18q-21 25 -21 89q0 98 135 98t135 -177zM533 369q0 -251 -292 -251
q-161 0 -191 69q54 28 101 36q117 20 128 23q82 25 82 80q0 52 -70 62q-28 27 -28 66q0 37 52 64q44 23 85 23q133 0 133 -172z" />
  </g>

</svg>
