<?xml version="1.0" standalone="no"?>
<!DOCTYPE svg PUBLIC "-//W3C//DTD SVG 1.1//EN" "http://www.w3.org/Graphics/SVG/1.1/DTD/svg11.dtd" >
<svg viewBox="0 -442 2048 2048">
  <g transform="matrix(1 0 0 -1 0 1606)">
   <path fill="currentColor"
d="M1551 443q-9 -28 -22 -28q-7 0 -24.5 23.5t-32.5 23.5h-834q-109 0 -242 34.5t-226 87.5q-52 30 -89 85q-31 47 -31 92q0 33 26 53.5t60 20.5q22 0 136 -38q4 -3 4 -9q0 -18 -28 -18q-37 0 -61.5 -27.5t-24.5 -64.5q0 -48 57 -82q46 -27 148 -27q19 0 44 1l981 39
q57 -52 159 -166z" />
  </g>

</svg>
