<?xml version="1.0" standalone="no"?>
<!DOCTYPE svg PUBLIC "-//W3C//DTD SVG 1.1//EN" "http://www.w3.org/Graphics/SVG/1.1/DTD/svg11.dtd" >
<svg viewBox="0 -442 2048 2048">
  <g transform="matrix(1 0 0 -1 0 1606)">
   <path fill="currentColor"
d="M1286 747q0 -43 -124 -132q-144 -102 -162 -127q81 -3 161 -6q114 -11 114 -73q0 -57 -64 -57q-29 0 -80 26q-68 35 -79 39q-49 17 -229 16l-20 21q78 77 229 236h-12q-13 0 -38.5 -1.5t-38.5 -1.5q-197 0 -197 110q0 55 62 55q18 0 94 -26q144 -49 219 -49q21 0 61 7.5
t61 7.5q43 0 43 -45zM703 725q0 -39 -135 -120q-164 -99 -175 -109q31 -28 83 -32q-2 0 91 0q57 0 85 -18q44 -28 44 -77q0 -16 -19 -47l-165 45q-58 16 -147 27q-147 18 -148 18q-11 17 -11 27q0 52 254 229q-3 2 -132 2q-278 0 -278 99q0 21 23.5 38t45.5 17q28 0 238 -53
q44 -11 58 -11h262q26 -16 26 -35z" />
  </g>

</svg>
