<?xml version="1.0" standalone="no"?>
<!DOCTYPE svg PUBLIC "-//W3C//DTD SVG 1.1//EN" "http://www.w3.org/Graphics/SVG/1.1/DTD/svg11.dtd" >
<svg viewBox="0 -442 2048 2048">
  <g transform="matrix(1 0 0 -1 0 1606)">
   <path fill="currentColor"
d="M1026 -36q-32 -26 -82 -89q-18 -37 -20 -139q-1 -50 -29 -69q-37 -26 -145 -26q-50 0 -194 39q119 7 147 22q51 27 51 130q0 36 -6 49q-99 -29 -200 -29q-81 0 -166 29q-112 38 -112 102q0 36 38 57q31 17 70 17q36 0 79 -13q-6 -11 -6 -22q0 -106 190 -106q108 0 171 28
q67 30 157 30q37 0 57 -10zM242 73q-13 -63 -25 -127q-24 -56 -107 -56q-39 0 -60 11v68q0 44 32 80t75 36q15 0 43 -6t42 -6z" />
  </g>

</svg>
