<?xml version="1.0" standalone="no"?>
<!DOCTYPE svg PUBLIC "-//W3C//DTD SVG 1.1//EN" "http://www.w3.org/Graphics/SVG/1.1/DTD/svg11.dtd" >
<svg viewBox="0 -442 2048 2048">
  <g transform="matrix(1 0 0 -1 0 1606)">
   <path fill="currentColor"
d="M904 337q0 -102 -115 -154q-88 -40 -205 -40q-128 0 -212 51q-102 61 -102 181q0 78 77 212q87 154 101 212q-56 46 -194 64q-148 19 -204 54q84 42 209 64q108 15 217 31q135 21 159 21q37 0 93 -26q64 -29 64 -61q0 -41 -126 -97q2 10 2 24q0 86 -172 86
q-153 0 -328 -29q68 -15 163 -23q110 -9 141 -28q50 -30 50 -129q0 -106 -69.5 -227.5t-69.5 -172.5q0 -74 74 -117q62 -37 142 -37q95 0 214 73q-4 26 -40 72q42 59 80 59q19 0 35 -21.5t16 -41.5z" />
  </g>

</svg>
