<?xml version="1.0" standalone="no"?>
<!DOCTYPE svg PUBLIC "-//W3C//DTD SVG 1.1//EN" "http://www.w3.org/Graphics/SVG/1.1/DTD/svg11.dtd" >
<svg viewBox="0 -442 2048 2048">
  <g transform="matrix(1 0 0 -1 0 1606)">
   <path fill="currentColor"
d="M1353 295q0 -42 -208 -41q5 -26 26 -75q15 -23 15 -26q0 -4 -23 -8q-27 -5 -58 -5q-9 0 -26 1h-25q-35 0 -59 113q-268 0 -464.5 33t-250.5 146q-13 28 -97 256q-75 205 -98 215q-35 16 -35 24q0 9 11 15q74 7 182 7q47 0 68 -3q62 -9 91 -154q35 -172 46 -217
q40 -158 79 -194q95 -88 441 -88h23l-17 91q-1 6 -13 16.5t-12 17.5q0 14 104 14q20 0 28 -1q33 -4 48 -58q6 -40 13 -80h26q56 0 92 6q66 11 69 11q24 0 24 -16z" />
  </g>

</svg>
