<?xml version="1.0" standalone="no"?>
<!DOCTYPE svg PUBLIC "-//W3C//DTD SVG 1.1//EN" "http://www.w3.org/Graphics/SVG/1.1/DTD/svg11.dtd" >
<svg viewBox="0 -442 2048 2048">
  <g transform="matrix(1 0 0 -1 0 1606)">
   <path fill="currentColor"
d="M1344 477q-125 -20 -251 -41q-146 -22 -252 -22q-143 0 -284 30q-170 36 -262 103q-57 41 -127 114q-59 61 -118 123q57 23 84 23q57 0 186.5 -135.5t218.5 -139.5q-23 39 -67 119v34h38q32 0 71 -79l48 -108l51 -17l42 6q-47 59 -76 135v34q51 -5 77 -58q20 -47 40 -95
q30 -50 94 -50q82 0 245 12t242 12z" />
  </g>

</svg>
