<?xml version="1.0" standalone="no"?>
<!DOCTYPE svg PUBLIC "-//W3C//DTD SVG 1.1//EN" "http://www.w3.org/Graphics/SVG/1.1/DTD/svg11.dtd" >
<svg viewBox="0 -442 2048 2048">
  <g transform="matrix(1 0 0 -1 0 1606)">
   <path fill="currentColor"
d="M904 530q0 -77 -76 -136q-71 -55 -150 -55q-60 0 -128 50q24 -2 65 -2q196 0 196 168q0 133 -118 133q-9 0 -25.5 -4t-24.5 -4q-3 -13 -3 -36q0 -39 11 -83q-9 -5 -19 -5q-8 0 -23 2.5t-22 2.5q-4 25 -8 75l1 2q0 6 -9 6q-34 0 -41 -18q-3 -6 -3 -47q0 -48 -47 -55
q1 7 1 12q0 29 -22 51q-123 -57 -167 -57q-87 0 -159 45q-83 52 -83 133q0 53 40 91.5t93 38.5q31 0 76 -23q49 -24 59 -50q-7 -1 -21 -1t-40.5 2t-40.5 2q-96 0 -96 -90q0 -44 30.5 -77.5t74.5 -33.5q23 0 221 111q1 8 1 15q0 8 -1.5 25t-1.5 25q0 19 4 36h54q9 -21 28 -63
q34 11 34 44q0 7 -2 21t-2 21h61v-51q139 -23 193 -54q90 -52 90 -167z" />
  </g>

</svg>
