<?xml version="1.0" standalone="no"?>
<!DOCTYPE svg PUBLIC "-//W3C//DTD SVG 1.1//EN" "http://www.w3.org/Graphics/SVG/1.1/DTD/svg11.dtd" >
<svg viewBox="0 -442 2048 2048">
  <g transform="matrix(1 0 0 -1 0 1606)">
   <path fill="currentColor"
d="M1644 445q-88 -72 -342 -72q-307 0 -427 130q-88 -119 -241 -182q-139 -58 -300 -58q-75 0 -284 40l254 12q159 12 246 41q42 14 125 104.5t83 130.5q0 52 -169 82q-121 22 -216 22q-147 0 -283 -25q17 28 51 144q73 40 183 40q-12 -34 -34 -104q18 -6 327 -6
q51 0 185 -57q26 27 61 93q34 63 58 85q40 38 105 38l135 -1q-41 -23 -125 -131q-88 -113 -88 -151q0 -22 40 -68q33 -38 59 -57q89 -65 272 -65q55 0 164 7.5t161 7.5z" />
  </g>

</svg>
