<?xml version="1.0" standalone="no"?>
<!DOCTYPE svg PUBLIC "-//W3C//DTD SVG 1.1//EN" "http://www.w3.org/Graphics/SVG/1.1/DTD/svg11.dtd" >
<svg viewBox="0 -442 2048 2048">
  <g transform="matrix(1 0 0 -1 0 1606)">
   <path fill="currentColor"
d="M1795 520q0 -19 -3 -37q-38 -31 -107 -31q-36 0 -106 23q23 40 57 125q-46 47 -143 47q-338 0 -734 -101l-150 -44q-104 -30 -144 -30q-33 0 -99 22q29 15 60 54q33 43 33 72q0 17 -18.5 32.5t-36.5 15.5q-166 0 -197 -123q-30 7 -72 7t-84 -7q-1 7 -1 13q0 89 128 132
q90 30 203 30q46 0 97 -12q72 -17 72 -48q0 -3 -57 -109h8q58 0 166 37q155 53 166 56q292 76 613 76q126 0 221 -40q128 -53 128 -160z" />
  </g>

</svg>
