<?xml version="1.0" standalone="no"?>
<!DOCTYPE svg PUBLIC "-//W3C//DTD SVG 1.1//EN" "http://www.w3.org/Graphics/SVG/1.1/DTD/svg11.dtd" >
<svg viewBox="0 -442 2048 2048">
  <g transform="matrix(1 0 0 -1 0 1606)">
   <path fill="currentColor"
d="M2023 461q0 -23 -48 -43q-40 -17 -68 -17q-22 0 -201 54q-442 133 -594 133q-121 0 -268 -53q-77 -29 -154 -57q-90 -30 -160 -30q-28 0 -82.5 6.5t-81.5 6.5q85 83 85 120q0 55 -49 55q-181 0 -205 -125q-36 9 -76 9q-29 0 -71 -7v41q0 78 133 113q87 22 201 22
q196 0 196 -87q0 -29 -20 -65v-9q261 125 487 125q213 0 442 -84q80 -33 161 -67q112 -45 158 -45q45 0 51 85q13 0 48 1q30 1 48 1q36 0 68 -5v-78z" />
  </g>

</svg>
