<?xml version="1.0" standalone="no"?>
<!DOCTYPE svg PUBLIC "-//W3C//DTD SVG 1.1//EN" "http://www.w3.org/Graphics/SVG/1.1/DTD/svg11.dtd" >
<svg viewBox="0 -442 2048 2048">
  <g transform="matrix(1 0 0 -1 0 1606)">
   <path fill="currentColor"
d="M1831 615l-12 -17q-30 -6 -104 -6h-12l-539 36q-4 0 -30 -34q-175 -230 -392 -278q-130 -29 -336 -29q-18 0 -53 5t-52 5q122 20 244 39q143 25 239 60q51 18 115 100q58 75 78 135h-659q73 97 73 125q0 51 -73 51q-52 0 -93.5 -35.5t-45.5 -86.5q-31 7 -65 7t-64 -7v48
q0 59 107 97q84 30 159 30q55 0 108 -18q72 -25 72 -69q0 -30 -39 -88h559q31 70 105 200q14 19 66.5 46.5t75.5 27.5h141q-68 -37 -124 -120q-43 -76 -87 -152l21 -10q138 -1 366 -13q61 -1 182 -13q44 -9 69 -36z" />
  </g>

</svg>
