<?xml version="1.0" standalone="no"?>
<!DOCTYPE svg PUBLIC "-//W3C//DTD SVG 1.1//EN" "http://www.w3.org/Graphics/SVG/1.1/DTD/svg11.dtd" >
<svg viewBox="0 -442 2048 2048">
  <g transform="matrix(1 0 0 -1 0 1606)">
   <path fill="currentColor"
d="M1115 653q0 -40 -44 -64q-37 -19 -81 -19q-55 0 -130 22l-126 38q15 5 123 5q32 0 63 26q-5 15 -44 87q-29 53 -29 92q0 10 2 19q43 36 106 36h47q63 0 113 -44q-31 -9 -93 -26q26 -45 52 -89q41 -69 41 -83zM1124 277l-438 130q-232 88 -342 288q-5 10 -54 107
q49 13 65 13q51 0 85 -40q27 -42 53 -83q112 -174 417 -314q70 -36 214 -101zM334 554q-42 2 -123 20q-41 18 -95 105q-41 67 -66 132h112q33 0 52.5 -29t55.5 -116q30 -76 64 -112z" />
  </g>

</svg>
