<?xml version="1.0" standalone="no"?>
<!DOCTYPE svg PUBLIC "-//W3C//DTD SVG 1.1//EN" "http://www.w3.org/Graphics/SVG/1.1/DTD/svg11.dtd" >
<svg viewBox="0 -442 2048 2048">
  <g transform="matrix(1 0 0 -1 0 1606)">
   <path fill="currentColor"
d="M1706 623q0 -49 -61 -74q-45 -19 -103 -19q-51 0 -144.5 46.5t-144.5 46.5q-11 0 -134.5 -96t-183.5 -96q-46 0 -94 28v32q132 79 286 187q-58 40 -99 40q-55 0 -143 -48q-68 -40 -135 -80q-254 -141 -575 -141q-66 0 -125 14q239 37 365 81q62 22 267 161
q170 116 270 116q81 0 282.5 -117t297.5 -117q30 0 53 26q-21 40 -25 67q36 19 70 19q76 0 76 -76z" />
  </g>

</svg>
