<?xml version="1.0" standalone="no"?>
<!DOCTYPE svg PUBLIC "-//W3C//DTD SVG 1.1//EN" "http://www.w3.org/Graphics/SVG/1.1/DTD/svg11.dtd" >
<svg viewBox="0 -442 2048 2048">
  <g transform="matrix(1 0 0 -1 0 1606)">
   <path fill="currentColor"
d="M1193 820q-63 -31 -130 -101q-72 -77 -86 -137q46 -23 80 -89q32 -62 32 -117q0 -77 -90 -140q-82 -58 -163 -58h-54q179 84 179 188q0 58 -61 122q-277 -235 -630 -278q-75 -9 -127 -9q-46 0 -93 13q260 25 416 94q197 86 324 271q-37 48 -156 94l-180 62
q-85 30 -144 63q73 46 227 124q171 70 245 70q37 0 85 -33q1 -22 -12 -32q-2 -2 -113 -34q-140 -41 -254 -85v-10q64 -48 165 -85q88 -28 177 -56q57 110 95 140q50 37 164 37q59 0 104 -14z" />
  </g>

</svg>
