<?xml version="1.0" standalone="no"?>
<!DOCTYPE svg PUBLIC "-//W3C//DTD SVG 1.1//EN" "http://www.w3.org/Graphics/SVG/1.1/DTD/svg11.dtd" >
<svg viewBox="0 -442 2048 2048">
  <g transform="matrix(1 0 0 -1 0 1606)">
   <path fill="currentColor"
d="M1449 492q0 -11 -27 -26q-377 -50 -404 -50q-147 0 -147 83q0 36 24 59h-195q-19 -91 -57 -157q-54 -92 -126 -92q-115 0 -115 210q0 13 3 39h-332q-23 0 -23 21q0 31 29 31h334q18 91 57 157q53 92 125 92q116 0 116 -210q0 -13 -3 -39h376l-44 -38q-25 -25 -25 -50
q0 -56 65 -56q56 0 163 27t162 27q44 0 44 -28zM637 646q0 111 -54 111q-62 0 -94 -147h145q3 26 3 36zM625 558h-145q-3 -25 -3 -33q0 -114 54 -114q63 0 94 147z" />
  </g>

</svg>
