<?xml version="1.0" standalone="no"?>
<!DOCTYPE svg PUBLIC "-//W3C//DTD SVG 1.1//EN" "http://www.w3.org/Graphics/SVG/1.1/DTD/svg11.dtd" >
<svg viewBox="0 -442 2048 2048">
  <g transform="matrix(1 0 0 -1 0 1606)">
   <path fill="currentColor"
d="M1847 616q0 -45 -34.5 -76t-80.5 -31q-52 0 -215 81q-48 26 -95 52q-57 28 -103 28q102 -81 134 -115q68 -76 68 -157q0 -113 -106 -181q-92 -59 -212 -59h-88q80 28 174 102q112 88 112 153q0 74 -113 192t-186 118q-77 0 -221.5 -50.5t-221.5 -50.5q-47 0 -80 10v29
q0 30 118 241q-85 -10 -170 -19q-101 -12 -170 -12q-166 0 -307 67v34h104q11 0 60 -11q151 -34 222 -34q115 0 222 26q160 39 183 39q28 0 50 -12q9 -16 9 -25q0 -13 -45 -98q-29 -54 -57 -108q109 27 243 54q-40 37 -56 84q89 41 275 41q120 0 149 -5q85 -13 123 -72v-43
l-386 8q3 -2 32 -44q39 -15 139 -50q338 -119 356 -119q30 0 50.5 46t50.5 46q73 0 73 -79z" />
  </g>

</svg>
