<?xml version="1.0" standalone="no"?>
<!DOCTYPE svg PUBLIC "-//W3C//DTD SVG 1.1//EN" "http://www.w3.org/Graphics/SVG/1.1/DTD/svg11.dtd" >
<svg viewBox="0 -442 2048 2048">
  <g transform="matrix(1 0 0 -1 0 1606)">
   <path fill="currentColor"
d="M347 896q0 -80 -87 -132q-75 -45 -160 -45q-21 0 -50 14q19 23 92 45q60 18 75 74q-19 18 -57 32q-52 19 -62 25v42q48 37 93 37q156 0 156 -92zM363 620q0 -97 -131 -146q-32 -12 -39 -12q-12 0 -124 10q68 20 90 31q40 20 74 62q-3 31 -47 40q-58 12 -71 23v34
q42 49 105 49q68 0 97 -13q46 -19 46 -78zM363 335q0 -118 -188 -165l-114 14l102 42q72 36 70 69q-12 9 -75 27q-43 13 -43 43q0 65 127 65q121 0 121 -95z" />
  </g>

</svg>
