<?xml version="1.0" standalone="no"?>
<!DOCTYPE svg PUBLIC "-//W3C//DTD SVG 1.1//EN" "http://www.w3.org/Graphics/SVG/1.1/DTD/svg11.dtd" >
<svg viewBox="0 -442 2048 2048">
  <g transform="matrix(1 0 0 -1 0 1606)">
   <path fill="currentColor"
d="M1823 436q0 -22 -23 -22h-271q-18 -91 -57 -157q-53 -92 -125 -92q-116 0 -116 210q0 13 3 39h-216q-147 0 -147 85q0 36 24 59h-195q-19 -91 -57 -157q-53 -92 -126 -92q-115 0 -115 211q0 12 3 38h-332q-23 0 -23 22q0 31 29 31h334q18 91 57 157q53 92 125 92
q116 0 116 -211q0 -12 -3 -38h376l-44 -38q-25 -25 -25 -50q0 -57 65 -57h162q19 91 57 157q53 92 126 92q115 0 115 -210q0 -13 -3 -39h256q30 0 30 -30zM1467 503q0 110 -55 110q-62 0 -94 -147h146q3 25 3 37zM1455 414h-146q-3 -25 -3 -33q0 -114 54 -114q63 0 95 147z
M637 647q0 110 -54 110q-63 0 -94 -146h145q3 26 3 36zM625 558h-145q-3 -25 -3 -33q0 -113 54 -113q63 0 94 146z" />
  </g>

</svg>
