<?xml version="1.0" standalone="no"?>
<!DOCTYPE svg PUBLIC "-//W3C//DTD SVG 1.1//EN" "http://www.w3.org/Graphics/SVG/1.1/DTD/svg11.dtd" >
<svg viewBox="0 -442 2048 2048">
  <g transform="matrix(1 0 0 -1 0 1606)">
   <path fill="currentColor"
d="M1079 869q-156 -198 -463 -328q-56 -19 -162 -66q-20 -12 -85 -107q-58 -85 -93 -85q-21 0 -70 55q36 43 101 135q-22 11 -67 34q-110 -139 -137 -139q-16 0 -34.5 19.5t-18.5 35.5q0 31 99 155q-8 59 -17 178q6 10 28 10q65 0 124 -30q0 -172 167 -172q91 0 236 79
q48 27 217 137q15 10 175 89z" />
  </g>

</svg>
