<?xml version="1.0" standalone="no"?>
<!DOCTYPE svg PUBLIC "-//W3C//DTD SVG 1.1//EN" "http://www.w3.org/Graphics/SVG/1.1/DTD/svg11.dtd" >
<svg viewBox="0 -442 2048 2048">
  <g transform="matrix(1 0 0 -1 0 1606)">
   <path fill="currentColor"
d="M760 557q-8 -11 -12 -32q-72 9 -152 9q-40 0 -80 -1q6 -80 25 -105q14 -17 90 -59q-8 -13 -33 -13q-176 0 -274 159q-40 -38 -79 -76q-62 -57 -83 -57q-9 0 -41 7q158 170 158 219q0 26 -36.5 67t-63.5 49q-31 9 -129 28q48 28 92 28q152 0 214 -110q28 -53 89 -157
q13 40 12 75q173 -13 303 -31z" />
  </g>

</svg>
