<?xml version="1.0" standalone="no"?>
<!DOCTYPE svg PUBLIC "-//W3C//DTD SVG 1.1//EN" "http://www.w3.org/Graphics/SVG/1.1/DTD/svg11.dtd" >
<svg viewBox="0 -442 2048 2048">
  <g transform="matrix(1 0 0 -1 0 1606)">
   <path fill="currentColor"
d="M698 317q0 -21 -23 -55q-23 9 -68 29q2 32 2 48q0 75 -140 114q0 118 -28 219q-42 148 -128 148q-46 0 -46 -38q0 -103 71 -180.5t71 -112.5q0 -90 -75 -158.5t-166 -68.5q-118 0 -118 80q0 69 91 151q84 77 157 92q-121 132 -121 223q0 41 35.5 72t77.5 31
q221 0 221 -367q0 -28 -1 -70q75 -2 128 -41q60 -44 60 -116zM352 495q0 37 -21 37q-35 0 -92.5 -71t-57.5 -108q0 -25 24 -25q44 0 95.5 61t51.5 106z" />
  </g>

</svg>
