<?xml version="1.0" standalone="no"?>
<!DOCTYPE svg PUBLIC "-//W3C//DTD SVG 1.1//EN" "http://www.w3.org/Graphics/SVG/1.1/DTD/svg11.dtd" >
<svg viewBox="0 -442 2048 2048">
  <g transform="matrix(1 0 0 -1 0 1606)">
   <path fill="currentColor"
d="M864 442q-64 -23 -82 -23q-74 0 -88 90q-4 83 -9 166q-12 90 -84 90q-29 0 -47 -31q-15 -26 -15 -58q0 -58 68 -88q-20 -1 -47 -1q-67 0 -106 7l-14 -6v82q0 28 19 63q31 57 114 57q131 0 176 -38q31 -27 38 -104q10 -105 26 -151q14 -38 51 -55zM493 442
q-66 -23 -89 -23q-82 0 -98 90l-10 166q-10 90 -79 90q-70 0 -70 -106q0 -13 2 -22q34 -32 68 -49q-31 -1 -51 -1q-57 0 -102 7l-14 -6v73q0 84 80 113q47 17 151 17q76 0 102 -60q14 -33 21 -129q6 -89 27 -121q24 -36 62 -39z" />
  </g>

</svg>
