<?xml version="1.0" standalone="no"?>
<!DOCTYPE svg PUBLIC "-//W3C//DTD SVG 1.1//EN" "http://www.w3.org/Graphics/SVG/1.1/DTD/svg11.dtd" >
<svg viewBox="0 -442 2048 2048">
  <g transform="matrix(1 0 0 -1 0 1606)">
   <path fill="currentColor"
d="M765 178q0 -16 -9.5 -43.5t-10.5 -41.5q-14 0 -44 -2.5t-46 -2.5q-23 0 -48 5q27 85 27 92q0 35 -108 122q-127 102 -140 119q-31 42 -35 113q-6 102 -10 119q-80 -74 -184 -74q-107 0 -107 83q0 78 90 146q85 65 165 65q11 0 32 -8t32 -8q10 0 14 8t14 8q12 0 85 -28
l-40 -150q-23 -89 -23 -153q0 -104 49 -149q29 -26 116.5 -53t131.5 -63q13 -11 31 -49t18 -55zM347 806q0 30 -13 44q-46 -7 -105 -78.5t-59 -117.5q0 -23 13 -33h28q5 0 31 14q105 57 105 171z" />
  </g>

</svg>
