<?xml version="1.0" standalone="no"?>
<!DOCTYPE svg PUBLIC "-//W3C//DTD SVG 1.1//EN" "http://www.w3.org/Graphics/SVG/1.1/DTD/svg11.dtd" >
<svg viewBox="0 -442 2048 2048">
  <g transform="matrix(1 0 0 -1 0 1606)">
   <path fill="currentColor"
d="M1463 423q-20 -28 -68 -28q-72 0 -170 64q-86 57 -138 123q-28 -12 -65 -39q-59 -44 -61 -46q-69 -46 -205 -56q-8 -16 -8 -54q0 -59 36 -81q-23 -43 -70 -60q-11 78 -11 198q-30 4 -90 17q-20 6 -101 55q-75 46 -87 46q1 0 -46 -43q-56 -51 -109 -81q-77 -43 -144 -43
q-55 0 -76 20v71q154 20 185 31q70 24 151 113q-56 75 -56 114q0 87 79 87q84 0 84 -88q0 -46 -19 -102q17 -33 88.5 -71.5t109.5 -38.5h34l6 6v102q-49 16 -97 33q-55 25 -55 76q0 66 69 122q66 53 134 53q64 0 122 -51t58 -115q0 -69 -61 -92q-58 -13 -117 -26v-99
q19 -9 43 -9q77 0 145 24q93 33 93 97q0 12 -6.5 35.5t-6.5 35.5q0 38 27 94q18 14 50 14q85 0 85 -99q0 -36 -65 -102q67 -68 100 -92q62 -44 126 -44q24 0 96 12l11 -12v-71zM870 788q0 51 -65 88q-9 -49 -29 -147h51q43 34 43 59zM737 729q-17 14 -17 45q0 19 8.5 55.5
t8.5 55.5q-37 -4 -68 -33q-34 -30 -34 -66q0 -57 53 -57h49z" />
  </g>

</svg>
