<?xml version="1.0" standalone="no"?>
<!DOCTYPE svg PUBLIC "-//W3C//DTD SVG 1.1//EN" "http://www.w3.org/Graphics/SVG/1.1/DTD/svg11.dtd" >
<svg viewBox="0 -442 2048 2048">
  <g transform="matrix(1 0 0 -1 0 1606)">
   <path fill="currentColor"
d="M393 1287q0 -53 -48 -91q-41 -32 -98 -43q4 -84 4 -135q0 -41 -37 -41q-29 0 -29 39q0 46 8 134q-55 4 -95 30q-48 32 -48 83q0 61 65 101q56 35 121 35q58 0 103 -26q54 -32 54 -86zM308 1285q0 63 -73 63q-38 0 -69 -24t-31 -61q0 -63 73 -63q38 0 69 24t31 61z" />
  </g>

</svg>
