<?xml version="1.0" standalone="no"?>
<!DOCTYPE svg PUBLIC "-//W3C//DTD SVG 1.1//EN" "http://www.w3.org/Graphics/SVG/1.1/DTD/svg11.dtd" >
<svg viewBox="0 -442 2048 2048">
  <g transform="matrix(1 0 0 -1 0 1606)">
   <path fill="currentColor"
d="M1461 427q-21 -29 -68 -29q-130 0 -309 186l-134 -86q-85 -47 -148 -47q-16 0 -31 3q-17 -24 -17 -51q0 -20 14.5 -57.5t14.5 -57.5q0 -33 -52 -41q-20 23 -20 60q0 23 8 66t9 64q-46 9 -136 36q-14 5 -84 50q-64 41 -75 41t-44 -34q-21 -23 -42 -45q-39 -35 -104.5 -61
t-116.5 -26q-53 0 -76 22v72q152 19 184 30q69 25 149 113q-53 71 -53 110q0 88 76 88q84 0 84 -90q0 -47 -18 -100q53 -66 163 -97q25 -7 35 -7q8 0 58 5v97q-168 26 -168 116q0 102 177 186q-7 14 -7 32q0 36 25.5 86t55.5 67q24 13 59 13q39 0 65 -25t26 -63
q0 -64 -169 -103q148 -92 148 -184q0 -94 -158 -125v-97q10 -6 22 -6q82 0 147 22q92 31 92 95q0 12 -5 36.5t-5 36.5q0 105 77 105q83 0 83 -96q0 -37 -66 -104q122 -131 232 -131q6 0 90 9l12 -11v-73zM904 1059q0 36 -47 36q-23 0 -44 -36q-20 -32 -21 -57h32q22 0 51 18
t29 39zM869 774q0 31 -24 67.5t-53 39.5q-8 -50 -8 -93v-62q30 8 83 36q2 8 2 12zM725 734v156q-30 -19 -61 -39q-29 -23 -29 -63q0 -16 18.5 -35t34.5 -19h37z" />
  </g>

</svg>
