<?xml version="1.0" standalone="no"?>
<!DOCTYPE svg PUBLIC "-//W3C//DTD SVG 1.1//EN" "http://www.w3.org/Graphics/SVG/1.1/DTD/svg11.dtd" >
<svg viewBox="0 -442 2048 2048">
  <g transform="matrix(1 0 0 -1 0 1606)">
   <path fill="currentColor"
d="M1172 1293q0 -58 -88 -89q-65 -23 -137 -23q-45 0 -101 8q-4 -35 -19 -99q-7 -18 -27 -18q-26 0 -26 21q0 8 28 103q-38 8 -114 23q-47 -185 -149 -185q-98 0 -98 179q0 24 6 59q-102 22 -164 22q-118 0 -118 -55q0 -21 25 -43q-40 -31 -78 -31q-62 0 -62 60q0 58 88 89
q66 24 137 24q67 0 181 -24q48 186 149 186q98 0 98 -178q0 -23 -6 -59q38 -8 115 -24q4 34 18 98q6 18 26 18q26 0 26 -21q0 -10 -26 -103q45 -7 83 -7q118 0 118 56q0 21 -25 43q40 31 78 31q62 0 62 -61zM640 1321q0 93 -45 93q-50 0 -78 -113l120 -25q3 21 3 45z
M628 1232l-120 26q-3 -20 -3 -41q0 -96 45 -96q51 0 78 111z" />
  </g>

</svg>
