<?xml version="1.0" standalone="no"?>
<!DOCTYPE svg PUBLIC "-//W3C//DTD SVG 1.1//EN" "http://www.w3.org/Graphics/SVG/1.1/DTD/svg11.dtd" >
<svg viewBox="0 -442 2048 2048">
  <g transform="matrix(1 0 0 -1 0 1606)">
   <path fill="currentColor"
d="M906 1491q0 -13 -10 -20l-225 -158q32 -52 32 -101q0 -44 -27.5 -74.5t-70.5 -30.5q-74 0 -134 66l-3 -1q-74 -41 -149 -81q-88 -46 -161 -46q-108 0 -108 72q0 63 82 63q18 0 40 -6q-8 -17 -8 -33q0 -40 54 -40q51 0 118 41q107 66 108 66q-33 53 -33 106q0 44 27.5 74
t70.5 30q74 0 136 -70q234 166 242 166q19 0 19 -23zM603 1320q-26 29 -58 29q-28 0 -46 -22t-18 -50q0 -18 8 -38zM632 1247q0 16 -7 35l-113 -79q27 -28 58 -28q62 0 62 72z" />
  </g>

</svg>
