<?xml version="1.0" standalone="no"?>
<!DOCTYPE svg PUBLIC "-//W3C//DTD SVG 1.1//EN" "http://www.w3.org/Graphics/SVG/1.1/DTD/svg11.dtd" >
<svg viewBox="0 -442 2048 2048">
  <g transform="matrix(1 0 0 -1 0 1606)">
   <path fill="currentColor"
d="M713 35q0 -26 -31 -26q-11 0 -76 69l-49 -49q75 -64 75 -75q0 -26 -29 -26q-11 0 -78 71q-19 -18 -51 -48q78 -67 78 -77q0 -26 -30 -26q-12 0 -80 72q-20 -18 -60 -52q50 -54 50 -115q0 -43 -31 -70.5t-75 -27.5q-60 0 -119 41q-29 -34 -92 -99q-13 -12 -31 -12
q-34 0 -34 29q0 21 117 118q-49 53 -49 113q0 43 31 70.5t75 27.5q59 0 119 -42q19 20 56 60q-75 65 -75 78q0 26 29 26q12 0 78 -71l48 49q-75 65 -75 75q0 27 30 27q11 0 76 -70q22 22 48 49q-74 64 -74 75q0 27 31 27q11 0 75 -69q49 50 68 50q34 0 34 -30q0 -15 -54 -68
q75 -64 75 -74zM361 -213q0 36 -32 61.5t-69 25.5q-28 0 -50.5 -18t-22.5 -46q0 -36 34 -62q31 -24 68 -24q72 0 72 63z" />
  </g>

</svg>
