<?xml version="1.0" standalone="no"?>
<!DOCTYPE svg PUBLIC "-//W3C//DTD SVG 1.1//EN" "http://www.w3.org/Graphics/SVG/1.1/DTD/svg11.dtd" >
<svg viewBox="0 -442 2048 2048">
  <g transform="matrix(1 0 0 -1 0 1606)">
   <path fill="currentColor"
d="M632 -6q0 -26 -29 -26q-12 0 -79 71q-17 -16 -50 -47q78 -68 78 -78q0 -26 -30 -26q-11 0 -81 73q-37 -34 -59 -53q50 -54 50 -115q0 -43 -31 -70.5t-75 -27.5q-60 0 -119 41q-29 -35 -92 -99q-13 -12 -31 -12q-34 0 -34 29q0 21 117 118q-49 53 -49 113q0 43 31 70.5
t75 27.5q59 0 119 -42q19 20 56 60q-75 65 -75 78q0 26 29 26q12 0 78 -71l48 49q-75 65 -75 75q0 27 30 27q12 0 76 -69q49 50 67 50q36 0 36 -29q0 -15 -56 -68q75 -64 75 -75zM361 -173q0 36 -32 61.5t-69 25.5q-28 0 -50.5 -18t-22.5 -46q0 -36 34 -62q31 -24 68 -24
q72 0 72 63z" />
  </g>

</svg>
