<?xml version="1.0" standalone="no"?>
<!DOCTYPE svg PUBLIC "-//W3C//DTD SVG 1.1//EN" "http://www.w3.org/Graphics/SVG/1.1/DTD/svg11.dtd" >
<svg viewBox="0 -442 2048 2048">
  <g transform="matrix(1 0 0 -1 0 1606)">
   <path fill="currentColor"
d="M632 1517q0 -20 -117 -117q50 -54 50 -114q0 -43 -31 -70.5t-75 -27.5q-58 0 -119 43q-38 -41 -57 -61q76 -66 76 -77q0 -26 -31 -26q-12 0 -77 70q-15 -17 -46 -49q73 -63 73 -75q0 -27 -30 -27q-11 0 -75 69q-49 -50 -69 -50q-34 0 -34 30q0 15 55 67q-75 64 -75 75
q0 26 31 26q11 0 77 -70l51 46q-78 68 -78 79q0 26 29 26q10 0 81 -74q39 36 60 54q-51 55 -51 114q0 43 31 70.5t75 27.5q60 0 119 -41q101 112 123 112q34 0 34 -30zM494 1320q0 36 -32 61.5t-69 25.5q-28 0 -50.5 -18t-22.5 -46q0 -36 34 -62q31 -24 68 -24q72 0 72 63z
" />
  </g>

</svg>
