<?xml version="1.0" standalone="no"?>
<!DOCTYPE svg PUBLIC "-//W3C//DTD SVG 1.1//EN" "http://www.w3.org/Graphics/SVG/1.1/DTD/svg11.dtd" >
<svg viewBox="0 -442 2048 2048">
  <g transform="matrix(1 0 0 -1 0 1606)">
   <path fill="currentColor"
d="M713 1557q0 -20 -117 -117q50 -54 50 -114q0 -43 -31 -70.5t-75 -27.5q-58 0 -119 43q-19 -20 -57 -61q76 -66 76 -77q0 -26 -31 -26q-12 0 -77 70q-16 -16 -47 -49q74 -64 74 -75q0 -27 -31 -27q-11 0 -76 71l-47 -49q73 -63 73 -75q0 -28 -29 -28q-12 0 -76 70
q-49 -50 -69 -50q-34 0 -34 29q0 14 55 68q-75 64 -75 74q0 27 31 27q10 0 76 -70q1 2 50 49q-76 65 -76 75q0 26 30 26q12 0 78 -70q17 16 50 48q-78 67 -78 77q0 26 30 26q12 0 81 -73q38 34 60 53q-51 55 -51 114q0 43 30.5 70.5t74.5 27.5q61 0 120 -41q101 112 123 112
q34 0 34 -30zM575 1360q0 36 -32 61.5t-69 25.5q-28 0 -50.5 -18t-22.5 -46q0 -36 32 -61t69 -25q73 0 73 63z" />
  </g>

</svg>
