<?xml version="1.0" standalone="no"?>
<!DOCTYPE svg PUBLIC "-//W3C//DTD SVG 1.1//EN" "http://www.w3.org/Graphics/SVG/1.1/DTD/svg11.dtd" >
<svg viewBox="0 -442 2048 2048">
  <g transform="matrix(1 0 0 -1 0 1606)">
   <path fill="currentColor"
d="M444 557q0 -78 -63 -121q-54 -38 -136 -38q-77 0 -131 33q-64 39 -64 111q0 71 97 124q-25 23 -48.5 47t-23.5 65q0 17 3 31l62 18q0 -2 -1 -5q0 -42 55 -74q49 -28 94 -28q32 0 52 24t20 56q0 38 -27 66l32 33q53 -32 53 -89q0 -70 -79 -95q-23 -7 -23 -10t25 -14
q103 -46 103 -134zM376 515q0 50 -44 77q-10 6 -87 34l-68 25q-28 0 -46 -32q-15 -28 -15 -58q0 -60 40 -99t101 -39q119 0 119 92z" />
  </g>

</svg>
