<?xml version="1.0" standalone="no"?>
<!DOCTYPE svg PUBLIC "-//W3C//DTD SVG 1.1//EN" "http://www.w3.org/Graphics/SVG/1.1/DTD/svg11.dtd" >
<svg viewBox="0 -419 2154 2048">
  <g transform="matrix(1 0 0 -1 0 1638)">
   <path fill="currentColor"
d="M2154 -239q0 -74 -53 -127t-127 -53h-1598q-74 0 -127 53t-53 127v1599q0 74 53 127t127 53h1598q74 0 127 -53t53 -127v-1599zM1728 1365v21h-48v44h32v21h-32v43h48v22h-84v-151h84zM2081 978v154h-18l-32 -17v-21h16v-116h34zM1608 1365v151h-21v-78l-85 78h-11v-151
h21v78l85 -78h11zM2112 817v84q0 37 -36 37h-75v-157h75q36 0 36 36zM1461 1365v151h-33v-151h33zM1399 1494v22h-101v-22h32v-129h37v129h32zM2112 620v84q0 36 -36 36h-39q-36 0 -36 -34v-88q0 -34 36 -34h39q36 0 36 36zM1271 1365v151h-21v-78l-85 78h-11v-151h21v78
l85 -78h11zM2098 521v21h-84v-154h36v66h32v22h-32v45h48zM1123 1365v116q0 35 -33 35h-35q-33 0 -33 -34v-117h37v65h27v-65h37zM982 1365v21h-62l62 110v20h-101v-22h62l-62 -110v-19h101zM2106 317v28h-102v-157h41v66h47v28h-47v35h61zM848 1465v51h-37v-51l-4 -10
l-9 -4l-10 4l-4 10v51h-37v-51q0 -30 32 -35v-65h37v65q32 5 32 35zM723 1400q0 34 -22 41q22 8 22 32q0 43 -35 43h-66v-151h66q35 0 35 35zM1959 -79v1279q0 59 -42.5 101.5t-101.5 42.5h-1280q-59 0 -101.5 -42.5t-42.5 -101.5v-1279q0 -59 42.5 -101.5t101.5 -42.5h1280
q59 0 101.5 42.5t42.5 101.5zM319 978v154h-18l-32 -17v-21h15v-116h35zM1590 -395v21h-47v130h-36v-151h83zM349 817v84q0 37 -36 37h-75v-157h75q36 0 36 36zM1479 -395v116q0 35 -32 35h-36q-32 0 -32 -34v-117h36v65h28v-65h36zM1350 -358h-20q-2 -16 -14 -16h-15l-10 4
l-5 10v80l5 10l10 4h15q12 0 14 -16h20q-2 38 -34 38h-32q-34 0 -34 -35v-81q0 -35 34 -35h32q32 0 34 37zM349 620v84q0 36 -36 36h-39q-36 0 -36 -34v-88q0 -34 36 -34h39q36 0 36 36zM1224 -395v151h-33v-151h33zM1164 -360q0 20 -24 48.5t-24 31.5l4 11q4 2 11 4
q10 0 12 -17h21q-3 37 -32 37h-20q-32 0 -32 -34q0 -21 23.5 -49t23.5 -32q-1 -4 -3 -10l-10 -4l-9 3l-5 9l1 4h-21q0 -37 32 -37h19q33 0 33 35zM349 421v85q0 36 -36 36h-39q-36 0 -36 -35v-87q0 -35 36 -35h39q36 0 36 36zM1055 -360v116h-37v-116l-4 -10l-10 -4l-9 4
l-4 10v116h-37v-118q0 -33 33 -33h35q33 0 33 35zM349 224v84q0 36 -36 36h-39q-36 0 -36 -34v-88q0 -34 36 -34h39q36 0 36 36zM927 -395v151h-20l-68 -69l-69 69h-10v-151h21v86l54 -55l54 55v-86h38zM2071 818l-4 -11l-11 -4h-15v113h15l11 -5l4 -10v-83zM2071 620
l-4 -10l-11 -4l-10 4l-5 10v84l5 10l10 4l11 -4l4 -10v-84zM1086 1451h-27v29l4 10l9 4l10 -4l4 -10v-29zM1841 862q0 -96 -96 -151q-80 -46 -184 -46q-23 0 -52 9q20 21 48 36q53 16 102 31q75 24 75 69q0 6 -49.5 27t-49.5 57q0 30 40 49q32 15 66 15q100 0 100 -96z
M1863 528q0 -92 -94 -149q-81 -49 -179 -49q-40 0 -56 15q19 27 128 60q94 29 94 76q0 21 -16 23q7 -1 -31 -1q-49 0 -49 62q0 64 106 64q42 0 69.5 -29.5t27.5 -71.5zM686 1465l-4 -10l-10 -4h-13v43h13l10 -4l4 -10v-15zM686 1400l-4 -10l-10 -4h-13v44h13q14 0 14 -14
v-16zM1857 192q0 -93 -93 -147q-79 -46 -178 -46q-40 0 -60 6q8 28 119 62q106 32 106 76q0 11 -49.5 32.5t-49.5 56.5q0 29 37 48q31 15 64 15q104 0 104 -103zM1474 82q0 -38 -110 -60q-75 -15 -140 -15q-68 0 -124 40q-62 43 -62 109q0 86 58 124q-44 36 -49 43
q-17 21 -17 62q0 81 71 152q-66 61 -66 100q0 72 77 152q-59 71 -59 110q0 18 7 38q-22 14 -171 44q-144 29 -180 29q-41 0 -112.5 -30t-91.5 -30q-15 0 -18 7q0 64 101 114q87 43 159 43q71 0 156 -25q34 -10 150 -47q14 -6 40 -13q89 93 175 93q43 0 77 -23q38 -25 38 -66
q0 -61 -82 -85q-27 -8 -132 -17q-2 -4 -2 -10q0 -16 16.5 -41.5t31.5 -25.5q14 0 41.5 6.5t41.5 6.5q80 0 80 -65q0 -29 -24.5 -51.5t-53.5 -22.5q-12 0 -35 6.5t-35 6.5q-22 0 -53.5 -29.5t-31.5 -50.5q0 -11 19 -35t29 -24q-7 0 -8 2q6 5 41 16q58 17 71 17q78 0 78 -61
q0 -31 -48 -62q-44 -30 -77 -30q-16 0 -68 14q-29 -32 -29 -72q0 -24 11 -53q13 -36 33 -37q59 49 105 49q27 0 50 -19t23 -45q0 -36 -47 -60q-40 -21 -80 -21q-9 0 -26 2.5t-26 2.5q-20 0 -35 -34q-13 -29 -13 -52q0 -40 38 -67q34 -25 75 -25q35 0 213 27v-12zM309 818
l-5 -11l-11 -4h-14v113h14l11 -5l5 -10v-83zM1443 -309h-28v29l5 10l9 4l9 -4l5 -10v-29zM309 620l-5 -10l-10 -4l-11 4l-4 10v84l4 10l11 4l10 -4l5 -10v-84zM309 422l-5 -10l-10 -5l-11 5l-4 10v83l4 11l11 4l10 -4l5 -11v-83zM309 225l-5 -11l-10 -4l-11 4l-4 11v83l4 10
l11 4l10 -4l5 -10v-83z" />
  </g>

</svg>
