<?xml version="1.0" standalone="no"?>
<!DOCTYPE svg PUBLIC "-//W3C//DTD SVG 1.1//EN" "http://www.w3.org/Graphics/SVG/1.1/DTD/svg11.dtd" >
<svg viewBox="0 -442 2048 2048">
  <g transform="matrix(1 0 0 -1 0 1606)">
   <path fill="currentColor"
d="M722 139q0 -28 -23 -49t-51 -21q-29 0 -53.5 19t-24.5 48q0 80 68 80q84 0 84 -77zM688 483l-264 -402q243 -120 243 -297q0 -91 -59 -157q-62 -69 -152 -69q-61 0 -110 37q-53 40 -53 99q0 78 100 78q41 0 56 -50q23 -78 50 -78q71 0 71 84q0 72 -90 129q-76 38 -151 77
l-238 -370h-91l258 405q-248 127 -248 294q0 89 59 158.5t146 69.5q67 0 116 -34q55 -39 55 -103q0 -33 -25.5 -56.5t-59.5 -23.5q-57 0 -78.5 65.5t-51.5 65.5q-27 0 -45 -27.5t-18 -56.5q0 -68 91 -129q36 -23 152 -77l244 368h93zM162 -100q0 -27 -23 -48t-50 -21
q-77 0 -77 72q0 77 73 77q77 0 77 -80z" />
  </g>

</svg>
