<?xml version="1.0" standalone="no"?>
<!DOCTYPE svg PUBLIC "-//W3C//DTD SVG 1.1//EN" "http://www.w3.org/Graphics/SVG/1.1/DTD/svg11.dtd" >
<svg viewBox="-1307 -442 2048 2048">
  <g transform="matrix(1 0 0 -1 0 1606)">
   <path fill="currentColor"
d="M-356 1509q0 -52 -74 -88q33 -42 33 -85q0 -95 -140 -95q-50 0 -86 22q-43 26 -43 73q0 72 93 105q-28 38 -28 68q0 46 40 73q35 24 83 24t83 -24q39 -27 39 -73zM-657 296q0 -181 -168 -244q2 -11 28 -132q17 -79 17 -133q0 -82 -56 -133.5t-138 -51.5q-73 0 -128 41
q-61 45 -61 115q0 45 31.5 85.5t75.5 40.5q43 0 73 -33t30 -76q0 -96 -107 -96q27 -42 87 -42q50 0 93 28q63 41 63 142q0 37 -43 232q-43 -10 -83 -10q-148 0 -256 113t-108 262q0 129 92 262q53 76 189 212q-34 122 -34 231q0 88 25 171q31 102 88 143q21 15 39 15t35 -20
q81 -96 81 -276q0 -249 -172 -408l37 -179q27 5 45 5q100 0 165 -84q60 -77 60 -180zM-410 1514q0 64 -61 64q-47 0 -47 -41q0 -39 67 -93q41 33 41 70zM-474 1310q0 36 -78 110q-60 -37 -60 -84q0 -29 25 -47t55 -18q58 0 58 39zM-835 1201q0 85 -52 85q-62 0 -101 -109
q-31 -84 -31 -162q0 -59 22 -111q57 35 109.5 132t52.5 165zM-728 245q0 80 -47 133q-50 55 -129 55l70 -348q106 44 106 160zM-866 74l-71 355q-44 -13 -77 -53.5t-33 -85.5q0 -58 45.5 -97t45.5 -36l-11 -7q-62 16 -102 66.5t-40 114.5q0 67 42.5 129.5t104.5 86.5
l-31 161q-239 -199 -239 -388q0 -110 84 -187q81 -75 192 -75q27 0 90 16z" />
  </g>

</svg>
