<?xml version="1.0" standalone="no"?>
<!DOCTYPE svg PUBLIC "-//W3C//DTD SVG 1.1//EN" "http://www.w3.org/Graphics/SVG/1.1/DTD/svg11.dtd" >
<svg viewBox="0 -442 2048 2048">
  <g transform="matrix(1 0 0 -1 0 1606)">
   <path fill="currentColor"
d="M853 -442h-67v167h-171v-167h-69v167h-171v-167h-70v167h-170v-167h-68v1397h786v-1397zM786 643v151h-171v-151h171zM786 429v151h-171v-151h171zM546 643v151h-171v-151h171zM786 216v150h-171v-150h171zM546 429v151h-171v-151h171zM305 643v151h-170v-151h170zM786 2
v151h-171v-151h171zM546 216v150h-171v-150h171zM305 429v151h-170v-151h170zM786 -212v151h-171v-151h171zM546 2v151h-171v-151h171zM305 216v150h-170v-150h170zM546 -212v151h-171v-151h171zM305 2v151h-170v-151h170zM305 -212v151h-170v-151h170z" />
  </g>

</svg>
