<?xml version="1.0" standalone="no"?>
<!DOCTYPE svg PUBLIC "-//W3C//DTD SVG 1.1//EN" "http://www.w3.org/Graphics/SVG/1.1/DTD/svg11.dtd" >
<svg viewBox="0 -442 2048 2048">
  <g transform="matrix(1 0 0 -1 0 1606)">
   <path fill="currentColor"
d="M946 -442h-64v465h64v-465zM856 -442h-61v465h61v-465zM796 -214q0 -91 -103 -139q-79 -36 -183 -36q-111 0 -189 37q-102 49 -102 147q0 89 102 136q80 37 181 37q109 0 189 -37q105 -49 105 -145zM219 -442h-65v465h65v-465zM131 -442h-64v465h64v-465zM608 -259
q0 66 -28 119q-35 66 -95 66q-81 0 -81 -84q0 -65 28 -121q35 -69 93 -69q83 0 83 89z" />
  </g>

</svg>
