<?xml version="1.0" standalone="no"?>
<!DOCTYPE svg PUBLIC "-//W3C//DTD SVG 1.1//EN" "http://www.w3.org/Graphics/SVG/1.1/DTD/svg11.dtd" >
<svg viewBox="0 -442 2048 2048">
  <g transform="matrix(1 0 0 -1 0 1606)">
   <path fill="currentColor"
d="M850 126q0 -134 -68 -252h-42q61 125 61 228q0 106 -106 194q-59 50 -198 120v-616q0 -99 -93 -168q-85 -64 -187 -64q-59 0 -102 32q-48 35 -48 92q0 93 97 168q91 69 187 69q56 0 96 -26v1282h50q7 -91 95 -184q80 -82 160 -165q84 -111 84 -252q0 -50 -19 -119
q25 -45 25 -100q0 -59 -26 -109q34 -52 34 -130zM788 570q0 105 -101 204q-56 55 -190 141q4 -73 88 -156q68 -63 137 -127q37 -41 65 -93q1 12 1 31zM788 317q0 201 -290 363q12 -97 120 -201q151 -147 169 -173q1 12 1 11z" />
  </g>

</svg>
