<?xml version="1.0" standalone="no"?>
<!DOCTYPE svg PUBLIC "-//W3C//DTD SVG 1.1//EN" "http://www.w3.org/Graphics/SVG/1.1/DTD/svg11.dtd" >
<svg viewBox="0 -442 2048 2048">
  <g transform="matrix(1 0 0 -1 0 1606)">
   <path fill="currentColor"
d="M166 2q0 -27 -41 -58t-41 -50q0 -37 48 -61q-42 1 -72 23q-34 25 -34 65q0 27 37.5 57t37.5 49q0 18 -37.5 52.5t-37.5 68.5q0 28 37.5 56.5t37.5 49.5q0 19 -37.5 53t-37.5 68q0 26 37.5 58.5t37.5 48.5q0 17 -37.5 54.5t-37.5 68.5q0 27 37.5 57t37.5 48t-31 56
q30 -4 61 -27q35 -25 35 -53q0 -31 -41 -61.5t-41 -49.5q0 -18 41 -55t41 -63q0 -25 -41 -58t-41 -53q0 -15 41 -50t41 -66q0 -29 -41 -61t-41 -52q0 -14 41 -49.5t41 -65.5z" />
  </g>

</svg>
