<?xml version="1.0" standalone="no"?>
<!DOCTYPE svg PUBLIC "-//W3C//DTD SVG 1.1//EN" "http://www.w3.org/Graphics/SVG/1.1/DTD/svg11.dtd" >
<svg viewBox="0 -442 2048 2048">
  <g transform="matrix(1 0 0 -1 0 1606)">
   <path fill="currentColor"
d="M444 -248q0 -83 -53.5 -133.5t-136.5 -50.5q-89 0 -146 56t-57 145q0 97 73 204l134 170q73 92 73 150q0 44 -30.5 72.5t-74.5 28.5q-76 0 -76 -67q0 -21 29.5 -45t29.5 -54q0 -27 -19.5 -46.5t-46.5 -19.5q-42 0 -69 36q-24 33 -24 76q0 83 53.5 133.5t136.5 50.5
q89 0 146 -56t57 -145q0 -95 -73 -203l-134 -170q-73 -93 -73 -151q0 -44 30.5 -72.5t74.5 -28.5q76 0 76 67q0 21 -29.5 45t-29.5 54q0 27 19.5 46.5t46.5 19.5q42 0 69 -36q24 -33 24 -76z" />
  </g>

</svg>
