<?xml version="1.0" standalone="no"?>
<!DOCTYPE svg PUBLIC "-//W3C//DTD SVG 1.1//EN" "http://www.w3.org/Graphics/SVG/1.1/DTD/svg11.dtd" >
<svg viewBox="0 -442 2048 2048">
  <g transform="matrix(1 0 0 -1 0 1606)">
   <path fill="currentColor"
d="M940 -123q0 -89 -56 -146t-145 -57q-101 0 -219 83v-189h-50v226q-66 54 -133 108q-71 52 -122 52q-44 0 -72.5 -30.5t-28.5 -74.5q0 -76 67 -76q21 0 45 29.5t54 29.5q27 0 46.5 -19.5t19.5 -46.5q0 -42 -34.5 -67.5t-77.5 -25.5q-83 0 -133.5 53.5t-50.5 136.5
q0 89 56 146t145 57q100 0 219 -84v190h50v-227q66 -54 134.5 -106.5t120.5 -52.5q44 0 72.5 30.5t28.5 74.5q0 76 -67 76q-21 0 -45 -29.5t-54 -29.5q-27 0 -46.5 19.5t-19.5 46.5q0 42 36 69q33 24 76 24q83 0 133.5 -53.5t50.5 -136.5z" />
  </g>

</svg>
