<?xml version="1.0" standalone="no"?>
<!DOCTYPE svg PUBLIC "-//W3C//DTD SVG 1.1//EN" "http://www.w3.org/Graphics/SVG/1.1/DTD/svg11.dtd" >
<svg viewBox="0 -442 2048 2048">
  <g transform="matrix(1 0 0 -1 0 1606)">
   <path fill="currentColor"
d="M940 -137q0 -83 -50.5 -136.5t-133.5 -53.5q-43 0 -76 24q-36 27 -36 69q0 27 19.5 46.5t46.5 19.5q30 0 54 -29.5t45 -29.5q67 0 67 76q0 44 -28.5 74.5t-72.5 30.5q-58 0 -150 -73l-170 -134q-107 -73 -204 -73q-89 0 -145 57t-56 146q0 83 50.5 136.5t133.5 53.5
q43 0 76 -24q36 -27 36 -69q0 -27 -19.5 -46.5t-46.5 -19.5q-30 0 -54 29.5t-45 29.5q-67 0 -67 -76q0 -44 28.5 -74.5t72.5 -30.5q58 0 151 73l170 134q107 73 203 73q89 0 145 -57t56 -146z" />
  </g>

</svg>
