<?xml version="1.0" standalone="no"?>
<!DOCTYPE svg PUBLIC "-//W3C//DTD SVG 1.1//EN" "http://www.w3.org/Graphics/SVG/1.1/DTD/svg11.dtd" >
<svg viewBox="0 -442 2048 2048">
  <g transform="matrix(1 0 0 -1 0 1606)">
   <path fill="currentColor"
d="M1146 -85q0 -59 -59 -59q-56 0 -56 59q0 57 59 57q56 0 56 -57zM1035 48q0 -71 -41 -128q-46 -64 -114 -64q-80 0 -114 90q-128 -93 -141 -93q-45 0 -85 97q-38 -30 -109 -94q-22 -1 -28.5 17t-11.5 36q-20 50 -62 82q-108 -135 -152 -135q-30 0 -30 28q0 60 94.5 115
t94.5 111q0 32 -49 92.5t-49 83.5q0 11 36 79q38 73 44 97q-77 -6 -136 -43q-73 -46 -73 -115q0 -46 33 -46q42 0 49 81h40v-41q0 -51 -25 -91q-28 -48 -76 -48q-43 0 -69.5 30.5t-26.5 73.5q0 107 103 178q92 65 204 65q87 0 159 -54q77 -59 77 -143q0 -30 -23.5 -55
t-53.5 -25q-81 0 -126 126l40 15q22 -53 52 -53q32 0 32 37q0 81 -131 107q-45 -100 -45 -111q0 -35 50.5 -93t50.5 -90q0 -34 -67 -132q61 -11 135 -62q19 6 36 27q-3 26 -3 21q0 74 32 132q38 70 106 70q26 0 47 -23.5t21 -49.5q0 -62 -120 -144q16 -60 55 -60q41 0 88 49
q-4 39 -4 31q0 131 122 192q-73 121 -272 163l8 39q168 -20 288 -110q140 -106 140 -262zM937 5q0 98 -40 171q-65 -42 -65 -153q0 -108 59 -108q46 0 46 90zM662 131q0 28 -21 28q-44 0 -44 -74q0 -15 3 -34q62 44 62 80z" />
  </g>

</svg>
