<?xml version="1.0" standalone="no"?>
<!DOCTYPE svg PUBLIC "-//W3C//DTD SVG 1.1//EN" "http://www.w3.org/Graphics/SVG/1.1/DTD/svg11.dtd" >
<svg viewBox="0 -442 2048 2048">
  <g transform="matrix(1 0 0 -1 0 1606)">
   <path fill="currentColor"
d="M723 -6q-14 -30 -49 -30q-76 0 -76 66q0 10 2 30.5t2 30.5q0 43 -48 43q-7 0 -22 -3t-22 -3q-78 0 -78 59q0 11 7 33t7 33q0 39 -34 39h-84q-23 0 -41 18t-18 41q0 11 6 33t6 33q0 39 -43 39q-9 0 -26 -3.5t-26 -3.5q-72 0 -72 54q0 10 3 29.5t3 29.5q0 42 -49 55l-37 -7
q10 13 34 35q46 5 37 5q77 0 77 -60q0 -11 -3.5 -34t-3.5 -34q0 -36 46 -36q9 0 25.5 3t25.5 3q75 0 75 -61q0 -11 -6.5 -32.5t-6.5 -32.5q0 -38 27 -38h84q66 0 66 -61q0 -11 -6.5 -32.5t-6.5 -32.5q0 -41 46 -41q8 0 24 3.5t24 3.5q76 0 76 -57q0 -11 -3.5 -32.5
t-3.5 -32.5q0 -42 62 -52z" />
  </g>

</svg>
