<?xml version="1.0" standalone="no"?>
<!DOCTYPE svg PUBLIC "-//W3C//DTD SVG 1.1//EN" "http://www.w3.org/Graphics/SVG/1.1/DTD/svg11.dtd" >
<svg viewBox="0 -442 2048 2048">
  <g transform="matrix(1 0 0 -1 0 1606)">
   <path fill="currentColor"
d="M714 584q0 -76 -65 -76q-10 0 -29 3t-29 3q-43 0 -43 -61v-18q1 -13 1 -19q0 -72 -57 -72q-12 0 -33.5 6.5t-33.5 6.5q-34 0 -34 -51q0 -9 2 -26t2 -26q0 -74 -64 -74q-11 0 -31.5 7t-31.5 7q-43 0 -43 -45q0 -10 2 -31t2 -31q0 -63 -63 -63q-10 0 -28.5 3t-28.5 3
q-46 0 -43 -64q-32 13 -32 55q0 74 62 74q10 0 30 -3t30 -3q38 0 43 37q-1 -10 -1 67q0 66 55 66q11 0 32.5 -6.5t32.5 -6.5q41 0 41 48q0 11 -1.5 33t-1.5 33q0 63 55 63q11 0 32 -6.5t32 -6.5q32 0 40 29q3 11 3 56q0 85 61 85q10 0 30 -3.5t30 -3.5q47 0 42 73
q33 -21 33 -62z" />
  </g>

</svg>
