<?xml version="1.0" standalone="no"?>
<!DOCTYPE svg PUBLIC "-//W3C//DTD SVG 1.1//EN" "http://www.w3.org/Graphics/SVG/1.1/DTD/svg11.dtd" >
<svg viewBox="0 -442 2048 2048">
  <g transform="matrix(1 0 0 -1 0 1606)">
   <path fill="currentColor"
d="M660 126q0 -133 -69 -252h-41q61 125 61 228q0 106 -106 194q-59 50 -198 120v-499l167 -167l-192 -192l-192 192l167 167v1038h49q6 -77 36 -123q19 -28 90 -91q221 -196 221 -362q0 -62 -27 -122q34 -52 34 -131zM599 350q0 182 -292 341v-4q0 -77 55 -148
q31 -39 120 -115q83 -71 114 -116q3 23 3 42z" />
  </g>

</svg>
