<?xml version="1.0" standalone="no"?>
<!DOCTYPE svg PUBLIC "-//W3C//DTD SVG 1.1//EN" "http://www.w3.org/Graphics/SVG/1.1/DTD/svg11.dtd" >
<svg viewBox="0 -419 2154 2048">
  <g transform="matrix(1 0 0 -1 0 1638)">
   <path fill="currentColor"
d="M2154 -239q0 -74 -53 -127t-127 -53h-1598q-74 0 -127 53t-53 127v1599q0 74 53 127t127 53h1598q74 0 127 -53t53 -127v-1599zM2081 978v154h-18l-32 -17v-21h16v-116h34zM1590 1365v21h-47v130h-36v-151h83zM2112 817v84q0 37 -36 37h-75v-157h75q36 0 36 36z
M1479 1365v116q0 35 -32 35h-36q-32 0 -32 -34v-117h36v65h28v-65h36zM1350 1402h-20q-2 -16 -14 -16h-15l-10 4l-5 10v80l5 10l10 4h15q12 0 14 -16h20q-2 38 -34 38h-32q-34 0 -34 -35v-81q0 -35 34 -35h32q32 0 34 37zM2081 583v155h-18l-32 -18v-20h16v-117h34z
M1224 1365v151h-33v-151h33zM1164 1400q0 20 -24 48.5t-24 31.5l4 11q4 2 11 4q10 0 12 -17h21q-3 37 -32 37h-20q-32 0 -32 -34q0 -21 23.5 -49t23.5 -32l-3 -10l-10 -4l-9 3l-5 9l1 4h-21q0 -37 32 -37h19q33 0 33 35zM2098 521v21h-84v-154h36v66h32v22h-32v45h48z
M1055 1400v116h-37v-116l-4 -10l-10 -4l-9 4l-4 10v116h-37v-118q0 -33 33 -33h35q33 0 33 35zM2106 317v28h-102v-157h41v66h47v28h-47v35h61zM927 1365v151h-20l-68 -69l-69 69h-10v-151h21v86l54 -55l54 55v-86h38zM1959 -79v1279q0 59 -42.5 101.5t-101.5 42.5h-1280
q-59 0 -101.5 -42.5t-42.5 -101.5v-1279q0 -59 42.5 -101.5t101.5 -42.5h1280q59 0 101.5 42.5t42.5 101.5zM319 978v154h-18l-32 -17v-21h15v-116h35zM1634 -360q0 21 -24 49t-24 31l4 11q4 2 11 4q11 0 13 -17h20q-2 38 -32 38h-20q-32 0 -32 -35q0 -21 23.5 -49t23.5 -32
l-3 -10l-10 -4l-9 3l-4 9v4h-21q0 -37 32 -37h19q33 0 33 35zM349 817v84q0 37 -36 37h-75v-157h75q36 0 36 36zM1514 -395v21h-47v130h-36v-151h83zM1398 -360v81q0 34 -32 34h-35q-33 0 -33 -33v-84q0 -33 33 -33h35q32 0 32 35zM319 583v155h-18l-32 -18v-20h15v-117h35z
M1264 -360q0 34 -21 41q21 8 21 32q0 43 -34 43h-66v-151h66q34 0 34 35zM349 421v85q0 36 -36 36h-39q-36 0 -36 -35v-87q0 -35 36 -35h39q36 0 36 36zM1127 -395v151h-19l-69 -69l-68 69h-11v-151h21v86l54 -55l55 55v-86h37zM349 224v84q0 36 -36 36h-39q-36 0 -36 -34
v-88q0 -34 36 -34h39q36 0 36 36zM929 -295v51h-37v-51l-4 -10l-9 -4l-10 4l-4 10v51h-37v-51q0 -30 32 -35v-65h37v65q32 5 32 35zM800 -360q0 21 -24 49t-24 31l4 11q4 2 11 4q11 0 13 -17h20q-2 38 -32 38h-19q-33 0 -33 -35q0 -21 23.5 -49t23.5 -32l-3 -10l-10 -4l-9 3
l-4 9v4h-21q0 -37 32 -37h19q33 0 33 35zM2071 818l-4 -11l-11 -4h-15v113h15l11 -5l4 -10v-83zM1443 1451h-28v29l5 10l9 4l9 -4l5 -10v-29zM1732 992q0 -26 -21 -46.5t-47 -20.5t-45.5 20.5t-19.5 46.5q0 22 22 42.5t44 20.5q23 0 45 -20t22 -43zM1735 576
q0 -24 -20.5 -46.5t-44.5 -22.5t-46 22.5t-22 46.5t20.5 45.5t44.5 21.5q25 0 46.5 -21t21.5 -46zM1538 755q0 -283 -317 -527q-234 -180 -576 -301l-3 31q640 202 640 744q0 199 -39 303q-61 163 -227 163q-106 0 -200 -73q-100 -78 -100 -181q0 -13 5 -26q44 29 86 29
q59 0 104 -39t45 -97q0 -60 -45 -103.5t-105 -43.5q-90 0 -142 60q-49 56 -49 148q0 203 234 307q101 45 254 45q45 0 126 -23q309 -88 309 -416zM309 818l-5 -11l-11 -4h-14v113h14l11 -5l5 -10v-83zM1362 -360l-4 -10l-10 -4l-9 4l-4 10v80l4 10l9 4l10 -4l4 -10v-80z
M1228 -295l-4 -10l-10 -4h-13v43h13l10 -4l4 -10v-15zM1228 -360l-4 -10l-10 -4h-13v44h13q14 0 14 -14v-16zM309 422l-5 -10l-10 -5l-11 5l-4 10v83l4 11l11 4l10 -4l5 -11v-83zM309 225l-5 -11l-10 -4l-11 4l-4 11v83l4 10l11 4l10 -4l5 -10v-83z" />
  </g>

</svg>
