<?xml version="1.0" standalone="no"?>
<!DOCTYPE svg PUBLIC "-//W3C//DTD SVG 1.1//EN" "http://www.w3.org/Graphics/SVG/1.1/DTD/svg11.dtd" >
<svg viewBox="-1 -442 2048 2048">
  <g transform="matrix(1 0 0 -1 0 1606)">
   <path fill="currentColor"
d="M1384 1094q0 -8 -8 -31q-4 -12 -44 -15q-47 -3 -68 -22q-24 -21 -38 -76l-204 -792q-7 -29 -7 -50q0 -46 42 -58q20 -6 81 -6q10 0 10 -9q0 -45 -23 -45q-6 0 -60 4q-76 6 -126 6t-128 -6q-57 -4 -62 -4q-12 0 -12 10v4q0 28 10 35t40 7q77 0 103 97l184 720l-793 -719
q-4 -19 -4 -36q0 -46 42 -58q19 -6 81 -6q10 0 10 -9q0 -45 -23 -45q-7 0 -61 4q-75 6 -125 6t-129 -6q-56 -4 -61 -4q-12 0 -12 10v4q0 28 10 35t40 7q77 0 102 97l204 792q8 32 8 52q0 44 -40 56q-18 6 -76 6q-10 0 -10 10q0 44 25 44q5 0 59 -4q75 -6 124 -6q62 0 128 5
t62 5q10 0 10 -9q0 -8 -7 -31q-4 -12 -44 -15q-47 -3 -68 -22q-24 -21 -39 -76l-182 -710l794 718q2 13 2 29q0 44 -40 56q-18 6 -75 6q-11 0 -11 10q0 44 25 44q5 0 59 -4q75 -6 124 -6q62 0 128 5t62 5q11 0 11 -9z" />
  </g>

</svg>
