<?xml version="1.0" standalone="no"?>
<!DOCTYPE svg PUBLIC "-//W3C//DTD SVG 1.1//EN" "http://www.w3.org/Graphics/SVG/1.1/DTD/svg11.dtd" >
<svg viewBox="0 -442 2048 2048">
  <g transform="matrix(1 0 0 -1 0 1606)">
   <path fill="currentColor"
d="M1497 1093q0 -29 -13 -40q-30 -6 -59 -11q-51 -16 -79 -92l-295 -799q34 -105 128 -105q9 0 9 -8q0 -38 -21 -39l-191 -9q-17 -1 -35 54l-177 541l-486 -560q-30 -35 -44 -35q-11 0 -39 5t-46 5q-17 0 -51.5 -5t-51.5 -5q-8 0 -8 9q0 47 52 47q76 0 96 97l156 792
q5 25 5 42q0 50 -42 65q-21 7 -84 7q-12 0 -12 9q0 45 25 45q4 0 56 -4q72 -6 119 -6t122 6q54 4 61 4q13 0 11 -10l-1 -4q-6 -31 -14 -36t-39 -5q-62 0 -81 -98l-147 -744l486 560q10 10 25 10q14 0 19 -14l170 -519l259 707q10 26 10 45q0 54 -118 54q-11 0 -11 9
q0 45 24 45q4 0 47 -4q61 -6 101 -6t103 6q45 4 49 4q12 0 12 -10z" />
  </g>

</svg>
