<?xml version="1.0" standalone="no"?>
<!DOCTYPE svg PUBLIC "-//W3C//DTD SVG 1.1//EN" "http://www.w3.org/Graphics/SVG/1.1/DTD/svg11.dtd" >
<svg viewBox="-1 -442 2048 2048">
  <g transform="matrix(1 0 0 -1 0 1606)">
   <path fill="currentColor"
d="M884 329q0 -153 -168 -253q-144 -87 -307 -87q-35 0 -104 5.5t-104 5.5q-64 0 -128.5 -5t-61.5 -5q-12 0 -12 10q0 41 40 45q57 6 74 22q23 20 38 76l222 807q5 18 5 37q0 62 -123 62q-10 0 -10 9q0 45 25 45q7 0 60 -4q73 -6 125 -6q51 0 129 6q55 4 62 4q10 0 10 -9
t-7 -31q-5 -12 -43 -15q-44 -4 -65 -22q-25 -21 -40 -76l-89 -327q178 0 305 -57q167 -76 167 -229v-8zM735 339q0 107 -74 167q-68 55 -177 55q-12 0 -88 -3l-106 -381q-13 -46 -13 -70q0 -52 112 -52q136 0 236 72q110 81 110 212z" />
  </g>

</svg>
