<?xml version="1.0" standalone="no"?>
<!DOCTYPE svg PUBLIC "-//W3C//DTD SVG 1.1//EN" "http://www.w3.org/Graphics/SVG/1.1/DTD/svg11.dtd" >
<svg viewBox="0 -442 2048 2048">
  <g transform="matrix(1 0 0 -1 0 1606)">
   <path fill="currentColor"
d="M1375 1106q0 -2 -22 -65q-40 -120 -63 -252q-3 -21 -11 -61q-5 -18 -30 -18q-26 0 -26 15q0 8 5 31.5t5 36.5q0 57 -44 57q-27 0 -73 -26l-420 -230l329 -241q35 -25 57 -25q31 0 47 44q19 51 20 51q7 4 26 4q24 0 24 -10q0 -6 -20 -65q-27 -81 -39 -128.5t-26 -125.5
q-3 -21 -11 -60q-5 -15 -33 -15q-22 0 -22 12q0 8 4 26t4 27q0 76 -83 139l-358 269h-368q-95 0 -128 -61l-30 -74q-9 -6 -26 -6q-24 0 -24 12q0 3 20 64q43 129 66 255q2 21 10 60q4 14 33 14q23 0 23 -10q0 -9 -6 -32.5t-6 -36.5q0 -59 91 -59h340l566 320q120 69 140 144
q2 9 5 18t15 11q7 1 17 1q22 0 22 -10z" />
  </g>

</svg>
