<?xml version="1.0" standalone="no"?>
<!DOCTYPE svg PUBLIC "-//W3C//DTD SVG 1.1//EN" "http://www.w3.org/Graphics/SVG/1.1/DTD/svg11.dtd" >
<svg viewBox="0 -442 2048 2048">
  <g transform="matrix(1 0 0 -1 0 1606)">
   <path fill="currentColor"
d="M1354 741q-3 -14 -18 -59q-42 -124 -64 -246q-4 -28 -13 -63q-12 -18 -47 -8q-9 2 -6 13q15 57 15 76q0 48 -47 60q-15 4 -50 4h-205q-79 -292 -241 -361q-63 -27 -274 -23q-112 2 -200 -2q-67 -4 -96 -38q-11 -14 -28 -62q-11 -32 -36 -32q-8 0 -17.5 2.5t-6.5 13.5
q5 21 18 56q31 82 59 117q42 51 111 62q46 8 120 8q33 0 102 -2t103 -2q113 0 166 19q108 39 179 244h-571q-59 0 -82.5 -16t-39.5 -65q-13 -39 -38 -39q-9 0 -18.5 2.5t-6.5 13.5q0 2 20 58q40 120 62 244q3 20 11 58q6 25 49 14q9 -3 6 -13q-13 -53 -13 -71q0 -48 53 -58
q19 -4 44 -4h555q6 35 6 67q0 156 -128 189q-69 17 -211.5 5.5t-209.5 5.5q-71 18 -71 111q0 30 10 91q4 28 13 62q12 18 47 9q9 -3 6 -13q-14 -55 -14 -75q0 -55 66 -64q43 -6 148 -2q151 6 220 -12q167 -43 167 -266q0 -51 -9 -108h222q101 0 121 76q3 13 14 32
q15 11 38 5q13 -3 10 -14z" />
  </g>

</svg>
