<?xml version="1.0" standalone="no"?>
<!DOCTYPE svg PUBLIC "-//W3C//DTD SVG 1.1//EN" "http://www.w3.org/Graphics/SVG/1.1/DTD/svg11.dtd" >
<svg viewBox="0 -442 2048 2048">
  <g transform="matrix(1 0 0 -1 0 1606)">
   <path fill="currentColor"
d="M1378 990q0 -12 -5 -30l-190 -739q-15 -56 -72 -57q-27 -1 -93 -5q-59 -4 -93 -4q-5 0 -5 9q0 41 42 47q61 7 77 21q24 20 37 69l62 241q-17 2 -31 2h-376l-36 -138q-2 -9 -2 -21q0 -32 40.5 -36t40.5 -15q0 -43 -63 -43q-17 0 -51 2.5t-50 2.5q-22 0 -65 -4t-65 -4
q-31 0 -31 8q0 4 6 25q1 3 57.5 24t69.5 73l32 126h-332h-17l-62 -241q-5 -22 -5 -39q0 -45 34 -58q16 -6 63 -7q35 0 35 -13q0 -44 -34 -44q9 0 -49 4.5t-144 4.5q-26 0 -32 2q-23 6 -23 32q0 11 5 30l190 739q15 56 72 57q27 0 93 4q59 4 93 4q5 0 5 -9q0 -41 -43 -46
q-61 -8 -76 -21q-25 -20 -37 -69l-64 -251q12 -1 31 -1h317l35 137q3 12 3 19q0 32 -40.5 37t-40.5 16q0 43 63 43q16 0 50 -3t50 -3q22 0 65.5 4.5t65.5 4.5q31 0 31 -9q0 -3 -6 -24q-1 -3 -57.5 -24t-69.5 -73l-33 -125h392q3 0 16 1l64 249q6 22 6 40q0 64 -74 64
q-58 0 -58 13q0 45 33 45q-17 0 50 -6q58 -5 143 -5q27 0 33 -2q23 -6 23 -31z" />
  </g>

</svg>
