<?xml version="1.0" standalone="no"?>
<!DOCTYPE svg PUBLIC "-//W3C//DTD SVG 1.1//EN" "http://www.w3.org/Graphics/SVG/1.1/DTD/svg11.dtd" >
<svg viewBox="-12 -442 2048 2048">
  <g transform="matrix(1 0 0 -1 0 1606)">
   <path fill="currentColor"
d="M1367 1089q0 -27 -14 -37q-5 -3 -31 -3q-82 0 -109 -99l-218 -792q-9 -33 -9 -51q0 -45 43 -58q19 -5 79 -5q11 0 11 -9q0 -45 -25 -45q-6 0 -60 4q-75 6 -201 6h-644q-49 0 -128 -6q-56 -4 -63 -4q-10 0 -10 9q0 8 7 31q4 12 43 15q45 4 65 22q24 21 39 76l219 792
q8 30 8 51q0 43 -38 56q-19 6 -74 6q-21 0 -21 8q0 47 24 47q6 0 60 -4q75 -6 126 -6q49 0 128 6q56 4 62 4q11 0 11 -14q0 -26 -14 -37q-4 -3 -10 -3q-102 0 -130 -99l-222 -807q-5 -17 -5 -32q0 -33 23 -48h524q32 20 49 80l222 807q5 17 5 32q0 67 -123 67q-10 0 -10 7
q0 47 24 47q6 0 60 -4q76 -6 125 -6q51 0 129 6q56 4 62 4q11 0 11 -14z" />
  </g>

</svg>
