<?xml version="1.0" standalone="no"?>
<!DOCTYPE svg PUBLIC "-//W3C//DTD SVG 1.1//EN" "http://www.w3.org/Graphics/SVG/1.1/DTD/svg11.dtd" >
<svg viewBox="0 -442 2048 2048">
  <g transform="matrix(1 0 0 -1 0 1606)">
   <path fill="currentColor"
d="M1364 1094q0 -10 -7 -31q-5 -14 -29 -14q-74 0 -150 -99l-739 -965q-6 -9 -26 -9q-15 0 -17 23l-82 930q-5 59 -28 87q-13 17 -50 28q-31 10 -31 16q0 43 25 43q5 0 52 -4q67 -6 114 -6q46 0 115 6q50 4 56 4q11 0 11 -9q0 -29 -13 -42l-70 -8q-57 -10 -57 -68
q0 -8 1 -26l68 -762l559 732q32 42 32 73q0 56 -119 56q-14 0 -14 13q0 41 28 41q6 0 57 -4q72 -6 119 -6q62 0 125 5t59 5q11 0 11 -9z" />
  </g>

</svg>
