<?xml version="1.0" standalone="no"?>
<!DOCTYPE svg PUBLIC "-//W3C//DTD SVG 1.1//EN" "http://www.w3.org/Graphics/SVG/1.1/DTD/svg11.dtd" >
<svg viewBox="-12 -442 2048 2048">
  <g transform="matrix(1 0 0 -1 0 1606)">
   <path fill="currentColor"
d="M1213 1094q0 -9 -7 -31q-4 -14 -21 -14q-81 -2 -173 -99l-321 -339h334q18 0 18 -15q0 -59 -34 -59h-320l170 -398q41 -94 122 -95h11q8 1 11 1q22 0 22 -12q0 -43 -24 -43q-6 0 -59 4q-75 6 -124 6q-50 0 -127 -6q-55 -4 -61 -4q-11 0 -11 14q0 24 13 36l60 8
q50 7 50 45q0 18 -14 50l-149 350l-303 -320q-46 -50 -46 -81q0 -48 109 -48q15 0 15 -13q0 -41 -27 -41q-5 0 -52 4q-66 6 -111 6q-44 0 -111 -6q-48 -4 -54 -4q-11 0 -11 10q0 9 6 30q5 14 21 14q60 0 153 99l373 394h-325q-17 0 -17 17q0 57 34 57h295l-136 318
q-50 119 -155 119q-31 0 -31 12q0 43 24 43q-5 0 57 -5t124 -5q49 0 126 6q55 4 61 4q12 0 12 -9q0 -28 -15 -42q-4 -3 -49 -4q-54 -2 -54 -36q0 -15 12 -42l139 -325l261 275q46 49 46 81q0 48 -110 48q-14 0 -14 13q0 41 28 41q5 0 54 -4q69 -6 117 -6q46 0 119 6
q52 4 58 4q11 0 11 -9z" />
  </g>

</svg>
