<?xml version="1.0" standalone="no"?>
<!DOCTYPE svg PUBLIC "-//W3C//DTD SVG 1.1//EN" "http://www.w3.org/Graphics/SVG/1.1/DTD/svg11.dtd" >
<svg viewBox="0 -442 2048 2048">
  <g transform="matrix(1 0 0 -1 0 1606)">
   <path fill="currentColor"
d="M1093 647q0 -232 -165 -407q-167 -178 -397 -181q-35 -130 -35 -216q0 -40 33.5 -102.5t33.5 -93.5q0 -33 -25.5 -58t-57.5 -25q-87 0 -87 124q0 64 23 150l61 224q-175 18 -272 161q-87 129 -87 321q0 218 170.5 394.5t396.5 176.5q193 0 305 -141q103 -130 103 -327z
M946 696q0 141 -58 238q-70 117 -201 117q-162 0 -289 -166q-134 -175 -134 -406q0 -140 59 -238q70 -117 201 -117q162 0 289 166q133 173 133 406z" />
  </g>

</svg>
