<?xml version="1.0" standalone="no"?>
<!DOCTYPE svg PUBLIC "-//W3C//DTD SVG 1.1//EN" "http://www.w3.org/Graphics/SVG/1.1/DTD/svg11.dtd" >
<svg viewBox="0 -442 2048 2048">
  <g transform="matrix(1 0 0 -1 0 1606)">
   <path fill="currentColor"
d="M1177 972q0 -9 -8 -31q-3 -12 -40 -17q-45 -6 -63 -20q-29 -22 -44 -76l-155 -563q-5 -17 -5 -32q0 -67 123 -67q10 0 10 -7q0 -47 -24 -47q-5 0 -59 4q-76 6 -127 6q-49 0 -127 -6q-56 -4 -62 -4q-12 0 -12 14q0 26 14 36q6 4 31 4q82 0 109 99l77 278h-620
q-55 0 -88 -49.5t-36 -49.5h-22q-10 0 -10 8q0 -15 35 119q8 40 26 118q4 13 25 13q26 0 26 -10q0 -7 -2 -21.5t-2 -21.5q0 -42 49 -42h637l57 206q8 29 8 51q0 45 -43 58q-19 5 -79 5q-11 0 -11 9q0 45 26 45q5 0 59 -4q75 -6 126 -6q49 0 128 6q56 4 62 4q11 0 11 -9z" />
  </g>

</svg>
