<?xml version="1.0" standalone="no"?>
<!DOCTYPE svg PUBLIC "-//W3C//DTD SVG 1.1//EN" "http://www.w3.org/Graphics/SVG/1.1/DTD/svg11.dtd" >
<svg viewBox="0 -442 2048 2048">
  <g transform="matrix(1 0 0 -1 0 1606)">
   <path fill="currentColor"
d="M1379 970q0 -3 -18 -54q-38 -108 -56 -216q-2 -17 -9 -51q-5 -18 -30 -18q-26 0 -26 14q0 8 5.5 31t5.5 35q0 41 -28 41q-24 0 -70 -33l-512 -367h425q53 0 81 20q20 14 36 56q13 37 26 38h17q21 0 21 -9q0 -2 -21 -65q-41 -119 -63 -246q-2 -20 -11 -58q-4 -15 -31 -15
q-24 0 -24 12q0 8 7.5 36t7.5 43q0 64 -89 64h-832q-80 0 -105 -50l-24 -64q-5 -4 -27 -4t-22 11q0 5 19 60q40 117 60 234q2 19 10 55q4 14 32 14q24 0 24 -9t-4.5 -28.5t-4.5 -29.5q0 -65 81 -65h327l135 98l-352 333q-39 37 -62 37q-27 0 -40 -44q-15 -48 -24 -51.5
t-24 -3.5q-20 0 -20 12q0 4 19 59q43 125 61 233q2 19 9 55q4 15 32 15q23 0 23 -11q0 -6 -2.5 -19t-2.5 -19q0 -62 74 -132l406 -392l429 313q87 64 103 123q1 10 19 23h18q21 0 21 -11z" />
  </g>

</svg>
