<?xml version="1.0" standalone="no"?>
<!DOCTYPE svg PUBLIC "-//W3C//DTD SVG 1.1//EN" "http://www.w3.org/Graphics/SVG/1.1/DTD/svg11.dtd" >
<svg viewBox="0 -442 2048 2048">
  <g transform="matrix(1 0 0 -1 0 1606)">
   <path fill="currentColor"
d="M1008 872q0 -113 -102 -189q-82 -63 -206 -86q108 -30 176 -94q79 -75 79 -177q0 -161 -146 -260q-128 -87 -297 -87q-98 0 -200.5 44t-166.5 115q-6 7 -6 15q0 7 16 80.5t18 77.5q10 15 26 15q33 0 33 -12q0 -8 -2.5 -24t-2.5 -25q0 -89 92 -158q86 -65 177 -65
q137 0 222 78q89 81 89 216q0 103 -64.5 162t-167.5 59h-176q-12 0 -12 9q0 61 29 61q17 0 52 -1t52 -1q139 0 228 56q106 66 106 197q0 174 -198 174q-89 0 -167 -58q-51 -37 -104 -107q-43 -58 -49 -58q-7 0 -22 11t-15 18q0 6 25 80t31 85q10 20 30 32q103 62 257 62
q142 0 241 -52q125 -65 125 -193z" />
  </g>

</svg>
