<?xml version="1.0" standalone="no"?>
<!DOCTYPE svg PUBLIC "-//W3C//DTD SVG 1.1//EN" "http://www.w3.org/Graphics/SVG/1.1/DTD/svg11.dtd" >
<svg viewBox="0 -442 2048 2048">
  <g transform="matrix(1 0 0 -1 0 1606)">
   <path fill="currentColor"
d="M1314 632q0 -153 -77.5 -291t-205.5 -223t-253 -85q-169 0 -288 111.5t-131 280.5l-103 6l-51 -198q-6 -26 -6 -46q0 -63 74 -63q57 0 57 -13q0 -45 -35 -45q9 0 -48 6q-82 1 -176 6q-23 8 -23 31q0 11 5 30l93 361l277 -21q3 -136 117 -216q100 -70 243 -70
q160 0 287 91.5t168 243.5q10 40 10 82q0 138 -114 219q-101 72 -244 72q-137 0 -252 -68q-119 -71 -177 -191l-284 -18l103 397q14 54 72 57q39 0 118 4q61 4 57 4q16 0 16 -9q0 -13 -7.5 -28.5t-39.5 -16.5q-40 -2 -60 -13q-34 -21 -50 -83l-63 -244l86 8q64 149 194 250
q139 109 293 109q50 0 99 -13q150 -40 234.5 -149.5t84.5 -264.5z" />
  </g>

</svg>
