<?xml version="1.0" standalone="no"?>
<!DOCTYPE svg PUBLIC "-//W3C//DTD SVG 1.1//EN" "http://www.w3.org/Graphics/SVG/1.1/DTD/svg11.dtd" >
<svg viewBox="0 -442 2048 2048">
  <g transform="matrix(1 0 0 -1 0 1606)">
   <path fill="currentColor"
d="M1278 686q0 -64 -16 -124q-74 -290 -101 -305q-10 -5 -28 -5q-22 0 -22 9q0 12 7.5 39.5t7.5 42.5q0 64 -91 64h-813q-86 0 -109 -47q-13 -30 -25 -61q-6 -4 -27 -4q-22 0 -22 11q0 5 20 63q42 123 63 245q3 21 11 59q6 15 32 15q24 0 24 -12q0 -7 -6 -33t-6 -41
q0 -71 78 -71h867q89 0 89 116q0 105 -82 168q-74 57 -182 57q-100 0 -168 -48q-77 -55 -77 -151q0 -9 2 -26.5t2 -26.5t-26 -9q-38 0 -38 75q0 50 7 77q31 111 131 184.5t216 73.5q136 0 213 -102q69 -92 69 -233z" />
  </g>

</svg>
