<?xml version="1.0" standalone="no"?>
<!DOCTYPE svg PUBLIC "-//W3C//DTD SVG 1.1//EN" "http://www.w3.org/Graphics/SVG/1.1/DTD/svg11.dtd" >
<svg viewBox="0 -442 2048 2048">
  <g transform="matrix(1 0 0 -1 0 1606)">
   <path fill="currentColor"
d="M1372 1094q0 -10 -7 -31q-5 -14 -29 -14q-74 0 -150 -99l-259 -339h253q17 0 17 -15q0 -59 -33 -59h-294l-422 -552q-7 -9 -26 -9q-15 0 -18 23l-47 538h-230q-17 0 -17 17q0 57 33 57h208l-29 318q-5 59 -27 87q-14 17 -51 28q-31 10 -31 16q0 43 25 43q5 0 53 -4
q66 -6 113 -6q46 0 115 6q50 4 56 4q11 0 11 -9q0 -29 -13 -42l-70 -8q-57 -10 -57 -68q0 -8 2 -26l30 -339h360l236 309q32 42 32 73q0 56 -119 56q-14 0 -14 13q0 41 28 41q6 0 57 -4q72 -6 120 -6q61 0 124 5t60 5q10 0 10 -9zM781 537h-297l31 -349z" />
  </g>

</svg>
