<?xml version="1.0" standalone="no"?>
<!DOCTYPE svg PUBLIC "-//W3C//DTD SVG 1.1//EN" "http://www.w3.org/Graphics/SVG/1.1/DTD/svg11.dtd" >
<svg viewBox="0 -442 2048 2048">
  <g transform="matrix(1 0 0 -1 0 1606)">
   <path fill="currentColor"
d="M1329 632q0 -6 -20 -62q-45 -130 -63 -246q-3 -25 -11 -59q-11 -14 -32 -14q-24 0 -24 11q0 13 6 37t6 37q0 71 -78 71h-816q-107 0 -126 -107q-2 -16 -9 -39q-7 -9 -25 -9q-30 0 -30 32q0 129 26 271q33 185 136 314q122 152 293 152q102 0 179 -63q82 -67 82 -167
q0 -50 -26 -109q-32 -71 -75 -71q-25 0 -25 9q0 3 20.5 50t20.5 75q0 66 -64 100q-51 27 -123 27q-223 0 -323 -225q-18 -40 -18 -68q0 -48 59 -48h877q64 0 93 26q19 16 26 49q7 30 16 34t26 4q22 0 22 -12z" />
  </g>

</svg>
