<?xml version="1.0" standalone="no"?>
<!DOCTYPE svg PUBLIC "-//W3C//DTD SVG 1.1//EN" "http://www.w3.org/Graphics/SVG/1.1/DTD/svg11.dtd" >
<svg viewBox="-2 -442 2048 2048">
  <g transform="matrix(1 0 0 -1 0 1606)">
   <path fill="currentColor"
d="M916 1084q0 -3 -18 -94.5t-21 -99.5q-3 -13 -21 -13q-17 0 -19.5 3.5t-2.5 22.5q0 78 -50 106q-37 21 -119 21h-99q-40 0 -55 -14q-11 -11 -21 -50l-93 -359h218q55 0 88 49.5t36 49.5h22q10 0 10 -8q0 15 -35 -119q-8 -40 -26 -118q-4 -13 -26 -13q-26 0 -26 10
q0 7 2 21.5t2 21.5q0 42 -48 42h-234l-98 -385q-8 -29 -8 -50q0 -46 43 -58q19 -6 80 -6q12 0 12 -9q0 -45 -25 -45q-6 0 -60 4q-76 6 -125 6q-63 0 -129 -5t-62 -5q-10 0 -10 10q0 41 39 45q56 6 74 22q24 21 38 76l203 792q9 32 9 50q0 46 -43 58q-19 6 -80 6
q-12 0 -12 10q0 44 25 44q45 0 135 -5t136 -5q60 0 182 4t182 4q30 0 30 -17z" />
  </g>

</svg>
