<?xml version="1.0" standalone="no"?>
<!DOCTYPE svg PUBLIC "-//W3C//DTD SVG 1.1//EN" "http://www.w3.org/Graphics/SVG/1.1/DTD/svg11.dtd" >
<svg viewBox="0 -442 2048 2048">
  <g transform="matrix(1 0 0 -1 0 1606)">
   <path fill="currentColor"
d="M1539 596q0 -59 -33 -59h-100q-15 -210 -180 -373q-188 -186 -447 -186q-227 0 -369 156q-137 150 -137 380v23h-146q-17 0 -17 17q0 57 33 57h138q30 177 172 318q188 186 448 186q219 0 359 -145q136 -141 146 -359h116q17 0 17 -15zM1258 611v13q0 175 -87 294
q-97 133 -266 133q-201 0 -347 -183q-92 -115 -123 -257h823zM1253 537h-829q-3 -33 -3 -69q0 -174 88 -293q98 -133 266 -133q201 0 346 183q109 136 132 312z" />
  </g>

</svg>
