<?xml version="1.0" standalone="no"?>
<!DOCTYPE svg PUBLIC "-//W3C//DTD SVG 1.1//EN" "http://www.w3.org/Graphics/SVG/1.1/DTD/svg11.dtd" >
<svg viewBox="0 -442 2048 2048">
  <g transform="matrix(1 0 0 -1 0 1606)">
   <path fill="currentColor"
d="M1384 1011q0 -11 -5 -30l-93 -361l-278 20q-2 137 -116 216q-101 71 -243 71q-161 0 -286 -90q-129 -93 -169 -245q-11 -40 -11 -82q0 -138 114 -219q101 -72 245 -72q136 0 253.5 69.5t174.5 189.5l284 18l-102 -398q-14 -53 -72 -56q-40 0 -119 -4q-61 -5 -57 -5
q-15 0 -15 10q0 13 8 30q6 14 39 15q40 2 59 13q35 21 51 83l62 244l-86 -8q-63 -149 -193 -251q-139 -108 -293 -108q-51 0 -100 13q-149 40 -233.5 149.5t-84.5 263.5q0 153 78 293q76 137 205 223q127 83 253 83q168 0 287 -111.5t132 -279.5l103 -6l50 198q7 26 7 46
q0 63 -74 63q-57 0 -57 13q0 45 34 45q-9 0 49 -6q81 -1 176 -6q23 -8 23 -31z" />
  </g>

</svg>
