<?xml version="1.0" standalone="no"?>
<!DOCTYPE svg PUBLIC "-//W3C//DTD SVG 1.1//EN" "http://www.w3.org/Graphics/SVG/1.1/DTD/svg11.dtd" >
<svg viewBox="0 -442 2048 2048">
  <g transform="matrix(1 0 0 -1 0 1606)">
   <path fill="currentColor"
d="M1253 389q0 -40 -5 -67q-6 -32 -33 -32q-32 0 -32 32q0 11 2.5 35t2.5 36q0 152 -111 248q-100 88 -257 104l-96 -347q-4 -15 -4 -22q0 -30 41 -36t41 -16q0 -39 -25 -39q-20 0 -60 2.5t-60 2.5t-58 -2.5t-58 -2.5q-14 0 -14 8q0 30 56 45q62 18 78 74l93 335
q-223 -3 -392 -137q-125 -101 -165 -225q-2 -6 -14 -63q-7 -32 -32 -32q-33 0 -33 32q0 25 9 72q34 179 175 321q179 180 415 180q229 0 380 -137q156 -142 156 -369z" />
  </g>

</svg>
