<?xml version="1.0" standalone="no"?>
<!DOCTYPE svg PUBLIC "-//W3C//DTD SVG 1.1//EN" "http://www.w3.org/Graphics/SVG/1.1/DTD/svg11.dtd" >
<svg viewBox="0 -442 2048 2048">
  <g transform="matrix(1 0 0 -1 0 1606)">
   <path fill="currentColor"
d="M1040 1093q0 -9 -6 -30q-4 -13 -40 -15q-42 -3 -62 -22q-24 -22 -38 -76l-203 -792q-8 -32 -8 -50q0 -46 42 -58q20 -6 81 -6q11 0 11 -10q0 -44 -24 -44q-7 0 -60 4q-74 6 -125 6q-63 0 -129 -5t-62 -5q-12 0 -12 9q0 8 8 31q4 13 41 15q45 3 65 22q25 22 39 76l187 724
q13 50 13 79q0 55 -50 72q-28 10 -97 10q-207 0 -269 -27q-42 -18 -121 -123q-7 -10 -15 -10q-6 0 -18.5 10.5t-12.5 15.5t73 171q16 36 44 36q82 0 245.5 -4.5t245.5 -4.5q38 0 246 11q11 0 11 -10z" />
  </g>

</svg>
