<?xml version="1.0" standalone="no"?>
<!DOCTYPE svg PUBLIC "-//W3C//DTD SVG 1.1//EN" "http://www.w3.org/Graphics/SVG/1.1/DTD/svg11.dtd" >
<svg viewBox="0 -442 2048 2048">
  <g transform="matrix(1 0 0 -1 0 1606)">
   <path fill="currentColor"
d="M1345 940q0 -7 -15.5 -80t-18.5 -78q-7 -15 -32 -15q-26 0 -26 12q0 8 2 24t2 25q0 73 -68 137q-91 86 -241 86q-185 0 -329 -131q-136 -124 -180 -309h741q17 0 17 -15q0 -59 -33 -59h-738q-4 -36 -4 -65q0 -142 69 -249q73 -113 203 -157q70 -24 130 -24q23 0 70 5
q125 13 297 101q10 5 17 5q32 0 32 -33q0 -25 -82 -63q-171 -79 -347 -79q-237 0 -388 161q-148 157 -148 396v2h-148q-17 0 -17 17q0 57 33 57h137q26 189 181 329q192 175 474 175q255 0 404 -160q6 -7 6 -15z" />
  </g>

</svg>
