<?xml version="1.0" standalone="no"?>
<!DOCTYPE svg PUBLIC "-//W3C//DTD SVG 1.1//EN" "http://www.w3.org/Graphics/SVG/1.1/DTD/svg11.dtd" >
<svg viewBox="-20 -442 2048 2048">
  <g transform="matrix(1 0 0 -1 0 1606)">
   <path fill="currentColor"
d="M1004 33q0 -43 -24 -43q-15 0 -44.5 2.5t-44.5 2.5q-13 0 -40 -2.5t-40 -2.5q-53 0 -81 66l-159 377q-29 70 -71 89q-30 14 -115 14l-101 -393q-5 -19 -5 -38q0 -61 110 -61q9 0 9 -9q0 -45 -24 -45q2 0 -61 5t-127 5q-53 0 -131 -6q-55 -4 -63 -4q-12 0 -12 14
q0 27 14 36q6 4 39 4q97 0 135 149l188 732q10 38 10 59q0 43 -38 52q-8 2 -72 2q-26 0 -26 11q0 26 14 40q11 11 165 20q125 8 185 8q137 0 239 -56q124 -68 124 -193q0 -120 -113 -210q-99 -79 -226 -96q0 -3 2 -5q61 -44 95 -124l114 -269q27 -63 64 -90q18 -13 64 -25
q22 -4 44 -9q3 -3 3 -7zM808 850q0 98 -75 153q-67 49 -170 49q-45 0 -57 -44l-104 -407h13q393 0 393 249z" />
  </g>

</svg>
