<?xml version="1.0" standalone="no"?>
<!DOCTYPE svg PUBLIC "-//W3C//DTD SVG 1.1//EN" "http://www.w3.org/Graphics/SVG/1.1/DTD/svg11.dtd" >
<svg viewBox="-42 -442 2048 2048">
  <g transform="matrix(1 0 0 -1 0 1606)">
   <path fill="currentColor"
d="M1184 34q0 -44 -25 -44q-13 0 -59 4q-82 8 -116 22q-64 25 -64 87q0 58 47 201t47 210q0 163 -216 182l-139 -538q-8 -32 -8 -52q0 -44 40 -56q18 -6 76 -6q10 0 10 -10q0 -44 -25 -44q-6 0 -59 4q-73 6 -124 6q-64 0 -128 -5t-61 -5q-11 0 -11 9q0 42 42 46q60 6 78 22
q23 20 38 76l142 554q-63 -6 -114 -18q-124 -31 -167 -95q-37 -55 -76 -224q-44 -191 -68 -245q-29 -65 -88 -92q-42 -19 -128 -29q-36 -4 -59 -4q-11 0 -11 9q0 40 32 45q36 5 71 11q45 17 66 86q27 85 52 192q49 205 90 259q108 141 411 145l50 198q8 32 8 50q0 46 -42 58
q-20 6 -81 6q-11 0 -11 9q0 45 23 45q8 0 61 -4q74 -6 125 -6q52 0 129 6q54 4 61 4q12 0 12 -14q0 -25 -14 -36q-7 -6 -36 -6q-77 0 -102 -97l-56 -216q323 -29 323 -246q0 -71 -44 -216q-36 -122 -36 -164q0 -45 43 -58q20 -6 80 -6q11 0 11 -10z" />
  </g>

</svg>
