<?xml version="1.0" standalone="no"?>
<!DOCTYPE svg PUBLIC "-//W3C//DTD SVG 1.1//EN" "http://www.w3.org/Graphics/SVG/1.1/DTD/svg11.dtd" >
<svg viewBox="-51 -442 2048 2048">
  <g transform="matrix(1 0 0 -1 0 1606)">
   <path fill="currentColor"
d="M942 203q0 14 -37 -126q-8 -42 -27 -124q-5 -16 -30 -16h-9.5h-10.5q-9 0 -10 23q-2 40 -78 40h-644q-69 0 -81 -31.5t-35 -31.5q-31 0 -31 12q0 -1 13.5 42.5t23.5 83.5q7 42 13 84q13 56 43 56q32 0 32 -12t-6 -37.5t-6 -38.5q0 -64 80 -64h154q40 0 55 14q11 11 21 50
l207 808q9 32 9 50q0 45 -39 58q-20 6 -77 6q-10 0 -10 9q0 45 24 45q5 0 62 -4q79 -6 131 -6q51 0 133 6q59 4 65 4q11 0 11 -10q0 -35 -22 -43q-6 -2 -50 -3q-78 -2 -103 -97l-212 -823q-6 -22 -6 -35q0 -29 41 -29h210q78 0 109 65q16 41 33 82q6 5 22 5q32 0 32 -12z
" />
  </g>

</svg>
