<?xml version="1.0" standalone="no"?>
<!DOCTYPE svg PUBLIC "-//W3C//DTD SVG 1.1//EN" "http://www.w3.org/Graphics/SVG/1.1/DTD/svg11.dtd" >
<svg viewBox="-93 -442 2048 2048">
  <g transform="matrix(1 0 0 -1 0 1606)">
   <path fill="currentColor"
d="M1808 998q0 -41 -30.5 -65.5t-71.5 -24.5q-48 0 -64.5 38t-25.5 38q-32 0 -84 -78q-107 -160 -180 -224q-101 -87 -259 -121q97 -14 151 -60q46 -38 162 -271q60 -119 106 -155q39 -31 150 -31q15 0 15 -9q0 -46 -24 -46q-2 0 -77 6q-63 5 -139 5q-24 0 -85 -11
q-69 195 -94 255q-73 169 -139 220q-39 30 -136 45l-94 -366q-5 -19 -5 -36q0 -63 102 -63q9 0 9 -9q0 -45 -24 -45q-7 0 -56 4q-70 6 -120 6t-122 -6q-51 -4 -59 -4q-11 0 -11 14q0 24 13 36q5 4 33 4q86 0 111 99l95 366q-106 -15 -160 -45q-95 -52 -250 -218
q-45 -48 -227 -257q-56 11 -80 11q-76 0 -142 -5q-78 -6 -79 -6q-10 0 -10 14q0 41 38 41q101 0 157 31q63 35 185 155q73 73 146 145q92 88 157 126q60 36 185 59q-102 27 -144 78t-76.5 183t-52.5 153t-43 21q-15 0 -40.5 -43.5t-66.5 -43.5q-35 0 -60 23t-25 57
q0 49 39.5 82t89.5 33q44 0 88 -26t62 -66q5 -11 61 -197q39 -130 93.5 -171.5t171.5 -61.5l92 354q8 32 8 50q0 46 -43 58q-19 6 -80 6q-12 0 -12 10q0 44 25 44q8 0 59 -4q73 -6 126 -6q64 0 128 5t63 5q11 0 11 -9q0 -10 -7 -31q-4 -12 -42 -15q-43 -4 -64 -22
q-26 -22 -40 -76l-94 -369q173 38 264 103q87 61 166 178q70 105 82 120q51 65 109 96q47 25 83 25q42 0 72 -31.5t30 -73.5z" />
  </g>

</svg>
