<?xml version="1.0" standalone="no"?>
<!DOCTYPE svg PUBLIC "-//W3C//DTD SVG 1.1//EN" "http://www.w3.org/Graphics/SVG/1.1/DTD/svg11.dtd" >
<svg viewBox="0 -442 2048 2048">
  <g transform="matrix(1 0 0 -1 0 1606)">
   <path fill="currentColor"
d="M1353 765q0 -15 -50 -183l-63 -206q-8 -29 -41 -178q-6 -29 -21 -85q-6 -15 -31 -15q-26 0 -26 11q0 8 8.5 36t8.5 44q0 63 -95 63h-832q-62 0 -89 -29q-10 -12 -26 -55q-12 -30 -34 -30q-27 0 -27 13q0 10 32 106q37 110 40 120q40 165 127 493q7 28 46 33
q191 29 187 29q15 0 15 -36q0 -11 -15 -17q-40 -15 -80 -31q-44 -19 -69 -50q-43 -54 -98 -254q-16 -57 -16 -84q0 -84 137 -84h328l59 212q4 15 4 22q0 31 -41 36.5t-41 15.5q0 40 25 40q20 0 60 -2.5t60 -2.5q18 0 54.5 2.5t54.5 2.5q21 0 21 -9q0 -30 -56 -45
q-62 -17 -78 -73l-54 -198l371 -1q41 0 56.5 10t26.5 48l45 163q8 27 8 52q0 70 -105 101q-16 5 -16 14q0 29 22 29q170 0 198 -12q10 -4 10 -16z" />
  </g>

</svg>
