<?xml version="1.0" standalone="no"?>
<!DOCTYPE svg PUBLIC "-//W3C//DTD SVG 1.1//EN" "http://www.w3.org/Graphics/SVG/1.1/DTD/svg11.dtd" >
<svg viewBox="0 -442 2048 2048">
  <g transform="matrix(1 0 0 -1 0 1606)">
   <path fill="currentColor"
d="M1174 698q0 15 -35 -119q-7 -40 -26 -118q-4 -13 -25 -13q-26 0 -26 10q0 7 2 21.5t2 21.5q0 42 -49 42h-637l-76 -278q-5 -17 -5 -32q0 -67 123 -67q10 0 10 -7q0 -47 -24 -47q-6 0 -60 4q-75 6 -126 6q-49 0 -128 -6q-55 -4 -61 -4q-12 0 -12 14q0 26 14 36q6 4 31 4
q82 0 109 99l151 548q8 29 8 51q0 45 -42 58q-19 5 -80 5q-10 0 -10 9q0 45 26 45q5 0 58 -4q76 -6 127 -6q48 0 127 6q57 4 63 4q11 0 11 -9t-8 -31q-4 -12 -41 -17q-44 -6 -62 -20q-29 -22 -44 -76l-61 -221h621q55 0 88 49.5t36 49.5h22q9 0 9 -8z" />
  </g>

</svg>
