<?xml version="1.0" standalone="no"?>
<!DOCTYPE svg PUBLIC "-//W3C//DTD SVG 1.1//EN" "http://www.w3.org/Graphics/SVG/1.1/DTD/svg11.dtd" >
<svg viewBox="-9 -442 2048 2048">
  <g transform="matrix(1 0 0 -1 0 1606)">
   <path fill="currentColor"
d="M959 37q0 -47 -24 -47q-6 0 -60 4q-76 6 -125 6q-51 0 -129 -6q-56 -4 -62 -4q-11 0 -11 14q0 25 14 36q6 4 11 4q101 0 129 99l110 400h-429l-110 -400q-4 -18 -4 -32q0 -67 122 -67q11 0 11 -7q0 -47 -24 -47q-6 0 -60 4q-75 6 -126 6q-50 0 -128 -6q-56 -4 -62 -4
q-11 0 -11 14q0 26 14 36q5 4 31 4q82 0 109 99l218 792q8 30 8 51q0 45 -43 58q-19 5 -79 5q-11 0 -11 9q0 45 26 45q5 0 59 -4q75 -6 126 -6q49 0 128 6q56 4 63 4q10 0 10 -9t-7 -31q-4 -12 -41 -17q-44 -6 -62 -20q-29 -22 -44 -76l-95 -343h478q64 0 64 -42
q0 -11 -4 -26l-104 -381q-9 -33 -9 -51q0 -43 38 -56q19 -6 74 -6q21 0 21 -8z" />
  </g>

</svg>
