<?xml version="1.0" standalone="no"?>
<!DOCTYPE svg PUBLIC "-//W3C//DTD SVG 1.1//EN" "http://www.w3.org/Graphics/SVG/1.1/DTD/svg11.dtd" >
<svg viewBox="0 -442 2048 2048">
  <g transform="matrix(1 0 0 -1 0 1606)">
   <path fill="currentColor"
d="M1209 1094q0 -8 -7 -31q-4 -12 -44 -15q-47 -3 -68 -22q-24 -21 -39 -76l-203 -792q-7 -29 -7 -50q0 -46 42 -58q19 -6 81 -6q10 0 10 -9q0 -45 -23 -45q-6 0 -61 4q-76 6 -125 6q-50 0 -129 -6q-56 -4 -61 -4q-12 0 -12 10v4q0 28 10 35t40 7q77 0 102 97l180 701
q-136 -61 -300 -61q-258 0 -404 160q-6 7 -6 15q0 7 15.5 80.5t18.5 77.5q9 15 32 15q27 0 27 -12q0 -8 -2.5 -24.5t-2.5 -24.5q0 -73 68 -137q91 -86 241 -86q238 0 404 213q24 30 58 36q6 1 69 1q14 0 42.5 3t43.5 3q10 0 10 -9z" />
  </g>

</svg>
