<?xml version="1.0" standalone="no"?>
<!DOCTYPE svg PUBLIC "-//W3C//DTD SVG 1.1//EN" "http://www.w3.org/Graphics/SVG/1.1/DTD/svg11.dtd" >
<svg viewBox="0 -442 2048 2048">
  <g transform="matrix(1 0 0 -1 0 1606)">
   <path fill="currentColor"
d="M1298 483q0 -3 -22 -64q-41 -114 -66 -243q-2 -20 -11 -58q-6 -15 -32 -15q-24 0 -24 10q0 11 7.5 37t7.5 40q0 62 -96 62h-832q-61 0 -88 -29q-11 -12 -27 -55q-11 -30 -34 -30q-26 0 -26 13q0 10 32 106q36 110 39 120q40 165 127 493q8 28 46 33q191 29 190 29
q12 0 12 -36q0 -11 -14 -17q-40 -15 -80 -31q-45 -19 -69 -50q-44 -54 -99 -254q-15 -57 -15 -84q0 -84 137 -84h328l58 212q4 15 4 22q0 31 -40.5 36.5t-40.5 15.5q0 40 24 40q20 0 60.5 -2.5t60.5 -2.5q18 0 54 2.5t55 2.5q21 0 21 -9q0 -30 -57 -45q-62 -17 -77 -73
l-55 -199h355q58 0 84 17q22 15 38 59q14 38 27 40h16q22 0 22 -9z" />
  </g>

</svg>
