<?xml version="1.0" standalone="no"?>
<!DOCTYPE svg PUBLIC "-//W3C//DTD SVG 1.1//EN" "http://www.w3.org/Graphics/SVG/1.1/DTD/svg11.dtd" >
<svg viewBox="-1 -442 2048 2048">
  <g transform="matrix(1 0 0 -1 0 1606)">
   <path fill="currentColor"
d="M1148 1104q0 -6 -25.5 -79t-31.5 -87q-11 -22 -30 -32q-115 -62 -303 -62q-155 0 -279 73l-195 -759q-7 -29 -7 -50q0 -46 42 -58q19 -6 81 -6q10 0 10 -9q0 -45 -23 -45q-6 0 -61 4q-76 6 -125 6q-50 0 -129 -6q-56 -4 -61 -4q-12 0 -12 10v4q0 28 10 35t40 7
q77 0 102 97l204 792q8 32 8 52q0 44 -40 56q-18 6 -76 6q-10 0 -10 10q0 44 25 44q19 0 58 -2.5t58 -2.5q48 0 83 -42q123 -148 328 -148q90 0 175 62q37 27 131 151q7 10 15 10t23 -10t15 -17z" />
  </g>

</svg>
