<?xml version="1.0" standalone="no"?>
<!DOCTYPE svg PUBLIC "-//W3C//DTD SVG 1.1//EN" "http://www.w3.org/Graphics/SVG/1.1/DTD/svg11.dtd" >
<svg viewBox="0 -442 2048 2048">
  <g transform="matrix(1 0 0 -1 0 1606)">
   <path fill="currentColor"
d="M1268 492l-20 -58q-42 -125 -63 -246q-2 -21 -11 -59q-4 -14 -31 -14q-25 0 -25 10q0 9 8 36.5t8 42.5q0 65 -96 65h-818q-58 0 -84 -18q-22 -15 -37 -59q-14 -39 -27 -41h-17q-21 0 -21 9q0 8 12 41q14 40 16 46q16 61 18 66q13 31 49 47q321 146 321 443q0 81 -38 152
q-43 81 -115 99l-34 4q-22 4 -22 16q0 43 35 43q134 0 151 -6q9 -3 13 -10q76 -110 76 -270q0 -243 -155 -437h724q99 0 119 76q12 40 32 40q32 0 32 -18z" />
  </g>

</svg>
