<?xml version="1.0" standalone="no"?>
<!DOCTYPE svg PUBLIC "-//W3C//DTD SVG 1.1//EN" "http://www.w3.org/Graphics/SVG/1.1/DTD/svg11.dtd" >
<svg viewBox="-9 -442 2048 2048">
  <g transform="matrix(1 0 0 -1 0 1606)">
   <path fill="currentColor"
d="M1370 1094q0 -7 -8 -31q-3 -12 -42 -15q-45 -4 -66 -22q-24 -21 -39 -76l-217 -792q-9 -33 -9 -51q0 -43 38 -56q19 -6 74 -6q20 0 20 -8q0 -47 -23 -47q-6 0 -60 4q-76 6 -126 6t-128 -6q-56 -4 -62 -4q-12 0 -12 14q0 25 15 36q5 4 11 4q101 0 128 99l109 394h-591
l-109 -394q-4 -18 -4 -32q0 -67 122 -67q11 0 11 -7q0 -47 -24 -47q-6 0 -60 4q-75 6 -126 6q-49 0 -128 -6q-56 -4 -62 -4q-11 0 -11 14q0 26 14 36q5 4 31 4q82 0 109 99l218 792q8 30 8 51q0 45 -43 58q-19 5 -79 5q-11 0 -11 9q0 45 26 45q5 0 59 -4q75 -6 117 -6h738
q40 0 119 6q57 4 63 4q10 0 10 -9zM1091 982q0 33 -22 48h-524q-33 -21 -49 -80l-94 -339h591l93 339q5 17 5 32z" />
  </g>

</svg>
