<?xml version="1.0" standalone="no"?>
<!DOCTYPE svg PUBLIC "-//W3C//DTD SVG 1.1//EN" "http://www.w3.org/Graphics/SVG/1.1/DTD/svg11.dtd" >
<svg viewBox="0 -442 2048 2048">
  <g transform="matrix(1 0 0 -1 0 1606)">
   <path fill="currentColor"
d="M1467 689q0 -221 -152 -454q-169 -257 -378 -257q-69 0 -135 29q-80 35 -94 93q-37 -60 -129 -94q-76 -28 -159 -28q-94 0 -150 33q-152 89 -152 359q0 174 77 345q75 168 204 288q117 110 230 110q14 0 14 -18q0 -28 -40 -41q-55 -18 -73 -36q-103 -102 -189 -325
q-85 -218 -85 -368q0 -96 45 -180q54 -103 140 -103q103 0 160 79q41 55 71 174l73 280q8 32 8 52q0 44 -40 57q-19 5 -76 5q-10 0 -10 10q0 44 25 44q30 0 91 -5t92 -5q70 0 126.5 5t61.5 5q11 0 11 -9q0 -41 -43 -46q-61 -8 -77 -21q-24 -21 -38 -77l-76 -295
q-14 -54 -14 -100q0 -153 126 -153q194 0 314 275q96 220 96 446q0 48 -17 132q-20 93 -43 123q-4 5 -32 29q-23 19 -23 28q0 36 29 36q13 0 34 -8q104 -41 156 -174q41 -106 41 -240z" />
  </g>

</svg>
