<?xml version="1.0" standalone="no"?>
<!DOCTYPE svg PUBLIC "-//W3C//DTD SVG 1.1//EN" "http://www.w3.org/Graphics/SVG/1.1/DTD/svg11.dtd" >
<svg viewBox="0 -442 2048 2048">
  <g transform="matrix(1 0 0 -1 0 1606)">
   <path fill="currentColor"
d="M1355 772q0 -4 -20 -65q-43 -128 -65 -255q-3 -20 -11 -60q-4 -14 -33 -14q-23 0 -23 10t6 33.5t6 35.5q0 60 -91 60h-340l-566 -321q-120 -68 -140 -143q-2 -10 -5 -19t-15 -10q-7 -1 -17 -1q-21 0 -21 10q0 2 21 65q40 119 63 252q3 20 11 60q5 19 30 19q26 0 26 -16
q0 -7 -5 -30.5t-5 -36.5q0 -57 44 -57q27 0 73 25l420 230l-329 241q-35 26 -57 26q-31 0 -47 -45q-19 -50 -20 -51q-7 -4 -26 -4q-24 0 -24 11q0 5 20 64q27 82 39 129.5t26 125.5q3 20 11 59q5 16 33 16q22 0 22 -12q0 -9 -3.5 -26.5t-3.5 -26.5q0 -77 83 -139l357 -270
h369q94 0 127 62l30 74q9 6 26 6q24 0 24 -12z" />
  </g>

</svg>
