<?xml version="1.0" standalone="no"?>
<!DOCTYPE svg PUBLIC "-//W3C//DTD SVG 1.1//EN" "http://www.w3.org/Graphics/SVG/1.1/DTD/svg11.dtd" >
<svg viewBox="0 -442 2048 2048">
  <g transform="matrix(1 0 0 -1 0 1606)">
   <path fill="currentColor"
d="M1017 942q0 -7 -16 -80.5t-18 -76.5q-10 -16 -25 -16q-33 0 -33 12q0 9 2 25t2 24q0 89 -92 159q-85 64 -177 64q-137 0 -222 -78q-88 -80 -88 -216q0 -102 64 -161.5t168 -59.5h176q11 0 11 -9q0 -60 -28 -60q-18 0 -52 1h-53q-139 0 -227 -55q-106 -67 -106 -198
q0 -174 198 -174q89 0 167 58q51 38 103 107q44 58 49 58q8 0 23 -10.5t15 -17.5t-25.5 -81t-30.5 -85q-11 -20 -30 -31q-104 -62 -258 -62q-141 0 -240 51q-125 65 -125 194q0 112 101 189q83 62 207 85q-109 31 -177 94q-79 75 -79 178q0 161 146 260q129 87 298 87
q98 0 200.5 -44t166.5 -116q5 -6 5 -15z" />
  </g>

</svg>
