<?xml version="1.0" standalone="no"?>
<!DOCTYPE svg PUBLIC "-//W3C//DTD SVG 1.1//EN" "http://www.w3.org/Graphics/SVG/1.1/DTD/svg11.dtd" >
<svg viewBox="0 -442 2048 2048">
  <g transform="matrix(1 0 0 -1 0 1606)">
   <path fill="currentColor"
d="M1429 1047q0 -3 -21 -62q-42 -119 -67 -245q-3 -20 -12 -59q-5 -14 -29 -14q-27 0 -27 11q0 7 7 34.5t7 41.5q0 68 -74 68h-418l-114 -413h415q59 0 85 21t45 77q2 6 6 10q8 5 28 5q22 0 22 -12q0 -3 -21 -62q-43 -120 -67 -245q-3 -20 -6 -41q-7 -27 -22 -31
q-5 -1 -12 -1q-28 0 -28 12t8 39.5t8 42.5q0 61 -88 61h-832q-55 0 -78.5 -16t-39.5 -59q-14 -37 -27 -37h-16q-22 0 -22 9q0 3 21 63q44 124 68 246q3 19 11 58q5 15 32 15q24 0 24 -11q0 -7 -6.5 -34t-6.5 -42q0 -68 78 -68h354l129 469q19 68 90 68h411q67 0 96 27
q16 15 26 52q9 30 25 33q7 2 15 2q23 0 23 -13z" />
  </g>

</svg>
