<?xml version="1.0" standalone="no"?>
<!DOCTYPE svg PUBLIC "-//W3C//DTD SVG 1.1//EN" "http://www.w3.org/Graphics/SVG/1.1/DTD/svg11.dtd" >
<svg viewBox="0 -442 2048 2048">
  <g transform="matrix(1 0 0 -1 0 1606)">
   <path fill="currentColor"
d="M871 199q0 -5 -73 -171q-16 -36 -44 -36q-82 0 -245.5 4.5t-245.5 4.5q-39 0 -246 -11q-11 0 -11 10q0 9 6 30q4 13 40 15q42 3 63.5 23.5t35.5 74.5l204 792q8 32 8 50q0 46 -43 58q-19 6 -80 6q-11 0 -11 10q0 44 24 44q6 0 60 -4q74 -6 125 -6q63 0 128.5 5t62.5 5
q11 0 11 -9q0 -8 -7 -31q-4 -13 -42 -15q-44 -3 -64 -22q-26 -22 -40 -76l-186 -724q-13 -50 -13 -80q0 -54 50 -71q28 -10 97 -10q207 0 269 27q42 18 120 123q8 10 16 10q5 0 18 -10.5t13 -15.5z" />
  </g>

</svg>
