<?xml version="1.0" standalone="no"?>
<!DOCTYPE svg PUBLIC "-//W3C//DTD SVG 1.1//EN" "http://www.w3.org/Graphics/SVG/1.1/DTD/svg11.dtd" >
<svg viewBox="0 -442 2048 2048">
  <g transform="matrix(1 0 0 -1 0 1606)">
   <path fill="currentColor"
d="M1210 1089q0 -27 -13 -36q-6 -4 -33 -4q-85 0 -111 -99l-203 -792q-8 -32 -8 -50q0 -46 42 -58q19 -6 80 -6q12 0 12 -10q0 -44 -25 -44q-5 0 -59 4q-75 6 -125 6q-62 0 -128.5 -5t-63.5 -5q-11 0 -11 9q0 7 7 31q4 12 42 15q44 4 64 22q26 22 40 76l105 408l-483 -405
q-50 -42 -50 -67q0 -35 97 -35q13 0 13 -13q0 -41 -28 -41q-5 0 -51 4q-65 6 -110 6q-44 0 -112 -6q-49 -4 -54 -4q-11 0 -11 9t7 31q4 13 27 13q60 0 145 70l408 337l-277 492q-61 107 -138 107q-17 0 -17 9q0 45 24 45q-3 0 57 -5t118 -5q48 0 122 6q53 4 58 4
q12 0 12 -14q0 -24 -14 -36q-1 0 -59 -6q-48 -5 -48 -37q0 -21 22 -60l235 -423l128 105l82 318q4 19 4 36q0 63 -102 63q-9 0 -9 9q0 45 24 45q5 0 56 -4q72 -6 120 -6t122 6q53 4 59 4q11 0 11 -14z" />
  </g>

</svg>
