<?xml version="1.0" standalone="no"?>
<!DOCTYPE svg PUBLIC "-//W3C//DTD SVG 1.1//EN" "http://www.w3.org/Graphics/SVG/1.1/DTD/svg11.dtd" >
<svg viewBox="0 -442 2048 2048">
  <g transform="matrix(1 0 0 -1 0 1606)">
   <path fill="currentColor"
d="M1333 705q0 -25 -11 -32l-963 -597q-93 -58 -116 -58q-27 0 -27 39q0 23 24 38l892 554l-795 259v-80q0 -171 107 -240q19 -13 19 -23q0 -43 -15 -43q4 0 -101 37q-32 11 -96 29q-20 6 -27.5 15.5t-7.5 29.5v344q0 74 62 74q36 0 101 -21l922 -301q32 -10 32 -24z" />
  </g>

</svg>
