<?xml version="1.0" standalone="no"?>
<!DOCTYPE svg PUBLIC "-//W3C//DTD SVG 1.1//EN" "http://www.w3.org/Graphics/SVG/1.1/DTD/svg11.dtd" >
<svg viewBox="0 -442 2048 2048">
  <g transform="matrix(1 0 0 -1 0 1606)">
   <path fill="currentColor"
d="M1374 939q0 -7 -8 -31q-3 -12 -44 -15q-47 -3 -68 -21q-24 -22 -38 -77l-164 -637q-7 -29 -7 -50q0 -46 43 -58q19 -6 80 -6q10 0 10 -9q0 -45 -23 -45q-6 0 -60 4q-76 6 -126 6t-128 -6q-56 -4 -62 -4q-12 0 -12 10v4q0 28 10 35t40 7q78 0 103 97l145 565l-727 -458
q-4 -19 -4 -36q0 -46 42 -59q19 -5 81 -5q10 0 10 -9q0 -45 -23 -45q-7 0 -61 4q-75 6 -125 6t-129 -6q-56 -4 -61 -4q-12 0 -12 10v4q0 28 11 36q9 5 39 5q77 0 102 98l176 686q8 32 8 52q0 44 -39 56q-19 6 -76 6q-11 0 -11 10q0 44 25 44q5 0 59 -4q75 -6 124 -6
q62 0 128.5 5t61.5 5q11 0 11 -9q0 -8 -8 -31q-4 -12 -44 -15q-47 -3 -68 -22q-24 -21 -38 -76l-155 -604l727 457q2 13 2 30q0 43 -39 56q-19 5 -76 5q-11 0 -11 10q0 44 25 44q6 0 59 -4q75 -6 125 -6q61 0 127.5 5t61.5 5q11 0 11 -9z" />
  </g>

</svg>
