<?xml version="1.0" standalone="no"?>
<!DOCTYPE svg PUBLIC "-//W3C//DTD SVG 1.1//EN" "http://www.w3.org/Graphics/SVG/1.1/DTD/svg11.dtd" >
<svg viewBox="0 -442 2048 2048">
  <g transform="matrix(1 0 0 -1 0 1606)">
   <path fill="currentColor"
d="M1134 93q0 -75 -62 -75q-37 0 -102 21l-922 301q-32 11 -32 25q0 24 12 31l962 598q94 57 116 57q28 0 28 -39q0 -23 -25 -38l-892 -553l795 -260v80q0 172 -106 241q-20 12 -20 23q0 43 15 43q-4 0 102 -38q31 -11 95 -29q21 -6 28.5 -15.5t7.5 -29.5v-343z" />
  </g>

</svg>
