<?xml version="1.0" standalone="no"?>
<!DOCTYPE svg PUBLIC "-//W3C//DTD SVG 1.1//EN" "http://www.w3.org/Graphics/SVG/1.1/DTD/svg11.dtd" >
<svg viewBox="0 -442 2048 2048">
  <g transform="matrix(1 0 0 -1 0 1606)">
   <path fill="currentColor"
d="M1148 199q0 -2 -74 -171q-15 -36 -44 -36q-71 0 -212.5 4.5t-212.5 4.5q-54 0 -167 -7q-71 -4 -79 -4q-11 0 -11 10q0 38 28 44q60 10 61 11q38 18 56 88l187 724q13 50 13 79q0 55 -51 72q-27 10 -96 10q-143 0 -204 -27q-37 -16 -68 -53q-26 -35 -53 -70
q-7 -10 -15 -10q-6 0 -18.5 10.5t-12.5 15.5q0 2 73 171q16 36 44 36q71 0 213 -4.5t213 -4.5q53 0 167 7q70 4 79 4q11 0 11 -10q0 -39 -28 -44q-60 -10 -61 -11q-39 -18 -57 -88l-186 -724q-13 -50 -13 -80q0 -54 50 -71q28 -10 96 -10q143 0 205 27q36 16 68 53l52 70
q8 10 16 10q5 0 18 -10.5t13 -15.5z" />
  </g>

</svg>
