<?xml version="1.0" standalone="no"?>
<!DOCTYPE svg PUBLIC "-//W3C//DTD SVG 1.1//EN" "http://www.w3.org/Graphics/SVG/1.1/DTD/svg11.dtd" >
<svg viewBox="0 -442 2048 2048">
  <g transform="matrix(1 0 0 -1 0 1606)">
   <path fill="currentColor"
d="M1134 971q0 -38 -31 -43.5t-63 -10.5q-40 -16 -58 -80l-154 -557q-8 -30 -8 -51q0 -45 43 -57q19 -6 79 -6q11 0 11 -9q0 -45 -26 -45q-56 0 -168.5 5t-168.5 5q-81 0 -243.5 -4t-243.5 -4q-27 0 -27 16q0 18 16.5 98.5t23.5 96.5q6 13 35 13q8 0 9 -19q1 -70 24 -99
q28 -35 98 -35h332q39 0 55 14q12 12 23 50l136 496q13 44 13 79q0 62 -66 77q-21 5 -116 5q-333 0 -395 -27q-36 -16 -66 -53q-25 -35 -51 -69q-8 -11 -17 -11q-5 0 -20 8t-15 13l78 176q16 36 45 36q103 0 310 -4t310 -4q48 0 142.5 5t141.5 5q12 0 12 -10z" />
  </g>

</svg>
