<?xml version="1.0" standalone="no"?>
<!DOCTYPE svg PUBLIC "-//W3C//DTD SVG 1.1//EN" "http://www.w3.org/Graphics/SVG/1.1/DTD/svg11.dtd" >
<svg viewBox="-11 -442 2048 2048">
  <g transform="matrix(1 0 0 -1 0 1606)">
   <path fill="currentColor"
d="M1047 963q0 -18 -16.5 -98.5t-23 -95t-34.5 -14.5q-9 0 -9 19q-2 70 -25 99q-28 35 -97 35h-333q-39 0 -55 -14q-12 -12 -23 -50l-136 -496q-13 -44 -13 -79q0 -62 67 -77q21 -5 115 -5q333 0 395 27q36 16 66 53q26 35 51 69q8 11 17 11q6 0 20.5 -8t14.5 -13l-78 -176
q-16 -36 -45 -36q-103 0 -310 4t-310 4q-48 0 -142.5 -5t-141.5 -5q-12 0 -12 10q0 38 31 43.5t63 10.5q40 16 58 80l154 557q8 30 8 51q0 45 -43 57q-19 6 -79 6q-11 0 -11 9q0 45 26 45q56 0 168.5 -5t168.5 -5q81 0 243.5 4t243.5 4q27 0 27 -16z" />
  </g>

</svg>
