<?xml version="1.0" standalone="no"?>
<!DOCTYPE svg PUBLIC "-//W3C//DTD SVG 1.1//EN" "http://www.w3.org/Graphics/SVG/1.1/DTD/svg11.dtd" >
<svg viewBox="-1 -442 2048 2048">
  <g transform="matrix(1 0 0 -1 0 1606)">
   <path fill="currentColor"
d="M1181 28q0 -38 -15 -38q-5 0 -55 4q-70 6 -118 6q-47 0 -117 -6q-51 -4 -56 -4q-14 0 -14 14q0 30 5 36q26 4 53 7q43 8 43 61q0 18 -6 45l-166 776l-553 -756q-20 -29 -27 -52h138q172 0 241 107q13 19 23 19q43 0 43 -14q0 4 -38 -102q-11 -31 -29 -95
q-6 -21 -15.5 -28.5t-29.5 -7.5h-442q-47 0 -47 20q0 21 75 123l703 963q9 11 30 11q18 0 25 -31q9 -39 15 -70l184 -863q12 -55 42 -81q21 -18 69 -25q39 -6 39 -19z" />
  </g>

</svg>
