<?xml version="1.0" standalone="no"?>
<!DOCTYPE svg PUBLIC "-//W3C//DTD SVG 1.1//EN" "http://www.w3.org/Graphics/SVG/1.1/DTD/svg11.dtd" >
<svg viewBox="0 -442 2048 2048">
  <g transform="matrix(1 0 0 -1 0 1606)">
   <path fill="currentColor"
d="M1054 1094q0 -8 -7 -31q-4 -12 -45 -15q-47 -3 -68.5 -22.5t-37.5 -75.5l-218 -792q-8 -30 -8 -51q0 -45 43 -58q19 -5 79 -5q10 0 10 -9q0 -45 -26 -45q-45 0 -135 5t-135 5q-65 0 -195 -4t-195 -4q-28 0 -28 16q0 13 41 195q2 13 22 13h12q8 0 9 -19q2 -70 24 -99
q28 -35 98 -35h169q40 0 55 14q13 11 23 50l98 359h-205q-55 0 -88.5 -49.5t-37.5 -49.5h-21q-9 0 -9 8q0 -13 37 119q8 40 28 118q4 13 25 13q27 0 27 -10q0 -8 -2.5 -23.5t-2.5 -23.5q0 -38 47 -38h221l105 385q7 27 7 52q0 44 -40 56q-18 6 -76 6q-10 0 -10 10
q0 44 25 44q5 0 59 -4q74 -6 126 -6q62 0 127.5 5t61.5 5q11 0 11 -9z" />
  </g>

</svg>
