<?xml version="1.0" standalone="no"?>
<!DOCTYPE svg PUBLIC "-//W3C//DTD SVG 1.1//EN" "http://www.w3.org/Graphics/SVG/1.1/DTD/svg11.dtd" >
<svg viewBox="-12 -442 2048 2048">
  <g transform="matrix(1 0 0 -1 0 1606)">
   <path fill="currentColor"
d="M1128 698l-134 -555q-4 -17 -4 -32q0 -67 124 -67q12 0 12 -8q0 -46 -26 -46q-5 0 -44 4q-54 6 -103 6q-26 0 -78 -5t-78 -5q-8 0 -8 9t8 31q4 12 54 16t63 57l143 593q17 69 17 125q0 227 -273 227q-172 0 -264 -113q-68 -83 -117 -273l-130 -505q-8 -28 -8 -50
q0 -46 43 -58q19 -6 80 -6q12 0 12 -10q0 -44 -26 -44q-5 0 -58 4q-75 6 -134 6q-64 0 -140 -6q-55 -4 -60 -4q-11 0 -11 9t7 31q4 13 40 16q45 3 67 15q40 23 55 82l132 511q59 227 139 323q117 138 350 138q369 0 369 -274q0 -64 -19 -142z" />
  </g>

</svg>
