<?xml version="1.0" standalone="no"?>
<!DOCTYPE svg PUBLIC "-//W3C//DTD SVG 1.1//EN" "http://www.w3.org/Graphics/SVG/1.1/DTD/svg11.dtd" >
<svg viewBox="0 -419 2155 2048">
  <g transform="matrix(1 0 0 -1 0 1638)">
   <path fill="currentColor"
d="M2155 -239q0 -74 -53 -127t-127 -53h-1599q-75 0 -127.5 52.5t-52.5 127.5v1599q0 75 52.5 127.5t127.5 52.5h1599q74 0 127 -53t53 -127v-1599zM1893 1400v81q0 35 -32 35h-68v-151h68q32 0 32 35zM1756 1400v81q0 34 -33 34h-35q-33 0 -33 -33v-84q0 -33 33 -33h35
q33 0 33 35zM2081 978v154h-18l-32 -17v-21h16v-116h34zM1622 1365v60l-5 13l-11 5q16 8 16 29q0 44 -33 44h-67v-151h36v65h13l10 -4l4 -11v-50h37zM2112 817v84q0 37 -36 37h-75v-157h75q36 0 36 36zM1441 1400v51h-52v-21h16v-30q0 -13 -13 -14l-10 4l-4 10v80l4 10l10 4
h15q12 0 14 -16h20q-2 38 -34 38h-32q-34 0 -34 -35v-81q0 -35 34 -35h32q34 0 34 35zM2107 617v35q0 33 -43 35l43 30v20h-101v-21h59l-43 -30v-20l25 1q23 1 23 -15v-33l-4 -10l-10 -5h-15q-13 0 -14 17h-21q4 -38 33 -38h35q33 0 33 34zM1311 1365v151h-21v-78l-86 78
h-10v-151h21v78l85 -78h11zM1164 1365v151h-34v-151h34zM2107 506v36h-101v-21h64v-14q-32 -66 -32 -84v-35h37q0 54 21 96zM1100 1494v22h-101v-22h32v-129h37v129h32zM966 1365v151h-21v-78l-86 78h-10v-151h21v78l85 -78h11zM2106 317v28h-102v-157h41v66h47v28h-47v35
h61zM817 1400v116h-37v-116l-4 -10l-9 -4l-10 4l-4 10v116h-36v-118q0 -33 32 -33h35q33 0 33 35zM687 1400v81q0 34 -32 34h-35q-33 0 -33 -33v-84q0 -33 33 -33h35q32 0 32 35zM557 1402h-20q-2 -16 -14 -16h-15l-10 4l-5 10v80l5 10l10 4h15q12 0 14 -16h20q-2 38 -34 38
h-32q-34 0 -34 -35v-81q0 -35 34 -35h32q32 0 34 37zM1959 -79v1279q0 59 -42.5 101.5t-101.5 42.5h-1280q-59 0 -101.5 -42.5t-42.5 -101.5v-1279q0 -59 42.5 -101.5t101.5 -42.5h1280q59 0 101.5 42.5t42.5 101.5zM319 978v154h-18l-32 -17v-21h15v-116h35zM1657 -360
q0 21 -24 49t-24 31l4 11q4 2 11 4q10 0 12 -17h21q-2 38 -32 38h-20q-32 0 -32 -35q0 -21 23.5 -49t23.5 -32l-3 -10l-10 -4l-9 3l-5 9l1 4h-21q0 -37 32 -37h19q33 0 33 35zM1537 -395v60l-6 13l-11 5q17 8 17 29q0 44 -33 44h-68v-151h37v65h13l10 -4l4 -11v-50h37z
M349 817v84q0 37 -36 37h-75v-157h75q36 0 36 36zM1409 -395v21h-47v44h31v21h-31v43h47v22h-84v-151h84zM344 617v35q0 33 -43 35l43 30v20h-101v-21h59l-43 -30v-20l25 1q23 1 23 -15v-33l-4 -10l-10 -5h-15q-13 0 -14 17h-21q4 -38 33 -38h35q33 0 33 34zM1295 -360
q0 34 -22 41q22 8 22 32q0 43 -35 43h-66v-151h66q35 0 35 35zM349 422v33q0 37 -37 37h-18q-6 -2 -14 -5l-1 -2v4q0 31 53 31v22h-31q-24 0 -43 -17.5t-19 -41.5v-61q0 -36 37 -36h36q37 0 37 36zM1158 -395v151h-20l-68 -69l-69 69h-11v-151h21v86l55 -55l54 55v-86h38z
M947 -360v116h-36v-116l-4 -10l-10 -4l-9 4l-4 10v116h-37v-118q0 -33 33 -33h35q32 0 32 35zM349 224v84q0 36 -36 36h-39q-36 0 -36 -34v-88q0 -34 36 -34h39q36 0 36 36zM810 -395v151h-20v-78l-86 78h-11v-151h21v78l86 -78h10zM1857 1400l-5 -10l-10 -4h-13v108h13
l10 -4l5 -10v-80zM1719 1400l-4 -10l-9 -4l-10 4l-4 10v80l4 10l10 4l9 -4l4 -10v-80zM1585 1465l-4 -10l-10 -4h-13v43h13l10 -4l4 -10v-15zM2071 818l-4 -11l-11 -4h-15v113h15l11 -5l4 -10v-83zM651 1400l-4 -10l-10 -4l-9 4l-4 10v80l4 10l9 4l10 -4l4 -10v-80z
M1500 -295l-4 -10l-10 -4h-13v43h13l10 -4l4 -10v-15zM309 818l-5 -11l-11 -4h-14v113h14l11 -5l5 -10v-83zM1258 -295l-4 -10l-10 -4h-13v43h13l10 -4l4 -10v-15zM1258 -360l-4 -10l-10 -4h-13v44h13q14 0 14 -14v-16zM309 422l-5 -10l-10 -4l-10 4l-5 10v33l5 10l10 4
l10 -4l5 -10v-33zM309 225l-5 -11l-10 -4l-11 4l-4 11v83l4 10l11 4l10 -4l5 -10v-83zM1750 475h-1139v115h504v551h115v-551h520v-115zM1750 238h-1139v115h1139v-115zM1750 2h-1139v115h1139v-115z" />
  </g>

</svg>
