<?xml version="1.0" standalone="no"?>
<!DOCTYPE svg PUBLIC "-//W3C//DTD SVG 1.1//EN" "http://www.w3.org/Graphics/SVG/1.1/DTD/svg11.dtd" >
<svg viewBox="0 -419 2154 2048">
  <g transform="matrix(1 0 0 -1 0 1638)">
   <path fill="currentColor"
d="M2154 -239q0 -74 -53 -127t-127 -53h-1598q-74 0 -127 53t-53 127v1599q0 74 53 127t127 53h1598q74 0 127 -53t53 -127v-1599zM1641 1402h-21q-2 -16 -14 -16h-15l-10 4l-4 10v80l4 10l10 4h15q12 0 14 -16h21q-2 37 -35 37h-32q-34 0 -34 -35v-81q0 -34 34 -34h32
q32 0 35 37zM1511 1365v150h-34v-150h34zM2081 778v155h-18l-32 -18v-21h16v-116h34zM1445 1494v22h-100v-22h31v-129h37v129h32zM2112 620v84q0 36 -36 36h-75v-156h75q36 0 36 36zM1311 1365v21h-48v44h32v21h-32v43h48v22h-84v-151h84zM1198 1365v151h-21v-78l-86 78h-10
v-151h21v78l85 -78h11zM2107 506v36h-101v-21h64v-14q-32 -66 -32 -84v-35h37q0 54 21 96zM1060 1400v81q0 34 -33 34h-35q-32 0 -32 -33v-84q0 -33 32 -33h35q33 0 33 35zM2106 317v28h-102v-157h41v66h47v28h-47v35h61zM928 1365v151h-36v-65h-27v65h-37v-151h37v65h27
v-65h36zM810 1463v18q0 34 -33 34l-68 1v-151h37v65h13q51 0 51 33zM1959 -79v1279q0 59 -42.5 101.5t-101.5 42.5h-1280q-59 0 -101.5 -42.5t-42.5 -101.5v-1279q0 -59 42.5 -101.5t101.5 -42.5h1280q59 0 101.5 42.5t42.5 101.5zM319 778v155h-18l-32 -18v-21h15v-116h35z
M1376 -395v34h-34v-34h34zM1334 -266v22h-100v-22h32v-129h36v129h32zM349 620v84q0 36 -36 36h-75v-156h75q36 0 36 36zM1193 -395v43q0 25 -23 32q23 8 23 33v43h-37v-51l-4 -10l-10 -4l-9 4l-4 10v51h-37v-43q0 -25 23 -33q-23 -7 -23 -32v-43h37v50l4 11l9 4l10 -4
l4 -11v-50h37zM349 421v85q0 36 -36 36h-39q-36 0 -36 -35v-87q0 -35 36 -35h39q36 0 36 36zM1058 -395v21h-47v44h31v21h-31v43h47v22h-84v-151h84zM349 224v84q0 36 -36 36h-39q-36 0 -36 -34v-88q0 -34 36 -34h39q36 0 36 36zM2071 620l-4 -10l-11 -4h-15v112h15l11 -4
l4 -10v-84zM1023 1400l-4 -10l-9 -4l-10 4l-4 10v80l4 10l10 4l9 -4l4 -10v-80zM773 1465l-4 -10l-10 -4h-13v43h13l10 -4l4 -10v-15zM1780 806q0 -114 -137 -192q-75 -43 -237 -90l-103 -30v-118q0 -96 31 -140q37 -53 129 -53q138 0 138 118v37l161 52v-22
q0 -118 -133 -190q-111 -60 -238 -60q-158 0 -212 96q-101 -96 -254 -96q-172 0 -258 112q-78 101 -78 277v24h574q2 26 2 35q0 146 -88 243q-91 100 -235 100q-111 0 -272 -71v70q166 95 331 95q240 0 356 -213q40 93 132 152.5t193 59.5q88 0 143 -54t55 -142zM309 620
l-5 -10l-11 -4h-14v112h14l11 -4l5 -10v-84zM309 422l-5 -10l-10 -5l-11 5l-4 10v83l4 11l11 4l10 -4l5 -11v-83zM309 225l-5 -11l-10 -4l-11 4l-4 11v83l4 10l11 4l10 -4l5 -10v-83zM1629 783q0 54 -36 93.5t-89 39.5q-84 0 -155 -79q-46 -51 -46 -143v-150l43 13
q135 41 186 71q97 57 97 155zM1160 485h-155q-142 0 -159 -3q-98 -17 -98 -95q0 -89 42 -151q48 -72 132 -72q109 0 175 111q51 86 63 210z" />
  </g>

</svg>
