<?xml version="1.0" standalone="no"?>
<!DOCTYPE svg PUBLIC "-//W3C//DTD SVG 1.1//EN" "http://www.w3.org/Graphics/SVG/1.1/DTD/svg11.dtd" >
<svg viewBox="0 -419 2155 2048">
  <g transform="matrix(1 0 0 -1 0 1638)">
   <path fill="currentColor"
d="M2155 -239q0 -75 -52.5 -127.5t-127.5 -52.5h-1599q-75 0 -127.5 52.5t-52.5 127.5v1599q0 75 52.5 127.5t127.5 52.5h1599q75 0 127.5 -52.5t52.5 -127.5v-1599zM2081 978v154h-18l-32 -17v-21h16v-116h34zM1722 1365v151h-20l-68 -68l-68 68h-11v-151h21v86l54 -54
l55 54v-86h37zM2112 817v84q0 37 -36 37h-75v-157h75q36 0 36 36zM1512 1400v116h-37v-115l-4 -10l-9 -4l-10 4l-4 10v115h-36v-117q0 -34 32 -34h35q33 0 33 35zM1379 1365v151h-21v-78l-86 78h-10v-151h20v78l86 -78h11zM2107 702v36h-101v-22h64v-13q-32 -66 -32 -84v-36
h37q0 55 21 97zM1231 1365v116q0 35 -33 35h-35q-32 0 -32 -33v-118h36v65h27v-65h37zM2098 521v21h-84v-154h36v66h32v22h-32v45h48zM1099 1365v151h-37v-65h-27v65h-36v-151h36v65h27v-65h37zM975 1463v18q0 35 -33 35h-67v-151h36v65q64 -1 64 33zM2106 317v28h-102v-157
h41v66h47v28h-47v35h61zM842 1365v21h-47v130h-36v-151h83zM728 1365v116q0 35 -32 35h-36q-32 0 -32 -33v-118h36v65h28v-65h36zM1959 -79v1279q0 60 -42 102t-102 42h-1280q-60 0 -102 -42t-42 -102v-1279q0 -60 42 -102t102 -42h1280q60 0 102 42t42 102zM1973 -360
q0 28 -24 49l-9 8q-21 19 -11 34q6 4 11 4q11 0 13 -17h20q-2 38 -32 38h-19q-33 0 -33 -35q0 -25 24 -49l9 -9q14 -14 14 -25q0 -4 -2 -8q-6 -4 -11 -4q-2 0 -4 1l-5 2l-4 9v4h-21q0 -37 33 -37h19q32 0 32 35zM1854 -395v21h-48v130h-36v-151h84zM1738 -360v81
q0 34 -33 34h-35q-33 0 -33 -33v-84q0 -33 33 -33h35q33 0 33 35zM319 978v154h-18l-32 -17v-21h15v-116h35zM1604 -360q0 34 -22 41q22 8 22 32q0 43 -35 43h-66v-151h66q35 0 35 35zM349 817v84q0 37 -36 37h-75v-157h75q36 0 36 36zM1467 -395v151h-20l-68 -69l-69 69
h-11v-151h21v86l55 -55l54 55v-86h38zM353 634v22h-17v84h-38l-68 -86v-20h67v-50h39v50h17zM1268 -295v51h-37v-51l-4 -10l-9 -4l-10 4l-4 10v51h-36v-51q0 -30 32 -35v-65h36v65q32 5 32 35zM1139 -360q0 25 -24 49l-8 8q-14 14 -14 26q0 5 2 8q6 4 11 4q11 0 13 -17h20
q-2 38 -32 38h-19q-32 0 -32 -35q0 -26 23 -49l9 -9q14 -14 14 -25q0 -4 -2 -8q-6 -4 -11 -4q-2 0 -4 1l-5 2l-4 9v4h-20q0 -37 32 -37h19q32 0 32 35zM349 421v85q0 36 -36 36h-39q-36 0 -36 -35v-87q0 -35 36 -35h39q36 0 36 36zM949 -395v151h-36v-65h-28v65h-36v-151h36
v65h28v-65h36zM349 224v84q0 36 -36 36h-39q-36 0 -36 -34v-88q0 -34 36 -34h39q36 0 36 36zM810 -266v22h-100v-22h32v-129h37v129h31zM674 -395v116q0 35 -32 35h-36q-32 0 -32 -34v-117h36v65h28v-65h36zM544 -395v151h-20l-68 -69l-68 69h-11v-151h21v86l54 -55l55 55
v-86h37zM2071 818l-4 -11l-11 -4h-15v113h15l11 -5l4 -10v-83zM1194 1451h-27v30l4 10l10 4l9 -4l4 -10v-30zM938 1465l-4 -10l-10 -4h-13v44h13l10 -4l4 -10v-16zM692 1451h-28v30l5 10l9 4l9 -4l5 -10v-30zM1716 24q0 -38 -40 -38q-26 0 -35 27l-136 392h-423l-136 -392
q-9 -27 -34 -27h-240q-40 0 -40 38q0 9 180 537q184 540 206 590q14 32 42 32h234q21 0 36 -32q24 -51 206 -586q180 -529 180 -541zM1701 -360l-4 -10l-9 -4l-10 4l-4 10v80l4 10l10 4l9 -4l4 -10v-80zM1567 -295l-4 -10l-10 -4h-13v43h13l10 -4l4 -10v-15zM1567 -360
l-4 -10l-10 -4h-13v44h13q14 0 14 -14v-16zM309 818l-5 -11l-11 -4h-14v113h14l11 -5l5 -10v-83zM297 656h-42l42 53v-53zM309 422l-5 -10l-10 -5l-11 5l-4 10v83l4 11l11 4l10 -4l5 -11v-83zM309 225l-5 -11l-10 -4l-11 4l-4 11v83l4 10l11 4l10 -4l5 -10v-83zM638 -309
h-28v29l5 10l9 4l9 -4l5 -10v-29zM1478 483l-185 536l-185 -536h370zM1240 1101h-157l-356 -1033h156z" />
  </g>

</svg>
