<?xml version="1.0" standalone="no"?>
<!DOCTYPE svg PUBLIC "-//W3C//DTD SVG 1.1//EN" "http://www.w3.org/Graphics/SVG/1.1/DTD/svg11.dtd" >
<svg viewBox="0 -419 2155 2048">
  <g transform="matrix(1 0 0 -1 0 1638)">
   <path fill="currentColor"
d="M2155 -239q0 -75 -52.5 -127.5t-127.5 -52.5h-1599q-75 0 -127.5 52.5t-52.5 127.5v1599q0 75 52.5 127.5t127.5 52.5h1599q75 0 127.5 -52.5t52.5 -127.5v-1599zM1868 1400q0 28 -24 49l-9 8q-21 19 -11 34q6 4 11 4q11 0 13 -17h20q-2 38 -32 38h-19q-33 0 -33 -35
q0 -25 24 -49l9 -9q14 -14 14 -25q0 -5 -2 -8q-6 -4 -11 -4q-2 0 -4 1l-5 2l-4 9v4h-21q0 -37 32 -37h20q32 0 32 35zM1763 1494v22h-101v-22h32v-129h37v129h32zM1638 1463v18q0 35 -33 35h-68v-151h37v65q64 -1 64 33zM1504 1365v151h-34v-151h34zM2107 778v22h-64
q2 11 33 42.5t31 45.5q0 45 -35 45h-32q-30 0 -34 -39h21q0 17 13 17h16l10 -4l4 -11q0 -19 -32 -51.5t-32 -47.5v-19h101zM1430 1365v60l-5 13l-11 5q16 8 16 29q0 44 -32 44h-68v-151h36v65h14l9 -4l5 -11v-50h36zM2112 620v84q0 36 -36 36h-39q-36 0 -36 -34v-88
q0 -34 36 -34h39q36 0 36 36zM1296 1402h-21q-1 -16 -14 -16h-15l-10 4l-4 10v80l4 10l10 4h15q12 0 14 -16h21q-2 38 -35 38h-32q-34 0 -34 -35v-81q0 -35 34 -35h32q32 0 35 37zM1169 1400q0 28 -24 49l-9 8q-21 19 -11 34q6 4 11 4q11 0 13 -17h20q-2 38 -32 38h-19
q-33 0 -33 -35q0 -25 24 -49l9 -9q14 -14 14 -25q0 -5 -2 -8q-6 -4 -11 -4q-2 0 -4 1l-5 2l-4 9v4h-21q0 -37 32 -37h20q32 0 32 35zM2112 445v61q0 36 -38 36h-35q-38 0 -38 -36v-34q0 -36 38 -36h17q10 0 15 7v-4q0 -31 -52 -31v-22h31q24 0 43 17.5t19 41.5zM1060 1365
v60l-6 13l-11 5q17 8 17 29q0 44 -33 44h-68v-151h37v65h13l10 -4l4 -11v-50h37zM929 1365v21h-47v44h31v21h-31v43h47v22h-84v-151h84zM2106 317v28h-102v-157h41v66h47v28h-47v35h61zM820 1463v18q0 35 -33 35h-68v-151h37v65q64 -1 64 33zM692 1400v116h-37v-116l-4 -10
l-10 -4l-9 4l-4 10v116h-37v-118q0 -33 33 -33h35q33 0 33 35zM566 1400q0 28 -24 49l-9 8q-21 19 -11 34q6 4 11 4q10 0 12 -17h21q-2 38 -32 38h-20q-32 0 -32 -35q0 -25 24 -49l9 -9q13 -13 13 -24q0 -5 -2 -9q-5 -4 -10 -4q-2 0 -5 1l-4 2l-5 9l1 4h-21q0 -37 32 -37h19
q33 0 33 35zM1959 -79v1279q0 60 -42 102t-102 42h-1280q-60 0 -102 -42t-42 -102v-1279q0 -60 42 -102t102 -42h1280q60 0 102 42t42 102zM1852 -360q0 25 -24 49l-8 8q-14 14 -14 26q0 5 2 8q6 4 11 4q11 0 13 -17h20q-2 38 -32 38h-19q-32 0 -32 -35q0 -22 24 -49l8 -9
q19 -21 12 -33q-6 -4 -11 -4q-2 0 -4 1l-5 2l-4 9v4h-20q0 -37 32 -37h19q32 0 32 35zM1747 -266v22h-100v-22h32v-129h36v129h32zM1622 -297v18q0 35 -33 35h-67v-151h36v65q64 -1 64 33zM1488 -395v151h-33v-151h33zM344 778v22h-64q2 11 33 42.5t31 45.5q0 45 -34 45h-32
q-31 0 -35 -39h21q1 17 14 17h15l10 -4l4 -11q0 -19 -32 -51.5t-32 -47.5v-19h101zM1415 -395v60l-6 13l-11 5q17 8 17 29q0 44 -33 44h-68v-151h37v65h13l10 -4l4 -11v-50h37zM349 620v84q0 36 -36 36h-39q-36 0 -36 -34v-88q0 -34 36 -34h39q36 0 36 36zM1280 -358h-21
q-1 -16 -13 -16h-16l-10 4l-4 10v80l4 10l10 4h16q12 0 13 -16h21q-2 38 -34 38h-32q-34 0 -34 -35v-81q0 -35 34 -35h32q32 0 34 37zM1153 -360q0 25 -24 49l-8 8q-14 14 -14 26q0 5 2 8q6 4 11 4q11 0 13 -17h20q-2 38 -32 38h-19q-32 0 -32 -35q0 -22 24 -49l8 -9
q19 -21 12 -33q-6 -4 -11 -4q-2 0 -4 1l-5 2l-4 9v4h-20q0 -37 32 -37h19q32 0 32 35zM344 506v36h-101v-21h64v-14q-32 -66 -32 -84v-35h37q0 54 21 96zM1047 -360q0 34 -21 41q21 8 21 32q0 43 -34 43h-66v-151h66q34 0 34 35zM349 224v84q0 36 -36 36h-39q-36 0 -36 -34
v-88q0 -34 36 -34h39q36 0 36 36zM922 -360v116h-37v-116l-4 -10l-10 -4l-9 4l-4 10v116h-37v-118q0 -33 33 -33h35q33 0 33 35zM796 -360q0 28 -24 49l-9 8q-21 19 -11 34q6 4 11 4q10 0 12 -17h21q-3 38 -33 38h-19q-32 0 -32 -35q0 -22 24 -49l8 -9q19 -21 12 -33
q-5 -4 -10 -4q-2 0 -5 1l-4 2l-5 9l1 4h-21q0 -37 32 -37h19q33 0 33 35zM631 -311v16h-16v-16q0 -17 -17 -17h-33v-34q0 -16 -17 -16t-17 16v26q0 14 17 16v17q-17 2 -17 17v8q0 17 17 17t17 -17v-17h33v17q0 34 -33 34h-34q-33 0 -33 -34q0 -29 33 -33q-33 0 -33 -34v-17
q0 -33 33 -33h34q33 0 33 33v17h2q31 0 31 34zM1601 1465l-4 -10l-10 -4h-13v43h13l10 -4l4 -10v-15zM1394 1465l-5 -10l-9 -4h-14v43h14l9 -4l5 -10v-15zM2071 620l-4 -10l-11 -4l-10 4l-5 10v84l5 10l10 4l11 -4l4 -10v-84zM2071 473l-4 -10l-11 -5l-10 5l-5 10v33l5 10
l10 4l11 -4l4 -10v-33zM1023 1465l-4 -10l-10 -4h-13v43h13l10 -4l4 -10v-15zM783 1465l-4 -10l-10 -4h-13v43h13l10 -4l4 -10v-15zM1381 -99h-447v44q161 190 193 233q129 172 129 259q0 98 -109 98q-86 0 -198 -96l4 81q96 77 206 77q85 0 141 -39q64 -44 64 -126
q0 -79 -125 -229q-20 -25 -186 -200h328v-102zM1585 -295l-4 -10l-10 -4h-13v43h13l10 -4l4 -10v-15zM1378 -295l-4 -10l-10 -4h-13v43h13l10 -4l4 -10v-15zM309 620l-5 -10l-10 -4l-11 4l-4 10v84l4 10l11 4l10 -4l5 -10v-84zM1011 -295l-4 -10l-10 -4h-13v43h13l10 -4
l4 -10v-15zM1011 -360l-4 -10l-10 -4h-13v44h13q14 0 14 -14v-16zM309 225l-5 -11l-10 -4l-11 4l-4 11v83l4 10l11 4l10 -4l5 -10v-83z" />
  </g>

</svg>
