<?xml version="1.0" standalone="no"?>
<!DOCTYPE svg PUBLIC "-//W3C//DTD SVG 1.1//EN" "http://www.w3.org/Graphics/SVG/1.1/DTD/svg11.dtd" >
<svg viewBox="0 -442 2048 2048">
  <g transform="matrix(1 0 0 -1 0 1606)">
   <path fill="currentColor"
d="M1328 940q0 -7 -15.5 -80t-18.5 -78q-7 -15 -33 -15q-25 0 -25 12q0 8 2 24.5t2 24.5q0 73 -68 137q-91 86 -241 86q-159 0 -291 -100q-125 -94 -188 -247h636q38 0 38 -34q0 -51 -49 -51h-653q-19 -74 -19 -145h593q38 0 38 -34q0 -51 -49 -51h-575q26 -159 139 -253
t275 -94q89 0 174 62q42 31 131 152q7 9 16 9q8 0 22.5 -10t14.5 -17q0 -6 -25.5 -80t-31.5 -86q-10 -21 -29 -32q-110 -62 -304 -62q-193 0 -334.5 111.5t-185.5 299.5h-134q-37 0 -37 36q0 49 47 49h111q-3 32 -3 61q0 45 6 84h-84q-37 0 -37 36q0 49 47 49h95
q65 191 249 305q173 106 384 106q258 0 404 -160q6 -7 6 -15z" />
  </g>

</svg>
