<?xml version="1.0" standalone="no"?>
<!DOCTYPE svg PUBLIC "-//W3C//DTD SVG 1.1//EN" "http://www.w3.org/Graphics/SVG/1.1/DTD/svg11.dtd" >
<svg viewBox="0 -419 2155 2048">
  <g transform="matrix(1 0 0 -1 0 1638)">
   <path fill="currentColor"
d="M2155 -239q0 -75 -52.5 -127.5t-127.5 -52.5h-1599q-75 0 -127.5 52.5t-52.5 127.5v1599q0 75 52.5 127.5t127.5 52.5h1599q75 0 127.5 -52.5t52.5 -127.5v-1599zM1741 1400v51h-52v-21h16v-30q0 -13 -13 -14l-10 4l-4 10v80l4 10l10 4h15q12 0 14 -16h20q-1 38 -34 38
h-32q-34 0 -34 -35v-81q0 -35 34 -35h32q34 0 34 35zM1599 1365v151h-21v-78l-85 78h-11v-151h21v78l86 -78h10zM2107 778v22h-64q2 12 33 43t31 45q0 45 -35 45h-32q-30 0 -34 -39h21q0 17 13 17h16l10 -4l4 -11q0 -19 -32 -51.5t-32 -47.5v-19h101zM1445 1365v151h-33
v-151h33zM1381 1365v151h-21v-78l-86 78h-10v-151h21v78l85 -78h11zM2112 620v84q0 36 -36 36h-39q-36 0 -36 -34v-88q0 -34 36 -34h39q36 0 36 36zM1230 1365v151h-33v-151h33zM1161 1400q0 34 -21 41q21 8 21 32q0 43 -34 43h-66v-151h66q34 0 34 35zM2098 521v21h-84
v-154h36v66h32v22h-32v45h48zM1030 1365v151h-20l-68 -69l-68 69h-11v-151h21v86l54 -55l55 55v-86h37zM2106 317v28h-102v-157h41v66h47v28h-47v35h61zM837 1400v81q0 34 -33 34h-35q-33 0 -33 -33v-84q0 -33 33 -33h35q33 0 33 35zM709 1402h-21q-1 -16 -13 -16h-16l-10 4
l-4 10v80l4 10l10 4h16q12 0 13 -16h21q-2 38 -34 38h-32q-34 0 -34 -35v-81q0 -35 34 -35h32q32 0 34 37zM1959 -79v1279q0 59 -42.5 101.5t-101.5 42.5h-1280q-59 0 -101.5 -42.5t-42.5 -101.5v-1279q0 -59 42.5 -101.5t101.5 -42.5h1280q59 0 101.5 42.5t42.5 101.5z
M1634 -360q0 21 -24 49t-24 31q2 5 4 11q4 2 11 4q11 0 13 -17h20q-2 38 -32 38h-20q-32 0 -32 -35q0 -21 23.5 -49t23.5 -32l-3 -10l-10 -4l-9 3l-4 9v4h-21q0 -23 15 -33l56 4q13 11 13 27zM1514 -393v19h-47v130h-36v-151h15q14 0 68 2zM344 778v22h-64q2 12 33 43t31 45
q0 45 -34 45h-32q-31 0 -35 -39h21q0 17 14 17h15l10 -4l4 -11q0 -19 -32 -51.5t-32 -47.5v-19h101zM1398 -360v81q0 34 -32 34h-35q-33 0 -33 -33v-84q0 -33 33 -33h35q32 0 32 35zM349 620v84q0 36 -36 36h-39q-36 0 -36 -34v-88q0 -34 36 -34h39q36 0 36 36zM1264 -360
q0 34 -21 41q21 8 21 32q0 43 -34 43h-66v-151h66q34 0 34 35zM349 421v85q0 36 -36 36h-75v-157h75q36 0 36 36zM1127 -395v151h-19l-69 -69l-68 69h-11v-151h21v86l54 -55l55 55v-86h37zM349 224v84q0 36 -36 36h-39q-36 0 -36 -34v-88q0 -34 36 -34h39q36 0 36 36z
M929 -295v51h-37v-51l-4 -10l-9 -4l-10 4l-4 10v51h-37v-51q0 -30 32 -35v-64l37 -1v65q32 5 32 35zM800 -360q0 21 -24 49t-24 31q2 5 4 11q4 2 11 4q11 0 13 -17h20q-2 38 -32 38h-19q-33 0 -33 -35q0 -21 23.5 -49t23.5 -32q-1 -4 -3 -10l-10 -4l-9 3l-4 9v4h-21
q0 -20 11 -30q26 -2 55 -3q18 10 18 31zM2071 620l-4 -10l-11 -4l-10 4l-5 10v84l5 10l10 4l11 -4l4 -10v-84zM1124 1465l-4 -10l-10 -4h-13v43h13l10 -4l4 -10v-15zM1124 1400l-4 -10l-10 -4h-13v44h14q13 0 13 -14v-16zM800 1400l-4 -10l-9 -4l-10 4l-4 10v80l4 10l10 4
l9 -4l4 -10v-80zM1761 848h-235l92 92q-183 206 -458 206q-155 0 -291.5 -74t-221.5 -204l-58 58q97 141 248.5 220.5t322.5 79.5q308 0 515 -230l86 86v-234zM1439 796q0 -49 -41 -49q-48 0 -48 41q0 49 41 49q16 0 32 -12.5t16 -28.5zM1599 627q0 -15 -15.5 -27.5
t-31.5 -12.5q-15 0 -27.5 16t-12.5 32q0 15 15.5 27.5t31.5 12.5q40 0 40 -48zM1656 412q0 -43 -41 -43q-43 0 -43 43q0 42 43 42q41 0 41 -42zM1217 850q0 -43 -41 -43q-43 0 -43 43t43 43q41 0 41 -43zM1000 788q0 -41 -48 -41q-41 0 -41 49q0 16 16 28.5t32 12.5
q41 0 41 -49zM1599 195q0 -48 -40 -48q-48 0 -48 40q0 49 41 49q16 0 31.5 -13t15.5 -28zM838 635q0 -16 -12.5 -32t-27.5 -16q-16 0 -31.5 12.5t-15.5 27.5q0 48 40 48q16 0 31.5 -12.5t15.5 -27.5zM1439 28q0 -42 -48 -42q-41 0 -41 49q0 41 48 41q16 0 28.5 -16t12.5 -32
zM778 412q0 -43 -43 -43q-41 0 -41 43q0 42 41 42q43 0 43 -42zM1217 -27q0 -43 -41 -43q-43 0 -43 43q0 41 43 41q41 0 41 -41zM1362 -360l-4 -10l-10 -4l-9 4l-4 10v80l4 10l9 4l10 -4l4 -10v-80zM839 187q0 -40 -48 -40q-40 0 -40 48q0 15 15.5 28t31.5 13q41 0 41 -49z
M1000 35q0 -49 -41 -49q-48 0 -48 42q0 16 12.5 32t28.5 16q48 0 48 -41zM309 620l-5 -10l-10 -4l-11 4l-4 10v84l4 10l11 4l10 -4l5 -10v-84zM1228 -295l-4 -10l-10 -4h-13v43h13l10 -4l4 -10v-15zM1228 -360l-4 -10l-10 -4h-13v44h13q14 0 14 -14v-16zM309 422l-5 -10
l-11 -5h-14v113h14l11 -4l5 -11v-83zM309 225l-5 -11l-10 -4l-11 4l-4 11v83l4 10l11 4l10 -4l5 -10v-83z" />
  </g>

</svg>
