<?xml version="1.0" standalone="no"?>
<!DOCTYPE svg PUBLIC "-//W3C//DTD SVG 1.1//EN" "http://www.w3.org/Graphics/SVG/1.1/DTD/svg11.dtd" >
<svg viewBox="0 -419 2155 2048">
  <g transform="matrix(1 0 0 -1 0 1638)">
   <path fill="currentColor"
d="M2155 -239q0 -75 -52.5 -127.5t-127.5 -52.5h-1599q-75 0 -127.5 52.5t-52.5 127.5v1599q0 75 52.5 127.5t127.5 52.5h1599q75 0 127.5 -52.5t52.5 -127.5v-1599zM2107 778v22h-64q2 11 33 42.5t31 45.5q0 45 -35 45h-32q-30 0 -34 -39h21q0 17 13 17h16l10 -4l4 -11
q0 -19 -32 -51.5t-32 -47.5v-19h101zM1461 1365v151h-36v-65h-28v65h-36v-151h36v65h28v-65h36zM2107 583v22h-64q2 11 33 42.5t31 46.5q0 44 -35 44h-32q-30 0 -34 -38h21q0 16 13 16h16l10 -4l4 -10q0 -20 -32 -52.5t-32 -47.5v-19h101zM1322 1494v22h-100v-22h32v-129h37
v129h31zM1186 1365v116q0 35 -32 35h-36q-32 0 -32 -34v-117h36v65h28v-65h36zM2098 521v21h-84v-154h36v66h32v22h-32v45h48zM1056 1365v151h-20l-68 -69l-68 69h-11v-151h21v86l54 -55l55 55v-86h37zM2106 317v28h-102v-157h41v66h47v28h-47v35h61zM1959 -79v1279
q0 60 -42 102t-102 42h-1280q-60 0 -102 -42t-42 -102v-1279q0 -60 42 -102t102 -42h1280q60 0 102 42t42 102zM1717 -360q0 25 -24 49l-8 8q-14 14 -14 26q0 5 2 8q7 4 11 4q11 0 13 -17h20q-2 38 -32 38h-19q-32 0 -32 -35q0 -22 24 -49l8 -9q19 -21 12 -33q-6 -4 -10 -4
q-3 0 -5 1l-5 2l-4 9v4h-20q0 -37 32 -37h19q32 0 32 35zM1607 -395v60l-5 13l-11 5q16 8 16 29q0 44 -32 44h-68v-151h36v65h13l10 -4l5 -11v-50h36zM344 778v22h-64q2 11 33 42.5t31 45.5q0 45 -34 45h-32q-31 0 -35 -39h21q1 17 14 17h15l10 -4l4 -11q0 -19 -32 -51.5
t-32 -47.5v-19h101zM1479 -360v81q0 34 -33 34h-35q-32 0 -32 -33v-84q0 -33 32 -33h35q33 0 33 35zM1357 -266v22h-101v-22h32v-129h37v129h32zM344 583v22h-64q2 11 33 42.5t31 46.5q0 44 -34 44h-32q-31 0 -35 -38h21q1 16 14 16h15l10 -4l4 -10q0 -20 -32 -52.5
t-32 -47.5v-19h101zM1237 -395v116q0 35 -32 35h-36q-32 0 -32 -34v-117h36v65h28v-65h36zM349 421v85q0 36 -36 36h-39q-36 0 -36 -35v-87q0 -35 36 -35h39q36 0 36 36zM1107 -395v60l-5 13l-11 5q16 8 16 29q0 44 -32 44h-68v-151h36v65h13l10 -4l5 -11v-50h36zM978 -395
v21h-47v44h32v21h-32v43h47v22h-83v-151h83zM349 224v84q0 36 -36 36h-39q-36 0 -36 -34v-88q0 -34 36 -34h39q36 0 36 36zM867 -297v18q0 35 -32 35h-68v-151h36v65q64 -1 64 33zM733 -360v81q0 34 -33 34h-35q-32 0 -32 -33v-84q0 -33 32 -33h35q33 0 33 35zM1150 1451
h-28v29l5 10l9 4l9 -4l5 -10v-29zM1761 1313l-508 -1473h-94l-379 697l-157 -87l-34 60l255 148l379 -696l467 1351h71zM1571 -295l-5 -10l-10 -4h-13v43h13l10 -4l5 -10v-15zM1442 -360l-4 -10l-9 -4l-10 4l-4 10v80l4 10l10 4l9 -4l4 -10v-80zM1201 -309h-28v29l5 10l9 4
l9 -4l5 -10v-29zM1071 -295l-5 -10l-10 -4h-13v43h13l10 -4l5 -10v-15zM309 422l-5 -10l-10 -5l-11 5l-4 10v83l4 11l11 4l10 -4l5 -11v-83zM309 225l-5 -11l-10 -4l-11 4l-4 11v83l4 10l11 4l10 -4l5 -10v-83zM831 -295l-5 -10l-10 -4h-13v43h13l10 -4l5 -10v-15zM696 -360
l-4 -10l-9 -4l-10 4l-4 10v80l4 10l10 4l9 -4l4 -10v-80z" />
  </g>

</svg>
