<?xml version="1.0" standalone="no"?>
<!DOCTYPE svg PUBLIC "-//W3C//DTD SVG 1.1//EN" "http://www.w3.org/Graphics/SVG/1.1/DTD/svg11.dtd" >
<svg viewBox="0 -419 2155 2048">
  <g transform="matrix(1 0 0 -1 0 1638)">
   <path fill="currentColor"
d="M2155 -239q0 -75 -52.5 -127.5t-127.5 -52.5h-1599q-75 0 -127.5 52.5t-52.5 127.5v1599q0 75 52.5 127.5t127.5 52.5h1599q75 0 127.5 -52.5t52.5 -127.5v-1599zM2107 778v22h-64q2 11 33 42.5t31 45.5q0 45 -35 45h-32q-30 0 -34 -39h21q0 17 13 17h16l10 -4l4 -11
q0 -19 -32 -51.5t-32 -47.5v-19h101zM1449 1365v34h-33v-34h33zM1388 1402h-21q-1 -16 -13 -16h-16l-10 4l-4 10v80l4 10l10 4h16q12 0 13 -16h21q-2 38 -34 38h-32q-35 0 -35 -35v-81q0 -35 35 -35h32q32 0 34 37zM2107 617v35q0 33 -43 35l43 30v20h-101v-21h59l-43 -30
v-20l25 1q23 1 23 -15v-33l-4 -10l-10 -5h-15q-13 0 -14 17h-21q4 -38 33 -38h35q33 0 33 34zM1261 1400q0 25 -24 49l-9 9q-14 14 -14 24q0 5 4.5 9t9.5 4q11 0 13 -16h20q-2 37 -32 37h-19q-33 0 -33 -35q0 -28 24 -49l9 -8q20 -18 12 -34q-6 -4 -11 -4q-1 0 -4 2l-5 1
l-4 9v4h-21q0 -37 32 -37h20q32 0 32 35zM1137 1365v151h-34v-151h34zM2098 521v21h-84v-154h36v66h32v22h-32v45h48zM1068 1365v151h-19l-69 -69l-68 69h-11v-151h21v86l54 -55l55 55v-86h37zM2106 317v28h-102v-157h41v66h47v28h-47v35h61zM1959 -79v1279
q0 59 -42.5 101.5t-101.5 42.5h-1280q-59 0 -101.5 -42.5t-42.5 -101.5v-1279q0 -59 42.5 -101.5t101.5 -42.5h1280q59 0 101.5 42.5t42.5 101.5zM1716 -395v21h-48v130h-36v-151h84zM1598 -395v116q0 35 -32 35h-35q-33 0 -33 -34v-117h37v65h27v-65h36zM344 778v22h-64
q2 11 33 42.5t31 45.5q0 45 -34 45h-32q-31 0 -35 -39h21q1 17 14 17h15l10 -4l4 -11q0 -19 -32 -51.5t-32 -47.5v-19h101zM1470 -358h-20q-2 -16 -14 -16h-15l-10 4l-4 10v80l4 10l10 4h15q12 0 14 -16h20q-2 38 -34 38h-32q-34 0 -34 -35v-81q0 -35 34 -35h32q32 0 34 37z
M1330 -395v151h-33v-151h33zM344 617v35q0 33 -43 35l43 30v20h-101v-21h59l-43 -30v-20l25 1q23 1 23 -15v-33l-4 -10l-10 -5h-15q-13 0 -14 17h-21q4 -38 33 -38h35q33 0 33 34zM1265 -395v151h-21v-78l-85 78h-11v-151h21v78l85 -78h11zM349 421v85q0 36 -36 36h-39
q-36 0 -36 -35v-87q0 -35 36 -35h39q36 0 36 36zM1113 -395v151h-36v-65h-27v65h-37v-151h37v65h27v-65h36zM986 -358h-20q-2 -16 -14 -16h-15l-10 4l-4 10v80l4 10l10 4h15q12 0 14 -16h20q-2 38 -34 38h-32q-34 0 -34 -35v-81q0 -35 34 -35h32q32 0 34 37zM349 224v84
q0 36 -36 36h-39q-36 0 -36 -34v-88q0 -34 36 -34h39q36 0 36 36zM853 -395v21h-47v44h31v21h-31v43h47v22h-84v-151h84zM735 -266v22h-101v-22h32v-129h37v129h32zM1805 583l-187 -188v150h-424q-13 -114 -92.5 -193.5t-193.5 -92.5v-57h-75v57q-125 14 -206.5 105.5
t-81.5 217.5t81.5 217.5t206.5 105.5v57h75v-57q113 -12 193 -91.5t93 -193.5h424v150zM1562 -309h-27v29l4 10l9 4l10 -4l4 -10v-29zM309 422l-5 -10l-10 -5l-11 5l-4 10v83l4 11l11 4l10 -4l5 -11v-83zM309 225l-5 -11l-10 -4l-11 4l-4 11v83l4 10l11 4l10 -4l5 -10v-83z
M1141 620q-13 90 -78 155t-155 77v-232h233zM1141 545h-233v-233q91 12 156 77t77 156zM833 312v540q-103 -13 -169.5 -89.5t-66.5 -180.5t66.5 -180.5t169.5 -89.5z" />
  </g>

</svg>
