<?xml version="1.0" standalone="no"?>
<!DOCTYPE svg PUBLIC "-//W3C//DTD SVG 1.1//EN" "http://www.w3.org/Graphics/SVG/1.1/DTD/svg11.dtd" >
<svg viewBox="0 -419 2155 2048">
  <g transform="matrix(1 0 0 -1 0 1638)">
   <path fill="currentColor"
d="M2155 -239q0 -75 -52.5 -127.5t-127.5 -52.5h-1599q-75 0 -127.5 52.5t-52.5 127.5v1599q0 75 52.5 127.5t127.5 52.5h1599q75 0 127.5 -52.5t52.5 -127.5v-1599zM1892 1365v34h-34v-34h34zM1825 1365v60l-5 13l-11 5q16 8 16 29q0 44 -33 44h-67v-151h36v65h13l10 -4
l4 -11v-50h37zM1695 1365v116q0 35 -32 35h-35q-33 0 -33 -34v-117h37v65h27v-65h36zM1564 1365v151h-36v-65h-27v65h-37v-151h37v65h27v-65h36zM2107 778v22h-64q2 11 33 42.5t31 45.5q0 45 -35 45h-32q-30 0 -34 -39h21q0 17 13 17h16l10 -4l4 -11q0 -19 -32 -51.5
t-32 -47.5v-19h101zM1434 1402h-20q-2 -16 -14 -16h-15l-10 4l-4 10v80l4 10l10 4h15q12 0 14 -16h20q-1 38 -34 38h-32q-34 0 -34 -35v-81q0 -35 34 -35h32q32 0 34 37zM2120 634v22h-17v84h-39l-71 -86v-20h70v-50h40v50h17zM1253 1365v21h-47v130h-37v-151h84zM1139 1365
v116q0 35 -33 35h-35q-33 0 -33 -34v-117h37v65h27v-65h37zM2106 424v33q0 36 -64 36v28h64v21h-100v-71h49l10 -4l5 -11v-32l-5 -10l-10 -4h-15q-13 0 -14 16h-20q4 -38 34 -38h32q34 0 34 36zM1008 1402h-20q-2 -16 -14 -16h-15l-10 4l-5 10v80l5 10l10 4h15q12 0 14 -16
h20q-2 37 -34 37h-32q-34 0 -34 -35v-81q0 -34 34 -34h32q32 0 34 37zM2106 317v28h-102v-157h41v66h47v28h-47v35h61zM878 1365v150h-33v-150h33zM809 1494v21h-100v-21h31v-129h37v129h32zM684 1463v18q0 35 -33 35h-68v-151h37v65q64 -1 64 33zM559 1400v81q0 34 -33 34
h-35q-33 0 -33 -33v-84q0 -33 33 -33h35q33 0 33 35zM1959 -79v1279q0 60 -42 102t-102 42h-1280q-60 0 -102 -42t-42 -102v-1279q0 -60 42 -102t102 -42h1280q60 0 102 42t42 102zM1836 -395v151h-21v-78l-85 78h-11v-151h21v78l85 -78h11zM1690 -360v81q0 34 -33 34h-35
q-33 0 -33 -33v-84q0 -33 33 -33h35q33 0 33 35zM1556 -395v151h-33v-151h33zM344 778v22h-64q2 11 33 42.5t31 45.5q0 45 -34 45h-32q-31 0 -35 -39h21q1 17 14 17h15l10 -4l4 -11q0 -19 -32 -51.5t-32 -47.5v-19h101zM1487 -266v21h-101v-21h32v-129h37v129h32zM1350 -395
v151h-34v-151h34zM353 634v22h-17v84h-38l-68 -86v-20h67v-50h39v50h17zM1280 -395v151h-21v-78l-85 78h-11v-151h21v78l86 -78h10zM1131 -360v51h-52v-21h16v-30q0 -13 -14 -14l-9 4l-5 10v80l5 10l10 4h15q12 0 14 -16h20q-2 38 -34 38h-32q-34 0 -34 -35v-81
q0 -35 34 -35h32q34 0 34 35zM353 436v22h-17v84h-38l-68 -86v-20h67v-50h39v50h17zM1000 -360v81q0 34 -32 34h-36q-32 0 -32 -33v-84q0 -33 32 -33h36q32 0 32 35zM349 224v84q0 36 -36 36h-39q-36 0 -36 -34v-88q0 -34 36 -34h39q36 0 36 36zM863 -358h-21
q-2 -16 -14 -16h-15l-10 4l-4 10v80l4 10l10 4h15q12 0 14 -16h21q-2 37 -35 37h-32q-34 0 -34 -35v-81q0 -34 34 -34h32q32 0 35 37zM730 -395v21h-47v44h32v21h-32v43h47v22h-83v-151h83zM614 -395v60l-5 13l-11 5q16 8 16 29q0 44 -32 44h-68v-151h36v65h14l9 -4l5 -11
v-50h36zM1788 1465l-4 -10l-10 -4h-13v43h13l10 -4l4 -10v-15zM1659 1451h-27v29l4 10l9 4l10 -4l4 -10v-29zM2063 656h-45l45 54v-54zM1102 1451h-27v29l4 10l10 4l9 -4l4 -10v-29zM647 1465l-4 -10l-10 -4h-13v43h13l10 -4l4 -10v-15zM522 1400l-4 -10l-10 -4l-9 4l-4 10
v80l4 10l9 4l10 -4l4 -10v-80zM1594 726q0 -37 -37 -37q-39 -1 -39 37v307h-304v-996q0 -39 -23 -39h-414q-24 0 -24 37v344q0 41 47 39q45 -2 45 -39v-305h291v998q0 37 24 37h410q24 0 24 -39v-344zM1653 -360l-4 -10l-10 -4l-9 4l-4 10v80l4 10l9 4l10 -4l4 -10v-80z
M297 656h-42l42 53v-53zM297 458h-42l42 53v-53zM964 -360l-5 -10l-9 -4l-10 4l-4 10v80l5 10l9 4l9 -4l5 -10v-80zM309 225l-5 -11l-10 -4l-11 4l-4 11v83l4 10l11 4l10 -4l5 -10v-83zM578 -295l-5 -10l-9 -4h-14v43h14l9 -4l5 -10v-15z" />
  </g>

</svg>
