<?xml version="1.0" standalone="no"?>
<!DOCTYPE svg PUBLIC "-//W3C//DTD SVG 1.1//EN" "http://www.w3.org/Graphics/SVG/1.1/DTD/svg11.dtd" >
<svg viewBox="0 -419 2155 2048">
  <g transform="matrix(1 0 0 -1 0 1638)">
   <path fill="currentColor"
d="M2155 -239q0 -75 -52.5 -127.5t-127.5 -52.5h-1599q-75 0 -127.5 52.5t-52.5 127.5v1599q0 75 52.5 127.5t127.5 52.5h1599q75 0 127.5 -52.5t52.5 -127.5v-1599zM1664 1400v81q0 35 -33 35h-68v-151h68q33 0 33 35zM1523 1365v21h-47v44h31v21h-31v43h47v22h-84v-151h84
zM2107 778v22h-64q2 11 33 42.5t31 45.5q0 45 -35 45h-32q-30 0 -34 -39h21q0 17 13 17h16l10 -4l4 -11q0 -19 -32 -51.5t-32 -47.5v-19h101zM1407 1400q0 28 -24 49l-9 8q-20 18 -11 34q6 3 11 3q11 0 13 -16h20q-2 37 -32 37h-19q-33 0 -33 -34q0 -29 24 -50l9 -8
q20 -18 12 -34q-6 -3 -11 -3q-2 0 -4 1l-5 2l-4 8v5h-21q0 -37 32 -37h20q32 0 32 35zM2120 634v22h-17v84h-39l-71 -86v-20h70v-50h40v50h17zM1298 1400v81q0 34 -33 34h-35q-33 0 -33 -33v-84q0 -33 33 -33h35q33 0 33 35zM1170 1365v21h-47v130h-37v-151h84zM2098 521v21
h-84v-154h36v66h32v22h-32v45h48zM1054 1402h-20q-2 -16 -14 -16h-15l-10 4l-5 10v80l5 10l10 4h15q12 0 14 -16h20q-2 38 -34 38h-32q-34 0 -34 -35v-81q0 -35 34 -35h32q32 0 34 37zM2106 317v28h-102v-157h41v66h47v28h-47v35h61zM918 1365v151h-21v-78l-85 78h-11v-151
h21v78l85 -78h11zM770 1365v21h-47v44h31v21h-31v43h47v22h-84v-151h84zM1959 -79v1279q0 60 -42 102t-102 42h-1280q-60 0 -102 -42t-42 -102v-1279q0 -60 42 -102t102 -42h1280q60 0 102 42t42 102zM1781 -281q-3 37 -33 37h-19q-32 0 -32 -35q0 -25 24 -49l8 -8
q14 -14 14 -26q0 -4 -2 -8q-6 -4 -10 -4q-2 0 -5 2l-4 1l-5 9v4h-20q0 -37 32 -37h19q32 0 32 35q0 22 -24 49l-8 9q-19 21 -11 33q6 4 10 4q11 0 13 -16h21zM1664 -395v151h-20l-68 -69l-69 69h-11v-151h22v86l54 -55l54 55v-86h38zM344 778v22h-64q2 11 33 42.5t31 45.5
q0 45 -34 45h-32q-31 0 -35 -39h21q1 17 14 17h15l10 -4l4 -11q0 -19 -32 -51.5t-32 -47.5v-19h101zM1453 -360v116h-36v-116l-4 -10l-10 -4l-9 4l-4 10v116h-37v-118q0 -33 33 -33h35q32 0 32 35zM353 634v22h-17v84h-38l-68 -86v-20h67v-50h39v50h17zM1320 -395v151h-21
v-78l-85 78h-11v-151h21v78l86 -78h10zM1172 -395v116q0 35 -32 35h-35q-33 0 -33 -34v-117h37v65h27v-65h36zM349 422v33q0 37 -37 37h-18q-6 -2 -14 -5l-1 -2v4q0 31 53 31v22h-31q-24 0 -43 -17.5t-19 -41.5v-61q0 -36 37 -36h36q37 0 37 36zM1041 -395v151h-37v-65h-27
v65h-37v-151h37v65h27v-65h37zM349 224v84q0 36 -36 36h-39q-36 0 -36 -34v-88q0 -34 36 -34h39q36 0 36 36zM916 -297v18q0 35 -32 35h-68v-151h37v65q63 -1 63 33zM784 -395v21h-47v130h-37v-151h84zM670 -395v116q0 35 -33 35h-35q-33 0 -33 -34v-117h37v65h27v-65h37z
M1627 1400l-4 -10l-10 -4h-13v108h13l10 -4l4 -10v-80zM2063 656h-45l45 54v-54zM1261 1400l-4 -10l-10 -4l-9 4l-4 10v80l4 10l9 4l10 -4l4 -10v-80zM1775 566q0 -254 -173 -427t-427 -173q-255 0 -427.5 172.5t-172.5 427.5q0 254 173 427.5t427 173.5t427 -173.5
t173 -427.5zM297 656h-42l42 53v-53zM1136 -309h-27v29l4 10l9 4l10 -4l4 -10v-29zM309 422l-5 -10l-10 -4l-10 4l-5 10v33l5 10l10 4l10 -4l5 -10v-33zM880 -295l-4 -10l-10 -4h-13v43h13l10 -4l4 -10v-15zM309 225l-5 -11l-10 -4l-11 4l-4 11v83l4 10l11 4l10 -4l5 -10
v-83zM633 -309h-27v29l4 10l10 4l9 -4l4 -10v-29zM1718 566q0 230 -156.5 387t-386.5 157q-229 0 -386 -157.5t-157 -386.5t157 -386t386 -157t386 157t157 386zM1546 247h-219v29h8q50 0 50 29q0 14 -23 69l-45 107h-323l-45 -111q-20 -49 -20 -59q0 -28 49 -34l8 -1v-29
h-182v29h7q49 0 89 98l263 637h30l271 -637q42 -98 76 -98h6v-29zM1298 518l-148 350l-142 -350h290z" />
  </g>

</svg>
