<?xml version="1.0" standalone="no"?>
<!DOCTYPE svg PUBLIC "-//W3C//DTD SVG 1.1//EN" "http://www.w3.org/Graphics/SVG/1.1/DTD/svg11.dtd" >
<svg viewBox="0 -442 2048 2048">
  <g transform="matrix(1 0 0 -1 0 1606)">
   <path fill="currentColor"
d="M786 593q0 -57 -56 -57q-57 0 -57 57t57 57q56 0 56 -57zM902 477q0 -56 -57 -56t-57 56q0 57 57 57t57 -57zM629 635q0 -56 -57 -56t-57 56q0 57 57 57t57 -57zM944 320q0 -57 -57 -57t-57 57q0 56 57 56t57 -56zM471 593q0 -57 -57 -57q-56 0 -56 57t56 57q57 0 57 -57
zM902 162q0 -57 -57 -57t-57 57q0 56 57 56t57 -56zM355 477q0 -56 -57 -56q-56 0 -56 56q0 57 56 57q57 0 57 -57zM786 46q0 -57 -56 -57q-57 0 -57 57t57 57q56 0 56 -57zM629 4q0 -56 -57 -56t-57 56q0 57 57 57t57 -57zM313 320q0 -57 -56 -57q-57 0 -57 57q0 56 57 56
q56 0 56 -56zM471 46q0 -57 -57 -57q-56 0 -56 57t56 57q57 0 57 -57zM355 162q0 -57 -57 -57q-56 0 -56 57q0 56 56 56q57 0 57 -56z" />
  </g>

</svg>
