<?xml version="1.0" standalone="no"?>
<!DOCTYPE svg PUBLIC "-//W3C//DTD SVG 1.1//EN" "http://www.w3.org/Graphics/SVG/1.1/DTD/svg11.dtd" >
<svg viewBox="0 -419 2155 2048">
  <g transform="matrix(1 0 0 -1 0 1638)">
   <path fill="currentColor"
d="M2155 -239q0 -75 -52.5 -127.5t-127.5 -52.5h-1599q-75 0 -127.5 52.5t-52.5 127.5v1599q0 75 52.5 127.5t127.5 52.5h1599q75 0 127.5 -52.5t52.5 -127.5v-1599zM1560 1365v21h-48v44h32v21h-32v43h48v22h-84v-151h84zM2107 778v22h-64q2 11 33 42.5t31 45.5
q0 45 -35 45h-32q-30 0 -34 -39h21q0 17 13 17h16l10 -4l4 -11q0 -19 -32 -51.5t-32 -47.5v-19h101zM1450 1365v21h-48v130h-36v-151h84zM1336 1365v21h-48v130h-36v-151h84zM2111 620q0 35 -24 42q24 9 24 34q0 44 -38 44h-35q-38 0 -38 -36q0 -34 24 -42q-24 -8 -24 -34
q0 -44 38 -44h35q38 0 38 36zM1214 1365v151h-33v-151h33zM1149 1365v116q0 35 -32 35h-35q-33 0 -33 -34v-117h37v65h27v-65h36zM2098 521v21h-84v-154h36v66h32v22h-32v45h48zM1018 1365v60l-5 13l-11 5q16 8 16 29q0 44 -32 44h-68v-151h37v65h13l10 -4l4 -11v-50h36z
M2106 317v28h-102v-157h41v66h47v28h-47v35h61zM891 1400q0 34 -21 41q21 8 21 32q0 43 -34 43h-67v-151h67q34 0 34 35zM1959 -79v1279q0 60 -42 102t-102 42h-1280q-60 0 -102 -42t-42 -102v-1279q0 -60 42 -102t102 -42h1280q60 0 102 42t42 102zM1659 -360q0 25 -24 49
l-9 9q-14 14 -14 25q0 5 4.5 8.5t9.5 3.5q10 0 12 -16h21q-3 37 -32 37h-20q-32 0 -32 -35q0 -28 24 -49l9 -8q20 -18 11 -34q-5 -3 -10 -3q-2 0 -5 1l-4 1l-5 9l1 5h-21q0 -38 32 -38h19q33 0 33 35zM1548 -395v151h-21v-78l-85 78h-11v-151h21v78l85 -78h11zM344 778v22
h-64q2 11 33 42.5t31 45.5q0 45 -34 45h-32q-31 0 -35 -39h21q1 17 14 17h15l10 -4l4 -11q0 -19 -32 -51.5t-32 -47.5v-19h101zM1400 -395v60l-5 13l-11 5q16 8 16 29q0 44 -32 44h-68v-151h36v65h14l10 -4l4 -11v-50h36zM350 620q0 35 -24 42q24 9 24 34q0 44 -38 44h-35
q-38 0 -38 -36q0 -34 24 -42q-24 -8 -24 -34q0 -44 38 -44h35q38 0 38 36zM1271 -395v21h-48v44h32v21h-32v43h48v22h-84v-151h84zM1161 -266v22h-101v-22h32v-129h37v129h32zM349 421v85q0 36 -36 36h-39q-36 0 -36 -35v-87q0 -35 36 -35h39q36 0 36 36zM1037 -266v22h-101
v-22h32v-129h37v129h32zM349 224v84q0 36 -36 36h-39q-36 0 -36 -34v-88q0 -34 36 -34h39q36 0 36 36zM916 -395v116q0 35 -32 35h-36q-32 0 -32 -34v-117h36v65h28v-65h36zM792 -297v18q0 35 -33 35h-68v-151h37v65h13q51 0 51 33zM2071 688l-5 -11l-11 -4l-10 4l-5 11v16
l5 10l10 4l11 -4l5 -10v-16zM2071 620l-5 -10l-11 -4l-10 4l-5 10v17q0 14 15 14q16 0 16 -14v-17zM1113 1451h-27v29l4 10l9 4l10 -4l4 -10v-29zM1494 1147q0 -53 -37.5 -90.5t-90.5 -37.5t-90 37.5t-37 90.5t37 90t90 37t90.5 -37t37.5 -90zM982 1465l-4 -10l-10 -4h-13
v43h13l10 -4l4 -10v-15zM854 1465l-4 -10l-10 -4h-13v43h13l10 -4l4 -10v-15zM854 1400l-4 -10l-10 -4h-13v44h14q13 0 13 -14v-16zM1112 1147q0 -53 -37.5 -90.5t-90.5 -37.5q-54 0 -91 37t-37 91q0 53 37.5 90t90.5 37q52 0 90 -37.5t38 -89.5zM1494 764
q0 -53 -37.5 -90.5t-90.5 -37.5t-90 37.5t-37 90.5t37 90t90 37t90.5 -37t37.5 -90zM1494 381q0 -53 -37.5 -90t-90.5 -37t-90 37t-37 90t37 90.5t90 37.5t90.5 -37.5t37.5 -90.5zM1112 764q0 -53 -37.5 -90.5t-90.5 -37.5q-54 0 -91 37t-37 91q0 53 37.5 90t90.5 37
q52 0 90 -37.5t38 -89.5zM1112 381q0 -53 -37.5 -90t-90.5 -37q-54 0 -91 36.5t-37 90.5q0 53 37.5 90.5t90.5 37.5t90.5 -37.5t37.5 -90.5zM1494 -2q0 -53 -37.5 -90t-90.5 -37t-90 37t-37 90t37 90.5t90 37.5t90.5 -37.5t37.5 -90.5zM1364 -295l-4 -10l-10 -4h-14v43h14
l10 -4l4 -10v-15zM310 688l-5 -11l-11 -4l-10 4l-5 11v16l5 10l10 4l11 -4l5 -10v-16zM1112 -2q0 -52 -38 -89.5t-90 -37.5q-53 0 -90.5 37t-37.5 90t37.5 90.5t90.5 37.5t90.5 -37.5t37.5 -90.5zM310 620l-5 -10l-11 -4l-10 4l-5 10v17q0 14 15 14q16 0 16 -14v-17z
M309 422l-5 -10l-10 -5l-11 5l-4 10v83l4 11l11 4l10 -4l5 -11v-83zM880 -309h-28v29l5 10l9 4l9 -4l5 -10v-29zM309 225l-5 -11l-10 -4l-11 4l-4 11v83l4 10l11 4l10 -4l5 -10v-83zM755 -295l-4 -10l-10 -4h-13v43h13l10 -4l4 -10v-15zM1079 764q0 39 -28 67.5t-67 28.5
q-40 0 -68 -28t-28 -68q0 -41 27.5 -68.5t68.5 -27.5q40 0 67.5 28t27.5 68zM1462 381q0 40 -28 68t-68 28t-67.5 -28t-27.5 -68t27.5 -68t67.5 -28t68 28t28 68zM1461 -2q0 40 -27.5 68t-67.5 28t-68 -28t-28 -68t28 -67.5t68 -27.5q39 0 67 28t28 67zM1079 -2
q0 40 -27.5 68t-67.5 28t-68 -28t-28 -68t28 -67.5t68 -27.5q39 0 67 28t28 67z" />
  </g>

</svg>
