<?xml version="1.0" standalone="no"?>
<!DOCTYPE svg PUBLIC "-//W3C//DTD SVG 1.1//EN" "http://www.w3.org/Graphics/SVG/1.1/DTD/svg11.dtd" >
<svg viewBox="0 -419 2155 2048">
  <g transform="matrix(1 0 0 -1 0 1638)">
   <path fill="currentColor"
d="M2155 -239q0 -75 -52.5 -127.5t-127.5 -52.5h-1599q-75 0 -127.5 52.5t-52.5 127.5v1599q0 75 52.5 127.5t127.5 52.5h1599q75 0 127.5 -52.5t52.5 -127.5v-1599zM1573 1400q0 28 -24 49l-9 8q-21 19 -11 34q6 4 11 4q11 0 13 -17h20q-2 38 -32 38h-19q-33 0 -33 -35
q0 -25 24 -49l9 -9q13 -13 13 -24q0 -5 -2 -9q-5 -4 -10 -4q-2 0 -5 1l-4 2l-4 9v4h-21q0 -37 32 -37h19q33 0 33 35zM2107 778v22h-64q2 11 33 42.5t31 45.5q0 45 -35 45h-32q-30 0 -34 -39h21q0 17 13 17h16l10 -4l4 -11q0 -19 -32 -51.5t-32 -47.5v-19h101zM1458 1423v93
h-38v-116l-4 -10l-10 -4h-13v130h-38v-116l-4 -10l-10 -4h-13v130h-38v-151q56 0 65 4v-4h45q58 0 58 58zM2112 643v61q0 36 -38 36h-35q-38 0 -38 -36v-34q0 -36 38 -36h17q10 0 15 6v-4q0 -31 -52 -31v-22h31q24 0 43 18t19 42zM1263 1400v81q0 34 -33 34h-35
q-33 0 -33 -33v-84q0 -33 33 -33h35q33 0 33 35zM1135 1365v60l-6 13l-11 5q17 8 17 29q0 44 -33 44h-68v-151h37v65h13l10 -4l4 -11v-50h37zM2107 506v36h-101v-21h64v-14q-32 -66 -32 -84v-35h37q0 54 21 96zM1007 1365v60l-6 13l-11 5q17 8 17 29q0 44 -33 44h-68v-151
h37v65h13l10 -4l4 -11v-50h37zM2106 317v28h-102v-157h41v66h47v28h-47v35h61zM877 1365v116q0 35 -32 35h-35q-33 0 -33 -34v-117h37v65h27v-65h36zM1959 -79v1279q0 60 -42 102t-102 42h-1280q-60 0 -102 -42t-42 -102v-1279q0 -60 42 -102t102 -42h1280q60 0 102 42
t42 102zM344 778v22h-64q2 11 33 42.5t31 45.5q0 45 -34 45h-32q-31 0 -35 -39h21q1 17 14 17h15l10 -4l4 -11q0 -19 -32 -51.5t-32 -47.5v-19h101zM1481 -360q0 34 -22 41q22 8 22 32q0 43 -35 43h-66v-151h66q35 0 35 35zM349 643v61q0 36 -38 36h-35q-38 0 -38 -36v-34
q0 -36 38 -36h18q9 0 14 6v-4q0 -31 -52 -31v-22h31q24 0 43 18t19 42zM1252 -395v34h-33v-34h33zM1220 -297v18q0 35 -33 35h-67v-151h36v65q64 -1 64 33zM349 421v85q0 36 -36 36h-39q-36 0 -36 -35v-87q0 -35 36 -35h39q36 0 36 36zM1081 -360v116h-37v-116l-4 -10l-9 -4
l-10 4l-4 10v116h-36v-118q0 -33 32 -33h35q33 0 33 35zM953 -360q0 28 -24 49l-9 8q-21 19 -11 34q6 4 11 4q11 0 13 -17h20q-2 38 -32 38h-19q-33 0 -33 -35q0 -25 24 -49l9 -9q14 -14 14 -25q0 -4 -2 -8q-6 -4 -11 -4q-2 0 -4 1l-5 2l-4 9v4h-21q0 -37 32 -37h20
q32 0 32 35zM349 224v84q0 36 -36 36h-39q-36 0 -36 -34v-88q0 -34 36 -34h39q36 0 36 36zM2071 670l-4 -10l-11 -4l-10 4l-5 10v33l5 10l10 5l11 -5l4 -10v-33zM1226 1400l-4 -10l-10 -4l-9 4l-4 10v80l4 10l9 4l10 -4l4 -10v-80zM1098 1465l-4 -10l-10 -4h-13v43h13l10 -4
l4 -10v-15zM970 1465l-4 -10l-10 -4h-13v43h13l10 -4l4 -10v-15zM841 1451h-27v29l4 10l9 4l10 -4l4 -10v-29zM1736 104l-89 -88l-472 472l-472 -472l-89 88l473 473l-297 296l-176 -176v440h441l-176 -176l296 -296l296 296l-176 176h441v-440l-176 176l-297 -296z
M1444 -295l-4 -10l-10 -4h-13v43h13l10 -4l4 -10v-15zM1444 -360l-4 -10l-10 -4h-13v44h13q14 0 14 -14v-16zM309 670l-5 -10l-10 -4l-11 4l-4 10v33l4 10l11 5l10 -5l5 -10v-33zM1183 -295l-4 -10l-10 -4h-13v43h13l10 -4l4 -10v-15zM309 422l-5 -10l-10 -5l-11 5l-4 10v83
l4 11l11 4l10 -4l5 -11v-83zM309 225l-5 -11l-10 -4l-11 4l-4 11v83l4 10l11 4l10 -4l5 -10v-83z" />
  </g>

</svg>
