<?xml version="1.0" standalone="no"?>
<!DOCTYPE svg PUBLIC "-//W3C//DTD SVG 1.1//EN" "http://www.w3.org/Graphics/SVG/1.1/DTD/svg11.dtd" >
<svg viewBox="0 -419 2155 2048">
  <g transform="matrix(1 0 0 -1 0 1638)">
   <path fill="currentColor"
d="M2155 -239q0 -75 -52.5 -127.5t-127.5 -52.5h-1599q-75 0 -127.5 52.5t-52.5 127.5v1599q0 75 52.5 127.5t127.5 52.5h1599q75 0 127.5 -52.5t52.5 -127.5v-1599zM1776 1365v151h-37v-65h-27v65h-36v-151h36v65h27v-65h37zM1637 1494v22h-100v-22h32v-129h36v129h32z
M2107 778v22h-64q2 11 33 42.5t31 45.5q0 45 -35 45h-32q-30 0 -34 -39h21q0 17 13 17h16l10 -4l4 -11q0 -19 -32 -51.5t-32 -47.5v-19h101zM1501 1365v116q0 35 -33 35h-35q-32 0 -32 -34v-117h36v65h27v-65h37zM1371 1365v151h-20l-68 -69l-69 69h-10v-151h21v86l54 -55
l54 55v-86h38zM2112 643v61q0 36 -38 36h-35q-38 0 -38 -36v-34q0 -36 38 -36h17q10 0 15 6v-4q0 -31 -52 -31v-22h31q24 0 43 18t19 42zM2098 521v21h-84v-154h36v66h32v22h-32v45h48zM1122 1365v34h-33v-34h33zM1061 1402h-21q-1 -16 -13 -16h-16l-10 4l-4 10v80l4 10
l10 4h16q12 0 13 -16h21q-2 38 -34 38h-32q-35 0 -35 -35v-81q0 -35 35 -35h32q32 0 34 37zM934 1400q0 25 -24 49l-9 9q-14 14 -14 24q0 5 4.5 9t9.5 4q11 0 13 -16h20q-2 37 -32 37h-19q-33 0 -33 -35q0 -28 24 -49l9 -8q20 -18 12 -34q-6 -4 -11 -4q-1 0 -4 2l-5 1l-4 9
v4h-21q0 -37 32 -37h20q32 0 32 35zM2106 317v28h-102v-157h41v66h47v28h-47v35h61zM810 1365v151h-34v-151h34zM741 1365v151h-19l-69 -69l-68 69h-11v-151h21v86l54 -55l55 55v-86h37zM1959 -79v1279q0 60 -42 102t-102 42h-1280q-60 0 -102 -42t-42 -102v-1279
q0 -60 42 -102t102 -42h1280q60 0 102 42t42 102zM1754 -360q0 34 -22 41q22 8 22 32q0 43 -35 43h-66v-151h66q35 0 35 35zM1514 -360q0 28 -24 49l-9 8q-21 19 -11 34q6 4 11 4q11 0 13 -17h20q-2 38 -32 38h-19q-33 0 -33 -35q0 -25 24 -49l9 -9q14 -14 14 -25
q0 -4 -2 -8q-6 -4 -11 -4q-2 0 -4 1l-5 2l-4 9v4h-21q0 -37 32 -37h20q32 0 32 35zM344 778v22h-64q2 11 33 42.5t31 45.5q0 45 -34 45h-32q-31 0 -35 -39h21q1 17 14 17h15l10 -4l4 -11q0 -19 -32 -51.5t-32 -47.5v-19h101zM1395 -395v21h-48v130h-36v-151h84zM349 643v61
q0 36 -38 36h-35q-38 0 -38 -36v-34q0 -36 38 -36h18q9 0 14 6v-4q0 -31 -52 -31v-22h31q24 0 43 18t19 42zM1279 -360v81q0 34 -33 34h-35q-33 0 -33 -33v-84q0 -33 33 -33h35q33 0 33 35zM1145 -360q0 34 -22 41q22 8 22 32q0 43 -35 43h-66v-151h66q35 0 35 35zM350 421
q0 36 -24 43q24 8 24 33q0 45 -38 45h-35q-38 0 -38 -36q0 -35 24 -42q-24 -9 -24 -34q0 -45 38 -45h35q38 0 38 36zM1008 -395v151h-20l-69 -69l-68 69h-11v-151h21v86l55 -55l54 55v-86h38zM349 224v84q0 36 -36 36h-39q-36 0 -36 -34v-88q0 -34 36 -34h39q36 0 36 36z
M809 -295v51h-37v-51l-4 -10l-9 -4l-10 4l-4 10v51h-36v-51q0 -30 31 -35v-65h37v65q32 5 32 35zM680 -360q0 25 -24 49l-8 8q-14 14 -14 26q0 5 2 8q6 4 11 4q11 0 13 -17h20q-2 38 -32 38h-19q-33 0 -33 -35q0 -25 24 -49l9 -9q14 -14 14 -25q0 -4 -2 -8q-6 -4 -11 -4
q-2 0 -4 1l-5 2l-4 9v4h-21q0 -37 33 -37h19q32 0 32 35zM1464 1451h-27v29l4 10l10 4l9 -4l4 -10v-29zM2071 670l-4 -10l-11 -4l-10 4l-5 10v33l5 10l10 5l11 -5l4 -10v-33zM1632 104h-914v915h82v-562h271v-270h561v-83zM1717 -295l-4 -10l-10 -4h-13v43h13l10 -4l4 -10
v-15zM1717 -360l-4 -10l-10 -4h-13v44h13q14 0 14 -14v-16zM309 670l-5 -10l-10 -4l-11 4l-4 10v33l4 10l11 5l10 -5l5 -10v-33zM1242 -360l-4 -10l-9 -4l-10 4l-4 10v80l4 10l10 4l9 -4l4 -10v-80zM1108 -295l-4 -10l-10 -4h-13v43h13l10 -4l4 -10v-15zM310 489l-5 -10
l-11 -4l-10 4l-5 10v16l5 11l10 4l11 -4l5 -11v-16zM1108 -360l-4 -10l-10 -4h-13v44h13q14 0 14 -14v-16zM310 422l-5 -10l-11 -5l-10 5l-5 10v16q0 15 15 15q16 0 16 -15v-16zM309 225l-5 -11l-10 -4l-11 4l-4 11v83l4 10l11 4l10 -4l5 -10v-83zM1005 187v204h-205v-204
h205z" />
  </g>

</svg>
