<?xml version="1.0" standalone="no"?>
<!DOCTYPE svg PUBLIC "-//W3C//DTD SVG 1.1//EN" "http://www.w3.org/Graphics/SVG/1.1/DTD/svg11.dtd" >
<svg viewBox="0 -419 2155 2048">
  <g transform="matrix(1 0 0 -1 0 1638)">
   <path fill="currentColor"
d="M2155 -239q0 -75 -52.5 -127.5t-127.5 -52.5h-1599q-75 0 -127.5 52.5t-52.5 127.5v1599q0 75 52.5 127.5t127.5 52.5h1599q75 0 127.5 -52.5t52.5 -127.5v-1599zM1813 1365v34h-33v-34h33zM1746 1365v60l-5 13l-11 5q16 8 16 29q0 44 -32 44h-68v-151h37v65h13l10 -4
l4 -11v-50h36zM2107 978v22h-64q2 11 33 42.5t31 45.5q0 44 -35 44h-32q-30 0 -34 -38h21q0 17 13 17h16l10 -4l4 -11q0 -19 -32 -51.5t-32 -47.5v-19h101zM1616 1400v51h-52v-21h16v-30q0 -13 -13 -14l-10 4l-4 10v80l4 10l10 4h15q12 0 14 -16h20q-2 38 -34 38h-32
q-34 0 -34 -35v-81q0 -35 34 -35h32q34 0 34 35zM2111 781v120q0 37 -36 37h-38q-36 0 -36 -35v-122h40v67h30v-67h40zM1489 1400v81q0 34 -32 34h-35q-33 0 -33 -33v-84q0 -33 33 -33h35q32 0 32 35zM1356 1365v21h-48v44h32v21h-32v43h48v22h-84v-151h84zM2111 619v34
q0 36 -37 36h-18q-6 -2 -14 -5l-1 -1v3q0 32 53 32v21h-31q-24 0 -43 -17.5t-19 -41.5v-61q0 -36 37 -36h36q37 0 37 36zM1240 1400v81q0 35 -33 35h-68v-151h68q33 0 33 35zM1097 1365v151h-33v-151h33zM2112 421v85q0 36 -36 36h-75v-157h75q36 0 36 36zM2106 317v28h-102
v-157h41v66h47v28h-47v35h61zM907 1365l-66 75l66 76h-35l-48 -56v56h-37v-151h37v53l44 -53h39zM760 1398v118h-36v-116l-4 -10l-10 -4l-9 4l-4 10v35h-37v-37q0 -33 32 -33h36q32 0 32 33zM637 1402h-20q-2 -16 -14 -16h-16l-9 4l-5 10v80l5 10l9 4h16q12 0 14 -16h20
q-2 38 -34 38h-32q-34 0 -34 -35v-81q0 -35 34 -35h32q32 0 34 37zM1959 -79v1279q0 60 -42 102t-102 42h-1280q-60 0 -102 -42t-42 -102v-1279q0 -60 42 -102t102 -42h1280q60 0 102 42t42 102zM344 978v22h-64q2 11 33 42.5t31 45.5q0 44 -34 44h-32q-31 0 -35 -38h21
q1 17 14 17h15l10 -4l4 -11q0 -19 -32 -51.5t-32 -47.5v-19h101zM349 818v84q0 36 -36 36h-39q-36 0 -36 -34v-88q0 -34 36 -34h39q36 0 36 36zM1477 -360q0 34 -22 41q22 8 22 32q0 43 -35 43h-66v-151h66q35 0 35 35zM349 620v84q0 36 -36 36h-39q-36 0 -36 -34v-88
q0 -34 36 -34h39q36 0 36 36zM1275 -395v34h-34v-34h34zM1233 -266v22h-100v-22h32v-129h36v129h32zM349 421v85q0 36 -36 36h-39q-36 0 -36 -35v-87q0 -35 36 -35h39q36 0 36 36zM1092 -395v43q0 25 -23 32q23 8 23 33v43h-37v-51l-4 -10l-9 -4l-10 4l-4 10v51h-37v-43
q0 -25 23 -33q-23 -7 -23 -32v-43h37v50l4 11l10 4l9 -4l4 -11v-50h37zM957 -395v21h-47v44h31v21h-31v43h47v22h-84v-151h84zM349 224v84q0 36 -36 36h-39q-36 0 -36 -34v-88q0 -34 36 -34h39q36 0 36 36zM1710 1465l-4 -10l-10 -4h-13v43h13l10 -4l4 -10v-15zM2071 870
h-30v31l5 10l10 4l10 -4l5 -10v-31zM1453 1400l-4 -10l-10 -4l-9 4l-4 10v80l4 10l9 4l10 -4l4 -10v-80zM2071 620l-5 -11l-10 -4l-10 4l-5 11v32l5 11l10 4l10 -4l5 -11v-32zM1203 1400l-4 -10l-10 -4h-13v108h13l10 -4l4 -10v-80zM2071 422l-4 -10l-11 -5h-15v113h15
l11 -4l4 -11v-83zM1777 -2l-1188 1l-16 18v28h322v1043h-306q-2 25 -16 27v29h405v-1099h374v1102h238q14 0 32.5 27t19.5 43h29q21 -35 101 -87v-42h-335v-1043h148q16 0 36 29q18 26 20 44h29q23 -36 107 -91v-29zM309 818l-5 -10l-10 -4l-11 4l-4 10v83l4 11l11 4l10 -4
l5 -11v-83zM1440 -295l-4 -10l-10 -4h-13v43h13l10 -4l4 -10v-15zM1440 -360l-4 -10l-10 -4h-13v44h13q14 0 14 -14v-16zM309 620l-5 -10l-10 -4l-11 4l-4 10v84l4 10l11 4l10 -4l5 -10v-84zM309 422l-5 -10l-10 -5l-11 5l-4 10v83l4 11l11 4l10 -4l5 -11v-83zM309 225
l-5 -11l-10 -4l-11 4l-4 11v83l4 10l11 4l10 -4l5 -10v-83z" />
  </g>

</svg>
