<?xml version="1.0" standalone="no"?>
<!DOCTYPE svg PUBLIC "-//W3C//DTD SVG 1.1//EN" "http://www.w3.org/Graphics/SVG/1.1/DTD/svg11.dtd" >
<svg viewBox="0 -442 2048 2048">
  <g transform="matrix(1 0 0 -1 0 1606)">
   <path fill="currentColor"
d="M1212 949h-112v51h-51v112h163v-163zM1212 712h-112v164h112v-164zM975 1000h-164v112h164v-112zM738 1000h-164v112h164v-112zM1212 474h-112v164h112v-164zM1212 237h-112v164h112v-164zM500 1000h-164v112h164v-112zM263 1000h-51v-51h-112v163h163v-112zM1212 0h-163
v112h51v51h112v-163zM212 712h-112v164h112v-164zM975 0h-164v112h164v-112zM212 474h-112v164h112v-164zM738 0h-164v112h164v-112zM212 237h-112v164h112v-164zM500 0h-164v112h164v-112zM263 0h-163v163h112v-51h51v-112z" />
  </g>

</svg>
