<?xml version="1.0" standalone="no"?>
<!DOCTYPE svg PUBLIC "-//W3C//DTD SVG 1.1//EN" "http://www.w3.org/Graphics/SVG/1.1/DTD/svg11.dtd" >
<svg viewBox="0 -419 2155 2048">
  <g transform="matrix(1 0 0 -1 0 1638)">
   <path fill="currentColor"
d="M2155 -239q0 -74 -53 -127t-127 -53h-1599q-74 0 -127 53t-53 127v1599q0 74 53 127t127 53h1599q74 0 127 -53t53 -127v-1599zM2107 778v22h-64q2 11 33 42.5t31 45.5q0 45 -35 45h-32q-30 0 -34 -39h21q0 17 13 17h16l10 -4l4 -11q0 -19 -32 -51.5t-32 -47.5v-19h101z
M1511 1402h-21q-1 -16 -14 -16h-15l-10 4l-4 10v80l4 10l10 4h15q12 0 14 -16h21q-2 37 -35 37h-32q-34 0 -34 -35v-81q0 -34 34 -34h32q32 0 35 37zM1381 1365v150h-34v-150h34zM2106 622h-20q-2 -17 -14 -17h-16l-9 4l-5 11v82l5 10l9 4h16q12 0 14 -16h20q-2 38 -34 38
h-32q-34 0 -34 -36v-83q0 -36 34 -36h32q32 0 34 39zM1311 1494v21h-100v-21h32v-129h36v129h32zM1188 1463v18q0 35 -32 35h-68v-151h36v65h13q51 0 51 33zM2098 521v21h-84v-154h36v66h32v22h-32v45h48zM1062 1400v81q0 34 -33 34h-35q-33 0 -33 -33v-84q0 -33 33 -33h35
q33 0 33 35zM940 1402h-21q-1 -16 -14 -16h-15l-10 4l-4 10v80l4 10l10 4h15q13 0 14 -16h21q-2 38 -35 38h-31q-35 0 -35 -35v-81q0 -35 35 -35h31q33 0 35 37zM2098 326v21h-84v-154h36v66h32v22h-32v45h48zM1959 -79v1279q0 59 -42.5 101.5t-101.5 42.5h-1280
q-59 0 -101.5 -42.5t-42.5 -101.5v-1279q0 -59 42.5 -101.5t101.5 -42.5h1280q59 0 101.5 42.5t42.5 101.5zM344 778v22h-64q2 11 33 42.5t31 45.5q0 45 -34 45h-32q-31 0 -35 -39h21q1 17 14 17h15l10 -4l4 -11q0 -19 -32 -51.5t-32 -47.5v-19h101zM1511 -358h-21
q-1 -16 -14 -16h-15l-10 4l-4 10v80l4 10l10 4h15q12 0 14 -16h21q-2 38 -35 38h-32q-34 0 -34 -35v-81q0 -35 34 -35h32q32 0 35 37zM1381 -395v151h-34v-151h34zM344 622h-20q-2 -17 -14 -17h-16l-9 4l-5 11v82l5 10l9 4h16q12 0 14 -16h20q-2 38 -34 38h-32
q-34 0 -34 -36v-83q0 -36 34 -36h32q32 0 34 39zM1311 -266v22h-100v-22h32v-129h36v129h32zM1188 -298v18q0 35 -32 35h-68v-151h36v65h13q51 0 51 33zM350 421q0 36 -24 43q24 8 24 33q0 45 -38 45h-35q-38 0 -38 -36q0 -35 24 -42q-24 -9 -24 -34q0 -45 38 -45h35
q38 0 38 36zM1062 -361v81q0 35 -33 35h-35q-33 0 -33 -33v-84q0 -33 33 -33h35q33 0 33 34zM940 -358h-21q-1 -16 -14 -16h-15l-10 4l-4 10v80l4 10l10 4h15q13 0 14 -16h21q-2 37 -35 37h-31q-35 0 -35 -35v-81q0 -35 35 -35h31q33 0 35 38zM349 224v84q0 36 -36 36h-39
q-36 0 -36 -34v-88q0 -34 36 -34h39q36 0 36 36zM1152 1465l-5 -10l-9 -4h-14v43h14l9 -4l5 -10v-15zM1025 1400l-4 -10l-9 -4l-10 4l-4 10v80l4 10l10 4l9 -4l4 -10v-80zM1761 138q0 -16 -44 -67q-49 -56 -81 -56q-23 0 -69 13q-136 38 -265 242q-14 23 -32 59
q-2 -30 -39 -89q-127 -202 -428 -202q-86 0 -152 77q-63 74 -63 161q0 47 31 76q78 72 212 162q169 113 241 112q-7 0 -34 35q-125 163 -261 260q-31 22 -31 76q0 98 120 98q81 0 129 -52q15 -17 64 -94q129 -206 250 -366q258 -342 418 -426q30 -16 34 -19zM1152 -295
l-5 -11l-9 -4h-14v44h14l9 -4l5 -10v-15zM310 489l-5 -10l-11 -4l-10 4l-5 10v16l5 11l10 4l11 -4l5 -11v-16zM310 422l-5 -10l-11 -5l-10 5l-5 10v16q0 15 15 15q16 0 16 -15v-16zM1025 -360l-4 -10l-9 -4l-10 4l-4 10v80l4 10l10 4l9 -4l4 -10v-80zM309 225l-5 -11l-10 -4
l-11 4l-4 11v83l4 10l11 4l10 -4l5 -10v-83zM1227 386l-137 193q-10 1 -66 -21q-279 -109 -279 -242q0 -68 71 -123q67 -52 137 -52q82 0 179 81q102 85 95 164z" />
  </g>

</svg>
