<?xml version="1.0" standalone="no"?>
<!DOCTYPE svg PUBLIC "-//W3C//DTD SVG 1.1//EN" "http://www.w3.org/Graphics/SVG/1.1/DTD/svg11.dtd" >
<svg viewBox="0 -419 2154 2048">
  <g transform="matrix(1 0 0 -1 0 1638)">
   <path fill="currentColor"
d="M2154 -239q0 -74 -53 -127t-127 -53h-1598q-74 0 -127 53t-53 127v1599q0 74 53 127t127 53h1598q74 0 127 -53t53 -127v-1599zM1849 1365v33h-34v-33h34zM1807 1494v21h-100v-21h31v-129h37v129h32zM1666 1365v42q0 25 -23 33q23 7 23 32v43h-37v-50l-4 -11l-10 -4l-9 4
l-4 11v50h-37v-43q0 -25 23 -32q-23 -8 -23 -33v-42h37v50l4 10l9 4l10 -4l4 -10v-50h37zM1531 1365v21h-48v43h32v21h-32v44h48v21h-84v-150h84zM2107 778v22h-64q2 11 33 42.5t31 45.5q0 45 -35 45h-32q-30 0 -34 -39h21q0 17 13 17h16l10 -4l4 -11q0 -19 -32 -51.5
t-32 -47.5v-19h101zM1357 1402h-20q-2 -16 -14 -16h-15l-10 4l-5 10v80l5 10l10 4h15q12 0 14 -16h20q-2 37 -34 37h-32q-34 0 -34 -35v-81q0 -34 34 -34h32q32 0 34 37zM2112 620v84q0 36 -36 36h-75v-156h75q36 0 36 36zM1227 1365v150h-33v-150h33zM1169 1463v18
q0 34 -33 34l-68 1v-151h37v65h13q51 0 51 33zM2112 421v85q0 36 -36 36h-75v-157h75q36 0 36 36zM1042 1400v81q0 34 -32 34h-35q-33 0 -33 -33v-84q0 -33 33 -33h35q32 0 32 35zM908 1365v150h-33v-150h33zM2106 317v28h-102v-157h41v66h47v28h-47v35h61zM840 1365v151
h-37v-65h-27v65h-37v-151h37v65h27v-65h37zM713 1494v22h-101v-22h32v-129h37v129h32zM585 1365v21h-47v44h31v21h-31v43h47v22h-84v-151h84zM1959 -79v1279q0 59 -42.5 101.5t-101.5 42.5h-1280q-59 0 -101.5 -42.5t-42.5 -101.5v-1279q0 -59 42.5 -101.5t101.5 -42.5h1280
q59 0 101.5 42.5t42.5 101.5zM1849 -395v33h-34v-33h34zM1807 -266v21h-100v-21h31v-129h37v129h32zM1666 -395v42q0 25 -23 33q23 7 23 32v43h-37v-50l-4 -10l-10 -4l-9 4l-4 10v50h-37v-43q0 -25 23 -32q-23 -8 -23 -32v-43h37v50l4 10l9 4l10 -4l4 -10v-50h37zM1531 -395
v21h-48v43h32v21h-32v44h48v21h-84v-150h84zM344 778v22h-64q2 11 33 42.5t31 45.5q0 45 -34 45h-32q-31 0 -35 -39h21q1 17 14 17h15l10 -4l4 -11q0 -19 -32 -51.5t-32 -47.5v-19h101zM1357 -358h-20q-2 -16 -14 -16h-15l-10 4l-5 10v80l5 10l10 4h15q12 0 14 -16h20
q-2 37 -34 37h-32q-34 0 -34 -35v-81q0 -34 34 -34h32q32 0 34 37zM349 620v84q0 36 -36 36h-75v-156h75q36 0 36 36zM1227 -395v150h-33v-150h33zM1169 -297v18q0 35 -33 35h-68v-151h37v65h13q51 0 51 33zM350 421q0 36 -24 43q24 8 24 33q0 45 -38 45h-35q-38 0 -38 -36
q0 -35 24 -42q-24 -9 -24 -34q0 -45 38 -45h35q38 0 38 36zM1042 -360v81q0 35 -32 35h-35q-33 0 -33 -33v-85q0 -33 33 -33h35q32 0 32 35zM908 -395v150h-33v-150h33zM349 224v84q0 36 -36 36h-39q-36 0 -36 -34v-88q0 -34 36 -34h39q36 0 36 36zM840 -395v151h-37v-65
h-27v65h-37v-151h37v65h27v-65h37zM713 -265v21h-101v-21h32v-130h37v130h32zM585 -395v21h-47v44h31v21h-31v44h47v21h-84v-151h84zM2071 620l-4 -10l-11 -4h-15v112h15l11 -4l4 -10v-84zM1132 1465l-4 -10l-10 -4h-13v43h13l10 -4l4 -10v-15zM2071 422l-4 -10l-11 -5h-15
v113h15l11 -4l4 -11v-83zM1006 1400l-4 -10l-10 -4l-9 4l-4 10v80l4 10l9 4l10 -4l4 -10v-80zM1755 338l-2 -15q-158 -30 -217 -30q-44 0 -55 49q-3 14 -3 84q0 46 6 139t6 139q0 145 -16 216q-32 141 -129 141q-42 0 -71 -28q-73 -71 -76 -552l-1 -153q0 -39 -1 -72
q1 -2 0 -2q-2 -25 7 -84q16 -102 65 -109l-1 -22q-115 -29 -203 -29q-32 0 -41 6q-42 27 -42 401q0 125 7 232h-102q3 -18 3 -34q0 -132 -197 -132q-43 0 -91 10l-3 19q36 45 36 109q0 59 -39 98l5 17q45 10 89 10q128 0 189 -70h112q17 166 60 239q53 90 192 146
q124 50 225 50q238 0 238 -318q0 -56 -6.5 -169t-6.5 -169q0 -109 63 -117zM309 620l-5 -10l-11 -4h-14v112h14l11 -4l5 -10v-84zM1132 -295l-4 -10l-10 -4h-13v44h13l10 -5l4 -10v-15zM310 489l-5 -10l-11 -4l-10 4l-5 10v16l5 11l10 4l11 -4l5 -11v-16zM310 422l-5 -10
l-11 -5l-10 5l-5 10v16q0 15 15 15q16 0 16 -15v-16zM1006 -360l-4 -10l-10 -4l-9 4l-4 10v80l4 10l9 4l10 -4l4 -10v-80zM309 225l-5 -11l-10 -4l-11 4l-4 11v83l4 10l11 4l10 -4l5 -10v-83z" />
  </g>

</svg>
