<?xml version="1.0" standalone="no"?>
<!DOCTYPE svg PUBLIC "-//W3C//DTD SVG 1.1//EN" "http://www.w3.org/Graphics/SVG/1.1/DTD/svg11.dtd" >
<svg viewBox="0 -419 2155 2048">
  <g transform="matrix(1 0 0 -1 0 1638)">
   <path fill="currentColor"
d="M2155 -239q0 -75 -52.5 -127.5t-127.5 -52.5h-1599q-75 0 -127.5 52.5t-52.5 127.5v1599q0 75 52.5 127.5t127.5 52.5h1599q75 0 127.5 -52.5t52.5 -127.5v-1599zM1859 1400q0 22 -24 49l-8 9q-19 21 -12 34q7 3 11 3q11 0 13 -16h20q-2 37 -32 37h-19q-32 0 -32 -35
q0 -25 24 -49l8 -8q14 -14 14 -26q0 -4 -2 -8q-6 -3 -10 -3q-2 0 -5 1l-5 1l-4 9v5h-20q0 -38 32 -38h19q32 0 32 35zM1740 1365v22h-47v129h-37v-151h84zM1624 1400v81q0 35 -33 35h-35q-32 0 -32 -33v-84q0 -33 32 -33h35q33 0 33 34zM2107 812v35q0 34 -43 36l43 29v21
h-101v-22h59l-43 -29v-21l25 1q23 1 23 -15v-33l-4 -10l-10 -4h-15q-13 0 -14 16h-21q4 -38 33 -38h35q33 0 33 34zM1490 1400q0 35 -21 41q21 8 21 32q0 43 -34 43h-66v-151h66q34 0 34 35zM2112 620v84q0 36 -36 36h-39q-36 0 -36 -34v-88q0 -34 36 -34h39q36 0 36 36z
M1353 1365v151h-20l-68 -68l-69 68h-10v-151h21v86l54 -54l54 54v-86h38zM1154 1465v51h-36v-50l-4 -11l-10 -4l-9 4l-4 11v50h-37v-51q0 -30 32 -34v-66h36v66q32 4 32 34zM2107 422v35q0 34 -43 36l43 29v21h-101v-22h59l-43 -29v-21l25 1q23 1 23 -15v-33l-4 -10l-10 -4
h-15q-13 0 -14 16h-21q4 -38 33 -38h35q33 0 33 34zM1026 1479q-3 37 -33 37h-19q-32 0 -32 -35q0 -25 24 -49l8 -8q14 -14 14 -26q0 -4 -2 -8q-6 -3 -10 -3q-2 0 -5 1l-5 1l-4 9v5h-20q0 -38 32 -38h19q32 0 32 35q0 22 -24 49l-8 9q-19 21 -11 34q6 3 10 3q11 0 13 -16h21
zM2106 317v28h-102v-157h41v66h47v28h-47v35h61zM861 1365l-67 75l67 76h-35l-48 -56v56h-37v-151h37v53l44 -53h39zM714 1398v118h-37v-116l-4 -10l-9 -4l-10 4l-4 10v35h-36v-37q0 -33 32 -33h36q32 0 32 33zM591 1402h-21q-1 -16 -13 -16h-16l-10 4l-4 10v80l4 10l10 4
h16q12 0 13 -16h21q-2 38 -34 38h-32q-34 0 -34 -35v-81q0 -35 34 -35h32q32 0 34 37zM1959 -79v1279q0 59 -42.5 101.5t-101.5 42.5h-1280q-59 0 -101.5 -42.5t-42.5 -101.5v-1279q0 -59 42.5 -101.5t101.5 -42.5h1280q59 0 101.5 42.5t42.5 101.5zM1664 -395v34h-33v-34
h33zM1623 -266v22h-101v-22h32v-129h37v129h32zM344 812v35q0 34 -43 36l43 29v21h-101v-22h59l-43 -29v-21l25 1q23 1 23 -15v-33l-4 -10l-10 -4h-15q-13 0 -14 16h-21q4 -38 33 -38h35q33 0 33 34zM1488 -358h-21q-2 -16 -14 -16h-15l-10 4l-4 10v80l4 10l10 4h15
q12 0 14 -16h21q-2 37 -35 37h-32q-34 0 -34 -35v-81q0 -34 34 -34h32q32 0 35 37zM1351 -395v151h-20v-78l-86 78h-11v-151h21v78l86 -78h10zM349 620v84q0 36 -36 36h-39q-36 0 -36 -34v-88q0 -34 36 -34h39q36 0 36 36zM1200 -360v116h-37v-116l-4 -10l-10 -4l-9 4l-4 10
v116h-37v-118q0 -33 33 -33h35q33 0 33 35zM349 421v85q0 36 -36 36h-39q-36 0 -36 -35v-87q0 -35 36 -35h39q36 0 36 36zM1071 -297v18q0 35 -33 35h-67v-151h36v65q64 -1 64 33zM349 224v84q0 36 -36 36h-39q-36 0 -36 -34v-88q0 -34 36 -34h39q36 0 36 36zM819 -311v16
h-16v-16q0 -17 -17 -17h-33v-34q0 -16 -17 -16t-17 16v26q0 14 17 16v17q-17 2 -17 17v8q0 17 17 17t17 -17v-17h33v17q0 34 -33 34h-34q-33 0 -33 -34q0 -29 33 -33q-33 0 -33 -34v-17q0 -33 33 -33h34q33 0 33 33v17h2q31 0 31 34zM1587 1401l-4 -10l-9 -4l-10 4l-4 10v80
l4 10l10 4l9 -4l4 -10v-80zM1453 1466l-4 -11l-10 -4h-13v44h13l10 -4l4 -10v-15zM1453 1401l-4 -10l-10 -4h-13v43h14q13 0 13 -14v-15zM2071 620l-4 -10l-11 -4l-10 4l-5 10v84l5 10l10 4l11 -4l4 -10v-84zM1430 973h-340v-1056h-170v1226h510v-170zM309 620l-5 -10
l-10 -4l-11 4l-4 10v84l4 10l11 4l10 -4l5 -10v-84zM309 422l-5 -10l-10 -5l-11 5l-4 10v83l4 11l11 4l10 -4l5 -11v-83zM1034 -295l-4 -10l-10 -4h-13v43h13l10 -4l4 -10v-15zM309 225l-5 -11l-10 -4l-11 4l-4 11v83l4 10l11 4l10 -4l5 -10v-83zM1390 1013v90h-430v-1146
h90v1056h340z" />
  </g>

</svg>
