<?xml version="1.0" standalone="no"?>
<!DOCTYPE svg PUBLIC "-//W3C//DTD SVG 1.1//EN" "http://www.w3.org/Graphics/SVG/1.1/DTD/svg11.dtd" >
<svg viewBox="0 -419 2155 2048">
  <g transform="matrix(1 0 0 -1 0 1638)">
   <path fill="currentColor"
d="M2155 -239q0 -74 -53 -127t-127 -53h-1599q-75 0 -127.5 52.5t-52.5 127.5v1599q0 75 52.5 127.5t127.5 52.5h1599q74 0 127 -53t53 -127v-1599zM1658 1365v116q0 35 -32 35h-36q-32 0 -32 -34v-117h36v65h28v-65h36zM1534 1365v151h-21v-78l-86 78h-10v-151h21v78
l85 -78h11zM2107 812v35q0 34 -43 36l43 29v21h-101v-22h59l-43 -29v-21l25 1q23 1 23 -15v-33l-4 -10l-10 -4h-15q-13 0 -14 16h-21q4 -38 33 -38h35q33 0 33 34zM1385 1365v116q0 35 -33 35h-35q-32 0 -32 -34v-117h36v65h27v-65h37zM2112 620v84q0 36 -36 36h-39
q-36 0 -36 -34v-88q0 -34 36 -34h39q36 0 36 36zM1260 1400v51h-52v-21h16v-30q0 -13 -14 -14l-9 4l-5 10v80l5 10l9 4h16q12 0 14 -16h20q-2 38 -34 38h-32q-34 0 -34 -35v-81q0 -35 34 -35h32q34 0 34 35zM1132 1365v116q0 35 -33 35h-35q-33 0 -33 -34v-117h37v65h27v-65
h37zM2112 445v61q0 36 -38 36h-35q-38 0 -38 -36v-34q0 -36 38 -36h17q10 0 15 7v-4q0 -32 -52 -31v-22h31q24 0 43 17.5t19 41.5zM999 1365v60l-5 13l-11 5q16 8 16 29q0 44 -32 44h-68v-151h36v65h14l9 -4l5 -11v-50h36zM2106 317v28h-102v-157h41v66h47v28h-47v35h61z
M863 1365v151h-33v-151h33zM792 1365v151h-36v-65h-28v65h-36v-151h36v65h28v-65h36zM1959 -79v1279q0 59 -42.5 101.5t-101.5 42.5h-1280q-59 0 -101.5 -42.5t-42.5 -101.5v-1279q0 -59 42.5 -101.5t101.5 -42.5h1280q59 0 101.5 42.5t42.5 101.5zM1658 -395v116
q0 35 -32 35h-36q-32 0 -32 -34v-117h36v65h28v-65h36zM1534 -395v151h-21v-78l-86 78h-10v-151h21v78l85 -78h11zM344 812v35q0 34 -43 36l43 29v21h-101v-22h59l-43 -29v-21l25 1q23 1 23 -15v-33l-4 -10l-10 -4h-15q-13 0 -14 16h-21q4 -38 33 -38h35q33 0 33 34z
M1385 -395v116q0 35 -33 35h-35q-32 0 -32 -34v-117h36v65h27v-65h37zM349 620v84q0 36 -36 36h-39q-36 0 -36 -34v-88q0 -34 36 -34h39q36 0 36 36zM1260 -360v51h-52v-21h16v-30q0 -13 -14 -14l-9 4l-5 10v80l5 10l9 4h16q12 0 14 -16h20q-2 38 -34 38h-32q-34 0 -34 -35
v-81q0 -35 34 -35h32q34 0 34 35zM1132 -395v116q0 35 -33 35h-35q-33 0 -33 -34v-117h37v65h27v-65h37zM353 436v22h-17v84h-38l-68 -86v-20h67v-50h39v50h17zM999 -395v60l-5 13l-11 5q16 8 16 29q0 44 -32 44h-68v-151h36v65h14l9 -4l5 -11v-50h36zM349 224v84
q0 36 -36 36h-39q-36 0 -36 -34v-88q0 -34 36 -34h39q36 0 36 36zM863 -395v151h-33v-151h33zM792 -395v151h-36v-65h-28v65h-36v-151h36v65h28v-65h36zM1622 1451h-28v29l5 10l9 4l9 -4l5 -10v-29zM1348 1451h-27v29l4 10l10 4l9 -4l4 -10v-29zM2071 620l-4 -10l-11 -4
l-10 4l-5 10v84l5 10l10 4l11 -4l4 -10v-84zM1095 1451h-27v29l4 10l9 4l10 -4l4 -10v-29zM2071 473l-4 -10l-11 -5l-10 5l-5 10v33l5 10l10 4l11 -4l4 -10v-33zM963 1465l-5 -10l-9 -4h-14v43h14l9 -4l5 -10v-15zM1832 512q0 -31 -16 -65q-18 -40 -46 -40q-10 0 -64 48
q-19 11 -96 21q-84 10 -114 24q5 7 104 31q94 23 94 51q0 32 -56 104q-74 95 -207 181l-9 16q7 3 14 3q19 0 91 -25q101 -35 199 -138q106 -112 106 -211zM1370 602q0 -277 -169 -513q-89 -124 -168 -124q-21 0 -29 21l-8 40q-15 28 -57 74l-65 70v10q2 3 9 3
q135 -57 172 -57q92 0 167 213q62 176 62 290q0 145 -112 145q-31 0 -98.5 -17.5t-91.5 -32.5q-15 -10 -90 -198q-93 -234 -147 -337q-93 -178 -161 -178q-46 0 -46 45q0 42 29 76q16 17 54 62q128 160 247 481q-1 7 -11 7t-63.5 -19.5t-66.5 -26.5q-61 -34 -54 -34
q-42 0 -98.5 49t-56.5 90q0 17 13 27q4 -1 55 -35q24 -16 69 -16q62 0 245 57q23 28 48 122q23 88 23 132q0 41 -22 61q-8 6 -61 33q10 33 55 33q41 0 102 -35q67 -39 67 -76q0 -11 -50.5 -108.5t-50.5 -136.5q32 1 99 18q64 17 99 17q161 0 161 -232zM1622 -309h-28v29
l5 10l9 4l9 -4l5 -10v-29zM1348 -309h-27v29l4 10l10 4l9 -4l4 -10v-29zM309 620l-5 -10l-10 -4l-11 4l-4 10v84l4 10l11 4l10 -4l5 -10v-84zM1095 -309h-27v29l4 10l9 4l10 -4l4 -10v-29zM297 458h-42l42 53v-53zM963 -295l-5 -10l-9 -4h-14v43h14l9 -4l5 -10v-15zM309 225
l-5 -11l-10 -4l-11 4l-4 11v83l4 10l11 4l10 -4l5 -10v-83z" />
  </g>

</svg>
