<?xml version="1.0" standalone="no"?>
<!DOCTYPE svg PUBLIC "-//W3C//DTD SVG 1.1//EN" "http://www.w3.org/Graphics/SVG/1.1/DTD/svg11.dtd" >
<svg viewBox="0 -419 2155 2048">
  <g transform="matrix(1 0 0 -1 0 1638)">
   <path fill="currentColor"
d="M2155 -239q0 -74 -53 -127t-127 -53h-1599q-74 0 -127 53t-53 127v1599q0 74 53 127t127 53h1599q74 0 127 -53t53 -127v-1599zM1571 1365v151h-21v-78l-85 78h-11v-151h21v78l85 -78h11zM2107 812v35q0 34 -43 36l43 29v21h-101v-22h59l-43 -29v-21l25 1q23 1 23 -15
v-33l-4 -10l-10 -4h-15q-13 0 -14 16h-21q4 -38 33 -38h35q33 0 33 34zM1424 1400v116h-37v-116l-4 -10l-9 -4l-10 4l-4 10v116h-37l1 -118q0 -33 32 -33h35q33 0 33 35zM2081 583v155h-18l-32 -18v-20h16v-117h34zM1296 1400q0 34 -21 41q21 8 21 32q0 43 -34 43h-66v-151
h66q34 0 34 35zM1166 1365v151h-21v-78l-85 78h-11v-151h21v78l85 -78h11zM2112 445v61q0 36 -38 36h-35q-38 0 -38 -36v-34q0 -36 38 -36h17q10 0 15 7v-4q0 -32 -52 -31v-22h31q24 0 43 17.5t19 41.5zM1016 1364v116q0 35 -33 35h-35q-33 0 -33 -33v-118h37v65h27v-65h37z
M2106 317v28h-102v-157h41v66h47v28h-47v35h61zM899 1364l-66 76l66 75h-35l-48 -55v55h-37v-151h37v53l44 -53h39zM1959 -79v1279q0 59 -42.5 101.5t-101.5 42.5h-1280q-59 0 -101.5 -42.5t-42.5 -101.5v-1279q0 -59 42.5 -101.5t101.5 -42.5h1280q59 0 101.5 42.5
t42.5 101.5zM1571 -395v151h-21v-78l-85 78h-11v-151h21v78l85 -78h11zM344 812v35q0 34 -43 36l43 29v21h-101v-22h59l-43 -29v-21l25 1q23 1 23 -15v-33l-4 -10l-10 -4h-15q-13 0 -14 16h-21q4 -38 33 -38h35q33 0 33 34zM1424 -360v116h-37v-116l-4 -10l-9 -4l-10 4
l-4 10v116h-37l1 -118q0 -33 32 -33h35q33 0 33 35zM319 583v155h-18l-32 -18v-20h15v-117h35zM1296 -360q0 34 -21 41q21 8 21 32q0 43 -34 43h-66v-151h66q34 0 34 35zM1166 -395v151h-21v-78l-85 78h-11v-151h21v78l85 -78h11zM349 445v61q0 36 -38 36h-35q-38 0 -38 -36
v-34q0 -36 38 -36h18q9 0 14 7v-4q0 -32 -52 -31v-22h31q24 0 43 17.5t19 41.5zM1016 -396v116q0 35 -33 35h-35q-33 0 -33 -33v-118h37v65h27v-65h37zM349 224v84q0 36 -36 36h-39q-36 0 -36 -34v-88q0 -34 36 -34h39q36 0 36 36zM899 -396l-66 76l66 75h-35l-48 -55v55
h-37v-151h37v53l44 -53h39zM1260 1465l-4 -10l-10 -4h-13v43h13l10 -4l4 -10v-15zM1260 1400l-4 -10l-10 -4h-13v44h13q14 0 14 -14v-16zM2071 473l-4 -10l-11 -5l-10 5l-5 10v33l5 10l10 4l11 -4l4 -10v-33zM979 1450h-27v30l4 10l10 4l9 -4l4 -10v-30zM1658 407
q-83 -40 -97 -40q-103 0 -215 153q-33 46 -147 243q-16 -52 -42 -115q-103 -246 -465 -339l2 7q336 143 430 413q16 46 16 59h-284q-9 0 -27.5 -2.5t-27.5 -2.5l-10 3q-11 41 -45 64l4 8q61 -23 190 -23h210q0 25 3 73.5t3 73.5v83h-310q-17 22 -35 52l2 7q128 -21 411 -21
q181 0 205 16q4 2 23.5 23t23.5 21q16 0 79 -62q0 -23 -17 -30q-8 -4 -37 -3l-149 3q-98 2 -129 -13q0 -31 -1.5 -92t-1.5 -92v-39h119q133 0 156 15q44 38 59 38q57 0 76 -91h-383l-2 -8q0 -104 160 -225q40 -30 253 -157zM1260 -295l-4 -10l-10 -4h-13v43h13l10 -4l4 -10
v-15zM1260 -360l-4 -10l-10 -4h-13v44h13q14 0 14 -14v-16zM309 473l-5 -10l-10 -5l-11 5l-4 10v33l4 10l11 4l10 -4l5 -10v-33zM979 -310h-27v30l4 10l10 4l9 -4l4 -10v-30zM309 225l-5 -11l-10 -4l-11 4l-4 11v83l4 10l11 4l10 -4l5 -10v-83z" />
  </g>

</svg>
