<?xml version="1.0" standalone="no"?>
<!DOCTYPE svg PUBLIC "-//W3C//DTD SVG 1.1//EN" "http://www.w3.org/Graphics/SVG/1.1/DTD/svg11.dtd" >
<svg viewBox="0 -419 2155 2048">
  <g transform="matrix(1 0 0 -1 0 1638)">
   <path fill="currentColor"
d="M2155 -239q0 -75 -52.5 -127.5t-127.5 -52.5h-1599q-75 0 -127.5 52.5t-52.5 127.5v1599q0 75 52.5 127.5t127.5 52.5h1599q75 0 127.5 -52.5t52.5 -127.5v-1599zM1664 1400v81q0 35 -33 35h-68v-151h68q33 0 33 35zM1523 1365v21h-47v44h31v21h-31v43h47v22h-84v-151h84
zM2107 812v35q0 34 -43 36l43 29v21h-101v-22h59l-43 -29v-21l25 1q23 1 23 -15v-33l-4 -10l-10 -4h-15q-13 0 -14 16h-21q4 -38 33 -38h35q33 0 33 34zM1407 1400q0 20 -23.5 48.5t-23.5 31.5l3 11q4 2 11 3q11 0 13 -16h20q-2 37 -32 37h-19q-33 0 -33 -34q0 -20 24 -48.5
t24 -32.5l-3 -11l-11 -3l-9 3l-4 8v5h-21q0 -37 32 -37h20q32 0 32 35zM2107 583v22h-64q2 13 33 43.5t31 45.5q0 44 -35 44h-32q-30 0 -34 -38h21q0 16 13 16h16l10 -4l4 -10q0 -20 -32 -52.5t-32 -47.5v-19h101zM1298 1400v81q0 34 -33 34h-35q-33 0 -33 -33v-84
q0 -33 33 -33h35q33 0 33 35zM1170 1365v21h-47v130h-37v-151h84zM2098 521v21h-84v-154h36v66h32v22h-32v45h48zM1054 1402h-20q-2 -16 -14 -16h-15l-10 4l-5 10v80l5 10l10 4h15q12 0 14 -16h20q-2 38 -34 38h-32q-34 0 -34 -35v-81q0 -35 34 -35h32q32 0 34 37zM2106 317
v28h-102v-157h41v66h47v28h-47v35h61zM918 1365v151h-21v-78l-85 78h-11v-151h21v78l85 -78h11zM770 1365v21h-47v44h31v21h-31v43h47v22h-84v-151h84zM1959 -79v1279q0 59 -42.5 101.5t-101.5 42.5h-1280q-59 0 -101.5 -42.5t-42.5 -101.5v-1279q0 -59 42.5 -101.5
t101.5 -42.5h1280q59 0 101.5 42.5t42.5 101.5zM344 812v35q0 34 -43 36l43 29v21h-101v-22h59l-43 -29v-21l25 1q23 1 23 -15v-33l-4 -10l-10 -4h-15q-13 0 -14 16h-21q4 -38 33 -38h35q33 0 33 34zM1360 -395l-66 75l66 76h-35l-48 -56v56h-37v-151h37v53l45 -53h38z
M344 583v22h-64q2 13 33 43.5t31 45.5q0 44 -34 44h-32q-31 0 -35 -38h21q0 16 14 16h15l10 -4l4 -10q0 -20 -32 -52.5t-32 -47.5v-19h101zM1213 -362v118h-36v-116l-4 -10l-10 -4l-9 4l-4 10v35h-37v-37q0 -33 32 -33h36q32 0 32 33zM349 421v85q0 36 -36 36h-39
q-36 0 -36 -35v-87q0 -35 36 -35h39q36 0 36 36zM1090 -358h-20q-2 -16 -14 -16h-15l-10 4l-5 10v80l5 10l10 4h15q12 0 14 -16h20q-2 38 -34 38h-32q-34 0 -34 -35v-81q0 -35 34 -35h32q32 0 34 37zM349 224v84q0 36 -36 36h-39q-36 0 -36 -34v-88q0 -34 36 -34h39
q36 0 36 36zM1627 1400l-4 -10l-10 -4h-13v108h13l10 -4l4 -10v-80zM1261 1400l-4 -10l-10 -4l-9 4l-4 10v80l4 10l9 4l10 -4l4 -10v-80zM1802 576q0 -170 -76 -339q-84 -186 -219 -261v43q175 145 175 557q0 413 -175 557v44q135 -75 219 -261q76 -169 76 -340zM1611 268
q-46 -21 -134 -66q-174 152 -290 525q-2 -20 -9 -167q-4 -87 -4 -113q0 -63 6 -188.5t6 -188.5q0 -47 -65 -47q-44 0 -44 38q0 70 10 208.5t10 208.5v145l-4 2q-107 -154 -156 -217q-112 -144 -181 -184l-1 6q92 126 177 269q117 197 128 281q-20 8 -102 8q-21 0 -63.5 -2
t-63.5 -2q-16 0 -31 37v8q8 2 19 2q22 0 63.5 -7t60.5 -8q71 -3 130 -3q21 0 24 20q6 39 6 207q0 12 -2.5 34.5t-2.5 34.5q0 13 4 21h15q32 -12 94 -40l10 -15q-15 -15 -28 -32q-9 -12 -9 -152q0 -52 2 -75l14 -6l202 -5q9 0 38.5 38.5t35.5 38.5q22 0 97 -81l3 -13
q0 -18 -36 -17l-314 10q-6 1 -16 -7q56 -208 239 -393q25 -25 162 -113zM843 -24q-135 75 -219 261q-76 169 -76 339q0 171 76 340q84 186 219 261v-44q-175 -144 -175 -557q0 -412 175 -557v-43zM309 422l-5 -10l-10 -5l-11 5l-4 10v83l4 11l11 4l10 -4l5 -11v-83zM309 225
l-5 -11l-10 -4l-11 4l-4 11v83l4 10l11 4l10 -4l5 -10v-83z" />
  </g>

</svg>
