<?xml version="1.0" standalone="no"?>
<!DOCTYPE svg PUBLIC "-//W3C//DTD SVG 1.1//EN" "http://www.w3.org/Graphics/SVG/1.1/DTD/svg11.dtd" >
<svg viewBox="0 -419 2155 2048">
  <g transform="matrix(1 0 0 -1 0 1638)">
   <path fill="currentColor"
d="M2155 -239q0 -74 -53 -127t-127 -53h-1599q-74 0 -127 53t-53 127v1599q0 74 53 127t127 53h1599q74 0 127 -53t53 -127v-1599zM2107 812v35q0 34 -43 36l43 29v21h-101v-22h59l-43 -29v-21l25 1q23 1 23 -15v-33l-4 -10l-10 -4h-15q-13 0 -14 16h-21q4 -38 33 -38h35
q33 0 33 34zM1360 1365l-66 75l66 76h-35l-48 -56v56h-37v-151h37v53l45 -53h38zM2107 617v35q0 33 -43 35l43 30v20h-101v-21h59l-43 -30v-20l25 1q23 1 23 -15v-33l-4 -10l-10 -5h-15q-13 0 -14 17h-21q4 -38 33 -38h35q33 0 33 34zM1213 1398v118h-36v-116l-4 -10l-10 -4
l-9 4l-4 10v35h-37v-37q0 -33 32 -33h36q32 0 32 33zM2098 521v21h-84v-154h36v66h32v22h-32v45h48zM1090 1402h-20q-2 -16 -14 -16h-15l-10 4l-5 10v80l5 10l10 4h15q12 0 14 -16h20q-2 38 -34 38h-32q-34 0 -34 -35v-81q0 -35 34 -35h32q32 0 34 37zM2106 317v28h-102
v-157h41v66h47v28h-47v35h61zM1959 -79v1279q0 59 -42.5 101.5t-101.5 42.5h-1280q-59 0 -101.5 -42.5t-42.5 -101.5v-1279q0 -59 42.5 -101.5t101.5 -42.5h1280q59 0 101.5 42.5t42.5 101.5zM1600 -395v34h-33v-34h33zM1566 -266v22h-101v-22h32v-129h37v129h32zM344 812
v35q0 34 -43 36l43 29v21h-101v-22h59l-43 -29v-21l25 1q23 1 23 -15v-33l-4 -10l-10 -4h-15q-13 0 -14 16h-21q4 -38 33 -38h35q33 0 33 34zM1438 -396v116q0 35 -32 35h-36q-32 0 -32 -33v-118h36v65h28v-65h36zM344 617v35q0 33 -43 35l43 30v20h-101v-21h59l-43 -30v-20
l25 1q23 1 23 -15v-33l-4 -10l-10 -5h-15q-13 0 -14 17h-21q4 -38 33 -38h35q33 0 33 34zM1311 -297v18q0 35 -33 35h-68v-151h37v65h12q52 0 52 33zM1177 -395v151h-19l-69 -69l-68 69h-11v-151h21v86l55 -55l54 55v-86h37zM349 421v85q0 36 -36 36h-39q-36 0 -36 -35v-87
q0 -35 36 -35h39q36 0 36 36zM979 -360v81q0 34 -33 34h-35q-33 0 -33 -33v-84q0 -33 33 -33h35q33 0 33 35zM349 224v84q0 36 -36 36h-39q-36 0 -36 -34v-88q0 -34 36 -34h39q36 0 36 36zM850 -359h-20q-2 -16 -14 -16h-16l-10 5l-4 9v81l5 10l9 4h16q12 0 14 -16h20
q-2 37 -34 37h-32q-34 0 -34 -35v-81q0 -35 34 -35h32q32 0 34 37zM1715 1014q0 -62 -68 -62t-68 63q0 28 22 50.5t50 22.5q64 0 64 -74zM1712 755q0 -37 -31 -37q-12 0 -58 67q-56 82 -162 168q10 15 26 19q225 -109 225 -217zM1434 908q-9 -6 -120 -120q-90 -92 -117 -92
h-12l-8 17l92 102q39 43 79 112q-8 12 -35 29v8q21 20 39 20q22 0 52 -25.5t30 -46.5v-4zM1138 1078l-3 -17q-44 -4 -117.5 -42t-101.5 -71q-11 -49 -21 -98q-30 -99 -105 -153q-60 -43 -77 -43q-5 0 -24 11q166 124 166 292q0 19 -47 41q17 33 40 33q31 0 67 -34
q23 10 90 72q-7 2 -17 2q-63 0 -186 -27.5t-103 -27.5q-18 0 -41 26.5t-23 44.5q0 29 30 31q28 -28 59 -28q76 0 180 13q129 16 167 42q15 -3 41 -28t26 -39zM1486 148q0 -31 -24 -31q-13 0 -67 42l-70 54q0 -14 1 -42.5t1 -42.5q0 -152 -30 -152q-36 0 -36 70q0 47 4 139.5
t4 139.5q0 45 -42 66q28 29 40 29q16 0 42 -17t26 -32q0 -19 -7.5 -56t-7.5 -56q29 -10 102 -37q64 -25 64 -74zM1402 -310h-28v30l5 10l9 4l9 -4l5 -10v-30zM1168 178q-4 -10 -13 -29l-262 2q-59 0 -118 -5q-12 -1 -41 -9q-25 -8 -41 -8q-17 0 -36 25t-19 43t18 33
q6 -3 22 -18q12 -11 25 -11l428 14q36 1 37 -37zM1274 -295l-4 -10l-10 -4h-13v43h13l10 -4l4 -10v-15zM309 422l-5 -10l-10 -5l-11 5l-4 10v83l4 11l11 4l10 -4l5 -11v-83zM942 -360l-4 -10l-10 -4l-9 4l-4 10v80l4 10l9 4l10 -4l4 -10v-80zM309 225l-5 -11l-10 -4l-11 4
l-4 11v83l4 10l11 4l10 -4l5 -10v-83zM1675 1018q0 31 -28 31t-28 -33q0 -24 28 -24t28 26z" />
  </g>

</svg>
