<?xml version="1.0" standalone="no"?>
<!DOCTYPE svg PUBLIC "-//W3C//DTD SVG 1.1//EN" "http://www.w3.org/Graphics/SVG/1.1/DTD/svg11.dtd" >
<svg viewBox="0 -419 2154 2048">
  <g transform="matrix(1 0 0 -1 0 1638)">
   <path fill="currentColor"
d="M2154 -239q0 -74 -53 -127t-127 -53h-1598q-74 0 -127 53t-53 127v1599q0 74 53 127t127 53h1598q74 0 127 -53t53 -127v-1599zM2112 841v61q0 36 -38 36h-35q-38 0 -38 -36v-34q0 -36 38 -36h17q10 0 15 6v-4q0 -31 -52 -31v-22h31q24 0 43 18t19 42zM1360 1365l-66 75
l66 76h-35l-48 -56v56h-37v-151h37v53l45 -53h38zM2098 716v22h-84v-155h36v67h32v21h-32v45h48zM1213 1398v118h-36v-116l-4 -10l-10 -4l-9 4l-4 10v35h-37v-37q0 -33 32 -33h36q32 0 32 33zM2111 385v121q0 36 -36 36h-38q-36 0 -36 -35v-122h40v68h30v-68h40zM1090 1402
h-20q-2 -16 -14 -16h-15l-10 4l-5 10v80l5 10l10 4h15q12 0 14 -16h20q-2 38 -34 38h-32q-34 0 -34 -35v-81q0 -35 34 -35h32q32 0 34 37zM2106 317v28h-102v-157h41v66h47v28h-47v35h61zM1959 -79v1279q0 59 -42.5 101.5t-101.5 42.5h-1280q-59 0 -101.5 -42.5
t-42.5 -101.5v-1279q0 -59 42.5 -101.5t101.5 -42.5h1280q59 0 101.5 42.5t42.5 101.5zM1766 -360q0 21 -24 49t-24 31q2 5 4 11q4 2 11 4q11 0 13 -17h20q-2 38 -32 38h-20q-32 0 -32 -35q0 -21 23.5 -49t23.5 -32l-3 -10l-10 -4l-9 3l-4 9v4h-21q0 -37 32 -37h19
q33 0 33 35zM1645 -395v151h-36v-65h-28v65h-36v-151h36v65h28v-65h36zM1521 -297v18q0 35 -33 35h-67v-151h36v65h13q51 0 51 33zM353 831v21h-17v84h-38l-68 -85v-20h67v-51h39v51h17zM1394 -395v116q0 35 -32 35h-35q-33 0 -33 -34v-117h37v65h27v-65h36zM336 583v22h-48
v45h32v21h-32v45h48v22h-84v-155h84zM1266 -395v60l-5 13l-11 5q16 8 16 29q0 44 -32 44h-68v-151h37v65h13l10 -4l4 -11v-50h36zM1137 -282q-2 38 -35 38h-32q-34 0 -34 -35v-81q0 -35 34 -35h32q34 0 34 35v51h-52v-21h16v-30q0 -13 -13 -14l-10 4l-4 10v80l4 10l10 4h15
q12 0 14 -16h21zM349 421v85q0 36 -36 36h-39q-36 0 -36 -35v-87q0 -35 36 -35h39q36 0 36 36zM1009 -360v81q0 34 -32 34h-35q-33 0 -33 -33v-84q0 -33 33 -33h35q32 0 32 35zM349 224v84q0 36 -36 36h-39q-36 0 -36 -34v-88q0 -34 36 -34h39q36 0 36 36zM876 -395v21h-48
v44h32v21h-32v43h48v22h-84v-151h84zM760 -360v81q0 35 -33 35h-67v-151h67q33 0 33 35zM618 -395v151h-34v-151h34zM2071 869l-4 -11l-11 -4l-10 4l-5 11v32l5 11l10 4l11 -4l4 -11v-32zM2071 475h-30v30l5 11l10 4l10 -4l5 -11v-30zM1236 1072q0 -39 -14 -57q-7 -3 -13 -3
q-13 0 -84 79q-78 87 -99 99q0 8 6 19h10q194 -75 194 -137zM1819 958q-33 -15 -66 -15q-11 0 -17 -4q-51 -51 -131 -125q-14 6 -14 14q5 9 37 63q37 61 44 74h-949l-4 -5q-6 -140 -117 -181q-36 25 -36 33t30 42q87 100 87 220q3 7 28 5q3 -25 7 -75h934q7 3 34 27
q25 21 37 21q49 0 96 -94zM1816 395q0 -11 -5 -28h-587l15 -237q1 -17 1 -32q0 -181 -146 -186q-31 46 -86 69q-6 3 -107 31v24l230 -15l20 17v329q-214 17 -436 17q-27 0 -80.5 -12.5t-80.5 -12.5l-23 59v11q58 -13 69 -13h551v134q0 13 -5 39.5t-5 39.5q25 -8 75 -25
l210 146h-511l-122 -13q-21 -2 -37 62h23q19 0 56.5 -6t56.5 -6h491q-5 0 52 5q32 42 66 42q13 0 47 -39.5t41 -56.5v-8q-29 -3 -84 -14q-20 -12 -77 -43q-35 -19 -169 -78l25 -32q0 -5 -62 -38l-1 -10v-99h377q26 0 37 10q2 2 21 32q11 18 41 51q30 -9 72 -47
q47 -42 47 -67zM1484 -295l-4 -10l-10 -4h-13v43h13l10 -4l4 -10v-15zM297 852h-42l42 54v-54zM1358 -309h-27v29l4 10l9 4l10 -4l4 -10v-29zM1230 -295l-4 -10l-10 -4h-13v43h13l10 -4l4 -10v-15zM309 422l-5 -10l-10 -5l-11 5l-4 10v83l4 11l11 4l10 -4l5 -11v-83z
M973 -360l-4 -10l-10 -4l-9 4l-4 10v80l4 10l9 4l10 -4l4 -10v-80zM309 225l-5 -11l-10 -4l-11 4l-4 11v83l4 10l11 4l10 -4l5 -10v-83zM723 -360l-4 -10l-10 -4h-13v108h13l10 -4l4 -10v-80z" />
  </g>

</svg>
