<?xml version="1.0" standalone="no"?>
<!DOCTYPE svg PUBLIC "-//W3C//DTD SVG 1.1//EN" "http://www.w3.org/Graphics/SVG/1.1/DTD/svg11.dtd" >
<svg viewBox="0 -419 2155 2048">
  <g transform="matrix(1 0 0 -1 0 1638)">
   <path fill="currentColor"
d="M2155 -239q0 -75 -52.5 -127.5t-127.5 -52.5h-1599q-75 0 -127.5 52.5t-52.5 127.5v1599q0 75 52.5 127.5t127.5 52.5h1599q75 0 127.5 -52.5t52.5 -127.5v-1599zM1829 1400q0 28 -24 49l-9 8q-21 19 -11 34q6 4 11 4q11 0 13 -17h20q-2 38 -32 38h-19q-33 0 -33 -35
q0 -25 24 -49l9 -9q14 -14 14 -25q0 -4 -2 -8q-6 -4 -11 -4q-2 0 -4 1l-5 2l-4 9v4h-21q0 -37 32 -37h20q32 0 32 35zM1720 1365v21h-47v44h31v21h-31v43h47v22h-84v-151h84zM1609 1365v21h-47v130h-37v-151h84zM2111 781v120q0 37 -36 37h-38q-36 0 -36 -35v-122h40v67h30
v-67h40zM1497 1400q0 34 -21 41q21 8 21 32q0 43 -34 43h-66v-151h66q34 0 34 35zM1366 1365v116q0 35 -32 35h-36q-32 0 -32 -34v-117h36v65h28v-65h36zM2120 634v22h-17v84h-39l-71 -86v-20h70v-50h40v50h17zM1237 1365v21h-47v130h-36v-151h83zM1123 1365v21h-47v130h-36
v-151h83zM2111 421q0 36 -24 43q24 8 24 33q0 45 -38 45h-35q-38 0 -38 -36q0 -35 24 -42q-24 -9 -24 -34q0 -45 38 -45h35q38 0 38 36zM1006 1465v51h-36v-51l-4 -10l-10 -4l-9 4l-4 10v51h-37v-51q0 -30 32 -35v-65h37v65q31 5 31 35zM2106 317v28h-102v-157h41v66h47v28
h-47v35h61zM875 1478q-3 38 -33 38h-19q-32 0 -32 -35q0 -22 24 -49l8 -9q19 -21 12 -33q-6 -4 -10 -4q-3 0 -5 1l-5 2l-4 9v4h-20q0 -37 32 -37h19q32 0 32 35q0 25 -24 49l-8 8q-14 14 -14 25q0 13 13 13q11 0 13 -17h21zM683 1365v151h-33v-151h33zM621 1465v51h-36v-51
l-5 -10l-9 -4l-9 4l-5 10v51h-36v-51q0 -30 32 -35v-65h36v65q32 5 32 35zM1959 -79v1279q0 59 -42.5 101.5t-101.5 42.5h-1280q-59 0 -101.5 -42.5t-42.5 -101.5v-1279q0 -59 42.5 -101.5t101.5 -42.5h1280q59 0 101.5 42.5t42.5 101.5zM1829 -360q0 28 -24 49l-9 8
q-21 19 -11 34q6 4 11 4q11 0 13 -17h20q-2 38 -32 38h-19q-33 0 -33 -35q0 -25 24 -49l9 -9q14 -14 14 -25q0 -4 -2 -8q-6 -4 -11 -4q-2 0 -4 1l-5 2l-4 9v4h-21q0 -37 32 -37h20q32 0 32 35zM1720 -395v21h-47v44h31v21h-31v43h47v22h-84v-151h84zM1609 -395v21h-47v130
h-37v-151h84zM349 781v120q0 37 -36 37h-38q-36 0 -36 -35v-122h40v67h30v-67h40zM1497 -360q0 34 -21 41q21 8 21 32q0 43 -34 43h-66v-151h66q34 0 34 35zM1366 -395v116q0 35 -32 35h-36q-32 0 -32 -34v-117h36v65h28v-65h36zM349 620v84q0 36 -36 36h-39q-36 0 -36 -34
v-88q0 -34 36 -34h39q36 0 36 36zM1237 -395v21h-47v130h-36v-151h83zM1123 -395v21h-47v130h-36v-151h83zM349 421v85q0 36 -36 36h-39q-36 0 -36 -35v-87q0 -35 36 -35h39q36 0 36 36zM1006 -295v51h-36v-51l-4 -10l-10 -4l-9 4l-4 10v51h-37v-51q0 -30 32 -35v-65h37v65
q31 5 31 35zM349 224v84q0 36 -36 36h-39q-36 0 -36 -34v-88q0 -34 36 -34h39q36 0 36 36zM875 -282q-3 38 -33 38h-19q-32 0 -32 -35q0 -22 24 -49l8 -9q19 -21 12 -33q-6 -4 -10 -4q-3 0 -5 1l-5 2l-4 9v4h-20q0 -37 32 -37h19q32 0 32 35q0 25 -24 49l-8 8q-14 14 -14 25
q0 13 13 13q11 0 13 -17h21zM683 -395v151h-33v-151h33zM621 -295v51h-36v-51l-5 -10l-9 -4l-9 4l-5 10v51h-36v-51q0 -30 32 -35v-65h36v65q32 5 32 35zM2071 870h-30v31l5 10l10 4l10 -4l5 -10v-31zM1461 1465l-5 -10l-10 -4h-13v43h13l10 -4l5 -10v-15zM1461 1400l-5 -10
l-10 -4h-13v44h14q14 0 14 -14v-16zM1330 1451h-28v29l5 10l9 4l9 -4l5 -10v-29zM2063 656h-45l45 54v-54zM2071 489l-5 -10l-11 -4l-10 4l-5 10v16l5 11l10 4l11 -4l5 -11v-16zM2071 422l-5 -10l-11 -5l-10 5l-5 10v16q0 15 15 15q16 0 16 -15v-16zM1515 478q0 -39 -39 -39
h-229v-226q0 -86 -44 -150q-49 -73 -131 -73q-35 0 -80 20q-68 30 -106 130q-28 73 -28 132q0 38 41 38q19 0 33 -17q20 -66 39 -119q34 -99 85 -99q57 0 87 56q24 46 24 108q-1 -15 -1 198h-234q-46 0 -46 43q0 39 46 39h234v140h-234q-46 0 -46 46q0 41 46 41h234v91
q0 14 -7 37q-33 -9 -61 -9q-84 0 -157 44q-86 52 -86 130q0 145 159 145q79 0 137 -63q50 -54 71 -138q54 33 97 91q8 11 72 112q15 24 36 24q45 0 45 -50q0 -13 -9 -36q-73 -184 -220 -233l4 -145h229q39 0 39 -43t-39 -43h-229v-138h229q39 0 39 -44zM309 870h-30v31l5 10
l10 4l10 -4l5 -10v-31zM1461 -295l-5 -10l-10 -4h-13v43h13l10 -4l5 -10v-15zM1461 -360l-5 -10l-10 -4h-13v44h14q14 0 14 -14v-16zM1330 -309h-28v29l5 10l9 4l9 -4l5 -10v-29zM309 620l-5 -10l-10 -4l-11 4l-4 10v84l4 10l11 4l10 -4l5 -10v-84zM309 422l-5 -10l-10 -5
l-11 5l-4 10v83l4 11l11 4l10 -4l5 -11v-83zM309 225l-5 -11l-10 -4l-11 4l-4 11v83l4 10l11 4l10 -4l5 -10v-83zM1145 962q-55 140 -125 140q-82 0 -82 -62q0 -43 59 -67q44 -18 96 -18q21 0 52 7z" />
  </g>

</svg>
