<?xml version="1.0" standalone="no"?>
<!DOCTYPE svg PUBLIC "-//W3C//DTD SVG 1.1//EN" "http://www.w3.org/Graphics/SVG/1.1/DTD/svg11.dtd" >
<svg viewBox="0 -419 2155 2048">
  <g transform="matrix(1 0 0 -1 0 1638)">
   <path fill="currentColor"
d="M2155 -239q0 -75 -52.5 -127.5t-127.5 -52.5h-1599q-75 0 -127.5 52.5t-52.5 127.5v1599q0 75 52.5 127.5t127.5 52.5h1599q75 0 127.5 -52.5t52.5 -127.5v-1599zM1787 1400q0 25 -24 49l-8 8q-14 14 -14 26q0 5 2 8q6 4 11 4q11 0 13 -17h20q-2 38 -32 38h-19
q-32 0 -32 -35q0 -26 23 -49l9 -9q14 -14 14 -25q0 -4 -2 -8q-6 -4 -11 -4q-2 0 -4 1l-5 2l-4 9v4h-20q0 -37 32 -37h19q32 0 32 35zM1670 1365v21h-47v130h-36v-151h83zM1553 1365v116q0 35 -33 35h-35q-33 0 -33 -34v-117h37v65h27v-65h37zM2111 781v120q0 37 -36 37h-38
q-36 0 -36 -35v-122h40v67h30v-67h40zM1425 1402h-20q-2 -16 -14 -16h-16l-10 4l-4 10v80l5 10l9 4h16q12 0 14 -16h20q-2 38 -34 38h-32q-34 0 -34 -35v-81q0 -35 34 -35h32q32 0 34 37zM2120 634v22h-17v84h-39l-71 -86v-20h70v-50h40v50h17zM1289 1365v151h-33v-151h33z
M1217 1400v81q0 35 -32 35h-68v-151h68q32 0 32 35zM2106 426h-20q-2 -17 -14 -17h-16l-9 5l-5 10v82l5 10l9 5h16q12 0 14 -17h20q-2 38 -34 38h-32q-34 0 -34 -36v-83q0 -35 34 -35h32q32 0 34 38zM1083 1365v116q0 35 -32 35h-36q-32 0 -32 -34v-117h36v65h28v-65h36z
M947 1365v60l-6 13l-11 5q17 8 17 29q0 44 -33 44h-68v-151h37v65h13l10 -4l4 -11v-50h37zM2106 317v28h-102v-157h41v66h47v28h-47v35h61zM725 1365v151h-33v-151h33zM663 1465v51h-37v-51l-4 -10l-9 -4l-10 4l-4 10v51h-36v-51q0 -30 32 -35v-65h36v65q32 5 32 35z
M1959 -79v1279q0 59 -42.5 101.5t-101.5 42.5h-1280q-59 0 -101.5 -42.5t-42.5 -101.5v-1279q0 -59 42.5 -101.5t101.5 -42.5h1280q59 0 101.5 42.5t42.5 101.5zM1787 -360q0 25 -24 49l-8 8q-14 14 -14 26q0 5 2 8q6 4 11 4q11 0 13 -17h20q-2 38 -32 38h-19q-32 0 -32 -35
q0 -26 23 -49l9 -9q14 -14 14 -25q0 -4 -2 -8q-6 -4 -11 -4q-2 0 -4 1l-5 2l-4 9v4h-20q0 -37 32 -37h19q32 0 32 35zM1670 -395v21h-47v130h-36v-151h83zM1553 -395v116q0 35 -33 35h-35q-33 0 -33 -34v-117h37v65h27v-65h37zM349 781v120q0 37 -36 37h-38q-36 0 -36 -35
v-122h40v67h30v-67h40zM1425 -358h-20q-2 -16 -14 -16h-16l-10 4l-4 10v80l5 10l9 4h16q12 0 14 -16h20q-2 38 -34 38h-32q-34 0 -34 -35v-81q0 -35 34 -35h32q32 0 34 37zM353 634v22h-17v84h-38l-68 -86v-20h67v-50h39v50h17zM1289 -395v151h-33v-151h33zM1217 -360v81
q0 35 -32 35h-68v-151h68q32 0 32 35zM349 445v61q0 36 -38 36h-35q-38 0 -38 -36v-34q0 -36 38 -36h18q9 0 14 7v-4q0 -32 -52 -31v-22h31q24 0 43 17.5t19 41.5zM1083 -395v116q0 35 -32 35h-36q-32 0 -32 -34v-117h36v65h28v-65h36zM947 -395v60l-6 13l-11 5q17 8 17 29
q0 44 -33 44h-68v-151h37v65h13l10 -4l4 -11v-50h37zM349 224v84q0 36 -36 36h-39q-36 0 -36 -34v-88q0 -34 36 -34h39q36 0 36 36zM725 -395v151h-33v-151h33zM663 -295v51h-37v-51l-4 -10l-9 -4l-10 4l-4 10v51h-36v-51q0 -30 32 -35v-65h36v65q32 5 32 35zM1516 1451h-27
v29l4 10l10 4l9 -4l4 -10v-29zM2071 870h-30v31l5 10l10 4l10 -4l5 -10v-31zM2063 656h-45l45 54v-54zM1181 1400l-5 -10l-10 -4h-13v108h13l10 -4l5 -10v-80zM1047 1451h-28v29l5 10l9 4l9 -4l5 -10v-29zM910 1465l-4 -10l-10 -4h-13v43h13l10 -4l4 -10v-15zM1472 1160
q0 -13 -9 -36q-71 -183 -220 -233l4 -145v-545q0 -80 -47 -142q-51 -69 -128 -69q-97 0 -159 95q-55 84 -55 187q0 38 41 38q21 0 66 -117.5t91 -117.5q57 0 87 56q24 45 24 108q5 595 -8 635q-33 -9 -61 -9q-83 0 -157 44q-86 51 -86 130q0 145 159 145q79 0 137 -63
q51 -55 71 -138q59 36 97 92q20 31 72 111q16 24 36 24q45 0 45 -50zM1516 -309h-27v29l4 10l10 4l9 -4l4 -10v-29zM309 870h-30v31l5 10l10 4l10 -4l5 -10v-31zM297 656h-42l42 53v-53zM1181 -360l-5 -10l-10 -4h-13v108h13l10 -4l5 -10v-80zM309 473l-5 -10l-10 -5l-11 5
l-4 10v33l4 10l11 4l10 -4l5 -10v-33zM1047 -309h-28v29l5 10l9 4l9 -4l5 -10v-29zM910 -295l-4 -10l-10 -4h-13v43h13l10 -4l4 -10v-15zM309 225l-5 -11l-10 -4l-11 4l-4 11v83l4 10l11 4l10 -4l5 -10v-83zM1145 962q-54 140 -125 140q-82 0 -82 -62q0 -43 59 -67
q44 -18 96 -18q22 0 52 7z" />
  </g>

</svg>
