<?xml version="1.0" standalone="no"?>
<!DOCTYPE svg PUBLIC "-//W3C//DTD SVG 1.1//EN" "http://www.w3.org/Graphics/SVG/1.1/DTD/svg11.dtd" >
<svg viewBox="0 -419 2155 2048">
  <g transform="matrix(1 0 0 -1 0 1638)">
   <path fill="currentColor"
d="M2155 -239q0 -75 -52.5 -127.5t-127.5 -52.5h-1599q-75 0 -127.5 52.5t-52.5 127.5v1599q0 75 52.5 127.5t127.5 52.5h1599q75 0 127.5 -52.5t52.5 -127.5v-1599zM1575 1365v21h-47v44h31v21h-31v43h47v22h-83v-151h83zM2112 817v84q0 37 -36 37h-75v-157h75q36 0 36 36z
M1459 1494v22h-100v-22h32v-129h37v129h31zM1331 1365v116q0 35 -32 35h-36q-32 0 -32 -34v-117h36v65h28v-65h36zM2112 620q0 36 -24 43q24 8 24 33q0 44 -38 44h-73v-156h73q38 0 38 36zM1200 1423v93h-36v-116l-4 -10l-10 -4h-14v130h-36v-151h43q57 0 57 58zM2098 521
v21h-84v-154h36v66h32v22h-32v45h48zM1069 1365v151h-33v-151h33zM1000 1365v60l-5 13l-11 5q16 8 16 29q0 44 -32 44h-68v-151h36v65h14l10 -4l4 -11v-50h36zM2106 317v28h-102v-157h41v66h47v28h-47v35h61zM875 1463v18q0 35 -32 35h-68v-151h36v65q64 -1 64 33zM1959 -79
v1279q0 59 -42.5 101.5t-101.5 42.5h-1280q-59 0 -101.5 -42.5t-42.5 -101.5v-1279q0 -59 42.5 -101.5t101.5 -42.5h1280q59 0 101.5 42.5t42.5 101.5zM1791 -282q-3 38 -33 38h-19q-32 0 -32 -35q0 -22 24 -49l8 -9q19 -21 12 -33q-6 -4 -10 -4q-3 0 -5 1l-5 2l-4 9v4h-20
q0 -37 32 -37h19q32 0 32 35q0 25 -24 49l-8 8q-14 14 -14 25q0 13 13 13q11 0 13 -17h21zM1677 -395v21h-47v44h32v21h-32v43h47v22h-83v-151h83zM1562 -266v22h-100v-22h32v-129h36v129h32zM349 817v84q0 37 -36 37h-75v-157h75q36 0 36 36zM1434 -395v116q0 35 -33 35
h-35q-33 0 -33 -34v-117h37v65h27v-65h37zM349 620q0 36 -23 43q23 8 23 33q0 44 -38 44h-73v-156h73q38 0 38 36zM1304 -360v51h-53v-21h16v-30q0 -13 -13 -14l-10 4l-4 10v80l4 10l10 4h16q12 0 13 -16h21q-2 38 -34 38h-32q-35 0 -35 -35v-81q0 -35 35 -35h32q34 0 34 35
zM1172 -360v81q0 34 -32 34h-36q-32 0 -32 -33v-84q0 -33 32 -33h36q32 0 32 35zM350 421q0 36 -24 43q24 8 24 33q0 45 -38 45h-35q-38 0 -38 -36q0 -35 24 -42q-24 -9 -24 -34q0 -45 38 -45h35q38 0 38 36zM1038 -395v60l-5 13l-11 5q16 8 16 29q0 44 -32 44h-68v-151h36
v65h13l10 -4l5 -11v-50h36zM349 224v84q0 36 -36 36h-39q-36 0 -36 -34v-88q0 -34 36 -34h39q36 0 36 36zM909 -395v60l-5 13l-11 5q16 8 16 29q0 44 -32 44h-68v-151h36v65h13l10 -4l5 -11v-50h36zM777 -360v116h-36v-116l-5 -10l-9 -4l-10 4l-4 10v116h-36v-118
q0 -33 32 -33h36q32 0 32 35zM643 -360q0 25 -24 49l-8 8q-14 14 -14 26q0 5 2 8q6 4 11 4q11 0 13 -17h20q-2 38 -32 38h-19q-33 0 -33 -35q0 -25 24 -49l9 -9q14 -14 14 -25q0 -4 -2 -8q-6 -4 -11 -4q-2 0 -4 1l-5 2l-4 9v4h-21q0 -37 33 -37h19q32 0 32 35zM2071 818
l-4 -11l-11 -4h-15v113h15l11 -5l4 -10v-83zM1295 1451h-28v29l5 10l9 4l10 -4l4 -10v-29zM2071 688l-4 -11l-11 -4h-15v45h15l11 -4l4 -10v-16zM2071 620l-4 -10l-11 -4h-15v45h15q15 0 15 -14v-17zM964 1465l-4 -10l-10 -4h-14v43h14l10 -4l4 -10v-15zM839 1465l-5 -10
l-9 -4h-14v43h14l9 -4l5 -10v-15zM1919 -79q0 -43 -30.5 -73.5t-73.5 -30.5h-640v346q-17 -50 -32 -120q-14 53 -35 124t-52 113l-47 20q-89 -31 -89 -100q0 -58 47 -95q18 -14 99 -52v-12q-86 -10 -123 -10q-64 0 -111 22v7l78 10q-82 41 -82 144q0 129 115 185
q-37 211 -108 388q-108 269 -240 269l-10 20q65 21 169 21q63 0 162 -7l2 -10q-18 -22 -47 -24q92 -185 140 -498q74 112 156 415h6l2 -8v339h640q43 0 73.5 -30.5t30.5 -73.5v-1279zM309 818l-5 -11l-11 -4h-14v113h14l11 -5l5 -10v-83zM1397 -309h-27v29l4 10l10 4l9 -4
l4 -10v-29zM309 688l-5 -11l-11 -4h-14v45h14l11 -4l5 -10v-16zM309 620l-5 -10l-11 -4h-14v45h15q15 0 15 -14v-17zM1136 -360l-5 -10l-9 -4l-10 4l-4 10v80l4 10l10 4l9 -4l5 -10v-80zM310 489l-5 -10l-11 -4l-10 4l-5 10v16l5 11l10 4l11 -4l5 -11v-16zM310 422l-5 -10
l-11 -5l-10 5l-5 10v16q0 15 15 15q16 0 16 -15v-16zM1002 -295l-5 -10l-10 -4h-13v43h13l10 -4l5 -10v-15zM873 -295l-5 -10l-10 -4h-13v43h13l10 -4l5 -10v-15zM309 225l-5 -11l-10 -4l-11 4l-4 11v83l4 10l11 4l10 -4l5 -10v-83zM1859 947v113l-183 184h-113zM1859 723
v113l-408 408h-113zM1859 497v114l-615 615v-113zM1859 268v113l-615 616v-113zM1859 42v114l-615 615v-113zM1851 -61l-607 608v-113l550 -551q40 17 57 56zM1175 365l-3 345l-115 -305q17 -6 66 -30l33 -52q5 22 19 42zM1689 -124l-445 446v-114l332 -332h113zM1463 -124
l-219 219v-113l106 -106h113z" />
  </g>

</svg>
