<?xml version="1.0" standalone="no"?>
<!DOCTYPE svg PUBLIC "-//W3C//DTD SVG 1.1//EN" "http://www.w3.org/Graphics/SVG/1.1/DTD/svg11.dtd" >
<svg viewBox="0 -419 2155 2048">
  <g transform="matrix(1 0 0 -1 0 1638)">
   <path fill="currentColor"
d="M2155 -239q0 -75 -52.5 -127.5t-127.5 -52.5h-1599q-75 0 -127.5 52.5t-52.5 127.5v1599q0 75 52.5 127.5t127.5 52.5h1599q75 0 127.5 -52.5t52.5 -127.5v-1599zM2098 978v22h-47v44h31v22h-31v45h47v21h-84v-154h84zM1685 1365v151h-21v-78l-85 78h-11v-151h21v78
l86 -78h10zM1546 1400v81q0 34 -32 34h-36q-32 0 -32 -33v-84q0 -33 32 -33h36q32 0 32 35zM2111 818v84q0 36 -36 36h-38q-36 0 -36 -34v-88q0 -34 36 -34h38q36 0 36 36zM1420 1365v151h-33v-151h33zM1357 1495v21h-100v-21h32v-130h36v130h32zM2081 583v155h-18l-32 -18
v-20h16v-117h34zM1230 1365v116q0 35 -33 35h-35q-33 0 -33 -33v-118h37v65h27v-65h37zM1098 1365v151h-33v-151h33zM1032 1365v61l-6 12l-11 5q17 9 17 29q0 44 -33 44h-68v-151h37v65h13l10 -4l4 -10v-51h37zM2098 326v21h-84v-154h36v66h32v22h-32v45h48zM898 1365v116
q0 35 -32 35h-35q-33 0 -33 -34v-117h37v65h27v-65h36zM765 1423v93h-37v-116l-4 -10l-10 -4h-13v130h-36v-151h43q57 0 57 58zM1959 -79v1279q0 60 -42 102t-102 42h-1280q-60 0 -102 -42t-42 -102v-1279q0 -60 42 -102t102 -42h1280q60 0 102 42t42 102zM1769 -395v116
q0 35 -32 35h-36q-32 0 -32 -34v-117h36v65h28v-65h36zM336 978v22h-48v44h32v22h-32v45h48v21h-84v-154h84zM1601 -360q0 28 -24 49l-9 8q-21 19 -11 34q6 4 11 4q11 0 13 -17h20q-2 38 -32 38h-19q-33 0 -33 -35q0 -25 24 -49l9 -9q13 -13 13 -24q0 -5 -2 -9q-5 -4 -10 -4
q-2 0 -5 1l-4 2l-4 9v4h-21q0 -37 32 -37h19q33 0 33 35zM349 818v84q0 36 -36 36h-39q-36 0 -36 -34v-88q0 -34 36 -34h39q36 0 36 36zM1495 -395v60l-5 13l-11 5q16 8 16 29q0 44 -32 44h-68v-151h36v65h14l10 -4l4 -11v-50h36zM1369 -358v81q0 35 -32 35h-36
q-32 0 -32 -33v-85q0 -33 32 -33h36q32 0 32 35zM319 583v155h-18l-32 -18v-20h15v-117h35zM1245 -266v22h-100v-22h32v-129h37v129h31zM1122 -358h-20q-2 -16 -14 -16h-16l-10 4l-4 10v80l5 10l9 4h16q12 0 14 -16h20q-2 38 -34 38h-32q-34 0 -34 -35v-81q0 -35 34 -35h32
q32 0 34 37zM995 -395v21h-48v44h32v21h-32v43h48v22h-84v-151h84zM349 224v84q0 36 -36 36h-39q-36 0 -36 -34v-88q0 -34 36 -34h39q36 0 36 36zM885 -395v21h-48v130h-36v-151h84zM772 -395v21h-48v44h32v21h-32v43h48v22h-84v-151h84zM665 -360q0 28 -24 49l-9 8
q-21 19 -11 34q6 4 11 4q10 0 12 -17h21q-3 38 -33 38h-19q-32 0 -32 -35q0 -22 24 -49l8 -9q19 -21 12 -33q-5 -4 -10 -4q-2 0 -5 1l-4 2l-5 9l1 4h-21q0 -37 32 -37h19q33 0 33 35zM1510 1400l-5 -10l-9 -4l-10 4l-4 10v80l5 10l9 4l9 -4l5 -10v-80zM2071 818l-4 -10
l-11 -4l-10 4l-5 10v83l5 11l10 4l11 -4l4 -11v-83zM1717 972h-74v52h-45v74h119v-126zM1193 1451h-27v30l4 10l9 4l10 -4l4 -10v-30zM1477 1024h-119v74h119v-74zM1717 732h-74v119h74v-119zM995 1465l-4 -10l-10 -4h-13v44h13l10 -4l4 -10v-16zM862 1451h-27v29l4 10l9 4
l10 -4l4 -10v-29zM1237 1024h-119v74h119v-74zM1717 492h-71l-3 119h74v-119zM1488 644q0 -113 -147 -113t-145 129h46q5 -87 102 -87q96 0 96 63q0 45 -60 61q-36 10 -112 27q-60 23 -60 81q0 113 134 113q136 0 136 -117h-47q-9 74 -93 74q-83 0 -83 -61q0 -38 71 -58
l102 -24q60 -25 60 -88zM997 1024h-119v74h119v-74zM1717 252h-71v119h71v-119zM1189 910l-133 -367h-56l-138 367h51l113 -313l109 313h54zM757 1024h-50v-52h-74v126h124v-74zM1717 4h-119v74h48v53q20 -2 38 -2t33 2v-127zM1339 175h-55l-50 145h-120l-52 -145h-51
l138 368h57zM707 732h-74v119h74v-119zM1477 0h-119v74h119v-74zM1733 -309h-28v29l4 10l10 4l9 -4l5 -10v-29zM710 492h-77v119h74zM1237 4h-119v74h119v-74zM1459 -295l-4 -10l-10 -4h-14v43h14l10 -4l4 -10v-15zM309 818l-5 -10l-10 -4l-11 4l-4 10v83l4 11l11 4l10 -4
l5 -11v-83zM1333 -358l-4 -9l-10 -5l-9 5l-5 9v81l5 10l9 4l9 -4l5 -10v-81zM710 252h-77v119h77v-119zM997 4h-119v74h119v-74zM757 4h-124v127q22 -2 42 -2q19 0 35 2v-53h47v-74zM309 225l-5 -11l-10 -4l-11 4l-4 11v83l4 10l11 4l10 -4l5 -10v-83zM1224 350l-49 138
l-50 -138h99zM2098 388v22h-47v44h31v22h-31v45h47v21h-84v-154h84zM349 424v84q0 36 -36 36h-39q-36 0 -36 -34v-88q0 -34 36 -34h39q36 0 36 36zM309 425l-5 -11l-10 -4l-11 4l-4 11v83l4 10l11 4l10 -4l5 -10v-83z" />
  </g>

</svg>
