<?xml version="1.0" encoding="UTF-8" standalone="no"?>
<!-- Generator: Adobe Illustrator 15.0.0, SVG Export Plug-In . SVG Version: 6.00 Build 0)  -->

<svg
   xmlns:dc="http://purl.org/dc/elements/1.1/"
   xmlns:cc="http://creativecommons.org/ns#"
   xmlns:rdf="http://www.w3.org/1999/02/22-rdf-syntax-ns#"
   xmlns:svg="http://www.w3.org/2000/svg"
   xmlns="http://www.w3.org/2000/svg"
   xmlns:sodipodi="http://sodipodi.sourceforge.net/DTD/sodipodi-0.dtd"
   xmlns:inkscape="http://www.inkscape.org/namespaces/inkscape"
   version="1.1"
   id="Layer_1"
   x="0px"
   y="0px"
   width="512px"
   height="512px"
   viewBox="0 0 512 512"
   enable-background="new 0 0 512 512"
   xml:space="preserve"
   inkscape:version="0.47 r22583"
   sodipodi:docname="f023.lock.glyph.svg"><metadata
   id="metadata3245"><rdf:RDF><cc:Work
       rdf:about=""><dc:format>image/svg+xml</dc:format><dc:type
         rdf:resource="http://purl.org/dc/dcmitype/StillImage" /></cc:Work></rdf:RDF></metadata><defs
   id="defs3243"><inkscape:perspective
     sodipodi:type="inkscape:persp3d"
     inkscape:vp_x="0 : 256 : 1"
     inkscape:vp_y="0 : 1000 : 0"
     inkscape:vp_z="512 : 256 : 1"
     inkscape:persp3d-origin="256 : 170.66667 : 1"
     id="perspective3247" /></defs><sodipodi:namedview
   pagecolor="#ffffff"
   bordercolor="#666666"
   borderopacity="1"
   objecttolerance="10"
   gridtolerance="10"
   guidetolerance="10"
   inkscape:pageopacity="0"
   inkscape:pageshadow="2"
   inkscape:window-width="1678"
   inkscape:window-height="1048"
   id="namedview3241"
   showgrid="false"
   inkscape:snap-grids="false"
   inkscape:zoom="0.4609375"
   inkscape:cx="256"
   inkscape:cy="256"
   inkscape:window-x="0"
   inkscape:window-y="0"
   inkscape:window-maximized="0"
   inkscape:current-layer="Layer_1" />

<path
   d="M304,224h-16v-64c0-70.692-57.308-128-128-128S32,89.308,32,160v64H16c-8.8,0-16,7.2-16,16v224c0,8.8,7.2,16,16,16h288  c8.8,0,16-7.2,16-16V240C320,231.2,312.8,224,304,224z M186.465,344.041L192,416h-64l5.535-71.959  C120.561,335.449,112,320.728,112,304c0-26.51,21.49-48,48-48s48,21.49,48,48C208,320.728,199.439,335.449,186.465,344.041z M64,224  v-64c0-53.02,42.98-96,96-96s96,42.98,96,96v64H64z"
   id="path3239" />
</svg>