<?xml version="1.0" standalone="no"?>
<!DOCTYPE svg PUBLIC "-//W3C//DTD SVG 1.1//EN" "http://www.w3.org/Graphics/SVG/1.1/DTD/svg11.dtd" >
<svg viewBox="0 -419 2155 2048">
  <g transform="matrix(1 0 0 -1 0 1638)">
   <path fill="currentColor"
d="M2155 -239q0 -75 -52.5 -127.5t-127.5 -52.5h-1599q-75 0 -127.5 52.5t-52.5 127.5v1599q0 75 52.5 127.5t127.5 52.5h1599q75 0 127.5 -52.5t52.5 -127.5v-1599zM1805 1365v34h-33v-34h33zM1748 1479q-3 37 -33 37h-19q-32 0 -32 -35q0 -25 24 -49l8 -8q14 -14 14 -26
q0 -4 -2 -8q-6 -3 -10 -3q-2 0 -5 1l-5 1l-4 9v5h-20q0 -38 32 -38h19q32 0 32 35q0 22 -24 49l-8 9q-19 21 -11 34q6 3 10 3q11 0 13 -16h21zM1638 1365v22h-47v43h32v21h-32v44h47v21h-83v-151h83zM1526 1365v61l-5 13l-11 4q16 9 16 29q0 44 -32 44h-68v-151h36v65h13
l10 -4l5 -10v-51h36zM2098 911v22h-84v-155h36v67h32v21h-32v45h48zM1403 1463v18q0 35 -33 35h-68v-151h37v65q64 -1 64 33zM2112 620q0 36 -24 43q24 8 24 33q0 44 -38 44h-73v-156h73q38 0 38 36zM1215 1365v34h-34v-34h34zM1148 1365v116q0 35 -33 35h-35q-32 0 -32 -33
l-1 -118h37v65h27v-65h37zM2120 436v22h-17v84h-39l-71 -86v-20h70v-51h40v51h17zM1016 1365v151h-37v-65h-27v65h-36v-151h36v65h27v-65h37zM2106 317v28h-102v-157h41v66h47v28h-47v35h61zM892 1463v18q0 35 -33 35h-68v-151h37v65q64 -1 64 33zM759 1365v21h-47v130h-36
v-151h83zM645 1365v116q0 35 -32 35h-36q-32 0 -32 -33v-118h36v65h28v-65h36zM1959 -79v1279q0 60 -42 102t-102 42h-1280q-60 0 -102 -42t-42 -102v-1279q0 -60 42 -102t102 -42h1280q60 0 102 42t42 102zM336 911v22h-84v-155h36v67h32v21h-32v45h48zM1510 -282
q-3 38 -33 38h-19q-32 0 -32 -35q0 -22 24 -49l8 -9q19 -21 12 -33q-6 -4 -10 -4q-3 0 -5 1l-5 2l-4 9v4h-20q0 -37 32 -37h19q32 0 32 35q0 25 -24 49l-8 8q-14 14 -14 25q0 13 13 13q11 0 13 -17h21zM1388 -395v151h-20l-68 -69l-68 69h-11v-151h21v86l54 -55l55 55v-86
h37zM349 620q0 36 -23 43q23 8 23 33q0 44 -38 44h-73v-156h73q38 0 38 36zM1181 -395v60l-6 13l-11 5q17 8 17 29q0 44 -33 44h-68v-151h37v65h13l10 -4l4 -11v-50h37zM349 421v85q0 36 -36 36h-39q-36 0 -36 -35v-87q0 -35 36 -35h39q36 0 36 36zM1049 -360v81
q0 34 -33 34h-35q-33 0 -33 -33v-84q0 -33 33 -33h35q33 0 33 35zM924 -266v22h-84v-151h37v65h31v21h-31v43h47zM349 224v84q0 36 -36 36h-39q-36 0 -36 -34v-88q0 -34 36 -34h39q36 0 36 36zM1490 1465l-5 -10l-10 -4h-13v44h13l10 -4l5 -10v-16zM1366 1465l-4 -10l-10 -4
h-13v44h13l10 -4l4 -10v-16zM2071 688l-4 -11l-11 -4h-15v45h15l11 -4l4 -10v-16zM2071 620l-4 -10l-11 -4h-15v45h15q15 0 15 -14v-17zM1111 1451h-27v30l4 10l10 4l9 -4l4 -10v-30zM2063 458h-45l45 53v-53zM855 1465l-4 -10l-10 -4h-13v44h13l10 -4l4 -10v-16zM609 1451
h-28v30l5 10l9 4l9 -4l5 -10v-30zM1651 0h-414v45h13q80 0 107 35q22 29 22 113v566h-408v-566q0 -89 29.5 -118.5t118.5 -29.5h11v-45h-431v45h15q80 0 103 35q18 27 18 113v566h-136v56h136v75q0 311 297 311q140 0 211 -88l-105 -98q-54 141 -153 141q-114 0 -114 -206
v-135h408l136 23v-645q0 -86 20 -114q25 -34 105 -34h11v-45zM309 688l-5 -11l-11 -4h-14v45h14l11 -4l5 -10v-16zM309 620l-5 -10l-11 -4h-14v45h15q15 0 15 -14v-17zM1144 -295l-4 -10l-10 -4h-13v43h13l10 -4l4 -10v-15zM309 422l-5 -10l-10 -5l-11 5l-4 10v83l4 11l11 4
l10 -4l5 -11v-83zM1012 -360l-4 -10l-9 -4l-10 4l-4 10v80l4 10l10 4l9 -4l4 -10v-80zM309 225l-5 -11l-10 -4l-11 4l-4 11v83l4 10l11 4l10 -4l5 -10v-83z" />
  </g>

</svg>
