<?xml version="1.0" standalone="no"?>
<!DOCTYPE svg PUBLIC "-//W3C//DTD SVG 1.1//EN" "http://www.w3.org/Graphics/SVG/1.1/DTD/svg11.dtd" >
<svg viewBox="0 -442 2048 2048">
  <g transform="matrix(1 0 0 -1 0 1606)">
   <path fill="currentColor"
d="M1196 374q0 -51 -55 -51q-35 0 -47 41q-8 29 -12 29q-22 0 -61 -165h54q21 0 21 -22q0 -36 -24 -36h-66l-62 -200q-93 -299 -232 -299q-96 0 -96 68q0 56 53 56q38 0 46.5 -36.5t15.5 -36.5q19 0 54 127l89 321h-55q-19 0 -19 22q0 36 28 36h64q66 216 205 216
q99 0 99 -70zM746 -17q0 -3 -2 -7q-61 -129 -145 -129q-35 0 -60 19q-29 22 -29 55q0 26 41.5 115.5t41.5 135.5q0 21 -13 21q-31 0 -66 -36q-32 -32 -43 -65l-67 -197q-16 -48 -66 -48q-44 0 -44 42q0 11 2 17l67 197q13 38 13 65q0 25 -19 25q-27 0 -50 -20
q-32 -27 -54 -69q-1 -2 -17 -54t-53 -156q-20 -47 -67 -47q-44 0 -44 43q0 7 3 16l78 234q9 27 9 47q0 6 -4 6q-18 0 -31.5 -54t-38.5 -54q-34 0 -34 21q0 36 41 86t76 50q74 0 92 -52q51 52 101 52q98 0 115 -58q56 58 114 58q106 0 106 -85q0 -49 -43.5 -143.5
t-43.5 -117.5q37 0 69 82q10 26 39 26q26 0 26 -21z" />
  </g>

</svg>
