<?xml version="1.0" standalone="no"?>
<!DOCTYPE svg PUBLIC "-//W3C//DTD SVG 1.1//EN" "http://www.w3.org/Graphics/SVG/1.1/DTD/svg11.dtd" >
<svg viewBox="0 -442 2048 2048">
  <g transform="matrix(1 0 0 -1 0 1606)">
   <path fill="currentColor"
d="M1174 122q0 -99 -69 -185q-73 -90 -170 -90q-36 0 -60 20l-39 -114q43 0 43 -26q0 -34 -25 -34h-164q-16 0 -16 19q0 40 50 41l131 390q7 21 7 44q0 6 -4 6q-21 0 -38.5 -53.5t-31.5 -53.5h-18q-15 0 -15 20q0 37 40 86.5t76 49.5q64 0 87 -39q48 39 99 39
q117 0 117 -120zM746 -17q0 -3 -2 -7q-61 -129 -145 -129q-35 0 -60 19q-29 22 -29 55q0 26 41.5 115.5t41.5 135.5q0 21 -13 21q-31 0 -66 -36q-32 -32 -43 -65l-67 -197q-16 -48 -66 -48q-44 0 -44 42q0 11 2 17l67 197q13 38 13 65q0 25 -19 25q-27 0 -50 -20
q-32 -27 -54 -69q-1 -2 -17 -54t-53 -156q-20 -47 -67 -47q-44 0 -44 43q0 7 3 16l78 234q9 27 9 47q0 6 -4 6q-18 0 -31.5 -54t-38.5 -54q-34 0 -34 21q0 36 41 86t76 50q74 0 92 -52q51 52 101 52q98 0 115 -58q56 58 114 58q106 0 106 -85q0 -49 -43.5 -143.5
t-43.5 -117.5q37 0 69 82q10 26 39 26q26 0 26 -21zM1068 162q0 31 -24 31q-40 0 -78 -46q-2 -10 -70 -219q8 -32 38 -32q48 0 94 110q40 96 40 156z" />
  </g>

</svg>
