<?xml version="1.0" standalone="no"?>
<!DOCTYPE svg PUBLIC "-//W3C//DTD SVG 1.1//EN" "http://www.w3.org/Graphics/SVG/1.1/DTD/svg11.dtd" >
<svg viewBox="-1356 -442 2048 2048">
  <g transform="matrix(1 0 0 -1 0 1606)">
   <path fill="currentColor"
d="M-356 1509q0 -52 -74 -88q33 -42 33 -85q0 -95 -140 -95q-50 0 -86 22q-43 26 -43 73q0 72 93 105q-28 38 -28 68q0 46 40 73q35 24 83 24t83 -24q39 -27 39 -73zM-314 1102q0 -31 -23.5 -54t-54.5 -23q-75 0 -75 79q0 30 23.5 52.5t53.5 22.5t53 -23.5t23 -53.5z
M-314 795q0 -33 -22 -55.5t-54 -22.5q-77 0 -77 78q0 31 23 53.5t54 22.5q29 0 52.5 -23.5t23.5 -52.5zM-333 552q0 -4 -3 -9q-178 -310 -503 -310q-101 0 -195 40q-161 69 -245 221q-77 140 -77 325q0 211 105 340q113 138 320 138q172 0 276 -89q109 -94 109 -264
q0 -146 -86 -248q-90 -107 -234 -107q-130 0 -211 96q-78 90 -78 222q0 77 58 143q61 70 136 70q189 0 189 -169q0 -56 -44.5 -95t-101.5 -39q-23 0 -51.5 15.5t-40.5 15.5q-41 0 -41 -24q0 -172 201 -172q111 0 173 89q54 78 54 194q0 139 -79.5 220t-218.5 81
q-155 0 -249 -117q-87 -109 -87 -268q0 -199 142 -345.5t340 -146.5q119 0 214 60q63 39 122 110q50 60 57 60q13 0 31 -12.5t18 -24.5zM-410 1514q0 64 -61 64q-47 0 -47 -41q0 -39 67 -93q41 33 41 70zM-474 1310q0 36 -78 110q-60 -37 -60 -84q0 -29 25 -47t55 -18
q58 0 58 39z" />
  </g>

</svg>
