<?xml version="1.0" standalone="no"?>
<!DOCTYPE svg PUBLIC "-//W3C//DTD SVG 1.1//EN" "http://www.w3.org/Graphics/SVG/1.1/DTD/svg11.dtd" >
<svg viewBox="-282 -442 2048 2048">
  <g transform="matrix(1 0 0 -1 0 1606)">
   <path fill="currentColor"
d="M765 778q0 -36 -28 -65t-64 -29q-37 0 -66.5 28.5t-29.5 65.5q0 41 27.5 67.5t68.5 26.5q39 0 65.5 -27t26.5 -67zM765 428q0 -36 -28 -65t-64 -29q-37 0 -66.5 28.5t-29.5 65.5q0 41 27.5 67.5t68.5 26.5q39 0 65.5 -27t26.5 -67zM483 -100h-67v1406h67v-1406zM350 -100
h-217v1406h217v-1406zM67 -100h-67v1406h67v-1406zM-94 778q0 -36 -28 -65t-64 -29q-37 0 -66.5 28.5t-29.5 65.5q0 41 27.5 67.5t68.5 26.5q39 0 65.5 -27t26.5 -67zM-94 428q0 -36 -28 -65t-64 -29q-37 0 -66.5 28.5t-29.5 65.5q0 41 27.5 67.5t68.5 26.5q39 0 65.5 -27
t26.5 -67z" />
  </g>

</svg>
