<?xml version="1.0" standalone="no"?>
<!DOCTYPE svg PUBLIC "-//W3C//DTD SVG 1.1//EN" "http://www.w3.org/Graphics/SVG/1.1/DTD/svg11.dtd" >
<svg viewBox="0 -442 2048 2048">
  <g transform="matrix(1 0 0 -1 0 1606)">
   <path fill="currentColor"
d="M806 374q0 -51 -55 -51q-35 0 -47 41q-8 29 -12 29q-22 0 -61 -165h54q21 0 21 -22q0 -36 -24 -36h-66l-62 -200q-93 -299 -232 -299q-96 0 -96 68q0 56 53 56q38 0 46.5 -36.5t15.5 -36.5q19 0 54 127l89 321h-55q-19 0 -19 22q0 36 28 36h64q66 216 205 216
q99 0 99 -70zM367 170q0 -74 -59 -74q-36 0 -36 38q0 32 27 52q-14 7 -37 7q-75 0 -75 -57q0 -18 38 -28q54 -14 70 -23q38 -23 38 -73q0 -77 -59 -123q-54 -42 -133 -42q-125 0 -125 79q0 31 19.5 58t49.5 27q39 0 39 -42q0 -43 -35 -64q19 -9 50 -9q104 0 104 73
q0 21 -38 32q-59 15 -72 22q-38 22 -38 72q0 66 51 108q47 39 115 39q106 0 106 -72z" />
  </g>

</svg>
