<?xml version="1.0" standalone="no"?>
<!DOCTYPE svg PUBLIC "-//W3C//DTD SVG 1.1//EN" "http://www.w3.org/Graphics/SVG/1.1/DTD/svg11.dtd" >
<svg viewBox="0 -442 2048 2048">
  <g transform="matrix(1 0 0 -1 0 1606)">
   <path fill="currentColor"
d="M845 168q0 -31 -20 -57q-22 -29 -52 -29q-42 0 -42 43q0 45 42 67q-4 1 -9 1q-93 0 -148 -232q-3 -23 -14 -66q-17 -48 -68 -48q-43 0 -43 43q0 10 2 16l78 234q9 27 9 47q0 3 -4 6q-8 7 -12 7q-44 0 -159 -45l-23 -71q48 -82 48 -129q0 -48 -32 -78t-80 -30
q-96 0 -96 78q0 16 5 31l51 151q-65 -20 -105 -20q-73 0 -73 51q0 38 38 60q32 18 74 18q44 0 91 -37l48 145q32 98 84 98q40 0 40 -42q0 -18 -6 -36l-51 -152q130 50 171 50q65 0 88 -41q44 41 94 41q74 0 74 -74zM290 143q-37 41 -73 41q-67 0 -67 -44q0 -21 34 -21
q44 0 106 24zM392 -48q0 24 -28 80q-42 -125 -42 -133q0 -19 17 -19q22 0 38 26q15 22 15 46z" />
  </g>

</svg>
