<?xml version="1.0" standalone="no"?>
<!DOCTYPE svg PUBLIC "-//W3C//DTD SVG 1.1//EN" "http://www.w3.org/Graphics/SVG/1.1/DTD/svg11.dtd" >
<svg viewBox="0 -419 2155 2048">
  <g transform="matrix(1 0 0 -1 0 1638)">
   <path fill="currentColor"
d="M2155 -239q0 -75 -52.5 -127.5t-127.5 -52.5h-1599q-75 0 -127.5 52.5t-52.5 127.5v1599q0 75 52.5 127.5t127.5 52.5h1599q75 0 127.5 -52.5t52.5 -127.5v-1599zM1741 1400v51h-52v-21h16v-30q0 -13 -13 -14l-10 4l-4 10v80l4 10l10 4h15q12 0 14 -16h20q-2 38 -34 38
h-32q-34 0 -34 -35v-81q0 -35 34 -35h32q34 0 34 35zM1599 1365v151h-21v-78l-85 78h-11v-151h21v78l86 -78h10zM2098 911v22h-84v-155h36v67h32v21h-32v45h48zM1445 1365v151h-33v-151h33zM1381 1365v151h-21v-78l-86 78h-10v-151h21v78l85 -78h11zM2098 583v22h-47v45h31
v21h-31v45h47v22h-84v-155h84zM1230 1365v151h-33v-151h33zM1161 1400q0 34 -21 41q21 8 21 32q0 43 -34 43h-66v-151h66q34 0 34 35zM2107 388v21h-64q2 11 33 42.5t31 46.5q0 44 -35 44h-32q-30 0 -34 -38h21q0 17 13 17h16l10 -5l4 -10q0 -20 -32 -52.5t-32 -46.5v-19
h101zM1030 1365v151h-20l-68 -69l-68 69h-11v-151h21v86l54 -55l55 55v-86h37zM2106 317v28h-102v-157h41v66h47v28h-47v35h61zM837 1400v81q0 34 -33 34h-35q-33 0 -33 -33v-84q0 -33 33 -33h35q33 0 33 35zM709 1402h-21q-1 -16 -13 -16h-16l-10 4l-4 10v80l4 10l10 4h16
q12 0 13 -16h21q-2 38 -34 38h-32q-34 0 -34 -35v-81q0 -35 34 -35h32q32 0 34 37zM1959 -79v1279q0 59 -42.5 101.5t-101.5 42.5h-1280q-59 0 -101.5 -42.5t-42.5 -101.5v-1279q0 -59 42.5 -101.5t101.5 -42.5h1280q59 0 101.5 42.5t42.5 101.5zM1808 -360q0 28 -24 49
l-9 8q-21 19 -11 34q6 4 11 4q10 0 12 -17h21q-3 38 -32 38h-20q-32 0 -32 -35q0 -25 24 -49l9 -9q13 -13 13 -24q0 -5 -2 -9q-5 -4 -10 -4q-2 0 -5 1l-4 2l-5 9l1 4h-21q0 -37 32 -37h19q33 0 33 35zM1686 -395v151h-19l-69 -69l-68 69h-11v-151h21v86l54 -55l55 55v-86h37
zM336 911v22h-84v-155h36v67h32v21h-32v45h48zM1479 -395v60l-5 13l-11 5q16 8 16 29q0 44 -33 44h-67v-151h36v65h13l10 -4l4 -11v-50h37zM1347 -360v81q0 34 -33 34h-35q-32 0 -32 -33v-84q0 -33 32 -33h35q33 0 33 35zM336 583v22h-48v45h32v21h-32v45h48v22h-84v-155h84
zM1222 -266v22h-83v-151h36v65h32v21h-32v43h47zM344 388v21h-64q2 11 33 42.5t31 46.5q0 44 -34 44h-32q-31 0 -35 -38h21q1 17 14 17h15l10 -5l4 -10q0 -20 -32 -52.5t-32 -46.5v-19h101zM983 -266v22h-83v-151h36v65h32v21h-32v43h47zM349 224v84q0 36 -36 36h-39
q-36 0 -36 -34v-88q0 -34 36 -34h39q36 0 36 36zM877 -395v21h-48v130h-36v-151h84zM767 -395v116q0 35 -33 35h-35q-33 0 -33 -34v-117h37v65h27v-65h37zM643 -395v151h-37v-65h-27v65h-37v-151h37v65h27v-65h37zM1124 1465l-4 -10l-10 -4h-13v43h13l10 -4l4 -10v-15z
M1124 1400l-4 -10l-10 -4h-13v44h14q13 0 13 -14v-16zM1551 1001q-224 144 -297 144q-82 0 -135 -74q-49 -66 -49 -151h-78v17q0 130 73 226q80 106 206 106q43 0 280 -111v-157zM800 1400l-4 -10l-9 -4l-10 4l-4 10v80l4 10l10 4l9 -4l4 -10v-80zM1439 796q0 -12 -8 -26
q-13 -23 -33 -23q-11 0 -25 8q-23 13 -23 33q0 13 7 25q14 24 34 24q12 0 25 -8q23 -14 23 -33zM1591 651q20 -35 -15 -56t-57 15q-21 36 16 57q8 4 13 6q26 8 43 -22zM1656 412q0 -43 -41 -43q-43 0 -43 43q0 42 43 42q41 0 41 -42zM1217 850q0 -43 -41 -43q-43 0 -43 43
t43 43q41 0 41 -43zM1000 788q0 -20 -23 -33q-14 -8 -25 -8q-20 0 -33 23q-8 14 -8 26q0 19 23 33q13 8 25 8q20 0 34 -24q7 -12 7 -25zM1591 170q-20 -36 -56 -16q-38 21 -16 59q21 36 57 15t15 -58zM831 610q-22 -36 -57 -15t-15 56q17 30 43 22q5 -2 13 -6q37 -21 16 -57
zM1439 28q0 -20 -23 -34q-13 -8 -25 -8q-20 0 -34 24q-7 12 -7 25q0 20 23 33q14 8 25 8q20 0 33 -23q8 -14 8 -25zM778 412q0 -43 -43 -43q-41 0 -41 43q0 42 41 42q43 0 43 -42zM1217 -27q0 -43 -41 -43q-43 0 -43 43q0 41 43 41q41 0 41 -41zM1442 -295l-4 -10l-10 -4
h-13v43h13l10 -4l4 -10v-15zM1000 35q0 -13 -7 -25q-14 -24 -34 -24q-12 0 -25 8q-23 14 -23 34q0 11 8 25q13 23 33 23q11 0 25 -8q23 -13 23 -33zM831 213q22 -38 -16 -59q-36 -20 -56 16q-21 37 15 58t57 -15zM1310 -360l-4 -10l-9 -4l-10 4l-4 10v80l4 10l10 4l9 -4
l4 -10v-80zM309 225l-5 -11l-10 -4l-11 4l-4 11v83l4 10l11 4l10 -4l5 -10v-83zM730 -309h-27v29l4 10l10 4l9 -4l4 -10v-29z" />
  </g>

</svg>
