<?xml version="1.0" standalone="no"?>
<!DOCTYPE svg PUBLIC "-//W3C//DTD SVG 1.1//EN" "http://www.w3.org/Graphics/SVG/1.1/DTD/svg11.dtd" >
<svg viewBox="0 -419 2154 2048">
  <g transform="matrix(1 0 0 -1 0 1638)">
   <path fill="currentColor"
d="M2154 -239q0 -74 -53 -127t-127 -53h-1598q-74 0 -127 53t-53 127v1599q0 74 53 127t127 53h1598q74 0 127 -53t53 -127v-1599zM1525 1402h-21q-1 -16 -13 -16h-16l-10 4l-4 10v80l4 10l10 4h16q12 0 13 -16h21q-2 38 -34 38h-32q-34 0 -34 -35v-81q0 -35 34 -35h32
q32 0 34 37zM2098 911v22h-84v-155h36v67h32v21h-32v45h48zM1395 1365v151h-34v-151h34zM1332 1400q0 34 -21 41q21 8 21 32q0 43 -34 43h-66v-151h66q34 0 34 35zM2098 583v22h-47v45h31v21h-31v45h47v22h-84v-155h84zM1194 1365v116q0 35 -32 35h-35q-33 0 -33 -34v-117
h37v65h27v-65h36zM2098 521v21h-84v-154h36v66h32v22h-32v45h48zM1057 1365v60l-5 13l-11 5q16 8 16 29q0 44 -32 44h-68v-151h37v65h13l10 -4l4 -11v-50h36zM2106 317v28h-102v-157h41v66h47v28h-47v35h61zM925 1365v116q0 35 -32 35h-35q-33 0 -33 -34v-117h37v65h27v-65
h36zM1959 -79v1279q0 59 -42.5 101.5t-101.5 42.5h-1280q-59 0 -101.5 -42.5t-42.5 -101.5v-1279q0 -59 42.5 -101.5t101.5 -42.5h1280q59 0 101.5 42.5t42.5 101.5zM336 911v22h-84v-155h36v67h32v21h-32v45h48zM1513 -360q0 34 -22 41q22 8 22 32q0 43 -35 43h-66v-151h66
q35 0 35 35zM336 583v22h-48v45h32v21h-32v45h48v22h-84v-155h84zM1340 -395v34h-33v-34h33zM1282 -360q0 21 -23.5 49t-23.5 31q1 5 3 11q5 2 11 4q11 0 13 -17h20q-2 38 -32 38h-19q-32 0 -32 -35q0 -21 23.5 -49t23.5 -32q-1 -4 -3 -10l-10 -4l-10 3l-4 9v4h-20
q0 -37 32 -37h19q32 0 32 35zM1173 -395v21h-47v44h32v21h-32v43h47v22h-83v-151h83zM344 506v36h-101v-21h64v-14q-32 -66 -32 -84v-35h37q0 52 32 118zM1061 -395v60l-5 13l-11 5q16 8 16 29q0 44 -33 44h-67v-151h36v65h13l10 -4l4 -11v-50h37zM938 -297v18q0 35 -33 35
h-68v-151h37v65h13q51 0 51 33zM349 224v84q0 36 -36 36h-39q-36 0 -36 -34v-88q0 -34 36 -34h39q36 0 36 36zM1295 1465l-4 -10l-10 -4h-13v43h13l10 -4l4 -10v-15zM1295 1400l-4 -10l-10 -4h-13v44h14q13 0 13 -14v-16zM1158 1451h-27v29l4 10l9 4l10 -4l4 -10v-29z
M1021 1465l-4 -10l-10 -4h-13v43h13l10 -4l4 -10v-15zM889 1451h-27v29l4 10l9 4l10 -4l4 -10v-29zM1867 499h-106q-49 0 -96 55q-43 49 -53 102q-131 -82 -326 -140q-198 -59 -349 -59q-182 0 -307 78q-147 92 -147 264q0 64 41 170q47 122 96 122q12 0 12 -16
q0 -22 -23.5 -76.5t-23.5 -79.5q0 -129 168 -195q124 -49 280 -49q423 0 629 248q4 -7 5 -23q2 -46 30 -104q33 -69 70 -69h100v-228zM1476 -295l-4 -10l-10 -4h-13v43h13l10 -4l4 -10v-15zM1145 158l-128 -128l-129 127l126 129zM1476 -360l-4 -10l-10 -4h-13v44h13
q14 0 14 -14v-16zM1024 -295l-4 -10l-10 -4h-13v43h13l10 -4l4 -10v-15zM901 -295l-4 -10l-10 -4h-13v43h13l10 -4l4 -10v-15zM309 225l-5 -11l-10 -4l-11 4l-4 11v83l4 10l11 4l10 -4l5 -10v-83z" />
  </g>

</svg>
