<?xml version="1.0" standalone="no"?>
<!DOCTYPE svg PUBLIC "-//W3C//DTD SVG 1.1//EN" "http://www.w3.org/Graphics/SVG/1.1/DTD/svg11.dtd" >
<svg viewBox="0 -442 2048 2048">
  <g transform="matrix(1 0 0 -1 0 1606)">
   <path fill="currentColor"
d="M772 781q0 -7 -9 -26q-23 -49 -77 -90q-57 -45 -107 -45q-61 0 -79 39q-11 24 -11 93q-135 -135 -226 -135q-106 0 -106 124q0 109 66 227q76 136 175 136q66 0 117 -138q4 8 37 103q17 49 61 49q24 0 43.5 -16.5t19.5 -39.5q0 -18 -72 -150.5t-72 -145.5q0 -44 47 -44
q41 0 103 42t69 42q21 0 21 -25zM1300 1108q0 -2 -5 -9l-1022 -1340q-13 -17 -42 -19q35 2 -49 2q-11 0 -11 8q0 4 4 9l1022 1340q14 19 63 19q40 0 40 -10zM1248 -94q0 -7 -9 -26q-23 -49 -77 -90q-57 -45 -107 -45q-61 0 -79 39q-11 24 -11 93q-135 -135 -226 -135
q-106 0 -106 124q0 109 66 227q76 136 175 136q66 0 117 -138q4 8 37 103q17 49 61 49q24 0 43.5 -16.5t19.5 -39.5q0 -18 -72 -150.5t-72 -145.5q0 -44 47 -44q41 0 103 42t69 42q21 0 21 -25zM486 892q-28 125 -66 125q-50 0 -106 -85q-46 -72 -59 -133q-7 -32 -7 -62
q0 -51 30 -51q52 0 142 102q44 49 66 104zM963 17q-28 125 -66 125q-50 0 -106 -86q-46 -72 -59 -133q-8 -37 -8 -61q0 -52 30 -52q52 0 143 103q44 49 66 104z" />
  </g>

</svg>
