<?xml version="1.0" standalone="no"?>
<!DOCTYPE svg PUBLIC "-//W3C//DTD SVG 1.1//EN" "http://www.w3.org/Graphics/SVG/1.1/DTD/svg11.dtd" >
<svg viewBox="0 -442 2048 2048">
  <g transform="matrix(1 0 0 -1 0 1606)">
   <path fill="currentColor"
d="M488 35q0 -46 -26 -46q1 0 -70 5q-86 6 -146 6q-61 0 -149 -6q-73 -5 -71 -5q-12 0 -12 15q0 28 15 38q6 4 39 4q103 0 130 105l91 354q-179 -100 -217 -100q-13 0 -13 22q0 25 7 34q4 5 25 15q105 50 274 174q16 12 54 12q27 0 27 -8q0 -2 -1 -5l-124 -483
q-7 -27 -7 -46q0 -54 58 -68q23 -6 100 -6q16 0 16 -11z" />
  </g>

</svg>
