<?xml version="1.0" standalone="no"?>
<!DOCTYPE svg PUBLIC "-//W3C//DTD SVG 1.1//EN" "http://www.w3.org/Graphics/SVG/1.1/DTD/svg11.dtd" >
<svg viewBox="0 -442 2048 2048">
  <g transform="matrix(1 0 0 -1 0 1606)">
   <path fill="currentColor"
d="M730 814q0 -95 -67 -175q-60 -72 -155 -109q121 -136 121 -257q0 -128 -97 -213q-93 -83 -222 -83q-100 0 -168 75q-66 72 -66 173q0 202 259 285q-135 131 -135 256q0 112 88 195t201 83q95 0 168 -68t73 -162zM615 810q0 68 -34 119q-39 59 -104 59q-66 0 -112 -57
q-42 -54 -42 -122q0 -97 152 -242q140 101 140 243zM504 233q0 111 -140 245q-171 -112 -171 -265q0 -69 32 -121q38 -61 102 -61q74 0 127 65q50 62 50 137z" />
  </g>

</svg>
