<?xml version="1.0" standalone="no"?>
<!DOCTYPE svg PUBLIC "-//W3C//DTD SVG 1.1//EN" "http://www.w3.org/Graphics/SVG/1.1/DTD/svg11.dtd" >
<svg viewBox="0 -442 2048 2048">
  <g transform="matrix(1 0 0 -1 0 1606)">
   <path fill="currentColor"
d="M710 337q0 -168 -79 -323.5t-217 -246.5q-113 -75 -303 -126q-1 -1 -4 -1q-17 0 -17 50q0 10 13 16q56 24 166 76q210 113 267 375q-111 -98 -237 -98q-108 0 -173.5 66t-65.5 175q0 145 106 262q109 121 252 121q136 0 218 -108q74 -97 74 -238zM575 398q0 231 -162 231
q-98 0 -164 -114q-57 -98 -57 -203q0 -73 41 -121q44 -51 115 -51q227 0 227 258z" />
  </g>

</svg>
