<?xml version="1.0" standalone="no"?>
<!DOCTYPE svg PUBLIC "-//W3C//DTD SVG 1.1//EN" "http://www.w3.org/Graphics/SVG/1.1/DTD/svg11.dtd" >
<svg viewBox="-97 -442 2048 2048">
  <g transform="matrix(1 0 0 -1 0 1606)">
   <path fill="currentColor"
d="M549 496q0 -112 -170 -226q69 -21 110.5 -82.5t41.5 -135.5q0 -147 -146 -275q-156 -137 -344 -137q-51 0 -90 21q-48 25 -48 71q0 70 69 70q39 0 86 -39t82 -39q111 0 189 95q74 90 74 203q0 67 -37 113q-40 49 -106 49q-10 0 -30 -4t-30 -4q-8 0 -19.5 12t-11.5 20
q0 10 11 16l92 48q54 28 85 58q66 64 66 127q0 53 -40.5 86t-95.5 33q-64 0 -122.5 -40t-49.5 -40q-6 0 -20 11t-14 17t3 11q35 62 105.5 105.5t140.5 43.5q85 0 149 -51q70 -54 70 -137z" />
  </g>

</svg>
