<?xml version="1.0" standalone="no"?>
<!DOCTYPE svg PUBLIC "-//W3C//DTD SVG 1.1//EN" "http://www.w3.org/Graphics/SVG/1.1/DTD/svg11.dtd" >
<svg viewBox="0 -442 2048 2048">
  <g transform="matrix(1 0 0 -1 0 1606)">
   <path fill="currentColor"
d="M781 996q0 -8 -92 -50q-338 -156 -436 -480q108 101 235 101q103 0 165.5 -62.5t62.5 -165.5q0 -137 -100 -248q-104 -114 -239 -114q-131 0 -209 100q-71 92 -71 227q0 56 10 105q40 194 248 406q220 224 407 224q19 0 19 -43zM592 330q0 69 -41 113.5t-109 44.5
q-95 0 -157.5 -64t-62.5 -160q0 -86 36 -152q44 -81 123 -81q93 0 156 107q55 92 55 192z" />
  </g>

</svg>
