<?xml version="1.0" standalone="no"?>
<!DOCTYPE svg PUBLIC "-//W3C//DTD SVG 1.1//EN" "http://www.w3.org/Graphics/SVG/1.1/DTD/svg11.dtd" >
<svg viewBox="0 -442 2048 2048">
  <g transform="matrix(1 0 0 -1 0 1606)">
   <path fill="currentColor"
d="M2023 -72q0 -142 -101.5 -242.5t-243.5 -100.5h-1308q-142 0 -243.5 100.5t-101.5 242.5v1308q0 142 101.5 243.5t243.5 101.5h1308q142 0 243.5 -101.5t101.5 -243.5v-1308zM1922 -29v1265q0 117 -85 200t-202 83h-1265q-117 0 -200.5 -83t-83.5 -200v-1265
q0 -117 83.5 -200.5t200.5 -83.5h554v-93h83v79h89v-79h82v79h90v-79h82v79h82q18 -82 106 -82q33 0 82 22v74h15q117 0 202 83.5t85 200.5zM1805 849q0 -183 -228 -183q-82 0 -140 11v113h7q53 -20 97 -20q73 0 98 35q21 28 21 100v273h-140v101h285v-430zM1401 858
q0 -95 -76 -143q-64 -40 -164 -40h-274v604h265q208 0 208 -137q0 -87 -90 -127v-13q131 -26 131 -144zM1823 393h-192v-498h-145v498h-193v106h530v-106zM826 977q0 -146 -82.5 -230t-227.5 -84t-228 84.5t-83 229.5q0 146 82.5 230t228.5 84t228 -84t82 -230zM1600 -374
q-33 -15 -62 -15q-90 0 -90 94t90 94q31 0 62 -15v-41h-3q-28 24 -52 24q-52 0 -52 -62t53 -62q25 0 52 24h2v-41zM1590 -313q-27 -24 -44 -24q-25 0 -31 24h75zM1245 -65q-116 -52 -212 -52q-145 0 -226 84t-81 230q0 144 82 229.5t225 85.5q107 0 212 -51v-138h-9
q-96 83 -178 83q-88 0 -137 -63q-43 -57 -43 -148t44 -146q47 -60 136 -60q88 0 180 82h7v-136zM1428 -237h-98v-38h92v-32h-92v-79h-42v181h140v-32zM1256 -237h-98v-38h92v-32h-92v-79h-42v181h140v-32zM1084 -237h-97v-38h91v-32h-91v-79h-43v181h140v-32zM674 -105h-433
v604h433v-106h-288v-120h266v-106h-266v-166h288v-106zM1211 1112q0 66 -95 66h-83v-142q11 0 34.5 -1t35.5 -1q108 0 108 78zM1250 860q0 83 -125 83q-15 0 -46 -1t-46 -1v-165q14 0 42 -1t42 -1q133 0 133 86zM674 977q0 87 -35 143q-41 67 -123 67q-159 0 -159 -210
q0 -87 35 -144q42 -68 124 -68t124 68q34 57 34 144z" />
  </g>

</svg>
