<?xml version="1.0" standalone="no"?>
<!DOCTYPE svg PUBLIC "-//W3C//DTD SVG 1.1//EN" "http://www.w3.org/Graphics/SVG/1.1/DTD/svg11.dtd" >
<svg viewBox="0 -442 2048 2048">
  <g transform="matrix(1 0 0 -1 0 1606)">
   <path fill="currentColor"
d="M1971 90q0 -90 -101 -90h-50v181h52q99 0 99 -91zM1793 149h-98v-38h92v-32h-92v-79h-42v181h140v-32zM1621 149h-98v-38h92v-32h-92v-79h-42v181h140v-32zM1961 582q-202 -185 -389 -381h-283v-221h80q-179 -202 -350 -422q-436 560 -942 1024q506 463 942 1024
q436 -561 942 -1024zM1449 149h-97v-38h91v-32h-91v-79h-43v181h140v-32zM1440 59q-24 -26 -68 -76v76h68zM1927 91q0 59 -64 59v-119h5q59 0 59 60zM1451 860q0 164 -132 251q-114 75 -286 75q-148 0 -333 -56v-195q176 76 310 76q86 0 143 -33q69 -40 69 -120
q0 -90 -119 -242q-142 -183 -163 -237q-29 -73 -29 -244h218q0 14 -1 49q-1 31 -1 49q0 99 26 157q32 72 115 149q101 94 125 127q58 81 58 194zM1129 -178v218h-218v-218h218zM2048 1606zM0 1606zM2048 -442zM0 -442z" />
  </g>

</svg>
