<?xml version="1.0" standalone="no"?>
<!DOCTYPE svg PUBLIC "-//W3C//DTD SVG 1.1//EN" "http://www.w3.org/Graphics/SVG/1.1/DTD/svg11.dtd" >
<svg viewBox="0 -419 2155 2048">
  <g transform="matrix(1 0 0 -1 0 1638)">
   <path fill="currentColor"
d="M2155 -239q0 -75 -52.5 -127.5t-127.5 -52.5h-1599q-75 0 -127.5 52.5t-52.5 127.5v1599q0 75 52.5 127.5t127.5 52.5h1599q75 0 127.5 -52.5t52.5 -127.5v-1599zM1609 1400q0 21 -23.5 49t-23.5 31q1 5 3 11q4 2 11 4q11 0 13 -17h20q-2 38 -32 38h-19q-33 0 -33 -35
q0 -21 24 -49t24 -32l-3 -10l-11 -4l-9 3l-4 9v4h-21q0 -37 32 -37h20q32 0 32 35zM2098 911v22h-84v-155h36v67h32v21h-32v45h48zM1503 1365v21h-47v130h-36v-151h83zM1389 1365v116q0 35 -32 35h-35q-33 0 -33 -34v-117h37v65h27v-65h36zM2098 716v22h-84v-155h36v67h32
v21h-32v45h48zM1258 1365v151h-33v-151h33zM1195 1402h-20q-2 -16 -14 -16h-15l-10 4l-4 10v80l4 10l10 4h15q12 0 14 -16h20q-2 38 -34 38h-32q-34 0 -34 -35v-81q0 -35 34 -35h32q32 0 34 37zM2098 521v21h-84v-154h36v66h32v22h-32v45h48zM1067 1365v21h-48v44h32v21h-32
v43h48v22h-84v-151h84zM954 1463v18q0 35 -33 35h-67v-151h36v65h13q51 0 51 33zM2112 224v84q0 36 -36 36l-75 1v-157h75q36 0 36 36zM825 1400q0 21 -24 49t-24 31q2 5 4 11q4 2 11 4q10 0 12 -17h21q-3 38 -32 38h-20q-32 0 -32 -35q0 -21 23.5 -49t23.5 -32l-3 -10
l-10 -4l-9 3l-5 9l1 4h-21q0 -37 32 -37h19q33 0 33 35zM1959 -79v1279q0 60 -42 102t-102 42h-1280q-60 0 -102 -42t-42 -102v-1279q0 -60 42 -102t102 -42h1280q60 0 102 42t42 102zM1609 -360q0 21 -23.5 49t-23.5 31q1 5 3 11q4 2 11 4q11 0 13 -17h20q-2 38 -32 38h-19
q-33 0 -33 -35q0 -21 24 -49t24 -32l-3 -10l-11 -4l-9 3l-4 9v4h-21q0 -37 32 -37h20q32 0 32 35zM336 911v22h-84v-155h36v67h32v21h-32v45h48zM1503 -395v21h-47v130h-36v-151h83zM1389 -395v116q0 35 -32 35h-35q-33 0 -33 -34v-117h37v65h27v-65h36zM336 716v22h-84
v-155h36v67h32v21h-32v45h48zM1258 -395v151h-33v-151h33zM1195 -358h-20q-2 -16 -14 -16h-15l-10 4l-4 10v80l4 10l10 4h15q12 0 14 -16h20q-2 38 -34 38h-32q-34 0 -34 -35v-81q0 -35 34 -35h32q32 0 34 37zM336 521v21h-84v-154h36v66h32v22h-32v45h48zM1067 -395v21h-48
v44h32v21h-32v43h48v22h-84v-151h84zM954 -297v18q0 35 -33 35h-67v-151h36v65h13q51 0 51 33zM349 224v84q0 36 -36 36h-39q-36 0 -36 -34v-88q0 -34 36 -34h39q36 0 36 36zM825 -360q0 21 -24 49t-24 31q2 5 4 11q4 2 11 4q10 0 12 -17h21q-3 38 -32 38h-20q-32 0 -32 -35
q0 -21 23.5 -49t23.5 -32l-3 -10l-10 -4l-9 3l-5 9l1 4h-21q0 -37 32 -37h19q33 0 33 35zM1353 1451h-27v29l4 10l9 4l10 -4l4 -10v-29zM917 1465l-4 -10l-10 -4h-13v43h13l10 -4l4 -10v-15zM2071 225l-4 -11l-11 -4h-15v113h15l11 -5l4 -10v-83zM1929 561l-755 -762
l-753 762l753 761zM1353 -309h-27v29l4 10l9 4l10 -4l4 -10v-29zM917 -295l-4 -10l-10 -4h-13v43h13l10 -4l4 -10v-15zM309 225l-5 -11l-10 -4l-11 4l-4 11v83l4 10l11 4l10 -4l5 -10v-83zM1448 788q0 76 -53 129t-129 53h-182q-161 0 -182 -182h91q7 91 91 91h91
q37 0 64 -27t27 -64q0 -41 -48 -78q-82 -64 -87 -69q-47 -51 -47 -126v-91h182q0 124 -1 114q6 46 58 76q74 42 84 53q41 44 41 121zM1266 151v182h-182v-182h182z" />
  </g>

</svg>
