<?xml version="1.0" standalone="no"?>
<!DOCTYPE svg PUBLIC "-//W3C//DTD SVG 1.1//EN" "http://www.w3.org/Graphics/SVG/1.1/DTD/svg11.dtd" >
<svg viewBox="0 -419 2155 2048">
  <g transform="matrix(1 0 0 -1 0 1638)">
   <path fill="currentColor"
d="M2155 -239q0 -75 -52.5 -127.5t-127.5 -52.5h-1599q-75 0 -127.5 52.5t-52.5 127.5v1599q0 75 52.5 127.5t127.5 52.5h1599q75 0 127.5 -52.5t52.5 -127.5v-1599zM1783 1365v21h-47v44h32v21h-32v43h47v22h-83v-151h83zM2098 1106v21h-84v-154h36v66h32v22h-32v45h48z
M1674 1400q0 25 -24 49l-8 8q-14 14 -14 26q0 4 2 8q7 4 11 4q11 0 13 -17h20q-2 37 -32 37h-19q-32 0 -32 -34q0 -22 24 -49l8 -9q19 -21 12 -33q-6 -4 -10 -4q-3 0 -5 1l-5 2l-4 9v4h-20q0 -37 32 -37h19q32 0 32 35zM1565 1400v116h-36v-116l-4 -10l-10 -4l-9 4l-4 10
v116h-37v-118q0 -33 33 -33h35q32 0 32 35zM2098 911v22h-84v-155h36v67h32v21h-32v45h48zM1367 1365v21h-47v44h31v21h-31v43h47v22h-84v-151h84zM2098 716v22h-84v-155h36v67h32v21h-32v45h48zM1251 1494v22h-100v-22h32v-129h36v129h32zM2098 521v21h-84v-154h36v66h32
v22h-32v45h48zM1123 1365v116q0 35 -32 35h-36q-32 0 -32 -34v-117h36v65h28v-65h36zM992 1423v93h-36v-116l-5 -10l-10 -4h-13v130h-36v-151h43q57 0 57 58zM2112 224v84q0 36 -36 36l-75 1v-157h75q36 0 36 36zM861 1365v151h-33v-151h33zM792 1365v60l-5 13l-11 5
q16 8 16 29q0 44 -32 44h-68v-151h36v65h13l10 -4l5 -11v-50h36zM667 1463v18q0 35 -33 35h-67v-151h36v65q64 -1 64 33zM1959 -79v1279q0 60 -42 102t-102 42h-1280q-60 0 -102 -42t-42 -102v-1279q0 -60 42 -102t102 -42h1280q60 0 102 42t42 102zM339 1106v21h-83v-154
h36v66h32v22h-32v45h47zM1617 -359v33q0 36 -64 36v28h64v21h-101v-71h50l10 -4l4 -11v-32l-4 -10l-10 -4h-15q-13 0 -14 16h-21q4 -38 35 -38h31q35 0 35 36zM349 818v84q0 36 -36 36h-39q-36 0 -36 -34v-88q0 -34 36 -34h39q36 0 36 36zM1479 -395v154h-18l-32 -17v-21h16
v-116h34zM1340 -395v21h-48v44h32v21h-32v43h48v22h-84v-151h84zM349 620v84q0 36 -36 36h-39q-36 0 -36 -34v-88q0 -34 36 -34h39q36 0 36 36zM1221 -395v151h-21v-78l-86 78h-11v-151h21v78l86 -78h11zM349 421v85q0 36 -36 36h-39q-36 0 -36 -35v-87q0 -35 36 -35h39
q36 0 36 36zM1071 -395v116q0 35 -33 35h-35q-33 0 -33 -34v-117h37v65h27v-65h37zM936 -395v21h-47v130h-37v-151h84zM349 224v84q0 36 -36 36h-39q-36 0 -36 -34v-88q0 -34 36 -34h39q36 0 36 36zM825 -297v18q0 35 -33 35h-67v-151h36v65q64 -1 64 33zM1087 1451h-28v29
l5 10l9 4l9 -4l5 -10v-29zM2071 225l-4 -11l-11 -4h-15v113h15l11 -5l4 -10v-83zM756 1465l-5 -10l-10 -4h-13v43h13l10 -4l5 -10v-15zM630 1465l-4 -10l-10 -4h-13v43h13l10 -4l4 -10v-15zM1916 690q0 -107 -172 -215q-36 -22 -251 -130q-115 -173 -330 -173q-81 0 -145 31
q-177 -23 -247 -23q-105 0 -203 33q-134 45 -134 133q0 93 134 181q91 60 214 102q22 137 132.5 229t249.5 92q176 0 297 -139q76 15 163 15q104 0 179 -23q113 -35 113 -113zM309 818l-5 -10l-10 -4l-11 4l-4 10v83l4 11l11 4l10 -4l5 -11v-83zM309 620l-5 -10l-10 -4
l-11 4l-4 10v84l4 10l11 4l10 -4l5 -10v-84zM309 422l-5 -10l-10 -5l-11 5l-4 10v83l4 11l11 4l10 -4l5 -11v-83zM1034 -309h-27v29l4 10l10 4l9 -4l4 -10v-29zM309 225l-5 -11l-10 -4l-11 4l-4 11v83l4 10l11 4l10 -4l5 -10v-83zM788 -295l-4 -10l-10 -4h-13v43h13l10 -4
l4 -10v-15zM1620 682q0 42 -107 49q33 -65 39 -136q68 51 68 87zM1512 568q-4 142 -105.5 241.5t-242.5 99.5q-142 0 -244 -102t-102 -244q0 -98 57 -185q369 30 637 190zM1873 690q0 94 -249 94q-84 0 -136 -9l2 -4q171 -5 171 -89q0 -42 -53 -92q-109 -103 -362 -182
q-234 -73 -402 -73q-54 0 -112 18q-78 24 -78 67q0 80 124 139l1 26q-110 -40 -192 -96q-110 -75 -110 -143q0 -66 114 -99q80 -23 174 -23q422 0 855 229q253 134 253 237zM1407 308q-155 -62 -298 -90q28 -4 55 -4q138 0 243 94zM826 378q-39 69 -46 136q-83 -46 -83 -94
q0 -37 129 -42z" />
  </g>

</svg>
