<?xml version="1.0" standalone="no"?>
<!DOCTYPE svg PUBLIC "-//W3C//DTD SVG 1.1//EN" "http://www.w3.org/Graphics/SVG/1.1/DTD/svg11.dtd" >
<svg viewBox="0 -442 2048 2048">
  <g transform="matrix(1 0 0 -1 0 1606)">
   <path fill="currentColor"
d="M854 376q0 -152 -95 -265q-99 -117 -248 -130v-89h-60v86q-155 10 -249 110.5t-94 255.5q0 97 89 97q38 0 63 -25t25 -63q0 -89 -88 -89q-14 0 -31 4q45 -214 285 -228v574q-161 41 -238 116q-105 105 -105 260q0 146 98.5 250.5t244.5 117.5v88h60v-86q152 -8 246 -98
q97 -93 97 -242q0 -96 -88 -96q-38 0 -63.5 25.5t-25.5 63.5q0 88 89 88q17 0 30 -4q-50 190 -285 201v-521q159 -39 239 -125q104 -112 104 -276zM451 792v506q-101 -10 -171 -79q-74 -72 -74 -172q0 -103 74 -171q65 -61 171 -84zM756 319q0 109 -69 186q-66 72 -176 95
v-560q105 14 175 93.5t70 185.5z" />
  </g>

</svg>
