<?xml version="1.0" standalone="no"?>
<!DOCTYPE svg PUBLIC "-//W3C//DTD SVG 1.1//EN" "http://www.w3.org/Graphics/SVG/1.1/DTD/svg11.dtd" >
<svg viewBox="0 -442 2048 2048">
  <g transform="matrix(1 0 0 -1 0 1606)">
   <path fill="currentColor"
d="M1498 819q-125 -1 -191 -54q-44 -36 -114 -155q-175 -298 -271 -409q154 -183 283 -183q81 0 147 54q78 65 82 176h52q-3 -130 -86.5 -211.5t-202.5 -81.5q-182 0 -361 156q-175 -156 -370 -156q-154 0 -262.5 87.5t-108.5 219.5q0 75 38 136q24 38 107 124
q112 116 187 199q-84 214 -84 416q0 152 91 246q81 83 187 83q97 0 144 -97q35 -71 35 -167q0 -136 -250 -414q57 -150 194 -350q88 -129 146 -196q133 164 293 446q12 36 12 41q0 90 -146 90v64q81 -6 250 -6q88 0 199 6v-64zM748 1204q0 56 -15 110q-31 107 -108 107
q-61 0 -103 -54q-50 -64 -50 -183q0 -165 61 -346q215 233 215 366zM798 150q-78 78 -189 239q-95 139 -164 285q-98 -94 -131 -151q-49 -81 -49 -195q0 -110 45 -196q59 -114 172 -114q168 0 316 132z" />
  </g>

</svg>
