<?xml version="1.0" standalone="no"?>
<!DOCTYPE svg PUBLIC "-//W3C//DTD SVG 1.1//EN" "http://www.w3.org/Graphics/SVG/1.1/DTD/svg11.dtd" >
<svg viewBox="0 -442 2048 2048">
  <g transform="matrix(1 0 0 -1 0 1606)">
   <path fill="currentColor"
d="M944 356q0 -172 -137 -290q-131 -111 -306 -111q-158 0 -282 82q-140 93 -140 244q0 53 32 87t85 34q50 0 83.5 -33.5t33.5 -83.5q0 -51 -34.5 -83t-84.5 -32q-10 0 -20 1q46 -77 139 -120q85 -39 181 -39q125 0 187 116q48 91 48 228q0 145 -51 234q-63 113 -197 113
h-108q-33 0 -33 23q0 22 48 28q33 1 65 3q124 8 185 108q58 94 58 238q0 102 -48 165q-53 70 -152 70q-194 0 -278 -130q129 2 129 -105q0 -46 -29.5 -76t-75.5 -30q-48 0 -77.5 29.5t-29.5 77.5q0 132 123 213q108 71 247 71q142 0 254 -71q130 -82 130 -216
q0 -126 -87 -229q-81 -97 -206 -138q145 -29 243 -129q105 -107 105 -249z" />
  </g>

</svg>
