<?xml version="1.0" standalone="no"?>
<!DOCTYPE svg PUBLIC "-//W3C//DTD SVG 1.1//EN" "http://www.w3.org/Graphics/SVG/1.1/DTD/svg11.dtd" >
<svg viewBox="0 -442 2048 2048">
  <g transform="matrix(1 0 0 -1 0 1606)">
   <path fill="currentColor"
d="M937 420q0 -190 -132.5 -327.5t-321.5 -137.5q-155 0 -266 113t-111 268q0 111 101 111q44 0 74.5 -29t30.5 -73t-30.5 -73.5t-74.5 -29.5q-18 0 -34 5q29 -101 115.5 -168t190.5 -67q145 0 224 136q49 85 49 286q0 178 -37 262q-59 134 -178 134q-89 0 -160 -43
q-45 -27 -90 -80q-38 -43 -46 -43q-29 0 -29 41v648q0 34 20 34q9 0 26 -6q166 -60 278 -60q135 0 282 62q12 5 18 5q20 0 20 -23q0 -16 -36 -56q-144 -161 -366 -161q-86 0 -176 27v-405q109 106 264 106q174 0 289 -144q106 -133 106 -312z" />
  </g>

</svg>
