<?xml version="1.0" standalone="no"?>
<!DOCTYPE svg PUBLIC "-//W3C//DTD SVG 1.1//EN" "http://www.w3.org/Graphics/SVG/1.1/DTD/svg11.dtd" >
<svg viewBox="0 -442 2048 2048">
  <g transform="matrix(1 0 0 -1 0 1606)">
   <path fill="currentColor"
d="M954 425q0 -190 -118 -327q-124 -143 -311 -143q-242 0 -353 247q-83 183 -83 458q0 205 75 375q85 191 245 287q111 66 229 66q112 0 184 -54q81 -61 81 -169q0 -44 -26.5 -73t-69.5 -29q-41 0 -68.5 28t-27.5 69q0 98 114 93q-57 85 -183 85q-81 0 -155 -47
q-210 -133 -210 -607q84 206 260 206q183 0 303 -143q114 -135 114 -322zM767 371v104q0 160 -38 238q-63 129 -193 129t-199 -127q-57 -103 -57 -244q0 -206 38 -302q26 -67 80 -110q59 -47 127 -47q140 0 206 136q36 74 36 223z" />
  </g>

</svg>
