<?xml version="1.0" standalone="no"?>
<!DOCTYPE svg PUBLIC "-//W3C//DTD SVG 1.1//EN" "http://www.w3.org/Graphics/SVG/1.1/DTD/svg11.dtd" >
<svg viewBox="0 -442 2048 2048">
  <g transform="matrix(1 0 0 -1 0 1606)">
   <path fill="currentColor"
d="M944 349q0 -170 -134 -285q-127 -109 -300 -109q-168 0 -293 94q-138 104 -138 266q0 235 301 384q-55 32 -154 112q-91 99 -91 230q0 149 116 250q111 97 262 97q146 0 255 -81q121 -89 121 -229q0 -194 -253 -323q93 -56 109 -67q60 -40 97 -81q102 -113 102 -258z
M797 1078q0 112 -89 188q-84 72 -198 72q-105 0 -189 -54q-95 -62 -95 -162q0 -91 106 -168q30 -22 257 -168q208 120 208 292zM841 276q0 76 -47 135q-33 41 -110 93.5t-257 161.5q-244 -134 -244 -351q0 -130 101 -219q97 -84 229 -84q123 0 220 69q108 77 108 195z" />
  </g>

</svg>
