<?xml version="1.0" standalone="no"?>
<!DOCTYPE svg PUBLIC "-//W3C//DTD SVG 1.1//EN" "http://www.w3.org/Graphics/SVG/1.1/DTD/svg11.dtd" >
<svg viewBox="0 -442 2048 2048">
  <g transform="matrix(1 0 0 -1 0 1606)">
   <path fill="currentColor"
d="M954 687q0 -174 -45 -313q-56 -173 -175 -288q-135 -131 -303 -131q-120 0 -198 51q-92 59 -92 173q0 100 95 100q41 0 69 -27.5t28 -68.5q0 -44 -32.5 -72t-76.5 -23q64 -76 205 -76q77 0 148 47q120 79 163 274q27 120 27 330q-82 -209 -261 -209q-183 0 -303 143
q-114 136 -114 322q0 202 133 339q126 130 307 130q102 0 187 -53q238 -148 238 -648zM763 878q0 202 -34 293q-62 167 -200 167t-209 -132q-43 -80 -43 -247v-86q0 -161 37 -238q64 -132 195 -132q130 0 199 129q55 103 55 246z" />
  </g>

</svg>
