<?xml version="1.0" standalone="no"?>
<!DOCTYPE svg PUBLIC "-//W3C//DTD SVG 1.1//EN" "http://www.w3.org/Graphics/SVG/1.1/DTD/svg11.dtd" >
<svg viewBox="0 -442 2048 2048">
  <g transform="matrix(1 0 0 -1 0 1606)">
   <path fill="currentColor"
d="M822 1167q0 -127 -98 -200q-270 -200 -270 -457v-72q0 -55 -27 -55q-25 0 -25 49v92q0 267 181 461q69 74 69 195q0 95 -28 139q-49 80 -195 80q-187 0 -268 -139q114 0 114 -93q0 -94 -94 -94t-94 98q0 107 91 186q100 87 257 87q207 0 308 -94q79 -73 79 -183zM536 109
q0 -45 -32 -77t-77 -32t-77 32t-32 77q0 44 32 76t77 32t77 -32t32 -76z" />
  </g>

</svg>
