<?xml version="1.0" standalone="no"?>
<!DOCTYPE svg PUBLIC "-//W3C//DTD SVG 1.1//EN" "http://www.w3.org/Graphics/SVG/1.1/DTD/svg11.dtd" >
<svg viewBox="0 -442 2048 2048">
  <g transform="matrix(1 0 0 -1 0 1606)">
   <path fill="currentColor"
d="M1391 652q0 -405 -196 -405q-70 0 -123 35q-58 38 -71 102q-98 -137 -254 -137q-163 0 -275 131q-107 126 -107 292q0 165 107 290q112 131 275 131q124 0 226 -107q12 -15 38 -41q18 -16 76 -16q33 0 40 -6.5t7 -38.5v-466q0 -127 67 -127q141 0 141 322q0 483 -356 651
q-117 55 -238 55q-253 0 -426 -199q-166 -191 -166 -448q0 -263 168 -452q175 -196 434 -196q185 0 378 66q47 20 95 40q61 23 98 23q60 0 60 -20q0 -21 -126 -63q-92 -31 -156 -46q-183 -44 -347 -44q-279 0 -468 208q-184 202 -184 484q0 277 181 479q187 211 461 211
q139 0 267 -63q180 -89 280 -267q94 -169 94 -378zM1001 505v329q0 37 -26 76q-91 139 -223 139q-123 0 -195 -134q-60 -111 -60 -245t60 -246q73 -135 195 -135q82 0 165.5 68.5t83.5 147.5z" />
  </g>

</svg>
