<?xml version="1.0" standalone="no"?>
<!DOCTYPE svg PUBLIC "-//W3C//DTD SVG 1.1//EN" "http://www.w3.org/Graphics/SVG/1.1/DTD/svg11.dtd" >
<svg viewBox="0 -442 2048 2048">
  <g transform="matrix(1 0 0 -1 0 1606)">
   <path fill="currentColor"
d="M1438 425q0 -157 -60 -280q-75 -157 -216 -157q-70 0 -124.5 52t-62.5 122q-34 -85 -111 -135.5t-169 -50.5q-128 0 -223 50q-119 62 -119 178q0 179 213 279q132 62 394 76v18q0 110 -57 188q-64 86 -170 86q-153 0 -231 -98q45 0 77.5 -26.5t32.5 -71.5q0 -42 -29 -70
t-71 -28q-98 0 -98 99q0 113 109 183q95 61 215 61q185 0 293 -119q50 -55 66 -117q11 -45 11 -135v-367q0 -40 19 -71q22 -37 59 -37q87 0 134 147q33 105 33 216q0 279 -153 452q-160 181 -436 181q-240 0 -423 -196q-179 -192 -179 -434q0 -289 181 -464t471 -175
q222 0 486 123q11 5 19 5q39 0 39 -42q0 -21 -22 -35q-97 -60 -252 -97q-144 -34 -270 -34q-323 0 -526 197q-206 200 -206 522q0 275 202 491q207 219 480 219q304 0 491 -203q183 -197 183 -502zM960 300v214q-171 -6 -291 -71q-152 -83 -152 -236q0 -78 57 -130.5
t135 -52.5q111 0 183 84q68 79 68 192z" />
  </g>

</svg>
