<?xml version="1.0" standalone="no"?>
<!DOCTYPE svg PUBLIC "-//W3C//DTD SVG 1.1//EN" "http://www.w3.org/Graphics/SVG/1.1/DTD/svg11.dtd" >
<svg viewBox="0 -442 2048 2048">
  <g transform="matrix(1 0 0 -1 0 1606)">
   <path fill="currentColor"
d="M1417 0q-127 6 -355 6q-113 0 -187 -6v61q162 -1 162 59q0 29 -47 159q-31 84 -62 169h-487l-56 -146q-39 -107 -39 -140q0 -51 52 -78q42 -23 97 -23v-61q-189 6 -228 6q-62 0 -199 -6v61q174 2 219 133l409 1177q14 40 46 40t46 -40l425 -1231q21 -61 84 -75
q25 -6 120 -4v-61zM906 510l-222 641l-220 -641h442z" />
  </g>

</svg>
