<?xml version="1.0" standalone="no"?>
<!DOCTYPE svg PUBLIC "-//W3C//DTD SVG 1.1//EN" "http://www.w3.org/Graphics/SVG/1.1/DTD/svg11.dtd" >
<svg viewBox="0 -442 2048 2048">
  <g transform="matrix(1 0 0 -1 0 1606)">
   <path fill="currentColor"
d="M1451 0q-127 6 -324 6q-112 0 -183 -6v61q117 -1 117 59q0 22 -31 68l-357 528l-229 -218v-359q0 -28 9 -45q18 -34 196 -33v-61q-71 6 -120 6h-347q-43 0 -114 -6v61q8 0 28 -1h27q125 0 141 40q6 15 6 44v1066q0 27 -7 41q-17 35 -195 33v62q70 -6 119 -6h342
q50 0 120 6v-62q-9 0 -28 1t-29 1q-126 0 -142 -40q-6 -15 -6 -44v-636l618 588q36 34 36 67q0 61 -91 63v62q69 -6 180 -6q186 0 239 6v-62q-160 -2 -281 -118l-356 -340l456 -670q42 -62 89 -81q36 -14 117 -14v-61z" />
  </g>

</svg>
