<?xml version="1.0" standalone="no"?>
<!DOCTYPE svg PUBLIC "-//W3C//DTD SVG 1.1//EN" "http://www.w3.org/Graphics/SVG/1.1/DTD/svg11.dtd" >
<svg viewBox="0 -442 2048 2048">
  <g transform="matrix(1 0 0 -1 0 1606)">
   <path fill="currentColor"
d="M1390 -19q0 -135 -52 -236q-65 -127 -187 -127q-126 0 -185 130q-34 73 -56 239q-95 -30 -186 -30q-281 0 -472 218q-184 210 -184 494q0 285 182 498q191 223 472 223q282 0 473 -223q182 -212 182 -498q0 -209 -105 -387q-109 -185 -294 -269q62 -192 188 -192
q138 0 180 166q9 35 21 35q23 0 23 -41zM1180 669q0 455 -262 613q-96 58 -196 58q-97 0 -192 -56q-267 -157 -267 -615q0 -213 69 -375q86 -199 259 -263q-28 45 -28 94q0 68 47.5 117t115.5 49q144 0 221 -208q233 172 233 586zM898 52q-36 196 -172 196
q-50 0 -84.5 -36.5t-34.5 -86.5q0 -51 33 -85t84 -34q92 0 174 46z" />
  </g>

</svg>
