<?xml version="1.0" standalone="no"?>
<!DOCTYPE svg PUBLIC "-//W3C//DTD SVG 1.1//EN" "http://www.w3.org/Graphics/SVG/1.1/DTD/svg11.dtd" >
<svg viewBox="0 -442 2048 2048">
  <g transform="matrix(1 0 0 -1 0 1606)">
   <path fill="currentColor"
d="M1440 173q0 -86 -49 -148q-53 -68 -137 -68q-160 0 -248 81q-82 75 -82 237q0 13 1 40v40q0 158 -76 230q-70 67 -183 67h-227v-511q0 -29 7 -46q15 -37 197 -34v-61q-74 6 -143 6h-289q-69 0 -143 -6v61q6 0 26 -1h27q125 0 142 35q7 15 7 46v1055q0 27 -6 45
q-15 44 -196 40v62h618q183 0 333 -84q180 -100 180 -267q0 -122 -115 -213q-94 -75 -229 -108q165 -57 224 -182q25 -52 40 -161l24 -170q31 -158 118 -158q101 0 131 175q5 31 24 31q24 0 24 -33zM997 992q0 196 -143 256q-84 35 -314 35q-51 0 -69 -7q-32 -14 -32 -57
v-523h219q339 0 339 296z" />
  </g>

</svg>
