<?xml version="1.0" standalone="no"?>
<!DOCTYPE svg PUBLIC "-//W3C//DTD SVG 1.1//EN" "http://www.w3.org/Graphics/SVG/1.1/DTD/svg11.dtd" >
<svg viewBox="0 -442 2048 2048">
  <g transform="matrix(1 0 0 -1 0 1606)">
   <path fill="currentColor"
d="M1468 1284q-164 -1 -214 -132l-440 -1158q-14 -37 -48 -37q-31 0 -47 43l-457 1209q-22 57 -81 71q-27 7 -113 4v62q214 -6 344 -6q115 0 188 6v-62q-162 1 -162 -56q0 -30 176 -485l212 -546l361 950q9 24 9 40q0 94 -143 97v62q154 -6 223 -6q99 0 192 6v-62z" />
  </g>

</svg>
