<?xml version="1.0" standalone="no"?>
<!DOCTYPE svg PUBLIC "-//W3C//DTD SVG 1.1//EN" "http://www.w3.org/Graphics/SVG/1.1/DTD/svg11.dtd" >
<svg viewBox="0 -442 2048 2048">
  <g transform="matrix(1 0 0 -1 0 1606)">
   <path fill="currentColor"
d="M2019 1284q-152 0 -195 -132l-378 -1156q-13 -39 -38 -39q-26 0 -38 37l-328 1003l-323 -1001q-13 -39 -41 -39q-25 0 -37 37l-395 1207q-6 19 -23 53q-25 33 -155 30v62q242 -6 333 -6q114 0 187 6v-62q-166 1 -166 -58q0 -15 4 -27l316 -968l275 845q-17 63 -35 127
q-16 48 -50 64q-38 17 -136 17v62q242 -6 333 -6q114 0 187 6v-62q-165 1 -165 -58q0 -15 5 -30l316 -965l296 910q10 31 10 39q0 53 -63 81q-48 22 -109 23v62q155 -6 234 -6q89 0 179 6v-62z" />
  </g>

</svg>
