<?xml version="1.0" standalone="no"?>
<!DOCTYPE svg PUBLIC "-//W3C//DTD SVG 1.1//EN" "http://www.w3.org/Graphics/SVG/1.1/DTD/svg11.dtd" >
<svg viewBox="0 -442 2048 2048">
  <g transform="matrix(1 0 0 -1 0 1606)">
   <path fill="currentColor"
d="M1018 190q0 -83 -46 -140q-49 -62 -130 -62q-69 0 -116 54q-44 49 -51 120q-35 -85 -111 -135.5t-169 -50.5q-128 0 -223 50q-119 62 -119 178q0 179 213 279q131 61 394 76v78q0 110 -57 188q-64 86 -170 86q-154 0 -231 -98q46 0 78 -26.5t32 -71.5q0 -42 -28.5 -70
t-71.5 -28q-98 0 -98 99q0 113 109 183q95 61 215 61q183 0 293 -119q50 -54 66 -117q11 -45 11 -135v-427q0 -40 19 -71q22 -37 59 -37q79 0 79 175q0 28 -2 80h55v-119zM660 300v214q-171 -6 -291 -71q-152 -82 -152 -236q0 -78 56.5 -130.5t135.5 -52.5q111 0 183 84
q68 79 68 192z" />
  </g>

</svg>
