<?xml version="1.0" standalone="no"?>
<!DOCTYPE svg PUBLIC "-//W3C//DTD SVG 1.1//EN" "http://www.w3.org/Graphics/SVG/1.1/DTD/svg11.dtd" >
<svg viewBox="0 -442 2048 2048">
  <g transform="matrix(1 0 0 -1 0 1606)">
   <path fill="currentColor"
d="M1030 865q0 -64 -62 -64t-62 61q0 44 34 59q-9 2 -20 2q-104 0 -193 -84q87 -81 87 -207q0 -134 -108 -226q-102 -88 -238 -88q-118 0 -212 67q-36 -43 -36 -100q0 -149 183 -149q19 0 56 1.5t56 1.5q242 0 345 -59q142 -81 142 -244q0 -140 -177 -217q-136 -59 -299 -59
q-159 0 -296 59q-177 76 -177 212q0 77 62 137q55 53 135 76q-94 62 -94 192q0 98 66 176q-101 85 -101 221q0 134 108 226q103 87 239 87q129 0 227 -77q103 101 227 101q45 0 76.5 -30t31.5 -75zM655 633q0 264 -187 264q-102 0 -153 -87q-34 -58 -34 -178
q0 -264 187 -264q101 0 152 86q35 59 35 179zM888 -169q0 183 -357 183h-191q-72 0 -124.5 -55.5t-52.5 -127.5q0 -109 134 -172q108 -51 231 -51q122 0 228 51q132 64 132 172z" />
  </g>

</svg>
