<?xml version="1.0" standalone="no"?>
<!DOCTYPE svg PUBLIC "-//W3C//DTD SVG 1.1//EN" "http://www.w3.org/Graphics/SVG/1.1/DTD/svg11.dtd" >
<svg viewBox="0 -442 2048 2048">
  <g transform="matrix(1 0 0 -1 0 1606)">
   <path fill="currentColor"
d="M1086 0q-88 6 -186 6q-62 0 -230 -6v66q76 -2 76 49q0 38 -255 385l-136 -116v-222q0 -51 11 -67q13 -21 61 -27q23 -3 95 -2v-66q-121 6 -236 6q-37 0 -233 -6v66q10 0 34 -1h34q99 0 99 97v1115q0 87 -45 108q-23 11 -122 10v67l307 23v-1027l302 261q47 41 47 84
q0 50 -61 52v68q116 -8 248 -8q64 0 141 8v-68q-133 -6 -270 -114q-174 -137 -174 -156q0 -2 14 -22l273 -383q48 -67 85 -89q44 -26 121 -25v-66z" />
  </g>

</svg>
