<?xml version="1.0" standalone="no"?>
<!DOCTYPE svg PUBLIC "-//W3C//DTD SVG 1.1//EN" "http://www.w3.org/Graphics/SVG/1.1/DTD/svg11.dtd" >
<svg viewBox="0 -442 2048 2048">
  <g transform="matrix(1 0 0 -1 0 1606)">
   <path fill="currentColor"
d="M1518 855q-131 -3 -179 -136l-252 -703q-14 -40 -42 -40t-42 40l-220 608l-216 -606q-15 -42 -42 -42q-28 0 -45 48l-270 757q-19 54 -62 68q-23 7 -95 6v68q143 -8 198 -8l233 8v-68q-125 1 -125 -56q0 -38 94 -292q60 -160 120 -319l183 518q-38 105 -54 121
q-29 28 -129 28v68q120 -8 189 -8q-1 0 224 8v-68q-128 1 -128 -56q0 -11 11 -42l213 -595l195 546q10 28 10 46q0 98 -125 101v68q151 -8 200 -8q68 0 156 8v-68z" />
  </g>

</svg>
