<?xml version="1.0" standalone="no"?>
<!DOCTYPE svg PUBLIC "-//W3C//DTD SVG 1.1//EN" "http://www.w3.org/Graphics/SVG/1.1/DTD/svg11.dtd" >
<svg viewBox="0 -442 2048 2048">
  <g transform="matrix(1 0 0 -1 0 1606)">
   <path fill="currentColor"
d="M827 -327q0 -23 -41 -23q-174 0 -285 78q-73 51 -93 116q-13 42 -13 149v313q0 117 -75 184q-69 61 -187 70q-33 2 -33 22q0 18 18 21t35 4q242 31 242 252v313q0 107 13 149q20 65 93 116q109 77 285 77q41 0 41 -22q0 -19 -18 -23q-154 -9 -237 -94q-42 -43 -54 -114
q-5 -34 -5 -129v-277q0 -89 -21 -132q-47 -96 -202 -141q155 -45 202 -141q21 -42 21 -131v-277q0 -95 5 -129q12 -71 54 -114q83 -85 237 -94q18 -4 18 -23z" />
  </g>

</svg>
