<?xml version="1.0" standalone="no"?>
<!DOCTYPE svg PUBLIC "-//W3C//DTD SVG 1.1//EN" "http://www.w3.org/Graphics/SVG/1.1/DTD/svg11.dtd" >
<svg viewBox="0 -442 2048 2048">
  <g transform="matrix(1 0 0 -1 0 1606)">
   <path fill="currentColor"
d="M883 582q0 -17 -18 -20t-35 -4q-242 -31 -242 -252v-313q0 -107 -13 -149q-20 -65 -93 -116q-111 -78 -285 -78q-41 0 -41 23q0 19 18 23q154 9 237 94q42 43 54 114q5 34 5 129v277q0 89 21 131q47 96 202 141q-155 45 -202 141q-21 43 -21 132v277q0 95 -5 129
q-12 71 -54 114q-83 85 -237 94q-18 4 -18 23q0 22 41 22q176 0 285 -77q73 -51 93 -116q13 -42 13 -149v-313q0 -117 75 -184q69 -61 187 -70q33 -2 33 -23z" />
  </g>

</svg>
