<?xml version="1.0" standalone="no"?>
<!DOCTYPE svg PUBLIC "-//W3C//DTD SVG 1.1//EN" "http://www.w3.org/Graphics/SVG/1.1/DTD/svg11.dtd" >
<svg viewBox="0 -442 2048 2048">
  <g transform="matrix(1 0 0 -1 0 1606)">
   <path fill="currentColor"
d="M868 454q0 -22 -27 -75q-100 -194 -310 -203v-284h-60v286q-179 16 -300 159q-118 139 -118 324q0 188 116 331q120 148 302 166v288h60v-286q118 -5 206 -58q106 -64 106 -172q0 -100 -97 -100q-42 0 -70.5 28t-28.5 70q0 94 100 99q-75 74 -216 78v-875q113 0 181 64
q40 37 78 118q30 64 49 64q29 0 29 -22zM471 238v862q-37 -9 -73 -29q-168 -94 -168 -405q0 -306 178 -402q31 -17 63 -26z" />
  </g>

</svg>
