<?xml version="1.0" standalone="no"?>
<!DOCTYPE svg PUBLIC "-//W3C//DTD SVG 1.1//EN" "http://www.w3.org/Graphics/SVG/1.1/DTD/svg11.dtd" >
<svg viewBox="0 -442 2048 2048">
  <g transform="matrix(1 0 0 -1 0 1606)">
   <path fill="currentColor"
d="M996 155l-58 -55l-143 143q-123 -103 -283 -103t-283 102l-145 -142l-56 55l144 145q-102 123 -102 282q0 160 102 283l-144 141l56 57l145 -141q123 102 283 102t283 -103l143 142l58 -57l-144 -141q102 -123 102 -283q0 -159 -102 -282zM872 582q0 149 -105.5 254.5
t-254.5 105.5t-254.5 -105.5t-105.5 -254.5t105.5 -254.5t254.5 -105.5t254.5 105.5t105.5 254.5z" />
  </g>

</svg>
