<?xml version="1.0" standalone="no"?>
<!DOCTYPE svg PUBLIC "-//W3C//DTD SVG 1.1//EN" "http://www.w3.org/Graphics/SVG/1.1/DTD/svg11.dtd" >
<svg viewBox="0 -442 2048 2048">
  <g transform="matrix(1 0 0 -1 0 1606)">
   <path fill="currentColor"
d="M1429 548q0 -276 -196 -472t-472 -196q-275 0 -470.5 196t-195.5 472t196 472.5t472 196.5q275 0 470.5 -197t195.5 -472zM1378 548q0 255 -181 436.5t-436 181.5q-254 0 -434.5 -182t-180.5 -436q0 -256 180.5 -437t436.5 -181q254 0 434.5 181.5t180.5 436.5zM1099 390
q0 -130 -98.5 -224t-229.5 -94q-183 0 -309 136q-124 133 -124 317q0 183 125.5 318t307.5 135q122 0 227 -102q64 102 82 102q19 0 19 -24v-315q0 -23 -24 -23q-20 0 -26 26q-7 37 -29 110q-73 178 -234 178q-159 0 -241 -129q-70 -109 -70 -276q0 -295 197 -380
q57 -25 115 -25q86 0 156.5 51.5t97.5 133.5q6 32 19 96q4 16 18 16q21 0 21 -27z" />
  </g>

</svg>
