<?xml version="1.0" standalone="no"?>
<!DOCTYPE svg PUBLIC "-//W3C//DTD SVG 1.1//EN" "http://www.w3.org/Graphics/SVG/1.1/DTD/svg11.dtd" >
<svg viewBox="0 -442 2048 2048">
  <g transform="matrix(1 0 0 -1 0 1606)">
   <path fill="currentColor"
d="M783 715q0 -62 -40 -103t-102 -41q-98 0 -129 97q-67 -105 -206 -105q-96 0 -170 34q-96 44 -96 128q0 125 165 194q99 41 289 51v43q0 73 -44 122.5t-116 49.5q-94 0 -150 -47q70 -13 70 -74q0 -34 -25.5 -54.5t-59.5 -20.5q-84 0 -84 76q0 83 89 132q74 40 164 40
q142 0 227 -82q60 -58 60 -174v-284q0 -62 49 -62q55 0 47 170h62v-90zM494 788v132q-116 -5 -198 -43q-113 -52 -113 -150q0 -50 43 -82q38 -30 90 -30q75 0 126.5 49t51.5 124z" />
  </g>

</svg>
