<?xml version="1.0" standalone="no"?>
<!DOCTYPE svg PUBLIC "-//W3C//DTD SVG 1.1//EN" "http://www.w3.org/Graphics/SVG/1.1/DTD/svg11.dtd" >
<svg viewBox="0 -442 2048 2048">
  <g transform="matrix(1 0 0 -1 0 1606)">
   <path fill="currentColor"
d="M1429 548q0 -276 -196 -472t-472 -196q-275 0 -470.5 196t-195.5 472t196 472.5t472 196.5q275 0 470.5 -197t195.5 -472zM1378 548q0 255 -181 436.5t-436 181.5q-254 0 -434.5 -182t-180.5 -436q0 -256 180.5 -437t436.5 -181q254 0 434.5 181.5t180.5 436.5zM1218 231
q0 -56 -32 -97q-34 -44 -89 -44q-211 0 -211 205v26q1 17 1 25q0 180 -158 180h-137v-316q0 -17 4 -26q9 -21 124 -19v-47q-48 4 -88 4h-195q-40 0 -88 -4v47h20q12 -1 19 -1q75 0 85 20q4 8 4 26v664q0 16 -4 27q-9 24 -124 21v48h393q116 0 212 -55q114 -65 114 -172
q0 -144 -205 -202q116 -45 143 -147l34 -204q18 -63 62 -63q58 0 77 106q4 24 19 24q20 0 20 -26zM931 743q0 112 -75 152q-53 28 -172 28h-53q-39 0 -39 -35v-325h133q206 0 206 180z" />
  </g>

</svg>
