<?xml version="1.0" standalone="no"?>
<!DOCTYPE svg PUBLIC "-//W3C//DTD SVG 1.1//EN" "http://www.w3.org/Graphics/SVG/1.1/DTD/svg11.dtd" >
<svg viewBox="0 -442 2048 2048">
  <g transform="matrix(1 0 0 -1 0 1606)">
   <path fill="currentColor"
d="M735 826q0 -124 -112 -205q-101 -72 -230 -72q-117 0 -212 54q-114 64 -114 173q0 90 97 90q40 0 69 -24t29 -63q0 -82 -93 -87q74 -85 219 -85q86 0 130 70q36 58 36 149q0 220 -176 220q-87 0 -69 -1q-47 3 -47 27t94 30q88 5 130.5 67t42.5 153q0 146 -140 146
q-122 0 -187 -67q86 -7 86 -79q0 -80 -89 -80q-90 0 -90 81q0 96 100 152q83 47 187 47q106 0 193 -47q105 -57 105 -154q0 -81 -59 -149q-52 -61 -134 -93q97 -26 161 -89q73 -71 73 -164z" />
  </g>

</svg>
