<?xml version="1.0" standalone="no"?>
<!DOCTYPE svg PUBLIC "-//W3C//DTD SVG 1.1//EN" "http://www.w3.org/Graphics/SVG/1.1/DTD/svg11.dtd" >
<svg viewBox="0 -442 2048 2048">
  <g transform="matrix(1 0 0 -1 0 1606)">
   <path fill="currentColor"
d="M1093 421q0 -15 -14 -25q-30 -15 -87 -45q-188 -104 -266 -268l-26 -64q-20 -41 -46 -41q-41 0 -41 27q0 5 1 10q117 279 346 406q-227 125 -346 406q-1 4 -1 10q0 27 39 27q28 0 48 -41q13 -32 26 -65q78 -165 265 -266q30 -14 88 -46q14 -10 14 -25zM670 421
q0 -15 -15 -25l-87 -45q-188 -104 -266 -268l-26 -64q-20 -41 -46 -41q-41 0 -41 27q0 5 2 10q116 279 345 406q-227 125 -345 406q-2 4 -2 10q0 27 39 27q29 0 48 -41q13 -32 26 -65q78 -165 265 -266q31 -14 88 -46q15 -10 15 -25z" />
  </g>

</svg>
