<?xml version="1.0" standalone="no"?>
<!DOCTYPE svg PUBLIC "-//W3C//DTD SVG 1.1//EN" "http://www.w3.org/Graphics/SVG/1.1/DTD/svg11.dtd" >
<svg viewBox="0 -442 2048 2048">
  <g transform="matrix(1 0 0 -1 0 1606)">
   <path fill="currentColor"
d="M1644 -68l-46 -261h-599v22q0 26 21 47l300 296q160 158 160 299q0 89 -49 149q-55 67 -150 67q-136 0 -195 -119q98 -2 98 -83q0 -35 -26.5 -59t-64.5 -24q-94 0 -94 87q0 109 92 186q89 75 211 75q142 0 238 -74q102 -79 102 -205q0 -82 -61 -159q-32 -40 -124 -120
l-300 -259h285q97 0 110 9.5t33 125.5h59zM668 579q-67 5 -112 5h-302q-45 0 -112 -5v64q16 0 37 -1t30 -1q109 0 123 24q5 9 5 30v708q-80 -31 -204 -31v62q193 0 290 89h12q38 0 38 -45v-786q0 -18 5 -28q11 -22 190 -21v-64zM1419 1415q0 -13 -6 -22l-1071 -1667
q-11 -17 -35 -17q-40 0 -40 40q0 13 6 22l1071 1667q11 17 35 17q40 0 40 -40z" />
  </g>

</svg>
