<?xml version="1.0" standalone="no"?>
<!DOCTYPE svg PUBLIC "-//W3C//DTD SVG 1.1//EN" "http://www.w3.org/Graphics/SVG/1.1/DTD/svg11.dtd" >
<svg viewBox="0 -442 2048 2048">
  <g transform="matrix(1 0 0 -1 0 1606)">
   <path fill="currentColor"
d="M1499 1415q0 -13 -6 -22l-1071 -1667q-11 -17 -35 -17q-40 0 -40 40q0 13 6 22l1071 1667q11 17 35 17q40 0 40 -40zM1677 -100h-156v-120q0 -18 5 -27q11 -20 147 -19v-64q-78 5 -117 5h-213q-36 0 -114 -5v64l58 -1q76 0 88 20q6 10 6 27v120h-416v56l481 653
q15 21 40 21q35 0 35 -47v-620h156v-63zM735 827q0 -120 -107 -201q-100 -76 -235 -76q-121 0 -216 56q-110 65 -110 171q0 90 97 90q42 0 70 -24.5t28 -62.5q0 -82 -93 -87q74 -85 219 -85q88 0 131 72q35 58 35 147q0 220 -176 220h-81q-35 0 -35 26q0 25 94 30
q87 5 130 67t43 153q0 146 -140 146q-123 0 -187 -67q86 -8 86 -79q0 -80 -89 -80q-90 0 -90 81q0 94 97 150q83 49 190 49q109 0 196 -49q102 -57 102 -152q0 -79 -57 -147q-52 -62 -136 -95q100 -27 164 -92q70 -70 70 -161zM1390 -37v476l-352 -476h352z" />
  </g>

</svg>
