<?xml version="1.0" standalone="no"?>
<!DOCTYPE svg PUBLIC "-//W3C//DTD SVG 1.1//EN" "http://www.w3.org/Graphics/SVG/1.1/DTD/svg11.dtd" >
<svg viewBox="0 -442 2048 2048">
  <g transform="matrix(1 0 0 -1 0 1606)">
   <path fill="currentColor"
d="M1321 100q0 -44 -43 -44q-15 0 -25 10l-458 458l-456 -456q-11 -11 -27 -11q-42 0 -42 42q0 16 11 27l457 456l-457 456q-11 11 -11 27q0 42 42 42q16 0 27 -11l456 -456l458 458q10 10 25 10q43 0 43 -44q0 -14 -10 -24l-458 -458l458 -458q10 -10 10 -24z" />
  </g>

</svg>
