<?xml version="1.0" standalone="no"?>
<!DOCTYPE svg PUBLIC "-//W3C//DTD SVG 1.1//EN" "http://www.w3.org/Graphics/SVG/1.1/DTD/svg11.dtd" >
<svg viewBox="0 -442 2048 2048">
  <g transform="matrix(1 0 0 -1 0 1606)">
   <path fill="currentColor"
d="M1443 256q0 -31 -33 -92q-103 -188 -301 -188q-218 0 -357 190q-45 -92 -151 -144q-95 -46 -207 -46q-129 0 -222 46q-119 58 -119 174q0 180 223 272q167 67 379 67v104q0 110 -56 188q-63 86 -170 86q-154 0 -232 -98q110 -1 110 -100q0 -43 -28 -70.5t-71 -27.5
q-99 0 -99 101q0 113 109 182q95 60 215 60q228 0 328 -165q138 165 323 165q174 0 271 -126q88 -114 88 -294q0 -34 -12 -41q-7 -4 -42 -4h-585q0 -332 188 -432q64 -33 126 -33q92 0 166 60q69 56 98 147q15 45 33 45q28 0 28 -26zM1301 540q-16 373 -219 373
q-45 0 -95 -23q-163 -79 -181 -350h495zM681 283q0 19 -6 47q-20 96 -20 161q-168 -6 -285 -67q-151 -79 -151 -228q0 -74 55 -123t131 -49q110 0 193 75.5t83 183.5z" />
  </g>

</svg>
