<?xml version="1.0" standalone="no"?>
<!DOCTYPE svg PUBLIC "-//W3C//DTD SVG 1.1//EN" "http://www.w3.org/Graphics/SVG/1.1/DTD/svg11.dtd" >
<svg viewBox="0 -442 2048 2048">
  <g transform="matrix(1 0 0 -1 0 1606)">
   <path fill="currentColor"
d="M868 254q0 -22 -27 -75q-90 -175 -273 -199v-68q70 -11 121 -45q63 -43 63 -106q0 -161 -376 -161h-88v43q327 0 327 118q0 56 -45 89q-39 29 -98 30v98q-180 16 -301 159q-118 139 -118 324q0 201 130 347q134 152 332 152q121 0 215 -54q113 -64 113 -176
q0 -100 -97 -100q-42 0 -70.5 28t-28.5 70q0 94 100 99q-79 78 -229 78q-60 0 -120 -34q-168 -94 -168 -405q0 -306 178 -402q63 -34 123 -34q113 0 181 64q40 37 78 118q30 64 49 64q29 0 29 -22z" />
  </g>

</svg>
