<?xml version="1.0" standalone="no"?>
<!DOCTYPE svg PUBLIC "-//W3C//DTD SVG 1.1//EN" "http://www.w3.org/Graphics/SVG/1.1/DTD/svg11.dtd" >
<svg viewBox="0 -442 2048 2048">
  <g transform="matrix(1 0 0 -1 0 1606)">
   <path fill="currentColor"
d="M963 434q0 -190 -133.5 -323.5t-319.5 -133.5t-319.5 133.5t-133.5 323.5q0 199 133.5 340t319.5 141q157 0 258 -176q-59 258 -254 441l-233 -134q-19 -11 -30 8l-9 14q-11 20 9 31l214 124q-149 119 -324 168l39 30q201 -24 383 -141l240 138q20 11 31 -8l8 -14
q12 -20 -8 -31l-216 -124q345 -267 345 -713v-94zM793 434q1 191 -78.5 313.5t-204.5 122.5q-139 0 -219 -116q-64 -93 -64 -295q0 -214 64 -312q77 -118 219 -118q140 0 219 118q62 93 64 287z" />
  </g>

</svg>
