<?xml version="1.0" standalone="no"?>
<!DOCTYPE svg PUBLIC "-//W3C//DTD SVG 1.1//EN" "http://www.w3.org/Graphics/SVG/1.1/DTD/svg11.dtd" >
<svg viewBox="0 -442 2048 2048">
  <g transform="matrix(1 0 0 -1 0 1606)">
   <path fill="currentColor"
d="M909 1030q0 -47 -33.5 -80t-80.5 -33t-80.5 33t-33.5 80q0 46 34 79.5t80 33.5t80 -33.5t34 -79.5zM1421 582q0 -41 -37 -41h-1175q-39 0 -39 41t39 41h1175q37 0 37 -41zM909 134q0 -46 -34 -79.5t-80 -33.5t-80 33.5t-34 79.5q0 47 33.5 80t80.5 33t80.5 -33t33.5 -80z
" />
  </g>

</svg>
