<?xml version="1.0" standalone="no"?>
<!DOCTYPE svg PUBLIC "-//W3C//DTD SVG 1.1//EN" "http://www.w3.org/Graphics/SVG/1.1/DTD/svg11.dtd" >
<svg viewBox="0 -442 2048 2048">
  <g transform="matrix(1 0 0 -1 0 1606)">
   <path fill="currentColor"
d="M1002 458q0 -199 -139 -340.5t-337 -141.5q-118 0 -221 56l-142 -246l-41 26l142 245q-211 145 -211 401q0 201 136 350q140 152 339 152q119 0 223 -60l142 246l41 -26l-143 -247q97 -70 154 -181t57 -234zM823 476q0 227 -74 324l-404 -699q79 -71 183 -71
q167 0 248 158q47 92 47 288zM715 837q-81 74 -189 74q-164 0 -245 -143q-51 -90 -51 -292q0 -238 80 -339z" />
  </g>

</svg>
