<?xml version="1.0" standalone="no"?>
<!DOCTYPE svg PUBLIC "-//W3C//DTD SVG 1.1//EN" "http://www.w3.org/Graphics/SVG/1.1/DTD/svg11.dtd" >
<svg viewBox="0 -442 2048 2048">
  <g transform="matrix(1 0 0 -1 0 1606)">
   <path fill="currentColor"
d="M1598 256q0 -27 -23 -78q-44 -92 -126 -147t-182 -55q-116 0 -217.5 61t-162.5 162q-60 -101 -159 -161q-102 -62 -218 -62q-195 0 -328 150q-129 145 -129 343q0 197 129 341q134 150 328 150q239 0 375 -216q129 216 356 216q175 0 271 -126q86 -114 86 -294
q0 -34 -11 -41q-7 -4 -41 -4h-585q0 -329 186 -431q64 -34 129 -34q92 0 165 60q69 56 98 147q14 45 32 45q27 0 27 -26zM1458 540q-17 373 -219 373q-44 0 -94 -23q-164 -79 -182 -350h495zM813 478q0 306 -179 402q-62 33 -122 33q-155 0 -233 -147q-61 -117 -61 -288
q0 -331 181 -426q55 -28 113 -28q64 0 125 35q176 103 176 419z" />
  </g>

</svg>
