<?xml version="1.0" standalone="no"?>
<!DOCTYPE svg PUBLIC "-//W3C//DTD SVG 1.1//EN" "http://www.w3.org/Graphics/SVG/1.1/DTD/svg11.dtd" >
<svg viewBox="0 -442 2048 2048">
  <g transform="matrix(1 0 0 -1 0 1606)">
   <path fill="currentColor"
d="M1079 1284q-9 -101 -102 -101q-39 0 -65 25.5t-23 64.5q3 36 29 63.5t62 32.5q-41 31 -94 31q-19 0 -34 -4q-35 -11 -68 -63q-9 -16 -65 -311l-26 -138h208q26 0 22 -27l-7 -16q-4 -25 -29 -25h-208l-93 -503q-81 -436 -166 -577q-95 -158 -208 -158q-71 0 -122 37
q-58 41 -58 109q0 50 30 84.5t79 34.5q75 0 75 -71q0 -44 -29.5 -76t-72.5 -34q37 -37 107 -37q67 0 109 121q26 75 117 559l95 511h-173q-26 0 -20 26l5 17q6 25 31 25h171l24 128q23 121 40 180q32 107 78 160q85 94 185 94q48 0 94 -20q110 -48 102 -142z" />
  </g>

</svg>
