<?xml version="1.0" standalone="no"?>
<!DOCTYPE svg PUBLIC "-//W3C//DTD SVG 1.1//EN" "http://www.w3.org/Graphics/SVG/1.1/DTD/svg11.dtd" >
<svg viewBox="0 -442 2048 2048">
  <g transform="matrix(1 0 0 -1 0 1606)">
   <path fill="currentColor"
d="M1102 -7q0 -18 -45 -18q-81 0 -107 19.5t-54 92.5q-62 162 -194 554q-135 -160 -403 -483q-49 -68 -141 -167q-26 -18 -46 -18q-61 0 -61 57q0 29 43 72l567 573q7 7 20 21q-51 151 -130 369h-267q-37 0 -37 42t37 42h237l-51 140q-23 65 -34 87q-26 57 -53 70
q-22 6 -43 13q-31 10 -31 25q0 24 39 24q212 0 266 -155l70 -204h276q38 0 38 -42t-38 -42h-247l333 -963q20 -57 44 -90q12 -16 12 -19z" />
  </g>

</svg>
