<?xml version="1.0" standalone="no"?>
<!DOCTYPE svg PUBLIC "-//W3C//DTD SVG 1.1//EN" "http://www.w3.org/Graphics/SVG/1.1/DTD/svg11.dtd" >
<svg viewBox="0 -442 2048 2048">
  <g transform="matrix(1 0 0 -1 0 1606)">
   <path fill="currentColor"
d="M1687 461q0 -199 -139 -342t-337 -143q-179 0 -281 157q-24 -46 -77 -133h-60v118q-111 -142 -287 -142q-192 0 -324 147q-129 142 -129 336q0 198 139.5 342.5t336.5 144.5q163 0 270 -133v464q0 88 -47 109q-25 12 -120 9v67l308 23v-678q121 139 295 139
q191 0 324 -148q128 -143 128 -337zM1509 464q0 199 -60 297q-85 138 -225 138q-91 0 -179 -61q-98 -67 -98 -153v-442q0 -45 30 -89q89 -130 225 -130q154 0 243 138q64 99 64 302zM793 253v449q0 32 -24 68q-87 129 -231 129q-154 0 -243 -138q-65 -100 -65 -303
q0 -197 61 -296q85 -138 224 -138q93 0 182 67q96 72 96 162z" />
  </g>

</svg>
