<?xml version="1.0" standalone="no"?>
<!DOCTYPE svg PUBLIC "-//W3C//DTD SVG 1.1//EN" "http://www.w3.org/Graphics/SVG/1.1/DTD/svg11.dtd" >
<svg viewBox="0 -442 2048 2048">
  <g transform="matrix(1 0 0 -1 0 1606)">
   <path fill="currentColor"
d="M1680 461q0 -199 -139 -342t-337 -143q-78 0 -154 40q-85 44 -110 111v-380q0 -46 12 -67q20 -35 154 -28v-66q-166 5 -240 5q-80 0 -242 -5v66q37 -2 48 -2q69 0 91 14q30 19 30 83v383q-115 -154 -284 -154q-192 0 -326 147q-130 142 -130 336q0 197 138 342t334 145
q92 0 171 -55q76 -53 116 -139l81 194h47v-133q124 133 293 133q189 0 321 -149q126 -144 126 -336zM1502 461q0 151 -67 278q-81 154 -218 154q-179 0 -277 -172v-478q0 -46 30 -89q91 -130 225 -130q145 0 233 152q74 128 74 285zM799 291v301q0 112 -73 203
q-79 98 -188 98q-96 0 -175 -77q-69 -67 -103 -167q-30 -87 -30 -190q0 -152 66 -280q81 -155 219 -155q104 0 194 82t90 185z" />
  </g>

</svg>
