<?xml version="1.0" standalone="no"?>
<!DOCTYPE svg PUBLIC "-//W3C//DTD SVG 1.1//EN" "http://www.w3.org/Graphics/SVG/1.1/DTD/svg11.dtd" >
<svg viewBox="0 -442 2048 2048">
  <g transform="matrix(1 0 0 -1 0 1606)">
   <path fill="currentColor"
d="M868 254q0 -22 -27 -75q-104 -203 -329 -203q-91 0 -174 36l-83 -229l-44 18l85 232q-111 63 -177 178.5t-66 249.5q0 201 130 347q134 152 332 152q56 0 113 -14l74 203l44 -18l-72 -199q169 -62 169 -202q0 -100 -97 -100q-42 0 -70.5 28t-28.5 70q0 94 100 99
q-37 36 -91 56l-289 -792q76 -61 164 -61q113 0 181 64q40 37 78 118q30 64 49 64q29 0 29 -22zM610 896q-43 9 -92 9q-60 0 -120 -34q-168 -94 -168 -405q0 -223 100 -339z" />
  </g>

</svg>
