<?xml version="1.0" standalone="no"?>
<!DOCTYPE svg PUBLIC "-//W3C//DTD SVG 1.1//EN" "http://www.w3.org/Graphics/SVG/1.1/DTD/svg11.dtd" >
<svg viewBox="0 -442 2048 2048">
  <g transform="matrix(1 0 0 -1 0 1606)">
   <path fill="currentColor"
d="M914 -60q0 -69 -64 -116q-58 -43 -129 -43q-91 0 -191 79q-21 16 -156 147q-82 79 -127 79q-30 0 -66.5 -43t-61.5 -43h-28q-38 0 -38 30q0 15 18 39l599 807h-245q-154 0 -207 -51q-49 -48 -72 -207h-53l44 305h671q38 0 38 -28q0 -14 -18 -38q-473 -639 -473 -641
q0 -5 25 -16q34 -14 71 -42q127 -94 171 -210q46 -121 99 -121q46 0 70 25q-64 22 -64 91q0 39 26.5 65t65.5 26q41 0 68 -26.5t27 -67.5z" />
  </g>

</svg>
