<?xml version="1.0" standalone="no"?>
<!DOCTYPE svg PUBLIC "-//W3C//DTD SVG 1.1//EN" "http://www.w3.org/Graphics/SVG/1.1/DTD/svg11.dtd" >
<svg viewBox="0 -442 2048 2048">
  <g transform="matrix(1 0 0 -1 0 1606)">
   <path fill="currentColor"
d="M1018 732q0 -179 -213 -279q-131 -61 -394 -76v-78q0 -110 57 -188q64 -86 170 -86q154 0 231 98q-46 0 -78 26.5t-32 71.5q0 42 28.5 70t71.5 28q98 0 98 -99q0 -113 -109 -183q-95 -61 -215 -61q-183 0 -293 119q-50 54 -66 117q-11 45 -11 135v427q0 40 -19 71
q-22 37 -59 37q-79 0 -79 -175q0 -28 2 -80h-55v119q0 83 46 140q49 62 130 62q69 0 116 -54q44 -49 51 -120q35 85 111 135.5t169 50.5q128 0 223 -50q119 -62 119 -178zM854 729q0 78 -56.5 130.5t-135.5 52.5q-111 0 -183 -84q-68 -79 -68 -192v-214q171 6 291 71
q152 82 152 236z" />
  </g>

</svg>
