<?xml version="1.0" standalone="no"?>
<!DOCTYPE svg PUBLIC "-//W3C//DTD SVG 1.1//EN" "http://www.w3.org/Graphics/SVG/1.1/DTD/svg11.dtd" >
<svg viewBox="0 -442 2048 2048">
  <g transform="matrix(1 0 0 -1 0 1606)">
   <path fill="currentColor"
d="M1106 0l-313 -24v142q-111 -142 -287 -142q-192 0 -324 147q-129 142 -129 336q0 198 139.5 342.5t336.5 144.5q90 0 167 -43q81 -45 116 -121l81 164h47v-761q0 -88 46 -110q25 -12 120 -9v-66zM793 253v449q0 32 -24 68q-87 129 -231 129q-154 0 -243 -138
q-65 -100 -65 -303q0 -197 61 -296q85 -138 224 -138q93 0 182 67q96 72 96 162z" />
  </g>

</svg>
