<?xml version="1.0" standalone="no"?>
<!DOCTYPE svg PUBLIC "-//W3C//DTD SVG 1.1//EN" "http://www.w3.org/Graphics/SVG/1.1/DTD/svg11.dtd" >
<svg viewBox="0 -442 2048 2048">
  <g transform="matrix(1 0 0 -1 0 1606)">
   <path fill="currentColor"
d="M869 275q0 -123 -119 -214q-111 -85 -238 -85q-45 0 -86 8q-74 -114 -132 -234l-50 25q52 106 126 225q-143 49 -231 180q-86 128 -86 281q0 201 129 347q135 152 333 152q121 0 215 -54q113 -64 113 -176q0 -100 -97 -100q-42 0 -70.5 28t-28.5 70q0 94 100 99
q-79 78 -229 78q-60 0 -120 -34q-168 -95 -168 -405q0 -315 182 -404q219 319 340 319q117 0 117 -106zM815 275q0 52 -63 52q-89 0 -288 -287q33 -10 67 -10q103 0 191 70q93 75 93 175z" />
  </g>

</svg>
