<?xml version="1.0" standalone="no"?>
<!DOCTYPE svg PUBLIC "-//W3C//DTD SVG 1.1//EN" "http://www.w3.org/Graphics/SVG/1.1/DTD/svg11.dtd" >
<svg viewBox="0 -442 2048 2048">
  <g transform="matrix(1 0 0 -1 0 1606)">
   <path fill="currentColor"
d="M1351 798q0 -63 -49 -108.5t-113 -45.5q-167 0 -167 251q0 28 3 82.5t3 82.5q0 29 -13 29t-49 -41l-218 -247q123 -145 123 -340q0 -196 -131 -338q-134 -147 -328 -147q-175 0 -280 127q-28 34 -28 49q0 16 33 53l495 555q-80 146 -242 146q-113 0 -181 -64
q-40 -37 -78 -118q-30 -64 -49 -64q-29 0 -29 22q0 23 27 75q106 203 329 203q171 0 298 -116l245 274q58 65 88 65q43 0 43 -94q0 -35 -5 -103.5t-5 -103.5q0 -188 118 -188q34 0 64 20q-72 11 -72 84q0 35 24.5 59.5t59.5 24.5t59.5 -24.5t24.5 -59.5zM694 466
q0 135 -35 234l-490 -555q73 -115 224 -115q60 0 123 34q178 97 178 402z" />
  </g>

</svg>
