<?xml version="1.0" standalone="no"?>
<!DOCTYPE svg PUBLIC "-//W3C//DTD SVG 1.1//EN" "http://www.w3.org/Graphics/SVG/1.1/DTD/svg11.dtd" >
<svg viewBox="0 -442 2048 2048">
  <g transform="matrix(1 0 0 -1 0 1606)">
   <path fill="currentColor"
d="M1282 798q0 -63 -49 -108.5t-113 -45.5q-167 0 -167 251q0 28 3 82.5t3 82.5q0 29 -13 29t-49 -41l-165 -187q50 -53 50 -128q0 -91 -64 -156q-58 -59 -151 -81q105 -24 172 -81q81 -68 81 -167q0 -136 -138 -211q-112 -61 -260 -61q-216 0 -326 189q-34 58 -34 90
q0 25 28 25q16 0 27 -29q86 -221 290 -221q255 0 255 228q0 205 -224 205q-21 0 -62.5 -11t-62.5 -11q-87 0 -87 55q0 56 86 56q22 0 63 -11t63 -11q199 0 199 188q0 194 -202 194q-79 0 -126 -47q-9 -9 -61 -86q-31 -47 -70 -47q-33 0 -57.5 22.5t-24.5 55.5q0 82 123 122
q87 28 192 28q172 0 274 -63l198 221q58 65 88 65q43 0 43 -94q0 -35 -5 -103.5t-5 -103.5q0 -188 118 -188q34 0 64 20q-72 11 -72 84q0 35 24.5 59.5t59.5 24.5t59.5 -24.5t24.5 -59.5z" />
  </g>

</svg>
