<?xml version="1.0" standalone="no"?>
<!DOCTYPE svg PUBLIC "-//W3C//DTD SVG 1.1//EN" "http://www.w3.org/Graphics/SVG/1.1/DTD/svg11.dtd" >
<svg viewBox="0 -442 2048 2048">
  <g transform="matrix(1 0 0 -1 0 1606)">
   <path fill="currentColor"
d="M915 248q0 -135 -140 -211q-114 -61 -263 -61q-200 0 -332 150q-127 143 -127 345q0 200 125 341q131 148 328 148q141 0 239 -45q132 -59 132 -182q0 -91 -64 -156q-58 -59 -151 -81q105 -24 172 -81q81 -68 81 -167zM757 258q0 205 -224 205q-21 0 -62.5 -11t-62.5 -11
q-87 0 -87 55q0 56 86 56q22 0 63 -11t63 -11q199 0 199 188q0 93 -61 145q-58 49 -155 49q-174 0 -284 -135q-102 -126 -102 -302q0 -181 94 -306q103 -139 278 -139q255 0 255 228z" />
  </g>

</svg>
