<?xml version="1.0" standalone="no"?>
<!DOCTYPE svg PUBLIC "-//W3C//DTD SVG 1.1//EN" "http://www.w3.org/Graphics/SVG/1.1/DTD/svg11.dtd" >
<svg viewBox="0 -442 2048 2048">
  <g transform="matrix(1 0 0 -1 0 1606)">
   <path fill="currentColor"
d="M1322 1289q0 -94 -95 -94q-39 0 -65.5 26t-26.5 65q0 69 64 91q-33 15 -70 15q-96 0 -149 -101q-43 -81 -43 -187v-988q0 -558 -514 -558q-118 0 -195 50q-90 59 -90 171q0 98 94 98q41 0 68 -26.5t27 -67.5q0 -95 -107 -94q60 -74 201 -74q369 0 369 413v162
q-115 -154 -284 -154q-193 0 -324.5 130.5t-131.5 322.5q0 196 139 328q136 129 333 129q179 0 274 -169v322q0 141 96 240t237 99q72 0 129 -38q64 -43 64 -111zM796 351v241q0 112 -73 204q-79 97 -188 97q-146 0 -233 -134q-75 -116 -75 -270q0 -149 67 -266
q80 -139 218 -139q104 0 194 82t90 185z" />
  </g>

</svg>
