<?xml version="1.0" standalone="no"?>
<!DOCTYPE svg PUBLIC "-//W3C//DTD SVG 1.1//EN" "http://www.w3.org/Graphics/SVG/1.1/DTD/svg11.dtd" >
<svg viewBox="0 -442 2048 2048">
  <g transform="matrix(1 0 0 -1 0 1606)">
   <path fill="currentColor"
d="M1099 855q-119 -1 -198 -142l-248 -443q99 -180 122 -231q66 -144 66 -247q0 -109 -75 -173q-71 -61 -182 -61q-99 0 -166 48q-76 54 -76 150q0 92 71 228q22 43 126 210l-316 582q-31 57 -71 71q-26 10 -99 8v68q119 -8 207 -8q10 0 233 8v-68q-122 1 -122 -54
q0 -12 253 -477l218 389q13 23 13 50q0 91 -102 92v68q131 -8 185 -8q70 0 161 8v-68zM712 -241q0 78 -51 192q-10 23 -92 180q-151 -247 -151 -357q0 -73 47.5 -118t120.5 -45q59 0 94 45q32 42 32 103z" />
  </g>

</svg>
