<?xml version="1.0" standalone="no"?>
<!DOCTYPE svg PUBLIC "-//W3C//DTD SVG 1.1//EN" "http://www.w3.org/Graphics/SVG/1.1/DTD/svg11.dtd" >
<svg viewBox="0 -442 2048 2048">
  <g transform="matrix(1 0 0 -1 0 1606)">
   <path fill="currentColor"
d="M962 -107q0 -133 -78 -229q-84 -103 -214 -103q-90 0 -159 40q-83 48 -83 132q0 42 27.5 70t69.5 28t70.5 -28t28.5 -70q0 -76 -74 -96q58 -29 114 -29q158 0 158 281v743q0 267 -166 267q-130 0 -213 -109q-76 -100 -76 -234v-400q0 -39 10 -58q21 -39 155 -32v-66
q-200 6 -239 6q-34 0 -240 -6v66q30 -1 47 -1q68 0 90 14q29 19 29 83v937q0 141 95.5 240t236.5 99q72 0 129 -38q64 -43 64 -111q0 -94 -95 -94q-39 0 -65.5 26t-26.5 65q0 69 64 91q-33 15 -70 15q-96 0 -149 -101q-43 -81 -43 -187v-363h2q41 93 125 149t184 56
q292 0 292 -316v-737z" />
  </g>

</svg>
