<?xml version="1.0" standalone="no"?>
<!DOCTYPE svg PUBLIC "-//W3C//DTD SVG 1.1//EN" "http://www.w3.org/Graphics/SVG/1.1/DTD/svg11.dtd" >
<svg viewBox="0 -442 2048 2048">
  <g transform="matrix(1 0 0 -1 0 1606)">
   <path fill="currentColor"
d="M692 746q-76 -87 -96 -105q-64 -57 -124 -57q-25 0 -51 9v-431q0 -50 12 -67q15 -21 65 -27q22 -3 91 -2v-66q-220 6 -238 6q-37 0 -236 -6v66q11 0 33.5 -1t34.5 -1q98 0 98 98v505q-38 17 -69 17q-79 0 -165 -99l-35 30q76 87 96 105q64 57 124 57q25 0 49 -8v508
q0 87 -44 108q-23 11 -122 10v67l306 23v-790q37 -17 71 -17q79 0 165 99z" />
  </g>

</svg>
