<?xml version="1.0" standalone="no"?>
<!DOCTYPE svg PUBLIC "-//W3C//DTD SVG 1.1//EN" "http://www.w3.org/Graphics/SVG/1.1/DTD/svg11.dtd" >
<svg viewBox="0 -442 2048 2048">
  <g transform="matrix(1 0 0 -1 0 1606)">
   <path fill="currentColor"
d="M1723 0l-301 -23v225q-101 -225 -316 -225q-251 0 -284 210q-43 -95 -125 -152q-85 -58 -187 -58q-158 0 -228 85q-63 77 -63 239q0 14 1 42v41v409q0 73 -167 64v66q198 -6 238 -6t244 6v-66q-26 1 -43 1q-71 0 -92 -13q-32 -19 -32 -84v-499q0 -238 157 -238
q130 0 213 109q76 100 76 234v401q0 39 -12 60q-21 35 -155 29v66q198 -6 242 -6q35 0 240 6v-66q-26 1 -43 1q-71 0 -92 -13q-32 -19 -32 -84v-499q0 -238 158 -238q130 0 213 109q76 100 76 234v397q0 47 -11 64q-22 36 -154 29v66q198 -6 239 -6q35 0 240 6v-66
q-26 1 -43 1q-70 0 -92 -13q-31 -19 -31 -84v-574q0 -87 44 -109q25 -12 122 -10v-68z" />
  </g>

</svg>
