<?xml version="1.0" standalone="no"?>
<!DOCTYPE svg PUBLIC "-//W3C//DTD SVG 1.1//EN" "http://www.w3.org/Graphics/SVG/1.1/DTD/svg11.dtd" >
<svg viewBox="0 -442 2048 2048">
  <g transform="matrix(1 0 0 -1 0 1606)">
   <path fill="currentColor"
d="M1558 -107q0 -133 -78 -229q-84 -103 -214 -103q-90 0 -159 40q-83 48 -83 132q0 42 27.5 70t69.5 28t70.5 -28t28.5 -70q0 -76 -74 -96q58 -29 114 -29q158 0 158 281v743q0 267 -166 267q-130 0 -213 -109q-77 -101 -77 -234v-401q0 -39 12 -60q21 -35 155 -29v-66
q-198 6 -242 6q-35 0 -240 -6v66q26 -1 43 -1q71 0 92 13q32 19 32 84v499q0 238 -158 238q-130 0 -213 -109q-76 -100 -76 -234v-397q0 -47 11 -64q22 -36 154 -29v-66q-198 6 -239 6q-35 0 -240 -6v66q26 -1 43 -1q70 0 92 13q31 19 31 84v574q0 87 -44 109
q-25 12 -122 10v68l301 23v-225q101 225 316 225q251 0 284 -210q43 95 126.5 152.5t185.5 57.5q292 0 292 -316v-737z" />
  </g>

</svg>
