<?xml version="1.0" standalone="no"?>
<!DOCTYPE svg PUBLIC "-//W3C//DTD SVG 1.1//EN" "http://www.w3.org/Graphics/SVG/1.1/DTD/svg11.dtd" >
<svg viewBox="-149 -442 2048 2048">
  <g transform="matrix(1 0 0 -1 0 1606)">
   <path fill="currentColor"
d="M1155 0q-200 6 -242 6q-34 0 -240 -6v66q29 -1 48 -1q63 0 86 12q33 19 33 76v519q0 227 -158 227q-130 0 -217 -114q-80 -105 -80 -239v-653q0 -133 -78 -229q-84 -103 -214 -103q-90 0 -159 40q-83 48 -83 132q0 42 27.5 70t69.5 28t70.5 -28t28.5 -70q0 -76 -74 -96
q58 -29 114 -29q158 0 158 281v847q0 87 -44 109q-25 12 -122 10v68l301 23v-225q101 225 316 225q292 0 292 -316v-500q0 -72 167 -64v-66z" />
  </g>

</svg>
