<?xml version="1.0" standalone="no"?>
<!DOCTYPE svg PUBLIC "-//W3C//DTD SVG 1.1//EN" "http://www.w3.org/Graphics/SVG/1.1/DTD/svg11.dtd" >
<svg viewBox="0 -442 2048 2048">
  <g transform="matrix(1 0 0 -1 0 1606)">
   <path fill="currentColor"
d="M1356 -267q0 -84 -83 -132q-69 -40 -159 -40q-130 0 -214 103q-78 96 -78 229v739q0 267 -166 267q-130 0 -213 -109q-76 -100 -76 -234v-400q0 -38 10 -58q20 -39 155 -32v-66q-199 6 -239 6q-34 0 -240 -6v66q29 -1 47 -1q68 0 90 14q29 19 29 83v574q0 87 -44 109
q-25 12 -122 10v68l301 23v-225q101 225 316 225q292 0 292 -316v-741q0 -281 158 -281q56 0 114 29q-74 20 -74 96q0 42 28.5 70t70.5 28t69.5 -28t27.5 -70z" />
  </g>

</svg>
