<?xml version="1.0" standalone="no"?>
<!DOCTYPE svg PUBLIC "-//W3C//DTD SVG 1.1//EN" "http://www.w3.org/Graphics/SVG/1.1/DTD/svg11.dtd" >
<svg viewBox="0 -442 2048 2048">
  <g transform="matrix(1 0 0 -1 0 1606)">
   <path fill="currentColor"
d="M1439 359l-66 -359h-587q-39 0 -116.5 -15t-116.5 -15q-205 0 -353 142.5t-148 346.5q0 205 148 350.5t353 145.5q39 0 114.5 -16t114.5 -16h570l44 -315h-53q-19 150 -64 199q-53 58 -200 59l-182 1q-32 0 -40 -7q-11 -8 -11 -39v-312h153q99 0 132 29t32 126h53v-368
h-53q1 97 -32 126t-132 29h-153v-349q0 -29 8.5 -37t38.5 -8h183q170 0 231 71q45 53 78 231h54zM717 612q0 105 -8 165q-10 76 -41.5 104.5t-108.5 28.5q-157 0 -255 -142q-87 -126 -87 -289q0 -169 85 -306q98 -158 257 -158q79 0 110 30t41 108q6 49 6 191q0 45 1 134
v134z" />
  </g>

</svg>
