<?xml version="1.0" standalone="no"?>
<!DOCTYPE svg PUBLIC "-//W3C//DTD SVG 1.1//EN" "http://www.w3.org/Graphics/SVG/1.1/DTD/svg11.dtd" >
<svg viewBox="0 -442 2048 2048">
  <g transform="matrix(1 0 0 -1 0 1606)">
   <path fill="currentColor"
d="M1335 467q0 -179 -91 -322q-104 -165 -273 -165q-230 0 -258 270h-6q-29 -270 -258 -270q-169 0 -274 165q-91 143 -91 322q0 235 199 388q184 140 426 140q238 0 424 -142q202 -154 202 -386zM1147 471q0 200 -117 335q-122 142 -319 142q-198 0 -321 -144
q-118 -136 -118 -337q0 -428 199 -428q100 0 151 100q40 78 40 189q0 59 -24 173.5t-24 172.5q0 114 97 114q94 0 94 -114q0 -58 -22.5 -172.5t-22.5 -173.5q0 -112 38 -189q50 -100 150 -100q199 0 199 432z" />
  </g>

</svg>
