<?xml version="1.0" standalone="no"?>
<!DOCTYPE svg PUBLIC "-//W3C//DTD SVG 1.1//EN" "http://www.w3.org/Graphics/SVG/1.1/DTD/svg11.dtd" >
<svg viewBox="0 -442 2048 2048">
  <g transform="matrix(1 0 0 -1 0 1606)">
   <path fill="currentColor"
d="M1142 459q0 -182 -136 -319t-339 -160v-218q0 -50 11 -67q15 -21 66 -27q21 -3 91 -2v-66q-221 6 -238 6q-38 0 -236 -6v66q10 0 33 -1t35 -1q98 0 98 98v218q-203 23 -338.5 160.5t-135.5 318.5q0 183 134.5 327.5t339.5 169.5v211q0 98 -98 98q-12 0 -35 -1t-33 -1v66
q198 -6 236 -6q17 0 238 6v-66q-70 1 -91 -2q-51 -6 -66 -27q-11 -17 -11 -67v-211q204 -24 341 -171q134 -144 134 -326zM963 475q0 194 -66 288q-81 115 -230 142v-869q162 29 241 163q55 93 55 276zM527 37v868q-159 -29 -237 -148q-60 -92 -60 -282q0 -194 64 -291
q80 -119 233 -147z" />
  </g>

</svg>
