<?xml version="1.0" standalone="no"?>
<!DOCTYPE svg PUBLIC "-//W3C//DTD SVG 1.1//EN" "http://www.w3.org/Graphics/SVG/1.1/DTD/svg11.dtd" >
<svg viewBox="0 -442 2048 2048">
  <g transform="matrix(1 0 0 -1 0 1606)">
   <path fill="currentColor"
d="M998 -267q0 -84 -83 -132q-69 -40 -159 -40q-130 0 -214 103q-78 96 -78 229v291q-81 -207 -252 -207q-60 0 -107 35q-52 38 -52 96q0 40 25.5 67t65.5 27q39 0 65.5 -26t26.5 -66q0 -64 -48 -84q6 -2 14 -2q136 0 207 140q55 111 55 262v346q0 62 -56 78q-23 7 -108 7
h-44v66q81 -6 147 -6h174q38 0 97 2q80 4 97 4v-66q-11 0 -33 1t-34 1q-100 0 -100 -98v-872q0 -281 158 -281q56 0 114 29q-74 20 -74 96q0 42 28.5 70t70.5 28t69.5 -28t27.5 -70z" />
  </g>

</svg>
