<?xml version="1.0" standalone="no"?>
<!DOCTYPE svg PUBLIC "-//W3C//DTD SVG 1.1//EN" "http://www.w3.org/Graphics/SVG/1.1/DTD/svg11.dtd" >
<svg viewBox="0 -442 2048 2048">
  <g transform="matrix(1 0 0 -1 0 1606)">
   <path fill="currentColor"
d="M771 815q0 -40 -25.5 -67t-65.5 -27q-39 0 -65.5 26t-26.5 66q0 64 48 84q-6 2 -14 2q-136 0 -207 -140q-55 -111 -55 -262v-608q0 -281 158 -281q56 0 114 29q-74 20 -74 96q0 42 28.5 70t70.5 28t69.5 -28t27.5 -70q0 -84 -83 -132q-69 -40 -159 -40q-130 0 -214 103
q-78 96 -78 229v843q0 87 -45 109q-24 11 -122 10v68l297 23v-235q76 235 262 235q60 0 107 -35q52 -38 52 -96z" />
  </g>

</svg>
