<?xml version="1.0" standalone="no"?>
<!DOCTYPE svg PUBLIC "-//W3C//DTD SVG 1.1//EN" "http://www.w3.org/Graphics/SVG/1.1/DTD/svg11.dtd" >
<svg viewBox="0 -442 2048 2048">
  <g transform="matrix(1 0 0 -1 0 1606)">
   <path fill="currentColor"
d="M1103 124q0 -64 -44 -109t-108 -45q-115 0 -189.5 49.5t-74.5 175.5v32q1 21 1 31q0 86 -35 123q-55 58 -141 58h-169v-272q0 -49 9 -68q16 -33 158 -33v-66q-198 6 -238 6q-17 0 -238 -6v66q142 0 158 33q9 19 9 68v589q0 49 -9 68q-16 33 -158 33v66h484q94 0 173 -23
q90 -26 153 -80q77 -66 77 -148q0 -81 -83 -143q-66 -50 -157 -71q86 -38 125 -102q25 -42 53 -153q25 -99 30 -112q28 -74 72 -74q73 0 88 109q4 30 26 30q28 0 28 -32zM743 672q0 120 -83 160q-54 25 -191 25q-86 0 -99 -5q-27 -10 -27 -75v-291h156q121 0 175 34
q69 43 69 152z" />
  </g>

</svg>
