<?xml version="1.0" standalone="no"?>
<!DOCTYPE svg PUBLIC "-//W3C//DTD SVG 1.1//EN" "http://www.w3.org/Graphics/SVG/1.1/DTD/svg11.dtd" >
<svg viewBox="0 -442 2048 2048">
  <g transform="matrix(1 0 0 -1 0 1606)">
   <path fill="currentColor"
d="M1103 799q0 -32 -28 -32q-22 0 -26 30q-15 109 -88 109q-44 0 -72 -74q-5 -13 -30 -112q-28 -111 -53 -153q-39 -64 -125 -102q91 -21 157 -71q83 -62 83 -143q0 -82 -77 -148q-63 -54 -153 -80q-79 -23 -173 -23h-484v66q142 0 158 33q9 19 9 68v589q0 49 -9 68
q-16 33 -158 33v66q221 -6 238 -6q40 0 238 6v-66q-142 0 -158 -33q-9 -19 -9 -68v-272h169q86 0 141 58q35 37 35 123q0 10 -1 31v32q0 126 74.5 175.5t189.5 49.5q64 0 108 -45t44 -109zM743 251q0 109 -69 152q-54 34 -175 34h-156v-291q0 -65 27 -75q13 -5 99 -5
q137 0 191 25q83 40 83 160z" />
  </g>

</svg>
