<?xml version="1.0" standalone="no"?>
<!DOCTYPE svg PUBLIC "-//W3C//DTD SVG 1.1//EN" "http://www.w3.org/Graphics/SVG/1.1/DTD/svg11.dtd" >
<svg viewBox="0 -442 2048 2048">
  <g transform="matrix(1 0 0 -1 0 1606)">
   <path fill="currentColor"
d="M752 274q0 -146 -102 -226q-92 -72 -242 -72q-140 0 -237 93v-177q0 -106 43 -187q53 -101 149 -101q37 0 70 15q-64 22 -64 91q0 39 26.5 65t65.5 26q95 0 95 -94q0 -68 -64 -111q-57 -38 -129 -38q-139 0 -226 99q-84 96 -84 240v434q0 32 27 32q21 0 30 -35
q37 -146 92 -214q73 -90 206 -90q103 0 167 45q74 52 74 150q0 147 -223 195q-128 28 -148 33q-82 25 -134 67q-91 75 -91 183q0 134 108 204q92 59 233 59q118 0 201 -61q60 61 80 61q24 0 24 -33v-254q0 -35 -29 -35q-23 0 -31 43l-6 60q-16 87 -84 134q-63 44 -155 44
q-94 0 -158 -34q-81 -43 -81 -129t94 -130q48 -22 169 -46q170 -33 243 -102q91 -86 91 -204z" />
  </g>

</svg>
