<?xml version="1.0" standalone="no"?>
<!DOCTYPE svg PUBLIC "-//W3C//DTD SVG 1.1//EN" "http://www.w3.org/Graphics/SVG/1.1/DTD/svg11.dtd" >
<svg viewBox="0 -442 2048 2048">
  <g transform="matrix(1 0 0 -1 0 1606)">
   <path fill="currentColor"
d="M963 1359q0 -41 -27 -67.5t-68 -26.5q-39 0 -65.5 26t-26.5 65q0 69 64 91q-33 15 -70 15q-96 0 -151 -102q-46 -84 -46 -189v-1178l-4 -59q89 -127 155 -357l-54 -19q-56 196 -121 304q-36 -95 -121.5 -152t-187.5 -57q-98 0 -169 71t-71 170q0 100 70 170.5t170 70.5
q108 0 198 -62v1096q0 141 95.5 240t236.5 99q72 0 129 -38q64 -43 64 -111zM438 -22v19q-88 78 -198 78q-74 0 -127.5 -53.5t-53.5 -127.5t53.5 -127.5t127.5 -53.5q94 0 150 89q48 76 48 176z" />
  </g>

</svg>
