<?xml version="1.0" standalone="no"?>
<!DOCTYPE svg PUBLIC "-//W3C//DTD SVG 1.1//EN" "http://www.w3.org/Graphics/SVG/1.1/DTD/svg11.dtd" >
<svg viewBox="0 -442 2048 2048">
  <g transform="matrix(1 0 0 -1 0 1606)">
   <path fill="currentColor"
d="M1176 514h-207v-329q0 -87 45 -109q25 -12 122 -10v-66l-308 -24v193q-89 -193 -276 -193q-192 0 -263 88q-63 78 -63 275v175h-214v68h214v132q0 102 -35 126q-23 16 -131 15v68l314 23v-364h447v154q0 87 -45 109q-25 12 -122 10v68l315 23v-364h207v-68zM821 356v158
h-447v-278q0 -114 36 -160q42 -52 152 -52q124 0 196 108q63 94 63 224z" />
  </g>

</svg>
