<?xml version="1.0" standalone="no"?>
<!DOCTYPE svg PUBLIC "-//W3C//DTD SVG 1.1//EN" "http://www.w3.org/Graphics/SVG/1.1/DTD/svg11.dtd" >
<svg viewBox="0 -442 2048 2048">
  <g transform="matrix(1 0 0 -1 0 1606)">
   <path fill="currentColor"
d="M1146 504q0 -226 -125 -372q-132 -156 -354 -156q-190 0 -295 94q-110 99 -110 287v421q0 40 -19 71q-23 37 -60 37q-79 0 -79 -173q0 -36 3 -84h-55v120q0 83 46 141q49 62 130 62q88 0 138 -66q45 -60 45 -150v-357q0 -355 250 -355q171 0 264 163q77 134 77 319
q0 134 -49 249q-63 149 -179 149q-52 0 -94 -29q80 -13 80 -96q0 -39 -27.5 -64.5t-67.5 -25.5q-42 0 -67.5 29t-25.5 71q0 76 78 123q66 40 148 40q174 0 268 -143q80 -122 80 -305z" />
  </g>

</svg>
