<?xml version="1.0" standalone="no"?>
<!DOCTYPE svg PUBLIC "-//W3C//DTD SVG 1.1//EN" "http://www.w3.org/Graphics/SVG/1.1/DTD/svg11.dtd" >
<svg viewBox="0 -442 2048 2048">
  <g transform="matrix(1 0 0 -1 0 1606)">
   <path fill="currentColor"
d="M1518 0q-143 8 -198 8l-233 -8v68q125 -1 125 56q0 38 -94 292q-60 160 -120 319l-183 -518q38 -105 54 -121q29 -28 129 -28v-68q-120 8 -189 8q1 0 -224 -8v68q128 -1 128 56q0 11 -11 42l-213 595l-195 -546q-10 -28 -10 -46q0 -98 125 -101v-68q-151 8 -200 8
q-68 0 -156 -8v68q131 3 179 136l252 703q14 40 42 40t42 -40l220 -608l216 606q15 42 42 42q28 0 45 -48l270 -757q19 -54 62 -68q23 -7 95 -6v-68z" />
  </g>

</svg>
