<?xml version="1.0" standalone="no"?>
<!DOCTYPE svg PUBLIC "-//W3C//DTD SVG 1.1//EN" "http://www.w3.org/Graphics/SVG/1.1/DTD/svg11.dtd" >
<svg viewBox="0 -442 2048 2048">
  <g transform="matrix(1 0 0 -1 0 1606)">
   <path fill="currentColor"
d="M1099 0q-120 8 -207 8q-30 0 -233 -8v68q120 -1 120 54q0 19 -250 616l-217 -528q-14 -34 -14 -50q0 -90 101 -92v-68q-170 8 -185 8q-69 0 -161 -8v68q142 -1 199 136l377 913q101 245 274 245q76 0 134 -48q62 -52 62 -126q0 -91 -89 -91q-39 0 -65 25.5t-26 63.5
q0 81 85 91q-41 38 -101 38q-93 0 -158 -92q-32 -45 -86 -173q-18 -42 -53 -127l321 -781q22 -54 70 -68q26 -8 102 -6v-68z" />
  </g>

</svg>
