<?xml version="1.0" standalone="no"?>
<!DOCTYPE svg PUBLIC "-//W3C//DTD SVG 1.1//EN" "http://www.w3.org/Graphics/SVG/1.1/DTD/svg11.dtd" >
<svg viewBox="0 -442 2048 2048">
  <g transform="matrix(1 0 0 -1 0 1606)">
   <path fill="currentColor"
d="M925 275q0 -125 -120 -205q-105 -70 -237 -70h-75q-50 -81 -142 -250l-50 25q52 106 126 225h-336q-38 0 -38 30q0 15 18 39l599 807h-245q-167 0 -227 -67q-53 -60 -62 -231h-53l24 345h701q38 0 38 -28q0 -14 -18 -38l-595 -803h230q222 327 345 327q117 0 117 -106z
M871 275q0 52 -63 52q-87 0 -279 -273h58q96 0 186 61q98 68 98 160z" />
  </g>

</svg>
