<?xml version="1.0" standalone="no"?>
<!DOCTYPE svg PUBLIC "-//W3C//DTD SVG 1.1//EN" "http://www.w3.org/Graphics/SVG/1.1/DTD/svg11.dtd" >
<svg viewBox="0 -442 2048 2048">
  <g transform="matrix(1 0 0 -1 0 1606)">
   <path fill="currentColor"
d="M849 1208q0 -42 -27.5 -69.5t-69.5 -27.5t-69.5 27.5t-27.5 69.5q0 93 98 98q-81 80 -227 80q-61 0 -126 -33q-178 -91 -178 -386q0 -291 188 -383q67 -33 130 -33q38 0 71 6v-395q0 -64 29 -83q22 -14 90 -14q19 0 47 1v-66q-205 6 -240 6q-41 0 -239 -6v66
q134 -8 155 32q10 19 10 58v347q-179 20 -302 149q-126 132 -126 310q0 200 145 339q142 137 343 137q119 0 213 -54q113 -65 113 -176z" />
  </g>

</svg>
