<?xml version="1.0" standalone="no"?>
<!DOCTYPE svg PUBLIC "-//W3C//DTD SVG 1.1//EN" "http://www.w3.org/Graphics/SVG/1.1/DTD/svg11.dtd" >
<svg viewBox="0 -442 2048 2048">
  <g transform="matrix(1 0 0 -1 0 1606)">
   <path fill="currentColor"
d="M849 452q0 -200 -143.5 -338t-344.5 -138q-119 0 -213 54q-113 65 -113 176q0 42 27.5 69.5t69.5 27.5t69.5 -27.5t27.5 -69.5q0 -93 -98 -98q81 -80 227 -80q61 0 126 33q178 91 178 386q0 291 -188 383q-67 33 -130 33q-38 0 -71 -6v395q0 64 -29 83q-22 14 -90 14
q-19 0 -47 -1v66q205 -6 240 -6q41 0 239 6v-66q-134 8 -155 -32q-10 -19 -10 -58v-347q179 -20 302 -149q126 -132 126 -310z" />
  </g>

</svg>
