<?xml version="1.0" standalone="no"?>
<!DOCTYPE svg PUBLIC "-//W3C//DTD SVG 1.1//EN" "http://www.w3.org/Graphics/SVG/1.1/DTD/svg11.dtd" >
<svg viewBox="0 -442 2048 2048">
  <g transform="matrix(1 0 0 -1 0 1606)">
   <path fill="currentColor"
d="M868 -124q0 -23 -27 -75q-106 -203 -329 -203q-221 0 -351 237q-108 196 -108 437q0 248 106 446q130 242 356 242q121 0 215 -54q113 -64 113 -176q0 -100 -97 -100q-42 0 -70.5 28t-28.5 70q0 94 100 99q-79 78 -232 78q-149 0 -228 -245q-57 -176 -57 -370
q0 -127 28 -265q32 -159 87 -247q79 -126 186 -126q113 0 181 64q40 37 78 118q30 64 49 64q29 0 29 -22z" />
  </g>

</svg>
