<?xml version="1.0" standalone="no"?>
<!DOCTYPE svg PUBLIC "-//W3C//DTD SVG 1.1//EN" "http://www.w3.org/Graphics/SVG/1.1/DTD/svg11.dtd" >
<svg viewBox="0 -442 2048 2048">
  <g transform="matrix(1 0 0 -1 0 1606)">
   <path fill="currentColor"
d="M1002 251q0 -49 -27 -97q-87 -154 -315 -154h-598v66q72 0 101 3q44 5 57 30q9 17 9 68v589q0 51 -9 68q-13 25 -57 30q-29 3 -101 3v66h557q223 0 312 -136q31 -47 31 -95q0 -82 -80 -143q-67 -50 -158 -67q105 -10 185 -67q93 -66 93 -164zM797 690q0 80 -58 125
q-53 42 -135 42h-148q-64 0 -78 -13t-14 -75v-266h199q168 0 219 121q15 36 15 66zM831 255q0 87 -54.5 144t-140.5 57h-272v-302q0 -62 14 -75t78 -13h152q93 0 155 47q68 52 68 142z" />
  </g>

</svg>
