<?xml version="1.0" standalone="no"?>
<!DOCTYPE svg PUBLIC "-//W3C//DTD SVG 1.1//EN" "http://www.w3.org/Graphics/SVG/1.1/DTD/svg11.dtd" >
<svg viewBox="0 -442 2048 2048">
  <g transform="matrix(1 0 0 -1 0 1606)">
   <path fill="currentColor"
d="M924 471q0 -202 -127 -345q-132 -150 -332 -150q-149 0 -263 61q-140 76 -140 211q0 99 81 167q67 57 172 81q-93 22 -151 81q-64 65 -64 156q0 123 132 182q98 45 239 45q197 0 328 -148q125 -141 125 -341zM847 475q0 176 -102 302q-110 135 -284 135q-97 0 -155 -49
q-61 -52 -61 -145q0 -188 199 -188q22 0 63 11t63 11q86 0 86 -56q0 -55 -87 -55q-21 0 -62.5 11t-62.5 11q-224 0 -224 -205q0 -228 255 -228q175 0 278 139q94 125 94 306z" />
  </g>

</svg>
