<?xml version="1.0" standalone="no"?>
<!DOCTYPE svg PUBLIC "-//W3C//DTD SVG 1.1//EN" "http://www.w3.org/Graphics/SVG/1.1/DTD/svg11.dtd" >
<svg viewBox="0 -442 2048 2048">
  <g transform="matrix(1 0 0 -1 0 1606)">
   <path fill="currentColor"
d="M1365 1289q0 -94 -95 -94q-39 0 -65.5 26t-26.5 65q0 69 64 91q-33 15 -70 15q-96 0 -149 -101q-43 -81 -43 -187v-519q0 -26 -32 -26q-26 0 -33 28q-8 40 -34 118q-39 87 -113 139q-77 54 -170 54q-77 0 -147 -31q-230 -102 -230 -404q0 -303 232 -405q71 -31 153 -31
q86 0 148 34q77 41 77 120v77q0 24 -6 33q-17 24 -182 24v64q58 -4 156 -4q123 0 284 4v-64h-42q-62 0 -62 -51v-236q0 -27 -20 -27q-29 0 -96 77q-80 -108 -281 -108q-213 0 -368 139q-162 144 -162 354q0 208 161 353q155 139 366 139q148 0 271 -106v255q0 142 90.5 238
t231.5 96q72 0 129 -38q64 -43 64 -111z" />
  </g>

</svg>
