<?xml version="1.0" standalone="no"?>
<!DOCTYPE svg PUBLIC "-//W3C//DTD SVG 1.1//EN" "http://www.w3.org/Graphics/SVG/1.1/DTD/svg11.dtd" >
<svg viewBox="-149 -442 2048 2048">
  <g transform="matrix(1 0 0 -1 0 1606)">
   <path fill="currentColor"
d="M386 1276q0 -47 -33.5 -81t-80.5 -34q-46 0 -79 34.5t-33 80.5q0 45 33.5 79t78.5 34q47 0 80.5 -33t33.5 -80zM555 -66h-170v-41q0 -133 -78 -229q-84 -103 -214 -103q-90 0 -159 40q-83 48 -83 132q0 158 125 221q91 46 269 46v750q0 39 -9 60q-22 50 -175 45v68
l324 23v-946h170v-66zM245 -111v45q-149 0 -222 -26q-119 -43 -119 -163q0 -64 62 -103q54 -34 121 -34q158 0 158 281z" />
  </g>

</svg>
