<?xml version="1.0" standalone="no"?>
<!DOCTYPE svg PUBLIC "-//W3C//DTD SVG 1.1//EN" "http://www.w3.org/Graphics/SVG/1.1/DTD/svg11.dtd" >
<svg viewBox="0 -442 2048 2048">
  <g transform="matrix(1 0 0 -1 0 1606)">
   <path fill="currentColor"
d="M1086 -419l-307 -23v907l-302 -261q-47 -41 -47 -84q0 -50 61 -52v-68q-116 8 -248 8q-64 0 -141 -8v68q133 6 270 114q174 137 174 156q0 2 -14 22l-273 383q-48 67 -85 89q-44 26 -121 25v66q88 -6 186 -6q62 0 230 6v-66q-76 2 -76 -49q0 -38 255 -385l136 116v222
q0 51 -11 67q-13 21 -61 27q-23 3 -95 2v66q121 -6 236 -6q37 0 233 6v-66q-10 0 -34 1h-34q-99 0 -99 -97v-995q0 -87 45 -108q23 -11 122 -10v-67z" />
  </g>

</svg>
