<?xml version="1.0" standalone="no"?>
<!DOCTYPE svg PUBLIC "-//W3C//DTD SVG 1.1//EN" "http://www.w3.org/Graphics/SVG/1.1/DTD/svg11.dtd" >
<svg viewBox="0 -442 2048 2048">
  <g transform="matrix(1 0 0 -1 0 1606)">
   <path fill="currentColor"
d="M1325 1289q0 -94 -95 -94q-39 0 -65.5 26t-26.5 65q0 69 64 91q-33 15 -70 15q-96 0 -149 -101q-43 -81 -43 -187v-1357q0 -46 12 -67q20 -35 154 -28v-66q-166 5 -240 5q-80 0 -242 -5v66q37 -2 48 -2q69 0 91 14q30 19 30 83v383q-115 -154 -284 -154q-192 0 -326 147
q-130 142 -130 336q0 197 138 342t334 145q179 0 274 -169v322q0 141 96 240t237 99q72 0 129 -38q64 -43 64 -111zM799 291v301q0 112 -73 203q-79 98 -188 98q-96 0 -175 -77q-69 -67 -103 -167q-30 -87 -30 -190q0 -152 66 -280q81 -155 219 -155q104 0 194 82t90 185z
" />
  </g>

</svg>
