<?xml version="1.0" standalone="no"?>
<!DOCTYPE svg PUBLIC "-//W3C//DTD SVG 1.1//EN" "http://www.w3.org/Graphics/SVG/1.1/DTD/svg11.dtd" >
<svg viewBox="0 -442 2048 2048">
  <g transform="matrix(1 0 0 -1 0 1606)">
   <path fill="currentColor"
d="M849 962q0 -178 -124.5 -308.5t-303.5 -150.5v-131h205v-68h-205v-148q0 -39 10 -58q21 -40 155 -32v-66q-198 6 -239 6q-35 0 -240 -6v66q28 -1 47 -1q68 0 90 14q29 19 29 83v142h-206v68h206v185q33 -6 71 -6q63 0 130 33q188 92 188 383q0 295 -178 386
q-65 33 -126 33q-146 0 -227 -80q98 -5 98 -98q0 -42 -27.5 -69.5t-69.5 -27.5t-69.5 27.5t-27.5 69.5q0 111 113 176q94 54 213 54q201 0 344.5 -138t143.5 -338z" />
  </g>

</svg>
