<?xml version="1.0" standalone="no"?>
<!DOCTYPE svg PUBLIC "-//W3C//DTD SVG 1.1//EN" "http://www.w3.org/Graphics/SVG/1.1/DTD/svg11.dtd" >
<svg viewBox="0 -442 2048 2048">
  <g transform="matrix(1 0 0 -1 0 1606)">
   <path fill="currentColor"
d="M1688 74q0 -195 -137.5 -321.5t-334.5 -126.5q-121 0 -215 54q-113 64 -113 176q0 100 97 100q42 0 70.5 -28t28.5 -70q0 -94 -100 -99q79 -78 229 -78q134 0 221 121q77 109 77 249q0 135 -76 218t-210 83q-39 0 -84 -12l-37 38l397 405h-325q-136 0 -183 -29
q-53 -32 -53 -131v-438q0 -88 46 -110q25 -12 120 -9v-66l-313 -24v142q-111 -142 -287 -142q-192 0 -324 147q-129 142 -129 336q0 198 139.5 342.5t336.5 144.5q163 0 270 -133v464q0 88 -47 109q-25 12 -120 9v67l308 23v-562h688q38 0 38 -28q0 -20 -18 -38l-372 -379
q179 -12 292 -118q120 -112 120 -286zM793 253v449q0 32 -24 68q-87 129 -231 129q-154 0 -243 -138q-65 -100 -65 -303q0 -197 61 -296q85 -138 224 -138q93 0 182 67q96 72 96 162z" />
  </g>

</svg>
