<?xml version="1.0" standalone="no"?>
<!DOCTYPE svg PUBLIC "-//W3C//DTD SVG 1.1//EN" "http://www.w3.org/Graphics/SVG/1.1/DTD/svg11.dtd" >
<svg viewBox="0 -442 2048 2048">
  <g transform="matrix(1 0 0 -1 0 1606)">
   <path fill="currentColor"
d="M1729 275q0 -125 -120 -205q-105 -70 -237 -70h-75q-50 -81 -142 -250l-50 25q52 106 126 225h-125l-313 -24v142q-111 -142 -287 -142q-192 0 -324 147q-129 142 -129 336q0 198 139.5 342.5t336.5 144.5q163 0 270 -133v464q0 88 -47 109q-25 12 -120 9v67l308 23v-562
h672q38 0 38 -28q0 -14 -18 -38l-595 -803h230q222 327 345 327q117 0 117 -106zM1474 876h-245q-169 0 -231 -67q-58 -63 -58 -231v-393q0 -15 1 -27zM1675 275q0 52 -63 52q-87 0 -279 -273h58q96 0 186 61q98 68 98 160zM793 253v449q0 32 -24 68q-87 129 -231 129
q-154 0 -243 -138q-65 -100 -65 -303q0 -197 61 -296q85 -138 224 -138q93 0 182 67q96 72 96 162z" />
  </g>

</svg>
