<?xml version="1.0" standalone="no"?>
<!DOCTYPE svg PUBLIC "-//W3C//DTD SVG 1.1//EN" "http://www.w3.org/Graphics/SVG/1.1/DTD/svg11.dtd" >
<svg viewBox="0 -442 2048 2048">
  <g transform="matrix(1 0 0 -1 0 1606)">
   <path fill="currentColor"
d="M1486 275q0 -123 -120 -214q-111 -85 -237 -85q-45 0 -86 8q-74 -114 -132 -234l-50 25q52 106 126 225q-179 61 -266 239q-6 -106 -54 -178q-58 -85 -157 -85q-132 0 -203.5 78t-71.5 211v590h-182v49q142 5 215 145q59 111 61 268h53v-394h305v-68h-305v-594
q0 -231 144 -231q101 0 131 139q13 60 13 218v74q0 201 130 347q134 152 332 152q121 0 215 -54q113 -64 113 -176q0 -100 -97 -100q-42 0 -70.5 28t-28.5 70q0 94 100 99q-79 78 -229 78q-60 0 -120 -34q-168 -94 -168 -405q0 -307 178 -402l4 -2q219 319 340 319
q117 0 117 -106zM1432 275q0 52 -63 52q-89 0 -288 -287q34 -10 67 -10q102 0 190 70q94 74 94 175z" />
  </g>

</svg>
