<?xml version="1.0" standalone="no"?>
<!DOCTYPE svg PUBLIC "-//W3C//DTD SVG 1.1//EN" "http://www.w3.org/Graphics/SVG/1.1/DTD/svg11.dtd" >
<svg viewBox="0 -442 2048 2048">
  <g transform="matrix(1 0 0 -1 0 1606)">
   <path fill="currentColor"
d="M1566 -107q0 -133 -78 -229q-84 -103 -214 -103q-90 0 -159 40q-83 48 -83 132q0 42 27.5 70t69.5 28t70.5 -28t28.5 -70q0 -76 -74 -96q58 -29 114 -29q158 0 158 281v743q0 267 -166 267q-130 0 -213 -109q-76 -100 -76 -234v-400q0 -38 10 -58q20 -39 155 -32v-66
q-199 6 -239 6q-34 0 -240 -6v66q29 -1 47 -1q68 0 90 14q29 19 29 83v574q0 87 -44 108q-23 11 -122 11h-296v-704q0 -21 7 -41q16 -47 201 -44v-66q-81 6 -145 6h-187q-35 0 -92 -2q-73 -4 -91 -4v66q28 -1 46 -1q64 0 87 12q34 18 34 76v702h-168v68h168v202
q0 180 137 286q125 97 311 97q100 0 192 -45q113 -55 113 -144q0 -47 -34.5 -81t-81.5 -34q-46 0 -79 34.5t-33 80.5q0 74 63 100q-47 43 -133 43q-141 0 -230.5 -96.5t-89.5 -238.5v-204h301l301 23v-225q101 225 316 225q292 0 292 -316v-737z" />
  </g>

</svg>
