<?xml version="1.0" standalone="no"?>
<!DOCTYPE svg PUBLIC "-//W3C//DTD SVG 1.1//EN" "http://www.w3.org/Graphics/SVG/1.1/DTD/svg11.dtd" >
<svg viewBox="0 -442 2048 2048">
  <g transform="matrix(1 0 0 -1 0 1606)">
   <path fill="currentColor"
d="M1102 274q0 -298 -444 -298q-146 0 -227 27q-89 3 -142 3q-37 0 -236 -6v66q10 0 33 -1t35 -1q98 0 98 98v1115q0 87 -44 108q-23 11 -122 10v67l306 23v-1323q0 -57 16 -73q68 -65 283 -65q341 0 341 195q0 147 -223 195q-128 28 -148 33q-82 25 -134 67q-91 75 -91 183
q0 134 108 204q92 59 233 59q118 0 201 -61q60 61 80 61q24 0 24 -33v-254q0 -35 -29 -35q-23 0 -31 43l-6 60q-16 87 -84 134q-63 44 -155 44q-94 0 -158 -34q-81 -43 -81 -129t94 -130q48 -22 169 -46q170 -33 243 -102q91 -86 91 -204z" />
  </g>

</svg>
