<?xml version="1.0" standalone="no"?>
<!DOCTYPE svg PUBLIC "-//W3C//DTD SVG 1.1//EN" "http://www.w3.org/Graphics/SVG/1.1/DTD/svg11.dtd" >
<svg viewBox="0 -442 2048 2048">
  <g transform="matrix(1 0 0 -1 0 1606)">
   <path fill="currentColor"
d="M1519 1255q-113 -1 -178 -112l-249 -427q-23 -40 -46 -40q-21 0 -44 40l-212 373l-218 -373q-23 -40 -46 -40q-21 0 -44 40l-279 490q-29 51 -150 49v68q120 -8 207 -8q3 0 233 8v-68q-137 1 -137 -46q0 -9 8 -23l209 -367l187 321l-37 66q-29 51 -150 49v68
q120 -8 207 -8q3 0 233 8v-68q-137 1 -137 -46q0 -9 8 -23l209 -367l189 324q9 15 9 30q0 40 -41 63q-33 18 -77 19v68q134 -8 185 -8q69 0 161 8v-68zM1519 555q-113 -1 -178 -112l-249 -427q-23 -40 -46 -40q-21 0 -44 40l-212 373l-218 -373q-23 -40 -46 -40
q-21 0 -44 40l-279 490q-29 51 -150 49v68q120 -8 207 -8q3 0 233 8v-68q-137 1 -137 -46q0 -9 8 -23l209 -367l187 321l-37 66q-29 51 -150 49v68q120 -8 207 -8q3 0 233 8v-68q-137 1 -137 -46q0 -9 8 -23l209 -367l189 324q9 15 9 30q0 40 -41 63q-33 18 -77 19v68
q134 -8 185 -8q69 0 161 8v-68z" />
  </g>

</svg>
