<?xml version="1.0" standalone="no"?>
<!DOCTYPE svg PUBLIC "-//W3C//DTD SVG 1.1//EN" "http://www.w3.org/Graphics/SVG/1.1/DTD/svg11.dtd" >
<svg viewBox="0 -442 2048 2048">
  <g transform="matrix(1 0 0 -1 0 1606)">
   <path fill="currentColor"
d="M1567 -267q0 -84 -83 -132q-69 -40 -159 -40q-130 0 -214 103q-78 96 -78 229v289h-2q-41 -93 -125 -149t-184 -56q-284 0 -284 314v321q0 106 -43 187q-53 101 -149 101q-37 0 -70 -15q64 -22 64 -91q0 -39 -26.5 -65t-65.5 -26q-95 0 -95 94q0 68 64 111q57 38 129 38
q141 0 236.5 -99t95.5 -240v-356q0 -227 158 -227q130 0 213 109q76 100 76 234v400q0 39 -10 58q-21 39 -155 32v66q200 -6 239 -6q34 0 240 6v-66q-30 1 -47 1q-68 0 -90 -14q-29 -19 -29 -83v-872q0 -281 158 -281q56 0 114 29q-74 20 -74 96q0 42 28.5 70t70.5 28
t69.5 -28t27.5 -70z" />
  </g>

</svg>
