<?xml version="1.0" standalone="no"?>
<!DOCTYPE svg PUBLIC "-//W3C//DTD SVG 1.1//EN" "http://www.w3.org/Graphics/SVG/1.1/DTD/svg11.dtd" >
<svg viewBox="0 -442 2048 2048">
  <g transform="matrix(1 0 0 -1 0 1606)">
   <path fill="currentColor"
d="M846 1120q0 -31 -31 -31q-22 0 -34.5 46t-50.5 46q-35 0 -67 -116q-35 -126 -112 -164q159 -46 159 -145q0 -87 -114 -137q-90 -40 -191 -40h-380v64q6 0 20 -1h21q47 0 60 5q25 9 25 47v398q0 34 -8.5 43.5t-43.5 12.5q-13 1 -74 1v64q165 -4 189 -4q40 0 188 4v-64h-41
q-48 0 -59 -4q-25 -10 -25 -47v-177h117q110 0 120 83v69q0 160 208 160q49 0 86.5 -32t37.5 -81zM557 756q0 71 -55 97q-37 17 -118 17h-107v-196q0 -27 29 -32q-4 1 55 1q96 0 131 13q65 23 65 100z" />
  </g>

</svg>
