<?xml version="1.0" standalone="no"?>
<!DOCTYPE svg PUBLIC "-//W3C//DTD SVG 1.1//EN" "http://www.w3.org/Graphics/SVG/1.1/DTD/svg11.dtd" >
<svg viewBox="0 -442 2048 2048">
  <g transform="matrix(1 0 0 -1 0 1606)">
   <path fill="currentColor"
d="M1157 1148q-102 -2 -135 -85l-188 -467q-13 -33 -41 -33t-41 33l-155 381l-153 -380q-14 -34 -41 -34q-28 0 -43 38l-202 503q-14 34 -49 42q-12 2 -69 1v66q121 -6 158 -6q-12 0 185 6v-66l-21 1q-73 3 -73 -28q0 -27 150 -379l127 317q-27 67 -44.5 78t-92.5 11v66
q101 -6 152 -6q-11 0 178 6v-66l-21 1q-75 4 -75 -28q0 -4 158 -396q143 355 143 366q0 56 -93 58v65q127 -6 159 -6q40 0 127 7v-66z" />
  </g>

</svg>
