<?xml version="1.0" standalone="no"?>
<!DOCTYPE svg PUBLIC "-//W3C//DTD SVG 1.1//EN" "http://www.w3.org/Graphics/SVG/1.1/DTD/svg11.dtd" >
<svg viewBox="0 -442 2048 2048">
  <g transform="matrix(1 0 0 -1 0 1606)">
   <path fill="currentColor"
d="M656 1392q0 -74 -83 -74q-82 0 -82 74q0 55 58 71q-57 37 -145 37q-44 0 -90 -21q-128 -59 -128 -247q0 -186 135 -245q50 -22 94 -22q26 0 63 6v-392h-131v335q-129 15 -221 99q-100 91 -100 216q0 143 119 238q110 88 257 88q90 0 163 -37q91 -45 91 -126z" />
  </g>

</svg>
