<?xml version="1.0" standalone="no"?>
<!DOCTYPE svg PUBLIC "-//W3C//DTD SVG 1.1//EN" "http://www.w3.org/Graphics/SVG/1.1/DTD/svg11.dtd" >
<svg viewBox="0 -442 2048 2048">
  <g transform="matrix(1 0 0 -1 0 1606)">
   <path fill="currentColor"
d="M843 1147q-93 0 -149 -89l-183 -289q139 -222 139 -318q0 -80 -63 -126q-56 -40 -139 -40q-75 0 -129 33q-63 39 -63 109q0 63 53 153q18 31 93 138l-233 382q-22 36 -55 44q-16 4 -74 3v66q101 -6 165 -6q-3 0 184 6v-66l-19 1q-72 4 -72 -26q0 -10 180 -299l154 245
q9 14 9 28q0 50 -77 51v66q110 -6 149 -6q40 0 130 7v-67zM533 429q0 67 -97 229q-103 -149 -103 -219q0 -46 36 -73q32 -25 80 -25q84 0 84 88z" />
  </g>

</svg>
