<?xml version="1.0" standalone="no"?>
<!DOCTYPE svg PUBLIC "-//W3C//DTD SVG 1.1//EN" "http://www.w3.org/Graphics/SVG/1.1/DTD/svg11.dtd" >
<svg viewBox="0 -442 2048 2048">
  <g transform="matrix(1 0 0 -1 0 1606)">
   <path fill="currentColor"
d="M583 771q0 -105 -84 -161q-72 -47 -183 -47q-103 0 -177 58q-53 -58 -73 -58q-26 0 -26 32v214q0 31 30 31q24 0 32 -30q27 -97 69 -141q52 -54 145 -54q170 0 170 120q0 88 -159 119q-97 19 -112 23q-63 16 -103 46q-72 53 -72 129q0 97 89 146q71 39 176 39
q87 0 150 -38q41 38 61 38q28 0 28 -32v-169q0 -33 -32 -33q-23 0 -31 29q-4 24 -7 48q-22 110 -169 110q-169 0 -169 -98q0 -53 72 -80q31 -12 117 -27q131 -22 187 -70q71 -60 71 -144z" />
  </g>

</svg>
