<?xml version="1.0" standalone="no"?>
<!DOCTYPE svg PUBLIC "-//W3C//DTD SVG 1.1//EN" "http://www.w3.org/Graphics/SVG/1.1/DTD/svg11.dtd" >
<svg viewBox="-741 -442 2048 2048">
  <g transform="matrix(1 0 0 -1 0 1606)">
   <path fill="currentColor"
d="M-299 1090l-151 -11v34q-43 -32 -99 -32q-77 0 -134.5 52.5t-57.5 129.5q0 78 62 132q60 51 139 51q51 0 93 -30v103q0 25 -23 28q2 0 -43 -1v50l148 10v-439q0 -26 23 -29q-1 0 43 1v-49zM-450 1191v157q0 21 -34 39q-29 16 -53 16q-107 0 -107 -140q0 -139 99 -139
q28 0 61.5 20t33.5 47z" />
  </g>

</svg>
