<?xml version="1.0" standalone="no"?>
<!DOCTYPE svg PUBLIC "-//W3C//DTD SVG 1.1//EN" "http://www.w3.org/Graphics/SVG/1.1/DTD/svg11.dtd" >
<svg viewBox="-745 -442 2048 2048">
  <g transform="matrix(1 0 0 -1 0 1606)">
   <path fill="currentColor"
d="M-295 1089q-75 2 -108 2q-30 0 -108 -2v50q33 -1 39 -1q26 0 26 18v181q0 66 -48 66q-43 0 -72 -31.5t-29 -74.5v-140q0 -18 25 -19q12 -1 40 1v-50q-75 2 -107 2q-30 0 -108 -2v50q33 -1 45 -1q20 0 20 21v360q0 25 -22 28q5 0 -43 -1v50l147 10v-204q43 44 109 44
q78 0 106 -40q23 -33 23 -111v-147q0 -13 65 -9v-50z" />
  </g>

</svg>
