<?xml version="1.0" standalone="no"?>
<!DOCTYPE svg PUBLIC "-//W3C//DTD SVG 1.1//EN" "http://www.w3.org/Graphics/SVG/1.1/DTD/svg11.dtd" >
<svg viewBox="-862 -442 2048 2048">
  <g transform="matrix(1 0 0 -1 0 1606)">
   <path fill="currentColor"
d="M-178 1089q-75 2 -107 2t-109 -2v50q28 -1 40 -1q25 0 25 21v174q0 70 -48 70q-43 0 -71.5 -31.5t-28.5 -74.5v-140q0 -16 20 -18q16 -1 45 0v-50q-75 2 -108 2q-30 0 -108 -2v50q28 -1 40 -1q25 0 25 21v174q0 70 -48 70q-43 0 -72 -31.5t-29 -74.5v-143q0 -14 25 -15
q24 -1 40 0v-50q-74 2 -107 2q-30 0 -108 -2v50q28 -1 39 -1q26 0 26 21v200q0 26 -22 29q3 0 -43 -1v50l145 10v-49q43 48 111 48q88 0 116 -56q45 56 118 56q78 0 106 -41q22 -32 22 -110v-147q0 -13 66 -9v-50z" />
  </g>

</svg>
