<?xml version="1.0" standalone="no"?>
<!DOCTYPE svg PUBLIC "-//W3C//DTD SVG 1.1//EN" "http://www.w3.org/Graphics/SVG/1.1/DTD/svg11.dtd" >
<svg viewBox="0 -442 2048 2048">
  <g transform="matrix(1 0 0 -1 0 1606)">
   <path fill="currentColor"
d="M620 466q0 -46 -32 -78t-78 -32t-78 32t-32 78t32 78t78 32t78 -32t32 -78zM868 254q0 -23 -27 -75q-106 -203 -329 -203q-194 0 -328 147q-131 142 -131 338q0 201 129 347q135 152 333 152q99 0 207 -48q131 -58 131 -143q0 -81 -81 -81q-47 0 -74 56q-48 99 -52 105
q-43 56 -128 56q-60 0 -120 -34q-168 -95 -168 -405q0 -306 178 -402q63 -34 123 -34q113 0 181 64q40 37 78 118q30 64 49 64q29 0 29 -22z" />
  </g>

</svg>
