<?xml version="1.0" standalone="no"?>
<!DOCTYPE svg PUBLIC "-//W3C//DTD SVG 1.1//EN" "http://www.w3.org/Graphics/SVG/1.1/DTD/svg11.dtd" >
<svg viewBox="0 -442 2048 2048">
  <g transform="matrix(1 0 0 -1 0 1606)">
   <path fill="currentColor"
d="M365 729q0 -42 -30.5 -72t-71.5 -30q-42 0 -72.5 30t-30.5 72q0 41 30.5 72t72.5 31q41 0 71.5 -31t30.5 -72zM370 6q0 -209 -124 -349q-25 -29 -36 -29q-19 0 -19 21q0 9 13 26q124 152 123 347l-2 -2q-18 -14 -47 -18q-3 -2 -11 -2q-107 0 -107 102q0 44 29 73t74 29
q107 0 107 -198z" />
  </g>

</svg>
