<?xml version="1.0" standalone="no"?>
<!DOCTYPE svg PUBLIC "-//W3C//DTD SVG 1.1//EN" "http://www.w3.org/Graphics/SVG/1.1/DTD/svg11.dtd" >
<svg viewBox="0 -442 2048 2048">
  <g transform="matrix(1 0 0 -1 0 1606)">
   <path fill="currentColor"
d="M1687 669q0 -285 -183 -494q-192 -218 -472 -218t-471 219q-183 209 -183 493q0 285 182 498q191 223 472 223q282 0 473 -223q182 -212 182 -498zM238 1324q0 -20 -17 -48l-144 -237q-25 -41 -46 -41q-31 0 -31 24q0 11 8 33l100 278q13 36 60 36q70 0 70 -45zM1485 696
q0 438 -260 590q-92 54 -193 54q-99 0 -190 -53q-262 -153 -262 -591q0 -469 265 -632q91 -56 189 -56q90 0 184 55q267 156 267 633z" />
  </g>

</svg>
