<?xml version="1.0" standalone="no"?>
<!DOCTYPE svg PUBLIC "-//W3C//DTD SVG 1.1//EN" "http://www.w3.org/Graphics/SVG/1.1/DTD/svg11.dtd" >
<svg viewBox="0 -442 2048 2048">
  <g transform="matrix(1 0 0 -1 0 1606)">
   <path fill="currentColor"
d="M1767 1068q0 -33 -31 -33q-23 0 -31 30q-4 24 -9 48q-16 49 -76 79q-53 27 -109 27q-171 0 -252 -200q-59 -145 -59 -346v-529q0 -29 7 -44q22 -46 245 -39v-61q-76 6 -159 6h-362q-83 0 -159 -6v61l75 -1q147 0 170 41q8 14 8 42v530q0 201 -59 347q-82 199 -253 199
q-55 0 -105 -25q-57 -28 -74 -75q-6 -26 -13 -51q-10 -33 -33 -33q-30 0 -30 33q0 116 69 206q75 96 188 96q174 0 282 -159q84 -124 115 -319h2q30 194 115 319q108 159 280 159q113 0 188 -96q70 -90 70 -206zM238 1324q0 -20 -17 -48l-144 -237q-25 -41 -46 -41
q-31 0 -31 24q0 11 8 33l100 278q13 36 60 36q70 0 70 -45z" />
  </g>

</svg>
