<?xml version="1.0" standalone="no"?>
<!DOCTYPE svg PUBLIC "-//W3C//DTD SVG 1.1//EN" "http://www.w3.org/Graphics/SVG/1.1/DTD/svg11.dtd" >
<svg viewBox="0 -442 2048 2048">
  <g transform="matrix(1 0 0 -1 0 1606)">
   <path fill="currentColor"
d="M1624 320l-64 -320h-327q-25 0 -31.5 7t-6.5 33q0 150 101 429t101 429q0 186 -103 312q-111 136 -293 136t-293 -136q-103 -126 -103 -312q0 -150 101 -429t101 -429q0 -40 -39 -40h-326l-64 320h48q17 -115 35.5 -146t38.5 -39q15 -7 56 -7h194q-27 111 -120 256
q-144 223 -153 240q-76 141 -76 272q0 221 194 364q177 130 406 130t405 -130q194 -143 194 -364q0 -131 -76 -272q-9 -18 -153 -240q-93 -145 -120 -256h195q41 0 56 7q19 8 38 40q18 29 35 145h49zM238 1324q0 -20 -17 -48l-144 -237q-25 -41 -46 -41q-31 0 -31 24
q0 11 8 33l100 278q13 36 60 36q70 0 70 -45z" />
  </g>

</svg>
