<?xml version="1.0" standalone="no"?>
<!DOCTYPE svg PUBLIC "-//W3C//DTD SVG 1.1//EN" "http://www.w3.org/Graphics/SVG/1.1/DTD/svg11.dtd" >
<svg viewBox="0 -442 2048 2048">
  <g transform="matrix(1 0 0 -1 0 1606)">
   <path fill="currentColor"
d="M1413 0q-71 6 -113 6h-361q-36 0 -107 -6v61h78q60 0 85 11q39 17 39 69v1141h-590v-1141q0 -26 6 -41q13 -32 90 -39q11 -1 109 0v-61q-71 6 -113 6h-360q-37 0 -108 -6v61h78q60 0 85 11q39 17 39 69v1062q0 26 -6 41q-13 32 -90 38h-106v62h1345v-62q-8 0 -30 1h-31
q-121 0 -137 -39q-6 -14 -6 -41v-1062q0 -26 6 -41q13 -32 90 -39q11 -1 108 0v-61z" />
  </g>

</svg>
