<?xml version="1.0" standalone="no"?>
<!DOCTYPE svg PUBLIC "-//W3C//DTD SVG 1.1//EN" "http://www.w3.org/Graphics/SVG/1.1/DTD/svg11.dtd" >
<svg viewBox="0 -442 2048 2048">
  <g transform="matrix(1 0 0 -1 0 1606)">
   <path fill="currentColor"
d="M1373 1070q0 -14 -25 -22q-108 -34 -108 -220q0 -508 -445 -563v-125q0 -22 8 -40q20 -43 245 -39v-61q-74 6 -143 6h-382q-69 0 -143 -6v61q12 0 42 -1q26 -1 41 -1q140 0 160 40q11 22 11 62v52q-1 40 -1 52q-402 52 -432 516q-9 132 -9 136q-13 93 -53 114
q-21 7 -42 13q-29 11 -29 26q0 22 35 22h87q106 0 146 -92q24 -57 29 -184q7 -198 50 -303q62 -156 218 -197v890q0 25 -7 42q-17 41 -246 39v62q74 -6 143 -6h382q69 0 143 6v-62q-9 0 -30.5 1t-32.5 1q-162 0 -182 -42q-8 -17 -8 -41v-890q263 63 281 475q5 114 15 162
q23 101 84 127q35 15 123 15q75 0 75 -25z" />
  </g>

</svg>
