<?xml version="1.0" standalone="no"?>
<!DOCTYPE svg PUBLIC "-//W3C//DTD SVG 1.1//EN" "http://www.w3.org/Graphics/SVG/1.1/DTD/svg11.dtd" >
<svg viewBox="0 -442 2048 2048">
  <g transform="matrix(1 0 0 -1 0 1606)">
   <path fill="currentColor"
d="M628 1457q0 -20 -17 -48l-144 -237q-25 -41 -46 -41q-31 0 -31 24q0 11 8 33l100 278q13 36 60 36q70 0 70 -45zM820 255q0 -32 -34 -90q-110 -189 -326 -189q-148 0 -260 61q-138 75 -138 211q0 99 81 167q67 57 172 81q-93 22 -151 81q-64 65 -64 156q0 123 132 182
q98 45 239 45q105 0 192 -28q123 -40 123 -122q0 -33 -24.5 -55.5t-57.5 -22.5q-39 0 -70 47q-52 77 -61 86q-47 47 -126 47q-202 0 -202 -194q0 -188 199 -188q22 0 63 11t63 11q86 0 86 -56q0 -55 -87 -55q-21 0 -62.5 11t-62.5 11q-224 0 -224 -205q0 -228 255 -228
q204 0 290 221q11 29 27 29q28 0 28 -25z" />
  </g>

</svg>
