<?xml version="1.0" standalone="no"?>
<!DOCTYPE svg PUBLIC "-//W3C//DTD SVG 1.1//EN" "http://www.w3.org/Graphics/SVG/1.1/DTD/svg11.dtd" >
<svg viewBox="0 -442 2048 2048">
  <g transform="matrix(1 0 0 -1 0 1606)">
   <path fill="currentColor"
d="M758 1457q0 -20 -17 -48l-144 -237q-25 -41 -46 -41q-31 0 -31 24q0 11 8 33l100 278q13 36 60 36q70 0 70 -45zM1046 -428h-148q-40 135 -40 347v757q0 237 -158 237q-129 0 -212 -104q-77 -97 -77 -229v-580h-149v778q0 39 -19 71q-23 37 -60 37q-78 0 -78 -172
q0 -8 2 -85h-55v120q0 84 45 141q49 62 131 62q84 0 129 -69q40 -59 40 -147q101 224 317 224q293 0 293 -317v-45q-1 -29 -1 -44v-659q0 -140 40 -323z" />
  </g>

</svg>
