<?xml version="1.0" standalone="no"?>
<!DOCTYPE svg PUBLIC "-//W3C//DTD SVG 1.1//EN" "http://www.w3.org/Graphics/SVG/1.1/DTD/svg11.dtd" >
<svg viewBox="0 -442 2048 2048">
  <g transform="matrix(1 0 0 -1 0 1606)">
   <path fill="currentColor"
d="M764 1561q0 -20 -17 -48l-144 -237q-25 -41 -46 -41q-31 0 -31 24q0 11 8 33l100 278q13 36 60 36q70 0 70 -45zM854 1233q0 -42 -29.5 -72t-71.5 -30q-41 0 -70.5 30.5t-29.5 71.5q0 40 30 70t70 30q42 0 71.5 -29t29.5 -71zM482 1233q0 -42 -29.5 -72t-71.5 -30
q-41 0 -71 30.5t-30 71.5q0 40 30.5 70t70.5 30q42 0 71.5 -29t29.5 -71zM1051 496q0 -211 -106 -357q-119 -163 -322 -163q-178 0 -271 103q-90 98 -90 278v421q0 39 -19 71q-23 37 -60 37q-79 0 -79 -173q0 -6 3 -84h-55v120q0 84 45 141q49 62 131 62q88 0 138 -66
q45 -59 45 -150v-357q0 -355 223 -355q159 0 241 173q64 134 64 313q0 328 -233 410l5 32q160 -18 255 -160q85 -127 85 -296z" />
  </g>

</svg>
