<?xml version="1.0" standalone="no"?>
<!DOCTYPE svg PUBLIC "-//W3C//DTD SVG 1.1//EN" "http://www.w3.org/Graphics/SVG/1.1/DTD/svg11.dtd" >
<svg viewBox="0 -442 2048 2048">
  <g transform="matrix(1 0 0 -1 0 1606)">
   <path fill="currentColor"
d="M1151 187q0 -84 -45 -141q-50 -62 -131 -62q-139 0 -165 167q-137 -175 -301 -175q-192 0 -326 147q-130 142 -130 336q0 197 138 342t334 145q92 0 171 -55q76 -53 116 -139l81 194h47v-788q0 -39 20 -71q23 -37 60 -37q78 0 78 171q0 -9 -2 86h55v-120zM799 291v301
q0 112 -73 203q-79 98 -188 98q-96 0 -175 -77q-69 -67 -103 -167q-30 -87 -30 -190q0 -152 66 -280q81 -155 219 -155q104 0 194 82t90 185z" />
  </g>

</svg>
