<?xml version="1.0" standalone="no"?>
<!DOCTYPE svg PUBLIC "-//W3C//DTD SVG 1.1//EN" "http://www.w3.org/Graphics/SVG/1.1/DTD/svg11.dtd" >
<svg viewBox="0 -442 2048 2048">
  <g transform="matrix(1 0 0 -1 0 1606)">
   <path fill="currentColor"
d="M898 427q0 -200 -127 -328q-122 -123 -272 -123q-131 0 -263 113q0 -22 1 -77v-77q0 -221 -37 -352h-148q37 173 37 311v1110q0 467 361 467q157 0 255 -86q103 -90 103 -244q0 -183 -193 -308q283 -133 283 -406zM728 359q0 113 -43 240q-49 143 -123 206
q-56 -27 -110 -27q-31 0 -65 15q-42 18 -42 44q0 47 87 47q54 0 131 -30q88 103 88 292q0 277 -211 277q-204 0 -204 -345v-845q0 -48 58 -119q74 -90 184 -90q126 0 193 109q57 92 57 226z" />
  </g>

</svg>
