<?xml version="1.0" standalone="no"?>
<!DOCTYPE svg PUBLIC "-//W3C//DTD SVG 1.1//EN" "http://www.w3.org/Graphics/SVG/1.1/DTD/svg11.dtd" >
<svg viewBox="0 -442 2048 2048">
  <g transform="matrix(1 0 0 -1 0 1606)">
   <path fill="currentColor"
d="M876 459q0 -186 -128 -332q-133 -151 -317 -151q-177 0 -282 127q-97 119 -97 300q0 183 122 313q118 125 302 152q-35 39 -138 121q-91 73 -129 124q-56 77 -56 173q0 97 116 153q92 44 201 44q121 0 214 -54q113 -64 113 -176q0 -101 -98 -101q-43 0 -71 28t-28 71
q0 95 101 99q-80 78 -229 78q-80 0 -140 -31q-74 -38 -74 -111q0 -102 160 -227q271 -210 298 -238q160 -165 160 -362zM730 399q0 187 -210 421q-153 -24 -238 -134q-81 -105 -81 -263q0 -152 59 -259q73 -134 212 -134q132 0 202 125q56 101 56 244z" />
  </g>

</svg>
