<?xml version="1.0" standalone="no"?>
<!DOCTYPE svg PUBLIC "-//W3C//DTD SVG 1.1//EN" "http://www.w3.org/Graphics/SVG/1.1/DTD/svg11.dtd" >
<svg viewBox="0 -442 2048 2048">
  <g transform="matrix(1 0 0 -1 0 1606)">
   <path fill="currentColor"
d="M829 -99q0 -147 -85 -241q-88 -98 -233 -98q-137 0 -137 88q0 71 75 71q28 0 82.5 -14.5t82.5 -14.5q61 0 103 50q40 47 40 109q0 54 -40.5 96t-94.5 42q-31 0 -92.5 -6.5t-92.5 -6.5q-385 0 -385 443q0 400 284 723q-190 -2 -190 148q0 118 174 167l16 -37
q-104 -45 -104 -123q0 -51 34.5 -83.5t85.5 -32.5q11 0 23 2q56 64 168 139q127 86 192 86q48 0 48 -38q0 -86 -148 -158q-108 -53 -225 -73q-145 -134 -224 -332q-75 -189 -75 -395q0 -153 68.5 -219.5t222.5 -66.5q34 0 101 4t101 4q97 0 161 -67.5t64 -165.5z" />
  </g>

</svg>
