<?xml version="1.0" standalone="no"?>
<!DOCTYPE svg PUBLIC "-//W3C//DTD SVG 1.1//EN" "http://www.w3.org/Graphics/SVG/1.1/DTD/svg11.dtd" >
<svg viewBox="0 -442 2048 2048">
  <g transform="matrix(1 0 0 -1 0 1606)">
   <path fill="currentColor"
d="M920 -93q0 -138 -84 -239q-89 -108 -224 -108q-47 0 -91 21q-55 26 -55 68q0 25 22.5 46t47.5 21q27 0 79.5 -15t79.5 -15q75 0 117.5 45.5t42.5 120.5q0 53 -38 94.5t-91 41.5q-37 0 -112 -6t-112 -6q-192 0 -312 84q-138 97 -138 281q0 263 252 437q-116 85 -116 196
q0 97 97 201q-156 36 -156 151q0 116 175 124v-33q-104 -13 -104 -89q0 -96 129 -105q202 179 327 179q44 0 44 -44q0 -82 -135 -132q-102 -38 -206 -41q-111 -109 -111 -205q0 -105 122 -174q62 36 161 62t172 26q28 0 57 -13q35 -16 35 -40q0 -49 -96 -74
q-66 -17 -141 -17q-79 0 -184 17q-256 -184 -256 -394q0 -124 92 -191q81 -59 210 -59q44 0 131 6t131 6q106 0 172 -61.5t66 -166.5z" />
  </g>

</svg>
