<?xml version="1.0" standalone="no"?>
<!DOCTYPE svg PUBLIC "-//W3C//DTD SVG 1.1//EN" "http://www.w3.org/Graphics/SVG/1.1/DTD/svg11.dtd" >
<svg viewBox="0 -442 2048 2048">
  <g transform="matrix(1 0 0 -1 0 1606)">
   <path fill="currentColor"
d="M853 769q0 -35 -23 -58t-58 -23q-47 0 -74 56q-48 99 -52 105q-43 56 -128 56q-60 0 -120 -34q-168 -95 -168 -405q0 -109 58 -216q68 -126 168 -126q20 0 60 3t60 3q106 0 169.5 -62.5t63.5 -169.5q0 -135 -90 -233q-93 -101 -227 -101q-139 0 -139 84q0 22 22 44.5
t44 22.5q29 0 82 -19t82 -19q67 0 112 51t45 118q0 140 -123 140q-18 0 -53 -5t-52 -5q-194 0 -328 147q-131 142 -131 338q0 200 130 347q134 152 332 152q99 0 207 -48q131 -58 131 -143z" />
  </g>

</svg>
