<?xml version="1.0" standalone="no"?>
<!DOCTYPE svg PUBLIC "-//W3C//DTD SVG 1.1//EN" "http://www.w3.org/Graphics/SVG/1.1/DTD/svg11.dtd" >
<svg viewBox="0 -442 2048 2048">
  <g transform="matrix(1 0 0 -1 0 1606)">
   <path fill="currentColor"
d="M1149 483q0 -189 -133 -332q-144 -156 -373 -173v-390h-84v389q-228 10 -373 160q-134 139 -134 324q0 160 105 294q112 142 295 187l-3 -53q-120 -44 -181 -164q-44 -87 -50 -191q-8 -163 69 -305q95 -172 272 -196v590q0 149 21 206q38 101 162 101q152 0 279.5 -138.5
t127.5 -308.5zM983 418q6 159 -59 290q-75 151 -200 151q-81 0 -81 -193v-635q174 10 263 134q72 100 77 253z" />
  </g>

</svg>
