<?xml version="1.0" standalone="no"?>
<!DOCTYPE svg PUBLIC "-//W3C//DTD SVG 1.1//EN" "http://www.w3.org/Graphics/SVG/1.1/DTD/svg11.dtd" >
<svg viewBox="-23 -442 2048 2048">
  <g transform="matrix(1 0 0 -1 0 1606)">
   <path fill="currentColor"
d="M571 1240q0 -47 -32 -79.5t-79 -32.5q-45 0 -78 33.5t-33 78.5q0 44 33.5 77t77.5 33q47 0 79 -32t32 -78zM199 1240q0 -47 -32 -79.5t-79 -32.5q-45 0 -78 33.5t-33 78.5q0 44 33.5 77t77.5 33q47 0 79 -32t32 -78zM695 266q0 -114 -48 -194q-58 -96 -164 -96
q-133 0 -204 80q-69 76 -69 210v473q0 86 -41 106q-22 12 -117 11v67l299 23v-685q0 -231 148 -231q102 0 131 139q14 64 12 219h53v-122z" />
  </g>

</svg>
