<?xml version="1.0" standalone="no"?>
<!DOCTYPE svg PUBLIC "-//W3C//DTD SVG 1.1//EN" "http://www.w3.org/Graphics/SVG/1.1/DTD/svg11.dtd" >
<svg viewBox="0 -442 2048 2048">
  <g transform="matrix(1 0 0 -1 0 1606)">
   <path fill="currentColor"
d="M638 1457q0 -20 -17 -48l-144 -237q-25 -41 -46 -41q-31 0 -31 24q0 11 8 33l100 278q13 36 60 36q70 0 70 -45zM945 486q0 -206 -124 -354q-131 -156 -333 -156q-192 0 -317 148q-119 139 -119 335q0 199 123 346q130 155 325 155q194 0 322 -141q123 -136 123 -333z
M782 406q0 187 -65 326q-84 180 -250 180q-135 0 -200 -121q-52 -96 -52 -243q0 -186 67 -331q87 -187 251 -187q249 0 249 376z" />
  </g>

</svg>
