<?xml version="1.0" standalone="no"?>
<!DOCTYPE svg PUBLIC "-//W3C//DTD SVG 1.1//EN" "http://www.w3.org/Graphics/SVG/1.1/DTD/svg11.dtd" >
<svg viewBox="0 -442 2048 2048">
  <g transform="matrix(1 0 0 -1 0 1606)">
   <path fill="currentColor"
d="M728 1457q0 -20 -17 -48l-144 -237q-25 -41 -46 -41q-31 0 -31 24q0 11 8 33l100 278q13 36 60 36q70 0 70 -45zM1051 496q0 -211 -106 -357q-119 -163 -322 -163q-178 0 -271 103q-90 98 -90 278v421q0 39 -19 71q-23 37 -60 37q-79 0 -79 -173q0 -6 3 -84h-55v120
q0 84 45 141q49 62 131 62q88 0 138 -66q45 -59 45 -150v-357q0 -355 223 -355q159 0 241 173q64 134 64 313q0 328 -233 410l5 32q160 -18 255 -160q85 -127 85 -296z" />
  </g>

</svg>
