<?xml version="1.0" standalone="no"?>
<!DOCTYPE svg PUBLIC "-//W3C//DTD SVG 1.1//EN" "http://www.w3.org/Graphics/SVG/1.1/DTD/svg11.dtd" >
<svg viewBox="0 -442 2048 2048">
  <g transform="matrix(1 0 0 -1 0 1606)">
   <path fill="currentColor"
d="M1426 1284q-159 -2 -281 -118l-306 -291l391 -478q107 -131 107 -310q0 -203 -127 -349q-134 -152 -334 -152q-121 0 -215 54q-113 64 -113 176q0 100 97 100q42 0 70.5 -28t28.5 -70q0 -94 -100 -99q79 -78 229 -78q59 0 120 34q182 102 182 353q0 180 -103 308
l-347 430l-281 -268v-359q0 -28 9 -45q18 -34 196 -33v-61q-71 6 -120 6h-347q-43 0 -114 -6v61q8 0 27 -1h28q125 0 141 40q6 15 6 44v1066q0 27 -7 41q-17 35 -195 33v62q70 -6 119 -6h342q50 0 120 6v-62q-9 0 -28 1t-29 1q-126 0 -142 -40q-6 -15 -6 -44v-636l618 588
q36 34 36 67q0 61 -91 63v62q69 -6 180 -6q186 0 239 6v-62z" />
  </g>

</svg>
