<?xml version="1.0" standalone="no"?>
<!DOCTYPE svg PUBLIC "-//W3C//DTD SVG 1.1//EN" "http://www.w3.org/Graphics/SVG/1.1/DTD/svg11.dtd" >
<svg viewBox="0 -442 2048 2048">
  <g transform="matrix(1 0 0 -1 0 1606)">
   <path fill="currentColor"
d="M947 433q0 -186 -126 -320q-128 -137 -313 -137q-217 0 -340 185q-95 143 -95 378q0 242 77 450q91 247 266 361q129 84 259 84q78 0 133 -36q63 -41 63 -116q0 -169 -247 -258q-180 -65 -390 -66q-51 -132 -56 -279q130 183 342 183q177 0 302 -125.5t125 -303.5z
M759 1263q0 85 -108 85q-131 0 -241 -98q-98 -86 -150 -219q158 2 300 48q199 64 199 184zM785 367q0 168 -64 292q-80 157 -232 157q-122 0 -186 -108q-52 -88 -52 -219q0 -167 66 -297q83 -162 234 -162q234 0 234 337z" />
  </g>

</svg>
