<?xml version="1.0" standalone="no"?>
<!DOCTYPE svg PUBLIC "-//W3C//DTD SVG 1.1//EN" "http://www.w3.org/Graphics/SVG/1.1/DTD/svg11.dtd" >
<svg viewBox="0 -442 2048 2048">
  <g transform="matrix(1 0 0 -1 0 1606)">
   <path fill="currentColor"
d="M1154 706q0 -17 -15 -17q-40 0 -103 19q0 -245 -85 -456q-111 -273 -315 -273q-246 0 -325 172q-49 108 -49 387q0 39 -19 71q-23 37 -60 37q-81 0 -79 -173h-52v36q0 84 45 141q50 62 131 62q88 0 136 -66q42 -58 42 -150v-44q0 -431 230 -431q147 0 206 260
q37 160 35 385v81q-184 55 -301 156q-146 125 -146 292q0 114 53 205q63 108 169 108q201 0 306 -293q74 -209 78 -464q118 -16 118 -45zM876 797q-1 209 -33 374q-53 274 -175 274q-82 0 -131 -96q-40 -79 -40 -170q0 -264 379 -382z" />
  </g>

</svg>
