<?xml version="1.0" standalone="no"?>
<!DOCTYPE svg PUBLIC "-//W3C//DTD SVG 1.1//EN" "http://www.w3.org/Graphics/SVG/1.1/DTD/svg11.dtd" >
<svg viewBox="0 -442 2048 2048">
  <g transform="matrix(1 0 0 -1 0 1606)">
   <path fill="currentColor"
d="M1377 729q0 -249 -170 -438q-174 -193 -434 -212v-74q0 -73 40 -248q10 -46 10 -73q0 -52 -28 -89t-73 -37q-46 0 -73 46q-23 40 -23 93q0 34 22 135q24 107 24 197v50q-259 19 -434 213q-170 188 -170 437q0 264 185 459q191 202 469 202q279 0 470 -202
q185 -194 185 -459zM1175 756q0 403 -266 538q-90 46 -187 46q-96 0 -184 -45q-268 -135 -268 -539q0 -436 273 -581q88 -47 181 -47q85 0 177 47q144 73 215 246q59 145 59 335z" />
  </g>

</svg>
