<?xml version="1.0" standalone="no"?>
<!DOCTYPE svg PUBLIC "-//W3C//DTD SVG 1.1//EN" "http://www.w3.org/Graphics/SVG/1.1/DTD/svg11.dtd" >
<svg viewBox="0 -442 2048 2048">
  <g transform="matrix(1 0 0 -1 0 1606)">
   <path fill="currentColor"
d="M1002 508q0 -168 -125 -291.5t-308 -138.5v-93q0 -88 28 -185q32 -111 32 -136q0 -45 -28.5 -75.5t-72.5 -30.5q-45 0 -72 38q-24 34 -24 81q0 32 26 130q29 110 29 202v68q-183 14 -308.5 139t-125.5 292q0 182 138.5 317t336.5 135q196 0 335 -135.5t139 -316.5z
M823 526q0 191 -59 271q-83 114 -238 114q-163 0 -242 -118q-54 -78 -54 -267q0 -193 58 -277q83 -119 240 -119q165 0 245 131q50 81 50 265z" />
  </g>

</svg>
