<?xml version="1.0" standalone="no"?>
<!DOCTYPE svg PUBLIC "-//W3C//DTD SVG 1.1//EN" "http://www.w3.org/Graphics/SVG/1.1/DTD/svg11.dtd" >
<svg viewBox="0 -442 2048 2048">
  <g transform="matrix(1 0 0 -1 0 1606)">
   <path fill="currentColor"
d="M1128 1370q0 -110 -109 -146q-59 -19 -200 -19h-357q-161 0 -270 -164q-98 -145 -98 -314q0 -207 144 -317q130 -101 344 -101q59 0 93 -42q28 -36 28 -88v-174q0 -73 40 -248q10 -46 10 -73q0 -52 -28 -89t-73 -37q-46 0 -73 46q-23 40 -23 93q0 34 22 135
q24 107 24 197q0 60 -10 85q-16 41 -66 46q-232 23 -367 178t-135 399q0 224 116 402q133 204 345 204h405q125 0 236 75q2 -23 2 -48z" />
  </g>

</svg>
