<?xml version="1.0" standalone="no"?>
<!DOCTYPE svg PUBLIC "-//W3C//DTD SVG 1.1//EN" "http://www.w3.org/Graphics/SVG/1.1/DTD/svg11.dtd" >
<svg viewBox="0 -442 2048 2048">
  <g transform="matrix(1 0 0 -1 0 1606)">
   <path fill="currentColor"
d="M1231 804h-592q-329 0 -451 -242q-40 -79 -40 -166q0 -120 73.5 -193.5t193.5 -73.5q27 0 81.5 3.5t81.5 3.5q99 0 162.5 -69t63.5 -169q0 -134 -91 -233q-94 -101 -227 -101q-139 0 -139 83q0 23 22 45.5t45 22.5q29 0 82 -18.5t82 -18.5q66 0 111 50.5t45 117.5
q0 144 -133 144q-28 0 -82 -7t-82 -7q-174 0 -281 128q-101 121 -101 298q0 240 171 385q161 136 405 136h600v-119z" />
  </g>

</svg>
