<?xml version="1.0" standalone="no"?>
<!DOCTYPE svg PUBLIC "-//W3C//DTD SVG 1.1//EN" "http://www.w3.org/Graphics/SVG/1.1/DTD/svg11.dtd" >
<svg viewBox="0 -442 2048 2048">
  <g transform="matrix(1 0 0 -1 0 1606)">
   <path fill="currentColor"
d="M1174 175q0 -158 -20 -189q-4 -7 -16 -7q-22 0 -22 57q0 205 -119 393q-166 -188 -235 -383q-26 -74 -67 -74q-37 0 -61.5 24.5t-24.5 61.5q0 136 325 459q-58 72 -134 141q-28 -36 -54 -65l-481 -543q-69 -78 -120 -78q-29 0 -55 23t-26 52q0 32 46 67q313 235 636 590
q-225 180 -504 180q-32 0 -32 23q0 11 7 16q31 20 188 20q338 0 553.5 -215t215.5 -553z" />
  </g>

</svg>
