<?xml version="1.0" standalone="no"?>
<!DOCTYPE svg PUBLIC "-//W3C//DTD SVG 1.1//EN" "http://www.w3.org/Graphics/SVG/1.1/DTD/svg11.dtd" >
<svg viewBox="0 -442 2048 2048">
  <g transform="matrix(1 0 0 -1 0 1606)">
   <path fill="currentColor"
d="M1618 617q0 -306 -103 -574q-131 -344 -375 -401q-43 -10 -114 -10q-35 0 -106 4t-106 4q-165 0 -263 -82h-44q16 123 116 170q62 29 212 41q142 12 169 15q95 11 165 35q186 63 277 273q-121 -135 -303 -135q-236 0 -296 247h-8q-60 -247 -296 -247q-235 0 -366 222
q-109 186 -109 438q0 345 161 546q174 218 511 227v-43q-470 -25 -470 -712q0 -626 295 -626q94 0 160 105q59 93 59 193q0 112 -22 212q-24 109 -24 127q0 125 105 125t105 -125q0 -18 -24 -127q-22 -100 -22 -212q0 -100 59 -193q66 -105 160 -105q295 0 295 626
q0 687 -470 712v43q337 -9 511 -227q161 -201 161 -546z" />
  </g>

</svg>
