<?xml version="1.0" standalone="no"?>
<!DOCTYPE svg PUBLIC "-//W3C//DTD SVG 1.1//EN" "http://www.w3.org/Graphics/SVG/1.1/DTD/svg11.dtd" >
<svg viewBox="0 -442 2048 2048">
  <g transform="matrix(1 0 0 -1 0 1606)">
   <path fill="currentColor"
d="M1241 430q0 -723 -318 -800q-49 -12 -136 -10q-99 2 -137 -3q-80 -11 -131 -59h-44q21 151 178 183l294 56q166 72 209 321q-92 -142 -249 -142q-224 0 -256 267h-8q-32 -267 -256 -267q-162 0 -255 152q-79 129 -79 302q0 244 121 382q128 145 369 148v-48
q-327 -10 -327 -470q0 -169 25 -257q44 -155 169 -155q99 0 149 102q39 79 39 189q0 115 -22 217q-24 112 -24 127q0 116 95 116t95 -116q0 -15 -24 -127q-22 -102 -22 -217q0 -110 39 -189q50 -102 149 -102q125 0 169 155q25 88 25 257q0 460 -327 470v48q242 -3 369 -148
q121 -137 121 -382z" />
  </g>

</svg>
