<?xml version="1.0" standalone="no"?>
<!DOCTYPE svg PUBLIC "-//W3C//DTD SVG 1.1//EN" "http://www.w3.org/Graphics/SVG/1.1/DTD/svg11.dtd" >
<svg viewBox="0 -442 2048 2048">
  <g transform="matrix(1 0 0 -1 0 1606)">
   <path fill="currentColor"
d="M1500 0q-71 6 -117 6h-373q-41 0 -112 -6v61q8 0 30 -1h31q124 0 143 36q9 17 9 49v586q-43 -88 -119 -157q-185 -168 -420 -168q-196 0 -355 144q-164 147 -164 341q0 201 129 347q135 152 333 152q121 0 215 -54q113 -64 113 -176q0 -100 -97 -100q-42 0 -70.5 28
t-28.5 70q0 94 100 99q-79 78 -229 78q-60 0 -120 -34q-168 -95 -168 -405q0 -161 89 -291q99 -145 253 -145q220 0 392 164q147 140 147 358v219q0 32 -9 49q-15 28 -93 34h-111v62q70 -6 115 -6h376q42 0 111 6v-62q-11 0 -36 1t-39 1q-140 0 -140 -85v-1057q0 -27 11 -48
q20 -37 204 -35v-61z" />
  </g>

</svg>
