<?xml version="1.0" standalone="no"?>
<!DOCTYPE svg PUBLIC "-//W3C//DTD SVG 1.1//EN" "http://www.w3.org/Graphics/SVG/1.1/DTD/svg11.dtd" >
<svg viewBox="0 -442 2048 2048">
  <g transform="matrix(1 0 0 -1 0 1606)">
   <path fill="currentColor"
d="M1151 0q-193 6 -238 6q-41 0 -234 -6v66q51 -1 44 -1q66 0 89 13q33 18 33 79v307q-27 -44 -72 -83q-135 -119 -308 -119q-171 0 -287 93q-125 101 -125 267q0 154 110 248q104 90 261 90q89 0 159 -39q85 -47 85 -129q0 -76 -78 -76q-79 0 -79 75q0 55 61 75
q-60 39 -146 39q-105 0 -164 -89q-52 -78 -52 -188q0 -125 64 -214q71 -99 191 -99q154 0 265 101q115 104 115 256v94q0 61 -33 79q-23 13 -89 13q7 0 -44 -1v66q193 -6 234 -6q45 0 238 6v-66q-51 1 -44 1q-66 0 -89 -13q-33 -18 -33 -79v-609q0 -61 33 -79q23 -13 89 -13
q-7 0 44 1v-66z" />
  </g>

</svg>
