<?xml version="1.0" standalone="no"?>
<!DOCTYPE svg PUBLIC "-//W3C//DTD SVG 1.1//EN" "http://www.w3.org/Graphics/SVG/1.1/DTD/svg11.dtd" >
<svg viewBox="0 -442 2048 2048">
  <g transform="matrix(1 0 0 -1 0 1606)">
   <path fill="currentColor"
d="M1465 369q0 -253 -114 -482q-140 -278 -367 -278q-84 0 -246 43t-246 43q-173 0 -206 -137h-68q33 136 141 189q82 40 239 40q64 0 188 -32.5t188 -32.5q154 0 233 242q56 173 56 371q0 278 -98 486q-127 269 -373 269q-197 0 -316 -170q-32 -46 -32 -72v-707
q0 -31 8 -45q24 -43 197 -35v-61q-68 6 -115 6h-358q-42 0 -108 -6v61q42 -1 62 -1q110 0 133 36q7 11 7 41v1068q0 32 -7 45q-21 39 -195 34v62q66 -6 112 -6h354q48 0 115 6v-62q-42 2 -61 2q-114 0 -136 -36q-8 -13 -8 -45v-175q157 110 348 110q320 0 504 -231
q169 -212 169 -540z" />
  </g>

</svg>
