<?xml version="1.0" standalone="no"?>
<!DOCTYPE svg PUBLIC "-//W3C//DTD SVG 1.1//EN" "http://www.w3.org/Graphics/SVG/1.1/DTD/svg11.dtd" >
<svg viewBox="0 -442 2048 2048">
  <g transform="matrix(1 0 0 -1 0 1606)">
   <path fill="currentColor"
d="M1131 446q0 -294 -220 -421q-85 -49 -174 -49q-227 0 -402 286q-43 70 -99 70q-58 0 -58 -64q0 -41 32 -104l-46 -26q-34 66 -34 120q0 68 46 118t114 50q113 0 206 -155q53 -88 130 -147q89 -69 179 -69q98 0 155 70q53 65 53 164q0 143 -85 319q-74 154 -184 278
q-190 -168 -342 -168q-204 0 -317 200q-33 58 -33 114q0 116 104 188q93 63 214 63q239 0 481 -223q54 73 84 73q12 0 12 -14q0 -30 -65 -88q249 -247 249 -585zM715 918q-256 283 -444 283q-73 0 -119.5 -46.5t-46.5 -119.5q0 -111 105 -192q98 -75 213 -75q135 0 292 150z
" />
  </g>

</svg>
