<?xml version="1.0" standalone="no"?>
<!DOCTYPE svg PUBLIC "-//W3C//DTD SVG 1.1//EN" "http://www.w3.org/Graphics/SVG/1.1/DTD/svg11.dtd" >
<svg viewBox="0 -442 2048 2048">
  <g transform="matrix(1 0 0 -1 0 1606)">
   <path fill="currentColor"
d="M950 420q0 -189 -134.5 -326t-322.5 -137q-168 0 -296.5 121.5t-128.5 288.5q0 131 69.5 231t191.5 150l184 62q113 39 167 88q72 67 72 175q0 109 -74.5 185.5t-183.5 76.5q-160 0 -245 -99q109 0 109 -100q0 -42 -29.5 -69.5t-71.5 -27.5q-96 0 -96 109q0 112 120 182
q102 60 222 60q159 0 270 -111.5t111 -270.5q0 -114 -61 -207t-165 -142q-48 -23 -126 -47q-111 -34 -128 -40q-108 -38 -157 -114q-47 -72 -47 -161q0 -114 100 -198q95 -81 211 -81q109 0 201 60t143 159q30 58 48 177q5 32 24 32q23 0 23 -26z" />
  </g>

</svg>
