<?xml version="1.0" standalone="no"?>
<!DOCTYPE svg PUBLIC "-//W3C//DTD SVG 1.1//EN" "http://www.w3.org/Graphics/SVG/1.1/DTD/svg11.dtd" >
<svg viewBox="0 -442 2048 2048">
  <g transform="matrix(1 0 0 -1 0 1606)">
   <path fill="currentColor"
d="M876 526q0 -169 -160 -328q-37 -37 -298 -238q-160 -123 -160 -205q0 -73 74 -111q60 -31 140 -31q148 0 229 78q-43 1 -72 29t-29 70q0 43 28 71t71 28q98 0 98 -101q0 -112 -112 -176q-94 -54 -215 -54q-109 0 -202 44q-115 56 -115 153q0 113 120 224q102 87 203 174
q-178 26 -296 136q-128 120 -128 293q0 168 116 275q113 103 283 103q177 0 301 -128t124 -306zM730 586q0 132 -67 221q-73 99 -201 99q-135 0 -203 -110q-58 -91 -58 -234q0 -147 86 -242.5t233 -118.5q104 114 142 175q68 106 68 210z" />
  </g>

</svg>
