<?xml version="1.0" standalone="no"?>
<!DOCTYPE svg PUBLIC "-//W3C//DTD SVG 1.1//EN" "http://www.w3.org/Graphics/SVG/1.1/DTD/svg11.dtd" >
<svg viewBox="0 -442 2048 2048">
  <g transform="matrix(1 0 0 -1 0 1606)">
   <path fill="currentColor"
d="M1356 1110q0 -97 -33 -97q-29 0 -34 26q0 -1 0 49q0 66 -63.5 129t-129.5 63q-168 0 -293 -209q434 -1027 434 -1049t-28 -22h-905q-24 0 -24 22q0 13 10 37l383 911q-61 184 -86 233q-74 144 -177 144q-145 0 -217 -114q125 3 125 -110q0 -47 -31 -78.5t-78 -31.5
q-48 0 -79 32.5t-31 81.5q0 117 101 193q93 70 214 70q130 0 215 -60q77 -54 137 -176q145 236 325 236q122 0 195 -80q70 -77 70 -200zM1010 149l-302 726l-306 -726h608z" />
  </g>

</svg>
