<?xml version="1.0" standalone="no"?>
<!DOCTYPE svg PUBLIC "-//W3C//DTD SVG 1.1//EN" "http://www.w3.org/Graphics/SVG/1.1/DTD/svg11.dtd" >
<svg viewBox="0 -442 2048 2048">
  <g transform="matrix(1 0 0 -1 0 1606)">
   <path fill="currentColor"
d="M951 768q0 -68 -37 -68q-38 0 -38 54q0 135 -119 135q-87 0 -187 -158q298 -688 298 -703q0 -28 -33 -28h-625q-31 0 -31 28q0 12 271 637q-39 118 -56 152q-48 96 -111 96q-93 0 -122 -50q75 -10 75 -91q0 -39 -26.5 -65.5t-65.5 -26.5q-40 0 -65.5 27t-25.5 67
q0 85 76 138q69 48 157 48q162 0 244 -145q99 145 223 145q85 0 141.5 -54t56.5 -138zM677 127l-188 439l-190 -439h378z" />
  </g>

</svg>
