<?xml version="1.0" standalone="no"?>
<!DOCTYPE svg PUBLIC "-//W3C//DTD SVG 1.1//EN" "http://www.w3.org/Graphics/SVG/1.1/DTD/svg11.dtd" >
<svg viewBox="0 -442 2048 2048">
  <g transform="matrix(1 0 0 -1 0 1606)">
   <path fill="currentColor"
d="M1628 1370q0 -110 -135 -146q-71 -19 -224 -19q-136 0 -301 67.5t-246 67.5q-99 0 -190 -53q-262 -153 -262 -591q0 -470 265 -632q92 -56 189 -56q90 0 184 55q267 156 267 633q0 137 -29 253l97 86q134 -169 134 -366q0 -284 -183 -494q-192 -218 -472 -218
q-279 0 -471 219q-183 210 -183 493q0 285 182 498q192 223 472 223q103 0 309 -23.5t309 -23.5q174 0 286 75q2 -23 2 -48z" />
  </g>

</svg>
