<?xml version="1.0" standalone="no"?>
<!DOCTYPE svg PUBLIC "-//W3C//DTD SVG 1.1//EN" "http://www.w3.org/Graphics/SVG/1.1/DTD/svg11.dtd" >
<svg viewBox="0 -442 2048 2048">
  <g transform="matrix(1 0 0 -1 0 1606)">
   <path fill="currentColor"
d="M1128 950q0 -45 -59 -83q-74 -48 -194 -48q-130 0 -249 51q-98 42 -159 42q-134 0 -200 -121q-52 -96 -52 -243q0 -186 67 -331q87 -187 251 -187q249 0 249 376q0 148 -43 268l88 29q42 -30 77 -90q41 -68 41 -127q0 -206 -124 -354q-131 -156 -333 -156
q-192 0 -317 148q-119 139 -119 335q0 199 123 346q130 155 325 155q57 0 170 -18.5t170 -18.5q173 0 286 75q2 -24 2 -48z" />
  </g>

</svg>
