<?xml version="1.0" standalone="no"?>
<!DOCTYPE svg PUBLIC "-//W3C//DTD SVG 1.1//EN" "http://www.w3.org/Graphics/SVG/1.1/DTD/svg11.dtd" >
<svg viewBox="0 -442 2048 2048">
  <g transform="matrix(1 0 0 -1 0 1606)">
   <path fill="currentColor"
d="M1218 759q0 -106 -45 -187q-55 -97 -153 -97q-42 0 -69 28.5t-27 70.5t29 69.5t71 27.5q77 0 96 -83q46 67 46 155q0 151 -146 234q-112 64 -291 79v-912q0 -27 11 -48q16 -29 94 -35h110v-61q-71 6 -117 6h-373q-41 0 -112 -6v61q8 0 29 -1h28q128 0 147 36q9 17 9 49
v910q-178 -15 -290 -79q-145 -83 -145 -233q0 -88 46 -155q19 83 96 83q42 0 71 -27.5t29 -69.5t-27 -70.5t-69 -28.5q-98 0 -153 97q-45 81 -45 187q0 174 160 278q130 85 327 105v59q0 32 -9 49q-18 34 -153 34h-51v62q71 -6 115 -6h376q41 0 111 6v-62q-10 0 -29.5 1
t-29.5 1q-75 0 -103 -9q-53 -18 -53 -76v-59q197 -20 328 -105q161 -104 161 -278z" />
  </g>

</svg>
