<?xml version="1.0" standalone="no"?>
<!DOCTYPE svg PUBLIC "-//W3C//DTD SVG 1.1//EN" "http://www.w3.org/Graphics/SVG/1.1/DTD/svg11.dtd" >
<svg viewBox="0 -442 2048 2048">
  <g transform="matrix(1 0 0 -1 0 1606)">
   <path fill="currentColor"
d="M976 259q0 -283 -152 -283q-105 0 -150 221q-26 130 -28 307l-293 -235q-8 -293 -123 -293q-64 0 -64 96q0 206 188 352q-5 124 -38 236q-49 163 -136 163q-80 0 -92 -161h-36v15q0 283 152 283q108 0 152 -213q26 -127 26 -300l288 232q15 281 122 281q46 0 60 -37
q8 -20 8 -76q0 -171 -187 -321q6 -129 40 -243q50 -170 135 -170q80 0 92 161h36v-15z" />
  </g>

</svg>
