<?xml version="1.0" standalone="no"?>
<!DOCTYPE svg PUBLIC "-//W3C//DTD SVG 1.1//EN" "http://www.w3.org/Graphics/SVG/1.1/DTD/svg11.dtd" >
<svg viewBox="0 -442 2048 2048">
  <g transform="matrix(1 0 0 -1 0 1606)">
   <path fill="currentColor"
d="M945 486q0 -206 -124 -354q-131 -156 -333 -156q-235 0 -360 207q32 -291 199 -376q23 -12 303 -64q166 -30 188 -185h-44q-64 61 -194 63q-181 2 -210 9q-318 80 -318 829q0 200 122 346q130 155 326 155q194 0 322 -141q123 -137 123 -333zM782 406q0 187 -65 326
q-84 180 -250 180q-134 0 -200 -121q-52 -96 -52 -243q0 -186 67 -331q87 -187 251 -187q249 0 249 376z" />
  </g>

</svg>
