<?xml version="1.0" standalone="no"?>
<!DOCTYPE svg PUBLIC "-//W3C//DTD SVG 1.1//EN" "http://www.w3.org/Graphics/SVG/1.1/DTD/svg11.dtd" >
<svg viewBox="0 -442 2048 2048">
  <g transform="matrix(1 0 0 -1 0 1606)">
   <path fill="currentColor"
d="M868 461q0 -196 -131 -338q-134 -147 -328 -147q-223 0 -329 203q-27 52 -27 75q0 22 29 22q19 0 49 -64q38 -81 78 -118q68 -64 181 -64q60 0 123 34q163 88 177 359h-330q-59 0 -59 38q0 39 59 39h330q-10 283 -167 371q-60 34 -120 34q-85 0 -128 -56q-4 -6 -52 -105
q-27 -56 -74 -56q-81 0 -81 81q0 85 131 143q108 48 207 48q198 0 333 -152q129 -146 129 -347z" />
  </g>

</svg>
