<?xml version="1.0" standalone="no"?>
<!DOCTYPE svg PUBLIC "-//W3C//DTD SVG 1.1//EN" "http://www.w3.org/Graphics/SVG/1.1/DTD/svg11.dtd" >
<svg viewBox="0 -442 2048 2048">
  <g transform="matrix(1 0 0 -1 0 1606)">
   <path fill="currentColor"
d="M1007 673q0 -175 -181 -293q-152 -99 -343 -114v-110q0 -39 7 -56q18 -44 246 -39v-61q-75 6 -154 6h-359q-80 0 -155 -6v61q12 0 39 -1t42 -1q137 0 160 37q12 20 12 60v1038q0 37 -7 54q-17 41 -246 39v62q75 -6 155 -6h359q79 0 154 6v-62q-12 0 -39.5 1t-42.5 1
q-137 0 -159 -37q-13 -22 -13 -76v-48q1 -34 1 -47q193 -16 344 -114q180 -118 180 -294zM811 674q0 329 -328 363v-726q328 36 328 363z" />
  </g>

</svg>
