<?xml version="1.0" standalone="no"?>
<!DOCTYPE svg PUBLIC "-//W3C//DTD SVG 1.1//EN" "http://www.w3.org/Graphics/SVG/1.1/DTD/svg11.dtd" >
<svg viewBox="0 -442 2048 2048">
  <g transform="matrix(1 0 0 -1 0 1606)">
   <path fill="currentColor"
d="M1479 64q-83 -1 -195 -88h-30q-55 105 -97 221l-208 573l-252 -462q-22 -41 -41 -41q-25 0 -40 41l-167 462l-199 -365q-41 -75 -41 -125q0 -35 16.5 -103t16.5 -103q0 -98 -103 -98q-36 0 -61.5 26.5t-25.5 62.5q0 93 83 247l327 607q22 41 41 41q25 0 40 -41l169 -463
l250 463q22 41 41 41q25 0 40 -41l234 -640q48 -131 86 -152q25 -14 116 -14v-49z" />
  </g>

</svg>
