<?xml version="1.0" standalone="no"?>
<!DOCTYPE svg PUBLIC "-//W3C//DTD SVG 1.1//EN" "http://www.w3.org/Graphics/SVG/1.1/DTD/svg11.dtd" >
<svg viewBox="0 -442 2048 2048">
  <g transform="matrix(1 0 0 -1 0 1606)">
   <path fill="currentColor"
d="M938 486q0 -206 -124 -354q-131 -156 -333 -156q-145 0 -245 113q0 -24 1 -85v-84q0 -56 -2 -100h429v-100h-436q-8 -82 -27 -151h-149q17 80 26 151h-68v100h77q2 35 2 69v594q0 209 95 335q107 142 309 142q194 0 322 -141q123 -136 123 -333zM775 406q0 187 -65 326
q-84 180 -250 180q-108 0 -170 -90q-54 -79 -54 -192v-344q0 -110 92 -185q86 -71 198 -71q249 0 249 376z" />
  </g>

</svg>
