<?xml version="1.0" standalone="no"?>
<!DOCTYPE svg PUBLIC "-//W3C//DTD SVG 1.1//EN" "http://www.w3.org/Graphics/SVG/1.1/DTD/svg11.dtd" >
<svg viewBox="0 -442 2048 2048">
  <g transform="matrix(1 0 0 -1 0 1606)">
   <path fill="currentColor"
d="M1267 674q0 -289 -197 -501q-201 -216 -487 -216q-167 0 -297 93q-127 90 -189 247q-5 12 -5 23q0 24 23 24q14 0 25 -23q15 -34 52 -101q132 -203 366 -203q102 0 209 52q298 145 298 606q0 476 -322 614q-96 41 -185 41q-234 0 -366 -203q-21 -31 -52 -101
q-11 -23 -25 -23q-23 0 -23 24q0 11 5 23q62 157 189 247q131 93 297 93q288 0 488 -215q196 -211 196 -501z" />
  </g>

</svg>
