<?xml version="1.0" standalone="no"?>
<!DOCTYPE svg PUBLIC "-//W3C//DTD SVG 1.1//EN" "http://www.w3.org/Graphics/SVG/1.1/DTD/svg11.dtd" >
<svg viewBox="0 -442 2048 2048">
  <g transform="matrix(1 0 0 -1 0 1606)">
   <path fill="currentColor"
d="M870 672q0 -46 -32 -78t-78 -32t-78 32t-32 78t32 78t78 32t78 -32t32 -78zM1243 320q0 -11 -5 -23q-63 -157 -190 -247q-130 -93 -296 -93q-288 0 -488 215q-196 211 -196 501q0 289 196 501q201 216 488 216q166 0 296 -93q127 -90 190 -247q5 -12 5 -23q0 -24 -23 -24
q-15 0 -25 23q-15 34 -52 101q-132 203 -366 203q-102 0 -209 -52q-298 -145 -298 -606q0 -476 322 -614q96 -41 185 -41q234 0 366 203q20 31 52 101q10 23 25 23q23 0 23 -24z" />
  </g>

</svg>
