<?xml version="1.0" standalone="no"?>
<!DOCTYPE svg PUBLIC "-//W3C//DTD SVG 1.1//EN" "http://www.w3.org/Graphics/SVG/1.1/DTD/svg11.dtd" >
<svg viewBox="0 -442 2048 2048">
  <g transform="matrix(1 0 0 -1 0 1606)">
   <path fill="currentColor"
d="M1615 403q0 -163 -96 -288q-104 -135 -262 -135q-88 0 -156 44q-78 50 -78 133q0 92 91 92q90 0 90 -90q0 -78 -80 -91q54 -39 129 -39q112 0 163 138q36 96 36 232q0 156 -69 260q-80 119 -230 119q-100 0 -225 -83q-135 -91 -135 -186v-353q0 -40 10 -58
q22 -40 155 -32v-66q-199 6 -248 6q-52 0 -258 -6v66q28 -1 47 -1q68 0 90 14q29 19 29 83v1055q0 64 -105 64q-113 0 -174 -7q-100 -12 -146 -55t-65 -141h-46l22 264h1206l22 -264h-47q-20 102 -67 144t-151 53q-60 6 -179 6q-95 0 -95 -65v-571q152 182 408 182
q191 0 302.5 -116t111.5 -308z" />
  </g>

</svg>
