<?xml version="1.0" standalone="no"?>
<!DOCTYPE svg PUBLIC "-//W3C//DTD SVG 1.1//EN" "http://www.w3.org/Graphics/SVG/1.1/DTD/svg11.dtd" >
<svg viewBox="0 -442 2048 2048">
  <g transform="matrix(1 0 0 -1 0 1606)">
   <path fill="currentColor"
d="M1266 934q0 -26 -31 -26q-26 0 -33 32q-34 154 -151 267q-125 121 -276 121q-105 0 -207 -50q-263 -129 -294 -510q144 95 285 95q119 0 213 -58q71 -54 143 -108q80 -58 165 -58q53 0 105.5 30.5t48.5 30.5q19 0 19 -29q0 -23 -31 -48q-111 -90 -224 -90q-94 0 -170 67
q-177 155 -355 155q-122 0 -202 -45l-1 -38q-7 -470 322 -614q94 -41 185 -41q179 0 309 130q55 56 81 109q18 38 43 128q8 29 23 29q27 0 27 -22q0 -6 -2 -17q-35 -180 -178.5 -298.5t-327.5 -118.5q-288 0 -488 215q-196 211 -196 501q0 289 196 501q201 216 488 216
q193 0 363 -169l99 144q17 25 31 25q21 0 21 -33v-423z" />
  </g>

</svg>
