<?xml version="1.0" standalone="no"?>
<!DOCTYPE svg PUBLIC "-//W3C//DTD SVG 1.1//EN" "http://www.w3.org/Graphics/SVG/1.1/DTD/svg11.dtd" >
<svg viewBox="0 -442 2048 2048">
  <g transform="matrix(1 0 0 -1 0 1606)">
   <path fill="currentColor"
d="M940 367q0 -168 -109 -287q-112 -123 -279 -123q-236 0 -362 137l-72 -111q-16 -26 -30 -26q-20 0 -20 29v431q0 29 24 29q30 0 30 -72q0 -143 117 -250t311 -107q114 0 189 84t75 199q0 102 -62 182q-56 72 -167 100q-88 17 -260 65q-116 42 -186.5 140t-70.5 221
q0 160 111 271t271 111q174 0 316 -139l69 112q17 27 29 27q24 0 24 -33v-429q0 -28 -28 -28q-18 0 -23 22q-7 41 -25 122q-81 290 -360 290q-109 0 -183.5 -74.5t-74.5 -183.5q0 -189 199 -250q85 -19 252 -62q136 -40 215.5 -147.5t79.5 -249.5z" />
  </g>

</svg>
