<?xml version="1.0" standalone="no"?>
<!DOCTYPE svg PUBLIC "-//W3C//DTD SVG 1.1//EN" "http://www.w3.org/Graphics/SVG/1.1/DTD/svg11.dtd" >
<svg viewBox="0 -442 2048 2048">
  <g transform="matrix(1 0 0 -1 0 1606)">
   <path fill="currentColor"
d="M1973 360q0 -161 -142 -266q-129 -94 -296 -94h-703v61q9 0 29 -1h28q119 0 137 36q8 16 8 45v530h-590v-530q0 -29 8 -45q18 -36 197 -35v-61q-71 6 -115 6h-358q-37 0 -108 -6v61q9 0 28 -1h28q121 0 139 36q7 14 7 45v1064q0 31 -7 45q-17 34 -149 34h-46v62
q70 -6 112 -6h354q45 0 115 6v-62q-9 0 -27.5 1t-27.5 1q-123 0 -142 -36q-8 -16 -8 -45v-474h590v474q0 29 -8 45q-17 34 -148 34h-46v62q70 -6 112 -6h367q43 0 113 6v-62q-10 0 -29.5 1t-29.5 1q-76 0 -103 -9q-53 -18 -53 -76v-480h256q188 0 334 -85q174 -101 174 -276
zM1777 362q0 141 -89 230q-85 85 -208 85h-271v-537q0 -53 19 -68q14 -11 67 -11h177q129 0 217 86t88 215z" />
  </g>

</svg>
