<?xml version="1.0" standalone="no"?>
<!DOCTYPE svg PUBLIC "-//W3C//DTD SVG 1.1//EN" "http://www.w3.org/Graphics/SVG/1.1/DTD/svg11.dtd" >
<svg viewBox="0 -442 2048 2048">
  <g transform="matrix(1 0 0 -1 0 1606)">
   <path fill="currentColor"
d="M1278 360q0 -161 -142 -266q-129 -94 -296 -94h-772v61q62 -2 63 -2q113 0 134 45q5 11 5 42v1051q0 31 -5 42q-22 50 -197 42v62h720q161 0 290 -83q148 -95 148 -247q0 -120 -106 -209q-91 -77 -220 -102q147 -16 256 -104q122 -98 122 -238zM1034 1013
q0 113 -73 190.5t-186 77.5h-255q-53 0 -67 -11q-19 -15 -19 -68v-481h286q130 0 220 80q94 84 94 212zM1082 362q0 127 -74 218q-79 97 -203 97h-371v-537q0 -53 19 -68q14 -11 67 -11h257q129 0 217 86t88 215z" />
  </g>

</svg>
