<?xml version="1.0" standalone="no"?>
<!DOCTYPE svg PUBLIC "-//W3C//DTD SVG 1.1//EN" "http://www.w3.org/Graphics/SVG/1.1/DTD/svg11.dtd" >
<svg viewBox="-38 -442 2048 2048">
  <g transform="matrix(1 0 0 -1 0 1606)">
   <path fill="currentColor"
d="M1596 -394q-67 13 -125 92q-14 20 -81 140q-50 91 -84 120q-49 42 -139 42h-776q-89 0 -138 -42q-34 -29 -85 -120q-66 -120 -81 -140q-57 -79 -125 -92q87 64 87 376v39q-1 28 -1 40q166 0 198 12q63 22 124 141q236 457 236 990q0 39 -15 55q-13 13 -52 18
q-29 4 -133 4v62h1108v-62q-9 0 -29 1t-30 1q-75 0 -103 -9q-53 -18 -53 -76v-993q0 -69 14 -97q25 -51 197 -47v-40q-1 -26 -1 -39q0 -312 87 -376zM1125 161v1014q0 44 -8 59q-25 47 -204 47t-205 -49q-9 -17 -11 -85q-5 -193 -52.5 -425.5t-142.5 -434.5
q-27 -51 -80 -153q-4 -8 -4 -20q0 -35 49 -43q64 -10 273 -10q174 0 250 6q53 4 71 8q47 10 58 35q6 13 6 51z" />
  </g>

</svg>
