<?xml version="1.0" standalone="no"?>
<!DOCTYPE svg PUBLIC "-//W3C//DTD SVG 1.1//EN" "http://www.w3.org/Graphics/SVG/1.1/DTD/svg11.dtd" >
<svg viewBox="0 -442 2048 2048">
  <g transform="matrix(1 0 0 -1 0 1606)">
   <path fill="currentColor"
d="M1326 673q0 -186 -186 -303q-153 -97 -368 -117v-97q0 -39 7 -56q18 -44 246 -39v-61q-75 6 -154 6h-359q-80 0 -155 -6v61q12 0 39 -1t42 -1q136 0 158 37q14 23 14 75v82q-210 21 -361 120q-181 118 -181 301q0 182 181 300q152 99 361 121v99q0 37 -7 54
q-17 41 -246 39v62q75 -6 155 -6h359q79 0 154 6v-62q-12 0 -39.5 1t-42.5 1q-135 0 -157 -37q-14 -23 -14 -76v-81q215 -21 368 -118q186 -118 186 -304zM1130 674q0 339 -358 376v-753q164 13 259 108q99 99 99 269zM610 299v751q-347 -40 -347 -377q0 -334 347 -374z" />
  </g>

</svg>
