<?xml version="1.0" standalone="no"?>
<!DOCTYPE svg PUBLIC "-//W3C//DTD SVG 1.1//EN" "http://www.w3.org/Graphics/SVG/1.1/DTD/svg11.dtd" >
<svg viewBox="0 -442 2048 2048">
  <g transform="matrix(1 0 0 -1 0 1606)">
   <path fill="currentColor"
d="M1535 0q-71 6 -117 6h-373q-41 0 -112 -6v61q8 0 29 -1h28q128 0 147 36q9 17 9 49v545q-190 -218 -438 -218q-187 0 -309 108q-129 114 -129 301v327q0 30 -7 43q-20 38 -195 33v62q73 -6 156 -6h270q84 0 156 6v-62q-48 1 -60 1q-118 0 -136 -34q-9 -17 -9 -51v-319
q0 -149 93 -234q88 -81 235 -81q208 0 373 205v430q0 32 -9 49q-18 34 -153 34h-51v62q71 -6 115 -6h376q41 0 111 6v-62q-10 0 -29.5 1t-29.5 1q-75 0 -103 -9q-53 -18 -53 -76v-1057q0 -27 11 -48q16 -29 94 -35h110v-61z" />
  </g>

</svg>
