<?xml version="1.0" standalone="no"?>
<!DOCTYPE svg PUBLIC "-//W3C//DTD SVG 1.1//EN" "http://www.w3.org/Graphics/SVG/1.1/DTD/svg11.dtd" >
<svg viewBox="0 -442 2186 2048">
  <g transform="matrix(1 0 0 -1 0 1606)">
   <path fill="currentColor"
d="M2186 -394q-68 13 -125 92q-15 20 -81 140q-51 91 -85 120q-49 42 -138 42h-1689v62h96q67 6 80 38q6 15 6 41v1062q0 52 -39 69q-25 11 -85 11h-58v61q71 -6 88 -6h350q32 0 103 6v-61q-90 1 -99 0q-67 -6 -80 -39q-6 -15 -6 -41v-1141h459q76 0 91 38q6 15 6 41v1062
q0 52 -39 69q-25 11 -85 11h-58v61q71 -6 87 -6h341q42 0 113 6v-61q-89 1 -98 0q-67 -6 -80 -39q-6 -15 -6 -41v-1062q0 -27 6 -41q16 -38 94 -38h459v1141q0 52 -39 69q-25 11 -85 11h-58v61q71 -6 87 -6h351q32 0 103 6v-61q-89 1 -98 0q-67 -6 -80 -39q-6 -15 -6 -41
v-998q0 -69 14 -97q25 -51 197 -47q0 -12 -1 -39v-40q0 -312 87 -376z" />
  </g>

</svg>
