<?xml version="1.0" standalone="no"?>
<!DOCTYPE svg PUBLIC "-//W3C//DTD SVG 1.1//EN" "http://www.w3.org/Graphics/SVG/1.1/DTD/svg11.dtd" >
<svg viewBox="0 -442 2048 2048">
  <g transform="matrix(1 0 0 -1 0 1606)">
   <path fill="currentColor"
d="M1266 673q0 -290 -196 -501q-200 -215 -488 -215q-184 0 -327.5 118.5t-178.5 298.5q-2 11 -2 17q0 22 27 22q15 0 23 -29q25 -90 43 -128q26 -53 81 -109q130 -130 309 -130q91 0 185 41q329 144 322 614l-1 38q-80 45 -202 45q-178 0 -355 -155q-76 -67 -170 -67
q-113 0 -224 90q-31 25 -31 48q0 29 19 29q-4 0 48.5 -30.5t105.5 -30.5q85 0 165 58q72 54 143 108q94 58 213 58q141 0 285 -95q-31 381 -294 510q-102 50 -207 50q-151 0 -276 -121q-117 -113 -151 -267q-7 -32 -33 -32q-31 0 -31 26v423q0 33 21 33q14 0 31 -25l99 -144
q170 169 363 169q287 0 488 -216q196 -212 196 -501z" />
  </g>

</svg>
