<?xml version="1.0" standalone="no"?>
<!DOCTYPE svg PUBLIC "-//W3C//DTD SVG 1.1//EN" "http://www.w3.org/Graphics/SVG/1.1/DTD/svg11.dtd" >
<svg viewBox="0 -442 2048 2048">
  <g transform="matrix(1 0 0 -1 0 1606)">
   <path fill="currentColor"
d="M1907 668q0 -288 -159 -497q-162 -214 -396 -214q-233 0 -396 214q-158 209 -158 497v3h-354v-530q0 -29 8 -45q18 -36 197 -35v-61q-71 6 -115 6h-358q-37 0 -108 -6v61q9 0 28 -1h28q121 0 139 36q7 14 7 45v1064q0 31 -7 45q-17 34 -149 34h-46v62q70 -6 112 -6h354
q45 0 115 6v-62q-9 0 -27.5 1t-27.5 1q-123 0 -142 -36q-8 -16 -8 -45v-474h356q19 271 173 462q159 197 379 197q234 0 397 -218q158 -213 158 -504zM1705 700q0 448 -210 593q-69 47 -143 47q-182 0 -278 -226q-74 -177 -74 -414q0 -246 72 -438q95 -254 282 -254
q184 0 279 257q72 193 72 435z" />
  </g>

</svg>
