<?xml version="1.0" standalone="no"?>
<!DOCTYPE svg PUBLIC "-//W3C//DTD SVG 1.1//EN" "http://www.w3.org/Graphics/SVG/1.1/DTD/svg11.dtd" >
<svg viewBox="0 -442 2048 2048">
  <g transform="matrix(1 0 0 -1 0 1606)">
   <path fill="currentColor"
d="M1440 0q-74 6 -143 6h-289q-69 0 -143 -6v61q182 -3 197 34q7 17 7 46v511h-227q-113 0 -183 -67q-76 -72 -76 -230q0 -13 1 -40v-40q0 -162 -82 -237q-88 -81 -248 -81q-84 0 -137 68q-49 62 -49 148q0 33 24 33q19 0 24 -31q30 -175 131 -175q87 0 118 158l24 170
q15 109 40 161q59 125 224 182q-135 33 -229 108q-115 91 -115 213q0 167 180 267q150 84 333 84h618v-62q-181 4 -196 -40q-6 -18 -6 -45v-1055q0 -31 7 -46q17 -35 142 -35h27q20 1 26 1v-61zM1069 696v523q0 43 -32 57q-18 7 -69 7q-230 0 -314 -35q-143 -60 -143 -256
q0 -296 339 -296h219z" />
  </g>

</svg>
