<?xml version="1.0" standalone="no"?>
<!DOCTYPE svg PUBLIC "-//W3C//DTD SVG 1.1//EN" "http://www.w3.org/Graphics/SVG/1.1/DTD/svg11.dtd" >
<svg viewBox="0 -442 2048 2048">
  <g transform="matrix(1 0 0 -1 0 1606)">
   <path fill="currentColor"
d="M1002 458q0 -199 -139 -340.5t-337 -141.5q-177 0 -311 121q-130 117 -157 293q-21 133 -21 236q0 426 162 616q82 96 167 124q71 23 314 43q48 4 123 20q34 16 49 47h66q-14 -97 -86 -163q-65 -59 -198 -71q-116 -10 -231 -19q-131 -24 -202 -113q-89 -113 -111 -462
q54 138 169 223q121 89 269 89q198 0 338 -153q136 -149 136 -349zM823 476q0 205 -56 297q-84 138 -241 138q-164 0 -245 -143q-51 -90 -51 -292q0 -207 55 -302q83 -144 243 -144q167 0 248 158q47 92 47 288z" />
  </g>

</svg>
