<?xml version="1.0" standalone="no"?>
<!DOCTYPE svg PUBLIC "-//W3C//DTD SVG 1.1//EN" "http://www.w3.org/Graphics/SVG/1.1/DTD/svg11.dtd" >
<svg viewBox="0 -442 2048 2048">
  <g transform="matrix(1 0 0 -1 0 1606)">
   <path fill="currentColor"
d="M1287 -266q-68 0 -115 49q-14 15 -73 108q-41 64 -70 84q-35 25 -102 25h-599q-73 0 -108 -34q-19 -18 -62 -101q-39 -76 -54 -92q-34 -39 -93 -39v3q83 16 83 229q0 24 -1 58t-1 42q104 0 130 4q76 12 108 61q82 125 133 322q47 184 47 346q0 45 -65 56q-16 2 -100 2v66
h850v-66q-78 0 -98 -2q-46 -5 -60 -29q-9 -18 -9 -70v-589q0 -52 9 -70q14 -24 60 -29q20 -2 98 -2q0 -10 -1 -44.5t-1 -56.5q0 -212 94 -231zM880 162v607q0 62 -42 79q-23 9 -101 9q-92 0 -115 -15q-30 -19 -35 -101q-17 -277 -135 -548q-30 -69 -30 -86q0 -23 28 -30
q43 -11 169 -11q218 0 248 39q13 17 13 57z" />
  </g>

</svg>
