<?xml version="1.0" standalone="no"?>
<!DOCTYPE svg PUBLIC "-//W3C//DTD SVG 1.1//EN" "http://www.w3.org/Graphics/SVG/1.1/DTD/svg11.dtd" >
<svg viewBox="0 -442 2048 2048">
  <g transform="matrix(1 0 0 -1 0 1606)">
   <path fill="currentColor"
d="M1051 180q0 -75 -27 -128q-34 -67 -101 -67q-85 0 -138 81q-45 69 -50 161q-4 75 -17 105q-18 42 -73 77q-108 69 -236 69q-8 0 -27.5 -4t-28.5 -3v-313q0 -41 9 -59q17 -34 158 -33v-66q-203 6 -239 6q-32 0 -242 -6v66q7 0 24 -1h25q66 0 88 14q30 18 30 79v607
q0 41 -9 59q-17 34 -158 33v66q208 -6 242 -6q37 0 239 6v-66q-7 0 -24 1h-25q-66 0 -88 -14q-30 -18 -30 -79v-226h92q127 0 178 70q20 27 57 151q30 103 93 148q42 30 103 30q70 0 116 -48t46 -118q0 -102 -102 -102q-39 0 -66.5 28.5t-27.5 67.5q0 28 16 54.5t16 29.5
q0 18 -25 18q-57 0 -89 -76q-26 -78 -53 -156q-39 -97 -107 -130q134 -30 192 -89q67 -68 67 -197q0 -154 66 -154q40 0 57 44q6 16 16 78q4 26 26 26q27 0 27 -34z" />
  </g>

</svg>
