<?xml version="1.0" standalone="no"?>
<!DOCTYPE svg PUBLIC "-//W3C//DTD SVG 1.1//EN" "http://www.w3.org/Graphics/SVG/1.1/DTD/svg11.dtd" >
<svg viewBox="0 -442 2048 2048">
  <g transform="matrix(1 0 0 -1 0 1606)">
   <path fill="currentColor"
d="M1120 0q-203 6 -240 6q-33 0 -242 -6v66q140 0 157 30q10 18 10 71v281h-435v-281q0 -49 9 -68q16 -33 159 -33v-66q-203 6 -240 6q-33 0 -242 -6v66q140 0 157 30q10 18 10 71v589q0 53 -10 71q-17 30 -157 30v66q209 -6 242 -6q37 0 240 6v-66q-143 0 -159 -33
q-9 -19 -9 -68v-242h435v242q0 53 -10 71q-17 30 -157 30v66q209 -6 242 -6q37 0 240 6v-66q-140 0 -157 -30q-10 -18 -10 -71v-589q0 -53 10 -71q17 -30 157 -30v-66z" />
  </g>

</svg>
