<?xml version="1.0" standalone="no"?>
<!DOCTYPE svg PUBLIC "-//W3C//DTD SVG 1.1//EN" "http://www.w3.org/Graphics/SVG/1.1/DTD/svg11.dtd" >
<svg viewBox="0 -442 2048 2048">
  <g transform="matrix(1 0 0 -1 0 1606)">
   <path fill="currentColor"
d="M1223 460q0 -108 -30 -202q-36 -113 -110 -191q-88 -91 -194 -91q-117 0 -189 125h-2v-186q0 -32 51 -169q48 -128 74 -175l-23 -13l-162 258l-162 -258l-23 13q26 47 74 175q51 137 51 169v186h-2q-72 -125 -188 -125q-106 0 -194 92q-74 77 -110 190q-31 96 -31 205
q0 106 31 202q36 113 110 191q88 91 194 91q116 0 188 -125h2v304q0 32 -51 169q-48 128 -74 175l23 13l162 -258l162 258l23 -13q-26 -47 -74 -175q-51 -137 -51 -169v-304h2q72 125 189 125q106 0 193 -92q74 -77 110 -190q31 -97 31 -205zM1045 463q0 190 -28 282
q-45 148 -133 148q-102 0 -158 -139q-28 -69 -28 -246v-131q0 -139 26 -206q54 -141 160 -141q94 0 137 156q24 87 24 277zM578 415v131q0 139 -26 206q-54 141 -160 141q-94 0 -137 -156q-24 -87 -24 -277t28 -282q45 -148 133 -148q102 0 158 139q28 69 28 246z" />
  </g>

</svg>
