<?xml version="1.0" standalone="no"?>
<!DOCTYPE svg PUBLIC "-//W3C//DTD SVG 1.1//EN" "http://www.w3.org/Graphics/SVG/1.1/DTD/svg11.dtd" >
<svg viewBox="0 -442 2048 2048">
  <g transform="matrix(1 0 0 -1 0 1606)">
   <path fill="currentColor"
d="M1212 -266q-68 0 -115 49q-14 16 -73 108q-41 64 -70 84q-35 25 -102 25h-796v66q140 0 157 30q10 18 10 71v589q0 53 -10 71q-17 30 -157 30v66q209 -6 242 -6q37 0 240 6v-66q-140 0 -157 -30q-11 -19 -11 -71v-585q0 -54 15 -74q23 -31 204 -31q178 0 201 31
q15 20 15 74v585q0 53 -10 71q-17 30 -157 30v66q209 -6 242 -6q37 0 240 6v-66q-140 0 -157 -30q-10 -18 -10 -71v-589q0 -53 10 -71q17 -30 157 -30q0 -10 -1 -44.5t-1 -56.5q0 -212 94 -231z" />
  </g>

</svg>
