<?xml version="1.0" standalone="no"?>
<!DOCTYPE svg PUBLIC "-//W3C//DTD SVG 1.1//EN" "http://www.w3.org/Graphics/SVG/1.1/DTD/svg11.dtd" >
<svg viewBox="0 -442 2048 2048">
  <g transform="matrix(1 0 0 -1 0 1606)">
   <path fill="currentColor"
d="M1204 0q-203 6 -240 6q-32 0 -242 -6v66q140 0 157 30q10 18 10 71v274q-129 -143 -324 -143q-131 0 -232 78q-110 84 -110 211q0 214 -5 229q-11 32 -72 40q-12 1 -90 1v66q209 -6 242 -6q37 0 240 6v-66q-140 0 -157 -30q-11 -19 -11 -71v-143q0 -102 73 -162
q68 -57 172 -57q137 0 246 109q28 28 28 75v178q0 53 -10 71q-17 30 -157 30v66q209 -6 242 -6q37 0 240 6v-66q-140 0 -157 -30q-11 -19 -11 -71v-589q0 -52 11 -71q17 -30 157 -30v-66z" />
  </g>

</svg>
