<?xml version="1.0" standalone="no"?>
<!DOCTYPE svg PUBLIC "-//W3C//DTD SVG 1.1//EN" "http://www.w3.org/Graphics/SVG/1.1/DTD/svg11.dtd" >
<svg viewBox="0 -442 2048 2048">
  <g transform="matrix(1 0 0 -1 0 1606)">
   <path fill="currentColor"
d="M1711 -266q-68 0 -115 49q-15 16 -73 108q-41 64 -70 84q-35 25 -102 25h-1295v66q140 0 157 30q10 18 10 71v589q0 53 -10 71q-17 30 -157 30v66q209 -6 242 -6q37 0 240 6v-66q-140 0 -157 -30q-11 -19 -11 -71v-585q0 -49 11 -69q15 -28 71 -33q31 -3 115 -3
q91 0 100 1q70 6 85 37q10 19 10 61v597q0 49 -11 67q-17 28 -154 28v66q174 -6 240 -6q60 0 240 6v-66q-67 0 -91 -2q-49 -4 -63 -26q-11 -17 -11 -67v-597q0 -52 16.5 -71.5t66.5 -24.5q32 -3 112 -3q84 0 115 3q53 5 69 30q13 19 13 72v585q0 53 -10 71q-17 30 -157 30
v66q209 -6 242 -6q37 0 240 6v-66q-140 0 -157 -30q-10 -18 -10 -71v-589q0 -53 10 -71q17 -30 157 -30q0 -10 -1 -44.5t-1 -56.5q0 -212 94 -231z" />
  </g>

</svg>
