<?xml version="1.0" standalone="no"?>
<!DOCTYPE svg PUBLIC "-//W3C//DTD SVG 1.1//EN" "http://www.w3.org/Graphics/SVG/1.1/DTD/svg11.dtd" >
<svg viewBox="0 -442 2048 2048">
  <g transform="matrix(1 0 0 -1 0 1606)">
   <path fill="currentColor"
d="M983 460q0 -207 -160 -351q-155 -139 -365 -139q-141 0 -255 70q-133 82 -133 215q0 30 28 30q21 0 26 -32q15 -106 106 -165q81 -52 194 -52q174 0 283 116q90 95 98 289q-69 60 -163 60q-135 0 -250 -109q-55 -52 -116 -52q-49 0 -119 36q-80 41 -80 84q0 33 21 33
q3 0 31 -18.5t61 -18.5q67 0 163.5 80.5t198.5 80.5q134 0 251 -94q-18 176 -116 267q-104 97 -261 97q-188 0 -269 -152q-5 -9 -33 -93q-6 -19 -26 -19q-22 0 -27 18q-1 4 -1 38v218q0 56 22 56q6 0 81 -66q9 -6 26 -20q114 86 259 86q211 0 366 -140q159 -144 159 -353z
" />
  </g>

</svg>
