<?xml version="1.0" standalone="no"?>
<!DOCTYPE svg PUBLIC "-//W3C//DTD SVG 1.1//EN" "http://www.w3.org/Graphics/SVG/1.1/DTD/svg11.dtd" >
<svg viewBox="0 -442 2048 2048">
  <g transform="matrix(1 0 0 -1 0 1606)">
   <path fill="currentColor"
d="M1651 456q0 -204 -147 -345t-352 -141q-194 0 -337.5 129.5t-157.5 322.5h-261v-257q0 -50 11 -69q18 -31 156 -30v-66q-202 6 -242 6q-38 0 -240 -6v66q139 -1 157 31q10 18 10 72v585q0 54 -10 72q-18 32 -157 31v66q202 -6 240 -6q40 0 242 6v-66q-138 1 -156 -30
q-11 -19 -11 -69v-270h261q11 196 156 330.5t341 134.5q205 0 351 -146t146 -351zM1473 478q0 298 -192 391q-62 30 -129 30q-59 0 -118 -26q-201 -89 -201 -395q0 -322 194 -421q61 -31 127 -31q60 0 117 27q202 96 202 425z" />
  </g>

</svg>
