<?xml version="1.0" standalone="no"?>
<!DOCTYPE svg PUBLIC "-//W3C//DTD SVG 1.1//EN" "http://www.w3.org/Graphics/SVG/1.1/DTD/svg11.dtd" >
<svg viewBox="0 -442 2048 2048">
  <g transform="matrix(1 0 0 -1 0 1606)">
   <path fill="currentColor"
d="M1103 0q-221 6 -238 6q-40 0 -238 -6v66q142 0 158 33q9 19 9 68v272h-169q-86 0 -141 -58q-35 -37 -35 -123q0 -10 1 -31v-32q0 -126 -74.5 -175.5t-189.5 -49.5q-64 0 -108 45t-44 109q0 32 28 32q22 0 26 -30q15 -109 88 -109q44 0 72 74q5 13 30 112q28 111 53 153
q39 64 125 102q-91 21 -157 71q-83 62 -83 143q0 82 77 148q63 54 153 80q79 23 173 23h484v-66q-142 0 -158 -33q-9 -19 -9 -68v-589q0 -49 9 -68q16 -33 158 -33v-66zM794 486v291q0 65 -27 75q-13 5 -99 5q-137 0 -191 -25q-83 -40 -83 -160q0 -109 69 -152
q54 -34 175 -34h156z" />
  </g>

</svg>
