<?xml version="1.0" standalone="no"?>
<!DOCTYPE svg PUBLIC "-//W3C//DTD SVG 1.1//EN" "http://www.w3.org/Graphics/SVG/1.1/DTD/svg11.dtd" >
<svg viewBox="0 -442 2048 2048">
  <g transform="matrix(1 0 0 -1 0 1606)">
   <path fill="currentColor"
d="M703 1079l-37 -35l-313 256q-28 24 -28 55q0 29 23 52t53 23q32 0 55 -29zM881 254q0 -30 -35 -90q-110 -188 -322 -188q-198 0 -336 149q-135 146 -135 346q0 194 124 338q130 151 321 151q180 0 284 -123q99 -115 99 -298q0 -30 -7.5 -37.5t-38.5 -7.5h-605v-7
q0 -210 64 -313q90 -144 242 -144q198 0 290 221q12 29 28 29q27 0 27 -26zM740 539q0 143 -50 243q-64 129 -192 129q-41 0 -90 -23q-165 -78 -175 -349h507z" />
  </g>

</svg>
