<?xml version="1.0" standalone="no"?>
<!DOCTYPE svg PUBLIC "-//W3C//DTD SVG 1.1//EN" "http://www.w3.org/Graphics/SVG/1.1/DTD/svg11.dtd" >
<svg viewBox="0 -442 2048 2048">
  <g transform="matrix(1 0 0 -1 0 1606)">
   <path fill="currentColor"
d="M1115 486q0 -245 -112 -461q-115 -219 -318 -350q-139 -90 -291 -90q-40 0 -40 34q0 21 11 27q3 1 29 5q238 34 382 215q127 160 167 414q9 57 9 126q0 181 -64 322q-83 184 -242 184q-123 0 -205 -113q-74 -102 -74 -230v-413q0 -40 10 -58q22 -40 155 -32v-66
q-197 6 -239 6q-36 0 -240 -6v66q28 -1 47 -1q68 0 90 14q29 19 29 83v983h-173q-24 0 -24 31t24 31h173v70q0 87 -44 108q-25 12 -122 10v67l306 23v-278h416q24 0 24 -31t-24 -31h-416v-390h2q41 93 125 149t184 56q194 0 321 -141q124 -137 124 -333z" />
  </g>

</svg>
