<?xml version="1.0" standalone="no"?>
<!DOCTYPE svg PUBLIC "-//W3C//DTD SVG 1.1//EN" "http://www.w3.org/Graphics/SVG/1.1/DTD/svg11.dtd" >
<svg viewBox="0 -442 2048 2048">
  <g transform="matrix(1 0 0 -1 0 1606)">
   <path fill="currentColor"
d="M705 1300l-313 -256l-37 35l248 322q22 29 54 29q30 0 53 -23t23 -52q0 -31 -28 -55zM940 589h-53q-18 182 -98 229q-55 32 -254 32q-112 0 -122 -2q-32 -6 -40 -31q-3 -10 -3 -55v-591q0 -47 7 -62q10 -26 49 -34q43 -9 152 -9v-66q-80 6 -243 6q-33 0 -279 -6v66
q140 0 157 30q10 18 10 71v583q0 52 -10 70q-16 30 -151 30h-6v67h846z" />
  </g>

</svg>
