<?xml version="1.0" standalone="no"?>
<!DOCTYPE svg PUBLIC "-//W3C//DTD SVG 1.1//EN" "http://www.w3.org/Graphics/SVG/1.1/DTD/svg11.dtd" >
<svg viewBox="0 -442 2048 2048">
  <g transform="matrix(1 0 0 -1 0 1606)">
   <path fill="currentColor"
d="M966 255q0 -133 -133 -215q-114 -70 -255 -70q-211 0 -366 140q-159 144 -159 353q0 207 160 351q155 139 365 139q154 0 259 -86q15 11 43 35q53 51 64 51q22 0 22 -56v-218q0 -34 -1 -38q-5 -18 -27 -18q-20 0 -26 26q-27 111 -107.5 174.5t-194.5 63.5
q-159 0 -267 -105q-95 -93 -110 -259q117 94 251 94q101 0 198 -80.5t164 -80.5q31 0 58.5 18.5t33.5 18.5q21 0 21 -33q0 -43 -79 -84q-70 -36 -120 -36q-62 0 -113 48q-121 113 -253 113q-39 0 -94 -18q-69 -23 -69 -55q0 -171 105.5 -281.5t275.5 -110.5q99 0 178 42
q92 49 114 137q2 18 8 51q6 19 26 19q28 0 28 -30z" />
  </g>

</svg>
