<?xml version="1.0" standalone="no"?>
<!DOCTYPE svg PUBLIC "-//W3C//DTD SVG 1.1//EN" "http://www.w3.org/Graphics/SVG/1.1/DTD/svg11.dtd" >
<svg viewBox="0 -442 2048 2048">
  <g transform="matrix(1 0 0 -1 0 1606)">
   <path fill="currentColor"
d="M1527 255q0 -116 -90 -188q-84 -67 -203 -67h-540v66q140 0 157 30q10 18 10 71v585q0 49 -7 65q-18 40 -149 40q-69 0 -92 -5q-55 -11 -63 -53q-3 -17 -4 -116q-6 -683 -261 -683q-70 0 -121 48.5t-51 118.5q0 88 86 88q36 0 60 -24.5t24 -61.5q0 -59 -50 -79
q18 -9 48 -9q119 0 162 268q24 149 24 390q0 63 -6 80q-11 30 -72 37q-10 1 -89 1v66h876v-66h-43q-77 1 -97 -13q-27 -18 -27 -88v-261h225q118 0 200 -60q93 -67 93 -180zM1356 257q0 81 -38 144.5t-114 63.5h-195v-298q0 -73 32 -90q20 -12 69 -11h92q53 0 67 4
q29 9 50 43q37 61 37 144z" />
  </g>

</svg>
