<?xml version="1.0" standalone="no"?>
<!DOCTYPE svg PUBLIC "-//W3C//DTD SVG 1.1//EN" "http://www.w3.org/Graphics/SVG/1.1/DTD/svg11.dtd" >
<svg viewBox="0 -442 2048 2048">
  <g transform="matrix(1 0 0 -1 0 1606)">
   <path fill="currentColor"
d="M1546 255q0 -48 -25 -97q-80 -158 -300 -158h-581v66q112 0 130 8q37 18 37 106v268h-437v-281q0 -52 10 -70q14 -24 60 -29q21 -2 98 -2v-66q-203 6 -240 6q-33 0 -242 -6v66q78 0 98 2q46 5 60 29q9 18 9 70v589q0 52 -9 70q-14 24 -60 29q-20 2 -98 2v66
q209 -6 242 -6q37 0 240 6v-66q-78 0 -98 -2q-46 -5 -60 -29q-10 -18 -10 -70v-242h437v229q0 88 -37 106q-18 8 -130 8v66q175 -6 240 -6q54 0 240 6v-66q-140 0 -156 -32q-9 -18 -9 -63v-267h266q123 0 216 -57q109 -67 109 -183zM1375 257q0 87 -44 145q-48 63 -132 63
h-244v-304q0 -48 7 -62q11 -21 53 -28q29 -5 135 -5q80 0 90 1q46 6 77 38q58 59 58 152z" />
  </g>

</svg>
