<?xml version="1.0" standalone="no"?>
<!DOCTYPE svg PUBLIC "-//W3C//DTD SVG 1.1//EN" "http://www.w3.org/Graphics/SVG/1.1/DTD/svg11.dtd" >
<svg viewBox="0 -442 2048 2048">
  <g transform="matrix(1 0 0 -1 0 1606)">
   <path fill="currentColor"
d="M951 1308q0 -102 -121 -169q-106 -58 -230 -58t-229 58q-122 67 -122 169q0 90 89 90t89 -90t-89 -90q99 -74 262 -74t262 74q-89 0 -89 90t89 90t89 -90zM1099 855q-142 1 -199 -136l-377 -913q-101 -245 -274 -245q-76 0 -134 48q-62 52 -62 126q0 91 89 91
q39 0 65 -25.5t26 -63.5q0 -81 -85 -91q41 -38 101 -38q93 0 158 92q32 45 86 173q18 42 53 127l-321 781q-22 54 -70 68q-26 8 -102 6v68q120 -8 207 -8q30 0 233 8v-68q-120 1 -120 -54q0 -19 250 -616l217 528q14 34 14 50q0 90 -101 92v68q170 -8 185 -8q69 0 161 8v-68
z" />
  </g>

</svg>
