<?xml version="1.0" standalone="no"?>
<!DOCTYPE svg PUBLIC "-//W3C//DTD SVG 1.1//EN" "http://www.w3.org/Graphics/SVG/1.1/DTD/svg11.dtd" >
<svg viewBox="0 -442 2048 2048">
  <g transform="matrix(1 0 0 -1 0 1606)">
   <path fill="currentColor"
d="M1129 857q-76 3 -103 -2q-64 -12 -64 -62v-574q0 -66 20 -91q23 -29 88 -29q13 0 58 1v-100h-451q-28 -143 -33 -277h-105q-6 134 -34 277h-452v100q98 -1 122 10q44 22 44 109v542q0 64 -29 83q-22 14 -90 14q-15 0 -47 -1v66q207 -6 240 -6q39 0 239 6v-66
q-135 6 -155 -32q-10 -19 -10 -58v-699h447v702q0 57 -33 76q-23 12 -86 12q-15 0 -48 -1v66q206 -6 240 -6q41 0 242 6v-66z" />
  </g>

</svg>
