<?xml version="1.0" standalone="no"?>
<!DOCTYPE svg PUBLIC "-//W3C//DTD SVG 1.1//EN" "http://www.w3.org/Graphics/SVG/1.1/DTD/svg11.dtd" >
<svg viewBox="0 -442 2048 2048">
  <g transform="matrix(1 0 0 -1 0 1606)">
   <path fill="currentColor"
d="M1618 617q0 -252 -109 -438q-131 -222 -366 -222q-236 0 -296 247h-8q-60 -247 -296 -247q-235 0 -366 222q-109 186 -109 438q0 345 161 546q174 218 511 227v-43q-470 -25 -470 -712q0 -626 295 -626q94 0 160 105q59 93 59 193q0 112 -22 212q-24 109 -24 127
q0 125 105 125t105 -125q0 -18 -24 -127q-22 -100 -22 -212q0 -100 59 -193q66 -105 160 -105q295 0 295 626q0 687 -470 712v43q337 -9 511 -227q161 -201 161 -546z" />
  </g>

</svg>
