<?xml version="1.0" standalone="no"?>
<!DOCTYPE svg PUBLIC "-//W3C//DTD SVG 1.1//EN" "http://www.w3.org/Graphics/SVG/1.1/DTD/svg11.dtd" >
<svg viewBox="0 -442 2048 2048">
  <g transform="matrix(1 0 0 -1 0 1606)">
   <path fill="currentColor"
d="M1270 251q0 -49 -26 -96q-86 -155 -316 -155h-598v66q58 -1 48 -1q68 0 90 13q29 18 29 81v610q0 54 -10 69q-14 19 -63 19q-179 0 -227 -43t-60 -219h-53l25 328h391v203q0 32 -51 169q-48 128 -74 175l23 13l166 -258l165 258l23 -13q-26 -47 -74 -175
q-51 -137 -51 -169v-203h390l26 -328h-54q-12 174 -59.5 218t-222.5 44q-52 0 -66 -21q-9 -14 -9 -67v-283h289q238 0 322 -142q27 -46 27 -93zM1099 255q0 86 -54.5 143.5t-140.5 57.5h-272v-302q0 -60 14 -74t78 -14h152q93 0 155 47q68 52 68 142z" />
  </g>

</svg>
