<?xml version="1.0" standalone="no"?>
<!DOCTYPE svg PUBLIC "-//W3C//DTD SVG 1.1//EN" "http://www.w3.org/Graphics/SVG/1.1/DTD/svg11.dtd" >
<svg viewBox="0 -442 2048 2048">
  <g transform="matrix(1 0 0 -1 0 1606)">
   <path fill="currentColor"
d="M1956 934q0 -26 -31 -26q-26 0 -33 32q-34 154 -151 267q-125 121 -276 121q-104 0 -207 -50q-276 -135 -297 -547h281q128 0 170.5 36t42.5 144h51v-422h-51q0 108 -42.5 144t-170.5 36h-282q0 -473 322 -611q96 -41 185 -41q179 0 309 130q55 56 81 109q18 38 43 128
q8 29 23 29q27 0 27 -22q0 -6 -2 -17q-35 -180 -178.5 -298.5t-327.5 -118.5q-288 0 -488 215q-196 210 -196 499h-314v-530q0 -29 8 -45q18 -36 197 -35v-61q-71 6 -115 6h-358q-37 0 -108 -6v61q9 0 28 -1h28q121 0 139 36q7 14 7 45v1064q0 31 -7 45q-17 34 -149 34h-46
v62q70 -6 112 -6h354q45 0 115 6v-62q-9 0 -27.5 1t-27.5 1q-123 0 -142 -36q-8 -16 -8 -45v-474h316q22 271 214 462q197 197 468 197q193 0 363 -169l99 144q17 25 31 25q21 0 21 -33v-423z" />
  </g>

</svg>
