<?xml version="1.0" standalone="no"?>
<!DOCTYPE svg PUBLIC "-//W3C//DTD SVG 1.1//EN" "http://www.w3.org/Graphics/SVG/1.1/DTD/svg11.dtd" >
<svg viewBox="0 -442 2048 2048">
  <g transform="matrix(1 0 0 -1 0 1606)">
   <path fill="currentColor"
d="M1474 686q0 -34 -1 -38q-5 -18 -27 -18q-20 0 -26 26q-28 115 -108 182t-194 67q-60 0 -120 -34q-153 -86 -167 -357h325q46 0 46 -33t-46 -33h-326q6 -291 178 -384q63 -34 123 -34q113 0 181 64q40 37 78 118q30 64 49 64q29 0 29 -22t-27 -75q-104 -203 -329 -203
q-191 0 -324 142q-130 138 -135 330h-283v-281q0 -49 9 -68q16 -33 159 -33v-66q-203 6 -240 6q-33 0 -242 -6v66q140 0 157 30q10 18 10 71v589q0 53 -10 71q-17 30 -157 30v66q209 -6 242 -6q37 0 240 6v-66q-143 0 -159 -33q-9 -19 -9 -68v-242h286q18 185 144 312
q131 134 315 134q146 0 245 -74q10 7 28 23q53 51 64 51q22 0 22 -56v-218z" />
  </g>

</svg>
