<?xml version="1.0" standalone="no"?>
<!DOCTYPE svg PUBLIC "-//W3C//DTD SVG 1.1//EN" "http://www.w3.org/Graphics/SVG/1.1/DTD/svg11.dtd" >
<svg viewBox="0 -442 2292 2048">
  <g transform="matrix(1 0 0 -1 0 1606)">
   <path fill="currentColor"
d="M2292 0q-235 6 -345 6t-182 -6v61q166 -1 166 59q0 48 -25 102l-216 468q-163 -130 -163 -497v-50q0 -28 8 -42q23 -40 150 -40v-61q-76 6 -139 6h-213q-63 0 -139 -6v61q127 0 150 40q8 14 8 42v50q0 353 -153 488l-224 -475q-9 -19 -9 -42q0 -51 51 -79q41 -23 97 -24
v-61q-183 6 -223 6q-82 0 -182 -6v61q131 -1 195 136l242 513h-702v-569q0 -29 8 -45q18 -36 197 -35v-61q-71 6 -115 6h-358q-37 0 -108 -6v61q9 0 28 -1h28q121 0 139 36q7 14 7 45v1064q0 31 -7 45q-17 34 -149 34h-46v62q70 -6 112 -6h354q45 0 115 6v-62q-9 0 -27.5 1
t-27.5 1q-123 0 -142 -36q-8 -16 -8 -45v-435h730l282 599q20 42 55 42q36 0 55 -42l565 -1223q29 -63 61 -77q22 -9 100 -8v-61zM1656 764l-207 448l-214 -455q157 -119 204 -415h2q48 306 215 422z" />
  </g>

</svg>
