<?xml version="1.0" standalone="no"?>
<!DOCTYPE svg PUBLIC "-//W3C//DTD SVG 1.1//EN" "http://www.w3.org/Graphics/SVG/1.1/DTD/svg11.dtd" >
<svg viewBox="0 -442 2048 2048">
  <g transform="matrix(1 0 0 -1 0 1606)">
   <path fill="currentColor"
d="M1849 0q-120 8 -207 8q-1 0 -233 -8v66q122 -1 122 44q0 21 -22 63l-144 274q-101 -98 -101 -306v-31q0 -34 40 -42q11 -2 68 -2v-66q-70 5 -116 5h-130q-46 0 -116 -5v66q54 0 68 3q40 8 40 41v31q0 200 -95 300l-123 -231q-25 -47 -25 -78q0 -64 94 -66v-66
q-135 8 -185 8q-69 0 -161 -8v66q122 1 198 144l126 238h-577v-281q0 -49 9 -68q16 -33 159 -33v-66q-203 6 -240 6q-33 0 -242 -6v66q140 0 157 30q10 18 10 71v589q0 53 -10 71q-17 30 -157 30v66q209 -6 242 -6q37 0 240 6v-66q-143 0 -159 -33q-9 -19 -9 -68v-242h612
l208 393q21 40 50 40t50 -40l399 -760q31 -59 66 -73q22 -9 94 -8v-66zM1334 506l-138 262l-141 -266q95 -71 136 -228q42 161 143 232z" />
  </g>

</svg>
