<?xml version="1.0" standalone="no"?>
<!DOCTYPE svg PUBLIC "-//W3C//DTD SVG 1.1//EN" "http://www.w3.org/Graphics/SVG/1.1/DTD/svg11.dtd" >
<svg viewBox="0 -442 2048 2048">
  <g transform="matrix(1 0 0 -1 0 1606)">
   <path fill="currentColor"
d="M1520 22q0 -22 -35 -22h-87q-106 0 -146 92q-23 55 -29 184q-8 172 -91 289q-92 129 -257 161v-583q0 -28 8 -42q22 -40 150 -40v-61q-76 6 -139 6h-200q-63 0 -139 -6v61q128 0 150 40q8 14 8 42v583q-165 -32 -257 -161q-83 -117 -91 -289q-6 -129 -29 -184
q-40 -92 -146 -92h-87q-35 0 -35 22q0 15 29 26q21 6 42 13q40 20 53 114q4 68 9 136q16 205 141.5 326t333.5 140l-402 491q-13 16 -13 35q0 40 79 40h867q88 0 88 -78q0 -35 -19 -57l-366 -431q209 -18 334 -138q127 -123 143 -328q5 -68 9 -136q13 -94 53 -114
q21 -7 42 -13q29 -11 29 -26zM1159 1209q0 78 -88 78h-469q-79 0 -79 -40q0 -19 13 -35l321 -393l283 333q19 22 19 57z" />
  </g>

</svg>
