<?xml version="1.0" standalone="no"?>
<!DOCTYPE svg PUBLIC "-//W3C//DTD SVG 1.1//EN" "http://www.w3.org/Graphics/SVG/1.1/DTD/svg11.dtd" >
<svg viewBox="0 -442 2048 2048">
  <g transform="matrix(1 0 0 -1 0 1606)">
   <path fill="currentColor"
d="M1164 23q0 -23 -38 -23h-66q-84 0 -116 61q-20 38 -27 135q-19 253 -236 299v-332q0 -71 31 -88q20 -10 97 -9v-66q-203 6 -200 6q7 0 -202 -6v66q5 0 19 -1h20q53 0 70.5 20.5t17.5 73.5v336q-217 -46 -236 -299q-7 -97 -27 -135q-32 -61 -116 -61h-66q-38 0 -38 23
q0 14 24 23q18 5 36 11q26 13 34 72l6 86q14 142 109 228q90 81 235 98l-286 312q-13 14 -13 31q0 39 71 39h650q78 0 78 -64q0 -28 -17 -46l-258 -272q145 -17 235 -98q95 -86 109 -228l6 -86q8 -59 34 -72q18 -6 36 -11q24 -9 24 -23zM869 822q0 40 -54 40h-366
q-33 0 -33 -15q0 -8 7 -16l232 -253l203 213q11 12 11 31z" />
  </g>

</svg>
