<?xml version="1.0" standalone="no"?>
<!DOCTYPE svg PUBLIC "-//W3C//DTD SVG 1.1//EN" "http://www.w3.org/Graphics/SVG/1.1/DTD/svg11.dtd" >
<svg viewBox="0 -442 2048 2048">
  <g transform="matrix(1 0 0 -1 0 1606)">
   <path fill="currentColor"
d="M1110 359q0 -176 -166 -261q-128 -66 -323 -66q-32 0 -94.5 7.5t-94.5 7.5q-64 0 -109 -56q-41 -52 -41 -118q0 -40 22 -74q24 -39 62 -39q50 0 171.5 61.5t192.5 61.5q151 0 202 -94q33 -63 39 -231h-21q-20 85 -44 112q-33 40 -111 40q-60 0 -168 -49t-168 -49
q-105 0 -180 80t-75 186q0 97 61 175q66 83 161 83q31 0 91.5 -9t91.5 -9q286 0 286 241q0 156 -98.5 247t-255.5 91h-116q-78 -1 -117 -1q-38 0 -38 30q0 16 13 22.5t148 16.5q180 13 279 79q150 100 150 257q0 111 -103 174q-87 53 -206 53q-158 0 -268 -66
q-98 -59 -124 -135q-4 -20 -17 -58q-10 -20 -35 -20q-41 0 -39 46l9 246q2 49 35 49q26 0 112 -85q127 79 306 85l-272 175l29 41l294 -152l292 152l29 -41l-274 -179q163 -16 278 -79q147 -80 147 -208q0 -261 -386 -360q172 -25 295 -115q148 -108 148 -265z" />
  </g>

</svg>
