<?xml version="1.0" standalone="no"?>
<!DOCTYPE svg PUBLIC "-//W3C//DTD SVG 1.1//EN" "http://www.w3.org/Graphics/SVG/1.1/DTD/svg11.dtd" >
<svg viewBox="0 -442 2048 2048">
  <g transform="matrix(1 0 0 -1 0 1606)">
   <path fill="currentColor"
d="M860 253q0 -131 -101 -205q-91 -67 -226 -67q-24 0 -71 -3t-71 -3q-62 0 -105 -43t-43 -105q0 -80 55 -80q38 0 154 53t176 53q129 0 173 -84q29 -55 34 -204l-18 -2q-19 75 -38 98q-27 34 -95 34q-50 0 -145 -42t-144 -42q-91 0 -155 64.5t-64 155.5q0 92 63.5 155.5
t155.5 63.5q12 0 34.5 -2.5t34.5 -2.5q102 0 160.5 54t58.5 154q0 222 -251 222h-118q-55 0 -55 24q0 22 34 26q25 1 75 4q122 8 192 62q86 66 86 161q0 76 -64 115q-53 32 -135 32q-103 0 -178 -38q-70 -35 -93 -94q-20 -50 -35 -50q-28 0 -28 58v122q0 37 3 44q7 14 38 12
q25 -19 77 -54q85 50 206 54l-284 287l29 41l294 -252l292 252l29 -41l-285 -290q118 -12 200 -55q105 -55 105 -145q0 -170 -254 -242q112 -21 195 -81q102 -73 102 -174z" />
  </g>

</svg>
