<?xml version="1.0" standalone="no"?>
<!DOCTYPE svg PUBLIC "-//W3C//DTD SVG 1.1//EN" "http://www.w3.org/Graphics/SVG/1.1/DTD/svg11.dtd" >
<svg viewBox="0 -442 2048 2048">
  <g transform="matrix(1 0 0 -1 0 1606)">
   <path fill="currentColor"
d="M1520 1248q0 -15 -29 -26q-21 -6 -42 -13q-40 -20 -53 -114q-4 -68 -9 -136q-17 -220 -153 -361q-141 -146 -359 -155v-282q0 -40 11 -62q20 -40 159 -40q15 0 43 1t40 1v-61q-74 6 -143 6h-382q-69 0 -143 -6v61q12 0 40 -1t43 -1q139 0 159 40q11 22 11 62v282
q-218 9 -359 155q-136 141 -153 361q-5 68 -9 136q-13 94 -53 114q-21 7 -42 13q-29 11 -29 26q0 22 35 22h87q106 0 146 -92q23 -55 29 -184q8 -179 91 -313q95 -154 257 -185v710q0 25 -7 42q-17 42 -246 39v62q74 -6 143 -6h382q69 0 143 6v-62q-229 3 -246 -39
q-7 -17 -7 -42v-710q162 31 257 185q83 134 91 313q6 129 29 184q40 92 146 92h87q35 0 35 -22z" />
  </g>

</svg>
