<?xml version="1.0" standalone="no"?>
<!DOCTYPE svg PUBLIC "-//W3C//DTD SVG 1.1//EN" "http://www.w3.org/Graphics/SVG/1.1/DTD/svg11.dtd" >
<svg viewBox="0 -442 2048 2048">
  <g transform="matrix(1 0 0 -1 0 1606)">
   <path fill="currentColor"
d="M1377 669q0 -285 -183 -494q-192 -218 -472 -218t-471 219q-183 209 -183 493q0 285 182 498q191 223 472 223q282 0 473 -223q182 -212 182 -498zM1175 696q0 438 -260 590q-92 54 -193 54q-99 0 -190 -53q-262 -153 -262 -591q0 -469 265 -632q91 -56 189 -56
q90 0 184 55q267 156 267 633zM1118 809q-32 -118 -79 -175q-62 -74 -170 -74q-70 0 -185 56.5t-155 56.5q-100 0 -138 -113h-61q20 102 82 166q68 71 167 71q66 0 177 -54.5t158 -54.5q95 0 143 121h61z" />
  </g>

</svg>
