<?xml version="1.0" standalone="no"?>
<!DOCTYPE svg PUBLIC "-//W3C//DTD SVG 1.1//EN" "http://www.w3.org/Graphics/SVG/1.1/DTD/svg11.dtd" >
<svg viewBox="0 -442 2048 2048">
  <g transform="matrix(1 0 0 -1 0 1606)">
   <path fill="currentColor"
d="M1002 458q0 -199 -139 -340.5t-337 -141.5q-196 0 -334.5 142.5t-138.5 339.5q0 201 136 350q140 152 339 152q198 0 338 -153q136 -149 136 -349zM823 476q0 205 -56 297q-84 138 -241 138q-164 0 -245 -143q-51 -90 -51 -292q0 -207 55 -302q83 -144 243 -144
q167 0 248 158q47 92 47 288zM804 566q-49 -181 -177 -181q-49 0 -127.5 39t-106.5 39q-65 0 -91 -78h-51q34 173 177 173q46 0 122 -37.5t108 -37.5q63 0 95 83h51z" />
  </g>

</svg>
