<?xml version="1.0" standalone="no"?>
<!DOCTYPE svg PUBLIC "-//W3C//DTD SVG 1.1//EN" "http://www.w3.org/Graphics/SVG/1.1/DTD/svg11.dtd" >
<svg viewBox="0 -442 2429 2048">
  <g transform="matrix(1 0 0 -1 0 1606)">
   <path fill="currentColor"
d="M2429 805q0 -75 -73 -75q-75 0 -75 73q0 52 50 71q-23 10 -50 10q-49 0 -83 -68q-6 -12 -43 -105l-361 -905q-98 -245 -274 -245q-76 0 -134 48q-62 52 -62 126q0 91 89 91q39 0 65 -25.5t26 -63.5q0 -81 -85 -91q41 -38 101 -38q93 0 158 92q32 45 86 173l42 100
q-91 278 -261 766q-30 87 -57 104q-23 14 -121 14v66q90 -6 206 -6q54 0 233 6v-66q-129 1 -129 -60q0 -5 208 -615q60 146 178 437q21 54 64 161q68 158 154 158q57 0 101 -37q47 -40 47 -96zM1377 669q0 -285 -183 -494q-192 -218 -472 -218t-471 219q-183 209 -183 493
q0 285 182 498q191 223 472 223q282 0 473 -223q182 -212 182 -498zM1177 605q0 216 -65 385q-79 205 -240 296q-96 54 -197 54q-98 0 -186 -53q-223 -135 -223 -509q0 -221 68 -401q81 -217 244 -313q95 -56 193 -56q90 0 180 55q226 139 226 542z" />
  </g>

</svg>
