<?xml version="1.0" standalone="no"?>
<!DOCTYPE svg PUBLIC "-//W3C//DTD SVG 1.1//EN" "http://www.w3.org/Graphics/SVG/1.1/DTD/svg11.dtd" >
<svg viewBox="0 -442 2048 2048">
  <g transform="matrix(1 0 0 -1 0 1606)">
   <path fill="currentColor"
d="M1899 805q0 -75 -73 -75q-75 0 -75 73q0 52 50 71q-23 10 -50 10q-49 0 -83 -68q-6 -12 -43 -105l-361 -905q-98 -245 -274 -245q-76 0 -134 48q-62 52 -62 126q0 91 89 91q39 0 65 -25.5t26 -63.5q0 -81 -85 -91q41 -38 101 -38q93 0 158 92q32 45 86 173l42 100
q-91 278 -261 766q-30 87 -57 104q-23 14 -121 14v66q90 -6 206 -6q54 0 233 6v-66q-129 1 -129 -60q0 -5 208 -615q60 146 178 437q21 54 64 161q68 158 154 158q57 0 101 -37q47 -40 47 -96zM946 486q0 -206 -124 -354q-131 -156 -333 -156q-192 0 -317 148
q-119 139 -119 335q0 199 123 346q130 155 325 155q194 0 322 -141q123 -136 123 -333zM783 406q0 187 -65 326q-84 180 -250 180q-135 0 -200 -121q-52 -96 -52 -243q0 -186 67 -331q87 -187 251 -187q249 0 249 376z" />
  </g>

</svg>
