<?xml version="1.0" standalone="no"?>
<!DOCTYPE svg PUBLIC "-//W3C//DTD SVG 1.1//EN" "http://www.w3.org/Graphics/SVG/1.1/DTD/svg11.dtd" >
<svg viewBox="0 -442 2048 2048">
  <g transform="matrix(1 0 0 -1 0 1606)">
   <path fill="currentColor"
d="M1696 677q0 -267 -166 -447q-196 -212 -575 -231l28 -138q2 -10 2 -18q0 -38 -31.5 -62t-71.5 -24t-70 23q-33 25 -33 63q0 8 2 18l28 138q-376 19 -573 227q-168 178 -168 444q0 267 166 447q196 212 575 231l-28 138q-2 10 -2 18q0 38 33 63q30 23 70 23t71.5 -24
t31.5 -62q0 -8 -2 -18l-28 -138q376 -19 573 -227q168 -178 168 -444zM1494 656q0 427 -340 584q-100 46 -209 57l-35 -175q-9 -45 -28 -45t-28 47l-35 173q-111 -10 -208 -53q-341 -150 -341 -552q0 -427 340 -584q100 -46 209 -57l35 174q9 45 28 45t28 -47l35 -172
q111 10 208 53q341 150 341 552z" />
  </g>

</svg>
