<?xml version="1.0" standalone="no"?>
<!DOCTYPE svg PUBLIC "-//W3C//DTD SVG 1.1//EN" "http://www.w3.org/Graphics/SVG/1.1/DTD/svg11.dtd" >
<svg viewBox="0 -442 2048 2048">
  <g transform="matrix(1 0 0 -1 0 1606)">
   <path fill="currentColor"
d="M1283 476q0 -207 -167 -336q-154 -118 -391 -132l24 -118q1 -5 1 -15q0 -31 -25 -50t-57 -19t-57 19t-25 50q0 10 1 15l24 118q-235 14 -388 126q-170 124 -170 326q0 207 167 336q154 118 391 132l-24 118q-1 5 -1 15q0 31 25 50t57 19t57 -19t25 -50q0 -10 -1 -15
l-24 -118q235 -14 388 -126q170 -124 170 -326zM1106 466q0 172 -73 264q-104 131 -318 149l-25 -124q-7 -36 -22 -36q-14 0 -22 38l-25 122q-222 -19 -323 -148q-68 -87 -68 -256q0 -172 73 -264q104 -131 319 -149l24 119q7 36 22 36q14 0 22 -38l24 -117q222 18 324 148
q68 87 68 256z" />
  </g>

</svg>
