<?xml version="1.0" standalone="no"?>
<!DOCTYPE svg PUBLIC "-//W3C//DTD SVG 1.1//EN" "http://www.w3.org/Graphics/SVG/1.1/DTD/svg11.dtd" >
<svg viewBox="0 -442 2048 2048">
  <g transform="matrix(1 0 0 -1 0 1606)">
   <path fill="currentColor"
d="M1413 1372q-107 -63 -215 -63t-255.5 107t-268.5 107q-157 0 -239 -241l-37 43q79 281 352 281q100 0 203 -59q82 -55 163 -110q90 -59 156 -59q55 0 120 33zM926 1296l-27 -18q-74 129 -177 129q-27 0 -27 -25q0 -8 3.5 -24.5t3.5 -24.5q0 -28 -20.5 -50t-48.5 -22
q-79 0 -79 83q0 48 41 82q38 31 88 31q154 0 243 -161zM1618 598q0 -243 -113 -426q-133 -215 -362 -215q-237 0 -296 247h-8q-59 -247 -296 -247q-229 0 -362 215q-113 183 -113 426q0 462 470 619l13 -41q-168 -68 -231 -216q-49 -113 -49 -321q0 -630 294 -630
q94 0 161 105q58 93 58 193q0 112 -22 212q-24 109 -24 127q0 125 105 125t105 -125q0 -18 -24 -127q-22 -100 -22 -212q0 -100 58 -193q67 -105 161 -105q294 0 294 630q0 208 -49 321q-63 148 -231 216l13 41q470 -157 470 -619z" />
  </g>

</svg>
