<?xml version="1.0" standalone="no"?>
<!DOCTYPE svg PUBLIC "-//W3C//DTD SVG 1.1//EN" "http://www.w3.org/Graphics/SVG/1.1/DTD/svg11.dtd" >
<svg viewBox="0 -442 2048 2048">
  <g transform="matrix(1 0 0 -1 0 1606)">
   <path fill="currentColor"
d="M1123 1184q-94 -63 -188 -63q-96 0 -224.5 107t-235.5 107q-137 0 -210 -241l-37 43q31 125 107 199q84 82 207 82q111 0 252.5 -114t205.5 -114q45 0 102 33zM724 1108l-27 -18q-74 129 -177 129q-27 0 -27 -25q0 -8 3.5 -24.5t3.5 -24.5q0 -28 -20.5 -50t-48.5 -22
q-79 0 -79 83q0 48 41 82q38 31 88 31q154 0 243 -161zM1241 430q0 -173 -79 -302q-93 -152 -255 -152q-224 0 -256 267h-8q-32 -267 -256 -267q-162 0 -255 152q-79 129 -79 302q0 244 121 382q128 145 369 148v-48q-327 -10 -327 -470q0 -169 25 -257q44 -155 169 -155
q99 0 149 102q39 79 39 189q0 115 -22 217q-24 112 -24 127q0 116 95 116t95 -116q0 -15 -24 -127q-22 -102 -22 -217q0 -110 39 -189q50 -102 149 -102q125 0 169 155q25 88 25 257q0 460 -327 470v48q241 -3 369 -148q121 -138 121 -382z" />
  </g>

</svg>
