<?xml version="1.0" standalone="no"?>
<!DOCTYPE svg PUBLIC "-//W3C//DTD SVG 1.1//EN" "http://www.w3.org/Graphics/SVG/1.1/DTD/svg11.dtd" >
<svg viewBox="0 -442 2048 2048">
  <g transform="matrix(1 0 0 -1 0 1606)">
   <path fill="currentColor"
d="M1399 1343h-63q-12 107 -56 137t-186 30h-60q-90 0 -109 -7q-40 -15 -40 -81v-71h-84v71q0 66 -40 81q-19 7 -109 7h-60q-142 0 -186 -30t-56 -137h-63l20 263h1072zM1618 617q0 -252 -109 -438q-131 -222 -366 -222q-236 0 -296 247h-8q-60 -247 -296 -247
q-235 0 -366 222q-109 186 -109 438q0 533 428 701l14 -41q-133 -76 -194 -286q-46 -156 -46 -356q0 -626 295 -626q94 0 160 105q59 93 59 193q0 112 -22 212q-24 109 -24 127q0 125 105 125t105 -125q0 -18 -24 -127q-22 -100 -22 -212q0 -100 59 -193q66 -105 160 -105
q295 0 295 626q0 200 -46 356q-61 210 -194 286l14 41q428 -168 428 -701z" />
  </g>

</svg>
