<?xml version="1.0" standalone="no"?>
<!DOCTYPE svg PUBLIC "-//W3C//DTD SVG 1.1//EN" "http://www.w3.org/Graphics/SVG/1.1/DTD/svg11.dtd" >
<svg viewBox="0 -442 2048 2048">
  <g transform="matrix(1 0 0 -1 0 1606)">
   <path fill="currentColor"
d="M1267 854q0 -26 -31 -26q-27 0 -33 32q-12 60 -47 178q-51 127 -147 205q-104 85 -234 85q-105 0 -207 -50q-147 -72 -226 -232q-72 -145 -72 -322q0 -185 78 -334q86 -164 244 -232q95 -41 185 -41q60 0 118 17v-430q0 -27 11 -48q16 -29 94 -35h110v-61q-71 6 -117 6
h-373q-41 0 -112 -6v61q8 0 29 -1h28q128 0 147 36q9 17 9 49v353q-267 12 -458 203q-195 194 -195 460q0 274 205 473q203 196 479 196q193 0 363 -169l99 144q17 25 31 25q22 0 22 -33v-503z" />
  </g>

</svg>
