<?xml version="1.0" standalone="no"?>
<!DOCTYPE svg PUBLIC "-//W3C//DTD SVG 1.1//EN" "http://www.w3.org/Graphics/SVG/1.1/DTD/svg11.dtd" >
<svg viewBox="-967 -442 2048 2048">
  <g transform="matrix(1 0 0 -1 0 1606)">
   <path fill="currentColor"
d="M-72 1246q-94 -63 -188 -63q-96 0 -224.5 107t-235.5 107q-137 0 -210 -241l-37 43q31 125 107 199q84 82 207 82q111 0 252.5 -114t205.5 -114q45 0 102 33zM-471 1167l-27 -18q-74 129 -177 129q-27 0 -27 -25q0 -8 3.5 -24.5t3.5 -24.5q0 -28 -20.5 -50t-48.5 -22
q-79 0 -79 83q0 48 41 82q38 31 88 31q154 0 243 -161z" />
  </g>

</svg>
