<?xml version="1.0" standalone="no"?>
<!DOCTYPE svg PUBLIC "-//W3C//DTD SVG 1.1//EN" "http://www.w3.org/Graphics/SVG/1.1/DTD/svg11.dtd" >
<svg viewBox="-1515 -442 2048 2048">
  <g transform="matrix(1 0 0 -1 0 1606)">
   <path fill="currentColor"
d="M287 923h-24q-3 60 -60 102q-53 39 -115 39t-115 -39q-57 -42 -60 -102h-24q0 87 55 156q59 73 144 73t144 -73q55 -69 55 -156zM475 354h-24q-3 60 -60 102q-53 39 -115 39t-115 -39q-57 -42 -60 -102h-24q0 87 55 156q59 73 144 73t144 -73q55 -69 55 -156zM-321 1149
h-24q-3 60 -60 102q-53 39 -115 39t-115 -39q-57 -42 -60 -102h-24q0 87 55 156q59 73 144 73t144 -73q55 -69 55 -156zM287 -161h-24q-3 60 -60 102q-53 39 -115 39t-115 -39q-57 -42 -60 -102h-24q0 87 55 156q59 73 144 73t144 -73q55 -69 55 -156zM-929 923h-24
q-3 60 -60 102q-53 39 -115 39t-115 -39q-57 -42 -60 -102h-24q0 87 55 156q59 73 144 73t144 -73q55 -69 55 -156zM-1117 354h-24q-3 60 -60 102q-53 39 -115 39t-115 -39q-57 -42 -60 -102h-24q0 87 55 156q59 73 144 73t144 -73q55 -69 55 -156zM-321 -442h-24
q-3 60 -60 102q-53 39 -115 39t-115 -39q-57 -42 -60 -102h-24q0 87 55 156q59 73 144 73t144 -73q55 -69 55 -156zM-929 -161h-24q-3 60 -60 102q-53 39 -115 39t-115 -39q-57 -42 -60 -102h-24q0 87 55 156q59 73 144 73t144 -73q55 -69 55 -156z" />
  </g>

</svg>
