<?xml version="1.0" standalone="no"?>
<!DOCTYPE svg PUBLIC "-//W3C//DTD SVG 1.1//EN" "http://www.w3.org/Graphics/SVG/1.1/DTD/svg11.dtd" >
<svg viewBox="-1430 -442 2048 2048">
  <g transform="matrix(1 0 0 -1 0 1606)">
   <path fill="currentColor"
d="M390 840q0 -18 -20 -18q-5 0 -58.5 22t-90.5 22q-56 0 -56 -34q0 -13 8 -38.5t8 -38.5q0 -32 -23.5 -53t-56.5 -21q-38 0 -64.5 27t-26.5 65q0 63 60 105q55 39 120 39q74 0 160 -44q40 -20 40 -33zM-135 1363q0 -12 -11 -20q-4 -3 -36 -12q-38 -11 -75 -39
q-45 -35 -45 -67q0 -11 48 -39t48 -70q0 -35 -27 -60t-62 -25q-47 0 -75 39q-24 34 -24 83q0 150 203 217q24 8 34 8q22 0 22 -15zM390 105q0 -22 -15 -22q-12 0 -20 11q-3 4 -12 36q-11 38 -39 75q-35 45 -67 45q-11 0 -39 -48t-70 -48q-35 0 -60 27t-25 62q0 47 39 75
q34 24 83 24q150 0 217 -203q8 -24 8 -34zM-733 1089q0 -38 -27 -64.5t-65 -26.5q-63 0 -105 60q-39 55 -39 120q0 74 44 160q20 40 33 40q18 0 18 -20q0 -5 -22 -58.5t-22 -90.5q0 -56 34 -56q13 0 38.5 8t38.5 8q32 0 53 -23.5t21 -56.5zM-71 -242q0 -74 -44 -160
q-20 -40 -33 -40q-18 0 -18 20q0 5 22 58.5t22 90.5q0 56 -34 56q-13 0 -38.5 -8t-38.5 -8q-32 0 -53 23.5t-21 56.5q0 38 27 64.5t65 26.5q63 0 105 -60q39 -55 39 -120zM-1083 693q0 -47 -39 -75q-34 -24 -83 -24q-150 0 -217 203q-8 24 -8 34q0 22 15 22q12 0 20 -11
q3 -4 12 -36q11 -38 39 -75q35 -45 67 -45q11 0 39 48t70 48q35 0 60 -27t25 -62zM-646 -217q0 -151 -203 -217q-25 -8 -38 -8q-18 0 -18 15q0 12 11 20q3 2 36 12q38 11 75 39q45 34 45 67q0 11 -48 39t-48 70q0 35 27 60t62 25q47 0 75 -38q24 -35 24 -84zM-1050 163
q0 -63 -60 -105q-55 -39 -120 -39q-74 0 -160 44q-40 20 -40 33q0 18 20 18q5 0 58.5 -22t90.5 -22q56 0 56 34q0 13 -8 38.5t-8 38.5q0 32 23.5 53t56.5 21q38 0 64.5 -27t26.5 -65z" />
  </g>

</svg>
