<?xml version="1.0" standalone="no"?>
<!DOCTYPE svg PUBLIC "-//W3C//DTD SVG 1.1//EN" "http://www.w3.org/Graphics/SVG/1.1/DTD/svg11.dtd" >
<svg viewBox="0 -442 2048 2048">
  <g transform="matrix(1 0 0 -1 0 1606)">
   <path fill="currentColor"
d="M981 1308q0 -102 -121 -169q-106 -58 -230 -58t-229 58q-122 67 -122 169q0 90 89 90t89 -90t-89 -90q99 -74 262 -74t262 74q-89 0 -89 90t89 90t89 -90zM1204 0l-246 -336l-39 27q28 36 76 130q53 102 53 134q0 45 -70 45h-256v66q142 0 158 33q9 19 9 68v570
l-499 -653q38 -18 148 -18v-66q-203 6 -240 6q-33 0 -242 -6v66q142 0 158 33q9 19 9 68v589q0 49 -9 68q-16 33 -158 33v66q209 -6 242 -6q37 0 240 6v-66q-143 0 -159 -33q-9 -19 -9 -68v-570l499 653q-38 18 -147 18v66q209 -6 242 -6q37 0 240 6v-66q-143 0 -159 -33
q-9 -19 -9 -68v-589q0 -49 9 -68q16 -33 159 -33v-66z" />
  </g>

</svg>
