<?xml version="1.0" standalone="no"?>
<!DOCTYPE svg PUBLIC "-//W3C//DTD SVG 1.1//EN" "http://www.w3.org/Graphics/SVG/1.1/DTD/svg11.dtd" >
<svg viewBox="0 -442 2048 2048">
  <g transform="matrix(1 0 0 -1 0 1606)">
   <path fill="currentColor"
d="M1107 461q0 -170 -105.5 -303.5t-266.5 -169.5l106 -184l-54 -31l-118 205q-19 -2 -38 -2q-78 0 -154 40q-85 44 -110 111v-388q0 -42 11 -59q23 -35 155 -28v-66q-169 5 -241 5q-73 0 -239 -5v66q37 -2 47 -2q69 0 90 14q30 19 30 83v1002q0 51 -8 67q-12 25 -56 36
q-23 5 -103 3v68l307 23v-141q127 141 300 141q189 0 321 -149q126 -144 126 -336zM929 461q0 151 -67 278q-81 154 -218 154q-179 0 -277 -172v-478q0 -46 30 -89q91 -130 225 -130q10 0 20 1l-125 215l54 31l134 -232q107 39 170 175q54 118 54 247z" />
  </g>

</svg>
