<?xml version="1.0" standalone="no"?>
<!DOCTYPE svg PUBLIC "-//W3C//DTD SVG 1.1//EN" "http://www.w3.org/Graphics/SVG/1.1/DTD/svg11.dtd" >
<svg viewBox="0 -442 2048 2048">
  <g transform="matrix(1 0 0 -1 0 1606)">
   <path fill="currentColor"
d="M1149 901h-49q-24 212 -82 285q-74 95 -274 95h-214q-51 0 -66 -12q-20 -15 -20 -67v-559h593v-62h-593v-444q0 -22 8 -39q18 -39 245 -37v-61q-74 6 -120 6h-382q-55 0 -127 -6v61q8 0 27 -1h27q124 0 141 38q7 15 7 48v435h-202v62h202v556q0 31 -7 47q-16 38 -195 35
v62h1026z" />
  </g>

</svg>
