<?xml version="1.0" standalone="no"?>
<!DOCTYPE svg PUBLIC "-//W3C//DTD SVG 1.1//EN" "http://www.w3.org/Graphics/SVG/1.1/DTD/svg11.dtd" >
<svg viewBox="0 -442 2048 2048">
  <g transform="matrix(1 0 0 -1 0 1606)">
   <path fill="currentColor"
d="M1198 188q0 -279 -183 -451q-178 -169 -459 -169q-118 0 -236 60q-112 58 -192 152l43 32q176 -175 385 -175q224 0 340 167q100 145 100 380q0 232 -102 378q-117 169 -338 169q-54 0 -112 -12v-582q0 -22 8 -39q18 -39 245 -37v-61q-74 6 -120 6h-382q-55 0 -127 -6v61
q8 0 27 -1h27q124 0 141 38q7 15 7 48v1053q0 31 -7 47q-16 38 -195 35v62h1026l55 -442h-49q-24 212 -82 285q-74 95 -274 95h-214q-51 0 -67 -12q-19 -14 -19 -67v-417q56 8 112 8q284 0 460 -159q182 -165 182 -446z" />
  </g>

</svg>
