<?xml version="1.0" standalone="no"?>
<!DOCTYPE svg PUBLIC "-//W3C//DTD SVG 1.1//EN" "http://www.w3.org/Graphics/SVG/1.1/DTD/svg11.dtd" >
<svg viewBox="0 -442 2146 2048">
  <g transform="matrix(1 0 0 -1 0 1606)">
   <path fill="currentColor"
d="M2146 -394q-93 17 -180 178q-93 171 -170 202q-50 20 -84 52q-82 76 -82 237q0 13 1 40v40q0 136 -80 236q-86 107 -219 107h-138v-559q0 -28 9 -45q18 -34 196 -33v-61q-71 6 -120 6h-344q-49 0 -120 -6v61q178 -1 196 33q9 17 9 45v559h-138q-133 0 -219 -107
q-80 -100 -80 -236q0 -13 1 -40v-40q0 -161 -82 -237q-87 -81 -248 -81q-83 0 -137 68q-49 62 -49 148q0 33 24 33q18 0 24 -31q32 -175 131 -175q88 0 118 158q12 85 23 169q16 108 41 162q46 97 157 161q99 58 215 74v8q-181 35 -287 165q-60 73 -122 231q-51 127 -92 144
q10 -22 10 -45q0 -39 -26 -64.5t-65 -25.5q-90 0 -90 92q0 54 39 95t92 41q100 0 167 -154q97 -222 159 -289q145 -159 434 -167v447q0 29 -6 44q-16 40 -142 40q-10 0 -29 -1t-28 -1v62q70 -6 120 -6h344q50 0 120 6v-62q-9 0 -28 1t-29 1q-126 0 -142 -40q-6 -15 -6 -44
v-447q289 8 434 167q62 67 159 289q67 154 167 154q53 0 92 -41t39 -95q0 -92 -90 -92q-39 0 -65 25.5t-26 64.5q0 23 10 45q-41 -17 -92 -144q-62 -158 -122 -231q-106 -130 -287 -165v-8q116 -16 215 -74q111 -64 157 -161q25 -54 41 -162q11 -84 23 -169q3 -17 14 -50
q26 -52 197 -47q0 -10 -1 -40v-39q0 -312 87 -376z" />
  </g>

</svg>
