<?xml version="1.0" standalone="no"?>
<!DOCTYPE svg PUBLIC "-//W3C//DTD SVG 1.1//EN" "http://www.w3.org/Graphics/SVG/1.1/DTD/svg11.dtd" >
<svg viewBox="0 -442 2048 2048">
  <g transform="matrix(1 0 0 -1 0 1606)">
   <path fill="currentColor"
d="M1176 359q0 -85 -50 -164q-148 -235 -514 -238q172 -70 216 -159q36 -72 -21 -136.5t-154 -64.5q-143 0 -252 149l33 30q69 -95 158 -95q42 0 71.5 22.5t29.5 54.5q0 14 -7 28q-45 89 -186 174q-177 10 -281 67q-78 -70 -98 -70q-33 0 -34 33l-12 275q-1 32 41 32
q22 0 28 -8q3 -4 7 -28q10 -66 29 -100q80 -144 421 -144q160 0 258 92q102 94 102 252q0 156 -98.5 246t-255.5 90h-116q-78 -1 -117 -1q-38 0 -38 30q0 16 13 22.5t148 16.5q180 13 279 79q150 100 150 257q0 111 -103 174q-87 53 -206 53q-158 0 -268 -66
q-98 -59 -124 -135q-4 -20 -17 -58q-10 -20 -35 -20q-41 0 -39 46l9 246q2 49 35 49q26 0 112 -85q136 85 333 85q167 0 311 -64q185 -82 185 -227q0 -261 -386 -360q172 -25 295 -115q148 -108 148 -265z" />
  </g>

</svg>
