<?xml version="1.0" standalone="no"?>
<!DOCTYPE svg PUBLIC "-//W3C//DTD SVG 1.1//EN" "http://www.w3.org/Graphics/SVG/1.1/DTD/svg11.dtd" >
<svg viewBox="0 -442 2048 2048">
  <g transform="matrix(1 0 0 -1 0 1606)">
   <path fill="currentColor"
d="M860 253q0 -59 -36 -116q-97 -152 -346 -166q180 -79 180 -171q0 -54 -51 -90q-46 -32 -103 -32q-118 0 -208 123l33 30q57 -78 126 -78q76 0 76 57q0 10 -5 21q-33 70 -153 141q-122 6 -198 41l-64 -43q-31 -2 -38 12q-3 7 -3 44v122q0 58 28 58q20 0 26 -20
q2 -23 17 -71q45 -85 287 -85q255 0 255 223q0 222 -251 222h-118q-55 0 -55 24q0 22 34 26q25 1 75 4q122 8 192 62q86 66 86 161q0 76 -64 115q-53 32 -135 32q-103 0 -178 -38q-70 -35 -93 -94q-20 -50 -35 -50q-28 0 -28 58v122q0 37 3 44q7 14 38 12q25 -19 77 -54
q91 54 225 54q120 0 225 -43q136 -57 136 -160q0 -170 -254 -242q112 -21 195 -81q102 -73 102 -174z" />
  </g>

</svg>
