<?xml version="1.0" standalone="no"?>
<!DOCTYPE svg PUBLIC "-//W3C//DTD SVG 1.1//EN" "http://www.w3.org/Graphics/SVG/1.1/DTD/svg11.dtd" >
<svg viewBox="0 -442 2048 2048">
  <g transform="matrix(1 0 0 -1 0 1606)">
   <path fill="currentColor"
d="M1446 -394q-93 17 -180 178q-93 171 -170 202q-50 20 -84 52q-82 76 -82 237q0 13 1 40v40q0 136 -80 236q-86 107 -219 107h-188v-559q0 -28 9 -45q18 -34 196 -33v-61q-71 6 -120 6h-347q-43 0 -114 -6v61q8 0 27 -1h28q125 0 141 40q6 15 6 44v1066q0 27 -7 41
q-17 35 -195 33v62q70 -6 119 -6h342q50 0 120 6v-62q-9 0 -28 1t-29 1q-126 0 -142 -40q-6 -15 -6 -44v-447q324 0 480 158q72 73 163 294q65 158 167 158q53 0 92 -41t39 -95q0 -92 -90 -92q-39 0 -65 25.5t-26 64.5q0 23 10 45q-41 -17 -92 -144q-62 -158 -122 -231
q-106 -130 -287 -165v-8q116 -16 215 -74q111 -64 157 -161q25 -54 41 -162q11 -84 23 -169q3 -17 14 -50q26 -52 197 -47q0 -10 -1 -40v-39q0 -312 87 -376z" />
  </g>

</svg>
