<?xml version="1.0" standalone="no"?>
<!DOCTYPE svg PUBLIC "-//W3C//DTD SVG 1.1//EN" "http://www.w3.org/Graphics/SVG/1.1/DTD/svg11.dtd" >
<svg viewBox="0 -442 2048 2048">
  <g transform="matrix(1 0 0 -1 0 1606)">
   <path fill="currentColor"
d="M1826 173q0 -86 -49 -148q-54 -68 -137 -68q-161 0 -248 81q-82 76 -82 237q0 13 1 40v40q0 136 -80 236q-86 107 -219 107h-188v-559q0 -28 9 -45q18 -34 196 -33v-61q-71 6 -120 6h-337q-43 0 -114 -6v61q62 -2 63 -2q113 0 134 45q5 11 5 42v1056q0 52 -20 67
q-15 12 -66 12h-101q-200 0 -274 -95q-58 -73 -82 -285h-49l55 442h906v-62q-10 0 -29.5 1t-29.5 1q-84 0 -107 -11q-39 -20 -39 -94v-423q324 0 480 158q72 73 163 294q65 158 167 158q53 0 92 -41t39 -95q0 -92 -90 -92q-39 0 -65 25.5t-26 64.5q0 23 10 45
q-41 -17 -92 -144q-62 -158 -122 -231q-106 -130 -287 -165v-8q116 -16 215 -74q111 -65 157 -161q25 -54 41 -162q11 -84 23 -169q30 -158 118 -158q99 0 131 175q6 31 24 31q24 0 24 -33z" />
  </g>

</svg>
