<?xml version="1.0" standalone="no"?>
<!DOCTYPE svg PUBLIC "-//W3C//DTD SVG 1.1//EN" "http://www.w3.org/Graphics/SVG/1.1/DTD/svg11.dtd" >
<svg viewBox="0 -442 2048 2048">
  <g transform="matrix(1 0 0 -1 0 1606)">
   <path fill="currentColor"
d="M1523 589h-53q-18 182 -98 229q-55 32 -254 32q-112 0 -122 -2q-32 -6 -40 -31q-3 -10 -3 -55v-595q0 -53 10 -71q17 -30 157 -30v-66q-203 6 -240 6q-33 0 -242 -6v66q140 0 157 30q10 18 10 71v281h-435v-281q0 -49 9 -68q16 -33 159 -33v-66q-203 6 -240 6
q-33 0 -242 -6v66q140 0 157 30q10 18 10 71v589q0 53 -10 71q-17 30 -157 30v66q209 -6 242 -6q37 0 240 6v-66q-143 0 -159 -33q-9 -19 -9 -68v-242h435v242q0 53 -10 71q-17 30 -157 30v60h847z" />
  </g>

</svg>
