<?xml version="1.0" standalone="no"?>
<!DOCTYPE svg PUBLIC "-//W3C//DTD SVG 1.1//EN" "http://www.w3.org/Graphics/SVG/1.1/DTD/svg11.dtd" >
<svg viewBox="0 -442 2048 2048">
  <g transform="matrix(1 0 0 -1 0 1606)">
   <path fill="currentColor"
d="M1963 188q0 -279 -183 -451q-178 -169 -459 -169q-118 0 -236 60q-112 58 -192 152l43 32q176 -175 385 -175q224 0 340 167q100 145 100 380q0 232 -102 378q-117 169 -338 169q-54 0 -112 -12v-578q0 -26 6 -41q13 -32 90 -39q11 -1 108 0v-61q-71 6 -113 6h-361
q-36 0 -107 -6v61h78q60 0 85 11q39 17 39 69v1141h-590v-1141q0 -26 6 -41q13 -32 90 -39q11 -1 109 0v-61q-71 6 -113 6h-360q-37 0 -108 -6v61h78q60 0 85 11q39 17 39 69v1062q0 26 -6 41q-13 32 -90 38h-106v62h1345v-62q-8 0 -30 1h-31q-121 0 -137 -39q-6 -14 -6 -41
v-418q56 8 112 8q284 0 460 -159q182 -165 182 -446z" />
  </g>

</svg>
