<?xml version="1.0" standalone="no"?>
<!DOCTYPE svg PUBLIC "-//W3C//DTD SVG 1.1//EN" "http://www.w3.org/Graphics/SVG/1.1/DTD/svg11.dtd" >
<svg viewBox="0 -442 2048 2048">
  <g transform="matrix(1 0 0 -1 0 1606)">
   <path fill="currentColor"
d="M1483 152q-86 -195 -291 -195q-83 0 -185 46q-112 -46 -285 -46q-279 0 -471 219q-183 210 -183 493q0 285 182 498q192 223 472 223q25 0 41 -1l9 -53q-27 4 -50 4q-98 0 -190 -53q-262 -151 -262 -591q0 -473 265 -632q93 -56 189 -56q118 0 201 40q-334 228 -334 609
q0 207 101 402q120 234 307 234q193 0 320 -224q108 -190 108 -400q0 -190 -91 -359q-93 -175 -253 -269q54 -34 109 -34q175 0 246 166zM1225 696q0 136 -56 318q-70 231 -170 231q-123 0 -175 -244q-31 -147 -31 -344q0 -156 53 -302q58 -157 163 -257q216 176 216 598z
" />
  </g>

</svg>
