<?xml version="1.0" standalone="no"?>
<!DOCTYPE svg PUBLIC "-//W3C//DTD SVG 1.1//EN" "http://www.w3.org/Graphics/SVG/1.1/DTD/svg11.dtd" >
<svg viewBox="0 -442 2048 2048">
  <g transform="matrix(1 0 0 -1 0 1606)">
   <path fill="currentColor"
d="M1138 122q-71 -146 -232 -146q-64 0 -139 30q-85 -30 -213 -30q-204 0 -352.5 143t-148.5 346q0 205 148 350t353 145q21 0 39 -1l10 -57q-33 5 -49 5q-70 0 -138 -35q-191 -98 -191 -389q0 -313 193 -417q67 -36 137 -36q74 0 129 19q-239 156 -239 408q0 150 82 284
q93 154 234 154q145 0 243 -147q88 -131 88 -283q0 -129 -67.5 -243t-179.5 -179q44 -17 79 -17q125 0 180 119zM921 483q0 93 -39 211q-49 149 -121 149q-144 0 -144 -386q0 -228 152 -364q152 118 152 390z" />
  </g>

</svg>
