<?xml version="1.0" standalone="no"?>
<!DOCTYPE svg PUBLIC "-//W3C//DTD SVG 1.1//EN" "http://www.w3.org/Graphics/SVG/1.1/DTD/svg11.dtd" >
<svg viewBox="0 -442 2048 2048">
  <g transform="matrix(1 0 0 -1 0 1606)">
   <path fill="currentColor"
d="M1267 854q0 -26 -31 -26q-27 0 -33 32q-12 60 -47 178q-51 127 -147 205q-104 85 -234 85q-104 0 -207 -50q-298 -145 -298 -606q0 -476 322 -614q96 -41 185 -41q140 0 256 85t159 218q17 52 27 140q4 33 23 33q24 0 24 -35q0 -206 -154 -354.5t-360 -146.5h-10
q172 -70 216 -159q36 -72 -21 -136.5t-154 -64.5q-143 0 -252 149l33 30q69 -95 158 -95q42 0 71.5 22.5t29.5 54.5q0 14 -7 28q-48 94 -208 187q-236 52 -389 252q-151 197 -151 448q0 289 196 501q201 216 488 216q193 0 363 -169l99 144q17 25 31 25q21 0 21 -33z" />
  </g>

</svg>
