<?xml version="1.0" standalone="no"?>
<!DOCTYPE svg PUBLIC "-//W3C//DTD SVG 1.1//EN" "http://www.w3.org/Graphics/SVG/1.1/DTD/svg11.dtd" >
<svg viewBox="0 -442 2048 2048">
  <g transform="matrix(1 0 0 -1 0 1606)">
   <path fill="currentColor"
d="M868 254q0 -22 -27 -75q-103 -200 -322 -203q191 -83 191 -176q0 -54 -51 -90q-46 -32 -103 -32q-118 0 -208 123l33 30q57 -78 126 -78q76 0 76 57q0 10 -5 21q-36 76 -193 164q-147 44 -239.5 175t-92.5 291q0 201 130 347q134 152 332 152q121 0 215 -54
q113 -64 113 -176q0 -100 -97 -100q-42 0 -70.5 28t-28.5 70q0 94 100 99q-79 78 -229 78q-60 0 -120 -34q-168 -94 -168 -405q0 -306 178 -402q63 -34 123 -34q113 0 181 64q40 37 78 118q30 64 49 64q29 0 29 -22z" />
  </g>

</svg>
