<?xml version="1.0" standalone="no"?>
<!DOCTYPE svg PUBLIC "-//W3C//DTD SVG 1.1//EN" "http://www.w3.org/Graphics/SVG/1.1/DTD/svg11.dtd" >
<svg viewBox="0 -442 2048 2048">
  <g transform="matrix(1 0 0 -1 0 1606)">
   <path fill="currentColor"
d="M1346 901h-49q-22 262 -88.5 321.5t-330.5 59.5q-46 0 -62 -9q-23 -14 -23 -56v-1071q0 -25 10 -47q19 -41 277 -38q0 -12 -1 -40v-39q0 -312 87 -376q-68 13 -125 92q-15 20 -81 140q-51 91 -85 120q-49 42 -138 42h-405v61q9 0 38 -1h38q184 0 202 39q8 17 8 47v1072
q0 43 -29 56q-17 8 -66 8q-256 0 -321 -62.5t-86 -318.5h-48l36 442h1206z" />
  </g>

</svg>
