<?xml version="1.0" standalone="no"?>
<!DOCTYPE svg PUBLIC "-//W3C//DTD SVG 1.1//EN" "http://www.w3.org/Graphics/SVG/1.1/DTD/svg11.dtd" >
<svg viewBox="0 -442 2048 2048">
  <g transform="matrix(1 0 0 -1 0 1606)">
   <path fill="currentColor"
d="M1536 -394q-68 13 -125 92q-15 20 -81 140q-51 91 -85 120q-49 42 -138 42h-200v61q128 5 128 59q0 10 -320 493l-281 -414q-19 -28 -19 -48q0 -43 42 -68q35 -21 81 -22v-61q-74 6 -191 6q-65 0 -279 -6v61q196 0 285 131l323 477l-362 547q-34 51 -99 64q-32 6 -122 4
v62q112 -6 298 -6q175 0 246 6v-62q-128 -5 -128 -58q0 -13 268 -410l225 333q17 25 17 46q0 43 -41 67q-34 21 -80 22v62q81 -6 222 -6q24 0 248 6v-62q-198 -2 -285 -128l-271 -395l416 -629q35 -53 99 -66q32 -7 123 -5q0 -12 -1 -40v-39q0 -312 87 -376z" />
  </g>

</svg>
