<?xml version="1.0" standalone="no"?>
<!DOCTYPE svg PUBLIC "-//W3C//DTD SVG 1.1//EN" "http://www.w3.org/Graphics/SVG/1.1/DTD/svg11.dtd" >
<svg viewBox="0 -442 2048 2048">
  <g transform="matrix(1 0 0 -1 0 1606)">
   <path fill="currentColor"
d="M1223 -266q-68 0 -115 49q-14 16 -73 108q-41 64 -70 84q-35 25 -102 25h-169v66q77 3 77 54q0 10 -208 285q-192 -223 -192 -272q0 -61 62 -67v-66q-141 6 -203 6q-98 0 -177 -6v66q159 0 274 128q67 85 200 256l-212 276q-71 92 -103 109q-36 20 -149 20v68
q110 -8 202 -8q30 0 233 8v-68q-75 -2 -75 -52q0 -20 184 -255l134 167q33 41 33 75q0 61 -63 65v68q108 -8 204 -8q73 0 177 8v-68q-152 -3 -255 -109q-26 -27 -197 -244l287 -369q37 -47 92 -60q32 -8 112 -7q0 -10 -1 -44.5t-1 -56.5q0 -212 94 -231z" />
  </g>

</svg>
