<?xml version="1.0" standalone="no"?>
<!DOCTYPE svg PUBLIC "-//W3C//DTD SVG 1.1//EN" "http://www.w3.org/Graphics/SVG/1.1/DTD/svg11.dtd" >
<svg viewBox="0 -442 2114 2048">
  <g transform="matrix(1 0 0 -1 0 1606)">
   <path fill="currentColor"
d="M2114 -394q-68 13 -125 92q-15 20 -81 140q-51 91 -85 120q-49 42 -138 42h-1309v62h106q77 6 90 38q6 15 6 41v1074q0 67 -115 67q-156 0 -216 -27q-93 -42 -119 -178h-46l22 266h1125l22 -266h-47q-28 140 -124 181q-58 24 -223 24q-105 0 -105 -67v-1153h890v1141
q0 52 -39 69q-25 11 -85 11h-78v61q71 -6 107 -6h361q42 0 113 6v-61q-97 1 -108 0q-77 -7 -90 -39q-6 -15 -6 -41v-998q0 -69 14 -97q25 -51 197 -47q0 -12 -1 -40v-39q0 -312 87 -376z" />
  </g>

</svg>
