<?xml version="1.0" standalone="no"?>
<!DOCTYPE svg PUBLIC "-//W3C//DTD SVG 1.1//EN" "http://www.w3.org/Graphics/SVG/1.1/DTD/svg11.dtd" >
<svg viewBox="0 -442 2048 2048">
  <g transform="matrix(1 0 0 -1 0 1606)">
   <path fill="currentColor"
d="M1204 0q-203 6 -240 6q-32 0 -242 -6v66q140 0 157 30q10 18 10 71v274q-91 -101 -229 -132v-107h-62v97q-17 -1 -33 -1q-131 0 -232 78q-110 84 -110 211q0 214 -5 229q-11 32 -72 40q-12 1 -90 1v66q209 -6 242 -6q37 0 240 6v-66q-140 0 -157 -30q-11 -19 -11 -71
v-143q0 -98 67 -158q63 -56 161 -61v308h62v-305q111 17 201 106q28 28 28 75v178q0 53 -10 71q-17 30 -157 30v66q209 -6 242 -6q37 0 240 6v-66q-140 0 -157 -30q-11 -19 -11 -71v-589q0 -52 11 -71q17 -30 157 -30v-66z" />
  </g>

</svg>
