<?xml version="1.0" standalone="no"?>
<!DOCTYPE svg PUBLIC "-//W3C//DTD SVG 1.1//EN" "http://www.w3.org/Graphics/SVG/1.1/DTD/svg11.dtd" >
<svg viewBox="0 -442 2048 2048">
  <g transform="matrix(1 0 0 -1 0 1606)">
   <path fill="currentColor"
d="M1834 714h-1106v-18q-2 -253 98 -443q124 -235 356 -235q297 0 487 304q11 20 35 57q12 16 30 16q31 0 31 -36q0 -11 -9 -28q-90 -173 -235 -271q-153 -103 -341 -103q-280 0 -471 219q-183 209 -183 493q0 25 3 62q-192 37 -315 131q-146 113 -146 282q0 86 50 154
q54 74 137 74q57 0 95.5 -36.5t38.5 -92.5t-37.5 -93.5t-93.5 -37.5q-90 0 -122 75q-6 -17 -6 -29q0 -155 127 -254q105 -81 279 -113q40 250 213 419q182 180 431 180q270 0 459 -206q179 -196 195 -470zM1630 774q-25 376 -257 512q-92 54 -193 54q-99 0 -190 -53
q-234 -137 -259 -513h899z" />
  </g>

</svg>
