<?xml version="1.0" standalone="no"?>
<!DOCTYPE svg PUBLIC "-//W3C//DTD SVG 1.1//EN" "http://www.w3.org/Graphics/SVG/1.1/DTD/svg11.dtd" >
<svg viewBox="0 -442 2048 2048">
  <g transform="matrix(1 0 0 -1 0 1606)">
   <path fill="currentColor"
d="M1834 714h-1106v-18q0 -254 99 -443q124 -235 355 -235q297 0 487 304q11 20 35 57q12 16 30 16q31 0 31 -36q0 -11 -9 -28q-165 -317 -477 -366q-34 -113 -41 -272h-115q-7 159 -41 272q-243 39 -402 247q-154 201 -154 457q0 25 3 62q-192 37 -315 131
q-146 113 -146 282q0 86 50 154q54 74 137 74q57 0 95.5 -36.5t38.5 -92.5t-37.5 -93.5t-93.5 -37.5q-90 0 -122 75q-6 -17 -6 -29q0 -155 127 -254q105 -81 279 -113q40 250 213 419q182 180 431 180q270 0 459 -206q179 -196 195 -470zM1630 774q-25 376 -257 512
q-92 54 -193 54q-99 0 -190 -53q-234 -136 -259 -513h899z" />
  </g>

</svg>
