<?xml version="1.0" standalone="no"?>
<!DOCTYPE svg PUBLIC "-//W3C//DTD SVG 1.1//EN" "http://www.w3.org/Graphics/SVG/1.1/DTD/svg11.dtd" >
<svg viewBox="0 -442 2048 2048">
  <g transform="matrix(1 0 0 -1 0 1606)">
   <path fill="currentColor"
d="M1385 1229q0 -92 -90 -92q-39 0 -65 25.5t-26 64.5q0 23 10 45q-39 -16 -81 -118q-61 -148 -93 -199q-74 -120 -192 -178q217 -44 343 -195q132 -158 132 -394q0 -279 -183 -451q-178 -169 -459 -169q-118 0 -236 60q-112 58 -192 152l43 32q176 -175 385 -175
q224 0 340 167q100 145 100 380q0 225 -96 370q-111 167 -320 176q-105 -20 -261 -32v-559q0 -28 9 -45q18 -34 196 -33v-61q-71 6 -120 6h-347q-43 0 -114 -6v61q8 0 27 -1h28q125 0 141 40q6 15 6 44v1066q0 27 -7 41q-17 35 -195 33v62q70 -6 119 -6h342q50 0 120 6v-62
q-9 0 -28 1t-29 1q-126 0 -142 -40q-6 -15 -6 -44v-447q324 0 480 158q72 73 163 294q65 158 167 158q53 0 92 -41t39 -95z" />
  </g>

</svg>
