<?xml version="1.0" standalone="no"?>
<!DOCTYPE svg PUBLIC "-//W3C//DTD SVG 1.1//EN" "http://www.w3.org/Graphics/SVG/1.1/DTD/svg11.dtd" >
<svg viewBox="0 -442 2048 2048">
  <g transform="matrix(1 0 0 -1 0 1606)">
   <path fill="currentColor"
d="M1038 772q0 -102 -102 -102q-39 0 -66.5 28.5t-27.5 67.5q0 28 16 54.5t16 29.5q0 18 -25 18q-65 0 -102 -113q-53 -158 -83 -196q128 -13 205 -94t77 -214q0 -113 -58 -230q-153 -310 -568 -463l-14 48q194 72 327 220q150 165 150 357q0 164 -127 238q-97 57 -247 57
q-8 0 -27.5 -4t-28.5 -3v-313q0 -41 9 -59q17 -34 158 -33v-66q-203 6 -239 6q-32 0 -242 -6v66q7 0 24 -1h25q66 0 88 14q30 18 30 79v607q0 41 -9 59q-17 34 -158 33v66q208 -6 242 -6q37 0 239 6v-66q-7 0 -24 1h-25q-66 0 -88 -14q-30 -18 -30 -79v-226h92q127 0 178 70
q20 27 57 151q30 103 93 148q42 30 103 30q70 0 116 -48t46 -118z" />
  </g>

</svg>
