<?xml version="1.0" standalone="no"?>
<!DOCTYPE svg PUBLIC "-//W3C//DTD SVG 1.1//EN" "http://www.w3.org/Graphics/SVG/1.1/DTD/svg11.dtd" >
<svg viewBox="0 -442 2048 2048">
  <g transform="matrix(1 0 0 -1 0 1606)">
   <path fill="currentColor"
d="M1176 0l-246 -336l-39 27q28 36 76 130q53 102 53 134q0 45 -70 45h-256v66q140 0 157 30q10 18 10 71v585q0 49 -7 65q-18 40 -149 40q-69 0 -92 -5q-55 -11 -63 -53q-3 -17 -4 -116q-6 -683 -261 -683q-70 0 -121 48.5t-51 118.5q0 88 86 88q36 0 60 -24.5t24 -61.5
q0 -59 -50 -79q18 -9 48 -9q119 0 162 268q24 149 24 390q0 63 -6 80q-11 30 -72 37q-10 1 -89 1v66h876v-66q-140 0 -157 -30q-10 -18 -10 -71v-589q0 -53 10 -71q17 -30 157 -30v-66z" />
  </g>

</svg>
