<?xml version="1.0" standalone="no"?>
<!DOCTYPE svg PUBLIC "-//W3C//DTD SVG 1.1//EN" "http://www.w3.org/Graphics/SVG/1.1/DTD/svg11.dtd" >
<svg viewBox="0 -442 2048 2048">
  <g transform="matrix(1 0 0 -1 0 1606)">
   <path fill="currentColor"
d="M1120 857q-140 0 -157 -30q-10 -18 -10 -71v-865q0 -132 -82 -229q-87 -103 -218 -103q-90 0 -159 40q-83 48 -83 132q0 42 27.5 70t69.5 28t70.5 -28t28.5 -70q0 -76 -74 -96q58 -29 114 -29q158 0 158 281v561h-435v-281q0 -49 9 -68q16 -33 159 -33v-66q-203 6 -240 6
q-33 0 -242 -6v66q140 0 157 30q10 18 10 71v589q0 53 -10 71q-17 30 -157 30v66q209 -6 242 -6q37 0 240 6v-66q-143 0 -159 -33q-9 -19 -9 -68v-242h435v242q0 53 -10 71q-17 30 -157 30v66q209 -6 242 -6q37 0 240 6v-66z" />
  </g>

</svg>
