<?xml version="1.0" standalone="no"?>
<!DOCTYPE svg PUBLIC "-//W3C//DTD SVG 1.1//EN" "http://www.w3.org/Graphics/SVG/1.1/DTD/svg11.dtd" >
<svg viewBox="0 -442 2048 2048">
  <g transform="matrix(1 0 0 -1 0 1606)">
   <path fill="currentColor"
d="M1535 1284q-10 0 -29.5 1t-29.5 1q-76 0 -103 -9q-53 -18 -53 -76v-1056q0 -32 9 -49q19 -36 147 -36h28q21 1 29 1v-61h-255q-89 0 -138 -42q-34 -29 -85 -120q-66 -120 -81 -140q-57 -79 -125 -92q87 64 87 376v39q-1 28 -1 40q172 -4 197 47q14 28 14 97v485
q-190 -218 -438 -218q-187 0 -309 108q-129 114 -129 301v327q0 30 -7 43q-20 38 -195 33v62q73 -6 156 -6h270q84 0 156 6v-62q-48 1 -60 1q-118 0 -136 -34q-9 -17 -9 -51v-319q0 -149 93 -234q88 -81 235 -81q208 0 373 205v430q0 32 -9 49q-18 34 -153 34h-51v62
q71 -6 115 -6h376q41 0 111 6v-62z" />
  </g>

</svg>
