<?xml version="1.0" standalone="no"?>
<!DOCTYPE svg PUBLIC "-//W3C//DTD SVG 1.1//EN" "http://www.w3.org/Graphics/SVG/1.1/DTD/svg11.dtd" >
<svg viewBox="0 -442 2048 2048">
  <g transform="matrix(1 0 0 -1 0 1606)">
   <path fill="currentColor"
d="M1726 0l-329 -427l-29 22q45 92 91 184q66 139 66 176q0 45 -92 45h-273v61h76q63 0 87 10q40 17 40 70v1140h-2l-483 -1245q-14 -36 -36 -36t-39 43l-476 1222h-2v-1064q0 -141 203 -140v-61q-209 6 -230 6q-19 0 -230 -6v61q202 -1 202 140v1003q0 22 -6 38
q-12 32 -89 39q-11 1 -107 0v62h341q45 0 61 -42l428 -1102l430 1108q14 36 49 36h349v-62q-9 0 -27.5 1t-28.5 1q-125 0 -141 -41q-6 -15 -6 -45v-1058q0 -26 8 -43q17 -36 195 -35v-61z" />
  </g>

</svg>
