<?xml version="1.0" standalone="no"?>
<!DOCTYPE svg PUBLIC "-//W3C//DTD SVG 1.1//EN" "http://www.w3.org/Graphics/SVG/1.1/DTD/svg11.dtd" >
<svg viewBox="0 -442 2048 2048">
  <g transform="matrix(1 0 0 -1 0 1606)">
   <path fill="currentColor"
d="M1041 1496q0 -47 -32 -79.5t-79 -32.5q-45 0 -77.5 33.5t-32.5 78.5q0 44 33 77t77 33q47 0 79 -32t32 -78zM669 1496q0 -47 -32.5 -79.5t-78.5 -32.5q-45 0 -78 33.5t-33 78.5q0 44 33 77t78 33q46 0 78.5 -32t32.5 -78zM1417 0q-127 6 -355 6q-113 0 -187 -6v61
q162 -1 162 59q0 29 -47 159q-31 84 -62 169h-487l-56 -146q-39 -107 -39 -140q0 -51 52 -78q42 -23 97 -23v-61q-189 6 -228 6q-62 0 -199 -6v61q174 2 219 133l409 1177q14 40 46 40t46 -40l425 -1231q21 -61 84 -75q25 -6 120 -4v-61zM906 510l-222 641l-220 -641h442z
" />
  </g>

</svg>
