<?xml version="1.0" standalone="no"?>
<!DOCTYPE svg PUBLIC "-//W3C//DTD SVG 1.1//EN" "http://www.w3.org/Graphics/SVG/1.1/DTD/svg11.dtd" >
<svg viewBox="0 -442 2048 2048">
  <g transform="matrix(1 0 0 -1 0 1606)">
   <path fill="currentColor"
d="M1727 508l-82 -508h-972v61q6 0 20 -1h20q65 0 85 13q27 17 27 76v467h-318l-147 -413q-10 -28 -10 -44q0 -95 146 -98v-61q-189 6 -227 6q-71 0 -201 -6v61q176 0 223 132l390 1087q-23 0 -84 1q-54 1 -84 1v61h1104l55 -443h-49q-25 215 -78 286q-72 96 -273 96h-187
q-61 0 -75 -9q-22 -14 -22 -70v-525h168q130 0 170 52q33 43 33 178h49v-522h-49q0 135 -33 178q-40 52 -170 52h-168v-476q0 -56 22 -70q14 -9 75 -9h187q228 0 311 117q52 75 95 330h49zM825 678v515q0 79 -81 81l-215 -596h296z" />
  </g>

</svg>
