<?xml version="1.0" standalone="no"?>
<!DOCTYPE svg PUBLIC "-//W3C//DTD SVG 1.1//EN" "http://www.w3.org/Graphics/SVG/1.1/DTD/svg11.dtd" >
<svg viewBox="0 -442 2048 2048">
  <g transform="matrix(1 0 0 -1 0 1606)">
   <path fill="currentColor"
d="M1053 1516q0 -85 -140 -130q-101 -33 -211 -33t-211 33q-140 45 -140 130q0 39 25 64.5t64 25.5t64 -25.5t25 -64.5q0 -51 -38 -76q63 -24 174 -24h74q111 0 174 24q-38 25 -38 76q0 39 25 64.5t64 25.5t64 -25.5t25 -64.5zM1287 508l-84 -508h-1135v61q47 -1 53 -1
q125 0 142 38q7 16 7 48v1053q0 30 -7 47q-17 41 -195 35v62h1108l56 -442h-49q-24 218 -95 294q-80 86 -293 86h-263q-54 0 -69 -12q-19 -15 -19 -67v-474h178q134 0 176 49q37 44 37 180h51v-521h-51q0 136 -38 180q-42 50 -175 50h-178v-526q0 -52 19 -67q15 -12 69 -12
h273q236 0 326 111q67 84 107 336h49z" />
  </g>

</svg>
