<?xml version="1.0" standalone="no"?>
<!DOCTYPE svg PUBLIC "-//W3C//DTD SVG 1.1//EN" "http://www.w3.org/Graphics/SVG/1.1/DTD/svg11.dtd" >
<svg viewBox="0 -442 2048 2048">
  <g transform="matrix(1 0 0 -1 0 1606)">
   <path fill="currentColor"
d="M1376 678q0 -285 -182 -498q-191 -223 -472 -223q-270 0 -458 206q-180 196 -196 470h1106v18q0 469 -265 632q-93 57 -187 57q-142 0 -286 -117q-138 -113 -184 -253q-10 -32 -33 -32q-31 0 -31 26v393q0 33 21 33q14 0 31 -25l87 -127q184 152 395 152q280 0 471 -219
q183 -209 183 -493zM1171 573h-899q25 -376 257 -512q92 -54 193 -54q99 0 190 53q234 137 259 513z" />
  </g>

</svg>
