<?xml version="1.0" standalone="no"?>
<!DOCTYPE svg PUBLIC "-//W3C//DTD SVG 1.1//EN" "http://www.w3.org/Graphics/SVG/1.1/DTD/svg11.dtd" >
<svg viewBox="0 -442 2048 2048">
  <g transform="matrix(1 0 0 -1 0 1606)">
   <path fill="currentColor"
d="M1011 1496q0 -47 -32 -79.5t-79 -32.5q-45 0 -77.5 33.5t-32.5 78.5q0 44 33 77t77 33q47 0 79 -32t32 -78zM639 1496q0 -47 -32.5 -79.5t-78.5 -32.5q-45 0 -78 33.5t-33 78.5q0 44 33 77t78 33q46 0 78.5 -32t32.5 -78zM1376 678q0 -285 -182 -498q-191 -223 -472 -223
q-270 0 -458 206q-180 196 -196 470h1106v18q0 469 -265 632q-93 57 -187 57q-142 0 -286 -117q-138 -113 -184 -253q-10 -32 -33 -32q-31 0 -31 26v393q0 33 21 33q14 0 31 -25l87 -127q184 152 395 152q280 0 471 -219q183 -209 183 -493zM1171 573h-899q25 -376 257 -512
q92 -54 193 -54q99 0 190 53q234 137 259 513z" />
  </g>

</svg>
