<?xml version="1.0" standalone="no"?>
<!DOCTYPE svg PUBLIC "-//W3C//DTD SVG 1.1//EN" "http://www.w3.org/Graphics/SVG/1.1/DTD/svg11.dtd" >
<svg viewBox="0 -442 2048 2048">
  <g transform="matrix(1 0 0 -1 0 1606)">
   <path fill="currentColor"
d="M743 1240q0 -47 -32 -79.5t-79 -32.5q-45 0 -77.5 33.5t-32.5 78.5q0 44 33 77t77 33q47 0 79 -32t32 -78zM371 1240q0 -47 -32.5 -79.5t-78.5 -32.5q-45 0 -78 33.5t-33 78.5q0 44 33 77t78 33q46 0 78.5 -32t32.5 -78zM881 465q0 -194 -124 -338q-130 -151 -321 -151
q-180 0 -284 123q-99 115 -99 298q0 30 7.5 37.5t38.5 7.5h605v7q0 210 -64 313q-90 144 -242 144q-198 0 -290 -221q-12 -29 -28 -29q-27 0 -27 26q0 30 35 90q110 188 322 188q198 0 336 -149q135 -146 135 -346zM701 397h-507q0 -143 50 -243q64 -129 192 -129
q41 0 90 23q165 78 175 349z" />
  </g>

</svg>
