<?xml version="1.0" standalone="no"?>
<!DOCTYPE svg PUBLIC "-//W3C//DTD SVG 1.1//EN" "http://www.w3.org/Graphics/SVG/1.1/DTD/svg11.dtd" >
<svg viewBox="0 -442 2048 2048">
  <g transform="matrix(1 0 0 -1 0 1606)">
   <path fill="currentColor"
d="M911 1496q0 -47 -32 -79.5t-79 -32.5q-45 0 -77.5 33.5t-32.5 78.5q0 44 33 77t77 33q47 0 79 -32t32 -78zM539 1496q0 -47 -32.5 -79.5t-78.5 -32.5q-45 0 -78 33.5t-33 78.5q0 44 33 77t78 33q46 0 78.5 -32t32.5 -78zM1176 359q0 -85 -50 -164q-77 -122 -228 -184
q-132 -54 -293 -54q-258 0 -386 70q-78 -70 -98 -70q-33 0 -34 33l-12 275q-1 32 41 32q22 0 28 -8q3 -4 7 -28q10 -66 29 -100q80 -144 421 -144q160 0 258 92q102 94 102 252q0 156 -98.5 246t-255.5 90h-116q-78 -1 -117 -1q-38 0 -38 30q0 16 13 22.5t148 16.5
q180 13 279 79q150 100 150 257q0 111 -103 174q-87 53 -206 53q-158 0 -268 -66q-98 -59 -124 -135q-4 -20 -17 -58q-10 -20 -35 -20q-41 0 -39 46l9 246q2 49 35 49q26 0 112 -85q136 85 333 85q167 0 311 -64q185 -82 185 -227q0 -261 -386 -360q172 -25 295 -115
q148 -108 148 -265z" />
  </g>

</svg>
