<?xml version="1.0" standalone="no"?>
<!DOCTYPE svg PUBLIC "-//W3C//DTD SVG 1.1//EN" "http://www.w3.org/Graphics/SVG/1.1/DTD/svg11.dtd" >
<svg viewBox="0 -442 2048 2048">
  <g transform="matrix(1 0 0 -1 0 1606)">
   <path fill="currentColor"
d="M1113 419q0 -210 -166 -341q-153 -121 -369 -121q-197 0 -337 117q-147 123 -147 267q0 56 31 104q36 54 89 54q39 0 69 -30.5t30 -69.5t-29 -68.5t-68 -29.5q-36 0 -67 24q13 -136 157 -231q132 -86 275 -86q330 0 330 440q0 94 -63 192q-61 93 -147 139q-39 21 -108 37
q-41 10 -41 26q0 8 291 439h-330q-205 0 -293.5 -87.5t-100.5 -293.5h-51l22 443h920q34 0 34 -32q0 -17 -14 -38l-287 -425q154 -52 255 -158q115 -121 115 -271z" />
  </g>

</svg>
