<?xml version="1.0" standalone="no"?>
<!DOCTYPE svg PUBLIC "-//W3C//DTD SVG 1.1//EN" "http://www.w3.org/Graphics/SVG/1.1/DTD/svg11.dtd" >
<svg viewBox="0 -442 2048 2048">
  <g transform="matrix(1 0 0 -1 0 1606)">
   <path fill="currentColor"
d="M908 74q0 -195 -137.5 -321.5t-334.5 -126.5q-121 0 -215 54q-113 64 -113 176q0 100 97 100q42 0 70.5 -28t28.5 -70q0 -94 -100 -99q79 -78 229 -78q134 0 221 121q77 109 77 249q0 135 -76 218t-210 83q-39 0 -84 -12l-37 38l397 405h-325q-126 0 -164 -19
q-60 -30 -72 -141h-54l21 300h721q38 0 38 -28q0 -20 -18 -38l-372 -379q179 -12 292 -118q120 -112 120 -286z" />
  </g>

</svg>
