<?xml version="1.0" standalone="no"?>
<!DOCTYPE svg PUBLIC "-//W3C//DTD SVG 1.1//EN" "http://www.w3.org/Graphics/SVG/1.1/DTD/svg11.dtd" >
<svg viewBox="0 -442 2048 2048">
  <g transform="matrix(1 0 0 -1 0 1606)">
   <path fill="currentColor"
d="M1116 1494h-601v102h601v-102zM1564 0q-71 6 -113 6h-361q-36 0 -107 -6v61q9 0 29 -1h28q119 0 137 36q8 16 8 45v964l-734 -1008l1 -1q14 -30 90 -35q7 -1 107 0v-61q-71 6 -115 6h-358q-37 0 -108 -6v61q9 0 28 -1h28q121 0 139 36q7 14 7 45v1064q0 31 -7 45
q-17 34 -149 34h-46v62q70 -6 112 -6h354q45 0 115 6v-62q-9 0 -27.5 1t-27.5 1q-123 0 -142 -36q-8 -16 -8 -45v-967l734 1009q-15 37 -149 37h-46v62q70 -6 112 -6h356q43 0 113 6v-62q-9 0 -27.5 1t-28.5 1q-122 0 -140 -36q-8 -16 -8 -45v-1064q0 -29 8 -45
q18 -36 196 -35v-61z" />
  </g>

</svg>
