<?xml version="1.0" standalone="no"?>
<!DOCTYPE svg PUBLIC "-//W3C//DTD SVG 1.1//EN" "http://www.w3.org/Graphics/SVG/1.1/DTD/svg11.dtd" >
<svg viewBox="0 -442 2048 2048">
  <g transform="matrix(1 0 0 -1 0 1606)">
   <path fill="currentColor"
d="M927 1191h-601v102h601v-102zM1204 0q-203 6 -240 6q-33 0 -242 -6v66q142 0 158 33q9 19 9 68v570l-499 -653q38 -18 148 -18v-66q-203 6 -240 6q-33 0 -242 -6v66q142 0 158 33q9 19 9 68v589q0 49 -9 68q-16 33 -158 33v66q209 -6 242 -6q37 0 240 6v-66
q-143 0 -159 -33q-9 -19 -9 -68v-570l499 653q-38 18 -147 18v66q209 -6 242 -6q37 0 240 6v-66q-143 0 -159 -33q-9 -19 -9 -68v-589q0 -49 9 -68q16 -33 159 -33v-66z" />
  </g>

</svg>
