<?xml version="1.0" standalone="no"?>
<!DOCTYPE svg PUBLIC "-//W3C//DTD SVG 1.1//EN" "http://www.w3.org/Graphics/SVG/1.1/DTD/svg11.dtd" >
<svg viewBox="0 -442 2048 2048">
  <g transform="matrix(1 0 0 -1 0 1606)">
   <path fill="currentColor"
d="M1011 1496q0 -47 -32 -79.5t-79 -32.5q-45 0 -77.5 33.5t-32.5 78.5q0 44 33 77t77 33q47 0 79 -32t32 -78zM639 1496q0 -47 -32.5 -79.5t-78.5 -32.5q-45 0 -78 33.5t-33 78.5q0 44 33 77t78 33q46 0 78.5 -32t32.5 -78zM1377 669q0 -285 -183 -494q-192 -218 -472 -218
t-471 219q-183 209 -183 493q0 285 182 498q191 223 472 223q282 0 473 -223q182 -212 182 -498zM1175 696q0 438 -260 590q-92 54 -193 54q-99 0 -190 -53q-262 -153 -262 -591q0 -469 265 -632q91 -56 189 -56q90 0 184 55q267 156 267 633z" />
  </g>

</svg>
