<?xml version="1.0" standalone="no"?>
<!DOCTYPE svg PUBLIC "-//W3C//DTD SVG 1.1//EN" "http://www.w3.org/Graphics/SVG/1.1/DTD/svg11.dtd" >
<svg viewBox="0 -442 2048 2048">
  <g transform="matrix(1 0 0 -1 0 1606)">
   <path fill="currentColor"
d="M843 1240q0 -47 -32 -79.5t-79 -32.5q-45 0 -77.5 33.5t-32.5 78.5q0 44 33 77t77 33q47 0 79 -32t32 -78zM471 1240q0 -47 -32.5 -79.5t-78.5 -32.5q-45 0 -78 33.5t-33 78.5q0 44 33 77t78 33q46 0 78.5 -32t32.5 -78zM1002 458q0 -199 -139 -340.5t-337 -141.5
q-196 0 -334.5 142.5t-138.5 339.5q0 201 136 350q140 152 339 152q198 0 338 -153q136 -149 136 -349zM823 476q0 205 -56 297q-84 138 -241 138q-164 0 -245 -143q-51 -90 -51 -292q0 -207 55 -302q83 -144 243 -144q167 0 248 158q47 92 47 288z" />
  </g>

</svg>
