<?xml version="1.0" standalone="no"?>
<!DOCTYPE svg PUBLIC "-//W3C//DTD SVG 1.1//EN" "http://www.w3.org/Graphics/SVG/1.1/DTD/svg11.dtd" >
<svg viewBox="0 -442 2048 2048">
  <g transform="matrix(1 0 0 -1 0 1606)">
   <path fill="currentColor"
d="M1116 1494h-601v102h601v-102zM1523 1282q-171 -2 -248 -134l-550 -940q-133 -228 -284 -228q-135 0 -213 71q-81 74 -81 208q0 106 99 106q42 0 69.5 -27t27.5 -69q0 -43 -28 -70.5t-71 -27.5q-14 0 -35 5q20 -70 91 -108q63 -34 141 -34q87 0 173 135q53 83 136 234
l-466 798q-10 19 -37 52q-34 30 -179 29v64q196 -6 240 -6q56 0 240 6v-64q-95 1 -95 -41q0 -14 18 -45l371 -636l345 590q23 39 23 65q0 65 -73 67v64q183 -6 193 -6q91 0 193 6v-64z" />
  </g>

</svg>
