<?xml version="1.0" standalone="no"?>
<!DOCTYPE svg PUBLIC "-//W3C//DTD SVG 1.1//EN" "http://www.w3.org/Graphics/SVG/1.1/DTD/svg11.dtd" >
<svg viewBox="0 -442 2048 2048">
  <g transform="matrix(1 0 0 -1 0 1606)">
   <path fill="currentColor"
d="M1281 1496q0 -47 -32 -79.5t-79 -32.5q-45 0 -77.5 33.5t-32.5 78.5q0 44 33 77t77 33q47 0 79 -32t32 -78zM909 1496q0 -47 -32.5 -79.5t-78.5 -32.5q-45 0 -78 33.5t-33 78.5q0 44 33 77t78 33q46 0 78.5 -32t32.5 -78zM1920 0q-71 6 -117 6h-373q-41 0 -112 -6v61
q8 0 29 -1h28q128 0 147 36q9 17 9 49v1056q0 32 -9 49q-18 34 -153 34h-51v62q71 -6 115 -6h376q41 0 111 6v-62q-10 0 -29.5 1t-29.5 1q-75 0 -103 -9q-53 -18 -53 -76v-1057q0 -27 11 -48q16 -29 94 -35h110v-61zM1278 360q0 -161 -142 -266q-129 -94 -296 -94h-772v61
q62 -2 63 -2q113 0 134 45q5 11 5 42v1055q0 32 -9 49q-18 34 -153 34h-40v62q71 -6 115 -6h355q41 0 111 6v-62q-10 0 -29.5 1t-29.5 1q-76 0 -103 -9q-53 -18 -53 -76v-480h336q188 0 334 -85q174 -101 174 -276zM1082 362q0 141 -89 230q-85 85 -208 85h-351v-537
q0 -53 19 -68q14 -11 67 -11h257q129 0 217 86t88 215z" />
  </g>

</svg>
