<?xml version="1.0" standalone="no"?>
<!DOCTYPE svg PUBLIC "-//W3C//DTD SVG 1.1//EN" "http://www.w3.org/Graphics/SVG/1.1/DTD/svg11.dtd" >
<svg viewBox="0 -442 2048 2048">
  <g transform="matrix(1 0 0 -1 0 1606)">
   <path fill="currentColor"
d="M1081 1240q0 -47 -32 -79.5t-79 -32.5q-45 0 -77.5 33.5t-32.5 78.5q0 44 33 77t77 33q47 0 79 -32t32 -78zM669 1240q0 -47 -32.5 -79.5t-78.5 -32.5q-45 0 -78 33.5t-33 78.5q0 44 33 77t78 33q46 0 78.5 -32t32.5 -78zM1495 0q-203 6 -240 6q-38 0 -242 -6v66
q139 0 156 29q11 18 11 68v597q0 50 -11 68q-17 29 -156 29v66q203 -6 242 -6q37 0 240 6v-66q-80 0 -86 -1q-60 -5 -72 -34q-9 -21 -9 -72v-577q0 -51 9 -72q12 -29 72 -34q6 -1 86 -1v-66zM1004 251q0 -56 -34 -109q-90 -142 -310 -142h-598v66q140 -1 157 30q10 18 10 71
v589q0 53 -10 71q-17 31 -157 30v66q120 -6 236 -6q37 0 233 6v-66q-140 1 -157 -30q-10 -18 -10 -71v-270h291q127 0 227 -53q122 -65 122 -182zM833 255q0 86 -56 143.5t-141 57.5h-272v-302q0 -62 14 -75t78 -13h152q93 0 156 47q69 53 69 142z" />
  </g>

</svg>
