<?xml version="1.0" standalone="no"?>
<!DOCTYPE svg PUBLIC "-//W3C//DTD SVG 1.1//EN" "http://www.w3.org/Graphics/SVG/1.1/DTD/svg11.dtd" >
<svg viewBox="0 -442 2048 2048">
  <g transform="matrix(1 0 0 -1 0 1606)">
   <path fill="currentColor"
d="M1149 901h-49q-24 212 -82 285q-74 95 -274 95h-214q-51 0 -66 -12q-20 -15 -20 -67v-559h593v-62h-593v-444q0 -22 8 -39q18 -39 245 -37v-168q0 -133 -78 -229q-84 -103 -214 -103q-90 0 -159 40q-83 48 -83 132q0 42 27.5 70t69.5 28t70.5 -28t28.5 -70q0 -76 -74 -96
q58 -29 114 -29q158 0 158 281v117h-362q-55 0 -127 -6v61q8 0 27 -1h27q124 0 141 38q7 15 7 48v435h-202v62h202v556q0 31 -7 47q-16 38 -195 35v62h1026z" />
  </g>

</svg>
