<?xml version="1.0" standalone="no"?>
<!DOCTYPE svg PUBLIC "-//W3C//DTD SVG 1.1//EN" "http://www.w3.org/Graphics/SVG/1.1/DTD/svg11.dtd" >
<svg viewBox="0 -442 2048 2048">
  <g transform="matrix(1 0 0 -1 0 1606)">
   <path fill="currentColor"
d="M940 595h-53q-18 182 -98 229q-55 32 -254 32q-112 0 -122 -2q-32 -6 -40 -31q-3 -10 -3 -55v-305h325v-62h-325v-230q0 -47 7 -62q10 -26 49 -34q43 -9 152 -9v-173q0 -133 -78 -229q-84 -103 -214 -103q-90 0 -159 40q-83 48 -83 132q0 42 27.5 70t69.5 28t70.5 -28
t28.5 -70q0 -76 -74 -96q58 -29 114 -29q158 0 158 281v117h-103q-33 0 -279 -6v66q140 0 157 30q10 18 10 71v234h-167v62h167v293q0 52 -10 70q-16 30 -151 30h-6v67h846z" />
  </g>

</svg>
