<?xml version="1.0" standalone="no"?>
<!DOCTYPE svg PUBLIC "-//W3C//DTD SVG 1.1//EN" "http://www.w3.org/Graphics/SVG/1.1/DTD/svg11.dtd" >
<svg viewBox="0 -442 2048 2048">
  <g transform="matrix(1 0 0 -1 0 1606)">
   <path fill="currentColor"
d="M1368 1284q-198 -2 -285 -128l-271 -395l452 -685q72 -109 72 -223q0 -136 -106 -217q-86 -66 -177 -66q-53 0 -95 32q-46 34 -46 86q0 39 30.5 68t70.5 29t68.5 -29.5t28.5 -69.5q0 -35 -21 -62q130 24 130 130q0 95 -106 256l-398 603l-281 -414q-19 -28 -19 -48
q0 -43 42 -68q35 -21 81 -22v-61q-74 6 -191 6q-65 0 -279 -6v61q196 0 285 131l323 477l-362 547q-34 51 -99 64q-32 6 -122 4v62q112 -6 298 -6q175 0 246 6v-62q-128 -5 -128 -58q0 -13 268 -410l225 333q17 25 17 46q0 43 -41 67q-34 21 -80 22v62q81 -6 222 -6
q24 0 248 6v-62z" />
  </g>

</svg>
