<?xml version="1.0" standalone="no"?>
<!DOCTYPE svg PUBLIC "-//W3C//DTD SVG 1.1//EN" "http://www.w3.org/Graphics/SVG/1.1/DTD/svg11.dtd" >
<svg viewBox="0 -442 2048 2048">
  <g transform="matrix(1 0 0 -1 0 1606)">
   <path fill="currentColor"
d="M1092 855q-152 -3 -255 -109q-26 -27 -197 -244l334 -428q75 -96 75 -218q0 -139 -109 -222q-87 -66 -177 -66q-53 0 -95 32q-46 34 -46 86q0 39 30.5 68t70.5 29t68.5 -29.5t28.5 -69.5q0 -35 -21 -62q159 30 159 148q0 113 -94 237l-301 398q-192 -223 -192 -272
q0 -61 62 -67v-66q-141 6 -203 6q-98 0 -177 -6v66q159 0 274 128q67 85 200 256l-212 276q-71 92 -103 109q-36 20 -149 20v68q110 -8 202 -8q30 0 233 8v-68q-75 -2 -75 -52q0 -20 184 -255l134 167q33 41 33 75q0 61 -63 65v68q108 -8 204 -8q73 0 177 8v-68z" />
  </g>

</svg>
