<?xml version="1.0" standalone="no"?>
<!DOCTYPE svg PUBLIC "-//W3C//DTD SVG 1.1//EN" "http://www.w3.org/Graphics/SVG/1.1/DTD/svg11.dtd" >
<svg viewBox="0 -442 2048 2048">
  <g transform="matrix(1 0 0 -1 0 1606)">
   <path fill="currentColor"
d="M1228 0h-695q-174 0 -311 94q-154 106 -154 272q0 158 149 263q135 95 300 95h335v473q0 32 -7 48q-18 39 -198 37v61q72 -6 133 -6h326q50 0 122 6v-61q-73 1 -55 1q-122 0 -140 -38q-7 -15 -7 -48v-1051q0 -32 7 -48q18 -41 195 -36v-62zM857 141v532h-272
q-313 0 -313 -307q0 -161 77 -233q74 -71 236 -71h186q53 0 67 12q19 14 19 67z" />
  </g>

</svg>
