<?xml version="1.0" standalone="no"?>
<!DOCTYPE svg PUBLIC "-//W3C//DTD SVG 1.1//EN" "http://www.w3.org/Graphics/SVG/1.1/DTD/svg11.dtd" >
<svg viewBox="0 -442 2048 2048">
  <g transform="matrix(1 0 0 -1 0 1606)">
   <path fill="currentColor"
d="M1771 516q-6 0 -24 1h-24q-72 0 -94 -16q-26 -19 -26 -86v-169q0 -133 -124 -216q-109 -73 -249 -73q-201 0 -312 127q-112 -84 -265 -84h-120q-174 0 -311 94q-154 106 -154 272q0 158 149 263q135 95 300 95h335v473q0 32 -7 48q-18 39 -198 37v61q72 -6 133 -6h326
q50 0 122 6v-61q-73 1 -55 1q-122 0 -140 -38q-7 -15 -7 -48v-970q0 -100 51 -158q54 -61 153 -61t153 61q51 58 51 158v188q0 52 -11 71q-19 32 -157 30v66q202 -6 251 -6q46 0 254 6v-66zM857 270v403h-272q-313 0 -313 -307q0 -161 77 -233q74 -71 236 -71h48q56 0 86 5
q138 24 138 203z" />
  </g>

</svg>
