<?xml version="1.0" standalone="no"?>
<!DOCTYPE svg PUBLIC "-//W3C//DTD SVG 1.1//EN" "http://www.w3.org/Graphics/SVG/1.1/DTD/svg11.dtd" >
<svg viewBox="0 -442 2048 2048">
  <g transform="matrix(1 0 0 -1 0 1606)">
   <path fill="currentColor"
d="M1685 435q-140 0 -157 -30q-11 -19 -11 -71v-69q0 -125 -105.5 -207t-256.5 -82q-234 0 -328 163q-135 -163 -321 -163q-192 0 -324 147q-129 142 -129 336q0 198 139.5 342.5t336.5 144.5q163 0 270 -133v464q0 88 -47 109q-25 12 -120 9v67l308 23v-1236
q0 -101 58.5 -160t156.5 -59t156.5 59t58.5 160v85q0 52 -11 71q-17 30 -157 30v66q203 -6 240 -6q34 0 243 6v-66zM793 253v449q0 32 -24 68q-87 129 -231 129q-154 0 -243 -138q-65 -100 -65 -303q0 -197 61 -296q85 -138 224 -138q93 0 182 67q96 72 96 162z" />
  </g>

</svg>
