<?xml version="1.0" standalone="no"?>
<!DOCTYPE svg PUBLIC "-//W3C//DTD SVG 1.1//EN" "http://www.w3.org/Graphics/SVG/1.1/DTD/svg11.dtd" >
<svg viewBox="0 -442 2048 2048">
  <g transform="matrix(1 0 0 -1 0 1606)">
   <path fill="currentColor"
d="M1855 516q-6 0 -24 1h-24q-72 0 -94 -16q-26 -19 -26 -86v-169q0 -133 -124 -216q-109 -73 -249 -73t-249 73q-124 83 -124 216v129q0 101 -108 203q-123 118 -292 118h-233q-38 0 -38 30q0 16 13 22.5t148 16.5q180 13 279 79q150 100 150 257q0 111 -103 174
q-87 53 -206 53q-158 0 -268 -66q-98 -59 -124 -135q-4 -20 -17 -58q-10 -20 -35 -20q-41 0 -39 46l9 246q2 49 35 49q26 0 112 -85q136 85 333 85q167 0 311 -64q185 -82 185 -227q0 -261 -386 -360q172 -25 295 -115q148 -108 148 -265v-132q0 -100 51 -158
q54 -61 153 -61t153 61q51 58 51 158v188q0 52 -11 71q-19 32 -157 30v66q202 -6 251 -6q46 0 254 6v-66z" />
  </g>

</svg>
