<?xml version="1.0" standalone="no"?>
<!DOCTYPE svg PUBLIC "-//W3C//DTD SVG 1.1//EN" "http://www.w3.org/Graphics/SVG/1.1/DTD/svg11.dtd" >
<svg viewBox="0 -442 2048 2048">
  <g transform="matrix(1 0 0 -1 0 1606)">
   <path fill="currentColor"
d="M1562 435q-140 0 -157 -30q-11 -19 -11 -71v-69q0 -125 -105.5 -207t-256.5 -82q-137 0 -238 68.5t-144 188.5q-55 159 -63 169q-51 73 -198 73h-118q-55 0 -55 24q0 22 34 26q25 1 75 4q122 8 192 62q86 66 86 161q0 76 -64 115q-53 32 -135 32q-103 0 -178 -38
q-70 -35 -93 -94q-20 -50 -35 -50q-28 0 -28 58v122q0 37 3 44q7 14 38 12q25 -19 77 -54q91 54 225 54q120 0 225 -43q136 -57 136 -160q0 -170 -254 -242q199 -38 264 -164l62 -210q40 -104 186 -104q98 0 156.5 59t58.5 160v85q0 52 -11 71q-17 30 -157 30v66
q203 -6 240 -6q34 0 243 6v-66z" />
  </g>

</svg>
