<?xml version="1.0" standalone="no"?>
<!DOCTYPE svg PUBLIC "-//W3C//DTD SVG 1.1//EN" "http://www.w3.org/Graphics/SVG/1.1/DTD/svg11.dtd" >
<svg viewBox="0 -442 2048 2048">
  <g transform="matrix(1 0 0 -1 0 1606)">
   <path fill="currentColor"
d="M1090 -266q-68 0 -115 49q-14 16 -73 108q-41 64 -70 84q-35 25 -102 25h-214v66q140 0 157 30q10 18 10 71v86q0 222 -251 222h-118q-55 0 -55 24q0 22 34 26q25 1 75 4q122 8 192 62q86 66 86 161q0 76 -64 115q-53 32 -135 32q-103 0 -178 -38q-70 -35 -93 -94
q-20 -50 -35 -50q-28 0 -28 58v122q0 37 3 44q7 14 38 12q25 -19 77 -54q91 54 225 54q120 0 225 -43q136 -57 136 -160q0 -170 -254 -242q268 -51 268 -240v-101q0 -53 10 -71q17 -30 157 -30q0 -10 -1 -44.5t-1 -56.5q0 -212 94 -231z" />
  </g>

</svg>
