<?xml version="1.0" standalone="no"?>
<!DOCTYPE svg PUBLIC "-//W3C//DTD SVG 1.1//EN" "http://www.w3.org/Graphics/SVG/1.1/DTD/svg11.dtd" >
<svg viewBox="0 -442 2048 2048">
  <g transform="matrix(1 0 0 -1 0 1606)">
   <path fill="currentColor"
d="M2018 516q-6 0 -24 1h-24q-72 0 -94 -16q-26 -19 -26 -86v-169q0 -133 -124 -216q-109 -73 -249 -73q-139 0 -251 76q-127 86 -127 220v945q0 32 -9 49q-18 34 -153 34h-67q-188 0 -215 -35q-11 -14 -11 -63q0 -227 -12 -426q-46 -757 -354 -757q-86 0 -148 60t-62 146
q0 45 30 76t74 31t74 -30t30 -75q0 -81 -77 -102q31 -14 75 -14q200 0 256 520q21 195 21 511q0 113 -13 132q-18 27 -187 27v61h1137v-62q-10 0 -29.5 1t-29.5 1q-76 0 -103 -9q-53 -18 -53 -76v-971q0 -100 51 -158q54 -61 153 -61t153 61q51 58 51 158v188q0 52 -11 71
q-19 32 -157 30v66q202 -6 251 -6q46 0 254 6v-66z" />
  </g>

</svg>
