<?xml version="1.0" standalone="no"?>
<!DOCTYPE svg PUBLIC "-//W3C//DTD SVG 1.1//EN" "http://www.w3.org/Graphics/SVG/1.1/DTD/svg11.dtd" >
<svg viewBox="0 -442 2048 2048">
  <g transform="matrix(1 0 0 -1 0 1606)">
   <path fill="currentColor"
d="M1754 435q-140 0 -157 -30q-11 -19 -11 -71v-69q0 -125 -105.5 -207t-256.5 -82t-255 81q-107 83 -107 208v487q0 47 -8 65q-18 40 -149 40q-69 0 -92 -5q-55 -11 -63 -53q-3 -17 -4 -116q-6 -683 -261 -683q-70 0 -121 48.5t-51 118.5q0 88 86 88q36 0 60 -24.5
t24 -61.5q0 -59 -50 -79q18 -9 48 -9q119 0 162 268q24 149 24 390q0 63 -6 80q-11 30 -72 37q-10 1 -89 1v66h876v-66q-140 0 -157 -30q-10 -18 -10 -71v-507q0 -101 58.5 -160t156.5 -59t156.5 59t58.5 160v85q0 52 -11 71q-17 30 -157 30v66q203 -6 240 -6q34 0 243 6
v-66z" />
  </g>

</svg>
