<?xml version="1.0" standalone="no"?>
<!DOCTYPE svg PUBLIC "-//W3C//DTD SVG 1.1//EN" "http://www.w3.org/Graphics/SVG/1.1/DTD/svg11.dtd" >
<svg viewBox="0 -442 2048 2048">
  <g transform="matrix(1 0 0 -1 0 1606)">
   <path fill="currentColor"
d="M1954 516q-6 0 -24 1h-24q-72 0 -94 -16q-26 -19 -26 -86v-169q0 -133 -124 -216q-109 -73 -249 -73q-139 0 -252 77q-127 86 -127 220v417h-590v-530q0 -29 8 -45q18 -36 197 -35v-61q-71 6 -115 6h-358q-37 0 -108 -6v61q9 0 28 -1h28q121 0 139 36q7 14 7 45v1064
q0 31 -7 45q-17 34 -149 34h-46v62q70 -6 112 -6h354q45 0 115 6v-62q-9 0 -27.5 1t-27.5 1q-123 0 -142 -36q-8 -16 -8 -45v-474h590v474q0 29 -8 45q-17 34 -148 34h-46v62q70 -6 112 -6h356q43 0 113 6v-62q-9 0 -27.5 1t-28.5 1q-122 0 -140 -36q-8 -16 -8 -45v-978
q0 -100 51 -158q54 -61 153 -61t153 61q51 58 51 158v188q0 52 -11 71q-19 32 -157 30v66q202 -6 251 -6q46 0 254 6v-66z" />
  </g>

</svg>
