<?xml version="1.0" standalone="no"?>
<!DOCTYPE svg PUBLIC "-//W3C//DTD SVG 1.1//EN" "http://www.w3.org/Graphics/SVG/1.1/DTD/svg11.dtd" >
<svg viewBox="0 -442 2048 2048">
  <g transform="matrix(1 0 0 -1 0 1606)">
   <path fill="currentColor"
d="M1353 516q-6 0 -24 1h-24q-72 0 -94 -16q-26 -19 -26 -86v-169q0 -133 -140 -215q-125 -74 -293 -74q-288 0 -488 215q-196 211 -196 501q0 289 196 501q201 216 488 216q193 0 363 -169l99 144q17 25 31 25q22 0 22 -33v-503q0 -26 -31 -26q-27 0 -33 32q-12 60 -47 178
q-51 127 -147 205q-104 85 -234 85q-104 0 -207 -50q-298 -145 -298 -606q0 -476 322 -614q96 -41 185 -41q94 0 161 50q78 58 78 160v188q0 52 -11 71q-19 32 -157 30v66q202 -6 251 -6q46 0 254 6v-66z" />
  </g>

</svg>
