<?xml version="1.0" standalone="no"?>
<!DOCTYPE svg PUBLIC "-//W3C//DTD SVG 1.1//EN" "http://www.w3.org/Graphics/SVG/1.1/DTD/svg11.dtd" >
<svg viewBox="0 -442 2048 2048">
  <g transform="matrix(1 0 0 -1 0 1606)">
   <path fill="currentColor"
d="M1042 435q-140 0 -157 -30q-11 -19 -11 -71v-69q0 -125 -105.5 -207t-256.5 -82q-194 0 -328 147q-131 142 -131 338q0 201 130 347q134 152 332 152q146 0 245 -74q10 7 28 23q53 51 64 51q22 0 22 -56v-218q0 -34 -1 -38q-5 -18 -27 -18q-20 0 -26 26q-28 115 -108 182
t-194 67q-60 0 -120 -34q-168 -94 -168 -405q0 -306 178 -402q63 -34 123 -34q74 0 131 54q65 62 65 162v88q0 52 -11 71q-17 30 -157 30v66q203 -6 240 -6q34 0 243 6v-66z" />
  </g>

</svg>
