<?xml version="1.0" standalone="no"?>
<!DOCTYPE svg PUBLIC "-//W3C//DTD SVG 1.1//EN" "http://www.w3.org/Graphics/SVG/1.1/DTD/svg11.dtd" >
<svg viewBox="0 -442 2048 2048">
  <g transform="matrix(1 0 0 -1 0 1606)">
   <path fill="currentColor"
d="M1538 516q-6 0 -24 1h-24q-72 0 -94 -16q-26 -19 -26 -86v-169q0 -133 -124 -216q-109 -73 -249 -73q-139 0 -252 78q-127 88 -127 222v961q0 43 -29 56q-17 8 -66 8q-256 0 -321 -62.5t-86 -318.5h-48l36 442h1206l36 -442h-49q-22 262 -88.5 321.5t-330.5 59.5
q-46 0 -62 -9q-23 -14 -23 -56v-990q0 -100 51 -158q54 -61 153 -61t153 61q51 58 51 158v188q0 52 -11 71q-19 32 -157 30v66q202 -6 251 -6q46 0 254 6v-66z" />
  </g>

</svg>
