<?xml version="1.0" standalone="no"?>
<!DOCTYPE svg PUBLIC "-//W3C//DTD SVG 1.1//EN" "http://www.w3.org/Graphics/SVG/1.1/DTD/svg11.dtd" >
<svg viewBox="0 -442 2048 2048">
  <g transform="matrix(1 0 0 -1 0 1606)">
   <path fill="currentColor"
d="M1390 435q-140 0 -157 -30q-11 -19 -11 -71v-69q0 -125 -105.5 -207t-256.5 -82t-255 81q-107 83 -107 208v504q0 68 -23 81q-13 7 -92 7q-152 0 -198 -55q-37 -45 -48 -207h-53l25 328h921l26 -328h-54q-11 161 -48 207q-46 55 -198 55q-75 0 -88 -7q-23 -13 -23 -81
v-520q0 -101 58.5 -160t156.5 -59t156.5 59t58.5 160v85q0 52 -11 71q-17 30 -157 30v66q203 -6 240 -6q34 0 243 6v-66z" />
  </g>

</svg>
