<?xml version="1.0" standalone="no"?>
<!DOCTYPE svg PUBLIC "-//W3C//DTD SVG 1.1//EN" "http://www.w3.org/Graphics/SVG/1.1/DTD/svg11.dtd" >
<svg viewBox="0 -442 2048 2048">
  <g transform="matrix(1 0 0 -1 0 1606)">
   <path fill="currentColor"
d="M1177 321q0 -10 -5 -23q-135 -341 -512 -341q-212 0 -381 94q-204 113 -204 308q0 157 148 265q123 90 295 115q-386 98 -386 360q0 145 185 227q144 64 311 64q197 0 333 -85q85 85 112 85q33 0 35 -49l9 -246q2 -46 -39 -46q-25 0 -35 20q-5 20 -17 58q-26 76 -124 135
q-110 66 -268 66q-119 0 -206 -53q-103 -63 -103 -174q0 -157 150 -257q99 -66 279 -79q66 -4 149 -17q12 -6 12 -22q0 -30 -38 -30q-39 0 -116 1h-117q-157 0 -254 -89q-100 -91 -100 -247q0 -171 112 -261q103 -84 277 -84q265 0 398 205q14 22 52 101q11 23 25 23
q23 0 23 -24z" />
  </g>

</svg>
