<?xml version="1.0" standalone="no"?>
<!DOCTYPE svg PUBLIC "-//W3C//DTD SVG 1.1//EN" "http://www.w3.org/Graphics/SVG/1.1/DTD/svg11.dtd" >
<svg viewBox="0 -442 2048 2048">
  <g transform="matrix(1 0 0 -1 0 1606)">
   <path fill="currentColor"
d="M864 254q0 -24 -27 -75q-107 -203 -340 -203q-155 0 -276 61q-151 76 -151 216q0 101 102 174q82 60 195 81q-254 72 -254 242q0 103 136 163q106 47 225 47q134 0 225 -54q9 6 77 54h9q32 0 32 -35v-165q0 -36 -28 -36q-16 0 -35 50q-23 59 -93 94q-75 38 -178 38
q-80 0 -135 -36q-64 -41 -64 -118q0 -95 86 -161q71 -55 192 -62l64 -2q45 -5 45 -28q0 -24 -55 -24h-118q-251 0 -251 -222q0 -224 266 -224q44 0 78 7q84 18 138 80q28 33 62 107q25 53 44 53q29 0 29 -22z" />
  </g>

</svg>
