<?xml version="1.0" standalone="no"?>
<!DOCTYPE svg PUBLIC "-//W3C//DTD SVG 1.1//EN" "http://www.w3.org/Graphics/SVG/1.1/DTD/svg11.dtd" >
<svg viewBox="0 -442 2048 2048">
  <g transform="matrix(1 0 0 -1 0 1606)">
   <path fill="currentColor"
d="M1488 1281q-10 0 -29.5 1t-29.5 1q-76 0 -103 -9q-53 -18 -53 -76v-1303q0 -141 -116 -237q-109 -90 -253 -90q-121 0 -214 70q-101 76 -101 193q0 49 30.5 81.5t79.5 32.5q47 0 78 -31.5t31 -78.5q0 -112 -125 -110q71 -114 217 -114q99 0 156 101q47 83 47 190v1296
q0 32 -9 49q-18 34 -153 34h-71q-188 0 -215 -35q-11 -14 -11 -63q0 -227 -12 -426q-46 -757 -354 -757q-86 0 -148 60t-62 146q0 45 30 76t74 31t74 -30t30 -75q0 -81 -77 -102q31 -14 75 -14q200 0 256 520q21 195 21 511q0 113 -13 132q-18 27 -187 27v61h1137v-62z" />
  </g>

</svg>
