<?xml version="1.0" standalone="no"?>
<!DOCTYPE svg PUBLIC "-//W3C//DTD SVG 1.1//EN" "http://www.w3.org/Graphics/SVG/1.1/DTD/svg11.dtd" >
<svg viewBox="0 -442 2048 2048">
  <g transform="matrix(1 0 0 -1 0 1606)">
   <path fill="currentColor"
d="M1176 857q-140 0 -157 -30q-10 -18 -10 -71v-863q0 -133 -78 -229q-84 -103 -214 -103q-90 0 -159 40q-83 48 -83 132q0 42 27.5 70t69.5 28t70.5 -28t28.5 -70q0 -76 -74 -96q58 -29 114 -29q158 0 158 281v863q0 49 -7 65q-18 40 -153 40q-148 0 -159 -58
q-3 -17 -4 -116q-6 -683 -261 -683q-70 0 -121 48.5t-51 118.5q0 88 86 88q36 0 60 -24.5t24 -61.5q0 -59 -50 -79q18 -9 48 -9q119 0 162 268q24 149 24 390q0 63 -6 80q-11 30 -72 37q-10 1 -89 1v66h876v-66z" />
  </g>

</svg>
