<?xml version="1.0" standalone="no"?>
<!DOCTYPE svg PUBLIC "-//W3C//DTD SVG 1.1//EN" "http://www.w3.org/Graphics/SVG/1.1/DTD/svg11.dtd" >
<svg viewBox="0 -442 2193 2048">
  <g transform="matrix(1 0 0 -1 0 1606)">
   <path fill="currentColor"
d="M2193 0q-127 6 -360 6q-111 0 -183 -6v61q128 5 128 59q0 10 -320 493l-281 -414q-19 -28 -19 -48q0 -43 42 -68q35 -21 81 -22v-61q-74 6 -191 6q-65 0 -279 -6v61q196 0 285 131l323 477l-362 547q-28 42 -76 56q-33 9 -111 9q-188 0 -215 -35q-11 -14 -11 -63
q0 -227 -12 -426q-46 -757 -354 -757q-86 0 -148 60t-62 146q0 45 30 76t74 31t74 -30t30 -75q0 -81 -77 -102q31 -14 75 -14q200 0 256 520q21 195 21 511q0 113 -13 132q-18 27 -187 27v61h482q42 0 150.5 -1.5t150.5 -1.5q175 0 246 6v-62q-128 -5 -128 -58
q0 -13 268 -410l225 333q17 25 17 46q0 43 -41 67q-34 21 -80 22v62q81 -6 222 -6q24 0 248 6v-62q-198 -2 -285 -128l-271 -395l416 -629q35 -53 99 -66q32 -7 123 -5v-61z" />
  </g>

</svg>
