<?xml version="1.0" standalone="no"?>
<!DOCTYPE svg PUBLIC "-//W3C//DTD SVG 1.1//EN" "http://www.w3.org/Graphics/SVG/1.1/DTD/svg11.dtd" >
<svg viewBox="0 -442 2048 2048">
  <g transform="matrix(1 0 0 -1 0 1606)">
   <path fill="currentColor"
d="M1761 0q-91 6 -206 6q-54 0 -231 -6v66q77 3 77 54q0 10 -208 285q-192 -223 -192 -272q0 -61 62 -67v-66q-141 6 -203 6q-98 0 -177 -6v66q159 0 274 128q67 85 200 256l-212 276q-65 84 -99 105q-44 26 -141 26q-69 0 -92 -5q-55 -11 -63 -53q-3 -17 -4 -116
q-6 -683 -261 -683q-70 0 -121 48.5t-51 118.5q0 88 86 88q36 0 60 -24.5t24 -61.5q0 -59 -50 -79q18 -9 48 -9q119 0 162 268q24 149 24 390q0 63 -6 80q-11 30 -72 37q-10 1 -89 1v66h828v-68q-75 -2 -75 -52q0 -20 184 -255l134 167q33 41 33 75q0 61 -63 65v68
q108 -8 204 -8q73 0 177 8v-68q-152 -3 -255 -109q-26 -27 -197 -244l287 -369q37 -47 92 -60q32 -8 112 -7v-66z" />
  </g>

</svg>
