<?xml version="1.0" standalone="no"?>
<!DOCTYPE svg PUBLIC "-//W3C//DTD SVG 1.1//EN" "http://www.w3.org/Graphics/SVG/1.1/DTD/svg11.dtd" >
<svg viewBox="0 -442 2048 2048">
  <g transform="matrix(1 0 0 -1 0 1606)">
   <path fill="currentColor"
d="M1782 0q-127 6 -360 6q-111 0 -183 -6v61q128 5 128 59q0 12 -379 580q-129 -81 -279 -81h-265v-473q0 -32 7 -48q18 -39 198 -37v-61q-72 6 -133 6h-326q-50 0 -122 -6v61q73 -1 55 -1q122 0 140 38q7 15 7 48v1051q0 32 -7 48q-18 41 -195 36v62h625q174 0 311 -94
q154 -106 154 -272q0 -79 -41 -149l217 321q17 25 17 46q0 43 -41 67q-34 21 -80 22v62q81 -6 222 -6q24 0 248 6v-62q-198 -2 -285 -128l-271 -395l416 -629q35 -53 99 -66q32 -7 123 -5v-61zM954 977q0 161 -75.5 232.5t-237.5 71.5h-116q-53 0 -67 -12q-19 -14 -19 -67
v-532h202q313 0 313 307z" />
  </g>

</svg>
