<?xml version="1.0" standalone="no"?>
<!DOCTYPE svg PUBLIC "-//W3C//DTD SVG 1.1//EN" "http://www.w3.org/Graphics/SVG/1.1/DTD/svg11.dtd" >
<svg viewBox="0 -442 2061 2048">
  <g transform="matrix(1 0 0 -1 0 1606)">
   <path fill="currentColor"
d="M2061 508l-84 -508h-1112v61q39 -1 55 -1q126 0 142 35q7 15 7 46v511h-227q-259 0 -259 -297q0 -13 1 -40v-40q0 -161 -82 -237q-88 -81 -248 -81q-83 0 -137 68q-49 62 -49 148q0 33 24 33q18 0 24 -31q32 -175 131 -175q88 0 118 158q12 85 23 169q16 108 41 162
q65 137 224 192q-138 34 -228 102q-116 87 -116 209q0 167 180 267q151 84 333 84h1128l56 -442h-49q-24 218 -95 294q-80 86 -293 86h-243q-54 0 -69 -12q-19 -15 -19 -67v-496h158q133 0 175 49q39 44 38 180h51v-513h-51v5q0 133 -39 177q-43 48 -174 48h-158v-512
q0 -52 19 -67q15 -12 69 -12h253q236 0 326 111q68 84 107 336h49zM1069 706v513q0 43 -32 56q-18 8 -69 8q-230 0 -313 -35q-144 -60 -144 -256q0 -286 339 -286h219z" />
  </g>

</svg>
