<?xml version="1.0" standalone="no"?>
<!DOCTYPE svg PUBLIC "-//W3C//DTD SVG 1.1//EN" "http://www.w3.org/Graphics/SVG/1.1/DTD/svg11.dtd" >
<svg viewBox="0 -442 2048 2048">
  <g transform="matrix(1 0 0 -1 0 1606)">
   <path fill="currentColor"
d="M1587 254q0 -32 -35 -90q-113 -188 -322 -188q-195 0 -333 146q-134 142 -138 339h-128q-37 0 -81 -24.5t-65 -54.5t-21 -112q-1 -100 -11 -140q-22 -80 -92.5 -120t-174.5 -40q-64 0 -108 45t-44 109q0 32 28 32q20 0 26 -30q21 -109 88 -109q52 0 79.5 98.5t55.5 198.5
q48 121 145 164q-240 56 -240 204q0 82 77 148q63 54 153 80q79 23 173 23q48 0 142 -15t141 -15q53 0 151 28.5t151 28.5q185 0 289 -138q94 -125 94 -316q0 -29 -7.5 -37t-38.5 -8h-605q0 -184 64 -287q89 -144 242 -144q196 0 290 221q12 29 28 29q27 0 27 -26zM1446 506
q0 153 -46 260q-64 145 -196 145q-42 0 -90 -23q-165 -79 -175 -382h507zM836 783q0 84 -168 84q-136 0 -190 -25q-84 -40 -84 -160q0 -89 81 -137q67 -39 163 -39h122q6 93 54 199q22 49 22 78z" />
  </g>

</svg>
