<?xml version="1.0" standalone="no"?>
<!DOCTYPE svg PUBLIC "-//W3C//DTD SVG 1.1//EN" "http://www.w3.org/Graphics/SVG/1.1/DTD/svg11.dtd" >
<svg viewBox="0 -442 2048 2048">
  <g transform="matrix(1 0 0 -1 0 1606)">
   <path fill="currentColor"
d="M2027 188q0 -279 -183 -451q-178 -169 -459 -169q-118 0 -236 60q-112 58 -192 152l43 32q176 -175 385 -175q224 0 340 167q100 145 100 380q0 232 -102 378q-117 169 -338 169q-54 0 -112 -12v-578q0 -26 6 -41q13 -32 90 -39q11 -1 108 0v-61q-71 6 -117 6h-362
q-41 0 -112 -6v61q8 0 29 -1h28q128 0 147 36q9 17 9 49v1053q0 32 -9 49q-18 34 -153 34h-67q-188 0 -215 -35q-11 -14 -11 -63q0 -227 -12 -426q-46 -757 -354 -757q-86 0 -148 60t-62 146q0 45 30 76t74 31t74 -30t30 -75q0 -81 -77 -102q31 -14 75 -14q200 0 256 520
q21 195 21 511q0 113 -13 132q-18 27 -187 27v61h1126v-62q-8 0 -30 1h-31q-121 0 -137 -39q-6 -14 -6 -41v-417q56 8 112 8q284 0 460 -159q182 -165 182 -446z" />
  </g>

</svg>
