<?xml version="1.0" standalone="no"?>
<!DOCTYPE svg PUBLIC "-//W3C//DTD SVG 1.1//EN" "http://www.w3.org/Graphics/SVG/1.1/DTD/svg11.dtd" >
<svg viewBox="0 -442 2048 2048">
  <g transform="matrix(1 0 0 -1 0 1606)">
   <path fill="currentColor"
d="M1963 188q0 -279 -183 -451q-178 -169 -459 -169q-118 0 -236 60q-112 58 -192 152l43 32q176 -175 385 -175q224 0 340 167q100 145 100 380q0 232 -102 378q-117 169 -338 169q-54 0 -112 -12v-578q0 -26 6 -41q13 -32 90 -39q11 -1 108 0v-61q-71 6 -113 6h-361
q-36 0 -107 -6v61q9 0 29 -1h28q119 0 137 36q8 16 8 45v530h-590v-530q0 -29 8 -45q18 -36 197 -35v-61q-71 6 -115 6h-358q-37 0 -108 -6v61q9 0 28 -1h28q121 0 139 36q7 14 7 45v1064q0 31 -7 45q-17 34 -149 34h-46v62q70 -6 112 -6h354q45 0 115 6v-62q-9 0 -27.5 1
t-27.5 1q-123 0 -142 -36q-8 -16 -8 -45v-474h590v474q0 29 -8 45q-17 34 -148 34h-46v62q70 -6 112 -6h356q43 0 113 6v-64q-8 0 -30 1h-31q-121 0 -137 -39q-6 -14 -6 -41v-418q56 8 112 8q284 0 460 -159q182 -165 182 -446z" />
  </g>

</svg>
