<?xml version="1.0" standalone="no"?>
<!DOCTYPE svg PUBLIC "-//W3C//DTD SVG 1.1//EN" "http://www.w3.org/Graphics/SVG/1.1/DTD/svg11.dtd" >
<svg viewBox="0 -442 2048 2048">
  <g transform="matrix(1 0 0 -1 0 1606)">
   <path fill="currentColor"
d="M1541 400q0 -278 -195 -517q-183 -224 -456 -325l-14 48q220 81 360.5 288t140.5 443q0 131 -45 215q-58 107 -178 107q-94 0 -201 -99v-393q0 -53 10 -71q17 -30 157 -30v-66q-203 6 -240 6q-33 0 -242 -6v66q140 0 157 30q10 18 10 71v281h-435v-281q0 -49 9 -68
q16 -33 159 -33v-66q-203 6 -240 6q-33 0 -242 -6v66q140 0 157 30q10 18 10 71v589q0 53 -10 71q-17 30 -157 30v66q209 -6 242 -6q37 0 240 6v-66q-143 0 -159 -33q-9 -19 -9 -68v-242h435v242q0 53 -10 71q-17 30 -157 30v66q209 -6 242 -6q37 0 240 6v-66
q-140 0 -157 -30q-10 -18 -10 -71v-119q157 142 274 142q152 0 238 -117q76 -104 76 -262z" />
  </g>

</svg>
