<?xml version="1.0" standalone="no"?>
<!DOCTYPE svg PUBLIC "-//W3C//DTD SVG 1.1//EN" "http://www.w3.org/Graphics/SVG/1.1/DTD/svg11.dtd" >
<svg viewBox="0 -442 2048 2048">
  <g transform="matrix(1 0 0 -1 0 1606)">
   <path fill="currentColor"
d="M1517 -394q-68 13 -125 92q-15 20 -81 140q-51 91 -85 120q-49 42 -138 42h-248v62q48 -1 60 -1q118 0 136 34q9 17 9 51v319q0 149 -93 234q-88 81 -235 81q-153 0 -273 -101v-538q0 -29 8 -45q18 -36 197 -35v-61q-71 6 -115 6h-358q-37 0 -108 -6v61q9 0 28 -1h28
q121 0 139 36q7 14 7 45v1064q0 31 -7 45q-17 34 -149 34h-46v62q70 -6 112 -6h354q45 0 115 6v-62q-9 0 -27.5 1t-27.5 1q-123 0 -142 -36q-8 -16 -8 -45v-453q154 122 338 122q187 0 309 -108q129 -114 129 -301v-260q0 -69 14 -97q25 -51 197 -47q0 -12 -1 -40v-39
q0 -312 87 -376z" />
  </g>

</svg>
