<?xml version="1.0" standalone="no"?>
<!DOCTYPE svg PUBLIC "-//W3C//DTD SVG 1.1//EN" "http://www.w3.org/Graphics/SVG/1.1/DTD/svg11.dtd" >
<svg viewBox="0 -442 2048 2048">
  <g transform="matrix(1 0 0 -1 0 1606)">
   <path fill="currentColor"
d="M1657 0q-71 6 -113 6h-361q-36 0 -107 -6v61q9 0 29 -1h28q119 0 137 36q8 16 8 45v530h-590v-776q0 -141 -118 -237q-110 -90 -255 -90q-121 0 -214 70q-101 76 -101 193q0 49 30.5 81.5t79.5 32.5q47 0 78 -31.5t31 -78.5q0 -112 -125 -110q71 -114 217 -114
q99 0 156 101q47 83 47 190v1303q0 31 -7 45q-17 34 -149 34h-46v62q70 -6 112 -6h354q45 0 115 6v-62q-9 0 -27.5 1t-27.5 1q-123 0 -142 -36q-8 -16 -8 -45v-474h590v474q0 29 -8 45q-17 34 -148 34h-46v62q70 -6 112 -6h356q43 0 113 6v-62q-9 0 -27.5 1t-28.5 1
q-122 0 -140 -36q-8 -16 -8 -45v-1064q0 -29 8 -45q18 -36 196 -35v-61z" />
  </g>

</svg>
