<?xml version="1.0" standalone="no"?>
<!DOCTYPE svg PUBLIC "-//W3C//DTD SVG 1.1//EN" "http://www.w3.org/Graphics/SVG/1.1/DTD/svg11.dtd" >
<svg viewBox="-38 -442 3051 2048">
  <g transform="matrix(1 0 0 -1 0 1606)">
   <path fill="currentColor"
d="M3051 173q0 -86 -49 -148q-54 -68 -137 -68q-161 0 -248 81q-82 76 -82 237q0 13 1 40v40q0 136 -80 234q-86 106 -219 106h-188v-556q0 -28 9 -45q18 -34 196 -33v-61q-71 6 -120 6h-347q-43 0 -114 -6v61q8 0 27 -1h28q125 0 141 40q6 15 6 44v551h-576v-490
q0 -68 14 -97q25 -51 197 -47v-40q-1 -26 -1 -39q0 -312 87 -376q-67 13 -125 92q-14 20 -81 140q-50 91 -84 120q-49 42 -139 42h-776q-89 0 -138 -42q-34 -29 -85 -120q-66 -120 -81 -140q-57 -79 -125 -92q87 64 87 376v39q-1 28 -1 40q166 0 198 12q63 22 124 141
q236 457 236 990q0 39 -15 55q-13 13 -52 18q-29 4 -133 4v62h1098v-59q-9 0 -27.5 1t-27.5 1q-123 0 -142 -36q-8 -16 -8 -45v-450h576v455q0 27 -7 41q-17 35 -195 33v62q70 -6 119 -6h342q50 0 120 6v-62q-9 0 -28 1t-29 1q-126 0 -142 -40q-6 -15 -6 -44v-447
q324 0 480 158q72 73 163 294q65 158 167 158q53 0 92 -41t39 -95q0 -92 -90 -92q-39 0 -65 25.5t-26 64.5q0 23 10 45q-41 -17 -92 -144q-62 -158 -122 -231q-106 -130 -287 -165v-8q116 -16 215 -74q111 -64 157 -161q25 -54 41 -162q11 -84 23 -169q30 -158 118 -158
q99 0 131 175q6 31 24 31q24 0 24 -33zM1125 161v1014q0 44 -8 59q-25 47 -204 47t-205 -49q-9 -17 -11 -85q-5 -193 -52.5 -425.5t-142.5 -434.5q-27 -51 -80 -153q-4 -8 -4 -20q0 -35 49 -43q64 -10 273 -10q174 0 250 6q53 4 71 8q47 10 58 35q6 13 6 51z" />
  </g>

</svg>
