<?xml version="1.0" standalone="no"?>
<!DOCTYPE svg PUBLIC "-//W3C//DTD SVG 1.1//EN" "http://www.w3.org/Graphics/SVG/1.1/DTD/svg11.dtd" >
<svg viewBox="0 -442 2299 2048">
  <g transform="matrix(1 0 0 -1 0 1606)">
   <path fill="currentColor"
d="M2299 180q0 -75 -27 -128q-34 -67 -101 -67q-85 0 -138 81q-45 69 -50 161q-4 75 -17 105q-18 42 -73 77q-108 69 -236 69q-6 0 -56 -5v-315q0 -41 9 -59q17 -34 158 -33v-66q-203 6 -239 6q-32 0 -242 -6v66q7 0 24 -1h25q66 0 88 14q30 18 30 79v315h-426v-306
q0 -52 9 -70q14 -24 60 -29q20 -2 98 -2q0 -10 -1 -44.5t-1 -56.5q0 -212 94 -231q-68 0 -115 49q-14 15 -73 108q-41 64 -70 84q-35 25 -102 25h-599q-73 0 -108 -34q-19 -18 -62 -101q-39 -76 -54 -92q-34 -39 -93 -39v3q83 16 83 229q0 24 -1 58t-1 42q104 0 130 4
q76 12 108 61q82 125 133 322q47 184 47 346q0 45 -65 56q-16 2 -100 2v66h851v-66q-143 0 -159 -33q-9 -19 -9 -68v-217h426v226q0 41 -9 59q-17 34 -158 33v66q208 -6 242 -6q37 0 239 6v-66q-7 0 -24 1h-25q-66 0 -88 -14q-30 -18 -30 -79v-226h92q127 0 178 70
q20 27 57 151q30 103 93 148q42 30 103 30q70 0 116 -48t46 -118q0 -102 -102 -102q-39 0 -66.5 28.5t-27.5 67.5q0 28 16 54.5t16 29.5q0 18 -25 18q-57 0 -89 -76q-26 -78 -53 -156q-39 -97 -107 -130q134 -30 192 -89q67 -68 67 -197q0 -154 66 -154q40 0 57 44
q6 16 16 78q4 26 26 26q27 0 27 -34zM880 162v607q0 62 -42 79q-23 9 -101 9q-92 0 -115 -15q-30 -19 -35 -101q-17 -277 -135 -548q-30 -69 -30 -86q0 -23 28 -30q43 -11 169 -11q218 0 248 39q13 17 13 57z" />
  </g>

</svg>
