<?xml version="1.0" standalone="no"?>
<!DOCTYPE svg PUBLIC "-//W3C//DTD SVG 1.1//EN" "http://www.w3.org/Graphics/SVG/1.1/DTD/svg11.dtd" >
<svg viewBox="-17 -442 2048 2048">
  <g transform="matrix(1 0 0 -1 0 1606)">
   <path fill="currentColor"
d="M1617 -394q-67 13 -125 92q-14 20 -81 140q-50 91 -84 120q-49 42 -139 42h-776q-89 0 -138 -42q-34 -29 -85 -120q-66 -120 -81 -140q-57 -79 -125 -92q87 64 87 376v39q-1 28 -1 40q133 0 113 0q85 2 136 53q1 2 88 124l178 248q-141 34 -225 135q-89 106 -89 260v327
q0 30 -7 43q-20 38 -195 33v62q73 -6 156 -6h270q84 0 156 6v-62q-48 1 -60 1q-118 0 -136 -34q-9 -17 -9 -51v-319q0 -235 208 -298l481 672q-22 29 -150 29h-51v62q71 -6 115 -6h376q41 0 111 6v-65q-10 0 -29.5 1t-29.5 1q-76 0 -103 -9q-53 -17 -53 -76v-993
q0 -68 14 -97q25 -51 197 -47v-39q-1 -27 -1 -40q0 -312 87 -376zM1146 771v329l-382 -534h9q206 -2 373 205zM1146 161v529q-192 -220 -438 -218h-11l-240 -335q-6 -9 -6 -22q0 -38 37 -44q64 -10 273 -10q173 0 250 6q53 4 71 8q46 10 58 35q6 13 6 51z" />
  </g>

</svg>
