<?xml version="1.0" standalone="no"?>
<!DOCTYPE svg PUBLIC "-//W3C//DTD SVG 1.1//EN" "http://www.w3.org/Graphics/SVG/1.1/DTD/svg11.dtd" >
<svg viewBox="0 -442 2048 2048">
  <g transform="matrix(1 0 0 -1 0 1606)">
   <path fill="currentColor"
d="M1296 -266q-69 0 -115 50q-14 15 -73 107q-40 63 -68 83q-37 26 -104 26h-599q-74 0 -109 -35q-19 -18 -61 -100q-38 -74 -53 -91q-35 -41 -94 -40v3q83 16 83 229q0 17 -1 50.5t-1 49.5h46q144 0 192 65l131 179q-104 27 -172 97q-75 77 -75 180q0 214 -5 229
q-11 32 -72 40q-12 1 -90 1v66q209 -6 242 -6q37 0 240 6v-66q-140 0 -157 -30q-11 -19 -11 -71v-143q0 -167 169 -210l322 440q-27 15 -139 14v66q208 -6 242 -6q39 0 240 6v-66h-42q-73 0 -93 -11q-32 -17 -32 -80v-609q0 -45 11 -62q14 -22 58 -27q19 -2 98 -2
q0 -16 -1 -50t-1 -51q0 -212 94 -231zM889 578v168l-258 -352q128 7 230 109q28 28 28 75zM889 162v279q-130 -144 -324 -143h-4l-116 -158q-16 -22 -16 -35q0 -39 199 -39q220 0 248 39q13 18 13 57z" />
  </g>

</svg>
