<?xml version="1.0" standalone="no"?>
<!DOCTYPE svg PUBLIC "-//W3C//DTD SVG 1.1//EN" "http://www.w3.org/Graphics/SVG/1.1/DTD/svg11.dtd" >
<svg viewBox="0 -442 2048 2048">
  <g transform="matrix(1 0 0 -1 0 1606)">
   <path fill="currentColor"
d="M1570 -394q-68 13 -125 92q-15 20 -81 140q-51 91 -85 120q-49 42 -138 42h-255v61q8 0 29 -1h28q128 0 147 36q9 17 9 49v1053q0 32 -9 49q-18 34 -153 34h-67q-188 0 -215 -35q-11 -14 -11 -63q0 -227 -12 -426q-46 -757 -354 -757q-86 0 -148 60t-62 146q0 45 30 76
t74 31t74 -30t30 -75q0 -81 -77 -102q31 -14 75 -14q200 0 256 520q21 195 21 511q0 113 -13 132q-18 27 -187 27v61h1137v-62q-10 0 -29.5 1t-29.5 1q-76 0 -103 -9q-53 -18 -53 -76v-993q0 -69 14 -97q25 -51 197 -47q0 -12 -1 -40v-39q0 -312 87 -376z" />
  </g>

</svg>
