<?xml version="1.0" standalone="no"?>
<!DOCTYPE svg PUBLIC "-//W3C//DTD SVG 1.1//EN" "http://www.w3.org/Graphics/SVG/1.1/DTD/svg11.dtd" >
<svg viewBox="0 -442 2048 2048">
  <g transform="matrix(1 0 0 -1 0 1606)">
   <path fill="currentColor"
d="M1091 1229q0 -291 -220 -291q-137 0 -182 83q-78 -128 -239 -128q72 -142 99 -249q29 -114 29 -267q0 -128 -39 -377h-46q0 352 -73 560q-62 179 -274 491l83 268q122 -202 295 -202q176 0 215 226h36q16 -188 131 -188q119 0 142 188h37q0 -19 3 -57t3 -57z" />
  </g>

</svg>
