<?xml version="1.0" standalone="no"?>
<!DOCTYPE svg PUBLIC "-//W3C//DTD SVG 1.1//EN" "http://www.w3.org/Graphics/SVG/1.1/DTD/svg11.dtd" >
<svg viewBox="0 -442 2230 2048">
  <g transform="matrix(1 0 0 -1 0 1606)">
   <path fill="currentColor"
d="M2230 676q-72 -134 -276 -237q-194 -97 -361 -97q-143 0 -316 98q-7 4 -275 181q-147 98 -229 98q-276 0 -407 -86q-11 -7 -133 -106q-109 -87 -119 -87q-14 0 -39 20t-25 34q0 61 143 166q121 90 203 120q190 70 357 70q191 0 382 -94l346 -184q65 -30 129 -60
q76 -30 136 -30q72 0 218 71q138 68 214 133z" />
  </g>

</svg>
