<?xml version="1.0" standalone="no"?>
<!DOCTYPE svg PUBLIC "-//W3C//DTD SVG 1.1//EN" "http://www.w3.org/Graphics/SVG/1.1/DTD/svg11.dtd" >
<svg viewBox="0 -442 2048 2048">
  <g transform="matrix(1 0 0 -1 0 1606)">
   <path fill="currentColor"
d="M1043 212q0 -30 -56 -30q-17 0 -25 2q-200 48 -297 232q-63 155 -125 310q-78 155 -242 155q-48 0 -116 -36.5t-96 -36.5q-36 0 -36 22q0 8 7 19q41 65 121 105q77 40 155 40q150 0 245 -92q72 -70 129 -217q46 -126 91 -251q28 -67 103 -125q21 -16 138 -89q4 -2 4 -8z
M471 606q0 -70 -74 -116q-64 -40 -139 -40q-67 0 -118 30q-61 36 -61 98q0 70 74 116q64 40 139 40q67 0 118 -30q61 -36 61 -98zM374 604q0 52 -80 52q-40 0 -75 -19q-43 -22 -43 -58q0 -52 80 -52q40 0 75 19q43 22 43 58z" />
  </g>

</svg>
