<?xml version="1.0" standalone="no"?>
<!DOCTYPE svg PUBLIC "-//W3C//DTD SVG 1.1//EN" "http://www.w3.org/Graphics/SVG/1.1/DTD/svg11.dtd" >
<svg viewBox="0 -442 2048 2048">
  <g transform="matrix(1 0 0 -1 0 1606)">
   <path fill="currentColor"
d="M776 675h-75q-12 0 -55 39.5t-51 39.5q-12 0 -68.5 -44.5t-68.5 -44.5q-19 0 -52 11q-44 14 -53 16l137 107q-45 51 -162 62q-1 7 -5.5 24t-4.5 26q0 40 56 40q76 0 171 -74q8 5 52 54q34 38 57 38q38 0 82 -21l-107 -124q51 -48 147 -149zM1316 685q0 -42 -20 -91
q-23 -55 -55 -73q-59 -32 -241 -44q-232 -15 -328 -56q-138 -58 -239 -228q-18 7 -30 25q-55 300 -132 300q-22 0 -69 -49.5t-88 -49.5q-39 0 -50 9q-14 10 -14 48q0 62 72 100q60 32 129 32q116 0 163 -69q35 -50 48 -177q223 229 385 229h259q22 0 46 17t24 38
q0 39 -40 47.5t-40 73.5q0 87 105 87q115 0 115 -169z" />
  </g>

</svg>
