<?xml version="1.0" standalone="no"?>
<!DOCTYPE svg PUBLIC "-//W3C//DTD SVG 1.1//EN" "http://www.w3.org/Graphics/SVG/1.1/DTD/svg11.dtd" >
<svg viewBox="0 -442 2048 2048">
  <g transform="matrix(1 0 0 -1 0 1606)">
   <path fill="currentColor"
d="M1937 1207q-222 -224 -657 -604q-90 -83 -275 -241q-76 -60 -154 -60q-86 0 -160 72q-44 -62 -89 -124q-55 -71 -119 -87v-14q0 -18 6.5 -54.5t6.5 -54.5q0 -55 -34 -91q-11 57 -21 113q-18 85 -38 98q-135 4 -163 8q-93 16 -138 77q-14 19 -33 73t-19 76q0 53 59 92
q53 35 108 35q97 0 158 -77q16 -21 90 -160q62 19 102 104q20 41 49 145q-1 5 -1 18q0 12 1 17q64 52 115 52q32 0 67 -27q5 -50 11 -101q14 -68 54 -68q47 0 80 18q7 4 96 71l226 170q224 175 672 524zM368 252q-10 84 -134 155q-45 -43 -45 -70q0 -30 50 -59
q45 -26 77 -26h52z" />
  </g>

</svg>
