<?xml version="1.0" standalone="no"?>
<!DOCTYPE svg PUBLIC "-//W3C//DTD SVG 1.1//EN" "http://www.w3.org/Graphics/SVG/1.1/DTD/svg11.dtd" >
<svg viewBox="0 -442 2048 2048">
  <g transform="matrix(1 0 0 -1 0 1606)">
   <path fill="currentColor"
d="M1854 1178q-72 -67 -188 -188q-214 -223 -244 -252q-199 -196 -248 -196q-13 0 -124 55.5t-125 68.5q-25 25 -25 55q0 75 77 75q47 0 211 -132q145 99 252 189q171 158 370 325q2 1 5 1zM1387 47l-254 194q-170 136 -183 234q50 17 80 17q61 0 96 -26
q23 -17 127.5 -152.5t116.5 -163.5q1 -1 17 -103zM1101 52q-37 29 -194 135q-121 81 -184 146q-16 16 -30 51q-11 29 -22 57v27q12 0 37.5 5t39.5 5q56 0 92 -30q2 -1 35 -55q24 -39 162 -171q17 -15 47 -48q17 -24 17 -122zM604 453q0 -144 -162 -227q-131 -67 -291 -67
q-30 0 -101 18q38 36 85 52q20 5 60 14q74 17 135 48q88 46 88 97q0 9 -4 13.5t-4 11.5q-9 -2 -21 -2q-41 0 -76 20q-42 23 -42 61q0 53 62 83q50 24 109 24q162 0 162 -146z" />
  </g>

</svg>
