<?xml version="1.0" standalone="no"?>
<!DOCTYPE svg PUBLIC "-//W3C//DTD SVG 1.1//EN" "http://www.w3.org/Graphics/SVG/1.1/DTD/svg11.dtd" >
<svg viewBox="0 -442 2048 2048">
  <g transform="matrix(1 0 0 -1 0 1606)">
   <path fill="currentColor"
d="M989 210q-72 -67 -144 -135q-109 -99 -149 -99q-27 0 -67 36q41 146 82 291q49 174 67 295q-57 12 -169 40l-12 -12q30 -43 32 -78q-67 -64 -179 -64q-130 0 -260 93q-140 102 -140 227q0 154 230 257q188 84 366 84q19 0 59.5 -13t54.5 -24q-42 -34 -100 -45
q-53 -8 -107 -16q-128 -28 -212 -92q-103 -80 -103 -196q0 -71 43 -127q47 -59 117 -59q38 0 101 30v23q-35 33 -64 91q43 20 67 18l453 -40q11 -17 9 -23l-198 -566q32 34 64 69q51 55 60 55q14 0 99 -20z" />
  </g>

</svg>
