<?xml version="1.0" standalone="no"?>
<!DOCTYPE svg PUBLIC "-//W3C//DTD SVG 1.1//EN" "http://www.w3.org/Graphics/SVG/1.1/DTD/svg11.dtd" >
<svg viewBox="0 -442 2048 2048">
  <g transform="matrix(1 0 0 -1 0 1606)">
   <path fill="currentColor"
d="M1462 239q-49 -52 -95 -76q-49 62 -75 82q-43 32 -104 32q-52 0 -133.5 -41t-107.5 -41q-9 0 -29 9q-3 16 -3 39q0 36 6 107.5t6 107.5q0 108 -34 169q-35 5 -105 20q-11 32 -28 102q11 -1 20 -1q29 0 53 8q-97 149 -338 149q-185 0 -202 -96q-8 -3 -20 -3q-50 0 -105 40
q-59 43 -59 91q0 13 5 25q70 68 272 68q311 0 472 -127q62 -49 101 -112q10 -20 30 -49q19 -3 55 -11q26 -7 82 -64q-2 -15 -9 -28q-27 -3 -80 -14q25 -70 25 -169q0 -77 -18 -107q32 0 100 9q65 8 99 8q138 0 219 -127zM858 33q-179 140 -534 423q-48 39 -164 140
q-24 18 -66 59q-25 29 -44 112q52 17 82 17q50 0 97 -37q1 -1 115 -113l412 -403q28 -25 77 -79q25 -36 25 -119z" />
  </g>

</svg>
