<?xml version="1.0" standalone="no"?>
<!DOCTYPE svg PUBLIC "-//W3C//DTD SVG 1.1//EN" "http://www.w3.org/Graphics/SVG/1.1/DTD/svg11.dtd" >
<svg viewBox="0 -442 2048 2048">
  <g transform="matrix(1 0 0 -1 0 1606)">
   <path fill="currentColor"
d="M1492 750q0 -60 -194 -196q-255 -179 -522 -179q-177 0 -405 108q-67 32 -185 125q-136 108 -136 154q0 48 99 48q40 0 62 -13q10 -6 78 -62q115 -95 170 -134q110 -76 190 -95q22 33 22 70q0 42 -45 103q-66 89 -69 94q23 12 59 12q153 0 153 -194q0 -59 -33 -104
q14 -15 59 -15q6 0 48 2q6 71 11 141q8 84 62 120q27 18 36 18q35 0 103 -13q-8 -15 -76 -96q-54 -63 -54 -100t22 -70h21q9 0 32 13q44 18 131 58q192 99 354 287q0 -14 3.5 -41t3.5 -41z" />
  </g>

</svg>
