<?xml version="1.0" standalone="no"?>
<!DOCTYPE svg PUBLIC "-//W3C//DTD SVG 1.1//EN" "http://www.w3.org/Graphics/SVG/1.1/DTD/svg11.dtd" >
<svg viewBox="0 -442 2048 2048">
  <g transform="matrix(1 0 0 -1 0 1606)">
   <path fill="currentColor"
d="M1825 614q0 -203 -296 -203q-19 0 -39 1q-27 -141 -27 -286q0 -24 34 -53.5t34 -42.5q0 -40 -54.5 -79.5t-96.5 -39.5q-21 0 -44 13q-26 14 -26 33v277q0 30 7.5 89.5t7.5 88.5q-62 14 -124 29q-71 21 -100 71q-10 17 -25 87q-233 -228 -344 -320q-257 -215 -384 -215
q-77 0 -187.5 107t-110.5 184q0 39 31 72t70 33q54 0 82 -68q25 -63 50 -127q41 -68 127 -68q139 0 578 399q45 38 124 123q34 49 67 97q42 58 84 81q4 2 68 26q41 15 59 41q9 14 28 126q12 72 24 143q54 30 82 30q50 0 50 -43q0 -39 -17.5 -116.5t-17.5 -116.5q0 -13 2 -23
q26 -10 77 -32q85 -37 146 -131t61 -187zM1685 673q0 63 -51 127q-48 59 -110 84l-32 -342q122 27 128 29q65 28 65 102zM1375 868q-146 -76 -146 -199q0 -54 26 -79q17 -18 75 -41q18 106 45 319z" />
  </g>

</svg>
