<?xml version="1.0" standalone="no"?>
<!DOCTYPE svg PUBLIC "-//W3C//DTD SVG 1.1//EN" "http://www.w3.org/Graphics/SVG/1.1/DTD/svg11.dtd" >
<svg viewBox="0 -442 2048 2048">
  <g transform="matrix(1 0 0 -1 0 1606)">
   <path fill="currentColor"
d="M1922 916q-154 -141 -309 -281q-249 -225 -290 -244q-18 -8 -46 -8h-74q-52 1 -74 1l638 561q52 -10 155 -29zM955 498q0 -138 -151 -225q-129 -74 -277 -74q-23 0 -85 21q18 19 60 52l148 54q110 42 110 85v45q0 15 -19 15q-9 0 -13.5 -5.5t-13.5 -5.5q-36 0 -64 25.5
t-28 61.5q0 55 61 86q49 24 111 24q161 0 161 -159zM565 518q0 -136 -151 -221q-128 -73 -275 -73q-26 0 -89 21q27 31 190 96q135 53 135 119q0 9 -3.5 13.5t-3.5 11.5q-12 -1 -22 -1q-117 0 -117 93q0 45 67 78q57 29 107 29q74 0 118 -46t44 -120z" />
  </g>

</svg>
