<?xml version="1.0" standalone="no"?>
<!DOCTYPE svg PUBLIC "-//W3C//DTD SVG 1.1//EN" "http://www.w3.org/Graphics/SVG/1.1/DTD/svg11.dtd" >
<svg viewBox="0 -442 2048 2048">
  <g transform="matrix(1 0 0 -1 0 1606)">
   <path fill="currentColor"
d="M1233 469q0 -53 -15 -73q-19 -25 -72 -25q-11 0 -31.5 16t-32.5 16q-24 0 -69.5 -16t-69.5 -16q-137 0 -172 157q-77 -100 -83 -106q-52 -51 -121 -51q-47 0 -75 11q-9 3 -40 26q-27 20 -37 20q-9 0 -26 -12q-22 -15 -26 -17q-38 -17 -139 -17q-73 0 -73 46q0 21 74 46
q81 27 90.5 43t9.5 44q0 70 -51 101q-29 18 -110.5 33t-113.5 37v40q39 25 82 25q76 0 158 -23q97 -27 138 -72q18 -20 55 -104q12 -27 45 -62q38 -40 62 -40q45 0 73 46q16 26 34 87q14 52 24 58q33 20 92 20q25 0 95 -18q-33 -100 -33 -146q0 -42 29 -70.5t71 -28.5
q67 0 90 34q13 19 20.5 80t28.5 92h12q60 0 83.5 -19.5t23.5 -79.5v-82z" />
  </g>

</svg>
