<?xml version="1.0" standalone="no"?>
<!DOCTYPE svg PUBLIC "-//W3C//DTD SVG 1.1//EN" "http://www.w3.org/Graphics/SVG/1.1/DTD/svg11.dtd" >
<svg viewBox="0 -442 2048 2048">
  <g transform="matrix(1 0 0 -1 0 1606)">
   <path fill="currentColor"
d="M1887 989q0 -124 -124 -199q-106 -64 -239 -64q-34 0 -70 10q27 29 160 73q112 37 141 116q-3 2 -88 31q-49 17 -49 68q0 45 48 71q40 21 89 21q132 0 132 -127zM1920 542q0 -122 -119 -200q-104 -69 -233 -69q-51 0 -89 13q27 32 50 44q6 3 60 16q184 43 184 124
q0 31 -32 37q-57 11 -58 12q-32 16 -32 70q0 37 50 66q44 26 84 26q58 0 96.5 -40.5t38.5 -98.5zM1920 82q0 -125 -126 -200q-107 -63 -242 -63q-50 0 -80 10q27 29 50 41q5 3 61 17q190 49 190 143q0 14 -15 23q-107 11 -107 78q0 41 48 70q42 26 86 26q61 0 98 -42
t37 -103zM1387 -55q-17 -54 -126 -87q-85 -25 -162 -25q-115 0 -197 46q-101 57 -101 163q0 40 24 91q27 59 60 66q-28 17 -75 62q-25 37 -25 80q0 94 108 216q-35 10 -63.5 51.5t-28.5 78.5q0 42 38 112q34 62 69 101q-91 118 -91 161q0 25 16 50q-357 102 -499 102
q-55 0 -142 -43.5t-100 -43.5h-32q-10 0 -10 17q0 57 122 123q106 59 176 67q33 4 62 4q124 0 300 -66q133 -50 162 -50q11 0 50 35q48 41 53 44q59 37 137 37q57 0 102 -26q54 -30 54 -83q0 -98 -135 -121q-73 -7 -146 -13q-7 -6 -7 -17q0 -39 24 -65.5t63 -26.5
q14 0 41 4.5t41 4.5q112 0 112 -76q0 -44 -31 -78t-74 -34q-15 0 -44.5 7t-44.5 7q-27 0 -77 -37t-50 -62q0 -20 27 -47l42 -40q71 47 142 47q110 0 110 -85q0 -41 -68 -82q-62 -37 -106 -37q-9 0 -103 25q-38 -42 -38 -75q0 -154 63 -154q121 68 152 68q37 0 68 -24
q32 -27 32 -63q0 -39 -71 -75q-62 -32 -106 -32q-13 0 -37.5 7t-37.5 7q-62 0 -62 -111q0 -61 48 -100.5t109 -33.5z" />
  </g>

</svg>
