<?xml version="1.0" standalone="no"?>
<!DOCTYPE svg PUBLIC "-//W3C//DTD SVG 1.1//EN" "http://www.w3.org/Graphics/SVG/1.1/DTD/svg11.dtd" >
<svg viewBox="0 -442 2048 2048">
  <g transform="matrix(1 0 0 -1 0 1606)">
   <path fill="currentColor"
d="M1101 865q0 -153 -82 -296q-58 -102 -229 -197q-244 -136 -392 -437q-19 -46 -64 -135q-29 -47 -91 -82q-56 -28 -111 -56q63 364 240 547q74 76 226 175q193 125 245 177q114 115 114 271q0 160 -150.5 306.5t-311.5 146.5q-52 0 -125 -34q-84 -39 -84 -85q0 -10 18 -20
q30 -20 91 -59q65 -40 131 -80q88 -63 88 -110q0 -50 -81 -98q-4 -2 -125 -59q39 -25 78 -49q54 -38 54 -65q0 -71 -156 -104q-101 -22 -221 -22q-113 0 -113 66q0 28 27 40q8 4 78 12q31 4 138 28q-17 38 -135 79q-108 36 -108 87q0 52 77 52q12 0 35 -2t35 -2q94 0 156 45
q-13 30 -54 55q-34 21 -68 41q-28 26 -89 75q-10 17 -10 49q0 115 126 202q114 80 234 80q149 0 339 -136q183 -133 245 -274q25 -57 25 -132z" />
  </g>

</svg>
