<?xml version="1.0" standalone="no"?>
<!DOCTYPE svg PUBLIC "-//W3C//DTD SVG 1.1//EN" "http://www.w3.org/Graphics/SVG/1.1/DTD/svg11.dtd" >
<svg viewBox="0 -442 2048 2048">
  <g transform="matrix(1 0 0 -1 0 1606)">
   <path fill="currentColor"
d="M1258 562q0 -51 -11.5 -64t-60.5 -13q-78 0 -112 39q-2 3 -9 26q-25 88 -43 216l-30 218q-117 -153 -338.5 -469.5t-339.5 -470.5q-94 -123 -101 -126q-21 -10 -98 -10h-65q452 584 881 1151q41 56 83 111q66 83 94 83h133q-24 -128 -24 -242q0 -12 1 -22l40 -417v-10z
" />
  </g>

</svg>
