<?xml version="1.0" standalone="no"?>
<!DOCTYPE svg PUBLIC "-//W3C//DTD SVG 1.1//EN" "http://www.w3.org/Graphics/SVG/1.1/DTD/svg11.dtd" >
<svg viewBox="0 -442 2048 2048">
  <g transform="matrix(1 0 0 -1 0 1606)">
   <path fill="currentColor"
d="M2034 390q-7 -1 -25 -6t-28 -5q-90 0 -181 85q-37 -35 -71 -83q-25 9 -110 74q5 18 54 88q-23 23 -69 68q-123 -102 -353 -102q-141 0 -252 68q-2 1 -45 35q-35 27 -44 27q-15 0 -105 -34q-103 -40 -117 -44q-10 -3 -123 -25q-79 -15 -117 -38q-16 -9 -73 -104
q-49 -80 -101 -80q-19 0 -41 15q-25 15 -25 33q0 24 102 150q-46 28 -68 28q-13 0 -67.5 -70.5t-67.5 -70.5q-16 0 -36.5 18.5t-20.5 34.5q0 29 99 156q-16 52 -16 88q0 46 21 92h71q20 0 31 -53q5 -36 11 -71q28 -87 150 -87q159 0 352 110q47 32 148 85l219 -13
q-71 -44 -71 -86t95 -72q76 -24 132 -24q50 0 171 59.5t206 59.5q10 0 43 -32q21 -22 42 -43q62 39 69 39q20 0 50 -24q1 -7 1 -15q0 -38 -21 -84q68 -91 181 -114v-33z" />
  </g>

</svg>
