<?xml version="1.0" standalone="no"?>
<!DOCTYPE svg PUBLIC "-//W3C//DTD SVG 1.1//EN" "http://www.w3.org/Graphics/SVG/1.1/DTD/svg11.dtd" >
<svg viewBox="0 -442 2048 2048">
  <g transform="matrix(1 0 0 -1 0 1606)">
   <path fill="currentColor"
d="M2046 356q-23 -26 -60 -26q-59 0 -178 73q-25 -15 -84 -73q-37 25 -105 76q12 40 63 88q-55 60 -75 60q-10 0 -42 -22q-39 -28 -43 -30q-22 -11 -114 -30.5t-120 -19.5q-96 0 -158 19q-22 7 -119 60q-90 51 -99 51q-2 0 -68 -34q-52 -27 -207 -54q-144 -25 -218 -25
q-102 0 -218 38q-151 49 -151 128q0 43 85 76q71 28 124 28q33 0 98 -23.5t89 -44.5q-25 -16 -104 -29q-66 -10 -97 -49q19 -71 88 -71q10 0 29 3t29 3q196 0 417 126l72 46q44 25 80 25q114 0 176 -15q-66 -85 -66 -91q0 -49 89 -74q63 -17 133 -17q59 0 171.5 53.5
t192.5 53.5q13 0 54.5 -31.5t51.5 -31.5t32.5 19.5t36.5 19.5q17 0 36.5 -16t19.5 -33q0 -26 -36 -76q20 -38 88 -74q54 -28 107 -56z" />
  </g>

</svg>
