<?xml version="1.0" standalone="no"?>
<!DOCTYPE svg PUBLIC "-//W3C//DTD SVG 1.1//EN" "http://www.w3.org/Graphics/SVG/1.1/DTD/svg11.dtd" >
<svg viewBox="0 -442 2048 2048">
  <g transform="matrix(1 0 0 -1 0 1606)">
   <path fill="currentColor"
d="M1500 364q-25 -26 -65 -26q-51 0 -177 76q-27 -30 -78 -93q-18 11 -107 99q21 25 65 74l-70 70q-28 -21 -91 -53q-143 -49 -350 -49q-84 0 -157 9q-89 10 -244 88q-176 89 -176 158q0 70 158 70q73 0 152 -29q94 -35 116 -91q-24 9 -75 9q-140 0 -140 -46q0 -94 230 -94
q185 0 464 68q172 42 169 42q10 0 44.5 -32.5t48.5 -32.5t34 19.5t34 19.5q17 0 38 -15t21 -32q0 -14 -19.5 -36.5t-19.5 -36.5q0 -29 83 -77q56 -29 112 -59z" />
  </g>

</svg>
