<?xml version="1.0" standalone="no"?>
<!DOCTYPE svg PUBLIC "-//W3C//DTD SVG 1.1//EN" "http://www.w3.org/Graphics/SVG/1.1/DTD/svg11.dtd" >
<svg viewBox="0 -442 2048 2048">
  <g transform="matrix(1 0 0 -1 0 1606)">
   <path fill="currentColor"
d="M1119 985q0 -26 -23 -72t-44 -58q-33 -9 -97 -39q-57 -38 -284 -360q43 -91 147 -259q9 -11 91 -68q63 -44 63 -82q0 -79 -84 -79q-64 0 -107 40q-29 27 -92 147q-82 158 -87 166q-51 -95 -103 -189q-85 -154 -106 -154q-34 0 -65 77l219 358q-76 147 -241 432
q-26 40 -32 40q-8 0 -24 -3.5t-24 -3.5q-51 0 -106 93l-70 138q130 65 216 94l361 -664q109 144 217 289q180 237 208 237q21 0 44 -29t23 -51z" />
  </g>

</svg>
