<?xml version="1.0" standalone="no"?>
<!DOCTYPE svg PUBLIC "-//W3C//DTD SVG 1.1//EN" "http://www.w3.org/Graphics/SVG/1.1/DTD/svg11.dtd" >
<svg viewBox="0 -442 2048 2048">
  <g transform="matrix(1 0 0 -1 0 1606)">
   <path fill="currentColor"
d="M1292 717q-89 -117 -179 -235q-135 -168 -208 -168h-103q77 128 183 264q-129 0 -385 -16q-112 -7 -132 -7q-86 0 -242 66q-176 74 -176 144q0 59 149 59q161 0 247 -88q-13 0 -48 3q-31 3 -49 3q-50 0 -107 -28v-26q0 -77 243 -77q353 0 596 75q11 3 74 32q55 24 68 24
q35 0 69 -25z" />
  </g>

</svg>
