<?xml version="1.0" standalone="no"?>
<!DOCTYPE svg PUBLIC "-//W3C//DTD SVG 1.1//EN" "http://www.w3.org/Graphics/SVG/1.1/DTD/svg11.dtd" >
<svg viewBox="0 -442 2198 2048">
  <g transform="matrix(1 0 0 -1 0 1606)">
   <path fill="currentColor"
d="M2198 639q-22 -48 -91 -57q-58 -3 -116 -5q-31 -143 -49 -191q-47 -130 -117 -130q-83 0 -123 103q-28 74 -28 174q0 25 2 37q-55 15 -108 15q-22 0 -39 -87q-23 -122 -39 -162q-36 -87 -105 -87q-159 0 -149 339l-410 21v-9q64 -71 64 -179q0 -188 -223 -300
q-181 -91 -391 -91q-226 0 -226 162q0 164 179 164q55 0 96 -23q50 -28 50 -79q0 -20 -23 -41t-43 -21q-36 0 -58 30q-17 29 -34 59q-78 -33 -78 -66q0 -32 55 -68q45 -30 102 -30q96 0 241 48q166 55 201 122q22 44 22 109q0 128 -233 293q-66 -76 -161 -218
q-193 53 -281 108q99 153 308 451q11 4 122 25l-154 -236q11 2 119 2q6 0 61 70q63 81 66 84h104l-139 -188q97 -69 184 -112q426 -11 422 -11q34 0 60 2l12 28v30h-291q-44 0 -44 52q0 10 4 26q5 20 6 26q24 8 34 8q16 0 53 -13q42 -15 55 -17q97 -17 194 -17l70 182
q53 128 116 128q33 0 59 -44q22 -38 60 -284h127q5 10 28 76q90 260 166 260q52 0 83 -147q21 -98 24 -189q27 -20 111 -20q16 0 46.5 1t43.5 1q-17 -64 -67 -64q-22 0 -66 1t-63 1l-8 -52h207zM1902 766v142q0 35 -37 35q-23 -15 -57 -45q-25 -38 -25 -87v-45h119z
M1902 650v57h-126q-2 -29 -11 -57h137zM1884 575h-119v-49q0 -20 21.5 -51t40.5 -36q52 49 57 136zM1680 712q-5 -1 -15 -1q-7 0 -19.5 1t-19.5 1h-37q-4 0 -28 -1v-53h112zM1477 781v93q0 25 -17.5 46.5t-42.5 22.5q-62 -103 -62 -127v-35h122zM1477 664v50h-136
q-4 -16 -9 -48q28 0 73 -1q58 -1 72 -1zM1462 547v38h-139v-52q0 -30 16 -64q20 -41 46 -41q22 0 50 49q27 45 27 70zM415 729q-4 1 -46 17q-32 11 -46 11q-12 0 -53 -64l-48 -80q36 -26 96 -43q61 89 97 159z" />
  </g>

</svg>
