<?xml version="1.0" standalone="no"?>
<!DOCTYPE svg PUBLIC "-//W3C//DTD SVG 1.1//EN" "http://www.w3.org/Graphics/SVG/1.1/DTD/svg11.dtd" >
<svg viewBox="0 -442 2048 2048">
  <g transform="matrix(1 0 0 -1 0 1606)">
   <path fill="currentColor"
d="M1493 429q0 -1 -1 -7q-159 -28 -339 -28q-9 0 -35 1q-19 11 -19 22q0 4 47.5 28t47.5 67q0 10 -5 25q-165 158 -365 211q-193 51 -294 51q-116 0 -197 -57q-92 -65 -92 -176q0 -54 29 -99q32 -49 83 -57l54 -6q44 -6 44 -17q0 -28 -82 -28q-146 0 -245 68q-74 50 -74 167
q0 129 129 198q105 57 246 57q343 0 638 -158q50 -24 149 -75q27 -16 80 -48q57 -31 169 -100q32 -22 32 -39z" />
  </g>

</svg>
