<?xml version="1.0" standalone="no"?>
<!DOCTYPE svg PUBLIC "-//W3C//DTD SVG 1.1//EN" "http://www.w3.org/Graphics/SVG/1.1/DTD/svg11.dtd" >
<svg viewBox="0 -442 2048 2048">
  <g transform="matrix(1 0 0 -1 0 1606)">
   <path fill="currentColor"
d="M1457 809q0 -22 -38 -22q-44 0 -201 -168q-167 -179 -268 -206q-185 -50 -324 -50q-132 0 -298 57q-160 54 -272 134q-6 9 -6 20q0 17 14 17q7 0 96 -48q105 -57 108 -58q151 -73 305 -73q136 0 282 110q73 55 216 204q105 110 143 110l228 -7q15 0 15 -20z" />
  </g>

</svg>
