<?xml version="1.0" standalone="no"?>
<!DOCTYPE svg PUBLIC "-//W3C//DTD SVG 1.1//EN" "http://www.w3.org/Graphics/SVG/1.1/DTD/svg11.dtd" >
<svg viewBox="0 -442 2048 2048">
  <g transform="matrix(1 0 0 -1 0 1606)">
   <path fill="currentColor"
d="M725 1568q0 -13 -27 -22.5t-44 -69.5q-12 -42 -36 -127q-36 -123 -91 -245q-77 -172 -138 -204q-120 -63 -262 -60q19 -47 76 -78q50 -28 50 -40q0 -19 -18 -19q-21 0 -82 43q-76 53 -103 104q-2 28 18 28q13 0 42 -5t44 -5q61 0 129 38q54 30 93 163q22 74 88 379
q24 108 77 120q88 19 165 19q19 0 19 -19z" />
  </g>

</svg>
