<?xml version="1.0" standalone="no"?>
<!DOCTYPE svg PUBLIC "-//W3C//DTD SVG 1.1//EN" "http://www.w3.org/Graphics/SVG/1.1/DTD/svg11.dtd" >
<svg viewBox="0 -442 2048 2048">
  <g transform="matrix(1 0 0 -1 0 1606)">
   <path fill="currentColor"
d="M1121 319q-94 21 -280 71q-280 88 -390 197q-41 41 -92 130q-46 83 -67 146h102q43 0 79 -58q24 -46 49 -93q73 -120 270 -233q91 -53 329 -160zM326 614q-12 -3 -21 -3q-70 0 -152 88q-66 71 -103 152q11 1 35.5 6.5t37.5 5.5q59 0 94 -49q8 -12 49 -100q27 -59 60 -100
z" />
  </g>

</svg>
