<?xml version="1.0" standalone="no"?>
<!DOCTYPE svg PUBLIC "-//W3C//DTD SVG 1.1//EN" "http://www.w3.org/Graphics/SVG/1.1/DTD/svg11.dtd" >
<svg viewBox="0 -442 2048 2048">
  <g transform="matrix(1 0 0 -1 0 1606)">
   <path fill="currentColor"
d="M2023 596q-28 -57 -232 -111q-178 -47 -273 -47q-111 0 -220 41q-64 24 -201 98q-43 25 -85 49q-52 27 -93 27q-8 0 -13 -6q48 -24 112 -95q71 -78 71 -123q0 -34 -29 -81q-64 -105 -188 -135q-64 -15 -237 -15q71 16 179 104q118 96 118 159q0 53 -49 124
q-53 76 -104 76q-152 0 -367 -51q-181 -43 -362 -87q34 34 34 120q0 58 59 85q26 11 110 26v-130l438 91q-83 48 -243 156q21 56 268 56q273 0 310 -110q33 1 -207 1q-80 0 -193 -4l132 -76q49 -23 155 -23q154 0 261 -48q97 -56 193 -112q106 -60 218 -60q74 0 205 33
t199 68h34z" />
  </g>

</svg>
