<?xml version="1.0" standalone="no"?>
<!DOCTYPE svg PUBLIC "-//W3C//DTD SVG 1.1//EN" "http://www.w3.org/Graphics/SVG/1.1/DTD/svg11.dtd" >
<svg viewBox="0 -442 2048 2048">
  <g transform="matrix(1 0 0 -1 0 1606)">
   <path fill="currentColor"
d="M1963 517q0 -13 -11 -28q-65 -90 -228 -90q-180 0 -518 116t-519 116q-194 0 -307 -30q-123 -32 -279 -131q-11 -7 -16 -7q-35 0 -35 37q0 12 153 304q5 10 21 10q41 0 41 -26q0 -4 -128 -249q195 134 526 134q265 0 479 -67q146 -48 291 -97q184 -56 296 -56
q125 0 181 64q21 24 32 24q21 0 21 -24z" />
  </g>

</svg>
