<?xml version="1.0" standalone="no"?>
<!DOCTYPE svg PUBLIC "-//W3C//DTD SVG 1.1//EN" "http://www.w3.org/Graphics/SVG/1.1/DTD/svg11.dtd" >
<svg viewBox="0 -442 2048 2048">
  <g transform="matrix(1 0 0 -1 0 1606)">
   <path fill="currentColor"
d="M1149 744q0 -52 -71 -102q-55 -37 -120 -56q-97 -28 -258 -28q-19 -91 -57 -157q-54 -92 -126 -92q-115 0 -115 210q0 13 3 39h-326q-29 0 -29 30q0 22 23 22h340q18 91 57 157q53 92 125 92q116 0 116 -210q0 -13 -3 -39q150 0 225 24q87 28 87 75q0 30 -40 52
q47 56 101 56q29 0 48.5 -21.5t19.5 -51.5zM637 646q0 111 -54 111q-62 0 -94 -147h145q3 26 3 36zM625 558h-145q-3 -25 -3 -33q0 -114 54 -114q63 0 94 147z" />
  </g>

</svg>
