<?xml version="1.0" standalone="no"?>
<!DOCTYPE svg PUBLIC "-//W3C//DTD SVG 1.1//EN" "http://www.w3.org/Graphics/SVG/1.1/DTD/svg11.dtd" >
<svg viewBox="0 -442 2048 2048">
  <g transform="matrix(1 0 0 -1 0 1606)">
   <path fill="currentColor"
d="M1503 609q-147 -300 -158 -300h-7q-16 0 -52 8t-55 6q35 81 97 245q-31 10 -106 10q-69 0 -88 -10q-14 -7 -81 -169q-52 9 -136 9q-2 8 -2 17q0 48 48 143q-46 4 -81 4q-74 0 -221 -7.5t-221 -7.5q-117 0 -135 42l605 21q96 3 118 96h-916q-26 0 -62 29q113 24 458 24
q93 0 277.5 9t277.5 9q79 0 160 -40q-30 -62 -64 -109q35 -4 51 -4q32 0 94.5 7t94.5 7q-1 0 104 -39z" />
  </g>

</svg>
