<?xml version="1.0" standalone="no"?>
<!DOCTYPE svg PUBLIC "-//W3C//DTD SVG 1.1//EN" "http://www.w3.org/Graphics/SVG/1.1/DTD/svg11.dtd" >
<svg viewBox="0 -442 2048 2048">
  <g transform="matrix(1 0 0 -1 0 1606)">
   <path fill="currentColor"
d="M1842 556q0 -75 -99 -96l-350 141q-186 -373 -614 -373q-78 0 -294 42q93 11 348 35q52 2 149 19q26 9 71 50q144 131 184 276q-18 6 -42 6q-68 0 -196.5 -37.5t-196.5 -37.5q-17 0 -43 5q-33 6 -43 7v49q0 37 114 221q-216 -18 -334 -18q-282 0 -446 65l8 34l300 -36
q158 -19 150 -19q92 0 339 40q93 15 109 15q25 0 49 -12v-40q0 -32 -85 -180q131 19 190 19q25 0 75 -8.5t75 -8.5q12 0 28 30q10 20 20 41q20 31 85 62t104 31h96q-119 -139 -174 -226q211 -116 248 -116q19 0 50.5 45.5t42.5 45.5q29 0 55.5 -21.5t26.5 -49.5z" />
  </g>

</svg>
