<?xml version="1.0" standalone="no"?>
<!DOCTYPE svg PUBLIC "-//W3C//DTD SVG 1.1//EN" "http://www.w3.org/Graphics/SVG/1.1/DTD/svg11.dtd" >
<svg viewBox="0 -442 2048 2048">
  <g transform="matrix(1 0 0 -1 0 1606)">
   <path fill="currentColor"
d="M1726 576l-150 -280q-6 -11 -42 -11q-35 0 -88 14q32 67 94 203q-11 7 -33 7q-47 0 -194 -1q-13 -40 -48 -115q-17 -28 -77 -46q-48 -14 -92 -14q-40 0 -96 15q-47 12 -94 25q57 8 170 28q5 10 45 109h-561v55h406q28 0 83.5 6.5t82.5 6.5q18 23 35 86h-849q73 85 73 133
q0 59 -67 59q-56 0 -101 -37.5t-46 -92.5h-127v31q0 144 316 144q70 0 96 -17q34 -24 34 -94q0 -36 -37 -58l738 -6q13 0 38 8t38 8h170q-11 -23 -69 -72q-49 -40 -52 -85q24 1 66 1q293 0 327 -21q7 3 11 11z" />
  </g>

</svg>
