<?xml version="1.0" standalone="no"?>
<!DOCTYPE svg PUBLIC "-//W3C//DTD SVG 1.1//EN" "http://www.w3.org/Graphics/SVG/1.1/DTD/svg11.dtd" >
<svg viewBox="0 -442 2048 2048">
  <g transform="matrix(1 0 0 -1 0 1606)">
   <path fill="currentColor"
d="M1998 626q0 -257 -274 -257q-135 0 -306 48q-30 9 -295 97q-56 -117 -186 -117q-85 0 -145 59t-61 144q-20 1 -44 1q-194 0 -307 -30q-123 -32 -279 -131q-11 -7 -16 -7q-35 0 -35 38q0 11 153 303q6 11 21 11q41 0 41 -26q0 -4 -128 -250q40 27 114 58q184 76 412 76
q34 0 71 -1q14 73 71.5 120.5t131.5 47.5q87 0 147 -60.5t60 -146.5q0 -13 -2 -27q146 -48 291 -97q184 -56 296 -56q195 0 195 112q0 19 -15 19q-12 0 -34.5 -6t-34.5 -6q-40 0 -63 40q-20 34 -20 77q0 52 28.5 88t79.5 36q133 0 133 -157zM1093 604q0 64 -46 109t-110 45
q-54 0 -96.5 -33.5t-54.5 -85.5q165 -10 305 -48q2 15 2 13zM1073 530q-171 54 -291 67q3 -62 48 -105.5t107 -43.5q92 0 136 82z" />
  </g>

</svg>
