<?xml version="1.0" standalone="no"?>
<!DOCTYPE svg PUBLIC "-//W3C//DTD SVG 1.1//EN" "http://www.w3.org/Graphics/SVG/1.1/DTD/svg11.dtd" >
<svg viewBox="0 -442 2048 2048">
  <g transform="matrix(1 0 0 -1 0 1606)">
   <path fill="currentColor"
d="M1602 568l-169 -320q-49 2 -117 2v6q0 44 36 131l54 132q-33 9 -143 9q-51 0 -70 -6q-13 -4 -30 -65q-19 -69 -27 -79q-16 -21 -78 -35q-51 -12 -89 -12q-72 0 -182 33q2 1 165 34q35 56 47 121l-497 5q-34 0 -62 26q137 23 173 23h382q21 0 33 37q8 27 17 54v31
q-217 -29 -386 -29q-120 0 -213 22q-145 35 -145 114q0 29 33 50q29 18 60 18q14 0 41.5 -5.5t40.5 -5.5q-3 -11 -3 -25q0 -70 134 -89q45 -6 190 -6q188 0 287 15q10 2 66 14q40 9 67 9h99v-20q-1 -3 -50 -42q-43 -34 -63 -116q32 -11 77 -11q31 0 92 5.5t92 5.5
q87 0 138 -31zM245 836q0 -51 -44 -85q-40 -31 -92 -31q-32 0 -59 15v57q0 45 42 77q39 29 85 29q43 0 68 -12v-50z" />
  </g>

</svg>
