<?xml version="1.0" standalone="no"?>
<!DOCTYPE svg PUBLIC "-//W3C//DTD SVG 1.1//EN" "http://www.w3.org/Graphics/SVG/1.1/DTD/svg11.dtd" >
<svg viewBox="0 -442 2048 2048">
  <g transform="matrix(1 0 0 -1 0 1606)">
   <path fill="currentColor"
d="M936 1181q0 -25 -24 -25h-327l78 -133h-110q-48 0 -70 38l-81 138h514q20 0 20 -18zM639 909q0 -6 -3 -17t-4 -15q-4 -32 -8 -63q-10 -42 -40 -42h-95q-26 0 -26 12q0 1 6 12.5t7 16.5q4 32 8 63q10 42 40 42h95q20 0 20 -9zM1048 207q0 -17 -62 -28q-46 -8 -79 -8
q-134 0 -237 63q-209 127 -363 331q-80 106 -183 321q-22 46 -41 46q-3 0 -9 -2.5t-9 -2.5q-12 0 -15 16q12 34 176 34q30 0 43 -3q39 -9 75 -103q84 -220 174 -381q70 -125 131 -183q80 -76 199 -103q27 -6 58 -6q65 0 121 13q9 2 13 2q8 0 8 -6z" />
  </g>

</svg>
