<?xml version="1.0" standalone="no"?>
<!DOCTYPE svg PUBLIC "-//W3C//DTD SVG 1.1//EN" "http://www.w3.org/Graphics/SVG/1.1/DTD/svg11.dtd" >
<svg viewBox="0 -442 2048 2048">
  <g transform="matrix(1 0 0 -1 0 1606)">
   <path fill="currentColor"
d="M693 649q0 -50 -49 -50q-58 0 -84 17.5t-42 73.5l-30 -64q-16 -27 -63 -27q-95 0 -101 102q-49 -81 -98 -163q-79 -117 -126 -117q7 0 -50 12q104 163 319 386h40q0 -21 -4.5 -65t-4.5 -66q0 -27 33 -27q72 0 71 130q45 11 46 11q40 0 52.5 -88.5t61.5 -88.5q28 0 29 28
v-4zM727 79q0 -30 -44 -30q-33 0 -47 12l-47 47q-66 63 -137 108q-169 -175 -187 -175h-71l215 205q-100 56 -215 83q46 31 84 31q91 0 188 -61q85 82 185 82q7 0 27 -2q-103 -36 -168 -104q217 -162 217 -196z" />
  </g>

</svg>
