<?xml version="1.0" standalone="no"?>
<!DOCTYPE svg PUBLIC "-//W3C//DTD SVG 1.1//EN" "http://www.w3.org/Graphics/SVG/1.1/DTD/svg11.dtd" >
<svg viewBox="0 -442 2048 2048">
  <g transform="matrix(1 0 0 -1 0 1606)">
   <path fill="currentColor"
d="M1386 596q-30 -45 -30 -51q0 -12 10 -30t10 -28q0 -69 -57 -115q-53 -43 -124 -43q-13 0 -25 2q85 84 85 106q0 15 -7.5 42.5t-7.5 42.5q0 74 95 74h51zM1215 547q0 -62 -50.5 -108.5t-112.5 -46.5q-59 0 -94 77q-129 -86 -163 -86q-25 0 -44 19t-19 44q0 60 77 122
q70 56 134 64q-290 59 -363 59q-42 0 -74 -4q78 42 185 42q58 0 173 -17t173 -17q59 0 121 11q-20 -37 -65 -49q-42 -8 -83 -16q-53 -15 -101 -61q-53 -52 -53 -102q0 -27 12 -27q28 0 130.5 78t157.5 78q59 0 59 -60zM760 557q-8 -11 -12 -32q-72 9 -152 9q-40 0 -80 -1
q6 -80 25 -105q14 -17 90 -59q-8 -13 -33 -13q-176 0 -274 159q-40 -38 -79 -76q-62 -57 -83 -57q-9 0 -41 7q158 170 158 219q0 26 -36.5 67t-63.5 49q-31 9 -129 28q48 28 92 28q152 0 214 -110q28 -53 89 -157q13 40 12 75q173 -13 303 -31zM1178 542q0 24 -15 24
q-26 0 -60 -37.5t-34 -63.5q0 -29 24 -29q26 0 55.5 39.5t29.5 66.5z" />
  </g>

</svg>
