<?xml version="1.0" standalone="no"?>
<!DOCTYPE svg PUBLIC "-//W3C//DTD SVG 1.1//EN" "http://www.w3.org/Graphics/SVG/1.1/DTD/svg11.dtd" >
<svg viewBox="0 -442 2048 2048">
  <g transform="matrix(1 0 0 -1 0 1606)">
   <path fill="currentColor"
d="M641 539q-8 -13 -33 -13q-176 0 -274 159q-39 -38 -79 -76q-62 -57 -83 -57q-6 0 -41 7q158 170 158 219q0 26 -37 67.5t-63 48.5q-48 12 -129 28q48 28 92 28q63 0 122 -28q64 -31 92 -82q39 -75 129 -214q8 -10 146 -87zM649 434h-135v-46q0 -92 42 -151q7 -10 7 -19
q-9 -12 -42 -12q-81 0 -107 49q-13 24 -13 59q0 13 2 37.5t2 37.5v45h-73q3 -10 3 -21q0 -123 -6 -150t-47 -36q-25 -3 -76 -12q11 30 30 91q12 47 22 127h-145q-3 -6 -3 -19q-6 0 -17 -1.5t-17 -1.5q-26 0 -26 33q0 30 19 30h580v-40z" />
  </g>

</svg>
