<?xml version="1.0" standalone="no"?>
<!DOCTYPE svg PUBLIC "-//W3C//DTD SVG 1.1//EN" "http://www.w3.org/Graphics/SVG/1.1/DTD/svg11.dtd" >
<svg viewBox="0 -442 2048 2048">
  <g transform="matrix(1 0 0 -1 0 1606)">
   <path fill="currentColor"
d="M681 883q-22 -47 -76 -135q-30 -37 -90 -57q-6 -2 -105 -25q32 -11 76 -40q-6 -4 -16 -4q-19 0 -55.5 10t-55.5 10q-34 0 -57 -19v56q87 14 96 16q58 13 91 32q26 15 77 91q45 65 76 65h39zM494 552q-31 -3 -149 -23q-91 -16 -149 -16q-44 0 -63 54q76 0 196 24
q60 12 72 12q41 0 93 -51zM469 320q0 -42 -59 -42q-41 0 -75 11q27 24 27 40q0 58 -126 124q89 0 150 -35q83 -48 83 -98zM269 335q0 -40 -55 -40q-36 0 -71 11q25 22 25 37q0 55 -118 117q83 0 141 -33q78 -44 78 -92z" />
  </g>

</svg>
