<?xml version="1.0" standalone="no"?>
<!DOCTYPE svg PUBLIC "-//W3C//DTD SVG 1.1//EN" "http://www.w3.org/Graphics/SVG/1.1/DTD/svg11.dtd" >
<svg viewBox="0 -442 2048 2048">
  <g transform="matrix(1 0 0 -1 0 1606)">
   <path fill="currentColor"
d="M1118 404q-17 1 -121 0q-20 109 -116 109q-16 0 -82 -18q-259 -71 -294 -71q-45 0 -90.5 33.5t-62.5 76.5q-16 -11 -72 -32.5t-72 -21.5q-63 0 -99 31q-19 17 -39 64.5t-20 74.5q0 31 19 87h82q10 -29 10 -130q0 -82 79 -82q46 0 65 43q11 26 18 91t18 86q32 -9 97 -28
q8 -8 8 -22q0 -16 -8 -45.5t-8 -45.5q0 -124 109 -124q62 0 184.5 65t180.5 65q28 0 79 -18.5t70 -36.5t41 -55q24 -41 24 -62v-34z" />
  </g>

</svg>
