<?xml version="1.0" standalone="no"?>
<!DOCTYPE svg PUBLIC "-//W3C//DTD SVG 1.1//EN" "http://www.w3.org/Graphics/SVG/1.1/DTD/svg11.dtd" >
<svg viewBox="0 -442 2048 2048">
  <g transform="matrix(1 0 0 -1 0 1606)">
   <path fill="currentColor"
d="M1170 404q-16 0 -119 -12q-3 48 -33 84q-33 38 -79 38q-6 0 -12 -1l-371 -64q-12 -2 -14 -2q-112 0 -164 112q-83 -110 -212 -110q-63 0 -107 36q-9 18 -9 39q0 70 96 147q92 74 164 74q12 0 34 -10t34 -10q10 0 11 10t11 10q-2 0 91 -30q-29 -66 -29 -122
q0 -108 111 -108q11 0 68 20q295 103 303 103q89 0 153 -58t73 -146zM336 621v86h-35q-26 0 -73 -77.5t-47 -107.5q0 -4 8 -45q35 7 91 59t56 85z" />
  </g>

</svg>
