<?xml version="1.0" standalone="no"?>
<!DOCTYPE svg PUBLIC "-//W3C//DTD SVG 1.1//EN" "http://www.w3.org/Graphics/SVG/1.1/DTD/svg11.dtd" >
<svg viewBox="0 -442 2048 2048">
  <g transform="matrix(1 0 0 -1 0 1606)">
   <path fill="currentColor"
d="M595 -332q-120 -34 -115 -34q-74 0 -98 92q-8 32 -18 177q-6 103 -36.5 116.5t-77.5 13.5q-73 0 -73 -97q0 -54 23 -77q17 -16 50 -24q-48 -24 -80 -24q-52 0 -120 47q8 147 55.5 195t192.5 48q64 0 119 -43q71 -56 71 -162v-32q-1 -22 -1 -33q0 -57 15 -95q8 -21 36 -45
t49 -25q1 0 8 2z" />
  </g>

</svg>
