<?xml version="1.0" standalone="no"?>
<!DOCTYPE svg PUBLIC "-//W3C//DTD SVG 1.1//EN" "http://www.w3.org/Graphics/SVG/1.1/DTD/svg11.dtd" >
<svg viewBox="0 -442 2048 2048">
  <g transform="matrix(1 0 0 -1 0 1606)">
   <path fill="currentColor"
d="M881 470q-26 -15 -54 -15q-80 0 -121 108q18 31 50 31q39 0 66 -58q27 -61 59 -66zM733 441q-6 -1 -19 -7.5t-23 -6.5q-53 0 -78 34q-9 13 -27 64q-12 36 -34 38q9 1 27.5 7.5t29.5 6.5q40 0 73 -53zM798 636q-108 0 -320.5 -48t-321.5 -48q-72 0 -106 50q144 7 385 54
q174 34 216 34q40 0 147 -42z" />
  </g>

</svg>
