<?xml version="1.0" standalone="no"?>
<!DOCTYPE svg PUBLIC "-//W3C//DTD SVG 1.1//EN" "http://www.w3.org/Graphics/SVG/1.1/DTD/svg11.dtd" >
<svg viewBox="0 -442 2048 2048">
  <g transform="matrix(1 0 0 -1 0 1606)">
   <path fill="currentColor"
d="M596 -317q-3 -52 -102 -52q-33 0 -71 21q-42 24 -52 52q-20 -42 -39 -57q-23 -16 -67 -16q-61 0 -138 47t-77 245q0 119 6 158q17 108 79 108q47 0 47 -54q0 -19 -6.5 -56.5t-6.5 -56.5v-234q0 -23 32 -64t54 -41q66 0 67 167q37 4 110 8q-5 -22 -5 -42q0 -64 39 -99.5
t100 -35.5q15 0 30 2z" />
  </g>

</svg>
