<?xml version="1.0" standalone="no"?>
<!DOCTYPE svg PUBLIC "-//W3C//DTD SVG 1.1//EN" "http://www.w3.org/Graphics/SVG/1.1/DTD/svg11.dtd" >
<svg viewBox="0 -442 2048 2048">
  <g transform="matrix(1 0 0 -1 0 1606)">
   <path fill="currentColor"
d="M1054 1398q0 -62 -81 -62q-25 0 -41 4q9 19 9 34q0 40 -54 40q-72 0 -216 -101q32 -52 32 -101q0 -44 -27.5 -74.5t-70.5 -30.5q-74 0 -134 66l-3 -1q-74 -41 -149 -81q-88 -46 -161 -46q-108 0 -108 72q0 63 82 63q18 0 40 -6q-8 -17 -8 -33q0 -40 54 -40q52 0 118 41
q106 65 108 66q-33 53 -33 106q0 44 27.5 74t70.5 30q75 0 136 -69q174 121 301 121q108 0 108 -72zM603 1320q-26 29 -58 29q-28 0 -46 -22t-18 -50q0 -18 8 -38zM632 1247q0 16 -7 35l-113 -79q27 -28 58 -28q62 0 62 72z" />
  </g>

</svg>
