<?xml version="1.0" standalone="no"?>
<!DOCTYPE svg PUBLIC "-//W3C//DTD SVG 1.1//EN" "http://www.w3.org/Graphics/SVG/1.1/DTD/svg11.dtd" >
<svg viewBox="0 -442 2048 2048">
  <g transform="matrix(1 0 0 -1 0 1606)">
   <path fill="currentColor"
d="M645 960q0 -6 -12 -6q-43 0 -132.5 65t-178.5 65q-39 0 -115 -11.5t-115 -11.5q-42 0 -42 27q0 31 106 91q70 38 139 75q-68 11 -112 28q33 48 105 88q-37 22 -105 74q178 60 192 93q5 11 6 27q20 12 38 15q12 -7 12 -29q0 -28 -69 -65q-47 -22 -95 -44q37 -36 106 -36
q16 0 31 4q2 -28 -45 -56q-36 -18 -71 -37q42 -10 127 -31q-125 -92 -240 -159l236 -12q133 -13 202 -102q32 -41 32 -52z" />
  </g>

</svg>
