<?xml version="1.0" standalone="no"?>
<!DOCTYPE svg PUBLIC "-//W3C//DTD SVG 1.1//EN" "http://www.w3.org/Graphics/SVG/1.1/DTD/svg11.dtd" >
<svg viewBox="0 -442 2048 2048">
  <g transform="matrix(1 0 0 -1 0 1606)">
   <path fill="currentColor"
d="M1214 847q0 -37 -44 -37q-19 0 -76 20q20 14 20 35q0 25 -50 57q-35 22 -71 44q74 -2 116 -20q105 -46 105 -99zM1037 855q0 -37 -44 -37q-19 0 -76 20q20 14 20 35q0 25 -50 57q-35 22 -71 44q74 -2 116 -20q105 -46 105 -99zM1406 265q0 -45 -28 -45q-26 0 -65 20
q1 -3 1 40q0 37 -40 54q-34 13 -68 27q-4 10 -10 71q-25 232 -117 232q-38 0 -38 -43q0 -34 55.5 -93t55.5 -110q0 -77 -63 -137.5t-141 -60.5q-99 0 -99 71q0 65 68 126q57 52 128 76l-56 90q-33 57 -33 98q0 85 99 85q107 0 164 -87q48 -74 48 -187q0 -48 -9 -91
q27 -4 78 -20q20 -10 45 -52t25 -64zM664 564h-100q-51 0 -124 56q-66 50 -99 100q-145 -149 -162 -149t-45 13q167 220 167 238q0 65 -89 106q-27 13 -146 46q69 24 99 24q97 0 155 -57q27 -26 96 -140q67 -109 114 -154q23 -22 65 -45q60 -32 69 -38zM680 469
q-13 -1 -32 -1q-12 0 -35.5 2t-35.5 2q-35 0 -35 -54q0 -72 45 -187q-12 -11 -42 -11q-101 0 -119 85q-8 82 -15 164h-56q-10 -64 -23 -192q-19 -25 -56 -32q-48 -9 -62 -17q47 131 47 227q-15 19 -66 19q-60 0 -83 -23h-62l8 53h622v-35zM1079 390v59q-80 -46 -110 -175h44
q66 85 66 116z" />
  </g>

</svg>
