<?xml version="1.0" standalone="no"?>
<!DOCTYPE svg PUBLIC "-//W3C//DTD SVG 1.1//EN" "http://www.w3.org/Graphics/SVG/1.1/DTD/svg11.dtd" >
<svg viewBox="0 -442 2048 2048">
  <g transform="matrix(1 0 0 -1 0 1606)">
   <path fill="currentColor"
d="M531 1062q0 -34 -30 -34q-21 0 -118 117q-54 -50 -114 -50q-43 0 -69.5 31t-26.5 75q0 61 41 119l-61 56q-65 -75 -76 -75q-27 0 -27 30q0 13 69 77q-50 48 -50 67q0 34 30 34q17 0 67 -55q64 75 75 75q26 0 26 -29q0 -12 -72 -80l52 -61q55 51 116 51q43 0 69.5 -31
t26.5 -75q0 -60 -41 -119q113 -102 113 -123zM391 1267q0 72 -64 72q-36 0 -61 -32t-25 -69q0 -28 18 -50.5t46 -22.5q36 0 62 34q24 31 24 68z" />
  </g>

</svg>
