<?xml version="1.0" standalone="no"?>
<!DOCTYPE svg PUBLIC "-//W3C//DTD SVG 1.1//EN" "http://www.w3.org/Graphics/SVG/1.1/DTD/svg11.dtd" >
<svg viewBox="0 -442 2048 2048">
  <g transform="matrix(1 0 0 -1 0 1606)">
   <path fill="currentColor"
d="M1104 990q0 -37 -44 -37q-19 0 -76 20q20 14 20 35q0 25 -50 57q-35 22 -71 44q74 -2 116 -20q105 -46 105 -99zM927 998q0 -37 -44 -37q-19 0 -76 20q20 14 20 35q0 25 -50 57q-35 22 -71 44q74 -2 116 -20q105 -46 105 -99zM1300 763q-48 -59 -141 -113
q-142 -82 -156 -92q55 -59 111 -119q72 -84 72 -134q0 -60 -99 -161q45 114 45 151q0 60 -78 122q-98 78 -114 105q-97 -56 -193 -111q-160 -92 -174 -92q-8 0 -43 20q17 48 17 101q0 113 -172 251q-24 -11 -92 -73q-53 -47 -106 -47q-127 0 -127 124q0 64 48 84
q30 13 104 13h4q-29 -86 -29 -106q0 -50 40 -50q29 0 110 79t96 79q28 0 97 -57.5t81 -86.5q17 -40 27 -107q16 -101 18 -110q95 50 281 154l-7 114q-72 -65 -144 -65q-33 0 -78 29q-10 17 -10 35q0 56 69.5 120.5t125.5 64.5q11 0 30 -8.5t30 -8.5t11.5 8.5t11.5 8.5
q26 0 62 -20q-1 -7 -20 -89q-13 -54 -13 -90v-61l13 -17q193 88 189 184h80zM887 824q0 11 -1 24q-55 -41 -115 -102v-66h50q66 49 66 144z" />
  </g>

</svg>
