<?xml version="1.0" standalone="no"?>
<!DOCTYPE svg PUBLIC "-//W3C//DTD SVG 1.1//EN" "http://www.w3.org/Graphics/SVG/1.1/DTD/svg11.dtd" >
<svg viewBox="0 -442 2048 2048">
  <g transform="matrix(1 0 0 -1 0 1606)">
   <path fill="currentColor"
d="M1062 -239q0 -61 -58 -61q-46 0 -85 46q33 19 33 45q0 72 -189 82q0 -13 1 -48q1 -31 1 -49q0 -24 -29 -24q-23 0 -23 23q0 19 3 50q3 37 4 49q-63 1 -127 1q-10 -58 -42 -100q-38 -50 -91 -50t-84 51q-26 42 -28 99h-279q-19 0 -19 18q0 26 25 26h276q10 58 42 99
q38 50 91 50t84 -50q27 -42 29 -99q85 0 123 -1q0 11 -2 50q-1 31 -1 50q0 24 29 24q24 0 24 -22q0 -20 -3 -52l-4 -52q77 -5 136 -22q55 -16 102 -47q61 -42 61 -86zM547 -81q-6 64 -63 64t-79 -64h142zM541 -125h-142q6 -65 63 -65t79 65z" />
  </g>

</svg>
