<?xml version="1.0" standalone="no"?>
<!DOCTYPE svg PUBLIC "-//W3C//DTD SVG 1.1//EN" "http://www.w3.org/Graphics/SVG/1.1/DTD/svg11.dtd" >
<svg viewBox="0 -442 2048 2048">
  <g transform="matrix(1 0 0 -1 0 1606)">
   <path fill="currentColor"
d="M1094 1309q0 -58 -88 -88q-64 -23 -136 -23q-73 0 -182 23q-48 -187 -149 -187q-98 0 -98 179q0 24 6 59q-103 22 -164 22q-118 0 -118 -55q0 -21 25 -43q-40 -31 -78 -31q-62 0 -62 60q0 58 88 89q66 24 137 24q72 0 181 -23q47 185 149 185q98 0 98 -178q0 -23 -6 -58
q108 -23 164 -23q118 0 118 56q0 22 -24 43q38 30 76 30q63 0 63 -61zM640 1321q0 93 -45 93q-50 0 -78 -113l120 -25q3 21 3 45zM629 1233l-121 25q-3 -21 -3 -41q0 -96 45 -96q52 0 79 112z" />
  </g>

</svg>
