<?xml version="1.0" standalone="no"?>
<!DOCTYPE svg PUBLIC "-//W3C//DTD SVG 1.1//EN" "http://www.w3.org/Graphics/SVG/1.1/DTD/svg11.dtd" >
<svg viewBox="0 -442 2048 2048">
  <g transform="matrix(1 0 0 -1 0 1606)">
   <path fill="currentColor"
d="M972 1501q0 -13 -10 -20l-226 -158q31 -51 31 -101q0 -44 -27 -74.5t-70 -30.5q-73 0 -133 66q-34 -24 -104 -72q64 -84 64 -92q0 -28 -30 -28q-11 0 -71 97q-130 -79 -238 -79t-108 73q0 62 82 62q21 0 40 -5q-8 -17 -8 -33q0 -40 54 -40q61 0 154 58q-62 84 -62 91
q0 29 29 29q14 0 38 -41q16 -27 31 -55q34 23 101 70q-32 51 -32 106q0 44 27 74t70 30q74 0 135 -69q235 165 244 165q19 0 19 -23zM668 1330q-26 29 -59 29q-62 0 -62 -72q0 -19 7 -37zM698 1257q0 16 -7 35l-114 -81q25 -26 57 -26q28 0 46 22t18 50z" />
  </g>

</svg>
