<?xml version="1.0" standalone="no"?>
<!DOCTYPE svg PUBLIC "-//W3C//DTD SVG 1.1//EN" "http://www.w3.org/Graphics/SVG/1.1/DTD/svg11.dtd" >
<svg viewBox="0 -442 2048 2048">
  <g transform="matrix(1 0 0 -1 0 1606)">
   <path fill="currentColor"
d="M580 1517q0 -21 -117 -118q50 -54 50 -113q0 -43 -31 -70.5t-75 -27.5q-60 0 -119 41q-44 -47 -148 -154q50 16 79 16q49 0 108 -35.5t84 -35.5q-25 22 -25 47q0 44 52 44q53 0 53 -50q0 -72 -99 -72q-42 0 -120.5 30.5t-120.5 30.5q-12 0 -33.5 -6.5t-33.5 -6.5
q-34 0 -34 30q0 11 16 28q55 59 182 170q-50 54 -50 113q0 43 30.5 70.5t74.5 27.5q60 0 119 -41q101 112 124 112q34 0 34 -30zM442 1320q0 36 -32 61.5t-69 25.5q-28 0 -50.5 -18t-22.5 -46q0 -36 32 -61t69 -25q73 0 73 63z" />
  </g>

</svg>
