<?xml version="1.0" standalone="no"?>
<!DOCTYPE svg PUBLIC "-//W3C//DTD SVG 1.1//EN" "http://www.w3.org/Graphics/SVG/1.1/DTD/svg11.dtd" >
<svg viewBox="0 -442 2048 2048">
  <g transform="matrix(1 0 0 -1 0 1606)">
   <path fill="currentColor"
d="M603 137q0 -121 -169 -256q64 -88 64 -95q0 -29 -29 -29q-9 0 -70 98q-30 -22 -90 -65q32 -52 32 -101q0 -44 -27.5 -74.5t-70.5 -30.5q-73 0 -133 66.5t-60 140.5q0 44 27.5 73.5t70.5 29.5q74 0 135 -68q30 21 91 64q-63 83 -63 92q0 30 30 30q10 0 68 -95
q114 89 114 153q0 44 -59 39q9 98 76 98q63 0 63 -70zM270 -276q0 37 -25.5 69.5t-61.5 32.5q-28 0 -46 -22.5t-18 -50.5q0 -37 26.5 -69t62.5 -32q62 0 62 72z" />
  </g>

</svg>
