<?xml version="1.0" standalone="no"?>
<!DOCTYPE svg PUBLIC "-//W3C//DTD SVG 1.1//EN" "http://www.w3.org/Graphics/SVG/1.1/DTD/svg11.dtd" >
<svg viewBox="0 -442 2048 2048">
  <g transform="matrix(1 0 0 -1 0 1606)">
   <path fill="currentColor"
d="M552 1317q0 -26 -30 -26q-13 0 -80 71l-60 -51q50 -54 50 -115q0 -43 -31 -70.5t-75 -27.5q-60 0 -119 41q-29 -35 -92 -99q-13 -12 -31 -12q-34 0 -34 30q0 20 117 117q-49 53 -49 113q0 43 31 70.5t75 27.5q59 0 119 -42l56 61q-75 65 -75 77q0 26 29 26q12 0 77 -70
q50 52 68 52q34 0 34 -31q0 -15 -56 -66q76 -65 76 -76zM361 1230q0 36 -32 61.5t-69 25.5q-28 0 -50.5 -18t-22.5 -46q0 -36 34 -62q31 -24 68 -24q72 0 72 63z" />
  </g>

</svg>
