<?xml version="1.0" standalone="no"?>
<!DOCTYPE svg PUBLIC "-//W3C//DTD SVG 1.1//EN" "http://www.w3.org/Graphics/SVG/1.1/DTD/svg11.dtd" >
<svg viewBox="0 -442 2048 2048">
  <g transform="matrix(1 0 0 -1 0 1606)">
   <path fill="currentColor"
d="M767 1282q0 -44 -27 -74.5t-70 -30.5q-73 0 -133 66q-34 -24 -104 -72q64 -84 64 -92q0 -28 -30 -28q-11 0 -71 97q-131 -79 -238 -79q-108 0 -108 73q0 62 82 62q21 0 40 -5q-8 -17 -8 -33q0 -40 54 -40q58 0 154 58q-62 84 -62 91q0 29 29 29q14 0 38 -41
q16 -27 31 -55q46 31 101 70q-32 51 -32 106q0 44 27 74t70 30q73 0 133 -66t60 -140zM698 1317q0 37 -26.5 69.5t-62.5 32.5q-62 0 -62 -72q0 -37 25 -68q26 -34 62 -34q28 0 46 22t18 50z" />
  </g>

</svg>
