<?xml version="1.0" standalone="no"?>
<!DOCTYPE svg PUBLIC "-//W3C//DTD SVG 1.1//EN" "http://www.w3.org/Graphics/SVG/1.1/DTD/svg11.dtd" >
<svg viewBox="0 -442 2048 2048">
  <g transform="matrix(1 0 0 -1 0 1606)">
   <path fill="currentColor"
d="M538 90q0 -137 -229 -299q32 -52 32 -102q0 -44 -27.5 -74.5t-70.5 -30.5q-73 0 -133 66.5t-60 140.5q0 44 27.5 73.5t70.5 29.5q74 0 135 -68q175 122 175 198q0 44 -59 40q9 98 75 98q64 0 64 -72zM270 -276q0 37 -25.5 69.5t-61.5 32.5q-28 0 -46 -22.5t-18 -50.5
q0 -37 26.5 -69t62.5 -32q62 0 62 72z" />
  </g>

</svg>
