<?xml version="1.0" standalone="no"?>
<!DOCTYPE svg PUBLIC "-//W3C//DTD SVG 1.1//EN" "http://www.w3.org/Graphics/SVG/1.1/DTD/svg11.dtd" >
<svg viewBox="0 -442 2048 2048">
  <g transform="matrix(1 0 0 -1 0 1606)">
   <path fill="currentColor"
d="M358 503q0 -26 -34.5 -67t-60.5 -41q-5 0 -23 4q-58 13 -130 13q-9 0 -25.5 -1.5t-25.5 -1.5t-9 9q0 11 98.5 143t98.5 139q0 5 -13 5h-85q-40 0 -58.5 -29t-23.5 -29q-9 0 -9 8q0 -23 15 75q9 56 45 56q6 0 26 -2t34 -2q26 0 77.5 4t75.5 4q12 0 11 -13q-5 -6 -14 -19
l-166 -230q-10 -14 -10 -24q0 -21 88 -21q80 0 99 21q6 7 9 7q10 0 10 -8z" />
  </g>

</svg>
