<?xml version="1.0" standalone="no"?>
<!DOCTYPE svg PUBLIC "-//W3C//DTD SVG 1.1//EN" "http://www.w3.org/Graphics/SVG/1.1/DTD/svg11.dtd" >
<svg viewBox="0 -442 2048 2048">
  <g transform="matrix(1 0 0 -1 0 1606)">
   <path fill="currentColor"
d="M1136 -101q0 -46 -46 -46q-45 0 -45 46q0 47 45 47q46 0 46 -47zM1083 356l-30 -166h-27q-8 125 -106 125q-95 0 -159 -98q-57 -86 -57 -186q0 -147 113 -147q97 0 179 92l21 -23q-89 -122 -216 -122q-87 0 -143 63q-53 60 -53 148q0 122 93.5 219t215.5 97q5 0 116 -19
q15 5 28 17h25zM569 -95q0 -49 -46 -49q-48 0 -48 49q0 46 48 46q46 0 46 -46zM540 150q0 -137 -107 -219q-97 -75 -238 -75h-195v28q45 -2 62 59q97 346 97 357q0 25 -57 29v27h189q249 0 249 -206zM440 162q0 155 -146 155q-28 0 -41 -10q-36 -130 -105 -391l-1 -4
q6 -17 43 -17q110 0 181 79q69 76 69 188z" />
  </g>

</svg>
