<?xml version="1.0" standalone="no"?>
<!DOCTYPE svg PUBLIC "-//W3C//DTD SVG 1.1//EN" "http://www.w3.org/Graphics/SVG/1.1/DTD/svg11.dtd" >
<svg viewBox="0 -442 2048 2048">
  <g transform="matrix(1 0 0 -1 0 1606)">
   <path fill="currentColor"
d="M996 356l-33 -160h-28q0 119 -82 119q-69 0 -69 -65q0 -40 76.5 -115.5t76.5 -142.5q0 -64 -45.5 -108t-110.5 -44q-20 0 -56.5 13.5t-56.5 13.5q-15 0 -21 -24h-30l28 174h32q0 -4 -2 -13.5t-2 -14.5q0 -43 29 -75.5t71 -32.5q36 0 61 26t25 62q0 44 -78 120.5
t-78 136.5q0 56 40.5 93t97.5 37q24 0 58 -10t41 -10q11 0 25 20h31zM1048 -101q0 -46 -46 -46q-50 0 -50 46q0 47 50 47q46 0 46 -47zM569 -95q0 -49 -46 -49q-48 0 -48 49q0 46 48 46q46 0 46 -46zM540 150q0 -137 -107 -219q-97 -75 -238 -75h-195v28q45 -2 62 59
q97 346 97 357q0 25 -57 29v27h189q249 0 249 -206zM440 162q0 155 -146 155q-28 0 -41 -10q-36 -130 -105 -391l-1 -4q6 -17 43 -17q110 0 181 79q69 76 69 188z" />
  </g>

</svg>
