<?xml version="1.0" standalone="no"?>
<!DOCTYPE svg PUBLIC "-//W3C//DTD SVG 1.1//EN" "http://www.w3.org/Graphics/SVG/1.1/DTD/svg11.dtd" >
<svg viewBox="0 -442 2048 2048">
  <g transform="matrix(1 0 0 -1 0 1606)">
   <path fill="currentColor"
d="M853 -426h-67v167h-171v-167h-69v167h-171v-167h-70v167h-170v-167h-68v1408h786v-1408zM786 659v151h-171v-151h171zM786 445v151h-171v-151h171zM546 659v151h-171v-151h171zM786 232v150h-171v-150h171zM546 445v151h-171v-151h171zM305 659v151h-170v-151h170z
M786 18v151h-171v-151h171zM546 232v150h-171v-150h171zM305 445v151h-170v-151h170zM786 -196v151h-171v-151h171zM546 18v151h-171v-151h171zM305 232v150h-170v-150h170zM546 -196v151h-171v-151h171zM305 18v151h-170v-151h170zM305 -196v151h-170v-151h170z" />
  </g>

</svg>
