<?xml version="1.0" standalone="no"?>
<!DOCTYPE svg PUBLIC "-//W3C//DTD SVG 1.1//EN" "http://www.w3.org/Graphics/SVG/1.1/DTD/svg11.dtd" >
<svg viewBox="-1286 -442 2048 2048">
  <g transform="matrix(1 0 0 -1 0 1606)">
   <path fill="currentColor"
d="M-349 1497q0 -52 -74 -88q33 -42 33 -85q0 -95 -140 -95q-50 0 -86 22q-43 26 -43 73q0 72 93 105q-28 38 -28 68q0 46 40 73q35 24 83 24t83 -24q39 -27 39 -73zM-314 1102q0 -31 -23.5 -54t-54.5 -23q-75 0 -75 79q0 30 23.5 52.5t53.5 22.5t53 -23.5t23 -53.5z
M-314 795q0 -33 -22 -55.5t-54 -22.5q-77 0 -77 78q0 31 23 53.5t54 22.5q29 0 52.5 -23.5t23.5 -52.5zM-524 928q0 -113 -56 -220q-95 -180 -303 -326q-121 -84 -394 -220l-9 31q236 158 323 242q152 145 214 338q29 90 29 172q0 299 -211 299q-163 0 -220 -101
q-12 -21 -12 -43q0 -28 39 -28q11 0 31.5 5.5t31.5 5.5q48 0 85 -32.5t37 -79.5q0 -56 -43 -92t-100 -36q-70 0 -119 44t-49 113q0 130 120 213q107 73 243 73q147 0 255 -106t108 -252zM-403 1502q0 64 -61 64q-47 0 -47 -41q0 -39 67 -93q41 33 41 70zM-467 1298
q0 36 -78 110q-60 -37 -60 -84q0 -29 25 -47t55 -18q58 0 58 39z" />
  </g>

</svg>
