<?xml version="1.0" standalone="no"?>
<!DOCTYPE svg PUBLIC "-//W3C//DTD SVG 1.1//EN" "http://www.w3.org/Graphics/SVG/1.1/DTD/svg11.dtd" >
<svg viewBox="-1394 -442 2048 2048">
  <g transform="matrix(1 0 0 -1 0 1606)">
   <path fill="currentColor"
d="M-462 237q0 -130 -86 -224t-215 -94q-101 0 -171 41q-85 50 -85 144q0 38 31 68.5t69 30.5q40 0 70.5 -29.5t30.5 -69.5q0 -27 -27.5 -60.5t-27.5 -42.5q0 -31 64 -31q155 0 155 267q0 109 -22 175q-23 70 -94 70q-124 0 -155 -244q-44 254 -159 350v-674h-67v1408h67
v-675q115 96 159 350q31 -244 155 -244q71 0 94 70q22 66 22 175q0 267 -155 267q-64 0 -64 -31q0 -9 27.5 -42.5t27.5 -60.5q0 -40 -30.5 -69.5t-70.5 -29.5q-38 0 -69 30.5t-31 68.5q0 94 85 144q70 41 171 41q129 0 215 -94t86 -224q0 -123 -72 -215q-77 -99 -197 -99
q-61 0 -125 24l-57 -90l57 -91q66 25 125 25q120 0 197 -100q72 -92 72 -215zM-1217 -86h-177v1408h177v-1408z" />
  </g>

</svg>
