<?xml version="1.0" standalone="no"?>
<!DOCTYPE svg PUBLIC "-//W3C//DTD SVG 1.1//EN" "http://www.w3.org/Graphics/SVG/1.1/DTD/svg11.dtd" >
<svg viewBox="0 -442 2048 2048">
  <g transform="matrix(1 0 0 -1 0 1606)">
   <path fill="currentColor"
d="M1289 275q0 -61 -62.5 -121.5t-124.5 -60.5q-63 0 -63 59q0 17 4 30l63 212q3 10 3 17q0 11 -20 13t-20 13q0 17 15 22q15 1 42 4q57 9 44 9q16 0 16 -14t-51 -183q54 59 98 59q56 0 56 -59zM1004 161q-6 -19 -38 -43.5t-52 -24.5q-36 0 -36 36q0 27 22.5 76t23.5 76
l-2 3q-31 0 -69 -88q-40 -93 -42 -94q-5 -3 -17 -3q-37 0 -37 17q0 15 24.5 73t24.5 83q0 12 -6 12q-27 0 -61 -87q-36 -92 -41 -95t-16 -3q-39 0 -39 17q0 6 25.5 69.5t25.5 81.5l-1 2q-4 0 -12 -9.5t-15 -9.5q-17 0 -17 16q0 17 27.5 42.5t45.5 25.5q31 0 31 -46
q38 46 83 46q36 0 37 -41q36 41 76 41q46 0 46 -37q0 -26 -22.5 -75.5t-22.5 -68.5l-1 -2q7 0 20 13.5t19 13.5q13 0 16 -17zM627 14q0 -71 -49.5 -122.5t-120.5 -51.5q-58 0 -100.5 43t-42.5 101q0 48 45 48t45 -44q0 -46 -45 -46q29 -66 97 -66q89 0 89 143q0 134 -69 134
q-40 0 -71.5 -30t-33.5 -30q-19 0 -19 23v231q0 20 16 20q10 0 47.5 -11.5t60.5 -11.5q75 0 101 23q2 1 6 1q15 0 15 -16q0 -9 -15 -26q-52 -60 -137 -60q-26 0 -54 7v-116q38 28 86 28q65 0 109 -54q40 -50 40 -117zM325 -145q-36 3 -43 3h-171q-7 0 -43 -3v40h56
q36 0 36 22v379q-35 -14 -97 -14v39q95 0 141 47h6q22 0 22 -24v-425q0 -22 37 -24q10 -1 56 0v-40zM1224 263q0 21 -14 21q-27 0 -69 -54t-42 -82q0 -19 20 -19q32 0 68.5 50t36.5 84z" />
  </g>

</svg>
