<?xml version="1.0" standalone="no"?>
<!DOCTYPE svg PUBLIC "-//W3C//DTD SVG 1.1//EN" "http://www.w3.org/Graphics/SVG/1.1/DTD/svg11.dtd" >
<svg viewBox="0 -442 2048 2048">
  <g transform="matrix(1 0 0 -1 0 1606)">
   <path fill="currentColor"
d="M857 275q0 -61 -62.5 -121.5t-124.5 -60.5t-62 59q0 16 4 30l62 212q3 10 3 17q0 11 -20 13t-20 13q0 16 16 22q14 1 42 4q57 9 43 9q17 0 17 -14q0 -11 -52 -183q55 59 99 59q55 0 55 -59zM598 284q0 -64 -43 -124q-46 -67 -107 -67t-61 58q0 49 54 120q-8 -1 -23.5 -1
t-31.5 -6l14 -28q0 -29 -29 -29q-30 0 -30 29q0 16 22.5 55.5t36.5 39.5q8 0 23 -1.5t23 -1.5t21 1.5t22 1.5q15 0 15 -18q0 -1 -29.5 -51t-29.5 -80q0 -33 33 -33q30 0 53 37q20 33 20 65q0 5 -13.5 19t-13.5 28q0 36 38 36q36 0 36 -50zM357 -11q0 -64 -49 -106.5
t-114 -42.5q-63 0 -110 36q-52 40 -52 101q0 83 99 137q-79 51 -79 122q0 56 43 94t100 38q55 0 97 -31q45 -35 45 -88q0 -69 -82 -116q102 -62 102 -144zM792 263q0 21 -13 21q-27 0 -69 -54t-42 -82q0 -19 20 -19q32 0 68 50t36 84zM288 249q0 36 -28.5 60.5t-65.5 24.5
q-34 0 -61 -17q-32 -20 -32 -52q0 -30 47 -64q37 -24 74 -47q66 40 66 95zM304 -37q0 45 -140 130q-79 -46 -79 -116q0 -43 33.5 -72t76.5 -29q40 0 74.5 24t34.5 63z" />
  </g>

</svg>
