<?xml version="1.0" standalone="no"?>
<!DOCTYPE svg PUBLIC "-//W3C//DTD SVG 1.1//EN" "http://www.w3.org/Graphics/SVG/1.1/DTD/svg11.dtd" >
<svg viewBox="0 -442 2048 2048">
  <g transform="matrix(1 0 0 -1 0 1606)">
   <path fill="currentColor"
d="M793 1536l-547 -1962h-66l129 463q-85 -42 -136 -42q-52 0 -95.5 37t-43.5 89q0 44 31 75t75 31t75 -31t31 -75q0 -26 -12 -49q5 -4 9 -4q34 0 93 65l67 240q-83 -41 -137 -41q-52 0 -95.5 37t-43.5 88q0 44 31 75t75 31t75 -31t31 -75q0 -27 -11 -48q5 -4 9 -4
q34 0 92 64l67 241q-85 -42 -136 -42q-52 0 -95.5 37t-43.5 89q0 44 31 75t75 31t75 -31t31 -75q0 -26 -12 -49q5 -4 9 -4q37 0 99 71q22 78 63 235q-84 -42 -138 -42q-52 0 -95.5 37t-43.5 88q0 44 31 75t75 31t75 -31t31 -75q0 -25 -12 -48q5 -4 9 -4q35 0 93 64l67 241
q-85 -42 -136 -42q-52 0 -95.5 37t-43.5 89q0 44 31 75t75 31t74.5 -31t30.5 -75q0 -28 -11 -49q5 -4 9 -4q29 0 76 48q38 38 60 74h39z" />
  </g>

</svg>
