<?xml version="1.0" standalone="no"?>
<!DOCTYPE svg PUBLIC "-//W3C//DTD SVG 1.1//EN" "http://www.w3.org/Graphics/SVG/1.1/DTD/svg11.dtd" >
<svg viewBox="0 -442 2048 2048">
  <g transform="matrix(1 0 0 -1 0 1606)">
   <path fill="currentColor"
d="M850 45q0 -134 -68 -252h-42q61 125 61 228q0 106 -106 194q-59 50 -198 120v-516q0 -99 -93 -168q-85 -64 -187 -64q-59 0 -102 32q-48 35 -48 92q0 93 97 168q91 69 187 69q56 0 96 -26v1684h49q8 -104 90 -185q137 -136 165 -177q65 -95 65 -232q0 -52 -16 -106
q23 -65 23 -146q0 -46 -15 -104q28 -68 28 -153q0 -50 -19 -119q25 -45 25 -100q0 -58 -26 -108q34 -52 34 -131zM771 1003q0 170 -274 347q1 -78 76 -162q65 -65 130 -131q38 -42 66 -95q2 18 2 41zM772 752q0 106 -92 201q-56 58 -183 139q4 -74 81 -156q65 -64 131 -128
q36 -40 62 -87q1 12 1 31zM782 489q0 105 -98 204q-57 57 -187 141q4 -74 88 -156q69 -63 137 -127q30 -34 58 -91q2 21 2 29zM788 236q0 201 -290 363q12 -97 120 -201q151 -147 169 -173q1 12 1 11z" />
  </g>

</svg>
