<?xml version="1.0" standalone="no"?>
<!DOCTYPE svg PUBLIC "-//W3C//DTD SVG 1.1//EN" "http://www.w3.org/Graphics/SVG/1.1/DTD/svg11.dtd" >
<svg viewBox="-117 -442 2048 2048">
  <g transform="matrix(1 0 0 -1 0 1606)">
   <path fill="currentColor"
d="M286 145q0 -134 -68 -252h-42q61 125 61 228q0 106 -106 194q-59 50 -198 120v-616h-50v1639h49q8 -106 89 -186q142 -139 169 -178q69 -98 69 -234q0 -46 -15 -104q28 -67 28 -153q0 -50 -19 -119q25 -45 25 -100q0 -58 -26 -108q34 -52 34 -131zM212 845q0 106 -94 204
q-59 62 -185 143q4 -75 81 -156q66 -64 131 -128q37 -42 66 -94q1 12 1 31zM224 589q0 105 -101 204q-56 55 -190 141q4 -73 88 -156q68 -63 137 -127q37 -41 65 -93q1 12 1 31zM224 336q0 201 -290 363q12 -97 120 -201q151 -147 169 -173q1 12 1 11z" />
  </g>

</svg>
