<?xml version="1.0" standalone="no"?>
<!DOCTYPE svg PUBLIC "-//W3C//DTD SVG 1.1//EN" "http://www.w3.org/Graphics/SVG/1.1/DTD/svg11.dtd" >
<svg viewBox="0 -442 2048 2048">
  <g transform="matrix(1 0 0 -1 0 1606)">
   <path fill="currentColor"
d="M426 168q0 -31 -20 -57q-21 -29 -51 -29q-42 0 -42 43q0 45 42 67q-4 1 -9 1q-93 0 -149 -232q-3 -23 -14 -66q-17 -48 -67 -48q-44 0 -44 43q0 7 3 16l78 234q9 27 9 47q0 6 -4 6q-23 0 -39.5 -54t-36.5 -54q-28 0 -28 21q0 36 41 86t76 50q64 0 87 -41q44 41 95 41
q73 0 73 -74z" />
  </g>

</svg>
