<?xml version="1.0" standalone="no"?>
<!DOCTYPE svg PUBLIC "-//W3C//DTD SVG 1.1//EN" "http://www.w3.org/Graphics/SVG/1.1/DTD/svg11.dtd" >
<svg viewBox="-36 -442 2048 2048">
  <g transform="matrix(1 0 0 -1 0 1606)">
   <path fill="currentColor"
d="M464 122q0 -99 -69 -185q-73 -90 -170 -90q-36 0 -60 20l-39 -114q43 0 43 -26q0 -34 -25 -34h-164q-16 0 -16 19q0 40 50 41l131 390q7 21 7 44q0 6 -4 6q-21 0 -38.5 -53.5t-31.5 -53.5h-18q-15 0 -15 20q0 37 40 86.5t76 49.5q64 0 87 -39q48 39 99 39q117 0 117 -120
zM358 162q0 31 -24 31q-40 0 -78 -46q-2 -10 -70 -219q8 -32 38 -32q48 0 94 110q40 96 40 156z" />
  </g>

</svg>
