<?xml version="1.0" standalone="no"?>
<!DOCTYPE svg PUBLIC "-//W3C//DTD SVG 1.1//EN" "http://www.w3.org/Graphics/SVG/1.1/DTD/svg11.dtd" >
<svg viewBox="0 -442 2048 2048">
  <g transform="matrix(1 0 0 -1 0 1606)">
   <path fill="currentColor"
d="M730 168q0 -31 -20 -57q-22 -29 -52 -29q-42 0 -42 43q0 45 42 67q-4 1 -9 1q-93 0 -148 -232q-3 -23 -14 -66q-17 -48 -68 -48q-43 0 -43 43q0 10 2 16l78 234q9 27 9 47q0 6 -4 6q-23 0 -38.5 -54t-37.5 -54q-28 0 -28 21q0 36 41 86t76 50q65 0 88 -41q44 41 94 41
q74 0 74 -74zM388 209q0 -34 -33 -40q4 1 -60 1l-74 -220q-9 -27 -9 -43q0 -12 5 -12q48 0 84 70q20 39 40 39q24 0 24 -21q0 -4 -2 -7q-62 -129 -160 -129q-96 0 -96 78q0 16 5 31l72 214q-70 0 -46 -2q-29 2 -29 23q0 33 35 38q-5 -1 59 -1q16 53 33 106q28 66 76 66
q43 0 43 -42q0 -15 -41 -130q75 0 45 2q29 -2 29 -21z" />
  </g>

</svg>
