<?xml version="1.0" standalone="no"?>
<!DOCTYPE svg PUBLIC "-//W3C//DTD SVG 1.1//EN" "http://www.w3.org/Graphics/SVG/1.1/DTD/svg11.dtd" >
<svg viewBox="0 -442 2048 2048">
  <g transform="matrix(1 0 0 -1 0 1606)">
   <path fill="currentColor"
d="M528 107q0 -27 -19 -48.5t-46 -21.5q-14 0 -43 24t-45 24q-21 0 -21 -22q0 -16 58.5 -26t58.5 -62q0 -27 -20 -46t-47 -19q-47 0 -55 60.5t-33 60.5q-29 0 -29 -27q0 -10 24 -40.5t24 -53.5q0 -54 -67 -54q-65 0 -65 54q0 20 25.5 48.5t25.5 46.5q0 27 -27 27
q-23 0 -32 -61t-63 -61q-24 0 -44.5 21.5t-20.5 45.5q0 53 59.5 60.5t59.5 28.5q0 19 -21 19q-18 0 -45.5 -23t-43.5 -23q-63 0 -63 68q0 62 60 62q21 0 52.5 -22.5t41.5 -22.5q22 0 22 18q0 25 -62 33.5t-62 56.5q0 25 21 46t46 21q50 0 61 -58.5t32 -58.5q26 0 26 25
q0 15 -24 43.5t-24 43.5q0 26 21.5 44t48.5 18q25 0 45 -18.5t20 -43.5q0 -21 -24.5 -49.5t-24.5 -40.5q0 -27 31 -27q18 0 27 59.5t62 59.5q62 0 62 -62q0 -54 -58 -61t-58 -26q0 -25 19 -25q14 0 43 25t52 25q59 0 59 -65zM305 107q0 32 -32 32q-36 0 -36 -35
q0 -31 36 -31q32 0 32 34z" />
  </g>

</svg>
