<?xml version="1.0" standalone="no"?>
<!DOCTYPE svg PUBLIC "-//W3C//DTD SVG 1.1//EN" "http://www.w3.org/Graphics/SVG/1.1/DTD/svg11.dtd" >
<svg viewBox="0 -442 2048 2048">
  <g transform="matrix(1 0 0 -1 0 1606)">
   <path fill="currentColor"
d="M337 -25q0 -1 -1 -7q-43 38 -110 104l-25 -25l41 -41v-35q-26 22 -62 55q-28 -28 -71 -68q-4 12 -4 20q0 20 51 69l-23 23q-43 -40 -101 -94q2 31 30 65q10 12 49 50q-41 40 -86 89v38q22 -21 108 -105l26 26l-44 45v37q26 -23 65 -61l68 69q4 -13 4 -20q0 -17 -50 -71
l24 -23l101 98v-5q0 -28 -80 -114q67 -68 78 -86q12 -21 12 -33zM204 93l-23 23l-25 -25l23 -22z" />
  </g>

</svg>
