<?xml version="1.0" standalone="no"?>
<!DOCTYPE svg PUBLIC "-//W3C//DTD SVG 1.1//EN" "http://www.w3.org/Graphics/SVG/1.1/DTD/svg11.dtd" >
<svg viewBox="0 -442 2048 2048">
  <g transform="matrix(1 0 0 -1 0 1606)">
   <path fill="currentColor"
d="M1724 1272h-304v192h304v-192zM1724 848h-516v192h516v-192zM1176 1272h-304v192h304v-192zM1724 424h-304v192h304v-192zM628 1272h-304v192h304v-192zM1724 0h-304v192h304v-192zM1176 424h-304v192h304v-192zM840 848h-516v192h516v-192zM1176 0h-304v192h304v-192z
M628 424h-304v192h304v-192zM628 0h-304v192h304v-192z" />
  </g>

</svg>
