<?xml version="1.0" standalone="no"?>
<!DOCTYPE svg PUBLIC "-//W3C//DTD SVG 1.1//EN" "http://www.w3.org/Graphics/SVG/1.1/DTD/svg11.dtd" >
<svg viewBox="0 -442 2048 2048">
  <g transform="matrix(1 0 0 -1 0 1606)">
   <path fill="currentColor"
d="M1251 460q0 -202 -147 -342t-349 -140q-314 0 -505 189.5t-191 503.5q0 313 191 503t505 190q172 0 307 -119l125 111q8 8 41 8q23 0 23 -23v-486q0 -28 -65 -28q-35 0 -46 28q-3 23 -8 64q-18 133 -111 235q-100 110 -229 110q-240 0 -351 -184q-74 -122 -74 -411
q0 -286 74 -408q110 -182 355 -182q149 0 254 116q102 112 102 262q0 32 76 32q23 0 23 -29z" />
  </g>

</svg>
