<?xml version="1.0" standalone="no"?>
<!DOCTYPE svg PUBLIC "-//W3C//DTD SVG 1.1//EN" "http://www.w3.org/Graphics/SVG/1.1/DTD/svg11.dtd" >
<svg viewBox="0 -442 2048 2048">
  <g transform="matrix(1 0 0 -1 0 1606)">
   <path fill="currentColor"
d="M1388 441h-135v-415q0 -26 -27 -26q-23 0 -97 40q-63 34 -94 58q-90 -120 -280 -120q-314 0 -505 189.5t-191 503.5q0 313 191 503t505 190q170 0 309 -119l124 111q9 8 41 8q24 0 24 -23v-486q0 -28 -66 -28q-34 0 -45 28q-2 20 -6 55q-15 136 -109 241
q-101 113 -233 113q-242 0 -353 -184q-74 -122 -74 -409q0 -286 74 -408q111 -184 360 -184q68 0 117.5 45t49.5 112v205h-245v99q62 0 194 -3q128 -3 193 -3q47 0 139 3q96 3 139 3v-99z" />
  </g>

</svg>
