<?xml version="1.0" standalone="no"?>
<!DOCTYPE svg PUBLIC "-//W3C//DTD SVG 1.1//EN" "http://www.w3.org/Graphics/SVG/1.1/DTD/svg11.dtd" >
<svg viewBox="0 -442 2048 2048">
  <g transform="matrix(1 0 0 -1 0 1606)">
   <path fill="currentColor"
d="M997 60q0 -60 -34 -60h-144q-63 0 -112 30q-58 36 -58 95v16q-88 -165 -255 -165q-131 0 -231 61q-118 72 -118 195q0 177 207 267q154 66 361 68v83q0 94 -38 154q-45 72 -134 72q-56 0 -113 -10q44 -41 44 -103q0 -57 -37.5 -95.5t-94.5 -38.5q-58 0 -97 38t-39 96
q0 196 345 196q163 0 276 -69q134 -82 134 -235v-508q0 -26 69 -36t69 -51zM613 272v220q-121 0 -214 -68q-102 -75 -102 -192q0 -65 28 -115q35 -59 95 -59q80 0 138 68q55 65 55 146z" />
  </g>

</svg>
