<?xml version="1.0" standalone="no"?>
<!DOCTYPE svg PUBLIC "-//W3C//DTD SVG 1.1//EN" "http://www.w3.org/Graphics/SVG/1.1/DTD/svg11.dtd" >
<svg viewBox="0 -442 2048 2048">
  <g transform="matrix(1 0 0 -1 0 1606)">
   <path fill="currentColor"
d="M1473 190q0 -83 -53 -145q-55 -67 -136 -67q-430 0 -430 265v170q0 83 -38 146q-45 74 -123 74h-175v-533h183v-100q-51 0 -158.5 3t-161.5 3t-162 -3t-160 -3v100h185v1142h-185v101h638q208 0 354 -78q182 -98 182 -288q0 -118 -89 -205q-77 -74 -200 -110
q133 -59 175 -168q16 -41 43 -243q25 -195 120 -195q71 0 87 101q0 15 5 41q12 33 50 33q49 0 49 -41zM927 980q0 155 -55.5 208.5t-210.5 53.5h-143v-532h143q156 0 211 56.5t55 213.5z" />
  </g>

</svg>
