<?xml version="1.0" standalone="no"?>
<!DOCTYPE svg PUBLIC "-//W3C//DTD SVG 1.1//EN" "http://www.w3.org/Graphics/SVG/1.1/DTD/svg11.dtd" >
<svg viewBox="0 -442 2048 2048">
  <g transform="matrix(1 0 0 -1 0 1606)">
   <path fill="currentColor"
d="M1319 -10q0 -140 -48 -240q-62 -129 -187 -129q-131 0 -189 131q-30 69 -52 244q-82 -18 -159 -18q-293 0 -464 199q-161 188 -161 487q0 302 159 494q170 206 466 206t465 -206q157 -192 157 -494q0 -208 -81 -368q-91 -179 -267 -259q61 -110 146 -110q100 0 133 44
q1 1 14 40q8 24 33 24q35 0 35 -45zM1011 671q0 607 -327 607q-328 0 -328 -623q0 -182 21 -283q34 -159 131 -243q-1 77 49 127.5t127 50.5q124 0 205 -147q80 89 107 242q15 91 15 269zM820 104q-37 126 -136 126q-37 0 -66 -23q-32 -25 -32 -61q0 -82 98 -82q72 0 136 40
z" />
  </g>

</svg>
