<?xml version="1.0" standalone="no"?>
<!DOCTYPE svg PUBLIC "-//W3C//DTD SVG 1.1//EN" "http://www.w3.org/Graphics/SVG/1.1/DTD/svg11.dtd" >
<svg viewBox="0 -442 2048 2048">
  <g transform="matrix(1 0 0 -1 0 1606)">
   <path fill="currentColor"
d="M927 403q0 -182 -97 -299q-104 -126 -282 -126q-199 0 -331 99l-93 -90q-9 -9 -39 -9q-26 0 -26 26v418q0 24 78 24q21 0 23 -46q4 -58 17 -99q72 -222 371 -222q89 0 138 70q43 61 43 154q0 76 -37 136q-42 68 -151 97q-103 24 -205 48q-124 41 -196 139
q-81 109 -81 244q0 175 102 284q104 113 278 113q166 0 280 -98l90 90q8 8 41 8q25 0 25 -23v-419q0 -26 -76 -26q-20 0 -26 36q-3 25 -5 50q-18 128 -109.5 209t-219.5 81q-85 0 -135 -59q-46 -56 -46 -142q0 -100 63 -154q48 -41 148 -65q83 -18 167 -36q133 -36 212 -154
t79 -259z" />
  </g>

</svg>
