<?xml version="1.0" standalone="no"?>
<!DOCTYPE svg PUBLIC "-//W3C//DTD SVG 1.1//EN" "http://www.w3.org/Graphics/SVG/1.1/DTD/svg11.dtd" >
<svg viewBox="0 -442 2048 2048">
  <g transform="matrix(1 0 0 -1 0 1606)">
   <path fill="currentColor"
d="M1004 834q0 -39 -26.5 -66t-66.5 -27t-67 26.5t-27 66.5q0 19 4 33q-28 -8 -60 -29q74 -85 74 -207q0 -150 -116 -239q-107 -82 -261 -82q-132 0 -222 51q-19 -31 -19 -68q0 -124 137 -124q25 0 75.5 1.5t75.5 1.5q219 0 328 -56q150 -77 150 -275q0 -148 -173 -217
q-124 -49 -299 -49q-170 0 -295 51q-171 70 -171 215q0 124 143 175q-79 69 -79 194q0 107 67 190q-97 82 -97 231t118 238q107 80 261 80q147 0 247 -65q78 75 188 75q47 0 79 -38.5t32 -86.5zM597 597v66q0 96 -22 140q-31 64 -117 64q-140 0 -140 -204v-66
q0 -203 140 -203q86 0 117 63q22 45 22 140zM796 -159q0 120 -262 120h-198q-103 0 -103 -120q0 -97 98 -145q76 -38 184 -38q106 0 183 39q98 49 98 144z" />
  </g>

</svg>
