<?xml version="1.0" standalone="no"?>
<!DOCTYPE svg PUBLIC "-//W3C//DTD SVG 1.1//EN" "http://www.w3.org/Graphics/SVG/1.1/DTD/svg11.dtd" >
<svg viewBox="0 -442 2048 2048">
  <g transform="matrix(1 0 0 -1 0 1606)">
   <path fill="currentColor"
d="M725 289q0 -313 -339 -313q-117 0 -195 57q-87 -57 -107 -57q-39 0 -39 26v289q0 26 68 26q26 0 39 -26q7 -24 22 -73q52 -160 212 -160q183 0 183 159q0 88 -93 130q-28 13 -169 46q-114 27 -181 90q-81 76 -81 179q0 150 98 227q89 70 243 70q95 0 162 -36
q69 36 101 36q24 0 24 -25v-229q0 -28 -49 -28q-5 0 -15 1h-16q-19 0 -27 37q-4 27 -8 53q-29 116 -176 116q-74 0 -124 -33q-57 -38 -57 -109q0 -76 96 -110q80 -18 160 -35q120 -28 190 -103q78 -84 78 -205z" />
  </g>

</svg>
