<?xml version="1.0" standalone="no"?>
<!DOCTYPE svg PUBLIC "-//W3C//DTD SVG 1.1//EN" "http://www.w3.org/Graphics/SVG/1.1/DTD/svg11.dtd" >
<svg viewBox="0 -442 2048 2048">
  <g transform="matrix(1 0 0 -1 0 1606)">
   <path fill="currentColor"
d="M1583 1372q0 -11 -57 -242q-21 -92 -66 -265q-12 -37 -33 -37q-26 0 -26 18t3.5 53.5t3.5 53.5q0 159 -75 260q-84 114 -237 114q-131 0 -265 -67q-209 -105 -338 -353q-119 -230 -119 -479q0 -184 101 -296q106 -117 287 -117q141 0 276 84q127 80 204 206q8 13 73 164
q9 21 24 21q21 0 21 -18q0 -17 -16 -59q-74 -192 -240 -320q-175 -135 -374 -135q-232 0 -376 152q-141 148 -141 382q0 334 267 613.5t598 279.5q216 0 323 -186q154 186 164 186q18 0 18 -13z" />
  </g>

</svg>
