<?xml version="1.0" standalone="no"?>
<!DOCTYPE svg PUBLIC "-//W3C//DTD SVG 1.1//EN" "http://www.w3.org/Graphics/SVG/1.1/DTD/svg11.dtd" >
<svg viewBox="0 -442 2048 2048">
  <g transform="matrix(1 0 0 -1 0 1606)">
   <path fill="currentColor"
d="M1459 1321q0 11 -5 -30l-41 -343q-5 -44 -25 -44q-22 0 -22 22q0 2 4 23q8 44 8 122q0 134 -82 181q-59 34 -199 34h-301q-49 0 -64.5 -12.5t-28.5 -62.5l-122 -487h201q112 0 158 37q44 34 81 157q10 35 27 35q21 0 21 -13q0 -5 -26 -110l-87 -352q-10 -41 -28 -41
q-21 0 -21 19q0 1 6 22q13 45 13 102q0 29 -7 43q-22 44 -147 44h-205l-136 -542q-8 -32 -8 -45q0 -23 45 -23h309q222 0 333 94q83 71 182 299q23 53 40 53q20 0 20 -19q0 -18 -187 -450q-10 -24 -22 -30q-7 -4 -37 -4h-1000q-39 0 -39 22q0 32 46 37q36 1 71 1q70 2 87 44
q5 13 13 42l266 1065q8 31 8 39q0 29 -48 34q1 0 -69 0q-52 0 -52 23q0 36 47 36h980q43 0 43 -22z" />
  </g>

</svg>
