<?xml version="1.0" standalone="no"?>
<!DOCTYPE svg PUBLIC "-//W3C//DTD SVG 1.1//EN" "http://www.w3.org/Graphics/SVG/1.1/DTD/svg11.dtd" >
<svg viewBox="0 -442 2048 2048">
  <g transform="matrix(1 0 0 -1 0 1606)">
   <path fill="currentColor"
d="M1430 1321q0 3 -4 -30l-40 -343q-6 -44 -26 -44q-22 0 -22 22l6 42q7 49 7 111q0 70 -18 109q-45 98 -255 98h-289q-46 0 -62 -17q-12 -12 -24 -58l-127 -514h191q108 0 157 38q32 24 67 113q32 80 42 80q19 0 19 -15q0 -6 -25 -111q-32 -129 -88 -352q-10 -39 -26 -39
q-22 0 -22 22q0 1 6 21q14 46 14 96q0 32 -8 48q-22 44 -143 44h-199l-126 -503q-8 -31 -8 -39q0 -14 6 -23q11 -17 113 -19q96 -2 96 -23q0 -35 -49 -35q-19 0 -56.5 2t-56.5 2h-282q-17 0 -50.5 -2t-50.5 -2q-30 0 -30 22q0 25 16 32t55 7h58q53 4 70 32q8 13 18 53
l266 1065q8 31 8 39q0 29 -49 34q2 0 -69 0q-51 0 -51 23q0 36 48 36h952q41 0 41 -22z" />
  </g>

</svg>
