<?xml version="1.0" standalone="no"?>
<!DOCTYPE svg PUBLIC "-//W3C//DTD SVG 1.1//EN" "http://www.w3.org/Graphics/SVG/1.1/DTD/svg11.dtd" >
<svg viewBox="0 -442 2048 2048">
  <g transform="matrix(1 0 0 -1 0 1606)">
   <path fill="currentColor"
d="M1581 1372q0 -16 -56 -244q-54 -222 -67 -263q-12 -37 -33 -37q-25 0 -25 18t4 53.5t4 53.5q0 160 -75 261q-85 113 -239 113q-130 0 -264 -68q-210 -107 -337 -349q-117 -226 -117 -475q0 -188 103 -302q107 -118 293 -118q101 0 194 37q107 43 153 118q16 25 46 129
q29 99 29 132q0 16 -4 22q-16 23 -201 23q-16 0 -16 21q0 36 54 36q58 0 173.5 -2t174.5 -2q17 0 51 2t51 2q25 0 25 -20q0 -30 -29 -37q-9 -2 -53 -2q-27 0 -39 -7q-25 -15 -42 -73q-39 -136 -69 -277q-6 -39 -27 -109q-3 -6 -15 -6q-34 0 -79 128q-136 -172 -417 -172
q-233 0 -376 150t-143 384q0 334 263 611q267 282 599 282q212 0 325 -184q153 184 163 184q18 0 18 -13z" />
  </g>

</svg>
