<?xml version="1.0" standalone="no"?>
<!DOCTYPE svg PUBLIC "-//W3C//DTD SVG 1.1//EN" "http://www.w3.org/Graphics/SVG/1.1/DTD/svg11.dtd" >
<svg viewBox="0 -442 2048 2048">
  <g transform="matrix(1 0 0 -1 0 1606)">
   <path fill="currentColor"
d="M1177 1321q0 -31 -54 -36q-70 -6 -78 -11q-21 -14 -34 -67l-234 -925q-34 -137 -155.5 -230.5t-262.5 -93.5q-101 0 -169 54q-74 59 -74 157q0 147 117 147q79 0 79 -73q0 -46 -35 -79.5t-81 -33.5q-12 0 -26 4q30 -136 185 -136q100 0 181 102q67 84 95 195l227 899
q8 31 8 47q0 15 -6 24q-13 21 -200 21q-15 0 -15 22q0 35 55 35q33 0 98 -2t97 -2h155q17 0 50 2t50 2q27 0 27 -22z" />
  </g>

</svg>
