<?xml version="1.0" standalone="no"?>
<!DOCTYPE svg PUBLIC "-//W3C//DTD SVG 1.1//EN" "http://www.w3.org/Graphics/SVG/1.1/DTD/svg11.dtd" >
<svg viewBox="0 -442 2048 2048">
  <g transform="matrix(1 0 0 -1 0 1606)">
   <path fill="currentColor"
d="M1434 1071q0 -143 -137 -250q-116 -90 -271 -120q123 -11 207 -80q93 -77 93 -195q0 -124 -100 -236q-89 -97 -216 -148q-103 -42 -217 -42h-673q-53 0 -53 22q0 37 68 38h36q73 1 94 32q10 14 20 54l264 1057q8 31 8 45q0 29 -46 35q-5 1 -69 1q-52 0 -52 22q0 37 47 37
h639q142 0 241 -63q117 -75 117 -209zM1273 1079q0 98 -63 154q-60 53 -160 53h-255q-55 0 -72 -12t-30 -65l-121 -491h281q117 0 218 54.5t157 154.5q45 78 45 152zM1161 446q0 106 -63.5 169t-169.5 63h-370l-137 -553q-7 -28 -7 -45q0 -23 66 -23h266q164 0 289.5 113.5
t125.5 275.5z" />
  </g>

</svg>
