<?xml version="1.0" standalone="no"?>
<!DOCTYPE svg PUBLIC "-//W3C//DTD SVG 1.1//EN" "http://www.w3.org/Graphics/SVG/1.1/DTD/svg11.dtd" >
<svg viewBox="0 -442 2048 2048">
  <g transform="matrix(1 0 0 -1 0 1606)">
   <path fill="currentColor"
d="M1217 484q0 -12 -159 -447q-4 -13 -19 -32q-8 -5 -34 -5h-899q-39 0 -39 22q0 32 46 37q35 1 71 1q62 2 81 32q8 13 19 54l265 1057q8 31 8 45q0 29 -45 35q-5 1 -69 2q-53 1 -53 21q0 37 37 37q19 0 57 -2t57 -2h280q18 0 55.5 2t56.5 2q29 0 29 -20q0 -38 -47 -41
q-53 -1 -106 -1q-71 -4 -91 -33q-9 -13 -20 -56l-267 -1067q-8 -32 -8 -45q0 -23 44 -23h211q201 0 316 106q94 86 169 289q19 51 35 51q19 0 19 -19z" />
  </g>

</svg>
