<?xml version="1.0" standalone="no"?>
<!DOCTYPE svg PUBLIC "-//W3C//DTD SVG 1.1//EN" "http://www.w3.org/Graphics/SVG/1.1/DTD/svg11.dtd" >
<svg viewBox="0 -442 2048 2048">
  <g transform="matrix(1 0 0 -1 0 1606)">
   <path fill="currentColor"
d="M1388 37q0 -37 -35 -37q-31 0 -92.5 2t-92.5 2h-143q-17 0 -50 -2t-49 -2q-29 0 -29 22q0 29 24 34q46 5 91 10q59 10 59 55q0 57 -12 146q-15 120 -18 146q-1 17 -4 51h-501l-149 -247q-36 -59 -36 -92q0 -46 54.5 -64t54.5 -24q0 -37 -36 -37q-30 0 -92 2t-93 2
q-25 0 -74.5 -2t-74.5 -2q-23 0 -23 19q0 33 37 38q145 20 229 161l690 1152q20 33 48 33q29 0 34 -43l119 -1226q6 -55 36 -69q17 -8 81 -8q47 0 47 -20zM1032 521l-66 661l-395 -661h461z" />
  </g>

</svg>
