<?xml version="1.0" standalone="no"?>
<!DOCTYPE svg PUBLIC "-//W3C//DTD SVG 1.1//EN" "http://www.w3.org/Graphics/SVG/1.1/DTD/svg11.dtd" >
<svg viewBox="0 -442 2048 2048">
  <g transform="matrix(1 0 0 -1 0 1606)">
   <path fill="currentColor"
d="M1665 1321q0 -29 -38 -35q-122 -19 -182 -55q-54 -32 -142 -124q-101 -107 -332 -356l261 -610q27 -61 55 -75q5 -2 77 -8q59 -4 59 -21q0 -37 -35 -37q-16 0 -50 2t-50 2h-226q-17 0 -51 -2t-51 -2q-30 0 -30 19q0 32 34 38q43 9 63 17q41 16 43 41q-9 21 -217 508
q-172 -187 -364 -393q-82 -86 -82 -115q0 -42 45.5 -54t45.5 -26q0 -35 -49 -35q-46 0 -137 2t-137 2q-14 0 -42 -2t-42 -2q-24 0 -24 19q0 33 39 38q173 26 301 160q239 248 427 454l-234 547q-20 49 -57 61q-15 5 -84 7q-43 1 -43 20q0 37 35 37t104.5 -2t104.5 -2h112
q18 0 53.5 2t53.5 2q30 0 30 -22q0 -26 -57 -40q-65 -16 -86 -53l186 -430l344 371q30 33 30 59q0 40 -45 52.5t-45 27.5q0 35 49 35q45 0 135.5 -2t136.5 -2q14 0 42 2t42 2q24 0 24 -22z" />
  </g>

</svg>
