<?xml version="1.0" standalone="no"?>
<!DOCTYPE svg PUBLIC "-//W3C//DTD SVG 1.1//EN" "http://www.w3.org/Graphics/SVG/1.1/DTD/svg11.dtd" >
<svg viewBox="0 -442 2048 2048">
  <g transform="matrix(1 0 0 -1 0 1606)">
   <path fill="currentColor"
d="M1122 309q0 -24 -26 -108q-70 -225 -197 -225q-74 0 -125.5 45.5t-63.5 119.5q-139 -165 -283 -165q-132 0 -208 108q-67 96 -67 234q0 124 48 244q62 154 180 267q137 130 285 130q135 0 196 -143q15 102 92 102q56 0 56 -55q0 -15 -28 -123q-22 -99 -71 -296l-46 -160
q-24 -94 -24 -164q0 -101 67 -101q89 0 164 266q12 44 29 44q22 0 22 -20zM837 719q0 21 -16 64q-49 132 -156 132q-222 0 -334 -455q-37 -150 -37 -232q0 -209 139 -209q87 0 178 77q88 75 110 161l107 427q9 36 9 35z" />
  </g>

</svg>
