<?xml version="1.0" standalone="no"?>
<!DOCTYPE svg PUBLIC "-//W3C//DTD SVG 1.1//EN" "http://www.w3.org/Graphics/SVG/1.1/DTD/svg11.dtd" >
<svg viewBox="0 -442 2048 2048">
  <g transform="matrix(1 0 0 -1 0 1606)">
   <path fill="currentColor"
d="M1210 1372q0 -9 -30 -134q-24 -101 -76 -303q-11 -38 -28 -38q-21 0 -21 17q0 19 4.5 56.5t4.5 56.5q0 304 -283 304q-134 0 -244 -101t-110 -234q0 -117 99 -171q46 -25 211 -64q140 -32 192 -83q95 -92 95 -228q0 -189 -149 -340.5t-338 -151.5q-231 0 -331 150
q-112 -150 -125 -150q-20 0 -20 18q0 -6 9 30l100 402q9 38 28 38t19 -18q0 -21 -7.5 -62t-7.5 -61q0 -145 100 -222q90 -68 239 -68q144 0 255 114t111 258q0 97 -47 148q-50 55 -204 90q-176 39 -233 76q-111 72 -111 234q0 177 149 315q147 135 326 135q201 0 277 -150
q117 150 129 150q17 0 17 -13z" />
  </g>

</svg>
