<?xml version="1.0" standalone="no"?>
<!DOCTYPE svg PUBLIC "-//W3C//DTD SVG 1.1//EN" "http://www.w3.org/Graphics/SVG/1.1/DTD/svg11.dtd" >
<svg viewBox="0 -442 2048 2048">
  <g transform="matrix(1 0 0 -1 0 1606)">
   <path fill="currentColor"
d="M1546 861q0 -271 -170 -511q-166 -235 -421 -339q5 -99 24 -145q32 -75 113 -75q144 0 231 196q13 30 22 30q17 0 17 -19q0 -27 -30 -103q-107 -276 -290 -276q-157 0 -157 205q0 51 12 165q-101 -31 -196 -31q-222 0 -358 150q-130 145 -130 370q0 330 256 614
q264 293 589 293q224 0 359 -152q129 -145 129 -372zM1388 920q0 174 -81 290q-93 131 -261 131q-143 0 -284 -101q-176 -126 -286 -365q-104 -228 -104 -456q0 -135 52 -238q61 -119 178 -159q-17 32 -17 64q0 77 60.5 140t136.5 63q148 0 167 -218q308 181 410 622
q29 130 29 227zM902 69q0 180 -120 180q-60 0 -108.5 -50t-48.5 -111q0 -86 90 -86q87 0 186 43q1 10 1 24z" />
  </g>

</svg>
