<?xml version="1.0" standalone="no"?>
<!DOCTYPE svg PUBLIC "-//W3C//DTD SVG 1.1//EN" "http://www.w3.org/Graphics/SVG/1.1/DTD/svg11.dtd" >
<svg viewBox="0 -442 2048 2048">
  <g transform="matrix(1 0 0 -1 0 1606)">
   <path fill="currentColor"
d="M1761 1323q0 -32 -36 -37q-139 -20 -228 -162l-710 -1128q-23 -38 -52 -38t-35 48l-157 1212q-6 49 -42 62q-17 6 -77 6q-37 0 -37 22q0 35 47 35q27 0 81.5 -2t81.5 -2h157q14 0 44 2t45 2q27 0 27 -20q0 -37 -47 -37q-133 0 -125 -62l139 -1059l618 979q28 46 28 76
q0 44 -53 61t-53 25q0 37 36 37q30 0 90 -2t90 -2q25 0 73.5 2t73.5 2q21 0 21 -20z" />
  </g>

</svg>
