<?xml version="1.0" standalone="no"?>
<!DOCTYPE svg PUBLIC "-//W3C//DTD SVG 1.1//EN" "http://www.w3.org/Graphics/SVG/1.1/DTD/svg11.dtd" >
<svg viewBox="0 -442 2048 2048">
  <g transform="matrix(1 0 0 -1 0 1606)">
   <path fill="currentColor"
d="M1972 1323q0 -26 -15 -34q-4 -3 -89 -7q-75 -3 -94 -32q-6 -10 -17 -51l-270 -1074q-4 -16 -4 -33q0 -33 84 -34.5t84 -20.5q0 -37 -38 -37q-17 0 -51.5 2t-51.5 2h-246q-16 0 -48.5 -2t-48.5 -2q-31 0 -31 22q0 32 46 37q36 1 71 1q62 2 82 33q9 14 19 53l285 1138h-2
l-791 -1250q-22 -34 -41 -34t-26 53l-163 1221h-2l-271 -1082q-9 -36 -9 -51q0 -49 41 -68q19 -9 75 -16q41 -5 41 -20q0 -37 -36 -37q-31 0 -91.5 2t-91.5 2q-30 0 -89.5 -2t-89.5 -2q-26 0 -26 22q0 32 49 38q75 10 99 22q61 30 83 119l251 1002q8 31 8 45q0 29 -45 35
q-5 1 -69 2q-53 1 -53 21q0 37 47 37h261q30 0 38 -7t12 -37l148 -1125l717 1135q21 34 62 34h257q40 0 40 -20z" />
  </g>

</svg>
