<?xml version="1.0" standalone="no"?>
<!DOCTYPE svg PUBLIC "-//W3C//DTD SVG 1.1//EN" "http://www.w3.org/Graphics/SVG/1.1/DTD/svg11.dtd" >
<svg viewBox="0 -442 2048 2048">
  <g transform="matrix(1 0 0 -1 0 1606)">
   <path fill="currentColor"
d="M1008 616q0 -123 -47 -241q-62 -157 -180 -269q-137 -130 -287 -130q-133 0 -205 110q-61 94 -61 234q0 80 59 314l159 630q26 103 26 117q0 36 -77.5 41t-77.5 24q0 25 21 39q3 2 130.5 14t145.5 12q25 0 25 -22q0 -5 -7 -33l-158 -635q130 138 257 138q132 0 209 -109
q68 -96 68 -234zM865 707q0 208 -138 208q-78 0 -164 -70q-78 -63 -117 -140q-5 -9 -51 -197q-45 -182 -45 -267q0 -222 146 -222q218 0 332 451q37 147 37 237z" />
  </g>

</svg>
