<?xml version="1.0" standalone="no"?>
<!DOCTYPE svg PUBLIC "-//W3C//DTD SVG 1.1//EN" "http://www.w3.org/Graphics/SVG/1.1/DTD/svg11.dtd" >
<svg viewBox="0 -442 2048 2048">
  <g transform="matrix(1 0 0 -1 0 1606)">
   <path fill="currentColor"
d="M1790 1323q0 -31 -40 -37q-130 -20 -228 -115q-25 -25 -45 -47l-493 -567q-19 -22 -30 -65l-70 -283q-26 -104 -26 -117q0 -29 47 -34h68q55 0 55 -23q0 -35 -44 -35q-17 0 -50.5 2t-50.5 2h-245q-18 0 -53 -2t-53 -2q-28 0 -28 19q0 33 38 38q-1 0 63 0q88 0 111 66
q15 44 57 211q44 174 44 201q0 12 -8 34l-243 653q-17 46 -64 58q-16 4 -78 6q-37 2 -37 20q0 37 34 37q17 0 51 -2t51 -2h227q17 0 51 2t51 2q30 0 30 -22q0 -34 -74 -38t-75 -42q90 -247 234 -634l467 537q56 65 56 97q0 31 -43 42.5t-43 22.5q0 37 36 37q29 0 87 -2
t87 -2h81q12 0 35.5 2t35.5 2q24 0 24 -20z" />
  </g>

</svg>
