<?xml version="1.0" standalone="no"?>
<!DOCTYPE svg PUBLIC "-//W3C//DTD SVG 1.1//EN" "http://www.w3.org/Graphics/SVG/1.1/DTD/svg11.dtd" >
<svg viewBox="0 -442 2048 2048">
  <g transform="matrix(1 0 0 -1 0 1606)">
   <path fill="currentColor"
d="M1430 180q0 -18 -23 -65q-75 -157 -205 -157q-105 0 -171 49q-75 55 -75 156q0 52 30.5 154t30.5 152q0 92 -67 140q-60 44 -155 44h-237l-131 -528q-4 -16 -4 -33q0 -33 83.5 -34.5t83.5 -20.5q0 -37 -37 -37q-19 0 -56 2t-56 2h-237q-18 0 -54.5 -2t-54.5 -2
q-28 0 -28 19q0 32 28 39q4 1 55 1q94 0 115 33q10 15 20 54l264 1057q8 31 8 45q0 29 -48 35q-4 1 -70 1q-51 0 -51 22q0 37 46 37h543q159 0 281 -67q148 -81 148 -228q0 -143 -151 -254q-121 -89 -284 -125q192 -61 192 -233q0 -16 -11 -92q-26 -179 -26 -236
q0 -110 82 -110q65 0 110 53q27 31 56 97q23 53 34 53q22 0 22 -21zM1238 1082q0 204 -295 204h-142q-55 0 -72.5 -12t-30.5 -65l-129 -517h222q318 0 416 237q31 76 31 153z" />
  </g>

</svg>
