<?xml version="1.0" standalone="no"?>
<!DOCTYPE svg PUBLIC "-//W3C//DTD SVG 1.1//EN" "http://www.w3.org/Graphics/SVG/1.1/DTD/svg11.dtd" >
<svg viewBox="0 -442 2048 2048">
  <g transform="matrix(1 0 0 -1 0 1606)">
   <path fill="currentColor"
d="M1605 1321q0 -3 -4 -27l-56 -347q-7 -42 -27 -42q-19 0 -19 23q0 33 10.5 98t10.5 99q0 99 -68 136q-48 26 -153 26q-174 0 -189 -5q-30 -10 -46 -73l-265 -1058q-9 -35 -9 -47q0 -16 7 -25q14 -18 128 -21q107 -3 107 -21q0 -37 -42 -37q-21 0 -62.5 2t-62.5 2h-357
q-21 0 -62.5 -2t-62.5 -2q-30 0 -30 19q0 29 18 36q4 2 44 2q71 1 110 5q78 7 97 29q14 16 26 62l265 1066q11 44 11 46q0 21 -54 21h-145q-182 0 -264 -89q-43 -47 -122 -259q-12 -33 -27 -33q-20 0 -20 19q0 1 128 382q4 14 18 33q7 4 31 4h1086q50 0 50 -22z" />
  </g>

</svg>
