<?xml version="1.0" standalone="no"?>
<!DOCTYPE svg PUBLIC "-//W3C//DTD SVG 1.1//EN" "http://www.w3.org/Graphics/SVG/1.1/DTD/svg11.dtd" >
<svg viewBox="0 -442 2048 2048">
  <g transform="matrix(1 0 0 -1 0 1606)">
   <path fill="currentColor"
d="M1686 1321q0 -31 -35 -38q-30 -3 -61 -5q-69 -13 -100 -57q-22 -31 -42 -110l-150 -590q-11 -52 -42 -155q-62 -165 -202 -282q-151 -126 -317 -126q-163 0 -266.5 104t-103.5 267q0 57 18 129l171 688q24 96 24 102q0 29 -48 35q-4 1 -70 1q-53 0 -53 22q0 37 38 37
q18 0 54.5 -2t55.5 -2h245q18 0 54 2t54 2q30 0 30 -22q0 -33 -87 -38q-96 -5 -113 -34q-8 -13 -17 -50l-193 -773q-21 -83 -21 -152q0 -116 60 -186q63 -73 178 -73q169 0 309 137q127 126 171 300l176 697q8 31 8 52q0 50 -40 69q-18 8 -75 15q-40 5 -40 21q0 37 35 37
q46 0 139.5 -2t139.5 -2q16 0 45.5 2t44.5 2q26 0 26 -22z" />
  </g>

</svg>
