<?xml version="1.0" standalone="no"?>
<!DOCTYPE svg PUBLIC "-//W3C//DTD SVG 1.1//EN" "http://www.w3.org/Graphics/SVG/1.1/DTD/svg11.dtd" >
<svg viewBox="0 -442 2299 2048">
  <g transform="matrix(1 0 0 -1 0 1606)">
   <path fill="currentColor"
d="M2299 1321q0 -30 -35 -35q-82 -14 -126 -51q-33 -29 -80 -111l-647 -1128q-21 -38 -41 -38q-25 0 -28 46l-73 1017l-586 -1025q-21 -38 -40 -38q-26 0 -29 46l-86 1207q-4 52 -23 66q-7 5 -67 8q-51 3 -51 21q0 37 34 37q16 0 47.5 -2t47.5 -2h102q36 0 106.5 2t106.5 2
q29 0 29 -22q0 -33 -43 -35q-134 -9 -134 -68v-5l74 -1014l508 895q-5 77 -19 168q-14 19 -76 23q-56 4 -56 21q0 37 35 37q33 0 98.5 -2t98.5 -2q35 0 106 2t107 2q28 0 28 -20q0 -35 -44 -37q-133 -8 -133 -50v-14l71 -1023l536 939q28 49 28 73q0 54 -64 68.5t-64 26.5
q0 37 34 37q31 0 93 -2t93 -2q23 0 69.5 2t70.5 2q22 0 22 -22z" />
  </g>

</svg>
