<?xml version="1.0" standalone="no"?>
<!DOCTYPE svg PUBLIC "-//W3C//DTD SVG 1.1//EN" "http://www.w3.org/Graphics/SVG/1.1/DTD/svg11.dtd" >
<svg viewBox="0 -442 2048 2048">
  <g transform="matrix(1 0 0 -1 0 1606)">
   <path fill="currentColor"
d="M1430 1050q0 -181 -186 -310q-167 -115 -357 -115h-330l-126 -500q-4 -16 -4 -35q0 -32 83.5 -33t83.5 -20q0 -37 -37 -37q-19 0 -55.5 2t-55.5 2h-239q-19 0 -55.5 -2t-54.5 -2q-30 0 -30 22q0 32 48 37q36 1 72 1q58 2 77 30q11 15 21 56l264 1057q8 31 8 45
q0 29 -46 35q-5 1 -69 1q-52 0 -52 22q0 37 46 37h616q151 0 256 -69q122 -81 122 -224zM1264 1092q0 194 -269 194h-194q-55 0 -72.5 -12t-30.5 -65l-133 -538h277q296 0 390 254q32 85 32 167z" />
  </g>

</svg>
