<?xml version="1.0" standalone="no"?>
<!DOCTYPE svg PUBLIC "-//W3C//DTD SVG 1.1//EN" "http://www.w3.org/Graphics/SVG/1.1/DTD/svg11.dtd" >
<svg viewBox="0 -442 2048 2048">
  <g transform="matrix(1 0 0 -1 0 1606)">
   <path fill="currentColor"
d="M1030 943q0 -2 -1 -5l-304 -1226q-7 -28 -7 -41q0 -26 79 -29.5t79 -24.5q0 -42 -39 -42q-17 0 -51 2.5t-51 2.5h-223q-17 0 -49.5 -2.5t-49.5 -2.5q-29 0 -29 21q0 33 30 41q9 2 56 2q88 0 114 67q30 78 58 200q22 102 45 204l-2 3q-124 -137 -258 -137q-132 0 -208 108
q-67 96 -67 234q0 126 48 244q64 156 180 267q137 130 285 130q137 0 201 -157q21 36 66 89q55 65 77 65q21 0 21 -13zM837 719q0 21 -16 64q-49 132 -156 132q-222 0 -334 -455q-37 -150 -37 -232q0 -209 139 -209q86 0 178 77q89 76 110 161l107 427q9 36 9 35z" />
  </g>

</svg>
