<?xml version="1.0" standalone="no"?>
<!DOCTYPE svg PUBLIC "-//W3C//DTD SVG 1.1//EN" "http://www.w3.org/Graphics/SVG/1.1/DTD/svg11.dtd" >
<svg viewBox="0 -442 2048 2048">
  <g transform="matrix(1 0 0 -1 0 1606)">
   <path fill="currentColor"
d="M976 236q0 -18 -43 -65q-180 -195 -441 -195q-155 0 -249 104q-91 100 -91 257q0 227 170 421q177 201 401 201q96 0 167 -44q84 -52 84 -142q0 -52 -29 -90q-31 -41 -82 -41q-74 0 -74 71q0 51 41 80q36 25 89 25q-44 97 -193 97q-91 0 -183 -70q-139 -106 -208 -362
q-37 -137 -37 -223q0 -102 48 -167q53 -74 151 -74q213 0 358 141q25 28 51 55q41 45 49 45q21 0 21 -24z" />
  </g>

</svg>
