<?xml version="1.0" standalone="no"?>
<!DOCTYPE svg PUBLIC "-//W3C//DTD SVG 1.1//EN" "http://www.w3.org/Graphics/SVG/1.1/DTD/svg11.dtd" >
<svg viewBox="0 -442 2048 2048">
  <g transform="matrix(1 0 0 -1 0 1606)">
   <path fill="currentColor"
d="M994 828q0 -47 -32 -82t-79 -35q-73 0 -73 69q0 89 104 109q-38 26 -98 26q-131 0 -241 -156q-38 -54 -52 -92q-4 -11 -59 -235q-25 -90 -69 -271q-7 -43 -31 -126q-25 -59 -79 -59q-56 0 -56 54q0 25 38 170q14 59 44 178q31 109 63 218q36 133 36 220q0 99 -68 99
q-93 0 -161 -257q-14 -53 -33 -53q-25 0 -25 21q0 28 28 110q35 104 65 147q52 76 132 76q76 0 127.5 -48t62.5 -124q118 172 280 172q66 0 117 -32q59 -37 59 -99z" />
  </g>

</svg>
