<?xml version="1.0" standalone="no"?>
<!DOCTYPE svg PUBLIC "-//W3C//DTD SVG 1.1//EN" "http://www.w3.org/Graphics/SVG/1.1/DTD/svg11.dtd" >
<svg viewBox="0 -442 2048 2048">
  <g transform="matrix(1 0 0 -1 0 1606)">
   <path fill="currentColor"
d="M642 1489q0 -9 -6 -33l-308 -1220q-15 -59 -15 -116q0 -101 67 -101q94 0 164 266q12 44 31 44q21 0 21 -20q0 -31 -25 -109q-72 -224 -197 -224q-83 0 -137 56t-54 140q0 37 10 77l270 1080q12 48 12 52q0 36 -78 40.5t-78 24.5q0 26 22 39q7 4 130 15q119 11 145 11
t26 -22z" />
  </g>

</svg>
