<?xml version="1.0" standalone="no"?>
<!DOCTYPE svg PUBLIC "-//W3C//DTD SVG 1.1//EN" "http://www.w3.org/Graphics/SVG/1.1/DTD/svg11.dtd" >
<svg viewBox="0 -442 2048 2048">
  <g transform="matrix(1 0 0 -1 0 1606)">
   <path fill="currentColor"
d="M1168 1489q0 -9 -6 -33l-308 -1220q-14 -55 -14 -116q0 -101 67 -101q93 0 164 266q12 44 29 44q22 0 22 -20q0 -25 -26 -108q-32 -102 -64 -149q-52 -76 -133 -76q-74 0 -125.5 45.5t-63.5 119.5q-139 -165 -283 -165q-132 0 -208 108q-67 96 -67 234q0 126 48 244
q63 156 180 267q137 130 285 130q134 0 196 -143l133 529q7 28 7 36q0 37 -78.5 41t-78.5 24q0 25 21 39q3 2 131.5 14t146.5 12q25 0 25 -22zM837 719q0 21 -16 64q-49 132 -156 132q-222 0 -334 -455q-37 -150 -37 -232q0 -209 139 -209q87 0 178 77q88 75 110 161
l107 427q9 36 9 35z" />
  </g>

</svg>
