<?xml version="1.0" standalone="no"?>
<!DOCTYPE svg PUBLIC "-//W3C//DTD SVG 1.1//EN" "http://www.w3.org/Graphics/SVG/1.1/DTD/svg11.dtd" >
<svg viewBox="0 -442 2048 2048">
  <g transform="matrix(1 0 0 -1 0 1606)">
   <path fill="currentColor"
d="M1113 830q0 -48 -31.5 -83.5t-79.5 -35.5q-72 0 -72 69q0 97 111 109q-28 26 -78 26q-82 0 -173 -72q-48 -38 -137 -136q-111 -122 -187 -168q316 -41 316 -235q0 -31 -13 -90t-13 -90q0 -105 71 -105q113 0 188 266q12 44 31 44q22 0 22 -20q0 -28 -29 -106
q-84 -227 -215 -227q-88 0 -142 60.5t-54 149.5q0 20 8.5 58.5t8.5 58.5q0 167 -251 195q-33 -136 -102 -407q-31 -115 -93 -115q-57 0 -57 57q0 22 7 50l313 1246q9 36 9 52q0 36 -76.5 41t-76.5 24q0 23 21 39q3 2 130 14t145 12q27 0 27 -22q0 3 -9 -33l-222 -896
q83 31 184 138q153 162 169 175q100 86 202 86q60 0 102 -34q46 -37 46 -95z" />
  </g>

</svg>
