<?xml version="1.0" standalone="no"?>
<!DOCTYPE svg PUBLIC "-//W3C//DTD SVG 1.1//EN" "http://www.w3.org/Graphics/SVG/1.1/DTD/svg11.dtd" >
<svg viewBox="-13 -442 2048 2048">
  <g transform="matrix(1 0 0 -1 0 1606)">
   <path fill="currentColor"
d="M1095 616q0 -126 -47 -242q-64 -156 -180 -268q-136 -130 -285 -130q-138 0 -196 146l-85 -332q-27 -104 -27 -119q0 -26 79.5 -30.5t79.5 -27.5q0 -38 -58 -38q-46 0 -138.5 2.5t-138.5 2.5q-14 0 -43.5 -2.5t-43.5 -2.5q-25 0 -25 21q0 38 50 42q67 6 76 13
q21 16 34 69l245 982q17 68 17 114q0 99 -68 99q-93 0 -161 -257q-14 -53 -33 -53q-24 0 -24 21q0 26 28 110q35 104 64 147q52 76 132 76q74 0 126.5 -46.5t64.5 -119.5q130 166 281 166q132 0 208 -109q68 -96 68 -234zM954 707q0 208 -139 208q-80 0 -176 -79.5
t-115 -157.5l-106 -427q-6 -24 -6 -36q0 -27 11 -60q45 -136 160 -136q216 0 332 451q39 152 39 237z" />
  </g>

</svg>
