<?xml version="1.0" standalone="no"?>
<!DOCTYPE svg PUBLIC "-//W3C//DTD SVG 1.1//EN" "http://www.w3.org/Graphics/SVG/1.1/DTD/svg11.dtd" >
<svg viewBox="0 -442 2048 2048">
  <g transform="matrix(1 0 0 -1 0 1606)">
   <path fill="currentColor"
d="M966 236q0 -17 -46 -67q-179 -193 -439 -193q-157 0 -247 118q-82 107 -82 269q0 178 91.5 323.5t252.5 221.5q107 51 214 51q90 0 154 -46q73 -51 73 -137q0 -183 -230 -243q-118 -30 -377 -30q-34 -147 -34 -224q0 -260 191 -260q221 0 365 148q90 93 92 93
q22 0 22 -24zM872 776q0 66 -49 104q-45 35 -113 35q-139 0 -243 -119q-85 -98 -128 -249h110q423 0 423 229z" />
  </g>

</svg>
