<?xml version="1.0" standalone="no"?>
<!DOCTYPE svg PUBLIC "-//W3C//DTD SVG 1.1//EN" "http://www.w3.org/Graphics/SVG/1.1/DTD/svg11.dtd" >
<svg viewBox="0 -442 2048 2048">
  <g transform="matrix(1 0 0 -1 0 1606)">
   <path fill="currentColor"
d="M1007 863q0 -7 -7 -35l-240 -971q-14 -55 -56 -113q-137 -186 -399 -186q-275 0 -275 124q0 47 31 81t78 34q74 0 74 -69q0 -80 -88 -104q73 -23 175 -23q100 0 182 57q79 55 120 148q29 65 51 161l36 166q-123 -136 -257 -136q-133 0 -209 106q-68 94 -68 232
q0 124 48 241q62 150 179 259q136 124 281 124q135 0 198 -143q8 102 90 102q56 0 56 -55zM836 723q0 17 -14 56q-49 136 -159 136q-220 0 -329 -434q-37 -148 -37 -232q0 -209 139 -209q77 0 174 79.5t116 155.5l102 417q8 33 8 31z" />
  </g>

</svg>
