<?xml version="1.0" standalone="no"?>
<!DOCTYPE svg PUBLIC "-//W3C//DTD SVG 1.1//EN" "http://www.w3.org/Graphics/SVG/1.1/DTD/svg11.dtd" >
<svg viewBox="-218 -442 2048 2048">
  <g transform="matrix(1 0 0 -1 0 1606)">
   <path fill="currentColor"
d="M860 1391q0 -48 -31 -84t-78 -36q-74 0 -74 70q0 94 112 108q-47 40 -115 40q-78 0 -113 -103q-12 -35 -35 -157l-55 -291h193q39 0 39 -23q0 -42 -48 -42h-198q-8 -55 -70 -378q-27 -143 -86 -429q-115 -508 -338 -508q-70 0 -122 35q-59 40 -59 106q0 47 31.5 83.5
t78.5 36.5q73 0 73 -70q0 -44 -34 -75q-31 -27 -77 -32q41 -41 109 -41q80 0 130 139q18 49 49 210l178 923h-160q-37 0 -37 25q0 40 49 40h162q50 289 81 371q84 223 258 223q72 0 125 -34q62 -39 62 -107z" />
  </g>

</svg>
