<?xml version="1.0" standalone="no"?>
<!DOCTYPE svg PUBLIC "-//W3C//DTD SVG 1.1//EN" "http://www.w3.org/Graphics/SVG/1.1/DTD/svg11.dtd" >
<svg viewBox="-146 -442 2048 2048">
  <g transform="matrix(1 0 0 -1 0 1606)">
   <path fill="currentColor"
d="M735 1358q0 -41 -33.5 -73t-74.5 -32q-74 0 -74 72q0 41 34 73t75 32q73 0 73 -72zM654 763q0 -39 -9 -75l-202 -802q-35 -138 -147 -232q-116 -96 -256 -96q-71 0 -122 27q-64 35 -64 99q0 46 32 79.5t78 33.5q74 0 74 -69q0 -84 -94 -104q45 -23 96 -23q99 0 174 95
q61 77 89 188l207 818q15 59 15 114q0 99 -69 99q-89 0 -161 -80q-43 -49 -95 -150q-41 -80 -54 -80q-23 0 -23 21q0 14 30 74q128 259 309 259q83 0 137.5 -56t54.5 -140z" />
  </g>

</svg>
