<?xml version="1.0" standalone="no"?>
<!DOCTYPE svg PUBLIC "-//W3C//DTD SVG 1.1//EN" "http://www.w3.org/Graphics/SVG/1.1/DTD/svg11.dtd" >
<svg viewBox="0 -442 2048 2048">
  <g transform="matrix(1 0 0 -1 0 1606)">
   <path fill="currentColor"
d="M1276 309q0 -19 -26 -87q-94 -246 -254 -246q-76 0 -124.5 49.5t-48.5 125.5q0 38 30 120q134 368 134 492q0 152 -116 152q-163 0 -297 -177q-46 -61 -60 -101q-8 -22 -43 -166q-27 -107 -78 -320q-8 -47 -34 -129q-25 -46 -74 -46q-56 0 -56 54q0 26 38 170
q14 59 44 178q31 109 63 218q36 133 36 220q0 99 -68 99q-90 0 -161 -257q-15 -53 -33 -53q-25 0 -25 21q0 27 28 109q35 102 66 147q52 77 131 77q82 0 136 -56q51 -53 56 -136q137 192 336 192q111 0 175 -58q67 -61 67 -171q0 -117 -136 -489q-37 -101 -37 -150
q0 -72 58 -72q86 0 146 95q33 53 72 171q14 44 31 44q24 0 24 -20z" />
  </g>

</svg>
