<?xml version="1.0" standalone="no"?>
<!DOCTYPE svg PUBLIC "-//W3C//DTD SVG 1.1//EN" "http://www.w3.org/Graphics/SVG/1.1/DTD/svg11.dtd" >
<svg viewBox="0 -442 2048 2048">
  <g transform="matrix(1 0 0 -1 0 1606)">
   <path fill="currentColor"
d="M1759 1303q0 -46 -20 -56q-10 -5 -63 -5q-64 0 -111 -6l-238 -1132q120 0 145.5 -4.5t25.5 -39.5q0 -16 -9 -36q-11 -24 -25 -24q-52 0 -154.5 3t-154.5 3q-46 0 -138 -3t-138 -3q-26 0 -26 39q0 45 22 56q10 5 61 6q37 0 111 5l114 542h-505l-115 -544q121 0 144 -4
q27 -5 27 -40q0 -16 -9 -36q-10 -24 -25 -24q-49 0 -149 3t-150 3q-48 0 -143 -3t-142 -3q-27 0 -27 39q0 45 22 56q10 5 61 6q37 0 110 5l241 1132q-129 0 -144 4q-27 8 -27 39q0 62 48 62q47 0 141.5 -3t142.5 -3q47 0 142.5 3t143.5 3q25 0 25 -40q0 -46 -19 -56
q-10 -5 -63 -5q-64 0 -111 -6l-104 -489h506l104 491q-128 0 -143 4q-27 8 -27 39q0 62 33 62q47 0 139.5 -3t139.5 -3q51 0 153 3t153 3q25 0 25 -40z" />
  </g>

</svg>
