<?xml version="1.0" standalone="no"?>
<!DOCTYPE svg PUBLIC "-//W3C//DTD SVG 1.1//EN" "http://www.w3.org/Graphics/SVG/1.1/DTD/svg11.dtd" >
<svg viewBox="0 -442 2048 2048">
  <g transform="matrix(1 0 0 -1 0 1606)">
   <path fill="currentColor"
d="M969 942q0 -31 -99 -151t-310 -311q-228 -205 -318 -306q26 9 67 9q48 0 137 -35t137 -35q86 0 158 50q62 43 104 131q14 30 27 30q23 0 23 -21q0 -28 -31 -90q-118 -237 -305 -237q-63 0 -138 81.5t-122 81.5q-57 0 -107 -42q-30 -26 -69 -79q-30 -42 -39 -42
q-24 0 -24 17q0 29 92 141q113 138 381 375q163 144 248 245q-16 -2 -35 -2q-48 0 -137.5 34.5t-137.5 34.5q-120 0 -182 -102q-15 -25 -25 -25q-24 0 -24 21t25 70q89 174 231 174q61 0 135 -82t121 -82q58 0 125 82t69 82q23 0 23 -17z" />
  </g>

</svg>
