<?xml version="1.0" standalone="no"?>
<!DOCTYPE svg PUBLIC "-//W3C//DTD SVG 1.1//EN" "http://www.w3.org/Graphics/SVG/1.1/DTD/svg11.dtd" >
<svg viewBox="0 -442 2048 2048">
  <g transform="matrix(1 0 0 -1 0 1606)">
   <path fill="currentColor"
d="M1061 813q0 -83 -34 -225q-146 -612 -452 -612q-281 0 -281 265q0 126 104 400q58 153 58 202q0 72 -58 72q-89 0 -148 -96q-29 -47 -72 -175q-13 -39 -30 -39q-25 0 -25 21q0 19 27 88q97 245 254 245q75 0 124 -50t49 -124q0 -42 -43 -155q-109 -287 -109 -418
q0 -193 158 -193q228 0 360 439q33 110 33 162q0 72 -51 156t-51 87q0 37 31 66.5t68 29.5q88 0 88 -146z" />
  </g>

</svg>
