<?xml version="1.0" standalone="no"?>
<!DOCTYPE svg PUBLIC "-//W3C//DTD SVG 1.1//EN" "http://www.w3.org/Graphics/SVG/1.1/DTD/svg11.dtd" >
<svg viewBox="0 -442 2048 2048">
  <g transform="matrix(1 0 0 -1 0 1606)">
   <path fill="currentColor"
d="M1215 309q0 -30 -24 -106q-33 -103 -64 -150q-52 -77 -133 -77q-148 0 -186 148q-122 -148 -259 -148q-122 0 -189.5 67.5t-67.5 189.5q0 125 106 408q58 155 58 202q0 72 -58 72q-89 0 -148 -96q-32 -52 -72 -175q-13 -39 -30 -39q-25 0 -25 21q0 20 27 89
q96 244 254 244q75 0 124 -50t49 -124q0 -45 -37 -143q-118 -313 -118 -444q0 -179 135 -179q121 0 218 132q11 15 29 47q1 2 15 60l140 570q27 110 91 110q59 0 59 -56q0 -8 -15 -64q-29 -119 -89 -356q-24 -85 -47 -169q-26 -99 -26 -173q0 -101 66 -101q89 0 166 266
q13 44 31 44q20 0 20 -20z" />
  </g>

</svg>
