<?xml version="1.0" standalone="no"?>
<!DOCTYPE svg PUBLIC "-//W3C//DTD SVG 1.1//EN" "http://www.w3.org/Graphics/SVG/1.1/DTD/svg11.dtd" >
<svg viewBox="0 -442 2048 2048">
  <g transform="matrix(1 0 0 -1 0 1606)">
   <path fill="currentColor"
d="M1597 1347l-104 -499q-4 -19 -41 -20h6h-55q-22 4 -22 39q0 11 1.5 32t1.5 31q0 139 -64 235q-74 111 -206 111q-445 0 -582 -563q-42 -171 -42 -296q0 -170 94.5 -260t265.5 -90q131 0 248 84q110 80 169 203q12 41 40 120q6 15 83 15q20 0 20 -27q0 -24 -26 -94
q-23 -64 -40 -95q-83 -152 -238 -232q-145 -75 -327 -75q-254 0 -407 136q-160 141 -160 393q0 181 73 359q103 248 306 385t473 137q204 0 315 -140q66 63 159 140h38q21 0 21 -23q1 -6 0 -6z" />
  </g>

</svg>
