<?xml version="1.0" standalone="no"?>
<!DOCTYPE svg PUBLIC "-//W3C//DTD SVG 1.1//EN" "http://www.w3.org/Graphics/SVG/1.1/DTD/svg11.dtd" >
<svg viewBox="0 -442 2048 2048">
  <g transform="matrix(1 0 0 -1 0 1606)">
   <path fill="currentColor"
d="M1112 826q0 -46 -33.5 -80.5t-79.5 -34.5q-71 0 -71 69q0 89 95 107q-48 28 -110 28q-141 0 -208 -227q-119 -406 -119 -523q0 -146 117 -146q100 0 170 80q42 47 89 150q36 80 54 80q21 0 21 -20q0 -27 -30 -89q-117 -244 -310 -244q-176 0 -225 171q-86 -171 -225 -171
q-74 0 -128 29q-68 35 -68 103q0 46 32 81t78 35q73 0 73 -70q0 -86 -95 -106q49 -29 111 -29q146 0 211 250l75 300q39 153 39 202q0 144 -118 144q-156 0 -240 -179q-13 -37 -44 -108q-12 -23 -26 -23q-24 0 -24 21q0 26 30 88q119 245 310 245q171 0 225 -172
q81 172 227 172q74 0 129 -30q68 -36 68 -103z" />
  </g>

</svg>
