<?xml version="1.0" standalone="no"?>
<!DOCTYPE svg PUBLIC "-//W3C//DTD SVG 1.1//EN" "http://www.w3.org/Graphics/SVG/1.1/DTD/svg11.dtd" >
<svg viewBox="0 -442 2048 2048">
  <g transform="matrix(1 0 0 -1 0 1606)">
   <path fill="currentColor"
d="M942 773q0 -45 -23 -78q-25 -37 -69 -37q-62 0 -62 59q0 38 33 62q30 23 69 23q-32 113 -203 113q-168 0 -228 -128q-20 -43 -20 -72q0 -68 76 -105q30 -15 160 -50q104 -28 142 -64q71 -68 71 -163q0 -65 -36 -138q-108 -219 -394 -219q-117 0 -201 46q-105 56 -105 163
q0 55 28 93q30 42 83 42q75 0 75 -69q0 -52 -39.5 -81.5t-91.5 -24.5q45 -126 253 -126q209 0 287 151q26 51 26 93q0 87 -79 128q-32 15 -155 44q-213 49 -213 209q0 55 29 118q91 197 334 197q98 0 169 -43q84 -51 84 -143z" />
  </g>

</svg>
