<?xml version="1.0" standalone="no"?>
<!DOCTYPE svg PUBLIC "-//W3C//DTD SVG 1.1//EN" "http://www.w3.org/Graphics/SVG/1.1/DTD/svg11.dtd" >
<svg viewBox="0 -442 2048 2048">
  <g transform="matrix(1 0 0 -1 0 1606)">
   <path fill="currentColor"
d="M1380 1303l-34 -408q-2 -26 -35 -31q-3 -1 -53 -1q-25 0 -25 39q0 21 3 62.5t3 62.5q0 131 -68 177q-55 38 -192 38h-147q-34 0 -50 -4l-111 -516h42q89 0 130 22q53 29 75 110q6 29 13 58q12 39 31 39h60q26 0 26 -34q0 -2 -105 -500q-4 -20 -36 -24h2h-14q-11 0 -37 1
t-26 39q0 18 7.5 53.5t7.5 53.5q0 61 -75 77q-26 6 -121 6l-110 -519q24 -2 135 -3q24 0 54 -1q27 -7 27 -40q0 -16 -9 -36q-11 -24 -25 -24q-57 0 -172 3t-172 3q-48 0 -143 -3t-142 -3q-27 0 -27 39q0 47 24 57q10 4 65 5q35 0 104 5l241 1132q-130 0 -144 4q-27 8 -27 39
q0 62 33 62h991q10 0 18.5 -14.5t7.5 -25.5z" />
  </g>

</svg>
