<?xml version="1.0" standalone="no"?>
<!DOCTYPE svg PUBLIC "-//W3C//DTD SVG 1.1//EN" "http://www.w3.org/Graphics/SVG/1.1/DTD/svg11.dtd" >
<svg viewBox="0 -442 2048 2048">
  <g transform="matrix(1 0 0 -1 0 1606)">
   <path fill="currentColor"
d="M1407 1303l-35 -408q-2 -27 -35 -32h-54q-27 0 -27 44q0 19 3.5 57t3.5 57q0 135 -69 183q-55 38 -197 38h-167q-31 0 -48 -4l-106 -491h44q90 0 133 22q56 29 78 110q6 29 13 58q11 40 30 40h62q28 0 28 -35q0 -2 -105 -500q-5 -24 -49 -24q-51 0 -58 11t-7 29l6 30
q9 45 9 78q0 62 -79 77q-25 5 -125 5l-116 -546q20 -2 42 -2h152q186 0 285 70q93 66 167 241q14 37 43 110q10 23 25 23h62q27 0 27 -35q0 -18 -178 -485q-9 -24 -25 -24h-1046q-27 0 -27 39q0 47 24 57q10 4 65 5q35 0 104 5l241 1132q-40 4 -144 4q-27 0 -27 39
q0 62 33 62h1017q11 0 19.5 -14.5t7.5 -25.5z" />
  </g>

</svg>
