<?xml version="1.0" standalone="no"?>
<!DOCTYPE svg PUBLIC "-//W3C//DTD SVG 1.1//EN" "http://www.w3.org/Graphics/SVG/1.1/DTD/svg11.dtd" >
<svg viewBox="0 -442 2048 2048">
  <g transform="matrix(1 0 0 -1 0 1606)">
   <path fill="currentColor"
d="M1586 1353q0 -2 -1 -6l-103 -499q-4 -19 -20 -19h-82q-20 0 -20 32q0 12 1.5 35t1.5 34q0 139 -54 232q-67 114 -197 114q-441 0 -579 -562q-41 -166 -41 -294q0 -173 98 -264q95 -89 269 -89q86 0 153 42q75 47 92 126l41 202q-33 0 -100.5 2t-101.5 2q-25 0 -25 39
q0 60 32 60q56 0 168 -3t168 -3q40 0 119 3t119 3q25 0 25 -39q0 -56 -40 -61q-36 -1 -106 -3q-20 -89 -61 -289q-8 -45 -27 -131q-5 -17 -21 -17q-27 0 -85 37q-54 35 -74 61q-115 -132 -358 -132q-254 0 -406 136q-159 141 -159 393q0 183 74 361.5t205 301.5
q231 218 571 218q202 0 315 -140q66 63 159 140h29q21 0 21 -23z" />
  </g>

</svg>
