<?xml version="1.0" standalone="no"?>
<!DOCTYPE svg PUBLIC "-//W3C//DTD SVG 1.1//EN" "http://www.w3.org/Graphics/SVG/1.1/DTD/svg11.dtd" >
<svg viewBox="0 -442 2048 2048">
  <g transform="matrix(1 0 0 -1 0 1606)">
   <path fill="currentColor"
d="M1107 882q0 -9 -7 -37l-213 -850q-44 -175 -180 -301q-145 -136 -318 -136q-90 0 -152 47q-68 52 -68 140q0 54 30.5 93.5t82.5 39.5q73 0 73 -67q0 -42 -33 -75t-75 -33q-10 0 -21 3q33 -105 163 -105q261 0 381 473l-3 2q-95 -100 -218 -100q-122 0 -189.5 66
t-67.5 188q0 131 106 411q58 153 58 202q0 72 -58 72q-89 0 -148 -96q-29 -48 -72 -175q-13 -39 -30 -39q-25 0 -25 21q0 20 27 89q96 244 254 244q75 0 124 -50t49 -124q0 -40 -37 -139q-118 -316 -118 -448q0 -179 133 -179q84 0 156 60t93 143l162 641q19 75 82 75
q59 0 59 -56z" />
  </g>

</svg>
