<?xml version="1.0" standalone="no"?>
<!DOCTYPE svg PUBLIC "-//W3C//DTD SVG 1.1//EN" "http://www.w3.org/Graphics/SVG/1.1/DTD/svg11.dtd" >
<svg viewBox="0 -442 2048 2048">
  <g transform="matrix(1 0 0 -1 0 1606)">
   <path fill="currentColor"
d="M1738 1303q0 -55 -31 -61q-46 -2 -91 -5q-71 -5 -75 -24l-252 -1189q-5 -24 -25 -24h-83q-14 0 -22 15l-577 1152l-224 -1049q30 -12 72 -14q62 -3 71 -4q27 -4 27 -40q0 -16 -9 -36q-11 -24 -25 -24q-35 0 -103.5 3t-103.5 3q-32 0 -96.5 -3t-96.5 -3q-27 0 -27 39
q0 55 34 61q45 2 91 4q69 5 73 25l236 1111q-130 0 -144 2q-27 4 -27 39q0 62 33 62h392q44 0 52 -16l466 -926l174 824q-29 12 -70 14q-36 2 -71 3q-26 3 -26 39q0 62 42 62q33 0 98 -3t98 -3q32 0 97 3t98 3q25 0 25 -40z" />
  </g>

</svg>
