<?xml version="1.0" standalone="no"?>
<!DOCTYPE svg PUBLIC "-//W3C//DTD SVG 1.1//EN" "http://www.w3.org/Graphics/SVG/1.1/DTD/svg11.dtd" >
<svg viewBox="0 -442 2048 2048">
  <g transform="matrix(1 0 0 -1 0 1606)">
   <path fill="currentColor"
d="M2009 1303q0 -45 -19 -55q-11 -6 -63 -6q-65 0 -110 -6l-240 -1132q35 -4 145 -4q27 0 27 -40q0 -16 -9 -36q-11 -24 -25 -24q-44 0 -131 3t-131 3q-42 0 -126.5 -3t-126.5 -3q-26 0 -26 39q0 45 22 56q10 5 61 6q37 0 111 5l239 1136l-714 -1207q-21 -35 -63 -35
q-32 0 -38 35l-200 1182l-234 -1099q32 -13 73 -14q60 -3 70 -4q27 -4 27 -40q0 -16 -9 -36q-11 -24 -25 -24q-35 0 -103.5 3t-103.5 3q-32 0 -96.5 -3t-96.5 -3q-27 0 -27 39q0 55 34 61q45 2 91 4q69 5 73 25l236 1109q-40 4 -145 4q-26 0 -26 39q0 62 33 62h374
q34 0 40 -36l177 -1046l617 1046q22 36 55 36h358q25 0 25 -40z" />
  </g>

</svg>
