<?xml version="1.0" standalone="no"?>
<!DOCTYPE svg PUBLIC "-//W3C//DTD SVG 1.1//EN" "http://www.w3.org/Graphics/SVG/1.1/DTD/svg11.dtd" >
<svg viewBox="0 -442 2048 2048">
  <g transform="matrix(1 0 0 -1 0 1606)">
   <path fill="currentColor"
d="M1512 862q0 -273 -135 -502q-140 -237 -382 -349q45 -106 109 -106q76 0 114 42q15 17 42 78q19 42 47 42q51 0 51 -50q0 -116 -98 -251q-106 -145 -220 -145q-118 0 -150 130q-13 54 -13 223q-81 -15 -165 -15q-236 0 -369 134.5t-133 371.5q0 359 216 626
q231 285 583 285q237 0 370 -138t133 -376zM1243 976q0 135 -57 218q-66 96 -195 96q-166 0 -297 -154q-90 -106 -157 -365q-59 -227 -59 -400q0 -176 102 -275q0 85 56 148t140 63q112 0 178 -178q133 107 217 391q72 243 72 456zM875 84q0 145 -100 145q-49 0 -88.5 -34.5
t-39.5 -82.5q0 -59 83 -59q68 0 145 31z" />
  </g>

</svg>
