<?xml version="1.0" standalone="no"?>
<!DOCTYPE svg PUBLIC "-//W3C//DTD SVG 1.1//EN" "http://www.w3.org/Graphics/SVG/1.1/DTD/svg11.dtd" >
<svg viewBox="0 -442 2363 2048">
  <g transform="matrix(1 0 0 -1 0 1606)">
   <path fill="currentColor"
d="M2363 1303q0 -61 -50 -61q-107 0 -132 -47l-635 -1193q-16 -30 -53 -35q-6 -1 -68 -1q-30 0 -34 36l-100 900l-478 -900q-16 -30 -53 -35q-5 -1 -68 -1q-30 0 -33 36l-136 1236q-79 0 -111 4q-27 4 -27 39q0 17 9 37q11 25 25 25q41 0 123 -3t122 -3q48 0 144 3t144 3
q27 0 27 -40q0 -44 -19 -54q-12 -7 -61 -7q-59 0 -92 -7l99 -889l370 698l-21 194h-20q-62 0 -90 4t-28 39q0 62 33 62q41 0 123 -3t123 -3q48 0 144 3t144 3q27 0 27 -40q0 -44 -19 -54q-11 -7 -61 -7q-58 0 -90 -7l97 -889l466 879q-46 17 -130 17q-26 0 -26 39
q0 62 43 62q35 0 105 -3t105 -3q23 0 68 3t68 3q26 0 26 -40z" />
  </g>

</svg>
