<?xml version="1.0" standalone="no"?>
<!DOCTYPE svg PUBLIC "-//W3C//DTD SVG 1.1//EN" "http://www.w3.org/Graphics/SVG/1.1/DTD/svg11.dtd" >
<svg viewBox="0 -442 2048 2048">
  <g transform="matrix(1 0 0 -1 0 1606)">
   <path fill="currentColor"
d="M1755 1303q0 -54 -32 -61q-46 -2 -91 -5q-70 -4 -75 -24l-165 -776q-44 -205 -199 -337q-158 -134 -366 -134q-197 0 -321 91q-141 102 -141 292q0 61 9 103l168 786q-126 0 -144 4q-26 6 -26 39q0 62 33 62q46 0 138 -3t138 -3q52 0 154.5 3t154.5 3q25 0 25 -40
q0 -48 -23 -57q-9 -4 -68 -4t-103 -6l-167 -792q-23 -108 -23 -170q0 -207 223 -207q177 0 297 110q112 105 150 283l162 765q-20 8 -140 17q-27 2 -27 39q0 62 33 62q34 0 102 -3t103 -3q32 0 97.5 3t98.5 3q25 0 25 -40z" />
  </g>

</svg>
