<?xml version="1.0" standalone="no"?>
<!DOCTYPE svg PUBLIC "-//W3C//DTD SVG 1.1//EN" "http://www.w3.org/Graphics/SVG/1.1/DTD/svg11.dtd" >
<svg viewBox="0 -442 2048 2048">
  <g transform="matrix(1 0 0 -1 0 1606)">
   <path fill="currentColor"
d="M1219 1353q0 -1 -92 -439q-3 -17 -33 -19h10h-54q-23 5 -23 39q0 11 2 34t2 35q0 280 -260 280q-108 0 -185 -75.5t-77 -183.5q0 -122 111 -153l234 -63q100 -27 156 -123q51 -86 51 -196q0 -204 -139 -361q-144 -162 -345 -162q-229 0 -339 113l-106 -109l-11 -4h-38
q-22 0 -22 24q0 6 93 441q3 15 80 15q23 0 22 -29q0 1 -1 0q0 -4 -2 -12l-4 -23q-5 -29 -5 -63q0 -131 99 -197q84 -55 223 -55q114 0 192 90q75 87 75 203q0 135 -111 167q-108 28 -215 56q-122 41 -175 124.5t-53 187.5q0 98 42 195q125 286 436 286q192 0 284 -112
q51 54 119 112h39q20 -7 20 -23z" />
  </g>

</svg>
