<?xml version="1.0" standalone="no"?>
<!DOCTYPE svg PUBLIC "-//W3C//DTD SVG 1.1//EN" "http://www.w3.org/Graphics/SVG/1.1/DTD/svg11.dtd" >
<svg viewBox="0 -442 2048 2048">
  <g transform="matrix(1 0 0 -1 0 1606)">
   <path fill="currentColor"
d="M1443 1039q0 -105 -51 -199q-139 -257 -487 -257h-262l-102 -479q124 0 144 -4q27 -5 27 -40q0 -17 -8 -37q-11 -23 -26 -23q-49 0 -149 3t-150 3q-47 0 -142.5 -3t-142.5 -3q-27 0 -27 39q0 56 34 61l61 1q33 0 98 5l241 1132q-20 2 -105 2q-66 0 -66 41q0 17 9 37
q11 25 24 25h703q162 0 262 -69q115 -80 115 -235zM1161 1105q0 137 -188 137h-181q-14 0 -24 -1l-112 -571h185q141 0 205 60q56 53 89 194q26 111 26 181z" />
  </g>

</svg>
