<?xml version="1.0" standalone="no"?>
<!DOCTYPE svg PUBLIC "-//W3C//DTD SVG 1.1//EN" "http://www.w3.org/Graphics/SVG/1.1/DTD/svg11.dtd" >
<svg viewBox="0 -442 2048 2048">
  <g transform="matrix(1 0 0 -1 0 1606)">
   <path fill="currentColor"
d="M1620 1303q0 -41 -13.5 -51t-44.5 -10q-151 0 -195 -51l-357 -416l267 -669q50 -1 136 -6q26 -4 26 -40q0 -60 -33 -60q-44 0 -131.5 3t-131.5 3q-49 0 -147.5 -3t-147.5 -3q-25 0 -25 39q0 42 16 53q9 7 54 10t72 8l-179 448l-374 -440q31 -12 59 -14q49 -3 54 -4
q27 -4 27 -40q0 -16 -9 -36q-11 -24 -25 -24q-40 0 -120.5 3t-121.5 3q-30 0 -91.5 -3t-92.5 -3q-25 0 -25 39q0 56 31 61q15 0 45 1q113 3 166 43q5 1 12 7l427 503l-233 582q-42 5 -91 6q-15 -1 -45 0q-27 3 -27 39q0 17 9 37q11 25 25 25q44 0 131.5 -3t131.5 -3
q49 0 147.5 3t147.5 3q27 0 27 -40q0 -42 -16 -53q-11 -7 -54 -9q-37 -2 -73 -8l145 -364l302 356q-44 17 -112 17q-27 0 -27 39q0 62 33 62q41 0 121.5 -3t120.5 -3q31 0 92.5 3t91.5 3q25 0 25 -40z" />
  </g>

</svg>
