<?xml version="1.0" standalone="no"?>
<!DOCTYPE svg PUBLIC "-//W3C//DTD SVG 1.1//EN" "http://www.w3.org/Graphics/SVG/1.1/DTD/svg11.dtd" >
<svg viewBox="0 -442 2048 2048">
  <g transform="matrix(1 0 0 -1 0 1606)">
   <path fill="currentColor"
d="M1351 308q0 -5 -1 -9q-32 -123 -102 -212q-87 -111 -197 -111q-89 0 -156 51q-73 55 -73 141q0 34 12 75l80 250q44 148 44 258q0 122 -83 122q-129 0 -245 -181q-22 -34 -35 -61q-1 -3 -32 -149l-55 -263q-8 -45 -28 -133q-13 -47 -52.5 -78.5t-87.5 -31.5
q-44 0 -74.5 29.5t-30.5 73.5q0 8 3 22l127 607q12 57 12 92q0 73 -39 73q-62 0 -92 -111q-18 -73 -36 -147q-12 -21 -36 -21q-54 0 -54 31q0 94 73 209q80 125 168 125q85 0 153 -39q77 -43 94 -120q131 159 273 159q134 0 217 -56q98 -65 98 -192q0 -99 -43 -249
q-40 -121 -79 -243q-23 -72 -23 -118q0 -40 23 -40q115 0 166 187q5 30 19 73q12 19 42 19q50 0 50 -32z" />
  </g>

</svg>
