<?xml version="1.0" standalone="no"?>
<!DOCTYPE svg PUBLIC "-//W3C//DTD SVG 1.1//EN" "http://www.w3.org/Graphics/SVG/1.1/DTD/svg11.dtd" >
<svg viewBox="-71 -442 2048 2048">
  <g transform="matrix(1 0 0 -1 0 1606)">
   <path fill="currentColor"
d="M980 1320q0 -62 -35 -111q-39 -54 -98 -54q-40 0 -65.5 30t-25.5 71q0 94 74 142q-32 10 -61 10q-33 0 -59 -44l-66 -422h239q28 0 28 -44q0 -65 -33 -65h-249l-76 -503q-46 -306 -65 -376q-57 -219 -179 -325q-80 -70 -160 -70q-86 0 -149 43q-71 49 -71 131
q0 62 35 111q39 54 99 54q41 0 67 -29.5t26 -70.5q0 -97 -74 -142q26 -11 53 -11q55 0 87 130q8 30 30 177l132 881h-203q-29 0 -29 42q0 19 9 40q11 27 27 27h214q37 247 84 354q89 197 270 197q88 0 151 -42q73 -48 73 -131z" />
  </g>

</svg>
