<?xml version="1.0" standalone="no"?>
<!DOCTYPE svg PUBLIC "-//W3C//DTD SVG 1.1//EN" "http://www.w3.org/Graphics/SVG/1.1/DTD/svg11.dtd" >
<svg viewBox="0 -442 2048 2048">
  <g transform="matrix(1 0 0 -1 0 1606)">
   <path fill="currentColor"
d="M1235 308q0 -2 -2 -9q-32 -120 -93 -207q-81 -116 -181 -116q-101 0 -175 58q-79 63 -79 162q0 16 4.5 48t4.5 48q0 122 -183 156l-79 -362q-10 -44 -51 -77t-86 -33q-48 0 -77 32t-29 81q0 9 1 14l261 1230q0 4 1 12q-38 1 -77 3q-47 7 -47 44q0 19 9 41q11 26 27 27
l318 16q36 2 36 -36q0 -2 -1 -6l-180 -852q52 35 155 144q110 115 166 158q98 75 185 75q66 0 114 -56t48 -124q0 -74 -30 -127q-37 -66 -105 -66q-41 0 -72 30.5t-31 71.5q0 59 35.5 107.5t92.5 50.5q-13 27 -41 27q-89 0 -244 -134q-17 -14 -214 -206q122 0 222 -54
q121 -65 121 -177q0 -27 -8.5 -81.5t-8.5 -81.5q0 -78 40 -78q99 0 139 200q4 24 14 60q11 19 57 19q43 0 43 -32z" />
  </g>

</svg>
