<?xml version="1.0" standalone="no"?>
<!DOCTYPE svg PUBLIC "-//W3C//DTD SVG 1.1//EN" "http://www.w3.org/Graphics/SVG/1.1/DTD/svg11.dtd" >
<svg viewBox="0 -442 2048 2048">
  <g transform="matrix(1 0 0 -1 0 1606)">
   <path fill="currentColor"
d="M1207 308q0 -4 -2 -12q-79 -320 -251 -320q-167 0 -231 112q-112 -112 -247 -112q-156 0 -242 100q-82 94 -82 252q0 241 137 427q151 204 383 204q99 0 172 -73q34 153 97 459h-44q-81 0 -81 47q0 18 10.5 42.5t26.5 25.5l317 16q36 2 36 -36q0 -2 -1 -6l-256 -1217
q-9 -43 -9 -84q0 -72 38 -72q85 0 117 202q2 24 11 58q11 19 55 19q46 0 46 -32zM817 767q-37 106 -133 106q-108 0 -177 -152q-36 -80 -71 -246q-37 -174 -37 -272q0 -142 100 -142q111 0 203 132q1 17 4 34z" />
  </g>

</svg>
