<?xml version="1.0" standalone="no"?>
<!DOCTYPE svg PUBLIC "-//W3C//DTD SVG 1.1//EN" "http://www.w3.org/Graphics/SVG/1.1/DTD/svg11.dtd" >
<svg viewBox="0 -442 2048 2048">
  <g transform="matrix(1 0 0 -1 0 1606)">
   <path fill="currentColor"
d="M1806 1303q0 -61 -51 -61q-127 0 -168 -51l-517 -655l-91 -432q33 -4 143 -4q27 0 27 -40q0 -60 -33 -60q-49 0 -147 3t-147 3q-47 0 -140.5 -3t-140.5 -3q-26 0 -26 39q0 46 22 56q10 5 62 6q37 0 111 5l91 430l-256 700q-42 5 -89 6q-15 -1 -44 0q-27 3 -27 39
q0 62 45 62q42 0 127 -3t127 -3q50 0 150 3t150 3q26 0 26 -40q0 -41 -16 -52q-11 -9 -54.5 -9t-76.5 -6l204 -559l437 554q-4 2 -79 10q-41 5 -41 40q0 62 33 62q35 0 105 -3t105 -3q26 0 76.5 3t75.5 3q27 0 27 -40z" />
  </g>

</svg>
