<?xml version="1.0" standalone="no"?>
<!DOCTYPE svg PUBLIC "-//W3C//DTD SVG 1.1//EN" "http://www.w3.org/Graphics/SVG/1.1/DTD/svg11.dtd" >
<svg viewBox="0 -442 2048 2048">
  <g transform="matrix(1 0 0 -1 0 1606)">
   <path fill="currentColor"
d="M1910 308q0 -2 -2 -9q-36 -132 -108 -218q-89 -105 -210 -105q-88 0 -156 51q-74 56 -74 141q0 31 13 75q41 128 81 257q44 150 44 264q0 109 -66 109q-75 0 -133 -55q-31 -30 -89 -117q-30 -45 -41 -72q-2 -5 -6 -23l-111 -520q-9 -44 -51 -77t-87 -33q-44 0 -74.5 29.5
t-30.5 73.5q0 13 2 22l109 512q18 85 18 138q0 122 -83 122q-77 0 -137 -58q-72 -70 -123 -184l-29 -141q-25 -136 -86 -404q-13 -46 -52.5 -78t-87.5 -32q-44 0 -74.5 29.5t-30.5 73.5q0 8 3 22l127 607q12 57 12 92q0 73 -39 73q-56 0 -78 -112q-28 -145 -28 -146
q-13 -21 -41 -21q-71 0 -71 31q0 94 73 208q80 126 168 126q85 0 153 -39q77 -43 94 -120q65 79 108 111q66 48 144 48q270 0 309 -177q135 177 285 177q280 0 280 -248q0 -117 -121 -492q-24 -74 -24 -118q0 -40 24 -40q115 0 165 187q6 30 20 73q12 19 63 19q49 0 49 -32z
" />
  </g>

</svg>
