<?xml version="1.0" standalone="no"?>
<!DOCTYPE svg PUBLIC "-//W3C//DTD SVG 1.1//EN" "http://www.w3.org/Graphics/SVG/1.1/DTD/svg11.dtd" >
<svg viewBox="0 -442 2048 2048">
  <g transform="matrix(1 0 0 -1 0 1606)">
   <path fill="currentColor"
d="M1025 826q0 -15 -3 -29l-202 -954q-30 -142 -179 -219q-126 -65 -286 -65q-328 0 -328 153q0 62 36 111q39 54 99 54q41 0 66 -30t25 -71q0 -75 -50 -122q50 -9 139 -9q87 0 156 69q58 58 85 160q19 90 37 181q-91 -63 -189 -63q-155 0 -243 98q-83 94 -83 251
q0 238 137 420q150 198 381 198q115 0 185 -86q41 49 130 49q39 0 63 -28t24 -68zM768 770q-35 103 -133 103q-108 0 -176 -147q-35 -78 -70 -242q-37 -174 -37 -266q0 -140 102 -140q107 0 200 125z" />
  </g>

</svg>
