<?xml version="1.0" standalone="no"?>
<!DOCTYPE svg PUBLIC "-//W3C//DTD SVG 1.1//EN" "http://www.w3.org/Graphics/SVG/1.1/DTD/svg11.dtd" >
<svg viewBox="0 -442 2048 2048">
  <g transform="matrix(1 0 0 -1 0 1606)">
   <path fill="currentColor"
d="M714 1440q0 -2 -1 -6l-256 -1217q-9 -43 -9 -84q0 -72 37 -72q85 0 119 207q2 20 10 53q8 19 39 19q52 0 52 -32q0 -3 -2 -12q-73 -320 -241 -320q-99 0 -172 52q-81 59 -81 154q0 23 6 51l232 1100q0 4 1 12q-9 1 -41 1q-83 0 -83 46q0 66 35 68l319 16q36 2 36 -36z
" />
  </g>

</svg>
