<?xml version="1.0" standalone="no"?>
<!DOCTYPE svg PUBLIC "-//W3C//DTD SVG 1.1//EN" "http://www.w3.org/Graphics/SVG/1.1/DTD/svg11.dtd" >
<svg viewBox="0 -442 2048 2048">
  <g transform="matrix(1 0 0 -1 0 1606)">
   <path fill="currentColor"
d="M717 1371q0 -56 -37 -103q-40 -50 -95 -50q-41 0 -65.5 31t-24.5 73q0 57 39 105.5t94 48.5q40 0 66 -33q23 -30 23 -72zM775 308q0 -2 -2 -9q-34 -127 -106 -215q-88 -108 -203 -108q-88 0 -156 51q-73 56 -73 141q0 33 14 75l159 474q23 69 23 116q0 40 -25 40
q-60 0 -108 -65q-39 -51 -57 -120q-5 -28 -20 -73q-11 -21 -47 -21q-54 0 -54 31q0 109 102 221.5t209 112.5q89 0 156 -51q73 -56 73 -142q0 -33 -13 -72l-160 -475q-24 -71 -24 -118q0 -40 27 -40q110 0 164 186q6 29 21 74q11 19 55 19q45 0 45 -32z" />
  </g>

</svg>
