<?xml version="1.0" standalone="no"?>
<!DOCTYPE svg PUBLIC "-//W3C//DTD SVG 1.1//EN" "http://www.w3.org/Graphics/SVG/1.1/DTD/svg11.dtd" >
<svg viewBox="0 -442 2048 2048">
  <g transform="matrix(1 0 0 -1 0 1606)">
   <path fill="currentColor"
d="M1073 606q0 -238 -145 -426q-158 -204 -389 -204q-152 0 -243 99q-87 96 -87 249v-3q15 42 15 129q0 13 2 22l182 861q0 4 1 12q-6 0 -21 -1h-21q-84 0 -84 48q0 19 9 41q11 26 27 27l319 16q37 2 37 -36q0 -18 -35 -178l-81 -367q90 64 193 64q155 0 240 -101
q81 -95 81 -252zM826 730q0 143 -99 143q-110 0 -200 -125l-60 -298q-33 -164 -33 -231q0 -158 108 -158t176 151q34 78 70 246q38 178 38 272z" />
  </g>

</svg>
