<?xml version="1.0" standalone="no"?>
<!DOCTYPE svg PUBLIC "-//W3C//DTD SVG 1.1//EN" "http://www.w3.org/Graphics/SVG/1.1/DTD/svg11.dtd" >
<svg viewBox="-145 -442 2048 2048">
  <g transform="matrix(1 0 0 -1 0 1606)">
   <path fill="currentColor"
d="M732 1371q0 -57 -37 -103q-39 -50 -95 -50q-41 0 -66 31t-25 73q0 56 38.5 105t93.5 49q41 0 66 -31.5t25 -73.5zM667 751q0 -26 -5 -49l-177 -830q-29 -137 -160 -227q-123 -86 -268 -86q-76 0 -135 40q-67 45 -67 117q0 61 37 109q40 52 99 52q41 0 66 -30t25 -71
q0 -83 -58 -128q17 -3 20 -3q75 0 136 91q47 71 66 160l172 812q12 57 12 92q0 73 -39 73q-81 0 -142 -72q-39 -45 -78 -133q-32 -72 -41 -72h-59q-23 0 -23 29q0 7 2 13q43 129 135 219q105 102 229 102q99 0 172 -53q81 -60 81 -155z" />
  </g>

</svg>
