<?xml version="1.0" standalone="no"?>
<!DOCTYPE svg PUBLIC "-//W3C//DTD SVG 1.1//EN" "http://www.w3.org/Graphics/SVG/1.1/DTD/svg11.dtd" >
<svg viewBox="0 -442 2048 2048">
  <g transform="matrix(1 0 0 -1 0 1606)">
   <path fill="currentColor"
d="M1031 182q0 -11 -5 -19q-124 -187 -479 -187q-176 0 -283 96q-112 99 -112 273q0 250 169 430q173 184 421 184q103 0 178 -46q90 -55 90 -151q0 -64 -41 -116q-43 -55 -106 -55q-91 0 -91 101q0 114 89 147q-47 34 -115 34q-222 0 -311 -391q-33 -145 -33 -230
q0 -191 170 -191q216 0 339 118l69 66q18 -3 34.5 -24t16.5 -39z" />
  </g>

</svg>
