<?xml version="1.0" standalone="no"?>
<!DOCTYPE svg PUBLIC "-//W3C//DTD SVG 1.1//EN" "http://www.w3.org/Graphics/SVG/1.1/DTD/svg11.dtd" >
<svg viewBox="0 -442 2048 2048">
  <g transform="matrix(1 0 0 -1 0 1606)">
   <path fill="currentColor"
d="M1027 182q0 -9 -7 -19q-132 -187 -478 -187q-177 0 -283.5 103.5t-106.5 280.5q0 253 166.5 426t418.5 173q104 0 179 -51q86 -58 86 -157q0 -190 -208 -258q-121 -39 -366 -40q-27 -118 -27 -194q0 -85 39 -138q44 -60 127 -60q217 0 329 109q77 75 80 75q15 0 33 -23.5
t18 -39.5zM850 754q0 51 -33.5 85t-84.5 34q-209 0 -282 -334q400 0 400 215z" />
  </g>

</svg>
