<?xml version="1.0" standalone="no"?>
<!DOCTYPE svg PUBLIC "-//W3C//DTD SVG 1.1//EN" "http://www.w3.org/Graphics/SVG/1.1/DTD/svg11.dtd" >
<svg viewBox="0 -442 2048 2048">
  <g transform="matrix(1 0 0 -1 0 1606)">
   <path fill="currentColor"
d="M1352 308q0 -2 -2 -9q-29 -127 -103 -217q-89 -106 -206 -106q-88 0 -156 51q-74 56 -74 141q0 29 14 75q41 125 81 250q44 149 44 258q0 122 -83 122q-146 0 -264 -181q-32 -49 -50 -135l-100 -470q-9 -44 -50.5 -77.5t-87.5 -33.5q-48 0 -77 32t-29 81q0 9 1 14
l263 1242h-40q-85 0 -85 47q0 19 9 41q11 26 27 27l318 16q18 1 26.5 -8.5t7.5 -27.5q-1 -23 -17 -97l-108 -510q120 126 261 126q133 0 216 -56q97 -65 97 -192q0 -112 -121 -492q-23 -72 -23 -118q0 -40 23 -40q119 0 169 194q5 27 18 66q12 19 51 19q50 0 50 -32z" />
  </g>

</svg>
