<?xml version="1.0" standalone="no"?>
<!DOCTYPE svg PUBLIC "-//W3C//DTD SVG 1.1//EN" "http://www.w3.org/Graphics/SVG/1.1/DTD/svg11.dtd" >
<svg viewBox="0 -442 2048 2048">
  <g transform="matrix(1 0 0 -1 0 1606)">
   <path fill="currentColor"
d="M1207 308q0 -4 -2 -12q-78 -320 -251 -320q-167 0 -231 112q-112 -112 -247 -112q-156 0 -242 100q-82 94 -82 252q0 241 137 427q151 204 383 204q112 0 185 -86q39 49 112 49q39 0 72 -28.5t33 -67.5q0 -10 -4 -29l-119 -569q-11 -53 -11 -95q0 -72 38 -72
q86 0 118 208q2 21 10 52q10 19 52 19q49 0 49 -32zM817 767q-37 106 -133 106q-108 0 -177 -152q-36 -80 -71 -246q-37 -174 -37 -272q0 -142 100 -142q111 0 203 131q0 16 4 35z" />
  </g>

</svg>
