<?xml version="1.0" standalone="no"?>
<!DOCTYPE svg PUBLIC "-//W3C//DTD SVG 1.1//EN" "http://www.w3.org/Graphics/SVG/1.1/DTD/svg11.dtd" >
<svg viewBox="0 -442 2048 2048">
  <g transform="matrix(1 0 0 -1 0 1606)">
   <path fill="currentColor"
d="M1024 764q0 -66 -37 -119q-41 -59 -104 -59q-41 0 -70 30.5t-29 71.5q0 125 109 156q-21 29 -67 29q-65 0 -135 -54.5t-83 -116.5l-128 -616q-9 -44 -52 -77t-88 -33q-44 0 -74.5 29.5t-30.5 73.5q0 8 3 22l127 607q12 57 12 92q0 73 -39 73q-84 0 -116 -203
q-2 -20 -12 -55q-10 -21 -36 -21q-54 0 -54 31q0 94 73 209q80 125 168 125q172 0 235 -122q103 122 237 122q80 0 135.5 -57.5t55.5 -137.5z" />
  </g>

</svg>
