<?xml version="1.0" standalone="no"?>
<!DOCTYPE svg PUBLIC "-//W3C//DTD SVG 1.1//EN" "http://www.w3.org/Graphics/SVG/1.1/DTD/svg11.dtd" >
<svg viewBox="0 -442 2048 2048">
  <g transform="matrix(1 0 0 -1 0 1606)">
   <path fill="currentColor"
d="M1079 766q0 -218 -121 -479q-144 -311 -330 -311q-343 0 -343 285q0 101 39 232q36 112 73 224q23 73 23 116q0 40 -23 40q-119 0 -168 -191q-4 -24 -19 -67q-11 -21 -36 -21q-54 0 -54 31q0 103 99.5 218.5t200.5 115.5q89 0 156 -51q74 -56 74 -142q0 -26 -14 -72
q-38 -116 -75 -232q-40 -136 -40 -239q0 -162 131 -162q156 0 266 339q38 117 38 168q0 50 -72 111.5t-72 112.5q0 61 39 113q43 56 102 56q65 0 99 -69q27 -53 27 -126z" />
  </g>

</svg>
