<?xml version="1.0" standalone="no"?>
<!DOCTYPE svg PUBLIC "-//W3C//DTD SVG 1.1//EN" "http://www.w3.org/Graphics/SVG/1.1/DTD/svg11.dtd" >
<svg viewBox="0 -442 2048 2048">
  <g transform="matrix(1 0 0 -1 0 1606)">
   <path fill="currentColor"
d="M1758 1332q-105 -42 -164 -110q86 -108 120 -186q42 -96 42 -217q0 -203 -84 -412q-169 -421 -545 -421q-112 0 -257 60q-189 -60 -309 -60q-95 0 -175 25q-115 36 -115 110q0 103 194 103q155 0 369 -83q70 77 141 223l126 259q191 393 435 604q-100 94 -194 133
q-98 40 -233 40q-388 0 -592 -350q-106 -182 -106 -336q0 -198 195 -198q199 0 333 207q119 182 119 392q0 34 -5 92h33q5 -57 5 -88q0 -221 -129 -416q-144 -218 -355 -218q-145 0 -236 98q-90 95 -90 240q0 232 272 427q250 179 556 179q268 0 453 -180q80 67 183 111z
M1711 757q0 248 -143 434q-62 -81 -109 -250q-48 -173 -96 -347q-54 -170 -134 -277q-97 -129 -268 -227q139 -65 227 -65q114 0 242 94t208 286q73 177 73 352zM770 86q-249 104 -362 104q-104 0 -104 -70q0 -56 98 -84q69 -20 147 -20q116 0 221 70z" />
  </g>

</svg>
