<?xml version="1.0" standalone="no"?>
<!DOCTYPE svg PUBLIC "-//W3C//DTD SVG 1.1//EN" "http://www.w3.org/Graphics/SVG/1.1/DTD/svg11.dtd" >
<svg viewBox="0 -442 2048 2048">
  <g transform="matrix(1 0 0 -1 0 1606)">
   <path fill="currentColor"
d="M1578 764q0 -107 -47 -292q-81 -317 -208 -426q-82 -70 -166 -70q-229 0 -303 116q-80 -116 -207 -116q-362 0 -362 292q0 99 39 228q36 111 73 221q23 72 23 116q0 40 -23 40q-117 0 -167 -187q-5 -24 -20 -71q-8 -19 -20 -19h-47q-23 0 -23 29q0 103 99.5 218.5
t200.5 115.5q89 0 156 -51q74 -56 74 -142q0 -27 -14 -72q-37 -114 -75 -229q-39 -133 -39 -236q0 -168 147 -168q88 0 147 130q-6 44 -6 78q0 51 13 112l96 450q10 45 51.5 78t87.5 33q42 0 73 -31.5t31 -73.5q0 -13 -2 -22l-94 -439q-19 -89 -19 -153q0 -162 132 -162
q139 0 236 321q39 130 39 186q0 50 -71.5 111.5t-71.5 112.5q0 61 39 113q42 56 101 56q65 0 100 -70q27 -54 27 -127z" />
  </g>

</svg>
