<?xml version="1.0" standalone="no"?>
<!DOCTYPE svg PUBLIC "-//W3C//DTD SVG 1.1//EN" "http://www.w3.org/Graphics/SVG/1.1/DTD/svg11.dtd" >
<svg viewBox="0 -442 2048 2048">
  <g transform="matrix(1 0 0 -1 0 1606)">
   <path fill="currentColor"
d="M1801 1270q0 -178 -241 -347q-192 -134 -411 -194q-70 -19 -215 -43q-81 -160 -109 -235q-52 -136 -52 -252q0 -186 200 -186q128 0 245.5 71t179.5 184q44 81 44 157q0 62 -34 107q-37 49 -98 49q-80 0 -158 -83q-89 -94 -113 -295h-30q-20 83 -20 136q0 116 88 199
q86 80 203 80q84 0 140 -53t56 -136q0 -157 -142 -295q-155 -151 -362 -151q-169 0 -292 110q-128 114 -128 281q0 140 91 314q-146 26 -241 110q-107 96 -107 236q0 120 86 222q158 188 474 188q70 0 161 -12l-5 -31q-59 9 -131 9q-163 0 -295 -110q-187 -156 -187 -345
t260 -238q145 215 349 395q218 194 439 286q113 47 185 47q74 0 122 -50.5t48 -124.5zM1729 1328q0 38 -31 63q-29 22 -68 22q-241 0 -678 -695q109 20 167 37q299 87 499 346q111 144 111 227z" />
  </g>

</svg>
