<?xml version="1.0" standalone="no"?>
<!DOCTYPE svg PUBLIC "-//W3C//DTD SVG 1.1//EN" "http://www.w3.org/Graphics/SVG/1.1/DTD/svg11.dtd" >
<svg viewBox="0 -442 2048 2048">
  <g transform="matrix(1 0 0 -1 0 1606)">
   <path fill="currentColor"
d="M1192 837q0 -6 -3 -22q0 -1 -91 -431q-27 -135 -86 -404q-41 -175 -193 -298t-329 -123q-103 0 -184 42q-101 52 -101 145q0 64 35 113q39 54 100 54q41 0 71.5 -30t30.5 -71q0 -98 -80 -143q48 -24 116 -24q119 0 206 141q63 102 96 249q-74 -59 -178 -59
q-143 0 -227 65q-92 73 -92 212q0 103 39 236q38 114 75 228q23 73 23 116q0 40 -23 40q-56 0 -108 -67q-43 -56 -59 -120q-3 -17 -12 -51q-13 -41 -44 -41q-54 0 -54 31q0 103 99.5 218.5t200.5 115.5q89 0 156 -51q74 -56 74 -142q0 -26 -14 -72l-76 -238
q-41 -140 -41 -246q0 -149 106 -149q101 0 187 130l135 640q9 44 51.5 77.5t88.5 33.5q42 0 73.5 -31.5t31.5 -73.5z" />
  </g>

</svg>
