<?xml version="1.0" standalone="no"?>
<!DOCTYPE svg PUBLIC "-//W3C//DTD SVG 1.1//EN" "http://www.w3.org/Graphics/SVG/1.1/DTD/svg11.dtd" >
<svg viewBox="0 -442 2048 2048">
  <g transform="matrix(1 0 0 -1 0 1606)">
   <path fill="currentColor"
d="M1311 308q0 1 -3 -12q-27 -119 -76 -202q-70 -118 -164 -118q-169 0 -231 114q-100 -114 -235 -114q-144 0 -227 65q-92 72 -92 212q0 103 39 236q37 114 75 228q23 72 23 116q0 40 -23 40q-118 0 -168 -192q-5 -22 -19 -66q-8 -19 -20 -19h-47q-23 0 -23 29
q0 103 99.5 218.5t200.5 115.5q89 0 156 -51q74 -56 74 -142q0 -27 -14 -72q-38 -119 -77 -238q-40 -139 -40 -246q0 -149 106 -149q104 0 191 137q0 13 5 35l126 598q9 44 51.5 77.5t88.5 33.5q42 0 73.5 -31.5t31.5 -73.5q0 -8 -3 -22l-124 -587q-12 -57 -12 -95
q0 -72 38 -72q81 0 115 194q3 26 15 66q11 19 46 19q44 0 44 -32z" />
  </g>

</svg>
