<?xml version="1.0" standalone="no"?>
<!DOCTYPE svg PUBLIC "-//W3C//DTD SVG 1.1//EN" "http://www.w3.org/Graphics/SVG/1.1/DTD/svg11.dtd" >
<svg viewBox="-14 -442 2048 2048">
  <g transform="matrix(1 0 0 -1 0 1606)">
   <path fill="currentColor"
d="M1115 606q0 -240 -136 -425q-149 -205 -380 -205q-104 0 -176 72l-76 -360q7 0 23.5 1t25.5 1q77 0 77 -47q0 -65 -36 -65q-39 0 -117 2.5t-117 2.5q-32 0 -95 -2.5t-95 -2.5q-27 0 -27 42q0 52 36 64q9 3 79 6l217 1027q10 47 10 83q0 73 -39 73q-51 0 -79 -72
q-12 -29 -35 -133q-15 -72 -34 -72h-47q-23 0 -23 29q0 94 73 209q80 125 168 125q170 0 232 -113q113 113 250 113q154 0 240 -101q81 -95 81 -252zM869 730q0 143 -100 143q-114 0 -204 -131q-1 -8 -6 -35l-108 -540q36 -106 133 -106q107 0 175 152q37 81 72 245
q38 178 38 272z" />
  </g>

</svg>
