<?xml version="1.0" standalone="no"?>
<!DOCTYPE svg PUBLIC "-//W3C//DTD SVG 1.1//EN" "http://www.w3.org/Graphics/SVG/1.1/DTD/svg11.dtd" >
<svg viewBox="0 -442 2048 2048">
  <g transform="matrix(1 0 0 -1 0 1606)">
   <path fill="currentColor"
d="M1022 929q0 -7 -19 -34q-163 -230 -427 -475q-80 -72 -236 -220q113 9 340 21q135 5 180 64q9 19 18 37q14 26 27 26h57q27 0 27 -31q0 -6 -2 -13q-98 -328 -350 -328q-65 0 -149.5 70t-133.5 70q-61 0 -120 -48l-94 -92h-19q-62 0 -62 28q0 14 3 19q88 155 310 373
q7 6 364 336q-100 -8 -301 -19q-38 -1 -51 -3q-29 -4 -46 -18q-25 -20 -33 -21q15 2 -46 2q-27 0 -27 29q0 9 9 37q71 220 255 220q64 0 149 -70t135 -70q46 0 97 70t67 70q78 0 78 -30z" />
  </g>

</svg>
