<?xml version="1.0" standalone="no"?>
<!DOCTYPE svg PUBLIC "-//W3C//DTD SVG 1.1//EN" "http://www.w3.org/Graphics/SVG/1.1/DTD/svg11.dtd" >
<svg viewBox="0 -442 2048 2048">
  <g transform="matrix(1 0 0 -1 0 1606)">
   <path fill="currentColor"
d="M870 771q0 -58 -28 -101q-31 -49 -86 -49q-80 0 -80 90q0 88 70 122q-48 40 -137 40q-82 0 -136 -37q-62 -43 -62 -121q0 -61 77 -89q63 -15 127 -30q220 -54 220 -253q0 -83 -39 -163q-100 -204 -392 -204q-127 0 -213 41q-114 54 -114 167q0 66 34 117q38 59 101 59
q41 0 66 -30.5t25 -72.5q0 -115 -93 -149q63 -47 179 -47q107 0 178 43q87 51 87 151q0 75 -88 108q-76 18 -151 36q-86 22 -136 82t-50 146q0 158 106 247q100 85 260 85q107 0 182 -40q93 -50 93 -148z" />
  </g>

</svg>
