<?xml version="1.0" standalone="no"?>
<!DOCTYPE svg PUBLIC "-//W3C//DTD SVG 1.1//EN" "http://www.w3.org/Graphics/SVG/1.1/DTD/svg11.dtd" >
<svg viewBox="0 -442 2048 2048">
  <g transform="matrix(1 0 0 -1 0 1606)">
   <path fill="currentColor"
d="M947 308q0 -4 -2 -10q-42 -124 -132 -216q-105 -106 -223 -106q-98 0 -171 53q-81 58 -81 153q0 23 6 51l123 581h-177q-29 0 -29 42q0 19 10 41q11 26 27 26h192l68 333q9 44 52.5 77.5t89.5 33.5q39 0 72 -29t33 -67q0 -6 -5 -30l-67 -318h176q28 0 28 -43
q0 -18 -9 -40q-12 -26 -27 -26h-190l-125 -586q-11 -52 -11 -95q0 -73 39 -73q136 0 215 192q7 26 26 69q14 19 49 19q43 0 43 -32z" />
  </g>

</svg>
