<?xml version="1.0" standalone="no"?>
<!DOCTYPE svg PUBLIC "-//W3C//DTD SVG 1.1//EN" "http://www.w3.org/Graphics/SVG/1.1/DTD/svg11.dtd" >
<svg viewBox="0 -442 2048 2048">
  <g transform="matrix(1 0 0 -1 0 1606)">
   <path fill="currentColor"
d="M1098 922q0 -1 -1 -5l-261 -1229q7 0 24 1t26 1q78 0 78 -47q0 -65 -36 -65q-39 0 -118 2.5t-118 2.5q-37 0 -110.5 -2.5t-110.5 -2.5q-29 0 -29 42q0 53 45 66q15 4 87 4h18l74 349q-91 -63 -190 -63q-156 0 -242 100q-82 94 -82 252q0 241 137 427q151 204 383 204
q115 0 185 -86q23 22 92 54t98 32q13 0 32 -12t19 -25zM817 767q-37 106 -133 106q-108 0 -176 -152q-37 -81 -72 -246q-37 -175 -37 -272q0 -142 100 -142q112 0 201 124z" />
  </g>

</svg>
