<?xml version="1.0" standalone="no"?>
<!DOCTYPE svg PUBLIC "-//W3C//DTD SVG 1.1//EN" "http://www.w3.org/Graphics/SVG/1.1/DTD/svg11.dtd" >
<svg viewBox="-62 -442 2061 2048">
  <g transform="matrix(1 0 0 -1 0 1606)">
   <path fill="currentColor"
d="M2061 1439q-96 -128 -151 -219q-97 -159 -261 -540q-163 -377 -294 -603q257 25 414 257l26 -17q-180 -253 -460 -273l-25 -44q-105 -3 -269 -11q38 64 52 101q-192 63 -310 208q-287 -315 -553 -315q-119 0 -202 68q-90 73 -90 189q0 78 51.5 132.5t129.5 54.5
q47 0 84 -31.5t37 -77.5q0 -64 -56 -91q-52 -17 -104 -33q-56 -20 -56 -64q0 -57 78 -91q61 -27 127 -27q257 0 532 311q-107 153 -107 289q0 95 48 154q53 64 145 64q142 0 241 -134q268 303 435 444q269 227 538 299zM1960 1378q-239 -102 -466 -306q-132 -118 -387 -403
q72 -115 72 -288q0 -69 -14 -156q117 180 241 385q52 90 160 266q134 205 394 502zM1065 672q-56 61 -133 61q-85 0 -145 -74q-57 -70 -57 -157q0 -68 54 -153q93 108 281 323zM1147 386q0 158 -62 258l-282 -321q112 -134 299 -204q45 144 45 267z" />
  </g>

</svg>
