<?xml version="1.0" standalone="no"?>
<!DOCTYPE svg PUBLIC "-//W3C//DTD SVG 1.1//EN" "http://www.w3.org/Graphics/SVG/1.1/DTD/svg11.dtd" >
<svg viewBox="0 -442 2048 2048">
  <g transform="matrix(1 0 0 -1 0 1606)">
   <path fill="currentColor"
d="M1806 1056q0 -148 -134 -262q-112 -94 -273 -135q-51 -13 -146 -27q-91 -288 -231 -425q-233 -227 -543 -227q-178 0 -272 84q-86 77 -86 183q0 81 51.5 137t131.5 56q48 0 87 -31q41 -34 41 -81q0 -66 -57 -94q-53 -16 -107 -33q-57 -19 -57 -64q0 -59 87 -95
q69 -28 138 -28q146 0 259 113q98 98 276 488q-128 -12 -250 -97l-19 22q119 93 283 106q235 507 571 692q-103 71 -302 71q-213 0 -440 -96q-242 -103 -364 -261q-87 -113 -87 -218q0 -72 42.5 -116.5t114.5 -44.5q154 0 326 221q127 163 131 359h26q16 -91 16 -163
q0 -194 -119 -328q-123 -138 -315 -138q-108 0 -177 49q-78 56 -78 160q0 118 96 239q131 166 376 269q230 97 455 97q186 0 345 -75q75 39 162 62l6 -27q-86 -25 -137 -54q173 -128 173 -288zM1631 1161q0 79 -52 155q-120 -81 -188 -236q-31 -69 -93 -292
q-13 -46 -35 -122q142 30 232 139q136 166 136 356z" />
  </g>

</svg>
