<?xml version="1.0" standalone="no"?>
<!DOCTYPE svg PUBLIC "-//W3C//DTD SVG 1.1//EN" "http://www.w3.org/Graphics/SVG/1.1/DTD/svg11.dtd" >
<svg viewBox="0 -442 2048 2048">
  <g transform="matrix(1 0 0 -1 0 1606)">
   <path fill="currentColor"
d="M1512 1056q0 -230 -249 -503q-188 -206 -448 -373q244 -81 327 -81q112 0 284 235l26 -17q-246 -339 -494 -339q-107 0 -313 100q-188 -97 -336 -97q-75 0 -129 27q-69 35 -69 103q0 81 98 129q79 39 170 39q134 0 370 -75q239 221 394 546q129 270 129 446
q0 203 -171 203q-180 0 -371 -117q-178 -111 -284.5 -271t-106.5 -294q0 -79 48.5 -129t127.5 -50q94 0 176 84q92 94 164 238q78 158 78 275q0 30 -9 90l29 6q49 -147 49 -266q0 -186 -134.5 -326t-319.5 -140q-107 0 -172 56q-69 59 -69 165q0 144 114.5 311.5
t298.5 279.5q197 119 389 119q173 0 285 -100q118 -104 118 -274zM602 97q-216 112 -326 112q-133 0 -133 -101q0 -96 169 -96q138 0 290 85z" />
  </g>

</svg>
