<?xml version="1.0" standalone="no"?>
<!DOCTYPE svg PUBLIC "-//W3C//DTD SVG 1.1//EN" "http://www.w3.org/Graphics/SVG/1.1/DTD/svg11.dtd" >
<svg viewBox="-85 -442 2048 2048">
  <g transform="matrix(1 0 0 -1 0 1606)">
   <path fill="currentColor"
d="M1623 1400q-143 0 -258 -139q-84 -102 -176 -309q-18 -41 -136 -336q-97 -243 -162 -377q95 -9 153 -60q65 -55 65 -147q0 -130 -138 -219q-106 -70 -256 -95l-1 30q137 25 209 68q155 93 155 218q0 80 -62 128q-56 44 -139 48q-135 -255 -315 -428q-235 -224 -476 -224
q-82 0 -129 66q-42 58 -42 142q0 190 259 328q181 98 420 143l298 515q135 234 242 363q150 181 332 278q-207 -13 -322 -48q-195 -59 -383.5 -222.5t-276.5 -347.5q-41 -86 -41 -148q0 -55 40 -86q36 -30 92 -30q51 0 106 31l16 -27q-62 -34 -119 -34q-100 0 -157 78
q-50 70 -50 174q0 426 693 627q224 65 558 70zM576 202q-197 -37 -388 -181q-213 -160 -213 -320q0 -48 32.5 -80.5t80.5 -32.5q146 0 488 614z" />
  </g>

</svg>
