<?xml version="1.0" standalone="no"?>
<!DOCTYPE svg PUBLIC "-//W3C//DTD SVG 1.1//EN" "http://www.w3.org/Graphics/SVG/1.1/DTD/svg11.dtd" >
<svg viewBox="0 -442 2048 2048">
  <g transform="matrix(1 0 0 -1 0 1606)">
   <path fill="currentColor"
d="M1570 736q-78 -82 -110 -183q-6 -19 -47 -214q-39 -188 -211 -283q-146 -81 -355 -81q-231 0 -337 107q-76 77 -76 170q0 76 50.5 127t126.5 51q52 0 89.5 -30t37.5 -81q0 -62 -53 -87l-100 -30q-53 -18 -53 -62q0 -63 103 -101q79 -29 156 -29q112 0 192 74
q53 49 124 170l69 118q49 84 152 186q-186 -105 -315 -105q-136 0 -257 131q-63 -5 -87 -5q-160 0 -280 105q-124 110 -124 268q0 185 171 318q139 108 343 154l6 -28q-162 -38 -264 -160q-150 -179 -150 -369q0 -122 91 -193q83 -64 209 -64q34 0 63 4q-55 92 -55 205
q0 233 204 409q231 199 494 199q79 0 132 -43q56 -46 56 -124q0 -144 -165 -320q-196 -209 -412 -295q-79 -32 -165 -52q44 -111 183 -111q128 0 292 92q131 74 251 184zM1521 1291q0 43 -31 70.5t-75 27.5q-139 0 -317 -216q-136 -165 -220 -344q-50 -108 -60 -204
q285 54 504 299q199 222 199 367z" />
  </g>

</svg>
