<?xml version="1.0" standalone="no"?>
<!DOCTYPE svg PUBLIC "-//W3C//DTD SVG 1.1//EN" "http://www.w3.org/Graphics/SVG/1.1/DTD/svg11.dtd" >
<svg viewBox="0 -442 2048 2048">
  <g transform="matrix(1 0 0 -1 0 1606)">
   <path fill="currentColor"
d="M1892 1404q-84 -189 -280 -189q-90 0 -262 76q-196 87 -331 87q-155 0 -320 -98q-133 -79 -226 -189q-114 -135 -114 -263q0 -71 45 -124t115 -53q126 0 247 181q112 168 112 302q0 27 -15 94l26 9q63 -128 63 -243q0 -159 -114.5 -268.5t-274.5 -109.5q-104 0 -168 54
q-68 57 -68 159q0 125 104 260q265 344 751 344q121 0 291 -36q156 -33 237 -33q106 0 158 58zM1445 1170q-70 -58 -119 -188q-19 -53 -62 -218q-63 -244 -132 -368q-142 -255 -379 -353q-156 -64 -317 -64q-138 0 -236 65q-112 74 -112 206q0 78 50 134t127 56q49 0 88 -31
q42 -34 42 -81q0 -65 -57 -93q-53 -17 -107 -34q-57 -19 -57 -60q0 -59 95 -98q76 -31 146 -31q150 0 262 121q73 79 159 254q65 140 208 403q174 278 386 404z" />
  </g>

</svg>
