<?xml version="1.0" standalone="no"?>
<!DOCTYPE svg PUBLIC "-//W3C//DTD SVG 1.1//EN" "http://www.w3.org/Graphics/SVG/1.1/DTD/svg11.dtd" >
<svg viewBox="0 -442 2048 2048">
  <g transform="matrix(1 0 0 -1 0 1606)">
   <path fill="currentColor"
d="M1821 1255q0 -152 -215 -371q-179 -182 -436 -297q-69 -203 -166 -322q-231 -285 -585 -285q-137 0 -238 62q-119 72 -119 201q0 80 52 138t131 58q50 0 88.5 -35t38.5 -84q0 -65 -56 -91q-52 -16 -105 -31q-56 -18 -56 -63q0 -58 86 -93q68 -27 136 -27q135 0 234 87
q76 67 145 202q53 116 107 231q-283 3 -404 212q-51 88 -51 178q0 209 242 371q215 144 449 144q79 0 169 -21l-4 -27q-101 17 -161 17q-190 0 -340 -117q-146 -113 -207 -297q-29 -87 -29 -166q0 -123 81 -195q78 -69 203 -69q22 0 66 3q123 276 223 435q150 241 322 357
q118 80 220 80q76 0 127.5 -54.5t51.5 -130.5zM1738 1320q0 89 -96 89q-225 0 -378 -490q-31 -97 -85 -295q351 162 515 536q44 100 44 160z" />
  </g>

</svg>
