<?xml version="1.0" standalone="no"?>
<!DOCTYPE svg PUBLIC "-//W3C//DTD SVG 1.1//EN" "http://www.w3.org/Graphics/SVG/1.1/DTD/svg11.dtd" >
<svg viewBox="0 -442 2048 2048">
  <g transform="matrix(1 0 0 -1 0 1606)">
   <path fill="currentColor"
d="M1491 1265q0 -46 -30 -118l-33 11q27 61 27 105q0 71 -63 114q-56 38 -130 38q-183 0 -382 -192q-144 -139 -283 -410q-126 -245 -186 -467q-36 -134 -36 -206q0 -131 135 -131q341 0 639 576q158 306 158 476q0 107 -99 107q-100 0 -234 -144q-109 -117 -210 -324
q-100 -203 -131 -365q-7 -34 -20 -135h-32q23 292 208 615q219 383 420 383q80 0 121 -65q35 -55 35 -139q0 -251 -250 -582q-327 -434 -603 -434q-158 0 -247 130q-77 114 -77 279q0 313 270 610q162 179 364 301q240 146 441 146q86 0 152 -46q76 -51 76 -133z" />
  </g>

</svg>
