<?xml version="1.0" standalone="no"?>
<!DOCTYPE svg PUBLIC "-//W3C//DTD SVG 1.1//EN" "http://www.w3.org/Graphics/SVG/1.1/DTD/svg11.dtd" >
<svg viewBox="-66 -442 2162 2048">
  <g transform="matrix(1 0 0 -1 0 1606)">
   <path fill="currentColor"
d="M2162 1168q0 -59 -72 -59q-12 0 -37 2t-37 2q-51 0 -109 -57q-54 -53 -168 -234.5t-306 -527.5l-14 -196q-122 -57 -265 -121q21 283 36 445q20 212 39 323q40 237 102 374q51 112 153 244q-213 -162 -366 -409q-45 -72 -183 -314q-168 -293 -287 -426
q-208 -232 -431 -232q-115 0 -195 60q-88 67 -88 179q0 84 59 144t143 60q50 0 87.5 -34t37.5 -84q0 -58 -56 -89q-8 -5 -122 -18q-79 -9 -79 -67q0 -61 80 -95q62 -26 132 -26q145 0 268 100q108 88 317 403q142 224 285 449q182 285 402 442q45 32 60 32q21 0 21 -19
q0 -13 -9 -31q-29 -59 -45 -128q-14 -61 -31 -275l-48 -611l8 15q18 33 193 327q44 76 138 223q192 282 325 282q62 0 62 -53z" />
  </g>

</svg>
