<?xml version="1.0" standalone="no"?>
<!DOCTYPE svg PUBLIC "-//W3C//DTD SVG 1.1//EN" "http://www.w3.org/Graphics/SVG/1.1/DTD/svg11.dtd" >
<svg viewBox="-52 -442 2048 2048">
  <g transform="matrix(1 0 0 -1 0 1606)">
   <path fill="currentColor"
d="M1145 317q-58 -78 -183 -225q-103 -106 -208 -106q-68 0 -108 47q-39 44 -39 113q0 98 70 218q38 65 129 181q70 89 70 111q0 15 -20 15q-97 0 -346 -291q-30 -34 -305 -384l-257 -10q150 240 496 834q-143 -169 -417 -515l-27 17q29 39 196 243q189 231 325 400
q11 12 29 36l203 368l241 10q-230 -396 -687 -1189q423 525 564 525q61 0 96 -51q31 -45 31 -109q0 -96 -66 -217q-38 -69 -122 -183q-66 -89 -66 -107q0 -24 37 -24q74 0 188 124q34 36 150 186z" />
  </g>

</svg>
