<?xml version="1.0" standalone="no"?>
<!DOCTYPE svg PUBLIC "-//W3C//DTD SVG 1.1//EN" "http://www.w3.org/Graphics/SVG/1.1/DTD/svg11.dtd" >
<svg viewBox="0 -442 2080 2048">
  <g transform="matrix(1 0 0 -1 0 1606)">
   <path fill="currentColor"
d="M2080 1229q0 -48 -33 -81t-81 -33q-39 0 -69 25t-30 63q0 44 35.5 75t35.5 36q0 23 -38 23q-201 0 -436 -399q-294 -500 -294 -787q0 -130 80 -130q118 0 350 313l27 -18q-253 -325 -376 -325q-117 0 -117 182q0 155 70 331q-275 -354 -606 -475q-129 -47 -234 -47
q-106 0 -182 52q-86 60 -86 161q0 77 52 129.5t129 52.5q50 0 89.5 -30t39.5 -79q0 -46 -32 -74.5t-79 -28.5q-48 0 -88 39t-48 39q-30 0 -30 -55q0 -87 82 -135q68 -40 161 -40q91 0 170 40t165 130q187 196 338 472q174 320 174 544q0 204 -213 204q-173 0 -343 -116
q-151 -105 -253 -265q-106 -167 -106 -300q0 -75 45 -130q49 -58 122 -58q51 0 92 21q93 48 204 230q118 194 118 351q0 41 -12 99l30 6q51 -162 51 -273q0 -191 -130 -330q-133 -142 -322 -142q-101 0 -165.5 63.5t-64.5 164.5q0 140 112 315q106 165 264 273
q178 122 356 122q199 0 313 -141q92 -114 92 -254q0 -60 -19 -144q135 211 232 318q139 154 280 154q68 0 119 -34q59 -39 59 -104z" />
  </g>

</svg>
