<?xml version="1.0" standalone="no"?>
<!DOCTYPE svg PUBLIC "-//W3C//DTD SVG 1.1//EN" "http://www.w3.org/Graphics/SVG/1.1/DTD/svg11.dtd" >
<svg viewBox="0 -442 2048 2048">
  <g transform="matrix(1 0 0 -1 0 1606)">
   <path fill="currentColor"
d="M1805 1340q-71 -80 -125 -172q-67 -113 -118 -303q-43 -157 -85 -315q-103 -319 -366 -474q-170 -100 -374 -100q-145 0 -249 61q-124 73 -124 209q0 80 52.5 134.5t131.5 54.5q53 0 91 -32t38 -84q0 -64 -57 -92q-53 -16 -107 -33q-57 -20 -57 -65q0 -35 55 -70
q77 -49 192 -49q167 0 278 129q60 69 160 275q68 131 197 395q-111 -145 -179 -208q-125 -115 -236 -115q-72 0 -121 56t-49 129q0 103 75 243q18 33 140 224q75 117 75 167q0 97 -181 97q-226 0 -420 -192q-76 -76 -130 -169q-65 -111 -65 -199q0 -121 106 -121
q84 0 179 112q68 81 121 188q50 102 59 214h28q5 -62 5 -82q0 -166 -101 -308q-111 -157 -270 -157t-159 153q0 145 126 303q110 139 254 219q126 70 265 70q130 0 222 -69q102 -77 102 -203q0 -85 -41 -165q-5 -9 -144 -236q-108 -175 -108 -215q0 -29 41 -29
q146 0 397 333q114 151 153 201q90 112 167 189q63 63 133 120z" />
  </g>

</svg>
