<?xml version="1.0" standalone="no"?>
<!DOCTYPE svg PUBLIC "-//W3C//DTD SVG 1.1//EN" "http://www.w3.org/Graphics/SVG/1.1/DTD/svg11.dtd" >
<svg viewBox="0 -442 2354 2048">
  <g transform="matrix(1 0 0 -1 0 1606)">
   <path fill="currentColor"
d="M2354 1106q-275 -159 -557 -589q-100 -153 -194 -338q-26 -57 -80 -168q-18 -35 -41 -35q-31 0 -71 63q-53 84 -53 233q0 156 69 298q72 148 232 375q188 267 246 367q-344 -432 -557 -654q-320 -333 -660 -554q-186 -121 -226 -121q-32 0 -32 25q0 14 45 59
q493 488 622 937q32 111 32 198q0 201 -205 201q-236 0 -478 -211q-251 -217 -251 -449q0 -81 46 -137q49 -60 129 -60q135 0 282 229q140 217 140 369q0 32 -9 95l28 6q48 -138 48 -258q0 -154 -85.5 -277.5t-230.5 -174.5q-71 -25 -137 -25q-110 0 -176.5 62.5
t-66.5 171.5q0 182 156 364q134 158 319 251q159 80 322 80q264 0 364 -195q38 -74 38 -157q0 -358 -533 -793l-310 -253q460 250 907 744q137 166 413 497q42 50 86 106q40 51 56 51q26 0 26 -22q0 -9 -69 -179q-187 -461 -230 -575q-129 -337 -193 -586q189 371 343 587
q228 320 478 467z" />
  </g>

</svg>
