<?xml version="1.0" standalone="no"?>
<!DOCTYPE svg PUBLIC "-//W3C//DTD SVG 1.1//EN" "http://www.w3.org/Graphics/SVG/1.1/DTD/svg11.dtd" >
<svg viewBox="-239 -442 2048 2048">
  <g transform="matrix(1 0 0 -1 0 1606)">
   <path fill="currentColor"
d="M1132 1269q0 -62 -52 -155q-143 -257 -612 -589q-75 -169 -235 -502q167 31 383 308l27 -18q-108 -140 -184 -205q-117 -101 -243 -120q-102 -226 -226 -430h-229q120 202 275 505q-44 41 -44 89q0 39 28 71t66 32q18 0 45 -8q33 68 101 203q-153 -73 -206 -148l-26 18
q59 87 252 176q148 291 318 521q263 358 444 358q47 0 82.5 -29.5t35.5 -76.5zM1046 1310q0 34 -41 34q-97 0 -192 -136q-65 -93 -166 -303q-54 -108 -156 -325q211 151 319 291q142 182 210 352q26 65 26 87z" />
  </g>

</svg>
