<?xml version="1.0" standalone="no"?>
<!DOCTYPE svg PUBLIC "-//W3C//DTD SVG 1.1//EN" "http://www.w3.org/Graphics/SVG/1.1/DTD/svg11.dtd" >
<svg viewBox="0 -442 2103 2048">
  <g transform="matrix(1 0 0 -1 0 1606)">
   <path fill="currentColor"
d="M2103 1276q-164 -238 -320 -515l-219 -391q-40 -68 -113 -205q-44 -91 -44 -126q0 -19 21 -19q46 0 131 62q125 91 233 252l28 -17q-85 -119 -180 -208q-135 -125 -232 -125q-65 0 -105 58q-36 52 -36 120q0 65 43 167q-121 -158 -183 -219q-131 -130 -239 -130
q-91 0 -144 88q-44 74 -44 171q0 123 79 266q31 56 153 227q124 175 178 269q85 150 85 239q0 83 -85 124q-64 31 -158 31q-266 0 -511 -237t-245 -456q0 -73 45 -122.5t118 -49.5q140 0 282 237q130 217 130 368q0 23 -10 89l31 4q46 -140 46 -257q0 -208 -151 -350
q-133 -125 -298 -125q-100 0 -161 53q-65 55 -65 154q0 169 146 356q126 162 293.5 264t343.5 102q168 0 280 -89q120 -97 120 -261q0 -119 -79 -261q-9 -16 -78 -118q-33 -49 -138 -201q-218 -316 -218 -433q0 -51 55 -51q39 0 98 30q150 77 354 393q31 48 270 445
q118 196 250 381q107 11 243 16z" />
  </g>

</svg>
