<?xml version="1.0" standalone="no"?>
<!DOCTYPE svg PUBLIC "-//W3C//DTD SVG 1.1//EN" "http://www.w3.org/Graphics/SVG/1.1/DTD/svg11.dtd" >
<svg viewBox="0 -442 2048 2048">
  <g transform="matrix(1 0 0 -1 0 1606)">
   <path fill="currentColor"
d="M1356 1215q-676 -1040 -676 -1176q0 -15 20 -15q74 0 186 123q34 37 149 187l27 -18q-50 -59 -149 -178q-63 -75 -105 -106q-64 -46 -139 -46q-60 0 -100 38.5t-40 97.5q0 47 22 108q-173 -244 -346 -244q-82 0 -136.5 56t-54.5 138q0 74 42 162l-28 -37l-28 17
q280 392 545 392q148 0 173 -148l389 640zM689 538q0 47 -23 86q-27 46 -70 46q-83 0 -257 -262q-169 -253 -169 -344q0 -39 43 -39q156 0 357 299q114 170 117 188q2 12 2 26z" />
  </g>

</svg>
