<?xml version="1.0" standalone="no"?>
<!DOCTYPE svg PUBLIC "-//W3C//DTD SVG 1.1//EN" "http://www.w3.org/Graphics/SVG/1.1/DTD/svg11.dtd" >
<svg viewBox="-437 -442 2048 2048">
  <g transform="matrix(1 0 0 -1 0 1606)">
   <path fill="currentColor"
d="M773 1058q0 -56 -42 -97.5t-98 -41.5q-42 0 -73 31.5t-31 73.5q0 55 42.5 96t98.5 41q103 0 103 -103zM647 313q-109 -141 -184 -206q-119 -104 -243 -119q-96 -203 -229 -315q-136 -115 -283 -115q-55 0 -96 24q-49 28 -49 79q0 93 179 202q115 71 266 128
q10 20 323 626q-164 -121 -304 -315l-27 17q144 207 354 352l256 29q-237 -393 -372 -677q110 20 217 118q63 58 166 190zM-15 -55q-110 -52 -212 -126q-145 -105 -145 -175q0 -25 21.5 -41t46.5 -16q127 0 289 358z" />
  </g>

</svg>
