<?xml version="1.0" standalone="no"?>
<!DOCTYPE svg PUBLIC "-//W3C//DTD SVG 1.1//EN" "http://www.w3.org/Graphics/SVG/1.1/DTD/svg11.dtd" >
<svg viewBox="0 -442 2048 2048">
  <g transform="matrix(1 0 0 -1 0 1606)">
   <path fill="currentColor"
d="M1836 1381q0 -80 -97 -191q-88 -101 -172 -143q-50 -25 -127 -39q-82 -101 -168 -213q-31 -43 -99 -125q-70 -76 -173 -157q174 -114 174 -282q0 -38 -9 -79q93 29 144.5 65.5t108.5 113.5l26 -17q-58 -84 -123 -127q-59 -39 -164 -69q-84 -241 -263 -394
q-194 -166 -436 -166q-198 0 -198 185q0 201 613 351q76 151 76 282q0 47 -20 88q-195 -124 -333 -124q-36 0 -65 18q-33 21 -33 56q0 78 97 125q79 38 167 38q104 0 207 -48q119 93 188 169q34 37 239 309h-15q-83 0 -211 71l-230 132q-140 71 -253 71q-152 0 -249 -129
q-89 -118 -89 -275q0 -61 18 -154l-32 -4q-18 91 -18 157q0 236 169 394q166 155 403 155q269 0 462 -240q43 -53 45 -56q28 -31 55 -46q101 151 146 205q115 140 189 140q50 0 50 -47zM1799 1372q0 24 -23 24q-52 0 -161 -134q-81 -100 -131 -187q16 -2 28 -2q73 0 180 113
t107 186zM913 489q-54 57 -151 57q-69 0 -122 -21q-73 -28 -73 -85q0 -60 70 -60q96 0 276 109zM857 60q-155 -41 -310 -123q-215 -113 -215 -215q0 -129 126 -129q102 0 236 186q89 124 163 281z" />
  </g>

</svg>
