<?xml version="1.0" standalone="no"?>
<!DOCTYPE svg PUBLIC "-//W3C//DTD SVG 1.1//EN" "http://www.w3.org/Graphics/SVG/1.1/DTD/svg11.dtd" >
<svg viewBox="0 -442 2066 2048">
  <g transform="matrix(1 0 0 -1 0 1606)">
   <path fill="currentColor"
d="M2066 1388q-184 -52 -356 -227q-97 -99 -267 -336q-120 -166 -172 -235q-100 -131 -187 -224q-209 -224 -436 -354q-86 -49 -106 -49q-19 0 -19 18q0 3 46 80q49 83 84 301q20 129 29 174q20 99 46 171q84 231 322 483q-89 -69 -271 -202q-106 -72 -173 -72q-43 0 -74 25
q-34 27 -34 69q0 57 64 146t64 96q0 13 -22 13q-119 0 -412 -353l-25 18q99 129 203 226q153 142 248 142q45 0 75 -29t30 -74q0 -61 -58 -148.5t-58 -89.5q0 -11 17 -11q64 0 313 193q168 131 310 258l21 -18q-32 -43 -92 -133q-70 -114 -135 -378q-39 -157 -64 -234
q-116 -355 -369 -608q259 137 549 486q23 27 255 340q225 303 392 436q107 85 256 129z" />
  </g>

</svg>
