<?xml version="1.0" standalone="no"?>
<!DOCTYPE svg PUBLIC "-//W3C//DTD SVG 1.1//EN" "http://www.w3.org/Graphics/SVG/1.1/DTD/svg11.dtd" >
<svg viewBox="0 -442 2048 2048">
  <g transform="matrix(1 0 0 -1 0 1606)">
   <path fill="currentColor"
d="M929 673q0 -40 -48 -104q-73 -97 -218 -174q-97 -159 -196 -232q96 -40 122 -99q121 36 298 265l27 -18q-185 -238 -311 -277q18 -55 18 -107q0 -162 -143 -270q-131 -99 -299 -99q-37 0 -63 34q-24 31 -24 69q0 103 143 221q115 94 239 144q7 27 7 47q0 45 -35 72
q-77 -56 -102 -69q-57 -31 -118 -31q-60 0 -60 48q0 43 74 69q56 19 110 19q42 0 88 -8q96 76 179 212q-84 -23 -139 -23q-66 0 -110 30q-51 35 -51 98q0 45 33.5 106.5t33.5 65.5q0 6 -6 6q-74 0 -352 -368l-26 18q94 125 133 173q86 104 151 157q77 62 143 62
q104 0 104 -105q0 -53 -44.5 -120t-44.5 -73q0 -18 53 -18q55 0 138 19q183 297 259 297q37 0 37 -37zM465 -8q-323 -181 -323 -332q0 -65 37 -65q74 0 174 163q74 122 112 234z" />
  </g>

</svg>
