<?xml version="1.0" standalone="no"?>
<!DOCTYPE svg PUBLIC "-//W3C//DTD SVG 1.1//EN" "http://www.w3.org/Graphics/SVG/1.1/DTD/svg11.dtd" >
<svg viewBox="-24 -442 2048 2048">
  <g transform="matrix(1 0 0 -1 0 1606)">
   <path fill="currentColor"
d="M953 610q0 -86 -88 -86q-58 0 -81 48q-1 3 -8 37q-4 26 -12 26q-25 0 -91 -105q-50 -78 -78 -136v-20q0 -65 -43 -246q-9 -38 -9 -65q0 -40 34 -40q70 0 184 125q36 39 148 184l26 -17l-14 -19q-136 -185 -220 -252q-73 -58 -149 -58q-154 0 -200 267
q-144 -267 -262 -267q-45 0 -79.5 30.5t-34.5 75.5q0 93 96 93q57 0 82 -47.5t34 -47.5q40 0 160 226q8 100 43 273q8 40 8 58q0 21 -22 21q-75 0 -351 -365l-26 17q133 176 186 234q143 156 236 156q134 0 169 -244q136 244 255 244q45 0 76 -27.5t31 -72.5z" />
  </g>

</svg>
