<?xml version="1.0" standalone="no"?>
<!DOCTYPE svg PUBLIC "-//W3C//DTD SVG 1.1//EN" "http://www.w3.org/Graphics/SVG/1.1/DTD/svg11.dtd" >
<svg viewBox="0 -442 2048 2048">
  <g transform="matrix(1 0 0 -1 0 1606)">
   <path fill="currentColor"
d="M976 315q-58 -74 -91 -101q-57 -48 -123 -48q-31 0 -61 11q-189 -191 -330 -191q-91 0 -141 54t-50 145q0 86 58 199q33 62 109 173q58 85 58 104q0 7 -16 7q-85 0 -361 -365l-28 17q98 129 134 173q85 103 150 156q75 61 138 61q119 0 119 -152q0 -113 -107 -298.5
t-107 -207.5q0 -34 51 -34q114 0 295 174q-71 46 -71 150q0 154 116 288q69 80 128 80q76 0 76 -95q0 -105 -65 -222q-37 -67 -133 -192q20 -5 37 -5q57 0 109 45q25 22 80 91zM864 508q0 34 -35 34q-66 0 -129 -79q-61 -75 -61 -143q0 -66 53 -104q172 205 172 292z" />
  </g>

</svg>
