<?xml version="1.0" standalone="no"?>
<!DOCTYPE svg PUBLIC "-//W3C//DTD SVG 1.1//EN" "http://www.w3.org/Graphics/SVG/1.1/DTD/svg11.dtd" >
<svg viewBox="0 -442 2048 2048">
  <g transform="matrix(1 0 0 -1 0 1606)">
   <path fill="currentColor"
d="M809 316l-15 -20q-143 -191 -219.5 -250.5t-157.5 -59.5q-65 0 -107.5 49t-42.5 115q0 107 108.5 284.5t108.5 197.5q0 14 -112 71q-66 -68 -194 -207q-51 -60 -150 -192l-28 17q53 74 168 211q59 63 177 188q-23 25 -23 53t25 54t52 26q37 0 37 -36q0 -24 -43 -90
q62 -28 125 -57q84 -38 112 -64.5t28 -67.5q0 -45 -27 -103q-26 -47 -51 -94q-145 -278 -145 -299q0 -18 18 -18q97 0 328 309z" />
  </g>

</svg>
