<?xml version="1.0" standalone="no"?>
<!DOCTYPE svg PUBLIC "-//W3C//DTD SVG 1.1//EN" "http://www.w3.org/Graphics/SVG/1.1/DTD/svg11.dtd" >
<svg viewBox="0 -442 2048 2048">
  <g transform="matrix(1 0 0 -1 0 1606)">
   <path fill="currentColor"
d="M1221 315l-15 -19l-104 -132q-68 -83 -115 -119q-77 -59 -160 -59q-151 0 -151 173q0 95 67 209q34 58 123 173q67 85 67 110q0 16 -21 16q-162 0 -615 -652l-276 -30q370 551 370 665q0 18 -14 18q-75 0 -350 -365l-27 17q95 125 134 173q86 105 150 156q76 61 139 61
q120 0 120 -131q0 -80 -50 -190q-19 -42 -93 -177q185 242 301 361q135 137 225 137q64 0 101 -47q34 -43 34 -108q0 -75 -34 -163q-16 -41 -119 -192q-96 -141 -96 -157q0 -21 33 -21q85 0 197 119q30 32 152 191z" />
  </g>

</svg>
