<?xml version="1.0" standalone="no"?>
<!DOCTYPE svg PUBLIC "-//W3C//DTD SVG 1.1//EN" "http://www.w3.org/Graphics/SVG/1.1/DTD/svg11.dtd" >
<svg viewBox="0 -442 2048 2048">
  <g transform="matrix(1 0 0 -1 0 1606)">
   <path fill="currentColor"
d="M1388 315q-56 -72 -85 -96q-54 -46 -115 -46q-32 0 -65 12q-181 -199 -326 -199q-78 0 -130 59q-49 56 -49 135q0 106 105 308q-85 -116 -169 -232q-105 -138 -195 -208q-64 -50 -133 -50q-63 0 -99.5 43t-36.5 107q0 124 219 486q-108 -98 -282 -331l-27 17
q56 75 173 219q52 59 157 157l270 15q-204 -294 -333 -562q-38 -79 -38 -97q0 -20 24 -20q143 0 569 664l272 15q-75 -106 -199 -335q-143 -265 -143 -331q0 -27 45 -27q123 0 299 186q-54 45 -54 142q0 137 95 272q77 109 146 109q74 0 74 -93q0 -163 -213 -424
q21 -7 43 -7q71 0 174 129zM1289 525q0 33 -33 33q-50 0 -107 -69q-66 -80 -66 -173q0 -55 34 -88q51 58 105 143q67 107 67 154z" />
  </g>

</svg>
