<?xml version="1.0" standalone="no"?>
<!DOCTYPE svg PUBLIC "-//W3C//DTD SVG 1.1//EN" "http://www.w3.org/Graphics/SVG/1.1/DTD/svg11.dtd" >
<svg viewBox="-2 -442 2048 2048">
  <g transform="matrix(1 0 0 -1 0 1606)">
   <path fill="currentColor"
d="M714 316q-122 -165 -192 -225q-123 -105 -269 -105q-101 0 -173 49q-82 56 -82 152q0 104 94 104q37 0 66 -25t29 -61q0 -49 -53 -78.5t-53 -39.5q0 -19 24 -32q20 -11 40 -11q75 0 163 171q75 145 75 310q0 28 -7 90q-7 58 -6 89q-207 -222 -342 -400l-28 17
q116 154 371 434q19 116 97 116q26 0 26 -21q0 -16 -87 -109q-1 -15 -1 -16q0 -40 80 -181t80 -244q0 -75 -35 -154q45 41 156 187z" />
  </g>

</svg>
