<?xml version="1.0" standalone="no"?>
<!DOCTYPE svg PUBLIC "-//W3C//DTD SVG 1.1//EN" "http://www.w3.org/Graphics/SVG/1.1/DTD/svg11.dtd" >
<svg viewBox="0 -442 2048 2048">
  <g transform="matrix(1 0 0 -1 0 1606)">
   <path fill="currentColor"
d="M1016 704q-92 -153 -376 -658q134 29 331 283l28 -17q-189 -246 -342 -297q31 -83 31 -169q0 -122 -60 -201q-67 -87 -185 -87q-136 0 -136 140q0 147 132 393q-127 -110 -222 -110q-83 0 -134 65q-47 61 -47 146q0 72 36 168l-45 -60l-27 17q279 393 551 393
q145 0 159 -133l61 105zM676 578q0 39 -22 67t-60 28q-95 0 -248 -259q-146 -248 -146 -365q0 -35 35 -35q65 0 156 77q84 72 152 186q133 225 133 301zM655 -146q0 84 -31 165q-180 -337 -180 -400q0 -26 28 -26q91 0 141 89q42 74 42 172z" />
  </g>

</svg>
