<?xml version="1.0" standalone="no"?>
<!DOCTYPE svg PUBLIC "-//W3C//DTD SVG 1.1//EN" "http://www.w3.org/Graphics/SVG/1.1/DTD/svg11.dtd" >
<svg viewBox="0 -442 2048 2048">
  <g transform="matrix(1 0 0 -1 0 1606)">
   <path fill="currentColor"
d="M1018 1387q-81 -136 -287 -463q-58 -92 -223 -380q-73 -123 -210 -374q-50 -99 -50 -128q0 -18 20 -18q76 0 195 144l136 165l28 -17q-141 -178 -166 -204q-121 -126 -216 -126q-62 0 -100 40.5t-38 103.5q0 80 57 197q59 122 277 489q-141 -168 -413 -511l-28 17
q94 127 245 308q126 150 252 301q65 80 150 216q126 203 139 223z" />
  </g>

</svg>
