<?xml version="1.0" standalone="no"?>
<!DOCTYPE svg PUBLIC "-//W3C//DTD SVG 1.1//EN" "http://www.w3.org/Graphics/SVG/1.1/DTD/svg11.dtd" >
<svg viewBox="0 -442 2048 2048">
  <g transform="matrix(1 0 0 -1 0 1606)">
   <path fill="currentColor"
d="M1698 315l-15 -19l-104 -132q-68 -82 -116 -119q-77 -59 -148 -59q-140 0 -140 163q0 101 56 213q11 22 105 155q80 112 80 139q0 16 -21 16q-57 0 -166 -105q-198 -190 -415 -560l-268 -14q89 137 188 321q135 250 135 323q0 22 -18 22q-116 0 -556 -649l-269 -16
q363 556 363 663q0 12 -10 12q-75 0 -351 -366l-28 17q132 174 185 232q144 158 233 158q58 0 91 -40t33 -99q0 -82 -43 -176q-15 -32 -88 -160q100 134 135 180q79 100 146 171q117 124 217 124q60 0 94 -49q29 -42 29 -105q0 -111 -102 -305q328 459 484 459q64 0 102 -54
q33 -47 33 -114q0 -127 -143 -342q-93 -140 -93 -155q0 -22 26 -22q71 0 184 126q75 91 149 183z" />
  </g>

</svg>
