<?xml version="1.0" standalone="no"?>
<!DOCTYPE svg PUBLIC "-//W3C//DTD SVG 1.1//EN" "http://www.w3.org/Graphics/SVG/1.1/DTD/svg11.dtd" >
<svg viewBox="-36 -442 2048 2048">
  <g transform="matrix(1 0 0 -1 0 1606)">
   <path fill="currentColor"
d="M1006 1387q-188 -307 -793 -1383q-129 -8 -249 -16l480 832q-142 -170 -417 -515l-27 17q39 53 160 203q15 18 324 397q26 29 65 80l212 368zM1060 317l-15 -19l-104 -132q-66 -81 -116 -120q-77 -60 -176 -60q-174 0 -174 123q0 59 52.5 155t52.5 124q0 14 -10 28
q-10 -2 -49 -17q-30 -12 -50 -12q-25 0 -25 18q0 37 124 46q24 2 56 29q63 71 127 142q86 93 149 93q46 0 87 -33t41 -78q0 -38 -26.5 -65.5t-64.5 -27.5q-33 0 -59 23t-26 56q0 28 23.5 55.5t23.5 28.5q0 8 -12 8q-47 0 -140 -115q-76 -93 -130 -127q124 -51 124 -156
q0 -51 -33.5 -140t-33.5 -99q0 -20 23 -20q73 0 186 124q28 31 148 185z" />
  </g>

</svg>
