<?xml version="1.0" standalone="no"?>
<!DOCTYPE svg PUBLIC "-//W3C//DTD SVG 1.1//EN" "http://www.w3.org/Graphics/SVG/1.1/DTD/svg11.dtd" >
<svg viewBox="-311 -442 2048 2048">
  <g transform="matrix(1 0 0 -1 0 1606)">
   <path fill="currentColor"
d="M1112 314q-164 -232 -272 -299q-51 -32 -113 -32q-147 0 -147 158q0 109 68 226q34 56 128 173q68 85 68 117q0 13 -18 13q-57 0 -159 -94q-80 -74 -339 -357q-38 -40 -78 -85q-58 -99 -328 -576h-233l750 1256q-141 -168 -413 -512l-26 18q82 110 431 536q44 50 118 144
l118 199h192l-529 -926q103 115 317 335q113 105 190 105q60 0 97 -53q33 -47 33 -109q0 -92 -67 -212q-35 -62 -124 -185q-67 -92 -67 -115q0 -20 31 -20q81 0 195 122q38 41 151 191z" />
  </g>

</svg>
