<?xml version="1.0" standalone="no"?>
<!DOCTYPE svg PUBLIC "-//W3C//DTD SVG 1.1//EN" "http://www.w3.org/Graphics/SVG/1.1/DTD/svg11.dtd" >
<svg viewBox="0 -442 2048 2048">
  <g transform="matrix(1 0 0 -1 0 1606)">
   <path fill="currentColor"
d="M1156 312q-200 -257 -367 -315q-22 -7 -67 -22q-220 -417 -506 -417q-55 0 -96 24q-49 28 -49 79q0 92 171 187q60 32 256 112l222 454q-140 -194 -193 -255q-155 -178 -252 -178q-65 0 -101 52q-32 46 -32 113q0 106 71 230q45 78 132 182q71 85 71 96q0 15 -21 15
q-89 0 -367 -369l-28 17q296 393 412 393q57 0 92 -49q32 -44 32 -104q0 -90 -70 -215q-39 -69 -131 -195q-70 -97 -70 -117q0 -16 22 -16q111 0 436 458q45 64 132 215l256 19q-68 -114 -195 -345l-174 -347q24 8 71 25q135 56 316 290zM481 -80q-345 -160 -345 -276
q0 -25 21.5 -41t46.5 -16q127 0 277 333z" />
  </g>

</svg>
