<?xml version="1.0" standalone="no"?>
<!DOCTYPE svg PUBLIC "-//W3C//DTD SVG 1.1//EN" "http://www.w3.org/Graphics/SVG/1.1/DTD/svg11.dtd" >
<svg viewBox="0 -442 2048 2048">
  <g transform="matrix(1 0 0 -1 0 1606)">
   <path fill="currentColor"
d="M1609 1331q0 -6 -3 -12q-162 -325 -239 -555q-107 -318 -107 -592q0 -156 88 -156l10 1q36 4 37.5 5t11 30t64 61t85.5 32q20 0 20 -12l-2 -5q-30 -90 -146 -157q-109 -63 -210 -63q-86 0 -112 69q-15 39 -15 143q0 230 116 586q-40 -22 -67 -22h-532q-64 -232 -152 -475
q-18 -56 -62 -164q-14 -29 -64 -58.5t-84 -29.5q-18 0 -18 10q0 4 2 9q141 350 244 763q66 266 66 410q0 36 -24 61t-60 25q-171 0 -222 -111q-7 -24 -24 -70q-13 -30 -69 -63q-51 -30 -81 -30q-18 0 -19 11l2 5q12 35 45 104q73 122 215 194q135 68 284 68q122 0 122 -110
q0 -144 -78 -460q39 21 67 21h540q116 316 207 465q17 29 65 57t81 28q18 0 18 -13z" />
  </g>

</svg>
