<?xml version="1.0" standalone="no"?>
<!DOCTYPE svg PUBLIC "-//W3C//DTD SVG 1.1//EN" "http://www.w3.org/Graphics/SVG/1.1/DTD/svg11.dtd" >
<svg viewBox="0 -442 2048 2048">
  <g transform="matrix(1 0 0 -1 0 1606)">
   <path fill="currentColor"
d="M1300 1331q0 -28 -69 -69q-46 -27 -80 -27h-235q-69 -61 -186 -526q-61 -242 -91 -321q-66 -178 -175 -280h357q36 0 48 10q8 8 24 45q13 32 63.5 62.5t86.5 30.5q18 0 19 -11l-2 -5q-42 -105 -163 -175q-114 -65 -232 -65h-647q-17 0 -17 12q0 29 69 69q46 27 80 27h175
q82 0 172 284q18 57 98 378t216 465h-192q-250 0 -310 -57q-17 -16 -37 -65q-13 -31 -64 -62t-85 -31q-13 0 -18 6v10q0 38 46 103q145 204 642 204h489q18 0 18 -12z" />
  </g>

</svg>
