<?xml version="1.0" standalone="no"?>
<!DOCTYPE svg PUBLIC "-//W3C//DTD SVG 1.1//EN" "http://www.w3.org/Graphics/SVG/1.1/DTD/svg11.dtd" >
<svg viewBox="0 -442 2048 2048">
  <g transform="matrix(1 0 0 -1 0 1606)">
   <path fill="currentColor"
d="M1611 1269q0 -14 -3 -23q-9 -28 -63 -60t-85 -32q-17 0 -18 11q1 -9 1 22q0 48 -124 48h-360q-60 -268 -153 -531h489q20 0 20 -10q0 -39 -59 -80q-55 -38 -96 -38q-21 0 -18 20h-378q-97 -248 -200 -448q-60 -115 -201 -184q-47 -23 -70 -17q-23 -12 -43 -12
q-181 0 -233 153q0 1 -1 4q0 28 61 64q58 33 89 33q15 0 25 -21l16 -34q54 -86 169 -89q9 10 24 39q295 584 407 1151q-234 -5 -307 -116q-7 -11 -28 -65q-11 -30 -63.5 -61.5t-85.5 -31.5q-19 0 -19 16q0 29 39 90q83 130 273 208q169 68 343 68h494q158 0 158 -74z" />
  </g>

</svg>
