<?xml version="1.0" standalone="no"?>
<!DOCTYPE svg PUBLIC "-//W3C//DTD SVG 1.1//EN" "http://www.w3.org/Graphics/SVG/1.1/DTD/svg11.dtd" >
<svg viewBox="0 -442 2048 2048">
  <g transform="matrix(1 0 0 -1 0 1606)">
   <path fill="currentColor"
d="M1442 1032q0 -36 -11 -79q-60 -234 -326 -398q-248 -152 -503 -152q-19 0 -19 12q0 29 60 64q56 32 88 32q191 0 333 90q157 99 200 275q10 41 10 71q0 151 -167 229q-128 59 -299 59h-102q-50 -452 -207 -924q-39 -124 -120 -321q-17 -30 -65.5 -59t-82.5 -29
q-18 0 -18 10q0 2 3 9q272 675 330 1314q-234 -4 -305 -111q-10 -23 -31 -70q-14 -30 -65 -61.5t-85 -31.5q-18 0 -19 11l2 5q13 38 51 110q83 119 271 192q166 64 331 64h244q187 0 323 -63q179 -83 179 -248z" />
  </g>

</svg>
