<?xml version="1.0" standalone="no"?>
<!DOCTYPE svg PUBLIC "-//W3C//DTD SVG 1.1//EN" "http://www.w3.org/Graphics/SVG/1.1/DTD/svg11.dtd" >
<svg viewBox="0 -442 2048 2048">
  <g transform="matrix(1 0 0 -1 0 1606)">
   <path fill="currentColor"
d="M1506 889q0 -253 -183 -467q-164 -193 -431 -310q-255 -112 -500 -112h-219q-18 0 -18 12q0 47 121 93q225 554 270 1130q-241 -4 -312 -120q-7 -21 -24 -61q-17 -31 -66 -62t-84 -31q-18 0 -19 11l2 5q13 38 51 110q82 119 271 192q167 64 331 64h185q260 0 423 -95
q202 -117 202 -359zM1338 804q0 228 -190 340q-154 91 -399 91h-42q-57 -563 -294 -1127h108q278 0 494 135q236 148 302 404q21 82 21 157z" />
  </g>

</svg>
