<?xml version="1.0" standalone="no"?>
<!DOCTYPE svg PUBLIC "-//W3C//DTD SVG 1.1//EN" "http://www.w3.org/Graphics/SVG/1.1/DTD/svg11.dtd" >
<svg viewBox="0 -442 2048 2048">
  <g transform="matrix(1 0 0 -1 0 1606)">
   <path fill="currentColor"
d="M1551 70q0 -25 -61 -63q-46 -28 -86 -44q-56 -22 -97 -22q-72 0 -96 65q-43 119 -61 318h-400q-126 0 -133 2q-282 -424 -403 -424q-65 0 -121 48q-59 50 -59 114q0 31 22 88q24 65 49 65l5 -1q5 -3 9 -19q11 -47 57.5 -80.5t96.5 -33.5q90 0 334 360q289 426 495 868h11
v12q0 29 61 64q56 33 88 33q16 0 20 -13q-1 3 -1 -89q0 -983 97 -1222q19 -46 59 -46q9 0 42.5 16t53.5 16q18 0 18 -12zM1140 433q-29 366 -29 753q-190 -398 -445 -789q48 36 93 36h381z" />
  </g>

</svg>
