<?xml version="1.0" standalone="no"?>
<!DOCTYPE svg PUBLIC "-//W3C//DTD SVG 1.1//EN" "http://www.w3.org/Graphics/SVG/1.1/DTD/svg11.dtd" >
<svg viewBox="0 -442 2147 2048">
  <g transform="matrix(1 0 0 -1 0 1606)">
   <path fill="currentColor"
d="M2147 70q0 -37 -98 -84q-90 -43 -134 -43q-77 0 -93 70q-9 41 -9 157q0 70 7 153q27 325 90 697q-273 -328 -529 -615q-180 -201 -319 -328q-11 -10 -17 -10q-11 0 -17 8q-172 243 -317 1032q-68 -316 -187 -635q-213 -570 -345 -570q-48 0 -106 25q-69 30 -69 71
q0 33 22 87q25 63 51 65q77 -67 156 -67q61 0 143 175q27 58 93 235q102 274 160 549q15 71 33 181q3 28 13 81q8 30 51.5 56.5t75.5 26.5q20 0 28 -38q3 -29 6 -57q17 -102 36 -197q114 -573 238 -834q153 145 318 332q340 385 617 724q57 70 67 70q14 0 14 -31
q0 -12 -12 -62q-18 -74 -52 -288q-49 -305 -75 -601q-6 -68 -6 -131q0 -132 9 -172q11 -50 53 -51q51 32 86 32q18 0 18 -13z" />
  </g>

</svg>
