<?xml version="1.0" standalone="no"?>
<!DOCTYPE svg PUBLIC "-//W3C//DTD SVG 1.1//EN" "http://www.w3.org/Graphics/SVG/1.1/DTD/svg11.dtd" >
<svg viewBox="0 -442 2048 2048">
  <g transform="matrix(1 0 0 -1 0 1606)">
   <path fill="currentColor"
d="M1124 1264q0 -49 -41 -151q-38 -94 -72 -143q-21 -30 -65 -56q-47 -28 -81 -28q-18 0 -18 13q0 -1 55 113t55 167q0 99 -113 99q-401 0 -546 -569q-30 -117 -30 -229q0 -178 78 -291q90 -129 261 -129q140 0 238 121q14 20 42 59q21 29 67 56t80 27q17 0 17 -12
q0 -8 -4 -14q-90 -145 -250 -243q-166 -102 -331 -102q-183 0 -281 135q-86 119 -86 309q0 119 31 237q85 323 295 528q233 227 549 227q150 0 150 -124z" />
  </g>

</svg>
