<?xml version="1.0" standalone="no"?>
<!DOCTYPE svg PUBLIC "-//W3C//DTD SVG 1.1//EN" "http://www.w3.org/Graphics/SVG/1.1/DTD/svg11.dtd" >
<svg viewBox="0 -442 2048 2048">
  <g transform="matrix(1 0 0 -1 0 1606)">
   <path fill="currentColor"
d="M1992 1493q0 -32 -22 -87q-26 -63 -52 -63q-200 0 -291 -81l1 1l1 -1q-32 -106 -94 -318q-122 -442 -229 -914l-2 6q-5 -29 -48 -56.5t-74 -27.5q-17 0 -70 84q-98 156 -167 326q-143 354 -272 775q-58 -340 -167 -694q-166 -541 -314 -541q-48 0 -107 24q-72 29 -72 70
q0 32 22 89q25 65 51 65q-8 0 51 -33.5t112 -33.5q56 0 114 134q19 42 65 186q151 466 196 903v-2q3 28 50 56q43 27 73 27q16 0 20 -10q9 -31 27.5 -94t66.5 -213q108 -335 227 -629q73 -180 171 -333q269 1196 395 1318q101 97 323 97q15 0 15 -30z" />
  </g>

</svg>
