<?xml version="1.0" standalone="no"?>
<!DOCTYPE svg PUBLIC "-//W3C//DTD SVG 1.1//EN" "http://www.w3.org/Graphics/SVG/1.1/DTD/svg11.dtd" >
<svg viewBox="0 -442 2048 2048">
  <g transform="matrix(1 0 0 -1 0 1606)">
   <path fill="currentColor"
d="M1559 1332q0 -29 -60 -64q-55 -33 -87 -33q-134 0 -274 -398q-31 -87 -152 -531q-59 -214 -244 -374q-194 -166 -410 -166q-140 0 -233 77q-99 83 -99 220q0 64 13 91q15 31 66 61.5t85 30.5q16 0 17 -11q-13 -22 -13 -86q0 -123 86 -200q83 -75 207 -75q132 0 234 116
q86 98 124 240q18 76 55 227q148 580 382 778h-272q-241 0 -344 -192l-39 -99q-13 -32 -63 -62.5t-85 -30.5q-20 0 -20 12q0 1 1 4q60 200 267 340q200 136 415 136h425q18 0 18 -11z" />
  </g>

</svg>
