<?xml version="1.0" standalone="no"?>
<!DOCTYPE svg PUBLIC "-//W3C//DTD SVG 1.1//EN" "http://www.w3.org/Graphics/SVG/1.1/DTD/svg11.dtd" >
<svg viewBox="0 -442 2048 2048">
  <g transform="matrix(1 0 0 -1 0 1606)">
   <path fill="currentColor"
d="M1144 1256q0 -103 -102 -163q-50 -29 -80 -29q-18 0 -18 13q0 3 16 36t16 58q0 107 -182 107q-246 0 -297 -205q-7 -28 -7 -55q0 -114 116 -175q93 -49 218 -49q19 0 19 -13q0 -27 -62 -63q-58 -34 -89 -34q-155 0 -271.5 -96t-152.5 -248q-7 -29 -7 -56q0 -107 98 -167
q83 -52 196 -52q102 0 173 47q55 36 125 130q22 29 65 53q50 28 80 28q19 0 19 -12q0 -5 -6 -14q-94 -142 -255 -238q-169 -102 -332 -102q-128 0 -222 56q-111 66 -111 186q0 29 9 64q35 139 155 266q109 114 250 184q-183 65 -183 220q0 183 215 326q194 129 387 129
q220 0 220 -132z" />
  </g>

</svg>
