<?xml version="1.0" standalone="no"?>
<!DOCTYPE svg PUBLIC "-//W3C//DTD SVG 1.1//EN" "http://www.w3.org/Graphics/SVG/1.1/DTD/svg11.dtd" >
<svg viewBox="0 -442 2048 2048">
  <g transform="matrix(1 0 0 -1 0 1606)">
   <path fill="currentColor"
d="M1441 1271q0 -57 -49 -87q-28 -17 -51 -17q-22 0 -22 22q0 6 2.5 17t2.5 17q0 81 -67 81q-103 0 -365 -172q-265 -174 -294 -267q-3 -10 -3 -27q0 -147 159 -461q172 -338 296 -338q168 0 237 109q8 19 26 58q30 61 92 61q25 0 25 -16q0 -4 -1 -7q-35 -128 -178 -212
q-130 -75 -272 -75q-152 0 -334 346q-167 318 -167 492q0 92 179 242q157 131 367 241t303 110q114 0 114 -117zM559 1375q0 -218 -79 -533q-72 -287 -161 -548q-29 -90 -92 -249q-14 -29 -65 -59t-84 -30q-19 0 -19 12q0 6 1 8q30 79 87 236q219 623 240 1043
q-102 -48 -120 -48q-19 0 -19 12q0 33 131 102q124 66 161 66q19 0 19 -12z" />
  </g>

</svg>
