<?xml version="1.0" standalone="no"?>
<!DOCTYPE svg PUBLIC "-//W3C//DTD SVG 1.1//EN" "http://www.w3.org/Graphics/SVG/1.1/DTD/svg11.dtd" >
<svg viewBox="0 -442 2048 2048">
  <g transform="matrix(1 0 0 -1 0 1606)">
   <path fill="currentColor"
d="M1228 1256q0 -48 -51 -134q-42 -73 -86 -120q-68 -73 -138 -73q-19 0 -19 14q0 4 63 92.5t63 135.5q0 107 -210 107q-403 0 -526 -480q-23 -90 -23 -179q0 -155 71 -257q82 -118 230 -118q107 0 203 78q86 69 137 175q15 46 49 136q12 31 63 62t85 31q19 0 19 -17
q0 -21 -57 -227q-198 -716 -632 -716q-190 0 -315 86q-5 3 -5 10q0 29 60 64q56 33 88 33q7 0 14 -4q144 -81 291 -81q164 0 300 439q-206 -180 -427 -180q-169 0 -260 120q-82 108 -82 283q0 99 24 188q78 289 299 473q229 191 523 191q249 0 249 -132z" />
  </g>

</svg>
