<?xml version="1.0" standalone="no"?>
<!DOCTYPE svg PUBLIC "-//W3C//DTD SVG 1.1//EN" "http://www.w3.org/Graphics/SVG/1.1/DTD/svg11.dtd" >
<svg viewBox="0 -442 2048 2048">
  <g transform="matrix(1 0 0 -1 0 1606)">
   <path fill="currentColor"
d="M1307 1190q0 -223 -387 -394q135 -23 220 -104q92 -88 92 -220q0 -223 -241 -378q-213 -137 -449 -137q-77 0 -161 33q-100 40 -124 101q2 28 62 64q56 34 87 34q13 0 28 -17q11 -13 23 -26q87 -81 217 -81q168 0 272 74q118 85 118 247q0 142 -111 228q-102 80 -247 80
q-17 0 -50 -5t-50 -5q-18 0 -18 13q0 27 69 68q19 11 47 21q237 84 274 104q161 86 161 217q0 81 -61 128q-56 44 -139 44q-341 0 -558 -833q-70 -268 -157 -405q-19 -30 -65.5 -57.5t-80.5 -27.5q-18 0 -18 11q0 8 3 14q109 223 151 389q107 429 171 885q-85 -48 -118 -48
q-19 0 -19 12q0 31 129 101q124 67 163 67q19 0 19 -14q0 -6 -13 -90q-10 -69 -32 -206q232 310 554 310q97 0 164 -49q75 -55 75 -148z" />
  </g>

</svg>
