<?xml version="1.0" standalone="no"?>
<!DOCTYPE svg PUBLIC "-//W3C//DTD SVG 1.1//EN" "http://www.w3.org/Graphics/SVG/1.1/DTD/svg11.dtd" >
<svg viewBox="0 -442 2048 2048">
  <g transform="matrix(1 0 0 -1 0 1606)">
   <path fill="currentColor"
d="M1230 276q0 -1 -1 -4q-37 -123 -165.5 -219t-256.5 -96q-104 0 -301.5 56t-300.5 56q-94 -113 -183 -113q-19 0 -19 11q0 5 4 11q13 19 72 85q120 133 184 385q24 103 82 306q209 634 653 634q78 0 122 -55q40 -50 40 -130q0 -54 -10 -83q-11 -32 -75 -68.5t-100 -36.5
q-17 0 -18 9q11 28 11 77q0 66 -31 112q-35 53 -98 53q-138 0 -257 -300q-52 -131 -128 -426q-53 -205 -160 -360q36 9 68 9q104 0 304 -56t304 -56q29 0 47 39q11 31 22.5 63t74.5 69.5t99 37.5q17 0 17 -10z" />
  </g>

</svg>
