<?xml version="1.0" standalone="no"?>
<!DOCTYPE svg PUBLIC "-//W3C//DTD SVG 1.1//EN" "http://www.w3.org/Graphics/SVG/1.1/DTD/svg11.dtd" >
<svg viewBox="0 -442 2048 2048">
  <g transform="matrix(1 0 0 -1 0 1606)">
   <path fill="currentColor"
d="M1270 1198q0 -102 -83 -150q-50 -29 -81 -29q-18 0 -18 17q0 1 7 30.5t7 45.5q0 69 -52 105q-89 61 -226 61q-222 0 -265 -175q-7 -28 -7 -54q0 -151 238 -259q157 -71 226 -126q118 -95 118 -217q0 -210 -249 -359q-218 -131 -444 -131q-253 0 -364 176q-32 51 -32 110
q0 157 154 247q46 27 77 27q21 0 21 -12q0 -22 -49 -55q-34 -64 -34 -123q0 -53 28 -97q106 -165 328 -165q329 0 387 234q9 36 9 64q0 113 -114 203q-66 52 -215 120q-253 116 -253 279q0 173 205 305q183 118 366 118q156 0 255 -67q60 -41 60 -123z" />
  </g>

</svg>
