<?xml version="1.0" standalone="no"?>
<!DOCTYPE svg PUBLIC "-//W3C//DTD SVG 1.1//EN" "http://www.w3.org/Graphics/SVG/1.1/DTD/svg11.dtd" >
<svg viewBox="0 -442 2048 2048">
  <g transform="matrix(1 0 0 -1 0 1606)">
   <path fill="currentColor"
d="M1519 1234q0 -32 -6 -54q-33 -123 -604 -465l35 -371q22 -236 130 -236q132 96 172 96q13 0 17 -7q-20 -88 -127 -146q-95 -51 -194 -51q-93 0 -132 88q-24 52 -35 170.5t-33 358.5q-240 -142 -296 -178q-226 -145 -241 -199q-6 -22 -6 -46q0 -86 59 -86q19 0 19 -11
q0 -28 -61 -64q-56 -33 -88 -33q-97 0 -97 108q0 29 7 55q36 132 698 520q-11 105 -32 315q-23 237 -129 237q-40 -31 -81 -61q-52 -35 -92 -35q-18 0 -18 17q0 14 21 48q39 62 134 102q86 37 167 37q93 0 132 -89q23 -51 35 -169l30 -303q181 108 246 151q186 123 198 175
q4 17 4 40q0 87 -61 87q-17 0 -17 12q0 28 61 63q57 33 88 33q97 0 97 -109z" />
  </g>

</svg>
