<?xml version="1.0" standalone="no"?>
<!DOCTYPE svg PUBLIC "-//W3C//DTD SVG 1.1//EN" "http://www.w3.org/Graphics/SVG/1.1/DTD/svg11.dtd" >
<svg viewBox="0 -442 2048 2048">
  <g transform="matrix(1 0 0 -1 0 1606)">
   <path fill="currentColor"
d="M1652 644q-137 -251 -340.5 -447.5t-325.5 -196.5q-154 0 -154 249q0 110 18 219q-94 -169 -200 -291q-156 -177 -282 -177q-94 0 -141 90q-38 72 -38 175q0 241 144 423t335 182q115 0 248 -72l83 412q-66 -14 -112 -14q-72 0 -107 41q-27 33 -43 110q56 -37 169 -37
q145 0 274 51l-167 -838q-28 -141 -28 -240q0 -132 74 -132q76 0 245 170.5t285 362.5zM891 672q-157 104 -266 104q-113 0 -197 -140t-84 -334q0 -155 101 -155q74 0 241 224q46 61 205 301z" />
  </g>

</svg>
