<?xml version="1.0" standalone="no"?>
<!DOCTYPE svg PUBLIC "-//W3C//DTD SVG 1.1//EN" "http://www.w3.org/Graphics/SVG/1.1/DTD/svg11.dtd" >
<svg viewBox="0 -442 2048 2048">
  <g transform="matrix(1 0 0 -1 0 1606)">
   <path fill="currentColor"
d="M1647 243q0 -6 -5 -13q-78 -115 -202 -191q-133 -82 -264 -82q-100 0 -182 150q-65 140 -129 280q-76 150 -158 150q-18 0 -18 12q0 26 62 63q59 35 88 35q155 0 266 70q122 78 157 221q11 46 11 76q0 221 -475 221h-92q-43 -431 -196 -884q-35 -109 -116 -306
q-16 -30 -65 -59t-83 -29q-18 0 -18 10q0 4 2 9q262 625 316 1259q-242 -5 -310 -119q-8 -21 -26 -62q-15 -30 -65.5 -61.5t-84.5 -31.5q-18 0 -19 11l2 5q13 38 51 110q84 120 271 192q166 64 331 64h233q512 0 512 -246q0 -171 -160 -322q-135 -127 -320 -191
q50 -56 102 -172l92 -208q75 -139 152 -139q89 0 139 58q75 89 103 105q48 28 80 28q18 0 18 -13z" />
  </g>

</svg>
