<?xml version="1.0" standalone="no"?>
<!DOCTYPE svg PUBLIC "-//W3C//DTD SVG 1.1//EN" "http://www.w3.org/Graphics/SVG/1.1/DTD/svg11.dtd" >
<svg viewBox="0 -442 2048 2048">
  <g transform="matrix(1 0 0 -1 0 1606)">
   <path fill="currentColor"
d="M1432 1332q0 -4 -67 -188q-108 -296 -222 -750q-43 -171 -43 -289q0 -42 40 -52q47 29 82 29q18 0 18 -12q0 -35 -94 -82q-87 -43 -126 -43q-89 0 -89 72q0 124 39 289q11 47 78 283q-174 -245 -352 -405q-253 -227 -461 -227q-97 0 -147 71q-44 62 -44 163
q0 130 120 414l122 282q81 200 81 279q0 69 -56 69q-51 0 -107 -34t-88 -34q-19 0 -19 13q0 20 45 53q149 110 302 110q97 0 97 -92q0 -79 -80 -271q-60 -136 -121 -272q-128 -299 -128 -432q0 -85 34 -142q41 -69 121 -69q125 0 349 252q154 173 281 370q137 212 192 349
q21 75 76 219q15 30 64.5 59.5t83.5 29.5q19 0 19 -12z" />
  </g>

</svg>
