<?xml version="1.0" standalone="no"?>
<!DOCTYPE svg PUBLIC "-//W3C//DTD SVG 1.1//EN" "http://www.w3.org/Graphics/SVG/1.1/DTD/svg11.dtd" >
<svg viewBox="0 -442 2048 2048">
  <g transform="matrix(1 0 0 -1 0 1606)">
   <path fill="currentColor"
d="M1410 1117q0 -53 -14 -108q-122 -485 -604 -950q-109 -105 -228 -195q-172 -129 -251 -129q-208 0 -250 210q-1 5 -1 12q0 28 18 70q22 49 46 49q9 0 13 -21q35 -171 219 -171q86 0 297 173q12 142 12 304q0 885 -393 885q-16 -25 -52.5 -46t-65.5 -21q-22 0 -22 13
q0 8 10 21q42 54 107 91q70 39 134 39q258 0 362 -349q65 -218 65 -560q0 -120 -8 -243q170 167 326 390q201 288 201 446q0 73 -46.5 119.5t-119.5 46.5q-16 0 -16 32q0 28 18 70q20 48 44 48q94 0 149 -67q50 -63 50 -159z" />
  </g>

</svg>
