<?xml version="1.0" standalone="no"?>
<!DOCTYPE svg PUBLIC "-//W3C//DTD SVG 1.1//EN" "http://www.w3.org/Graphics/SVG/1.1/DTD/svg11.dtd" >
<svg viewBox="0 -442 2048 2048">
  <g transform="matrix(1 0 0 -1 0 1606)">
   <path fill="currentColor"
d="M1021 744q-34 -77 -82 -99q-36 -16 -472 -16l-130 -657q-19 -96 -19 -165q0 -48 19 -83q-75 -25 -117 -25q-63 0 -63 72q0 58 25 183l135 675h-16q-115 0 -199 -56q20 109 75 136q32 15 158 15q39 197 60 264q47 148 129 233q136 140 308 140q56 0 103 -24q58 -29 58 -80
q0 -47 -99 -103q-27 118 -125 118q-131 0 -208 -218q-25 -74 -75 -330h298q150 0 237 20z" />
  </g>

</svg>
