<?xml version="1.0" standalone="no"?>
<!DOCTYPE svg PUBLIC "-//W3C//DTD SVG 1.1//EN" "http://www.w3.org/Graphics/SVG/1.1/DTD/svg11.dtd" >
<svg viewBox="0 -442 2048 2048">
  <g transform="matrix(1 0 0 -1 0 1606)">
   <path fill="currentColor"
d="M1334 649q-134 -249 -349 -433q-254 -216 -497 -216q-144 0 -224 96q-74 89 -74 236q0 216 138 373q143 165 356 165q92 0 152 -44q66 -50 66 -139q0 -136 -164.5 -242t-380.5 -106v-5q0 -220 190 -220q194 0 416 201q170 155 304 370zM753 697q0 97 -87 97
q-121 0 -210 -135q-73 -111 -92 -247q138 7 252 76q137 83 137 209z" />
  </g>

</svg>
