<?xml version="1.0" standalone="no"?>
<!DOCTYPE svg PUBLIC "-//W3C//DTD SVG 1.1//EN" "http://www.w3.org/Graphics/SVG/1.1/DTD/svg11.dtd" >
<svg viewBox="0 -442 2048 2048">
  <g transform="matrix(1 0 0 -1 0 1606)">
   <path fill="currentColor"
d="M1444 1332q0 -6 -12 -21q-202 -250 -491 -536q165 -3 165 -64q0 -28 -33.5 -51.5t-62.5 -23.5q-21 0 -21 26.5t-135 27.5q-294 -284 -574 -523q43 8 83 8q111 0 330 -26.5t330 -26.5q7 0 19 9q38 28 57 79l32 92q13 32 77 69.5t100 37.5q15 0 16 -10q-197 -399 -458 -399
q-111 0 -330 27.5t-330 27.5q-47 0 -102.5 -27.5t-81.5 -27.5q-16 0 -16 11q0 14 32 42q238 208 704 637h-208q-24 0 -24 17q0 25 34 46.5t60 21.5h223q195 198 369 401q-29 -8 -56 -8q-77 0 -227.5 27.5t-227.5 27.5q-87 0 -117 -19q-33 -22 -66 -105q-13 -33 -75.5 -70
t-99.5 -37q-16 0 -18 10l2 5q12 31 44 90q72 104 215 175t272 71q77 0 227.5 -27t226.5 -27l4 -2q76 57 127 57q17 0 17 -12z" />
  </g>

</svg>
