<?xml version="1.0" standalone="no"?>
<!DOCTYPE svg PUBLIC "-//W3C//DTD SVG 1.1//EN" "http://www.w3.org/Graphics/SVG/1.1/DTD/svg11.dtd" >
<svg viewBox="0 -442 2048 2048">
  <g transform="matrix(1 0 0 -1 0 1606)">
   <path fill="currentColor"
d="M1446 636q-134 -102 -298 -102q-74 0 -145 20q11 -38 11 -77q0 -189 -131 -331q-134 -146 -321 -146q-130 0 -215 78t-85 207q0 88 34 261l128 650q-36 -7 -66 -7q-165 0 -164 171q51 -48 159 -48q96 0 255 49l-180 -906q-18 -91 -18 -162q0 -88 45 -147q49 -65 134 -65
q133 0 215 124q73 109 73 249q0 77 -25 149q-77 26 -137 68q-82 57 -82 117q0 29 21 68q206 -16 314 -179q101 -48 210 -48q111 0 229 69z" />
  </g>

</svg>
