<?xml version="1.0" standalone="no"?>
<!DOCTYPE svg PUBLIC "-//W3C//DTD SVG 1.1//EN" "http://www.w3.org/Graphics/SVG/1.1/DTD/svg11.dtd" >
<svg viewBox="0 -442 2048 2048">
  <g transform="matrix(1 0 0 -1 0 1606)">
   <path fill="currentColor"
d="M2041 1137q0 -360 -542 -1042q-147 -185 -164 -185q-15 0 -16 30q-23 668 -186 1199q-264 -519 -628 -991q-58 -75 -179 -221q-15 -17 -29 -17q-10 0 -10 30q0 23 15 70q94 295 94 644q0 592 -304 592q-21 0 -21 14q0 26 51 56q47 27 75 27q326 0 326 -594
q0 -223 -45 -501q370 470 625 975q-11 33 -11 38q0 25 50 55q45 27 73 27q21 0 35 -39l16 -58q166 -553 193 -1067q162 196 298 403q197 301 197 431q0 149 -127 149q-13 0 -13 29q0 32 21 88q24 64 50 64q80 0 121 -66q35 -55 35 -140z" />
  </g>

</svg>
