<?xml version="1.0" standalone="no"?>
<!DOCTYPE svg PUBLIC "-//W3C//DTD SVG 1.1//EN" "http://www.w3.org/Graphics/SVG/1.1/DTD/svg11.dtd" >
<svg viewBox="0 -442 2048 2048">
  <g transform="matrix(1 0 0 -1 0 1606)">
   <path fill="currentColor"
d="M1657 648q-142 -254 -324 -422t-313 -168q-166 0 -166 275q0 52 5 155q-98 -202 -242 -345t-249 -143q-93 0 -141 91q-38 72 -38 175q0 240 145 422t336 182q116 0 250 -72q20 71 163 71q8 0 29 -1q-102 -158 -102 -502q0 -167 79 -167q105 0 283 197q121 134 225 294z
M895 672q-158 104 -267 104q-115 0 -199.5 -139.5t-84.5 -334.5q0 -155 101 -155q76 0 242 224q104 150 208 301z" />
  </g>

</svg>
