<?xml version="1.0" standalone="no"?>
<!DOCTYPE svg PUBLIC "-//W3C//DTD SVG 1.1//EN" "http://www.w3.org/Graphics/SVG/1.1/DTD/svg11.dtd" >
<svg viewBox="0 -442 2048 2048">
  <g transform="matrix(1 0 0 -1 0 1606)">
   <path fill="currentColor"
d="M1464 37q0 -17 -27 -62q-55 -91 -169 -156t-220 -65q-148 0 -425 95.5t-425 95.5q-17 0 -17 14q0 27 61 63q58 33 88 33h26q290 0 424 47q216 76 355 283q136 203 136 435q0 192 -99 319q-108 139 -295 139q-228 0 -402 -202q-167 -195 -167 -426q0 -144 79 -238
q83 -101 224 -101q94 0 191 49q59 30 83 30q19 0 19 -13q0 -22 -66 -64q-177 -112 -358 -112q-158 0 -251 104q-89 100 -89 259q0 304 282 566q278 258 587 258q204 0 321 -142q109 -132 109 -341q0 -319 -235 -577q-213 -233 -536 -338q125 -42 251 -84q145 -43 260 -43
q62 0 82 25q18 38 36 75q16 32 63.5 62t83.5 30q20 0 20 -18z" />
  </g>

</svg>
