<?xml version="1.0" standalone="no"?>
<!DOCTYPE svg PUBLIC "-//W3C//DTD SVG 1.1//EN" "http://www.w3.org/Graphics/SVG/1.1/DTD/svg11.dtd" >
<svg viewBox="0 -442 2048 2048">
  <g transform="matrix(1 0 0 -1 0 1606)">
   <path fill="currentColor"
d="M1568 1400q0 -29 -54 -73q-85 -69 -167 -87q-77 -17 -362 -17q-44 -110 -110 -379q-67 -273 -116 -401q-82 -211 -204 -321h280q17 0 17 -11q0 -27 -73 -70q-69 -41 -100 -41h-439q-17 0 -17 11q0 29 74 71q69 40 102 40q123 0 252 503q77 302 80 312q62 220 108 286
h-428q-88 0 -148 -164q-5 -18 -17.5 -51.5t-80.5 -73.5q-60 -35 -95 -35q-11 0 -15 5v10q0 24 39 99q74 141 194 231q133 99 280 99h708q97 0 140 6q91 62 135 62q17 0 17 -11z" />
  </g>

</svg>
