<?xml version="1.0" standalone="no"?>
<!DOCTYPE svg PUBLIC "-//W3C//DTD SVG 1.1//EN" "http://www.w3.org/Graphics/SVG/1.1/DTD/svg11.dtd" >
<svg viewBox="0 -442 2100 2048">
  <g transform="matrix(1 0 0 -1 0 1606)">
   <path fill="currentColor"
d="M2100 649q-332 -649 -580 -649q-158 0 -158 207q0 88 51 327q22 103 22 133q0 33 -34 33q-84 0 -297 -328q-193 -297 -193 -342q0 -6 3 -15q-60 -16 -72 -16q-72 0 -72 70q0 20 24 124q16 81 49 242q35 171 35 210q0 53 -37 53q-82 0 -243.5 -295.5t-161.5 -351.5
q0 -16 13 -32q-42 -19 -77 -19q-80 0 -80 87q0 8 8 78q43 377 43 466q0 90 -38 134q89 33 125 33q68 0 68 -81q0 -30 -18 -209l-22 -219q274 581 487 581q93 0 93 -134q0 -47 -41 -258l-45 -232q100 210 218 374q179 250 312 250q116 0 116 -136q0 -86 -40 -252t-40 -252
q0 -93 66 -93q147 0 452 548z" />
  </g>

</svg>
