<?xml version="1.0" standalone="no"?>
<!DOCTYPE svg PUBLIC "-//W3C//DTD SVG 1.1//EN" "http://www.w3.org/Graphics/SVG/1.1/DTD/svg11.dtd" >
<svg viewBox="0 -442 2048 2048">
  <g transform="matrix(1 0 0 -1 0 1606)">
   <path fill="currentColor"
d="M1640 648q-314 -605 -574 -605q-175 0 -175 305q0 74 5 144q-83 -171 -190 -304q-152 -188 -279 -188q-88 0 -140 64q-48 59 -48 149q0 127 82 443q22 85 22 111q0 24 -15 49l106 1q69 0 69 -52q0 -33 -45 -189q-63 -219 -63 -325q0 -114 78 -114q126 0 324 318
q161 259 161 368q0 15 -9 29q62 18 107 18q67 0 67 -41q0 -8 -36 -148q-48 -186 -48 -332q0 -168 81 -168q181 0 456 505z" />
  </g>

</svg>
