<?xml version="1.0" standalone="no"?>
<!DOCTYPE svg PUBLIC "-//W3C//DTD SVG 1.1//EN" "http://www.w3.org/Graphics/SVG/1.1/DTD/svg11.dtd" >
<svg viewBox="0 -442 2048 2048">
  <g transform="matrix(1 0 0 -1 0 1606)">
   <path fill="currentColor"
d="M1038 548q0 -212 -145 -368q-148 -160 -359 -160q-110 0 -185 48l-46 -237q-19 -98 -19 -166q0 -45 20 -82q-75 -25 -118 -25q-63 0 -63 72q0 49 26 181l212 1077q-62 -13 -112 -13q-72 0 -106 41q-26 32 -43 109q58 -38 170 -38q140 0 273 53l-59 -296q130 126 269 126
q128 0 209 -99q76 -92 76 -223zM887 484q0 103 -44 176q-53 87 -149 87q-109 0 -233 -120l-88 -441q76 -90 189 -90q146 0 239 124q86 114 86 264z" />
  </g>

</svg>
