<?xml version="1.0" standalone="no"?>
<!DOCTYPE svg PUBLIC "-//W3C//DTD SVG 1.1//EN" "http://www.w3.org/Graphics/SVG/1.1/DTD/svg11.dtd" >
<svg viewBox="0 -442 2048 2048">
  <g transform="matrix(1 0 0 -1 0 1606)">
   <path fill="currentColor"
d="M1066 788q0 -55 -116 -143q-28 60 -82 60q-99 0 -249 -206q-78 -107 -145 -230q-92 -170 -85 -244q-51 -25 -83 -25q-79 0 -79 69q0 38 29 176q24 110 47 220q25 128 25 223q0 43 -26 74q78 27 132 27t54 -67q0 -46 -14 -111q-13 -55 -25 -110l-43 -224q111 215 228 364
q181 229 329 229q39 0 69 -21q34 -24 34 -61z" />
  </g>

</svg>
