<?xml version="1.0" standalone="no"?>
<!DOCTYPE svg PUBLIC "-//W3C//DTD SVG 1.1//EN" "http://www.w3.org/Graphics/SVG/1.1/DTD/svg11.dtd" >
<svg viewBox="0 -442 2048 2048">
  <g transform="matrix(1 0 0 -1 0 1606)">
   <path fill="currentColor"
d="M1434 649q-106 -196 -237 -350q-187 -222 -328 -222q-111 0 -256 139q-120 116 -187 240q-55 -270 -55 -348q0 -45 19 -81q-78 -27 -117 -27q-63 0 -63 72q0 58 25 184l187 945q-70 -26 -120 -26q-90 0 -90 81q0 29 16 94q55 -55 135 -55q104 0 241 66l-170 -863
q90 109 216 221q170 151 247 151q38 0 82 -103q-87 -10 -222 -93q-119 -72 -195 -147q193 -305 336 -305q64 0 132 48q72 51 183 193q95 121 156 223z" />
  </g>

</svg>
