<?xml version="1.0" standalone="no"?>
<!DOCTYPE svg PUBLIC "-//W3C//DTD SVG 1.1//EN" "http://www.w3.org/Graphics/SVG/1.1/DTD/svg11.dtd" >
<svg viewBox="0 -442 2048 2048">
  <g transform="matrix(1 0 0 -1 0 1606)">
   <path fill="currentColor"
d="M1590 649q-126 -251 -279 -417q-156 -170 -257 -170q-129 0 -162 175q-4 23 -18 326q-8 175 -77 175q-111 0 -286.5 -309.5t-175.5 -370.5q0 -21 14 -38q-38 -20 -90 -20q-68 0 -68 61q0 54 17 129q16 63 31 126q2 10 20 99l158 790q-51 -19 -104 -19q-149 0 -148 175
q73 -55 171 -55q136 0 262 55l-125 -633q-32 -123 -89 -372q228 514 466 514q128 0 164 -157q16 -66 16 -257q0 -257 71 -257q76 0 234 204q101 130 192 281z" />
  </g>

</svg>
