<?xml version="1.0" standalone="no"?>
<!DOCTYPE svg PUBLIC "-//W3C//DTD SVG 1.1//EN" "http://www.w3.org/Graphics/SVG/1.1/DTD/svg11.dtd" >
<svg viewBox="-250 -442 2048 2048">
  <g transform="matrix(1 0 0 -1 0 1606)">
   <path fill="currentColor"
d="M740 1184q-32 -101 -121 -177q-127 -109 -175 -109q-31 0 -31 38q0 53 17 96h11q53 0 157 56q94 51 142 96zM470 667q0 -51 -23 -168l-79 -402q-52 -264 -141 -373q-136 -166 -307 -166q-56 0 -107 23q-63 30 -63 79q0 53 101 123q-3 -18 -3 -26q0 -49 33.5 -87t81.5 -38
q123 0 189 186q19 54 66 290l57 289q38 193 38 256q0 44 -25 72q92 22 124 22q58 0 58 -80z" />
  </g>

</svg>
