<?xml version="1.0" standalone="no"?>
<!DOCTYPE svg PUBLIC "-//W3C//DTD SVG 1.1//EN" "http://www.w3.org/Graphics/SVG/1.1/DTD/svg11.dtd" >
<svg viewBox="0 -442 2048 2048">
  <g transform="matrix(1 0 0 -1 0 1606)">
   <path fill="currentColor"
d="M1534 650q-186 -230 -576 -450q-9 -127 -12 -156q-10 -88 -32 -153q-49 -147 -179.5 -240t-286.5 -93q-103 0 -172 39q-85 48 -85 143q0 132 247 280q182 94 365 189l26 271q-66 -135 -193 -250q-147 -134 -275 -134q-86 0 -138 60q-50 57 -50 144q0 211 160.5 390.5
t350.5 179.5q99 0 211 -56q10 65 45 93q25 21 147 31q-62 -129 -124 -621q313 161 508 373zM868 679q-99 106 -219 106q-113 0 -213 -142t-100 -302q0 -113 83 -113q101 0 256 179q117 134 193 272zM795 108l-264 -150q-181 -118 -181 -210q0 -106 153 -106q292 0 292 466z
" />
  </g>

</svg>
