<?xml version="1.0" standalone="no"?>
<!DOCTYPE svg PUBLIC "-//W3C//DTD SVG 1.1//EN" "http://www.w3.org/Graphics/SVG/1.1/DTD/svg11.dtd" >
<svg viewBox="0 -442 2048 2048">
  <g transform="matrix(1 0 0 -1 0 1606)">
   <path fill="currentColor"
d="M1466 635q-123 -86 -249 -86q-89 0 -193 34q2 -16 2 -31q0 -214 -142 -379q-149 -173 -360 -173q-156 0 -252 99.5t-96 255.5q0 176 123.5 307.5t297.5 131.5q30 0 55 -6q-19 31 -19 58q0 37 25 70q188 -15 311 -190q129 -88 266 -88q88 0 192 61zM869 528q0 65 -19 121
q-62 19 -117 62q-31 7 -65 7q-139 0 -239 -125q-93 -116 -93 -259q0 -103 56 -173q60 -75 161 -75q130 0 223 129t93 313z" />
  </g>

</svg>
