<?xml version="1.0" standalone="no"?>
<!DOCTYPE svg PUBLIC "-//W3C//DTD SVG 1.1//EN" "http://www.w3.org/Graphics/SVG/1.1/DTD/svg11.dtd" >
<svg viewBox="-27 -442 2048 2048">
  <g transform="matrix(1 0 0 -1 0 1606)">
   <path fill="currentColor"
d="M1048 780q0 -76 -120 -302q-278 -525 -580 -767q-157 -126 -272 -126q-103 0 -103 87q0 40 18 83q45 -27 105 -27q224 0 428 296q-30 189 -104 377q-85 218 -193 336q56 48 116 48q45 0 85 -47q44 -51 118 -278q60 -183 88 -306q258 408 280 716q134 -17 134 -90z" />
  </g>

</svg>
