<?xml version="1.0" standalone="no"?>
<!DOCTYPE svg PUBLIC "-//W3C//DTD SVG 1.1//EN" "http://www.w3.org/Graphics/SVG/1.1/DTD/svg11.dtd" >
<svg viewBox="0 -442 2048 2048">
  <g transform="matrix(1 0 0 -1 0 1606)">
   <path fill="currentColor"
d="M1424 648q-135 -241 -244 -368q-182 -212 -359 -212q-175 0 -307 208q-155 -213 -193 -414q-92 54 -92 113q0 119 240 374q-48 82 -95 204q-55 142 -55 212q0 65 152 89q-5 -16 -5 -30q0 -141 119 -370q210 240 199 375q31 4 51 4q83 0 83 -45q0 -111 -294 -401
q113 -178 244 -178q230 0 492 476z" />
  </g>

</svg>
