<?xml version="1.0" standalone="no"?>
<!DOCTYPE svg PUBLIC "-//W3C//DTD SVG 1.1//EN" "http://www.w3.org/Graphics/SVG/1.1/DTD/svg11.dtd" >
<svg viewBox="0 -442 2048 2048">
  <g transform="matrix(1 0 0 -1 0 1606)">
   <path fill="currentColor"
d="M1390 651q-171 -272 -509 -514q26 -64 26 -110q0 -187 -119 -325q-125 -144 -309 -144q-91 0 -151 37q-72 44 -72 130q0 103 173 236q124 95 268 162q-64 29 -132 29q-114 0 -235 -56q-2 16 -2 32q0 99 69 125q44 64 157 200l196 237q-81 -23 -157 -33q-125 -16 -151 -22
q-84 -20 -132 -69q16 137 69 187q43 40 230.5 40.5t247.5 51.5q27 -40 27 -86q0 -44 -66 -127q-172 -216 -280 -355q48 7 84 7q119 0 208 -73q290 195 497 479zM791 -51q0 58 -31 113q-120 -61 -224 -141q-148 -116 -148 -198q0 -91 112 -91q119 0 207 100q84 96 84 217z
" />
  </g>

</svg>
