<?xml version="1.0" standalone="no"?>
<!DOCTYPE svg PUBLIC "-//W3C//DTD SVG 1.1//EN" "http://www.w3.org/Graphics/SVG/1.1/DTD/svg11.dtd" >
<svg viewBox="0 -442 2048 2048">
  <g transform="matrix(1 0 0 -1 0 1606)">
   <path fill="currentColor"
d="M1440 539q0 -246 -181 -401q-171 -146 -421 -146q-299 0 -486 212q-180 203 -180 507q0 212 107 414q128 241 321 241q137 0 197 -139q100 97 164 176q133 -121 237 -121q82 0 145 78l25 -23q-152 -180 -281 -180q-94 0 -215 92q-100 -74 -100 -170q0 -97 133 -313
q62 160 234 160q136 0 223 -129q78 -115 78 -258zM1249 563q0 137 -18 201q-35 119 -137 119q-66 0 -112 -57q-40 -48 -50 -117q41 -99 41 -160q0 -121 -84 -221q-75 -90 -195 -142l-12 27q133 76 133 178q0 91 -92 274t-92 287q0 106 131 246q-37 131 -160 131
q-229 0 -229 -559q0 -343 63 -498q101 -247 393 -247q250 0 346 152q74 120 74 386z" />
  </g>

</svg>
