<?xml version="1.0" standalone="no"?>
<!DOCTYPE svg PUBLIC "-//W3C//DTD SVG 1.1//EN" "http://www.w3.org/Graphics/SVG/1.1/DTD/svg11.dtd" >
<svg viewBox="0 -442 2048 2048">
  <g transform="matrix(1 0 0 -1 0 1606)">
   <path fill="currentColor"
d="M1174 291q-51 -117 -164 -205q-121 -94 -242 -94q-114 0 -271.5 98t-224.5 98q-112 0 -174 -112l-26 16q129 228 325 234q56 77 56 149q0 81 -107.5 233.5t-107.5 260.5q0 165 133 297.5t299 132.5q150 0 287 -117q143 -121 143 -268q0 -89 -76 -208t-76 -159
q0 -59 68 -102l-19 -27q-168 98 -168 250q0 67 61.5 180t61.5 178q0 104 -93 174q-85 64 -191 64q-109 0 -196 -66q-95 -71 -95 -176q0 -109 98 -252t98 -223q0 -115 -137 -323q69 -16 229 -116q139 -87 240 -87q80 0 147 56q63 53 91 132z" />
  </g>

</svg>
