<?xml version="1.0" standalone="no"?>
<!DOCTYPE svg PUBLIC "-//W3C//DTD SVG 1.1//EN" "http://www.w3.org/Graphics/SVG/1.1/DTD/svg11.dtd" >
<svg viewBox="0 -442 2048 2048">
  <g transform="matrix(1 0 0 -1 0 1606)">
   <path fill="currentColor"
d="M1452 633q0 -261 -150 -444q-160 -197 -415 -197q-105 0 -209 55q-81 51 -162 103q-87 55 -151 55q-89 0 -168 -113l-29 17q128 221 321 221q52 0 101 -19q67 89 67 152q0 59 -66.5 177.5t-66.5 205.5q0 97 75 193q18 24 146 155q-56 12 -143 12q-140 0 -260 -46
q-160 -62 -160 -179q0 -29 17 -55l-23 -13q-41 47 -41 127q0 167 178 262q145 76 328 76q316 0 558 -212q253 -221 253 -533zM1399 563q0 252 -178 426q-168 164 -424 199q-135 -114 -135 -207q0 -60 70.5 -175t70.5 -204q0 -79 -63 -166q-58 -70 -115 -141l188 -118
q113 -66 209 -66q177 0 282 141q95 127 95 311z" />
  </g>

</svg>
