<?xml version="1.0" standalone="no"?>
<!DOCTYPE svg PUBLIC "-//W3C//DTD SVG 1.1//EN" "http://www.w3.org/Graphics/SVG/1.1/DTD/svg11.dtd" >
<svg viewBox="0 -442 2048 2048">
  <g transform="matrix(1 0 0 -1 0 1606)">
   <path fill="currentColor"
d="M1225 369q-56 -179 -188 -278t-318 -99q-279 0 -454 228q-161 209 -161 497q0 215 76 403q100 246 281 246q143 0 184 -168l158 201q142 -96 239 -96q81 0 136 71l26 -18q-131 -180 -280 -180q-92 0 -201 65q-72 -72 -72 -131t63 -176q1 -3 99 -170q144 190 254 190
q106 0 145 -147l-153 -109q-36 127 -109 127q-53 0 -116 -98q32 -80 32 -145q0 -142 -184 -314l-23 27q70 63 70 147q0 80 -97 243.5t-97 256.5q0 97 83 223q-8 63 -43 108q-40 52 -98 52q-213 0 -213 -461q0 -299 96 -481q125 -238 398 -238q139 0 254 52q137 60 184 174z
" />
  </g>

</svg>
