<?xml version="1.0" standalone="no"?>
<!DOCTYPE svg PUBLIC "-//W3C//DTD SVG 1.1//EN" "http://www.w3.org/Graphics/SVG/1.1/DTD/svg11.dtd" >
<svg viewBox="0 -442 2048 2048">
  <g transform="matrix(1 0 0 -1 0 1606)">
   <path fill="currentColor"
d="M1313 172q-140 -70 -228 -180q-14 25 -101 116q-51 53 -58 160q-171 -97 -205 -120q-115 -75 -176 -156q-153 210 -357 246v18q219 94 290 234q59 114 59 370v191q0 116 -42 199q-54 106 -159 106q-70 0 -132 -54q-65 -56 -65 -124q0 -67 61 -128l112 -106
q61 -69 61 -153q0 -75 -51.5 -141.5t-122.5 -90.5l-13 31q95 31 95 92t-63 119q-58 52 -116 103q-63 71 -63 163q0 131 106 232.5t238 101.5q170 0 262 -108q86 -101 86 -273v-158q0 -196 -84 -306q-43 -58 -241 -212q88 -86 239 -197q150 95 283 168v711q0 183 -135 285
l24 26q74 -57 160 -57q50 0 160 55q119 60 174 68v-47q-215 -25 -215 -391v-605q0 -194 106 -194q35 0 92 43z" />
  </g>

</svg>
