<?xml version="1.0" standalone="no"?>
<!DOCTYPE svg PUBLIC "-//W3C//DTD SVG 1.1//EN" "http://www.w3.org/Graphics/SVG/1.1/DTD/svg11.dtd" >
<svg viewBox="0 -442 2048 2048">
  <g transform="matrix(1 0 0 -1 0 1606)">
   <path fill="currentColor"
d="M1388 714q0 -213 -147 -483q-130 -239 -283 -239q-174 0 -174 269q0 12 6 204q-95 -215 -185 -331q-101 -130 -252 -130q20 71 20 155q0 184 -41 379q-52 242 -142 343q70 32 117 32q171 0 217 -711l1 -21q105 135 178 282q95 188 90 312q63 24 102 24q67 0 67 -50
q0 -8 -28 -168q-18 -103 -18 -253q0 -214 98 -214q90 0 158.5 154.5t68.5 359.5q0 144 -73 174q68 54 129 54q91 0 91 -142z" />
  </g>

</svg>
