<?xml version="1.0" standalone="no"?>
<!DOCTYPE svg PUBLIC "-//W3C//DTD SVG 1.1//EN" "http://www.w3.org/Graphics/SVG/1.1/DTD/svg11.dtd" >
<svg viewBox="0 -442 2048 2048">
  <g transform="matrix(1 0 0 -1 0 1606)">
   <path fill="currentColor"
d="M1454 498q0 -217 -197 -370q-182 -142 -405 -142q-128 0 -247 67q-43 24 -175 125q-87 68 -139 68q-83 0 -146 -117l-28 18q129 207 307 207q37 0 68 -8q91 90 124 202q25 87 25 234q0 15 1 55v64q0 428 -222 428q-66 0 -129 -46q-70 -50 -70 -114q0 -83 110.5 -185
t110.5 -191q0 -190 -194 -254l-8 32q112 41 112 109q0 46 -57 98q-99 92 -105 99q-57 68 -57 151q0 148 106 255.5t255 107.5q206 0 290 -174q236 86 340 184q88 -52 176 -103q84 -65 84 -176q0 -139 -202 -278q272 -102 272 -346zM1233 1030q0 88 -60.5 156.5t-146.5 68.5
q-95 0 -225 -79q39 -134 26 -414q153 19 258 72q148 74 148 196zM1307 367q0 156 -123 263q-118 101 -277 101q-46 0 -82 -8q-17 -136 -105 -227l-192 -166l220 -170q141 -101 245 -101q129 0 221.5 89.5t92.5 218.5z" />
  </g>

</svg>
