<?xml version="1.0" standalone="no"?>
<!DOCTYPE svg PUBLIC "-//W3C//DTD SVG 1.1//EN" "http://www.w3.org/Graphics/SVG/1.1/DTD/svg11.dtd" >
<svg viewBox="0 -442 2048 2048">
  <g transform="matrix(1 0 0 -1 0 1606)">
   <path fill="currentColor"
d="M1290 756l-45 -146q-49 39 -100 39q-122 0 -117 -213q102 -145 102 -293q0 -182 -145 -317q-143 -131 -328 -131q-169 0 -307 121q-143 126 -143 293q0 95 82 239t82 189q0 43 -44 68q-36 22 -81 22l8 30h12q90 0 164 -57q80 -62 80 -149q0 -94 -75 -229t-75 -210
q0 -117 94 -198q90 -76 210 -76q135 0 225 83t90 218q0 114 -77 237q-72 101 -143 202q-77 119 -77 224q0 189 145 396q-37 12 -195 94q-110 57 -210 57q-89 0 -157 -48q-75 -53 -75 -138q0 -68 48 -121t114 -53q67 0 131 47l4 -37q-70 -49 -141 -49q-88 0 -147 70
q-56 66 -56 155q0 135 119 229q111 87 248 87q124 0 305 -92.5t244 -92.5q62 0 98 39.5t33 102.5h35q0 -114 -79.5 -195.5t-193.5 -81.5q-52 0 -92 14q-74 -120 -74 -211q0 -144 209 -393q0 153 22 220q40 122 161 122q70 0 112 -67z" />
  </g>

</svg>
