<?xml version="1.0" standalone="no"?>
<!DOCTYPE svg PUBLIC "-//W3C//DTD SVG 1.1//EN" "http://www.w3.org/Graphics/SVG/1.1/DTD/svg11.dtd" >
<svg viewBox="0 -442 2048 2048">
  <g transform="matrix(1 0 0 -1 0 1606)">
   <path fill="currentColor"
d="M1282 133q-124 -69 -188 -141q-117 89 -164 200q-23 53 -68 250q-60 267 -196 267q-31 0 -172 -43q96 -123 96 -263q0 -125 -135 -239l-234 -172l-135 137l-68 -53l-14 35l203 161l135 -143q102 55 102 150q0 83 -133 306t-133 341q0 203 138 335t343 132t311 -128
q56 -67 112 -236q43 -128 94 -128q22 0 67 12v-34l-373 -107q87 -49 147 -215l82 -278q45 -138 103 -138q30 0 80 35v-43zM1067 872q-121 27 -179 152q-42 106 -83 212q-59 107 -191 107q-121 0 -197 -91q-71 -86 -71 -210q0 -148 129 -344z" />
  </g>

</svg>
