<?xml version="1.0" standalone="no"?>
<!DOCTYPE svg PUBLIC "-//W3C//DTD SVG 1.1//EN" "http://www.w3.org/Graphics/SVG/1.1/DTD/svg11.dtd" >
<svg viewBox="0 -442 2048 2048">
  <g transform="matrix(1 0 0 -1 0 1606)">
   <path fill="currentColor"
d="M1821 942q-128 -28 -175 -96q-42 -61 -42 -197v-280q0 -219 98 -219q43 0 96 49l21 -25l-228 -182q-116 108 -145 195q-21 63 -21 243q0 247 47 337q62 121 275 189q-150 29 -195 132q-17 87 -35 173.5t-108 86.5q-190 0 -190 -411q0 -50 3 -125t3 -93q0 -294 -84 -431
q-68 -111 -324 -296l-135 135l-76 -64l-22 29l221 174l135 -135q101 71 100 363l-2 575q0 274 -153 274q-82 0 -131 -80q-41 -68 -41 -155v-438q0 -264 -107 -405q-58 -78 -321 -273l-125 135l-74 -59l-25 28l218 168l131 -129q114 70 114 350v433q0 425 -217 425
q-78 0 -139.5 -57t-61.5 -135q0 -71 66 -133q60 -52 121 -105q65 -69 65 -157q0 -83 -43 -154q-43 -74 -116 -108l-17 26q92 46 92 123q0 53 -65 108q-112 95 -123 107q-66 76 -66 178q0 150 100 251.5t249 101.5q108 0 196 -64.5t115 -167.5q49 229 254 229q241 0 272 -239
q8 110 71 174.5t173 64.5q181 0 232 -102q15 -30 31 -193q10 -108 91 -116q4 0 9.5 1t7.5 1v-35z" />
  </g>

</svg>
