<?xml version="1.0" standalone="no"?>
<!DOCTYPE svg PUBLIC "-//W3C//DTD SVG 1.1//EN" "http://www.w3.org/Graphics/SVG/1.1/DTD/svg11.dtd" >
<svg viewBox="0 -442 2048 2048">
  <g transform="matrix(1 0 0 -1 0 1606)">
   <path fill="currentColor"
d="M1810 958q-71 0 -136 -32q-79 -39 -79 -103q0 -61 104.5 -173.5t104.5 -217.5q0 -151 -124 -284q-127 -136 -277 -136q-94 0 -206.5 80t-172.5 80q-36 0 -151 -84t-228 -84q-94 0 -213 87t-178 87q-82 0 -135 -88l-27 19q131 198 275 198q26 0 53 -10q120 80 120 363
q0 32 -1.5 89.5t-1.5 79.5q0 502 -222 502q-70 0 -122 -54.5t-52 -125.5q0 -66 61 -125l112 -104q61 -72 61 -172q0 -164 -168 -246l-17 31q105 52 105 118q0 57 -64 114l-118 106q-64 73 -64 169q0 135 103.5 237.5t238.5 102.5q90 0 171 -56q77 -54 118 -138q16 93 86 146
q67 50 162 50q191 0 256 -180q12 86 81 136q65 46 154 46q180 0 230 -105q17 -96 35 -193q19 -102 126 -97v-33zM1706 977q-146 19 -188 115l-32 166q-19 85 -114 85q-74 0 -119 -60q-41 -55 -41 -132q0 -58 6.5 -176.5t6.5 -177.5q0 -174 -38 -289t-140 -256q60 29 114 29
q81 0 194.5 -83t174.5 -83q68 0 115 50.5t47 119.5q0 85 -115 206.5t-115 215.5t78 172q67 67 166 98zM1038 694v262q0 385 -166 385q-78 0 -123 -69q-38 -60 -38 -142q0 -61 6 -183t6 -183q0 -165 -64 -277.5t-204 -205.5q30 -13 164 -106q111 -77 163 -77q60 0 131 68
q125 118 125 528z" />
  </g>

</svg>
