<?xml version="1.0" standalone="no"?>
<!DOCTYPE svg PUBLIC "-//W3C//DTD SVG 1.1//EN" "http://www.w3.org/Graphics/SVG/1.1/DTD/svg11.dtd" >
<svg viewBox="0 -442 2048 2048">
  <g transform="matrix(1 0 0 -1 0 1606)">
   <path fill="currentColor"
d="M1391 961q-217 0 -217 -125q0 -52 99 -164.5t99 -206.5q0 -154 -150.5 -300.5t-306.5 -146.5q-68 0 -155 50q-21 -184 -60 -385h-47q-54 268 -59 456q-108 76 -186 76t-156 -90l-25 22q131 186 320 186q22 0 45 -3v583q0 447 -221 447q-74 0 -145 -57q-76 -60 -76 -132
q0 -62 69 -128q65 -60 129 -119q70 -78 70 -168q0 -80 -52 -147q-49 -63 -126 -95l-7 37q97 29 97 106q0 50 -67 105q-111 93 -124 108q-67 76 -67 174q0 146 99.5 251.5t244.5 105.5q105 0 197 -66q88 -64 130 -164q41 232 250 232q113 0 189 -61q84 -67 84 -177
q0 -93 15 -124q25 -48 110 -46v-34zM1290 987q-111 19 -156 57q-55 47 -55 152q0 65 -33 110q-37 50 -100 50q-98 0 -146 -107q-36 -80 -36 -192v-781q177 -155 289 -155q79 0 133.5 55.5t54.5 134.5q0 87 -103.5 205t-103.5 211q0 97 82 171q71 63 174 89z" />
  </g>

</svg>
