<?xml version="1.0" standalone="no"?>
<!DOCTYPE svg PUBLIC "-//W3C//DTD SVG 1.1//EN" "http://www.w3.org/Graphics/SVG/1.1/DTD/svg11.dtd" >
<svg viewBox="0 -442 2048 2048">
  <g transform="matrix(1 0 0 -1 0 1606)">
   <path fill="currentColor"
d="M1247 729q0 -280 -36 -433q-53 -222 -207 -376q-56 -55 -154 -125q-143 -102 -162 -117q-137 109 -244 109q-101 0 -165 -74l-25 19q147 178 315 178q123 0 222 -103q108 69 151 130q79 110 102 427q11 140 11 463q0 529 -183 529q-151 0 -151 -245q0 -34 3 -90.5
t3 -74.5q0 -267 -41 -359q-48 -105 -254 -257l223 -162q64 46 117 78l25 -27q-128 -73 -248 -201q-161 171 -342 201v21q219 102 278 218q47 93 47 353v217q0 122 -42 209q-55 113 -164 113q-77 0 -138 -55.5t-61 -131.5q0 -54 62 -107q111 -97 115 -102q63 -71 63 -168
q0 -79 -47 -151q-50 -76 -123 -92l-11 30q93 31 93 101q0 52 -63 107q-112 98 -116 104q-63 72 -63 166q0 146 102 246t250 100q220 0 295 -209q36 211 217 211q221 0 300 -244q46 -143 46 -426z" />
  </g>

</svg>
