<?xml version="1.0" standalone="no"?>
<!DOCTYPE svg PUBLIC "-//W3C//DTD SVG 1.1//EN" "http://www.w3.org/Graphics/SVG/1.1/DTD/svg11.dtd" >
<svg viewBox="0 -442 2048 2048">
  <g transform="matrix(1 0 0 -1 0 1606)">
   <path fill="currentColor"
d="M1556 135q-87 -133 -190 -133q-83 0 -170 104q-169 -114 -360 -114q-123 0 -239 60q-28 15 -174 113q-90 60 -149 60q-103 0 -168 -125l-26 17q38 97 110 164q81 75 177 84q65 77 65 147q0 76 -109.5 205t-109.5 235q0 224 229 422q39 -45 105 -45q52 0 153.5 22.5
t153.5 22.5q272 0 447 -220q163 -204 163 -482q0 -277 -145 -451q88 -100 137 -100q57 0 96 59zM1413 649q0 239 -127 384q-134 153 -371 153q-53 0 -158.5 -19.5t-158.5 -19.5q-76 0 -116 53q-20 27 -54 121q-96 -89 -96 -205q0 -86 111.5 -219.5t111.5 -232.5
q0 -146 -147 -297q93 -20 284 -145q169 -111 303 -111q89 0 164 41q-95 139 -168 139q-46 0 -84 -45l-26 22q134 129 206 129q56 0 113 -46q18 -14 90 -89q123 158 123 387z" />
  </g>

</svg>
