<?xml version="1.0" standalone="no"?>
<!DOCTYPE svg PUBLIC "-//W3C//DTD SVG 1.1//EN" "http://www.w3.org/Graphics/SVG/1.1/DTD/svg11.dtd" >
<svg viewBox="0 -442 2048 2048">
  <g transform="matrix(1 0 0 -1 0 1606)">
   <path fill="currentColor"
d="M1372 971l-6 -35q-69 -2 -124 -30q-71 -34 -71 -95q0 -57 99.5 -169.5t99.5 -197.5q0 -181 -188 -322q-173 -130 -361 -130q-119 0 -228 66q-28 16 -162 122q-84 66 -140 66q-85 0 -162 -111l-33 15q164 211 336 211q22 0 45 -3q123 73 123 338v269q0 142 -42 238
q-57 130 -181 130q-65 0 -127 -51q-66 -53 -66 -117q0 -72 65 -128q59 -48 119 -97q64 -65 64 -160q0 -172 -160 -245l-10 28q94 45 94 111q0 44 -68 100q-113 93 -126 107q-68 74 -68 161q0 143 107 244q104 98 248 98q219 0 301 -190q57 195 251 195q178 0 239 -105
q24 -41 48 -198q17 -109 84 -115zM1294 961q-147 33 -190 134q-16 83 -34 164.5t-114 81.5q-176 0 -176 -313q0 -38 5.5 -114t5.5 -115q0 -254 -277 -459q53 -22 214 -161q131 -111 235 -111q98 0 177 65q85 70 85 166q0 90 -97.5 201.5t-97.5 199.5q0 97 87 170
q70 60 177 91z" />
  </g>

</svg>
