<?xml version="1.0" standalone="no"?>
<!DOCTYPE svg PUBLIC "-//W3C//DTD SVG 1.1//EN" "http://www.w3.org/Graphics/SVG/1.1/DTD/svg11.dtd" >
<svg viewBox="0 -442 2048 2048">
  <g transform="matrix(1 0 0 -1 0 1606)">
   <path fill="currentColor"
d="M1339 295q-184 -303 -436 -303q-107 0 -294.5 100.5t-272.5 100.5q-122 0 -201 -142l-31 15q58 104 148 178q105 86 209 86q105 0 229 -66q72 76 72 135q0 54 -65.5 162.5t-65.5 192.5q0 125 176 315q-113 54 -227 109q-135 59 -242 59q-84 0 -149 -50q-70 -55 -70 -136
q0 -74 42.5 -120.5t111.5 -46.5q16 0 32 3l-8 -29q-18 -6 -43 -6q-81 0 -128 61q-44 56 -44 140q0 135 121 232q114 91 252 91q153 0 342.5 -98t275.5 -98q132 0 230 149l28 -18q-186 -271 -366 -271q-49 0 -119 19q-88 -78 -88 -141q0 -55 69.5 -166t69.5 -189
q0 -147 -178 -313q217 -121 323 -121q154 0 267 182z" />
  </g>

</svg>
