<?xml version="1.0" standalone="no"?>
<!DOCTYPE svg PUBLIC "-//W3C//DTD SVG 1.1//EN" "http://www.w3.org/Graphics/SVG/1.1/DTD/svg11.dtd" >
<svg viewBox="0 -442 2048 2048">
  <g transform="matrix(1 0 0 -1 0 1606)">
   <path fill="currentColor"
d="M1393 184q-163 -102 -246 -192q-115 114 -149 202q-31 81 -31 250q0 224 58 318t257 192q-141 27 -182 73q-36 41 -58 185q-19 134 -124 134q-87 0 -135 -84q-40 -70 -40 -164v-533q0 -276 -247 -459q-55 -34 -154 -118l-137 143l-80 -63l-25 28l228 176l139 -143
q88 57 88 248v399q0 232 -24 342q-50 221 -201 221q-82 0 -145.5 -56t-63.5 -136q0 -62 66 -122q62 -55 123 -110q67 -75 67 -174q0 -83 -46.5 -154t-121.5 -104l-6 35q92 50 92 117q0 58 -69 118q-63 56 -127 112q-68 77 -68 175q0 142 106 245.5t248 103.5q107 0 197 -63
q87 -61 131 -163q16 101 78 163q66 67 165 67q192 0 248 -112q3 -5 41 -205q21 -108 129 -103v-33q-153 -11 -205 -136q-32 -79 -32 -259q0 -379 135 -379q45 0 98 49z" />
  </g>

</svg>
