<?xml version="1.0" standalone="no"?>
<!DOCTYPE svg PUBLIC "-//W3C//DTD SVG 1.1//EN" "http://www.w3.org/Graphics/SVG/1.1/DTD/svg11.dtd" >
<svg viewBox="0 -442 2048 2048">
  <g transform="matrix(1 0 0 -1 0 1606)">
   <path fill="currentColor"
d="M1329 1360q-149 -19 -203 -203q-32 -110 -32 -311v-438q0 -242 102 -242q47 0 107 47l12 -39q-169 -88 -246 -182q-106 126 -109 132q-38 62 -38 167q-161 -102 -212 -138q-116 -82 -194 -161q-45 72 -165.5 156t-200.5 98v14q121 65 167 178q35 85 35 231q0 32 -2 97
t-2 98q0 361 -135 361q-42 0 -98 -43l-19 35q113 66 252 184q114 -107 152 -216q32 -91 32 -261q0 -37 1.5 -95.5t1.5 -81.5q0 -124 -34 -192q-41 -83 -169 -180q180 -161 309 -232q94 68 283 195v661q0 208 -129 285l24 37q75 -51 156 -51q65 0 178.5 63.5t175.5 63.5v-37z
" />
  </g>

</svg>
