<?xml version="1.0" standalone="no"?>
<!DOCTYPE svg PUBLIC "-//W3C//DTD SVG 1.1//EN" "http://www.w3.org/Graphics/SVG/1.1/DTD/svg11.dtd" >
<svg viewBox="0 -442 2048 2048">
  <g transform="matrix(1 0 0 -1 0 1606)">
   <path fill="currentColor"
d="M1466 674q0 -288 -168 -480q-177 -202 -460 -202q-124 0 -240 61q-29 15 -173 113q-90 61 -149 61q-103 0 -167 -125l-27 17q39 96 110 163q81 76 177 85q65 77 65 147q0 76 -109.5 204.5t-109.5 233.5q0 226 229 424q37 -45 105 -45q52 0 153.5 22.5t153.5 22.5
q272 0 447 -220q163 -204 163 -482zM1415 653q0 238 -128 383q-135 152 -369 152q-54 0 -159.5 -20.5t-158.5 -20.5q-75 0 -116 54q-23 31 -54 122q-96 -89 -96 -205q0 -86 111.5 -219.5t111.5 -232.5q0 -141 -147 -297q92 -20 284 -146q168 -110 303 -110q200 0 317 177
q101 154 101 363z" />
  </g>

</svg>
