<?xml version="1.0" standalone="no"?>
<!DOCTYPE svg PUBLIC "-//W3C//DTD SVG 1.1//EN" "http://www.w3.org/Graphics/SVG/1.1/DTD/svg11.dtd" >
<svg viewBox="0 -442 2048 2048">
  <g transform="matrix(1 0 0 -1 0 1606)">
   <path fill="currentColor"
d="M1473 1341q-129 -237 -349 -237q-67 0 -229.5 68.5t-271.5 68.5q-187 0 -292 -170q-89 -145 -89 -344q0 -543 678 -543q510 0 510 299q0 85 -62 143t-147 58q-89 0 -231.5 -68.5t-221.5 -68.5q-97 0 -171 56q-81 62 -81 157q0 69 49 112l21 -24q-31 -31 -31 -74
q0 -41 30.5 -66.5t71.5 -25.5q67 0 202 73.5t243 73.5q155 0 259.5 -106.5t104.5 -261.5q0 -222 -191 -354q-169 -115 -401 -115q-302 0 -492 217q-181 207 -181 514q0 255 152 446q164 205 411 205q101 0 261.5 -65.5t234.5 -65.5q116 0 184 109z" />
  </g>

</svg>
