<?xml version="1.0" standalone="no"?>
<!DOCTYPE svg PUBLIC "-//W3C//DTD SVG 1.1//EN" "http://www.w3.org/Graphics/SVG/1.1/DTD/svg11.dtd" >
<svg viewBox="0 -442 2048 2048">
  <g transform="matrix(1 0 0 -1 0 1606)">
   <path fill="currentColor"
d="M1225 240q-108 -85 -144 -117q-79 -68 -129 -131q-108 71 -215 143q-79 67 -135 225q-23 -105 -127 -209q-48 -48 -192 -159l-148 155l-57 -45l-21 29l199 170l156 -158q94 79 133 154q41 80 41 199v166h-271v90h271v36q0 441 -232 441q-87 0 -176 -74l-20 31
q191 109 272 213q264 -110 303 -346q26 106 121 200q50 49 186 146l131 -146l35 31l19 -31l-181 -149l-131 149q-153 -103 -153 -292v-209h293v-90h-293v-101q0 -142 65 -250q77 -127 209 -127q80 0 178 86z" />
  </g>

</svg>
