<?xml version="1.0" standalone="no"?>
<!DOCTYPE svg PUBLIC "-//W3C//DTD SVG 1.1//EN" "http://www.w3.org/Graphics/SVG/1.1/DTD/svg11.dtd" >
<svg viewBox="0 -442 2048 2048">
  <g transform="matrix(1 0 0 -1 0 1606)">
   <path fill="currentColor"
d="M387 1290q0 -39 -42 -101q-34 -46 -69 -91q-106 112 -106 182q0 39 31 65.5t69 26.5q44 0 77 -19q40 -22 40 -63zM446 819q-100 -15 -100 -168v-694q0 -135 72 -172v-33q-38 10 -68 10q-63 0 -150 -45t-122 -47l-8 35q137 41 137 328v655q0 129 -51 129q-37 0 -95 -37v35
q133 83 211 166q95 -119 174 -145v-17z" />
  </g>

</svg>
