<?xml version="1.0" standalone="no"?>
<!DOCTYPE svg PUBLIC "-//W3C//DTD SVG 1.1//EN" "http://www.w3.org/Graphics/SVG/1.1/DTD/svg11.dtd" >
<svg viewBox="0 -442 2048 2048">
  <g transform="matrix(1 0 0 -1 0 1606)">
   <path fill="currentColor"
d="M862 784q-88 -18 -88 -118v-390q0 -64 43 -150.5t43 -139.5q0 -147 -138 -232q-118 -71 -276 -71q-323 0 -323 170q0 36 27 77l159 -36q-18 -34 -18 -70q0 -105 170 -105q108 0 177 44q83 53 83 155q0 45 -39 129q-41 92 -47 133q-176 -76 -309 -170q-222 127 -222 418
q0 207 63 303q36 56 143 117t155 135q140 -137 397 -176v-23zM635 229v486q-29 39 -119 80q-69 30 -137 59q-79 -36 -107 -118q-20 -57 -20 -163q0 -178 18 -263q36 -175 148 -175q43 0 217 94z" />
  </g>

</svg>
