<?xml version="1.0" standalone="no"?>
<!DOCTYPE svg PUBLIC "-//W3C//DTD SVG 1.1//EN" "http://www.w3.org/Graphics/SVG/1.1/DTD/svg11.dtd" >
<svg viewBox="0 -442 2048 2048">
  <g transform="matrix(1 0 0 -1 0 1606)">
   <path fill="currentColor"
d="M946 111q-79 -46 -185 -119q-127 57 -127 323q0 32 4 105q-156 88 -179 88q-19 0 -127 -77v-228q37 -44 99 -92l98 67l12 -35q-102 -63 -190 -151q-95 112 -232 133v18q74 12 74 115v737q0 107 -20 161q-27 75 -107 118l14 31q70 -39 127 -39q59 0 159 41q105 43 157 47
v-39q-191 -35 -191 -258v-267q236 172 274 172q51 0 130 -75.5t79 -126.5q-5 -6 -23 -19q-74 -50 -221 -152q60 -30 120 -61q91 -50 91 -76v-188q0 -155 69 -155q20 0 82 36zM679 703q-14 48 -64 101q-55 57 -100 57q-22 0 -100 -55q-67 -48 -83 -65v-264q31 19 347 226z
" />
  </g>

</svg>
