<?xml version="1.0" standalone="no"?>
<!DOCTYPE svg PUBLIC "-//W3C//DTD SVG 1.1//EN" "http://www.w3.org/Graphics/SVG/1.1/DTD/svg11.dtd" >
<svg viewBox="0 -442 2048 2048">
  <g transform="matrix(1 0 0 -1 0 1606)">
   <path fill="currentColor"
d="M1370 698q0 -309 -184 -502q-186 -196 -494 -196h-606l-25 13q-8 13 -8 26t8 25q21 14 91 14q64 0 64 108v970q0 80 -27 98q-18 12 -103 12l-25 13q-8 13 -8 26q0 38 34 38h605q297 0 484 -173q194 -178 194 -472zM1295 698q0 198 -101 340q-99 137 -272 195
q174 -177 174 -538q0 -405 -163 -578q170 64 266 217.5t96 363.5zM1021 695q0 214 -73 369q-96 202 -285 202q-121 0 -121 -79v-1033q0 -38 36 -59q31 -18 71 -18q372 0 372 618zM492 1268h-219q18 -40 18 -112v-970q0 -68 -19 -111h219q-24 35 -24 79v1033q0 46 25 81z" />
  </g>

</svg>
