<?xml version="1.0" standalone="no"?>
<!DOCTYPE svg PUBLIC "-//W3C//DTD SVG 1.1//EN" "http://www.w3.org/Graphics/SVG/1.1/DTD/svg11.dtd" >
<svg viewBox="0 -442 2048 2048">
  <g transform="matrix(1 0 0 -1 0 1606)">
   <path fill="currentColor"
d="M1448 535q0 -27 -28 -34q-23 -5 -46 -11q-88 -50 -88 -141v-227q0 -16 -19 -30q-79 -58 -249 -96q-148 -33 -269 -33q-314 0 -505 197t-191 512t191 511t505 196q97 0 217 -47q112 -44 173 -44q38 0 51 45.5t41 45.5q35 0 35 -33v-391q0 -36 -35 -36q-24 0 -37 27
q-12 34 -41 101q-50 96 -174 177t-230 81q-187 0 -280 -237q-68 -173 -68 -397q0 -633 355 -633q224 0 224 87v224q0 63 -51 106t-115 43q-34 0 -34 37t34 37h599q35 0 35 -37zM1191 1128v94q-22 -9 -52 -9q-12 0 -25 1q45 -42 77 -86zM1262 497h-268q61 -62 61 -148v-224
q0 -24 -6 -44q107 28 162 63v205q0 80 51 148zM492 1258q-171 -67 -267.5 -221t-96.5 -365q0 -205 90.5 -356.5t252.5 -222.5q-145 177 -145 578q0 390 166 587z" />
  </g>

</svg>
