<?xml version="1.0" standalone="no"?>
<!DOCTYPE svg PUBLIC "-//W3C//DTD SVG 1.1//EN" "http://www.w3.org/Graphics/SVG/1.1/DTD/svg11.dtd" >
<svg viewBox="0 -442 2048 2048">
  <g transform="matrix(1 0 0 -1 0 1606)">
   <path fill="currentColor"
d="M670 88q0 -149 -73 -269q-85 -141 -224 -141q-108 0 -178 93q-64 84 -64 196q0 129 119 262l18 -14q-63 -87 -63 -246q0 -97 31 -165q42 -91 129 -91q161 0 161 252q0 168 -50 288q-69 163 -214 163q-57 0 -143 -43l-2 37q158 67 217 103q137 84 137 173q0 70 -48 115
t-118 45q-78 0 -229 -82v41q189 93 299 178q106 -45 152 -80q79 -60 79 -141q0 -91 -59 -152q-43 -44 -141 -90q118 -49 193 -177q71 -121 71 -255z" />
  </g>

</svg>
