<?xml version="1.0" standalone="no"?>
<!DOCTYPE svg PUBLIC "-//W3C//DTD SVG 1.1//EN" "http://www.w3.org/Graphics/SVG/1.1/DTD/svg11.dtd" >
<svg viewBox="0 -442 2048 2048">
  <g transform="matrix(1 0 0 -1 0 1606)">
   <path fill="currentColor"
d="M1378 535q0 -149 -37 -239q-44 -105 -155 -183q-40 -28 -79 -55q-44 -32 -69 -66q-47 42 -142 92q-105 55 -155 55q-52 0 -135 -50t-112 -97q-211 164 -330 158v24q78 19 78 131v383q0 162 -76 162q-29 0 -76 -33v41q54 35 162 107q117 -44 127 -191q111 63 328 201
q122 -74 147 -178q204 74 322 178q202 -100 202 -440zM1229 506q0 140 -17 208q-33 132 -131 132q-44 0 -112 -33q-53 -28 -107 -55v-461q0 -53 99 -117q92 -59 149 -59q119 0 119 385zM719 336v356q0 148 -113 148q-51 0 -227 -109v-467q0 -33 14 -49t88.5 -55t93.5 -39
q71 0 111 76q33 62 33 139z" />
  </g>

</svg>
