<?xml version="1.0" standalone="no"?>
<!DOCTYPE svg PUBLIC "-//W3C//DTD SVG 1.1//EN" "http://www.w3.org/Graphics/SVG/1.1/DTD/svg11.dtd" >
<svg viewBox="0 -442 2048 2048">
  <g transform="matrix(1 0 0 -1 0 1606)">
   <path fill="currentColor"
d="M1396 39q0 -39 -33 -39h-577q-35 0 -35 39q0 36 35 36q27 0 70 16q51 20 51 41q0 57 -72 253h-424q-27 -123 -27 -189q0 -97 50 -116q22 -5 45 -9q25 -7 25 -32q0 -39 -35 -39h-383q-33 0 -33 39q0 36 33 36q87 0 119 83l460 1200q8 21 35 21q25 0 34 -21l504 -1159
q45 -103 94 -118q11 -2 32 -6q32 -9 32 -36zM1220 75q-23 29 -51 94l-467 1075l-69 -179l37 -84q112 -254 217 -521q10 -25 29 -76q66 -170 66 -252q0 -31 -20 -57h258zM807 459q-97 245 -206 492q-62 -162 -171 -492h377zM332 75q-23 40 -23 121q0 12 1 25l-35 -90
q-12 -30 -33 -56h90z" />
  </g>

</svg>
