<?xml version="1.0" standalone="no"?>
<!DOCTYPE svg PUBLIC "-//W3C//DTD SVG 1.1//EN" "http://www.w3.org/Graphics/SVG/1.1/DTD/svg11.dtd" >
<svg viewBox="0 -442 2048 2048">
  <g transform="matrix(1 0 0 -1 0 1606)">
   <path fill="currentColor"
d="M1283 473l-55 -439q-1 -9 -10 -21q-19 -13 -24 -13h-1109q-42 0 -42 39q0 36 42 36q85 0 108 16q31 20 31 95v978q0 74 -36 93q-21 11 -103 11q-42 0 -42 37q0 38 42 38h1071q33 -13 33 -35v-319q0 -35 -37 -35q-14 0 -31 13q-9 18 -12.5 54.5t-11.5 53.5
q-46 98 -162 150q-99 43 -221 43h-125q-54 0 -54 -106v-429q283 0 283 276q0 36 38 36q37 0 37 -36v-591q0 -33 -37 -33q-38 0 -38 33q0 238 -283 238v-475q0 -106 54 -106h145q130 0 257 90q117 83 183 205q11 21 20.5 65.5t19.5 64.5q18 14 31 14q15 0 27.5 -13t10.5 -28z
M1114 1189v79h-98q59 -34 98 -79zM818 630v143q-40 -48 -98 -76q59 -25 98 -67zM1178 241q-80 -102 -188 -166h168zM480 75q-20 45 -20 106v981q0 61 20 106h-201q20 -39 20 -104v-978q0 -70 -21 -111h202z" />
  </g>

</svg>
