<?xml version="1.0" standalone="no"?>
<!DOCTYPE svg PUBLIC "-//W3C//DTD SVG 1.1//EN" "http://www.w3.org/Graphics/SVG/1.1/DTD/svg11.dtd" >
<svg viewBox="0 -442 2048 2048">
  <g transform="matrix(1 0 0 -1 0 1606)">
   <path fill="currentColor"
d="M1254 366q0 -189 -193 -288q-153 -78 -362 -78h-611q-35 0 -35 39q0 36 67 36q71 0 94 17q28 21 28 94v971q0 81 -41 101q-21 10 -113 10q-35 0 -35 38q0 37 35 37h611q479 0 479 -343q0 -171 -212 -279q129 -37 206 -129q82 -96 82 -226zM1103 1000q0 224 -259 260
q82 -99 82 -260q0 -186 -105 -270q282 134 282 270zM851 1000q0 106 -42 179q-52 89 -150 89q-39 0 -70 -18q-36 -21 -36 -57v-460h2q152 0 220 56q76 63 76 211zM1179 366q0 129 -93 206q-66 55 -205 96q106 -85 106 -302q0 -170 -83 -267q275 70 275 267zM912 366
q0 149 -50 215q-59 77 -203 77h-106v-509q0 -36 37 -57q30 -17 69 -17q253 0 253 291zM500 1268h-204q21 -41 21 -111v-971q0 -70 -21 -111h204q-22 33 -22 74v1044q0 42 22 75z" />
  </g>

</svg>
