<?xml version="1.0" standalone="no"?>
<!DOCTYPE svg PUBLIC "-//W3C//DTD SVG 1.1//EN" "http://www.w3.org/Graphics/SVG/1.1/DTD/svg11.dtd" >
<svg viewBox="0 -442 2048 2048">
  <g transform="matrix(1 0 0 -1 0 1606)">
   <path fill="currentColor"
d="M797 356q0 -119 -106 -215q-99 -77 -197 -153q-88 108 -209 108q-87 0 -150 -69l-26 24q144 158 268 158q96 0 198 -107q103 62 103 177q0 80 -48 138q-51 62 -130 62q-40 0 -77 -41q-11 -12 -54 -76q-107 14 -171.5 85.5t-64.5 179.5q0 106 96 200q89 73 179 146
q69 -101 188 -101q77 0 131 72l31 -24q-138 -152 -248 -152q-100 0 -191 90q-83 -47 -83 -153q0 -73 53 -138q56 -69 127 -69q54 0 125 114q110 -4 183 -75t73 -181z" />
  </g>

</svg>
