<?xml version="1.0" standalone="no"?>
<!DOCTYPE svg PUBLIC "-//W3C//DTD SVG 1.1//EN" "http://www.w3.org/Graphics/SVG/1.1/DTD/svg11.dtd" >
<svg viewBox="0 -442 2048 2048">
  <g transform="matrix(1 0 0 -1 0 1606)">
   <path fill="currentColor"
d="M1234 973q0 -36 -38 -36q-37 0 -37 36q0 127 -116 213q-106 78 -238 80v-1084q0 -74 37 -94q22 -11 101 -11q52 0 52 -38q0 -39 -36 -39h-633q-33 0 -33 39q0 28 29 35q7 1 51 1q64 0 86.5 23.5t22.5 87.5v1080q-104 -1 -196 -52q-97 -55 -139 -145q-8 -50 -27 -117
q-9 -15 -30 -15q-37 0 -37 36v335q0 35 35 35h1112q34 0 34 -35v-335zM1159 1184v84h-108q66 -35 108 -84zM229 1268h-101v-88q42 53 101 88zM751 75q-21 40 -21 107v1086h-173v-1082q0 -69 -23 -111h217z" />
  </g>

</svg>
