<?xml version="1.0" standalone="no"?>
<!DOCTYPE svg PUBLIC "-//W3C//DTD SVG 1.1//EN" "http://www.w3.org/Graphics/SVG/1.1/DTD/svg11.dtd" >
<svg viewBox="0 -442 2048 2048">
  <g transform="matrix(1 0 0 -1 0 1606)">
   <path fill="currentColor"
d="M1278 405l-55 -377q-4 -28 -34 -28h-1102q-34 0 -34 39q0 36 57 36q78 0 96.5 19t18.5 92v975q0 71 -25 91q-20 16 -89 16q-58 0 -58 38q0 37 34 37h581q35 0 35 -37q0 -38 -41 -38q-84 0 -102.5 -16.5t-18.5 -94.5v-971q0 -111 55 -111h135q129 0 254.5 69t188.5 179
q12 36 24 71q17 49 44 49q14 0 26 -12t10 -26zM1171 194q-65 -70 -155 -119h138zM487 75q-21 47 -21 111v971q0 72 15 111h-200q19 -40 19 -107v-975q0 -71 -17 -111h204z" />
  </g>

</svg>
