<?xml version="1.0" standalone="no"?>
<!DOCTYPE svg PUBLIC "-//W3C//DTD SVG 1.1//EN" "http://www.w3.org/Graphics/SVG/1.1/DTD/svg11.dtd" >
<svg viewBox="0 -442 2048 2048">
  <g transform="matrix(1 0 0 -1 0 1606)">
   <path fill="currentColor"
d="M1038 377q0 -199 -175 -308q-148 -93 -359 -93q-48 0 -138.5 28t-138.5 28q-35 0 -74 -28t-45 -28q-38 0 -38 37v409q0 52 38 52q35 0 35 -37v-17q0 -128 118 -248.5t245 -120.5t188 44q71 52 71 174q0 115 -116 203q-66 50 -218 116q-168 73 -252 143q-126 107 -126 248
q0 200 128 304q118 96 323 96q48 0 140.5 -27t140.5 -27q34 0 74 27t47 27q37 0 37 -33v-361q0 -37 -37 -37q-26 0 -43 46q-10 33 -20 67q-33 89 -139 166.5t-200 77.5q-93 0 -153 -54t-60 -146q0 -97 148 -180q27 -15 234 -102q365 -154 365 -446zM868 1170v100
q-36 -17 -73 -20q43 -38 73 -80zM963 377q0 188 -194 308q-179 86 -359 173q-194 102 -194 247q0 75 32 135q-120 -82 -120 -261q0 -145 185 -248l342 -172q185 -116 185 -290q0 -83 -27 -143q150 90 150 251zM220 107q-43 40 -75 88v-108q37 18 75 20z" />
  </g>

</svg>
