<?xml version="1.0" standalone="no"?>
<!DOCTYPE svg PUBLIC "-//W3C//DTD SVG 1.1//EN" "http://www.w3.org/Graphics/SVG/1.1/DTD/svg11.dtd" >
<svg viewBox="0 -442 2048 2048">
  <g transform="matrix(1 0 0 -1 0 1606)">
   <path fill="currentColor"
d="M975 1306q0 -38 -57 -38q-78 0 -96.5 -19t-18.5 -92v-937q0 -186 -128 -282q-113 -85 -305 -85q-119 0 -209 51q-108 61 -108 171q0 57 43 97.5t100 40.5t100 -40.5t43 -97.5q0 -37 -27.5 -82.5t-27.5 -48.5q0 -17 77 -17q47 0 83 34t36 80v1120q0 69 -36 91
q-25 16 -97 16q-66 0 -66 38q0 37 34 37h625q35 0 35 -37zM745 1268h-213q23 -41 23 -107v-1120q0 -50 -25 -92q198 59 198 271v937q0 72 17 111zM264 75q0 24 -20.5 43.5t-47.5 19.5t-47.5 -19.5t-20.5 -43.5q0 -71 83 -113q4 17 30 59q23 37 23 54z" />
  </g>

</svg>
