<?xml version="1.0" standalone="no"?>
<!DOCTYPE svg PUBLIC "-//W3C//DTD SVG 1.1//EN" "http://www.w3.org/Graphics/SVG/1.1/DTD/svg11.dtd" >
<svg viewBox="0 -442 2048 2048">
  <g transform="matrix(1 0 0 -1 0 1606)">
   <path fill="currentColor"
d="M1464 1306q0 -38 -35 -38q-87 0 -123 -87l-497 -1196q-9 -22 -35 -22q-24 0 -34 22l-525 1158q-47 104 -95 118q-11 2 -33 7q-34 11 -34 38q0 37 35 37h579q34 0 34 -37q0 -38 -34 -38q-122 0 -122 -55q0 -122 330 -841q118 276 159 390q93 257 93 399q0 70 -29 93
q-10 7 -54 17q-29 5 -29 35q0 37 34 37h380q35 0 35 -37zM1272 1268h-91q21 -40 21 -107q0 -18 -1 -38l36 87q13 31 35 58zM843 262q-373 798 -373 951q0 31 13 55h-252q23 -28 52 -94l490 -1080z" />
  </g>

</svg>
