<?xml version="1.0" standalone="no"?>
<!DOCTYPE svg PUBLIC "-//W3C//DTD SVG 1.1//EN" "http://www.w3.org/Graphics/SVG/1.1/DTD/svg11.dtd" >
<svg viewBox="0 -442 2048 2048">
  <g transform="matrix(1 0 0 -1 0 1606)">
   <path fill="currentColor"
d="M737 39q0 -39 -35 -39h-614q-35 0 -35 39q0 36 63 36q70 0 91 17q26 22 26 94v975q0 74 -31 93q-21 13 -100 13q-49 0 -49 39q0 37 35 37h614q35 0 35 -37q0 -38 -63 -38q-70 0 -91 -17q-26 -22 -26 -94v-971q0 -78 28 -97q20 -13 102 -13q50 0 50 -37zM502 1268h-214
q20 -39 20 -107v-975q0 -70 -20 -111h213q-19 40 -19 111v971q0 70 20 111z" />
  </g>

</svg>
