<?xml version="1.0" standalone="no"?>
<!DOCTYPE svg PUBLIC "-//W3C//DTD SVG 1.1//EN" "http://www.w3.org/Graphics/SVG/1.1/DTD/svg11.dtd" >
<svg viewBox="0 -442 2048 2048">
  <g transform="matrix(1 0 0 -1 0 1606)">
   <path fill="currentColor"
d="M1400 39q0 -39 -34 -39h-588q-34 0 -34 37q0 38 34 38q133 0 133 30q0 67 -202 355l-40 57l-216 -247q-43 -49 -43 -101q0 -36 23 -65t58 -29t35 -36q0 -39 -34 -39h-405q-34 0 -34 39q0 23 26 33q22 6 45 11q60 18 250 233l244 277q-60 96 -289 428q-26 40 -80 120
q-59 85 -88 104q-30 11 -60 21q-40 14 -40 40q0 37 34 37h569q34 0 34 -37q0 -38 -34 -38q-103 0 -103 -30q0 -47 212 -355l144 191q38 50 38 105q0 68 -53.5 85.5t-53.5 41.5q0 37 36 37h458q34 0 34 -37q0 -30 -40 -40l-64 -8q-127 -26 -279 -227l-170 -224
q438 -679 496 -716q25 -8 50 -17q31 -11 31 -35zM1120 1268h-109q17 -32 19 -80q49 51 90 80zM1229 75q-3 3 -60 84q-29 39 -431 642l-156 232q-96 153 -96 205q0 16 5 30h-248q36 -33 75 -92q36 -56 73 -112q86 -126 307 -458q87 -130 174 -259q114 -182 114 -242
q0 -16 -5 -30h248zM362 75q-24 39 -27 84q-50 -50 -90 -84h117z" />
  </g>

</svg>
