<?xml version="1.0" standalone="no"?>
<!DOCTYPE svg PUBLIC "-//W3C//DTD SVG 1.1//EN" "http://www.w3.org/Graphics/SVG/1.1/DTD/svg11.dtd" >
<svg viewBox="0 -442 2048 2048">
  <g transform="matrix(1 0 0 -1 0 1606)">
   <path fill="currentColor"
d="M1409 1306q0 -28 -29 -37q-26 -5 -51 -11q-92 -37 -92 -246v-519q0 -247 -129 -386q-133 -144 -378 -144q-237 0 -372 118q-144 124 -144 357v723q0 71 -18 89t-94 18q-49 0 -49 38q0 37 34 37h591q34 0 34 -37q0 -30 -29 -36q-7 -2 -53 -2q-63 0 -83 -27
q-17 -22 -17 -84v-714q0 -176 39 -263q58 -129 214 -129q366 0 366 445v516q0 256 -136 256q-36 0 -36 38q0 37 36 37h363q33 0 33 -37zM1228 1268h-69q21 -28 35 -63q14 36 34 63zM561 58q-106 110 -106 385v714q0 69 21 111h-203q16 -38 16 -107v-723q0 -307 272 -380z
" />
  </g>

</svg>
