<?xml version="1.0" standalone="no"?>
<!DOCTYPE svg PUBLIC "-//W3C//DTD SVG 1.1//EN" "http://www.w3.org/Graphics/SVG/1.1/DTD/svg11.dtd" >
<svg viewBox="0 -442 2048 2048">
  <g transform="matrix(1 0 0 -1 0 1606)">
   <path fill="currentColor"
d="M1983 1306q0 -38 -34 -38q-50 0 -79 -82l-425 -1196q-10 -27 -36 -27q-27 0 -37 27l-329 869l-380 -874q-10 -22 -36 -22q-27 0 -37 27l-410 1159q-23 66 -31 81q-21 38 -51 38q-45 0 -45 38q0 37 35 37h483q34 0 34 -37q0 -38 -34 -38q-74 0 -74 -43q0 -119 101 -417
q78 -211 155 -423l250 579l-74 195q-33 86 -79 103q-21 5 -42 12t-21 32q0 37 34 37h539q35 0 35 -37q0 -38 -35 -38q-24 0 -59 -14q-41 -17 -41 -37q0 -107 99 -389q22 -60 151 -395q95 262 120 347q64 214 64 355q0 108 -56 128q-22 5 -45.5 11t-23.5 32q0 37 36 37h344
q34 0 34 -37zM1826 1268h-84q28 -43 27 -133v-9l30 85q12 32 27 57zM1478 306q-293 736 -293 911q0 27 16 51h-247q41 -51 75 -146q25 -72 49 -145l329 -869zM710 281q-141 372 -183 499q-105 313 -105 445q0 23 9 43h-218q13 -25 38 -94l380 -1075z" />
  </g>

</svg>
