<?xml version="1.0" standalone="no"?>
<!DOCTYPE svg PUBLIC "-//W3C//DTD SVG 1.1//EN" "http://www.w3.org/Graphics/SVG/1.1/DTD/svg11.dtd" >
<svg viewBox="0 -442 2048 2048">
  <g transform="matrix(1 0 0 -1 0 1606)">
   <path fill="currentColor"
d="M1513 39q0 -39 -34 -39h-502q-34 0 -34 39q0 24 26 33q1 0 47 7q10 1 10 5q0 12 -55 78l-370 444l-52 -51v-373q0 -71 25 -91q20 -16 89 -16q58 0 58 -36q0 -39 -34 -39h-599q-35 0 -35 39q0 36 57 36q78 0 97 19t19 92v975q0 78 -32 96q-20 11 -106 11q-35 0 -35 38
q0 37 35 37h599q34 0 34 -37q0 -38 -57 -38q-78 0 -96.5 -19t-18.5 -92v-479l419 402q42 40 42 96q0 36 -24 64t-60 28q-32 0 -32 38q0 37 32 37h479q35 0 35 -37q0 -29 -32 -37q-27 -4 -54 -9q-79 -23 -173 -101q-35 -29 -149 -138l-212 -204l507 -609q34 -41 68 -81
q49 -52 83.5 -52t34.5 -36zM1208 1268h-150q27 -42 27 -92v-1q67 56 123 93zM1340 75q0 1 -71 85l-511 614l-111 -106l415 -495q39 -48 39 -89v-9h239zM492 75q-18 39 -18 107v975q0 72 17 111h-208q18 -39 18 -107v-975q0 -71 -17 -111h208z" />
  </g>

</svg>
