<?xml version="1.0" standalone="no"?>
<!DOCTYPE svg PUBLIC "-//W3C//DTD SVG 1.1//EN" "http://www.w3.org/Graphics/SVG/1.1/DTD/svg11.dtd" >
<svg viewBox="0 -442 2048 2048">
  <g transform="matrix(1 0 0 -1 0 1606)">
   <path fill="currentColor"
d="M1834 39q0 -39 -36 -39h-589q-34 0 -34 39q0 29 33 36q13 1 39 4q40 8 68.5 38t28.5 69v986l-483 -1149q-10 -23 -33 -23t-33 23l-484 1149v-954q0 -89 28.5 -116t118.5 -27q36 0 36 -36q0 -39 -36 -39h-370q-35 0 -35 39q0 34 44 36q66 3 83 13q44 24 44 112v1050
q-51 18 -129 18q-34 0 -34 38q0 37 34 37h430q22 0 31 -22l377 -900l379 900q9 22 30 22h444q35 0 35 -37q0 -26 -26 -35q-23 -3 -46 -7q-40 -7 -68.5 -37.5t-28.5 -69.5v-971q0 -52 49 -84q42 -27 97 -27q36 0 36 -36zM1617 75q-40 46 -40 111v971q0 70 38 111h-196v-1082
q0 -68 -38 -111h236zM892 324l-395 944h-145l469 -1113z" />
  </g>

</svg>
