<?xml version="1.0" standalone="no"?>
<!DOCTYPE svg PUBLIC "-//W3C//DTD SVG 1.1//EN" "http://www.w3.org/Graphics/SVG/1.1/DTD/svg11.dtd" >
<svg viewBox="0 -442 2048 2048">
  <g transform="matrix(1 0 0 -1 0 1606)">
   <path fill="currentColor"
d="M1450 672q0 -316 -190 -512q-193 -197 -508 -197t-507 196.5t-192 512.5q0 315 192 511t507 196t506.5 -196t191.5 -511zM1375 672q0 205 -91 356t-254 222q145 -178 145 -579q0 -399 -144 -579q162 71 253 222.5t91 357.5zM1100 671q0 634 -348 634q-350 0 -350 -633
q0 -634 350 -634q348 0 348 633zM473 93q-146 180 -146 579q0 396 144 577q-162 -71 -252.5 -222t-90.5 -355q0 -205 91 -356.5t254 -222.5z" />
  </g>

</svg>
