<?xml version="1.0" standalone="no"?>
<!DOCTYPE svg PUBLIC "-//W3C//DTD SVG 1.1//EN" "http://www.w3.org/Graphics/SVG/1.1/DTD/svg11.dtd" >
<svg viewBox="0 -442 2048 2048">
  <g transform="matrix(1 0 0 -1 0 1606)">
   <path fill="currentColor"
d="M1100 37q0 -37 -35 -37h-430q-36 0 -36 37q0 34 36 36q45 4 52 12q-2 22 -50 83l-190 239l-27 -23v-197q0 -112 59 -112q35 0 35 -38q0 -37 -35 -37h-400q-34 0 -34 37q0 38 34 38q59 0 59 116v1010q0 117 -59 117q-34 0 -34 39q0 36 34 36h306q35 0 35 -34v-875l225 204
q52 47 52 106q0 43 -38 54t-38 39q0 36 34 36h369q35 0 35 -36q0 -39 -35 -39q-95 0 -385 -266l293 -369q110 -138 133 -138q35 0 35 -38zM839 848h-75q7 -21 8 -49q35 28 67 49zM950 75q-131 126 -360 441q-35 -34 -77 -69q158 -192 216 -275q29 -41 34 -97h187zM368 75
q-23 48 -23 112v1131h-155q23 -50 23 -117v-1010q0 -66 -23 -116h178z" />
  </g>

</svg>
