<?xml version="1.0" standalone="no"?>
<!DOCTYPE svg PUBLIC "-//W3C//DTD SVG 1.1//EN" "http://www.w3.org/Graphics/SVG/1.1/DTD/svg11.dtd" >
<svg viewBox="0 -442 2048 2048">
  <g transform="matrix(1 0 0 -1 0 1606)">
   <path fill="currentColor"
d="M1200 37q0 -37 -35 -37h-340v86q-110 -97 -269 -97q-219 0 -361 122q-150 129 -150 345q0 211 135 339t347 128q171 0 298 -91v369q0 117 -58 117q-35 0 -35 39q0 36 35 36h306q34 0 34 -34v-1168q0 -116 58 -116q35 0 35 -38zM1055 75q-23 49 -23 116v1127h-155
q23 -49 23 -117v-1126h155zM825 197v529q-99 122 -260 122q-248 0 -248 -388q0 -397 275 -397q148 0 233 134zM322 115q-80 117 -80 345q0 227 79 343q-201 -100 -201 -347q0 -238 202 -341z" />
  </g>

</svg>
