<?xml version="1.0" standalone="no"?>
<!DOCTYPE svg PUBLIC "-//W3C//DTD SVG 1.1//EN" "http://www.w3.org/Graphics/SVG/1.1/DTD/svg11.dtd" >
<svg viewBox="0 -442 2048 2048">
  <g transform="matrix(1 0 0 -1 0 1606)">
   <path fill="currentColor"
d="M1906 37q0 -37 -35 -37h-399q-35 0 -35 37q0 38 35 38q59 0 59 116v462q0 195 -106 195q-122 0 -215 -95t-93 -217v-345q0 -116 58 -116q35 0 35 -38q0 -37 -35 -37h-399q-35 0 -35 37q0 38 35 38q59 0 59 116v462q0 195 -107 195q-122 0 -215 -95t-93 -217v-345
q0 -116 59 -116q35 0 35 -38q0 -37 -35 -37h-400q-34 0 -34 37q0 38 34 38q59 0 59 116v539q0 118 -59 118q-34 0 -34 39q0 36 34 36h306q35 0 35 -34v-149q54 84 144 133.5t189 49.5q302 0 353 -200q135 200 344 200q363 0 363 -291v-441q0 -116 58 -116q35 0 35 -38z
M1760 75q-22 48 -22 116v441q0 170 -169 205q37 -68 37 -184v-462q0 -66 -23 -116h177zM1064 75q-22 48 -22 116v345q0 45 12 90q-27 102 -58 143q-40 53 -124 70q38 -70 38 -186v-462q0 -66 -23 -116h177zM367 75q-22 49 -22 116v657h-156q24 -50 24 -118v-539
q0 -66 -23 -116h177z" />
  </g>

</svg>
