<?xml version="1.0" standalone="no"?>
<!DOCTYPE svg PUBLIC "-//W3C//DTD SVG 1.1//EN" "http://www.w3.org/Graphics/SVG/1.1/DTD/svg11.dtd" >
<svg viewBox="0 -442 2048 2048">
  <g transform="matrix(1 0 0 -1 0 1606)">
   <path fill="currentColor"
d="M960 759q0 -58 -39.5 -99t-96.5 -41q-58 0 -98.5 41t-40.5 99t36 96q-66 29 -136 29q-247 0 -247 -411q0 -410 294 -410q95 0 160 58q39 36 78 109q30 58 44 58q42 0 42 -30q0 -9 -3 -17q-43 -121 -141 -186.5t-229 -65.5q-228 0 -378 125q-160 134 -160 357
q0 225 159 360q150 128 379 128q377 0 377 -200zM885 759q0 61 -68 92q-57 -53 -57 -92q0 -65 64 -65q61 0 61 65zM369 103q-106 129 -106 370q0 237 78 359q-221 -107 -221 -361q0 -267 249 -368z" />
  </g>

</svg>
