<?xml version="1.0" standalone="no"?>
<!DOCTYPE svg PUBLIC "-//W3C//DTD SVG 1.1//EN" "http://www.w3.org/Graphics/SVG/1.1/DTD/svg11.dtd" >
<svg viewBox="0 -442 2048 2048">
  <g transform="matrix(1 0 0 -1 0 1606)">
   <path fill="currentColor"
d="M757 1245q0 -67 -48 -116t-115 -49t-116 49t-49 116t49 115.5t116 48.5t115 -48.5t48 -115.5zM738 -4q0 -193 -112 -298.5t-306 -105.5q-320 0 -320 194q0 55 42 98t97 43q56 0 99.5 -42.5t43.5 -98.5q0 -60 -52 -108q18 -11 41 -11q185 0 185 325v738q0 118 -59 118
q-35 0 -35 39q0 36 35 36h306q35 0 35 -34v-893zM682 1245q0 36 -26 62.5t-62 26.5t-63 -26.5t-27 -62.5t27 -63t63 -27q35 0 61.5 26.5t26.5 63.5zM663 -4v852h-155q23 -50 23 -118v-738q0 -202 -74 -307q206 63 206 311zM207 -214q0 24 -21 45t-47 21q-24 0 -44 -20.5
t-20 -45.5q0 -62 64 -90q68 63 68 90z" />
  </g>

</svg>
