<?xml version="1.0" standalone="no"?>
<!DOCTYPE svg PUBLIC "-//W3C//DTD SVG 1.1//EN" "http://www.w3.org/Graphics/SVG/1.1/DTD/svg11.dtd" >
<svg viewBox="0 -442 2048 2048">
  <g transform="matrix(1 0 0 -1 0 1606)">
   <path fill="currentColor"
d="M935 1266q0 -55 -42 -98t-97 -43q-56 0 -99.5 42.5t-43.5 98.5q0 62 52 109q-13 10 -31 10q-193 0 -193 -368v-94h146q35 0 35 -36q0 -39 -35 -39h-146v-657q0 -87 33 -109q19 -7 38.5 -14.5t19.5 -30.5q0 -37 -34 -37h-399q-34 0 -34 37q0 38 34 38q58 0 58 116v657
h-117q-35 0 -35 39q0 36 35 36h117v132q0 193 113 300q110 105 304 105q321 0 321 -194zM860 1266q0 67 -78 96q-4 -22 -26 -42q-28 -26 -28 -54q0 -24 21 -45t47 -21q24 0 44 20.5t20 45.5zM486 1369q-214 -60 -214 -314v-864q0 -67 -23 -116h176q-19 38 -19 116v826
q0 243 80 352z" />
  </g>

</svg>
