<?xml version="1.0" standalone="no"?>
<!DOCTYPE svg PUBLIC "-//W3C//DTD SVG 1.1//EN" "http://www.w3.org/Graphics/SVG/1.1/DTD/svg11.dtd" >
<svg viewBox="0 -442 2048 2048">
  <g transform="matrix(1 0 0 -1 0 1606)">
   <path fill="currentColor"
d="M1210 37q0 -37 -35 -37h-399q-35 0 -35 37q0 38 35 38q59 0 59 116v469q0 188 -107 188q-122 0 -215 -95t-93 -217v-345q0 -116 59 -116q35 0 35 -38q0 -37 -35 -37h-400q-34 0 -34 37q0 38 34 38q59 0 59 116v1010q0 117 -59 117q-34 0 -34 39q0 36 34 36h306
q35 0 35 -34v-619q54 84 144 133.5t189 49.5q364 0 364 -291v-441q0 -116 58 -116q35 0 35 -38zM1064 75q-22 48 -22 116v441q0 170 -169 205q37 -68 37 -177v-469q0 -66 -23 -116h177zM367 75q-22 49 -22 116v1127h-155q23 -50 23 -117v-1010q0 -66 -23 -116h177z" />
  </g>

</svg>
