<?xml version="1.0" standalone="no"?>
<!DOCTYPE svg PUBLIC "-//W3C//DTD SVG 1.1//EN" "http://www.w3.org/Graphics/SVG/1.1/DTD/svg11.dtd" >
<svg viewBox="0 -442 2048 2048">
  <g transform="matrix(1 0 0 -1 0 1606)">
   <path fill="currentColor"
d="M1241 836q0 -40 -28.5 -68.5t-67.5 -28.5q-40 0 -69 28.5t-29 68.5q0 18 6 35q-56 -10 -108 -34q81 -84 81 -199q0 -160 -164 -246q-132 -69 -308 -69q-194 0 -302 52q-17 -28 -17 -60q0 -62 59 -112q56 -49 119 -49q28 0 84 1t84 1q259 0 392 -47q215 -77 215 -286
q0 -153 -225 -221q-147 -44 -352 -44q-203 0 -347 44q-219 68 -219 221q0 125 178 176q-104 91 -104 230q0 106 67 188q-105 84 -105 221q0 159 165 246q133 69 308 69q212 0 326 -66q101 77 231 77q52 0 91 -38t39 -90zM1166 836q0 40 -43 51v-26q-1 -18 -1 -25
q0 -22 23 -22q21 0 21 22zM951 638q0 165 -190 218q47 -74 47 -215q0 -135 -39 -208q182 66 182 205zM733 641q0 115 -31 168q-41 69 -148 69q-110 0 -151 -74q-28 -53 -28 -170q0 -115 31 -168q41 -69 148 -69q110 0 151 74q28 53 28 170zM347 420q-47 75 -47 214
q0 137 39 209q-183 -66 -183 -205q0 -81 57 -141q51 -54 134 -77zM1113 -177q0 259 -503 259q-41 0 -107.5 -1.5t-89.5 -1.5q-135 0 -216 119q8 -34 59 -118q47 -77 47 -102q0 -5 -1 -9q45 44 132 44h205q330 0 330 -196q0 -90 -54 -150q198 49 198 156zM894 -183
q0 121 -268 121h-192q-63 0 -87 -31q-19 -26 -19 -90q0 -100 97 -151q77 -41 186 -41t186 41q97 51 97 151zM306 -332q-53 60 -53 149q0 79 28 126q-47 -20 -95 -40q-66 -31 -66 -80q0 -106 186 -155z" />
  </g>

</svg>
