<?xml version="1.0" standalone="no"?>
<!DOCTYPE svg PUBLIC "-//W3C//DTD SVG 1.1//EN" "http://www.w3.org/Graphics/SVG/1.1/DTD/svg11.dtd" >
<svg viewBox="0 -442 2048 2048">
  <g transform="matrix(1 0 0 -1 0 1606)">
   <path fill="currentColor"
d="M1119 504q0 -44 -37 -44h-743v-5q0 -183 40 -267q58 -125 220 -125q223 0 356 131q82 81 90 81q34 0 34 -25t-29 -64q-147 -197 -458 -197q-240 0 -388 122q-159 132 -159 367q0 221 160 355q150 126 375 126q222 0 373 -114q166 -126 166 -341zM1043 535
q-17 215 -232 306q87 -123 87 -306h145zM823 535q0 135 -53 231q-66 118 -190 118q-127 0 -191 -117q-51 -95 -50 -232h484zM340 832q-220 -107 -220 -354q0 -257 212 -361q-70 114 -70 344q0 246 78 371z" />
  </g>

</svg>
