<?xml version="1.0" standalone="no"?>
<!DOCTYPE svg PUBLIC "-//W3C//DTD SVG 1.1//EN" "http://www.w3.org/Graphics/SVG/1.1/DTD/svg11.dtd" >
<svg viewBox="0 -442 2048 2048">
  <g transform="matrix(1 0 0 -1 0 1606)">
   <path fill="currentColor"
d="M1200 456q0 -216 -150 -345q-142 -122 -361 -122q-176 0 -297 122l-97 -111h-216q-34 0 -34 37q0 38 34 38q59 0 59 116v1010q0 117 -59 117q-34 0 -34 39q0 36 34 36h306q35 0 35 -34v-527q126 91 298 91q212 0 347 -128t135 -339zM1125 456q0 249 -202 348
q79 -113 79 -344q0 -229 -81 -345q204 102 204 341zM927 460q0 388 -248 388q-160 0 -259 -122v-529q84 -134 232 -134q275 0 275 397zM345 172v1146h-155q23 -50 23 -117v-1010q0 -67 -23 -116h71z" />
  </g>

</svg>
