<?xml version="1.0" standalone="no"?>
<!DOCTYPE svg PUBLIC "-//W3C//DTD SVG 1.1//EN" "http://www.w3.org/Graphics/SVG/1.1/DTD/svg11.dtd" >
<svg viewBox="0 -442 2048 2048">
  <g transform="matrix(1 0 0 -1 0 1606)">
   <path fill="currentColor"
d="M1234 38q0 -38 -36 -38h-222q-181 0 -210 102q-39 -52 -126 -84q-77 -29 -151 -29q-163 0 -281 47q-163 64 -163 201q0 185 281 271q192 59 435 59v77q0 100 -55 167q-59 73 -157 73q-49 0 -155 -24q43 -44 43 -111q0 -57 -51 -95q-46 -35 -105 -35t-106 35
q-50 37 -50 95q0 210 427 210q183 0 322 -65q180 -84 180 -245v-515q0 -59 119 -59q61 0 61 -37zM992 75q-13 25 -13 59v515q0 144 -211 205q68 -89 68 -210v-377q0 -48 -16 -91q16 -60 41 -78q31 -23 115 -23h16zM362 749q0 32 -20 57l-44 45q-98 -35 -98 -102
q0 -19 20 -35q24 -20 61 -20q36 0 60 20q21 17 21 35zM761 267v225q-148 -1 -268 -55q-155 -71 -155 -200q0 -69 55 -121.5t125 -52.5q93 0 165 55q78 59 78 149zM358 439q-238 -68 -238 -202q0 -116 203 -157q-60 70 -60 157q0 120 95 202z" />
  </g>

</svg>
