<?xml version="1.0" standalone="no"?>
<!DOCTYPE svg PUBLIC "-//W3C//DTD SVG 1.1//EN" "http://www.w3.org/Graphics/SVG/1.1/DTD/svg11.dtd" >
<svg viewBox="0 -442 2048 2048">
  <g transform="matrix(1 0 0 -1 0 1606)">
   <path fill="currentColor"
d="M440 1245q0 -67 -49 -116t-116 -49t-115 49t-48 116t48 115.5t115 48.5t116 -48.5t49 -115.5zM514 37q0 -37 -35 -37h-400q-34 0 -34 37q0 38 34 38q59 0 59 108v560q0 105 -59 105q-34 0 -34 39q0 36 34 36h306q35 0 35 -34v-698q0 -116 59 -116q35 0 35 -38zM365 1245
q0 35 -27 62t-63 27t-62 -26.5t-26 -62.5q0 -37 26.5 -63.5t61.5 -26.5q36 0 63 27t27 63zM367 75q-22 49 -22 116v657h-155q23 -47 23 -105v-560q0 -60 -23 -108h177z" />
  </g>

</svg>
