<?xml version="1.0" standalone="no"?>
<!DOCTYPE svg PUBLIC "-//W3C//DTD SVG 1.1//EN" "http://www.w3.org/Graphics/SVG/1.1/DTD/svg11.dtd" >
<svg viewBox="0 -442 2048 2048">
  <g transform="matrix(1 0 0 -1 0 1606)">
   <path fill="currentColor"
d="M1393 1306q0 -23 -32 -37q-62 -27 -117 -102q-4 -5 -85 -135l-274 -440v-374q0 -96 22 -118q25 -25 127 -25q34 0 34 -36q0 -39 -34 -39h-619q-33 0 -33 39q0 36 39 36q95 0 118 22.5t23 111.5v306l-348 623q-17 34 -58 98q-21 25 -68 34q-35 7 -35 36q0 37 35 37h500
q33 0 33 -37q0 -29 -40 -38q-32 -4 -63 -9q1 -20 36 -82l289 -515l252 408q20 32 20 72q0 51 -35.5 88.5t-85.5 37.5q-36 0 -36 38q0 37 36 37h366q33 0 33 -37zM1232 1268h-86q22 -28 33 -62l4 5q23 32 49 57zM833 75q-23 46 -23 143v348q-127 219 -345 615q-19 37 -23 87
h-216q6 -8 53 -93l358 -640v-326q0 -89 -22 -134h218z" />
  </g>

</svg>
