<?xml version="1.0" standalone="no"?>
<!DOCTYPE svg PUBLIC "-//W3C//DTD SVG 1.1//EN" "http://www.w3.org/Graphics/SVG/1.1/DTD/svg11.dtd" >
<svg viewBox="0 -442 2048 2048">
  <g transform="matrix(1 0 0 -1 0 1606)">
   <path fill="currentColor"
d="M1160 39q0 -39 -35 -39h-430q-34 0 -34 39q0 31 30 35q40 4 47 12q-6 27 -183 239l-97 -90q-52 -48 -52 -105q0 -44 38.5 -55t38.5 -39q0 -36 -35 -36h-369q-34 0 -34 36q0 39 34 39q70 0 224 127q46 38 204 185l-256 322q-111 139 -131 139q-35 0 -35 36q0 39 35 39h429
q35 0 35 -39q0 -32 -35 -35q-44 -2 -52 -11q4 -34 149 -207q66 63 74 71q38 46 38 92q0 45 -38 55.5t-38 37.5q0 36 33 36h369q36 0 36 -36q0 -39 -36 -39q-68 0 -205 -111q-43 -36 -184 -167l288 -364q104 -131 142 -131q35 0 35 -36zM902 848h-77q8 -22 8 -52q37 30 69 52
zM995 75q-23 24 -71 84l-309 392q-59 70 -117 139q-64 84 -77 158h-183q27 -34 72 -92l294 -370q62 -75 124 -149q70 -89 89 -162h178zM339 75q-8 22 -8 52q-37 -29 -71 -52h79z" />
  </g>

</svg>
