<?xml version="1.0" standalone="no"?>
<!DOCTYPE svg PUBLIC "-//W3C//DTD SVG 1.1//EN" "http://www.w3.org/Graphics/SVG/1.1/DTD/svg11.dtd" >
<svg viewBox="0 -442 2048 2048">
  <g transform="matrix(1 0 0 -1 0 1606)">
   <path fill="currentColor"
d="M1135 462q0 -225 -164 -355q-151 -118 -382 -118t-381 119q-163 129 -163 354q0 231 159 368q150 129 385 129t386 -129q160 -137 160 -368zM1060 462q0 245 -201 358q58 -101 58 -331q0 -259 -65 -368q208 104 208 341zM842 489q0 187 -35 268q-56 127 -218 127
t-217 -127q-35 -81 -35 -268q0 -201 31 -284q55 -142 221 -142t221 142q32 84 32 284zM326 121q-64 109 -64 368q0 225 58 331q-200 -112 -200 -358q0 -237 206 -341z" />
  </g>

</svg>
