<?xml version="1.0" standalone="no"?>
<!DOCTYPE svg PUBLIC "-//W3C//DTD SVG 1.1//EN" "http://www.w3.org/Graphics/SVG/1.1/DTD/svg11.dtd" >
<svg viewBox="0 -442 2048 2048">
  <g transform="matrix(1 0 0 -1 0 1606)">
   <path fill="currentColor"
d="M1199 456q0 -211 -134.5 -339t-346.5 -128q-172 0 -298 91v-436q0 -33 -35 -33h-306q-34 0 -34 35q0 40 34 40q59 0 59 117v927q0 118 -59 118q-34 0 -34 36q0 39 34 39h341v-96q109 96 268 96q219 0 361 -122q150 -129 150 -345zM1124 456q0 239 -203 341
q80 -116 80 -344t-78 -345q201 100 201 348zM926 453q0 395 -274 395q-147 0 -232 -135v-528q98 -122 259 -122q247 0 247 390zM345 -314v1162h-155q23 -50 23 -118v-927q0 -67 -23 -117h155z" />
  </g>

</svg>
