<?xml version="1.0" standalone="no"?>
<!DOCTYPE svg PUBLIC "-//W3C//DTD SVG 1.1//EN" "http://www.w3.org/Graphics/SVG/1.1/DTD/svg11.dtd" >
<svg viewBox="0 -442 2048 2048">
  <g transform="matrix(1 0 0 -1 0 1606)">
   <path fill="currentColor"
d="M1267 887q0 -39 -34 -39q-66 0 -150 -79q-75 -71 -106 -141l-266 -599q-18 -40 -102 -40q-83 0 -102 41l-316 680q-16 35 -49 80q-41 58 -63 58q-34 0 -34 36q0 39 34 39h397q35 0 35 -39q0 -33 -35 -35q-45 -2 -52 -11q1 -20 31 -84l255 -542l212 476q22 49 22 88
q0 59 -57.5 70.5t-57.5 40.5q0 36 35 36h369q34 0 34 -36zM1060 848h-56q9 -19 13 -42q21 23 43 42zM668 123q-111 228 -302 642q-15 34 -17 83h-156q38 -48 66 -106l315 -673q15 -5 35 -5q16 0 38 6q6 13 21 53z" />
  </g>

</svg>
