<?xml version="1.0" standalone="no"?>
<!DOCTYPE svg PUBLIC "-//W3C//DTD SVG 1.1//EN" "http://www.w3.org/Graphics/SVG/1.1/DTD/svg11.dtd" >
<svg viewBox="0 -442 2048 2048">
  <g transform="matrix(1 0 0 -1 0 1606)">
   <path fill="currentColor"
d="M1199 -354q0 -35 -34 -35h-307q-34 0 -34 33v436q-126 -91 -299 -91q-212 0 -346 128t-134 339q0 216 150 345q142 122 361 122q174 0 295 -122l98 112h216q34 0 34 -39q0 -36 -34 -36q-59 0 -59 -118v-917q0 -71 24 -98q10 -11 45 -24q24 -9 24 -35zM1054 838h-71
l-87 -99l3 -4v-1049h154q-22 43 -22 117v917q0 68 23 118zM824 185v528q-85 135 -233 135q-274 0 -274 -395q0 -390 247 -390q161 0 260 122zM322 796q-202 -102 -202 -340q0 -248 200 -347q-78 116 -78 344t80 343z" />
  </g>

</svg>
