<?xml version="1.0" standalone="no"?>
<!DOCTYPE svg PUBLIC "-//W3C//DTD SVG 1.1//EN" "http://www.w3.org/Graphics/SVG/1.1/DTD/svg11.dtd" >
<svg viewBox="0 -442 2048 2048">
  <g transform="matrix(1 0 0 -1 0 1606)">
   <path fill="currentColor"
d="M1602 1209q0 -12 -43 -55q-69 -69 -112 -91q-56 -29 -142 -29q-81 0 -195.5 67.5t-109.5 67.5q-25 0 -49.5 -27.5t-24.5 -53.5q0 -47 92 -146q139 -152 169 -194q92 -126 92 -237q0 -122 -106 -205q-99 -77 -224 -77q-267 0 -330 361h34q11 -96 70 -192q70 -115 154 -115
q36 0 65 21.5t29 56.5q0 68 -80 152l-149 149q-80 94 -80 188q0 70 68 153q44 52 128 122q68 57 68 64q0 49 -63 88q-56 35 -109 35q-161 0 -226 -257q-39 -156 -39 -387q0 -293 95 -445q118 -189 394 -189q208 0 357.5 110t201.5 309h35q-102 -480 -690 -480
q-343 0 -583 200q-254 212 -254 549q0 266 183.5 455t448.5 189q219 0 292 -166l278 173q84 -173 224 -173q71 0 131 45v-36z" />
  </g>

</svg>
