<?xml version="1.0" standalone="no"?>
<!DOCTYPE svg PUBLIC "-//W3C//DTD SVG 1.1//EN" "http://www.w3.org/Graphics/SVG/1.1/DTD/svg11.dtd" >
<svg viewBox="0 -442 2048 2048">
  <g transform="matrix(1 0 0 -1 0 1606)">
   <path fill="currentColor"
d="M1671 886q-115 -19 -153 -26q-111 -22 -141 -39q249 -102 249 -298q0 -233 -296 -409q-237 -141 -435 -141q-129 0 -261 80q-26 16 -201 150q-106 80 -171 80q-115 0 -121 -151h-36q0 161 124 253q110 81 278 86q43 102 43 375q0 428 -240 428q-53 0 -96 -29
q-48 -33 -48 -83q0 -44 70 -90q111 -74 131 -93q70 -68 70 -163q0 -122 -109 -220q-105 -95 -229 -96v29q53 1 102 26q61 30 61 77q0 27 -85.5 87t-115.5 113q-32 57 -32 157q0 168 168 279q149 98 326 98q114 0 212 -50q109 -56 149 -154q37 204 298 204q165 0 242 -88
q68 -78 83 -248q0 -23 7 -68q18 -59 93 -59q7 0 22 1.5t22 1.5q23 0 20 -20zM1431 866q-187 3 -248 115q-20 35 -46 205q-17 110 -98 110q-120 0 -120 -148q0 -34 7.5 -102.5t7.5 -102.5q0 -100 -21 -210zM1393 289q0 156 -173 288q-161 123 -323 125q-59 -89 -162 -148
q-52 -30 -201 -90q108 -2 239 -94q107 -85 215 -171q121 -91 205 -91q81 0 140.5 50.5t59.5 130.5z" />
  </g>

</svg>
