<?xml version="1.0" standalone="no"?>
<!DOCTYPE svg PUBLIC "-//W3C//DTD SVG 1.1//EN" "http://www.w3.org/Graphics/SVG/1.1/DTD/svg11.dtd" >
<svg viewBox="0 -442 2048 2048">
  <g transform="matrix(1 0 0 -1 0 1606)">
   <path fill="currentColor"
d="M1210 35q0 -35 -35 -35h-306q-34 0 -34 34v149q-54 -84 -144 -133.5t-189 -49.5q-364 0 -364 292v438q0 118 -59 118q-34 0 -34 36q0 39 34 39h400q35 0 35 -39q0 -36 -35 -36q-59 0 -59 -118v-468q0 -187 107 -187q122 0 215 95t93 217v343q0 118 -59 118q-35 0 -35 36
q0 39 35 39h399q35 0 35 -39q0 -36 -35 -36q-58 0 -58 -118v-539q0 -116 58 -116q35 0 35 -40zM1065 848h-178q23 -49 23 -118v-655h155q-23 49 -23 116v539q0 68 23 118zM382 86q-37 68 -37 176v468q0 68 24 118h-179q23 -49 23 -118v-438q0 -170 169 -206z" />
  </g>

</svg>
