<?xml version="1.0" standalone="no"?>
<!DOCTYPE svg PUBLIC "-//W3C//DTD SVG 1.1//EN" "http://www.w3.org/Graphics/SVG/1.1/DTD/svg11.dtd" >
<svg viewBox="0 -442 2048 2048">
  <g transform="matrix(1 0 0 -1 0 1606)">
   <path fill="currentColor"
d="M900 751q0 -54 -37.5 -92t-91.5 -38t-92 38t-38 92q0 60 30 97q-127 -3 -197 -161q-54 -123 -54 -270v-226q0 -116 59 -116q34 0 34 -38q0 -37 -34 -37h-400q-34 0 -34 37q0 38 34 38q59 0 59 116v539q0 118 -59 118q-34 0 -34 39q0 36 34 36h306q35 0 35 -34v-163
q79 197 253 197q87 0 152 -42q75 -48 75 -130zM825 751q0 57 -75 84q-34 -46 -34 -84q0 -55 55 -55q54 0 54 55zM367 75q-22 49 -22 116v657h-155q23 -50 23 -118v-539q0 -67 -23 -116h177z" />
  </g>

</svg>
