<?xml version="1.0" standalone="no"?>
<!DOCTYPE svg PUBLIC "-//W3C//DTD SVG 1.1//EN" "http://www.w3.org/Graphics/SVG/1.1/DTD/svg11.dtd" >
<svg viewBox="0 -442 2048 2048">
  <g transform="matrix(1 0 0 -1 0 1606)">
   <path fill="currentColor"
d="M1575 257q-62 -60 -344 -284q-78 31 -139 103q-65 78 -65 157q0 43 -9 79l-383 -339q-57 88 -138 145q-92 66 -185 66q-56 0 -111 -38q-51 -36 -78 -88l-24 7q38 139 338 345q28 19 37 28q15 13 28 37q32 57 32 314q0 485 -247 485q-63 0 -111 -33q-55 -37 -55 -97
q0 -68 80 -99q124 -49 147 -69q80 -65 80 -216q0 -223 -275 -305v31q48 15 96 42q67 38 67 69q0 28 -76 69q-101 53 -142 95q-76 77 -76 197q0 181 127 297q123 111 306 111q456 0 456 -464q0 -187 -83 -285q-68 -81 -346 -211q233 -36 379 -184q73 61 162 139v698
q0 122 -90 282q15 0 27 9q65 -95 105 -233q44 123 214 185q132 48 293 48v-29q-8 1 -19 1q-56 0 -108 -46t-52 -101v-883q0 -25 21 -44t46 -19q54 0 115 60v-32z" />
  </g>

</svg>
