<?xml version="1.0" standalone="no"?>
<!DOCTYPE svg PUBLIC "-//W3C//DTD SVG 1.1//EN" "http://www.w3.org/Graphics/SVG/1.1/DTD/svg11.dtd" >
<svg viewBox="0 -442 2048 2048">
  <g transform="matrix(1 0 0 -1 0 1606)">
   <path fill="currentColor"
d="M1106 302q0 -166 -193 -250q-145 -63 -337 -63q-257 0 -370 64q-89 -64 -119 -64q-42 0 -42 28v298q0 35 40 35q35 0 35 -35q0 -124 174 -196q136 -56 282 -56q95 0 158 34q80 43 80 130q0 97 -199 150q-185 44 -371 89q-199 69 -199 209q0 155 199 230q144 54 332 54
q235 0 331 -40q68 40 111 40q28 0 28 -28v-239q0 -35 -41 -35q-34 0 -34 35q0 92 -157 148q-123 44 -242 44q-234 0 -234 -130q0 -78 199 -127q337 -83 370 -96q199 -79 199 -229zM971 840v28q-10 -5 -22 -12q12 -8 22 -16zM1031 302q0 116 -199 177l-370 90
q-199 63 -199 185q0 48 19 85q-162 -55 -162 -164q0 -101 199 -154q185 -45 371 -89q199 -68 199 -205q0 -67 -30 -116q172 64 172 191zM157 110q-20 16 -37 32v-57q17 11 37 25z" />
  </g>

</svg>
