<?xml version="1.0" standalone="no"?>
<!DOCTYPE svg PUBLIC "-//W3C//DTD SVG 1.1//EN" "http://www.w3.org/Graphics/SVG/1.1/DTD/svg11.dtd" >
<svg viewBox="0 -442 2048 2048">
  <g transform="matrix(1 0 0 -1 0 1606)">
   <path fill="currentColor"
d="M1604 632q0 -288 -193 -473.5t-482 -185.5q-145 0 -374.5 109t-294.5 109q-125 0 -141 -135q-18 0 -36 9q35 159 155.5 252t284.5 93q67 0 175 -27q104 -25 168 -56q60 32 60 79q0 46 -103 88q-172 69 -193 81q-103 61 -103 154t166 301q-19 4 -45 4q-196 0 -344 -45
q-221 -67 -221 -215q0 -82 76 -132q67 -45 153 -45q36 0 155 22v-27q-117 -25 -155 -25q-283 0 -283 299q0 242 244 382q204 118 465 118q350 0 596 -188q270 -207 270 -546zM1543 500q0 228 -287 392q-249 142 -496 142q-23 0 -41.5 -24t-18.5 -48q0 -30 109 -69
q149 -53 204 -87q109 -71 109 -178q0 -77 -77 -175q-15 -19 -134 -146q207 -107 323 -107q138 0 223.5 81.5t85.5 218.5z" />
  </g>

</svg>
