<?xml version="1.0" standalone="no"?>
<!DOCTYPE svg PUBLIC "-//W3C//DTD SVG 1.1//EN" "http://www.w3.org/Graphics/SVG/1.1/DTD/svg11.dtd" >
<svg viewBox="0 -442 2048 2048">
  <g transform="matrix(1 0 0 -1 0 1606)">
   <path fill="currentColor"
d="M1848 887q0 -39 -34 -39q-66 0 -150 -79q-75 -71 -106 -141l-267 -599q-18 -40 -102 -40q-82 0 -101 41l-193 413l-184 -414q-18 -40 -102 -40q-83 0 -102 41l-316 680q-16 35 -49 80q-41 58 -63 58q-34 0 -34 36q0 39 34 39h397q35 0 35 -39q0 -33 -35 -35
q-45 -2 -52 -11q1 -20 31 -84l255 -542l143 322q-138 314 -193 314q-35 0 -35 36q0 39 35 39h396q36 0 36 -39q0 -33 -36 -35q-45 -2 -52 -11q1 -20 31 -84l255 -542l213 476q21 47 21 88q0 59 -57 70.5t-57 40.5q0 36 34 36h370q34 0 34 -36zM1641 848h-57q9 -19 13 -43
q22 24 44 43zM1248 123q-221 456 -302 642q-14 34 -17 83h-155q47 -60 99 -171q31 -72 62 -143l220 -465q15 -5 34 -5q16 0 38 6q6 13 21 53zM669 120q-221 458 -303 645q-14 34 -17 83h-156q38 -48 66 -106l315 -673q16 -5 35 -5q16 0 38 6z" />
  </g>

</svg>
