<?xml version="1.0" standalone="no"?>
<!DOCTYPE svg PUBLIC "-//W3C//DTD SVG 1.1//EN" "http://www.w3.org/Graphics/SVG/1.1/DTD/svg11.dtd" >
<svg viewBox="0 -442 2048 2048">
  <g transform="matrix(1 0 0 -1 0 1606)">
   <path fill="currentColor"
d="M1928 341q0 -361 -212 -361q-153 0 -153 190q0 32 5 86q6 63 7 85q-99 -173 -263.5 -270.5t-362.5 -97.5q-228 0 -473 137q-200 112 -261 112q-53 0 -104 -48q-16 -15 -77 -89l-18 11q66 157 193 246q131 91 298 91q131 0 364 -110t363 -110q183 0 280 102t97 286
q0 382 -471 382q-53 0 -158.5 -5.5t-158.5 -5.5q-296 0 -296 190q0 92 61 148q-6 2 -16 2q-41 0 -99 -47t-58 -119q0 -45 116.5 -187t116.5 -235q0 -118 -115 -204q-106 -80 -228 -80q-124 0 -207 85q-77 79 -98 206h36q2 -76 58 -154q61 -86 133 -86q83 0 83 70
q0 24 -102.5 146t-102.5 215q0 226 265 348q207 96 464 96q245 0 435 -94q211 -104 312 -308q68 -137 68 -219v-400q0 -56 33 -94t88 -38q78 0 105 56q18 39 16 123h36q1 -41 1 -51z" />
  </g>

</svg>
