<?xml version="1.0" standalone="no"?>
<!DOCTYPE svg PUBLIC "-//W3C//DTD SVG 1.1//EN" "http://www.w3.org/Graphics/SVG/1.1/DTD/svg11.dtd" >
<svg viewBox="0 -442 2048 2048">
  <g transform="matrix(1 0 0 -1 0 1606)">
   <path fill="currentColor"
d="M1211 655q-122 -171 -246 -171q-114 0 -201 81.5t-87 194.5q0 78 105.5 203.5t105.5 180.5q0 97 -95 149q-77 42 -183 42q-112 0 -190 -37q-104 -48 -104 -147q0 -74 139 -202t139 -220q0 -91 -94 -168q-27 -22 -206 -142q30 7 72 7q98 0 294.5 -121t279.5 -121
q166 0 191 173h29q0 -161 -132 -275q-127 -109 -290 -109q-125 0 -247 74q-25 15 -186 137q-97 74 -159 74q-84 0 -101 -132h-36q6 33 22 98q26 77 111 140q71 45 141.5 90t70.5 87q0 18 -78 91q-102 94 -146 152q-78 103 -78 194q0 188 183 297q153 91 355 91t364 -87
q197 -106 197 -290q0 -96 -57 -182q-21 -32 -104 -123q-57 -62 -57 -99q0 -47 67 -47q98 0 184 135q12 -14 27 -18z" />
  </g>

</svg>
