<?xml version="1.0" standalone="no"?>
<!DOCTYPE svg PUBLIC "-//W3C//DTD SVG 1.1//EN" "http://www.w3.org/Graphics/SVG/1.1/DTD/svg11.dtd" >
<svg viewBox="0 -442 2048 2048">
  <g transform="matrix(1 0 0 -1 0 1606)">
   <path fill="currentColor"
d="M1310 1193q0 -105 -97 -177q-88 -65 -197 -65q-98 0 -319 113.5t-340 113.5q-79 0 -138 -37q-69 -43 -69 -118q0 -168 240 -168q117 0 195 42l-2 -36q-102 -38 -199 -38q-115 0 -187 47q-85 55 -85 164q0 157 144 260q131 94 294 94q123 0 338 -90.5t267 -90.5
q94 0 94 49q0 60 -105 105q10 10 9 25q157 -68 157 -193zM1355 722l-27 -27q-76 166 -191 166q-69 0 -69 -56q0 -39 110 -237.5t110 -284.5q0 -175 -176 -274q-146 -81 -336 -81q-273 0 -397 121q-59 57 -119 225q-43 121 -103 121q-87 0 -87 -160q0 -62 13 -109h-52
q-2 21 -2 63v46q0 125 78.5 209.5t202.5 84.5q185 0 258 -148q8 -16 29 -75q24 -68 76 -201q64 -148 177 -148q59 0 104.5 35t45.5 93q0 79 -108.5 259t-108.5 284q0 125 84 205t210 80q167 0 278 -191z" />
  </g>

</svg>
