<?xml version="1.0" standalone="no"?>
<!DOCTYPE svg PUBLIC "-//W3C//DTD SVG 1.1//EN" "http://www.w3.org/Graphics/SVG/1.1/DTD/svg11.dtd" >
<svg viewBox="0 -442 2048 2048">
  <g transform="matrix(1 0 0 -1 0 1606)">
   <path fill="currentColor"
d="M1694 451q0 -171 -126 -305q-97 -103 -288 -199q-155 -72 -311 -144q-33 -17 -101 -48q-87 142 -213 142q-55 0 -95 -35t-40 -89q0 -90 108 -146q89 -47 188 -47q102 0 215.5 50t184.5 125l27 -7q-169 -190 -427 -190q-130 0 -220 56q-107 67 -107 189q0 136 106 227
q101 87 239 87q97 0 181 -57.5t127 -147.5q175 85 175 346q0 204 -111 335q-117 140 -318 140q-92 0 -181 -58q58 -93 70 -117q35 -70 35 -130q0 -156 -167 -266q-149 -99 -313 -99q-118 0 -206 66q-97 72 -97 187q0 63 46 108t109 45q60 0 107.5 -40t47.5 -99
q0 -69 -56 -129.5t-56 -61.5q0 -54 107 -54q68 0 117 37q54 41 54 107q0 65 -80 171q-144 189 -150 198q-80 127 -80 243q0 141 162 238q36 21 285 123q178 73 349 164q75 -211 274 -211q144 0 233 128q14 -2 14 -20q0 -29 -75 -108q-179 -188 -398 -188q-123 0 -208 60
q-72 51 -142 166q-162 -68 -162 -177t155 -314q186 109 243 135q138 62 268 62q205 0 349 -120q152 -127 152 -328z" />
  </g>

</svg>
