<?xml version="1.0" standalone="no"?>
<!DOCTYPE svg PUBLIC "-//W3C//DTD SVG 1.1//EN" "http://www.w3.org/Graphics/SVG/1.1/DTD/svg11.dtd" >
<svg viewBox="0 -442 2048 2048">
  <g transform="matrix(1 0 0 -1 0 1606)">
   <path fill="currentColor"
d="M1512 650q0 -65 -42 -104t-108 -39q-151 0 -151 125q0 67 61 113q-10 11 -29 11q-48 0 -79 -46q-27 -40 -27 -91q0 -90 128 -265.5t128 -297.5q0 -228 -217 -372q-191 -126 -431 -126q-212 0 -396 109q-214 126 -214 324q0 90 57 188q23 40 105 147q57 75 57 107
q0 58 -76 58q-65 0 -130 -67q-51 -53 -83 -126q-14 2 -27 11q109 252 334 252q120 0 204 -75q86 -78 86 -197q0 -98 -112.5 -249t-112.5 -237q0 -104 98 -164q83 -50 194 -50q137 0 228 63q104 72 104 204l-323 646q0 102 78 203q36 47 155 159q-120 50 -361 148
q-171 67 -283 67q-96 0 -163 -41q-81 -49 -81 -139q0 -93 99 -149q84 -48 184 -48q181 0 300 137l34 -20q-135 -146 -343 -146q-149 0 -236 73q-92 79 -92 225q0 188 169 299q147 96 345 96q174 0 354 -81q1 -1 239 -134q169 -95 237 -95q103 0 103 65t-80 109
q-31 17 -138 53v29q254 -62 254 -211q0 -132 -126 -200q-102 -55 -246 -55q-18 0 -54 4.5t-54 4.5q-61 0 -61 -72q0 -100 137 -247q-9 78 -9 83q0 91 65 142q59 46 153 46q72 0 130 -42q65 -46 65 -115z" />
  </g>

</svg>
