<?xml version="1.0" standalone="no"?>
<!DOCTYPE svg PUBLIC "-//W3C//DTD SVG 1.1//EN" "http://www.w3.org/Graphics/SVG/1.1/DTD/svg11.dtd" >
<svg viewBox="0 -442 2048 2048">
  <g transform="matrix(1 0 0 -1 0 1606)">
   <path fill="currentColor"
d="M1640 650q0 -304 -207 -493q-200 -184 -507 -184q-132 0 -295 78q-47 23 -255 145q-133 78 -192 78q-106 0 -148 -142h-36q37 144 167 238q126 92 277 92q147 0 397 -139t397 -139q163 0 260 115q90 108 90 275q0 284 -283 373q-83 26 -121 26h-381q-75 0 -147 58
q-77 62 -77 135q0 80 56 144q-6 2 -14 2q-59 0 -110 -46t-51 -104q0 -59 101 -198.5t101 -223.5q0 -119 -124 -193q-106 -63 -233 -63q-120 0 -203 74q-86 78 -86 196h29q0 -78 51 -145q55 -71 131 -71q74 0 74 59q0 14 -75.5 136.5t-75.5 195.5q0 210 241 335
q197 102 430 102q353 0 576 -178q243 -193 243 -538z" />
  </g>

</svg>
