<?xml version="1.0" standalone="no"?>
<!DOCTYPE svg PUBLIC "-//W3C//DTD SVG 1.1//EN" "http://www.w3.org/Graphics/SVG/1.1/DTD/svg11.dtd" >
<svg viewBox="0 -442 2048 2048">
  <g transform="matrix(1 0 0 -1 0 1606)">
   <path fill="currentColor"
d="M1566 1274q-90 -330 -418 -330q-109 0 -310 78.5t-311 78.5q-176 0 -294 -108q-121 -112 -121 -286q0 -231 244 -331q172 -71 443 -71q713 0 713 262q0 70 -42 118t-111 48q-77 0 -198 -91q-182 -135 -185 -137q-144 -81 -321 -81q-156 0 -266 90q-118 97 -118 249
q0 105 82 165q73 54 181 54q90 0 195 -40v-36q-124 45 -195 45q-86 0 -149 -39q-75 -46 -75 -127q0 -51 32 -91q34 -44 84 -44q37 0 151 65q161 91 226 119q146 65 258 65q192 0 327 -81q162 -97 162 -277q0 -271 -223 -429q-198 -139 -481 -139q-341 0 -551 189
q-219 196 -219 533q0 281 199 476t481 195q152 0 385.5 -105.5t262.5 -105.5q93 0 126 119h36z" />
  </g>

</svg>
