<?xml version="1.0" standalone="no"?>
<!DOCTYPE svg PUBLIC "-//W3C//DTD SVG 1.1//EN" "http://www.w3.org/Graphics/SVG/1.1/DTD/svg11.dtd" >
<svg viewBox="-16 -442 2176 2048">
  <g transform="matrix(1 0 0 -1 0 1606)">
   <path fill="currentColor"
d="M2176 233l-381 -260q-168 140 -196 233q-11 37 -11 142q0 278 52 354q70 103 347 170q-71 9 -143 17q-79 12 -126 64q-30 33 -34 122q-5 114 -11 135q-18 64 -85 64q-79 0 -105 -70q-15 -40 -15 -136q0 -48 5 -143t5 -143q0 -99 -13 -158q-30 -135 -193 -321
q-99 -110 -296 -330l-256 204q-60 -61 -159 -182q-12 14 -27 18l334 397q15 -15 81 -68l168 -136q0 44 -9 197l-22 380q-3 81 -14 244q-25 234 -128 234q-71 0 -71 -117q0 -67 26.5 -196.5t26.5 -196.5q0 -90 -27 -152q-41 -94 -226 -303l-190 -215q-32 -35 -95 -108
l-249 204q-49 -46 -119 -137l-36 27l312 357l240 -195q7 22 7 67q0 47 -6 123q-7 96 -8 122q-4 137 -8 273q-14 196 -63 304q-65 143 -198 143q-139 0 -139 -110q0 -62 84 -107q149 -79 155 -84q84 -65 84 -177q0 -227 -235 -285q-81 -20 -133 -20v29q65 0 129 19
q89 26 89 75q0 30 -74 67q-101 49 -139 85q-74 69 -74 180q0 194 130 315q128 118 323 118q112 0 212 -51q105 -54 160 -146q49 197 283 197q217 0 325 -182q27 90 120 139q81 43 183 43q85 0 155 -34q90 -44 113 -130q10 -39 10 -178q0 -130 106 -130q11 0 24 3v-27
q-141 0 -186 -48.5t-45 -190.5q0 -425 130 -425q20 0 108 52q10 -17 18 -25z" />
  </g>

</svg>
