<?xml version="1.0" standalone="no"?>
<!DOCTYPE svg PUBLIC "-//W3C//DTD SVG 1.1//EN" "http://www.w3.org/Graphics/SVG/1.1/DTD/svg11.dtd" >
<svg viewBox="0 -442 2048 2048">
  <g transform="matrix(1 0 0 -1 0 1606)">
   <path fill="currentColor"
d="M1709 211q-26 -20 -202.5 -129t-185.5 -109q-33 0 -96 49q-103 80 -103 182v420q0 43 -32.5 73.5t-75.5 30.5q-25 0 -27 -15q-5 -65 -28 -206q-54 -237 -188 -376q-152 -158 -381 -158q-128 0 -218 74q-96 79 -96 204q0 173 186 173q76 0 126 -39q56 -42 56 -116
q0 -69 -36 -95q-18 -13 -80 -25q-55 -12 -79 -37q5 -110 139 -110q200 0 200 366v239q0 241 -39 407q-65 276 -226 276q-58 0 -105 -32q-52 -36 -52 -92q0 -54 80 -106q135 -88 147 -99q80 -73 80 -176q0 -139 -122 -218q-105 -67 -252 -67v29q202 14 202 79q0 34 -71 81
q-97 64 -130 102q-71 79 -71 191q0 179 154 287q137 97 324 97q321 0 415 -233q10 60 41 116q64 117 237 117q38 0 105 -11q89 -14 163 -82q82 -73 82 -158v-229q0 -56 79 -56q30 0 56 13q-9 -14 -7 -33q-22 -8 -54 -8q-19 0 -56.5 4t-56.5 4q-56 0 -96 -21q26 -13 54.5 -56
t28.5 -71v-453q0 -41 61 -41q42 0 139 61zM1438 821q-11 -1 -21 -1q-77 0 -166 78t-89 154q0 238 -85 238q-114 0 -114 -182q0 -12 2 -40l22 -303z" />
  </g>

</svg>
