<?xml version="1.0" standalone="no"?>
<!DOCTYPE svg PUBLIC "-//W3C//DTD SVG 1.1//EN" "http://www.w3.org/Graphics/SVG/1.1/DTD/svg11.dtd" >
<svg viewBox="-83 -442 2048 2048">
  <g transform="matrix(1 0 0 -1 0 1606)">
   <path fill="currentColor"
d="M1323 1169q0 -172 -83 -270q-89 -105 -258 -105q-126 0 -263 89q-112 83 -224 167q-129 89 -235 89q-89 0 -144 -58.5t-55 -147.5q0 -123 90 -201q85 -75 210 -75q139 0 247 83q3 -15 16 -27q-116 -85 -267 -85q-149 0 -240 83q-95 85 -95 233q0 181 157 306
q146 116 332 116q145 0 296 -94q67 -41 225 -173q112 -94 161 -94q96 0 95 164h35zM1368 523h-42q-14 66 -64 120q-55 59 -118 59q-76 0 -76 -56q0 -29 73 -139q99 -150 134 -219q73 -139 73 -241q0 -225 -233 -367q-201 -122 -442 -122q-269 0 -399 144q-65 71 -128 264
q-47 142 -101 142q-90 0 -90 -117q0 -45 29 -130h-4q-18 0 -29 -9q-34 86 -34 148q0 114 95 182q85 62 203 62q200 0 278 -161l110 -298q78 -166 240 -166q80 0 144 39q74 45 74 120q0 58 -161.5 310.5t-161.5 366.5q0 131 106 219q99 82 233 82q207 0 291 -233z" />
  </g>

</svg>
