<?xml version="1.0" standalone="no"?>
<!DOCTYPE svg PUBLIC "-//W3C//DTD SVG 1.1//EN" "http://www.w3.org/Graphics/SVG/1.1/DTD/svg11.dtd" >
<svg viewBox="0 -442 2048 2048">
  <g transform="matrix(1 0 0 -1 0 1606)">
   <path fill="currentColor"
d="M1489 247l-374 -274q-204 74 -233 206q-9 39 -13 200q-4 128 -38 184q-48 81 -176 81q-54 0 -54 -20q0 1 58 -88q63 -96 63 -231q0 -143 -103 -237.5t-247 -94.5q-124 0 -225 62q-118 72 -118 189q0 63 46 109t109 46q70 0 122 -42q55 -45 55 -113q0 -27 -22.5 -75
t-22.5 -75q0 -29 37 -51q34 -21 64 -21q58 0 98.5 40.5t40.5 98.5q0 93 -127 205q-215 192 -235 215q-127 148 -127 327q0 243 270 374q213 104 486 104q271 0 460 -144q206 -158 206 -421v-29h-29q0 245 -177 397q-168 143 -417 143q-163 0 -274 -78q-125 -88 -125 -245
q0 -137 65 -265q-4 92 -4 91q0 179 93.5 278.5t271.5 99.5q284 0 383 -260q34 -89 34 -161l-332 -50q117 -36 131 -42q76 -34 93 -92q0 -1 5 -49q7 -41 18 -124q7 -65 14 -131q20 -71 93 -71q64 0 139 61q11 -12 18 -27zM940 742v47q0 82 -58 147q-60 69 -140 69
q-109 0 -150 -84q-29 -59 -29 -178q0 -46 5 -77z" />
  </g>

</svg>
