<?xml version="1.0" standalone="no"?>
<!DOCTYPE svg PUBLIC "-//W3C//DTD SVG 1.1//EN" "http://www.w3.org/Graphics/SVG/1.1/DTD/svg11.dtd" >
<svg viewBox="0 -442 2048 2048">
  <g transform="matrix(1 0 0 -1 0 1606)">
   <path fill="currentColor"
d="M1649 561q0 -196 -191.5 -388.5t-376.5 -192.5q-69 0 -188 38l-164 -458h-43q-42 100 -71 249q-22 128 -45 256q-21 104 -85 145q-55 34 -169 34q-56 0 -93.5 -60t-49.5 -61q0 180 95 280q98 104 277 97l5 5q-5 24 -5 58q0 48 4.5 142.5t4.5 142.5q0 448 -227 448
q-46 0 -94 -20q-60 -26 -60 -65t76 -102q128 -106 142 -120q76 -78 76 -155q0 -124 -102 -215q-93 -84 -221 -103v27q44 2 92 25q58 29 58 67q0 27 -76 64q-100 49 -142 92q-76 78 -76 203q0 170 150 277q135 95 312 95q146 0 259 -49q139 -59 183 -178q67 227 316 227
q115 0 202 -47q106 -58 106 -164q0 -34 -22.5 -96.5t-22.5 -96.5q0 -55 60 -68q25 -6 103 -4v-29q-126 -2 -140 -3q-88 -7 -129 -39q13 -33 62 -53l80 -28q130 -55 130 -177zM1476 289q0 45 -100 103q-177 104 -184 109q-100 73 -100 154q0 95 107 159q95 57 194 50
q-242 16 -242 255v72q0 54 -14 73q-18 26 -72 26q-74 0 -112 -107q-27 -77 -27 -169v-633q370 -213 429 -213q41 0 81 40t40 81z" />
  </g>

</svg>
