<?xml version="1.0" standalone="no"?>
<!DOCTYPE svg PUBLIC "-//W3C//DTD SVG 1.1//EN" "http://www.w3.org/Graphics/SVG/1.1/DTD/svg11.dtd" >
<svg viewBox="0 -442 2048 2048">
  <g transform="matrix(1 0 0 -1 0 1606)">
   <path fill="currentColor"
d="M1655 1296q-7 -40 -18 -65q-28 -61 -142 -120q-108 -55 -181 -55q-95 0 -163 42q-39 23 -130 109q-29 -2 -55 -23t-26 -49q0 -34 75 -135l102 -132q40 -55 90 -150q37 240 204 240q92 0 157 -59t65 -150q0 -68 -43.5 -110t-111.5 -42q-61 0 -102 35q-44 37 -44 97
q0 63 83 143q-17 34 -49 34q-68 0 -103 -66q-29 -53 -29 -127q0 -34 19 -97.5t19 -97.5q0 -131 -110 -211q-100 -72 -236 -72q-135 0 -226 119q-83 110 -83 249h38q0 -96 62 -198q70 -116 160 -116q72 0 72 79q0 56 -136 230.5t-136 278.5q0 113 89 200q33 32 183 134
q-58 101 -200 101q-253 0 -253 -691q0 -284 78 -419q102 -177 366 -177q172 0 319 68q162 75 242 212q10 -9 15 -20q-77 -155 -270 -240q-167 -72 -362 -72q-344 0 -581 197q-251 210 -251 548q0 271 173 457q177 191 446 191q159 0 271 -101q40 -36 45 -36q37 0 298 150
q62 -157 209 -157q88 0 161 74z" />
  </g>

</svg>
