<?xml version="1.0" standalone="no"?>
<!DOCTYPE svg PUBLIC "-//W3C//DTD SVG 1.1//EN" "http://www.w3.org/Graphics/SVG/1.1/DTD/svg11.dtd" >
<svg viewBox="0 -442 2048 2048">
  <g transform="matrix(1 0 0 -1 0 1606)">
   <path fill="currentColor"
d="M1664 240l-383 -267q-172 79 -220 220q-22 65 -22 224q0 213 61 285q55 66 354 148q-113 19 -145 29q-80 25 -118 81q-22 32 -30 120q-9 102 -20 132q-22 62 -84 62q-95 0 -95 -159q0 -34 8 -102t8 -102v-249q0 -149 -211 -353q-50 -49 -372 -343l-249 218
q-16 -11 -128 -106l-18 18l350 328l260 -211v319q0 351 -81 581q-6 18 -13 29q-73 119 -206 119q-153 0 -153 -110q0 -59 86 -105q148 -78 160 -88q86 -67 86 -180q0 -145 -137 -243q-80 -57 -238 -57v29q74 0 136 18q89 25 89 76q0 29 -76 66q-103 50 -142 85
q-76 70 -76 177q0 201 137 322q130 115 334 115q137 0 242 -45q128 -55 173 -166q22 211 280 211q196 0 266 -108q42 -64 47 -211q5 -128 38.5 -147.5t92.5 -18.5v-26q-26 2 -53 2q-118 0 -163 -80q-34 -59 -34 -187q0 -179 7 -229q22 -161 109 -161q45 0 132 58z" />
  </g>

</svg>
