<?xml version="1.0" standalone="no"?>
<!DOCTYPE svg PUBLIC "-//W3C//DTD SVG 1.1//EN" "http://www.w3.org/Graphics/SVG/1.1/DTD/svg11.dtd" >
<svg viewBox="0 -442 2048 2048">
  <g transform="matrix(1 0 0 -1 0 1606)">
   <path fill="currentColor"
d="M1454 346q-33 -88 -100 -175q-71 -92 -147 -137q-102 -61 -269 -61q-147 0 -317 70q-73 30 -255 130q-129 71 -178 71t-86.5 -45t-37.5 -95q0 -11 3 -23h-36q0 168 109 272q106 102 275 102q99 0 215 -41.5t124 -41.5q36 0 36 29q0 34 -78 79q-115 68 -145 94
q-78 68 -78 155q0 79 73 154q30 31 138 111q-78 48 -194 82t-205 34q-240 0 -240 -163q0 -81 72 -135q66 -49 150 -49q71 0 145 35v-33q-93 -32 -145 -32q-113 0 -193 71q-83 74 -83 185q0 197 157 305q137 94 343 94q170 0 363 -92q95 -45 285 -170q140 -92 182 -92
q69 0 69 61q0 68 -84 123q-69 45 -147 58v36q270 -87 270 -233q0 -115 -101 -179q-85 -54 -207 -54q-148 0 -410 136q-27 -13 -27 -35q0 -30 84 -78q122 -69 155 -96q84 -69 84 -149q0 -132 -233 -272q67 -55 211 -111q148 -57 230 -57q121 0 193 173z" />
  </g>

</svg>
