<?xml version="1.0" standalone="no"?>
<!DOCTYPE svg PUBLIC "-//W3C//DTD SVG 1.1//EN" "http://www.w3.org/Graphics/SVG/1.1/DTD/svg11.dtd" >
<svg viewBox="0 -442 2048 2048">
  <g transform="matrix(1 0 0 -1 0 1606)">
   <path fill="currentColor"
d="M1799 541q0 -274 -284 -434q-236 -134 -533 -134q-364 0 -616 169q-290 195 -290 542q0 275 196 478.5t470 203.5q164 0 301 -99q33 23 146 81l-11 -40q-50 -24 -110 -61q40 -36 98 -128l-35 -9q-43 71 -97 119q-78 -42 -78 -108q0 -45 83 -182q63 -105 118 -176
q191 85 191 148q0 8 -57 66.5t-57 117.5q0 114 160 191q133 64 261 64v-36q-63 -10 -89 -19q-52 -20 -61 -59q104 -54 120 -66q62 -47 62 -114q0 -60 -85 -122q-70 -50 -142 -70q42 -9 126 -30q213 -63 213 -293zM1384 451q0 327 -101 327q-17 0 -110 -47q83 -107 83 -231
q0 -130 -106 -217q-100 -83 -233 -83q-162 0 -253 159q-40 71 -52 157h36q56 -265 213 -265q72 0 72 65q0 58 -68 147q-124 161 -126 164q-68 106 -68 207q0 127 112 246q64 70 217 176q-101 56 -190 56q-188 0 -254 -232q-36 -129 -36 -385q0 -310 65 -462
q99 -231 366 -231q237 0 337 107q96 103 96 342z" />
  </g>

</svg>
