<?xml version="1.0" standalone="no"?>
<!DOCTYPE svg PUBLIC "-//W3C//DTD SVG 1.1//EN" "http://www.w3.org/Graphics/SVG/1.1/DTD/svg11.dtd" >
<svg viewBox="-135 -442 2048 2048">
  <g transform="matrix(1 0 0 -1 0 1606)">
   <path fill="currentColor"
d="M1256 85q0 -274 -208 -411q-177 -116 -465 -116q-286 0 -415 121q-71 67 -119 224q-37 122 -76 122q-73 0 -72 -231h-36q0 170 38 239q53 97 209 97q144 0 225 -106q72 -96 72 -245q0 -190 181 -190q160 0 211 157q27 85 27 290q0 232 -40 342q-67 183 -256 183
q-132 0 -239 -81q-112 -85 -129 -213h-43q19 100 93.5 189.5t169.5 115.5q-227 72 -227 229q0 70 51 114q48 43 119 43q64 0 110 -32q52 -37 52 -98q0 -57 -41 -89q-12 -10 -75 -39q-41 -18 -41 -43q0 -67 184 -67q267 0 267 309q0 397 -323 397q-155 0 -260 -90
q-109 -93 -119 -246h-36q0 199 173 310q148 95 359 95q228 0 398 -95q207 -116 207 -326q0 -323 -482 -365q260 -49 386 -139q170 -123 170 -355z" />
  </g>

</svg>
