<?xml version="1.0" standalone="no"?>
<!DOCTYPE svg PUBLIC "-//W3C//DTD SVG 1.1//EN" "http://www.w3.org/Graphics/SVG/1.1/DTD/svg11.dtd" >
<svg viewBox="-85 -442 2048 2048">
  <g transform="matrix(1 0 0 -1 0 1606)">
   <path fill="currentColor"
d="M426 1147q0 -47 -58 -109.5t-105 -62.5q-30 0 -89 87q-32 47 -32 87q0 51 48 87q45 32 98 32q54 0 96 -34t42 -87zM562 -274q-9 -8 -26 -32q-55 65 -103 157q-4 -15 -13 -44q-26 -76 -151 -133q-111 -50 -203 -50h-151v28q24 -4 49 -4q65 0 114 31q58 37 58 98v931
q0 32 -43 32q-20 0 -61 -28l-17 19l273 208q65 -69 253 -187q-106 -38 -106 -72v-727q0 -44 44.5 -125.5t82.5 -101.5z" />
  </g>

</svg>
