<?xml version="1.0" standalone="no"?>
<!DOCTYPE svg PUBLIC "-//W3C//DTD SVG 1.1//EN" "http://www.w3.org/Graphics/SVG/1.1/DTD/svg11.dtd" >
<svg viewBox="-45 -442 2048 2048">
  <g transform="matrix(1 0 0 -1 0 1606)">
   <path fill="currentColor"
d="M1406 276l-347 -303q-119 83 -137 98q-84 71 -92 131q-2 39 -7 116l-390 -345q-195 207 -424 265v36q73 -7 56 -7q28 0 61 15q40 17 40 41v662q0 41 -28.5 67.5t-70.5 26.5q-40 0 -94 -45l-18 20l328 312q89 -46 158 -109q93 -85 93 -158v-774q60 -38 150 -81
q50 40 144 117v624q0 38 -42 65q-38 24 -81 24q-10 0 -19 -2v29q80 5 184 94q97 82 135 162q159 -211 341 -256v-29q-9 2 -21 2q-127 0 -127 -80v-649q0 -37 27.5 -65.5t64.5 -28.5q32 0 107 45q7 -9 9 -20z" />
  </g>

</svg>
