<?xml version="1.0" standalone="no"?>
<!DOCTYPE svg PUBLIC "-//W3C//DTD SVG 1.1//EN" "http://www.w3.org/Graphics/SVG/1.1/DTD/svg11.dtd" >
<svg viewBox="0 -442 2048 2048">
  <g transform="matrix(1 0 0 -1 0 1606)">
   <path fill="currentColor"
d="M1671 866q-25 -20 -87 -20q-35 0 -103.5 15.5t-103.5 15.5q-17 0 -34 -15t-17 -32q0 -40 80 -79q115 -58 147 -86q80 -68 80 -176q0 -228 -249 -386q-205 -130 -408 -130q-136 0 -283 94q-5 3 -230 173q-123 94 -201 94q-106 0 -136 -157q-16 9 -34 7q13 94 100.5 187.5
t179.5 110.5q25 5 164 18q43 77 43 144v221q0 431 -229 431q-54 0 -95 -23q-51 -27 -51 -77q0 -65 74 -106q68 -38 137 -76q74 -59 74 -164q0 -141 -142 -231q-103 -65 -248 -65v27q202 -1 202 96q0 36 -71 83q-110 74 -130 93q-71 66 -71 147q0 169 171 275q147 91 327 91
q330 0 411 -227q17 130 79 180q59 47 192 47q147 0 234 -78q91 -82 91 -227q0 -18 -3.5 -54.5t-3.5 -54.5q0 -64 47 -75q48 -6 97 -11zM1460 247q0 63 -102 131q-94 59 -188 119q-102 76 -102 160q0 150 271 231q-89 39 -129 105q-35 58 -46 162q-1 27 -9 79q-15 62 -83 62
q-32 0 -63 -34t-31 -66v-330q0 -131 -147 -235q-70 -49 -263 -135q113 2 266 -98l250 -188q136 -102 206 -102q62 0 113 38q57 41 57 101z" />
  </g>

</svg>
