<?xml version="1.0" standalone="no"?>
<!DOCTYPE svg PUBLIC "-//W3C//DTD SVG 1.1//EN" "http://www.w3.org/Graphics/SVG/1.1/DTD/svg11.dtd" >
<svg viewBox="0 -442 2048 2048">
  <g transform="matrix(1 0 0 -1 0 1606)">
   <path fill="currentColor"
d="M960 -113q0 -162 -162 -253q-134 -75 -310 -75q-132 0 -227 31q-140 47 -140 151q0 58 47 93q43 32 103 32q61 0 109 -29q55 -34 55 -92q0 -51 -35 -79q-18 -14 -80 -39q18 -39 115 -39q107 0 182 39q95 49 95 146q0 51 -46 121q-64 96 -72 114q-26 60 -36 142
q-13 -8 -149 -108q-124 -91 -131 -91q-13 0 -79 49.5t-76 64.5q-30 45 -30 83v509q0 50 151 108q213 82 322 174q150 -139 350 -188q10 -2 30 -7q13 -5 14 -21q-34 -1 -66 -16q-40 -19 -40 -48v-564q0 -1 53 -67.5t53 -140.5zM562 188v473q-61 7 -170 87v-551q0 -25 12 -48
q14 -28 37 -28q17 0 121 67z" />
  </g>

</svg>
