<?xml version="1.0" standalone="no"?>
<!DOCTYPE svg PUBLIC "-//W3C//DTD SVG 1.1//EN" "http://www.w3.org/Graphics/SVG/1.1/DTD/svg11.dtd" >
<svg viewBox="0 -442 2048 2048">
  <g transform="matrix(1 0 0 -1 0 1606)">
   <path fill="currentColor"
d="M1528 549q0 -991 -828 -991q-151 0 -275 40q-176 57 -176 175q0 162 211 162q224 0 224 -146q0 -72 -55 -115q-50 -40 -124 -40q-6 0 -16.5 3t-16.5 3q-9 0 -12 -6q67 -45 217 -45q216 0 310 91q89 87 114 304q21 184 21 211v601q0 82 -15 226q-17 175 -39 209
q-38 59 -79 59q-94 0 -94 -151q0 -50 15.5 -149t15.5 -149q0 -176 -72 -267q-66 -83 -320 -193q14 -17 36.5 -20.5t44.5 -6.5q118 -22 240 -148q54 45 127 99l18 -20l-394 -312q-43 87 -132 151q-94 67 -187 67q-113 0 -168 -104h-36q41 111 169 204q132 97 246 90
q52 132 52 476q0 186 -29 276q-50 157 -194 157q-60 0 -107 -31q-54 -36 -54 -93q0 -53 72 -105q117 -84 134 -101q72 -76 72 -186q0 -135 -81 -232q-77 -91 -210 -132l-9 18q49 17 103 57q69 49 69 86q0 42 -74 81q-105 56 -139 89q-74 75 -74 203q0 188 142 308
q134 114 325 114q120 0 214 -47q108 -54 145 -157q39 195 226 195q250 0 365 -297q82 -211 82 -511z" />
  </g>

</svg>
