<?xml version="1.0" standalone="no"?>
<!DOCTYPE svg PUBLIC "-//W3C//DTD SVG 1.1//EN" "http://www.w3.org/Graphics/SVG/1.1/DTD/svg11.dtd" >
<svg viewBox="0 -442 2189 2048">
  <g transform="matrix(1 0 0 -1 0 1606)">
   <path fill="currentColor"
d="M2189 922q-39 -18 -181 -18q-44 0 -82 -14q-51 -19 -51 -56q0 -41 76 -84q110 -62 140 -91q76 -71 76 -181q0 -198 -204 -359q-185 -146 -364 -146q-89 0 -191 53q-44 22 -155 98q-78 53 -109 53q-16 0 -83 -53q-87 -68 -142 -98q-95 -53 -177 -53q-114 0 -288 113.5
t-250 113.5q-50 0 -86.5 -42t-36.5 -93l-36 7q0 125 117.5 246.5t241.5 121.5q44 0 87 -16q74 82 74 430q0 451 -204 451q-54 0 -103 -36q-54 -39 -54 -91q0 -56 78 -111q72 -50 145 -100q78 -68 78 -155q0 -125 -121 -233t-247 -108v29q57 0 120 31q75 36 75 86
q0 35 -79 74q-110 53 -145 85q-79 69 -79 179q0 190 154 306q141 105 337 105q225 0 357 -159q48 77 75 105q52 54 113 54q116 0 205 -159q139 159 374 159q293 0 371 -208q12 -83 49 -200q19 -25 40 -30q8 -2 49 -2q20 0 36 -4zM2003 224q0 55 -100 115q-177 107 -186 114
q-100 80 -100 179q0 163 272 270q-31 5 -92 20q-104 34 -141 136l-42 166q-28 81 -116 81q-63 0 -130 -54t-67 -116q0 -44 65 -119q116 -134 119 -139q65 -88 65 -166q0 -186 -222 -307q19 1 36 1q60 0 107 -13q63 -18 207 -142q129 -111 211 -111q36 0 73 24q41 27 41 61z
M1288 444q0 53 -117 180.5t-117 214.5q0 140 195 350q-106 72 -192 72q-82 0 -162 -72q70 -137 70 -276q0 -384 -431 -489q82 -25 184 -85q71 -44 141 -88q91 -51 153 -51q82 0 177 80q99 84 99 164z" />
  </g>

</svg>
