<?xml version="1.0" standalone="no"?>
<!DOCTYPE svg PUBLIC "-//W3C//DTD SVG 1.1//EN" "http://www.w3.org/Graphics/SVG/1.1/DTD/svg11.dtd" >
<svg viewBox="-22 -442 2048 2048">
  <g transform="matrix(1 0 0 -1 0 1606)">
   <path fill="currentColor"
d="M1422 1144q0 -80 -52.5 -136.5t-131.5 -56.5q-68 0 -124 43q-60 46 -60 112q0 56 90 181q-7 18 -38 18q-99 0 -158 -135q-46 -106 -46 -221v-202h244q36 0 73.5 38t38.5 74h30q0 -87 -42 -173q-51 -103 -129 -103h-209q-4 -9 -4 -27q0 -124 49 -212q61 -109 175 -109
q92 0 263 122l-3 -34q-462 -350 -471 -350q-45 0 -186 92q-75 49 -109 96t-63 135h-7q-60 -323 -319 -323q-96 0 -172 58q-83 63 -83 157q0 82 51.5 136.5t132.5 54.5q80 0 130 -43q53 -46 53 -125q0 -57 -43 -100q-20 -21 -91 -68q3 -41 56 -41q137 0 210 145
q57 115 57 268v168h-229q-35 0 -71 -38t-39 -74h-29q35 140 49 173q46 103 128 103h186q5 11 5 36q0 125 -70 212q-75 93 -197 93q-108 0 -236 -115q-2 11 -9 25l397 368q150 -25 280 -117q146 -103 178 -237q67 354 289 354q107 0 179 -56q77 -61 77 -166z" />
  </g>

</svg>
