<?xml version="1.0" standalone="no"?>
<!DOCTYPE svg PUBLIC "-//W3C//DTD SVG 1.1//EN" "http://www.w3.org/Graphics/SVG/1.1/DTD/svg11.dtd" >
<svg viewBox="0 -442 2048 2048">
  <g transform="matrix(1 0 0 -1 0 1606)">
   <path fill="currentColor"
d="M919 374q0 -137 -58 -200q-41 -44 -147 -77q-137 -42 -190 -71q-63 -34 -94 -75q-189 183 -373 223v25q8 -2 17 -2q28 0 55.5 22t27.5 50v645q0 41 -45 139.5t-76 125.5l25 17q55 -74 96 -157q19 35 38 69q23 39 49 62q107 95 439 95v-25q-19 2 -38 2q-79 0 -136 -44
q-62 -48 -62 -125v-312l318 178q95 -104 113 -134q41 -67 41 -170v-261zM625 135v554q0 27 -21.5 49.5t-48.5 22.5q-53 0 -106 -45v-449q56 -40 176 -132z" />
  </g>

</svg>
