<?xml version="1.0" standalone="no"?>
<!DOCTYPE svg PUBLIC "-//W3C//DTD SVG 1.1//EN" "http://www.w3.org/Graphics/SVG/1.1/DTD/svg11.dtd" >
<svg viewBox="0 -442 2048 2048">
  <g transform="matrix(1 0 0 -1 0 1606)">
   <path fill="currentColor"
d="M946 409q0 -115 -98 -214q-94 -86 -282 -259q-65 40 -179 74t-188 34q-73 0 -110 -57q-8 7 -17 9q107 140 191 277q-178 92 -178 214q0 92 81 170q13 13 156 119q110 82 166 163q95 -100 190 -100q64 0 110 33q52 37 52 99q0 97 -101 152q-83 45 -188 45q-113 0 -196 -54
q-92 -60 -107 -167h-34q9 122 115 190q93 59 222 59q144 0 247 -74q114 -82 114 -221q0 -113 -142 -250l-8 -29l-1 3q83 -18 133 -74q52 -59 52 -142zM731 634q-51 -22 -106 -22q-152 0 -288 136q-32 -34 -32 -78q0 -77 58.5 -141.5t134.5 -64.5q67 0 139 54q69 51 94 116z
M740 220q0 90 -51 150q-54 64 -142 64q-78 0 -151 -53q-69 -49 -103 -123q194 0 424 -129q23 44 23 91z" />
  </g>

</svg>
