<?xml version="1.0" standalone="no"?>
<!DOCTYPE svg PUBLIC "-//W3C//DTD SVG 1.1//EN" "http://www.w3.org/Graphics/SVG/1.1/DTD/svg11.dtd" >
<svg viewBox="0 -442 2048 2048">
  <g transform="matrix(1 0 0 -1 0 1606)">
   <path fill="currentColor"
d="M1066 167l-279 -216q-49 17 -105.5 86.5t-56.5 117.5v547q0 46 -57 46q-30 0 -112 -55v-511q0 -7 24 -29q28 -26 31 -30q-49 0 -119 -63q-66 -59 -82 -109q-39 59 -114 112q-81 57 -145 60q5 15 39 22q42 10 48 14q27 18 27 263q0 243 -11 271q-16 40 -65 40
q-43 0 -64 -36l-19 26l272 216q96 -51 123 -79q40 -41 59 -133l333 212q89 -117 231 -178q-2 -7 -42 -15.5t-54.5 -44t-14.5 -127.5v-189q0 -156 14 -194q13 -34 55 -34q35 0 76 29q1 -10 8 -19z" />
  </g>

</svg>
