<?xml version="1.0" standalone="no"?>
<!DOCTYPE svg PUBLIC "-//W3C//DTD SVG 1.1//EN" "http://www.w3.org/Graphics/SVG/1.1/DTD/svg11.dtd" >
<svg viewBox="0 -442 2048 2048">
  <g transform="matrix(1 0 0 -1 0 1606)">
   <path fill="currentColor"
d="M939 351q0 -70 -10 -105q-19 -68 -100 -106q-96 -36 -284 -113q-57 -26 -93 -76q-74 72 -175 134q-114 72 -199 89v25q100 -1 100 70v430q-129 71 -129 172q0 118 99 175q79 46 207 46q20 0 50 -2q0 -23 6 -34q-22 6 -57 6q-134 0 -134 -55q0 -27 99 -66q109 -42 118 -53
q16 -21 24 -61l14 -66l303 186q96 -67 132 -155q29 -73 29 -203v-238zM647 135v567q0 23 -23.5 45t-46.5 22q-36 0 -106 -44v-458q56 -40 176 -132z" />
  </g>

</svg>
