<?xml version="1.0" standalone="no"?>
<!DOCTYPE svg PUBLIC "-//W3C//DTD SVG 1.1//EN" "http://www.w3.org/Graphics/SVG/1.1/DTD/svg11.dtd" >
<svg viewBox="0 -442 2048 2048">
  <g transform="matrix(1 0 0 -1 0 1606)">
   <path fill="currentColor"
d="M740 25q0 -190 -119 -325q-124 -141 -311 -141q-138 0 -226 103q-84 97 -84 238q0 329 356 475q-29 25 -42 25q-63 0 -124.5 -43t-72.5 -43q-14 0 -29.5 13t-15.5 27q0 33 68 51q104 27 127 39q68 37 68 115q0 62 -33 105q-36 48 -96 48q-43 0 -117 -51l-17 26l358 252
q99 -98 112 -113q62 -75 62 -141q0 -85 -80 -145q-41 -31 -155 -80q43 -7 125 -26l208 79q-1 -16 10 -26l-178 -70q101 -56 156 -167q50 -102 50 -225zM436 128q0 184 -69 222q-246 -95 -246 -450q0 -114 29 -195q42 -117 134 -117q104 0 137 227q15 101 15 313z" />
  </g>

</svg>
