<?xml version="1.0" standalone="no"?>
<!DOCTYPE svg PUBLIC "-//W3C//DTD SVG 1.1//EN" "http://www.w3.org/Graphics/SVG/1.1/DTD/svg11.dtd" >
<svg viewBox="0 -442 2048 2048">
  <g transform="matrix(1 0 0 -1 0 1606)">
   <path fill="currentColor"
d="M1066 167l-269 -216q-67 23 -122 83q-60 65 -62 131l-325 -214q-89 116 -231 180q2 8 41.5 16.5t55.5 44.5q11 25 11 273q0 212 -10 237q-12 31 -55 31q-14 0 -85 -19l280 225q51 -19 104 -83q57 -67 57 -118v-550q0 -17 18 -30.5t35 -13.5q20 0 110 55v509q0 9 -24 31
q-17 14 -33 28q48 1 119 63q66 60 84 109q37 -61 114.5 -114t144.5 -58q-6 -16 -37 -21q-38 -7 -51 -17q-26 -20 -26 -73v-431q0 -28 23.5 -48t52.5 -20q37 0 72 36q0 -15 8 -26z" />
  </g>

</svg>
