<?xml version="1.0" standalone="no"?>
<!DOCTYPE svg PUBLIC "-//W3C//DTD SVG 1.1//EN" "http://www.w3.org/Graphics/SVG/1.1/DTD/svg11.dtd" >
<svg viewBox="-13 -442 2048 2048">
  <g transform="matrix(1 0 0 -1 0 1606)">
   <path fill="currentColor"
d="M973 138l-409 -187l-155 314l-142 -314q-95 64 -174 64q-52 0 -106 -64q0 82 47 166q54 97 129 97q80 0 161 -49q34 39 68 132q-6 24 -90 186q-84 159 -105 189q-32 46 -76 46q-49 0 -96 -42l-19 19q252 244 276 244q89 0 167 -118l102 -194l134 312q132 -70 176 -70
q71 0 87 85h25q-16 -105 -56 -180q-55 -104 -139 -104q-55 0 -148 48q-23 -39 -62 -120q1 -3 146 -289q20 -48 70 -133q34 -41 70 -41q7 0 119 28v-25z" />
  </g>

</svg>
