<?xml version="1.0" standalone="no"?>
<!DOCTYPE svg PUBLIC "-//W3C//DTD SVG 1.1//EN" "http://www.w3.org/Graphics/SVG/1.1/DTD/svg11.dtd" >
<svg viewBox="0 -442 2048 2048">
  <g transform="matrix(1 0 0 -1 0 1606)">
   <path fill="currentColor"
d="M994 337q0 -66 -29 -121q-18 -35 -80 -63q-50 -20 -99 -39q-53 -21 -93 -57q-54 -48 -70 -100q-42 29 -127 87q-55 -304 -127 -483h-26q-62 174 -78 271q-15 102 -47 306q-32 27 -80 27q-84 0 -84 -83q0 -11 1 -23q-19 12 -19 59q0 95 38 161q46 79 134 83v352
q-130 72 -130 172q0 120 89 180q76 51 202 51v-27q-44 0 -85 -13q-57 -17 -57 -51q0 -29 93 -62q106 -37 132 -73q17 -23 48 -143l344 199q98 -73 125 -218q13 -69 13 -259q0 -22 6 -66.5t6 -66.5zM689 178v496q0 30 -25.5 55.5t-55.5 25.5q-34 0 -110 -45v-409
q127 -57 191 -123z" />
  </g>

</svg>
