<?xml version="1.0" standalone="no"?>
<!DOCTYPE svg PUBLIC "-//W3C//DTD SVG 1.1//EN" "http://www.w3.org/Graphics/SVG/1.1/DTD/svg11.dtd" >
<svg viewBox="0 -442 2048 2048">
  <g transform="matrix(1 0 0 -1 0 1606)">
   <path fill="currentColor"
d="M1075 176l-293 -225q-25 7 -61 42q-50 49 -65 118q-9 68 -18 135q-13 74 -66 161q-38 63 -59 63q-2 0 -87 -48v-240q0 -38 53 -38q25 0 53 13l9 -17q-110 -70 -133 -86q-73 -52 -120 -103q-58 65 -252 182q100 21 100 70v719q0 93 -115 257l19 17q67 -92 94 -157
q79 226 405 226h114v-25q-19 2 -38 2q-76 0 -132 -50q-57 -53 -57 -128v-339q87 58 174 117q145 97 155 97q15 0 81 -58q63 -56 76 -75q20 -30 20 -60q0 -5 -1 -13q-68 -42 -176 -110q93 -80 137 -180q28 -64 62 -218q12 -54 55 -54q12 0 34 2.5t32 2.5zM681 608
q-110 132 -153 132q-41 0 -102 -51v-233z" />
  </g>

</svg>
