<?xml version="1.0" standalone="no"?>
<!DOCTYPE svg PUBLIC "-//W3C//DTD SVG 1.1//EN" "http://www.w3.org/Graphics/SVG/1.1/DTD/svg11.dtd" >
<svg viewBox="0 -442 2048 2048">
  <g transform="matrix(1 0 0 -1 0 1606)">
   <path fill="currentColor"
d="M1392 725q5 -37 5 -239q0 -207 -6 -234q-12 -54 -89 -87q-107 -40 -214 -79q-125 -53 -181 -135q-202 157 -345 187q30 22 72 59v511q0 61 -68 61q-34 0 -110 -48v-518q0 -33 74 -51l2 -14q-60 -15 -133 -73t-104 -114q-24 59 -95 123q-74 66 -134 78v17q39 3 53 7
q28 8 44 29v494q-121 63 -121 172q0 104 95 168q83 56 192 56q32 0 61 -5q-1 -21 9 -34q-24 6 -57 6q-128 0 -128 -55q0 -27 91 -60q103 -37 115 -50q35 -37 35 -139l317 189q66 -66 157 -186l313 184q36 -37 71 -74q70 -76 79 -146zM1102 150v560q0 22 -22 40.5t-45 18.5
q-34 0 -111 -44v-503q61 -25 178 -72z" />
  </g>

</svg>
