<?xml version="1.0" standalone="no"?>
<!DOCTYPE svg PUBLIC "-//W3C//DTD SVG 1.1//EN" "http://www.w3.org/Graphics/SVG/1.1/DTD/svg11.dtd" >
<svg viewBox="0 -442 2048 2048">
  <g transform="matrix(1 0 0 -1 0 1606)">
   <path fill="currentColor"
d="M1507 176l-279 -225q-50 18 -106 86t-56 118v547q0 12 -18 29t-30 17q-40 0 -115 -63v-503l57 -59q-50 -1 -118.5 -61.5t-82.5 -110.5q-118 155 -231 172l2 17q83 14 83 63v511q0 34 -51 34q-25 0 -115 -55v-511q0 1 58 -59q-50 -1 -118 -61t-84 -111q-44 63 -114 112
q-76 52 -147 60q8 15 40 22q38 8 47 14q28 20 28 121v347q0 106 -74 106q-43 0 -64 -36l-19 26l269 216q60 -14 122 -84t63 -130l275 214q162 -79 181 -212l324 212q89 -117 231 -178q-2 -8 -42.5 -18.5t-56.5 -44.5q-13 -28 -13 -110q0 -59 3 -177.5t3 -177.5q0 -76 64 -76
q14 0 84 19z" />
  </g>

</svg>
