<?xml version="1.0" standalone="no"?>
<!DOCTYPE svg PUBLIC "-//W3C//DTD SVG 1.1//EN" "http://www.w3.org/Graphics/SVG/1.1/DTD/svg11.dtd" >
<svg viewBox="0 -442 2048 2048">
  <g transform="matrix(1 0 0 -1 0 1606)">
   <path fill="currentColor"
d="M1348 -331q-97 -23 -207 -23q-154 0 -247 84.5t-101 252.5q-30 -5 -50 -6.5t-39 -1.5q-140 0 -254 47q-231 94 -318 354q-43 129 -43 296q0 329 167 518q161 181 448 181q143 0 257 -47q231 -96 317 -355q43 -130 43 -297q0 -246 -99.5 -414t-271.5 -237
q4 -112 51 -171.5t170 -59.5q84 0 162 31h15v-152zM1150 672q0 240 -100 387q-116 171 -345 171t-345 -170q-100 -147 -100 -388q0 -239 100 -386q117 -171 345 -171q229 0 345 171q100 147 100 386z" />
  </g>

</svg>
