<?xml version="1.0" standalone="no"?>
<!DOCTYPE svg PUBLIC "-//W3C//DTD SVG 1.1//EN" "http://www.w3.org/Graphics/SVG/1.1/DTD/svg11.dtd" >
<svg viewBox="0 -442 2048 2048">
  <g transform="matrix(1 0 0 -1 0 1606)">
   <path fill="currentColor"
d="M1126 380q0 -171 -136 -282q-150 -122 -395 -122q-251 0 -489 106v213h2q214 -179 489 -179q141 0 236 49q122 62 122 190q0 91 -47 140q-41 42 -135 67q-105 19 -314 60q-345 73 -345 365q0 184 162 290q140 90 335 90q249 0 461 -92v-201h-2q-180 153 -460 153
q-124 0 -214 -49q-111 -60 -111 -174q0 -168 201 -215q116 -19 345 -68q295 -78 295 -341z" />
  </g>

</svg>
