<?xml version="1.0" standalone="no"?>
<!DOCTYPE svg PUBLIC "-//W3C//DTD SVG 1.1//EN" "http://www.w3.org/Graphics/SVG/1.1/DTD/svg11.dtd" >
<svg viewBox="0 -442 2048 2048">
  <g transform="matrix(1 0 0 -1 0 1606)">
   <path fill="currentColor"
d="M1431 674q0 -239 -105.5 -411t-316.5 -244q4 -110 54 -153.5t165 -43.5q84 0 161 36h15v-214q-120 -27 -275 -27q-202 0 -309 99q-95 89 -105 265q-309 18 -473 201t-164 492q0 323 179.5 510t496.5 187t497 -187t180 -510zM1103 675q0 235 -105 359q-93 110 -243 110
q-147 0 -242 -108q-106 -120 -106 -362q0 -233 104 -358q92 -111 244 -111q153 0 245 113q103 126 103 357z" />
  </g>

</svg>
