<?xml version="1.0" standalone="no"?>
<!DOCTYPE svg PUBLIC "-//W3C//DTD SVG 1.1//EN" "http://www.w3.org/Graphics/SVG/1.1/DTD/svg11.dtd" >
<svg viewBox="0 -442 2048 2048">
  <g transform="matrix(1 0 0 -1 0 1606)">
   <path fill="currentColor"
d="M1187 1109q0 -117 -69 -210q-64 -84 -179 -133v-18q111 -25 166.5 -90.5t55.5 -168.5q0 -112 -55.5 -214.5t-149.5 -166.5q-158 -108 -414 -108h-484l308 1343h380q132 0 178 -5q103 -10 168 -50q96 -60 95 -179zM1008 1059q0 75 -51 111q-60 40 -246 40h-210l-96 -418
h244q156 0 240 49q119 69 119 218zM988 476q0 97 -82 148q-62 38 -253 38h-277l-123 -529h256q120 0 196 13q176 31 245 168q38 76 38 162z" />
  </g>

</svg>
