<?xml version="1.0" standalone="no"?>
<!DOCTYPE svg PUBLIC "-//W3C//DTD SVG 1.1//EN" "http://www.w3.org/Graphics/SVG/1.1/DTD/svg11.dtd" >
<svg viewBox="0 -442 2048 2048">
  <g transform="matrix(1 0 0 -1 0 1606)">
   <path fill="currentColor"
d="M1238 1271l-38 -182h-4q-76 69 -204 109q-116 36 -231 36q-143 0 -244 -60q-123 -72 -123 -206q0 -140 165 -181q106 -21 314 -70q255 -70 255 -276q0 -192 -162 -323q-176 -142 -453 -142q-253 0 -472 109l41 196h4q85 -81 213 -128q122 -44 245 -44q160 0 269 59
q136 75 136 222q0 132 -149 174q-98 21 -293 64q-291 67 -291 295q0 214 189 338q162 106 388 106q242 0 445 -96z" />
  </g>

</svg>
