<?xml version="1.0" standalone="no"?>
<!DOCTYPE svg PUBLIC "-//W3C//DTD SVG 1.1//EN" "http://www.w3.org/Graphics/SVG/1.1/DTD/svg11.dtd" >
<svg viewBox="0 -442 2048 2048">
  <g transform="matrix(1 0 0 -1 0 1606)">
   <path fill="currentColor"
d="M1390 871q0 -285 -138 -522.5t-385 -328.5l-4 -39q-2 -18 -2 -28q0 -100 48 -136t136 -36q80 0 170 31h14l-29 -142q-101 -24 -212 -24q-285 0 -284 260q0 16 1.5 31.5t4.5 43.5q-28 -2 -48.5 -3.5t-44.5 -1.5q-239 0 -371 130t-132 370q0 262 112 479q121 234 342 343
q145 73 318 73q240 0 372 -130.5t132 -369.5zM1215 845q0 181 -87 283q-93 110 -270 110q-131 0 -236 -61q-213 -122 -294 -398q-39 -134 -39 -275q0 -182 87 -286q93 -111 271 -111q254 0 413 220q155 213 155 518z" />
  </g>

</svg>
