<?xml version="1.0" standalone="no"?>
<!DOCTYPE svg PUBLIC "-//W3C//DTD SVG 1.1//EN" "http://www.w3.org/Graphics/SVG/1.1/DTD/svg11.dtd" >
<svg viewBox="0 -442 2048 2048">
  <g transform="matrix(1 0 0 -1 0 1606)">
   <path fill="currentColor"
d="M1006 923l-188 -821q-52 -227 -171 -335q-128 -117 -354 -117q-144 0 -276 40l36 155h8q132 -59 273 -59q148 0 224 75q62 62 91 184l19 81q-91 -61 -146 -83q-72 -29 -164 -29q-141 0 -216 88q-71 83 -71 226q0 248 150 434.5t370 186.5q146 0 250 -66l19 40h146z
M812 757q-112 58 -221 58q-160 0 -262 -139q-96 -130 -96 -320q0 -204 188 -204q119 0 276 102z" />
  </g>

</svg>
