<?xml version="1.0" standalone="no"?>
<!DOCTYPE svg PUBLIC "-//W3C//DTD SVG 1.1//EN" "http://www.w3.org/Graphics/SVG/1.1/DTD/svg11.dtd" >
<svg viewBox="0 -442 2048 2048">
  <g transform="matrix(1 0 0 -1 0 1606)">
   <path fill="currentColor"
d="M970 142l-28 -134q-86 -21 -118 -21q-159 0 -178 121l-14 -10q-73 -50 -139 -79q-100 -45 -214 -45q-108 0 -176 62q-71 63 -71 170q0 212 192 309q166 83 525 94q12 54 12 75q0 73 -61 104q-49 26 -152 26q-135 0 -306 -68h-8l30 156q167 43 313 43q343 0 343 -224
q0 -41 -12 -95l-100 -433q-3 -13 -3 -24q0 -52 54 -52q40 0 103 25h8zM722 487q-267 -11 -389 -61q-137 -57 -137 -191q0 -122 167 -122q135 0 299 114z" />
  </g>

</svg>
