<?xml version="1.0" standalone="no"?>
<!DOCTYPE svg PUBLIC "-//W3C//DTD SVG 1.1//EN" "http://www.w3.org/Graphics/SVG/1.1/DTD/svg11.dtd" >
<svg viewBox="0 -442 2048 2048">
  <g transform="matrix(1 0 0 -1 0 1606)">
   <path fill="currentColor"
d="M1465 822q-1 -220 -116 -416.5t-307 -303.5q-185 -102 -527 -102h-466l310 1343h422q336 0 490 -110q195 -139 194 -411zM1133 790q0 98 -35 169q-55 110 -180 146q-65 19 -176 19h-117l-210 -904h163q111 0 186 20q41 11 88 36q136 71 211 217q69 134 70 297z" />
  </g>

</svg>
