<?xml version="1.0" standalone="no"?>
<!DOCTYPE svg PUBLIC "-//W3C//DTD SVG 1.1//EN" "http://www.w3.org/Graphics/SVG/1.1/DTD/svg11.dtd" >
<svg viewBox="0 -442 2048 2048">
  <g transform="matrix(1 0 0 -1 0 1606)">
   <path fill="currentColor"
d="M954 597q0 -260 -146 -437q-153 -186 -386 -186q-165 0 -256.5 94t-91.5 259q0 182 77 332q84 162 237 239q100 51 218 51q165 0 256.5 -93.5t91.5 -258.5zM792 584q0 235 -211 235q-155 0 -254 -144q-92 -135 -92 -335q0 -236 212 -236q157 0 254 144q91 136 91 336z
" />
  </g>

</svg>
