<?xml version="1.0" standalone="no"?>
<!DOCTYPE svg PUBLIC "-//W3C//DTD SVG 1.1//EN" "http://www.w3.org/Graphics/SVG/1.1/DTD/svg11.dtd" >
<svg viewBox="0 -442 2048 2048">
  <g transform="matrix(1 0 0 -1 0 1606)">
   <path fill="currentColor"
d="M1386 1263l-75 -310h-21q-168 183 -375 183q-228 0 -362 -193q-118 -170 -119 -408q-1 -171 75.5 -249.5t221.5 -78.5q220 0 447 182h11l-74 -301q-62 -28 -190 -75q-131 -39 -275 -39q-266 0 -408.5 132.5t-141.5 380.5q2 388 245 640q233 242 587 242q267 0 454 -106z
" />
  </g>

</svg>
