<?xml version="1.0" standalone="no"?>
<!DOCTYPE svg PUBLIC "-//W3C//DTD SVG 1.1//EN" "http://www.w3.org/Graphics/SVG/1.1/DTD/svg11.dtd" >
<svg viewBox="0 -442 2048 2048">
  <g transform="matrix(1 0 0 -1 0 1606)">
   <path fill="currentColor"
d="M855 873l-33 -158h-8q-48 39 -108 66q-86 39 -182 39q-91 0 -154 -35q-78 -43 -78 -127q0 -82 127 -113q57 -11 170 -37q193 -47 193 -201q0 -136 -118 -229q-126 -100 -329 -100q-172 0 -321 81l35 166h8q53 -46 116 -75q97 -47 196 -47q248 0 248 170q0 75 -131 105
q-57 12 -169 38q-189 53 -189 205q0 130 112 224q118 100 316 100q177 0 299 -72z" />
  </g>

</svg>
