<?xml version="1.0" standalone="no"?>
<!DOCTYPE svg PUBLIC "-//W3C//DTD SVG 1.1//EN" "http://www.w3.org/Graphics/SVG/1.1/DTD/svg11.dtd" >
<svg viewBox="0 -442 2048 2048">
  <g transform="matrix(1 0 0 -1 0 1606)">
   <path fill="currentColor"
d="M1505 850q-1 -274 -133 -490q-65 -106 -163 -192t-228 -136q-6 -21 -8 -40t-3 -36q0 -70 45 -103q42 -31 140 -31q88 0 169 36h12l-50 -214q-127 -27 -248 -27q-179 0 -267.5 68.5t-87.5 197.5q0 22 2 40.5t8 54.5h-24q-269 0 -419 140.5t-149 386.5q2 363 230 611
q233 255 606 255q270 0 420 -140.5t148 -380.5zM1172 821q1 153 -72 241t-208 88q-180 0 -313 -164q-143 -175 -144 -454q-1 -163 73.5 -248t207.5 -85q189 0 320 175q135 180 136 447z" />
  </g>

</svg>
