<?xml version="1.0" standalone="no"?>
<!DOCTYPE svg PUBLIC "-//W3C//DTD SVG 1.1//EN" "http://www.w3.org/Graphics/SVG/1.1/DTD/svg11.dtd" >
<svg viewBox="0 -442 2048 2048">
  <g transform="matrix(1 0 0 -1 0 1606)">
   <path fill="currentColor"
d="M1313 1282l-62 -292h-18q-169 156 -442 156q-295 0 -296 -165q0 -36 12 -61q24 -47 144 -89q63 -22 147 -45q189 -52 273 -110q133 -90 132 -245q-1 -226 -191 -342q-184 -113 -490 -113q-296 0 -521 99l65 304h20q197 -181 493 -181q302 0 303 174q0 33 -13 57
q-26 48 -141 89q-108 31 -320 105q-235 97 -234 307q1 232 223 347q174 90 429 90q292 0 487 -85z" />
  </g>

</svg>
