<?xml version="1.0" standalone="no"?>
<!DOCTYPE svg PUBLIC "-//W3C//DTD SVG 1.1//EN" "http://www.w3.org/Graphics/SVG/1.1/DTD/svg11.dtd" >
<svg viewBox="0 -442 2048 2048">
  <g transform="matrix(1 0 0 -1 0 1606)">
   <path fill="currentColor"
d="M1482 1255l-73 -298h-20q-194 187 -423 187q-122 0 -221 -51q-195 -100 -273 -330q-37 -111 -38 -233q-1 -172 92 -254.5t298 -82.5q48 0 99 5l70 300h-268l53 227h588l-151 -650q-296 -103 -523 -103q-280 0 -436.5 134t-155.5 381q2 387 245 634.5t628 247.5
q289 0 509 -114z" />
  </g>

</svg>
