<?xml version="1.0" standalone="no"?>
<!DOCTYPE svg PUBLIC "-//W3C//DTD SVG 1.1//EN" "http://www.w3.org/Graphics/SVG/1.1/DTD/svg11.dtd" >
<svg viewBox="0 -442 2048 2048">
  <g transform="matrix(1 0 0 -1 0 1606)">
   <path fill="currentColor"
d="M1113 213l-46 -198q-113 -28 -196 -28q-206 0 -235 126q-17 -13 -88 -59q-75 -48 -160 -69q-40 -10 -111 -10q-111 0 -184 60q-77 65 -77 173q0 306 433 368q132 19 285 28q6 35 6 41q0 105 -216 105q-117 0 -294 -65h-27l43 218q181 46 377 46q420 0 420 -232
q0 -43 -11 -89l-95 -411q-7 -32 31 -32q62 0 120 28h25zM693 436q-139 -12 -182 -20q-119 -22 -160 -73q-26 -33 -26 -87q0 -87 136 -87q87 0 187 72z" />
  </g>

</svg>
