<?xml version="1.0" standalone="no"?>
<!DOCTYPE svg PUBLIC "-//W3C//DTD SVG 1.1//EN" "http://www.w3.org/Graphics/SVG/1.1/DTD/svg11.dtd" >
<svg viewBox="0 -442 2048 2048">
  <g transform="matrix(1 0 0 -1 0 1606)">
   <path fill="currentColor"
d="M1228 1279l-245 -1062q-8 -32 31 -32q62 0 120 28h25l-46 -198q-114 -28 -196 -28q-207 0 -236 126l-24 -17q-27 -17 -75 -49q-71 -47 -145 -64q-36 -8 -86 -8q-145 0 -222 96q-72 89 -72 238q0 261 158 450t378 189q131 0 246 -62l92 393h297zM798 708q-63 30 -130 30
q-139 0 -224 -117q-76 -105 -76 -268q0 -159 156 -159q71 0 170 61z" />
  </g>

</svg>
