<?xml version="1.0" standalone="no"?>
<!DOCTYPE svg PUBLIC "-//W3C//DTD SVG 1.1//EN" "http://www.w3.org/Graphics/SVG/1.1/DTD/svg11.dtd" >
<svg viewBox="0 -442 2048 2048">
  <g transform="matrix(1 0 0 -1 0 1606)">
   <path fill="currentColor"
d="M1097 585q0 -267 -166 -438q-170 -176 -444 -176q-192 0 -304 88q-122 97 -122 284q0 189 91 337q94 152 263 224q114 48 256 48q191 0 303 -86q123 -95 123 -281zM789 575q0 175 -154 175q-118 0 -194 -116q-72 -112 -72 -286q0 -175 157 -175q114 0 187 110
q76 115 76 292z" />
  </g>

</svg>
