<?xml version="1.0" standalone="no"?>
<!DOCTYPE svg PUBLIC "-//W3C//DTD SVG 1.1//EN" "http://www.w3.org/Graphics/SVG/1.1/DTD/svg11.dtd" >
<svg viewBox="-46 -442 2048 2048">
  <g transform="matrix(1 0 0 -1 0 1606)">
   <path fill="currentColor"
d="M1123 628q0 -265 -155 -453q-159 -193 -380 -193q-142 0 -248 64l-88 -385h-298l292 1262h297l-22 -96q177 121 312 121q144 0 219 -90q71 -83 71 -230zM810 576q0 155 -150 155q-70 0 -174 -55l-107 -465q54 -24 133 -24q146 0 225 117q73 108 73 272z" />
  </g>

</svg>
