<?xml version="1.0" standalone="no"?>
<!DOCTYPE svg PUBLIC "-//W3C//DTD SVG 1.1//EN" "http://www.w3.org/Graphics/SVG/1.1/DTD/svg11.dtd" >
<svg viewBox="0 -442 2048 2048">
  <g transform="matrix(1 0 0 -1 0 1606)">
   <path fill="currentColor"
d="M1146 923l-292 -1262h-298l100 429q-48 -31 -146 -84q-74 -31 -159 -31q-145 0 -223 96q-71 89 -71 238q0 270 165 459q157 180 371 180q133 0 244 -66l20 41h289zM798 708q-63 30 -131 30q-139 0 -223 -118q-77 -108 -77 -266q0 -160 157 -160q70 0 170 61z" />
  </g>

</svg>
