<?xml version="1.0" standalone="no"?>
<!DOCTYPE svg PUBLIC "-//W3C//DTD SVG 1.1//EN" "http://www.w3.org/Graphics/SVG/1.1/DTD/svg11.dtd" >
<svg viewBox="0 -442 2048 2048">
  <g transform="matrix(1 0 0 -1 0 1606)">
   <path fill="currentColor"
d="M1058 368q0 -166 -141 -282q-134 -110 -304 -110q-169 0 -305 126q-121 111 -180 284q-46 134 -46 286t46 286q59 172 179 283q136 126 304 126q162 0 286 -105q27 58 34 68q25 37 61 37q66 0 66 -90v-305q0 -48 -13 -67q-16 -25 -64 -25q-41 0 -56 18q-10 11 -21 56
q-70 279 -284 279q-119 0 -219 -101q-84 -86 -128 -213q-39 -115 -39 -247q0 -134 38 -247q44 -128 129 -214q100 -101 221 -101q85 0 157 45q76 47 105 123q7 33 22 99q10 39 24 52t51 13q77 0 77 -74z" />
  </g>

</svg>
