<?xml version="1.0" standalone="no"?>
<!DOCTYPE svg PUBLIC "-//W3C//DTD SVG 1.1//EN" "http://www.w3.org/Graphics/SVG/1.1/DTD/svg11.dtd" >
<svg viewBox="0 -442 2048 2048">
  <g transform="matrix(1 0 0 -1 0 1606)">
   <path fill="currentColor"
d="M1074 527q0 -71 -103 -68v-369q0 -90 -76 -90q-80 0 -77 92q-101 -116 -261 -116t-286 130q-108 111 -162 279q-43 133 -43 287q0 155 42 285q54 169 162 280q127 130 287 130q142 0 257 -99q40 99 90 99q67 0 67 -90v-305q0 -92 -78 -92q-60 0 -75 65q-6 33 -24 99
q-28 81 -85 132q-64 57 -143 57q-113 0 -205 -111q-74 -89 -110 -215q-32 -109 -32 -236q0 -125 30 -231q35 -127 109 -218q92 -112 206 -112q117 0 185 121q51 91 65 228h-92q-88 0 -88 68q0 66 88 66h261q91 0 91 -66z" />
  </g>

</svg>
