<?xml version="1.0" standalone="no"?>
<!DOCTYPE svg PUBLIC "-//W3C//DTD SVG 1.1//EN" "http://www.w3.org/Graphics/SVG/1.1/DTD/svg11.dtd" >
<svg viewBox="0 -442 2048 2048">
  <g transform="matrix(1 0 0 -1 0 1606)">
   <path fill="currentColor"
d="M1075 366q0 -156 -111.5 -261t-269.5 -105h-540q-89 0 -89 66q0 54 54 66q19 5 97 3v1073l-55 -1q-96 0 -96 70q0 66 89 66h497q151 0 261 -93q116 -99 116 -248q0 -103 -70 -186q-65 -77 -168 -113q123 -29 202 -119q83 -94 83 -218zM877 1000q0 97 -71 154
q-66 54 -164 54h-276v-443h227q114 0 195 59q89 67 89 176zM923 371q0 110 -71.5 185t-180.5 75h-305v-496h280q112 0 191 61q86 67 86 175z" />
  </g>

</svg>
