<?xml version="1.0" standalone="no"?>
<!DOCTYPE svg PUBLIC "-//W3C//DTD SVG 1.1//EN" "http://www.w3.org/Graphics/SVG/1.1/DTD/svg11.dtd" >
<svg viewBox="0 -442 2048 2048">
  <g transform="matrix(1 0 0 -1 0 1606)">
   <path fill="currentColor"
d="M1035 567q0 -172 -14 -266q-32 -217 -179 -283l111 -201q22 -39 22 -67q0 -38 -39 -59q-20 -11 -38 -11q-43 0 -78 63l-132 238q-49 -5 -112 -5q-205 0 -302 61q-115 72 -143 264q-14 94 -14 266v210q0 171 14 265q28 192 144 264q95 61 301 61t301 -61q115 -72 144 -264
q14 -94 14 -265v-210zM883 514v315q0 227 -39 297q-60 107 -268 107t-268 -107q-39 -70 -39 -297v-315q0 -227 39 -297q60 -107 268 -107q21 0 40 1l-64 115q-22 38 -22 67q0 38 39 59q20 11 38 11q43 0 78 -63l86 -154q75 40 98 138q14 63 14 230z" />
  </g>

</svg>
