<?xml version="1.0" standalone="no"?>
<!DOCTYPE svg PUBLIC "-//W3C//DTD SVG 1.1//EN" "http://www.w3.org/Graphics/SVG/1.1/DTD/svg11.dtd" >
<svg viewBox="0 -442 2048 2048">
  <g transform="matrix(1 0 0 -1 0 1606)">
   <path fill="currentColor"
d="M1032 364q0 -167 -124 -279q-120 -109 -289 -109q-228 0 -363 101q-24 -101 -81 -101q-67 0 -67 90v290q0 90 78 90q43 0 57 -19q11 -13 17 -59q16 -130 103 -190q100 -68 257 -68q108 0 187 67q83 71 83 177q0 191 -245 248q-85 17 -252 60q-126 39 -202 125
q-83 94 -83 219q0 159 128 263q120 98 281 98q187 0 309 -103q23 103 81 103q66 0 66 -90v-290q0 -90 -77 -90q-37 0 -52 14q-13 11 -22 47q-7 33 -25 98q-67 177 -281 177q-101 0 -179 -57q-85 -64 -85 -161q0 -75 50 -130.5t125 -75.5q14 -3 179 -39q125 -28 172 -46
q83 -32 149 -98q105 -106 105 -262z" />
  </g>

</svg>
