<?xml version="1.0" standalone="no"?>
<!DOCTYPE svg PUBLIC "-//W3C//DTD SVG 1.1//EN" "http://www.w3.org/Graphics/SVG/1.1/DTD/svg11.dtd" >
<svg viewBox="0 -442 2048 2048">
  <g transform="matrix(1 0 0 -1 0 1606)">
   <path fill="currentColor"
d="M1089 463q0 -190 -125 -330q-130 -146 -317 -146q-142 0 -248 109v-10q0 -86 -73 -86q-74 0 -74 87v1090h-96q-86 0 -86 65q0 67 87 67h156q52 0 69 -18.5t17 -69.5v-389q114 104 273 104q180 0 302 -149q115 -140 115 -324zM940 463q0 130 -74 232q-82 111 -208 111
q-99 0 -179 -72t-80 -169v-157q0 -108 66 -195q72 -95 176 -95q130 0 217 110q82 102 82 235z" />
  </g>

</svg>
