<?xml version="1.0" standalone="no"?>
<!DOCTYPE svg PUBLIC "-//W3C//DTD SVG 1.1//EN" "http://www.w3.org/Graphics/SVG/1.1/DTD/svg11.dtd" >
<svg viewBox="0 -442 2048 2048">
  <g transform="matrix(1 0 0 -1 0 1606)">
   <path fill="currentColor"
d="M1120 204q0 -88 -51 -155q-55 -73 -140 -73q-114 0 -174 101q-34 59 -41 155v163q0 102 -49 148q-65 61 -165 61h-185v-469h26q16 1 25 1q93 0 93 -70q0 -66 -89 -66h-262q-88 0 -88 66q0 54 51 66q15 4 93 3v1073h-25q-16 -1 -26 -1q-93 0 -93 68t88 68h390
q168 0 292 -98q135 -106 135 -270q0 -202 -188 -306q79 -62 106 -132q22 -54 22 -147q0 -16 -1 -53.5t-1 -59.5q0 -167 64 -167q24 0 33 39q4 30 8 59q9 66 74 66q78 0 78 -70zM772 975q0 109 -98 175q-86 58 -200 58h-159v-469h159q114 0 200 59q98 67 98 177z" />
  </g>

</svg>
