<?xml version="1.0" standalone="no"?>
<!DOCTYPE svg PUBLIC "-//W3C//DTD SVG 1.1//EN" "http://www.w3.org/Graphics/SVG/1.1/DTD/svg11.dtd" >
<svg viewBox="0 -442 2048 2048">
  <g transform="matrix(1 0 0 -1 0 1606)">
   <path fill="currentColor"
d="M1081 66q0 -46 -34 -59q-18 -7 -73 -7q-181 0 -230 68q-124 -81 -313 -81q-136 0 -239 74q-114 83 -114 214q0 179 246 260q162 54 395 58q1 219 -308 219q-29 0 -43 -1q-48 -3 -48 -42q0 -6 -5 -18q-27 -63 -86 -63q-95 0 -95 98q0 156 310 156q171 0 288 -78
q135 -90 135 -253v-464q42 -16 128 -16t86 -65zM719 287v180q-162 -4 -290 -37q-204 -51 -204 -155q0 -75 76 -120q64 -37 145 -37q115 0 189 36q48 23 66 50.5t18 82.5z" />
  </g>

</svg>
