<?xml version="1.0" standalone="no"?>
<!DOCTYPE svg PUBLIC "-//W3C//DTD SVG 1.1//EN" "http://www.w3.org/Graphics/SVG/1.1/DTD/svg11.dtd" >
<svg viewBox="0 -442 2048 2048">
  <g transform="matrix(1 0 0 -1 0 1606)">
   <path fill="currentColor"
d="M1089 66q0 -66 -88 -66h-157q-59 0 -75 26q-11 18 -10 81q-116 -120 -270 -120q-181 0 -304 149q-115 141 -115 326q0 190 123 329q129 145 316 145q142 0 250 -95v336h-97q-84 0 -84 65q0 67 87 67h156q52 0 69 -18.5t17 -69.5v-1090h96q86 0 86 -65zM759 414v153
q0 95 -73.5 167t-168.5 72q-130 0 -218 -109q-82 -102 -82 -235q0 -129 74 -231q82 -113 206 -113q108 0 187 95q75 90 75 201z" />
  </g>

</svg>
