<?xml version="1.0" standalone="no"?>
<!DOCTYPE svg PUBLIC "-//W3C//DTD SVG 1.1//EN" "http://www.w3.org/Graphics/SVG/1.1/DTD/svg11.dtd" >
<svg viewBox="0 -442 2048 2048">
  <g transform="matrix(1 0 0 -1 0 1606)">
   <path fill="currentColor"
d="M1017 233q0 -33 -33 -82q-110 -164 -351 -164q-201 0 -346 138.5t-145 339.5q0 194 133.5 335.5t326.5 141.5q195 0 308 -131q107 -124 107 -322q0 -47 -19 -63.5t-67 -16.5h-638q24 -127 124 -209t230 -82q125 0 189 72q9 10 34 55q17 31 25 37q14 11 46 11q76 0 76 -60
zM864 537q-22 275 -262 275q-114 0 -201 -82q-83 -78 -105 -193h568z" />
  </g>

</svg>
