<?xml version="1.0" standalone="no"?>
<!DOCTYPE svg PUBLIC "-//W3C//DTD SVG 1.1//EN" "http://www.w3.org/Graphics/SVG/1.1/DTD/svg11.dtd" >
<svg viewBox="0 -442 2048 2048">
  <g transform="matrix(1 0 0 -1 0 1606)">
   <path fill="currentColor"
d="M1092 832q0 -37 -24 -62.5t-61 -25.5q-66 0 -83 73q-68 -5 -125 -37q56 -92 56 -187q0 -145 -104 -245t-249 -100q-106 0 -192 55q-13 -31 -13 -61q0 -101 96 -107q43 -3 112 -3h49q238 0 351 -64q149 -85 149 -220q0 -162 -175 -236q-127 -54 -315 -54q-182 0 -317 57
q-181 77 -181 233q0 146 158 241q-50 67 -50 155q0 83 43 146q-68 86 -68 203q0 142 105 242.5t248 100.5q115 0 208 -64q101 74 226 74q61 0 104 -26q52 -31 52 -88zM708 593q0 86 -60.5 151t-145.5 65q-86 0 -145.5 -65.5t-59.5 -152.5q0 -86 60 -149.5t145 -63.5
q86 0 146 64t60 151zM929 -152q0 107 -140 142q-73 19 -226 19q-22 0 -66 1h-66q-95 0 -159 -34q-83 -42 -83 -128q0 -85 152 -131q110 -34 223 -34q111 0 218 34q147 46 147 131z" />
  </g>

</svg>
