<?xml version="1.0" standalone="no"?>
<!DOCTYPE svg PUBLIC "-//W3C//DTD SVG 1.1//EN" "http://www.w3.org/Graphics/SVG/1.1/DTD/svg11.dtd" >
<svg viewBox="0 -442 2048 2048">
  <g transform="matrix(1 0 0 -1 0 1606)">
   <path fill="currentColor"
d="M1137 65q0 -65 -85 -65h-185q-84 0 -84 65q0 66 86 66h26v525q0 150 -80 150q-90 0 -139 -106q-38 -82 -38 -185v-384h16q86 0 86 -66q0 -65 -84 -65h-155q-85 0 -85 65q0 66 87 66h16v525q0 150 -78 150q-90 0 -139 -106q-38 -82 -38 -185v-384h26q86 0 86 -66
q0 -65 -84 -65h-185q-85 0 -85 65q0 66 87 66h36v661h-38q-85 0 -85 64q0 67 87 67h69q81 0 86 -65q85 78 185 78q113 0 162 -111q80 111 212 111q191 0 191 -286v-519h36q87 0 87 -66z" />
  </g>

</svg>
