<?xml version="1.0" standalone="no"?>
<!DOCTYPE svg PUBLIC "-//W3C//DTD SVG 1.1//EN" "http://www.w3.org/Graphics/SVG/1.1/DTD/svg11.dtd" >
<svg viewBox="0 -442 2048 2048">
  <g transform="matrix(1 0 0 -1 0 1606)">
   <path fill="currentColor"
d="M994 268q0 -148 -137 -222q-109 -59 -270 -59q-167 0 -278 81q-20 -81 -79 -81q-65 0 -65 88v207q0 88 75 88q38 0 51 -14q7 -7 24 -48q44 -107 101 -147q59 -43 173 -43q273 0 273 150q0 99 -181 140q-167 35 -335 70q-181 61 -181 211q0 137 143 203q108 50 264 50
q132 0 228 -44q8 44 64 44q65 0 65 -88v-147q0 -87 -74 -87q-56 0 -69 50q-19 75 -35 92q-46 50 -184 50q-94 0 -166 -22q-105 -32 -105 -101q0 -76 181 -112q290 -58 336 -76q181 -72 181 -233z" />
  </g>

</svg>
