<?xml version="1.0" standalone="no"?>
<!DOCTYPE svg PUBLIC "-//W3C//DTD SVG 1.1//EN" "http://www.w3.org/Graphics/SVG/1.1/DTD/svg11.dtd" >
<svg viewBox="0 -442 2048 2048">
  <g transform="matrix(1 0 0 -1 0 1606)">
   <path fill="currentColor"
d="M683 309q0 -18 -27 -88q-95 -245 -254 -245q-76 0 -123.5 49.5t-47.5 125.5q0 39 26 111q58 149 116 297q83 220 83 284q0 72 -58 72q-89 0 -148 -96q-30 -50 -72 -175q-13 -39 -30 -39q-25 0 -25 21q0 20 27 89q96 244 254 244q75 0 124 -50t49 -124q0 -36 -22 -99
q-59 -153 -117 -306q-86 -227 -86 -289q0 -72 58 -72q86 0 145 95q31 49 72 171q15 44 33 44q23 0 23 -20z" />
  </g>

</svg>
