<?xml version="1.0" standalone="no"?>
<!DOCTYPE svg PUBLIC "-//W3C//DTD SVG 1.1//EN" "http://www.w3.org/Graphics/SVG/1.1/DTD/svg11.dtd" >
<svg viewBox="0 -442 2048 2048">
  <g transform="matrix(1 0 0 -1 0 1606)">
   <path fill="currentColor"
d="M1105 858q0 -46 -35 -59q-19 -8 -74 -7l-128 -719q-9 -48 -27.5 -65t-66.5 -17q-59 0 -90 37q-15 18 -55 180q-38 153 -43 199h-2q-9 -64 -63 -265q-24 -90 -34 -106q-27 -45 -96 -45q-51 0 -71 16t-29 66l-130 719q-56 0 -74 7q-34 13 -34 59q0 65 90 65h245
q90 0 90 -67q0 -64 -90 -64h-103l110 -638h2q63 295 100 355q29 46 87 46q43 0 62 -16q15 -14 31 -57q64 -171 88 -328h3l106 638h-104q-90 0 -90 66q0 65 90 65h246q89 0 89 -65z" />
  </g>

</svg>
