<?xml version="1.0" standalone="no"?>
<!DOCTYPE svg PUBLIC "-//W3C//DTD SVG 1.1//EN" "http://www.w3.org/Graphics/SVG/1.1/DTD/svg11.dtd" >
<svg viewBox="0 -442 2048 2048">
  <g transform="matrix(1 0 0 -1 0 1606)">
   <path fill="currentColor"
d="M1087 856q0 -52 -56 -62q-12 -3 -95 -2l-316 -930q-42 -122 -116 -204q-91 -100 -203 -100q-73 0 -125 51t-52 123q0 93 94 93q40 0 66 -26t26 -65q0 -27 -11 -48q109 6 171 124q12 22 39 97.5t27 92.5q0 11 -312 792q-8 0 -28 -1h-29q-95 0 -95 65q0 67 81 67h264
q78 0 78 -65q0 -52 -49 -64q-13 -3 -91 -2l198 -513q17 -42 46 -127h2q15 67 55 184l155 456q-8 0 -27 -1h-28q-92 0 -92 67q0 65 79 65h263q81 0 81 -67z" />
  </g>

</svg>
