<?xml version="1.0" standalone="no"?>
<!DOCTYPE svg PUBLIC "-//W3C//DTD SVG 1.1//EN" "http://www.w3.org/Graphics/SVG/1.1/DTD/svg11.dtd" >
<svg viewBox="0 -442 2048 2048">
  <g transform="matrix(1 0 0 -1 0 1606)">
   <path fill="currentColor"
d="M1271 671q0 -167 -160 -267q-127 -79 -314 -97v-207h232v-100q-54 0 -181 3q-120 3 -181 3q-62 0 -183 -3q-127 -3 -182 -3v100h232v207q-186 18 -313 97q-160 100 -160 267q0 166 159 267q130 81 314 97v207h-232v101q54 0 183 -3q120 -3 182 -3t181 3q128 3 181 3v-101
h-232v-207q185 -16 314 -97q160 -101 160 -267zM976 671q0 121 -29 179q-40 80 -150 101v-559q110 22 150 100q29 58 29 179zM534 392v559q-109 -21 -149 -101q-29 -58 -29 -179t29 -179q39 -78 149 -100z" />
  </g>

</svg>
