<?xml version="1.0" standalone="no"?>
<!DOCTYPE svg PUBLIC "-//W3C//DTD SVG 1.1//EN" "http://www.w3.org/Graphics/SVG/1.1/DTD/svg11.dtd" >
<svg viewBox="0 -442 2048 2048">
  <g transform="matrix(1 0 0 -1 0 1606)">
   <path fill="currentColor"
d="M1362 1020q0 -17 -15.5 -23.5t-30.5 -12.5q-38 -22 -38 -181q0 -212 -117 -340.5t-328 -153.5v-209h231v-100q-59 0 -180.5 3t-182.5 3t-181 -3q-123 -3 -181 -3v100h229v209q-208 27 -317 159q-107 128 -107 340q0 147 -39 176q-46 3 -46 51q0 32 32 32h201
q116 0 116 -257q0 -320 160 -401v833h-229v101q58 0 181 -3q120 -3 181 -3t181 3q124 3 182 3v-101h-231v-837q180 77 180 405q0 257 115 257h202q32 0 32 -47z" />
  </g>

</svg>
