<?xml version="1.0" standalone="no"?>
<!DOCTYPE svg PUBLIC "-//W3C//DTD SVG 1.1//EN" "http://www.w3.org/Graphics/SVG/1.1/DTD/svg11.dtd" >
<svg viewBox="0 -442 2048 2048">
  <g transform="matrix(1 0 0 -1 0 1606)">
   <path fill="currentColor"
d="M951 452q0 -210 -132 -343t-342 -133q-192 0 -308.5 115.5t-116.5 306.5q0 167 108 295q103 122 268 169l-184 142q-89 87 -89 207q0 72 74 139q61 54 139 82t157 28q123 0 208 -38q114 -50 114 -158q0 -57 -38.5 -95.5t-94.5 -38.5q-57 0 -96 38.5t-39 95.5q0 61 39 96
q-43 9 -91 9q-74 0 -154 -38q-96 -46 -96 -111q0 -92 175 -194q267 -155 324 -205q175 -152 175 -369zM710 395q0 84 -33.5 178t-87.5 155q-50 56 -87 56q-209 0 -209 -367q0 -128 48 -225q61 -122 177 -122q107 0 156 116q36 85 36 209z" />
  </g>

</svg>
