<?xml version="1.0" standalone="no"?>
<!DOCTYPE svg PUBLIC "-//W3C//DTD SVG 1.1//EN" "http://www.w3.org/Graphics/SVG/1.1/DTD/svg11.dtd" >
<svg viewBox="0 -442 2048 2048">
  <g transform="matrix(1 0 0 -1 0 1606)">
   <path fill="currentColor"
d="M905 -61q0 -158 -99 -254.5t-257 -96.5q-65 0 -113 23q-63 29 -63 87q0 43 36 70q33 24 77 24q28 0 82.5 -13.5t82.5 -13.5q50 0 83.5 35.5t33.5 85.5q0 46 -30.5 74.5t-77.5 28.5q-31 0 -92.5 -6.5t-92.5 -6.5q-199 0 -311 105t-112 303q0 238 207 394q-71 54 -71 142
q0 104 87 204q-69 9 -115 48q-52 45 -52 111q0 138 192 178l11 -39q-86 -42 -86 -126q0 -43 29.5 -76.5t71.5 -34.5q230 244 366 244q73 0 73 -58q0 -101 -159 -178q-130 -62 -250 -69q-80 -91 -80 -171q0 -66 59 -108q139 68 321 68q41 0 80 -18q49 -22 49 -58
q0 -58 -96 -95q-76 -30 -146 -30q-94 0 -196 15q-105 -73 -147 -129q-60 -78 -60 -183q0 -97 105 -159q89 -53 194 -53q34 0 101.5 6t101.5 6q110 0 186.5 -82.5t76.5 -193.5z" />
  </g>

</svg>
