<?xml version="1.0" standalone="no"?>
<!DOCTYPE svg PUBLIC "-//W3C//DTD SVG 1.1//EN" "http://www.w3.org/Graphics/SVG/1.1/DTD/svg11.dtd" >
<svg viewBox="0 -442 2048 2048">
  <g transform="matrix(1 0 0 -1 0 1606)">
   <path fill="currentColor"
d="M1298 399l-71 -399h-349q-32 0 -32 39q0 145 61 428.5t61 428.5q0 391 -288 391q-290 0 -290 -391q0 -145 61 -428.5t61 -428.5q0 -39 -32 -39h-347l-74 399h101q23 -151 45 -170t193 -19q-34 84 -123 222q-98 153 -130 219q-61 127 -61 244q0 233 189 360
q163 109 407 109q245 0 408 -109q188 -127 188 -360q0 -116 -61 -243q-33 -69 -131 -220q-90 -140 -124 -222h77q94 0 120 20q20 15 42 169h99z" />
  </g>

</svg>
