<?xml version="1.0" standalone="no"?>
<!DOCTYPE svg PUBLIC "-//W3C//DTD SVG 1.1//EN" "http://www.w3.org/Graphics/SVG/1.1/DTD/svg11.dtd" >
<svg viewBox="0 -442 2048 2048">
  <g transform="matrix(1 0 0 -1 0 1606)">
   <path fill="currentColor"
d="M1111 337q0 -350 -167 -350q-99 0 -182 123q-61 90 -96 214l-96 335l-287 -659h-231l425 984q-37 138 -54 179q-50 114 -124 114q-112 0 -128 -152h-77v17q0 349 166 349q99 0 183 -123q61 -91 96 -214l189 -659q44 -154 55 -179q49 -114 123 -114q111 0 127 151h78v-16z
" />
  </g>

</svg>
