<?xml version="1.0" standalone="no"?>
<!DOCTYPE svg PUBLIC "-//W3C//DTD SVG 1.1//EN" "http://www.w3.org/Graphics/SVG/1.1/DTD/svg11.dtd" >
<svg viewBox="0 -442 2048 2048">
  <g transform="matrix(1 0 0 -1 0 1606)">
   <path fill="currentColor"
d="M1234 240q0 -97 -56 -171q-61 -81 -155 -81q-207 0 -270 129q-13 -17 -41 -47q-104 -94 -233 -94q-202 0 -322 145q-112 136 -112 342q0 209 119 343q125 140 332 140q156 0 262 -152l106 142h94v-690q0 -168 86 -168q67 0 83 117q5 38 3 167h104v-122zM725 234v416
q0 12 -17 49q-72 154 -188 154q-112 0 -164 -152q-37 -106 -37 -246q0 -132 32 -239q47 -158 145 -158q146 0 229 176z" />
  </g>

</svg>
