<?xml version="1.0" standalone="no"?>
<!DOCTYPE svg PUBLIC "-//W3C//DTD SVG 1.1//EN" "http://www.w3.org/Graphics/SVG/1.1/DTD/svg11.dtd" >
<svg viewBox="0 -442 2048 2048">
  <g transform="matrix(1 0 0 -1 0 1606)">
   <path fill="currentColor"
d="M851 238q0 -6 -2 -12q-41 -119 -146 -186q-100 -64 -230 -64q-150 0 -270 57q-151 73 -151 207q0 194 334 249q-112 15 -192 71q-97 67 -97 168q0 127 142 187q104 44 251 44q314 0 314 -163q0 -97 -111 -97q-40 0 -71 18q-37 21 -37 58q0 10 6.5 29t6.5 29q0 40 -80 40
q-187 0 -187 -167q0 -175 155 -175q15 0 45 8t45 8q73 0 73 -50q0 -46 -73 -46q-15 0 -43.5 7.5t-43.5 7.5q-81 0 -125 -68q-38 -58 -38 -143q0 -185 170 -185q148 0 218 117q15 31 30 63q18 27 62 27q45 0 45 -39z" />
  </g>

</svg>
