<?xml version="1.0" standalone="no"?>
<!DOCTYPE svg PUBLIC "-//W3C//DTD SVG 1.1//EN" "http://www.w3.org/Graphics/SVG/1.1/DTD/svg11.dtd" >
<svg viewBox="0 -442 2048 2048">
  <g transform="matrix(1 0 0 -1 0 1606)">
   <path fill="currentColor"
d="M1001 455q0 -199 -123 -336q-127 -143 -323 -143q-149 0 -215 93q0 -335 -48 -498h-240q47 208 47 341v1058q0 490 408 490q183 0 302 -86q133 -97 133 -273q0 -169 -152 -287q115 -64 163 -146t48 -213zM760 355q0 96 -30 198q-34 116 -90 176q-50 -18 -99 -18
q-43 0 -95 28q-59 32 -59 71q0 38 49 66q42 23 84 23q55 0 115 -19q58 86 58 225q0 112 -41 182q-51 87 -155 87q-158 0 -158 -303v-776q0 -87 67.5 -156t154.5 -69q98 0 153 98q46 81 46 187z" />
  </g>

</svg>
