<?xml version="1.0" standalone="no"?>
<!DOCTYPE svg PUBLIC "-//W3C//DTD SVG 1.1//EN" "http://www.w3.org/Graphics/SVG/1.1/DTD/svg11.dtd" >
<svg viewBox="0 -442 2048 2048">
  <g transform="matrix(1 0 0 -1 0 1606)">
   <path fill="currentColor"
d="M884 -61q0 -156 -99.5 -253.5t-256.5 -97.5q-66 0 -114 23q-62 29 -62 87q0 42 35 68t78 26q28 0 83 -13.5t83 -13.5q50 0 83 35.5t33 85.5q0 46 -31 74.5t-77 28.5q-27 0 -82 -6.5t-82 -6.5q-198 0 -309 104q-114 107 -114 304q0 220 143 393q151 182 367 182
q123 0 208 -38q114 -50 114 -158q0 -57 -38.5 -95.5t-94.5 -38.5q-57 0 -96 38.5t-39 95.5q0 61 39 96q-43 9 -91 9q-159 0 -270 -124q-106 -119 -106 -280q0 -118 66.5 -189.5t184.5 -71.5q30 0 91 6t91 6q109 0 186 -83t77 -193z" />
  </g>

</svg>
