<?xml version="1.0" standalone="no"?>
<!DOCTYPE svg PUBLIC "-//W3C//DTD SVG 1.1//EN" "http://www.w3.org/Graphics/SVG/1.1/DTD/svg11.dtd" >
<svg viewBox="0 -442 2048 2048">
  <g transform="matrix(1 0 0 -1 0 1606)">
   <path fill="currentColor"
d="M906 238q0 -6 -2 -12q-41 -119 -146 -186q-100 -64 -230 -64q-216 0 -346 131.5t-130 347.5q0 222 126 360q130 144 350 144q121 0 206 -29q125 -41 125 -134q0 -97 -111 -97q-40 0 -71 18q-37 21 -37 58q0 10 6.5 29t6.5 29q0 40 -137 40q-226 0 -223 -330v-14h287
q55 0 55 -49t-55 -49h-280q41 -361 262 -361q137 0 207 117q15 31 30 63q18 27 62 27q45 0 45 -39z" />
  </g>

</svg>
