<?xml version="1.0" standalone="no"?>
<!DOCTYPE svg PUBLIC "-//W3C//DTD SVG 1.1//EN" "http://www.w3.org/Graphics/SVG/1.1/DTD/svg11.dtd" >
<svg viewBox="0 -442 2048 2048">
  <g transform="matrix(1 0 0 -1 0 1606)">
   <path fill="currentColor"
d="M1390 712q0 -38 -28 -38q-30 0 -79 13q-6 -268 -115 -465q-136 -246 -378 -246q-449 0 -449 388v119q0 176 -90 176q-96 0 -90 -170h-109v27q0 84 57 156q64 81 164 81q292 0 292 -310v-59q0 -144 37 -216q52 -98 183 -98q219 0 219 602v71q-502 130 -502 460
q0 124 80.5 204.5t204.5 80.5q249 0 382 -246q104 -192 115 -471q106 0 106 -59zM1004 828q-1 195 -33 334q-53 232 -179 232q-80 0 -131 -63q-48 -59 -48 -141q0 -247 391 -362z" />
  </g>

</svg>
