<?xml version="1.0" standalone="no"?>
<!DOCTYPE svg PUBLIC "-//W3C//DTD SVG 1.1//EN" "http://www.w3.org/Graphics/SVG/1.1/DTD/svg11.dtd" >
<svg viewBox="0 -442 2048 2048">
  <g transform="matrix(1 0 0 -1 0 1606)">
   <path fill="currentColor"
d="M1319 458q0 -223 -187 -354q-161 -113 -397 -127l-1 -400h-105l1 400q-237 14 -398 127q-187 131 -187 354q0 229 184 366q161 120 401 133l-1 224h105l1 -224q239 -13 400 -133q184 -137 184 -366zM1044 487q0 162 -78 264q-82 106 -231 122v-802q149 19 232 141
q77 112 77 275zM630 71v802q-150 -16 -232 -122q-78 -102 -78 -264q0 -163 77 -275q83 -122 233 -141z" />
  </g>

</svg>
