<?xml version="1.0" standalone="no"?>
<!DOCTYPE svg PUBLIC "-//W3C//DTD SVG 1.1//EN" "http://www.w3.org/Graphics/SVG/1.1/DTD/svg11.dtd" >
<svg viewBox="0 -442 2048 2048">
  <g transform="matrix(1 0 0 -1 0 1606)">
   <path fill="currentColor"
d="M1231 824q0 -88 -15 -189q-99 -670 -631 -670q-195 0 -316 80q-189 125 -189 350q0 238 166 390q161 147 402 147q218 0 304 -211q19 140 19 229q0 426 -354 426q-173 0 -261 -130q44 -8 73 -42t29 -78q0 -50 -36 -86t-86 -36q-48 0 -85 35t-37 83q0 45 28 108
q101 226 373 226q282 0 449 -174.5t167 -457.5zM926 552q0 127 -62 211q-70 95 -192 95q-180 0 -258 -141q-31 -57 -52 -205q-18 -125 -18 -217q0 -242 240 -242q182 0 272 164q70 128 70 335z" />
  </g>

</svg>
