<?xml version="1.0" standalone="no"?>
<!DOCTYPE svg PUBLIC "-//W3C//DTD SVG 1.1//EN" "http://www.w3.org/Graphics/SVG/1.1/DTD/svg11.dtd" >
<svg viewBox="0 -442 2048 2048">
  <g transform="matrix(1 0 0 -1 0 1606)">
   <path fill="currentColor"
d="M1351 433q0 -182 -93 -311q-103 -146 -278 -146q-197 0 -278 133q-81 -133 -278 -133q-175 0 -279 145q-93 130 -93 312q0 260 155 396q145 127 410 130l-19 -86q-170 -4 -229 -160q-36 -95 -36 -300q0 -343 122 -343q63 0 125 65q50 52 79 122q-64 132 -64 272
q0 239 107 239q106 0 106 -239q0 -142 -63 -272q29 -70 79 -122q61 -65 124 -65q133 0 133 315q0 215 -38 317q-61 166 -238 171l-19 86q265 -3 410 -130q155 -136 155 -396z" />
  </g>

</svg>
