<?xml version="1.0" standalone="no"?>
<!DOCTYPE svg PUBLIC "-//W3C//DTD SVG 1.1//EN" "http://www.w3.org/Graphics/SVG/1.1/DTD/svg11.dtd" >
<svg viewBox="0 -442 2048 2048">
  <g transform="matrix(1 0 0 -1 0 1606)">
   <path fill="currentColor"
d="M1675 765h-242q112 -127 112 -342q0 -173 -88 -296q-99 -139 -265 -139q-188 0 -265 126q-77 -126 -264 -126q-166 0 -265 139q-88 123 -88 296q0 213 110 340h-149q-51 0 -107.5 -41t-64.5 -41q-46 0 -46 46q0 52 69 121q75 75 189 75h1364v-158zM1287 389
q0 276 -84 374h-552q-84 -98 -84 -374q0 -311 125 -311q60 0 118 61q47 49 75 116q-61 124 -61 233q0 203 103 203t103 -203q0 -109 -61 -233q28 -67 75 -116q58 -61 118 -61q125 0 125 311z" />
  </g>

</svg>
