<?xml version="1.0" standalone="no"?>
<!DOCTYPE svg PUBLIC "-//W3C//DTD SVG 1.1//EN" "http://www.w3.org/Graphics/SVG/1.1/DTD/svg11.dtd" >
<svg viewBox="0 -442 2048 2048">
  <g transform="matrix(1 0 0 -1 0 1606)">
   <path fill="currentColor"
d="M1663 1321q0 -32 -48 -38q-74 -9 -99 -22q-61 -32 -84 -125l-275 -1096q-10 -40 -31 -40q-16 0 -30 35l-469 1166q-11 27 -20 41l-264 -1050q-9 -36 -9 -51q0 -49 41 -68q19 -9 75 -16q41 -5 41 -20q0 -37 -36 -37q-31 0 -91.5 2t-91.5 2q-30 0 -89.5 -2t-89.5 -2
q-26 0 -26 19q0 34 48 41q78 10 100 21q60 30 83 120l260 1041q7 28 7 26q0 14 -88.5 16t-88.5 22q0 37 48 37h258q36 0 50 -34l421 -1046l222 886q8 36 8 52q0 47 -40 66q-18 9 -75 18q-40 6 -40 21q0 37 35 37q15 0 45 -2t45 -2h95q30 0 89.5 2t89.5 2q24 0 24 -22z" />
  </g>

</svg>
