<?xml version="1.0" standalone="no"?>
<!DOCTYPE svg PUBLIC "-//W3C//DTD SVG 1.1//EN" "http://www.w3.org/Graphics/SVG/1.1/DTD/svg11.dtd" >
<svg viewBox="0 -442 2048 2048">
  <g transform="matrix(1 0 0 -1 0 1606)">
   <path fill="currentColor"
d="M1489 1326q0 -12 -43 -231q-8 -42 -26 -42q-19 0 -19 26q0 20 7.5 58.5t7.5 58.5q0 27 -102 27h-765q-95 0 -109 -13t-39 -89q-23 -68 -39 -68q-19 0 -19 20q0 12 6 31l63 202q12 37 53 37h987q37 0 37 -17zM1202 826q0 -7 -6 -30l-56 -215q-11 -41 -26 -41q-20 0 -20 21
q0 10 16 71h-660q-23 -92 -42 -92q-23 0 -18 21l58 244q10 41 28 41q22 0 22 -20q0 -8 -18 -73h660q21 93 40 93q22 0 22 -20zM1255 291q0 -23 -81 -261q-8 -23 -19 -28q-4 -2 -31 -2h-999q-43 0 -43 19q0 4 15 82q11 56 34 167q10 43 24 43q22 0 22 -20q0 -1 -6 -29
q-14 -66 -14 -134q55 -7 123 -7h755q103 0 117 16q9 10 40 96q27 78 42 78q21 0 21 -20z" />
  </g>

</svg>
