<?xml version="1.0" standalone="no"?>
<!DOCTYPE svg PUBLIC "-//W3C//DTD SVG 1.1//EN" "http://www.w3.org/Graphics/SVG/1.1/DTD/svg11.dtd" >
<svg viewBox="0 -442 2048 2048">
  <g transform="matrix(1 0 0 -1 0 1606)">
   <path fill="currentColor"
d="M1009 455q0 -215 -129.5 -347t-344.5 -132q-264 0 -357 196v-25q0 -133 12 -179q25 -96 114 -125q52 -17 390 -17q135 0 193 -31q82 -43 82 -167q0 -56 -47 -56q-21 0 -41.5 27.5t-92.5 27.5q-40 0 -119 -6.5t-119 -6.5q-194 0 -272 29q-125 47 -173 200q-45 143 -45 612
q0 222 125 360q131 144 350 144t349 -144q125 -139 125 -360zM769 408q0 176 -49 296q-68 169 -217 169q-203 0 -203 -330q0 -173 51 -300q71 -173 218 -173q200 0 200 338z" />
  </g>

</svg>
