<?xml version="1.0" standalone="no"?>
<!DOCTYPE svg PUBLIC "-//W3C//DTD SVG 1.1//EN" "http://www.w3.org/Graphics/SVG/1.1/DTD/svg11.dtd" >
<svg viewBox="0 -442 2048 2048">
  <g transform="matrix(1 0 0 -1 0 1606)">
   <path fill="currentColor"
d="M1663 1321q0 -34 -83 -38q-95 -4 -114 -33q-10 -14 -19 -51l-269 -1074q-4 -16 -4 -33q0 -33 83.5 -34.5t83.5 -20.5q0 -37 -38 -37q-17 0 -51 2t-51 2h-260q-16 0 -49.5 -2t-49.5 -2q-28 0 -28 19q0 31 35 37q5 1 60 1q91 0 117 62q1 2 12 51l30 123l95 378h-596
l-136 -546q-4 -16 -4 -33q0 -33 83.5 -34.5t83.5 -20.5q0 -37 -37 -37q-18 0 -52.5 2t-51.5 2h-258q-17 0 -50 -2t-50 -2q-28 0 -28 19q0 41 68 41h18.5h19.5q70 0 92 32q8 12 19 54l265 1057q8 31 8 45q0 29 -48 35q-4 1 -70 1q-51 0 -51 22q0 37 37 37q17 0 50.5 -2
t50.5 -2h262q17 0 50 2t49 2q30 0 30 -22q0 -34 -84 -38q-95 -4 -115 -33q-8 -11 -18 -51l-118 -471h594l120 475q7 31 7 45q0 29 -47 35q-4 1 -70 1q-52 0 -52 22q0 37 39 37q17 0 50 -2t50 -2h263q16 0 48.5 2t49.5 2q29 0 29 -22z" />
  </g>

</svg>
