<?xml version="1.0" standalone="no"?>
<!DOCTYPE svg PUBLIC "-//W3C//DTD SVG 1.1//EN" "http://www.w3.org/Graphics/SVG/1.1/DTD/svg11.dtd" >
<svg viewBox="0 -442 2048 2048">
  <g transform="matrix(1 0 0 -1 0 1606)">
   <path fill="currentColor"
d="M1546 861q0 -333 -254 -614q-262 -289 -591 -289q-222 0 -358 150q-130 145 -130 370q0 330 256 614q264 293 589 293q224 0 359 -152q129 -145 129 -372zM1388 933q0 171 -82 283q-92 125 -258 125q-241 0 -441 -243q-104 -128 -166 -316q-60 -182 -60 -354
q0 -174 78 -290q90 -134 256 -134q286 0 492 331q181 293 181 598zM1278 785q0 -10 -50 -204q-10 -41 -27 -41q-19 0 -19 21q0 9 10 46h-655q-14 -67 -34 -67q-19 0 -19 21q0 7 49 203q10 41 27 41q21 0 21 -20q0 -10 -10 -47h653q14 67 35 67q19 0 19 -20z" />
  </g>

</svg>
