<?xml version="1.0" standalone="no"?>
<!DOCTYPE svg PUBLIC "-//W3C//DTD SVG 1.1//EN" "http://www.w3.org/Graphics/SVG/1.1/DTD/svg11.dtd" >
<svg viewBox="0 -442 2048 2048">
  <g transform="matrix(1 0 0 -1 0 1606)">
   <path fill="currentColor"
d="M1378 1321q0 3 -4 -30l-41 -343q-5 -44 -26 -44t-21 22q0 10 5 42q8 51 8 115q0 123 -70 168q-54 35 -185 35h-253q-47 0 -61.5 -14.5t-26.5 -60.5l-268 -1074q-8 -31 -8 -39q0 -39 107.5 -41t107.5 -22q0 -35 -49 -35q-17 0 -52 2t-52 2h-300q-15 0 -46 -2t-46 -2
q-30 0 -30 22q0 25 16 32t56 7h57q53 4 70 32q8 13 18 53l266 1065q8 31 8 39q0 29 -49 34q2 0 -69 0q-51 0 -51 23q0 36 49 36h895q45 0 45 -22z" />
  </g>

</svg>
