<?xml version="1.0" standalone="no"?>
<!DOCTYPE svg PUBLIC "-//W3C//DTD SVG 1.1//EN" "http://www.w3.org/Graphics/SVG/1.1/DTD/svg11.dtd" >
<svg viewBox="0 -442 2048 2048">
  <g transform="matrix(1 0 0 -1 0 1606)">
   <path fill="currentColor"
d="M1210 1258q0 -112 -69 -219q-65 -99 -167 -159q143 -103 143 -303q0 -218 -139 -404q-151 -201 -362 -201q-221 0 -295 264l-138 -551q-28 -112 -87 -112q-58 0 -58 56q0 13 6 37l322 1282q58 232 188 391q158 195 368 195q124 0 206 -76t82 -200zM845 880q-38 15 -94 15
q-60 0 -99 -22q35 -10 75 -10h37q41 0 81 17zM1084 1312q0 72 -42 123q-45 56 -115 56q-216 0 -368 -382q-52 -129 -162 -570q-37 -148 -37 -209q0 -123 52 -210q63 -103 178 -103q192 0 297 234q82 182 82 402q0 126 -68 192q-73 -26 -174 -26q-125 0 -125 52q0 67 160 67
q82 0 145 -25q80 58 131 179q46 112 46 220z" />
  </g>

</svg>
