<?xml version="1.0" standalone="no"?>
<!DOCTYPE svg PUBLIC "-//W3C//DTD SVG 1.1//EN" "http://www.w3.org/Graphics/SVG/1.1/DTD/svg11.dtd" >
<svg viewBox="0 -442 2048 2048">
  <g transform="matrix(1 0 0 -1 0 1606)">
   <path fill="currentColor"
d="M1309 900q0 -39 -170 -385q-182 -371 -205 -453q-21 -143 -41 -286q-39 -218 -114 -218q-46 0 -46 61q0 88 33 210l60 206q32 122 32 227q0 554 -347 554q-110 0 -203 -69q-75 -56 -132 -174q-16 -34 -31 -34q-22 0 -22 21q0 34 39 111q146 288 376 288q200 0 295 -263
q64 -175 73 -433q120 318 249 573q52 102 112 102q42 0 42 -38z" />
  </g>

</svg>
