<?xml version="1.0" standalone="no"?>
<!DOCTYPE svg PUBLIC "-//W3C//DTD SVG 1.1//EN" "http://www.w3.org/Graphics/SVG/1.1/DTD/svg11.dtd" >
<svg viewBox="0 -442 2048 2048">
  <g transform="matrix(1 0 0 -1 0 1606)">
   <path fill="currentColor"
d="M1627 1149q0 -113 -45 -113q-21 0 -21 16q0 7 2 22t2 22q0 64 -47 104q-44 36 -110 36q-305 0 -463 -588q-84 -314 -130 -522q-4 -18 -4 -26q0 -16 7 -24q14 -16 115 -18q93 -2 93 -23q0 -35 -50 -35q-22 0 -66 2t-65 2h-283q-21 0 -63 -2t-63 -2q-33 0 -33 19
q0 38 46 38q142 0 171 14q33 16 51 88l85 333q80 316 80 448q0 296 -211 296q-154 0 -237 -168q-16 -32 -35 -32q-24 0 -24 16q0 22 30 83q112 230 300 230q274 0 274 -379q0 -21 -7 -110q79 199 191 324q147 165 322 165q91 0 141 -64q47 -59 47 -152z" />
  </g>

</svg>
