<?xml version="1.0" standalone="no"?>
<!DOCTYPE svg PUBLIC "-//W3C//DTD SVG 1.1//EN" "http://www.w3.org/Graphics/SVG/1.1/DTD/svg11.dtd" >
<svg viewBox="0 -442 2048 2048">
  <g transform="matrix(1 0 0 -1 0 1606)">
   <path fill="currentColor"
d="M1546 861q0 -333 -254 -614q-262 -289 -591 -289q-222 0 -358 150q-130 145 -130 370q0 330 256 614q264 293 589 293q224 0 359 -152q129 -145 129 -372zM1388 933q0 171 -82 283q-92 125 -258 125q-241 0 -441 -243q-120 -147 -183 -370h941q23 110 23 205zM1351 671
h-941q-29 -126 -29 -243q0 -174 78 -290q90 -134 256 -134q224 0 406 213q158 185 230 454z" />
  </g>

</svg>
