<?xml version="1.0" standalone="no"?>
<!DOCTYPE svg PUBLIC "-//W3C//DTD SVG 1.1//EN" "http://www.w3.org/Graphics/SVG/1.1/DTD/svg11.dtd" >
<svg viewBox="0 -442 2048 2048">
  <g transform="matrix(1 0 0 -1 0 1606)">
   <path fill="currentColor"
d="M1239 939q0 -26 -9 -75q-26 -142 -89 -301q-71 -177 -150 -272q-1 -43 -1 -78q0 -194 68 -194q56 0 98 63t50 63q23 0 23 -18q0 -15 -14 -40q-61 -111 -162 -111q-146 0 -194 194q-185 -194 -388 -194q-154 0 -240 106q-79 97 -79 255q0 229 153 419q164 203 387 203
q157 0 235 -133q64 -109 64 -277v-186q134 191 199 550q8 46 26 46q23 0 23 -20zM853 222q-4 47 -4 89q0 34 1.5 103t1.5 103q0 398 -171 398q-179 0 -292 -248q-91 -201 -91 -407q0 -241 178 -241q183 0 377 203z" />
  </g>

</svg>
