<?xml version="1.0" standalone="no"?>
<!DOCTYPE svg PUBLIC "-//W3C//DTD SVG 1.1//EN" "http://www.w3.org/Graphics/SVG/1.1/DTD/svg11.dtd" >
<svg viewBox="0 -442 2048 2048">
  <g transform="matrix(1 0 0 -1 0 1606)">
   <path fill="currentColor"
d="M1146 1398q0 -45 -33 -80t-78 -35q-74 0 -74 69q0 37 26.5 67.5t63.5 36.5q-72 45 -175 45q-65 0 -118 -34q-60 -39 -60 -100q0 -79 93 -207q154 -209 173 -243q93 -160 93 -320q0 -228 -170 -421q-176 -200 -401 -200q-151 0 -245 106q-89 102 -89 255q0 223 171 418
q180 205 395 205q21 0 50 -4q-124 241 -124 367q0 222 250 222q83 0 157 -33q95 -42 95 -114zM885 564q0 160 -84 333q-36 18 -80 18q-182 0 -308 -224q-43 -76 -79 -210t-36 -221q0 -98 45 -164q52 -77 145 -77q169 0 290 194q107 171 107 351z" />
  </g>

</svg>
