<?xml version="1.0" standalone="no"?>
<!DOCTYPE svg PUBLIC "-//W3C//DTD SVG 1.1//EN" "http://www.w3.org/Graphics/SVG/1.1/DTD/svg11.dtd" >
<svg viewBox="0 -442 2048 2048">
  <g transform="matrix(1 0 0 -1 0 1606)">
   <path fill="currentColor"
d="M1419 743q0 -141 -124 -264q-104 -103 -254 -162q-110 -43 -249 -55q-39 -154 -39 -162q0 -40 107 -42t107 -23q0 -35 -49 -35q-20 0 -59.5 2t-59.5 2h-285q-21 0 -63.5 -2t-63.5 -2q-32 0 -32 19q0 26 21 36q4 3 103 4q62 1 86 10q38 16 59 83q12 53 25 107
q-165 15 -283 94q-141 96 -141 247q0 144 127 267q104 103 258 162q114 43 242 53q38 143 38 159q0 17 -5 24q-12 18 -107 18h-31q-41 0 -54 4q-16 4 -16 19q0 37 40 37q21 0 63 -2t64 -2h286q22 0 64.5 2t63.5 2q29 0 29 -20q0 -30 -20 -37q-9 -3 -46 -3h-23
q-128 0 -155 -39q-11 -17 -47 -162q163 -12 282 -93q141 -95 141 -246zM1256 785q0 228 -269 256l-185 -740q314 34 418 304q36 92 36 180zM843 1041q-325 -35 -425 -319q-29 -84 -29 -164q0 -229 270 -257z" />
  </g>

</svg>
