<?xml version="1.0" standalone="no"?>
<!DOCTYPE svg PUBLIC "-//W3C//DTD SVG 1.1//EN" "http://www.w3.org/Graphics/SVG/1.1/DTD/svg11.dtd" >
<svg viewBox="0 -442 2048 2048">
  <g transform="matrix(1 0 0 -1 0 1606)">
   <path fill="currentColor"
d="M1616 1071q0 -11 -29 -19q-80 -20 -125 -102q-22 -38 -60 -160q-150 -483 -559 -528q-37 -148 -37 -162q0 -16 6 -24q12 -15 113 -18q95 -2 95 -23q0 -35 -48 -35q-20 0 -60 2t-61 2h-284q-21 0 -63.5 -2t-63.5 -2q-33 0 -33 19q0 37 41 40q52 1 103 1q70 2 94 26
q14 15 55 176q-318 44 -318 357q0 54 23 159.5t23 160.5q0 94 -71 113q-25 7 -25 19q0 19 44 22h2q108 0 144 -23q48 -31 48 -131q0 -60 -26 -177t-26 -177q0 -235 194 -282l224 891q7 31 7 47q0 15 -5 24q-11 17 -112 19q-95 3 -95 22q0 37 38 37q21 0 63.5 -2t63.5 -2h288
q21 0 63 2t63 2q30 0 30 -20q0 -27 -20 -36q-4 -2 -110 -5q-87 -2 -110 -31q-13 -16 -24 -59l-223 -887q290 70 412 507q48 174 118 233q54 46 131 47q22 -1 64 1h-4q42 0 42 -22z" />
  </g>

</svg>
