<?xml version="1.0" standalone="no"?>
<!DOCTYPE svg PUBLIC "-//W3C//DTD SVG 1.1//EN" "http://www.w3.org/Graphics/SVG/1.1/DTD/svg11.dtd" >
<svg viewBox="0 -442 2048 2048">
  <g transform="matrix(1 0 0 -1 0 1606)">
   <path fill="currentColor"
d="M1662 1323q0 -27 -15 -34q-10 -5 -82 -6q-80 -1 -100 -34q-10 -15 -19 -53l-268 -1071q-4 -16 -4 -33q0 -33 83.5 -34.5t83.5 -20.5q0 -37 -38 -37q-16 0 -48 2t-48 2h-273q-16 0 -46.5 -2t-45.5 -2q-28 0 -28 19q0 38 46 38q131 0 154 36q7 11 17 53l286 1140h-596
l-290 -1161q-4 -16 -4 -33q0 -33 83.5 -34.5t83.5 -20.5q0 -37 -37 -37q-16 0 -48.5 2t-48.5 2h-273q-15 0 -46 -2t-46 -2q-28 0 -28 19q0 39 46 40l84 2q53 5 69 32q8 12 18 53l268 1069q6 24 6 35q0 34 -87 34h-15q-67 0 -67 21q0 38 46 38h1187q40 0 40 -20z" />
  </g>

</svg>
