<?xml version="1.0" standalone="no"?>
<!DOCTYPE svg PUBLIC "-//W3C//DTD SVG 1.1//EN" "http://www.w3.org/Graphics/SVG/1.1/DTD/svg11.dtd" >
<svg viewBox="0 -442 2048 2048">
  <g transform="matrix(1 0 0 -1 0 1606)">
   <path fill="currentColor"
d="M1159 905q0 -28 -18 -83q-93 -284 -309 -494q-210 -204 -499 -303q-82 -28 -157 -28q-23 0 -23 17q0 2 1 5l192 770q6 24 6 43q0 37 -79 38t-79 24q0 33 47 43q49 4 147 13t106 9q25 0 25 -17q0 -8 -50 -209l-167 -671q284 94 459 320q132 169 258 503q28 74 83 74
q57 0 57 -54z" />
  </g>

</svg>
