<?xml version="1.0" standalone="no"?>
<!DOCTYPE svg PUBLIC "-//W3C//DTD SVG 1.1//EN" "http://www.w3.org/Graphics/SVG/1.1/DTD/svg11.dtd" >
<svg viewBox="0 -442 2048 2048">
  <g transform="matrix(1 0 0 -1 0 1606)">
   <path fill="currentColor"
d="M974 894q0 -37 -37 -37q-5 0 -33 13q-89 41 -167 41q-165 0 -311 -105q-161 -115 -161 -274q0 -85 49 -141q34 -38 122 -89q82 -43 242 -134q63 -38 86 -68q30 -39 30 -103q0 -90 -66 -162.5t-156 -72.5q-32 0 -77 12q-57 16 -57 39q0 21 25 21q16 0 52 -11.5t57 -11.5
q44 0 71.5 35t27.5 80q0 66 -85 114l-204 114q-115 64 -164 122q-66 77 -66 189q0 208 199 357q183 137 398 137q67 0 131 -12q94 -17 94 -53z" />
  </g>

</svg>
