<?xml version="1.0" standalone="no"?>
<!DOCTYPE svg PUBLIC "-//W3C//DTD SVG 1.1//EN" "http://www.w3.org/Graphics/SVG/1.1/DTD/svg11.dtd" >
<svg viewBox="0 -442 2048 2048">
  <g transform="matrix(1 0 0 -1 0 1606)">
   <path fill="currentColor"
d="M1069 597q0 -228 -170 -421q-177 -200 -402 -200q-145 0 -206 155q-35 -137 -106 -427q-7 -37 -26 -94q-29 -52 -76 -52q-60 0 -60 54q0 6 8 38l206 820q46 184 176 327q147 162 321 162q152 0 246 -106q89 -102 89 -256zM922 675q0 98 -45 164q-52 76 -145 76
q-231 0 -357 -445q-62 -219 -62 -253q0 -24 15 -62q54 -136 171 -136q261 0 383 422q40 138 40 234z" />
  </g>

</svg>
