<?xml version="1.0" standalone="no"?>
<!DOCTYPE svg PUBLIC "-//W3C//DTD SVG 1.1//EN" "http://www.w3.org/Graphics/SVG/1.1/DTD/svg11.dtd" >
<svg viewBox="0 -442 2048 2048">
  <g transform="matrix(1 0 0 -1 0 1606)">
   <path fill="currentColor"
d="M1006 840q0 -27 -24.5 -52.5t-51.5 -25.5q-30 0 -109 28t-125 28q-124 0 -228 -35q-147 -48 -147 -145q0 -55 74 -93q84 37 204 37q137 0 137 -56q0 -64 -158 -64q-116 0 -185 28q-66 -33 -114 -83q-58 -62 -58 -123q0 -91 104 -133q75 -31 183 -31q194 0 289 78
q28 23 53 23q47 0 47 -34q0 -23 -38 -69q-118 -142 -370 -142q-132 0 -227 63q-110 73 -110 198q0 84 57 163q51 71 131 116q-82 59 -82 147q0 136 169 223q142 73 292 73q70 0 166 -30q121 -37 121 -89zM682 524q-47 13 -97 13q-72 0 -127 -19q38 -10 81 -10h70q39 0 73 16
z" />
  </g>

</svg>
