<?xml version="1.0" standalone="no"?>
<!DOCTYPE svg PUBLIC "-//W3C//DTD SVG 1.1//EN" "http://www.w3.org/Graphics/SVG/1.1/DTD/svg11.dtd" >
<svg viewBox="0 -442 2048 2048">
  <g transform="matrix(1 0 0 -1 0 1606)">
   <path fill="currentColor"
d="M1187 309q0 -29 -25 -108q-71 -225 -197 -225q-73 0 -124 44t-65 116q-118 -160 -285 -160q-135 0 -211 70l-95 -378q-30 -110 -91 -110q-60 0 -60 54q0 10 7 38l308 1232q19 77 85 77q59 0 59 -54q0 -10 -29 -125l-99 -392q-28 -111 -28 -176q0 -193 162 -193
q137 0 248 155q28 39 39 83l152 606q19 75 83 75q60 0 60 -56q0 -6 -37 -155q-14 -59 -43 -178q-32 -106 -63 -212q-35 -125 -35 -217q0 -101 68 -101q65 0 112 104q20 43 52 162q12 44 30 44q22 0 22 -20z" />
  </g>

</svg>
