<?xml version="1.0" standalone="no"?>
<!DOCTYPE svg PUBLIC "-//W3C//DTD SVG 1.1//EN" "http://www.w3.org/Graphics/SVG/1.1/DTD/svg11.dtd" >
<svg viewBox="0 -442 2048 2048">
  <g transform="matrix(1 0 0 -1 0 1606)">
   <path fill="currentColor"
d="M1070 1089q0 -191 -67 -414q-71 -235 -203 -434q-177 -265 -360 -265q-140 0 -204 161q-46 115 -46 281q0 184 66 408q70 239 202 438q176 268 362 268q140 0 204 -162q46 -115 46 -281zM938 1219q0 270 -120 270q-115 0 -244 -236q-84 -153 -164 -466h459q69 265 69 432
zM854 721h-464q-69 -284 -69 -433q0 -269 121 -269q109 0 232 214q102 178 180 488z" />
  </g>

</svg>
