<?xml version="1.0" standalone="no"?>
<!DOCTYPE svg PUBLIC "-//W3C//DTD SVG 1.1//EN" "http://www.w3.org/Graphics/SVG/1.1/DTD/svg11.dtd" >
<svg viewBox="0 -442 2048 2048">
  <g transform="matrix(1 0 0 -1 0 1606)">
   <path fill="currentColor"
d="M1041 1296q0 -65 -181 -65q-104 0 -143 45q-108 -50 -179 -150q-73 -104 -73 -219q0 -116 75 -180q85 27 203 27q150 0 150 -55q0 -62 -184 -62q-98 0 -167 16q-34 8 -31 8q-19 0 -64 -35q-211 -162 -211 -338q0 -130 187 -205l230 -92q141 -56 157 -66q81 -50 81 -138
q0 -89 -68 -159t-157 -70q-44 0 -91 14q-34 10 -81 36q-59 33 -59 55q0 23 22 21v-1q36 -30 100 -56t109 -26q46 0 78 36.5t32 83.5q0 45 -38 76q-14 12 -159 67q-230 88 -288 123q-160 98 -160 244q0 132 102 266q90 119 219 191q-146 80 -146 235q0 144 121 259
q104 100 256 145q-15 34 -15 94q0 94 35 94q22 0 22 -22q0 -14 -4 -42t-4 -42q0 -42 12 -70q62 10 168 10q144 0 144 -53zM991 1293q-48 12 -96 12h-58q-42 0 -72 -9q28 -22 76 -22h48q57 0 102 19zM843 696q-71 15 -132 15q-59 0 -119 -15q38 -16 87 -16h69q60 0 95 16z
" />
  </g>

</svg>
