<?xml version="1.0" standalone="no"?>
<!DOCTYPE svg PUBLIC "-//W3C//DTD SVG 1.1//EN" "http://www.w3.org/Graphics/SVG/1.1/DTD/svg11.dtd" >
<svg viewBox="0 -442 2048 2048">
  <g transform="matrix(1 0 0 -1 0 1606)">
   <path fill="currentColor"
d="M1113 888q0 -43 -33 -74.5t-76 -31.5q-72 0 -72 69q0 26 12 46q-94 -37 -244.5 -182t-233.5 -176q316 -40 316 -235q0 -31 -13 -90t-13 -90q0 -105 71 -105q112 0 188 266q12 44 31 44q22 0 22 -20q0 -28 -29 -106q-84 -227 -215 -227q-88 0 -142 60.5t-54 149.5
q0 20 8.5 58.5t8.5 58.5q0 166 -249 195l-111 -445q-19 -77 -86 -77q-57 0 -57 57q0 22 7 50l200 799q19 77 86 77q57 0 57 -57q0 -22 -7 -50l-73 -291q88 29 208 136q190 169 199 175q116 87 214 87q80 0 80 -71z" />
  </g>

</svg>
