<?xml version="1.0" standalone="no"?>
<!DOCTYPE svg PUBLIC "-//W3C//DTD SVG 1.1//EN" "http://www.w3.org/Graphics/SVG/1.1/DTD/svg11.dtd" >
<svg viewBox="0 -442 2048 2048">
  <g transform="matrix(1 0 0 -1 0 1606)">
   <path fill="currentColor"
d="M1118 730q0 -58 -18 -129l-244 -969q-19 -74 -82 -74q-59 0 -59 54q0 14 6 38l247 974q19 75 19 139q0 152 -116 152q-163 0 -297 -177q-70 -92 -117 -281l-64 -306q-8 -47 -34 -129q-24 -46 -74 -46q-56 0 -56 54q0 24 38 170q14 59 44 178q31 109 63 218q36 133 36 220
q0 99 -68 99q-93 0 -161 -257q-14 -53 -33 -53q-25 0 -25 21q0 26 28 110q34 101 65 147q53 76 132 76q82 0 136 -55q51 -54 56 -137q137 192 336 192q111 0 175 -58q67 -61 67 -171z" />
  </g>

</svg>
