<?xml version="1.0" standalone="no"?>
<!DOCTYPE svg PUBLIC "-//W3C//DTD SVG 1.1//EN" "http://www.w3.org/Graphics/SVG/1.1/DTD/svg11.dtd" >
<svg viewBox="0 -442 2048 2048">
  <g transform="matrix(1 0 0 -1 0 1606)">
   <path fill="currentColor"
d="M1070 1296q0 -65 -187 -65q-90 0 -132 38q-200 -117 -343.5 -367t-143.5 -482q0 -241 202 -311l200 -69q101 -35 146 -76q62 -55 62 -147q0 -98 -69 -177q-71 -82 -168 -82q-35 0 -70 10.5t-78 37.5q-55 34 -55 57q0 22 23 21q113 -83 180 -83q54 0 92 48q36 44 36 100
q0 101 -158 160q-76 25 -153 51q-91 31 -144 68q-158 108 -158 337q0 266 168 541.5t404 398.5q-27 51 -27 116q0 94 36 94q20 0 20 -22q0 -13 -4.5 -38t-4.5 -38q0 -47 21 -92q59 24 161 24q144 0 144 -53zM1019 1293q-48 12 -96 12h-49q-42 0 -75 -15q25 -16 63 -16h37
q75 0 120 19z" />
  </g>

</svg>
