<?xml version="1.0" standalone="no"?>
<!DOCTYPE svg PUBLIC "-//W3C//DTD SVG 1.1//EN" "http://www.w3.org/Graphics/SVG/1.1/DTD/svg11.dtd" >
<svg viewBox="0 -442 2048 2048">
  <g transform="matrix(1 0 0 -1 0 1606)">
   <path fill="currentColor"
d="M1161 937q0 -6 -467 -640q44 -181 108 -369q95 -277 159 -317q16 -10 33 -10q58 0 96 59t45 59q24 0 24 -20q0 -19 -17 -47q-57 -94 -165 -94q-105 0 -166 45q-73 54 -152 301q-54 170 -82 260l-440 -596q-7 -10 -21 -10q-21 0 -21 20q0 10 467 640q-189 697 -300 697
q-52 0 -95.5 -58.5t-50.5 -58.5q-24 0 -24 20q0 14 20 45q62 96 162 96q119 0 190 -61q54 -46 126 -255q10 -30 89 -290l425 582q18 24 34 24q23 0 23 -22z" />
  </g>

</svg>
