<?xml version="1.0" standalone="no"?>
<!DOCTYPE svg PUBLIC "-//W3C//DTD SVG 1.1//EN" "http://www.w3.org/Graphics/SVG/1.1/DTD/svg11.dtd" >
<svg viewBox="0 -442 2048 2048">
  <g transform="matrix(1 0 0 -1 0 1606)">
   <path fill="currentColor"
d="M1161 531q0 -206 -189 -377t-431 -178q-14 -54 -77 -302q-9 -39 -22 -81q-9 -8 -21 -8q-24 0 -24 22q0 5 45 178q15 64 46 191q-180 10 -287 116q-102 101 -102 250q0 207 189.5 377.5t430.5 177.5l117 468q11 41 31 41q23 0 24 -21q-6 -29 -6 -28l-113 -460
q195 -14 300 -131q89 -99 89 -235zM1029 573q0 129 -77 204q-72 69 -192 76l-209 -833q214 17 353 196q125 162 125 357zM707 853q-214 -19 -351 -196q-125 -160 -125 -357q0 -139 88 -214q72 -60 179 -66z" />
  </g>

</svg>
