<?xml version="1.0" standalone="no"?>
<!DOCTYPE svg PUBLIC "-//W3C//DTD SVG 1.1//EN" "http://www.w3.org/Graphics/SVG/1.1/DTD/svg11.dtd" >
<svg viewBox="0 -442 2048 2048">
  <g transform="matrix(1 0 0 -1 0 1606)">
   <path fill="currentColor"
d="M1167 936q0 -145 -55 -329q-80 -266 -224 -437q-181 -215 -421 -215q-259 0 -350 230q-27 68 -27 134q0 238 184 424q190 193 418 193q108 0 179 -68q68 -65 85 -174h2q56 216 56 350q0 155 -68 255q-78 116 -225 116q-196 0 -294 -161h5q38 0 65 -27t27 -65t-27 -65
t-65 -27t-65 27t-27 65q0 19 3 29q38 125 145 201q104 74 237 74q210 0 332 -164q110 -148 110 -366zM919 621q0 118 -53 189q-59 81 -174 81q-185 0 -309 -182q-46 -68 -90.5 -223t-44.5 -242q0 -105 59.5 -168.5t165.5 -63.5q151 0 267 138q90 108 143 277q36 116 36 194z
" />
  </g>

</svg>
