<?xml version="1.0" standalone="no"?>
<!DOCTYPE svg PUBLIC "-//W3C//DTD SVG 1.1//EN" "http://www.w3.org/Graphics/SVG/1.1/DTD/svg11.dtd" >
<svg viewBox="0 -442 2048 2048">
  <g transform="matrix(1 0 0 -1 0 1606)">
   <path fill="currentColor"
d="M1452 1071q0 -144 -109 -246q-97 -93 -245 -123q120 -15 191 -79q80 -72 80 -188q0 -94 -50 -187q-134 -248 -455 -248h-770q-27 0 -27 39q0 46 22 57q10 4 64 5q36 0 107 5l241 1132q-122 0 -144 4q-27 5 -27 39q0 16 9 37q10 25 24 25h734q150 0 243 -59
q112 -71 112 -213zM1168 1087q0 155 -123 155h-271q-13 0 -23 -1l-99 -504h232q128 0 210 114q74 102 74 236zM1091 475q0 185 -135 185h-319l-111 -559q21 -1 20 -1h265q133 0 212 126q68 108 68 249z" />
  </g>

</svg>
