<?xml version="1.0" standalone="no"?>
<!DOCTYPE svg PUBLIC "-//W3C//DTD SVG 1.1//EN" "http://www.w3.org/Graphics/SVG/1.1/DTD/svg11.dtd" >
<svg viewBox="0 -442 2048 2048">
  <g transform="matrix(1 0 0 -1 0 1606)">
   <path fill="currentColor"
d="M1257 734q0 -23 -19 -23q-27 0 -100 19q-65 -253 -195 -466q-175 -288 -370 -288q-282 0 -282 244q0 77 30.5 203t30.5 193q0 99 -68 99q-67 0 -100 -55t-36 -55q-25 0 -25 21q0 63 54 100q47 33 113 33q84 0 137 -56t53 -140q0 -35 -40 -202q-20 -81 -20 -168
q0 -174 159 -174q124 0 254 258q89 175 163 494q-349 113 -349 365q0 134 89 259q97 137 225 137q133 0 192 -159q40 -108 40 -271q0 -145 -44 -329q108 -23 108 -39zM1073 1237q0 252 -116 252q-108 0 -189 -125q-72 -111 -72 -226q0 -218 313 -322q64 284 64 421z" />
  </g>

</svg>
