<?xml version="1.0" standalone="no"?>
<!DOCTYPE svg PUBLIC "-//W3C//DTD SVG 1.1//EN" "http://www.w3.org/Graphics/SVG/1.1/DTD/svg11.dtd" >
<svg viewBox="0 -442 2048 2048">
  <g transform="matrix(1 0 0 -1 0 1606)">
   <path fill="currentColor"
d="M1057 597q0 -228 -170 -421q-176 -200 -401 -200q-125 0 -212.5 75t-112.5 199q-46 -170 -46 -251q0 -165 130 -215l240 -42q130 -24 130 -128q0 -25 -6 -56h-34q-45 65 -195 65h-35q-23 -1 -35 -1q-131 0 -188 42q-85 61 -85 234q0 139 59 349q78 276 137 382
q78 142 203 231q138 99 288 99t244 -107q89 -102 89 -255zM912 675q0 97 -46 164q-52 76 -145 76q-182 0 -308 -224q-43 -77 -79 -210.5t-36 -220.5q0 -98 45 -164q52 -77 145 -77q260 0 383 422q41 140 41 234z" />
  </g>

</svg>
