<?xml version="1.0" standalone="no"?>
<!DOCTYPE svg PUBLIC "-//W3C//DTD SVG 1.1//EN" "http://www.w3.org/Graphics/SVG/1.1/DTD/svg11.dtd" >
<svg viewBox="0 -442 2048 2048">
  <g transform="matrix(1 0 0 -1 0 1606)">
   <path fill="currentColor"
d="M1212 642q0 -253 -181 -456q-186 -210 -436 -210q-36 0 -69 5q-29 -178 -67 -370q-33 -53 -79 -53q-56 0 -56 54q0 36 48 185l66 198q-286 62 -286 360q0 219 146 479q58 104 91 104q23 0 23 -19q0 -4 -25 -37q-177 -231 -177 -465q0 -260 265 -311q41 140 100 316
q85 256 127 334q109 203 259 203q251 0 251 -317zM1157 598q0 244 -216 244q-116 0 -200 -125q-63 -95 -112 -269q-30 -125 -61 -250q-19 -75 -19 -94q0 -11 52 -11q155 0 293 81.5t206 218.5q57 115 57 205z" />
  </g>

</svg>
