<?xml version="1.0" standalone="no"?>
<!DOCTYPE svg PUBLIC "-//W3C//DTD SVG 1.1//EN" "http://www.w3.org/Graphics/SVG/1.1/DTD/svg11.dtd" >
<svg viewBox="0 -442 2048 2048">
  <g transform="matrix(1 0 0 -1 0 1606)">
   <path fill="currentColor"
d="M1379 813q0 -100 -40 -252q-60 -227 -159 -376q-138 -209 -323 -209q-173 0 -189 212q-135 -212 -307 -212q-209 0 -209 299q0 269 159 551q62 110 85 110q21 0 21 -23q0 -8 -17 -35q-188 -298 -188 -510q0 -101 37 -166q47 -82 140 -82q155 0 281 200q31 310 108 310
q38 0 38 -45q0 -79 -83 -274q11 -191 152 -191q158 0 287 173q119 161 119 325q0 68 -50 156t-50 89q0 37 31 66.5t69 29.5q88 0 88 -146z" />
  </g>

</svg>
