<?xml version="1.0" standalone="no"?>
<!DOCTYPE svg PUBLIC "-//W3C//DTD SVG 1.1//EN" "http://www.w3.org/Graphics/SVG/1.1/DTD/svg11.dtd" >
<svg viewBox="0 -442 2048 2048">
  <g transform="matrix(1 0 0 -1 0 1606)">
   <path fill="currentColor"
d="M1530 875q0 -71 -100 -71h-51q-4 -252 -138 -515q-160 -313 -384 -313q-173 0 -189 212q-135 -212 -307 -212q-209 0 -209 299q0 268 159 551q62 110 85 110q21 0 21 -23q0 -8 -17 -35q-188 -295 -188 -510q0 -101 37 -166q47 -82 140 -82q155 0 281 200q31 310 108 310
q38 0 38 -45q0 -80 -83 -274q11 -191 152 -191q206 0 318 252q84 189 91 432q-232 3 -460 61q-331 84 -331 240q0 112 129 176q103 51 228 51q441 0 511 -409h89q70 0 70 -48zM1293 923q-25 157 -128 249t-261 92q-98 0 -173 -28q-105 -40 -105 -121q0 -113 286 -162
q174 -30 381 -30z" />
  </g>

</svg>
