<?xml version="1.0" standalone="no"?>
<!DOCTYPE svg PUBLIC "-//W3C//DTD SVG 1.1//EN" "http://www.w3.org/Graphics/SVG/1.1/DTD/svg11.dtd" >
<svg viewBox="0 -442 2048 2048">
  <g transform="matrix(1 0 0 -1 0 1606)">
   <path fill="currentColor"
d="M1007 912q0 -27 -11 -66q-49 -175 -267 -321q-22 -112 -22 -212q0 -200 94 -200q57 0 102.5 97t63.5 97q20 0 20 -20l-3 -12q-77 -299 -242 -299q-95 0 -95 185q0 141 49 343l-350 -236q-79 -292 -197 -292q-46 0 -46 56q0 14 7 41q52 204 275 350q22 105 22 201
q0 198 -97 198q-53 0 -102 -100t-66 -100q-19 0 -19 24q0 8 2 16q71 297 244 297q98 0 98 -180q0 -139 -49 -333l347 233q84 280 190 280q52 0 52 -47z" />
  </g>

</svg>
