<?xml version="1.0" standalone="no"?>
<!DOCTYPE svg PUBLIC "-//W3C//DTD SVG 1.1//EN" "http://www.w3.org/Graphics/SVG/1.1/DTD/svg11.dtd" >
<svg viewBox="0 -442 2048 2048">
  <g transform="matrix(1 0 0 -1 0 1606)">
   <path fill="currentColor"
d="M1564 1303l-50 -408q-4 -26 -30 -31q-3 -1 -47 -1q-27 0 -27 39q0 4 6 54q9 74 9 117q0 118 -74 151q-42 18 -180 18q-41 0 -58 -4l-240 -1132q31 0 154 -4q21 0 63 -2q26 -5 26 -40q0 -60 -31 -60q-63 0 -187 3t-187 3q-60 0 -180 -3t-180 -3q-26 0 -26 39q0 53 32 61
q105 3 236 8l239 1132q-20 2 -103 2q-131 0 -203 -65q-62 -56 -105 -189q-9 -34 -31 -101q-9 -24 -25 -24h-51q-27 0 -27 35q0 20 124 421q7 24 25 24h1103q9 0 18 -15t7 -25z" />
  </g>

</svg>
