<?xml version="1.0" standalone="no"?>
<!DOCTYPE svg PUBLIC "-//W3C//DTD SVG 1.1//EN" "http://www.w3.org/Graphics/SVG/1.1/DTD/svg11.dtd" >
<svg viewBox="0 -442 2048 2048">
  <g transform="matrix(1 0 0 -1 0 1606)">
   <path fill="currentColor"
d="M1467 1303l-53 -318q-5 -27 -31 -32h-50q-27 0 -27 39q0 11 7 50.5t7 59.5v13q-34 5 -122 5h-633q-100 0 -132 -7q-18 -24 -30 -66q-9 -35 -19 -70q-8 -24 -25 -24h-55q-26 0 -26 35q0 10 84 331q6 24 25 24h1053q10 0 19 -15t8 -25zM1214 869q0 -3 -75 -354
q-5 -25 -33 -25q-45 0 -52 2q-21 7 -21 39q0 4 14 56h-568q-16 -75 -21 -81q-12 -15 -76 -15q-27 0 -27 35q0 3 75 355q4 20 35 24h-2h1h1h8l37 -1q27 -1 27 -39q0 -3 -11 -57h567q15 75 19 80q12 16 75 16q27 0 27 -35zM1295 375q0 -4 -88 -351q-6 -24 -25 -24h-1073
q-27 0 -27 35v4l57 340q4 27 31 32h51q26 0 26 -39q0 -22 -8.5 -65.5t-8.5 -66.5q0 -6 2 -11q44 -8 135 -8h620q109 0 149 10q20 29 32 79q24 101 45 101h55q27 0 27 -36z" />
  </g>

</svg>
