<?xml version="1.0" standalone="no"?>
<!DOCTYPE svg PUBLIC "-//W3C//DTD SVG 1.1//EN" "http://www.w3.org/Graphics/SVG/1.1/DTD/svg11.dtd" >
<svg viewBox="0 -442 2048 2048">
  <g transform="matrix(1 0 0 -1 0 1606)">
   <path fill="currentColor"
d="M1759 1303q0 -46 -21 -56q-10 -5 -65 -5q-63 0 -108 -6l-238 -1132q48 1 144 -4q27 -4 27 -40q0 -16 -9 -36q-11 -24 -25 -24q-50 0 -149.5 3t-149.5 3q-47 0 -142.5 -3t-143.5 -3q-26 0 -26 39q0 46 23 57q9 4 63 5q36 0 108 5l239 1136h-504l-241 -1138q48 1 144 -4
q27 -4 27 -40q0 -16 -9 -36q-10 -24 -25 -24q-49 0 -149 3t-150 3q-48 0 -143 -3t-142 -3q-27 0 -27 39q0 47 23 57q9 4 63 5q36 0 107 5l241 1132q-48 -1 -144 4q-27 3 -27 39q0 62 33 62h1370q26 0 26 -40z" />
  </g>

</svg>
