<?xml version="1.0" standalone="no"?>
<!DOCTYPE svg PUBLIC "-//W3C//DTD SVG 1.1//EN" "http://www.w3.org/Graphics/SVG/1.1/DTD/svg11.dtd" >
<svg viewBox="0 -442 2048 2048">
  <g transform="matrix(1 0 0 -1 0 1606)">
   <path fill="currentColor"
d="M1698 1303q0 -56 -33 -61q-16 0 -49 -1q-71 -4 -137 -46q-8 0 -463 -373l307 -708q9 -7 82 -12q57 -4 57 -42q0 -60 -32 -60q-39 0 -116.5 3t-116.5 3q-48 0 -145.5 -3t-146.5 -3q-25 0 -25 39q0 56 43 62q48 4 96 9l-226 528l-169 -137l-83 -397q48 1 144 -4
q27 -4 27 -40q0 -16 -9 -36q-10 -24 -25 -24q-49 0 -149 3t-150 3q-47 0 -142.5 -3t-142.5 -3q-27 0 -27 39q0 46 22 57q10 4 64 5q36 0 107 5l241 1132q-48 0 -144 4q-27 3 -27 39q0 62 48 62q47 0 141.5 -3t142.5 -3q47 0 142.5 3t143.5 3q25 0 25 -40q0 -47 -20 -56
q-10 -5 -65 -5q-63 0 -108 -6l-128 -603l732 598q-35 11 -86 11q-27 0 -27 39q0 62 33 62q41 0 122 -3t122 -3q21 0 62.5 3t62.5 3q25 0 25 -40z" />
  </g>

</svg>
