<?xml version="1.0" standalone="no"?>
<!DOCTYPE svg PUBLIC "-//W3C//DTD SVG 1.1//EN" "http://www.w3.org/Graphics/SVG/1.1/DTD/svg11.dtd" >
<svg viewBox="0 -442 2048 2048">
  <g transform="matrix(1 0 0 -1 0 1606)">
   <path fill="currentColor"
d="M1495 1303l-34 -408q-2 -26 -31 -31q-3 -1 -49 -1q-27 0 -27 39q0 11 2 34t2 35q0 171 -114 231q-78 40 -263 40h-292q249 -518 249 -528q0 -14 -10 -24l-565 -555h367q191 0 285 36q131 52 204 201q15 40 48 119q11 25 33 25q43 0 48 -1q23 -6 23 -35q0 -38 -146 -456
q-8 -24 -25 -24h-1099q-27 0 -27 35q0 18 10 28l564 555l-308 640q-5 11 -5 23q0 17 9 37q11 25 25 25h1099q10 0 19 -14.5t8 -25.5z" />
  </g>

</svg>
