<?xml version="1.0" standalone="no"?>
<!DOCTYPE svg PUBLIC "-//W3C//DTD SVG 1.1//EN" "http://www.w3.org/Graphics/SVG/1.1/DTD/svg11.dtd" >
<svg viewBox="0 -442 2048 2048">
  <g transform="matrix(1 0 0 -1 0 1606)">
   <path fill="currentColor"
d="M1151 1345q0 -59 -39 -98.5t-98 -39.5q-60 0 -99.5 39t-39.5 99q0 59 41 98q-48 10 -94 10q-191 0 -191 -93q0 -49 127 -176q77 -74 154 -147q81 -82 118 -154q47 -93 47 -209q0 -241 -118 -451q-140 -247 -363 -247q-193 0 -311 88q-133 98 -133 285q0 220 146 390
q141 165 359 215q-125 220 -125 354q0 239 292 239q124 0 211 -40q116 -53 116 -162zM823 522q0 157 -115 346q-209 -70 -293 -379q-34 -125 -34 -220q0 -207 222 -207q103 0 169 185q51 145 51 275z" />
  </g>

</svg>
