<?xml version="1.0" standalone="no"?>
<!DOCTYPE svg PUBLIC "-//W3C//DTD SVG 1.1//EN" "http://www.w3.org/Graphics/SVG/1.1/DTD/svg11.dtd" >
<svg viewBox="0 -442 2048 2048">
  <g transform="matrix(1 0 0 -1 0 1606)">
   <path fill="currentColor"
d="M844 308q0 -4 -2 -10q-43 -125 -132 -216q-105 -106 -223 -106q-98 0 -171 53q-81 58 -81 153q0 22 6 51l128 615q9 44 50.5 78t86.5 34q46 0 75.5 -33t29.5 -79q0 -9 -1 -14l-127 -606q-11 -52 -11 -95q0 -73 39 -73q70 0 133 64q52 53 82 128q7 27 26 69q15 19 49 19
q43 0 43 -32z" />
  </g>

</svg>
