<?xml version="1.0" standalone="no"?>
<!DOCTYPE svg PUBLIC "-//W3C//DTD SVG 1.1//EN" "http://www.w3.org/Graphics/SVG/1.1/DTD/svg11.dtd" >
<svg viewBox="0 -442 2048 2048">
  <g transform="matrix(1 0 0 -1 0 1606)">
   <path fill="currentColor"
d="M1703 1028q0 -32 -29 -40q-9 -1 -28 -6q-56 -22 -96 -188q-53 -226 -192 -350q-57 -50 -176 -96q-112 -43 -195 -43l-43 -201q21 -2 134 -3q19 1 54 -1q27 -5 27 -40q0 -17 -8 -36q-11 -24 -26 -24q-55 0 -166 3t-167 3q-53 0 -160.5 -3t-161.5 -3q-27 0 -27 39
q0 51 34 61q83 1 204 6l43 201q-159 22 -251 110q-100 95 -100 250q0 42 13 123t13 122q0 57 -34 75.5t-34 40.5q0 39 28 39h197q94 0 94 -147q0 -51 -18 -151t-18 -151q0 -175 128 -222l179 842q-48 4 -167 4q-48 0 -48 39q0 62 33 62q56 0 167.5 -3t167.5 -3q53 0 160 3
t161 3q25 0 25 -40q0 -59 -31 -61q-69 1 -207 -6l-176 -839q219 69 298 421q56 249 177 249h195q27 0 27 -39z" />
  </g>

</svg>
