<?xml version="1.0" standalone="no"?>
<!DOCTYPE svg PUBLIC "-//W3C//DTD SVG 1.1//EN" "http://www.w3.org/Graphics/SVG/1.1/DTD/svg11.dtd" >
<svg viewBox="0 -442 2048 2048">
  <g transform="matrix(1 0 0 -1 0 1606)">
   <path fill="currentColor"
d="M1281 912l-81 -180q-64 -142 -164 -417q-23 -58 -57 -176q-3 -39 -10 -117q-9 -87 -41 -242q-47 -222 -111 -222q-50 0 -47 75q4 105 84 394q37 134 37 212q0 228 -47 327q-70 149 -272 149q-163 0 -213 -90q-10 -27 -30 -66q-18 -21 -56 -21q-56 0 -56 32q0 5 2 12
q42 158 133 258q108 119 257 119q169 0 269 -198q70 -138 97 -348q162 439 216 511q15 20 36 20q53 0 54 -32z" />
  </g>

</svg>
