<?xml version="1.0" standalone="no"?>
<!DOCTYPE svg PUBLIC "-//W3C//DTD SVG 1.1//EN" "http://www.w3.org/Graphics/SVG/1.1/DTD/svg11.dtd" >
<svg viewBox="0 -442 2048 2048">
  <g transform="matrix(1 0 0 -1 0 1606)">
   <path fill="currentColor"
d="M1196 839q0 -59 -36 -106q-39 -50 -97 -50q-42 0 -67 31t-25 74q0 11 5 33q-76 -42 -176 -137q-132 -125 -165 -151q113 -5 195 -60q95 -65 95 -171q0 -27 -9.5 -81.5t-9.5 -81.5q0 -78 41 -78q100 0 138 200q3 23 15 60q12 19 39 19q50 0 50 -32q0 -2 -2 -9
q-87 -323 -262 -323q-102 0 -176 58q-80 63 -80 162q0 16 4.5 48t4.5 48q0 129 -148 157l-78 -363q-9 -44 -51.5 -77t-87.5 -33q-46 0 -75 32t-29 79q0 9 1 14l159 747q9 44 50.5 78t86.5 34q46 0 75.5 -33t29.5 -79q0 -9 -1 -14l-54 -260q65 35 174 138q126 119 177 156
q104 74 197 74q41 0 66.5 -30.5t25.5 -72.5z" />
  </g>

</svg>
