<?xml version="1.0" standalone="no"?>
<!DOCTYPE svg PUBLIC "-//W3C//DTD SVG 1.1//EN" "http://www.w3.org/Graphics/SVG/1.1/DTD/svg11.dtd" >
<svg viewBox="0 -442 2048 2048">
  <g transform="matrix(1 0 0 -1 0 1606)">
   <path fill="currentColor"
d="M1028 1224q0 -124 -219 -124q-73 0 -111 64q-151 -119 -253 -326t-102 -397q0 -230 190 -295l221 -76q67 -23 108.5 -86t41.5 -137q0 -100 -68 -190q-73 -98 -169 -98q-65 0 -141 24q-99 31 -99 80q0 46 40 44q129 -62 177 -62q24 0 43 29q18 26 18 51q0 79 -148 131
q-103 36 -143 53q-89 36 -131 70q-147 116 -147 358q0 252 159 517q151 253 371 397q-5 35 -5 78q0 173 66 173q51 0 51 -58q0 -26 -13.5 -75t-13.5 -75q58 21 102 21q175 0 175 -91zM899 1215q-18 14 -61 14q-31 0 -70 -18q16 -25 53 -25q75 0 78 29z" />
  </g>

</svg>
