<?xml version="1.0" standalone="no"?>
<!DOCTYPE svg PUBLIC "-//W3C//DTD SVG 1.1//EN" "http://www.w3.org/Graphics/SVG/1.1/DTD/svg11.dtd" >
<svg viewBox="0 -442 2048 2048">
  <g transform="matrix(1 0 0 -1 0 1606)">
   <path fill="currentColor"
d="M1095 817q0 -35 -20 -63q-22 -31 -56 -31q-32 0 -67 16q-97 44 -274 44q-117 0 -207 -30q-130 -44 -130 -137q0 -40 25 -72q109 51 267 51q169 0 169 -84q0 -113 -212 -113q-147 0 -232 45q-103 -75 -103 -173q0 -71 132 -110q95 -28 191 -28q200 0 300 71q8 6 41 40
q15 16 40 16q45 0 45 -49q0 -28 -47 -86q-120 -148 -414 -148q-156 0 -259 55q-130 70 -130 212t134 253q-44 51 -44 120q0 66 44 134q135 209 479 209q85 0 192 -34q136 -44 136 -108zM705 511q-30 10 -86 10q-98 0 -173 -27q56 -22 174 -22q73 0 85 39z" />
  </g>

</svg>
