<?xml version="1.0" standalone="no"?>
<!DOCTYPE svg PUBLIC "-//W3C//DTD SVG 1.1//EN" "http://www.w3.org/Graphics/SVG/1.1/DTD/svg11.dtd" >
<svg viewBox="0 -442 2048 2048">
  <g transform="matrix(1 0 0 -1 0 1606)">
   <path fill="currentColor"
d="M1645 1121q0 -107 -45 -107h-34q-21 0 -22 20q1 6 1 34q0 61 -146 61q-141 0 -247 -178q-77 -131 -114 -306l-114 -541q25 -2 138 -3q17 1 50 -1q27 -5 27 -40q0 -17 -8 -36q-11 -24 -25 -24q-58 0 -172.5 3t-172.5 3q-55 0 -164.5 -3t-164.5 -3q-27 0 -27 39q0 52 34 61
q1 0 61 1q48 0 144 5l116 555q21 99 21 183q0 285 -180 285q-134 0 -166 -51l-16 -40q-12 -24 -32 -24h-35q-24 0 -24 26q0 33 33 99q105 212 308 212q162 0 241 -155q60 -120 62 -299q75 181 179 299q138 155 296 155q91 0 147 -70q51 -65 51 -160z" />
  </g>

</svg>
