<?xml version="1.0" standalone="no"?>
<!DOCTYPE svg PUBLIC "-//W3C//DTD SVG 1.1//EN" "http://www.w3.org/Graphics/SVG/1.1/DTD/svg11.dtd" >
<svg viewBox="0 -442 2048 2048">
  <g transform="matrix(1 0 0 -1 0 1606)">
   <path fill="currentColor"
d="M1177 711q0 -58 -10 -105l-198 -937q-9 -45 -52 -78t-89 -33q-39 0 -71.5 28.5t-32.5 67.5q0 16 3 30l196 929q18 85 18 151q0 109 -66 109q-129 0 -245 -181q-24 -37 -35 -61q-6 -12 -35 -157q-23 -130 -80 -388q-12 -46 -52.5 -78t-87.5 -32q-44 0 -74.5 29.5
t-30.5 73.5q0 8 3 22l127 607q12 57 12 92q0 73 -39 73q-63 0 -93 -112q-17 -73 -35 -146q-13 -21 -36 -21q-54 0 -54 31q0 94 73 209q80 125 168 125q85 0 153 -39q77 -43 94 -120q132 159 291 159q278 0 278 -248z" />
  </g>

</svg>
