<?xml version="1.0" standalone="no"?>
<!DOCTYPE svg PUBLIC "-//W3C//DTD SVG 1.1//EN" "http://www.w3.org/Graphics/SVG/1.1/DTD/svg11.dtd" >
<svg viewBox="0 -442 2048 2048">
  <g transform="matrix(1 0 0 -1 0 1606)">
   <path fill="currentColor"
d="M1312 903q0 -3 -1 -8q-54 -298 -233 -550v-15q0 -271 54 -271q23 0 62.5 45t61.5 45q43 0 43 -30q0 -61 -74 -105q-64 -38 -129 -38q-77 0 -143 46.5t-96 119.5q-198 -166 -325 -166q-175 0 -277.5 97.5t-102.5 271.5q0 240 152 422q160 192 396 192q174 0 278 -147
q94 -131 94 -312q45 74 143 381q11 34 17 42q11 13 42 13q38 0 38 -33zM834 232q-11 180 -21 360q-30 281 -118 281q-94 0 -180 -157q-64 -116 -94 -243q-23 -99 -23 -176q0 -236 157 -236q104 0 279 171z" />
  </g>

</svg>
