<?xml version="1.0" standalone="no"?>
<!DOCTYPE svg PUBLIC "-//W3C//DTD SVG 1.1//EN" "http://www.w3.org/Graphics/SVG/1.1/DTD/svg11.dtd" >
<svg viewBox="0 -442 2048 2048">
  <g transform="matrix(1 0 0 -1 0 1606)">
   <path fill="currentColor"
d="M1252 1207q0 -205 -134 -351q114 -98 114 -284q0 -243 -147 -421q-157 -189 -395 -189q-237 0 -349 206l-121 -574q-5 -22 -56 -22q-60 0 -60 36q0 14 20 103q10 45 67 321q62 308 196 923q52 223 178 367q149 171 358 171q135 0 228 -74q101 -81 101 -212zM879 846
q-30 10 -68 10h-39q-79 0 -87 -30q20 -13 98 -13q54 0 96 33zM1026 1238q0 174 -145 174q-150 0 -258 -173q-77 -123 -120 -308q-58 -249 -101 -481q-12 -65 -12 -97q0 -124 65 -210q72 -95 192 -95q162 0 261 216q79 174 79 359q0 81 -25 145q-80 -40 -182 -40
q-187 0 -187 93q0 121 225 121q69 0 126 -15q82 181 82 311z" />
  </g>

</svg>
