<?xml version="1.0" standalone="no"?>
<!DOCTYPE svg PUBLIC "-//W3C//DTD SVG 1.1//EN" "http://www.w3.org/Graphics/SVG/1.1/DTD/svg11.dtd" >
<svg viewBox="0 -442 2048 2048">
  <g transform="matrix(1 0 0 -1 0 1606)">
   <path fill="currentColor"
d="M1442 730q0 -184 -196 -311q-173 -114 -368 -114l-42 -201q24 -2 134 -3q20 1 56 -1q26 -6 26 -40q0 -17 -9 -36q-10 -24 -24 -24q-56 0 -167.5 3t-167.5 3q-53 0 -160.5 -3t-161.5 -3q-26 0 -26 39q0 53 33 61q2 0 67 1q46 0 139 5l43 201q-145 0 -262 79
q-132 89 -132 227q0 179 189 306q169 114 358 116l43 203q-50 4 -188 4q-26 0 -26 39q0 17 8 37q10 25 24 25q55 0 166.5 -3t167.5 -3q54 0 161 3t161 3q25 0 25 -40q0 -60 -32 -61q-68 1 -205 -6l-43 -199q151 0 271 -76q138 -88 138 -231zM1165 781q0 145 -153 174
l-110 -565q263 45 263 391zM748 950q-247 -55 -247 -389q0 -140 138 -170z" />
  </g>

</svg>
