<?xml version="1.0" standalone="no"?>
<!DOCTYPE svg PUBLIC "-//W3C//DTD SVG 1.1//EN" "http://www.w3.org/Graphics/SVG/1.1/DTD/svg11.dtd" >
<svg viewBox="0 -442 2048 2048">
  <g transform="matrix(1 0 0 -1 0 1606)">
   <path fill="currentColor"
d="M1437 760q0 -99 -36 -237q-57 -219 -207 -372q-167 -170 -378 -175l-72 -335q-14 -64 -64 -64q-18 0 -37 14t-19 31q0 11 5 34l69 322q-159 3 -275 82q-133 91 -133 241q0 86 38 211q34 102 69 205q23 72 23 116q0 40 -23 40q-112 0 -165 -184q-6 -25 -22 -74
q-8 -19 -20 -19h-47q-23 0 -23 29q0 103 99.5 218.5t200.5 115.5q89 0 156 -51q74 -56 74 -142q0 -27 -14 -72q-34 -102 -69 -204q-37 -120 -37 -210q0 -180 188 -211l280 1300q14 64 64 64q18 0 37 -14t19 -31q0 -11 -5 -34l-278 -1293q245 8 416 337q53 102 53 170
q0 50 -72.5 111.5t-72.5 112.5q0 61 39 113q43 56 102 56q68 0 106 -70q31 -57 31 -131z" />
  </g>

</svg>
