<?xml version="1.0" standalone="no"?>
<!DOCTYPE svg PUBLIC "-//W3C//DTD SVG 1.1//EN" "http://www.w3.org/Graphics/SVG/1.1/DTD/svg11.dtd" >
<svg viewBox="0 -442 2048 2048">
  <g transform="matrix(1 0 0 -1 0 1606)">
   <path fill="currentColor"
d="M1384 837q0 -48 -29 -86q-32 -41 -78 -41h-207q-9 -96 -9 -146q0 -89 22 -187q17 -74 67 -193q18 -42 18 -63q0 -54 -46 -100.5t-100 -46.5q-73 0 -112 122q-29 89 -29 184q0 171 54 430h-195l-100 -483q-28 -138 -40 -163q-38 -88 -128 -88q-41 0 -75.5 29t-34.5 69
q0 30 61 176q41 94 81 188q65 157 100 272h-96q-135 0 -190 -72q-10 -19 -40 -45q-8 -3 -20 -3q-54 0 -54 32q0 8 6 19q148 282 325 282h775q33 0 53.5 -26.5t20.5 -59.5z" />
  </g>

</svg>
