<?xml version="1.0" standalone="no"?>
<!DOCTYPE svg PUBLIC "-//W3C//DTD SVG 1.1//EN" "http://www.w3.org/Graphics/SVG/1.1/DTD/svg11.dtd" >
<svg viewBox="0 -442 2048 2048">
  <g transform="matrix(1 0 0 -1 0 1606)">
   <path fill="currentColor"
d="M1268 14q1 -28 -24 -28h-198q-22 0 -47.5 17t-33.5 37l-199 535l-441 -546q-43 -53 -91 -53q-39 0 -65 34q-25 31 -25 71q0 63 47 107l532 503l-210 563q-32 86 -44 102q-27 39 -93 54q-32 7 -32 36q0 41 64 41q246 0 312 -69q21 -22 40 -73l438 -1174q12 -32 70 -157z
" />
  </g>

</svg>
