<?xml version="1.0" standalone="no"?>
<!DOCTYPE svg PUBLIC "-//W3C//DTD SVG 1.1//EN" "http://www.w3.org/Graphics/SVG/1.1/DTD/svg11.dtd" >
<svg viewBox="0 -442 2048 2048">
  <g transform="matrix(1 0 0 -1 0 1606)">
   <path fill="currentColor"
d="M1375 755q0 -111 -45 -259q-83 -273 -272 -426q-116 -94 -214 -94q-121 0 -189 143q-146 -143 -279 -143q-123 0 -181 124q-43 93 -43 232q0 236 174 503q70 107 107 107q51 0 50 -51q-4 -3 -38 -61q-171 -293 -171 -405q0 -206 148 -206q90 0 196 85q0 325 160 325
q85 0 85 -100q0 -93 -82 -241q51 -69 137 -69q116 0 211.5 103t95.5 220q0 64 -82 134.5t-82 115.5q0 66 51 117.5t116 51.5q76 0 115 -68q32 -56 32 -138z" />
  </g>

</svg>
