<?xml version="1.0" standalone="no"?>
<!DOCTYPE svg PUBLIC "-//W3C//DTD SVG 1.1//EN" "http://www.w3.org/Graphics/SVG/1.1/DTD/svg11.dtd" >
<svg viewBox="0 -442 2048 2048">
  <g transform="matrix(1 0 0 -1 0 1606)">
   <path fill="currentColor"
d="M1442 891q0 -21 -16 -40l-468 -547q65 -303 142 -461q96 -198 142 -198q43 0 77.5 59t36.5 59h47q23 0 23 -30q0 -64 -76 -121q-70 -53 -137 -53q-127 0 -192 21q-98 30 -148 117q-68 119 -127 400l-427 -501q-15 -18 -38 -18q-41 0 -41 51q0 22 14 38l467 548
q-62 299 -139 461q-94 197 -146 197q-61 0 -84 -71q-2 -11 -7 -29q-11 -19 -47 -19q-44 0 -44 32q0 64 74 120q70 53 136 53q128 0 194 -20q99 -30 150 -117q62 -105 126 -399l428 499q17 20 38 20q42 0 42 -51z" />
  </g>

</svg>
