<?xml version="1.0" standalone="no"?>
<!DOCTYPE svg PUBLIC "-//W3C//DTD SVG 1.1//EN" "http://www.w3.org/Graphics/SVG/1.1/DTD/svg11.dtd" >
<svg viewBox="0 -442 2048 2048">
  <g transform="matrix(1 0 0 -1 0 1606)">
   <path fill="currentColor"
d="M1345 940q0 -129 -50 -305q-190 -670 -725 -670q-196 0 -305 80q-145 106 -145 277q0 249 182 423q195 187 467 187q218 0 274 -211q60 218 60 342q0 313 -303 313q-174 0 -280 -132q92 -24 92 -118q0 -50 -36 -86t-86 -36t-86 36t-36 86q0 37 34 100q125 230 408 230
q244 0 388 -135q147 -139 147 -381zM998 606q0 252 -215 252q-182 0 -278 -141q-43 -63 -90 -236q-45 -168 -45 -252q0 -176 211 -176q182 0 295 164q44 64 83 188t39 201z" />
  </g>

</svg>
