<?xml version="1.0" standalone="no"?>
<!DOCTYPE svg PUBLIC "-//W3C//DTD SVG 1.1//EN" "http://www.w3.org/Graphics/SVG/1.1/DTD/svg11.dtd" >
<svg viewBox="0 -442 2048 2048">
  <g transform="matrix(1 0 0 -1 0 1606)">
   <path fill="currentColor"
d="M1318 308q0 -95 -73 -208q-80 -124 -169 -124q-177 0 -235 123q-113 -123 -248 -123q-112 0 -181 30l-71 -337q-9 -44 -52 -77.5t-88 -33.5q-39 0 -71.5 28.5t-32.5 67.5q0 16 3 30l248 1163q9 44 50.5 78t86.5 34q46 0 75.5 -33t29.5 -79q0 -9 -1 -14l-98 -457
q-20 -93 -20 -153q0 -162 132 -162q60 0 129 52q66 48 93 106q4 9 27 119q31 165 103 493q11 45 52.5 78t87.5 33q42 0 73 -31.5t31 -73.5q0 -13 -2 -22l-124 -587q-11 -52 -11 -95q0 -72 38 -72q76 0 115 196q3 26 13 64q10 19 47 19q43 0 43 -32z" />
  </g>

</svg>
