<?xml version="1.0" standalone="no"?>
<!DOCTYPE svg PUBLIC "-//W3C//DTD SVG 1.1//EN" "http://www.w3.org/Graphics/SVG/1.1/DTD/svg11.dtd" >
<svg viewBox="0 -442 2048 2048">
  <g transform="matrix(1 0 0 -1 0 1606)">
   <path fill="currentColor"
d="M1003 1224q0 -124 -219 -124q-72 0 -111 64q-143 -141 -143 -355q0 -64 13 -103q82 29 150 29q187 0 187 -90q0 -124 -219 -124q-109 0 -192 42q-150 -130 -150 -273q0 -100 141 -157l370 -150q101 -41 101 -164q0 -93 -68 -175q-72 -85 -163 -85q-64 0 -155 26
q-114 33 -114 78q0 44 39 44q3 0 16 -6q119 -56 199 -56q40 0 40 59q0 32 -36 47l-349 141q-96 39 -154 117q-62 82 -62 182q0 116 69 238q63 113 161 192q-90 84 -90 220q0 147 117 274q105 114 255 167q0 6 -1 20v20q0 180 64 180q42 0 42 -58q0 -26 -7 -70q-8 -50 -9 -69
q45 10 93 10q185 0 185 -91zM873 1215q-18 14 -61 14q-32 0 -71 -18q16 -25 51 -25q76 0 81 29zM753 635q-21 14 -63 14q-45 0 -99 -18q31 -25 83 -25q74 0 79 29z" />
  </g>

</svg>
