<?xml version="1.0" standalone="no"?>
<!DOCTYPE svg PUBLIC "-//W3C//DTD SVG 1.1//EN" "http://www.w3.org/Graphics/SVG/1.1/DTD/svg11.dtd" >
<svg viewBox="0 -442 2048 2048">
  <g transform="matrix(1 0 0 -1 0 1606)">
   <path fill="currentColor"
d="M1536 837q0 -48 -29 -86q-31 -41 -77 -41h-57q-17 -232 -156 -463q-164 -271 -373 -271q-121 0 -189 143q-146 -143 -279 -143q-123 0 -181 124q-43 93 -43 232q0 235 174 503q69 107 107 107q50 0 50 -51q0 14 -104.5 -177t-104.5 -289q0 -206 148 -206q90 0 196 85
q0 325 160 325q85 0 85 -100q0 -93 -82 -241q51 -69 137 -69q290 0 341 492q-142 3 -274 31q-154 33 -267 95q-161 90 -161 210q0 112 129 191q114 68 234 68q195 0 313 -92q130 -102 127 -291h102q33 0 53.5 -26.5t20.5 -59.5zM1289 923q-6 156 -110 243q-99 82 -258 82
q-79 0 -145 -35q-81 -43 -81 -115q0 -90 250 -139q162 -31 344 -36z" />
  </g>

</svg>
