<?xml version="1.0" standalone="no"?>
<!DOCTYPE svg PUBLIC "-//W3C//DTD SVG 1.1//EN" "http://www.w3.org/Graphics/SVG/1.1/DTD/svg11.dtd" >
<svg viewBox="0 -442 2048 2048">
  <g transform="matrix(1 0 0 -1 0 1606)">
   <path fill="currentColor"
d="M1219 822q0 -184 -320 -341q-31 -139 -31 -197q0 -113 94 -113q59 0 117 80.5t71 80.5q29 0 29 -28q0 -4 -3 -14q-90 -314 -272 -314q-134 0 -134 195q0 106 34 245l-301 -186q-80 -252 -211 -252q-113 0 -113 122q0 205 316 357q35 144 35 187q0 117 -91 117
q-61 0 -118 -79.5t-66 -79.5q-27 0 -27 27q0 6 2 13q93 317 261 317q137 0 137 -209q0 -69 -34 -226l299 181q72 254 214 254q52 0 84 -44q28 -39 28 -93z" />
  </g>

</svg>
