<?xml version="1.0" standalone="no"?>
<!DOCTYPE svg PUBLIC "-//W3C//DTD SVG 1.1//EN" "http://www.w3.org/Graphics/SVG/1.1/DTD/svg11.dtd" >
<svg viewBox="0 -442 2048 2048">
  <g transform="matrix(1 0 0 -1 0 1606)">
   <path fill="currentColor"
d="M1434 517q0 -251 -226 -406q-195 -133 -461 -144l-70 -326q-14 -64 -64 -64q-18 0 -37 14t-19 31q0 11 5 34l68 315q-200 19 -324 116q-144 113 -144 306q0 252 221 405q190 131 456 144l92 427q14 64 64 64q18 0 37 -14t19 -31q0 -11 -5 -34l-89 -413q202 -17 330 -115
q147 -113 147 -309zM1187 567q0 267 -248 293l-174 -809q204 19 315 162q107 136 107 354zM821 858q-199 -23 -308 -166q-104 -136 -104 -351q0 -259 238 -290z" />
  </g>

</svg>
