<?xml version="1.0" standalone="no"?>
<!DOCTYPE svg PUBLIC "-//W3C//DTD SVG 1.1//EN" "http://www.w3.org/Graphics/SVG/1.1/DTD/svg11.dtd" >
<svg viewBox="0 -442 2048 2048">
  <g transform="matrix(1 0 0 -1 0 1606)">
   <path fill="currentColor"
d="M1333 730q0 -54 -35 -54q-20 0 -62 14q-58 -255 -186 -453q-167 -261 -377 -261q-348 0 -348 259q0 71 15 141l43 202q12 56 12 92q0 73 -39 73q-45 0 -71 -54q-15 -33 -31 -111q-15 -74 -27 -94t-35 -20q-54 0 -54 31q0 94 73 209q80 125 168 125q100 0 173 -53
q81 -59 81 -155q0 -15 -7 -49l-42 -204q-22 -107 -22 -164q0 -72 19 -103q26 -40 97 -40q126 0 218 287q24 75 93 398q-337 110 -337 371q0 140 94 255q100 121 237 121q152 0 233 -152q65 -122 65 -288q0 -120 -29 -280q81 -1 81 -43zM1058 1208q0 200 -98 200
q-96 0 -159 -99q-55 -86 -55 -188q0 -191 262 -290q50 251 50 377z" />
  </g>

</svg>
