<?xml version="1.0" standalone="no"?>
<!DOCTYPE svg PUBLIC "-//W3C//DTD SVG 1.1//EN" "http://www.w3.org/Graphics/SVG/1.1/DTD/svg11.dtd" >
<svg viewBox="0 -442 2048 2048">
  <g transform="matrix(1 0 0 -1 0 1606)">
   <path fill="currentColor"
d="M1139 584q0 -252 -168 -428q-171 -180 -422 -180q-254 0 -352 179l-25 -100q-20 -81 -20 -123q0 -88 80 -120q37 -15 211 -15h148q114 0 161 -18q70 -27 70 -104q0 -28 -9 -64q-13 -53 -57 -53q-6 0 -36.5 26t-83.5 26q-37 0 -112.5 -6t-112.5 -6q-199 0 -252 23
q-118 51 -118 225q0 137 75 434l44 175q56 220 206 357q161 147 379 147q179 0 285 -97q109 -100 109 -278zM890 693q0 180 -152 180q-136 0 -216 -138q-51 -87 -88 -259q-32 -149 -32 -234q0 -181 153 -181q136 0 215 137q50 87 87 259q33 153 33 236z" />
  </g>

</svg>
