<?xml version="1.0" standalone="no"?>
<!DOCTYPE svg PUBLIC "-//W3C//DTD SVG 1.1//EN" "http://www.w3.org/Graphics/SVG/1.1/DTD/svg11.dtd" >
<svg viewBox="0 -442 2048 2048">
  <g transform="matrix(1 0 0 -1 0 1606)">
   <path fill="currentColor"
d="M1629 682q0 -247 -166 -387q-81 -69 -190 -108t-267 -50v-150h-314v150q-154 11 -267 50q-227 80 -313 274q-43 96 -43 221q0 243 159 381q75 65 191.5 104.5t272.5 51.5v139h314v-139q161 -9 273 -47q227 -76 308 -267q42 -97 42 -223zM1302 688q0 138 -72.5 226
t-223.5 108v-690q173 31 234.5 117.5t61.5 238.5zM692 332v691q-155 -24 -225.5 -107.5t-70.5 -227.5q0 -181 88 -266q66 -64 208 -90z" />
  </g>

</svg>
