<?xml version="1.0" standalone="no"?>
<!DOCTYPE svg PUBLIC "-//W3C//DTD SVG 1.1//EN" "http://www.w3.org/Graphics/SVG/1.1/DTD/svg11.dtd" >
<svg viewBox="0 -442 2048 2048">
  <g transform="matrix(1 0 0 -1 0 1606)">
   <path fill="currentColor"
d="M1082 420q0 -216 -146 -337q-137 -112 -357 -112q-218 0 -354 99q-153 112 -153 322q0 306 316 404q-241 77 -241 257q0 133 125.5 221.5t355.5 88.5q148 0 388 -127v-233h-26q-220 163 -361 163q-180 0 -180 -76q0 -66 164 -144q228 -108 305 -173q164 -139 164 -353z
M775 408q0 205 -160 294q-111 -18 -173.5 -99.5t-62.5 -196.5q0 -102 48 -162q53 -66 153 -66q195 0 195 230z" />
  </g>

</svg>
