<?xml version="1.0" standalone="no"?>
<!DOCTYPE svg PUBLIC "-//W3C//DTD SVG 1.1//EN" "http://www.w3.org/Graphics/SVG/1.1/DTD/svg11.dtd" >
<svg viewBox="0 -442 2048 2048">
  <g transform="matrix(1 0 0 -1 0 1606)">
   <path fill="currentColor"
d="M985 -50q0 -191 -158 -288q-131 -81 -334 -81q-37 0 -84 6v222q85 -15 135 -15q180 0 180 98q0 89 -135 97q-241 14 -350 67q-168 82 -168 288q0 131 79 231t206 131v9q-93 21 -156 97.5t-63 171.5q0 183 138 287q124 95 313 95q160 0 342 -53v-220h-32q-135 66 -267 66
q-80 0 -130 -37q-56 -42 -56 -120q0 -92 83 -148q72 -49 169 -49h177v-213h-263q-89 0 -158 -56q-74 -59 -74 -146q0 -95 71 -136q51 -29 209.5 -45.5t222.5 -52.5q103 -59 103 -206z" />
  </g>

</svg>
