<?xml version="1.0" standalone="no"?>
<!DOCTYPE svg PUBLIC "-//W3C//DTD SVG 1.1//EN" "http://www.w3.org/Graphics/SVG/1.1/DTD/svg11.dtd" >
<svg viewBox="0 -442 2048 2048">
  <g transform="matrix(1 0 0 -1 0 1606)">
   <path fill="currentColor"
d="M1178 567h-177q-11 -230 -126 -397q-134 -195 -350 -195q-307 0 -381 284q-7 24 -21 28q-11 3 -57 -3l-52 207q75 11 114 11q190 0 258 -209q39 -119 140 -119q102 0 147 154q29 99 30 239q-49 -1 -92 -1q-284 0 -381 75q-129 100 -129 275q0 177 138.5 314t315.5 137
q204 0 322 -196q88 -145 119 -381h182v-223zM710 790q-10 375 -185 375q-79 0 -133 -85q-48 -75 -48 -159q0 -131 189 -131h177z" />
  </g>

</svg>
