<?xml version="1.0" standalone="no"?>
<!DOCTYPE svg PUBLIC "-//W3C//DTD SVG 1.1//EN" "http://www.w3.org/Graphics/SVG/1.1/DTD/svg11.dtd" >
<svg viewBox="0 -442 2048 2048">
  <g transform="matrix(1 0 0 -1 0 1606)">
   <path fill="currentColor"
d="M1470 412q0 -141 -59 -252q-67 -125 -191 -166q-64 -21 -152 -21q-183 0 -291 132h-10q-108 -132 -291 -132q-193 0 -300 125q-101 118 -101 314q0 271 215 511h317v-19q-232 -199 -232 -486q0 -239 144 -239q43 0 82 29q43 31 43 72v329h256v-329q0 -42 43 -73
q39 -28 83 -28q144 0 144 239q0 285 -232 486v19h317q215 -230 215 -511z" />
  </g>

</svg>
