<?xml version="1.0" standalone="no"?>
<!DOCTYPE svg PUBLIC "-//W3C//DTD SVG 1.1//EN" "http://www.w3.org/Graphics/SVG/1.1/DTD/svg11.dtd" >
<svg viewBox="0 -442 2048 2048">
  <g transform="matrix(1 0 0 -1 0 1606)">
   <path fill="currentColor"
d="M1193 870q-78 -207 -254 -334v-34v-117q0 -170 138 -170q34 0 107 7v-211q-98 -33 -180 -33q-303 0 -315 393q-55 -36 -132 -92q-46 -188 -322 -306l-170 77q68 212 245 341q4 37 4 74q0 156 -35 206q-30 43 -113 43q-19 0 -92 -13v223q119 26 178 26q302 0 309 -391
q67 43 142 76q58 222 332 319z" />
  </g>

</svg>
