<?xml version="1.0" standalone="no"?>
<!DOCTYPE svg PUBLIC "-//W3C//DTD SVG 1.1//EN" "http://www.w3.org/Graphics/SVG/1.1/DTD/svg11.dtd" >
<svg viewBox="0 -442 2048 2048">
  <g transform="matrix(1 0 0 -1 0 1606)">
   <path fill="currentColor"
d="M1467 480q0 -231 -166 -363q-147 -118 -387 -133v-426h-294v429q-230 17 -377 127q-171 128 -171 345q0 201 118 340q124 146 322 146q46 0 96 -11l-52 -201q-11 2 -27 2q-79 0 -119 -84q-31 -64 -31 -153q0 -271 241 -312v458q0 131 89.5 216t220.5 85q234 0 378 -113
q159 -125 159 -352zM1162 487q0 101 -51 176q-57 85 -154 85q-43 0 -43 -95v-471q248 30 248 305z" />
  </g>

</svg>
