<?xml version="1.0" standalone="no"?>
<!DOCTYPE svg PUBLIC "-//W3C//DTD SVG 1.1//EN" "http://www.w3.org/Graphics/SVG/1.1/DTD/svg11.dtd" >
<svg viewBox="0 -442 2048 2048">
  <g transform="matrix(1 0 0 -1 0 1606)">
   <path fill="currentColor"
d="M1505 847q0 -259 -125 -476q-132 -226 -360 -330q-152 -69 -351 -69q-262 0 -411 132q-157 139 -157 397q0 368 232 616q237 254 603 254q258 0 409 -131q160 -139 160 -393zM1171 819q0 147 -65 233q-72 97 -215 97q-148 0 -264 -111q-101 -96 -153 -249
q-40 -118 -40 -261q0 -334 281 -334q150 0 267 115q102 100 152 255q37 114 37 255zM1031 800l-58 -256h-397l58 256h397z" />
  </g>

</svg>
