<?xml version="1.0" standalone="no"?>
<!DOCTYPE svg PUBLIC "-//W3C//DTD SVG 1.1//EN" "http://www.w3.org/Graphics/SVG/1.1/DTD/svg11.dtd" >
<svg viewBox="0 -442 2048 2048">
  <g transform="matrix(1 0 0 -1 0 1606)">
   <path fill="currentColor"
d="M1190 1422l-49 -211q-705 -469 -793 -833q-7 -29 -7 -52q0 -98 144 -115q134 -13 269 -26q144 -37 144 -183q0 -28 -8 -63q-43 -188 -218 -285q-150 -84 -359 -84q-35 0 -82 6l51 222q83 -15 131 -15q206 0 206 122q0 73 -131 73q-467 0 -467 247q0 36 10 81
q85 377 591 791q-116 25 -249 105l110 220h36q95 -111 251 -111q94 0 199 29q115 32 183 82h38z" />
  </g>

</svg>
