<?xml version="1.0" standalone="no"?>
<!DOCTYPE svg PUBLIC "-//W3C//DTD SVG 1.1//EN" "http://www.w3.org/Graphics/SVG/1.1/DTD/svg11.dtd" >
<svg viewBox="0 -442 2048 2048">
  <g transform="matrix(1 0 0 -1 0 1606)">
   <path fill="currentColor"
d="M1650 923q-591 -518 -855 -869q-42 -56 -101 -167q-63 -122 -96 -170q-108 -159 -225 -159q-111 0 -111 93q0 94 130 256q141 177 158 256q9 41 9 106q0 142 -42 278q-58 190 -166 190q-38 0 -134 -43l-5 217q111 34 189 34q380 0 404 -549q231 265 546 527h299z" />
  </g>

</svg>
