<?xml version="1.0" standalone="no"?>
<!DOCTYPE svg PUBLIC "-//W3C//DTD SVG 1.1//EN" "http://www.w3.org/Graphics/SVG/1.1/DTD/svg11.dtd" >
<svg viewBox="0 -442 2048 2048">
  <g transform="matrix(1 0 0 -1 0 1606)">
   <path fill="currentColor"
d="M1693 784q-2 -290 -204 -458q-99 -82 -236 -129.5t-324 -58.5l-35 -151h-312l35 152q-134 12 -226 46q-187 67 -255 218q-34 76 -33 169q0 144 53 259q106 233 390 329q141 47 320 58l32 140h313l-33 -141q250 -23 383 -132.5t132 -300.5zM1364 760q0 119 -64 188
q-51 54 -165 78l-162 -696q200 24 295 137t96 293zM822 1026q-201 -24 -295 -138.5t-95 -291.5q-1 -102 49 -171.5t180 -93.5z" />
  </g>

</svg>
