<?xml version="1.0" standalone="no"?>
<!DOCTYPE svg PUBLIC "-//W3C//DTD SVG 1.1//EN" "http://www.w3.org/Graphics/SVG/1.1/DTD/svg11.dtd" >
<svg viewBox="0 -442 2048 2048">
  <g transform="matrix(1 0 0 -1 0 1606)">
   <path fill="currentColor"
d="M1378 775q-142 -31 -227 -155q-79 -116 -79 -267q0 -175 151 -222l-134 -192q-139 54 -197 183q-169 -151 -426 -151q-184 0 -290 80q-120 90 -120 267q0 65 18 143q53 231 217 361t401 130q261 0 359 -155q118 122 283 171zM840 580q0 165 -196 165q-198 0 -264 -286
q-17 -74 -17 -128q0 -153 150 -153q138 0 213 75q65 66 98 208q16 69 16 119z" />
  </g>

</svg>
