<?xml version="1.0" standalone="no"?>
<!DOCTYPE svg PUBLIC "-//W3C//DTD SVG 1.1//EN" "http://www.w3.org/Graphics/SVG/1.1/DTD/svg11.dtd" >
<svg viewBox="-68 -442 2048 2048">
  <g transform="matrix(1 0 0 -1 0 1606)">
   <path fill="currentColor"
d="M1217 498q0 -235 -202 -391q-187 -145 -428 -145q-141 0 -251 66l-108 -468h-296l320 1386q44 192 217 309q163 111 367 111q147 0 251 -61q126 -74 126 -210q0 -178 -178 -313q182 -70 182 -284zM913 480q0 133 -145 133q-79 0 -180 -32v197q115 -1 197 56
q87 61 112 170q4 17 4 35q0 52 -32 88t-83 36q-188 0 -236 -208l-170 -733q87 -51 231 -51q133 0 217.5 87.5t84.5 221.5z" />
  </g>

</svg>
