<?xml version="1.0" standalone="no"?>
<!DOCTYPE svg PUBLIC "-//W3C//DTD SVG 1.1//EN" "http://www.w3.org/Graphics/SVG/1.1/DTD/svg11.dtd" >
<svg viewBox="-4 -442 2048 2048">
  <g transform="matrix(1 0 0 -1 0 1606)">
   <path fill="currentColor"
d="M1147 1236l-53 -233h-26q-181 163 -324 163q-199 0 -199 -93q0 -56 128 -125q184 -98 238 -145q128 -111 128 -270q0 -52 -14 -113q-49 -213 -220 -334q-163 -115 -387 -115q-176 0 -287 67q-135 82 -135 247q0 186 123 326q114 131 299 185q-188 65 -188 210q0 22 6 47
q48 199 301 277q107 33 252 33q148 0 358 -127zM727 503q0 132 -104 199q-132 -21 -222.5 -129.5t-90.5 -242.5q0 -152 157 -152q123 0 196 104q64 92 64 221z" />
  </g>

</svg>
