<?xml version="1.0" standalone="no"?>
<!DOCTYPE svg PUBLIC "-//W3C//DTD SVG 1.1//EN" "http://www.w3.org/Graphics/SVG/1.1/DTD/svg11.dtd" >
<svg viewBox="0 -442 2048 2048">
  <g transform="matrix(1 0 0 -1 0 1606)">
   <path fill="currentColor"
d="M1629 555q0 -162 -112 -297q-97 -118 -258 -193q-155 -71 -360 -91l-95 -414h-298l96 416q-205 23 -336 102q-172 103 -172 282q0 44 12 97q50 220 277 349q183 105 441 133l28 124h298l-28 -124q205 -23 335 -101q172 -103 172 -283zM1317 515q0 169 -244 214l-125 -543
q151 25 249 99q120 91 120 230zM775 729q-151 -26 -250 -101q-120 -91 -120 -230q0 -167 245 -212z" />
  </g>

</svg>
