<?xml version="1.0" standalone="no"?>
<!DOCTYPE svg PUBLIC "-//W3C//DTD SVG 1.1//EN" "http://www.w3.org/Graphics/SVG/1.1/DTD/svg11.dtd" >
<svg viewBox="0 -442 2048 2048">
  <g transform="matrix(1 0 0 -1 0 1606)">
   <path fill="currentColor"
d="M1058 877l-57 -247h-38q-95 111 -241 111q-141 0 -225 -106q-78 -98 -78 -243q0 -129 119 -172q110 -26 221 -51q119 -37 119 -149q0 -31 -9 -70q-43 -187 -218 -285q-151 -84 -359 -84q-36 0 -82 6l51 222q83 -15 131 -15q206 0 206 123q0 66 -116 72q-69 4 -96 7
q-53 6 -94 21q-192 69 -192 302q0 68 17 139q55 230 231 362q172 128 412 128q165 0 298 -71z" />
  </g>

</svg>
