<?xml version="1.0" standalone="no"?>
<!DOCTYPE svg PUBLIC "-//W3C//DTD SVG 1.1//EN" "http://www.w3.org/Graphics/SVG/1.1/DTD/svg11.dtd" >
<svg viewBox="0 -442 2048 2048">
  <g transform="matrix(1 0 0 -1 0 1606)">
   <path fill="currentColor"
d="M1101 605q0 -65 -18 -144q-53 -231 -217.5 -360.5t-401.5 -129.5q-183 0 -290 80q-120 89 -120 267q0 64 18 143q53 230 217.5 360.5t400.5 130.5q184 0 291 -79q120 -90 120 -268zM793 586q0 159 -151 159q-44 0 -78 -11q-94 -30 -153 -168q-49 -116 -49 -231
q0 -157 153 -157q195 0 260 281q18 78 18 127z" />
  </g>

</svg>
