<?xml version="1.0" standalone="no"?>
<!DOCTYPE svg PUBLIC "-//W3C//DTD SVG 1.1//EN" "http://www.w3.org/Graphics/SVG/1.1/DTD/svg11.dtd" >
<svg viewBox="0 -442 2048 2048">
  <g transform="matrix(1 0 0 -1 0 1606)">
   <path fill="currentColor"
d="M1124 1313l-51 -220h-32q-119 66 -251 66q-92 0 -157 -51q-71 -56 -71 -146q0 -77 71 -120q59 -37 141 -37h177l-49 -213h-263q-106 0 -193 -72q-92 -76 -92 -179q0 -80 87 -104q43 -12 183 -15q121 -3 162 -28q89 -54 89 -170q0 -29 -8 -64q-42 -181 -222 -288
q-160 -95 -359 -95q-35 0 -82 6l52 225q78 -14 132 -14q205 0 205 124q0 84 -90 84q-205 0 -303 32q-170 56 -170 216q0 159 113 291q109 129 267 165l2 9q-74 17 -119 75t-45 135q0 28 7 59q41 180 200 285q148 97 340 97q159 0 329 -53z" />
  </g>

</svg>
