<?xml version="1.0" standalone="no"?>
<!DOCTYPE svg PUBLIC "-//W3C//DTD SVG 1.1//EN" "http://www.w3.org/Graphics/SVG/1.1/DTD/svg11.dtd" >
<svg viewBox="0 -442 2048 2048">
  <g transform="matrix(1 0 0 -1 0 1606)">
   <path fill="currentColor"
d="M1380 923l-47 -201h-279q38 -96 38 -180q0 -40 -9 -81q-51 -230 -216 -360t-402 -130q-184 0 -291 80q-120 90 -120 267q0 66 18 143q54 231 217.5 361t401.5 130q54 0 102 -8q9 -2 51 -13q31 -8 50 -8h486zM793 587q0 158 -150 158q-199 0 -265 -286q-17 -74 -17 -124
q0 -157 154 -157q196 0 261 281q17 74 17 128z" />
  </g>

</svg>
