<?xml version="1.0" standalone="no"?>
<!DOCTYPE svg PUBLIC "-//W3C//DTD SVG 1.1//EN" "http://www.w3.org/Graphics/SVG/1.1/DTD/svg11.dtd" >
<svg viewBox="-109 -442 2048 2048">
  <g transform="matrix(1 0 0 -1 0 1606)">
   <path fill="currentColor"
d="M1329 924l-558 -670l157 -458q8 -23 39 -23q12 0 34 3l4 -207q-79 -11 -146 -11q-111 0 -176 73q-50 55 -83 169q-24 95 -49 190l-359 -430h-301l573 687q-35 109 -107 325q-15 54 -58 151q-7 11 -22 11q-10 0 -44 -7l-4 207q78 11 126 11q65 0 125 -24q73 -30 91 -82
l113 -329l344 414h301z" />
  </g>

</svg>
