<?xml version="1.0" standalone="no"?>
<!DOCTYPE svg PUBLIC "-//W3C//DTD SVG 1.1//EN" "http://www.w3.org/Graphics/SVG/1.1/DTD/svg11.dtd" >
<svg viewBox="0 -442 2048 2048">
  <g transform="matrix(1 0 0 -1 0 1606)">
   <path fill="currentColor"
d="M1535 600q0 -55 -15 -120q-52 -228 -246 -360q-176 -121 -422 -136l-98 -426h-294l99 429q-187 14 -307 95q-145 98 -145 271q0 49 13 106q45 200 195 339q159 147 357 147q47 0 94 -11l-99 -201q-11 2 -26 2q-100 0 -165 -128q-54 -106 -54 -217q0 -172 183 -204
l106 458q30 129 138 215t241 86q188 0 306 -77q139 -90 139 -268zM1225 565q0 183 -153 183q-43 0 -65 -95l-109 -471q256 30 318 305q9 40 9 78z" />
  </g>

</svg>
