<?xml version="1.0" standalone="no"?>
<!DOCTYPE svg PUBLIC "-//W3C//DTD SVG 1.1//EN" "http://www.w3.org/Graphics/SVG/1.1/DTD/svg11.dtd" >
<svg viewBox="-28 -442 2048 2048">
  <g transform="matrix(1 0 0 -1 0 1606)">
   <path fill="currentColor"
d="M1205 790l-51 -223h-177q-64 -230 -218 -398q-179 -194 -395 -194q-249 0 -302 184q-9 31 -13 93q-2 36 -27 36q-15 0 -45 -4l-5 207q75 11 117 11q103 0 153 -55q43 -48 57 -154q15 -119 112 -119q101 0 181 151q53 101 87 242q-49 -1 -92 -1q-203 0 -292 35
q-148 57 -148 227q0 200 186 371q181 168 383 168q314 0 314 -445q0 -61 -7 -132h182zM759 977q0 188 -120 188q-85 0 -165 -100q-77 -96 -77 -183q0 -92 163 -92h177q22 107 22 187z" />
  </g>

</svg>
