<?xml version="1.0" standalone="no"?>
<!DOCTYPE svg PUBLIC "-//W3C//DTD SVG 1.1//EN" "http://www.w3.org/Graphics/SVG/1.1/DTD/svg11.dtd" >
<svg viewBox="0 -442 2048 2048">
  <g transform="matrix(1 0 0 -1 0 1606)">
   <path fill="currentColor"
d="M1559 923l-49 -201q-12 -2 -48 -6q17 -67 17 -138q0 -181 -85 -337q-93 -170 -251 -236q-78 -32 -188 -32q-183 0 -260 132h-10q-138 -132 -322 -132q-149 0 -231 77q-85 79 -85 226q0 62 17 136q54 232 235 421h313l-4 -19q-40 -29 -79 -76q-178 -214 -178 -430
q0 -129 103 -129q44 0 91.5 30.5t56.5 70.5l71 309h256l-71 -309q-2 -9 -2 -16q0 -37 35 -62q32 -23 70 -23q107 0 168 143q47 110 47 235q0 89 -28 169q-212 29 -378 106q-235 110 -235 273q0 89 73 139q63 43 157 43q207 0 353 -100q124 -84 245 -273q95 1 196 9z
M1084 923q-168 206 -295 206q-55 0 -55 -51q0 -33 60 -68q117 -67 290 -87z" />
  </g>

</svg>
