<?xml version="1.0" standalone="no"?>
<!DOCTYPE svg PUBLIC "-//W3C//DTD SVG 1.1//EN" "http://www.w3.org/Graphics/SVG/1.1/DTD/svg11.dtd" >
<svg viewBox="0 -442 2048 2048">
  <g transform="matrix(1 0 0 -1 0 1606)">
   <path fill="currentColor"
d="M1216 605q0 -66 -18 -144q-51 -223 -207 -355q-160 -134 -386 -134q-112 0 -220 65q-15 -59 -15 -106q0 -172 211 -172q89 0 209 33q29 11 76 24h36l-49 -211q-171 -39 -360 -39q-424 0 -424 319q0 68 20 154l98 422q54 231 217.5 361t400.5 130q184 0 291 -80
q120 -90 120 -267zM907 587q0 158 -150 158q-210 0 -275 -286l-52 -228q88 -51 223 -51q173 0 237 279q17 74 17 128z" />
  </g>

</svg>
