<?xml version="1.0" standalone="no"?>
<!DOCTYPE svg PUBLIC "-//W3C//DTD SVG 1.1//EN" "http://www.w3.org/Graphics/SVG/1.1/DTD/svg11.dtd" >
<svg viewBox="0 -442 2048 2048">
  <g transform="matrix(1 0 0 -1 0 1606)">
   <path fill="currentColor"
d="M1479 578q0 -181 -85 -337q-93 -170 -251 -236q-78 -32 -188 -32q-183 0 -260 132h-10q-138 -132 -322 -132q-149 0 -231 77q-85 79 -85 226q0 62 17 136q67 292 362 538l181 -129q-109 -102 -179 -232q-77 -146 -77 -281q0 -129 103 -129q44 0 91.5 30.5t56.5 70.5
l76 329h256l-76 -329q-2 -9 -2 -16q0 -37 35 -62q32 -23 70 -23q107 0 168 143q47 111 47 235q0 147 -72 264l241 129q134 -181 134 -372z" />
  </g>

</svg>
