<?xml version="1.0" standalone="no"?>
<!DOCTYPE svg PUBLIC "-//W3C//DTD SVG 1.1//EN" "http://www.w3.org/Graphics/SVG/1.1/DTD/svg11.dtd" >
<svg viewBox="0 -442 2048 2048">
  <g transform="matrix(1 0 0 -1 0 1606)">
   <path fill="currentColor"
d="M1158 419q0 -204 -154 -334q-146 -122 -354 -122q-176 0 -291 94q-122 101 -122 274q0 60 41.5 102t101.5 42t101.5 -42t41.5 -102q0 -68 -49 -109q-45 -38 -114 -40q76 -144 225 -144q188 0 188 350q0 403 -124 403q-81 0 -143 -41q-36 -23 -81 -75q-35 -41 -50 -41
q-58 0 -58 32v683q0 30 31 30q3 0 8 -2q208 -66 320 -66q158 0 363 66q6 2 9 2q27 0 27 -41v-12q0 -34 -102 -112q-82 -63 -138 -92q-150 -77 -299 -77q-58 0 -150 17v-328q136 128 312 128q189 0 323 -126q137 -129 137 -317zM931 1268q-135 -32 -255 -32q-118 0 -284 51
v-151q88 -16 144 -16q79 0 194 42q120 44 201 106zM1083 419q0 131 -84 231q-81 97 -209 127q58 -105 58 -389q0 -232 -76 -336q138 33 222 129q89 101 89 238zM448 331q0 69 -68 69t-68 -69q0 -39 8 -75q128 3 128 75z" />
  </g>

</svg>
