<?xml version="1.0" standalone="no"?>
<!DOCTYPE svg PUBLIC "-//W3C//DTD SVG 1.1//EN" "http://www.w3.org/Graphics/SVG/1.1/DTD/svg11.dtd" >
<svg viewBox="0 -442 2048 2048">
  <g transform="matrix(1 0 0 -1 0 1606)">
   <path fill="currentColor"
d="M1138 970q0 -111 -130 -256q-86 -95 -273 -245q-199 -160 -241 -203h367q115 0 153 48q28 35 44 158h75l-62 -472h-834v74q0 5 10 17l342 407q211 251 211 472q0 146 -29 220q-46 114 -169 114q-85 0 -176 -88q65 -3 108 -49.5t43 -111.5q0 -66 -47 -112.5t-113 -46.5
t-113 46.5t-47 112.5q0 147 128 240q116 84 268 84q213 0 341 -96q144 -107 144 -313zM1063 970q0 259 -263 319q75 -99 75 -319q0 -200 -144 -410q53 45 98 85q234 206 234 325zM502 1055q0 83 -79 86l-71 3q-20 -42 -20 -89q0 -35 24.5 -59.5t60.5 -24.5t60.5 24.5
t24.5 59.5zM1025 226q-58 -35 -164 -35h-432l-98 -116h674z" />
  </g>

</svg>
