<?xml version="1.0" standalone="no"?>
<!DOCTYPE svg PUBLIC "-//W3C//DTD SVG 1.1//EN" "http://www.w3.org/Graphics/SVG/1.1/DTD/svg11.dtd" >
<svg viewBox="0 -442 2048 2048">
  <g transform="matrix(1 0 0 -1 0 1606)">
   <path fill="currentColor"
d="M954 400q0 -193 -119.5 -308t-312.5 -115q-185 0 -303 88q-131 98 -131 277q0 210 221 339q-165 109 -165 310q0 170 104 272t274 102q159 0 261 -75q115 -84 115 -237q0 -170 -175 -277q231 -145 231 -376zM733 1053q0 98 -58 160.5t-156 62.5q-87 0 -143 -35
q-67 -42 -67 -124q0 -74 75 -122l246 -159q103 89 103 217zM766 284q0 102 -99 166l-262 169q-129 -101 -129 -277q0 -116 64 -190q67 -77 182 -77q103 0 170 52q74 57 74 157z" />
  </g>

</svg>
