<?xml version="1.0" standalone="no"?>
<!DOCTYPE svg PUBLIC "-//W3C//DTD SVG 1.1//EN" "http://www.w3.org/Graphics/SVG/1.1/DTD/svg11.dtd" >
<svg viewBox="0 -442 2048 2048">
  <g transform="matrix(1 0 0 -1 0 1606)">
   <path fill="currentColor"
d="M954 380q0 -192 -143 -303q-131 -100 -329 -100q-154 0 -267 82q-127 92 -127 240q0 69 48 115.5t118 46.5q68 0 115 -47t47 -115q0 -131 -127 -162q81 -62 193 -62q96 0 128 120q16 63 16 198q0 292 -148 292h-102q-27 0 -27 57q0 22 47 28l64 4q143 17 143 304
q0 198 -121 198q-101 0 -169 -68q56 -8 93 -50t37 -99q0 -62 -43 -105t-105 -43q-64 0 -107.5 42t-43.5 106q0 132 104 221q100 85 234 85q164 0 276 -62q140 -76 140 -227q0 -118 -79 -214q-73 -87 -189 -134q142 -31 228 -116q96 -94 96 -232z" />
  </g>

</svg>
