<?xml version="1.0" standalone="no"?>
<!DOCTYPE svg PUBLIC "-//W3C//DTD SVG 1.1//EN" "http://www.w3.org/Graphics/SVG/1.1/DTD/svg11.dtd" >
<svg viewBox="0 -442 2048 2048">
  <g transform="matrix(1 0 0 -1 0 1606)">
   <path fill="currentColor"
d="M1208 425q0 -225 -145 -347q-136 -115 -365 -115q-295 0 -418 221q-93 169 -93 490q0 288 131 482q150 223 425 223q155 0 269 -59q143 -74 143 -215q0 -57 -39 -96.5t-96 -39.5t-97 39.5t-40 96.5q0 53 33.5 91.5t86.5 46.5q-87 61 -229 61q-128 0 -183 -203
q-36 -132 -36 -313q70 93 177 93q224 0 348 -115q128 -118 128 -341zM1080 1105q0 38 -19 71q-53 -8 -68 -15q-35 -16 -35 -56q0 -61 62 -61q60 0 60 61zM1133 425q0 308 -267 368q56 -86 64 -250q2 -36 2 -105q0 -271 -65 -379q266 75 266 366zM857 438q0 365 -149 365
q-153 0 -153 -279v-146q0 -340 143 -340q107 0 142 157q17 79 17 243zM589 1279q-160 -57 -247 -229q-80 -159 -80 -376q0 -251 55 -393q67 -171 225 -221q-62 108 -62 318v410q0 338 109 491z" />
  </g>

</svg>
