<?xml version="1.0" standalone="no"?>
<!DOCTYPE svg PUBLIC "-//W3C//DTD SVG 1.1//EN" "http://www.w3.org/Graphics/SVG/1.1/DTD/svg11.dtd" >
<svg viewBox="0 -442 2048 2048">
  <g transform="matrix(1 0 0 -1 0 1606)">
   <path fill="currentColor"
d="M954 430q0 -205 -113 -327q-116 -126 -319 -126q-434 0 -434 697q0 285 129 474q148 217 420 217q119 0 192 -74.5t73 -193.5q0 -56 -39 -95t-95 -39q-58 0 -96.5 38t-38.5 96q0 52 33.5 89.5t84.5 43.5q-40 46 -114 46q-162 0 -221 -178q-35 -107 -36 -313q58 91 165 91
q196 0 305 -127q104 -120 104 -319zM662 356v179q0 133 -10 167q-24 90 -120 90q-150 0 -150 -340q0 -377 140 -377q99 0 129 88q11 32 11 193z" />
  </g>

</svg>
