<?xml version="1.0" standalone="no"?>
<!DOCTYPE svg PUBLIC "-//W3C//DTD SVG 1.1//EN" "http://www.w3.org/Graphics/SVG/1.1/DTD/svg11.dtd" >
<svg viewBox="0 -442 2048 2048">
  <g transform="matrix(1 0 0 -1 0 1606)">
   <path fill="currentColor"
d="M954 674q0 -281 -117 -470q-139 -227 -403 -227q-128 0 -209 70q-85 74 -85 200q0 57 39.5 96t96.5 39q56 0 94.5 -39.5t38.5 -95.5q0 -112 -107 -132q45 -40 132 -40q147 0 199 185q28 101 29 304q-59 -94 -166 -94q-195 0 -304 128q-104 120 -104 318q0 206 119 327.5
t325 121.5q422 0 422 -691zM662 925q0 351 -130 351q-152 0 -152 -325v-150q0 -126 11 -162q25 -86 119 -86q102 0 135 146q17 73 17 226z" />
  </g>

</svg>
