<?xml version="1.0" standalone="no"?>
<!DOCTYPE svg PUBLIC "-//W3C//DTD SVG 1.1//EN" "http://www.w3.org/Graphics/SVG/1.1/DTD/svg11.dtd" >
<svg viewBox="0 -442 2048 2048">
  <g transform="matrix(1 0 0 -1 0 1606)">
   <path fill="currentColor"
d="M1167 374q0 -199 -135 -309q-125 -102 -329 -102q-175 0 -311 75q-164 92 -164 253q0 70 49 118.5t119 48.5q69 0 116.5 -49t47.5 -118q0 -67 -47 -114.5t-114 -51.5q99 -87 228 -87q154 0 154 341q0 310 -158 310h-94q-37 0 -37 37q0 38 112 38q86 0 127 126
q29 87 29 197q0 217 -133 217q-103 0 -190 -83q62 -4 106 -48.5t44 -106.5q0 -63 -43 -106.5t-106 -43.5q-64 0 -108.5 43.5t-44.5 106.5q0 156 137 241q117 72 282 72q159 0 271 -66q135 -80 135 -228q0 -250 -332 -356q389 -88 389 -355zM1035 1085q0 88 -73 145
q-67 54 -179 69q52 -78 52 -212q0 -172 -59 -284q259 102 259 282zM512 1066q0 31 -23 54.5t-56 25.5l-56 3q-17 -38 -17 -83q0 -31 22.5 -53t55.5 -22q74 0 74 75zM1092 374q0 179 -282 270q46 -95 46 -265q0 -234 -72 -336q143 19 225.5 103.5t82.5 227.5zM485 291
q0 39 -26 65.5t-63 26.5q-39 0 -66 -27t-27 -65q0 -51 26 -95l66 4q38 2 64 28.5t26 62.5z" />
  </g>

</svg>
