<?xml version="1.0" standalone="no"?>
<!DOCTYPE svg PUBLIC "-//W3C//DTD SVG 1.1//EN" "http://www.w3.org/Graphics/SVG/1.1/DTD/svg11.dtd" >
<svg viewBox="0 -442 2048 2048">
  <g transform="matrix(1 0 0 -1 0 1606)">
   <path fill="currentColor"
d="M1188 1282q0 -14 -132 -189q-151 -200 -161 -215q-166 -257 -166 -775q0 -58 -39.5 -99t-97.5 -41t-98 41t-40 99q0 254 159 529q102 176 334 449h-346q-253 0 -268 -14q-33 -30 -50 -192h-75l73 537h77q5 -45 169 -61q81 -8 210 -8h451v-61zM1093 1268h-356
q-303 0 -393 51l-24 -180q37 12 137 15q73 2 144 2h411q47 61 81 112zM719 661q-190 -296 -190 -558q0 -65 63 -65q62 0 62 65q0 330 65 558z" />
  </g>

</svg>
