<?xml version="1.0" standalone="no"?>
<!DOCTYPE svg PUBLIC "-//W3C//DTD SVG 1.1//EN" "http://www.w3.org/Graphics/SVG/1.1/DTD/svg11.dtd" >
<svg viewBox="0 -442 2048 2048">
  <g transform="matrix(1 0 0 -1 0 1606)">
   <path fill="currentColor"
d="M937 420q0 -207 -142 -328q-135 -115 -345 -115q-146 0 -245.5 105t-99.5 252q0 61 41.5 102t102.5 41t102.5 -41.5t41.5 -101.5t-39.5 -103.5t-99.5 -43.5q70 -112 196 -112q121 0 161 124q22 69 22 223q0 348 -119 348q-79 0 -141 -37q-39 -24 -79 -69q-33 -37 -40 -37
h-37q-11 0 -22.5 11.5t-11.5 22.5v672q0 27 34 32q225 -66 302 -66q99 0 224 40q24 9 73 25q5 1 11 1q29 0 29 -55q0 -34 -76 -109q-169 -166 -383 -166q-50 0 -95 8v-255q88 66 212 66q192 0 307.5 -120.5t115.5 -313.5z" />
  </g>

</svg>
