<?xml version="1.0" standalone="no"?>
<!DOCTYPE svg PUBLIC "-//W3C//DTD SVG 1.1//EN" "http://www.w3.org/Graphics/SVG/1.1/DTD/svg11.dtd" >
<svg viewBox="0 -442 2048 2048">
  <g transform="matrix(1 0 0 -1 0 1606)">
   <path fill="currentColor"
d="M1005 395q0 -138 -75 -243.5t-206 -149.5q-90 -30 -198 -30q-206 0 -390 83v178h3q180 -118 383 -118q149 0 230 77q84 81 84 216q0 141 -89 203q-74 50 -227 50h-74v136h56q130 0 211 51q96 61 96 184q0 102 -82 153q-68 43 -187 43q-185 0 -366 -118v178q171 83 371 83
q97 0 171 -18q164 -40 229 -160q32 -61 32 -142q0 -110 -77 -192.5t-188 -104.5v-26q49 -8 104 -31q112 -46 162 -152q27 -58 27 -150z" />
  </g>

</svg>
