<?xml version="1.0" standalone="no"?>
<!DOCTYPE svg PUBLIC "-//W3C//DTD SVG 1.1//EN" "http://www.w3.org/Graphics/SVG/1.1/DTD/svg11.dtd" >
<svg viewBox="0 -442 2048 2048">
  <g transform="matrix(1 0 0 -1 0 1606)">
   <path fill="currentColor"
d="M1034 371q0 -185 -145 -298q-134 -104 -324 -104q-198 0 -327 99q-143 108 -143 299q0 233 248 346v15q-111 59 -161.5 126.5t-50.5 169.5q0 165 139 263q123 87 295 87q174 0 294 -80q139 -92 139 -258q0 -90 -55.5 -177t-167.5 -138v-16q129 -56 194 -134.5t65 -199.5z
M836 1034q0 107 -85 167q-76 54 -187 54q-109 0 -182 -50q-85 -57 -85 -160q0 -130 152 -206q110 -55 222 -88q165 111 165 283zM863 354q0 95 -48 151q-39 46 -135 92q-16 7 -231 87q-187 -103 -187 -303q0 -129 87 -210t217 -81q131 0 211 66q86 70 86 198z" />
  </g>

</svg>
