<?xml version="1.0" standalone="no"?>
<!DOCTYPE svg PUBLIC "-//W3C//DTD SVG 1.1//EN" "http://www.w3.org/Graphics/SVG/1.1/DTD/svg11.dtd" >
<svg viewBox="0 -442 2048 2048">
  <g transform="matrix(1 0 0 -1 0 1606)">
   <path fill="currentColor"
d="M1023 753q0 -177 -40 -321q-81 -292 -323 -402q-122 -56 -287 -56q-95 0 -155 19v161q75 -39 182 -39q202 0 317.5 123t134.5 353q-96 -58 -169 -79.5t-159 -21.5q-168 0 -281 79q-156 109 -156 340q0 199 129.5 330t328.5 131q198 0 320 -120q158 -155 158 -497z
M855 792q0 261 -110 366q-83 79 -202 79q-141 0 -217 -92q-71 -85 -71 -229q0 -166 110 -243q69 -49 201 -49q72 0 145 19.5t141 58.5q1 23 2 42t1 48z" />
  </g>

</svg>
