<?xml version="1.0" standalone="no"?>
<!DOCTYPE svg PUBLIC "-//W3C//DTD SVG 1.1//EN" "http://www.w3.org/Graphics/SVG/1.1/DTD/svg11.dtd" >
<svg viewBox="0 -442 2048 2048">
  <g transform="matrix(1 0 0 -1 0 1606)">
   <path fill="currentColor"
d="M1255 395q0 -207 -181 -327q-157 -105 -375 -105q-210 0 -365 81q-195 102 -195 292q0 200 301 344q-231 134 -231 317q0 182 160 289q139 93 330 93q181 0 317 -68q171 -87 171 -250q0 -161 -244 -284q312 -162 312 -382zM1112 1061q0 123 -141 189q60 -81 60 -189
q0 -98 -57 -179q138 90 138 179zM956 1061q0 109 -74.5 176t-184.5 67q-95 0 -168 -41q-88 -50 -88 -138q0 -74 90 -123l300 -162q125 92 125 221zM1180 395q0 162 -241 299q-73 42 -444 242q-129 70 -129 189q0 39 11 73q-93 -82 -93 -201q0 -121 170 -236q80 -54 245 -140
q106 -55 213 -110q158 -86 158 -234q0 -83 -42 -150q152 100 152 268zM995 277q0 104 -119 168l-320 173q-156 -103 -156 -282q0 -129 85 -213.5t214 -84.5q114 0 200 61q96 69 96 178zM413 90q-88 102 -88 246q0 137 83 242q-194 -113 -194 -242q0 -164 199 -246z" />
  </g>

</svg>
