<?xml version="1.0" standalone="no"?>
<!DOCTYPE svg PUBLIC "-//W3C//DTD SVG 1.1//EN" "http://www.w3.org/Graphics/SVG/1.1/DTD/svg11.dtd" >
<svg viewBox="0 -442 2048 2048">
  <g transform="matrix(1 0 0 -1 0 1606)">
   <path fill="currentColor"
d="M1140 401q0 -200 -146 -312q-152 -117 -417 -117q-273 0 -466 81v276h16q194 -118 386 -118q155 0 226 49q80 56 80 164q0 66 -30 103q-54 65 -190 68q-62 1 -115 1h-59v214h61q89 0 140 6q108 13 149 73q23 33 23 95q0 47 -25 77q-46 56 -145 68q-49 5 -84 5
q-186 0 -380 -116h-14v271q209 82 444 82q240 0 372 -81q139 -84 139 -247q0 -109 -66 -194.5t-187 -112.5v-39q58 -8 108 -27q105 -40 156 -139q24 -48 24 -130z" />
  </g>

</svg>
