<?xml version="1.0" standalone="no"?>
<!DOCTYPE svg PUBLIC "-//W3C//DTD SVG 1.1//EN" "http://www.w3.org/Graphics/SVG/1.1/DTD/svg11.dtd" >
<svg viewBox="0 -442 2048 2048">
  <g transform="matrix(1 0 0 -1 0 1606)">
   <path fill="currentColor"
d="M1208 668q0 -288 -131 -482q-150 -223 -425 -223q-155 0 -269 59q-143 74 -143 215q0 57 39 97t95 40q57 0 97.5 -40t40.5 -97q0 -53 -34 -90.5t-86 -45.5q90 -63 229 -63q127 0 182 203q36 132 36 313q-68 -91 -177 -91q-224 0 -348 114q-127 117 -127 340
q0 225 145 347q135 115 364 115q296 0 418 -221q94 -169 94 -490zM1133 668q0 251 -56 393q-67 171 -225 221q61 -106 61 -317v-411q0 -340 -108 -491q160 56 247 228q81 159 81 377zM839 819v146q0 339 -143 339q-111 0 -144 -171q-14 -74 -14 -260q0 -334 147 -334
q154 0 154 280zM527 552q-64 101 -64 321q0 303 64 410q-265 -75 -265 -366q0 -306 265 -365zM437 237q0 62 -63 62q-59 0 -59 -62q0 -37 17 -69q55 8 69 14q36 15 36 55z" />
  </g>

</svg>
