<?xml version="1.0" standalone="no"?>
<!DOCTYPE svg PUBLIC "-//W3C//DTD SVG 1.1//EN" "http://www.w3.org/Graphics/SVG/1.1/DTD/svg11.dtd" >
<svg viewBox="0 -442 2048 2048">
  <g transform="matrix(1 0 0 -1 0 1606)">
   <path fill="currentColor"
d="M1044 433q0 -199 -129.5 -330t-328.5 -131q-195 0 -318 121q-159 156 -159 496q0 357 159 563q166 216 491 216q93 0 154 -19v-161q-73 39 -181 39q-198 0 -315.5 -125t-137.5 -351q88 54 160.5 77.5t167.5 23.5q169 0 281 -79q156 -110 156 -340zM876 426
q0 165 -109 243q-69 49 -202 49q-144 0 -285 -78q-2 -24 -3 -43t-1 -47q0 -258 112 -365q84 -80 200 -80q143 0 218 91q70 84 70 230z" />
  </g>

</svg>
