<?xml version="1.0" standalone="no"?>
<!DOCTYPE svg PUBLIC "-//W3C//DTD SVG 1.1//EN" "http://www.w3.org/Graphics/SVG/1.1/DTD/svg11.dtd" >
<svg viewBox="0 -442 2048 2048">
  <g transform="matrix(1 0 0 -1 0 1606)">
   <path fill="currentColor"
d="M1036 670q0 -153 -44 -293q-51 -162 -151 -271q-120 -130 -271 -130q-154 0 -277 135q-103 115 -151 280q-38 131 -38 282q0 156 43 293q51 162 152 271q120 130 271 130q154 0 276 -136q103 -114 151 -279q39 -134 39 -282zM884 695q0 124 -30 233q-32 118 -98 201
q-82 104 -186 104q-105 0 -187 -105q-66 -83 -98 -201q-30 -109 -30 -232q0 -119 25 -229q30 -132 94 -229q85 -127 196 -127t195 127q64 97 94 229q25 110 25 229z" />
  </g>

</svg>
