<?xml version="1.0" standalone="no"?>
<!DOCTYPE svg PUBLIC "-//W3C//DTD SVG 1.1//EN" "http://www.w3.org/Graphics/SVG/1.1/DTD/svg11.dtd" >
<svg viewBox="0 -442 2048 2048">
  <g transform="matrix(1 0 0 -1 0 1606)">
   <path fill="currentColor"
d="M1033 148q0 -10 -1 -29t-1 -29q0 -60 -25 -77q-19 -13 -64 -13h-744q-91 0 -91 68q0 30 34 59l486 409q252 212 252 402q0 138 -109 220q-98 75 -241 75q-86 0 -156 -44q-74 -47 -100 -126q30 -26 30 -70q0 -40 -28 -69t-68 -29q-44 0 -72 30t-28 75q0 162 138 269
q128 98 295 98q201 0 341 -112q150 -120 150 -317q0 -219 -240 -439q-146 -121 -435 -365h523q-1 54 10 74q15 30 67 30q77 0 77 -90z" />
  </g>

</svg>
