<?xml version="1.0" standalone="no"?>
<!DOCTYPE svg PUBLIC "-//W3C//DTD SVG 1.1//EN" "http://www.w3.org/Graphics/SVG/1.1/DTD/svg11.dtd" >
<svg viewBox="0 -442 2048 2048">
  <g transform="matrix(1 0 0 -1 0 1606)">
   <path fill="currentColor"
d="M1050 383q0 -180 -151 -298q-140 -109 -325 -109q-179 0 -315 72q-169 88 -169 251q0 45 27.5 74t72.5 29q40 0 68.5 -28t28.5 -68q0 -44 -27 -68q72 -128 314 -128q125 0 220 73q103 79 103 200q0 124 -105 203q-96 71 -225 71h-100q-88 0 -88 69q0 40 26 54q15 9 61 13
q9 1 71 5q136 9 205 66q92 76 92 191q0 87 -91 137q-75 41 -169 41q-171 0 -243 -68q19 -24 19 -60q0 -40 -28 -69.5t-68 -29.5q-43 0 -71 30t-28 74q0 138 148 206q112 51 269 51q155 0 275 -76q138 -87 138 -234q0 -205 -184 -323q110 -50 177 -140q72 -96 72 -211z" />
  </g>

</svg>
