<?xml version="1.0" standalone="no"?>
<!DOCTYPE svg PUBLIC "-//W3C//DTD SVG 1.1//EN" "http://www.w3.org/Graphics/SVG/1.1/DTD/svg11.dtd" >
<svg viewBox="0 -442 2048 2048">
  <g transform="matrix(1 0 0 -1 0 1606)">
   <path fill="currentColor"
d="M1178 369q0 -205 -183 -312q-151 -88 -371 -88q-277 0 -421 115q-129 102 -129 272q0 98 56.5 173.5t207.5 138.5v26q-123 58 -175.5 138t-52.5 186q0 180 178 277q144 79 340 79q199 0 336 -66q180 -87 180 -265q0 -93 -57 -165.5t-185 -128.5v-27q146 -57 211 -145
t65 -208zM836 1003q0 83 -64 129q-57 40 -144 40q-77 0 -136 -34q-68 -40 -68 -113q0 -61 35 -96q32 -33 103 -64q25 -11 69.5 -27.5t116.5 -39.5q50 59 69 101t19 104zM864 353q0 73 -35 110t-140 83q-37 17 -88 35q-56 20 -104 38q-47 -44 -80 -98t-33 -122
q0 -107 77 -169q71 -56 181 -56q84 0 143 38q79 52 79 141z" />
  </g>

</svg>
