<?xml version="1.0" standalone="no"?>
<!DOCTYPE svg PUBLIC "-//W3C//DTD SVG 1.1//EN" "http://www.w3.org/Graphics/SVG/1.1/DTD/svg11.dtd" >
<svg viewBox="0 -442 2048 2048">
  <g transform="matrix(1 0 0 -1 0 1606)">
   <path fill="currentColor"
d="M1030 424q0 -188 -133.5 -318t-322.5 -130q-249 0 -370 229q-94 178 -94 452q0 203 83 371q90 184 257 274q120 65 250 65q119 0 199 -52q93 -61 93 -174q0 -45 -27 -74.5t-72 -29.5q-41 0 -69 28.5t-28 69.5t22 63q-42 35 -120 35q-179 0 -303 -160q-109 -141 -128 -330
q139 127 328 127q184 0 309.5 -130.5t125.5 -315.5zM878 424q0 128 -82 218q-85 92 -212 92q-114 0 -203 -64q-97 -72 -97 -182q0 -11 4 -44q3 -27 1 -44q71 -290 285 -290q129 0 216.5 92t87.5 222z" />
  </g>

</svg>
