<?xml version="1.0" standalone="no"?>
<!DOCTYPE svg PUBLIC "-//W3C//DTD SVG 1.1//EN" "http://www.w3.org/Graphics/SVG/1.1/DTD/svg11.dtd" >
<svg viewBox="0 -442 2048 2048">
  <g transform="matrix(1 0 0 -1 0 1606)">
   <path fill="currentColor"
d="M1050 383q0 -179 -154 -298q-142 -109 -326 -109q-183 0 -326 110q-154 119 -154 297q0 122 95 219q86 87 211 122q-113 37 -186 104q-89 82 -89 187q0 158 150 261q133 91 299 91t299 -91q149 -103 149 -261q0 -200 -274 -291q125 -36 210 -123q96 -97 96 -218z
M867 1013q0 102 -101 165q-88 55 -196 55t-195 -55q-101 -63 -101 -165t101 -166q87 -55 195 -55q109 0 196 55q101 63 101 166zM897 385q0 122 -105 200q-96 72 -222 72q-125 0 -221 -72q-106 -79 -106 -200q0 -122 105 -202q96 -73 222 -73t222 73q105 80 105 202z" />
  </g>

</svg>
