<?xml version="1.0" standalone="no"?>
<!DOCTYPE svg PUBLIC "-//W3C//DTD SVG 1.1//EN" "http://www.w3.org/Graphics/SVG/1.1/DTD/svg11.dtd" >
<svg viewBox="0 -442 2048 2048">
  <g transform="matrix(1 0 0 -1 0 1606)">
   <path fill="currentColor"
d="M1032 418q0 -192 -153 -320q-145 -122 -340 -122q-161 0 -288 86q-143 96 -143 250q0 45 27.5 75.5t72.5 30.5q41 0 68.5 -29t27.5 -70q0 -45 -28 -70q71 -139 263 -139q136 0 236 85q105 90 105 223q0 123 -77 211q-81 92 -202 92q-169 0 -277 -110q-32 -33 -66 -33
q-70 0 -70 90v585q0 53 17.5 71.5t70.5 18.5h591q87 0 87 -68q0 -66 -87 -66h-528v-417q118 63 264 63q180 0 304.5 -128t124.5 -309z" />
  </g>

</svg>
