<?xml version="1.0" standalone="no"?>
<!DOCTYPE svg PUBLIC "-//W3C//DTD SVG 1.1//EN" "http://www.w3.org/Graphics/SVG/1.1/DTD/svg11.dtd" >
<svg viewBox="0 -442 2048 2048">
  <g transform="matrix(1 0 0 -1 0 1606)">
   <path fill="currentColor"
d="M1030 686q0 -199 -76 -366q-85 -186 -243 -278q-114 -66 -242 -66q-129 0 -214 48q-106 59 -106 178q0 104 98 104q41 0 69 -28.5t28 -69.5q0 -38 -20 -61q55 -37 145 -37q173 0 289 164q100 141 115 326q-139 -127 -328 -127q-184 0 -310 132q-125 129 -125 314
q0 191 138 321q136 127 328 127q245 0 363 -231q91 -179 91 -450zM858 855q0 11 -4.5 33t-4.5 33q0 3 1 10t1 10q0 35 -30 103q-27 62 -53 95q-75 94 -192 94q-131 0 -222 -91.5t-91 -222.5q0 -128 82 -218q84 -93 211 -93q113 0 203 66q99 72 99 181z" />
  </g>

</svg>
