<?xml version="1.0" standalone="no"?>
<!DOCTYPE svg PUBLIC "-//W3C//DTD SVG 1.1//EN" "http://www.w3.org/Graphics/SVG/1.1/DTD/svg11.dtd" >
<svg viewBox="0 -442 2048 2048">
  <g transform="matrix(1 0 0 -1 0 1606)">
   <path fill="currentColor"
d="M1146 749q0 -365 -171 -561q-186 -214 -555 -214q-66 0 -143 8q-61 7 -88 12v241h17q92 -42 217 -42q165 0 264 78q56 44 91.5 108.5t52.5 187.5q-105 -61 -170.5 -85t-162.5 -24q-157 0 -262 75q-157 112 -157 355q0 224 154 356q146 126 374 126q243 0 379 -132
q160 -156 160 -489zM832 800q0 216 -84 308q-55 60 -144 60q-136 0 -189 -143q-18 -50 -18 -120q0 -130 77 -190q62 -49 177 -49q43 0 92 11t86 27q0 20 1.5 39t1.5 57z" />
  </g>

</svg>
