<?xml version="1.0" standalone="no"?>
<!DOCTYPE svg PUBLIC "-//W3C//DTD SVG 1.1//EN" "http://www.w3.org/Graphics/SVG/1.1/DTD/svg11.dtd" >
<svg viewBox="0 -442 2048 2048">
  <g transform="matrix(1 0 0 -1 0 1606)">
   <path fill="currentColor"
d="M1578 -244q0 -148 -138 -148h-1252q-138 0 -138 148v1652q0 148 138 148h1252q138 0 138 -148v-1652zM1544 -244v1652q0 114 -104 114h-1252q-104 0 -104 -114v-1652q0 -114 104 -114h1252q104 0 104 114zM1338 207q-34 -35 -109 -60q-70 -24 -132 -24q-172 0 -213 97
q-20 46 -20 50v707q0 5 -12.5 41.5t-12.5 40.5v19q90 -29 120 -68l-39 -310v-118l6 -2q170 111 179 197h32q14 0 44 -26t40 -43l-305 -170v-254q0 -18 26 -38q20 -16 33 -19q55 -15 101 -15q92 0 137 43.5t84 168.5q2 -84 41 -217zM711 886l-17 -117v-609q0 -5 -12 -34
q-14 -33 -18 -45q-52 17 -52 86q0 5 9 67.5t9 67.5q0 15 -6 44l-241 -170q-20 2 -93 77q209 53 351 142v225q-6 6 -14 6l-177 -53q-27 -1 -68 39q63 25 196 62q22 3 53 5q10 14 10 31q0 48 -21 134l-32 128h36q11 0 42 -27q28 -22 33.5 -30.5t11.5 -28.5z" />
  </g>

</svg>
