<?xml version="1.0" standalone="no"?>
<!DOCTYPE svg PUBLIC "-//W3C//DTD SVG 1.1//EN" "http://www.w3.org/Graphics/SVG/1.1/DTD/svg11.dtd" >
<svg viewBox="0 -442 2048 2048">
  <g transform="matrix(1 0 0 -1 0 1606)">
   <path fill="currentColor"
d="M1578 -244q0 -148 -138 -148h-1252q-138 0 -138 148v1652q0 148 138 148h1252q138 0 138 -148v-1652zM1544 -244v1652q0 114 -104 114h-1252q-104 0 -104 -114v-1652q0 -114 104 -114h1252q104 0 104 114zM1260 840q-82 -84 -99 -105q-53 -65 -53 -113q0 -8 1.5 -16.5
t4.5 -29.5h-111l-150 -11q-24 -1 -40 8l-3 -317q-9 -75 -20 -148.5t-31 -122.5q-23 45 -23 70v119q0 4 3.5 39t3.5 40v278q0 18 -32 13q-40 0 -184 -12q-22 -39 -29 -62q-7 0 -15 11q-23 53 -31 116q-10 80 -18 108q-22 50 -65 150h11q3 0 49 -5t51 -5q53 0 131 14
q59 11 119 22q5 3 13 8q7 111 -52 285h78q27 0 46 -26q17 -22 17 -47q0 -6 -9 -48.5t-9 -46.5v-109q4 -3 21 -3l266 32q23 0 83 -34q56 -32 76 -52zM1079 799q0 45 -11 56t-59 8l-176 -15q-6 0 -18 11v-254h53q-7 0 51 9q160 25 160 185zM739 594v240l-247 -36
q17 -73 24 -143q0 -28 5 -86z" />
  </g>

</svg>
