<?xml version="1.0" standalone="no"?>
<!DOCTYPE svg PUBLIC "-//W3C//DTD SVG 1.1//EN" "http://www.w3.org/Graphics/SVG/1.1/DTD/svg11.dtd" >
<svg viewBox="0 -442 2048 2048">
  <g transform="matrix(1 0 0 -1 0 1606)">
   <path fill="currentColor"
d="M1578 -244q0 -148 -138 -148h-1252q-138 0 -138 148v1652q0 148 138 148h1252q138 0 138 -148v-1652zM1544 -244v1652q0 114 -104 114h-1252q-104 0 -104 -114v-1652q0 -114 104 -114h1252q104 0 104 114zM1288 652q0 -2 -19 -47t-23 -66q0 -3 -14 -198
q-10 -143 -37 -227q-33 -102 -83 -102q-5 0 -11 2q-68 95 -117 161q36 -9 78 -9h29q44 26 60 92q1 6 13 108q0 95 -2 98q2 40 4 81q2 52 -10 78q-24 52 -98 52q-70 0 -166 -24q7 -13 35 -34l-103 -126h146q-19 -22 -82 -32q-79 -13 -96 -20v-76q22 2 74 9q47 6 51 6
q54 0 91 -30q0 -5 -10 -17.5t-16 -12.5l-180 -4q-11 -19 -15 -47q-7 -45 -8 -47q-4 -29 -7 -59q-8 -39 -37 -55q-1 90 -14 185q-3 3 -8 9q-100 -28 -120 -28q-14 0 -36 13q-25 14 -26 29q64 10 195 38v79q-53 -14 -80 -14q-39 0 -73 20q65 7 182 34q9 3 46.5 58t37.5 63v45
q-8 5 -23 3l-370 -49v-421q0 -9 -29 -57q-49 15 -49 83q0 4 9 97t9 97q0 137 -33 205l-13 26v36h37q3 0 26 -14t29 -14q-26 0 245 36q50 48 49 142q-8 6 -36 6q-4 0 -30.5 -2t-31.5 -2q-43 0 -83 31q56 9 113 19q76 16 83 48q5 23 15 71q5 29 5 60q0 54 -17 107h54
q11 0 42 -23.5t34 -30.5l-60 -176q16 0 55 5q17 2 56 12q36 8 39 8q11 0 73 -18q-21 -35 -111 -53q-100 -20 -120 -36q-25 -20 -43 -69q-15 -41 -31 -83q22 -5 45 -6l377 60q22 -2 71 -24q63 -29 63 -59zM704 506q-11 -11 -24 -11q-19 0 -43 33q-21 29 -21 40v32h44
q25 0 38.5 -39.5t5.5 -54.5z" />
  </g>

</svg>
