<?xml version="1.0" standalone="no"?>
<!DOCTYPE svg PUBLIC "-//W3C//DTD SVG 1.1//EN" "http://www.w3.org/Graphics/SVG/1.1/DTD/svg11.dtd" >
<svg viewBox="0 -442 2048 2048">
  <g transform="matrix(1 0 0 -1 0 1606)">
   <path fill="currentColor"
d="M1578 -244q0 -148 -138 -148h-1252q-138 0 -138 148v1652q0 148 138 148h1252q138 0 138 -148v-1652zM1544 -244v1652q0 114 -104 114h-1252q-104 0 -104 -114v-1652q0 -114 104 -114h1252q104 0 104 114zM1408 599q-2 0 -89 -22q-60 -15 -93 -15q-43 0 -58 12
q-43 35 -213 218q-55 61 -109 123q-69 76 -113 109q18 12 33 12q45 0 71 -43q72 40 62 138h15q28 0 76 -15q6 -7 19 -22l-142 -124q36 -46 83 -93q37 19 80 69q46 55 54 97q61 -31 94 -54q-23 -38 -87 -74q-54 -31 -107 -62q142 -177 424 -254zM1115 521q0 -23 -99 -41
q-95 0 -95 81q0 12 2 38.5t2 39.5q0 35 -11 57q-52 -12 -75 -31q-18 -109 -26 -130q-30 -79 -107 -110q73 95 73 204q0 51 -18 95h37q3 0 16 -8.5t18 -8.5q4 0 51 21t51 21q8 0 74 -36q-16 -38 -33 -76.5t-13 -72.5q15 -14 24 -15l74 -10q55 -8 55 -18zM1125 70
q0 -1 -11 -42q-57 30 -189 141q-103 -95 -232 -95h-24q57 25 163 93q35 31 35 36q0 15 -53 54l-78 56q54 -13 161 -55q14 6 32 43q16 34 16 49q0 24 -30 24q-5 0 -50 -14t-49 -14q-9 0 -30 9q-26 11 -32 22l216 61q18 -6 46 -24q39 -25 39 -45q0 -5 -32 -57q-40 -65 -50 -84
l92 -66q60 -51 60 -92zM722 677l-88 -109q10 -6 35 -51q-54 -6 -161 -20q-11 -2 -22 -23q-4 -6 -23 -72q17 0 52 4t37 4q15 0 49 -15q40 -18 40 -35q0 -4 -9 -29q-10 -28 -12 -37q-10 -62 -48 -187q-26 -59 -75 -79q-33 36 -111 137q111 -24 101 -24q36 0 59 73
q17 55 17 102q0 51 -46 51q-38 0 -133 -70q-19 6 -19 26q0 3 28 54q31 57 41 85q6 15 6 98q59 -34 89 -34q26 0 53 24.5t27 48.5v52l-108 28q-134 -153 -285 -212l248 259q-43 42 -103 122h55q16 0 38 -28q17 -21 33 -42q48 44 94 196q-6 5 -16 5q-5 0 -44 -7t-43 -7
q-17 0 -64 23q185 66 188 66q8 0 95 -48l-187 -311q9 -9 17 -9q5 0 60.5 19.5t60.5 19.5q30 0 74 -48z" />
  </g>

</svg>
