<?xml version="1.0" standalone="no"?>
<!DOCTYPE svg PUBLIC "-//W3C//DTD SVG 1.1//EN" "http://www.w3.org/Graphics/SVG/1.1/DTD/svg11.dtd" >
<svg viewBox="0 -442 2048 2048">
  <g transform="matrix(1 0 0 -1 0 1606)">
   <path fill="currentColor"
d="M1578 -244q0 -148 -138 -148h-1252q-138 0 -138 148v1652q0 148 138 148h1252q138 0 138 -148v-1652zM1544 -244v1652q0 114 -104 114h-1252q-104 0 -104 -114v-1652q0 -114 104 -114h1252q104 0 104 114zM888 1250q0 -40 -33 -40q-26 0 -76 50t-60 80h72q25 0 61 -30
t36 -60zM1217 1090q0 -24 -64 -25l-178 7q-137 6 -302 -23q-174 -30 -184 -30q-41 0 -77 38l684 89q31 0 71 -14q50 -17 50 -42zM1089 763q0 -13 -12 -50q-12 -5 -14 -5q-11 0 -45 47q-46 64 -154 218q225 -97 225 -210zM743 908q0 -14 -22 -32q-15 -12 -31 -24
q-177 -143 -210 -143h-23q117 110 129 123q69 77 70 137q16 -4 45 -21q42 -23 42 -40zM1153 490q-11 -11 -28 -11t-52 3.5t-52 3.5q-71 0 -96 -20q-34 -36 -68 -71q4 9 21 68l-3 3q-18 3 -36 3t-96 -7q0 -27 -15 -84q-2 2 -17 42q-12 31 -25 31q-26 0 -78.5 -12.5
t-78.5 -12.5q-35 0 -68 34l226 25q-16 30 -46 89h51q-5 0 32 -15q-2 -19 15 -73q17 2 147 22q21 23 22 59q1 57 3 64q21 -12 43 -24q33 -20 33 -29q0 2 -32 -51q6 -6 21 -6q18 0 54 10.5t54 10.5q11 0 37.5 -13.5t31.5 -22.5v-16zM1167 93q-16 -34 -35 -163
q-13 -96 -76 -150q-23 31 -97 112q60 -10 69 -10q51 0 51 87v94q-17 24 -55 24q-135 0 -228 -27v-56q13 -12 23 -12q28 0 66 19q-11 8 -11 33q25 -3 59 -28q36 -28 36 -51q0 -33 -24 -33q-11 0 -33 24.5t-29 28.5l-208 -60q-14 -4 -29.5 10t-18.5 28q44 7 130 25q1 3 1 8
q0 41 0 40q-3 19 -27 19q-25 0 -148 -12l-13 -4v-92q0 -12 3 -37t3 -37q0 -9 -5 -26t-5 -26q0 -8 4 -12h-23q-12 0 -15 15q-3 61 -16 180q-2 14 -19 72q20 -3 59 -10l203 31l2 3v45q-6 6 -24 6q-50 0 -66 -15q-20 18 -47 99q-29 91 -46 116q120 6 206 19q16 2 85 20
q62 15 77 15q30 0 83 -51q-15 -26 -45 -83q-16 -42 -66 -120q-24 21 -44 21q-31 0 -71 -17v-44q8 -5 22 -3l254 28q20 2 88 -43zM934 318q0 13 -8 37h-122v-52q13 -7 22 -7q5 0 12 3t11 3q26 0 36 -26q-25 -17 -81 -31v-45h64q30 0 50 46q16 37 16 72zM761 194v48
q-45 3 -50 0q-7 6 -17 19q2 1 67 21q-2 53 -1 58q-10 -1 -39 -7q-24 -6 -38 -6q-7 0 -27 10l24 -158q52 5 81 15z" />
  </g>

</svg>
