<?xml version="1.0" standalone="no"?>
<!DOCTYPE svg PUBLIC "-//W3C//DTD SVG 1.1//EN" "http://www.w3.org/Graphics/SVG/1.1/DTD/svg11.dtd" >
<svg viewBox="0 -442 2048 2048">
  <g transform="matrix(1 0 0 -1 0 1606)">
   <path fill="currentColor"
d="M1578 -244q0 -148 -138 -148h-1252q-138 0 -138 148v1652q0 148 138 148h1252q138 0 138 -148v-1652zM1544 -244v1652q0 114 -104 114h-1252q-104 0 -104 -114v-1652q0 -114 104 -114h1252q104 0 104 114zM1206 1229q0 -3 -21 -34q-22 -35 -28 -51q-2 -16 -9 -49
q-19 -95 -39 -191q-27 -111 -92 -167q-13 10 -15 19q-23 91 -35 104.5t-74 13.5l-305 -28q-15 0 -43 7q-9 -14 -14 -38h-12q-13 0 -15 15q-10 92 -34 275q-5 32 -17 64q-31 74 -31 69q0 21 12 21q5 0 36.5 -7t36.5 -7l588 64q14 0 62.5 -30.5t48.5 -49.5zM1153 490
q-11 -11 -28 -11t-52 3.5t-52 3.5q-71 0 -96 -20q-34 -36 -68 -71q4 9 21 68l-3 3q-18 3 -36 3t-96 -7q0 -27 -15 -84q-2 2 -17 42q-12 31 -25 31q-26 0 -78.5 -12.5t-78.5 -12.5q-35 0 -68 34l226 25q-16 30 -46 89h51q-5 0 32 -15q-2 -19 15 -73q17 2 147 22q21 23 22 59
q1 57 3 64q21 -12 43 -24q33 -20 33 -29q0 2 -32 -51q6 -6 21 -6q18 0 54 10.5t54 10.5q11 0 37.5 -13.5t31.5 -22.5v-16zM1167 93q-16 -34 -35 -163q-13 -96 -76 -150q-23 31 -97 112q60 -10 69 -10q51 0 51 87v94q-17 24 -55 24q-135 0 -228 -27v-56q13 -12 23 -12
q28 0 66 19q-11 8 -11 33q25 -3 59 -28q36 -28 36 -51q0 -33 -24 -33q-11 0 -33 24.5t-29 28.5l-208 -60q-14 -4 -29.5 10t-18.5 28q44 7 130 25q1 3 1 8q0 41 0 40q-3 19 -27 19q-25 0 -148 -12l-13 -4v-92q0 -12 3 -37t3 -37q0 -9 -5 -26t-5 -26q0 -8 4 -12h-23
q-12 0 -15 15q-3 61 -16 180q-2 14 -19 72q20 -3 59 -10l203 31l2 3v45q-6 6 -24 6q-50 0 -66 -15q-20 18 -47 99q-29 91 -46 116q120 6 206 19q16 2 85 20q62 15 77 15q30 0 83 -51q-15 -26 -45 -83q-16 -42 -66 -120q-24 21 -44 21q-31 0 -71 -17v-44q8 -5 22 -3l254 28
q20 2 88 -43zM1089 1187q0 43 -22 56q-15 9 -59 9l-162 -15q19 -11 49 -34q-17 -86 -17 -104q0 -32 16 -39q11 -5 35 -5q4 0 28 3.5t28 3.5q38 0 55 -37q-8 -9 -13 -12q-51 -15 -88 -15q-113 0 -113 101q0 14 2 41.5t2 38.5q0 59 -50 59q-2 0 -35.5 -4t-50.5 -4
q5 -10 23 -28q12 -13 12 -31q0 -24 -28 -86q-24 -53 -36 -70q-29 -40 -62 -57l-24 -13q-8 0 -5 3q0 -6 4 12q91 104 91 213q0 4 -2 22t-2 23l4 5q-28 -1 -165 -14l35 -327h76l310 45q17 -1 42 -24q40 -37 43 -39q19 19 49 139.5t30 183.5zM934 318q0 13 -8 37h-122v-52
q13 -7 22 -7q5 0 12 3t11 3q26 0 36 -26q-25 -17 -81 -31v-45h64q30 0 50 46q16 37 16 72zM761 194v48q-45 3 -50 0q-7 6 -17 19q2 1 67 21q-2 53 -1 58q-10 -1 -39 -7q-24 -6 -38 -6q-7 0 -27 10l24 -158q52 5 81 15z" />
  </g>

</svg>
