<?xml version="1.0" standalone="no"?>
<!DOCTYPE svg PUBLIC "-//W3C//DTD SVG 1.1//EN" "http://www.w3.org/Graphics/SVG/1.1/DTD/svg11.dtd" >
<svg viewBox="0 -442 2048 2048">
  <g transform="matrix(1 0 0 -1 0 1606)">
   <path fill="currentColor"
d="M1578 -244q0 -148 -138 -148h-1252q-138 0 -138 148v1652q0 148 138 148h1252q138 0 138 -148v-1652zM1544 -244v1652q0 114 -104 114h-1252q-104 0 -104 -114v-1652q0 -114 104 -114h1252q104 0 104 114zM1376 206q-143 -37 -203 -37q-46 0 -57 5q-96 38 -332 278
q-5 -5 -5 -8v-210q0 -4 3.5 -48t3.5 -49q0 -68 -37 -138q-59 39 -59 91q0 3 12 56q13 60 16 85l-2 179q-99 -78 -198 -157q-156 -119 -212 -119h-54q118 81 237 162q135 98 198 197l-3 3q-4 2 -19 2q-48 0 -79 -12q-10 -4 -17 -30q-21 0 -24.5 6.5t-60.5 142.5
q-37 89 -80 138v34h54q1 0 30 -16q1 -1 22 -1q40 0 216 52v79q-15 -1 -67 -8q-48 -6 -52 -6q-30 0 -83 27l202 39v80q0 -1 -42 136q68 -17 126 -53q-24 -125 -24 -113q0 -13 14 -21l136 29q32 -2 73 -27q-53 -28 -203 -67q-15 -3 -27 -22v-62q2 -3 14 -3q4 0 103 19.5
t104 19.5q15 0 66 -24.5t55 -30.5t4 -19t-30 -59q-35 -53 -40 -64q-26 -66 -72 -171h-34q-11 29 -19 34q-4 1 -28 1q-14 0 -117 -17q0 1 -6 -5q222 -206 501 -262q24 -5 74 -14q12 -3 22 -22zM984 739q0 37 -12 46h-124q-14 0 -69 -19v-59q30 -9 46 -6q26 6 24 6
q63 0 71 -29q-31 -17 -141 -46v-58q9 -12 47 -12l122 11q36 138 36 166zM722 679v77h-27l-185 -36l64 -193l112 17q15 -4 35 -14v84q-2 6 -7 7q-55 -6 -65 -6q-33 0 -38 2q-15 4 -31 27z" />
  </g>

</svg>
