<?xml version="1.0" standalone="no"?>
<!DOCTYPE svg PUBLIC "-//W3C//DTD SVG 1.1//EN" "http://www.w3.org/Graphics/SVG/1.1/DTD/svg11.dtd" >
<svg viewBox="0 -442 2048 2048">
  <g transform="matrix(1 0 0 -1 0 1606)">
   <path fill="currentColor"
d="M1578 -244q0 -148 -138 -148h-1252q-138 0 -138 148v1652q0 148 138 148h1252q138 0 138 -148v-1652zM1544 -244v1652q0 114 -104 114h-1252q-104 0 -104 -114v-1652q0 -114 104 -114h1252q104 0 104 114zM1323 673q0 -4 -17 -29q-20 -29 -24 -39q-24 -48 -45 -155
q-10 -61 -35 -180q-9 -36 -32 -82q-9 -18 -38 -54q-36 -46 -51 -46q-19 0 -25 15q-13 45 -45 134q-21 49 -96 49q-23 0 -428 -35q-3 -1 -14 -24q-7 -21 -33 -58q-30 115 -39 189q-25 205 -96 313l130 -10q27 -2 181 28v147q0 9 -11 40q-13 35 -23 38q-1 1 -73 13
q-47 9 -77 41q8 0 125 13q83 10 152 24q326 66 314 66q85 0 85 -32q0 -17 -50 -37q-36 -15 -54 -18q-51 -7 -155 -28q30 -32 64 -86l-39 -129q2 -2 16 -2l274 39q22 0 88 -38q71 -41 71 -67zM813 725v229l-186 -29q60 -40 60 -58v-160h29q16 0 97 18zM1171 601q0 74 -20 90
q-17 12 -99 12h-185v-147q37 -22 51 -22q4 0 27.5 5t27.5 5q57 0 71 -44q-35 -27 -96 -27q-79 0 -112 26q-40 31 -40 112q0 38 7 74q-39 -10 -123 -18q-19 -121 -32 -156q-33 -91 -114 -126v12q14 27 46 103q36 84 36 99v51l-177 -29v-18q0 -4 6 -39q6 -38 7 -50
q12 -131 16 -217l480 49q43 0 70 -25q10 -10 48 -63h30q27 35 52 158q23 114 23 185z" />
  </g>

</svg>
