<?xml version="1.0" standalone="no"?>
<!DOCTYPE svg PUBLIC "-//W3C//DTD SVG 1.1//EN" "http://www.w3.org/Graphics/SVG/1.1/DTD/svg11.dtd" >
<svg viewBox="0 -442 2048 2048">
  <g transform="matrix(1 0 0 -1 0 1606)">
   <path fill="currentColor"
d="M1578 -244q0 -148 -138 -148h-1252q-138 0 -138 148v1652q0 148 138 148h1252q138 0 138 -148v-1652zM1544 -244v1652q0 114 -104 114h-1252q-104 0 -104 -114v-1652q0 -114 104 -114h1252q104 0 104 114zM1316 924q-102 8 -204 0q6 257 0 516q102 -8 204 0
q-6 -258 0 -516zM916 924q-102 8 -204 0q6 257 0 516q102 -8 204 0q-6 -258 0 -516zM1316 324q-102 8 -204 0q6 257 0 516q102 -8 204 0q-6 -258 0 -516zM516 924q-102 8 -204 0q6 257 0 516q102 -8 204 0q-6 -258 0 -516zM916 324q-102 8 -204 0q6 257 0 516q102 -8 204 0
q-6 -258 0 -516zM1316 -276q-102 8 -204 0q6 257 0 516q102 -8 204 0q-6 -258 0 -516zM516 324q-102 8 -204 0q6 257 0 516q102 -8 204 0q-6 -258 0 -516zM916 -276q-102 8 -204 0q6 257 0 516q102 -8 204 0q-6 -258 0 -516zM516 -276q-102 8 -204 0q6 257 0 516
q102 -8 204 0q-6 -258 0 -516zM1275 1397q-61 -3 -122 0q1 -52 3 -157h116q0 14 3 157zM1272 1162v40h-116v-40h116zM1275 967q-3 136 -3 157h-116q0 -11 -3 -157q61 3 122 0zM875 1397q-61 -3 -122 0q1 -52 3 -157h116q0 14 3 157zM872 1162v40h-116v-40h116zM1275 797
q-61 -3 -122 0q1 -52 3 -157h116q0 14 3 157zM875 967q-3 136 -3 157h-116q0 -11 -3 -157q61 3 122 0zM1272 562v40h-116v-40h116zM475 1397q-61 -3 -122 0q1 -52 3 -157h116q0 14 3 157zM1275 367q-3 136 -3 157h-116q0 -11 -3 -157q61 3 122 0zM472 1162v40h-116v-40h116z
M875 797q-61 -3 -122 0q1 -52 3 -157h116q0 14 3 157zM475 967q-3 136 -3 157h-116q0 -11 -3 -157q61 3 122 0zM872 562v40h-116v-40h116zM1275 197q-61 -3 -122 0q1 -52 3 -157h116q0 14 3 157zM875 367q-3 136 -3 157h-116q0 -11 -3 -157q61 3 122 0zM1272 -38v40h-116
v-40h116zM475 797q-61 -3 -122 0q1 -52 3 -157h116q0 14 3 157zM1275 -233q-3 136 -3 157h-116q0 -11 -3 -157q61 3 122 0zM472 562v40h-116v-40h116zM875 197q-61 -3 -122 0q1 -52 3 -157h116q0 14 3 157zM475 367q-3 136 -3 157h-116q0 -11 -3 -157q61 3 122 0zM872 -38
v40h-116v-40h116zM875 -233q-3 136 -3 157h-116q0 -11 -3 -157q61 3 122 0zM475 197q-61 -3 -122 0q1 -52 3 -157h116q0 14 3 157zM472 -38v40h-116v-40h116zM475 -233q-3 136 -3 157h-116q0 -11 -3 -157q61 3 122 0z" />
  </g>

</svg>
