<?xml version="1.0" standalone="no"?>
<!DOCTYPE svg PUBLIC "-//W3C//DTD SVG 1.1//EN" "http://www.w3.org/Graphics/SVG/1.1/DTD/svg11.dtd" >
<svg viewBox="0 -442 2048 2048">
  <g transform="matrix(1 0 0 -1 0 1606)">
   <path fill="currentColor"
d="M1578 -244q0 -148 -138 -148h-1252q-138 0 -138 148v1652q0 148 138 148h1252q138 0 138 -148v-1652zM1544 -244v1652q0 114 -104 114h-1252q-104 0 -104 -114v-1652q0 -114 104 -114h1252q104 0 104 114zM1499 945q0 -90 -63.5 -153.5t-153.5 -63.5t-153.5 63.5
t-63.5 153.5t63.5 153.5t153.5 63.5t153.5 -63.5t63.5 -153.5zM1031 1095q0 -90 -63.5 -153.5t-153.5 -63.5t-153.5 63.5t-63.5 153.5t63.5 153.5t153.5 63.5t153.5 -63.5t63.5 -153.5zM563 1245q0 -90 -63.5 -153.5t-153.5 -63.5t-153.5 63.5t-63.5 153.5t63.5 153.5
t153.5 63.5t153.5 -63.5t63.5 -153.5zM1331 445q0 -90 -63.5 -153.5t-153.5 -63.5t-153.5 63.5t-63.5 153.5t63.5 153.5t153.5 63.5t153.5 -63.5t63.5 -153.5zM1331 -55q0 -90 -63.5 -153.5t-153.5 -63.5t-153.5 63.5t-63.5 153.5t63.5 153.5t153.5 63.5t153.5 -63.5
t63.5 -153.5zM731 445q0 -90 -63.5 -153.5t-153.5 -63.5t-153.5 63.5t-63.5 153.5t63.5 153.5t153.5 63.5t153.5 -63.5t63.5 -153.5zM731 -55q0 -90 -63.5 -153.5t-153.5 -63.5t-153.5 63.5t-63.5 153.5t63.5 153.5t153.5 63.5t153.5 -63.5t63.5 -153.5zM1483 945
q0 83 -59 142t-142 59t-142 -59t-59 -142t59 -142t142 -59t142 59t59 142zM1015 1095q0 83 -59 142t-142 59t-142 -59t-59 -142t59 -142t142 -59t142 59t59 142zM547 1245q0 83 -59 142t-142 59t-142 -59t-59 -142t59 -142t142 -59t142 59t59 142zM1315 445q0 83 -59 142
t-142 59t-142 -59t-59 -142t59 -142t142 -59t142 59t59 142zM1315 -55q0 83 -59 142t-142 59t-142 -59t-59 -142t59 -142t142 -59t142 59t59 142zM715 445q0 83 -59 142t-142 59t-142 -59t-59 -142t59 -142t142 -59t142 59t59 142zM715 -55q0 83 -59 142t-142 59t-142 -59
t-59 -142t59 -142t142 -59t142 59t59 142zM1460 945q0 -74 -52 -126t-126 -52t-126 52t-52 126t52 126t126 52t126 -52t52 -126zM992 1095q0 -74 -52 -126t-126 -52t-126 52t-52 126t52 126t126 52t126 -52t52 -126zM524 1245q0 -74 -52 -126t-126 -52t-126 52t-52 126
t52 126t126 52t126 -52t52 -126zM1292 445q0 -74 -52 -126t-126 -52t-126 52t-52 126t52 126t126 52t126 -52t52 -126zM1292 -55q0 -74 -52 -126t-126 -52t-126 52t-52 126t52 126t126 52t126 -52t52 -126zM692 445q0 -74 -52 -126t-126 -52t-126 52t-52 126t52 126t126 52
t126 -52t52 -126zM692 -55q0 -74 -52 -126t-126 -52t-126 52t-52 126t52 126t126 52t126 -52t52 -126zM1444 945q0 67 -47.5 114.5t-114.5 47.5t-114.5 -47.5t-47.5 -114.5t47.5 -114.5t114.5 -47.5t114.5 47.5t47.5 114.5zM976 1095q0 67 -47.5 114.5t-114.5 47.5
t-114.5 -47.5t-47.5 -114.5t47.5 -114.5t114.5 -47.5t114.5 47.5t47.5 114.5zM508 1245q0 67 -47.5 114.5t-114.5 47.5t-114.5 -47.5t-47.5 -114.5t47.5 -114.5t114.5 -47.5t114.5 47.5t47.5 114.5zM1276 445q0 67 -47.5 114.5t-114.5 47.5t-114.5 -47.5t-47.5 -114.5
t47.5 -114.5t114.5 -47.5t114.5 47.5t47.5 114.5zM1276 -55q0 67 -47.5 114.5t-114.5 47.5t-114.5 -47.5t-47.5 -114.5t47.5 -114.5t114.5 -47.5t114.5 47.5t47.5 114.5zM676 445q0 67 -47.5 114.5t-114.5 47.5t-114.5 -47.5t-47.5 -114.5t47.5 -114.5t114.5 -47.5
t114.5 47.5t47.5 114.5zM676 -55q0 67 -47.5 114.5t-114.5 47.5t-114.5 -47.5t-47.5 -114.5t47.5 -114.5t114.5 -47.5t114.5 47.5t47.5 114.5zM1435 944q0 -43 -45 -43h-31q22 -38 22 -50q0 -45 -46 -45q-25 0 -53 50q-28 -49 -53 -49q-47 0 -47 42q0 13 23 52h-31
q-45 0 -45 45q0 43 45 43h31q-22 38 -22 50q0 45 46 45q25 0 53 -50q28 49 53 49q47 0 47 -42q0 -13 -23 -52h31q45 0 45 -45zM967 1094q0 -43 -45 -43h-31q22 -38 22 -50q0 -45 -46 -45q-25 0 -53 50q-28 -49 -53 -49q-47 0 -47 42q0 13 23 52h-31q-45 0 -45 45q0 43 45 43
h31q-22 38 -22 50q0 45 46 45q25 0 53 -50q28 49 53 49q47 0 47 -42q0 -13 -23 -52h31q45 0 45 -45zM499 1244q0 -43 -45 -43h-31q22 -38 22 -50q0 -45 -46 -45q-25 0 -53 50q-28 -49 -53 -49q-47 0 -47 42q0 13 23 52h-31q-45 0 -45 45q0 43 45 43h31q-22 38 -22 50
q0 45 46 45q25 0 53 -50q28 49 53 49q47 0 47 -42q0 -13 -23 -52h31q45 0 45 -45zM1267 444q0 -43 -45 -43h-31q22 -38 22 -50q0 -45 -46 -45q-25 0 -53 50q-28 -49 -53 -49q-47 0 -47 42q0 13 23 52h-31q-45 0 -45 45q0 43 45 43h31q-22 38 -22 50q0 45 46 45q25 0 53 -50
q28 49 53 49q47 0 47 -42q0 -13 -23 -52h31q45 0 45 -45zM1267 -56q0 -43 -45 -43h-31q22 -38 22 -50q0 -45 -46 -45q-25 0 -53 50q-28 -49 -53 -49q-47 0 -47 42q0 13 23 52h-31q-45 0 -45 45q0 43 45 43h31q-22 38 -22 50q0 45 46 45q25 0 53 -50q28 49 53 49q47 0 47 -42
q0 -13 -23 -52h31q45 0 45 -45zM667 444q0 -43 -45 -43h-31q22 -38 22 -50q0 -45 -46 -45q-25 0 -53 50q-28 -49 -53 -49q-47 0 -47 42q0 13 23 52h-31q-45 0 -45 45q0 43 45 43h31q-22 38 -22 50q0 45 46 45q25 0 53 -50q28 49 53 49q47 0 47 -42q0 -13 -23 -52h31
q45 0 45 -45zM667 -56q0 -43 -45 -43h-31q22 -38 22 -50q0 -45 -46 -45q-25 0 -53 50q-28 -49 -53 -49q-47 0 -47 42q0 13 23 52h-31q-45 0 -45 45q0 43 45 43h31q-22 38 -22 50q0 45 46 45q25 0 53 -50q28 49 53 49q47 0 47 -42q0 -13 -23 -52h31q45 0 45 -45zM1419 945
q0 29 -29 29h-58l29 50q5 9 5 17q0 27 -30 27q-16 0 -25 -15l-29 -50l-29 50q-9 16 -24 16q-30 0 -30 -30q0 -8 4 -15l29 -50h-58q-29 0 -29 -29t29 -29h58l-29 -50q-5 -9 -5 -17q0 -27 30 -27q16 0 25 15l29 50l29 -50q9 -16 24 -16q30 0 30 30q0 8 -4 15l-29 50h58
q29 0 29 29zM951 1095q0 29 -29 29h-58l29 50q5 9 5 17q0 27 -30 27q-16 0 -25 -15l-29 -50l-29 50q-9 16 -24 16q-30 0 -30 -30q0 -8 4 -15l29 -50h-58q-29 0 -29 -29t29 -29h58l-29 -50q-5 -9 -5 -17q0 -27 30 -27q16 0 25 15l29 50l29 -50q9 -16 24 -16q30 0 30 30
q0 8 -4 15l-29 50h58q29 0 29 29zM483 1245q0 29 -29 29h-58l29 50q5 9 5 17q0 27 -30 27q-16 0 -25 -15l-29 -50l-29 50q-9 16 -24 16q-30 0 -30 -30q0 -8 4 -15l29 -50h-58q-29 0 -29 -29t29 -29h58l-29 -50q-5 -9 -5 -17q0 -27 30 -27q16 0 25 15l29 50l29 -50
q9 -16 24 -16q30 0 30 30q0 8 -4 15l-29 50h58q29 0 29 29zM1251 445q0 29 -29 29h-58l29 50q5 9 5 17q0 27 -30 27q-16 0 -25 -15l-29 -50l-29 50q-9 16 -24 16q-30 0 -30 -30q0 -8 4 -15l29 -50h-58q-29 0 -29 -29t29 -29h58l-29 -50q-5 -9 -5 -17q0 -27 30 -27
q16 0 25 15l29 50l29 -50q9 -16 24 -16q30 0 30 30q0 8 -4 15l-29 50h58q29 0 29 29zM1251 -55q0 29 -29 29h-58l29 50q5 9 5 17q0 27 -30 27q-16 0 -25 -15l-29 -50l-29 50q-9 16 -24 16q-30 0 -30 -30q0 -8 4 -15l29 -50h-58q-29 0 -29 -29t29 -29h58l-29 -50
q-5 -9 -5 -17q0 -27 30 -27q16 0 25 15l29 50l29 -50q9 -16 24 -16q30 0 30 30q0 8 -4 15l-29 50h58q29 0 29 29zM651 445q0 29 -29 29h-58l29 50q5 9 5 17q0 27 -30 27q-16 0 -25 -15l-29 -50l-29 50q-9 16 -24 16q-30 0 -30 -30q0 -8 4 -15l29 -50h-58q-29 0 -29 -29
t29 -29h58l-29 -50q-5 -9 -5 -17q0 -27 30 -27q16 0 25 15l29 50l29 -50q9 -16 24 -16q30 0 30 30q0 8 -4 15l-29 50h58q29 0 29 29zM651 -55q0 29 -29 29h-58l29 50q5 9 5 17q0 27 -30 27q-16 0 -25 -15l-29 -50l-29 50q-9 16 -24 16q-30 0 -30 -30q0 -8 4 -15l29 -50h-58
q-29 0 -29 -29t29 -29h58l-29 -50q-5 -9 -5 -17q0 -27 30 -27q16 0 25 15l29 50l29 -50q9 -16 24 -16q30 0 30 30q0 8 -4 15l-29 50h58q29 0 29 29zM1329 945q0 -47 -47 -47t-47 47t47 47t47 -47zM861 1095q0 -47 -47 -47t-47 47t47 47t47 -47zM393 1245q0 -47 -47 -47
t-47 47t47 47t47 -47zM1161 445q0 -47 -47 -47t-47 47t47 47t47 -47zM1161 -55q0 -47 -47 -47t-47 47t47 47t47 -47zM561 445q0 -47 -47 -47t-47 47t47 47t47 -47zM561 -55q0 -47 -47 -47t-47 47t47 47t47 -47zM1313 945q0 31 -31 31t-31 -31t31 -31t31 31zM845 1095
q0 31 -31 31t-31 -31t31 -31t31 31zM377 1245q0 31 -31 31t-31 -31t31 -31t31 31zM1145 445q0 31 -31 31t-31 -31t31 -31t31 31zM1145 -55q0 31 -31 31t-31 -31t31 -31t31 31zM545 445q0 31 -31 31t-31 -31t31 -31t31 31zM545 -55q0 31 -31 31t-31 -31t31 -31t31 31z
M1298 945q0 -16 -16 -16t-16 16t16 16t16 -16zM830 1095q0 -16 -16 -16t-16 16t16 16t16 -16zM362 1245q0 -16 -16 -16t-16 16t16 16t16 -16zM1130 445q0 -16 -16 -16t-16 16t16 16t16 -16zM1130 -55q0 -16 -16 -16t-16 16t16 16t16 -16zM530 445q0 -16 -16 -16t-16 16
t16 16t16 -16zM530 -55q0 -16 -16 -16t-16 16t16 16t16 -16z" />
  </g>

</svg>
