<?xml version="1.0" standalone="no"?>
<!DOCTYPE svg PUBLIC "-//W3C//DTD SVG 1.1//EN" "http://www.w3.org/Graphics/SVG/1.1/DTD/svg11.dtd" >
<svg viewBox="0 -442 2048 2048">
  <g transform="matrix(1 0 0 -1 0 1606)">
   <path fill="currentColor"
d="M1578 -244q0 -148 -138 -148h-1252q-138 0 -138 148v1652q0 148 138 148h1252q138 0 138 -148v-1652zM1544 -244v1652q0 114 -104 114h-1252q-104 0 -104 -114v-1652q0 -114 104 -114h1252q104 0 104 114zM1370 577q0 -230 -163 -393t-393 -163t-393 163t-163 393
t163 393t393 163t393 -163t163 -393zM1330 577q0 214 -151 365t-365 151t-365 -151t-151 -365t151 -365t365 -151t365 151t151 365zM1270 577q0 -189 -133.5 -322.5t-322.5 -133.5t-322.5 133.5t-133.5 322.5t133.5 322.5t322.5 133.5t322.5 -133.5t133.5 -322.5zM1230 577
q0 172 -122 294t-294 122t-294 -122t-122 -294t122 -294t294 -122t294 122t122 294zM1206 574q0 -50 -32.5 -80.5t-83.5 -30.5h-79q56 -96 56 -128q0 -47 -35 -81t-83 -34q-49 0 -84 44q-9 11 -51 85q-42 -74 -52 -86q-34 -41 -85 -41q-47 0 -82.5 32t-35.5 78q0 32 58 131
h-79q-50 0 -83 33.5t-33 83.5t32.5 80.5t83.5 30.5h79q-56 96 -56 128q0 47 35 81t83 34q49 0 84 -44q9 -11 51 -85q42 74 52 86q34 41 85 41q47 0 82.5 -32t35.5 -78q0 -32 -58 -131h79q50 0 83 -33.5t33 -83.5zM1166 577q0 74 -76 74h-148l74 128q13 22 13 44
q0 28 -23.5 48.5t-52.5 20.5q-42 0 -65 -39l-74 -128l-74 128q-24 41 -61 41q-31 0 -54.5 -22t-23.5 -53q0 -21 11 -40l74 -128h-148q-76 0 -76 -74t76 -74h148l-74 -128q-13 -22 -13 -44q0 -28 23.5 -48.5t52.5 -20.5q42 0 65 39l74 128l74 -128q24 -41 61 -41
q31 0 54.5 22t23.5 53q0 21 -11 40l-74 128h148q76 0 76 74zM934 577q0 -50 -35 -85t-85 -35t-85 35t-35 85t35 85t85 35t85 -35t35 -85zM894 577q0 33 -23.5 56.5t-56.5 23.5t-56.5 -23.5t-23.5 -56.5t23.5 -56.5t56.5 -23.5t56.5 23.5t23.5 56.5zM854 577q0 -40 -40 -40
t-40 40t40 40t40 -40z" />
  </g>

</svg>
