<?xml version="1.0" standalone="no"?>
<!DOCTYPE svg PUBLIC "-//W3C//DTD SVG 1.1//EN" "http://www.w3.org/Graphics/SVG/1.1/DTD/svg11.dtd" >
<svg viewBox="0 -442 2048 2048">
  <g transform="matrix(1 0 0 -1 0 1606)">
   <path fill="currentColor"
d="M1578 -244q0 -148 -138 -148h-1252q-138 0 -138 148v1652q0 148 138 148h1252q138 0 138 -148v-1652zM1544 -244v1652q0 114 -104 114h-1252q-104 0 -104 -114v-1652q0 -114 104 -114h1252q104 0 104 114zM1530 1122q0 -70 -8 -106q-19 -87 -208 -362q32 -7 49 -14
q-5 -10 -49 -72q-39 -56 -39 -61q0 -9 4.5 -27t4.5 -27q0 -66 -35 -108q-24 -29 -91 -69l-3 -11q-27 -29 -130 -95q-93 -60 -110 -87q-13 -20 -17 -57q-4 -31 -7 -61q-11 18 -36 52q-19 -16 -54 -59q-9 16 -9 31q0 19 23 75q-15 11 -82 10q6 21 24.5 29t36.5 15
q-9 14 -41 22q-1 13 -7 19h-7q-66 0 -133 -59q14 32 37 77q-6 3 -12 3q-13 0 -38 -5t-39 -5q58 45 154.5 59.5t128.5 38.5q-154 9 -257 56q-81 37 -149 122q-56 78 -112 157q-43 56 -104 82q-14 6 -127 38q54 30 97 30q8 0 25 -1.5t25 -1.5q37 0 107 23t107 23
q59 0 127 -27.5t107 -68.5q77 15 232 47q79 16 83 18q45 14 68 46q18 25 63 129q108 250 207 313q22 14 63 14q57 0 94 -43.5t37 -101.5zM1453 1232q-12 12 -20 12t-17.5 -11.5t-9.5 -19.5v-12h19q17 0 28 31zM1506 1151q0 3 -2 7.5t-2 6.5h-3q-21 0 -21 -21q0 -11 10 -25
q18 21 18 32zM1406 1247h-16q-25 -15 -37 -29v-31h17q24 30 36 60zM1456 1201l-38 -22q-26 -17 -26 -30v-12h17q15 22 47 64zM1337 1163q-4 41 0 63q-45 -53 -45 -63v-22q28 7 45 22zM1374 1149q0 -2 -4 20h-12q-19 -10 -29 -36q-7 -22 -15 -45h16q44 29 44 61zM1488 1104
q-8 3 -27 22q-9 -13 -9 -27q0 -6 3 -17t3 -17q0 -1 -1 -7q-11 7 -20 26q-24 -40 -59 -110q8 -9 27 -22q23 34 23 39q0 6 -9 14t-9 14q0 11 12 15q9 -17 19 -22q5 8 47 92zM1497 1058q0 14 -7 18l-50 -101l-1 -8q14 -14 14 -24q0 -6 -3 -6q-5 9 -15 25q-22 -26 -22 -34
q0 -5 7.5 -16.5t7.5 -20.5l-2 -4l-25 25q-20 -20 -20 -28q0 -22 24 -36q80 109 80 130l-18 29l9 9q7 -7 15 -7q0 8 3 24.5t3 24.5zM1392 1110h-8q-16 -25 -50 -73q-49 -62 -49 -76q0 -9 5 -13h16q17 36 86 162zM1328 1068q-10 0 -16 -2q-9 9 -15 21q-1 -4 -10 -16.5
t-9 -17.5v-30q23 18 50 45zM1309 1122q-24 0 -35 7q3 6 3 22q-11 -11 -33.5 -51.5t-22.5 -53.5q0 -8 5 -12q23 7 45 39q19 28 35 29q1 7 3 20zM1399 940q-4 1 -31 15q0 -4 -12 -27q7 -6 20 -19q15 15 23 31zM1274 991q0 6 -12 28q-41 -50 -41 -55v-33q14 -1 33.5 22.5
t19.5 37.5zM1392 832q-9 13 -27 38q-26 -50 -26 -49q0 -19 19 -19q14 0 34 30zM1470 1176q-52 -45 -102 -151q-10 -18 -24 -46q-31 -58 -90 -174q-12 6 -13 14q-9 -2 -26 -8q-2 -1 -27 -33.5t-38 -32.5q-5 0 -24 21q-5 -10 -15 -19v-62q16 -8 26 -8q28 0 27 34q0 39 18 48
v-38q9 -5 28 -14v-20q-3 -1 -7 -2q-6 0 -17 6q4 -7 4 -14q0 -21 -19 -39h42q13 0 38 6t37 6q43 80 43 84q0 15 -20 32.5t-35 17.5q-7 0 -16 -12q25 -23 25 -27q0 -11 -5 -15q-8 14 -29 20.5t-27 13.5v11q26 20 52 20q38 0 68 -43q12 12 12 23q0 -1 -35 43q42 62 42 68
l-12 33q-23 -46 -75 -117l-5 9zM1238 1022q-19 -3 -14 -3q-10 0 -16 7q-32 -70 -32 -81q51 35 52 54zM1288 933q-9 0 -23 8q-44 -44 -44 -56v-51q25 13 41 43zM1181 919q-17 11 -31 11q-29 -53 -29 -76q0 -11 5 -16q55 36 55 81zM1214 895q0 11 -9 28l-59 -142q1 -6 4 -18
q17 10 40.5 60t23.5 72zM1131 819q-9 0 -23 8q-41 -74 -41 -84q0 -6 2 -12q25 11 62 88zM1167 669q-37 -6 -41 -6q-36 0 -38 53q-10 -1 -29 -7q-12 31 -12 33q0 9 5 19l-7 9q-4 -4 -6 -34q9 -26 34 -58q29 -40 48 -40q6 0 46 31zM1338 622l-19 5l-407 -164l-30 6l374 157
h-15q-40 0 -147 -30q-102 -28 -143 -49q-75 -38 -67 -38q-8 0 -6 9q39 39 97 60q54 19 107 37q-87 23 -86 23q-14 0 -39 -12.5t-39 -12.5q-11 0 -15 12q13 26 161 25q-40 51 -51 98l-327 -72q0 -105 -59 -145l-5 5q43 89 43 105q0 31 -9 46q-19 32 -95 60q-69 26 -114 26
q-31 0 -76 -14q-72 -22 -74 -23q9 -8 25 -25l-6 -6q-27 -7 -44 -7q-12 0 -21 3q53 -39 81 -73l74 -108q58 -82 84 -82q6 0 16 5.5t16 5.5q8 0 7 -16q-15 -12 -18 -22q38 -70 226 -108q138 -29 263 -29q99 0 171 35q93 46 93 134q0 8 -12 52q-71 -29 -212 -90
q-108 -49 -125 -56q-69 -25 -135 -25q-197 0 -197 109q0 16 15 16l14 -42q11 -29 27 -30q-7 10 -7 22q0 20 16 25q9 -8 9 -20q0 14 -3 -33q35 -14 60 -18q-21 40 -21 49q0 11 9 18q9 -22 26 -70q35 -7 58 -7q65 0 159 39q77 34 153 69q45 18 133 57q-5 -1 -285 -97
q-44 -18 -134 -44l-5 2q7 14 30 21q18 5 37 10q39 16 117 46l259 99l2 7l-256 -94q-103 -38 -128 -38q-8 0 -11 6q6 11 20 18q5 3 103 33q306 95 343 126q8 7 15 19zM1034 251h-11q-15 0 -45.5 3.5t-45.5 3.5q-11 0 -65.5 -42.5t-54.5 -50.5v-15q51 -17 61 -17q24 0 161 118
zM1128 273h-13q-28 -13 -82 -46q-41 -34 -81 -69q-56 -44 -90 -44q-9 0 -47 10q9 -20 31 -58q-5 -6 -27 -52q28 28 42 28q11 0 23 -19v22q0 30 6 41q12 22 115 93q107 75 123 94zM896 263h-15q-9 0 -54 -26.5t-68 -26.5q-6 0 -18 1.5t-18 1.5q-12 0 -69 -19q14 0 25 -5
q0 -10 -7 -21q38 10 44 10q48 0 44 -2q6 -11 29 -19q0 28 43 59q32 24 64 47zM235 727q-9 0 -26.5 3.5t-26.5 3.5q-10 0 -29 -6q26 -5 77 -19zM1253 714l-17 -15q0 4 3 8q-9 9 -40 26h35zM882 545q0 -27 -37 -68q10 18 19 35q12 21 12 38q0 9 -3 17q9 -8 9 -22zM825 579
q0 -43 -56 -105q15 28 30.5 55.5t15.5 62.5q0 13 -3 21q1 -1 2 -1q11 -12 11 -33zM761 579q0 -43 -56 -105l30 56t15 62q0 13 -3 21q14 -12 14 -34zM454 667q-18 -18 -37 -18q-24 0 -59 37q35 12 41 12q17 0 55 -15v-16z" />
  </g>

</svg>
