<?xml version="1.0" standalone="no"?>
<!DOCTYPE svg PUBLIC "-//W3C//DTD SVG 1.1//EN" "http://www.w3.org/Graphics/SVG/1.1/DTD/svg11.dtd" >
<svg viewBox="0 -442 2048 2048">
  <g transform="matrix(1 0 0 -1 0 1606)">
   <path fill="currentColor"
d="M1578 -244q0 -148 -138 -148h-1252q-138 0 -138 148v1652q0 148 138 148h1252q138 0 138 -148v-1652zM1544 -244v1652q0 114 -104 114h-1252q-104 0 -104 -114v-1652q0 -114 104 -114h1252q104 0 104 114zM1316 660q-102 8 -204 0v16l-16 -13q-142 214 -282 409
q-140 -195 -282 -409l-16 13v-16q-102 8 -204 0q8 341 0 682q51 -4 102 -4t102 4q-4 -177 -4 -358q124 175 244 355q27 -22 58 -45q31 23 58 45q120 -180 244 -355q0 187 -4 358q51 -4 102 -4t102 4q-8 -341 0 -682zM1316 -178q-51 4 -102 4t-102 -4q4 177 4 358
q-124 -175 -244 -355q-27 22 -58 45q-31 -23 -58 -45q-120 180 -244 355q0 -187 4 -358q-51 4 -102 4t-102 -4q8 341 0 682q102 -8 204 0v-16l16 13q142 -214 282 -409q140 195 282 409l16 -13v16q102 -8 204 0q-8 -341 0 -682zM1275 1299q-61 -3 -122 0q3 -124 3 -240h116
q0 116 3 240zM1272 981v40h-116v-40h116zM887 1244l-24 36l-14 -11q18 -12 38 -25zM1275 703q-3 126 -3 240h-116q0 -93 -3 -240q61 3 122 0zM998 1082q-52 75 -86 125l-74 -101l65 -91zM1043 1018l-23 33l-95 -67l23 -33zM1116 915q-12 17 -51 72l-95 -67q66 -95 135 -198
l8 6zM865 1210q-52 33 -100 70q-69 -102 -135 -198l95 -67q72 103 140 195zM703 984l-95 67l-23 -33l95 -67zM475 1299q-61 -3 -122 0q3 -124 3 -240h116q0 116 3 240zM1275 461q-61 -3 -122 0q3 -131 3 -240h116q0 114 3 240zM658 920l-95 67l-51 -72q0 -39 3 -187l8 -6
q69 103 135 198zM472 981v40h-116v-40h116zM1272 143v40h-116v-40h116zM1116 249q0 39 -3 187l-8 6q-69 -103 -135 -198l95 -67zM475 703q-3 131 -3 240h-116q0 -114 -3 -240q61 3 122 0zM1275 -135q-3 124 -3 240h-116q0 -116 -3 -240q61 3 122 0zM1043 146l-95 67l-23 -33
l95 -67zM998 82l-95 67q-72 -103 -140 -195q52 -33 100 -70q69 102 135 198zM658 244q-66 95 -135 198l-8 -6l-3 -187q12 -17 51 -72zM703 180l-23 33l-95 -67l23 -33zM790 58l-65 91l-95 -67q52 -75 86 -125zM475 461q-61 -3 -122 0q3 -126 3 -240h116q0 93 3 240z
M779 -105q-18 12 -38 25l24 -36zM472 143v40h-116v-40h116zM475 -135q-3 124 -3 240h-116q0 -116 -3 -240q61 3 122 0z" />
  </g>

</svg>
