<?xml version="1.0" standalone="no"?>
<!DOCTYPE svg PUBLIC "-//W3C//DTD SVG 1.1//EN" "http://www.w3.org/Graphics/SVG/1.1/DTD/svg11.dtd" >
<svg viewBox="0 -442 2048 2048">
  <g transform="matrix(1 0 0 -1 0 1606)">
   <path fill="currentColor"
d="M1578 -244q0 -148 -138 -148h-1252q-138 0 -138 148v1652q0 148 138 148h1252q138 0 138 -148v-1652zM1544 -244v1652q0 114 -104 114h-1252q-104 0 -104 -114v-1652q0 -114 104 -114h1252q104 0 104 114zM916 660q-102 8 -204 0q8 341 0 682q51 -4 102 -4t102 4
q-4 -170 -4 -341t4 -341zM1316 -178q-102 8 -204 0q8 341 0 682q51 -4 102 -4t102 4q-4 -170 -4 -341t4 -341zM516 -178q-102 8 -204 0q8 341 0 682q51 -4 102 -4t102 4q-4 -170 -4 -341t4 -341zM875 1299q-61 -3 -122 0q3 -124 3 -240h116q0 116 3 240zM872 981v40h-116
v-40h116zM875 703q-3 131 -3 240h-116q0 -114 -3 -240q61 3 122 0zM1275 461q-61 -3 -122 0q3 -124 3 -240h116q0 116 3 240zM1272 143v40h-116v-40h116zM1275 -135q-3 131 -3 240h-116q0 -114 -3 -240q61 3 122 0zM475 461q-61 -3 -122 0q3 -124 3 -240h116q0 116 3 240z
M472 143v40h-116v-40h116zM475 -135q-3 131 -3 240h-116q0 -114 -3 -240q61 3 122 0z" />
  </g>

</svg>
