<?xml version="1.0" standalone="no"?>
<!DOCTYPE svg PUBLIC "-//W3C//DTD SVG 1.1//EN" "http://www.w3.org/Graphics/SVG/1.1/DTD/svg11.dtd" >
<svg viewBox="0 -442 2048 2048">
  <g transform="matrix(1 0 0 -1 0 1606)">
   <path fill="currentColor"
d="M1578 -244q0 -148 -138 -148h-1252q-138 0 -138 148v1652q0 148 138 148h1252q138 0 138 -148v-1652zM1544 -244v1652q0 114 -104 114h-1252q-104 0 -104 -114v-1652q0 -114 104 -114h1252q104 0 104 114zM1392 1177q0 -115 -81.5 -196.5t-196.5 -81.5t-196.5 81.5
t-81.5 196.5t81.5 196.5t196.5 81.5t196.5 -81.5t81.5 -196.5zM792 1177q0 -115 -81.5 -196.5t-196.5 -81.5t-196.5 81.5t-81.5 196.5t81.5 196.5t196.5 81.5t196.5 -81.5t81.5 -196.5zM1392 577q0 -115 -81.5 -196.5t-196.5 -81.5t-196.5 81.5t-81.5 196.5t81.5 196.5
t196.5 81.5t196.5 -81.5t81.5 -196.5zM792 577q0 -115 -81.5 -196.5t-196.5 -81.5t-196.5 81.5t-81.5 196.5t81.5 196.5t196.5 81.5t196.5 -81.5t81.5 -196.5zM1392 -23q0 -115 -81.5 -196.5t-196.5 -81.5t-196.5 81.5t-81.5 196.5t81.5 196.5t196.5 81.5t196.5 -81.5
t81.5 -196.5zM792 -23q0 -115 -81.5 -196.5t-196.5 -81.5t-196.5 81.5t-81.5 196.5t81.5 196.5t196.5 81.5t196.5 -81.5t81.5 -196.5zM1372 1177q0 107 -75.5 182.5t-182.5 75.5t-182.5 -75.5t-75.5 -182.5t75.5 -182.5t182.5 -75.5t182.5 75.5t75.5 182.5zM772 1177
q0 107 -75.5 182.5t-182.5 75.5t-182.5 -75.5t-75.5 -182.5t75.5 -182.5t182.5 -75.5t182.5 75.5t75.5 182.5zM1372 577q0 107 -75.5 182.5t-182.5 75.5t-182.5 -75.5t-75.5 -182.5t75.5 -182.5t182.5 -75.5t182.5 75.5t75.5 182.5zM772 577q0 107 -75.5 182.5t-182.5 75.5
t-182.5 -75.5t-75.5 -182.5t75.5 -182.5t182.5 -75.5t182.5 75.5t75.5 182.5zM1372 -23q0 107 -75.5 182.5t-182.5 75.5t-182.5 -75.5t-75.5 -182.5t75.5 -182.5t182.5 -75.5t182.5 75.5t75.5 182.5zM772 -23q0 107 -75.5 182.5t-182.5 75.5t-182.5 -75.5t-75.5 -182.5
t75.5 -182.5t182.5 -75.5t182.5 75.5t75.5 182.5zM1342 1177q0 -94 -67 -161t-161 -67t-161 67t-67 161t67 161t161 67t161 -67t67 -161zM742 1177q0 -94 -67 -161t-161 -67t-161 67t-67 161t67 161t161 67t161 -67t67 -161zM1342 577q0 -94 -67 -161t-161 -67t-161 67
t-67 161t67 161t161 67t161 -67t67 -161zM742 577q0 -94 -67 -161t-161 -67t-161 67t-67 161t67 161t161 67t161 -67t67 -161zM1342 -23q0 -94 -67 -161t-161 -67t-161 67t-67 161t67 161t161 67t161 -67t67 -161zM742 -23q0 -94 -67 -161t-161 -67t-161 67t-67 161t67 161
t161 67t161 -67t67 -161zM1322 1177q0 86 -61 147t-147 61t-147 -61t-61 -147t61 -147t147 -61t147 61t61 147zM722 1177q0 86 -61 147t-147 61t-147 -61t-61 -147t61 -147t147 -61t147 61t61 147zM1322 577q0 86 -61 147t-147 61t-147 -61t-61 -147t61 -147t147 -61t147 61
t61 147zM722 577q0 86 -61 147t-147 61t-147 -61t-61 -147t61 -147t147 -61t147 61t61 147zM1322 -23q0 86 -61 147t-147 61t-147 -61t-61 -147t61 -147t147 -61t147 61t61 147zM722 -23q0 86 -61 147t-147 61t-147 -61t-61 -147t61 -147t147 -61t147 61t61 147zM1310 1175
q0 -55 -58 -55h-39q28 -48 28 -64q0 -58 -60 -58q-30 0 -67 65q-36 -63 -68 -63q-60 0 -60 54q0 17 29 66h-39q-58 0 -58 59q0 55 58 55h39q-28 48 -28 64q0 58 60 58q30 0 67 -65q36 63 68 63q60 0 60 -54q0 -17 -29 -66h39q58 0 58 -59zM710 1175q0 -55 -58 -55h-39
q28 -48 28 -64q0 -58 -60 -58q-30 0 -67 65q-36 -63 -68 -63q-60 0 -60 54q0 17 29 66h-39q-58 0 -58 59q0 55 58 55h39q-28 48 -28 64q0 58 60 58q30 0 67 -65q36 63 68 63q60 0 60 -54q0 -17 -29 -66h39q58 0 58 -59zM1310 575q0 -55 -58 -55h-39q28 -48 28 -64
q0 -58 -60 -58q-30 0 -67 65q-36 -63 -68 -63q-60 0 -60 54q0 17 29 66h-39q-58 0 -58 59q0 55 58 55h39q-28 48 -28 64q0 58 60 58q30 0 67 -65q36 63 68 63q60 0 60 -54q0 -17 -29 -66h39q58 0 58 -59zM710 575q0 -55 -58 -55h-39q28 -48 28 -64q0 -58 -60 -58
q-30 0 -67 65q-36 -63 -68 -63q-60 0 -60 54q0 17 29 66h-39q-58 0 -58 59q0 55 58 55h39q-28 48 -28 64q0 58 60 58q30 0 67 -65q36 63 68 63q60 0 60 -54q0 -17 -29 -66h39q58 0 58 -59zM1310 -25q0 -55 -58 -55h-39q28 -48 28 -64q0 -58 -60 -58q-30 0 -67 65
q-36 -63 -68 -63q-60 0 -60 54q0 17 29 66h-39q-58 0 -58 59q0 55 58 55h39q-28 48 -28 64q0 58 60 58q30 0 67 -65q36 63 68 63q60 0 60 -54q0 -17 -29 -66h39q58 0 58 -59zM710 -25q0 -55 -58 -55h-39q28 -48 28 -64q0 -58 -60 -58q-30 0 -67 65q-36 -63 -68 -63
q-60 0 -60 54q0 17 29 66h-39q-58 0 -58 59q0 55 58 55h39q-28 48 -28 64q0 58 60 58q30 0 67 -65q36 63 68 63q60 0 60 -54q0 -17 -29 -66h39q58 0 58 -59zM1290 1177q0 37 -38 37h-74l37 64q7 12 7 22q0 35 -39 35q-20 0 -32 -20l-37 -64l-37 64q-12 21 -30 21
q-40 0 -40 -38q0 -10 6 -20l37 -64h-74q-38 0 -38 -37t38 -37h74l-37 -64q-7 -12 -7 -22q0 -35 39 -35q20 0 32 20l37 64l37 -64q12 -21 30 -21q40 0 40 38q0 10 -6 20l-37 64h74q38 0 38 37zM690 1177q0 37 -38 37h-74l37 64q7 12 7 22q0 35 -39 35q-20 0 -32 -20l-37 -64
l-37 64q-12 21 -30 21q-40 0 -40 -38q0 -10 6 -20l37 -64h-74q-38 0 -38 -37t38 -37h74l-37 -64q-7 -12 -7 -22q0 -35 39 -35q20 0 32 20l37 64l37 -64q12 -21 30 -21q40 0 40 38q0 10 -6 20l-37 64h74q38 0 38 37zM1290 577q0 37 -38 37h-74l37 64q7 12 7 22q0 35 -39 35
q-20 0 -32 -20l-37 -64l-37 64q-12 21 -30 21q-40 0 -40 -38q0 -10 6 -20l37 -64h-74q-38 0 -38 -37t38 -37h74l-37 -64q-7 -12 -7 -22q0 -35 39 -35q20 0 32 20l37 64l37 -64q12 -21 30 -21q40 0 40 38q0 10 -6 20l-37 64h74q38 0 38 37zM690 577q0 37 -38 37h-74l37 64
q7 12 7 22q0 35 -39 35q-20 0 -32 -20l-37 -64l-37 64q-12 21 -30 21q-40 0 -40 -38q0 -10 6 -20l37 -64h-74q-38 0 -38 -37t38 -37h74l-37 -64q-7 -12 -7 -22q0 -35 39 -35q20 0 32 20l37 64l37 -64q12 -21 30 -21q40 0 40 38q0 10 -6 20l-37 64h74q38 0 38 37zM1290 -23
q0 37 -38 37h-74l37 64q7 12 7 22q0 35 -39 35q-20 0 -32 -20l-37 -64l-37 64q-12 21 -30 21q-40 0 -40 -38q0 -10 6 -20l37 -64h-74q-38 0 -38 -37t38 -37h74l-37 -64q-7 -12 -7 -22q0 -35 39 -35q20 0 32 20l37 64l37 -64q12 -21 30 -21q40 0 40 38q0 10 -6 20l-37 64h74
q38 0 38 37zM690 -23q0 37 -38 37h-74l37 64q7 12 7 22q0 35 -39 35q-20 0 -32 -20l-37 -64l-37 64q-12 21 -30 21q-40 0 -40 -38q0 -10 6 -20l37 -64h-74q-38 0 -38 -37t38 -37h74l-37 -64q-7 -12 -7 -22q0 -35 39 -35q20 0 32 20l37 64l37 -64q12 -21 30 -21q40 0 40 38
q0 10 -6 20l-37 64h74q38 0 38 37zM1174 1177q0 -60 -60 -60t-60 60t60 60t60 -60zM574 1177q0 -60 -60 -60t-60 60t60 60t60 -60zM1174 577q0 -60 -60 -60t-60 60t60 60t60 -60zM574 577q0 -60 -60 -60t-60 60t60 60t60 -60zM1174 -23q0 -60 -60 -60t-60 60t60 60t60 -60z
M574 -23q0 -60 -60 -60t-60 60t60 60t60 -60zM1154 1177q0 40 -40 40t-40 -40t40 -40t40 40zM554 1177q0 40 -40 40t-40 -40t40 -40t40 40zM1154 577q0 40 -40 40t-40 -40t40 -40t40 40zM554 577q0 40 -40 40t-40 -40t40 -40t40 40zM1154 -23q0 40 -40 40t-40 -40t40 -40
t40 40zM554 -23q0 40 -40 40t-40 -40t40 -40t40 40zM1134 1177q0 -20 -20 -20t-20 20t20 20t20 -20zM534 1177q0 -20 -20 -20t-20 20t20 20t20 -20zM1134 577q0 -20 -20 -20t-20 20t20 20t20 -20zM534 577q0 -20 -20 -20t-20 20t20 20t20 -20zM1134 -23q0 -20 -20 -20
t-20 20t20 20t20 -20zM534 -23q0 -20 -20 -20t-20 20t20 20t20 -20z" />
  </g>

</svg>
