<?xml version="1.0" standalone="no"?>
<!DOCTYPE svg PUBLIC "-//W3C//DTD SVG 1.1//EN" "http://www.w3.org/Graphics/SVG/1.1/DTD/svg11.dtd" >
<svg viewBox="0 -442 2048 2048">
  <g transform="matrix(1 0 0 -1 0 1606)">
   <path fill="currentColor"
d="M1578 -244q0 -148 -138 -148h-1252q-138 0 -138 148v1652q0 148 138 148h1252q138 0 138 -148v-1652zM1544 -244v1652q0 114 -104 114h-1252q-104 0 -104 -114v-1652q0 -114 104 -114h1252q104 0 104 114zM683 1375q1 -10 -4 -20h-142q-28 -29 -58 -64q6 14 13 58l-2 3
q-49 -7 -94 -8q-4 -13 -11 -36q-32 32 -29 32q-4 0 -52.5 -10.5t-52.5 -10.5q-18 0 -42 24q48 5 142 21l-36 60q17 0 34 -1q25 -4 32 -24q5 -14 6 -31q12 -7 18 -7q9 0 95 12l5 5q3 27 9 86h22q7 0 20.5 -11.5t13.5 -18.5t-25 -49q11 -5 42 1q39 7 48 7q26 0 48 -18z
M520 1182q-31 -16 -91 -46q10 15 30 44q1 1 11 20q4 9 13 9q10 0 37 -27zM1229 587q0 -35 -35 -59l-321 -222q-5 7 -12 12l222 321q24 35 59 35q33 0 60 -27t27 -60zM651 1238q0 -4 -7 -18.5t-7 -18.5v-252q0 -14 -22 -53q-25 -44 -45 -44q-5 0 -35 39q-16 20 -32 41
q24 -6 46 -6q53 0 53 181q0 69 -5 91q-9 46 -45 50l-177 -25q-7 0 -26.5 5.5t-22.5 5.5q-8 0 -81 -52q43 54 78 112q14 -4 38 -15q-6 -14 -18 -29q4 -2 25 -2l203 32q12 2 44 -11q36 -14 36 -31zM1077 696q0 -21 -14 -43l-212 -327q-5 3 -16 6l82 381q13 60 70 60
q34 0 62 -22t28 -55zM1328 432q0 -57 -60 -70l-381 -82q-3 11 -6 16l327 212q22 14 43 14q33 0 55 -28t22 -62zM517 980q-8 -8 -14 -8q-21 0 -92 78h36q8 0 36 -16.5t34 -23.5v-30zM329 1121q-1 0 -6 -2t-10 -2q-27 0 -51 57h30q15 1 37 -30v-23zM538 1109q0 -9 -12 -20
h-106l-20 -10v-155q0 -7 -19 -26q-16 7 -19 23q-2 16 3 40q7 28 7 31v62l-81 -71q-46 -41 -92 -41q39 30 79 61q47 36 62 69q-14 3 -54 -4q-46 -7 -52 -7q-20 0 -53 20q88 4 185 23q9 7 9 22q0 16 -17 76q1 0 5 2t9 2q16 0 38 -15v-72v-6q12 0 44.5 4t35.5 4q26 0 48 -12z
M895 735q0 -6 -2 -17l-71 -383q-8 1 -16 0l-71 383q-2 11 -2 17q0 72 81 72t81 -72zM1362 259q0 -81 -72 -81q-6 0 -17 2l-383 71q1 8 0 16l383 71q11 2 17 2q72 0 72 -81zM793 332q-11 -3 -16 -6l-212 327q-14 22 -14 43q0 33 28 55t62 22q57 0 70 -60zM1328 86
q0 -34 -22 -62t-55 -28q-21 0 -43 14l-327 212q3 5 6 16l381 -82q60 -13 60 -70zM767 318q-7 -5 -12 -12l-321 222q-35 24 -35 59q0 33 27 60t60 27q35 0 59 -35zM880 259q0 -66 -66 -66t-66 66t66 66t66 -66zM1229 -69q0 -33 -27 -60t-60 -27q-35 0 -59 35l-222 321
q7 5 12 12l321 -222q35 -24 35 -59zM747 296q-3 -5 -6 -16l-381 82q-60 13 -60 70q0 34 22 62t55 28q21 0 43 -14zM1077 -178q0 -33 -28 -55t-62 -22q-57 0 -70 60l-82 381q11 3 16 6l212 -327q14 -22 14 -43zM738 251l-383 -71q-11 -2 -17 -2q-72 0 -72 81t72 81q6 0 17 -2
l383 -71q-1 -8 0 -16zM895 -217q0 -72 -81 -72t-81 72q0 6 2 17l71 383q8 -1 16 0l71 -383q2 -11 2 -17zM747 222l-327 -212q-22 -14 -43 -14q-33 0 -55 28t-22 62q0 57 60 70l381 82q3 -11 6 -16zM793 186l-82 -381q-13 -60 -70 -60q-34 0 -62 22t-28 55q0 21 14 43
l212 327q5 -3 16 -6zM767 200l-222 -321q-24 -35 -59 -35q-33 0 -60 27t-27 60q0 35 35 59l321 222q5 -7 12 -12zM1209 585q0 26 -21.5 47.5t-47.5 21.5q-23 0 -41 -26l-186 -270l270 186q26 18 26 41zM1057 695q0 24 -23 41t-48 17q-41 0 -50 -44l-68 -320l178 275
q11 17 11 31zM1308 431q0 26 -16.5 48.5t-41.5 22.5q-14 0 -31 -11l-275 -178l320 68q44 9 44 50zM875 735q0 52 -61 52t-61 -52q0 -2 2 -13l59 -323l59 323q2 11 2 13zM1342 259q0 61 -52 61q-2 0 -13 -2l-323 -59l323 -59q11 -2 13 -2q52 0 52 61zM760 389l-68 320
q-9 44 -49 44q-25 0 -49 -17t-24 -41q0 -12 12 -31zM1308 86q0 42 -44 51l-320 68l275 -178q19 -12 31 -12q24 0 41 23t17 48zM715 358l-186 270q-18 26 -41 26q-25 0 -47 -22t-22 -47q0 -23 26 -41zM860 259q0 46 -46 46t-46 -46t46 -46t46 46zM1209 -67q0 23 -26 41
l-270 186l186 -270q18 -26 41 -26q25 0 47 22t22 47zM684 313l-275 178q-19 12 -31 12q-24 0 -41 -24t-17 -49q0 -40 44 -49zM1058 -177q0 12 -12 31l-178 275l68 -320q9 -44 49 -44q25 0 49 17t24 41zM674 259l-323 59q-11 2 -13 2q-52 0 -52 -61t52 -61q2 0 13 2z
M875 -217q0 2 -2 13l-59 323l-59 -323q-2 -11 -2 -13q0 -52 61 -52t61 52zM684 205l-320 -68q-44 -9 -44 -49q0 -25 17 -49t41 -24q12 0 31 12zM760 129l-178 -275q-12 -19 -12 -31q0 -24 24 -41t49 -17q40 0 49 44zM715 160l-270 -186q-26 -18 -26 -41q0 -25 22 -47t47 -22
q23 0 41 26z" />
  </g>

</svg>
