<?xml version="1.0" standalone="no"?>
<!DOCTYPE svg PUBLIC "-//W3C//DTD SVG 1.1//EN" "http://www.w3.org/Graphics/SVG/1.1/DTD/svg11.dtd" >
<svg viewBox="0 -442 2048 2048">
  <g transform="matrix(1 0 0 -1 0 1606)">
   <path fill="currentColor"
d="M1578 -244q0 -148 -138 -148h-1252q-138 0 -138 148v1652q0 148 138 148h1252q138 0 138 -148v-1652zM1544 -244v1652q0 114 -104 114h-1252q-104 0 -104 -114v-1652q0 -114 104 -114h1252q104 0 104 114zM1224 1293q-6 -13 -27 -19l-408 -10q14 -14 43 -42l-106 -138
q4 -8 15 -8l207 32q20 1 65 -22t45 -37q0 -4 -9 -18q-10 -17 -12 -21q-20 -49 -21 -113q-2 -128 -5 -146q-13 -71 -72 -127q-17 48 -33 95q-15 32 -69 32q9 0 -176 -15q-17 -39 -21 -73q-36 15 -40 60q2 -25 2 72v158q0 16 -14 58q-14 39 -21 50q95 -1 114 8q7 3 25 45
q44 103 44 115q0 32 -33 27l-235 -32q-24 7 -47 15q-26 11 -34 34l704 71q65 0 119 -51zM1153 421q-17 -17 -71 -22q-59 -6 -71 -13q-4 -2 -58 -76q0 1 10 71q-7 3 -47 3q-41 0 -88 -8q-8 -28 -19 -86q-15 16 -24 66q-13 10 -22 10q-4 0 -18.5 -3.5t-18.5 -3.5q-14 0 -31 12
v6q29 7 77 27q3 10 -11 37q-22 40 -24 44q14 2 25 2q55 0 55 -51q0 -13 -3 -29q3 -2 26 -2q-22 0 123 15q31 35 17 126h44q8 0 41 -33q-14 -21 -39 -64v-10q6 -6 9 -6q4 0 29 7t29 7q32 0 60 -26zM1270 64q-38 -23 -103 -23q-69 0 -137 71q-63 70 -126 141q-48 -68 -96 -137
q-65 -84 -133 -115q-13 -4 -37 -16q0 12 1 16q176 129 222 319q19 -7 47 -25q0 -6 5 -18q97 -119 267 -182q32 -11 90 -31zM984 108q0 -18 -51 -31q-38 -11 -54 -11q-19 0 -51 19q84 44 122 44q34 0 34 -21zM1100 -53q0 -4 -19 -29q-24 -32 -33 -46q-4 -7 -4 -15
q0 -15 13 -34q-75 -9 -240 -27q-8 -8 -19 -23q-17 61 -31 128q-2 10 -14 40q-10 27 -10 31q0 20 11 20q3 0 26 -7.5t34 -7.5l189 36q18 -3 50 -19q47 -23 47 -47zM699 209q-93 -76 -93 -88v-266q0 9 -36 -75q-13 -1 -39 34t-52 71q4 0 20 -1.5t20 -1.5q14 0 20 4q11 8 22 60
q9 44 9 62v83q-1 2 -3 3l-164 -116q-30 -2 -51 51q103 32 218 121v108l-3 6q-15 0 -50.5 -4t-37.5 -4q-15 0 -43 13q68 23 135 53q1 29 -4 113q-2 27 -5 80q-9 14 -9 16v29q45 -13 84 -32v-12q0 11 -9 -22q-6 -21 -22 -95l2 -79q21 7 36 7t50 -8q-1 -11 -33 -26
q-28 -13 -56 -25q0 -34 7 -97q22 13 45 26.5t42 11.5zM952 975q0 49 -3 59q-9 28 -48 28l-249 -29v-109l180 28q18 -3 36 -5q23 -5 31 -21q-43 -27 -104 -31q-69 -3 -139 -7v-116h58l132 28q55 -12 80 -39q26 85 26 214zM998 -67q0 14 -8 30h-121q-25 0 -62 -15v-112h93
q49 -1 82 33q16 17 16 64z" />
  </g>

</svg>
