<?xml version="1.0" standalone="no"?>
<!DOCTYPE svg PUBLIC "-//W3C//DTD SVG 1.1//EN" "http://www.w3.org/Graphics/SVG/1.1/DTD/svg11.dtd" >
<svg viewBox="0 -442 2048 2048">
  <g transform="matrix(1 0 0 -1 0 1606)">
   <path fill="currentColor"
d="M1578 -244q0 -148 -138 -148h-1252q-138 0 -138 148v1652q0 148 138 148h1252q138 0 138 -148v-1652zM1544 -244v1652q0 114 -104 114h-1252q-104 0 -104 -114v-1652q0 -114 104 -114h1252q104 0 104 114zM867 825q-88 -32 -143 -32q-39 0 -118 62t-82 62
q-4 0 -17.5 -12.5t-18.5 -14.5q-123 -58 -149 -58q-2 0 -21.5 4.5t-29.5 4.5q120 26 208 99q-1 7 -45 38t-59 31q-4 0 -40 -35q-41 -40 -54 -49q-26 -19 -70.5 -42t-51.5 -22h-15q180 114 240 242v9q-6 6 -7 6l-28 -3v149q0 12 -18 65q4 0 20 -1.5t20 -1.5q23 0 37 21
q11 22 22 45v10q-3 2 -21 2q-4 0 -63 -9t-63 -9q-8 0 -28 11q-23 12 -26 24l453 54q57 0 69 -35l-283 -31q6 -3 15 -10q-18 -23 -57 -60q3 -3 11 -1q22 3 86 14q58 10 62 10q27 0 64 -30q-19 -36 -27 -120q-8 -75 -28 -97q-35 21 -44 21q-3 0 -53 -8q-55 -8 -79 -10l-6 -5
l21 -21l-24 -36q1 -1 12 -1q4 0 70.5 15.5t70.5 15.5q11 0 65 -29l-91 -110q72 -74 291 -109q11 -2 23 -13zM1122 551l-75 -129q-8 -13 -28 -14q-19 0 -30 11t-11 30q1 20 14 28zM852 520q0 -38 -40 -38t-40 38v5l40 254zM1349 242l-259 -40q-38 0 -38 40t38 40h5zM1122 -67
l-130 75q-13 8 -14 28q0 19 11 30t30 11q20 -1 28 -14zM606 408q-20 1 -28 14l-75 129l130 -74q13 -8 14 -28q0 -19 -11 -30t-30 -11zM1032 242q0 -91 -64.5 -155.5t-155.5 -64.5t-155.5 64.5t-64.5 155.5t64.5 155.5t155.5 64.5t155.5 -64.5t64.5 -155.5zM572 242
q0 -40 -38 -40h-5l-254 40l259 40q38 0 38 -40zM852 -41l-40 -254l-40 259q0 38 40 38t40 -38v-5zM647 36q-1 -20 -14 -28l-130 -75l75 130q8 13 28 14q19 0 30 -11t11 -30zM602 1211v115q-21 7 -32 7l-166 -25q-5 -32 1 -45q92 25 121 25q21 0 30 -16l-6 -6
q-80 -21 -145 -18v-52l128 28q8 -1 23 -6v-12q-32 -16 -84 -22q-37 -3 -74 -7v-45h25q4 0 27 6t30 7q90 10 104 9q18 46 18 57zM567 1039q0 5 -2 11.5t-2 7.5q-63 -21 -100 -21q-4 0 -18.5 1.5t-18.5 1.5q-16 0 -32 -16q19 -8 75 -36q45 -22 50 -22q13 0 31 33q17 30 17 40z
M980 242q0 70 -49 119t-119 49t-119 -49t-49 -119t49 -119t119 -49t119 49t49 119z" />
  </g>

</svg>
