<?xml version="1.0" standalone="no"?>
<!DOCTYPE svg PUBLIC "-//W3C//DTD SVG 1.1//EN" "http://www.w3.org/Graphics/SVG/1.1/DTD/svg11.dtd" >
<svg viewBox="0 -442 2048 2048">
  <g transform="matrix(1 0 0 -1 0 1606)">
   <path fill="currentColor"
d="M1578 -244q0 -148 -138 -148h-1252q-138 0 -138 148v1652q0 148 138 148h1252q138 0 138 -148v-1652zM1544 -244v1652q0 114 -104 114h-1252q-104 0 -104 -114v-1652q0 -114 104 -114h1252q104 0 104 114zM1499 1145q0 -90 -63.5 -153.5t-153.5 -63.5t-153.5 63.5
t-63.5 153.5t63.5 153.5t153.5 63.5t153.5 -63.5t63.5 -153.5zM1031 1145q0 -90 -63.5 -153.5t-153.5 -63.5t-153.5 63.5t-63.5 153.5t63.5 153.5t153.5 63.5t153.5 -63.5t63.5 -153.5zM1499 577q0 -90 -63.5 -153.5t-153.5 -63.5t-153.5 63.5t-63.5 153.5t63.5 153.5
t153.5 63.5t153.5 -63.5t63.5 -153.5zM563 1145q0 -90 -63.5 -153.5t-153.5 -63.5t-153.5 63.5t-63.5 153.5t63.5 153.5t153.5 63.5t153.5 -63.5t63.5 -153.5zM1031 577q0 -90 -63.5 -153.5t-153.5 -63.5t-153.5 63.5t-63.5 153.5t63.5 153.5t153.5 63.5t153.5 -63.5
t63.5 -153.5zM1499 9q0 -90 -63.5 -153.5t-153.5 -63.5t-153.5 63.5t-63.5 153.5t63.5 153.5t153.5 63.5t153.5 -63.5t63.5 -153.5zM563 577q0 -90 -63.5 -153.5t-153.5 -63.5t-153.5 63.5t-63.5 153.5t63.5 153.5t153.5 63.5t153.5 -63.5t63.5 -153.5zM1031 9
q0 -90 -63.5 -153.5t-153.5 -63.5t-153.5 63.5t-63.5 153.5t63.5 153.5t153.5 63.5t153.5 -63.5t63.5 -153.5zM563 9q0 -90 -63.5 -153.5t-153.5 -63.5t-153.5 63.5t-63.5 153.5t63.5 153.5t153.5 63.5t153.5 -63.5t63.5 -153.5zM1483 1145q0 83 -59 142t-142 59t-142 -59
t-59 -142t59 -142t142 -59t142 59t59 142zM1015 1145q0 83 -59 142t-142 59t-142 -59t-59 -142t59 -142t142 -59t142 59t59 142zM1483 577q0 83 -59 142t-142 59t-142 -59t-59 -142t59 -142t142 -59t142 59t59 142zM547 1145q0 83 -59 142t-142 59t-142 -59t-59 -142
t59 -142t142 -59t142 59t59 142zM1015 577q0 83 -59 142t-142 59t-142 -59t-59 -142t59 -142t142 -59t142 59t59 142zM1483 9q0 83 -59 142t-142 59t-142 -59t-59 -142t59 -142t142 -59t142 59t59 142zM547 577q0 83 -59 142t-142 59t-142 -59t-59 -142t59 -142t142 -59
t142 59t59 142zM1015 9q0 83 -59 142t-142 59t-142 -59t-59 -142t59 -142t142 -59t142 59t59 142zM547 9q0 83 -59 142t-142 59t-142 -59t-59 -142t59 -142t142 -59t142 59t59 142zM1460 1145q0 -74 -52 -126t-126 -52t-126 52t-52 126t52 126t126 52t126 -52t52 -126z
M992 1145q0 -74 -52 -126t-126 -52t-126 52t-52 126t52 126t126 52t126 -52t52 -126zM1460 577q0 -74 -52 -126t-126 -52t-126 52t-52 126t52 126t126 52t126 -52t52 -126zM524 1145q0 -74 -52 -126t-126 -52t-126 52t-52 126t52 126t126 52t126 -52t52 -126zM992 577
q0 -74 -52 -126t-126 -52t-126 52t-52 126t52 126t126 52t126 -52t52 -126zM1460 9q0 -74 -52 -126t-126 -52t-126 52t-52 126t52 126t126 52t126 -52t52 -126zM524 577q0 -74 -52 -126t-126 -52t-126 52t-52 126t52 126t126 52t126 -52t52 -126zM992 9q0 -74 -52 -126
t-126 -52t-126 52t-52 126t52 126t126 52t126 -52t52 -126zM524 9q0 -74 -52 -126t-126 -52t-126 52t-52 126t52 126t126 52t126 -52t52 -126zM1444 1145q0 67 -47.5 114.5t-114.5 47.5t-114.5 -47.5t-47.5 -114.5t47.5 -114.5t114.5 -47.5t114.5 47.5t47.5 114.5zM976 1145
q0 67 -47.5 114.5t-114.5 47.5t-114.5 -47.5t-47.5 -114.5t47.5 -114.5t114.5 -47.5t114.5 47.5t47.5 114.5zM1444 577q0 67 -47.5 114.5t-114.5 47.5t-114.5 -47.5t-47.5 -114.5t47.5 -114.5t114.5 -47.5t114.5 47.5t47.5 114.5zM508 1145q0 67 -47.5 114.5t-114.5 47.5
t-114.5 -47.5t-47.5 -114.5t47.5 -114.5t114.5 -47.5t114.5 47.5t47.5 114.5zM976 577q0 67 -47.5 114.5t-114.5 47.5t-114.5 -47.5t-47.5 -114.5t47.5 -114.5t114.5 -47.5t114.5 47.5t47.5 114.5zM1444 9q0 67 -47.5 114.5t-114.5 47.5t-114.5 -47.5t-47.5 -114.5
t47.5 -114.5t114.5 -47.5t114.5 47.5t47.5 114.5zM508 577q0 67 -47.5 114.5t-114.5 47.5t-114.5 -47.5t-47.5 -114.5t47.5 -114.5t114.5 -47.5t114.5 47.5t47.5 114.5zM976 9q0 67 -47.5 114.5t-114.5 47.5t-114.5 -47.5t-47.5 -114.5t47.5 -114.5t114.5 -47.5t114.5 47.5
t47.5 114.5zM508 9q0 67 -47.5 114.5t-114.5 47.5t-114.5 -47.5t-47.5 -114.5t47.5 -114.5t114.5 -47.5t114.5 47.5t47.5 114.5zM1435 1144q0 -43 -45 -43h-31q22 -38 22 -50q0 -45 -46 -45q-25 0 -53 50q-28 -49 -53 -49q-47 0 -47 42q0 13 23 52h-31q-45 0 -45 45
q0 43 45 43h31q-22 38 -22 50q0 45 46 45q25 0 53 -50q28 49 53 49q47 0 47 -42q0 -13 -23 -52h31q45 0 45 -45zM967 1144q0 -43 -45 -43h-31q22 -38 22 -50q0 -45 -46 -45q-25 0 -53 50q-28 -49 -53 -49q-47 0 -47 42q0 13 23 52h-31q-45 0 -45 45q0 43 45 43h31
q-22 38 -22 50q0 45 46 45q25 0 53 -50q28 49 53 49q47 0 47 -42q0 -13 -23 -52h31q45 0 45 -45zM1435 576q0 -43 -45 -43h-31q22 -38 22 -50q0 -45 -46 -45q-25 0 -53 50q-28 -49 -53 -49q-47 0 -47 42q0 13 23 52h-31q-45 0 -45 45q0 43 45 43h31q-22 38 -22 50
q0 45 46 45q25 0 53 -50q28 49 53 49q47 0 47 -42q0 -13 -23 -52h31q45 0 45 -45zM499 1144q0 -43 -45 -43h-31q22 -38 22 -50q0 -45 -46 -45q-25 0 -53 50q-28 -49 -53 -49q-47 0 -47 42q0 13 23 52h-31q-45 0 -45 45q0 43 45 43h31q-22 38 -22 50q0 45 46 45q25 0 53 -50
q28 49 53 49q47 0 47 -42q0 -13 -23 -52h31q45 0 45 -45zM967 576q0 -43 -45 -43h-31q22 -38 22 -50q0 -45 -46 -45q-25 0 -53 50q-28 -49 -53 -49q-47 0 -47 42q0 13 23 52h-31q-45 0 -45 45q0 43 45 43h31q-22 38 -22 50q0 45 46 45q25 0 53 -50q28 49 53 49q47 0 47 -42
q0 -13 -23 -52h31q45 0 45 -45zM1435 8q0 -43 -45 -43h-31q22 -38 22 -50q0 -45 -46 -45q-25 0 -53 50q-28 -49 -53 -49q-47 0 -47 42q0 13 23 52h-31q-45 0 -45 45q0 43 45 43h31q-22 38 -22 50q0 45 46 45q25 0 53 -50q28 49 53 49q47 0 47 -42q0 -13 -23 -52h31
q45 0 45 -45zM499 576q0 -43 -45 -43h-31q22 -38 22 -50q0 -45 -46 -45q-25 0 -53 50q-28 -49 -53 -49q-47 0 -47 42q0 13 23 52h-31q-45 0 -45 45q0 43 45 43h31q-22 38 -22 50q0 45 46 45q25 0 53 -50q28 49 53 49q47 0 47 -42q0 -13 -23 -52h31q45 0 45 -45zM967 8
q0 -43 -45 -43h-31q22 -38 22 -50q0 -45 -46 -45q-25 0 -53 50q-28 -49 -53 -49q-47 0 -47 42q0 13 23 52h-31q-45 0 -45 45q0 43 45 43h31q-22 38 -22 50q0 45 46 45q25 0 53 -50q28 49 53 49q47 0 47 -42q0 -13 -23 -52h31q45 0 45 -45zM499 8q0 -43 -45 -43h-31
q22 -38 22 -50q0 -45 -46 -45q-25 0 -53 50q-28 -49 -53 -49q-47 0 -47 42q0 13 23 52h-31q-45 0 -45 45q0 43 45 43h31q-22 38 -22 50q0 45 46 45q25 0 53 -50q28 49 53 49q47 0 47 -42q0 -13 -23 -52h31q45 0 45 -45zM1419 1145q0 29 -29 29h-58l29 50q5 9 5 17
q0 27 -30 27q-16 0 -25 -15l-29 -50l-29 50q-9 16 -24 16q-30 0 -30 -30q0 -8 4 -15l29 -50h-58q-29 0 -29 -29t29 -29h58l-29 -50q-5 -9 -5 -17q0 -27 30 -27q16 0 25 15l29 50l29 -50q9 -16 24 -16q30 0 30 30q0 8 -4 15l-29 50h58q29 0 29 29zM951 1145q0 29 -29 29h-58
l29 50q5 9 5 17q0 27 -30 27q-16 0 -25 -15l-29 -50l-29 50q-9 16 -24 16q-30 0 -30 -30q0 -8 4 -15l29 -50h-58q-29 0 -29 -29t29 -29h58l-29 -50q-5 -9 -5 -17q0 -27 30 -27q16 0 25 15l29 50l29 -50q9 -16 24 -16q30 0 30 30q0 8 -4 15l-29 50h58q29 0 29 29zM1419 577
q0 29 -29 29h-58l29 50q5 9 5 17q0 27 -30 27q-16 0 -25 -15l-29 -50l-29 50q-9 16 -24 16q-30 0 -30 -30q0 -8 4 -15l29 -50h-58q-29 0 -29 -29t29 -29h58l-29 -50q-5 -9 -5 -17q0 -27 30 -27q16 0 25 15l29 50l29 -50q9 -16 24 -16q30 0 30 30q0 8 -4 15l-29 50h58
q29 0 29 29zM483 1145q0 29 -29 29h-58l29 50q5 9 5 17q0 27 -30 27q-16 0 -25 -15l-29 -50l-29 50q-9 16 -24 16q-30 0 -30 -30q0 -8 4 -15l29 -50h-58q-29 0 -29 -29t29 -29h58l-29 -50q-5 -9 -5 -17q0 -27 30 -27q16 0 25 15l29 50l29 -50q9 -16 24 -16q30 0 30 30
q0 8 -4 15l-29 50h58q29 0 29 29zM951 577q0 29 -29 29h-58l29 50q5 9 5 17q0 27 -30 27q-16 0 -25 -15l-29 -50l-29 50q-9 16 -24 16q-30 0 -30 -30q0 -8 4 -15l29 -50h-58q-29 0 -29 -29t29 -29h58l-29 -50q-5 -9 -5 -17q0 -27 30 -27q16 0 25 15l29 50l29 -50
q9 -16 24 -16q30 0 30 30q0 8 -4 15l-29 50h58q29 0 29 29zM1419 9q0 29 -29 29h-58l29 50q5 9 5 17q0 27 -30 27q-16 0 -25 -15l-29 -50l-29 50q-9 16 -24 16q-30 0 -30 -30q0 -8 4 -15l29 -50h-58q-29 0 -29 -29t29 -29h58l-29 -50q-5 -9 -5 -17q0 -27 30 -27q16 0 25 15
l29 50l29 -50q9 -16 24 -16q30 0 30 30q0 8 -4 15l-29 50h58q29 0 29 29zM483 577q0 29 -29 29h-58l29 50q5 9 5 17q0 27 -30 27q-16 0 -25 -15l-29 -50l-29 50q-9 16 -24 16q-30 0 -30 -30q0 -8 4 -15l29 -50h-58q-29 0 -29 -29t29 -29h58l-29 -50q-5 -9 -5 -17
q0 -27 30 -27q16 0 25 15l29 50l29 -50q9 -16 24 -16q30 0 30 30q0 8 -4 15l-29 50h58q29 0 29 29zM951 9q0 29 -29 29h-58l29 50q5 9 5 17q0 27 -30 27q-16 0 -25 -15l-29 -50l-29 50q-9 16 -24 16q-30 0 -30 -30q0 -8 4 -15l29 -50h-58q-29 0 -29 -29t29 -29h58l-29 -50
q-5 -9 -5 -17q0 -27 30 -27q16 0 25 15l29 50l29 -50q9 -16 24 -16q30 0 30 30q0 8 -4 15l-29 50h58q29 0 29 29zM483 9q0 29 -29 29h-58l29 50q5 9 5 17q0 27 -30 27q-16 0 -25 -15l-29 -50l-29 50q-9 16 -24 16q-30 0 -30 -30q0 -8 4 -15l29 -50h-58q-29 0 -29 -29t29 -29
h58l-29 -50q-5 -9 -5 -17q0 -27 30 -27q16 0 25 15l29 50l29 -50q9 -16 24 -16q30 0 30 30q0 8 -4 15l-29 50h58q29 0 29 29zM1329 1145q0 -47 -47 -47t-47 47t47 47t47 -47zM861 1145q0 -47 -47 -47t-47 47t47 47t47 -47zM1329 577q0 -47 -47 -47t-47 47t47 47t47 -47z
M393 1145q0 -47 -47 -47t-47 47t47 47t47 -47zM861 577q0 -47 -47 -47t-47 47t47 47t47 -47zM1329 9q0 -47 -47 -47t-47 47t47 47t47 -47zM393 577q0 -47 -47 -47t-47 47t47 47t47 -47zM861 9q0 -47 -47 -47t-47 47t47 47t47 -47zM393 9q0 -47 -47 -47t-47 47t47 47t47 -47z
M1313 1145q0 31 -31 31t-31 -31t31 -31t31 31zM845 1145q0 31 -31 31t-31 -31t31 -31t31 31zM1313 577q0 31 -31 31t-31 -31t31 -31t31 31zM377 1145q0 31 -31 31t-31 -31t31 -31t31 31zM845 577q0 31 -31 31t-31 -31t31 -31t31 31zM1313 9q0 31 -31 31t-31 -31t31 -31
t31 31zM377 577q0 31 -31 31t-31 -31t31 -31t31 31zM845 9q0 31 -31 31t-31 -31t31 -31t31 31zM377 9q0 31 -31 31t-31 -31t31 -31t31 31zM1298 1145q0 -16 -16 -16t-16 16t16 16t16 -16zM830 1145q0 -16 -16 -16t-16 16t16 16t16 -16zM1298 577q0 -16 -16 -16t-16 16t16 16
t16 -16zM362 1145q0 -16 -16 -16t-16 16t16 16t16 -16zM830 577q0 -16 -16 -16t-16 16t16 16t16 -16zM1298 9q0 -16 -16 -16t-16 16t16 16t16 -16zM362 577q0 -16 -16 -16t-16 16t16 16t16 -16zM830 9q0 -16 -16 -16t-16 16t16 16t16 -16zM362 9q0 -16 -16 -16t-16 16t16 16
t16 -16z" />
  </g>

</svg>
