<?xml version="1.0" standalone="no"?>
<!DOCTYPE svg PUBLIC "-//W3C//DTD SVG 1.1//EN" "http://www.w3.org/Graphics/SVG/1.1/DTD/svg11.dtd" >
<svg viewBox="0 -442 2048 2048">
  <g transform="matrix(1 0 0 -1 0 1606)">
   <path fill="currentColor"
d="M1578 -244q0 -148 -138 -148h-1252q-138 0 -138 148v1652q0 148 138 148h1252q138 0 138 -148v-1652zM1544 -244v1652q0 114 -104 114h-1252q-104 0 -104 -114v-1652q0 -114 104 -114h1252q104 0 104 114zM1306 1266q0 -88 -62.5 -150t-150.5 -62t-150 62t-62 150
t62 150.5t150 62.5t150.5 -62.5t62.5 -150.5zM1306 808q0 -88 -62.5 -150.5t-150.5 -62.5t-150 62.5t-62 150.5t62 150t150 62t150.5 -62t62.5 -150zM747 1266q0 -88 -62 -150t-150 -62t-150.5 62t-62.5 150t62.5 150.5t150.5 62.5t150 -62.5t62 -150.5zM1306 349
q0 -88 -62.5 -150.5t-150.5 -62.5t-150 62.5t-62 150.5t62 150t150 62t150.5 -62t62.5 -150zM747 808q0 -88 -62 -150.5t-150 -62.5t-150.5 62.5t-62.5 150.5t62.5 150t150.5 62t150 -62t62 -150zM1306 -110q0 -88 -62.5 -150t-150.5 -62t-150 62t-62 150t62 150.5t150 62.5
t150.5 -62.5t62.5 -150.5zM747 349q0 -88 -62 -150.5t-150 -62.5t-150.5 62.5t-62.5 150.5t62.5 150t150.5 62t150 -62t62 -150zM747 -110q0 -88 -62 -150t-150 -62t-150.5 62t-62.5 150t62.5 150.5t150.5 62.5t150 -62.5t62 -150.5zM1291 1266q0 82 -58 139.5t-140 57.5
t-139.5 -57.5t-57.5 -139.5t57.5 -139.5t139.5 -57.5t140 57.5t58 139.5zM1291 808q0 82 -58 139.5t-140 57.5t-139.5 -57.5t-57.5 -139.5t57.5 -140t139.5 -58t140 58t58 140zM732 1266q0 82 -57.5 139.5t-139.5 57.5t-140 -57.5t-58 -139.5t58 -139.5t140 -57.5
t139.5 57.5t57.5 139.5zM1291 349q0 82 -58 139.5t-140 57.5t-139.5 -57.5t-57.5 -139.5t57.5 -139.5t139.5 -57.5t140 57.5t58 139.5zM732 808q0 82 -57.5 139.5t-139.5 57.5t-140 -57.5t-58 -139.5t58 -140t140 -58t139.5 58t57.5 140zM1291 -110q0 82 -58 139.5
t-140 57.5t-139.5 -57.5t-57.5 -139.5t57.5 -139.5t139.5 -57.5t140 57.5t58 139.5zM732 349q0 82 -57.5 139.5t-139.5 57.5t-140 -57.5t-58 -139.5t58 -139.5t140 -57.5t139.5 57.5t57.5 139.5zM732 -110q0 82 -57.5 139.5t-139.5 57.5t-140 -57.5t-58 -139.5t58 -139.5
t140 -57.5t139.5 57.5t57.5 139.5zM1268 1266q0 -72 -51.5 -123t-123.5 -51t-123 51t-51 123t51 123.5t123 51.5t123.5 -51.5t51.5 -123.5zM1268 808q0 -72 -51.5 -123.5t-123.5 -51.5t-123 51.5t-51 123.5t51 123t123 51t123.5 -51t51.5 -123zM709 1266q0 -72 -51 -123
t-123 -51t-123.5 51t-51.5 123t51.5 123.5t123.5 51.5t123 -51.5t51 -123.5zM1268 349q0 -72 -51.5 -123t-123.5 -51t-123 51t-51 123t51 123t123 51t123.5 -51t51.5 -123zM709 808q0 -72 -51 -123.5t-123 -51.5t-123.5 51.5t-51.5 123.5t51.5 123t123.5 51t123 -51t51 -123
zM1268 -110q0 -72 -51.5 -123t-123.5 -51t-123 51t-51 123t51 123t123 51t123.5 -51t51.5 -123zM709 349q0 -72 -51 -123t-123 -51t-123.5 51t-51.5 123t51.5 123t123.5 51t123 -51t51 -123zM709 -110q0 -72 -51 -123t-123 -51t-123.5 51t-51.5 123t51.5 123t123.5 51
t123 -51t51 -123zM1252 1266q0 66 -46.5 112.5t-112.5 46.5t-112.5 -46.5t-46.5 -112.5t46.5 -112.5t112.5 -46.5t112.5 46.5t46.5 112.5zM1252 808q0 66 -46.5 112.5t-112.5 46.5t-112.5 -46.5t-46.5 -112.5t46.5 -113t112.5 -47t112.5 47t46.5 113zM694 1266
q0 66 -46.5 112.5t-112.5 46.5t-112.5 -46.5t-46.5 -112.5t46.5 -112.5t112.5 -46.5t112.5 46.5t46.5 112.5zM1252 349q0 66 -46.5 112.5t-112.5 46.5t-112.5 -46.5t-46.5 -112.5t46.5 -112.5t112.5 -46.5t112.5 46.5t46.5 112.5zM694 808q0 66 -46.5 112.5t-112.5 46.5
t-112.5 -46.5t-46.5 -112.5t46.5 -113t112.5 -47t112.5 47t46.5 113zM1252 -110q0 66 -46.5 112.5t-112.5 46.5t-112.5 -46.5t-46.5 -112.5t46.5 -112.5t112.5 -46.5t112.5 46.5t46.5 112.5zM694 349q0 66 -46.5 112.5t-112.5 46.5t-112.5 -46.5t-46.5 -112.5t46.5 -112.5
t112.5 -46.5t112.5 46.5t46.5 112.5zM694 -110q0 66 -46.5 112.5t-112.5 46.5t-112.5 -46.5t-46.5 -112.5t46.5 -112.5t112.5 -46.5t112.5 46.5t46.5 112.5zM1243 1265q0 -42 -44 -42h-30q21 -36 21 -49q0 -44 -45 -44q-24 0 -52 49q-27 -48 -52 -48q-45 0 -45 42
q0 12 22 50h-30q-45 0 -45 44q0 43 45 43h30q-21 36 -21 49q0 44 45 44q23 0 51 -50q28 49 53 49q45 0 45 -42q0 -12 -22 -50h30q44 0 44 -45zM1243 806q0 -42 -44 -42h-30q21 -36 21 -49q0 -44 -45 -44q-24 0 -52 49q-27 -48 -52 -48q-45 0 -45 42q0 12 22 50h-30
q-45 0 -45 45q0 42 45 42h30q-21 36 -21 49q0 44 45 44q23 0 51 -49q27 48 53 48q45 0 45 -42q0 -12 -22 -50h30q44 0 44 -45zM685 1265q0 -42 -45 -42h-30q21 -36 21 -49q0 -44 -45 -44q-23 0 -51 49q-27 -48 -53 -48q-45 0 -45 42q0 12 22 50h-30q-44 0 -44 44q0 43 44 43
h30q-21 36 -21 49q0 44 45 44q24 0 52 -50q28 49 52 49q45 0 45 -42q0 -12 -22 -50h30q45 0 45 -45zM1243 348q0 -43 -44 -43h-30q21 -36 21 -49q0 -44 -45 -44q-24 0 -52 50q-28 -49 -52 -49q-45 0 -45 42q0 12 22 50h-30q-45 0 -45 45q0 42 45 42h30q-21 36 -21 49
q0 44 45 44q23 0 51 -49q27 48 53 48q45 0 45 -41q0 -13 -22 -51h30q44 0 44 -44zM685 806q0 -42 -45 -42h-30q21 -36 21 -49q0 -44 -45 -44q-23 0 -51 49q-27 -48 -53 -48q-45 0 -45 42q0 12 22 50h-30q-44 0 -44 45q0 42 44 42h30q-21 36 -21 49q0 44 45 44q24 0 52 -49
q27 48 52 48q45 0 45 -42q0 -12 -22 -50h30q45 0 45 -45zM1243 -111q0 -42 -44 -42h-30q21 -36 21 -49q0 -44 -45 -44q-24 0 -52 49q-27 -48 -52 -48q-45 0 -45 41q0 13 22 51h-30q-45 0 -45 44q0 43 45 43h30q-21 36 -21 49q0 44 45 44q23 0 51 -50q28 49 53 49
q45 0 45 -42q0 -12 -22 -50h30q44 0 44 -45zM685 348q0 -43 -45 -43h-30q21 -36 21 -49q0 -44 -45 -44q-23 0 -51 50q-28 -49 -53 -49q-45 0 -45 42q0 12 22 50h-30q-44 0 -44 45q0 42 44 42h30q-21 36 -21 49q0 44 45 44q24 0 52 -49q27 48 52 48q45 0 45 -41
q0 -13 -22 -51h30q45 0 45 -44zM685 -111q0 -42 -45 -42h-30q21 -36 21 -49q0 -44 -45 -44q-23 0 -51 49q-27 -48 -53 -48q-45 0 -45 41q0 13 22 51h-30q-44 0 -44 44q0 43 44 43h30q-21 36 -21 49q0 44 45 44q24 0 52 -50q28 49 52 49q45 0 45 -42q0 -12 -22 -50h30
q45 0 45 -45zM1228 1266q0 29 -29 29h-57l29 48q5 8 5 17q0 27 -30 27q-15 0 -24 -15l-29 -49l-28 49q-9 15 -23 15q-30 0 -30 -28q0 -9 4 -16l28 -48h-56q-29 0 -29 -29q0 -28 29 -28h56l-28 -49q-5 -9 -5 -17q0 -26 29 -26q16 0 25 15l28 49l29 -49q9 -16 23 -16
q30 0 30 29q0 8 -4 15l-29 49h57q29 0 29 28zM1228 808q0 28 -29 28h-57l29 49q5 8 5 16q0 27 -30 27q-15 0 -24 -15l-29 -49l-28 49q-9 16 -23 16q-30 0 -30 -29q0 -8 4 -15l28 -49h-56q-29 0 -29 -28q0 -29 29 -29h56l-28 -49q-5 -9 -5 -16q0 -27 29 -27q16 0 25 15l28 49
l29 -49q9 -16 23 -16q30 0 30 29q0 8 -4 15l-29 49h57q29 0 29 29zM669 1266q0 29 -29 29h-56l28 48q5 9 5 17q0 27 -29 27q-16 0 -25 -15l-28 -49l-29 49q-9 15 -23 15q-30 0 -30 -28q0 -9 4 -16l29 -48h-57q-29 0 -29 -29q0 -28 29 -28h57l-29 -49q-5 -8 -5 -17
q0 -26 30 -26q15 0 24 15l29 49l28 -49q9 -16 23 -16q30 0 30 29q0 8 -4 15l-28 49h56q29 0 29 28zM1228 349q0 28 -29 28h-57l29 49q5 8 5 17q0 26 -30 26q-15 0 -24 -15l-29 -49l-28 49q-9 16 -23 16q-30 0 -30 -29q0 -8 4 -15l28 -49h-56q-29 0 -29 -28t29 -28h56
l-28 -49q-5 -9 -5 -17q0 -27 29 -27q16 0 25 15l28 49l29 -49q9 -15 23 -15q30 0 30 28q0 9 -4 16l-29 49h57q29 0 29 28zM669 808q0 28 -29 28h-56l28 49q5 9 5 16q0 27 -29 27q-16 0 -25 -15l-28 -49l-29 49q-9 16 -23 16q-30 0 -30 -29q0 -8 4 -15l29 -49h-57
q-29 0 -29 -28q0 -29 29 -29h57l-29 -49q-5 -8 -5 -16q0 -27 30 -27q15 0 24 15l29 49l28 -49q9 -16 23 -16q30 0 30 29q0 8 -4 15l-28 49h56q29 0 29 29zM1228 -110q0 28 -29 28h-57l29 49q5 8 5 17q0 27 -30 27q-15 0 -24 -15l-29 -49l-28 49q-9 15 -23 15q-30 0 -30 -28
q0 -9 4 -16l28 -49h-56q-29 0 -29 -28t29 -28h56l-28 -49q-5 -9 -5 -17q0 -26 29 -26q16 0 25 15l28 49l29 -49q9 -16 23 -16q30 0 30 29q0 8 -4 15l-29 49h57q29 0 29 28zM669 349q0 28 -29 28h-56l28 49q5 9 5 17q0 26 -29 26q-16 0 -25 -15l-28 -49l-29 49q-9 16 -23 16
q-30 0 -30 -29q0 -8 4 -15l29 -49h-57q-29 0 -29 -28t29 -28h57l-29 -49q-5 -8 -5 -17q0 -27 30 -27q15 0 24 15l29 49l28 -49q9 -15 23 -15q30 0 30 28q0 9 -4 16l-28 49h56q29 0 29 28zM669 -110q0 28 -29 28h-56l28 49q5 9 5 17q0 27 -29 27q-16 0 -25 -15l-28 -49
l-29 49q-9 15 -23 15q-30 0 -30 -28q0 -9 4 -16l29 -49h-57q-29 0 -29 -28t29 -28h57l-29 -49q-5 -8 -5 -17q0 -26 30 -26q15 0 24 15l29 49l28 -49q9 -16 23 -16q30 0 30 29q0 8 -4 15l-28 49h56q29 0 29 28zM1139 1266q0 -46 -46 -46t-46 46t46 46t46 -46zM1139 808
q0 -46 -46 -46t-46 46q0 45 46 45t46 -45zM581 1266q0 -46 -46 -46t-46 46t46 46t46 -46zM1139 349q0 -46 -46 -46t-46 46t46 46t46 -46zM581 808q0 -46 -46 -46t-46 46q0 45 46 45t46 -45zM1139 -110q0 -46 -46 -46t-46 46t46 46t46 -46zM581 349q0 -46 -46 -46t-46 46
t46 46t46 -46zM581 -110q0 -46 -46 -46t-46 46t46 46t46 -46zM1124 1266q0 31 -31 31q-30 0 -30 -31q0 -30 30 -30q31 0 31 30zM1124 808q0 30 -31 30q-30 0 -30 -30q0 -31 30 -31q31 0 31 31zM565 1266q0 31 -30 31q-31 0 -31 -31q0 -30 31 -30q30 0 30 30zM1124 349
q0 30 -31 30q-30 0 -30 -30q0 -31 30 -31q31 0 31 31zM565 808q0 30 -30 30q-31 0 -31 -30q0 -31 31 -31q30 0 30 31zM1124 -110q0 31 -31 31q-30 0 -30 -31q0 -30 30 -30q31 0 31 30zM565 349q0 30 -30 30q-31 0 -31 -30q0 -31 31 -31q30 0 30 31zM565 -110q0 31 -30 31
q-31 0 -31 -31q0 -30 31 -30q30 0 30 30zM1109 1266q0 -15 -16 -15q-15 0 -15 15q0 16 15 16q16 0 16 -16zM1109 808q0 -16 -16 -16q-15 0 -15 16q0 15 15 15q16 0 16 -15zM550 1266q0 -15 -15 -15q-16 0 -16 15q0 16 16 16q15 0 15 -16zM1109 349q0 -15 -16 -15
q-15 0 -15 15t15 15q16 0 16 -15zM550 808q0 -16 -15 -16q-16 0 -16 16q0 15 16 15q15 0 15 -15zM1109 -110q0 -15 -16 -15q-15 0 -15 15t15 15q16 0 16 -15zM550 349q0 -15 -15 -15q-16 0 -16 15t16 15q15 0 15 -15zM550 -110q0 -15 -15 -15q-16 0 -16 15t16 15
q15 0 15 -15z" />
  </g>

</svg>
