<?xml version="1.0" standalone="no"?>
<!DOCTYPE svg PUBLIC "-//W3C//DTD SVG 1.1//EN" "http://www.w3.org/Graphics/SVG/1.1/DTD/svg11.dtd" >
<svg viewBox="0 -442 2048 2048">
  <g transform="matrix(1 0 0 -1 0 1606)">
   <path fill="currentColor"
d="M1578 -244q0 -148 -138 -148h-1252q-138 0 -138 148v1652q0 148 138 148h1252q138 0 138 -148v-1652zM1283 1199l-3 323h-83l-11 -162q0 -18 47 -88q25 -36 50 -73zM1544 792v616q0 114 -104 114h-145v-259q-2 -24 -5 -48q-3 -45 6 -65q29 -65 116 -178
q106 -138 132 -180zM1076 1444q-67 78 -73 78h-132l72 -150q11 28 60 48q36 12 73 24zM1544 519v229q0 2 -36 27t-42 34q-37 70 -105 187q-38 54 -103 152q-28 47 -53 85q-37 50 -102 142q-25 -1 -56 -21q-35 -23 -35 -49q0 -33 18 -48q39 -31 59 -58q134 -182 187 -268
q14 -28 42 -78q36 -49 89 -128q54 -72 137 -206zM1330 591v12q-6 46 -9 134q2 41 1 43q-27 52 -113 181q-4 7 -16 7l-7 -420q21 13 62 30q32 7 82 13zM1544 -244v436q-3 13 -4 39q1 1 3 0q0 1 1 3v218q-21 -5 -45 -14q-16 71 -74 172l-94 160v-65q0 -5 7 -60.5t7 -59.5
q0 -20 -16 -20q-4 0 -18.5 3.5t-18.5 3.5q-40 0 -89 -38q95 21 94 21q23 0 55 -26q-12 0 -35.5 4t-26.5 4q-37 0 -66 -21q-8 -6 -51 -50q-3 3 -2 6q0 14 11 32l14 22q-12 0 -19 -7l-6 404q0 42 1 51q7 9 17 25l-226 299q51 113 127 113q27 0 40 -13q18 -24 37 -47q3 40 3 86
q0 45 -3 85h-133q24 -32 74 -88q-46 -17 -92 -35q-57 -25 -57 -70q0 -7 1 -14q-3 0 -19 -3q-69 156 -107 210h-646q-104 0 -104 -114v-871q170 81 277 81q8 0 9 -1q-50 -38 -135 -59q-76 -18 -151 -36v-102q122 105 271 172q36 16 65 16q9 0 26 -3.5t20 -3.5q8 0 100.5 37
t125.5 37q-11 0 36 -13v-38q-38 -21 -71 -32q42 -27 56 -27q4 0 28.5 3.5t28.5 3.5q25 0 48 -12l38 -22h34l-131 106q58 -22 143 -101q97 -90 105 -154q97 -5 178 -36q0 22 -1 27q-4 17 -4 32q0 50 35 80q31 27 75 27q60 0 68 -30q10 -36 12 -99q2 -50 4 -99q8 -106 14 -202
q3 -38 7 -102q2 -55 11 -160q1 -16 10 -155q1 -16 24 -30q104 0 104 114zM1408 -350q-7 12 -16 33q-2 48 -6 134q-2 36 -11 111q-9 71 -9 72v146q0 70 -33 305q-4 29 -59 29q-71 0 -71 -67q0 -3 15 -91q17 -99 22.5 -143t16.5 -277q5 -51 10 -110v-150q88 6 141 8z
M1245 -358v108l-17 145l-4 198q-4 77 -30 219q-30 9 -78 25q-128 44 -196 44l-157 -5q51 -20 111 -38q31 -9 73 -62l58 -78q51 -62 51 -86q0 -15 -1 -17q-46 63 -119 109q-64 37 -128 73q-23 9 -56 33q-5 21 -18 64h-33q-82 0 -291 -103v-70q4 25 27 25q17 0 22 -3v-147
q-1 -82 -37 -234q-5 -23 -31 -23q-1 0 -7 6l-35 247q-3 32 11 52l45 64q0 8 -5 9l-265 -269q15 112 182 286l-171 -109q-6 6 -6 12q72 49 257 152q26 16 68 40q71 32 193 62q130 31 206 31q67 0 128 -9q-40 100 -100 126q-10 -10 -14 -10q-3 0 -12 5t-13 5q-7 0 -21 -10
q-17 -12 -22 -14q-85 -28 -234 -78q-22 -8 -60 -21q-153 -57 -235 -111q60 131 400 275q-40 30 -56 30q-25 0 -247 -118q-23 -17 -76 -52l153 169h-20q-48 -43 -114 -97q-80 -42 -237 -126v-122q61 20 68 20q34 0 89 -4q16 -1 41 -9v-13q0 -31 -116 -53q-29 -7 -82 -17v-98
q24 -2 24 -23q0 -12 -24 -27q-1 -37 0 -40q5 -10 12 -29q12 -98 12 -113v-145q7 -15 37 -33t43 -18h1057zM912 1291l-116 87q34 -9 90 -56q2 -2 2 6l-13 26q28 -18 37 -63zM724 1265q0 -15 -16 -19q-50 -7 -154 -25q15 -9 49 -30v-256l4 -28q2 -15 -7 -27q-57 17 -99 88
q13 -3 34 -3q33 0 33 67q0 150 -37 188h-35q-23 -48 -79 -85q115 204 115 292q0 16 -2 30h22q11 0 48 -37l-92 -177q5 -5 12 -5l156 46q20 -5 48 -19zM430 1229q-16 -18 -53 -29q-52 -14 -60 -18q5 -11 13 -30q5 -13 5 -51q0 -37 -9 -96q-9 -69 -21 -79q-20 9 -23 50l21 155
q-5 57 -43 57q-8 0 -11 -1q-56 -79 -107 -94q76 106 106 162q52 94 55 166h22q14 0 38 -42l-106 -171q2 -2 7 -2q4 0 66.5 17.5t66.5 17.5q16 0 33 -12zM685 266l-183 -391q12 86 22 278q4 67 30 119q36 71 102 80q-3 -9 -14 -26q13 -26 43 -19v-41z" />
  </g>

</svg>
