<?xml version="1.0" standalone="no"?>
<!DOCTYPE svg PUBLIC "-//W3C//DTD SVG 1.1//EN" "http://www.w3.org/Graphics/SVG/1.1/DTD/svg11.dtd" >
<svg viewBox="0 -442 2048 2048">
  <g transform="matrix(1 0 0 -1 0 1606)">
   <path fill="currentColor"
d="M1578 -244q0 -148 -138 -148h-1252q-138 0 -138 148v1652q0 148 138 148h1252q138 0 138 -148v-1652zM1544 -244v1652q0 114 -104 114h-1252q-104 0 -104 -114v-1652q0 -114 104 -114h1252q104 0 104 114zM750 1330l-191 -39q-4 0 -12.5 1.5t-13.5 1.5q-14 0 -34 -19
q-45 -42 -47 -44l56 102q32 62 32 99q0 11 -2 21h23q17 0 37 -35l-63 -108q2 -2 14 -2q4 0 84 23t84 23q9 0 33 -8v-16zM839 1132h-125q-17 -85 -17 -97v-14q28 -9 56 -17q36 -12 40 -34q-5 -5 -16 -5q7 0 -81 22l-24 -72q-17 -45 -55 -63q-13 24 -36 70q18 -6 35 -6
q16 0 29 28q10 22 10 34v23h-157q-1 0 -65 -22q-5 5 -5 16q0 5 35 51q13 18 26 42v12q-39 -8 -38 -8q-13 0 -30 17q53 8 77 15q21 74 5 109q29 -1 44 2q21 4 70 18q43 13 47 13q28 0 62 -37q-18 -34 -15 -64q13 -12 22 -12q4 0 27 7t27 7q21 0 52 -35zM435 1142h-33
q-3 0 -26 34q6 0 19 2.5t17 2.5q14 0 23 -19v-20zM435 1279q-2 -13 -25 -24q-19 -8 -38 -17q-4 -21 -4 -27v-291q0 -5 -19 -43q-32 22 -27 51l25 180q-1 22 -6 69q-74 -140 -160 -179q126 153 156 230q-17 0 -56.5 -7.5t-41.5 -7.5q-9 0 -37 14q51 13 145 52v116
q-8 19 -24 58h25q6 0 41 -26l-21 -138q8 -7 30 -8q34 -1 37 -2zM1369 249q0 -92 -65.5 -157.5t-157.5 -65.5q-35 0 -69 11q43 -59 43 -132q0 -92 -65.5 -157.5t-157.5 -65.5t-157.5 66t-65.5 158q-67 -92 -181 -92q-92 0 -157.5 65t-65.5 157q0 73 42.5 132t111.5 81
q-69 22 -111.5 81t-42.5 131q0 92 65.5 157.5t157.5 65.5q114 0 181 -92q0 92 65.5 157.5t157.5 65.5t157.5 -65.5t65.5 -157.5q0 -72 -43 -131q34 11 69 11q92 0 157.5 -65.5t65.5 -157.5zM672 1146v76q-16 16 -30 16q-4 0 -43 -8q-42 -9 -60 -11q-7 -59 -15 -91
q51 7 148 18zM668 1022q-2 5 0 37v68q-51 -7 -147 -22q-13 -30 -32 -83h179zM1339 249q0 80 -56.5 136.5t-136.5 56.5q-62 0 -113 -37q-9 14 -23 31q80 58 80 156q0 80 -56.5 136.5t-136.5 56.5t-136.5 -56.5t-56.5 -136.5q0 -31 9 -59q-16 -4 -36 -12q-19 59 -70.5 96
t-113.5 37q-80 0 -136.5 -56.5t-56.5 -136.5t56.5 -136.5t136.5 -56.5q-1 -15 -1 -19t1 -19q-80 0 -136.5 -57t-56.5 -137t56.5 -136t136.5 -56q62 0 113.5 37t70.5 96q20 -8 36 -12q-9 -28 -9 -60q0 -80 56.5 -136.5t136.5 -56.5t136.5 56.5t56.5 136.5q0 98 -80 156
q14 17 23 31q50 -36 113 -36q80 0 136.5 56.5t56.5 136.5zM626 1179q0 -18 -8 -26q-31 8 -30 30v22h12q7 0 16.5 -9.5t9.5 -16.5zM605 1062q0 -9 -7 -26q-8 -2 -19.5 9t-11.5 18v33q38 -7 38 -34zM1008 249q0 -92 -65.5 -157.5t-157.5 -65.5t-157.5 65.5t-65.5 157.5
t65.5 157.5t157.5 65.5t157.5 -65.5t65.5 -157.5zM978 249q0 80 -56.5 136.5t-136.5 56.5t-136.5 -56.5t-56.5 -136.5t56.5 -136.5t136.5 -56.5t136.5 56.5t56.5 136.5z" />
  </g>

</svg>
