<?xml version="1.0" standalone="no"?>
<!DOCTYPE svg PUBLIC "-//W3C//DTD SVG 1.1//EN" "http://www.w3.org/Graphics/SVG/1.1/DTD/svg11.dtd" >
<svg viewBox="0 -442 2048 2048">
  <g transform="matrix(1 0 0 -1 0 1606)">
   <path fill="currentColor"
d="M1578 -244q0 -148 -138 -148h-1252q-138 0 -138 148v1652q0 148 138 148h1252q138 0 138 -148v-1652zM1544 -244v1652q0 114 -104 114h-1252q-104 0 -104 -114v-1652q0 -114 104 -114h1252q104 0 104 114zM807 1264q-103 -62 -112 -61h-15q73 96 71 113q27 -15 33 -20
q20 -16 23 -32zM892 901q-30 -12 -60 -12q-68 0 -96 28q-16 16 -40 78q-27 68 -64 116q-22 -67 -82 -135q-65 -73 -120 -80q-4 6 -3 9q25 17 70 55q119 128 119 379q0 97 -21 121h33q22 2 43 -21q6 -6 5 -19l-42 -265q21 -62 91 -138q76 -82 144 -102q8 -5 23 -14zM563 1182
q0 1 -11 -32q-20 4 -40 36q-16 26 -16 36q0 4 5 9q17 1 39.5 -15t22.5 -34zM489 1413l-106 -57q8 -8 32 -23q-14 -86 -14 -67q0 -8 6 -14h9q4 0 19.5 9t20.5 9q-2 0 22 -12q-8 -16 -33 -22q-29 -6 -38 -16q-12 -13 -11 -39q1 -44 1 -43q3 -2 52 -13q37 -8 37 -35
q0 -13 -13 -25q-37 25 -70 53q-9 -18 -9 -44v-152q0 -19 -26 -97q-27 11 -27 58q0 8 13 78q15 81 15 134q0 42 -6 66q-11 -25 -42 -74q-13 -15 -68 -62q-59 -51 -70 -51h-19q166 131 187 230q-1 2 -14 2q-4 0 -55.5 -15.5t-55.5 -15.5q-21 0 -51 30l191 33v104q-2 2 -11 2
q1 0 -81 -24q42 29 85 58q48 36 61 72q27 -11 69 -37zM1410 550q-50 -20 -119 -65q-104 -66 -113 -71q22 -10 45 -20q30 -14 38 -33q17 -40 36 -114q-15 1 -20 -3q17 -28 15 -65q-1 -43 5 -60h-21q-5 -19 -1 -49q-16 -9 -21 -33q-3 -19 -7 -38q-24 19 -77 49
q2 -18 -15.5 -53t-16.5 -56l-18 17q-69 -92 -68 -92q-5 0 -28 15q-6 -10 -21 -28q-1 -1 -24 -5q-15 -15 -40 -45l-10 11l-143 -103q35 88 35 113q0 2 -9 5q-3 21 6 40q0 1 -5.5 4t-5.5 8q0 4 7 20t7 20q0 1 -5 14q-1 1 -15 3q-14 14 -32 70q-19 -14 -60 -46q2 17 0 25
q-26 -15 -34 -15q-4 0 -8 3.5t-8 3.5t-18 -8.5t-18 -8.5t-9.5 3.5t-9.5 3.5q12 0 -83 -21q14 44 14 35q0 8 -13 21q-20 -10 -43 -10q-4 0 -14.5 3.5t-14.5 3.5q11 0 -45 -14q1 21 -4 21q-4 0 -27 -4t-34 -5q-3 0 -10.5 -4.5t-11.5 -4.5t-10.5 2t-10.5 2q-2 0 -76 -21
q37 35 96 108q16 15 44 42q-4 17 13.5 50t36.5 45q-9 13 -49 13q13 29 29 51q2 3 21 18q-3 15 16.5 25t22.5 16q0 2 -4 8q17 19 50 54l42 30q-30 34 -96 96q7 3 21 14q-8 7 -64 44q0 1 4 5q-65 33 -113 50q14 0 47 -1t35 -1q7 0 64 16q16 1 49 2q7 10 7 20q13 1 43 -3
q3 3 -4 10h67q0 -5 -11 44q10 -1 31 -4.5t25 -3.5t10.5 3.5t11.5 3.5q6 0 33 -10q5 2 14 21q28 -14 27 -14q3 0 7.5 1.5t9.5 1.5l33 -11q0 21 -7 85h43q4 0 26 -10.5t26 -10.5t5 2t5 2q3 0 16.5 -11t18.5 -11q4 0 6.5 2t6.5 2q2 0 21 -21q-1 -2 -1 24q23 -17 62 -49
q2 -5 7 -17q2 -1 18 -1q7 -19 24 -56q9 8 17 25q15 -17 39 -51q16 -29 16 -59q0 -16 -32 -114q6 -6 7 -6q31 0 296 159v-49zM1266 154v27q0 4 -14 38.5t-14 38.5q0 12 21 24q-7 23 -26 65q-12 21 -116 48q-3 6 -8 15q-13 3 -17 6q-17 12 -17 29q0 4 16 56.5t16 56.5
q0 9 -7.5 32.5t-15.5 26.5q-16 -13 -28 -18q-8 22 -32 63q-11 4 -26 17q-3 11 -13 26q-11 -11 -19 -11t-36 34q-8 0 -18 2q-27 17 -26 17q-4 0 -4 -1.5t-4 -1.5q-13 0 -56 17q0 4 6 -44q4 -30 -6 -44h-23q-2 0 -20.5 10.5t-22.5 10.5t-25.5 -3.5t-25.5 -3.5q-5 0 -15 3
t-12 3q-8 1 -23 -1q-18 -2 -21 -2q6 -12 2 -18q-7 -10 -111 -32l-10 -20q-21 7 -35 7q-5 0 -18.5 -2.5t-17.5 -2.5q-11 -7 -11 -12q20 -6 29 -20q-2 -8 7 -15q29 -16 41 -34q-15 -15 -14 -19q30 -33 85 -98q-87 -70 -85 -97q-61 -34 -81 -73q17 -8 46 -24q-20 -19 -52 -59
q-4 -11 -14 -29q-1 -7 9 -25q-22 -18 -58 -52q-7 -15 -23 -37q12 6 21 6q5 0 8.5 -3.5t7.5 -3.5t30 9t30 9q3 0 10 -18q28 7 29 7q4 0 12.5 -5.5t12.5 -5.5q16 0 25.5 13t16.5 16q25 -35 49 -71q21 14 34 14q4 0 6.5 -1.5t6.5 -1.5q5 0 21 15q20 20 24 23q7 -6 14 -24
q14 8 43 24q10 -10 15 -10q29 28 45 39q10 -32 34 -95h25q9 -26 5 -55q-4 -32 -5 -22q9 -81 2 -100q44 36 81 59q5 1 14 2q12 16 35 45l10 -11q17 22 39 39q7 -8 22 -18q25 36 77 101q1 7 2 17q7 9 12 11q9 24 10 42q5 6 18 6q25 0 61 -28q6 12 17 36q0 22 5 66h18z
M1012 365q-51 -73 -121 -108q-40 -20 -126.5 -41t-129.5 -44q-8 8 -8 17l186 64q112 38 186 120q8 -8 13 -8z" />
  </g>

</svg>
