<?xml version="1.0" standalone="no"?>
<!DOCTYPE svg PUBLIC "-//W3C//DTD SVG 1.1//EN" "http://www.w3.org/Graphics/SVG/1.1/DTD/svg11.dtd" >
<svg viewBox="0 -442 2048 2048">
  <g transform="matrix(1 0 0 -1 0 1606)">
   <path fill="currentColor"
d="M1578 -244q0 -148 -138 -148h-1252q-138 0 -138 148v1652q0 148 138 148h1252q138 0 138 -148v-1652zM1544 -244v1652q0 114 -104 114h-1252q-104 0 -104 -114v-1652q0 -114 104 -114h1252q104 0 104 114zM694 1367q0 -4 -8 -12h-149q-18 -30 -38 -55q14 -9 34 -9
q4 0 39.5 8.5t39.5 8.5q31 0 52 -23q-2 3 -2 -13v-192l14 -141q0 -35 -41 -91q-24 26 -76 77q9 0 62 2q6 5 8 26q5 63 5 92q0 12 -4 120q-4 9 -34 9q-41 0 -70 -18q-14 9 -16 45l-2 56q-5 37 -12 37q-5 0 -9 -3t-5 -3q6 25 17 53q-9 3 -39 3q4 0 -61 -5q-8 -5 -8 -21
q1 -28 1 -27q-13 3 -22 26q-8 20 -21 16l-99 -18q-23 -3 -48 24q43 6 76 10q29 0 76 15q-12 19 -35 56q5 5 14 5q20 0 48 -18q2 -18 8 -49h19l96 15q10 12 13 42q2 22 4 45h11q6 0 41 -26q-6 -13 -24 -49q15 -8 47 -1q44 9 50 9q29 0 48 -26zM570 1116l-47 -98
q-21 14 -34 14q-22 0 -39 -9q1 13 3 -77q1 -50 -12 -73q-21 16 -21 38q0 9 4.5 26.5t4.5 26.5v19q1 0 -6 7q-51 -55 -115 -70q28 22 99 93q-1 2 -16 2t-32 -11q-33 88 -33 87v15h100q1 8 6 23q-14 6 -43 19q9 0 26 8.5t17 17.5q0 14 -14 42q30 -8 45 -15q0 4 -7 -38
q-4 -1 43 -1q-9 -4 -42 -29q6 -12 17 -12q4 0 27.5 7t27.5 7q25 0 41 -19zM552 941q-35 8 -92 55h30q13 1 62 -32v-23zM400 1262q-12 -26 -19 -65q-5 -33 -10 -65q-17 3 -47 3q-27 0 -47 -13q0 -2 -6 -116q-3 -75 -21 -131q-27 15 -27 48q0 2 7.5 27t9.5 42q8 88 8 134
q0 95 -17 143q21 0 36 -1.5t16 -1.5q4 0 36.5 7t36.5 7q6 0 44 -18zM1440 279q0 -119 -72 -225q-80 -118 -194 -118q-68 0 -101 50l-64 136q-48 100 -88 100q-35 0 -34 -48l2 -5q13 18 55 31q-6 -11 -6 -15q0 -29 19 -71.5t19 -64.5q0 -13 -21 -25l-32 -16q15 -6 30.5 -31
t15.5 -41q0 -15 -32 -68.5t-32 -57.5q0 -16 20 -16q33 0 66 73q26 57 34 104q5 -21 5 -44q0 -65 -26 -120q-32 -69 -90 -69q-19 0 -55 19t-40 19t-40 -19t-55 -19q-58 0 -90 69q-26 55 -26 120q0 23 5 44q8 -47 34 -104q33 -73 66 -73q20 0 20 16q0 4 -32 57.5t-32 68.5
q0 16 15.5 41t30.5 31l-32 16q-21 12 -21 25q0 22 19 64.5t19 71.5q0 4 -6 15q21 -7 55 -31l2 5q1 48 -34 48q-40 0 -88 -100l-64 -136q-33 -50 -101 -50q-114 0 -194 118q-72 106 -72 225q0 140 86 251q92 120 228 120q92 0 155 -88q53 205 152 205t152 -205q63 88 155 88
q136 0 228 -120q86 -111 86 -251zM623 1192v65q0 23 -35 23q12 0 -16 -1q-8 -2 -17 -4q-10 -3 -16 5v-46q43 11 40 11q13 0 19 -19q-40 -14 -59 -14v-20h84zM520 1102q-6 12 -12 10q-24 -3 -51 -10q0 -28 -3 -52q40 1 59 1q0 1 7 51zM354 1206q0 4 -2 20.5t-2 22.5l4 6h-26
q-5 0 -23 -3.5t-24 -4.5q-8 -13 -8 -22q0 -4 2 -11t2 -8q35 7 43 7q24 0 27 -12q-42 -18 -74 -14q8 -28 7 -41q57 8 62 11q12 8 12 49zM431 1033v63q-27 -3 -69 -11q3 -49 0 -52q34 3 48 3q13 0 21 -3zM1418 284q0 123 -84 225q-88 109 -208 109q-76 0 -125 -58
q-26 -32 -71 -127q-41 -87 -76 -121l-4 -1q-8 0 -8 9q0 -1 54.5 96.5t54.5 129.5q0 35 -27.5 95t-55 78.5t-49.5 18.5t-49.5 -18.5t-55 -78.5t-27.5 -95q0 -32 54.5 -129.5t54.5 -96.5q0 -9 -8 -9l-4 1q-35 34 -76 121q-45 95 -71 127q-49 58 -125 58q-120 0 -208 -109
q-84 -102 -84 -225q0 -108 66 -210q74 -114 176 -114q63 0 103 73q30 68 60 137q37 73 92 73q41 0 55 -50l22 -84h50l22 84q14 50 55 50q55 0 92 -73q30 -68 60 -137q40 -73 103 -73q102 0 176 114q66 102 66 210zM951 60q0 8 -40 106q-9 -18 -9 -27q0 -15 18 -42t18 -35
q0 -10 -3 -10l-3 6q-26 51 -54 61q17 -26 17 -58q0 -17 -7 -26h48q15 13 15 25zM760 119q-28 -10 -54 -61l-3 -6q-3 0 -3 10q0 8 18 35t18 42q0 9 -9 27q-40 -98 -40 -106q0 -12 15 -25h48q-7 9 -7 26q0 32 17 58zM971 -192q-25 -32 -51 -32q-42 0 -42 29q0 6 33 65.5
t33 65.5q0 30 -30 56.5t-60 27.5q14 37 14 73q-7 -21 -13 -43q-11 -31 -24 -30q14 28 14 67h-52q0 -39 14 -67q-13 -1 -24 30q-6 22 -13 43q0 -36 14 -73q-30 -1 -60 -27.5t-30 -56.5q0 -6 33 -65.5t33 -65.5q0 -29 -42 -29q-26 0 -51 32q5 -47 57 -47q39 0 95 40
q56 -40 95 -40q52 0 57 47zM499 1091q-12 -17 -35 -33q6 13 15 41q4 0 20 -8zM410 1047h-16q-13 20 -18 34h19q11 -10 15 -10v-24z" />
  </g>

</svg>
