<?xml version="1.0" standalone="no"?>
<!DOCTYPE svg PUBLIC "-//W3C//DTD SVG 1.1//EN" "http://www.w3.org/Graphics/SVG/1.1/DTD/svg11.dtd" >
<svg viewBox="0 -442 2048 2048">
  <g transform="matrix(1 0 0 -1 0 1606)">
   <path fill="currentColor"
d="M1578 -244q0 -148 -138 -148h-1252q-138 0 -138 148v1652q0 148 138 148h1252q138 0 138 -148v-1652zM1544 -244v1652q0 114 -104 114h-1252q-104 0 -104 -114v-1652q0 -114 104 -114h1252q104 0 104 114zM899 982q-56 -19 -113 -19q-45 0 -52 4q-11 6 -89 74l-72 80
q-57 61 -84 61q-43 0 -62 -32l-44 -76q5 -20 24 -12l141 28q25 -15 75 -43q-5 -25 -9 -58q2 16 2 -45v-93q0 -21 -29 -65q-13 0 -26 31q-18 38 -32 51q-46 1 -108 -9q-13 -20 -21 -55q-24 9 -24 30l-6 214q-20 -20 -62 -56q-97 -73 -125 -71h-19q205 138 237 237q-5 3 -20 3
q-4 0 -49 -9t-49 -9q-30 0 -41 27q54 2 167 23q18 6 20 37v26q-12 -6 -88 2q33 3 89 20q12 8 21 53q-70 7 -106 7q0 4 -8 12q39 6 109 22q8 14 8 32q0 10 -6 41q-5 26 -1 40h15q15 0 52 -28q0 -1 -21 -65q10 -9 19 -9q4 0 56.5 14t56.5 14q13 0 37 -8v-12q-56 -13 -163 -45
q-5 -2 -14.5 -18.5t-9.5 -23.5v-14l6 -6q13 3 51 17q32 11 37 11h65q-14 -19 -65 -34q-24 -4 -81 -20q-34 -12 -34 -28v-25q1 -1 3 -2l235 46q12 -4 25 -8q18 -8 26 -30l-197 -28q193 -171 345 -189q0 -4 8 -12zM1308 732q-35 -34 -70 -67q-42 -44 -49 -75q-9 -108 -19 -215
q-23 -136 -128 -136q-101 0 -110 123q-34 -81 -114 -81q-116 0 -124 165l39 208q-4 93 -85 195l70 -34q47 -26 73 -61q41 73 121 117q-15 -37 -31 -75q-25 -63 -25 -95q0 -28 34 -119l36 -90q7 -28 14 -87q19 47 38 80q32 54 65 107q36 65 36 109q0 39 -13 106
q58 -56 89 -130q62 42 153 55zM1427 259q-23 -15 -46 -31q-31 -24 -44 -52q-29 -66 -94 -198q-17 -32 -115 -97q-48 -29 -133 -94q9 35 23 101q45 250 235 327q12 5 39 15q51 16 135 29zM1036 220q-35 -102 -35 -163v-137h-81v140q0 10 40 193q26 -11 76 -33zM1012 -300
l-66 -47q-17 21 -34 53q-67 126 -83 206q-37 188 -36 297v47q6 -10 15 -4q20 0 62 4q17 -220 28 -278q30 -161 114 -278zM1206 672q-34 -18 -75 -48q0 52 -23 88q6 -60 -41 -142q-34 -54 -67 -109q-38 -65 -38 -106q0 -84 82 -84q105 0 105 174v110q0 25 33 87q8 15 24 30z
M570 970q0 91 -46 92l-113 -19l1 -73q68 17 84 17q33 0 36 -15q-59 -20 -85 -20q-27 0 -35 3v-73q29 2 69 8q36 6 38 6q-11 0 47 -14q0 17 2 52t2 36zM909 419q0 49 -40.5 149t-40.5 135q0 31 13 76q-18 -26 -38 -71q1 -9 -2 -28q-18 32 -64 86q24 -70 24 -110
q0 -4 -19.5 -103.5t-19.5 -103.5q0 -51 21 -91q27 -49 73 -49q93 0 93 110zM1326 214h-13q-11 -5 -42 -17q-182 -70 -227 -325q132 71 178 124q27 31 56 107q34 88 48 111zM993 210q-2 0 -8 2t-8 2q-30 -106 -29 -147v-117h25v139q0 12 10.5 53.5t10.5 57.5q0 6 -1 10z
M969 -293q-69 116 -97 254q-19 93 -27 263q-4 0 -11.5 -1.5t-8.5 -1.5v-58q0 -5 2.5 -28t2.5 -29q12 -228 116 -403q6 -8 12 -8z" />
  </g>

</svg>
