<?xml version="1.0" standalone="no"?>
<!DOCTYPE svg PUBLIC "-//W3C//DTD SVG 1.1//EN" "http://www.w3.org/Graphics/SVG/1.1/DTD/svg11.dtd" >
<svg viewBox="0 -442 2048 2048">
  <g transform="matrix(1 0 0 -1 0 1606)">
   <path fill="currentColor"
d="M1099 -377q0 -50 -50 -50h-984q-50 0 -50 50v1918q0 50 50 50h984q50 0 50 -50v-1918zM1049 607v934h-984v-934h984zM1049 -377v934h-984v-934h984zM654 1074q0 -40 -28.5 -68.5t-68.5 -28.5t-68.5 28.5t-28.5 68.5t28.5 68.5t68.5 28.5t68.5 -28.5t28.5 -68.5zM979 390
q0 -40 -28.5 -68.5t-68.5 -28.5t-68.5 28.5t-28.5 68.5t28.5 68.5t68.5 28.5t68.5 -28.5t28.5 -68.5zM979 90q0 -40 -28.5 -68.5t-68.5 -28.5t-68.5 28.5t-28.5 68.5t28.5 68.5t68.5 28.5t68.5 -28.5t28.5 -68.5zM979 -210q0 -40 -28.5 -68.5t-68.5 -28.5t-68.5 28.5
t-28.5 68.5t28.5 68.5t68.5 28.5t68.5 -28.5t28.5 -68.5zM329 390q0 -40 -28.5 -68.5t-68.5 -28.5t-68.5 28.5t-28.5 68.5t28.5 68.5t68.5 28.5t68.5 -28.5t28.5 -68.5zM329 90q0 -40 -28.5 -68.5t-68.5 -28.5t-68.5 28.5t-28.5 68.5t28.5 68.5t68.5 28.5t68.5 -28.5
t28.5 -68.5zM329 -210q0 -40 -28.5 -68.5t-68.5 -28.5t-68.5 28.5t-28.5 68.5t28.5 68.5t68.5 28.5t68.5 -28.5t28.5 -68.5z" />
  </g>

</svg>
