<?xml version="1.0" standalone="no"?>
<!DOCTYPE svg PUBLIC "-//W3C//DTD SVG 1.1//EN" "http://www.w3.org/Graphics/SVG/1.1/DTD/svg11.dtd" >
<svg viewBox="0 -442 2048 2048">
  <g transform="matrix(1 0 0 -1 0 1606)">
   <path fill="currentColor"
d="M1578 -244q0 -148 -138 -148h-1252q-138 0 -138 148v1652q0 148 138 148h1252q138 0 138 -148v-1652zM1544 -244v1652q0 114 -104 114h-1252q-104 0 -104 -114v-1652q0 -114 104 -114h1252q104 0 104 114zM943 1164q0 -24 -17.5 -42.5t-41.5 -18.5t-44.5 16t-20.5 39
q9 -62 12 -77q9 -43 25 -73q-15 5 -42 5t-42 -5q21 39 37 150q0 -23 -20.5 -39t-44.5 -16t-41.5 18.5t-17.5 42.5q0 20 33 57l96 109l96 -109q33 -37 33 -57zM277 1324l-1 -72h-130q0 20 8 40q12 30 62 67q18 13 24.5 22.5t6.5 19.5q0 33 -33 33q-39 0 -36 -56h-27v9
q0 71 61 71q64 0 64 -55q0 -17 -12 -33q-6 -8 -50 -43q-35 -27 -38 -49h76l1 46h24zM1494 68q0 -12 -20 -35l-58 -66l-59 66q-20 22 -20 35q0 37 36 37q32 0 39 -26q-8 58 -22 84q9 -3 26 -3q16 0 25 3q-14 -26 -22 -84q7 26 40 26q35 0 35 -37zM291 1096q0 -37 -36 -37
q-32 0 -39 26q8 -58 22 -84q-9 3 -26 3q-16 0 -25 -3q14 26 22 84q-7 -26 -40 -26q-35 0 -35 37q0 12 20 35l58 66l59 -66q20 -22 20 -35zM1482 -88q0 -20 -8 -40q-12 -30 -62 -67q-18 -13 -24.5 -22.5t-6.5 -19.5q0 -33 33 -33q39 0 36 56h27v-9q0 -71 -61 -71
q-64 0 -64 55q0 17 12 33q6 8 50 43q35 27 38 49h-76l-1 -46h-24l1 72h130zM943 1q0 -20 -33 -57l-96 -109l-96 109q-33 37 -33 57q0 24 17.5 42t41.5 18t44.5 -16t20.5 -39q-9 63 -12 77q-9 44 -25 74q15 -5 42 -5t42 5q-21 -39 -37 -151q0 23 20.5 39t44.5 16t41.5 -18
t17.5 -42z" />
  </g>

</svg>
