<?xml version="1.0" standalone="no"?>
<!DOCTYPE svg PUBLIC "-//W3C//DTD SVG 1.1//EN" "http://www.w3.org/Graphics/SVG/1.1/DTD/svg11.dtd" >
<svg viewBox="0 -442 2048 2048">
  <g transform="matrix(1 0 0 -1 0 1606)">
   <path fill="currentColor"
d="M1578 -244q0 -148 -138 -148h-1252q-138 0 -138 148v1652q0 148 138 148h1252q138 0 138 -148v-1652zM1544 -244v1652q0 114 -104 114h-1252q-104 0 -104 -114v-1652q0 -114 104 -114h1252q104 0 104 114zM321 1252h-79v25h24l-16 46h-74l-16 -46h24v-25h-79v25h25
l54 155h-24v23h106v-23h-24l54 -155h25v-25zM1233 579q0 -78 -51 -133.5t-129 -55.5q-144 0 -217 163h-2q0 -355 315 -364l5 -33h-680l5 33q316 9 316 364h-3q-73 -163 -217 -163q-78 0 -129 55.5t-51 133.5q0 97 94 200q93 92 187 185q110 120 138 246q27 -126 138 -246
q94 -92 187 -185q94 -103 94 -200zM1494 68q0 -12 -20 -35l-58 -66l-59 66q-20 22 -20 35q0 37 36 37q32 0 39 -26q-8 58 -22 84q9 -3 26 -3q16 0 25 3q-14 -26 -22 -84q7 26 40 26q35 0 35 -37zM291 1096q0 -37 -36 -37q-32 0 -39 26q8 -58 22 -84q-9 3 -26 3q-16 0 -25 -3
q14 26 22 84q-7 -26 -40 -26q-35 0 -35 37q0 12 20 35l58 66l59 -66q20 -22 20 -35zM1523 -113h-25l-54 -155h24v-23h-106v23h24l-54 155h-25v25h79v-25h-24l16 -46h74l16 46h-24v25h79v-25zM243 1347l-28 85h-4l-28 -85h60zM1445 -183h-60l28 -85h4z" />
  </g>

</svg>
