<?xml version="1.0" standalone="no"?>
<!DOCTYPE svg PUBLIC "-//W3C//DTD SVG 1.1//EN" "http://www.w3.org/Graphics/SVG/1.1/DTD/svg11.dtd" >
<svg viewBox="0 -442 2048 2048">
  <g transform="matrix(1 0 0 -1 0 1606)">
   <path fill="currentColor"
d="M1578 -244q0 -148 -138 -148h-1252q-138 0 -138 148v1652q0 148 138 148h1252q138 0 138 -148v-1652zM1544 -244v1652q0 114 -104 114h-1252q-104 0 -104 -114v-1652q0 -114 104 -114h1252q104 0 104 114zM302 1252h-82v25h22l-64 81l66 71h-24v26h80v-26h-22l-62 -71
l64 -81h22v-25zM203 1429h-25v-152h23v-25h-80v25h25v152h-25v26h82v-26zM1494 68q0 -12 -20 -35l-58 -66l-59 66q-20 22 -20 35q0 37 36 37q32 0 39 -26q-8 58 -22 84q9 -3 26 -3q16 0 25 3q-14 -26 -22 -84q7 26 40 26q35 0 35 -37zM1296 -166h-964v1496h964v-1496z
M291 1096q0 -37 -36 -37q-32 0 -39 26q8 -58 22 -84q-9 3 -26 3q-16 0 -25 -3q14 26 22 84q-7 -26 -40 -26q-35 0 -35 37q0 12 20 35l58 66l59 -66q20 -22 20 -35zM1507 -291h-82v26h25v152h-23v25h80v-25h-25v-152h25v-26zM1450 -194l-66 -71h24v-26h-80v26h22l62 71
l-64 81h-22v25h82v-25h-22zM1284 -154v1472h-940v-1472h940zM1160 1277l-29 -212l-18 -6q-68 79 -177 79t-177 -79l-18 6l-29 212l18 7l49 -60l42 60h16l42 -60l49 60h16l49 -60l42 60h16l42 -60l49 60zM1267 654h-30v-2q15 -16 15 -37q0 -22 -15 -38v-91h-78v91
q-15 16 -15 38q0 21 15 37v2h-30v20h30v271l39 72l39 -72v-271h30v-20zM1143 895q0 -66 -38 -119t-98 -75l-26 -60l-18 8l19 44q-9 -2 -15 -3l-13 -48l-16 4v-1l-20 -2l-3 46q-5 1 -16 2l9 -45l-20 -4l-10 54q-6 2 -21 8l22 -56l-19 -7l-30 77q-101 61 -101 177q0 85 61 146
t146 61t146 -61t61 -146zM632 1093q0 -57 -64 -57q-51 0 -51 52q0 11 11 32h-6q-15 -26 -15 -58q0 -23 31 -88h-70q31 65 31 88q0 32 -15 58h-6q11 -21 11 -32q0 -52 -51 -52q-64 0 -64 57q0 36 55 101q64 74 74 100q10 -26 74 -100q55 -65 55 -101zM1141 518
q-90 -101 -243 -128l-4 20q143 25 232 121zM734 754q-143 -25 -232 -121l-15 13q90 101 243 128zM1254 71q0 -36 -55 -101q-64 -74 -74 -100q-10 26 -74 100q-55 65 -55 101q0 57 64 57q51 0 51 -52q0 -11 -11 -32h6q15 26 15 58q0 23 -31 88h70q-31 -65 -31 -88
q0 -32 15 -58h6q-11 21 -11 32q0 52 51 52q64 0 64 -57zM899 269q0 -85 -61 -146t-146 -61t-146 61t-61 146q0 66 38 119t98 75l26 60l18 -8l-19 -44q9 2 15 3l13 48l16 -4v1l20 2l3 -46q5 -1 16 -2l-9 45l20 4l10 -54q6 -2 21 -8l-22 56l19 7l30 -77q101 -61 101 -177z
M499 490h-30v-271l-39 -72l-39 72v271h-30v20h30v2q-15 16 -15 37q0 22 15 38v91h78v-91q15 -16 15 -38q0 -21 -15 -37v-2h30v-20zM916 -113l-18 -7l-49 60l-42 -60h-16l-42 60l-49 -60h-16l-49 60l-42 -60h-16l-42 60l-49 -60l-18 7l29 212l18 6q68 -79 177 -79t177 79
l18 -6zM1135 1244l-35 -43h-16l-41 59l-41 -59h-16l-50 61l-50 -61h-16l-41 59l-41 -59h-16l-35 43l21 -156q72 70 178 70t178 -70zM1217 665v274l-19 36l-19 -36v-274q11 4 19 4t19 -4zM1123 895q0 77 -55 132t-132 55t-132 -55t-55 -132q0 -86 67 -143l-11 27l19 7l22 -54
q15 -8 28 -13l-12 62l20 4l13 -73q8 -2 18 -3l-5 73l20 2l5 -76h3q3 0 15 1l21 76l19 -5l-18 -68q12 2 20 5l30 69l18 -8l-22 -50q104 52 104 167zM1232 615q0 34 -34 34t-34 -34t34 -34t34 34zM1217 506v58q-8 -3 -19 -3t-19 3v-58h38zM946 688h-11l2 -33zM693 476l-2 33
l-9 -33h11zM449 600v58h-38v-58q8 3 19 3t19 -3zM464 549q0 34 -34 34t-34 -34t34 -34t34 34zM879 269q0 86 -67 143l11 -27l-19 -7l-22 54q-15 8 -28 13l12 -62l-20 -4l-13 73q-8 2 -18 3l5 -73l-20 -2l-5 76h-3q-3 0 -15 -1l-21 -76l-19 5l18 68q-12 -2 -20 -5l-30 -69
l-18 8l22 50q-104 -52 -104 -167q0 -77 55 -132t132 -55t132 55t55 132zM449 225v274q-11 -4 -19 -4t-19 4v-274l19 -36zM891 -80l-21 156q-72 -70 -178 -70t-178 70l-21 -156l35 43h16l41 -59l41 59h16l50 -61l50 61h16l41 -59l41 59h16zM1045 966q-21 -40 -46 -40
q-30 0 -44 40q53 -4 90 0zM962 879l-10 -12h-61v20h48l-16 65l19 5zM915 966q-21 -40 -46 -40q-30 0 -44 40q53 -4 90 0zM1057 854q-13 -51 -56 -51q-19 0 -40 17.5t-25 17.5q-3 0 -24.5 -17.5t-40.5 -17.5q-43 0 -56 51l19 5q9 -36 37 -36q13 0 32.5 17.5t32.5 17.5
t32.5 -17.5t32.5 -17.5q28 0 37 36zM813 310l-19 -5q-9 36 -37 36q-13 0 -32.5 -17.5t-32.5 -17.5t-32.5 17.5t-32.5 17.5q-28 0 -37 -36l-19 5q13 51 56 51q19 0 40 -17.5t25 -17.5q3 0 24.5 17.5t40.5 17.5q43 0 56 -51zM803 198q-53 4 -90 0q21 40 46 40q30 0 44 -40z
M737 277h-48l16 -65l-19 -5l-20 78l10 12h61v-20zM673 198q-53 4 -90 0q21 40 46 40q30 0 44 -40z" />
  </g>

</svg>
