<?xml version="1.0" standalone="no"?>
<!DOCTYPE svg PUBLIC "-//W3C//DTD SVG 1.1//EN" "http://www.w3.org/Graphics/SVG/1.1/DTD/svg11.dtd" >
<svg viewBox="0 -442 2048 2048">
  <g transform="matrix(1 0 0 -1 0 1606)">
   <path fill="currentColor"
d="M1578 -244q0 -148 -138 -148h-1252q-138 0 -138 148v1652q0 148 138 148h1252q138 0 138 -148v-1652zM1544 -244v1652q0 114 -104 114h-1252q-104 0 -104 -114v-1652q0 -114 104 -114h1252q104 0 104 114zM285 1429h-28v-110q0 -80 -71 -80q-46 0 -56 48l26 9
q10 -31 33 -31q37 0 37 53v111h-41v26h100v-26zM1494 68q0 -12 -20 -35l-58 -66l-59 66q-20 22 -20 35q0 37 36 37q32 0 39 -26q-8 58 -22 84q9 -3 26 -3q16 0 25 3q-14 -26 -22 -84q7 26 40 26q35 0 35 -37zM1296 -166h-964v1496h964v-1496zM291 1096q0 -37 -36 -37
q-32 0 -39 26q8 -58 22 -84q-9 3 -26 3q-16 0 -25 -3q14 26 22 84q-7 -26 -40 -26q-35 0 -35 37q0 12 20 35l58 66l59 -66q20 -22 20 -35zM1498 -123l-26 -9q-10 31 -33 31q-37 0 -37 -53v-111h41v-26h-100v26h28v110q0 80 71 80q46 0 56 -48zM1284 -154v1472h-940v-1472
h940zM1110 1251l-29 -187l-18 -5q-68 79 -177 79t-177 -79l-18 5l-29 187l10 12h428zM1267 649h-27q12 -15 12 -34q0 -21 -15 -37v-82l-10 -10h-58l-10 10v82q-15 16 -15 37q0 19 12 34h-27v20h38q-28 96 -28 180q0 81 51 162h16q51 -81 51 -162t-28 -180h38v-20zM1069 889
q0 -88 -56 -153q-59 -68 -146 -68q-20 0 -36 4l-16 -41l-19 7l16 40q-1 1 -15 8l-10 -54l-20 4l12 61q-8 6 -16 14l-6 -78l-20 2l7 98q-35 48 -42 115q-16 4 -46 19l-1 14q23 26 58 81q4 13 15 40q42 91 147 91q79 0 136.5 -62.5t57.5 -141.5zM632 1093q0 -57 -64 -57
q-51 0 -51 52q0 11 11 32h-6q-15 -26 -15 -58q0 -23 31 -88h-70q31 65 31 88q0 32 -15 58h-6q11 -21 11 -32q0 -52 -51 -52q-64 0 -64 57q0 36 55 101q64 74 74 100q10 -26 74 -100q55 -65 55 -101zM1141 502q-83 -83 -217 -106l-4 20q126 22 207 100zM708 748
q-126 -22 -207 -100l-14 14q83 83 217 106zM1254 71q0 -36 -55 -101q-64 -74 -74 -100q-10 26 -74 100q-55 65 -55 101q0 57 64 57q51 0 51 -52q0 -11 -11 -32h6q15 26 15 58q0 23 -31 88h70q-31 -65 -31 -88q0 -32 15 -58h6q-11 21 -11 32q0 52 51 52q64 0 64 -57zM973 283
q-23 -26 -58 -81q-4 -13 -15 -40q-42 -91 -147 -91q-79 0 -136.5 62.5t-57.5 141.5q0 88 57.5 154.5t144.5 66.5q20 0 36 -4l16 41l19 -7l-16 -40q1 -1 15 -8l10 54l20 -4l-12 -61q8 -6 16 -14l6 78l20 -2l-7 -98q35 -48 42 -115q16 -4 46 -19zM499 495h-38q28 -96 28 -180
q0 -81 -51 -162h-16q-51 81 -51 162t28 180h-38v20h27q-12 15 -12 34q0 21 15 37v82l10 10h58l10 -10v-82q15 -16 15 -37q0 -19 -12 -34h27v-20zM966 -87l-10 -12h-428l-10 12l29 187l18 5q68 -79 177 -79t177 79l18 -5zM1088 1243h-404l24 -155q72 70 178 70t178 -70z
M1237 849q0 70 -39 138q-39 -68 -39 -138q0 -82 29 -181q5 1 10 1t10 -1q29 99 29 181zM1232 615q0 34 -34 34t-34 -34t34 -34t34 34zM1049 889q0 71 -52 127.5t-122 56.5q-91 0 -129 -79q-5 -14 -15 -40q-12 -29 -53 -77l38 -13l5 -8q1 -10 2 -18q35 -9 70 -11l-2 -20
q-32 2 -64 9q6 -25 19 -49l1 7l20 -2l-3 -33q6 -8 19 -19l10 55l20 -4l-12 -64q11 -7 19 -10l31 79l19 -7l-31 -78q14 -3 28 -3q78 0 132 62q50 59 50 139zM1217 506v58q-8 -3 -19 -3t-19 3v-58h38zM449 600v58h-38v-58q8 3 19 3t19 -3zM950 287l-38 13l-5 8q-1 10 -2 18
q-35 9 -70 11l2 20q32 -2 64 -9q-6 25 -19 49l-1 -7l-20 2l3 33q-6 8 -19 19l-10 -55l-20 4l12 64q-11 7 -19 10l-31 -79l-19 7l31 78q-14 3 -28 3q-78 0 -132 -62q-50 -59 -50 -139q0 -71 52 -127.5t122 -56.5q91 0 129 79q5 14 16 41.5t52 75.5zM464 549q0 34 -34 34
t-34 -34t34 -34t34 34zM469 315q0 82 -29 181q-5 -1 -10 -1t-10 1q-29 -99 -29 -181q0 -70 39 -138q39 68 39 138zM944 -79l-24 155q-72 -70 -178 -70t-178 70l-24 -155h404zM845 916q-53 4 -90 0q21 40 46 40q30 0 44 -40zM873 248q-21 -40 -46 -40q-30 0 -44 40
q53 -4 90 0z" />
  </g>

</svg>
