<?xml version="1.0" standalone="no"?>
<!DOCTYPE svg PUBLIC "-//W3C//DTD SVG 1.1//EN" "http://www.w3.org/Graphics/SVG/1.1/DTD/svg11.dtd" >
<svg viewBox="0 -442 2048 2048">
  <g transform="matrix(1 0 0 -1 0 1606)">
   <path fill="currentColor"
d="M1578 -244q0 -148 -138 -148h-1252q-138 0 -138 148v1652q0 148 138 148h1252q138 0 138 -148v-1652zM1544 -244v1652q0 114 -104 114h-1252q-104 0 -104 -114v-1652q0 -114 104 -114h1252q104 0 104 114zM1282 1164q0 -24 -17.5 -42.5t-41.5 -18.5t-44.5 16t-20.5 39
q9 -62 12 -77q9 -43 25 -73q-15 5 -42 5t-42 -5q21 39 37 150q0 -23 -20.5 -39t-44.5 -16t-41.5 18.5t-17.5 42.5q0 20 33 57l96 109l96 -109q33 -37 33 -57zM1282 593q0 -24 -17.5 -42t-41.5 -18t-44.5 15.5t-20.5 38.5q9 -62 12 -77q9 -43 25 -73q-15 5 -42 5t-42 -5
q21 39 37 150q0 -23 -20.5 -38.5t-44.5 -15.5t-41.5 18t-17.5 42q0 19 33 57l96 110l96 -110q33 -38 33 -57zM943 847q0 -24 -17.5 -42.5t-41.5 -18.5t-44.5 16t-20.5 39q9 -62 12 -77q9 -43 25 -73q-15 5 -42 5t-42 -5q21 39 37 150q0 -23 -20.5 -39t-44.5 -16t-41.5 18.5
t-17.5 42.5q0 20 33 57l96 109l96 -109q33 -37 33 -57zM604 1164q0 -24 -17.5 -42.5t-41.5 -18.5t-44.5 16t-20.5 39q9 -62 12 -77q9 -43 25 -73q-15 5 -42 5t-42 -5q21 39 37 150q0 -23 -20.5 -39t-44.5 -16t-41.5 18.5t-17.5 42.5q0 20 33 57l96 109l96 -109
q33 -37 33 -57zM282 1307q0 -59 -68 -59q-73 0 -73 59q0 37 36 51q-29 17 -29 47q0 53 62 53q66 0 66 -53q0 -30 -29 -47q35 -14 35 -51zM1494 68q0 -12 -20 -35l-58 -66l-59 66q-20 22 -20 35q0 37 36 37q32 0 39 -26q-8 58 -22 84q9 -3 26 -3q16 0 25 3q-14 -26 -22 -84
q7 26 40 26q35 0 35 -37zM291 1096q0 -37 -36 -37q-32 0 -39 26q8 -58 22 -84q-9 3 -26 3q-16 0 -25 -3q14 26 22 84q-7 -26 -40 -26q-35 0 -35 37q0 12 20 35l58 66l59 -66q20 -22 20 -35zM1487 -143q0 -37 -36 -51q29 -17 29 -47q0 -53 -62 -53q-66 0 -66 53q0 30 29 47
q-35 14 -35 51q0 59 68 59q73 0 73 -59zM943 350q0 -20 -33 -57l-96 -109l-96 109q-33 37 -33 57q0 24 17.5 42t41.5 18t44.5 -16t20.5 -39q-9 63 -12 77q-9 44 -25 74q15 -5 42 -5t42 5q-21 -39 -37 -151q0 23 20.5 39t44.5 16t41.5 -18t17.5 -42zM1282 1q0 -20 -33 -57
l-96 -109l-96 109q-33 37 -33 57q0 24 17.5 42t41.5 18t44.5 -16t20.5 -39q-9 63 -12 77q-9 44 -25 74q15 -5 42 -5t42 5q-21 -39 -37 -151q0 23 20.5 39t44.5 16t41.5 -18t17.5 -42zM604 593q0 -24 -17.5 -42t-41.5 -18t-44.5 15.5t-20.5 38.5q9 -62 12 -77q9 -43 25 -73
q-15 5 -42 5t-42 -5q21 39 37 150q0 -23 -20.5 -38.5t-44.5 -15.5t-41.5 18t-17.5 42q0 19 33 57l96 110l96 -110q33 -38 33 -57zM604 1q0 -20 -33 -57l-96 -109l-96 109q-33 37 -33 57q0 24 17.5 42t41.5 18t44.5 -16t20.5 -39q-9 63 -12 77q-9 44 -25 74q15 -5 42 -5t42 5
q-21 -39 -37 -151q0 23 20.5 39t44.5 16t41.5 -18t17.5 -42zM249 1401q0 33 -38 33q-37 0 -37 -33q0 -31 38 -31q37 0 37 31zM253 1309q0 36 -42 36q-41 0 -41 -36q0 -37 42 -37q41 0 41 37zM1458 -145q0 37 -42 37q-41 0 -41 -37q0 -36 42 -36q41 0 41 36zM1454 -237
q0 31 -38 31q-37 0 -37 -31q0 -33 38 -33q37 0 37 33z" />
  </g>

</svg>
