<?xml version="1.0" standalone="no"?>
<!DOCTYPE svg PUBLIC "-//W3C//DTD SVG 1.1//EN" "http://www.w3.org/Graphics/SVG/1.1/DTD/svg11.dtd" >
<svg viewBox="0 -442 2048 2048">
  <g transform="matrix(1 0 0 -1 0 1606)">
   <path fill="currentColor"
d="M1578 -244q0 -148 -138 -148h-1252q-138 0 -138 148v1652q0 148 138 148h1252q138 0 138 -148v-1652zM1544 -244v1652q0 114 -104 114h-1252q-104 0 -104 -114v-1652q0 -114 104 -114h1252q104 0 104 114zM1403 -188h-1178v1540h1178v-1540zM1379 -164v1492h-1130v-1492
h1130zM1373 1178l-108 -144l-109 144l109 144zM1156 1178l-108 -144l-109 144l109 144zM1373 880l-108 -144l-109 144l109 144zM928 1178l-108 -144l-109 144l109 144zM1156 880l-108 -144l-109 144l109 144zM1373 582l-108 -144l-109 144l109 144zM700 1178l-108 -144
l-109 144l109 144zM928 880l-108 -144l-109 144l109 144zM1156 582l-108 -144l-109 144l109 144zM1373 284l-108 -144l-109 144l109 144zM472 1178l-109 -144l-108 144l108 144zM700 880l-108 -144l-109 144l109 144zM928 582l-108 -144l-109 144l109 144zM1156 284
l-108 -144l-109 144l109 144zM1373 -14l-108 -144l-109 144l109 144zM472 880l-109 -144l-108 144l108 144zM700 582l-108 -144l-109 144l109 144zM928 284l-108 -144l-109 144l109 144zM1156 -14l-108 -144l-109 144l109 144zM472 582l-109 -144l-108 144l108 144zM700 284
l-108 -144l-109 144l109 144zM928 -14l-108 -144l-109 144l109 144zM472 284l-109 -144l-108 144l108 144zM700 -14l-108 -144l-109 144l109 144zM472 -14l-109 -144l-108 144l108 144z" />
  </g>

</svg>
