<?xml version="1.0" standalone="no"?>
<!DOCTYPE svg PUBLIC "-//W3C//DTD SVG 1.1//EN" "http://www.w3.org/Graphics/SVG/1.1/DTD/svg11.dtd" >
<svg viewBox="0 -442 2048 2048">
  <g transform="matrix(1 0 0 -1 0 1606)">
   <path fill="currentColor"
d="M1578 -244q0 -148 -138 -148h-1252q-138 0 -138 148v1652q0 148 138 148h1252q138 0 138 -148v-1652zM1544 -244v1652q0 114 -104 114h-1252q-104 0 -104 -114v-1652q0 -114 104 -114h1252q104 0 104 114zM1282 1164q0 -24 -17.5 -42.5t-41.5 -18.5t-44.5 16t-20.5 39
q9 -62 12 -77q9 -43 25 -73q-15 5 -42 5t-42 -5q21 39 37 150q0 -23 -20.5 -39t-44.5 -16t-41.5 18.5t-17.5 42.5q0 20 33 57l96 109l96 -109q33 -37 33 -57zM1282 784q0 -24 -17.5 -42.5t-41.5 -18.5t-44.5 15.5t-20.5 38.5q9 -61 12 -76q9 -43 25 -73q-15 5 -42 5t-42 -5
q21 40 37 149q0 -23 -20.5 -38.5t-44.5 -15.5t-41.5 18.5t-17.5 42.5q0 20 33 57l96 109l96 -109q33 -37 33 -57zM943 974q0 -24 -17.5 -42.5t-41.5 -18.5t-44.5 16t-20.5 39q9 -62 12 -77q9 -43 25 -73q-15 5 -42 5t-42 -5q21 39 37 150q0 -23 -20.5 -39t-44.5 -16
t-41.5 18.5t-17.5 42.5q0 20 33 57l96 109l96 -109q33 -37 33 -57zM604 1164q0 -24 -17.5 -42.5t-41.5 -18.5t-44.5 16t-20.5 39q9 -62 12 -77q9 -43 25 -73q-15 5 -42 5t-42 -5q21 39 37 150q0 -23 -20.5 -39t-44.5 -16t-41.5 18.5t-17.5 42.5q0 20 33 57l96 109l96 -109
q33 -37 33 -57zM314 1353q0 -105 -61 -105q-62 0 -62 105t62 105q61 0 61 -105zM1282 382q0 -19 -33 -57l-96 -110l-96 110q-33 38 -33 57q0 24 17.5 41.5t41.5 17.5t44.5 -15.5t20.5 -38.5q-9 63 -12 77q-9 44 -25 74q15 -5 42 -5t42 5q-21 -39 -37 -151q0 23 20.5 38.5
t44.5 15.5t41.5 -17.5t17.5 -41.5zM191 1252h-83v24h28v154h-28v25h56v-179h27v-24zM1494 68q0 -12 -20 -35l-58 -66l-59 66q-20 22 -20 35q0 37 36 37q32 0 39 -26q-8 58 -22 84q9 -3 26 -3q16 0 25 3q-14 -26 -22 -84q7 26 40 26q35 0 35 -37zM291 1096q0 -37 -36 -37
q-32 0 -39 26q8 -58 22 -84q-9 3 -26 3q-16 0 -25 -3q14 26 22 84q-7 -26 -40 -26q-35 0 -35 37q0 12 20 35l58 66l59 -66q20 -22 20 -35zM1520 -291h-56v179h-27v24h83v-24h-28v-154h28v-25zM604 784q0 -24 -17.5 -42.5t-41.5 -18.5t-44.5 15.5t-20.5 38.5q9 -61 12 -76
q9 -43 25 -73q-15 5 -42 5t-42 -5q21 40 37 149q0 -23 -20.5 -38.5t-44.5 -15.5t-41.5 18.5t-17.5 42.5q0 20 33 57l96 109l96 -109q33 -37 33 -57zM1437 -189q0 -105 -62 -105q-61 0 -61 105t61 105q62 0 62 -105zM1282 1q0 -20 -33 -57l-96 -109l-96 109q-33 37 -33 57
q0 24 17.5 42t41.5 18t44.5 -16t20.5 -39q-9 63 -12 77q-9 44 -25 74q15 -5 42 -5t42 5q-21 -39 -37 -151q0 23 20.5 39t44.5 16t41.5 -18t17.5 -42zM943 223q0 -20 -33 -57l-96 -109l-96 109q-33 37 -33 57q0 24 17.5 42t41.5 18t44.5 -16t20.5 -39q-9 63 -12 77
q-9 44 -25 74q15 -5 42 -5t42 5q-21 -39 -37 -151q0 23 20.5 39t44.5 16t41.5 -18t17.5 -42zM604 382q0 -19 -33 -57l-96 -110l-96 110q-33 38 -33 57q0 24 17.5 41.5t41.5 17.5t44.5 -15.5t20.5 -38.5q-9 63 -12 77q-9 44 -25 74q15 -5 42 -5t42 5q-21 -39 -37 -151
q0 23 20.5 38.5t44.5 15.5t41.5 -17.5t17.5 -41.5zM604 1q0 -20 -33 -57l-96 -109l-96 109q-33 37 -33 57q0 24 17.5 42t41.5 18t44.5 -16t20.5 -39q-9 63 -12 77q-9 44 -25 74q15 -5 42 -5t42 5q-21 -39 -37 -151q0 23 20.5 39t44.5 16t41.5 -18t17.5 -42zM285 1353
q0 81 -32 81q-33 0 -33 -81t33 -81q32 0 32 81zM1408 -189q0 81 -33 81q-32 0 -32 -81t32 -81q33 0 33 81z" />
  </g>

</svg>
