<?xml version="1.0" standalone="no"?>
<!DOCTYPE svg PUBLIC "-//W3C//DTD SVG 1.1//EN" "http://www.w3.org/Graphics/SVG/1.1/DTD/svg11.dtd" >
<svg viewBox="0 -442 2048 2048">
  <g transform="matrix(1 0 0 -1 0 1606)">
   <path fill="currentColor"
d="M1578 -244q0 -148 -138 -148h-1252q-138 0 -138 148v1652q0 148 138 148h1252q138 0 138 -148v-1652zM1544 -244v1652q0 114 -104 114h-1252q-104 0 -104 -114v-1652q0 -114 104 -114h1252q104 0 104 114zM394 1318q0 -43 -30.5 -73.5t-73.5 -30.5t-73.5 29.5t-30.5 72.5
t30.5 73.5t73.5 30.5t73.5 -29.5t30.5 -72.5zM1433 578q0 -34 -26 -59t-60 -25q-35 0 -59.5 25t-24.5 60q0 45 39 73q-4 32 -28 59q-28 31 -68 31q-58 0 -99 -65q-32 -52 -42 -119q41 -42 41 -118q0 -130 -95 -294q-81 -138 -194 -247q-113 109 -194 247q-95 164 -95 294
q0 76 41 118q-42 184 -142 184q-74 0 -95 -90q51 -29 51 -77q0 -33 -27 -59t-60 -26q-34 0 -59.5 26t-25.5 60q0 39 22 53q38 25 42 30q5 14 14 40q44 126 159 126q118 0 219 -152q1 1 1 4q0 53 -58 140.5t-107 97.5q-15 3 -36 3q-46 0 -72 -16q4 -12 4 -23q0 -33 -26 -60
t-59 -27q-34 0 -59.5 26t-25.5 60q0 35 26 59.5t61 24.5q29 0 44 -12q78 46 147 46q181 0 262 -266q14 57 14 174q0 39 -9 114q-12 92 -25 95q10 -2 -14 -2q-35 0 -62.5 26t-27.5 61q0 34 26 59.5t60 25.5q32 0 59 -26.5t27 -58.5q0 -2 -12 -41q87 -105 90 -367
q79 206 230 206q69 0 125 -32q9 3 30 18q14 10 35 10q33 0 59 -26.5t26 -59.5t-26 -58t-59 -25q-34 0 -59.5 24.5t-27.5 58.5q-14 12 -41 12q-90 0 -151 -76q-51 -64 -68 -162v-1l1 -2q115 148 218 148q121 0 169 -160q77 -21 77 -87zM1442 -152q0 -43 -30.5 -73.5
t-73.5 -30.5t-73.5 29.5t-30.5 72.5t30.5 73.5t73.5 30.5t73.5 -29.5t30.5 -72.5zM1380 906q0 12 -6 25v-50q6 12 6 25zM1354 857v100q-13 11 -30 14v-127q16 3 30 13zM1304 844v126q-5 -2 -30 -17v-97q10 -10 30 -12zM1254 896v48h-5q-3 0 -8.5 2.5l-16.5 7.5v-23
q20 -9 30 -35zM1204 937v25q-18 6 -30 9v-33h13q10 0 17 -1zM1154 936v38q-17 2 -29 2h-1v-47q15 5 30 7zM1104 921v54q-14 -2 -30 -7v-63q13 9 30 16zM1304 706v24q-15 26 -30 41v-34q17 -13 30 -31zM1254 749v38q-13 8 -30 13v-40q14 -3 30 -11zM1204 762v42q-9 1 -17 1
q-2 0 -13 -1v-46q13 4 30 4zM1404 547v63q-8 12 -30 23v-113q19 9 30 27zM1054 890v70q-14 -7 -30 -18v-83q15 19 30 31zM1354 514v129q-13 7 -30 46v-171q10 -4 23 -4h7zM754 1131v127q-11 5 -23 5h-7v-131q6 -1 10 -1q2 0 5 1h6q6 0 9 -1zM1154 750v51q-16 -4 -30 -10v-62
q14 13 30 21zM704 1138v119q-19 -9 -30 -28v-63q11 -18 30 -28zM1304 531v95q-21 -22 -21 -47q0 -28 21 -48zM1004 832v94q-14 -13 -30 -33v-120q13 32 30 59zM1104 707v73q-16 -10 -30 -21v-102q13 29 30 50zM804 497v626l-14 21q-5 7 -5 12q0 7 6 21t6 21q0 26 -23 47
v-131q12 -19 20 -94q9 -82 9 -134q0 -164 -29 -178v-201q17 -8 30 -10zM954 539v122q-7 11 -6 19q3 15 6 29v156q-15 -24 -30 -60v-271q17 5 30 5zM854 505v507q-11 40 -30 76v-592q11 1 30 9zM381 1318q0 37 -26.5 63.5t-64.5 26.5t-65 -27t-27 -65q0 -37 27 -63.5
t65 -26.5t64.5 27t26.5 65zM1004 531v156q-20 -22 -30 -29v-120q18 -2 30 -7zM904 527v243q-4 -3 -10 -3q-16 0 -20 29v-282q13 6 30 13zM1054 282v257q-9 16 -9 22q0 11 9 42v138q-15 -14 -30 -31v-192q25 -24 25 -85q0 -59 -25 -129v-91q17 35 30 69zM1086 440
q0 30 -12 60v-154q12 49 12 94zM604 860v88q-14 9 -30 15v-70q16 -16 30 -33zM654 783v123q-15 16 -30 28v-101q16 -23 30 -50zM554 911v59q-13 3 -30 5v-46q16 -7 30 -18zM504 936v40q-13 0 -30 -4v-34q10 0 30 -2zM704 536v300q-13 23 -30 46v-143q14 -37 14 -62
q0 -26 -14 -28v-110h2q15 0 28 -3zM754 517v199q-10 28 -30 79v-265q12 -4 30 -13zM454 938v29q-8 -2 -30 -11v-22q17 3 30 4zM404 929v19l-30 -13v-79q5 12 5 23q0 4 -1.5 12t-1.5 12q0 17 28 26zM554 672v93q-16 12 -30 20v-69q16 -18 30 -44zM504 735v59q-16 7 -30 9v-50
q16 -7 30 -18zM654 538v123q-6 6 -30 34v-167q14 8 30 10zM454 759v46h-6q-12 0 -24 -2v-41h3q14 0 27 -3zM354 828v104q-10 4 -30 9v-128q17 3 30 15zM1430 -152q0 37 -27 63.5t-65 26.5t-64.5 -27t-26.5 -65q0 -37 26.5 -63.5t64.5 -26.5t65 27t27 65zM1004 174v81
q-12 -27 -30 -59v-72q18 29 30 50zM304 813v128q-17 -3 -30 -13v-101q13 -11 30 -14zM404 760v38q-15 -5 -30 -16v-34q14 9 30 12zM254 854v48q-5 -12 -5 -24t5 -24zM1029 433q0 86 -71 86q-26 0 -71 -21.5t-70 -21.5t-70 21.5t-71 21.5q-71 0 -71 -86q0 -169 212 -429
q212 260 212 429zM604 225v97q-19 60 -19 111q0 53 19 78v207q-14 15 -30 30v-123q9 -27 14 -53v-17q-4 -6 -14 -20v-237q12 -34 30 -73zM354 732v33q-17 -18 -30 -42v-34q11 25 30 43zM954 94v68q-15 -24 -30 -47v-63q16 21 30 42zM554 375v114q-6 -23 -6 -49q0 -31 6 -65z
M904 25v61q-15 -21 -30 -41v-56zM354 545v59q-5 7 -30 30v-117q19 9 30 28zM304 511v167l-2 -5q-10 -26 -28 -40v-119q10 -4 22 -4q2 0 8 1zM654 134v73q-17 31 -30 62v-84q10 -19 30 -51zM254 527v92q-23 -16 -23 -43q0 -28 23 -49zM854 -34v53q-10 -13 -30 -38v-47z
M704 60v64l-30 48v-70q8 -12 30 -42zM754 -4v57q-10 13 -30 41v-61q14 -17 30 -37zM804 -60v49q-10 12 -30 37v-53zM372 1345l-51 -38l21 -60l-52 38l-52 -38l20 60l-51 38h64l19 59l19 -59h63zM1021 441q-39 -103 -98 -103q-66 0 -66 81q29 -5 59 -5q55 0 105 27z
M1421 -181h-64l-19 -59l-19 59h-63l51 38l-21 60l52 -38l52 38l-20 -60zM777 419q0 -31 -18 -56t-48 -25q-59 0 -98 103q50 -27 105 -27q30 0 59 5zM942 255q-35 -133 -125 -133t-125 133q38 -52 125 -52t125 52zM323 1329h-26l-7 22l-8 -22h-25l20 -15l-8 -23l21 14l20 -14
l-8 23zM1371 -165l-20 15l8 23l-21 -14l-20 14l8 -23l-21 -15h26l7 -22l8 22h25z" />
  </g>

</svg>
