<?xml version="1.0" standalone="no"?>
<!DOCTYPE svg PUBLIC "-//W3C//DTD SVG 1.1//EN" "http://www.w3.org/Graphics/SVG/1.1/DTD/svg11.dtd" >
<svg viewBox="0 -442 2048 2048">
  <g transform="matrix(1 0 0 -1 0 1606)">
   <path fill="currentColor"
d="M1578 -244q0 -148 -138 -148h-1252q-138 0 -138 148v1652q0 148 138 148h1252q138 0 138 -148v-1652zM1544 -244v1652q0 114 -104 114h-1252q-104 0 -104 -114v-1652q0 -114 104 -114h1252q104 0 104 114zM960 1258q0 -45 -58 -143q-44 -70 -88 -139q-44 69 -88 139
q-58 98 -58 143q0 72 71 72q26 0 50.5 -19.5t24.5 -44.5q0 25 24.5 44.5t50.5 19.5q71 0 71 -72zM282 1310q0 -30 -21 -46t-49 -16q-71 0 -71 72h28q1 -48 45 -48q39 0 39 37q0 15 -13 26t-47 10v25q51 0 51 31q0 33 -30 33q-34 0 -35 -40h-28q0 34 17.5 49t42.5 15
q61 0 61 -54q0 -33 -28 -46q38 -11 38 -48zM1499 4q0 -41 -40 -41q-43 0 -43 37q0 -37 -43 -37q-41 0 -41 41q0 23 84 161q83 -137 83 -161zM960 700q0 -45 -58 -143q-44 -70 -88 -139q-44 69 -88 139q-58 98 -58 143q0 72 71 72q26 0 50.5 -19.5t24.5 -44.5q0 25 24.5 44.5
t50.5 19.5q71 0 71 -72zM296 1160q0 -23 -84 -161q-83 137 -83 161q0 41 40 41q43 0 43 -37q0 37 43 37q41 0 41 -41zM1487 -156h-28q-1 48 -45 48q-39 0 -39 -37q0 -15 13 -26t47 -10v-25q-51 0 -51 -31q0 -33 30 -33q34 0 35 40h28q0 -34 -17.5 -49t-42.5 -15
q-61 0 -61 54q0 33 28 46q-38 11 -38 48q0 30 21 46t49 16q71 0 71 -72zM960 -94q0 -72 -71 -72q-26 0 -50.5 19.5t-24.5 44.5q0 -25 -24.5 -44.5t-50.5 -19.5q-71 0 -71 72q0 45 58 143q44 70 88 139q44 -69 88 -139q58 -98 58 -143z" />
  </g>

</svg>
