<?xml version="1.0" standalone="no"?>
<!DOCTYPE svg PUBLIC "-//W3C//DTD SVG 1.1//EN" "http://www.w3.org/Graphics/SVG/1.1/DTD/svg11.dtd" >
<svg viewBox="0 -442 2048 2048">
  <g transform="matrix(1 0 0 -1 0 1606)">
   <path fill="currentColor"
d="M1578 -244q0 -148 -138 -148h-1252q-138 0 -138 148v1652q0 148 138 148h1252q138 0 138 -148v-1652zM1544 -244v1652q0 114 -104 114h-1252q-104 0 -104 -114v-1652q0 -114 104 -114h1252q104 0 104 114zM302 1252h-82v25h22l-64 81l66 71h-24v26h80v-26h-22l-62 -71
l64 -81h22v-25zM203 1429h-25v-152h23v-25h-80v25h25v152h-25v26h82v-26zM1499 4q0 -41 -40 -41q-43 0 -43 37q0 -37 -43 -37q-41 0 -41 41q0 23 84 161q83 -137 83 -161zM1296 -166h-964v1496h964v-1496zM296 1160q0 -23 -84 -161q-83 137 -83 161q0 41 40 41q43 0 43 -37
q0 37 43 37q41 0 41 -41zM1507 -291h-82v26h25v152h-23v25h80v-25h-25v-152h25v-26zM1450 -194l-66 -71h24v-26h-80v26h22l62 71l-64 81h-22v25h82v-25h-22zM1284 -154v1472h-940v-1472h940zM1180 1277l-29 -212l-18 -6q-68 79 -177 79t-177 -79l-18 6l-29 212l18 7l49 -60
l42 60h16l42 -60l49 60h16l49 -60l42 60h16l42 -60l49 60zM1194 592q0 -54 -54 -54t-54 54t54 54t54 -54zM1163 895q0 -66 -38 -119t-98 -75l-26 -60l-18 8l19 44q-9 -2 -15 -3l-13 -48l-16 4v-1l-20 -2l-3 46q-5 1 -16 2l9 -45l-20 -4l-10 54q-6 2 -21 8l22 -56l-19 -7
l-30 77q-74 45 -95 128h-228v-30h-20v30h-10v-99l-10 -10h-58l-10 10v101q-15 16 -15 37q0 54 54 54q21 0 37 -15h12v30h20v-30h224q11 76 69 127t136 51q85 0 146 -61t61 -146zM632 1224q0 -44 -62 -130q-63 -89 -67 -123q-4 34 -67 123q-62 86 -62 130q0 24 17.5 44
t41.5 20q62 0 68 -77h4q6 77 68 77q24 0 41.5 -20t17.5 -44zM1141 518q-90 -101 -243 -128l-4 20q143 25 232 121zM734 754q-143 -25 -232 -121l-15 13q90 101 243 128zM1254 -60q0 -24 -17.5 -44t-41.5 -20q-62 0 -68 77h-4q-6 -77 -68 -77q-24 0 -41.5 20t-17.5 44
q0 44 62.5 131.5t66.5 121.5q4 -34 66.5 -121.5t62.5 -131.5zM1224 279q0 -54 -54 -54q-21 0 -37 15h-12v-30h-20v30h-224q-11 -76 -69 -127t-136 -51q-85 0 -146 61t-61 146q0 66 38 119t98 75l26 60l18 -8l-19 -44q9 2 15 3l13 48l16 -4v1l20 2l3 -46q5 -1 16 -2l-9 45
l20 4l10 -54q6 -2 21 -8l-22 56l19 7l30 -77q74 -45 95 -128h228v30h20v-30h10v99l10 10h58l10 -10v-101q15 -16 15 -37zM542 572q0 -54 -54 -54t-54 54t54 54t54 -54zM896 -113l-18 -7l-49 60l-42 -60h-16l-42 60l-49 -60h-16l-49 60l-42 -60h-16l-42 60l-49 -60l-18 7
l29 212l18 6q68 -79 177 -79t177 79l18 -6zM1155 1244l-35 -43h-16l-41 59l-41 -59h-16l-50 61l-50 -61h-16l-41 59l-41 -59h-16l-35 43l21 -156q72 70 178 70t178 -70zM1143 895q0 77 -55 132t-132 55t-132 -55t-55 -132q0 -86 67 -143l-11 27l19 7l22 -54q15 -8 28 -13
l-12 62l20 4l13 -73q8 -2 18 -3l-5 73l20 2l5 -76h3q3 0 15 1l21 76l19 -5l-18 -68q12 2 20 5l30 69l18 -8l-22 -50q104 52 104 167zM1174 592q0 34 -34 34t-34 -34t34 -34t34 34zM966 688h-11l2 -33zM1189 330v77h-38v-77q8 3 16 3h5q9 0 17 -3zM751 866q-2 14 -2 38h-241
q4 -11 4 -19t-4 -19h243zM1204 279q0 34 -34 34t-34 -34t34 -34t34 34zM492 885q0 34 -34 34t-34 -34t34 -34t34 34zM1120 260q-4 11 -4 19t4 19h-243q2 -14 2 -38h241zM477 757v77q-8 -3 -16 -3h-5q-9 0 -17 3v-77h38zM673 476l-2 33l-9 -33h11zM522 572q0 34 -34 34
t-34 -34t34 -34t34 34zM859 269q0 86 -67 143l11 -27l-19 -7l-22 54q-15 8 -28 13l12 -62l-20 -4l-13 73q-8 2 -18 3l5 -73l-20 -2l-5 76h-3q-3 0 -15 -1l-21 -76l-19 5l18 68q-12 -2 -20 -5l-30 -69l-18 8l22 50q-104 -52 -104 -167q0 -77 55 -132t132 -55t132 55t55 132z
M871 -80l-21 156q-72 -70 -178 -70t-178 70l-21 -156l35 43h16l41 -59l41 59h16l50 -61l50 61h16l41 -59l41 59h16zM1065 966q-21 -40 -46 -40q-30 0 -44 40q53 -4 90 0zM999 867h-61l-10 12l20 78l19 -5l-16 -65h48v-20zM935 966q-21 -40 -46 -40q-30 0 -44 40q53 -4 90 0z
M783 198q-53 4 -90 0q21 40 46 40q30 0 44 -40zM700 285l-20 -78l-19 5l16 65h-48v20h61zM653 198q-53 4 -90 0q21 40 46 40q30 0 44 -40z" />
  </g>

</svg>
