<?xml version="1.0" standalone="no"?>
<!DOCTYPE svg PUBLIC "-//W3C//DTD SVG 1.1//EN" "http://www.w3.org/Graphics/SVG/1.1/DTD/svg11.dtd" >
<svg viewBox="0 -442 2048 2048">
  <g transform="matrix(1 0 0 -1 0 1606)">
   <path fill="currentColor"
d="M1578 -244q0 -148 -138 -148h-1252q-138 0 -138 148v1652q0 148 138 148h1252q138 0 138 -148v-1652zM1544 -244v1652q0 114 -104 114h-1252q-104 0 -104 -114v-1652q0 -114 104 -114h1252q104 0 104 114zM285 1429h-28v-110q0 -80 -71 -80q-46 0 -56 48l26 9
q10 -31 33 -31q37 0 37 53v111h-41v26h100v-26zM1499 4q0 -41 -40 -41q-43 0 -43 37q0 -37 -43 -37q-41 0 -41 41q0 23 84 161q83 -137 83 -161zM1296 -166h-964v1496h964v-1496zM296 1160q0 -23 -84 -161q-83 137 -83 161q0 41 40 41q43 0 43 -37q0 37 43 37q41 0 41 -41z
M1498 -123l-26 -9q-10 31 -33 31q-37 0 -37 -53v-111h41v-26h-100v26h28v110q0 80 71 80q46 0 56 -48zM1284 -154v1472h-940v-1472h940zM1110 1251l-29 -187l-18 -5q-68 79 -177 79t-177 -79l-18 5l-29 187l10 12h428zM1267 654h-30v-2q15 -16 15 -37q0 -22 -15 -38v-91h-78
v91q-15 16 -15 38q0 21 15 37v2h-30v20h30v229h-8v-86l-16 -8q-57 38 -57 104q0 75 58 105l15 -9v-86h8v22l39 72l39 -72v-271h30v-20zM1069 889q0 -88 -56 -153q-59 -68 -146 -68q-20 0 -36 4l-16 -41l-19 7l16 40q-1 1 -15 8l-10 -54l-20 4l12 61q-8 6 -16 14l-6 -78
l-20 2l7 98q-35 48 -42 115q-16 4 -46 19l-1 14q23 26 58 81q4 13 15 40q42 91 147 91q79 0 136.5 -62.5t57.5 -141.5zM632 1224q0 -44 -62 -130q-63 -89 -67 -123q-4 34 -67 123q-62 86 -62 130q0 24 17.5 44t41.5 20q62 0 68 -77h4q6 77 68 77q24 0 41.5 -20t17.5 -44z
M1141 502q-83 -83 -217 -106l-4 20q126 22 207 100zM708 748q-126 -22 -207 -100l-14 14q83 83 217 106zM1254 -60q0 -24 -17.5 -44t-41.5 -20q-62 0 -68 77h-4q-6 -77 -68 -77q-24 0 -41.5 20t-17.5 44q0 44 62.5 131.5t66.5 121.5q4 -34 66.5 -121.5t62.5 -131.5zM973 283
q-23 -26 -58 -81q-4 -13 -15 -40q-42 -91 -147 -91q-79 0 -136.5 62.5t-57.5 141.5q0 88 57.5 154.5t144.5 66.5q20 0 36 -4l16 41l19 -7l-16 -40q1 -1 15 -8l10 54l20 -4l-12 -61q8 -6 16 -14l6 78l20 -2l-7 -98q35 -48 42 -115q16 -4 46 -19zM550 251q0 -75 -58 -105
l-15 9v86h-8v-22l-39 -72l-39 72v271h-30v20h30v2q-15 16 -15 37q0 22 15 38v91h78v-91q15 -16 15 -38q0 -21 -15 -37v-2h30v-20h-30v-229h8v86l16 8q57 -38 57 -104zM966 -87l-10 -12h-428l-10 12l29 187l18 5q68 -79 177 -79t177 79l18 -5zM1088 1243h-404l24 -155
q72 70 178 70t178 -70zM1131 837v154q-33 -26 -33 -78q0 -46 33 -76zM1217 665v274l-19 36l-19 -36v-274q11 4 19 4t19 -4zM1232 615q0 34 -34 34t-34 -34t34 -34t34 34zM1049 889q0 71 -52 127.5t-122 56.5q-91 0 -129 -79q-5 -14 -15 -40q-12 -29 -53 -77l38 -13l5 -8
q1 -10 2 -18q35 -9 70 -11l-2 -20q-32 2 -64 9q6 -25 19 -49l1 7l20 -2l-3 -33q6 -8 19 -19l10 55l20 -4l-12 -64q11 -7 19 -10l31 79l19 -7l-31 -78q14 -3 28 -3q78 0 132 62q50 59 50 139zM1217 506v58q-8 -3 -19 -3t-19 3v-58h38zM449 600v58h-38v-58q8 3 19 3t19 -3z
M950 287l-38 13l-5 8q-1 10 -2 18q-35 9 -70 11l2 20q32 -2 64 -9q-6 25 -19 49l-1 -7l-20 2l3 33q-6 8 -19 19l-10 -55l-20 4l12 64q-11 7 -19 10l-31 -79l-19 7l31 78q-14 3 -28 3q-78 0 -132 -62q-50 -59 -50 -139q0 -71 52 -127.5t122 -56.5q91 0 129 79q5 14 16 41.5
t52 75.5zM464 549q0 34 -34 34t-34 -34t34 -34t34 34zM449 225v274q-11 -4 -19 -4t-19 4v-274l19 -36zM530 251q0 46 -33 76v-154q33 26 33 78zM944 -79l-24 155q-72 -70 -178 -70t-178 70l-24 -155h404zM845 916q-53 4 -90 0q21 40 46 40q30 0 44 -40zM873 248
q-21 -40 -46 -40q-30 0 -44 40q53 -4 90 0z" />
  </g>

</svg>
