<?xml version="1.0" standalone="no"?>
<!DOCTYPE svg PUBLIC "-//W3C//DTD SVG 1.1//EN" "http://www.w3.org/Graphics/SVG/1.1/DTD/svg11.dtd" >
<svg viewBox="0 -442 2048 2048">
  <g transform="matrix(1 0 0 -1 0 1606)">
   <path fill="currentColor"
d="M1578 -244q0 -148 -138 -148h-1252q-138 0 -138 148v1652q0 148 138 148h1252q138 0 138 -148v-1652zM1544 -244v1652q0 114 -104 114h-1252q-104 0 -104 -114v-1652q0 -114 104 -114h1252q104 0 104 114zM1286 1258q0 -45 -58 -143q-44 -70 -88 -139q-44 69 -88 139
q-57 98 -57 143q0 72 71 72q26 0 50 -19.5t24 -44.5q0 25 24.5 44.5t50.5 19.5q71 0 71 -72zM634 1258q0 -45 -58 -143q-44 -70 -88 -139q-44 69 -88 139q-58 98 -58 143q0 72 71 72q26 0 50.5 -19.5t24.5 -44.5q0 25 24.5 44.5t50.5 19.5q71 0 71 -72zM282 1306h-33v-30h19
v-24h-67v24h21v30h-68l-13 23l85 127h23v-126h33v-24zM1499 4q0 -41 -40 -41q-43 0 -43 37q0 -37 -43 -37q-41 0 -41 41q0 23 84 161q83 -137 83 -161zM296 1160q0 -23 -84 -161q-83 137 -83 161q0 41 40 41q43 0 43 -37q0 37 43 37q41 0 41 -41zM1487 -165l-85 -127h-23
v126h-33v24h33v30h-19v24h67v-24h-21v-30h68zM1286 -94q0 -72 -71 -72q-26 0 -50.5 19.5t-24.5 44.5q0 -25 -24 -44.5t-50 -19.5q-71 0 -71 72q0 45 57 143q44 70 88 139q44 -69 88 -139q58 -98 58 -143zM634 -94q0 -72 -71 -72q-26 0 -50.5 19.5t-24.5 44.5
q0 -25 -24.5 -44.5t-50.5 -19.5q-71 0 -71 72q0 45 58 143q44 70 88 139q44 -69 88 -139q58 -98 58 -143zM222 1330v80l-53 -80h53zM1459 -166h-53v-80z" />
  </g>

</svg>
