<?xml version="1.0" standalone="no"?>
<!DOCTYPE svg PUBLIC "-//W3C//DTD SVG 1.1//EN" "http://www.w3.org/Graphics/SVG/1.1/DTD/svg11.dtd" >
<svg viewBox="0 -442 2048 2048">
  <g transform="matrix(1 0 0 -1 0 1606)">
   <path fill="currentColor"
d="M1578 -244q0 -148 -138 -148h-1252q-138 0 -138 148v1652q0 148 138 148h1252q138 0 138 -148v-1652zM1544 -244v1652q0 114 -104 114h-1252q-104 0 -104 -114v-1652q0 -114 104 -114h1252q104 0 104 114zM1286 1258q0 -45 -58 -143q-44 -70 -88 -139q-44 69 -88 139
q-57 98 -57 143q0 72 71 72q26 0 50 -19.5t24 -44.5q0 25 24.5 44.5t50.5 19.5q71 0 71 -72zM1286 877q0 -45 -58 -143l-88 -138l-88 138q-57 98 -57 143q0 73 71 73q26 0 50 -20t24 -45q0 25 24.5 45t50.5 20q71 0 71 -73zM960 1080q0 -45 -58 -143l-88 -138l-88 138
q-58 98 -58 143q0 73 71 73q26 0 50.5 -20t24.5 -45q0 25 24.5 45t50.5 20q71 0 71 -73zM634 1258q0 -45 -58 -143q-44 -70 -88 -139q-44 69 -88 139q-58 98 -58 143q0 72 71 72q26 0 50.5 -19.5t24.5 -44.5q0 25 24.5 44.5t50.5 19.5q71 0 71 -72zM314 1353
q0 -105 -61 -105q-62 0 -62 105t62 105q61 0 61 -105zM1286 286q0 -72 -71 -72q-26 0 -50.5 20t-24.5 45q0 -25 -24 -45t-50 -20q-71 0 -71 72q0 45 57 143q44 70 88 139q44 -69 88 -139q58 -98 58 -143zM191 1252h-83v24h28v154h-28v25h56v-179h27v-24zM1499 4
q0 -41 -40 -41q-43 0 -43 37q0 -37 -43 -37q-41 0 -41 41q0 23 84 161q83 -137 83 -161zM296 1160q0 -23 -84 -161q-83 137 -83 161q0 41 40 41q43 0 43 -37q0 37 43 37q41 0 41 -41zM1520 -291h-56v179h-27v24h83v-24h-28v-154h28v-25zM634 877q0 -45 -58 -143l-88 -138
l-88 138q-58 98 -58 143q0 73 71 73q26 0 50.5 -20t24.5 -45q0 25 24.5 45t50.5 20q71 0 71 -73zM1437 -189q0 -105 -62 -105q-61 0 -61 105t61 105q62 0 62 -105zM1286 -94q0 -72 -71 -72q-26 0 -50.5 19.5t-24.5 44.5q0 -25 -24 -44.5t-50 -19.5q-71 0 -71 72q0 45 57 143
q44 70 88 139q44 -69 88 -139q58 -98 58 -143zM960 110q0 -72 -71 -72q-26 0 -50.5 20t-24.5 45q0 -25 -24.5 -45t-50.5 -20q-71 0 -71 72q0 45 58 143q44 70 88 139q44 -69 88 -139q58 -98 58 -143zM634 286q0 -72 -71 -72q-26 0 -50.5 20t-24.5 45q0 -25 -24.5 -45
t-50.5 -20q-71 0 -71 72q0 45 58 143q44 70 88 139q44 -69 88 -139q58 -98 58 -143zM634 -94q0 -72 -71 -72q-26 0 -50.5 19.5t-24.5 44.5q0 -25 -24.5 -44.5t-50.5 -19.5q-71 0 -71 72q0 45 58 143q44 70 88 139q44 -69 88 -139q58 -98 58 -143zM285 1353q0 81 -32 81
q-33 0 -33 -81t33 -81q32 0 32 81zM1408 -189q0 81 -33 81q-32 0 -32 -81t32 -81q33 0 33 81z" />
  </g>

</svg>
