<?xml version="1.0" standalone="no"?>
<!DOCTYPE svg PUBLIC "-//W3C//DTD SVG 1.1//EN" "http://www.w3.org/Graphics/SVG/1.1/DTD/svg11.dtd" >
<svg viewBox="0 -442 2048 2048">
  <g transform="matrix(1 0 0 -1 0 1606)">
   <path fill="currentColor"
d="M1578 -244q0 -148 -138 -148h-1252q-138 0 -138 148v1652q0 148 138 148h1252q138 0 138 -148v-1652zM1544 -244v1652q0 114 -104 114h-1252q-104 0 -104 -114v-1652q0 -114 104 -114h1252q104 0 104 114zM321 1252h-79v25h24l-16 46h-74l-16 -46h24v-25h-79v25h25
l54 155h-24v23h106v-23h-24l54 -155h25v-25zM1499 4q0 -41 -40 -41q-43 0 -43 37q0 -37 -43 -37q-41 0 -41 41q0 23 84 161q83 -137 83 -161zM960 700q0 -45 -58 -143q-44 -70 -88 -139q-44 69 -88 139q-58 98 -58 143q0 72 71 72q26 0 50.5 -19.5t24.5 -44.5
q0 25 24.5 44.5t50.5 19.5q71 0 71 -72zM296 1160q0 -23 -84 -161q-83 137 -83 161q0 41 40 41q43 0 43 -37q0 37 43 37q41 0 41 -41zM1523 -113h-25l-54 -155h24v-23h-106v23h24l-54 155h-25v25h79v-25h-24l16 -46h74l16 46h-24v25h79v-25zM243 1347l-28 85h-4l-28 -85h60z
M1445 -183h-60l28 -85h4z" />
  </g>

</svg>
