<?xml version="1.0" standalone="no"?>
<!DOCTYPE svg PUBLIC "-//W3C//DTD SVG 1.1//EN" "http://www.w3.org/Graphics/SVG/1.1/DTD/svg11.dtd" >
<svg viewBox="0 -442 2048 2048">
  <g transform="matrix(1 0 0 -1 0 1606)">
   <path fill="currentColor"
d="M1578 -244q0 -148 -138 -148h-1252q-138 0 -138 148v1652q0 148 138 148h1264q126 0 126 -148v-1652zM1544 -244v1652q0 114 -104 114h-1252q-104 0 -104 -114v-1652q0 -114 104 -114h1252q104 0 104 114zM316 1353q0 -88 -82 -103q18 -11 34 -11q1 0 15 4l-13 -32
q-3 -1 -9 -2q-14 0 -38 11.5t-37 11.5q-12 0 -22 -9l-11 17q10 10 20 15q-66 25 -66 99q0 46 29 75t75 29t75.5 -29.5t29.5 -75.5zM1499 4q0 -41 -40 -41q-43 0 -43 37q0 -37 -43 -37q-41 0 -41 41q0 23 84 161q83 -137 83 -161zM1296 -166h-964v1496h964v-1496zM296 1160
q0 -23 -84 -161q-83 137 -83 161q0 41 40 41q43 0 43 -37q0 37 43 37q41 0 41 -41zM1521 -190q0 -46 -29 -75t-75 -29t-75.5 29.5t-29.5 75.5q0 88 82 103q-18 11 -34 11q-1 0 -15 -4l13 32q3 1 9 2q14 0 38 -11.5t37 -11.5q12 0 22 9l11 -17q-10 -10 -20 -15q66 -25 66 -99
zM283 1353q0 77 -72 77q-71 0 -71 -76q0 -78 71 -78q72 0 72 77zM1284 -154v1472h-940v-1472h940zM1488 -190q0 78 -71 78q-72 0 -72 -77t72 -77q71 0 71 76zM1121 1277l-26 -172l-16 -7q-60 40 -133 40t-133 -40l-16 7l-26 172l18 8l52 -62l45 61h16l44 -60l44 60h16
l45 -61l52 62zM1195 786q0 -62 -17 -139l-10 -8h-150l-9 13q5 13 15 46q-44 -20 -88 -20q-87 0 -149.5 62.5t-62.5 149.5t62.5 149.5t149.5 62.5q78 0 154 -73q71 -67 93 -147q12 -43 12 -96zM632 1224q0 -44 -62 -130q-63 -89 -67 -123q-4 34 -67 123q-62 86 -62 130
q0 24 17.5 44t41.5 20q62 0 68 -77h4q6 77 68 77q24 0 41.5 -20t17.5 -44zM1195 391q-29 -32 -45 -32q-15 0 -25 12q-2 -3 -5 -5q12 -10 12 -25q0 -16 -32 -45q-32 29 -32 45q0 15 12 25q-3 2 -5 5q-10 -12 -25 -12q-16 0 -45 32q29 32 45 32q15 0 25 -12q2 3 5 5
q-12 10 -12 25t22 36v13h-59v20h33q-18 16 -18 40q0 54 54 54t54 -54q0 -24 -18 -40h33v-20h-59v-13q22 -21 22 -36t-12 -25q3 -2 5 -5q10 12 25 12q16 0 45 -32zM1047 461q-74 -48 -149 -61l-4 20q71 12 142 58zM734 744q-71 -12 -142 -58l-11 17q74 48 149 61zM623 773
q-29 -32 -45 -32q-15 0 -25 12q-2 -3 -5 -5q12 -10 12 -25t-22 -36v-13h59v-20h-33q18 -16 18 -40q0 -54 -54 -54t-54 54q0 24 18 40h-33v20h59v13q-22 21 -22 36t12 25q-3 2 -5 5q-10 -12 -25 -12q-16 0 -45 32q29 32 45 32q15 0 25 -12q2 3 5 5q-12 10 -12 25q0 16 32 45
q32 -29 32 -45q0 -15 -12 -25q3 -2 5 -5q10 12 25 12q16 0 45 -32zM1254 -60q0 -24 -17.5 -44t-41.5 -20q-62 0 -68 77h-4q-6 -77 -68 -77q-24 0 -41.5 20t-17.5 44q0 44 62.5 131.5t66.5 121.5q4 -34 66.5 -121.5t62.5 -131.5zM904 274q0 -87 -62.5 -149.5t-149.5 -62.5
q-78 0 -154 73q-71 67 -93 147q-12 43 -12 96q0 62 17 139l10 8h150l9 -13q-5 -13 -15 -46q44 20 88 20q87 0 149.5 -62.5t62.5 -149.5zM857 -113l-18 -8l-52 62l-45 -61h-16l-44 60l-44 -60h-16l-45 61l-52 -62l-18 8l26 172l16 7q60 -40 133 -40t133 40l16 -7zM1096 1245
l-38 -45l-16 1l-44 60l-44 -60h-16l-44 60l-44 -60l-16 -1l-38 45l19 -122q60 35 131 35t131 -35zM1175 786q0 46 -12 90q-32 116 -141 180q46 -100 46 -206q0 -90 -36 -191h128q15 70 15 127zM1048 850q0 111 -55 220q-30 12 -57 12q-79 0 -135.5 -56.5t-56.5 -135.5
t56.5 -135.5t135.5 -56.5q45 0 95 26q17 64 17 126zM1134 550q0 34 -34 34t-34 -34t34 -34t34 34zM1112 441q0 5 -12 18q-12 -13 -12 -18q0 -12 12 -12t12 12zM1168 391q-13 12 -18 12q-12 0 -12 -12t12 -12q5 0 18 12zM1112 391q0 12 -12 12t-12 -12t12 -12t12 12z
M1062 391q0 12 -12 12q-5 0 -18 -12q13 -12 18 -12q12 0 12 12zM1112 341q0 12 -12 12t-12 -12q0 -5 12 -18q12 13 12 18zM540 823q0 5 -12 18q-12 -13 -12 -18q0 -12 12 -12t12 12zM596 773q-13 12 -18 12q-12 0 -12 -12t12 -12q5 0 18 12zM540 773q0 12 -12 12t-12 -12
t12 -12t12 12zM490 773q0 12 -12 12q-5 0 -18 -12q13 -12 18 -12q12 0 12 12zM540 723q0 12 -12 12t-12 -12q0 -5 12 -18q12 13 12 18zM562 614q0 34 -34 34t-34 -34t34 -34t34 34zM884 274q0 79 -56.5 135.5t-135.5 56.5q-45 0 -95 -26q-17 -64 -17 -126q0 -111 55 -220
q30 -12 57 -12q79 0 135.5 56.5t56.5 135.5zM606 108q-46 100 -46 206q0 90 36 191h-128q-15 -70 -15 -127q0 -46 12 -90q32 -116 141 -180zM832 -81l-19 122q-60 -35 -131 -35t-131 35l-19 -122l38 45l16 -1l44 -60l44 60h16l44 -60l44 60l16 1zM1017 966q-21 -40 -46 -40
q-30 0 -44 40q53 -4 90 0zM937 867h-44l-10 12l16 78l20 -4l-14 -66h32v-20zM887 966q-21 -40 -46 -40q-30 0 -44 40q53 -4 90 0zM952 826q-15 -36 -48 -36t-48 36l18 8q10 -24 30 -24t30 24zM772 338l-18 -8q-10 24 -30 24t-30 -24l-18 8q16 36 48 36q33 0 48 -36zM831 198
q-53 4 -90 0q21 40 46 40q30 0 44 -40zM745 285l-16 -78l-20 4l14 66h-32v20h44zM701 198q-53 4 -90 0q21 40 46 40q30 0 44 -40z" />
  </g>

</svg>
