<?xml version="1.0" standalone="no"?>
<!DOCTYPE svg PUBLIC "-//W3C//DTD SVG 1.1//EN" "http://www.w3.org/Graphics/SVG/1.1/DTD/svg11.dtd" >
<svg viewBox="0 -442 2048 2048">
  <g transform="matrix(1 0 0 -1 0 1606)">
   <path fill="currentColor"
d="M1578 -244q0 -148 -138 -148h-1252q-138 0 -138 148v1652q0 148 138 148h1252q138 0 138 -148v-1652zM1544 -244v1652q0 114 -104 114h-1252q-104 0 -104 -114v-1652q0 -114 104 -114h1252q104 0 104 114zM960 1258q0 -45 -58 -143q-44 -70 -88 -139q-44 69 -88 139
q-58 98 -58 143q0 72 71 72q26 0 50.5 -19.5t24.5 -44.5q0 25 24.5 44.5t50.5 19.5q71 0 71 -72zM277 1324l-1 -72h-130q0 20 8 40q12 30 62 67q18 13 24.5 22.5t6.5 19.5q0 33 -33 33q-39 0 -36 -56h-27v9q0 71 61 71q64 0 64 -55q0 -17 -12 -33q-6 -8 -50 -43
q-35 -27 -38 -49h76l1 46h24zM1499 4q0 -41 -40 -41q-43 0 -43 37q0 -37 -43 -37q-41 0 -41 41q0 23 84 161q83 -137 83 -161zM296 1160q0 -23 -84 -161q-83 137 -83 161q0 41 40 41q43 0 43 -37q0 37 43 37q41 0 41 -41zM1482 -88q0 -20 -8 -40q-12 -30 -62 -67
q-18 -13 -24.5 -22.5t-6.5 -19.5q0 -33 33 -33q39 0 36 56h27v-9q0 -71 -61 -71q-64 0 -64 55q0 17 12 33q6 8 50 43q35 27 38 49h-76l-1 -46h-24l1 72h130zM960 -94q0 -72 -71 -72q-26 0 -50.5 19.5t-24.5 44.5q0 -25 -24.5 -44.5t-50.5 -19.5q-71 0 -71 72q0 45 58 143
q44 70 88 139q44 -69 88 -139q58 -98 58 -143z" />
  </g>

</svg>
