<?xml version="1.0" standalone="no"?>
<!DOCTYPE svg PUBLIC "-//W3C//DTD SVG 1.1//EN" "http://www.w3.org/Graphics/SVG/1.1/DTD/svg11.dtd" >
<svg viewBox="0 -442 2048 2048">
  <g transform="matrix(1 0 0 -1 0 1606)">
   <path fill="currentColor"
d="M1578 -244q0 -148 -138 -148h-1252q-138 0 -138 148v1652q0 148 138 148h1252q138 0 138 -148v-1652zM1544 -244v1652q0 114 -104 114h-1252q-104 0 -104 -114v-1652q0 -114 104 -114h1252q104 0 104 114zM1286 1258q0 -45 -58 -143q-44 -70 -88 -139q-44 69 -88 139
q-57 98 -57 143q0 72 71 72q26 0 50 -19.5t24 -44.5q0 25 24.5 44.5t50.5 19.5q71 0 71 -72zM1286 877q0 -45 -58 -143l-88 -138l-88 138q-57 98 -57 143q0 73 71 73q26 0 50 -20t24 -45q0 25 24.5 45t50.5 20q71 0 71 -73zM634 1258q0 -45 -58 -143q-44 -70 -88 -139
q-44 69 -88 139q-58 98 -58 143q0 72 71 72q26 0 50.5 -19.5t24.5 -44.5q0 25 24.5 44.5t50.5 19.5q71 0 71 -72zM277 1354q0 -106 -71 -106q-56 0 -58 63h25q5 -39 36 -39q40 0 41 76q-21 -23 -47 -23q-57 0 -57 64q0 69 61 69q32 0 51 -26t19 -78zM1286 286q0 -72 -71 -72
q-26 0 -50.5 20t-24.5 45q0 -25 -24 -45t-50 -20q-71 0 -71 72q0 45 57 143q44 70 88 139q44 -69 88 -139q58 -98 58 -143zM1499 4q0 -41 -40 -41q-43 0 -43 37q0 -37 -43 -37q-41 0 -41 41q0 23 84 161q83 -137 83 -161zM960 700q0 -45 -58 -143q-44 -70 -88 -139
q-44 69 -88 139q-58 98 -58 143q0 72 71 72q26 0 50.5 -19.5t24.5 -44.5q0 25 24.5 44.5t50.5 19.5q71 0 71 -72zM296 1160q0 -23 -84 -161q-83 137 -83 161q0 41 40 41q43 0 43 -37q0 37 43 37q41 0 41 -41zM634 877q0 -45 -58 -143l-88 -138l-88 138q-58 98 -58 143
q0 73 71 73q26 0 50.5 -20t24.5 -45q0 25 24.5 45t50.5 20q71 0 71 -73zM1482 -225q0 -69 -61 -69q-32 0 -51 26t-19 78q0 106 71 106q56 0 58 -63h-25q-5 39 -36 39q-40 0 -41 -76q21 23 47 23q57 0 57 -64zM1286 -94q0 -72 -71 -72q-26 0 -50.5 19.5t-24.5 44.5
q0 -25 -24 -44.5t-50 -19.5q-71 0 -71 72q0 45 57 143q44 70 88 139q44 -69 88 -139q58 -98 58 -143zM634 286q0 -72 -71 -72q-26 0 -50.5 20t-24.5 45q0 -25 -24.5 -45t-50.5 -20q-71 0 -71 72q0 45 58 143q44 70 88 139q44 -69 88 -139q58 -98 58 -143zM634 -94
q0 -72 -71 -72q-26 0 -50.5 19.5t-24.5 44.5q0 -25 -24.5 -44.5t-50.5 -19.5q-71 0 -71 72q0 45 58 143q44 70 88 139q44 -69 88 -139q58 -98 58 -143zM249 1378q-6 56 -40 56q-37 0 -37 -43q0 -39 34 -39q22 0 43 26zM1456 -227q0 39 -34 39q-22 0 -43 -26q6 -56 40 -56
q37 0 37 43z" />
  </g>

</svg>
