<?xml version="1.0" standalone="no"?>
<!DOCTYPE svg PUBLIC "-//W3C//DTD SVG 1.1//EN" "http://www.w3.org/Graphics/SVG/1.1/DTD/svg11.dtd" >
<svg viewBox="0 -442 2048 2048">
  <g transform="matrix(1 0 0 -1 0 1606)">
   <path fill="currentColor"
d="M1578 -244q0 -148 -138 -148h-1252q-138 0 -138 148v1652q0 148 138 148h1252q138 0 138 -148v-1652zM1544 -244v1652q0 114 -104 114h-1252q-104 0 -104 -114v-1652q0 -114 104 -114h1252q104 0 104 114zM1286 1258q0 -45 -58 -143q-44 -70 -88 -139q-44 69 -88 139
q-57 98 -57 143q0 72 71 72q26 0 50 -19.5t24 -44.5q0 25 24.5 44.5t50.5 19.5q71 0 71 -72zM1286 700q0 -45 -58 -143q-44 -70 -88 -139q-44 69 -88 139q-57 98 -57 143q0 72 71 72q26 0 50 -19.5t24 -44.5q0 25 24.5 44.5t50.5 19.5q71 0 71 -72zM634 1258q0 -45 -58 -143
q-44 -70 -88 -139q-44 69 -88 139q-58 98 -58 143q0 72 71 72q26 0 50.5 -19.5t24.5 -44.5q0 25 24.5 44.5t50.5 19.5q71 0 71 -72zM277 1318q0 -70 -61 -70q-32 0 -51 26t-19 78q0 106 71 106q57 0 59 -63h-26q-5 39 -35 39q-41 0 -42 -76q21 23 48 23q56 0 56 -63zM1499 4
q0 -41 -40 -41q-43 0 -43 37q0 -37 -43 -37q-41 0 -41 41q0 23 84 161q83 -137 83 -161zM296 1160q0 -23 -84 -161q-83 137 -83 161q0 41 40 41q43 0 43 -37q0 37 43 37q41 0 41 -41zM1482 -188q0 -106 -71 -106q-57 0 -59 63h26q5 -39 35 -39q41 0 42 76q-21 -23 -48 -23
q-56 0 -56 63q0 70 61 70q32 0 51 -26t19 -78zM1286 -94q0 -72 -71 -72q-26 0 -50.5 19.5t-24.5 44.5q0 -25 -24 -44.5t-50 -19.5q-71 0 -71 72q0 45 57 143q44 70 88 139q44 -69 88 -139q58 -98 58 -143zM634 700q0 -45 -58 -143q-44 -70 -88 -139q-44 69 -88 139
q-58 98 -58 143q0 72 71 72q26 0 50.5 -19.5t24.5 -44.5q0 25 24.5 44.5t50.5 19.5q71 0 71 -72zM634 -94q0 -72 -71 -72q-26 0 -50.5 19.5t-24.5 44.5q0 -25 -24.5 -44.5t-50.5 -19.5q-71 0 -71 72q0 45 58 143q44 70 88 139q44 -69 88 -139q58 -98 58 -143zM252 1315
q0 39 -35 39q-22 0 -43 -26q7 -56 41 -56q37 0 37 43zM1454 -164q-7 56 -41 56q-37 0 -37 -43q0 -39 35 -39q22 0 43 26z" />
  </g>

</svg>
