<?xml version="1.0" standalone="no"?>
<!DOCTYPE svg PUBLIC "-//W3C//DTD SVG 1.1//EN" "http://www.w3.org/Graphics/SVG/1.1/DTD/svg11.dtd" >
<svg viewBox="0 -442 2048 2048">
  <g transform="matrix(1 0 0 -1 0 1606)">
   <path fill="currentColor"
d="M1578 -244q0 -148 -138 -148h-1252q-138 0 -138 148v1652q0 148 138 148h1252q138 0 138 -148v-1652zM1544 -244v1652q0 114 -104 114h-1252q-104 0 -104 -114v-1652q0 -114 104 -114h1252q104 0 104 114zM942 1159l-128 -171l-128 171l128 171zM282 1310q0 -30 -21 -46
t-49 -16q-71 0 -71 72h28q1 -48 45 -48q39 0 39 37q0 15 -13 26t-47 10v25q51 0 51 31q0 33 -30 33q-34 0 -35 -40h-28q0 34 17.5 49t42.5 15q61 0 61 -54q0 -33 -28 -46q38 -11 38 -48zM1490 63l-74 -100l-75 100l75 100zM942 595l-128 -172l-128 172l128 171zM287 1101
l-75 -100l-74 100l74 100zM1487 -156h-28q-1 48 -45 48q-39 0 -39 -37q0 -15 13 -26t47 -10v-25q-51 0 -51 -31q0 -33 30 -33q34 0 35 40h28q0 -34 -17.5 -49t-42.5 -15q-61 0 -61 54q0 33 28 46q-38 11 -38 48q0 30 21 46t49 16q71 0 71 -72zM942 5l-128 -171l-128 171
l128 171z" />
  </g>

</svg>
