<?xml version="1.0" standalone="no"?>
<!DOCTYPE svg PUBLIC "-//W3C//DTD SVG 1.1//EN" "http://www.w3.org/Graphics/SVG/1.1/DTD/svg11.dtd" >
<svg viewBox="0 -442 2048 2048">
  <g transform="matrix(1 0 0 -1 0 1606)">
   <path fill="currentColor"
d="M1578 -244q0 -148 -138 -148h-1252q-138 0 -138 148v1652q0 148 138 148h1252q138 0 138 -148v-1652zM1544 -244v1652q0 114 -104 114h-1252q-104 0 -104 -114v-1652q0 -114 104 -114h1252q104 0 104 114zM321 1252h-79v25h24l-16 46h-74l-16 -46h24v-25h-79v25h25
l54 155h-24v23h106v-23h-24l54 -155h25v-25zM1490 63l-74 -100l-75 100l75 100zM942 595l-128 -172l-128 172l128 171zM287 1101l-75 -100l-74 100l74 100zM1523 -113h-25l-54 -155h24v-23h-106v23h24l-54 155h-25v25h79v-25h-24l16 -46h74l16 46h-24v25h79v-25zM243 1347
l-28 85h-4l-28 -85h60zM1445 -183h-60l28 -85h4z" />
  </g>

</svg>
