<?xml version="1.0" standalone="no"?>
<!DOCTYPE svg PUBLIC "-//W3C//DTD SVG 1.1//EN" "http://www.w3.org/Graphics/SVG/1.1/DTD/svg11.dtd" >
<svg viewBox="0 -442 2048 2048">
  <g transform="matrix(1 0 0 -1 0 1606)">
   <path fill="currentColor"
d="M1578 -244q0 -148 -138 -148h-1252q-138 0 -138 148v1652q0 148 138 148h1252q138 0 138 -148v-1652zM1544 -244v1652q0 114 -104 114h-1252q-104 0 -104 -114v-1652q0 -114 104 -114h1252q104 0 104 114zM1268 1159l-128 -171l-128 171l128 171zM616 1159l-128 -171
l-128 171l128 171zM282 1306h-33v-30h19v-24h-67v24h21v30h-68l-13 23l85 127h23v-126h33v-24zM1490 63l-74 -100l-75 100l75 100zM287 1101l-75 -100l-74 100l74 100zM1487 -165l-85 -127h-23v126h-33v24h33v30h-19v24h67v-24h-21v-30h68zM1268 5l-128 -171l-128 171
l128 171zM616 5l-128 -171l-128 171l128 171zM222 1330v80l-53 -80h53zM1459 -166h-53v-80z" />
  </g>

</svg>
