<?xml version="1.0" standalone="no"?>
<!DOCTYPE svg PUBLIC "-//W3C//DTD SVG 1.1//EN" "http://www.w3.org/Graphics/SVG/1.1/DTD/svg11.dtd" >
<svg viewBox="0 -442 2048 2048">
  <g transform="matrix(1 0 0 -1 0 1606)">
   <path fill="currentColor"
d="M1578 -244q0 -148 -138 -148h-1252q-138 0 -138 148v1652q0 148 138 148h1252q138 0 138 -148v-1652zM1544 -244v1652q0 114 -104 114h-1252q-104 0 -104 -114v-1652q0 -114 104 -114h1252q104 0 104 114zM283 1267l-16 -7q-27 -12 -56 -12q-102 0 -102 105t102 105
q34 0 72 -18v-36h-6q-32 26 -68 26q-67 0 -67 -77t68 -77q37 0 67 26h6v-35zM1490 63l-74 -100l-75 100l75 100zM1296 -166h-964v1496h964v-1496zM287 1101l-75 -100l-74 100l74 100zM1519 -189q0 -105 -102 -105q-34 0 -72 18v36h6q32 -26 68 -26q67 0 67 77t-68 77
q-37 0 -67 -26h-6v35l16 7q27 12 56 12q102 0 102 -105zM1284 -154v1472h-940v-1472h940zM1168 1251l-67 -415l-13 -8q-79 22 -141 22t-141 -22l-13 8l-67 415l10 12h422zM1267 654h-30v-2q15 -16 15 -37q0 -22 -15 -38v-91h-78v91q-15 16 -15 38q0 21 15 37v2h-30v20h30
v271l39 72l39 -72v-271h30v-20zM632 1131q-77 -67 -129 -157q-52 90 -129 157q77 67 129 157q52 -90 129 -157zM873 635l-12 -16q-31 24 -64 88q-43 82 -54 97q-29 40 -29 44q0 10 3 20q-15 -12 -28 -25l-15 1q-13 15 -36 29q6 -17 7 -26l-2 -7q-65 -77 -76 -94
q-25 -42 -34 -118q12 -17 33 -20q8 8 94 66q41 28 58 110l20 -4q-17 -79 -48 -108q8 -34 25 -81l-19 -7q-16 46 -24 75q-31 -17 -95 -68l-8 -3q-56 4 -56 39q0 9 6 42q11 58 38 99q9 13 67 81q-3 14 -14 43l14 12q41 -22 59 -40q13 12 51 42l15 -12q-7 -14 -15 -44l25 -34
q11 -15 53 -96q33 -63 61 -85zM1115 537q0 -9 -6 -42q-11 -58 -38 -99q-9 -13 -67 -81q3 -14 14 -43l-14 -12q-41 22 -59 40q-13 -12 -51 -42l-15 12q7 14 15 44l-25 34q-11 15 -53 96q-33 63 -61 85l12 16q31 -24 64 -88q43 -82 54 -97q29 -40 29 -44q0 -10 -3 -20
q15 12 28 25l15 -1q13 -15 36 -29q-6 17 -7 26l2 7q65 77 76 94q25 42 34 118q-12 17 -33 20q-8 -8 -94 -66q-41 -28 -58 -110l-20 4q17 79 48 108q-8 34 -25 81l19 7q16 -46 24 -75q31 17 95 68l8 3q56 -4 56 -39zM1254 33q-77 -67 -129 -157q-52 90 -129 157
q77 67 129 157q52 -90 129 -157zM499 490h-30v-271l-39 -72l-39 72v271h-30v20h30v2q-15 16 -15 37q0 22 15 38v91h78v-91q15 -16 15 -38q0 -21 -15 -37v-2h30v-20zM902 -87l-10 -12h-422l-10 12l67 415l13 8q79 -22 141 -22t141 22l13 -8zM1217 665v274l-19 36l-19 -36
v-274q11 4 19 4t19 -4zM1146 1243h-398l63 -392q72 19 136 19q63 0 136 -19zM1232 615q0 34 -34 34t-34 -34t34 -34t34 34zM1217 506v58q-8 -3 -19 -3t-19 3v-58h38zM449 600v58h-38v-58q8 3 19 3t19 -3zM464 549q0 34 -34 34t-34 -34t34 -34t34 34zM880 -79l-63 392
q-72 -19 -136 -19q-63 0 -136 19l-63 -392h398zM449 225v274q-11 -4 -19 -4t-19 4v-274l19 -36zM1065 1178l-15 -209l-20 2l15 209zM1003 1179l-3 -209h-20l3 209h20zM949 970h-20l-3 209h20zM899 971l-20 -2l-15 209l20 2zM1019 928h-112v20h112v-20zM721 216h-112v20h112
v-20zM764 -14l-20 -2l-15 209l20 2zM702 -15h-20l-3 209h20zM648 194l-3 -209h-20l3 209h20zM598 193l-15 -209l-20 2l15 209z" />
  </g>

</svg>
