<?xml version="1.0" standalone="no"?>
<!DOCTYPE svg PUBLIC "-//W3C//DTD SVG 1.1//EN" "http://www.w3.org/Graphics/SVG/1.1/DTD/svg11.dtd" >
<svg viewBox="0 -442 2048 2048">
  <g transform="matrix(1 0 0 -1 0 1606)">
   <path fill="currentColor"
d="M1578 -244q0 -148 -138 -148h-1252q-138 0 -138 148v1652q0 148 138 148h1252q138 0 138 -148v-1652zM1544 -244v1652q0 114 -104 114h-1252q-104 0 -104 -114v-1652q0 -114 104 -114h1252q104 0 104 114zM942 1159l-128 -171l-128 171l128 171zM277 1324l-1 -72h-130
q0 20 8 40q12 30 62 67q18 13 24.5 22.5t6.5 19.5q0 33 -33 33q-39 0 -36 -56h-27v9q0 71 61 71q64 0 64 -55q0 -17 -12 -33q-6 -8 -50 -43q-35 -27 -38 -49h76l1 46h24zM1490 63l-74 -100l-75 100l75 100zM287 1101l-75 -100l-74 100l74 100zM1482 -88q0 -20 -8 -40
q-12 -30 -62 -67q-18 -13 -24.5 -22.5t-6.5 -19.5q0 -33 33 -33q39 0 36 56h27v-9q0 -71 -61 -71q-64 0 -64 55q0 17 12 33q6 8 50 43q35 27 38 49h-76l-1 -46h-24l1 72h130zM942 5l-128 -171l-128 171l128 171z" />
  </g>

</svg>
