<?xml version="1.0" standalone="no"?>
<!DOCTYPE svg PUBLIC "-//W3C//DTD SVG 1.1//EN" "http://www.w3.org/Graphics/SVG/1.1/DTD/svg11.dtd" >
<svg viewBox="0 -442 2048 2048">
  <g transform="matrix(1 0 0 -1 0 1606)">
   <path fill="currentColor"
d="M1578 -244q0 -148 -138 -148h-1252q-138 0 -138 148v1652q0 148 138 148h1252q138 0 138 -148v-1652zM1544 -244v1652q0 114 -104 114h-1252q-104 0 -104 -114v-1652q0 -114 104 -114h1252q104 0 104 114zM1268 1159l-128 -171l-128 171l128 171zM1268 779l-128 -172
l-128 172l128 171zM942 975l-128 -171l-128 171l128 171zM616 1159l-128 -171l-128 171l128 171zM314 1353q0 -105 -61 -105q-62 0 -62 105t62 105q61 0 61 -105zM1268 385l-128 -171l-128 171l128 172zM191 1252h-83v24h28v154h-28v25h56v-179h27v-24zM1490 63l-74 -100
l-75 100l75 100zM287 1101l-75 -100l-74 100l74 100zM1520 -291h-56v179h-27v24h83v-24h-28v-154h28v-25zM616 779l-128 -172l-128 172l128 171zM1437 -189q0 -105 -62 -105q-61 0 -61 105t61 105q62 0 62 -105zM1268 5l-128 -171l-128 171l128 171zM942 214l-128 -171
l-128 171l128 171zM616 385l-128 -171l-128 171l128 172zM616 5l-128 -171l-128 171l128 171zM285 1353q0 81 -32 81q-33 0 -33 -81t33 -81q32 0 32 81zM1408 -189q0 81 -33 81q-32 0 -32 -81t32 -81q33 0 33 81z" />
  </g>

</svg>
