<?xml version="1.0" standalone="no"?>
<!DOCTYPE svg PUBLIC "-//W3C//DTD SVG 1.1//EN" "http://www.w3.org/Graphics/SVG/1.1/DTD/svg11.dtd" >
<svg viewBox="0 -442 2048 2048">
  <g transform="matrix(1 0 0 -1 0 1606)">
   <path fill="currentColor"
d="M1578 -244q0 -148 -138 -148h-1252q-138 0 -138 148v1652q0 148 138 148h1252q138 0 138 -148v-1652zM1544 -244v1652q0 114 -104 114h-1252q-104 0 -104 -114v-1652q0 -114 104 -114h1252q104 0 104 114zM1268 1159l-128 -171l-128 171l128 171zM1268 779l-128 -172
l-128 172l128 171zM616 1159l-128 -171l-128 171l128 171zM277 1354q0 -106 -71 -106q-56 0 -58 63h25q5 -39 36 -39q40 0 41 76q-21 -23 -47 -23q-57 0 -57 64q0 69 61 69q32 0 51 -26t19 -78zM1268 385l-128 -171l-128 171l128 172zM1490 63l-74 -100l-75 100l75 100z
M942 595l-128 -172l-128 172l128 171zM287 1101l-75 -100l-74 100l74 100zM616 779l-128 -172l-128 172l128 171zM1482 -225q0 -69 -61 -69q-32 0 -51 26t-19 78q0 106 71 106q56 0 58 -63h-25q-5 39 -36 39q-40 0 -41 -76q21 23 47 23q57 0 57 -64zM1268 5l-128 -171
l-128 171l128 171zM616 385l-128 -171l-128 171l128 172zM616 5l-128 -171l-128 171l128 171zM249 1378q-6 56 -40 56q-37 0 -37 -43q0 -39 34 -39q22 0 43 26zM1456 -227q0 39 -34 39q-22 0 -43 -26q6 -56 40 -56q37 0 37 43z" />
  </g>

</svg>
