<?xml version="1.0" standalone="no"?>
<!DOCTYPE svg PUBLIC "-//W3C//DTD SVG 1.1//EN" "http://www.w3.org/Graphics/SVG/1.1/DTD/svg11.dtd" >
<svg viewBox="0 -442 2048 2048">
  <g transform="matrix(1 0 0 -1 0 1606)">
   <path fill="currentColor"
d="M1578 -244q0 -148 -138 -148h-1252q-138 0 -138 148v1652q0 148 138 148h1252q138 0 138 -148v-1652zM1544 -244v1652q0 114 -104 114h-1252q-104 0 -104 -114v-1652q0 -114 104 -114h1252q104 0 104 114zM394 1318q0 -43 -30.5 -73.5t-73.5 -30.5t-73.5 29.5t-30.5 72.5
t30.5 73.5t73.5 30.5t73.5 -29.5t30.5 -72.5zM1433 578q0 -34 -26 -59t-60 -25q-35 0 -59.5 25t-24.5 60q0 45 39 73q-22 90 -96 90q-58 0 -99 -65q-32 -52 -42 -119q41 -42 41 -118q0 -130 -95 -294q-81 -138 -194 -247q-113 109 -194 247q-95 164 -95 294q0 76 41 118
q-42 184 -142 184q-74 0 -95 -90q51 -29 51 -77q0 -33 -27 -59t-60 -26q-34 0 -59.5 26t-25.5 60q0 39 22 53q38 25 42 30q5 14 14 40q44 126 159 126q118 0 219 -152q1 1 1 4q0 53 -58 140.5t-107 97.5q-15 3 -36 3q-46 0 -72 -16q4 -12 4 -23q0 -33 -26 -60t-59 -27
q-34 0 -59.5 26t-25.5 60q0 35 26 59.5t61 24.5q29 0 44 -12q78 46 147 46q181 0 262 -266q14 57 14 174q0 39 -9 114q-12 92 -25 95q10 -2 -14 -2q-35 0 -62.5 26t-27.5 61q0 34 26 59.5t60 25.5q32 0 59 -26.5t27 -58.5q0 -2 -12 -41q87 -105 90 -367q79 206 230 206
q69 0 125 -32q9 3 30 18q14 10 35 10q33 0 59 -26.5t26 -59.5t-26 -58t-59 -25q-34 0 -59.5 24.5t-27.5 58.5q-14 12 -41 12q-90 0 -151 -76q-51 -64 -68 -162v-1l1 -2q115 148 218 148q121 0 169 -160q77 -21 77 -87zM1442 -152q0 -43 -30.5 -73.5t-73.5 -30.5t-73.5 29.5
t-30.5 72.5t30.5 73.5t73.5 30.5t73.5 -29.5t30.5 -72.5zM372 1345h-63l-19 59l-19 -59h-64l51 -38l-20 -60l52 38l52 -38l-21 60zM1421 -181l-51 38l20 60l-52 -38l-52 38l21 -60l-51 -38h63l19 -59l19 59h64zM1049 433q0 106 -91 106q-31 0 -76.5 -21.5t-64.5 -21.5
t-64.5 21.5t-76.5 21.5q-91 0 -91 -106q0 -182 232 -460q232 278 232 460zM1021 441q-39 -103 -98 -103q-66 0 -66 81q29 -5 59 -5q55 0 105 27zM777 419q0 -31 -18 -56t-48 -25q-59 0 -98 103q50 -27 105 -27q30 0 59 5zM942 255q-35 -133 -125 -133t-125 133
q38 -52 125 -52t125 52z" />
  </g>

</svg>
