<?xml version="1.0" standalone="no"?>
<!DOCTYPE svg PUBLIC "-//W3C//DTD SVG 1.1//EN" "http://www.w3.org/Graphics/SVG/1.1/DTD/svg11.dtd" >
<svg viewBox="0 -442 2048 2048">
  <g transform="matrix(1 0 0 -1 0 1606)">
   <path fill="currentColor"
d="M1578 -244q0 -148 -138 -148h-1252q-138 0 -138 148v1652q0 148 138 148h1252q138 0 138 -148v-1652zM1544 -244v1652q0 114 -104 114h-1252q-104 0 -104 -114v-1652q0 -114 104 -114h1252q104 0 104 114zM1268 1159l-128 -171l-128 171l128 171zM1268 595l-128 -172
l-128 172l128 171zM942 848l-128 -171l-128 171l128 172zM616 1159l-128 -171l-128 171l128 171zM276 1433q-56 -67 -56 -157h23v-24h-80v24h28q5 85 52 152h-70v-27h-24v54h127v-22zM1490 63l-74 -100l-75 100l75 100zM287 1101l-75 -100l-74 100l74 100zM1479 -291h-127
v22q56 67 56 157h-23v24h80v-24h-28q-5 -85 -52 -152h70v27h24v-54zM1268 5l-128 -171l-128 171l128 171zM616 595l-128 -172l-128 172l128 171zM616 5l-128 -171l-128 171l128 171z" />
  </g>

</svg>
