<?xml version="1.0" standalone="no"?>
<!DOCTYPE svg PUBLIC "-//W3C//DTD SVG 1.1//EN" "http://www.w3.org/Graphics/SVG/1.1/DTD/svg11.dtd" >
<svg viewBox="0 -442 2048 2048">
  <g transform="matrix(1 0 0 -1 0 1606)">
   <path fill="currentColor"
d="M1578 -244q0 -148 -138 -148h-1252q-138 0 -138 148v1652q0 148 138 148h1252q138 0 138 -148v-1652zM1544 -244v1652q0 114 -104 114h-1252q-104 0 -104 -114v-1652q0 -114 104 -114h1252q104 0 104 114zM1268 1159l-128 -171l-128 171l128 171zM1268 595l-128 -172
l-128 172l128 171zM616 1159l-128 -171l-128 171l128 171zM277 1318q0 -70 -61 -70q-32 0 -51 26t-19 78q0 106 71 106q57 0 59 -63h-26q-5 39 -35 39q-41 0 -42 -76q21 23 48 23q56 0 56 -63zM1490 63l-74 -100l-75 100l75 100zM287 1101l-75 -100l-74 100l74 100z
M1482 -188q0 -106 -71 -106q-57 0 -59 63h26q5 -39 35 -39q41 0 42 76q-21 -23 -48 -23q-56 0 -56 63q0 70 61 70q32 0 51 -26t19 -78zM1268 5l-128 -171l-128 171l128 171zM616 595l-128 -172l-128 172l128 171zM616 5l-128 -171l-128 171l128 171zM252 1315q0 39 -35 39
q-22 0 -43 -26q7 -56 41 -56q37 0 37 43zM1454 -164q-7 56 -41 56q-37 0 -37 -43q0 -39 35 -39q22 0 43 26z" />
  </g>

</svg>
