<?xml version="1.0" standalone="no"?>
<!DOCTYPE svg PUBLIC "-//W3C//DTD SVG 1.1//EN" "http://www.w3.org/Graphics/SVG/1.1/DTD/svg11.dtd" >
<svg viewBox="0 -442 2048 2048">
  <g transform="matrix(1 0 0 -1 0 1606)">
   <path fill="currentColor"
d="M1578 -244q0 -148 -138 -148h-1252q-138 0 -138 148v1652q0 148 138 148h1252q138 0 138 -148v-1652zM1544 -244v1652q0 114 -104 114h-1252q-104 0 -104 -114v-1652q0 -114 104 -114h1252q104 0 104 114zM302 1252h-82v25h22l-64 81l66 71h-24v26h80v-26h-22l-62 -71
l64 -81h22v-25zM203 1429h-25v-152h23v-25h-80v25h25v152h-25v26h82v-26zM1490 63l-74 -100l-75 100l75 100zM1296 -166h-964v1496h964v-1496zM287 1101l-75 -100l-74 100l74 100zM1507 -291h-82v26h25v152h-23v25h80v-25h-25v-152h25v-26zM1450 -194l-66 -71h24v-26h-80v26
h22l62 71l-64 81h-22v25h82v-25h-22zM1284 -154v1472h-940v-1472h940zM1109 1277l-29 -212l-18 -6q-68 79 -177 79t-177 -79l-18 6l-29 212l18 7l49 -60l42 60h16l42 -60l49 60h16l49 -60l42 60h16l42 -60l49 60zM1267 654h-30v-2q15 -16 15 -37q0 -22 -15 -38v-91h-78v91
q-15 16 -15 38q0 21 15 37v2h-30v20h30v229h-8v-86l-16 -8q-57 38 -57 104q0 75 58 105l15 -9v-86h8v22l39 72l39 -72v-271h30v-20zM1069 889q0 -88 -56 -153q-59 -68 -146 -68q-20 0 -36 4l-16 -41l-19 7l16 40q-1 1 -15 8l-10 -54l-20 4l12 61q-8 6 -16 14l-6 -78l-20 2
l7 98q-35 48 -42 115q-16 4 -46 19l-1 14q23 26 58 81q4 13 15 40q42 91 147 91q79 0 136.5 -62.5t57.5 -141.5zM632 1131q-77 -67 -129 -157q-52 90 -129 157q77 67 129 157q52 -90 129 -157zM1141 502q-83 -83 -217 -106l-4 20q126 22 207 100zM708 748
q-126 -22 -207 -100l-14 14q83 83 217 106zM1254 33q-77 -67 -129 -157q-52 90 -129 157q77 67 129 157q52 -90 129 -157zM973 283q-23 -26 -58 -81q-4 -13 -15 -40q-42 -91 -147 -91q-79 0 -136.5 62.5t-57.5 141.5q0 88 57.5 154.5t144.5 66.5q20 0 36 -4l16 41l19 -7
l-16 -40q1 -1 15 -8l10 54l20 -4l-12 -61q8 -6 16 -14l6 78l20 -2l-7 -98q35 -48 42 -115q16 -4 46 -19zM550 251q0 -75 -58 -105l-15 9v86h-8v-22l-39 -72l-39 72v271h-30v20h30v2q-15 16 -15 37q0 22 15 38v91h78v-91q15 -16 15 -38q0 -21 -15 -37v-2h30v-20h-30v-229h8
v86l16 8q57 -38 57 -104zM967 -113l-18 -7l-49 60l-42 -60h-16l-42 60l-49 -60h-16l-49 60l-42 -60h-16l-42 60l-49 -60l-18 7l29 212l18 6q68 -79 177 -79t177 79l18 -6zM1084 1244l-35 -43h-16l-41 59l-41 -59h-16l-50 61l-50 -61h-16l-41 59l-41 -59h-16l-35 43l21 -156
q72 70 178 70t178 -70zM1131 837v154q-33 -26 -33 -78q0 -46 33 -76zM1217 665v274l-19 36l-19 -36v-274q11 4 19 4t19 -4zM1232 615q0 34 -34 34t-34 -34t34 -34t34 34zM1049 889q0 71 -52 127.5t-122 56.5q-91 0 -129 -79q-5 -14 -15 -40q-12 -29 -53 -77l38 -13l5 -8
q0 -5 1 -14q7 -3 36 -18q22 -12 33 -12q28 0 37 37l19 -5q-12 -52 -56 -52q-7 0 -64 27q7 -29 19 -52l1 7l20 -2l-3 -33q6 -8 19 -19l10 55l20 -4l-12 -64q11 -7 19 -10l31 79l19 -7l-31 -78q14 -3 28 -3q78 0 132 62q50 59 50 139zM1217 506v58q-8 -3 -19 -3t-19 3v-58h38z
M449 600v58h-38v-58q8 3 19 3t19 -3zM950 287l-38 13l-5 8q0 5 -1 14q-7 3 -36 18q-22 12 -33 12q-28 0 -37 -37l-19 5q12 52 56 52q7 0 64 -27q-7 29 -19 52l-1 -7l-20 2l3 33q-6 8 -19 19l-10 -55l-20 4l12 64q-11 7 -19 10l-31 -79l-19 7l31 78q-14 3 -28 3
q-78 0 -132 -62q-50 -59 -50 -139q0 -71 52 -127.5t122 -56.5q91 0 129 79q5 14 16 41.5t52 75.5zM464 549q0 34 -34 34t-34 -34t34 -34t34 34zM449 225v274q-11 -4 -19 -4t-19 4v-274l19 -36zM530 251q0 46 -33 76v-154q33 26 33 78zM942 -80l-21 156q-72 -70 -178 -70
t-178 70l-21 -156l35 43h16l41 -59l41 59h16l50 -61l50 61h16l41 -59l41 59h16zM845 956q-21 -40 -46 -40q-30 0 -44 40q53 -4 90 0zM873 208q-53 4 -90 0q21 40 46 40q30 0 44 -40z" />
  </g>

</svg>
