<?xml version="1.0" standalone="no"?>
<!DOCTYPE svg PUBLIC "-//W3C//DTD SVG 1.1//EN" "http://www.w3.org/Graphics/SVG/1.1/DTD/svg11.dtd" >
<svg viewBox="0 -442 2048 2048">
  <g transform="matrix(1 0 0 -1 0 1606)">
   <path fill="currentColor"
d="M1578 -244q0 -148 -138 -148h-1252q-138 0 -138 148v1652q0 148 138 148h1252q138 0 138 -148v-1652zM1544 -244v1652q0 114 -104 114h-1252q-104 0 -104 -114v-1652q0 -114 104 -114h1252q104 0 104 114zM285 1429h-28v-110q0 -80 -71 -80q-46 0 -56 48l26 9
q10 -31 33 -31q37 0 37 53v111h-41v26h100v-26zM1490 63l-74 -100l-75 100l75 100zM1296 -166h-964v1496h964v-1496zM287 1101l-75 -100l-74 100l74 100zM1498 -123l-26 -9q-10 31 -33 31q-37 0 -37 -53v-111h41v-26h-100v26h28v110q0 80 71 80q46 0 56 -48zM1284 -154v1472
h-940v-1472h940zM1160 1251l-29 -187l-18 -5q-68 79 -177 79t-177 -79l-18 5l-29 187l10 12h428zM1267 654h-30v-2q15 -16 15 -37q0 -22 -15 -38v-91h-78v91q-15 16 -15 38q0 21 15 37v2h-30v20h30v271l39 72l39 -72v-271h30v-20zM1143 895q0 -69 -41.5 -123.5t-105.5 -74.5
l-12 -65l-20 4l11 56q-18 -3 -29 -4v-54h-20v54q-11 1 -29 4l11 -56l-20 -4l-12 65q-64 20 -105.5 74.5t-41.5 123.5q0 85 61 146t146 61t146 -61t61 -146zM632 1131q-77 -67 -129 -157q-52 90 -129 157q77 67 129 157q52 -90 129 -157zM1141 518q-90 -101 -243 -128l-4 20
q143 25 232 121zM734 754q-143 -25 -232 -121l-15 13q90 101 243 128zM1254 33q-77 -67 -129 -157q-52 90 -129 157q77 67 129 157q52 -90 129 -157zM899 269q0 -85 -61 -146t-146 -61t-146 61t-61 146q0 69 41.5 123.5t105.5 74.5l12 65l20 -4l-11 -56q18 3 29 4v54h20v-54
q11 -1 29 -4l-11 56l20 4l12 -65q64 -20 105.5 -74.5t41.5 -123.5zM499 490h-30v-271l-39 -72l-39 72v271h-30v20h30v2q-15 16 -15 37q0 22 15 38v91h78v-91q15 -16 15 -38q0 -21 -15 -37v-2h30v-20zM916 -87l-10 -12h-428l-10 12l29 187l18 5q68 -79 177 -79t177 79l18 -5z
M1138 1243h-404l24 -155q72 70 178 70t178 -70zM1217 665v274l-19 36l-19 -36v-274q11 4 19 4t19 -4zM1123 895q0 77 -55 132t-132 55t-132 -55t-55 -132q0 -131 123 -176l-8 42l20 4l10 -52q18 -4 32 -5v55h20v-55q14 1 32 5l10 52l20 -4l-8 -42q123 45 123 176zM1232 615
q0 34 -34 34t-34 -34t34 -34t34 34zM1217 506v58q-8 -3 -19 -3t-19 3v-58h38zM449 600v58h-38v-58q8 3 19 3t19 -3zM464 549q0 34 -34 34t-34 -34t34 -34t34 34zM879 269q0 131 -123 176l8 -42l-20 -4l-10 52q-18 4 -32 5v-55h-20v55q-14 -1 -32 -5l-10 -52l-20 4l8 42
q-123 -45 -123 -176q0 -77 55 -132t132 -55t132 55t55 132zM449 225v274q-11 -4 -19 -4t-19 4v-274l19 -36zM894 -79l-24 155q-72 -70 -178 -70t-178 70l-24 -155h404zM1050 936q-53 4 -90 0q21 40 46 40q30 0 44 -40zM962 869l-10 -12h-61v20h48l-16 65l19 5zM910 936
q-53 4 -90 0q21 40 46 40q30 0 44 -40zM981 793h-90v20h90v-20zM737 351h-90v20h90v-20zM808 228q-21 -40 -46 -40q-30 0 -44 40q53 -4 90 0zM737 287h-48l16 -65l-19 -5l-20 78l10 12h61v-20zM668 228q-21 -40 -46 -40q-30 0 -44 40q53 -4 90 0z" />
  </g>

</svg>
