<?xml version="1.0" standalone="no"?>
<!DOCTYPE svg PUBLIC "-//W3C//DTD SVG 1.1//EN" "http://www.w3.org/Graphics/SVG/1.1/DTD/svg11.dtd" >
<svg viewBox="0 -442 2048 2048">
  <g transform="matrix(1 0 0 -1 0 1606)">
   <path fill="currentColor"
d="M1578 -244q0 -148 -138 -148h-1252q-138 0 -138 148v1652q0 148 138 148h1252q138 0 138 -148v-1652zM1544 -244v1652q0 114 -104 114h-1252q-104 0 -104 -114v-1652q0 -114 104 -114h1252q104 0 104 114zM1268 1159l-128 -171l-128 171l128 171zM1268 595l-128 -172
l-128 172l128 171zM942 848l-128 -171l-128 171l128 172zM616 1159l-128 -171l-128 171l128 171zM282 1307q0 -59 -68 -59q-73 0 -73 59q0 37 36 51q-29 17 -29 47q0 53 62 53q66 0 66 -53q0 -30 -29 -47q35 -14 35 -51zM1490 63l-74 -100l-75 100l75 100zM287 1101
l-75 -100l-74 100l74 100zM1487 -143q0 -37 -36 -51q29 -17 29 -47q0 -53 -62 -53q-66 0 -66 53q0 30 29 47q-35 14 -35 51q0 59 68 59q73 0 73 -59zM942 341l-128 -171l-128 171l128 171zM1268 5l-128 -171l-128 171l128 171zM616 595l-128 -172l-128 172l128 171zM616 5
l-128 -171l-128 171l128 171zM249 1401q0 33 -38 33q-37 0 -37 -33q0 -31 38 -31q37 0 37 31zM253 1309q0 36 -42 36q-41 0 -41 -36q0 -37 42 -37q41 0 41 37zM1458 -145q0 37 -42 37q-41 0 -41 -37q0 -36 42 -36q41 0 41 36zM1454 -237q0 31 -38 31q-37 0 -37 -31
q0 -33 38 -33q37 0 37 33z" />
  </g>

</svg>
