<?xml version="1.0" standalone="no"?>
<!DOCTYPE svg PUBLIC "-//W3C//DTD SVG 1.1//EN" "http://www.w3.org/Graphics/SVG/1.1/DTD/svg11.dtd" >
<svg viewBox="0 -442 2048 2048">
  <g transform="matrix(1 0 0 -1 0 1606)">
   <path fill="currentColor"
d="M1578 -244q0 -148 -138 -148h-1252q-138 0 -138 148v1652q0 148 138 148h1252q138 0 138 -148v-1652zM1544 -244v1652q0 114 -104 114h-1252q-104 0 -104 -114v-1652q0 -114 104 -114h1252q104 0 104 114zM1268 1159l-128 -171l-128 171l128 171zM616 1159l-128 -171
l-128 171l128 171zM281 1316q0 -68 -70 -68q-64 0 -68 68h26q5 -44 42 -44q41 0 41 44q0 43 -38 43q-25 0 -41 -24q-9 9 -20 14l7 106h109v-54h-25v27h-62l-5 -60q20 16 42 16q62 0 62 -68zM1490 63l-74 -100l-75 100l75 100zM942 595l-128 -172l-128 172l128 171zM287 1101
l-75 -100l-74 100l74 100zM1485 -152h-26q-5 44 -42 44q-41 0 -41 -44q0 -43 38 -43q25 0 41 24q9 -9 20 -14l-7 -106h-109v54h25v-27h62l5 60q-20 -16 -42 -16q-62 0 -62 68t70 68q64 0 68 -68zM1268 5l-128 -171l-128 171l128 171zM616 5l-128 -171l-128 171l128 171z" />
  </g>

</svg>
