<?xml version="1.0" standalone="no"?>
<!DOCTYPE svg PUBLIC "-//W3C//DTD SVG 1.1//EN" "http://www.w3.org/Graphics/SVG/1.1/DTD/svg11.dtd" >
<svg viewBox="0 -442 2048 2048">
  <g transform="matrix(1 0 0 -1 0 1606)">
   <path fill="currentColor"
d="M1578 -244q0 -148 -138 -148h-1252q-138 0 -138 148v1652q0 148 138 148h1252q138 0 138 -148v-1652zM1544 -244v1652q0 114 -104 114h-1252q-104 0 -104 -114v-1652q0 -114 104 -114h1252q104 0 104 114zM1282 1145q0 -26 -22.5 -46.5t-48.5 -20.5q-49 0 -62 52v-31
q0 -67 35 -123q-13 5 -44 5q-30 0 -43 -5q35 56 35 123v31q-13 -52 -63 -52q-26 0 -48.5 20.5t-22.5 46.5q0 69 71 69q7 0 41 -17q-12 14 -24 28.5t-12 34.5q0 70 66 70t66 -70q0 -20 -11.5 -34.5t-23.5 -28.5q34 17 40 17q71 0 71 -69zM1282 765q0 -26 -22.5 -47t-48.5 -21
q-49 0 -62 52v-30q0 -67 35 -123q-13 5 -44 5q-30 0 -43 -5q35 56 35 123v30q-13 -52 -63 -52q-26 0 -48.5 21t-22.5 47q0 68 71 68q9 0 41 -16q-12 14 -24 28.5t-12 34.5q0 70 66 70t66 -70q0 -20 -11.5 -34.5t-23.5 -28.5q32 16 40 16q71 0 71 -68zM630 1145
q0 -26 -22.5 -46.5t-48.5 -20.5q-49 0 -62 52v-31q0 -69 34 -123q-13 5 -43 5t-43 -5q34 54 34 123v31q-13 -52 -62 -52q-26 0 -48.5 20.5t-22.5 46.5q0 69 71 69q6 0 40 -17q-12 14 -23.5 28.5t-11.5 34.5q0 70 66 70t66 -70q0 -20 -12 -34.5t-24 -28.5q34 17 41 17
q71 0 71 -69zM277 1354q0 -106 -71 -106q-56 0 -58 63h25q5 -39 36 -39q40 0 41 76q-21 -23 -47 -23q-57 0 -57 64q0 69 61 69q32 0 51 -26t19 -78zM1282 399q0 -68 -71 -68q-8 0 -40 16q12 -14 23.5 -28.5t11.5 -34.5q0 -70 -66 -70t-66 70q0 20 12 34.5t24 28.5
q-32 -16 -41 -16q-71 0 -71 68q0 26 22.5 47t48.5 21q50 0 63 -52v30q0 67 -35 123q13 -5 43 -5q31 0 44 5q-35 -56 -35 -123v-30q13 52 62 52q26 0 48.5 -21t22.5 -47zM1497 72q0 -39 -41 -39q-3 0 -23 10q21 -32 21 -37q0 -39 -38 -39t-38 39q0 7 20 37q-20 -10 -23 -10
q-40 0 -40 39q0 38 40 38q29 0 36 -29v18q0 40 -19 70q8 -3 24 -3t24 3q-19 -30 -19 -70v-18q7 29 35 29q41 0 41 -38zM956 581q0 -26 -22.5 -46.5t-48.5 -20.5q-49 0 -62 52v-31q0 -69 34 -123q-13 5 -43 5t-43 -5q34 54 34 123v31q-13 -52 -62 -52q-26 0 -48.5 20.5
t-22.5 46.5q0 68 71 68q9 0 41 -16q-12 14 -24 28.5t-12 34.5q0 70 66 70t66 -70q0 -20 -12 -34.5t-24 -28.5q32 16 41 16q71 0 71 -68zM293 1092q0 -38 -40 -38q-29 0 -36 29v-18q0 -40 19 -70q-8 3 -24 3t-24 -3q19 30 19 70v18q-7 -29 -35 -29q-41 0 -41 38q0 39 41 39
q3 0 23 -10q-21 32 -21 37q0 39 38 39t38 -39q0 -7 -20 -37q20 10 23 10q40 0 40 -39zM630 765q0 -26 -22.5 -47t-48.5 -21q-49 0 -62 52v-30q0 -69 34 -123q-13 5 -43 5t-43 -5q34 54 34 123v30q-13 -52 -62 -52q-26 0 -48.5 21t-22.5 47q0 68 71 68q8 0 40 -16
q-12 14 -23.5 28.5t-11.5 34.5q0 70 66 70t66 -70q0 -20 -12 -34.5t-24 -28.5q32 16 41 16q71 0 71 -68zM1482 -225q0 -69 -61 -69q-32 0 -51 26t-19 78q0 106 71 106q56 0 58 -63h-25q-5 39 -36 39q-40 0 -41 -76q21 23 47 23q57 0 57 -64zM1282 19q0 -69 -71 -69
q-6 0 -40 17q12 -14 23.5 -29t11.5 -35q0 -69 -66 -69t-66 69q0 20 12 35t24 29q-34 -17 -41 -17q-71 0 -71 69q0 26 22.5 46.5t48.5 20.5q50 0 63 -52v31q0 67 -35 123q13 -5 43 -5q31 0 44 5q-35 -56 -35 -123v-31q13 52 62 52q26 0 48.5 -20.5t22.5 -46.5zM630 399
q0 -68 -71 -68q-9 0 -41 16q12 -14 24 -28.5t12 -34.5q0 -70 -66 -70t-66 70q0 20 11.5 34.5t23.5 28.5q-32 -16 -40 -16q-71 0 -71 68q0 26 22.5 47t48.5 21q49 0 62 -52v30q0 69 -34 123q13 -5 43 -5t43 5q-34 -54 -34 -123v-30q13 52 62 52q26 0 48.5 -21t22.5 -47z
M630 19q0 -69 -71 -69q-7 0 -41 17q12 -14 24 -29t12 -35q0 -69 -66 -69t-66 69q0 20 11.5 35t23.5 29q-34 -17 -40 -17q-71 0 -71 69q0 26 22.5 46.5t48.5 20.5q49 0 62 -52v31q0 69 -34 123q13 -5 43 -5t43 5q-34 -54 -34 -123v-31q13 52 62 52q26 0 48.5 -20.5
t22.5 -46.5zM249 1378q-6 56 -40 56q-37 0 -37 -43q0 -39 34 -39q22 0 43 26zM1456 -227q0 39 -34 39q-22 0 -43 -26q6 -56 40 -56q37 0 37 43z" />
  </g>

</svg>
