<?xml version="1.0" standalone="no"?>
<!DOCTYPE svg PUBLIC "-//W3C//DTD SVG 1.1//EN" "http://www.w3.org/Graphics/SVG/1.1/DTD/svg11.dtd" >
<svg viewBox="0 -442 2048 2048">
  <g transform="matrix(1 0 0 -1 0 1606)">
   <path fill="currentColor"
d="M1578 -244q0 -148 -138 -148h-1252q-138 0 -138 148v1652q0 148 138 148h1252q138 0 138 -148v-1652zM1544 -244v1652q0 114 -104 114h-1252q-104 0 -104 -114v-1652q0 -114 104 -114h1252q104 0 104 114zM956 1145q0 -26 -22.5 -46.5t-48.5 -20.5q-49 0 -62 52v-31
q0 -69 34 -123q-13 5 -43 5t-43 -5q34 54 34 123v31q-13 -52 -62 -52q-26 0 -48.5 20.5t-22.5 46.5q0 69 71 69q7 0 41 -17q-12 14 -24 28.5t-12 34.5q0 70 66 70t66 -70q0 -20 -12 -34.5t-24 -28.5q34 17 41 17q71 0 71 -69zM277 1324l-1 -72h-130q0 20 8 40q12 30 62 67
q18 13 24.5 22.5t6.5 19.5q0 33 -33 33q-39 0 -36 -56h-27v9q0 71 61 71q64 0 64 -55q0 -17 -12 -33q-6 -8 -50 -43q-35 -27 -38 -49h76l1 46h24zM1497 72q0 -39 -41 -39q-3 0 -23 10q21 -32 21 -37q0 -39 -38 -39t-38 39q0 7 20 37q-20 -10 -23 -10q-40 0 -40 39
q0 38 40 38q29 0 36 -29v18q0 40 -19 70q8 -3 24 -3t24 3q-19 -30 -19 -70v-18q7 29 35 29q41 0 41 -38zM293 1092q0 -38 -40 -38q-29 0 -36 29v-18q0 -40 19 -70q-8 3 -24 3t-24 -3q19 30 19 70v18q-7 -29 -35 -29q-41 0 -41 38q0 39 41 39q3 0 23 -10q-21 32 -21 37
q0 39 38 39t38 -39q0 -7 -20 -37q20 10 23 10q40 0 40 -39zM1482 -88q0 -20 -8 -40q-12 -30 -62 -67q-18 -13 -24.5 -22.5t-6.5 -19.5q0 -33 33 -33q39 0 36 56h27v-9q0 -71 -61 -71q-64 0 -64 55q0 17 12 33q6 8 50 43q35 27 38 49h-76l-1 -46h-24l1 72h130zM956 19
q0 -69 -71 -69q-7 0 -41 17q12 -14 24 -29t12 -35q0 -69 -66 -69t-66 69q0 20 12 35t24 29q-34 -17 -41 -17q-71 0 -71 69q0 26 22.5 46.5t48.5 20.5q49 0 62 -52v31q0 69 -34 123q13 -5 43 -5t43 5q-34 -54 -34 -123v-31q13 52 62 52q26 0 48.5 -20.5t22.5 -46.5z" />
  </g>

</svg>
