<?xml version="1.0" standalone="no"?>
<!DOCTYPE svg PUBLIC "-//W3C//DTD SVG 1.1//EN" "http://www.w3.org/Graphics/SVG/1.1/DTD/svg11.dtd" >
<svg viewBox="0 -442 2048 2048">
  <g transform="matrix(1 0 0 -1 0 1606)">
   <path fill="currentColor"
d="M1578 -244q0 -148 -138 -148h-1252q-138 0 -138 148v1652q0 148 138 148h1252q138 0 138 -148v-1652zM1544 -244v1652q0 114 -104 114h-1252q-104 0 -104 -114v-1652q0 -114 104 -114h1252q104 0 104 114zM285 1429h-28v-110q0 -80 -71 -80q-46 0 -56 48l26 9
q10 -31 33 -31q37 0 37 53v111h-41v26h100v-26zM1497 72q0 -39 -41 -39q-3 0 -23 10q21 -32 21 -37q0 -39 -38 -39t-38 39q0 7 20 37q-20 -10 -23 -10q-40 0 -40 39q0 38 40 38q29 0 36 -29v18q0 40 -19 70q8 -3 24 -3t24 3q-19 -30 -19 -70v-18q7 29 35 29q41 0 41 -38z
M1296 -166h-964v1496h964v-1496zM293 1092q0 -38 -40 -38q-29 0 -36 29v-18q0 -40 19 -70q-8 3 -24 3t-24 -3q19 30 19 70v18q-7 -29 -35 -29q-41 0 -41 38q0 39 41 39q3 0 23 -10q-21 32 -21 37q0 39 38 39t38 -39q0 -7 -20 -37q20 10 23 10q40 0 40 -39zM1498 -123l-26 -9
q-10 31 -33 31q-37 0 -37 -53v-111h41v-26h-100v26h28v110q0 80 71 80q46 0 56 -48zM1284 -154v1472h-940v-1472h940zM1160 1251l-29 -187l-18 -5q-68 79 -177 79t-177 -79l-18 5l-29 187l10 12h428zM1267 654h-30v-2q15 -16 15 -37q0 -22 -15 -38v-91h-78v91q-15 16 -15 38
q0 21 15 37v2h-30v20h30v271l39 72l39 -72v-271h30v-20zM1143 895q0 -69 -41.5 -123.5t-105.5 -74.5l12 -61l-20 -4l-11 60q-16 -3 -31 -4v-54h-20v54q-15 1 -31 4l-11 -60l-20 4l12 61q-64 20 -105.5 74.5t-41.5 123.5q0 85 61 146t146 61t146 -61t61 -146zM632 1121
q0 -24 -20 -42t-44 -18q-46 0 -57 46v-22q0 -63 30 -111q-10 4 -38 4t-38 -4q30 48 30 111v22q-11 -46 -57 -46q-24 0 -44 18t-20 42q0 62 64 62q7 0 37 -16q-32 47 -32 59q0 62 60 62t60 -62q0 -12 -32 -59q30 16 37 16q64 0 64 -62zM1141 518q-90 -101 -243 -128l-4 20
q143 25 232 121zM734 754q-143 -25 -232 -121l-15 13q90 101 243 128zM1254 43q0 -62 -64 -62q-7 0 -37 16q32 -47 32 -59q0 -62 -60 -62t-60 62q0 12 32 59q-30 -16 -37 -16q-64 0 -64 62q0 24 20 42t44 18q46 0 57 -46v22q0 63 -30 111q10 -4 38 -4t38 4q-30 -48 -30 -111
v-22q11 46 57 46q24 0 44 -18t20 -42zM899 269q0 -85 -61 -146t-146 -61t-146 61t-61 146q0 69 41.5 123.5t105.5 74.5l-12 61l20 4l11 -60q16 3 31 4v54h20v-54q15 -1 31 -4l11 60l20 -4l-12 -61q64 -20 105.5 -74.5t41.5 -123.5zM499 490h-30v-271l-39 -72l-39 72v271h-30
v20h30v2q-15 16 -15 37q0 22 15 38v91h78v-91q15 -16 15 -38q0 -21 -15 -37v-2h30v-20zM916 -87l-10 -12h-428l-10 12l29 187l18 5q68 -79 177 -79t177 79l18 -5zM1138 1243h-404l24 -155q72 70 178 70t178 -70zM1217 665v274l-19 36l-19 -36v-274q11 4 19 4t19 -4z
M1123 895q0 77 -55 132t-132 55t-132 -55t-55 -132q0 -62 36.5 -111t93.5 -67l9 48l20 -4l-9 -49q17 -3 27 -4v55h20v-55q10 1 27 4l-9 49l20 4l9 -48q57 18 93.5 67t36.5 111zM1232 615q0 34 -34 34t-34 -34t34 -34t34 34zM1217 506v58q-8 -3 -19 -3t-19 3v-58h38zM449 600
v58h-38v-58q8 3 19 3t19 -3zM464 549q0 34 -34 34t-34 -34t34 -34t34 34zM879 269q0 62 -36.5 111t-93.5 67l-9 -48l-20 4l9 49q-17 3 -27 4v-55h-20v55q-10 -1 -27 -4l9 -49l-20 -4l-9 48q-57 -18 -93.5 -67t-36.5 -111q0 -77 55 -132t132 -55t132 55t55 132zM449 225v274
q-11 -4 -19 -4t-19 4v-274l19 -36zM894 -79l-24 155q-72 -70 -178 -70t-178 70l-24 -155h404zM1050 936q-53 4 -90 0q21 40 46 40q30 0 44 -40zM979 857h-61l-10 12l20 78l19 -5l-16 -65h48v-20zM910 936q-53 4 -90 0q21 40 46 40q30 0 44 -40zM981 793h-90v20h90v-20z
M737 351h-90v20h90v-20zM808 228q-21 -40 -46 -40q-30 0 -44 40q53 -4 90 0zM720 295l-20 -78l-19 5l16 65h-48v20h61zM668 228q-21 -40 -46 -40q-30 0 -44 40q53 -4 90 0z" />
  </g>

</svg>
