<?xml version="1.0" standalone="no"?>
<!DOCTYPE svg PUBLIC "-//W3C//DTD SVG 1.1//EN" "http://www.w3.org/Graphics/SVG/1.1/DTD/svg11.dtd" >
<svg viewBox="0 -442 2048 2048">
  <g transform="matrix(1 0 0 -1 0 1606)">
   <path fill="currentColor"
d="M1578 -244q0 -148 -138 -148h-1252q-138 0 -138 148v1652q0 148 138 148h1252q138 0 138 -148v-1652zM1544 -244v1652q0 114 -104 114h-1252q-104 0 -104 -114v-1652q0 -114 104 -114h1252q104 0 104 114zM316 1353q0 -88 -82 -103q18 -11 34 -11q1 0 15 4l-13 -32
q-3 -1 -9 -2q-14 0 -38 11.5t-37 11.5q-12 0 -22 -9l-11 17q10 10 20 15q-66 25 -66 99q0 46 29 75t75 29t75.5 -29.5t29.5 -75.5zM1497 72q0 -39 -41 -39q-3 0 -23 10q21 -32 21 -37q0 -39 -38 -39t-38 39q0 7 20 37q-20 -10 -23 -10q-40 0 -40 39q0 38 40 38q29 0 36 -29
v18q0 40 -19 70q8 -3 24 -3t24 3q-19 -30 -19 -70v-18q7 29 35 29q41 0 41 -38zM1296 -166h-964v1496h964v-1496zM293 1092q0 -38 -40 -38q-29 0 -36 29v-18q0 -40 19 -70q-8 3 -24 3t-24 -3q19 30 19 70v18q-7 -29 -35 -29q-41 0 -41 38q0 39 41 39q3 0 23 -10
q-21 32 -21 37q0 39 38 39t38 -39q0 -7 -20 -37q20 10 23 10q40 0 40 -39zM1521 -190q0 -46 -29 -75t-75 -29t-75.5 29.5t-29.5 75.5q0 88 82 103q-18 11 -34 11q-1 0 -15 -4l13 32q3 1 9 2q14 0 38 -11.5t37 -11.5q12 0 22 9l11 -17q-10 -10 -20 -15q66 -25 66 -99z
M283 1353q0 77 -72 77q-71 0 -71 -76q0 -78 71 -78q72 0 72 77zM1284 -154v1472h-940v-1472h940zM1488 -190q0 78 -71 78q-72 0 -72 -77t72 -77q71 0 71 76zM1121 1277l-26 -172l-16 -7q-60 40 -133 40t-133 -40l-16 7l-26 172l18 8l52 -62l45 61h16l44 -60l44 60h16l45 -61
l52 62zM1195 786q0 -62 -17 -139l-10 -8h-150l-9 13q5 13 15 46q-44 -20 -88 -20q-87 0 -149.5 62.5t-62.5 149.5t62.5 149.5t149.5 62.5q78 0 154 -73q71 -67 93 -147q12 -43 12 -96zM632 1121q0 -24 -20 -42t-44 -18q-46 0 -57 46v-22q0 -63 30 -111q-10 4 -38 4t-38 -4
q30 48 30 111v22q-11 -46 -57 -46q-24 0 -44 18t-20 42q0 62 64 62q7 0 37 -16q-32 47 -32 59q0 62 60 62t60 -62q0 -12 -32 -59q30 16 37 16q64 0 64 -62zM1169 490h-59v-44q11 13 35 13h23v-20q0 -45 -33 -45h-3v-6h3q33 0 33 -45v-20h-20q-45 0 -45 33v3h-6v-3
q0 -33 -45 -33h-20v23q0 42 33 42h3v6h-3q-33 0 -33 45v13q-66 -40 -134 -52l-4 20q71 12 142 58l11 -17l-3 -2h8q26 0 38 -13v44h-59v20h33q-18 16 -18 40q0 54 54 54t54 -54q0 -24 -18 -40h33v-20zM734 744q-71 -12 -142 -58l-11 17l3 2h-8q-26 0 -38 13v-44h59v-20h-33
q18 -16 18 -40q0 -54 -54 -54t-54 54q0 24 18 40h-33v20h59v44q-11 -13 -35 -13h-23v20q0 45 33 45h3v6h-3q-33 0 -33 45v20h20q45 0 45 -33v-3h6v3q0 33 45 33h20v-23q0 -42 -33 -42h-3v-6h3q33 0 33 -45v-13q66 40 134 52zM1254 43q0 -62 -64 -62q-7 0 -37 16
q32 -47 32 -59q0 -62 -60 -62t-60 62q0 12 32 59q-30 -16 -37 -16q-64 0 -64 62q0 24 20 42t44 18q46 0 57 -46v22q0 63 -30 111q10 -4 38 -4t38 4q-30 -48 -30 -111v-22q11 46 57 46q24 0 44 -18t20 -42zM904 274q0 -87 -62.5 -149.5t-149.5 -62.5q-78 0 -154 73
q-71 68 -93 147q-12 43 -12 96q0 62 17 139l10 8h150l9 -13q-5 -13 -15 -46q44 20 88 20q87 0 149.5 -62.5t62.5 -149.5zM857 -113l-18 -8l-52 62l-45 -61h-16l-44 60l-44 -60h-16l-45 61l-52 -62l-18 8l26 172l16 7q60 -40 133 -40t133 40l16 -7zM1096 1245l-38 -45l-16 1
l-44 60l-44 -60h-16l-44 60l-44 -60l-16 -1l-38 45l19 -122q60 35 131 35t131 -35zM1175 786q0 46 -12 90q-32 116 -141 180q46 -100 46 -206q0 -90 -36 -191h128q15 70 15 127zM1048 850q0 111 -55 220q-30 12 -57 12q-79 0 -135.5 -56.5t-56.5 -135.5t56.5 -135.5
t135.5 -56.5q45 0 95 26q17 64 17 126zM1134 550q0 34 -34 34t-34 -34t34 -34t34 34zM1148 439q-25 0 -25 -13q0 -12 12 -12q13 0 13 25zM1077 426q0 13 -25 13q0 -25 13 -25q12 0 12 12zM1112 391q0 12 -12 12t-12 -12t12 -12t12 12zM1148 343q0 25 -13 25q-12 0 -12 -12
q0 -13 25 -13zM1077 356q0 12 -12 12q-13 0 -13 -25q25 0 25 13zM576 821q-25 0 -25 -13q0 -12 12 -12q13 0 13 25zM505 808q0 13 -25 13q0 -25 13 -25q12 0 12 12zM540 773q0 12 -12 12t-12 -12t12 -12t12 12zM576 725q0 25 -13 25q-12 0 -12 -12q0 -13 25 -13zM505 738
q0 12 -12 12q-13 0 -13 -25q25 0 25 13zM562 614q0 34 -34 34t-34 -34t34 -34t34 34zM884 274q0 79 -56.5 135.5t-135.5 56.5q-45 0 -95 -26q-17 -64 -17 -126q0 -111 55 -220q30 -12 57 -12q79 0 135.5 56.5t56.5 135.5zM606 108q-46 100 -46 206q0 90 36 191h-128
q-15 -70 -15 -127q0 -46 12 -90q32 -116 141 -180zM832 -81l-19 122q-60 -35 -131 -35t-131 35l-19 -122l38 45l16 -1l44 -60l44 60h16l44 -60l44 60l16 1zM1017 966q-21 -40 -46 -40q-30 0 -44 40q53 -4 90 0zM937 867h-44l-10 12l16 78l20 -4l-14 -66h32v-20zM887 966
q-21 -40 -46 -40q-30 0 -44 40q53 -4 90 0zM952 826q-15 -36 -48 -36t-48 36l18 8q10 -24 30 -24t30 24zM772 338l-18 -8q-10 24 -30 24t-30 -24l-18 8q16 36 48 36q33 0 48 -36zM831 198q-53 4 -90 0q21 40 46 40q30 0 44 -40zM745 285l-16 -78l-20 4l14 66h-32v20h44z
M701 198q-53 4 -90 0q21 40 46 40q30 0 44 -40z" />
  </g>

</svg>
