<?xml version="1.0" standalone="no"?>
<!DOCTYPE svg PUBLIC "-//W3C//DTD SVG 1.1//EN" "http://www.w3.org/Graphics/SVG/1.1/DTD/svg11.dtd" >
<svg viewBox="0 -442 2048 2048">
  <g transform="matrix(1 0 0 -1 0 1606)">
   <path fill="currentColor"
d="M1578 -244q0 -148 -148 -148h-1232q-148 0 -148 148v1652q0 148 148 148h1232q148 0 148 -148v-1652zM1544 -244v1652q0 114 -114 114h-1232q-114 0 -114 -114v-1652q0 -114 114 -114h1232q114 0 114 114zM282 1307q0 -59 -68 -59q-73 0 -73 59q0 37 36 51q-29 17 -29 47
q0 53 62 53q66 0 66 -53q0 -30 -29 -47q35 -14 35 -51zM1284 -166h-940v1496h940v-1496zM1487 -143q0 -37 -36 -51q29 -17 29 -47q0 -53 -62 -53q-66 0 -66 53q0 30 29 47q-35 14 -35 51q0 59 68 59q73 0 73 -59zM249 1401q0 33 -38 33q-37 0 -37 -33q0 -31 38 -31
q37 0 37 31zM1272 133v1185h-916v-1207q131 109 249 109q91 0 258 -62q157 114 157 301q0 96 -51 188l42 39q79 -52 127 -147q45 -92 45 -190q0 -140 -87 -252q17 -1 24 -1q76 0 152 37zM253 1309q0 36 -42 36q-41 0 -41 -36q0 -37 42 -37q41 0 41 37zM1123 349
q0 96 -48 181q5 -31 5 -71q0 -193 -151 -325q51 -18 96 -27q98 105 98 242zM1458 -145q0 37 -42 37q-41 0 -41 -37q0 -36 42 -36q41 0 41 36zM1454 -237q0 31 -38 31q-37 0 -37 -31q0 -33 38 -33q37 0 37 33zM1272 -154v232q-74 -32 -152 -32q-91 0 -258 62t-257 62
q-112 0 -249 -125v-199h916z" />
  </g>

</svg>
