<?xml version="1.0" standalone="no"?>
<!DOCTYPE svg PUBLIC "-//W3C//DTD SVG 1.1//EN" "http://www.w3.org/Graphics/SVG/1.1/DTD/svg11.dtd" >
<svg viewBox="0 -442 2048 2048">
  <g transform="matrix(1 0 0 -1 0 1606)">
   <path fill="currentColor"
d="M1578 -244q0 -148 -148 -148h-1232q-148 0 -148 148v1652q0 148 148 148h1232q148 0 148 -148v-1652zM1544 -244v1652q0 114 -114 114h-1232q-114 0 -114 -114v-1652q0 -114 114 -114h1232q114 0 114 114zM277 1318q0 -70 -61 -70q-32 0 -51 26t-19 78q0 106 71 106
q57 0 59 -63h-26q-5 39 -35 39q-41 0 -42 -76q21 23 48 23q56 0 56 -63zM1284 -166h-940v1496h940v-1496zM1482 -188q0 -106 -71 -106q-57 0 -59 63h26q5 -39 35 -39q41 0 42 76q-21 -23 -48 -23q-56 0 -56 63q0 70 61 70q32 0 51 -26t19 -78zM252 1315q0 39 -35 39
q-22 0 -43 -26q7 -56 41 -56q37 0 37 43zM1075 583l-135 -53q51 -31 82 -82zM1272 133v1185h-916v-1207q114 95 216 107l2 4l-187 82v36l187 81l-75 190l26 26l190 -75l81 187h36l81 -187l190 75l26 -26l-75 -190l187 -81v-36l-187 -82l50 -126h16q76 0 152 37zM871 558
l-57 133l-57 -133q29 7 57 7t57 -7zM1183 322l-133 57q7 -29 7 -57q0 -29 -7 -58zM1454 -164q-7 56 -41 56q-37 0 -37 -43q0 -39 35 -39q22 0 43 26zM1059 100l-38 95q-25 -41 -64 -70q60 -19 102 -25zM1017 322q0 84 -59.5 143.5t-143.5 59.5t-143.5 -59.5t-59.5 -143.5
q0 -55 28 -103q66 -6 269 -78q109 58 109 181zM688 530l-135 53l53 -135q31 51 82 82zM578 264q-7 29 -7 58q0 28 7 57l-133 -57zM1272 -154v232q-74 -32 -152 -32q-91 0 -258 62t-257 62q-112 0 -249 -125v-199h916z" />
  </g>

</svg>
