<?xml version="1.0" standalone="no"?>
<!DOCTYPE svg PUBLIC "-//W3C//DTD SVG 1.1//EN" "http://www.w3.org/Graphics/SVG/1.1/DTD/svg11.dtd" >
<svg viewBox="0 -442 2048 2048">
  <g transform="matrix(1 0 0 -1 0 1606)">
   <path fill="currentColor"
d="M1578 -244q0 -148 -148 -148h-1232q-148 0 -148 148v1652q0 148 148 148h1232q148 0 148 -148v-1652zM1544 -244v1652q0 114 -114 114h-1232q-114 0 -114 -114v-1652q0 -114 114 -114h1232q114 0 114 114zM281 1316q0 -68 -70 -68q-64 0 -68 68h26q5 -44 42 -44
q41 0 41 44q0 43 -38 43q-25 0 -41 -24q-9 9 -20 14l7 106h109v-54h-25v27h-62l-5 -60q20 16 42 16q62 0 62 -68zM1284 -166h-940v1496h940v-1496zM1485 -152h-26q-5 44 -42 44q-41 0 -41 -44q0 -43 38 -43q25 0 41 24q9 -9 20 -14l-7 -106h-109v54h25v-27h62l5 60
q-20 -16 -42 -16q-62 0 -62 68t70 68q64 0 68 -68zM1272 -154v1472h-916v-1472h916zM1039 1080q0 -32 -24 -62t-56 -30q-36 0 -64.5 24.5t-28.5 59.5q0 37 23.5 64t60.5 27q34 0 61.5 -25t27.5 -58zM1096 -18l-36 -4l-64 609q-37 33 -82 33q-11 0 -25 -6q86 -284 86 -427
v-160q29 1 29 -25q0 -27 -21 -27h-57q-59 0 -59 57q0 15 1 46v45q0 178 -61 240q-10 -17 -15 -80q-6 -69 -13 -88.5t-53 -84.5q-42 -59 -42 -79q0 -6 2 -17.5t2 -17.5q0 -22 -25 -22q-15 0 -29 14q-3 3 -25.5 50.5t-22.5 50.5q0 -7 37 102q40 118 40 289q0 87 -10 131
q-6 26 -42 115q-30 73 -30 116q0 31 100 126t132 95q36 0 61 -84q21 -67 21 -116q0 -17 -5 -52t-5 -52q0 -43 44 -49q41 -4 82 -7q44 -13 44 -71q0 -31 -23 -41zM1030 640q0 41 -32 41q-25 0 -25 -29v-8q0 -9 12.5 -20t21.5 -11q23 0 23 27zM728 679q-54 0 -63 -31
q9 -23 20 -23q26 0 43 54z" />
  </g>

</svg>
