<?xml version="1.0" standalone="no"?>
<!DOCTYPE svg PUBLIC "-//W3C//DTD SVG 1.1//EN" "http://www.w3.org/Graphics/SVG/1.1/DTD/svg11.dtd" >
<svg viewBox="0 -442 2048 2048">
  <g transform="matrix(1 0 0 -1 0 1606)">
   <path fill="currentColor"
d="M1578 -244q0 -148 -148 -148h-1232q-148 0 -148 148v1652q0 148 148 148h1232q148 0 148 -148v-1652zM1544 -244v1652q0 114 -114 114h-1232q-114 0 -114 -114v-1652q0 -114 114 -114h1232q114 0 114 114zM277 1354q0 -106 -71 -106q-56 0 -58 63h25q5 -39 36 -39
q40 0 41 76q-21 -23 -47 -23q-57 0 -57 64q0 69 61 69q32 0 51 -26t19 -78zM1284 -166h-940v1496h940v-1496zM1482 -225q0 -69 -61 -69q-32 0 -51 26t-19 78q0 106 71 106q56 0 58 -63h-25q-5 39 -36 39q-40 0 -41 -76q21 23 47 23q57 0 57 -64zM249 1378q-6 56 -40 56
q-37 0 -37 -43q0 -39 34 -39q22 0 43 26zM1272 133v1185h-916v-1207q131 109 249 109q90 0 257.5 -62t257.5 -62q76 0 152 37zM1456 -227q0 39 -34 39q-22 0 -43 -26q6 -56 40 -56q37 0 37 43zM1272 -154v232q-74 -32 -152 -32q-91 0 -258 62t-257 62q-112 0 -249 -125v-199
h916zM1183 909q0 -171 -125.5 -295t-296.5 -124q-202 0 -329 166l39 44q93 -52 182 -52q148 0 257.5 111t109.5 260q0 96 -51 188l42 39q79 -52 127 -147q45 -92 45 -190zM1123 909q0 96 -48 181q5 -31 5 -71q0 -174 -127 -302.5t-300 -128.5q-30 0 -56 4q78 -42 164 -42
q147 0 254.5 106.5t107.5 252.5z" />
  </g>

</svg>
