<?xml version="1.0" standalone="no"?>
<!DOCTYPE svg PUBLIC "-//W3C//DTD SVG 1.1//EN" "http://www.w3.org/Graphics/SVG/1.1/DTD/svg11.dtd" >
<svg viewBox="0 -442 2048 2048">
  <g transform="matrix(1 0 0 -1 0 1606)">
   <path fill="currentColor"
d="M1578 -244q0 -148 -148 -148h-1232q-148 0 -148 148v1652q0 148 148 148h1232q148 0 148 -148v-1652zM1544 -244v1652q0 114 -114 114h-1232q-114 0 -114 -114v-1652q0 -114 114 -114h1232q114 0 114 114zM274 1353q0 -105 -61 -105q-62 0 -62 105t62 105q61 0 61 -105z
M1284 -166h-940v1496h940v-1496zM1477 -189q0 -105 -62 -105q-61 0 -61 105t61 105q62 0 62 -105zM245 1353q0 81 -32 81q-33 0 -33 -81t33 -81q32 0 32 81zM1272 -154v1472h-916v-1472h916zM1448 -189q0 81 -33 81q-32 0 -32 -81t32 -81q33 0 33 81zM972 1098
q0 -39 -27 -64t-66 -25q-36 0 -63.5 26.5t-27.5 62.5q0 37 27 64t64 27q39 0 66 -26t27 -65zM1039 -1q0 -8 -1 -12q-8 -8 -19 -8q-4 0 -11 2.5t-11 2.5q-8 0 -22.5 -2.5t-22.5 -2.5q-34 0 -57 89q-12 60 -24 119.5t-51 181.5q-37 -115 -63 -257q-25 -138 -56 -138
q-6 0 -19 2.5t-19 2.5q-5 0 -14 -2.5t-14 -2.5q-31 0 -28 29l53 570l-19 32.5t-19 60.5q0 19 9 40t9 26q0 6 -8 13q-17 9 -33 18q-10 7 -10 41q0 43 34.5 111.5t34.5 99.5q0 4 -1.5 12t-1.5 12q0 12 15 23q12 8 24 17q-2 59 -2 76t2 29h16l7 -6q5 6 15 6q7 0 12 -10
q8 -15 10 -77q2 -57 19 -79q8 -4 30 -16q5 -3 22 -31q15 -24 21 -24q9 0 29.5 23t41.5 23q103 0 106 -56v-5q-1 -3 -1 -4q0 -43 4 -129t4 -129q0 -35 -36 -47t-36 -39q0 -9 24 -153.5t41 -266.5q16 -114 16 -165zM753 1026q0 33 -31 33q-11 0 -44 -20q7 -25 13 -50
q10 -34 31 -34q13 0 23 30q8 24 8 41zM844 731q0 11 -14 23t-26 12q-40 0 -40 -44v-14q0 -35 18 -41q4 25 8 51q7 35 21 41q2 -48 2 -42q0 -10 -5.5 -29t-6.5 -27q15 0 30 28q13 25 13 42zM809 619q0 6 -21.5 15t-29.5 9q-4 0 -11.5 -1t-11.5 -1q-47 0 -47 46q0 8 17 31
l24 31l18 39q5 11 30 24q18 10 18 45q0 31 -24.5 54.5t-55.5 23.5q-29 0 -48 -29q-17 -25 -17 -56q0 -23 29.5 -45t29.5 -29q0 -17 -31 -47.5t-31 -67.5q0 -33 27 -58t60 -25q19 0 45 11q30 14 30 30z" />
  </g>

</svg>
