<?xml version="1.0" standalone="no"?>
<!DOCTYPE svg PUBLIC "-//W3C//DTD SVG 1.1//EN" "http://www.w3.org/Graphics/SVG/1.1/DTD/svg11.dtd" >
<svg viewBox="0 -442 2048 2048">
  <g transform="matrix(1 0 0 -1 0 1606)">
   <path fill="currentColor"
d="M1578 -244q0 -148 -148 -148h-1232q-148 0 -148 148v1652q0 148 148 148h1232q148 0 148 -148v-1652zM1544 -244v1652q0 114 -114 114h-1232q-114 0 -114 -114v-1652q0 -114 114 -114h1232q114 0 114 114zM314 1353q0 -105 -61 -105q-62 0 -62 105t62 105q61 0 61 -105z
M191 1252h-83v24h28v154h-28v25h56v-179h27v-24zM1284 -166h-940v1496h940v-1496zM1520 -291h-56v179h-27v24h83v-24h-28v-154h28v-25zM1437 -189q0 -105 -62 -105q-61 0 -61 105t61 105q62 0 62 -105zM285 1353q0 81 -32 81q-33 0 -33 -81t33 -81q32 0 32 81zM1272 -154
v1472h-916v-1472h916zM1408 -189q0 81 -33 81q-32 0 -32 -81t32 -81q33 0 33 81zM1155 617h-682l179 311h-108v40h130l140 243l139 -243h131v-40h-108zM1155 547l-179 -311h108v-40h-130l-140 -243l-139 243h-131v40h108l-179 311h682zM908 968l-94 163l-94 -163h188z
M1086 657l-156 271h-232l-156 -271h544zM1086 507h-544l156 -271h232zM908 196h-188l94 -163zM967 772q0 -41 -68 -37q-48 -24 -96 -24q-33 0 -81 23q-55 27 -55 55q0 23 41.5 53.5t65.5 30.5q41 0 70 -47q15 7 29 7q18 0 56 -22.5t38 -38.5zM895 316l-3 -5l-68 27
q-1 -30 -1 -26q0 -30 11 -52l-3 -4h-24l-3 3l-2 80q-19 -12 -67 -26l-2 5q30 19 67 66q-22 -7 -58 -26l-3 5q29 22 64 69l-50 -28l-3 5q34 37 62 84l6 -2q5 -36 56 -75l-2 -5q-10 0 -46 17q8 -26 52 -54l1 -4l-2 -4l-4 -2q-15 7 -47 18q3 -14 30 -35q36 -28 39 -31zM944 772
q0 4 -32 21t-39 17q-10 0 -36 -13l-4 1q-32 52 -59 52q-15 0 -49.5 -24t-34.5 -37q0 -16 49 -37q44 -18 64 -18q27 0 59.5 12t42.5 12q39 0 39 14z" />
  </g>

</svg>
