<?xml version="1.0" standalone="no"?>
<!DOCTYPE svg PUBLIC "-//W3C//DTD SVG 1.1//EN" "http://www.w3.org/Graphics/SVG/1.1/DTD/svg11.dtd" >
<svg viewBox="0 -442 2048 2048">
  <g transform="matrix(1 0 0 -1 0 1606)">
   <path fill="currentColor"
d="M1578 -244q0 -148 -148 -148h-1232q-148 0 -148 148v1652q0 148 148 148h1232q148 0 148 -148v-1652zM1544 -244v1652q0 114 -114 114h-1232q-114 0 -114 -114v-1652q0 -114 114 -114h1232q114 0 114 114zM251 1252h-83v24h28v154h-28v25h56v-179h27v-24zM1284 -166h-940
v1496h940v-1496zM1460 -291h-56v179h-27v24h83v-24h-28v-154h28v-25zM1272 -154v1472h-916v-1472h916zM911 1087q0 -40 -28.5 -71t-68.5 -31t-68 30.5t-28 71.5t28 71.5t68 30.5t68.5 -31t28.5 -71zM1050 505q0 -32 -37 -32q-32 0 -37 38l-41 340h-14v-838q0 -39 -46 -39
q-47 0 -47 44v478h-28v-478q0 -44 -48 -44q-45 0 -45 39v838h-14l-41 -340q-5 -38 -37 -38q-37 0 -37 32q0 -5 2 11l45 368q4 32 29 54.5t57 22.5h206q32 0 57 -22.5t29 -54.5l45 -368q2 -16 2 -11z" />
  </g>

</svg>
