<?xml version="1.0" standalone="no"?>
<!DOCTYPE svg PUBLIC "-//W3C//DTD SVG 1.1//EN" "http://www.w3.org/Graphics/SVG/1.1/DTD/svg11.dtd" >
<svg viewBox="0 -442 2048 2048">
  <g transform="matrix(1 0 0 -1 0 1606)">
   <path fill="currentColor"
d="M1578 -244q0 -148 -148 -148h-1232q-148 0 -148 148v1652q0 148 148 148h1232q148 0 148 -148v-1652zM1544 -244v1652q0 114 -114 114h-1232q-114 0 -114 -114v-1652q0 -114 114 -114h1232q114 0 114 114zM311 1252h-83v24h28v154h-28v25h56v-179h27v-24zM191 1252h-83
v24h28v154h-28v25h56v-179h27v-24zM1284 -166h-940v1496h940v-1496zM1520 -291h-56v179h-27v24h83v-24h-28v-154h28v-25zM1400 -291h-56v179h-27v24h83v-24h-28v-154h28v-25zM1272 -154v1472h-916v-1472h916zM1155 617h-682l341 594zM1155 547l-341 -594l-341 594h682z
M1086 657l-272 474l-272 -474h544zM1086 507h-544l272 -474zM916 826q-16 -33 -31 -64.5t-66 -31.5q36 17 36 40q-1 1 -3 1q-6 0 -14 -6q4 10 13 30l-2 12q-8 -3 -15 -11q0 23 -2 33q-9 -8 -13 -16q-5 15 -10 25q-11 -10 -8 -20q-5 4 -14 13q-3 -6 -3 -18q0 -4 2 -26
q-7 7 -18 15q-2 -3 -2 -18q0 -3 -2.5 -8.5t-2.5 -8.5q0 -26 40 -37q-7 -2 -15 -2q-30 0 -51 41q-13 34 -27 67q10 -1 33 -16q1 1 1 3q0 19 -9 46q15 -7 30 -18q1 2 1 6q0 19 -9 48q10 0 32 -16q3 23 21 66q8 -31 22 -91q7 1 19 34q4 -30 10 -58q7 2 22 29q4 -7 4 -18
q0 -16 -5 -32zM856 233q0 -46 -42 -46q-44 0 -44 45q0 13 11 67t30 164h6q6 -60 28 -166q11 -52 11 -64zM833 232q0 18 -8 45q-11 34 -13 44q-17 -108 -17 -89q0 -20 19 -20t19 20z" />
  </g>

</svg>
