<?xml version="1.0" standalone="no"?>
<!DOCTYPE svg PUBLIC "-//W3C//DTD SVG 1.1//EN" "http://www.w3.org/Graphics/SVG/1.1/DTD/svg11.dtd" >
<svg viewBox="0 -442 2048 2048">
  <g transform="matrix(1 0 0 -1 0 1606)">
   <path fill="currentColor"
d="M1578 -244q0 -148 -148 -148h-1232q-148 0 -148 148v1652q0 148 148 148h1232q148 0 148 -148v-1652zM1544 -244v1652q0 114 -114 114h-1232q-114 0 -114 -114v-1652q0 -114 114 -114h1232q114 0 114 114zM276 1433q-56 -67 -56 -157h23v-24h-80v24h28q5 85 52 152h-70
v-27h-24v54h127v-22zM1284 -166h-940v1496h940v-1496zM1479 -291h-127v22q56 67 56 157h-23v24h80v-24h-28q-5 -85 -52 -152h70v27h24v-54zM1272 133v1185h-916v-1207q131 109 249 109q90 0 257.5 -62t257.5 -62q76 0 152 37zM1272 -154v232q-74 -32 -152 -32q-91 0 -258 62
t-257 62q-112 0 -249 -125v-199h916zM1241 794l-187 -82l75 -189l-25 -26l-191 75l-81 -188h-36l-81 188l-191 -75l-25 26l75 189l-187 82v36l187 81l-75 190l26 26l190 -75l81 187h36l81 -187l190 75l26 -26l-75 -190l187 -81v-36zM1075 1073l-135 -53q51 -31 82 -82z
M871 1048l-57 133l-57 -133q29 7 57 7t57 -7zM1183 812l-133 57q7 -29 7 -57q0 -29 -7 -58zM688 1020l-135 53l53 -135q31 51 82 82zM1075 551l-54 134q-31 -50 -80 -81zM1017 812q0 84 -59.5 143.5t-143.5 59.5t-143.5 -59.5t-59.5 -143.5t59.5 -144t143.5 -60t143.5 60
t59.5 144zM578 754q-7 29 -7 58q0 28 7 57l-133 -57zM871 575q-29 -7 -57 -7t-57 7l57 -133zM687 604q-49 31 -80 81l-54 -134z" />
  </g>

</svg>
