<?xml version="1.0" standalone="no"?>
<!DOCTYPE svg PUBLIC "-//W3C//DTD SVG 1.1//EN" "http://www.w3.org/Graphics/SVG/1.1/DTD/svg11.dtd" >
<svg viewBox="0 -442 2048 2048">
  <g transform="matrix(1 0 0 -1 0 1606)">
   <path fill="currentColor"
d="M1578 -244q0 -148 -148 -148h-1232q-148 0 -148 148v1652q0 148 148 148h1232q148 0 148 -148v-1652zM1544 -244v1652q0 114 -114 114h-1232q-114 0 -114 -114v-1652q0 -114 114 -114h1232q114 0 114 114zM282 1310q0 -30 -21 -46t-49 -16q-71 0 -71 72h28q1 -48 45 -48
q39 0 39 37q0 15 -13 26t-47 10v25q51 0 51 31q0 33 -30 33q-34 0 -35 -40h-28q0 34 17.5 49t42.5 15q61 0 61 -54q0 -33 -28 -46q38 -11 38 -48zM1284 -166h-940v1496h940v-1496zM1487 -156h-28q-1 48 -45 48q-39 0 -39 -37q0 -15 13 -26t47 -10v-25q-51 0 -51 -31
q0 -33 30 -33q34 0 35 40h28q0 -34 -17.5 -49t-42.5 -15q-61 0 -61 54q0 33 28 46q-38 11 -38 48q0 30 21 46t49 16q71 0 71 -72zM1272 -154v1472h-916v-1472h916zM959 1098q0 -40 -28.5 -71t-68.5 -31t-68 30.5t-28 71.5t28 71.5t68 30.5t68.5 -31t28.5 -71zM1100 686
l-12 -48q-111 11 -163 72l-38 -142q107 -199 107 -494q0 -29 -2 -64l-88 -9q0 287 -85 369q-39 -162 -185 -383l-79 40q136 220 136 320q0 21 -12.5 76.5t-12.5 74.5q0 7 1 12l-143 41l38 131l49 -14q-12 34 -12 69q0 45 78 146t120 101q87 0 126 -76q27 -71 55 -142
q38 -77 122 -80zM721 801q-62 -31 -62 -89q0 -41 36 -68z" />
  </g>

</svg>
