<?xml version="1.0" standalone="no"?>
<!DOCTYPE svg PUBLIC "-//W3C//DTD SVG 1.1//EN" "http://www.w3.org/Graphics/SVG/1.1/DTD/svg11.dtd" >
<svg viewBox="0 -442 2048 2048">
  <g transform="matrix(1 0 0 -1 0 1606)">
   <path fill="currentColor"
d="M1578 -244q0 -148 -148 -148h-1232q-148 0 -148 148v1652q0 148 148 148h1232q148 0 148 -148v-1652zM1544 -244v1652q0 114 -114 114h-1232q-114 0 -114 -114v-1652q0 -114 114 -114h1232q114 0 114 114zM330 1316q0 -68 -70 -68q-64 0 -68 68h26q5 -44 42 -44
q41 0 41 44q0 43 -38 43q-25 0 -41 -24q-9 9 -20 14l7 106h109v-54h-25v27h-62l-5 -60q20 16 42 16q62 0 62 -68zM191 1252h-83v24h28v154h-28v25h56v-179h27v-24zM1284 -166h-940v1496h940v-1496zM1520 -291h-56v179h-27v24h83v-24h-28v-154h28v-25zM1436 -152h-26
q-5 44 -42 44q-41 0 -41 -44q0 -43 38 -43q25 0 41 24q9 -9 20 -14l-7 -106h-109v54h25v-27h62l5 60q-20 -16 -42 -16q-62 0 -62 68t70 68q64 0 68 -68zM1272 -154v1472h-916v-1472h916zM903 1074q0 -32 -36.5 -57t-69.5 -25q-32 0 -61 26.5t-29 58.5q0 27 26 68.5t52 41.5
q45 0 81.5 -34t36.5 -79zM1145 900q0 -41 -38 -98q-33 -49 -72 -80q-58 -47 -98 -50l69 -686q1 -12 -23 -12q-25 0 -40 16t-35 169h-268q-26 -150 -40.5 -164.5t-41.5 -14.5q-24 0 -22 13l95 657q-17 -12 -32 -12q-44 0 -58 28q-9 19 -28 148q-18 125 -18 158q0 13 13 34.5
t13 25.5q0 3 -1 6l-47 48q-4 4 -4 9q0 12 13 12q4 0 8 -4l53 -54q15 -8 42 -30q13 -20 26 -39.5t47 -19.5q7 0 22 2.5t22 2.5q30 0 53 -37q19 -30 37 -60q17 26 47 92q12 0 37.5 1.5t38.5 1.5q5 0 24 -10t26 -11q62 33 108 33q72 0 72 -75zM823 1037q-39 38 -74 80
q-14 -34 -14 -37q0 -22 18.5 -41t40.5 -19q26 0 29 17zM907 736q0 21 -16 21q-23 0 -23 -28q0 -21 16 -21q23 0 23 28zM624 932l-20 19l-10 -13q7 -6 16 -21q5 7 14 15zM571 993q0 13 -18 25q-7 -5 -19.5 -25t-12.5 -28q0 -25 17 -25q33 0 33 53zM937 318l-35 355
q-54 18 -70 28q-33 22 -33 64q0 36 48 86l76 72l-12 5q-14 0 -49 -2q-23 -51 -65 -115q-26 27 -72 98q-14 21 -23 21q-23 0 -37 -6l44 -46q3 -3 3 -8q0 -12 -12 -12q-5 0 -9 4l-44 46q-22 -24 -22 -51q0 -13 7 -38.5t7 -38.5q0 -11 -9 -15q-3 6 -29 81q-22 66 -30 66
q-31 0 -31 -36q0 -19 13 -99.5t19 -94.5q10 -9 27 -9q5 0 79 54l-59 -409h318z" />
  </g>

</svg>
