<?xml version="1.0" standalone="no"?>
<!DOCTYPE svg PUBLIC "-//W3C//DTD SVG 1.1//EN" "http://www.w3.org/Graphics/SVG/1.1/DTD/svg11.dtd" >
<svg viewBox="0 -442 2048 2048">
  <g transform="matrix(1 0 0 -1 0 1606)">
   <path fill="currentColor"
d="M1578 -244q0 -148 -148 -148h-1232q-148 0 -148 148v1652q0 148 148 148h1232q148 0 148 -148v-1652zM1544 -244v1652q0 114 -114 114h-1232q-114 0 -114 -114v-1652q0 -114 114 -114h1232q114 0 114 114zM282 1306h-33v-30h19v-24h-67v24h21v30h-68l-13 23l85 127h23
v-126h33v-24zM1284 -166h-940v1496h940v-1496zM1487 -165l-85 -127h-23v126h-33v24h33v30h-19v24h67v-24h-21v-30h68zM222 1330v80l-53 -80h53zM1272 -154v1472h-916v-1472h916zM1459 -166h-53v-80zM1028 1100q0 -42 -30 -72.5t-71 -30.5q-40 0 -66.5 29t-26.5 69
q0 42 30 73.5t71 31.5q40 0 66.5 -30t26.5 -70zM1190 624l-28 -65q-76 15 -151 65q-82 55 -109 120l-69 -145q140 -174 219 -570l-106 -42q-72 320 -178 435l-193 -435l-80 52l176 503q-22 36 -22 80q0 97 65 222l-95 -42l-28 -245h-68v297q272 135 315 135q70 0 99 -47
q16 -26 31 -103q13 -72 37 -100q42 -50 185 -115z" />
  </g>

</svg>
