<?xml version="1.0" standalone="no"?>
<!DOCTYPE svg PUBLIC "-//W3C//DTD SVG 1.1//EN" "http://www.w3.org/Graphics/SVG/1.1/DTD/svg11.dtd" >
<svg viewBox="0 -442 2048 2048">
  <g transform="matrix(1 0 0 -1 0 1606)">
   <path fill="currentColor"
d="M1578 -244q0 -148 -148 -148h-1232q-148 0 -148 148v1652q0 148 148 148h1232q148 0 148 -148v-1652zM1544 -244v1652q0 114 -114 114h-1232q-114 0 -114 -114v-1652q0 -114 114 -114h1232q114 0 114 114zM321 1304l-1 -52h-110q0 50 40.5 91.5t40.5 57.5q0 33 -23 33
q-29 0 -26 -46h-27q0 70 51 70q54 0 54 -55q0 -30 -37 -64q-39 -37 -43 -61h56l1 26h24zM191 1252h-83v24h28v154h-28v25h56v-179h27v-24zM1284 -166h-940v1496h940v-1496zM1520 -291h-56v179h-27v24h83v-24h-28v-154h28v-25zM1418 -88q0 -50 -40.5 -91.5t-40.5 -57.5
q0 -33 23 -33q29 0 26 46h27q0 -70 -51 -70q-54 0 -54 55q0 30 38 65.5t42 59.5h-56l-1 -26h-24l1 52h110zM1272 -154v1472h-916v-1472h916zM976 1102q0 -33 -24 -58t-57 -25q-34 0 -58.5 25.5t-24.5 59.5q0 36 24.5 60.5t60.5 24.5q34 0 56.5 -26t22.5 -61zM757 1033
q0 -30 -24.5 -58.5t-53.5 -28.5q-11 0 -41 15.5t-35 15.5t-16 -8t-17 -8q-28 0 -28 34q0 11 39 41q6 5 35 51q19 31 56 31q36 0 60.5 -24.5t24.5 -60.5zM1247 -16h-144l-193 554q-12 -7 -31 -67l173 -497h-671l250 681q0 22 -29 40.5t-29 38.5t12 34.5t24 28.5l-13 87
q15 19 184 82q188 70 215 85q-6 7 -6 14q0 13 71 35q17 -22 48 -69q9 -16 34 -115.5t25 -118.5q0 -36 -38 -36q-29 0 -71 56q-18 -4 -19 -53q0 -14 -1 -67q-1 -41 -1 -67q0 -40 92 -308zM1066 1035q0 38 -25 38q-11 0 -22 -10q0 -44 29 -44q18 0 18 16zM975 939q0 22 -10 22
q-19 0 -65 -26t-46 -42v-31q0 -103 48 -103h27q12 0 26.5 21.5t15.5 34.5q4 38 4 124zM729 1027q0 26 -16 26q5 0 -81 -53q14 -29 43 -29q21 0 37.5 17.5t16.5 38.5zM697 738v19q-10 6 -25 6q-4 0 -32 -7v-6q0 -13 4 -26h22q12 0 31 14zM1010 -4l-240 700q19 85 19 76
q0 24 -14 56l-24 54q46 34 182 93q27 12 41 20q28 16 30 30q-127 -41 -289 -107q-93 -38 -93 -45q0 -19 7 -51q8 -41 19 -41q8 0 24.5 2t24.5 2q19 0 19 -50q0 -18 -27 -30q-20 -8 -41 -17q1 -18 3 -55l-235 -637h594z" />
  </g>

</svg>
