<?xml version="1.0" standalone="no"?>
<!DOCTYPE svg PUBLIC "-//W3C//DTD SVG 1.1//EN" "http://www.w3.org/Graphics/SVG/1.1/DTD/svg11.dtd" >
<svg viewBox="0 -442 2048 2048">
  <g transform="matrix(1 0 0 -1 0 1606)">
   <path fill="currentColor"
d="M1578 -244q0 -148 -148 -148h-1232q-148 0 -148 148v1652q0 148 148 148h1232q148 0 148 -148v-1652zM1544 -244v1652q0 114 -114 114h-1232q-114 0 -114 -114v-1652q0 -114 114 -114h1232q114 0 114 114zM277 1324l-1 -72h-130q0 20 8 40q12 30 62 67q18 13 24.5 22.5
t6.5 19.5q0 33 -33 33q-39 0 -36 -56h-27v9q0 71 61 71q64 0 64 -55q0 -17 -12 -33q-6 -8 -50 -43q-35 -27 -38 -49h76l1 46h24zM1284 -166h-940v1496h940v-1496zM1482 -88q0 -20 -8 -40q-12 -30 -62 -67q-18 -13 -24.5 -22.5t-6.5 -19.5q0 -33 33 -33q39 0 36 56h27v-9
q0 -71 -61 -71q-64 0 -64 55q0 17 12 33q6 8 50 43q35 27 38 49h-76l-1 -46h-24l1 72h130zM1272 -154v1472h-916v-1472h916zM1084 635q0 -15 -9 -24l-109 -108q-45 -45 -45 -87q0 -62 -53 -62h-108q-53 0 -53 62q0 42 -45 87l-109 108q-9 9 -9 24q0 37 35 37q14 0 35 -20
l94 -91h71v15q-53 25 -53 86q0 37 25.5 65.5t62.5 28.5t63 -28.5t26 -65.5q0 -61 -54 -86v-15h71l94 91q21 20 35 20q35 0 35 -37zM991 229q0 -25 -41 -74t-65 -49q-34 0 -34 29q0 13 22.5 36.5t22.5 34.5q0 6 -15 26t-15 35q0 52 50 52q24 0 49.5 -32.5t25.5 -57.5z
M777 135q0 -29 -34 -29q-24 0 -65 49t-41 74t25.5 57.5t49.5 32.5q50 0 50 -52q0 -15 -15 -35t-15 -26q0 -11 22.5 -34.5t22.5 -36.5z" />
  </g>

</svg>
