<?xml version="1.0" standalone="no"?>
<!DOCTYPE svg PUBLIC "-//W3C//DTD SVG 1.1//EN" "http://www.w3.org/Graphics/SVG/1.1/DTD/svg11.dtd" >
<svg viewBox="0 -442 2048 2048">
  <g transform="matrix(1 0 0 -1 0 1606)">
   <path fill="currentColor"
d="M1578 -244q0 -148 -148 -148h-1232q-148 0 -148 148v1652q0 148 148 148h1232q148 0 148 -148v-1652zM1544 -244v1652q0 114 -114 114h-1232q-114 0 -114 -114v-1652q0 -114 114 -114h1232q114 0 114 114zM328 1306h-33v-30h19v-24h-67v24h21v30h-68l-13 23l85 127h23
v-126h33v-24zM191 1252h-83v24h28v154h-28v25h56v-179h27v-24zM1284 -166h-940v1496h940v-1496zM1520 -291h-56v179h-27v24h83v-24h-28v-154h28v-25zM1441 -165l-85 -127h-23v126h-33v24h33v30h-19v24h67v-24h-21v-30h68zM268 1330v80l-53 -80h53zM1272 -154v1472h-916
v-1472h916zM1413 -166h-53v-80zM788 1051q0 -40 -28.5 -71t-68.5 -31t-68 30.5t-28 71.5t28 71.5t68 30.5t68.5 -31t28.5 -71zM1200 851q0 -34 -38 -35q-13 -228 -164 -383l-193 305l-26 -187q169 -210 235 -589l-110 -42q-36 158 -61 232q-48 137 -116 204l-200 -436
l-86 55l188 504q-17 76 -65 223q-9 22 -73 95q-59 68 -59 82q0 38 21 38h296l226 356q174 -174 187 -387q38 -1 38 -35zM1132 886q-13 191 -152 339l-234 -369h-198l8 -17h196q33 0 45 47h335zM1132 816h-341l212 -335q116 133 129 335z" />
  </g>

</svg>
