<?xml version="1.0" standalone="no"?>
<!DOCTYPE svg PUBLIC "-//W3C//DTD SVG 1.1//EN" "http://www.w3.org/Graphics/SVG/1.1/DTD/svg11.dtd" >
<svg viewBox="0 -442 2048 2048">
  <g transform="matrix(1 0 0 -1 0 1606)">
   <path fill="currentColor"
d="M1578 -244q0 -148 -148 -148h-1232q-148 0 -148 148v1652q0 148 148 148h1232q148 0 148 -148v-1652zM1544 -244v1652q0 114 -114 114h-1232q-114 0 -114 -114v-1652q0 -114 114 -114h1232q114 0 114 114zM332 1310q0 -30 -21 -46t-49 -16q-71 0 -71 72h28q1 -48 45 -48
q39 0 39 37q0 15 -13 26t-47 10v25q51 0 51 31q0 33 -30 33q-34 0 -35 -40h-28q0 34 17.5 49t42.5 15q61 0 61 -54q0 -33 -28 -46q38 -11 38 -48zM191 1252h-83v24h28v154h-28v25h56v-179h27v-24zM1284 -166h-940v1496h940v-1496zM1520 -291h-56v179h-27v24h83v-24h-28v-154
h28v-25zM1437 -156h-28q-1 48 -45 48q-39 0 -39 -37q0 -15 13 -26t47 -10v-25q-51 0 -51 -31q0 -33 30 -33q34 0 35 40h28q0 -34 -17.5 -49t-42.5 -15q-61 0 -61 54q0 33 28 46q-38 11 -38 48q0 30 21 46t49 16q71 0 71 -72zM1272 -154v1472h-916v-1472h916zM961 1067
q-34 -81 -95 -81q-10 0 -28.5 6.5t-28.5 6.5q-7 0 -21 -3.5t-21 -3.5q-35 0 -35 36q0 -2 18 42q15 41 30 81q20 38 72 38q18 0 58 -13q44 -15 47 -27q-1 3 -1 -52q0 -18 5 -30zM1085 -26h-75q-57 95 -83 181h-188q-47 -181 -100 -181q-31 0 -31 12q0 2 1 7l80 440h-50
q-41 0 -62 5q-34 115 -34 189h161v68q-23 12 -47 24q-35 20 -35 31q0 27 69 123t92 96q173 0 173 -134q0 -82 -31 -194q7 -16 31 -14v-12q0 -32 -18 -85q-21 -61 -24 -85zM935 1099q0 8 -6 14q-40 -29 -117 -88q17 -17 48 -17t54 31q21 28 21 60zM900 639q-7 21 -51 46
q-32 18 -65 35l-4 -32q84 -55 100 -55q12 0 20 6zM931 599h-24v-18h21zM923 559h-6v-18h1zM886 581v18h-29v-18h29zM752 639v126q-3 2 -7 2h-5q-4 0 -12 -8v-118zM896 541v18h-29v-18h29zM703 723v33h-38q-7 0 -12 -6q23 -16 50 -27zM836 581v18h-29v-18h29zM906 507v12h-29
v-18h27zM846 541v18h-29v-18h29zM786 581v18h-29v-18h29zM856 501v18h-29v-18h29zM896 474v5h-29v-18h26zM796 541v18h-29v-18h29zM736 581v18h-29v-18h29zM806 501v18h-29v-18h29zM846 461v18h-29v-18h29zM746 541v18h-29v-18h29zM686 581v18h-29v-18h29zM756 501v18h-29
v-18h29zM796 461v18h-29v-18h29zM696 541v18h-29v-18h29zM636 581v18h-29v-18h29zM706 501v18h-29v-18h29zM746 461v18h-29v-18h29zM646 541v18h-29v-18h29zM586 581v18h-18l2 -18h16zM656 501v18h-29v-18h29zM696 461v18h-29v-18h29zM985 179l-96 263l-175 -8l-46 -255h317
zM596 541v18h-23l3 -18h20zM606 501v18h-26l5 -18h21zM646 461v18h-29v-18h29zM1051 -2l-57 157h-41q27 -79 71 -157h27zM596 461v18h-6l5 -18h1zM713 155h-50l-29 -157h5q28 0 74 157z" />
  </g>

</svg>
