<?xml version="1.0" standalone="no"?>
<!DOCTYPE svg PUBLIC "-//W3C//DTD SVG 1.1//EN" "http://www.w3.org/Graphics/SVG/1.1/DTD/svg11.dtd" >
<svg viewBox="0 -442 2048 2048">
  <g transform="matrix(1 0 0 -1 0 1606)">
   <path fill="currentColor"
d="M1578 -244q0 -148 -148 -148h-1232q-148 0 -148 148v1652q0 148 148 148h1232q148 0 148 -148v-1652zM1544 -244v1652q0 114 -114 114h-1232q-114 0 -114 -114v-1652q0 -114 114 -114h1232q114 0 114 114zM332 1307q0 -59 -68 -59q-73 0 -73 59q0 37 36 51q-29 17 -29 47
q0 53 62 53q66 0 66 -53q0 -30 -29 -47q35 -14 35 -51zM191 1252h-83v24h28v154h-28v25h56v-179h27v-24zM1284 -166h-940v1496h940v-1496zM1520 -291h-56v179h-27v24h83v-24h-28v-154h28v-25zM1437 -143q0 -37 -36 -51q29 -17 29 -47q0 -53 -62 -53q-66 0 -66 53q0 30 29 47
q-35 14 -35 51q0 59 68 59q73 0 73 -59zM299 1401q0 33 -38 33q-37 0 -37 -33q0 -31 38 -31q37 0 37 31zM303 1309q0 36 -42 36q-41 0 -41 -36q0 -37 42 -37q41 0 41 37zM1272 -154v1472h-916v-1472h916zM1408 -145q0 37 -42 37q-41 0 -41 -37q0 -36 42 -36q41 0 41 36z
M1404 -237q0 31 -38 31q-37 0 -37 -31q0 -33 38 -33q37 0 37 33zM1245 811l-3 -4l-168 -88q85 -17 92 -127l-5 -5h-8q10 -47 10 -88l-6 -5l-8 2q-2 -15 1 -31l-3 -6q-9 -4 -18 -48l-8 -3q-16 12 -48 34q-9 -24 -25 -74l-9 -2l-7 8q-40 -63 -49 -63q-10 0 -20 8
q-22 -16 -58 -52h-7l-5 5l-99 -71l-8 6q24 56 24 75q0 29 -5 37h1l-5 7q4 10 10 32q-14 3 -34 52q-13 -9 -39 -29l-8 5l3 8q-13 -7 -23 -7q-6 0 -11 5q-4 0 -11.5 -6t-13.5 -6q-3 0 -7 2t-7 2q7 0 -58 -15l-6 7q9 22 9 23q0 5 -5 10q-16 -7 -32 -7q-6 0 -18 8q-2 0 -34 -13
l-7 6q1 5 1 10q-9 0 -27.5 -6.5t-28.5 -6.5q-3 0 -8 1t-8 1q-12 0 -48 -12l-5 9q35 26 70 81q53 80 60 89q-9 5 -29 4l-5 7q16 21 36 61l3 4q19 9 43.5 39.5t40.5 39.5q-20 23 -62 66l1 8l8 6q-14 8 -41 28q-12 11 -74 36l2 10q138 0 137 22l7 6q9 -4 14 -4q-1 0 55 9
q0 2 -7 27l6 6q45 -7 40 -7q2 0 6.5 2t6.5 2q12 0 27 -5l3 8l8 4q13 -11 15 -11q3 0 7 2t7 2q7 0 20 -5q1 2 1 5q0 10 -3.5 27.5t-4.5 24.5l5 5h20q16 0 44.5 -15t36.5 -15q2 0 5.5 1t5.5 1q5 0 8 -3l7 4q9 -6 65 -50q4 -12 14 -35l5 9l9 1q42 -43 42 -79q0 -21 -17 -78
l205 108l7 -4v-32zM1133 529v12q0 8 -10.5 28.5t-10.5 30.5q0 11 14 18q-3 44 -66.5 67t-63.5 49q0 15 11.5 41.5t11.5 41.5q0 12 -15 34q-9 -10 -19 -11l-4 3q-14 25 -47 72q-6 -6 -13 -6q-1 0 -3 1q-18 14 -59 35l-36 9q4 -19 4 -31q0 -29 -19 -29q-7 0 -19 7.5t-17 7.5
q-7 0 -19.5 -3.5t-19.5 -3.5q-4 0 -12.5 3.5t-12.5 3.5q2 0 -21 -3q-4 -27 -36 -29q-38 -2 -43 -8q-10 -13 -15 -13q-4 0 -11 2.5t-11 2.5q-15 0 -28 -7q7 -3 20 -10l2 -4q13 -11 32 -34v-5l-8 -9q28 -32 58 -71l-1 -7q-27 -17 -114 -116q11 -5 26 -13l2 -7q-17 -21 -48 -65
q6 -7 9 -13l-1 -5q-18 -17 -51 -55q20 -1 56 11l7 -2l6 -10q11 4 18 4q4 0 9 -4t7 -4q5 0 29 19l7 -1q19 -27 30 -47q17 11 26 11q1 0 5 -1l5 -4q9 9 29 27h7l9 -15q9 5 24 15h6l7 -6l29 29l8 -2q7 -20 14 -41q10 -29 24 -28l5 -4q10 -60 7 -113q27 26 88 64q8 9 28 23
q8 -1 17 -9q27 36 71 118l1 2q5 7 12 7q12 0 46 -22q3 23 13 68l5 4h9zM958 667q-48 -56 -128 -85q-142 -51 -143 -52l-4 2l-8 18l2 4q3 2 138 50q80 29 123 79h4l16 -12v-4z" />
  </g>

</svg>
