<?xml version="1.0" standalone="no"?>
<!DOCTYPE svg PUBLIC "-//W3C//DTD SVG 1.1//EN" "http://www.w3.org/Graphics/SVG/1.1/DTD/svg11.dtd" >
<svg viewBox="0 -442 2048 2048">
  <g transform="matrix(1 0 0 -1 0 1606)">
   <path fill="currentColor"
d="M1578 -244q0 -148 -148 -148h-1232q-148 0 -148 148v1652q0 148 148 148h1232q148 0 148 -148v-1652zM1544 -244v1652q0 114 -114 114h-1232q-114 0 -114 -114v-1652q0 -114 114 -114h1232q114 0 114 114zM327 1318q0 -70 -61 -70q-32 0 -51 26t-19 78q0 106 71 106
q57 0 59 -63h-26q-5 39 -35 39q-41 0 -42 -76q21 23 48 23q56 0 56 -63zM191 1252h-83v24h28v154h-28v25h56v-179h27v-24zM1284 -166h-940v1496h940v-1496zM1520 -291h-56v179h-27v24h83v-24h-28v-154h28v-25zM1432 -188q0 -106 -71 -106q-57 0 -59 63h26q5 -39 35 -39
q41 0 42 76q-21 -23 -48 -23q-56 0 -56 63q0 70 61 70q32 0 51 -26t19 -78zM302 1315q0 39 -35 39q-22 0 -43 -26q7 -56 41 -56q37 0 37 43zM1272 -154v1472h-916v-1472h916zM1404 -164q-7 56 -41 56q-37 0 -37 -43q0 -39 35 -39q22 0 43 26zM1188 751q-10 0 -47 -4
q-4 12 -10 35q5 1 21 8t20 7h8q3 -15 8 -46zM843 1073q-18 -18 -33 -35q-19 14 -32 22l26 43q15 -10 39 -30zM964 875q0 -34 -32 -73.5t-65 -48.5q-15 -4 -39 -4q-78 0 -78 78q0 69 40.5 139t100.5 105q29 17 45 17q1 0 5 -1q-10 -26 -10 -50q0 -28 16.5 -81.5t16.5 -80.5z
M1114 743q-55 -1 -117.5 -48t-79.5 -99q-9 26 -9 44q0 77 51 116q29 21 57 41q19 18 34 65q38 -39 64 -119zM1265 708q-32 -7 -62 -79q-41 -94 -46 -101q-35 -47 -110 -47q-39 0 -75 23q-41 25 -41 62q0 13 18 42q32 51 105 85q69 33 133 33q31 0 78 -18zM794 1014
q-73 -73 -73 -184q0 -23 11 -54q-29 12 -49.5 51t-20.5 72q0 18 13 50.5t13 50.5q0 36 -14 67h17q12 0 53 -22q38 -20 50 -31zM729 533q0 -8 -6 -24q-14 48 -88 88q-69 38 -122 35v16q0 35 47 108q25 -60 72 -79q97 -39 97 -144zM832 -28l-29 35v729h29v-764zM954 496
q-79 -117 -79 -493l-28 -34q0 433 83 555zM494 669q-2 -12 -6 -37h-44v48q30 -8 50 -11zM712 475q0 -19 -22 -44.5t-42 -34.5q-24 -11 -59 -11q-32 0 -54 7q-35 11 -81.5 93t-90.5 98q47 28 121 28q37 0 75 -9q46 -11 95 -46q58 -42 58 -81zM785 30l-34 41q-11 237 -66 334
l24 20q76 -118 76 -395z" />
  </g>

</svg>
