<?xml version="1.0" standalone="no"?>
<!DOCTYPE svg PUBLIC "-//W3C//DTD SVG 1.1//EN" "http://www.w3.org/Graphics/SVG/1.1/DTD/svg11.dtd" >
<svg viewBox="0 -442 2048 2048">
  <g transform="matrix(1 0 0 -1 0 1606)">
   <path fill="currentColor"
d="M1578 -244q0 -148 -148 -148h-1232q-148 0 -148 148v1652q0 148 148 148h1232q148 0 148 -148v-1652zM1544 -244v1652q0 114 -114 114h-1232q-114 0 -114 -114v-1652q0 -114 114 -114h1232q114 0 114 114zM321 1252h-83v24h28v154h-28v25h56v-179h27v-24zM217 1304
l-1 -52h-110q0 50 40.5 91.5t40.5 57.5q0 33 -23 33q-29 0 -26 -46h-27q0 70 51 70q54 0 54 -55q0 -30 -37 -64q-39 -37 -43 -61h56l1 26h24zM1284 -166h-940v1496h940v-1496zM1522 -88q0 -50 -40.5 -91.5t-40.5 -57.5q0 -33 23 -33q29 0 26 46h27q0 -70 -51 -70
q-54 0 -54 55q0 30 38 65.5t42 59.5h-56l-1 -26h-24l1 52h110zM1390 -291h-56v179h-27v24h83v-24h-28v-154h28v-25zM1272 -154v1472h-916v-1472h916zM1053 1178q0 -27 -18.5 -47t-45.5 -20t-45.5 20t-18.5 47t18.5 47.5t45.5 20.5t45.5 -20.5t18.5 -47.5zM1126 947h-48
l-9 75h-9v-75h-142v75h-9l-9 -75h-48l12 97q6 51 57 51h136q51 0 57 -51zM1053 838q0 -27 -18.5 -47t-45.5 -20t-45.5 20t-18.5 47t18.5 47.5t45.5 20.5t45.5 -20.5t18.5 -47.5zM703 1178q0 -27 -18.5 -47t-45.5 -20t-45.5 20t-18.5 47t18.5 47.5t45.5 20.5t45.5 -20.5
t18.5 -47.5zM1126 607h-48l-9 75h-9v-75h-142v75h-9l-9 -75h-48l12 97q6 51 57 51h136q51 0 57 -51zM776 947h-48l-9 75h-9v-75h-142v75h-9l-9 -75h-48l12 97q6 51 57 51h136q51 0 57 -51zM1053 498q0 -27 -18.5 -47t-45.5 -20t-45.5 20t-18.5 47t18.5 47.5t45.5 20.5
t45.5 -20.5t18.5 -47.5zM703 838q0 -27 -18.5 -47t-45.5 -20t-45.5 20t-18.5 47t18.5 47.5t45.5 20.5t45.5 -20.5t18.5 -47.5zM1126 267h-48l-9 75h-9v-75h-142v75h-9l-9 -75h-48l12 97q6 51 57 51h136q51 0 57 -51zM776 607h-48l-9 75h-9v-75h-142v75h-9l-9 -75h-48l12 97
q6 51 57 51h136q51 0 57 -51zM1053 158q0 -27 -18.5 -47t-45.5 -20t-45.5 20t-18.5 47t18.5 47.5t45.5 20.5t45.5 -20.5t18.5 -47.5zM703 498q0 -27 -18.5 -47t-45.5 -20t-45.5 20t-18.5 47t18.5 47.5t45.5 20.5t45.5 -20.5t18.5 -47.5zM1126 -73h-48l-9 75h-9v-75h-142v75
h-9l-9 -75h-48l12 97q6 51 57 51h136q51 0 57 -51zM776 267h-48l-9 75h-9v-75h-142v75h-9l-9 -75h-48l12 97q6 51 57 51h136q51 0 57 -51zM703 158q0 -27 -18.5 -47t-45.5 -20t-45.5 20t-18.5 47t18.5 47.5t45.5 20.5t45.5 -20.5t18.5 -47.5zM776 -73h-48l-9 75h-9v-75h-142
v75h-9l-9 -75h-48l12 97q6 51 57 51h136q51 0 57 -51z" />
  </g>

</svg>
