<?xml version="1.0" standalone="no"?>
<!DOCTYPE svg PUBLIC "-//W3C//DTD SVG 1.1//EN" "http://www.w3.org/Graphics/SVG/1.1/DTD/svg11.dtd" >
<svg viewBox="0 -442 2048 2048">
  <g transform="matrix(1 0 0 -1 0 1606)">
   <path fill="currentColor"
d="M1578 -244q0 -148 -148 -148h-1232q-148 0 -148 148v1652q0 148 148 148h1232q148 0 148 -148v-1652zM1544 -244v1652q0 114 -114 114h-1232q-114 0 -114 -114v-1652q0 -114 114 -114h1232q114 0 114 114zM1284 1099h-12v219h-916v-194l-12 -7v213h940v-231zM334 1353
q0 -105 -61 -105q-62 0 -62 105t62 105q61 0 61 -105zM207 1304l-1 -52h-110q0 50 40.5 91.5t40.5 57.5q0 33 -23 33q-29 0 -26 -46h-27q0 70 51 70q54 0 54 -55q0 -30 -37 -64q-39 -37 -43 -61h56l1 26h24zM1493 839l-143 -814q-11 -62 -65 -62q-7 0 -16 1l-616 109
q-39 7 -51 32q-3 1 -4 2q-29 5 -50 42l-413 716q-14 22 -14 43q0 34 36 55l543 313q21 13 40 13q32 0 56 -42l23 -40l81 29q19 7 34 7q42 0 61 -51l15 -43l85 15q11 2 21 2q54 0 65 -62l8 -45h86q74 0 74 -74v-46l89 -15q58 -10 58 -62q0 -11 -3 -23zM1532 -88
q0 -50 -40.5 -91.5t-40.5 -57.5q0 -33 23 -33q29 0 26 46h27q0 -70 -51 -70q-54 0 -54 55q0 30 38 65.5t42 59.5h-56l-1 -26h-24l1 52h110zM1417 -189q0 -105 -62 -105q-61 0 -61 105t61 105q62 0 62 -105zM1284 -166h-940v588l12 -21v-555h916v78l12 -1v-89zM305 1353
q0 81 -32 81q-33 0 -33 -81t33 -81q32 0 32 81zM1332 942v43q0 57 -57 57h-616q-57 0 -57 -57v-803l139 789q11 63 64 63q8 0 17 -2zM1477 842q9 56 -42 65l-616 109q-7 1 -13 1q-40 0 -48 -48l-144 -814q-10 -56 42 -65l616 -109q7 -1 13 -1q40 0 48 48zM1171 1059l-7 42
q-8 44 -40 48q-11 1 -26 -2l-607 -107q-44 -7 -47 -39q-2 -11 1 -27l140 -791v802q0 74 74 74h512zM993 1146l-14 40q-15 40 -45 40q-12 0 -28 -6l-579 -210q-40 -15 -40 -45q0 -12 6 -28l275 -755l-140 789q-2 12 -2 22q0 53 62 64zM803 1201l-21 37q-20 34 -43 34
q-13 0 -31 -11l-542 -313q-28 -15 -28 -40q0 -16 11 -35l402 -696l-274 754q-7 19 -7 34q0 42 51 61zM1388 -189q0 81 -33 81q-32 0 -32 -81t32 -81q33 0 33 81zM863 883l-2 -12l-39 7l2 12l12 -2l-4 24l-36 7l-12 -22l12 -2l-3 -12l-39 7l3 12l12 -2l40 72l-12 2l2 11
l52 -9l-2 -11l-11 2l13 -81zM711 907h-41v13h11l-32 40v-40h11v-13h-40v13h13v76h-13v13h41v-13h-12v-36l33 36h-12v13h40v-13h-11l-31 -36l32 -40h11v-13zM841 828q-2 -11 -56 -72q-29 74 -27 87q4 20 24 16q21 -3 18 -22q3 18 24 15q20 -4 17 -24zM1128 544
q-4 -20 -97 -126q-51 131 -47 151q6 36 41 29q37 -6 31 -38q6 32 43 25q35 -6 29 -41zM708 861q0 -11 -42 -80q-42 68 -42 80q0 21 20 21q21 0 22 -19q0 19 21 19t21 -21zM1333 154q-4 -20 -24 -16q-21 3 -18 22q-3 -19 -24 -15q-20 4 -17 24q2 11 56 72q29 -75 27 -87z
M564 967q8 -43 -31 -57q9 -4 17 -3q1 0 7 3l-3 -16l-4 -2q-13 3 -39 5q-6 -1 -10 -7l-7 8q4 6 8 9q-34 6 -41 43q-9 51 42 60q52 9 61 -43zM571 871q2 -12 -27 -87q-26 26 -55 72q-4 20 16 24q21 4 24 -15q-3 19 18 22q20 4 24 -16zM1336 107l-2 -12l-12 2l-40 -72l12 -2
l-2 -11l-53 9l2 11l12 -2l-13 81l-12 2l2 13l39 -7l-2 -12l-12 2l4 -24l36 -7l12 21l-12 3l2 12zM389 924q14 -37 -19 -49q-22 -8 -35 13l11 8q10 -13 21 -9q17 7 8 32l-19 52l-19 -7l-5 12l47 17l5 -12l-13 -5zM435 856q4 -10 -12 -90q-30 21 -67 62q-7 19 12 26
q20 7 27 -10q-6 17 14 25q19 7 26 -13zM263 907q26 -46 0 -61q-7 -3 -13 -3q-21 0 -41 33q-26 45 1 61q6 3 12 3q21 0 41 -33zM235 832l-36 -20l-6 10l12 7l-39 67l-12 -7l-6 10l24 14l45 -77l12 7zM307 728q-33 15 -76 49q-10 18 7 28q18 10 28 -6q-9 17 9 27t28 -7
q6 -10 4 -91zM831 925l-7 44h-2l-21 -39zM548 965q-7 38 -42 31q-35 -6 -29 -43q7 -39 42 -33q36 7 29 45zM1290 67l-30 5l7 -44h2zM257 856q13 8 -7 44q-16 28 -29 28q-3 0 -5 -1q-14 -9 6 -44q16 -28 30 -28q2 0 5 1z" />
  </g>

</svg>
