<?xml version="1.0" standalone="no"?>
<!DOCTYPE svg PUBLIC "-//W3C//DTD SVG 1.1//EN" "http://www.w3.org/Graphics/SVG/1.1/DTD/svg11.dtd" >
<svg viewBox="0 -442 2048 2048">
  <g transform="matrix(1 0 0 -1 0 1606)">
   <path fill="currentColor"
d="M1578 -244q0 -148 -148 -148h-1232q-148 0 -148 148v1652q0 148 148 148h1232q148 0 148 -148v-1652zM1544 -244v1652q0 114 -114 114h-1232q-114 0 -114 -114v-1652q0 -114 114 -114h1232q114 0 114 114zM327 1354q0 -106 -71 -106q-56 0 -58 63h25q5 -39 36 -39
q40 0 41 76q-21 -23 -47 -23q-57 0 -57 64q0 69 61 69q32 0 51 -26t19 -78zM191 1252h-83v24h28v154h-28v25h56v-179h27v-24zM1284 -166h-940v1496h940v-1496zM1520 -291h-56v179h-27v24h83v-24h-28v-154h28v-25zM1432 -225q0 -69 -61 -69q-32 0 -51 26t-19 78q0 106 71 106
q56 0 58 -63h-25q-5 39 -36 39q-40 0 -41 -76q21 23 47 23q57 0 57 -64zM299 1378q-6 56 -40 56q-37 0 -37 -43q0 -39 34 -39q22 0 43 26zM1272 -154v1472h-916v-1472h916zM1406 -227q0 39 -34 39q-22 0 -43 -26q6 -56 40 -56q37 0 37 43zM1217 378l-25 -43l-112 65l5 -114
l-50 -2l-6 145l-190 110v-219l123 -78l-27 -43l-96 61v-129h-50v129l-96 -61l-27 43l123 78v219l-190 -110l-6 -145l-50 2l5 114l-112 -65l-25 43l112 65l-101 52l23 45l129 -67l190 109l-190 109l-129 -67l-23 45l101 52l-112 65l25 43l112 -65l-5 114l50 2l6 -145
l190 -110v219l-123 78l27 43l96 -61v129h50v-129l96 61l27 -43l-123 -78v-219l190 110l6 145l50 -2l-5 -114l112 65l25 -43l-112 -65l101 -52l-23 -45l-129 67l-190 -109l190 -109l129 67l23 -45l-101 -52z" />
  </g>

</svg>
