<?xml version="1.0" standalone="no"?>
<!DOCTYPE svg PUBLIC "-//W3C//DTD SVG 1.1//EN" "http://www.w3.org/Graphics/SVG/1.1/DTD/svg11.dtd" >
<svg viewBox="0 -442 2048 2048">
  <g transform="matrix(1 0 0 -1 0 1606)">
   <path fill="currentColor"
d="M2012 -368h-711q4 5 16 17q-4 2 -28 1l-6 21q-2 -4 -11 -21q-15 4 -28 5q6 -8 16 -23l-235 1v16q2 1 15 12q-8 4 -20 6q-1 3 -8 22q-3 -6 -10 -17h-28l15 -23l-6 -17h-44l-7 28q-8 -11 -17 -28h-442l-6 39q-5 -8 -23 -39h-98q-13 15 -28 35l39 107l-2 1l-90 -51l-90 69
l11 -109l-73 -52h-31v29l10 17l28 1q-5 6 -15 17l10 27q-6 -1 -33 -10v40q3 6 10 17q8 0 23 1q-3 6 -10 17q5 10 6 16q-8 -1 -19 -6h-10v161l10 17l30 1l-17 23q2 5 4 16h-3q-4 0 -12 -1.5t-12 -1.5v109h23l-17 17l10 32q-4 -1 -16 -9v132l16 6l17 -6v1l-4 15q6 6 15 12
l-15 6q-2 10 -6 17q-9 -11 -13 -17h-10v1236h344q2 -3 6 -11l-62 -41l86 -17q6 -35 17 -80l34 74h85l-56 53q2 7 5 22h316q2 -3 6 -11l-28 -18q8 -2 27 -5q3 -6 7 -23q0 1 11 22l28 1l-22 22q1 2 13 12h49l-3 -5q5 0 17 4l21 -11q1 3 0 12h111l13 -5l1 1l-2 4h102l12 -40
q7 13 23 39h3l36 -5l-4 6h120l-28 -74l68 39l74 -57l-11 86l13 6h159l12 -51q4 6 29 51h109l-38 -17l1 -1q38 -14 41 -17q9 -19 19 -39l17 40h40l-28 34h137v-276q-5 1 -9 1t-12 -1l11 -17q-2 -7 -5 -11h1l14 5v-137q-5 4 -15 11q0 -4 2.5 -11.5t2.5 -10.5q-6 -7 -11 -12
l15 -6q0 -6 2 -17q1 3 4 8v-1458zM1012 -368h-10l6 6zM1979 1547q-3 3 -7 11l-6 -5l-8 4l4 -5q-3 -2 -10 -5q5 0 10 -1q2 -3 4 -9l2 10h11zM1932 1552h-21q3 -2 6 -10l5 5l4 -5q1 5 6 10zM1989 1484q-32 11 -33 12q-4 4 -17 32l-17 -33h-33q6 -10 20 -29l-10 -34l33 17
l30 -23v35q11 8 27 23zM1909 1512q-7 0 -10 1v9q-2 -3 -7 -9l-9 -1l9 -6l-2 -4l7 5l6 -5q3 8 6 10zM1879 1478q-5 3 -4 11l-6 -5l-8 3l1 -3l-7 -6q9 0 14 -11q0 5 2 11h8zM1897 1443l-9 6l3 11q-3 -1 -9 -5l-7 5q0 -6 -6 -17q8 0 11 -1v-4q3 6 17 5zM1822 1507q-6 3 -10 6
q3 5 5 10q-4 -2 -11 -5l-6 5v-9l-5 -7q5 0 11 -1v-4q1 1 4.5 3t11.5 2zM1782 1518q-9 3 -16 6q-1 17 -1 16q-4 -6 -12 -17h-21q5 -7 10 -17q-2 -6 -5 -17l23 6q5 -2 16 -5q-1 4 -5 16q4 4 11 12zM1885 1397q-3 0 -10 1v10q-6 -12 -15 -11q6 -2 9 -6l-2 -3l7 3l6 -4q1 6 5 10
zM1741 1541l-10 6l4 4l-10 -4l-5 5q-1 -4 -5 -11q5 0 11 -1v-10q6 12 15 11zM1943 1316q-8 0 -11 1v5q-3 -4 -10 -6l4 -5q-1 -2 -4 -11q5 3 10 5l7 -5v9q0 4 4 7zM1771 1478h-5l-4 -5zM1760 1478l-6 10v-10h6zM1765 1467l-6 4l-4 -4h10zM1879 1347l-8 19q0 -11 -6 -9v-11
l6 5zM1725 1518h-22q6 -5 5 -11l6 5l5 -5zM1857 1443q-12 1 -34 7q-4 13 -11 38l-24 -39h-46q-15 -15 -45 -46l34 -29l-6 49l1 3l34 17l23 -17l-11 -40l28 17l34 -23l-5 42q0 3 28 21zM1714 1478q-2 6 -6 17q-3 -6 -11 -17h17zM1672 1529q-2 0 -5 -1q-9 0 -10 9q0 -9 -11 -8
q4 -3 5 -11l6 5l8 -3l-2 2q1 4 9 7zM1811 1375q-5 2 -6 16l-5 -5q-4 2 -11 5q2 -4 5 -11q-5 -3 -9 -5q11 0 15 -6v6h11zM1638 1546q-8 0 -11 1v5q-5 -6 -15 -6q5 -2 10 -5q-1 -6 -5 -11q3 1 11 5l5 -5q1 10 5 16zM1765 1409q-6 2 -10 5q1 5 5 11q-2 -1 -11 -5l-6 5
q0 -6 -6 -16q8 0 11 -1v-4l6 4zM1689 1478l-10 6l5 4l-10 -4l-6 5q-1 -4 -5 -11h26zM1920 1277q-9 11 -28 34l17 40l-40 -23l-34 28q5 -34 5 -39q-22 -17 -38 -28q37 -11 39 -13q8 -7 16 -39l25 40h38zM1920 1231q-1 1 -4 11l4 6h-2l-7 5l-2 -5h-9q4 -6 5 -17l4 5
q4 -2 11 -5zM1823 1340q-9 0 -12 1v9q-3 -7 -5 -10h-9l9 -6l-3 -4l8 4l6 -5q1 4 6 11zM1989 1168l-17 17l13 28q-8 -1 -23 -5l-23 11l6 -22l-23 -23h27q5 -13 7 -23q7 9 12 17h21zM1668 1501h-23v22q-4 -5 -11 -16q-27 -1 -23 -1q4 -6 18 -28l10 5l6 -5h6v11q6 4 17 12z
M1598 1546q-8 0 -11 1v10q-1 -3 -5 -10l11 -11v3zM1547 1553l-6 5l-4 -5h10zM1799 1312q-6 7 -16 23l11 22l-26 -5q-1 0 -25 16q0 -31 -23 -45l33 -6q2 -9 7 -28q5 10 19 28zM1879 1208q-6 3 -10 6l5 5h-15q0 -8 -5 -11q5 0 11 -2v-3q3 5 14 5zM1833 1254q-6 2 -10 5l5 4
l-9 -3l-7 5q0 -4 -4 -11q5 0 11 -1v-10q6 12 14 11zM1736 1340l-11 6q3 4 5 11q-3 -2 -10 -5l-6 5q0 -14 -5 -17q8 0 11 -1v-5q3 5 16 6zM1690 1380q-8 0 -11 1v4l-5 -5q2 -7 11 -16q0 12 5 16zM1714 1373q-10 -5 -29 -16l12 -28zM1956 1105q-4 2 -11 6l2 2l-8 -3l-7 4
q0 -4 -4 -9q1 0 11 -2v-9q4 14 17 11zM1788 1265q-5 9 -5 11l-6 -5l-8 3l2 -3q-4 -2 -9 -6h9q3 -4 6 -10l2 10h9zM1748 1305q-8 0 -11 1v5q0 -1 -17 -6q4 -2 11 -6q-3 -5 -5 -10q7 2 11 5l6 -5q0 13 5 16zM1536 1506q-4 3 -11 5l5 -21q2 5 6 16zM1828 1231q-9 1 -26 5
q-3 8 -7 23l-12 -23l-21 6l15 -23q-1 -5 -5 -16q4 2 17 10l22 -16q-1 7 -5 22zM1909 1139q-18 15 -27 24l10 37l-35 -21l-28 27q5 -35 5 -34v-4q-17 -14 -26 -23h31q4 -9 13 -40l17 34h40zM1731 1283l-26 25q4 -12 9 -25h17zM1989 1040q-6 0 -17 6v-6h-10q6 -5 6 -15l6 5
q3 -2 9 -5q-2 6 -4 9q7 3 10 6zM1714 1455h-97l-47 74q-3 -30 -29 -80q-13 -12 -43 -16q-24 -4 -48 -7q27 -14 80 -46v-5l-11 -103l75 67l91 -39l-34 86zM1759 1214q-8 5 -22 17l11 28l-28 -17l-23 23v-34l-17 -12q25 -7 34 -40l12 35h33zM1455 1489l-16 6v-11q7 1 16 5z
M1932 1059q-29 7 -35 15q-2 2 -15 36l-25 -40h-38l27 -36l-17 -38l45 21l29 -27l-4 43q3 3 33 26zM1758 1174q-4 2 -9 5l4 9l-10 -3l-6 5v-10l-3 -6q8 0 9 -5q3 4 15 5zM1690 1237q-6 3 -5 16l-6 -5q-3 2 -10 5q2 -6 5 -10l-9 -6q10 0 14 -6l1 6h10zM1806 1122h-12v-12l6 -5
q0 6 6 17zM1679 1276l-79 29l-18 -11l57 -12q8 -27 12 -51zM1449 1460h-21l4 -6l1 -10q5 7 11 5q0 7 5 11zM1633 1260q-5 4 -6 16l-5 -5q-3 2 -10 5l4 -11l-8 -5q11 0 14 -5v1q0 5 11 4zM1776 1160l-37 -15q-22 16 -36 28l5 -43q1 -5 -11 -10l11 -10q20 8 39.5 17t28.5 33z
M1662 1214q-4 2 -5 11l-6 -5l-6 5q-1 -4 -5 -11q1 0 11 -11q0 5 1 11h10zM1679 1190q-8 0 -11 1v3q-4 -5 -16 -4q5 -2 10 -5l-3 -10l8 4l6 -5q0 6 6 16zM1627 1230q-3 0 -10 1v9q-9 -11 -17 -10q3 -2 10 -7l-2 -2l8 4l6 -5q0 5 5 10zM1598 1254q-8 2 -10 6l4 3l-10 -3l-6 5
q-1 -4 -5 -11q5 0 11 -1v-10q10 12 16 11zM1425 1421q-5 1 -15 5l-6 -5q8 0 11 -1v-5zM1432 1484l-16 5q-27 -12 -54 -23q-32 -18 -38 -40l39 17l29 -28v40zM1690 1139q-4 2 -11 6l6 5h-16q9 -11 16 -11h5zM1673 1162q-7 1 -21 4l10 -10q3 2 11 6zM1507 1368q-6 3 -11 6
l-6 -11h-39q13 -12 28 -23l-12 -40q21 10 34 17q0 1 6 51zM1347 1495h-35q7 -10 23 -28q2 6 12 28zM1444 1380q-3 2 -6 11l-6 -5q-3 1 -9 4l4 -4l-10 -6q12 0 15 -11q0 5 1 11h11zM1592 1220q-8 2 -10 6l3 2q-6 -3 -17 -8l8 -1v-5q5 6 16 6zM1874 931q-5 6 -15 19q3 3 9 14
q-5 -3 -16 -10l-23 17q2 -8 5 -23q-5 -4 -14 -11h19q3 -6 7 -21l6 15h22zM1931 885l-20 6q-2 27 -2 17q-4 -6 -12 -17h-15q3 -6 10 -18q-2 -7 -4 -16l15 10q6 -4 17 -14l-4 19q4 4 15 13zM1610 1191q-4 2 -5 9l-6 -4q-1 1 -8 3l2 -2q-3 -2 -10 -6q5 0 10 -1q3 -4 6 -10l1 11
h10zM2002 816h-28q-4 12 -6 23l-12 -23q-9 2 -27 5q10 -7 20 -17l-10 -22l23 5l23 -11l-6 23zM1495 1271q-2 7 -5 11v-10zM1633 1180q-4 21 -5 33l-24 -40h-33l22 -23l-10 -39l33 17l12 -6v17q0 7 -2.5 20t-2.5 20v15q3 -4 10 -14zM1582 1196l-29 30l12 45
q-19 -10 -35.5 -20t-16.5 -38v-56q6 12 24 45zM1403 1363l-16 17l6 17q-9 -3 -18 -5q-7 2 -11 5q2 -6 5 -17q-6 -4 -17 -11q8 -2 23 -22l7 15q18 1 21 1zM1484 1282q-8 0 -11 1v3l-6 -3l-11 -1q5 -2 10 -6l-3 -4q4 1 10 5l6 -5v2zM1294 1494q-11 2 -33 7q-3 9 -7 28
q-6 -9 -17 -28q-25 -1 -22 -1q10 -15 10 -17q0 -1 -5 -28q9 3 28 11l23 -16l-5 33q16 7 28 11zM1794 1002l-45 51l27 67l-73 -34l-58 57l12 -84l-63 -42q45 -7 73 -11q7 -31 13 -67l40 63h74zM1564 1179q-4 2 -11 6q2 3 5 9q-3 -1 -10 -4l-6 4l-1 -9l-4 -6q5 0 11 -2v-3
q3 6 16 5zM1466 1328q-31 5 -33.5 7.5t-10.5 32.5l-24 -28h-34l23 -29l-12 -34h5l35 11l23 -22v45zM1627 1088v9q-3 3 -6 10q-4 -12 -15 -10l10 -6l-2 -2l7 4zM1461 1248h-5v-5q2 1 5 5zM1563 1145l-10 6l4 2l-9 -3l-6 4q-3 -7 -6 -9q6 0 12 -2v-4q2 3 15 6zM1977 736
q-11 0 -14 5l-1 -5h-11l5 -6l1 -11l5 5q3 -2 10 -5q-1 1 -4 11zM1788 925l-22 25l5 27h-23l-5 -6q-7 4 -11 6l-23 -46h10q8 -21 12 -38l24 32h33zM1421 1265q-5 4 -6 11l-6 -5l-10 5l5 -5q-3 -2 -10 -6h10q3 -4 5 -10l1 10h11zM1179 1507l-16 23q3 16 5 27l-22 -10
q-11 6 -17 10q2 -7 5 -21l-27 -18h27q0 -3 6 -22q7 8 12 16q9 -2 27 -5zM1616 1065l-28 21l6 -40q7 6 22 19zM1323 1369l-17 17q4 9 11 28l-33 -11l-23 22q5 -30 5 -31l-22 -19q9 -2 28 -7q2 -11 6 -28l22 28q20 1 23 1zM1570 1103q-5 0 -11 2v9q-6 -12 -16 -11q4 -1 10 -4
l-4 -5l10 3l6 -3v2zM1363 1311h-11v6q-4 -6 -15 -7q5 -1 10 -5q-3 -5 -5 -10l10 4l6 -4q0 6 5 16zM1828 840q-9 12 -16 23q3 13 5 22l-22 -11l-16 16l3 -20q-2 -4 -20 -19q12 -3 21 -7q1 -3 6 -21l13 22q9 -2 26 -5zM1541 1116q-3 1 -10 6q1 5 5 11q-2 -1 -11 -5l-6 5
q0 -6 -6 -17h12v-5q4 6 16 5zM1897 759q-8 6 -22 18l11 28l-27 -6l-30 11l5 -27l-15 -18q24 -5 26 -6.5t7 -27.5q7 18 13 28h32zM1570 1070q-7 1 -21 4q10 -6 16 -11zM1455 1265l-45 -23l-46 34l5 -54q0 -1 -33 -26l33 -17q25 15 69 52q6 11 17 34zM1243 1426l-40 12
q-7 21 -11 39l-30 -40h-32l27 -34l-17 -45l46 27l28 -27l-5 38q6 6 34 30zM1943 696h-29q-1 8 -5 22q-3 -5 -10 -16h-24q6 -6 17 -18l-6 -22l19 5q11 -5 21 -11l-4 21q7 6 21 19zM1651 939l-6 44h-11q1 -3 5 -10q-11 -7 -27 -19l33 -6v-15zM1340 1265q-8 10 -22 30l11 44
l-40 -22q-1 1 -34 28l6 -45q-3 -2 -34 -23q35 -10 38 -13t13 -39l22 40h40zM1604 971q-5 0 -11 2v9q-6 -12 -16 -11q7 -2 11 -5l-5 -4l10 3l6 -3v2zM1334 1242h-10l-6 4l-1 -4h-10q7 -5 6 -16l5 5l11 -5q-2 4 -5 11q3 2 10 5zM1633 931l-10 6l5 5h-17v-2l-6 -9h12v-5
q4 6 16 5zM1966 592q-7 0 -10 1v4l-7 -5h-9q1 0 9 -6l-3 -4l10 4l6 -5q0 4 4 11zM1063 1478q-7 5 -21 18l10 27l-21 -16l-17 16q2 -7 5 -22l-22 -12l28 -6v-22l12 22q9 -2 26 -5zM1748 834q-13 2 -39 5q-4 11 -12 34l-18 -34h-33q8 -7 22 -23l-11 -34l34 17l28 -28l-5 39z
M1662 863q-2 4 -6 11h-11v-2l-5 -9q4 0 6.5 -3t4.5 -3l1 6h10zM1570 943l-17 17q3 5 4 11q-12 -3 -25 -5q-6 -3 -18 -18q8 -1 22 -7q1 -4 6 -15q3 9 6 16q18 1 22 1zM1099 1426h-16q-4 6 -6 16q-4 -9 -8 -16h-21q4 -7 11 -18q-3 -10 -5 -16q4 1 17 5l17 -10q0 16 11 39z
M1644 897q-33 12 -36 15q-6 6 -14 36l-24 -34h-39l28 -35l-12 -28q4 -6 6 -11q13 9 29 22l34 -32l-5 41q0 -1 33 26zM1782 736h-27l-12 28q-2 -7 -6 -22h-28l17 -18l-11 -22l27 11l18 -17q0 3 -1 8v8q0 8 23 24zM1834 667l-22 6l-1 16l-12 -16l-16 -1l11 -11l-11 -22
q8 5 17 10l22 -10q-2 7 -5 16zM1897 564l-15 17l10 17l-23 -6l-17 6l7 -17q-6 -6 -11 -12q9 -4 15 -5q2 -6 6 -17q3 10 8 17h20zM1506 950q-6 5 -5 10h-4l-2 -6q-4 0 -15 -4q11 0 15 -7l1 7h10zM1185 1288l-28 29l11 34l-28 -17l-34 23q5 -39 5 -38q0 -3 -28 -25
q31 -5 34.5 -8t10.5 -31l18 33h39zM1598 1013l-113 86v3l16 144l-131 -96l-138 75l69 -155l-115 -105h149l69 -137q16 49 53 145q47 13 141 40zM1495 919q-7 8 -23 23l-10 -23h33zM1524 891h-11v11q-9 -12 -11 -11q5 -4 5 -11l6 5l6 -5v3zM1639 788q-9 1 -27 5q-2 5 -7 23
q-6 -10 -12 -17h-27q15 -16 21.5 -19t27.5 -4zM1587 828q-5 0 -11 2v3q-5 -6 -16 -5q4 -2 10 -7l-5 -8q4 0 11 3l5 -3l-4 9zM1972 414l-10 18q2 7 4 22l-17 -11l-17 11q0 -17 -10 -34q7 -1 23 -22q1 6 6 16h21zM954 1443l-15 18l10 28l-27 -11q-8 5 -25 17v-27
q-5 -7 -15 -19q8 -1 23 -7l9 -27l12 28h28zM1012 1375l-17 17l7 17q-6 -2 -17 -6l-17 11l4 -21q-3 -4 -15 -13q10 -1 20 -6q2 -23 2 -16q6 9 12 16q19 1 21 1zM1075 1328q-23 4 -25 6t-8 23q-1 -2 -13 -23q-9 2 -26 5q8 -7 22 -23l-5 -21l15 10l19 -16v28zM1897 494
q-2 0 -14 1q-3 7 -8 22q-2 -6 -6 -17q-7 -2 -21 -5q4 -6 11 -12q-1 -2 -7 -17l17 6l17 -11q0 18 11 33zM1231 1162l-28 40l11 23l-6 6l-27 -11q-12 8 -35 26q2 -13 5 -38q-12 -10 -39 -35q14 -3 43 -11q3 -11 8 -34l29 34h39zM1478 885q-2 3 -5 11l-6 -5q-4 3 -8 4l2 -4
l-9 -6h9l6 -9l1 9h10zM1736 638q-9 6 -21 18l15 27l-28 -10l-28 16l6 -28l-23 -17q9 -2 28 -6q8 -15 12 -28l12 28h27zM1800 564l-17 23q4 9 5 17l-17 -6q-5 4 -17 11v-22q-7 -4 -22 -12l27 -6q3 -9 7 -22q4 10 14 22zM1650 684q-6 9 -11 18l6 16q-14 -3 -45 -28q6 -2 17 -6
q1 -5 5 -16l6 16h22zM1260 1070l-17 16q7 17 11 28q-9 -3 -28 -11l-23 17l6 -32q-7 -6 -23 -18l28 -7l6 -21q7 8 18 21q21 0 22 7zM1490 831l-6 36l-23 -39h-28l17 -24q-2 -5 -5 -16h17q12 16 28 43zM1099 1185l-17 29l10 22l-26 -11q-7 4 -29 17q0 -14 -11 -40l16 -6
q2 -3 10 -34q5 6 19 23h28zM742 1535q-8 0 -11 1v10q-6 -12 -16 -11q3 -1 10 -6l-3 -4l9 4l6 -4v3zM1782 523q-17 5 -20 6.5t-8 16.5q-17 -17 -39 -17q5 -6 16 -18l-9 -21l20 4q13 -5 23 -10q-2 9 -5 27q12 8 22 12zM908 1357q-2 6 -11 23l6 17l-17 -11l-17 11q2 -6 5 -17
q-5 -4 -15 -11q12 -3 21 -7q2 -6 5 -14l1 9h22zM989 1311l-27 6l-7 28q-5 -8 -18 -28h-26q6 -6 15 -18l-11 -27q19 6 28 10l28 -15l-9 22q17 13 27 22zM834 1426l-11 12l6 17q-6 -2 -17 -6l-17 11q2 -5 5 -16l-15 -18h21v-22l13 22h15zM1317 926q-4 9 -5 16h-16zM1219 1030
h-10q3 -5 5 -11q3 4 5 11zM1632 742q-28 7 -85 23q-8 25 -23 74l-52 -75h-73l51 -58l-23 -84l68 39l64 -57q-6 78 -6 85zM1702 546q-6 6 -17 18q6 7 11 16l-16 -5q-10 5 -18 11q0 -2 1 -5v-6q0 -3 -12 -23q7 -2 23 -22q3 9 6 16h22zM1112 1134l-6 6l1 2l-7 -3l-6 4v-1l-5 -8
q12 0 11 -9q3 12 12 9zM1874 374q-4 5 -15 24l4 21l-17 -10q-9 4 -21 11l3 -21q-1 -2 -25 -13q9 -1 26 -6q3 -8 11 -23q4 8 12 23q7 -2 22 -6zM1805 438l-16 17l10 16q-4 -1 -16 -5q-5 2 -15 5q1 -4 3 -10q-3 -3 -16 -18l24 -6v-15q2 9 6 15q18 1 20 1zM1334 902q-8 0 -11 1
v5q-5 -6 -16 -6q4 -2 10 -7l-5 -9q3 1 11 5l6 -5v10zM1639 604l-33 5q-2 8 -7 23q-5 -12 -11 -22q-4 0 -12 -1v-11h6l-6 -6v-16q11 5 18 10l17 -16v22q12 7 28 12zM1195 1017l-9 6l2 4l-8 -4l-5 5q-2 -8 -6 -11h11v-4q3 5 15 4zM1935 276l-3 -2q-6 0 -10 12q0 -1 -2 -10h-8
l18 -9l-1 4zM1282 925q-7 3 -10 8q3 5 5 9q-2 -1 -11 -5l-5 5q0 -10 -5 -17q8 0 11 -1v-4q3 5 15 5zM1006 1206q-6 5 -17 13q4 6 11 17q-5 -2 -15 -5q-14 2 -23 5q2 -5 4 -17l-8 -6q14 -6 21 -28q2 6 6 17q6 2 21 4zM1189 1057q-12 2 -38 8q-2 6 -11 37l-18 -32h-34l23 -25
l-11 -39l34 17l28 -23l-5 40zM1234 942h-8v-3zM1380 805q-2 2 -28 35l6 27l-6 18l-34 -11l-46 28q5 -48 5 -37v-15q-19 -16 -39 -33q17 -3 33.5 -6.5t23.5 -22.5l57 39q1 -11 0 -22h28zM1080 1116l-28 5q-5 3 -10 27q-6 -6 -17 -20q-3 0 -11 -1t-12 -1q6 -7 17 -23l-11 -27
l27 10q13 -7 24 -15l-5 32q8 5 26 13zM1656 512q-6 9 -11 18l5 10q-6 -3 -16 -5l-17 10q4 -10 5 -16l-22 -11q10 -3 20 -7q2 -1 8 -22q4 8 12 23h16zM713 1437q-6 6 -11 12q2 6 5 17q-5 -2 -16 -5l-12 10q0 -2 1 -6v-6t-17 -22q6 0 17 -1q1 -7 5 -21q2 7 6 17q7 1 22 5z
M1174 983q-3 4 -5 11q-2 -6 -7 -17h-28q4 -6 12 -17zM1403 724q-2 7 -10 17l-1 -5h-5v-11l5 5q4 -2 11 -6zM880 1265q-3 4 -17 18l6 28l-23 -11l-23 11l6 -22q-6 -6 -17 -18q11 0 22 -1l6 -21l12 16h28zM1422 707q-4 6 -12 17q-6 -4 -17 -11zM1771 368q-2 3 -11 12l6 16
q-13 -3 -23 -4q-6 5 -11 10q0 -6 -1 -16q-7 -6 -16 -12q9 -2 19 -5q4 -2 9 -17l6 16h22zM1714 455q-24 3 -34 28l-12 -23h-28q8 -7 22 -23l-11 -28l23 11q9 -6 29 -17v35q4 6 11 17zM1260 885q-6 2 -17 6q-1 7 -6 22q-1 -12 -6 -22h-22q6 -5 16 -17q-4 -6 -9 -11l15 4
l18 -10l-6 17q6 3 17 11zM1186 933v9h-23zM1541 587l-44 45q2 -10 4 -22l-21 -12l27 -6q3 -7 6 -22q4 8 12 22q9 -4 16 -5zM1381 753l-12 6l-11 22l-11 -17l-6 -40q6 2 17 6l11 -11q0 2 -1 7v8q0 7 13 19zM799 1334q-9 2 -19 4q-4 3 -8 18q-2 -6 -7 -16h-22q4 -6 11 -18
q-3 -10 -5 -16q7 1 16 5l23 -11q-1 8 -5 23q5 4 16 11zM1162 942h-17v-9zM937 1168l-15 17l10 28l-23 -11l-21 17l4 -22q-7 -8 -21 -23h26q3 -8 8 -23q4 6 12 17h20zM1174 925h-22q6 -4 5 -17l6 5l5 -5q0 6 6 17zM1402 684q-6 0 -15 5l-1 -5h-10q6 -4 5 -16l6 5q4 -2 11 -5
q-2 5 -5 10zM1754 306q-5 6 -6 10l-6 -5l-8 3l2 -3l-7 -5q9 0 14 -12q0 1 2 12h9zM1817 253q-8 2 -23 7q-1 6 -5 20l-6 -21h-17q7 -9 11 -13q-1 -5 -5 -15q5 1 16 5l12 -10v20q5 3 17 7zM1409 633v5h-5zM1260 793q-3 3 -6 11l-6 -4l-9 4l4 -5q-3 -2 -10 -6h10q3 -4 5 -10
l1 10h11zM1604 461q-9 3 -22 22q-2 -6 -6 -17h-17q8 -8 11 -12l-10 -21l21 10q2 -1 12 -11q0 13 11 29zM1449 587v17l-16 -6q5 -4 16 -11zM1086 1013q-36 16 -37 18q-6 5 -18 37l-19 -38h-44l27 -31l-10 -49l40 27l27 -34l-4 49l1 2q12 7 37 19zM1352 695q-6 -3 -16 -11
q3 -1 10 -6q2 6 6 17zM1570 489q-10 12 -28 35l17 45l-45 -28q-12 12 -29 33l5 -41l-1 -4q-11 -9 -38 -28q33 -10 37 -12q7 -6 19 -34l23 34h40zM1220 839q-9 10 -28 31l11 32l-34 -16l-29 27q5 -34 5 -39q-19 -14 -33 -23q35 -7 37 -9t14 -37l17 34h40zM971 1091h-26
l-13 23l-6 -21q-10 2 -27 4l16 -17l-6 -27l23 10l17 -17l-6 28q12 8 28 17zM1126 926q-8 1 -25 5q-2 5 -7 23q-3 -4 -19 -23h-27q6 -6 17 -18l-11 -33l32 11l19 -17l-5 32q9 6 26 20zM1472 540q-8 0 -11 1v10q-6 -12 -16 -11q5 -2 10 -5l-4 -4l10 4l6 -5v3zM1438 564
q-4 2 -5 11l-6 -5l-10 4l4 -5q-3 -2 -10 -5q13 0 16 -11q0 5 1 11h10zM654 1351q-11 0 -15 6l-1 -6h-10q6 -4 5 -16l7 4l10 -4q-2 5 -5 10zM1254 770q-35 11 -37 13q-6 6 -14 38l-23 -39h-28l68 -40zM851 1150l-22 16l11 28q-10 -8 -23 -15l-15 15l3 -25q-3 -5 -20 -13
l24 -5q5 -3 10 -23q1 11 6 22h26zM1685 305q-2 2 -11 12q3 14 5 22q-9 -5 -17 -11l-17 11l6 -16q-6 -6 -11 -12q6 -2 17 -6v-16q6 8 28 16zM753 1242l-16 17q4 6 11 17q-9 -3 -17 -5q-14 2 -23 5q2 -6 5 -17q-6 -3 -16 -11q16 -3 23 -8q1 -3 6 -15q2 6 6 17h21zM1143 816
q-11 0 -14 5l-1 -5h-11q6 -5 6 -11h16l-5 5zM1622 340l-17 23l5 22l-22 -11l-17 11l5 -21q-1 -3 -22 -13l21 -6q4 -10 7 -22q6 13 12 23zM1535 420l-10 6l3 4l-9 -4l-6 5q0 -3 -2.5 -6t-2.5 -5q8 0 11 -1v-9q2 4 6 10h10zM1091 856q-10 0 -14 6l-2 -6h-9q6 -4 5 -16l6 5
q3 -2 9 -5q-1 3 -4 10zM1714 225q-8 0 -11 8l-1 -8h-11q3 -3 6 -11l6 3l10 -3l-4 5zM765 1162l-11 17q2 7 5 15l-16 -9l-18 15l6 -21q-7 -5 -16 -13l22 -6v-15l11 17h17zM932 996l-10 12q3 6 4 15l-17 -6l-15 11q0 -5 3 -15l-15 -13l21 -6q2 -23 2 -15q3 5 12 15q23 2 15 2z
M1438 495q-3 6 -11 17q4 9 11 28l-28 -10q-19 10 -29 16l6 -28l-22 -17q7 -2 20 -6l2 -2q4 -9 11 -26l18 27q18 1 22 1zM1444 460q-5 2 -6 17l-6 -5q-5 3 -10 5q1 -4 5 -11q-4 -3 -11 -6h9l7 -5l1 5h11zM1490 437q-5 2 -16 6q-5 9 -6 16l-12 -15q-20 -1 -17 -1l11 -23
q-2 -7 -5 -11q5 1 16 5q11 -6 18 -11q0 19 11 34zM1034 874q-2 3 -9 17q1 5 4 16q-5 -2 -15 -4q-13 6 -19 10l7 -22l-17 -12q6 -2 17 -6q3 -10 6 -16q13 18 26 17zM1363 552q-11 22 -11 23h-4q-18 0 -36 -11v-7q17 -3 23 -22q2 6 6 17h22zM1398 609q-29 21 -86 64v4l11 104
l-86 -68l-97 51l45 -108l-79 -75h108l46 -97q36 93 39 96q9 10 99 29zM840 1063l-23 25l11 26l-22 -11l-23 17v-31q-9 -11 -17 -19q18 -4 22.5 -7.5t11.5 -20.5l12 21h28zM989 897q-2 3 -15 23l3 23l-22 -12l-21 11q2 -8 5 -16l-24 -23h28q3 -8 8 -23q3 8 11 23zM1977 -57
l-45 30l7 55l-36 -40l-51 29l11 -51l-28 -35h45l29 -46l13 51q18 3 55 7zM1128 730v5l-5 -5h5zM511 1357q-9 0 -10 5q-3 -4 -16 -6l10 -5l-1 -3l7 3l6 -5q1 8 4 11zM1650 246h-28l-6 17q-4 -3 -12 -10h-27l16 -17q-3 -17 -5 -28q6 2 22 11l18 -16v27q2 2 22 16zM627 1242
q-8 1 -22 21q-2 -5 -7 -15h-22l11 -17q-2 -7 -5 -11q15 0 34 -6l-6 17q6 4 17 11zM1122 753q-11 22 -28 46q5 5 23 46l-52 -23l-40 34v-52l-40 -33q46 -10 50 -14q1 -1 17 -49l30 45h40zM1530 328l-17 23q5 12 11 29q-13 -5 -28 -12l-29 17l6 -34l-23 -12q23 -8 26.5 -10.5
t13.5 -23.5l12 23h28zM1114 736q-11 0 -14 5l-1 -5h-10q3 -15 5 -11l6 5q3 -2 9 -5l-3 5zM1432 414q-4 2 -11 6l2 3l-7 -3l-6 5q-1 -4 -6 -11q5 0 11 -1v-9q4 13 17 10zM1375 472q-3 0 -11 5l-1 -5h-10q5 -4 5 -12h11q0 5 6 12zM1019 828q-5 0 -11 2v8q-5 -12 -17 -10
q4 -2 11 -6l-3 -3l7 3l8 -6q0 8 5 12zM1163 667q-2 4 -12 16l-2 -5h-9q6 -4 6 -11h17zM1449 362l-16 7q-4 -2 -11 -6q5 0 10 -1q3 -4 6 -10q0 3 1 10h10zM1708 99l-11 17q2 5 5 15q-4 -1 -16 -5q-10 5 -18 11q1 -9 -11 -27q18 -12 22 -28l7 17h22zM1351 495q-29 6 -45 12
l-6 22l-28 -80q5 2 11 5l34 -33q-5 42 -5 45q19 13 39 29zM701 1120q-6 2 -19 6q-3 7 -8 22l-12 -20q-9 1 -28 3l22 -21l-10 -22l22 9q4 -2 17 -9v22q5 3 16 10zM817 983l-6 11l6 17q-9 -3 -17 -5q-6 2 -17 5q2 -4 5 -11l-16 -12q9 -3 16 -6q2 -6 6 -20l6 21h17zM902 926
q-14 1 -39 7q-4 12 -11 37l-24 -33h-28q6 -8 17 -24l-6 -39l29 17l35 -23l-6 34zM983 793l-9 6l5 5h-17v-2l-7 -9h13v-5q3 6 15 5zM1414 380l-27 29l11 33l-28 -16l-35 28l6 -44q-11 -6 -34 -19q15 -2 39 -6q8 -19 12 -34q11 18 18 29h38zM1137 656l-20 17q3 9 11 28
q-8 -3 -28 -11l-23 17l5 -34l-27 -12q20 -4 33 -5q2 -10 6 -29q3 10 12 29h31zM1019 753h-11v6q-4 -6 -16 -7q2 -1 8 -5l-3 -10l9 4l6 -4q0 6 7 16zM1541 236q-10 10 -16 18q2 5 5 16l-22 -5l-18 17v-29l-22 -11q23 -5 24 -6t10 -22l12 22h27zM1126 633l-3 6l2 3l-8 -4l-6 5
q-1 -4 -5 -10q8 0 11 -1v-10q8 11 9 11zM460 1300q-14 0 -16 10q0 -3 -1 -10h-10q3 -15 5 -11l6 5q5 -4 10 -5l-4 5q3 2 10 6zM979 834q-16 5 -47 17q-2 7 -12 34l-23 -34h-38l27 -35l-15 -39l38 22l34 -34l-6 45zM1759 -6q-6 3 -10 6l3 4l-9 -4l-6 5q-2 -8 -6 -11h12v-9
q1 2 6 9h10zM1202 535l-10 6l3 4l-9 -4l-6 4q-2 -7 -6 -10h12v-5q3 5 16 5zM1057 679l-9 6l2 3l-8 -4l-5 5q-1 -4 -6 -10q8 0 11 -1v-10q2 4 6 10zM1023 702l-3 5l1 4l-7 -4v-10q3 4 9 5zM741 996q-2 2 -21 15q3 8 10 23l-22 -11l-23 17l6 -27q-10 -7 -17 -13q7 -2 22 -6
q4 -7 6 -15l13 17h26zM1438 316h-23q-1 10 -5 23q-5 -9 -19 -22l-21 5l17 -23q-4 -6 -11 -17l27 6l18 -17v28zM1105 609v12l-5 -5l-6 5q0 -13 -6 -17h6q4 2 11 5zM1289 432h-12v5q-3 -4 -11 -5v-6l5 -1q-2 -5 -5 -10q3 1 11 5l6 -5q0 12 6 17zM1242 466q-5 9 -5 12
q-7 0 -10 4l4 -10q-3 -2 -10 -6l10 -1v-4q6 4 11 5zM1080 632q-10 0 -15 11q0 -1 -2 -11h-9q5 -4 5 -10l7 5q2 -2 8 -5l-3 5q5 3 9 5zM1012 730q-9 0 -33 6l-7 28l-18 -28h-26l15 -18q-3 -9 -9 -28l26 11q12 -7 19 -11q7 3 6 22q7 3 17 17l6 -5zM1587 122q-6 9 -10 17
q2 6 5 17q-6 -2 -17 -6l-18 6l6 -17q-5 -4 -17 -13q10 -2 23 -21q3 9 7 15q33 2 21 2zM1255 437q-2 5 -6 16l-6 -21q4 2 12 5zM1162 558h-62v-6l57 -17v17zM1325 362q-10 0 -12 9q0 -10 -12 -9q4 -4 6 -11l6 5l9 -4l-4 5zM914 770q-8 0 -11 1v10q-6 -12 -15 -11l9 -6l-2 -4
q2 1 8 5l6 -5v3zM1086 592h-15l6 -6zM845 828q-6 3 -10 6q3 4 5 11q-4 -2 -11 -5l-6 5v-9q0 -6 -4 -8q7 0 10 -1v-5q3 5 16 6zM483 1196l-16 7l-10 -7q12 0 15 -11q0 8 1 11h10zM289 1478q-25 4 -74 11l-30 69q-14 -42 -23 -63q-23 -4 -68 -11l52 -58l-12 -68l58 45l68 -39
l-23 67zM1225 449q-4 5 -16 17q3 6 10 28q-12 -5 -28 -10l-16 5l-12 -6q2 -6 6 -17q-3 -2 -23 -11q21 -6 40 -34q4 7 12 22q9 1 27 6zM1408 253q-11 0 -15 6l-1 -6h-10l5 -7v-9l6 5l10 -5q-2 4 -5 11q3 2 10 5zM616 1053q-6 2 -17 6l-6 21q-2 -8 -7 -23h-21q5 -5 10 -12
q-2 -8 -5 -15l17 6l23 -11q-4 6 -11 15zM1621 40q-6 0 -16 5v-5h-11l5 -6v-11l6 5l11 -3q-2 3 -5 9q3 2 10 6zM1484 185h-28l-6 21q-3 -9 -13 -21l-21 5l17 -17l-6 -22q6 1 17 5l23 -11l-6 28zM966 661q-4 6 -4 11l-7 -5l-6 5q0 -6 -4 -11h21zM782 863l-17 17l6 22
q-11 -4 -23 -11l-16 16q1 -7 5 -21l-28 -12l27 -6q5 -15 7 -26l11 25h3zM1300 334l-34 35l17 39l-40 -22l-34 28l6 -39l-40 -29q27 -3 45 -7q3 -10 12 -45q8 13 23 40h45zM955 633v5h-4zM684 942h-27q-2 6 -7 23q-7 -14 -12 -22q-9 2 -27 5l16 -18q-2 -7 -5 -22l22 11
q8 -5 23 -16l-5 21q5 5 22 18zM846 793q-14 2 -41 7q-6 19 -11 33q-6 -10 -18 -28h-33q11 -14 22 -30l-10 -39l33 23l29 -28l-6 38zM1358 248l-29 23l17 39l-34 -16l-34 22q2 -13 5 -39q-11 -8 -33 -23h38q7 -21 12 -46l18 40h40zM920 673l-28 34l17 40l-40 -17l-34 29
l5 -42q1 -7 -34 -27q33 -12 36 -15q7 -6 17 -36l21 34h40zM1189 385q-10 0 -14 6l-1 -5h-10q5 -7 5 -17l5 5q4 -2 11 -5q-3 5 -5 10zM1380 196q-6 2 -17 6q-1 6 -5 20q-2 -7 -6 -20h-22l11 -17l-6 -12q14 4 22 4q1 0 12 -8q-1 8 -1 10q0 1 12 17zM1886 -207l-80 18l-23 79
l-41 -74h-85l63 -58l-29 -79l74 33l75 -51l-17 85q1 1 63 47zM1517 53q-2 2 -21 15q3 8 10 23l-21 -5q-10 5 -18 11q0 -2 1 -7v-7q0 -9 -24 -26h28q5 -12 7 -21q4 6 12 17h26zM495 1082h-23v20l-6 -16q-3 -1 -22 -6q6 -5 17 -17l-10 -15l16 9q5 -3 16 -11q-1 6 -5 17z
M902 644q-6 3 -5 17l-6 -5l-5 5q0 -14 -4 -17h1l8 -5l1 5h10zM1667 -116q-3 0 -10 1v5q-3 -3 -11 -6l5 -5q-2 -3 -5 -9q4 1 10 4l6 -4q-1 11 5 14zM730 817q-6 3 -10 6l3 3l-9 -4l-5 5q-2 -7 -6 -10q5 0 11 -1v-11q9 13 16 12zM943 615h-4q-8 0 -13 1l-6 27q-3 -9 -13 -22
l-19 5l15 -22q-3 -5 -11 -17q7 2 22 5q4 -4 12 -11q5 7 6 17q8 7 11 17zM1162 409l-51 12q-2 6 -6 16q-17 -14 -17 -28v-18q0 -28 12 -39q17 -12 34 -23l-6 48q12 10 34 32zM800 724q-8 0 -11 1v4q-7 -5 -17 -5q4 -2 11 -6q-2 -3 -4 -10q5 3 9 5l6 -5q0 6 6 16zM702 845
q-22 5 -25 10q-4 12 -9 24q-11 -15 -18 -23h-28q6 -7 17 -23l-11 -27q9 3 28 10l29 -16l-6 28q8 5 23 17zM1576 -63q-1 1 -11 13q2 5 5 15q-5 -1 -16 -5q-11 6 -17 11q2 -6 5 -17l-17 -11q7 -2 22 -7q1 -18 1 -20q3 6 11 20q16 1 17 1zM922 570v5q-7 0 -13 6l-1 -6h-11v-5
h25zM575 933q-6 5 -16 17l5 27l-22 -11q-9 5 -18 11v-27l-21 -13h27q8 -12 12 -23l6 23q9 -2 27 -4zM1168 512l-126 30l-45 124l-60 -120h-131l97 -92l-57 -131l120 63l116 -86l-17 131zM1237 277q-9 1 -28 5q-4 8 -6 17q-4 -6 -12 -17h-28q9 -7 22 -19l-11 -20l23 11
l23 -17l-6 22zM1386 114q-12 0 -23 2q-1 9 -5 27q-11 -16 -18 -23h-28q6 -7 17 -23l-11 -27q9 3 28 10l23 -15v28q6 7 17 21zM283 1237l-52 18q-5 16 -16 48l-18 -43h-57l34 -41l-17 -51l45 22l52 -33l-11 53l1 4zM846 621q-8 2 -23 6q-2 7 -4 21q-4 -8 -24 -21l10 -18
l-5 -11q10 0 28 -5q-2 7 -5 16zM713 742l-16 17q2 3 10 17l-16 -6l-17 11q1 -6 5 -16q-7 -8 -16 -18q15 -4 22 -22q2 6 6 17h22zM1168 299q-8 2 -23 21l-6 -14q-22 -1 -21 -1l10 -12q-3 -14 -5 -22l17 11l17 -11q-4 10 -5 17q10 8 16 11zM1271 185l-22 6v15q-6 -9 -12 -16
h-16q7 -7 10 -13l-5 -20q6 3 17 9q6 -3 17 -9q-1 6 -5 16q5 4 16 12zM857 570q-4 17 -5 27q-1 -2 -21 -27h26zM455 983q-4 2 -5 11l-7 -4l-9 3l3 -5l-8 -5q11 0 15 -9l1 9h10zM793 678l-33 6l-6 29q-11 -16 -18 -23h-28q6 -7 17 -23l-11 -28l34 16q11 -9 23 -22l-6 33
q13 7 28 12zM1438 17q-5 2 -16 6q-5 9 -6 16q-4 -12 -7 -17h-27l16 -17l-10 -22l21 11l18 -17v28q7 6 11 12zM355 1057l-9 8l3 2l-8 -4l-6 5q-2 -7 -6 -9l12 -2v-9q6 11 14 9zM598 833h-1h-10q-5 0 -11 1l-6 28l-12 -23h-27q7 -8 16 -18q-2 -5 -5 -16l22 6l17 -11
q-2 6 -5 17q11 7 22 16zM518 874l-22 6v16q-4 -6 -12 -17h-16l10 -12q-2 -7 -5 -21q5 1 11 5l23 -11l-5 21q5 4 16 13zM1449 -63q-9 2 -17 22q-2 -6 -6 -17h-22l11 -17q-2 -6 -5 -17l17 6l11 -6q0 2 11 29zM754 616q-3 2 -6 11l-6 -6q-2 2 -8 5l3 -5q-5 -3 -9 -5q9 0 14 -11
q0 5 1 11h11zM1369 28q-7 1 -22 2q-9 13 -12 21q-4 -11 -7 -17h-27l16 -18q-2 -7 -4 -22l21 11l18 -22v28zM1494 -156q-1 -1 -4 -1q-10 0 -11 11q0 -11 -11 -10q5 -4 5 -10l6 5l10 -3l-4 3zM1099 254l-57 39l4 -21q-1 -3 -20 -13q9 -2 26 -6l13 -22q18 24 34 23zM702 690
q-32 11 -36 15l-16 36q-9 -17 -23 -39h-2l-37 5q10 -11 28 -35l-16 -45l39 28l34 -39v50q16 14 29 24zM1254 86l-17 17l6 23l-17 -6q-8 4 -23 11l6 -15l-23 -25q16 -2 21.5 -5t12.5 -16q3 8 7 16h27zM862 460q-12 8 -11 11l-5 -5l-4 5q-2 -6 -7 -11q8 0 11 -1v-4l6 5h10z
M823 495q-6 7 -11 16l-12 -27zM1185 150l-28 35l11 45l-39 -28q-19 19 -35 38q5 -45 5 -49q-20 -15 -33 -23q16 -5 40 -14q5 -21 11 -38q9 14 30 40zM598 713l-16 18q7 11 11 16l-22 -5q-7 6 -12 11q0 -14 -17 -34q13 0 22 -1q5 -10 6 -21l6 15q19 1 22 1zM386 919l-11 17
l11 11q-11 -3 -22 -4q-11 5 -17 10q2 -6 5 -10q-8 -8 -17 -18q8 -3 16 -5q2 -5 7 -17l6 16h22zM1019 317l-40 29l-8 -6l-32 6l-7 -7q12 -8 28 -25l-11 -37l34 17l31 -23v40zM782 506q-6 3 -10 6l3 5q-3 -1 -10 -5v-6q0 -2 1 -5v-5q4 13 16 10zM754 552l-11 18l10 28l-28 -12
l-28 12q2 -10 5 -28q-13 -11 -22 -18q9 -2 28 -6l6 -22q16 22 34 22zM690 604h-23q-1 8 -5 22l-12 -22q-18 4 -27 5l16 -17l-11 -22l28 11q7 -5 17 -16v27zM1283 11h-28q-4 10 -6 22q-4 -7 -14 -20l-20 4q6 -7 16 -23l-11 -21l22 4q10 -6 18 -11q0 22 23 45zM1409 -155
l-16 12l10 22l-22 -11l-12 11q0 -10 -10 -28l16 -6v-17q8 10 12 16q19 1 22 1zM857 397l-11 34l-29 -51l23 -17zM828 414q-2 3 -17 24l6 22l-17 -6l-17 12v-23q-10 -8 -23 -17q9 -2 28 -6q5 -9 6 -17l12 17zM437 810q-14 4 -22 7q-1 4 -6 16l-6 -16l-16 -1q4 -5 11 -12
l-6 -22q5 3 13 5l21 -5q-3 6 -10 17zM512 725q-8 5 -22 17l11 33q-9 -3 -28 -10q-8 7 -18 16v-31q-5 -7 -17 -19q21 -7 23 -8q6 -11 12 -21l12 23h27zM943 288q-6 9 -11 18q3 10 5 16l-15 -5q-6 1 -19 5q2 -4 6 -11l-23 -17q19 -5 20 -5q6 -4 8 -18q3 9 8 17h21zM1340 -92
q-8 1 -23 6q-2 12 -5 22l-12 -22q-18 4 -27 5q13 -9 22 -17l-11 -26l22 14q6 -7 17 -20v26q10 8 17 12zM1490 -259q-5 2 -16 6l-2 2q-2 10 -5 20q-4 -9 -11 -21q-20 -1 -17 -1q5 -7 11 -18q-2 -5 -5 -16l16 11q11 -6 17 -11q-1 7 -5 16q9 7 17 12zM1019 202l-17 29l10 22
q-15 -7 -27 -11q-6 4 -17 11l4 -21q-6 -6 -27 -18q24 -5 40 -23l6 17zM1558 -345q-8 0 -11 1v9q-2 -5 -5 -9l-11 -1q4 -2 11 -6l-3 -4q2 1 8 5l6 -5zM1151 57q-6 9 -11 20l5 33l-28 -17q-8 7 -23 21l5 -31v-3q-9 -6 -28 -17q13 -3 25 -5q5 -3 15 -22q10 11 17 21h23z
M552 667q-18 4 -20 5.5t-8 16.5l-6 -16q-23 -1 -22 -1l11 -17q-2 -5 -5 -16l17 10l22 -16l-5 21q1 1 16 13zM191 1005q-8 0 -11 1v5q-3 -5 -16 -6q5 -1 10 -5q-2 -3 -5 -9l9 3l7 -4q-1 5 6 15zM292 885q-11 0 -14 5v-1q0 -5 -11 -4q4 -3 5 -11h16l-5 5zM880 277l-5 33
l-23 -11zM1202 -29q-9 2 -22 8q-2 7 -6 20l-12 -22q-16 -1 -15 -1q7 -4 16 -11q-4 -6 -11 -17l16 6l23 -11l-5 15q5 4 16 13zM1065 116l-23 23l10 38l-27 -21l-34 27l4 -38q-15 -12 -33 -23q16 -2 40 -8q3 -13 10 -38l19 40h34zM587 570l-17 17l11 22l-22 -11q-9 6 -18 11
v-17q-7 -5 -22 -17q11 0 22 -1l12 -21q4 5 12 16q18 1 22 1zM954 190q-8 0 -11 1v9q-6 -11 -15 -10q2 -1 11 -7l-5 -3l9 3l6 -3v2zM891 248q-3 3 -6 11l-5 -5l-8 3l2 -4q-5 -3 -9 -5q9 -1 15 -5l2 5h9zM656 523l-40 -23l-34 29v-18l57 -27zM827 328l-27 -6q-4 -11 -11 -33
q24 13 25 14q8 7 13 25zM397 736q-15 5 -22 28q-5 -7 -29 -22l12 -12l-6 -16l17 5l17 -11q0 13 11 28zM840 282q-8 0 -11 1v5h-6l-1 -6h-5v-6h5l-3 -11q5 3 9 5l6 -4q0 6 6 16zM345 799q-18 2 -33 22l-12 -16q-23 -1 -22 -1q6 -6 16 -17l-4 -22q9 5 16 11l28 -16l-5 21
q5 6 16 18zM1369 -247q-11 3 -17 7l-6 21q-4 -8 -12 -23h-16l11 -17l-5 -11l17 6l16 -11q-1 6 -5 16q7 5 17 12zM489 627q-9 3 -16 6q-2 7 -7 21q-1 -10 -6 -21q-24 -1 -21 -1q7 -7 16 -17l-11 -17l17 6l17 -6l-6 17q6 4 17 12zM1300 -184q-9 1 -28 6v17q-4 -6 -12 -17h-16
q3 -6 11 -18l-6 -16q4 1 17 5q11 -6 17 -11l-5 16zM1243 -138q-6 8 -17 23l11 29l-28 -12l-23 17l5 -26q-10 -6 -28 -20q24 -2 27 -5.5t13 -28.5l12 23h28zM1132 -17q-9 2 -27 5q-1 12 -5 29q-4 -8 -12 -23h-34l23 -23l-11 -28q14 4 28 11l21 -17q-1 11 -4 33q7 4 21 13z
M943 156l-34 35l17 57l-46 -23l-45 28l5 -48l-1 -3q-24 -17 -39 -29q40 -12 47 -17q10 -9 21 -46l24 46h51zM816 351q-27 19 -79 59l11 107l-92 -62l-97 45l46 -109l-75 -69h103l47 -97q8 26 15 52q10 31 26.5 45.5t45.5 19.5q25 5 49 9zM781 271q-3 1 -10 6l4 3l-9 -3l-6 5
q-1 -4 -6 -11q5 0 11 -1v-10q10 12 16 11zM966 114h-29q-2 10 -5 29l-18 -23h-26l21 -23q-5 -12 -10 -27q9 3 27 10l23 -15l-6 26zM823 219q-6 10 -6 34l-12 -5q-10 3 -16 5q2 -4 5 -11q-7 -6 -22 -17q8 -2 23 -6q1 -10 5 -22q2 10 8 22h15zM541 461v33h-4q-2 5 -7 23
q-2 -6 -6 -17q-7 -2 -22 -5q3 -5 11 -12q-2 -6 -5 -17l16 6zM166 851q-3 1 -9 6l3 4l-9 -4l-5 5q-2 -8 -6 -11h12v-9q1 3 5 8zM419 609q-11 0 -20 1q-5 9 -13 27q-1 -11 -6 -22h-28l17 -17l-10 -16q15 3 27 4q10 -5 17 -10q-2 7 -5 22q7 3 21 11zM495 541q-9 2 -28 5
q-2 10 -6 29l-18 -29h-32l27 -17l-16 -34l33 17l17 -23v34q15 11 23 18zM1151 -155q-8 5 -23 17q7 15 11 28l-22 -10q-16 10 -23 16l5 -26q-1 5 -16 -20h23q1 -8 5 -22q4 5 11 17h29zM1035 5q-13 4 -38 12q-7 20 -12 40l-25 -40l-38 5l27 -40l-15 -39l45 22l33 -28l-10 39
q11 10 33 29zM770 254q-22 6 -26 8q-11 5 -19 20l-11 -29l8 -38q7 -25 20 -30l-5 43q11 8 33 26zM305 684l-16 17l10 17q-7 -3 -16 -5q-11 3 -17 5q2 -6 5 -17q-5 -4 -16 -11q6 -2 17 -6q1 -5 5 -16l6 16h22zM937 46q-5 7 -6 11l-5 -4l-8 3l2 -3l-9 -7q5 0 15 -6l2 6h9z
M1197 -201q-7 1 -22 5q-4 10 -6 22q-2 -7 -7 -22h-16q5 -5 11 -12q-2 -7 -5 -21l11 11q8 -4 23 -11q0 2 -1 6v6t12 16zM845 137q-5 -1 -14 -4q3 -3 9 -7zM1271 -271q-20 5 -24 13q-5 14 -9 27l-12 -28h-28q5 -8 16 -23l-11 -22q10 1 29 5l23 -11v28q5 4 16 11zM781 196
l-10 6l3 3l-8 -3l-6 4q-1 -4 -6 -10q1 0 11 -2v-8q6 12 16 10zM828 143l-20 11l3 -4l-9 -7q3 0 9 -1v-3h6l2 4h9zM231 759q-14 5 -17 7t-5 15q-14 -11 -29 -17l11 -17q-2 -11 -5 -17l17 6l17 -6q0 2 -1 6v6q0 1 12 17zM523 443q-8 0 -11 1v9q-2 -5 -5 -9l-10 -1l10 -6l-4 -4
l9 4l6 -4zM788 173q-8 0 -11 1v8q-5 -11 -15 -9l9 -7l-2 -3l7 3l7 -4q1 8 5 11zM575 397q-4 2 -11 7q6 16 6 22l-17 -12l-17 17q0 -2 1 -7v-8q0 -7 -24 -24h28v-23q11 10 34 28zM1069 -109q-14 1 -32 5q-7 17 -12 35l-19 -35l-38 6l27 -35l-10 -33l34 16l27 -20l-4 31z
M306 610q-16 5 -23 27q-3 -8 -22 -22q3 -4 10 -11l-10 -17l22 5q6 -2 11 -5q0 9 12 23zM851 46v11l-5 -4q-2 1 -11 4l10 -20v6zM862 63l-33 36v4l-46 -33l11 -40l25 33h43zM914 -6l-17 17l6 23q-6 -2 -17 -6q-8 4 -23 11l6 -22l-23 -17h29q1 -11 5 -23q3 10 8 23zM126 742
q-1 7 -4 11l4 5l-11 6v-5h-10q6 -5 6 -17l6 5q4 -2 9 -5zM369 512l-11 17l5 11q-6 -2 -16 -5l-12 10q0 -6 -1 -16q-10 -7 -15 -12q11 -2 21 -6q1 -19 1 -21q4 7 12 22h16zM662 208q-6 5 -6 11q-10 0 -16 4q1 -4 5 -9l-10 -6q6 0 15 -5l1 5h11zM443 438q-5 8 -16 23l10 22
l-27 -11q-8 5 -18 11l6 -22q-11 -7 -23 -12l27 -6q3 -4 2 -21q10 22 13 21zM202 661l-7 11l-4 -5l-5 5q-2 -8 -6 -11h12v-8q4 10 10 8zM832 22q-1 0 -4 -1q-10 0 -11 12q0 -8 -1 -11h-8l19 -8l-4 3zM1105 -247q-6 9 -11 18q2 7 5 21l-17 -10q-11 6 -16 10q2 -6 5 -17
q-8 -5 -22 -16q10 0 22 -1q2 -3 11 -22l7 17h16zM633 236q-10 3 -22 17q0 -7 -1 -11h-22q4 -6 11 -17l-11 -23l22 6q4 -4 12 -11v28zM621 271q-22 29 -24 29h-71q-4 0 -18 -18l36 -10q5 -4 15 -35l24 34h38zM507 340l-23 29l11 33l-28 -16l-34 22l5 -39l-33 -17q13 -2 39 -7
q7 -25 11 -39l18 34h34zM1155 -305q-6 2 -19 6l-2 2l-6 21l-17 -22q-23 -1 -22 -1l16 -18q-2 -7 -5 -22q5 4 17 11l23 -17v29zM645 173l-28 23l5 -40h12zM844 -40q-6 0 -15 5l-1 -5h-9l4 -7v-10l6 5q4 -2 11 -5q-3 5 -5 10q2 2 9 7zM805 116q-32 5 -85 17l-24 73l-46 -73
h-74l51 -60l-22 -83l69 38l63 -55l-6 82q0 1 1 4q25 19 73 57zM926 -92q-14 3 -40 12q0 1 -12 39l-22 -39h-40l28 -30l-21 -45l44 17l34 -23l-11 39q0 1 40 30zM604 173q-7 6 -5 12h-17l5 -6q-3 -2 -10 -5q12 0 16 -6v5h11zM822 -6q-42 11 -45 14l-17 43l-12 -5l6 -6v-103
l39 -27l-4 47q0 5 33 37zM572 200q-1 0 -3 -1q-8 0 -10 14q0 -5 -1 -11h-10q5 -4 5 -11l6 5l10 -4l-5 4zM277 478l-17 23l6 22l-17 -11l-23 17l6 -28l-23 -12q10 -1 28 -7q1 -4 6 -15l12 16zM145 615q-20 11 -22 28q-2 -7 -8 -16q-24 -1 -21 -1q5 -6 15 -17l-9 -17l22 6
q3 -2 10 -5q-1 3 -4 10zM1025 -258l-30 34l17 45l-40 -22l-33 28q1 -15 4 -46l-34 -28l40 -6q4 -15 11 -45l25 45zM540 230h-27q-4 12 -6 23q-4 -6 -12 -17h-27l16 -23q-1 -7 -5 -22l22 11q5 -6 17 -16q-2 7 -5 20zM334 415q-3 0 -20 4l-3 2l-10 32l-12 -27h-28l16 -24
q-7 -18 -11 -28l28 12q16 -7 29 -11q-2 9 -5 28q11 7 16 12zM397 333q-13 2 -40 23q-3 -9 -6 -16q-22 -1 -21 -1q5 -8 10 -17q-3 -14 -5 -22q10 2 23 5l16 -10l-4 19q4 5 27 19zM585 156l-30 10q-5 4 -13 30l-18 -30h-40l29 -29l-11 -26l33 9l29 -26q-7 25 -34 60zM810 -126
q-6 2 -10 5l4 10l-9 -4l-6 5q1 -6 -4 -16q9 0 10 -4q3 5 15 4zM466 246q-12 2 -34 9q-6 12 -17 38l-12 -39l-11 -1q8 -21 16 -41q5 -8 36 -27l-6 43q1 2 28 18zM908 -189q-11 1 -26 5q-6 14 -8 23q-5 -8 -17 -23h-32l21 -18l-11 -28l33 12l18 -22v32zM736 -64q-8 11 -22 23
l-17 -45zM696 -52q-5 0 -11 2v3q-4 -4 -11 -5q6 -4 5 -17l6 5l6 -5q0 13 5 17zM794 -155q-11 7 -28 25l11 38l-35 -12l-33 17l4 -36q0 -1 -27 -26q13 -2 38 -6q5 -5 12 -34l18 34h40zM472 133q-5 2 -6 17l-6 -5l-9 3l4 -9l-10 -6q12 1 16 -5v1q0 5 11 4zM937 -322
q-3 5 -9 24l3 22l-22 -11q-12 7 -27 17q2 -9 4 -29q-7 -4 -21 -11q20 -5 24 -11l10 -24l16 23h22zM690 -23q-19 1 -39 6v5l-57 -29l5 -5l-11 -44l39 26l34 -26q-2 13 -5 38q21 17 34 29zM805 -189q-13 2 -22 6q-1 24 -1 21l-12 -22h-21q5 -5 10 -12q-2 -5 -5 -16q6 2 17 5
q15 -7 23 -11q-2 6 -5 17q6 4 16 12zM225 362q-8 6 -22 18l11 22l-22 -10l-18 16q0 -2 1 -7v-8q0 -6 -23 -25h26l7 -22l12 16h28zM581 6l-22 28q1 8 5 23l-56 -44l4 -2q5 -13 12 -38l18 38h3zM581 -18h-5v-5zM145 426l-11 17l6 17l-18 -6l-11 6q0 -3 -2 -17q-10 -7 -15 -12
q16 -3 23 -8q0 -1 6 -14q2 6 6 17h16zM271 294l-11 17l5 11q-6 -2 -16 -5l-17 11q2 -6 5 -17q-6 -4 -16 -12q11 -2 21 -6q1 -19 1 -21l12 21q13 1 16 1zM335 246q-13 2 -28 17l-7 -9l-22 -1l16 -17l-10 -22l16 9l23 -15l-5 20q3 5 17 18zM662 -104q-9 0 -12 1v4
q-6 -5 -15 -5l10 -6q-4 -5 -5 -10q3 2 10 5l6 -5q0 6 6 16zM568 -18q-1 -1 -4 -1q-10 0 -11 12q0 -5 -1 -11h-10q5 -4 5 -9l6 4l10 -4l-4 4zM638 -92q-6 3 -10 6l3 4l-9 -4l-5 5q-2 -8 -6 -11h11v-5q3 6 16 5zM742 -213q-8 0 -11 1v10q-2 -4 -6 -10l-10 -1l10 -6l-2 -2l7 3
l7 -5zM575 -69q-4 2 -11 6q3 5 5 10q-5 -2 -10 -5l-6 5v-10l-5 -6q8 0 11 -1v-4q3 5 16 5zM840 -310l-29 29l17 39l-39 -16l-34 27l4 -41q0 -3 -33 -27q33 -7 38.5 -12.5t17.5 -38.5l18 40h40zM702 -184l-23 29l6 39l-35 -22l-28 28l5 -36q0 -3 -27 -21q32 -13 32.5 -13.5
t12.5 -31.5l23 28h34zM700 -202q-1 -1 -4 -1q-10 0 -11 12q0 -5 -1 -11h-10q5 -4 5 -10l6 5l10 -3l-4 3zM507 -17q-6 6 -6 10l-6 -5q-5 3 -10 5l4 -5l-9 -5l10 -1l6 -5v6h11zM609 -126q-6 2 -9 6l3 4l-10 -4l-6 5q-1 -4 -5 -11q5 0 11 -1v-10q10 11 16 11zM540 -52
q-6 0 -15 5l-1 -5h-11q6 -5 6 -17l5 5q4 -2 11 -5q-3 7 -5 12q3 2 10 5zM718 -246q-4 1 -10 5q3 4 5 11q-3 -2 -10 -5l-6 5q0 -13 -5 -17q11 0 11 -6q4 5 15 7zM323 183l-45 -17l-29 30l5 -44q-4 -5 -27 -19h73zM731 -288q-4 3 -6 17l-5 -5q-6 3 -12 5q4 -5 5 -10l-8 -6
q10 0 14 -6l1 5h11zM672 -236q-10 0 -15 5l-1 -5h-10q5 -4 5 -11l6 5l10 -4l-5 5q3 2 10 5zM547 70l-126 33q-31 84 -46 127l-58 -120h-131l97 -94l-57 -136l120 62l115 -85l-17 135q34 26 103 78zM564 -150q-8 0 -11 1v4q-3 -4 -11 -5l5 -5l-5 -5h17q1 8 5 10zM206 236h-26
q-2 8 -6 23q-6 -10 -12 -17h-27q4 -3 20 -19l-9 -26l22 11l17 -17v28q7 6 21 17zM570 -109q-30 5 -57 12l-12 44q-29 -34 -28 -41l6 -72l5 5l51 -40l-11 51zM592 -190h-15q-2 5 -7 23q-2 -6 -6 -17h-22l17 -17q-4 -6 -11 -17l16 6l18 -12q0 20 10 34zM724 -339q-8 8 -16 18
q2 7 5 22q-9 -3 -22 -5q-6 4 -12 10q0 -2 1 -7v-8q0 -8 -23 -24q18 -5 22.5 -8.5t10.5 -19.5q3 13 7 22h27zM679 -259l-51 6q-2 5 -18 57l-23 -51h-51l34 -40l-16 -52l45 29l46 -35l-6 51zM529 -224l-10 6l4 5q-3 -1 -10 -5l-6 5q-1 -4 -5 -11q8 0 11 -1v-4q3 5 16 5z
M467 -178q-6 6 -18 17q-5 -15 -11 -28q17 6 29 11zM483 -190h-21q5 -4 5 -11l6 5l5 -5q0 6 5 11zM529 -258q-6 3 -10 6q1 2 4 10q-3 -2 -10 -5l-6 5v-9l-5 -7q5 0 11 -1v-4l1 1q6 4 15 4zM604 -339q-8 0 -11 1v4q-5 -6 -16 -5q4 -2 10 -7l-5 -9q3 1 11 5l6 -5v10zM421 -143
q-7 1 -34 28q-4 -11 -7 -17h-33q8 -5 22 -18l-11 -28q9 4 28 11q13 -8 23 -16l-5 26q0 2 17 14zM166 76q-16 4 -18 5q-5 3 -10 16q-3 -10 -21 -17l11 -12l-6 -15q4 1 12 4q8 -4 21 -11q-2 6 -4 17q7 5 15 13zM541 -322q-6 6 -17 18q4 5 10 15l-21 -10q-4 3 -12 11v-17
q-5 -4 -16 -11q19 -5 21 -8q3 -10 7 -20q2 13 6 22h22zM231 5l-27 6q-4 7 -7 17q-4 -6 -14 -15l-20 4l17 -23l-11 -21l20 4q13 -5 25 -11l-6 22zM547 -356q-4 3 -6 16l-6 -5q-4 2 -11 5q2 -4 5 -11l-9 -5l10 -1l6 -4l1 5h10zM507 -276l-29 29l17 45l-40 -22l-34 28l6 -44
q-3 -4 -35 -24q-8 5 -23 16q-2 -7 -5 -22q7 0 22 1h21q23 0 43 -46l17 39h40zM483 -309l-10 20q0 -14 -5 -20l5 5q5 -3 10 -5zM404 -230v11l-6 -5l-6 5v-11l6 -1v-9q2 4 6 10zM351 -104l-38 6q-43 -21 -45 -23q-12 -10 -25 -45l40 16l34 -20q-5 35 -5 36q0 5 39 30z
M335 -213l-17 17q4 -13 5 -22q4 2 12 5zM299 -190q-6 3 -10 6l5 5q-7 -2 -11 -5l-5 5q-2 -7 -6 -11q5 0 11 -1v-9q4 13 16 10zM415 -339q-1 3 -11 18q3 10 5 16q-3 -1 -11 -5q-9 2 -17 5q0 -9 -1 -16q-9 -8 -16 -12q8 -1 22 -6q3 -7 6 -22q6 19 23 22zM294 -230q-4 3 -6 17
l-5 -5q-4 2 -11 5q2 -4 5 -11l-10 -6q6 0 15 -5l1 5h11zM162 -104q-3 3 -11 14q1 5 4 15l-20 -5q-7 5 -12 10q1 -7 5 -16q-5 -4 -17 -12q20 -6 21 -28q2 10 8 22h22zM243 -179l-39 12l-7 6q-4 0 -11 1q4 7 9 21q-29 -30 -32 -28l51 -40v6q10 7 29 22zM149 -177q-1 2 -4 10
h-10q7 -6 14 -10zM155 -230v5l-4 -5h4z" />
  </g>

</svg>
