<?xml version="1.0" standalone="no"?>
<!DOCTYPE svg PUBLIC "-//W3C//DTD SVG 1.1//EN" "http://www.w3.org/Graphics/SVG/1.1/DTD/svg11.dtd" >
<svg viewBox="0 -442 2048 2048">
  <g transform="matrix(1 0 0 -1 0 1606)">
   <path fill="currentColor"
d="M1331 467q0 -266 -164 -476q-156 -200 -414 -295q-152 -56 -260 -56q-36 0 -79 16q-55 21 -55 50q0 31 55 31q151 0 285.5 79t197.5 213q-79 -26 -154 -26q-68 0 -145 23q-208 62 -310 252q-88 163 -88 398q0 318 210 564q220 258 533 258q70 0 184 -29q142 -35 142 -81
q0 -25 -35 -25q-224 0 -392 -74q-208 -90 -271 -275q89 43 172 43q260 0 424 -165t164 -425zM1254 424q0 212 -110 333q-114 125 -324 125q-145 0 -239 -93t-94 -234q0 -18 2 -36q-129 124 -129 286q0 130 88 291q-91 -59 -146 -178q-51 -112 -51 -227q0 -208 126 -355
q133 -154 337 -154q150 0 259 93q112 97 120 245q65 -62 65 -203q0 -130 -94 -338q190 162 190 445zM1018 498q0 -70 -44 -127q-47 -60 -116 -60q-72 0 -120 62q-46 58 -46 131q0 65 49 124q51 63 114 63q73 0 120 -62q43 -56 43 -131z" />
  </g>

</svg>
