<?xml version="1.0" standalone="no"?>
<!DOCTYPE svg PUBLIC "-//W3C//DTD SVG 1.1//EN" "http://www.w3.org/Graphics/SVG/1.1/DTD/svg11.dtd" >
<svg viewBox="0 -442 2048 2048">
  <g transform="matrix(1 0 0 -1 0 1606)">
   <path fill="currentColor"
d="M1660 1216l-122 -122q-9 6 -40 37l125 122zM1803 1053q-54 -40 -156 -106q-14 11 -29 41l156 103q7 -5 29 -38zM1459 1370l-59 -190q-34 6 -53 18l59 190q15 -4 53 -18zM1869 860q-58 -31 -169 -83q-4 13 -20 45q58 31 169 83q5 -16 20 -45zM1238 1446l-12 -200
q-13 3 -24 3h-6q-12 0 -23 -3l16 200q23 -1 49 0zM1014 1277q-18 -4 -53 -12l-32 173h53zM847 1204l-45 -24q-5 8 -94 164q15 9 45 29q29 -47 94 -169zM685 1100q-6 -9 -37 -40l-126 145q8 12 33 36zM1988 -364h-1906v922q0 2 56 83q45 73 146 209q20 23 90 85q78 70 90 70
q15 0 52.5 -16.5t50.5 -27.5q4 -3 55 -83q3 1 4 3q18 32 59 94q152 197 404 197q212 0 364.5 -151.5t152.5 -363.5q0 -123 -71 -263v-4q65 86 129 171q81 106 144 156q30 24 87 40q86 24 93 27v-1148zM1548 657q0 191 -134 326t-325 135q-194 0 -344 -156q-13 -14 -49 -70
q-38 -59 -38 -70q0 -13 66 -116q56 -87 79 -118q38 -51 68 -80t93 -72q34 -23 167 -104q147 -89 158 -89q16 0 77 48q55 44 72 65q110 136 110 301z" />
  </g>

</svg>
