<?xml version="1.0" standalone="no"?>
<!DOCTYPE svg PUBLIC "-//W3C//DTD SVG 1.1//EN" "http://www.w3.org/Graphics/SVG/1.1/DTD/svg11.dtd" >
<svg viewBox="0 -442 2048 2048">
  <g transform="matrix(1 0 0 -1 0 1606)">
   <path fill="currentColor"
d="M1720 1148l-136 -120q-12 14 -37 41q66 66 132 120q1 0 41 -41zM1449 1345l-72 -160q-32 17 -50 21l76 160q23 -15 46 -21zM1873 876l-179 -80q-6 17 -21 50l179 80q6 -17 21 -50zM1916 600h-191v58h191v-58zM1093 1248h-52v192h52v-192zM1889 355q-8 -32 -23 -50
l-169 70q3 12 20 47zM811 1206q-18 -4 -50 -21l-72 160q23 6 46 21zM592 1073q-13 -15 -37 -45l-136 120q12 14 37 41zM2018 -355h-1936v651h530q-91 147 -91 301q0 220 156.5 376.5t376.5 156.5q223 0 379.5 -155.5t156.5 -378.5q0 -161 -94 -301h522v-650zM466 846
q-8 -17 -24 -50q-56 24 -176 79q3 14 21 51zM411 604h-192v50h192v-50zM443 373l-176 -68q-7 16 -17 50l172 67q4 -14 21 -49zM1535 596q0 199 -140.5 339t-340.5 140q-197 0 -337.5 -141t-140.5 -338q0 -167 108 -303h744q107 143 107 303z" />
  </g>

</svg>
