<?xml version="1.0" standalone="no"?>
<!DOCTYPE svg PUBLIC "-//W3C//DTD SVG 1.1//EN" "http://www.w3.org/Graphics/SVG/1.1/DTD/svg11.dtd" >
<svg viewBox="0 -442 2048 2048">
  <g transform="matrix(1 0 0 -1 0 1606)">
   <path fill="currentColor"
d="M1991 1117q0 -24 -17 -42.5t-40 -18.5t-41.5 18t-18.5 41q0 25 18 44t42 19q21 0 39 -20t18 -41zM2014 970h-12q-14 0 -26 21t-12 36q0 54 50 56v-113zM1901 1027q0 -57 -57 -57t-57 59q0 55 57 55q22 0 39.5 -17.5t17.5 -39.5zM1987 939q0 -55 -55 -55q-54 0 -54 55
q0 51 54 51q55 0 55 -51zM2014 794q-3 -1 -6 -1q-15 0 -27.5 19.5t-12.5 35.5q0 30 29 47h17v-101zM1725 1027q0 -57 -57 -57t-57 57t57 57q22 0 39.5 -17.5t17.5 -39.5zM1811 939q0 -55 -55 -55t-55 55q0 51 55 51t55 -51zM1897 850q0 -57 -53 -57t-53 57q0 53 55 53
q51 0 51 -53zM1983 758q0 -51 -51 -51t-51 55q0 51 51 51t51 -55zM1548 1027q0 -57 -57 -57q-12 0 -20 5q-2 4 -18 37q-15 29 -15 34q0 13 19.5 25.5t33.5 12.5q22 0 39.5 -17.5t17.5 -39.5zM1721 848q0 -20 -16.5 -37.5t-36.5 -17.5q-53 0 -53 55t53 55t53 -55zM1807 758
q0 -51 -51 -51t-51 53t51 53q20 0 35.5 -17t15.5 -38zM1634 939q0 -55 -57 -55q-56 0 -56 55q0 51 58 51q55 0 55 -51zM1540 846q0 -41 -32 -48q-4 35 -10 105q42 -18 42 -57zM2014 1320q-6 0 -20 7q1 -24 -11 -68q2 -1 6 -1q6 0 21 6v-117q-47 8 -47 58q0 19 9 33
q-3 1 -6 1q-6 0 -17 -3t-17 -3q-8 0 -32 8q-1 -3 -1 -7q0 -5 3 -14.5t3 -14.5q0 -59 -61 -59q4 0 -45 9q16 -24 16 -40q0 -23 -17 -41t-40 -18q-24 0 -44.5 18t-20.5 41t21 43t44 20q11 0 34 -16q0 7 -4 20.5t-4 20.5q0 8 8 34q-18 -3 -37 -3q-18 0 -39 3q12 -36 12 -34
q0 -57 -60 -57q3 0 -46 9q12 -19 12 -40q0 -59 -57 -59q-23 0 -39.5 19t-16.5 42q0 21 17.5 41t38.5 20q15 0 39 -16v6q0 7 -3 20.5t-3 20.5q0 5 2.5 14t2.5 14q-33 -5 -38 -5q-16 0 -34 9v-2q0 -6 4.5 -17.5t4.5 -16.5q0 -59 -63 -59q-7 0 -43 9q16 -23 16 -38
q0 -37 -29 -53l-9 1q-24 33 -69 83q1 3 1 11q-1 0 -3 -2.5t-7 -2.5q5 0 -92 61q8 14 8 22q-6 0 -19 -2t-20 -2q6 0 -106 25q14 4 24 4q13 0 21 -6l6 2q-1 23 -5 69q-18 -8 -29 -8q-10 0 -26 8q-1 -3 -1 -8t2 -14.5t2 -14.5q0 -8 -11 -30q-68 0 -104 -4q-13 23 -13 36
q0 2 10 34q-2 1 -6 1q-5 0 -14.5 -4t-14.5 -4q-6 0 -17 2.5t-17 2.5q12 -24 12 -29q0 -12 -16 -36q20 1 59 -3q-82 -23 -109 -23q-5 0 -16 3t-17 3q-1 0 -7 -1l12 -27q-73 -61 -84 -61q-25 0 -29 29q0 -3 0 48q0 14 -5 14t-15 -4t-16 -4q-12 0 -36 8q0 -6 4.5 -18t4.5 -18
q0 -59 -59 -59t-59 52q0 6 1.5 18.5t1.5 18.5q0 4 -3 6q-5 0 -15 -4t-16 -4q-13 0 -37 8q0 -7 2.5 -20t2.5 -20q0 -55 -59 -55q-6 0 -19 2.5t-20 2.5q12 -17 12 -34q0 -22 -17.5 -41.5t-39.5 -19.5q-61 0 -61 61q0 23 18 42t41 19q13 0 37 -16v6q0 7 -3 20.5t-3 20.5
q0 5 2.5 14t2.5 14q-33 -5 -38 -5q-16 0 -34 9q0 -7 2.5 -20t2.5 -20q0 -55 -59 -55q-7 0 -20 2.5t-20 2.5q12 -17 12 -34q0 -24 -18 -42.5t-42 -18.5q-57 0 -57 59q0 24 17.5 43.5t41.5 19.5q13 0 37 -16q1 1 1 2q0 3 -5 13.5t-5 17.5t3.5 20t3.5 19v3h-33q-17 0 -39 4
q-1 -3 -1 -6q0 -5 3 -15t3 -15q0 -36 -36 -58h-14v117q10 -4 28 -12v4q1 8 -3.5 23.5t-4.5 22.5q0 13 7 23q-2 1 -5 1q-9 0 -22 -7v125h14l6 -7l3 63h-23v65h50q0 -3 -1 -10.5t-1 -12.5q0 -8 6.5 -10t17.5 -1q15 2 16 2q11 0 18 -2v34h124q-1 -30 -1 -21q0 -9 5 -11.5
t15 -1.5q15 2 17 2q10 0 17 -2q5 13 3 34h121q0 -3 -1 -10.5t-1 -12.5q0 -8 7 -10q4 -2 15 -1q13 2 15 2q10 0 17 -2q5 15 4 34h124q0 -5 -2 -13.5t-2 -13.5t36 -5q10 0 17 -2q5 13 3 34h121v-28q6 -6 8 -6q5 0 15.5 1t16.5 1q10 0 17 -2q2 2 2 6q0 3 -4 28h121v-35
q14 3 28 3q13 0 25 -2q5 13 3 34h120v-35q14 3 28 3q13 0 25 -2q5 15 4 34h124v-5q1 -12 -4 -26q42 0 57 -3l2 4q0 5 -1.5 15t-1.5 15h124q-1 -30 -1 -21q0 -9 5 -11.5t15 -1.5q15 2 17 2q10 0 17 -2q5 13 3 34h121q0 -3 -1 -10.5t-1 -12.5q0 -8 6 -10t16 -1q14 2 16 2
q10 0 17 -2q5 13 3 34h120q-1 -30 -1 -21q0 -9 5 -11.5t15 -1.5q15 2 17 2q10 0 17 -2q5 13 3 34h54v-65h-8q-10 1 -15 -3v-54l-2 -1q3 -1 6 -1l19 3v-124zM1630 760q0 -53 -51 -53t-51 51q0 55 51 55t51 -53zM744 1141q0 -8 -30 -44.5t-37 -36.5q-43 0 -43 57
q0 22 18.5 41.5t40.5 19.5q12 0 31.5 -12.5t19.5 -24.5zM1351 479q-11 -22 -24 -30h-14q12 11 38 30zM575 1117q0 -22 -17 -41.5t-39 -19.5q-61 0 -61 61q0 22 18.5 41.5t40.5 19.5t40 -19t18 -42zM662 1029q0 -59 -57 -59t-57 57t57 57q22 0 39.5 -16.5t17.5 -38.5z
M1344 315q0 -35 -31 -35q-32 0 -32 35q0 31 32 31q31 0 31 -31zM1262 387q-11 -21 -31 -21t-40 13q4 10 30 21q18 9 36 17zM485 1027q0 -23 -17 -40t-40 -17q-57 0 -57 57t57 57t57 -57zM571 937q0 -53 -54 -53q-55 0 -55 55q0 51 55 51q54 0 54 -53zM1336 123q-8 -8 -21 -8
h-6q-12 0 -20 8v27q8 8 22 8h6q11 0 19 -8v-27zM1250 206q-10 -9 -25 -9t-30 13v30q18 12 30 12q16 0 25 -8v-38zM1418 59l-4 -30h-26q0 1 -2.5 6.5t-2.5 10.5q0 18 20 18q5 0 9.5 -2.5t5.5 -2.5zM618 899q-8 -80 -8 -105q-20 5 -39 11q-19 10 -19 43q0 20 15.5 37.5
t35.5 17.5q4 0 8.5 -2t6.5 -2zM309 1027q0 -23 -17 -40t-40 -17q-57 0 -57 57t57 57q22 0 39.5 -17.5t17.5 -39.5zM395 939q0 -55 -55 -55t-55 55q0 51 55 51t55 -51zM568 760q0 -53 -51 -53t-51 53t51 53q20 0 35.5 -16.5t15.5 -36.5zM481 848q0 -20 -16.5 -37.5
t-36.5 -17.5q-53 0 -53 55t55 55q51 0 51 -55zM1242 59l-4 -30h-27q0 3 -2 8.5t-2 8.5q0 18 19 18q5 0 10 -2.5t6 -2.5zM1155 158v-7q0 -24 -4 -36h-30q-8 16 -8 23q0 12 9 20h33zM642 637q-15 -16 -37 -16q-49 0 -49 51q0 47 47 47q36 0 39 -82zM709 536h-8q-51 -2 -51 44
q0 9 10 29q18 -36 49 -73zM2014 -367h-1932v474h305v403q15 21 41 21q38 0 45 -52h88q1 2 1 17q0 35 37 35q25 0 35 -6q13 -9 12 -43q2 -3 17 -2h78q4 4 4 15q6 -5 17 -16h342v-148q8 15 26 15q42 0 42 -33t-36 -33q-16 0 -34 16v-275h325v184q-16 -8 -26 -8q-29 0 -29 26
q0 29 31 29q15 0 26 -12q3 2 2 21v106q-3 1 -8 2q-3 0 -10.5 -1.5t-11.5 -1.5q-37 0 -37 39q0 35 37 35q13 0 27 -7q3 3 3 38v69q-3 1 -5 1q-6 0 -19 -6q24 36 24 37v115q3 0 10 -1h11q34 0 42 33q20 -5 45 -32h77q16 32 52 32q40 0 44 -32h81q25 32 51 32q30 0 48 -32h81
q3 6 41 32v-1086zM128 1027q0 -36 -32 -57h-14v113q2 1 4 1q14 0 28 -21t14 -36zM305 848q0 -20 -16.5 -37.5t-36.5 -17.5q-53 0 -53 55t55 55q51 0 51 -55zM391 758q0 -51 -51 -51t-51 53t51 53q20 0 35.5 -17t15.5 -38zM215 939q0 -55 -51 -55q-55 0 -55 55q0 51 55 51
q51 0 51 -51zM477 674q0 -53 -47 -53q-51 0 -51 51q0 47 49 47t49 -45zM560 582q0 -47 -43 -47q-47 0 -47 47q0 43 49 43q41 0 41 -43zM124 848q0 -48 -42 -54l4 105q38 -14 38 -51zM215 758q0 -51 -51 -51t-51 55q0 51 51 51q19 0 35 -18t16 -37zM301 672q0 -51 -49 -51
t-49 51q0 47 49 47t49 -47zM383 586q0 -51 -43 -51q-47 0 -47 47q0 43 47 43q43 0 43 -39zM120 672q0 -28 -24 -47h-14v90h14q24 -11 24 -43zM207 582q0 -47 -43 -47q-47 0 -47 47q0 43 47 43q43 0 43 -43zM375 405q0 -39 -35 -39q-39 0 -39 39q0 35 41 35q33 0 33 -35z
M289 491q0 -43 -37 -43q-41 0 -41 43q0 40 39 40t39 -40zM113 491q0 -26 -31 -42v81q31 1 31 -39zM285 315q0 -35 -33 -35t-33 35q0 31 33 31t33 -31zM199 403q0 -37 -35 -37q-40 0 -40 37t38 37q37 0 37 -37zM367 210q-6 -13 -27 -13q-31 0 -31 28q0 27 31 27q14 0 27 -12
v-30zM105 313q0 -11 -9 -29h-14v62q23 -4 23 -33zM191 223q0 -26 -27 -26q-32 0 -32 26q0 29 32 29q27 0 27 -29zM273 123q-9 -8 -21 -8q-26 0 -26 21q0 22 24 22q15 0 23 -8v-27zM1963 1351v58h-57v-58q15 3 26 3h8q11 0 23 -3zM1873 1441v58h-62q8 -10 8 -26q0 -18 -8 -31
q5 0 15.5 3t16.5 3q13 0 30 -7zM1881 1257q-15 22 -15 36q0 11 11 33q-25 -7 -33 -7q-18 0 -32 7q6 -16 6 -31q0 -7 -3.5 -19.5t-3.5 -18.5q22 7 33 7q6 0 18.5 -3.5t18.5 -3.5zM1787 1351v58h-58v-2v-20q0 -22 -4 -36q14 3 27 3h8q12 0 27 -3zM1692 1441v58h-54
q1 -40 1 -58q33 6 23 6q10 0 30 -6zM1705 1257q-12 23 -12 44q0 15 8 25q-25 -7 -33 -7q-19 0 -33 7q3 -19 3 -32v-10q0 -13 -3 -27q22 7 33 7q6 0 18.5 -3.5t18.5 -3.5zM1610 1351v58h-57v-8v-13q0 -26 -4 -37q14 3 27 3h7q12 0 27 -3zM1520 1437v65q-13 -2 -27 -2
q-17 0 -30 3q0 -37 -5 -62q5 0 15.5 3.5t15.5 3.5q11 0 31 -11zM1344 1445v54h-58v-58q14 7 27 7q5 0 15.5 -1.5t15.5 -1.5zM1434 1351v58q-53 -1 -62 -1q3 -15 3 -26v-8q0 -11 -3 -23q14 3 27 3h8q12 0 27 -3zM1524 1257q-7 14 -7 36q0 10 3 33q-14 -7 -29 -7q-18 0 -32 7
q2 -26 2 -37q0 -24 -7 -32q21 7 35 7q16 0 35 -7zM1167 1445v54h-62q7 -9 7 -24q0 1 -6 -34q7 7 28 7q5 0 16 -1.5t17 -1.5zM1253 1351v58h-57v-58q15 3 26 3h8q11 0 23 -3zM1348 1257q-8 18 -8 42q0 17 4 27q-14 -7 -31 -7t-31 7q6 -12 6 -28q0 -23 -10 -41q21 7 35 7
q16 0 35 -7zM1442 1163q-12 23 -12 41q0 6 3.5 18t3.5 18q-19 -7 -36 -7q-16 0 -37 7q6 -10 6 -30q0 -31 -10 -47q23 15 43 15q16 0 39 -15zM987 1443v56h-58v-56q19 3 30 3q14 0 28 -3zM1077 1351v58h-58v-58q15 3 27 3h7q12 0 24 -3zM810 1445v54h-57v-58q14 7 28 7z
M900 1351v62q-27 0 -57 -13q0 -17 -4 -49q12 3 28 3q15 0 33 -3zM1897 272v125h-70v-125h70zM728 1351q-9 13 -9 31q0 12 5 31q-22 -5 -58 -4q0 -4 1 -13.5t1 -14.5q0 -17 -6 -30q21 7 33 7q6 0 16.5 -3.5t16.5 -3.5zM634 1445v54h-58v-58q14 7 27 7q5 0 15.5 -1.5
t15.5 -1.5zM814 1257q0 8 -4 23t-4 23q0 14 8 23q-25 -7 -33 -7q-16 0 -32 8v-70q21 7 32 7q14 0 33 -7zM1559 476v125h-69v-125h69zM1897 68v125h-70v-125h70zM1671 272v125h-67v-125h67zM457 1445v56q-32 -3 -57 0v-60q14 7 26 7q5 0 15.5 -1.5t15.5 -1.5zM642 1257
q-11 17 -11 41q0 17 7 28q-25 -7 -33 -7q-19 0 -33 7q6 -10 6 -26q0 -8 -6 -43q22 7 33 7q6 0 18.5 -3.5t18.5 -3.5zM547 1351v60q-33 -4 -61 0v-60q15 3 27 3h7q12 0 27 -3zM1783 68v125h-66v-125h66zM1897 -136v129h-70v-129h70zM1673 68v125h-69v-125h69zM281 1445v56
q-32 -3 -58 0v-60q14 7 27 7q5 0 15.5 -1.5t15.5 -1.5zM465 1257q-1 1 -1 2q-8 14 -8 35q0 18 5 32q-25 -7 -33 -7q-18 0 -32 7q6 -11 6 -25q0 6 -7 -44q22 7 33 7q6 0 18.5 -3.5t18.5 -3.5zM371 1351v60q-34 -4 -62 0v-60q15 3 27 3h8q12 0 27 -3zM1897 -324v129h-70v-129
h70zM289 1257q-13 17 -13 39q0 18 9 30q-25 -7 -33 -7q-19 0 -33 7q6 -11 6 -26q0 -8 -3 -22t-3 -21q22 7 31 7q7 0 19.5 -3.5t19.5 -3.5zM194 1347v66q-17 -3 -34 -3q-15 0 -35 2q7 -9 7 -24q0 -7 -7 -41q16 9 35 9t34 -9zM1783 -324v129h-66v-129h66zM1559 -136v129h-69
v-129h69zM1049 225v148h-100v-148h100zM1559 -324v129h-69v-129h69zM716 225v148h-101v-148h101zM547 225v148h-100v-148h100zM547 -10v148h-100v-148h100zM716 -249v148h-101v-148h101zM547 -249v148h-100v-148h100z" />
  </g>

</svg>
