<?xml version="1.0" standalone="no"?>
<!DOCTYPE svg PUBLIC "-//W3C//DTD SVG 1.1//EN" "http://www.w3.org/Graphics/SVG/1.1/DTD/svg11.dtd" >
<svg viewBox="0 -442 2048 2048">
  <g transform="matrix(1 0 0 -1 0 1606)">
   <path fill="currentColor"
d="M2024 1474q0 -57 -59 -57q-55 0 -55 57q0 53 55 53q59 0 59 -53zM1929 1556q0 -16 -18 -32.5t-35 -16.5q-47 0 -57 63h110v-14zM1839 1474q0 -57 -52 -57q-59 0 -59 57q0 53 57 53q54 0 54 -53zM2020 1289q0 -53 -53 -53q-54 0 -54 53t54 53q53 0 53 -53zM1929 1383
q0 -57 -55 -57q-22 0 -38.5 17.5t-16.5 39.5q0 21 17 37t38 16q55 0 55 -53zM1748 1552q0 -16 -19.5 -30.5t-35.5 -14.5q-55 0 -55 63h110v-18zM1748 1381q0 -22 -16.5 -38.5t-38.5 -16.5t-38.5 17.5t-16.5 39.5q0 21 17 37t38 16q55 0 55 -55zM1835 1289q0 -53 -50 -53
q-53 0 -53 53t53 53q50 0 50 -53zM1657 1476q0 -59 -55 -59q-59 0 -59 57q0 53 59 53q55 0 55 -51zM1925 1198q0 -57 -49 -57q-53 0 -53 57q0 53 51 53t51 -53zM2016 1106q0 -52 -49 -52q-54 0 -54 52q0 51 54 51q49 0 49 -51zM1566 1570q-6 -63 -56 -63q-21 0 -39.5 17
t-18.5 38q0 1 1 8h113zM1567 1383q0 -57 -55 -57q-59 0 -59 57q0 53 57 53q21 0 39 -16t18 -37zM1654 1291q0 -55 -52 -55q-55 0 -55 53t55 53q52 0 52 -51zM1472 1474q0 -57 -53 -57q-57 0 -57 59q0 51 55 51t55 -53zM1744 1200q0 -21 -14.5 -40t-34.5 -19
q-22 0 -37.5 18.5t-15.5 40.5q0 51 51 51t51 -51zM1831 1106q0 -52 -46 -52q-49 0 -49 50q0 53 49 53q46 0 46 -51zM1921 1015q0 -51 -47 -51t-47 49t49 49q45 0 45 -47zM2016 924q0 -19 -15 -35t-34 -16q-50 0 -50 50q0 45 50 45q49 0 49 -44zM1382 1552q0 -15 -19 -30
t-34 -15q-20 0 -38.5 15t-18.5 35v13h110v-18zM1291 1474q0 -57 -55 -57t-55 57q0 53 53 53q57 0 57 -53zM1382 1383q0 -57 -53 -57q-57 0 -57 57q0 53 57 53q53 0 53 -53zM1468 1289q0 -53 -49 -53q-53 0 -53 53t53 53q49 0 49 -53zM1744 1015q0 -51 -51 -51t-51 51
q0 47 51 47t51 -47zM1563 1198q0 -21 -16 -39t-37 -18q-19 0 -38 19t-19 38q0 21 19 37t40 16q51 0 51 -53zM1650 1104q0 -50 -50 -50q-53 0 -53 54q0 17 17.5 33t35.5 16q50 0 50 -53zM1831 923q0 -50 -46 -50q-49 0 -49 50q0 45 49 45q46 0 46 -45zM1917 830
q0 -43 -41 -43q-45 0 -45 41q0 45 45 45q41 0 41 -43zM2008 737q0 -45 -41 -45q-46 0 -46 47q0 44 46 44q41 0 41 -46zM1200 1570q-10 -63 -56 -63q-56 0 -57 63h113zM1201 1383q0 -57 -55 -57q-60 0 -60 55t58 55q21 0 39 -16t18 -37zM1106 1474q0 -57 -53 -57
q-57 0 -57 57q0 21 17.5 37t39.5 16q53 0 53 -53zM1287 1289q0 -53 -51 -53q-55 0 -55 53t55 53q51 0 51 -53zM1465 1104q0 -50 -46 -50q-49 0 -49 52q0 51 49 51q46 0 46 -53zM1650 923q0 -19 -15.5 -34.5t-34.5 -15.5q-45 0 -45 50q0 45 43 45q52 0 52 -45zM1736 830
q0 -43 -43 -43t-43 43t43 43t43 -43zM1831 737q0 -14 -15 -29.5t-29 -15.5q-47 0 -47 47q0 44 43 44q17 0 32.5 -14.5t15.5 -31.5zM1378 1198q0 -57 -49 -57q-22 0 -38 18.5t-16 40.5q0 51 54 51q49 0 49 -53zM1559 1015q0 -51 -49 -51q-53 0 -53 49t53 49q49 0 49 -47z
M1913 643q0 -41 -37 -41q-45 0 -45 41q0 45 43 45q39 0 39 -45zM2004 554q0 -43 -37 -43q-42 0 -42 39q0 15 14.5 27.5t29.5 12.5q35 0 35 -36zM1019 1556q0 -17 -20 -33t-37 -16q-19 0 -37.5 16t-18.5 34v13h113v-14zM1020 1383q0 -57 -58 -57q-57 0 -57 57q0 53 59 53
q56 0 56 -53zM925 1474q0 -57 -53 -57q-57 0 -57 59q0 51 57 51q53 0 53 -53zM1106 1289q0 -53 -53 -53t-53 53t53 53t53 -53zM1287 1106q0 -52 -51 -52t-51 52q0 51 51 51t51 -51zM1555 830q0 -43 -45 -43t-45 43t45 43t45 -43zM1646 737q0 -17 -14.5 -31t-31.5 -14
q-41 0 -41 45q0 46 39 46q48 0 48 -46zM1197 1200q0 -59 -53 -59q-21 0 -37.5 19t-16.5 40q0 51 54 51q53 0 53 -51zM1378 1013q0 -49 -51 -49q-52 0 -52 49q0 19 17.5 34t36.5 15q49 0 49 -49zM1465 923q0 -18 -14.5 -34t-31.5 -16q-49 0 -49 50q0 45 47 45q48 0 48 -45z
M1736 643q0 -41 -43 -41t-43 41q0 45 43 45t43 -45zM1823 552q0 -41 -38 -41q-41 0 -41 41q0 38 41 38q38 0 38 -38zM1910 458q0 -38 -36 -38q-35 0 -35 38q0 37 35 37q36 0 36 -37zM1996 365q0 -31 -31 -31q-32 0 -32 33q0 34 34 34q29 0 29 -36zM834 1570q-12 -63 -57 -63
q-15 0 -34 13.5t-19 28.5v21h110zM744 1474q0 -57 -55 -57t-55 57q0 53 53 53q57 0 57 -53zM834 1383q0 -57 -55 -57t-55 57q0 53 53 53q21 0 39 -16t18 -37zM921 1289q0 -53 -49 -53q-53 0 -53 53t53 53q49 0 49 -53zM1102 1106q0 -52 -51 -52q-47 0 -47 54q0 49 49 49
t49 -51zM1016 1196q0 -19 -17.5 -37t-36.5 -18q-53 0 -53 59q0 51 53 51q21 0 37.5 -17t16.5 -38zM1193 1013q0 -49 -49 -49q-50 0 -50 49t50 49q49 0 49 -49zM1283 923q0 -50 -47 -50t-47 50q0 45 45 45q49 0 49 -45zM1370 830q0 -43 -41 -43q-46 0 -46 41q0 45 46 45
q41 0 41 -43zM1461 739q0 -47 -42 -47q-45 0 -45 45q0 46 43 46q44 0 44 -44zM1642 552q0 -14 -13 -27.5t-27 -13.5q-39 0 -39 41q0 38 37 38q13 0 27.5 -12.5t14.5 -25.5zM1819 367q0 -33 -32 -33q-35 0 -35 31q0 36 33 36q34 0 34 -34zM1547 641q0 -39 -37 -39
q-45 0 -45 41q0 16 14.5 30.5t30.5 14.5q37 0 37 -47zM1728 460q0 -40 -35 -40q-36 0 -36 40q0 35 36 35q35 0 35 -35zM1906 275q0 -32 -32 -32q-31 0 -31 32q0 31 33 31q30 0 30 -31zM1992 169q-13 -12 -25 -12q-19 0 -26 12v26q7 13 26 13q18 0 25 -13v-26zM653 1552
q0 -17 -19.5 -31t-37.5 -14t-37.5 16.5t-19.5 33.5v13h114v-18zM563 1474q0 -57 -59 -57q-55 0 -55 57q0 53 55 53q59 0 59 -53zM740 1289q0 -53 -53 -53q-49 0 -49 53t49 53q53 0 53 -53zM653 1383q0 -57 -55 -57q-23 0 -41 17t-18 40q0 22 18.5 37.5t40.5 15.5
q55 0 55 -53zM921 1106q0 -52 -49 -52q-53 0 -53 52q0 51 53 51q49 0 49 -51zM1012 1015q0 -51 -52 -51q-47 0 -47 49t49 49q50 0 50 -47zM831 1200q0 -59 -54 -59q-20 0 -36.5 18.5t-16.5 38.5q0 53 53 53q54 0 54 -51zM1189 828q0 -41 -45 -41q-46 0 -46 43t46 43
q45 0 45 -45zM1279 737q0 -45 -43 -45t-43 45q0 46 41 46q45 0 45 -46zM1370 641q0 -39 -41 -39q-42 0 -42 41q0 45 40 45q43 0 43 -47zM1098 923q0 -50 -47 -50t-47 51q0 17 16 30.5t33 13.5q45 0 45 -45zM1634 367q0 -33 -34 -33q-33 0 -33 31q0 36 35 36q32 0 32 -34z
M1724 275q0 -32 -31 -32q-32 0 -32 32q0 31 32 31q31 0 31 -31zM1453 554q0 -43 -34 -43q-41 0 -41 41q0 38 41 38q34 0 34 -36zM1811 169q-7 -12 -26 -12q-29 0 -29 27q0 24 29 24q19 0 26 -13v-26zM1543 460q0 -40 -35 -40q-36 0 -36 40q0 35 36 35q35 0 35 -35zM1982 -1
q0 -11 -7 -19h-17l-9 9v25h10q7 1 10 1h10q3 -5 3 -12v-4zM1898 78q-13 -12 -24 -12q-27 0 -27 26q0 21 29 21q14 0 22 -8v-27zM468 1556q0 -16 -18.5 -32.5t-34.5 -16.5t-36.5 13.5t-20.5 28.5v21h110v-14zM378 1474q0 -57 -55 -57q-56 0 -56 57q0 53 54 53q57 0 57 -53z
M559 1289q0 -53 -53 -53q-54 0 -54 53t54 53q53 0 53 -53zM468 1383q0 -57 -55 -57t-55 57q0 53 55 53t55 -53zM736 1104q0 -50 -49 -50q-46 0 -46 52q0 51 46 51q49 0 49 -53zM649 1198q0 -21 -16 -39t-37 -18q-20 0 -36.5 18t-16.5 39q0 53 55 53q51 0 51 -53zM827 1013
q0 -49 -50 -49q-49 0 -49 49t49 49q50 0 50 -49zM917 923q0 -50 -45 -50q-49 0 -49 50q0 45 49 45q45 0 45 -45zM1004 828q0 -41 -42 -41q-45 0 -45 43t45 43q42 0 42 -45zM1098 737q0 -15 -15 -30t-30 -15t-30 15t-15 30q0 17 14 31.5t31 14.5q16 0 30.5 -15t14.5 -31z
M1185 641q0 -39 -41 -39q-42 0 -42 41q0 45 44 45q39 0 39 -47zM1275 552q0 -41 -39 -41t-39 41q0 38 37 38q41 0 41 -38zM1449 365q0 -31 -30 -31q-33 0 -33 33q0 34 35 34q28 0 28 -36zM1803 -1q0 -3 -2 -9.5t-2 -9.5q-5 0 -15.5 2t-15.5 2v6q-1 4 -1 6v8q0 3 2 10
q2 0 8 2.5t10 2.5q16 0 16 -20zM1362 458q0 -38 -31 -38q-40 0 -40 40q0 35 40 35q31 0 31 -37zM1539 275q0 -32 -31 -32q-28 0 -28 32q0 31 30 31q29 0 29 -31zM1626 169q-7 -12 -26 -12q-12 0 -25 12v26q7 13 25 13q19 0 26 -13v-26zM1716 78q-13 -12 -25 -12q-8 0 -22 13
v26q9 8 22 8q12 0 25 -12v-23zM1890 -102q-9 -9 -14 -9q-18 0 -18 18q0 10 14 17q9 0 18 -9v-17zM1976 -197h-19q-1 3 -1 8v6q0 4 2 8h18v-22zM283 1548q0 -14 -18 -27.5t-33 -13.5q-55 0 -55 63h106v-22zM374 1291q0 -55 -53 -55q-50 0 -50 55q0 51 50 51q53 0 53 -51z
M196 1476q0 -59 -55 -59q-59 0 -59 57q0 53 59 53q55 0 55 -51zM283 1381q0 -55 -51 -55q-22 0 -38.5 17.5t-16.5 39.5q0 53 55 53q51 0 51 -55zM649 1013q0 -49 -53 -49q-49 0 -49 49t49 49q53 0 53 -49zM555 1106q0 -52 -49 -52q-54 0 -54 52q0 51 54 51q49 0 49 -51z
M823 830q0 -43 -46 -43q-45 0 -45 41q0 45 45 45q46 0 46 -43zM913 739q0 -47 -43 -47t-43 47q0 44 43 44t43 -44zM1004 643q0 -41 -42 -41q-41 0 -41 41q0 45 41 45q42 0 42 -45zM464 1198q0 -57 -49 -57q-20 0 -38.5 18.5t-18.5 38.5q0 53 55 53q51 0 51 -53zM732 923
q0 -50 -45 -50q-46 0 -46 50q0 45 46 45q45 0 45 -45zM1090 552q0 -41 -37 -41t-37 39q0 40 35 40q39 0 39 -38zM1268 367q0 -33 -32 -33q-35 0 -35 33q0 34 35 34q32 0 32 -34zM1181 460q0 -40 -35 -40q-40 0 -40 42q0 33 40 33q35 0 35 -35zM1358 275q0 -32 -29 -32
q-34 0 -34 32q0 31 34 31q29 0 29 -31zM1708 -106q-3 -1 -7 -2h-6q-8 0 -18 6v17q5 3 13 9q9 0 18 -9v-21zM1445 182q0 -25 -26 -25q-29 0 -29 27q0 24 29 24q26 0 26 -26zM1618 -12q-10 -9 -18 -9q-9 0 -17 9v26q3 0 9.5 2.5t9.5 2.5q6 0 16 -9v-22zM1796 -190q0 -2 -2 -8
l-22 5l4 18h19q0 -3 1 -9v-6zM1531 78q-13 -12 -23 -12q-24 0 -24 24q0 23 26 23q13 0 21 -8v-27zM193 1291q0 -55 -54 -55q-53 0 -53 53t55 53q52 0 52 -51zM283 1198q0 -20 -15.5 -38.5t-35.5 -18.5q-51 0 -51 59q0 51 49 51q53 0 53 -53zM370 1106q0 -52 -49 -52
q-46 0 -46 50q0 53 46 53q49 0 49 -51zM641 830q0 -43 -45 -43t-45 43t45 43t45 -43zM732 737q0 -45 -43 -45q-44 0 -44 45q0 46 44 46q43 0 43 -46zM460 1015q0 -51 -47 -51q-51 0 -51 49t53 49q45 0 45 -47zM551 923q0 -50 -45 -50q-50 0 -50 50q0 45 52 45q43 0 43 -45z
M819 643q0 -41 -42 -41q-41 0 -41 39q0 47 43 47q40 0 40 -45zM909 552q0 -41 -39 -41t-39 41q0 38 41 38q37 0 37 -38zM1083 365q0 -31 -30 -31t-30 33q0 34 28 34q32 0 32 -36zM1264 182q0 -25 -28 -25q-14 0 -27 12v26q13 13 25 13q30 0 30 -26zM1437 -1q0 -3 -2.5 -9.5
t-2.5 -9.5h-21q-9 8 -9 19q0 20 19 20q16 0 16 -20zM996 458q0 -38 -32 -38q-39 0 -39 40q0 35 39 35q32 0 32 -37zM1173 275q0 -32 -29 -32q-30 0 -30 34q0 29 30 29q29 0 29 -31zM1350 74q-9 -8 -21 -8t-26 13v26q18 8 26 8q13 0 21 -8v-31zM1614 -183q-2 -5 -4 -14h-19
q0 4 -4 11l9 12h13q1 -5 5 -9zM1523 -102q-9 -9 -18 -9q-13 6 -13 19q0 3 13 16q9 0 18 -9v-17zM189 1106q0 -52 -50 -52q-53 0 -53 52q0 51 53 51q50 0 50 -51zM279 1011q0 -47 -47 -47q-51 0 -51 51q0 47 51 47q47 0 47 -51zM370 923q0 -50 -49 -50q-46 0 -46 50
q0 45 46 45q49 0 49 -45zM456 830q0 -43 -41 -43q-45 0 -45 41q0 45 45 45q41 0 41 -43zM638 643q0 -41 -40 -41q-43 0 -43 41q0 15 13 30t28 15q42 0 42 -45zM547 737q0 -45 -41 -45q-17 0 -31.5 15t-14.5 32q0 44 46 44q41 0 41 -46zM724 552q0 -41 -37 -41q-38 0 -38 41
q0 38 38 38q37 0 37 -38zM815 460q0 -40 -36 -40q-35 0 -35 40q0 35 35 35q36 0 36 -35zM1079 184q0 -27 -26 -27t-26 25q0 26 26 26t26 -24zM1256 -8q-6 -13 -20 -13q-11 0 -19 9v26q3 0 9.5 2.5t9.5 2.5q13 0 20 -13v-14zM1433 -179l-5 -18h-18l4 22zM901 367
q0 -33 -31 -33q-36 0 -36 33q0 34 38 34q29 0 29 -34zM992 275q0 -32 -28 -32q-35 0 -35 32q0 31 33 31q30 0 30 -31zM1342 -107h-9q-12 0 -22 5v17q9 9 18 9q4 0 8 -2t5 -2v-27zM1169 90q0 -24 -25 -24q-26 0 -26 26q0 21 24 21q27 0 27 -23zM275 830q0 -43 -43 -43t-43 43
t43 43t43 -43zM189 923q0 -19 -15.5 -34.5t-34.5 -15.5t-34 15.5t-15 34.5q0 45 49 45q50 0 50 -45zM366 737q0 -45 -45 -45q-46 0 -46 45q0 46 46 46q45 0 45 -46zM452 643q0 -41 -37 -41q-45 0 -45 41q0 45 43 45q39 0 39 -45zM634 460q0 -40 -36 -40q-35 0 -35 40
q0 35 35 35q36 0 36 -35zM720 367q0 -33 -33 -33q-30 0 -30 33q0 34 28 34q35 0 35 -34zM543 552q0 -41 -37 -41q-42 0 -42 39q0 15 14.5 27.5t29.5 12.5q35 0 35 -38zM807 275q0 -32 -28 -32q-31 0 -31 32q0 31 29 31q30 0 30 -31zM897 184q0 -27 -25 -27q-30 0 -30 27
q0 24 30 24q25 0 25 -24zM984 74q-11 -8 -20 -8q-13 0 -27 13v22q7 12 25 12q14 0 22 -8v-31zM1248 -179l-5 -18h-18q0 4 -5 12l10 11zM1157 -102q-9 -9 -18 -9q-13 6 -13 19q0 3 13 16q9 0 18 -9v-17zM1067 -15q-6 -6 -14 -6q-18 0 -18 20q0 4 2.5 8.5t2.5 6.5h26v-11
q1 -7 1 -10v-8zM185 737q0 -17 -14.5 -31t-31.5 -14q-41 0 -41 45q0 46 39 46q48 0 48 -46zM275 643q0 -41 -43 -41t-43 41q0 16 13.5 30.5t29.5 14.5q43 0 43 -45zM358 552q0 -41 -37 -41q-38 0 -38 41q0 38 38 38q37 0 37 -38zM449 460q0 -40 -36 -40q-35 0 -35 38
q0 37 35 37q36 0 36 -35zM535 365q0 -31 -31 -31q-32 0 -32 33q0 34 34 34q29 0 29 -36zM626 275q0 -32 -28 -32q-31 0 -31 34q0 29 31 29q28 0 28 -31zM716 182q0 -25 -29 -25q-26 0 -26 25q0 26 26 26q29 0 29 -26zM976 -107q-6 -2 -18 -4l-9 9v22h5q4 1 6 1h9q1 0 7 -2
v-26zM1063 -180l-5 -17h-14l4 22q9 0 15 -5zM803 92q0 -26 -24 -26q-27 0 -27 26q0 21 25 21q26 0 26 -21zM890 -1q0 -20 -20 -20t-20 20q0 4 2.5 8.5t2.5 6.5h30q0 -2 2.5 -6.5t2.5 -8.5zM181 552q0 -14 -13.5 -27.5t-26.5 -13.5q-39 0 -39 41q0 38 37 38q13 0 27.5 -12.5
t14.5 -25.5zM267 460q0 -40 -35 -40q-36 0 -36 40q0 35 36 35q35 0 35 -35zM354 367q0 -33 -33 -33q-34 0 -34 31q0 36 34 36q33 0 33 -34zM531 184q0 -27 -25 -27q-19 0 -26 12v26q7 13 26 13q25 0 25 -24zM622 92q0 -26 -24 -26q-9 0 -23 13v26q9 8 21 8q26 0 26 -21z
M440 256q-13 -13 -27 -13q-31 0 -31 32q0 31 33 31q12 0 25 -12v-38zM795 -98q-6 -13 -22 -13q-5 4 -9 4v27h4q17 0 27 -5v-13zM703 1q0 -13 -8 -22l-25 5v30h10q7 1 10 1h10q3 -5 3 -14zM881 -197h-18q-3 5 -9 13l9 10l18 -5v-18zM173 367q0 -33 -34 -33q-33 0 -33 31
q0 36 35 36q32 0 32 -34zM263 275q0 -32 -31 -32q-32 0 -32 32q0 31 32 31q31 0 31 -31zM350 184q0 -27 -29 -27q-8 0 -26 8v35q18 8 26 8q29 0 29 -24zM609 -107q-6 -2 -17 -4q-10 10 -10 18q0 10 14 17q4 -2 13 -4v-27zM521 -1q0 -11 -7 -19h-17l-9 9v25h10q7 1 10 1h10
q3 -5 3 -12v-4zM437 78q-13 -12 -24 -12q-27 0 -27 26q0 21 29 21q14 0 22 -8v-27zM696 -197l-23 4l5 19l18 -5v-18zM165 169q-7 -12 -26 -12q-12 0 -25 12v26q7 13 25 13q19 0 26 -13v-26zM255 78q-13 -12 -25 -12q-8 0 -22 13v26q9 8 22 8q12 0 25 -12v-23zM428 -107h-7
q-14 0 -23 5v22h10q11 0 20 -5v-22zM515 -197h-19q-1 3 -1 8v6q0 4 2 8h18v-22zM338 -16q-4 -4 -14 -4q-13 0 -21 9v25h35v-30zM248 -93q0 -10 -5.5 -13t-17.5 -5q-9 9 -9 18q0 10 14 17q18 -9 18 -17zM157 -12q-8 -9 -18 -9q-9 0 -17 9v26h35v-26zM334 -179l-5 -19l-22 5
l5 18zM153 -183q-2 -5 -4 -14h-19q0 4 -4 11l9 12h13q1 -5 5 -9z" />
  </g>

</svg>
