<?xml version="1.0" standalone="no"?>
<!DOCTYPE svg PUBLIC "-//W3C//DTD SVG 1.1//EN" "http://www.w3.org/Graphics/SVG/1.1/DTD/svg11.dtd" >
<svg viewBox="0 -442 2048 2048">
  <g transform="matrix(1 0 0 -1 0 1606)">
   <path fill="currentColor"
d="M1976 1403q-472 5 -897 -247q-345 -205 -574 -547q-233 -349 -277 -741q-14 -127 -15 -228h-131v83q0 87 33 260q31 168 63 256q149 415 420 703q268 284 627.5 438.5t750.5 154.5v-132zM1976 1056q-192 -3 -348 -41q-371 -90 -651 -372q-276 -278 -374 -651
q-42 -160 -42 -244v-108h-109v72q0 182 77 406q83 240 225 434q79 108 203.5 220.5t236.5 176.5q382 216 782 216v-109zM1976 779h-18q-95 2 -228 -25q-30 -8 -90 -25q-191 -53 -383 -209.5t-280 -332.5q-98 -196 -121 -334t-19 -213h-84v79q0 107 60 306q20 67 74 175
q134 270 400.5 451t566.5 207q69 6 122 6v-85zM1976 530q-15 1 -31 1q-237 0 -448.5 -135t-318.5 -349q-99 -198 -91 -407h-81v83q0 94 53 243q24 67 62 141q96 187 284 320.5t398 168.5q91 15 98 15h75v-81zM1976 339q-91 -7 -149 -16q-26 -6 -78 -19q-121 -28 -248 -142.5
t-165 -231.5q-12 -30 -31 -90q-29 -115 -27 -200h-69v25q0 18 25 176t164 312q137 151 292 201q24 9 74 25q100 25 133 25h79v-65z" />
  </g>

</svg>
