<?xml version="1.0" standalone="no"?>
<!DOCTYPE svg PUBLIC "-//W3C//DTD SVG 1.1//EN" "http://www.w3.org/Graphics/SVG/1.1/DTD/svg11.dtd" >
<svg viewBox="0 -442 2048 2048">
  <g transform="matrix(1 0 0 -1 0 1606)">
   <path fill="currentColor"
d="M1794 1336q-30 -8 -86 -33q-2 -28 -2 -84q-17 24 -49 71q-50 -14 -92 -30q59 69 59 74q0 3 -59 74l88 -31q35 44 53 75v-19q0 -1 2 -69q22 -10 86 -28zM1352 1093q-17 -5 -106 -35q0 -18 1 -54.5t1 -54.5q-41 61 -68 93l-104 -39l71 88q-24 31 -71 92q27 -12 108 -39
q21 27 64 95q0 -18 -1.5 -56t-1.5 -56q35 -12 107 -34zM717 1239q0 -88 -55.5 -164.5t-139.5 -106.5q72 91 72 194q0 120 -84 205t-204 85q-7 0 -82 -11q84 86 203 86q118 0 204 -85t86 -203zM2026 -363h-1944v670h306v375h719v-461h332v670h587v-1254zM322 801
q-19 -6 -55 -19v-7q0 -8 1 -25.5t1 -25.5q-12 16 -36 49q-19 -5 -57 -18q36 35 36 46q0 3 -36 51q38 -19 53 -19q10 0 40 51q0 -10 -1.5 -30.5t-1.5 -30.5q31 -14 56 -22zM1908 478v121h-70v-121h70zM1568 679v125h-70v-125h70zM1908 273v121h-70v-121h70zM1683 478v121h-70
v-121h70zM1793 273v121h-66v-121h66zM1908 64v129h-70v-129h70zM1683 273v121h-70v-121h70zM1908 -122v125h-70v-125h70zM1793 -122v125h-66v-125h66zM1568 64v129h-70v-129h70zM1055 431v148h-101v-148h101zM1793 -327v125h-66v-125h66zM1568 -122v125h-70v-125h70z
M1683 -327v125h-70v-125h70zM1568 -327v125h-70v-125h70zM720 431v148h-101v-148h101zM550 431v148h-101v-148h101zM1055 -291v148h-101v-148h101zM550 190v149h-101v-149h101zM720 -51v149h-101v-149h101zM886 -291v148h-102v-148h102zM550 -51v149h-101v-149h101z
M720 -291v148h-101v-148h101z" />
  </g>

</svg>
