<?xml version="1.0" standalone="no"?>
<!DOCTYPE svg PUBLIC "-//W3C//DTD SVG 1.1//EN" "http://www.w3.org/Graphics/SVG/1.1/DTD/svg11.dtd" >
<svg viewBox="0 -442 2048 2048">
  <g transform="matrix(1 0 0 -1 0 1606)">
   <path fill="currentColor"
d="M2048 582q0 -424 -300 -724t-724 -300t-724 300t-300 724t300 724t724 300t724 -300t300 -724zM1562 1396v6h-14v-6h14zM926 1529l-3 4l-12 -8l3 -4zM948 1477l-5 4l-3 -3l4 -4zM707 1440q-1 9 -4 9t-8 -5q4 -4 11 -4h1zM953 1090v6h-21v-6h21zM870 1095v17q0 17 -25 20
q14 -27 13 -33q4 -2 12 -4zM568 1391l-2 5l-8 -4v-5zM839 1157q-31 21 -32 21q-8 0 -33 -14t-31 -21h20q4 0 9.5 4.5t8.5 4.5q5 0 13.5 -5t13.5 -5q14 0 31 15zM896 1063q0 4 -4 9q-3 -1 -18 -15q8 1 22 6zM450 1309l-3 3l-11 -11l3 -3zM433 1229q-3 9 -8 9q2 -4 8 -9z
M2023 582q0 51 -4 94q-2 -20 -14 -82q-17 16 -23 34q-10 25 -15 33q-8 7 -20 23q-6 38 -25 112q-1 2 -20 42q-12 27 -12 44q0 7 4 13l-8 6q-6 42 -24 125q-11 16 -27 51q-13 40 -15 45q-12 26 -32 31q-25 29 -77 86l-1 5l1 3q9 7 9 16q0 12 -66 53q-7 19 -28 40l-2 -5l2 -10
q-5 2 -21 19q-8 0 -14 -13q-28 19 -31 22q-18 14 -20 30l-8 7q-34 4 -67 59q-27 18 -74 36q-61 23 -77 31l1 6q-141 43 -291 43q-414 0 -706.5 -292.5t-292.5 -706.5t292.5 -706.5t706.5 -292.5q26 0 60 2v11l12 14q5 14 15 41q12 9 30 35q29 84 29 130q0 7 -2 20t-2 18
q-16 17 -46 23q-33 7 -44 15q-2 1 -8 10t-11 9q-5 -1 -3 -3l-3 -1q-42 43 -122 151q-4 5 -4 15q0 11 19 25q-1 3 -12 15q-7 9 -7 18q0 4 19 49q1 1 3 1t4 -2l-1 -3l2 -4l18 12q-2 5 -10 5q2 5 22 30q13 17 13 33q0 20 -14 62q-5 4 -14 12q-5 22 -20 22q-22 0 -22 -18
q0 -3 3 -7t3 -6q-3 -4 -11 -4q-9 0 -23 22q-6 -7 -12 -7q-19 0 -29 11q-18 18 -23 21q-11 4 -32 15q2 4 2 7q0 11 -17 30q-20 21 -23 29q-3 0 -8.5 -2t-8.5 -2q-23 0 -63 20q-8 4 -33 31q-22 23 -35 23q-6 0 -18 -3.5t-18 -3.5q-26 0 -113 62q-24 17 -38 48q4 10 4 25
q0 41 -46 99q0 4 1 11t1 11q-3 5 -21 42q6 2 6 6l-8 3l-3 -2q0 3 1 11v10q0 -2 -4 29q-2 4 -8 12h-8q-2 -4 -2 -13q0 -21 11 -61.5t11 -62t13 -30.5v-10l-4 -8q-12 19 -27 36q0 5 1 13.5t1 12.5q0 2 -25 38q12 21 12 17q0 6 -6 16t-6 16v79q0 4 -11.5 14t-11.5 19
q0 77 14 111q9 21 39 74q35 61 43 61q5 -1 4.5 -1.5t1.5 -1.5q10 0 10 13q0 6 -5 5q-1 11 -7 18h-4q16 26 26 52q-4 3 -13 3q2 1 6 2q5 0 11 -3q1 1 1 4q0 7 -5 13q19 35 48 78q16 14 70 52q60 41 68 41q3 0 5 -3t5 -3q6 0 18.5 3t18.5 3t18.5 -6.5t17.5 -6.5q8 0 18 17
q-7 1 -19 4q34 27 51 27q4 0 13.5 -9.5t13.5 -9.5q5 0 12.5 4t12.5 4t8 -4q-18 -3 -18 -16q0 -4 6 -9q-13 -5 -36 -16q7 -8 16 -8q12 0 27 10q2 -1 10 -10q14 6 17 18q10 -1 15.5 6t1.5 17q8 3 22 12q-4 9 -19 11.5t-19 7.5q11 2 32 9l-4 -3q5 -11 10 -11q-9 0 12 3
q0 -9 9 -22q6 0 11 5q-1 6 -13 6q13 4 29 4q-5 4 -16 12l22 4q-4 3 -19 6l3 3l-7 3q9 0 17 4q-2 5 -10 5q8 9 13 9t5 -7q3 4 48 16l14 -4q-24 -19 -51 -48l61 -29q-7 0 -12 5l-5 -6q0 -7 10 -7q3 0 4 1.5t4 1.5q1 0 7 -9q8 5 10 12l7 -9l-6 -11q2 -1 5 -1q2 0 7 1t7 1
q8 0 12 -13q16 10 10 10q4 0 19 -8l-4 -8l-7 6l-5 -5q4 -3 10 -10q-12 3 -36 6q0 -8 12.5 -10.5t16.5 -7.5q1 -2 7 -20q-6 0 -11 6l-8 -5q3 -2 6 -7q-12 1 -43 10q-27 8 -43 8q-13 0 -18 -3q-4 2 -11 7q1 12 13 12q2 0 5 -1.5t5 -1.5q-1 0 22 24q-32 24 -43 24
q-31 0 -24 -31q-11 -5 -32 -16q9 -9 30 -22q-3 0 -10 1t-10 1q-4 0 -9.5 -5t-9.5 -5q-3 0 -8 2t-8 2q4 6 10 19q-29 -16 -58 -33q-39 -24 -42 -45q4 -4 13 -3v-19q15 -2 41 -10q5 -6 18 -14q10 -4 42 -4l6 -8q-3 -9 -3 -18t9.5 -22t17.5 -13q18 0 18 18q0 6 -4 18t-4 18
q31 22 31 31q0 5 -9.5 15t-9.5 15q0 4 2.5 10.5t2.5 10.5q0 2 -1 6.5t-1 6.5q0 1 1 7q21 7 31 7q-20 0 57 -13q0 -9 1 -16q21 -16 25 -16q14 0 21 26q20 -12 49 -33q1 -5 7 -14.5t50 -17.5q11 -5 29 -16q7 -11 20 -32q2 -27 17 -27q2 0 5.5 1.5t5.5 1.5q14 0 38 -33v-15h-10
q-3 0 -6 4.5t-6 4.5q-8 0 -11 -4q1 1 1 3q0 4 -10 5q-3 0 -8.5 -3t-8.5 -3h-29q6 30 6 58l-3 2q-9 0 -18.5 -10t-14.5 -12q-15 -1 -44 -7q10 -3 29 -12h-21q-5 0 -11.5 7.5t-10.5 7.5q-7 0 -28 -12.5t-22 -18.5l2 -4q32 19 46 19q-3 0 12 -3q-1 3 -1 -25q0 -17 16 -23l2 6
q6 -1 11 -6l3 7l9 -5l-7 -3l3 -2q17 0 19 5q4 9 7 17q2 -1 15 -14q-7 -16 -30 -30q-36 -21 -38 -22q-7 1 -15 8q4 5 11 16q10 2 18 8q-2 6 -9 6q-4 0 -41 -23.5t-39.5 -28t-2.5 -14.5q0 -6 16 -16q-61 -9 -69 -48q-2 -4 -9 -10l-2 2l-3 -2q0 -10 -7 -29q-4 14 -11 16l-2 -5
q8 -22 19 -59q-32 -22 -65 -45q-40 -31 -40 -61q0 -14 14.5 -44.5t14.5 -44.5q0 -32 -14 -32q-18 0 -39 49q-6 13 -2 35q-20 25 -25 25q-4 0 -10.5 -5t-10.5 -5t-12 8t-13 8q-8 0 -25 -1.5t-25 -1.5q-1 -5 -1 -11q0 -10 5 -14q12 -1 -25 -1q-9 0 -27 6.5t-27 6.5q3 0 -24 -4
q-13 -17 -37 -23q-8 -3 -18 -61l-8 -10q0 -9 -3.5 -27t-3.5 -28q0 -22 19 -57q21 -39 40 -39q6 0 17 5t17 5q3 0 4.5 -1.5t4.5 -1.5q28 0 33 46q7 12 33 16q20 2 39 5q4 -3 4 -10q0 -5 -5.5 -11.5t-6.5 -9.5q-1 -18 -16 -54q-1 -24 -10 -41q10 -5 19 -5q7 0 21.5 3t21.5 3
q52 0 52 -28q0 -11 -7 -31q-2 -19 2 -57q2 -6 11 -13t9 -19l4 -5q11 0 33 6.5t33 6.5q2 0 9 -10l3 6h21q15 -15 20 -15q20 0 30 30t18 30q5 -1 4.5 -1.5t1.5 -1.5q3 0 7 5t7 5t4 -2t4 -2q9 0 36 32l12 -3v-12q-5 -1 -13 -6q1 -7 3 -20l-4 3l-2 -5q1 -6 5 -6v-13q0 -5 1 -8
l11 -3q7 5 7 10q0 3 -4 8.5t-4 8.5q0 10 12 16.5t11 23.5q16 -9 33 -17.5t36 -8.5q-2 -12 -2 -8q0 -1 1 -4q6 0 8 3l-3 5q4 1 38 1q16 0 21 23q1 -10 11 -10q2 0 6.5 1.5t6.5 1.5q5 0 12 -8t12 -8q5 1 3 3h3q5 0 13.5 -11t13.5 -11q7 0 9 3l3 -10q-1 -2 -3 -5q2 0 6 -1
q3 0 4 3.5t4 3.5q7 0 21 -17.5t38 -17.5q10 0 29.5 4.5t29.5 4.5q8 0 26.5 -12.5t22 -21t14 -24.5t10.5 -12q0 -7 -16 -21l5 -11q13 6 42 6q37 0 54 -7q2 -1 7 -6.5t9 -5.5q11 0 31 9.5t31 9.5q10 0 38 -22q5 0 18 6q8 -12 8 -28q0 -32 -53 -114q-6 -7 -17 -23
q-2 -14 -8 -41q-19 -63 -58 -103q-43 -27 -122 -89q-3 -12 -15 -32q-111 -110 -156 -99q0 -1 -1 -3q0 -3 5 -12q-17 -15 -50 -26q-36 -12 -49 -22q-32 -15 -65 -41q-17 -10 -28 -15q365 56 606 337t241 651zM979 201l-1 4l-8 -4v-4zM1850 972h-9v6h9v-6zM1375 1466
q0 -11 -8 -11q-18 0 -56 25q5 0 14.5 3.5t14.5 3.5q35 0 35 -21zM1269 1391q-5 -1 -9 -1q-14 0 -18 11q-5 -6 -16 -6q-12 0 -39 16t-27 26l2 1q-1 1 -4 1t-4 -1.5t-4 -1.5q-4 0 -9 8t-9 8q-7 0 -9 -3q-1 1 -1 2q-4 7 -2 24q-4 3 -25 3q-16 22 -20 22q-5 -1 -3 -3h-4
q-4 0 -20.5 11t-31.5 11q-4 0 -12 -1.5t-12 -1.5t-26 11q30 29 38 33q13 7 48 7h31q88 -21 106 -27q21 -11 64 -28q-3 -3 -9 -7q4 -4 13 -9q-8 -9 -8 -22q0 -9 4 -14q-7 -2 -19 -10q25 -38 35 -59zM959 1452q0 -6 -7 -13q-6 0 -11 5l7 8h11zM881 1528q0 -4 -2 -11
q-7 -2 -21 -7q1 6 23 18zM864 1524l-15 4v5l15 -4v-5zM839 1492q-4 -4 -4 -14q-6 -2 -11 -2h-8q-6 0 -12 2q2 4 17 19zM824 1528q-9 -11 -8 -21q-27 -10 -35 -10h-12q-2 6 -7 18q5 0 13.5 3.5t13.5 3.5q-3 0 10 -13q7 8 25 19zM809 1451h-11v5h11v-5zM465 1382q-17 0 -31 -9
q17 18 26 18q4 0 5 -9zM1218 583q-6 -12 -16 -12q-12 0 -12 12h28zM1336 419q-2 -2 -8 -4q-4 7 -4 12q12 0 12 -8zM951 744l-2 -5l-11 4v5zM1164 583q-2 -3 -4 -11q-3 0 -10 1t-10 1q-6 0 -20 -8t-20 -8q6 0 -60 8q11 3 27 14v1q0 -2 -6 21h30q38 0 73 -19zM409 1275
l-11 -18l-4 2l10 18zM1036 608q-8 -11 -30 -11q-29 0 -35 -3l-2 4l4 7q-19 20 -47 25q-36 6 -47 12q-17 9 -15 9q-13 0 -33 -19h-11q13 32 65 32q21 0 33 -4q1 -9 -3 -11q-3 1 23 1q32 -15 98 -42zM995 553q-14 -7 -19 -7q8 0 -16 7q0 3 -1 8v4q14 -1 36 -12zM1114 396h-5v9
h5v-9zM704 155l-9 3l5 8zM1232 1416l-24 37q7 7 21 18q0 12 2 19q-19 19 -69.5 38t-78.5 19h-42q-22 0 -34 -9l9 1q22 0 51 -21q3 1 8 2q17 0 31 -22q16 0 36 -13l-2 -14q9 -3 15 -12l12 -2l-1 1l12 -17l1 1q20 -27 48 -28z" />
  </g>

</svg>
