<?xml version="1.0" standalone="no"?>
<!DOCTYPE svg PUBLIC "-//W3C//DTD SVG 1.1//EN" "http://www.w3.org/Graphics/SVG/1.1/DTD/svg11.dtd" >
<svg viewBox="0 -442 2048 2048">
  <g transform="matrix(1 0 0 -1 0 1606)">
   <path fill="currentColor"
d="M1994 1160q-42 0 -42 48q0 15 11 31.5t25 16.5h3zM1960 1125q0 -43 -45 -43q-48 0 -48 45q0 44 48 44q45 0 45 -46zM1879 1210q0 -50 -51 -50q-50 0 -50 48q0 49 50 49q51 0 51 -47zM1797 1291q0 -54 -56 -54t-56 54q0 51 56 51t56 -51zM1994 1001q-34 11 -34 44
q0 26 34 37v-81zM1952 960q0 -33 -35 -33h-8q-19 0 -30 16v34q16 16 28 16q45 0 45 -33zM1871 1043q0 -42 -43 -42q-42 0 -42 44q0 37 40 37q45 0 45 -39zM1789 1125q0 -43 -50 -43q-47 0 -47 45q0 44 49 44q48 0 48 -46zM1704 1208q0 -48 -52 -48q-53 0 -53 48q0 49 55 49
q50 0 50 -49zM1623 1293q0 -56 -59 -56q-22 0 -40 17t-18 39q0 20 19 34.5t39 14.5q59 0 59 -49zM1778 962q0 -35 -39 -35q-35 0 -35 33t35 33q39 0 39 -31zM1696 1043q0 -42 -42 -42q-43 0 -43 42q0 39 41 39q44 0 44 -39zM1611 1125q0 -43 -47 -43q-46 0 -46 45
q0 44 48 44q45 0 45 -46zM1526 1208q0 -48 -49 -48q-52 0 -52 50q0 47 54 47q47 0 47 -49zM1444 1291q0 -54 -54 -54q-21 0 -39.5 16.5t-18.5 37.5q0 51 58 51q54 0 54 -51zM1599 960q0 -33 -31 -33q-42 0 -42 35q0 31 40 31q33 0 33 -33zM1518 1045q0 -44 -41 -44
q-44 0 -44 44q0 37 44 37q41 0 41 -37zM1437 1127q0 -45 -47 -45t-47 43q0 46 49 46q45 0 45 -44zM1351 1208q0 -48 -48 -48q-53 0 -53 48q0 49 55 49q46 0 46 -49zM1270 1291q0 -54 -55 -54q-54 0 -54 56q0 49 53 49q56 0 56 -51zM1994 1319q-48 -3 -48 50q0 19 8 38
q-3 1 -6 1q-5 0 -16 -6t-17 -6q3 0 -33 12q0 -4 1 -17v-16q0 -27 -8 -38q7 0 20 2.5t20 2.5q53 0 53 -49q0 -56 -55 -56q-50 0 -50 50q0 6 1.5 16.5t1.5 16.5q-1 4 -3 6q-6 0 -17.5 -3.5t-17.5 -3.5q-18 0 -37.5 13.5t-19.5 30.5q0 30 8 44q-2 1 -5 1q-5 0 -16.5 -6
t-16.5 -6q6 0 -30 12q0 1 0 -37q0 -52 -57 -52q-62 0 -62 61q0 4 2 13.5t2 14.5q-21 -12 -30 -12q2 0 -34 12q-3 -3 -3 -5q0 -5 3.5 -15.5t3.5 -16.5q0 -52 -61 -52q-59 0 -57 62v6l9 20q-3 1 -6 1q-5 0 -14.5 -6t-14.5 -6q1 0 -35 12q-3 -3 -2 -4q6 -25 6 -32
q0 -53 -60 -53q-58 0 -58 57q0 5 2 16t2 16q-19 -8 -32 -8q-8 0 -32 8q-3 -3 -3 -5q0 -5 2.5 -15t2.5 -15q0 -54 -59 -54q-57 0 -57 48q0 19 9 40q-3 1 -6 1q-6 0 -16.5 -4t-16.5 -4q-10 0 -34 8q-1 -3 -1 -6q0 -5 3 -14t3 -13q0 -56 -60 -56q-63 0 -56 89q-21 -12 -30 -12
q3 0 -33 12q1 -13 1 -24q0 -65 -57 -65q-62 0 -55 89q-21 -12 -30 -12q2 0 -34 12q-1 -3 -1 -6q0 -5 3 -13.5t3 -13.5q0 -56 -62 -56q-55 0 -55 54q0 15 3 32l3 2q-2 1 -5 1q-5 0 -16 -4t-17 -4q-7 0 -31 8q-3 -3 -2 -4q6 -24 6 -31q0 -54 -61 -54q-55 0 -55 51q0 15 4 35
l2 2q-2 1 -5 1q-5 0 -16 -4t-17 -4t-30 8q-3 -3 -3 -5q0 -5 2.5 -15t2.5 -15q0 -54 -59 -54q-58 0 -58 58q0 5 1.5 11t7.5 19q-2 1 -5 1q-6 0 -16.5 -6t-16.5 -6t-30 8v-8q2 -73 -49 -77v112q9 -8 26 -8v60q-2 2 -7 2t-19 -3v61h53q0 -7 -8 -31q20 -1 60 -4q1 4 1 10
q0 4 -1 12.5t-1 12.5h127q0 -13 -7 -32q7 -2 16 -2q7 0 22.5 1t23.5 1q-1 1 -7 32h127q0 -7 -8 -31q8 -2 20 -2h21q15 1 22 1q-2 2 -8 32h127q0 -10 -7 -31q8 -2 19 -2h22q14 1 21 1q-1 1 -7 32h127q0 -7 -8 -31q8 -2 20 -2h21q15 1 22 1q-2 2 -8 32h127q0 -10 -7 -31
q20 -1 59 -4v35h127q0 -11 -8 -32q19 0 56 -3q5 13 3 35h123q0 -10 -7 -31q8 -2 19 -2h22q14 1 21 1q-1 1 -7 32h131q-3 -11 -12 -32q7 -2 16 -2q8 0 23.5 1t23.5 1q-2 2 -8 32h131q-4 -12 -4 -38q5 2 14 6h4q6 0 17 -1t17 -1q1 1 1 2l-2.5 11.5t-2.5 20.5h127q0 -11 -8 -32
q20 0 60 -3q1 4 1 10q0 4 -1 12.5t-1 12.5h53v-61q-4 0 -11.5 2t-11.5 2v-63q7 3 19 8zM1425 962q0 -35 -35 -35q-39 0 -39 33t41 33q33 0 33 -31zM1343 1045q0 -44 -40 -44q-45 0 -45 44q0 37 43 37q42 0 42 -37zM1262 1127q0 -45 -47 -45q-50 0 -50 45q0 44 50 44
q47 0 47 -44zM1177 1210q0 -50 -49 -50q-52 0 -52 50q0 47 52 47q49 0 49 -47zM1095 1291q0 -54 -54 -54q-58 0 -58 54q0 51 54 51q58 0 58 -51zM1413 797q0 -25 -21 -25q-25 0 -25 25q0 21 25 21q21 0 21 -21zM1332 862q-8 -17 -29 -17q-33 0 -33 33q0 30 33 30
q15 0 29 -13v-33zM1250 958q0 -31 -35 -31q-38 0 -38 33t38 33q35 0 35 -35zM1169 1045q0 -44 -41 -44q-44 0 -44 44q0 37 44 37q41 0 41 -37zM1087 1127q0 -45 -48 -45t-48 43q0 46 50 46q46 0 46 -44zM1002 1210q0 -50 -50 -50q-51 0 -51 48q0 49 51 49q50 0 50 -47z
M917 1291q0 -54 -54 -54q-55 0 -55 54q0 51 55 51q54 0 54 -51zM1318 711q0 -7 -3 -13h-21q-3 5 -9 14q3 5 9 13h21q3 -6 3 -14zM1238 785q-6 -13 -23 -13q-10 0 -23 12v22q13 12 23 12q4 0 11.5 -2t11.5 -2v-29zM1161 880q0 -35 -35 -35q-31 0 -31 33q0 30 33 30t33 -28z
M1076 960q0 -33 -33 -33h-11q-18 0 -30 16v34q16 16 28 16q46 0 46 -33zM991 1043q0 -42 -41 -42t-41 42q0 39 41 39t41 -39zM909 1127q0 -45 -46 -45q-47 0 -47 45q0 44 47 44q46 0 46 -44zM824 1208q0 -48 -49 -48q-52 0 -52 48q0 49 54 49q47 0 47 -49zM742 1291
q0 -54 -54 -54t-54 54q0 51 54 51t54 -51zM1141 720l-4 -22h-17q-3 5 -9 14q3 5 9 13zM1064 797q0 -25 -23 -25q-27 0 -27 25q0 21 27 21q23 0 23 -21zM983 878q0 -33 -31 -33q-35 0 -35 33q0 30 33 30t33 -30zM897 960q0 -33 -33 -33q-40 0 -40 33t39 33q34 0 34 -33z
M816 1043q0 -42 -41 -42q-40 0 -40 42q0 39 40 39q41 0 41 -39zM735 1125q0 -43 -47 -43q-46 0 -46 45q0 44 46 44q47 0 47 -46zM649 1208q0 -48 -48 -48q-53 0 -53 50q0 47 55 47q46 0 46 -49zM568 1291q0 -54 -54 -54q-21 0 -40 16.5t-19 37.5q0 51 59 51q54 0 54 -51z
M963 720l-4 -22l-22 5l4 22zM886 797q0 -25 -23 -25q-24 0 -24 25q0 21 25 21q22 0 22 -21zM808 880q0 -35 -31 -35q-35 0 -35 33q0 30 33 30t33 -28zM723 960q0 -33 -33 -33q-41 0 -41 35q0 31 39 31q35 0 35 -33zM642 1045q0 -44 -41 -44t-41 42q0 39 41 39t41 -37z
M560 1127q0 -45 -46 -45q-47 0 -47 45q0 44 47 44q46 0 46 -44zM475 1208q0 -48 -49 -48q-52 0 -52 48q0 49 54 49q47 0 47 -49zM393 1291q0 -54 -54 -54q-58 0 -58 56q0 20 18.5 34.5t39.5 14.5q54 0 54 -51zM789 720l-5 -22l-22 5l4 22zM711 797q0 -25 -23 -25t-23 25
q0 21 25 21q21 0 21 -21zM630 878q0 -33 -27 -33q-35 0 -35 33q0 30 33 30q29 0 29 -30zM548 958q0 -31 -33 -31q-40 0 -40 33t39 33q34 0 34 -35zM467 1045q0 -44 -41 -44q-44 0 -44 44q0 37 44 37q41 0 41 -37zM386 1127q0 -45 -47 -45t-47 45q0 44 47 44t47 -44z
M300 1210q0 -50 -48 -50q-53 0 -53 50q0 47 53 47q48 0 48 -47zM219 1291q0 -54 -54 -54q-22 0 -40.5 16t-18.5 38q0 51 59 51q54 0 54 -51zM126 1210q0 -25 -18 -41q-2 -2 -11.5 -2t-9.5 -5v93q0 -3 13 -3q2 0 6 -1q20 -14 20 -41zM614 720l-4 -22l-22 5l4 22zM1994 -368
h-1910v658h300v369h707v-453h326v658h24q4 15 9 31q4 13 27 13q41 0 29 -41q2 -3 20 -2h94q4 14 8 28.5t24 14.5q29 0 29 -42h114q3 0 3 17q0 25 30 25q42 0 31 -41q2 -3 19 -2h91q3 11 6 24t19 14v-1271zM537 797q0 -25 -23 -25q-11 0 -24 12v22q13 12 25 12q22 0 22 -21z
M455 862q-8 -17 -29 -17q-33 0 -33 33q0 30 33 30q15 0 29 -13v-33zM374 958q0 -31 -35 -31q-39 0 -39 33t39 33q35 0 35 -35zM292 1045q0 -44 -40 -44q-45 0 -45 44q0 37 45 37q40 0 40 -37zM211 1127q0 -45 -46 -45q-51 0 -51 47q0 42 51 42q46 0 46 -44zM114 1043
q0 -39 -30 -42v81q30 -12 30 -39zM440 720l-5 -22l-22 5l4 22zM362 795q0 -23 -23 -23q-10 0 -23 12v22q13 12 23 12q23 0 23 -23zM281 862q-8 -17 -29 -17q-33 0 -33 33q0 30 33 30q15 0 29 -13v-33zM199 960q0 -33 -34 -33q-39 0 -39 33t39 33q34 0 34 -33zM106 877
q0 -7 -8 -23q-5 -2 -14 -4v53q22 -11 22 -26zM265 720l-4 -22h-18q-3 5 -9 14q3 5 9 13zM188 795q0 -23 -23 -23q-11 0 -24 12v22q13 12 24 12q23 0 23 -23zM88 703h-6v18h6v-18zM1863 1424q-6 15 -6 32q0 4 2 29q-14 -3 -26 -3h-9q-12 0 -26 3v-57q4 0 12.5 1.5t13.5 1.5
q20 0 39 -7zM1684 1424l-4 61q-14 -3 -26 -3h-8q-12 0 -23 3q4 -19 4 -31q0 -17 -8 -30q20 7 33 7q19 0 32 -7zM1510 1426q-1 20 -5 59q-14 -3 -27 -3h-7q-12 0 -26 3v-61q20 7 34 7q18 0 31 -5zM1335 1426l-3 51l-1 8q-14 -3 -27 -3h-7q-13 0 -27 3q6 -19 6 -28
q0 -5 -2.5 -16t-2.5 -17q21 7 32 7q16 0 32 -5zM1160 1424l-3 61q-14 -3 -26 -3h-9q-12 0 -26 3q6 -19 6 -28q0 -5 -3 -16t-3 -17q21 7 32 7q19 0 32 -7zM982 1424l-4 61q-14 -3 -26 -3h-9q-12 0 -26 3q6 -10 6 -25q0 -4 -5 -36q21 7 32 7q19 0 32 -7zM1878 458v119h-69
v-119h69zM807 1424l-3 61q-14 -3 -26 -3h-9q-12 0 -26 3q6 -10 6 -23q0 -2 -6 -38q21 7 32 7q19 0 32 -7zM1545 656v123h-69v-123h69zM1878 257v119h-69v-119h69zM1657 458v119h-69v-119h69zM633 1426l-3 51l-1 8q-14 -3 -27 -3h-7q-13 0 -27 3q7 -20 7 -30q0 -5 -3 -15
t-3 -16q21 7 32 7q16 0 32 -5zM1766 257v119h-65v-119h65zM1878 51v127h-69v-127h69zM1657 257v119h-69v-119h69zM459 1426l-3 51l-1 8q-14 -3 -27 -3h-7q-13 0 -27 3q6 -19 6 -28q0 -5 -3 -16t-3 -17q21 7 32 7q17 0 33 -5zM1878 -131v123h-69v-123h69zM284 1424
q-7 12 -7 29q0 7 3 32q-14 -3 -26 -3h-9q-12 0 -26 3q6 -19 6 -28q0 -5 -2.5 -15.5t-2.5 -15.5v-2q21 7 32 7q19 0 32 -7zM1766 -131v123h-65v-123h65zM1545 51v127h-69v-127h69zM1040 412v146h-99v-146h99zM1766 -333v123h-65v-123h65zM1545 -131v123h-69v-123h69z
M1657 -333v123h-69v-123h69zM1545 -333v123h-69v-123h69zM711 412v146h-100v-146h100zM544 412v146h-100v-146h100zM1040 -298v146h-99v-146h99zM544 175v146h-100v-146h100zM711 -61v146h-100v-146h100zM874 -298v146h-100v-146h100zM544 -61v146h-100v-146h100zM711 -298
v146h-100v-146h100z" />
  </g>

</svg>
