<?xml version="1.0" standalone="no"?>
<!DOCTYPE svg PUBLIC "-//W3C//DTD SVG 1.1//EN" "http://www.w3.org/Graphics/SVG/1.1/DTD/svg11.dtd" >
<svg viewBox="0 -442 2048 2048">
  <g transform="matrix(1 0 0 -1 0 1606)">
   <path fill="currentColor"
d="M1314 1532l-153 -351q44 204 100 351h53zM1206 1532q-119 -283 -133 -606q-10 101 -10 138v468h143zM976 1162q-55 246 -117 370h53zM1986 -287q-37 15 -94 67q-76 68 -90 78q-29 15 -85 49q2 22 2 44q0 98 -37 129q-15 2 -15 -14q0 -20 2.5 -59t2.5 -57l-136 134
q-77 81 -115 151q-30 36 -86 112q-50 76 -70 124q-16 52 -48 154l-48 21q6 0 23 3q14 3 22 3q98 0 197 -142q76 -110 115 -234h10q6 10 6 29q0 150 -82 266q-92 129 -237 131h-14q-19 0 -38 -3q144 88 273 88q207 0 299 -185q58 -117 83 -368q2 18 2 46q0 258 -66 384
q-92 173 -328 173q-180 0 -320 -127q105 254 308 254q27 0 69 -11q46 -12 67 -13q-79 63 -172 63q-108 0 -229 -100q39 118 135.5 186.5t220.5 68.5q126 0 204 -81q59 -61 110 -198q2 2 2 4q0 64 -27 121q-95 200 -300 200q-242 0 -360 -236q65 255 216 564h628v-1819z
M919 1173q-71 168 -223 359h111q79 -113 112 -359zM923 1003q-150 267 -153 272q-91 153 -178 257h44q17 0 72 -74q94 -126 215 -455zM804 1081q-159 84 -272 84q-227 0 -449 -278v645h450q156 -188 271 -451zM932 649q-29 -7 -73 -35q-7 -32 -26 -85q-32 -64 -97 -152v2
q-1 12 14 62q62 222 153 222q6 0 29 -14zM1986 -372h-1058l74 320q35 -9 91 -36q10 -30 33 -77q10 -15 85 -80q24 56 31 145q5 74 11 148q48 -15 138 -63q7 -5 68 -70q49 -51 152 -144q37 -28 146 -73q114 -47 152 -47q-3 0 77 26v-49zM920 741q-5 1 -54 19q-32 11 -56 11
q-173 0 -233 -183q-1 -1 -1 -3q0 -3 2 -7q24 46 96.5 90.5t124.5 44.5h55q-106 -96 -148 -298q-7 -34 -23 -102q-10 -36 -54 -77q-68 -64 -71 -67q17 109 49 221q11 31 28 90v9h-3q-113 -168 -124 -303q1 -23 -7 -67q-6 -16 -57 -57q-58 -48 -104 -94q-40 -44 -128 -123
q-23 -17 -63 -31q-60 -21 -67 -24v1026q207 295 456 295q90 0 207 -57q41 -19 96 -57q0 -1 21 -59q-84 34 -156 34q-115 0 -217 -71q-110 -77 -123 -186q-1 -6 -6 -29q-4 -19 -4 -29l2 -52q10 27 20 68q26 104 132 180q103 73 213 73q121 0 161 -63q3 -4 36 -122zM857 2
l-26 -374h-749v91q211 75 360 180q40 28 87 86q73 88 79 94h65l-116 -294q21 -15 46 -22zM1948 167q0 69 -13 104q-5 12 -25 17q0 -13 -4 -39.5t-4 -39.5v-104q0 -15 -10 -46.5t-10 -46.5q0 -17 18 -17q48 34 48 172zM1677 327q0 154 -77 266q-8 12 -24 20q-11 -1 -11 -16
q0 10 34 -64q23 -49 34 -139l18 -144l22 4q4 31 4 73zM356 906q-197 -82 -197 -307q0 -20 6 -36q25 197 191 343zM502 671q-66 -73 -86.5 -127.5t-20.5 -152.5q0 -68 9 -172q20 161 33 230q24 126 65 222z" />
  </g>

</svg>
