<?xml version="1.0" standalone="no"?>
<!DOCTYPE svg PUBLIC "-//W3C//DTD SVG 1.1//EN" "http://www.w3.org/Graphics/SVG/1.1/DTD/svg11.dtd" >
<svg viewBox="0 -442 2048 2048">
  <g transform="matrix(1 0 0 -1 0 1606)">
   <path fill="currentColor"
d="M1770 773l-716 -430q-423 -256 -707 -444q-11 -7 -73 -67l-163 -159l-29 29q66 68 131 136q80 85 118 146l843 1363q19 -110 28 -131q28 -65 104 -65q31 0 71 11q-21 -61 -21 -90q0 -34 17 -63q81 79 161 158q126 128 126 161q0 9 -21.5 35t-31.5 33q-17 13 -45 13
q-30 0 -84 -85l-53 37q19 28 63 77q49 44 84 44q60 0 95 -17q20 -10 43 -57t23 -72q0 -75 -123 -200q-91 -89 -181 -179q26 -6 48 -6q47 0 121 34q-23 -64 -23 -98q0 -115 162 -115q16 0 33 1z" />
  </g>

</svg>
