<?xml version="1.0" standalone="no"?>
<!DOCTYPE svg PUBLIC "-//W3C//DTD SVG 1.1//EN" "http://www.w3.org/Graphics/SVG/1.1/DTD/svg11.dtd" >
<svg viewBox="0 -442 2048 2048">
  <g transform="matrix(1 0 0 -1 0 1606)">
   <path fill="currentColor"
d="M2022 -44h-30v118q10 -4 30 -13v-105zM1684 -44h-86v635q0 6 10 32q11 30 12 36q11 49 19 132q5 -44 18 -116q2 -10 14.5 -43.5t12.5 -39.5v-636zM1948 -44h-86v244l37 -54q21 -31 49 -46v-144zM1816 -44h-84v472l84 -159v-313zM2022 149q-45 36 -124 115q-15 28 -46 82
q-23 36 -83 194q-66 174 -108 578h-41q-5 -72 -20 -215q-54 -410 -217 -639q-53 -74 -137 -134q-23 -16 -98 -54q-82 -42 -98 -42q-15 0 -96 42q-75 39 -96 54q-69 50 -137 138q-112 146 -178 426q-17 74 -55 424h-45q-4 -67 -17 -200q-17 -130 -39 -224q-10 -29 -29 -87
q-49 -151 -59 -175q-35 -89 -90 -164q-45 -43 -127 -123v1417h1940v-1413zM1549 -44h-84v313l84 159v-472zM2022 -374h-326v219h326v-219zM1419 -44h-85v145q29 15 49 45q34 52 36 54v-244zM1290 -44h-90v74l90 44v-118zM1152 -44h-200v51q15 -8 104 -47l96 47v-51zM908 -44
h-90v118l90 -44v-74zM506 -44h-82v643q0 5 10 32.5t12 35.5q15 79 19 120q4 -48 19 -120q2 -7 12 -34.5t10 -32.5v-644zM770 -42h-85v242q11 -9 38 -52q23 -36 47 -43v-147zM640 -44h-83v476l83 -159v-317zM1601 -374h-1094v219h1094v-219zM375 -44h-85v317l85 159v-476z
M246 -44h-85v149q22 5 46 42q31 46 39 53v-244zM112 -44h-30v101q5 5 30 17v-118zM408 -374h-326v219h326v-219zM1853 1383q-15 10 -44 17v48q-26 -35 -32 -35q-1 0 -45 15q12 -14 31 -44q-9 -9 -27 -37q33 11 39 11q9 0 34 -36v52q8 0 22.5 4.5t21.5 4.5zM1977 938
q-15 6 -44 17q-2 36 -2 48q-17 -24 -33 -39q-3 1 -44 15q27 -40 27 -41q0 -2 -27 -40q45 15 43 15q4 0 34 -38q0 30 2 46q24 13 44 17zM1525 1202q-32 9 -89 32q3 26 3 64v28q-18 -27 -57 -79q-43 18 -87 31l58 -76q-34 -40 -58 -76q48 20 87 31q19 -25 57 -77q0 15 -1 45
t-1 45q29 15 88 32zM1054 1391q-53 13 -95 29q3 32 3 67v24q-50 -75 -58 -75q-6 0 -40 14q-40 15 -46 17l59 -76l-59 -76q47 13 88 31q29 -35 57 -75v69q0 -12 -3 18q31 13 94 33zM1338 694q-16 4 -48 13q0 9 1.5 26.5t1.5 25.5q-29 -39 -38 -39q9 0 -43 15q9 -12 31 -45
q-12 -12 -31 -40q44 15 43 15q6 0 38 -40q-4 19 -3 39v17q16 3 48 13zM1093 974q-53 13 -94 28q3 23 2 48v44q-53 -75 -59 -75q-12 0 -84 31q32 -47 58 -76q-20 -26 -58 -80q29 11 87 34q20 -26 57 -78v61q0 5 -1.5 15t-1.5 15q12 5 94 33zM442 1438q-29 6 -46 17
q0 8 1.5 24t1.5 24q-26 -39 -34 -39q12 0 -47 15q13 -15 31 -44q-10 -13 -31 -37l48 15q12 -18 33 -39q-4 29 -3 39v9q13 7 46 16zM345 974q-58 15 -91 28q3 25 3 54v38q-12 -20 -52 -79q-53 20 -92 31q21 -24 59 -76q-35 -41 -59 -76q30 11 88 34q19 -25 56 -76q1 21 1 37
q0 30 -3 52q30 10 90 33z" />
  </g>

</svg>
