<?xml version="1.0" standalone="no"?>
<!DOCTYPE svg PUBLIC "-//W3C//DTD SVG 1.1//EN" "http://www.w3.org/Graphics/SVG/1.1/DTD/svg11.dtd" >
<svg viewBox="0 -442 2048 2048">
  <g transform="matrix(1 0 0 -1 0 1606)">
   <path fill="currentColor"
d="M2048 582q0 -424 -300 -724t-724 -300t-724 300t-300 724t300 724t724 300t724 -300t300 -724zM1405 1506q-29 12 -52 20q4 -7 14 -22q7 0 20 1t18 1zM1946 884q-3 22 -20 56q-5 -3 -5 -8q0 9 25 -48zM1164 1499q-14 2 -41 7q0 -8 4 -12q15 1 37 5zM1491 1128v14
q-20 25 -52 79q-1 0 -40 30q2 11 16 18l-3 18h-23q-17 0 -37 -30q21 -28 70 -70l-6 -6q-1 -12 3 -33q2 -4 24.5 -14t27.5 -10q4 0 10.5 2t9.5 2zM1291 1215q-29 15 -80 54q6 8 19 24h-17q-9 0 -30 -14q7 -4 19 -11q-18 -10 -30 -10q-6 0 -23.5 16t-21.5 16q-6 0 -27.5 -26.5
t-21.5 -32.5t16 -28q-10 -2 -29 -8h31q3 4 8 8l72 17q14 0 39 -9.5t39 -9.5q26 0 37 14zM1040 1499l-22 4q-5 -10 -25 -17.5t-23 -19.5l12 -12q-5 -4 -5 -8q-2 1 -7 1q-9 0 -16 -12q-8 -15 -12 -17q-16 -4 -49 -11q12 -12 21 -12q7 0 20.5 5t20.5 5q3 0 7 -3.5t7 -3.5
q7 0 21 10q23 48 23 44q0 2 -8 12l3 18q17 13 32 17zM2023 582q0 45 -4 90l-1 -9h-6l4 25h1l-2 21l-3 -14q-9 84 -61 188q-14 -6 -14 -21q0 -4 1.5 -12t1.5 -12q0 -17 -9.5 -49.5t-9.5 -49.5q0 -16 6.5 -47.5t6.5 -47.5q0 -4 -17 -51q-17 15 -41 106q-9 16 -22.5 49
t-26.5 97q-6 0 -11 -13h-11l-23 23q1 5 9 13q-18 3 -39 26.5t-22 23.5q-8 0 -23 -5t-23 -5q5 0 -74 10q-3 3 0 13q-18 12 -21 12q-4 0 -11.5 -6.5t-12.5 -6.5q-17 0 -28 14l-3 9l1 1l-5 2q-5 -1 -3 -3h-4q-10 0 -27 19q-11 13 -23 27l-12 5l-14 -15q23 -23 59 -75q5 5 10 6
q7 -19 8 -32q5 -6 18 -6q23 0 30.5 13.5t15.5 28.5q4 -7 12 -20q5 -9 35 -26q25 -14 25 -32q0 -5 -7 -20t-8 -19q0 -10 -2 -29q-14 -14 -38 -44q-14 0 -27 -9q-16 -10 -14 -23q-19 -12 -57 -35q-31 -12 -94 -36q-12 16 -22 59q-10 39 -28 57q-12 12 -15 37q-36 14 -43 39
q-2 9 -6 26q-2 6 -36 44l6 13l-5 2h-4q-2 -1 -3 -3q-2 9 -8 26q-2 2 -15.5 15t-18.5 13q-9 0 -15 -6q-17 12 -33 55v11q12 3 34 13q17 60 17 53q0 3 -5 9q2 4 2 9q0 8 -1 16q-4 9 -15 9q-5 0 -14.5 -6.5t-14.5 -6.5t-17.5 6.5t-17.5 6.5q-4 0 -10.5 -5t-10.5 -5q-9 0 -68 39
v20q5 9 19 16q-24 8 -33 8q-14 0 -19 -13q-6 2 -18 4q12 -24 25 -34q-4 -8 -9 -8q2 0 -10 4q-1 -26 -14 -26q-6 0 -20 26q12 -2 28 -2q-5 3 -34 12q-4 9 -14 23q-4 5 -4 31q-21 12 -61 38q-6 9 -20 25q-14 0 -14 -15q0 -21 77 -69l-5 -9l-19 10l-4 -6q2 -6 5 -19
q-14 -14 -32 -18q-12 -21 -14 -21q-8 0 -36 21q7 8 13 8q2 0 6 -1.5t6 -1.5q-5 0 27 3q4 4 12 11q-2 12 -20 25q-14 9 -28 19q-10 9 -27 35q-8 12 -15 12q-6 0 -23 -10t-23 -10q-5 0 -13.5 3.5t-13.5 3.5q-11 0 -17 -22q-23 -7 -63 -36q-1 -5 -4 -13.5t-23.5 -22.5
t-27.5 -14q-3 0 -9 1.5t-9 1.5q-13 0 -28 -15q15 -14 38 -14q6 0 32 13t32 13q10 0 30 -2t30 -2q12 0 35 5t35 5q2 0 19 -10q-1 -6 -9 -14q6 -6 6 -16q-8 -7 -22 -22l11 -7q5 -11 30 -14q22 -2 22 -10l4 -3q5 1 4.5 2.5t1.5 1.5q-1 0 27.5 -24t47.5 -24q21 0 21.5 25.5
t35.5 25.5q15 0 25 -9.5t20 -19.5q3 3 2 9q3 -1 17 -10q11 -8 16 -8q3 0 5 3t7 3q7 0 18.5 -5t18.5 -5q9 0 27 6.5t27 6.5q6 0 8 -7q0 -34 73 -148q14 -19 36 -59q0 -21 19 -62q12 -5 18 -23q8 -24 12 -29q1 -1 51 -43q35 -29 29 -50q7 -8 21 -25q53 3 130 39q4 -4 4 -16
q0 -18 -40 -111q-4 -16 -19 -45q-13 -16 -102 -99q-62 -60 -83 -114v-3q0 -5 3 -11l-7 -5l8 -11v-34q0 -15 2 -24q12 -15 12 -34q0 -86 -39 -101q-18 -7 -94 -57q0 -6 4 -18t4 -18q0 2 -4 -28q-19 -9 -55 -31q-2 -25 -8 -30q-11 -9 -22 -17q-47 -43 -92 -55q-32 -8 -108 -8
q-43 0 -36 37q-26 24 -68 79q-4 21 -18 60q-19 28 -39 55q-23 35 -23 62q0 20 17.5 47.5t17.5 37.5q0 7 -8 20t-8 19q0 -1 4 15q-9 26 -32 75q-2 4 -36 43q-25 27 -25 46q0 -2 9.5 28.5t9.5 49.5q0 43 -34 43q-5 0 -13.5 -5t-13.5 -5q-11 0 -24 17q-6 16 -13 31
q-5 10 -44 10q-20 0 -48.5 -11.5t-35.5 -11.5q-5 0 -21.5 8t-28.5 8q-7 0 -19.5 -4.5t-19.5 -4.5q-12 0 -39.5 37.5t-32.5 39.5q-2 14 -9 42q-1 4 -11 20q-7 13 -6 20l1 7q-18 14 -18 39q0 48 37 99q1 20 -1 61q6 13 19 38q12 10 33 32q11 19 40 53q21 6 62 46q4 12 18 35
q18 5 75 63v12q-3 3 -28 9q1 13 10 37q6 5 17 16q9 16 27 47q10 4 17 4q10 0 30.5 -3t30.5 -3q9 0 22.5 14.5t13.5 23.5q0 20 -22 30q12 12 22 12q3 0 5 -2t5 -2q5 0 8.5 6.5t7.5 6.5q2 0 5.5 -1.5t5.5 -1.5q16 0 30 14q-4 2 -9 2q13 0 -70 -7q5 3 22 13l-3 12q13 9 41 23
q0 5 -11 10q-4 -1 -7 -9q-10 -9 -27 -22q-4 -3 -39 -11l-8 5q2 2 28 26q15 14 35 14q2 0 6 -1.5t6 -1.5q10 0 14 17.5t14 17.5q6 0 7 -3l6 6h13l8 -11q-19 -7 -19 -21q0 9 3 -23q4 -6 9 -6q-4 -7 -12 -20q2 -5 6 -5q1 0 33.5 16t53.5 17q3 11 13 30q11 4 31 13q0 -1 -1 -16
l12 -6q8 0 8 10q0 8 -12 25q-17 -9 -26 -9h-19q-4 14 -4 11q0 22 51 37q58 17 68 36q46 15 82 15q29 0 79 -16t51 -16q9 0 13 4l-9 8q18 -9 27 -9q-14 0 21 8q-4 -1 18 -1q7 0 13 1q-7 7 -36 13q-25 6 -31 19q3 7 17 14q-92 17 -182 17q-45 0 -90 -4l10 -5q-35 -4 -240 -57
q-61 -16 -145 -55l-2 5q-101 -54 -187 -128l1 -9l-9 -4l-3 4q-334 -298 -334 -746q0 -58 6 -112q3 13 8 24q18 -47 36 -95q10 -35 10 -104q0 -20 -3 -24q-3 10 -15 24q95 -317 360.5 -514.5t596.5 -197.5q414 0 706.5 292.5t292.5 706.5zM1135 309q0 3 -2 7t-2 6
q-31 -1 -31 -24q0 -7 2 -20t2 -19h11q5 7 16 20q0 1 -1 4q0 4 2.5 13t2.5 13zM1041 1569q-5 0 -15 -4t-15 -4t-13 8h43zM1953 565q-2 0 -8 -7q-2 2 -11 20q1 18 6 53q13 -38 13 -36v-30zM1192 1105q-3 -5 -28 -18q0 1 -7 7q1 1 24 11h11zM1606 635h-12l7 9q3 0 5 -9z
M762 1509q-18 -21 -48 -21h-15l-1 7q8 14 17 14h47zM1052 1101q-4 -5 -16 -5q-14 0 -31 12h21q4 0 11.5 -2.5t11.5 -2.5zM1375 722l-4 -3l-4 5l3 3zM794 1228q-2 -4 -7 -31q-3 -18 -20 -22q-4 4 -4 10q0 -9 4 21q5 6 13 10q0 21 10 23zM687 1191l-2 -6q-8 0 -8 9q5 1 8 4z
M1504 87q0 -22 -38 -92q-35 -65 -55 -89q-17 -20 -40 -20t-23 43q0 7 14.5 24.5t16.5 26.5v24q0 26 19.5 34.5t39.5 16.5l24 21l2 10q11 12 33 35q7 -21 7 -34z" />
  </g>

</svg>
