<?xml version="1.0" standalone="no"?>
<!DOCTYPE svg PUBLIC "-//W3C//DTD SVG 1.1//EN" "http://www.w3.org/Graphics/SVG/1.1/DTD/svg11.dtd" >
<svg viewBox="0 -442 2048 2048">
  <g transform="matrix(1 0 0 -1 0 1606)">
   <path fill="currentColor"
d="M2048 582q0 -424 -300 -724t-724 -300t-724 300t-300 724t300 724t724 300t724 -300t300 -724zM896 1533q0 26 -7 39q-143 -19 -272 -77l1 -6l-61 -29l1 6l-13 -7l3 -5l-31 -20l-6 6q-72 -43 -140 -102q11 1 32 4q-2 -4 -2 -9q0 -10 5 -10q3 0 6 3.5t6 3.5t4.5 -3.5
t4.5 -3.5q18 0 40.5 18t28.5 18q3 0 4.5 -3.5t4.5 -3.5l5 2l-2 2q31 2 42 20t32 18q5 0 13 -3.5t13 -3.5q3 0 8 3.5t8 3.5t11 -10q3 3 2 12q3 1 31 1q16 0 45 14.5t45 14.5q3 0 4 -2t4 -2q5 0 12.5 5t12.5 5q-12 0 12 -4q0 3 -2 8t-2 7q0 6 11 23q8 3 60 14q26 52 26 53z
M2023 582q0 353 -222 628t-567 349v-5h-32q12 -9 32 -31l-4 -21q-25 12 -73 40l7 16q-5 6 -11 6q-42 0 -35 -1l-2 -3l3 -5q-7 -8 -16 -8q-3 0 -9 1.5t-9 1.5q-42 0 -66 -7q-12 -10 -37 -30q2 -4 6 -4q3 0 4 1.5t4 1.5t5 -3t5 -3t9 3t10 3t12 -3t12 -3q3 0 7 9q18 -11 53 -33
q-1 -6 -6 -11q5 -7 13 -22l-8 -4q-12 18 -45 51l-4 -5q0 -4 4.5 -11t4.5 -11q0 -8 -16 -34t-23 -31q-16 -2 -42 -11q-16 -20 -50 -55q45 -28 45 -48q0 -4 -1 -8q-14 -5 -39 -19h-11q1 48 -17 48l-15 -3q-1 2 0 20l-5 2q-4 0 -54 -19v4q0 8 4 16q-3 5 -8 5q-4 0 -25 -18
q-25 -21 -28 -23q24 -13 28 -13q5 0 12.5 6.5t12.5 6.5t14 -2.5t13 -2.5q-17 -9 -54 -45q3 -2 22 -6q8 -14 35 -41q-1 -7 -9 -14v-3l2 -5l17 3q-6 -10 -8 -34q-13 -8 -23.5 -38.5t-29.5 -35.5l-2 -2l5 -2q-10 -13 -33 -36q-9 -4 -28 -12q-28 -18 -86 -52q17 -27 17 -24
q0 -6 -12 -22t-17 -16q-16 0 -16 17q0 11 22 26q-6 12 -6 22l-2 2q-22 0 -45.5 -22.5t-23.5 -43.5q0 -11 42 -41.5t42 -76.5q0 -23 -14.5 -35t-30.5 -24q-2 -14 -12 -25q-17 -18 -19 -20q-6 10 -6 27q0 6 -14 10q-18 5 -20 6.5t-12 17.5q-7 10 -21 10q-7 0 -10 -4
q-3 8 -9 23l-11 -12q1 -10 1 -19q0 16 -8 -60q17 -11 23 -23q10 -20 15 -26q17 -4 41 -22q10 -8 14 -23q6 -25 7 -27q18 -40 18 -29q0 -8 -4 -12l-30 10q-18 8 -19 22l-2 -6q-16 11 -35 62l-11 6q-3 17 -13 22q-13 6 -17.5 15.5t-4.5 72.5q0 15 -2 28q-9 10 -13.5 32.5
t-13.5 36.5q-14 -10 -12 -10q-4 0 -4.5 2t-3.5 2l3 -5q-2 -7 -10 -15h-18q0 3 -1 8q0 5 2 13.5t2 13.5q0 11 -14 27q-18 20 -20 25q1 11 -13 35q-2 -5 -6 -16q-10 -20 -44 -21q-1 -2 -10 -22.5t-13 -20.5q-3 0 -5 1.5t-4 1.5l4 -8q-18 -21 -21 -21l-2 3q0 -21 -16 -47
q-15 -20 -30 -41q5 -28 5 -38q0 -6 -4.5 -18t-4.5 -19q0 -3 1 -8t1 -8q0 -9 -11 -21v-6q1 -5 1 -7q-5 -8 -12 -26q-15 -1 -32 72q-14 63 -14 93q0 12 1.5 37t1.5 37l-13 -12q-2 6 -11 61l-5 6q-4 -2 -36 -19q-13 -53 -13 -47q0 -4 1 -12t1 -12q0 -25 -13.5 -73.5
t-13.5 -74.5q0 -8 1 -17l-9 -6v-17l9 5l-4 -62l-4 -3q19 -380 287.5 -652t648.5 -295v3l24 -1q48 -2 147 13q18 1 54 5q10 2 140 33q25 4 69 16q283 112 455 367.5t172 560.5zM577 552l-5 1l-4 -8l5 -2zM238 817l-5 2l-4 -8l5 -2zM1196 1445l-9 -4v4l7 4zM1173 1428
q-9 -16 -48 -24q5 -7 31 -27v-2q0 -3 -1 -9t-1 -9q0 -15 13 -35q-7 -9 -32.5 -18t-35.5 -28q-8 6 -26 15l-1 -3l5 -7q-1 -2 -24 -25q-8 8 -10 23q-5 0 -14 -9q0 -2 4.5 -6.5t4.5 -8.5t-1.5 -12t-1.5 -12q-2 0 -5.5 -1.5t-6.5 -1.5t-25 23q24 38 41 47q14 8 61 12q1 8 -10 8
q2 3 23 19q16 12 16 22q0 -10 -9 20l4 16l2 1q-1 1 -4 1q-7 0 -8 -3q-8 8 -8 17q13 3 7 27q20 -3 60 -10zM1964 446l-6 -11l-5 2l6 11zM1714 559l-3 -4l-14 11l2 4zM1722 535h-11q1 12 5 12q6 -6 6 -12zM1627 617l-2 -4l-33 20l1 4zM1635 604l-2 -6q-6 0 -20 -22.5
t-32 -22.5q-9 0 -24 10q32 16 30 16q5 -1 4.5 -1.5t2.5 -1.5q5 0 11.5 16t10.5 16q3 0 4 -2t4 -2q7 0 8 7zM1835 295q-10 0 -25 16v12q11 -7 25 -28zM886 1066q-4 -12 -11 -36q-21 12 -21 23q0 8 10.5 23t17.5 17zM1608 466q-8 0 -24 -1t-24 -1q-4 0 -44 37q-2 1 -7 1
q-16 0 -42 -18q2 -3 7 -9q-7 -14 -19 -14q0 12 -5 22q-7 -12 -5 -21q-5 -5 -13 -5q-5 0 -16.5 8t-16.5 8t-38 -15q1 5 7.5 18t6.5 18t-31 40q-3 0 -9.5 -1.5t-9.5 -1.5q-13 0 -37 8t-33 8l-6 -13q-8 9 -25 23l5 -1q2 4 8 11q-2 1 -18 3q-11 12 -14 12l-15 -3l-10 11
q3 2 13 2q11 19 30 19q29 0 36 -13q15 -27 28 -38q52 51 51 51q15 0 141 -24q16 -3 26 -18.5t13 -15.5t4 1.5t4 1.5q10 0 24 -14q-4 -3 -12 -10q30 -46 52 -46q3 0 8 2t8 2l2 -1q-5 -1 -13 -5q5 -6 13 -18zM1848 58q-17 -30 -46 -61q2 8 19 41q13 24 12 42q7 -15 15 -22z
M1023 808h-9v5h9v-5zM1017 833q0 -5 -3.5 -7t-4.5 -3q1 -3 1 -9q0 -3 -1 -8q-20 23 -20 26q0 6 9 8q-21 14 -32 25q4 0 11 -4t11 -4q3 0 4 1.5t4 1.5q21 0 21 -27zM965 873q-2 0 -5.5 1.5t-5.5 1.5q-11 0 -11 -12l-9 6h-11l-5 -6q0 -4 3 -11t3 -11l-8 -8q-10 12 -21 17
q0 1 3.5 4.5t3.5 7.5q0 10 -18 20q-1 4 -6 11t-5 12q0 -2 8 10q-1 5 -1 9v16q0 5 2 24q20 -5 31 0q11 -33 11 -31q0 15 -13 -37q3 -3 13 -2q-1 -5 -3 -14l5 -5q9 10 14 10q23 0 25 -13zM975 841q-1 1 -3 1q-4 0 -12 -4l3 12q3 0 12 -9zM1182 610l-7 -9q-4 5 -7 5
q2 0 6.5 2.5t6.5 2.5zM1285 496q0 -4 -3 -16l-5 4v3q0 11 7 18q1 -3 1 -5v-4zM1001 794q-4 -4 -18 -3l-13 -14q-3 3 -13 3q-1 2 -1 20q-8 3 -19 13v18q28 0 40 -29q1 8 7 20q0 -3 -1 -8t-1 -8q0 -1 1 -7l2 6h12q4 -4 4 -11zM1055 753q0 3 -7 -17q-5 0 -11 6l-4 -5l9 -19
q-5 -5 -13 -5q-23 0 -26 10q-4 19 -10 25q-12 -6 -23.5 -12.5t-9.5 -22.5q-7 10 -7 16q0 10 10 24t20 14q3 0 7.5 -1.5t7.5 -1.5q22 34 22 35q13 0 24 -16t11 -30zM1176 565h-9v5h9v-5zM1135 612q-4 -4 -14 -4l-5 -6v-1q0 -2 6 -11q-22 26 -22 34q0 3 1.5 9t1.5 9
q1 0 5 -4.5t8 -4.5q7 0 9 3q1 -2 1 -11q0 -5 9 -13zM1195 528q-31 5 -63 0q7 16 31 16h11q10 0 18 -4zM1117 584l-4 -3l-4 5l3 3zM1796 -6q-48 -68 -91 -96l-8 5q32 30 92 94zM1359 336l-9 -4v4l7 4zM1125 562h-12v5h12v-5zM1230 457q0 -8 -6 -15h-6q1 10 12 15zM892 790
q0 -5 -42 -51q20 31 38 67q4 -20 4 -16zM1112 512l-21 3q0 3 10 13q6 0 11 -5v-11zM1064 543h-18v5h18v-5zM1228 360q-1 -4 -5 -8h-11l3 12q9 0 13 -4zM1026 548q-1 -1 -2 -1q-4 -3 -10 -3q0 2 6 8q-2 2 -11 8l3 6l6 -4q4 -10 8 -14zM1122 425l-15 -7v5l14 7zM1044 618
q0 -33 -29 -33q-3 0 -9.5 1.5t-9.5 1.5q-13 0 -50 -21q0 -10 15 -30l6 3l6 -3q1 14 29 19q0 -23 -14 -24q0 -1 21 -24q1 -3 2 -10q9 -9 21 -9q-4 -10 -4 -30q0 5 -3 8l-3 -6l-4 7l2 3h-2q-6 0 -13 -7q-2 3 -17 16q-11 10 -11 21q-1 1 -3 1q-12 0 -12 -8q0 -5 6.5 -15.5
t6.5 -14.5v-22h-2q-8 0 -16 -4q-1 13 -8 36q-7 4 -19 16q9 56 9 70.5t18 35.5q5 2 9 2q2 0 5.5 -1.5t5.5 -1.5q42 0 67 25v-2zM1135 409q-40 -35 -63 -51l-7 8q3 10 24.5 26.5t31.5 16.5h14zM1059 396l-10 -4v5l8 4zM1653 128q0 -28 -27 -76q-10 -11 -27 -35q-7 -20 -28 -58
q-28 -35 -61 -35q-3 0 -4.5 1.5t-4.5 1.5t-12.5 -6.5t-20.5 -6.5q-15 0 -32 1q-1 1 -11 16q-8 12 -12 12l-35 -12q29 17 29 21q0 -2 -12 20q-2 -1 -28 -26q-11 11 -36 28q-15 1 -44 7l-241 -108q-23 5 -39 13q1 2 5.5 5.5t4.5 8.5q0 7 -33 53q-16 13 -43 45q-9 15 -12 41
q-4 41 -5 44h3q5 0 8 -3q14 24 49 40q57 27 59 28q15 9 22 35q10 35 13 41q3 -3 13 -6q1 1 1 3l-2 9l26 18l-6 3q9 15 20 31t27 16q5 0 13.5 -8t13.5 -8q4 0 11 1.5t11 1.5v15t30 50q14 -1 30 9q-7 5 -19 15h20q6 0 17 -4.5t17 -4.5t17 1.5t16 1.5t8.5 4.5t5.5 4.5l7 -7
q-16 -30 -16 -37q0 -14 -9 -18q80 -40 97 -40q20 0 25 67q1 43 3 86q12 -7 23 -30l17 -36q11 -1 28 -11q9 -44 15 -56q11 -18 46 -34q9 -15 33 -35q2 -5 19 -28q14 -18 14 -29q0 -4 -1.5 -11.5t-1.5 -11.5q0 -3 3 -9t3 -9zM1537 -101q-20 -39 -33 -39q-8 0 -14 7v24
q22 6 47 8zM914 576q-2 1 -5 1q-9 0 -19 -13v-20q0 -12 -17 -31v-1q0 -3 2.5 -8t2.5 -8q0 -7 -8 -15q4 -6 8 -20l-7 6q-27 -13 -20 -13q-6 0 -16.5 5t-17.5 5q-22 0 -32 -13q-6 10 -16 10q-3 0 -7 -2t-7 -2t-24 33q-1 2 -20 21q-11 11 -11 28q0 13 11 24q8 0 14 -13
q16 3 18 34q15 7 40 26q1 1 6 17q5 13 9 13q2 0 9 -7q5 4 6 8q-2 2 -7 3q10 6 33 55q7 4 10 4q-2 0 23 -15l33 -11q-6 -4 -16 -14q0 -2 1 -4.5t1 -3.5t-7.5 -11t-7.5 -21q0 -1 1 -3q5 -12 33 -34q4 -2 4 -10zM1036 387q-29 -16 -41 -16h-16q-4 4 -7 4q11 10 31 10
q25 -1 33 2zM1007 347q-8 -2 -12 -2q-9 0 -29 5q6 11 17 11q10 0 24 -14zM966 370q-6 -1 -17 -3q-5 -1 -15 -8t-15 -7q-4 0 -11.5 1.5t-11.5 1.5v2q0 14 9 14q3 0 4 -1.5t4 -1.5q6 0 23 6t22 7q2 -4 8 -11zM888 356q-99 -10 -97 -10q-14 0 -43 1.5t-43 1.5q3 0 -36 10
q8 18 17 18q7 0 13 -6q1 4 5 10q7 0 12 -10q7 0 7 6q12 -6 20 -6q4 0 33 7.5t71 7.5q-8 -3 -22 -12q3 -1 8 -5q7 1 15 1q12 0 17 -5q4 3 16 3q7 -7 7 -12zM675 449q-1 -4 -5 -8q-19 12 -27 25q2 1 6 1q17 0 26 -18zM379 735l-4 -18h-5l3 18h6zM671 378q0 -3 -7 -4
q-5 0 -13 8t-13 8q-2 0 -5 -1.5t-5 -1.5q-21 0 -90 74v2q0 18 2 11l2 2q-2 1 -5 1q-5 -1 -3 -3q-1 0 -3 -1q-1 0 -30 36q-6 3 -18 10l-54 51v12q50 0 42 -1q20 -23 36 -33q1 -8 7 -14q2 3 8 6l2 -5l-3 -6l5 -5q10 10 16 10l18 -7q-1 -2 -4 -4.5t-3 -5.5q1 -4 3 -9q3 4 8 10
q15 0 29 -12.5t11 -27.5q4 -1 13 -3q4 -11 43 -37q8 -17 8 -29q0 -9 -9 -9q-4 0 -4 -4q6 -1 16 -7v-11zM231 564q0 -10 -15 -24q-14 7 -14 22v55q7 -4 18 -24.5t11 -28.5zM1221 580l-2 5l2 6q-2 0 -9 -4q3 -3 9 -7zM1245 551v8h-6v-8h6zM887 531v9h-6v-9h6z" />
  </g>

</svg>
