<?xml version="1.0" standalone="no"?>
<!DOCTYPE svg PUBLIC "-//W3C//DTD SVG 1.1//EN" "http://www.w3.org/Graphics/SVG/1.1/DTD/svg11.dtd" >
<svg viewBox="0 -442 2048 2048">
  <g transform="matrix(1 0 0 -1 0 1606)">
   <path fill="currentColor"
d="M1963 678q-35 -55 -56 -84q-31 8 -92 25q-6 22 -13 61q65 122 68 233q92 -129 93 -235zM2022 -374h-1940v542q286 56 423 398q110 296 220 593q174 305 563 305q223 0 329 -76q126 -90 126 -304q0 -46 -41 -102q-43 -61 -87 -61q-85 0 -85 62q0 54 67 78q-38 80 -161 80
q-130 0 -204 -140q-61 -115 -61 -258q0 -320 97 -465q87 -129 287 -163q108 -18 467 -18v-54h-304q-69 0 -181 36q-129 41 -180 47q144 -127 463 -127q39 0 101 1q83 2 101 2v-376zM1707 1119q0 71 -77 187q38 -106 38 -132v-113q-11 -13 -63 -64l18 -17q41 4 65 52
q19 40 19 87zM1932 728q0 12 -22 55q0 -23 -16.5 -65t-16.5 -49q0 -14 22 -24q33 32 33 83zM1207 1361q-54 -6 -160 -29q-170 -54 -264 -211q-60 -102 -118 -324q-63 -240 -107 -329q40 47 112 147q41 70 94 242q51 162 101 238q68 103 191.5 165.5t150.5 100.5z" />
  </g>

</svg>
