<?xml version="1.0" standalone="no"?>
<!DOCTYPE svg PUBLIC "-//W3C//DTD SVG 1.1//EN" "http://www.w3.org/Graphics/SVG/1.1/DTD/svg11.dtd" >
<svg viewBox="0 -442 2048 2048">
  <g transform="matrix(1 0 0 -1 0 1606)">
   <path fill="currentColor"
d="M1392 1315q-16 -20 -121 -27q-110 -7 -198 -47q-110 -49 -144 -135q-21 -53 -21 -154q0 -11 4.5 -33t4.5 -33t-17 -49q20 -10 54 -36q11 -23 36 -67q70 -100 155 -146q1 -3 1 -8q0 -27 -46 -77.5t-72 -50.5q-11 0 -64 23.5t-64 23.5q-19 0 -19 -18q0 -15 37 -65l22 -26
q7 -10 7 -33q0 -30 -26 -60q-28 -1 -45 -4q71 -51 71 -92q0 -44 -44 -60h-31q-43 0 -43 -51q0 -17 22 -56q35 -61 143 -116q104 -53 178 -53h143l10 -11q1 -17 -61 -50q-135 -71 -352 -71q-363 0 -598 248q-232 243 -232 608q0 364 260 603q252 234 619 234q204 0 431 -111z
M1250 1338q-197 45 -296 45q-344 0 -574 -224q-232 -227 -232 -570q0 -334 205 -558q212 -232 543 -232h49q175 0 241 22q-7 -1 -12 -1q-120 0 -256 77q-155 87 -155 198q0 32 22 64.5t53 32.5q-10 0 46 -6l16 6v12q-31 50 -138 72v39q15 4 70 5q43 2 68 19v22
q-14 10 -37 33q-29 41 -29 72q0 28 15 52q18 28 44 28q16 0 51.5 -11.5t59.5 -11.5h11q62 0 64 46q-51 21 -122 124q-66 96 -88 99h-13h-26q1 -4 1 -9q0 -19 -15 -38t-34 -19q-30 0 -49 29q-17 25 -17 56t33 50q-55 7 -43 7q-36 0 -74 -12q-16 -8 -51 -17l-3 3v18
q8 23 32 28q41 36 113 36q47 0 129 -18v168q0 9 22 45q63 103 161 154q79 42 215 65z" />
  </g>

</svg>
