<?xml version="1.0" standalone="no"?>
<!DOCTYPE svg PUBLIC "-//W3C//DTD SVG 1.1//EN" "http://www.w3.org/Graphics/SVG/1.1/DTD/svg11.dtd" >
<svg viewBox="0 -442 2130 2048">
  <g transform="matrix(1 0 0 -1 0 1606)">
   <path fill="currentColor"
d="M2130 582q0 -424 -300 -724t-724 -300t-724 300t-300 724t300 724t724 300t724 -300t300 -724zM1758 1294q-187 171 -431 228q117 -182 196 -387q130 67 235 159zM2072 611q-11 373 -271 642q-114 -101 -257 -173q87 -248 93 -469h435zM1469 1110q-88 232 -223 428
q-59 9 -111 10v-523q161 7 334 85zM1076 1025v523q-51 -1 -110 -10q-134 -196 -223 -428q173 -78 333 -85zM1578 611q-6 207 -88 443q-182 -81 -355 -88v-355h443zM2072 552h-435q-6 -220 -93 -468q143 -73 257 -173q260 268 271 641zM885 1522q-244 -57 -431 -228
q105 -92 235 -159q79 204 196 387zM1076 611v355q-172 7 -354 88q-82 -236 -88 -443h442zM1578 552h-443v-354q173 -7 355 -88q82 236 88 442zM1758 -130q-105 92 -235 159q-79 -204 -196 -387q244 57 431 228zM668 1080q-143 73 -257 173q-260 -268 -271 -642h435
q6 221 93 469zM1076 198v354h-442q6 -206 88 -442q182 81 354 88zM1469 54q-173 78 -334 85v-523q52 1 111 10q134 196 223 428zM1076 -384v523q-160 -7 -333 -85q88 -232 223 -428q59 -9 110 -10zM668 84q-87 248 -93 468h-435q11 -372 271 -641q114 100 257 173zM885 -358
q-117 183 -196 387q-130 -67 -235 -159q187 -171 431 -228z" />
  </g>

</svg>
