<?xml version="1.0" standalone="no"?>
<!DOCTYPE svg PUBLIC "-//W3C//DTD SVG 1.1//EN" "http://www.w3.org/Graphics/SVG/1.1/DTD/svg11.dtd" >
<svg viewBox="0 -442 2048 2048">
  <g transform="matrix(1 0 0 -1 0 1606)">
   <path fill="currentColor"
d="M1817 605q0 -253 -132.5 -460.5t-361.5 -317.5q-185 -89 -373 -89q-365 0 -616.5 252.5t-251.5 617.5q0 355 255.5 612.5t609.5 257.5q250 0 459 -131q204 -129 324 -353q87 -163 87 -389zM1756 608q0 488 -470 733q-135 70 -275 69h-7q62 -19 100 -43q151 -96 234 -341
q68 -202 68 -418q0 -222 -70 -423q-84 -240 -241 -343q-52 -34 -96 -36q29 -2 31 -2q10 0 47 6q87 14 176 49q159 62 304 226q152 170 178 331q21 129 21 192z" />
  </g>

</svg>
