<?xml version="1.0" standalone="no"?>
<!DOCTYPE svg PUBLIC "-//W3C//DTD SVG 1.1//EN" "http://www.w3.org/Graphics/SVG/1.1/DTD/svg11.dtd" >
<svg viewBox="0 -442 2048 2048">
  <g transform="matrix(1 0 0 -1 0 1606)">
   <path fill="currentColor"
d="M1830 618q0 -357 -258.5 -615.5t-615.5 -258.5q-367 0 -620.5 254.5t-253.5 621.5q0 359 258.5 617.5t617.5 258.5q249 0 459 -133q206 -130 325 -354q88 -165 88 -391zM1768 620q0 331 -236.5 572.5t-566.5 241.5q-181 0 -313 -208q-105 -168 -135 -375
q-16 -112 -16 -231q0 -436 202 -674q55 -65 104 -96q63 -40 170 -40q324 0 559 244q232 241 232 566z" />
  </g>

</svg>
