<?xml version="1.0" standalone="no"?>
<!DOCTYPE svg PUBLIC "-//W3C//DTD SVG 1.1//EN" "http://www.w3.org/Graphics/SVG/1.1/DTD/svg11.dtd" >
<svg viewBox="0 -442 2064 2048">
  <g transform="matrix(1 0 0 -1 0 1606)">
   <path fill="currentColor"
d="M1668 1255q0 -14 -48.5 -92.5t-64.5 -96t-41 -17.5q-53 0 -53 54q0 16 46 92q41 68 60 92q16 20 43 20q58 0 58 -52zM688 1103q0 -54 -54 -54q-16 0 -30 7q-10 5 -66 95.5t-56 103.5q0 52 57 52q22 0 34 -11q20 -31 53 -81q62 -90 62 -112zM2064 796q0 -59 -56 -100
q-231 -162 -468 -342l190 -586q1 -4 -5 -28q-22 -84 -110 -84q-23 0 -45 11q-18 9 -203 146l-291 213q-125 -89 -328 -238q-51 -39 -156 -114q-28 -18 -63 -18q-46 0 -78.5 32t-34.5 78l194 589q-76 58 -197 144q-81 57 -163 114q-126 91 -147 118t-21 65q0 36 29.5 75.5
t64.5 39.5h604q33 94 126 375q19 62 61 184q29 73 108 73t110 -83q4 -11 58 -177l123 -372h607q34 0 64 -41q27 -38 27 -74zM1129 -320q0 -83 -58 -83q-57 0 -57 84v85q0 84 57 84q58 0 58 -86v-84zM1943 789h-659l-211 636l-207 -629h-663l541 -397l-206 -621l537 386
l536 -389l-209 629zM1671 704l-370 -267l150 -436l-378 271l-371 -271q8 34 15 68q10 41 28 62q46 53 144 120q80 53 159 106l296 -210l-112 344l299 213h140z" />
  </g>

</svg>
