<?xml version="1.0" standalone="no"?>
<!DOCTYPE svg PUBLIC "-//W3C//DTD SVG 1.1//EN" "http://www.w3.org/Graphics/SVG/1.1/DTD/svg11.dtd" >
<svg viewBox="0 -442 2048 2048">
  <g transform="matrix(1 0 0 -1 0 1606)">
   <path fill="currentColor"
d="M1778 626q0 -351 -249.5 -603t-600.5 -252q-344 0 -595 255t-251 600q0 353 248.5 601.5t601.5 248.5q356 0 601 -247t245 -603zM1321 776q0 67 -58 67q-27 0 -49.5 -19.5t-22.5 -45.5q0 -24 22.5 -46.5t47.5 -22.5q60 0 60 67zM1529 905q0 11 -8 19q-224 81 -353 81
q-137 0 -160 -99q-11 -48 -11 -68q0 -13 77 -142t77 -200q0 -18 -24 -18q-3 0 -21 11.5t-103 11.5q-1 -1 -21 -45q-13 -29 -33 -29q-26 0 -43 27q-13 24 -26 47q-59 0 -84 -6q-6 -1 -20 -9t-19 -8q-23 0 -23 32q0 69 68 195t68 133q0 167 -148 167q-172 0 -375 -84
q-3 -12 -6 -35q18 -11 28 -11q13 0 106 23q154 38 259 38q29 0 42.5 -6.5t29.5 -45t16 -55.5q0 8 -88 -149q-22 -39 -34 -70q-31 -80 -31 -118q0 -79 79 -79q10 0 27.5 7t27.5 7q20 0 61 -33.5t73 -33.5q40 0 49.5 4t50.5 33.5t46 29.5q10 0 27.5 -7t27.5 -7q76 0 76 81
q0 72 -76 204.5t-76 125.5q0 31 33 75q27 37 72 37q88 0 244 -41q76 -20 85 -20q33 0 33 30zM692 776q0 26 -21.5 46.5t-47.5 20.5q-31 0 -56 -17q-27 -20 -27 -50q0 -29 28 -49q25 -18 55 -18q25 0 47 21.5t22 45.5zM1191 209q-29 30 -77 58q-54 31 -89 31q-7 0 -45 -23.5
t-45 -23.5t-46.5 23.5t-46.5 23.5q-22 0 -81 -36q-62 -37 -64 -56q11 -1 34 -1q19 0 55.5 2.5t55.5 2.5q21 0 50.5 -11.5t39.5 -11.5q19 0 54.5 11.5t54.5 11.5q18 0 53 -4.5t53 -4.5q28 0 44 8zM1085 55l-5 11q-50 33 -145 33q-110 0 -132 -45q58 -43 132 -43q68 0 150 44z
" />
  </g>

</svg>
