<?xml version="1.0" standalone="no"?>
<!DOCTYPE svg PUBLIC "-//W3C//DTD SVG 1.1//EN" "http://www.w3.org/Graphics/SVG/1.1/DTD/svg11.dtd" >
<svg viewBox="0 -442 2048 2048">
  <g transform="matrix(1 0 0 -1 0 1606)">
   <path fill="currentColor"
d="M1626 1240l-309 -324q-7 13 -20 40zM1453 1405q-45 -92 -140 -274l-84 -126q-14 7 -43 19l246 381h21zM1792 1047q-73 -48 -220 -144q-30 -21 -93 -57q-31 -6 -91 -24l-24 25q22 21 77 48q15 8 175 93q148 79 151 79q11 0 25 -20zM1230 1494q-11 -39 -52 -227
q-30 -139 -64 -222h-38q-6 15 -6 38q0 19 62 195q38 108 77 216h21zM1858 823q-48 -16 -144 -47l-118 -42q-71 -23 -123 -23q-27 0 -45 1l-19 20q125 44 449 112v-21zM985 1073q-4 -6 -13 -6q-12 0 -25 33q-10 30 -10 45v2l27 369h21v-443zM1858 602l-215 -16
q-108 -8 -107 -8h-104v43zM870 1046h-44q-35 89 -64 222q-23 113 -47 226h21q61 -160 97 -286q12 -54 37 -162zM1858 355q-155 34 -381 68q-15 16 -64 45l15 19q14 2 36 2q48 0 192 -47l202 -66v-21zM1275 739q-7 -10 -18 -10q-25 0 -73.5 17.5t-73.5 17.5q-8 0 -23.5 -4
t-23.5 -4h-59v16q14 28 73 28q41 0 100 -17l98 -28v-16zM759 1024q-16 -7 -48 -19l-219 375q3 10 20 26q53 -81 157 -244q23 -48 90 -138zM1765 153q-4 -21 -20 -21t-184 99q-152 90 -197 121q15 17 29 25zM1252 645h-25q-14 15 -34 22l-56 -3q7 -2 21 -12q6 -29 6 -26
q0 -48 -47 -48q-16 0 -31.5 17t-15.5 33q0 13 10 23l4 1q-2 1 -5 1q-21 0 -37 -26q-8 7 -25 18q1 18 43 42t62 24q29 0 130 -45v-21zM647 958l-24 -24l-309 311zM1604 -45q-307 257 -307 284q0 3 19 40q17 -2 33 -16q27 -33 81 -98zM936 761q-22 -5 -17 -5q-3 0 -28 10.5
t-34 11.5l-208 -54l-10 6q4 7 10 23q150 47 210 47q8 0 36 -10q32 -11 41 -13v-16zM1066 483q0 -18 -26 -31q-21 -8 -41 -16q0 -2 -1 -5q0 -5 2 -14t2 -14q-4 -4 -38 -26v88q57 23 73 23q19 0 29 -5zM914 645h-28q-7 0 -28 22l-19 -3q31 -12 31 -40q0 -46 -45 -46
q-43 0 -43 58q0 18 5 28l4 2q-2 1 -6 1q-13 0 -37 -11t-37 -11h-41l6 15q40 16 80 31q51 20 81 20q14 0 34 -19q22 -22 43 -26v-21zM923 468q-4 -2 -15 -13t-19 -11h-18v44h27q5 0 25 -20zM1119 335q-20 -25 -31 -25q-13 0 -38 11.5t-38 11.5q-5 0 -20.5 -11.5t-23.5 -11.5
q-7 0 -26.5 11.5t-26.5 11.5q-13 0 -38 -11.5t-38 -11.5q-16 0 -35 20v25q34 -22 44 -22q-1 0 30.5 22t49.5 22q5 0 13 -9.5t11.5 -11t49.5 -1.5q11 0 31 -6.5t31 -6.5q6 0 16.5 6.5t16.5 6.5q12 0 22 -20zM1431 -184q-4 -7 -20 -22l-225 372q1 1 43 29zM554 847
q-8 -15 -22 -25l-379 225q15 15 25 20zM1026 249q-55 -28 -54 -28q-6 0 -62 28q1 21 16 21q5 0 12 -4.5t12 -4.5q25 0 56 23l20 -20v-15zM1198 -268l-123 394q23 15 43 20q12 -18 17 -42q20 -124 63 -372zM513 689l-426 134v21l426 -112v-43zM513 578h-91q1 0 -113 8
l-227 16l209 13q113 7 105 7h117v-44zM1004 17v-9l-19 -329h-21l-27 350q-1 55 47 94q21 -83 20 -106zM531 463l-420 -108q-4 -1 -20 15q1 6 6 10q79 23 178 52q50 18 100 35q62 21 101 21q51 0 55 -25zM870 50l-112 -349h-21l89 426h44v-77zM576 350q0 -18 -23 -34
q-3 -2 -113 -60l-241 -128q-1 3 -2 8q0 11 51 46q77 61 240 171q23 6 68 24q20 -17 20 -27zM759 168q0 -26 -224 -378h-21q33 60 125 245q18 39 59 114q13 19 36 41q25 -9 25 -22zM670 260q-54 -70 -151 -160q-161 -148 -162 -149h-21q62 67 186 203q37 39 100 125
q29 -8 48 -19z" />
  </g>

</svg>
