<?xml version="1.0" standalone="no"?>
<!DOCTYPE svg PUBLIC "-//W3C//DTD SVG 1.1//EN" "http://www.w3.org/Graphics/SVG/1.1/DTD/svg11.dtd" >
<svg viewBox="0 -442 2048 2048">
  <g transform="matrix(1 0 0 -1 0 1606)">
   <path fill="currentColor"
d="M1805 596q0 -354 -254 -609t-607 -255q-358 0 -610 253t-252 611q0 357 251 610.5t608 253.5q355 0 609.5 -254.5t254.5 -609.5zM890 -200q-48 3 -114 50q-146 104 -222 339q-63 193 -63 409q0 228 74 432q91 250 258 339q28 15 67 24h-31q-18 0 -47 -5
q-147 -25 -271.5 -98t-231.5 -210q-113 -143 -141 -275q-25 -117 -25 -209q0 -300 201 -530q99 -114 237 -187q149 -79 289 -79h20z" />
  </g>

</svg>
