<?xml version="1.0" standalone="no"?>
<!DOCTYPE svg PUBLIC "-//W3C//DTD SVG 1.1//EN" "http://www.w3.org/Graphics/SVG/1.1/DTD/svg11.dtd" >
<svg viewBox="0 -442 2048 2048">
  <g transform="matrix(1 0 0 -1 0 1606)">
   <path fill="currentColor"
d="M1376 617q0 -357 -229 -597q-232 -243 -588 -243q-281 0 -407 108q2 12 11 22h135q48 0 120 24.5t139 75.5q83 64 83 123q0 27 -30 45h-29q-57 0 -57 62q0 43 70 91q-16 4 -45 4q-25 32 -25 61q0 12 2 20q63 76 63 94q0 24 -18 24q-11 0 -63 -23.5t-63 -23.5
q-22 0 -69 44.5t-47 65.5v29q73 35 155 156q9 15 27 43q4 5 60 42q-19 42 -19 47q0 11 4.5 31t4.5 31q0 56 -11 118q-15 83 -102 142q-75 50 -169 64q-72 3 -172 17q-10 4 -25 20q232 109 426 109q363 0 612 -230q256 -236 256 -596zM1311 619q0 338 -227.5 560t-566.5 222
q-97 0 -295 -44q185 -31 298 -120q24 -19 59 -68q39 -55 39 -78v-155q138 14 145 14q55 0 93 -36q30 -8 31 -46l-3 -2h-13q-57 28 -110 28q-9 0 -23 -3q-17 -3 -23 -4q37 -13 37 -51q0 -29 -18 -54q-19 -28 -47 -28q-22 0 -36.5 21.5t-10.5 43.5h-39q-23 0 -87 -93
q-70 -103 -120 -126v-17q22 -31 74 -30h26q17 0 45 12t36 12q56 0 56 -77q0 -57 -60 -106v-20q27 -19 98 -19q21 0 37 -5v-39q-87 -10 -135 -66v-16l16 -6q60 5 42 5q33 0 56 -34q21 -30 21 -64q0 -111 -158 -194q-135 -71 -259 -73q114 -22 285 -22q324 0 534 229
q203 222 203 549z" />
  </g>

</svg>
