<?xml version="1.0" standalone="no"?>
<!DOCTYPE svg PUBLIC "-//W3C//DTD SVG 1.1//EN" "http://www.w3.org/Graphics/SVG/1.1/DTD/svg11.dtd" >
<svg viewBox="0 -442 2048 2048">
  <g transform="matrix(1 0 0 -1 0 1606)">
   <path fill="currentColor"
d="M1851 606q0 -365 -260 -627t-625 -262q-163 0 -330 70q-248 104 -401 328t-153 491q0 365 259.5 624.5t624.5 259.5q373 0 629 -255.5t256 -628.5zM1803 603q0 340 -248 580t-589 240q-340 0 -578.5 -240t-238.5 -580q0 -341 237 -588q241 -250 580 -250q340 0 588.5 249
t248.5 589zM1375 764q0 -67 -63 -67q-28 0 -50 20t-22 47q0 26 22.5 49t47.5 23q65 0 65 -72zM1586 896q0 -9 -11 -20t-20 -11q-19 0 -109 26q-145 42 -215 42q-49 0 -89.5 -34.5t-40.5 -83.5q0 9 79 -132t79 -214q0 -84 -79 -84q-10 0 -30 7t-30 7q-5 0 -45 -30
q-43 -32 -51.5 -35.5t-50.5 -3.5q-37 0 -75.5 34.5t-63.5 34.5q-10 0 -30 -7t-30 -7q-82 0 -82 81q0 79 79.5 215.5t79.5 135.5q0 22 -15 57q-16 39 -32 47q-23 12 -66 12q-85 0 -230 -39q-108 -29 -130 -29q-27 0 -27 17q0 -4 7 30q212 88 385 88q92 0 127 -43
q30 -37 30 -132q0 -6 -70 -136.5t-70 -200.5q0 -36 24 -36q15 0 26 17q119 7 102 7q14 -24 27 -49q17 -28 44 -28q20 0 35 30l22 47h13q17 0 45 -3q35 -3 45 -4q11 -17 28 -17q22 0 22 20q0 74 -79.5 208.5t-79.5 143.5q0 113 63 154q33 22 112 22q82 0 305 -62
q26 -5 61 -17q11 -8 11 -25zM716 764q0 -67 -74 -67q-84 0 -84 67q0 32 28 52t61 20q25 0 47 -23t22 -49zM1235 173q-18 -9 -47 -9q-18 0 -54.5 4.5t-54.5 4.5q-20 0 -57 -12t-56 -12q-7 0 -39.5 12t-53.5 12q-25 0 -75.5 -2t-75.5 -2q3 19 65.5 57t85.5 38q7 0 46.5 -24
t46.5 -24q24 0 58.5 24t37.5 24q34 0 92 -32q52 -30 81 -59zM1120 23q-11 -23 -70 -41q-49 -15 -84 -15q-51 0 -134 44q11 22 60 36q41 11 74 11q90 0 154 -35z" />
  </g>

</svg>
