<?xml version="1.0" standalone="no"?>
<!DOCTYPE svg PUBLIC "-//W3C//DTD SVG 1.1//EN" "http://www.w3.org/Graphics/SVG/1.1/DTD/svg11.dtd" >
<svg viewBox="0 -442 2048 2048">
  <g transform="matrix(1 0 0 -1 0 1606)">
   <path fill="currentColor"
d="M1745 643q0 -371 -263 -630.5t-634 -259.5q-381 0 -633 259q-26 27 -75 87q-58 72 -58 86q0 13 27 40t41 33q99 -50 266 -120q120 -35 247 -35q-5 0 53 13q224 50 330 114q80 49 178 164q86 101 116 184q46 125 46 257q0 146 -17 223q-8 37 -82 173q-72 132 -72 139
q0 20 16 43t35 23q8 0 36 -19q179 -120 261 -231q182 -248 182 -543zM1692 650q0 208 -97 391q-99 188 -272 296q136 -207 136 -456q0 -341 -248.5 -591t-588.5 -250q-249 0 -452 133q264 -362 683 -362q340 0 589.5 249.5t249.5 589.5z" />
  </g>

</svg>
