<?xml version="1.0" standalone="no"?>
<!DOCTYPE svg PUBLIC "-//W3C//DTD SVG 1.1//EN" "http://www.w3.org/Graphics/SVG/1.1/DTD/svg11.dtd" >
<svg viewBox="0 -442 2048 2048">
  <g transform="matrix(1 0 0 -1 0 1606)">
   <path fill="currentColor"
d="M1283 1091q-126 -177 -307 -177q-78 0 -215.5 55t-210.5 55q-36 0 -87 -6l-19 51q114 78 207 78q66 0 187 -45.5t187 -45.5q93 0 221 74zM1622 687q-125 -176 -308 -176q-77 0 -214.5 55t-210.5 55q-39 0 -87 -6l-19 50q114 78 207 78q66 0 187 -45.5t187 -45.5
q91 0 221 75zM1266 320q-126 -177 -309 -177q-77 0 -214.5 55t-210.5 55q-37 0 -88 -6l-18 51q113 77 207 77q66 0 187.5 -45t187.5 -45q91 0 220 75zM1119 1011q-48 -13 -94 -13q-66 0 -187 45.5t-187 45.5q-30 0 -62 -10q60 -7 192 -59q121 -48 195 -48q77 0 143 39z
M1455 607q-45 -12 -91 -12q-66 0 -187 45t-187 45q-31 0 -61 -9q59 -7 191 -59q120 -48 194 -48q75 0 141 38zM1100 240q-48 -13 -92 -13q-66 0 -187.5 45t-187.5 45q-31 0 -61 -9q59 -7 192 -59q120 -48 194 -48q76 0 142 39z" />
  </g>

</svg>
