<?xml version="1.0" standalone="no"?>
<!DOCTYPE svg PUBLIC "-//W3C//DTD SVG 1.1//EN" "http://www.w3.org/Graphics/SVG/1.1/DTD/svg11.dtd" >
<svg viewBox="0 -442 2048 2048">
  <g transform="matrix(1 0 0 -1 0 1606)">
   <path fill="currentColor"
d="M1339 109q0 -127 -94.5 -212t-222.5 -85t-222 85t-94 212q0 141 117 230v900q0 83 59 140t142 57t140.5 -57.5t57.5 -140.5v-899q117 -89 117 -230zM1184 119q0 72 -60 118v1006q0 42 -29.5 72t-71.5 30t-72.5 -29.5t-30.5 -71.5v-1007q-60 -45 -60 -118q0 -65 48 -108
t114 -43t114 43t48 108zM1140 119q0 -48 -35 -79.5t-83 -31.5t-83 31.5t-35 79.5q0 50 47 85v586h143v-586q46 -35 46 -85z" />
  </g>

</svg>
