<?xml version="1.0" standalone="no"?>
<!DOCTYPE svg PUBLIC "-//W3C//DTD SVG 1.1//EN" "http://www.w3.org/Graphics/SVG/1.1/DTD/svg11.dtd" >
<svg viewBox="0 -442 2048 2048">
  <g transform="matrix(1 0 0 -1 0 1606)">
   <path fill="currentColor"
d="M2048 584q0 -78 -241 -198q-69 -93 -247 -93q-112 0 -308 -36q-22 -4 -33 -4q-7 0 -14 1q-98 -75 -98 -141q0 -49 73 -77q130 -50 136 -54q73 -44 73 -131q0 -85 -68.5 -145.5t-68.5 -85.5q0 -24 25 -62q-86 34 -86 87q1 3 6 14l37 13l-32 15l11 19l54 17l-37 9l17 26
l46 7l-31 18l15 20l47 8l-49 21q-1 33 -145 63q-200 42 -264 68q-142 58 -142 160l163 10l-163 20l8 26l157 8l-143 26l20 13l175 10l-153 29l28 15l120 2l-81 16q-17 -2 -31 -2q-109 0 -183 59q-53 42 -63 47q-27 14 -82 14q-49 0 -145 -22.5t-145 -22.5q-206 0 -206 122
q0 85 320 132q2 57 24 94q13 22 63 73q98 244 201 244q27 0 50 -10q15 82 98 166q87 89 167 89q59 0 100 -59q85 148 217 148q94 0 165.5 -62t71.5 -154q0 -39 -11 -74q38 11 86 11q84 0 142 -58t58 -141q0 -54 -26 -110q19 4 37 4q88 0 181 -56q104 -64 104 -146zM1943 597
q0 54 -78 82q-56 20 -122 20q-86 0 -140 -59q24 -36 24 -58q0 -102 -144 -102q-87 0 -145 33q-26 15 -26 40t26 33q113 -38 147 -38q66 0 66 36q0 17 -58 59q53 82 53 158q0 35 -36 56q-31 17 -69 17q-84 0 -145 -56q-14 -4 -28 -4q-34 0 -34 25q0 12 11 25q71 84 207 84
q66 0 117 -38q56 -41 56 -105q0 -23 -3 -47q45 60 45 109q0 52 -35.5 94.5t-86.5 42.5q-118 0 -164 -57q-57 2 -73 32q49 53 61 72q23 38 23 91q0 56 -48.5 94t-105.5 38q-119 0 -222 -239q-31 139 -105 139q-56 0 -125 -68q-72 -71 -72 -173l-47 -62q-33 92 -60 92
q-50 0 -96 -99q-61 -134 -67 -141q-18 -19 -36 -39q-12 -17 -15 -52l170 14q4 -8 4 -17q0 -30 -28 -58q-123 0 -311 -34q-42 -6 -84 -13q-66 -13 -66 -31q0 -49 128 -49q50 0 146 23t146 23q94 0 175.5 -58.5t150.5 -58.5q214 0 214 118q13 18 34 18t37 -18q0 -74 -54 -119
q126 -45 167 -45q59 0 283 38q35 6 58 6q125 0 167 69q61 34 123 69q90 56 90 88zM941 908q-12 -32 -41 -32q-6 0 -12 2q-6 63 -13 63q-40 0 -58 -60q-10 -46 -19 -92q-9 -34 -42 -36q-19 39 -25 39q-27 0 -43 -43q-8 -32 -17 -65q-25 -84 -91 -148q63 331 153 331
q8 0 16 -3q13 52 42 96q38 56 80 56q71 0 70 -108z" />
  </g>

</svg>
