<?xml version="1.0" standalone="no"?>
<!DOCTYPE svg PUBLIC "-//W3C//DTD SVG 1.1//EN" "http://www.w3.org/Graphics/SVG/1.1/DTD/svg11.dtd" >
<svg viewBox="0 -442 2048 2048">
  <g transform="matrix(1 0 0 -1 0 1606)">
   <path fill="currentColor"
d="M2048 584q0 -78 -241 -198q-69 -93 -247 -93q-111 0 -308 -36q-22 -4 -33 -4q-44 0 -125.5 28t-125.5 28q-24 0 -72 -6.5t-72 -6.5q-110 0 -183 59q-52 42 -63 47q-27 14 -82 14q-49 0 -145 -22.5t-145 -22.5q-206 0 -206 122q0 85 320 132q2 72 43 120q-30 -14 -82 -42
l-8 3q42 49 88 114q-10 20 -20 27q-21 -2 -122 -57l-9 2q42 50 89 115l-10 12h-18l-110 -23l-13 3q49 34 113 88v6l-7 14l-139 15q3 7 69 26q63 19 63 36q0 15 -138 60q5 7 80 12q71 4 72 24q-16 22 -35 35q-23 13 -45 25q-31 19 -33 34l134 -25l17 13v12l-89 100
q34 -1 129 -49q15 10 15 17q0 13 -55 112v17q10 -6 110 -88l24 16q-8 42 -29 124l7 11l44 -64q35 -48 51 -48q6 0 9 12q0 46 14 132q1 -2 30 -73q23 -56 36 -58q15 8 36 60q13 35 27 71q5 -27 9 -88q4 -56 14 -56q18 0 52 45q21 32 43 63l7 4v-10q0 -21 -11.5 -65.5
t-11.5 -57.5q0 -17 23 -18q33 33 107 88q-2 -15 -55 -129q6 -17 16 -17q18 0 65 31.5t64 34.5q-18 -37 -54 -110q57 -2 97 -59q85 148 217 148q94 0 165.5 -62t71.5 -154q0 -39 -11 -74q38 11 86 11q84 0 142 -58t58 -141q0 -54 -26 -110q19 4 37 4q88 0 181 -56
q104 -64 104 -146zM1943 597q0 54 -78 82q-56 20 -122 20q-86 0 -140 -59q24 -36 24 -58q0 -102 -144 -102q-87 0 -145 33q-26 15 -26 40t26 33q113 -38 147 -38q66 0 66 36q0 17 -58 59q53 82 53 158q0 35 -36 56q-31 17 -69 17q-84 0 -145 -56q-14 -4 -28 -4q-34 0 -34 25
q0 12 11 25q71 84 207 84q66 0 117 -38q56 -41 56 -105q0 -23 -3 -47q45 60 45 109q0 52 -35.5 94.5t-86.5 42.5q-118 0 -164 -57q-57 2 -73 32q49 53 61 72q23 38 23 91q0 56 -48.5 94t-105.5 38q-119 0 -222 -239q-31 139 -105 139q-56 0 -125 -68q-72 -71 -72 -173
l-47 -62q-33 92 -60 92q-50 0 -96 -99q-61 -134 -67 -141q-18 -19 -36 -39q-12 -17 -15 -52l170 14q4 -8 4 -17q0 -30 -28 -58q-123 0 -311 -34q-42 -6 -84 -13q-66 -13 -66 -31q0 -49 128 -49q50 0 146 23t146 23q94 0 175.5 -58.5t150.5 -58.5q214 0 214 118q13 18 34 18
t37 -18q0 -74 -54 -119q126 -45 167 -45q59 0 283 38q35 6 58 6q125 0 167 69q61 34 123 69q90 56 90 88zM838 1256q-90 112 -226 112q-117 0 -204 -87.5t-87 -204.5q0 -136 111 -226q89 186 176 186q27 0 50 -10q11 59 63.5 127t116.5 103zM941 908q-12 -32 -41 -32
q-6 0 -12 2q-6 63 -13 63q-40 0 -58 -60q-10 -46 -19 -92q-9 -34 -42 -36q-19 39 -25 39q-27 0 -43 -43q-8 -32 -17 -65q-25 -84 -91 -148q63 331 153 331q8 0 16 -3q13 52 42 96q38 56 80 56q71 0 70 -108z" />
  </g>

</svg>
