<?xml version="1.0" standalone="no"?>
<!DOCTYPE svg PUBLIC "-//W3C//DTD SVG 1.1//EN" "http://www.w3.org/Graphics/SVG/1.1/DTD/svg11.dtd" >
<svg viewBox="0 -442 2048 2048">
  <g transform="matrix(1 0 0 -1 0 1606)">
   <path fill="currentColor"
d="M2019 844q0 -54 -39 -95t-92 -41q-46 0 -82 22q-41 26 -41 69q0 50 58 49q-12 -14 -12 -43q0 -52 77 -52q35 0 60.5 28t25.5 63q0 56 -49 56q-33 0 -33 -37q0 -14 33 -54q-76 -1 -76 71q0 26 24 45.5t50 19.5q96 0 96 -101zM2048 622q0 -60 -65 -60h-21q38 20 38 50
q0 28 -31 28q-30 0 -52.5 -21.5t-22.5 -51.5q0 -33 65 -63q-16 -5 -32 -5q-78 0 -78 68q0 47 36.5 81.5t83.5 34.5q79 0 79 -61zM2031 323q0 -104 -99 -104q-71 0 -71 61q0 47 69 46q-27 -16 -27 -37q0 -27 29 -27q56 0 56 61q0 51 -56 51q-61 0 -109 -60q6 105 109 105
q99 0 99 -96zM1822 646q0 -87 -124 -87q-58 0 -172.5 8.5t-172.5 8.5q-42 0 -104 -8q110 -11 224 -28q137 -20 187 -35q128 -39 128 -109q0 -72 -76 -72q-36 0 -36 35q0 21 19 36q-3 -10 -3 -9q0 -20 20 -20q33 0 33 30q0 73 -543 132q132 -33 260 -75q217 -72 217 -204
q0 -103 -88 -103q-92 0 -92 87q0 57 74 60q-32 -23 -32 -60q0 -44 46 -44q49 0 49 60q0 84 -130 140q-41 18 -203 61q-80 21 -130 47q18 40 18 73q0 32 -16 62q34 42 116 53q33 4 133 4q261 0 261 129q0 42 -41 42q-37 0 -65 -45v20q0 70 65 70q35 0 59.5 -25.5t24.5 -61.5
q0 -87 -75 -128q-56 -31 -164 -39l-160 -6q-75 -4 -117 -37q91 12 163 12q55 0 163.5 -9t163.5 -9q75 0 75 44q0 35 -37 35q-22 0 -34 -21q-4 11 -4 21q0 43 38 43q82 0 82 -78zM994 803q0 -25 -26 -25q-23 0 -23 25t23 25q26 0 26 -25zM994 868q-62 -1 -148 -85
q17 66 35 87q26 30 87 30h16zM1041 595q0 -67 -38 -115q-41 -53 -106 -53q103 60 103 155q0 138 -160 147q30 10 69 10q132 0 132 -144zM1198 749q0 -38 -66 -78q17 -46 17 -80q0 -11 -17 -30.5t-17 -38.5q0 -14 23.5 -40.5t23.5 -52.5q0 -44 -48 -76q-43 -29 -89 -29
q-9 0 -27 1h-27q-57 0 -116 -41q-19 -13 -96 -80l-25 30q91 85 92 86q61 48 112 48q12 0 36.5 -1t36.5 -1q33 0 68 17q42 20 42 49q0 19 -25 43.5t-25 43.5q0 17 15 41t15 31q0 15 -15 46t-15 44q0 9 40 35.5t40 44.5q0 6 -42 34q-56 37 -106 131q-47 90 -83 110
q-47 26 -132 26q-59 0 -175 -25.5t-175 -25.5q-280 0 -280 148q0 59 65 95q-23 -43 -23 -81q0 -117 243 -117q59 0 172.5 25t172.5 25q182 0 246 -149q12 -32 51 -88q35 -25 70 -51q43 -34 43 -69zM727 961l-10 -41q-63 6 -106 6q-65 0 -185 -42.5t-185 -42.5
q-241 0 -241 151q0 95 93 95q79 0 79 -66q0 -44 -80 -44q35 17 35 34q0 34 -36 34q-45 0 -45 -49q0 -110 195 -110q65 0 186.5 41t186.5 41q49 0 113 -7zM707 809l-16 -36q-78 23 -164 23q-95 0 -163 -61q-50 -57 -101 -115q-58 -61 -128 -61q-133 0 -133 133q0 122 108 122
q48 0 48 -77q-18 30 -50 30q-59 0 -59 -79q0 -86 81 -86q47 0 100 62q80 92 110 115q83 62 200 62q79 0 167 -32zM666 724l-6 -37q-35 8 -84 8q-101 0 -161 -93l-94 -174q-61 -93 -164 -93q-28 0 -47 21.5t-20 49.5q31 -27 80 -27q78 0 130 94q45 86 89 173q64 94 170 94
q32 0 107 -16zM629 567q-74 -6 -103 -33q-42 -38 -74 -168q-39 -161 -61 -205q-50 -100 -144 -100q-106 0 -106 80q0 74 59 74q27 0 47 -24q-61 0 -61 -45q0 -40 51 -40q76 0 121 89q25 50 59 186q31 123 58 160q48 65 149 67z" />
  </g>

</svg>
