<?xml version="1.0" standalone="no"?>
<!DOCTYPE svg PUBLIC "-//W3C//DTD SVG 1.1//EN" "http://www.w3.org/Graphics/SVG/1.1/DTD/svg11.dtd" >
<svg viewBox="0 -442 2048 2048">
  <g transform="matrix(1 0 0 -1 0 1606)">
   <path fill="currentColor"
d="M2002 1142q0 -22 -41 -63q-290 -287 -310 -287q-48 0 -48 50q0 20 6.5 29.5t153.5 156.5t158 155q15 11 31 11q19 0 34.5 -16.5t15.5 -35.5zM1958 1504q0 -19 -144 -163l-707 -708q-23 -23 -69 -67q-9 -8 -29 -8q-48 0 -48 50q0 22 144 165q177 178 531 532l175 174
q23 24 70 69q8 7 26 7q51 0 51 -51zM1316 1269q0 -22 -44 -65q-10 -10 -177 -178q-29 -32 -91 -90q-12 -10 -34 -10q-50 0 -50 48q0 23 41 64l178 177q29 32 90 89q18 15 36 15q51 0 51 -50zM1298 332q0 -30 -18 -48q-10 -10 -95 -73q-68 -49 -202 -149l112 -346
q-3 -80 -85 -80q-13 0 -20 4q-144 109 -300 220q-104 -76 -192 -142q-29 -23 -86 -65q-25 -17 -51 -17q-64 0 -75 63q-2 10 -1 12l112 353q-20 16 -258 188q-57 41 -57 80q0 26 20 53t45 27h360q19 58 57 173q15 65 61 178q18 29 65 29q63 0 82 -76q8 -31 37 -118
q20 -62 61 -186h363q25 0 45 -27.5t20 -52.5zM1188 321h-377l-120 362l-119 -359h-384l312 -231l-118 -354l309 221l307 -221l-121 356zM1058 276l-219 -164l90 -276l-238 171l-244 -174q5 37 35 102q29 34 91 75q51 32 101 65l164 -115q1 2 1 4l-65 191l194 132h82z" />
  </g>

</svg>
