<?xml version="1.0" standalone="no"?>
<!DOCTYPE svg PUBLIC "-//W3C//DTD SVG 1.1//EN" "http://www.w3.org/Graphics/SVG/1.1/DTD/svg11.dtd" >
<svg viewBox="0 -442 2048 2048">
  <g transform="matrix(1 0 0 -1 0 1606)">
   <path fill="currentColor"
d="M1964 482l-278 -22q-29 -2 -29 -34q0 -23 16 -34l214 -147l-257 47q-15 3 -30 -4q-18 -8 -18 -23q0 -5 193 -239l-233 119q-10 5 -28 5q-39 0 -39 -30q0 -7 121 -257l-209 171q-11 9 -19 9q-17 0 -25.5 -18t-5.5 -35l44 -247l-157 221q-7 10 -21 10q-33 0 -36 -30
l-25 -269l-90 249q-10 27 -34 27q-20 0 -28 -21l-91 -249l-20 251q-3 40 -38 40q-17 0 -30 -19l-150 -218l52 275q2 12 -11 23.5t-26 11.5q-8 0 -15 -6l-215 -184q125 254 125 265q0 31 -32 31q-6 0 -269 -131l186 221q7 8 7 20q0 16 -17 25t-33 6l-273 -57l231 157
q22 15 22 36q0 29 -38 32l-257 20l237 84q34 12 34 35q0 26 -40 40l-245 84l283 20q28 2 28 30q0 26 -22 40l-239 149l287 -51q42 -7 42 35q0 10 -5 16l-190 219q275 -132 280 -132q22 0 22 33q0 10 -124 268l207 -171q18 -15 31 -15q31 0 31 30q0 8 -2 17l-56 263l168 -239
q6 -8 16 -8q33 0 36 38l25 273l77 -236q16 -48 42 -48q23 0 35 33l88 247l19 -253q4 -50 38 -50q15 0 31 23l155 222l-52 -259q-3 -16 3 -34q7 -21 23 -21q11 0 24 11l219 190l-123 -255q-6 -12 -6 -23q0 -29 33 -29q14 0 30 8l225 113l-165 -201q-14 -17 -14 -34
q0 -29 26 -29q6 0 16 2l277 57l-227 -157q-24 -17 -24 -36q0 -26 38 -29l272 -23l-251 -86q-38 -13 -38 -37q0 -19 30 -30zM1596 602q0 240 -166.5 406.5t-406.5 166.5q-239 0 -405 -167t-166 -406q0 -238 166.5 -405t404.5 -167q239 0 406 166.5t167 405.5z" />
  </g>

</svg>
