<?xml version="1.0" standalone="no"?>
<!DOCTYPE svg PUBLIC "-//W3C//DTD SVG 1.1//EN" "http://www.w3.org/Graphics/SVG/1.1/DTD/svg11.dtd" >
<svg viewBox="0 -442 2048 2048">
  <g transform="matrix(1 0 0 -1 0 1606)">
   <path fill="currentColor"
d="M2048 322q0 -54 -169 -138q-48 -65 -173 -65q-39 0 -89 -6l74 -87l-149 76q-64 -11 -75 -11q-30 0 -72 14l117 -242l-209 171q-11 9 -19 9q-17 0 -25.5 -18t-5.5 -35l44 -247l-157 221q-7 10 -21 10q-33 0 -36 -30l-25 -269l-90 249q-10 27 -34 27q-20 0 -28 -21
l-91 -249l-20 251q-3 40 -38 40q-17 0 -30 -19l-150 -218l52 275q2 12 -11 23.5t-26 11.5q-8 0 -15 -6l-215 -184q125 254 125 265q0 31 -32 31q-6 0 -269 -131l186 221q7 8 7 20q0 16 -17 25t-33 6l-273 -57l231 157q22 15 22 36q0 29 -38 32l-257 20l237 84q34 12 34 35
q0 26 -40 40l-245 84l283 20q28 2 28 30q0 26 -22 40l-239 149l287 -51q42 -7 42 35q0 10 -5 16l-190 219q275 -132 280 -132q22 0 22 33q0 10 -124 268l207 -171q18 -15 31 -15q31 0 31 30q0 8 -2 17l-56 263l168 -239q6 -8 16 -8q33 0 36 38l25 273l77 -236q16 -48 42 -48
q23 0 35 33l88 247l19 -253q4 -50 38 -50q15 0 31 23l155 222l-52 -259q-3 -16 3 -34q7 -21 23 -21q11 0 24 11l219 190l-123 -255q-6 -12 -6 -23q0 -29 33 -29q14 0 30 8l225 113l-165 -201q-14 -17 -14 -34q0 -29 26 -29q6 0 16 2l277 57l-215 -149q34 -33 42 -76l232 -20
l-152 -52q50 -9 82.5 -47t32.5 -90q0 -17 -6 -40l45 -16l-51 -4q-4 -10 -7 -17q14 3 26 3q62 0 127 -40q73 -45 73 -102zM1974 331q0 38 -54 58q-40 14 -86 14q-60 0 -98 -42q17 -25 17 -40q0 -72 -101 -72q-33 0 -70 12q-49 15 -49 40q0 18 18 23q80 -27 103 -27
q46 0 46 25q0 13 -41 42q37 57 37 110q0 51 -73 51q-60 0 -102 -39q-11 -3 -19 -3q-24 0 -24 18q0 7 8 17q48 59 145 59q46 0 82 -26q39 -29 39 -74q0 -17 -2 -33q31 41 31 76q0 36 -24.5 66t-60.5 30q-83 0 -115 -40q-39 1 -51 23q59 64 59 114q0 39 -34 65.5t-74 26.5
q-84 0 -156 -167q-22 97 -73 97q-41 0 -88 -47q-50 -50 -50 -121l-33 -44q-23 65 -42 65q-35 0 -67 -70q-43 -93 -47 -98q-13 -14 -23.5 -27t-12.5 -37l119 10q3 -6 3 -12q0 -22 -19 -41q-79 0 -218 -24q-105 -18 -105 -30q0 -35 89 -35q35 0 102.5 16t102.5 16
q64 0 122.5 -40.5t105.5 -40.5q150 0 150 82q9 13 24 13q13 0 25 -13q0 -52 -37 -83q90 -32 117 -32q36 0 198 27q24 4 40 4q88 0 117 48q149 83 149 110zM1448 868q-72 140 -206 222q-138 85 -303 85q-239 0 -405 -167t-166 -406q0 -238 166.5 -405t404.5 -167
q178 0 323 98q-63 -7 -71 -7q-73 0 -127 42t-103 42q-35 0 -101.5 -16t-101.5 -16q-144 0 -144 86q0 60 224 92q2 56 61 117q69 171 141 171q19 0 35 -7q11 58 68 116q61 62 117 62q41 0 70 -41q46 80 118 99zM1273 549q0 -22 -29 -22q-5 0 -8 1q-3 44 -9 44q-29 0 -41 -41
q-6 -33 -13 -65q-7 -24 -30 -25q-13 27 -17 27q-19 0 -30 -30l-12 -46q-17 -57 -64 -103q44 231 108 231q5 0 11 -2q27 107 85 107q49 0 49 -76z" />
  </g>

</svg>
