<?xml version="1.0" standalone="no"?>
<!DOCTYPE svg PUBLIC "-//W3C//DTD SVG 1.1//EN" "http://www.w3.org/Graphics/SVG/1.1/DTD/svg11.dtd" >
<svg viewBox="0 -442 2048 2048">
  <g transform="matrix(1 0 0 -1 0 1606)">
   <path fill="currentColor"
d="M1046 1260q0 -51 -25 -51q-10 0 -30.5 6t-30.5 6q-3 0 -9 -2t-9 -2t-76 49q9 8 29 20q59 21 122 21q15 0 25 -5q0 -7 2 -21t2 -21zM1772 964q0 1 -36 -59t-42 -86q-17 -76 -17 -115q0 -23 6 -69.5t6 -70.5q0 -76 -24 -114q-6 -10 -77 -87q-39 -42 -47 -70q1 -24 -6 -71
q-4 -10 -29 -33t-34 -23q-88 0 -138 55q-15 17 -22 55q-6 30 -11 60l36 180q-27 0 -74 -36q-33 -27 -67 -55q35 44 70 89q41 53 54 98q17 60 17 115q0 37 -33.5 103.5l-33.5 66.5q0 4 10.5 22t11.5 22q17 45 17 82q0 65 -77 99q-38 10 -105 41q-15 11 -32 66q-20 62 -30 75
q-25 35 -64 35q-23 0 -82 -18q-15 -10 -47 -25q-56 -16 -98 -16q-9 0 -27.5 4t-27.5 4q-17 0 -88 -44q-62 -38 -87 -59q-15 -13 -42 -42q-56 -83 -56 -114q0 -54 70 -165q52 -79 105 -158q27 -44 79 -133q44 -82 44 -108q0 -10 -5 -29t-5 -29q0 -34 52 -71q40 -29 84 -43
l-102 -33q-136 81 -195 209q-9 19 -65 193q-73 227 -122 360q-46 124 -46 115q0 8 21.5 35.5t30.5 34.5q32 24 137 71q110 49 141 49q7 0 37 -20q4 11 15 31q41 60 192 124q106 45 140 45q7 0 88 -14q56 -8 166 -30q12 -3 76 -35q-9 -35 -9 -75q0 -68 21 -165q5 -21 48 -162
q34 -109 34 -160q0 -70 -21 -130q-31 -37 -76 -102q-35 -67 -34 -102v-5q12 23 38 69q40 54 79 107q41 61 41 126q0 20 -7.5 59.5t-7.5 59.5q0 17 5 46q6 36 7 46h24q7 0 67 -7l143 -18q36 -43 36 -51zM897 1019q0 2 -13 -37q-14 14 -41 45q16 7 50 17q0 -4 2 -12.5t2 -12.5
zM656 1356l-122 -50q-70 -29 -114 -69q2 5 18 105q11 67 41 95q19 -13 60 -35q18 -8 117 -46zM842 1054q-5 0 -16 1t-17 1l-24 -12q-5 5 -25 35q6 0 16.5 4.5t16.5 4.5q4 0 49 -34zM979 978q-1 2 -47 62q-40 52 -44 52q-5 0 -16.5 -6t-17.5 -6q-5 0 -32 19.5t-32 19.5
q3 0 -64 -70l2 -18q-2 0 -32 21q-14 -15 -14 -37q0 -38 22 -104q-20 18 -61 52q3 32 16 96q15 53 59.5 95.5t96.5 42.5q39 0 77 -17q34 -15 87 -202zM948 956q-17 -32 -53 -52q-34 -16 -68 -31q28 16 100 117q6 -11 21 -34zM788 1234q-59 -18 -80 -34q-28 -20 -59 -103
q-20 -58 -40 -117q-29 71 -29 92q0 53 16 93q2 6 35 33q55 46 127 46q10 0 30 -10zM838 960q-23 -11 -69 -29q-7 11 -44 57l37 37q41 -16 76 -65zM1278 986q0 -17 -45 -79q-30 -41 -60 -81q-14 -36 -46 -106q-19 -35 -62 -84q-57 -64 -69 -81q-14 -31 -56 -86
q-28 -25 -107 -25q-43 0 -53 30q19 28 19 27q0 2 -39 47q-42 48 -46 54q-54 79 -165 293q24 -5 69 -21q28 -31 83 -84q46 -35 81 -32l208 20q3 0 24 -5t28 -5q-28 -9 -128 -100q-103 -93 -103 -114q0 -18 6 -27q101 96 203 191q122 120 166 219q9 20 9 39q0 29 -21 78
q-5 13 -31 38q0 -22 8.5 -66.5t8.5 -61.5q0 -33 -25 -75q-16 -17 -47 -52q-125 8 -191 8q44 50 88 99q57 70 57 112l-53 63q-56 66 -64 85q20 5 17 5q59 0 76 -44q13 -47 25 -93q6 12 6 73q0 13 5.5 38t5.5 38q22 -34 60 -105q37 -2 98 -14q60 -26 60 -116zM1070 799
q-87 -9 -149 -9q-187 0 -211 21q-24 29 -75 83q15 -3 45 -12l68 -34q46 -23 69 -23h134q41 -9 119 -26zM815 914l-37 -50q-22 7 -65 22q34 8 102 28zM1297 725q0 -89 -17 -142q-1 -4 -17 -28q-68 -104 -182 -180q-21 -14 -84 -40q-67 -28 -86 -28q-65 0 -130 49l-21 60
q38 13 45 13q15 0 46 -2.5t46 -2.5q38 0 73 51l50 82q27 20 76 67q19 24 65 121q37 78 79 107q57 -34 57 -127zM614 920q-89 74 -89 107q0 11 7 33q9 27 10 35q20 -87 22 -93q15 -46 50 -82zM532 1134q-35 -77 -35 -107q0 -23 27 -92q-14 6 -37 24q-21 29 -21 52q0 31 25 79
q3 7 41 44zM1533 -307q-7 -17 -21 -49q-58 49 -84 151q-17 65 -100 224q-73 138 -81 229l33 24zM493 625q-28 12 -45 40q-27 48 -30 51q-23 25 -47 50q-38 41 -38 47q0 4 28 46q30 46 33 52q29 -97 99 -286zM1293 472l-111 -387q-18 -6 -98 -22q-118 -23 -198 -23
q-256 0 -360 49q-41 19 -120 105q-58 67 -171 184q-22 9 -62 28q-29 16 -91 16q18 76 35 152q23 104 23 149l-38 199q70 -30 202 -103q26 -18 112 -132q83 -111 104 -176h-28q-30 0 -79 28q-44 25 -67 51q-7 16 -27 47q-10 -26 -10 -32q0 -17 42 -47q36 -25 59 -34
q35 -13 71 -25q45 -18 63 -37q28 -43 87 -124l56 -50q34 -32 37 -62q-12 -2 -47 -20q-2 -13 9 -13q21 0 111 29q112 36 259 107q172 82 237 143z" />
  </g>

</svg>
