<?xml version="1.0" standalone="no"?>
<!DOCTYPE svg PUBLIC "-//W3C//DTD SVG 1.1//EN" "http://www.w3.org/Graphics/SVG/1.1/DTD/svg11.dtd" >
<svg viewBox="0 -442 2048 2048">
  <g transform="matrix(1 0 0 -1 0 1606)">
   <path fill="currentColor"
d="M1161 438q0 -110 -68 -188q-71 -82 -179 -82q-80 0 -217 60q-12 -329 -12 -308q0 -77 51 -107v-23h-168l21 402q0 6 -3 36q-155 -104 -247 -104q-125 0 -194 83q-63 77 -63 205q0 49 63 121.5t63 75.5q0 2 -25 45q-40 70 -40 146q0 98 169 172q-22 21 -22 100
q0 130 116 216q106 78 241 78q108 0 193 -45q96 -52 127 -147q20 -62 20 -88q0 -49 -38 -114q39 -34 79 -68q46 -45 46 -88q0 -64 -82 -144q169 -62 169 -234zM1047 448q0 45 -60 118.5t-60 107.5q0 18 22 66t22 65q0 40 -43.5 85.5t-43.5 88.5q0 22 10.5 63t10.5 63
q0 55 -38 111t-88 77q-19 8 -70 8q-16 0 -46 -8.5t-46 -8.5q-9 0 -18 14q-16 3 -34 3q-86 0 -148 -69.5t-62 -156.5q0 -18 15.5 -48t30.5 -40q20 -14 20 -18q0 -30 -36 -43q-13 -5 -38 -5h-5q-26 0 -39 -4q-95 -32 -95 -125q0 -47 38.5 -100.5t38.5 -52.5q0 -15 -43 -56
q-48 -47 -57 -68q-37 -83 -37 -113q0 -70 52 -119.5t123 -49.5q86 0 188.5 71l102.5 71q13 0 108.5 -49t155.5 -49q56 0 112.5 57.5t56.5 113.5z" />
  </g>

</svg>
