<?xml version="1.0" standalone="no"?>
<!DOCTYPE svg PUBLIC "-//W3C//DTD SVG 1.1//EN" "http://www.w3.org/Graphics/SVG/1.1/DTD/svg11.dtd" >
<svg viewBox="0 -442 2048 2048">
  <g transform="matrix(1 0 0 -1 0 1606)">
   <path fill="currentColor"
d="M1188 1073q0 -188 -56 -266q-15 -13 -44 -39q7 37 7 71q0 59 -69.5 167t-69.5 100q0 19 16.5 101.5t23.5 96.5q11 21 97 147q95 -190 95 -378zM956 1316q0 -10 -17 -78q-18 -74 -20 -92q-3 4 -64 89q-54 75 -54 79q0 25 28 74q24 43 47 67q24 -5 53 -60q27 -51 27 -79z
M1052 823q0 -44 -21 -85q-123 -36 -143 -36q-122 0 -176 15q-87 23 -145 98q-52 68 -52 250q0 196 94 386q21 -16 60 -52q383 -443 383 -576zM1644 715q-20 -92 -72 -271q-2 -6 -59 -112q-27 -56 -88 -166q-85 -134 -209 -274q-117 -127 -234 -253h-234q-33 37 -102 109
q-201 199 -350 429q-2 3 -60 116q-29 49 -79 151q-6 16 -41 151q-6 21 -34 116l37 223q26 -49 77 -149q11 -23 34 -69q13 -22 89 -75q86 -59 105 -79q6 -7 80 -120q111 -170 184 -336q32 -73 69 -186l62 -188v911h93v-907q39 126 130 373q38 90 147 279q33 61 112 170
q26 28 97 72q67 42 94 75q32 39 65 109l54 116z" />
  </g>

</svg>
