<?xml version="1.0" standalone="no"?>
<!DOCTYPE svg PUBLIC "-//W3C//DTD SVG 1.1//EN" "http://www.w3.org/Graphics/SVG/1.1/DTD/svg11.dtd" >
<svg viewBox="0 -442 2048 2048">
  <g transform="matrix(1 0 0 -1 0 1606)">
   <path fill="currentColor"
d="M1133 191q-186 64 -235 84q-131 53 -221 117h-20q-4 -27 -4 -73q0 -423 22 -484q1 -2 44 -66q-38 -7 -82 -7q-32 0 -68 4v622l-5 4h-9q-399 -219 -448 -219q-25 0 -25 26t170 110q68 34 188 162q129 138 129 198v43q-4 4 -14 4l-392 -179l-8 7v20q245 127 404 380
q27 43 27 50v65l-4 4q-18 -2 -48 -25q-23 -17 -45 -35q-66 -45 -236 -130l-31 6l2 13q122 69 231 204q120 148 132 273l11 18h26q0 -128 128 -286q117 -144 245 -209l2 -12q-5 -7 -19 -7q-33 0 -163 81q-111 68 -161 109q-4 -8 -4 -18q0 -117 150 -282q139 -154 259 -200
l-7 -26q-16 8 -191 84q-116 50 -186 95h-21q-3 -3 -3 -25q0 -106 188 -279q176 -162 292 -195v-26z" />
  </g>

</svg>
