<?xml version="1.0" standalone="no"?>
<!DOCTYPE svg PUBLIC "-//W3C//DTD SVG 1.1//EN" "http://www.w3.org/Graphics/SVG/1.1/DTD/svg11.dtd" >
<svg viewBox="0 -442 2048 2048">
  <g transform="matrix(1 0 0 -1 0 1606)">
   <path fill="currentColor"
d="M1916 322q0 -42 -15 -65q-7 -11 -48 -51q0 -4 1.5 -13.5t1.5 -14.5q0 -9 -1 -15q-12 -57 -68 -91q-50 -30 -111 -30q-133 0 -286 115q-1 -1 -1 -2q0 6 18 -50q44 -132 44 -241q0 -56 -43 -111q-45 -60 -99 -60q-7 0 -20 2t-20 2q-9 0 -37.5 -22t-71.5 -22
q-178 0 -251 365q-62 -118 -110 -172q-80 -88 -175 -90h-22q-54 -1 -75 30q-15 24 -31 49q-4 3 -39 10q-109 22 -109 166q0 36 9 54q30 59 92 148q70 99 110 132q-28 0 -86.5 -6.5t-88.5 -6.5q-302 0 -302 170q0 21 14 46.5t14 27.5q0 7 -14 39.5t-14 39.5q0 177 308 177
q16 0 50 -3t51 -3h16q-56 50 -117 143q-70 107 -70 164q0 106 113 156q32 33 95 81q18 9 60 9q80 0 170 -92q33 -33 127 -158q23 168 58 248q62 137 187 137q29 0 52 -21.5t27 -21.5q9 0 26 5.5t26 5.5q52 0 105 -60q50 -59 50 -112q0 -93 -31 -218q-7 -22 -18 -65v-5
q176 135 293 135q113 0 163 -92q7 -14 10 -72q67 -42 67 -116q0 -189 -310 -278v-4l160 -76q107 -54 140 -97q26 -34 26 -100zM1840 318q0 56 -53 90q-49 26 -99 51q-39 25 -119 62l-130 22q-103 20 -103 47q0 20 125 54q165 43 234 77q125 62 125 152q0 32 -19 47
q-40 30 -41 32q-8 9 -8 23q0 8 3 24t3 24q0 26 -32 42q-26 13 -56 13q-78 0 -130 -30q-36 -21 -116 -79q-49 -45 -97 -89q-63 -56 -111 -56q-15 0 -15 24q0 34 32 89l50 86q57 119 57 289q0 28 -25 61.5t-52 33.5q-6 0 -30 -10t-30 -10q-17 0 -48 26t-39 26q-72 0 -118 -124
q-35 -98 -35 -190q0 -30 1.5 -91t1.5 -91q0 -64 -23 -64q-33 0 -69 87q-26 62 -51 123q-39 63 -103 130q-82 85 -130 85q-36 0 -62 -32q-37 -44 -48 -51q-19 -3 -55 -14q-29 -13 -29 -78q0 -37 73 -137q66 -89 106 -123q51 -38 145 -120q17 -17 17 -32q0 -16 -20 -16
q-44 0 -81.5 12.5t-74.5 25.5q-57 17 -173 17q-226 0 -226 -101q0 -6 15.5 -37.5t15.5 -37.5q0 -7 -15.5 -39t-15.5 -37q0 -97 226 -97q124 0 185 17q1 0 82 29q49 18 86 18q23 0 40 -11q0 -40 -51 -85q-42 -31 -85 -62q-49 -37 -78 -70t-93 -138q-18 -25 -34 -49t-16 -56
q0 -40 17 -59q13 -15 39 -17q32 -2 40 -6q17 -8 49 -50q27 -36 57 -36q79 0 153 113q36 54 107 210q52 113 75 113q10 0 20 -15.5t10 -26.5v-221q0 -46 39 -141q42 -102 78 -118.5t54 -16.5q20 0 39 25.5t48 25.5q9 0 28 -6t28 -6q32 0 51 34q16 28 16 62q0 139 -61 276
q-4 9 -56 92q-38 62 -38 92q0 20 22 20q38 0 185.5 -113.5t251.5 -113.5q25 0 36 2q64 12 64 54q0 8 -2 23t-2 23q0 25 34 54t34 45zM1265 580q0 -92 -74 -164t-166 -72q-97 0 -164.5 69.5t-67.5 166.5q0 98 68 167t166 69q96 0 167 -70t71 -166zM1205 580q0 75 -52.5 127.5
t-127.5 52.5q-76 0 -126.5 -52t-50.5 -128q0 -77 50 -129t127 -52q75 0 127.5 53t52.5 128z" />
  </g>

</svg>
