<?xml version="1.0" standalone="no"?>
<!DOCTYPE svg PUBLIC "-//W3C//DTD SVG 1.1//EN" "http://www.w3.org/Graphics/SVG/1.1/DTD/svg11.dtd" >
<svg viewBox="0 -442 2048 2048">
  <g transform="matrix(1 0 0 -1 0 1606)">
   <path fill="currentColor"
d="M1809 1293h-40q-7 0 -19 4t-19 4q-27 0 -103 -38q-22 -9 -66 -30q-31 -17 -69 -49q9 34 31 100l-3 29q-13 -8 -23 -39q13 56 13 89q0 86 -112 86q-13 0 -43 -10q22 30 55 30q77 0 104 -34q19 -23 35 -107q21 17 21 74q0 33 -8 59h26q9 -29 9 -62q0 -15 -5 -71q10 6 69 55
h18v-15q-48 -44 -102 -89q-7 0 -20 -3q-33 -10 -31 -49q49 32 99 64q64 37 107 37q15 0 72 -20zM1387 1057q0 -37 -35 -37q-1 0 -32 8q-9 -25 -52 -51q-6 7 -17 22q3 0 9.5 -1.5t9.5 -1.5q27 0 42 30q1 2 1 40h15q3 -27 22 -27q14 0 14 16q0 -1 -11 20l-24 -3q18 18 23 18
q35 0 35 -33zM1848 1186q0 -10 -17 -29h-13q1 25 -19 61q-26 13 -119 13q-29 0 -100 -38q-75 -40 -75 -64q0 -14 15 -41q-4 -5 -34 -47q7 -25 7 -38q0 -16 -19 -37q3 -14 3 -25q0 -30 -24 -53v-10l6 -3l302 98q11 -5 22 -9q7 -4 7 -21q0 -6 -39 -74q-44 -76 -47 -83
q-30 -73 -92 -219q-14 -18 -37 -58q-16 -45 -57 -133q-21 -26 -60 -79q-17 -33 -57 -97q-104 -140 -281 -258q-3 -2 -137 -57q-234 -96 -323 -96q-5 0 -13.5 1.5t-13.5 1.5q-21 0 -58 -8q-41 -9 -57 -10q-63 -3 -188 -14q-11 -1 -49 -28.5t-49 -39.5q-5 0 -17.5 -2.5
t-19.5 -2.5q-11 0 -53 23t-52 33v37h18q3 -12 27 -23t39 -11q16 0 31 15.5t23 15.5q10 0 17 -16q10 5 28 15q-2 11 -10 32q-19 -12 -31 -12q-8 0 -20 19q-7 1 -32 10v53l16 -4q26 55 26 57q0 30 -25 30q-22 0 -24 -38q1 -21 -3 -63q-14 -23 -38 -67q-8 0 -23.5 2t-22.5 2
q-4 21 -4 17q0 2 25 31t28 36q9 19 12 75q4 80 4 81q11 66 31 199q9 82 45 243q67 203 173 341q8 10 85 79q10 15 35 41q35 17 102 57q108 83 332 236q15 9 51 9h6q32 -67 32 -161l6 -7q19 22 46 24q36 3 47 8q9 9 31 25q20 2 59 14q12 11 39 29q35 2 101 22q32 19 58 77
q24 55 24 96t-28 41q1 0 -66 -27v26q0 9 27 19t39 10t37 -15.5t27.5 -24t2.5 -25.5q0 -58 -30 -110q-12 -23 -67 -94q-8 -1 -29 -8v-10q6 -4 16 -3q1 -9 3 -26h-17l-6 11q1 -15 -17 -31t-33 -16q-3 0 -10 2t-10 2q-10 0 -29 -23t-20 -34q-6 24 -17 73l1 1q-1 2 -5 2
q-15 0 -43 -15l-4 -6q17 -3 34 -7t17 -30q0 -55 -53 -55q-5 0 -34 20q-24 -75 -89 -75q-36 0 -34 32q-11 -13 -36 -38q3 -17 3 -24q0 -46 -59 -53q-11 -15 -11 -18q0 -5 12 -14t12 -14q0 -10 -21 -34t-30 -24q-8 0 -18 12q-2 -1 -21 -32q-16 -25 -52 -32q-1 -1 -24 -36
q-14 -22 -32 -22q-10 0 -47 28q-14 -7 -36 -27q-1 -2 -14 -43q-5 -17 -39 -28q-6 4 -39 4l-3 -3q0 -4 19 -43q2 -1 6 -1q13 0 37 16v-5q0 -34 -62 -30q-1 -3 -1 -35q0 -18 -24.5 -42.5t-42.5 -24.5q-23 0 -46 23q-24 -56 -42 -56q-4 0 -9 2q-2 -6 -2 -24q0 -43 -38 -43
q-1 0 -13 3l-4 -2q7 -6 37 -36q3 9 15 23h18q-8 -16 -8 -23q0 -11 14 -31q10 6 24 22q2 14 7 40q14 -26 14 -29q0 -17 -13 -33t-30 -16q-10 0 -37 28q-9 -15 -29 -42q0 -10 1 -29.5t1 -28.5q0 -48 -22 -79v-10l6 -7q8 13 38 23q-12 -16 -17 -35q11 -3 12 -3q5 0 16.5 9
t15.5 10q3 -43 -42 -43q-8 0 -23 20q-17 -22 -37 -34q23 -16 23 -31q0 -49 -39 -49q-5 0 -19.5 6.5t-23.5 6.5q17 -15 14 -26q21 -16 21 -40q0 -12 -4 -22l21 -3q6 26 11 53q10 29 39 29q17 0 23 -14q8 -23 10 -25q28 16 88 61q-12 10 -12 35q0 21 15 31.5t31 19.5
q0 43 39 48l3 -10q-8 -5 -22 -20v-25l4 -3q19 0 43 33q-5 8 -11 25q8 -2 24 -4q8 9 8 17q0 4 -2.5 11.5t-2.5 11.5q0 25 25 34q-4 -21 -4 -26q0 -8 1 -12q36 43 106 132q28 50 92 144q153 195 352 308q24 6 72 21q2 14 4 29.5t18 17.5q-2 -9 -2 -17q0 -10 3 -18q21 14 21 29
q0 9 -8 18h17l20 -12l3 6q-2 13 -2 23q0 29 19 52q-6 16 -6 35q0 48 38 52q-1 -15 -15 -30v-37l-1 -1q1 -2 5 -2q8 0 30 26q-2 6 -2 24q20 0 27 3q-8 7 -8 17q0 5 8.5 15t10 16.5t1.5 42.5q10 1 28 9q19 14 37 61q0 12 2 35q4 20 38 54q31 32 52 43q81 41 182 41
q102 0 102 -72zM555 337q0 -19 -22 -45.5t-41 -26.5q-27 0 -27 49q0 45 53 45q30 0 37 -12v-10zM461 378q-9 -18 -9 -34h-22v38q5 0 15.5 -2t15.5 -2zM422 126q-29 -13 -26 -13q-4 0 -10.5 2t-10.5 2v37q0 3 9 21h17q5 -3 13 -13q-2 -4 -20 -13v-14l-2 -2l6 -1l19 4
q1 -6 5 -10zM461 35q-5 -8 -18 -8t-21 8v50q7 5 21 16q4 -2 13 -4v-15q-22 0 -22 -16q0 -4 27 -31zM434 -22q0 -53 -43 -53q-32 0 -32 47t32 47q43 0 43 -41zM1340 1130v14q-27 -6 -27 -32q0 -1 1 -6q26 25 26 24zM1442 1007q-6 0 -15 9v-31q12 3 13 11q1 5 2 11zM1298 1148
q-15 -3 -24 -21q4 -4 9 -14q15 22 15 35zM1431 953q-20 -8 -20 -17q0 -4 2.5 -9.5t2.5 -8.5q15 22 15 35zM1265 1090v15q-14 -7 -14 -23q8 8 14 8zM1207 1049q0 4 -2 8t-2 5h-22q-13 -25 -13 -21v-25h15q24 23 24 33zM1146 1073l-6 2l-4 -10l5 -3zM1130 1032v10h-6v-10h6z
M1117 1056v18h-14q-8 -8 -24 -26q-7 -1 21 -1q8 0 17 9zM1356 824q0 4 -2.5 8.5t-2.5 6.5q-34 -1 -34 -34q0 -9 6 -16q33 33 33 35zM1109 993v26l-5 4h-25q-4 -8 -36 -40v-18h17q10 0 49 28zM992 982v29h-21q-1 0 -16 -9q-1 -7 -9 -19t-8 -16q0 -22 19 -22q8 0 21.5 14.5
t13.5 22.5zM961 906q0 11 -5 16q-10 0 -30 -21v-26h14q21 20 21 31zM906 954v14h-22l-20 -20v-14h18q7 8 24 20zM906 861q0 6 -9.5 25t-10.5 24q-23 -13 -23 -33q0 -7 4.5 -20.5t4.5 -20.5h18q16 26 16 25zM910 794v18h-22l-4 -34q9 4 26 16zM816 910q0 4 -1 8
q-12 -9 -23 -18q-15 -11 -15 -23q0 -10 15 -10q24 19 24 43zM848 832q0 15 -10 35q-17 -13 -45 -45q19 -10 25 -10q30 0 30 20zM861 808h-6l-5 -13l6 -2zM781 842v7h-15v-7h15zM840 755v26q-6 0 -42 12q-2 -5 -4 -15h13q10 0 17 -5q-8 -5 -23 -16v-38q39 19 39 36zM734 845
l-5 26q-9 -4 -26 -16v-15q6 -3 18 -12q4 6 13 17zM777 799q0 21 -26 21v-9q0 -6 3 -12q-9 -4 -23 -11v-26h14q32 29 32 37zM780 762l-18 -15q4 0 10 -5q8 8 8 20zM664 790v9q0 27 -14 37q-18 -16 -41 -57q12 -13 20 -13q11 0 35 24zM770 703q0 9 -14 23q-41 -13 -41 -42
q0 -24 27 -24q9 0 18.5 16.5t9.5 26.5zM691 734q0 14 -5 24q-18 -9 -48 -25q0 -12 -4 -34q-8 0 -12 4q5 -32 29 -39q40 45 40 70zM594 730q0 6 -18 24q-29 -22 -29 -46v-1q3 0 8.5 -2t8.5 -2q8 0 19 10t11 17zM629 635q0 21 -22 21h-16q-4 -11 -20 -28v-30q3 0 9.5 -2
t9.5 -2q39 0 39 41zM594 688q-7 -10 -40 -10q-7 0 -11 -3q0 -11 -1 -33t-1 -33q12 41 53 79zM516 650q0 6 -2 10q-11 -10 -26 -30l23 -5q5 15 5 25zM539 566q0 28 -23 28q-9 0 -28 -19h7l7 3l2 -2q0 -11 -12 -36h34q13 22 13 26zM465 572q0 11 -11 24t-22 13q-9 0 -23.5 -18
t-14.5 -27q0 -25 32 -25q39 0 39 33zM539 486q0 26 -23 26q-14 0 -30.5 -18.5t-16.5 -32.5q0 -28 23 -28q16 0 31.5 18.5t15.5 34.5zM477 508q0 13 -9 31h-18q-24 -18 -24 -37q0 -22 23 -22q28 0 28 28zM406 489q-2 12 -9 34l-30 -10q-19 -7 -19 -21q0 -8 21 -27
q16 11 37 24zM421 453q-30 -18 -30 -22v-12q0 -13 9 -17q19 12 21 51zM539 330q-8 8 -8 13h-19q3 -6 3 -13q0 -6 -2 -10l-9 4q-11 0 -11 -29v-6q1 1 18 5q10 11 28 36zM359 403v30q-9 8 -17 8q-10 0 -29 -20v-30h28q5 0 18 12zM378 341v30q-11 -7 -38 -16v-18q12 -13 19 -13
q3 0 19 17zM320 346v9q-33 24 -45 24t-29 -16q-1 -4 -1 -9q0 -65 44 -65q12 0 22 23q9 19 9 34zM359 263q0 8 -10 18q0 -4 -4 -7q-44 -3 -44 -38q0 -4 2 -8t2 -5h26q28 27 28 40zM335 169v21q-4 4 -13 9q-6 -10 -21 -30h34zM242 295q0 16 -22 25q-2 -30 -12 -90q34 41 34 65
zM515 10l-29 5l-13 -13v-22q23 11 42 30zM281 204v38h-34q-16 -15 -16 -22v-40q5 -2 14 -4q12 10 36 28zM410 -26q0 7 -9 25h-18v-50q2 -1 5 -1q22 0 22 26zM336 119l-10 10q-19 -4 -54 -16q-3 3 -13 25q-5 14 -23 14q-11 0 -30 -20q0 16 -1 49v49l-32 -269q10 25 17 46
q7 -7 18 -7q41 0 64 54q-21 -13 -60 -43h-10q-11 21 -11 45q0 25 12 73q9 -12 9 -20q8 4 20 4q51 0 44 -35v8q7 -2 12 -2q24 0 48 35zM312 44v14q-16 -4 -30 -4v-14q8 -9 17 -9zM246 59v22h-15q0 -1 -4.5 -5.5t-4.5 -9.5t10 -15q6 0 14 8zM301 -32q0 15 -27 27l-5 -33
q6 -6 19 -13q13 14 13 19zM347 -128v42q-27 -41 -27 -51q0 -5 2 -8q8 6 25 17zM230 -29v7h-15v-7h15zM253 -129q0 10 -9 19l-17 -17v-17h14q-1 5 12 15z" />
  </g>

</svg>
