<?xml version="1.0" standalone="no"?>
<!DOCTYPE svg PUBLIC "-//W3C//DTD SVG 1.1//EN" "http://www.w3.org/Graphics/SVG/1.1/DTD/svg11.dtd" >
<svg viewBox="0 -442 2048 2048">
  <g transform="matrix(1 0 0 -1 0 1606)">
   <path fill="currentColor"
d="M1826 572q0 -9 -11 -81q-2 -24 -10 -71q-42 -140 -132 -289q-25 -54 -82 -158q-28 -44 -83 -107q-75 -86 -88 -102q-26 -33 -68 -127h-31q-88 374 -352 762q-46 68 -120 131q-8 13 -28 37q-20 11 -56 38q-134 127 -133 158v4q165 -89 329 -178q179 -106 264 -263
q32 -55 83 -170q9 -26 70 -282l15 175l7 87q0 126 -27 248q-34 153 -98 224q-7 15 -26 44q-12 13 -98 85q-75 62 -215 195q-28 31 -48 99q-4 21 -16 61q-79 17 -135 17q-22 0 -39 -19q2 -11 -10 -28q-19 -3 -55 -18q-7 -9 -27 -25q-14 -4 -39 -18q-6 -15 -21 -41
q-10 -3 -29 -16q-4 -21 -32 -55q-1 -2 -1 -42t-35 -53q7 -27 7 -49q0 -9 -5.5 -23t-6.5 -21l4 -5h-46l5 5q0 20 -3 65q-2 42 -2 65q0 73 8 106q0 1 15 21q0 4 -4 9q-18 -6 -23 -15q-9 -25 -17 -51q-11 -29 -38 -36l-8 -60q-10 -19 -64 -19q0 2 0 -57q0 -70 -39 -70
q-15 0 -25 4q-1 -20 -8 -50q-9 -6 -25 -20q-1 -53 -4 -58q-4 -9 -44 -29q-2 -20 -5 -60h-30q-9 27 -9 43q0 15 8 45.5t8 45.5q0 5 -8 17.5t-8 18.5q0 5 18 77t22 83q8 10 22 32l13 47q8 26 30 40q0 33 21 51l42 28v23q0 19 17 30.5t33 22.5q9 15 31 41q48 41 88 41
q9 0 16 -7q13 21 52 23h6q3 20 32 78q11 8 29 28q29 46 46 46q4 0 8 -2q3 17 27 46q23 14 103 51q23 4 67 18q9 11 32 30q62 33 168 33q46 0 164 -29q28 -15 87 -40q6 -10 17 -17q18 -11 52 -36q137 -108 178 -255q17 -36 41 -110q33 -167 33 -427q0 7 -10 -114
q-7 -88 -31 -213q-28 -143 -55 -202q-5 -5 -13 -16q-47 -81 -50 -120q53 67 146 208l54 142q28 73 55 170q9 13 21 43q18 91 18 181q0 138 -22 229q-15 24 -40 70l-36 76q-25 46 -56 59q4 6 4 17q3 0 10.5 2.5t12.5 2.5q34 0 76 -55q36 -48 47 -88q5 -5 14 -16
q55 -85 75 -162q29 -110 29 -204zM1021 1447h-23q9 -9 9 -18q10 10 14 18zM919 1423v1q-16 -6 -28 -19h13q15 0 15 18zM890 1377q-9 -4 -22 -13v-22q9 8 22 35zM847 1329q-4 0 -10 5q-10 -31 -10 -34v-2q13 18 20 31zM782 1328l-6 2l-5 -10l6 -2zM748 1361q-9 -6 -22 -12
v-23q16 5 22 35zM784 1282l-27 -12v-23q16 3 20 14q6 20 7 21zM1534 424v439q0 13 -8 39q-10 32 -11 39q-6 47 -26 123q-44 87 -59 112q-33 56 -75 104q-79 90 -178 118q-82 23 -67 23q-5 0 -10 -8t-10 -8q-8 0 -24.5 6t-24.5 6q-4 0 -39.5 -34t-49.5 -34q-21 0 -20 36
q1 -4 1 -8q0 -24 -20 -46t-44 -19q-9 -25 -25 -45q-10 -4 -16 -4q4 0 -15 3q-19 -38 -40 -50q-6 -1 -20 -6q0 -26 -22 -69q90 -8 135 -16q0 30 11 67q9 -29 43 -70q25 -13 78.5 -20.5t75.5 -17.5q89 -39 157 -98q126 -108 206.5 -284.5t78.5 -341.5v-13q1 8 11 39q7 25 7 38
zM724 1302q-23 -12 -23 -26q0 -7 6 -13q12 11 17 39zM665 1256q0 -23 -1 -19q0 58 -3 73q-10 -7 -22 -23q26 1 26 -31zM634 1246q-9 -3 -26 -13v-1q1 -4 4 -9q14 7 22 23zM650 1193v2h-15v-43q16 13 15 41zM1443 310q0 31 -12 112q-12 85 -21 109q-22 57 -69 151
q-10 23 -34 67q-65 99 -366 297q-16 11 -49 67q20 -62 63 -154q30 -39 105 -103q58 -48 116 -97q163 -146 191 -237q9 -30 32 -126q25 -104 25 -122v-140q19 129 19 176zM594 1148q-19 -9 -19 -18q5 -5 15 -5q0 4 2 11.5t2 11.5zM1499 258q0 44 -14 169q-14 132 -24 160
q-19 55 -71 158q-18 36 -58 80l-66 74q-36 43 -64 64q-16 19 -52 49q-36 21 -102 42q-87 26 -106 34q63 -56 214 -142q17 -19 55 -53q74 -56 117 -115q16 -31 49 -91q86 -147 86 -319q0 -200 -66 -455q102 224 102 345zM603 1051v14l-11 -20h-5q-16 1 -16 -12q0 -4 1 -7
q31 12 31 25zM470 1114l-5 4l-10 -14l6 -4zM478 1051l-5 4l-9 -10l4 -4zM533 998h-6l-5 -14l6 -2zM1802 556q0 111 -41 232q-13 25 -37 76v-29q0 -11 5 -31t6 -29q8 -86 8 -157q0 -76 -21 -170q-8 -17 -21 -51q-2 -17 -10 -51q-11 -27 -33 -79q-28 -67 -55 -134
q-35 -77 -70 -126l-98 -114q-65 -74 -76 -122q2 30 -4 89l-27 90q-75 265 -152 388q-51 82 -104 130q-68 62 -187 131q-100 57 -199 114q30 -26 91 -78q20 -14 60 -43q8 -12 27 -34q25 -18 69 -60q32 -50 101 -146q15 -15 41 -47q10 -17 65 -123q111 -219 164 -362
q13 -35 21 -159h15q52 112 196 300q26 33 52 83l120 218q65 130 84 233q10 55 10 61zM423 1076h-6l-13 -24l6 -3zM462 971v15h-7v-15h7zM490 936v26h-7v-26h7zM419 1016l-6 2l-9 -18l6 -2zM366 1055v22h-15q-12 -17 -20 -43h14zM466 871h-7l-4 -26h7zM352 982h-7l-4 -22h7z
M311 1017l-10 2q-30 -21 -30 -36q0 -6 6 -12q12 15 34 46zM323 937q0 5 -10 14q-41 -47 -41 -49v-2l26 -4q25 37 25 41zM427 750v19h-7v-19h7zM255 852q-10 -3 -14.5 -17.5t-8.5 -27.5l10 -10q4 4 9 5q0 8 2 24.5t2 25.5zM252 730q0 14 -7 28q-1 -6 -11 -28t-10 -28
q0 -1 8 -15q20 19 20 43zM203 761q-16 -8 -22 -8q0 -5 -2 -15.5t-2 -15.5q0 -6 10 -16q16 40 16 55zM147 738q0 17 -4 31q-4 -16 -14 -49q5 -5 15 -5q3 10 3 23zM178 659q0 5 -2 8q-11 0 -11 -16q0 -5 5 -11t5 -7q0 4 1.5 13t1.5 13zM146 664v10h-6v-10h6zM123 646h-6
l-5 -13l6 -2z" />
  </g>

</svg>
