<?xml version="1.0" standalone="no"?>
<!DOCTYPE svg PUBLIC "-//W3C//DTD SVG 1.1//EN" "http://www.w3.org/Graphics/SVG/1.1/DTD/svg11.dtd" >
<svg viewBox="0 -442 2048 2048">
  <g transform="matrix(1 0 0 -1 0 1606)">
   <path fill="currentColor"
d="M1976 711q0 -97 -91 -203q-8 -10 -95 -96q-81 -80 -81 -83q0 13 19 -82q22 -110 22 -182q0 -76 -24 -144q-32 -92 -93 -92q-10 0 -30.5 4t-30.5 4q-27 0 -33 -36q-8 -55 -9 -56q-11 -22 -60 -37q-40 -13 -72 -13q-72 0 -192 52q-108 46 -177 98q-69 -52 -177 -98
q-120 -52 -192 -52q-33 0 -73 12q-50 15 -60 38q-4 29 -8 57q-4 35 -33 35q-10 0 -30.5 -4t-30.5 -4q-63 0 -94 93q-23 67 -23 147q0 55 15 134l26 132q-267 219 -267 380q0 65 50.5 85.5t50.5 37.5q0 6 -20 42.5t-20 42.5q0 47 75 104q64 49 120 64q121 34 266 43
q10 13 22 42q137 336 306 336q34 0 57.5 -32t39.5 -32q15 0 37.5 32t59.5 32q145 0 274 -267q15 -38 54 -111q137 0 276 -49q181 -64 181 -172q0 -14 -18 -41.5t-18 -33.5q0 -12 50.5 -36.5t50.5 -90.5zM1919 711q0 44 -56.5 61t-56.5 59q0 16 26.5 42t26.5 48q0 46 -105 91
q-82 35 -147 43q-72 4 -194 26q-50 96 -101 193q-102 186 -186 186q-22 0 -47.5 -42.5t-51.5 -42.5q-21 0 -48.5 42.5t-48.5 42.5q-68 0 -160 -138q-75 -111 -105 -203q-4 -13 -8.5 -24.5t-19.5 -17.5q-42 -4 -113 -10q-95 -9 -191 -43q-134 -46 -134 -109q0 -7 1 -11
q52 -64 52 -82q0 -30 -58.5 -50t-58.5 -55q0 -34 29 -88q42 -77 187 -215q19 -16 53 -52q9 -11 9 -25q0 -18 -10 -50q-15 -45 -16 -50q-18 -76 -18 -174q0 -182 72 -182q15 0 41.5 12t41.5 12q36 0 40 -39q5 -35 9 -71q14 -39 72 -39q74 0 229 76.5l155 76.5q3 0 154 -76.5
t230 -76.5q58 0 72 39q1 0 9 71q4 39 38 39q15 0 41.5 -12t41.5 -12q74 0 74 182q0 84 -22 188q-1 7 -13 43q-9 29 -9 43q0 18 15 36q21 17 61 52q198 181 198 286zM1499 717q0 -36 -34 -36q-10 0 -33 24l-346 -137q-31 4 -31 20q0 17 22.5 30.5t140.5 38.5q46 12 138 34
q26 6 74 26q8 32 30 32q39 0 39 -32zM1063 1036q0 -20 -8 -26q-11 -7 -23 -14q-1 -3 -1 -8q0 -58 12.5 -174t12.5 -174q0 -32 -27 -32q-33 0 -30 36l28 352q-32 12 -32 38q0 34 32 34q36 0 36 -32zM1334 200q0 -32 -36 -32q-34 0 -34 32q0 6 4 17.5t4 16.5q-26 35 -101 120
q-40 41 -79 83q-57 63 -57 88q0 30 24 30q32 0 59 -53q93 -180 165 -270q3 0 7.5 2t7.5 2q36 0 36 -36zM999 576q-10 -8 -29 -8q-22 0 -344 137q-21 -24 -33 -24q-10 0 -34 16v39q15 13 34 13q21 0 25 -10l8 -26q9 -3 157 -42q57 -12 113 -24q71 -17 103 -44v-27zM1023 527
q0 -28 -40 -71l-61 -61q-59 -67 -136 -161q6 -10 6 -27q0 -39 -32 -39q-36 0 -36 32q0 36 36 36q11 0 14 -4q22 33 66 100q37 62 74 125q61 98 81 98q28 0 28 -28z" />
  </g>

</svg>
