<?xml version="1.0" standalone="no"?>
<!DOCTYPE svg PUBLIC "-//W3C//DTD SVG 1.1//EN" "http://www.w3.org/Graphics/SVG/1.1/DTD/svg11.dtd" >
<svg viewBox="0 -442 2048 2048">
  <g transform="matrix(1 0 0 -1 0 1606)">
   <path fill="currentColor"
d="M1874 789q-28 -120 -93 -188q-73 -77 -182 -86q-18 -1 -54 -5q14 -4 42 -13q228 -75 265 -301q3 -21 11 -64q-44 -21 -110 -21q-113 0 -202 55l-1 -1v-3q50 -143 50 -192q0 -39 -9 -62q-21 12 -85 25q-60 11 -105 43q28 -112 28 -140q0 -45 -24 -90q-52 -5 -39 -5
q-188 0 -293 266q-6 -51 -16 -115.5t-39 -133.5q-41 -93 -82 -93q-67 0 -132 155q-14 32 -14 38q-7 99 -19 181q-40 -64 -122 -132q-94 -79 -154 -79t-60 102q0 76 29 188q33 127 75 170q-3 11 -16 11q-32 0 -95 -4.5t-95 -4.5q-57 0 -127 21q-10 3 -29.5 19t-19.5 25
q0 4 11 33q42 112 231 191v3q-5 0 -105 15q-36 5 -119 43q-93 42 -93 65q0 43 80 104q85 65 190 65q4 0 119 -21q-167 105 -167 325q0 36 17 141h44q46 0 127 -53q72 -47 108 -90l10 130q9 69 42 125q8 -7 82 -59q47 -33 73 -73q3 33 11 98q3 21 26 68q26 53 39 53
q31 0 88 -37q84 -54 108 -148q11 -93 23 -185q141 279 236 279q83 0 83 -195q0 -36 -22 -102q-7 -34 -18 -75q1 -2 7 -2q37 16 83 34q72 26 127 26q82 0 82 -54q0 -124 -155 -266q29 7 89 20q30 5 113 5q86 0 147 -29zM1378 1216q0 36 -11 84q-14 63 -37 63q-6 0 -51 -35
q-132 -104 -132 -209q0 -34 18 -34q13 0 32 42q23 49 27 53q3 -6 3 -11q0 9 -11 -95q53 -38 89 -53q26 43 52 87q21 38 21 108zM1620 1009q0 48 -57 48q-25 0 -93 -26.5t-87 -43.5q-9 -8 -9 -25q0 -35 26 -44q19 19 40 39.5t46 23.5l3 -2q-3 -7 -35 -54q-29 -43 -29 -47
q0 -9 5 -12h18q20 22 77 52v-17q-68 -67 -68 -73q0 -10 9 -25q52 21 102 85q52 68 52 121zM1823 750q-14 13 -152 13q-182 0 -182 -68q0 -28 47 -44q36 -12 71 -12q6 0 18 1t19 1q-27 -29 -72 -29q-42 0 -78 7q-2 -8 -5 -26q47 -33 101 -33q77 0 146 58q64 55 87 132z
M1064 1186q0 78 -36 160q-44 101 -110 101q-33 0 -55 -50q-18 -40 -18 -78q0 -46 19 -127q24 -99 52 -99q5 0 15 5q13 11 11 40.5t4 37.5q13 -27 25 -55q12 -24 49 -24q44 0 44 89zM1803 175q-4 82 -68 170q-68 95 -144 105q-6 1 -25 6q-15 4 -24 4h-57q18 -15 60 -46
q2 -1 55 -29q31 -17 44 -45h-5q-20 0 -81.5 38.5t-72.5 38.5q-9 0 -10.5 -4.5t-3.5 -12.5t-2 -13t14 -20t14 -20q0 -10 -3 -6q-9 -3 -18 -3q-8 0 -14 3v-21q0 -23 54 -70q48 -41 78 -55q81 -37 144 -37q49 0 65 17zM817 1120q0 76 -25 141q-33 87 -95 87q-7 0 -18 -1
q-33 -49 -33 -107v-41q0 -23 1 -33q2 -24 25 -68q26 -49 44 -49q9 0 9 5q0 17 -11.5 62.5t-11.5 66.5q0 8 4 13q11 -9 34 -73q20 -54 41 -54q36 0 36 51zM1441 592q0 192 -135.5 328.5t-327.5 136.5q-193 0 -328 -137t-135 -330q0 -194 133.5 -328.5t327.5 -134.5
q197 0 331 134t134 331zM626 982v46q0 3 -11 32q-27 71 -97 132q-77 67 -146 64l-11 -1q-9 -23 -9 -69q0 -247 206 -311q-20 38 -37 62l-44 48q-26 30 -26 56q1 2 3 4q11 -5 70 -75q19 -18 57 -56q17 19 17 24q0 6 -5.5 18.5t-5.5 19.5q0 9 9 13h16q8 0 14 -7zM1545 3
q0 73 -39 146q-43 82 -107 101l-5 -18q33 -43 71 -117q-3 -3 -7 -3q-5 0 -49 47t-51 47q-14 0 -27 -12.5t-13 -25.5q0 -51 64 -125t115 -75h13q35 -1 35 35zM1390 -116q0 28 -6 46q-13 37 -65 114q-59 87 -84 87q-20 0 -20 -28q0 -12 7.5 -32.5t8.5 -27.5l-2 -4
q-62 60 -60 60q-9 0 -33 -11t-29 -18v-5q-3 -69 67 -166q75 -102 142 -102q74 0 74 87zM507 753q-46 77 -153 77q-144 0 -213 -109q33 -25 127 -57t136 -32q71 0 71 41q0 22 -51 53q-38 24 -72 35q16 10 34 10q54 0 103 -40q8 7 18 22zM1032 -38q0 66 -21 89h-18
q-17 -21 -19 -53q-1 -41 -6 -54q-12 18 -16 52t-8.5 41.5t-31.5 16.5t-38 9h-36q-1 -11 -10 -45q-7 -29 -7 -43q0 -79 45 -165q24 -28 72 -85q14 13 28 47t28 49q38 40 38 141zM491 385q0 5 -2 15.5t-2 15.5h-17q-4 0 -34 -17.5t-46 -17.5q-10 0 -18 10q12 19 44 37
q46 25 51 29v18l-5 5h-32q-7 0 -29.5 -9.5t-35.5 -9.5q-3 0 -5 2q4 17 41 32l54 22v31h-17q-49 0 -128 -59q-82 -62 -82 -110q0 -5 1 -10q47 -33 165 -33q97 0 97 49zM746 99q0 24 -20 24q-14 0 -38.5 -36.5t-32.5 -36.5h-5v11q36 82 36 81q0 11 -85 96q-114 -77 -114 -265
q0 -38 13 -85h24q6 0 28 17q26 20 29 22q30 13 88 46q22 16 49.5 59t27.5 67z" />
  </g>

</svg>
