<?xml version="1.0" standalone="no"?>
<!DOCTYPE svg PUBLIC "-//W3C//DTD SVG 1.1//EN" "http://www.w3.org/Graphics/SVG/1.1/DTD/svg11.dtd" >
<svg viewBox="0 -442 2048 2048">
  <g transform="matrix(1 0 0 -1 0 1606)">
   <path fill="currentColor"
d="M1866 860q-30 -10 -78 -38q-9 -72 -9 -120q0 -9 2 -26t2 -25q6 -4 16 -4q13 0 33 5q24 6 32 7q-21 -14 -43 -29q-28 -19 -28 -36q0 -42 5.5 -126.5t5.5 -126.5q0 -107 -14 -170q-22 -99 -63 -149q-23 -5 -65 -27q-13 -11 -27 -43q-17 -41 -22 -48q-22 36 -33 36
q-9 0 -37.5 -11.5t-28.5 -18.5q0 -2 25.5 -31.5t30.5 -52.5q-2 1 -76 53q-47 33 -83 33q-10 0 -147 -12q-5 -152 -25 -240q-10 -4 -30 -13q0 23 -6 67t-6 66q0 9 1.5 27t1.5 27q0 42 -34 42q-21 0 -29 -4q2 15 9 42q21 12 64 29q65 4 193 18q12 2 40.5 16.5t32.5 14.5
t19.5 -16t42.5 -16q22 0 30 17t16 35l17 -16q32 17 89 60q8 8 34.5 82t26.5 86v341q0 39 -60 56q16 8 39 38q9 27 9 108v11q-19 8 -40 8q11 10 32 30v103q0 50 -13 72q-26 43 -128 43q-19 0 -56 -14l15 -54q-4 7 -37 40q-50 -28 -62 -54q-9 -21 -9 -85q0 -194 14 -281
q19 -115 19 -121q0 -9 1 -26t1 -26q0 -50 -8 -81q-3 -13 -31 -55.5t-38.5 -52.5t-41.5 -10q-4 0 -10 12q-18 -5 -27 -5q-4 0 -83 5v98q0 7 -13.5 24.5t-19.5 17.5q-12 0 -51 -19l32 51q19 -4 56 -16q3 23 8 188q1 34 7 163q5 100 5 162q0 249 -20 369q-15 0 -56 -16
q39 52 39 54q0 20 -17 47q-26 42 -120 65q-73 19 -143 19q-69 0 -96 -22l-66 -54l72 -105l-87 68q-4 0 -8 -7q-28 -138 -28 -140q0 -7 3 -22t2 -23v-4q-4 -19 -11 -56q-2 -19 -3 -80v-24q-1 -65 24 -86q-5 0 -21 -8v-183q28 -12 85 -33q-48 -20 -84 -41v-10q-1 -40 10 -119
q-52 -45 -63 -45q-84 0 -133 45q-39 35 -75 121q-4 10 -4 27q0 9 1.5 28t1.5 29q0 60 -48 69q22 13 65 38q-16 117 -16 94q0 8 1.5 25t1.5 26q0 62 -63 108q-13 10 -115 10q-20 0 -29 -2q-31 -5 -56 -67q-22 -53 -22 -90v-104q27 -13 84 -34q-26 -5 -77 -13q-3 -19 -3 -9
q0 -67 29 -134q1 -2 43 -31l-48 -22q0 -121 4 -176q6 -10 14 -28q1 -2 1 -40q0 -30 27.5 -76.5t53.5 -66.5q9 -7 85 -23q73 -15 90 -14l251 12v-284q0 -6 -3 -18t-3 -18q-4 -66 -5 -72q-5 -42 -22 -69q-4 -6 -32 -17v210q-25 10 -95 23q32 3 87 27q14 124 14 162
q-285 0 -361 25q-37 12 -61.5 57t-43.5 53q-3 1 -57 12q22 7 36 16q1 30 1 31q0 21 -10.5 42t-10.5 24q0 117 -14 188q-4 6 -12 6q-10 0 -30 -1t-29 -1q23 9 69 29v7q0 59 -10 156q-28 21 -63 42q17 12 55 37q4 71 27 208q7 26 64 68q29 22 91 22q7 0 20.5 2t20.5 2
q29 0 67 -21q66 -35 81 -127l12 -158q6 -2 13 -2q15 0 40 8q31 9 40 10q-49 -24 -96 -54q-1 -18 -5 -57t-4 -59q0 -77 33 -115q46 -52 80 -52q13 0 61 19q-2 39 -18 115q-5 12 -63 61q23 9 69 29q1 70 -14 204q0 2 -34 46q10 -5 41 -11q6 4 6 186q-19 18 -56 54l66 -15l5 7
q30 168 30 174q0 5 -32 67q59 -15 58 -15q3 0 54 29q55 30 66 34q62 22 111 22q95 0 216 -50q15 -6 27 -20q17 -27 53 -79l97 40q-2 -23 -31 -40q-24 -13 -48 -27l23 -130q18 6 73 15q-27 -16 -68 -42q0 7 10 -116q8 -95 6 -163l-8 -316q-4 -16 -9 -46q-10 -59 -12 -106
q20 -8 61 -25q-19 -1 -76 -21q-12 -58 -12 -79l2 -22q16 15 93 15q27 0 32 8q26 127 26 137v53q0 47 -11 180q-5 68 -5 67v242q78 73 78 94q0 7 -2.5 21t-2.5 21l39 -46q6 0 34 10.5t47 10.5q5 0 15 -1h15q61 0 78.5 -11t36.5 -64q5 -14 34 -87q0 -1 1 -59v-5q5 -1 10 -1
q17 0 73 13z" />
  </g>

</svg>
