<?xml version="1.0" standalone="no"?>
<!DOCTYPE svg PUBLIC "-//W3C//DTD SVG 1.1//EN" "http://www.w3.org/Graphics/SVG/1.1/DTD/svg11.dtd" >
<svg viewBox="0 -442 2048 2048">
  <g transform="matrix(1 0 0 -1 0 1606)">
   <path fill="currentColor"
d="M1794 1016q-36 0 -92 22t-76 22h-5q18 -22 31 -60q-35 27 -71 55q-53 39 -72 39h-19q-2 -1 -3 -4q0 -19 16 -42h-5q-8 0 -119 38l-37 -3q19 -17 58 -51q-44 19 -145 19q-63 0 -87 -7q28 -8 75 -40q-35 15 -68 15q-103 0 -137 -29q20 0 61.5 2.5t62.5 2.5q70 0 160 -29
q-43 0 -118 -27q190 -11 287 -60q-38 -2 -98 -19q54 -13 109 -26q52 -18 75 -84q-29 9 -73 25q-1 0 -5 -2q129 -126 126 -171q-7 0 -21 7l-6 -6q0 -16 6 -46.5t6 -46.5q0 -11 -1 -34t-1 -34q-31 79 -91 140q-9 -9 -16 -39q-21 32 -38 83q-14 43 -29 86q-11 -23 -19 -71
q-38 99 -114 170q8 -25 24 -73q-151 139 -184 137q84 -66 141 -147q-42 26 -58 26q-4 0 -8 -1q162 -119 184 -206q-25 19 -45 19l-37 -3q78 -94 86 -168q-16 5 -56 37q2 -18 12 -76q9 -51 9 -71q0 -37 -9 -77q-11 20 -24 39q-23 -63 -84 -181q4 23 4 50q0 73 -27 131
q-3 -3 -36 -47q0 4 -2.5 12t-2.5 12q0 21 18 81.5t18 81.5v26q-6 -3 -43 -28v154q-24 -15 -30 -32l-68 236q-19 -17 -23 -59q-16 52 -32 105q-22 64 -48 96h-10q-6 -4 -6 -12q0 8 22 -64q115 -378 115 -639q0 -155 -27 -269q-2 -10 -24 -77q-19 -58 -19 -71q0 -21 20 -37
q17 -14 35 -28q-63 -28 -122 -28q-48 0 -154 36q47 23 62 46q127 191 127 527q0 289 -65 415q-9 -16 -18 -31.5t-45 -15.5q-72 0 -72 86q0 27 8 56q-47 -27 -84 -83q-33 -49 -65 -98q0 14 -8 55q-17 -60 -58 -177q-15 6 -27 29.5t-20 29.5v-237q-16 16 -44 63
q-3 -24 -21 -100q-15 -61 -15 -100q0 -11 1 -22q-17 65 -52 195q-23 -38 -32 -65q-2 55 -5 41l40 198h-5q-13 1 -46 -28q16 79 121 178q-2 4 -5 3l-89 -31q25 32 132 83q92 43 104 96q-1 3 -3 5q-36 -4 -89 -18q35 32 107 61q86 35 112 52q17 11 23 29q-2 2 -5 2
q-61 0 -139 -37l-130 -68q3 5 30 51q-63 -42 -141 -107q2 44 2 30q0 9 -2 17q-25 -10 -59 -65q-36 -59 -61 -73q-4 44 -7 44q-25 0 -74 -51q-43 -45 -59 -75v10q-2 75 58 136q-9 0 -23 -10q-17 -12 -24 -14q10 45 63 88q85 70 86 71q-5 4 -16 4q-6 0 -51 -9q36 44 92 62
q53 15 105 31v2q-40 8 -59 8q68 35 195 35q23 0 53 2q-27 23 -47 19q10 1 21 1q51 0 140 -23q96 -25 139 -28q7 4 7 12q0 34 -99 65q-75 23 -129 28q28 2 82 12q-42 20 -112 33q-112 21 -116 22q25 5 67 19q11 -1 -101 -1q-52 0 -80 13q13 9 43 24q-1 1 -3 2q-40 0 -198 -46
l28 21l-3 6h-22q-68 1 -148 -7q49 35 145 75q-14 2 -43 8q52 27 108 30q-34 -2 113 -2q-10 16 -32 31h9q44 2 142 -34q1 2 1 6q0 6 -6 27q117 -24 206 -103q3 4 3 9q0 9 -12 25q64 -42 116 -115l90 -136q6 17 6 139q0 11 -1.5 32.5t-1.5 32.5q0 67 33 99q0 -27 8 -43
q5 9 27 84q18 59 41 69q0 -9 -4 -48l7 -7q25 37 51 73q34 49 64 49l3 -51q75 71 137 71l14 -2q-9 0 -19 -13l3 -3q41 -1 81 -2q47 -3 79 -18q-30 0 -152 -36q2 -10 17 -11q22 -3 23 -3q-10 -16 -66 -27q-38 -7 -76 -13q28 -21 55 -31l-70 -16t-57 -37v-5q37 12 64 12
l-134 -127q22 0 49 12q-64 -55 -124 -171q0 -1 2 -5q50 66 100 131q56 62 142 77q-19 -51 -19 -46q0 -5 2 -9l90 60q42 26 105 26q-29 -12 -48 -59q26 1 74.5 17t75.5 16q25 0 63 -14q-37 -1 -59 -31q78 -5 99 -8q65 -11 86 -39q-13 -1 -39 -5q57 -38 141 -119z" />
  </g>

</svg>
