<?xml version="1.0" standalone="no"?>
<!DOCTYPE svg PUBLIC "-//W3C//DTD SVG 1.1//EN" "http://www.w3.org/Graphics/SVG/1.1/DTD/svg11.dtd" >
<svg viewBox="0 -442 2048 2048">
  <g transform="matrix(1 0 0 -1 0 1606)">
   <path fill="currentColor"
d="M1962 290q0 -305 -151 -456q-146 -146 -455 -168q-172 -12 -164 -12h-340q-17 0 -46 3q-36 3 -47 4q-140 8 -222 25q-241 50 -352 204q-103 143 -103 396q0 105 26 229q22 104 100 239q137 236 437 458q73 47 213 148q4 3 80 89q58 65 84 65q24 0 85 -69q75 -84 87 -93
q66 -44 196 -135q294 -220 450 -472q122 -197 122 -455zM1885 257q0 150 -24 263q-44 205 -270 424q-136 132 -405 320q-5 3 -85 77q-66 60 -83 60q-13 0 -89 -69q-94 -84 -96 -85q-67 -45 -196 -140q-383 -305 -450 -558q-30 -115 -30 -270q0 -69 10.5 -86.5t40.5 -42.5
q128 -108 414 -127q151 -10 159 -10h478q83 0 206 15q136 17 200 40q84 30 146 73q29 19 66 56q8 18 8 60zM1899 150q-106 -130 -373 -178q-219 -39 -342 -39h-324q-10 0 -88 7q-119 10 -179 19q-153 22 -242 57q-116 44 -210 134q12 -47 31 -107q24 -76 102 -151t155 -99
q58 -19 176 -46q151 -22 238 -22h358q19 0 134 11q199 19 314 72q156 73 218 227q15 37 32 115z" />
  </g>

</svg>
