<?xml version="1.0" standalone="no"?>
<!DOCTYPE svg PUBLIC "-//W3C//DTD SVG 1.1//EN" "http://www.w3.org/Graphics/SVG/1.1/DTD/svg11.dtd" >
<svg viewBox="0 -442 2048 2048">
  <g transform="matrix(1 0 0 -1 0 1606)">
   <path fill="currentColor"
d="M1824 928q0 -77 -75 -146q-65 -60 -148 -86q-27 -2 -79 -11q-7 -5 -24 -13q-23 -5 -80 -5q-48 0 -135 30q-20 0 -59 7q-47 15 -159 15q-45 0 -66 -6q-139 -39 -411 -290q-82 -66 -232 -215q-25 -42 -76 -125h3q11 0 46 18q45 25 47 26q20 8 73 8q15 0 39 8.5t35 8.5
q14 0 43.5 -6t43.5 -6q11 0 27 1q12 8 34 26q14 21 46 62q61 68 138 89q36 10 163 21q26 5 79 13q82 4 253 32q12 1 36 6q12 4 80 39q63 32 67 32q26 0 26 -28q0 -9 -57 -161q-2 -6 -69 -111q-39 -62 -93 -99q-15 -6 -44 -18q-121 -59 -221 -59q-149 0 -212 14
q-49 11 -99 39q-29 21 -59 41.5t-70 20.5q-9 0 -27 -1.5t-27 -1.5q-14 0 -42 1t-42 1q-37 0 -183 -55q-27 -10 -65 -58q-22 -28 -55 -189q-1 -26 -11 -75q-9 -25 -38 -25q-19 0 -33 33q-9 2 -30 15q2 136 72 303q22 52 91 139l76 82q50 57 50 93q0 39 -51 78q-23 10 -67 34
q-44 30 -87 82q-48 59 -56 104q-5 27 -5 94q0 133 43 232q3 20 10 59q11 32 32 96l16 17h33q3 -49 18 -128q38 -51 96 -138q89 -153 89 -234q0 -115 -10 -137q-3 -7 -26 -36t-23 -34t19 -42q21 -41 23 -47q50 44 81 64q19 12 26 29q12 30 14 33q14 14 38 43q4 18 14 51
q13 19 33 60q21 71 21 144l-58 16q-36 12 -48 32q-25 42 -25 82q0 56 22 163q23 112 47 157q18 33 75 115h22q-1 -63 -1 -47q0 -44 10 -72q2 -6 29.5 -54t71.5 -148q6 -17 6 -109q0 -75 -64 -130q-12 -3 -31 -20q-7 -38 -18 -95q-16 -68 -43 -120v-4q123 107 192 157
q70 40 196 135q25 25 25 76q0 11 -39.5 49.5t-39.5 52.5v169q0 2 60 180q17 17 29 17q7 0 26 -33l64 -110q19 -42 19 -123q0 -46 -38 -157q-4 -11 -34 -51l3 -26l152 142q-14 27 -28 55q-8 17 -8 73v4q0 46 29.5 104t66.5 88q50 31 133 93q1 1 15 28q10 19 29 19
q20 0 20 -29q0 -56 -5 -107q-1 -9 -8 -27.5t-7 -27.5q0 -112 -17 -148q-27 -59 -134 -117q-12 -13 -34 -38q-126 -141 -290 -236q5 -2 13 -2q17 0 48.5 6t47.5 6q44 0 90 -12q50 105 160 143q77 27 217 27q19 0 57.5 -2t57.5 -2q14 0 43.5 10t43.5 10q22 0 22 -20z
M1432 1331h-15q-3 -9 -55 -80q-45 -63 -45 -92v-32h15q10 9 16 32q6 28 9.5 34.5t74.5 137.5zM1594 814v14q-59 17 -72 17h-19q-100 -1 -209 -77q-7 -5 -8 -13l9 -9h24q2 0 63.5 34t87.5 34h124zM1096 1116q0 14 -33 101h-15v-37q0 -7 6 -20.5t6 -19.5v-147q9 -9 15 -9
q21 51 21 132zM715 904q0 57 -48 194h-15v-13q0 -5 10 -17q1 -13 7.5 -42.5t6.5 -44.5v-167q3 0 10.5 -1t11.5 -1q6 0 9 2q8 51 8 90zM1064 190l-8 8q-139 17 -133 17q-54 0 -131 -17q-17 -4 -40 -25.5t-29 -38.5q5 -6 18 -6q9 0 39 17q35 20 40 22q44 17 101 17
q14 0 43.5 -4t43.5 -4q44 0 56 14zM323 613q0 35 -28 118q-29 88 -53 110q-8 -8 -13 -9q22 -84 75 -252h15q4 13 4 33z" />
  </g>

</svg>
