<?xml version="1.0" standalone="no"?>
<!DOCTYPE svg PUBLIC "-//W3C//DTD SVG 1.1//EN" "http://www.w3.org/Graphics/SVG/1.1/DTD/svg11.dtd" >
<svg viewBox="0 -442 2048 2048">
  <g transform="matrix(1 0 0 -1 0 1606)">
   <path fill="currentColor"
d="M373 1415q-9 -9 -20 -9q-20 0 -20 20t20 20q13 0 20 -13v-18zM405 1374q0 -10 -9 -19h-34q0 3 -2.5 9t-2.5 10q0 24 26 24q22 0 22 -19v-5zM417 1308q0 -29 -30 -29t-30 27q0 28 30 28t30 -26zM345 1364q0 -22 -26 -22q-22 0 -22 22q0 26 22 26q26 0 26 -26zM425 1233
q0 -30 -32 -30q-28 0 -28 30t28 30q32 0 32 -30zM345 1299q0 -28 -28 -28t-28 30q0 25 26 25q30 0 30 -27zM445 1155q0 -32 -38 -32q-34 0 -34 34t34 34q38 0 38 -36zM349 1211q-12 -12 -28 -12q-28 0 -28 28q0 32 26 32q12 0 30 -17v-31zM1818 552q0 -72 -33 -124
q-38 -60 -106 -60q-46 0 -86 48q-23 -163 -126 -163q-44 0 -110 40q-3 -3 -2 -5l1 -5q39 -107 39 -164q0 -182 -106 -182q-15 0 -31 4l-6 -10q-15 -193 -152 -193q-97 0 -183 124q-22 31 -20 163q-73 -103 -115 -143q-79 -76 -161 -76q-53 0 -95 34q-45 36 -45 87
q0 35 24 67q-86 23 -96 28q-52 24 -52 75q0 68 36 121q17 25 88 96q-22 0 -67.5 -4.5t-68.5 -4.5q-219 0 -219 137q0 75 36 101q-22 13 -55 38q-25 28 -25 79q0 71 66 111q55 33 131 33q96 0 223 -91l198 -154q-13 2 -75 14q-51 11 -70 11q-66 0 -66 -60q0 -92 138 -92
q56 0 111.5 28t81.5 28q-8 -12 -97 -102q-70 -71 -70 -111q0 -17 10 -38q12 -24 28 -24q21 0 32 17q15 21 28 26q7 -36 15 -72q15 -47 44 -47q52 0 72 84q12 77 24 155q16 84 58 84q-5 0 11 -4q6 -39 22 -117q8 -32 38 -55t63 -23q109 0 109 127q0 110 -107 235
q11 0 33.5 2.5t34.5 2.5q18 0 55.5 -6t55.5 -6q108 0 108 62q0 98 -136 98q-51 0 -111 -16q-73 -20 -95 -52q-2 9 -2 17q0 50 98 106.5t98 109.5q0 54 -43 54q-28 0 -70 -48q-28 -35 -57 -71q43 113 43 105q0 30 -38 30q-55 0 -93 -71q-19 -35 -49 -133q-22 -71 -38 -71
q-44 0 -60 73q-12 68 -24 137q-19 73 -70 73t-51 -55q0 -62 56.5 -145t114.5 -106q-6 0 -20.5 -2.5t-21.5 -2.5q-120 0 -216.5 93t-96.5 212q0 40 23 73q26 37 65 37q4 0 40 -13q-12 119 -12 117q0 55 33 115t80 83q44 21 116 21q134 0 134 -116q0 -56 -52 -155.5
t-52 -155.5t20 -56q39 0 65 186q7 52 40 96q38 50 87 50q13 0 36 -7q29 -9 37 -10q59 116 154 116q35 0 68.5 -13.5t54.5 -51.5l32 -70l54 -8q31 -6 50 -22q12 -10 24.5 -47.5t12.5 -56.5q0 -64 -65 -119q-1 -1 -119 -80q46 2 134 -12q97 -38 97 -164v-10q-1 -7 -1 -10
q1 -3 4 -5q153 -6 153 -173zM1024 600q0 -56 -114 -56q-158 0 -311 135q-130 115 -207 277q-35 74 -35 111q0 36 24 36q13 0 18 -9q2 -3 40 -88q105 -234 241 -310q58 -32 107 -43q66 -6 132 -11q105 -12 105 -42zM365 1139q0 -32 -36 -32t-36 32t36 32t36 -32z" />
  </g>

</svg>
