<?xml version="1.0" standalone="no"?>
<!DOCTYPE svg PUBLIC "-//W3C//DTD SVG 1.1//EN" "http://www.w3.org/Graphics/SVG/1.1/DTD/svg11.dtd" >
<svg viewBox="0 -442 2048 2048">
  <g transform="matrix(1 0 0 -1 0 1606)">
   <path fill="currentColor"
d="M1814 739q0 -101 -6 -126q-3 -12 -47 -109q-45 1 -89 3q-59 4 -84 17q-21 11 -70 68q-43 50 -62 80q-23 48 -72 144q-26 48 -99 150q-55 9 -110 9q-33 0 -98 -84q-52 -67 -77 -118q-12 -25 -40 -99q-31 -80 -31 -94v-963h-54v1024q0 31 -13 79q-15 54 -33 71
q-32 32 -135 32q-17 0 -55.5 -40.5t-46.5 -59.5q-30 -78 -43 -242q-13 -168 -41 -244q-7 -20 -62 -80q-50 -55 -75 -76q-12 -10 -133 -75q-60 100 -119 200q-37 81 -37 236q0 113 17 174q53 190 108 257q14 18 77 55q56 33 86 45q91 37 172 37q32 0 103 -13q75 -13 100 -24
q45 -20 99.5 -90t67.5 -120q1 -3 8 -49q9 39 30 115q16 35 48 106q12 35 46 101q52 76 194 120q81 25 163 25q96 0 142 -13q181 -51 248 -249q23 -68 23 -180zM1760 732q0 122 -15 167q-25 74 -84 133q-61 63 -134 81q-52 13 -154 13q-53 0 -156 -39q-110 -42 -138 -78
q-9 -12 -40 -96q40 35 119 105h158q35 -45 99 -140q29 -64 96 -187q61 -93 100 -111.5t84 -18.5q-13 0 35 1q9 18 23 56q7 32 7 114zM824 836q-30 34 -102 86q-65 29 -180 29q-166 0 -292 -114q-13 -12 -62 -139.5t-49 -148.5q0 -17 -1 -50.5t-1 -50.5q0 -120 15 -176
q12 -43 49 -99q58 -87 61 -93q26 13 75 44q18 14 66 68t54 68q30 78 41.5 246.5t42.5 247.5q15 37 58 73l74 58z" />
  </g>

</svg>
