<?xml version="1.0" standalone="no"?>
<!DOCTYPE svg PUBLIC "-//W3C//DTD SVG 1.1//EN" "http://www.w3.org/Graphics/SVG/1.1/DTD/svg11.dtd" >
<svg viewBox="0 -442 2048 2048">
  <g transform="matrix(1 0 0 -1 0 1606)">
   <path fill="currentColor"
d="M1876 875q-3 -61 -74 -76q-9 62 -69 62q-39 0 -131 -46q-98 -49 -98 -82q0 -16 5.5 -47t5.5 -47q0 -58 -43 -88q-12 20 -94 185q-56 113 -113 172q17 7 34 7q26 0 71.5 -25.5t63.5 -25.5q52 0 152.5 42t143.5 42q107 0 146 -73zM1484 447q0 -91 -118 -154
q-62 -33 -197 -71q-76 -20 -228 -63q-114 -38 -344 -112q-234 -73 -338 -73q-79 0 -79 83q0 8 47 38q64 41 146 118l138 130q124 106 197 202q61 86 189 254q129 161 246 161q68 0 144 -102q54 -73 93 -165l64 -120q40 -76 40 -126zM1862 867q-13 18 -27 18q-27 0 -27 -42
q0 -11 3 -19q35 5 51 43zM1643 904q-158 -77 -200 -77q-19 0 -93 29l52 -76zM1197 754q-50 37 -83 147q-2 -26 -38 -88q-29 -51 -206 -213l-238 -220l15 -18l255 230q183 165 274 165q11 0 21 -3z" />
  </g>

</svg>
