<?xml version="1.0" standalone="no"?>
<!DOCTYPE svg PUBLIC "-//W3C//DTD SVG 1.1//EN" "http://www.w3.org/Graphics/SVG/1.1/DTD/svg11.dtd" >
<svg viewBox="0 -442 2048 2048">
  <g transform="matrix(1 0 0 -1 0 1606)">
   <path fill="currentColor"
d="M1884 935q0 -123 -5 -165q-11 -92 -11 -83v-151q0 -23 -47 -155q-6 -33 -26 -96q-51 -121 -112 -191q-22 -25 -101 -95q-83 -72 -104 -82q-16 -3 -48 -11q-23 -8 -67 -40.5t-72 -40.5q-14 -1 -40 -6q-14 -10 -43 -26q-5 -2 -61 -16q-242 -60 -440 -60q-143 0 -215 21
q-28 15 -87 41q-30 3 -88 22q-55 31 -158 162q-77 98 -77 234q0 96 56 201q10 21 33 60q6 8 43 31q110 69 1493 954l9 -2q60 -68 115 -234q5 -52 26 -154q27 -80 27 -118zM1662 917q0 58 -50 258q-17 40 -51 121l-1205 -759v-13q15 -51 21 -68q11 -23 33 -68q20 -51 70 -147
q129 -194 330 -245q115 -29 161 -29q73 0 217 58q197 79 281 166q30 31 80 98q59 107 83 231q0 17 3 51q27 198 27 346zM1840 814q0 124 -9 187q-7 50 -16 71q-5 9 -14 28q-2 7 -2 46t-38 124q-29 63 -57 125q-65 -33 -106 -65q47 -87 77 -238q4 -26 15 -76q19 -68 19 -82
q0 -75 -14 -213.5t-14 -204.5q0 -20 -18 -35q-25 -116 -102 -237q-29 -45 -93 -108q-68 -67 -111 -89q-20 -7 -59 -22q-27 -17 -84 -46q-106 -45 -161 -45q-218 0 -301 34q-114 46 -182 106q-127 111 -193 253q-33 71 -70 175q-35 -16 -102 -52q5 -39 33 -89q40 -73 45 -84
q4 -16 15 -47q47 -102 115 -178q143 -160 437 -231q6 -1 115 -11q6 -1 23 -4q14 -2 23 -2q14 0 116 28q97 28 120 37q17 10 52 25q9 2 28 7q86 33 183 120q41 35 83 69q45 39 73 80q14 12 38 40q12 31 38 91q19 35 49 108q11 40 24 103q3 34 10 103q15 112 15 199zM793 -215
q-52 14 -152 52q-17 11 -52 33q-22 12 -67 35q-209 111 -328 451v-26q0 -114 33 -241q40 -152 106 -212q14 -13 78 -44q-83 78 -117 178q-30 99 -61 199q7 -1 7 -5q63 -109 125 -219q81 -124 174 -177q43 -24 89 -24h165zM228 -53q-74 173 -74 301q0 64 6 127
q-42 -137 -42 -156q0 -80 32 -146q11 -24 78 -126zM1499 981q0 -30 -32 -30q-14 0 -91 49q14 14 66 14h14q43 0 43 -33zM1506 801q-8 -5 -23 -5q-23 0 -71 29l4 34h41q17 0 49 -16v-42zM1495 618q-9 -5 -28 -5q-24 0 -38.5 20.5t-28.5 40.5v22h42q18 -18 53 -44v-34z
M1280 781q-2 -4 -29 -21q-14 9 -42 40q-31 35 -31 46v13h37q-1 0 65 -52v-26zM1412 427q0 -28 -26 -28q-27 0 -38 28q-8 24 -16 49l5 26q11 0 34 -10q41 -34 41 -65zM1201 633q0 -27 -21 -27h-11q-7 0 -11 1q-16 28 -36 89h26q17 -14 33 -27q20 -18 20 -36zM1066 522
q0 -28 -25 -28q-12 0 -30 17v21q0 51 17 70q38 -12 38 -60v-20zM1273 291l-1 -14q-17 -17 -31 -17q-20 0 -26.5 9t-21.5 55.5t-15 56.5v26h13q14 0 45.5 -38.5t34.5 -54.5q2 -11 2 -23zM872 455q-8 -8 -28 -8q-13 0 -31 8q-1 11 -1 18q0 76 25 120h22q5 -17 11 -53
q2 -19 2 -44v-41zM1066 211q0 -34 -33 -34q-38 0 -38 57v24q0 34 13 46q24 -8 41 -21q17 -73 17 -72zM884 235q0 -34 -28 -34q-32 0 -32 60q0 47 26 47q13 0 16 -5q18 -27 18 -68zM594 499q0 -6 -14 -79q-17 -13 -30 -13q-23 0 -23 26q0 14 19 53.5t30 39.5q18 0 18 -27z
M705 277q-18 -17 -32 -17q-39 0 -39 36q0 -8 40 111h18q13 -28 13 -75v-55z" />
  </g>

</svg>
