<?xml version="1.0" standalone="no"?>
<!DOCTYPE svg PUBLIC "-//W3C//DTD SVG 1.1//EN" "http://www.w3.org/Graphics/SVG/1.1/DTD/svg11.dtd" >
<svg viewBox="0 -442 2048 2048">
  <g transform="matrix(1 0 0 -1 0 1606)">
   <path fill="currentColor"
d="M1852 931q-17 -11 -27 -10l-153 16q-2 0 -136 -22q51 -34 103 -68q64 -50 62 -95h-16q-6 0 -52 15q-52 17 -60 19q-22 5 -69 5q-103 0 -146 -15v-3q39 -2 102 -19q19 -12 49 -46t36.5 -52t6.5 -48v-42h-39q-2 27 -86 71q-1 0 -5 -2q55 -50 55 -109q0 -55 -28 -55
q-17 0 -32 31q-10 23 -20 45q-48 67 -147 67q-11 0 -26 -18q18 -6 50 -25q13 -54 13 -76q0 -7 -2 -20t-2 -19q-26 -9 -37 -9q-3 0 -60 56q-34 -28 -40 -57q-2 -9 -2 -70q0 -22 -25 -104q-22 -75 -35 -104q-22 -50 -161 -205q-133 -149 -186 -190q-8 -6 -95.5 -37.5
t-97.5 -31.5q-136 0 -212 29q-25 10 -83 53q-54 42 -75 65q-92 102 -92 331q0 5 42 78q66 114 78 133q46 74 91 123q74 81 169 131q50 26 133 54q112 37 136 47q2 2 5 6q2 36 40 58q32 19 71 19q31 0 39.5 -34t43.5 -34h22q-1 60 -44 93q-14 10 -95 47q3 14 6.5 27.5
t18.5 20.5q30 14 132 14q17 -18 35 -75q13 20 13 39q0 91 -57 91q-12 0 -33 -7q-1 6 -8 13q55 73 104 73q60 0 76 -71q14 8 14 24q0 17 -9.5 50.5t-9.5 50.5q0 7 3 21.5t3 22.5q0 53 -50 119q-44 50 -88 101q4 14 18 14q17 0 90 -40.5t88 -56.5q41 -44 95 -132q7 13 7 29
q0 8 -2.5 23t-2.5 23q0 16 8 28q14 0 26 -12h3q4 0 5 3q20 40 22 169l11 17h23q56 -124 56 -178q0 -6 -2 -17t-2 -16l2 -26q64 69 185 213h37l-5 -6q0 -6 4 -26q2 -16 2 -26q0 -60 -32 -100q112 25 111 25q6 0 20 -18l-80 -148q-48 -77 -115 -124q-11 -7 -23 -20l188 -3
q37 -1 85 -25q52 -26 67 -56zM1607 1402q0 4 -2.5 12.5t-2.5 12.5l-208 -246l5 -18q19 22 61 62q41 25 83 50q43 29 53.5 80.5t10.5 46.5zM1378 1330q0 38 -30 93q-3 -31 -11 -92q-2 -8 -12 -31t-10 -27q0 -8 18.5 -23.5t27.5 -15.5q17 68 17 96zM1682 1285h-17
q-11 0 -84 -38q-65 -33 -87 -47q-26 -24 -79 -70q0 -10 2.5 -28.5t2.5 -27.5q0 -18 -21 -97q79 69 157 139q87 81 126 169zM1793 950q-65 39 -150 39q-106 0 -180 -22q-15 -4 -31 -21q-23 -24 -26 -27l282 42q13 2 105 -11zM1386 1078q0 61 -29 101q-4 5 -73 74q4 -30 4 -52
q0 -33 -18 -90.5t-18 -86.5q0 13 40 -106q15 -1 45 22t36 38q13 36 13 100zM1223 1100q0 42 -17 117q-31 64 -80 103q-25 20 -111 67q36 -42 71 -84q49 -61 57 -88q1 -18 7 -44q25 -48 51 -66q8 -6 22 -5zM1654 788q-28 38 -104 69q-71 29 -123 29q-12 0 -139 -20
q-3 -31 -20 -82q80 47 191 47q103 0 195 -43zM1240 894q0 122 -98 225v-13q0 -18 2.5 -55t2.5 -56q0 -23 -12.5 -63.5t-12.5 -63.5q0 -19 -40 -58v-70q6 2 33 17q23 14 28 14l44 -31q53 72 53 154zM1528 614q-12 38 -42 76q-35 46 -67 46h-110q5 0 -48 27q-15 -18 -45 -53
q9 -11 51 -29q-5 7 -12 20q22 23 24 23q17 0 54 -22q43 -25 54 -28q25 -2 71 -15q23 -16 70 -45zM1078 969q0 99 -58 99q-13 0 -45 -16q27 -11 49 -41.5t22 -59.5q0 -36 -15 -96q47 17 47 114zM1425 556q-22 63 -56 83q-17 5 -33 10q-22 6 -22 21q-7 1 -21.5 5.5t-25.5 4.5
q11 -8 11 -17q0 -4 -3 -11.5t-3 -10.5q4 1 8 1q31 0 83 -34q20 -19 62 -52zM1220 654q-27 33 -74 74q0 -58 -21 -94h14q21 0 81 20zM999 860q-12 41 -22 53q-16 20 -51 20q12 0 -41 -5q-12 -7 -15 -13q23 -3 70 -22q3 -2 22 -20.5t23 -18.5q9 0 14 6zM1108 712
q-19 -16 -60 -44q-18 18 -18 28t8 30.5t8 30.5v38q-21 -6 -47 -5v-5q3 -42 -34 -58q-2 -7 -2 -17q0 -35 33 -56q46 -29 68 -29q19 0 33 35q11 28 11 52zM1256 516q0 24 -13 50h-56q-17 0 -18 -15q41 -14 81 -56q6 14 6 21zM1137 533q-51 22 -86 52q6 -35 6 -54
q0 -8 -3.5 -24t-3.5 -24h29q27 0 58 50zM907 709l-34 34q-23 25 -23 40q0 4 1 7q-15 9 -24 9q4 0 -56 -22q-2 -5 -9 -12zM1038 265h-169v-114h97q32 40 72 114zM812 151v114h-117v-114h117zM915 95h-46v-55q16 18 46 55zM1074 443q-19 9 -55 31q0 79 -18 133q-6 5 -46 26
q-26 14 -38 41q-26 8 -78 27q-5 2 -25.5 16.5t-22.5 14.5q-20 0 -143 -51q-112 -47 -146 -66q-197 -108 -323 -386q-26 -57 -26 -64q0 -81 17 -143q21 -79 60 -122q46 -52 126 -84q38 -5 112 -20v119h-138v53h139v129h-107v52h108v113h53v-111h117v226h53q2 -15 2 -29
q0 -15 -2 -26h120v142h54v-143h190q14 30 15 60.5t2 61.5zM812 -30q-1 1 -1 125h-116v-125h117zM638 -30v125h-113v-125h113zM765 -87h-70v-62zM639 -176v89h-114v-125h29q2 0 85 36z" />
  </g>

</svg>
