<?xml version="1.0" standalone="no"?>
<!DOCTYPE svg PUBLIC "-//W3C//DTD SVG 1.1//EN" "http://www.w3.org/Graphics/SVG/1.1/DTD/svg11.dtd" >
<svg viewBox="0 -442 2048 2048">
  <g transform="matrix(1 0 0 -1 0 1606)">
   <path fill="currentColor"
d="M1766 669q0 -147 -58 -382q-68 -273 -170 -448q-126 -215 -272 -215q-3 0 -85 10l-177 21q-16 1 -45.5 -7.5t-44.5 -8.5q-32 0 -89 23.5t-89 23.5q-23 0 -65.5 -17.5t-65.5 -17.5q-121 0 -234 133t-202 403q-87 261 -87 447q0 231 124 378q133 156 360 156
q63 0 160.5 -41t148.5 -41q24 0 64 131q31 100 110 182q83 85 181 110q91 23 162 23q17 0 60 -3q39 -3 61 -2q28 -111 28 -140q0 -114 -124 -201q349 -44 349 -517zM1491 1404q0 10 -12 77q-12 0 -38.5 2t-40.5 2q-189 0 -302 -107q-94 -88 -164 -283h36q4 0 20.5 13.5
t22.5 15.5q11 4 88 4q18 0 32 2q131 19 231 81q127 79 127 193zM1432 789v15h-14v-15h14zM1347 870v19h-18v-19h18zM1390 828v14h-15v-14h15zM1390 743v18h-15v-18h15zM1432 700v15h-14v-15h14zM1347 785v22h-22v-22h22zM1096 1051q-9 2 -26 8q-2 -7 -4 -22h16q14 0 14 14z
M1134 994v18q-7 4 -22 8q0 -5 -1.5 -15t-1.5 -15q8 4 25 4zM1473 590l-6 2l-5 -10l6 -3zM1432 619v14h-14v-14h14zM1390 658v18h-15v-18h15zM1347 696v22q-16 0 -21 5v-31q8 4 21 4zM1308 739v30q-5 0 -16 1.5t-17 1.5q3 -9 3 -21q0 -11 -3 -20q24 9 33 8zM1390 572v23h-15
v-23h15zM1347 615v26h-22v-26h22zM1432 530v18h-14v-18h14zM1308 654v26q-5 0 -15 1.5t-15 1.5q5 -15 5 -33q8 2 25 4zM1390 491v15h-15v-15h15zM1309 573v25q-5 0 -15 -1.5t-15 -1.5v-30h17q5 2 13 8zM1347 526v22h-18v-22h18zM1347 445v22h-18v-22h18zM1308 487v22h-25
v-22h25zM1384 402v15h-7v-15h7zM1388 335h-6l-5 -13l6 -2zM1266 441v30q-16 -4 -30 -4v-26h30zM1347 360v14h-18v-14h18zM1305 398v22h-19v-26q6 2 19 4zM1266 378q-22 0 -30 4v-22l26 -4zM1301 317v18h-15v-18h15zM1262 274v15h-22v-15h22zM1219 313v26h-25v-30q8 4 25 4z
M1262 193v11l-22 4v-15h22zM1219 228v22h-25v-22h25zM1177 271l-4 26q-10 -5 -22 -5q2 -3 2 -8q0 -10 -6 -21q16 8 30 8zM1262 108l-18 15v-15h18zM1219 143v26h-22v-22zM1173 207h-18v-22h14zM1216 62v14h-15v-14h15zM1169 100v26h-14v-26h14zM1167 19v14h-6v-14h6z
M1308 824v26q-23 -6 -29 0q2 -7 2 -13q0 -21 -26 -21q-27 0 -27 25q0 22 38 22v25q-8 6 -38 16q6 -14 6 -24q0 -26 -26 -26q-27 0 -27 31q0 24 27 24q4 0 10.5 -1.5t9.5 -1.5q-8 14 -8 29h-6q-18 0 -25.5 -19t-20.5 -19q-25 0 -25 29q0 21 30 26q-2 7 -4 22h-18v-6
q1 -25 -26 -25q-26 0 -26 26q0 7 5 16q-6 -2 -20 -2t-22 3q1 -7 1 -14q0 -29 -21 -29q-27 0 -27 28q0 18 40 19h2v34q-7 0 -21 1.5t-21 1.5q9 -8 9 -17q0 -28 -28 -28q-27 0 -27 29q0 21 27 21q3 0 9.5 -1.5t9.5 -1.5v4q0 11 23 23q27 15 31 21l-9 10q-19 -15 -59 -34
q-53 -13 -127 -13q-54 0 -154 39t-154 39q-132 0 -232 -69q15 5 25 5q7 0 10 -1q-1 -21 -20 -21q-9 0 -25 16q-10 -10 -33 -26q15 5 23 5q5 0 9 -2q1 -4 1 -13v-10q-1 -6 -2 -7.5t-5 -3t-6 -1.5q-10 0 -24 14q1 6 3 17l-37 -38q6 2 11 2q16 0 16 -16q0 -18 -14 -18
q-23 0 -18 27q-19 -19 -26 -33q16 -8 16 -25q0 -11 -16 -11q-12 0 -19 7q0 -3 -3.5 -9t-3.5 -9q5 -6 7 -15q-2 -16 -26 -23q-6 -19 -16 -56q12 12 20 12q21 0 21 -20q0 -15 -21 -15t-23 19q0 -5 -4.5 -14.5t-4.5 -15.5q0 -4 1.5 -11t1.5 -11q0 -5 -8 -22t-8 -26
q0 -12 16 -22v-19q-11 -10 -19 -10v-45q19 -3 19 -20q0 -6 -8 -17.5t-8 -17.5t3 -17t3 -16q4 -2 9 -9q0 -6 -1 -17t-1 -17q0 -17 6 -45q8 -34 9 -45q4 0 10.5 1.5t10.5 1.5q10 0 17 -13v-12q-16 -10 -30 -10q3 -15 12 -45q9 -9 18 -17v-27q0 -8 2 -15q5 11 16 11
q21 0 21 -21q0 -17 -17 -17q-10 0 -10 3v-13q8 -17 29 -51q-1 -5 -1 -12q0 -13 4 -20q16 8 20 8q21 0 21 -24q0 -18 -23 -23v-14l33 -66q5 2 9 2q21 0 21 -28q0 -14 -6 -19q2 -5 2 -14q19 19 28 19q25 0 25 -29q0 -26 -26 -26q8 -9 20 -30q-4 6 -4 12q0 27 26 27
q27 0 27 -23q0 -28 -25 -28q-9 0 -21 6q27 -47 129 -139q11 -6 32 -17v18q-42 3 -42 32q0 10 3 19q-4 -4 -16 -4q-25 0 -25 27q0 24 25 24q27 0 27 -25q0 -9 -5 -17q17 6 37 4q-1 4 -1 9q0 11 6 24q-3 0 -9 -1.5t-9 -1.5q-29 0 -29 29q0 21 27 21q25 0 25 -20q0 -12 -4 -26
q16 8 24 8q15 0 19 -16q7 -26 8 -27q13 7 28 2v5q-2 35 45 35h2q-2 6 -2 14q0 29 30 29q29 0 29 -33q0 -5 -2 -9q11 3 26 25q12 18 43 18v5q-1 33 29 33q29 0 26 -38h22q8 16 8 30q-6 -2 -11 -2q-27 0 -27 29q0 27 27 27q3 0 9.5 -1.5t9.5 -1.5q-5 7 -5 15q0 31 30 31
q7 0 18 -10v-34q-7 -7 -20 -7q-15 0 -22 4v-42h41q-1 7 -1 13q0 41 40 34q-1 8 -1 14q0 12 4 24q-12 -12 -18 -12q-25 0 -25 34q0 4 2 10q15 14 25 14q23 0 23 -22q0 -12 -5 -23q21 7 34 7v4q0 16 7 30q-7 -7 -18 -7q-27 0 -27 29q0 21 25 21q30 0 30 -23q0 -8 -7 -18
q34 0 81 42q6 52 40 46v34h-12q-11 0 -18 2q5 -9 5 -19q0 -29 -26 -29q-29 0 -29 29q0 25 35 25q9 0 14 -3q-4 7 -4 16q0 34 18 34q-2 0 17 -4q0 27 4 33q-3 0 -8.5 -1t-8.5 -1q-25 0 -25 29q0 25 21 25q4 0 11 -2.5t11 -2.5q-5 9 -5 16q0 38 34 38q5 0 9 -2q-2 7 -2 13
q0 21 44 26v29h-6q-19 0 -31 6q5 -14 5 -23q0 -21 -25 -21q-14 0 -18.5 4.5t-4.5 18.5q0 37 38 28q0 33 3 42q-4 -4 -18 -4q-12 0 -23 10v23q15 14 23 14q24 0 24 -28q0 -9 -4 -14q17 6 38 4q-4 9 -4 14q0 20 50 24v34q-3 0 -8.5 -1.5t-8.5 -1.5q-29 0 -29 31q0 26 46 23v34
h-24q-13 0 -22 14v23q15 14 31 14q3 0 9.5 -1.5t9.5 -1.5q-8 23 -1 41q-7 -7 -18 -7q-28 0 -28 40q0 25 47 13q-6 11 -6 18q0 31 40 30zM1096 15v26h-26v-26h26zM1135 -14l-22 5v-15q8 2 22 10zM1171 -57l-5 2l-5 -10l5 -2zM1049 -27v22h-22l-4 -22h26zM1092 -52h-18v-3
q0 -14 5 -19q13 13 13 22zM1050 -99l-19 5v-15h14q0 3 5 10zM1007 -62v18h-26v-30q14 0 26 12zM1043 -181l-5 2l-5 -9l5 -3zM1003 -151v14h-15v-14h15zM960 -112v22h-26q2 -7 4 -22h22zM921 -151v18h-22v-18h22zM956 -190q0 11 -6 11l-8 -11h14zM997 -223l-6 2l-5 -10l6 -2z
M836 -155v22q-9 2 -26 4v-26h26zM875 -194v15l-18 3v-18h18zM869 -279v14h-6v-14h6zM829 -236v14h-15v-14h15zM790 -198v22h-26v-22h26zM709 -172h-26v-26h22q0 18 4 26zM747 -218h-18v-22h14q2 7 4 22zM786 -279v14h-14v-14h14zM705 -261h-14v-22q14 13 14 22zM662 -240v26
h-22v-26h22zM579 -227q0 6 -3 9q-4 0 -12.5 2t-12.5 2v-30q4 0 13 2t13 2q2 4 2 9v4zM620 -287v22l-26 4v-26h26zM1108 909q-13 -12 -21 -12q-12 0 -25 12v26q12 12 23 12q10 0 23 -12v-26zM1142 879q0 -9 -8 -16h-22v8q-1 5 -1 8v12q0 3 1 6h26q4 -4 4 -11v-7zM1189 839
q0 -23 -25 -23q-21 0 -21 25q0 21 23 21t23 -23zM1236 798q0 -29 -26 -29q-29 0 -29 29q0 22 29 22q26 0 26 -22zM1143 796q0 -10 -9 -19h-17q-9 8 -9 19q0 20 17 20q18 0 18 -20zM1056 883v-4q0 -6 -3 -12q-4 -2 -8 -2q-3 0 -9 1t-9 1q0 5 -2 15t-2 15h30q3 -6 3 -14z
M930 1007q-8 -17 -20 -17q-6 0 -19 13v17q9 9 19 9q11 0 20 -9v-13zM1103 820q-3 0 -8 -2t-8 -2q-26 0 -26 25q0 17 26 17q3 0 8 -2t8 -2v-34zM1189 754q0 -27 -25 -27q-21 0 -21 27q0 23 21 23q25 0 25 -23zM972 964q-9 -17 -21 -17t-21 17v13q9 9 21 9q3 0 21 -9v-13z
M1015 928q0 -5 -9 -23q-9 -4 -10 -4q-12 0 -20 17l5 25h25q9 -8 9 -15zM1236 709q0 -25 -28 -25q-27 0 -27 27q0 23 27 23q28 0 28 -25zM1058 798q0 -4 -2.5 -9.5t-2.5 -7.5l-30 4v26q3 0 9.5 2.5t9.5 2.5q16 0 16 -18zM930 924q0 -6 -9 -15h-21l-5 4v22q9 8 17 8
q18 0 18 -19zM1236 626q0 -23 -28 -23q-27 0 -27 23t27 23q28 0 28 -23zM1142 722q0 -6 -2 -16.5t-2 -16.5h-26q0 3 -2 9.5t-2 10.5q0 18 17 18q4 0 9.5 -2.5t7.5 -2.5zM840 999q-8 -9 -17 -9q-11 0 -17 13v17q9 9 14 9q4 0 10.5 -2.5t9.5 -2.5v-25zM1100 743l-9 -8h-13
q-7 5 -17 17q4 17 24 17q4 0 8.5 -2t6.5 -2v-22zM1189 671q-13 -26 -25 -26q-21 0 -21 22q0 3 2 8.5t2 8.5q3 0 9.5 2t9.5 2q14 0 23 -17zM879 982v-13q0 -14 -5 -18q-4 0 -10.5 2.5t-10.5 2.5v2q0 2 -1 6.5t-1 6.5q0 5 2 11h26zM968 871q-9 -9 -15 -9q-3 0 -9.5 2.5
t-9.5 2.5l4 30l30 -5v-21zM1009 843v-6q0 -9 -7 -17h-13q-4 2 -13 21q3 5 9 13h21q3 -5 3 -11zM709 1037h-22q-5 6 -5 14q0 11 9 20q10 0 18 -9v-25zM1236 539q0 -21 -26 -21q-29 0 -29 21q0 25 29 25q26 0 26 -25zM929 846q0 -6 -8 -22h-17l-9 12q0 5 9 14q4 0 12.5 -2
t12.5 -2zM1142 612q-9 -9 -17 -9q-17 0 -17 23q0 19 17 19q9 0 17 -8v-25zM1100 658q-9 -9 -15 -9q-3 0 -9.5 2.5t-8 4t-2.5 6.5t-1 8q0 5 2 10q3 0 9.5 2t9.5 2q6 0 15 -9v-17zM841 926q-8 -17 -18 -17q-4 0 -8 2t-5 2q-2 6 -4 18l9 8h17q3 -5 9 -13zM968 794
q-13 -13 -15 -13q-4 0 -9 2t-6 2q-2 6 -4 18q9 9 26 9q8 -8 8 -18zM1007 765l-4 -26h-19q0 1 -2 6t-2 9q0 2 13 15q5 -2 14 -4zM879 871q-6 -3 -11 -3h-4q-5 0 -11 3q0 8 -4 12l13 14l17 -5v-21zM752 999l-10 -9q-17 8 -21 17q0 13 17 22q5 0 14 -9v-21zM1056 709v-4
q0 -6 -3 -12q-3 -2 -7 -2h-3q-3 0 -8 1h-8q0 5 -2 15t-2 15h30q3 -6 3 -13zM794 978l-4 -23h-22l-8 9q0 18 17 18q3 0 8.5 -2t8.5 -2zM1189 584q0 -28 -21 -28q-7 0 -16 10.5t-9 17.5q0 3 2 9.5t2 9.5h21q21 0 21 -19zM926 761l-5 -19l-22 5l5 18zM1108 584q0 -24 -23 -24
q-24 0 -24 25q0 10 9 18h33q0 -3 2.5 -9.5t2.5 -9.5zM1146 530q-6 -12 -21 -12q-8 0 -17 8v26q9 8 19 8t19 -8v-22zM705 978l-6 -19q-10 1 -10 11q0 4 2 8h14zM628 1062l-5 -25l-29 4v26q3 0 8.5 1.5t8.5 1.5q11 0 17 -8zM875 785l-18 5l4 21h14v-26zM666 998q-4 0 -10.5 -2
t-10.5 -2q-9 9 -9 17q0 12 13 18q9 0 17 -9v-22zM790 883q0 3 -4 -12h-14q0 2 -1 5.5t-1 5.5v4q0 4 2 7h14q4 0 4 -10zM1056 628v-6q0 -6 -3 -15l-11 -4q-7 0 -19 13v21q5 0 15 2t15 2q3 -6 3 -13zM745 919q0 -1 -2 -6q-9 0 -14 5v13q4 2 14 4q1 -4 2 -12v-4zM836 846
q0 -15 -13 -22q-5 2 -13 8v14l5 4q4 0 10.5 -2t10.5 -2zM1007 658q-6 -2 -18 -5q-9 9 -9 14q0 9 5 13l22 -4v-18zM967 707q0 -15 -14 -15q-19 0 -19 17q0 4 2 8t2 5h26q3 -6 3 -12v-3zM581 1084l-9 -9q-15 3 -21 26h30v-17zM1108 498q0 -4 -2.5 -9t-2.5 -6q-3 0 -8 -2t-8 -2
q-17 0 -26 17q4 22 26 22q21 0 21 -20zM1146 445q-7 -12 -21 -12q-8 0 -17 8v30q9 8 17 8q14 0 21 -13v-21zM926 675l-5 -18l-22 5l5 18zM1058 539q0 -4 -2.5 -9.5t-2.5 -7.5h-21l-9 9v17q8 8 19 8q16 0 16 -17zM1007 594l-4 -26h-18q-1 3 -2 8v4q0 9 6 19zM582 1011
q0 -17 -14 -17q-8 0 -17 9v17q6 2 17 9q14 -14 14 -18zM699 874h-7v15h7v-15zM620 972q0 -8 -5 -13h-13q-6 6 -6 12q0 1 2 7l22 -4v-2zM539 1041q-4 -4 -15 -4q-13 0 -20 8v17q9 9 19 9q7 0 16 -9v-21zM786 793q-6 -4 -10 -4q-4 7 -4 15q14 0 14 -11zM968 624q-4 -6 -13 -17
q-21 8 -21 17q0 10 17 18q7 -5 17 -18zM875 710q-2 -5 -4 -14q-10 10 -10 19q9 0 14 -5zM829 761q0 -14 -8 -19q-5 4 -7 19h15zM500 1094q-9 -19 -21 -19q-10 0 -17 15q13 0 38 4zM1011 498q0 -6 -9 -15l-21 5v25q1 0 6 2.5t9 2.5q15 0 15 -20zM1108 395q-10 -9 -21 -9
q-7 0 -25 8v30q13 12 23 12t23 -12v-29zM1154 369q0 -25 -29 -25q-25 0 -25 27q0 23 25 23q29 0 29 -25zM875 620l-6 -3h-2l-6 3v17q14 -5 14 -17zM1059 456v-6q0 -4 -2 -13h-25q-13 5 -13 19q0 11 9 19h29q0 -3 1 -9t1 -10zM926 577l-9 -9q-9 0 -18 8v15l5 4l22 -4v-14z
M454 1054q0 -8 -9 -17h-17l-9 8v13q11 13 17 13q18 0 18 -17zM492 998q-6 -2 -18 -4q-9 9 -9 15q0 13 14 20q5 -3 13 -9v-22zM829 658h-15v18h15v-18zM535 974q-2 -5 -4 -15h-14q-3 5 -9 14q2 0 6.5 1t6.5 1h7q4 0 7 -1zM964 552q0 -22 -4 -30h-22q-2 7 -4 22l9 8h21z
M1108 313q-12 -12 -21 -12q-12 0 -25 12v26q7 12 25 12q15 0 21 -12v-26zM927 497v-2q0 -5 -2 -8h-26q-1 -8 -1 10v5q0 2 2 8h25q2 -11 2 -13zM1058 370v-12q0 -3 -1 -6h-25q-5 2 -13 8v14l13 12h25v-8q1 -5 1 -8zM1011 409q0 -4 -2 -9t-2 -6h-22q-5 6 -5 14q0 12 9 21
q22 -8 22 -20zM966 454l-2 -13h-26q0 1 -2 5t-2 8q0 11 13 17h17q0 -3 1 -8.5t1 -8.5zM829 573h-3q-8 0 -12 4v18q15 -5 15 -18v-4zM411 1020q0 -4 -2 -13t-2 -13h-7q-4 -1 -7 -1h-7q-2 0 -9 2v25q9 9 15 9q10 0 19 -9zM786 619h-14v14h14v-14zM449 978q0 -4 -2 -11.5
t-2 -11.5h-17l-5 5v18q14 3 12 3q2 0 7 -1.5t7 -1.5zM875 548l-4 -26q-5 0 -14 8v15zM968 381l-4 -25h-26q-1 3 -1 6v7q0 8 6 17zM1015 326q0 -21 -21 -21q-9 0 -17 9v29q3 0 9.5 2t9.5 2q19 0 19 -21zM1112 237q0 -25 -25 -25q-12 0 -29 16v22q13 12 27 12q27 0 27 -25z
M927 408v-6q0 -5 -2 -8h-21q-9 9 -9 15q0 16 9 16h21q0 -3 1 -8.5t1 -8.5zM829 491h-15v15h15v-15zM875 467l-4 -26q-5 2 -14 4l4 22h14zM1061 271q-7 -13 -21 -13q-11 0 -25 13v26q18 8 25 8q11 0 21 -9v-25zM790 544q0 -10 -5 -15l-17 5l4 14zM369 959q-9 -8 -20 -8
q-13 0 -19 13l5 18h29l5 -5v-18zM403 931l-4 -18h-14q0 3 -5 12l9 11q4 -2 14 -5zM1061 186q-9 -3 -17 -3h-10q-7 0 -19 3v21q7 13 25 13q12 0 21 -9v-25zM928 326q0 -7 -3 -13h-26q-2 6 -4 18l9 8h21q3 -6 3 -13zM879 360q-4 -2 -9 -2q-3 0 -8.5 1t-8.5 1v3q0 11 4 19
l22 -4v-18zM1015 237q0 -4 -2 -8t-2.5 -4.5t-5.5 -2.5t-9 -2q-11 0 -20 8v22q9 8 18 8q21 0 21 -21zM790 459q0 -9 -5 -14h-13q0 2 -1 5.5t-1 5.5q0 1 2 7zM365 888l-5 -18h-17q-6 6 -6 16q0 1 2 7zM318 939l-4 -30q-10 0 -18 9v17q4 0 11 2t11 2zM837 403q-5 -5 -9 -8h-1
q-3 0 -8.5 1.5t-8.5 1.5l4 22h19q2 -6 4 -17zM968 271q-9 -9 -15 -9q-3 0 -9.5 2.5t-9.5 2.5v30h8q5 1 8 1h8q3 0 10 -2v-25zM930 233l-9 -9l-26 4l5 26h25q2 -7 5 -21zM1019 158q0 -27 -23 -27q-24 0 -24 25t22 25q25 0 25 -23zM972 186q-5 -5 -14 -5h-9q-11 0 -19 8v19
q9 8 21 8t21 -9v-21zM837 317q-4 -2 -10 -2h-8q-5 0 -9 2v18l27 -4v-14zM748 412q0 -14 -14 -14q-4 5 -5 19zM794 369q-14 -14 -15 -14q-3 0 -7.5 2.5t-7.5 2.5l4 18h18zM1061 97q-6 -13 -19 -13q-31 0 -31 27q0 24 27 24q13 0 23 -9v-29zM879 289l-4 -19h-18q-2 5 -8 14
q9 9 16 9h3q4 -2 11 -4zM355 797q0 -4 -4 -8l-9 10q6 5 10 5zM318 850l-5 -26q-7 5 -18 17l9 9h14zM279 871q-9 -9 -18 -9l-12 13l4 21h22q0 -4 2 -12.5t2 -12.5zM930 154q0 -19 -20 -19q-19 0 -19 21q0 14 22 25q17 -13 17 -27zM976 111q0 -23 -27 -23q-19 0 -19 23
q0 24 23 24t23 -24zM838 237q0 -5 -2 -9h-25q-3 3 -3 9v5q0 5 3 7.5t8 2.5q3 0 8.5 -1t8.5 -1q0 -2 1 -6.5t1 -6.5zM280 798q-16 -17 -14 -17q-4 0 -8 2t-5 2v22l9 5q11 0 18 -14zM318 761l-4 -18q-11 0 -11 14q0 1 1 4h14zM663 412q0 -14 -15 -14q-2 2 -5 7v4q0 5 4.5 8
t4.5 4zM883 190q-9 -9 -15 -9q-19 0 -19 16q0 15 8 15h22q0 -4 2 -11t2 -11zM705 374q0 -14 -7 -19q-6 4 -8 19h15zM745 324q0 -5 -3 -11h-2q-12 0 -12 15l1 8h14q2 -2 2 -7v-5zM791 282q0 -1 -1 -7h-26v14q27 -3 27 -7zM234 843v-6q0 -9 -6 -17h-13q-9 8 -9 16v5q0 3 2.5 7
t2.5 6h22q1 -8 1 -11zM840 139q-3 0 -8.5 -2t-8.5 -2q-11 0 -17 12v18q14 12 17 12q9 0 17 -9v-29zM748 232l-18 -4l-5 4v14q5 3 13 9q10 -10 10 -23zM705 275h-19l5 14q14 0 14 -14zM887 113q0 -16 -17 -25q-21 5 -21 25q0 18 21 18q17 0 17 -18zM662 335v-3q0 -11 -4 -19
h-14q-1 -9 -1 14v3q0 3 1 5h18zM930 71q0 -4 -2.5 -10.5t-2.5 -10.5q-2 0 -7 -2t-8 -2q-23 0 -23 23q0 19 22 19q21 0 21 -17zM318 657l-19 5l5 14h14v-19zM233 765l-5 -26l-18 4v22h23zM276 710q-2 -4 -5 -14h-14q0 2 -1 6v6v4q0 1 1 7q10 0 19 -9zM620 369q-3 -5 -9 -14
q-4 2 -13 5v14zM794 203l-4 -18h-22q-8 8 -8 12q1 2 4 11zM891 26q0 -23 -23 -23t-23 25q0 21 21 21q25 0 25 -23zM276 629q-2 -4 -5 -14h-14q0 1 -2 5t-2 8q0 1 13 14q3 -5 10 -13zM318 573h-15l-3 18q5 2 14 4zM667 237q-9 -9 -18 -9v1q-4 3 -9 3q2 6 4 18h14q3 -5 9 -13z
M844 62q-7 -13 -19 -13q-3 0 -9 2.5t-7.5 3t-4 5.5t-2.5 9q0 19 21 19q5 0 21 -8v-18zM746 160v-6q0 -6 -3 -15q-18 0 -18 17q0 3 2 8.5t2 8.5h14q3 -6 3 -13zM577 318q-3 -3 -8 -3h-5q-5 0 -9 2v18h22v-17zM706 192q0 -1 -2 -7h-13l-9 10q5 5 5 13h18q0 -3 1 -10v-6z
M620 274h-22q-1 3 -2 10l2 5l22 -4v-11zM233 675l-5 -22l-18 5l5 22zM531 374l-5 -19q-10 10 -10 15q0 1 1 4h14zM354 538q-1 -7 -3 -9l-9 10l9 10q3 -3 3 -8v-3zM202 709q0 -21 -21 -21q-19 0 -21 26l9 8h29q0 -1 2 -5t2 -8zM794 112q0 -12 -9 -20h-13q-7 3 -16 22
q3 5 9 13h24q5 -5 5 -15zM666 143q-4 0 -11 -2t-11 -2l-4 34l26 -4v-26zM360 445h-13q-5 5 -5 6v6q0 4 4 6.5t4 3.5q6 -4 10 -4v-18zM318 491h-19l5 15h14v-15zM849 -18q0 -22 -28 -22q-23 0 -23 22q0 25 25 25q26 0 26 -25zM707 110q0 -8 -3 -14h-13q-9 9 -9 15q0 16 9 16
h14q2 -4 2 -9v-8zM577 232q0 -4 -9 -4q-4 0 -8 2t-5 2v14l9 5q8 0 13 -5v-14zM752 79l-5 -25h-17q-9 9 -9 15q0 2 13 15zM233 594l-5 -26l-18 5l5 26zM624 205v-3q0 -9 -5 -17l-26 5l5 18h25q1 -1 1 -3zM535 284l-5 -10h-18q0 2 -1 5v5l2 5zM202 620q-8 -17 -19 -17
q-3 0 -9.5 2t-8 3.5t-3.5 7t-2 8.5q0 18 21 18q12 0 21 -9v-13zM798 19q-6 -12 -19 -12q-23 0 -23 21q0 4 2 8t3.5 4.5t8 3t9.5 2.5q9 0 19 -9v-18zM446 360q-5 -1 -9 -5q-6 5 -10 5v14h19v-14zM488 335l-4 -22q-10 0 -19 9l5 13h18zM276 539q-9 -9 -9 -17q-14 14 -14 17v3
q0 1 5 6h13q1 -5 5 -9zM399 398q-12 4 -15 18h15v-18zM713 11h-8q-6 -1 -9 -1h-6q-5 0 -6.5 1.5t-3.5 6t-2 8.5q0 20 18 20q9 0 17 -9v-26zM580 161v-8q0 -4 -3 -10q-4 -2 -7 -2q-7 0 -19 6v17l8 9h18q3 -6 3 -12zM628 109q-3 -5 -9 -13l-26 5l5 26h21q9 -9 9 -18zM667 79
v-6q0 -10 -5 -19l-26 4v22q5 0 15 2t15 2q1 -2 1 -5zM202 539q0 -9 -9 -17h-29q0 3 -2 8.5t-2 8.5q0 17 23 17q19 0 19 -17zM233 487l-23 5l5 18h18v-23zM492 245l-4 -17h-18q-4 0 -5 9q0 11 14 18q5 -3 13 -10zM806 -59q0 -27 -27 -27t-27 27t27 27t27 -27zM276 462
q0 -4 -2.5 -10.5t-2.5 -10.5l-18 4v22h9l3 2q4 0 11 -7zM535 190q-6 -3 -10 -3h-7q-4 0 -10 3l5 18h22v-18zM450 284q-2 -4 -5 -14h-17q-2 2 -5 8v4q4 4 8 11q10 0 19 -9zM364 360q-1 -1 -3 -1h-5q-13 0 -22 5q0 5 9 14l21 -4v-14zM755 -35q-3 0 -8.5 -2.5t-8.5 -2.5
q-25 0 -25 22q0 25 25 25q11 0 17 -13v-29zM318 420l-4 -26q-5 2 -15 4l5 22h14zM401 330v-7q0 -6 -2 -10q-10 0 -19 9l5 14h14q2 -2 2 -6zM200 454q0 -7 -3 -13h-33q0 1 -2 5t-2 8q0 21 21 21q3 0 8 -2t8 -2q3 -6 3 -13v-4zM628 16q-6 -3 -13 -3h-7q-6 0 -15 3l5 25l30 -4
v-21zM279 360l-26 -4q-1 3 -1 7v6q0 10 5 17h14q8 -8 8 -26zM674 -27q-10 -9 -21 -9q-14 0 -21 13v14q6 12 21 12q3 0 21 -8v-22zM407 228h-26v22l8 5q10 0 18 -9v-18zM492 147l-9 -8q-18 6 -18 19q0 4 2.5 9t2.5 6l22 -4v-22zM717 -59q0 -27 -19 -27q-24 0 -24 27
q0 23 22 23q21 0 21 -23zM237 415l-5 -21h-21q0 1 -2.5 6t-2.5 9q0 14 13 20q11 0 18 -14zM450 203l-5 -18l-22 5l5 18zM581 80l-4 -26h-26q-2 7 -4 21q5 3 13 9zM368 289q0 -11 -8 -19l-26 5l5 18zM318 339l-5 -30q-7 2 -18 9l5 21h18zM538 112q0 -13 -8 -20h-13
q-13 5 -13 19q0 7 9 16h21q4 -4 4 -15zM755 -120q-10 -9 -17 -9q-11 0 -25 13v26q12 12 27 12q5 0 15 -9v-33zM682 -101q0 -28 -29 -28q-25 0 -25 26q0 25 25 25q29 0 29 -23zM411 158q0 -3 -2 -9.5t-2 -9.5h-8q-5 -1 -8 -1h-5q-3 0 -4 2t-3.5 8.5t-2.5 9.5q0 19 16 19
q19 0 19 -19zM241 326q0 -3 -2 -8.5t-2.5 -7t-5.5 -3.5t-9 -2q-7 0 -16 8v26q5 2 13 8q22 -11 22 -21zM585 -27q-10 -9 -17 -9q-3 0 -21 8v23q9 8 21 8q8 0 17 -8v-22zM539 15q-6 -2 -13 -2h-6q-9 0 -16 7v13l9 9l26 -5v-22zM454 111q0 -8 -5.5 -12.5t-11.5 -4.5h-4
q-5 0 -8 2t-3 7v4q0 10 6 20h17q9 -9 9 -16zM496 75q0 -4 -2 -10.5t-2 -10.5h-22q-8 7 -8 15q0 3 2 7.5t2 7.5q21 0 30 -9zM632 -61q0 -25 -21 -25q-26 0 -26 27q0 23 24 23q23 0 23 -25zM368 185h-9q-6 -1 -9 -1h-10q-3 0 -5 1l-5 5v14q9 8 19 8q3 0 9.5 -2t9.5 -2v-23z
M284 284q0 -22 -20 -22q-19 0 -19 22q0 17 19 17q20 0 20 -17zM323 237v-7q0 -3 -1 -6q-4 -2 -8 -2h-6q-3 0 -8 1t-8 1q-5 5 -5 7v5q0 15 17 22h14q5 -10 5 -21zM287 198q0 -17 -23 -17q-14 0 -23 5v21q6 13 23 13q23 0 23 -22zM500 -16q0 -4 -2 -9t-3 -5.5t-6.5 -3
t-9.5 -2.5q-7 0 -17 9v22q9 8 19 8q19 0 19 -19zM458 19q-6 -12 -22 -12q-21 0 -21 21q0 4 2.5 8t4 4.5t7.5 3t9 2.5q10 0 20 -9v-18zM636 -142q0 -29 -25 -29q-29 0 -29 31q0 19 27 19t27 -21zM415 71q0 -22 -23 -22q-19 0 -19 20q0 19 21 19q3 0 8.5 -2t8.5 -2q0 -1 2 -5
t2 -8zM547 -59q0 -4 -2.5 -11.5t-2.5 -11.5q-3 0 -8.5 -2t-8.5 -2q-12 0 -25 12v26q12 12 23 12q24 0 24 -23zM326 139q-9 -8 -17 -8q-25 0 -25 25t27 25q6 0 15 -8v-34zM589 -101q0 -24 -21 -24q-18 0 -25 13v18q8 8 23 8q23 0 23 -15zM368 93q-3 0 -8.5 -2.5t-8.5 -2.5
q-25 0 -25 23q0 20 25 20q9 0 17 -9v-29zM415 -18q0 -22 -25 -22q-7 0 -17 9v26q12 12 19 12q23 0 23 -25zM462 -59q0 -27 -28 -27q-6 0 -19 12v26q11 12 19 12q28 0 28 -23zM372 15q-13 -12 -23 -12t-23 12v26q18 8 25 8q15 0 21 -12v-22zM500 -116q-10 -9 -21 -9
q-21 0 -21 22q0 8 9 17h28l5 -5v-25zM326 54q-9 -8 -15 -8q-27 0 -27 25q0 17 14 17h23l5 -5v-29zM461 -159q-13 -12 -25 -12q-25 0 -25 29q0 21 25 21q7 0 25 -8v-30z" />
  </g>

</svg>
