<?xml version="1.0" standalone="no"?>
<!DOCTYPE svg PUBLIC "-//W3C//DTD SVG 1.1//EN" "http://www.w3.org/Graphics/SVG/1.1/DTD/svg11.dtd" >
<svg viewBox="0 -442 2048 2048">
  <g transform="matrix(1 0 0 -1 0 1606)">
   <path fill="currentColor"
d="M1692 1289q0 -21 -9 -35h-375q-9 0 -16 -7q-70 -4 -209 -11q-45 1 -106 -12q0 -26 16 -53q13 -22 44 -30q51 -14 52 -14q107 -49 101 -49q5 0 5 4t5 4q-8 0 30 -15q22 -8 90 -51q14 -4 39 -18q83 -68 127 -140q8 -7 21 -23q82 -122 82 -268q0 -10 5.5 -23t6.5 -19
q3 -30 8 -88q9 -99 9 -103q0 -51 -42 -196q-7 -27 -26 -79q-95 -184 -289 -303q-106 -65 -197 -81q-22 -3 -65 -9q-11 -7 -35 -17q-22 -5 -96 -5q-53 0 -152 14q-112 16 -145 34q-169 94 -192 110q-88 61 -151 160q-49 77 -73 168q-13 17 -33 55q-9 24 -22 121l-14 15v204
q0 5 10 13.5t12 11.5q2 22 6 61q4 26 24 68q24 50 29 66q26 79 94 163q65 81 138 129q64 42 220 94q31 10 167 42q7 9 7 30q0 -7 -5 44q-15 17 -36 21q-70 13 -164 26q-15 2 -68 17q-49 13 -61 13h-152q-4 0 -8 4t-8 4h-109q-4 0 -11 4t-11 4q1 0 -12.5 -4.5t-29.5 -3.5
q-1 23 -24 88q-2 7 -12 7v18q16 8 31 8q-15 0 34 -10q25 -1 74 -3q23 -6 67 -17q60 -7 179 -26q21 -7 63 -17q94 -6 281 -30q9 -2 50 -14q37 -12 44 -12h327q19 0 57.5 8t57.5 8h222q13 0 39 6t39 6q23 0 25 -24v-40q4 -3 20 -3zM1551 1283l-26 6l-5 -6h31zM1606 1324h-115
q13 0 -59 -10q-38 -5 -141 -11q-23 0 -66 -4q-4 -1 -9 -7.5t-10 -6.5h-316q-5 0 -11.5 6.5t-8.5 7.5q-29 11 -86 28q-5 1 -51 1q-13 0 -21.5 5.5t-9.5 5.5q-22 2 -67 6q-103 10 -328 47q-11 2 -51 14q-36 12 -44 12h-75q8 -24 28 -30q42 -13 290 -38q104 -11 187 -27
q34 -12 102 -33q3 -1 44 -1q13 0 21 -8q12 -12 17 -14q12 -6 25 -11q8 -5 17 -24q4 -1 13 -7t14 -6q4 0 6 2t6 2q5 0 7 -26q0 -16 1 -32h4q7 0 11 -3v-21h-66q-4 -19 -18 -28q-7 -1 -7 2q0 1 1 1v14l12 13q-4 0 -11 3t-11 3q-8 0 -72 -17q-72 -20 -80 -22q-57 -13 -122 -37
q-21 -13 -66 -33q-88 -30 -155 -111q-25 -22 -68 -70q-1 -9 -6 -24q-14 -11 -37 -39q-5 -20 -18 -59q-15 -28 -41 -86q-5 -34 -18 -102q-14 -60 -14 -55q0 -23 -2 -69.5t-2 -69.5q0 -58 32 -143q4 -10 34 -62q27 -47 27 -55q0 -10 -10 -27q33 -72 125 -176q35 -40 137 -94
q26 -9 74 -30q6 -7 20 -17q21 -10 118 -28q92 -16 119 -16q6 0 18 11.5t23 11.5q4 0 6 -3v-10l-8 -10h18q31 19 46 19q8 -15 13 -15q2 1 19 20q14 15 19 15q17 0 15 -12q22 19 63 39l3 -3q0 -26 -4 -32q14 19 28 39q22 27 34 27q13 0 16 -10.5t5 -20.5q44 38 50 60q1 1 9 2
h7l3 -2v-28q18 3 21 26t31 24l3 -3v-24q14 16 37 51q3 11 10 32q5 10 27 10q7 0 10 -7q6 22 28 49q32 6 35 29t29 23q2 0 4 -2v-21q23 68 44 67l21 45q10 1 28 6q1 20 9 55q13 18 29 51q25 115 25 129q0 4 -4 8t-4 8v122q0 20 -25 168q-4 5 -13 16q-12 82 -83 180
q-13 26 -40 61q-44 40 -137 114q-23 16 -64 16q-12 0 -26 12q-17 13 -24 15q-26 6 -78 22q-90 34 -83 34q-3 0 -8.5 -2t-8.5 -2q-7 0 -9 1q-9 10 -21 33q-1 2 -25 89l10 9q11 0 32 6.5t27 6.5h97q5 0 14.5 4t13.5 4h103q0 5 7 11h135q17 0 161 26q30 -1 80 17z" />
  </g>

</svg>
