<?xml version="1.0" standalone="no"?>
<!DOCTYPE svg PUBLIC "-//W3C//DTD SVG 1.1//EN" "http://www.w3.org/Graphics/SVG/1.1/DTD/svg11.dtd" >
<svg viewBox="0 -442 2048 2048">
  <g transform="matrix(1 0 0 -1 0 1606)">
   <path fill="currentColor"
d="M1921 1280q0 -157 -14 -227q-19 -50 -52 -150q-22 -79 -64 -150q-7 -12 -91 -135q-5 -11 -18 -32q-117 -165 -409 -389h88q93 0 135 -8q15 -3 44 -18q23 -12 64 -12q51 -76 53 -140q7 -5 7 -14q0 -69 -13 -110q-7 -22 -62.5 -82.5t-75.5 -67.5q-6 -2 -51 -2q-7 0 -11 2
q-39 20 -165 161q-110 122 -165 122q-5 0 -84 -39q-84 -42 -97 -47q-7 0 -20 -2q-60 -20 -224 -94q-136 -62 -235 -84q-15 -3 -50 -24q-30 -18 -51 -18q-4 0 -12 4t-12 4q-6 0 -21 -8t-22 -8q-22 0 -74.5 36.5t-52.5 56.5q0 7 4 19t4 18q28 8 64 55q46 59 64 74
q236 190 236 211q0 10 -7 17q-1 13 -1 67q-5 1 -10 7q-19 -39 -89 -39q-15 0 -44.5 2t-44.5 2q-2 0 -16 9q-1 22 -2.5 46.5t-14.5 39.5q-8 1 -11 1q-57 0 -114 -91q-12 -20 -47 -36q-2 -1 -12 -1q-8 0 -11.5 3t-20.5 18q-11 11 -11 25q0 76 17.5 118.5t56.5 90.5
q42 53 78 71q4 2 43 13q26 7 38 24q15 21 95 264q2 25 18 72q30 48 74 48q-14 0 46 -15q7 -2 102 -33q62 -21 104 -21q39 0 118 7t118 7q91 0 139 -52q66 48 128 125q54 72 108 143q15 14 43 44q50 59 158 171q20 24 63 69q83 81 167 81q7 0 13 -2q51 -18 63 -34
q3 -4 26 -65q9 -15 21 -47q2 -14 2 -51zM1870 1283q0 10 -34 128q-36 24 -52 24q-77 0 -308 -277q-50 -69 -153 -206q-48 -61 -173 -176q22 -78 22 -233q0 -56 -31 -136q-42 -108 -48 -131q-6 -26 -23 -43t-18 -21q-2 -18 -10 -53q62 15 182 56q39 17 95 68q10 13 32 37
q49 35 141 116q54 55 135 162q3 8 10 24q14 18 42 55q71 97 98 155q5 22 18 67q75 199 75 384zM1620 26q0 7 -11 13v15q0 109 -295 109q-5 0 -14.5 -3t-13.5 -4q-62 -4 -186 -24l-1 5q-115 -25 -143.5 -47t-38.5 -22q-20 0 -20 18q0 14 19 25q25 15 27 18q47 63 117 217
q10 15 22 44q2 14 25 99q16 61 16 100q0 141 -14 177q-8 7 -25 24q-4 11 -15 31q-10 2 -30 10q-34 19 -82 19q-24 0 -72.5 -4t-72.5 -4q-116 0 -197 17q-25 5 -107 51q-16 -17 -40 -53q-98 -244 -98 -416q0 -19 -7 -55t-7 -55q0 14 20 -52q26 -10 41 -10q5 0 27 6
q3 11 11 31q27 29 73 95q15 39 54 114q24 27 68 84q21 27 60 82q4 11 14 32q8 12 55 57t58 51q19 10 54 10q17 0 137 -12q0 -11 6 -32t6 -32q0 -15 -16 -25l4 -13l-2 -5q-4 5 -3 15q-6 1 -33 12q-23 9 -29 9q-21 0 -63.5 -10.5t-66.5 -9.5q-10 -16 -48 -54q11 -2 13 -28
q14 -22 14 -41q0 -24 -38 -138.5t-54 -138.5q-104 -157 -279 -319q-31 -34 -98 -91q-3 -2 -40 -13v-26q15 -10 19 -31q4 -25 10 -31t18 -19q-11 -7 -32 -23v-14l5 -5h24q6 0 67.5 35.5t67.5 35.5l20 -16q128 48 250 109q40 13 118 42q96 45 191 89q116 52 202 52
q8 0 23.5 -2t23.5 -2q24 0 72 6t72 6q39 0 74 -18q43 -22 43 -57q0 -6 -10 -20l-10 8q-6 -4 -17 -4q-7 0 -18 6t-18 6q-5 0 -14 -6t-14 -6q-26 0 -78 6t-78 6q1 0 -47 -13q28 -26 82 -81q23 -32 72 -94q44 -49 65 -49q19 0 67 60q45 56 52 80q1 21 7 63q10 42 10 28z
M742 527v86q-3 -3 -50 -62q6 -1 50 -24zM727 477l-61 37q-105 -140 -105 -166q0 -1 1 -6h1q13 -13 38 -39q-9 -3 -9 -11q0 -10 13 -27q32 40 85 124q1 11 6 32q11 19 31 56zM308 373v133q-61 -23 -112 -96q-47 -67 -60 -137q65 103 147 103q-5 0 25 -3z" />
  </g>

</svg>
