<?xml version="1.0" standalone="no"?>
<!DOCTYPE svg PUBLIC "-//W3C//DTD SVG 1.1//EN" "http://www.w3.org/Graphics/SVG/1.1/DTD/svg11.dtd" >
<svg viewBox="0 -442 2048 2048">
  <g transform="matrix(1 0 0 -1 0 1606)">
   <path fill="currentColor"
d="M1768 392q0 -173 -148 -362q-56 -72 -177 -174q-46 -39 -107 -67q-12 -3 -36 -11q-27 -16 -83 -41q-44 -7 -131 -26q-47 -14 -82 -14q-178 0 -347 70q-22 4 -67 14q-73 21 -163 63q-27 13 -62 43q-28 25 -57 50q-70 55 -117 157q-31 56 -81 170l-6 36q-22 104 -22 102
q0 158 32 315q19 93 112 206l81 78h-6q-27 0 -80 -17q23 66 74 87q22 8 116 20q30 28 90 36q49 5 99 10q-20 20 -20 71q0 102 57 194q6 10 44.5 37t47.5 27h41q-43 -89 -43 -170q0 -30 11 -72q15 -54 35 -54h48q32 -1 48 -1q9 0 20.5 9.5t37.5 9.5q13 0 23 6q3 2 43 44
q116 122 195 122q-6 0 89 -14q-25 -14 -71 -47q-45 -58 -127 -132q6 -22 40 -22q22 0 46 15q32 20 43 24q84 29 126 29q154 0 212 -58q21 -4 21 -21q0 -14 -17 -30q-9 -3 -13 -2l-95 16q-10 -3 -51 -3q-29 0 -50 -10q23 -2 70 -8q48 -10 152 -60q118 -56 118 -85
q0 -32 -29 -32q-6 0 -19 1.5t-19 1.5q-5 0 -8 -1q162 -169 162 -530zM1222 1327q-7 0 -23 1h-24q-26 0 -95 -54q-60 -48 -86 -79q29 -1 60 -25q9 58 168 157zM1083 1109h-31q0 -15 -8 -22q13 7 39 22zM1008 1131v26q-52 13 -49 13q-19 0 -46 -9q5 -35 5 -42q28 7 45 7
q4 0 11.5 -4t11.5 -4q12 0 22 13zM1606 957q-142 107 -229 107q-159 0 -223 -61q43 88 158 134q23 9 84 9q11 0 33 3t33 3q-67 14 -125 14q-78 0 -225 -89q-29 -18 -46 -46q-25 -44 -32 -52h-19q-22 33 -19 111q-26 -5 -78 -4q-3 -37 -7 -74q-6 -43 -32 -64q-15 12 -15 35
q0 7 2.5 21.5t2.5 22.5q0 1 -1 7q-45 24 -91 49q-55 33 -69 70q-19 49 -19 71q0 92 29 195q-86 -115 -86 -198q0 -58 43 -104q5 -7 88 -75q10 -8 17 -18q18 -4 26 -11l-3 -18h-26q-4 0 -12.5 5.5t-11.5 6.5q-22 0 -67 5q-188 39 -288 39q-80 0 -122 -31q42 16 52 16
q60 0 119 -18q23 -12 72 -33q41 -7 122 -30q45 -16 89 -32q52 -20 84 -44q-28 -104 -28 -137q0 17 14 -59q4 32 23 92q36 64 77 89q35 21 100 21q71 0 128 -25q49 -32 150 -93q37 -21 197 -91l-332 262q10 11 22 17q68 36 117 44q29 5 126 5q47 0 198 -47zM873 1099v26
q-7 -3 -20 -3q-12 0 -39 3q20 -8 59 -26zM627 1075q0 9 -8 15h-54q39 -12 62 -15zM1701 461q0 86 -27 173q-3 28 -18 83q-55 123 -55 124q-38 69 -91 97q-26 14 -114 30l-174 -41q80 -61 234 -188q14 -18 44 -51q31 -28 31 -39q0 -30 -36 -30q4 0 -44 18.5t-190 91.5
q-118 60 -191 79q-64 17 -92 17q-36 0 -81 -35t-50 -70q-10 -69 -57 -69q-11 0 -31 22v135q0 7 3 20t3 20q-67 33 -206 83q-21 5 -97 34q-61 23 -99 23q-32 0 -123 -150q-11 -21 -33 -62q-7 -9 -18 -28q-48 -116 -48 -289q0 -99 29.5 -168t29.5 -89q0 1 34.5 -68.5
t117.5 -145.5q9 -13 23 -29q8 -1 24 -6q9 -10 28 -29q26 -21 222 -100q81 -33 123 -39q13 -1 40 -3q40 -11 122 -22h48q111 -1 211 37q149 56 218 119q6 9 23 25q104 70 174 180q51 81 64 132q29 118 29 208z" />
  </g>

</svg>
