<?xml version="1.0" standalone="no"?>
<!DOCTYPE svg PUBLIC "-//W3C//DTD SVG 1.1//EN" "http://www.w3.org/Graphics/SVG/1.1/DTD/svg11.dtd" >
<svg viewBox="0 -442 2048 2048">
  <g transform="matrix(1 0 0 -1 0 1606)">
   <path fill="currentColor"
d="M1756 682q0 -263 -128 -613q-157 -426 -368 -426q-1 0 -61 7l-137 16l-60 7q-16 0 -46.5 -7.5t-46.5 -7.5q-32 0 -89 23t-88 23q-23 0 -65 -17t-65 -17q-121 0 -233 132t-201 401q-86 259 -86 444q0 230 124 376q131 155 357 155q60 0 159.5 -40.5t147.5 -40.5
q22 0 41 55q11 37 22 75q30 99 110 181q84 86 180 110q90 22 162 22q17 0 60 -3q38 -3 60 -2q28 -106 28 -132q0 -115 -123 -207q346 -44 346 -514zM1528 1128q-12 -12 -18 -12q-18 0 -30.5 13.5t-21.5 13.5q-17 0 -17 -14q3 -3 4 -8q4 0 13 1.5t13 1.5q19 0 19 -31
q0 -3 -3 -6h37q0 7 2 20.5t2 20.5zM1697 813q-6 30 -11 45q-16 0 -30 14v4q0 32 23 30q-3 13 -13 37q-19 27 -18 46q-34 1 -34 24q0 10 11 21l-9 9q-14 -7 -24 -7q-21 0 -21 19q0 7 7 18q8 3 12 7q-8 8 -8 13q-40 -20 -49 -19v-34h13q44 0 33 -46q5 1 12 1q30 0 30 -25
q0 -31 -21 -31q-3 0 -7.5 1t-7.5 1q-6 0 -10 -2q1 -26 17 -26h17v10q0 24 28 24q23 0 23 -21q0 -13 -13 -21.5t-25 -3.5v-34q3 1 9 1q33 0 33 -29q0 -20 -42 -27v-30q6 0 17 -2t17 -2q0 5 -1 14t-1 14q0 14 21 14q10 0 22 -7zM1483 1413q0 9 -12 76q-13 0 -39 2.5t-40 2.5
q-188 0 -301 -107q-92 -88 -162 -282h36q4 0 20.5 13.5t22.5 15.5q13 5 83 5q125 0 249 72q143 84 143 202zM1609 854q-8 -4 -26 -4v-22h22q0 4 2 12.5t2 13.5zM1559 875v18h-18v-18h18zM1704 785q-7 -17 -44 -16q5 -6 5 -14q0 -35 -43 -31v-26q5 0 15 -2t15 -2q-2 10 -2 12
q0 29 27 29q13 0 25 -7q-6 10 -6 20q0 6 4 18.5t4 18.5zM1713 690q0 10 -8 34q4 -4 4 -10q0 -35 -35 -35q-5 0 -10 2v-30q10 0 29 -4q1 21 2 25q3 10 18 18zM1605 740v26h-22v-22q7 -2 22 -4zM1559 786v18h-18v-18h18zM1513 828v18l-18 5v-23h18zM1474 871v22q-5 0 -14.5 2
t-14.5 2v-30q16 4 29 4zM1711 613v26h-7v-26h7zM1559 723h-18v-22h14zM1651 609v30q-13 0 -29 -8v-18q21 0 29 -4zM1605 677h-22v-18q14 0 18 -4zM1694 563v33h-30v-33h30zM1475 808h-30v-26h25zM1513 744v18h-18v-22q6 2 18 4zM1605 567v26h-22v-22q4 0 11 -2t11 -2z
M1651 520v34q-8 -5 -29 -4v-21q10 -2 29 -9zM1559 617v14q-18 0 -22 4v-22h14zM1694 512q-13 -4 -30 0q1 -4 1 -38q8 4 25 4q0 6 2 17t2 17zM1517 655q0 4 -2 11t-2 11h-22v-22h26zM1474 694v29h-29q0 -25 -4 -37q12 8 33 8zM1651 436v30q-4 0 -12.5 -2t-12.5 -2v-22
q4 0 12.5 -2t12.5 -2zM1605 486v18h-22v-18h22zM1559 528v18h-18v-18h18zM1517 571v22h-26v-26q4 0 13 2t13 2zM1474 609v26q-22 0 -29 4q1 -3 1 -6v-5q0 -9 -5 -19h33zM1678 423h-14v-4q0 -15 3 -26q11 15 11 30zM1559 444v14h-18v-14h18zM1605 397v19h-22v-19h22z
M1513 486v18q-14 0 -18 4v-26q6 2 18 4zM1648 351v26h-26v-26h26zM1474 524v30h-29v-33q10 1 29 3zM1648 292l-22 4l-4 -29h18q0 9 8 25zM1475 444v18l-26 4v-26q4 0 13 2t13 2zM1559 355v18h-18v-18h18zM1605 309v22h-22v-22h22zM1513 397v18h-18q0 -7 4 -18h14zM1609 220
q0 5 -2 15t-2 15h-22v-26q18 0 26 -4zM1559 271l-4 18q-5 -2 -14 -4v-14h18zM1513 317v14h-18v-14h18zM1474 355v18q-7 2 -21 4l-4 -22h25zM1623 201v11h-7v-11h7zM1428 397v26h-25v-30q8 4 25 4zM1563 186v10l-22 4v-14h22zM1605 165h-26v-25h22zM1390 351v25q-11 3 -30 9
q1 -5 1 -9v-4q0 -12 -5 -21h34zM1513 228v14h-14v-14h14zM1467 270v19h-14v-19h14zM1428 313v22h-22v-26q7 2 22 4zM1563 93v26q-4 0 -11 -2t-11 -2v-22h22zM1386 267v25q-7 2 -22 4v-29h22zM1428 228v18q-7 2 -22 4v-22h22zM1513 143v11h-14v-11h14zM1467 186q0 14 -14 14
v-14h14zM1521 51v14q-8 9 -14 9l-8 -5v-14q7 -2 22 -4zM1382 186v18h-14v-18h14zM1422 144v14h-6v-14h6zM1563 38h-26q0 -4 -1 -13t-1 -14q0 -1 1 -7q18 15 27 34zM1348 228v18q-12 1 -34 8v-34q12 2 34 8zM1529 -37q-8 16 -8 25h-26v-25h34zM1340 143v19l-18 3v-22h18z
M1474 13v14h-18v-14h18zM1382 115h-14v-18q14 5 14 18zM1482 -83q-2 10 -8 29q-7 -2 -21 -4v-22q5 0 14.5 -1.5t14.5 -1.5zM1428 -30v15h-14v-15h14zM1340 55v22h-18v-22h18zM1382 13v14h-14v-14h14zM1301 93v30h-29v-30h29zM1498 -92l-15 3q4 -7 9 -20q3 5 6 17zM1301 13
v17q-8 3 -25 9v-30q4 0 12.5 2t12.5 2zM1436 -126q0 4 -2 13t-2 13h-18v-22q7 -2 22 -4zM1340 -30v15h-14l-5 -15h19zM1301 -72v14q-4 0 -12.5 2t-12.5 2v-18h25zM1259 -34v26h-30v-26h30zM1340 -118v14q-6 2 -18 4v-18h18zM1386 -168v26h-18v-26h18zM1436 596q-5 -1 -11 -1
q-39 0 -36 42q-41 9 -41 33q0 19 27 19t27 -21q0 2 -3 -21q16 8 20 8q9 0 17 -8q-5 14 -4 34q-7 -2 -13 -2q-29 0 -29 30q0 3 1.5 9.5t1.5 9.5q-4 -4 -14 -4q-31 0 -31 31q0 23 27 23t27 -23q0 -4 -1.5 -11.5t-1.5 -11.5q14 5 33 4v30q-42 0 -42 31q0 29 33 29q5 0 9 -2v30
q-4 -1 -10 -1q-33 0 -33 31q0 7 5 16h-46q9 -8 9 -18q0 -23 -22 -23q-25 0 -25 23q0 14 15 20q-4 3 -9 10q-21 -11 -26 -11q-2 0 -16 4q-3 9 -11 25q-28 4 -87 48q0 -10 -8 -23h-10q-10 9 -10 15q0 3 1.5 7t1.5 6h16l-29 29q-2 -19 -21 -19q-8 0 -15 6v23q7 5 15 13
q-13 5 -21 20q-6 -19 -21 -19q-11 0 -20 9v19q12 12 20 11q-6 9 -22 22q-3 -17 -20 -22q-29 -10 -30 -11q-7 -25 -15 -25q-12 0 -15 14q-14 2 -21 2t-19.5 -3t-17.5 -3q-4 -10 -13 -10q1 0 -13 10q-17 2 -42 2q-13 0 -21 -2l2 -4q-5 -1 -16 -2q-3 3 -9 14q-47 13 -108 40
q-1 -7 -10 -8q-9 18 -49 31q-33 12 -59 12q-300 0 -410 -284q17 0 15 -13q-12 -7 -22 -3q-28 -112 -28 -200q0 9 5 -10q-1 4 -1 -23q0 -37 24 -187q3 4 7 4q15 0 15 -13q-7 -7 -15 -7q14 -62 47 -183q10 -22 28 -66q5 10 18 15l3 -16l-15 -4q6 -24 43 -107q1 0 3.5 2t6.5 2
q7 0 12 -6v-22q0 -4 -3.5 -7.5t-3.5 -5.5q0 -15 81 -131q9 -14 31 -39q10 -3 25 -15q23 -34 43 -46q29 -14 57 -27q-8 8 -8 22q0 19 20 19q27 0 27 -17q0 -14 -13 -23t-25 -3q28 -14 37 -14q5 15 18 15q8 0 21 -9.5t18 -9.5q6 0 23 11.5t23 11.5q5 0 14.5 -1.5t14.5 -1.5
q-9 15 -9 25q0 20 35 20q16 0 16 -17q0 -4 -1.5 -12.5t-1.5 -12.5q6 1 13 1h12q9 -1 13 -1v38q-3 0 -9.5 -2t-9.5 -2q-23 0 -23 27t25 27q26 0 26 -25q0 -9 -5 -20q9 3 38 3q0 26 4 38q-4 0 -10.5 -1.5t-10.5 -1.5q-25 0 -25 26q0 24 29 24q25 0 25 -25q0 -12 -7 -21
q11 3 23 3q13 0 22 -3q-8 13 -8 25q0 22 39 22q16 0 16 -25q0 -14 -8 -22h17q17 0 24.5 24.5t27.5 24.5q3 0 8 -1.5t7 -1.5q-3 8 -3 16q0 30 32 30q31 0 22 -46q14 5 34 4q-2 6 -2 12q0 34 44 31q-4 4 -4 11q0 14 8 21q-2 0 -7 -1.5t-8 -1.5q-27 0 -27 27t25 27q26 0 26 -28
q0 -12 -8 -21q18 6 41 4v14q0 21 11 27t32 5q0 2 -1 6q0 15 20.5 34t20.5 26q0 1 -2 6q-19 1 -38 7q9 -8 9 -19q0 -26 -28 -26q-27 0 -27 23q0 31 29 31q8 0 16 -8v42q-3 0 -8 -1.5t-8 -1.5q-29 0 -29 25q0 29 33 29q14 0 19 -18q4 -14 -1 -28q11 7 33 4q0 27 4 33
q-11 -1 -14 -1q-28 0 -28 27q0 25 23 25q32 0 24 -46q27 9 37 20v16q-1 -6 -13 -6q-34 0 -34 35q0 8 5 14q-2 0 -6.5 -1t-6.5 -1q-29 0 -29 29q0 25 33 25q1 0 6 -2q13 -13 12 -40q6 2 18 2q9 0 15 -3q0 33 14 39q23 11 29 20v22q-22 -7 -34 -1q5 -11 5 -18q0 -27 -31 -27
q-25 0 -25 27q0 21 15.5 23t30.5 3q-4 7 -4 15q0 7 8 24q-16 -8 -25 -8q-25 0 -25 27t31 27q24 0 24 -30q0 -10 -4 -15q9 3 19 3q12 0 22 -3v41q-2 0 -7.5 -3.5t-10.5 -3.5q-31 0 -31 29q0 21 25 21q30 0 26 -42q13 5 33 4q-1 5 -1 8q0 33 43 38v30q-2 0 -6 -2t-7 -2
q-29 0 -29 33q0 12 4 16q-2 0 -6.5 -1t-6.5 -1q-33 0 -33 27t29 27q25 0 25 -27q0 -3 -1.5 -9.5t-1.5 -9.5h33q0 27 4 33zM1475 -135h-31q5 -5 5 -14q0 -19 -18 -25q-23 -8 -28 -15q-5 -12 -9 -22.5t-30 -11.5q-3 -15 -7 -30.5t-22 -15.5q-5 0 -11.5 3.5t-9.5 3.5
q3 -9 9 -26q24 15 70 48q2 20 15 24q18 6 21 10q15 24 46 71zM1259 -118v22h-22v-22h22zM1217 -76v26h-26v-30q8 4 26 4zM1301 -161v15l-22 4v-19h22zM1347 -211v26h-25v-26h25zM1174 -122v26h-25v-26h25zM1213 -161v19h-18v-19h18zM1259 -207v22h-22v-5q0 -13 4 -17h18z
M1309 -257q0 5 -2 15t-2 15h-26q0 -5 -1.5 -15t-1.5 -15h33zM1128 -161v26h-21q-2 -4 -2 -9v-3q0 -3 1 -9v-8q4 0 11 1.5t11 1.5zM1217 -253q-2 9 -4 26h-18v-26h22zM1170 -207v22h-18v-22h18zM1263 -299q-4 16 -4 30h-14l-24 -30h42zM1086 -181h-22v-26h18q0 4 2 13t2 13z
M1051 -131q-9 -3 -17 -3h-9q-6 0 -15 3q2 -13 8 -38q34 20 33 38zM1174 -295v22h-25v-18q4 0 12.5 -2t12.5 -2zM1128 -227h-18q0 -4 -2 -13t-2 -13h18zM1086 -284v15h-22v-15h22zM1001 -207v26h-29v-26h29zM1043 -253v26h-25v-22zM1002 -270h-27v-14q14 0 27 14zM917 -177
q-16 -4 -30 0l4 -34q6 3 12 3q4 0 9 -3q0 26 5 34zM955 -253v26h-22v-26h22zM874 -223h-29v-34q8 2 25 4q0 22 4 30zM914 -290v4q0 3 -1 8v9h-18q-2 -10 -8 -30h25q2 4 2 9zM832 -288v19q-6 0 -17 1.5t-17 1.5q11 -8 34 -22zM1402 839q0 -27 -23 -27q-31 0 -31 27
q0 23 27 23t27 -23zM1356 803q0 -4 -2 -12t-2 -12q-5 -5 -17 -5t-25 12v22q12 12 25 12q21 0 21 -17zM1259 871q-1 -1 -4 -1h-7q-10 0 -19 5v18q5 0 13 8q4 -4 17 -5v-25zM1310 836q0 2 -5 -11q-2 0 -7.5 -2.5t-9.5 -2.5q-21 0 -21 21q0 18 21 18q22 0 22 -23zM1217 918
l-9 -9q-18 -1 -18 17q0 9 5 13h18q2 -7 4 -21zM1086 963l-22 -4v18q4 2 14 5q8 -8 8 -19zM1217 839q0 -4 -2 -8.5t-2 -5.5q-17 0 -23 12q0 9 18 18q9 -9 9 -16zM1048 1011q0 -4 -14 -18q-6 4 -17 13q0 13 18 22q13 -13 13 -17zM1128 921l-10 -8q-10 4 -10 14q0 5 2 8h18v-14
zM1171 893l-5 -22q-18 0 -18 13q0 -2 4 9h19zM1310 747q0 -15 -20 -15q-23 0 -23 19q0 23 19 23q24 0 24 -27zM1356 716q0 -31 -21 -31q-7 0 -25 17v22q18 8 23 8q23 0 23 -16zM1261 803q0 -25 -11 -25q-15 0 -21 13v17q5 0 15 2t15 2q2 -4 2 -9zM1128 828h-18q-2 10 -2 9v5
q0 5 7 9q8 0 13 -5v-18zM998 973q0 -9 -5 -14q-5 2 -14 4l4 15q10 0 15 -5zM1082 875h-14v14q14 0 14 -14zM951 1005q-9 0 -15 6q9 9 10 9q5 0 5 -15zM1040 926q-9 -9 -15 -9q-1 5 -3 14zM1171 790q-4 -4 -14 -4q-3 5 -9 13q6 6 16 6q1 0 7 -1v-14zM1263 712q0 -11 -8 -18
h-22q0 3 -2 8t-2 8q0 5 9 14q25 0 25 -12zM1310 662q0 -3 -2.5 -7t-2.5 -7h-30q0 1 -4 5t-4 9q0 23 19 23q24 0 24 -23zM1217 744l-9 -8q-18 -1 -18 17q0 9 5 13h18q2 -7 4 -22zM1353 632v-7q0 -3 -1 -10v-9q-5 -5 -17 -5t-25 12v22q9 8 12 8h29q2 -6 2 -11zM1040 842
q0 -10 -14 -10q-2 2 -3 7l3 8q9 0 14 -5zM1215 665q0 -4 -3 -10h-13q-6 6 -6 15q0 2 2 8h17q3 -3 3 -8v-5zM867 1015q-1 -6 -5 -10q-9 0 -14 5q4 5 4 10q10 0 15 -5zM949 917h-6v14h6v-14zM997 875h-18v14h18v-14zM1171 719l-5 -22q-10 0 -18 17l9 10q9 0 14 -5zM1128 748
l-9 -9q-13 13 -13 18q0 4 5 9l17 -4v-14zM906 971v-4q0 -5 -5 -8q-3 5 -7 9l10 10q1 -3 2 -7zM1079 791l-2 -5l-9 4v14q11 -4 11 -13zM1356 533q0 -21 -19 -21q-31 0 -31 25t27 25q23 0 23 -29zM1402 497q0 -27 -23 -27q-31 0 -31 27q0 19 18 19h28q0 -2 4 -8t4 -11z
M1309 567q-20 -9 -23 -9q-19 0 -19 24q0 19 23 19q9 0 19 -9v-25zM1263 610q-8 -9 -13 -9q-14 0 -25 21q6 10 25 21q8 -8 13 -8v-25zM1082 705h-14v19q14 -5 14 -19zM995 804l-5 -15l-5 2l5 13h5zM779 1012l-11 -5v6l9 5zM1221 582q0 -7 -13 -20q-15 0 -21 13v18q1 0 7 4
t10 4q17 0 17 -19zM822 972l-5 -10l-5 3l5 9zM1040 757q0 -14 -14 -14q-1 2 -2 6v4q0 4 1 9q10 0 15 -5zM1173 625q0 -6 -3 -12q-6 -1 -9 -4q-4 4 -13 12v14q4 0 11 2t11 2q3 -6 3 -14zM1128 659q-6 -1 -9 -4q-5 3 -13 9q0 13 13 13q5 0 9 -4v-14zM1263 524q-9 -8 -19 -8
q-19 0 -19 19q0 23 19 23q10 0 19 -8v-26zM1310 491q0 -21 -20 -21q-5 0 -22 17v25q4 1 6 1h8q3 0 11 -1h12q0 -4 2.5 -10.5t2.5 -10.5zM995 718l-5 -10l-5 3l5 9zM1040 667q-3 -4 -10 -8q-8 8 -8 14q4 2 13 4q2 -3 5 -10zM1082 617h-14v14q14 0 14 -14zM1128 575
q-8 -8 -18 -8v7q-1 4 -1 7v4q0 5 2 8l17 -5v-13zM648 1055l-11 -5v5l9 5zM609 1099q-1 -5 -5 -9q-13 0 -13 14h2q11 0 16 -5zM907 799l-5 -10l-6 2l5 10zM1175 533q-3 -5 -9 -13q-9 0 -18 9l5 21h22v-17zM1217 478h-10q-13 0 -20 4v26q3 2 8 2h13q5 0 9 -2v-30zM1267 440
q-6 -12 -23 -12q-23 0 -23 25q0 17 25 17q12 0 21 -8v-22zM995 630l-5 -10l-5 2l5 10zM1086 532l-22 -4v18q4 2 14 5q8 -8 8 -19zM524 1100q0 -10 -14 -10q-2 2 -3 7l3 8q9 0 14 -5zM1175 451q0 -4 -2.5 -9t-2.5 -6h-22q0 1 -2 6t-2 9q0 11 17 19q14 -7 14 -19zM1040 579
q-8 -8 -15 -8q0 2 -1 5v6q0 1 2 7q9 0 14 -10zM1130 499q0 -3 -1 -8.5t-1 -8.5h-17q-2 6 -9 17l9 9h17q2 -4 2 -9zM1221 408q0 -19 -19 -19t-19 23q0 16 17 16q21 0 21 -20zM1267 364q0 -21 -21 -21q-12 0 -25 12v18q16 16 27 16q19 0 19 -25zM1174 355h-9q-14 0 -21 4v14
l9 8h18q0 -4 1.5 -13t1.5 -13zM1132 398q-6 -3 -12 -3h-4q-6 0 -10 2q-1 6 -4 9q5 7 17 18l13 -13v-13zM1040 494q-3 -4 -10 -8q-8 8 -8 14q8 0 13 5q5 -6 5 -11zM1086 453q0 -4 -2 -8t-2 -5l-18 4l4 18h14q4 0 4 -9zM1225 318q0 -17 -21 -17q-12 0 -25 12v18q8 8 33 16
q13 -26 13 -29zM430 1090h-7v14h7v-14zM1136 322l-12 -13h-17l-5 4v22q5 2 13 8q14 -7 21 -21zM1179 281q0 -13 -13 -19h-17q-9 9 -9 18q0 21 21 21q18 0 18 -20zM1044 406q-4 -5 -4 -9h-14q-5 5 -5 7v5q0 4 4 6.5t4 3.5q8 0 15 -13zM1090 364q-4 -4 -4 -13q-4 0 -13 2
t-13 2q0 4 2 11t2 11h17q3 -5 9 -13zM1225 224q-9 -8 -21 -8t-25 12v18q12 12 25 12q12 0 21 -8v-26zM394 1053q-2 -3 -5 -9q-4 2 -14 4l4 14q6 0 15 -9zM998 451q0 -7 -6 -7h-13q9 10 16 10q1 0 3 -1v-2zM907 457l-5 -10l-6 2l5 10zM1183 195q0 -25 -22 -25q-16 0 -24 16
v18q12 12 23 12q5 0 14 -8t9 -13zM998 373l-5 -18q-5 2 -14 4l4 14h15zM1090 280q-3 -5 -9 -14q-18 0 -25 14q4 4 8 13h17q3 -5 9 -13zM1044 322q-3 -5 -10 -14q-5 3 -13 9l5 14h13q1 -5 5 -9zM1132 229q-9 -9 -17 -9q-13 7 -13 22l9 8h17q0 -4 2 -10.5t2 -10.5zM1048 228
q-4 -2 -9 -2h-13q-5 0 -8 2v18q3 0 8.5 1t7.5 1h6q3 0 8 -2v-18zM306 970l-12 -5v6l9 4zM1094 193q0 -6 -9 -15h-21q-8 8 -8 15q0 19 19 19t19 -19zM1002 271q-3 -3 -9 -3h-6q-4 0 -8 2q-1 7 -4 10l13 13q9 0 14 -5v-17zM1136 154q0 -10 -12 -22h-22q0 3 -2 8.5t-2 8.5
q0 14 13 20h17q0 -1 4 -5.5t4 -9.5zM1183 108q0 -4 -2.5 -11t-2.5 -11q-3 0 -9.5 -2.5t-10.5 -2.5q-22 0 -22 25q0 29 25 29q22 0 22 -27zM949 320q-1 -6 -3 -8l-10 10l10 9q2 -3 3 -8v-3zM1052 153q-9 -18 -18 -18t-17 5l-4 11q0 10 18 19q17 -8 21 -17zM1094 101
q-6 -12 -21 -12q-8 0 -17 8v18q7 13 21 13q2 0 17 -13v-14zM949 228h-6v18h6v-18zM1140 55q-6 -12 -23 -12q-23 0 -23 21q0 25 23 25q17 0 23 -12v-22zM1001 190l-17 -5l-9 10q9 9 22 9q2 -5 4 -14zM1183 18q0 -21 -22 -21q-11 0 -24 12v25q7 13 23 13q3 0 9 -2.5t9 -2.5
q0 -4 2.5 -12t2.5 -12zM909 270q-9 0 -14 5v14q14 -5 14 -19zM1098 22q0 -3 -2 -8t-2 -8q-9 -9 -17 -9q-21 0 -21 25q0 21 19 21q23 0 23 -21zM955 147l-22 -4q0 11 17 19q5 -5 5 -15zM1055 55q-13 -12 -22 -12q-24 0 -24 21q0 4 2.5 9.5t4 6.5t8 3t9.5 2q9 0 22 -12v-18z
M1001 98q-4 -2 -8 -2h-3q-3 0 -8 1h-7q0 4 2 11t2 11l22 -4v-17zM220 879q-4 -4 -11 -4h-3v14q14 0 14 -10zM867 237l-9 -9q-5 4 -10 4q0 6 9 15zM909 190q-6 -4 -10 -4q-1 5 -5 9q6 5 11 5q4 -6 4 -10zM1102 -67q0 -21 -25 -21q-4 0 -10.5 2t-10.5 2q0 3 -2 10t-2 11
q0 21 25 21t25 -25zM959 73q0 -4 -2 -11t-2 -11q-4 0 -11 2t-11 2v3q0 11 4 19q7 -2 22 -4zM1056 -23q0 -23 -27 -23q-20 0 -20 25q0 22 20 22q27 0 27 -24zM867 149q-3 -2 -8 -3h-3q-6 1 -8 3l9 9zM1005 5q-4 -2 -10 -2q-3 0 -10 1t-8.5 2.5t-3.5 7t-2 8.5q0 17 17 17
q3 0 8.5 -2t8.5 -2v-30zM216 801q0 -11 -6 -11q-1 5 -5 9q6 2 10 6q1 -1 1 -4zM735 274l-14 5q6 2 10 6q4 -6 4 -11zM911 106q0 -7 -3 -13q-11 0 -18 14q5 6 18 13q3 -6 3 -14zM816 186q-6 1 -10 5q2 7 5 10q5 -5 5 -13v-2zM218 705h-7v14h7v-14zM782 144h-15l5 14
q10 -10 10 -14zM967 -30q-13 -12 -19 -12q-12 0 -19 13v17q10 9 19 9t19 -9v-18zM182 753q-4 -5 -14 -10q-4 5 -5 19q10 0 19 -9zM736 192h-15v6h15v-6zM917 29v-4q0 -11 -5 -20h-21q0 2 -2.5 7.5t-2.5 9.5q0 8 18 17q4 -4 12 -4q1 -2 1 -6zM1013 -63q0 -25 -23 -25h-6
q-13 0 -21 8v26q13 12 27 12q23 0 23 -21zM870 55q-2 0 -5.5 -1t-5.5 -1q8 0 -11 2v18h22v-18zM691 228h-5l-5 13l6 2zM824 97l-18 5l4 13h14v-18zM647 272h-10v7h10v-7zM925 -67q0 -11 -13 -17h-25q0 4 -2.5 10.5t-2.5 10.5v5q0 16 18 16q25 0 25 -25zM786 60q-4 -6 -16 -6
q-1 0 -7 1v18l10 4q9 -9 13 -17zM740 102q-5 -5 -15 -5v18q8 0 15 -13zM832 21q-5 -7 -17 -17q-13 13 -13 18q0 11 13 17q7 -5 17 -18zM879 -29l-13 -13q-9 0 -18 9l4 25h22q0 -11 5 -21zM971 -107q0 -27 -29 -27q-21 0 -21 27q0 23 23 23q27 0 27 -23zM182 580
q-4 -5 -14 -10q-4 4 -4 13v6zM691 55h-6v18h6v-18zM836 -69q0 -15 -15 -15q-8 0 -23 8v26q3 0 9.5 2t9.5 2q19 0 19 -23zM882 -109q0 -21 -23 -21q-3 0 -9 2t-7.5 3.5t-4 7t-2.5 8.5q0 25 25 25q21 0 21 -25zM606 150l-11 -4v5l9 5zM651 97h-14v19q14 -5 14 -19zM518 228h-6
v14h6v-14zM740 17q-4 -4 -4 -8q-15 0 -15 18q7 3 12 3q7 0 7 -13zM786 -29q-5 -3 -13 -9q-14 7 -14 19q0 5 4.5 7.5t4.5 3.5q6 -2 18 -4v-17zM179 492q0 -1 -2 -6h-2q-8 0 -12 4v14h15q0 -2 1 -6v-6zM567 106q-9 -9 -15 -9v18q6 0 15 -9zM655 13q-4 -2 -14 -5q-4 4 -4 15v8
l18 -4v-14zM220 444h-14q0 5 9 14q5 -5 5 -14zM794 -109q0 -21 -21 -21q-4 0 -21 16v14q15 12 21 12q21 0 21 -21zM748 -67q0 -8 -18 -17q-4 4 -12 4q0 1 -2.5 6t-2.5 9q0 15 16 15q4 0 8.5 -2t5 -2.5t3 -4.5t2.5 -8zM697 -8q0 -22 -4 -30h-3q-8 0 -15 14q9 15 22 16z
M607 62q-1 -5 -3 -7q-5 0 -14 9q4 4 14 9q3 -3 3 -7v-4zM309 284q0 -14 -14 -14l-2 5v5q0 4 1 9q10 0 15 -5zM613 -20q-2 -4 -4 -13h-19l5 22h13q1 -5 5 -9zM221 361l-1 -2q-1 -1 -4 -1h-3q-4 0 -7 1v14q15 -4 15 -12zM351 242q0 -9 -5 -14q-4 2 -13 4l4 14h2q8 0 12 -4z
M524 69q0 -14 -14 -14l-4 18h3q11 0 15 -4zM659 -67q-7 -13 -22 -13l-4 26h17q3 -5 9 -13zM705 -122q-8 -8 -17 -8q-17 0 -17 19q0 23 17 23q4 0 17 -13v-21zM751 -161q-14 -12 -21 -12t-21 13v17q7 13 21 13q7 0 21 -13v-18zM434 150l-3 -7q-10 0 -10 10q5 1 9 5q4 -4 4 -8
zM567 22q-2 -3 -5 -9h-14v14zM262 313q-14 0 -14 14q5 2 14 4v-18zM391 194q0 1 -2 -8q-9 0 -14 7q4 3 14 7l2 -4v-2zM476 108v-4q-1 -5 -3 -7q-1 0 -10 9q3 5 10 10q3 -3 3 -8zM313 195q-4 -5 -4 -9h-18q-1 5 -5 9q5 3 13 9q5 -3 14 -9zM355 148l-26 -5q2 14 12 19
q7 0 14 -14zM621 -118q-9 -8 -19 -8q-11 0 -20 8v18q13 12 20 12q6 0 19 -12v-18zM663 -150q0 -3 -2 -9t-2 -9q-3 0 -10 -1t-11 -1q-5 0 -9 1t-4 10q0 29 21 29q17 0 17 -20zM574 -76q-30 0 -24 -1l-6 1v18q4 0 11 2.5t11 2.5q8 -8 8 -23zM440 59l-10 -8q-5 2 -13 8
q0 11 14 18q9 -9 9 -18zM528 -16l-4 -18l-22 5l4 18zM267 237q-5 -6 -14 -13q-6 6 -6 15q0 1 1 7h14q1 -5 5 -9zM397 98q-3 -3 -7 -3h-7q-4 0 -8 2q-1 6 -4 9q5 5 17 14q3 -2 9 -5v-17zM224 289l-4 -23l-18 4v19h22zM713 -196q0 -27 -25 -27t-25 29q0 21 25 21t25 -23z
M480 23v-5q0 -3 -3 -9q-10 0 -18 8l5 14h13q3 -3 3 -8zM532 -109q-2 -3 -6 -8.5t-6 -8.5q-6 2 -18 4q0 1 -2 5t-2 8t17 21q6 -6 17 -21zM313 97h-10q-13 0 -21 5q0 9 9 18l22 -5v-18zM671 -236q0 -29 -27 -29q-23 0 -23 25t25 25t25 -21zM439 -33q-5 -1 -9 -5l-13 13
q0 11 13 18q3 -2 9 -5v-21zM578 -161q-2 0 -9 -6t-12 -6q-21 0 -21 23q0 20 17 20q12 0 25 -13v-18zM625 -196q0 -23 -27 -23q-20 0 -20 18q0 10 18 28q1 -1 19 -6q10 -4 10 -17zM486 -58q-2 -7 -4 -22q-18 0 -27 9q0 9 9 18q4 0 11 -2.5t11 -2.5zM355 69q0 -9 -9 -18
q-9 0 -18 9l5 13zM397 12q0 -3 -9 -4q-10 0 -17 14l9 9l17 -4v-15zM532 -207q-9 -8 -17 -8t-17 8v26q9 8 17 8t17 -8v-26zM359 -20q-9 -18 -15 -18q-3 0 -7.5 2t-7.5 2q0 9 -4 13q3 6 21 14zM440 -96l-5 -26h-14q-3 2 -4 9v13q6 1 9 4h14zM399 -71q0 -5 -2 -9q-19 0 -26 13
q4 4 12 13h14q0 -3 1 -8.5t1 -8.5zM484 -148v-6q0 -6 -3 -15h-13q-13 12 -13 18q0 8 9 17h17q3 -6 3 -14z" />
  </g>

</svg>
