<?xml version="1.0" standalone="no"?>
<!DOCTYPE svg PUBLIC "-//W3C//DTD SVG 1.1//EN" "http://www.w3.org/Graphics/SVG/1.1/DTD/svg11.dtd" >
<svg viewBox="0 -442 2048 2048">
  <g transform="matrix(1 0 0 -1 0 1606)">
   <path fill="currentColor"
d="M1594 588q0 -144 -69.5 -295.5t-178.5 -242.5q-35 -30 -99 -60q-88 -43 -103 -52q-21 -12 -65 -54q-40 -37 -67 -49q-18 -8 -51 -10q-37 -3 -51 -7q-30 -9 -56 -41q-40 -51 -44 -55q-57 -53 -151 -53q-126 0 -181 71q-19 25 -36 86q-24 88 -25 92q-13 36 -72 89
q-44 40 -89 80q-62 64 -114 165q-60 117 -60 349v46q0 104 76 242q74 133 161 198q45 34 125 77q102 55 129.5 72t142.5 111q90 74 148 94q154 54 202 54q127 0 172 -122q10 -27 13 -79q3 -57 9 -80q15 -55 116 -145q115 -102 140 -144q34 -58 57 -164q21 -96 21 -173z
M1480 588q0 42 -27 55l-36 10v14q1 38 -31 38q-38 0 -38 -32q0 -20 38 -42q-18 -24 -18 -47q0 -50 56 -50t56 54zM1152 926q0 22 -19 39.5t-41 17.5q-21 0 -40.5 -18t-19.5 -39q0 -24 19 -43.5t43 -19.5q22 0 40 20.5t18 42.5zM1354 724q0 22 -17.5 39t-39.5 17
q-9 0 -33 -12q-37 50 -46 50q-17 -1 -12 -6q-2 12 -6 37q-15 20 -38 20q-48 0 -48 -41q0 -14 15 -27.5t29 -13.5q16 0 33 19q-7 -16 -7 -31q0 -38 34 -38q7 0 8 2.5t7 2.5q5 0 7 -10q10 -43 13 -49q11 -23 41 -23q23 0 41.5 20.5t18.5 43.5zM1474 389q0 23 -17 43t-40 20
t-40 -20t-17 -43q0 -57 60 -57q54 0 54 57zM1259 603q0 19 -22 38t-41 19q-57 0 -57 -59q0 -24 18 -42t42 -18q21 0 40.5 20.5t19.5 41.5zM1158 497q0 56 -53 56q-61 0 -61 -56q0 -22 17.5 -39.5t39.5 -17.5q57 0 57 57zM1247 392q0 60 -61 60q-53 0 -53 -57q0 -24 17 -43.5
t40 -19.5t40 18.5t17 41.5zM1404 194v23q-54 27 -72 27q-24 0 -52 -19t-28 -42q0 -53 45 -53q11 0 18 2q12 19 37 47q18 4 52 15zM1373 907q0 61 -80 147q-101 107 -115 135q-10 20 -18 92q-6 58 -38 84q-42 35 -99 35q-122 0 -212 -71q-84 -71 -169 -143q-42 -28 -118 -62
q-95 -41 -122 -56q-58 -31 -114 -107q-51 -69 -76 -138q-27 -76 -27 -254q0 -218 103 -381q16 -26 95 -97q68 -62 78 -98q5 -41 23 -120q25 -78 124 -78q41 0 84 18q51 21 65 53q4 27 14 81q18 -19 37 -19q40 0 40 38q0 14 -15 26t-29 12q-22 0 -40 -38q-33 98 -33 153
q0 14 2 24q31 -19 49 -19q54 0 54 59q0 61 -57 61q-7 0 -9.5 -3.5t-9.5 -3.5q-10 0 -8 12l-1 1q-85 0 -85 72q0 27 22.5 47t49.5 20q28 0 44 -20q2 -2 26 -43q79 107 214 385q2 -19 23.5 -37.5t40.5 -18.5q21 0 40.5 21t19.5 42t-21.5 39t-42.5 18t-46 -26q4 24 4 50
q0 29 -5 55q-3 16 -26 91q-21 66 -21 82q0 50 53 50q66 0 164 -85q75 -65 131 -141h23q14 22 14 56zM1038 398q0 54 -57 54t-57 -57q0 -56 54 -56q24 0 42 17.5t18 41.5zM1146 287q0 21 -21.5 39.5t-42.5 18.5q-23 0 -40 -18.5t-17 -41.5q0 -60 57 -60q22 0 43 20.5t21 41.5
zM1202 80v23q-24 33 -44 33h-25q-49 0 -65.5 -2t-29.5 -24.5t-13 -39.5q0 -24 24.5 -45t48.5 -21q34 0 38 37.5t26 37.5q4 0 12 -2.5t12 -2.5q16 0 16 6zM943 301q0 21 -19.5 38.5t-40.5 17.5q-23 0 -41.5 -19.5t-18.5 -43.5q0 -22 20.5 -39.5t42.5 -17.5q24 0 40.5 20
t16.5 44zM1051 183q0 24 -18.5 42.5t-42.5 18.5q-19 0 -39 -22t-20 -41t22 -38t41 -19q57 0 57 59zM950 89q0 54 -57 54q-63 0 -63 -57t63 -57q23 0 40 18t17 42zM753 230q-4 -7 -29 -68v34q0 22 29 34z" />
  </g>

</svg>
