<?xml version="1.0" standalone="no"?>
<!DOCTYPE svg PUBLIC "-//W3C//DTD SVG 1.1//EN" "http://www.w3.org/Graphics/SVG/1.1/DTD/svg11.dtd" >
<svg viewBox="0 -442 2048 2048">
  <g transform="matrix(1 0 0 -1 0 1606)">
   <path fill="currentColor"
d="M1814 1199q-29 -6 -51 -12q0 40 -41 77q3 6 42 43q50 -55 50 -94v-14zM1806 1020q-8 -38 -33 -112q-16 11 -47 34q9 25 18 51.5t37 26.5h25zM1649 776q-99 -33 -111 -33h-14q0 20 1 59q30 10 91 29q17 -22 33 -55zM1008 1301q-8 -13 -42 -38q-33 27 -70 45q4 12 21 47
q30 -18 91 -54zM1169 1038q-17 -4 -51 -13q-2 8 -20 51q-17 39 -17 44q0 18 43 38q28 -62 45 -120zM1367 818q-9 -19 -17 -55l-112 54q15 31 21 55q33 -12 108 -54zM751 1406q-7 -15 -22 -46q-30 3 -51 3h-18q-20 0 -58 -3q3 9 3 24t-3 26q15 10 58 10q46 0 91 -14z
M1166 935q-8 -18 -26 -55l-111 54q17 39 21 63zM883 985q-60 -12 -70 -12q-12 0 -46 55q74 21 87 21h29v-64zM1109 693q-22 -34 -71 -63q-25 50 -25 52q0 -1 50 49q14 -14 46 -38zM436 1328q-26 -10 -79 -29q-15 29 -21 51q26 11 95 37zM678 850q0 -4 -3 -11t-4 -10
q-2 -9 -2 -34q0 -22 3 -51l-49 -49q-13 39 -13 82q0 63 25 123q43 -43 43 -50zM866 601q0 -13 -3 -31h-53q6 0 -59 13q3 4 37 59q90 -13 75 -13q3 -29 3 -28zM227 1208q0 -5 -24 -36q-27 -36 -30 -42q-18 4 -55 13q34 64 83 112q26 -39 26 -47zM174 874q-7 -11 -42 -38
q-50 71 -50 111v21q5 4 16 4q7 0 21.5 -2t21.5 -2q1 -44 33 -94zM1266 -320q-34 6 -102 14q-130 7 -255 35q-268 58 -462 174q-269 160 -269 374q0 86 39 155q66 116 66 138q0 26 -38.5 72.5t-38.5 87.5q0 8 1 17q42 14 67 12q6 -57 11 -114q10 -69 57 -91q71 -6 169 -16
q228 -29 402 -110q235 -110 275 -283q18 -77 18 -127q0 -35 -5 -104.5t-5 -104.5q0 -52 13 -76t57 -53zM1066 21q-105 -32 -153 -32q-12 0 -74 40t-76 54h7q12 0 35 -2.5t34 -2.5q147 0 169 88q-60 -56 -171 -56q-88 0 -146 28q-44 22 -122 90q83 -21 85 -21q24 0 89 22
q-17 -2 -34 -2q-106 0 -202.5 64t-137.5 162v-42q0 -33 58 -107t58 -73q0 -31 -53 -52q-40 -11 -80 -23l74 -6q29 0 89 65q21 -12 62 -46q49 -39 49 -51q0 -27 -40.5 -67t-68.5 -48q93 -2 148 91q43 -8 93 -49q40 -35 81 -70q-13 -79 -60 -106h19q53 0 69 23q27 36 35 41
q65 -49 146 -96q-34 35 -104 122q34 9 68 19q38 11 54 43z" />
  </g>

</svg>
