<?xml version="1.0" standalone="no"?>
<!DOCTYPE svg PUBLIC "-//W3C//DTD SVG 1.1//EN" "http://www.w3.org/Graphics/SVG/1.1/DTD/svg11.dtd" >
<svg viewBox="0 -442 2048 2048">
  <g transform="matrix(1 0 0 -1 0 1606)">
   <path fill="currentColor"
d="M1934 649q0 -273 -134 -458q-138 -191 -399 -261q-170 -46 -268 -46h-250q-39 0 -166 21q-108 18 -232 72q-202 88 -306 270q-97 170 -97 400q0 269 164 408q153 130 426 130q64 0 116 -10q9 -1 44 -12q28 -9 44 -9q31 0 69 21q31 19 63 38q31 -19 63 -38q38 -21 69 -21
q10 0 52 12t56 14q39 5 94 5q273 0 427 -129q165 -138 165 -407zM1155 1094q-21 18 -75.5 39.5t-71.5 39.5q-17 -16 -79 -40q-56 -23 -68 -41q22 3 47 3q59 0 66 -20q19 -57 34 -75q5 8 33 74q9 21 56 21t58 -1zM1855 653q0 223 -155 352q-144 121 -372 121q-70 0 -141 -16
q9 -40 9 -38q0 -8 -4 -13q-41 8 -58 8q-50 0 -80.5 -51t-45.5 -51t-45.5 51t-82.5 51q-10 0 -28 -3q-21 -3 -28 -3l-3 4v24q0 -2 8 21q-68 16 -141 16q-227 0 -372 -121q-155 -129 -155 -352q0 -348 260 -524q222 -150 587 -150q364 0 587 151q260 176 260 523z" />
  </g>

</svg>
