<?xml version="1.0" standalone="no"?>
<!DOCTYPE svg PUBLIC "-//W3C//DTD SVG 1.1//EN" "http://www.w3.org/Graphics/SVG/1.1/DTD/svg11.dtd" >
<svg viewBox="0 -442 2048 2048">
  <g transform="matrix(1 0 0 -1 0 1606)">
   <path fill="currentColor"
d="M1860 184q0 -52 -29 -131.5t-62 -119.5q-95 -115 -197 -148l-69 -27q-31 -15 -97 -37q-93 -20 -126 -20q-29 0 -86 4t-86 4q11 0 -58 14q-33 0 -97 10q-163 54 -302 184q-15 6 -43 25q-41 40 -146 196q-7 19 -25 55q-5 3 -13 11q-57 80 -167 395q-2 5 -12 76
q-36 -12 -33 -12q-20 0 -32 14q-28 65 -72 157q-26 45 -26 40q0 21 18 21q15 0 50 -35q2 12 7 37q8 30 27 55q13 17 49.5 42.5t48.5 42.5q5 7 5 41q0 16 -2 49t-2 50q0 86 36 150q27 48 100 120q4 4 22 42q13 28 35 28q2 0 39.5 -30t44.5 -34q4 -17 13 -31
q-124 -58 -124 -253q0 10 4 -23q12 0 35.5 6t34.5 6q22 0 49 -25q7 -6 40 -63q26 -44 48 -44q15 0 35 34q18 31 20 48t2 29q0 23 -9 38v13q4 4 16 4q30 0 64 -68q32 -62 32 -96q0 -29 -20.5 -69t-44.5 -59q37 -55 95 -82q20 -5 58 -17q62 -21 157 -32q79 -9 159 -18
q198 -27 395 -179q51 -39 133 -145q24 -27 64 -86q44 -90 44 -157zM782 1051q0 12 -22 56q-3 -37 -28 -80q-28 -51 -60 -51q-43 0 -74 47q-24 39 -49 79q-7 1 -23.5 5t-25.5 4q-7 0 -21.5 -6t-21.5 -6q21 -23 57 -72q3 -12 14 -35q13 -14 35 -43q24 8 35 8q22 0 50.5 -19.5
t32.5 -19.5t45 13q16 5 37 54q19 45 19 66zM1265 429q0 76 -106 139q-94 56 -176 56q-47 0 -83 -18q-45 -23 -45 -65q0 -76 109 -137q96 -54 179 -54q44 0 79 17q43 22 43 62zM507 1426q-14 12 -41 29l-90 -114q-47 -65 -47 -135q0 -23 4 -70t4 -70q0 -26 -8 -40q5 6 11 17
q1 21 7 64h3l5 -10q1 -6 0 -17q-2 -13 -2 -18t3.5 -13t3.5 -13q0 -64 -25 -64q-14 0 -14 14l-1 25q-42 -36 -84 -73q-45 -40 -45 -104h14l36 72q24 39 63 39q8 0 47.5 -36.5t51.5 -36.5q14 0 27 26q12 22 12 38q0 54 -7 89q-2 9 -15 41t-13 36q0 5 4.5 12.5t4.5 10.5
q0 2 -6.5 15t-6.5 18q0 46 9 86q12 23 28 70q12 60 67 112zM542 849q0 12 -11.5 60t-17.5 55q-17 20 -47 62q22 -89 22 -90q0 6 -17 -80q-21 -12 -37 -37q42 -21 44 -21q22 0 43 15t21 36zM299 899q0 7 -6 11q-12 -12 -32 -39q-10 -26 -21 -52q-14 -28 -44 -28q-11 0 -28 13
q12 -32 44 -91q18 17 52.5 90t34.5 96z" />
  </g>

</svg>
