<?xml version="1.0" standalone="no"?>
<!DOCTYPE svg PUBLIC "-//W3C//DTD SVG 1.1//EN" "http://www.w3.org/Graphics/SVG/1.1/DTD/svg11.dtd" >
<svg viewBox="0 -442 2048 2048">
  <g transform="matrix(1 0 0 -1 0 1606)">
   <path fill="currentColor"
d="M1934 860q0 -108 -95 -188q-90 -75 -200 -75q-60 0 -171.5 45t-169.5 45q-84 0 -274 -104q91 -106 102 -116q64 -61 133 -70q44 -6 155 -6q15 0 79 -11q120 -21 174 -65q65 -55 65 -167q0 -96 -68 -168q-64 -68 -165 -79q-19 -1 -57 -6q-37 -8 -76 -69q-53 -84 -78 -107
q-59 -56 -148 -56q-84 0 -147 81q-59 75 -59 162q0 69 68 211.5t68 205.5q0 105 -68 247q-183 -145 -211 -240q-5 -17 -33.5 -180.5t-77.5 -244.5q-73 -118 -213 -121l-23 -1q-61 -1 -117.5 58.5t-56.5 121.5q0 13 2.5 37t2.5 36q0 44 -31 70q-34 20 -68 41q-68 42 -82 86
q-12 39 -12 86q0 103 95 185q92 78 197 78q59 0 171.5 -43t172.5 -43q98 0 271 92q-146 204 -248 204h-221q-18 0 -71 18q-73 24 -123 89t-50 140q0 13 17 78q10 39 63 88t93 60q40 6 121 18q34 5 65 49q4 5 43 74q17 30 54 61q41 33 71 39q55 10 71 10q92 0 149 -78
q51 -70 51 -166q0 -78 -66 -212.5t-66 -205.5q0 -101 68 -249q143 106 199 209q18 34 46 195q29 176 75 257q73 129 217 129q65 0 120 -39q60 -41 71 -103q3 -17 3 -88q0 -35 4 -52q5 -22 89.5 -76.5t94.5 -114.5q5 -29 5 -62z" />
  </g>

</svg>
