<?xml version="1.0" standalone="no"?>
<!DOCTYPE svg PUBLIC "-//W3C//DTD SVG 1.1//EN" "http://www.w3.org/Graphics/SVG/1.1/DTD/svg11.dtd" >
<svg viewBox="0 -442 2048 2048">
  <g transform="matrix(1 0 0 -1 0 1606)">
   <path fill="currentColor"
d="M1702 -26q0 -71 -50.5 -126.5t-121.5 -55.5q-85 0 -146 73q-67 -50 -136 -50q-46 0 -91 19q-53 23 -69 59q-53 -46 -92.5 -60t-109.5 -14q-101 0 -207 146q-120 13 -176 36q-93 36 -126 119q-17 43 -17 84q0 21 3 37q-2 2 -18 4q-113 13 -188 89.5t-75 188.5
q0 115 84.5 196t200.5 80q11 98 11 121q0 6 -18 28q-104 128 -180 176q24 55 70 117q59 80 97 80q6 0 30 -19l105 -84q58 -51 90 -99q40 6 119 8l5 6q8 120 81 198q77 83 195 83q115 0 197 -81.5t81 -195.5q29 -3 88 -12q87 -16 141 -104q49 -80 49 -176q0 -14 -1 -27
q151 -98 151 -229q0 -99 -74 -177q0 -4 7 -9q71 -52 71 -156q0 -46 -25.5 -93t-25.5 -41q0 -3 35.5 -46.5t35.5 -92.5zM1445 881q0 70 -58 132.5t-127 62.5q-47 0 -62 -22q-18 -33 -37 -66q114 -95 133 -180q49 20 146 43q0 5 2.5 15t2.5 15zM1157 1156q0 79 -58 137.5
t-137 58.5q-78 0 -138 -58t-60 -136t60 -140.5t138 -62.5q74 0 134.5 63.5t60.5 137.5zM1585 607q0 65 -51.5 113t-116.5 48t-112 -48t-47 -113q0 -64 48 -115t111 -51t115.5 51.5t52.5 114.5zM1231 755q0 76 -56.5 130.5t-132.5 54.5q-72 0 -126.5 -56.5t-54.5 -128.5
q0 -73 55 -129t128 -56q71 0 129 57t58 128zM1585 266q0 53 -36.5 89t-90.5 36q-55 0 -88.5 -34t-33.5 -89q0 -54 34 -90t88 -36q52 0 89.5 36t37.5 88zM511 1077q-23 31 -80 88q-67 67 -86 67q-16 0 -42 -32.5t-30 -50.5l158 -151q30 57 80 79zM834 868q0 79 -60 137.5
t-139 58.5q-77 0 -137.5 -61.5t-60.5 -138.5q0 -79 58 -136t138 -57t140.5 58.5t60.5 138.5zM1293 369q0 68 -49 115t-117 47q-67 0 -112 -46.5t-45 -113.5q0 -66 46.5 -114.5t112.5 -48.5t115 47.5t49 113.5zM1608 -14q0 40 -26.5 67t-66.5 27q-37 0 -65.5 -28.5
t-28.5 -65.5t28.5 -65t65.5 -28t65 28t28 65zM1363 41q0 49 -40 88.5t-89 39.5q-50 0 -89 -38.5t-39 -87.5q0 -52 39 -89.5t91 -37.5q48 0 87.5 38.5t39.5 86.5zM931 455q0 76 -55.5 130.5t-131.5 54.5q-77 0 -130 -54t-53 -131q0 -70 57.5 -127.5t127.5 -57.5
q74 0 129.5 55.5t55.5 129.5zM1059 80q0 66 -50.5 114.5t-116.5 48.5t-113 -48.5t-47 -114.5q0 -65 48.5 -112.5t113.5 -47.5q66 0 115.5 47t49.5 113zM546 541q0 79 -62 135.5t-141 56.5t-136.5 -56.5t-57.5 -135.5q0 -77 58.5 -137t135.5 -60q81 0 142 58t61 139zM697 207
q-57 8 -188 133q-31 -19 -59.5 -37t-28.5 -66q0 -91 91 -145q54 -32 75 -32h63q14 87 47 147z" />
  </g>

</svg>
