<?xml version="1.0" standalone="no"?>
<!DOCTYPE svg PUBLIC "-//W3C//DTD SVG 1.1//EN" "http://www.w3.org/Graphics/SVG/1.1/DTD/svg11.dtd" >
<svg viewBox="0 -442 2048 2048">
  <g transform="matrix(1 0 0 -1 0 1606)">
   <path fill="currentColor"
d="M1858 737q0 4 -5 -75l-14 -16q-6 -71 -34 -85q-10 -3 -28 -11q-25 -21 -77 -58q-15 -4 -45 -15q-6 -3 -35.5 -23t-34.5 -20q-133 0 -171 -14q2 -56 17 -165q10 -17 26 -52q0 -14 6 -40q25 -33 67 -105q9 -21 9 -112q0 -66 -22 -97q-29 -38 -57 -76q-20 -5 -67 -28
q-24 -12 -62 -15q-52 -5 -64 -8q-8 -2 -27 -12q-14 -8 -31 -8q-49 0 -126 7q-107 8 -127 9q-65 3 -194 12q-43 0 -118 15q-5 8 -20 22q-7 4 -37 11q-84 20 -120 67q-4 10 -11 29q-20 45 -28 86q-1 12 -5 32q-10 30 -10 20q0 -9 11 20q-11 6 -11 44q0 25 16 56q19 38 23 54
q15 86 46 258q-11 7 -85 13q-77 6 -108 23q-9 17 -45 40q-7 6 -52 58l-12 3q-83 110 -93 134q-21 46 -21 159q0 26 29 88q19 27 45 89q11 6 31 18q44 45 134 118q10 1 28 7q12 9 37 27q48 32 109 54q17 14 52 38q14 0 41 6q13 10 40 30q22 9 64 31q7 9 25 22q184 90 253 90
q40 0 144 -26q31 -8 101 -48q17 -23 57 -62q25 -12 73 -39q123 -80 294 -248l12 -3q97 -88 173 -184q2 -15 24 -41q10 -59 10 -104zM1761 702v143q-16 27 -54 76q-2 2 -36 25q-21 14 -25 35q-89 99 -99 99q-4 0 -8 -2t-8 -2h-5l4 1l2 14q-106 89 -179 145q-26 22 -81 61
q-14 5 -40 18q-27 27 -85 78q-22 17 -85 35q-59 16 -90 16q-39 0 -166 -58q-19 -17 -61 -47q-12 -1 -32 -6q-22 -23 -73 -58q-14 -2 -40 -11q-6 -3 -166 -109q-12 -14 -40 -38q-42 -18 -122 -59q-51 -30 -80 -88q-38 -77 -38 -114q0 -4 10 -24q11 -23 13 -29q7 -38 24 -113
q14 -1 29 -20q21 -27 23 -29q8 -5 17 -12q5 -12 19 -32q45 -41 85 -57q21 -3 60 -14q10 -8 29 -18q53 -8 93 -9l273 -4q3 0 15 11q9 2 41 2q7 0 17.5 -6.5t15.5 -6.5q190 12 205 12q11 0 18 -1q14 -11 19 -11q27 0 82 8t82 8h181q5 0 49.5 18t55.5 21q31 2 86 23
q17 14 54 105q11 27 11 24zM1483 -58q0 50 -50 160q-13 16 -34 52q-2 14 -11 41q-11 15 -25 48q-2 30 -14 88q-33 10 -48 10q-38 0 -55 -5q-5 -1 -29 -12t-29 -11q-28 0 -33 32q-72 -12 -78 -12q-24 0 -40.5 18.5t-20.5 18.5q-13 0 -41 -10.5t-43 -10.5q-5 0 -32 31
q-18 6 -53 16q-43 1 -109 11q-5 8 -19 21q-13 4 -38 18q-5 -5 -16 -9l4 -5l-1 -2q-3 0 -9 -2t-10 -2q-5 0 -11.5 4t-10.5 4q-14 0 -29 -11q-21 -17 -26 -19q-6 -115 -33 -121q0 -15 -3 -44q-14 -36 -37 -109q-10 -47 -10 -106q0 -149 99 -190q25 -1 72 -11q8 -6 21 -14
q26 -1 77 -6q10 -5 32 -14q65 -17 278 -17q9 0 26.5 -4t26.5 -4q131 0 223 25q47 13 91 58q48 50 48 95z" />
  </g>

</svg>
