<?xml version="1.0" standalone="no"?>
<!DOCTYPE svg PUBLIC "-//W3C//DTD SVG 1.1//EN" "http://www.w3.org/Graphics/SVG/1.1/DTD/svg11.dtd" >
<svg viewBox="0 -442 2048 2048">
  <g transform="matrix(1 0 0 -1 0 1606)">
   <path fill="currentColor"
d="M1876 1381q-10 -7 -34 -17q-20 -2 -60 -8q-31 -6 -137 -42q-13 -10 -40 -26q-75 -35 -166 -170q-105 -157 -157 -354q-39 -149 -39 -194q0 18 5 -54q68 -39 119 -45q19 -15 55 -45q106 -93 126 -176q9 -36 9 -118q0 -29 -15 -68q-22 -59 -24 -65v-37q0 -38 -69 -128
t-106 -109q-15 -2 -41 -7q-34 -15 -105 -38q-87 -21 -101 -21q-162 0 -267 37q-13 8 -40 22q-58 21 -119 83q-67 68 -71 124h-22q-10 0 -31 -7t-30.5 -8t-54.5 -1q-8 0 -24 -2.5t-24 -2.5q-25 0 -108 34q-58 24 -140.5 121t-82.5 211q0 96 22 152q19 50 82 131q7 13 23 36
q57 63 100 84q70 34 223 34q69 0 120 -5q99 195 318 381q15 8 44 27q134 110 294 190q73 36 319 138q14 6 107 24t108 18l31 -4q-6 0 -6 -6q0 6 2 -17t7 -72zM1852 1401q-14 19 -30 51q-68 -14 -136 -27q-108 -25 -108 -53q0 -4 19.5 -21t21.5 -20q46 23 233 70zM1553 1321
q-8 7 -21 22q-192 -51 -409 -203q-28 -24 -85 -70q-120 -90 -269 -255q-23 -26 -74 -131q59 -25 112 -77q58 -58 70 -114q48 12 135 28h170q48 332 155 525q15 18 41 57q13 30 43 84q11 15 132 134zM1493 132q0 185 -142 295q-1 1 -75 25q-3 -11 -11 -32q-9 9 -21 20v-59
q16 3 13 3q51 0 51 -68q0 -6 -3 -8h-19q-6 0 -19 6t-20 6q-11 0 -32.5 -2t-32.5 -2q-26 0 -47 33q-28 44 -34 49q-23 11 -67 37q4 3 7 10h38q13 0 94 -57v85h-138q-63 -15 -137 -32q-2 -1 -7 1.5t-7 2.5q-10 0 -39.5 -16t-38.5 -25q-4 -10 -17 -27q-150 -129 -150 -293
q0 -99 56 -179q26 -37 91 -80q61 -41 108 -56q82 -26 196 -26q202 0 325 175q5 14 18 40q11 12 26 32q0 10 3 29q10 28 20.5 57t10.5 56zM812 467q1 17 -16 50.5t-31 45.5q-60 53 -113 71q-47 16 -130 16q-121 0 -152 -10q-60 -20 -123.5 -93t-76.5 -136q-2 -11 -12 -36
q-8 -17 -8 -42q0 -88 2 -100q17 -100 88 -166q4 -3 49 -27q72 -37 99 -45q34 -10 104 -10q51 0 86 21v135q0 -8 19 47q72 207 215 273v6z" />
  </g>

</svg>
