<?xml version="1.0" standalone="no"?>
<!DOCTYPE svg PUBLIC "-//W3C//DTD SVG 1.1//EN" "http://www.w3.org/Graphics/SVG/1.1/DTD/svg11.dtd" >
<svg viewBox="0 -442 2048 2048">
  <g transform="matrix(1 0 0 -1 0 1606)">
   <path fill="currentColor"
d="M2004 1103q-149 -4 -299 -8q-184 -5 -295 -22q-28 -28 -57 -56q-62 -55 -109 -55q-10 0 -42 13q1 -23 11 -90q8 -60 8 -84l-25 -133q8 -3 86 -10q24 -6 72 -17q5 -1 49 -1q22 0 71.5 -12.5t145.5 -50.5q45 -27 64 -41q35 -26 54 -53q56 -80 113 -213q147 -28 147 -171
q0 -112 -36 -178q-8 -9 -21.5 -26t-43.5 -46q-79 -55 -175 -95q-29 -16 -90 -42q-158 -55 -369 -68q-10 -1 -42 -5q-26 -3 -42 -3h-260q-72 0 -230 23q-108 16 -269 59q-19 9 -59 26q-9 3 -147 88q-85 52 -121 117q-11 20 -11 86q0 118 116 191q11 22 32 58q17 13 45 47
q7 31 27 90q28 62 84 97q22 8 62 33q11 24 32 64q11 20 44 52q37 36 53 36h74q10 0 39 -26q9 -13 28 -39q30 -4 32 -4q3 0 17 12.5t18 14.5h35q15 0 23.5 6t13.5 7q21 6 69 8q5 4 7 8q32 77 32 147q0 21 -12.5 65.5t-12.5 61.5v80q-39 24 -77.5 48t-38.5 76q0 1 2 6
q63 58 151 153q-4 9 27 49q-4 -1 20 -1q6 0 22 13.5t41 13.5q5 0 14 -3t14 -3q7 0 20.5 3.5t21.5 3.5q7 0 14 -7.5t10 -8.5t45 -2h10q16 -20 43 -62q5 -13 16 -39h23q67 1 92 -8q11 -11 31 -30l563 96v-61l-598 -85v5q0 8 -2 27q-12 10 -82 10q-9 0 -76 -40q24 -9 47 -15
q-25 -34 -39 -34q-11 0 -40 22q-8 -8 -18 -26q8 -2 37 -2q4 0 4 -8q0 -6 -11 -19.5t-16 -13.5q4 0 -24 10q-18 -38 -18 -47q0 -7 5 -12q40 -7 70 -7q76 0 147 92q342 18 614 26v-61zM946 1131v39q-25 17 -31 17q-13 0 -31 -27q21 -9 62 -29zM1926 98q0 44 -62 79
q-73 40 -81 54q-6 23 -24 66q-56 100 -95 143q-61 67 -145 86q-23 7 -69 18q-20 -33 -62 -97q-11 12 -11 16q0 21 45 87q-31 -25 -50 -91h-8q-9 10 -9 23q0 32 34 77h-32q-4 0 -8.5 -3t-7.5 -3q-9 0 -28 6.5t-28 6.5q4 0 -35.5 -35t-76.5 -35q-11 0 -11 10q0 9 5 12
q10 3 28 11q29 15 51 42h-21q-50 -44 -78 -46l-1 2v9q11 14 36 35q-8 0 -23 3.5t-22 3.5q-13 0 -13 -29q0 -65 26 -89h4q93 -1 132 23q10 12 33 33l2 -20q-77 -74 -195 -74q-35 0 -67 9v8q6 9 23 12q23 5 27 7q-16 17 -16 64q0 28 14 68q20 61 22 67q27 108 27 166
q0 92 -17 194q-1 6 -8 24t-7 22q0 22 14.5 95t23.5 89q29 51 56 54q-14 20 -23 20q-4 0 -13 -6.5t-17 -6.5l-3 2v20q-17 3 -13 3l-32 -22q-16 16 -21 16q-4 0 -17 -15.5t-17 -15.5t-13.5 11t-13.5 11q-12 0 -34.5 -32.5t-22.5 -44.5v-287l28 -140q-20 -63 -40 -127
q-36 -93 -72 -93q-5 0 -14 1.5t-13 1.5q-8 0 -19 -6.5t-15 -6.5q-5 0 -13.5 5t-13.5 5q-1 0 -14.5 -12t-39.5 -12q-7 0 -20.5 1t-20.5 1q-5 0 -13 -6q-47 0 -103.5 -31.5t-85.5 -31.5q-10 0 -17 -8q-9 -11 -13 -13q-10 -1 -30 -5q-31 -7 -67 -46q-33 -35 -46 -69
q-5 -27 -11 -53q-6 -31 -30 -45q23 8 29 8q44 0 45 -25l-2 -3h-16q-11 1 -15 1q-17 0 -49 -16t-44 -29q-3 -13 -15 -37q-27 -27 -54 -55q-29 -31 -29 -70q0 -52 37 -85l82 -56q53 -37 91 -53q27 -15 81 -39q36 -9 109 -27q149 -40 278 -46q16 -1 54 -7q34 -5 53 -5h236
q8 0 25 3t25 3q108 0 290 47q189 49 279 105q27 15 60 36q81 93 81 184zM1139 1277q-25 -101 -24 -151v-49q0 -47 10.5 -140.5t10.5 -142.5q0 -53 -48 -160.5t-48 -100.5q0 -9 6.5 -27.5t6.5 -28.5q0 -12 -4 -20h-10q-8 0 -18 30q-9 26 -9 37q0 19 7 32q87 157 87 259
q0 -20 -18 161q-3 26 -3 152q0 49 14 80q20 34 40 69zM1670 311q0 -33 -17 -75q-6 -15 -26 -36q-22 -24 -35 -24q3 0 -15 3v15q22 13 42 48t20 61v94h15q16 -48 16 -86zM1854 99q0 -46 -25 -82h-12v20q0 3 8.5 20.5t9.5 23.5q5 25 4 51q15 -1 15 -33zM1826 120
q0 -30 -26 -78q-4 -7 -23 -13v27q0 8 10.5 30t10.5 31v24q0 7 -6 13.5t-6 20.5h18q22 -21 22 -55zM1617 327q0 -79 -35 -123q-10 -6 -25 -16q-10 2 -15 5q3 7 8 22q10 11 26 35q19 43 19 83q0 50 -37 61v12q15 7 19 7q40 0 40 -86zM1443 285q0 -30 -20 -54.5t-41 -47.5
q-15 0 -31.5 -10t-21.5 -10q-84 0 -103 30q-12 20 -12 109q0 28 36 60q33 29 63 37q7 2 43 2q29 0 59 -44q28 -40 28 -72zM1115 1283q-17 -40 -40 -123q-16 -99 -16 -167q0 -6 3.5 -18.5t4.5 -17.5q14 -105 14 -153q0 -68 -47 -163q-9 -27 -30 -81q-40 -89 -97 -150
q-2 -2 -75 -54q-48 -35 -48 -69q0 -27 7 -43q9 -20 79 -75q62 -49 62 -80q0 -60 -18 -85q-14 -19 -71 -49q-27 -4 -80 -38q-4 10 -4 17q0 19 75 51t75 92q0 12 -78 74.5t-78 136.5q0 54 104 119q52 33 106 139q63 125 64 127q32 75 32 136q0 37 -12.5 100t-12.5 95
q0 60 16 147q19 108 47 132h18zM1054 1274q0 -6 -9 -24q-10 -21 -12 -27q-22 -74 -22 -138q0 -95 8 -146q1 -9 13 -62q8 -37 8 -63q0 -53 -41 -145q-34 -70 -69 -140q-24 -48 -121 -134q-18 -10 -49 -38q-32 -47 -32 -91q0 -77 72 -123.5t72 -89.5q0 -26 -25 -48t-52 -22
h-36q88 62 88 70q0 12 -39 39q-50 34 -72 62q-39 49 -39 115q0 63 45 115q4 4 43 36q59 48 89 83q100 118 143 277q2 6 2 16q0 24 -11.5 101t-11.5 223q0 105 29 150q4 6 26 13q3 -4 3 -9zM1246 -3q0 -7 -8 -10l-14 -5q-50 -37 -47 -97v-13l25.5 -8.5t12.5 -23.5
q-18 -11 -27 -11q-39 0 -39 60q0 39 18 75q22 43 57 43q12 0 22 -10zM765 492q-17 -12 -29 -16q-124 -45 -118 -191q-15 11 -15 59q0 51 34 103q38 56 87 56h41v-11zM743 423q-27 -23 -53 -46q-25 -26 -25 -64q0 -18 -7 -28q-18 6 -18 61q0 11 24 59q2 4 32.5 20t36.5 16
q4 0 6.5 -2t3.5 -2v-14zM1168 -6q-44 -49 -44 -118q0 -45 22 -53v-24q-48 5 -48 104q0 39 43 90q10 5 13 5t7.5 -2t6.5 -2zM619 492q0 -2 -12.5 -17t-14.5 -23q-6 -29 -6 -60q0 -10 2 -29.5t2 -29.5q0 -12 -6 -23q-31 1 -31 73q0 45 23 98q2 4 28 22h15v-11zM606 223
q-15 -10 -28 -10q-27 0 -49 29.5t-22 56.5v20q10 -16 28 -41q25 -15 71 -44v-11zM715 -95q-12 8 -27 6l-149 -19q-20 6 -57 23q-7 10 -27 23h-31q-23 0 -55.5 34t-38.5 58q-7 29 -7 54q0 32 23 67t53.5 48.5t49.5 13.5q18 0 48 -23q53 -41 53 -130q0 -14 -5 -20
q0 -58 -57 -82v-8q21 -8 45 -8h160q8 -12 22 -37z" />
  </g>

</svg>
