<?xml version="1.0" standalone="no"?>
<!DOCTYPE svg PUBLIC "-//W3C//DTD SVG 1.1//EN" "http://www.w3.org/Graphics/SVG/1.1/DTD/svg11.dtd" >
<svg viewBox="0 -442 2048 2048">
  <g transform="matrix(1 0 0 -1 0 1606)">
   <path fill="currentColor"
d="M2018 1426q0 -134 -66 -176q-34 -9 -98 -36q-10 -6 -46 -45q10 -27 10 -35q0 -1 -2 -7q-38 -49 -91 -188q-13 -35 -29 -54q-165 -202 -267 -417q-12 -19 -33 -57q-9 -29 -30 -85q-30 -57 -83 -173q-20 -52 -40 -134q-31 -125 -34 -136q-34 -121 -131 -191q-9 -7 -29 -20
q-10 -5 -80 -20t-82 -15q5 0 -31 5q-19 1 -56 5q-11 2 -52 13q-32 8 -53 8q-12 0 -61 -19q-56 -21 -69 -24q-88 -20 -164 -20q-61 0 -89 7q-14 3 -69 36q-161 95 -161 305q0 152 54 283q34 81 204 240q161 150 312 230q25 18 78 52q1 0 201 90q73 35 221 101q55 19 163 65
q36 18 52 40q42 93 114 207q27 19 79 20l2 3q0 11 -7.5 30.5t-7.5 30.5q0 59 53 126q55 71 113 71q34 0 50 -16t24 -16q4 0 34 11.5t59 11.5h16q33 0 77.5 -37.5t44.5 -69.5zM1946 1417v5q-27 22 -53 43q-16 9 -68 9q-45 0 -75 -63l-6 -21q-2 -5 -15 -5l-3 2v47q0 4 19 31
q-17 17 -28 17q-24 0 -47 -17q-8 -6 -39 -55.5t-31 -56.5q0 -12 9.5 -33.5t9.5 -33.5q0 -16 -28 -45q5 0 15 -5t15 -5q6 0 17.5 2t17.5 2q7 0 34 -32q3 -1 11 -1q5 0 15 1.5t15 1.5q16 0 35 -9q9 45 56 66q74 32 82 39q42 34 42 116zM1742 1132q-10 15 -21 26q-10 -6 -25 -6
q-37 0 -40.5 28.5t-23.5 28.5q-4 0 -17.5 -4t-21.5 -4q-9 0 -27 1.5t-27 1.5q-12 0 -23 -12q-10 -25 -27 -63q-18 -31 -37 -62q-22 -37 -21 -66v-5q18 -8 53 -26l-3 -13h-14q-11 0 -30 8t-30 8q-10 0 -8 -12q23 -3 63 -24l-6 -8h-49q-6 0 -17.5 4.5t-17.5 4.5
q-11 0 -173.5 -67.5t-188.5 -81.5q-10 -8 -31 -20q-37 -14 -120 -50q-29 -11 -85 -37q-90 -52 -179 -110q-9 -6 -110 -86q-199 -158 -269 -284q-7 -11 -20 -35q-30 -70 -30 -218q0 -69 50 -139q6 -12 21 -31q74 -61 164 -61q68 0 138 17q12 3 68 23q35 13 75 13q60 0 93 -4
q114 -14 132 -14q13 0 48 11t44 18q71 56 142 189q63 118 90 223q2 22 11 66q18 40 52 120q29 77 72 163q10 26 34 75q43 72 154 227q35 38 98 119q26 58 90 168zM1921 1386q0 -23 -30 -53t-53 -30q-8 0 -18 11q13 8 35 27q7 7 42 59h20q4 -26 4 -14zM1691 1120
q-38 -102 -117 -216q-17 -12 -46 -38q-16 -19 -21 -36q-5 -21 -6 -23q-13 -10 -37 -30q-13 -18 -41 -52h-11v10q0 -8 21 33q3 11 11 31q13 1 29 21q-2 9 -2 18l1 14q9 3 14 16q8 21 8 22q6 9 16 29q7 7 22 7q14 11 14 39q0 10 12 24q17 17 19 21q1 1 11 36q5 16 30 27
q3 17 6.5 35.5t24.5 18.5t42 -7zM1292 538q-18 -34 -50 -105q-14 -49 -45 -145q-49 -121 -100 -280q-7 -2 -89 -107q-78 -101 -133 -101q-27 0 -114 29v12h15q-1 0 27 1q13 4 43 18q38 23 32 42q12 3 35 6q3 2 12 22q6 12 19 11l1 2q0 4 -3.5 11.5t-3.5 11.5q0 3 1 9t1 9
q0 9 -9 12l10 10q36 3 50 25q18 1 18 6t-6 14.5t-6 14.5q0 14 31 22t31 10q0 7 -6 19t-6 19q0 16 24 66l9 27q9 4 26 14v15q0 11 28 54q30 47 34 59q1 3 1 30q0 22 20 24q-7 21 -7 12q0 7 30 32q-1 5 -1 11q0 18 25 30q30 14 38 28h18z" />
  </g>

</svg>
