<?xml version="1.0" standalone="no"?>
<!DOCTYPE svg PUBLIC "-//W3C//DTD SVG 1.1//EN" "http://www.w3.org/Graphics/SVG/1.1/DTD/svg11.dtd" >
<svg viewBox="0 -442 2048 2048">
  <g transform="matrix(1 0 0 -1 0 1606)">
   <path fill="currentColor"
d="M1810 1327l-119 -494q2 -2 7 -2t14 2v-13q0 -1 -17 -100q-72 -408 -131 -686q-18 -88 -61 -261q-5 -17 -44 -48t-59 -38q-112 -37 -295 -37h-304q-134 0 -327 40q-99 20 -113 71q-31 108 -65 304q-36 251 -116 753h8q7 -1 13 2l-119 79l119 258l172 -94q12 26 12 217h177
q0 36 -4.5 111.5t-4.5 113.5h307q-2 -18 -2 -38q0 -19 2 -36q4 -2 8 -2q-1 0 137 12q5 29 15 88h300q6 -3 6 -7q0 -3 -1 -4l-4 -44q94 -23 257 -58q-4 -17 -10 -52zM1712 1276l-161 21l-80 -484h128zM1489 1367l-149 34l-55 -329q2 -8 45.5 -55t53 -51t32.5 -4q11 0 12 4z
M1239 1462h-152l-19 -160q-1 -5 1 -12q47 -27 142 -78zM1022 1265q-9 66 -22 112l-150 -19q2 -74 0 -118zM1276 951l-65 185q-42 -29 -94 -71l102 -237zM1111 1208l-25 4h-94l-70 -286h25q22 0 102 10q20 91 62 272zM1428 866l-118 41l-113 -393h112zM805 1161l-27 277h-140
l22 -305zM1153 882q-55 5 -118 9l-15 -376h115zM894 1099h-134l-73 -387l31 -198h20zM979 830l-121 -24l-52 -292h133zM616 813l-24 405h-131l-9 -420zM400 969q1 7 -4 10.5t-157 83.5l-59 -118l198 -129zM662 514v13q0 5 -20.5 103.5t-23 106.5t-9.5 14q-46 -10 -130 -22
l77 -215h106zM1614 760l-167 -12l-54 -146q-41 -106 -62 -131q-24 -28 -66 -28h-671q-8 0 -22 3q-17 3 -23 4q-27 54 -141 294q-67 7 -127 7v-16q0 -8 28 -193q64 -416 112 -656q6 -29 13 -61q11 -32 65 -46q138 -35 303 -35h298q42 0 137 10q101 11 129 21q47 16 64 56
q21 50 41 169q15 90 29 179q38 194 114 581z" />
  </g>

</svg>
