<?xml version="1.0" standalone="no"?>
<!DOCTYPE svg PUBLIC "-//W3C//DTD SVG 1.1//EN" "http://www.w3.org/Graphics/SVG/1.1/DTD/svg11.dtd" >
<svg viewBox="0 -442 2072 2048">
  <g transform="matrix(1 0 0 -1 0 1606)">
   <path fill="currentColor"
d="M2072 146q0 -110 -60 -242q-7 -15 -40.5 -52t-48.5 -48q-27 -10 -78 -31q-111 -53 -264 -81q-73 -13 -275 -35q-138 -15 -150 -15q-28 0 -76 3q-56 4 -77 5q-60 0 -178 9q-197 27 -290 46q-172 35 -278 86q-43 21 -95 83q-40 50 -80 101v203q0 11 5.5 32.5t6.5 29.5
q10 84 60 193q45 91 91 182q29 46 85 138q32 60 105 175q307 422 477 537q6 4 74 22q38 10 164 10q73 0 196 -85q98 -68 169 -143q31 -44 96 -129q147 -175 301 -461q1 -1 73 -194q87 -232 87 -339zM1965 102q0 122 -17 171q-123 355 -224 529q-21 46 -70 135
q-185 285 -341 377q-51 31 -102 61q-48 24 -115 24q-73 0 -123 -21l-48 -33q-26 -15 -72 -50q-104 -113 -243 -332q-43 -67 -210 -314q-31 -45 -91 -137q-60 -100 -97 -214q-23 -72 -23 -242q0 -38 1 -48q1 -5 15 -43.5t17 -41.5q31 -39 161 -71q91 -22 276 -57
q111 -21 117 -21q20 0 66 52q75 85 69 143l-40 400q178 18 532 60q85 12 246 41l110 20q9 0 34 -25q3 -40 29 -234q18 -142 18 -235q0 -21 -53 -151q29 14 58 27q36 17 51 38q69 96 69 192z" />
  </g>

</svg>
