<?xml version="1.0" standalone="no"?>
<!DOCTYPE svg PUBLIC "-//W3C//DTD SVG 1.1//EN" "http://www.w3.org/Graphics/SVG/1.1/DTD/svg11.dtd" >
<svg viewBox="0 -442 2087 2048">
  <g transform="matrix(1 0 0 -1 0 1606)">
   <path fill="currentColor"
d="M2087 487q0 -17 -94 -84l-118 -82q32 -133 32 -163q0 -187 -153 -290q-36 -24 -95 -46q-51 -17 -101 -34q-255 -97 -533 -97q-148 0 -353 53q-7 2 -88 34q-55 18 -160 67q-80 49 -152 189q-16 31 -23 89q-4 46 -9 93q-47 12 -94 25q-64 17 -64 54q0 10 1 14l191 200h-10
q-11 0 -31.5 -5.5t-31.5 -5.5q-26 0 -45 20.5t-19 46.5q0 84 48 129q57 42 114 83q-6 43 -6 108q0 93 14 145q10 38 54 134q87 188 357 266q177 51 215 51h230q188 0 355 -42q218 -54 306 -163q7 -9 48 -95q35 -74 35 -170q0 -9 -23 -149q88 -48 88 -97q0 -17 -9 -28
q16 -81 16 -75q0 -22 -20 -38q55 -37 119 -88q9 -14 9 -49zM1669 421l-3 22q-4 0 -12 -7v-12zM1823 1014q0 69 -8 98q-30 108 -117 169q-31 22 -113 53.5t-122 37.5q-217 34 -368 34q-258 0 -453 -93q-41 -19 -83 -39q-45 -24 -73 -54q-83 -90 -106 -206q-18 -90 -18 -75
v-160q15 -27 56 -74q42 -33 176 -76q131 -43 183 -43h324q89 0 294 41q55 7 160 32q223 81 257 215q11 43 11 140zM1634 411q0 22 -15 22q-22 0 -50 -16v-32q14 -13 24 -13q14 0 27.5 13t13.5 26zM1930 675q-13 22 -46 47v9q0 3 10 50q-9 3 -47 23q-78 -98 -115 -120
q-157 -93 -331 -128q-11 -3 -32 -8q-24 -4 -197 -15q-141 -9 -158 -9q-162 0 -351 21q-95 11 -180 51q-101 48 -139 120q-59 -36 -80 -53q-49 -39 -52 -73h12q20 0 59 9.5t59 9.5q18 0 60 -39t91 -39q6 0 18 3t18 3q26 0 82 -59q70 -74 77 -79q30 -21 153 -21
q6 0 37.5 -17.5t39.5 -18.5q23 14 71 38q111 44 350 44q13 0 38 -6.5t38 -6.5h75q0 49 8 69q3 8 24.5 26t28.5 18h156q36 0 79 34q39 46 88 96q8 1 26 5q10 6 30 16zM1992 503l-106 80q-74 -74 -128 -114l13 -52q0 -37 -34 -95q-10 -17 -28 -31q-67 -53 -311 -96
q-27 -8 -82 -21q-29 -4 -158 -11q-116 -6 -142 -6q-159 0 -356 54q-28 5 -81 21q-15 12 -49 34q-18 5 -52 18q-120 57 -111 227l-188 -187q249 -71 412 -123q36 -15 110 -40q266 -61 792 -203q48 98 162 229q49 63 157 180q64 41 180 136zM1836 176q0 40 -15 98
q-70 -75 -205 -229q-41 -61 -134 -175l-453 134q-55 -20 -202 -20q-68 0 -112 11q-16 7 -49 17q-14 2 -43 7t-80.5 37.5t-73.5 57.5q-8 9 -18 58q-21 18 -61 24q-34 4 -67 9v-14q0 -158 147 -273q9 -8 29 -21q73 -39 197 -71q121 -31 207 -35q29 -1 100 -10q64 -8 101 -8
q109 0 294 46q105 26 254 88q81 34 132.5 108t51.5 161zM700 360q-8 8 -16 8v-19q5 0 16 11zM638 376v4q0 14 -16 14t-16 -16q0 -3 1.5 -9.5t1.5 -9.5h18q11 11 11 17zM599 388v35q-4 8 -15 9q-17 2 -18 2q-9 3 -39 22q-20 13 -45 13q-42 0 -42 -19q0 -10 12.5 -28t21.5 -20
q18 -2 54 -9q18 -28 32 -28q-8 0 39 23zM772 77q0 19 -21 31q-25 -10 -25 -29q0 -26 26 -26q20 0 20 24zM690 83v24q-2 1 -22 17q-13 10 -25 10q-5 0 -13 -5t-13 -5t-14.5 6.5t-14.5 6.5q-6 0 -17 -1.5t-17 -1.5q-3 -7 -3 -14v-5q63 -44 86 -44q37 0 53 12zM1474 1302
q0 -11 -13 -15q-8 -3 -21 -2h-17q-9 0 -29 16t-20 24t4 13h55q19 0 41 -36zM1517 1202q-40 -30 -64 -30q-31 0 -31 23q0 10 21.5 26t32.5 16q2 0 41 -20v-15zM1256 1323q0 -18 -32 -18h-15q-23 0 -60 45q20 14 35 14q72 0 72 -41zM1331 1258q-28 -37 -37 -37q-16 0 -38 8
q-26 10 -26 23q0 31 66 31q10 0 35 -25zM1272 1111q-29 -33 -90 -33q-46 0 -46 24q0 17 33 30q27 11 47 11q7 0 20 -3.5t20 -3.5q12 0 16 6v-31zM1058 1302q0 -32 -73 -32q-17 0 -25 13v25q30 23 49 23q49 0 49 -29zM1100 1210q2 -20 -36 -38q-32 -16 -55 -16q-32 0 -32 22
q0 43 89 43q27 0 34 -11zM859 1271q0 -22 -27.5 -41t-50.5 -19q-17 0 -35 10v29q55 36 63 36h46q4 -4 4 -15zM1033 1029q0 -7 -1 -13q-21 -13 -31 -13q-19 0 -39.5 15.5t-20.5 33.5q0 19 21 19q71 0 71 -42zM876 1143q0 -13 -35.5 -34.5t-50.5 -21.5q-6 0 -17 3.5t-17 3.5
l-4 4v18q49 49 93 49q31 0 31 -22zM664 1149q0 -26 -37 -26q-57 0 -57 39q0 33 31 33q19 0 41 -14t22 -32zM1461 1300q-33 25 -44 25h-17q7 -29 40 -29q4 0 11 2t10 2zM1497 1205q-1 5 -3 16h-21q-13 0 -28 -26q28 4 52 10zM1230 1328q-1 4 -3 13q-30 10 -29 10q-3 0 -10 -2
t-10 -2q19 -19 25 -19h27zM1309 1255l-45 5q-7 -7 -7 -13q5 0 15.5 -1.5t15.5 -1.5zM1256 1120q-8 6 -21 6q-23 0 -66 -21q7 0 21.5 -4t22.5 -4q7 0 43 23zM1038 1308h-37q-5 0 -15 -11q16 -8 26 -8q8 0 26 19zM1071 1197l-31 4q-11 -6 -34 -18q23 0 65 14zM830 1263h-38
l-20 -20v-12h20q8 0 38 32zM1006 1026v12q-12 13 -18 13h-24q2 -5 20 -25h22zM846 1142h-14q-14 0 -51 -31h15q18 8 50 31zM641 1146q-13 26 -31 26h-14v-19q2 0 6.5 -3.5t8.5 -3.5h30z" />
  </g>

</svg>
