<?xml version="1.0" standalone="no"?>
<!DOCTYPE svg PUBLIC "-//W3C//DTD SVG 1.1//EN" "http://www.w3.org/Graphics/SVG/1.1/DTD/svg11.dtd" >
<svg viewBox="0 -442 2048 2048">
  <g transform="matrix(1 0 0 -1 0 1606)">
   <path fill="currentColor"
d="M1827 547q0 -166 -78 -333q-75 -161 -201 -277q-25 -23 -71 -47q-52 -27 -81 -27q-9 0 -29 -14t-27 -16q-15 -2 -46 -6q-165 -31 -266 -79q-8 -4 -19 -6q-17 -22 -27 -37q-17 -1 -32 12q-27 20 -28 21q-13 3 -38 10q-20 14 -62 36q-56 24 -170 66q-17 2 -50 10
q-51 18 -145 69q-101 55 -133 86q-102 99 -153 196q-10 26 -30 77q-59 139 -59 381q0 129 32 227q29 91 103 204q7 12 23 34q22 14 59 50q5 9 17 26q-22 14 -61 49q-14 17 -30.5 67t-16.5 73q0 37 54 37q17 0 51 -4t51 -4q25 0 76 4t76 4q262 0 480 -181q51 80 161 124
q96 38 204 38q51 0 87 -6q60 -10 62 -10h153q4 0 11 -4t11 -4q23 0 56.5 13.5t41.5 13.5q4 0 13 -4q16 -66 16 -59q0 -12 -20.5 -58t-30.5 -59q-34 -45 -89 -65q-15 -3 -45 -12q200 -225 200 -616zM1765 1366q-19 -3 -52 -22q-41 -5 -121 -5q-66 0 -118 5q-114 11 -123 11
q-172 0 -273 -96q58 24 155 28q18 -1 53 3q46 11 34 11q7 0 20.5 -5t18.5 -6q20 0 61 -6q59 -16 104 -38q5 -2 38 -26q27 -19 38 -19q41 0 84 32q31 23 49 62q28 64 32 71zM832 1291q-201 95 -310 99q-89 1 -268 3q9 -36 40 -103q8 -12 36.5 -37t37.5 -25q10 0 66 26
q70 33 73 34q54 21 156 21q24 0 70.5 -9.5t70.5 -9.5q11 0 28 1zM1769 609q0 236 -99 412q-121 214 -339 214q-13 0 -38 1h-38q-28 0 -163 -25l-19 -26l-20 7v-25q79 -81 133 -235q24 -68 24 -218v-70q0 -39 -26.5 -151.5t-43.5 -152.5q-16 -28 -48 -85q-12 -22 -21 -22
q-34 0 -34 21q0 4 21 41q25 43 27 47q31 66 43 116q5 53 22 158q12 48 12 62q0 136 -20.5 214t-74.5 167q-59 95 -120 136q-2 1 -73 22q-39 4 -113 19q-33 11 -27 11q-5 0 -10 -6t-10 -6h-126q-10 0 -69 -14t-67.5 -19t-26.5 -16q-20 -5 -58 -22q-47 -30 -96 -91
q-144 -178 -144 -485q0 -166 72 -321q78 -165 210 -249q49 -31 259 -122q33 -19 104 -48q39 -20 119 -50q13 0 39 -6q14 -11 40 -30q29 44 54 57q79 40 334 68q14 22 66 44q61 26 75 37q134 105 206 289q64 165 64 352z" />
  </g>

</svg>
