<?xml version="1.0" standalone="no"?>
<!DOCTYPE svg PUBLIC "-//W3C//DTD SVG 1.1//EN" "http://www.w3.org/Graphics/SVG/1.1/DTD/svg11.dtd" >
<svg viewBox="0 -442 2048 2048">
  <g transform="matrix(1 0 0 -1 0 1606)">
   <path fill="currentColor"
d="M2004 648q0 -38 -18 -119q-1 -13 -5 -40q-13 -50 -101 -147l-44 -59q-27 -36 -54 -50q-84 -48 -229 -109h-26q-17 0 -23 -6q-11 -11 -16 -13q-92 -46 -194 -56q-49 -5 -129 -15q-62 -8 -65 -8h-121q-4 0 -15.5 -4.5t-19.5 -4.5q-141 0 -196 7q-42 14 -128 38h-35
q-51 0 -196 100q-118 81 -184 142q-12 16 -36 47q-27 29 -67 94q-20 55 -20 149q0 56 39.5 147t80.5 133q127 131 224 183q12 2 34 9q132 61 282 96q107 25 100 25h396q21 0 150 -17q29 -9 87 -23q-2 0 40 0q26 0 71 -23.5t66 -23.5q31 0 96 -57q16 -7 45 -26
q43 -49 131 -143q29 -29 47 -69q7 -17 20 -78t13 -79zM1798 -245q-9 -1 -37.5 -10t-34.5 -9l-582 3q-18 2 -52 6q-44 3 -107 3h-20q-119 0 -128 -10q-11 -20 -36 -57q-34 -39 -101 -39q-59 0 -171 30q-12 0 -37 2q-16 4 -75 28q-34 14 -68 53q-36 43 -36 76q0 -18 14 44
q1 10 2 30q72 55 191 55q177 0 241 -19q55 -17 91 -80h589l97 12l193 25h35q3 -21 14 -60q1 -4 9.5 -14t8.5 -14v-55zM1927 671q0 28 -13 70q-14 47 -32 60q-7 2 -19 8q-18 28 -51 74q-49 61 -77 87q-13 8 -37 24q-18 16 -35 32q-13 10 -48 10q-21 0 -46 17q-28 20 -41 23
q-232 54 -329 54h-269q-96 0 -242 -40q-138 -38 -228 -86q-40 -21 -143 -113q-96 -85 -109 -108q-57 -97 -57 -208q0 -60 13 -86q57 -114 184 -197q19 -9 56 -30q107 -79 244 -112q121 -29 219 -38q85 -8 76 -8q72 0 208 13q19 2 82 13q50 8 82 8q48 0 179 46q123 44 175 75
q26 10 60 27q114 94 153 166q45 82 45 219zM1741 -214v77l-211 -31l-105 -15h-539q-5 0 -18 6t-18 6q-4 0 -11 -1.5t-11 -1.5q-10 0 -13 3q-5 11 -17 31q-24 29 -43 37q-55 23 -101 23h-217q-10 0 -22 -3.5t-30.5 -32.5t-18.5 -41q0 -7 37 -57q54 -73 173 -86q4 -3 12 -10
q90 -10 106 -10q32 0 66 30q26 26 52 53q8 3 24 11q22 12 25 12h880zM1745 679q0 -32 -68 -119q-3 -16 -15 -44q-56 -74 -143 -110q-36 -23 -112 -61q-11 -4 -138 -27q-9 -2 -44.5 -13t-41.5 -11q-4 0 -13 8t-13 8q-17 0 -46 -7q-37 -10 -47 -11q-91 -13 -211 -13
q-116 0 -187 30q-18 0 -49 5q-71 24 -141 50q-36 14 -86.5 69t-62.5 93q-5 9 -13 29q-14 73 -14 134q0 190 210 312q20 11 100 37q66 21 73 21q14 0 43 -1.5t44 -1.5q16 0 26 7q15 10 23 13q32 11 95 11q17 0 31 -6.5t15 -6.5q2 0 24 14t29 16q16 5 72 5q50 0 72 -5
q6 -9 22 -20q20 0 59 -2q21 -7 63 -19q35 -3 106 -12q11 -7 34 -17q20 0 60 -8q49 -19 125 -100q-22 -4 -64 -14l-4 8q7 5 22 13v27q-7 8 -16 8l-27 -9q-3 11 -13 31h-11l-10 -9q-3 1 -34 31q-22 -17 -39 -25v18h13l3 3v9q-3 7 -15 7q-13 0 -30 -21h-11q1 31 -33 31
q-36 0 -37 -25l-15 3v12q5 1 13 5q-9 17 -32 17q-3 0 -16 -21h-11q-3 3 -3 15q-9 0 -29 9.5t-30 9.5q-3 0 -10 -1.5t-10 -1.5q-5 0 -14.5 7.5t-14.5 7.5t-15 -1.5t-15 -1.5q-12 0 -18 16q-13 -3 -27 -7t-12 -18q-6 6 -26 10q-1 8 -9 8l-19 -10.5t-37 -10.5q-37 0 -57 28
l-14 -13q-3 0 -5 1.5t-5 1.5q-16 0 -18 -24q-35 12 -28 12q-8 0 -10 -1q-26 -35 -58 -58v-11q0 -1 1 -2q14 0 32 12q0 -11 -5 -26q1 -1 3 -2q10 0 21 10q-2 -6 -7 -11t-5 -20q0 -19 12 -20q14 0 28 1q4 -11 4 -34q-14 -5 -26 -31.5t-12 -44.5l2 -2q17 0 28 27l15 40
q5 3 14 10q-9 -18 -9 -22l18 -9q2 -10 15 -18q10 14 15 31q16 -16 27 -38h7q5 8 4 19q2 -5 10 -18q7 0 22 -2q3 -5 16 -21h-5q-26 2 -51 -35l24 -24q7 4 15 20q7 2 20 8q-4 -20 -4 -27q0 -16 11 -16q4 0 10.5 1.5t10.5 1.5l4 -9h-2q-3 0 -17 -6v-21q10 -13 30 -12
q-11 -14 -11 -21q0 -8 8 -16h8q7 13 22 19q0 -5 -3.5 -16t-3.5 -16q0 -8 3 -15h17q2 3 2 25q10 0 11 4q0 3 0 -19q0 -25 17 -25q4 0 12 9v-5q-2 -19 21 -28q4 -6 11 -36q10 -6 15 -6q3 0 8 2t8 2q5 0 12 -8q0 -4 -3 -10.5t-3 -10.5q0 -11 18.5 -18.5t18.5 -15.5q0 -4 -3 -10
q12 -3 31 -18h14q1 3 1 5q0 5 -5 19q19 -1 19 -13q0 -30 -29 -38v-8q19 -18 37 -18q4 0 25 6v-5q-1 -3 -1 -5q0 -17 16 -18q11 9 31 28h29q5 -9 4 -19q1 0 3 -1.5t6 -1.5q8 0 22.5 23.5t29.5 23.5q4 0 4.5 -3t4.5 -3q8 0 21 19t12 27h12q10 -18 21 -18q5 0 43 47t41 57
q12 6 35 20q0 23 11 72q2 5 16 20q11 12 11 20q0 36 -10 77q-1 3 -13 15q-13 -3 -13 -19q0 -5 5 -25l-4 -6q-5 16 -11 55q6 3 22 19v8q-6 2 -14 2q-10 0 -24 -3q4 9 22 27q1 10 -11 10q-7 0 -13 -6q0 13 5 23l-12 12v24q14 -9 38 -29q7 -14 21 -40q17 -20 33 -40
q23 -26 23 -42v-88zM778 -196q0 -24 -12 -35q-15 -12 -18 -25q-24 -21 -87 -21h-47q-37 0 -88 14q-8 2 -41 32q-18 16 -50 52q-1 12 7 12q6 0 42.5 -14.5t42.5 -14.5q4 0 17 6.5t17 6.5l28.5 -9.5t53.5 -9.5q16 0 51 27t34 42q13 -5 31.5 -27.5t18.5 -35.5zM734 876
q0 11 -26 11q-31 0 -74 -21q-50 -24 -50 -51q0 -18 18 -18q48 0 121 48q11 20 11 31zM987 647q0 28 -39 28q-6 0 -17 -4.5t-17 -4.5q-3 0 -9 4.5t-13 4.5q-28 0 -76 -44t-48 -71q0 -22 25 -22q4 0 38.5 28t38.5 28t11 -5t11 -5q21 0 58 22t37 41zM1286 389q-9 11 -24 15
q-24 7 -26 8q6 4 12 13q-6 0 -22 -9q-11 8 -11 17q0 21 15 25q-24 3 -47 6q-29 7 -29 30v9q1 7 1 10q0 11 -19 36q-15 3 -46 10q11 -10 11 -33q0 -38 -91 -84q0 -11 -5 -30q-47 -71 -105 -71q-42 0 -83.5 3t-41.5 53q0 31 13 42q22 10 43 21q-88 37 -88 71q0 13 10 36
q69 156 184 153q-38 14 -38 52q0 -1 31 62h-25q-20 0 -25 -18.5t-36 -18.5q-9 0 -24 12q-9 -14 -27 -41q-15 -15 -46 -45q12 -17 12 -28q0 -53 -56 -129q-58 -81 -107 -81q-27 0 -39 13q-22 23 -26 26q-18 5 -43 19q-16 20 -16 77q0 16 14.5 41t28.5 32q10 1 28 5q9 4 23 21
q8 9 41 9q16 0 22 -12l15 14q-21 10 -34 25q-12 1 -31 1q-24 0 -58 -19q-7 7 -16 15h-27q-50 0 -50 26q0 16 16 16q5 0 16 -5t15 -5q19 0 19 22q0 19 -15.5 26t-31.5 13q15 21 22 21q31 0 39 -9l18 -38h14q7 15 25 39q15 14 66 40.5t67 26.5q14 0 41 -11.5t38 -10.5v18
q-16 3 -57 47q-15 13 -32 31q1 -2 1 12q0 4 -13 4q-26 -7 -78 -26q-28 -13 -110 -67q-93 -62 -129 -161q-24 -65 -24 -84q0 -109 120 -216q45 -40 161 -88q15 -2 44 -8q29 -12 88 -29q29 -4 91 -4q24 0 176 7q-22 29 -22 41q0 5 5 8q125 -16 151 -13zM934 432v15
q-10 10 -32 10h-18q-17 0 -44 -17.5t-35 -33.5q-12 -23 -12 -18q0 -25 24 -25q22 0 60 28q29 20 57 41zM641 681q0 6 -8 13h-7q-5 -1 -8 -1q-5 0 -9 2q3 4 3 11h-19q-24 0 -58.5 -32.5t-34.5 -56.5q0 -45 28 -45q10 0 16.5 14.5t14.5 18.5l54 26q28 19 28 50z" />
  </g>

</svg>
