<?xml version="1.0" standalone="no"?>
<!DOCTYPE svg PUBLIC "-//W3C//DTD SVG 1.1//EN" "http://www.w3.org/Graphics/SVG/1.1/DTD/svg11.dtd" >
<svg viewBox="0 -442 2048 2048">
  <g transform="matrix(1 0 0 -1 0 1606)">
   <path fill="currentColor"
d="M2028 466q0 -28 -23 -57q-5 -6 -132 -120l-541 -486q-76 -67 -132 -116q-22 -21 -67 -58q-30 -21 -87 -21q-122 0 -176 14q-141 36 -349 93q-74 20 -220 62q-18 8 -54 23q-165 58 -165 149v457q0 29 42 87q8 10 75 50q-86 143 -86 219q0 8 4 24t5 22q12 125 141 208
q383 248 805 481q25 14 124 36q96 22 127 22q165 0 370 -68q67 -22 149 -88q90 -71 110 -129q8 -23 8 -83q0 -126 -48 -174q20 -12 57 -38q63 -54 63 -148v-361zM1959 501v348q0 17 -33 64q-30 43 -84 67l-741 -509l-5 11l622 468q50 34 140 116q19 23 19 26v146
q-34 41 -112 115q-13 13 -41 33q-179 92 -290 92q-122 0 -236 -20q-30 -4 -76 -15q-48 -22 -283 -156l-528 -303q77 15 98 15t192 -21q111 -14 136 -18q72 -13 132 -39q20 -6 60 -21q15 -7 95 -74q15 -11 40 -35q45 -68 45 -159q0 -34 -5 -51q-9 -30 -84 -149q0 -4 71 -44
q50 -28 64 -71q11 -34 11 -69v-494l558 508q48 43 143 129q20 18 58 55q5 6 34 55zM1121 -210v459q0 11 -13.5 51t-19.5 45q-38 20 -97 60q-12 11 -12 36q0 21 12 31q19 18 22 22q7 20 24 57q13 19 25 38q6 12 6 48q0 15 -2 20q-19 45 -74.5 112t-95.5 93q-87 56 -218 73
q-70 9 -210 23q-93 9 -100 9q-23 0 -64 -17t-57 -34q-55 -57 -55 -138q0 -50 30 -132q1 -3 25 -56q19 -40 19 -52q0 -3 -1 -17l-64 -42q-40 -29 -40 -57v-461q0 -11 14.5 -35.5t24.5 -28.5q88 -34 362 -116q308 -94 358 -94q10 0 28.5 2t27.5 2h18q11 -1 17 -1q48 0 69 18
q9 8 25 39t16 43z" />
  </g>

</svg>
