<?xml version="1.0" standalone="no"?>
<!DOCTYPE svg PUBLIC "-//W3C//DTD SVG 1.1//EN" "http://www.w3.org/Graphics/SVG/1.1/DTD/svg11.dtd" >
<svg viewBox="0 -442 2048 2048">
  <g transform="matrix(1 0 0 -1 0 1606)">
   <path fill="currentColor"
d="M1864 1317l-408 -75l-180 -28q-144 -23 -160 -36q-20 -17 -20 -54q0 -30 31 -133q16 -33 33 -120v-42q1 -49 -21 -102q8 -3 23 -4q331 -15 503 -82q13 -5 47.5 -29.5t40.5 -33.5q8 -13 8 -81q0 -128 -52 -255q-11 -35 -38 -104q-21 -34 -63 -101q-153 -255 -335 -361
q-13 -9 -40 -25q-70 -32 -312 -32q-237 0 -311 32q-4 2 -56 38q-150 105 -256 253q-39 51 -108 159q-68 127 -98 270q-10 47 -10 141q0 61 21 83q7 7 74 46q55 32 264 56q101 3 221 17q45 25 45 142q0 19 -30 75q-33 62 -37 81t-4 79l-5 2q-11 0 -32 -7.5t-33 -7.5
q-43 0 -43 116q0 8 20 39q224 64 671 191q301 84 328 84q10 0 28 -1.5t27 -1.5h81q-33 -8 -479 -132q-207 -54 -619 -171l-2 -3q-2 -26 8 -26q45 0 94 22q13 9 40 25q2 1 86 18q54 11 45 11q15 0 29 9q25 14 27 15t40 1l15 17q6 1 23 1q5 0 15 -1.5t15 -1.5q6 0 18 6t18 6
t17 -3t17 -3q-3 0 21 14q9 5 43 13l715 163v-36q-48 -13 -147 -35q-325 -73 -524 -121q-25 -5 -51 -9q-23 -8 -22 -39v-12l3 -2l741 141v-55zM1111 787q0 85 -10 133q-5 24 -37 115q-24 70 -24 118q0 59 34 103v17q-8 4 -18 4q-22 0 -38 -48q-14 -39 -14 -67
q0 -54 32 -156.5t32 -156.5q0 -66 -7 -100q-2 -11 -28 -101q-17 -60 -17 -102q0 -54 35 -127h32q-36 73 -36 123t32 135.5t32 109.5zM1038 846q0 54 -29.5 158t-29.5 158q0 20 12.5 54.5t12.5 43.5q0 7 -7 11h-10q-15 0 -31 -26q-10 -17 -10 -87q0 -76 10 -119
q39 -165 39 -191q0 -65 -17 -179q-1 -9 -10.5 -37.5t-9.5 -36.5v-131q0 5 28 -45h27q-1 7 -4 14q-27 61 -27 122q0 50 28 145t28 146zM1509 455q-40 33 -93 42q-50 4 -148 13q-142 13 -163 13q7 -55 57 -106q13 -1 30 -1q220 0 317 39zM657 1172q-24 -6 -73 -18q2 -7 4 -21
h28q31 0 41 39zM976 804q0 47 -19 117q-26 101 -29 116q-10 54 -10 108q0 42 8 75q4 18 4 29h-17q-16 -9 -22 -22q-19 -38 -19 -90q0 -54 38.5 -153.5t38.5 -152.5q0 -60 -38.5 -171t-38.5 -172q0 -72 31 -72q12 0 24 7q-9 33 -9 34v126q0 7 17 60q20 61 22 68q19 74 19 93z
M915 830q0 46 -39 161q-31 91 -31 165q0 -8 24 71h-33q-16 -40 -16 -114q0 -81 38 -169q32 -74 32 -93q0 -109 -43 -178q-25 -41 -33 -57q-17 -35 -17 -64v-34q0 -70 11 -102h33v118q0 43 30 134q15 39 29 78q15 43 15 84zM861 802q0 64 -11 91q-17 38 -35 77
q-19 49 -19 149q0 38 4 86l-5 4h-17q-26 -72 -26 -159q0 -12 35.5 -85.5t35.5 -119.5v-52q0 -48 -48.5 -128t-48.5 -127q0 -92 15 -119q19 0 36 -3q-12 40 -12 114q0 69 48 152t48 120zM792 807q0 69 -25 129q-16 32 -32.5 64t-16.5 70q0 51 11 79q7 17 16 51q-21 0 -56 -38
q1 -8 1 -11q0 -10 -2.5 -29.5t-2.5 -29.5q0 -48 38.5 -133.5t38.5 -133.5q0 -53 -13 -85q-5 -11 -50 -90q-38 -66 -38 -84q0 -40 11 -75q17 -51 20 -68h11q-9 24 -9 28v120q0 3 8 21q15 34 48 101q8 9 20 30q22 52 22 84zM1696 529q-185 138 -578 138q-4 -21 -10 -64
q332 0 480 -70q13 -49 13 -53q0 -12 -21 -36q-14 -16 -143 -37q-116 -19 -159 -19h-625q-49 0 -172 12q-131 13 -164 23q-75 23 -103 53l-4 39q11 10 36 26q67 36 365 66q11 20 34 60h-31q-283 0 -424 -96q-44 -30 -44 -43q0 -348 306 -666q20 -25 65 -70q84 -69 142 -89
q37 -13 141 -13h233q113 0 150 13q13 9 41 26q191 120 347 363q19 25 51 80q33 77 58 193q5 55 16 164zM636 421q-12 32 -34 96h-10q-17 0 -46 -6q-34 -8 -46 -9q-25 0 -74 -5q-86 -18 -93 -44q98 -24 303 -32z" />
  </g>

</svg>
