<?xml version="1.0" standalone="no"?>
<!DOCTYPE svg PUBLIC "-//W3C//DTD SVG 1.1//EN" "http://www.w3.org/Graphics/SVG/1.1/DTD/svg11.dtd" >
<svg viewBox="0 -442 2048 2048">
  <g transform="matrix(1 0 0 -1 0 1606)">
   <path fill="currentColor"
d="M1998 1147q0 4 -5 -29q-2 -16 -8 -49q-14 -61 -70 -117q-59 -59 -119 -59q-12 0 -35.5 6t-35.5 6t-340 -246l-318 -240q-112 -86 -177 -147q-359 -338 -560 -514q-17 -11 -50 -36q-98 -83 -93 -83q-19 0 -61 23q-8 4 -26 48.5t-18 56.5q0 53 25 129q87 264 190 489
q41 77 121 231q88 172 210 426q15 31 45 110q34 89 34 106t-5.5 53t-5.5 54q0 14 2 25q5 28 50 87q48 63 73 63q4 0 13 -1.5t13 -1.5q21 0 62.5 9.5t62.5 9.5q12 0 37 -4.5t37 -4.5q6 0 18 1.5t18 1.5q7 0 81 -21q71 -20 118 -20q6 0 19 1.5t19 1.5q9 0 25 -3t24 -3
q9 0 27.5 3t27.5 3q15 0 38 -14q27 -16 38 -19h54q33 0 54 -13q32 -21 42 -25q19 -4 56 -17q52 -28 103 -69q11 -14 37 -38q2 -1 18 -1t61 -25t54 -37q5 -6 12.5 -50t7.5 -57zM1908 1128q0 20 -9 46q-10 33 -25 33q-19 0 -45.5 -18t-31.5 -36q-5 -24 -17 -71q-1 -3 -20 -27
h-2h-14l-4 2v9q0 51 29 111q15 17 43 51q-15 1 -41 11q-12 15 -38 42q-25 22 -78 59q-22 5 -65 20q-3 2 -19 13.5t-19 11.5h-81q-3 0 -25.5 11t-30.5 12q-45 8 -110 8q-6 0 -19 -1.5t-19 -1.5q-12 0 -49 9t-60 9q-17 0 -31 7q-18 9 -26 11q-74 14 -136 14q11 0 -144 -11
q-38 -3 -57 -62q-5 -14 -5 -48q0 -11 2.5 -32t2.5 -31q32 19 71 19q14 0 43.5 -5t43.5 -5q10 0 30 5t30 5q19 0 36.5 -8t19.5 -8q9 0 27.5 6t27.5 6q47 0 63 -18q10 -12 19 -24q73 -35 81 -35q5 0 13.5 3t13.5 3q35 0 85 -17q41 -22 127 -60q36 -8 84 -24q15 -9 29 -44
q56 -8 86 -21q35 -15 55 -64q17 -41 46 -41q30 0 56 30q40 46 53 96q4 15 4 50zM1251 1166q-49 10 -46 10q-19 0 -74 -27q-60 -29 -60 -46v-14q4 1 18 8.5t18 7.5q30 0 39 -59h11q34 14 60 35q-25 25 -25 31q0 22 23 27q28 7 36 27zM1385 898q-13 17 -31 17q-15 0 -24 -8
q-50 -45 -50 -124q0 -7 11.5 -21.5t17.5 -14.5q3 0 7.5 2t6.5 2q-6 16 -6 33q0 59 68 114zM1130 694q0 9 -10 59q-21 -3 -33.5 -34t-21.5 -31q-5 0 -14 4.5t-14 4.5q4 0 -24 -8q-10 -21 -32 -82q32 6 46 6q10 0 10 -14q0 -7 -6.5 -22.5t-6.5 -22.5q0 -3 2 -9t2 -9
q16 5 48 13q54 94 54 145zM1644 965q0 5 -2 8q-31 25 -102 62q-50 8 -134 27q-4 1 -14.5 9.5t-13.5 8.5q-4 0 -11 -3t-11 -3q-9 0 -104 43q0 -8 2.5 -24t2.5 -24q0 -7 -29 -22q-12 -11 -38 -29q-24 -10 -57 -10q-19 0 -23 18q-8 31 -9 32q-31 -9 -33 -9q1 0 -37 21
q-3 15 -3 21q0 22 68 88h-147q-4 0 -15 9.5t-15 9.5q-10 0 -30.5 -6t-30.5 -6q-6 0 -17 1.5t-17 1.5q-20 0 -63 -17q-15 -53 -49 -159q-12 -22 -32 -68q-25 -47 -72 -143q-46 -101 -187 -424q1 -9 17.5 -49t16.5 -66q0 -36 -4 -49q-14 -45 -51 -83q-42 -44 -84 -44
q-3 0 -7 1.5t-7 1.5q-22 0 -33 -32q-86 -251 -85 -297h27q60 52 152 156q104 118 147 160q17 17 215 182q91 79 275 234q-14 16 -14 33q0 6 4 17.5t3 17.5v5q-33 -12 -29 -12q-30 0 -30 25q0 20 53 111q-23 5 -22 25v5q15 13 46 15q35 3 41 6q11 14 37 39q10 7 32 7
q23 0 44 -27v-102q0 12 -12 -51l117 97q-34 70 -34 125q0 32 13.5 51t28.5 39q43 77 118 77q14 0 70 -17t67 -25q3 -2 17 -24q12 -18 19 -18q11 0 43 21.5t32 31.5zM334 235q-4 8 -4 16q-2 1 -4 1q-18 0 -39 -41q-19 -37 -19 -56v-14q14 -7 24 -7zM1706 1199q-6 -7 -17 -7
q-4 0 -11 4.5t-11 4.5q-6 0 -24 -18h-18q-3 0 -3 7q0 14 17.5 26.5t32.5 12.5q22 0 34 -20v-10zM1494 1254h-13q-4 0 -13 6t-14 6q-4 0 -13.5 -7.5t-13.5 -7.5q-14 0 -14 12q0 14 17 24.5t32 10.5q19 0 32 -44zM1345 1326q-3 0 -9.5 -1.5t-9.5 -1.5q-6 0 -17 4.5t-17 4.5
q-3 0 -7.5 -1.5t-7.5 -1.5q-8 0 -19 11q19 23 40 23t39 -14q3 -13 8 -23zM959 1358l-8 -7q-22 15 -32 15q-5 0 -26 -21h-18q0 2 -1.5 7t-1.5 8q0 31 54 31q5 0 15 -3.5t15 -3.5v-2q0 4 3 -24zM909 1137q0 -21 -38 -53q-5 -4 -27 -4q-69 0 -69 34q0 25 38 58q8 7 23 7
q-10 0 13 -8q19 -3 38 -5q22 -5 22 -29zM1077 927q0 -32 -38 -83q-34 -47 -65 -68q-43 -29 -135 -29q-50 0 -69.5 10t-38 45t-18.5 58q0 -3 5 16q22 84 83 140q54 49 153 49q37 0 80 -49.5t43 -88.5zM691 713q0 -12 -6 -37t-7 -37q-36 -23 -78 -23q-20 0 -28.5 16t-16.5 32
q21 27 44.5 53.5t59.5 26.5q32 0 32 -31zM912 504q0 13 -8 -33q-11 -62 -85.5 -118.5t-139.5 -56.5q-50 0 -95 38q-48 39 -48 88q0 35 32 84q29 43 62 68q21 16 76 37t79 21q22 0 77 -36q50 -33 50 -92zM639 243q0 -4 -23.5 -44t-28.5 -45t-26 -5q-81 0 -81 38q0 15 50 79
q9 1 26 2q4 3 9 10q31 8 25 8q14 0 31.5 -14.5t17.5 -28.5zM862 1142h-22q-10 0 -30 -24h39q5 8 13 24zM797 932q0 10 -7 17q-33 -46 -33 -68q0 -8 8 -26t14 -18q4 0 7.5 2t4.5 2v12q0 5 -2.5 16t-2.5 16q0 8 5.5 23t5.5 24zM651 706h-11q-19 -19 -39 -52q13 1 37 6
q5 15 13 46zM676 516q0 -2 -4 13q-27 -2 -53.5 -34t-26.5 -59q0 -18 12.5 -37t29.5 -19q-5 0 10 3v11q-21 36 -21 43q0 4 26.5 39.5t26.5 39.5zM579 233q0 6 -11 16l-44 -59h23q32 41 32 43z" />
  </g>

</svg>
