<?xml version="1.0" standalone="no"?>
<!DOCTYPE svg PUBLIC "-//W3C//DTD SVG 1.1//EN" "http://www.w3.org/Graphics/SVG/1.1/DTD/svg11.dtd" >
<svg viewBox="0 -442 2048 2048">
  <g transform="matrix(1 0 0 -1 0 1606)">
   <path fill="currentColor"
d="M1784 1178q-33 -33 -55 -44q-65 -32 -109 -32q-7 0 -21 4.5t-22 4.5q-13 0 -25 -7q48 -33 126 -158q9 -14 32.5 -104t23.5 -108q0 -41 -9 -87q-5 -11 -13 -35q-3 -35 -18 -105q-20 -33 -56 -100q-11 -28 -37 -82q-32 -37 -91 -116q-28 -49 -89 -143q-6 -9 -28 -57
t-75 -137q-21 -28 -73 -75q-55 -51 -80 -63.5t-79 -12.5q-110 0 -152 20q-116 55 -360 256q-24 20 -178 197q-13 12 -34 38q-2 7 -7 20q-15 21 -44 63q-80 121 -112 184q-2 10 -10 31q-31 59 -59 148q-10 31 -10 26q0 6 4.5 19t5.5 18q0 22 7 66q28 89 119 196q-16 4 -31 4
q-9 0 -17 -1h1q-1 -1 -7 -1t-20.5 14.5t-14.5 20.5q0 19 44 26l58 6q31 10 49 24q-42 11 -83 23q-48 15 -79 35q-18 12 -39 42q-31 43 -35 47q12 26 25 26q15 0 43 -18q34 -20 46 -24q18 -5 73 -5q90 0 159 17q8 2 13 12q-23 46 -23 70q0 20 12 53q15 38 17 52l7 9h33
q7 -13 27 -34q54 -34 162 -64q15 -10 47 -25q35 -6 104 -22q8 -5 28.5 -11.5t71.5 -6.5q57 0 104 21q27 12 201 96l90 53q65 39 87 39q6 0 18.5 -15t12.5 -21q0 -18 -48 -94q-20 -20 -57 -65q2 -2 8 -2q65 0 141 9q30 10 89 28q114 29 150 29q15 0 38 -25q-28 -33 -84 -63
l-94 -50l7 -5q101 -16 161 -16q10 0 20 4zM1693 1159q-107 16 -320 45l-7 5v11l3 2q169 0 286 72q-44 -13 -132 -32q-48 -6 -165 -17q-87 -8 -102 -8q-18 0 -25 21q24 13 68 43q13 12 79 122q-104 -55 -209 -109q-165 -84 -199 -84q-8 0 -25.5 7.5t-25.5 7.5q-5 0 -15.5 -2
t-15.5 -2q-31 0 -131 25q-90 23 -129.5 37t-78.5 27q-44 17 -71 39q-21 -31 -21 -37q0 -21 43 -89q0 -33 -26 -33q-4 0 -8.5 4t-8.5 4q-7 0 -56 -15q-54 -17 -66 -19q-45 -8 -66 -8q14 0 -83 14q11 -10 36 -25q12 -1 35 -6q79 -30 121 -30q32 0 42 7q14 10 27 20l6 -6
q-2 -7 -7 -17q-46 -47 -119 -80q-20 -8 -60 -23q21 1 38 1q7 0 21 -1t21 -1q67 0 147 32q10 4 33 62q25 62 48 80q21 -11 22 -30q13 -15 78 -30q58 -14 86 -14q7 0 20.5 1.5t20.5 1.5q8 0 15 -1q-43 -21 -185 -21q-12 0 -28 13.5t-21 13.5q-6 0 -16 -10q-2 -14 -19 -39.5
t-17 -37.5q0 -25 52 -25q36 0 107 27q84 31 107 36q3 7 11 17q35 21 76 21q11 -17 34 -42q117 -79 166 -79q26 0 73 31t47 56q0 15 -9 33q-95 -38 -115 -38q-6 0 -41 10t-40 14q8 0 25 -2.5t25 -2.5q49 0 92 20q6 3 34 25q25 21 29 21q21 0 35 -29q11 -23 11 -47
q0 -21 -15 -51q11 -10 32 -23q30 -9 74 -9q5 0 14.5 2.5t14.5 2.5q-19 46 -63 114v5h18q14 0 42 -4t42 -4q166 0 146 -1q94 4 138 31zM1692 752q0 41 -29 124q-56 160 -156 225q-41 -2 -76 -2q-32 0 -49 2q42 -73 42 -82q0 -24 -45 -40q-14 -5 -42 -5q-33 0 -84 15.5
t-70 15.5q-15 0 -52 -17t-51 -17q-51 0 -126 46t-71 46q-21 0 -76 -17q-14 -8 -43 -20q-29 -5 -86 -22q-59 -26 -74 -26q-6 0 -17.5 2t-17.5 2t-18.5 -5.5t-18.5 -5.5q-3 0 -7.5 1.5t-7.5 1.5q-5 0 -6 -3.5t-6 -3.5q-4 0 -14.5 11.5t-18.5 11.5q-2 0 -64 -11
q-45 -8 -135 -10q-102 -165 -102 -258q0 -24 9 -42q11 -23 11.5 -31t3.5 -26q18 -28 48 -85q5 -17 18 -47q8 -7 21 -23q1 -9 6 -27q1 -2 25 -35q33 -42 96 -128q5 -15 18 -43q81 -122 375 -347q22 -9 62 -34q62 -51 136 -66q51 -10 47 -10q43 0 59 5q105 33 166 116
q14 29 45 85q45 80 143 236q87 125 94 136q53 78 82 143q38 83 38 105q0 5 -3 13.5t-3 13.5q0 9 6.5 26t7.5 25q10 101 10 81zM1533 937q-15 -6 -26 -17l-47 69q35 -18 30 -18q4 0 21 15q15 -8 18 -20q2 -15 4 -29zM1669 714q0 -30 -28 -30q-23 0 -23 35q0 34 26 46
q0 -3 -1 -9v-9q0 -28 16 -28h5q1 1 3 4q2 -5 2 -9zM1548 812q0 -11 -20 -31q-9 2 -25.5 33t-16.5 42q0 9 9 17h14q9 -42 18 -42q5 0 8.5 2t4.5 2q8 -16 8 -23zM1451 821q-14 -6 -29 -21q-8 7 -20 25q-12 34 -12 49t10 15q21 -31 24 -31q5 0 11 3.5t8 3.5q0 -16 8 -44z
M1586 642q1 0 -21 -12q-21 20 -21 50q0 9 28 19v-3q0 -4 -1 -10t-1 -9q0 -13 16 -12v-23zM1486 700q0 -43 -27 -43q-12 0 -16 16q-4 13 -7 26q4 -4 10 -11q19 11 18 35q22 -22 22 -23zM1607 567v-15q0 -7 -1 -21v-20q-2 0 -8 -4.5t-11 -4.5q-7 0 -17 12t-10 19q0 23 21 58
q3 -14 13 -39q1 0 12 11q-3 6 -3 16q0 7 2 12q2 -12 2 -24zM1323 805q-8 -6 -24 -20q-16 16 -22 28l5 37q3 -2 10 -10.5t13 -8.5q8 2 18 4v-30zM1552 543q0 -48 -25 -48t-25 42q0 13 22 35q0 -21 3 -27l12 15q13 -13 13 -17zM1386 662q-21 -20 -29 -20q-25 0 -25 32
q0 8 11 18v-13q1 -2 3 -3q20 0 20 15q0 4 -1.5 10.5t-1.5 9.5q9 -4 23 -12v-37zM1544 440q0 -24 -25 -38q-21 12 -21 25q0 -1 13 24h14v-7q-1 -5 2 -11l16 15q1 -3 1 -8zM1239 702q-8 -16 -22 -29q-8 11 -24 34q3 -1 6 -1q15 0 18 21q7 -9 22 -25zM1401 516q0 -13 -8 -31
q-10 -21 -21 -21q-21 0 -21 23q0 45 26 46v-20q4 0 11 -7q7 7 7 19q6 1 6 -9zM1448 400q0 -33 -29 -33q-22 0 -22 17q0 -1 14 41q2 -4 2 -28l6 -7q13 3 21 31q8 -15 8 -21zM1277 521q-2 -23 -37 -42q-9 18 -9 23q0 34 21 54h14q-2 -10 -8 -28q7 -7 19 -7zM1475 284
q-14 -22 -31 -22q-20 0 -20 18q0 13 22 33q9 -11 29 -29zM1181 576q0 -12 -26 -19q-17 20 -17 27t20 7h8h10q0 -1 2.5 -5.5t2.5 -9.5zM1323 368q-13 -16 -24 -21q-29 15 -29 26q0 -3 13 36q23 -23 25 -23q14 0 15 6v-24zM1443 223q-9 -20 -24 -30q-22 9 -22 23q0 5 22 27
q0 -2 -1 -6v-6q0 -6 2 -12q2 -2 5 -2q7 0 18 6zM1355 276q0 -8 -26 -25l-20 20v33q8 0 17 9q4 -24 15 -24q5 0 9 4q0 -1 2.5 -6.5t2.5 -10.5zM1180 440q1 -23 -30 -30q0 3 -1 10v9q0 9 2 15q1 0 6 -4t10 -4t8.5 2t4.5 2zM1343 198q0 -12 -11 -28t-22 -16q-25 0 -25 21
q0 9 13.5 24t21.5 16q-4 -6 -12 -17v-10q5 -1 8 -1q8 0 14 9.5t8 11.5q5 0 5 -10zM1169 279l-9 -8h-14v2q0 3 -1 8.5t-1 8.5q0 9 7 15q9 0 18 -9v-17zM1363 102q-17 -26 -34 -37l-13 13q5 15 20 45q10 -8 27 -21zM1196 193q0 -10 -28 -39q-22 8 -22 21q0 8 12.5 22.5
t20.5 14.5q17 0 17 -19zM1254 99q-3 -10 -19.5 -25.5t-26.5 -15.5q0 5 -12 17q6 3 21 39l24 24q2 -4 2 -9q0 -8 -4 -16v-11q3 -3 15 -3zM1277 10q-10 -20 -25 -30q-21 11 -21 23q0 16 25 39q5 -5 13 -5q0 -6 -11 -28q3 -2 8 -2q7 0 11 3zM379 946q-4 -13 -19 -35
q3 -6 13 -15q1 -9 -12.5 -19.5t-22.5 -10.5q-9 16 -9 25q0 12 16 34.5t27 22.5q2 -1 7 -2zM1180 19q-8 -6 -25 -16q-17 17 -17 29q0 8 26 25v-11q-1 -16 7 -16q5 0 6.5 1.5t2.5 1.5v-14zM1200 -84q-14 -6 -29 -21q-14 14 -14 21q0 23 31 25q-1 -9 12 -25zM277 858
q1 -49 -47 -69q-13 23 -13 31q0 16 21 49q1 2 21 12q0 -3 -1 -9.5t-1 -10.5q0 -8 2 -18q12 6 18 19v-4zM360 740q0 -25 -23 -25q-19 0 -19 21t25 33q17 -9 17 -29zM1099 -62l-17 -16q-7 9 -21 24q0 9 18 18v-20q8 5 20 12v-18zM391 580q0 -12 -26 -27q-2 3 -13 14t-11 17
q0 3 26 26v-8q0 -6 -3 -9q2 -4 7 -10q10 0 10 16q10 -10 10 -19zM1115 -146q-6 -7 -21 -17h-13q0 4 -13 17q17 17 24 17q6 0 23 -17zM263 673q0 -35 -30 -35q-7 0 -15.5 14t-8.5 21q0 15 23 30q0 -4 -1.5 -13.5t-1.5 -14.5l6 -6q20 11 18 27q10 -9 10 -23zM433 453
q0 -20 -21 -20q-16 0 -25 16v21q2 4 30 13q0 -13 10 -23q6 0 6 -7zM302 553q-10 -4 -29 -12q-7 7 -21 28v13q9 9 15 9v-4q0 -8 6 -11q2 1 11 19q5 0 18 -13v-29zM592 230q-13 -22 -25 -22q-25 0 -25 29q0 18 18 18q-5 0 32 -25zM356 440q0 -19 -25 -19q-6 0 -19.5 19.5
t-13.5 25.5q0 5 3 8.5t3 4.5q12 -26 30 -27l7 7q-2 9 -27 26q8 2 9 6q33 -42 33 -51zM472 304q-8 -18 -19 -18q-8 0 -19.5 15.5t-11.5 24.5q0 5 17 21q4 0 11 -2t10 -2q0 -2 -3.5 -8t-3.5 -11q0 -12 19 -20zM565 175q-9 -17 -26 -17q-4 6 -12 17l21 22q12 -12 17 -22z
M1184 182v22q-12 -11 -19 -26q6 2 19 4zM356 748l-9 10q-16 -15 -17 -31q21 10 26 21z" />
  </g>

</svg>
