<?xml version="1.0" standalone="no"?>
<!DOCTYPE svg PUBLIC "-//W3C//DTD SVG 1.1//EN" "http://www.w3.org/Graphics/SVG/1.1/DTD/svg11.dtd" >
<svg viewBox="0 -442 2048 2048">
  <g transform="matrix(1 0 0 -1 0 1606)">
   <path fill="currentColor"
d="M1589 1482q0 -27 -23 -64q-202 -322 -202 -321q0 -4 28 -30q33 -32 34 -33q38 -43 55 -128v-42q0 -17 8 -27l16 -22q4 -8 16.5 -51t12.5 -50q0 -19 -34 -169.5t-43 -171.5q-13 -33 -66 -78q-21 -18 -101 -54q-32 -16 -98 -41q-39 -7 -117 -22v-2q132 -63 156 -81
q69 -55 69 -154q0 -109 -107 -186q-111 -80 -256 -105q-40 -7 -125 -7q-90 0 -134 7q-106 17 -216 80q-76 44 -107 85q-39 51 -39 129q0 106 85 166q25 18 71 36q61 23 74 30q-69 15 -205 58q-27 9 -79 33q-80 46 -101 100q-13 35 -46 176.5t-33 170.5q0 6 12.5 49t15.5 49
q8 11 22 33v38q0 7 2 17q12 62 31 100q29 59 90 94q28 6 78 37q17 62 53 155q23 38 94 90q20 12 61 36q94 58 159 71q49 10 108 10q126 0 251 -72q26 -13 76 -45q92 -71 124 -153q15 25 61 117q21 53 75 149q20 25 45 25q20 0 58.5 -3.5t59 -3.5t30.5 -14q1 -7 1 -11z
M1523 1468q-27 0 -80 4q-304 -581 -304 -591q0 -11 20 -20zM1394 876q0 32 -8 60q-11 39 -26 54l-44 38l-138 -205q32 -57 50 -152q25 -19 39 -19q38 0 80.5 44t45.5 82q1 13 1 33v65zM1193 1092h-49q-12 0 -79 -28t-80 -37q-17 -12 -22 -25q64 -24 78 -32q20 -12 63 -57z
M1199 1147q-21 106 -154 188q-122 76 -237 76q-93 0 -207.5 -60t-162.5 -138q-1 -2 -25 -65q41 1 114 -19q69 -20 108 -41q45 -25 88 -72q11 1 42 5q27 4 43 4q15 0 43 -4.5t42 -4.5q28 29 93 75q98 48 213 56zM1169 646q0 36 -44 123q-55 110 -136 155q-75 43 -202 43
q-98 0 -178 -54t-119 -144q-44 -102 -44 -125q0 -93 362 -93q250 0 315 35q46 25 46 60zM1458 723q0 9 -17 56q-18 -73 -39 -107q-16 -25 -80 -73q-14 -12 -43 -32q-2 -1 -51 -17q-180 -59 -420 -59q-223 0 -330 28q-24 8 -72 25q-73 24 -127 67q-25 17 -66 58
q-7 10 -39 110q-16 -59 -16 -56q0 -7 20 -60q22 -61 24 -68q12 -74 48 -192q49 -90 254 -136q152 -35 305 -35q143 0 299 35q203 46 254 127q8 13 52 163.5t44 165.5zM653 1002q-13 20 -25 28q-18 12 -83 37.5t-82 25.5q-87 0 -168 -70q-26 -21 -58 -53q-18 -34 -18 -84
q0 -97 10 -125q9 -23 70 -105q13 -4 35 -4q41 0 53 22q3 16 11 46q19 68 40 106q41 74 144 150q16 12 71 26zM1218 -43q0 51 -79 102q-29 18 -123 62q-43 20 -44 20q1 0 -24 -3v-83q0 -11 25 -59q20 -21 41 -70l-2 -3h-29q-14 0 -50.5 25.5t-42.5 39.5q-12 26 -12 39v89
q0 5 1.5 13.5t1.5 13.5q0 1 -1 7q-25 3 -72 3q-51 0 -76 -6q0 -4 3 -14t3 -15v-93q0 -37 -46 -71q-42 -32 -81 -32q-10 0 -10 11q0 -4 38 57q5 12 17 36t12 25v87q-25 3 -23 3q-9 0 -90 -41q-77 -40 -93 -51q-62 -44 -62 -95q0 -46 10.5 -68.5t21.5 -31.5q160 -126 376 -126
q62 0 153 13q49 7 171 80q53 31 67 53q19 26 19 83zM1384 575q-11 -67 -49 -181q-15 -26 -60 -45q-38 -11 -114 -34q7 20 58 165q18 5 54 17q18 8 111 78zM1145 -95q0 -6 -17 -30q-39 -56 -121 -56q-10 0 -84 20q112 0 157 80q2 4 2 8q0 88 -52 126h19l61 -23q12 -16 35 -45
v-80z" />
  </g>

</svg>
