<?xml version="1.0" standalone="no"?>
<!DOCTYPE svg PUBLIC "-//W3C//DTD SVG 1.1//EN" "http://www.w3.org/Graphics/SVG/1.1/DTD/svg11.dtd" >
<svg viewBox="0 -442 2048 2048">
  <g transform="matrix(1 0 0 -1 0 1606)">
   <path fill="currentColor"
d="M2029 422q0 -194 -84 -417q-2 -5 -43 -70q-13 -24 -43 -70q-46 -56 -103 -94q-114 -76 -374 -99q-9 -1 -45 -6q-28 -4 -45 -4q-117 0 -188 35q-76 36 -140 130q-17 47 -65 133q-11 13 -68 68q-74 71 -113 118q-45 55 -113 160q-75 117 -110 163q-33 43 -96 91
q-52 40 -105 80q-58 49 -104 113q-35 49 -47 105q-3 40 -15 120q-14 55 -28 109q-18 72 -18 108q0 215 99 215q14 0 61 -16q55 -19 66 -21q5 -1 46 -1q21 0 51 -9q43 -11 51 -13h44q17 0 43 -9q34 -11 43 -13q37 -2 111 -11q31 -10 94 -27q44 -6 130 -24q39 -20 120 -55
q66 -17 199 -52q31 -12 92 -36q85 -33 155 -79q23 -11 67 -37q30 -32 95 -93q7 -6 106 -74q65 -45 95 -88q6 -13 21 -38q50 -69 100 -137q58 -89 58 -155zM1916 378q0 63 -11 85q-29 10 -41 24q-17 20 -29 27q-68 43 -184 43q-66 0 -111 -14q-56 -17 -206 -131
q-38 -24 -76 -47q-48 -31 -63 -59q-96 -182 -96 -348q0 -21 19.5 -83t31.5 -75q20 -22 89 -22q380 0 518 141q22 23 60 89q9 12 24 38q6 35 21 104l36 110t18 118zM1908 538q-69 72 -212 210q-38 26 -111 81q-34 35 -107 99q-23 12 -67 40q-13 12 -41 33q-31 9 -92 30
q-21 12 -66 30q-103 33 -322 104q-37 5 -111 18q-32 14 -98 36q-31 2 -92 8q-27 7 -82 20q-22 1 -66 6q-21 7 -64 17q-68 11 -203 45q-10 -95 -10 -98q0 14 18 -52q19 -70 19 -113q0 -12 -5.5 -34t-5.5 -34q0 1 20 -57q13 -42 56 -120q41 -49 218 -183q25 -19 71 -61
q51 -59 124 -168q86 -131 118 -173q36 -47 102 -119q18 -18 51 -58q39 -69 117 -206q-15 230 -15 243q0 25 12 53q20 48 21 50q16 51 62 145q57 81 318 240q77 47 217 47q66 0 119 -23q54 -28 107 -56zM1624 332q0 -23 -71 -90q-3 -1 -10 -1q-17 0 -17 14q0 60 64 99h27
q7 -13 7 -22zM1241 680q0 -44 -30 -44q-25 0 -33 17.5t-15 35.5q-5 -1 -34 -16q-17 7 -17 32q0 18 6 27q-27 10 -75 40v15q17 15 34 15q48 0 91 -26q11 -7 39.5 -41.5t32.5 -46.5q1 -3 1 -8zM1418 361q-66 -54 -88 -118q-13 -40 -20 -147q-11 -4 -15 -4q-15 0 -28 30
q-10 26 -10 44q0 53 33 118q25 49 88 87q13 8 17 8h23v-18zM1608 -15q0 -7 -12.5 -15t-20.5 -8q-10 0 -30.5 5.5t-30.5 5.5q-20 0 -46.5 -43t-34.5 -43q-18 0 -18 22q0 43 36.5 81.5t79.5 38.5q18 0 47.5 -14t29.5 -30zM616 847q0 -25 -27 -25q-9 0 -41.5 20t-35.5 28
q-1 4 -2 26q-14 12 -55 12q-17 0 -29 9v12q21 23 63 23q29 0 78 -38.5t49 -66.5zM935 408q0 -32 -33 -32q-13 0 -26 5l-20 50q-13 33 -13 50q0 12 16 12q14 0 52 -20q24 -35 24 -65zM1209 -9h-14q-23 20 -23 62v19q0 48 21 48h16v-129z" />
  </g>

</svg>
