<?xml version="1.0" standalone="no"?>
<!DOCTYPE svg PUBLIC "-//W3C//DTD SVG 1.1//EN" "http://www.w3.org/Graphics/SVG/1.1/DTD/svg11.dtd" >
<svg viewBox="0 -442 2048 2048">
  <g transform="matrix(1 0 0 -1 0 1606)">
   <path fill="currentColor"
d="M1480 730q0 -140 -44 -197q-20 -26 -20 -27q0 9 32 -51q18 -34 18 -107q0 -85 -33 -142q-13 -21 -91 -115q1 -7 8 -24t7 -26q0 -125 -56 -200q-38 -51 -110.5 -99t-135.5 -66q-10 -1 -31 -5q-120 -24 -155 -24q14 0 -100 8q-107 8 -207 30q-2 1 -98 38q-45 10 -124 51
q-42 38 -73 89q-8 13 -27.5 71.5t-19.5 71.5v79q0 10 6 25q-102 62 -102 214q0 61 8 84q2 5 14.5 24.5t12.5 23.5q0 3 -14 22.5t-16 24.5q-2 18 -8 52q-4 14 -24 39q-15 19 -15 57q0 78 25 157q31 99 163 187q28 13 91 65l-2 3q-91 16 -91 107q0 19 29 34q10 2 28 8
q7 3 23 17q7 7 35 7q46 0 88 -52q13 21 26 41q27 36 78 36t51 -40q0 -47 -68 -87h2q-21 0 82 15q75 11 131 11q97 0 296 -34q45 64 136 192q23 31 62 96q-1 -2 -1 34q0 47 42 73q35 23 84 23q25 0 45 -14q6 -4 24.5 -28.5t18.5 -29.5v-87q-8 -13 -26 -37q-12 -14 -36.5 -19
t-32.5 -13q-36 -37 -78 -117q-33 -63 -66 -127q128 -64 170 -141q6 -25 21 -74q11 -17 29 -52q19 -45 19 -75zM1425 1436q0 49 -45 49q-62 0 -62 -59q0 -16 7 -34q-361 -520 -361 -523q0 -29 49 -29q3 0 27 34q52 75 207 319q32 52 99 152q9 12 51 37q28 16 28 54zM595 1218
q0 21 -18 21q-23 0 -54.5 -27.5t-31.5 -50.5v-10q32 11 64 21q40 18 40 46zM555 1071v30q-12 12 -18 12q-25 0 -25 -32q0 -20 23 -20q8 0 20 10zM942 919h-225q-9 0 -174 -62q117 -60 335 -60q11 0 31 3.5t30 3.5q-3 7 -15 19t-12 25q0 14 12 36q17 32 18 35zM450 1144v21
q0 12 -23.5 29.5t-35.5 17.5h-11q-20 0 -31 -7v-17q10 -5 16 -15q-1 -7 -1 -11q0 -1 1 -5q45 -13 63 -13h22zM500 1072q0 14 -7 35h-20q-16 -22 -16 -30v-11q0 -14 19 -26q24 7 24 32zM395 1128h-11v-30q5 9 11 30zM355 1127q0 17 -13 17h-2l11 -34q0 3 2 8.5t2 8.5z
M1376 814q0 95 -179 186q-12 6 -23 18q-31 -52 -71 -115q1 -9 1 -21q0 -65 -56 -94q-77 -40 -189 -40q-49 0 -170.5 22.5t-171.5 39.5q-14 5 -37 28t-23 36q0 45 42 72q2 1 80 36q58 26 101 26q74 0 212 -8q21 1 61 -4q8 -4 26 -8q13 19 52 82l-161 19q-76 9 -80 9
q-139 0 -218 -28q-26 -95 -77 -95q-15 0 -37 22q-13 -22 -20 -22q-23 0 -23 40q0 8 2 22.5t2 20.5q-30 -92 -44 -92q-18 0 -18 17q0 9 4 20q-10 -4 -30 -14q-188 -139 -188 -331q0 -45 45 -67q19 26 19 91q0 81 42 81q36 0 40.5 -44.5t35.5 -44.5q6 0 16.5 4.5t16.5 4.5
q29 0 75 -41q19 -16 54 -110q27 -70 85 -70q35 0 94 56.5t81 56.5q2 0 21.5 -4t57.5 -18q55 -36 55 -132q0 -132 -3 -173q0 -3 -1.5 -9.5t-1.5 -10.5q0 -23 10 -57l13 -7q17 12 41 71l6 256q2 106 62 106q41 0 68 -64h28q7 0 16 10q14 15 14 52q0 32 22 75q25 48 54 48h23
q31 0 48.5 -19t26.5 -19q15 0 36 20q33 31 33 114zM1406 678v51q-11 -14 -29 -42q7 -11 7 -18q0 -43 -69 -120.5t-111 -77.5q-1 0 -6 2q79 88 113 166q-23 4 -47.5 27t-42.5 23q-2 0 -7 -1q-50 -29 -50 -120q0 -18 -21.5 -45t-38.5 -27q-40 0 -61.5 35t-34.5 35
q-14 0 -21 -6t-12 -106l-6 -138q-9 -187 -85 -187q-9 0 -26 29.5t-17 40.5v129q0 12 1.5 35.5t1.5 35.5q0 137 -77 137q-36 0 -87.5 -54t-113.5 -54q-35 0 -70 23t-45 56q-1 11 -5 34q-6 32 -31 64t-55 40q-4 1 -50 1t-57 86q-15 -8 -15 -20v-98q0 -1 -33 -55q10 -20 35 -57
q31 -34 122 -73.5t92 -41.5q-23 -21 -37 -21q-4 0 -54 17q-92 31 -142 76q-32 -63 -32 -125q0 -88 45 -136q59 -64 134 -95q19 -4 53 -17q8 -8 25 -20q13 -4 25 -7q16 -6 16 -18q0 -16 -15 -16q-13 0 -187 65v-35q0 -15 32 -106q5 -18 21 -52q33 -52 89 -77q220 -97 472 -97
q12 0 85 15q11 1 34 5q17 9 52 23q106 33 166 103q45 53 45 141q0 30 -4 58q-27 -5 -27 -20v-82q0 -18 -32 -61q-57 -76 -116 -77l-3 2q8 20 55 80q33 43 33 93q0 9 -2 22q-6 6 -14 6q-26 0 -74.5 -16.5t-74.5 -16.5q-9 0 -12 10q26 18 159 72q30 9 80 32q90 63 115 108.5
t25 152.5q0 41 -17.5 63.5t-26.5 22.5q-11 0 -18 -14q15 -19 15 -57q0 -166 -104 -236q-36 -24 -76 -25l-5 2v8q120 91 120 231q0 33 -10 45q-109 -56 -171 -56q-19 0 -28 8q9 12 71 35q80 31 82 32q21 10 81 57q12 7 35 23q31 29 64 148z" />
  </g>

</svg>
