<?xml version="1.0" standalone="no"?>
<!DOCTYPE svg PUBLIC "-//W3C//DTD SVG 1.1//EN" "http://www.w3.org/Graphics/SVG/1.1/DTD/svg11.dtd" >
<svg viewBox="0 -442 2116 2048">
  <g transform="matrix(1 0 0 -1 0 1606)">
   <path fill="currentColor"
d="M2116 739q0 -32 -16 -88q-14 -49 -14 -112q0 -26 7 -77t7 -77q0 -45 -8.5 -61t-45.5 -36q-40 -22 -73 -46q-46 -44 -142 -127q-92 -61 -275 -181q-72 -52 -218 -153q-10 -7 -83 -49q-129 -75 -149 -75q5 0 -133 49q-54 18 -162 56q-56 13 -169 42q-67 19 -89 69
q-5 11 -5 275q0 -8 -19 30q-7 14 -28 102q-46 17 -137 51q-10 4 -121 28q-60 12 -114 67v6q1 21 -5 61t-6 59v149q0 -5 -15 29q-21 47 -21 123q0 47 10.5 68t51.5 46q4 3 74 44q183 109 552 322q80 46 242 132q30 15 100 15q15 0 72 -12q67 -15 77 -17l93 -12q19 -6 56 -15
q21 0 63 -5q44 -9 63 -16q39 -13 53 -33q1 -4 1 -40q0 -14 6.5 -39.5t6.5 -37.5q0 -24 -14.5 -84t-14.5 -84v-92l5 -5q126 -17 253 -34q160 -22 243 -54q23 -9 27 -30q14 -69 14 -131zM1504 1258q0 14 -12.5 40t-25.5 26q-5 0 -37 -26q-36 -29 -40 -32q-23 -14 -63 -40
q-22 -8 -63 -29q-19 -17 -60 -49q16 -38 14 -114l282 172q5 63 5 52zM1413 1333q-24 12 -63 15q-53 4 -65 7q-21 7 -63 18q-100 21 -138 21q-11 0 -291 -151l333 -77q92 43 287 167zM1537 990q-19 9 -56 29q13 9 30 30q-9 9 -23 16q23 20 23 27q0 22 -25 37l-270 -189
q-2 -52 -2 -77q0 -32 4 -35q17 8 157 87q96 54 162 75zM1167 1136v19l-5 4h-20l-223 -140v-18h27q7 0 221 135zM2017 749q0 59 -40 73l-886 -560q3 -56 13 -168h21q5 0 411.5 277.5t475.5 328.5q5 54 5 49zM1921 837l-364 57l-893 -498l424 -87zM918 829v148l-280 -181
l17 -159q12 4 35 14q4 3 73 57zM886 992l-384 101l-271 -167l387 -81zM2053 458v12q-20 7 -59 23q17 17 33 32l-27 24q15 11 30 28q-17 36 -33 36q-7 0 -427.5 -296t-447.5 -296q-4 0 -11 3.5t-10 3.5q-4 0 -14.5 -9t-15.5 -11l-441 132q-19 6 -19 -16q0 3 27 -28
q-38 -16 -37 -51h16q8 6 22 19q5 -12 9 -27q-5 0 -15.5 -3.5t-16.5 -3.5q-8 0 -14 7v-19q25 -5 45 -15q-12 -5 -25.5 -11.5t-13.5 -19.5q0 -4 8 -10q21 5 27 5q4 0 8 -1v-18h-26v-19q15 -10 46 -29l-20 -19v-18q4 -2 12 -4q17 12 32 20q11 -15 23.5 -30.5t29.5 -15.5
q5 0 27.5 21.5t27.5 21.5q6 0 20 -9l-40 -25v-19q14 -7 20 -7q-3 0 31 23q36 -46 43 -46q5 0 15.5 5t14.5 5q11 0 20.5 -18.5t17.5 -18.5q12 0 38 27q16 -40 60 -40q5 0 15 3.5t15 3.5q-3 0 19 -13q19 15 39 30q9 7 51 7q4 0 33.5 26t45.5 26q4 0 11 -3.5t11 -3.5h5q1 1 0 1
q7 9 23 21q8 1 18 5q11 15 35 43l15 -17h14q5 0 3 17q27 34 41 42q9 0 24 5q5 9 16 24q8 0 20 3q7 14 63 42v12q-5 3 -10 9q7 15 19 15q13 0 29 -20q14 8 34 24q1 7 5 20q8 12 38 28q10 1 27 5q24 10 34.5 26t21.5 32q23 0 55 22q0 3 -2 9t-2 9q0 1 1 4q17 -17 25 -17
q10 0 17 8q-2 4 -2 9q0 15 26 31q18 11 37 23q2 19 14 41q20 1 65 21q0 9 3 24q3 7 19 20q13 11 13 23q0 46 -23 69q3 0 7 -2t8 -2h34zM614 668q0 27 -11 123q-374 108 -421 107q-6 -19 -23 -31q-1 -13 -1 -35q0 -60 10 -79q7 -13 33 -20q21 -4 41 -8q91 -28 274 -81l78 -21
q20 40 20 45zM928 650l-10 102l-282 -198q-262 53 -406 113q-3 1 -34 22q-12 -12 -12 -21q0 7 24 -33q-15 -7 -37 -37l8 -8q11 8 33 23l2 -27q-11 -6 -41 -14q16 -3 44 -16q-13 -6 -36 -23v-17q10 1 20 1t20 -1v-13q-12 -4 -26 -3v-18q28 -17 46 -26l-23 -22v-12h21
q-7 0 26 13q18 -40 53 -40q9 0 23 16.5t37 16.5l5 -2l-19 -13q-11 -8 -11 -18q0 -9 11 -20q11 8 33 23q1 -7 7 -19q18 -24 37 -24q4 0 10.5 5t10.5 5q15 0 24 -33h22q3 18 13 53q-3 -7 -14 -7q-9 0 -19 9v6l3 2q13 -7 18 -7q1 0 44.5 35.5t50.5 39.5q105 65 324 187z
M1068 132q0 18 -3.5 53.5t-3.5 52.5q0 14 6 20l-445 109q-9 0 -20 -12q-14 -15 -17 -17v-117q26 -20 41 -24q106 -29 317 -86q14 -3 39 -12q4 -2 15.5 -13.5t18.5 -11.5q52 0 52 58zM452 407q-7 -14 -12 -19q-3 9 -10 26q14 -7 22 -7zM962 -175q-9 -9 -16 -9q-10 5 -10 20
q9 -3 26 -11zM317 439q0 -8 -5 -24q-7 11 -22 32h26q1 -4 1 -8zM899 -155l-14 -16q-2 0 -15 14v12q3 -1 29 -10zM760 -119l-11 -12q-16 7 -22 19q12 -1 33 -7z" />
  </g>

</svg>
