<?xml version="1.0" standalone="no"?>
<!DOCTYPE svg PUBLIC "-//W3C//DTD SVG 1.1//EN" "http://www.w3.org/Graphics/SVG/1.1/DTD/svg11.dtd" >
<svg viewBox="0 -442 2048 2048">
  <g transform="matrix(1 0 0 -1 0 1606)">
   <path fill="currentColor"
d="M1730 1384q0 19 -19 -135q-14 -97 -37 -290q-8 -80 -17 -132q-5 -47 -11 -95q-7 -57 -25 -91q-13 -24 -54 -24q-22 0 -35 8q-8 5 -150 147q18 -135 18 -148q0 -25 -23 -69.5t-43 -65.5q-70 -71 -124 -97q-33 -9 -100 -28l-67 24q-2 0 -4 -2l66 -80q39 -52 39 -92
q0 -12 -30 -72q-41 -81 -207 -217q-40 -38 -125 -100q-21 -11 -56 -11q-23 0 -54 25q-60 60 -181 178l-183 -189q-26 -28 -79 -77q-5 -4 -21 -4q-28 0 -102 75q-24 53 -24 50q0 18 4 23q8 10 83 86q60 58 179 176q-58 57 -116 113q-83 82 -83 121q0 35 15 60
q33 56 119.5 158t135.5 141q77 62 138 62q30 0 163 -111q-1 12 -13 42t-12 34q0 45 32 112q1 1 31 37q26 31 53.5 62.5t63.5 51.5q53 29 66 29q35 0 73 -5q9 -1 43 -10q27 -7 43 -6q-4 6 -86 91q-69 71 -69 86q0 50 35 70q20 11 81 19q194 27 439 59l145 18q58 8 62 8
q23 0 23 -15zM1625 1311l-539 -88l451 -451zM1309 760q0 78 -82 155.5t-161 78.5h-24q-49 1 -73 -8q-66 -24 -119 -91q-57 -71 -57 -138q0 9 16 -38q24 -71 89.5 -136.5t135.5 -88.5q47 -15 37 -15q37 0 75 17q57 25 101 72q62 66 62 192zM1063 210q-7 17 -23 48.5
t-100 129.5q-76 89 -114 126q-189 186 -305 231q-29 -22 -84 -68q-24 -24 -105 -128q-85 -111 -85 -124q0 -5 17 -19q160 -129 389 -379q30 -33 91 -98q136 102 170 131q102 84 149 150zM459 52q-23 27 -72 76l-231 -234q0 -19 25.5 -46.5t43.5 -26.5h4z" />
  </g>

</svg>
