<?xml version="1.0" standalone="no"?>
<!DOCTYPE svg PUBLIC "-//W3C//DTD SVG 1.1//EN" "http://www.w3.org/Graphics/SVG/1.1/DTD/svg11.dtd" >
<svg viewBox="0 -442 2048 2048">
  <g transform="matrix(1 0 0 -1 0 1606)">
   <path fill="currentColor"
d="M1958 571q0 -52 -7 -82q-7 -15 -17 -48q-3 -52 -17 -154q-4 -19 -25 -76q-69 -187 -150 -278q-115 -128 -199 -154q-28 -6 -85 -20q-57 -21 -175 -52q-19 -2 -57 -8q-11 -2 -72 -21q-44 -14 -74 -14q-54 0 -96 10q-5 1 -25 9t-24 8h-114q-2 0 -26 12t-29 14
q-42 15 -127 42q-44 7 -130 32q-24 10 -52 36q-40 37 -48 43l-33 18q-56 36 -107 117q-39 70 -79 140q-24 30 -62 96q-12 31 -30 192q-16 151 -16 204q0 41 22 89t22 74q0 47 65 92v102q0 5 11 28q21 44 66 100q15 15 43 48q8 16 26 48q62 91 189 171q113 71 234 107
q17 2 51 8q106 22 128 22q175 0 242 -30q12 -8 36 -23q29 -16 78 -27q41 -9 112 -36q33 -6 97 -23q53 -19 130 -61q20 -11 87 -66.5t78 -71.5q4 -12 43 -55q11 -10 56 -102t45 -106v-82q0 -5 3 -15t3 -15v-182q0 -10 4.5 -30t4.5 -30zM1317 1298v71q-7 7 -12 7q-8 0 -18 -10
q0 -21 1 -42q3 -29 19 -29h4zM1840 541v227q0 11 -6 33t-6 33v88q0 28 -56 118q-73 118 -177 187q-48 21 -144 64q-13 -29 -36 -48q-12 -10 -75 -16q-51 -5 -60 -5q-37 55 -37 68q0 10 1 31.5t1 32.5q-25 6 -73 23q-14 9 -43 25q-45 19 -153 19q-8 0 -24.5 1.5t-24.5 1.5
q-43 0 -146 -34q-94 -32 -142 -58q-37 -29 -100 -63q-32 -27 -90 -87q-26 -37 -82 -108q-73 -80 -73 -98v-75q0 -7 -11 -25t-13 -23q-1 -10 -5 -31q-9 -14 -25 -45q-42 -106 -42 -164q0 -32 9 -82q12 -70 13 -81q-1 -53 14 -157q7 -22 28 -50q29 -38 34 -47l70 -130
q27 -43 110 -106q30 -31 94 -72q43 -6 126 -26q38 -12 112 -39q14 -10 43 -23q12 -3 43 -3h54l20 90q18 55 61 55q-11 0 45 -18q17 -3 33.5 -6t26.5 -16.5t42 -95.5h25q46 0 140 31q28 14 87 34q19 1 55 8q125 41 220 195q79 129 109 282q2 29 8 88q2 13 12 48q8 30 8 49z
M1049 -154q0 29 -20 29q-11 0 -21.5 -20.5t-10.5 -33.5q0 -5 8 -14.5t13 -9.5q31 0 31 49zM1616 1092h-22q-4 0 -7.5 3.5t-5.5 3.5v26q17 0 35 3v-36zM1450 1102h-35v35h35v-35zM1776 616q-19 -10 -21 -10q-21 0 -21 23q0 12 10 22h32v-35zM1605 846q0 -40 -17 -76
q-7 -15 -31 -28l-39 -21q-5 4 -19 23q-100 5 -100 70q0 28 49.5 76t78.5 48q5 0 16.5 -8t14.5 -9t30 -2q17 -14 17 -73zM1109 1243q0 -21 -21 -21q-12 0 -27 9v30q14 9 27 9q21 0 21 -13v-14zM1260 1057q0 -31 -30 -31t-30 30t30 30t30 -29zM1308 854q-6 -3 -11 -3h-16
q-15 0 -15 16q0 9 7 16h35v-29zM1511 625q-13 -16 -36 -16h-12q-4 0 -31 19v38q18 18 31 18h15q16 0 33 -15v-44zM1722 389q-7 -6 -18 -6q-7 0 -20 3t-19 3q-3 8 -3 18v17q8 13 25 13h10q10 0 25 -16v-32zM1175 896h-35q-7 7 -7 18q0 4 10 24l32 -3v-39zM1746 274
q-10 -6 -29 -18v16q0 17 10 17h19v-15zM750 1199q-14 -7 -21 -7q-8 0 -15 7l3 26h26l7 -7v-19zM952 1097q0 -28 -31 -85q-14 -26 -46 -26q13 0 -46 21q-24 4 -66 20q-6 4 -15.5 23.5t-9.5 26.5q0 11 109 125q14 3 26 3q2 0 6 -2q73 -26 73 -106zM1456 465q-19 -10 -22 -10
q-1 0 -20 10v32q12 6 20 6q4 0 11 -3t11 -3v-32zM1731 154q-12 -6 -32 -10q-2 5 -4 15q11 0 19 15h17v-20zM1613 253q-2 1 -5 1q-18 0 -16 -25h-39v38q4 0 11.5 2t11.5 2q-2 0 15 -9q1 3 5 8h17v-17zM1646 182h-38v30q12 13 24 13q7 0 14 -7v-36zM1698 108l-21 3v17h21v-20z
M1444 335h-7q-9 1 -28 3v23h35v-26zM1595 114h-32v26h32v-26zM1637 63h-29q-10 10 -10 19q0 17 17 17q3 0 22 -10v-26zM1468 132q-4 -1 -8 -1h-16q-3 0 -8 1h-9l-4 4v29q6 6 17 6h5q11 0 23 -10v-29zM979 625q-13 -7 -19 -7t-21 6t-20 7v22q5 -3 60 -1v-27zM1246 518
q0 -30 -19 -96q-20 -70 -37 -88q-35 8 -64 32q-41 35 -55 43q-26 9 -67 32q-10 9 -10 29q0 21 36 63q33 38 56 50q10 5 26 5l41 -15q18 -2 52 -11q2 -1 40 -29q1 -7 1 -15zM804 757q-12 -12 -20 -12q-34 0 -34 26q0 28 27 28q14 0 27 -12v-30zM1522 -16h-31q-16 15 -16 24
q0 21 16 21h31v-45zM1332 178q-14 -7 -18 -7t-11.5 3.5t-11.5 3.5v32q12 6 19 6h8q7 0 14 -7v-31zM535 924l-4 -4q-12 2 -35 7v23q4 0 13 1.5t13 1.5q6 0 13 -6v-23zM1504 -79h-41v32q4 0 12.5 3.5t12.5 3.5q3 0 16 -7v-32zM1305 25q0 -4 -22 -17h-10q-7 11 -7 23t7 19h29
q0 -4 1.5 -12.5t1.5 -12.5zM569 731q0 -4 -3.5 -11t-3.5 -11q-7 0 -22 1.5t-22 1.5q-4 12 -4 32q8 13 29 13q26 0 26 -26zM1106 96h-18v17h18v-17zM1287 -121q-8 -4 -18 -4q-14 0 -24 10q3 20 20 20h6q9 0 16 -7v-19zM1133 24h-6l-27 3l4 26h29v-29zM1045 96h-20v11h20v-11z
M553 534q-8 -4 -21 -4q-17 0 -24 7v23q11 10 24 10q14 0 21 -7v-29zM864 174q-18 -11 -30 -11h-18q1 2 1 47q4 0 11.5 1.5t11.5 1.5q14 0 24 -9v-30zM677 314q-7 -7 -18 -7t-21 10v17q14 6 19 6h6q8 0 14 -6v-20zM354 656q0 -29 -30 -29h-8q-13 0 -22 13v32q8 9 22 9h10
q28 0 28 -25zM903 -1q-15 -3 -44 -9q-10 14 -10 24q0 24 26 24h7q14 0 21 -10v-29zM716 174h-47q-4 4 -4 15q0 27 32 27q3 0 9.5 -1.5t9.5 -1.5v-39zM922 -97q-8 -7 -17 -7q-3 0 -8 2t-8 2q0 5 1.5 16t1.5 16h26l4 -3v-26zM578 373q0 -19 -31.5 -68t-48.5 -49q-5 0 -14.5 6
t-14.5 6t-17 -7.5t-18 -7.5q-21 0 -56.5 28.5t-35.5 49.5q0 -13 8 26q1 5 1 39q0 24 10 44q5 0 16.5 1.5t17.5 1.5q88 0 151 -22q32 -11 32 -48zM858 -134h-26l-7 7v20h33v-27zM906 -182h-29v20h29v-20zM807 -143h-26l-7 7v26q6 2 10 2h13q4 0 10 -2v-33zM623 20h-45v39
q4 0 13 1.5t14 1.5q11 0 18 -10v-32zM493 81q-5 1 -18.5 6.5t-19.5 5.5q-7 0 -6 -6q-1 9 -1 10v4q0 16 21 16q12 0 24 -10v-26zM1532 870v16h-26q-46 -53 -46 -61v-10q4 -3 14 -7zM867 1145q-4 4 -11 4l-49 -79q7 -14 17 -14q19 0 43 89zM1136 510v17q-14 13 -24 13
q-8 0 -30 -26v-17h14q14 4 40 13zM448 364q0 8 -15 20.5t-23 12.5h-16q0 -5 -2 -15.5t-2 -15.5q0 -32 24 -32q10 0 22 10t12 20z" />
  </g>

</svg>
