<?xml version="1.0" standalone="no"?>
<!DOCTYPE svg PUBLIC "-//W3C//DTD SVG 1.1//EN" "http://www.w3.org/Graphics/SVG/1.1/DTD/svg11.dtd" >
<svg viewBox="0 -442 2048 2048">
  <g transform="matrix(1 0 0 -1 0 1606)">
   <path fill="currentColor"
d="M1756 1169q0 -71 -54 -157q-50 -78 -114 -124q-38 -27 -83.5 -32.5t-89.5 -10.5v-132q0 -26 -19 -63q-46 -89 -119 -131q-45 -25 -167 -60v-120q0 -5 -8 -21q-45 -91 -126 -149q-87 -62 -184 -62q-80 0 -161 12q-35 -42 -252 -314q-37 -54 -122 -148q-29 -25 -52 -25
q-51 0 -87 31.5t-36 81.5q0 15 201 248.5t201 242.5q0 3 -24 47.5t-27 52.5q-14 39 -14 104q0 200 168 295q21 12 132 45q4 14 8 44q29 242 307 299q18 2 54 10q2 39 11 117q8 48 54 114q44 62 87 92q109 76 242 76q29 0 77 -19t72 -38q79 -65 105 -137q20 -57 20 -169z
M1652 1172q0 106 -49 177q-55 81 -157 81q-29 0 -91 -30q-57 -28 -104 -84q-52 -63 -52 -119q0 -169 100 -216q20 -3 59 -12q55 -14 57 -14q76 0 114 26q42 29 81 85q42 61 42 106zM1315 747v43q0 57 -21 81q-8 10 -49 26q-112 45 -135 150h-16q-15 0 -94 -30
q-26 -9 -74 -34q-100 -70 -100 -235q0 -15 1 -23q6 -51 65.5 -104t111.5 -53q107 0 182 31q17 5 50 21q27 19 53 58.5t26 68.5zM1024 461q-42 3 -124 26q-32 16 -87.5 69t-68.5 84q-2 5 -20 62q-114 -44 -158 -102q-48 -63 -48 -181q0 -53 42.5 -116t91.5 -81q27 -10 76 -10
q182 0 267 114q29 39 29 135zM577 143l-54 47q-366 -439 -366 -441q0 -28 26 -55q19 3 30 11t113 132zM1548 1097q0 -25 -35 -56t-61 -31q-52 0 -68 6q-10 4 -55 39q15 8 25 8q13 0 39 -3t39 -3q18 0 46 25q20 20 40 39h27q0 -3 1.5 -11.5t1.5 -12.5zM1240 713
q0 -17 -47 -49.5t-66 -32.5h-50q-19 0 -43 8q-31 11 -31 25v13h102q10 0 53.5 37.5t55.5 37.5q26 0 26 -39zM929 357q0 -23 -35 -54.5t-60 -37.5q-39 -10 -65 -10q-13 0 -44 12t-31 22q0 14 39 20q25 2 52 6.5t51 21.5q36 27 45.5 31t29.5 13q18 -9 18 -24z" />
  </g>

</svg>
