<?xml version="1.0" standalone="no"?>
<!DOCTYPE svg PUBLIC "-//W3C//DTD SVG 1.1//EN" "http://www.w3.org/Graphics/SVG/1.1/DTD/svg11.dtd" >
<svg viewBox="0 -442 2048 2048">
  <g transform="matrix(1 0 0 -1 0 1606)">
   <path fill="currentColor"
d="M1984 1116q-29 -18 -80 -63q0 -11 -1 -36.5t-1 -40t-11.5 -42t-11.5 -42.5q0 -28 40 -79q-28 -31 -28 -37q0 -4 7 -36q24 -16 55 -46q-45 -34 -89 -68q-54 -44 -74 -82q-8 -15 -28.5 -88.5t-62.5 -221.5q-10 -36 -20 -71q-18 -49 -44 -49q-33 0 -57 63q-14 45 -28 91
l-706 -633q-39 4 -141 95q-161 141 -321 282q-273 240 -287 266q-13 23 -13 55q0 20 7 31q3 4 66 62q51 48 155 143q158 139 473 420q-22 23 -91 32q-54 8 -54 41q0 22 47 57q25 18 96 39q21 6 116 51q80 38 111 38q17 0 39 -34q167 146 376 311q10 4 61 10zM1882 1050
q-7 15 -20 21q-5 -5 -11 -14q9 -9 21 -14q3 3 10 7zM1808 1090v11q-126 118 -131 118q-8 0 -17 -4l137 -125h11zM1604 1271l-130 118h-12l138 -126q3 3 4 8zM1876 1105v12q-81 76 -402 363q-6 2 -15 2q-12 0 -24 -8q-21 -18 -64 -54l-154 -127q-55 -39 -150 -127
q-9 -14 -28 -41l10 -11h11q41 40 124 117q64 56 277 232l402 -361zM1746 1110l-14 4q-19 -7 -50 -32q-24 -20 -48 -39l-62 53q-13 -11 -14 -20q65 -88 80 -88q16 0 19 31q39 33 89 91zM1552 1259q0 11 -11 16l-105 -71l-77 71h-17q0 -5 -1.5 -15.5t-1.5 -16.5
q0 -5 44.5 -43.5t57.5 -38.5q7 0 11 1q100 89 100 97zM1833 844q0 14 -34 40q-24 16 -48 33l-11 -11l36 -42q28 -31 38 -31t19 11zM1802 761l-144 116l-10 -8q120 -119 140 -119q8 0 14 11zM1598 915q-2 10 -65 65q-59 50 -79 63q-7 -6 -7 -14q0 -4 108 -95q27 -23 34 -23
t9 4zM1410 1094l-140 113h-11l-4 -8q119 -119 132 -119q11 0 23 14zM1765 727l-16 11l-120 -96q-27 23 -82 68l-11 -15q41 -45 101 -93q49 41 128 125zM1558 894q0 17 -20 17q-5 0 -45 -34t-45 -34q-6 0 -42.5 23t-42.5 23q-8 0 -15 -11q14 -30 91 -97q119 99 119 113z
M1357 1076q0 2 -3 10h-24q-46 -47 -92 -83q-32 27 -93 59v-18q47 -47 84 -89q7 -1 20 -1q5 0 9 1q99 116 99 121zM1697 505q-139 0 -162.5 8.5t-34.5 37.5q-19 64 -67 189q-7 14 -15 22h-21q-27 0 -78 -17t-78 -17q2 0 -15 5q-7 2 -46 2h-15q-9 8 -22.5 40t-13.5 44
q0 11 12 28q-16 24 -28 29q-25 9 -31 13q-65 42 -79 76q-13 31 -18 90q-3 46 -6 93q-15 13 -25 13q-8 0 -105.5 -33.5t-107.5 -39.5q-5 -3 -23 -22q59 -8 118 -15q95 -15 95 -31q0 -25 -2 -67q-3 -50 -3 -67q11 29 35 77q31 -21 54 -78l-16 -16q32 -8 74 -29q7 -9 7 -28
q0 -55 9 -153q7 -74 6 -85h94q11 0 29.5 -7.5t21.5 -7.5q14 0 177 43q49 -74 50 -80q-1 9 -1 -12q0 -4 11 -28t12 -30q3 -21 15 -62q35 -5 99 -28q11 -41 31 -122zM1511 323q-31 -2 -52 75q-11 53 -22 105h-365q-12 0 -20 17q-3 6 -14 80q-20 131 -39 214q-24 4 -72 9
q-16 1 -31 1q-19 3 -27 14q5 29 16 121q-9 2 -27 7l-705 -638l684 -613zM1635 467q0 -8 -26 -36q-29 -32 -33 -39h-24l-31 88q7 17 17 17q-10 0 90 -14q7 -5 7 -16zM946 1123q-6 -14 -28 -73q-30 4 -89 16q38 25 117 57zM1382 668q0 -20 -61 -50q-57 -29 -81 -29
q-8 0 -19 14q50 44 135 144q26 -29 26 -79z" />
  </g>

</svg>
