<?xml version="1.0" standalone="no"?>
<!DOCTYPE svg PUBLIC "-//W3C//DTD SVG 1.1//EN" "http://www.w3.org/Graphics/SVG/1.1/DTD/svg11.dtd" >
<svg viewBox="0 -442 2048 2048">
  <g transform="matrix(1 0 0 -1 0 1606)">
   <path fill="currentColor"
d="M2003 560q0 -17 -14 -47.5t-14 -47.5q0 -14 3.5 -41t3.5 -41q0 -28 -30 -70t-30 -43v-106q0 -8 -16 -36t-23 -32q-11 -3 -32 -14q-28 -66 -70 -157q-14 -23 -29 -26q-21 -4 -30.5 -11.5t-62.5 -84.5q-32 -46 -95 -46q-28 0 -43 -15q-15 -18 -30 -35q-49 -44 -135 -44
q-10 0 -46.5 -21.5t-81.5 -21.5q-29 0 -58 34q-54 -22 -99 -22q-24 0 -71.5 12.5t-71.5 12.5q-14 0 -43 -1.5t-43 -1.5q-40 0 -63 22l-23 22q-7 0 -21 -2t-21 -2q-43 0 -81 29q-66 49 -69 51q-23 2 -65 14q-14 8 -19.5 34.5t-12.5 33.5q-22 7 -58 23q-62 36 -80 93v20
q0 10 -50 49q-20 15 -48 48q-13 11 -32 38q0 24 -6 71q0 1 -45 45q-40 41 -40 78q0 10 4 29.5t4 30.5q-34 47 -34 106q0 17 19 41.5t19 28.5q0 -3 -15 47q-11 37 -11 98q0 29 21 58q6 4 18 13q-1 9 -8 37q-5 23 -5 37q0 40 14 54q23 15 47 30q0 28 5 84q4 22 32 42.5
t52 24.5q4 18 16 51q20 26 57 81q18 36 36 73q24 41 59 50q13 3 80 5q31 42 63 84q40 46 90 46q17 0 38 -9.5t25 -9.5q6 0 50 38t80 38h23q49 0 79 -29q74 31 140 31q17 0 47 -11t42 -11q16 0 46.5 14t46.5 14q23 0 48 -29q4 -10 15 -29q25 -1 74 -8q19 -4 57 -48
q43 -49 61 -59q24 -13 75 -24q55 -11 77 -21q26 -12 32 -36t10 -48q20 -10 58 -31q55 -35 64 -55q6 -14 8 -84q70 -36 79 -100q-2 -37 5 -109q4 -6 11 -21q7 -23 7 -52q0 -12 -8 -35.5t-8 -35.5q0 -13 25 -56.5t25 -95.5zM1901 566q0 17 -25 59.5t-25 89.5q0 21 8 47.5
t8 31.5q0 11 -9.5 32.5t-9.5 32.5v78q0 15 -33 40q-39 30 -44 38q-12 18 -12 61q0 5 2 14.5t2 14.5q-39 26 -78 51q-46 31 -43 76q-9 4 -94 29q-55 16 -86 45q-32 35 -77 75q-6 3 -64 16q-40 8 -57 31q-42 -16 -92 -16q-9 0 -34.5 13t-46.5 13q-24 0 -68 -18.5t-68 -18.5
q-19 0 -43.5 17t-31.5 17q-13 0 -58 -38t-74 -38q-47 0 -81 20q-27 -35 -54 -71q-39 -47 -67 -47h-84q-22 -18 -29 -60q-8 -51 -16 -65q-13 -14 -38 -43q-4 -17 -15 -53q-21 -56 -82 -55q-3 -12 -3 -66q0 -71 -56 -84q0 -12 2.5 -36t2.5 -36q0 -33 -21.5 -55t-21.5 -38
t11 -47t11 -47q0 -7 1 -20v-20q0 -43 -32 -60q1 -15 19 -41.5t18 -54.5q0 -9 -1 -27t-1 -27q0 -11 36 -44.5t40 -52.5q1 -4 1 -54q0 -24 56 -62q63 -43 70 -58q4 -19 11 -58q18 -16 56 -44q30 -9 73 -38q5 -15 16 -46q16 -3 48 -11q89 -70 107 -70q11 0 33.5 3t33.5 3
q17 0 34.5 -13.5t17.5 -29.5q2 -4 11 -4q10 0 31 3t31 3q27 0 79.5 -12t79.5 -12q31 0 58 17t49 17q17 0 38.5 -12.5t21.5 -27.5h12q46 43 80 43q8 0 22.5 -3t22.5 -3q20 0 64 52.5t67 52.5q8 0 23.5 -3t23.5 -3q7 0 10 1q15 14 40 46q35 61 99 94q60 185 113 182
q0 11 -1 35t-1 35q0 63 30 102t30 40q0 13 -3 38.5t-3 38.5q0 19 14.5 54t14.5 41zM1665 735q0 -145 -11 -220q-5 -32 -24 -84q-11 -20 -33 -62q-115 -237 -284 -329q-19 -11 -80 -36q-10 -9 -34 -23q-16 -1 -47 -5q-92 -18 -142 -18q-82 0 -113 7q-12 6 -37 17
q-70 29 -156 86q-66 44 -111 158q-4 29 -15 87q-5 11 -13 34q-14 44 -14 94q0 -10 12 49q4 38 23 112q9 12 26 38q69 125 194 179q10 1 29 5q14 8 43 20q48 14 89 14q208 0 261 -119q2 -5 25 -39q15 -21 15 -45q0 13 -18 -57q-2 -25 -11 -74q-17 -54 -67 -109
q-56 -63 -105 -63q-128 0 -128 126q0 56 50 87q25 7 74 22q-27 39 -50 39q-114 0 -188 -93q-26 -34 -26 -97q0 -6 21 -79q1 -15 5 -46q8 -29 53 -65q42 -33 75 -42q25 -7 61 -7q58 0 95 17l82 44q11 4 31 14q53 36 157 207q6 9 21.5 55.5t14.5 134.5v49q0 41 -49 131
q-16 30 -113 118q-12 17 -40 48q-72 63 -145 63q-130 0 -266 -89q-24 -13 -68 -45q-55 -54 -114 -138q-4 -9 -14 -25q-35 -47 -92 -47q-56 0 -70 32q-20 44 -20 81q0 -4 15 50q1 10 5 31q7 12 19 37q54 130 154 201q26 15 78 46q26 19 81 54q117 61 273 61q79 0 112 -8
q14 -8 44 -20q9 -1 28 -5q51 -16 127 -75q21 -26 69 -72l21 -12q68 -52 127.5 -143t80.5 -173q7 -29 7 -84z" />
  </g>

</svg>
