<?xml version="1.0" standalone="no"?>
<!DOCTYPE svg PUBLIC "-//W3C//DTD SVG 1.1//EN" "http://www.w3.org/Graphics/SVG/1.1/DTD/svg11.dtd" >
<svg viewBox="0 -442 2048 2048">
  <g transform="matrix(1 0 0 -1 0 1606)">
   <path fill="currentColor"
d="M1395 848q0 -75 -7 -113q-1 -8 -42 -119q-61 -167 -160 -250q-15 -8 -44 -27q-99 -72 -141 -94q-73 -38 -163 -47q-18 -17 -18 -25v-546h-48v519h-51v-519h-51v520q-18 25 -62 66q-28 6 -84 21q-22 15 -68 36q-11 1 -31.5 6t-52.5 32.5t-51 33.5q-5 0 -25 8
q-8 4 -45 49.5t-41.5 57.5t-15.5 37q-7 8 -20 25q-92 147 -92 384l12 70q33 192 116 299q18 18 50 58q2 6 8 19q9 17 33 34q34 24 39.5 30.5t20.5 21.5q12 6 35 18q77 46 119.5 61.5t131.5 29.5q75 12 70 12q63 0 174 -30q13 -3 35 -16q13 -7 45 -7q21 0 99 -43
q68 -37 97 -59q96 -71 186 -256q17 -35 26 -63q16 -50 16 -234zM1323 944q-22 120 -25 131q-10 32 -42 50q-58 30 -117 61q23 -28 40 -79q27 -77 30 -85q10 -5 107 -89zM1067 1194q-5 7 -16 19q-14 14 -97 51.5t-101 37.5q-20 0 -57 -30l-54 -44h26q8 0 24 4.5t24 4.5
q77 0 131 -50q21 22 39 22q35 0 81 -15zM1058 1368q-13 11 -65.5 40.5t-67.5 33.5q-25 7 -50 7q-18 0 -93 -20q-71 -19 -95 -28q-47 -19 -108.5 -80.5t-85.5 -111.5q97 138 269 138q13 0 38.5 4t38.5 4q5 0 14 -3t14 -3q1 0 21 12q13 8 170 7zM1186 885q0 23 -9 59
q-11 47 -13 58q-21 -1 -48 23q-31 29 -45 33q56 -121 53 -214q33 -22 58 -67q4 27 4 108zM961 1110q-75 58 -84 58q-22 0 -50 -34q-19 -27 -38 -53q56 -16 72 -16q-7 0 36 21q23 11 64 24zM1083 845q0 29 -32.5 71t-60.5 42h-13q3 -28 19 -83q18 -22 52 -66q10 -18 31 -54
q0 14 2 44t2 46zM589 1458h-11q-4 0 -37 -11q-138 -46 -176 -127q-20 -43 -20 -74q0 -7 6 -6q17 24 59 65q32 13 91 48q27 37 88 105zM942 859v39q0 29 -33 72q-5 6 -40 32q-23 -19 -52 -54v-11zM1236 595q0 72 -14 135q0 -45 -39 -101q-52 -75 -57.5 -94t-15.5 -59
q-18 -56 -18 -52q0 -14 4 -22q44 19 109 110q11 12 27 38q4 13 4 45zM704 1158q-28 -9 -59 -50q-48 -62 -50 -64q14 -16 20 -46q5 -24 10 -49q15 20 41 64q9 20 16 73q7 48 22 72zM760 1021q-11 -5 -33 -17q-38 -29 -38 -49q0 -13 20 -34t32 -21h10q-10 19 -10 40
q0 19 19 81zM579 1224q-131 -128 -131 -206q0 -27 13 -57q15 -35 37 -40q0 59 38 123q16 22 36 60q-4 41 7 120zM967 739q0 10 -1 19q-24 -21 -63 -69q-3 -22 -12 -66q-4 -15 -21 -64h4q10 0 20 14t17 15.5t22 4.5q2 11 21 72q13 44 13 74zM1076 652q-20 -27 -139 -113
q-6 -50 -37 -105q105 48 150 84q2 17 15 67q11 41 11 67zM861 790q0 13 -4 21q-10 -5 -20 -16q-36 -40 -69 -56q-8 -4 -82 -30q23 -13 58 -13h38q34 0 46 14q33 38 33 80zM664 787q-13 12 -42 33q-14 3 -40 14q-3 2 -33 43q2 -29 9 -87q35 -10 68 -10q19 0 38 7zM392 1013
q0 4 -8.5 16.5t-9.5 15.5q-5 13 -5 44q0 26 10 110q-75 -108 -75 -186q0 -82 59 -172q0 60 11 109q18 80 18 63zM776 642h-38q-5 0 -67 -28.5t-87 -28.5l-8 -6q47 -33 71 -33q57 0 129 96zM595 682q-17 18 -57 47q-23 2 -66 14q-10 5 -49 42q1 -27 33 -94q85 -23 92 -23
q29 0 47 14zM273 1083q0 -10 -15 37.5t-11 87.5q-15 -26 -42 -79q-9 -23 -28 -117t-19 -119q0 -54 65 -109v117q0 14 8 33q12 27 13 32q3 12 5.5 36t5.5 36q1 4 10 24q8 16 8 21zM791 476q-42 3 -125 14q-6 1 -30.5 9.5t-30.5 8.5q-3 0 -22 -14t-24 -16q-14 -5 -51 -5
q113 -62 148 -62q41 0 135 65zM442 615q-20 34 -39 76q-63 15 -123 74v-11q0 -15 15 -48.5t26 -40.5q7 -2 22 -8q4 -2 43 -29q19 -13 56 -13zM906 373q-117 -21 -167 -21q-35 0 -83 6q-17 -20 -54 -30q-57 -15 -60 -16l10 -12q74 -10 104 -23q51 -24 59 -81h58q6 23 23 60
q12 8 35 25q25 31 75 92zM520 410q-125 43 -235 211q-10 -6 -16 -6q-9 0 -61 18q12 -34 41 -99q23 -29 66 -87q18 -2 44 -25t64 -23q53 0 97 11z" />
  </g>

</svg>
