<?xml version="1.0" standalone="no"?>
<!DOCTYPE svg PUBLIC "-//W3C//DTD SVG 1.1//EN" "http://www.w3.org/Graphics/SVG/1.1/DTD/svg11.dtd" >
<svg viewBox="0 -442 2048 2048">
  <g transform="matrix(1 0 0 -1 0 1606)">
   <path fill="currentColor"
d="M1012 532q-17 -17 -56 -44q5 -86 5 -106q0 -19 -1 -28q-1 -12 -28 -48t-40 -47q-16 -7 -36 -31q-5 -18 -22 -144q-16 -133 -59 -390q-2 -11 -21 -20q-15 -7 -29 -13q-51 -33 -107 -39q-15 -2 -116 -2q-67 0 -165 63q-18 4 -40 24q-1 4 -14 151q-10 125 -45 370
q-1 4 -46.5 42t-52 63t-6.5 67q0 57 -1 69q-14 9 -28.5 18.5t-14.5 29.5q0 64 13 89q3 6 31 15q-51 62 -51 121q0 71 76 143q-25 22 -25 80q0 93 98 158l81 36q0 140 19 175q70 127 132 163q100 58 156 58q50 0 50 -30q0 -6 -14 -26t-14 -51q0 -26 4 -32q39 -28 111 -107
q5 -8 8 -66q11 -1 34 -10q52 -33 67 -66q12 -28 12 -93q0 -5 -16 -57q58 -32 76 -75q12 -32 12 -107q0 -6 -19 -60q51 -31 51 -74q0 -15 -7 -29q38 -13 38 -38v-102zM924 665q0 49 -36 66q-9 2 -27 12q6 12 15 38q10 53 10 66q0 20 -11 57t-44 52q-34 12 -67 24v11
q41 58 41 107q0 81 -105 90l-12 8q1 6 8.5 23.5t7.5 21.5q0 26 -8 37q-6 8 -72 63q-49 41 -49 73q0 55 9 71q-139 -63 -184 -160q-38 -82 -38 -170q0 -44 4 -57q29 -95 109 -157q15 -5 44 -16v-15q-8 -8 -19 -8q-23 0 -72 43q-45 40 -59 66q-25 47 -36 79h-10
q-36 0 -80.5 -44.5t-44.5 -81.5q0 -43 1 -51q4 -25 30 -58.5t49 -45.5q10 -4 28 -15q24 -19 59 -57l-5 -5h-21q-20 0 -100 54q-15 16 -48 47q-46 -43 -46 -106q0 -28 29 -71t54 -58l81 -33q88 -37 149 -37h257q-10 0 32 9q59 13 107 44q14 6 37 23q33 42 33 61zM974 598
q0 25 -10 34h-14q-53 -138 -357 -138q-291 0 -437 103q-14 -14 -14 -41q0 -9 1 -14q49 -44 195 -75q23 -6 69 -16q105 -14 217 -14q215 0 349 117q1 17 1 44zM892 340q-3 49 -3 116q-34 -9 -96 -29q-7 -6 -22 -14q-58 -20 -172 -20q-105 0 -207 14q-2 0 -110 32
q-30 5 -86 26v-127q14 -13 44 -35q139 -75 419 -75q88 0 151 38q27 25 82 74zM795 223q-27 0 -44 -7q-30 -12 -36 -14q-50 -13 -107 -13q-121 0 -235 17q-10 2 -40 13q-26 9 -40 8v-11q0 -5 22 -154l48 -321q82 -48 214 -48q31 0 74 15q50 17 58 39.5t32 154.5
q17 107 54 321z" />
  </g>

</svg>
