<?xml version="1.0" standalone="no"?>
<!DOCTYPE svg PUBLIC "-//W3C//DTD SVG 1.1//EN" "http://www.w3.org/Graphics/SVG/1.1/DTD/svg11.dtd" >
<svg viewBox="0 -442 2048 2048">
  <g transform="matrix(1 0 0 -1 0 1606)">
   <path fill="currentColor"
d="M2005 417q0 -21 -28 -109q-26 -83 -39 -111q-79 -167 -181 -237q-38 -22 -115 -66l19 -18v-76q0 -14 -36 -63q-40 -55 -121 -89q-75 -31 -148 -31q-176 0 -358 61q-102 34 -102 149q0 14 20 55q-273 210 -324 388q-21 74 -21 85v121q0 6 5 17.5t5 17.5q0 22 -79 112
q-43 49 -120 113q-117 97 -126 105t-88 60q-58 38 -72 68t-14 75q0 9 16 31.5t31 22.5h99q15 0 92 -40q29 -15 82 -52q111 -104 229 -299q7 52 42 140q11 9 29 31q7 15 21 44q30 58 78 113q15 13 35 40q1 2 5 44q8 83 35 128q11 18 45.5 46.5t43.5 47.5q2 17 14 51
q13 22 97 45q93 26 113 40q5 3 36 40q25 29 38 29q27 0 52 -16t48 -31q20 -2 65 -11q20 -5 39 -32q29 -41 31 -43q19 -9 56 -32q16 -12 43 -71q31 -67 42 -81q42 -40 92 -107q1 -45 21 -131q28 -31 71 -81q27 -36 33 -58q4 -15 4 -65q0 -38 32 -81q49 -67 52 -72
q61 -117 61 -217zM1927 434q0 86 -102 228q-16 19 -38 59q0 37 -12 104q-11 26 -51.5 65.5t-52.5 62.5q-10 20 -13 55q-4 44 -8 57q-7 25 -35 54q-40 40 -45 47q-27 58 -76 140q-37 26 -98 91q-48 -1 -80.5 20.5t-28.5 21.5t-45.5 -34.5t-124.5 -55.5q-17 -2 -44 -15
q-7 -16 -24 -46q-28 -23 -76 -75q-27 -39 -41 -113q0 -23 -8 -66q-6 -15 -24 -31q-28 -26 -30 -28q-19 -22 -69 -95q-54 -78 -60 -96q-5 -55 -30 -150q-8 -9 -23 -28q-1 -18 -22 -47q-3 -26 -14 -76q-21 -70 -21 -58q0 -20 45 -75q125 -151 513 -189q51 -5 41 -5q71 0 122 3
q60 4 195 32q142 29 188 50q77 35 132 94q10 9 27 28q33 46 33 71zM1890 300q-19 -13 -37.5 -25t-30.5 -36q-12 -31 -46 -90q-29 -36 -86 -75l-94 -64q-17 -15 -53 -41q-49 -26 -83 -26q-10 0 -19 11v9q156 86 183 205q-186 -47 -292 -47q-246 0 -421 52q-40 11 -118 40
q-63 30 -143 105v-10q0 -4 11 -26q7 -16 22 -47q55 -108 240 -258q17 -15 53 -42q38 -23 142 -42q92 -16 151 -16q111 0 190 14q67 12 177 84q103 67 154 125q44 50 100 200zM643 583q0 5 -37.5 68.5t-45.5 73.5q-16 16 -48 50q-32 38 -97 113q-18 24 -60 68q-96 79 -185 79
q-27 0 -27 -18q0 -16 73 -63q90 -58 93 -60q67 -58 133 -116q77 -70 119 -130q17 -37 65 -101h10q7 24 7 36zM1589 -152q0 10 -19 19q1 -4 1 -9q0 -41 -87 -80q-76 -35 -124 -35q-16 0 -25 8v21q35 15 106 46v14q0 13 -26 11l-168 -14q42 -1 110 -13v-12q-19 -14 -43 -14
q-98 0 -136 19q-9 9 -29 23q-29 1 -78 12q-6 6 -19 16q-27 14 -64 14q-16 -29 -16 -53q0 -55 54 -71q34 -9 101 -28q90 -28 163 -28q120 0 154 12q45 15 91 56q54 47 54 86z" />
  </g>

</svg>
