<?xml version="1.0" standalone="no"?>
<!DOCTYPE svg PUBLIC "-//W3C//DTD SVG 1.1//EN" "http://www.w3.org/Graphics/SVG/1.1/DTD/svg11.dtd" >
<svg viewBox="0 -442 2048 2048">
  <g transform="matrix(1 0 0 -1 0 1606)">
   <path fill="currentColor"
d="M1852 861q0 -45 -14 -61q-23 -27 -89 -34q-108 -8 -324 -26q-10 -72 -21 -124q-2 -19 -8 -57q-25 -132 -172 -244q-35 -32 -115 -81q-55 -20 -120 -20q-2 0 -77 10q-13 -12 -55 -155q-15 -42 -42 -128q-5 -29 -18 -86q-27 -87 -67 -140q-20 -26 -75 -26q-66 0 -201 28
q-38 5 -113 17q-26 5 -61 37l-54 50q-32 25 -36 29q-19 18 -25 37q-7 23 -8 64q0 48 -2.5 63.5t-39.5 67.5q-33 48 -33 92q0 48 71 96q20 14 59 26q61 20 62 20l166 62q125 50 146 72q5 5 5 20q0 -2 -12 38q-16 54 -16 126q0 21 16.5 74.5t28.5 71.5q16 16 46 48
q30 49 107 133q57 43 125 43q14 0 43 -3.5t43 -3.5q-4 0 73 18q9 2 66 2q44 120 103 286q15 54 50 136q12 17 41 17q9 0 15 -2q24 -26 98 -73q67 -42 92 -79q12 -25 24.5 -50.5t39.5 -37.5q3 -1 150 -22q113 -16 113 -56q0 -5 -2 -14.5t-2 -14.5v-90q0 13 12 -40
q7 -31 7 -116zM1785 849q-3 20 -7 59q-16 0 -24 3l-277 -57q-10 8 -10 19q0 22 178 171q33 28 99 73q-29 7 -87 20q-36 -1 -143 23q-22 36 -71 104q-36 43 -122 83l-143 -340q2 1 6 1q14 0 35 -11q28 -14 33 -16q41 68 124 204l5 -5q-7 -34 -27 -101q-6 -14 -62 -120
q4 -13 33 -32q92 92 192 138q11 5 33 12l3 -2v-12q-16 -17 -50 -49q-132 -109 -132 -135q0 4 36 -73q98 7 197 14q158 13 181 29zM1343 727q0 54 -49 116t-102 80q-29 10 -81 10q-17 0 -50.5 -6t-50.5 -6q-14 0 -43 3t-43 3q-58 0 -88.5 -14.5t-67.5 -59.5q-15 -26 -50 -76
q-20 -17 -53 -55q-23 -41 -23 -94q0 -44 14 -98q8 -21 19 -64q13 1 26 1q156 0 197 -153q68 -24 87 -24q1 0 28 5q82 15 160 77q55 44 70 59q39 38 51 74q49 154 49 222zM824 269v20q-1 14 -1 20q-47 -58 -135 -179q-30 -51 -95 -149q-1 1 -3 2.5t-2 7.5q0 14 39 97
q35 75 51 101q36 56 107 170q-11 13 -24 17l-273 -226l-5 5v9q33 35 97 108q64 79 113 129h-42q-28 0 -90 -36q-82 -49 -90 -52q-66 -29 -191 -73q-25 -7 -73 -28q-46 -29 -46 -51q0 -19 176 -118q70 -37 141 -74q82 -45 131 -89q30 56 87 169q14 37 40 85q3 3 6 4
q9 -6 9 -18q0 -59 -30 -168q-25 -84 -49 -168q35 53 54 119l32 124q66 214 66 242zM597 -232v12q0 6 -10 42t-13 41q-9 14 -147 93q-22 -37 -29.5 -42t-51.5 -13q8 -17 30 -43q32 -8 92 -27q41 -25 129 -63zM387 -23q-18 14 -37 20q-7 -19 -19 -57q17 6 35.5 13.5t20.5 23.5
zM504 -235v6q-21 16 -91 30q-56 11 -75 52q-10 1 -18 7q-4 3 -21 29t-17 29q0 9 16 44.5t16 44.5t-46 42q-40 28 -58 37q17 -30 26 -115q8 -81 16 -91q16 -13 42 -44q4 -10 15 -29q13 -14 65 -29q48 -13 73 -13h57zM1289 680q0 -120 -117 -265q-15 -19 -82.5 -54.5
t-89.5 -35.5q-11 0 -31 4t-30 4q-14 16 -30 63q-13 38 -41 54v18q5 7 13 7q2 0 5 -1.5t5 -1.5q20 0 97 36.5t94 52.5q49 45 112 161q6 7 17 23q7 16 23 48q-2 6 -2 10q0 6 18 6q6 -6 15 -20q3 -13 11 -38q13 -31 13 -71z" />
  </g>

</svg>
