<?xml version="1.0" standalone="no"?>
<!DOCTYPE svg PUBLIC "-//W3C//DTD SVG 1.1//EN" "http://www.w3.org/Graphics/SVG/1.1/DTD/svg11.dtd" >
<svg viewBox="0 -442 2048 2048">
  <g transform="matrix(1 0 0 -1 0 1606)">
   <path fill="currentColor"
d="M1996 1479q0 7 -99 -119q-12 -15 -46 -75q-35 -63 -35 -73q0 -4 20 -28q3 -3 11 -56q1 -4 5 -12t4 -13q0 -4 -3.5 -12t-3.5 -12t4 -2q3 2 3 0t-4 -2.5t-4 -3.5q0 -5 7 -17v-8l-24 -22q-15 -16 -15 -55q0 -1 4.5 -8t4.5 -15q0 -20 -17.5 -32t-17.5 -23q0 -5 2 -14t2 -14
q0 -11 -16 -31q-18 -23 -21 -31q2 -19 -14 -62q-5 -6 -32 -28v-9q1 -26 -38 -65q5 -30 5 -34v-3q0 -9 -21 -29q-24 -22 -27 -28q0 -16 -22 -52q1 -9 4 -28q-11 -14 -32 -44q-7 -21 -39 -56q-14 -1 -40 -11q-11 -16 -37 -44q-12 -5 -33 -23q-2 -14 -11 -40q-37 -63 -102 -64
q-12 -47 -27 -55q-27 -14 -37 -27q-7 -28 -35 -77q-20 -6 -53 -21q-7 -20 -47 -57q-18 -2 -50 -14q-9 -15 -34 -42q-15 -4 -43 -17q-7 -12 -25 -32q-22 -8 -61 -32q-3 -11 -11 -30q-11 -15 -34 -22q-96 -28 -140 -55q-24 -25 -75 -54q-12 0 -37 -2q-72 -15 -53 -15
q-5 0 -14 2t-14 2q-21 0 -47 -8t-31 -8q-11 0 -32.5 8t-32.5 8q-10 0 -31 -5t-31 -5q-15 0 -33 17q-25 23 -30 26q-11 1 -34 8q-31 15 -55 45q-29 35 -24 64q-58 36 -58 79q0 6 4.5 18.5t4.5 18.5q0 10 -8 25.5t-8 17.5q0 3 16 25t18 25q5 21 17 62q16 44 53 59q8 2 24 8
q19 17 51 35q23 1 68 2q11 18 37 48q16 4 46 17q12 15 41 39q32 20 56 20q3 0 6.5 -1.5t6.5 -1.5q52 28 60 28q3 0 6.5 -2t6.5 -2q24 0 50 17q9 11 31 29q25 5 69 20q3 6 9 15q27 40 62 49h25q15 0 28.5 20t46.5 22q18 24 55 60q8 1 22 8q20 26 59 77q12 6 34 19
q10 15 34 42q14 6 40 22q-5 8 -5 21q0 29 31 59q42 42 48 51q0 7 1 20v4q1 12 16 23q20 13 23 18q6 16 24 44q10 4 27 16q10 17 32 49q17 8 44 31q17 30 34 59q21 35 46 49q8 4 77 28q-13 37 -34 114q-25 127 -25 175q0 32 34 32q11 0 33.5 -9t33.5 -9q15 0 45 9t45 9
q13 0 38.5 -1.5t38.5 -1.5q24 0 59 14q57 23 111 23q11 0 42 -14q17 -43 17 -37zM1940 1476q0 20 -34 20q-41 0 -79 -47l-56 -80q10 49 10 43q0 12 -13 38q-5 -4 -14 -4l-58 -155l-5 8l25 124q-7 36 -20 36q-9 0 -51 -17q10 -39 10 -72q0 -60 -36 -67l-20 84q-14 58 -44 59
l-10 -17q0 -4 8.5 -25t9.5 -28q12 -67 33 -200q16 4 48 14q4 1 23.5 12t22.5 11q4 0 12.5 -1.5t12.5 -1.5q26 0 43 23q39 62 123 180q2 2 32 33q27 28 27 30zM1784 1147q0 8 -10 20t-18 12q-4 0 -13 -3.5t-13 -4.5q-12 1 -35 -2q-10 -9 -65 -22q-28 -36 -55 -36q-5 0 -14 6
t-13 6t-17 -4.5t-19 -5.5q-12 -9 -12 -42q0 -12 -19 -31q-27 -27 -28 -29q-1 -10 -8 -28q-11 -6 -32 -22l-22 -39q-56 -7 -56 -38q0 -6 4 -13q-11 -7 -32 -25v-3q0 -8 9 -28q-47 -28 -47 -36q0 1 9 -29q-16 -7 -33 -14q-20 -9 -22 -24q3 -10 8 -30q-19 -9 -54 -32
q0 -5 -2 -19t-2 -21l-47 -13q-20 -10 -20 -43q-11 -5 -29 -16q-9 -19 -28 -57q-10 0 -56 -11q-20 -37 -20 -45q0 -6 3 -11q-12 -8 -13 -8q-5 0 -14 3t-14 3q-20 0 -33 -21q-9 -15 -18 -31q-3 -1 -11 -1q-4 0 -12.5 1.5t-12.5 1.5q-50 0 -52 -66q-4 -5 -13 -5
q-11 0 -31.5 4.5t-30.5 4.5q-15 0 -48 -41q4 -15 3 -20v-4q-18 -6 -25 -6q-5 0 -15.5 3t-15.5 3q-20 0 -37 -17t-33 -17q-7 0 -22.5 4.5t-22.5 4.5q-19 0 -43 -35q1 -9 4 -28q-6 -8 -19 -8q-7 0 -21 3t-21 3q-9 0 -23 -23l-19 -30q-7 2 -21 10q-10 6 -22 6q-13 -1 -16 -2
q-12 -10 -35 -29q-23 -7 -55 -35q1 -19 -2 -56q-12 -9 -24 -19.5t-12 -24.5q0 -5 1.5 -14t1.5 -14t-5 -16t-5 -15q0 -15 36.5 -39.5t36.5 -38.5q0 -4 -2 -11.5t-2 -11.5q0 -19 13 -33q10 -11 30 -13q30 -1 32 -2q8 -15 16 -32q42 -4 30 -4q7 0 20 4.5t20 4.5q1 0 20 -15.5
t28 -15.5q13 0 33 12.5t22 12.5q4 0 12.5 -4.5t12.5 -4.5q-10 0 39 14q18 1 53 8q32 12 24 12q2 0 6 -1.5t6 -1.5q29 0 54 22q7 11 22 33q19 1 55 8q24 8 33.5 29.5t18.5 41.5q9 13 37.5 20.5t32.5 10.5q7 14 25 36q16 4 46 17q5 3 27 33q18 25 35 25q2 0 6 -1.5t6 -1.5
q15 0 29 24q10 17 21 35q17 -9 20 -9q46 0 67 47q1 17 2 51v2q7 4 41 16q6 9 16 28l2 32q2 22 18 22q5 0 13.5 -3t12.5 -3q28 0 50 22q12 12 16 29q5 22 8 27q17 9 35 17q20 13 20 30q22 16 61 53q3 6 11 18q10 8 20.5 16.5t10.5 21.5q0 2 -6 34q63 43 60 84q20 20 44 60
q0 2 2 82v13q12 11 38 29q-1 16 -1 49q20 9 51 53q0 9 2 28q33 28 33 48q0 4 -1.5 11t-1.5 11q0 7 14 22.5t14 19.5q0 5 -6 17t-6 17t7.5 16.5t7.5 16.5t-6 14.5t-6 13.5q0 5 9 18.5t9 17.5z" />
  </g>

</svg>
