<?xml version="1.0" standalone="no"?>
<!DOCTYPE svg PUBLIC "-//W3C//DTD SVG 1.1//EN" "http://www.w3.org/Graphics/SVG/1.1/DTD/svg11.dtd" >
<svg viewBox="0 -442 2050 2048">
  <g transform="matrix(1 0 0 -1 0 1606)">
   <path fill="currentColor"
d="M2050 545q0 -175 -72 -303q-18 -31 -98 -103q-73 -65 -189 -133q-31 -12 -93 -37q-235 -98 -530 -98q-142 0 -311 33q-183 36 -297 93q-62 31 -151 96q-96 70 -133 117q-94 117 -94 335q0 71 17 130q2 8 18 39t16 34v89q0 -20 18 58q25 110 139 220q108 105 221 141
q124 39 231 54q151 21 214 21h220q57 0 214 -21q338 -45 505 -248q65 -79 82 -158q2 -7 12 -36q10 -25 10 -30v-91q15 -30 34 -72q17 -58 17 -130zM1508 792q0 106 -41 171q-37 23 -46 23q9 0 -25 -8q-2 -2 -14 -12v-11q0 -7 1 -10q11 -28 37 -63q17 -21 17 -62v-6
q0 -27 -18 -56.5t-18 -32.5q0 -11 9.5 -25.5t19.5 -14.5t30.5 13.5t25.5 22.5q22 41 22 71zM1334 801v28q-85 70 -292 70q-74 0 -198 -42q-12 -4 -43 -28v-28q18 -13 53 -39q15 23 26 28q20 10 91 22q67 11 95 11q113 0 186 -33q13 -6 26 -28q19 13 56 39zM1219 738
q-6 1 -7 8l-146 10q-13 1 -143 -11l-9 -7q103 -33 135 -33h49q10 0 121 33zM1983 545q0 -19 -11 134q-26 -42 -43 -106q-1 -15 -11 -41q-13 -18 -66.5 -69t-72.5 -64q-126 -85 -226 -115q-79 -23 -237 -47q-101 -15 -115 -15h-270q-13 0 -105 14q-87 12 -256 51
q-85 27 -196 99q-124 80 -160 145q-11 21 -25 77q-12 52 -26 71q-14 -70 -14 -136q0 -78 28 -173q21 -72 41 -99q84 -116 274 -204q69 -32 232.5 -73t272.5 -41q151 0 176 2q3 0 48 7q45 4 134 18q188 46 276 84q125 55 239 164q17 14 44 43q69 108 69 274zM462 981
q0 53 -30 53q-28 0 -70 -44t-46 -73q-10 -73 -10 -78q0 -73 17 -99q44 -67 109 -67q3 0 24 10l1 18q0 13 -18 55.5t-18 72.5q0 50 10 75q1 2 20 37q11 20 11 40z" />
  </g>

</svg>
