<?xml version="1.0" standalone="no"?>
<!DOCTYPE svg PUBLIC "-//W3C//DTD SVG 1.1//EN" "http://www.w3.org/Graphics/SVG/1.1/DTD/svg11.dtd" >
<svg viewBox="0 -442 2048 2048">
  <g transform="matrix(1 0 0 -1 0 1606)">
   <path fill="currentColor"
d="M2015 353q0 -145 -124 -278q-110 -117 -260 -174q-12 -4 -154 -31q-263 -49 -428 -49q-133 0 -295 20q-188 23 -287 60l-69 39q-316 178 -316 405q0 122 71 228q28 41 94.5 91.5t115.5 68.5q23 6 67 19q27 136 90 407q17 64 50 91q3 2 34 18q126 63 214 86q94 23 231 23
q125 0 246 -26q46 -10 122 -42q83 -34 111 -59q33 -29 50 -91q7 -26 89 -407q23 -6 68 -19q53 -18 115 -66t94 -94q71 -103 71 -220zM1664 493q0 20 -2 33q-16 104 -55 259q-60 234 -65 258q-8 47 -34 116q-8 10 -58 46q-129 93 -401 93q-134 0 -240 -20q-52 -10 -119 -45
q-73 -37 -101 -74q-13 -17 -27 -88q-19 -77 -55 -232l-48 -192q-26 -114 -26 -195q0 -74 35 -122q29 -40 98 -80.5t234 -60.5q188 -23 249 -23q15 0 80 6q133 12 169 17q96 12 167 32q42 12 97 49q61 40 78 73q24 46 24 150zM1949 383q0 28 -18.5 79t-36.5 74q-33 43 -91 81
q-61 39 -111 48q34 -133 34 -219q0 -24 -21 -83q-76 -216 -488 -242q-126 -8 -168 -8q-474 0 -614 163q-17 19 -43 87q-21 54 -21 88q0 80 35 214h-11q-13 0 -51 -20q-195 -101 -195 -262q0 -48 10 -81q15 -50 44 -91q92 -129 229 -177q33 -15 101 -42q178 -58 516 -58
q472 0 680 127q9 6 122 108q15 13 43 42q55 74 55 172zM1501 1056q0 -94 -166 -137q-112 -29 -251 -29q-179 0 -266 18q-28 3 -82 18q-61 26 -78 36q-48 27 -57 58q-4 14 -4 48q0 48 14 70q5 7 37 32q98 75 255 96q37 5 95 5q154 0 197 -5q1 0 119 -33q140 -39 173 -95
q14 -24 14 -82zM1544 873q-26 -61 -141 -105q-99 -37 -180 -37h-348q-13 0 -39.5 5.5t-39.5 5.5q-42 0 -111.5 30t-102.5 60q-16 14 -28 41l26 121q107 -125 330 -125h284l42 5q183 22 282 120z" />
  </g>

</svg>
