<?xml version="1.0" standalone="no"?>
<!DOCTYPE svg PUBLIC "-//W3C//DTD SVG 1.1//EN" "http://www.w3.org/Graphics/SVG/1.1/DTD/svg11.dtd" >
<svg viewBox="0 -442 2048 2048">
  <g transform="matrix(1 0 0 -1 0 1606)">
   <path fill="currentColor"
d="M1638 1372q0 -19 -11 -36t-11 -32q0 -12 3 -35.5t3 -35.5v-1361q0 -44 -58 -102q-48 -49 -98 -75q-54 -28 -140 -51q-45 -12 -37 -12h-269q-73 0 -137 20q-33 17 -99 47q-110 45 -165 117q-29 37 -36 155q-12 14 -41 35q-10 4 -86 7q-70 2 -137 17q-23 5 -72 46
q-45 37 -64 62q-1 2 -18 37q-47 100 -68 264q-15 118 -15 157q0 141 32 265q9 21 26 62q11 32 39 93q39 63 76 92t92 44q37 2 111 12q98 19 98 58q-34 54 -34 85q0 54 32 100q68 98 236 120q107 14 156 14h346q125 0 233 -36q84 -28 105 -102q8 -28 8 -31zM1573 1342
q0 63 -79 98q-11 5 -92 17t-98 12h-454q-5 0 -13.5 -5t-12.5 -6q-10 0 -31 -2q-193 -23 -193 -150q0 -22 4 -31q19 -46 78 -53q31 1 92 -8q18 -6 64 -56v-486q0 -39 25 -39q8 0 19.5 19.5t11.5 28.5v443q0 26 40 47q15 8 39 8l18 -1q46 -52 91 -52q50 0 102.5 41.5
t67.5 41.5q12 0 35.5 -6t35.5 -6q49 0 78 25q40 33 56 39q14 0 43 5q73 22 73 76zM1473 238v726h-13q-19 0 -50 -9q-37 -9 -50 -11q-152 -18 -285 -18q-41 0 -71 2q-9 1 -31.5 4.5t-34.5 3.5v-242q0 -28 -14 -68q-10 -30 -64 -30q-16 0 -36 18t-20 33v301q-51 7 -92 10v-754
q0 -5 14.5 -30t19.5 -29q41 -32 107 -49q59 -11 117 -22q26 -5 22 -5h300q30 0 79 17q55 19 67 40q7 12 21 56.5t14 55.5zM1554 -137v1361h-11q-41 0 -63 -13q-10 -11 -34 -32q-55 -38 -95 -38q-15 0 -42 9.5t-42 9.5q-16 0 -63.5 -39t-98.5 -39q-42 0 -126 56
q-38 -38 -38 -52v-124q3 4 8 4q7 0 30 -2.5t36 -2.5q269 0 404 23q7 1 32 10q22 8 27 8q9 0 19 -12t10 -21v-731q0 -20 -16 -74q-21 -69 -54 -90q-3 -1 -99 -34q-65 -22 -148 -22q-171 0 -266 22q-99 23 -104 25q-62 18 -94 48q-46 43 -46 63v800q0 11 21 38q54 -34 106 -34
h6v11q0 63 -16 115q-14 44 -82 66q-56 12 -111 25q-11 -25 -32 -74q-29 -13 -89 -34q-13 -3 -90 -9q-53 -4 -85.5 -26.5t-56.5 -65.5q-88 -158 -88 -384q0 -171 29 -280q7 -25 35 -93q31 -73 42 -86q42 -50 189 -52q136 -1 175 -76q13 -25 13 -93q0 -64 129 -134
q110 -59 189 -70q75 -10 230 -10q223 0 340 122q20 21 20 31zM621 300q0 -43 -54 -71q-45 -24 -93 -24q-141 0 -186 144q-30 97 -29 137l9 251q5 128 50 186q52 66 176 66q70 0 92 -35q35 -55 35 -87v-567zM547 290v599q-20 27 -41 27q-85 0 -116 -24q-21 -16 -37 -104
q-13 -72 -13 -118q0 -11 4.5 -33.5t4.5 -33.5v-129q0 -2 11 -81q16 -113 133 -113q6 0 54 10z" />
  </g>

</svg>
