<?xml version="1.0" standalone="no"?>
<!DOCTYPE svg PUBLIC "-//W3C//DTD SVG 1.1//EN" "http://www.w3.org/Graphics/SVG/1.1/DTD/svg11.dtd" >
<svg viewBox="0 -442 2048 2048">
  <g transform="matrix(1 0 0 -1 0 1606)">
   <path fill="currentColor"
d="M1761 391q0 -214 -57 -321q-15 -28 -93 -133q-64 -87 -77 -132q-2 -24 -11 -70q-7 -23 -39.5 -51t-56.5 -36q-32 -10 -130 -10q-104 0 -135 10q-125 40 -125 106q0 7 1.5 21.5t1.5 21.5q0 66 -66 140q-17 -31 -34.5 -63t-47.5 -50q-24 -14 -111 -25q-74 -10 -119 -10
q-232 0 -307 28q-30 11 -47 28q-4 4 -35 59q-34 59 -69 117q-33 62 -48 129q-32 75 -72 234q-2 22 -2 67v64q0 148 170 440q40 69 75.5 171t35.5 161v94q0 7 -4.5 19t-4.5 19q0 55 44 80q20 12 111 24q80 11 118 11q222 0 222 -80q0 -36 -1 -107t-1 -107q0 -72 31 -144
q7 -15 53 -80q74 -103 108 -200q11 -32 50 -218h316q10 0 96 -11q47 -4 141 -18q15 -3 44 -18q75 -39 75 -160zM1690 411q0 45 -22 63q-13 11 -163 36q-144 24 -178 24q-202 0 -276 -17q-104 -24 -127 -43q-41 -34 -41 -119q0 -174 64 -276q6 -13 21 -37q36 -35 102 -111
q28 -39 36 -90q7 -47 15 -94q74 -29 217 -29q72 0 117 41q2 78 11 98q22 49 81 127q65 85 85.5 125t39.5 148q18 100 18 154zM1019 556q-31 216 -88 316q-28 42 -83 126q-18 26 -47 83q-25 73 -25 202q0 110 15 139q-45 38 -115 38q-137 0 -260 -28q21 -50 21 -143
q0 -192 -193 -507q-17 -28 -43 -86q-2 -14 -8 -43l-26 -102q-7 -35 -7 -107q0 -43 42 -183q11 -48 42 -142q20 -47 62 -116q59 -96 68 -112q113 -23 338 -23q30 0 88 10q65 11 80 23q9 7 53 87q-74 79 -96 180q-14 63 -14 207q0 151 186 172zM1588 430q0 -1 -1 -6
q-9 -9 -30 -22q-46 -19 -63 -19h-328q-9 0 -25.5 5.5t-24.5 5.5q-45 1 -133 21q-7 9 -7 27v14q83 35 201 35h287q9 0 58.5 -11t55.5 -15q10 -6 10 -24v-11z" />
  </g>

</svg>
