<?xml version="1.0" standalone="no"?>
<!DOCTYPE svg PUBLIC "-//W3C//DTD SVG 1.1//EN" "http://www.w3.org/Graphics/SVG/1.1/DTD/svg11.dtd" >
<svg viewBox="0 -442 2048 2048">
  <g transform="matrix(1 0 0 -1 0 1606)">
   <path fill="currentColor"
d="M1894 945q1 -66 -24 -352h-25v-609h-85v609h-14v655q42 -7 73 -39q73 -76 75 -264zM1673 617q0 -257 -180 -437.5t-437 -180.5t-437 180.5t-180 437.5t180 437.5t437 180.5t437 -180.5t180 -437.5zM446 919q0 -58 -52 -104t-52 -70v-761h-85v761q0 24 -52 70t-52 104
q0 171 76 329v-282h45v282h50v-282h46v282q76 -158 76 -329zM1627 617q0 238 -166.5 405t-404.5 167t-404.5 -167t-166.5 -405t166.5 -405t404.5 -167t404.5 167t166.5 405zM1505 617q0 -187 -131 -318.5t-318 -131.5t-318 131.5t-131 318.5t131 318.5t318 131.5t318 -131.5
t131 -318.5zM1459 617q0 168 -117.5 286t-285.5 118t-285.5 -118t-117.5 -286t117.5 -286t285.5 -118t285.5 118t117.5 286z" />
  </g>

</svg>
