<?xml version="1.0" standalone="no"?>
<!DOCTYPE svg PUBLIC "-//W3C//DTD SVG 1.1//EN" "http://www.w3.org/Graphics/SVG/1.1/DTD/svg11.dtd" >
<svg viewBox="0 -442 2048 2048">
  <g transform="matrix(1 0 0 -1 0 1606)">
   <path fill="currentColor"
d="M1387 1288q0 -13 -56 -41.5t-69 -28.5h-22l-4 4v21q133 66 132 66q7 0 19 -7v-14zM1255 1408q0 -20 -67 -146h-15q-3 14 -3 17q0 27 48 127q8 16 21 16q16 0 16 -14zM2022 413q0 -66 -27 -119q-11 -21 -44 -58q-37 -41 -53 -45q-41 -4 -119 -24q-21 -9 -25 -32v-43
q0 -42 -16 -68q-32 -53 -103.5 -99t-135.5 -58q-89 -17 -167 -17q-147 0 -214 95q-18 26 -39 201q-14 113 -27 226q1 -68 -12 -187q-4 -14 -43 -55q-82 -85 -201 -85q-174 0 -238 26q-13 8 -38 24q-59 36 -69 44q-35 25 -57 58q-15 23 -15 89q0 44 -72 56q-99 17 -108 22
q-39 23 -69 75q-48 82 -48 279q0 74 22 170q25 110 61 157q32 41 85 70q28 15 32 15h23q15 -1 23 -1q70 0 87 37q-19 27 -19 46q0 63 55 111q50 43 186 43q33 0 135 -9q69 -2 205 -25q27 -7 54.5 -14.5t46.5 -25.5q32 -29 32 -69q0 -11 -8 -33.5t-8 -36.5q0 -23 13 -23
q8 0 98 15q192 32 236 32q113 0 159 -17q80 -30 80 -123q0 -8 -4.5 -24.5t-4.5 -24.5q0 -24 99 -24q70 0 105 -24q9 -6 31 -37q71 -99 88 -186q28 -143 28 -181v-123zM1630 1027q0 106 -166 106q-10 0 -86 -9q-138 -16 -175 -23q-107 -20 -164 -54q-24 -14 -32 -59
q-6 -35 -11 -70q-2 -7 -20 -60q-17 -46 -17 -52q0 -2 4 -15h17q7 8 23 24q78 63 93 63q5 0 26.5 -20t37.5 -20q15 0 58.5 29.5t64.5 29.5q9 0 29.5 -7.5t31.5 -7.5t17 1q2 1 23 29q14 17 31 17q8 0 22.5 -1.5t22.5 -1.5q30 0 45 18q20 24 29 28q29 8 58 17q38 13 38 38z
M1066 1207q0 34 -29 54q-35 24 -198 44q-137 17 -215 17q-26 0 -97 -17q-80 -19 -80 -84q0 -47 48 -62q21 -1 60 -11q5 -2 26.5 -19.5t24.5 -17.5q5 0 25 11t25 11q17 0 40 -26.5t42 -26.5q42 0 74.5 22t44.5 22q9 0 29.5 -6.5t34.5 -6.5q13 0 32 16q23 18 30 21q12 1 35 5
q19 5 47 32q1 9 1 22zM1972 541q0 59 -25 160q-4 25 -18 73q-63 136 -132 136h-26q-18 -1 -27 -1q-58 0 -70 8q-6 4 -34 53q-41 -15 -79 -34q-11 -6 -45 -37q-25 -24 -52 -24q-37 0 -60 19q-46 -47 -76 -47q-12 0 -34.5 6.5t-33.5 6.5q-14 0 -39.5 -28.5t-72.5 -28.5
q-20 0 -34.5 19t-25.5 19q-9 0 -25.5 -16.5t-16.5 -25.5q0 -7 11 -106l21 -189q13 -120 42 -361q6 -50 22 -147q2 -10 28 -40q19 -22 81 -38q54 -14 92 -14q39 0 118 14q86 16 111 31q80 47 120 103q9 9 21 29q1 3 1 55q0 60 50 84q15 7 100 25q60 13 75 43q33 67 33 253z
M975 683v66q-37 4 -47 22q-7 12 -7 52q0 16 19 53t19 58q-3 6 -7 6q-14 0 -43.5 -2.5t-43.5 -2.5q-8 0 -168 6q-7 0 -20 -3t-20 -3q-27 0 -76.5 20.5t-76.5 20.5l-32 -506q-2 -31 19 -52q15 -7 45 -22q100 -49 291 -49q67 0 84 11q38 25 47 79q17 100 17 246zM1047 1109v11
h-23q-10 0 -40 -21.5t-61 -21.5q-11 0 -30.5 7.5t-30.5 7.5q-3 0 -32.5 -23.5t-68.5 -23.5q-31 0 -46 11l-34 30q-21 -25 -66 -25q-28 0 -51 20q-42 34 -43 35q-10 6 -80 23q-11 -51 -79 -60q-97 -13 -109 -20q-59 -34 -92 -142q-25 -86 -25 -175q0 -203 48 -296
q19 -36 67 -45l84 -8q22 -4 47 -22q28 -21 32 -41q0 -24 5 -73q7 -29 101 -93q16 -13 50 -33q67 -29 215 -29q105 0 186 61q11 8 25 25q5 15 16 209q10 185 10 228t-20 132q-7 -82 -18 -245q-5 -120 -43 -161q-10 -11 -56.5 -28t-63.5 -17q-10 0 -28.5 2.5t-26.5 2.5
q-72 3 -154 22q-103 25 -137 62q-28 30 -28 50q0 9 9 144l20 300q0 33 6 98q3 16 17 27q23 -12 72 -31q24 -1 56 -8q25 -15 19 -15q5 0 13.5 3.5t13.5 3.5l275 -4q7 0 16 8q0 19 5 56q22 68 78 82zM1915 495q0 -189 -130 -189q-65 0 -80 42t-34 195q-17 144 -17 203
q0 92 65 92h81q38 0 67 -64q10 -22 29 -135.5t19 -143.5zM1673 278q0 -52 -64 -93q-24 -15 -72 -29q-189 -54 -233 -54q-14 0 -62.5 19.5t-57.5 28.5q-34 35 -45 110q0 1 -39 321q-18 148 -18 154q0 30 19 30q14 0 43 -3t43 -3q155 0 236 20q14 4 80 32q63 27 65 27
q3 0 6 -3.5t6 -3.5q6 0 9 7q19 -12 25 -44l4 -52q13 -105 38 -314q17 -144 17 -150zM859 848q-9 -41 -17 -81q-13 -52 -51 -52q-49 0 -49 52q0 36 41 67l72 44zM945 533q0 -21 -28 -55t-50 -45q-14 -7 -40 -7q-56 0 -56 64q0 11 4 20q8 16 53 66.5t56 50.5q61 0 61 -94z
M440 916q0 -40 -9 -188q-2 -68 -17 -200q-12 -58 -80 -58q-142 0 -142 207q0 94 17 181q24 125 72 142q20 7 83 7q35 0 59 -19q17 -80 17 -72zM1859 443q0 281 -58 336q-9 9 -44 9q-57 0 -57 -23q0 -2 1 -6l51 -399q3 0 9.5 -1.5t10.5 -1.5q87 0 87 86zM1651 292l-67 504
q-22 -2 -64 -10q-28 -11 -85 -29q-116 -26 -148 -26h-180v-20q0 -18 17 -173q10 -102 40 -303q12 -60 48 -79q25 -13 73 -13q71 0 185 23q56 11 111 45q23 11 53 31q20 24 17 50zM824 804v24q-53 -30 -53 -61q0 -24 20 -24q12 0 23 25q10 22 10 36zM902 509v83
q-10 -1 -27 -8q-67 -51 -67 -108q0 -31 30 -31q16 0 40 24t24 40zM390 933q1 23 -62 23h-11q-31 0 -49 -58q-12 -41 -13 -84q-3 -154 -3 -162q0 -127 73 -127q32 0 46 5z" />
  </g>

</svg>
