<?xml version="1.0" standalone="no"?>
<!DOCTYPE svg PUBLIC "-//W3C//DTD SVG 1.1//EN" "http://www.w3.org/Graphics/SVG/1.1/DTD/svg11.dtd" >
<svg viewBox="0 -442 2048 2048">
  <g transform="matrix(1 0 0 -1 0 1606)">
   <path fill="currentColor"
d="M1271 -229q0 -42 -37.5 -83.5t-79.5 -41.5q-52 0 -82 61q-24 48 -24 106v527q-50 124 -50 307v656q0 88 35 165q45 96 123 96q115 0 115 -189v-1604zM635 1023q0 -142 -171 -204l12 -385q0 -16 24 -138q57 -296 57 -404q0 -115 -17 -165q-31 -88 -123 -88q-91 0 -121 86
q-18 50 -18 162q0 113 57 409q11 46 24 138l12 385q-171 62 -171 204q0 6 1 22l26 411h45l-10 -394q-1 -22 18.5 -48.5t41.5 -26.5q24 0 45.5 27.5t21.5 51.5v390h57v-390q0 -24 21.5 -51.5t45.5 -27.5q22 0 41.5 26.5t18.5 48.5l-10 394h45l26 -411q1 -16 1 -22zM1214 497
v965q0 55 -48 55q-49 0 -83 -69q-27 -58 -27 -113v-715q0 -194 77 -194q24 0 52.5 23.5t28.5 47.5z" />
  </g>

</svg>
