<?xml version="1.0" standalone="no"?>
<!DOCTYPE svg PUBLIC "-//W3C//DTD SVG 1.1//EN" "http://www.w3.org/Graphics/SVG/1.1/DTD/svg11.dtd" >
<svg viewBox="0 -442 2078 2048">
  <g transform="matrix(1 0 0 -1 0 1606)">
   <path fill="currentColor"
d="M2078 519q0 -43 -33 -105q-29 -48 -57 -97q-18 -38 -37 -75q-24 -44 -56 -58q-102 -46 -332 -85q-214 -36 -342 -36h-285q-12 0 -32 2q-25 4 -33 4q-413 27 -606 115q-31 14 -56 58q-18 38 -36.5 74.5t-58.5 107.5q-32 48 -32 98q0 38 19 61q6 8 50 45q168 142 639 175
q84 6 72 6h421l100 -10l199 -20q113 100 212 181q32 29 97 77q14 8 140 8q8 0 31 -17v-54q-179 -115 -337 -219q187 -69 214 -82q139 -70 139 -154zM1236 538q0 70 -161 70q-160 0 -160 -70q0 -60 160 -60q161 0 161 60zM1598 481q0 36 -24 48q-19 5 -55 15q-75 21 -254 24
q13 -26 13 -40q0 -17 -33 -39q-29 -19 -50 -23q-54 -11 -115 -11q-58 0 -115 11q-21 4 -50 23q-33 22 -33 39q0 5 10 24h-14q-27 0 -112 -10q-90 -10 -103 -17q-27 -14 -27 -34t30 -49.5t49.5 -37t88.5 -20.5t90 -13h255q5 0 53.5 14.5t73.5 14.5q16 0 49.5 -3t49.5 -3
q104 0 161 17q18 5 40 29t22 41z" />
  </g>

</svg>
