<?xml version="1.0" standalone="no"?>
<!DOCTYPE svg PUBLIC "-//W3C//DTD SVG 1.1//EN" "http://www.w3.org/Graphics/SVG/1.1/DTD/svg11.dtd" >
<svg viewBox="0 -442 2048 2048">
  <g transform="matrix(1 0 0 -1 0 1606)">
   <path fill="currentColor"
d="M1538 1358q0 -18 -85 -123l-156 -193q-66 -84 -200 -252q-27 -35 -85 -100q-1 -1 -32 -21q-21 -13 -21 -28q0 -1 13.5 -33.5t13.5 -55.5q0 -29 -52 -95v-213q0 -122 42 -214q11 1 20 1q80 0 176 -39q18 -7 68 -44q42 -31 50.5 -58.5t8.5 -55.5q0 -59 -69 -102
q-16 -12 -49 -32q-152 -68 -371 -68q-110 0 -227 25q-143 31 -206 84q-9 6 -27 20q-29 28 -29 73q0 96 119 152q97 46 204 44q27 51 32 81q13 82 13 268q0 7 1.5 21.5t1.5 21.5q0 30 -29 66.5t-29 50.5q0 49 14 73.5t14 19.5q0 14 -2 21q-15 10 -44 31q-15 13 -58 66
l-256 312q-220 271 -220 284q0 17 1 31q84 53 246 70q15 2 261 14q121 6 126 6q92 0 276.5 -10t276.5 -10q7 0 40 36t48 36q9 0 18 -20q-18 -18 -52 -55q2 -1 110 -24q65 -13 103 -43q2 -8 2 -19zM1207 1147q-57 13 -143 13q-13 0 -56 -42h16q77 0 179 23zM1001 1178
l-587 -27q-1 -7 3 -12q180 -28 181 -28h299q11 0 32 2t29 2q14 18 43 63zM989 984q0 31 -26.5 54.5t-57.5 23.5q-65 0 -108 -52q-53 -64 -53 -92q0 -6 3.5 -16.5t3.5 -15.5q5 -8 10 -10q13 13 42 33l2 -16q-12 -17 -18 -36h47q25 0 64.5 13.5t52.5 30.5q38 50 38 83z
M1470 1359q-12 4 -198 31l-71 -73h11q58 0 122 13q54 11 47 11q16 0 40 -11v-12q-27 -25 -201 -36q-26 0 -58 -3q-7 -3 -87 -94q10 0 34 1h34q76 0 95 -14q12 -9 15 -37q-11 -10 -36 -26q-41 -16 -118 -21l-122 -8q46 -34 46 -80q0 -36 -22 -76q-24 -43 -68 -74
q-48 -33 -94 -33q-36 0 -56 4q-9 3 -29 8q-16 -24 -33 -49q-24 -30 -44 -30q-13 0 -13 15q0 5 62 82q-22 21 -22 55q0 39 31 88q18 29 103 84q-88 3 -307 15q-164 9 -164 53q0 27 27 33l46 10l579 3q31 25 87 88q-295 -13 -296 -13q13 0 -134 6q-107 3 -214 7
q-175 8 -234 26q-8 3 -29 17v11q13 8 30 8q11 0 30.5 -5t26.5 -6q56 -5 169 -15q86 -8 95 -8h519q64 0 89 19q30 33 61 66l-226 12q-113 6 -114 6q-16 0 -458 -14q-173 -5 -271 -34l343 -426q54 -68 166 -201q34 -15 72 -54q2 -11 2 -35l-1 -11q-40 -22 -40 -78
q0 -53 49 -81q-20 -9 -30 -18v-14q29 -16 45 -30v-193q0 -83 -14 -124q-15 -47 -67 -111q-14 -17 -18 -17q-5 0 -15 7.5t-14 7.5q-14 0 -83 -27q-65 -25 -85 -36q-53 -30 -53 -72q0 -26 7 -38q31 -54 182 -83q108 -20 212 -20q98 0 214 22q156 30 183 80q8 15 8 47
q0 36 -53 64q-12 6 -87 34.5t-81 28.5q-5 0 -14 -7.5t-13 -7.5q-16 0 -53 61q-35 57 -38 78q-7 49 -7 82v227q43 29 43 34q0 10 -31 25q50 32 50 72q0 49 -20.5 70.5t-20.5 45.5q0 29 27 43q39 22 45 28q25 28 132 159l275 337q47 57 103 131zM958 1008q-5 6 -17 12h-7
q12 -70 12 -53q0 -8 -28 -41q-4 -1 -11 -1q-9 0 -36 9.5t-31 15.5q-13 19 -13 34t23 39t38 24h25q20 0 45 -39zM955 756q-38 -21 -44 -21h-41q1 1 1 3q0 15 -20 18q-24 3 -27 10q45 15 65 15q52 0 66 -10v-15zM796 -111h-111q-23 0 -51 25q1 17 7 27q80 -19 148 -29l7 -6
v-17zM928 963q-2 2 -5 8.5t-36 23.5q-17 0 -36 -13q6 -8 14 -29q3 -1 10.5 -4t11.5 -3q18 0 41 17z" />
  </g>

</svg>
