<?xml version="1.0" standalone="no"?>
<!DOCTYPE svg PUBLIC "-//W3C//DTD SVG 1.1//EN" "http://www.w3.org/Graphics/SVG/1.1/DTD/svg11.dtd" >
<svg viewBox="0 -442 2048 2048">
  <g transform="matrix(1 0 0 -1 0 1606)">
   <path fill="currentColor"
d="M2016 -42q0 -49 -52 -102t-101 -53h-1628q-2 0 -33 8q-42 11 -81 58t-39 90v1289q0 4 5 20q16 52 56 92q45 44 95 44h1622q49 0 102.5 -53t53.5 -102v-1291zM1934 -29v1263q0 28 -29.5 58.5t-56.5 30.5h-1598q-29 0 -57.5 -30.5t-28.5 -59.5v-1262q0 -27 28 -56.5
t55 -29.5h1604q27 0 55 29.5t28 56.5zM1865 781q0 -36 -32 -72t-67 -36h-841q-27 0 -61.5 31.5t-34.5 58.5v410q0 28 34 60.5t62 32.5h841q35 0 67 -36.5t32 -71.5v-377zM1865 492q0 -33 -7 -56t-35.5 -48.5t-50.5 -25.5h-410q-21 0 -50.5 26t-35.5 47q-7 25 -7 57
q0 50 26 89q29 45 76 45h392q31 0 62 -29.5t36 -60.5q4 -27 4 -44zM1865 158q0 -119 -7 -137q-10 -24 -35 -47q-28 -27 -51 -27h-410q-21 0 -50.5 26.5t-36 49t-6.5 65.5v77q0 38 4 57q7 34 39 62t66 28h379q14 0 41 -11q67 -28 67 -143zM782 777q0 -33 -33 -68.5t-66 -35.5
h-367q-30 0 -64.5 34.5t-34.5 64.5v395q0 32 33.5 65.5t65.5 33.5h367q34 0 66.5 -36.5t32.5 -71.5v-381zM1234 43q0 -55 -76 -90q-13 -6 -14 -6h-840q-27 0 -58.5 36.5t-31.5 63.5v476q0 34 34 68.5t68 34.5h819q30 0 64.5 -34.5t34.5 -64.5v-484zM1812 774v391
q0 17 -23.5 34t-41.5 17h-803q-21 0 -43 -17t-22 -38v-383q0 -12 17 -32t29 -20h841q11 0 28.5 19t17.5 29zM1825 494q0 32 -22.5 55t-54.5 23t-54.5 -23t-22.5 -55t22.5 -55.5t54.5 -23.5t54.5 23.5t22.5 55.5zM1642 492q0 80 -76 80q-32 0 -54.5 -23t-22.5 -55t22.5 -55.5
t54.5 -23.5q31 0 53.5 22.5t22.5 54.5zM1463 492q0 33 -21.5 56.5t-54.5 23.5q-32 0 -54.5 -23t-22.5 -55q0 -79 77 -79q31 0 53.5 23t22.5 54zM1756 202q0 19 -9 22q1 0 -25 0q-19 0 -29 20q7 3 18 14h-227q7 0 -22 -8q0 -10 -4 -30h-85q-11 -11 -29 -33q8 -3 39 -44
q-8 1 14 1q5 0 4 -12q-4 0 -9.5 3.5t-8.5 3.5q-10 0 -42 -16v-17q5 -10 17.5 -12.5t13.5 -3.5q-4 -21 -28 -50l4 -7q40 -20 78 -20q13 0 38 5t38 5q9 0 32 -19q7 5 16 11q43 6 163 15q9 11 14 23l-9 8q9 9 9 26q0 14 -14 19q-19 7 -20 8q11 7 33 22q2 5 16 34t14 32z
M729 774v391q0 18 -23 34.5t-42 16.5h-332q-18 0 -40 -16t-22 -33v-395q0 -9 18 -27.5t28 -18.5h367q11 0 28.5 19t17.5 29zM1200 115q0 5 -10 46h-38v10q12 11 17 35q24 20 24 30q0 13 -17 13q-1 0 -21 -10l-2 30q27 44 37 43v11q0 33 -8 49q-12 22 -42 20q19 14 53 47
q-12 18 -32 17q-13 22 -21 22q-4 0 -8.5 -9t-5.5 -10q-5 9 -5 22t20 30q15 13 30 25q-2 4 -7 11q-6 0 -17.5 3t-17.5 3q-3 0 -7 -3t-7 -3q-5 0 -12.5 5t-12.5 5q-10 0 -25 -15q13 -5 37 -18l-5 -5h-8q-50 0 -50 17q10 10 32 24v15q-32 16 -42 16q2 0 -38 -28q-23 12 -22 12
l-20 -9v-19q11 -5 15 -10h-41v8q7 4 9 25v5h-25q-14 0 -45 -31q-14 7 -21 28h-16q-4 0 -5.5 -3t-5.5 -3q-3 0 -7.5 3t-7.5 3q-8 0 -16 -22t-21 -22q-12 0 -24 15.5t-13 28.5h-40q-15 -23 -27 -53l-39 24q0 8 11 27.5t11 22.5q0 4 -7 10q-13 0 -26.5 -19t-21.5 -21
q-5 5 -12 18h-24v-17q10 -10 28 -31q-8 -6 -30 -14l-1 2v9q0 4 4 25q-1 4 -5 8q-5 0 -14 1.5t-14 1.5q-21 0 -38.5 -25t-33.5 -25l-3 2q15 30 15 44q-4 0 -7 4h-4q-10 0 -17 -17q-9 -20 -17 -24q-5 2 -14 11q5 5 5 13q0 6 -2 14h-18q-14 -12 -28 -23q-19 -15 -31 -15
q-3 0 -6.5 4.5t-16.5 4.5q1 8 1 -28q0 -13 -20 -23q-15 -8 -31 -15v-15h14q3 2 8 6q0 -13 -6.5 -35.5t-6.5 -33.5q0 4 4 -9l16 -10q4 -4 5 -19l-2 -3q-7 6 -18 6q-10 0 -18 -4q19 -25 19 -60q-1 -8 -3 -5q-19 -18 -19 -32q0 -18 19 -18q2 0 5.5 1.5t5.5 1.5q5 0 11 -7
q-44 -44 -44 -48q0 -9 35 -34v-12q-10 -9 -16 -9v-14q11 -5 16 -12q-6 -2 -16 -9v-11q14 -5 31 -15q-31 -41 -31 -42q0 -5 7 -19h11q4 6 12 19q29 -28 40 -28q40 0 103 15q14 -28 26 -28q1 0 38 28q3 -3 2 -12q3 0 8.5 1.5t7.5 1.5q6 -13 12 -13q4 0 8 2.5t6 2.5q25 1 76 5
v12h-6q-4 0 -9 2q6 6 6 11h8q18 -19 22 -19t5.5 3t5.5 3q12 0 17 -9.5t9 -18.5q46 13 68 13q7 0 21 -16q9 17 19 33q13 23 26 23q16 0 19 -7q-41 -49 -41 -54q0 -7 4 -7h21q13 14 37 43q2 -1 7 -5q-22 -33 -22 -28q0 -4 3.5 -8t3.5 -5h14q18 15 38 12q5 21 19 33q16 2 19 2
q21 15 42 15q8 0 12 -2q-16 -7 -31.5 -15t-15.5 -25q0 -12 18 -21q12 16 40 41q3 -6 9 -16h17q6 15 13 31.5t22 19.5q2 -4 2 -8t-5.5 -10.5t-5.5 -10.5v-2q26 -13 39 -13q2 0 23 17q7 0 19.5 3.5t41 43.5t28.5 53zM1781 1092q-12 -21 -41 -21q-49 1 -48 1v-9q0 -104 8 -150
q2 -11 13 -19q0 -3 -1 -7.5t-1 -6.5q0 -30 50 -36q10 -15 10 -19q0 -17 -18.5 -20t-35.5 -5q-28 -5 -157 -25q-25 -2 -70 -12q-1 0 -3 -6t-6 -6h-33q-2 9 -2 20q0 16 2 20q-1 1 -5 1q-146 -63 -209 -63q-7 0 -52 26q-6 4 -31 37q-86 -47 -136 -47q-31 0 -44 7
q-17 9 -42 50.5t-25 60.5q0 102 27 148q90 155 200 155q31 0 74 -44q92 75 153 75q28 0 48 -9q33 -17 40 -19q31 41 62 41q85 0 139 -98q4 4 8 17q3 8 17 8q12 0 15 -7q5 -11 8 -14q23 -3 46 -5q28 -5 40 -19zM1611 133q0 -14 -19 -29q-4 13 -8 13q1 0 -35 -6q1 2 1 7
q0 38 -31 38q-5 0 -8 -1v24l39 10q3 0 7 -1.5t6 -1.5q1 -3 2 -8q0 -7 -4 -18l31 -4q19 -2 19 -23zM1561 75q0 -5 -8 -24q-30 22 -31 22q-4 0 -5 -3t-5 -3h-20q56 25 48 25q21 0 21 -17zM700 1125q0 -8 -18 -43q12 -23 12 -73q0 -110 -30 -154q-80 -116 -113 -116
q-15 0 -40 5q-30 5 -41 6q-19 1 -52 14q0 32 16 36q-5 1 -18 9t-17 8q-7 0 -22 -6t-22 -6q-17 0 -41 68q-19 54 -24 87q0 23 -2 69l-11 6q32 64 117 110q16 9 63 18q94 19 84 19q6 0 11 -1q6 -6 8 -14l-4 -8q8 -4 20 -31q3 9 13 24q20 20 60 20q51 0 51 -47zM1654 994v14
q-4 -2 -15 -14h15zM1611 1060v5q0 27 -30 60.5t-56 33.5q-4 0 -21 -10t-18 -13.5t-1 -10.5q0 -116 85 -116q10 0 41 16v35zM1658 893v75q-31 -16 -56 -26v-10q1 -26 -9 -46q-16 10 -17 34q0 7 -3 13h-40q0 2 0 -36q0 -29 -16 -45zM1689 843l-7 12h-19q-3 0 -37 -12.5
t-40 -14.5q34 4 103 15zM1495 908q0 33 -31 47q11 -24 11 -51q0 -32 -17 -55q37 37 37 59zM1426 1123q0 18 -29 32q-16 8 -47 8q-27 0 -68 -20t-60 -41v-17q9 -2 28 -6v-8q-5 -4 -15 -11q2 -30 2 -50q0 -63 -19 -105q16 42 73 74q53 29 101 28q11 16 24 18q0 62 1 70
q1 5 5 14.5t4 13.5zM1445 911q0 -7 -14 32q-48 -46 -153 -131q34 -11 30 -11q21 0 66 11q17 4 44 42t27 57zM1379 961h-23q-22 0 -61.5 -38t-37.5 -61v-4q62 37 122 103zM1205 870q-7 -10 -14 -27h11q3 9 3 21v6zM1190 978q0 137 -61 137q-33 0 -57 -20q-8 -14 -22 -33
q-12 -3 -32 -14q-51 -48 -51 -124q0 -121 94 -119h18q34 1 74 70q37 65 37 103zM1256 771q-18 14 -68 30q10 -18 29.5 -22.5t38.5 -7.5zM659 1124h-29q-8 0 -19 -11.5t-11 -19.5q0 -9 14 -9q18 0 45 40zM581 1051q-1 5 -10 20t-9 19q0 1 9 28q-12 -8 -36 -25q0 1 0 -16
q0 -6 -4 -10q15 -8 46 -24q0 4 4 8zM663 1042l-4 17q-18 -4 -52 -17q-6 -7 -19 -22q5 -45 5 -35q0 -20 -15 -48q-22 -40 -24 -46q-25 -68 -83 -111h81q30 32 84 101q18 28 21 107q1 28 6 54zM553 998q0 45 -41 45q-27 0 -38 -23q-14 -32 -24 -39q-28 -13 -56 -27
q-22 -10 -40 -55l-2 14q11 20 14 59q3 43 9 60q4 10 19 29.5t22 19.5q-3 0 12 -3q-4 -16 -10 -28l132 89q-21 14 -29 14q-48 0 -118 -33q-57 -27 -88 -68q-10 -13 -10 -45q0 -10 21.5 -82t26.5 -82q3 -5 13 -12q-9 -1 77 -1q64 0 73 98q4 5 10 5l11 -9q16 64 16 74z
M443 1001l-11 5q-10 -2 -30 -7q0 -9 -3 -12q36 16 44 14zM471 917q0 -8 -7 -15q-13 6 -21 21q10 -1 28 -6z" />
  </g>

</svg>
