<?xml version="1.0" standalone="no"?>
<!DOCTYPE svg PUBLIC "-//W3C//DTD SVG 1.1//EN" "http://www.w3.org/Graphics/SVG/1.1/DTD/svg11.dtd" >
<svg viewBox="0 -442 2048 2048">
  <g transform="matrix(1 0 0 -1 0 1606)">
   <path fill="currentColor"
d="M2033 665q0 -116 -16 -180q-14 -58 -68 -170q-127 -263 -246 -371q-1 -1 -60 -42q-142 -99 -147 -102q-83 -51 -164 -72q-23 -8 -70 -20q-68 -14 -201 -14q-157 0 -274 33q-18 11 -57 29q-62 16 -181 62q-43 23 -123 86q-16 13 -78 94q-21 23 -61 70q-16 20 -54 82
q-19 31 -81 206q-17 44 -46 133q-24 99 -24 285q0 26 16 105q26 130 85 225q23 38 81 90.5t99 72.5q49 24 76 41q31 20 62.5 39t67.5 26q340 61 510 61q9 0 79 -5q160 -11 196 -17q103 -15 190 -55q273 -126 326 -221q4 -14 14 -41q16 -21 46 -63q103 -170 103 -367z
M1940 647v96q0 -11 -13 52l-6 -39q-5 -20 -28 -70q17 -12 47 -39zM1422 1191v43q0 10 -12 10q-61 -47 -61 -69q0 -8 5 -13zM1883 762v30q-109 -53 -156 -146q-6 -26 -20 -78q47 3 56 3q5 24 23 67q22 15 61 51q36 41 36 73zM1934 564q0 27 -16 51.5t-41 24.5
q-20 0 -41.5 -28.5t-21.5 -48.5q0 -17 22 -38t40 -21h29q29 43 29 60zM1776 800q0 1 -12 60q-62 305 -273 305q-12 0 -50 -7.5t-44 -12.5q-5 -8 -18 -20q-23 -6 -67 -24q-9 -10 -29 -27q-18 -10 -54 -34q92 21 88 21q4 0 11.5 -1.5t11.5 -1.5q10 0 29.5 4.5t29.5 4.5
q74 0 109 -10q82 -23 146 -144q55 -104 63 -203q59 50 59 90zM1921 810q-37 158 -92 237q-14 10 -41 32q-20 23 -61 66q-33 31 -66 51.5t-116 60.5q-91 44 -118 49q-162 33 -222 33h-240q-1 0 -173 -17q97 -25 144 -84q46 70 138 70q65 0 84 -62q3 -9 15 -115q21 34 43 69
q34 49 54 49q28 0 38 -7l30 -26q39 60 78 60q26 0 36 -26q6 -24 12 -47q35 7 50 7q84 0 156 -62q66 -56 96 -140q5 -21 17 -63q19 -62 35 -140q47 22 78 22q13 0 25 -17zM1302 1167q0 43 -19 43q-13 0 -48.5 -53t-35.5 -68q0 -4 1 -12.5t1 -12.5q23 22 50 38q35 20 38 23
q13 12 13 42zM1877 462q-11 3 -34 10q2 -15 7 -44q9 11 27 34zM1124 1172v49q0 49 -60 49q-30 0 -62 -17q-10 -5 -29 -27t-19 -31q0 -11 3 -29q4 -21 5 -29q53 13 63 13q16 0 38 -23q30 49 61 45zM1672 658q0 77 -41 193q-6 21 -21 60q-32 61 -88 95q-28 17 -86 17h-103
q-23 0 -137 -41l-27 27q12 93 12 76q0 39 -39 77q-32 -17 -45 -61q-26 -91 -26 -113q0 -24 11 -32q33 16 41 16q5 0 33.5 -35t34.5 -38.5l18 -10.5q18 -15 49 -89q31 0 51 -2q33 -30 43 -95q15 -104 16 -106q3 4 48 72q37 58 47 58q20 0 20 -15v-201q11 16 36 41
q17 10 126 10l5 20q1 4 14 37q8 22 8 40zM1805 423q0 35 -15 63q-19 34 -50 34q-73 0 -73 -62v-31q0 -50 5 -67q11 -36 49 -36q37 0 61 32q23 29 23 67zM1650 509q-18 11 -56 11q-77 0 -77 -40v-42q7 -1 34 -8q21 -5 34 -5q31 0 44 30q10 27 21 54zM1049 1062q0 4 -20 43
q-17 0 -43 -4q-10 -5 -37 -36.5t-27 -40.5v-13h116q11 53 11 51zM1114 897v21q-4 0 -11 -7v-14h11zM1216 751q-5 14 -16 41h-15v-21q16 -16 31 -20zM1700 276h-15v-15q15 7 15 15zM1150 775q0 15 -9 40q-12 31 -14 40h-42q-4 0 -12.5 -9t-8.5 -13q0 -18 15 -50
q16 -35 31 -35q-4 0 39 19q1 3 1 8zM1443 512v106q-28 -30 -74 -96q-13 -40 -42 -119h23q6 0 34 23t33 31q26 38 26 55zM1650 286q0 16 -26 58.5t-40 42.5q-30 0 -52 -27.5t-22 -58.5q0 -6 1 -18t1 -18q0 -4 -2.5 -12t-2.5 -12q0 -38 57 -38q35 0 60.5 24t25.5 59zM982 909
v16h-37q-10 -6 -10 -26v-9q0 -17 4 -28q12 4 35 13q1 5 4.5 16.5t3.5 17.5zM1047 777l-4 27h-5l3 -27h6zM1169 669q0 9 -17 60q-5 -3 -27 -14q0 -17 -9.5 -46.5t-9.5 -43.5h11q52 20 52 44zM888 891v8h-5v-8h5zM1011 757q0 7 -5.5 21t-5.5 21q0 13 10 30h-31q16 -34 13 -91
q19 10 19 19zM1080 716q0 19 -17 19q-40 0 -40 -28q0 -10 3.5 -28.5t3.5 -28.5q9 -2 27 -10q23 90 23 76zM953 773v15l-17 17l-5 -21l11 -11h11zM1472 392v84q-34 -96 -131 -117q-22 -1 -61 -15q-57 -39 -57 -73q0 -18 4 -26q24 6 71 55q43 45 71 45q55 0 80 -15
q23 53 23 62zM1307 463q-4 -3 -88 -59q51 -14 43 -14q27 0 45 73zM1792 230v14h-26q-2 0 -154 -77q-158 -80 -192 -89q-41 -11 -152 -18q-6 -4 -7 -11q23 -16 56 -16q69 0 120 16q47 15 196 87q159 78 159 94zM1517 160q-5 4 -14 12q-14 -14 -14 -22q29 10 28 10zM897 765
q0 6 -3.5 15.5t-4.5 13.5q-4 7 -14 7q0 -23 -2 -39q-2 -3 -10 -7v-36q1 2 19 24q15 18 15 22zM985 634v17q0 78 -60 78q-29 0 -29 -45q0 -3 1 -12v-12q32 -36 55 -36zM923 1111q0 68 -22 101q-11 16 -36 37q-28 24 -43 24h-88q-46 0 -102.5 -34t-78.5 -75q-10 -19 -10 -59
q0 -10 -7 -18q8 1 20 1q22 0 95 -19q77 -21 87 -32v-16q-6 -11 -22 -11q-29 0 -82.5 17.5t-81.5 17.5q-39 0 -91 -17q-55 -18 -60 -18q-11 0 -45 -16.5t-43 -25.5q-4 -7 -12 -22q-18 -26 -35.5 -54t-17.5 -60q0 -65 54 -65q79 0 183 64q-47 43 -110 89q18 21 20 21
q27 0 63 -35l54 -54q14 9 40 30q-13 14 -42 38q-15 7 -44 23v18l2 2h37q13 0 41 -28t32 -42q77 26 81 26q11 0 17 -4q6 -9 19 -24q6 -5 47 -31.5t44 -26.5q10 0 37 33q-6 20 -6 35q0 23 19 40q19 13 37 27q3 16 50 143zM1469 210q0 14 -23 62q-14 30 -51 30q-5 0 -13.5 -2
t-12.5 -2q0 -11 5 -20q-5 -9 -22 -12q-22 -4 -27 -7q-15 -23 -15 -32q0 -17 5 -63q40 -52 56 -52q30 0 64 34t34 64zM1330 570q0 92 -29 187h-27q-15 -12 -20 -32q-7 -29 -10 -35q-16 -19 -43 -60q-17 -47 -56 -139q3 29 -16 76l-15 -6q-23 38 -47 60h-27v-51q-61 7 -66 7
q-38 0 -71 -26q-26 -23 -53 -46q-23 -8 -66 -31q-39 -28 -39 -65q0 -10 7 -28q30 15 39 15q4 0 12.5 -3t12.5 -3q21 0 81.5 57t75.5 57q41 0 32 -57q15 11 30 21q8 9 8 35q0 32 10 48q11 -29 38 -75q1 -1 15 -10q9 -5 9 -13q0 -14 -27 -41q-22 22 -33 22q-14 0 -26 -25
q-13 -28 -27 -32q-1 -5 -1 -15q0 -33 33 -40l57 -14q32 52 112 141q43 28 126 88q1 13 1 33zM1226 351q-5 3 -14 10h-11q1 -7 6 -21h11q3 3 8 11zM504 1083v37q0 5 -16.5 12.5t-22.5 7.5q-28 0 -65 -29q-33 -26 -50 -54v-27q4 1 75 33q45 20 79 20zM1175 315q-2 7 -4 21
q-7 -6 -18 -21h22zM824 673v90q-7 2 -27 13q-38 -59 -90 -113h106zM742 810q-52 42 -71 42q-1 0 -5 -1q-62 -57 -62 -97q0 -14 3 -49q3 -31 2 -49zM583 821v18q-21 -13 -63 -40q21 7 63 22zM1279 97q-29 52 -22 106q-36 -6 -38 -6q-28 0 -31.5 25t-6.5 48h-64q4 0 -97 -68
q5 -12 17 -36q30 15 57 15q44 0 69 -26q13 -14 38 -65q31 8 78 7zM1052 275q-21 3 -41.5 26t-23.5 45q-27 -54 -27 -62v-45h33q6 0 59 36zM992 147q0 34 -40 34q-18 0 -54 -12.5t-54 -12.5q-4 0 -8 2q1 7 1 10q0 35 -45 35q-6 0 -16.5 -3t-16.5 -3q-3 0 -56 9l10 38
q-22 12 -46 12q-8 0 -23 -1.5t-23 -1.5q-31 0 -63 16q16 14 16 18q0 21 -23.5 44.5t-44.5 23.5q-3 0 -28 -9q-24 32 -24 33q0 11 6 33.5t6 33.5q0 16 -8 37q-13 10 -78 29l-6 1q1 7 1 10q0 18 -13 37t-13 54.5t-46 35.5q-72 0 -72 -45v-11q1 -8 1 -12q0 -12 -19 -12
q-11 0 -22 9q-1 17 -1 22q0 96 102 96q20 0 42 -13q30 -16 39 -19q32 36 98 104q-84 -34 -156 -34q-59 0 -84 50q-2 5 -13 16q-5 5 -5 23q0 116 94 178q-1 26 2 60q44 113 148 113q26 0 53 -10q70 114 151 131q15 3 27 11h-27q-30 0 -114 -17q-3 -10 -12 -27
q-10 -11 -68 -36q-94 -41 -168 -116q-81 -83 -104 -175q-28 -114 -28 -168q0 -11 1 -33t1 -33v-93q5 -49 29 -88q26 -27 74 -83q25 -45 87 -123q14 -5 42 -18q16 -13 47 -40q22 -15 67 -45q6 -9 19 -27q54 -2 88 -17q58 -25 76 -30q51 -14 113 -14q3 0 5.5 2t5.5 2
q5 0 11.5 -7.5t10.5 -8.5q47 -5 137 -16q11 53 11 51zM919 597q-22 16 -62 53l-29 -29h-122q-10 0 -46.5 -14.5t-46.5 -21.5q-56 -38 -56 -114q0 -49 12 -68q35 -54 79 -54q9 0 68 17q-7 10 -7 37q0 95 101 132q22 4 61 18q10 6 48 44zM1150 90q-35 44 -52 44q-49 0 -75 -40
zM583 627q0 6 -8 20.5t-8 19.5v115h-11q-40 -29 -114 -93q-48 -49 -48 -68q0 -4 19 -60h41q28 0 75 21q54 23 54 45zM966 429v30h-14q-10 0 -42.5 -20t-40.5 -30q-3 -3 -26 -56q-17 -40 -36 -40q-15 0 -38.5 8.5t-30.5 8.5q-8 0 -21.5 -6.5t-21.5 -6.5h-86l3 -21q-15 1 47 1
q69 0 99 -62h86q23 -32 30 -32q18 0 43 17q1 22 6 67q3 13 24 76q19 58 19 66zM529 390v12q-12 29 -12 49q0 52 9 84q-17 -5 -50 -13q28 -34 28 -51q0 -45 -4 -77l5 -4h24zM688 972q0 -22 -11 -44q-11 2 -14 18q-3 12 -5 24q-4 9 -11 27h24q17 -16 17 -25z" />
  </g>

</svg>
