<?xml version="1.0" standalone="no"?>
<!DOCTYPE svg PUBLIC "-//W3C//DTD SVG 1.1//EN" "http://www.w3.org/Graphics/SVG/1.1/DTD/svg11.dtd" >
<svg viewBox="0 -442 2048 2048">
  <g transform="matrix(1 0 0 -1 0 1606)">
   <path fill="currentColor"
d="M2010 161q0 -308 -348 -457q-257 -110 -616 -110q-358 0 -616 110q-348 148 -348 455q0 120 62 197q53 66 173 120q-50 139 -50 281q0 246 520 329q-17 61 -87 144q-60 71 -60 118q0 73 50 133q49 57 121 77q-42 -53 -54 -88.5t-12 -101.5q0 -55 71 -126q75 -74 82 -141
q80 8 148 8q1 0 34 -1q-16 45 -84 141q-53 75 -53 134q0 79 45.5 139.5t121.5 83.5q-66 -91 -66 -188q0 -84 74 -168q78 -87 83 -150q101 -11 198 -32q-13 70 -84 153q-64 74 -64 131q0 71 47.5 130t116.5 76q-63 -85 -63 -166q0 -80 77 -154t77 -158q0 -21 -3 -39
q322 -98 322 -286q0 -84 -24 -188q-3 -14 -12 -47q-14 -48 -14 -42q1 -3 3 -4q27 -10 97 -46q135 -85 135 -267zM1591 687q0 44 -165 81l-233 -234h11q43 0 194 32q193 41 193 121zM1747 730q0 165 -265 247q-36 -73 -114 -112q33 65 36 133q-96 22 -208 32
q-24 -108 -111 -172q337 -9 560 -125q25 25 41 94q24 -19 24 -59q0 -166 -249 -234q-154 -42 -385 -42q-452 0 -637 152q-21 17 -38 47q193 171 642 168h21q33 71 33 144q0 12 -2 33q-29 1 -49 1q-74 0 -152 -7q-23 -110 -130 -165q34 92 34 140v13q-162 -24 -279 -77
q-175 -80 -175 -200q0 -269 138 -536q10 -20 30 -50q25 -25 90 -71q190 -133 444 -133q146 0 255 37q103 36 226 125q20 13 53 42q36 42 99 201q68 171 68 374zM1929 158q0 172 -178 244q-27 -48 -69 -146q-9 -32 -36 -94q-58 -100 -188 -181q-124 -76 -245 -95
q-104 -16 -172 -16q-209 0 -402 65q-263 88 -263 251q0 48 31 79q-22 46 -66 137q-83 -24 -130.5 -90.5t-47.5 -153.5q0 -166 148 -283q249 -196 735 -196q214 0 400 45q232 56 357.5 170.5t125.5 263.5z" />
  </g>

</svg>
