<?xml version="1.0" standalone="no"?>
<!DOCTYPE svg PUBLIC "-//W3C//DTD SVG 1.1//EN" "http://www.w3.org/Graphics/SVG/1.1/DTD/svg11.dtd" >
<svg viewBox="0 -442 2048 2048">
  <g transform="matrix(1 0 0 -1 0 1606)">
   <path fill="currentColor"
d="M1240 1150q0 -8 -4 -23q-4 -19 -5 -24q-32 -237 -164 -367q-31 -31 -192 -103q-29 -9 -74 -38q-7 -9 -9 -68q-2 -67 -7 -202q-15 -283 -15 -291q0 -31 9.5 -46t39.5 -28q29 -6 84 -19q209 -51 209 -159q0 -95 -185 -136q-116 -26 -266 -26t-266 26q-185 42 -185 136
q0 75 77 115q40 21 151 47q90 20 104 43q10 16 10 47q0 -20 -12 219l-6 141q0 18 -3 68q-3 43 -3 68q0 6 1.5 17t1.5 17q0 19 -12 32t-123 61.5t-141 78.5q-139 143 -162 348q-1 8 -6 33q-5 21 -5 33q0 7 2.5 21t2.5 19q17 201 111 341h926q39 -44 83 -185q16 -53 27 -156
q0 -5 3 -19t3 -21zM1153 1182q0 154 -63 283h-858q-63 -133 -63 -283q0 -135 45 -217q161 21 231 21h432q102 0 231 -21q45 77 45 217zM1078 929q-28 8 -85 19q-72 7 -107 7h-450q-109 0 -192 -26q37 -8 110 -20q117 -13 153 -13h308q93 0 263 33zM943 749q-28 -2 -82 -10
q-125 -30 -172 -30q-104 0 -144 7q-9 2 -83 21q-52 13 -84 12q53 -20 107 -41q60 -27 91 -66q12 -15 15 -68q7 -127 16 -349q7 -182 7 -197q0 -37 -10 -66q-2 -7 -19 -36t-17 -31v-41q9 -5 27 -10.5t66 -5.5q56 0 93 16v42q0 -3 -23 44t-23 88q0 14 7 197q8 228 15 349
q3 48 16 68q23 36 90 65q53 21 107 42zM1034 -212q0 32 -102 71q-91 35 -133 35q-9 0 -23 -7q3 -9 28 -20t25 -30q0 -49 -168 -49t-168 49q0 6 1 8q11 14 44 29l8 13q-13 7 -23 7q-42 0 -133 -35q-102 -39 -102 -71q0 -18 32 -34q24 -11 47 -22l11 11q-22 11 -35 19v9l2 2
q54 -22 139 -30q72 -6 143 -13v-14q-15 -15 -45 -15q-48 0 -118 16q-79 18 -61 18q-6 0 -6 -7v-4q105 -35 264 -35q115 0 192 13q44 8 103 30q78 30 78 56zM639 78q-12 5 -12 20l-10 451q-1 49 -9 85h21l10 -19v-537zM826 -230q-42 -22 -165 -22q-122 0 -165 22l7 12
q44 -12 107 -12h91q68 0 118 12z" />
  </g>

</svg>
