<?xml version="1.0" standalone="no"?>
<!DOCTYPE svg PUBLIC "-//W3C//DTD SVG 1.1//EN" "http://www.w3.org/Graphics/SVG/1.1/DTD/svg11.dtd" >
<svg viewBox="0 -442 2048 2048">
  <g transform="matrix(1 0 0 -1 0 1606)">
   <path fill="currentColor"
d="M1524 1070q0 -54 -29 -54q-70 0 -157 45l-142 84q-20 12 -58 29q-4 -4 -11 -23q3 -5 30 -9q50 -30 99 -74q1 -5 1 -13q0 -48 -32.5 -109t-32.5 -90q0 -18 21 -117l48 -190q27 -109 27 -195q0 -41 -4 -60q-13 -59 -56 -127q-45 -71 -92 -102q-37 -25 -97 -47
q-21 -3 -83 -34q-1 -8 -1 -16q0 -46 56 -53q45 -3 90 -5q33 -6 64 -33.5t38 -59.5q2 -9 2 -33q0 -46 -15 -66.5t-57 -40.5q-14 -1 -41 -5q-22 -9 -65 -26q-15 -3 -45 -10q-21 -4 -49 -4q-42 0 -125 -2t-125 -2q-167 0 -225 73q-35 44 -35 67q0 61 26 84q63 55 155 83
q32 3 64 5q40 5 40 35q0 1 -1 15q-89 40 -178 81q-110 58 -135 127q-7 10 -17 31q-13 41 -13 126q0 189 96 373q-22 6 -51 8q-78 7 -147 56q-15 7 -43 23q-26 29 -79 87q-8 6 -20 19q-4 17 -11 46q-9 16 -20 50q-7 45 -7 97q0 9 5 24q5 19 6 25q22 144 113 217q7 3 19 9
q35 26 115 66q34 11 108 11q111 0 154 -27q98 -62 132 -145q8 -10 20 -31q4 -16 14 -46q20 -3 54 -13q29 -17 22 -17q169 0 218 -14q-11 -23 -32 -70h-9q-4 0 -5.5 4.5t-5.5 4.5h-153q0 -5 3 -15.5t3 -16.5v-51h-10q-3 0 -29 19q-5 80 -89 80q-17 0 -25 -2q-15 -4 -30 -35.5
t-15 -50.5q0 -40 33 -40h73l6 5q-15 7 -30 13q-15 10 -14 27v5q11 9 27 9q13 0 50 -20q52 -28 143 -80q19 -10 55 -31q11 -8 10 -36q-4 0 -11.5 -1.5t-11.5 -1.5q-21 0 -146 74h-163q13 0 -23 11q-45 -1 -143 22q-5 14 -22 17v12q23 0 31 5q-6 35 -12 54q-54 -44 -54 -56
q0 -2 30 -69q1 -2 11 -37q25 -86 25 -167q0 -32 -11 -61q-5 -5 -14 -18q-30 -59 -51 -164q-6 -14 -14 -44v-79q0 -101 10 -131q20 -61 85 -113l40 -18q70 -24 182 -83q18 -15 18 -53q0 -56 -14.5 -74t-138.5 -60q-111 -38 -111 -71q0 -6 2 -17t2 -16q8 -9 32 -24
q80 -28 221 -28q130 0 234 13q14 2 71 35q17 3 34 5q21 6 21 43q0 26 -13 36q-6 5 -39 19q-16 7 -89 15q-52 6 -83 42q-21 24 -21 43q0 74 50 110q36 11 94 33q7 5 21 14q164 84 164 257q0 75 -51 253.5t-51 228.5q0 76 38 145q20 36 20 34v3q1 0 1 3l-1 2q-12 6 -78 43
q-15 -25 -46 -75q9 0 28.5 8t23.5 8h38v-37q-82 -19 -124 -19q-16 0 -62 27q24 0 55 13q5 8 50 90l106 194q-93 70 -113 70q-7 0 -61 -8q3 -2 124 -86q-11 -29 -29 -55q-75 39 -145 98q-95 79 -95 133q0 34 17 44q27 16 52 14l353 -28q16 -1 38 36.5t47 37.5q13 0 68 -56
q2 -5 2 -14q0 -11 -14 -33t-14 -32q0 -5 61 -146q69 -158 71 -163q4 -10 4 -29zM1165 352q0 -20 -2 -30q-10 -57 -61.5 -117.5t-105.5 -79.5q-34 -20 -118 -45q-62 -7 -103 -7q-12 0 -108 37.5t-139 88.5q-39 46 -70 148q-7 23 -7 45q0 9 5 24q5 20 6 25q8 49 48 131
q42 86 51 129q5 23 5 92q0 11 -6.5 34.5t-6.5 34.5q0 21 14 29q50 30 98 30q22 0 32 3q12 7 23 14q17 10 40 10q52 0 99 -8q52 -9 51 -94h-30q-9 21 -17 42q-13 26 -32 26h-99q-4 -16 -18 -47q-13 0 -15 17t-4 17q-66 0 -95 -29q28 -19 28 -110q0 -26 -36 -185
q-3 -12 -26 -81q-16 -49 -16 -83q0 -135 73 -135q52 0 74 92q9 20 20 61q6 47 4 129q-3 96 -1 131q5 90 32 153q7 1 18 1q25 0 74 -3t74 -3q118 0 171 53q3 -7 3 -23q0 -7 -1 -20.5t-1 -20.5q0 -4 8 -55q2 -14 42 -207q25 -119 25 -214zM1068 -229q0 -10 -16 -23t-27 -13
q-6 0 -18.5 2t-18.5 2q42 3 72 64q8 -16 8 -32zM875 34q-29 -27 -54 -66l-8 -52q-9 -45 -39 -45q-19 0 -19 22q0 2 20 40.5t20 55.5q0 8 -7.5 25t-7.5 25q0 11 7 18q16 -7 39 -7q-2 0 45 3l4 4v-23zM801 -264q-79 -20 -107 -20q-37 0 -78 19q-50 22 -50 54q0 12 31 29
q28 16 42 16h29v-7q0 -9 1 -25q26 -24 62 -38.5t70 -27.5zM1419 1085q-37 46 -216 179q-8 -13 -23 -39q65 -55 150 -100q23 -10 65 -32q0 -4 10 -8h14zM1481 1069v20l-140 323q10 20 22 54q-10 21 -25 21q-16 0 -34 -28t-26 -27l-363 37q-5 0 -45 -10v-11q93 1 227 -77
q138 -81 273 -176q32 -23 55 -63q27 -47 44 -63h12zM668 1151q-22 11 -40 11q-26 0 -46 -18.5t-20 -44.5q0 -80 68 -86q-1 8 -1 16q0 85 39 122zM687 1201q0 17 -31 69q-4 11 -14 31q-66 87 -211 87q-16 0 -75 -23q-15 -9 -47 -26q-9 -2 -25 -8q-43 -29 -82 -99.5
t-40 -122.5v-22q-1 -89 36 -136q78 -98 155 -116q11 -6 34 -14q21 -1 64 -6v17q-8 5 -22 15v20q-1 45 5 79q-2 5 -7 12q-6 -29 -11 -58q-10 -41 -32 -41h-18.5h-18.5q-9 0 -28.5 18t-19.5 26q0 14 4 21q11 18 53 55t62 47q4 30 36.5 56.5t63.5 27.5q20 45 20 42q0 9 -21 9
q-9 -24 -30 -24q-10 0 -14 2v164q0 20 41 20q77 0 77 -45q0 -19 -13.5 -36.5t-26.5 -33.5q-23 12 -35 12v-14q56 -47 62 -47q-4 0 12 3v11l-24 15q11 16 23.5 33.5t27.5 17.5q21 0 29.5 -21t36.5 -25q4 2 4 8zM454 1131q-19 -19 -25 -19q-10 0 -55.5 52.5t-51.5 66.5
q-4 10 -4 30q0 26 7 33q31 32 76 32q32 0 39 -45q4 -50 14 -150zM407 1073q-13 -7 -18 -7l-152 15q-6 19 -6 36q0 34 16 63q18 34 49 34q15 0 55 -47q37 -42 46 -62q6 -13 10 -32zM392 1023q-109 -75 -107 -75q-28 0 -33.5 3.5t-19.5 31t-14 33.5q0 9 17 34h157v-27z" />
  </g>

</svg>
