<?xml version="1.0" standalone="no"?>
<!DOCTYPE svg PUBLIC "-//W3C//DTD SVG 1.1//EN" "http://www.w3.org/Graphics/SVG/1.1/DTD/svg11.dtd" >
<svg viewBox="0 -442 2080 2048">
  <g transform="matrix(1 0 0 -1 0 1606)">
   <path fill="currentColor"
d="M2080 662q0 13 -19 -164l-53 -500q-7 -79 -27 -236q0 -2 -26 -51h-1786q-22 0 -87 43v868q0 -10 27 83q13 6 88 34q523 196 824 314q-13 35 -13 36q0 4 1.5 10.5t1.5 9.5q4 0 13.5 2t14.5 2q17 0 33 -19q19 -22 31 -27q1 29 6 87q19 137 121 202q34 22 186 51
q56 11 127 46q23 17 72 43q25 8 80 8q43 0 90 -47q43 -42 59 -87q5 -14 5 -56q0 -28 -45 -106q-3 -10 -9 -29q-2 -7 -18 -33.5t-16 -30.5q0 -6 140 -184q147 -189 161 -210q18 -29 18 -59zM1761 1340q0 33 -30 61t-63 28q-2 0 -68 -37q-69 -39 -83 -44q-40 -14 -176 -43
q-24 -4 -71 -17q-17 -6 -45.5 -37t-30.5 -48q-7 -53 -7 -61q0 -74 18 -104q6 41 23 97q23 76 42 76q12 0 14 -5q2 -20 4 -57q7 -80 14 -132q59 -9 157 -39q15 -8 15 -26q0 -17 -33 -21q-23 -1 -47 -2q-54 -12 -93 -25v-25q56 -56 166 -56q38 0 55 7q61 25 91 73q8 14 47 107
q19 32 47 98q1 35 12 101q4 14 27 50q15 24 15 81zM1976 690l-237 342q-19 -53 -64 -155q-9 -9 -27 -29q-12 -26 -43 -60q-10 -4 -45 -6q-29 -34 -117 -34q-63 0 -148 39l-16 -107q15 10 18 10h679zM1363 960q-79 26 -87 34q-16 17 -16 93q0 22 -3 36q-10 -34 -21 -68.5
t-35 -64.5q-6 0 -18.5 -2t-18.5 -2q-20 0 -69 48h-22q21 -42 37 -60q16 -11 44 -38q-18 -16 -55 -47q59 12 55 12q7 0 21.5 -6.5t21.5 -6.5q9 0 20 7q8 -20 14 -84q6 -58 19 -76h14q7 0 7 46q0 16 1.5 48t1.5 48l-8 42q13 29 43 33q52 7 54 8zM1591 325q-3 7 -10 20
q-53 19 -178 19q-19 0 -117 -35q19 -11 59 -27q64 -14 129 -14q37 0 87 14q9 2 30 23zM1242 680v11q0 9 -16 82q-18 83 -20 92q-8 0 -23.5 2t-23.5 2q-26 0 -78 -24.5t-64 -24.5q-16 0 -16 14q0 15 47 58q54 48 61 60q-8 10 -26 27l-887 -299h1046zM1985 646h-1808l-16 -28
q-1 -4 -1 -46h1514q123 0 164 -61q17 -25 17 -45q0 -46 -14 -64q-52 -67 -100 -89q21 -5 60 -19q10 -4 25.5 -33.5t15.5 -40.5q0 -25 -8 -50q-7 -20 -43 -51q-32 -27 -56 -38q71 -44 71 -68q0 -44 -24 -87q-26 -47 -139 -119h241zM1813 451q0 72 -130 72h-1519v-717h1360
q-6 0 36 8q74 14 137 67q70 59 70 129q0 31 -48 47q-37 11 -73 22v11q88 30 99 35q61 30 61 74q0 61 -25 72q-2 1 -58 12.5t-60 11.5q-3 0 -63 -25q-63 -27 -79 -30q-63 -14 -176 -14q-20 0 -100 53q-8 5 -31 31q-2 6 -2 24q1 2 1 4q106 77 235 77q104 0 141 -23
q109 -68 102 -68q16 0 62 38q43 35 55 54q5 8 5 35zM1180 306q0 -33 -112 -73q-100 -36 -142 -36q-44 0 -175 46q-22 14 -69 36q-4 8 -3 22v10q44 38 133 65q83 26 147 26q34 0 100.5 -15.5t90.5 -31.5q4 -3 17 -24t13 -25zM649 300q0 8 -5 -27q-52 -42 -81 -49
q-95 -24 -157 -24q-65 0 -128 21q-23 14 -72 39v20q0 4 2 10.5t2 9.5q75 56 109 72q56 27 128 27q81 0 139 -21q23 -8 55 -51q8 -11 8 -27zM1109 313q-104 37 -149 37q-108 0 -206 -44q-8 -4 -10 -11q88 -26 163 -26q84 0 125 10q25 12 77 34zM603 282q4 32 -74 51
q-57 14 -103 14q-31 0 -76 -17q-36 -14 -73 -28l14 -16q6 -1 86 -21q52 -13 86 -13q91 0 140 30z" />
  </g>

</svg>
