<?xml version="1.0" standalone="no"?>
<!DOCTYPE svg PUBLIC "-//W3C//DTD SVG 1.1//EN" "http://www.w3.org/Graphics/SVG/1.1/DTD/svg11.dtd" >
<svg viewBox="0 -442 2048 2048">
  <g transform="matrix(1 0 0 -1 0 1606)">
   <path fill="currentColor"
d="M2028 256q0 -160 -153 -362q-31 -41 -107 -92q-21 -9 -59 -33q-31 -27 -112 -54q-30 -18 -94 -46q-158 -48 -232 -48h-432q-20 0 -115 20q-90 19 -117 28q-29 16 -88 43q-40 11 -98 37q-5 7 -19 20q-16 8 -47 25q-110 70 -154 154q-4 7 -22 34q-97 143 -97 274
q0 186 120 322v97q0 -6 8 41q2 28 15 83q28 70 87 125q23 21 121 93v144q0 6 28 26v18q-41 16 -41 47q0 33 71 142q6 -20 31 -56q18 -27 18 -75q0 9 -5 -36l-33 -21q10 -6 28 -18v-123q112 41 153 54q86 27 158 39q5 1 23 6q14 5 22 5h112v166q0 6 26 20v21q-39 14 -39 46
q0 63 69 139q4 -13 31 -66q21 -40 21 -68q0 -15 -16.5 -31.5t-31.5 -19.5l32 -21v-177l11 -5q1 0 130 -10q69 -5 133 -24q12 -1 37 -5q40 -16 120 -47q2 2 2 75q0 24 28 29v18q-13 7 -25 13q-16 9 -16 25q0 32 24 79q21 37 41 74q18 -33 36 -65q19 -37 19 -72q0 -26 -41 -51
q8 -8 28 -21v-136q1 0 105 -71q63 -42 97 -80q40 -45 66 -105q1 -3 12 -62t11 -62v-97q120 -138 120 -322zM1605 1285q0 39 -31 61q-11 -21 -23 -42q-13 -26 -13 -46q0 -16 26 -16q41 0 41 43zM1579 832v352q0 6 -8 14q-6 -19 -20 -33v-333h28zM1077 1449q0 32 -24 65
q-39 -73 -39 -88q0 11 4 -16h39q20 24 20 39zM1636 831q0 4 -17 29q0 -36 -3 -45q-6 -18 -44 -18q-15 0 -43 15q-7 20 -7 35q-21 -9 -21 -22q0 5 60 -55q-7 -3 -16 -2q4 -22 28 -22q30 0 31 25h-5q-10 0 -16 3v11q53 32 53 46zM1055 996v349q0 5 -3.5 10t-3.5 7
q-6 -14 -24 -35v-328l27 -3h4zM1109 994q0 -11 -15 33q0 -15 -5 -45q-3 -6 -20 -15t-25 -9q-16 0 -42 21q-1 25 -5 36q-21 -14 -21 -24q0 -3 4 -13q38 -21 56 -40q-9 -4 -15 -3q1 -7 6 -21q3 0 10 -2t10 -2q14 0 30 25h-5q-11 0 -17 3v11q54 33 54 45zM518 1279q0 36 -27 61
q-43 -76 -43 -85q0 -19 27 -19q43 0 43 43zM1854 670q0 10 -3 26q-4 20 -5 27q-5 68 -85 153q-72 78 -143 110v-100q19 0 22 -2q22 -13 22 -48q0 -43 -20 -75q-23 -37 -64 -37q-38 0 -52 21t-27 42q-6 3 -14 9q-7 11 -7 34q0 40 44 53v147q-3 2 -121 42q-12 8 -37 21
q-88 29 -159 29h-115v-72q5 1 9 1q35 0 35 -59q0 -40 -22 -70q-25 -34 -63 -34q-31 0 -49 19q-5 6 -29 46q-20 10 -20 54q0 13 18 26q15 8 29 17v72h-64q-14 0 -38 -6q-30 -8 -39 -9q-19 0 -57 -5q-93 -26 -138 -42q-77 -26 -131 -59v-118q8 -1 23 -5q18 -7 18 -47
q0 -110 -84 -110q-33 0 -48 10.5t-33.5 43t-18.5 50.5q0 31 44 51v72q-50 -30 -100 -88q-55 -65 -62 -115q-14 -103 -14 -87q0 -89 13 -126q9 -25 43 -53q28 -23 55 -45q18 -19 57 -53q71 -54 243 -113q23 -10 70 -23q141 -23 183 -23h270q84 0 183 23q80 19 168 61
q51 21 145 75q16 12 105 96q16 15 32 29q19 20 21 36q10 93 10 128zM492 826v352q0 4 -3.5 8.5t-3.5 5.5q-7 -12 -24 -33v-330l27 -3h4zM546 825q0 10 -15 32q2 -10 2 -18q0 -49 -52 -49q-48 0 -46 51h-11q-14 -28 -14 -21q0 -9 7 -13q20 -11 57 -40q-6 -6 -16 -6l3 -21h36
q19 0 20 25q-15 0 -21 5v9q50 29 50 46zM1834 474q-35 -73 -129 -141q-88 -65 -172 -87q-48 -21 -145 -55q-92 -23 -155 -23h-356q-65 0 -155 23q-48 18 -145 55q-40 13 -117 49q-110 68 -163 141q-7 10 -17 27l-4 7h-2q0 -10 8 -87q8 -73 31 -217q31 -137 260 -233
q47 -22 145 -55q156 -32 241 -32h192q94 0 241 32q117 26 239 102q145 91 165 186q13 103 38 308zM1971 279q0 84 -15 124q-4 11 -58 109q-2 -64 -18 -159q-26 -154 -27 -158q-7 -54 -28 -132q-25 -39 -65 -68q-177 -127 -340 -166q-24 -9 -70 -21q-92 -9 -148 -19
q-44 -8 -199 -8q-38 0 -112 13t-112 13q-57 0 -183 49q-70 28 -169 89q-115 72 -142 118q-22 39 -33 121q-6 64 -13 128q-26 175 -26 200q-53 -91 -62 -118q-12 -37 -12 -127q0 -72 78 -225q38 -75 59 -95q88 -84 214 -151q13 -7 136 -40q33 -16 101 -42q13 -4 39 -4h3
q18 0 28.5 -1.5t50.5 -11.5q34 -9 48 -9h318q13 0 49.5 10t49.5 11q24 0 69 5q33 16 102 42q50 10 142 43q136 76 208 148q46 46 91.5 151t45.5 169v12zM1371 460q0 -38 -22 -70q-24 -36 -60 -36q-29 0 -44 11q-11 18 -33 50q-6 5 -17 16q-7 12 -7 32q0 47 41 52v283
q0 6 32 29v15q-39 23 -39 53q0 47 69 136q0 -1 28 -54q18 -35 18 -55q0 -4 3 -11.5t3 -11.5q0 -8 -12 -38q-21 -9 -30 -15q5 -5 26 -19v-306q17 -4 33 -8q11 -4 11 -53zM872 479q0 -43 -21 -75q-25 -37 -65 -37q-30 0 -43 11q-4 3 -47 62q-8 11 -8 41q0 15 14 33q11 3 31 13
v287q0 10 9.5 15.5t18.5 10.5v15q-41 0 -41 51q0 25 27 70q20 33 41 67q17 -32 34 -63q18 -36 18 -68q0 -11 -8 -36l-33 -21l28 -18v-303q7 -5 28 -7q17 -10 17 -48zM1317 923q0 43 -30 57q-36 -66 -36 -82q0 -12 4 -19h39q23 21 23 44zM1295 465v349l-11 21
q-12 -26 -23 -36v-334h34zM815 931q0 34 -27 62q-43 -79 -43 -87q0 -18 29 -18q41 0 41 43zM1346 465q0 13 -18 31q0 -41 -3 -47q-7 -16 -42 -16q-8 0 -44 15q-2 12 -5 36q-14 -6 -24 -24q6 -12 31.5 -26.5t31.5 -26.5q-6 -6 -16 -6q23 -21 26 -21q12 0 34 24q-6 2 -19 6v8
q48 36 48 47zM792 475v352q0 6 -11 17q-7 -19 -20 -32v-334l27 -3h4zM843 474q0 2 -11 35q-4 -44 -6 -48q-8 -18 -41 -18q-10 0 -46 15q-1 2 -6 35q-22 -12 -22 -25q0 -7 26 -23q31 -19 37 -26q-6 -6 -19 -5q7 -22 27 -22q30 0 32 25q-10 0 -18 6v8q2 2 30 17q17 10 17 26z
" />
  </g>

</svg>
