<?xml version="1.0" standalone="no"?>
<!DOCTYPE svg PUBLIC "-//W3C//DTD SVG 1.1//EN" "http://www.w3.org/Graphics/SVG/1.1/DTD/svg11.dtd" >
<svg viewBox="0 -442 2054 2048">
  <g transform="matrix(1 0 0 -1 0 1606)">
   <path fill="currentColor"
d="M2054 371q0 -51 -2 -63q-5 -9 -12.5 -28t-7.5 -71q0 -75 -28 -147q-6 -7 -17 -23q-7 -22 -24 -64q-22 -46 -58 -93q-17 -15 -50 -46q-125 -119 -276 -156q-32 -4 -96 -11q-20 -4 -58 -9l-279 -6h-297q-91 0 -228 49q-7 4 -22 11q-26 2 -77 11q-56 17 -141 63
q-90 48 -128 85q-17 17 -34 49q-24 45 -30 52.5t-19 22.5q-6 19 -21 55q-11 14 -27 45q-34 134 -34 221q0 7 -3 21t-3 21q0 4 5 13t5 13v172q0 14 35 140q32 115 43 149q35 105 80 204q9 -2 31 25q27 34 30 36q28 25 86 73q1 1 70 28q105 41 188 41q81 0 211 -35l98 -26h25
q6 15 11 34q51 186 124 272q10 12 28 12q30 0 36 -2q22 -6 56.5 -36t34.5 -49q0 -13 -8 -21t-9.5 -15t-6.5 -24q-41 -77 -41 -76q0 -55 4 -86q10 -1 22 8.5t15 10.5q19 3 56 10q10 2 94 25q40 2 119 12q74 15 91 15q50 0 115 -7q0 -21 24 -24q20 -2 40 -3q10 -29 21 -32
q30 -8 32 -9q17 -10 32 -40q18 -38 25 -46q66 -79 88 -179l30 -196q1 -7 10 -28.5t9 -25.5v-199q0 -11 5 -30q5 -22 6 -31q2 -24 2 -62zM1238 1417q0 15 -35 35t-51 19h-3q-20 -26 -51 -80q-20 -53 -50 -164q-8 -45 -8 -46q7 2 21 2t42 -2q8 46 27 138q3 15 17 34
q16 23 28 23q9 0 11 -3v-11q-35 -70 -35 -81v-90l16 -7q-1 8 -1 18q0 76 18 120q3 8 28.5 51t25.5 44zM1997 475q0 17 -2 29q-5 5 -5 128q0 6 -4 18t-5 17q-2 51 -12 154q-30 173 -58 227q-19 36 -63 84t-77 66q-54 30 -119 34q-8 1 -27 5t-29 4q-57 0 -197 -39
q-13 -9 -42 -24q-48 -17 -111 -17q-12 0 -26 7l-10 -13q-63 -8 -108 -7l-211 7q-32 10 -80 24q-115 24 -178 24q-139 0 -204 -56q-23 -20 -75 -82q-31 -32 -85 -100q-7 -10 -47 -135q-21 -51 -49 -153q-28 -178 -28 -388q0 -33 22 -120q22 -92 38 -114q29 -53 93 -141h5
q10 1 33 -19q30 -25 32 -26q110 -67 224 -93q68 -16 217 -35q100 -13 111 -13h246q397 0 580 103q12 13 38 36q25 15 60 44q2 6 8 19q24 30 63 93q16 60 60 173q6 11 14 131q8 109 8 148zM1437 679q0 -10 -1 -20q-23 -9 -136 -13q-19 -1 -68 -6q-43 -4 -68 -4q-38 0 -38 32
q0 15 54 155.5t68 161.5h47q7 -7 18 -23q11 -21 33 -64l58 -106q33 -66 33 -113zM969 637h-336v37l180 301h26q19 0 38 -55q92 -261 92 -250v-33zM1782 724q0 -26 -34 -157q-25 -109 -93 -320q-11 -27 -101 -138q-15 -24 -48 -57q-16 -2 -42 -6q-22 -5 -75 -31
q-46 -22 -86 -26q-4 0 -14 -2.5t-15 -2.5h-134q-64 -6 -190 -19q-10 78 -29 160h-109v-131q-7 -7 -14 -7q-13 0 -88.5 27t-82.5 35q-90 93 -152 269q-17 28 -46 86q-37 95 -48 239q65 -80 163 -160q109 -89 193 -121q6 -2 137 -14t148 -12q23 0 61 4q49 4 61 5
q13 -98 26 -150q38 5 87 5q17 0 31 -1l3 -4v169q70 12 204 49q60 24 127 93q51 52 149 249q11 -27 11 -31z" />
  </g>

</svg>
