<?xml version="1.0" standalone="no"?>
<!DOCTYPE svg PUBLIC "-//W3C//DTD SVG 1.1//EN" "http://www.w3.org/Graphics/SVG/1.1/DTD/svg11.dtd" >
<svg viewBox="0 -442 2062 2048">
  <g transform="matrix(1 0 0 -1 0 1606)">
   <path fill="currentColor"
d="M2062 122q-51 -14 -180 -14q-11 0 -34 -1.5t-35 -1.5q-43 0 -62 7q-14 5 -55 45q-34 34 -62 32q32 -42 100 -103q15 -8 49 -8t49 -10q19 -12 105 -125q42 -56 48 -63q27 -41 32 -71h-14q-25 0 -69 30q-15 18 -48 46q-9 2 -26 8q-69 36 -147 123q9 53 9 42q0 19 -62 75
q-40 35 -81 71q6 -43 24 -65q28 -29 55 -58q39 -41 43 -61q5 -26 28 -251q1 -5 4.5 -15.5t3.5 -16.5v-37h-24l-133 277q0 129 0 120q-3 67 -27 115q-5 10 -39 44q-2 -4 -2 -10q0 -44 31 -210q32 -170 50 -212q13 -24 25 -49q7 -14 7 -56h-275q-10 0 -20 13q-88 114 -88 396
v355l63 46q23 -29 96 -58q3 6 3 49q0 64 -49 95q-16 3 -47 11l-76 -3q3 -4 32 -40q27 -32 27 -35q0 -7 -51 -48q-8 4 -23 14q-7 5 -22 32q-18 32 -54 74q-54 62 -59 69h-15q-15 0 -48.5 23t-33.5 36q0 9 14.5 33.5t22.5 30.5q33 -14 93 -50q18 -32 72 -81q19 -9 54 -12
q50 -5 57 -6q34 36 43 61q1 22 8 64q11 19 32 57q-85 42 -234 132q-7 19 -28 51q-9 9 -52.5 25t-55.5 16q-48 0 -124 -37q-69 -34 -111 -71v-11q11 -1 31 -8q62 -44 194 -115v-11q0 -14 -40 -62q-48 15 -124 70q-82 59 -122 75h-4l148 -245h89q7 0 21 3.5t21 3.5
q31 0 78 -24q37 -28 110 -83v-11q-9 -8 -35 -8q-64 0 -150 14q-22 4 -103 70q-2 0 -2 -2q0 -17 61 -114q100 10 102 10q25 0 68 -39l60 -58q17 -15 41 -57h-56q-15 0 -92 23.5t-86 31.5q-6 15 -21 41q5 -49 24 -130q22 -19 48 -67q12 -7 24 -16q2 -82 12 -247q5 -37 14 -111
v-11q-50 22 -75 81q-13 31 -43 128q-32 106 -32 126q0 19 9.5 57t9.5 57q0 69 -20 150q-3 10 -17 31q2 -74 -12 -198q-12 -12 -31 -39q-3 -9 -54 -96q-10 -22 -35 -62q-8 -9 -40 -16v43q0 6 3.5 16.5t4.5 15.5q8 61 38 181q13 20 36 59.5t79 116.5q-20 33 -70 102
q-11 -5 -11 -15q0 -5 3 -15t3 -14q1 -9 1 -34q0 -15 -1.5 -45t-1.5 -45q0 -30 -23 -68q-21 -32 -41 -63q-15 -28 -30 -55q-18 -29 -48 -39v30q0 13 9.5 41t9.5 41v91q3 36 24 82q8 10 20 32q0 12 9 36q20 18 57 54q-22 41 -75 114q-28 -112 -76 -339q-18 -106 -47 -309
q-5 -14 -14 -42q-2 -21 -8 -62q-34 8 -76 32l-70 44q-82 46 -131 46q-1 0 -81 -10q-4 8 -4 23q0 33 120 377q74 209 148 417q19 -5 52 -17q4 -4 10 -11q20 -4 108 -36l2 1q-12 57 -75 98q-57 29 -114 59v13q0 8 15 41.5t21 38.5l197 -126q46 9 112 43q79 42 79 75
q0 135 14 167q55 125 125 206q4 4 25 14v-21q0 -33 -25 -159q-25 -132 -38 -147q-24 -12 -66 -40q-10 -20 -29 -50q1 -1 5 -1t35.5 11.5t38.5 12.5q15 1 45 9q28 14 28 33v96q0 14 19 36q23 25 27 35q45 48 89 97q63 68 96 78q-36 -91 -123 -266q-11 -18 -52 -52
q-53 -43 -60 -50q2 -2 37 -2q45 0 85 64q4 12 16.5 35t45.5 61q67 61 113 74q14 4 102 43q78 33 90 32v-2q3 -29 -110 -114q-39 -33 -118 -98q0 -8 -5 -23q-34 -15 -102 -42h-24q-31 0 -37 -22q2 -1 5 -1q19 0 74.5 15t73.5 24q6 3 38 29q20 16 43 16q163 0 238 -11
q15 -5 46 -13q-8 -16 -35 -21q-22 -4 -43 -8q-61 -22 -122 -45q-80 -28 -123 -28q-34 0 -62 18t-42 18q2 0 -62 -11q-50 -5 -141 -30q33 -11 56 -11q8 0 25 3.5t26 3.5q51 0 69 -12q42 -28 93 -88q76 -87 86 -97q25 31 47 67.5t28 44.5q20 27 39 33v-18q0 -24 -39 -142
q-37 -113 -52 -141q-5 -9 -32 -20l-38 -14q-10 -5 -31 -26q30 -15 130 -15q22 0 22 71q0 13 3 21q10 23 103 98q23 26 77 69q14 8 70 23v-14q0 -3 -23 -31q-26 -31 -28 -34q-28 -63 -104 -173q-13 -13 -44 -19q-42 -7 -49 -10q19 -11 114 -11q27 73 74 86q74 5 196 15
q6 1 22 6.5t20 5.5q10 0 31 -4t32 -4q-48 -56 -144 -95q-90 -36 -169 -36q-5 0 -15.5 3.5t-15.5 3.5q-15 0 -35 -5q25 -6 73 -22q5 -2 19 -16.5t23 -14.5q12 0 38 8t38 8q-2 0 46 -25q18 -8 51 -28q38 -28 158 -133q-123 27 -188 47q-23 4 -68 15q-9 3 -80 42q-2 11 -12 34
q-7 11 -61.5 46t-64.5 35h-79l86 -68q5 3 17 3q23 0 61 -8q10 -21 80 -125q54 -78 61 -129q-33 12 -95 44q-91 62 -135 145q-2 15 -11 45q-12 25 -48.5 57t-61.5 37q-13 2 -39 8l-11 -2q10 -17 28 -40q6 -1 19 -5q38 -15 73 -48q12 -23 35 -63l72 -94q51 -69 52 -98
q-52 28 -149 102q-5 -6 -5 -33q0 -10 13 -21q21 -16 21 -17q21 -33 72 -86q15 -10 54 -10q24 0 74.5 13t74.5 13q9 0 60 -22q50 -16 99 -33q70 -25 82 -50zM506 1121q0 -2 -30 -81l-394 197v131q61 -35 278 -155q45 -24 132 -74q14 -9 14 -18zM1580 -255q-14 37 -35 111
q-19 79 -51 238q-3 42 -12 125q-5 41 -5 35v138q0 7 -56.5 31.5t-73.5 27.5q-1 0 -46 2h-8l-15 5q-7 -67 -7 -124q0 -18 18 -257q11 -140 15 -168q16 -101 59 -154q39 -4 217 -10zM715 798l-27 15q-6 6 -19 14q-46 14 -143 52q-55 -148 -162 -445q-13 -38 -65 -212
q-16 -52 -15 -56q8 2 18 2q39 0 198 -78q18 -7 52 -22q5 -4 14 -10q58 369 149 740z" />
  </g>

</svg>
