<?xml version="1.0" standalone="no"?>
<!DOCTYPE svg PUBLIC "-//W3C//DTD SVG 1.1//EN" "http://www.w3.org/Graphics/SVG/1.1/DTD/svg11.dtd" >
<svg viewBox="0 -442 2090 2048">
  <g transform="matrix(1 0 0 -1 0 1606)">
   <path fill="currentColor"
d="M2090 1004q-76 -110 -200 -161q-25 -10 -131 -39q-109 -30 -127 -30h-254q-14 0 -74 14q-66 15 -83 17q-125 15 -282 15q-78 0 -196 -32q-110 -30 -185 -30q-11 0 -15 1q-110 92 -328 276v-639q108 61 261 163q2 1 11 29q14 3 43 11q18 10 55 27q12 1 36 5q30 13 92 31
q26 1 78 5q7 1 23 5t24 4q84 0 136 -14q8 -6 26 -14q53 -4 156 -19q17 -6 53 -17q135 -34 198 -34q110 0 192 14q51 9 143 99q7 4 20 14h17q8 -5 8 -11q0 -4 -7.5 -19t-8.5 -20q0 2 0 -47q0 -33 -34.5 -124t-34.5 -101q0 -33 93 -75t93 -59q0 -14 -89 -77q-46 -33 -133 -59
q-94 -29 -131 -51q-71 -42 -131 -42q-173 0 -229 12q-10 5 -32 14q-38 8 -114 25q-16 7 -49 17q-15 2 -51 2q-137 0 -170 -2q-26 -2 -62 -19.5t-51 -17.5l-40.5 -18.5t-67.5 -18.5q-11 0 -30 28q-25 36 -28 38q-98 92 -259 234v-681h-28l-14 1683h-18v-1683h-46v1690
q0 3 -12 17.5t-14 18.5q-7 16 -7 54q0 7 18 29t25 25q24 11 45 11q12 0 47 -18q18 -35 18 -82q0 -10 -12 -31q-15 -27 -17 -31l2 -239q98 89 302 259q68 52 252 71q4 0 17 3q10 3 16 3h250q-17 0 43 -9q139 -24 277 -48q165 -28 280 -28q123 0 181 17q62 19 165 91
q11 -30 11 -31q0 -5 -7 -23q-7 -21 -8 -26q-24 -113 -58 -183q-12 -14 -34 -42q47 -36 93 -73q59 -44 102 -54zM1969 1383q-28 -22 -90 -57q-1 0 -124 -31q6 -18 6 -28h14q29 0 90 26q57 25 84 46q7 15 20 44zM1943 1302q-114 -63 -175 -59q3 -14 14 -39q10 2 30 8
q92 38 120 61q11 9 11 29zM1914 1230q-41 -26 -130 -52q4 -44 4 -45q37 12 103 46q5 3 23 51zM1868 1142q-30 -10 -78 -37l8 -8h10q13 0 56 21q2 8 4 24zM1904 1090q-2 0 -6 3.5t-8 3.5t-25 -10t-28 -12q-12 -2 -37 -8v-29h15q26 0 79 34q9 6 10 18zM1953 1047
q-30 17 -23 17q-3 0 -28 -16q-28 -17 -33 -19q-15 -6 -62 -14v-39h14q23 0 112 47q11 6 20 24zM1996 1014l-22 14q-53 -44 -167 -85v-38q22 8 67 26q35 17 122 83zM2038 995l-16 4q-44 -36 -136 -94q-3 -1 -82 -21v-22h33q-6 0 27 9q43 12 93 52q40 36 81 72zM1432 1066
q-8 24 -17 33q-12 12 -16 19q20 20 32 25q1 4 1 8q0 37 -40 47q-6 3 -6 10q0 1 14.5 24t14.5 46q0 31 -33 39q-28 6 -57 11v-25q1 -25 -34 -78q36 -38 36 -63t-36 -60q10 -12 27 -47h11q24 9 50 9q8 0 24 -3t25 -3zM1768 903q0 199 -44 386q-38 -4 -48 -4q10 -18 10 -43
q0 -37 -20 -59q36 -36 36 -78q0 -4 -13 -24.5t-13 -24.5q0 -8 8 -27t8 -27q0 -65 -70 -65q-7 0 -11 2q3 4 32 35q10 10 10 46q0 12 -22 37q-4 7 -4 9t4 9q35 25 35 41q0 24 -21 39t-21 23q0 4 15 21.5t15 30.5q0 49 -12 59h-93q14 -69 14 -71q0 -10 -24 -38q11 -15 22 -30.5
t11 -33.5q0 -29 -32 -63q0 -6 4 -15t4 -11v-15q1 -10 1 -15q0 -20 -14.5 -40t-33.5 -20q-24 0 -30 11q42 44 42 51q0 13 -1 22q-22 37 -22 35q0 7 26 24.5t26 37.5q0 17 -19.5 37l-19.5 20q0 7 18 26.5t18 40.5q0 40 -34 52q-5 2 -66 11q3 -10 3 -21q0 -3 -17 -73
q36 -22 36 -65q0 -12 -20 -34q17 -42 17 -46q0 -7 -8.5 -27t-8.5 -30q0 -5 1 -14.5t1 -14.5q0 -44 -46.5 -77.5t-92.5 -33.5q9 0 -86 13q-7 0 -15 7v10q34 25 41 25q11 0 33 -3.5t34 -3.5q34 0 64.5 20.5t30.5 54.5q0 40 -36 40t-89.5 -36t-73.5 -36q-2 0 -4 2v9
q82 72 82 85q0 11 -14 22q-21 18 -21.5 19t-0.5 6q0 13 24.5 28t24.5 31q0 22 -17 35q-18 9 -35 19q0 12 26 36.5t26 52.5q0 36 -61 36h-23q1 -13 1 -24q0 -90 -80 -153q46 -40 46 -95t-5 -68q-49 -123 -145 -123q-82 0 -119 24q-3 4 -10 10q-48 35 -97 71q-52 40 -79 90
q-10 12 -27 39q-28 79 -86 236q-20 -5 -61 -14q52 -89 56 -272q0 -17 4.5 -54t4.5 -56q0 -35 -11 -104q-12 -74 -12 -61q92 25 184 49q107 26 187 26q79 0 149 -11q4 -1 13 -5t13 -4h94q5 0 25 -7t27 -8q86 -11 214 -11q142 0 259 37q9 3 9 50zM1741 627q-41 -33 -116 -74
q-39 -2 -115 -8q4 -10 8 -21t16 -11q33 0 76 14q22 7 66 30q50 27 57 39q2 10 8 31zM1024 1170v88q0 1 -18 33q-8 15 -46 31t-57 16q-22 0 -58 -38t-36 -61q0 -3 1 -9t1 -9q0 25 33.5 50t58.5 25q80 0 80 -70q0 -58 -8 -80q-14 -34 -62 -49h24q27 0 44 14q43 36 43 59z
M1724 552q-77 -51 -194 -72l3 -32h11q5 0 35 11q34 13 40 14q18 1 53 8q12 4 38 21q5 17 14 50zM952 1215q0 14 -13 33q-27 12 -34 12q-30 0 -53 -39q7 3 22 3q39 0 39 -43v-13q0 -26 -19 -26q-6 0 -13 2h6h9q56 -3 56 52v19zM1181 1305q0 27 -15 48q-26 3 -78 12
q-18 7 -56 17q-62 8 -155 8q-81 0 -231 -27q44 -121 122 -284q24 -29 51 -53q117 -102 210 -102q35 0 75.5 43t40.5 77q0 55 -14 76t-67 42q-31 -70 -61.5 -89.5t-103.5 -19.5q-10 0 -16 2q-116 37 -116 151q0 76 49 122t125 46q55 0 95 -52q36 -48 36 -104q0 -12 -2 -23h34
q18 0 49 37q28 34 28 73zM1689 443v11l-146 -39q1 -7 3 -22h24q15 0 67 20.5t52 29.5zM1663 364q-2 7 -4 22h-11q-12 0 -38.5 -12t-45.5 -12q-7 0 -14 1v-26zM1702 325q-14 19 -24 19q14 0 -56 -19q-5 -1 -63 -11q4 -19 3 -35h14q27 0 65 17q30 15 61 29zM1738 304l-8 4
q-35 -18 -108 -48q-20 -4 -60 -15v-31q39 6 90 34l84 48zM1783 281q-7 0 -11 4q-19 -16 -53 -38q-6 -1 -16 -3q-34 -17 -68 -35q-42 -21 -72 -19v-22h17q18 0 108 43q18 13 56 34q7 1 19 5q14 9 20 31zM1829 248l-15 8q-20 -20 -33 -26l-84 -45q-30 -15 -135 -47v-22l7 -10
q68 29 136 59q77 34 124 83zM1285 400v14l-28 20q-18 13 -18 24q0 8 21.5 20t21.5 48q0 5 -1 10q-8 8 -26 21q-13 3 -38 11q0 -50 -8 -76q-1 -4 -8 -15t-7 -14q0 -1 14.5 -21t14.5 -36q0 -5 -10 -25.5t-10 -25.5t5 -19q5 -17 6 -21q17 2 31 2t26 -2v31q-25 17 -25 25
q0 14 39 29zM581 927q0 146 -21 299q-10 27 -30 79q-18 -153 -18 -231q0 -85 24 -217q5 -28 6 -32q6 -18 18 -25q21 74 21 127zM209 1408v4q0 4 -1 7q-29 23 -45 23q-45 0 -45 -50q0 -38 42 -38q49 0 49 43v11zM1093 536q0 21 -31 64q-25 2 -75 9q-8 1 -23.5 8t-30.5 7
q76 -92 76 -167q0 -19 -4 -41q88 44 88 120zM518 813v15q0 -10 -25 85q-10 39 -10 108q0 188 12 261l-260 -226zM1526 107v183l-15 85l-31 170h-51q0 4 0 -33q0 -46 -20 -72q24 -14 24 -69q0 -10 -8 -16q-11 -10 -13 -13q36 -24 36 -59q0 -30 -31 -51.5t-62 -21.5
q-8 0 -12 2v9q22 16 64 49q2 16 2 22q0 37 -43 44q3 9 10 26q33 10 33 32q0 7 -2 11q-41 35 -41 33q0 5 18 32t18 32q0 4 -20 44q-1 0 -81 4q6 -11 6 -25q0 -15 -11 -37.5t-11 -28.5q0 -9 3 -7q2 -4 14 -19q9 -10 9 -23q0 -16 -9 -27l-10 -12q17 -13 17 -39q0 -4 -1.5 -12.5
t-1.5 -12.5v-4q5 -3 15 -18.5t10 -20.5q0 -16 -19.5 -55t-32.5 -44q-7 -1 -19 -5q-13 -12 -36 -27q-31 -8 -104 -8q-11 0 -37 18v19l9 6h122q7 0 37 24.5t33 31.5q5 13 5 36q0 8 -1 15q-15 10 -28 10q-45 0 -62 -8q-10 -5 -54 -38q-39 -29 -48 -29q-2 0 -4 2v15q12 16 39 44
l30 20q20 15 20 27q0 2 -26 40q6 8 38 32q1 3 1 7q0 19 -11 40q-7 1 -16 2q-12 7 -12 16q0 8 9.5 17.5t11.5 12.5q18 31 18 62q0 19 -25 33q-22 11 -43 11h-10q10 -24 10 -51q0 -87 -76 -142q26 -28 31 -41.5t5 -51.5q0 -36 -1 -41q-7 -38 -42 -76t-71 -38q-51 0 -60 2
q-84 22 -123 55q-58 49 -90 122q-25 70 -51 141q-17 41 -49 124q-25 -5 -54 -17q65 -156 65 -377q0 -54 -4 -76q-1 -7 -9 -30q-6 -17 -6 -30q24 9 70 30q74 41 216 41q75 0 119 -8q8 -4 23 -11q30 -4 65 -11q4 -3 7 -11q171 -31 268 -31q65 0 91 8q8 5 26 14q18 5 50 22z
M975 451q0 38 -27 86q-30 54 -64 54q-66 0 -104 -58q29 29 83 29q31 0 55 -34q21 -32 21 -65q0 -72 -91 -99h23q31 0 67.5 28t36.5 59zM907 463q0 14 -20.5 40t-33.5 26q-25 0 -46 -17q-8 -13 -24 -37q17 6 36 6q39 0 39 -33q0 -25 -29 -45h20q6 0 27 12.5t23 17.5
q8 24 8 30zM1050 324q0 30 -54 75q-46 -78 -125 -78q-61 0 -76 10q-68 46 -68 133q0 56 14 79q38 62 80 87q11 7 47 5q-4 0 -14.5 2.5t-15.5 2.5q-38 0 -215 -40q13 -21 86 -202q46 -116 140 -173q51 -31 99 -31q102 0 102 130zM577 192q0 185 -52 360q-12 -3 -32 -24v-251
q0 -11 16.5 -105t19.5 -101q5 -13 18 -14q30 65 30 135zM485 96q-28 277 -28 350q0 20 15 80l-253 -174z" />
  </g>

</svg>
