<?xml version="1.0" standalone="no"?>
<!DOCTYPE svg PUBLIC "-//W3C//DTD SVG 1.1//EN" "http://www.w3.org/Graphics/SVG/1.1/DTD/svg11.dtd" >
<svg viewBox="0 -442 2048 2048">
  <g transform="matrix(1 0 0 -1 0 1606)">
   <path fill="currentColor"
d="M1912 1436q0 -37 -43 -37q-37 0 -37 37q0 14 12 28.5t26 14.5q15 0 28.5 -14t13.5 -29zM1693 1185q-8 -7 -16 -7q-20 0 -20 18q0 19 20 19q9 0 16 -7v-23zM1930 954q0 -22 -21 -22q-22 0 -22 22q0 21 22 21q21 0 21 -21zM1278 1399q0 -58 -59 -58q-60 0 -60 58
q0 24 18 41.5t42 17.5q59 0 59 -59zM1493 461l-3 -24l-24 4l4 24zM765 1184q0 -21 -18 -21q-22 0 -22 21q0 19 22 19q18 0 18 -19zM1715 250q0 -62 -63 -62t-63 62q0 61 63 61t63 -61zM1976 512q0 -56 -41 -135q-46 -90 -96 -90q-8 0 -13 6v24q27 6 64 77q34 68 34 100
q0 131 -115 168q-29 -49 -59 -99q-29 -34 -109 -34q-7 0 -39 13.5t-36 18.5q-11 12 -11 47q0 111 179 122l9 4l-9 13q-76 28 -134 28q-43 0 -165 -71q-94 -54 -160 -103q44 -91 44 -96q0 -76 -14.5 -102.5t-77.5 -62.5q-45 -26 -78 -49q-5 -4 -176 -111q-271 -177 -820 -520
q-32 -19 -49 -19q-6 0 -21 9q-1 8 -1 20q0 45 26 104q23 48 47 97q170 363 509 1088q50 7 73 7q55 0 121 -25q54 98 66 133q22 61 22 149q0 187 -143 234q-39 13 -61 13q-12 0 -57 -29q29 -29 29 -94q0 -61 -89 -61q-63 0 -63 64q0 33 34 69q-4 2 -13 2q-43 0 -65 -10
q-15 -7 -36 -42.5t-25 -54.5q2 -24 -10 -70q-2 12 -13 45q-10 28 -10 46q0 67 75 114q9 7 28 17q20 7 69 7q5 0 17.5 -6t17.5 -6q-1 0 37.5 26t80.5 26h21q117 0 181 -76q60 -72 60 -191q0 -113 -63 -236q-54 -105 -54 -95q0 -8 57 -38q12 0 86 149q82 163 92 176q2 2 16 13
q-10 -76 -80 -217q-12 -17 -35 -53l-44 -88q29 -18 86 -54l621 602l-587 -619q43 -55 74 -63q184 165 311 237q44 27 88 55q55 32 93 42q-167 -111 -246 -170q-134 -100 -227 -196q42 -48 39 -48q1 0 68 50q79 58 145 91q97 49 170 48h39q24 0 67 -18q49 -19 53 -37l7 -3
q13 -20 18 -42q26 -6 75 -26q96 -54 96 -194zM522 1081q0 -35 -38 -35q-36 0 -36 34q0 37 36 37q38 0 38 -36zM1414 134q0 -29 -31 -29q-28 0 -28 29q0 30 30 30q29 0 29 -30zM282 1246q0 -62 -61 -62t-61 62q0 61 61 61t61 -61zM270 940q0 -14 -17 -14q-5 0 -13 7v14
q11 10 13 10q17 0 17 -17zM1780 700q0 1 -5 11l-22 -58q-14 -32 -35 -51v-11h11q8 6 22 22q29 50 29 87zM1730 664h-13q-9 0 -41 -12.5t-37 -18.5q-13 -16 -13 -29v-22q21 -7 29 -7q24 0 46 34q14 28 29 55zM978 1310q0 34 -46 104q-5 10 -20 27q-13 5 -39 16q24 -27 66 -85
q27 -47 30 -160q9 72 9 98zM661 1372q0 31 -24 39q-23 -68 -23 -61q0 -4 2 -6t2 -3h22q21 0 21 31zM1290 462q0 26 -15 61q-23 54 -25 59q-31 -26 -93 -77q-14 12 -14 18q0 16 29 48q41 45 42 46q-23 45 -48 45q-4 0 -15 -8t-20 -8l-3 2v12q15 22 15 28t-31 33t-41 33
l-155 -192q18 -13 53 -40q7 -11 25 -29q22 -16 90 -46q72 -32 92 -32h23q35 -1 60 15q10 3 28 11q3 13 3 21zM1051 774l-85 54q-56 -99 -81 -99q-1 0 -6 2v24l55 88q-4 11 -22 25.5t-30 14.5q-8 0 -28 -26t-38 -26l-5 2v24q0 3 12.5 19t12.5 27q0 7 -4 7q-65 13 -104 13
q-12 0 -30.5 -15.5t-18.5 -27.5v-11q0 -38 44 -102q17 -14 47 -46q4 -10 15 -28q7 -10 53 -56.5t52 -48.5zM1232 378q-81 1 -222 67q-93 43 -222 194l-80 92q-43 53 -58 106q-66 -138 -348 -744q-58 -117 -166 -355q-12 -28 -13 -51q19 16 57 45q4 3 339 208z" />
  </g>

</svg>
