<?xml version="1.0" standalone="no"?>
<!DOCTYPE svg PUBLIC "-//W3C//DTD SVG 1.1//EN" "http://www.w3.org/Graphics/SVG/1.1/DTD/svg11.dtd" >
<svg viewBox="0 -442 2048 2048">
  <g transform="matrix(1 0 0 -1 0 1606)">
   <path fill="currentColor"
d="M2048 -63q0 -44 -30 -79h-87q15 0 -47 13q-1 -11 -4 -34q-1 -4 -18 -36h-192q-4 -12 -3 -29h-420v28h-223q-6 23 -15 36q-85 -29 -90 -29h-570q-34 0 -97 36q-11 6 -41 33q-1 22 -2 37q-23 15 -62 51q-2 3 -27 64l-24 50q-14 30 -14 53q0 9 2.5 25.5t2.5 22.5
q92 52 244 134v152q0 14 51 71q48 54 67 67q-20 27 -50 85l-5 55q-9 100 -9 210v35q0 91 94 212q21 27 64 38q14 1 41 4v19q46 36 61 36q85 0 109 -33q4 -13 14 -40q18 1 50 -5q6 -3 33 -28q86 -82 86 -164v-253q0 -58 -63 -123q76 -59 129 -108q5 -34 7 -159q23 23 23 34
v114q0 3 -6.5 10.5t-6.5 18.5q0 39 95 151q-8 30 -8 103h87q10 0 33 -12t32 -14l4 2q-28 31 -70 98q-29 81 -29 189q0 94 41 216q48 141 113 180q17 10 116 10q31 0 66 -37q31 -32 42 -65l18 -135q27 -183 27 -294q0 -51 -45 -121q-3 -5 -56 -48q5 -13 16 -14q77 64 95 64
h58v-79q0 11 -13 -60q34 -25 101 -75q8 -42 9 -72q-5 -10 -5 -20q0 -5 1.5 -13.5t1.5 -13.5q0 -7 -2.5 -20.5t-2.5 -20.5q53 -54 151 -246q23 -62 79 -182q5 -8 42 -47q31 -33 31 -48zM1529 948q0 109 -16 165q-47 37 -62 41q-7 2 -78 2q-63 0 -80 -4q-54 -12 -54 -153
q0 -143 56 -193q29 -26 50 -26h79l78 68q27 30 27 100zM1671 600q-33 28 -99 86q3 24 12 71q-22 -16 -45 -32q-30 -19 -49 -16v-231q8 -12 46 -12q13 0 135 134zM1936 -36l-86 210q-53 123 -107 200q-19 21 -36 42t-17 56q0 15 3 44.5t3 43.5l-165 -139q18 -31 50 -96
q16 -45 53 -134q48 -95 133 -157q76 -55 169 -70zM1294 461v141q0 6 -9 104q-64 29 -66 29h-42q0 -2 -1 -7q0 -8 5 -22.5t5 -22.5q-25 -19 -50 -37q-28 -23 -42 -47q21 -10 61 -34q43 -39 139 -104zM1601 -154v307q0 28 -97 230q-16 25 -39 80q-13 52 -16 132q-3 66 -5 133
q-20 0 -62 1.5t-61 1.5q15 -59 15 -216q0 -41 -4 -68q-3 -19 -21 -69q-16 -44 -16 -69v-463h306zM1814 -97v40q-59 14 -171 138v-178h171zM810 923q0 86 -30 127q-11 11 -32 36h-53q2 -20 -11 -20q-24 0 -34 13t-22 13q-37 0 -58 -89q-15 -63 -15 -118q0 -85 59 -168
q31 -8 72 -8q29 0 60 29q28 26 40 56q24 61 24 129zM906 542q0 19 -49 61q-2 2 -50 30q10 -64 10 -99q0 -15 -3 -46t-3 -46q16 11 54 48q41 42 41 52zM960 496q0 9 -18 16q-37 -38 -116 -110l133 -62q-7 13 -7 33q0 21 4 61.5t4 61.5zM1279 415q-27 15 -77 49q-19 20 -61 56
q-17 9 -50 30q0 -10 1 -34v-34q0 -66 -35 -140q-47 -101 -55 -131q-4 -36 -19 -107q-4 -1 -12 -1q-11 0 -18 4l-121 -91q30 -41 124 -41q19 0 31 2q23 4 79.5 34.5t70.5 47.5q74 92 121 279q0 23 21 77zM733 661q-19 -3 -46 -3h-23q-23 0 -55 10q1 -26 7 -78q13 -42 36 -126
q50 90 81 197zM1262 -91v287q-49 -170 -200 -272v-15h200zM784 536l-17 107l-110 -253q35 -38 81 -76q20 42 30 109q8 57 16 113zM979 275l-184 96q-9 -23 -27 -68l158 -161q20 25 53 133zM634 397q0 42 -25.5 118t-26.5 115l-59 -341q111 83 111 108zM535 591
q-48 -28 -95 -68q21 -41 82 -75q3 48 13 143zM669 311q-12 14 -26 35q-24 -19 -50 -46l33 -107zM523 382q-85 51 -113 101q-28 -27 -28 -34v-79q0 -12 8 -40q35 17 77 34q19 6 56 18zM969 -80q-11 -1 -24 -1q-105 0 -141 56q-9 14 -23 66q34 23 102 70l-171 181l-80 -189
h-11l-52 166l-289 -326v-18q90 -22 91 -22h463q2 0 135 17zM506 346l-350 -209q8 -28 33 -80q16 -22 77 -62q60 64 119 129q75 82 104 136zM1467 972h-63v34q5 0 15.5 1.5t15.5 1.5q1 0 27 -10q1 -9 5 -27zM1355 974q-58 -1 -63 2q4 6 3 23q29 10 30 10q5 0 15 -1.5t15 -1.5
v-32zM1416 838q-39 -14 -35 -14q-10 0 -38 14v24h73v-24zM765 905h-63v34q5 0 15.5 1.5t15.5 1.5l29 -10q0 -18 3 -27zM653 905h-63q4 5 3 27l29 10q5 0 15.5 -1.5t15.5 -1.5v-34zM714 771q-40 -14 -37 -14q-9 0 -36 14v24h73v-24z" />
  </g>

</svg>
