<?xml version="1.0" standalone="no"?>
<!DOCTYPE svg PUBLIC "-//W3C//DTD SVG 1.1//EN" "http://www.w3.org/Graphics/SVG/1.1/DTD/svg11.dtd" >
<svg viewBox="0 -442 2048 2048">
  <g transform="matrix(1 0 0 -1 0 1606)">
   <path fill="currentColor"
d="M1992 142l-497 -463h-1413v1162q129 103 371 317q11 22 36 62q53 64 86 98q59 60 100 78q18 8 55 8q9 0 37 -18t33 -27q8 -29 27 -77q8 -14 60 -58l65 21q42 -3 93 -18q36 44 104 136q10 19 32 55q9 14 44 14q33 0 50 -8q6 -3 47 -73t46 -82q5 -25 19 -74h605v-1053z
M1878 1152h-468q-1 -8 -8.5 -29t-7.5 -25q0 -8 7 -14h360q3 0 117 68zM1918 161v963l-122 -81l14 -989q108 99 108 107zM1353 1120q0 51 -41 141q-44 99 -83 99q-22 0 -33 -11q-3 -3 -82 -123q-19 -20 -48 -62q-1 -2 -1 -29q0 -3 -17 -40.5t-17 -53.5q0 -6 17 -18.5
t23 -12.5q68 0 121 44q31 39 90 86q9 3 20 3q23 0 23 -26q0 -38 -136 -106q54 8 74 13q46 12 64 34q26 32 26 62zM1598 953h-516q-4 0 -132 -119q61 0 247 2q155 1 247 1q23 0 79 48q37 34 75 68zM1753 3v1047h-354q-13 0 -64 -62h354v-1058q22 24 64 73zM1032 1157
q-3 4 -8 10q-27 16 -74 16q-52 0 -88 -31q-4 -3 -18 -44q-21 -61 -21 -64q0 -11 9.5 -24.5t10.5 -23.5q43 -11 78 -11h21q18 0 51 16v101q0 9 39 55zM1632 -115v1025q-67 -56 -111 -97v-1044q111 110 111 116zM801 1173q0 17 -16 70t-25 70q-16 29 -56 29q-12 0 -20 -2
q-174 -185 -174 -215q0 -24 70 -64q48 -25 96 -51l41 28q8 -6 43 -6q1 6 8 47q2 13 18 47q15 30 15 47zM624 983q-93 37 -156 95l-110 -87zM1440 -255v1044h-496v-1044h496zM739 953h-420q-4 0 -147 -113h460q13 0 107 113zM981 932h-153q-13 14 -29 19q-25 -33 -103 -125
v-1081h195v1081q0 -5 90 106zM639 -255v1022h-501v-1022h501z" />
  </g>

</svg>
