<?xml version="1.0" standalone="no"?>
<!DOCTYPE svg PUBLIC "-//W3C//DTD SVG 1.1//EN" "http://www.w3.org/Graphics/SVG/1.1/DTD/svg11.dtd" >
<svg viewBox="0 -442 2048 2048">
  <g transform="matrix(1 0 0 -1 0 1606)">
   <path fill="currentColor"
d="M1190 1392l-50 -46q-42 -39 -40 -47l24 -112l-106 60l-106 -60l24 112q-11 21 -42 49q-24 22 -49 44q39 3 122 11q35 69 53 108q29 -70 49 -108q40 -4 121 -11zM1954 -52q0 3 -24 -40q-33 -60 -87 -87q-35 -25 -109 -65q-11 -4 -97 -20q-46 -11 -140 -28q-22 -3 -64 -4
l-306 -9v-52h-215q-4 15 0 54q-154 3 -308 7q-176 10 -302 52q-15 5 -78 42.5t-77 49.5q-4 4 -41 60q-24 37 -24 40q0 1 10 50q63 -54 288 -54q66 0 162 46q10 5 127 80q-3 1 -7 1t-12.5 -1.5t-12.5 -1.5q-174 0 -253 68q-7 6 -62 93l20 101q38 -30 77 -59q5 -2 123 -2
q11 0 60 19t61 27q23 15 109 101h-9q-13 0 -36 -2q-26 -2 -37 -2q-43 0 -97 27q-62 32 -62 71q0 11 2.5 33t2.5 33q79 -40 148 -40q45 0 86 28q16 11 72 83q-53 1 -130 12q-5 2 -43 33v66q43 -12 72 -12q96 0 156 80q-31 0 -82 12q-17 11 -20.5 33t-6.5 43q19 -4 28 -4
q80 0 129 74l-45 8q-26 5 -40 20q75 20 109 73q14 21 51 123q24 -87 48 -124q37 -58 108 -72q-12 -10 -85 -28q49 -74 129 -74q10 0 28 6q-2 -21 -4.5 -43t-22.5 -35q-7 -5 -82 -12q67 -80 165 -80q23 0 63 12v-66q-40 -42 -173 -46q23 -32 72 -82q42 -28 86 -28
q79 0 148 40q0 -11 2.5 -33t2.5 -34q0 -26 -47 -63q-9 -7 -54 -20.5t-58 -13.5q-14 0 -41 2t-41 2q34 -38 109 -101q75 -46 121 -46h121q-3 0 80 61l19 -101q-16 -35 -62 -93q-49 -39 -116 -55q-55 -13 -137 -13q-4 0 -12 1.5t-12 1.5q-5 0 -8 -1q100 -65 123 -76
q56 -29 141 -49q5 -1 13 -1q182 0 274 37q2 1 26 17q10 -49 10 -50z" />
  </g>

</svg>
