<?xml version="1.0" standalone="no"?>
<!DOCTYPE svg PUBLIC "-//W3C//DTD SVG 1.1//EN" "http://www.w3.org/Graphics/SVG/1.1/DTD/svg11.dtd" >
<svg viewBox="0 -442 2048 2048">
  <g transform="matrix(1 0 0 -1 0 1606)">
   <path fill="currentColor"
d="M1781 851l-20 -92l-95 50zM1902 565q-32 -12 -81 -36q-20 30 -36 73l78 26q11 -13 39 -63zM1557 810q-34 17 -98 43q18 18 56 50q13 -22 42 -93zM1762 1158q0 -134 -81 -243l-660 384l-660 -384q-81 119 -81 243q0 164 115 280t279 116q170 0 257 -92q44 -58 89 -115
q2 0 3 2q13 23 43 66q116 139 305 139q162 0 276.5 -117t114.5 -279zM1892 341q-23 8 -69 23l53 63q5 -29 16 -86zM1069 1138q-15 -19 -50 -53q-12 14 -52 46q2 4 33 43zM1960 221l-30 -69q-7 4 -69 40q30 59 45 59q4 0 54 -30zM1072 888q-29 -17 -50 -33q-20 20 -55 69
l72 36q14 -21 33 -72zM944 1013q-30 -23 -74 -46v89q24 -15 74 -43zM1893 15q0 -22 -11 -56.5t-11 -41.5q0 1 5 -22q7 -32 7 -81q0 -123 -41 -160q-22 33 -22 41q0 2 11 17.5t13 20.5q11 32 11 89q0 33 -3 53l-5 6q-42 -55 -91 -55q-83 0 -83 74q0 40 35 63q30 20 72 20
q45 0 70 -23q11 28 11 50q0 51 -62 88q-14 -33 -29 -65q-19 -37 -59 -37q-25 0 -42 28q-16 24 -16 51q0 79 107 90q2 4 2 12q0 57 -17 68l-5 -6q-7 -28 -38 -49.5t-61 -21.5q-74 0 -74 75q0 41 25 69.5t65 28.5q33 0 71 -23q12 25 12 60q0 96 -36 113q-7 -54 -17 -74
q-18 -32 -64 -32q-69 0 -69 91q0 89 97 90q-19 67 -103 115q18 -3 53 -10q40 -11 66 -60l31 -59q8 -3 22 -8q51 -23 51 -156q0 -14 -4.5 -39.5t-4.5 -37.5q0 -11 9.5 -29t11.5 -26q3 -33 11 -98q99 -42 99 -143zM1548 122q0 -44 -52 -67q-40 -18 -90 -18q-95 0 -150 83
q-21 -21 -21 -70q0 -59 56 -98q24 -17 107 -53q-3 -18 -10 -53q-74 17 -136 88t-62 145q0 31 13 64l13 33q0 -5 -18 31q-11 21 -12.5 66.5t-9.5 64.5q-10 12 -26 39q-24 56 -24 120q0 40 11 91q1 7 11 30t10 26l-15 30q-20 40 -20 95q0 64 32 84q-19 96 -19 101q0 55 26 72
q-9 9 -68 51l76 43v-20v-70l20 13q-16 -48 -16 -65q0 -27 22 -101q34 10 69 10q63 0 109 -27q56 -32 56 -90q0 -75 -91 -75q-77 0 -147 96q-18 -14 -18 -31q0 -19 16 -84q12 0 35 1.5t34 1.5q77 0 144 -22q94 -30 94 -90q0 -33 -38 -56q-34 -20 -69 -20q-49 0 -108 32
t-90 73q-21 -15 -21 -63q0 -73 12 -103q35 38 90 38q53 0 112 -37q67 -40 67 -89q0 -75 -89 -75q-57 0 -139 42q-2 -2 -2 -4q0 -89 27 -99q42 29 109 29q64 0 120 -25q70 -32 70 -88zM1614 145q-3 -57 -3 -88q-20 6 -59 19q-1 4 -1 9q0 11 4.5 31t5.5 29q6 0 19 -2.5
t20 -2.5q9 0 14 5zM1072 623l-72 -36q-17 33 -30 65v11q19 6 59 26h11zM1708 -251q-28 -47 -39 -47q14 0 -63 13q4 8 29 66q24 -11 73 -32zM583 853q-60 -24 -98 -43l39 93q27 -18 59 -50zM1066 338l-111 -45q6 7 6 17t-3.5 30.5t-3.5 31.5q50 19 85 39q8 -25 27 -73z
M1152 156q-17 -5 -59 -26q-14 16 -40 56q40 15 82 36q2 -6 17 -66zM376 809l-95 -50l-20 92zM989 186q-16 -25 -40 -56q-38 19 -59 26q5 22 17 66q42 -21 82 -36zM964 515q0 -46 -51 -80q-46 -31 -95 -31q-115 0 -182 122q-78 -39 -78 -149q0 -17 15 -46q55 48 114 48
q55 0 104 -36q54 -39 54 -92q0 -49 -35.5 -77t-85.5 -28q-82 0 -139 48l-4 -6q0 -11 -3.5 -35.5t-3.5 -37.5q0 -21 3 -37v-1q1 -2 5 -2q3 0 25 11.5t29 13.5q43 11 72 11q64 0 114 -26q62 -31 62 -89t-63 -90q-50 -25 -115 -25q-97 0 -144 92q-46 -51 -46 -110q0 -56 42 -90
q20 -15 92 -49q-4 -22 -23 -67q-61 13 -109 81q-46 65 -46 130q0 92 62 171q-4 27 -4 67q0 25 1 41q1 11 6 36t5 38q0 4 -8.5 24.5t-9.5 25.5q-8 31 -8 70q0 138 95 241q-8 44 -8 80q0 110 69 163q7 63 15 126q16 64 82 91q-13 -7 -31 -58q-17 -47 -17 -67v-60q3 -5 6 -5
q12 0 37.5 6t37.5 6q53 0 99 -27q53 -31 53 -80q0 -55 -36.5 -87t-92.5 -32q-72 0 -135 115q-28 -28 -33 -63v-73l5 -5q46 13 65 13q73 0 143 -23q94 -31 94 -87zM1301 -304l-111 58l111 50v-108zM1053 -52q-23 -4 -70 -13q0 5 -10 73l79 19l-4 -5q2 -38 5 -74zM257 601
q-12 -28 -34 -72l-83 36q22 43 39 63zM1088 -316l-117 -55v124zM219 341h-70q7 29 17 86zM532 575q0 -67 -92 -217q3 -8 3 -18q0 -24 -17 -69q-23 -60 -25 -69q45 -28 45 -83q0 -37 -33 -94l-56 -86q-11 -35 -34 -99q-53 -123 -128 -186q1 28 -4 44q77 40 124 191l-2 11
q-18 -20 -56 -40q-41 -21 -65 -21q-53 0 -53 51q0 50 55 88q49 34 102 34q35 0 62 -23q47 49 47 94q0 37 -34 53q-74 -112 -137 -112q-31 0 -31 47q0 59 57 100q51 37 113 39q25 52 25 81l-5 5q-22 -31 -64 -56q-45 -27 -81 -27q-48 0 -48 44q0 51 53 97q50 44 102 44
q14 0 38.5 -9.5l24.5 -9.5q76 104 76 155q0 20 -20 30q-55 -115 -133 -115q-39 0 -39 42q0 59 47.5 105.5t106.5 47.5q3 6 3 19q0 72 -45 108h11q33 0 56 -20q20 -17 20 -62q0 -10 -1.5 -28.5t-1.5 -26.5q34 -17 34 -59zM852 -249l-111 -55v108q37 -18 111 -53zM181 199
q0 -1 -69 -47l-30 69q50 30 54 30t45 -52zM436 -285q-40 -6 -66 -13q-13 15 -36 47q24 11 73 32q5 -10 29 -66zM1692 1174q0 130 -93.5 226.5t-222.5 96.5q-81 0 -156 -43t-113 -113l548 -317q37 63 37 150zM1676 487q0 23 -19 23q-74 0 -74 -34q0 -27 51 -27q42 0 42 38z
M1382 786q0 46 -83 46q-51 0 -74 -20q41 -53 98 -53q59 0 59 27zM1439 588q-57 27 -143 27q-35 0 -58 -4q36 -53 122 -53q40 0 79 30zM1708 266q-33 11 -63 11q-49 0 -49 -29q0 -16 32 -16q65 0 80 34zM935 1348q-39 66 -115 107.5t-154 41.5q-128 0 -222 -96t-94 -225
q0 -102 40 -152zM1762 100q-5 0 -15 2t-16 2q-10 0 -25 -12t-17 -22q11 -11 22 -11q42 0 51 41zM1398 361q0 22 -50 34q-36 9 -67 9q-52 0 -59 -30q62 -49 126 -49q15 0 32.5 11t17.5 25zM1819 -82q-14 7 -38 7q-58 0 -70 -31q20 -13 33 -13q33 0 75 37zM900 754
q0 43 -79 43q-48 0 -84 -20q33 -63 91 -63q72 0 72 40zM1497 141q-41 37 -118 37q-75 0 -93 -31q15 -21 56 -37q38 -15 67 -15q68 0 88 46zM903 515q-39 33 -152 33q-19 0 -62 -7q35 -60 121 -60q48 0 93 34zM791 257q0 45 -120 45q-51 0 -72 -34q70 -55 128 -55
q19 0 41.5 13.5t22.5 30.5zM449 569q0 10 -4 14h-26q-17 0 -46 -14q-32 -15 -32 -29q0 -21 40 -21q22 0 45 15t23 35zM833 -1q0 18 -51 31q-41 10 -68 10q-84 0 -108 -33q33 -59 135 -59q20 0 54 17q38 18 38 34zM363 321q-25 10 -54 10q-71 0 -70 -41q10 -10 25 -10
q17 0 56.5 14t42.5 27zM341 138l-37 4l-34 -12q-22 -10 -22 -24q0 5 4 -11h20q28 0 69 43zM302 -57q-24 8 -33 8q-19 0 -48 -11q-34 -12 -37 -26q9 -11 29 -11q49 0 89 40z" />
  </g>

</svg>
