<?xml version="1.0" standalone="no"?>
<!DOCTYPE svg PUBLIC "-//W3C//DTD SVG 1.1//EN" "http://www.w3.org/Graphics/SVG/1.1/DTD/svg11.dtd" >
<svg viewBox="0 -442 2048 2048">
  <g transform="matrix(1 0 0 -1 0 1606)">
   <path fill="currentColor"
d="M1711 -96q0 -17 -5 -25q-17 -25 -68 -47.5t-83 -22.5q-10 0 -32 1h-32h-25q60 -90 60 -111q0 -27 -26 -37q-36 -13 -230 -28q-211 -16 -373 -16q-126 0 -312 11q-223 14 -290 33q-5 1 -16 16.5t-11 20.5q0 21 60 111q-11 1 -28 1q-10 0 -31 -1t-31 -1q-36 0 -85 23
q-52 24 -69 53q-2 3 -2 38q0 11 92 85q-21 14 -58 49q-20 25 -20 45q0 7 49 55q44 45 58 55q21 6 62 19q-6 37 -20 109q-1 3 -6 10.5t-5 12.5v70h4q20 0 57 3t55 3q38 0 52 -1q51 -5 44 -5q-3 21 -1 37l-26 91q15 -5 47 -12v500q0 -13 5 22q14 96 22 121q22 69 74 90
q18 7 62 7q12 0 35 -3t34 -3q10 0 11 8q0 36 9 107q34 128 141 150q5 1 38 1q63 0 89 -20q63 -49 83 -110q11 -35 17 -137q80 7 66 7q97 0 134 -60q8 -14 25 -87t17 -92l1 -501q21 0 46 12q-28 -84 -28 -89q0 -4 1 -12v-12q0 -8 -1 -13h213v-73q0 -3 -5.5 -12t-6.5 -13
q-3 -33 -19 -97v-8q24 -4 65 -20q15 -11 58 -54q46 -47 46 -56q0 -19 -30 -52q-27 -29 -48 -39q19 -21 40 -37q17 -13 34 -27.5t17 -38.5v-4zM1284 1073q0 65 -42 121q-20 26 -59 44q-5 2 -13 2q-47 0 -54 -2q-28 -9 -51 -63q-19 -47 -19 -82q0 -48 26 -95q28 -51 115 -51
q8 0 49 14q18 6 34 50q14 38 14 62zM1013 1247q0 123 -15 157q-40 92 -115 92q-18 0 -41.5 -24.5t-31.5 -45.5q-6 -9 -14 -25q-15 -69 -15 -159q0 -28 24 -56q27 -32 103 -32q34 0 49 7q56 26 56 86zM1278 751v174q-12 1 -35 -12.5t-39 -13.5q-56 0 -77 6t-68 36v-20
q0 9 13 -185q69 -52 110 -52h23q10 0 16.5 1t31.5 29.5t25 36.5zM1017 895v259q-65 -45 -92 -45q-68 0 -80 4q-15 4 -68 41v-252q0 -28 38 -55q35 -26 64 -26q57 0 81 11q12 5 34.5 28.5t22.5 34.5zM1277 534v140q-32 -26 -117 -26q-19 0 -45 11q-38 16 -44 18v-193
q32 -13 46 -13q9 0 16 1q10 10 31 29q34 24 113 33zM748 1093q0 6 -14 69q-5 24 -26 50q-24 28 -45 28h-39q-45 0 -80 -62q-31 -55 -31 -104q0 -127 113 -127q71 0 96.5 52t25.5 94zM1023 496v341q-15 -18 -42 -40q-39 -13 -84 -13q-59 0 -90 16q-5 3 -36 41v-345
q42 15 88 15h78q48 0 86 -15zM735 941q-48 -31 -65 -36t-74 -5q-21 0 -45 12.5t-35 12.5v-170q0 -17 26.5 -44.5t43.5 -27.5q50 0 74 10q16 7 62 43q5 68 13 205zM1174 378q-9 15 -39 30l-105 -76q23 31 66 93q-12 22 -78 37q-52 12 -91 12q-6 -57 -17 -171l-4 -5h-18
q-6 41 -21 175h-20q-35 0 -82 -13q-57 -16 -67 -38l69 -87l-2 -2l-106 75q-27 -13 -40 -30l192 -102q20 10 86 10q55 0 86 -10zM723 484l-4 193q-68 -28 -82 -28h-49q-40 0 -71 25v-140q24 -2 72 -11q20 -6 49 -30q26 -22 41 -22q18 0 44 13zM1077 79v27q0 21 -39 38
q-29 11 -57 22v8q-1 7 0 20q2 14 2 20q0 40 -36 40q-15 0 -28 -15t-22 -19q-9 4 -23 21q-11 13 -27 13q-36 0 -36 -34q0 -8 3 -25t2 -26v-4q-26 -9 -51 -17q-48 -19 -48 -43l3 -24l1 5q8 -7 20 -7q59 0 96 28q13 -20 27 -40q18 -26 35 -26q14 0 34 30q23 34 27 36
q33 -28 77 -28q24 0 35 4zM1629 -80q-42 44 -135 119q32 27 113 66q-46 53 -61 62q-8 4 -81 25l-11 8q-3 32 -3 23q0 40 15 88q12 40 25 80q-33 4 -91 4q-36 0 -95 -28q-11 44 -11 72q0 17 15 62q-41 -3 -83 -6q-17 -4 -70 -48q78 -53 78 -74q0 -4 -27 -20q-31 -18 -192 -96
q4 -54 3 -71q64 -31 67 -33q31 -23 31 -67q0 -7 -1 -15q-44 -21 -39 -21q6 0 -98 16q-6 -17 -22 -40q-32 -23 -59 -23q-35 0 -62 25q-1 1 -19 38q-12 -1 -49 -9q-32 -7 -49 -7q-7 0 -38 25q-1 19 -1 29q0 4 1 7q9 28 42 51q18 8 37.5 16t19.5 27v52q-71 30 -176 82
q-8 6 -13 14q-30 14 -30 20q0 16 78 74q-20 20 -64 47q-30 1 -89 7q15 -45 15 -62q0 -30 -11 -72q-58 28 -94 28q-64 0 -92 -4q40 -98 40 -168q0 -25 -11 -31q-27 -5 -79 -21q-19 -9 -66 -66q41 -17 113 -65q-53 -37 -135 -120q73 -42 133 -42q18 0 54.5 2t54.5 2
q-16 -46 -41 -139h38q54 0 123 29t94 29q-8 0 31 -1q23 -54 88 -138q30 18 86 60q16 22 53 61q2 2 6 2q32 0 49 -21l34 -42q34 -29 89 -57q53 69 86 135q9 3 20 3q29 0 68 -17q57 -24 64 -26q57 -17 133 -17q-2 12 -37 141h7q17 0 52 -3t52 -3q53 0 127 42zM1228 1059
q0 -50 -75 -50q-15 0 -31 15q-6 5 -16 38.5t-10 43.5q0 18 17 60q3 7 19.5 16.5t24.5 9.5q18 0 42 -30q21 -27 25 -47.5t4 -55.5zM959 1339q0 -66 -7 -82q-15 -32 -73 -32q-44 0 -44 113q0 27 18 62q20 40 44 40h6q21 0 40 -40q16 -36 16 -61zM698 1104q0 -8 -10 -41.5
t-14 -36.5q-22 -16 -34 -16h-31q-13 0 -28 15.5t-15 28.5v27q0 23 4 35q7 22 26 47q23 29 41 29q28 0 46 -31q15 -27 15 -57zM1457 -14q0 -30 -36 -30q-33 0 -33 32q0 28 31 28q38 0 38 -30zM1416 221q0 -3 -12 -19q-6 -11 -23 -31q-37 -30 -65 -35q-7 -1 -80 -1
q-7 -19 -25 -53q-14 -15 -40 -45q95 -17 98 -18q54 -20 53 -72q-73 -31 -72 -31q-6 0 -62 10q-55 22 -82 34q-3 3 -11 25q-6 19 -20 19v14l78 50q40 30 56 72q-41 27 -41 63q0 118 98 118q9 0 18 -1q15 -29 16 -34q-1 6 -1 -38q0 -13 4 -13q17 0 51.5 1.5t51.5 1.5
q10 -9 10 -17zM1325 74q0 -30 -31 -30q-38 0 -38 28q0 29 36 29q33 0 33 -27zM1031 -47l-1 -9q-4 -4 -13 -12q-3 0 -9.5 -2t-10.5 -2q-36 0 -36 30t36 30t34 -35zM933 -135q0 -28 -34 -28q-35 0 -35 30t33 30q36 0 36 -32zM833 -42q0 -30 -36 -30q-33 0 -33 30t33 30
q36 0 36 -30zM719 4h-4q-10 0 -15.5 -20t-11.5 -24q-72 -44 -142 -44q11 0 -74 32v9q0 44 58 63q2 1 93 17q-14 14 -40 45q-9 18 -26 53h-80q-3 0 -10 5q-19 8 -54 31q-35 31 -35 50q0 -1 10 17q18 0 54 -1.5t53 -1.5q2 6 2 45q0 24 17 40q14 1 21 1q57 0 77 -33
q15 -24 15 -86q0 -31 -39 -62q19 -62 131 -119v-17zM538 72q0 -28 -38 -28q-31 0 -31 28q0 29 33 29q36 0 36 -29zM406 -14q0 -30 -31 -30q-38 0 -38 32q0 28 38 28q31 0 31 -30zM1369 216l-42 4q-14 0 -32.5 -19t-22.5 -34h51q20 0 46 49zM1269 251q0 5 -3 15.5t-3 16.5
q0 8 5 11h-26q-17 0 -28 -20.5t-11 -56.5q0 -51 23 -51q43 0 43 85zM1287 -30v23q-70 19 -101 19h-68v-27q20 -20 32 -25q48 -19 81 -19q25 0 56 29zM591 204q0 49 -11 68q-14 23 -28 23h-17q-10 -40 -10 -44q0 -85 43 -85q23 0 23 38zM522 167q-16 41 -51 53l-46 -4
q41 -49 46 -49h51zM676 -15v27h-68q-37 0 -101 -19v-23q36 -29 58 -29q70 0 111 44z" />
  </g>

</svg>
