<?xml version="1.0" standalone="no"?>
<!DOCTYPE svg PUBLIC "-//W3C//DTD SVG 1.1//EN" "http://www.w3.org/Graphics/SVG/1.1/DTD/svg11.dtd" >
<svg viewBox="0 -442 2058 2048">
  <g transform="matrix(1 0 0 -1 0 1606)">
   <path fill="currentColor"
d="M2058 925l-329 -486l-561 410q-16 -18 -69 -90l631 -928q-13 -10 -40 -30l-618 904l-622 -904l-40 30l628 928l-63 90l-564 -410l-329 486l624 421l362 -535l366 535zM1990 912l-544 360l-251 -383l525 -389zM945 892l-251 380l-544 -360l270 -412zM1721 900
q0 -57 -36.5 -95.5t-93.5 -38.5q-58 0 -95.5 38t-37.5 96q0 57 38 94.5t95 37.5q55 0 92.5 -38.5t37.5 -93.5zM682 900q0 -58 -37.5 -96t-95.5 -38q-57 0 -93.5 38.5t-36.5 95.5q0 58 36 95t94 37q57 0 95 -37.5t38 -94.5z" />
  </g>

</svg>
