<?xml version="1.0" standalone="no"?>
<!DOCTYPE svg PUBLIC "-//W3C//DTD SVG 1.1//EN" "http://www.w3.org/Graphics/SVG/1.1/DTD/svg11.dtd" >
<svg viewBox="0 -442 2048 2048">
  <g transform="matrix(1 0 0 -1 0 1606)">
   <path fill="currentColor"
d="M1974 -352h-159v367q40 15 40 56q0 62 -62 62q-58 0 -58 -69q0 -31 33 -49v-367h-710v627h-38v-627h-554v81q39 15 39 56q0 62 -61 62q-58 0 -58 -73q0 -29 33 -45v-81h-337v1892h1892v-1892zM1833 1180q-38 20 -77 20q-81 0 -162 -23q8 -12 25 -33h183q10 12 31 36z
M1873 1063q-117 21 -107 23l-145 -23q20 -16 51 -33q116 -3 126 -3q9 0 75 36zM1698 1330q-60 20 -83 20q-48 0 -91 -16q-5 -2 -29.5 -16t-26.5 -14q-5 0 -25 8t-26 9q-29 5 -48 5q1 0 -82 -51q-8 -29 -16 -47l189 67q3 0 5 -2q-7 -11 -22 -32h69q4 0 21.5 8t22.5 9
q27 3 80 15q20 13 62 37zM1630 1217l-75 19q-50 0 -145 -50q-55 -29 -78 -63h72q39 0 149 44q25 17 77 50zM1928 745q-8 20 -27 53q-14 11 -40 34q32 13 49 15q-111 73 -140 73h-72v-24l71 -36q-28 0 -64 9q11 -27 31 -59q29 -18 192 -65zM1329 1410l-63 14q-29 -13 -72 -38
v-48q69 34 135 72zM1594 1097q-30 23 -36 23q-63 0 -86 -8q-6 -2 -35 -31l105 -20q16 4 32 9t20 27zM1729 967q-24 14 -75 35q-54 13 -111 13q-1 0 -78 -29q62 -32 66 -32zM1329 1353h-39q-57 -1 -110 -68q-5 -19 -16 -57q55 29 154 95q3 2 11 30zM1492 1238l-84 26
q-26 -8 -56 -23q-64 -32 -57 -32q-8 0 -25 3t-25 3q-27 0 -50.5 -14.5t-46.5 -29.5v-51q21 3 61 16q8 4 50 35.5t44 31.5q6 0 66 -16zM1169 1413q-20 20 -23 20q-6 0 -56 -34v-55q14 2 9 2q2 0 3 -1q-9 -14 -9 -26v-79q64 35 64 75q0 6 -31 37q7 7 21 5q12 36 22 56z
M1646 857q-62 44 -67 44h-63q-2 0 -30 -10l46 -36q19 -12 59 -12q13 0 55 14zM1320 1135h-43q-46 0 -64 -33q8 0 23 -2t23 -2t23 2t21 2q10 10 17 33zM1068 1338v30q0 5 -1 11q-14 7 -40 24q-2 6 -6 13q-18 11 -54 32q-1 -6 -7 -23.5t-6 -25.5q0 -10 48 -52l9 28q1 -6 1 -33
q0 -14 8 -29q12 -22 14 -27q34 45 34 52zM1384 1066q-8 1 -35 8q-22 6 -34 6q-41 0 -86 -20q-13 -6 -26 -32q48 -19 45 -19q46 0 111 28q11 5 25 29zM1888 511q-1 20 -10 57q-8 19 -73 70q-61 48 -86 59q-9 4 -55 4q-7 0 -10 1q-13 12 -40 35q-99 75 -148 75q5 0 -32 -5
q17 -41 59 -73q12 -12 37 -32q57 -31 90 -31q6 0 15.5 6t13.5 6t4 -1l-2 -1q5 -18 51 -48l64 -40q41 -26 122 -82zM1160 1185q-11 17 -32 51q-40 -24 -40 -57q0 -51 2 -44q24 16 70 50zM1784 485q-7 29 -15 59q-9 35 -32 49q-26 8 -78 25q1 -19 6 -48q16 -36 53 -54
q33 -15 66 -31zM978 1261v88q-36 18 -57 32v-63q0 -15 22 -32q18 -12 35 -25zM1375 939q-17 34 -25 38q-32 17 -87 17q8 0 -44 -14q86 -57 112 -57q-18 0 44 16zM1065 1209q0 39 -8 45q-24 13 -47 25v-68q0 -7 24 -55q31 35 31 53zM895 1347v64q-3 1 -15 8.5t-17 7.5h-28
v-52q20 -9 60 -28zM899 1302q0 15 -25.5 39.5t-40.5 24.5q-4 0 -20 -19l50 -92q36 32 36 47zM1357 819q-20 27 -65 64q-53 43 -76 43q-6 0 -22 -26q8 -10 22 -30q-11 0 -18 7l-4 -55q42 -25 48 -25h32q-8 17 -7 31zM963 1208q-19 11 -57 34v-57q16 -12 50 -35q2 19 7 58z
M1575 545v11q0 31 -17 59q-14 13 -42 38q-49 45 -116 60q38 -76 52 -92q22 -26 87 -59q12 -7 36 -17zM1172 979q-15 19 -43 44q-24 3 -70 12q18 13 67 39q-5 24 -5 34q0 11 5 17h-17q-28 0 -45.5 -19.5t-33.5 -38.5q-11 22 -25 54q-53 20 -66 20q11 -39 16 -66
q17 -12 51 -37q-13 -6 -32 -21q-10 -15 -16 -57q19 7 54 25q9 11 30 30q58 -43 83 -43q3 0 47 7zM905 1148q-8 21 -31 56q-21 8 -63 26q-4 -12 -4 -23v-19q0 -17 31 -30q26 -10 47 -10h10h10zM822 1237v23q0 18 -56 37q-7 0 -21 3q13 13 25 18l-57 38h-106q6 -20 22 -57
q30 -2 80 -14q5 -3 18 -29q9 -19 40 -19h55zM1732 268q0 19 -56 106t-74 99q-29 19 -50 19q-5 0 -14.5 -1.5t-14.5 -1.5q7 -29 41 -78q27 -38 53 -75q16 -34 54 -95q19 -14 57 -43v9q-1 11 1.5 31.5t2.5 29.5zM1461 517q0 12 -23.5 54t-32 48t-63.5 24v-53q0 -9 21 -39
t31 -39q19 -6 57 -19q10 26 10 24zM1068 925q-37 21 -67 34q0 -7 -2 -19.5t-2 -19.5q0 -12 19 -22q14 -8 29 -15q8 14 23 42zM936 1064q0 6 -12 15t-18 9h-68q12 -17 37 -50q16 0 48 -4q13 38 13 30zM1219 725q0 15 -41 86q-26 9 -42 13q-16 -45 -16 -33q0 -19 50 -92
q12 -10 35 -31q14 42 14 57zM825 1102q-45 45 -48 45h-84l35 -35q14 -11 52 -11h22q16 1 23 1zM1584 272q-8 33 -35 94q-3 4 -62 43q-7 -28 -7 -43q0 -12 34 -78q75 -16 70 -16zM1139 722q0 19 -64 81q-13 -39 -13 -58q0 -5 6 -23q6 -21 7 -26h31q33 0 33 26zM923 1000
q-20 9 -60 24l-84 -38l75 -20q8 3 69 34zM939 953q-21 7 -34 7q-37 0 -52 -26q0 -1 -18 -57l62 22q13 6 42 54zM794 1063q-43 26 -50 26q-41 0 -58 -13q-20 -21 -39 -42h84q5 0 31.5 13.5t31.5 15.5zM1338 431q0 16 -33.5 95t-42.5 84.5t-43 13.5q-7 -30 -7 -35q0 15 33 -86
q6 -30 24 -86q14 -14 40 -41zM745 1182q-61 62 -99 62q-5 0 -16 -1t-17 -1q-10 0 -19 3q0 12 -6 31q-42 7 -55 7q-33 0 -73 -20q-9 -10 -28 -26q-40 -25 -129 -70q60 -20 56 -20q3 0 50.5 21t60.5 24q26 6 75 5q-10 12 -30 34l62 3q2 -6 0 -24q36 -28 63 -28h105zM653 1139
q-61 42 -77 42q-46 0 -92 -7q59 -54 118 -54q6 0 51 19zM1240 416v48q0 28 -27 48q-24 14 -49 29q0 -6 -2 -18t-2 -18q0 -12 20 -82q21 -7 39 -7h21zM982 755v8q-19 9 -55 28q-1 -8 -8.5 -30.5t-7.5 -33.5v-56q36 -4 40 -4q7 0 21 4q11 43 10 84zM782 909q-17 5 -49 16
q10 8 28 27q-38 29 -47 29q-26 0 -64 -51q16 -6 46 -21q-27 -27 -31 -38q57 -19 56 -19q3 0 61 57zM887 821h-29q-29 0 -39 -7q-6 -4 -24.5 -29.5t-39.5 -48.5h56q10 0 39 37q19 24 37 48zM601 1097q-52 20 -63 20q-57 0 -125 -80h72q27 0 116 60zM1302 161q0 22 -13.5 92.5
t-22.5 84.5t-46 44q-17 -53 -17 -57q0 -67 26 -148q16 -28 47 -84q26 61 26 68zM1065 552q0 14 -18 31l-30 26q-23 -88 -23 -201q0 -33 26 -103l36 35v136q0 13 4.5 38t4.5 38zM576 1002q-7 1 -32 8q-21 5 -32 5q-5 0 -101 -57q-5 -15 -13 -47h11q46 0 167 91zM960 528
q0 10 -10 60q-18 -9 -47 -35q-19 -30 -19 -62q0 6 32 -63q11 13 27.5 49.5t16.5 50.5zM413 1094l-57 29q-12 0 -61.5 -29t-61.5 -41q-10 -17 -29 -50h60q3 0 149 91zM595 934q-36 7 -51 7q-64 0 -161 -118v-41q69 17 212 152zM1203 161q0 52 -16 85q-12 12 -35 37
q-10 -120 -10 -115q0 -24 27 -109q34 73 34 102zM843 570v36q-78 -28 -91 -75q-4 -13 -4 -50q0 -6 1 -19v-19q94 88 94 127zM800 683q-27 -8 -76 -35q-20 -17 -44 -80q-13 -22 -29 -75q-1 -10 -1 -22v-20q1 -15 1 -20q27 15 68 50q4 21 18 62q22 29 56 89q2 17 7 51z
M619 768q-8 0 -24.5 2t-24.5 2q-5 0 -8 -1q-72 -31 -99 -78h65q36 0 91 75zM663 735q-27 -7 -80 -26q-1 -1 -68 -47q-24 -14 -58 -41q-6 -8 -17 -57q108 26 223 171zM376 1004q-43 26 -52 26q-20 0 -86 -65q-61 -60 -76 -86q-10 -21 -31 -63h22q7 0 20.5 1.5t19.5 1.5
q98 105 183 185zM926 400q-27 -13 -69 -51q-22 -36 -50 -172l22 -112q15 18 35 51q5 36 20 107q14 44 27 87q16 53 15 90zM788 299q0 9 -35 40q-12 -14 -31 -44q-26 -55 -26 -87q0 9 20 -97q20 28 45 92q27 68 27 96zM305 796q-32 -3 -85 -16q-27 -14 -54 -54t-29 -70
q115 64 168 140zM680 288v54q-18 -5 -44 -17q-49 -46 -48 -133l1 -38q17 16 47 50q44 61 44 84zM353 756q-30 -7 -71 -22q-36 -24 -109 -113q-9 -8 -23 -28q-8 -21 -7 -67v-24q140 127 210 254zM628 421q-51 -20 -93 -86q-18 -24 -47 -74q-19 -44 -19 -79q0 -23 22 -86
q17 23 44 72q27 66 77 199q5 18 16 54zM385 599q-23 1 -66 -9q-81 -40 -120 -104q-2 -19 -7 -58q27 6 61 16q64 41 132 155zM489 495q-35 -11 -97 -47q-112 -105 -128 -203q-1 -5 -6 -18t-5 -17q0 -10 6 -28q7 -22 8 -28q34 58 91 139q38 48 76 97q47 63 55 105z" />
  </g>

</svg>
