<?xml version="1.0" standalone="no"?>
<!DOCTYPE svg PUBLIC "-//W3C//DTD SVG 1.1//EN" "http://www.w3.org/Graphics/SVG/1.1/DTD/svg11.dtd" >
<svg viewBox="0 -442 2048 2048">
  <g transform="matrix(1 0 0 -1 0 1606)">
   <path fill="currentColor"
d="M2047 47q0 -54 -27 -108q-28 -48 -55 -97q-35 -70 -74 -101q-117 -93 -240 -117q-62 -12 -51 -12h-286q-6 0 -103 20t-292 62q-60 13 -179 46q-121 43 -243 134q-58 43 -111 111q-11 14 -11 21q0 136 17 185q23 33 54 93q-45 66 -98 157q-5 13 -4 83q-5 2 -103 2
q-29 0 -72 28q-41 25 -60 52q-27 37 -27 81q0 207 227 215q46 125 126 253q96 154 183 212q32 23 99 67q16 13 51 36q185 103 302 103q50 0 110 -17t158.5 -110.5t121.5 -153.5q4 -21 18 -57q9 -14 43 -26q59 -20 119 -60q71 -47 91 -92q4 -9 4 -58q0 -48 -1 -52
q-4 -19 -41 -57q-32 -34 -54 -48q-17 -8 -50 -25q7 -48 13 -56q1 -2 21 -14q55 -34 55 -109q0 -12 -16 -37q10 -5 22 -5q26 0 48 20.5t51 20.5q14 0 34 -19t20 -33v-93q0 4 -44 -69q55 -47 110 -93q70 -62 95 -104q17 -28 40 -134q9 -41 9 -45zM1557 772q-27 45 -107 64
q-94 22 -121 43q-18 -12 -18 -24q0 -18 8 -35q67 -33 87 -35q-17 2 95 2q10 0 29 -7t27 -8zM1423 1239v15q-14 29 -46 80q-34 42 -98 101q-75 70 -108 80q-14 1 -42 5q-49 12 -46 12q-76 0 -114 -14q-59 -21 -239 -125q-153 -88 -291 -333q-17 -27 -46 -83l-6 -21t-37 -69
q19 -9 55 -31q10 -11 33 -31q36 33 48 80t22 93q48 169 173 290q7 9 29 18l3 -2v-18q-2 -4 -35 -43q-96 -115 -139 -306q23 21 72 59q90 59 171 96q33 11 98 34q17 9 52 23q11 1 32 5q25 14 76 36q159 49 245 49h138zM1684 1014q0 51 -97 110q-82 50 -146 63q-20 4 -97 4
q-84 0 -130 -7q-31 -8 -92 -24q-22 -3 -64 -14q-34 -19 -105 -49q-165 -48 -316 -148q-192 -128 -202 -255q-6 -8 -6 -31q0 13 1 -32h20q12 0 48 11q31 62 46 77q19 18 79 41q19 4 54 19q97 58 124 72q70 38 131 59q174 59 219 59h114q9 0 28 3t28 3q36 0 120 -27
q91 -29 105 -52q5 -17 25 -45q42 30 84 61q29 25 29 102zM1627 625v49q0 8 -24.5 30.5t-34.5 24.5q-55 13 -175 13q-31 0 -98 46q-19 13 -24 30q-2 6 -2 47q0 14 16 29t29 15q32 0 83 -15q68 -20 83 -23q-5 5 -16 13q-22 13 -86 29.5t-92 16.5q-67 0 -190 -28
q-49 -7 -146 -30q-132 -45 -179 -83q-36 -29 -36 -48q0 -5 11.5 -28t11.5 -41v-131q0 -26 -6 -42q-11 -30 -13 -36h23q4 0 76 33q77 34 91 38q29 2 88 9q10 2 34 14q21 10 35 10q17 0 31 -5v-2q-45 -19 -46 -19q-24 -14 -24 -39q0 -24 29 -24q18 0 53 5t53 5
q19 0 46.5 -11.5t33.5 -11.5q5 0 22.5 7t22.5 8q39 8 79 16q53 17 53 48q0 43 -80.5 71.5t-82.5 48.5q11 1 32 6q28 17 55 35q25 15 68 15q81 0 81 -47q0 -20 -16 -20q-5 0 -28.5 11.5t-44.5 11.5q-11 0 -63 -13q98 -35 93 -35q8 0 20 13h88q5 0 26 -10t26 -10q1 0 14 4z
M1802 543q0 52 -27 56q-57 -42 -121 -42q-15 0 -67 24.5t-59 24.5q-2 0 -44 -11q12 -31 12 -47q0 -33 -34 -66q-12 -6 -34 -21q-10 -12 -33 -33q-35 -23 -59 -23q-15 0 -76 14.5t-77 21.5q-51 21 -38 21q-5 0 -21.5 -13t-24.5 -13q-31 0 -61 12q-38 15 -38 41q0 4 3 11h-36
q-33 0 -88 -31q-70 -39 -85 -44q-20 -7 -69 -7q-24 0 -110 18q54 -108 93 -126q50 -23 130 -23h230q17 0 98 43q53 28 105 56q5 -17 40 -17q31 0 65.5 15t37.5 15q8 0 12 -6q-3 -9 -9 -28q61 -27 75 -27q90 0 137 23q130 63 162 144q11 28 11 38zM1990 40q0 105 -41 180
q-36 66 -122 139q-15 12 -41 15q-22 3 -44 5q2 -45 -77 -79q-67 -29 -119 -29q-12 0 -36.5 3.5t-36.5 3.5q-14 0 -28 -20q-19 -27 -24 -31q-12 -10 -77 -32l-112 34v17q13 4 101 13q53 5 97 46q-52 33 -55 33q-8 0 -21 -10q1 -11 1 -15t-13 -4h-9q-27 27 -61 29
q-156 -113 -264 -113q-137 0 -223 26q-39 7 -114 30q-25 12 -40.5 37t-30.5 49q-41 -22 -95.5 -88.5t-67.5 -110.5q-7 -23 -7 -142q0 -8 1 -11q45 -43 140 -122q133 -93 216 -121q71 -24 181 -43q180 -31 183 -32q207 -43 374 -43q84 0 149 19q15 6 44 18q12 4 36 15
q91 57 157 142q79 101 79 192zM713 572v55q0 58 -29 99h-13q-39 1 -80.5 -33.5t-55.5 -73.5q57 -19 69 -53q11 -42 21 -84q14 -5 42 -17q46 36 46 107zM408 784q0 16 -30 40q-42 33 -95 33q-62 0 -107.5 -42t-45.5 -104q0 -61 51 -102.5t113 -41.5q23 0 78 14v93q0 17 18 55
t18 55zM589 483q0 41 -34.5 74t-75.5 33q-27 0 -57 -22q-33 -24 -33 -50q0 -8 1 -24v-23q0 -29 99 -142q19 26 45 38.5t52 25.5q-7 21 -7 45q0 8 5 22.5t5 22.5zM1153 782q0 -44 -82 -66q-58 -13 -117 -26q-10 -4 -68 -38q-40 -24 -73 -24q-24 0 -24 66q0 37 37 72
q10 10 86 44q32 17 64 35q42 22 65 22q61 0 107 -36q0 -6 2.5 -23t2.5 -26zM1079 590q-64 -22 -59 -22h-64v21q18 2 54 8q58 15 52 15h17v-22zM1146 615h-23q11 0 -30 15q-19 7 -55 7q-26 0 -60 -17q-28 -15 -56 -29q-19 -8 -97 -23v27q22 11 41 11q16 0 27 -7q6 12 22 31
q58 43 117 43q114 0 114 -37v-21zM869 559q0 -2 -29 -39h-18v27q21 23 33 23h14v-11zM541 393h-25q-8 14 -22 41q-14 -3 -41 -13q-7 6 -7 14q0 10 14 18l21 11q-23 29 -41 47v18h37q64 -63 64 -93v-43zM1105 797q0 15 -19 29.5t-35 14.5q-23 0 -171 -87l-51 -36q-1 -1 -1 -4
q1 -32 1 -51q35 28 112 72q47 9 95 17q69 14 69 45z" />
  </g>

</svg>
