<?xml version="1.0" standalone="no"?>
<!DOCTYPE svg PUBLIC "-//W3C//DTD SVG 1.1//EN" "http://www.w3.org/Graphics/SVG/1.1/DTD/svg11.dtd" >
<svg viewBox="0 -442 2048 2048">
  <g transform="matrix(1 0 0 -1 0 1606)">
   <path fill="currentColor"
d="M1384 940q0 -73 -11 -141q-7 -18 -19 -53q-52 -165 -118 -269q-25 -54 -92 -152q-119 -129 -200 -156q-12 -8 -37 -20q-33 -4 -98 -15q2 -9 18 -43t16 -36v-48h-39q-29 -1 -40 -1q-70 0 -82 31l25 81q-83 -21 -167 -151q-51 -92 -102 -183q-60 -94 -162 -131
q-58 -21 -64 -21q-11 0 -21 10v21q35 12 102 41q64 33 125 131q47 81 95 161q54 78 126 126q8 1 24 9q-24 6 -73 19q-5 4 -12 10q-1 0 -31 7q-68 15 -105 35q-125 68 -164 123q-11 24 -36 69q-21 23 -54 74q-3 18 -14 53q-29 68 -76 207v40q0 -19 -11 83q-5 46 -5 106
q0 78 20 140q15 27 38 86q28 118 118 184.5t165 106.5q41 22 69 22q12 0 50.5 12.5t51.5 14.5q89 14 141 14q24 0 144 -17q27 -10 80 -29q11 -1 34 -5q102 -25 158.5 -52.5t97.5 -82.5q3 -10 12 -28q9 -10 27 -31q43 -56 70 -130q4 -11 11 -66q15 -119 15 -156zM1347 884
q0 45 -8 145q-9 116 -18 133q-6 6 -17 19q-2 8 -8 24q-20 24 -54 77q-32 63 -69 86q-20 6 -56 21q-61 37 -145 60q-13 2 -37 8q-5 2 -32 17q-17 10 -34 10h-176q-5 0 -15.5 3.5t-15.5 3.5q8 0 -31 -6q-134 -21 -292 -127q-68 -46 -98 -83q-22 -27 -64 -110q-11 -15 -26 -47
q-16 -54 -16 -218q0 -22 17 -141q0 -31 8 -87q48 -154 139 -276q17 -20 51 -61q4 -9 15 -25q31 -36 71 -52q125 -51 193 -65t194 -14q38 0 115 40q42 22 102 61q80 78 169 228q14 23 77 173q61 145 61 203zM812 38v14q-16 30 -70 84q1 -20 -9.5 -43.5t-10.5 -35.5
q0 -10 4 -19h86z" />
  </g>

</svg>
