<?xml version="1.0" standalone="no"?>
<!DOCTYPE svg PUBLIC "-//W3C//DTD SVG 1.1//EN" "http://www.w3.org/Graphics/SVG/1.1/DTD/svg11.dtd" >
<svg viewBox="0 -442 2048 2048">
  <g transform="matrix(1 0 0 -1 0 1606)">
   <path fill="currentColor"
d="M1978 -358h-1896v47q38 40 117 118q78 63 190 175q1 15 4 33q-1 2 -5 2q-6 0 -69 -58l-124 -104q-73 -61 -112 -115v556l236 114v17l-3 2l-233 -86v415h9q19 0 57.5 -6t57.5 -6t50 17q-6 12 -29 31q-22 8 -71 12q-37 2 -74 5v535q149 -138 179 -138q8 0 35 20
q-12 16 -39 44q-62 50 -176 121v144h159q26 -33 53 -65q33 -38 66 -49q3 5 3 31q0 17 -33 47q-29 27 -48 35h202q34 -62 117 -177q29 10 29 26q0 13 -37 72q-36 56 -49 67q-2 2 -22 12h237q7 -97 38 -135q12 -15 40 -12q2 4 2 13q0 18 -11 63.5t-20 56.5q-7 4 -27 14h196
v-676l-74 142q4 -39 15 -102q-30 33 -92 96l124 -203q-26 8 -77 12l62 -61l-262 -21l234 -15l-139 -83q4 -1 9 -1q23 0 69 8.5t70 8.5l-92 -164h3q17 14 57 54q-4 -46 -5 -118l4 -2l72 190v-187l30 172l59 -206v251q19 14 21 14q11 0 123 -121l2 5l-36 97l179 -120l2 2
l-228 178h172l-160 34q138 0 194 9l-243 30l175 170l-1 2l-87 -58l88 124l-1 2l-161 -176l49 118l-2 2l-93 -92l56 366l-62 -117v437h193q-2 -4 -43 -133l1 -2q23 0 32 11.5t23.5 58.5t14.5 64h381q-66 -86 -117 -182q1 -2 5 -2q44 0 155 160q4 6 10 25h291v-1807
q-7 17 -27 47q-93 100 -124 131q-95 94 -132 106q-2 -4 -2 -13q0 -26 6 -34q45 -45 125 -126q57 -70 155 -161v-38zM1975 878q0 8 -7 13q-58 -11 -116 -21q-67 -15 -108 -43q36 -13 31 -13q16 0 88 15q87 19 95 20q17 31 17 29zM1436 1400l-4 26q-28 -25 -83 -127
q-27 -50 -27 -51q0 -9 17 -30l7 -1q25 63 90 183zM1710 1040q-3 8 -10 23q-31 -16 -96 -45q-63 -24 -72 -62q4 0 12.5 -2t13.5 -2q39 0 152 88zM1793 426q0 31 -32 42q-54 20 -107 39q-82 30 -100 30v-23q0 -10 83 -40q133 -48 156 -48zM888 1097q0 38 -29 92q-10 19 -40 40
q-14 -35 -14 -46q0 -48 26 -94q7 -12 38 -26q19 30 19 34zM1876 11v32l-250 213h-14q-4 -15 -9 -45q18 -10 52 -32l106 -94q85 -74 102 -74h13zM1353 417q0 23 -56 73t-75 50l-20 -39q0 -6 40 -51t50 -51q14 -6 42 -19q19 35 19 37zM855 825q-41 26 -129 63q-19 -37 -19 -39
q0 -15 41.5 -40.5t58.5 -25.5q5 0 15.5 2t15.5 2q6 13 17 38zM679 973q-84 80 -163 118v-39q104 -106 143 -106q11 0 20 27zM1741 -356v11l-72 114q-43 67 -84 106l-4 -20q12 -43 54 -108q64 -98 67 -103h39zM384 1059l-275 170h-20v-42q91 -59 281 -164zM1098 143v52
q0 14 -11.5 66t-17.5 65q-7 1 -17 4q-19 -30 -19 -54v-41q0 -17 7 -43q9 -33 10 -42q12 -7 16 -7h32zM790 574q0 9 -15 9q-9 0 -102 -75v-36q13 2 39 10q15 7 46.5 43t31.5 49zM1519 -328q0 15 -87 193q-27 55 -33 65q-22 35 -52 49v-53q0 -13 54.5 -136t66.5 -136
q9 -10 48 -10q0 4 1.5 13.5t1.5 14.5zM460 692q-15 23 -29 23h-74l-96 -13q6 -13 19 -24h142q4 0 19 6.5t19 7.5zM1172 -180q0 19 -21 107t-30 104q-1 2 -13 13q-10 -59 -10 -55q0 -59 25 -168q3 -13 24 -51q25 32 25 50zM744 284q0 12 -5 22q-43 -45 -54 -85q8 -7 25 -7
q8 0 22 31q12 28 12 39zM615 397l-11 11q-50 -30 -139 -99q-10 -10 -16 -43h13q25 0 82 54q47 44 71 77zM790 171q0 12 -7 33h-17q-11 -15 -28 -47q-55 -142 -55 -186q13 2 37 7q11 18 40 107q30 93 30 86zM852 -77q0 13 -27 32q-25 -38 -47 -105q-17 -56 -35 -111
q-17 -47 -17 -51v-43h45q81 231 81 278zM473 225l-14 13q-101 -76 -138 -106q-87 -71 -122 -118h11q20 0 75 51q37 34 73 68q38 28 113 85z" />
  </g>

</svg>
