<?xml version="1.0" standalone="no"?>
<!DOCTYPE svg PUBLIC "-//W3C//DTD SVG 1.1//EN" "http://www.w3.org/Graphics/SVG/1.1/DTD/svg11.dtd" >
<svg viewBox="0 -442 2048 2048">
  <g transform="matrix(1 0 0 -1 0 1606)">
   <path fill="currentColor"
d="M1009 1130l-117 -19q72 36 82 36q2 0 35 -17zM923 1152q-33 -12 -47 -24q-1 -1 -10 -12.5t-13 -11.5q-3 0 -7 1.5t-7 1.5q-62 0 -231 -55q30 23 93 63q99 48 137 48q-13 0 85 -11zM827 1079q-25 -34 -36 -34q-8 0 -24 3t-24 3q-6 0 -140 -26q125 54 195 54h29zM774 1020
l-31 -30q-1 0 -14 5q-26 10 -72 10q-43 0 -80 -14q17 10 53 25q34 8 98 8q8 0 23.5 -2t22.5 -2zM1986 -364h-1697q39 215 134 641q4 13 37 94l72 172q25 71 86 208q45 67 133 201q11 -2 32 -7q22 -11 66 -30q-31 36 -32 37q-24 24 -39 26q32 33 35 33q13 0 94 -44h4
q-30 33 -59 52q33 8 45 8q48 0 152 -64q18 -14 56 -42h4q-53 130 -206 130h-27q-19 -1 -27 -1q59 20 63 20q-5 0 70 -19l-16 12q88 -7 120 -24l94 -71q-24 65 -83 98q-41 23 -80 23q-14 0 -43 -1t-42 -1q96 26 111 26q120 0 204 -58l8 -5h5q-21 32 -39 43l-50 24
q-10 6 -30 14q-33 7 -87 7q-6 0 -17.5 -3t-17.5 -3q2 0 -34 26q9 5 29 13q85 20 128 20q8 0 69 -16q58 -15 69 -20q12 -10 36 -27q-12 21 -25 31q-8 7 -80.5 28.5t-85.5 21.5q-64 0 -114 -13q-7 -2 -42 -17.5t-37 -15.5l-103 12q-37 4 -117 -29q-66 -27 -124 -80l-47 -66
q-77 -109 -120 -204q-22 -41 -60 -127q-2 -5 -33 -148q-24 -91 -63 -275q-4 -25 -30 -339l-51 435q0 1 4 84l10 188q0 87 11 260q14 47 39 139q12 50 23 99q18 60 47 89q12 12 46.5 25.5t52.5 13.5q58 0 174 -23q26 -15 81 -30q-25 27 -79 64q-82 26 -151 26q-32 0 -48 -8
q-23 -12 -40 -16q18 13 57 32q84 20 166 20q34 0 91 -25l57 -25q2 1 3 2q-66 60 -119 75q-27 2 -79 7l-170 -55q53 30 165 78q82 26 133 26q28 0 73.5 -14t52.5 -14l6 2q-69 51 -161 51q-7 0 -21.5 -4t-20.5 -4q-47 -3 -111 -32q-53 -25 -106 -49q30 33 99 91q69 43 140 59
q9 2 126 2q34 0 41 -2q4 -1 13.5 -9t17.5 -8q1 0 5 1q-9 11 -33 25q-39 8 -167 8q-9 0 -101 -31q-19 -5 -53 -20q-84 -57 -113 -100q-58 -85 -111 -229.5t-65 -249.5q-14 -117 -19 -346q-4 -151 -3 -165l55 -714h-120v1903h1512q-96 -94 -96 -219q0 -124 84 -208.5
t208 -84.5q119 0 196 71v-1462zM722 961q-52 -72 -145 -221q-21 -52 -64 -155q-45 -98 -124 -299q-30 -91 -63 -232q-54 -222 -57 -233q4 137 27 410q2 12 18 83q15 59 42 177q12 67 45 198q1 4 57 120q23 51 86 145q92 26 88 26q5 0 90 -19zM1584 911q0 76 -78 76
q-76 0 -76 -76q0 -33 21.5 -56t54.5 -23q32 0 55 23t23 56zM1683 738q0 78 -75 78q-33 0 -56 -22t-23 -55q0 -77 77 -77t77 76zM1785 563q0 32 -22.5 54.5t-54.5 22.5q-77 0 -77 -77t77 -77q33 0 55 22t22 55zM1884 387q0 77 -75 77q-79 0 -79 -77q0 -32 22.5 -55t54.5 -23
q77 0 77 78zM1482 738q0 78 -75 78q-79 0 -79 -78q0 -76 77 -76t77 76zM1584 563q0 32 -22.5 54.5t-54.5 22.5q-77 0 -77 -77t76 -77q78 0 78 77zM1683 387q0 77 -75 77q-79 0 -79 -77q0 -33 23 -55.5t56 -22.5q31 0 53 23t22 55zM1384 563q0 31 -23.5 54t-54.5 23
q-32 0 -56 -22.5t-24 -54.5q0 -33 23 -55t56 -22q79 0 79 77zM1482 387q0 77 -75 77q-79 0 -79 -77q0 -33 23 -55.5t56 -22.5q31 0 53 23t22 55zM1281 387q0 77 -75 77q-79 0 -79 -77q0 -33 23 -55.5t56 -22.5q31 0 53 23t22 55zM1822 -287v556h-144l-172 -148l-167 148
h-144v-556h146v120h340v-120h141zM1591 -9q0 -35 -24.5 -59.5t-59.5 -24.5t-59 24t-24 60q0 34 24.5 60t58.5 26q36 0 60 -25t24 -61z" />
  </g>

</svg>
