<?xml version="1.0" standalone="no"?>
<!DOCTYPE svg PUBLIC "-//W3C//DTD SVG 1.1//EN" "http://www.w3.org/Graphics/SVG/1.1/DTD/svg11.dtd" >
<svg viewBox="0 -442 2048 2048">
  <g transform="matrix(1 0 0 -1 0 1606)">
   <path fill="currentColor"
d="M1062 956q0 -113 -20 -166q-23 -60 -67 -90q-6 -1 -19 -5q-32 -20 -102 -51q-113 -35 -165 -35h-169l-1 1q-1 -1 -1 -4l18 -223q5 -1 11 -1q16 0 60 11q84 -282 177 -446q22 -38 195 -255l-324 -75q-48 70 -67 137l-48 96q-40 82 -68 160q-17 47 -43 168q-28 126 -28 165
q51 15 102 28v17q0 12 -5.5 36.5t-6.5 34.5q-2 49 -7 148q-3 3 -14 4q-109 8 -139 14q-78 15 -122 59q-8 3 -21 10q-4 6 -11 18q-29 42 -29 53q0 4 -13 22q-16 20 -18 24q-35 72 -35 154q0 -10 5 39q17 161 91 231q17 4 34.5 24.5t27.5 25.5q8 1 22 5q3 4 10 11q33 26 92 43
q54 16 177 23q6 4 6 38q0 15 11 23v93h28v-103q23 -20 18 -43q62 -2 185 -12q28 -4 62 -22q4 -4 12 -11q31 -15 89 -60q37 -44 72 -108q4 -17 14 -50q24 -64 24 -156zM1022 980q0 22 -18 83q-5 27 -21 77q-15 34 -57 84q-3 8 -11 21q-36 38 -104 68q-12 1 -35 5q-5 5 -18 11
q-6 1 -52 1q-111 0 -178 -9q-60 -4 -167 -23q-230 -77 -230 -340q0 -20 26 -116q10 -37 38 -82q31 -51 58 -66q19 -3 56 -12q77 -23 133 -23q8 0 23.5 1.5t23.5 1.5t23.5 -4.5t23.5 -4.5q7 0 21 3t21 3q9 0 28 -5t28 -5q66 0 155 20q13 3 44 18q25 12 46 12q17 0 32 14
q12 13 24 25q69 58 66 98q6 6 14 16q7 25 7 128zM914 -286q-19 17 -52 54l-18 30q-10 9 -26 28q-2 8 -8 22q-20 23 -53 74q-122 252 -166 437l-163 -44q10 -64 26 -122q8 -18 19 -55q7 -38 27 -112q12 -21 35 -65q6 -28 24 -78q34 -80 118 -229zM972 928q0 -153 -146 -203
q-13 -1 -37 -8q-43 -21 -55 -21q-88 0 -108 17q23 12 66 20q50 10 68 16q17 13 52 38q9 2 25 11q17 13 37 43q22 34 22 51q0 3 -7 3q9 16 9 66q0 7 3 20.5t3 20.5q0 40 -7 57q-2 6 -23 42q-19 32 -19 36v22h15q33 -32 80 -99q22 -57 22 -132zM434 1226q0 -39 -49 -82
t-88 -43q-45 0 -45 34q0 30 60 78q57 46 88 46q34 0 34 -33zM583 1195v-9q0 -68 -39 -291q-19 -106 -24 -199q-13 4 -30 3v57q0 1 11 65q17 72 44 217q19 142 17 211q21 -8 21 -54zM413 1226q-5 2 -14 8q-107 -43 -122 -101l7 -7h25q7 0 42 25.5t42 34.5z" />
  </g>

</svg>
