<?xml version="1.0" standalone="no"?>
<!DOCTYPE svg PUBLIC "-//W3C//DTD SVG 1.1//EN" "http://www.w3.org/Graphics/SVG/1.1/DTD/svg11.dtd" >
<svg viewBox="0 -442 2048 2048">
  <g transform="matrix(1 0 0 -1 0 1606)">
   <path fill="currentColor"
d="M1426 223q0 -173 -121.5 -294.5t-294.5 -121.5q-174 0 -295 121t-121 295q0 132 75.5 239.5t200.5 152.5q-44 50 -43 124q-210 50 -210 338v382h786v-382q0 -293 -217 -336v-3q0 -68 -45 -120q128 -43 206.5 -152t78.5 -243zM1111 778v656h-204v-656h204zM1146 735
q-30 -3 -64 -3h-185q-15 0 -29 1q3 -71 45 -105q48 11 97 11q44 0 86 -9q43 35 50 105zM1375 218l-88 56l60 86l-103 17l23 103l-104 -24l-16 103l-86 -61l-56 90l-55 -92l-86 63l-15 -106l-105 27l28 -104l-108 -16l66 -87l-94 -55l94 -54l-66 -87l107 -15l-27 -105l104 27
l16 -108l85 65l56 -92l55 90l87 -63l17 105l103 -24l-24 102l104 18l-61 85z" />
  </g>

</svg>
