<?xml version="1.0" standalone="no"?>
<!DOCTYPE svg PUBLIC "-//W3C//DTD SVG 1.1//EN" "http://www.w3.org/Graphics/SVG/1.1/DTD/svg11.dtd" >
<svg viewBox="0 -442 2048 2048">
  <g transform="matrix(1 0 0 -1 0 1606)">
   <path fill="currentColor"
d="M1440 566q0 -87 -72 -152q-62 -54 -155 -77q65 -111 65 -149q0 -16 -8 -38q-10 -25 -24 -25h-46v95h-81q-9 -35 -37 -75q-34 -48 -64 -48q-50 0 -50 60q0 45 20 56l-26 122q-138 20 -170 73q-17 29 -99 391q-83 368 -83 423q0 135 209 195q139 40 321 40q54 0 92 -24
q44 -28 44 -80q0 -9 -2 -20q33 -27 33 -60q0 -15 -9 -34q27 -13 27 -50q0 -13 -8 -26q26 -12 26 -49q0 -7 -4.5 -19t-4.5 -19q1 -2 16 -23q9 -12 9 -27q0 -20 -10 -42q25 -19 25 -48q0 -8 -7 -17t-8 -14q25 -2 25 -34q0 -17 -10 -39q23 -8 23 -38q-1 -8 -9 -35
q52 -52 52 -193zM1193 -32h-169v114q48 27 67 49q20 26 31 77h71v-240zM1410 566v37q0 105 -37 139l-125 -9l-9 27l135 11l2 -14q-5 24 -25 55l-122 -10l-6 27l121 10q10 10 10 35l-14 9l-120 -5l-4 28l113 4q8 9 15 27q-2 7 -20 32l-119 -7l5 31l107 7q13 18 13 23
q0 10 -17 30l-105 -7l-11 29l107 5q0 6 4.5 18.5t4.5 18.5q0 14 -12 20v-1l-162 -13l-6 31l152 9l10 28q0 7 -24 29l-149 -12l-5 29l155 12q9 17 9 24q0 23 -8 30q-14 8 -27 16l-144 -13l-5 30l152 8q-22 78 -98 83q17 -12 17 -31q0 -17 -13 -17q-10 7 -56 47l-33 -1
q18 -12 18 -31q0 -18 -13 -18l-55 45l-39 -4q29 -13 29 -36q0 -17 -13 -17q-7 3 -28 21l-31 26l-44 -8q28 -14 28 -37q0 -18 -13 -18l-57 45q-208 -52 -208 -171q0 -24 4 -51l29 18l5 -30l-27 -22l12 -48l30 20l8 -33l-31 -21l12 -56l29 19l7 -33l-28 -19l10 -51l33 22
l8 -35l-33 -20l11 -54l35 23l7 -33l-35 -23l12 -53l36 24l7 -36l-36 -22l12 -51l42 28l8 -33l-41 -28l13 -64l43 29l7 -30l-40 -31q8 -33 27 -101q11 -39 133 -59q85 -14 165 -14q105 0 193 52q103 62 103 160zM1157 -22v215h-28v-215h28zM1039 154q0 29 -23 29t-23 -29
t23 -29t23 29zM1180 1020q0 -46 -36 -46q-43 0 -43 55q0 46 36 46q43 0 43 -55zM1036 1296l-103 -10q-66 -6 -123 -43l-79 -51l-7 21l76 53q60 42 128 47l104 8zM1051 1205l-118 -7q-61 -4 -109 -35l-75 -49l-8 17l70 52q49 36 119 41l116 8zM1066 1117l-105 -10
q-44 -4 -56 -7q-22 -5 -52 -24l-85 -54l-7 24l79 57q44 32 110 37l109 9zM1059 1063l-10 -28l-89 -10q-55 -6 -81 -24l-88 -61l-5 22l84 66q30 24 89 28zM1405 571q0 -35 -28 -88q-23 -43 -59 -62q3 5 29.5 52.5t26.5 87.5q0 9 -7.5 25.5t-7.5 19.5q0 13 30 13q16 0 16 -48z
M1084 955l-109 -10q-47 -4 -78 -26l-87 -61l-6 24l85 66q31 24 81 28l96 7zM1130 875l-111 -13q-57 -7 -93 -32l-87 -61l-7 27l83 61q31 23 95 31l112 14zM1344 549q0 -27 -37 -87t-60 -60q-18 0 -18 6q0 9 40 68t40 70q0 9 -10.5 27t-10.5 26q0 13 25 13q31 0 31 -63z
M1158 796l-103 -12q-53 -6 -104 -39l-95 -61l-7 26l100 70q38 27 101 33l99 10zM1173 724l-96 -14q-38 -6 -88 -40l-107 -74l-7 28l94 72q40 31 94 39l104 16zM1258 549q0 -25 -40.5 -96t-60.5 -71q-15 0 -15 10t36.5 74.5t36.5 79.5q0 9 -6 26.5t-6 26.5t11 9q44 0 44 -59z
M1167 538q0 -25 -38 -89q-40 -67 -60 -67q-15 0 -15 8q0 7 35 68.5t35 77.5q0 9 -6 26.5t-6 26.5q0 10 20 10q35 0 35 -61zM1071 538q0 -23 -34 -84q-36 -64 -54 -64q-19 0 -19 8q0 5 33.5 65.5t33.5 77.5q0 9 -5 25.5t-5 24.5q0 11 18 11q32 0 32 -64z" />
  </g>

</svg>
