<?xml version="1.0" standalone="no"?>
<!DOCTYPE svg PUBLIC "-//W3C//DTD SVG 1.1//EN" "http://www.w3.org/Graphics/SVG/1.1/DTD/svg11.dtd" >
<svg viewBox="0 -442 2048 2048">
  <g transform="matrix(1 0 0 -1 0 1606)">
   <path fill="currentColor"
d="M1149 -294q0 -34 -24 -58t-58 -24h-757q-34 0 -58 24t-24 58v1801q0 34 24 58t58 24h757q34 0 58 -24t24 -58v-1801zM1099 -294v1801q0 32 -32 32h-757q-32 0 -32 -32v-1801q0 -32 32 -32h757q32 0 32 32zM969 1075q0 -118 -81 -206l-87 73q-26 -81 -135 -81
q-95 0 -125 90l-95 -69q-73 86 -73 193q0 124 87 211t211 87t211 -87t87 -211zM856 678h-375v99h375v-99zM969 192q0 -117 -79 -203l-84 87q-32 -98 -140 -98q-93 0 -130 98l-93 -76q-70 83 -70 192q0 124 87 211t211 87t211 -87t87 -211zM852 1270l-13 11l-51 -62l13 -11z
M915 1179l-8 15l-72 -35l7 -15zM759 1323l-15 6l-30 -74l15 -6zM944 1061v16h-81v-16h81zM648 1259l-30 75l-15 -7l30 -74zM926 965l-71 38l-8 -15l72 -39zM820 1082q-3 60 -46 100.5t-103 40.5q-61 0 -104 -43t-44 -104q10 54 53 87.5t99 33.5q52 0 92.5 -32t52.5 -83z
M564 1226l-58 56l-11 -12l58 -56zM784 999q0 47 -33 80.5t-80 33.5q-48 0 -81 -33t-33 -81t33 -81t81 -33q47 0 80 33.5t33 80.5zM506 1159l-73 34l-7 -15l73 -34zM484 1061v16h-80v-16h80zM499 994l-7 15l-71 -38l8 -15zM820 199q-3 60 -46 100.5t-103 40.5q-61 0 -104 -43
t-44 -104q10 54 53 87.5t99 33.5q119 0 145 -115zM784 116q0 47 -33 80.5t-80 33.5q-48 0 -81 -33t-33 -81t33 -81t81 -33q47 0 80 33.5t33 80.5zM761 1045l-81 -70q-8 14 -24 25l82 73q14 -10 23 -28zM761 162l-81 -70q-8 14 -24 25l82 73q14 -10 23 -28z" />
  </g>

</svg>
