<?xml version="1.0" standalone="no"?>
<!DOCTYPE svg PUBLIC "-//W3C//DTD SVG 1.1//EN" "http://www.w3.org/Graphics/SVG/1.1/DTD/svg11.dtd" >
<svg viewBox="0 -442 2048 2048">
  <g transform="matrix(1 0 0 -1 0 1606)">
   <path fill="currentColor"
d="M1829 793l-1222 -825l-387 574l1223 824zM1456 1269l-32 47l-59 -40l31 -47zM1776 795l-32 47l-59 -40l31 -48zM1320 1177l-32 47l-59 -40l31 -47zM1640 703l-32 47l-59 -40l31 -47zM1184 1086l-32 47l-60 -41l32 -47zM1727 862l-259 384l-534 -360l259 -385zM1504 611
l-32 47l-60 -40l32 -47zM1048 994l-32 47l-60 -40l32 -48zM1368 519l-32 47l-60 -40l32 -47zM912 902l-32 47l-60 -40l32 -47zM1232 427l-32 48l-60 -41l32 -47zM776 810l-32 47l-60 -40l32 -47zM1096 336l-32 47l-60 -40l32 -48zM640 718l-32 47l-60 -40l32 -47zM1116 449
l-259 385l-535 -361l259 -384zM960 244l-32 47l-60 -40l32 -47zM503 627l-31 47l-60 -41l32 -47zM823 152l-31 47l-60 -40l32 -47zM367 535l-31 47l-60 -40l32 -48zM687 60l-31 47l-60 -40l32 -47z" />
  </g>

</svg>
