<?xml version="1.0" standalone="no"?>
<!DOCTYPE svg PUBLIC "-//W3C//DTD SVG 1.1//EN" "http://www.w3.org/Graphics/SVG/1.1/DTD/svg11.dtd" >
<svg viewBox="0 -442 2048 2048">
  <g transform="matrix(1 0 0 -1 0 1606)">
   <path fill="currentColor"
d="M1920 -32h-1654v885h776q0 108 -46 144q-56 44 -226 44h-191q-31 -80 -85 -80h-177v19h-170v185h170v17h177q25 0 55 -24t30 -49h171q231 0 299 -50q61 -45 61 -190v-16h84v196q0 169 -43 219q-48 56 -212 56h-151q-31 -80 -85 -80h-177v20h-169v184h169v18h177
q32 0 61 -31q24 -26 24 -42h151q133 0 218 -53q102 -63 102 -188v-299h661v-885zM1894 -10v577h-100v-331h-39v-246h139zM1595 684v110h-544v-110h544zM1720 -10v246h-48v331h-58v-331h-39v-246h145zM526 1284v144h-149v-144h149zM1540 -10v246h-48v331h-58v-331h-39v-246
h145zM936 767v30h-97v-30h97zM1360 -10v246h-48v331h-97v-577h145zM756 767v30h-97v-30h97zM1180 -10v577h-106v-331h-39v-246h145zM317 1000v145h-150v-145h150zM1000 -10v246h-48v331h-58v-331h-39v-246h145zM820 -10v246h-48v331h-95v-577h143zM506 368h-50
q-3 -28 -7 -99h50v1q0 46 7 98zM384 368h-50q-2 -28 -6 -99h50v1q0 53 6 98zM511 127q-5 26 -12 104q0 2 3 9t3 11q0 5 -3 10h-49q6 -5 6 -13q0 -6 -5 -11.5t-5 -6.5q3 -47 17 -103h45zM534 88v95h-8v-80h-64v-15h72zM390 127q-5 26 -12 104q0 2 3 9t3 11q0 5 -3 10h-50
q7 -5 7 -13q0 -6 -5 -11.5t-5 -6.5q2 -48 17 -103h45zM413 88v95h-8v-80h-65v-15h73z" />
  </g>

</svg>
