<?xml version="1.0" standalone="no"?>
<!DOCTYPE svg PUBLIC "-//W3C//DTD SVG 1.1//EN" "http://www.w3.org/Graphics/SVG/1.1/DTD/svg11.dtd" >
<svg viewBox="0 -442 2048 2048">
  <g transform="matrix(1 0 0 -1 0 1606)">
   <path fill="currentColor"
d="M1958 748l-962 -305l-604 235l22 -519q0 -14 -11 -15q-15 0 -23 -17h-20q0 21 -3 30q-12 -6 -16 -6q-15 0 -29.5 24t-13.5 40l16 500l-232 128v14l927 217l949 -290v-36zM1523 356q0 -21 -16.5 -55t-33.5 -46q-7 -5 -55 -26q-37 -20 -113 -56q-204 -80 -340 -80
q-42 0 -150.5 30.5t-149.5 52.5q-17 14 -52 41q-111 81 -111 164q0 28 38 220l453 -179l489 143q8 -21 21 -65q20 -87 20 -144zM1056 809v17q-15 22 -65 22q-44 0 -44 -23q0 -35 75 -35q18 0 34 19zM919 815l-3 24q-83 -2 -197 -23q-98 -20 -195 -39q3 -6 10 -17
q214 53 385 55zM496 755q0 26 -25 26q-2 0 -118 -46q3 2 7 2q9 0 20.5 -12.5t8.5 -21.5q36 13 106 42q1 2 1 10z" />
  </g>

</svg>
