<?xml version="1.0" standalone="no"?>
<!DOCTYPE svg PUBLIC "-//W3C//DTD SVG 1.1//EN" "http://www.w3.org/Graphics/SVG/1.1/DTD/svg11.dtd" >
<svg viewBox="0 -442 2048 2048">
  <g transform="matrix(1 0 0 -1 0 1606)">
   <path fill="currentColor"
d="M2003 1043q-42 -28 -42 -76q0 -26 15 -48l-698 -470q-26 38 -71 38q-29 0 -53 -16q-41 -28 -41 -75q0 -26 15 -49l-697 -470q-26 39 -72 39q-28 0 -53 -17l-22 33l11 5q22 15 4 41q-17 26 -52 9l-25 37q31 21 12 50q-20 29 -51 8l-23 34q30 22 13 48q-16 24 -51 8l-20 31
q31 21 12 49q-15 23 -51 8l-19 28q42 29 42 69q0 27 -20 57l701 473q31 -46 71 -46q26 0 54 19q42 28 42 69q0 28 -20 57l700 472q31 -45 72 -45q26 0 54 19l19 -28q-27 -28 -12 -51q20 -30 51 -6l21 -31q-19 -17 -19 -34q0 -33 30 -33q12 0 26 12l23 -34q-32 -23 -12 -52
q19 -28 52 -7l24 -37q-29 -26 -11 -52q19 -28 49 -3zM1911 974l-271 401l-660 -445l271 -401zM962 824q-20 29 -51 7q-31 -21 -12 -49q19 -29 50 -8q32 22 13 50zM1021 736q-19 28 -51 7q-31 -21 -12 -49q18 -27 49 -6q32 21 14 48zM1082 645q-20 30 -52 9q-31 -21 -11 -51
q20 -29 51 -8t12 50zM1147 549q-21 31 -52 10t-11 -52q18 -26 49 -5t14 47zM1062 401l-271 402l-660 -445l271 -402zM1883 980l-73 -50l-249 369l73 49zM1793 919l-443 -299l-249 369l444 299zM1333 609l-77 -52l-249 369l77 52zM1034 407l-73 -49l-249 368l73 50zM944 346
l-443 -299l-249 369l443 299zM484 36l-77 -52l-249 369l77 52z" />
  </g>

</svg>
