<?xml version="1.0" standalone="no"?>
<!DOCTYPE svg PUBLIC "-//W3C//DTD SVG 1.1//EN" "http://www.w3.org/Graphics/SVG/1.1/DTD/svg11.dtd" >
<svg viewBox="0 -442 2048 2048">
  <g transform="matrix(1 0 0 -1 0 1606)">
   <path fill="currentColor"
d="M1948 1505q-51 -39 -97 -129q-136 -264 -308 -264q-133 0 -133 112q0 30 106.5 97.5t143.5 62.5q-183 -137 -183 -166q0 -48 63 -48q129 0 306 302q-51 12 -88 12q-284 0 -360 -196q-4 35 -4 27q0 102 122 166q101 54 214 54q101 0 218 -30zM1804 875q0 -55 -28 -112
q-33 -68 -82 -68q-54 0 -99 71q-41 64 -41 122q0 80 66 80q56 0 56 -55q0 -30 -22 -51l1 5q3 15 -7.5 35.5t-26.5 20.5q-19 0 -19 -24q0 -33 27 -85q29 -58 58 -58q30 0 50 49q16 40 16 76q0 51 -28 92q-32 46 -80 46q-14 0 -39 -6q6 16 29 36.5t39 20.5q36 0 80 -59
q41 -54 46 -93q4 -31 4 -43zM1234 1368q0 -12 -12 -57q-1 102 -131 102q-49 0 -94 -28q-52 -32 -52 -78q0 -51 100 -51q67 0 67 31q0 24 -39 24q-3 0 -28 -3q34 38 64 38q54 0 54 -53q0 -79 -118 -79q-56 0 -105 19q-65 26 -65 74q0 63 70 111q63 43 129 43q51 0 100 -22
q60 -27 60 -71zM1669 656q-9 -21 -27 -21q-16 0 -112 21q-38 7 -78 15.5t-73 28.5q-110 65 -110 180q0 145 171 194q52 15 65 15h62q-64 -43 -64 -150q0 -130 166 -283zM1336 1168q0 -69 -33 -131q-36 -69 -96 -91q-19 -7 -60 -7q-120 0 -184 84q-16 20 -67 100
q-56 88 -56 96q0 7 14 27q139 -76 242 -76q62 0 121 35q65 39 76 96q43 -56 43 -133zM1736 157q-31 22 -72 38q-42 11 -124 35q-306 90 -306 259q0 41 23 74q7 10 31.5 26.5t34.5 16.5q12 0 80 -54q64 -52 79 -69q43 -51 52 -82q-51 40 -102 79q-76 58 -102 58
q-35 0 -35 -56q0 -125 280 -208q34 -8 102 -27l1 -1q1 1 1 6q0 105 -68 213q-72 116 -168 142q-21 7 -65 16q69 12 64 12q52 0 111 -35q95 -57 144 -197q39 -113 39 -246zM1221 774q0 -50 -65 -77q-49 -21 -108 -21q-119 0 -119 79q0 53 48 53q30 0 52 -35q-4 0 -15 1.5
t-17 1.5q-19 0 -32 -21q17 -22 49 -22q130 0 130 46q0 41 -54 73q-48 29 -92 29q-111 0 -125 -105q-14 40 -14 57q0 50 56 80q47 26 101 26q66 0 133 -49q72 -52 72 -116zM1253 697q0 6 -44 -68q-69 -116 -100 -149q-66 -67 -162 -67q-89 0 -137 71q-41 62 -41 155
q0 45 31 127q14 -56 78 -90q56 -29 120 -29q100 0 237 74q18 -11 18 -24zM843 929q1 -60 -38.5 -98.5t-100.5 -38.5q-157 0 -317 250q-53 83 -105 117q140 55 250 55q96 0 174 -33q96 -40 125 -118q11 -29 11 -89q-68 183 -305 183q-74 0 -143 -22q176 -286 319 -286
q72 0 72 53q0 28 -202 151q125 -6 260 -124zM808 396l-2 -7q-340 -336 -696 -459l-10 47q347 124 667 446zM913 306q-350 -420 -494 -674h-10q-5 0 -37 17q166 281 498 681zM885 371q-136 -164 -353 -355q-191 -161 -383 -323l-27 40q333 278 376 316q211 185 346 348z" />
  </g>

</svg>
