<?xml version="1.0" standalone="no"?>
<!DOCTYPE svg PUBLIC "-//W3C//DTD SVG 1.1//EN" "http://www.w3.org/Graphics/SVG/1.1/DTD/svg11.dtd" >
<svg viewBox="0 -442 2048 2048">
  <g transform="matrix(1 0 0 -1 0 1606)">
   <path fill="currentColor"
d="M1986 -377h-33l-120 553l-1 -515q0 -4 -20 -38h-561v612q-16 -11 -57 -45v-567h-320v567q-29 26 -58 45v-612h-560q-20 35 -20 38l-1 515l-117 -553h-36q31 166 96 496q19 99 65 251q42 20 99 48q197 103 326 234q21 29 64 87q115 153 205 318q82 150 82 176v119
q-2 6 -8 6q-35 0 -43 -83q-20 -41 -40 -52t-68 -11q-14 0 -19 1q-16 5 -35 29t-19 40q0 23 15 23q5 0 15.5 -3t15.5 -3q17 0 36 33q12 20 20.5 65.5t18.5 64.5q12 24 43 44.5t57 20.5h41v-295q0 -16 81 -175q26 -41 76 -124q96 -176 193 -281q34 -27 101 -81
q123 -102 226 -153q27 -8 55 -16q33 -10 43 -32q18 -42 53 -189q35 -186 109 -558zM1018 1398v95h-13q-66 0 -93.5 -108t-75.5 -108q14 0 -28 2q28 -39 47 -39q77 0 92 73q16 77 71 85zM1757 319v17q-139 69 -218 124q23 -48 74 -141h144zM1448 319q-16 27 -45 82
q-22 52 -56 158q-3 33 -14 80q-26 29 -73 85v-11q0 -54 21 -195q23 -153 41 -183q4 -7 16 -16h110zM1148 319q-9 80 -21 239v378l-75 171v-788h96zM1757 109v175h-463v-175h463zM910 558v329q-33 -43 -70 -100q-9 -28 -18 -133q-6 -112 -38 -334h101l17 159q8 75 8 79z
M1757 -290v194h-461v-194h461zM1250 284h-432q126 -108 216 -108q92 0 216 108zM1169 176q-56 -25 -107 -44q36 -77 44 -92q27 -48 60 -83zM696 590q-44 -30 -119 -105q-26 -56 -84 -166h92q73 130 111 271zM1006 132q-57 19 -107 44v-219q37 33 62 83q23 46 45 92zM774 109
v175h-463v-175h463zM772 -290v194h-461v-194h461z" />
  </g>

</svg>
