<?xml version="1.0" standalone="no"?>
<!DOCTYPE svg PUBLIC "-//W3C//DTD SVG 1.1//EN" "http://www.w3.org/Graphics/SVG/1.1/DTD/svg11.dtd" >
<svg viewBox="0 -442 2048 2048">
  <g transform="matrix(1 0 0 -1 0 1606)">
   <path fill="currentColor"
d="M1992 200q0 -93 -30 -164q-23 -55 -87 -142q-76 -104 -215 -171q-71 -34 -222 -63q-142 -28 -230 -28q-127 0 -182 11q-23 7 -69 22q-145 46 -226 89q-139 75 -273 180q-157 123 -228 230q-28 32 -76 102q-19 34 -44 100q-28 75 -28 102q0 63 28 114q32 59 88 73
q31 2 93 8q49 14 148 39l-84 604q-2 30 11.5 77.5t32.5 65.5q7 7 43 20q88 32 252 54q147 20 259 20q342 0 579 -106q35 -16 105 -73q78 -64 76 -89l-40 -533q0 -1 2 -6q23 -11 66 -35q166 -111 228 -334q23 -82 23 -167zM1661 1253q0 12 -5 17q-6 1 -10 -3
q-63 -65 -180 -89q-141 -29 -236 -29h-262q6 0 -44 8q-177 28 -311 70q-29 8 -83 28q-9 4 -31 22l-20 -10v-20q0 -22 48 -48q35 -17 69 -33q25 -330 45 -657q3 -73 6 -145q6 -91 22 -142q71 -36 148 -71v965q170 -19 172 -19h282q-5 0 112 14q90 11 108 15q49 11 101 41
q14 6 39 21q7 6 18.5 30.5t11.5 34.5zM851 15q-15 18 -59 62l5 5q18 4 54 11q-49 22 -144 70q-36 24 -109 68q-11 -7 -11 -15q0 5 41 -66l-72 9q6 -13 23 -36q76 -74 142 -105q21 -10 71 -10q17 0 59 7zM506 -21q-250 267 -353 426v-11q0 -15 80 -140q23 -41 76 -119
q120 -144 190 -171z" />
  </g>

</svg>
