<?xml version="1.0" standalone="no"?>
<!DOCTYPE svg PUBLIC "-//W3C//DTD SVG 1.1//EN" "http://www.w3.org/Graphics/SVG/1.1/DTD/svg11.dtd" >
<svg viewBox="0 -442 2048 2048">
  <g transform="matrix(1 0 0 -1 0 1606)">
   <path fill="currentColor"
d="M2015 367q0 -9 -3 -25q-3 -19 -3 -25q-15 -186 -104 -276q-17 -17 -71 -52q-59 -37 -75 -37h-140q-6 0 -17 4q-14 4 -18 5q-111 19 -188 130q-16 22 -52 119q-40 106 -40 182q0 152 54 251q4 8 47 53q38 40 37 50l-19 186q-1 13 20 34h106v29h-106q-12 8 -29 29
q-8 18 -11 78q-2 65 -9 88q-22 76 -102 150q-93 86 -212 116q-20 5 -18 5q-21 0 -114.5 -22.5t-110.5 -31.5q-115 -61 -158 -194q-30 -94 -30 -259v-73q1 -48 1 -70q-40 -34 -64 -37q13 2 -74 2v-41q8 0 24.5 1t25.5 1q47 0 62 -28q4 -9 26 -90q26 -109 78 -275l14 3l2 5
q0 3 -40 185q32 -16 86 -57q93 -101 147 -255q51 -146 51 -291q0 -172 -107 -243q-14 -9 -63 -28q-125 -48 -232 -48q-50 0 -182 63q-93 44 -142 85q-7 6 -45 59q-84 118 -109 193q-26 79 -26 223q0 54 35.5 112t82.5 83q26 11 77 35q4 49 4 135t4.5 99.5t24.5 32.5h87v38
q-17 3 -65 4q-30 30 -30 44q0 93 26 257q10 63 38 122q19 40 128 149q76 76 166 123q19 10 104.5 42t97.5 32h224q7 0 20.5 -3t20.5 -3q136 0 292 -71l44 -29q135 -89 209 -224q1 -2 30 -75q34 -86 34 -115q0 -9 -16 -31h-85v-29h84q30 -27 49 -93q21 -71 41 -95
q22 -13 58 -35q42 -27 68 -62q80 -107 80 -314zM1795 645l-72 180h-221q2 -16 0 -49h14q41 18 81 18h115l56 -165q15 10 27 16zM1617 194v27q-69 33 -88 109l-26 142l-19 -8q-8 -18 -8 -82q0 -78 11 -106q36 -89 103 -89q14 0 27 7zM425 546q-16 4 -94 10q-3 -14 -9 -43z
M371 334q0 72 -70 72q-41 0 -92 -33q-55 -36 -55 -74q0 -49 12 -70q29 -51 85 -51q17 0 43 19q16 12 46.5 65t30.5 72z" />
  </g>

</svg>
