<?xml version="1.0" standalone="no"?>
<!DOCTYPE svg PUBLIC "-//W3C//DTD SVG 1.1//EN" "http://www.w3.org/Graphics/SVG/1.1/DTD/svg11.dtd" >
<svg viewBox="0 -442 2048 2048">
  <g transform="matrix(1 0 0 -1 0 1606)">
   <path fill="currentColor"
d="M2036 817l-12 -13v-1169l-17 -17h-1874q-5 0 -24 17v1157q-8 10 -18 25q-1 3 -1 103q0 12 -4 34.5t-4 34.5q0 29 12 41q22 22 100 40l112 24q221 62 1600 470l51 -138q0 -15 -10 -19q-6 -3 -154 -46l-1447 -427l1670 -1q9 0 20 -14v-102zM1844 1405q-47 47 -100 84
l-295 -90q32 -28 97 -81zM1907 904h-328l-54 -88h324zM1385 1272q-48 44 -100 78l-307 -84q35 -28 109 -81zM1414 904h-325l-48 -88h318zM937 1139l-104 81l-304 -90l102 -84zM933 904h-308l-67 -88h315zM1979 -114v37h-650v274h650v34h-555v380h555v35h-1813v-37h593v-378
h-593v-36h1121v-119h-1121v-36h1121v-119h-1121v-35h1813zM1979 -271v36h-1813v-36h1813zM1382 232h-578v378h578v-378z" />
  </g>

</svg>
