<?xml version="1.0" standalone="no"?>
<!DOCTYPE svg PUBLIC "-//W3C//DTD SVG 1.1//EN" "http://www.w3.org/Graphics/SVG/1.1/DTD/svg11.dtd" >
<svg viewBox="0 -442 2048 2048">
  <g transform="matrix(1 0 0 -1 0 1606)">
   <path fill="currentColor"
d="M2029 456q0 -184 -90 -249q-41 -17 -120 -56q-4 -2 -25 -23q13 -14 25.5 -29t12.5 -35q0 -66 -95 -116q-45 -24 -181 -34l-6 -35q-42 -42 -132 -114q-13 -8 -39 -8q-15 0 -23 4t-42.5 57.5t-34.5 61.5t27 53q25 42 35 54q21 19 62 59q-106 97 -109 97q2 0 -32 -12
q-27 -9 -144 -70v-442h-50v429q-13 1 -22 1q-27 0 -48 -10v-420h-47v426q-8 -2 -64 -2q-25 0 -216 33q-13 -13 -44 -34q-21 -5 -62 -18q14 -6 41 -19q86 -49 86 -103q0 -32 -33 -50q-28 -14 -57 -29q-19 -17 -38 -35q-24 -22 -43 -22q-103 0 -151 24q-12 6 -58 62
q-43 52 -157 100q-15 6 -30 13t-20 21q-7 21 -7 71q0 109 82 151q0 10 -8 32.5t-8 35.5q0 118 95 200q9 8 35.5 11.5t29.5 7.5q4 29 12 203q6 123 30 201q-2 5 -9 5q-30 0 -55 -14q-5 -3 -16 -23q-8 -13 -34 -13q-24 0 -37 1q-73 81 -73 104q0 5 7.5 24t8.5 24q-8 5 -42 5
h-5q-9 13 -22 42q-7 29 -7 67q0 39 63 76q11 6 99 46q45 19 135 61q-35 20 -35 44q0 27 60 60q50 27 87 35q13 0 37 5q7 9 22 24q26 20 59 20q44 0 81 -35q23 16 21 16q36 0 74 -38q44 -45 44 -92q0 5 -7 -48q10 -6 29 -20q42 -37 42 -132q0 -110 -28 -161q20 -14 32 -49
l-32 -115q9 -5 24 -19q6 -8 8 -33q1 -20 51 -52v850h50v-870q0 7 15 -30h54v900h51v-873l4 -2q11 0 73 18q34 9 101 30q55 25 110 49q77 34 106 34q31 0 45 -10t15 -10q13 0 38 8t39 8q44 0 65 -8q41 -16 79 -53q44 -44 42 -82q3 0 11 1h11t9 -2q33 -12 80 -51
q83 -69 83 -165zM1377 693v18h-30l-165 -63v-15h16q63 0 179 60zM780 1313q0 20 -21 57q-15 28 -31 56q-1 -42 -33 -42q-5 0 -27 25.5t-55 25.5q-8 0 -24 -2t-24 -2q9 -11 26 -35q-10 -5 -21 -5q-9 0 -26 6t-26 6q-18 0 -60 -21q-30 -16 -60 -31q13 -8 41 -22
q-5 -44 -50 -69q-40 -21 -80 -41q22 -91 34 -97q10 7 17 7q12 0 24.5 -8t13.5 -8q5 0 150 71q160 77 175 82.5t43 21.5q14 13 14 25zM1975 429q0 59 -40 111t-97 72q-18 3 -37.5 7t-27.5 22q-2 5 -2 29q0 19 -31 47q-27 26 -48 34q-29 11 -59 11q-16 0 -48 -16t-35 -16
q-13 0 -20 11t-17 11q-18 0 -59 -25q-19 -90 -98 -145q-27 -19 -72 -35q-70 -24 -76 -27q-57 -25 -161 -25q-89 0 -98 2q-21 4 -69 42.5t-48 56.5q0 23 9 55.5t9 42.5q0 20 -17.5 47.5t-17.5 40.5q0 48 11 95.5t11 54.5q-5 -1 -12 -1q-35 0 -35 32q0 7 22 54.5t22 88.5
q0 55 -11 94q-8 16 -22 48q-141 -60 -258 -111q-43 -16 -122 -54q-6 -14 -13 -27q-14 -25 -42 -26v-13q0 -38 29 -52q11 -1 32 -5q15 -15 15 -31q0 -11 -13 -36t-15 -34q-15 -64 -19 -161q-2 -81 -5 -162q-7 -116 -7 -108q0 -23 5 -68t5 -68q0 -40 -36 -63q-55 -25 -161 -81
q-32 -19 -32 -36v-82q4 -3 80 -37q59 -26 115 -87q18 -27 46 -59q20 -12 93 -12q23 0 65 27q50 33 65 38v14q-69 58 -115 58q-7 0 -19 -5t-19 -5q9 0 -18 4l-13 11l-19 2l-57 66q-4 0 -12 -2t-12 -2q-18 0 -28 9q7 18 21 25q34 17 88 17q20 0 60.5 -4.5t60.5 -4.5
q70 0 98 42l56 84h8q9 -15 9 -21q0 -5 -9.5 -25t-9.5 -25q0 -7 4 -8q12 -2 35 -5q141 -23 184 -23q104 0 199 32q23 14 70 39q70 30 93 30q37 0 101 -52q92 -75 95 -77q17 -10 51 -11q42 0 53 -2v-8q-29 -27 -40 -27h-101q-10 0 -54.5 -60.5t-44.5 -72.5q0 8 30 -40
q9 -17 28 -49q14 19 45 53q14 8 39 28q-29 29 -29 51q0 8 5 11q3 -7 10 -7q3 0 7 2t7 2q10 0 39 -23q11 19 39 44q57 11 114 23q51 11 98 74q-12 11 -23 22q-14 13 -14 27q0 25 22 64q5 9 85.5 48t99.5 75q30 56 30 131zM344 968q-2 24 -11 68q-7 7 -16 23t-43 145h-11
l-70 -26q-38 -17 -61 -42q9 -8 9 -18q0 -6 -3.5 -18.5t-3.5 -18.5q0 -8 2 -16q4 2 9 2q8 0 18 -8.5t15 -8.5q10 0 27.5 7.5t27.5 7.5q7 0 19.5 -8t12.5 -14q0 -22 -22.5 -43t-46.5 -21q-5 0 -9 1q-7 -14 -7 -19q20 0 30 -4.5t17 -23.5t15 -19q27 33 102 54zM350 292v106
q-28 20 -30 20q-6 0 -15.5 -2.5t-13.5 -2.5q-58 -77 -58 -122q0 17 14 -60h13q27 0 60 30q-2 8 30 31zM489 31l-40 10q5 -10 13 -31q10 6 27 21zM1826 406q0 -20 -4 -29q-6 -14 -81 -74q-70 -57 -70 -73q0 -4 30 -39t30 -40q0 -18 -22 -18q-15 0 -37.5 34t-22.5 50
q0 4 18 32q14 22 37 94.5t23 97.5q0 2 -3 16q9 21 31 21q28 0 49.5 -22t21.5 -50zM723 1335q0 -11 -55 -61h-27v18l71 70l11 -3v-24zM1463 457q0 -6 -19 -55t-19 -70q0 -10 6 -27.5t6 -27.5q0 -1 -17 -46q-33 50 -33 93q0 99 68 144q8 -4 8 -11zM423 1201q0 -38 -24 -38
q-23 0 -23 37q0 39 20 39q10 0 24 -7q0 -5 1.5 -15.5t1.5 -15.5zM1782 410q0 6 -11 14h-11q-7 -26 -22 -79q44 51 44 65z" />
  </g>

</svg>
