<?xml version="1.0" standalone="no"?>
<!DOCTYPE svg PUBLIC "-//W3C//DTD SVG 1.1//EN" "http://www.w3.org/Graphics/SVG/1.1/DTD/svg11.dtd" >
<svg viewBox="0 -442 2048 2048">
  <g transform="matrix(1 0 0 -1 0 1606)">
   <path fill="currentColor"
d="M1558 -355h-1476v1504l739 405l737 -405v-1504zM1448 -245v1328l-628 347l-628 -347v-1328h537v126h164v-126h555zM1336 906q0 -97 -64.5 -157.5t-159.5 -60.5q-13 0 -25 1v-314h-509v115l-3 2l-112 -54v210l114 -55v94l-4 3q-82 13 -134 72.5t-52 142.5q0 92 64 157
t156 65t155.5 -64.5t63.5 -156.5q0 -102 -87 -175h245q-86 76 -86 175q0 91 64 156t155 65q92 0 155.5 -64.5t63.5 -156.5zM1024 -72h-431v108h431v-108zM1247 990q-51 68 -98 67v-103q36 10 98 36zM1270 880v42l-98 -30q29 -48 59 -85q39 52 39 73zM1079 954v103
q-64 -19 -95 -70zM1178 767l-62 83l-59 -83q23 -12 59 -12q20 0 62 12zM1062 892l-97 30q0 -3 -2 -9.5t-2 -9.5q0 -20 13.5 -53t28.5 -43zM739 987q-40 62 -97 70v-103zM759 883v39l-98 -30q22 -37 62 -85q36 57 36 76zM574 954v103h-10q-70 -32 -87 -71zM667 771
q-20 27 -62 79l-59 -83q24 -12 53 -12h13q40 0 55 16zM552 889l-98 33v-41q0 -12 14.5 -39.5t24.5 -34.5z" />
  </g>

</svg>
