<?xml version="1.0" standalone="no"?>
<!DOCTYPE svg PUBLIC "-//W3C//DTD SVG 1.1//EN" "http://www.w3.org/Graphics/SVG/1.1/DTD/svg11.dtd" >
<svg viewBox="0 -442 2048 2048">
  <g transform="matrix(1 0 0 -1 0 1606)">
   <path fill="currentColor"
d="M430 1394l-41 -106q-15 13 -40 43l39 109q15 -14 42 -46zM508 1319l-42 -109q-19 15 -42 40l42 113zM353 1473l-42 -110l-42 43l41 109q23 -18 43 -42zM1067 583q-10 -41 -46 -50l-811 800q16 20 51 58zM1996 561q0 -396 -280.5 -676t-676.5 -280t-676.5 280t-280.5 676
q0 281 154 513l41 -41l116 49q-186 -229 -186 -521q0 -340 246 -586t586 -246q341 0 585 245t244 587q0 340 -244.5 585t-584.5 245q-304 0 -521 -187l52 129q-13 18 -37 34q208 151 506 151q396 0 676.5 -280.5t280.5 -676.5zM1433 560q0 -162 -117.5 -279t-279.5 -117
q-160 0 -277.5 117t-117.5 277q0 112 64 214q43 -41 190 -188q30 -33 94 -91q13 -9 31 -9q34 0 67 33.5t33 68.5q0 20 -13 38q-7 10 -89 90q-27 26 -187 181q88 61 206 61q161 0 278.5 -117.5t117.5 -278.5zM390 1134l-109 -42q-13 8 -43 39l109 45zM235 1289l-111 -44
q-27 27 -38 45q104 38 107 38q4 0 42 -39zM312 1212l-106 -42q-10 6 -46 42l109 39q12 -8 43 -39z" />
  </g>

</svg>
