<?xml version="1.0" standalone="no"?>
<!DOCTYPE svg PUBLIC "-//W3C//DTD SVG 1.1//EN" "http://www.w3.org/Graphics/SVG/1.1/DTD/svg11.dtd" >
<svg viewBox="0 -442 2048 2048">
  <g transform="matrix(1 0 0 -1 0 1606)">
   <path fill="currentColor"
d="M1810 835q0 -47 -36 -81h-126q-7 -56 -34 -166q21 -14 31 -14q5 0 14.5 6t14.5 6q25 0 25 -25q0 -5 -6.5 -11.5t-6.5 -11.5v-41q44 -8 76 -41t32 -77q0 -60 -36 -81h-175q-30 31 -30 79q0 103 102 117q3 7 3 18q0 44 -51 49q-69 -196 -240 -324q7 -15 11 -15q3 0 4.5 2
t4.5 2q24 0 24 -26q0 -5 -6.5 -13t-6.5 -13v-38q108 -23 108 -119q0 -45 -33 -79h-178q-29 22 -29 79q0 46 30.5 79.5t76.5 36.5v40q0 5 -8 9q-1 16 -16 44q-51 -28 -153 -83l105 -382q31 -115 31 -117q0 -20 -15 -20h-742q-15 0 -15 20q0 3 31 117l105 380q-53 25 -153 85
q-11 -9 -13 -18q1 -5 1 -13q0 -9 -6 -14t-6 -7v-38q107 -23 107 -119q0 -54 -29 -79h-178q-33 31 -33 79q0 46 31 79.5t77 36.5v40q0 2 -6.5 10t-6.5 17q0 26 24 26q7 0 9 -4l11 15q-144 114 -211 255q-7 19 -14 39q-13 30 -20 30q-23 0 -46 -24v-40q105 -22 105 -120
q0 -50 -30 -79h-175q-36 24 -36 81q0 42 31.5 77t73.5 38q4 9 4 35q0 6 -7 16t-7 16q0 25 25 25q5 0 14.5 -6t14.5 -6q10 0 31 14q-7 15 -31 164q-3 2 -122 2q-43 18 -43 81q0 77 100 116q9 4 9 19q0 17 -7 32t-7 19q0 24 25 24q-4 0 28 -18q18 -6 53 -17q14 34 47 101
q18 25 39 66v4q0 4 -2.5 12.5t-2.5 12.5q0 81 67 107q14 3 40 13q1 3 1 6q0 17 -8 36t-8 24q0 23 28 23q15 0 19 -10.5t7 -20t30 -35.5q147 100 373 127q8 1 19 8q2 11 2 21q0 8 -4.5 24t-4.5 24q0 20 21 20q22 0 22 -21q0 -6 -5.5 -18.5t-5.5 -20.5q0 4 2 -29q11 -7 20 -8
q234 -31 370 -127q16 11 33 34q1 32 26 32q28 0 28 -23q0 -6 -8 -18.5t-8 -16.5t1 -11v-12q0 -9 40 -21q24 -7 45 -38.5t21 -56.5q0 -6 -2.5 -16.5t-2.5 -16.5q0 -11 23 -51l32 -52q10 -24 32 -72q25 10 53 16q7 19 26 19q27 0 27 -24q0 -6 -6.5 -17t-6.5 -17v-23
q0 -10 8 -13q53 -21 72 -39q28 -27 28 -77zM1395 1355q-4 -2 -22 -20q14 -14 19 -14zM1676 954v43q-4 1 -10 7q-18 -5 -52 -17q5 -13 13 -49q31 12 49 16zM1566 1008q-23 71 -65 122q-10 -8 -45 -7q39 -64 64 -128q15 5 46 13zM1316 1319q-29 33 -130 73q-97 39 -145 39
q19 -23 22 -50q121 -30 230 -95zM1607 753q-38 25 -38 82q0 19 11 46.5t11 30.5q0 17 -13 57q-15 -5 -46 -13q28 -69 28 -167q0 -84 -29 -167q2 -1 47 -13q5 15 29 144zM1484 980q-36 90 -80 144h-89q-32 37 -28 98l-233 -318q19 -19 35 -58zM1262 1253q-125 83 -201 83
q-28 -57 -59 -57q-7 0 -20.5 1.5t-19.5 1.5v-341q30 -4 71 -22zM1516 763q0 77 -20 177l-398 -120v-65l398 -118q20 103 20 126zM851 1431h-11q-6 0 -37 -8q-144 -37 -227 -104q8 -12 27 -33q106 68 226 95q4 30 22 50zM930 941v341q-7 0 -21.5 -1.5t-21.5 -1.5
q-33 0 -56 57h-10q-5 -1 -25 -7q-100 -29 -166 -76l232 -334q36 22 68 22zM1566 570l-47 13q-23 -71 -82 -149t-121 -121l33 -37q163 123 217 294zM519 1335q-7 8 -22 20v-31q2 0 6 -1q4 0 16 12zM1484 595l-395 130q-10 -25 -26 -47l232 -332q125 92 189 249zM838 908
l-233 314q0 -70 -28 -98h-89q-36 -44 -80 -144l395 -134q4 13 35 62zM1262 325l-176 248l79 -300h11q30 16 86 52zM1132 258l-105 385q-22 -18 -46 -29q0 -7 -1 -22v-23q0 -34 50 -157q35 -82 69 -164zM1313 256l-27 33q-43 -32 -109 -58q3 -15 10 -46q82 30 126 71z
M436 1123q-31 0 -49 7q-45 -71 -61 -122q15 -4 46 -13q25 64 64 128zM794 755v65l-398 120q-20 -96 -20 -141v-48q0 -10 20 -114zM1060 236l-97 259v-269h37q1 0 60 10zM1158 169q-5 17 -13 50q-3 0 -31 -10q5 -15 13 -46q10 1 31 6zM913 571q0 8 -1 23t-1 21q-18 7 -46 28
l-106 -383q11 -4 34 -12q35 83 69 166q51 125 51 157zM929 226v269l-97 -259q59 -10 60 -10h37zM278 987q-42 17 -52 17q-4 0 -6 -3.5t-4 -3.5v-43q20 -4 49 -16q3 17 13 49zM1223 -84l-53 214q-12 -3 -28 -3zM1091 154q-11 21 -16 43h-10q-17 0 -51.5 -6.5t-51.5 -6.5v-47
h45q16 0 84 17zM829 678q-17 25 -26 47l-395 -130q58 -152 189 -249zM806 573l-176 -251q74 -49 97 -49zM360 622q-28 70 -28 167q0 92 28 167q-15 4 -46 13q-13 -40 -13 -57q0 -6 11 -33t11 -44q0 -59 -38 -82q7 -49 29 -144q15 5 46 13zM1218 -160l-115 278
q-71 -20 -131 -19q-13 -37 -13 -40q0 -21 4 -29q43 -4 73 -38.5t30 -77.5q0 -42 -25 -74h177zM930 137v47q-19 0 -56.5 6.5t-56.5 6.5q-5 -24 -16 -43q76 -17 84 -17h45zM778 209l-31 10q-5 -17 -13 -50q10 -2 31 -7q3 9 13 47zM715 231q-53 19 -113 58q-7 -13 -23 -37
q56 -40 126 -67q3 15 10 46zM576 313q-142 98 -204 270l-46 -13q62 -191 220 -294zM933 33v40q0 4 -6 13t-7 13q-58 0 -131 19l-115 -278h177q-25 24 -25 74q0 93 107 119zM750 127q-16 0 -28 3l-53 -214z" />
  </g>

</svg>
