<?xml version="1.0" standalone="no"?>
<!DOCTYPE svg PUBLIC "-//W3C//DTD SVG 1.1//EN" "http://www.w3.org/Graphics/SVG/1.1/DTD/svg11.dtd" >
<svg viewBox="0 -442 2048 2048">
  <g transform="matrix(1 0 0 -1 0 1606)">
   <path fill="currentColor"
d="M1697 1462q0 -45 -51 -45q-57 0 -57 54q0 18 19 33t38 15t35 -18.5t16 -38.5zM1558 1488q0 -49 -54 -49q-51 0 -51 52q0 18 17 33.5t36 15.5q52 0 52 -52zM1715 1385l-31 -199l-419 68v16q0 62 25 124q18 45 77 45h6zM1077 1443q0 -20 -19.5 -37t-39.5 -17
q-19 0 -34.5 15.5t-15.5 34.5t17 37t36 18q20 0 38 -15.5t18 -35.5zM950 1383q0 -56 -56 -56q-49 0 -49 50q0 52 55 52q50 0 50 -46zM1218 1236l-381 -186q-17 35 -35 69q-22 45 -22 71t14 47q21 33 337 180zM567 1048q0 -57 -54 -57q-48 0 -48 51q0 54 54 54q48 0 48 -48z
M795 990l-204 -373q-14 5 -36 17q-59 33 -70 43q-38 30 -38 68q0 33 74 164q88 158 96 177zM499 924q0 -57 -54 -57q-45 0 -45 51q0 57 54 57q45 0 45 -51zM1728 -349h-95v1371q-142 67 -208 65h-5v-1436h-93v1439q-6 3 -17 3q-111 0 -203 -58v-1384h-95v1309
q-46 -46 -83 -98q-16 -22 -70 -116q-58 -99 -58 -108v-987h-97v775q-86 -194 -145 -299q-66 -117 -66 -113v-363h-98v216q-88 -123 -190 -216h-123q265 222 478 675q50 111 153 333q121 252 235 361q157 150 393 150q190 0 387 -103v-1416zM314 555q0 -55 -53 -55
q-46 0 -46 52q0 56 52 56q47 0 47 -53zM545 508l-195 -379l-92 48q-55 30 -55 77q0 33 70 169l94 176zM252 433q0 -57 -56 -57q-43 0 -43 51q0 54 54 54q45 0 45 -48z" />
  </g>

</svg>
