<?xml version="1.0" standalone="no"?>
<!DOCTYPE svg PUBLIC "-//W3C//DTD SVG 1.1//EN" "http://www.w3.org/Graphics/SVG/1.1/DTD/svg11.dtd" >
<svg viewBox="0 -442 2048 2048">
  <g transform="matrix(1 0 0 -1 0 1606)">
   <path fill="currentColor"
d="M2040 26h-402q-14 16 -20 16q-13 0 -28.5 -8t-18.5 -8h-1489v1058h1489q4 0 18 -9.5t22 -9.5q19 0 26 19h403v-1058zM1983 83v956h-343q1 -28 -32 -28q-32 0 -32 28h-1453v-956h1452q9 28 35 28q35 0 30 -28h343zM1640 933q0 -33 -32 -33t-32 35q0 32 32 32t32 -34z
M1640 828q0 -30 -30 -30q-34 0 -34 30q0 31 34 31q30 0 30 -31zM1640 723q0 -33 -32 -33t-32 32q0 35 34 35q30 0 30 -34zM1640 615q0 -33 -30 -33q-34 0 -34 32t34 32q30 0 30 -31zM1640 507q0 -30 -32 -30t-32 30q0 34 32 34t32 -34zM1640 399q0 -33 -30 -33q-34 0 -34 35
q0 32 34 32q30 0 30 -34zM1640 293q0 -29 -32 -29t-32 29q0 31 32 31t32 -31zM1640 186q0 -33 -30 -33q-34 0 -34 35q0 31 32 31t32 -33zM997 668h-28v127h28v-127zM898 668h-46v127h46v-127zM972 528h-15v76h15v-76zM771 668h-24v127h24v-127zM1067 357h-18v104h18v-104z
M854 532h-31v75h31v-75zM997 357h-37v104h37v-104zM774 532h-15v75h15v-75zM905 357h-18v104h18v-104zM596 668h-50v127h50v-127zM717 532h-31v75h31v-75zM654 532h-15v75h15v-75zM498 668l-28 4v123h28v-127zM781 357h-34v104h34v-104zM596 532h-31v75h31v-75zM711 357h-18
v104h18v-104zM399 670h-50v125h50v-125zM514 532h-15v75h15v-75zM641 357h-34v104h34v-104zM453 532h-31v75h31v-75zM542 357h-18v104h18v-104zM380 532h-31v75h31v-75zM472 357h-34v104h34v-104zM386 357h-37v104h37v-104z" />
  </g>

</svg>
