<?xml version="1.0" standalone="no"?>
<!DOCTYPE svg PUBLIC "-//W3C//DTD SVG 1.1//EN" "http://www.w3.org/Graphics/SVG/1.1/DTD/svg11.dtd" >
<svg viewBox="0 -442 2048 2048">
  <g transform="matrix(1 0 0 -1 0 1606)">
   <path fill="currentColor"
d="M2014 1060q0 -70 -4 -99q-4 -32 -38 -92.5t-34 -66.5q0 -9 4.5 -25.5t4.5 -25.5q0 -20 -22 -35.5t-43 -15.5q-4 0 -12 1.5t-12 1.5q-5 0 -8 -1q-21 -24 -72 -64q-49 -26 -206 -79q-130 -45 -198 -96q-170 -128 -407 -362q-324 -319 -390 -379q-14 -13 -84 -55.5
t-80 -42.5q-7 0 -46 15t-46 20q-9 10 -28 27q-12 5 -35 17q-12 8 -50 46t-44.5 50.5t-19.5 35.5q-9 9 -26 28q-7 18 -21.5 54.5t-14.5 37.5q0 12 43 82q41 66 56 82q94 105 374 395q236 246 367 401q5 6 30 65q32 78 97 234q14 37 47 106q4 6 37 40q28 29 28 37q0 5 -1.5 14
t-1.5 14q0 22 17 43.5t38 21.5q9 0 25 -5t25 -5q-8 0 84 49q51 27 171 27q33 0 112 -22q262 -73 351 -315q4 -20 15 -60q18 -57 18 -99zM1895 97q0 -72 -42 -125t-112 -66v37q97 34 97 104q0 60 -80 93q-97 40 -118 73l-2 -412q0 -50 -69 -83q-57 -28 -113 -28
q-64 0 -117 30q-62 35 -62 95q0 57 62 93q53 29 115 29q68 0 118 -28l4 489q24 -25 77 -68q80 -43 160 -85q82 -54 82 -148zM756 1208q0 -125 -104 -174q-32 -15 -47 -14h-5v33q97 39 97 107q0 60 -77 92q-96 40 -119 75l-2 -407q0 -8 -9 -28q-41 -89 -174 -89
q-65 0 -116 28q-61 34 -61 94q0 59 61 95q51 31 114 31q58 0 120 -29l3 486q51 -51 83 -71l158 -80q78 -50 78 -149zM1760 1368v17q-11 8 -34 20v-37h34zM1822 1305v27l-10 10h-27v-37h37zM1879 1246q-6 11 -20 33h-11v-33h31zM1685 1432q-13 5 -15 5q-5 -1 -6 -4z
M1700 1368v33l-37 4v-37h37zM1885 1183v33l-37 4v-37h37zM1759 1305v37h-33v-37h33zM1822 1246v33h-37v-33h37zM1637 1431v14q-11 3 -33 10v-24h33zM1923 1130q-4 11 -12 27v-34q7 7 12 7zM1578 1431v33h-37v-33h37zM1637 1368v37h-33v-37h33zM1885 1123v34h-37v-34h37z
M1700 1305v37h-37v-37h37zM1759 1246v33h-33v-33h33zM1822 1183v37h-37v-37h37zM1932 1061q-3 21 -3 36h-18v-36h21zM1578 1368v37h-37v-37h37zM1885 1061v36h-37v-36h37zM1515 1431v33h-37v-33h37zM1637 1305v37h-33v-37h33zM1700 1246v33h-37v-33h37zM1759 1183v37h-33
v-37h33zM1822 1123v34h-37v-34h37zM1935 998v33l-24 4v-37h24zM1452 1431v33h-33v-33h33zM1515 1368v33l-34 4l-3 -37h37zM1578 1305v37h-37v-37h37zM1637 1246v33h-33v-33h33zM1700 1183v33l-37 4v-37h37zM1885 998v33l-37 4v-37h37zM1759 1123v34h-33v-34h33zM1822 1061
v36h-37v-36h37zM1932 955v17h-21v-34h11q10 19 10 17zM1392 1431v34q-11 -5 -33 -17v-17h33zM1452 1368v37h-33v-37h33zM1578 1246v33h-37v-33h37zM1637 1183v37h-33v-37h33zM1700 1123v34h-37v-34h37zM1759 1061v36h-33v-36h33zM1885 938v34h-37v-34h37zM1515 1305v37h-37
v-37h37zM1822 998v37h-37v-37h37zM1393 1368v37h-34v-37h34zM1885 879v33h-37v-33h37zM1578 1183v37h-37v-37h37zM1637 1123v34h-33v-34h33zM1700 1061v36h-37v-36h37zM1452 1305v37h-33v-37h33zM1515 1246v33h-37v-33h37zM1759 998v37h-33v-37h33zM1822 938v34h-37v-34h37z
M1333 1431q-2 9 -5 9q-6 -2 -16 -9h21zM1885 838v11l-21 3q8 -8 21 -14zM1333 1380v21l-21 3q4 -8 21 -24zM1515 1195v21l-25 3q12 -17 25 -24zM1577 1132v25h-24zM1700 1007v24l-25 3q6 -9 25 -27zM1822 888v24h-28q15 -15 28 -24zM1637 1070v27h-28zM1392 1311v31h-27
q9 -11 27 -31zM1452 1255v24h-28q11 -8 28 -24zM1759 944v28h-27zM1888 753v27q-367 306 -650 650h-27v-23q0 -26 313.5 -340t340.5 -314h23zM1797 752v5h-12v-5h12zM1393 1123v21l-14 13h-20v-34h34zM1637 879v20l-13 13h-20v-33h33zM1207 1305v28q-6 -10 -21 -28h21z
M1333 1183v20l-16 17h-21l-3 -37h40zM1452 1061v23l-13 13h-20v-36h33zM1578 938v21l-13 13h-24v-34h37zM1700 836l-16 17h-21v-40h34zM1515 998v23l-13 14h-21l-3 -37h37zM1760 753v27l-7 7h-27v-34h34zM1267 1246v23l-10 10h-24v-33h34zM1757 727h-31v-21q16 10 31 21z
M1393 1061v36h-34v-36h34zM1578 879v33h-37v-33h37zM1637 813v40h-33v-40h33zM1207 1246v33h-33v-33h33zM1333 1123v34h-40v-34h40zM1452 998v37h-33v-37h33zM1267 1183v37h-34v-37h34zM1515 938v34h-37v-34h37zM1700 753v34h-37v-34h37zM1393 998v37h-34v-37h34zM1578 813
v40h-37v-40h37zM1207 1183v37h-33v-37h33zM1333 1061v36h-40v-36h40zM1515 879v33h-37v-33h37zM1700 693v34h-37v-24q19 -10 24 -10h13zM1452 938v34h-33v-34h33zM1637 753v34h-33v-34h33zM1267 1123v34h-34v-34h34zM1637 716v11h-18q7 -5 18 -11zM1207 1132v25h-18
q6 -8 18 -25zM1577 759v28h-33q10 -10 33 -28zM1393 938v34h-34v-24l10 -10h24zM1452 879v33h-34v-23l10 -10h24zM1515 849l-34 4l-3 -18l33 -22zM1333 998v33l-36 4q-4 -4 -4 -9l19 -28h21zM1267 1060v37h-34q11 -14 34 -37zM1641 659q-129 64 -279 211q-144 141 -221 274
q-8 13 -26 38q-17 -38 -17 -39q0 -4 18 -41q13 -27 43 -79q42 -59 152 -168.5t170 -153.5q84 -61 121 -61q3 0 39 19zM1547 626q-40 18 -114 64q-34 27 -181 177q-36 34 -103 108q-16 20 -65 113q-13 -48 -26 -97q-15 -56 -39 -91q-47 -68 -232 -275q-173 -185 -514 -557
q117 -169 256 -253q184 173 555 515q88 82 274 231q35 24 92 39q49 13 97 26zM496 -205q-119 71 -246 243l-71 -110q61 -82 167 -175q37 -32 40 -32q10 0 110 74zM1170 605q0 -24 -11 -40q-5 -8 -58 -60q-47 -47 -142 -140q-3 -1 -11 -1q-16 0 -64.5 43t-57.5 61q-4 8 -4 21
q0 11 91 105t111 107q17 11 40 11q28 0 67 -39.5t39 -67.5zM872 355q0 -23 -19.5 -43t-42.5 -20q-19 0 -39.5 20t-20.5 39q0 23 20 43t43 20q19 0 39 -20t20 -39zM1123 598q-23 23 -70 67l-96 -96q42 -32 71 -70zM841 356q0 6 -10.5 16.5t-16.5 10.5q-9 0 -19 -12t-10 -21
q0 -24 23 -24q9 0 21 10.5t12 19.5z" />
  </g>

</svg>
