<?xml version="1.0" standalone="no"?>
<!DOCTYPE svg PUBLIC "-//W3C//DTD SVG 1.1//EN" "http://www.w3.org/Graphics/SVG/1.1/DTD/svg11.dtd" >
<svg viewBox="0 -442 2052 2048">
  <g transform="matrix(1 0 0 -1 0 1606)">
   <path fill="currentColor"
d="M2052 270q0 -100 -17 -163q-1 -3 -26 -43.5t-36 -53.5q-22 -29 -46 -39.5t-85 -10.5h-29q-75 0 -164.5 119.5t-109.5 119.5q-8 0 -62 -35t-90 -41q-19 -3 -93 -3q-26 0 -97 39.5t-130 39.5q-54 0 -124 -39t-102 -39q-82 0 -94 2q-48 8 -93 38q-14 12 -28 23
q-17 15 -31 15q-15 0 -60 -54q-36 -42 -53 -70q-72 -113 -189 -113q-69 0 -85 8q-5 3 -23 20q-75 73 -86 114q-17 63 -17 166q0 11 2.5 31.5t2.5 29.5q13 338 191 626q3 5 65 74q31 40 104 105q22 13 61 22q62 14 64 15q43 13 64 13q66 0 196.5 -16t196.5 -16h49q33 1 49 1
q54 0 160 15t160 15q128 0 240 -49q14 -6 72 -70q35 -34 97 -108l50 -100q146 -294 146 -588zM1982 280q0 219 -88 451q-2 5 -68 124q-14 33 -50 93q-59 75 -127 116q-11 9 -36 24q-67 27 -132 27q-77 0 -264 -21q-74 -8 -100 -8q-121 0 -142 1q-37 2 -141 16
q-89 12 -142 12q-107 0 -171 -27q-1 0 -26 -17q-80 -53 -134 -123l-60 -109q-23 -37 -61 -115q-71 -203 -79 -351q-1 -13 -5 -47q-4 -30 -4 -48q0 -239 151 -239q5 0 8 1q44 13 54 21t107 131q67 86 132 86q26 0 68 -31q48 -35 66 -41q22 -7 72 -7q46 0 79.5 16t67.5 32
q41 15 108 15q68 0 111 -15q35 -16 70.5 -32t80.5 -16q59 0 82 10q12 5 60 41q37 28 62 28q54 0 110 -57q7 -8 81 -102q17 -24 46 -57q31 -23 75 -23q28 0 46.5 7.5t43.5 36.5t31 50q18 66 18 147zM1851 748q0 -35 -25.5 -59t-61.5 -24q-83 0 -83 83t83 83q36 0 61.5 -23.5
t25.5 -59.5zM1713 877q0 -85 -83 -85q-36 0 -61 24.5t-25 60.5q0 34 26 59t60 25q83 0 83 -84zM1713 618q0 -35 -24 -59.5t-59 -24.5q-36 0 -61 24.5t-25 59.5q0 34 26 59.5t60 25.5q83 0 83 -85zM1579 748q0 -83 -84 -83q-36 0 -60.5 24t-24.5 59q0 36 24.5 59.5t60.5 23.5
q84 0 84 -83zM1324 633l-85 -51h-61v127h61q7 0 85 -51v-25zM1525 428q0 -63 -42.5 -104.5t-105.5 -41.5t-106 42.5t-43 105.5q0 62 43.5 103.5t105.5 41.5q63 0 105.5 -42t42.5 -105zM1148 493h-164v101h164v-101zM955 582h-60q3 0 -88 51v25q92 51 91 51h57v-127zM679 781
q0 -77 -51 -130t-128 -53q-74 0 -126 54.5t-52 128.5q0 76 51.5 128t126.5 52q76 0 127.5 -52t51.5 -128zM906 428q0 -62 -42.5 -104t-104.5 -42q-64 0 -107 42t-43 106q0 63 43.5 104t106.5 41q62 0 104.5 -42.5t42.5 -104.5zM1828 748q0 63 -64 63q-63 0 -63 -63
q0 -64 63 -64q64 0 64 64zM1694 877q0 65 -65 65q-62 0 -62 -65q0 -66 63 -66q64 0 64 66zM1694 618q0 66 -64 66q-63 0 -63 -66q0 -65 62 -65q65 0 65 65zM1560 748q0 63 -65 63q-66 0 -66 -63q0 -64 66 -64q65 0 65 64zM1298 644q-64 46 -69 46h-29v-86h33q6 0 65 40z
M1420 509v21q-13 16 -40 16t-57 -13q-37 -16 -37 -39q0 -18 24 -18q5 0 42 15q26 -1 68 18zM1490 380q0 4 -2 10.5t-2 9.5q-57 -71 -159 -72q45 -15 58 -15q59 0 84 30q21 25 21 37zM1126 509v63h-118v-63h118zM936 604v86h-32l-72 -46l69 -40h35zM634 735v90h-89v85h-92
v-86h-83v-90h83v-88h93v89h88zM797 518q0 28 -46 28q-27 0 -55 -15q-33 -17 -33 -42q0 -6 8 -13h28q4 0 15 7t15 8q21 2 41 4q27 4 27 23zM867 378v22q-60 -83 -162 -72q45 -15 57 -15q60 0 85 30q20 24 20 35zM1822 748q0 -17 -14.5 -36t-31.5 -19q-11 0 -11 10h3
q18 -2 32.5 21.5t12.5 42.5q9 -16 9 -19zM1685 872q0 -17 -14 -32.5t-31 -15.5q11 0 -10 5q2 0 5 -1q16 0 31.5 25t12.5 41q6 -12 6 -22zM1685 614q0 -15 -14 -31.5t-29 -16.5q11 0 -12 4q2 0 5 -1q16 0 31.5 25.5t12.5 41.5q6 -12 6 -22zM1551 744q0 -15 -14.5 -33
t-28.5 -18q-11 0 -11 10q17 0 32 21t16 39q6 -11 6 -19z" />
  </g>

</svg>
