<?xml version="1.0" standalone="no"?>
<!DOCTYPE svg PUBLIC "-//W3C//DTD SVG 1.1//EN" "http://www.w3.org/Graphics/SVG/1.1/DTD/svg11.dtd" >
<svg viewBox="0 -442 2048 2048">
  <g transform="matrix(1 0 0 -1 0 1606)">
   <path fill="currentColor"
d="M2034 436q0 -110 -49 -237q-9 -23 -53.5 -86t-65.5 -84q-7 -7 -86 -57q-35 -25 -108 -70q-15 -8 -155 -66q-55 -24 -171 -57q-18 -3 -109 -23q-76 -17 -98 -17h-227q2 0 -45 12q-71 14 -212 46q-143 38 -225 76l-51 36q-147 104 -196 176q-13 19 -46 108q-38 101 -47 165
q-8 52 -8 173q0 41 29 131q10 39 37 115q78 165 282 341q98 84 158 117l48 18q227 85 409 85q-7 0 73 -6q152 -11 194 -19q110 -19 180 -68q10 -7 50 -56l420 215l15 -1q6 -9 6 -19q0 -19 -70 -72q-151 -114 -306 -236q1 -10 6 -45q4 -28 4 -45q0 -25 -19.5 -72t-19.5 -55
v-89q22 -24 65 -24q19 0 55.5 12.5t55.5 12.5q162 0 221 -74.5t59 -260.5zM1869 1323v11h-17q-9 0 -246 -126q-212 -113 -277 -150q-114 -69 -343 -205v-18l4 -4h26l99 53q71 37 213 113q10 6 541 326zM1382 928v17l-219 -122q42 -11 69 -11q103 0 135 77q15 36 15 39z
M1236 1039q-21 4 -33 4l-27 -9q-84 -28 -104 -88zM1956 405q0 172 -18 204q-37 66 -94.5 76t-80.5 10q-8 0 -54 -23.5t-79 -23.5q-52 0 -93 43.5t-41 95.5q0 76 29 156q12 33 12 45q0 -13 -6 43q-39 -14 -91 -48q-8 -12 -8 -29q1 -23 -1 -29q-31 -111 -115 -152
q-31 -15 -77 -15q-83 0 -115 11q-35 12 -27 12q-1 0 -344 -186q-4 -24 -27 -74q-50 -68 -164 -108q22 -72 22 -71q0 -16 -20 -50q-62 -104 -193 -104q-20 0 -43.5 26.5t-23.5 46.5q0 120 118 193q8 5 37 11q31 63 62 125q40 75 100 88q30 0 89 9q21 7 48 30l44 38
q69 53 211 150q4 88 63 137t148 49q13 0 39.5 -5t39.5 -5q25 0 158 81q-15 14 -45 35q-147 65 -366 65q-14 0 -36 -4q-27 -4 -36 -5q-231 -20 -358 -91q-80 -44 -149 -104q-125 -108 -181 -182q-78 -104 -103 -233q-2 -10 -15 -51q-8 -27 -8 -57q0 -12 1 -34.5t1 -34.5
q0 -104 1 -111q2 -15 14 -45q57 -147 85 -186q42 -61 157 -133q20 -15 64 -39q203 -84 349 -100q15 -2 55 -12q34 -9 54 -9q15 0 176 2q35 -1 104 1q12 2 36 7q58 7 171 35q116 46 304 169q29 15 81 53q56 56 97 142q42 90 42 165zM1002 759v7q0 62 -62 62q-8 0 -92 -67
l-102 -82q0 -22 6 -44h20q-6 0 160 88q25 10 70 36zM720 627q0 37 -33 37q-49 0 -110 -69q-52 -59 -74 -116q-5 -33 -16 -100q46 53 77 77.5t64 38.5q11 3 31.5 12.5t40.5 51.5t20 68zM394 334q0 22 -20 22t-35 -29q-14 -25 -14 -46q0 -42 25 -42q6 0 17 11q27 98 27 84z
M1835 320q0 -56 -50 -116q-53 -63 -107 -63q-98 0 -98 133q0 57 54 97q50 36 109 36q64 0 87 -45q5 -10 5 -42zM1534 114q0 -39 -43 -93q-58 -73 -123 -73q-57 0 -78 26q-25 31 -43 86q-2 6 -2 12q0 61 32 102q7 10 77 76q33 31 82 31q31 0 53 -21q45 -43 45 -69v-77z
M1135 79q0 -49 -63.5 -110.5t-112.5 -61.5q-65 0 -65 76q0 70 36 110q19 21 64.5 47.5t69.5 26.5q21 0 42 -15q8 -6 18.5 -34t10.5 -39zM514 649q0 -38 -36 -83q-31 -39 -69 -60q-24 -13 -61 -13q-49 0 -80.5 30t-31.5 79q0 36 17 69.5t63.5 65t82.5 31.5q51 0 83 -33.5
t32 -85.5zM882 193q0 -11 -15 -44q-61 -132 -207 -132q-14 0 -50 24t-44 37.5t-8 70.5q0 42 11 67q16 35 64 74q52 41 87 41q112 0 151 -67q11 -19 11 -71zM1692 311q0 2 -10 20h-27q-45 -44 -45 -85q0 -29 20 -29q17 0 26 17q3 13 11 38q1 3 13 19t12 20zM1372 176
q0 19 -15 19q-28 0 -52 -46q-21 -40 -21 -71q0 -25 28 -25q15 0 21 16q1 13 5 38q2 7 18 36.5t16 32.5zM999 60q0 4 -2 12t-2 12h-27q-43 -63 -43 -78q0 -20 23 -20q7 0 11 1q40 52 40 73zM375 698q0 16 -20 16q-27 0 -51.5 -35t-24.5 -63q0 -19 25 -19q13 0 19 5q3 7 28 52
q24 40 24 44zM673 246q0 19 -19 19q-30 0 -52 -47q-18 -39 -18 -74q0 -47 27 -47q17 0 26 20q5 11 20.5 66t15.5 63z" />
  </g>

</svg>
