<?xml version="1.0" standalone="no"?>
<!DOCTYPE svg PUBLIC "-//W3C//DTD SVG 1.1//EN" "http://www.w3.org/Graphics/SVG/1.1/DTD/svg11.dtd" >
<svg viewBox="0 -442 2048 2048">
  <g transform="matrix(1 0 0 -1 0 1606)">
   <path fill="currentColor"
d="M2048 1057q0 -85 -83.5 -250t-83.5 -235q0 -92 80 -224l-21 -25q-109 106 -142 217q-17 -171 -95 -274q-69 135 -69 237q0 86 50 156q21 30 114 122l6 -124q41 91 81 183q47 109 47 192q0 32 -5 63q-13 79 -69 140q-61 68 -137 68q-24 0 -43 -5l-8 21q47 22 94 22
q111 0 197.5 -86.5t86.5 -197.5zM1958 277l-7 -30l-131 32l-9 -134l-25 -4l5 184zM1854 989q0 -122 -56 -207l-26 179q15 53 15 105q0 152 -94 193q52 -159 79 -298q-22 -85 -77 -141q-85 -86 -106 -115q-50 -69 -50 -145q0 -122 138 -324q-101 -101 -230 -101
q-165 0 -315 146q111 254 123 426l-56 -12q-24 -162 -113 -367l-103 141q44 24 64 67l-15 12q-35 -41 -64 -56l-41 72q55 14 122 14l1 23q-77 0 -135 -13l-33 62q78 39 136 39q34 0 62 -14l5 21q-38 20 -84 20q-65 0 -136 -30l-58 138l323 -78q39 17 81 66l-9 7
q-37 -28 -68 -41l-135 40q83 40 151 40q44 0 86 -16q-3 9 1 24q-44 16 -90 16q-82 0 -184 -53l-178 52l-61 201q74 -9 136 -9q214 0 415 93q159 74 359 233l36 -80q-25 -9 -36 -37l44 16l11 -29l17 8q75 -26 115 -119q33 -77 33 -169zM1747 189l-26 -17l-44 64l26 30z
M882 650l-98 -60l-12 47l93 49zM807 824q-344 108 -462 275l-106 -518l-41 40l62 353l56 7l-13 20l-38 1q41 182 41 190q0 69 90 69q66 0 113 -34l-39 -47q-41 32 -70 32q-25 0 -25 -29q0 -74 170 -180q117 -73 240 -122zM927 564q-103 -28 -147 -91l-26 19q54 71 161 96z
M983 469q-44 -24 -86 -24q-39 0 -82 20l3 22q42 -13 85 -13q34 0 65 18zM600 637l-16 -20q-61 108 -245 138l8 31q180 -28 253 -149zM546 601q-12 -2 -24 -2q-128 0 -183 112l24 12q16 -40 68 -70.5t99 -30.5q8 0 15 1zM669 627q0 -97 -72 -224l-30 -42q-19 -27 -19 -47
q0 -40 22 -40q4 0 29.5 14t46.5 14h3l-8 -30q-3 1 -8 1q-14 0 -40 -9.5t-40 -9.5q-15 0 -26 19q-10 16 -10 32q0 27 20 59l34 54q65 118 65 210q0 96 -68 151q-64 53 -161 48l13 31q8 1 15 1q111 0 188 -89q46 -53 46 -143zM1132 281q-85 -212 -206 -336
q-175 -180 -360 -180q-175 0 -224 141l14 24q58 -118 201 -118q172 0 328 180q113 132 201 336zM723 127q-32 -27 -62 -27q-31 0 -68.5 39.5t-70.5 39.5q-11 0 -33 -3t-33 -3q-35 0 -41 46l13 8q21 -33 52 -33q9 0 27.5 2.5t27.5 2.5q23 0 65 -37.5t89 -37.5q15 0 34 3z
M704 88q-41 -60 -101 -60q-38 0 -63.5 34t-28.5 34q-7 0 -20.5 -3.5t-20.5 -3.5q-42 0 -42 41q0 21 6 25q6 -13 13 -24.5t26 -11.5q8 0 23.5 3.5t23.5 3.5q12 0 32.5 -35t57.5 -35q38 0 94 32zM394 206q0 -97 -32 -201q-37 -121 -98 -175l-79 202l-177 -16q168 111 168 239
q0 69 -88 231t-88 251q0 117 74 190.5t191 74.5l-5 -28q-65 -14 -107 -61.5t-42 -112.5q0 -92 87 -179q-9 -66 -9 -145q0 -173 71 -420l28 8q-56 200 -56 397q0 80 7 120q155 -144 155 -375zM1629 1015l-4 26q-189 -32 -259 -145q13 -9 16 -18q65 107 247 137zM1645 969
l-40 13q-9 -26 -48 -61q-42 -38 -134 -40l-3 -11q36 -7 63 -7q49 0 96 30t66 76zM1554 1135q-9 1 -18 1q-123 0 -202 -107q-42 -57 -42 -144q0 -96 71 -215q15 -21 30 -43q18 -27 18 -46q0 -41 -20 -41q-6 0 -29 10.5t-39 10.5q-4 0 -11 -1l8 -29q6 1 12 1q12 0 35.5 -7.5
t35.5 -7.5q40 0 40 65q0 28 -57 124.5t-57 175.5q0 93 63.5 158t156.5 72zM1227 969q-38 27 -92 27q-76 0 -229 -72l3 -29q145 67 216 67q54 0 89 -24zM1526 441q-22 29 -43 29q-23 0 -56.5 -32t-59.5 -32q-12 0 -35.5 6t-35.5 6q-28 0 -40 -36l5 -31q11 34 37 34
q11 0 33 -3t33 -3q32 0 69 35t61 35q15 0 32 -8zM1523 406l-15 7q-21 -42 -54 -42q10 0 -31 3l-36 -44q-24 -26 -47 -26q-26 0 -56 49l-15 -12q42 -60 76 -60q39 0 85 69q36 -10 42 -10q42 0 51 66z" />
  </g>

</svg>
