<?xml version="1.0" standalone="no"?>
<!DOCTYPE svg PUBLIC "-//W3C//DTD SVG 1.1//EN" "http://www.w3.org/Graphics/SVG/1.1/DTD/svg11.dtd" >
<svg viewBox="0 -442 2048 2048">
  <g transform="matrix(1 0 0 -1 0 1606)">
   <path fill="currentColor"
d="M1970 -82q0 -29 -7 -123q-8 -101 -13 -113q-13 -32 -28 -32h-113q-22 0 -32 39q-3 36 -10 107q-13 125 -13 123q0 13 16 30l24 26v291q-2 1 -6 2q-17 0 -68 -6q-57 -6 -60 -11q-7 -20 -24 -59q-23 -45 -82 -74q33 -96 50 -96q10 0 29 8t29 8t33 -16q10 -29 10 -40
q0 -12 -8 -23q-50 -12 -99 -24q-68 -17 -96 -17q-11 0 -21 25q-9 21 -9 35q0 15 70 40q-9 31 -33 84q-15 -3 -36 -3q-82 0 -137 54.5t-55 136.5q0 77 55.5 133.5t132.5 56.5q116 0 177 -114q84 11 149 20l4 4q20 133 20 198q0 361 -161 611q-187 293 -529 293
q-300 0 -552 -201q-22 -18 -70 -66q-56 -56 -56 -67v-540q48 -23 134 -81q2 -2 48.5 -75.5t49.5 -80.5q4 -17 20 -49q13 -17 69 -56q43 -30 57 -72q-62 -20 -105 -16q-2 -5 -2 -85q0 -21 -17 -64q-16 -39 -58 -80q-27 -18 -66 -53q-10 -15 -10 -40q0 -14 6 -19
q36 -11 92 -35q4 -2 65 -74l-23 -88q-35 15 -108 39q-37 4 -110 11q-10 16 -31 46q-20 -18 -68 -43q-7 -2 -99 -8q-46 -3 -98 -45q3 35 25 98q7 11 64 53q48 35 48 58q0 30 -51 76q-63 57 -71 69q-5 23 -20 59q-7 9 -56 9q-9 0 -27 1.5t-27 1.5v13q0 48 41 106q47 67 53 91
q6 30 21 90q15 46 67 121t89 100q23 11 67 34v528q0 21 54 87q114 140 302 220q179 76 368 76q451 0 658 -468q89 -201 109 -511q1 -19 11 -63q8 -40 8 -63v-461q40 -41 40 -57zM715 889q0 -83 -95 -83q-101 0 -101 138q0 2 16 148q26 -36 67 -69q37 -28 73 -56
q40 -36 40 -78zM355 987q-10 -48 -29 -143q-21 -118 -102 -118q-39 0 -70 23q-35 25 -35 62q0 21 10 46q7 18 43 37q12 6 94 40q54 21 89 53zM611 858q0 13 -25 38q-28 26 -31 45q-3 -4 -6 -38q19 -66 42 -66q20 0 20 21zM225 891q-22 -5 -49 -24q-31 -23 -31 -42q0 -5 2 -9
q14 -13 24 -13t14 7q11 28 40 81zM405 402q0 25 -23 45.5t-48 20.5q-27 0 -48.5 -19.5t-21.5 -46.5t21 -45t48 -18q26 0 49 18.5t23 44.5z" />
  </g>

</svg>
