<?xml version="1.0" standalone="no"?>
<!DOCTYPE svg PUBLIC "-//W3C//DTD SVG 1.1//EN" "http://www.w3.org/Graphics/SVG/1.1/DTD/svg11.dtd" >
<svg viewBox="0 -442 2048 2048">
  <g transform="matrix(1 0 0 -1 0 1606)">
   <path fill="currentColor"
d="M1829 -100h-500q13 -65 13 -113q0 -82 -56 -133.5t-138 -51.5q-73 0 -128 41q-61 45 -61 115q0 45 31.5 85.5t75.5 40.5q43 0 73 -33t30 -76q0 -96 -107 -96q27 -42 87 -42q50 0 93 28q63 41 63 142q0 42 -10 93h-930v1406h731q30 82 79 117q21 15 39 15t35 -20
q36 -42 57 -112h523v-42h-512q13 -60 13 -122q0 -92 -27 -177h526v-42h-541q-45 -110 -130 -189l23 -110h648v-42h-640l6 -27q27 5 45 5q100 0 165 -84q60 -77 60 -180v-13h364v-42h-369q-27 -138 -163 -189q5 -28 23 -110h509v-42zM299 -100h-217v1406h217v-1406z
M1287 1201q0 43 -12 63h-91q-38 -36 -62 -123q-19 -70 -19 -126q0 -27 4 -50h81q99 127 99 236zM1150 923h-32q4 -12 7 -19q12 7 25 19zM1083 1264h-651v-299h644q-14 76 -14 144q0 77 21 155zM1145 624l-16 84q-51 -42 -91 -84h107zM1391 283q-11 66 -56 107
q-48 43 -117 43l30 -150h143zM1096 878q-3 12 -11 45h-653v-299h448q55 93 216 254zM1214 283l-29 146q-44 -13 -77 -53.5t-33 -85.5v-7h139zM1394 241h-137l31 -156q104 43 106 156zM1160 547l-7 35h-153q-110 -132 -110 -262q0 -17 3 -37h126q-6 22 -6 48q0 67 42.5 129.5
t104.5 86.5zM1256 74l-33 167h-139q14 -33 50 -59q32 -23 32 -25l-11 -7q-80 20 -119 91h-133q27 -81 100.5 -132t162.5 -51q27 0 90 16zM858 582h-426v-299h404q-21 60 -21 121q0 88 43 178zM1286 -58q-8 32 -24 97q-43 -10 -83 -10q-104 0 -191.5 59t-133.5 153h-422v-299
h854z" />
  </g>

</svg>
