<?xml version="1.0" standalone="no"?>
<!DOCTYPE svg PUBLIC "-//W3C//DTD SVG 1.1//EN" "http://www.w3.org/Graphics/SVG/1.1/DTD/svg11.dtd" >
<svg viewBox="0 -442 2070 2048">
  <g transform="matrix(1 0 0 -1 0 1606)">
   <path fill="currentColor"
d="M2070 618h-1988v645h1988v-645zM2070 -125h-1988v703h1988v-703zM2003 637v555h-574v-555h304q27 0 72 77q-36 -35 -67 -35q-25 0 -45 22.5t-37 22.5q-22 0 -28.5 -23.5t-11.5 -44.5h-71v227h74q5 -42 11 -77q22 80 71 80q36 0 65.5 -36t41.5 -36q22 0 36 28l22 44
l56 -81q-60 -88 -96 -168h177zM1360 637v555h-576v-555h306q27 0 73 74q-33 -32 -68 -32q-24 0 -46.5 22.5t-35.5 22.5q-20 0 -29 -26q-5 -21 -11 -42h-71v227h71q10 -42 14 -77q27 80 73 80q32 0 62.5 -36t42.5 -36q23 0 37 27q10 23 21 45l56 -81q-65 -96 -96 -168h177z
M2003 -35v591h-212q-54 -119 -54 -234q0 -8 1.5 -25.5t1.5 -25.5q0 -1 -1 -5h-188v95q0 46 28 105q27 55 62 89h-212v-590h574zM717 637v555h-576v-555h310q12 0 38 32q23 28 31 45q-36 -35 -67 -35q-24 0 -47 22.5t-36 22.5q-22 0 -29 -25l-10 -42q-20 -2 -59 -2
q-7 0 -13 1v227h71q8 -31 14 -75q26 78 71 78q30 0 61.5 -36t47.5 -36q23 0 35 27q9 22 18 45l60 -81q-40 -60 -97 -168h177zM1360 -35v591h-215q-56 -140 -49 -291h-192q0 107 13 156q19 68 81 134h-214v-590h576zM717 -35v591h-215q-56 -137 -49 -289h-191v46
q0 147 94 242h-215v-590h576zM1899 1160q0 -19 -14 -19h-62v19h76zM1738 1119h-58q7 14 24 41h11q7 -14 23 -41zM1983 1051h-532v112h51v-84h105q25 0 25 28q0 14 -20 29q11 10 17 27h44q-16 -27 -45 -82q3 -3 23 -3q11 0 17 24h76q9 -9 16 -23h24l3 5l-49 79h59v-84h25v42
q7 4 20 4q16 0 35 -18q16 -14 31 -28l31 3q-11 12 -49 42h4q12 -1 25 13t10 26h54v-112zM1602 1159q-4 -7 -14 -18h-59v18h73zM1602 1118v-4q0 -7 -4 -15h-69v22q24 1 34 1h15h12q8 -1 12 -1v-3zM1256 1160q0 -19 -14 -19h-62v19h76zM1092 1119h-55q7 14 20 41h15z
M1340 1051h-535v112h54v-84h105q25 0 25 28q0 15 -20 29q14 12 14 27h51q-16 -28 -48 -82q2 -2 14 -2t26 21q12 2 37 2q20 0 38 -1q9 -15 16 -22l30 3l-51 81h57v-81q3 -3 12 -3q17 0 17 13q0 3 -1.5 11.5t-1.5 13.5l1 7h34l51 -45l31 3q-11 12 -49 42h1q10 0 25.5 14.5
t12.5 24.5h54v-112zM959 1159q-3 -7 -13 -18h-60v18h73zM960 1114q0 -7 -8 -15h-66v25h57q7 0 17 -10zM1900 34q-7 -7 -12 -7h-65v21q24 1 34 1h15h12q8 -1 12 -1q2 -5 4 -14zM1883 -15h-60l3 28h31zM1983 -15h-66l-27 28h3q36 -1 36 28q0 31 -35 31h-97v-87h-23l-48 87h-34
q-19 -29 -52 -87h-11q3 -2 3 7q0 13 -20 29q16 15 16 22q0 9 -11 19t-20 10h-94v-87h-52v112h532v-112zM614 1160q0 -19 -15 -19h-62v19h77zM1735 5h-55q9 7 28 21q9 -9 27 -21zM1602 42q0 -10 -10 -15h-63v22h63q4 -2 10 -7zM1606 -7v-1q-4 -4 -4 -7h-73v28h53q24 0 24 -20
zM449 1119h-58q11 14 24 41h11q7 -10 23 -41zM698 1051h-532v112h47v-84h108q25 0 25 29q0 21 -19 28q13 11 13 27h51l-48 -82q2 -2 7 -2q21 0 23 5q6 12 13 17q9 2 54 2q18 0 34 -24l27 3q-23 37 -45 81h56v-84h24q1 6 1 15q0 10 -2 30h36l52 -45l27 3q-14 15 -45 42h3
q12 0 23 13.5t9 25.5h58v-112zM313 1160q0 -19 -14 -19h-56v19h70zM317 1103q-2 -4 -10 -4h-64v25h57q7 0 17 -10v-11zM1257 34q-7 -7 -15 -7h-62v21q24 1 36 1h11h13q9 -1 13 -1q2 -5 4 -14zM1241 -15h-61v25h10q18 0 51 -25zM1340 -15h-66l-27 28h3q10 0 23 10t13 20
q0 29 -34 29h-97v-87h-23q-28 50 -52 87h-31q-12 -18 -51 -87h-12q3 2 3 9q0 17 -20 27q13 12 13 22q0 29 -31 29h-90v-87h-56v112h535v-112zM1092 5h-55q1 2 28 47zM960 42q0 -10 -11 -15h-63v22h63q4 -2 11 -7zM960 -1l-4 -14h-70v28h49q13 0 25 -14zM614 34q-4 -2 -11 -7
h-66v25h57q6 0 20 -7v-11zM595 -15h-58v25h10q26 0 48 -25zM698 -15h-67l-26 27q35 -1 35 29q0 31 -31 31h-97v-87h-26q-15 30 -48 87h-35q-26 -48 -48 -87h-12q3 2 3 11q0 19 -19 25q13 10 13 22q0 29 -32 29h-93v-87h-49v112h532v-112zM449 5h-58q14 19 31 47
q6 -13 27 -47zM313 34q-3 -2 -10 -7h-60v20h19h23q29 0 28 0v-13zM317 3l-4 -18h-70v28h51q13 0 23 -10z" />
  </g>

</svg>
