<?xml version="1.0" standalone="no"?>
<!DOCTYPE svg PUBLIC "-//W3C//DTD SVG 1.1//EN" "http://www.w3.org/Graphics/SVG/1.1/DTD/svg11.dtd" >
<svg viewBox="0 -442 2048 2048">
  <g transform="matrix(1 0 0 -1 0 1606)">
   <path fill="currentColor"
d="M1966 506q0 -102 -68.5 -169.5t-170.5 -67.5q-160 0 -226 156h-3q-61 -156 -224 -156q-160 0 -226 156h-3q-60 -156 -225 -156q-100 0 -168 68.5t-68 168.5q0 102 67 171.5t169 69.5q8 0 24.5 -2t25.5 -2h8q-55 68 -55 156q0 100 68 168.5t168 68.5q11 0 30 -2
q23 -2 31 -2q-58 57 -58 156t69.5 169.5t168.5 70.5q101 0 170.5 -69.5t69.5 -170.5q0 -89 -55 -150q117 2 190 -60q76 -66 76 -181q0 -83 -49 -151q11 1 23 1q103 0 172 -69t69 -172zM409 -359h-206v490h-52v-490h-69l39 1858q1 30 32 30q174 0 191 -2q14 -1 18 -12
q7 -20 8 -68zM1482 1289q0 78 -52.5 131t-129.5 53q-78 0 -130.5 -53.5t-52.5 -131.5q0 -79 52.5 -129.5t131.5 -50.5q78 0 129.5 51.5t51.5 129.5zM1696 897q0 78 -53 131t-131 53q-76 0 -128 -53.5t-52 -130.5q0 -78 51 -129.5t129 -51.5q77 0 130.5 52t53.5 129z
M1911 506q0 124 -124 174q-20 8 -28 8h-53q-13 -66 -13 -97q0 -49 23 -119q5 -15 22 -42q20 -32 30 -32q8 0 31 24.5t28 34.5q23 47 23 102q0 21 -13 50q43 -23 43 -95q0 -42 -24 -83q-25 -44 -62 -59l29 -20q88 56 88 154zM1327 1049q-12 0 -36 3.5t-36 3.5h-12
q17 -23 44 -79q19 40 40 72zM1540 660q-52 0 -82 3q35 -42 40 -79q19 39 42 76zM1681 331q-42 34 -73 106t-31 128q0 25 5 53q-36 -49 -36 -112q0 -64 36.5 -112.5t98.5 -62.5zM1332 742q-35 40 -45 75q-13 -24 -39 -73q12 3 27 3q11 0 30 -2.5t27 -2.5zM1243 895
q0 27 -4 47q-3 14 -18 44q-17 34 -26 34q-16 0 -71 -31q-60 -34 -97.5 -98.5t-37.5 -134.5q0 -40 57 -40q85 0 139 46q58 49 58 133zM1102 1077q-7 0 -22 2t-23 2q-76 0 -127.5 -54t-51.5 -130q0 -38 24 -89q2 68 34 135q35 73 88 104q27 8 78 30zM1460 506q0 79 -53.5 131
t-132.5 52t-130 -52t-51 -131q0 -80 50.5 -129.5t130.5 -49.5q78 0 132 50.5t54 128.5zM1086 660q-52 0 -82 3q36 -43 41 -79q13 26 41 76zM302 1360v100h-114v-100h114zM1004 506q0 77 -53.5 130t-130.5 53q-79 0 -130 -52t-51 -131q0 -77 52 -128t129 -51q79 0 131.5 50
t52.5 129zM332 199l-27 1093h-122l-24 -1093h173zM1454 1297q0 -58 -41 -107q-44 -51 -101 -51q-13 0 -52 14q76 4 122 59q42 52 42 130q0 33 -12 51q42 -33 42 -96zM1666 905q0 -59 -41 -107t-99 -48q-19 0 -53 11q67 3 116 56.5t49 120.5q0 27 -11 63q39 -40 39 -96z
M1212 905q0 -59 -39 -106q-42 -49 -100 -49q-20 0 -54 11q69 3 117.5 55.5t48.5 121.5q0 45 -12 63q39 -41 39 -96zM1427 514q0 -60 -42 -108t-101 -48q-9 0 -53 14h5q67 -1 116 57q47 55 47 124q0 31 -12 56q40 -37 40 -95zM973 514q0 -58 -41 -107t-98 -49q-8 0 -55 14h5
q66 -1 115 58q47 56 47 123q0 31 -12 56q39 -36 39 -95z" />
  </g>

</svg>
