<?xml version="1.0" standalone="no"?>
<!DOCTYPE svg PUBLIC "-//W3C//DTD SVG 1.1//EN" "http://www.w3.org/Graphics/SVG/1.1/DTD/svg11.dtd" >
<svg viewBox="0 -442 2048 2048">
  <g transform="matrix(1 0 0 -1 0 1606)">
   <path fill="currentColor"
d="M1980 -219q0 -21 -59 -78.5t-76 -57.5q-41 0 -41 53q0 11 -6 19q-9 11 -80 79l-182 172q-25 22 -70 68q-4 9 -14 28q-5 9 -26 25q-14 11 -14 33.5t-79 78.5q-90 64 -262 119q-152 48 -284 65q-145 19 -214 55q-177 93 -291 238q-129 165 -129 346q0 177 137 311t314 134
q293 0 528 -317q65 -88 94 -224q23 -119 45 -239q15 -63 52 -183q24 -77 68 -158q54 -97 105 -132h21q13 0 25 -16q15 -21 19 -24q8 -2 22 -8q4 -3 39 -40q82 -89 250 -263q13 -14 39 -37q20 -3 40 -7q29 -7 29 -40zM482 -166q0 -83 -58.5 -140.5t-141.5 -57.5
q-84 0 -142 58t-58 142q0 85 57.5 141t142.5 56q86 0 143 -56.5t57 -142.5zM1065 1166q-36 54 -76 83q-26 -23 -67 -64l83 -79zM972 1266q-10 15 -42 42t-45 27q-14 0 -53 -60q27 -27 83 -76zM1133 1055q0 11 -24 49q-22 35 -33 45l-61 -57l83 -82q35 42 35 45zM870 1347
q-99 54 -104 54q-9 0 -30 -33l79 -76zM1176 929v11q0 28 -28 91q-18 -13 -39 -35zM746 1405q-19 5 -59 13l32 -33q9 8 27 20zM991 1092l-79 76q-28 -24 -80 -76l80 -82zM895 1188l-83 73l-76 -76l79 -79zM801 1278l-82 76l-76 -79l79 -76zM1174 906q-26 26 -79 76l-80 -76
l83 -82zM1081 999l-76 73l-83 -73l83 -82zM708 1371q-53 54 -62 54q-57 0 -133 -16l116 -117zM1200 818q0 8 -9 71l-82 -76l91 -89v94zM708 1188l-82 73l-73 -76q24 -27 76 -79zM991 906l-79 76l-83 -76l83 -82zM1081 813l-76 76l-83 -76l83 -79zM801 1095l-82 73l-76 -76
q24 -27 79 -82zM895 999q-27 25 -83 73l-76 -76l79 -79zM615 1278l-131 123q-37 -15 -98 -55l147 -147q56 50 82 79zM1199 693q0 2 -101 103l-83 -79l142 -142q42 67 42 118zM1403 225q-94 163 -162 391q-10 -9 -14 -20q-28 -68 -86 -126q-62 -62 -129 -81q253 -81 391 -164
zM895 813q-27 27 -83 76l-76 -79l79 -76zM1149 559l-144 144l-83 -79l148 -145q61 36 79 80zM519 1188l-153 147q-50 -45 -76 -79l150 -150zM615 1095q-28 25 -85 73l-73 -76l76 -82zM708 999q-26 26 -82 73l-73 -76q35 -40 76 -79zM801 906q-34 34 -82 76l-76 -79l79 -79z
M991 717l-79 79l-83 -79l83 -83zM1053 468l-141 142l-83 -80q101 -100 103 -100q13 0 60.5 15t60.5 23zM426 1095l-147 144q-28 -32 -54 -98l128 -131q25 28 73 85zM708 813q-26 27 -82 76q-26 -25 -73 -79l76 -76zM895 624l-83 79q-27 -27 -76 -83l76 -72zM615 906l-82 76
q-31 -28 -76 -79l76 -79zM801 717l-82 79l-76 -79l79 -80zM519 999l-79 73l-76 -76l76 -79zM898 427l-86 90l-76 -80q70 -14 98 -14q11 0 32.5 2t31.5 2zM333 999l-117 113q-16 -64 -16 -128q0 -15 60 -67q26 26 73 82zM708 624l-82 79l-73 -79l76 -76zM519 813l-79 79
q-34 -34 -76 -82l76 -76zM801 530l-82 80l-76 -80l76 -76zM426 906l-76 76l-79 -79l82 -79q26 26 73 82zM615 717l-82 79q-27 -27 -76 -83l76 -79zM240 906q-11 11 -33 32q4 -18 12 -55q9 7 21 23zM699 449q-38 38 -73 68q-13 -12 -32 -37q54 -27 105 -31zM336 813l-79 76
q-10 -9 -32 -26q16 -36 54 -105zM615 534l-82 76q-31 -29 -57 -61q95 -57 96 -57q9 0 43 42zM429 717l-76 79q-31 -26 -63 -58q18 -31 69 -85q23 22 70 64zM519 624l-79 79l-64 -67q10 -14 40 -42q34 -31 43 -31t60 61zM439 -164q0 67 -45 110t-112 43t-112 -44t-45 -111
q0 -102 84 -102q57 0 57 76q0 11 -2 32t-2 32q0 92 76 92q73 0 73 -113q0 -46 -42 -91.5t-42 -57.5q0 4 3 -13h11q98 46 98 147zM392 -144q0 87 -51 87q-44 0 -55 -94q-13 -108 -39 -126q-11 -8 -32 -8h-34q34 -39 96 -39q13 0 34 7q0 28 4 34q25 32 51 65.5t26 73.5z" />
  </g>

</svg>
