<?xml version="1.0" standalone="no"?>
<!DOCTYPE svg PUBLIC "-//W3C//DTD SVG 1.1//EN" "http://www.w3.org/Graphics/SVG/1.1/DTD/svg11.dtd" >
<svg viewBox="0 -442 2048 2048">
  <g transform="matrix(1 0 0 -1 0 1606)">
   <path fill="currentColor"
d="M2015 1425l-70 -76q7 -7 13 -7q8 0 14 6q17 -17 17 -25q0 -7 -11 -19.5t-18 -12.5q-14 0 -17 20.5t-13 20.5q-3 0 -41 -37q1 -13 21 -16t20 -18q0 -29 -28 -29q-17 0 -17 22q0 11 -7 18q-16 -16 -49 -48q13 -14 18 -14q3 0 4.5 3t4.5 3q9 0 20 -22q0 -8 -11.5 -19.5
t-19.5 -11.5q-9 0 -18 10v2q0 2 1 5.5t1 5.5q0 3 -14 17l-9 -18q-30 12 -47 12q-5 0 -15 -4.5t-15 -4.5q-1 0 -78 79q7 22 7 40q0 23 -11 36q12 6 19 13q-7 13 -26 13q-12 0 -12 15q0 11 21 33q11 -11 26 -17q-3 -5 -3 -11q0 -15 17 -22l46 42q-6 17 -11 17q-2 0 -5.5 -1.5
t-5.5 -1.5q-16 0 -16 17q0 30 33 30q12 0 12 -30v-2q6 -9 13 -12q12 9 43 40q-4 17 -33 17q-11 0 -11 14q0 8 11.5 20.5t19.5 12.5q5 0 22 -17q-6 -6 -6 -14q0 -1 14 -16l69 72q10 -20 31 -60q14 -23 46 -40q50 -27 54 -30zM1707 1174q-4 -5 -421 -450q-70 -72 -204 -220
q-28 -33 -28 -64q0 -53 52 -53q18 0 52 25t51 25t34.5 -25t17.5 -45q0 -29 -30 -89q-24 -49 -88 -85q-54 -29 -109 -58q-37 -23 -45 -67q-5 -68 -37 -198q-7 -12 -20 -35q-67 -123 -133 -166q-72 -48 -208 -48q-16 0 -86.5 14.5t-84.5 20.5q-23 18 -69 52q-160 116 -235 246
q0 1 -24 117q-10 49 -10 133q0 112 110 206q98 83 216 104l98 10q53 9 85 48q15 19 55 109q27 60 91 91q54 26 91 26q19 0 67 -41q2 -5 2 -15q0 -16 -23.5 -46t-23.5 -53q0 -8 15 -42q22 -7 36 -7q32 0 65 29q222 207 667 621q29 -25 74 -70zM1851 1440q-12 12 -24 18
q-10 -9 -10 -18q0 -14 15 -14q5 0 19 14zM1920 1367l-13 25q-18 -13 -18 -21q0 -20 14 -20q17 0 17 16zM1864 1309q-6 8 -21 20q-11 -21 -11 -19q0 -4 3.5 -8.5t3.5 -6.5h14q5 5 11 14zM1788 1385q-7 6 -23 16q-8 -8 -8 -14q0 -4 3.5 -9.5t3.5 -7.5h14q10 9 10 15z
M1804 1238q0 16 -17 16q-6 0 -14 -8v-17q15 -7 24 -7q7 7 7 16zM1713 1317q0 4 -1.5 12t-1.5 12h-22q0 -2 -1.5 -6t-1.5 -6q0 -16 16 -16q8 0 12 4zM1534 1060l-14 15l-14 -15q5 -6 18 -13q0 3 10 13zM1424 954l-7 7h-11q-5 -3 -10 -11l17 -17zM1339 866q-5 5 -14 11
q-14 -14 -14 -15q7 -5 18 -10q5 5 10 14zM1258 777q-6 5 -17 15q-3 -5 -11 -14q5 -5 14 -11q5 5 14 10zM1186 646q-6 4 -18 14q-11 -11 -11 -18q10 -10 15 -10zM1120 709q-3 5 -11 14q-8 -4 -18 -14q6 -7 18 -14q3 5 11 14zM1060 586q-3 4 -7 14q-15 -7 -15 -14q7 -7 15 -7z
M1010 536q-9 14 -18 14l-11 -11l15 -14q5 3 14 11zM972 495q-11 11 -17 11q-14 0 -14 -11q5 -5 14 -11q6 5 17 11zM928 454q-7 7 -18 14q-5 -5 -10 -14q10 -10 15 -10q5 3 13 10zM1195 354v20q-67 -47 -89 -47q-28 0 -62 26q-44 33 -38 81q-64 -63 -73 -63q-15 0 -60 42.5
t-45 56.5q0 13 26 41l38 38q-42 -1 -72 26t-30 68q0 29 41 89h-14q-47 0 -92 -55q-13 -31 -43 -93q-43 -77 -73 -96q-51 -32 -82 -32h-80q-37 0 -90 -26q-208 -102 -208 -301q0 -70 39 -149q5 -10 77 -89q40 -46 133 -130q12 -11 38 -29q10 -5 75.5 -22t75.5 -17
q111 0 177 45q52 35 95 111q42 72 52 137q1 47 18 135q33 79 130 108q42 12 85 47q51 41 51 78zM925 308q0 -12 -34 -48t-45 -36q-9 0 -159 157q-1 3 -1 9q0 10 33 42.5t44 32.5q10 0 86 -74.5t76 -82.5zM743 125q0 -11 -34.5 -47t-45.5 -36t-38 28l-120 123q-1 4 -1 12
q0 11 32 44.5t42 33.5q15 0 161 -148q4 -4 4 -10zM630 12q0 -4 -54 -54q-4 -1 -14 -1q-17 0 -83 64.5t-66 79.5q0 14 24.5 40t38.5 26q12 0 21 -5q13 -7 63.5 -58t61.5 -66q8 -11 8 -26zM897 307l-132 130q-13 -6 -13 -14q0 -6 62.5 -68t68.5 -62q13 0 14 14zM859 262v17
q-32 34 -64 67q-52 54 -62 54q-9 0 -15 -8q7 -15 63.5 -74.5t66.5 -59.5q1 0 11 4zM711 118v11q-129 126 -128 126q-8 0 -13 -7v-11q117 -126 130 -126q7 0 11 7zM677 80v14q-18 22 -63 68q-53 55 -63 55q-9 0 -15 -7v-10q124 -124 130 -124q1 0 11 4z" />
  </g>

</svg>
