<?xml version="1.0" standalone="no"?>
<!DOCTYPE svg PUBLIC "-//W3C//DTD SVG 1.1//EN" "http://www.w3.org/Graphics/SVG/1.1/DTD/svg11.dtd" >
<svg viewBox="0 -442 2048 2048">
  <g transform="matrix(1 0 0 -1 0 1606)">
   <path fill="currentColor"
d="M1962 -344h-1880v1879h1880v-1879zM1907 -47v1326h-287l-8 -901h-105v-434q0 -5 11 -15.5t16 -10.5h347q26 0 26 35zM1382 460q-9 8 -9 12v807h-30v-852q0 -12 10 -11h1q9 15 28 44zM1449 -59v438h-120l-9 8v892h-145v-892l-9 -8h-113v-441q0 -20 26 -20h344q6 0 16 8.5
t10 14.5zM937 460q-10 5 -10 12v807h-30v-863q10 -1 23 17q8 14 17 27zM991 -62v441h-107l-10 8v892h-174v-900h-105v-438q0 -6 10 -14.5t16 -8.5h344q26 0 26 20zM463 460q-9 8 -9 12v807h-30v-852q0 -12 10 -11h1q9 15 28 44zM536 -56v435h-128l-9 8v892h-262v-1320
q0 -41 26 -41h347q6 0 16 10t10 16zM1882 -30q0 -30 -20 -30h-311q0 6 12 18h302v1262q6 5 17 16v-1266zM1424 348v-387q0 -21 -19 -21h-309q4 7 9 18h296l9 8v369q6 6 14 13zM967 -47q-11 -13 -17 -13h-312q0 5 13 18h301v377q5 4 15 13v-395zM512 351v-388q0 -23 -18 -23
h-314q4 6 13 18h296q8 8 8 11v369z" />
  </g>

</svg>
