<?xml version="1.0" standalone="no"?>
<!DOCTYPE svg PUBLIC "-//W3C//DTD SVG 1.1//EN" "http://www.w3.org/Graphics/SVG/1.1/DTD/svg11.dtd" >
<svg viewBox="0 -442 2048 2048">
  <g transform="matrix(1 0 0 -1 0 1606)">
   <path fill="currentColor"
d="M1966 -72q0 -43 -38 -124q-21 -45 -69 -80q-12 -6 -37 -17q-99 -46 -254 -46q-46 0 -109 36q-6 3 -35 39q-57 69 -103 189q-7 23 -26 65q-16 10 -44 37q-23 35 -47 96q-21 49 -41 99q-8 20 -27 56q-11 5 -28 21q-1 10 -5 28q-2 7 -17 33q-11 18 -11 36l1 25q11 5 28 21
l-296 649l-19 -6l-89 179q4 4 33 25q-20 55 -32 69q-22 27 -69 27q-30 0 -169 -18q-144 -19 -156 -26q-8 -4 -19 -29q-12 -1 -41.5 -4t-45.5 -3q-1 2 -18 34h-95l-6 14q71 38 97 80q5 13 17 37q9 12 153 35q267 42 306 42q98 0 132 -22q22 -13 95 -103q12 0 37 -2
q13 -17 13 -29q0 -4 -9 -11t-9 -12q0 -10 30 -81q11 -1 33 -2q32 -57 95 -173h31q36 -82 98 -189q21 -6 42 -11q32 -10 35 -51l21 -7q9 -11 27 -35q78 43 128 43h235q64 0 133 -29q47 -20 47 -89q0 -43 -86 -81q-15 -68 -15 -94q0 -19 63 -195q11 -33 35 -98q17 -33 47 -101
q53 -137 53 -247zM1070 1022q-9 29 -35 29q-20 0 -20 -21q0 -25 20 -25q21 0 35 17zM1103 969v17q0 3 -10 13q-7 -2 -20 -9v-21q7 -6 14 -6q4 0 9 3t7 3zM1210 841v10q-5 10 -20 26q-10 -19 -10 -18q0 -13 20 -25q3 3 10 7zM1155 874v24q-20 9 -19 9q-9 0 -17 -9v-24
q20 -9 17 -9q-1 0 19 9zM1299 768q0 3 -20 32q-7 -12 -21 -12q14 0 -41 9q5 -28 0 -57q33 -19 46 -19q6 0 21 20t15 27zM1369 623v42q-16 8 -36 15q9 -18 36 -57zM1112 837v25q0 6 -26 33q-13 -37 -13 -29q0 -11 13 -29h26zM1189 761v13q-20 -2 -27 -2h-6q-7 0 -13 2v15
q6 5 15 17q-6 0 -13 7q-20 -20 -20 -26q0 -13 15 -29t28 -16q-1 0 21 19zM1651 332q0 61 -75 61q-33 0 -50 -26q82 -18 82 -30q0 -14 -16 -20l-75 18v-28q0 -18 18.5 -31.5t37.5 -13.5q78 0 78 70zM1317 580q-8 32 -32 70q-3 -11 -10 -32q12 -3 42 -38zM1263 670q0 3 -2 6
t-2 5q-52 -15 -57 -15l-4 2v14q10 6 31 19q-6 0 -16.5 7t-15.5 7q-20 0 -20 -31q0 -49 49 -49q4 0 11.5 2t11.5 2q14 28 14 31zM1888 -65q0 132 -42 222q-17 26 -44 82q-33 93 -67 186q-35 110 -35 194q0 35 21 67q-22 -2 -41 -2q-28 0 -44 5v11q27 3 81 12q27 6 81 40v17
q-12 12 -47 24.5t-53 12.5h-231q-10 0 -54.5 -9t-51.5 -13q-19 -11 -19 -26q0 -31 102 -49q65 -7 131 -15v-14q-20 -13 -68 -18q-70 -8 -73 -9v-40q0 -98 59 -226q23 16 47.5 32t49.5 16q7 0 15 -1q-39 118 -39 208q0 36 50 36q20 0 23 -16q-11 -8 -11 -43q0 -111 33 -206
q24 -69 24 -103q0 -16 -30 -57q10 3 22 3q41 0 75 -31.5t34 -72.5q0 -52 -35 -83t-88 -31q-38 0 -75 32q1 -7 1 -12q0 -42 -29 -67q9 -24 31 -61q12 -7 27 -26h61q-16 35 -16 25v82q62 11 85 43q34 1 69.5 -22t35.5 -56q0 -103 -103 -103q-14 0 -28 3q9 -23 9 -45
q0 -37 -30 -77q27 8 78 31q109 67 109 150zM1370 476v14q0 4 -28 68h-21q6 -8 6 -22q0 -4 -6 -38q22 -5 37 -22h12zM1743 147q0 26 -26 50.5t-53 24.5q-21 0 -58 -38v-13q76 -22 76 -40q0 -10 -15 -10q-7 0 -61 18q10 -61 54 -61q20 0 72 26q11 22 11 43zM1415 394
q-7 21 -22 64q-20 -11 -20 -30v-22q15 -2 42 -12zM1293 530v10q-18 -9 -23 -9q-10 0 -10 9q0 5 21 26q-5 7 -16 20h-33v-51q27 -22 46 -22q15 0 15 17zM1598 221q-8 -2 -18 -2q-36 0 -68.5 31t-29.5 66q-19 11 -44 37q0 -9 -3.5 -27.5t-3.5 -28.5q0 -8 11 -19t8 -25
q16 9 19 9q17 0 37.5 -25t16.5 -42q22 0 44 -13q9 14 31 39zM1342 410v18q-20 -2 -27 -2q-11 0 -16 2v12q11 7 34 22q-21 14 -26 14q-32 0 -32 -37v-14q0 -35 35 -35q32 0 32 20zM323 1377v16q0 13 -3 34q-4 25 -5 34q-19 -2 -19 -43q0 -45 17 -45q7 0 10 4zM1820 -21
q0 14 -24 25q-20 10 -36 10q-18 0 -41 -11q10 -6 31 -16q48 -20 48 -36q0 -14 -14 -14q-13 0 -86 40v-35q17 -35 65 -35q57 0 57 72zM1400 303v29q-11 -4 -33 -9l-3 2v11q10 8 30 25q-15 23 -24 23q-10 0 -32.5 -21t-22.5 -31q0 -12 19 -30.5t31 -18.5q7 0 21 7t14 13z
M1568 115v30q-25 16 -44 25q-7 -14 -7 -24q29 -5 51 -31zM1388 116q-9 14 -21 40q-1 31 -17 92q-62 43 -62 77q0 17 8 34q-55 19 -55 71q0 -13 12 54q-48 25 -48 64q0 31 8 56q-17 1 -40.5 23.5t-23.5 39.5q0 6 1.5 17t1.5 17q0 19 -11 23q-18 -18 -27 -18q-12 0 -25 37
q-10 32 -10 49q11 6 30 20q-44 -12 -39 -12q-11 0 -18 12q-3 5 -56 131q0 6 8 10l45 -64h11q14 30 27 35q20 4 41 9l-4 14q-17 -9 -36 -9q-22 0 -32.5 21.5t-17.5 21.5q-9 0 -40 -25q-10 10 -30.5 44.5t-20.5 43.5q0 4 9.5 13.5t9.5 13.5q0 8 -18.5 49t-18.5 49q0 11 8 17
q31 -17 71 -125q7 5 7 15q0 13 -59 143h-20q-12 0 -23 1q-38 84 -122 227q-26 33 -131 33q-40 0 -165 -17q-137 -18 -147 -30q1 -9 3 -26l281 36q8 -4 60 -15q33 -8 49 -39q114 -245 345 -732q79 -163 79 -181v-8q0 -8 -8 -20t-8 -28q0 -9 -7.5 -18t-7.5 -12q0 -21 23 -48
q3 -3 22 -12q13 -7 13 -22q0 -5 -1.5 -13.5t-1.5 -13.5q0 -1 1 -7h10q7 1 10 1q16 0 16 -16q0 -4 -6 -10t-6 -10q0 -8 10 -25q39 -3 39 -22q0 -16 -1 -23q-12 -15 -12 -17q0 9 44 -77q26 0 38 -6q2 24 22 45q25 3 34 2zM1486 198q0 36 -23 36q-11 0 -37.5 -17t-26.5 -27
q0 -54 43 -54q44 0 44 62zM1553 51q0 22 -16 43t-37 21q-28 0 -43 -19q-8 -10 -8 -42q0 -30 9 -39.5t39 -9.5q56 0 56 46zM1420 88v14h-6v-14h6zM1394 87q-2 0 -6 3t-8 3h-19v-26q7 -7 14 -7q11 11 19 27zM1697 -164q0 13 -18 26.5t-31 13.5q-63 0 -60 -27q30 -4 63 -18v-14
q-7 -8 -17 -8q-14 0 -68 9v-36q23 -31 39 -31q37 0 64.5 24.5t27.5 60.5zM1516 -138q-16 26 -32 51q-18 33 -14 57q-57 10 -57 76q0 9 2 17q-25 -31 -41 -31q-14 0 -28 9l89 -177q18 6 27 6q19 0 54 -8zM1541 -246q-10 37 -9 70q-27 6 -82 18v-2q0 -17 36 -49.5t55 -36.5z
M1700 766q-1 -57 -142 -57q-128 0 -167 38q27 -3 81 -8q9 18 42 18q12 0 33 9.5t33 9.5h110zM1474 181q0 -32 -20 -32q-48 0 -48 30q0 12 15 24.5t27 12.5l24 -19q2 -5 2 -16zM1458 171v13q-3 5 -10 14l-20 -10v-11q10 -10 17 -10h4q5 0 9 4z" />
  </g>

</svg>
