<?xml version="1.0" standalone="no"?>
<!DOCTYPE svg PUBLIC "-//W3C//DTD SVG 1.1//EN" "http://www.w3.org/Graphics/SVG/1.1/DTD/svg11.dtd" >
<svg viewBox="0 -442 2048 2048">
  <g transform="matrix(1 0 0 -1 0 1606)">
   <path fill="currentColor"
d="M1977 1415q0 -11 -15 -28t-26 -17q-8 0 -29 22q-1 -1 -15 -20q-9 -11 -22 -11q-3 0 -8 1.5t-8 1.5q-1 0 -23 -26l53 -33q22 13 28 13q-2 0 46 -29v-39q-38 -28 -64 -28q-13 0 -37 22q-1 21 -2 34q-16 14 -44 37q-14 -11 -36 -39q23 -23 37 -29q11 0 31 -5q41 -17 41 -56
q0 -10 -12 -23t-21 -13q-42 0 -68 39q5 21 5 23q0 9 -36 44q-23 -28 -61 -64q-7 0 -21 -5q-8 -6 -100 -103q-70 -76 -210 -226q75 -87 75 -214q0 -116 -51 -175q-28 -33 -149 -106q-18 -11 -35 -51q-4 -18 -9 -36q-6 -21 -26 -21q-21 0 -40 21.5t-34 21.5q-20 0 -68.5 -53
t-55.5 -76q-3 -10 -3 -29q0 -16 32.5 -44.5t32.5 -54.5q0 -21 -16 -29t-32 -15q-19 -10 -54 -71q-44 -75 -75 -111q-57 -64 -134 -89q-49 -16 -118 -16q-60 0 -183 77q-20 -22 -40 -22h-15q-34 30 -85 71q-22 10 -50 36q-1 7 -5 21q-26 23 -69 72q-71 103 -71 288
q0 29 37 106q30 62 138 108q116 49 131.5 70.5t27.5 70.5q5 0 14.5 1.5t14.5 1.5q28 0 45.5 -26t37.5 -26q44 0 96 47t52 91q0 2 -18 33q-1 8 -1 26q0 20 21 26q34 9 35 9q15 10 43 57q33 57 41 66q95 116 213 116q77 0 127 -20q44 -18 107 -70q119 96 349 297q13 19 43 54
q-42 36 -67 36q-15 0 -34.5 22t-19.5 37q0 2 36 42q2 1 6 1q63 0 63 -57q0 -13 36 -57q21 17 60 57q-12 20 -42 35h-17q-19 0 -37 21t-18 40q0 8 14 20t22 12h21q18 0 46 -29q-2 -5 -2 -13q0 -35 34 -63q16 12 34 34q0 14 26 39q-2 5 -15 14v24q39 29 46 29q16 0 45 -22
q29 22 36 22q1 0 57 -41q1 -4 1 -12q0 -21 -18 -33q28 -27 28 -34zM1992 749q0 -10 -38 -52t-50 -48q-7 1 -24 -4q-5 -3 -83 -78q-1 -1 -183 -171l-533 -498q-83 -82 -254 -237q-20 -17 -73 -35q-7 6 -7 16q0 7 8 14v32q0 22 1.5 26t148.5 129q521 443 1051 1078l36 -10v-29
l-46 -77q46 -49 46 -56zM1958 1412l-20 20q-9 -9 -23 -27q25 -13 23 -13q10 0 20 20zM1930 1481q-9 8 -29 23l-88 -70q15 -15 48 -39q47 52 69 86zM1840 1502q-14 14 -17 14q-19 0 -20 -21q13 -13 15 -13q7 6 22 20zM1819 1372q-18 18 -30 26l-138 -138q15 -20 33 -32z
M1840 653l-29 26q-300 -348 -828 -816q-48 -40 -95 -80q-73 -63 -73 -84q0 -2 1 -20zM880 461l-17 11l-116 -116l7 -8q43 37 126 113zM905 436q0 3 -8 11l-122 -116q5 -7 14 -14zM1199 901q-65 49 -156 64q-37 6 -38 6q-79 0 -152 -97q-28 -44 -87 -107q-11 -7 -44 -14
q23 -40 23 -50q0 -80 -69.5 -144.5t-150.5 -64.5q-36 0 -71 52q-15 -75 -94 -108q-117 -48 -135 -64q-14 -18 -42 -53q30 -7 88 -27q140 -69 140 -192q0 -11 -1 -23q63 102 126 194q2 1 6 1t11 -1.5t11 -1.5q14 0 96 100q-10 8 -12 15q11 17 26 27l22 -15q37 32 75 65
q52 48 52 74q0 7 3.5 11.5t109.5 104.5q88 82 263 248zM843 489q-8 8 -15 8l-109 -117q4 -2 11 -7zM1363 662q0 79 -54 144q-97 -100 -288 -301q-71 -76 -81 -76q-9 0 -12 3l-122 -130q12 -14 12 -21q0 -11 -26 -29l-16 12q-36 -30 -106 -91q6 -10 6 -20q0 -1 -1 -7
q-78 -56 -234 -171q-21 -16 -63 -46q38 -56 103 -95q69 -41 134 -41q98 0 160 55q26 23 89 114q49 71 100 92q-75 32 -75 80q0 60 69 143t128 83q45 0 68 -40q10 31 42 84q54 36 141 128q26 43 26 130zM759 278q-8 8 -20 14l-91 -91l7 -11q38 28 104 88zM691 337
q-6 6 -18 14l-84 -94l8 -5q31 28 94 85zM722 309q-4 7 -14 17l-98 -91q8 -6 24 -20q31 30 88 94zM768 509q0 -43 -31 -43q-14 0 -18 6q-4 10 -8 19q-15 -16 -48 -47q-82 -68 -150 -68q-51 0 -51 40q0 47 42 47q14 0 26 -4v-34l8 -3q15 0 50 19q32 18 45 31q22 25 44 49
q28 28 57 28q34 0 34 -40zM943 326q0 -13 -2 -23q-60 -68 -139 -160h27q16 0 28 -8q2 -16 7 -37q-17 -16 -33 -16q-69 0 -69 57q0 34 65.5 99t65.5 71l-25 15v30q9 13 39 13q29 0 35 -11v-15q1 -10 1 -15z" />
  </g>

</svg>
