<?xml version="1.0" standalone="no"?>
<!DOCTYPE svg PUBLIC "-//W3C//DTD SVG 1.1//EN" "http://www.w3.org/Graphics/SVG/1.1/DTD/svg11.dtd" >
<svg viewBox="0 -442 2048 2048">
  <g transform="matrix(1 0 0 -1 0 1606)">
   <path fill="currentColor"
d="M1468 658q0 -262 -263 -262q-70 0 -136 64t-66 134q0 28 26 28q17 0 32 -21.5t44 -21.5q41 0 41 52q0 91 -145 156q-112 40 -224 81q-37 16 -98 110q-53 82 -103 82q-1 -1 -1 -5q0 -47 58 -214q70 -200 257 -570q42 -83 42 -167q0 -114 -67.5 -175t-182.5 -61
q-206 0 -400 169q-200 174 -200 376q0 105 74 168q70 60 177 60q120 0 244 -117q95 -104 189 -209q1 2 1 3q-1 2 -4 7q-289 551 -435 1039q-23 77 -23 161v22q1 15 1 21h72q11 -11 17 -39q9 -40 10 -43q54 -148 327 -245q20 -7 228 -69q138 -41 222 -86q126 -68 203 -176
q83 -117 83 -252zM1217 88q0 -102 -38 -209q-27 -76 -100 -145q-81 -77 -155 -77q-19 0 -29 10v15q15 14 32 18q96 22 165 116q63 86 76 190q0 4 3 12t3 13v115q8 14 18 14q25 0 25 -72zM1084 110q0 -99 -41 -190q-46 -103 -125 -143q-40 -20 -61 -20q-34 0 -34 20
q0 19 39 27q55 11 108 76q51 62 60 120q10 70 10 86v18q0 30 4 46t16 16q24 0 24 -56z" />
  </g>

</svg>
