<?xml version="1.0" standalone="no"?>
<!DOCTYPE svg PUBLIC "-//W3C//DTD SVG 1.1//EN" "http://www.w3.org/Graphics/SVG/1.1/DTD/svg11.dtd" >
<svg viewBox="0 -442 2048 2048">
  <g transform="matrix(1 0 0 -1 0 1606)">
   <path fill="currentColor"
d="M1528 114q0 -26 -37 -51q-30 -16 -60 -33q-51 -30 -154 -90q-57 -34 -304 -176q-43 -27 -130 -76q-23 -12 -42 -12q-17 0 -124 62q-35 20 -397 232l-110 65q-21 11 -62 36q-26 19 -26 44v919q0 29 47 60q36 21 72 41q137 81 412 241q56 33 168 96q10 5 26 5t130 -66
l402 -232q70 -39 167 -101q22 -18 22 -43v-921zM1428 1024l-623 363l-627 -367l627 -363zM1435 153v801l-601 -348v-797zM776 -191v797l-601 348v-801zM1256 1035q0 -26 -37 -43q-29 -13 -60 -13q-93 0 -93 58q0 27 34 44q27 13 58 13q32 0 61 -14q37 -17 37 -45zM898 1257
q0 -59 -93 -59q-97 0 -97 57q0 54 97 54q93 0 93 -52zM1389 748q0 -40 -25 -82q-28 -48 -65 -48q-36 0 -36 49q0 45 22 88q26 52 66 52q38 0 38 -59zM1077 929q0 -26 -37 -45q-31 -16 -60 -16q-27 0 -58 17q-35 19 -35 44t36 42q30 15 59 15q28 0 59 -15q36 -17 36 -42z
M719 1146q0 -56 -91 -56q-95 0 -95 56q0 55 95 55q91 0 91 -55zM898 818q0 -26 -35 -43q-28 -14 -58 -14t-61 14q-36 18 -36 45q0 26 37 42q30 13 60 13t58 -14q35 -16 35 -43zM1389 279q0 -35 -26 -80q-29 -50 -62 -50q-38 0 -38 61q0 41 22 81q27 47 64 47q40 0 40 -59z
M1048 548q0 -38 -26 -82q-30 -49 -65 -49q-34 0 -34 59q0 42 20 82q25 49 62 49q43 0 43 -59zM544 1037q0 -27 -35 -44q-29 -14 -60 -14q-95 0 -95 56q0 59 95 59q32 0 60 -13q35 -16 35 -44zM705 474q0 -57 -36 -57q-39 0 -66 48q-24 41 -24 83q0 59 40 59q37 0 63 -50
q23 -42 23 -83zM1048 82q0 -40 -25 -82q-29 -48 -66 -48q-34 0 -34 48q0 46 19 89q24 53 63 53q43 0 43 -60zM365 675q0 -57 -38 -57q-39 0 -65 47q-23 40 -23 82q0 60 38 60q36 0 64 -49q24 -44 24 -83zM533 340q0 -59 -36 -59q-35 0 -64 50q-25 44 -25 83q0 57 41 57
q37 0 62 -49q22 -41 22 -82zM705 6q0 -54 -36 -54q-38 0 -66 47q-24 40 -24 82q0 61 40 61q37 0 63 -51q23 -44 23 -85zM365 208q0 -59 -38 -59t-65 49q-23 42 -23 83q0 57 38 57q36 0 64 -48q24 -43 24 -82zM1231 1038q0 29 -38 38q-12 -36 -12 -38t6.5 -11t4.5 -22
q39 9 39 33zM873 1251v8q0 24 -35 35q-5 -14 -15 -41q20 -14 16 -30q34 10 34 28zM1056 929q0 30 -35 36q-3 -6 -15 -42q16 -8 15 -29q35 14 35 35zM701 1148q0 34 -38 35q-6 -16 -12 -41q14 -12 13 -30q37 13 37 36zM873 818q0 36 -27 36h-12q-3 -14 -11 -42q15 -8 18 -17
q-4 -4 -4 -9h13q23 0 23 32zM519 1037q0 34 -39 35q-12 -36 -12 -37l7 -10.5t5 -23.5q39 12 39 36zM662 491l-12 23q-22 -9 -45 -15q0 -14 16 -33.5t29 -19.5q12 48 12 45zM325 684q0 20 -16 20q-12 0 -41 -19q15 -48 46 -45zM497 353q0 5 -5.5 9.5t-5.5 7.5q-17 -5 -50 -15
q25 -49 38 -49h12q11 44 11 47zM662 27q0 21 -16 21q-12 0 -41 -19q15 -48 45 -45q12 48 12 43zM325 220q0 7 -16 22q-8 -4 -41 -15q0 -19 33 -49h13q11 44 11 42z" />
  </g>

</svg>
