<?xml version="1.0" standalone="no"?>
<!DOCTYPE svg PUBLIC "-//W3C//DTD SVG 1.1//EN" "http://www.w3.org/Graphics/SVG/1.1/DTD/svg11.dtd" >
<svg viewBox="0 -442 2048 2048">
  <g transform="matrix(1 0 0 -1 0 1606)">
   <path fill="currentColor"
d="M1392 -123q-9 -11 -29 -28q-46 -15 -135 -53q-34 -29 -104 -83q-42 -29 -150.5 -63.5t-159.5 -34.5h-251q9 0 -29 8q-160 33 -373 199l-50 30q-29 20 -29 46q0 4 20 67.5t23 76.5q23 112 23 161v286q0 37 -11 112t-11 113q0 30 20 43q97 61 122 90q30 34 68 134
q17 45 17 96q0 111 -12 190q-20 127 -20 183q0 14 14 25q10 8 82.5 41t81.5 33q16 0 30 -11q10 -15 34 -43q102 -91 177 -91q86 0 170 103q5 12 17 35q12 16 27 16q-12 0 169 -45q12 -14 39 -37q-5 -34 -12 -102q-13 -159 -13 -305q0 -66 13 -117q7 -12 20 -37
q43 -92 99 -150q2 -2 32 -22q25 -16 25 -24v-199q0 -9 2.5 -26t2.5 -24q3 -54 49 -353q12 -78 12 -59v-181zM935 1432q-80 -79 -127 -90q-59 -14 -74 -14q-39 0 -105 23q-24 8 -54 36q-25 22 -49 45v-10q0 1 15 -52q30 -108 80 -190q71 -116 151 -116q20 0 61 53
q35 45 48 74q19 42 54 241zM1099 1444l-122 42q-6 -60 -24 -178q-6 -14 -14 -44q-42 -245 -213 -245q-4 0 -6 1q-72 28 -142 143q-6 9 -25 51q-6 10 -17 31q-41 109 -48 228h-14l-93 -38v-13q0 3 18 -61q9 -31 23 -150q3 -17 3 -91v-41q1 -58 -14 -105q-61 -184 -187 -255
q-14 -10 -44 -28q14 -58 36 -174q11 -77 11 -285q191 197 569 596q177 191 258 293q15 19 15 55q0 9 -1 26.5t-1 26.5q0 11 2 22q4 43 15 129q1 6 10 32q6 19 5 32zM1128 815q-20 35 -53 106q-4 11 -21 111q-194 -194 -577 -586q-90 -94 -259 -290q-21 -27 -33 -123
q-14 -113 -24 -140l41 -20zM1310 -98v121l-18 129l-35 258v199q0 9 3 27.5t2 28.5v6q-70 45 -98 97l-909 -931q143 -94 215 -121q94 -35 242 -35q121 0 232 37q52 16 145 58q27 26 85 71q42 25 136 55zM793 1187h-112v87h112v-87z" />
  </g>

</svg>
