<?xml version="1.0" standalone="no"?>
<!DOCTYPE svg PUBLIC "-//W3C//DTD SVG 1.1//EN" "http://www.w3.org/Graphics/SVG/1.1/DTD/svg11.dtd" >
<svg viewBox="0 -442 2048 2048">
  <g transform="matrix(1 0 0 -1 0 1606)">
   <path fill="currentColor"
d="M1884 1059l-371 -371q-326 -333 -991 -985q-24 -23 -100 -46q-71 -22 -109 -22q-45 0 -120 20q-82 21 -111 45q18 41 47 90q54 -6 103 -6q104 0 164 51q58 63 117 126q-6 8 -36 20q-22 9 -22 30q0 23 86 206q-12 11 -47.5 16t-47.5 18v177l9 43q-13 9 -27 9l25 158h67v10
q-12 3 -34 12v123q-20 19 -40 39q-28 28 -28 43q0 9 13 28q-58 36 -71 36q-5 0 -16 -4.5t-16 -4.5q-17 0 -64 27q-51 29 -51 49q0 9 16 32q-11 10 -53 22q-35 9 -53 36q-14 21 -14 36q0 8 5 14q2 38 35 70t71 32q10 135 14 155q19 97 75 125q3 2 10 2q54 0 86 -41
q39 -48 67 -58l18 36q12 22 28 23q103 -102 103 -111q0 -4 -1.5 -11t-1.5 -11q39 -18 118 -50q48 -9 138 -45q18 -12 29 -39q16 -41 19 -46q20 4 59 10q14 -40 58 -107q22 -7 58 -23q34 -21 67 -102q12 0 37 -2q25 -34 79 -100q23 16 30 16q5 0 61 -40l377 373zM951 983
q0 36 -41 116q-12 16 -29 46q-1 10 -5 28q-15 40 -122 66q-24 8 -72 23q-60 -167 -143 -276q-30 -39 -41 -39q-7 0 -77 31q-3 1 -3 7q0 3 56 87q58 88 66 106q4 9 26 67q9 20 26 60q-21 -25 -43 -70l-37 -74q-45 -66 -136 -200q107 -54 97 -54q19 0 117 98q20 -1 32 -18
q36 38 104 117q21 32 53 72q5 4 20 4q45 0 45 -48q0 -41 -62 -110q-45 -50 -91 -101l6 -2q51 22 53 22q12 0 55 -29t57 -29q13 0 88 63q1 15 1 37zM455 1378q-22 11 -56 46q-49 52 -53 54t-12 2q-34 0 -59 -94q-19 -74 -19 -125v-26q17 0 23 7t28.5 58t22.5 59q0 5 -11 24.5
t-11 24.5q0 14 16 14q36 0 36 -59q0 -32 -26 -92.5t-26 -94.5q0 -6 1 -21v-21zM721 1007q-14 14 -26 20l-96 -103l20 -20zM568 1368q0 5 -50 44q-43 -64 -120 -196q-18 -36 -60 -104q-11 -15 -91 -102q10 -9 26 -29q128 128 254 395q11 -10 34 -25q7 9 7 17zM571 1096
q-14 6 -41 19l-66 -111q10 -8 29 -26zM1113 897q0 8 -11 43.5t-15 39.5q-21 22 -30 27q-16 2 -40 8q-24 14 -41 51q-19 44 -30 56q-7 -5 -7 -11q0 -4 16 -46q17 -46 19 -55q4 -19 4 -62q0 -9 -1 -14q-4 -14 -49.5 -48t-60.5 -34t-64.5 29.5t-53.5 29.5q-23 0 -67 -44
q-31 -32 -62 -63h194q7 0 27 -14.5t23 -21.5q10 -22 10 -35q0 -43 -45 -80h-263q-3 -9 -10 -26q75 -17 124 -25q25 -4 37 -8q22 -7 31 -19q16 -21 16 -47q0 -28 -24 -56t-49 -24l-202 31v-205l5 4q8 0 27 -2t29 -2q57 0 288 272q18 18 47 56q5 12 17 34q23 31 69 92
q17 25 54 73q88 100 88 96zM1235 810q0 23 -68 94q-35 -30 -158 -179q28 -22 37 -39q-3 -3 -36 -53q-27 -41 -38 -41q-8 0 -32 25q-80 -93 -252 -271q-101 -93 -101 -106q0 -6 15 -24t21 -18q9 0 21 10q84 71 201 195q4 4 8 9q0 8 -6 23t-6 23q0 15 106 92q64 46 129 92
q22 18 87 85q72 73 72 83zM672 893l-7 8l-39 -30q-13 0 -38.5 16t-25.5 28q0 11 16.5 29.5t19.5 26.5l-134 -111q16 -14 33 -28q22 -19 35 -19q32 0 74 30zM1110 557q-13 10 -40 29l-183 -135q1 -4 8 -17.5t7 -17.5t-19 -30q-22 -31 -24 -34q14 -9 26 -23zM1820 1059l-63 66
l-1271 -1271q-95 -93 -191 -98q-8 0 -28.5 -2.5t-31.5 -2.5q-14 0 -42 6t-42 6q-12 0 -32 -38q40 -42 192 -42q44 0 62 4t66 23q52 21 62 30q4 3 93 91q99 97 220 218l629 630q214 213 377 380zM293 1106q0 4 -10 25.5t-11 28.5q-2 14 -7 41q-34 -6 -68 -11q-36 -12 -36 -61
q0 -10 1 -15q9 -8 25 -19q65 -25 66 -25q6 0 23 15t17 21zM626 691v75h-109v-75h109zM586 592h-118l4 -5q-4 -76 -4 -68q34 -7 103 -21q4 31 15 94zM926 982q0 -50 -65 -50q-19 0 -36.5 18t-17.5 37q0 6 26 42q33 4 47 4q10 0 36 -17q10 -19 10 -34zM1134 765q0 -6 -15 -53
h-10q-19 0 -36.5 13t-17.5 31q0 41 41 41q38 0 38 -32zM773 357q0 -25 -23 -25t-23 20q0 4 2 11t2 11q14 7 19 7q6 0 14.5 -9t8.5 -15z" />
  </g>

</svg>
