<?xml version="1.0" standalone="no"?>
<!DOCTYPE svg PUBLIC "-//W3C//DTD SVG 1.1//EN" "http://www.w3.org/Graphics/SVG/1.1/DTD/svg11.dtd" >
<svg viewBox="0 -442 2048 2048">
  <g transform="matrix(1 0 0 -1 0 1606)">
   <path fill="currentColor"
d="M1561 1112q0 -238 -184 -291v62q115 42 115 152q0 72 -49 114q-11 9 -102 60q-63 35 -82 81l-1 -621q0 -16 -10 -44q-21 -63 -82.5 -101t-129.5 -38q-86 0 -149 53q-67 57 -67 141t67 139q64 52 149 52q84 0 144 -47l4 744q57 -88 229 -195q87 -54 117.5 -108t30.5 -153z
M2008 452q0 -100 -43 -177q-51 -90 -141 -104v58q115 35 115 156q0 69 -53 111q-6 5 -105 59q-64 35 -81 81l-2 -633q0 -16 -19 -54q-56 -113 -198 -113q-85 0 -149 52q-68 56 -68 139t68 137q63 50 148 50q70 0 147 -40l4 737q41 -65 107 -115q15 -11 132 -86
q90 -57 115 -118q23 -55 23 -140zM826 261q0 -95 -46 -175q-52 -91 -138 -109v62q115 43 115 154q0 70 -50 112q-14 12 -103 60q-64 35 -85 78l-2 -624q0 -13 -12 -44q-51 -129 -207 -129q-85 0 -149 53q-67 56 -67 139q0 82 67 137q63 52 147 52q80 0 147 -47l3 747
q42 -67 126 -128l150 -102q104 -77 104 -236z" />
  </g>

</svg>
