<?xml version="1.0" standalone="no"?>
<!DOCTYPE svg PUBLIC "-//W3C//DTD SVG 1.1//EN" "http://www.w3.org/Graphics/SVG/1.1/DTD/svg11.dtd" >
<svg viewBox="0 -442 2048 2048">
  <g transform="matrix(1 0 0 -1 0 1606)">
   <path fill="currentColor"
d="M2034 465q0 -140 -62 -269q-8 -25 -25 -73q-21 -54 -44 -86q-20 -28 -92 -47q-4 -1 -45 -1q-85 0 -123 31q-32 27 -67 110q-4 28 -25 84q-9 -14 -29 -40q-33 -33 -118 -33q-59 0 -103 22l-5 -11q-24 -242 -193 -402q-171 -163 -413 -163q-252 0 -430 178t-178 430
q0 251 178 430t429 179q54 0 157 -23q38 84 38 112q0 119 -15 226q-20 138 -20 144q0 114 39 165q29 38 92 62q5 2 21 2q181 0 181 -246l-8 -93l-15 -186q-3 -32 10.5 -94.5t29.5 -90.5q78 133 78 266l-7 89l-15 177v43q0 183 174 183q12 0 53 -24q38 -22 61 -90
q20 -60 16 -110l-17 -186l-8 -93q0 -65 22 -129q5 -15 50 -120h2q37 87 37 154q0 89 -6 133q-17 121 -17 180q0 85 40 150q47 77 127 77q72 0 123 -61q10 -11 29 -63q11 -29 11 -102q0 -53 -19 -158t-19 -158q0 3 5 -33q11 -82 54 -177q61 -136 61 -265zM1911 1263
q0 9 -6 46q-22 126 -115 126h-5q-118 0 -118 -184q0 -111 16 -142h205zM1872 969v53h-176v-53h176zM1514 1301q0 197 -107 197q-114 0 -114 -173l16 -134h192q13 75 13 110zM1487 1058q-2 13 0 50h-166l10 -50h156zM1137 1282q0 18 -14.5 63.5t-24.5 59.5q-30 42 -69 42
q-133 0 -133 -172q0 -30 23 -160h202q16 53 16 167zM1977 461q0 113 -45 228q-17 34 -46 104q-5 25 -17 74q-125 -9 -107 -9q12 0 -74 9q-7 -61 -61 -173.5t-60 -176.5q-1 -7 -5 -30q-3 -19 -3 -30q0 -75 23 -169q21 -87 65 -174q8 -20 26 -48q24 -23 101 -23q59 0 77 20
q57 62 94 188q32 112 32 210zM1108 972v56h-175q3 -47 0 -56h175zM1575 720q0 25 -30 87q-38 77 -42 88q-6 23 -18 70q-55 -6 -88 -6q-36 0 -77 6q-14 -68 -38 -127q-50 -120 -50 -118q0 -4 20 -58q21 -58 24 -69q20 -82 20 -139q0 -58 -8 -99t-8 -28q0 -34 20 -86
q18 -47 72 -47q73 0 109 12q43 73 43 87q0 25 -9.5 74.5t-9.5 74.5q0 63 42 208q2 6 15 38q13 28 13 32zM1238 458v26q0 69 -38 162l-68 154q-6 24 -18 73h-19q-12 0 -36.5 -3t-36.5 -3q-14 0 -44 3t-46 3v-8q1 -21 -9 -52q-16 -45 -17 -50q88 -23 193.5 -121t138.5 -184z
M513 514q0 119 -89 119q-88 0 -166 -115q-72 -107 -72 -199q0 -43 21 -75q25 -36 66 -36q85 0 165 112q75 105 75 194z" />
  </g>

</svg>
