<?xml version="1.0" standalone="no"?>
<!DOCTYPE svg PUBLIC "-//W3C//DTD SVG 1.1//EN" "http://www.w3.org/Graphics/SVG/1.1/DTD/svg11.dtd" >
<svg viewBox="0 -442 2048 2048">
  <g transform="matrix(1 0 0 -1 0 1606)">
   <path fill="currentColor"
d="M2022 1110q0 -18 -21.5 -33.5t-39.5 -15.5q-16 0 -51.5 17t-56.5 17q-48 0 -133 -48q-17 -10 -116 -95q88 -52 88 -175q0 -82 -59 -141q-25 1 -25 -34t-64 -108q-57 -65 -170 -196q-23 -30 -73 -83q-3 -3 -22 -10q17 -16 33 -32q24 -23 24 -34q0 -26 -43 -76
q-10 -2 -30 -5q-2 -10 -10 -30q-11 -18 -65 -50q0 -7 -1 -22q-20 -16 -39 -33q-27 -22 -42 -22t-43 28q-20 19 -40 39q-48 -61 -128 -141q-11 0 -32 -8q-8 -7 -37 -38q-60 -63 -84 -79q-42 -27 -112 -27q-142 0 -206 101q-4 14 -13 40q-42 -36 -114 -116v-23q0 -30 -58 -64
q-14 -8 -37 -8q-20 0 -56 25.5t-47 44.5q-6 26 -17 75q22 20 44.5 40t53.5 20q5 0 15.5 -1.5t15.5 -1.5q3 0 482 493q-5 12 -18 25l31 38q-10 14 -19 14q-5 0 -18.5 -4.5t-21.5 -4.5q-4 5 -4 15q0 13 48 60h18q9 -7 9 -17q0 -5 -4.5 -13.5t-4.5 -13.5q0 -7 21 -19
q16 13 49 46q-10 20 -21 20q-4 0 -14 -3t-16 -3q-6 13 -6 14q0 16 45 58h21q6 -15 6 -17q0 -4 -6 -11t-6 -12q0 -2 20 -23q16 13 52 49q-9 15 -21 27q-9 -6 -18 -6q-18 0 -18 11q0 10 26.5 34t36.5 24q13 0 13 -17q0 -11 -13 -23q6 -8 18 -23q30 22 41 22q4 0 11.5 -3
t11.5 -3q8 0 13 14q-9 12 -35 30l1 33q21 50 56 49v-15q0 -4 -11 -21t-11 -22q0 -4 14 -15q104 117 308 353q89 101 177 202q115 144 115 225q0 23 -15.5 63t-15.5 60q0 18 14.5 33.5t32.5 15.5q57 0 217 -147q142 -131 191 -204q29 -44 29 -85zM1575 609q0 2 -4 14
l-342 -380q11 -8 17 -8q8 0 127 130l140 154q62 66 62 90zM1953 1133q-45 74 -164 195q-127 128 -194 161v-11q0 4 8 -19q11 -32 11 -118q0 -23 -25 -77q-42 -90 -129 -195l-154 -176q-109 -130 -237 -276q-45 -52 -137 -155q-232 -233 -695 -701q13 -19 20 -33l536 514
l118 -112q-49 -53 -97 -106q-67 -74 -67 -116q0 -44 82 -44q13 0 21 4q16 8 82 81q61 68 73 68q41 0 60 -15l46 -44q15 13 42 43l-70 67q-47 -25 -57 -25q-38 0 -64 16q-133 -158 -143 -158q-22 0 -22 18q0 3 141 153q0 8 -5 23.5t-5 23.5q0 29 24 69l-111 118l24 21
l104 -114q30 26 83 26l-132 146q10 11 21 11q1 -1 3 -2q57 -66 169 -167v-21l-29 -13q18 -4 46 -18l9 10l101 -95q22 22 49 56l-87 83q-29 -22 -45 -22q-10 0 -16 8q7 3 24 12q8 5 80 81q94 104 287 306q51 50 58 57q37 41 40 66q6 8 6 49v28q-1 19 -1 28q0 17 -68.5 73.5
t-87.5 56.5q-27 0 -45 -11q-30 -18 -83 -75q-70 -75 -80 -84q-7 7 -8 14q79 85 182 177q18 2 48 12q26 32 73 88q140 163 222 163q-2 0 71 -43v-15l-2 -2l-33 1q-119 0 -255 -165q-14 -17 -38 -40l15 -4q54 60 140 110q96 57 165 57q46 0 63 -7q37 -15 35 -15h4zM933 492
q-7 5 -21 14l-52 -52l24 -14q12 15 49 52zM1213 70q0 2 -71 83q-39 -67 -39 -66q0 -5 32.5 -32.5t38.5 -27.5q5 0 13 5q26 32 26 38zM860 416l-20 21q-17 -17 -46 -55q3 -5 11 -14q18 16 55 48zM1112 144q0 1 -3 12q-3 0 -9.5 2t-10.5 2q-2 0 -28.5 -25.5t-41.5 -25.5
q-17 0 -17 24q0 17 19 34q16 13 31 26q-4 20 -22 20q-25 0 -45.5 -29t-20.5 -56q0 -54 78 -54q4 0 10 2q60 45 60 68zM782 357q-5 7 -15 14l-42 -43q3 -6 11 -17q26 20 46 46zM838 114q-22 27 -45 46q-38 -34 -115 -101l-74 -62q-43 -43 -43 -81q0 -81 103 -81q13 0 34 33
q-6 69 -6 57q0 33 60 99zM794 -172q-46 20 -45 20q-3 0 -35.5 -33t-68.5 -33q-96 0 -124 49q-17 30 -17 66q0 -9 12 58q-19 -20 -37 -39q-22 -25 -22 -48q0 -61 55 -101q49 -36 112 -36q58 0 97 26q29 18 73 71zM243 -297q0 12 -32 49q-3 1 -8 1q-17 0 -36 -10
q-23 -12 -22 -27q34 -43 78 -54q20 27 20 41zM1607 774q0 -29 -60 -88q-144 -143 -434 -425q-4 8 -4 9q0 9 407 417q-3 2 -15 2q-11 0 -15 -1q-118 -113 -366 -355l-124 121l457 438l-2 2q-10 0 -25 -11.5t-30 -10.5h-6v14q34 43 85 43q5 0 21 -1l66 -74q45 -52 45 -80z
M1560 773l-81 89q-19 -19 -23 -33l90 -83q2 4 14 27zM1490 750q-18 21 -58 59q-21 -18 -68 -65q45 -55 52 -55q13 0 74 61zM1390 668q-15 17 -49 49l-175 -169q40 -6 65 -26zM1204 493q-2 4 -4 13h-36q-14 -9 -14 -30q0 -9 8 -33zM1138 421q0 7 -11 31.5t-11 31.5q0 5 1 14
t1 14q-21 -21 -62 -64l55 -58q27 37 27 31z" />
  </g>

</svg>
