<?xml version="1.0" standalone="no"?>
<!DOCTYPE svg PUBLIC "-//W3C//DTD SVG 1.1//EN" "http://www.w3.org/Graphics/SVG/1.1/DTD/svg11.dtd" >
<svg viewBox="0 -442 2462 2048">
  <g transform="matrix(1 0 0 -1 0 1606)">
   <path fill="currentColor"
d="M2315 148q0 -34 -14 -56q-103 80 -253 161q36 39 113 39q59 0 106.5 -42.5t47.5 -101.5zM1437 380q0 -14 -9 -48q-68 39 -68 55q0 13 53 31q24 -19 24 -38zM2462 -16q-185 -30 -375 -30l-425 1l15 21q-292 -12 -415 -12q-86 0 -259 9.5t-259 9.5q-26 0 -86 -10
q-55 -9 -85 -7l-207 11l22 9l-103 11l91 6q-72 43 -66 144q-39 4 -120 6l-20 297q43 -3 97 -3q64 0 290 14q47 -24 80 -73q35 -52 33 -103l86 8q166 121 367 121q32 0 64 -3q34 96 82 96q17 0 19 -32q1 -24 -5 -43q21 35 60 35q65 0 74 -38q-68 -10 -68 -38q2 -5 5 -13
q35 -38 97 -66q-3 17 16 17t32 -42l81 31q18 -3 35 -3q42 0 84 12q26 -9 191 -34q86 -13 212 -81q122 -65 188 -130l148 25l19 -30l-26 -69l-230 -20zM2427 51l-10 7l-230 -17l-5 11l-10 9l-2 -32l20 -10zM2280 75q-95 71 -310 192l-23 -17l-65 4q175 -61 371 -202z
M1880 234q-31 39 -81 39q-58 0 -85 -32q33 22 78 22q38 0 88 -29zM1940 -12l-7 31q-10 -17 -39 -31h46zM1861 119q0 39 -26.5 65t-65.5 26q-41 0 -68.5 -27.5t-27.5 -68.5q0 -94 92 -94q96 0 96 99zM1439 287q0 13 -2 23q-101 49 -101 93q0 12 26 22q9 3 27 10q0 15 -44 15
q-50 0 -71 -76l21 -6l5 -18l45 -25l12 12l66 -28l-7 -21zM1665 268l-15 13l-123 10q-21 -7 -64 -13l-349 13l-33 -35l1 -20q46 4 94 4q137 0 224 -21l7 23q48 34 125 31zM1232 396l-21 3l4 -18q0 -9 -12 -17l-85 4l-22 -27l24 -9l1 -14h16q0 -23 24 -23q23 0 53 18z
M1088 381l-68 1l-22 -60l71 -1zM1556 131q0 22 -31 20l1 19q-25 1 -42 13q-43 0 -64 -28q-30 3 -37 3q-18 0 -40 -11q-23 16 -44 16q-17 0 -40 -13l-31 13h-141l2 29h-95l-22 -12l-6 12h-45l-35 -158h271l5 13q21 -13 35 -13q9 0 41 7q24 -7 42 -7q12 0 47 7q36 -7 43 -7
h136l19 81l5 -1q26 0 26 17zM835 144l-3 58l-48 4l-2 46l-68 4l-7 -45l64 -4l-26 -63h90zM822 13l-3 54l-78 5l7 -54zM544 223q1 19 -28.5 39t-50.5 20q-16 0 -27 -8q18 -5 53 -18q15 -15 51 -35zM467 298v96l-122 -9l47 -110q36 24 75 23zM528 131q0 100 -81 100
q-38 0 -65 -29.5t-27 -68.5q0 -38 22.5 -68t59.5 -30q39 0 65 28.5t26 67.5zM292 298q0 41 -38 37l-1 15l9 12q6 -2 10 -11h15v9q0 32 -27 32q-20 0 -25 -17q-6 14 -26 14q-25 0 -25 -38l4 -15h17l-2 19l7 8l9 -8q-4 -12 -29 -63v-45h47l-1 17q7 -18 26 -18q30 0 30 52z
M338 223l-3 11h-110v-47l92 -4q3 21 21 40zM1852 127q0 -27 -14 -39q-29 13 -29 21q0 18 31 23l-7 16q-30 -5 -68 -25q7 2 12 2q16 0 16 -19q0 -18 -20 -18q-21 0 -18 22l-1 1q-13 -11 -40 -30l-18 3l8 -29q-22 25 -22 59q0 36 25 61t61 25q84 0 84 -73zM1823 61
q0 -18 -30 -19l-5 14v12q0 14 8 14q27 0 27 -21zM1761 65q-1 -7 -7 -25q-32 2 -32 19q0 19 26 19q13 0 13 -13zM516 135q0 -40 -18 -60l-9 27l-16 -26q-15 -1 -24 -1q-36 0 -46 31q-2 6 -8 62l-5 7l-8 -8l5 -17q-2 -8 -2 -18q0 -20 10 -47q-31 13 -31 50q0 28 26.5 55.5
t54.5 27.5q31 0 51 -25.5t20 -57.5zM271 290l-8 -17l-8 17v8l8 13l8 -13v-8zM234 299h-10v-19h-18l28 51v-32zM1750 138l-29 5l16 -21zM483 152l-15 10l-7 -3l3 -21zM442 198l-13 3l-8 -1q-7 -4 -18 -15l5 -13q11 8 34 26z" />
  </g>

</svg>
