<?xml version="1.0" standalone="no"?>
<!DOCTYPE svg PUBLIC "-//W3C//DTD SVG 1.1//EN" "http://www.w3.org/Graphics/SVG/1.1/DTD/svg11.dtd" >
<svg viewBox="0 -442 2048 2048">
  <g transform="matrix(1 0 0 -1 0 1606)">
   <path fill="currentColor"
d="M1822 1165q0 -139 -127 -208q-40 -22 -235 -78q-127 -36 -127 -96q0 -83 87 -83q59 0 59 68q40 0 40 -65q0 -46 -48 -70q-38 -20 -89 -20q-53 0 -87 24q-22 -166 -242 -233v-36h24v-25h47q14 -7 14 -22q0 -17 -14 -32h-45v-23h-26v-38q0 -75 13 -120q99 0 99 -42
q80 1 80 -89q0 -9 -62 -20q-117 -20 -233 -20q-115 0 -225 19q-65 11 -65 21q0 90 80 89q-2 42 100 42q12 43 12 158h-26v23h-44q-15 16 -15 32t15 22h46v25h24v36q-220 66 -241 233q-34 -24 -88 -24q-51 0 -89 20q-47 24 -47 70q0 65 39 65q-1 -68 59 -68q88 0 88 83
q0 60 -127 96q-196 56 -237 78q-127 69 -127 208q0 93 66 148q48 39 152 69q18 16 30 47h50q7 -65 124 -64l2 24q79 75 446 75t447 -75l2 -24h20q97 0 104 64h50q11 -31 30 -47q103 -30 151 -70q66 -54 66 -147zM1751 1172q0 77 -50 101q13 -42 13 -83q0 -87 -117 -169
q54 0 104 48.5t50 102.5zM1682 1203q0 111 -122 111q-132 0 -121 -130l-36 -19l-46 84q-34 -142 -49 -323q37 30 146 71q113 42 155 72q73 52 73 134zM1309 1391q-10 15 -165 30q-132 13 -191 13q-197 0 -354 -40l-3 -3q1 -11 94 -23q132 -17 262 -17q77 0 194 9
q155 12 163 31zM1340 1356q-69 -13 -110 -25q-21 -6 -21 -25q0 -73 -1 -229l-1 -229q0 -293 -223 -362q155 5 216 136q42 90 48 281q7 232 15 272q19 96 77 181zM928 524q-139 72 -139 408q0 63 6.5 189.5t6.5 189.5l-55 8q18 -70 18 -134q0 -29 -2.5 -86t-2.5 -86
q0 -466 168 -489zM921 486q-93 28 -143 149q-40 98 -40 213l-1 458q0 16 -22 22q-25 7 -149 28q56 -82 75 -181q14 -211 27 -422q40 -260 253 -267zM597 926q-16 181 -49 323l-46 -84l-36 19q1 21 1 29q0 101 -121 101q-123 0 -123 -111q0 -82 72 -134q43 -31 154 -72
t148 -71zM256 974q-119 57 -119 193q0 84 71 150q-103 -23 -103 -154q0 -63 46 -117q42 -48 105 -72zM1200 19h-22q-38 0 -114 -2.5t-114 -2.5q-41 0 -122.5 2.5t-121.5 2.5q106 -26 244 -26q137 0 250 26z" />
  </g>

</svg>
