<?xml version="1.0" standalone="no"?>
<!DOCTYPE svg PUBLIC "-//W3C//DTD SVG 1.1//EN" "http://www.w3.org/Graphics/SVG/1.1/DTD/svg11.dtd" >
<svg viewBox="0 -442 2048 2048">
  <g transform="matrix(1 0 0 -1 0 1606)">
   <path fill="currentColor"
d="M900 1430q0 -21 -20.5 -42t-40.5 -17q27 -31 27 -72q0 -52 -35 -87.5t-87 -35.5t-86.5 34t-34.5 86q0 51 34.5 87t85.5 36q19 0 48 -8q5 24 10 49q8 20 46 20q53 0 53 -50zM1386 745q0 -35 -27 -64t-62 -29q-50 0 -83 49q-9 15 -42 93q-20 47 -62 132h-130l78 -162
q62 -129 62 -148q0 -61 -53 -87q-52 -17 -105 -34.5t-162 -55.5l-3 -6q1 -5 41 -188q213 92 336 92q136 0 136 -107q0 -147 -297 -305q-150 -80 -327 -152q-235 -97 -333 -97q-59 0 -101 24q-51 29 -101 90q-56 69 -56 119q0 54 55 86q22 13 102 39q105 31 209 61
q125 37 204 77l-65 326q-1 5 -1 12q0 42 51 69q12 6 88 32q67 23 162 60l-124 251l-193 -131q-29 -22 -90 -58q-20 -9 -39 -9q-37 0 -65 27t-28 64q0 50 52 90q47 29 93 59q56 36 166 112q-11 15 -11 28q0 42 44 42q9 0 26.5 -4t26.5 -4q61 0 141 66l144 122q93 66 186 66
q39 0 89 -15q64 -20 64 -49q0 -42 -39 -42q-20 0 -58 11.5t-58 11.5q-85 0 -170 -73l-142 -126l268 -2q31 0 57 -28q13 -14 79.5 -166t66.5 -169zM1227 241q-18 12 -57 12q-96 0 -319 -88q23 -120 23 -121q0 -37 -28 -64t-66 -27q-83 0 -101 133q-118 -43 -299 -98
q-56 -15 -166 -52q-26 -11 -43 -26q15 -53 71 -102t109 -49q99 0 362 114q219 95 353 176q163 98 161 192z" />
  </g>

</svg>
