<?xml version="1.0" standalone="no"?>
<!DOCTYPE svg PUBLIC "-//W3C//DTD SVG 1.1//EN" "http://www.w3.org/Graphics/SVG/1.1/DTD/svg11.dtd" >
<svg viewBox="0 -442 2048 2048">
  <g transform="matrix(1 0 0 -1 0 1606)">
   <path fill="currentColor"
d="M897 1486q0 -50 -25 -107q-11 -21 -31 -65q-25 -80 -78 -239q-49 -134 -128 -407q-6 -45 -20 -135q-24 -138 -73 -186q-34 -33 -34 -58q0 -8 1 -22t1 -19l35 -8q108 -25 177 -106t69 -190q0 -127 -89.5 -216.5t-216.5 -89.5q-126 0 -215.5 89.5t-89.5 215.5q0 119 77 203
q75 80 195 99v58q-29 52 -60 141q-43 118 -54 144q-43 95 -85 190q-46 114 -46 201q0 96 -10 156q-2 13 -36 165q-22 100 -22 168q0 34 27 53q27 15 54 31q89 -88 100 -104q20 -29 20 -87v-45q-1 -34 -1 -60q0 -93 51 -250q43 -124 86 -247l80 306q44 152 104 255
q73 126 206 247q10 -20 19 -39q12 -25 12 -42zM749 -60l-59 42l42 59l-74 15l14 74l-77 -15l-9 71l-62 -41l-42 62l-44 -65l-60 44l-11 -77l-76 22l16 -78l-74 -12l47 -62l-68 -42l68 -39l-47 -62l77 -17l-18 -72l75 21l11 -80l63 47l41 -65l44 62l60 -44l15 77l71 -18
l-12 77l72 12l-45 60z" />
  </g>

</svg>
