<?xml version="1.0" standalone="no"?>
<!DOCTYPE svg PUBLIC "-//W3C//DTD SVG 1.1//EN" "http://www.w3.org/Graphics/SVG/1.1/DTD/svg11.dtd" >
<svg viewBox="0 -442 2048 2048">
  <g transform="matrix(1 0 0 -1 0 1606)">
   <path fill="currentColor"
d="M1618 1163h-56v204h56v-204zM1550 1073h-105v388h105v-388zM343 1073h-105v388h105v-388zM226 1163h-56v204h56v-204zM1434 1246h-78l-314 -543v-930q0 -69 -65 -69t-65 69v594h-36v-594q0 -69 -65 -69t-65 69v930l-314 543h-78v40h64q0 20 18.5 35.5t38.5 15.5
q28 0 56 -51h726q28 51 56 51q20 0 38.5 -15.5t18.5 -35.5h64v-40zM1232 1246h-676l171 -286q42 -71 84 -71h166q42 0 84 71zM1009 1056q0 -54 -30 -99q-34 -51 -85 -51t-85 51q-30 45 -30 99q0 53 30 93q34 45 85 45t85 -45q30 -40 30 -93z" />
  </g>

</svg>
