<?xml version="1.0" standalone="no"?>
<!DOCTYPE svg PUBLIC "-//W3C//DTD SVG 1.1//EN" "http://www.w3.org/Graphics/SVG/1.1/DTD/svg11.dtd" >
<svg viewBox="0 -442 2048 2048">
  <g transform="matrix(1 0 0 -1 0 1606)">
   <path fill="currentColor"
d="M1982 1148l-3 -145q-2 -73 -63 -281q-23 -80 -111 -296q-11 -28 -85 -136q-202 -296 -479 -457q-33 -19 -91 -39q-80 -27 -94 -33q-134 -55 -315 -101q-28 -8 -83 -21q-39 -7 -199 -7q-117 0 -191 44q-13 8 -90 86q-31 32 -46 59q-50 93 -50 300q0 96 35 284
q13 39 35 117q24 107 125 281q32 38 91 111q207 264 449 425q71 47 207 102q66 27 188 56q34 5 102 17q96 19 130 18h49q12 0 157 -12q80 -7 134 -33q71 -35 153 -141q48 -62 45 -198zM1902 1193q0 8 -15.5 57t-20.5 56q-54 77 -107 104q-24 12 -161 31q-15 2 -39 2
q-142 0 -193 -9q-23 -4 -93 -11l6 -11q65 -7 52 -7q13 0 36 6q28 8 37 9q52 7 141 7q5 0 22.5 -8t22.5 -8q-1 0 20 13l8 -14q-5 -6 -14 -13q-33 -10 -145 -10q-5 0 -14 3t-14 3q-17 0 -47 -9q166 -95 405 -355q12 16 28 48q9 35 18 169q3 15 6 46l7 12q18 -10 18 -60
q0 -154 -44 -257l45 -57q35 105 35 263zM1855 855q-15 39 -41 93q-11 14 -75 83q-172 185 -304 280q-77 55 -132 77.5t-81 22.5q-14 0 -131 -50q30 -15 87 -49q195 -145 309 -259t166 -170q90 -97 152 -184zM1125 1299q-60 45 -78 45q8 0 -39 -15q-141 -44 -357 -244
q-201 -186 -286 -328q-20 -25 -54 -77q-41 -82 -41 -114q0 -13 48 -77l42 90q-40 68 -40 61q0 18 15 46.5t31 28.5q5 0 12.5 -5t12.5 -5q7 0 15 18q-19 13 -19 27q0 11 1 15q37 51 53 51q8 0 22 -9l8 7q-6 8 -16 25q49 57 60 57q5 0 25 -12l17 17q-15 22 -15 26q0 9 24 32.5
t33 23.5q3 0 7 -1.5t7 -1.5q5 0 20 20q-2 11 -2 17q0 10 23.5 32.5t32.5 22.5q4 0 26 -15q6 6 17 20q-13 23 -13 21q0 11 58 61q29 -16 21 -16q7 0 10 8q-5 25 -5 26v4q40 45 60 45q11 0 19.5 -8t14.5 -10q12 6 17 17q-13 14 -13 23q0 10 30.5 28t42.5 18q3 0 32 -21.5
t33 -21.5q11 0 88 48zM1057 1157q-34 54 -88 97q-13 -7 -18 -34l-65 -49q-4 0 -13.5 7.5t-13.5 7.5q-6 0 -21 -16q4 -7 12 -22q-50 -42 -55 -42q-4 0 -10.5 4.5t-10.5 4.5t-13 -10q12 -36 12 -30q0 -5 -29.5 -30t-35.5 -25l-23 12q-12 -18 -20 -26q12 -23 12 -22
q0 -6 -20.5 -26.5t-26.5 -20.5q1 0 -22 12q-8 -7 -26 -20l12 -23q0 -6 -25 -35.5t-30 -29.5q6 0 -30 12q-10 -5 -10 -13q0 -4 4 -11t4 -11q-26 -34 -44 -51q-7 4 -22 9q-13 -24 -13 -23q0 5 15 -24q-50 -67 -52 -67q-3 0 -6.5 1.5t-6.5 1.5q-5 0 -18 -23q60 -64 97 -85
q12 18 17 33q-50 36 -50 41q0 13 17 34.5t30 21.5q10 0 31 -16q22 -19 29 -21q11 21 11 20q0 4 -20 21.5t-20 21.5q32 60 47 60q2 0 44 -21q16 24 16 32q0 3 -15 18.5t-15 23.5q0 11 16.5 25.5t27.5 14.5q17 0 41 -19q19 18 23 27q-34 35 -34 44q0 12 15.5 27.5t27.5 15.5
t26 -15t22 -19l23 23q-19 25 -19 41q0 11 14.5 27.5t25.5 16.5q4 0 22.5 -15.5t22.5 -15.5q2 0 32 20q-2 5 -15 19q-9 10 -9 20t25 29.5t36 19.5t23 -20t19 -20q-4 0 20 10q-2 7 -19.5 29t-17.5 32q0 12 21.5 29t34.5 17q7 0 20 -21l18 -28q21 5 36 17zM1692 784
q-79 86 -241 256q-44 44 -194 168l-46 44q-31 27 -54 27q-22 0 -52 -22q-22 -19 -45 -38q46 -64 46 -67q0 -12 -27 -30.5t-39 -18.5q-32 0 -62 43l-5 -8q34 -39 34 -46q0 -14 -30 -35.5t-45 -21.5q-9 0 -21 14.5t-16 16.5l-11 -7q25 -48 25 -41q0 -14 -35.5 -32.5
t-51.5 -18.5q2 0 -38 31l-5 -8q28 -46 28 -44q0 -11 -22 -35t-34 -24q-24 0 -50 34l-8 -8q34 -27 34 -50q0 -12 -25.5 -35.5t-38.5 -23.5q4 0 -40 34l-14 -14q38 -38 38 -42q0 -20 -17 -47q-18 -30 -37 -30q-4 0 -37 25l-8 -8q31 -40 31 -41q0 -12 -23.5 -43t-33.5 -31
q-14 0 -29 14.5t-25 16.5q43 -36 43 -65q0 -12 -19 -38.5t-31 -26.5q-2 0 -66 46q-19 -22 -37 -44q-23 -28 -23 -51q0 -22 6.5 -30.5t85.5 -100.5q52 -60 158 -177q84 -75 248 -229q14 8 41 20q12 1 34 6q34 20 102 59q104 58 170 117q381 340 486 579q8 27 26 81zM1788 651
q0 5 -58 82q-12 -17 -31 -53q-22 -56 -82 -148q-18 -21 -53 -62q-7 -14 -24 -40q-32 -44 -113 -129q-15 -14 -42 -43l-10 -21l-12 -2q-20 -20 -61 -59t-118 -103q-8 -3 -22 -11q-17 -15 -51 -43q-79 -61 -177 -105q-31 -14 -56 -34q21 -11 59 -36q22 -18 19 -18q36 0 97 29
q157 74 268 152q17 9 47 30q135 119 208 212q131 168 203 374q9 26 9 28zM915 -189q-48 29 -108 85q-49 48 -99 95q-53 44 -147 137q-156 180 -164 190q-92 112 -144 205q-51 -110 -51 -131q0 -29 23 -81q18 -41 56 -98q95 -144 354 -378q11 -13 34 -35q57 -42 90 -42
q21 0 156 53zM683 -253q-19 15 -56 45q-83 -30 -123 -36.5t-131 -6.5q-54 0 -63 17l12 7q73 2 218 26q11 3 45 29q-201 177 -333 362q-7 15 -24 43q-4 -34 -4 -47q0 -9 2 -27.5t2 -27.5q0 -18 -4 -54.5t-4 -54.5q0 -23 -18 -23q-6 0 -9 5q3 7 8 21q-11 64 -11 55q0 26 3 81
q1 18 9 62q7 41 7 61q0 52 -18 54q-3 -31 -11 -94q-9 -50 -9 -196q0 -16 13 -101.5t16 -91.5q16 -12 46 -37q17 -23 56 -65q14 -12 65 -25t74 -13q114 0 242 32zM1149 1225q-13 -20 -31 -20q-11 0 -15 4q2 11 16 17q11 3 23 7zM1177 1197q-3 -11 -5 -22q-4 -16 -18 -16
q-11 0 -11 13q0 -1 20 39zM1134 1110q0 -2 -30 -32q-4 4 -13 11q6 12 28 32h15v-11zM1054 1030l-36 -35q-14 7 -14 14q0 9 16 18.5t26 10.5zM982 979q0 -3 -28 -39h-11q0 3 -7 10l29 29h17zM912 900q-8 -6 -23 -19h-16q-4 4 -4 9q0 6 22 28h17q2 -6 4 -18zM853 853
q0 -11 -33 -30q0 1 -3.5 5t-3.5 8t29 33q11 -11 11 -16zM1106 562q0 -17 -18.5 -35.5t-35.5 -18.5q-19 0 -35 16t-16 35q0 17 19.5 35.5t36.5 18.5q18 0 33.5 -16.5t15.5 -34.5zM791 793q-4 -11 -25 -34q-4 -1 -8 -1q-5 3 -13 10l32 33q6 0 14 -8zM733 731q0 -5 -20 -25h-17
v17l22 22h11q0 -1 2 -5.5t2 -8.5zM674 667q-20 -35 -34 -35h-2q0 1 -2 4.5t-2 7.5t29 33zM619 599q-9 -12 -36 -39q0 1 -3.5 4t-3.5 7q17 39 29 39q9 0 14 -11zM535 509q-10 -11 -31 -29h-11v15q11 9 36 25q0 -5 6 -11zM455 463q0 -13 -39 -23l-10 11q11 8 32 23h10
q7 -7 7 -11zM409 494q0 -18 -16 -29q-5 0 -15 10q6 16 27 36q0 -3 2 -8.5t2 -8.5z" />
  </g>

</svg>
