<?xml version="1.0" standalone="no"?>
<!DOCTYPE svg PUBLIC "-//W3C//DTD SVG 1.1//EN" "http://www.w3.org/Graphics/SVG/1.1/DTD/svg11.dtd" >
<svg viewBox="0 -442 2048 2048">
  <g transform="matrix(1 0 0 -1 0 1606)">
   <path fill="currentColor"
d="M611 1062q0 -56 -39.5 -94.5t-95.5 -38.5t-95.5 38.5t-39.5 94.5q0 57 39.5 94t96.5 37t95.5 -37.5t38.5 -93.5zM1174 923q0 -51 -44 -65q-20 -6 -130 -26q-129 -23 -225 -37l103 -417q20 -81 20 -159q0 -3 -1 -11l-51 -433q-12 -98 -84 -98q-33 0 -57 21.5t-20 54.5
l54 458q-6 36 -14 81h-8l-397 -588q-28 -41 -55 -41q-95 0 -95 73q0 35 34 86l346 515q2 2 7 16l-114 460q-1 6 3 19q15 44 78 56q121 20 362 62q51 6 149 31l-653 437q-20 -25 -40 -49q-30 -36 -44 -36q-46 0 -46 51q0 11 34 63q42 64 44 68l809 -531q35 -23 35 -61z" />
  </g>

</svg>
