<?xml version="1.0" standalone="no"?>
<!DOCTYPE svg PUBLIC "-//W3C//DTD SVG 1.1//EN" "http://www.w3.org/Graphics/SVG/1.1/DTD/svg11.dtd" >
<svg viewBox="0 -442 2048 2048">
  <g transform="matrix(1 0 0 -1 0 1606)">
   <path fill="currentColor"
d="M1954 4q0 -79 -96 -79q-13 0 -211 119q-191 115 -227 141q-20 15 -49 58q-59 88 -209 296l-330 -3q8 -11 95 -139q41 -50 107 -156q9 -19 9 -38q0 -33 -22.5 -55.5t-55.5 -22.5q-29 0 -46 13q-10 7 -151 209.5t-153.5 228t-12.5 45.5q0 28 13 45q25 32 44 32h291
l-311 216l-5 -3q-18 -46 -59 -137l-38 -94q-27 -51 -78 -51q-17 0 -102 41q-72 32 -144 65q-86 39 -138 75q-36 25 -36 69q0 32 22 55t54 23q37 0 301 -141q14 23 99 214q35 79 74 79h487q20 0 150 -87q76 -44 215 -145q28 -25 28 -59q0 -80 -90 -80q-12 0 -22 5
q-53 27 -158.5 102t-165.5 104l-162 -2q131 -81 379 -261q24 -20 95 -128q38 -64 76 -127q46 -75 92 -115q75 -65 301 -189q38 -19 108 -63q32 -25 32 -60zM465 1166q0 -52 -36.5 -87.5t-88.5 -35.5t-88.5 36.5t-36.5 88.5q0 50 37.5 87.5t87.5 37.5q54 0 89.5 -36.5
t35.5 -90.5z" />
  </g>

</svg>
