<?xml version="1.0" standalone="no"?>
<!DOCTYPE svg PUBLIC "-//W3C//DTD SVG 1.1//EN" "http://www.w3.org/Graphics/SVG/1.1/DTD/svg11.dtd" >
<svg viewBox="0 -442 2048 2048">
  <g transform="matrix(1 0 0 -1 0 1606)">
   <path fill="currentColor"
d="M1291 844q0 -24 -47 -42q-106 -28 -166 -56l49 -41q-151 -18 -230 -14q-103 6 -128 12q-70 18 -70 77q0 58 105 155l105 97q0 15 -89 31q-29 5 -85 2q-5 55 -4 89q5 188 166 193q72 2 118.5 -37t46.5 -110q0 -107 -95 -125l9 -12l54 24q7 3 19 3q68 0 157 -96
q85 -91 85 -150zM1834 197q0 -90 -49 -156q-54 -73 -141 -73q-96 0 -177 51q-87 56 -109 145q2 -21 0 -30q-7 -54 -220 -98q-173 -36 -330 -20q27 1 27 96q0 66 -15 127q-30 123 -119 282q-42 6 -148 26q-33 10 -97.5 28.5t-139.5 18.5q-56 0 -82 -36q-9 28 -8 46
q7 155 193 304q61 49 151 92q101 48 167 50q135 4 135 -20q0 3 -98 -93.5t-98 -154.5q0 -112 216 -114q149 -2 255 17q85 -81 150 -229q32 -72 47 -159q-1 31 -8 71q-16 88 -52 164q-81 170 -159 212q115 46 177 46q16 0 24 -2q23 -6 59 -93q37 -91 51 -166q11 -75 44 -278
q9 -52 54 -93.5t97 -41.5q85 0 85 103q0 70 -45 124q-47 58 -116 58q-59 0 -74 -53q-33 242 -94 385q100 23 203 23q132 0 141 -59q3 -20 -4 -56l-141 -41l125 19q28 4 36 -36q7 -36 -32 -42l-232 -34l2 -17l76 13q121 1 200 -94q73 -90 73 -212zM820 120q0 -90 -26 -90
q-23 0 -51 14q-50 -130 -193 -130q-126 0 -235 99q-104 94 -134 220q-11 47 -11 91q0 134 86 198l-12 21q29 37 82 37q71 0 131 -17q31 -10 95 -28q32 -8 140 -24q86 -154 114 -269q14 -57 14 -122zM957 1194q-37 7 -109 18q-41 6 -93 2q-6 -30 -8 -71q-1 -17 6 -64
q122 -7 202 64zM1105 818q0 27 -16.5 49.5t-43.5 23.5q-52 1 -82 -41l43 -3v-5q-16 1 -62 5q-61 11 -68 11q-22 0 -52 -20q-33 -22 -33 -42q0 -58 99 -58q39 0 60 16q9 -4 27 -4q39 0 78 16q49 19 50 52zM643 200q0 70 -40 150q-36 -108 -72 -108q-14 0 -37 74
q-30 97 -56 138q-102 -3 -102 -130q0 -92 60 -166q64 -79 154 -79q93 0 93 121zM943 795q0 -22 -17 -22q-16 0 -16 22t16 22q17 0 17 -22z" />
  </g>

</svg>
