<?xml version="1.0" standalone="no"?>
<!DOCTYPE svg PUBLIC "-//W3C//DTD SVG 1.1//EN" "http://www.w3.org/Graphics/SVG/1.1/DTD/svg11.dtd" >
<svg viewBox="0 -442 2048 2048">
  <g transform="matrix(1 0 0 -1 0 1606)">
   <path fill="currentColor"
d="M1954 145q-179 64 -413 64q-174 0 -520 -68q-342 -68 -520 -66h-14q-129 1 -266 29q-25 8 -75 20h-9v-483h-55v1815q197 -64 401 -64q178 0 536 61t539 61q219 0 396 -55v-1314zM1894 1177v242l-251 37h-37v-240q134 1 288 -39zM1892 696v236q-274 42 -287 40v-233
q65 -6 193 -23q8 -1 47 -12q30 -9 47 -8zM1596 982v233h-119q-78 0 -160 -9v-233q182 12 279 9zM1306 1213v240l-285 -46v-236h13q-18 0 153 29q49 8 119 13zM1894 212v237l-288 43v-240q124 -12 192 -23q102 -17 96 -17zM1595 497v238q-4 -6 -7 -6q-15 0 -50.5 3.5
t-54.5 2.5l-166 -9v-229h278zM1307 733v233h-26l-260 -46v-233zM1011 921v237q-74 -21 -288 -52v-231h22q47 0 199 28q22 4 67 18zM716 1113v234q-38 4 -54 4q-4 0 -10.5 -2.5t-9.5 -2.5h-214v-242q11 1 29 1q8 0 32 -1q20 -2 32 -1zM1307 249v236l-282 -48v-240zM1015 441
v233h-11l-20 -5q-144 -40 -258 -47v-233h26zM716 629v231q-28 5 -41 5q-5 0 -12.5 -2.5t-11.5 -2.5h-223v-237q55 -5 96 -3zM418 866v237q-100 3 -183 19q-105 21 -99 21v-234q178 -43 282 -43zM716 139v243q-115 -12 -177 -12q-17 0 -50.5 1.5t-50.5 1.5q-2 0 -10 -3v-240
h120zM418 386v230q-69 5 -141 17q-5 1 -71 16q-44 11 -70 10v-233q181 -40 245 -40h37z" />
  </g>

</svg>
