<?xml version="1.0" standalone="no"?>
<!DOCTYPE svg PUBLIC "-//W3C//DTD SVG 1.1//EN" "http://www.w3.org/Graphics/SVG/1.1/DTD/svg11.dtd" >
<svg viewBox="0 -442 2073 2048">
  <g transform="matrix(1 0 0 -1 0 1606)">
   <path fill="currentColor"
d="M2073 379h-15q-48 0 -180 102l-178 140q-33 22 -65 22q-17 0 -28 -13q-16 -27 -51 -80q-57 -77 -156 -165q75 -31 128 -63q1 -11 -5 -21q-22 -40 -125 -159.5t-137 -145.5q-27 -20 -53 -20q-1 0 -14 5q23 48 109 139q116 124 126 136q-16 15 -106 56h-9q-1 -28 -12 -78
q-7 -16 -117 -61.5t-136 -45.5h-62q42 32 83 55l78 38q63 31 63 43q0 1 -52 67q-38 48 -82 124q-192 -50 -248 -46l-3 -3v-12q0 -103 12 -158q18 -85 74 -138q21 -20 97 -67q53 -32 63 -67q-59 12 -106 32q-66 28 -135 106.5t-89 147.5q-8 26 -17 67q-32 20 -41 20
q-28 0 -136 -105q25 -38 214 -145v-45h-4q-44 0 -164 81q-124 83 -124 122q0 17 38 60q94 108 94 127q0 3 -14.5 22.5t-16 21.5t-42.5 123q-46 134 -130 341h-102q-52 0 -89 -5q-10 -1 -41 -10q-25 -7 -41 -7q-45 0 -45 47q0 42 69 79q23 12 68 39q47 38 150 101
q27 12 146 29q-23 -46 -23 -56q0 -22 86.5 -103.5t109.5 -81.5q18 0 104 34q-13 46 -25 120q-76 11 -77 12q-23 11 -31 70q-20 9 -60 25q1 2 1 3q6 10 13 10t20.5 -5t20.5 -5q22 0 20 49q31 8 50 8q31 0 62 -13q8 -15 26 -44q9 -1 40 -1v-17h-43l-7 -23q5 -2 88 -2
q69 0 158 -75t89 -143q0 -52 -75 -147q70 7 139 15t72 8q97 0 186 -55q152 -93 162 -98q5 -2 44 -2q87 0 138 -22q72 -33 207 -106q23 -15 42 -87q11 -50 22 -101z" />
  </g>

</svg>
