<?xml version="1.0" standalone="no"?>
<!DOCTYPE svg PUBLIC "-//W3C//DTD SVG 1.1//EN" "http://www.w3.org/Graphics/SVG/1.1/DTD/svg11.dtd" >
<svg viewBox="0 -442 2048 2048">
  <g transform="matrix(1 0 0 -1 0 1606)">
   <path fill="currentColor"
d="M910 1359q0 -51 -34.5 -85.5t-85.5 -34.5q-50 0 -85 35t-35 85t35 85t85 35q51 0 85.5 -34.5t34.5 -85.5zM1441 1086q0 -20 -16 -44q-17 -27 -35 -27h-530l-134 -330h268q33 0 60.5 -28.5t27.5 -61.5q0 -18 -27.5 -84t-26.5 -77q186 109 296 109q91 0 91 -86
q0 -89 -119 -247q-59 -79 -153 -160q-144 -125 -335 -239q-242 -144 -370 -144q-41 0 -65.5 28t-24.5 69q0 137 328 414q42 34 94 87q23 41 48 115q39 115 40 119h-141q-118 0 -138 4q-81 17 -81 90q0 35 71 197q80 182 90 221l-549 3q-24 0 -41 22.5t-17 47.5q0 28 21 50.5
t49 22.5h1250q28 0 48.5 -21.5t20.5 -49.5zM1336 443v20q-14 5 -12 5q-53 0 -278 -116q-25 -12 -64 -39q-13 -14 -53 -138q-30 -93 -96 -93q-55 0 -89 56q-94 -74 -185 -171q-128 -134 -128 -197q0 -15 4 -21h34q36 0 151 53q357 165 594 438q122 141 122 203z" />
  </g>

</svg>
