<?xml version="1.0" standalone="no"?>
<!DOCTYPE svg PUBLIC "-//W3C//DTD SVG 1.1//EN" "http://www.w3.org/Graphics/SVG/1.1/DTD/svg11.dtd" >
<svg viewBox="0 -442 2048 2048">
  <g transform="matrix(1 0 0 -1 0 1606)">
   <path fill="currentColor"
d="M1452 1136q0 -199 -160 -330q-26 -17 -77 -53q-12 -9 -112 -238q-92 -212 -112 -268q-10 -46 -31 -135q-27 -106 -27 -207q0 -35 17.5 -106t33.5 -102l-50 -16l-56 178l-76 -108l47 -76l-31 -16q-12 21 -37 62q-18 -19 -56 -69l-30 27l59 80l-86 157l-89 -157l59 -80
l-30 -27l-53 69q-16 -19 -40 -62l-31 16l48 76l-77 108l-56 -178l-49 16q50 145 50 208q0 118 -55 332q0 2 -42 98q-221 512 -221 526q0 70 113 109q82 28 229 40q91 6 183 11q-19 57 -19 115q0 176 128 304t304 128t304 -128t128 -304zM1329 1342q-10 20 -54.5 67.5
t-62.5 56.5q-79 39 -128 39q-7 0 -46 -22q-54 -30 -127 -123t-125 -123q4 -21 16 -49h14q107 71 214 108q57 20 178 40q36 6 26 6h95zM1002 1498q-112 -15 -190 -70q-39 -28 -39 -77q0 -34 7 -71q4 -4 11 -4q26 20 69 63q69 99 142 159zM1389 1109q0 155 -35 184
q-26 21 -50 21q-102 0 -194 -28q-29 -6 -85 -24q-75 -32 -208 -106q1 -13 33 -75q37 22 104 22t199 -39.5t199 -39.5q9 0 17 1q20 19 20 84zM1354 993q6 0 -28 0q-21 0 -257 59q-93 23 -96 23h-20q-44 0 -85 -20v-11q98 -150 176 -203q11 -9 35 -23q53 -20 77 -20
q39 0 81 33q68 54 105 125q13 26 12 37zM754 1251v11q-3 11 -7 27q-3 21 -3 57v24q-30 -32 -68 -112l7 -7q25 -7 37 -7q6 0 17 3.5t17 3.5zM773 1166q-3 23 -16 56q-19 -7 -44 -7q-24 0 -49 6l-13 -110q-3 -22 11 -61q47 90 111 116zM1100 778q-55 15 -127 83
q-61 59 -98 119q-33 54 -40 54q-9 0 -26 -23.5t-19 -34.5q-1 -7 -1 -44q0 -20 26 -73q45 -89 195 -89q26 0 90 8zM817 1073q0 6 -29 64q-30 -2 -68 -55.5t-38 -85.5q0 -36 55 -103q13 -16 45 -28q0 1 -17 40q-7 16 -7 42q0 44 6 56q3 7 28 37t25 33zM1134 719
q-72 -18 -121 -15v-270zM871 731q-77 29 -128 73l18 -84h48q11 0 31 5q24 5 31 6zM720 717q-10 50 -22 101.5t-46 89.5l-42 -191h110zM858 672h-87l29 -153zM974 391v303q-22 -3 -65 -10q-43 -108 -85 -219l64 -188q86 103 86 114zM622 968h-92q-17 0 -162 -17
q27 -72 80 -217q85 -14 79 -14h45zM402 749l-42 106v-107q4 1 42 1zM958 315q-20 -27 -56 -82l24 -91q5 59 32 173zM767 475l-35 188h-131l-35 -188q14 -45 47 -110q54 -106 54 -107q38 71 100 217zM562 672q-4 -1 -77 0h-10l58 -153zM324 761v188q-182 -43 -182 -91
q0 -62 182 -97zM855 249l-61 185l-112 -215l74 -133zM510 466q-29 73 -86 218q-22 3 -65 10v-302q0 -14 86 -115zM908 90q-10 42 -36 112l-92 -150l105 -114zM320 434v270q-29 4 -137 40zM651 219l-112 215l-61 -185l99 -163zM736 59q-27 43 -71 99l-68 -99l71 -96zM855 -95
l-99 127l-55 -92l80 -156zM431 233q-19 27 -56 82q4 -11 32 -173zM553 52l-92 150q-13 -37 -36 -112l23 -152zM632 -60q-30 50 -58 92l-96 -127l71 -121z" />
  </g>

</svg>
