<?xml version="1.0" standalone="no"?>
<!DOCTYPE svg PUBLIC "-//W3C//DTD SVG 1.1//EN" "http://www.w3.org/Graphics/SVG/1.1/DTD/svg11.dtd" >
<svg viewBox="0 -442 2048 2048">
  <g transform="matrix(1 0 0 -1 0 1606)">
   <path fill="currentColor"
d="M2048 -442h-2048v952q95 0 151 46q25 21 65 83q29 45 58 45q31 0 94.5 -16t99.5 -16q65 0 174 148q65 92 195 275q108 149 167 149q23 0 77 -35t82 -37q42 -4 114 12q79 16 112 16q73 0 207 -173q80 -108 242 -323q135 -174 210 -174v-952zM1268 1146q-89 -17 -140 0
q-14 5 -54 32q-37 24 -45 24q-35 0 -35 -30q0 -64 84 -64q72 0 190 38zM1764 724q0 18 -7 40q-38 48 -137 180q-82 112 -167 184q-3 -56 -84 -64q-10 -1 -29 -1q-24 0 -71 11.5t-71 11.5q-27 0 -79.5 -9.5t-78.5 -9.5q-20 0 -41 3q-45 7 -45 57q0 27 14 60
q-69 -49 -158 -188q-64 -100 -191 -268q112 117 201 116q56 -1 88 -61q13 -37 41 -112q23 -60 60 -61q65 -2 77 61q7 39 22 118q29 64 132 64q37 0 124 -52t119 -51q21 1 21 25q0 16 -8 47t-8 47q0 35 34 35q32 0 101.5 -112.5t106.5 -112.5q34 0 34 42zM470 634
q-38 0 -101 16.5t-94 16.5q-5 -49 51 -56q49 -6 144 23z" />
  </g>

</svg>
