<?xml version="1.0" standalone="no"?>
<!DOCTYPE svg PUBLIC "-//W3C//DTD SVG 1.1//EN" "http://www.w3.org/Graphics/SVG/1.1/DTD/svg11.dtd" >
<svg viewBox="0 -442 2048 2048">
  <g transform="matrix(1 0 0 -1 0 1606)">
   <path fill="currentColor"
d="M2048 1122h-177v-73q51 -42 51 -92q0 -60 -73 -109v-119l23 14h68q-45 -52 -91 -87v-98l23 14h68q-45 -52 -91 -87v-102l23 14h68q-162 -189 -468 -206v80q66 6 122 17v92q-58 -10 -122 -14v80q66 6 122 17v88q-58 -10 -122 -14v80q66 6 122 17v114q-257 -64 -579 -64
q-293 0 -576 64v-111q67 -14 133 -20v-80q-71 4 -133 16v-88q59 -12 133 -19v-80q-71 4 -133 16v-91q67 -14 133 -20v-80q-306 17 -468 206h69l11 -7v104q-41 33 -80 78h69l11 -7v100q-41 33 -80 78h69l11 -7v106q-76 50 -76 115q0 45 33 83v179l164 -82q79 28 188 48v173
l193 -96h-177v-74q231 41 502 41v172l194 -97h-177v-75q260 0 486 -46v156l194 -97h-177v-62q224 -47 324 -119v158zM2048 -442h-450l-315 480q57 7 107 30q69 31 70 75q135 0 304 79q184 86 238 196h-107v92h153v-952zM1423 132q0 -18 -18 -24q-51 -52 -110 -52
q-32 0 -72 20q-48 24 -47 51h-314q-20 -62 -135 -62q-65 0 -96 44q-16 7 -16 23v478q0 15 27 15l122 -15q106 -13 255 -13q148 0 255 13l123 15q26 0 26 -25v-468zM1529 -442h-1022l342 534h343zM754 42l-308 -484h-446v952h150v-92h-102q32 -103 209 -190q168 -83 315 -83
q24 -103 182 -103zM1792 699v116q-57 -28 -137 -51v-116q70 19 137 51zM1588 1125q-133 29 -324 45l-91 -294q151 -5 253 -23zM1792 528v91q-60 -33 -137 -54v-88q70 19 137 51zM1792 353v95q-60 -33 -137 -54v-92q70 19 137 51zM1215 1173q-127 9 -198 9q-72 0 -178 -7
l45 -299q73 2 147 2q56 0 113 -1zM1833 982q0 84 -200 132l-185 -265l65 -18q-185 -37 -496 -37q-252 0 -441 34l31 12l-193 277q-214 -49 -214 -135q0 -121 356 -179q232 -38 461 -38q227 0 460 39q356 60 356 178zM855 875l-74 296q-188 -15 -322 -43l169 -282
q84 22 227 29zM1399 599l-2 1l-121 -15q-105 -13 -257 -13q-168 0 -379 28v-468l10 -6q23 -36 77 -36q48 0 110 30v240q0 13 14 13q29 0 85.5 -3.5t85.5 -3.5q28 0 82.5 3.5t82.5 3.5q14 0 14 -13v-240l9 -3q38 -36 85 -36q48 0 103 51zM270 1124h-113v-67q41 37 113 67z
M378 652v111q-81 22 -137 48v-106q65 -32 137 -53zM378 480v88q-76 21 -137 58v-92q70 -35 137 -54zM378 306v91q-76 21 -137 58v-96q65 -32 137 -53zM1673 916l-50 16l38 38zM1404 1049l-4 -37l-60 4l9 42zM1058 1028h-73v43h73v-43zM715 1016l-60 -4l-4 37l55 9zM1150 411
h-261q0 49 43 77q37 24 89 24q50 0 87 -25q42 -28 42 -76zM439 924l-51 -8l31 46z" />
  </g>

</svg>
