<?xml version="1.0" standalone="no"?>
<!DOCTYPE svg PUBLIC "-//W3C//DTD SVG 1.1//EN" "http://www.w3.org/Graphics/SVG/1.1/DTD/svg11.dtd" >
<svg viewBox="0 -442 2048 2048">
  <g transform="matrix(1 0 0 -1 0 1606)">
   <path fill="currentColor"
d="M1987 566h-108v-183h-75v183h-329v-183h-74v183h-109v68h109v176h-109v68h109v162h74v-162h329v162h75v-162h108v-68h-108v-176h108v-68zM1487 1135h-469v-204q-50 0 -87 -48.5t-37 -99.5q0 -52 22 -90q27 -46 76 -46t76 46q23 38 23 90h45q0 -68 -37 -120
q-42 -59 -107 -59t-106 59q-37 53 -37 120q0 58 37 111t91 72v169h-817v304h1327v-304zM2048 -442h-2048v952h263v-702h346v702h775v-141h108v141h294v-141h109v141h153v-952zM589 -174h-303v1292h303v-1292zM1444 1176v222l-252 -111zM1346 1398h-411l205 -87zM1804 634
v176h-329v-176h329zM1346 1176l-206 87l-205 -87h411zM1089 1287l-252 111v-222zM801 1176v222l-252 -111zM703 1398h-411l206 -87zM703 1176l-205 87l-206 -87h411zM446 1287l-252 111v-222zM549 1084h-223l111 -252zM549 574v412l-87 -206zM413 780l-87 206v-412zM549 510
l-112 219l-111 -219h223zM549 476h-223l111 -252zM549 -34v412l-87 -206zM413 172l-87 206v-412zM549 -131l-112 252l-111 -252h223z" />
  </g>

</svg>
