<?xml version="1.0" standalone="no"?>
<!DOCTYPE svg PUBLIC "-//W3C//DTD SVG 1.1//EN" "http://www.w3.org/Graphics/SVG/1.1/DTD/svg11.dtd" >
<svg viewBox="0 -442 2048 2048">
  <g transform="matrix(1 0 0 -1 0 1606)">
   <path fill="currentColor"
d="M2048 -442h-200q0 150 -343 241q-147 39 -636 113q-343 52 -343 105q0 86 421 140h-271q-421 -37 -421 -150q0 -105 242 -166q150 -33 448 -104q242 -63 242 -179h-1187v953h417v243l-55 -45l-113 161l775 599l235 -181v181h212v-347l325 -252l-113 -161l-55 45v-243h420
v-953zM1738 867l-301 236v335h-147v-222l-266 209l-717 -558l65 -93l86 72v-679h218v60l271 219v-279h640v679l86 -72zM1461 435l-262 214l84 72h178v-286zM1559 339l-130 -166l-410 333l165 135zM1517 930l-913 -740l-129 165l905 730zM994 793l-167 -132l-310 252l136 156
zM1142 389h-37v31zM816 650l-140 -112v183h54zM1429 952q0 56 -55 56t-55 -56q0 -55 55 -55t55 55zM1481 316q0 55 -55 55t-55 -55t55 -55t55 55zM715 936q0 55 -55 55q-56 0 -56 -55t56 -55q55 0 55 55zM663 332q0 56 -55 56q-56 0 -56 -56q0 -55 56 -55q55 0 55 55z" />
  </g>

</svg>
