<?xml version="1.0" standalone="no"?>
<!DOCTYPE svg PUBLIC "-//W3C//DTD SVG 1.1//EN" "http://www.w3.org/Graphics/SVG/1.1/DTD/svg11.dtd" >
<svg viewBox="0 -442 2048 2048">
  <g transform="matrix(1 0 0 -1 0 1606)">
   <path fill="currentColor"
d="M2048 -442h-200q0 150 -303 221q-154 36 -562 72q-303 27 -303 70q0 86 421 124h-222q-221 0 -353 -43q-117 -38 -117 -91q0 -87 202 -125q125 -19 374 -66q202 -44 202 -162h-1187v952h144v143l-36 -30l-74 106l244 189v47l-32 -26l-67 95l458 354l138 -107v107h126
v-205l122 -95l138 107l59 -46l287 223l154 -119v119h139v-228l213 -165l-74 -106l-36 29v-392h145v-952zM1975 977l-197 155v220h-97v-146l-174 137l-268 -208l112 -87v147h172v-281l130 -99h140v-218h-85l-13 -18l-44 36v-164h225v512l57 -47zM1739 707l-244 191v272h-119
v-180l-215 169l-580 -452l52 -75l70 58v-632h176v449h220v-449h518v632l70 -58zM1005 1075l-125 96v199h-86v-132l-157 123l-423 -329l38 -55l50 43v-83l240 185l154 -119v119h139v-179zM813 926v176h-97v-146l-174 137l-470 -366l43 -61l56 47v-513h143v365h178v-365h177
v147h-74v218h74v50l-44 -36l-92 131zM1515 238h-288v269h288v-269z" />
  </g>

</svg>
