<?xml version="1.0" standalone="no"?>
<!DOCTYPE svg PUBLIC "-//W3C//DTD SVG 1.1//EN" "http://www.w3.org/Graphics/SVG/1.1/DTD/svg11.dtd" >
<svg viewBox="0 -442 2048 2048">
  <g transform="matrix(1 0 0 -1 0 1606)">
   <path fill="currentColor"
d="M829 1118q0 -127 -92 -214.5t-220 -87.5t-220 87.5t-92 214.5t92 214t220 87t220 -87t92 -214zM2048 -442h-2048v952q111 3 214 47q75 32 152 111l225 -51q66 -29 143 -107q176 3 280 47q76 32 152 111l225 -51q67 -29 143 -107v255h-197q-37 0 -71 36.5t-34 73.5v319
q0 82 63 82q65 0 65 -82v-255q0 -64 81 -64h93v503q0 83 64 83q63 0 63 -83v-627h43q62 0 62 64v152q0 83 64 83q63 0 63 -83v-216q0 -37 -34 -73.5t-71 -36.5h-127v-131h387v-952zM1225 503q0 61 -46 117q12 -39 12 -79q0 -128 -170 -171q187 17 202 111q2 12 2 22z
M425 503q0 61 -46 117q12 -39 12 -79q0 -128 -171 -171q186 17 203 111q2 11 2 22z" />
  </g>

</svg>
