<?xml version="1.0" standalone="no"?>
<!DOCTYPE svg PUBLIC "-//W3C//DTD SVG 1.1//EN" "http://www.w3.org/Graphics/SVG/1.1/DTD/svg11.dtd" >
<svg viewBox="0 -442 2048 2048">
  <g transform="matrix(1 0 0 -1 0 1606)">
   <path fill="currentColor"
d="M2048 -442h-2048v952h422q248 69 601 69q65 0 127 -2q-29 314 -107 556q-70 -14 -128 -68q-96 -89 -125 -269q-31 108 -31 200q0 116 55 162q41 34 134 58q-41 3 -83 4q-73 1 -212 -28q118 155 212 155q52 0 138 -44q-8 31 -27 79q-10 25 -42 72q76 20 118 18t115 -22
q-20 -16 -53 -61q-6 -15 -7 -45q85 83 169 76q104 -9 193 -209q-121 108 -193 102q-48 -4 -114 -69q293 7 297 -214q1 -89 -86 -232q-13 246 -121 318q-37 25 -127 32q23 -60 44 -128l-62 -11l2 -16l65 13q18 -57 33 -114l-64 -9l-1 -17l69 6q15 -57 28 -114l-66 -9l-1 -17
l69 5q9 -44 24 -122l-76 -4l-1 -17l80 1l4 -25q47 -4 92 -9l49 43l-22 -47q143 -19 235 -47h422v-952zM1352 549q-39 5 -79 8l3 -23q3 -27 5 -48zM1855 327q0 90 -199 156q-121 41 -271 62l-29 -61l78 26l-68 -67q-44 -30 -141 -26q-70 3 -116 33l-38 99l87 -65q-4 51 -7 82
q-63 3 -128 3q-226 0 -466 -43q-367 -67 -367 -199t367 -198q240 -43 466 -43t465 43q367 66 367 198z" />
  </g>

</svg>
