<?xml version="1.0" standalone="no"?>
<!DOCTYPE svg PUBLIC "-//W3C//DTD SVG 1.1//EN" "http://www.w3.org/Graphics/SVG/1.1/DTD/svg11.dtd" >
<svg viewBox="0 -442 2048 2048">
  <g transform="matrix(1 0 0 -1 0 1606)">
   <path fill="currentColor"
d="M1542 861l-133 -56l-352 66l-412 206l-108 237l652 21l39 -17zM952 916l-307 -527l-39 18l304 530zM2048 -442q-635 42 -635 217q0 55 127 97q80 24 237 77q128 47 128 123q0 54 -128 88q-109 29 -245 30q-437 5 -437 -87q0 -22 75 -53t75 -52q0 -36 -193 -36
q-38 0 -172 4q-98 3 -162 2q-574 -8 -574 -130q0 -36 104 -85t104 -90q0 -54 -152 -84q-92 -18 -200 -21v952q346 54 544 54q82 0 134 -4l-89 -157l59 -28l102 175q61 -9 132 -9q99 0 304 23q200 22 304 21q198 -2 558 -75v-952zM1769 68q0 -59 -149 -106q-92 -26 -276 -81
q-150 -47 -151 -103q-4 -140 552 -220h-360q-311 89 -314 178q0 5 1 14.5t1 14.5q0 77 -201 80q-101 1 -190 -11q-100 -14 -100 -38q0 -31 134.5 -68.5t134.5 -67.5q0 -102 -231 -102h-300q307 32 307 102q0 33 -150 77t-150 73q0 45 138 62q86 10 346 14q168 2 352 23
q239 27 239 68q0 35 -71.5 65.5t-71.5 36.5q0 59 283 55q227 -4 227 -66zM986 148l-232 33l57 80l-180 -57l-225 54l156 -83l-163 -63l249 19l106 -116l-3 116z" />
  </g>

</svg>
