<?xml version="1.0" standalone="no"?>
<!DOCTYPE svg PUBLIC "-//W3C//DTD SVG 1.1//EN" "http://www.w3.org/Graphics/SVG/1.1/DTD/svg11.dtd" >
<svg viewBox="0 -442 2048 2048">
  <g transform="matrix(1 0 0 -1 0 1606)">
   <path fill="currentColor"
d="M1976 -365h-679q-11 18 -24 31h-488q-4 -4 -24 -31h-679v32q0 60 66 116q56 41 113 82v173q-59 49 -179 145q4 36 23 104q7 -8 19 -25h175q33 0 134 27v134q-48 39 -134 123q-11 14 -11 42q0 5 29 67q13 -13 44 -33q41 -19 98 -19q72 0 121 27v8l-120 250q12 23 23 56
q15 -6 41 -23q35 -35 53 -35q52 0 60 23q11 32 11 121q0 12 -37 61.5t-37 57.5q0 -12 13 38h14q18 -17 35 -33q22 -19 43 -19q-2 0 80 45q67 37 131 86q93 72 93 112q0 24 -21 101q13 3 9 3q4 0 26 -37q6 10 6 52q0 22 9 31q2 0 17 -21l7 18q12 1 11 1q3 0 9 -1q0 -7 -1 -21
t-1 -21q0 -22 7 -38q13 26 24 37l11 -3q-21 -77 -21 -101q0 -34 50 -79q4 -4 79 -62q21 -16 88 -57q74 -45 87 -45q20 0 42 19q18 17 36 33h14q13 -50 13 -38q0 -7 -37 -55.5t-37 -68.5q0 -88 10 -116q8 -23 61 -23q11 0 53 35q6 5 41 23q10 -30 23 -56l-120 -250v-8
q53 -27 121 -27q87 0 139 52q32 -38 32 -67t-11 -42q-45 -41 -134 -123v-134q126 -27 134 -27h175q3 3 19 25q13 -46 23 -104q-59 -49 -179 -145v-173q49 -35 99 -71q52 -42 75 -95q5 -12 5 -64zM1038 1376q0 14 -11 14q-7 -7 -7 -14q0 -6 11 -17q7 14 7 17zM1385 902v137
h-64v-137h64zM1312 1099q-67 45 -133 89q-73 50 -115 115q-12 16 -33 50q-62 -94 -127 -147q-24 -19 -158 -107h14q18 0 31 6q89 41 133 74q5 4 106 113q32 -41 104 -113l99 -54q46 -26 79 -26zM1287 902v137h-70v-137h70zM1207 1102q-24 15 -71 46q-3 2 -42 42
q-29 30 -44 30q-50 0 -54 -3q-18 -19 -56 -54q-33 -28 -92 -61h359zM1188 902v137h-72v-137h72zM1084 908v131h-110v-131q71 12 55 12t55 -12zM1475 568q-19 11 -56 36q-40 37 -81 73q-3 0 -56 -53q-56 -57 -63.5 -62t-23.5 -3q5 -6 13 -17q61 25 125 103q1 1 6 1
q7 0 91 -82q16 -1 19 -1q17 0 26 5zM1370 562q-7 11 -13.5 21.5t-18.5 10.5q-13 0 -38 -40h63zM942 902v137h-69v-137h69zM1598 501h-344q9 -11 28 -29q17 -11 98 -53q71 -37 211 -117v186q0 7 7 13zM844 902v137h-73v-137h73zM1456 646v148h-302q-7 0 -24 14.5t-19.5 21.5
t-9.5 21q-52 23 -72 23q-19 0 -72 -23l-9 -21q-3 -7 -20 -21.5t-24 -14.5h-302v-148q9 4 61 45q47 35 57 35q12 0 71.5 -67.5t97.5 -67.5q8 0 56.5 53.5t54.5 67.5q4 9 4 43q0 25 8 33h34q10 -14 10 -65q0 -8 1 -11q3 -11 54.5 -66t57.5 -55q35 0 97 67.5t72 67.5t56 -36
q52 -40 62 -44zM737 902v137h-64v-137h64zM1481 190l-101 66v-169zM1772 -150v307h-252q-9 0 -141 -123v-102q0 9 35 -82h358zM1545 267q-80 40 -234 131q-115 78 -199 165q-33 35 -69 104q-4 7 -14 7t-15 -7q-1 -9 -36 -58q-10 -16 -33 -46q-82 -86 -198 -165l-234 -131
q13 -16 38 -48l285 192q46 29 133 92q11 15 34 45h52q10 -17 34 -45q26 -21 140 -98q93 -61 278 -186q12 16 38 48zM863 559q-38 8 -90 63t-53 55q-3 0 -39 -33q-39 -38 -42 -40q-19 -12 -56 -36q17 -6 38 -6q12 0 50.5 42t47.5 42t23 -17q10 -13 20 -25q54 -49 87 -62
q5 6 14 17zM758 554q-9 19 -25 40h-26q-4 -10 -19 -32l7 -8h63zM1354 -55v328l-268 183q-9 -13 -26 -13q-5 0 -15.5 5t-15.5 5t-15.5 -5t-15.5 -5q-14 0 -18.5 5.5t-10.5 7.5l-265 -183v-328q11 16 36 16q15 0 19 -1q4 -6 13 -17h88v291h332v-291h94q13 19 20 19
q35 0 48 -17zM804 501h-344q7 -6 7 -13v-186q60 39 209 116q35 17 100 54q9 10 28 29zM678 87v169q-35 -22 -101 -69zM678 -69v103q-132 123 -140 123h-252v-307h358q34 76 34 81zM1063 400q0 -30 -34 -30t-34 30q0 28 34 28t34 -28z" />
  </g>

</svg>
