<?xml version="1.0" standalone="no"?>
<!DOCTYPE svg PUBLIC "-//W3C//DTD SVG 1.1//EN" "http://www.w3.org/Graphics/SVG/1.1/DTD/svg11.dtd" >
<svg viewBox="0 -442 2048 2048">
  <g transform="matrix(1 0 0 -1 0 1606)">
   <path fill="currentColor"
d="M902 1285h-584v14q0 20 13 81q8 12 20 34q4 18 14 53q23 70 198 70q140 0 158 -2q107 -10 130 -62q4 -20 17 -59q8 -10 20 -34q14 -50 14 -95zM1138 308q0 -5 -5 -68q-13 -165 -23 -215q-27 -139 -94 -183q-14 -9 -57 -22.5t-59 -13.5h-577q-28 0 -94 23q-34 12 -59 43
q-44 54 -69 210q-19 120 -19 226v456q0 109 20 230q25 158 71 210q54 62 159 62h556q33 0 84 -18q57 -19 73 -41q37 -51 51 -106q42 -164 42 -336v-457zM902 -345q0 -7 -11.5 -19.5t-18.5 -12.5h-524q-8 0 -19 12t-11 21v128h584v-129zM812 1413v10q-4 15 -9 30t-20 23
q-41 23 -173 23q-58 0 -130 -7t-72 -69v-10h404zM454 1301v98h-55v-98h55zM1076 165l-634 33l631 29l-637 31l631 28l-656 35l652 31l-633 24l646 35l-643 31l643 31l-668 31l659 31l-653 34l659 31l-649 28l652 34l-646 32q8 4 646 27l-662 31l646 31l-636 28l643 34
l-634 31l637 32l-646 31l627 28l-621 31l621 31l-603 31l581 31l-565 34l540 28l-531 25l476 37l-344 24l-172 12l-180 -36l140 -31l-196 -31l165 -25l-193 -37q57 -9 171 -31l-183 -31l177 -31l-187 -31l174 -28l-180 -31q53 -10 159 -28l6 -3l-171 -32q72 -11 174 -34
l-174 -25l177 -34l-183 -31q27 -3 171 -24l6 -3l-177 -32q74 -12 180 -34l-180 -28l183 -31l-180 -34l180 -31l-183 -31l177 -28l-177 -34q75 -12 171 -31l6 -3l-174 -25l180 -31l-180 -35l174 -25l-171 -34q101 -17 165 -30l6 -3l-165 -29l180 -31l-174 -31l183 -28
l-173 -31q98 -15 178 -30l5 -4l-171 -28q66 -11 196 -37l-165 -25l193 -31l-143 -31l186 -36l171 12l342 24l-463 34l509 28l-540 28l581 34l-581 28l599 34l-615 31l618 28l-636 31zM448 -342v111h-70v-111h70z" />
  </g>

</svg>
