<?xml version="1.0" standalone="no"?>
<!DOCTYPE svg PUBLIC "-//W3C//DTD SVG 1.1//EN" "http://www.w3.org/Graphics/SVG/1.1/DTD/svg11.dtd" >
<svg viewBox="0 -442 2057 2048">
  <g transform="matrix(1 0 0 -1 0 1606)">
   <path fill="currentColor"
d="M2057 213q0 -48 -42.5 -95.5t-90.5 -56.5q-5 -1 -46 -1q-30 0 -51.5 -16.5t-42.5 -33.5q0 -13 -1 -40.5t-1 -41.5q0 -56 9 -93q4 -17 22 -39q26 -31 29 -36h-54q-19 16 -45 55q-7 22 -7 80v133q1 89 1 132q5 -9 18 -25q27 -20 117 -20q69 0 107 54q13 19 13 79
q0 131 -153 143q32 60 32 101q0 100 -102 147q-15 7 -50 7q-75 0 -120 -50t-45 -126q0 -29 48 -102l-27 -9q-95 -29 -95 -97q0 -106 135 -106q27 0 56 16q12 -132 12 -139q0 -159 -18 -230q-1 -5 -26 -36q-15 0 -45 -3l36 48q6 13 6 61q0 33 1 19l-2 28l-284 -189h-89
q-4 -9 -3 -22h-22l4 5q2 15 2 40q0 38 -8 54h-8q-5 -35 -30 -100v58q0 29 -13 42q-24 -5 -29 -42q-2 -29 -5 -57h-25v96q-2 3 -10 3q-10 0 -25 -15q12 -60 12 -84q-13 3 -31 3q-3 5 -7 49q-3 32 -28 32q-16 0 -23 -3q12 -28 12 -70v-8h-33q-4 6 -4 17q-3 2 -9 2q-5 0 -95 -3
l-57 -80h-380v39q0 8 35 42q-12 2 -26 2q-17 0 -38 -3v432q-68 -10 -69 -10q-79 0 -144.5 63.5t-65.5 142.5q0 67 71 144q-44 43 -87 87q-41 50 -41 113q0 87 62 172q67 92 150 95l9 4q-21 83 -21 188q0 37 28 113q10 26 23 42q123 145 310 145q75 0 133 -46q36 -29 95 -108
q61 19 125 19q49 0 96 -33q7 -5 48 -63l239 154l84 -58q1 3 1 18v19l-12 5v95l155 87l142 -64v-79q-6 -5 -19 -16v-245l307 -186l-192 -129v-168q83 -54 83 -135q0 -18 -3 -53t-3 -53v-5l5 -5q130 0 130 -197zM1726 1459l-111 -68v-50q72 45 110 74q0 15 1 44zM1701 1473
l-106 47q-37 -21 -112 -63l111 -53zM1582 1337v51l-111 48v-44zM1697 1130v236l-79 -52v-239q36 22 79 55zM1585 1078v226q-55 28 -101 46v-207zM1912 958l-206 133l-101 -61l-144 95v119l-91 61l-411 -289l521 -296zM1772 691v102l-271 -166h-126v-800l267 171q4 45 4 107
q-19 -3 -54 -3q-125 0 -159 101q-2 6 -2 18q0 70 14 103q19 42 77 73v11q-16 28 -16 73q0 55 7 73q53 137 180 137h79zM1067 1189q-36 55 -92 55q-35 0 -76 -19q-6 -25 -12 -51q-10 -26 -39 -26q-25 0 -36 22q-2 15 -5 44q-7 55 -29 87t-68.5 55t-85.5 23
q-56 0 -119.5 -32.5t-101 -76.5t-37.5 -186q0 -46 22.5 -90.5t22.5 -57.5q0 -40 -40 -40q-9 0 -26 6t-26 6q-57 0 -111 -54t-54 -111q0 -86 6 -99q23 -48 76 -80q24 -8 49 -15q30 -10 30 -33q0 -14 -52.5 -57.5t-52.5 -103.5q0 -55 51 -98q48 -40 104 -40t51 1v432h-171
q213 139 541 349l181 116q35 19 97 63q4 3 3 11zM1394 695l-511 287l-484 -291h87v-904h77v628h281v-629h124v15q-38 10 -44 20q-4 6 -4 47q0 13 -9.5 25t-9.5 25q0 53 66 53q5 0 16 -1.5t16 -1.5q8 0 25.5 24t36.5 24q11 0 24 -8t16 -8q-2 0 17.5 11t48.5 11q7 0 19 -9.5
t17 -9.5q3 0 10 1.5t10 1.5q16 0 53 -41h23v730h95zM1294 -214v41q-11 -5 -31 -17v-24h31zM1304 -105q-12 28 -32 28q-3 0 -8.5 -1.5t-8.5 -1.5q-14 0 -28 8q0 6 10 35q-11 10 -18 11q-26 -26 -43 -26q-3 0 -3 23q0 19 -19 19q-22 0 -33 -27t-18 -27q-20 0 -20 28
q0 16 -20 16q-15 0 -26.5 -30t-21.5 -30q-7 0 -15.5 9.5t-28.5 9.5q-35 0 -35 -24q0 -15 15 -15q3 0 7 2t7 2q12 0 16 -11q-38 -38 -38 -50q0 -26 32 -26q13 0 30 9.5t18 9.5q6 0 17.5 -4.5t17.5 -4.5q29 0 62 41q16 -35 39 -35q16 0 38 39q5 -10 5 -16q8 0 25 -2t26 -2
q15 0 51 43zM837 -247h-287q-29 -34 -49 -63h293q8 10 43 63zM1217 96h-290v319h290v-319z" />
  </g>

</svg>
