<?xml version="1.0" standalone="no"?>
<!DOCTYPE svg PUBLIC "-//W3C//DTD SVG 1.1//EN" "http://www.w3.org/Graphics/SVG/1.1/DTD/svg11.dtd" >
<svg viewBox="0 -442 2048 2048">
  <g transform="matrix(1 0 0 -1 0 1606)">
   <path fill="currentColor"
d="M1978 -98l-436 -276h-1460v79l152 90v163h-152v1267l474 303h1422v-1305q-25 -12 -74 -39q17 -2 36 -2q18 0 38 2v-282zM1894 1168v227l-221 -139v-222zM1792 365v666q-15 -12 -45 -35v-657q15 9 45 26zM1824 1444h-1231l-350 -206h1218zM1897 281v805l-64 -31v-710
l-264 -135q-3 0 -5 2v677l-55 -38v-771zM1656 297v644q-16 -9 -48 -28v-638q16 8 48 22zM1416 908v246h-722v-246h722zM1953 37v104h-92v-104q45 27 46 27t46 -27zM1835 0v148q-8 -7 -14 -7v-141h14zM1789 -13v102h-91v-102q10 4 50 28q13 -10 41 -28zM1641 62v15l-15 -15
h15zM1638 -68v104h-92v-104q6 3 49 27zM1416 615v224h-1250v-224h1250zM1617 -92q-16 16 -26 21l-71 -35v130q-23 -14 -45 -25v-175zM1944 -44h-178l-146 -84q4 -25 15 -75q-28 -20 -84 -41l-5 2q1 12 -5 22q-22 -24 -35 -24q-10 0 -13 2q3 11 9 34q-48 -24 -39 -24h-148
q0 1 0 -34q0 -20 -10 -30h212zM1607 -198q-3 24 -16 68q-12 -6 -36 -19q4 -30 16 -71q12 7 36 22zM1446 -188v166l-29 -19h-102v-147h131zM1416 368v224h-1250v-224h1250zM1271 -278v237h-37v-231q6 0 18.5 -3t18.5 -3zM1205 -189v148h-190v-147h45q1 18 9 52h128
q-4 -12 -4 -21q0 -12 12 -32zM1419 0v342h-1253v-342h1253zM1159 -155h-70l-18 -98h73zM1218 -296q-15 5 -16 17v25h-32q-1 -7 -6 -21h-93q-25 0 -29 2v8q0 2 4 34q1 2 1 4q0 7 -6 11h-61v85h-120v-142q0 -12 -12 -23h370zM820 -271v230h-40v-223q0 -17 18 -17h5q9 0 17 10z
M736 -86v45h-107v-132zM603 -188v147h-156v-147h156zM758 -296q-19 19 -19 28v135q-45 -38 -122 -109h-170q1 -20 -13 -54h324zM406 -274v233h-40v-225q0 -15 20 -15q13 0 20 7zM332 -188v147h-46v-147h46zM351 -296q-16 8 -17 27q1 17 1 34h-57l-91 -61h164zM1885 1307
q0 -34 -32 -66q-3 3 -10 25q-19 -40 -71 -111q0 6 -1 19v20q0 27 7 40v7h-3q-23 -53 -80 -154v6q-1 9 6 26t7 26l-1 6l-12 -12q-13 13 -13 26q0 62 32 73q6 -3 16 -40q21 46 78 133q5 -6 5 -16q0 -8 -3.5 -22.5t-3.5 -21.5q0 -5 1 -8q10 24 53 71q1 -9 8 -25q8 8 14 9
q3 -14 3 -11zM1394 1026q-48 -63 -94 -63q-22 0 -31.5 18t-18.5 35q-10 -4 -104 -51q-64 -32 -109 -32q-11 0 -22 2q-16 18 -16 39q0 30 11 45l32 38l-2 2q-10 0 -48 -18q-18 -7 -52 -23q-45 -28 -89 -57q-67 -41 -88 -41q-20 0 -20 18q0 5 62 57q-96 10 -96 62q0 33 22 47
q15 10 60 10q43 0 56.5 -15.5t17.5 -61.5q165 105 264 105q37 0 37 -28q0 -10 -17 -34l-24 -34q23 3 80 28q51 22 81 22q25 0 36 -22q7 -14 13 -27q17 -1 35 -2q22 -4 24 -19zM1335 40h-524v259h524v-259zM749 40h-500v259h500v-259zM1715 1186l-3 18q-18 -9 -18 -21v-13
q7 1 21 16zM817 1044v27q-5 0 -15.5 3t-15.5 3q-4 0 -34 -10v-23q21 -7 34 -7q10 0 31 7zM1298 81v181h-38l-139 -120l-1 1l98 119h-36l-133 -181h249zM1098 261h-247v-181h39l138 120l2 -1l-99 -119h36zM736 118v20h-4q-10 0 -17 3q21 64 21 81h-23l-73 -56q27 32 81 98
q-9 10 -24 20q-8 -7 -24 -22q-5 9 -17 28h-81q-2 0 -2 -15q0 -1 -1 -4q-40 -43 -119 -129l182 120q-8 -20 -22 -61h11q3 0 10.5 2.5t11.5 2.5q2 0 7 -1l-155 -107l-2 2l67 66q-126 -90 -130 -90q-29 0 -34 9q-2 4 -3 38l-107 -73h125q1 0 46 27q1 -2 1 -7q0 -3 -2 -15
l139 75q0 -5 -9 -41l81 74l2 -2l-27 -62q9 7 28 21q-1 -15 19 -43q16 13 44 41zM533 289h-41q-21 0 -38 -16q-33 -44 -97 -128zM385 289h-71l-46 -85zM378 237q-45 -34 -113 -88q-1 -7 -1 -16q0 -6 1 -21v-20z" />
  </g>

</svg>
