<?xml version="1.0" standalone="no"?>
<!DOCTYPE svg PUBLIC "-//W3C//DTD SVG 1.1//EN" "http://www.w3.org/Graphics/SVG/1.1/DTD/svg11.dtd" >
<svg viewBox="0 -442 2048 2048">
  <g transform="matrix(1 0 0 -1 0 1606)">
   <path fill="currentColor"
d="M1962 7l-569 -354h-1311v572l70 60q48 45 48 71q0 5 -1.5 16.5t-1.5 17.5l1 9l24 980q0 8 5 42q8 54 71 86q52 26 114 26q63 0 118 -29q66 -35 68 -92l20 -676q34 39 112 106q88 56 230 132q215 115 233 125v-211l4 -2l382 213v-232l383 229v-1089zM1894 50v893
l-499 -360v-839zM1507 835v151l-497 -446v-170zM1122 835v151l-496 -440v-176zM540 667l-16 704q-18 -25 -112 -25q-93 0 -112 25l-25 -958zM1317 -268v842l-382 -381v384l-385 -381v381l-388 -391v-454h385v153h393v-153h377zM1235 -14h-87v118h87v-118zM1086 -14h-85v118
h85v-118zM939 -14h-87v118h87v-118zM787 -14h-88v118h88v-118zM634 -14h-88v118h88v-118zM484 -14h-84v118h84v-118zM338 -14h-88v118h88v-118z" />
  </g>

</svg>
