<?xml version="1.0" standalone="no"?>
<!DOCTYPE svg PUBLIC "-//W3C//DTD SVG 1.1//EN" "http://www.w3.org/Graphics/SVG/1.1/DTD/svg11.dtd" >
<svg viewBox="0 -442 2048 2048">
  <g transform="matrix(1 0 0 -1 0 1606)">
   <path fill="currentColor"
d="M1900 -85l-441 -248h-1377v1334q65 37 135 80q-10 49 -10 94q0 158 111 256q107 94 266 94q115 0 206 -68q97 68 207 68q94 0 168 -46q81 -50 104 -135q5 -18 14 -36h617v-1393zM1752 1224h-465q2 -116 -77 -213h166zM1818 -35v1194l-394 -226v-1192zM1117 1133
q0 259 -208 259q-123 0 -206 -99q-79 99 -206 99q-97 0 -152.5 -61t-55.5 -159q0 -89 67 -176q32 -41 136 -138q159 -148 211 -247q67 108 178.5 213.5t142.5 140.5q93 105 93 168zM1339 -249v1173h-212q-154 -147 -166 -159q-92 -94 -147 -176q-19 -31 -45 -68
q-12 -9 -81 -24q-6 13 -17 39q-37 101 -212 246q-44 36 -143 142h-150v-1173h87v336h1006v-336h80zM1206 -138v170h-139v-170h139zM1014 -138v170h-136v-170h136zM822 -138v170h-136v-170h136zM633 -138v170h-136v-170h136zM444 -138v170h-139v-170h139zM1757 690
q-42 -24 -67 -35v142l-100 -58v-142l-67 -41v364q22 14 67 38v-136l100 58v136q21 15 67 41v-367zM1773 500q0 -62 -57 -170q-71 -135 -81 -166q-7 25 -71 81q-57 50 -57 108q0 -15 4 43q2 34 31 69t61 35q22 0 32 -16q66 90 96 90q42 0 42 -74zM1265 722h-120v81h120v-81z
M859 931h-80v123h-145v-123h-81v290h80v-104h145v104h81v-290zM1265 534h-120v80h120v-80zM1265 356h-120v75h120v-75zM1082 534h-126v80h126v-80zM1265 176h-120v75h120v-75zM1082 355h-126v76h126v-76zM1082 175h-126v76h126v-76zM890 355h-114v76h114v-76zM354 725h-123
v78h123v-78zM537 534h-117v80h117v-80zM713 356h-117v75h117v-75zM890 175h-114v76h114v-76zM537 355h-117v76h117v-76zM713 176h-117v75h117v-75zM354 534h-123v80h123v-80zM537 175h-117v76h117v-76zM354 356h-123v75h123v-75zM354 176h-123v75h123v-75z" />
  </g>

</svg>
