<?xml version="1.0" standalone="no"?>
<!DOCTYPE svg PUBLIC "-//W3C//DTD SVG 1.1//EN" "http://www.w3.org/Graphics/SVG/1.1/DTD/svg11.dtd" >
<svg viewBox="0 -442 2048 2048">
  <g transform="matrix(1 0 0 -1 0 1606)">
   <path fill="currentColor"
d="M1952 -116l-436 -247h-1434v1572l472 302h1398v-1627zM1806 1428h-1218l-357 -212h1206zM1873 -70v1435l-389 -223v-1432zM1401 419v714h-1237v-714h1237zM1401 -143v245h-309v-245h309zM1401 179v173h-1237v-173h1237zM1401 -280v93h-309v-93h309zM1009 -46v148h-109
v-148h109zM872 -46v148h-139v-148h139zM1009 -201v136h-107v-136h107zM871 -201v136h-138v-136h138zM1009 -280v42h-290q-12 0 -53 -42h343zM696 -213v315h-75v-370zM537 -143v245h-373v-245h373zM537 -279v92h-373v-92h373zM1319 486h-99v234h-190v-234h-93v532h93v-210
h188v210h101v-532zM887 593h-47v-107h-83v105h-195v64l223 363h54v-333q24 -2 48 0v-92zM1374 -122h-191v105h191v-105zM537 486h-309v81l134 146q85 101 85 167q0 59 -57 59q-67 0 -131 -45q-3 33 -7 99q73 37 138 37q61 0 100 -42.5t39 -104.5q0 -129 -174 -304h182v-93z
M842 -16h-82v88h82v-88zM318 -98h-114v170h114v-170zM756 679v157l-99 -156q39 2 48 2h13q20 0 38 -3z" />
  </g>

</svg>
