<?xml version="1.0" standalone="no"?>
<!DOCTYPE svg PUBLIC "-//W3C//DTD SVG 1.1//EN" "http://www.w3.org/Graphics/SVG/1.1/DTD/svg11.dtd" >
<svg viewBox="0 -442 2048 2048">
  <g transform="matrix(1 0 0 -1 0 1606)">
   <path fill="currentColor"
d="M1534 -105l-427 -241h-1025v1548l526 301h926v-1608zM1393 1422h-764l-367 -209h764zM1456 -57v1416l-383 -220v-1413zM991 -264v1395h-825v-1394h135v211h555v-212h135zM778 -264v137h-402v-137h402zM1387 1105q-12 -9 -38 -22v74q12 8 38 22v-74zM1294 1051
q-14 -8 -41 -22v74q14 8 41 25v-77zM1387 892q-13 -7 -38 -22v80q13 7 38 22v-80zM1201 1000q-30 -18 -47 -25v74q30 18 47 25v-74zM1294 841q-14 -8 -41 -25v80q14 8 41 22v-77zM1387 678q-12 -7 -38 -21v80q12 9 38 22v-81zM1201 790l-47 -28v80q14 8 44 22zM1294 624
q-14 -7 -41 -21v80q14 8 41 25v-84zM1387 542v-38q0 -11 -1 -33q-13 -8 -37 -24v77q13 7 38 21v-3zM910 927h-97v78h97v-78zM1201 573q-16 -8 -47 -24v80q28 17 47 24v-80zM1294 417q-14 -7 -41 -21v74q13 7 41 21v-74zM758 927h-85v78h85v-78zM1387 261q-12 -7 -38 -21v74
q13 8 38 24v-77zM910 717h-99v77h99v-77zM1201 366q-16 -9 -47 -27v77q16 8 47 24v-74zM621 927h-89v78h89v-78zM1294 207q-14 -7 -41 -21v77q14 7 41 21v-77zM760 717h-87v77h87v-77zM910 503h-99v81h99v-81zM480 927h-86v78h86v-78zM1201 156q-16 -8 -47 -24v74
q14 8 43 24zM621 717h-89v77h89v-77zM341 927h-94v78h94v-78zM760 503h-87v81h87v-81zM480 717h-86v77h86v-77zM910 294h-99v74h99v-74zM621 501h-89v83h89v-83zM342 717h-95v77h95v-77zM760 294h-87v74h87v-74zM910 84h-99v77h99v-77zM480 501h-86v83h86v-83zM621 294h-89
v74h89v-74zM760 84h-87v77h87v-77zM342 503h-95v81h95v-81zM480 294h-86v74h86v-74zM621 84h-89v77h89v-77zM342 294h-95v74h95v-74zM480 84h-86v77h86v-77zM342 84h-95v77h95v-77z" />
  </g>

</svg>
