<?xml version="1.0" standalone="no"?>
<!DOCTYPE svg PUBLIC "-//W3C//DTD SVG 1.1//EN" "http://www.w3.org/Graphics/SVG/1.1/DTD/svg11.dtd" >
<svg viewBox="0 -442 2048 2048">
  <g transform="matrix(1 0 0 -1 0 1606)">
   <path fill="currentColor"
d="M1962 -112l-398 -250h-1482v1216l339 211v220l413 232h786v-429h342v-1200zM1537 1088v307l-289 -174v-317zM1843 1019h-267l-249 -163h228zM1468 1440h-622l-294 -163h631zM1881 -75v1031l-288 -187v-1028zM1492 -283v1057h-342v429h-650v-431h-337v-1054h490v359h342
v-360h497zM420 856v121l-191 -121h191zM1415 459h-130v200h130v-200zM1043 950q0 -88 -64 -154t-152 -66q-91 0 -155.5 65t-64.5 156q0 92 64 155t156 63t154 -63.5t62 -155.5zM1205 459h-128v200h128v-200zM1415 166h-130v203h130v-203zM994 459h-130v200h130v-200z
M1205 166h-128v203h128v-203zM1415 -124h-130v200h130v-200zM787 460h-134v199h134v-199zM994 166h-130v203h130v-203zM1205 -124h-128v200h128v-200zM570 459h-127v200h127v-200zM787 167h-134v202h134v-202zM362 460h-128v199h128v-199zM570 166h-127v203h127v-203z
M362 167h-128v202h128v-202zM570 -124h-127v200h127v-200zM362 -123h-128v199h128v-199zM994 934v9q-12 0 -15 3v7q9 4 15 3v29q0 14 -15 44q-11 0 -17 -6q-2 4 -7 11l15 12q-26 38 -54 50q-5 -6 -14 -12l-8 8l9 12q-38 19 -60 19h-10l1 -7q0 -10 -15 -11l-2 2v16h-10
q-44 0 -63 -22l9 -9q-5 -5 -5 -8q-8 6 -21 12q-16 -14 -50 -54q6 -2 15 -8q-1 -4 -4 -11q-10 6 -16 6q-19 -32 -19 -45v-28h7q6 0 11 -2v-8q-6 -4 -18 -3v-28q0 -7 19 -45q5 3 13 10q2 -4 7 -11q-6 -5 -15 -16q22 -26 54 -53q4 7 14 15q3 -1 8 -4q-3 -5 -9 -13
q44 -22 57 -22h16q0 12 3 18h11q3 -4 2 -18h13q13 0 57 22q-3 5 -9 13q5 5 10 5l9 -16q21 18 57 57q-5 2 -15 12q6 11 10 11l10 -10q21 28 19 64zM961 1012l-137 -93l-98 81q6 13 20 20l79 -67l119 79q9 -5 17 -20z" />
  </g>

</svg>
