<?xml version="1.0" standalone="no"?>
<!DOCTYPE svg PUBLIC "-//W3C//DTD SVG 1.1//EN" "http://www.w3.org/Graphics/SVG/1.1/DTD/svg11.dtd" >
<svg viewBox="0 -442 2048 2048">
  <g transform="matrix(1 0 0 -1 0 1606)">
   <path fill="currentColor"
d="M1824 -109l-432 -245h-1310v1558l522 299h1220v-1612zM1680 1421h-1052l-369 -210h1055zM1743 -67v1425l-379 -220v-1420zM1278 -273v1402h-1115v-1402h210v214h695v-214h210zM992 -273v150h-545v-150h545zM1226 747q0 -45 -97 -145q-88 -92 -140 -119q-180 -94 -295 -94
q-153 0 -253 83q-73 61 -161 216q-3 4 -34 42q-23 29 -23 44q0 21 30.5 43t52.5 22q21 0 43 -12q25 -15 25 -34q0 -11 -14.5 -27.5t-14.5 -26.5q0 -36 55 -107t90 -76q-54 104 -54 157q0 110 68.5 186t177.5 76q116 0 184 -80q64 -75 64 -193q0 -49 -40 -160q83 45 97 140
q2 89 5 177q20 25 57 25q57 0 114 -39q63 -43 63 -98zM838 713q0 67 -44.5 115t-111.5 48q-71 0 -113 -46t-42 -117q0 -76 39 -128q43 -59 116 -59q70 0 115 60q41 54 41 127z" />
  </g>

</svg>
