<?xml version="1.0" standalone="no"?>
<!DOCTYPE svg PUBLIC "-//W3C//DTD SVG 1.1//EN" "http://www.w3.org/Graphics/SVG/1.1/DTD/svg11.dtd" >
<svg viewBox="0 -442 2048 2048">
  <g transform="matrix(1 0 0 -1 0 1606)">
   <path fill="currentColor"
d="M1940 -351h-1646v799l-212 39v1019h532q-20 0 103 -14q74 -8 142 -69.5t80 -134.5q3 -15 10 -44l102 262h382l307 -808h200v-249l-263 -256l263 -283v-261zM1602 614l-278 729h-165l-268 -729h131l64 169h312l69 -169h135zM1816 -188l-362 390l350 339h-168
q-298 -288 -301 -288q-27 0 -35 4v284h-121v-729h123v328h39l310 -328h165zM815 819q0 117 -91 173q73 70 73 167q0 157 -149 179q-33 5 -31 5h-375v-732h357q99 0 157.5 54.5t58.5 153.5zM1023 -188v729h-115v-504l-350 504h-105v-729h115v491l347 -491h108zM1367 898h-250
l119 340zM676 1140q0 -40 -21 -69q-23 -32 -62 -32h-230v181h236q77 0 77 -80zM691 832q0 -95 -71 -95h-256v205h226q101 0 101 -110z" />
  </g>

</svg>
