<?xml version="1.0" standalone="no"?>
<!DOCTYPE svg PUBLIC "-//W3C//DTD SVG 1.1//EN" "http://www.w3.org/Graphics/SVG/1.1/DTD/svg11.dtd" >
<svg viewBox="0 -442 2048 2048">
  <g transform="matrix(1 0 0 -1 0 1606)">
   <path fill="currentColor"
d="M1994 12l-510 -252h-408v-99q-106 -57 -111 -58t-156 -1v229h-292v-229h-174v157h-261v1447l485 309h1427v-1503zM1846 1430h-1260l-349 -216h1228zM1913 68v1297l-396 -227v-1272zM1432 -155v1284h-1265v-1285h175v215q192 148 204 148h595v-193l-65 -41v-128h356z
M1094 68q0 6 -1 21v22l-110 -79v-371q14 8 42 22v317q32 23 68 50q1 7 1 18zM1063 148h-492q-11 0 -117 -80h486q-4 0 123 80zM929 -345v365h-533v-365h62v244h410v-244h61zM1842 1195q1 -42 -1 -77q-13 -8 -38 -25v79q13 8 39 23zM1746 1062q-15 -8 -43 -25v79q14 8 43 23
v-77zM1842 897q-13 -8 -39 -22v80q11 8 39 22v-80zM1646 1006q-28 -17 -48 -25v76q15 10 48 26v-77zM1746 842q-14 -8 -43 -23v80q15 8 43 25v-82zM1842 677q-11 -8 -39 -22v83q13 8 39 22v-83zM1646 789q-16 -10 -48 -26v77q16 10 48 29v-80zM1746 621q-14 -7 -43 -22v83
q24 12 43 22v-83zM1842 459q-13 -8 -39 -22v80q12 7 36 19zM1357 928h-101v74h101v-74zM1646 565q-16 -8 -48 -25v83l48 28v-86zM1746 404q-14 -8 -43 -23v80q14 7 43 22v-79zM1357 717h-100v80h100v-80zM1646 351q-16 -10 -48 -26v77q16 8 48 25v-76zM1357 504h-101v82h101
v-82zM1357 298h-101v73h101v-73zM1090 643h-172v-178h-227v176h-181v227h180v177h226v-177h174v-225zM1199 298h-105v73h105v-73zM1031 298h-114v73h114v-73zM370 928h-108v74h108v-74zM857 298h-101v73h101v-73zM370 717h-108v80h108v-80zM699 298h-105v73h105v-73z
M370 503h-108v83h108v-83zM534 298h-98v73h98v-73zM370 298h-108v73h108v-73z" />
  </g>

</svg>
