<?xml version="1.0" standalone="no"?>
<!DOCTYPE svg PUBLIC "-//W3C//DTD SVG 1.1//EN" "http://www.w3.org/Graphics/SVG/1.1/DTD/svg11.dtd" >
<svg viewBox="0 -442 2048 2048">
  <g transform="matrix(1 0 0 -1 0 1606)">
   <path fill="currentColor"
d="M1972 25l-504 -249h-404v-98q-103 -55 -109.5 -56.5t-154.5 -1.5v226h-288v-226h-172v155h-258v1431l479 304h1411v-1485zM1825 1427h-675v-214h300zM1892 81v1282l-392 -225v-1257zM984 786v583h-158v-214h-116v214h-155v-583h157v230h116v-230h156zM474 1214v137
l-239 -137h239zM1416 -140v1269h-266v-362q-19 -21 -58 -61h-618v423h-308v-1270h173v213q189 146 202 146h588v-191l-64 -40v-127h351zM1082 80q0 6 -1 21v22l-109 -78v-367q14 8 43 22v313q20 14 66 49q1 7 1 18zM1052 159h-487q-10 0 -115 -79h480q-3 0 122 79zM919 -328
v361h-527v-361h62v242h405v-242h60zM1822 1148q0 -13 -1 -30q-13 -8 -38 -25v79q12 8 38 22zM1727 1063q-14 -8 -42 -25v79q14 8 42 22v-76zM1822 900q-13 -8 -39 -22v79q11 8 39 22v-79zM1628 1008q-28 -17 -48 -25v75q15 10 48 26v-76zM1726 845q-14 -8 -42 -22v79
q14 8 42 25v-82zM1822 682q-11 -8 -39 -22v82q13 8 39 22v-82zM1628 793q-28 -17 -48 -25v76q30 18 48 28v-79zM1726 627q-14 -8 -42 -22v82q14 8 42 22v-82zM1822 467q-13 -8 -39 -22v79q12 7 35 19zM1343 931h-101v73h101v-73zM1628 572q-16 -8 -48 -25v82l48 28v-85z
M1726 412q-14 -8 -42 -22v79l42 22v-79zM1343 722h-99v79h99v-79zM1628 360q-28 -17 -48 -25v76q16 8 48 25v-76zM1343 512h-101v80h101v-80zM1186 510h-103v82h103v-82zM1343 308h-101v72h101v-72zM1020 512h-112v80h112v-80zM1186 308h-103v72h103v-72zM849 512h-101v80
h101v-80zM1020 308h-112v72h112v-72zM367 931h-107v73h107v-73zM692 510h-104v82h104v-82zM849 308h-101v72h101v-72zM367 722h-107v79h107v-79zM529 510h-97v82h97v-82zM692 308h-104v72h104v-72zM367 510h-107v82h107v-82zM529 308h-97v72h97v-72zM367 308h-107v72h107
v-72z" />
  </g>

</svg>
