<?xml version="1.0" standalone="no"?>
<!DOCTYPE svg PUBLIC "-//W3C//DTD SVG 1.1//EN" "http://www.w3.org/Graphics/SVG/1.1/DTD/svg11.dtd" >
<svg viewBox="0 -442 2048 2048">
  <g transform="matrix(1 0 0 -1 0 1606)">
   <path fill="currentColor"
d="M1653 746q0 -149 -167 -195q57 -69 57 -135q0 -143 -148 -182l-30 -8q-73 -20 -102 -70l-17 -30q-53 -94 -164 -94q-99 0 -173 112q-57 -111 -171 -111q-98 0 -166 106l-16 25q-33 52 -92 64l-29 6q-68 14 -112.5 67t-44.5 122q0 64 68 138q-173 36 -173 191q0 59 44 112
l24 29q47 57 47 89q0 -6 -2 31l-2 37q-1 19 -1 25q0 69 56 126t125 57q46 0 107 -31q-8 32 -8 47q0 71 56.5 124t127.5 53q32 0 74 -15l34 -12q54 -19 63 -19q27 0 61 16l28 13q37 17 77 17q72 0 130 -53t58 -124q0 -20 -5 -56q43 29 100 29q82 0 133 -60.5t47 -142.5
l-2 -42q-2 -42 -2 -35q0 -35 39 -78l18 -20q53 -59 53 -123zM1603 742q0 46 -39 91l-24 28q-48 56 -48 119q0 6 1 23l2 34q1 17 1 24q0 57 -36.5 97.5t-92.5 40.5q-58 0 -126 -46q-56 -107 -122 -178l-40 30q141 163 141 268q0 54 -40.5 91t-95.5 37q-22 0 -58 -14l-33 -13
q-48 -19 -75 -19q-21 0 -78 22l-31 12q-36 14 -64 14q-60 0 -96 -40.5t-36 -101.5q0 -28 7 -74q72 -71 135 -177l-40 -28q-138 227 -246 227q-63 0 -102 -46.5t-35 -110.5l2 -36q1 -18 1 -27q0 -55 -54 -121l-23 -28q-37 -45 -37 -92q0 -109 175 -153q85 48 213 79l15 -47
q-143 -41 -186 -63q-110 -56 -110 -144q0 -109 112 -136l33 -8q84 -20 126 -87l19 -30q47 -75 124 -75q84 0 150 118q-15 70 -15 154q0 35 7 75h51q-5 -43 -5 -76q0 -273 151 -273q73 0 126 79l20 30q45 67 123 84l32 7q112 24 112 136q0 60 -81 138q-129 16 -214 63l15 46
q145 -63 242 -63q147 0 147 140zM1165 801l-92 -41l54 -16l-6 -49l-54 -2l43 -34l-23 -43l-53 20l56 -86l-41 -30l-67 75l-1 -58l-46 -9l-21 52l-22 -53l-45 10l2 56l-67 -77l-38 29l50 89l-54 -19l-23 43l43 36l-55 2l-5 46l54 15l-95 40l16 46l99 -23l-33 48l33 34l45 -31
l-14 53l45 21l28 -47l9 101h50l8 -101l34 47l45 -21l-15 -54l45 31l32 -34l-35 -44l101 24zM1062 742q0 62 -43 105t-105 43t-105 -43t-43 -105q0 -63 42.5 -105.5t105.5 -42.5q62 0 105 43t43 105zM972 742q0 -62 -60 -62t-60 62q0 61 60 61t60 -61z" />
  </g>

</svg>
