<?xml version="1.0" standalone="no"?>
<!DOCTYPE svg PUBLIC "-//W3C//DTD SVG 1.1//EN" "http://www.w3.org/Graphics/SVG/1.1/DTD/svg11.dtd" >
<svg viewBox="0 -442 2048 2048">
  <g transform="matrix(1 0 0 -1 0 1606)">
   <path fill="currentColor"
d="M1316 585q-21 6 -37 6v77q18 -6 37 -6v-77zM1142 604h-52v73h52v-73zM1434 282q0 -7 -4 -16h-30v46h10q24 0 24 -30zM946 591q-12 0 -36 -6v77q15 0 36 6v-77zM1694 -373h-52v810q-19 11 -47 11q-52 0 -58 -20q-1 -4 -1 -14q0 -28 1 -44l29 -18q20 -12 20 -23v-702h-74
v237q-12 3 -22 3t-22 -3v-237h-43v280q0 -2 10.5 56.5t30.5 176.5l9 13h17l47 -235v401q-45 21 -154 21v-713h-44v1071q-33 48 -173 48q-195 0 -302 -58v-1061h-58v763l-9 4q-44 3 -188 17v-784h-36v943q-25 12 -40 12q-67 0 -91 -18v-937h-30v763l-5 2l-182 -67v-698h-52
v715q44 37 44 40q0 55 -12 61q-3 2 -80 2l-12 -11v-807h-33v820q35 129 75 277h20q23 -79 46 -159q31 -106 32 -155l5 -5q57 35 146 111q3 24 9 61q29 90 86 271h20l66 -204q216 -13 217 -13v83l277 823h27l184 -535q32 -80 92 -267v-266l116 -83q-1 26 3 77q8 24 23 71
q19 63 57 190h21l90 -302v-795zM556 505q-4 0 -12 1.5t-12 1.5v33q4 0 12 -1.5t12 -1.5v-33zM720 325h-27v36q6 -3 27 -3v-33zM512 508h-30v36l30 -3v-33zM767 -74q-35 3 -46 0q0 117 -4 124q16 11 28 11q22 0 22 -14v-121zM376 306h-2h-3q-10 0 -19 -3v39h21q0 -24 3 -36z
M694 -69q-11 2 -38 2l-4 4q-1 -14 -1 69q0 31 11 57h32v-132zM186 405h-27v27h27v-27zM283 275q-8 -3 -24 -10v46q4 0 12 1.5t12 1.5v-39zM382 -68q-13 2 -46 0v117q0 4 3.5 8.5t3.5 5.5h29l10 -10v-121zM314 54q-3 -101 -3 -126h-23q-17 -1 -23 -1v116q0 18 24 18
q11 0 25 -7zM1102 979v58h-32q2 -12 0 -58h32zM655 523v36h-27v-36h27z" />
  </g>

</svg>
