<?xml version="1.0" standalone="no"?>
<!DOCTYPE svg PUBLIC "-//W3C//DTD SVG 1.1//EN" "http://www.w3.org/Graphics/SVG/1.1/DTD/svg11.dtd" >
<svg viewBox="0 -442 2048 2048">
  <g transform="matrix(1 0 0 -1 0 1606)">
   <path fill="currentColor"
d="M1654 769q0 -75 -53.5 -123t-129.5 -48q-50 0 -132 16q198 -84 198 -215q0 -113 -124 -147l-29 -8q-88 -24 -118 -78l-13 -23q-51 -90 -145 -90q-175 0 -194 259q-35 -259 -196 -259q-94 0 -139 84l-15 28q-31 57 -101 75l-32 8q-141 35 -141 157q0 134 201 218
q-76 -12 -122 -12q-78 0 -134 42q-62 46 -62 122q0 55 47 108l24 27q42 47 42 87q0 17 -3 43l-3 26v19q0 165 162 165q101 0 216 -130q-64 108 -64 194q0 66 42.5 112t108.5 46q39 0 68 -14l25 -12q48 -23 78 -23q23 0 62 16l29 12q48 20 81 20q68 0 114 -52t46 -121
q0 -80 -69 -180q116 132 217 132q70 0 111.5 -47t41.5 -118q0 -15 -2 -27l-4 -24q-2 -12 -2 -31q0 -50 44 -101l19 -22q50 -58 50 -111zM1165 801l-13 46l-101 -24l35 44l-32 34l-45 -31l15 54l-45 21l-34 -47l-8 101h-50l-9 -101l-28 47l-45 -21l14 -53l-45 31l-33 -34
l33 -48l-99 23l-16 -46l95 -40l-54 -15l5 -46l55 -2l-43 -36l23 -43l54 19l-50 -89l38 -29l67 77l-2 -56l45 -10l22 53l21 -52l46 9l1 58l67 -75l41 30l-56 86l53 -20l23 43l-43 34l54 2l6 49l-54 16zM1062 742q0 -62 -43 -105t-105 -43q-63 0 -105.5 42.5t-42.5 105.5
q0 62 43 105t105 43t105 -43t43 -105zM972 742q0 61 -60 61t-60 -61q0 -62 60 -62t60 62z" />
  </g>

</svg>
