<?xml version="1.0" standalone="no"?>
<!DOCTYPE svg PUBLIC "-//W3C//DTD SVG 1.1//EN" "http://www.w3.org/Graphics/SVG/1.1/DTD/svg11.dtd" >
<svg viewBox="0 -442 2048 2048">
  <g transform="matrix(1 0 0 -1 0 1606)">
   <path fill="currentColor"
d="M1892 0h-1091l-243 154q-64 -81 -196 -115q98 -96 237 -123l-5 -32q-167 32 -278 146q-55 -14 -165 -30l-1 31q55 3 147 24q-141 156 -141 346q0 117 38 202q50 113 152 113q92 0 164 -58l291 183h1091v-841zM1864 29v783h-1055l-276 -174q54 -52 80 -113q15 6 38 6
q45 0 77 -31.5t32 -76.5t-32.5 -76.5t-77.5 -31.5q-40 0 -73.5 34t-33.5 74q0 50 45 88q-28 64 -81 114l-37 -25v-357q128 -79 339 -214h1055zM527 175l-85 53v387l43 28q-68 37 -136 37q-156 0 -156 -283q0 -177 139 -329q77 17 109 33q44 22 86 74z" />
  </g>

</svg>
