<?xml version="1.0" standalone="no"?>
<!DOCTYPE svg PUBLIC "-//W3C//DTD SVG 1.1//EN" "http://www.w3.org/Graphics/SVG/1.1/DTD/svg11.dtd" >
<svg viewBox="0 -442 2094 2048">
  <g transform="matrix(1 0 0 -1 0 1606)">
   <path fill="currentColor"
d="M2094 289q0 -80 -150 -102l-294 -16q-170 -11 -202 -64q14 -14 39 -46q-7 -12 -42 -12q-113 0 -113 61q0 52 135 109q121 52 185 52h278q33 0 33 35q0 48 -115 78q-84 22 -155 22q-9 0 -15 -1l-303 -26q-152 -13 -151 -13q-37 0 -109.5 18t-109.5 18q-26 0 -76.5 -5.5
t-75.5 -5.5q-27 0 -81.5 19.5t-82.5 19.5q-23 0 -87 -23t-98 -23h-18q-62 0 -62 37q0 27 46 43q34 12 69 12q16 0 25 -4q6 5 5 15q-43 24 -77 24q-42 0 -125.5 -11t-125.5 -11q-60 0 -104 24q-55 30 -55 85q0 71 181 222q42 25 118 85q-7 19 -7 41q0 55 40 97.5t95 42.5
q32 0 47 -28q10 -28 19 -56q25 8 56 8q32 0 61 -61q105 -11 133 -11q15 0 45 5.5t45 5.5q12 0 146 -12q174 -16 195 -19q111 -21 174 -80q43 -40 113 -162q65 -114 113 -150q27 -20 120 -40q67 -13 133 -27t121 -58q64 -52 64 -112zM2062 292q0 49 -73 96q-63 40 -119 48
q-49 5 -144 23q-113 32 -202 184q-98 168 -190 216q-41 22 -99 28q-28 3 -207 19q-90 8 -101 8q-19 0 -55.5 -5.5t-55.5 -5.5q20 0 -145 15q-10 19 -22 37.5t-36 18.5q15 0 -55 -18q-11 32 -39 95h-11q-39 1 -68 -33t-29 -73q0 -7 5 -21t5 -21q0 -21 -47 -51
q-32 -20 -65 -39q-26 -18 -108 -105q-87 -93 -87 -109q0 -77 157 -77q37 0 111 12t111 12q32 0 71 -15q48 -17 48 -43q0 -35 -34 -43q-6 -1 -62 -1q-16 0 -46 -20q41 -5 32 -5q35 0 99 23t99 23q28 0 82 -17.5t82 -17.5q21 0 63.5 5.5t63.5 5.5q40 0 117.5 -18t117.5 -18
q-7 0 142 11l285 21q9 1 20 1q91 0 191 -26q138 -36 138 -100q0 -50 -37 -61q-14 -4 -173 -13q-110 -6 -95 -6q-5 0 -15 2t-15 2q-3 0 -50 -12q-250 -64 -250 -112q0 -26 49 -24q-2 14 -2 21q0 31 65 57q107 43 208 45l194 4q181 4 181 77zM425 761q0 -8 -1 -16
q-15 -15 -23 -15q-30 0 -30 62q0 26 22 26q32 0 32 -57zM417 763q0 11 -9 16q-8 -16 -8 -23q0 -8 9 -8h4q4 7 4 15zM387 789h-6l-4 -16h6z" />
  </g>

</svg>
