<?xml version="1.0" standalone="no"?>
<!DOCTYPE svg PUBLIC "-//W3C//DTD SVG 1.1//EN" "http://www.w3.org/Graphics/SVG/1.1/DTD/svg11.dtd" >
<svg viewBox="0 -442 2110 2048">
  <g transform="matrix(1 0 0 -1 0 1606)">
   <path fill="currentColor"
d="M2110 402q0 -8 -12.5 -37.5t-12.5 -45.5q0 -12 4 -36.5t4 -37.5q-8 -11 -30 -11q-42 0 -56 46q-8 40 -17 79q-5 14 -50.5 54t-62.5 49q5 -13 47 -58q38 -40 38 -54q0 -21 -11 -57q-12 -41 -14 -56q-4 -32 -4 -73q0 16 7 -160l-12 -20q1 -11 1 -16q0 -85 -115 -85
q-99 0 -99 35q0 15 36 46q41 35 46 46q17 35 17 103q0 75 -42 141q-10 -19 -53 -148q-34 -104 -67 -127q-6 -58 -89 -58q-100 0 -100 29q0 13 40 54q48 49 53 56q21 48 65 142l-3 32q-8 -13 -17 -25q-10 -15 -24 -15q-15 0 -47 35q-5 -2 -28 -17q-19 -13 -26 -13
q-6 0 -60 57t-73 57q-5 0 -14 -5t-14 -5q-35 0 -104.5 20t-104.5 20q-117 0 -117 -161q0 -14 1 -49q0 -16 10 -46.5t10 -47.5q0 -13 -8 -26q-47 -75 -59 -84q-22 -16 -96 -16q-11 0 -32 5t-32 5q-4 0 -13.5 -8.5t-13.5 -9.5q-18 -7 -57 -7q-84 0 -84 37q0 23 56.5 63
t56.5 119q0 8 -24 206q-67 0 -88 36q-5 27 -22 79q-91 197 -181 268q-33 26 -82 26q-14 0 -40.5 -2.5t-40.5 -2.5q-67 0 -107 17q-35 15 -61 100l197 216q-52 17 -63 23q-30 19 -30 56t27 37q13 0 39 -9.5t40 -9.5q19 0 55.5 9.5t55.5 9.5q30 0 60.5 -27t37.5 -27
q12 0 33.5 10t33.5 10q42 0 42 -45q0 -20 -30 -51q41 -23 116 -23q20 0 60.5 7.5t60.5 7.5q23 0 79 -16q76 -21 82 -22q102 -22 251 -22q81 0 246 13t245 13q151 0 210 -45q69 -54 69 -200q0 -26 -8 -77t-8 -77q0 -49 10 -77q3 -7 62 -55q55 -45 55 -71zM1720 238h-58
q1 -142 -144 -274h87q22 33 59 104q18 57 56 170zM2070 399q0 28 -59 68t-59 120q0 2 5 44q15 119 15 148q0 113 -68 156q-54 34 -174 34q-181 0 -309 -10q-18 -1 -66 -11q-42 -8 -67 -8q-185 0 -330 25q-15 3 -72 20q-47 14 -69 14q-20 0 -60.5 -7.5t-60.5 -7.5
q-155 0 -155 57q0 5 29 60q-8 -1 -35 -11q-23 -7 -36 -7q-20 0 -48 27t-46 27q-16 0 -48 -7.5t-48 -7.5q-33 0 -79 9q21 -18 60 -25t54 -17v-13q-13 -21 -115.5 -126.5t-102.5 -106.5q0 -14 26 -60q101 -16 117 -16q10 0 31 2.5t31 2.5q33 0 78 -17q51 -19 118 -117
q52 -75 86 -151q9 -34 33 -99q10 -21 46.5 -23.5t43.5 -20.5q9 -21 21 -111q11 -85 11 -117q0 -69 -24 -104q-16 -23 -80 -73h83q14 15 34 50q8 23 9 66q1 49 4 67q15 77 95 178q89 112 109 167q0 1 6 37q3 24 17 31l18 -13q-8 -51 -61 -159q29 9 128 9q6 0 7.5 5t7.5 5
q122 0 256 -41q27 -8 60.5 -39.5t42.5 -57.5q49 24 48 24q23 0 46 -29q27 35 79 41q89 9 92 10q-22 21 -64 66q-55 66 -55 88l4 12h17q57 -77 62 -83q33 -41 76 -71q24 -16 49 -86q24 -66 24 -100q0 -97 -31 -140q-21 -29 -63 -52h112q9 10 10 43.5t15 51.5q-1 15 -7 71
q-5 44 -5 72q0 41 25 139q13 51 13 54q0 6 -44.5 47t-44.5 66q0 41 20 120q31 120 31 121l16 13q27 -12 27 -41q0 -30 -12 -88t-12 -88q0 -24 50 -65q58 -48 66 -62q15 -27 24 -90q-4 13 -4 25q0 18 13 45t13 41zM980 322h-22q-12 0 -44.5 -40t-32.5 -53q0 -7 6 -13t7 -9
q12 -28 12 -94q0 -88 -84 -164h41q11 0 30 4.5t27 5.5q3 6 27 43q23 34 23 37q0 21 -10 60.5t-10 60.5q0 68 30 162zM866 111q0 12 -3 35t-3 34q-41 -53 -41 -151v-27l13 15q34 40 34 94zM403 947q0 -36 -28 -42q-6 2 -31 41l5 57h33q21 -31 21 -56zM393 931q0 20 -8 28
q-11 -11 -11 -34q13 0 19 6zM360 973h-8l-6 -23h8z" />
  </g>

</svg>
