<?xml version="1.0" standalone="no"?>
<!DOCTYPE svg PUBLIC "-//W3C//DTD SVG 1.1//EN" "http://www.w3.org/Graphics/SVG/1.1/DTD/svg11.dtd" >
<svg viewBox="0 -442 2178 2048">
  <g transform="matrix(1 0 0 -1 0 1606)">
   <path fill="currentColor"
d="M2178 403q0 -29 -60 -65q-69 -42 -118 -42q-103 0 -199 92q-18 16 -147 173q-13 15 -40 33l-3 -2q1 -55 40 -151q30 -74 91 -98q84 -35 113 -63v-192q-28 -56 -109 -56q-61 0 -61 41q0 19 39.5 49.5t39.5 50.5q0 29 -3 56q-31 21 -101 38q-81 19 -106 30l-130 87
q2 -13 12 -61q9 -38 9 -61q0 -9 -67 -58.5t-81 -52.5q-10 -1 -30 -4q-5 -1 -27 -18q-18 -15 -55 -15h-17q-99 -1 -99 33q0 11 23 39q20 26 33 34q26 17 54 17q7 0 22 -2.5t22 -2.5q39 0 110 52q-34 30 -60 85q-45 91 -46 93q-83 -22 -171 -22q-41 0 -70 -23l49 -148
q-31 -92 -56 -114q-33 -31 -122 -31q-52 0 -52 40q0 29 61 64t61 78q0 27 -27 79q-30 57 -53 57q-4 0 -20 -23q-40 -41 -109 -132q-18 -39 -56 -117q-44 -1 -57 -24q-18 -34 -21 -36q-36 -24 -89 -24q-81 0 -81 39q0 22 25 45q21 19 45 26q18 4 35 7.5t33 19.5
q107 108 107 212q0 37 -54 106q-49 63 -87 86q-14 5 -39 17q-8 5 -34 41q-19 26 -43 26q-10 0 -31 -4t-32 -4q-19 -31 -39 -63q-23 -36 -59 -36q-21 0 -40 58l-2 -2q-8 -8 -22 -8q-9 0 -25.5 2.5t-25.5 2.5q-44 0 -44 54q0 117 100 210t218 93q7 0 41 -8q173 -41 188 -41
q13 0 38 5t38 5q59 0 177.5 -41.5t181.5 -41.5q20 0 60 2.5t60 2.5q287 0 515 -226q17 -17 108 -154q69 -106 135 -132q15 -6 63 -6q33 0 87 27l54 27q9 0 20.5 -10.5t11.5 -19.5zM2140 403q-67 -49 -148 -49q-83 0 -152 70q-38 38 -106 146q-61 95 -99 124q-80 60 -220 132
q-90 46 -236 46q-25 0 -76 -4.5t-76 -4.5q-57 0 -162 44t-160 44q-13 0 -39 -5t-39 -5q-49 0 -159 32q11 -4 11 -17q0 -21 -28.5 -55t-48.5 -34q-17 0 -17 20q0 -1 49 57l-12 6q-15 -2 -39 -20q-28 -20 -39 -24q-13 8 -13 20q0 13 19 31q15 14 30 27h-21q-11 0 -55 -16.5
t-55 -24.5q-143 -96 -143 -225q0 -28 21 -30q40 -5 41 -6q14 27 28 53q17 30 47 30q39 0 39 -59q0 -29 -12 -29q-1 0 -5 1q0 4 -5 4q-13 0 -27 -32l12 -17q9 3 25 11q12 24 24 47q23 45 37 45q5 0 13.5 -5t13.5 -5q8 0 22 7t22 7q34 0 54 -28q31 -41 33 -43q32 -17 90 -60
q27 -27 65 -83q44 -64 44 -89q0 -74 -57.5 -160t-126.5 -107q-55 -17 -60 -44q45 -16 51 -16q43 0 88 48q43 45 69 40q19 67 42 104q36 41 104 127q8 18 26 46q6 6 25 6q-5 0 64 -12q40 -7 97 -7q88 0 140 11q85 18 80 18q25 0 59 -18q46 -26 55 -29q32 -6 83 -23
q8 -9 24 -26q53 -51 123 -78q35 -14 103 -25q115 -19 115 -91q0 -65 -83 -122l11 -18h50q19 0 54 26q-6 28 -6 45q0 6 3.5 18t3.5 18q0 4 -7 14q13 83 13 77q0 20 -66 48q-83 36 -86 38q-28 21 -42 57q-56 146 -56 209q0 12 23 12q39 0 103 -79q109 -133 122 -145
q79 -79 154 -79q33 0 91 26q65 29 66 57zM1416 262q-6 58 -25 129q-49 12 -116 41l82 -153q-17 -26 -56 -51q-42 -25 -71 -25q-8 0 -23 2.5t-23 2.5q-29 0 -46.5 -18.5t-34.5 -37.5l11 -12h94q7 0 23 12.5t22 14.5q14 1 40 8q40 31 123 87zM1005 269q0 12 -19 72
q-22 67 -25 81q-18 2 -53 5l32 -58q17 -32 17 -63q0 -56 -63 -94.5t-64 -50.5l11 -12q-6 -1 61 -1q21 0 35 8.5t41 52.5t27 60zM252 706q-2 8 -4 24q-2 1 -5 1q-30 0 -43 -63q10 4 29 16q-5 5 -5 13q0 14 14 14h8q2 -1 6 -5zM1299 610q-6 -8 -23 -16q-19 13 -25 68l-8 80
q-23 89 -23 72q0 18 18 24q31 -21 45 -105q8 -62 16 -123zM1206 635l-6 -21q-2 0 -7 -1t-8 -1q-11 0 -18 2q0 97 -26 152q-2 5 -22 33q-11 16 -11 39v5h28q70 -92 70 -208zM1093 605l-17 -11q-6 6 -16 5q0 42 -12 124q-25 45 -52 105l6 15h27q64 -116 64 -172v-66zM1001 652
q0 -9 -3 -26.5t-3 -26.5q-3 0 -10 -1t-11 -1q-7 0 -12 2q-1 4 -1 59q0 43 -36.5 114.5t-36.5 77.5t3 10.5t3 6.5h22q26 -19 56 -100q29 -77 29 -115zM922 621q0 -32 -11 -46h-22q0 38 -7 114q-9 52 -44 111q-23 29 -62 90q8 12 19 12q6 0 30 -25q97 -101 97 -256zM834 555
h-28q-8 13 -8 74q0 43 -59 149.5t-61 123.5l6 14h27q123 -219 123 -241v-120zM277 838q0 -12 -16 -29q-10 1 -19 19.5t-9 29.5q0 12 12 24q32 -11 32 -44zM250 856l-7 2l-6 -12l6 -3z" />
  </g>

</svg>
