<?xml version="1.0" standalone="no"?>
<!DOCTYPE svg PUBLIC "-//W3C//DTD SVG 1.1//EN" "http://www.w3.org/Graphics/SVG/1.1/DTD/svg11.dtd" >
<svg viewBox="0 -442 2048 2048">
  <g transform="matrix(1 0 0 -1 0 1606)">
   <path fill="currentColor"
d="M1331 273q0 -40 -181 -61q-216 -25 -229 -31q2 -4 35 -38v-18q-11 -6 -30 -6q-65 0 -65 46q0 76 420 105l5 23q-37 32 -105 55.5t-118 23.5q-48 0 -138 -28t-138 -28q-14 0 -41.5 8t-41.5 8t-40.5 -2.5t-40.5 -2.5q-63 0 -107 10q-66 15 -57 15q-20 0 -57 -12.5
t-57 -12.5q-51 0 -51 30q0 21 17 30l34 12q-10 1 -26 1q-19 0 -56.5 -4t-56.5 -4q-124 0 -124 74q0 44 72 106q54 44 108 87q-1 7 -1 10q0 39 26.5 73t64.5 34q13 0 52 -49q2 1 7 1q49 0 64 -43h206q26 0 66 -9q55 -13 66 -15q69 -11 118 -64q26 -28 66 -98q32 -58 54 -70
q33 -17 89 -29q83 -17 93 -20q37 -11 66 -39q32 -32 32 -68zM1032 404q-23 25 -64 78q-17 31 -33 62q-22 38 -45 53q-76 49 -211 49q-29 0 -87.5 -3t-87.5 -3q-32 0 -44 6q-5 3 -21 21t-21 18q-11 0 -40 -15q-14 18 -24 61q-35 -4 -43 -38q-1 -19 -18 -59q-27 -33 -87 -85
q-64 -55 -89 -83q20 -38 81 -38q24 0 72 7.5t72 7.5q78 0 78 -39q0 -8 -4 -16q6 0 19.5 4.5t20.5 4.5q11 0 42 -10q35 -12 46 -14q97 -16 231 -16q68 0 171 28q28 9 86 19zM335 550l-13 -11q-8 4 -28 32l6 33h18q17 -16 17 -27v-27zM326 573h-7l-6 -17l7 -2zM306 570v14h-9
v-14h9z" />
  </g>

</svg>
