<?xml version="1.0" standalone="no"?>
<!DOCTYPE svg PUBLIC "-//W3C//DTD SVG 1.1//EN" "http://www.w3.org/Graphics/SVG/1.1/DTD/svg11.dtd" >
<svg viewBox="0 -442 2048 2048">
  <g transform="matrix(1 0 0 -1 0 1606)">
   <path fill="currentColor"
d="M1837 655q0 -5 -2.5 -13t-2.5 -12q-17 -6 -20 -6q-14 0 -38 36q-9 -11 -7 -18l50 -184q-11 -42 -21 -84q-15 -37 -62 -61q-11 11 -11 40q0 34 -4 45q-9 -8 -108 -129q-65 -79 -131 -100q21 -13 41 -25q25 -16 30 -36q-8 -4 -76 -15q71 -58 71 -97q0 -41 -64 -76
q-2 17 -14 50q-101 -110 -152 -110h-146q-1 4 -1 8q0 5 1.5 15t1.5 15q0 7 -4 7q-16 0 -60 -33l30 -29q-2 -10 -11 -17q-11 0 -34 1t-35 1q-56 0 -91 -27t-55 -27q-11 0 -33 3.5t-33 3.5q21 -21 30 -51q-26 -6 -24 -6q-38 0 -107.5 44t-92.5 78q-16 24 -18 66q-4 58 -7 69
q-15 -25 -44 -76q-13 4 -26 38q-12 31 -12 48q0 95 156 196q-8 3 -25 11q1 14 15 21q-60 10 -111 10l34 -28q21 -19 21 -37q0 -38 -77 -53l-90 -16q-49 -39 -49 -62q0 -6 8 -20q11 -17 12 -20q-5 -7 -17 -7q-25 0 -70 26.5t-57 48.5q-12 -25 -14 -25q-21 0 -42 50l-18 52
q-8 2 -22 10q-5 5 -15.5 29.5t-10.5 31.5q0 30 60 75q-45 18 -73 93q-23 63 -23 122q0 55 36 112q-8 4 -56 4q-35 0 -35 35q0 28 63 75t63 75q0 14 -9 21h-13q7 0 -72 -31q-7 8 -7 26q0 55 67.5 135.5t121.5 80.5q9 0 39 -10q6 9 4 24q30 -3 86 -60q-6 48 -6 120
q21 21 33 21q6 0 15 -5t15 -5q-6 0 119 119q128 123 199 137v-50q102 94 181 106l6 -6v-19q-20 -7 -26 -26q67 35 119 147q32 -27 32 -73q0 -6 -1 -10q2 -5 12 -4q-30 -64 -70 -97q5 -4 139 -3q19 -19 27 -43l-30 -24q46 -47 91 -94q64 -67 64 -102v-47q0 -6 -12 -6
q-7 0 -28 17.5t-27 17.5q-25 0 -56 -69q-49 -110 -60 -129q-43 -69 -96 -69q-6 0 -9.5 5.5t-8.5 5.5q-2 -9 -4 -27q6 -9 20 -9q36 0 133 91q65 62 129 123q20 16 94 37q71 21 100 21l12 -13q-11 -15 -61 -51q9 -25 36 -32t53 -12q114 -34 168 -77q65 -52 97 -154
q13 -41 13 -43zM1561 589q0 23 -11 62q-12 45 -26 52q-42 22 -98 22q-7 0 -11 -3q0 -8 22 -90q26 -9 51 -18q36 -13 38 -30l-56 -126q10 -13 33 -25q15 12 36 37q22 54 22 119zM791 1083v23q-31 16 -30 16q-11 0 -29 -21v-44q20 7 59 26zM977 1111q-24 10 -74 26
q3 -12 3 -34q0 -32 -6 -48q-15 -39 -93 -70q-113 -44 -116 -46q15 -21 8 -42q32 5 83 39l78 54q36 11 93 44q24 26 24 77zM1435 381q-5 0 -12 7q-5 -8 -13 -19q13 0 25 12zM1394 399q-5 5 -10 18h-19q6 -6 29 -18zM706 1049q-24 8 -43 8t-58 -13q75 5 101 5zM1329 340
q-22 11 -69 28q-10 -28 -32 -28h101zM1796 680v18q-50 118 -116 151q-64 22 -191 68q-54 21 -54 59q0 12 10 19q-66 -4 -197 -132t-190 -128q-31 0 -48 25q-58 -62 -116 -123q-81 -78 -140 -78q-25 0 -35 45q-110 -151 -152 -151q-73 0 -73 88q0 63 66 63q19 0 32 -20
q148 146 172 146q25 0 44 -55q62 62 124 125q90 86 138 86q25 0 24 -45q37 22 94 141q50 105 91 105q6 0 16 -2t14 -2q-3 27 -77 98.5t-74 89.5q0 15 20 38h-196v26q29 11 65 43q41 37 41 61q0 14 -8 20q-54 -69 -56 -71q-40 -44 -72 -44q-6 0 -37 35q-5 -3 -64 -50
q-52 -41 -58 -41h-18q-10 25 -10 40q-66 -40 -135 -109q-60 -60 -120 -121q-12 -11 -28 -11q-12 0 -32 10v-82q0 -7 9 -23q12 -20 13 -23q12 71 72 71q7 0 14 -2q32 49 110 49q13 0 27 -4q2 25 21.5 44.5t44.5 19.5q60 0 60 -55q0 -41 -73 -64q-54 -17 -107 -18q7 -11 7 -23
q0 -50 -68 -42q7 -6 22 -18h58q0 13 -1 17q17 28 123 68q93 35 93 79q0 10 -2 28.5t-2 28.5q0 17 8 25q39 -10 79 -19q50 -13 50 -52q0 -11 -40 -100q-38 1 -138.5 -67.5t-138.5 -68.5q-5 0 -9 2.5t-9 2.5q-8 0 -31 -22q-29 -27 -31 -28q-29 -20 -129 -46q-96 -25 -136 -25
q-33 0 -33 38q0 31 37 48l62 26q1 9 7 32q5 20 5 32q0 34 -64 75q0 -14 -16 -14q-9 0 -25.5 7.5t-25.5 7.5q-33 0 -91.5 -66t-58.5 -100q43 15 52 15q43 0 43 -51q0 -31 -52 -80q-66 -64 -73 -74q9 1 14 1q56 0 81 -16v-14q-40 -65 -40 -118q0 -32 12 -83q14 -56 30 -76
q11 -14 78 -51v-13q-25 -14 -51 -27q-34 -21 -34 -40q0 -13 12 -22q29 30 43 30q40 0 40 -35q0 -15 -15.5 -21t-29.5 -11v-31l13 -18q-2 40 55 40q33 0 33 -25q0 -10 -26 -48q30 -30 54 -37q46 81 71 94q13 7 83 14q57 6 69 31q-90 75 -90 85q0 9 8 12q17 -1 67 -9
q43 -6 68 -6q108 0 177 47q21 27 71 72q47 14 135 54q18 11 25 34q10 35 13 41q9 16 107 55t123 39q45 0 51 -57q-62 -27 -169 -61q-8 -24 -28 -71q32 -33 60 -32q-3 10 -3 17q0 23 24 23q9 0 41.5 -20t45.5 -20q5 0 14 1h14q-25 23 -25 39q0 13 14 26.5t27 13.5q8 0 31 -20
t29 -20q-1 0 20 12q-11 12 -11 30q0 24 19 64q23 51 27 64l-44 10q-27 8 -35 25q-32 62 -32 136q0 11 16 11t79 -19t78 -28t28 -57q11 -42 11 -67q0 -91 -27 -136.5t-86.5 -88.5t-110.5 -55q-30 -7 -81 -7q-13 0 -238 13q27 -8 25 -34q-61 -34 -147 -51l-154 -24l10 -20
q-206 -99 -206 -208q0 -6 1 -17q39 55 53 55q23 0 29 -50q1 -35 3 -69q4 -27 15 -41q42 -54 139 -95q-17 11 -17 28q0 26 25 26q14 0 40 -8t40 -8q17 0 38 16q26 20 34 23q36 15 96 12q15 62 162 102q-2 6 -2 11q0 38 49 65q43 24 84 24q14 0 35 -19v-10v-20q1 -55 -59 -84
q-24 -12 -107 -33h47q63 0 127.5 57.5l64.5 57.5q19 0 29 -30q6 7 19 22q-2 3 -47 54q-39 43 -39 49q0 22 50 33q-5 0 -17 3.5t-18 3.5q-41 0 -120.5 -35t-83.5 -35q-20 0 -21 18q-2 30 -3 32q-29 -12 -85 -95q-51 -76 -87 -76q-33 0 -39 30q-96 -95 -157 -95q-93 0 -93 88
q0 51 107 122q102 67 157 67q14 0 68 -26l169 76q6 -2 35 -14q26 -11 32 -11q8 0 64.5 30t64.5 30q37 0 31 -40q43 17 128 122q81 99 95 99q43 0 43 -51q0 -7 -2 -14q13 15 34 90q-50 194 -50 196q0 13 13 29.5t25 16.5q9 0 21 -15zM1454 216q-108 -54 -137 -54q-9 0 -16 4
q-7 -21 -39 -54q78 42 172 55q7 16 20 49zM1324 550q-2 10 -12 19q-77 -20 -207 -87q-3 -52 -38 -78q-21 -15 -76.5 -31t-77.5 -33q-2 -2 -45 -50q-33 -36 -49 -35q63 12 189 35q-17 -1 -51 11v18q36 34 106 34q23 0 68.5 -4t67.5 -4q-20 6 -43 26.5t-23 39.5q0 63 39 91
q18 13 72 27q67 16 80 21zM1062 855q-47 -19 -84 -52l-100 -104q-77 -80 -101 -80q-3 0 -7 3l1 1q0 5 1 17.5t1 18.5q0 37 -20 36l-170 -156q-11 11 -30 35q-28 -4 -28 -38q0 -52 42 -52q7 0 82 83t82 83q23 0 21 -60q54 -1 150 96q69 73 138 145l16 -10q3 11 6 34z
M1278 170v9h-23v-9h23zM643 894q-34 0 -45.5 3t-42 29.5t-30.5 36.5v15q6 9 15 9q5 0 14 -5t14 -5h47q-8 21 -17 65q-11 -40 -26 -40q-5 0 -16 2.5t-16 2.5q-26 0 -32.5 -40.5t-30.5 -40.5q-12 0 -21 10q0 -27 -12 -59q20 -9 20 -18q-12 -12 -64 -36q-46 -20 -56 -42h49
q25 0 99 24q71 22 97 37q17 19 54 52zM1370 3q0 16 -7 23h-35q-15 0 -64 -49q41 14 45 14q18 0 16 -17q-28 -28 -53 -37l62 20q36 17 36 46zM1263 -71v8l-28 -5v-9zM1233 -82v9h-13v-9h13zM1213 -87v9h-14v-9h14zM1203 150q-101 -44 -110 -44t-35.5 12.5t-34.5 12.5
q-38 0 -133 -61q-99 -63 -99 -97q0 -58 66 -58q46 0 105.5 60.5t98.5 65.5l2 -3v-19q-13 -24 -11 -38q31 15 74 80q46 69 77 89zM320 108l-6 5l-22 -23l5 -5zM706 1225q0 -12 -52 -52q-8 1 -24 17q19 37 53 63q23 -11 23 -28z" />
  </g>

</svg>
