<?xml version="1.0" standalone="no"?>
<!DOCTYPE svg PUBLIC "-//W3C//DTD SVG 1.1//EN" "http://www.w3.org/Graphics/SVG/1.1/DTD/svg11.dtd" >
<svg viewBox="0 -442 2048 2048">
  <g transform="matrix(1 0 0 -1 0 1606)">
   <path fill="currentColor"
d="M1990 3q0 -40 -27 -80q-30 -44 -69 -44q-86 0 -127 70q-34 -35 -88 -49l-42 -3q-13 -34 -47 -98q-83 -121 -109 -121q-15 0 -16 18q1 -22 1 28q0 4 -1 8q-8 0 -25 -4t-25 -4q-25 0 -25 20q0 5 30 70q34 73 36 79v10h-4q-9 -17 -29 -50q-13 -17 -56 -58q-48 -47 -58 -47
q-5 0 -14.5 15.5t-12.5 15.5q-5 0 -7 -4t-7 -4h-28v30q56 55 81 126q-11 7 -37 41q-71 -98 -235 -117q-24 -41 -75 -122q-18 -19 -53 -58h-33q1 6 1 14q0 6 -1 18t-1 18q1 0 1 1q0 2 -7 2q-6 0 -29 -13.5t-29 -13.5q-17 0 -17 25q0 5 26 77q29 77 32 89l-20 3
q-3 -9 -9 -25.5t-53 -73.5q-48 -60 -58 -60q-16 0 -16 41q0 8 -2 13q-12 -9 -37 -26h-14q-4 22 -4 19q0 4 69 92q6 13 20 37q-39 21 -65 72q-37 -16 -49 -16q-59 0 -100 55q-100 134 -100 346v14q0 94 16 136q-7 0 -20.5 -4.5t-20.5 -4.5q-24 0 -65 47q-27 -66 -124 -66
q-42 0 -79 30.5t-37 70.5q0 9 2 18q13 16 17 16q10 0 29.5 -2.5t30.5 -2.5h8q-58 52 -58 133q0 23 31 59q-74 20 -74 134q0 33 19 62q26 37 26.5 39t0.5 25q0 45 55 82q11 2 29 16q4 21 14 58q34 96 109 139q13 4 38 14q28 14 60 14q76 0 121 -20q12 -5 104 -64
q34 -12 100 -37q35 -15 94 -68q78 -71 92 -81q89 -67 275 -189q33 -9 92 -26q110 -32 205 -44q35 0 105 -6q133 -24 213 -86q137 -106 137 -327q0 -86 -25 -192q-10 -43 -10 -34q0 -1 23 -60.5t26 -74.5q5 -25 5 -80zM1936 76q1 26 -30.5 85t-31.5 63q0 14 17 82
q19 74 22 93q1 8 1 20v31q-1 20 -1 31q0 58 -30.5 120t-40.5 78q-28 45 -58 62q-85 48 -156 58q-21 0 -65 2h-12q-198 6 -328 66q-93 42 -286 189q-75 72 -239 195q44 -73 54 -103q15 -43 15 -119q0 -141 -40 -183q-92 -96 -206 -96q-65 0 -104 25q-21 14 -78 77q1 -6 1 -13
q0 -54 -39 -54q-45 0 -45 108q0 28 43 28q10 0 25 -28q0 5 -3 14.5t-3 14.5v121q0 -7 6 22q30 142 111 142q64 0 90 -9q47 -17 82 -89q32 -64 32 -121q0 -45 -32 -111q-34 -69 -134 -69q-3 0 -46 11q40 -35 111 -35q77 0 156 110q7 7 17 24q10 31 10 97q0 128 -66 223
q-74 108 -196 108q-42 0 -91 -22.5t-72 -55.5q-51 -73 -51 -117q0 -55 54 -94v-7q0 -29 -28 -55q-26 -22 -57 -29v-55q0 -44 14 -147q16 -110 29 -144q3 -8 33.5 -22t41.5 -14q26 0 54 51.5t38 52.5q10 -7 10 -14q0 -5 -29 -54t-29 -54q0 -17 29 -17q35 0 53.5 46.5
t33.5 46.5q10 0 16 -10q-35 -148 -35 -240q0 -136 24 -202q20 -55 54 -102q46 -62 88 -62q38 0 46 35h14q10 -11 12 -30.5t7 -26.5q26 -36 59 -36q6 0 20 8t20 8q11 0 48 -46h14q3 158 31 158q31 0 31 -35q0 -66 -24 -164q-14 -40 -37 -122q11 11 24 11q12 0 16.5 -13
t7.5 -25q79 110 108 187q5 27 9 54q7 34 29 41q11 -8 11 -28q0 -14 -6 -42t-6 -42q21 2 61 13q49 22 93 50q2 1 34 27q28 22 32 22q1 0 41 -38.5t51 -38.5h86q4 30 9 90q6 10 18 10t20 -10q1 -13 1 -26q0 -119 -51 -222q4 1 7 1q14 0 27 -44q41 45 56 66q25 35 40 78l10 42
q8 25 25 33q23 3 69 14q82 26 134 116q6 10 13 10q6 0 9 -6q-1 -10 -5 -30q-2 -7 -19.5 -39t-17.5 -37q0 -51 60 -51q4 0 14 1h14q31 44 32 106v21zM601 994q0 167 -163 167q-12 0 -56 -36q-29 -86 -29 -107v-86q4 0 13 -2t14 -2q45 0 72 32q1 7 1 28q1 37 33 37
q37 0 37 -37q0 -54 -57 -79q-17 -7 -62 -9q-41 -1 -51 -8v-13q37 -36 118 -36q51 0 85 28q45 37 45 123zM264 1046q-17 27 -44 83q-61 -49 -61 -60q0 -19 13.5 -39.5t31.5 -20.5q39 0 60 37zM325 821v37h-18q0 -6 -2.5 -19t-2.5 -19q0 -4 1 -8h14zM182 831v150
q-20 20 -37 32q-28 -85 -28 -71q0 -68 65 -111zM225 625q-15 44 -40 175q-22 -42 -22 -62q0 -79 62 -113zM283 551q-4 2 -35 19q-26 14 -31 14q-7 0 -20 -4t-20 -4q-17 0 -52 7q4 -14 36.5 -35.5t48.5 -21.5q11 0 39 9t34 16zM368 692q0 -37 -24 -54h-18v44q0 12 25 37
q17 -10 17 -27z" />
  </g>

</svg>
