<?xml version="1.0" standalone="no"?>
<!DOCTYPE svg PUBLIC "-//W3C//DTD SVG 1.1//EN" "http://www.w3.org/Graphics/SVG/1.1/DTD/svg11.dtd" >
<svg viewBox="0 -442 2048 2048">
  <g transform="matrix(1 0 0 -1 0 1606)">
   <path fill="currentColor"
d="M2020 322q-32 -10 -54 -10q-39 0 -66 10q-7 2 -33 20q-23 15 -30 15q-8 0 -377 -61q-4 -2 -14 -11.5t-16 -9.5t-24 7t-32 7q-49 0 -147.5 -9t-147.5 -9q-53 0 -355 34q-53 4 -159 14q-74 9 -234 41q-59 11 -175 39q-63 19 -63 50q0 14 16 24q-27 9 -27 34q0 24 24 43
q23 13 45 26q61 37 215 71q144 32 227 32q73 0 209 -21q462 -72 826 -141q173 -33 181 -33q10 0 32 18q29 25 31 26q47 29 125 29q4 0 5 -12q0 -5 -27 -47t-27 -71q0 -19 29 -54q22 -26 43 -51zM1970 340q-49 59 -49 85q0 -4 31 99q-22 -2 -62 -15q-6 -4 -33 -30
q-22 -22 -36 -22q-5 0 -107 19l-198 37q-334 62 -569 99q-257 40 -350 40q-181 0 -409 -88q-11 -4 -79 -44v-17l6 -5q81 -4 191 -25q21 -12 21 -39q0 -13 -7 -18l-197 30q32 -22 123 -41q66 -14 133 -27q37 -12 114 -29q112 -9 336 -30q45 -5 186 -15q86 -6 82 -6h13l282 18
q6 0 16 -6.5t16 -6.5q5 0 18.5 9.5t17 11t57.5 7.5q84 9 138 18q10 2 94 21q62 14 92 14q4 0 38.5 -22.5t66.5 -22.5q3 0 24 1zM290 447v7l-71 9v-7zM326 543q0 -10 -4 -18h-2q-13 0 -20 15v30h17q9 -14 9 -27zM324 546l-6 2l-6 -12l6 -2z" />
  </g>

</svg>
