<?xml version="1.0" standalone="no"?>
<!DOCTYPE svg PUBLIC "-//W3C//DTD SVG 1.1//EN" "http://www.w3.org/Graphics/SVG/1.1/DTD/svg11.dtd" >
<svg viewBox="0 -442 2048 2048">
  <g transform="matrix(1 0 0 -1 0 1606)">
   <path fill="currentColor"
d="M1739 1106q0 -84 -89 -130q-214 -111 -214 -321q0 -11 37.5 -103t37.5 -133q0 -9 -1 -27.5t-1 -27.5q0 -46 48 -152t48 -145q0 -67 -96 -67q-129 0 -129 77q0 11 2 23q-18 4 -77 65q-56 56 -87 56q-53 0 -76 -40q-17 -43 -34 -85q9 -43 9 -78q0 -63 -44 -82
q-25 -11 -98 -11q-74 0 -74 58q0 16 4 36q-22 10 -45 19q-17 10 -17 49q0 43 47 80q-4 17 -31 47.5t-42 30.5q-54 0 -219 -164q-200 -198 -222 -213q-28 -19 -89 -19q-142 0 -142 76q0 54 48 79q34 11 98 49q56 49 119 142q72 106 72 163q0 189 -64 189q-8 0 -61 -26
t-67 -26q-62 0 -114 54q0 33 -4 100q-2 16 -12 56q-9 36 -9 57q0 -17 23 89q-28 18 -58 56q-34 43 -34 70q22 5 54 5t94.5 -8t94.5 -8q23 0 68.5 2t68.5 2q27 0 99 -52q82 -60 100 -67q15 -3 46 -10q59 -18 117 -36q65 -19 124 -19q27 0 79.5 2.5t79.5 2.5t145 -35
q8 11 37 84q45 110 102 147q33 14 99 44q42 21 109 78q-2 4 -31 25q-21 15 -21 76q20 12 52 12q49 0 93 -33q47 -36 47 -83zM1698 1117q0 16 -22 45t-38 34q-17 1 -48 8q-14 -12 -14 -26q0 -7 23 -36q26 -33 29 -39q-92 -74 -167 -113q-129 -68 -139 -166q-13 -127 -50 -127
q-42 0 -109.5 18t-112.5 18q-19 0 -57 -3t-57 -3q-53 0 -104.5 18.5t-101.5 37.5q-38 3 -110 21q-20 8 -90 64q-58 46 -94 46q-16 0 -46.5 -3t-46.5 -3q-70 0 -151 10q40 -52 40 -65q0 -16 -11.5 -44.5t-11.5 -43.5q0 -31 9 -90q9 -62 10 -91q37 -25 59 -25q10 0 55 23
t76 23q117 0 117 -233q0 -48 -8 -71q-30 -87 -95 -177q-69 -97 -141 -142q-32 -11 -87 -47v-21q10 -1 37 -4q23 -3 36 -3q47 0 59 8q17 11 96 86q70 69 141 139q97 93 146 120q77 43 101 43q37 0 85.5 -53t48.5 -90q0 -23 -24 -40.5t-28 -36.5q54 -15 62 -82q1 -7 3 -18
q11 -2 26 -2q11 0 32.5 1.5t31.5 1.5q0 7 2.5 21t2.5 22q0 12 -7.5 36t-7.5 36q0 27 29.5 84t50.5 72q34 24 84 24q59 0 97 -39q55 -58 77 -69q12 -2 35 -10q33 -18 33 -57q0 -19 -11 -32q20 -12 54 -12h56q-28 67 -57 134q-35 91 -40 135q-2 18 -2 70t-37.5 145t-37.5 105
q0 121 54 202q16 25 150 134q116 96 116 132zM336 686q-17 -23 -32 -23q-17 0 -17 19q0 8 5.5 24t5.5 24q0 16 -24 16q2 7 5 21h33q9 -13 24 -39h-24q-10 -21 -10 -33q0 -5 16 -20q7 0 18 11zM281 705h-10v16h10v-16z" />
  </g>

</svg>
