<?xml version="1.0" standalone="no"?>
<!DOCTYPE svg PUBLIC "-//W3C//DTD SVG 1.1//EN" "http://www.w3.org/Graphics/SVG/1.1/DTD/svg11.dtd" >
<svg viewBox="0 -442 2048 2048">
  <g transform="matrix(1 0 0 -1 0 1606)">
   <path fill="currentColor"
d="M1949 199q-12 -5 -13 -5q-8 0 -27 22q-90 105 -138 280q-34 153 -69 307q-3 -9 -3 -22q0 -111 15 -168q9 -20 28 -61q36 -80 42 -186q2 -32 2 -74q0 -38 20.5 -109.5t20.5 -109.5q0 -14 -11 -61q-12 -50 -18 -55q-12 -9 -42 -9q-42 0 -68 5q-6 3 -6 13t20 57t20 77
q0 146 -46 257q-43 103 -145 218q-7 -20 -7 -35q0 -10 20 -50t20 -66q0 -29 -16 -73q-20 -54 -23 -72q-4 -73 -20 -219q-12 -32 -31 -97q-16 -15 -70 -15q-31 0 -63 5q-5 12 -5 13q0 4 21 34q24 34 26 39q58 115 58 314q0 44 -35 90l-64 76q-22 36 -66 109
q-161 -74 -262 -87q-13 -2 -95 -2q-52 0 -76 -9q-13 -5 -48 -68q-82 -148 -82 -181q0 -97 45 -150q2 -3 40 -32q29 -22 29 -37q0 -105 -41 -105q-29 0 -78 71q-39 59 -55 101q-31 83 -37 280q0 29 -5 84q-1 3 -5 8q-152 -160 -212 -302q-10 -46 -42 -130q-10 -9 -28 -28
q-8 -24 -32 -60q-9 -7 -50 -7q-64 0 -64 18l73 118q85 139 135 248q73 159 73 257q0 19 -11 55t-11 55q0 22 6 66.5t6 66.5v47q0 188 -71 249q-123 -71 -189 -174q-11 -6 -19 -6q-33 0 -58 29t-30 63l114 272q-15 14 -44 41q9 20 22 20q5 0 14 -2.5t13 -2.5q0 18 -14 38
l5 24h14q5 0 51.5 -20t59.5 -23q42 -9 129 -12t130 -12q108 -24 241 -180q123 -143 219 -143q4 0 119 13l247 27q42 3 191 -70q15 -7 150 -39q104 -24 126 -64q61 -110 66 -479q-1 -38 1 -113q2 -13 6 -38q7 -46 7 -104zM1529 430q0 17 -20 62t-20 78q0 18 3 47
q-10 12 -57 23q-41 10 -64 10q-40 0 -53 -20q30 -57 70 -107q59 -75 63 -81q25 -41 25 -99q0 -189 -79 -355h48q10 26 25 81q3 59 16 175q3 16 25 95q18 64 18 91zM1904 286l-3 217q-1 42 -20 267q-12 134 -69 167q-33 19 -101 32q-79 14 -105 24q-52 24 -104 49
q-67 31 -108 29l-10 -1l-338 -35q-11 -1 -23 -1q-101 0 -209 123q-134 153 -185 179q-34 17 -216 38q-18 2 -82 15q-50 10 -82 10q12 -12 13 -23q-14 -15 -31 -17q1 -4 1 -10q0 -40 -57.5 -150t-57.5 -133q0 -38 51 -52q26 38 98 104q81 75 110 75q33 0 64 -60
q25 -49 31 -91q14 -102 14 -140q0 -26 -8.5 -79.5t-8.5 -80.5q0 -92 105 -161q18 -9 49 -29q26 -22 26 -59v-139q0 -216 134 -349q10 30 10 46q0 -5 -54.5 66t-54.5 156q0 48 39 133q34 73 71 122q13 13 37 39q20 24 33 64l22 68q3 8 12 8q10 0 14 -8q-13 -45 -48 -132h58
q81 0 181 31q50 23 153 59q39 5 116 20q-35 47 -35 106q0 12 15 20q11 -13 24 -68q12 -48 37 -62q50 -13 113 -38q109 -94 172 -241q60 -141 60 -290q0 -43 -26 -116h42q6 45 19 87q-17 62 -40 187v154q0 41 -54 145q-27 52 -32 135q-1 10 -1 140q0 16 -11.5 45.5
t-11.5 45.5q0 12 16 12q62 0 117 -296q11 -62 40 -185q26 -91 89 -172zM591 538q-52 37 -96 81q-1 -133 -97 -317q-85 -146 -171 -292h42q7 19 24 53q10 8 28 27q13 43 38 118q58 145 232 330zM292 1226q0 -33 -24 -33q-28 0 -28 52v10q0 17 5 26h24q23 -19 23 -55z
M283 1217v6q0 13 -5 18q-12 0 -12 -21q0 -7 7 -7q6 0 10 4zM254 1249h-6l-5 -14l6 -3z" />
  </g>

</svg>
