<?xml version="1.0" standalone="no"?>
<!DOCTYPE svg PUBLIC "-//W3C//DTD SVG 1.1//EN" "http://www.w3.org/Graphics/SVG/1.1/DTD/svg11.dtd" >
<svg viewBox="0 -442 2048 2048">
  <g transform="matrix(1 0 0 -1 0 1606)">
   <path fill="currentColor"
d="M1959 -245q0 -94 -327 -94h-791q-18 0 -51 6.5t-48 7.5q-72 3 -144 7q-84 6 -142 25q-24 8 -80 44q-132 86 -183 202q-43 99 -43 270q0 75 9 114q22 50 62 152q32 90 32 135q0 6 -8 20t-8 24q0 35 2 40.5t28 28.5v6q0 7 -2 19.5t-2 19.5q0 17 16 42t16 30q0 191 -94 381
q-4 -2 -10 -2q-23 0 -57 32q-31 29 -40 53q-12 33 -12 78q0 42 44 74q41 30 84 30h26q25 0 54.5 -34.5t29.5 -59.5q0 -15 -3.5 -44t-3.5 -44q0 -26 21 -67q30 -59 32 -65q23 -76 72 -228h22q31 81 31 190v46q0 59 -46.5 105t-46.5 96q0 142 133 142q26 0 42.5 -8t34.5 -17
q23 -30 23 -78v-36q0 -23 -16 -53.5t-16 -37.5q0 -22 13 -64.5t14 -62t1 -42.5q0 -71 -3 -94q-2 -18 -17 -75q-12 -47 -12 -75q0 -8 12 -42q12 -38 14 -47q2 -38 11 -113q13 38 48 110q16 16 48 49q111 115 280 178q57 21 177 21q208 0 376 -98q20 -10 58 -33
q80 -63 124 -176q40 -103 40 -214q0 -84 -17 -155q-18 -75 -72 -175q-61 -112 -114 -145q-22 -7 -60 -19v-4q48 -10 140 -41q33 -16 86 -79q56 -67 86 -86q35 -17 70 -33q57 -28 57 -37zM565 1386l-5 25q-8 -8 -22 -25q2 -1 6 -2h5q2 0 16 2zM533 1423l-14 -13q4 -4 11 -6
q1 6 3 19zM1700 454q0 148 -25 226q-34 111 -133 184q-26 22 -84 59q-107 49 -287 49q-198 0 -347 -133q-101 -90 -121 -133q-73 -154 -73 -339q0 -63 18 -135q22 -87 55.5 -120t152.5 -73q108 -36 152 -36q13 0 39 3t39 3q-32 9 -92 37q-178 121 -178 342q0 196 65 271
q45 52 88 91q55 50 110 62q28 6 127 6q144 0 207 -106q12 -20 36 -95q22 -69 22 -132q0 -13 -14 -59.5t-21 -57.5q-20 -30 -67 -73q-54 -50 -79 -50h-14q-57 0 -80 10q-106 46 -106 152q0 49 22 84q27 41 73 41q61 0 61 -75v-10q-23 -22 -45 -22t-27 10v15l2 3h32v33l-29 4
q-35 -17 -35 -73v-19q0 -35 43 -64q39 -26 76 -26q21 0 115 85q24 80 24 96q0 103 -50 172q-55 77 -154 77h-20q-43 0 -56 -2q-78 -12 -150.5 -101t-72.5 -169q0 -12 -5 -35.5t-5 -35.5q0 -61 54 -171q56 -113 106 -140q23 -12 100 -35t99 -23q147 0 268 85q80 57 135 187
q49 117 49 156zM1881 -237h-5q-56 0 -105 39q-21 17 -69 78q-45 56 -65 68q-68 41 -161 41q-10 0 -22 -1l-419 -34q-12 -1 -30 -1q-77 0 -133 17q-28 9 -122 51q-59 26 -66 30q-40 22 -54 46q-65 110 -65 337q0 51 21 171q9 51 9 55q0 29 -12.5 98.5t-22.5 92.5q-2 4 -14 21
q-11 14 -11 18q0 6 11.5 26.5t13.5 24.5q7 18 23 93t16 92q0 23 -21 100.5t-21 106.5q0 -2 7 25q-15 -11 -22 -11q-10 0 -38 25q0 5 -1 16v17q0 42 50 42q8 0 30 -24v37q-27 31 -52 31q-37 0 -62.5 -28.5t-25.5 -66.5q0 -40 33 -61q37 -24 42 -47q17 -80 17 -177
q0 -102 -49 -198q-26 19 -33 19t-26 -9.5t-26 -9.5q-6 0 -6 18q0 81 -56 224q-2 6 -37 83q-30 69 -30 73q0 7 4 21.5t4 21.5q0 18 -18 23q-4 -19 -9 -39q-8 -18 -32 -18q-37 0 -37 46q0 39 24 46q5 2 56 1q-27 37 -52 37q-81 0 -81 -78q0 -72 85 -91q23 -30 62 -93
q5 -23 18 -68q41 -124 41 -142q0 -84 -13 -147q-1 -6 -9.5 -28t-8.5 -27q0 -80 112 -80q52 0 91 23q1 -28 -26.5 -46.5t-56.5 -18.5t-76.5 21t-65.5 21q-8 -13 -8 -23q0 -7 11.5 -25.5t11.5 -23.5q0 -15 -34 -124q-39 -126 -42 -140q-8 -33 -8 -102q0 -219 93 -345
q24 -32 102 -90q45 -33 76 -43q57 -18 188 -18q39 0 64 -2q12 -1 42 -8q27 -7 42 -7q57 0 171 1.5t171 1.5q90 0 270.5 -5.5t270.5 -5.5q116 0 172 12q5 5 4 14zM253 1371l-5 17q-7 0 -18 -12v-17q11 0 23 12zM222 1386v14q-6 0 -14 -9v-13q6 0 14 8z" />
  </g>

</svg>
