<?xml version="1.0" standalone="no"?>
<!DOCTYPE svg PUBLIC "-//W3C//DTD SVG 1.1//EN" "http://www.w3.org/Graphics/SVG/1.1/DTD/svg11.dtd" >
<svg viewBox="0 -442 2067 2048">
  <g transform="matrix(1 0 0 -1 0 1606)">
   <path fill="currentColor"
d="M2067 700q0 -14 -45 -48q-41 -31 -60 -38q-27 -10 -47 -10q-33 0 -138 52q-18 10 -43 20l-6 -4q-31 -85 -63 -171q-37 -102 -37 -177q0 -18 22.5 -65.5t22.5 -67.5q0 -29 -26.5 -92t-26.5 -92q0 -18 18 -54q-42 -34 -129 -33q-2 9 -2 20q0 30 14 87.5t14 87.5
q0 68 -20 109q-3 -19 -13 -57q-2 -4 -49 -94q-33 -62 -32 -98l-17 -13q-67 -19 -96 -19q-6 4 -6 15q0 10 36 90.5t36 120.5v110q-32 17 -61 17q-243 0 -379 -38q-15 -4 -32 -48q-15 -39 -15 -59v-122q-11 -20 -67 -20q-39 0 -58 15v5q0 41 22 73t22 33q0 21 -21 85
q-15 2 -27 -65q-10 -54 -10 -84q0 -28 4 -47q-31 -23 -101 -23q-29 0 -46 14v14q0 8 29 37.5t29 39.5q0 68 -40 120q-39 49 -79 97q-7 30 -34 85q-36 45 -180 116l-183 -54q-16 2 -42 10q-23 15 -23 44q0 31 94 176q-28 23 -57 45q-34 28 -37 59q6 6 20 6q25 0 67 -13
q53 -17 66 -19l1 -1q1 3 2 8q0 18 -22 66t-22 66q0 16 24 49t40 45q9 -6 9 -23q0 -10 -3 -29t-3 -29q0 -89 33 -107h54q38 57 38 107q0 2 -22 89h19q21 0 44 -37q22 -33 22 -56q0 -21 -15 -59t-15 -59q0 -6 1 -12q7 34 54 44l76 10l9 -27q118 98 189 98q40 0 104 -24
q75 -28 104 -33q122 -19 279 -19q42 0 120 22.5t119 22.5q98 0 235.5 -103t216.5 -103q19 0 54 15.5t54 15.5h28zM1485 268q-28 18 -42 18h-46q1 -20 1 -42q0 -143 -62 -268l3 -7q15 3 31 7.5t22 16.5q5 26 23 76q24 46 48 93q11 24 22 106zM1995 670q-59 -12 -71 -12
q-84 0 -225.5 102.5t-233.5 102.5q-35 0 -66 -10q-59 -21 -60 -21q-50 -13 -198 -13q-115 0 -180 14q-21 5 -104 34q-64 23 -107 23q-55 0 -137 -58t-86 -58q-10 0 -10 16q0 7 3 24h-46q-6 0 -24.5 -27t-23.5 -27q-40 0 -40 38q0 23 15.5 64.5t15.5 64.5q0 10 -2 21
q4 -25 -17 -84t-42 -67q-6 -2 -35 -2q-47 0 -63 26q10 -25 10 -40q0 -25 -38 -25q-19 0 -90 12q4 -3 42 -21q25 -11 34 -31l-107 -190q0 -25 42 -25q30 0 88.5 24.5t88.5 24.5q19 0 105 -51q78 -47 103 -69q11 28 21 55q16 36 32 47l12 -7v-17l-54 -112q6 -21 24 -59
q41 -53 83 -106q36 -55 36 -129q0 -15 -45 -74h42q6 0 17.5 4t16.5 5q0 165 41 220q7 5 23.5 18.5t35.5 70.5q17 52 36 61l7 -7v-17q0 -9 -44 -105h15q-13 0 147 20q192 24 316 24q11 0 32.5 -6t32.5 -6h46q-77 63 -77 219q0 6 1 19q1 1 1 2q4 5 13 5q1 0 14 -4
q-1 -26 -1 -41q0 -29 17 -83q3 -22 16 -59q27 -43 76 -63.5t62 -43.5q26 -42 26 -158q0 -80 -21 -156q26 12 61 19q-8 18 -8 38q0 34 26.5 96.5t26.5 90.5q0 11 -22.5 64t-22.5 76q0 76 38 193q35 105 78 183h5q32 0 97.5 -38t94.5 -38q24 0 85 39zM246 848q-13 42 -13 87
q-12 -12 -12 -23t25 -64zM258 824v12h-8v-12h8zM886 254q-59 -5 -79 -4q30 -80 30 -131q0 2 -44 -82q11 0 32.5 2t29.5 2q0 1 6 108q3 63 25 105zM301 654q-4 0 -13 -2.5t-13 -2.5l-14 28l5 38h20q5 -7 15 -19v-42zM291 662v22q-5 -6 -12 -15q5 -5 12 -7zM276 691l-7 3
l-5 -12l6 -2z" />
  </g>

</svg>
