<?xml version="1.0" standalone="no"?>
<!DOCTYPE svg PUBLIC "-//W3C//DTD SVG 1.1//EN" "http://www.w3.org/Graphics/SVG/1.1/DTD/svg11.dtd" >
<svg viewBox="0 -442 2048 2048">
  <g transform="matrix(1 0 0 -1 0 1606)">
   <path fill="currentColor"
d="M1948 86q0 -122 -70 -243q-2 -3 -28 -31q-85 -91 -176 -136q-43 -21 -194 -21q-142 0 -212 89q-61 78 -84 137q-12 63 -36 178q-10 44 -52 44q-29 0 -54 -71q-15 -36 -42 -109q-51 -148 -215 -215q-22 -12 -68 -32q-79 -24 -179 -24q-107 0 -254 81q-79 43 -167 231
q-9 20 -15 53q-5 29 -5 139q0 103 1 112q4 14 13 42q92 300 422 543q3 2 53 62v36q-20 0 -61 -6t-61 -6q-81 0 -173 43q-5 3 -23.5 20t-24.5 17q-12 0 -22 -14t-10 -26q0 -36 43.5 -75.5t43.5 -87.5q0 -43 -31 -68t-75 -25q-27 0 -42 13v17q9 12 19 12q5 0 12.5 -3.5
t12.5 -3.5q18 0 40 15.5t22 33.5q0 56 -31 60q-11 -7 -11 -27q0 -52 -77 -52q-55 0 -55 63l9 9q8 -3 21 -19q10 -12 33 -12q32 0 32 44q0 21 -7.5 62.5t-7.5 62.5q0 25 30 60q-4 14 -16 41q-30 46 -29 75v24q1 58 22 87q3 4 64.5 62.5t114.5 89.5q34 11 99 36q112 49 212 49
q68 0 166 -39q107 -41 141 -91q8 -30 29 -87q37 -83 37 -205q0 -62 -12 -104q-16 -48 -33 -97q-2 -18 -9 -53q-8 -29 -31 -84q-65 -110 -208 -303l-106 -126q-63 -83 -63 -145q0 -40 48 -40q40 0 87 98q5 19 18 56q55 133 114 189q39 37 103 76q76 47 113 47q-13 0 26 -7h54
q70 0 159 -44q111 -55 166 -143q24 -38 38 -148q-1 -37 15 -118l20 -94q18 -67 61 -67q44 0 78 86q28 72 28 126q0 20 -20 108q-3 13 -22 56q-15 33 -15 65q0 21 17.5 43.5t37.5 22.5q24 0 62 -20q45 -24 95 -88q46 -59 67 -112q28 -71 28 -194zM960 1144v55q0 13 -32 130
q-17 -60 -51 -181q34 -16 49 -16q-4 0 34 12zM1796 118v105q0 16 -17.5 50.5t-30.5 40.5l26 -107q-3 -26 -11 -77q17 -9 33 -12zM1789 66q-2 6 -5 17q-9 2 -28 4q-7 -14 -8 -29h32zM1391 369q-33 39 -66 67q-2 -10 -20 -75h65q5 0 11.5 3.5t9.5 4.5zM925 939
q-101 -73 -101 -98q0 -11 20 -27t32 -18q7 17 49 143zM1773 22q-5 0 -15 2.5t-15 2.5q-10 0 -13 -4q-26 -31 -57 -76q0 -21 -5 -63h2q30 -1 75 72q8 23 28 66zM1293 461q-34 47 -154 77q1 -19 -31 -94l19 1q91 2 146 -43zM1448 149q-14 177 -41 177q-12 0 -36 -6t-36 -6v-13
q29 -67 39 -202q24 20 74 50zM1100 541h-28q-9 0 -43 -16t-39 -23q24 -39 67 -47q26 45 43 86zM1625 -83q-20 -4 -36 -4q4 -9 15 -25h18q0 5 1.5 14.5t1.5 14.5zM1462 28q-2 25 -11 75q-18 -12 -36 -25q-24 -17 -24 -32q0 -20 21 -19h6q3 1 2 1q4 0 13.5 3.5t14.5 3.5
q7 0 14 -7zM967 1073v25q-13 -4 -54 -4q-71 0 -71 41t27 114.5t27 110.5q0 23 -28 39q-84 48 -129 57q-14 3 -39 3q-193 0 -299 -67q-38 -33 -114 -97t-76 -87q0 -36 9 -56q22 -50 171 -50q49 0 110 16q55 14 60 14q126 0 169 -39q60 -54 60 -133q0 -49 -47 -166
q-27 -68 -147 -230q-10 -10 -28 -31q-34 -51 -110 -199q45 41 92 51q14 1 35 7q30 38 80 103q-42 43 -42 62q0 83 122 83q14 0 27 -2q75 115 75 114q0 5 -29.5 32t-29.5 35q0 79 103 142q26 10 60 32q16 23 16 80zM1877 144q0 20 -18 101q-8 38 -34 80q-11 18 -51 60
q-44 47 -56 47h-12q12 -37 45 -78q37 -44 44 -61q32 -73 32 -105q0 -247 -147 -338q-43 -27 -133 -27q-19 0 -77 16q-75 21 -112 123q0 1 -10 71q-9 74 -18 147q-14 94 -35 141q-26 58 -101 83q-9 3 -24 3q-89 0 -134 -16q-54 -20 -112 -81q-8 -22 -42 -57q0 -11 -3 -34
q-10 -7 -24 -23q-11 -25 -35 -74q-87 -167 -225 -167q-73 0 -138.5 69t-65.5 143q0 125 17 160q36 71 174 284q53 64 127 182q43 107 43 169q0 108 -100 127q-67 13 -76 13q-34 0 -99 -19t-100 -19q-9 0 -97 11q3 -26 50 -47q41 -18 73 -17h25q62 1 103 7q73 12 56 12
q93 0 93 -102q0 -40 -50 -99q-39 -34 -116 -104q-45 -41 -91 -81q-51 -49 -78 -92q-36 -46 -91 -144q-11 -30 -35 -90q-35 -81 -35 -110v-102q0 -72 64 -191q20 -38 28 -50q20 -30 38 -41q137 -81 256 -81q39 0 75 13.5t72 27.5q106 35 151 100q30 44 75 148q25 62 69 138
q37 25 58 25q52 0 69 -6q14 -5 45 -34.5t36 -42.5q13 -67 51 -197q17 -45 57 -99q51 -70 163 -70t130 6q83 27 160 107q83 85 93 166q3 20 3 119zM1569 -135q-9 22 -32 62q-23 24 -67 74q-48 -16 -75 -16q8 -23 28 -63q41 -60 124 -58zM1024 422q-4 3 -36 33q-28 26 -32 26
q-19 0 -62.5 -49t-43.5 -68q0 -6 7 -27q9 -24 10 -30l52 61q24 23 70 44q12 3 35 10zM748 613q-63 -19 -91 -46q17 -32 37 -36q24 27 54 82zM843 244q-3 16 -21 71q-14 -22 -39 -79q5 0 13 -4t13 -4q10 0 34 16zM813 188q0 5 -49 13q-21 -41 -40 -69q-17 -15 -46 -49
q-4 -24 -43 -82h17q13 6 38 20q21 12 72 79t51 88zM544 341h-14q-47 -34 -47 -45q0 -15 29 -26q6 18 32 71zM627 68q-7 0 -20 2t-19 2q-9 0 -14 -4v-52h3q18 -2 31 18q10 17 19 34zM536 8v93q0 4 -15.5 26t-17.5 31q0 22 -2 65q-20 13 -40.5 27.5t-20.5 41.5
q-13 -52 -13 -93q0 -97 72 -170q13 -6 37 -21zM790 1368q-4 -5 -15 -5q-6 0 -33.5 13t-33.5 13q-5 0 -15.5 -3.5t-16.5 -3.5q-7 0 -19 13q10 29 50 29q61 0 83 -56zM763 1231q0 -35 -23 -59.5t-58 -24.5q-20 0 -28 5q-35 22 -41 50q-2 9 -2 70q0 23 26 43.5t51 20.5
q75 0 75 -105zM396 1208q-31 -19 -40 -19h-35v33q23 6 70 16l5 -5v-25zM680 1291h-21q-13 -12 -13 -17q0 -4 2 -12t2 -12q3 0 9 -1t9 -1l8 2q0 6 2 20t2 21zM744 1229q0 12 -8 20h-17q-2 -7 -13 -24.5t-11 -22.5q0 -22 21 -28q28 24 28 55z" />
  </g>

</svg>
