<?xml version="1.0" standalone="no"?>
<!DOCTYPE svg PUBLIC "-//W3C//DTD SVG 1.1//EN" "http://www.w3.org/Graphics/SVG/1.1/DTD/svg11.dtd" >
<svg viewBox="0 -442 2277 2048">
  <g transform="matrix(1 0 0 -1 0 1606)">
   <path fill="currentColor"
d="M2277 621q0 -93 -49 -128q-40 -30 -137 -30q-82 0 -208 43q-100 39 -201 78l-1 1q-2 -5 -2 -9q0 -10 9.5 -62.5t12.5 -58.5q14 -24 111 -24q28 0 55 -17q0 -41 9 -123q2 -9 17 -54q13 -38 13 -52q0 -43 -41 -53q-13 -3 -77 -3q-62 0 -62 45q0 24 26.5 51t26.5 34
q0 45 -19 77q-50 0 -127 -14q-44 -8 -52 -8q-31 0 -106 53q-16 -11 -16 -30q0 -12 8 -34.5t9 -33.5q-25 -35 -150.5 -95.5t-170.5 -60.5q-137 0 -137 53q0 28 34 56.5t63 28.5q10 0 31 -10.5t30 -10.5q10 0 63.5 21t59.5 27q9 10 9 22q0 22 -8 55q-10 45 -12 55l-158 -23
q-62 -9 -80 -9q-19 0 -29 5q-30 -41 -63 -128q-34 -93 -59 -130.5t-117 -37.5q-22 0 -42 12q-24 13 -24 33q0 18 69.5 81t68.5 92q-32 9 -61 9q-6 0 -91.5 -51t-97.5 -61q-13 -16 -43 -44q-50 -39 -94 -39q-9 0 -25 8t-25 8q-4 0 -9 -3t-9 -3q-21 0 -40 19t-19 40
q0 49 140 64q120 75 120 113q0 17 -72 41q-47 16 -99 74q-63 70 -88 87q-31 9 -89 35q-9 6 -52 53q-41 44 -47 44q-4 0 -11.5 -2t-11.5 -2q-8 0 -14 3q44 12 44 19q0 30 -70 48l-8 6q28 -10 55 -10q13 0 13 8q0 32 -22 82q-27 63 -31 81q18 19 61 25q34 5 68 9q9 2 48 18
q34 13 45 13q5 0 42 -12q111 -36 146 -36q7 0 21 3t21 3q33 0 33 -50q0 -22 -9 -37q18 -8 74.5 -8t108.5 -8q26 -4 95 -29q59 -22 96 -22q25 0 223 21q104 11 109 11q141 0 552 -211q120 -62 126 -64q73 -32 137 -32q114 0 114 90q0 23 -24 56.5t-24 54.5q0 42 32 42
q16 0 43.5 -26.5t33.5 -43.5q8 -23 8 -78zM2255 615q0 43 -7 63q-19 52 -55 54l-1 -2q1 -14 24.5 -58t23.5 -53q0 -112 -133 -128q78 7 107 26q41 27 41 98zM1874 167v29q0 -13 -14 47q-3 50 -14 149q-8 12 -30 12q-8 0 -22.5 -2.5t-22.5 -2.5q-73 0 -86 25q-2 4 -19 91
q-30 -39 -167 -129q72 -45 77 -45q28 0 83 13t83 13q64 0 64 -108q0 -18 -26.5 -46.5t-26.5 -38.5q0 -2 6 -18h33q8 0 20.5 8t19.5 8q6 0 17.5 -3.5t17.5 -3.5q1 0 7 2zM2070 494q-131 41 -419 181q-138 67 -198 88q-108 38 -213 38q-1 0 -99 -11q-187 -21 -202 -21
q-52 0 -82 12q-10 7 -32 18q-58 24 -143 30l-78 4q-61 5 -68 19l21 55q0 6 -6 21q-18 -5 -44 -5q-31 0 -90 21t-90 21q-25 0 -70 -18.5t-70.5 -18.5t-62.5 -6q3 -10 34 -71q19 -37 19 -80q0 -6 -4 -12q11 2 20 2q32 0 63 -15q-10 -2 -21 -2q-8 0 -52 6q4 -27 4 -25
q0 -6 -4 -15q27 14 51 14q12 0 22 -5q-8 -4 -10 -9h-43q4 -16 18 -46q54 -69 101 -69q52 0 101 50t55 50q4 0 16 -4q-8 -31 -49 -73q-44 -45 -73 -40q40 -50 113 -119q115 -70 357 -114q-43 75 -89 188l3 4h14q32 -48 63 -96q38 -63 43 -104q9 -8 9 -20q0 -37 -55 -98
q-41 -43 -82 -87q5 -6 6 -13q19 -6 60 -6q26 0 39 8q25 16 51 73q3 18 9 59q5 27 43 78q34 46 34 95q0 48 -14 102q10 14 21 15q32 -70 26 -132q5 -1 21 -4q13 -3 21 -3q32 0 201 44q-15 37 -15 76q0 67 39 108l13 -9v-20q0 11 -14 -37q-7 -24 -7 -66q0 -33 29 -96.5
t29 -96.5q0 -40 -58 -71q-51 -27 -95 -27q-13 0 -36 8t-36 8q-18 0 -71 -38l6 -30q17 0 50 -6t50 -6q40 0 109 28q42 29 132 76q21 6 60 24v19q-16 16 -16 42q0 56 60 93q52 30 103 59q60 48 60 74q0 8 -7.5 23t-8.5 24q7 9 17 9q44 0 115 -30q57 -24 113 -48
q113 -41 183 -44zM748 328q-41 11 -121 39q-3 -38 -66 -90t-102 -52q-5 0 -15.5 2.5t-15.5 2.5q-43 0 -61 -46q21 -23 34 -23q5 0 8 2.5t8 2.5q10 0 26.5 -8t26.5 -8q8 0 32 11t36 12q32 49 98 88q107 63 112 67zM562 771q-70 -27 -147 -27q-16 0 -27 1q91 22 174 26z
M425 809q0 -34 -29 -34t-29 29q0 39 29 39t29 -34zM515 697q-43 5 -127 24q11 1 20 1q71 0 107 -25zM287 797q-12 -12 -29 -12q-4 0 -23 17v35q8 17 26 17q14 0 26 -12v-45zM340 726q-13 -15 -18 -15q-18 0 -18 15h36zM420 797q0 15 -8 15q-1 0 -19 -19q4 -2 10 -2
q11 0 17 6zM390 825l-8 3l-6 -14l7 -3z" />
  </g>

</svg>
