<?xml version="1.0" standalone="no"?>
<!DOCTYPE svg PUBLIC "-//W3C//DTD SVG 1.1//EN" "http://www.w3.org/Graphics/SVG/1.1/DTD/svg11.dtd" >
<svg viewBox="0 -442 2048 2048">
  <g transform="matrix(1 0 0 -1 0 1606)">
   <path fill="currentColor"
d="M1291 129q0 -49 -79.5 -117t-129.5 -68h-179l-31 -14q-11 -5 -65 -16t-67 -11q-97 0 -97 51q0 57 87 118q-67 21 -192 83q-22 -29 -48 -110t-49 -112q-37 -51 -104 -51q-38 0 -75 15q-46 20 -46 52q0 11 33.5 64t33.5 111q0 7 -11 53q-46 192 -46 217q0 37 13 109.5
t13 109.5q0 39 -43 62q-37 19 -74 37q-53 38 -53 117q0 60 62 142.5t120 91.5q30 2 87 19l60 118q62 112 111 112q14 0 31.5 -13t17.5 -27q0 -4 -2 -8l-3 -2q2 0 7 -1q6 0 14.5 5t14.5 5q41 0 41 -82q0 -56 -41.5 -142.5t-41.5 -109.5q0 -76 40 -97q5 -3 138 -36
q50 -16 150 -46q123 -36 225 -163q95 -118 124 -252q5 -47 24 -139q2 -7 16 -37.5t14 -37.5zM1239 129q0 6 -13.5 34t-15.5 36q-9 70 -45 206q-26 62 -53 108q-64 108 -169 165q-70 38 -225 80q-29 9 -88 22q-126 20 -126 141q0 40 51.5 137.5t51.5 125.5q0 6 -34 35
q-36 -63 -108 -190h-3l83 200q-4 18 -29 32q-38 -35 -59 -77q-20 -45 -39 -89q-8 -23 -31 -55q-16 -11 -59 -17q-55 -8 -64 -11q-36 -11 -83.5 -78t-47.5 -105q0 -32 24.5 -66.5t54.5 -45.5q5 -2 49 -2q20 0 35 -41q12 -34 12 -59q0 -37 -15.5 -109.5t-15.5 -109.5
q0 -8 14 -71q43 -194 43 -206q0 -53 -17 -90q-23 -39 -45 -78q35 -17 62 -17q28 0 50 11q32 18 60 104q20 61 40 123q10 15 28 46q14 32 28 147q1 23 12 51q3 1 8 1q2 0 16 -4v-24q0 -15 -31 -177q144 -103 219 -102h12q-16 7 -24 18q-6 8 -24 56.5t-18 57.5q0 36 8 77
q12 59 35 57l3 -4q0 -21 -8 -63t-8 -64q0 -16 15.5 -55t26.5 -49q5 -4 41 -13q30 -7 31 -21q-63 -38 -91 -60q-52 -41 -68 -82q11 0 42 -3q26 -3 42 -3q22 0 64.5 18t64.5 18h174q20 0 48 17q14 9 61.5 58.5t47.5 58.5zM318 869q-14 -15 -20 -15q-15 0 -26 23q17 32 17 35
q0 12 -21 10q2 25 20 25q27 0 30 -41h-21q-9 -18 -9 -29t17 -18z" />
  </g>

</svg>
