<?xml version="1.0" standalone="no"?>
<!DOCTYPE svg PUBLIC "-//W3C//DTD SVG 1.1//EN" "http://www.w3.org/Graphics/SVG/1.1/DTD/svg11.dtd" >
<svg viewBox="0 -442 2106 2048">
  <g transform="matrix(1 0 0 -1 0 1606)">
   <path fill="currentColor"
d="M2106 683q-5 -6 -18 -6q-11 0 -60 22q-84 38 -84 102q0 17 6 49t6 49q0 63 -41 63q-25 0 -38 -38q-7 -30 -15 -59q-13 -36 -45 -92q49 -58 67 -124q10 -40 15 -124t17 -134q9 -36 44 -86q41 -56 51 -81t14 -68q5 -53 8 -68q2 -8 18 -58q13 -42 13 -52q0 -13 -8 -22
q0 -7 2.5 -22t2.5 -23q0 -51 -121 -92q-16 11 -16 21q0 27 23.5 82t23.5 60q0 94 -57 169q-18 24 -58 56l-3 19q-13 9 -131 116q-3 -5 -3 -27q0 -34 32.5 -94t32.5 -75l-8 -64q-3 -23 -3 -122v-41l-16 -19q1 -19 -7 -56q-5 -11 -39 -34t-46 -23h-43q-6 15 -6 16
q0 5 27.5 61.5t31.5 69.5q7 26 7 60q0 134 -125 200q-34 18 -56 51q-77 115 -85 115q-9 0 -66.5 -30t-66.5 -30q-4 0 -10.5 4.5t-10.5 4.5q-5 0 -47 -18q-46 -21 -53 -23q-45 -8 -111 -31l-19 -29t-117 -100q-107 -78 -133 -106q-20 -21 -41 -62q-24 -48 -36 -64
q-14 -10 -39 -33q-2 -2 -10 -30q-6 -22 -30 -34q-40 -20 -115 -20v29q0 31 39 68q94 89 132 186q3 14 13 42q25 30 72 93v6q-130 -63 -162 -81q-88 -51 -138 -114q-71 -90 -174 -89q-6 6 -6 20q0 56 102 142q73 62 147 124q23 26 70 60q57 42 73 57q-16 40 -57 111
q-12 6 -35 23q-22 33 -65 97q-42 -33 -39 -33q-7 0 -20.5 9.5t-19.5 9.5q-4 0 -9.5 -2.5t-11.5 -2.5q-37 0 -77 20v4q0 18 2.5 51.5t2.5 50.5q0 25 -13.5 54.5t-13.5 40.5q0 10 3.5 28t3.5 27q-248 36 -248 321q0 22 15 56h21q14 -14 33 -91q21 -82 48 -119q43 -60 123 -60
q17 0 64 35q16 8 46 28q-8 18 -88 69q-66 43 -66 110q0 11 16 44l19 12l14 -7q5 -27 26 -73q19 -23 61 -41q58 -24 68 -30q6 -4 47 -40q38 -33 43 -33q8 0 50 16q50 19 55 21q10 -9 10 -23q0 -11 -13 -43q14 -3 59 -7q95 -8 219 -81q119 -69 177 -69q184 0 294 19
q38 15 116 39q58 0 173 13q29 6 90 101q58 89 122 89q100 0 120 -119q0 -27 7 -79q3 -12 30 -68q25 -52 25 -58v-39zM1752 148q0 6 -28 59.5t-32 67.5q-1 22 -7 66q-11 -1 -48 -8q-30 -5 -49 -5l-107 12q16 -26 48 -77q16 -25 61 -49q124 -68 124 -211q0 -79 -50 -178
q20 9 58 33q-1 16 3 47q2 8 11 17q6 7 6 31q0 12 -1.5 34.5t-1.5 34.5q0 21 6.5 63t6.5 63zM2073 715q-23 42 -54 128q-2 42 -17 122q-17 53 -73 53q-49 0 -108 -89q-62 -94 -100 -101q-102 -14 -304 -56q-27 -8 -105 -8h-55q-36 0 -54 -2q-9 -1 -37 -6q-23 -4 -37 -4
q-61 0 -123 34q-55 34 -111 66.5t-120 46.5q-43 4 -130 13q-13 6 -13 20q0 7 6 18.5t7 15.5q-63 -23 -78 -23q-19 0 -51 30q-42 39 -48 43q-41 16 -120 52q35 -24 71 -48q50 -38 50 -60q0 -20 -62 -58t-85 -38q-35 0 -81 23t-70 51q-29 34 -51 131v-34q0 -63 62 -131
t126 -81q-5 1 25 1q29 0 29 -36q0 -11 -4 -33t-4 -33q0 -8 13 -22.5t13 -40.5q0 -50 -8 -107q7 0 21 -2.5t22 -2.5q7 0 20 4.5t20 4.5q11 0 26 -19q14 28 39 28q23 0 47 -38l34 -58q17 -11 44 -38l60 -106q38 -56 100 -62q-10 21 -10 50q0 20 32 146q4 0 20 -5
q-1 -7 -14 -68q-9 -41 -9 -68q0 -40 6 -54q1 -3 9 -12.5t8 -14.5q0 -21 -76 -111q-24 -24 -53 -61q-1 -14 -8 -42q-15 -39 -88 -140q-27 -27 -69 -86h17q5 2 31 8q16 3 25 20q2 15 11 37q14 8 40 28q14 31 45 89q31 52 129 124q123 89 146.5 112.5t38 77t28.5 67.5l12 -8
q-6 -42 -19 -75h16q25 0 113 37t106 37q5 0 8.5 -4.5t8.5 -4.5q6 0 55 25.5t57 25.5q28 0 83.5 -14t83.5 -14q27 0 70 14q-105 57 -123 166q-11 69 -12 54q6 4 20 9q9 -43 38 -125q26 -52 93 -79q13 -2 37 -12q100 -65 235 -232q18 -22 38 -88t20 -97q0 -6 -12.5 -27
t-14.5 -28q-2 -18 -8 -54q42 19 61 38v10q0 -15 -3 28l2 5q1 -2 1 43q0 11 -18.5 75.5t-19.5 86.5t-9 62q-8 22 -50 74q-35 45 -40 79q-8 76 -26 229q-8 56 -43 113t-35 66q0 5 21 45.5t24 49.5q8 32 16.5 65.5t34.5 54.5h18q12 1 18 1q31 0 52 -23.5t21 -55.5q0 -18 -9 -52
t-9 -52q0 -64 97 -93zM784 228q-56 26 -84 48q-49 -32 -136 -108q-14 -23 -52 -63q-89 -59 -177 -142l-5 -22h34q19 0 38 28q21 32 43 38q19 26 65 72q81 61 210 116q23 9 64 33zM455 768q0 -19 -16 -35q-11 5 -30 39l5 40h26q15 -22 15 -44zM450 753q0 21 -6 27
q-4 -9 -12 -21q6 -6 18 -6zM424 788h-7l-5 -15l6 -3z" />
  </g>

</svg>
