<?xml version="1.0" standalone="no"?>
<!DOCTYPE svg PUBLIC "-//W3C//DTD SVG 1.1//EN" "http://www.w3.org/Graphics/SVG/1.1/DTD/svg11.dtd" >
<svg viewBox="0 -442 2048 2048">
  <g transform="matrix(1 0 0 -1 0 1606)">
   <path fill="currentColor"
d="M1437 570q0 -107 -111 -138v-13q0 -2 21 -83q39 -150 39 -267q0 -26 -6 -50q-18 -75 -63 -103q-38 -24 -116 -24q-19 0 -19 30q0 13 37 70t37 104q0 51 -58 179q-61 137 -102 137q-15 0 -54.5 -16.5t-62.5 -16.5q-37 0 -117 14.5t-116 14.5q-14 0 -22 -13
q-30 -48 -53 -223q-22 -180 -52 -232q-21 -38 -108 -38q-61 0 -62 30q64 76 75 141q4 20 4 160q0 17 9 50t9 50q0 34 -58 96q-69 73 -80 96q-6 12 -34 104q-16 50 -63 99q-41 -23 -53 -23q-46 0 -54 56q-29 -10 -50 -10q-72 0 -72 74q0 82 75 169q77 91 157 91
q46 0 172 -120.5t144 -120.5q25 0 73 9t73 9q19 0 55.5 -7t55.5 -7q6 0 49 8q160 30 183 30q133 0 225.5 -91.5t92.5 -224.5zM1391 570q0 115 -78.5 192t-193.5 77q-38 0 -113.5 -16t-113.5 -16q-20 0 -59 4.5t-59 4.5q-25 0 -74.5 -9.5t-74.5 -9.5q-49 0 -160.5 121
t-152.5 121q-58 0 -121 -77.5t-63 -136.5q0 -32 24 -32q15 0 43 11.5t43 11.5q17 0 17 -65q56 23 66 23q21 0 58 -53q34 -49 40 -75q10 -46 41 -122l82 -86q46 -49 46 -107q0 -16 -6 -44q-6 -31 -7 -44q-2 -74 -4 -149q-5 -70 -45 -145q39 2 54 20q12 13 20 55
q15 107 31 213q23 139 69 195q12 12 23 24q6 8 10 41q6 11 14 13l13 -8q0 -28 -9 -52q210 -24 229 -24q14 0 86 25q-24 21 -47 68.5t-23 78.5q0 25 17 32q11 -6 11 -43q0 -22 26 -69t45 -58q16 -6 46 -21q47 -33 104.5 -157.5t57.5 -185.5q0 -73 -60 -157h29q24 0 48 52
q20 46 20 75q0 67 -19 161l-34 160q-1 7 -10 34q-7 22 -7 35q0 11 44 22q49 12 61 28q16 21 16 64zM291 907q0 -35 -23 -35q-33 0 -33 62q0 31 21 31q35 0 35 -58zM280 918q-5 -7 -17 -21l12 -11q5 10 5 25v7zM255 931h-7l-5 -15l6 -3z" />
  </g>

</svg>
