<?xml version="1.0" standalone="no"?>
<!DOCTYPE svg PUBLIC "-//W3C//DTD SVG 1.1//EN" "http://www.w3.org/Graphics/SVG/1.1/DTD/svg11.dtd" >
<svg viewBox="0 -442 2048 2048">
  <g transform="matrix(1 0 0 -1 0 1606)">
   <path fill="currentColor"
d="M1959 738q0 -15 -21 -41q-5 -6 -75 -40q-21 -17 -69 -40q-21 -5 -66 -5q-57 0 -112 31q0 -94 -12 -162q-11 -36 -32 -107q-15 -58 -29 -116q-20 -71 -46 -109q-32 -45 -339 -118q-51 -12 -126 -12q-12 0 -36 4q8 -18 22 -55q1 -4 1 -64q0 -6 1 -19t1 -19q0 -25 -32 -88
q-30 -59 -49.5 -80.5t-46.5 -21.5q-53 0 -74 35q-24 40 -24 72q0 27 35 44q9 4 45 6q26 32 26 43q0 19 -24.5 82.5t-37.5 79.5q-4 5 -91.5 47.5t-142.5 82.5q-2 1 -60 60l-5 -7q-5 -30 -39.5 -62.5t-66 -42.5t-26.5 -10q-24 0 -50 39q-16 24 -16 54q0 22 27 39q14 3 42 13
q27 15 45 78q-34 24 -53 56q-33 56 -37 62q-7 -1 -22 -1q-58 0 -153 46q-21 10 -63 51q-46 44 -46 60q0 38 22 65.5t59 27.5q11 0 47 -20q15 -57 32 -71q2 -2 70 -35q0 16 4 48q16 33 33 95q-38 40 -44 57q-20 56 -20 116q0 77 49 140q0 7 -6 13q-31 -6 -72 -50
q-13 8 -74 58v52q1 1 27 26q21 20 26 20q10 0 29.5 -7.5t29.5 -7.5q15 0 27 18q53 79 113 128q22 14 44 27q26 18 26 42q0 12 -6 32.5t-7 28.5q41 48 53 48q40 0 61 -23q20 -26 41 -52q-19 -17 -49 -64l1 -2q18 1 69 20q47 18 80 18q71 0 115 -21q6 -3 32 -23.5t30 -20.5
q5 0 46.5 15.5t50.5 17.5q15 1 44 4q-10 32 -53 84q-5 3 -57 13q-16 60 -16 51q0 82 88 82q22 0 68 -48q43 -44 52 -68q39 -104 40 -167q32 -20 64 -39t56 -56q65 18 76 49q1 10 6 30q3 9 21.5 22.5t27.5 13.5q26 0 48 -13q43 -25 43 -48q0 -28 -30.5 -69.5t-57.5 -55.5
q-12 -4 -34 -14q61 -54 136 -186q16 -44 51 -106q23 -22 82 -33q40 -2 121 -8q2 15 11 44q17 40 43 40q28 0 73 -25q35 -19 35 -78zM810 1242q-38 40 -63 40q-20 0 -70 -24q-54 -25 -54 -41q0 -30 42 -30q69 0 121 28q15 8 24 27zM547 1233v18q-9 12 -17 12q-23 0 -83 -61
t-60 -84q0 -19 19 -19q4 0 30 31q30 36 31 37q47 45 80 66zM1521 633q0 89 -16 164t-101 191q-81 109 -150 159q-85 62 -171 99q-30 13 -51 13q-47 0 -88 -24q-32 -18 -54 -56q-18 -35 -36 -69q-61 -100 -242 -261q-38 -34 -75 -57q-35 -18 -70 -37q-39 -22 -56 -56
q-24 -47 -24 -85q0 -19 68 -142q16 -32 56 -91q108 -129 262 -200q22 -14 69 -36q59 -20 169 -20q192 0 338 67q22 9 62 34q55 50 86 191q24 111 24 216zM460 980q0 43 -31 43q-15 0 -38 -48t-23 -66q0 -68 42 -68q17 0 35 61q15 52 15 78zM1373 837q0 -63 -36.5 -103
t-98.5 -40q-45 0 -102 95q-52 88 -52 139q0 23 5 33.5t34 37.5t41.5 34t53.5 7q31 0 51 -7q48 -17 78 -82q26 -56 26 -114zM1407 415q0 -76 -10 -92q-32 -33 -63 -65h-99q-2 0 -28 14q-127 69 -127 194q0 13 16.5 44t27.5 40q38 32 70 32q60 0 134 -53q79 -57 79 -114z
M973 879q0 -47 -75 -124.5t-122 -77.5q-42 0 -71 36q-28 33 -28 76q0 62 62 123.5t124 61.5q42 0 76 -27t34 -68zM947 416q0 -44 -32 -85q-27 -35 -107 -35q-74 0 -132 30q-72 37 -72 104q0 66 16 86q29 31 57 62q14 2 23 2q56 0 125 -35q66 -34 105 -79q17 -20 17 -50z" />
  </g>

</svg>
