<?xml version="1.0" standalone="no"?>
<!DOCTYPE svg PUBLIC "-//W3C//DTD SVG 1.1//EN" "http://www.w3.org/Graphics/SVG/1.1/DTD/svg11.dtd" >
<svg viewBox="0 -442 2048 2048">
  <g transform="matrix(1 0 0 -1 0 1606)">
   <path fill="currentColor"
d="M1972 219q0 -14 -24.5 -30.5t-39.5 -16.5q-14 0 -41 65t-42 71q-10 1 -28 7q-32 39 -102 107q-89 71 -129 94q-68 40 -150 52q-6 -26 -19 -79q161 -31 263 -137q109 -113 109 -271q0 -112 -41 -170q-11 -16 -80 -31q-60 -13 -91 -13q-48 0 -143 29q-58 18 -132.5 89.5
t-94.5 129.5q-9 22 -24 67q-13 57 -15 57q-8 0 -14 -7q-27 -7 -59 -5q-2 -1 -3 -3q0 -125 141 -279q43 -37 107 -102q1 -10 7 -28q11 -20 76 -46q60 -23 60 -43q0 -15 -15.5 -36.5t-29.5 -21.5q-8 0 -109 101q-36 -19 -47 -19q-31 0 -69 81l-38 86q-9 3 -27 10
q-42 20 -83 134q-36 101 -36 160v17q0 26 17 33q5 2 42 6q-15 12 -49 29q-48 -43 -56 -104q-11 -88 -20 -125q-15 -65 -45 -119q-99 -177 -262 -177q-30 0 -64 13q-3 1 -11 7.5t-13 6.5q9 0 -52 -30q-65 -32 -174 -32q-81 0 -148 25q-92 34 -92 100q0 60 86 143
q74 70 142 102q98 44 195 88q113 52 187 103q-33 14 -65 27q-24 12 -55 49q-51 7 -75 13q-45 12 -67 33q11 21 55 21q67 0 135.5 -39t110.5 -39q81 0 126 75q-9 0 -27.5 -2t-27.5 -2q-80 0 -134 34q-25 15 -74 66q-39 40 -72 47q-43 10 -75 27q-5 12 -5 17q0 20 27 20
q77 0 180 -80q17 -19 54 -49q36 -21 125 -21q31 0 37 14q-5 11 -4 31q-1 2 -2 4.5t-6 2.5q-6 0 -17.5 -2t-17.5 -2q-52 0 -87 38t-35 91q0 23 16 64q-24 19 -76 19q-61 0 -138 -32q-4 0 -5 10q0 32 79 51q59 14 107 14q8 0 23.5 -2t23.5 -2q3 0 50 46q53 51 56 54
q-3 44 -3 68q0 113 41 158q7 8 31 14q-25 -81 -25 -154q0 -41 15 -61q70 12 62 12q38 0 80.5 -28t48.5 -64q2 -10 2 -26q0 -19 -3 -36q13 -11 24 -11q30 0 30 39q0 67 -21 115q-28 31 -72 82q-56 67 -56 146q0 6 2 18t2 18q4 5 14 5q20 0 45 -96q8 -32 47 -65q48 -42 64 -67
q32 -52 32 -136q0 -17 -3 -26l3 -25q72 40 72 121q0 55 -29 107q-12 13 -33 43q-16 32 -16 105q0 39 13 51q51 -25 58 -146q30 -21 45 -55q11 -33 23 -66q26 15 74 119q32 70 63 139q27 63 93 184q112 169 210 169q63 0 98 -95q27 -71 27 -149q0 -72 -25 -154q-2 -7 -18 -34
t-16 -32q0 12 14 -27t14 -59q0 -46 -21 -94q-44 -101 -146 -162q-94 -57 -211 -68q-98 -10 -147 -59q5 -19 25 -53q4 41 11.5 50t43.5 9q56 0 162 -36q119 -40 136 -79q2 -8 7 -23q5 -9 88 -49q79 -37 79 -64q0 -15 -19 -41q105 -105 105 -116zM1843 1294q0 67 -17 124
q-24 81 -73 81q-83 0 -163 -138q-23 -39 -141 -292q-79 -168 -176 -275l-60 -72q4 -2 46 -33q37 -27 42 -27t41 15q40 17 49 19q92 20 185 39q102 28 163 92q22 23 53 97.5t31 105.5q0 39 -33 39q-2 0 -46 -12q-3 3 -3 6v3q102 81 102 228zM1041 836q0 31 -33 57
q-31 23 -63 23q-4 0 -9.5 -2.5t-8.5 -2.5q22 -22 30 -41l16 -44q13 -27 34 -27q34 0 34 37zM1440 446q-9 4 -44 4q-5 0 -10 -1q-15 -26 -49 -74q-16 -12 -44 -39q-6 -16 -32 -45q-29 -11 -70 -33q-5 -4 -5 -27q0 -31 21 -31q65 0 149.5 89t83.5 157zM1679 257q0 23 -18 45
q-42 -84 -141 -184t-182 -141q15 -20 49 -20q74 0 183 112.5t109 187.5zM1732 121q-65 -78 -102 -117q-64 -67 -116 -101h29q20 0 81 13q67 15 73 24q18 30 35 181zM841 630q0 14 -6 20q-37 21 -106 63q-9 -18 -9 -26q0 -32 26 -60t58 -28q37 0 37 31zM978 339q-8 10 -64 88
q-135 -132 -303 -222q-137 -69 -273 -137q-201 -113 -201 -187q0 -84 216 -84q80 0 125 22q37 19 95 80q6 -5 6 -12q0 -5 -6 -19t-6 -22q0 -30 47 -30t115 31.5t98 67.5q71 82 93 231t58 193z" />
  </g>

</svg>
