<?xml version="1.0" standalone="no"?>
<!DOCTYPE svg PUBLIC "-//W3C//DTD SVG 1.1//EN" "http://www.w3.org/Graphics/SVG/1.1/DTD/svg11.dtd" >
<svg viewBox="0 -442 2048 2048">
  <g transform="matrix(1 0 0 -1 0 1606)">
   <path fill="currentColor"
d="M1529 573q0 -4 -2.5 -9.5t-2.5 -8.5q-14 -5 -16 -5q-37 0 -91 24q-10 5 -45 40q-2 -4 -31 -117q-1 -5 -9 -21.5t-8 -23.5q0 -16 39 -59.5t39 -67.5q0 -34 -17.5 -98t-17.5 -98q0 -7 3 -20.5t3 -20.5q0 -17 -6 -28q-8 -1 -24 -14q-5 -12 -16 -36q-17 -29 -62 -29
q-7 0 -19.5 3t-19.5 3q-12 0 -20 -5v33q27 41 60 97q45 107 45 167q0 26 -21 41q-3 1 -44 21q0 -2 -1 -7q0 -10 5.5 -28.5t5.5 -28.5q0 -6 -37 -68q-41 -70 -44 -76q-10 -26 -30 -77q-11 -3 -29 -14q0 -56 -58 -56q-14 0 -42 2t-41 2l-10 12l114 134q77 97 77 145
q0 13 -21 55q-5 -9 -16 -9q-16 0 -53 38q-42 121 -69 121q-4 0 -52 -22q-51 -24 -64 -27q-53 -4 -155 -25q-20 -7 -26 -31q-2 -22 -5 -43q-6 -39 -6 -64q0 -21 5 -63.5t5 -63.5q0 -87 -50 -142q-22 -24 -64 -24q-6 0 -17.5 2.5t-16.5 2.5q-5 12 -5 13q0 7 41 70t41 101
q0 35 -48 180q-24 -71 -55 -169q-7 -28 -26 -80q-11 -6 -29 -23q-4 -15 -22 -42q-20 -18 -73 -18q-43 0 -43 25q0 15 32 44q39 35 44 43.5t39 99.5q58 158 58 224q0 120 -89 144q-15 4 -31 8.5t-24 17.5q-13 22 -33 102q-19 77 -20 107q-8 5 -24 13q-7 -11 -26 -31
q-2 -2 -69 -28q-14 9 -14 25q0 9 5.5 26.5t5.5 26.5q0 15 -11 25q-7 -2 -14 -2q-25 0 -52 23t-27 48q0 1 12 17q6 11 21 30.5t84 71.5q56 42 73 80q73 161 167 186q23 2 68 8q14 3 69 20q47 15 66 15q2 0 22 -5v-20q0 -10 -50 -59q11 -13 57 -32.5t64 -19.5q13 0 38.5 6.5
t38.5 6.5q25 0 25 -20q0 -18 -53.5 -44.5t-75.5 -26.5q-24 0 -68.5 18.5t-68.5 18.5q-12 0 -47.5 -16t-36.5 -25l3 -5q45 23 52 23q18 0 18 -21q0 -16 -28 -53q5 -1 13 -1q9 0 26.5 3.5t26.5 3.5q35 0 35 -23q0 -28 -67 -61q-46 -21 -93 -42q99 -134 128 -134q21 0 61.5 14
t61.5 14q8 0 25 -2.5t25 -2.5q32 0 93 20.5t84 20.5q15 0 42.5 -6.5t40.5 -6.5q213 -8 297 -92q15 -15 35.5 -56t38.5 -57q16 -6 46 -21q13 -8 45.5 -53t32.5 -58zM591 1327v7l-26 -4v-8zM564 1317v8h-13v-8h13zM1478 587q-17 25 -59 70q-24 16 -67 56q-12 26 -44 73
q-48 51 -108 67q-126 34 -253 34q-3 0 -42 -10q-121 -31 -150 -31q-6 0 -19 2t-19 2q-20 0 -57 -13.5t-57 -13.5q-49 0 -107 70q-55 67 -59 118q43 21 127 65q-29 -7 -63 -7q-21 0 -37 16q11 17 32 37q-63 -17 -57 -17q-17 0 -25 16q67 121 157 121q27 0 74 -16t63 -16
q2 0 16 6q-17 3 -80 32.5t-64 29.5q-60 0 -111.5 -41t-60.5 -41l-3 3q-4 14 -4 15q0 28 42 61q39 31 69 37q-1 0 -58 -4q-35 -3 -53 -19q-28 -25 -56 -73l-46 -80q-10 -15 -97 -95q-79 -72 -79 -84v-14q9 -8 66 -20q30 -6 31 -77q17 9 32.5 38.5t27.5 33.5q24 -7 21 -30
q15 8 18 8q23 0 23 -79q0 -25 21 -86q26 -79 29 -90q43 1 89 -38.5t50 -82.5q0 -22 7 -64q6 -17 32 -43q32 -31 38 -40q29 -42 45 -137v66q0 52 12 81q15 20 39 64q15 36 25 92q1 11 5 31q2 7 12 7q2 0 14 -4v-34q0 -10 -13.5 -41t-13.5 -52q90 22 143 28q20 2 70.5 25.5
t54.5 23.5q28 0 56 -46q22 -36 32 -72q24 -14 35 -14q5 0 5.5 4.5t5.5 4.5q58 0 115 -24q64 -27 91 -71q3 -5 3 -11q0 -115 -72 -242q-12 -21 -12 -23q0 -11 6 -11q28 0 42 14q1 21 23 61q-3 30 -3 42q0 32 18.5 95t18.5 95q0 5 -38.5 51.5t-38.5 73.5q0 -5 46 178
q24 17 40 17q14 0 27 -15q18 -22 21 -24q19 -5 56 -19zM1220 288q0 19 -24 79h-31q27 -67 27 -76q0 -43 -99 -205q5 3 19 5q7 1 15 19q11 31 39 91l30 45q24 36 24 42zM1077 32v40q-18 -26 -39 -39q14 -4 21 -4h6q6 0 12 3zM560 375q-1 11 -26 34q-51 -220 -98 -297
q-10 -16 -53 -57q14 4 43 13q7 37 41 55q20 101 93 252zM630 62h-7l-17 -33l6 -3zM332 1028q0 -37 -27 -37q-12 0 -17.5 13t-9.5 25l5 53h25q24 -19 24 -54zM321 1022v3q0 11 -5 16q-11 -11 -11 -20q0 -11 10 -11h3q3 6 3 12zM293 1054h-8l-5 -21h8z" />
  </g>

</svg>
