<?xml version="1.0" standalone="no"?>
<!DOCTYPE svg PUBLIC "-//W3C//DTD SVG 1.1//EN" "http://www.w3.org/Graphics/SVG/1.1/DTD/svg11.dtd" >
<svg viewBox="0 -442 2048 2048">
  <g transform="matrix(1 0 0 -1 0 1606)">
   <path fill="currentColor"
d="M1863 1105q0 -87 -29 -169q-33 -94 -94 -139q25 -42 25 -128q0 -158 -11 -215q-25 -129 -25 -126q0 -13 51 -105q52 -95 55 -124q4 -43 13 -129q10 -72 10 -78q0 -31 -43 -72t-75 -41q-27 0 -52 23.5t-25 50.5q0 23 29 47l48 36q-5 94 -219 382l-3 -5q1 -34 19 -102.5
t18 -103.5q0 -80 -62 -161q-65 -85 -143 -85q-72 0 -72 41q0 7 69 75t69 122q0 51 -112 384l1 1q-1 3 -7 3h-2q-81 -35 -199 -86q-31 -12 -219 -67q-5 -121 -10 -241q-8 -163 -44 -226q-14 -24 -54 -42q-36 -16 -67 -16q-72 0 -72 54q0 11 2 17q32 27 63 55q38 34 38 69
q0 48 -39 216q-24 -89 -48 -177q-32 -118 -73 -159q-28 -28 -105 -28q-74 0 -74 48q0 13 44 54q52 48 57 56q15 22 38 174q20 141 20 189q0 -1 -15 98q-6 54 -18 163q-6 56 -77 150q-75 99 -126 99q-10 0 -31 -2.5t-31 -2.5q-57 0 -110 27q-64 32 -64 83q0 45 55 60
q45 11 90 21q44 24 88 47q56 29 93 29q50 0 198 -101q165 -113 213 -129q85 -28 234 -28q16 0 27 1l402 36q37 2 99 -29.5t59 -31.5q26 0 78 80q48 75 51 107q1 12 1 38q0 149 -89 149q-51 0 -74.5 -48.5t-46.5 -48.5q-26 0 -26 30q0 65 52 106q48 38 115 38q74 0 121 -72
q41 -63 41 -141zM1519 110q0 10 -13 49q-15 46 -17 54q-10 47 -13 144q-38 30 -115 88q28 -88 55 -175q36 -118 36 -173q0 -64 -40 -111q-44 -42 -88 -83h53q35 0 90 86q52 82 52 121zM1822 1112q0 66 -40 119q29 -72 29 -144q0 -59 -56 -161q-61 -111 -113 -111
q-5 0 -65 33.5t-114 33.5q-7 0 -127 -10l-253 -21h-12q-170 0 -247 27q-43 15 -220 128q-158 102 -196 102q-4 0 -138 -48t-140.5 -52.5t-6.5 -15.5q0 -31 51 -52q41 -17 77 -17q14 0 40 5t40 5q67 0 149 -117q76 -109 82 -183q2 -68 24 -196q13 -37 59 -81q63 -61 72 -73
q22 -29 39 -136q14 -90 14 -147q0 -27 -2 -39q-3 -19 -42 -54q-51 -46 -54 -50l60 -6q24 11 56 37q13 23 24 150q10 152 26 318q5 8 17 25q15 24 15 139q0 50 20 59q18 -14 18 -51q0 -65 -22 -148q111 26 339 120q21 6 57 24q5 4 6 12q-31 52 -31 86q0 6 4 9h13q3 -3 31 -61
q47 -98 138 -157q28 -18 37 -18q5 0 12 5t12 5q36 0 156.5 -208t120.5 -259q0 -20 -31 -50q-42 -39 -46 -45q17 -18 36 -18q26 0 51.5 25.5t25.5 51.5t-23 187q-6 45 -58 127q-48 75 -48 117q0 36 19 105t19 105q0 30 -9 64l7 8q-1 7 -5 11t-4 6q0 10 4.5 31t4.5 32
q0 24 -15.5 60.5t-15.5 44.5q0 11 55 70q74 79 74 242zM682 274q-29 32 -90 95q-2 -78 -18 -193q-19 -138 -42 -183q-10 -20 -44 -43t-46 -47l64 -6q22 9 56 37q18 31 46 138q34 135 74 202zM585 941q0 -44 -28 -44q-71 0 -110 48q-37 44 -37 117l13 15l13 -6q3 -28 17 -83
q25 -55 84 -55q9 0 17 9q-5 19 -10 57q7 1 13 6q28 -43 28 -64zM344 1002q-6 -3 -18 -12q-9 5 -23 33l6 33h18q17 -16 17 -22v-32zM338 1006v19q-3 0 -15 -12q5 -5 15 -7zM315 1021v14h-9v-14h9z" />
  </g>

</svg>
