<?xml version="1.0" standalone="no"?>
<!DOCTYPE svg PUBLIC "-//W3C//DTD SVG 1.1//EN" "http://www.w3.org/Graphics/SVG/1.1/DTD/svg11.dtd" >
<svg viewBox="0 -442 2048 2048">
  <g transform="matrix(1 0 0 -1 0 1606)">
   <path fill="currentColor"
d="M1368 854q0 -14 -66 -60q-73 -51 -81 -62q-11 -15 -11 -35l131 84q22 -20 22 -42q0 -18 -63 -69q-76 -59 -80 -64q1 -2 6 -2q3 0 102 39v-23q0 -11 -56 -52q-36 -25 -71 -50q20 -9 20 -25q0 -91 -144 -102q-25 -31 -81 -86l-8 -19q-16 -15 -28 -44q-11 -25 -21 -49
q-17 -32 -58 -54q-36 -18 -72 -35q-10 -49 -10 -94q0 -40 41 -77q33 -32 67 -63q-4 -8 -15 -8q-4 0 -58.5 27.5t-85.5 27.5q-19 -32 -59 -94q-18 -1 -18 17q0 14 12 39.5t12 39.5q0 22 -22 22q-11 0 -39 -10l-12 13q32 15 93 50v85q-68 19 -56 19q-21 0 -66 -43
q-20 -19 -40 -82l62 -38q45 -30 45 -48h-25q-7 0 -19 8.5t-17 9.5q-22 7 -53 7q-33 0 -122 -88h-23q2 6 21 43q13 26 13 46q-5 3 -14 3q-42 0 -106 -29l-12 5q0 15 15.5 26.5t97.5 37.5q52 16 79 86q4 7 9 23q-10 4 -29 15q-25 17 -55 71q-29 50 -38 54q-15 2 -44 13
q-94 65 -120 123q-20 47 -20 169q0 20 3 33q24 99 48 243q15 88 15 80v8q-11 -7 -35 -42q-19 -27 -44 -27q-22 0 -48 20.5t-26 41.5q0 46 54 147q-8 12 -70 12q-7 0 -13 1v25q0 11 34.5 37t37.5 34q7 16 7 50q0 19 -4.5 57t-4.5 57q0 12 14.5 28t25.5 16q17 0 54 -45l24 50
q15 29 42 29q29 0 29 -23q0 -8 -3 -25t-3 -25q0 -4 1 -11q5 3 34 30q22 20 38 20q42 0 42 -37q0 -22 -32 -55q-23 -24 -47 -48q142 -36 194 -97q47 -55 47 -89v-235q94 -35 272 -60q29 31 102 156q81 141 122 196q72 96 126 96h26v-27q0 -9 -67.5 -120.5t-67.5 -130.5
q0 -1 1 -6q3 3 84 114q65 90 82 92q40 -16 42 -32l-163 -254q19 9 89 65q58 46 92 49q16 -46 16 -54zM1329 717v23l-7 6q-56 -33 -170 -98v23q0 41 71 104l106 86l-12 13q-44 -37 -89 -73q-58 -45 -100 -45l-5 3q3 4 82 133q69 111 69 118q0 -2 -1 16q-57 -73 -115 -145
q-96 -120 -109 -120h-8l-2 3l166 345q-77 -58 -105 -104q-49 -96 -99 -191q-78 -141 -128 -141q-3 0 -310 62v265q0 10 -9 15q-9 67 -87 108q-67 36 -141 36q-24 0 -56.5 -14.5t-39.5 -15.5l-6 3q19 27 54 37q46 13 58 21q22 15 45 47q38 52 39 53h-4q-39 0 -125 -97l-8 8
v13q7 9 23 53.5t16 55.5q0 14 -18 12q-29 -47 -75 -162q-8 26 -20 123h-18q-11 -18 -11 -53q0 -18 4 -54.5t4 -54.5q0 -29 -64 -72q8 2 16 2q67 0 74 -40q-28 -27 -38 -48q-30 -63 -30 -97q0 -8 16 -23.5t25 -15.5q19 0 30 12q37 40 79 135q7 -3 7 -9q0 -4 -1.5 -12
t-2.5 -11q-2 -23 -1 -56v-67q1 -108 -17 -186q-28 -121 -28 -231q0 -26 2 -35q12 -55 83 -103q27 -9 63 -28q19 -20 48 -71.5t52 -72.5q14 -8 42 -25q-28 -83 -43 -99q-23 -27 -99 -42q5 -2 35 -2q17 0 29 -18q-11 -21 -11 -37q40 59 84 59q9 0 30 -6q-23 9 -54 43
q16 38 59 106q17 11 49 37q-30 13 -40 62l3 3q61 -54 165 -77v-115q-24 -13 -74 -37q3 1 8 1q21 0 22.5 -17.5t2.5 -33.5q40 29 41 29q41 0 78 -16q-60 38 -60 94q0 62 12 120q35 18 71 36t60 55q-99 -1 -182 77t-83 177q0 14 21 12q12 -12 17 -32q19 -74 70 -132
q59 -67 128 -67q31 0 57.5 20.5t26.5 50.5q0 10 -14 47t-16 52l3 2q8 -4 25 -10q9 10 12 48q3 35 16 41q18 -25 18 -54q0 -25 -12.5 -44t-12.5 -23q0 -6 5 -16t6 -15q31 19 52.5 79t36.5 68q3 -18 3 -39q0 -24 -4 -44h31q19 0 66 35v32q4 -1 -24 -1q-21 0 -25 14
q10 18 49.5 36t48.5 29h-43q-26 0 -40 5q31 37 87 77q47 33 95 67zM366 1057q-17 -21 -39 -21q-54 0 -54 47q0 51 47 51q14 0 46 -20v-57zM356 1084h-18q0 -2 -5.5 -8.5t-5.5 -12.5q0 -12 18 -12q11 11 11 33zM312 1086v4q0 9 -18 14v-18h18z" />
  </g>

</svg>
