<?xml version="1.0" standalone="no"?>
<!DOCTYPE svg PUBLIC "-//W3C//DTD SVG 1.1//EN" "http://www.w3.org/Graphics/SVG/1.1/DTD/svg11.dtd" >
<svg viewBox="0 -442 2048 2048">
  <g transform="matrix(1 0 0 -1 0 1606)">
   <path fill="currentColor"
d="M1896 202q0 -117 -91 -171q-14 -5 -41 -16q3 -25 3 -51q0 -92 -37 -131q-41 -43 -89 -59q-27 -9 -97 -9q-76 0 -111 33q-23 22 -62 107q-23 -15 -46 -15q-59 0 -108 12q7 -51 7 -80q0 -53 -39 -106t-90 -71q-25 -9 -108 -9q-75 0 -104 9q-9 6 -27 17q-104 59 -104 167
q0 31 9 73q-47 -12 -107 -12q-17 0 -48 15q-2 -1 -4 -3q-27 -106 -100 -132q-15 -5 -51 -5q-88 0 -114 9q-31 11 -67 40q-40 32 -46 58q-13 55 -13 81q0 25 3 62q-132 43 -132 187q0 108 95 165q17 6 41 25q1 10 6 27q10 21 32 55q47 71 140 71h13q9 1 14 1q65 0 129 -84
q10 -20 36 -49q26 -16 58 -16q14 0 42 33q26 30 33 47q9 23 9 62q0 15 -5 22q-26 22 -67.5 58.5t-109.5 117.5q-74 118 -102 223q-21 78 -21 181q0 83 29 171q38 116 171 179q24 12 122 36t122 24h240q35 0 142 -30q78 -22 100 -30q53 -21 88 -55q46 -44 77 -120
q5 -27 14 -79q15 -81 15 -98q0 -102 -17 -168q-4 -15 -49 -117q-12 -41 -49 -117q-31 -46 -108 -117q-25 -18 -49.5 -38t-24.5 -51q0 -27 4.5 -44.5t35.5 -53.5t44 -36q32 0 54 16q32 42 105 114q24 18 73 18q90 0 132 -35q37 -32 64 -122q54 -19 95 -74t41 -112zM1833 196
q0 60 -29 100q-32 46 -90 46q-56 0 -152.5 -64.5t-168.5 -64.5q-38 0 -60 9q-104 43 -104 89q0 13 9 15q26 -25 75 -50q54 -28 84 -28q24 0 66 18q46 20 54 39q-28 28 -28 39q0 88 64 88q54 0 54 -35q0 -12 -11 -29.5t-22 -17.5q-3 0 -22 10v15q12 11 23 10v15h-37
q-21 -10 -21 -35q0 -26 30 -46q105 63 161 66q-5 39 -49 80t-83 41q-66 0 -123 -82t-121 -82q-22 0 -45 16q-59 41 -79 81q-18 37 -18 109q0 34 12 48q25 21 73 63q134 123 186 336q17 69 17 189q0 59 -28 128q-11 26 -49.5 61.5t-67.5 47.5q-20 4 -58 18q-110 57 -288 57
q-101 0 -182 -17q-33 -14 -101 -40q-20 -5 -59 -18q-23 -10 -51 -32q-56 -44 -70 -73q-28 -56 -28 -141q0 -112 16 -184q7 -29 27 -70q31 -62 33 -67q11 -30 38 -86q45 -68 97 -113q30 -25 59 -51q22 -24 22 -69q0 -103 -93 -173q-27 -20 -49 -20q-63 0 -120.5 82t-125.5 82
q-43 0 -83 -40q-35 -35 -51 -80q55 -8 165 -67q30 15 30 46q0 25 -21 35h-37v-15q16 0 23 -14v-11q-18 -10 -22 -10q-12 0 -22.5 16t-10.5 29q0 37 53 37q64 0 64 -86q0 -6 -27 -45q11 -16 56 -35q42 -18 64 -18q64 0 162 78l6 -6v-19q0 -32 -104 -79q-20 -9 -62 -9
q-69 0 -165.5 64.5t-153.5 64.5q-55 0 -89 -43q-30 -39 -30 -96q0 -74 25 -95q41 -35 78 -35q15 0 34 22q26 29 29 31q17 10 46 33q10 11 10 29q0 53 -55 53q-11 0 -25 -12t-14 -22q0 4 5 -12q6 -2 12 -2q10 0 20 5q10 -9 10 -18q0 -25 -25 -25q-20 0 -36.5 16t-16.5 36
q0 65 74 65q94 0 83 -109q33 0 99 -4.5t99 -4.5q-2 0 53 15q74 20 120 102l15 33q2 3 4 3h1l6 -7v-26q0 -19 -29 -60t-48 -51q-80 -43 -159 -43q-22 0 -66.5 3.5t-66.5 3.5q-47 0 -94 -21q-15 -7 -47 -54.5t-32 -62.5l18 -75q10 -42 63 -68q46 -23 94 -23q56 0 94.5 38
t38.5 93q0 80 -60 80q-22 0 -37.5 -27.5t-15.5 -50.5q0 -16 13 -24q13 2 21 24.5t14 22.5q22 0 22 -13q0 -65 -56 -65q-49 0 -49 61q0 42 23.5 74.5t64.5 32.5q52 0 72 -47q24 -59 33 -64q23 -14 64 -14q84 0 127 45q90 96 90 236q0 -7 -9 114l9 7q44 -30 44 -165
q0 -57 -9 -82q-19 -25 -52 -78q-56 -110 -56 -176q0 -46 20 -77.5t70.5 -58t87.5 -26.5q27 0 72 15q49 15 64 32q4 5 19 55.5t15 59.5q0 49 -18 79q-6 11 -33.5 31t-38.5 20h-19q-75 1 -105 -47q-9 -15 -9 -53q0 -15 7 -24q17 -19 18.5 -19.5t11.5 -0.5q6 0 15.5 2.5
t13.5 2.5q16 29 16 38q0 3 -5.5 9.5t-5.5 14.5q0 6 2 15q33 -17 33 -39q0 -48 -14.5 -59t-54.5 -11q-32 0 -52 24.5t-20 57.5q0 51 16 71q28 36 86.5 46t79.5 33q17 58 17 64q0 44 -25.5 131.5t-25.5 122.5q0 6 3 6l6 -2q40 -72 48 -91q22 -48 28 -99q0 -54 6 -125
q31 -99 161 -99q50 0 71 17q10 8 15 27q7 25 10 31q28 50 76 50q41 0 66 -37q21 -32 21 -75q0 -56 -48 -56q-59 0 -59 65q0 13 16 13q19 0 19 -29q0 -13 33 -13q4 22 4 17q0 24 -14 50q-16 30 -38 30q-61 0 -61 -82q0 -57 38 -93t95 -36q62 0 123 37q48 29 48 119
q0 16 -16.5 53t-28.5 48q-50 48 -113 48q-29 0 -88 -4.5t-89 -4.5q-22 0 -83 26q-120 51 -120 147q0 13 6 19q21 -43 62 -100q77 -57 123 -57q35 0 103.5 4.5t102.5 4.5q-2 12 -2 23q0 86 85 86q74 0 74 -63q0 -54 -53 -54q-25 0 -25 27q0 13 10 16q13 -5 23 -5q6 0 10 2v21
q0 8 -13 16.5t-22 8.5q-55 0 -55 -55q0 -20 10.5 -28.5t33.5 -23.5q4 -3 37 -35q27 -26 38 -26q10 0 42 14.5t36 21.5q25 47 25 87zM1337 1170v-29q-40 106 -133 106q-94 0 -133 -109q4 167 131 167q101 0 131 -106q1 -7 4 -20v-9zM1322 966q0 -140 -118 -140
q-116 0 -116 140t116 140q118 0 118 -140zM873 1170v-29q-40 106 -134 106t-133 -109q5 167 133 167q56 0 91 -29q14 -12 43 -97v-9zM858 966q0 -140 -119 -140q-115 0 -115 140t115 140q119 0 119 -140zM1135 751q-68 -89 -148 -89q-91 0 -144 89q33 -11 111 -11
q140 0 181 11zM1177 993q24 47 -14 47q-12 0 -24 -12v-26q14 -13 24 -13q5 0 9 2t5 2zM1291 928v22q-6 0 -16.5 2t-16.5 2q-10 0 -20.5 -15t-31.5 -21v-61h20q21 0 43 25t22 46zM718 994v37q-8 9 -20 9q-23 0 -23 -25q0 -26 23 -26q4 0 10.5 2.5t9.5 2.5zM827 928v22
q-6 0 -16.5 2t-16.5 2q-10 0 -22 -16.5t-30 -19.5v-61h20q21 0 43 25t22 46z" />
  </g>

</svg>
