<?xml version="1.0" standalone="no"?>
<!DOCTYPE svg PUBLIC "-//W3C//DTD SVG 1.1//EN" "http://www.w3.org/Graphics/SVG/1.1/DTD/svg11.dtd" >
<svg viewBox="0 -442 2048 2048">
  <g transform="matrix(1 0 0 -1 0 1606)">
   <path fill="currentColor"
d="M1966 976q-4 -5 -15 -5q4 0 -72 25q-89 29 -193 29q-21 0 -37 -10q46 -45 91 -91q46 -52 66 -110q13 -38 13 -62q0 -45 -33 -79q-12 15 -16 43q-3 24 -6 47q-17 79 -111.5 159t-174.5 80q-9 0 -15 -3q6 -18 24 -37q55 -58 117 -173q68 -126 68 -192q0 -15 -16 -40h-14
l-18 67q-19 72 -124 221q-112 160 -161 160q-23 0 -23 -15q0 6 14 -40q17 -56 57 -129q36 -61 71 -122q33 -57 65 -114q43 -78 49 -116l-9 -9q-27 0 -175 213q-126 179 -171 259q-59 -45 -59 -79q0 -36 101 -166q67 -85 133 -170q50 -75 67 -129l-5 -17l-333 340
q-37 -31 -37 -124q0 -14 166.5 -148.5t166.5 -169.5v-17q0 -4 -10 -5q-16 0 -36 17q-13 12 -38 36q-31 29 -82 66q-123 90 -179 90q-16 -76 -16 -126q0 -8 4 -14q52 -71 143 -119q69 -36 155 -51v-14q-16 -21 -48 -21q-56 0 -170 62t-128 62t-35 -27t-21 -42q0 -25 96 -101
q2 -2 81 -53q67 -43 67 -50q0 -21 -50 -21q-128 0 -273 147q-52 -38 -52 -46q0 4 14 -40q18 -56 69 -118q45 -52 91 -104q-16 -13 -37 -13q-73 0 -150 110.5t-94 110.5q-44 0 -44 -113q0 -45 31 -110l50 -104v-14h-25q-22 0 -55 43q-70 91 -90 244q-2 0 -2.5 1.5t-5.5 1.5
q9 0 -32 -10q-9 -2 -85 -6q-46 -56 -46 -142q0 -45 9 -75q7 -23 7 -20v-36q-3 -5 -12 -5q-23 0 -44 61q-18 52 -18 82q0 32 9 76q2 8 14 49q12 38 12 44q0 14 -10 20q-26 11 -75 31q-116 49 -173 118q-48 58 -51 87q3 5 11 5q4 0 106.5 -81.5t160.5 -81.5q15 0 25 14t19 27
q5 5 38 27q-42 30 -124 92q-20 16 -57 63q-40 53 -40 70v16q3 5 12 5q16 0 63 -42l60 -58q75 -64 185 -117q1 0 5 2q-77 82 -154 163q-109 125 -109 176q0 5 2 13.5t2 12.5q18 5 15 5q11 0 18 -13q54 -95 203 -235q23 -23 69 -65q24 -20 59 -20q28 0 50 17
q-192 140 -278 359q4 2 6 2q22 0 154 -148.5t180 -148.5q17 0 35.5 22.5t18.5 39.5q-5 7 -25 22q-68 55 -194 176q-31 36 -66 104q-40 76 -40 112q0 14 5 23q11 -1 16 -8q14 -32 49 -93q15 -15 40 -47q99 -168 243 -204q47 72 46 139v6q-88 53 -203 165q-138 134 -138 201
q0 13 9 30h8q122 -121 165 -159q119 -106 183 -119q8 15 26.5 92.5t18.5 95.5q0 48 -176 170t-176 136q0 21 25 21q46 0 185.5 -96.5t164.5 -96.5q43 0 101 106q-104 120 -179 200q-15 16 -103 93q2 22 32 22q63 0 188 -123.5t151 -123.5q70 0 70 65q0 81 -62 157
q-56 69 -136 104q18 14 37 14q80 0 162 -110q74 -98 89 -186q7 -40 68 -40q70 0 70 67q0 98 -136 214q-16 12 -49 37q-8 6 -16 21l17 5q89 -39 175 -141q94 -110 94 -199q0 -15 -4 -29q14 -14 66 -14q12 0 37 43q24 40 27 56q6 29 6 42q0 44 -23 81l4 33q26 -6 49 -63
q20 -49 20 -82q0 -21 -11 -52q-14 -37 -16 -52q21 -9 60 -30q1 -5 1 -12q0 -16 -7 -31q17 -8 105 -25q59 -11 96 -57v-16z" />
  </g>

</svg>
