<?xml version="1.0" standalone="no"?>
<!DOCTYPE svg PUBLIC "-//W3C//DTD SVG 1.1//EN" "http://www.w3.org/Graphics/SVG/1.1/DTD/svg11.dtd" >
<svg viewBox="0 -442 2048 2048">
  <g transform="matrix(1 0 0 -1 0 1606)">
   <path fill="currentColor"
d="M1964 784q0 -10 -13 -19q-77 -2 -184 -29q-27 -7 -73 -48q-48 -44 -73 -53q-88 -6 -219 -18q-61 -8 -115 -31q-8 -9 -27 -24q-32 -18 -67 -18q-8 0 -23.5 2.5t-23.5 2.5q-20 0 -27 -20q24 -5 49 -11t42 -28q1 -9 8 -29q83 47 85 47q86 0 114 -10q10 -3 70 -52
q112 -90 112 -185q0 -30 -27.5 -94.5t-49.5 -84.5q-33 -30 -112 -58q-25 -9 -57 -9q-136 0 -233 170q-12 22 -12 118q0 15 46 94q-63 11 -69 99q-16 -6 -16 -58.5t-17 -83.5q-11 -10 -28 -34q-32 -90 -34 -164q2 -55 -11 -162q-36 -42 -82 -101q-21 -32 -42 -149
q-2 -26 -5 -53q-5 -41 -17 -41q-9 0 -21 12q0 106 31 202q22 45 60 138q1 26 10 77q2 8 49 138q38 108 38 126q0 8 -2 23t-2 22q0 51 35 79v18q-5 3 -12 3q-21 0 -24 -1q-49 -79 -146 -194q-4 -3 -31 -6l-76 -108q-43 -59 -95 -94q-6 -42 -8 -87q-2 -39 -3 -77
q-4 -51 -18 -71q-21 2 -21 40q0 8 3.5 23.5t3.5 23.5v180q0 28 92 109q98 85 99 88q0 -1 0 18q0 22 64 77q44 36 87 72q-8 0 -24 -2.5t-24 -2.5q-39 0 -107.5 67.5t-107.5 67.5l-84 -7l-168 -13q-4 0 -15.5 8t-16.5 8q-13 0 -91 -40q-72 -38 -93 -53q-24 -17 -38 -71
t-24 -59q-25 9 -25 17q0 4 12 32.5t13 33.5q3 31 11 93q52 25 157 68q22 1 65 10q10 4 18 17q5 9 25 9q128 0 239 -20q31 -6 120 -56q83 -48 112 -47q-48 51 -122 155q-2 30 -7 80q-44 -39 -90 -39q-4 0 -68 30q-1 0 -23 4q-13 2 -19 18q-1 2 -1 19q0 22 -49 91l-346 -173
q-7 9 -27 20q-11 78 -45 290q-9 48 -21 141l5 10q4 2 9 2q9 0 11 -7q1 -2 23 -130q22 -124 48 -273l6 -7l324 168q-3 27 -13 79q-1 2 -29 31v25q44 -15 36 -15q7 0 29.5 21.5t22.5 28.5q0 9 -15 24v14h26q8 -12 30 -29q27 -3 80 -13l168 324l-423 85q14 14 23 14
q5 0 137 -20l284 -43q17 -14 21 -29l-169 -344q29 -23 83 -49q9 1 27 -1q20 -6 20 -34q0 -8 15.5 -29t15.5 -52q0 -11 -15 -42.5t-24 -41.5q28 2 80 -8q61 -30 149 -125q2 2 2 5q0 29 -48 116q-51 92 -55 126q-16 126 -16 221q0 22 11.5 30.5t14.5 18.5v32q0 10 75 186
q13 10 46 12q44 2 51 3.5t26 12.5q15 9 35 9q10 0 21 -22l-16 -15q-57 -13 -61 -14q-30 -10 -53 -33q-10 -10 -51 -91.5t-41 -89.5q0 -4 7.5 -15t7.5 -16l-19 -254q-3 -39 65.5 -111t68.5 -97q0 -10 -2.5 -28.5t-2.5 -28.5q57 73 63 80q42 48 74 68q3 2 18 2q8 0 13 1
q2 1 86 97q81 94 111 94h183q7 0 20.5 4t20.5 4q31 0 42 -17q-3 -17 -32 -20q-68 -4 -203 -14q-24 -45 -92 -94q-55 -38 -110 -77q1 -8 -2 -23q-12 -25 -76 -67q-22 -14 -126 -89q5 -10 4 -31q1 -1 3 -2q8 0 43.5 17t62.5 17q6 0 17.5 -1.5t17.5 -1.5q8 0 125 39
q128 43 143 47q25 1 73 10q43 20 131 56q93 32 213 32q8 -19 8 -15z" />
  </g>

</svg>
