<?xml version="1.0" standalone="no"?>
<!DOCTYPE svg PUBLIC "-//W3C//DTD SVG 1.1//EN" "http://www.w3.org/Graphics/SVG/1.1/DTD/svg11.dtd" >
<svg viewBox="0 -442 2048 2048">
  <g transform="matrix(1 0 0 -1 0 1606)">
   <path fill="currentColor"
d="M1938 356q0 -111 -48 -289q-9 -49 -37 -143q-23 -58 -97 -134q-77 -80 -132 -99q-88 -31 -191 -31q-35 0 -91 32t-58 32h-153q-64 0 -208 47q-76 22 -219 82q-2 1 -83 65q-49 32 -139 108q-50 53 -104 142q-57 95 -73 159q-27 107 -27 271q-30 31 -82 97q-12 19 -27 87
q-15 65 -15 92q0 20 5 61t5 62q-82 60 -82 142q0 64 16 93q2 4 17.5 22t15.5 22q0 23 -11.5 66t-11.5 66q0 33 40.5 70t74.5 37q27 0 55.5 -15t27.5 -15q-9 0 26 14q13 5 55 5q68 0 134 -57h93q16 0 54 -16q35 -15 124 -115q9 0 39 1h38q43 0 55 -8q164 -46 207 -85
q72 -65 139 -184q5 -8 35 -89q71 -6 210 -32q93 -26 195 -92q111 -72 158 -144q2 -3 10 -23q60 -151 60 -304zM1851 394q0 52 -16 145q-12 69 -77 150q-60 75 -126 113q-81 47 -189 67q-36 8 -107 23q10 -24 25 -75q2 -23 10 -69q38 -12 113 -40q37 -15 86.5 -58.5
t72.5 -78.5q31 -48 31 -102q0 -16 -17 -71h-2q-6 33 -28 96q-27 47 -76 74q-49 22 -98 43q81 -82 111 -137q6 -11 20.5 -70.5t14.5 -71.5q0 -65 -24 -177q-26 -122 -56 -165q-60 -86 -104 -88l-8 1q60 -51 136 -51q11 0 33.5 3.5t33.5 3.5q12 0 12 -13q0 -22 -49 -38
q-39 -13 -68 -13q-28 0 -61 12q-75 27 -122 83q-29 33 -78 126q-9 16 -24 49q-12 42 -12 148q0 69 4 100q1 9 26 88q75 238 75 311q0 36 -22 117q-11 44 -41 128q-60 127 -174 215q-125 95 -256 95q-8 0 -22.5 -4t-22.5 -4q-23 0 -49 34q-38 49 -58 64q-46 34 -115 34
q-11 0 -29 -7.5t-26 -7.5q-13 0 -46.5 34t-87.5 34q-11 0 -31 -6t-31 -6q1 0 -21 15.5t-48 15.5q-76 0 -76 -113q0 -11 10 -34q42 70 82 75l3 -2l-64 -122q-46 -90 -46 -119q0 -62 63 -103q11 31 100 158q86 121 86 124q0 24 -11 36q-16 11 -31 22q11 14 21 14
q19 0 57.5 -25t38.5 -43q0 -14 -31 -40l-44 -36q-46 -46 -111 -186q-66 -143 -66 -203q0 -70 73 -181l9 -1q25 110 58 166q68 114 169 226q14 16 57 50q48 39 59 39q12 0 23 -13q-8 -21 -51 -67l-62 -66q-56 -66 -116 -163q-14 -22 -54.5 -134t-40.5 -131q0 -126 46 -253
q47 -131 132 -222q31 -33 184 -145q27 -24 87 -62q207 -89 362 -96q24 -1 73 -4q-37 39 -100 124q-12 33 -40 98q-14 26 -14 29v291q0 9 20 24q24 -114 32 -202q0 -44 13 -128q9 -26 34 -62q33 -49 39 -59q76 -135 240 -168q49 -10 53 -10q139 0 248 186q9 12 24 38
q19 37 51 241q0 1 18 91q11 55 11 92zM1219 751l-23 -120l-25 -4q-14 93 -24 135q-17 78 -42 130q-27 34 -55 100q25 -29 77 -87q1 2 2 6q0 19 -38 93q-26 48 -52 97q83 -36 127 -151q7 -19 53 -199zM722 1196q-14 -11 -40 -35q-16 23 -48 68q-33 42 -31 54q-13 16 -46 49
q1 14 14 14q18 0 82 -47q56 -41 69 -103z" />
  </g>

</svg>
