<?xml version="1.0" standalone="no"?>
<!DOCTYPE svg PUBLIC "-//W3C//DTD SVG 1.1//EN" "http://www.w3.org/Graphics/SVG/1.1/DTD/svg11.dtd" >
<svg viewBox="0 -442 2048 2048">
  <g transform="matrix(1 0 0 -1 0 1606)">
   <path fill="currentColor"
d="M1962 892q0 -123 -63 -309q-51 -151 -103 -303q-10 -15 -24 -49q-5 -28 -18 -158q-10 -99 -10 -111q0 -55 9 -108q1 -7 9.5 -28t8.5 -26q0 -14 -65 -30q-58 -14 -82 -14q-112 0 -183 47q-1 11 -3 34q-9 2 -46 2q-31 0 -81 30q-1 4 -7 14.5t-6 15.5q0 3 26.5 52.5
t29.5 58.5q24 65 24 200q0 12 -1.5 35.5t-1.5 33.5q-141 21 -219 53q-14 -22 -14 -116q0 -131 1 -149q1 -12 7.5 -37.5t6.5 -38.5v-172q0 -5 6 -18.5t6 -19.5q0 -11 -12 -20q-14 -2 -39 -6q-12 -3 -38 -16q-20 -10 -46 -10q-208 0 -208 62q0 15 21 67.5t21 67.5q0 12 -22 54
t-22 53q0 16 1.5 47.5t1.5 47.5q0 45 -12 98q-5 1 -8 -7q-46 -159 -46 -219q0 -152 20 -180q2 -2 16 -15q6 -5 6 -22q0 -16 -24 -50h-195q-25 0 -58 20q-36 23 -36 47q7 20 14 45q13 48 13 102v6q0 27 -14 40q-17 15 -19 24q0 32 -4 94q-51 -33 -164 -33q-73 0 -145 87
q-27 32 -58 106.5t-31 112.5v99q34 55 98 55t82 -69q10 -58 19 -116q21 -71 51 -71q15 0 38 38q21 35 21 52v258q-259 205 -259 356q0 69 54 173q48 93 104 152q25 26 72 41q4 1 12 1q71 0 134 -43q4 -3 25 -28q17 -20 26 -20q8 0 73 24q156 59 226 60h15q17 1 33.5 -9
t20.5 -10q-1 0 39 23t64 23q44 0 78 -27l34 -27q5 0 42 15q41 16 47 18q164 49 310 49q83 0 206 -81q21 -11 61 -37q61 -49 80 -91q74 -159 74 -300zM1901 863q0 273 -165 420q-18 16 -50 23q-7 0 -19 2q-13 6 -40 17q-75 25 -161 25q-78 0 -270 -66q7 -14 27 -36
q113 -81 113 -217q0 -76 -24 -117q-20 -33 -82 -84q-47 -38 -95 -76q-75 -80 -202 -189q-51 -27 -81 -27q-22 0 -41.5 19.5t-19.5 41.5q0 15 8 38q9 28 20 30q10 -12 10 -53q0 -19 25 -31q38 14 101 51q17 15 131 128q79 78 139 118q44 29 53 55q17 48 17 98q0 85 -39 136
q-28 35 -115 91q-11 4 -30 14q-17 17 -34.5 33t-43.5 16q-34 0 -62.5 -21t-40.5 -21q-6 0 -38 13.5t-38 13.5q-45 0 -233 -67q-23 -13 -72 -35q-35 -9 -103 -29q-18 -6 -50 -31q-35 -27 -35 -42q0 -25 15 -58t15 -32q0 -11 -24.5 -45t-24.5 -48q0 -4 40.5 -34t49.5 -58
q11 -33 11 -109q0 -82 -10 -117q7 1 15 1q75 0 92 -41l-6 -6q-22 11 -43 22q-8 4 -57 4q0 -17 8 -30h15q102 3 102 -40q0 -4 -14 -10q-18 14 -37 27q-13 7 -51 7h-20v-25q50 -14 64 -20q43 -19 43 -43l-3 -3q-36 22 -104 45v-36q33 -14 76 -42l-3 -17q-23 13 -69 35v-45
q13 -7 38 -22v-14l-13 -3q-11 6 -28 15l-8 -16q-7 -42 -32 -76q-30 -41 -68 -41q-70 0 -97 95l-34 150q-9 7 -25 7q-50 0 -50 -39q0 -80 62 -187q68 -119 141 -119q123 0 165 37q53 46 96 152q19 68 71 195q6 10 26.5 29t29.5 19q13 0 15 -9q-20 -21 -52 -68
q-13 -30 -24 -85q-12 -64 -20 -87q-21 -61 -53 -114q-41 -68 -41 -62v-110q0 -5 13.5 -21.5t13.5 -33.5q0 -86 -10 -128q-6 -14 -17 -43q103 -13 89 -13q35 0 93 9q-11 92 -11 80v173q0 25 51 170q3 10 23 45q12 21 12 54q0 35 -9 73q5 6 12 6q11 -11 24 -33q1 -17 10 -50
q9 -13 21 -41q28 -113 28 -122v-121q0 -6 17.5 -37t17.5 -49q0 -52 -2 -59.5t-17.5 -42.5t-15.5 -39q0 -23 57 -23q100 0 156 27l-3 432q0 46 28 129q39 114 43 129h12v-48q0 14 -15 -74q15 -8 47 -19q156 -31 210 -31q25 0 85 25.5t81 44.5q55 47 67 87q3 14 7.5 30
t18.5 15l6 -7v-56q0 -21 -44 -75.5t-62 -48.5q15 -67 15 -124q0 -100 -2 -118q-5 -19 -12 -57q-5 -60 -41 -125q-23 -28 -52 -93q66 -28 135 -28q27 0 86 20l-4 249q0 14 4.5 41.5t5.5 38.5q5 94 52 221q42 107 84 213q18 37 44 111q9 47 9 167zM1541 139q0 24 -2 90
q-2 57 -1 90l-5 5q-36 -13 -109 -39v-206q0 -31 -24 -88q-15 -28 -41 -85q32 -16 68 -16q19 0 42 -4q45 83 56 118q16 50 16 135zM505 1240q-41 64 -110 64q-36 0 -49 -6q-40 -18 -102.5 -139.5t-62.5 -170.5q0 -103 217 -301v124q0 18 -47.5 52.5t-47.5 57.5
q0 25 19.5 59.5t19.5 35.5q0 14 -11.5 44t-11.5 44q0 24 42 72q-6 4 -24 4q-14 0 -22 8q9 18 22 18q11 0 28.5 -6.5t25.5 -6.5q4 0 21 12t23 14q24 6 70 21zM1626 583q0 -13 -9 -41q-11 -35 -12 -42q-4 -4 -12 -8l-9 9q16 43 16 93q0 34 -8 65q3 1 7 2q11 0 14 -6
q13 -25 13 -72zM1122 1163q-18 -4 -14 -4q-12 0 -38 9.5t-38 9.5t-57 -43q-56 -54 -59 -56h-13q-9 8 -9 17q0 7 31 41q28 30 39 39q38 29 71 29q3 0 87 -24v-18zM1321 627q0 -20 -35.5 -89.5t-51.5 -71.5v16q0 3 25 48.5t27 51.5l21 66h14v-21zM810 992h-18q-5 12 -10 25
q-5 9 -27 9q-26 0 -45 -34q-6 2 -17 4v21q38 41 81 41q4 0 36 -37v-29zM1679 17q-5 -5 -15 -5q-22 0 -42 20l10 10q2 -1 47 -12v-13zM803 883q0 -98 -48 -98q-70 0 -70 94q0 89 61 89q57 0 57 -85zM1664 -31q-26 2 -52 2q-5 0 -8 -5v22h44q6 -5 16 -19zM1527 67
q-9 -10 -13 -10q5 0 -66 12v15q4 0 12 2t12 2q34 0 55 -21zM1516 25q-5 -13 -19 -13q3 0 -57 12v22h16q41 0 60 -21zM1039 97q-13 -13 -20 -13h-94v23h109q1 -6 5 -10zM1035 39h-114q17 18 29 18h85v-18zM684 79q-2 -5 -8 -13q-36 -9 -75 -9q-4 0 -11.5 2.5t-11.5 2.5v17
h106zM688 37q-2 -4 -4 -13q-42 -6 -90 -12q0 3 -1 8t-1 8q0 4 2 10q30 0 86 8zM730 890v28q-8 8 -18 8l-4 -36q4 -4 13 -9zM783 844v36q-12 0 -17 5q-7 -28 -17 -48q7 -8 22 -17z" />
  </g>

</svg>
