<?xml version="1.0" standalone="no"?>
<!DOCTYPE svg PUBLIC "-//W3C//DTD SVG 1.1//EN" "http://www.w3.org/Graphics/SVG/1.1/DTD/svg11.dtd" >
<svg viewBox="0 -442 2048 2048">
  <g transform="matrix(1 0 0 -1 0 1606)">
   <path fill="currentColor"
d="M1967 341q0 -19 -42 -49q-29 -20 -59 -40q-121 -93 -193 -257q-24 -53 -38 -160q-6 -85 -25 -184q-4 -4 -20 -8q-61 47 -61 201q0 52 12 130q15 102 17 128q-94 63 -218 63q-38 0 -101 -20q-33 -10 -37 -106q-4 -101 -28 -118q-11 7 -31 25q-45 51 -79 232
q-85 47 -171 93q-96 56 -159 112q-51 -32 -83 -92q-24 -57 -49 -114q-52 13 -62 122q1 -6 1 155q0 68 -8 91q-21 25 -55 64q-101 118 -161 257q-99 230 -183 370q-52 87 -52 113q0 46 51 46q29 0 97 -49q2 4 2 12q0 52 -13 85q-1 3 -14 25q-9 14 -8 26l1 12q17 19 27 19
q13 0 105 -17q86 -16 256 -53q273 -71 366 -151q13 11 41 32q22 15 95 51q79 39 94 39q8 0 22 -15t14 -23q0 -4 -15 -36q-17 -35 -19 -43q-8 -29 -8 -95q0 -99 21 -162q18 -56 73 -142q129 12 139 12q103 0 103 -46q0 -22 -65.5 -57t-65.5 -65q0 -40 13 -74q22 -56 117 -228
q104 -187 123 -187q12 0 44 23l45 32q27 11 80 33q46 19 113 19q51 0 51 -31zM1183 1383q-112 -49 -113 -50q-64 -33 -100 -73q51 -37 182 -174v14q0 18 -7 54t-7 54q0 89 45 175zM1466 868q-53 16 -63 16q-24 0 -62 -7q-48 -9 -62 -10l79 -121q-4 11 -4 22q0 35 41 62
q36 19 71 38zM503 1350q0 68 -68 68q-24 0 -42 -44q-16 -37 -16 -65q0 -14 24.5 -32.5t38.5 -18.5q23 0 44 35q19 32 19 57zM1915 327v4q0 2 -1 6l-76 -12q-44 -8 -73 -24q-4 -2 -69 -47q-42 -29 -74 -32q-6 13 -20 38q-5 7 -106 132l-405 501q-29 38 -91 111
q-41 43 -274 219v-31q0 -105 -31 -170q126 -31 264 -113q46 -27 116 -87q86 -74 86 -103q0 -15 -15 -34q-25 -12 -35 -12t-29.5 4t-29.5 4q-64 0 -144 16q-93 19 -133 48q8 24 21 24q6 0 66 -14q151 -35 248 -35q-5 14 -19 24q-5 3 -94 45q-68 32 -204 93q-33 14 -40 18
q-24 14 -25 32l3 1q40 -12 315 -140q-198 154 -373 190q-24 -41 -48 -83q-29 -48 -63 -69q-15 -9 -99 -33l-21 -6q-15 0 -30 7q15 -30 152 -205q13 -17 13 -41q0 -30 -4.5 -89t-4.5 -89q0 -79 25 -137q3 13 11 39q12 37 53 89q47 59 78 59q2 0 135 -84q138 -89 169 -102
q49 -11 144 -40q-15 -11 -42 -14q-40 -4 -45 -5v-43q0 -7 26.5 -79t31.5 -79q2 -3 13 -12q0 22 3 60q3 46 4 60q4 88 53.5 104t139.5 16q54 0 128 -26q90 -32 90 -74q0 -36 -13.5 -106t-13.5 -106q0 -55 29 -178q8 96 27 179q7 45 29 133q28 78 114 168q77 81 158 130z
M691 1201q0 47 -17 70.5t-68.5 47t-82.5 23.5q0 -5 -2 -15t-2 -16q0 -11 36 -46t36 -85q0 -86 -62 -167q-20 -27 -56 -46t-63 -19q-83 0 -98 71h4q34 -36 77 -36q59 0 95 37q22 25 51 90q26 60 26 72q0 22 -19.5 47t-40.5 25q-6 0 -35 -15t-35 -15q-34 0 -59 29.5t-25 63.5
q0 56 49 111q-18 11 -163 55q14 -31 32 -101q5 -56 9 -112q13 -81 52 -81q4 0 18 8l10 -10q-27 -40 -40 -40q-29 0 -54 36q-21 30 -27 62q1 13 -3 38q-7 22 -42 44.5t-59 22.5q-10 0 -15 -6q50 -82 140 -249q6 -21 21 -61q53 -128 99 -168q19 -17 67 -17q73 0 108 36
q69 70 116 191q6 12 16 38q6 26 6 87zM477 1342q0 -18 -10 -36q-12 -21 -28 -21q-35 0 -35 47q0 56 40 56q33 0 33 -46zM1004 759l-16 -9l-217 108l5 14q41 -12 124 -49q97 -45 104 -64zM450 1359q-4 4 -8 12h-8q-7 -9 -7 -15v-4q0 -5 5 -10q2 1 18 17zM453 1320v3
q-11 -3 -30 -14q9 -9 21 -9h5q1 2 1 3q3 7 3 17z" />
  </g>

</svg>
