<?xml version="1.0" standalone="no"?>
<!DOCTYPE svg PUBLIC "-//W3C//DTD SVG 1.1//EN" "http://www.w3.org/Graphics/SVG/1.1/DTD/svg11.dtd" >
<svg viewBox="0 -442 2048 2048">
  <g transform="matrix(1 0 0 -1 0 1606)">
   <path fill="currentColor"
d="M1954 1063q-30 -32 -90 -95q-1 -25 -6 -75q-11 -64 -53 -164q-3 -7 -28 -50q-24 -39 -24 -42q0 -4 18 -48q20 -47 22 -56q9 -34 9 -132q0 -43 -41 -149q8 -7 40 -7q8 0 45 19h16q5 -4 5 -20q0 -6 -9 -28t-10 -29q28 -22 28 -29q0 -52 -93 -82q32 -46 91 -70v-30
q-17 -11 -49 -33q8 -8 8 -26q0 -51 -69 -51q-92 0 -127 12q-60 21 -136 89q-79 71 -96 127q-18 -28 -67 -75q-21 -13 -105.5 -41.5t-104.5 -28.5q-174 0 -192 -12q-3 -2 -74 -86q-28 -33 -102 -93q-85 -67 -110 -67q-44 0 -44 57q0 13 15 43q-9 0 -26 -6.5t-25 -6.5
q-40 0 -40 27q0 -9 14 25q13 31 105 86q12 7 90 84q-1 1 -3 2q-22 0 -32 -5q-13 -13 -38 -35q-134 -104 -154 -104h-46q-4 21 -4 17q0 9 22 31q-13 13 -45 28v18q11 4 31 13q9 5 87 73q-24 4 -71 19q-48 25 -145 73q-15 1 -45 6q-47 12 -47 81q0 39 0 31q26 26 63 26
q22 0 78 68q-20 33 -29 33q-14 0 -43.5 -4t-43.5 -4q-192 0 -192 52v251q16 8 25 8q7 0 19.5 -5.5t19.5 -5.5q58 0 111 41v207q0 14 12.5 29t25.5 15q16 0 21 -8q20 -73 57 -185q48 19 116 88q86 89 110 107q48 36 66 48q45 29 72 33q34 2 101 8q-10 -11 -31 -32q3 -3 4 -2
q102 27 135 27q84 0 210 -28t205 -65q38 -18 110 -64q12 -13 38 -36q16 -7 46 -25q8 -10 26 -28q15 -12 54.5 -31t54.5 -19q31 0 82 62q48 59 52 92q5 40 5 47q0 41 -30 79.5t-30 36.5v35q21 5 18 5q9 0 28 -19q2 3 2 8q0 10 -7.5 28t-7.5 26q0 21 21 21q18 0 28 -28
q5 -22 11 -44q13 8 18 29q3 18 7 35h25q-3 -22 -3 -43t3 -40q21 12 42 11v-25zM1818 -1q-18 7 -62 35t-52 40q-3 4 -15 59t-12 63q0 4 29 69q30 69 34 80q9 29 9 96q0 118 -20 149q-11 7 -33 22v12q-1 7 -1 12q0 22 23 37q34 22 37 26q8 10 39 82q-36 -46 -46 -56
q-28 -26 -65 -29q-4 0 -13 -3t-14 -3q-18 0 -38 13q-16 12 -33 23q-9 2 -26 10q-41 35 -126 100q-57 38 -149 78q-106 45 -157 45q2 -88 -74 -183q-7 -9 -52 -36t-55 -27q-25 0 -25 26q0 21 44 52q31 20 62 41q11 9 32.5 52.5t21.5 57.5v17h-59q-10 0 -81 -43q-5 -3 -53 -47
q-3 -1 -18 -1q-10 0 -13 3v34q0 26 56 61q27 11 80 34q-13 0 -39.5 1t-39.5 1q-78 0 -153 -35v19q-51 -5 -158 -101l-148 -138q-21 -12 -62 -36q31 -85 105 -188q25 19 72 61v5q0 5 -5.5 16.5t-5.5 17.5q0 7 10 10q32 -40 62 -45q42 -8 47 -11q2 -23 -18 -25q-30 -3 -31 -4
q-3 -50 -17 -148q-20 -83 -134 -158q-58 -38 -100 -38q-10 0 -91 30v-41q7 -8 24 -19q31 -4 91 -17q51 -16 153 -46q29 -7 87 -23q7 -7 23 -16q19 -5 53 -5q43 0 58 9q4 3 18.5 20t18.5 17q17 0 17 -17q0 -64 -88 -149q-73 -71 -147 -107h16q10 0 29.5 2.5t28.5 2.5
q7 0 13 -1q-8 -29 -21 -88q18 -2 107 81q73 67 106 105q37 42 49 77q1 15 7 41q19 37 79 37q1 0 3 -2v-29q0 -5 -8.5 -24t-9.5 -24h164q21 0 91 28q66 26 89 41q65 42 74 137q3 6 11 6q-5 0 12 -3q9 -49 17 -98q14 -66 37 -88q47 -45 123 -83q83 -43 139 -43q5 0 22.5 9.5
t21.5 10.5q-19 8 -50 38q46 15 73 26zM538 369q-6 12 -21 35q-22 27 -64 83q-136 198 -150 381v-92q0 7 13 -81q27 -181 141 -354q8 -13 14 -27zM340 448q-27 45 -40 102q-19 85 -25 102q-10 -7 -32 -18q-25 -7 -130 -6v-152q0 -18 47 -36q41 -16 64 -16q94 0 116 24z
M780 850h-25q-10 17 -20 34.5t-34 14.5v24q0 21 34 21q16 0 30.5 -15.5t14.5 -31.5v-47zM743 766q0 -129 -63 -129q-59 0 -59 139v30q0 14 17 68q26 13 38 13q67 0 67 -121zM678 805v17q-4 6 -13 16q-13 -26 -13 -27q0 -6 13 -19zM728 739q0 5 -18 23q-5 -44 -27 -55
q-1 -2 -1 -10q0 -4 9 -22q37 32 37 64z" />
  </g>

</svg>
