<?xml version="1.0" standalone="no"?>
<!DOCTYPE svg PUBLIC "-//W3C//DTD SVG 1.1//EN" "http://www.w3.org/Graphics/SVG/1.1/DTD/svg11.dtd" >
<svg viewBox="0 -442 2446 2048">
  <g transform="matrix(1 0 0 -1 0 1606)">
   <path fill="currentColor"
d="M2446 930q0 -30 -46 -30q-22 0 -51 10q-7 -85 -77 -85q-18 0 -45 30q-33 -35 -60 -35q-13 0 -32 28q-22 33 -29 38q-1 -4 -2 -9l23 -49q27 -58 27 -134q0 -180 -135 -293q80 -105 80 -122q0 1 -69 -199q-25 -72 -25 -127q0 -50 -48 -50q-78 0 -78 35q0 9 20.5 42.5
t20.5 47.5q0 27 -3 81.5t-3 80.5l-12 9q-41 -71 -57.5 -125t-21.5 -107q-1 -19 -6 -47q-9 -17 -55 -17q-63 0 -63 35q0 8 20 46.5t20 64.5q0 16 -4 70q-4 44 -1 71q-39 9 -114 35q-3 1 -39 22q-29 17 -37 17q-27 0 -69 -14q-53 -17 -69 -20q-89 -16 -178 -16q-59 0 -131 10
q-39 -77 -47 -174l-14 -176q-57 -31 -90 -31q-38 0 -38 33q0 10 20 47.5t20 59.5q0 85 -33 181q-57 -46 -88 -165q-33 -125 -41 -134q-16 -17 -63 -17q-65 0 -65 30q0 5 29.5 49.5t33.5 54.5q12 32 12 89q0 6 -5 219q-85 69 -279 102q-198 34 -230 58q5 37 5 28q0 6 -9 6
q-10 0 -27.5 -7.5t-27.5 -7.5q-15 0 -47 62q-31 59 -31 78q0 30 94 89l50 112q31 67 67 102q20 17 41 35q33 28 33 33q0 10 -65 72q16 43 83 43q66 0 96 -80q374 190 730 190q254 0 469 -51q298 -70 393 -219q69 35 86 35q5 0 13 -2.5t13 -2.5q19 0 56 10t56 10
q15 0 41.5 -10t41.5 -10q7 0 18.5 5t18.5 5q29 0 29 -45zM2305 897q0 15 -22 48q-14 -7 -28 -6v-46q0 -23 25 -23t25 27zM2194 886q-7 43 -22 43h-22v-58q6 -3 12 -3q20 0 32 18zM1859 207q-134 42 -187 117q-37 -30 -83 -48l98 -24q69 -20 85 -41q0 -24 3.5 -75t3.5 -77
q0 -52 -35 -115h34q7 81 81 263zM2114 692q0 117 -67 209q-110 151 -391 220q-204 49 -463 49q-312 0 -742 -210q-11 31 -23 62q-15 38 -46 38q-8 0 -25 -7q50 -47 50 -76q0 -23 -45 -60q-63 -52 -98 -114q-48 -85 -59 -101q-34 -49 -83 -84q24 -99 53 -99q34 0 93 37.5
t84 37.5q30 0 30 -22q0 -10 -117 -101q48 -9 144 -26q186 -34 305 -99q18 -9 47 -40q12 -24 12 -245q0 -96 -70 -172h44q26 79 92 231q33 59 110 173q22 29 57 92q8 34 15 69q13 55 25 55q5 0 13 -4q2 -5 4 -11q0 -45 -32 -122q-14 -25 -38 -77q127 -41 238 -41
q196 0 361 68q62 25 62 49q0 18 -35 90.5t-35 90.5q0 15 21 12q37 -79 73 -158q53 -110 98 -131q12 -6 96 -25q61 -14 85 -44q-1 -9 -1 -24q0 -18 1.5 -53.5t1.5 -53.5q0 -82 -35 -130h40q-1 8 -1 14q0 50 27 126q69 193 69 191q0 8 -42.5 65.5t-42.5 65.5q22 25 48 55
q92 114 92 230zM1068 233q-32 5 -93 26q-37 -47 -37 -58q0 -35 27.5 -100t27.5 -100q0 -22 -32 -112q14 4 40 16q0 57 13 171q10 49 54 157zM387 759q0 -40 -27 -40q-33 0 -33 68q0 33 23 33q37 0 37 -61zM374 750v10q0 6 -3 9q-5 -9 -14 -22l13 -13q4 8 4 16zM349 784h-7
l-6 -17l7 -3z" />
  </g>

</svg>
