<?xml version="1.0" standalone="no"?>
<!DOCTYPE svg PUBLIC "-//W3C//DTD SVG 1.1//EN" "http://www.w3.org/Graphics/SVG/1.1/DTD/svg11.dtd" >
<svg viewBox="0 -442 2048 2048">
  <g transform="matrix(1 0 0 -1 0 1606)">
   <path fill="currentColor"
d="M1677 750q0 -13 -20 -32t-20 -26q0 -2 18 -26q1 -10 1 -20q0 -39 -31 -59q11 -5 25 -36q3 -17 3 -37q0 -25 -59 -70q-26 -20 -69 -26q-38 -4 -75 -8q-19 -29 -63 -80q-19 -10 -48 -38q-2 -11 -10 -31q-16 -17 -44 -54q-7 -27 -26 -78q-33 -62 -180 -117
q-12 -115 -12 -140q0 -4 -1.5 -11.5t-1.5 -11.5q0 -21 64 -76q43 -34 86 -69v-21q-17 -5 -19 -5q-9 0 -75.5 37t-104.5 37q-27 0 -47 -39q-13 -31 -27 -61q-3 -5 -19 -20h-21q-5 7 -5 21q0 13 14 58t14 70q-10 10 -28 10q-8 0 -24 -6t-24 -6q-10 0 -17 9v17q34 14 69 28
q45 19 59 38v114q-78 23 -80 23q-5 0 -27 -19q-25 -21 -30 -23q-12 -1 -34 -12q-3 -2 -58 -114q20 -19 60 -39q48 -25 63 -35q11 -12 32 -35q-14 -14 -24 -14q-4 0 -34 14t-38 16q-21 5 -67 5q-26 0 -87 -52q-43 -36 -85 -72h-21q-5 4 -5 15q0 5 23 43t24 64q-16 10 -35 10
q-28 0 -74.5 -21.5t-72.5 -21.5q-5 15 -5 16q0 17 106 57q116 44 138 74q7 9 36 99q-12 4 -34 15q-32 21 -82 98.5l-50 77.5q-20 3 -58 14q-47 22 -112 94t-78 120q-9 33 -9 132q0 83 9 121q8 18 21 54q63 210 63 262q-72 -20 -70 -20q-48 0 -76 40q-25 36 -25 86
q0 14 14 41q19 33 21 40q-17 16 -55 16q-63 -1 -61 -1v31q0 18 47 56q51 39 52 42q8 58 17 116q13 76 66 76q3 0 10 -2t10 -2q-2 0 29 35t66 35q33 0 51 -43q24 8 42 8q60 0 60 -56q0 -24 -19 -41q-28 -25 -32 -32q101 -24 142 -42q56 -26 121 -86q9 -8 38 -63.5t29 -65.5
v-193q78 -21 228 -53q112 -24 140 -24q16 0 74 91q69 108 74 113q23 25 75 25q48 0 86 -42q17 11 42 11q10 0 39 -19.5t32 -27.5t6 -63q34 -40 34 -49q0 -8 -7 -28q-8 -25 -9 -31q38 -18 45 -28.5t7 -50.5zM1625 762q0 25 -19 25q-7 0 -21 -9.5t-24 -9.5q-3 1 -6 3
q-3 13 -3 14q0 6 17 38t17 39v37h-24q-4 0 -7 -3.5t-7 -3.5q-9 0 -16 10q27 54 27 68q0 34 -38 34q-31 0 -61 -42.5t-46 -42.5q-14 0 -14 9q35 49 51 87q-7 17 -44 17h-12q-19 0 -92 -117t-124 -117q-73 0 -292 57q-85 22 -88 22t-9.5 -2t-9.5 -2q-15 0 -31 10v221
q0 5 -7 16t-8 15q-26 85 -113 143q-83 56 -175 56q-46 0 -91 -13q-26 -15 -73 -30l-2 3v10q22 19 115 58q69 29 94 87q-13 13 -23 13q-26 0 -61 -40.5t-34 -40.5q-8 0 -10 6v27q0 5 15.5 26t15.5 38q0 7 -9 23q-53 -22 -75 -83q-24 -67 -26 -69q-5 32 -3 78l-13 4
q-22 -14 -29 -67q-4 -39 -9 -78q-7 -25 -40 -49q-41 -29 -50 -41q14 1 22 1q45 0 74.5 -15t29.5 -30q0 -7 -25.5 -37t-25.5 -56q0 -29 2 -34q17 -44 53 -44q23 0 55 25t37 47q2 15 8 45h10q10 -9 10 -24q0 -5 -3.5 -13t-3.5 -12v-162q0 -44 -37 -171q-31 -105 -31 -222
q0 -57 7 -89q8 -39 54.5 -94t84.5 -73q26 -6 66 -22q10 -21 31 -60q70 -117 112 -147q17 -7 50 -26q-46 -140 -77 -157q-59 -33 -112 -33q-5 -5 -5 -13q-6 1 45 1q23 0 37 -16q0 -9 -10.5 -22.5t-9.5 -28.5h18q55 73 108 73q9 0 41 -5q-21 13 -43 25q-31 20 -31 32
q0 8 30 55q35 53 38 60q2 13 10 31q25 16 69 52q-54 26 -54 85q0 1 2 6q61 -56 135 -84q30 -6 89 -20l1 -73q0 -91 -5 -98q-20 -3 -48 -18q-35 -19 -46 -23q16 0 47 -16v-14q0 -26 -4 -41h14q26 42 64 42q31 0 49 -9q31 -15 39 -18v14q-13 6 -39 21q-42 28 -42 55v164
q0 30 12 45q8 10 53 24q67 21 129 89v14q-6 0 -19 -2t-20 -2q-34 0 -86 21q-115 46 -183 168q-19 28 -44 81q-9 45 -9 83q0 20 24 20q13 0 30 -54q11 -35 21 -69q27 -63 47 -86q95 -109 206 -109q73 0 105 67q6 13 6 28q0 16 -21.5 65.5t-21.5 69.5l3 3h18q7 -8 21 -16
q12 21 15 54q4 46 6 56q4 16 15 14q27 -33 27 -51q0 -71 -39 -114q17 -23 20 -44q43 28 66 94q31 90 43 108l5 3h3l6 -6v-81q0 -17 -7 -29h44q29 0 62 22t33 50q0 20 -10 23h-26q-19 0 -30 12v4q0 18 31 43q36 28 43 50l-9 9h-20q-5 0 -12 -6t-13 -6q-4 0 -5 2l1 1v10
q77 66 77 94zM512 1261h-17q-4 0 -6 10q0 7 -1 14q-9 11 -26 33h13q8 0 22.5 -12t14.5 -20v-25zM478 1227q0 -67 -68 -67q-60 0 -60 71q0 68 64 68t64 -72zM462 1208v21q-9 2 -26 4q-1 -4 -9 -16.5t-8 -18.5q0 -4 2.5 -8.5t2.5 -6.5h22q16 30 16 25zM403 1256q-4 0 -13 -2
t-13 -2v-18l22 -4z" />
  </g>

</svg>
