<?xml version="1.0" standalone="no"?>
<!DOCTYPE svg PUBLIC "-//W3C//DTD SVG 1.1//EN" "http://www.w3.org/Graphics/SVG/1.1/DTD/svg11.dtd" >
<svg viewBox="0 -442 2048 2048">
  <g transform="matrix(1 0 0 -1 0 1606)">
   <path fill="currentColor"
d="M1812 75v-27q-1 -18 -1 -27q0 -64 -64 -128q-26 -14 -71 -50q-1 -2 -8.5 -28.5t-23.5 -32.5q-12 -5 -54 -5q-30 0 -38 12q-5 9 -4 39q-14 6 -41 21q-62 39 -62 107q0 49 17 74q4 6 42 39q34 31 34 36q0 10 -51 71t-64 69q-9 3 -26 10q-10 5 -18 54q-5 31 -30 70.5
t-51 54.5q-22 -67 -22 -104q0 -84 22 -87h7q46 0 91.5 -31.5t58.5 -74.5q4 -13 4 -73q0 -32 -40 -79q-36 -42 -70 -61q-13 -3 -35 -14q-6 -13 -17 -36q-54 -20 -53 -20q-13 0 -58 21q-7 22 -2 45q-50 26 -67.5 56.5t-17.5 88.5q0 33 62 85t62 53q0 5 -29 41q-34 44 -35 45
q-8 16 -23 49q-90 -91 -253 -137q-25 -3 -73 -14q-13 -10 -42 -25q-17 -2 -49 -11q0 -8 9 -94q19 -5 56 -21q91 -58 91 -159v-26q0 -62 -70 -111q-64 -45 -129 -45q-27 -60 -74 -60q-55 0 -55 47q0 18 11 35q-14 22 -44 22q-82 0 -111 -17q-7 -11 -23 -28q-30 -25 -68 -25
q-21 0 -41 15.5t-20 36.5q0 18 23 46q-41 43 -41 141q0 34 3 44q19 65 50 93q17 16 55 28q35 12 51 30q3 3 12 56q-23 20 -96.5 34t-113.5 54q-70 70 -70 164q0 72 50 144q-54 42 -64 53q-28 32 -28 76q0 65 45 140l84 124q15 24 64 149q14 36 14 34q0 -8 -22 26
q-53 81 -53 181q0 86 87 139q31 11 93 34q48 18 98 18q94 0 230 -48q12 -8 35 -24q27 -13 76 -48q25 -24 62.5 -91.5t48.5 -104.5q10 -66 45 -192q14 -34 87 -85h5q-24 28 -24 88q0 50 9 70q14 31 53 68q59 56 148 56q99 0 157 -82q68 -96 68 -123v-105q0 -8 -17.5 -28.5
t-26.5 -24t-26 -12.5q15 -12 41 -41q29 -44 29 -88q0 -14 -15.5 -35t-15.5 -28q0 -4 13 -18q14 -17 16 -20q25 -43 25 -129q0 -51 -13 -91q-7 -21 -7 -20q0 -14 61.5 -105t69.5 -91q6 0 17 1.5t17 1.5q28 0 42 -5q110 -40 110 -100zM1427 941q0 65 -22 110q-3 8 -58 96
q-52 13 -96 13q-56 0 -96 -43t-40 -99q0 -159 215 -159q97 0 97 82zM1426 709q0 19 -22 63.5t-37 48.5q-22 1 -65 4q-82 6 -152 43q74 -132 70 -225q9 -17 67 -17q139 0 139 83zM1762 17q0 64 -25 85q-33 28 -52 28h-39q-10 -42 -14 -45t-47 -3q-10 0 -16 -3
q-74 -35 -74 -114q0 -21 16.5 -49.5t34.5 -37.5q10 -5 38 -5q128 0 175 128q3 8 3 16zM1184 624q0 76 -34 162q-7 24 -29 66q-20 26 -53 45q-27 8 -77 33q-71 49 -91 153q-29 144 -44 172q-65 123 -134 161q-93 51 -204 51q-103 0 -197 -60q-10 -5 -27 -19q-18 -24 -18 -55
q0 -70 29 -152q1 -4 10 -19.5t9 -20.5q0 -66 -94 -228q-34 -52 -67 -104q-39 -64 -39 -114q0 -16 1 -25q50 -67 76 -67q12 0 70 80q53 72 66 98q25 50 25 86l-64 26q-36 20 -36 52q0 16 34 51q40 42 45 50v3q0 13 -5 38t-5 38q0 47 48 47q37 0 37 -60q0 -56 -24 -63
q-20 -5 -40 -9q-11 -9 -32 -55q46 -14 46 -38q0 -13 -19 -40h40q34 0 74 36q22 32 68 95q12 20 25.5 40.5t36.5 20.5h6q5 0 7 -3v-22q0 7 -61 -77.5t-61 -138.5q0 -122 24 -154q10 -13 42 -44q35 -34 43 -34h118q9 0 49 13t49 19q85 53 85 160q0 63 -24 106q-16 30 -69 84
q-109 111 -109 135q0 34 3 53q5 8 12 10q16 -8 24 -38q10 -38 15 -46q16 -25 100 -105q72 -70 85 -109q17 -51 17 -113q0 5 -30 -90q-20 -63 -96 -107q-70 -41 -141 -41q-127 0 -194 76q-47 53 -50 103q-1 15 -1 56q0 37 4 87q-18 -7 -56 -19q-5 -111 -82 -212
q-36 -47 -72 -115q-43 -83 -43 -124q0 -34 32 -97q37 -72 197 -91l94 -11h53q35 -1 53 -1q108 0 158 11q167 37 292 127q86 63 113 223q7 42 7 54zM369 1107v29h-18v-29h18zM400 1073v32h-22q7 -5 7 -10q0 -3 -5.5 -9.5t-5.5 -13.5q0 -11 5 -16q9 5 21 17zM1416 81
q0 55 -23 74q-35 19 -70 37v-16q1 -10 1 -15q0 -31 -41 -31q-13 0 -24.5 12t-22.5 23q-90 -68 -90 -123q0 -42 43 -71q38 -25 82 -25q24 0 46 5t60.5 56t38.5 74zM304 950v14q-5 2 -14 4l-12 -9v-18h17zM634 35v114q-108 0 -156 8q0 -8 -2 -36q-2 -22 -2 -36q25 -3 89 -33
q35 -25 33 -25q14 0 38 8zM815 -107q0 27 -13 45q-10 14 -35 31q-28 19 -42 19q-10 0 -30 -5.5t-30 -5.5q-9 0 -20.5 9.5t-17.5 9.5q-13 0 -49 -28.5t-42 -41.5q-9 -21 -9 -71q0 -116 144 -116q66 0 105 44t39 110zM543 -2q-52 52 -79 52q-3 0 -18 -13.5t-28 -13.5
q-12 0 -36 18q-1 8 -7 9q-57 -26 -75 -75q-12 -32 -12 -107q0 -49 28 -78q10 -10 43 -21t49 -11q18 0 88 20q-15 46 -15 68q0 85 62 152zM519 1209q-5 1 -16 5t-18 4q-2 0 -30 -7q13 26 32 26q25 0 32 -28zM400 1206h-16q-4 0 -8 6t-8 6t-12.5 -3.5t-12.5 -3.5v5q0 21 27 21
q14 0 30 -17v-14zM531 1102q0 -6 -10 -28t-14 -24q-10 -5 -30 -5q-42 0 -42 46q0 77 52 77q44 0 44 -66zM473 1111l-4 18q-7 0 -14 -8v-14zM508 1077l-5 25q-22 -11 -22 -21v-20h19q0 8 8 16z" />
  </g>

</svg>
