<?xml version="1.0" standalone="no"?>
<!DOCTYPE svg PUBLIC "-//W3C//DTD SVG 1.1//EN" "http://www.w3.org/Graphics/SVG/1.1/DTD/svg11.dtd" >
<svg viewBox="0 -442 2048 2048">
  <g transform="matrix(1 0 0 -1 0 1606)">
   <path fill="currentColor"
d="M1318 231q0 -61 -77 -61q-17 0 -59 21t-53 34q-20 37 -63 110q-14 -49 -50 -145q-79 -164 -148 -266q-11 -16 -14 -40q-3 -29 -7 -40q-9 -15 -26 -45q15 -2 45 -8q20 -8 62 -23q9 -13 9 -25q0 -31 -35 -31q-10 0 -29 6.5t-29 6.5q27 -25 27 -34q0 -25 -31 -25
q-20 0 -58.5 15.5t-58.5 15.5q-6 0 -17.5 -10t-17.5 -10t-45 20q-6 -10 -2 -30q-20 -24 -41 -24q-4 0 -24 8t-26 9q-89 17 -164 17q-7 0 -20 -2t-20 -2q-37 0 -37 24q0 4 12 24t12 27q0 18 -19 52q-26 49 -27 52q-61 150 -80 235q0 2 -1 56q-10 0 -30 -2t-30 -2
q-64 0 -64 46q0 32 52 112.5t52 91.5q0 5 -3.5 15t-3.5 15v114q0 33 31 159q10 42 46.5 111t100.5 270q4 12 30 56q22 37 22 54q0 13 -5 39t-5 39q0 84 27 124q45 67 130.5 111t166.5 44q75 0 155 -36q20 -15 62 -44q16 -10 65 -27q46 -8 92 -17q56 -11 74 -48
q-48 -4 -136 -26q-22 -10 -54 -67q-6 -11 -37 -41q48 -51 96 -101q51 -60 72 -118q36 -102 36 -274q0 -8 10 -38q10 -33 12 -42q13 -78 56 -204q5 -15 54 -114q38 -76 38 -112zM1075 1384q-6 0 -17 3t-17 3q-25 0 -77 -18.5t-69 -34.5q51 13 71 13q15 0 53 14q46 18 56 20z
M713 1490v15h-24q-9 0 -21 -16v-18q6 1 22 12q12 8 23 7zM775 1395q0 75 -52 75q-44 0 -44 -63q0 -55 65 -54q-38 6 -38 44q0 11 9.5 25t19.5 14q33 0 33 -42q0 -14 -8 -27q15 7 15 28zM752 1375v14h-15v-22q7 0 15 8zM552 1324q0 11 -11 27t-22 16q-17 0 -42 -16t-28 -32
q-5 -24 -5 -68v-61l5 -4q25 14 79 28q-11 23 -11 27q0 11 17.5 44t17.5 39zM1080 849q0 76 -33 162q-15 39 -53 83q-58 68 -64 76q-7 12 -22 35q-30 -8 -56 -8q-33 0 -99 15.5t-99 15.5l-106 -24v-224q0 -17 -28 -90q-26 -69 -39 -90q-41 -69 -41 -68q0 -9 16 -59
q18 -55 20 -67q10 -51 10 -69q0 -116 -185 -329l-28 -26t-14 -35q0 -60 48 -191q15 -42 59 -126q10 -18 27 -55l6 -24q21 5 54 5q13 0 38 -1t38 -1q43 0 42 39q-1 62 7 76q29 -1 84 6q15 9 49 18l3 -3v-21q-41 -21 -73 -28q-12 -67 -12 -83h74q12 0 47 41.5t39 56.5
q1 28 14 76q203 364 263 643q14 65 14 274zM258 701q-23 -25 -43 -99q-17 -67 -17 -109q0 5 5 -38q56 85 55 246z" />
  </g>

</svg>
