<?xml version="1.0" standalone="no"?>
<!DOCTYPE svg PUBLIC "-//W3C//DTD SVG 1.1//EN" "http://www.w3.org/Graphics/SVG/1.1/DTD/svg11.dtd" >
<svg viewBox="0 -442 2048 2048">
  <g transform="matrix(1 0 0 -1 0 1606)">
   <path fill="currentColor"
d="M1955 731q0 -268 -34 -378q-22 -70 -41 -70q-7 0 -12 2q-8 17 -26 48q-2 -4 -2 -12q0 -72 9 -103q33 -115 33 -142q0 -9 -25 -67q-26 -62 -31 -85q-6 -80 -25 -239q-3 -17 -15 -24h-141q-9 0 -25 -6t-25 -6q-15 0 -23 1q-4 17 -18 49q-3 4 -21 20q-8 7 -8 35q0 27 26 41
q24 11 47 22q22 15 70 150q47 131 47 166q0 127 -35 182l-48 62q-17 26 -17 80q0 21 2.5 62.5t2.5 61.5l-6 6q-124 -132 -258 -157q-53 -10 -61 -10q-33 0 -73 27q-62 43 -67 45l-2 -2q0 -40 45.5 -136.5t45.5 -138.5q0 -23 -12 -63q-15 -48 -17 -64q-5 -35 -5 -99
q0 -107 32 -223q10 -36 10 -62q0 -20 -28 -43h-203q-6 7 -15 24q-1 11 -6 33q-46 22 -46 70q0 8 22 30q14 9 39 28q21 20 21 79q0 66 -12 117q-17 55 -33 110q-2 7 -2 18q0 19 6.5 56.5t6.5 56.5q0 38 -23 119q-1 34 -28 102q-53 68 -74 68q-3 0 -36 -13.5t-48 -13.5
q-30 0 -76 14q-13 1 -38 7q-57 23 -117 76q-24 29 -72 86q-22 -15 -21 -15q-16 0 -25 38q-9 -14 -17 -38h-22q-7 33 -22 64q-6 -8 -18 -22h-13q-23 35 -23 99q0 77 26 168q-15 11 -77 42q-65 32 -77 32q-10 0 -28 -5.5t-28 -5.5q-25 0 -28 24q0 -3 0 42q0 21 -17.5 46
t-17.5 44q0 38 39 112q44 83 195 83q18 0 51 -1t48 -1q47 0 72.5 28.5t55.5 28.5q34 0 34 -71q0 -14 -6.5 -40.5t-6.5 -39.5q0 -54 48 -180q14 -51 28 -103q24 -67 67 -67q69 0 101 27q9 8 23 48q22 63 50 106q41 62 77 62h147q40 32 76 103q60 115 60 116q14 22 54 47.5
t65 25.5h87q30 0 99 -77q22 -104 90 -201q1 -1 33 -27q35 -18 106 -57q63 -37 91 -67q11 -12 32 -66q23 -42 51 -133q6 -55 6 -166zM1905 688q0 85 -7 137q-13 100 -29 138q-25 64 -90 107q-12 10 -39 28q-22 8 -64 29q-80 49 -118 140q-66 154 -73 165q-47 19 -129 19
q-47 0 -97 -78q-32 -60 -65 -120q-24 -43 -46 -58t-69 -15q-13 0 -38 2t-38 2q-44 0 -70 -33q-10 -13 -39 -72q-10 -17 -29 -52q-2 -18 -13 -49q-9 -15 -36 -22q-21 -4 -42 -9q-56 -18 -58 -18q-58 0 -85 48q-6 9 -34 95q-13 26 -32 80q-3 13 -25 157l-16 -14
q-5 -1 -18.5 -5t-21.5 -4t-11 6v11q24 21 47 42q18 21 18 61q0 23 -5 36q-32 -27 -108 -64q-28 -6 -128 -6q-106 0 -138 -45q-35 -49 -35 -69q0 -15 24 -40q13 3 36 12q27 31 76 64l4 -3v-22q0 -18 -53 -57q-58 -42 -64 -54l21 -5q17 19 24 19q24 0 43 -16q26 -22 34 -25
q86 -36 171 -36q32 0 46 23.5t17 23.5q2 0 12 -3v-21q0 -28 -28.5 -47.5t-60.5 -19.5q-12 0 -21 3q1 -3 1 -8q0 -10 -8 -25q-9 -19 -11 -25q-6 -53 -18 -158l6 -4q10 17 31 50q2 -13 4 -96l-5 -6h22q0 2 -1 5q0 12 15 32q7 -14 23 -42q6 18 26 50q2 -12 11 -34
q43 -70 118 -124q84 -59 158 -59q56 0 72 16q-7 19 -18 58q-5 28 -5 78q0 71 12 96q7 15 26 14l4 -3q0 -104 12 -166q11 -55 84 -138q11 -10 28 -33q21 -43 60 -157q44 -124 44 -153q0 -11 -4 -32t-4 -32q0 -15 11 -26.5t22 -22.5q13 -17 13 -124q0 -210 -30 -233
q-3 -2 -34 -12q-20 -7 -23 -29h159q-42 184 -42 223q0 43 13.5 127t13.5 127q0 49 -33 124q-39 89 -46 122q-24 119 -24 193q0 6 1 16.5t1 16.5q0 36 -10.5 106.5t-10.5 106.5v7h9q18 -18 22 -42l8 -48q2 -7 14 -45q12 -33 12 -39v-129q115 -81 159 -81q199 0 305 180
q10 12 24 38q9 26 9 88q0 18 -13 53t-13 53q0 13 16 13q19 0 35 -82q13 -66 13 -102v-312q58 -57 78 -162q11 -92 22 -183q7 -52 7 -72q0 -155 -85 -234q-36 -22 -97 -78q53 14 96 14q63 0 70 5q1 57 18 166q18 122 36 157q2 3 19 28q15 22 15 26q0 -7 -22 34
q-29 54 -29 213q0 25 16 93q21 91 22 99q7 57 29 168q4 13 12 21q6 -19 6 -49q0 -81 -9 -142q-18 -122 -18 -109q0 -33 18 -51q32 125 32 319zM519 1398q0 -45 -30 -47q-5 4 -5 11q0 10 29 53l2 -2q4 -6 4 -15zM404 1303q0 -19 -15 -45q-17 -29 -34 -29q-22 0 -38 25
q-15 22 -15 45q0 10 8 23q40 9 71 9h23v-28zM184 1310q0 -3 -19 -50h-22q0 5 -4 9q23 31 44 51q1 -4 1 -10zM340 1287v21h-18v-21h18z" />
  </g>

</svg>
