<?xml version="1.0" standalone="no"?>
<!DOCTYPE svg PUBLIC "-//W3C//DTD SVG 1.1//EN" "http://www.w3.org/Graphics/SVG/1.1/DTD/svg11.dtd" >
<svg viewBox="0 -442 2048 2048">
  <g transform="matrix(1 0 0 -1 0 1606)">
   <path fill="currentColor"
d="M1955 633q0 -263 -63 -401h-32q-3 14 -16 39q-5 -10 -5 -22q0 -37 20.5 -106.5t20.5 -106.5q0 -9 -26 -73q-28 -68 -32 -85q-11 -89 -36 -265q-99 -15 -190 -15q-31 0 -36 17q-9 32 -13 37q-2 2 -23 20q-2 8 -2 28q0 34 17 44l44 20q43 29 89 160q42 121 42 185
q0 24 -12 77.5t-23 72.5q-32 42 -64 100l-5 176q-151 -164 -313 -164q-49 0 -81 25q-43 34 -65 41q-1 -7 -1 -16q0 -42 44 -127t44 -132q0 2 -25 -107q-9 -39 -9 -160q0 -82 13 -131q3 -12 20 -50q9 -21 9 -58q0 -38 -30 -52h-194q-20 21 -24 55q-15 10 -42 32q-2 7 -2 18
q0 50 37 64t37 83q0 11 -1 32t-1 32q0 38 -21.5 109.5t-21.5 108.5q0 18 8.5 52.5t8.5 52.5q0 21 -9 52q-14 46 -15 51q-2 30 -24 92q-11 18 -37 45q-30 33 -43 33q-18 0 -51.5 -13.5t-51.5 -13.5q-68 0 -158 63q-84 58 -123 122l-12 -13h-23q0 13 -12 33q-7 -8 -17 -33h-24
l-18 60q-10 -9 -34 -19q-23 38 -23 121q0 48 28 144q-124 77 -156 77q-8 0 -23 -6.5t-23 -6.5q-28 0 -33 20q-1 3 -1 43q0 20 -17.5 55t-17.5 51q0 30 35 100q42 84 206 84q18 0 52.5 -1.5t52.5 -1.5q11 0 54.5 26.5t54.5 26.5q19 0 31 -22q1 -12 1 -19q0 -15 -4 -43.5
t-4 -43.5q0 -77 46 -197l28 -106q23 -64 75 -64q79 0 104 38q7 20 23 59q13 28 75 126q29 58 59 116q36 69 84 94q41 22 78 22q74 0 114 -74q20 -35 46 -136q18 -74 41 -74q29 0 63 72q48 103 72 134q56 72 140 72q86 0 128 -74q116 -206 199 -437q19 -53 19 -244zM1899 634
q0 241 -83 389q-30 44 -80 138q-21 53 -42 107q-28 47 -98 47q-75 0 -134 -113q-68 -132 -120 -158q-18 11 -50 39q-16 20 -53 118q-34 90 -54 104q-25 17 -63 17q-50 0 -87 -48q-134 -176 -179 -304q-3 -21 -26 -57q-13 -10 -59 -22t-65 -12q-80 0 -127 151q-18 61 -43 219
q-30 -20 -57 -20q-12 0 -14 10q54 53 58 62q8 16 8 87q-80 -66 -178 -66q-111 0 -156 -16q-20 -7 -47.5 -45t-27.5 -59q0 -13 14 -39h7q28 0 59.5 36.5t51.5 36.5q7 0 8 -4l-1 -1v-17q-52 -63 -119 -106l15 -11q32 20 31 20q4 0 92 -40t133 -40q47 0 63.5 23t23.5 24l11 -11
q-14 -79 -83 -79q-15 0 -27 3q-2 -17 -21 -96q-13 -59 -13 -98q0 -11 2 -24q9 19 32 47q7 -36 7 -99q17 17 28 39q8 -14 18 -45q8 12 27 52q50 -87 119 -146q85 -72 169 -72q29 0 72 14v24q0 -16 -17 38q-9 29 -9 93q0 22 11 55q13 39 30 42l21 -177q4 -31 47 -84
q52 -65 61 -82q17 -35 58 -155q43 -127 43 -152q0 -10 -2.5 -31t-2.5 -31q0 -18 14 -33q19 -20 22 -27q10 -22 10 -161q0 -105 -10 -149q-5 -24 -33 -44q-35 -24 -43 -36h157q-39 107 -39 232q0 41 13.5 122.5t13.5 122.5q0 43 -24 100l-42 96q-40 108 -40 250
q0 11 2.5 33.5t2.5 33.5q0 27 -13 78.5t-13 78.5q0 10 8 20q63 -100 61 -302q99 -81 160 -81q195 0 295 166q39 64 39 102q0 28 -7 75q-9 54 -10 75l6 5q18 -12 35 -70q15 -52 15 -80v-341q0 -7 24 -35q35 -41 54 -120q28 -115 28 -266q0 -144 -86 -231q-45 -39 -90 -79
q18 5 162 20q-1 61 16 163q18 111 40 156q1 3 18 27q13 20 13 26q0 4 -18 35q-29 50 -29 170q0 45 31 198q14 103 42 222q14 -27 14 -49q0 -40 -13.5 -119.5t-13.5 -119.5q0 -25 17 -53q29 171 29 314zM517 1362q-3 -17 -7 -52q-8 -3 -25 -7v21q0 7 32 38zM405 1261
q-9 -27 -17 -53q-15 -38 -32 -38q-19 0 -37.5 26t-18.5 46q0 8 4 15.5t4 10.5h13q5 0 16 1t16 1q21 0 52 -9zM382 1235h-11l-8 -31h11zM335 1231v23h-10v-23h10z" />
  </g>

</svg>
