<?xml version="1.0" standalone="no"?>
<!DOCTYPE svg PUBLIC "-//W3C//DTD SVG 1.1//EN" "http://www.w3.org/Graphics/SVG/1.1/DTD/svg11.dtd" >
<svg viewBox="0 -442 2048 2048">
  <g transform="matrix(1 0 0 -1 0 1606)">
   <path fill="currentColor"
d="M1986 1156q0 21 -10 -74q-21 -196 -226 -329q-24 -8 -70 -25q-64 -26 -86 -26h-83l-31 -146q-6 -24 -15 -73v-197q0 -25 -38.5 -79.5t-38.5 -59.5q0 -17 19.5 -51t19.5 -52q0 -178 -132 -178q-12 0 -24 1q-1 -19 -5 -56q-5 -28 -40 -60.5t-64 -40.5q-25 -7 -125 -7
q-107 0 -131 7q-83 25 -105 101q-1 4 0 53q-59 5 -80 12q-41 14 -62 50l-11 43q-7 28 -7 75q0 16 18 53.5t18 49.5q0 3 -37 57.5t-37 86.5q0 23 1 69t1 69q0 52 -48 273h-76q-32 0 -97 26q-26 7 -74 29q-107 71 -154 143q-29 45 -51.5 122.5t-22.5 131.5q0 89 190 162
q49 19 65 19q26 0 112 -71q55 -47 110 -95q32 25 40 29q21 13 47 14q30 74 74 102q16 10 85 34q75 26 229 26q117 0 166 -7q90 -12 156 -56q16 -10 35 -48.5t31 -47.5q15 -4 42 -13q4 -2 20 -15.5t21 -13.5q-3 0 97 81t129 81q10 0 69 -22q186 -69 186 -157zM1940 1172
q-136 94 -205 94q-31 0 -105 -68l-98 -94h-15h-15q-11 20 -61 56q-12 2 -35 10q-18 10 -43 41q-30 35 -42 44.5t-66 25.5t-71 16h-300q-25 0 -75 -15q-53 -16 -69 -30q-19 -26 -63 -71q-28 -11 -81 -41q-46 -36 -45 -36q-22 0 -103.5 81t-112.5 81q-105 0 -207 -94
q8 -57 40 -168q38 -86 127 -145q17 -16 54 -44q82 -44 150 -44q13 0 57 9q-1 9 -1 13q0 41 22 48l51 -225q10 -37 25 -113v-189q0 -9 20 -42t29 -40q11 51 44 89q37 45 84 45q7 0 9 -3v-18q-16 -6 -45 -24q-41 -40 -62 -146q-2 -38 -18 -108q-2 -4 -14 -23.5t-12 -23.5
q0 -11 15.5 -41.5t24.5 -33.5q13 -5 44 -5t92.5 7.5t92.5 7.5q25 0 74 -1t74 -1q32 0 97 -6.5t97 -6.5q47 0 64 33q13 26 13 49q0 4 -16 43.5t-18 47.5q-7 58 -41 170q-13 26 -34 39l-42 26v15l3 3h30q35 0 70 -52q29 -41 40 -84q13 10 30 45.5t17 51.5l-4 179q0 5 17 59
q18 59 20 69q20 95 39 207h10q19 -25 15 -61q44 -9 57 -9q79 0 172 64q83 56 135 130q25 35 40 100q23 105 24 107zM1214 -154q0 21 -5 32q-90 9 -185 9q-90 0 -165 -8v-61q64 -51 94 -51q109 0 174 4q32 2 85 48q2 15 2 27zM1824 1188q-2 -12 -4 -37q-34 0 -43 -6
q-58 -38 -102 -172q-35 -106 -118 -106h-21q-57 0 -57 104q0 43 14 59q27 31 131 104q110 78 135 78q38 0 65 -24zM1433 903q-16 14 -31.5 27t-40.5 13q-4 0 -29 -29h-24q-5 5 -5 16q0 19 20.5 34.5t40.5 15.5t44.5 -13t24.5 -31v-33zM1460 838q0 -25 -41 -50
q-2 -50 -3 -101q-5 -60 -38 -88q-7 -6 -59 -9q-43 44 -43 138q0 151 75 151q25 0 42 -25t40 -25q17 0 26 16q1 -2 1 -7zM765 932q0 -3 -2 -8.5t-2 -8.5h-25q-26 26 -34 26q-24 0 -38 -12.5t-29 -25.5v37q30 40 67 40q18 0 40.5 -15.5t22.5 -32.5zM592 961q0 -54 -21.5 -73.5
t-77.5 -19.5q-27 0 -36 5q-1 0 -21 26q-29 36 -40 71q-11 39 -22 77q-6 20 -37 55.5t-47.5 42t-41.5 6.5q0 4 -2 13.5t-2 14.5q0 33 62 33q8 0 82 -44q70 -43 85 -55q9 -12 29 -32q24 -13 68 -47q22 -23 22 -73zM789 690q0 -56 -40 -100q-23 -1 -25 -1q-51 0 -68 77
q-6 30 -8 118q-4 5 -30 22q-11 8 -10 39q8 -16 22 -16q24 0 41.5 25t43.5 25q74 0 74 -132v-57zM1283 214q0 -33 -28 -56q-34 -28 -37 -35q0 -19 -6 -57q-6 -17 -25 -17q-27 0 -27 47q0 52 14 74q9 15 54 52v7q0 8 -3 22.5t-3 22.5q0 17 12 30h22q27 -33 27 -90zM1144 351
q-37 -20 -87 -20h-46q-49 0 -86 20v26l5 -4q24 4 58 4h26q106 0 130 -12v-14zM908 103q0 -54 -29 -54q-21 0 -21 46q0 17 -36.5 53.5t-36.5 58.5q0 74 28 97h22q8 -14 8 -40q0 -17 -3 -39q68 -62 68 -122zM1333 761v37h-30q-12 -23 -12 -25v-32q16 -8 22 -8h4q16 31 16 28z
M1407 716v28q-10 2 -30 4q0 -30 -16 -58t-16 -27q0 -8 4 -24.5t4 -24.5h3q22 0 38 41q13 34 13 61zM695 733v49l-23 4q-4 -13 -4 -26v-7q0 -13 4 -24q4 0 11.5 2t11.5 2zM777 713q0 14 -13 27h-21q-24 -71 -24 -67q0 12 17 -52q41 41 41 92z" />
  </g>

</svg>
