<?xml version="1.0" standalone="no"?>
<!DOCTYPE svg PUBLIC "-//W3C//DTD SVG 1.1//EN" "http://www.w3.org/Graphics/SVG/1.1/DTD/svg11.dtd" >
<svg viewBox="0 -442 2048 2048">
  <g transform="matrix(1 0 0 -1 0 1606)">
   <path fill="currentColor"
d="M1682 655q0 -91 -150 -147q-124 -46 -229 -40q-1 -4 -1 -10q0 -13 5 -38t5 -38v-101q0 -40 -40 -117q-12 -23 -111 -146q-92 -115 -92 -125q0 4 46 -88q89 -9 264 -52q6 -8 6 -23q0 -34 -22 -34q-1 0 -218 55v1q-3 -1 -3 -7q0 -8 22 -58.5t21 -66.5q-15 -16 -33 -16
q-15 0 -24 6q-26 70 -46 110q-35 -18 -95 -68q-3 -1 -9 -1q-36 0 -36 30q0 29 43 55q61 36 65 40q-50 110 -50 125l46 101q-126 -9 -232 -9q-20 0 -50 6t-43 6l-3 -3l46 -99q-13 -44 -54 -123q34 -21 67 -42q45 -28 45 -57q0 -15 -8 -30h-37q-11 19 -42 38q-25 16 -50 31
q-16 -15 -30 -52l-20 -58q-8 -6 -23 -6q-33 0 -33 27q0 11 21 58.5t21 56.5q0 3 -2 9l-215 -58q-29 8 -29 29q0 23 13 31q19 12 124 28l138 20q1 1 45 90l-132 172q-83 110 -101 183q-14 59 -14 75q0 36 16 140q-134 15 -178 25q-96 22 -164 72q-10 8 -25 32.5t-15 36.5v37
q0 45 43 68q36 19 151 19h54q28 0 81 -16.5t81 -16.5l2 2q-25 46 -64 131q-9 27 -9 82q0 167 92 355q20 46 40.5 91.5t65.5 77.5q61 44 248 44q145 0 208 -13q9 -4 27 -13q45 -20 52 -24q20 -13 40 -43q35 -51 81 -177q41 -112 59 -190q9 -39 9 -110q0 -54 -25 -109
q-24 -51 -49 -101q4 -2 11 -2q1 0 84 21q40 10 146 10q172 0 172 -99zM1620 645q0 28 -24 41q-13 7 -67 7q-126 0 -188 -11q-12 -2 -50 -15q-31 -10 -50 -10h-11q-18 24 -18 72q0 19 16 52q23 45 25 51q28 80 28 116q0 95 -65 267q-73 193 -145 212q-49 13 -173 13
q-113 0 -153 -6q-98 -14 -126 -65q-46 -84 -88 -206q-48 -141 -48 -215q0 -42 28 -116q13 -26 26 -53t13 -59q0 -63 -30 -63q-18 0 -49 10q-37 13 -48 15q-53 10 -168 10q-71 0 -95 -10q-16 -35 -16 -37q0 -62 202 -103q66 -2 158 -14q25 -10 25 -33q0 -29 -7.5 -86
t-7.5 -86q0 -146 136 -230q13 -10 39 -25q26 -9 191 -9q16 0 48.5 -3t48.5 -3q65 0 99 15q92 40 131 99.5t39 159.5q0 70 -5 116q-1 7 -6 28q-4 17 -4 28q0 19 28 28.5t79 10.5q62 1 80 4q52 8 117 35q85 35 85 68zM1154 1260q0 -13 -9 -21h-25q-16 50 -36 50q-21 0 -51 -38
h-25v17q0 15 28 37.5t43 22.5q21 0 48 -23.5t27 -44.5zM1169 1089q0 -36 -15 -79q-18 -50 -44 -63q-18 -9 -68 -9q-62 0 -62 126q0 53 24 96q28 52 77 52q22 0 47 -9q41 -43 41 -114zM756 1251h-25q-30 38 -51 38q-30 0 -36 -49h-25q-9 7 -9 20q0 20 27.5 44t47.5 24
q35 0 71 -59v-18zM784 1064q0 -133 -83 -133q-50 0 -80 56q-26 47 -26 102q0 90 39 114q14 9 49 9q49 0 77 -52q24 -43 24 -96zM996 770q-22 -4 -57 -27l-12 -44q-18 -66 -45 -100q-22 27 -38 83.5t-23 64.5q-4 5 -56 23q23 60 46 119q37 88 71 88q46 0 114 -207zM1065 1129
q0 29 -19 29q-7 0 -15 -13t-8 -21q0 -27 19 -27q23 0 23 32zM1138 1052q0 10 -33 21q-1 -18 -40 -47q5 -20 13 -60q17 3 38.5 35t21.5 51zM688 1132v8q0 18 -16 18q-23 0 -23 -34q0 -14 8 -27h17q14 11 14 35zM945 797q-17 48 -63 141q-17 -21 -39 -69q-25 -51 -24 -73
q22 -2 49 -2h16q31 0 61 3zM757 1050q0 -9 -5 15q-10 0 -25 8q-2 -4 -19 -25.5t-17 -26.5q0 -12 12 -55q17 0 35.5 33t18.5 51zM911 745h-58l29 -80q10 27 29 80z" />
  </g>

</svg>
