<?xml version="1.0" standalone="no"?>
<!DOCTYPE svg PUBLIC "-//W3C//DTD SVG 1.1//EN" "http://www.w3.org/Graphics/SVG/1.1/DTD/svg11.dtd" >
<svg viewBox="0 -442 2048 2048">
  <g transform="matrix(1 0 0 -1 0 1606)">
   <path fill="currentColor"
d="M2004 -114q0 -11 -10.5 -37t-18.5 -29q-13 -5 -37 -5q-4 0 -11.5 2t-11.5 2q-10 0 -24.5 -20.5t-14.5 -31.5q0 -6 15 -32q-4 -5 -15 -5q-30 0 -61 43q-15 -15 -22 -43q-54 31 -56 62q-18 -26 -31 -39q-16 7 -36.5 35t-20.5 45q0 -13 28 85q-6 2 -11 2t-15 -1.5t-15 -1.5
q-29 0 -65 25.5t-35 25.5q13 0 -44 -19q-72 -24 -166 -24q-173 0 -470 63q-90 19 -96 19q-5 0 -24 -19q-73 -73 -87 -206q-13 -17 -37 -17q-11 0 -31 5.5t-31 5.5q-25 0 -51 -35q-39 -52 -41 -54q-6 12 -24 89q-16 -15 -26 -31q-16 7 -17 28v35q-12 -6 -26 -19h-14
q-4 17 -4 19q0 32 20 76q12 27 54 50q37 20 71 23q4 21 12 60q19 92 53 139q-18 14 -62 14q-17 0 -49.5 -3.5t-49.5 -3.5q-121 0 -227 109q-20 20 -53.5 91t-33.5 96q0 45 24 73q17 11 45 39l20 34q9 10 39 10q21 0 34 -11q21 -17 28 -20q15 -2 46 -6q44 -13 131 -38
q0 9 -4 26t-4 26q0 21 20 51.5t39 39.5q26 3 75 11q71 19 214 54q57 16 172 41q99 17 228 17q214 0 436 -119q11 -10 35 -29q141 -105 162 -258q77 -39 95 -39q-10 0 78 20q9 -7 9 -18q0 -42 -33.5 -72.5t-77.5 -30.5q-16 0 -45.5 11.5t-44.5 11.5q-5 0 -8 -11t-9.5 -33.5
t-34.5 -82.5v-10q3 -7 10 -7q4 0 27 17.5t39 17.5q-10 0 35 -18q35 -11 69 -21q50 -19 50 -41q0 -6 -10.5 -29.5t-10.5 -42.5q0 -25 22 -66.5t22 -69.5zM1750 469q-59 124 -119 153q15 -50 30 -99q15 -27 89 -54zM1968 353q-34 -19 -51 -19q-8 0 -99 23q-3 -14 -12 -42
q56 -20 91 -20q22 0 45.5 18.5t25.5 39.5zM1633 526q-11 41 -40 114q-81 41 -173 80v-25q0 -29 9 -60q68 -37 204 -109zM1778 419q-54 29 -112 55l-48 -138l5 -9l131 -39q2 6 24 131zM1638 497l-198 102l6 -62q3 -37 18 -58q19 -27 66 -61q69 -48 75 -53zM1403 643v84
q-131 24 -125 24h-39q3 -33 -1 -61zM1431 506q0 17 -20 103q-81 31 -170 56q2 -59 27 -166q13 -25 45 -51q50 -40 54 -44zM1216 692v55q-66 2 -70 2h-51q11 0 -38 -2q-7 -29 -12 -55h171zM1595 332q0 8 -151 135l-56 -78l20 -172h120q67 108 67 115zM1743 255
q-129 48 -139 48l-64 -95l48 -147q99 38 155 194zM1954 -140v36q0 2 -26 42t-26 75q0 9 11 78q-14 13 -47 19.5t-43 16.5q-25 -35 -78 -35q-4 0 -12.5 2t-12.5 2q-5 0 -61 -47q-66 -54 -68 -56q29 -14 47 -14q38 0 74.5 23.5t52.5 23.5l2 -2q-8 -25 -29 -73q-42 -73 -42 -87
q0 -8 2.5 -22.5t2.5 -21.5l14 -4q14 15 45 42q4 -21 18 -62q13 23 44 51q6 -16 25 -43q33 53 80 53q3 0 9.5 -1t9.5 -1q8 0 8 5zM1244 489l-32 180h-171q21 -105 37 -173q45 -27 102 -64q21 19 64 57zM1037 747q-76 -12 -158 -31q-4 -17 -13 -50l155 16q7 42 16 65z
M1382 304q0 58 -36 95q-38 34 -77 68l-83 -76v-189l97 -55q32 24 97 71q-1 11 -1 18q0 11 1.5 34t1.5 34zM1556 57q0 8 -44 129h-118q-9 0 -102 -60q-2 -12 -5 -36q-2 -31 -2 -100q0 -8 3 -11h43q16 0 103 19t97 25q25 16 25 34zM1049 486l-24 172h-36q-52 0 -123 -21
q11 -56 36 -169q86 -48 90 -48q12 0 35.5 27t21.5 39zM1166 202v209q-77 56 -80 56q-14 0 -46 -30.5t-37 -45.5q-10 -30 -9 -82q1 -69 0 -83q89 -56 96 -56q5 0 37.5 15t38.5 17zM847 708q-28 -5 -179 -40q-25 -32 -51 -96q94 29 215 82q11 10 15 54zM881 464l-32 174
l-229 -87l112 -139zM1259 -20v150q0 6 -43.5 29t-53.5 23q-12 0 -73 -32q-23 -84 -44 -146q71 -10 214 -24zM974 360v28q-30 19 -91 55l-134 -39v-17q0 -21 13.5 -61.5t25.5 -55.5t48 -32t53 -17q13 0 38.5 4t38.5 4q8 92 8 131zM631 653q-37 -3 -112 -11q-11 -23 -27 -69
q41 10 100 12q20 38 39 68zM620 499q-7 19 -24 56q-8 1 -28.5 5t-31.5 4q-8 0 -24 -2t-24 -2q11 -51 32 -113q25 16 100 52zM1060 158q-80 44 -99 44q-11 0 -32.5 -3.5t-32.5 -3.5q-16 0 -21 6l-72 -150q35 -17 103 -26q53 -7 107 -14q19 26 30 71q9 38 17 76zM698 406
l-56 80l-116 -59l33 -143q139 110 139 122zM772 261l-44 132l-88 -74q-71 -60 -71 -71q0 -44 76 -89zM854 201q-73 36 -74 36q-13 0 -113 -100q77 -80 97 -80q9 0 15 2q25 41 75 142zM537 210l-62 264q-37 16 -114 42q-37 8 -109 30q-7 3 -27 20q-14 11 -33 10
q-7 -12 -22 -36q-49 -60 -49 -71q0 13 18 -55q2 -14 10 -40q27 -55 58 -81q101 -84 198 -84q13 0 37.5 4.5t37.5 4.5q27 0 57 -8zM717 45q-12 5 -60 47q-46 39 -49 39q-26 0 -50 -88q-13 -58 -25 -115q-26 0 -76 -9q-43 -15 -59 -76q8 3 56 15l2 -5v-4q-15 -19 -33 -49
q19 10 39 23l6 -6q-8 -51 -8 -43q0 -6 1 -9q5 2 34 28q17 15 45 15q14 0 38 -5q28 -6 37 -7q11 49 22 99q11 43 50 93q31 39 30 57zM390 358q0 -17 -22 -44t-38 -27q-34 0 -58 20q-27 21 -27 54q0 36 25.5 59t62.5 23q57 0 57 -85zM315 370v13q1 7 -17 21q-6 -4 -17 -13
q2 -9 8 -25q9 2 26 4zM374 364q-9 2 -26 5q-14 -28 -32 -39q0 -17 9 -31q26 13 49 65z" />
  </g>

</svg>
