<?xml version="1.0" standalone="no"?>
<!DOCTYPE svg PUBLIC "-//W3C//DTD SVG 1.1//EN" "http://www.w3.org/Graphics/SVG/1.1/DTD/svg11.dtd" >
<svg viewBox="0 -442 2048 2048">
  <g transform="matrix(1 0 0 -1 0 1606)">
   <path fill="currentColor"
d="M1944 -274q0 -74 -41 -74q-17 0 -37 29l-28 44q-27 32 -83 69q-77 49 -90 60q-23 25 -70 74q-20 -19 -55 -19q-5 0 -14 2t-14 2q-23 0 -38 -56q-13 -8 -27 -8q-29 0 -47 42q-15 34 -15 67q0 100 47 127q18 5 52 19v8q0 100 -115 225q-86 95 -201 169q-5 -3 -28 -23
q-17 -15 -33 -15q-39 0 -61 13q-52 31 -117 151q-8 25 -32 71q-26 19 -70 61q0 -2 -1 -6q0 -6 9.5 -27.5t9.5 -27.5q0 -57 -34 -57q-38 0 -84 58q-38 48 -55 94q-7 50 -36 144q-30 25 -74 64q-67 64 -124 88q-26 6 -79 18q-56 14 -132 53q-82 42 -117 79q-28 29 -28 65
q0 23 21 46q-6 14 -6 30q0 62 51 62q28 0 92 -32t76 -32q5 0 51 40q50 45 56 49q12 8 77.5 25.5t81.5 17.5q76 0 246 -43q129 -33 258 -129q5 -4 94 -77q78 -65 82 -65q1 0 60.5 23t92.5 23q12 0 31 -6q23 -7 32 -8q76 -8 153 -46q98 -47 98 -108q0 -44 -19 -44
q-13 0 -40.5 13.5t-40.5 13.5q-28 0 -62 -37q-30 -33 -41 -64q-5 -14 -5 -41q0 -48 24 -112q22 -53 43 -107q29 -83 74 -253q20 -124 68 -370q10 -45 26 -67q18 -26 68 -71q47 -44 66 -73q54 -81 54 -141zM1902 -287v17q0 10 -6 16q-10 54 -92 138q-90 93 -108 134
q-36 84 -56 226q-29 194 -37 231q-13 54 -68 223q-21 52 -41 104q-26 65 -26 105q0 63 40 126q45 70 104 70q10 0 28.5 -3t27.5 -3q-21 42 -115 74q-81 27 -141 27q-26 0 -85 -28.5t-72 -28.5q-21 0 -55 30q-24 24 -48 47q-129 114 -289 181q-22 12 -69 31q-102 29 -221 29
q-21 0 -73 -17.5t-66 -30.5q-23 -25 -46 -49q-26 -25 -61 -25q-31 0 -99.5 36t-70.5 36q-22 0 -22 -24q0 -49 141 -114q42 -19 155 -41q52 -10 46 -10q7 0 19.5 4t19.5 4q19 0 19 -17l-3 -10q-7 0 -21.5 -3.5t-22.5 -3.5q-9 0 -24 3q-18 3 -25 3q-70 5 -170 42
q-112 42 -144 88q-5 -30 -5 -25q0 -32 58 -66q43 -21 86 -43q25 -14 76 -35q44 -4 121 -25q94 -46 219 -157q37 -33 198 -189v25q0 18 -5 53t-5 53q0 14 2 24q10 -2 27 -8q10 -6 22 -84l14 -96q17 -83 102 -189q38 -47 59 -47q10 0 19 13q-31 62 -41 96q-53 180 -53 241
q0 21 6 40q9 -2 23 -11q18 -20 43 -142q27 -128 42 -153q18 -31 58 -56q55 -34 66 -44q126 -113 179 -176q100 -121 100 -221q0 -15 -2.5 -20.5t-54.5 -38t-52 -47.5q0 -19 21 -89q9 45 69.5 49.5t70.5 34.5q24 -2 65 -49q29 -33 58 -67q2 -2 102 -78q64 -49 89 -90z
M799 691v18q0 57 -31 114q-1 2 -84 84l-5 -10q1 -17 25 -73.5t36 -74.5q20 -19 59 -58zM726 1311q-26 60 -74 60q-52 0 -74 -64q4 95 74 95q64 0 74 -91zM716 1207q0 -77 -64 -77t-64 77q0 81 62 81q66 0 66 -81zM641 1229v16q-1 5 -4 5h-14l-4 -25q4 -2 13 -5zM697 1176v21
q-8 2 -25 4q-9 -19 -19 -19v-37h13q7 0 19 12t12 19z" />
  </g>

</svg>
