<?xml version="1.0" standalone="no"?>
<!DOCTYPE svg PUBLIC "-//W3C//DTD SVG 1.1//EN" "http://www.w3.org/Graphics/SVG/1.1/DTD/svg11.dtd" >
<svg viewBox="0 -442 2048 2048">
  <g transform="matrix(1 0 0 -1 0 1606)">
   <path fill="currentColor"
d="M1972 860q0 -44 -25 -51q-15 -4 -215 -27q-152 -16 -454 -53q36 -29 72 -59q51 -43 51 -67q0 -20 -14 -28.5t-29 -16.5q-55 -42 -123 -64q-110 -36 -126 -43q-15 -60 -55 -175q-21 -29 -55 -92q-22 -56 -66 -271q23 -12 72 -32q32 -6 63 -12q41 -11 41 -37q0 -32 -36 -32
q-29 0 -82.5 24t-75.5 45q-5 -1 -8 -7q-13 -42 -49 -123q-57 -97 -82 -97q-23 0 -23 31q0 22 28 61q22 29 44 57q9 18 28 52l-2 1q-14 0 -58.5 -16.5t-72.5 -16.5q-32 0 -32 23q0 14 16 29q92 4 154 45q16 10 24 62q13 81 28 230q-15 8 -102 67q-50 -17 -141 -41
q-12 -2 -61 -2q-4 -30 -16 -89q-1 -5 -20 -68q-16 -51 -16 -62q0 -21 33 -49q30 -27 53 -33q4 -1 38 -6q10 -11 10 -25q0 -10 -9 -35q-33 -4 -30 -4q-28 0 -70 33q-38 31 -54 59l-78 -128q-55 -87 -95 -106q-29 19 -29 35q0 5 65 87q20 30 62 90l-130 -24q-14 0 -31 16v30
q25 15 86.5 21t86.5 22q40 26 46 93q8 49 19 146l-7 4q-114 19 -223 88q-133 84 -138 180q-2 37 -2 133q0 1 21 207q-31 10 -63 21q-33 17 -33 51q0 47 50 82q69 48 80 64t21 52q10 40 19 55q43 77 99 77q127 0 209 -29q14 -25 38 -76q11 -32 43 -90q280 -37 514 -138
l497 191q6 0 9 -1q22 -19 121 -102q32 23 41 23q14 0 81.5 -72t67.5 -87zM1895 867q-30 35 -93 102l-227 -50q-7 -2 -17 10v10q17 6 172 47q-39 36 -66 52l-505 -192q-39 10 -112 43.5t-112 43.5q-221 56 -333 60q-18 39 -44 120q-7 23 -11 31q-9 18 -22 23q-34 13 -157 13
q-8 0 -13 -2q-56 -25 -79 -79q-28 -69 -40 -80q-22 -10 -65 -33q-55 -35 -55 -55q0 -43 110 -43q17 0 51.5 2.5t50.5 2.5q-5 -20 -19 -46q-10 -4 -30 -11q-18 -1 -36 -1q-24 -1 -30 -13q-16 -190 -16 -173q0 -2 10 -85q14 -114 80 -168q41 -33 172 -80q83 -30 119 -30
q173 0 234 58q38 -76 170 -103q46 71 89 210q-65 -19 -52 -19h-291q-36 0 -108 39q-78 43 -78 74q0 13 6 18h11q22 -23 38 -30q83 -39 130 -48q38 -7 137 -7q13 0 37.5 -1t37.5 -1q40 0 58 3q13 2 50 17q69 23 203 75q20 13 62 34v26q-32 24 -36 24l-48 -16
q-153 -51 -199 -51q-30 0 -31 17q82 20 242 74q-34 27 -105 77q-137 83 -177 83q-14 0 -41.5 -1t-41.5 -1q-64 0 -76 11v11q30 18 87 18q90 0 106 -5q43 -13 109 -47q81 -41 108 -52zM477 1000q0 -20 -21.5 -43t-41.5 -23q-52 0 -52 92q0 19 17 46t35 27q30 0 48 -36
q15 -30 15 -63zM415 1044q0 4 -2 8t-2 5h-17q-9 -8 -9 -19q0 -10 18 -19q12 24 12 25zM461 1014q-8 3 -22 8q0 -29 -27 -35q6 -22 25 -33q17 29 24 60z" />
  </g>

</svg>
