<?xml version="1.0" standalone="no"?>
<!DOCTYPE svg PUBLIC "-//W3C//DTD SVG 1.1//EN" "http://www.w3.org/Graphics/SVG/1.1/DTD/svg11.dtd" >
<svg viewBox="0 -442 2048 2048">
  <g transform="matrix(1 0 0 -1 0 1606)">
   <path fill="currentColor"
d="M2009 585q0 -45 -39.5 -104.5t-39.5 -93.5q0 -49 24 -120q-20 -21 -53 -21q-58 0 -174 69q-106 62 -155 115l-48 68q-29 37 -71 37q-8 0 -17.5 -22.5t-9.5 -32.5q0 -2 14 -40q52 -142 52 -220q0 -85 -70.5 -235t-70.5 -235q0 -8 1 -24.5t1 -24.5q0 -6 -4 -28l-3 -44
q-12 -8 -25 -8q-18 0 -101 70q-78 67 -94 91q-116 174 -129 367q-38 12 -125 22q-82 9 -124 24l-2 -3v-7q0 -13 24.5 -84.5t34.5 -90.5q17 -35 82 -121q21 -22 41 -44q29 -32 29 -47q0 -37 -49 -37q-9 0 -59 14q-158 44 -266 288q-8 19 -27 106q-8 36 -18 109q-18 13 -53 40
q-43 33 -62 65q-6 19 -24 49q-18 5 -51 18q-18 10 -46 40t-43.5 39.5t-80.5 27.5q-51 13 -72 45q-24 36 -24 64q0 45 47 45q6 0 18 -2.5t17 -2.5q-39 26 -39 60q0 46 54 46q13 0 36.5 -11.5t36.5 -11.5q37 0 57 15q5 4 43 47q49 55 86 85q42 33 128 67q81 32 139 42
q52 -1 152 15q48 37 120 91q74 46 215 147q112 91 163 162q8 31 49 87q14 -5 41 -17q31 -19 82 -80q53 -65 58 -96q1 -7 1 -19v-30q0 -56 -31 -122t-31 -85t11.5 -54.5t11.5 -57.5q0 -127 -133 -188q8 -40 16 -40q45 0 86 39q25 24 62 88q44 78 57 95q59 81 144 112
q57 21 100 21q39 0 39 -17q0 -16 -4 -47t-4 -47q0 -49 15 -92.5t31 -86.5q53 -161 53 -238zM1942 617q0 65 -56 237q-30 92 -30 115q0 35 23 105q-38 -7 -108 -37q-79 -59 -121 -140q-12 -32 -45 -93q-61 -86 -134 -88h-10q-6 1 -9 1q-24 0 -32 -22h-15q-16 49 -63 140
q-15 20 -150 157q1 16 25 16q40 0 110.5 -78t73.5 -78q20 0 46 25q42 41 42 109q0 20 -10 57t-10 57q0 44 31.5 107t31.5 100q0 48 -36 95q-34 40 -68 79q-100 -171 -411 -377q-46 -39 -109 -84q-28 -10 -76 -11q-58 0 -77 -3q-65 -12 -133 -35q-116 -40 -201 -136
q-41 -47 -61 -57q-28 -5 -82 -22q-29 -14 -26 -14q-7 0 -28.5 15.5t-39.5 15.5h-24v-22q62 -48 62 -105l-2 -5q-4 2 -8 2q-3 0 -9.5 -1t-9.5 -1q-8 0 -31 17.5t-41 16.5v-20q0 -25 60 -54q54 -27 83 -27q10 0 74.5 -47.5t88.5 -47.5q194 0 194 140q0 33 -17.5 90t-17.5 82
q1 7 4 7q1 0 5 -1q77 -86 77 -233q0 -12 -2 -18q-13 -41 -33 -57q-34 -28 -172 -57q14 -37 73 -86l58 -48q12 -32 17 -87q6 -72 9 -89q10 -51 64 -139q56 -91 96 -119q36 -25 93 -45q-181 201 -181 417q0 11 1 35l3.5 3.5t10.5 2.5q-2 0 26 -18q32 -20 83 -32
q80 -18 226 -25q9 -14 12 -74q4 -70 8 -84q63 -248 248 -370q-15 29 -15 74q0 57 23 117l42 108q1 12 6 36q2 8 44 106q26 61 26 113q0 45 -39 201q-63 -89 -112 -89q-15 0 -21 17q51 64 102 127q50 74 50 154q0 13 3 22h10q24 -23 23 -93q26 3 44 3q37 0 66 -39
q23 -33 47 -66q66 -66 176 -128q31 -13 92 -40q-12 32 -12 70q0 76 29 122q14 14 36 43q10 21 10 85zM531 747q-5 -5 -16 -5q-8 0 -22.5 21.5t-18.5 24t-36 10.5l4 26h41q48 -47 48 -56v-21zM515 664q0 -40 -31 -63t-72 -23q-30 0 -55 25t-25 55q0 38 30 65t69 27
q84 0 84 -86zM500 650v33h-35q0 -25 -10 -35t-10 -15q0 -11 9 -27h13q33 33 33 44zM418 685q0 22 -20 22q-11 0 -23 -12v-22l5 -5h29q9 9 9 17z" />
  </g>

</svg>
