<?xml version="1.0" standalone="no"?>
<!DOCTYPE svg PUBLIC "-//W3C//DTD SVG 1.1//EN" "http://www.w3.org/Graphics/SVG/1.1/DTD/svg11.dtd" >
<svg viewBox="0 -442 2048 2048">
  <g transform="matrix(1 0 0 -1 0 1606)">
   <path fill="currentColor"
d="M1710 527q0 -79 -47 -157q-5 -5 -13 -16q-6 -14 -20 -42q-31 -51 -95.5 -107t-118.5 -79q-47 -20 -99 -38q-17 -3 -35 -7t-27 -19q-20 -34 -38 -109q-14 -57 -28 -115q72 -38 169 -103q11 -13 10 -43q-16 -16 -29 -16q-12 0 -170 107q-9 -58 -27 -132q-10 -17 -33 -17
q-34 0 -34 27q0 4 19 107h-5q-9 -4 -69 -41q-46 -28 -71 -28q-30 0 -30 21q0 25 30 36q37 13 42 20q-70 33 -78 33q-7 0 -80.5 -70.5t-92.5 -70.5q-27 0 -27 26q0 21 37 53q28 23 55 45q-2 1 -6 2q-29 0 -94.5 -13.5t-99.5 -13.5q-21 0 -24 15t-5 30q11 13 63 19
q138 17 231 32q58 167 57 183l-170 22q-93 12 -165 55q-84 49 -139 159q-20 33 -51 103q-16 53 -20 105q0 34 -9 101l-5 6q-11 -1 -52 -9q-32 -6 -52 -6t-34 8q-1 9 -1 16q0 28 15 58l28 52l-2 1q-14 -1 -47.5 -11t-61.5 -10q-79 0 -79 42q0 35 51 103.5t51 69.5
q0 -8 -22 83q-12 50 -12 107q0 60 12 104q11 39 39 69q225 237 503 237q44 0 115 -48q19 -13 70 -106q60 -110 88 -217q15 -57 65 -162q61 -126 92 -126q18 0 61 13.5t68 13.5h25q53 0 71 -2t56.5 -34t42 -48.5t3.5 -32.5q0 -28 -13 -52q7 -3 19 -3q59 0 119 36.5t67 36.5
q20 0 38 -62q14 -48 16 -81q3 -59 3 -110zM1646 559q0 61 -20 129q-102 -44 -206 -44q-20 0 -28 -3q-14 -5 -29 -23q-21 -24 -25 -28q-43 -37 -124 -89q-98 -64 -128 -64q-23 0 -23 37q0 12 22 27l186 118q133 94 133 150q0 8 -2 14q-51 50 -91 50q-29 0 -107.5 -16
t-108.5 -27q-5 -2 -86 -40q-65 -31 -80 -31q-1 0 -6 2v26q23 23 64 46q34 19 69 38q-42 44 -75 126q-24 71 -48 141q-17 34 -48 103q-7 27 -25 80q-24 54 -65 111q-44 61 -139 61q-121 0 -246 -94q-49 -31 -138 -108q-12 -11 -33 -35q-19 -32 -36 -118l31 -174
q-7 -22 -45 -79q-31 -47 -31 -84h28q11 0 66 26.5t73 26.5q12 0 12 -16q0 -80 -46 -154l13 -4q8 4 55 19q30 9 52 33q9 -4 12 -13q12 -37 19 -119q8 -97 13 -125q21 -111 107 -206q30 -34 72 -57q48 -27 180 -46q112 -16 190 -16t172 8q25 2 145 44q26 8 76 29q38 21 93 65
q60 49 78 79q78 130 78 224zM1181 45h-161q-13 0 -20 -13q-13 -24 -28 -85q-18 -71 -26 -91l100 -39q52 22 80 36q18 64 55 192zM557 1219q0 -21 -19 -21q-4 0 -11 2.5t-11 2.5q0 73 -73 73q-5 0 -32 -24h-25v21q27 32 64 32q107 0 107 -86zM538 1056q0 -128 -110 -128
q-118 0 -118 131q0 49 34 92.5t82 43.5q112 0 112 -139zM409 1107q0 27 -33 27q-19 0 -19 -33q0 -24 18 -24q34 0 34 30zM508 1045q-8 4 -45 16q0 -14 -14.5 -29.5t-27.5 -16.5v-56h24q9 0 31 21.5t26 32.5q1 11 6 32z" />
  </g>

</svg>
