<?xml version="1.0" standalone="no"?>
<!DOCTYPE svg PUBLIC "-//W3C//DTD SVG 1.1//EN" "http://www.w3.org/Graphics/SVG/1.1/DTD/svg11.dtd" >
<svg viewBox="0 -442 2048 2048">
  <g transform="matrix(1 0 0 -1 0 1606)">
   <path fill="currentColor"
d="M1968 10h-28q-1 0 -51 21q-154 65 -417 65q-72 0 -93 -60l170 -18q90 -15 159 -62l-5 -6q-55 12 -165 35q-42 9 -168 17q-7 -11 -18 -33l3 -4q121 -14 265 -86v-22h-32q-3 0 -100 37q-36 14 -148 35q-4 -25 -45 -75q2 -4 74 -44q67 -36 67 -69v-22h-18q-14 16 -46 45
q-76 54 -98 54q-7 0 -47 -32.5t-43 -39.5q-1 -10 -5 -30q-9 -35 -50 -57q-31 -17 -108 -17q-125 0 -150 70q0 11 -10 38q-6 9 -41.5 38.5t-43.5 29.5q-25 0 -98 -54q-4 -3 -47 -45h-17v32q0 16 61 54l80 46q-9 9 -25 30q-6 17 -20 49q-34 -6 -102 -21q-10 -3 -78 -29
q-61 -23 -68 -23h-32v22q149 82 266 84q1 3 2 7q0 32 -21 32q-100 0 -264 -40q-54 -13 -67 -13q0 2 -1 5q0 9 9 16q44 33 153 51q91 15 164 11q-6 64 -107 64q-215 0 -384 -57q-23 -10 -46 -19.5t-48 -9.5h-4v14q51 37 81 49q121 49 226 58q45 4 175 4q-13 6 -38 22
q-73 57 -135 192q-60 132 -61 228l-1 105q0 36 20 116q23 89 43 98q-97 134 -97 360q0 82 66 174q70 99 149 99q84 0 153 -101q23 -33 91 -174q129 76 271 76q147 0 271 -76q48 110 74 153q56 94 118 113q30 10 71 10q13 0 45 -18q56 -32 101 -110q49 -86 49 -192
q0 -159 -66 -269q-29 -49 -29 -43q0 12 21 -40q40 -99 40 -185q0 -357 -234 -538q328 0 482 -111v-14zM1689 1231q0 30 -18 81.5t-37 74.5q-51 62 -77 62q-8 0 -33 -26t-29 -36q-22 -54 -40 -236q-17 -169 -43 -208q-10 -12 -28 -38q-32 10 -32 32q0 8 1 12q7 6 17 19
q12 21 29 111q2 12 19 159q11 97 37 153q-63 -95 -86 -150q-10 -47 -49 -129h-27q-13 25 -14 68q-99 44 -122 52q-57 18 -132 18q-79 0 -133 -18q-13 -4 -121 -52q-4 -23 -15 -68h-25q-12 20 -34 75q-31 80 -45 108q-29 61 -61 98q21 -28 32 -110q6 -61 12 -121
q17 -145 45 -198q18 -34 18 -32q0 -27 -23 -27q-15 0 -35 34q-18 30 -22 49q-20 107 -30 203q-4 66 -30 188q-5 12 -31 41t-36 29q-28 0 -80 -67t-52 -190q0 -49 33.5 -140.5t65.5 -126.5q24 -27 86 -53q1 -1 1 -4q0 -35 -44 -35q-36 0 -66 19q-36 -163 -36 -215
q0 -70 29 -170.5t46 -132.5q25 -49 91 -108q26 -16 76 -49q18 -18 58 -51q3 -2 81 -7q67 -4 67 -29q0 -23 -33 -23q-8 0 -23 5.5t-23 5.5h-36q6 -9 16 -34h47q6 0 17.5 4t17.5 4q25 0 25 -25q0 -22 -18 -22q-42 0 -74 4q2 -12 8 -34q94 12 91 12q16 0 16 -21q0 -28 -28 -28
q-8 0 -22.5 2t-22.5 2q-7 0 -15 -2q20 -57 38 -57q13 0 36.5 11.5t36.5 11.5q10 0 19 -6v-29q-20 -8 -61 -16q15 -14 46 -39q12 -5 34 -16v-10q-15 -13 -15 -21q0 -25 39 -43q33 -15 62 -15q31 0 62 14q39 18 39 45q0 6 -7.5 13t-7.5 12q0 2 36 28t41 32q-33 6 -58 16v29
q10 6 18 6q-4 0 81 -22q15 25 31 56q9 -1 -53 -1q-27 0 -35 11v31q6 6 16 6q15 0 44 -6t44 -6q3 0 11 30h-72q-20 0 -20 22q0 15 5 20t20 5q6 0 17.5 -4t17.5 -4h47q2 5 16 34h-40q-7 0 -21 -5.5t-21 -5.5q-37 0 -37 23q0 19 64 26q83 9 84 10q19 18 62 51q107 65 171 167
q29 46 62 199q9 42 9 94q0 44 -13 108q-21 100 -22 107q-52 -19 -75 -19q-15 0 -36 14v25q46 18 83.5 51t70.5 143q30 100 30 165zM1375 704q0 -19 -4 -32h-14q-13 34 -25 67q-21 44 -49 44q-23 0 -37.5 -40t-30.5 -40q-20 0 -20 26q0 34 25.5 65t59.5 31q46 0 72 -39
q23 -34 23 -82zM1375 465q0 -67 -20 -124q-27 -79 -81 -79q-27 0 -51 28q-35 41 -35 153v56q0 165 76 165q111 0 111 -199zM851 708q-4 -5 -15 -5q-14 0 -32 40t-37 40q-46 0 -74 -111h-14q-4 8 -4 23v25q0 36 24 73q7 10 32 21t38 11q36 0 57 -28q25 -34 25 -46v-43z
M863 455q0 -121 -37 -165q-24 -28 -52 -28q-53 0 -80 78q-19 57 -19 123q0 201 111 201q77 0 77 -209zM1245 555q0 13 -17 21q-21 -21 -21 -59q0 -13 13 -21q4 4 9 4q16 40 16 55zM1352 420v60q-14 2 -41 8q-2 -18 -13 -51q-18 -33 -18 -31q0 -18 9 -47q11 -38 13 -47
q13 12 33 40q17 37 17 68zM759 563q0 20 -26 21q-12 -24 -12 -48q0 -22 18 -32q20 50 20 59zM839 448v21l-33 15q-3 -18 -14 -51q-2 -3 -13.5 -19t-11.5 -21q0 7 24 -81q48 57 48 136z" />
  </g>

</svg>
