<?xml version="1.0" standalone="no"?>
<!DOCTYPE svg PUBLIC "-//W3C//DTD SVG 1.1//EN" "http://www.w3.org/Graphics/SVG/1.1/DTD/svg11.dtd" >
<svg viewBox="0 -442 2048 2048">
  <g transform="matrix(1 0 0 -1 0 1606)">
   <path fill="currentColor"
d="M1968 -51h-21l-110 80q-16 -21 -50 -60q-3 -3 -63 -42l95 -122q-10 -13 -30 -13q-7 0 -11 1q-104 106 -106 106q-3 0 -31 -14t-34 -16q-29 -9 -82 -12q-59 -4 -82 -9q-17 -4 -87 -69q-74 -70 -100 -82q-3 -1 -119 -33q-37 -10 -71 -10q-103 0 -217 24q-51 11 -123 79
q-79 75 -119 91q-27 11 -76 11q-56 1 -78 6.5t-78 37.5l-103 -111h-32l-9 9q29 41 95 122q-78 55 -109 106q-38 -27 -114 -80h-21v16q0 5 107 97q-96 163 -96 390q0 162 62 341q8 23 60 95v1q0 3 -2 4q-78 50 -78 102q0 31 22 75q24 48 51 56q-58 84 -58 164q0 93 57 169
q62 82 152 82q74 0 173 -51q111 -57 119 -122q12 11 40 30q116 51 334 51q186 0 330 -51q10 -3 45 -29q1 11 7 33q25 64 172 118q57 21 112 21q90 0 150 -81q7 -12 21 -35q5 -5 13 -15q25 -39 25 -122q0 -75 -58 -162q26 -17 40 -34q6 -7 19.5 -47t13.5 -50q0 -22 -17 -54
q-11 -20 -63 -49q22 -32 59 -99q9 -33 26 -99q37 -137 37 -244q0 -98 -13 -175q-10 -59 -50 -149q-33 -74 -33 -63q0 -4 49 -46q29 -26 58 -51v-17zM1884 443v82q-33 31 -104 84q-81 48 -131 48q-15 0 -43 -5.5t-43 -5.5q-11 0 -19 2q55 66 189 66q19 0 56 -9.5t57 -9.5
q-6 37 -53 126q-44 85 -44 109q0 4 1 8q9 11 56 19q36 6 36 40q0 47 -40 75t-40 44q0 9 31 81.5t31 124.5q0 45 -43 92t-88 47q-26 0 -55 -18t-33 -43q97 -55 102 -58q47 -38 47 -103q0 -22 -30 -53q-23 -22 -46 -45q38 -55 38 -84q0 -24 -21 -60h-42q-15 17 -38 67
q-21 45 -41 62q-37 21 -103 74q-14 34 -52 92q-62 66 -260 71q69 -25 102 -40q55 -24 95 -52v-3q-162 13 -166 13q-28 0 -84 -23t-81 -23q-27 0 -83 23t-85 23q-28 0 -84 -4.5t-83 -4.5q69 46 203 92h-15q-60 0 -131 -17q-87 -20 -117 -53q-13 -14 -26.5 -47.5t-25.5 -46.5
q-16 -18 -49 -39q-42 -26 -53 -35q-22 -18 -42 -63q-22 -49 -37 -66h-41q-26 33 -26 79q0 -9 42 69q-26 23 -53 46q-23 24 -23 63q0 53 49 91q25 19 96 51v17q-35 48 -84 48q-43 0 -79.5 -36.5t-49.5 -80.5q-5 -17 -5 -57q0 -45 30.5 -97t30.5 -75q0 -24 -18 -33
q-30 -16 -34 -20q-24 -25 -24 -65q0 -29 32 -40l56 -16v-4q0 -38 -41 -117q-45 -85 -50 -125q85 19 110 19q131 0 192 -66q-17 0 -52.5 4.5t-53.5 4.5q-49 0 -131 -48q-34 -28 -104 -84v-82q177 53 256 53q22 0 116 -26q91 -25 118 -37q-46 -4 -137 -19q-177 -46 -278 -145
q-37 -36 -37 -43l22 -47q8 -18 15 -35q10 -21 26 -27q25 25 81 68q189 112 325 147q59 15 60 15q9 -14 11 -24q-26 -15 -77 -47q20 -58 48 -67q30 23 59 45q37 24 69 24q5 0 8 -33q-68 -46 -111 -84q45 -52 120 -52q78 0 105 55q15 33 20 125q-115 40 -146 58
q-84 48 -84 120q0 35 91 132h358q91 -111 91 -124q0 -57 -47 -104q-41 -40 -101 -58q-27 -7 -81 -24q1 -90 18 -124q26 -56 104 -56q87 0 122 56q-36 28 -111 77q0 17 7 36q14 0 40 -5q32 -23 97 -64q13 13 40 72q-37 15 -77 41q6 25 16 25l55 -15q155 -42 328 -151
q26 -23 82 -64q9 11 34 57t25 54q0 25 -73 79q-107 78 -246 107q-45 6 -136 19q170 63 237 63q62 0 113 -9q47 -16 143 -44zM1758 61q-51 56 -127 99l-142 74q-17 9 -75 28q1 -7 1 -14q0 -36 -13 -84q59 -27 132 -82q61 -47 122 -95q65 29 102 74zM1180 422h-310
q3 -17 16 -43q17 -15 65.5 -31.5t73.5 -16.5q23 0 73 16q54 18 66 32q4 5 16 43zM1281 11q0 9 -1 27.5t-1 28.5q-18 -6 -53 -16v-20q0 -9 5 -25t5 -25q0 -46 -16 -121q0 1 38 73q23 44 23 78zM1073 51q-42 43 -50 43q-9 0 -25.5 -18.5t-20.5 -29.5q15 -17 48 -17h12
q35 0 36 22zM1601 -38q-52 43 -104 85q-65 51 -113 70q-23 -15 -57 -51q-10 -18 -17 -61q-9 -52 -13 -66q-6 -18 -37 -71q-33 -57 -42 -57q-44 0 -42 19l16 134q0 1 -13 57h-36q-26 -80 -110 -80q-59 0 -81 12q-28 15 -44 68h-26q-10 -64 -29 -192l-8 -11h-22q-26 30 -67 95
q-10 22 -16.5 73.5t-16.5 71.5q-19 19 -57 59q-52 -20 -217 -155q30 -11 96 -18t97 -20q40 -17 68 -45q82 -83 166 -111q69 -23 195 -23q47 0 109.5 21t94.5 50q56 52 79 70q53 43 89 50q58 2 158 26zM850 63q-15 -4 -30 -4q-8 0 -23 6t-22 7l-4 -3q0 -27 20.5 -97.5
t34.5 -97.5q5 90 24 189zM648 168q-16 62 -16 94q-174 -64 -278 -135q-20 -22 -62 -66q31 -36 102 -74q163 126 254 181zM1433 1143q0 8 -5 -19h-12q-3 0 -17.5 11.5t-26.5 11.5q-18 0 -37.5 -31t-41.5 -31q-11 0 -28 12q-2 5 -2 13q0 27 32 62.5t59 35.5q25 0 52 -20.5
t27 -44.5zM1505 817q0 -58 -18 -115q-26 -77 -72 -77q-158 0 -158 198q0 138 65 184q21 15 89 15q7 0 13 -3q41 -21 63 -89q18 -56 18 -113zM1187 1192q-16 -25 -54 -67q-14 -10 -55 -26.5t-55 -16.5q-44 0 -98 31q-9 5 -62 59q161 -29 162 -29q40 0 162 49zM1203 1077
q-23 -46 -82 -124q-41 -36 -98 -36q-9 0 -94 24q-8 22 -47 109q93 -53 141 -53q33 0 82 20q7 3 98 60zM786 1116q0 -31 -29 -31q-24 0 -41.5 31t-38.5 31q-11 0 -42 -23h-13q-5 6 -5 19q0 25 27 45t52 20t57.5 -33.5t32.5 -58.5zM793 815q0 -124 -73 -176q-21 -15 -72 -15
h-16q-41 0 -69 80q-22 62 -22 115q0 54 21 111q25 68 64 89q6 3 35 3q48 0 67 -15q30 -24 49 -89q16 -55 16 -103zM1126 -107q-29 -48 -38 -56q-18 -15 -65 -15h-21q-30 0 -45 9q-19 15 -37 30v1q0 5 8 21h12q8 0 34 -10t44 -10q47 0 100 43q0 -6 8 -13zM1352 893v17
q0 22 -18 22q-20 -21 -20 -39v-18q0 -27 18 -35q20 26 20 53zM1471 781v40q-5 0 -15.5 2t-15.5 2q-15 0 -22 -31q-9 -36 -31 -46l12 -72q13 8 36 27q36 42 36 78zM633 885q0 44 -22 47q-21 -23 -21 -47q0 -42 1 -36q9 -8 18 -8q24 32 24 44zM751 788v33q-21 0 -45 4
q-4 -20 -17 -54q-2 -3 -14 -14t-12 -14t13 -67q40 18 55 55q20 49 20 57z" />
  </g>

</svg>
