<?xml version="1.0" standalone="no"?>
<!DOCTYPE svg PUBLIC "-//W3C//DTD SVG 1.1//EN" "http://www.w3.org/Graphics/SVG/1.1/DTD/svg11.dtd" >
<svg viewBox="0 -442 2048 2048">
  <g transform="matrix(1 0 0 -1 0 1606)">
   <path fill="currentColor"
d="M1771 1189q0 -43 -21 -43q-13 0 -70.5 42.5t-76.5 42.5q-9 0 -47.5 -18t-52.5 -18q-6 0 -16.5 1t-15.5 1q-18 29 -29 85q-7 46 -15 91q52 25 155 25q57 0 72 -6q117 -48 117 -203zM1948 791q-19 -4 -21 -4q-21 0 -85 14l-58 8q-40 8 -44 28l121 201h13q19 -24 46 -89
q28 -68 28 -94v-64zM1980 132q0 -3 -148 -159q-4 -2 -11 -2q-15 0 -108 94v18l236 78q31 -8 31 -29zM1636 255q0 -131 -68 -263q-19 -26 -55 -78q-100 -148 -229 -199q-103 -41 -303 -41q-227 0 -310 59q-1 1 -31 29q-57 54 -90 107q-15 25 -63.5 124.5t-48.5 291.5
q0 367 56 367q12 0 69 -78l70 -96q15 15 19 62l6 70q-92 34 -178 114q-100 93 -100 177q0 48 85 48q76 0 193 -94h4q-46 127 -46 129q0 68 43 198q42 127 82 187q51 76 218 76q154 0 192 -11q53 -16 89 -65q71 -98 116 -290q2 -10 12 -134q110 70 163 70q32 0 51 -28.5
t19 -62.5q0 -63 -44 -130q-29 -44 -82 -96q-44 -44 -44 -48q0 -7 52 -68l46 70q41 -57 63 -137q44 -159 44 -260zM434 1227q0 -10 -35 -44l-46 -44q-26 -34 -79 -100q-14 -17 -29 -17q-37 0 -37 45q0 268 71 268q14 0 26.5 -5t70.5 -51t58 -52zM1841 -278l-6 -19
q-38 -20 -113 -46q-84 -29 -115 -29q-22 0 -22 27q0 16 99 191q11 10 23 10q24 0 134 -134zM376 -189q0 -15 -76 -80t-92 -65q-11 0 -42 40q-29 37 -56 104q-28 71 -28 113q0 29 20 29q22 0 59 -22q28 -18 56 -35q66 -20 151 -62q8 -9 8 -22zM1732 1208v37q0 13 -25 52.5
t-37 47.5q-22 14 -79 14h-26q-60 0 -95 -9q14 -62 24 -111l120 42q39 -25 118 -73zM1914 826v13q0 6 -48 137q-26 -43 -79 -130zM1937 133l-178 -70q18 -15 56 -45zM1543 936q0 23 -5 36q-18 -2 -52 -9q-36 -11 -81 -39q-9 -6 -68 -61q-52 -49 -63 -49q-17 0 -17 17
q0 2 27 67t27 97q0 53 -40 181q-57 181 -131 204q-33 10 -172 10q-103 0 -135 -14q-41 -18 -62 -57q-97 -177 -97 -320q0 -48 33 -124t33 -97q0 -42 -33 -42h-21q-24 0 -50 37q-36 50 -40 54q-79 68 -129 68q-18 0 -29 -5v-13q0 -4 9 -21q23 -43 79 -97.5t102 -78.5
q23 -11 47 -22q33 -17 33 -32q0 7 -8 -67q11 15 22 30.5t32 15.5q8 0 11 -3q20 -20 100 -155t94 -170q34 52 67 104q54 79 76 79q1 0 5 -1q32 -40 106 -109q33 55 58 102q43 80 58 80q5 0 43 -44q23 -26 46 -53q44 76 44 85q0 7 -37 61t-45.5 61t-25.5 19q189 175 189 275z
M384 1222l-103 75q-36 -84 -36 -180q0 -9 2.5 -25t2.5 -23q48 73 134 153zM1775 -274q-33 46 -68 87q-25 -44 -67 -135zM1574 230q0 39 -13 140q-13 106 -23 137q-5 17 -17 29q-22 -44 -89 -163h-18q-18 24 -86 101q-103 -186 -127 -186q-16 0 -50 45q-42 56 -47 60
l-143 -178q-10 8 -28 26q-4 6 -59 105q-77 139 -125 221l-58 -92q-46 -67 -73 -67q-23 0 -60 66q-25 45 -49 89q-17 -119 -17 -159q0 -369 167 -558q44 -49 116 -74q88 -30 121 -30q227 0 336 26q113 27 243 193q37 47 67 128q32 85 32 141zM326 -201v13q-118 30 -201 86
v-14l82 -171h17q15 19 51.5 44.5t50.5 41.5zM1211 1257l-5 -26h-25q-17 39 -28 39q-9 0 -40 -31h-18v17q0 11 20 28t32 17q38 0 64 -44zM1222 1106q0 -45 -20 -80q-25 -42 -67 -42q-63 0 -63 104q0 116 83 116q67 0 67 -98zM893 1243h-29q-25 27 -36 27q-9 0 -18.5 -14.5
t-8.5 -23.5h-26q-5 4 -5 15q0 21 21 35.5t43 14.5q39 0 59 -54zM909 1086q0 -106 -62 -106q-42 0 -67 44q-21 37 -21 83q0 16 10.5 50.5t20.5 40.5t36 6q83 0 83 -118zM1083 854q-49 -20 -58 -61q-13 -58 -32 -80q-27 19 -40 83q-11 51 -55 53q44 170 92 170q32 0 93 -165z
M1133 1142q0 15 -10 20q-17 -17 -17 -26q0 -16 14 -21q13 13 13 27zM1195 1077q0 4 -9 11h-17q-28 -41 -28 -38q0 -7 4.5 -19.5t4.5 -19.5q45 28 45 66zM836 1142q0 10 -18 20q-13 -13 -13 -26q0 -12 18 -21q13 25 13 27zM1036 872q-6 67 -48 108q-44 -65 -44 -95v-13h92z
M886 1059v29q-6 2 -18 4q-28 -27 -28 -44q0 -7 4.5 -20.5t4.5 -20.5q37 37 37 52zM1013 828h-41q5 -25 21 -57q6 28 20 57z" />
  </g>

</svg>
