<?xml version="1.0" standalone="no"?>
<!DOCTYPE svg PUBLIC "-//W3C//DTD SVG 1.1//EN" "http://www.w3.org/Graphics/SVG/1.1/DTD/svg11.dtd" >
<svg viewBox="0 -442 2048 2048">
  <g transform="matrix(1 0 0 -1 0 1606)">
   <path fill="currentColor"
d="M1977 1061q0 -224 -53 -334q-89 -185 -148 -185q-28 0 -53 84.5t-56 84.5q-28 0 -74 -39t-48 -66q38 -4 76 -7q48 -6 48 -44q0 -25 -20 -66.5t-40 -61.5q-49 -28 -120 -92q-7 -34 -18 -84q-35 -137 -77 -200q-15 -23 -99 -94q-33 -31 -104 -87q-28 -19 -111 -56.5
t-112 -43.5q-39 -8 -114 -8q-68 0 -229 35q-187 41 -292 154l-48 69q-106 144 -141 296q-31 134 -31 178v199q0 6 -15.5 42t-15.5 55q0 50 25 88q-7 28 -7 58q0 104 87 119q20 -2 61 10q6 4 44 43q50 51 87 77q8 6 69 37q43 23 131 60q120 39 289 39q251 0 429 -65
q123 238 180 238q39 0 59 -72q14 -50 14 -104q0 -40 -13 -93q-15 -64 -37 -82q34 -28 74 -48q59 67 117 134q75 79 136 109q37 18 45 18q43 0 77 -128q28 -103 28 -167zM1936 992q0 10 -1 28.5t-1 27.5h-14q-18 -5 -54 -16q-31 -12 -73 -39q-26 -20 -75 -40l-3 2v19
q0 13 64 52q58 36 81 43.5t70 22.5v17q0 36 -24 109q-34 -20 -98 -68q-2 -2 -51 -55q-42 -46 -46 -46h-6l-2 2v26q113 131 192 176q-1 24 -17 42q-30 -15 -86 -52q-26 -22 -67 -68q-147 -165 -150 -165q-14 0 -80 46q-59 40 -80 60q88 67 88 235q0 52 -23 82h-18
q-35 -40 -92 -128q-24 -70 -60 -141q-61 46 -213 73q-125 23 -231 23q-73 0 -152 -9q-27 -8 -81 -21q-110 -22 -204 -79q-42 -26 -113 -100q-13 -15 -41 -40q-2 -1 -83 -25q-46 -14 -46 -68v-19q25 11 51 11q41 0 86 -23q53 -26 53 -63q0 -29 -18 -29q3 0 -44.5 40.5
t-76.5 40.5q-25 0 -45 -26.5t-20 -52.5q0 -24 37 -98t56 -87q14 -9 34 -9q21 0 32 27t23 27t22 -14v-5q0 -85 -91 -85q-30 0 -81 54q5 -69 23 -206q16 -87 86 -231q18 -40 64 -112q71 -84 145 -130q125 -78 418 -78q-19 0 48 10q186 28 405 256q12 11 30 35q51 100 111 384
l3 3l4 -3q0 -21 -2 -66.5t-2 -68.5q84 67 137 152q-24 15 -89 15q-36 0 -53 19v6q0 58 57.5 117t115.5 59q78 0 116 -165q34 27 87.5 126.5t53.5 140.5v21h-43q-26 0 -77.5 -15.5t-77.5 -15.5q-11 0 -21 14q13 28 100 42q59 7 119 15q14 25 14 61zM1457 1348
q0 -6 -21.5 -71.5t-25 -72t-19.5 -21.5q-7 2 -18 13q15 24 38 88q20 58 41 84q5 -6 5 -20zM1027 916q0 -22 -22 -36q-27 59 -49 81q-32 30 -88 30q-38 0 -76 -24q-11 -10 -35 -29h-22v12q0 10 21 35q44 53 104 53q62 0 110 -29q57 -34 57 -93zM1457 634q0 -126 -50 -249
q-52 -131 -142 -209q-56 -49 -107 -49q-17 0 -40 62q-38 100 -38 235v18q-20 4 -59 16q-15 6 -31.5 31t-16.5 41q0 -1 9 19h14q11 -40 43 -50q10 -4 68 -8q6 -184 45 -285q16 -41 27 -41q18 0 73.5 50t55.5 67q0 55 -40 103q-13 8 -37 23q-34 24 -65 62v48q9 -15 33 -41
q23 -10 66 -37q23 -19 75 -114q48 70 48 150q0 91 -116 91q-12 0 -35.5 -1t-34.5 -1q-14 0 -36 17.5t-24 30.5l10 9q44 -29 91 -32q-18 1 97 1q9 0 73 -57q6 25 6 74q0 46 -34 84h-21q-29 0 -83.5 -17.5t-82.5 -17.5q-41 0 -51 36l22 1q5 0 16 -1.5t16 -1.5t33.5 10.5
t36.5 11.5q44 8 133 15q-18 56 -27 65q-15 16 -66 16h-23q-21 0 -72.5 -32t-57.5 -32q-4 0 -21 10q-20 11 -24 12q-15 5 -58 5q-5 3 -5 12q0 23 28 23q18 0 46.5 -10t31.5 -10q10 0 51.5 29t71.5 29h116q62 -94 62 -211zM708 983q0 -149 -111 -149q-100 0 -100 144
q0 66 24 112q30 59 89 59q98 0 98 -166zM581 1033q0 31 -25 31q-21 0 -21 -29q0 -20 26 -32q20 20 20 30zM685 978q0 19 -5 28q-17 0 -37 4q1 -5 1 -9q0 -20 -11 -41q-14 -26 -32 -23q4 -12 24 -76q60 45 60 117z" />
  </g>

</svg>
