<?xml version="1.0" standalone="no"?>
<!DOCTYPE svg PUBLIC "-//W3C//DTD SVG 1.1//EN" "http://www.w3.org/Graphics/SVG/1.1/DTD/svg11.dtd" >
<svg viewBox="0 -442 2048 2048">
  <g transform="matrix(1 0 0 -1 0 1606)">
   <path fill="currentColor"
d="M2000 163q-8 -10 -17 -10q-5 0 -73 25q-75 28 -82 30q-30 -51 -81 -115q51 -29 144 -100l-4 -14h-13q-6 0 -70.5 44.5t-83.5 44.5q-4 0 -21 -17q-21 -20 -23 -21q-31 -16 -92 -50l73 -65v-22q-32 23 -95 78q-52 -25 -158 -66q-44 0 -129 -21q-28 -32 -89 -83
q-35 -21 -147 -21q-9 0 -27.5 -1t-27.5 -1q-76 0 -113 41q-54 60 -64 65q-52 7 -132 21q-51 23 -155 66q-29 -27 -90 -78l-9 4v14l77 69q-33 15 -96 50q-3 2 -21 22q-16 16 -21 16q-11 0 -73 -39l-78 -50h-14q-4 0 -4 9q0 15 65 54q42 23 83 47q-44 45 -85 119
q-14 -3 -80 -30q-61 -25 -67 -25q-19 0 -25 10q29 20 90 51q23 7 69 24q-42 118 -42 171v115q-17 9 -57.5 15t-59.5 16v19h36q13 0 39.5 -8t41.5 -8q11 70 39 147q3 9 34 75q28 60 28 64q0 -16 -19 62q-20 82 -20 156q0 110 31 195q43 119 132 119q81 0 180 -177
q12 -22 28 -22q22 0 113 33q109 39 124 43q53 14 217 14q98 0 229 -47q118 -43 123 -43h6q4 -1 6 -1q4 1 7 2q15 8 27 32q10 20 19 40q74 126 157 126q86 0 130 -120q31 -87 31 -194q0 -75 -28 -187q-11 -44 -11 -29q0 -3 33 -83q36 -86 40 -97q15 -44 19 -66l2 -26
q2 -16 13 -16q12 0 37.5 8t37.5 8h36v-19q-35 -20 -114 -24q-2 -2 -2 -92q0 -25 -16 -99.5t-27 -102.5q6 -8 32 -14q33 -7 37 -9q27 -11 90 -51zM1809 552q1 55 -20 131q-19 64 -39 128q-37 -21 -73 -42q-45 -23 -80 -22q-5 -6 -11 -6t-10 7v17q57 26 131 74q44 58 44 175
q0 190 -59 268q-4 1 -8 1q-43 0 -71 -98q-21 -75 -21 -136q0 -65 5 -88q4 -17 28 -68q21 -47 21 -59q0 -1 -2 -3h-15q-72 49 -72 241q0 27 14 71q6 35 25 101l42 69h-17q-22 0 -59 -51q-28 -40 -43 -74q-6 -22 -22 -63q-13 -27 -35 -27q-46 0 -58 6q-182 89 -363 89
q-159 0 -285 -49q-5 -2 -53 -27q-33 -18 -53 -18q-52 0 -66 26q-16 45 -57 129q-8 12 -31 34q-26 25 -35 25h-17q18 -26 41 -68q36 -129 36 -200q0 -206 -82 -214l-3 2v20q0 4 23 51t26 60q5 21 5 110q0 39 -25 117q-30 91 -59 91h-20q-59 -91 -59 -259q0 -80 24 -148
q15 -42 67 -67l88 -42v-18l-3 -3h-14q-52 0 -157 66q-20 -64 -39 -128q-21 -76 -20 -131v-13q67 -24 133 -47q80 -29 128 -59q50 -38 152 -107q34 -20 34 -25q0 -8 -14 -19q-70 35 -143 86q-11 11 -35 29q-38 22 -255 110v-90q0 -31 15.5 -86.5t31.5 -79.5q150 15 234 15
q112 0 136 -9q14 -5 14 -16q0 -17 -25 -17q-29 0 -88 3.5t-89 3.5q-107 0 -171 -9q6 -19 25 -52q45 -48 66 -48q-1 0 64 16q132 32 193 32q18 0 25 -22q-13 -14 -57 -14q-25 0 -94 -17q-96 -24 -98 -24l113 -60q109 62 129 62q9 0 19 -7v-14q-6 -14 -23.5 -18.5t-33.5 -8.5
q-1 0 -48 -24q32 -20 107.5 -44t110.5 -24q5 0 14.5 4t14.5 4q3 0 40 -36t45 -41q41 -24 98 -24q75 0 127.5 48.5t57.5 48.5t13.5 -2t13.5 -2q28 0 116.5 26.5t101.5 42.5q-16 9 -48 23q-21 3 -57 23v18q12 7 19 7q20 0 127 -62l115 60q-59 14 -177 40q5 -1 -40 -1
q-22 0 -32 12v12q6 14 25 14l14 -1q66 -2 174 -29q33 -9 67 -18q23 0 56 38.5t33 62.5q-61 8 -167 8q-30 0 -91 -3.5t-91 -3.5q-18 0 -20 17q7 14 14 16q31 9 135 9q72 0 131 -6q88 -9 72 -9h32q42 86 47 256q-165 -55 -255 -110q-188 -115 -176 -115q-16 0 -16 19
q0 11 7 15q22 13 64 39q37 28 115 78q60 35 101 50q54 17 160 56v13zM1420 876v-22q0 -4 -9 -4q-6 0 -26.5 16t-31.5 16q-57 0 -73 -13q-7 -10 -20 -29q-18 -5 -15 -5q-15 0 -15 21q0 24 32 51q11 9 89 9q43 0 69 -40zM1459 541q0 -62 -21 -109q-29 -61 -83 -61
q-150 0 -150 255q0 37 6 52q19 53 78 92q15 10 38 10q67 0 104 -90q28 -69 28 -149zM856 856q0 -18 -15 -18q-13 0 -31.5 21.5t-46.5 21.5q-6 0 -18 1h-17q-15 0 -28.5 -16t-32.5 -16q-5 5 -5 16q0 19 27 41q12 9 44 9q70 0 83 -9q40 -29 40 -51zM876 609q0 -116 -40.5 -177
t-78.5 -61q-64 0 -87 21q-19 17 -34 69q-13 46 -13 78q0 83 27 151q36 90 105 90q33 0 70 -35q33 -32 45 -67q6 -18 6 -69zM1351 197q0 -93 -27 -139q-31 -54 -115 -82q-20 -1 -54 -3q-3 -1 -6 -5v-5q2 -18 -12.5 -39t-32.5 -26.5t-88 -5.5q-55 0 -66.5 27t-22.5 54
q-102 -1 -167 77q-28 34 -28 75v92q0 9 24.5 41.5t34.5 40.5q1 1 37 14q1 -5 9 -13q-14 -15 -38 -48q-21 -40 -21 -85q0 -50 13 -69q20 -29 65.5 -55t79.5 -26q11 0 41 18q-31 32 -62 63q-20 28 -20 89q0 56 20 79q5 -12 15 -72q8 -44 28 -68q7 -8 40 -25.5t43 -17.5
q40 0 76 36q33 33 43 147q14 -1 18 -9q9 -17 9 -70q0 -87 -82 -149q11 -21 41 -21q44 0 90 28t60 68q8 23 8 56q0 63 -59 126q1 9 10 18q11 -3 32 -13q20 -14 41 -46q23 -35 23 -57zM1308 644q0 50 -26 50q-37 0 -37 -70q0 5 13 -42h25q25 53 25 62zM1440 540v17
q-26 8 -50 13q-3 -30 -25 -56.5t-22 -27.5q0 -27 16 -75q39 8 52 28q29 44 29 101zM747 652q0 42 -25 42q-10 0 -21.5 -13.5t-11.5 -23.5v-59q3 0 9 -2.5t10 -2.5q39 0 39 59zM844 544v25q-22 7 -46 12v-7q2 -20 -13 -43.5t-34 -31.5q6 -28 24 -81h14q11 15 30 48
q25 55 25 78zM1113 -3q-50 36 -47 36q-5 0 -9 -2.5t-6 -2.5v-104h30q22 16 25.5 35t6.5 38zM1031 -76v104l-9 5q-3 -1 -53 -36q1 -3 6 -38q2 -18 22 -35h34z" />
  </g>

</svg>
