<?xml version="1.0" standalone="no"?>
<!DOCTYPE svg PUBLIC "-//W3C//DTD SVG 1.1//EN" "http://www.w3.org/Graphics/SVG/1.1/DTD/svg11.dtd" >
<svg viewBox="0 -442 2048 2048">
  <g transform="matrix(1 0 0 -1 0 1606)">
   <path fill="currentColor"
d="M1938 944q0 -123 -32 -196q-4 -9 -97 -166q-20 -34 -51 -101q-6 -8 -16 -27q-2 -7 -2 -117q-4 0 -12 -2t-12 -2q2 0 -49 27q0 -15 8 -25v-40h-44q-4 0 -10 3t-10 3q-1 0 -5 -1q27 -45 27 -59q0 -24 -29 -24q14 0 -45 13l32 -40q11 -14 11 -53h-40q9 0 -54 26l-3 -5
q0 -18 17.5 -56t17.5 -73q-16 -16 -31 -16q-9 0 -32 16l-6 -76q-9 -44 -51 -44q-15 0 -25 46q-18 -20 -18 -55q0 -14 4 -41t4 -41q0 -29 -28 -29q-25 0 -48 28q-36 45 -37 46q-5 -1 -9 -7q-7 -13 -19 -38q-50 -102 -203 -102q-5 0 -15.5 4t-15.5 4t-15.5 -4t-15.5 -4
q-78 0 -139 36q-67 40 -89 111q-5 -4 -41 -44q-25 -30 -47 -30q-28 0 -28 33q0 10 2.5 29t2.5 29q0 33 -13 72q-5 0 -7.5 -21.5t-18.5 -21.5q-44 0 -54 40l-8 76q-17 -12 -28 -12q-15 0 -31 16v12q-1 8 -1 12q0 17 18 52.5t18 58.5q-9 -3 -43 -20q-12 -7 -54 -7v32
q0 -5 39 57q-7 0 -20.5 -4.5t-20.5 -4.5q-29 0 -29 24q0 14 27 59q-1 1 -4 1q-4 0 -12.5 -3t-12.5 -3h-40q0 42 8 66q-27 -13 -45 -32q-13 8 -28 8q0 10 1.5 33t1.5 34q0 37 -17 76l-34 70q-12 29 -40 66q-23 30 -46 61q-64 94 -64 186q0 126 10 144q6 14 23 39
q57 61 219 157q18 7 54 22q41 28 132 67q14 1 41 6q16 35 51 102q12 20 62 37q22 8 153 61q19 -2 19 -27q0 -6 -20 -35v-4q70 58 96 72q47 24 118 24q41 0 56 -22q8 -11 20 -59q64 -19 77 -19q8 0 28 29q12 2 34 2q27 0 87 -22q13 -4 39 -14q25 -13 47.5 -66.5t30.5 -58.5
q15 -1 41 -6q58 -16 186 -89q14 -12 42 -33q54 -35 108 -69q44 -33 92 -94q10 -47 10 -63zM1872 926q0 122 -278 238q-32 12 -93 41q-9 8 -28 21q-19 3 -53 18q-12 10 -19 32q-10 31 -13 36q-22 40 -61 72q-45 36 -61 36q-11 0 -18 -18l-8 -28h-64q-26 0 -54 9
q-13 4 -34 26.5t-23.5 35.5t-7.5 37q-32 -2 -94 -13q-32 -10 -92 -65q-57 -51 -93 -57l-3 5q5 84 5 76v4q-35 -15 -98 -56q-32 -29 -54 -72q-7 -24 -28 -60q-22 -6 -62 -22q-73 -42 -115 -59q-90 -37 -167 -90q-109 -75 -109 -138q0 -112 50 -185q15 -30 49 -88
q59 -80 71 -102q30 -53 41 -119q103 121 103 274q0 38 -18.5 111t-18.5 111q0 11 -7 31.5t-7 31.5q0 41 31 102q35 68 72 68q14 0 25 -6v-30q-57 -37 -73 -117q-4 -20 -4 -23l50 -280q3 -48 -13 -97q-5 -11 -13 -35q-23 -121 -91 -241q21 14 88 85h2q4 0 5 -2l-1 -1
q0 -61 -7 -83q-8 -27 -43 -72q64 20 79 40q6 11 22 29l2 -7l-22 -70q-15 -38 -39 -61q54 17 82 49l3 -102q1 -24 -29 -74q26 7 42.5 38t25.5 31q-1 -18 -9 -70q-7 -45 -7 -71q0 -17 6 -29q0 17 13 47q15 34 29 34q19 0 34 -61q13 -50 13 -79q0 -7 -1 -21t-1 -20q60 40 75 62
q5 14 22 30q17 -40 35 -82t57 -66q13 -9 40 -21q15 -3 106 -3h52q76 0 117 56q0 1 60 120q4 -20 38.5 -54t55.5 -40q-4 18 -4 37q0 82 42 142h15q25 -24 35 -85q0 5 2.5 16.5t2.5 17.5q0 22 -10 63.5t-10 63.5q0 7 3 12q10 -5 30 -39q17 -29 41 -29q-31 40 -31 118
q0 42 3 58q31 -35 82 -49q-35 49 -41 60q-17 31 -20 72v2q0 4 2 5l1 -1q26 -33 45 -44q28 -12 55 -25q-50 54 -50 137q0 13 3 21q11 -3 26 -25q19 -28 23 -32q15 -9 44 -30q-26 41 -68 128q-15 42 -34 127q-21 91 -21 127q0 6 17 88l37 183q-15 100 -77 142v30q6 6 15 6
q28 0 40 -9q23 -18 48 -74t25 -87q0 -7 -7 -28t-8 -27q0 -27 -6 -81q-9 -37 -19 -75q-11 -45 -11 -76q0 -169 103 -270q11 47 38 107q3 11 10 31q23 29 67 88q95 134 95 257zM1424 1068q0 -7 -11 -7q-3 0 -10 2q-62 18 -106 18q-41 0 -71 -8q-42 -11 -39 -11q-17 0 -17 17
q0 48 109 48h46q69 0 99 -39v-20zM1451 834q-38 108 -154 108q-114 0 -152 -108q8 92 44.5 129t128.5 37q74 0 105 -55q28 -50 28 -81v-30zM1432 659q0 -141 -135 -141q-131 0 -131 143q0 142 131 142q135 0 135 -144zM850 1079q0 -1 -4 -13q-20 0 -61 7.5t-62 7.5
q-38 0 -70 -8q-41 -11 -40 -11q-18 0 -18 17q0 48 126 48q129 0 129 -48zM876 830q-38 112 -155 112q-109 0 -151 -104q7 162 153 162q63 0 93.5 -21t47.5 -79q12 -42 12 -52v-18zM854 661q0 -143 -131 -143q-135 0 -135 141q0 144 135 144q131 0 131 -142zM1201 156
q0 -32 -33 -72q-29 -37 -61 -54q-17 -6 -33 -12q-27 -10 -27 -15q0 -17 19 -17q55 0 130 38v-5q-2 -50 -72 -83q-58 -27 -114 -27q-122 0 -187 94v17q98 -34 131 -34q7 0 19 14q-8 12 -33 21q-33 12 -39 16q-82 52 -82 132q0 58 41 97t99 39q8 0 24.5 -1.5t24.5 -1.5t23 1
t23 1q40 0 107 -42q40 -25 40 -106zM1274 707q0 27 -29 27q-25 0 -25 -29q0 -21 25 -21q29 0 29 23zM1397 624v24l-6 -3h-14q-20 0 -33 4q2 -32 -42 -39v-61h28q21 0 44 27t23 48zM699 696v22q-17 16 -28 16q-25 0 -25 -27q0 -23 25 -23q16 0 28 12zM823 641q-18 2 -53 8
q-2 -14 -18 -28t-29 -11v-61h32q25 0 48 34q20 31 20 58zM1097 232q-25 20 -68 20h-31q-57 0 -74 -20v-14q65 -16 65 -58v-19q0 -32 -54 -58q12 -16 21 -16q6 0 27.5 11.5t26.5 11.5q6 0 26 -11.5t26 -11.5q14 0 23 18q-59 19 -59 55q0 31 2 36q9 23 40 34q28 10 29 22z" />
  </g>

</svg>
