<?xml version="1.0" standalone="no"?>
<!DOCTYPE svg PUBLIC "-//W3C//DTD SVG 1.1//EN" "http://www.w3.org/Graphics/SVG/1.1/DTD/svg11.dtd" >
<svg viewBox="0 -442 2048 2048">
  <g transform="matrix(1 0 0 -1 0 1606)">
   <path fill="currentColor"
d="M1936 547q0 -293 -94 -424l-57 -52q-31 -35 -97 -103q-123 -118 -294 -169q-15 -4 -70 -11q-12 -1 -48 -10q-31 -7 -49 -7h-432q-57 0 -167 28q-1 0 -66 28q-151 65 -231 142q-14 16 -42 49q-39 32 -109 105q-1 2 -34 70q-64 133 -64 296q0 140 28 238q8 18 24 55
q43 109 145 211q61 61 198 165q204 155 239 179q181 125 250 125q8 0 23.5 -1.5t23.5 -1.5t23 1.5t23 1.5q58 0 285 -152q52 -41 159 -121q306 -217 376 -392q13 -24 33 -74q24 -96 24 -176zM1824 551q0 37 -34.5 126t-59.5 121q-49 64 -141 135q-78 58 -156 117
q-35 29 -154 134q-32 32 -101 88q-9 6 -86.5 42.5t-80.5 36.5q-17 0 -88 -35q-63 -31 -87 -48q-52 -36 -126 -106q-94 -90 -121 -112l-156 -118q-93 -72 -141 -134q-16 -21 -57 -116t-41 -115q0 -29 1.5 -86.5t1.5 -86.5q0 -88 132 -227q115 -121 214 -171q25 -13 110 -43
q90 -32 107 -32h502q21 0 108 31q80 29 109 44q155 80 285 258q25 34 56 105q4 189 4 192zM1582 495q0 -51 -11 -82q-4 -9 -37 -73q-9 -2 -45 -13q-27 -8 -45 -8q-8 0 -55 40q-41 36 -54 50q-56 64 -104 176q-49 116 -49 195q0 15 28 52.5t43 45.5q8 4 19 4q6 0 19 -1.5
t19 -1.5t18 1.5t18 1.5q12 0 21 -4q47 -21 102 -81q50 -56 75 -108q38 -79 38 -194zM835 776q0 -109 -64 -234q-67 -130 -157 -182q-36 -21 -32 -21h-98q-43 101 -43 120q0 135 32 222q11 30 74 109q11 14 58.5 51.5t58.5 37.5h95q11 0 41 -36.5t34 -49.5q1 -3 1 -17z" />
  </g>

</svg>
