<?xml version="1.0" standalone="no"?>
<!DOCTYPE svg PUBLIC "-//W3C//DTD SVG 1.1//EN" "http://www.w3.org/Graphics/SVG/1.1/DTD/svg11.dtd" >
<svg viewBox="0 -442 2048 2048">
  <g transform="matrix(1 0 0 -1 0 1606)">
   <path fill="currentColor"
d="M1588 429q-30 -4 -124 -20q-21 -59 -64 -177q31 -11 91 -37q-33 6 -98 22q-187 -348 -558 -348q-331 0 -546 334q-4 7 -12 14q-33 -7 -98 -25q13 13 43 23q44 14 48 16q-43 114 -54 175q-19 10 -68 13q-45 3 -66 17h66q23 0 53 -10v5q0 20 -3.5 60.5t-3.5 60.5
q0 63 13 156q2 15 15 59q10 37 10 59q0 -5 -31 52q-55 101 -55 242q0 47 18 113q16 55 31 110h28q33 0 133 -48q94 -46 127 -73q45 -37 123 -121q155 22 229 22t229 -22q35 64 174 153t209 89h28q1 -4 31 -110q18 -66 18 -113q0 -128 -53 -233q-33 -65 -33 -61q0 -29 12 -78
q16 -59 18 -77q7 -51 7 -104q0 -63 -11 -136q33 -2 124 -2zM1459 1126q0 87 -27 147h-18q-11 0 -53 -17q-166 -68 -270 -230q-179 33 -256 33q-43 0 -256 -33q-51 76 -107 127q-38 34 -104 74q-78 46 -113 46h-16q-23 -58 -23 -150q0 -187 96 -287q-22 -38 -39 -139
q-14 -87 -14 -147q0 -63 17 -128q91 -9 183 -18q135 -16 166 -33q5 -3 4 -10l-9 -10l-339 53v-18q0 -24 54 -136h18q-1 0 64 14q107 23 182 23q31 0 35 -18l-9 -9l-275 -28q186 -299 485 -299q155 0 284 82q124 78 201 217q-92 11 -275 29l-14 13q8 6 9 13h52q7 0 39 -6
q167 -31 204 -31q55 110 54 154l-329 -53h-6q-8 0 -13 4v14q70 30 177 40q91 6 182 13q11 78 11 117q0 179 -53 297q101 93 101 290zM1207 544q0 -123 -112 -123q-113 0 -113 121q0 126 113 126q112 0 112 -124zM918 318q-8 -10 -40 -33q-35 -25 -43 -25q-24 0 -83 58
q36 -4 79 -4t87 4zM688 544q0 -123 -116 -123q-115 0 -115 123q0 124 113 124q118 0 118 -124zM1062 227q-21 -38 -71 -62q-46 -23 -92 -23q-11 0 -33.5 5.5t-33.5 5.5t-33.5 -5.5t-33.5 -5.5q-47 0 -96 25q-54 27 -72 66q55 -43 147 -43q15 0 44 8.5t44 8.5t44.5 -8.5
t44.5 -8.5q53 0 141 37zM896 109q-33 -36 -61 -36q-21 0 -67 41q36 -9 83 -9q29 0 45 4zM1073 572v25q-10 5 -30 11q-8 -12 -8 -30q0 -7 2 -12q6 0 18 3t18 3zM1180 503v30h-47q-1 -19 -32 -27v-58q18 2 47 12q32 23 32 43zM553 591l-17 17h-19q-5 -9 -5 -27v-15h29
q12 11 12 25zM655 503v30h-47q-8 -26 -32 -27v-58q17 2 46 12q33 23 33 43z" />
  </g>

</svg>
