<?xml version="1.0" standalone="no"?>
<!DOCTYPE svg PUBLIC "-//W3C//DTD SVG 1.1//EN" "http://www.w3.org/Graphics/SVG/1.1/DTD/svg11.dtd" >
<svg viewBox="0 -442 2048 2048">
  <g transform="matrix(1 0 0 -1 0 1606)">
   <path fill="currentColor"
d="M1986 95q-104 184 -196 271q-132 123 -300 123q-51 0 -215 -32q-14 -48 -55 -133q-60 -87 -158 -137q-50 -26 -197 -75q-160 -53 -234 -92q-151 -81 -151 -174q0 -45 56 -45q20 0 33 19q12 16 23 32q12 -24 12 -39q0 -57 -73 -90q-58 -26 -124 -26q-163 0 -163 157
q0 40 22 101q43 120 165 187q73 40 240 85q50 13 99 56q0 6 -43.5 29t-53.5 23q-20 0 -20 -20q0 -21 16 -36q-6 -10 -13 -10q-24 0 -44 23t-20 47q0 100 83 100q16 0 49.5 -9.5t49.5 -9.5q52 0 84 50q28 43 28 98q0 84 -83 84q-67 0 -163 -89q-91 -85 -113 -154
q-8 -25 -8 -57q0 -66 61 -65q-21 -61 -81 -61q-85 0 -129 105q-18 -44 -18 -54q0 -26 15.5 -49t15.5 -25q0 -20 -26 -40q-22 -16 -45 -21q-5 -1 -29 -1q-111 0 -163 146q-38 104 -38 241q0 96 17 172q26 122 87 122q27 0 76 -25.5t79 -25.5q122 0 146 285q0 31 6 89
q35 161 65 226q55 122 159 162q31 12 60 11q-76 -101 -76 -188q0 -15 3 -30q13 -14 25 -14q14 0 88 53q28 20 66 35q90 36 180 36q116 0 163 -49q-93 -40 -93 -81q0 -71 139 -71q58 0 171.5 25t172.5 25q129 0 301 -72q-378 -31 -378 -109q0 -28 52 -28q70 0 181 34
q55 17 145 17q38 0 69 -5v-1027zM1720 1229q-70 10 -85 10q-170 0 -350 -114l-142 -96q-85 -55 -152 -79q-70 -25 -139 -49q-100 -43 -101 -86q15 -13 54 -13q158 0 459 219q249 181 456 208zM730 1057q-127 -100 -195 -212q13 7 24 7q55 0 55 -43q0 -5 -2 -10
q80 46 118 258zM252 493q0 80 -80 120q-5 -26 -5 -60q0 -127 36 -156q21 1 36 39q13 32 13 57z" />
  </g>

</svg>
