<?xml version="1.0" standalone="no"?>
<!DOCTYPE svg PUBLIC "-//W3C//DTD SVG 1.1//EN" "http://www.w3.org/Graphics/SVG/1.1/DTD/svg11.dtd" >
<svg viewBox="0 -442 2048 2048">
  <g transform="matrix(1 0 0 -1 0 1606)">
   <path fill="currentColor"
d="M1962 410q0 10 -7 -35q-20 -129 -28 -155q-18 -59 -78 -139q-25 -34 -64 -60q-7 -5 -66 -35q-45 -24 -132 -75q-80 -65 -244 -188q-23 -16 -93.5 -40.5t-101.5 -28.5q-8 -1 -126 -1q-18 0 -54.5 -2t-54.5 -2q-85 0 -212 74q-27 23 -78 66q-64 52 -166 122
q-67 34 -198 109q-74 47 -134 168q-8 16 -25.5 109t-17.5 115q0 11 7 100q3 59 17 177q23 90 64 270q-53 38 -67 94q-7 29 -7 117q0 120 130 241.5t251 121.5q69 0 124.5 -44t72.5 -110q4 -18 17 -41q21 7 64 18q85 17 123 17h285q97 0 187 -35q15 40 37 94q14 29 59.5 60.5
t78.5 38.5q10 2 42 2q145 0 267 -134q112 -124 112 -233q0 -84 -7 -115q-14 -60 -65 -92q23 -84 60 -255q28 -173 28 -294zM1889 458q0 99 -22 241q-20 119 -40 239q-85 -11 -69 -11q-33 0 -49 10q-7 4 -29 31q-42 53 -83 106q-51 59 -101 87q-43 15 -122 52q-22 13 -23 63
v4l-131 28h-396l-131 -28q-2 -19 -4 -37q-3 -22 -17.5 -28.5t-40.5 -17.5q-106 -43 -143 -78q-23 -22 -157 -184q-7 -1 -22 -4.5t-23 -3.5q21 0 -70 11q-3 -30 -37 -239q-24 -145 -24 -241q0 -67 21 -163q5 -30 22 -88q34 -78 106 -129q62 -33 183 -106q71 -48 174 -127
q33 -26 101 -76q66 -43 313 -43q86 0 153 20q40 12 131 85q96 77 198 141q64 35 187 110q73 51 102 129q43 117 43 247zM1626 353q0 -134 -65 -180q-50 -36 -89 -36q-57 0 -62 44q-10 80 -21 98q-8 14 -48 40q-53 34 -56 37q-36 29 -36 54q0 18 19.5 39.5t19.5 44.5
q0 12 -4 38t-4 38q0 37 21 67.5t56 30.5q180 0 256 -196q13 -33 13 -119zM1329 46q0 -138 -259 -133l-166 3q-140 3 -184 89q-5 10 -5 41q0 84 88 84q24 0 69 -8q54 -9 71 -10.5t41 -0.5h38q69 1 121 8q85 11 98 11q88 0 88 -84zM795 406l-17.5 -24t-62.5 -53t-60 -50
q-7 -11 -17 -88q-6 -54 -52 -54q-98 0 -144 85q-5 8 -18 58q-10 37 -10 68q0 79 16 127q13 39 57.5 92.5t80.5 71.5q57 28 101 28q94 0 94 -92q0 -11 -3.5 -32t-3.5 -32q0 -48 34 -71q5 -40 5 -34zM1149 -118q-9 -30 -28 -90q-39 -24 -50 -24h-98q-8 0 -35 25q-24 22 -31 33
q-5 20 -16 55q82 -33 139 -33q12 0 98 12q7 7 21 22zM1455 498q0 6 -2.5 16.5t-2.5 15.5q-3 0 -9.5 2t-10.5 2q-33 0 -33 -48q0 -36 23 -36q35 0 35 48zM1542 435q0 8 -4 11q-15 2 -45 7q0 -38 -27 -53q-1 -3 -1 -7q0 -19 25 -53h21q31 83 31 95zM1203 35v33q-26 12 -27 12
q-18 0 -57 -8t-60 -8q-96 0 -109 2q-103 14 -82 14q-1 0 -27 -12v-33q43 -23 134 -23h112q62 0 104 12q4 4 12 11zM589 498q0 5 -2 16t-2 16q-3 0 -9.5 2t-10.5 2q-33 0 -33 -29v-47q4 0 11.5 -4t11.5 -4q34 0 34 48zM676 425v28q-7 -7 -13 -7t-17.5 3.5t-17.5 3.5v-5
q0 -18 -13.5 -36t-13.5 -21q0 -6 24 -51q14 7 32.5 38t18.5 47z" />
  </g>

</svg>
