<?xml version="1.0" standalone="no"?>
<!DOCTYPE svg PUBLIC "-//W3C//DTD SVG 1.1//EN" "http://www.w3.org/Graphics/SVG/1.1/DTD/svg11.dtd" >
<svg viewBox="0 -442 2048 2048">
  <g transform="matrix(1 0 0 -1 0 1606)">
   <path fill="currentColor"
d="M2008 777q0 -67 -5 -103q-9 -25 -25 -75q-55 -176 -167 -204q-20 -5 -61 -5q-19 0 -32 4q-9 -13 -10 -39q-1 -20 -2 -41q-23 -152 -74 -243q-12 -11 -33 -35q-71 -86 -162 -139q-63 -40 -125 -80q-78 -49 -134 -59q-66 -12 -133 -12q-83 0 -143 16q-38 11 -133 52
q-31 12 -92 38q-30 14 -114 101q-76 78 -105 118q-7 19 -22 55q-33 74 -52 184q-2 24 -3 47q-3 37 -10 37q-6 0 -16.5 -2t-16.5 -2q-175 0 -251 271q-5 18 -5 110q0 124 69 220q77 107 196 107q16 0 80 -32q14 56 39 133q73 129 175 190q10 6 110 42q32 15 98 37q50 9 196 9
q141 0 192 -9l90 -33q39 -12 114 -42q103 -53 183 -195q13 -23 22 -65q12 -52 17 -67q66 32 80 32q85 0 132 -37q57 -45 95 -127.5t38 -156.5zM1939 730v29q-1 19 -1 29q0 73 -46 148q-51 82 -119 92q-7 7 -17 7q-7 0 -26.5 -25.5t-21.5 -34.5q-32 -126 -32 -321
q0 -142 17 -189l20 -1q83 -2 117 30q68 63 103 179q6 20 6 57zM1582 422q0 43 -18 99q-22 66 -53 79q-13 4 -38 12v14q98 42 98 269q0 121 -73 225q-38 54 -89 70q-16 5 -65 5q-46 0 -61 -5q-88 -30 -159 -148q-11 -12 -29 -39q-15 -36 -50 -105q-74 139 -111 187
q-83 110 -170 110q-71 0 -87 -5q-8 -6 -24 -17q-54 -35 -100 -119q-10 -15 -25 -48q-9 -37 -9 -113q0 -219 98 -270v-11q-16 -2 -42 -12q-67 -45 -67 -178q0 -161 104 -297q10 -19 34 -54q63 -75 226 -139q16 -9 48 -21q40 -9 155 -9q80 0 170 42q153 72 199 127q6 14 22 39
q116 142 116 312zM410 505v314q0 18 -13 83.5t-20 80.5q-25 52 -43 52q-17 0 -63.5 -26t-54.5 -41q-64 -114 -64 -204q0 -71 5 -91q19 -77 84 -157q5 -9 17 -23q35 -29 99 -29h20q15 1 20 1q13 37 13 40zM1489 830q0 -154 -145 -154t-145 154q0 158 145 158t145 -158z
M1266 478q0 -37 -31 -37q-14 0 -43 27t-34 41q-2 6 -2 20q0 33 28 33q29 0 55.5 -27.5t26.5 -56.5zM1277 592q1 -14 -11 -14q-2 0 -62 33.5t-109 33.5q-116 0 -138 -5q-36 -8 -126 -62h-14q-4 0 -5 10q0 -2 23 28q64 83 208 83q161 0 234 -107zM887 830q0 -154 -149 -154
q-144 0 -144 156t146 156q147 0 147 -158zM934 519q0 -15 -64 -77q-4 -1 -16 -1q-34 0 -34 35q0 27 28.5 56.5t55.5 29.5q30 0 30 -43zM1473 388q-6 -11 -15 -35q-17 -55 -37 -85q-54 -87 -165 -140q-104 -50 -213 -50q-42 0 -182 36q-67 17 -136 88t-90 139q-18 57 -18 44
v52l10 -2q68 -150 153 -212q40 -29 128 -53q83 -22 137 -22q57 0 138 22q86 23 127 53q80 59 157 214zM1254 77q-34 -34 -98 -65q-67 -32 -111 -32q-46 0 -111 32q-60 29 -98 65q51 -17 102 -33.5t105 -16.5q51 0 211 50zM1321 883q0 10 -11 20.5t-21 10.5q-11 0 -27 -16
v-26q7 -13 27 -13q32 0 32 24zM1453 787v32l-6 -3q-19 0 -51 4q-6 -36 -48 -43v-66h33q19 0 45.5 28.5t26.5 47.5zM715 885q0 29 -31 29q-28 0 -28 -31q0 -24 28 -24q31 0 31 26zM848 799q0 12 -5 17q-37 0 -53 4q-7 -43 -47 -43v-66h32q26 0 49.5 30.5t23.5 57.5z" />
  </g>

</svg>
