<?xml version="1.0" standalone="no"?>
<!DOCTYPE svg PUBLIC "-//W3C//DTD SVG 1.1//EN" "http://www.w3.org/Graphics/SVG/1.1/DTD/svg11.dtd" >
<svg viewBox="0 -442 2048 2048">
  <g transform="matrix(1 0 0 -1 0 1606)">
   <path fill="currentColor"
d="M1407 687q0 -4 -2 -12t-2 -12q-2 0 -6 -2.5t-9 -2.5q-13 0 -61 59l5 21h28q14 -11 29 -22q18 -15 18 -29zM1938 -348q-28 2 -41 2t-19 -2v362q0 1 -15 149q-5 50 -12 149q0 42 -10 126q-51 171 -150 514q-1 -1 -23 -37q-12 -20 -34.5 -29.5t-60.5 -9.5q-75 0 -125 57
q-49 54 -50 130q1 16 -1 50q-112 -96 -156 -96h-454q-50 0 -156 96q1 -11 1 -22q0 -84 -47 -146q-51 -69 -133 -69t-116 76q-7 -24 -83 -259q-51 -156 -71 -262q-36 -192 -36 -779q-6 2 -18 2t-46 -2v49q0 10 7 175l16 322q9 168 31 264q16 71 60 190q49 134 64 188
q9 34 25 181q12 111 50 175q19 31 72 53q48 20 89 20q28 0 62 -13q13 -5 109 -95q89 -83 120 -83h450q36 0 119 82q91 89 121 100q25 9 51 9q171 0 206 -188q5 -78 29 -233q33 -86 94 -260q55 -170 75 -589q6 -133 6 -150v-197zM697 723q0 -12 -25.5 -38.5t-38.5 -26.5
q-13 13 -13 25t18.5 33.5t30.5 21.5h23q5 -5 5 -15zM1687 444q-28 -94 -208 -178q-39 -18 -137 -45q-103 -29 -140 -29h-377q-20 0 -123 28q-308 84 -368 224h13q6 0 54 -15q52 -16 65 -18q50 -8 212 -25q109 -11 120 -11h431q7 0 104 10q69 7 206 22q40 5 148 37z
M1667 1128q0 17 -15.5 35.5t-32.5 18.5q-36 0 -36 -48q0 -52 36 -52q48 0 48 46zM1552 1005q-45 23 -50 92q-26 -7 -75 -27q9 -87 73 -148h17q30 43 35 83zM601 1065q0 5 -79 32q1 -63 -50 -92q4 -18 17 -47q17 -36 28 -36q22 0 54 61q30 56 30 82zM445 1132q0 50 -37 50
q-16 0 -33.5 -18t-17.5 -34q0 -14 14 -31t28 -17q46 0 46 50zM1285 262q-17 19 -54 47q-34 17 -71 17h-293q-31 0 -70 -17q-15 -6 -54 -47l108 -24h322z" />
  </g>

</svg>
