<?xml version="1.0" standalone="no"?>
<!DOCTYPE svg PUBLIC "-//W3C//DTD SVG 1.1//EN" "http://www.w3.org/Graphics/SVG/1.1/DTD/svg11.dtd" >
<svg viewBox="0 -442 2048 2048">
  <g transform="matrix(1 0 0 -1 0 1606)">
   <path fill="currentColor"
d="M1377 1033q-8 -9 -18 -9q-6 0 -18 3.5t-18 3.5q-11 0 -64 -41h-14v32q0 15 24.5 31t40.5 16q27 0 67 -12v-24zM1404 858q0 -110 -78 -110q-73 0 -73 104q0 42 18 75q23 40 61 40q35 0 55 -39q17 -31 17 -70zM1808 357q0 -4 -6.5 -10.5t-7.5 -9.5q-15 -33 -21 -98
q-5 -9 -18 -9q-49 0 -49 60q0 20 25.5 50t44.5 30h27q5 -5 5 -13zM1944 361q0 -15 -32 -144q-2 -9 -26 -49q8 -21 8 -38q0 -30 -39 -58q-33 -24 -67 -33q-20 -5 -65 -5q-53 0 -86 25q-22 16 -62 70q-6 8 -17 46q-7 29 -44 58q-34 12 -86 33q-7 3 -56 34q-45 29 -49 29
q-5 0 -14.5 -4t-14.5 -4q-83 0 -149 72q-29 -20 -41 -69q-10 -40 -19 -81q-16 -46 -16 -118q0 -34 35 -92q51 -83 53 -87q50 -109 50 -176q0 -38 -15 -106h-64q15 60 15 107q0 73 -89 207q-14 42 -37 114q-14 43 -14 44q0 26 22 111q20 79 32 111q4 11 59 79v5q0 6 -5 18
t-5 18v32h14q29 -40 59 -79q25 -26 88 -45q4 -1 12 -1q9 0 27.5 2t27.5 2t29 -19q27 -25 29 -26q26 -18 98 -49q27 -5 71 -25q17 -35 48 -93q32 -53 70 -82q10 -8 40 -8q36 0 77 17q49 20 58 49q-4 6 -14 6q-9 0 -38.5 -11.5t-53.5 -11.5q-63 0 -87 54q37 -21 45 -21
q58 0 126 32q21 10 35 43q24 57 24 76v93q0 10 -71 70q-15 7 -37 25q-13 36 -40 105q-2 4 -31 63q-25 51 -25 56v146q0 9 6 27.5t6 28.5q0 16 -5 23q-19 12 -51 38q-66 68 -94 136q-1 2 -3 25q-1 19 -6 19t-18 -4.5t-18.5 -5.5t-41.5 -1q-51 0 -88 23v33q8 8 24 8
q9 0 43.5 -9.5t54.5 -9.5q77 0 97 31q-5 1 -37 1q-26 0 -69.5 35t-65.5 35q-39 0 -76 -39l-56 -70q-3 -4 -14 -4q-19 0 -19 24q0 81 58 157h14v-44q0 -8 -6 -25t-6 -26q39 41 39 103q0 26 -14 60q-11 -5 -20 -18q-26 -46 -81 -136q-21 -19 -51 -64q-3 -23 -13 -69h-17v91
q-69 -51 -188 -72q-179 -31 -201 -38q-117 -35 -201 -128q-3 -3 -26 -60.5t-26 -67.5q-3 -22 -13 -65h-14q0 12 1 36v36q-186 -166 -409 -166v59q153 19 261 66q12 5 53 35l62 40q36 24 53 52q46 77 60 96q39 52 82 77q78 44 252 67.5t254 70.5q19 11 85 105q72 103 92 123
q1 1 27 9q0 2 0 -23q0 -15 12 -54.5t12 -60.5q0 -7 -3.5 -22t-2.5 -26q14 -5 53 -5q7 0 12 3q10 6 69.5 90.5t62.5 97.5h14q10 -20 29 -61q2 -13 7 -38q10 -33 10 -63q0 -24 -7 -63q-5 -31 -10 -63q-9 -27 -43 -47q5 -17 19 -51q24 -43 64 -94l37 -33q23 -21 23 -43v-209
q0 9 24 -44q20 -63 79 -181q9 -13 80 -64q40 -28 40 -111zM1082 1135q-20 -42 -104 -83q-116 -56 -126 -63q-56 -40 -126.5 -151t-80.5 -179q-19 -123 -19 -200q0 -48 8 -90q10 -52 10 -42v-39q-4 -5 -15 -5q-29 0 -73 100q-36 81 -46 131q-97 -222 -218 -314h-24
q-9 6 -9 13q0 5 24 64q25 63 28 77q11 48 20 128l-2 2q-3 -7 -32 -65q-102 -199 -102 -268q0 -77 20 -122q5 -11 21 -19v-13q-10 -5 -26 -5q-39 0 -74 50q-13 19 -33.5 70.5t-20.5 71.5v69h18q2 -5 27 -97q15 -56 43 -92q0 15 -1 42.5t-1 39.5q0 85 43 178q38 68 104 208
q16 74 47 159h21q-6 -4 -6 -10q0 -14 3.5 -43t3.5 -43q0 -72 -32 -219q-12 -33 -25 -77l2 -4q165 172 195 460h22v-58q0 -15 -7.5 -46.5t-7.5 -47.5q0 -25 24 -132q7 -32 31 -74q1 8 1 19q0 8 -1.5 24.5t-1.5 24.5q0 91 35 244q41 180 137 273q85 83 181 103q55 12 98 38
q3 2 34 33h13v-21zM742 -336h-63q-17 91 -56 197q-43 117 -42 150h13q121 -177 148 -347zM1597 1357q0 82 -14 105q-6 -20 -22 -58q-22 -28 -63 -84q27 -27 71 -43q28 72 28 80zM1325 901q0 4 -2.5 10.5t-2.5 9.5q-11 0 -16 5q-17 -17 -17 -27q0 -19 17 -19q21 0 21 21z
M1381 854q0 14 -8 30h-18q1 -35 1 -21q0 -41 -39 -44v-21q8 -3 21 -12q43 40 43 68z" />
  </g>

</svg>
