<?xml version="1.0" standalone="no"?>
<!DOCTYPE svg PUBLIC "-//W3C//DTD SVG 1.1//EN" "http://www.w3.org/Graphics/SVG/1.1/DTD/svg11.dtd" >
<svg viewBox="0 -442 2048 2048">
  <g transform="matrix(1 0 0 -1 0 1606)">
   <path fill="currentColor"
d="M1840 1220l-4 -134q-5 -22 -14 -64q-20 -107 -60 -189q-22 -46 -100 -171q83 -71 83 -79q0 8 -30 -56l87 -109q-12 -11 -45 -22q-39 -13 -50 -20l68 -122q-44 -2 -133 -11q16 -41 16 -55q0 -7 -2 -21t-2 -20q-40 -10 -80.5 -20.5t-75.5 -41.5q-6 -5 -81 -150
q-34 -66 -68 -131q-41 -73 -87 -119q-5 -5 -55 -18.5t-60 -13.5h-372q-61 0 -96 20q-41 23 -83 87q-9 19 -29 57q-45 92 -89 184q-56 106 -144 128q-22 6 -66 15q0 6 -2 22q-2 13 -2 21q0 18 15 56q-46 1 -136 11l72 122q-33 13 -99 38l91 114q-14 21 -30 62q27 24 83 68
q-18 37 -43 74q-135 198 -135 478q0 97 24 200q26 112 206 112q80 0 274 -169q41 -48 125 -143q1 0 19 62.5t41 62.5q12 0 37.5 -36t40.5 -36q26 0 45 74t40 74q43 0 83 -56l58 -92q16 6 33 29q14 19 27 38q9 5 16 5q19 0 36 -48l18 -66h18q33 70 172 183q146 118 215 118
q177 0 206 -116q26 -106 24 -186zM1765 1115v70.5v71.5q0 67 -31 175q-9 8 -55 18.5t-63 10.5q-25 0 -105 -51q-69 -44 -147 -127q-66 -72 -131 -145q-4 -5 -55 -34l-34 174q-28 -49 -61 -49q-26 0 -57 51q-35 60 -37 61q-14 11 -56 21v-8q1 -70 -41 -101q-33 -24 -53 -24
q-34 0 -61 49l-34 -174q-27 14 -73 52q-138 182 -271 261q-75 44 -94 44q-9 0 -120 -31q-32 -123 -32 -243q0 -145 37 -253q11 -39 40 -107q16 -26 143 -150q-17 -5 -48 -19q-27 -24 -85 -68l38 -58q-21 -27 -57 -84q43 -20 91 -56l-64 -81q49 -4 129 -19q-14 -25 -28 -49.5
t-14 -57.5q101 -25 136 -72q13 -17 99 -159q21 -45 66 -133q43 -74 72 -91q34 -20 75 -21l76 -2q-27 15 -71 52q-31 43 -31 126q0 41 12 65q21 41 164 41q195 0 218 -41q12 -22 12 -63q0 -20 -9 -72q-10 -57 -93 -108h39q91 0 127 31q2 1 42.5 73.5t131.5 214.5
q17 36 58 101q23 27 58 40l68 18v13q0 33 -46 94l133 19l-68 84q41 26 95 53q-21 35 -57 84l38 58q-19 11 -54 36q-9 12 -31 32q-16 6 -48 19q52 45 139 147q78 126 78 291zM1088 -136q0 20 -21 23q-12 2 -143 2h-35q-55 0 -55 -17v-13q18 -18 33.5 -19.5t122.5 -1.5
q98 0 98 26zM1722 1182q0 -145 -66 -290q-40 -52 -106 -138q-17 30 -62 83q-19 4 -53 24q-2 2 -12 48l151 56q-27 10 -193 10q38 28 119 74l150 42q-35 21 -59 21h-131q56 24 149 83q19 18 38 53q28 51 32 57q43 -108 43 -123zM1430 764q-22 -16 -70 -24q-59 -11 -75 -17
q-11 -4 -67.5 -37.5t-59.5 -33.5h-23q-5 4 -5 13q0 20 58 58q52 34 80 41q119 32 137 32q16 0 19 -10.5t6 -21.5zM1365 511q0 -121 -102 -121q-110 0 -110 108q0 154 104 154q108 0 108 -141zM541 975h-153q-1 0 -40 -10q64 -27 143 -51q5 -3 5 -12q0 -28 -14 -44
q-18 -6 -48 -21q-6 -5 -62 -83q-38 41 -103 130q-7 25 -25 73q-44 98 -44 219q0 23 17 67l26 66q17 -40 67 -111q24 -22 73 -46q39 -20 79 -39q-51 0 -183 -16q0 -1 -7 -6q51 -12 150 -42q40 -25 119 -74zM792 657q-5 -5 -19 -5q-12 0 -67 32q-60 35 -72 39q-50 6 -142 40
q3 11 6.5 22t16.5 11q15 0 135 -32q46 -12 142 -90v-17zM769 496q0 -106 -106 -106q-110 0 -110 118q0 144 110 144q106 0 106 -156zM1343 496q0 20 -5 30h-40q-12 -55 -46 -58l14 -30q10 -18 24 -18q21 0 43 31q10 14 10 45zM1232 523v37q-4 2 -12 8h-25q0 -4 -4 -11.5
t-4 -11.5v-29q1 0 6.5 -2.5t10.5 -2.5q15 0 28 12zM743 498q0 19 -9 28h-40q-4 -51 -42 -57q14 -49 34 -49q24 0 42 28q15 24 15 50zM632 540v10q0 11 -12 18h-29q-3 -14 -3 -26v-7q0 -12 3 -23h20q21 0 21 28z" />
  </g>

</svg>
