<?xml version="1.0" standalone="no"?>
<!DOCTYPE svg PUBLIC "-//W3C//DTD SVG 1.1//EN" "http://www.w3.org/Graphics/SVG/1.1/DTD/svg11.dtd" >
<svg viewBox="0 -442 2048 2048">
  <g transform="matrix(1 0 0 -1 0 1606)">
   <path fill="currentColor"
d="M1983 136q0 -125 -86 -234q-80 -102 -201 -154q-73 -31 -235 -70q-180 -43 -244 -43h-368q-60 0 -166 25q-83 22 -166 43q-435 103 -435 466q0 158 36 273q22 70 74 165q43 79 87 158q126 249 125 406q-22 -5 -96 -34q-58 -24 -98 -24q-79 0 -79 88q0 60 74 149
q58 69 126 119q85 63 129 63q148 0 231 -48q4 -2 40 -29q31 -23 35 -23q6 0 40 13q39 14 46 16q65 17 207 17q84 0 151 -17q29 -12 90 -29q29 22 90 60q83 40 213 40q40 0 120 -56q70 -49 133 -122q79 -91 79 -153q0 -88 -82 -88q-40 0 -96 23l-92 38q-4 -3 -4 -7
q0 -6 7 -52q32 -210 156 -427q25 -36 71 -111q88 -167 88 -441zM1901 204q0 117 -23 184q-15 53 -56 154q-84 152 -120 225q-61 126 -95 236q-6 18 -17 54q-3 11 -18 182q-35 27 -106 80v38q7 14 21 14t30 -2q70 -51 139 -102q102 -69 147 -69h47q-1 11 -5 33
q-11 37 -97.5 123.5t-124.5 102.5q-25 10 -51 10q-18 0 -90 -26t-88 -38l-48 -40q-22 -16 -61 -16q-12 0 -41 18q-34 20 -45 23q-58 17 -168 17t-164 -17q-10 -3 -56 -26q-33 -16 -58 -16q-12 0 -47 28q-46 35 -49 37q-23 14 -80 34q-61 22 -83 22q-28 0 -47 -6
q-65 -20 -194 -188q-37 -48 -37 -63v-12h47q4 0 36 13q14 4 42 14q43 20 106 69q78 60 102 75q2 1 7 1q29 0 36.5 -7.5t7.5 -35.5q0 -1 -1 -7q-1 -1 -58 -36q-36 -21 -48 -46q-15 -31 -15 -134q0 -166 -164 -446q-92 -157 -123 -255q-9 -22 -21 -66q-5 -30 -5 -88
q0 -158 17 -201q35 -90 73 -132q87 -97 293 -149q174 -44 220 -44h526q68 0 251 52q63 18 143 57q95 47 122 85q54 74 73 135q18 58 18 152zM1534 999q-30 65 -63 90q-37 27 -105 27q-119 0 -168 -119q11 181 168 181q156 0 168 -179zM1508 811q0 -152 -142 -152
q-143 0 -143 152q0 155 143 155q142 0 142 -155zM872 1001q-31 66 -63 89q-36 26 -105 26q-129 0 -164 -115q4 177 166 177q155 0 166 -177zM850 812q0 -153 -146 -153q-142 0 -142 152q0 155 142 155q146 0 146 -154zM1551 295q0 -141 -52 -198l-45 -36
q-131 -111 -251 -123q-77 -8 -233 -8q-124 0 -190 24t-164 103q-16 11 -46 36q-55 55 -55 171q0 125 79 208q41 43 201 142q168 103 211 103h14q8 -1 13 -1q49 0 115 -35q22 -11 67 -32q35 -22 104 -67q96 -61 126 -88q67 -56 89 -122q17 -50 17 -77zM1501 -96
q0 -24 -59 -43q-160 -53 -411 -53q-386 0 -465 86l4 29h66q-3 0 74 -18q103 -24 173 -24h300q3 0 34 6q40 3 120 14q9 2 46 13q28 9 47 9h66q5 -14 5 -19zM1343 862q0 10 -10.5 20.5t-20.5 10.5q-17 0 -27 -16v-25q7 -13 27 -13q31 0 31 23zM1473 772v28l-6 -4q-17 0 -50 5
q-7 -35 -47 -43v-65h32q22 0 46.5 28.5t24.5 50.5zM681 864q0 9 -11 19t-20 10q-27 0 -27 -31q0 -23 27 -23q31 0 31 25zM812 780q0 12 -5 17q-36 0 -52 4q-6 -37 -47 -43v-65h32q25 0 48.5 30.5t23.5 56.5zM1470 260q0 84 -52 144q-28 33 -82 65q-45 28 -90 55
q-56 41 -178 112q-34 15 -35 15q-27 0 -97 -40q-42 -32 -127 -94l-84 -52q-51 -31 -77 -61q-52 -60 -52 -156q0 -138 248 -218l43 -14h288q5 0 47 14q248 82 248 230zM1350 264q0 -79 -73 -79q-7 0 -37 22q-43 31 -75 85q-35 58 -35 107q0 16 20 32t37 16q69 0 117 -58
q46 -54 46 -125zM935 389q0 -60 -55 -128q-58 -72 -116 -72q-12 0 -25 4q-9 16 -17 33q-6 12 -6 40q0 61 42 119q45 64 103 64q-3 0 38 -2q36 -41 36 -58z" />
  </g>

</svg>
