<?xml version="1.0" standalone="no"?>
<!DOCTYPE svg PUBLIC "-//W3C//DTD SVG 1.1//EN" "http://www.w3.org/Graphics/SVG/1.1/DTD/svg11.dtd" >
<svg viewBox="0 -442 2048 2048">
  <g transform="matrix(1 0 0 -1 0 1606)">
   <path fill="currentColor"
d="M852 970q-15 -13 -26 -13q-25 0 -25 24q0 6 3 17t3 16q3 39 3 51q0 31 -9 49h23q29 -115 28 -144zM930 881v-25q-14 -13 -23 -13q-24 0 -24 28q0 29 17 97h14q16 -32 16 -87zM2018 -100q-15 5 -68 71q-13 -23 -50 -62q-36 -25 -93 -25q-70 0 -124 87q-84 -87 -149 -87
q-33 0 -67.5 27t-50.5 60q-44 -61 -130 -84q-27 -7 -20 -7q-8 0 -16 7q-25 -1 -57 28q-28 26 -41 52q-83 -83 -143 -83q-68 0 -120 87q-56 -66 -129 -84q-28 -7 -20 -7q-53 0 -114 91q-83 -87 -151 -87q-32 0 -68 28t-49 59q-58 -53 -66 -59q-39 -28 -81 -28q-49 0 -89 44
t-40 94q0 17 22 47q19 -76 26 -89q14 -27 68 -61h13v399q0 80 28.5 186.5t68.5 172.5q4 10 15 28q40 40 113.5 70t131.5 30q3 0 10 -1h9q4 0 9 6v121q0 151 -56 251q-21 38 -71 38q-71 0 -108 -89q-4 -37 -21 -111l-28 4q4 0 4 10q0 9 -3.5 26.5t-3.5 26.5q0 77 44 134
q47 62 122 62q70 0 100 -53q4 -7 39 -112l5 7q24 158 136 158q73 0 120 -57q44 -53 44 -127q0 -1 -6 -66q-1 -2 -1 -4q1 -4 6 -8h-30v9q2 84 -37 140q-13 19 -53 41q-16 9 -37 9q-48 0 -74 -48q-2 -3 -33 -88q-19 -52 -19 -50v-223q31 -6 65 -6q138 0 304 -54q9 -3 75 -45
q48 -27 136 -95q97 -100 115 -233q3 -35 10 -106q16 -129 17 -133q14 -93 32 -125q15 5 15 38q0 17 18 17q8 0 14 -6q4 -28 18 -82q12 -15 34 -41q2 -1 8 -1q24 0 54 41q28 37 31 64q6 48 6 70q0 80 -39 107l-102 50q-25 15 -48.5 49t-23.5 61q0 7 34 103q2 30 23 76h21
q5 -23 28 -58q27 -18 96 -33q62 -14 103 -50q8 7 27 21t55 24q88 24 91 25q50 22 54 71h26q4 -24 17 -72q13 -29 25 -57q10 -24 10 -67q0 -11 -20.5 -41t-31.5 -37q-40 -16 -114 -61q-51 -43 -51 -115q0 -30 9 -66q8 -30 33 -65q30 -40 55 -40q16 0 40 33q22 29 27 48
q3 15 10 44h30q6 -51 10 -66q9 -31 37 -56v-42zM427 981q0 -24 -23 -24q-24 0 -24 37q0 27 28 120q15 -1 15 -13q0 -20 2 -60t2 -60zM349 867q0 -24 -28 -24q-23 0 -23 32q0 25 20 93h14q1 -11 10 -51q7 -32 7 -50zM1929 373q0 19 -4.5 56t-4.5 56q-38 -34 -91 -47
q-67 -17 -88 -29q-13 -7 -66 -73q-37 68 -113 91q-87 27 -115 58q-14 -111 -14 -103q0 -40 37 -68q2 -2 88 -51q51 -29 75 -71q14 -26 14 -51q0 -140 -66 -209q31 4 62 46q29 38 33 72l17 -4q-2 -86 86 -112q-44 70 -49 81q-10 26 -10 91q0 92 40 132q21 22 124 72
q7 3 26 29.5t19 33.5zM1355 -47q-38 56 -53 130q-7 24 -17 71q-23 227 -33 263q-35 126 -154 207q-16 15 -51 41q-178 96 -380 96q-87 0 -171 -18q-93 -20 -130 -70q-70 -94 -97 -331q-6 -52 -6 -40v-366q40 9 60 55l32 78h15l9 -14q1 -53 25 -90q29 -45 78 -45
q103 0 131 138q6 11 15 11q13 0 18 -11q5 -49 11 -67q11 -36 38 -54q32 -21 53 -21q49 0 91 53q37 46 47 100q2 -2 16 -2q6 0 11 -12q4 -24 15 -71q6 -20 34.5 -44t48.5 -24q21 0 55.5 20.5t46.5 39.5q9 33 40 93h14l6 -10q1 -50 27 -91q30 -48 76 -48q25 0 79 33zM576 305
h-18q-6 47 -42 47q-7 0 -59 -32q-6 4 -6 12q0 20 24 33.5t45 13.5q18 0 37 -13.5t19 -30.5v-30zM553 165q0 -112 -59 -112q-63 0 -63 108q0 13 16.5 60.5t24.5 50.5q14 5 28 5q53 0 53 -112zM494 214q0 3 -9 12q-14 -7 -14 -23q0 -11 8 -16q15 20 15 27zM533 121v50l-15 3
q1 -3 1 -5q0 -25 -29 -38q5 -18 14 -54q29 39 29 44z" />
  </g>

</svg>
