<?xml version="1.0" standalone="no"?>
<!DOCTYPE svg PUBLIC "-//W3C//DTD SVG 1.1//EN" "http://www.w3.org/Graphics/SVG/1.1/DTD/svg11.dtd" >
<svg viewBox="0 -442 2048 2048">
  <g transform="matrix(1 0 0 -1 0 1606)">
   <path fill="currentColor"
d="M1936 37q0 -168 -87 -289q-66 -91 -169 -123q-56 -17 -210 -29q-91 -7 -153 -7q-204 0 -447 76q7 81 147 123q104 23 209 46q106 28 224 99q-39 2 -88 2q-52 0 -154 -17t-154 -17q-69 0 -126 22q-49 -24 -128 -77q16 -33 35 -89q-108 68 -108 93q0 20 41 47
q-62 -22 -62 -50q0 -25 17 -80q-93 88 -93 110q0 21 78 56q-44 -4 -134 -24q40 30 124 85l124 -4q-94 85 -161 255q-2 4 -97 292q-83 -18 -249 -61q-59 -18 -59 -27q0 -14 67 -114q-97 32 -130 49q-81 43 -81 98q0 93 371 187q-4 126 -101 200q-67 51 -212 95q-32 33 -32 72
q0 38 109 171q106 130 148 152q52 28 130 36q-4 20 -4 41q0 71 117 143q28 -54 41 -99l65 83q89 -105 89 -171q0 -39 -27 -79q70 -56 132 -192q266 -2 459 -136q219 -152 219 -405q0 -34 -4.5 -102.5t-4.5 -102.5q0 -98 35 -186q49 36 117 36q177 0 177 -188zM1888 37
q0 141 -129 141q-78 0 -129 -75q-70 134 -70 272q0 34 4 102.5t4 102.5q0 226 -198 365q-175 123 -411 124q-79 -127 -100 -218q-3 -20 -11 -59q-47 -221 -230 -248q40 -126 79 -253q56 -157 127 -238q93 -105 230 -105q52 0 154 17.5t154 17.5q71 0 196 -10
q-26 -52 -144 -113q-95 -49 -177 -71q-82 -18 -165 -36q-116 -27 -147 -56q201 -61 392 -61q40 0 148 8q143 11 189 24q94 27 154 108q80 108 80 261zM904 1080q-76 174 -168 221q50 58 50 91q0 43 -42 95l-40 -53l-15 -108l-50 21q5 30 5 52q0 58 -25 113q-51 -35 -51 -76
q0 -31 20 -83q-124 -7 -182 -45q-32 -21 -124 -132q-96 -115 -96 -140q0 -18 10 -31q169 -51 243 -122q92 -89 92 -250q-371 -100 -371 -151q0 -36 54 -59q-7 18 -7 35q0 39 186 87l232 54q93 27 128 76q26 37 48 142q27 131 103 263zM1514 437l-41 -78l-62 39
q-64 429 -475 508l27 55q490 -32 551 -524zM650 1186q-57 -91 -129 -91q-30 0 -81 21q26 104 107 104q40 0 103 -34zM1415 270l-42 -78l-61 39q-41 209 -150 336q-76 89 -287 234l31 59q231 -96 343 -220q124 -137 166 -370zM723 1257q-100 -26 -235 -26q-27 0 -77 -62
q-65 -80 -71 -85q-27 -23 -90 -60l-22 32q31 22 87 72q50 59 99 118q54 52 144 52q69 0 165 -41zM767 1214q-52 -228 -183 -228q-48 0 -288 31q129 53 180 53q16 0 47 -4t47 -4q86 0 197 152zM1840 40q0 -154 -99 -247q-95 -89 -251 -94q158 80 219 157q72 94 73 257
q58 -10 58 -73zM1757 115q0 -123 -36 -192q-47 -91 -230 -166q-165 -68 -284 -68q-53 0 -142 10q187 49 306 90q223 78 262 140q32 51 40 138q33 39 84 53v-5zM576 1175q0 13 -17 13q-12 0 -28 -7q26 -13 20 -44q25 23 25 38z" />
  </g>

</svg>
