<?xml version="1.0" standalone="no"?>
<!DOCTYPE svg PUBLIC "-//W3C//DTD SVG 1.1//EN" "http://www.w3.org/Graphics/SVG/1.1/DTD/svg11.dtd" >
<svg viewBox="0 -442 2048 2048">
  <g transform="matrix(1 0 0 -1 0 1606)">
   <path fill="currentColor"
d="M1834 415q0 -74 -45 -127q-48 -56 -120 -56q-112 0 -112 128q0 74 42 126q44 56 117 56q118 0 118 -127zM846 1348q0 -64 -32 -107q-35 -48 -97 -48q-48 0 -82 50q-31 44 -31 95q0 58 35 104q39 50 95 50q52 0 84 -47q28 -42 28 -97zM1047 1128q0 -48 -28 -96
q-33 -55 -77 -55q-47 0 -83 40.5t-36 88.5q0 45 37.5 86.5t81.5 41.5q43 0 74 -31.5t31 -74.5zM1523 515q0 -59 -41 -113q-44 -57 -102 -57q-47 0 -78 42q-28 38 -28 87q0 61 38 113q42 57 100 57q47 0 79 -40.5t32 -88.5zM1924 92q0 -53 -49 -100.5t-102 -47.5
q-45 0 -75.5 30.5t-30.5 75.5q0 60 45 105.5t105 45.5q47 0 77 -31t30 -78zM539 1348q0 -55 -27 -106q-32 -61 -82 -61q-148 0 -148 171q0 155 121 155q66 0 102 -48q34 -44 34 -111zM1224 356q0 -57 -36.5 -94.5t-93.5 -37.5q-85 0 -85 114q0 58 28 98q31 45 87 45
q17 0 35 -9q65 -32 65 -116zM884 790q0 -70 -59.5 -121t-131.5 -51l-75 7l-149 15q-16 2 -60 -6q-48 -9 -64 -9q-57 0 -94 38t-37 96q0 95 92 144q22 9 64 33q30 21 52 75q26 60 44 79q36 37 108 38l26 1q30 0 64 -25q14 -11 28 -53q20 -61 111 -142q81 -72 81 -119z
M1671 -168q0 -61 -36 -105q-39 -48 -98 -48q-28 0 -82 30q-72 40 -82 44q-32 13 -101.5 26t-102.5 26q-134 52 -134 184q0 76 69 109q55 23 109 46q61 27 102 63q12 11 35 34q14 13 54 13q120 0 152 -103q6 -20 6 -80q0 -50 19 -79q29 -36 59 -71q31 -39 31 -89zM320 1085
q0 -54 -28 -91q-31 -40 -84 -40q-58 0 -94 51q-32 46 -32 106q0 48 32 82t79 34q48 0 87.5 -46.5t39.5 -95.5z" />
  </g>

</svg>
