<?xml version="1.0" standalone="no"?>
<!DOCTYPE svg PUBLIC "-//W3C//DTD SVG 1.1//EN" "http://www.w3.org/Graphics/SVG/1.1/DTD/svg11.dtd" >
<svg viewBox="0 -442 2048 2048">
  <g transform="matrix(1 0 0 -1 0 1606)">
   <path fill="currentColor"
d="M1955 534q0 -121 -112 -318q-98 -173 -277 -276l-30 -24q-57 -28 -136 -77q-4 -9 -13 -26q-20 -29 -75 -79q-93 -85 -256 -85q-168 0 -239 29q-106 43 -167 135q-4 10 -14 27q-3 3 -59 31q-35 23 -106 70q-17 7 -50 25q-54 34 -123 109t-101 133q-115 206 -115 320
q0 106 65 223q30 53 133 195q-3 3 -25 11t-60.5 47t-53.5 63q-1 2 -14 50q-24 88 -24 196q0 28 7.5 42.5t16.5 31.5q45 111 147 128q42 7 32 7q5 0 15 -3t14 -4q17 -2 52 -10q65 -23 127 -100q47 -67 94 -135q9 -18 27 -52q227 125 384 125q171 0 379 -125q43 70 86 139
q50 76 111 121q18 14 107 37q26 7 27 7q76 0 138 -65.5t62 -141.5q0 -139 -11 -184q-21 -82 -101 -151q-20 -11 -60 -34q23 -23 33 -37q165 -233 165 -375zM1883 528q0 -16 -15 58q-32 160 -187 375q36 22 101 75q70 79 70 192q0 133 -17 156q-49 65 -119 65q-44 0 -80 -32
q-130 -116 -163 -220q-9 -28 -15 -64q-2 -32 -4 -63q-4 -43 -18 -57q-29 15 -32 56q-5 56 -9 64q-20 39 -174 94q-144 51 -202 51q-59 0 -196 -49q-143 -51 -177 -89q-9 -11 -11.5 -59t-26.5 -69h-10q-15 31 -22 95q-7 70 -17 98q-19 53 -96 137q-32 37 -65 73
q-38 34 -92 34t-105 -65q-17 -22 -17 -171q0 -111 77 -184q32 -23 95 -72q-161 -217 -188 -368q-13 -72 -13 -61q0 -72 111 -289q11 -15 32 -46q43 -67 118 -128q2 -2 142 -103q41 -17 110 -59q39 -34 70 -75q11 -18 30 -41q93 -71 163 -71h77q51 1 76 1q32 0 41 1
q18 2 68.5 25.5t65.5 36.5q34 30 66 70q14 19 44 53q7 6 88 50q32 18 72 48q118 89 125 96q70 60 100 119q14 27 42 80q16 26 43 80q44 109 44 152zM1806 1283h-27q-6 0 -17.5 7t-21.5 7q-84 0 -138 -97q-14 -25 -14 -64q-1 -60 -2 -66q-5 -35 -38 -35q-41 0 -41 71
q0 91 56 166q61 82 149 82q32 0 51 -12q22 -17 43 -34v-25zM1529 846h-20q-3 0 -42 35t-47.5 39.5t-36.5 4.5q-50 0 -91.5 -38t-43.5 -38q-26 0 -26 24q0 20 1 25q35 48 71 62q28 11 94 11q22 0 79 -25q13 -6 37 -28q25 -25 25 -36v-36zM1518 629q0 -55 -13 -105
q-7 -25 -45 -53t-65 -28q-64 0 -103 69q-32 58 -32 128q0 74 32 121q37 54 107 54q119 0 119 -186zM531 1106q0 -71 -42 -71q-32 0 -37 21q0 27 -3 80q-1 26 -18 71q-41 52 -56 64q-31 26 -77 26q-10 0 -25 -7.5t-42 -6.5v25q52 46 93 46q88 0 150 -82q57 -75 57 -166z
M800 884q0 -31 -25 -31q-9 0 -12 1q-51 75 -119 75q-42 0 -70 -24q-28 -28 -56 -55h-25v31q0 23 57 65q34 25 122 25q70 0 122 -61q6 -7 6 -26zM777 640q0 -62 -35 -139q-7 -15 -38 -36.5t-48 -21.5q-90 0 -124 81q-13 31 -13 105q0 103 51 165q17 21 80 21q60 0 96 -60
q31 -50 31 -115zM1408 242q0 -47 -17 -90q-9 -23 -45.5 -59t-60.5 -48q-20 -5 -59 -19q1 8 1 -32q0 -36 -39 -85q-34 -43 -70 -65q-25 -15 -140 -15q-50 0 -102 48q-50 45 -63 96q-1 18 -3 53q-20 5 -58 19q-26 14 -60 47q-38 37 -46 60q-21 62 -21 90q0 31 36 79h32v-9
q0 -12 -2 -33.5t-2 -31.5q0 -46 38 -90q34 -41 80 -59q21 -8 77 -8q45 0 87 43q-110 23 -147 53q-52 42 -52 141q0 12 22 50q10 18 56 49q54 37 131 37q283 0 283 -164q0 -32 -17 -75q-7 -19 -60 -50q-49 -30 -73 -34q-11 0 -34 -2l-14 -5q34 -43 93 -43q109 0 168 90
q17 26 17 141h33q31 -58 31 -79zM1214 -152q-72 -86 -142 -86h-107q-66 0 -118 55q-22 24 -24 44h20q5 0 26 -14q25 -17 29 -19q27 -13 157 -13q58 0 92 17q4 2 25 17q18 13 22 13h20v-14zM1491 620q0 9 -5 13q-21 0 -43 3q0 -38 -17.5 -53t-17.5 -19q0 -13 7 -35
q8 -28 9 -36q31 4 51 51q16 39 16 76zM1355 686q0 29 -37 46q-22 -18 -20 -65v-11q35 -16 26 -16q31 0 31 46zM1134 376q-18 34 -63 42q-14 2 -79 2q-46 0 -66 -13q-23 -15 -23 -32q0 -8 4 -12q11 -7 35 -18q18 -6 51 -6q84 0 102 6q5 5 15 13q9 4 24 18zM1172 234
q0 5 -2.5 13.5t-2.5 13.5q-20 -38 -57 -38q-15 0 -55 5q16 -32 36 -32q18 0 47 11q34 12 34 27zM625 699q0 7 -11.5 18t-18.5 11q-8 0 -19 -12t-11 -20q0 8 12 -40h28q2 1 11 20.5t9 22.5zM743 623q0 10 -4 9q-32 8 -56 12q0 -29 -17.5 -50t-17.5 -24q0 -6 12 -32
q15 -30 16 -34q22 7 45 52q22 41 22 67zM982 226q-8 0 -25 -1.5t-26 -1.5q-44 0 -61 38q-2 -11 -5 -34q29 -31 88 -31q13 0 29 30zM1100 28q-20 2 -86 47q-14 -18 -77 -47v-13q17 -27 33 -53q22 -32 49 -32q43 0 81 98z" />
  </g>

</svg>
