<?xml version="1.0" standalone="no"?>
<!DOCTYPE svg PUBLIC "-//W3C//DTD SVG 1.1//EN" "http://www.w3.org/Graphics/SVG/1.1/DTD/svg11.dtd" >
<svg viewBox="0 -442 2048 2048">
  <g transform="matrix(1 0 0 -1 0 1606)">
   <path fill="currentColor"
d="M1964 217q-69 -10 -206 -32v-18q0 -5 3 -15t3 -15q0 -7 -1 -21t-1 -21q0 -15 6 -20q55 -2 75 -5q42 -6 72 -22q-98 5 -150 11l-22 -90q11 -10 46 -19.5t49 -23.5q1 -4 -9 -5q20 0 -87 27q-4 -18 -16 -53q-25 -57 -62 -91q-79 -71 -179 -103q-54 -17 -202 -41
q-37 -6 -35 -6h-454q-6 0 -18 3t-17 3q-141 13 -233 52q-18 11 -54 32q-128 62 -159 175q-4 16 -13 29q-28 -8 -83 -27l-9 5q8 11 44 23q41 14 51 20q-15 51 -15 83l-7 7q-57 -6 -150 -11q24 20 146 26l5 6q2 35 6 106q-65 7 -194 22q-8 5 -12 14h108q17 0 51 -3.5t51 -3.5
q18 97 118 174q4 3 73 33q41 18 57 18q12 0 42 -4q-2 11 -14.5 42t-12.5 35q0 15 9.5 45t9.5 45q-44 45 -98 106q-65 99 -142 286q-1 3 -33 123q-18 68 -36 135q-13 58 -13 141q0 92 75 126q37 17 69 17q6 0 18 -3.5t17 -3.5q66 -5 123 -33q65 -32 208 -190q84 -92 134 -226
q46 -121 49 -230q1 -39 3 -118q3 -3 57 -3h96q-4 20 -4 48q0 81 18 169q25 127 60 207q43 100 214 270q45 45 121.5 79t138.5 34q4 0 43 -11q72 -20 91 -75q11 -30 11 -122q0 -21 -3 -35q-62 -320 -214 -574q-6 -10 -57 -64q-48 -49 -48 -55q0 -14 9.5 -44t9.5 -44
q0 -4 -14 -35q-15 -34 -17 -39q-3 1 54 1l36 -10q129 -35 203 -219q108 12 110 12zM1720 1392q0 76 -74 76q-88 0 -170 -68q-135 -112 -206 -229q-74 -122 -103 -289q-8 -44 -14 -198q-29 -22 -27 -22h-206q-9 0 -28 22l-12 172q-10 99 -36 168q-40 104 -77 160
q-191 284 -373 284q-10 0 -17 -2q-38 -11 -44.5 -21.5t-6.5 -53.5q0 -50 29 -200q7 -52 33 -150q48 -118 130 -256q6 -10 62 -83q51 -67 51 -73q0 -18 -7.5 -56.5t-7.5 -57.5q0 -44 38 -115q-9 -5 -29 -8q-104 -14 -157 -53q-77 -58 -100 -131q110 -13 221 -26
q175 -23 199 -45v-11q-12 -11 -21 -10l-404 60v-94q320 11 344 11q55 0 77 -7v-18l-10 -6h-410v-39l12 -41l190 36q113 21 193 21q22 0 37 -10v-13l-413 -58q28 -88 104 -134q17 -14 54 -36q111 -47 230 -47h504q43 0 121 16.5t117 34.5q118 54 149 167q-6 1 -412 56v15
q8 10 21 10q128 0 398 -58q14 50 13 80h-410q-9 5 -14 17l10 14h186l229 -11v94l-404 -60q-10 -1 -21 9v11q23 22 416 72v13q-49 97 -119 134q-29 16 -83 26q-63 12 -84 20q8 10 25 55.5t17 56.5q0 18 -8 54.5t-8 54.5q0 17 48 78q59 76 62 81q75 126 133 264q17 41 40 169
t23 178zM1628 1363q-52 -47 -171 -219q-12 -18 -56 -128t-44 -126v-250h-30q-31 92 -31 244q0 183 97 301q30 37 102 107q86 84 105 84h20zM1338 517q0 -5 -9 -23h-17q-33 46 -54 46q-31 0 -67 -42q-10 9 -10 15q0 13 17 32t30 24q7 3 51 3q15 0 37 -19.5t22 -35.5z
M1323 349q0 -45 -15 -83q-20 -51 -58 -51q-33 0 -56 31q-21 28 -21 62q0 167 85 167q65 0 65 -126zM750 880q0 -24 -10 -115t-15 -109q-6 -21 -23 -21q-10 0 -17 9v256q0 18 -41.5 120t-55.5 124q-62 95 -77 114q-39 53 -94 105q4 13 19 13q30 0 130 -101q93 -92 117 -133
q67 -115 67 -262zM864 514v-4l-9 -8q-47 38 -59 38q-28 0 -47 -23t-24 -23q-21 0 -21 21q0 13 19 32.5t33 21.5t47 2q17 0 39 -20.5t22 -36.5zM872 335q0 -120 -78 -120q-71 0 -71 132q0 128 65 128q84 0 84 -140zM1193 43q0 -9 -23 -43t-32 -40q-69 -43 -115 -43
q-55 0 -122 47q-9 7 -28.5 38.5t-19.5 42.5q0 21 23 21q12 0 39 -43q18 -29 36 -37q22 -10 45 -19q-1 -1 -1 65q0 44 12 72h33q0 -3 3.5 -9t3.5 -11v-118q42 14 55 24q8 6 34 44q22 32 32 32q25 0 25 -23zM1357 -62q0 -1 -14 -20q-46 -63 -86 -80q-92 -39 -212 -39
q-230 0 -313 78q-47 44 -47 65q0 4 2 12t2 12h18q32 -38 45 -51q28 -29 54 -39q19 -5 57 -14q83 -21 153 -21q249 0 323 125h18v-28zM1239 387q0 8 -9 26h-13q-17 -25 -17 -36q0 -4 2.5 -10.5t2.5 -9.5h21q13 25 13 30zM1300 297v47q-13 0 -18 5q-4 -20 -7 -41
q-5 -26 -24 -25q4 -13 16 -34q8 6 33 48zM784 387q0 10 -8 26h-14q-16 -24 -16 -36q0 -4 2 -10.5t2 -9.5h18q16 16 16 30zM845 297v47q-12 0 -17 5q-4 -20 -8 -41q-5 -26 -24 -25q3 -11 12 -33q9 4 23 21.5t14 25.5z" />
  </g>

</svg>
