<?xml version="1.0" standalone="no"?>
<!DOCTYPE svg PUBLIC "-//W3C//DTD SVG 1.1//EN" "http://www.w3.org/Graphics/SVG/1.1/DTD/svg11.dtd" >
<svg viewBox="0 -442 2048 2048">
  <g transform="matrix(1 0 0 -1 0 1606)">
   <path fill="currentColor"
d="M1208 652q0 -118 -49 -237h-149q-103 -118 -223 -173q-38 -3 -56 -3q-51 0 -116 18l-36 -18h-43q-147 0 -147 99q0 12 2 24q-108 9 -108 105q0 12 2 26q-81 22 -81 99q0 31 22 66q-54 58 -54 129q0 182 350 182q-13 101 -55 174q-68 120 -68 181q0 88 52 134
q41 37 134 59l50 -222l185 -197q62 -86 158 -196q21 -14 176 -14q54 -115 54 -236zM1157 641q0 98 -34 193q-126 0 -157 14.5t-89 93.5q-76 101 -85 111l-201 214l-40 185q-100 -34 -100 -128q0 -46 55 -142q66 -118 71 -262q-355 0 -355 -127q0 -60 41.5 -98.5t101.5 -39.5
l61 -1l181 82q-41 62 -110 62q-36 0 -112 -32l-47 -2l-47 50l81 1q68 29 117 29q128 0 187 -130l-34 -16q63 -31 97 -108l-39 -17q46 -29 85 -99l-62 -29q51 -37 82 -105l-123 -55q30 -6 51 -6l39 1q133 77 216 187h138q31 91 31 174zM670 612q-35 47 -84 60l-149 -67h-53
q-75 0 -114 21q-13 -18 -13 -34q0 -62 122 -62h106zM712 495q-31 37 -65 54l-153 -68l-162 1q-1 -6 -3 -13q0 -59 117 -59h75zM733 360q-18 22 -59 63l-143 -64h-92v-6q0 -67 97 -67h33z" />
  </g>

</svg>
