<?xml version="1.0" standalone="no"?>
<!DOCTYPE svg PUBLIC "-//W3C//DTD SVG 1.1//EN" "http://www.w3.org/Graphics/SVG/1.1/DTD/svg11.dtd" >
<svg viewBox="0 -442 2048 2048">
  <g transform="matrix(1 0 0 -1 0 1606)">
   <path fill="currentColor"
d="M1418 1186l-49 -10q-12 58 -45 170q-3 9 -74 133h61q42 -77 107 -293zM1293 1068q-13 -6 -42 -20q-20 34 -59 101q-61 103 -193 267l30 29q88 -64 112 -86q55 -49 88 -112q21 -60 64 -179zM1716 915q0 -9 -13 -50.5t-14 -59.5q-1 -13 -1 -42q0 -30 3 -90t3 -90v-126
q0 -190 -61 -352t-274 -342q-26 -14 -76 -43q-87 -54 -204 -80q-73 -16 -150 -16q-108 0 -195 44q-7 3 -44 40t-106 114q-49 63 -143 231q-160 286 -333 636q-6 12 -16 87t-10 95q0 18 15.5 55t29.5 49q12 4 33 13l-28 137q9 40 36 104q19 12 57 37v9q0 13 -2.5 38.5
t-2.5 37.5q0 68 69 112q45 29 76 29q38 0 129 -40q16 18 52 45q20 9 62 9l25 -1q53 -1 134 -71q8 -7 37 -52q129 -215 405 -632q10 -13 130 -125q14 20 14 33q0 12 -6.5 35.5t-6.5 35.5q0 6 2.5 17t2.5 15v5q-1 106 59 209q18 31 59.5 56.5t81.5 25.5q67 0 94 -7
q5 -1 27 -28q50 -61 50 -107zM357 13q-39 -20 -42 -20q-1 0 -30 32q-58 64 -75 85q-40 52 -58 97q-7 37 -23 108q16 4 49 10q19 -50 64 -148q3 -6 115 -164zM310 -114q-5 -10 -20 -24q-46 13 -132 51q-12 7 -33 30q-24 25 -24 34q0 -1 10 63q88 -96 199 -154zM824 705
q-112 217 -291 499q-33 58 -116 166q-22 22 -25 22q-75 0 -75 -77q0 -33 4 -41q17 -16 48 -50q25 -33 110 -158q50 -73 144 -221q24 -41 75 -134q10 -21 33 -60q3 -4 10 -4zM1641 946v14q-65 16 -80 16q-20 0 -82 -54q-16 -27 -41 -82q-16 -55 -16 -152q0 -13 6 -37.5
t6 -36.5v-102q-28 -22 -62 -22l-4 1q-204 154 -290 281q-69 101 -176 279q-124 206 -173 281q-6 10 -62 71q-57 5 -45 5q-33 0 -70 -42q47 -72 136 -220q57 -113 179 -335q44 -73 52 -73q10 0 30.5 3t30.5 3q6 0 19 -10t13 -16q0 -13 -6 -23q-45 -11 -131 -43
q-101 -52 -203 -157q-53 -55 -104 -136q-14 -36 -44 -106q-13 6 -38 21q-1 7 -1 15q0 43 17 90q25 69 25 57q0 13 -139 226.5t-169 242.5q-5 5 -18 5q-34 0 -34 -73q0 -48 7 -67q21 -60 96 -214q96 -198 212 -396q41 -72 81 -143q49 -84 93 -136q98 -117 213 -152
q26 -8 30 -8q86 0 205 32q6 2 54 26q31 11 85 40q155 114 207 203q35 40 86 119q83 198 83 428q0 15 -3 44.5t-3 44.5v110q0 25 14 88.5t14 89.5zM664 588q0 3 -92 155q-102 169 -106 176q-29 49 -86 147q-10 21 -33 60q-36 47 -55 47q-8 0 -56 -11q-26 -66 -26 -72
q0 -29 63 -114q43 -56 87 -112q76 -116 231 -345q73 64 73 69zM1178 42q0 -7 -33 -49l-60 52q-35 31 -47 62q-18 46 -18 156q0 60 13 102q16 47 33 94q24 -11 74 -32q-9 -34 -25 -101q-4 -17 -4 -131q0 -43 8 -65q4 -11 31.5 -48.5t27.5 -39.5z" />
  </g>

</svg>
