<?xml version="1.0" standalone="no"?>
<!DOCTYPE svg PUBLIC "-//W3C//DTD SVG 1.1//EN" "http://www.w3.org/Graphics/SVG/1.1/DTD/svg11.dtd" >
<svg viewBox="0 -442 2048 2048">
  <g transform="matrix(1 0 0 -1 0 1606)">
   <path fill="currentColor"
d="M1208 693q0 -182 -350 -182q13 -101 55 -174q68 -120 68 -181q0 -88 -52 -134q-41 -37 -134 -59l-50 222l-185 197q-62 86 -158 196q-21 14 -176 14q-54 115 -54 236q0 118 49 237h149q103 118 223 173q38 3 56 3q51 0 116 -18l36 18h43q147 0 147 -99q0 -12 -2 -24
q108 -9 108 -105q0 -12 -2 -26q81 -22 81 -99q0 -31 -22 -66q54 -58 54 -129zM941 1121v6q0 67 -97 67h-33l-164 -74q18 -22 59 -63l143 64h92zM1051 1011q0 59 -117 59h-75l-191 -85q31 -37 65 -54l153 68l162 -1q2 6 3 13zM1123 888q0 62 -122 62h-106l-185 -82
q35 -47 84 -60l149 67h53q75 0 114 -21q13 18 13 34zM1158 687q0 60 -41.5 98.5t-101.5 39.5l-61 1l-181 -82q41 -62 110 -62q36 0 112 32l47 2l47 -50l-81 -1q-68 -29 -117 -29q-128 0 -187 130l34 16q-63 31 -97 108l39 17q-46 29 -85 99l62 29q-51 37 -82 105l123 55
q-30 6 -51 6l-39 -1q-133 -77 -216 -187h-138q-31 -91 -31 -174q0 -98 34 -193q126 0 157 -14.5t89 -93.5q76 -101 85 -111l201 -214l40 -185q100 34 100 128q0 46 -56 145q-65 116 -70 259q355 0 355 127z" />
  </g>

</svg>
