<?xml version="1.0" standalone="no"?>
<!DOCTYPE svg PUBLIC "-//W3C//DTD SVG 1.1//EN" "http://www.w3.org/Graphics/SVG/1.1/DTD/svg11.dtd" >
<svg viewBox="0 -442 2048 2048">
  <g transform="matrix(1 0 0 -1 0 1606)">
   <path fill="currentColor"
d="M1322 1442q-2 -3 -11 -20q-24 -41 -63 -126q-44 -136 -44 -235v-320q0 -78 36 -202q4 -11 7 -22q0 -5 -2 -13t-2 -12q-17 -9 -33 -9q-20 0 -36 10q-32 20 -56 146q-20 103 -20 167q0 10 5 150q0 32 4 93q0 2 9 35q18 74 65 221q12 29 64 107q22 33 63 59h14v-29zM1562 -5
q0 -59 -24 -106q-7 -13 -59 -89q-9 -2 -42 -28q-26 -21 -81 -21q-26 0 -26 33q0 32 41 47q13 14 36 38q84 76 84 162q0 5 -3 15t-3 14q-3 37 -31 87q-34 61 -41 83q25 13 31 13q17 0 52 -44q66 -84 66 -204zM546 812v-14q0 -55 -22 -162q-26 -127 -55 -143q-18 -10 -35 -10
q-37 0 -37 34q0 -16 18 71q25 121 25 158v310q0 12 -27 146q-4 24 -14 71q-11 42 -77 170v29h13q12 0 50 -44q161 -187 161 -616zM1314 -105q0 -50 -55 -50q-8 0 -24.5 6t-22.5 6q3 0 -41 -18q-29 -12 -127 -69q-78 -47 -129 -57q-25 -5 -83 -5h-10q-99 0 -182.5 43
t-166.5 88q-39 18 -41 18l-15.5 -6t-31.5 -6q-55 0 -55 50q0 30 33 50q30 19 61 19q91 0 134 -50q52 -61 118 -111q21 -8 62 -26q33 -15 61 -15q97 0 163 39q50 30 124 113q15 17 60 33.5t70 16.5q32 0 63 -18q35 -21 35 -51zM310 -216v-20q-13 -13 -22 -13q-40 0 -71 13
q-13 5 -62 64q-47 56 -56 74q-17 36 -17 89q0 52 12 117q4 24 45 79.5t61 55.5q6 0 31 -13q-24 -48 -48 -97q-30 -60 -30 -100q0 -85 84 -166q7 -10 25 -29q14 -5 38 -18q10 -8 10 -36z" />
  </g>

</svg>
