<?xml version="1.0" standalone="no"?>
<!DOCTYPE svg PUBLIC "-//W3C//DTD SVG 1.1//EN" "http://www.w3.org/Graphics/SVG/1.1/DTD/svg11.dtd" >
<svg viewBox="0 -442 2052 2048">
  <g transform="matrix(1 0 0 -1 0 1606)">
   <path fill="currentColor"
d="M1752 1238q0 -38 -27 -38q-10 0 -34.5 19t-31 30.5t-23.5 37.5q-16 21 -50 49q-112 92 -112 116q0 23 24 23q29 0 141.5 -106.5t112.5 -130.5zM1356 1218q0 -3 -1 -10v-11q0 -17 -17 -17q-15 0 -33 22.5t-28 22.5q-6 0 -28 -22h-22v37q26 27 30 29q8 5 38 5q11 0 36 -23
t25 -33zM1198 1140q0 -30 -16 -30q-12 0 -30.5 19t-28.5 19q-9 0 -43.5 -25.5t-47.5 -25.5q-19 0 -19 18q0 16 36 46.5t54 36.5q6 2 32 2q21 0 62 -42q1 -10 1 -18zM1032 1025q0 -24 -26 -24q-5 0 -34 13t-34 13q-13 0 -35 -25.5t-39 -25.5q-3 0 -8.5 1.5t-9 2.5t-3.5 8
q0 13 27.5 46t41.5 36q11 2 29 2t29.5 -2t36.5 -18.5t25 -26.5zM2052 707q-45 12 -133 42q-63 26 -83 44q-1 -1 -1 -5q0 -8 9.5 -27t9.5 -27q0 -34 -27 -34q-30 0 -55 56q-4 9 -28 96q-21 75 -120 216q-88 125 -156 193q-4 4 -28 14.5t-29 10.5h-93l-456 74v-2
q42 -26 128 -75q22 -7 64 -30q0 -33 -20 -40q-7 -2 -49 -2q-12 0 -72 38q-69 45 -79 49q-227 106 -260 106q-20 0 -20 -25q0 -35 1 -30q46 -21 137 -68q37 -28 115 -78q18 -7 54 -22q94 -38 94 -53q0 -28 -33 -28q-40 0 -155 53q-40 28 -122 81q-53 26 -156 84
q-17 -7 -17 -18q0 -2 18 -34q3 -8 11 -22q2 -3 73 -68q42 -39 108 -74l116 -60v-24q-15 -7 -40 -7q-44 0 -144 52q-9 5 -58 46q-43 36 -54 36q-24 0 -24 -32q0 -30 89 -108q80 -70 122 -90q29 -10 80 -40q14 -23 39 -60q54 -74 239 -245q75 -70 237 -128q136 -49 177 -49
q13 0 38.5 3.5t38.5 3.5q9 0 100 -9q59 -5 173 -21q38 -8 114 -54v-44l-14 -12q-6 -1 -26 -1q-13 0 -94 31q-18 7 -62 7q-5 -14 -17 -41q-15 -15 -43 -48q-35 -50 -53 -70q-29 -34 -66 -57q-94 -59 -314 -169q-51 -24 -151 -77q-7 -6 -22 -17q-61 -35 -119 -54
q-101 -33 -150 -33q-47 0 -87 35q-132 -95 -303 -159q-4 -2 -13 -2q-49 0 -65 8q-23 10 -45 51q-1 3 -1 26q-157 9 -157 119q0 35 25.5 86.5t25.5 49.5q0 4 -5.5 17t-7 18.5t-1.5 49.5q0 46 134 206q112 134 280 213l-120 12q-45 5 -90 41q-49 40 -49 83q0 62 68 117
q14 12 43 19q24 6 47 12q102 35 121 42q68 26 115 56q0 3 -6 6q-75 39 -152 102q-97 77 -117 134q-1 4 -1 50q0 13 17.5 31.5t18.5 24.5q-30 38 -47 92q-2 8 -2 47q0 6 46 59q4 2 12 2q9 0 30 -7q1 33 23.5 60t54.5 27q22 0 82 -25.5t63 -25.5q5 0 14.5 4.5t14.5 4.5
q14 0 42.5 -2.5t42.5 -2.5q74 0 189 -20q153 -26 188 -30q10 -1 37 -8q24 -7 37 -7h118q4 0 24 -9t25 -10q19 1 57 -5q8 -3 23 -22v-7q0 -4 -5 -22q27 -23 75 -76q62 -105 194 -311q18 -26 245 -112v-66zM459 947q0 -10 -13.5 -19.5t-23.5 -9.5q-46 0 -154 54
q-116 58 -116 96q0 26 24 26q2 0 67 -35q69 -37 78 -41q35 -10 102 -34q36 -16 36 -37zM1522 -40q0 -17 -77 -75q-65 -50 -97 -67q-26 -14 -112 -52q-94 -42 -106 -42q-7 0 -27 7v28q6 7 19 18q69 30 196 92q10 5 88 67q65 51 88 51q28 0 28 -27zM418 828q0 -41 -116 -41
q-6 0 -19 -1t-19 -1q-35 0 -93 26q-44 22 -89 44v30q7 7 22 7q18 0 57 -14t57 -14h173l17 -16q10 -10 10 -20zM1649 306l-135 14q-11 1 -33 -4.5t-31 -5.5q-52 0 -237 71q-92 35 -147 74q-210 148 -317 354q-80 -89 -209 -143q-42 -14 -84 -29q-61 -24 -61 -50
q0 -14 28.5 -31t172.5 -17q25 0 72 8.5t72 8.5q12 0 39 24t31 24q14 0 14 -15q0 -14 -1 -23q-25 -27 -78 -76q-15 -9 -45 -28q-18 -18 -58 -52q-57 -33 -166 -105q-103 -77 -202 -228q-29 -43 -28 -47v-8q145 122 420 277q42 13 110 51q-42 23 -42 45q0 17 21 17
q13 0 37 -13q32 -17 36 -18q90 -34 179 -67q104 -37 183 -54q44 -7 88 -13q69 -13 69 -33q0 -34 -16 -41q-9 -4 -30 -4q-10 0 -29.5 5t-29.5 5q-3 0 -36 -33q-37 -36 -42 -40q-44 -22 -131 -69q-47 -27 -144 -94q-30 -19 -60 -37q-36 -24 -46 -51q-14 -36 -13 -57
q3 0 11.5 -3t12.5 -3q-12 0 54 18q92 25 213 88l204 110q96 47 259 143q73 54 125 155zM1189 191q-175 42 -260 78q-40 23 -123 57q-24 -30 -47 -43.5t-258 -167.5q-131 -86 -182 -129q-115 -99 -115 -175q0 -13 3 -26q17 -10 46 -14q47 -5 48 -5q52 89 263 226
q77 39 224 127q38 26 144 132q3 1 16 1q2 0 4 -2v-27q-19 -25 -57 -74q-52 -69 -224 -176q-25 -17 -74 -50q-8 -3 -25 -11q-48 -27 -125 -98q-90 -82 -90 -118q0 -11 14 -26q70 25 167 79q156 86 163 89q8 12 16 35q24 63 167 147q39 26 118 71q51 21 103 42q74 33 84 58z
" />
  </g>

</svg>
