<?xml version="1.0" standalone="no"?>
<!DOCTYPE svg PUBLIC "-//W3C//DTD SVG 1.1//EN" "http://www.w3.org/Graphics/SVG/1.1/DTD/svg11.dtd" >
<svg viewBox="0 -442 2048 2048">
  <g transform="matrix(1 0 0 -1 0 1606)">
   <path fill="currentColor"
d="M1997 290q0 -26 -17 -50q-19 -27 -44 -27q-29 0 -78 11q-56 13 -77 15q-31 3 -100 3h-39q-42 0 -126 -36q-62 -27 -125 -55q-51 -19 -119 -30q-6 -1 -23 -6t-26 -5q-178 0 -285 57q-37 19 -48 56q-13 46 -22 55q-29 14 -79 48q-31 30 -49 80q-2 13 -11 37q-1 2 -53 64
q-20 24 -20 89q0 27 -28 27q-10 0 -28.5 -5t-28.5 -5q-150 0 -235 20q-17 8 -53 20q-22 3 -65 11q-49 13 -89 45q-47 39 -47 84q0 71 14.5 92t80.5 41q19 6 215 11q414 11 463 37q13 7 16 38q3 40 5 45q22 56 122 85q31 9 28 9h276q12 0 36 4.5t36 4.5q31 0 51 -14
q58 -40 143 -133q94 -103 140 -139q106 0 160 6q8 1 28 5.5t31 4.5q36 0 36 -50q0 -59 -33 -59h-410q-3 0 -35 19q1 16 43 32q30 10 59 19q-37 48 -102 110q-54 51 -109 103h-353q-18 0 -48 -13q-33 -13 -40 -27q-1 -2 -10 -36q15 -2 44 -2q37 0 111 6.5t111 6.5
q14 0 26.5 -16t12.5 -30q0 -35 -30 -47q-43 -17 -250 -17q-61 0 -167 -16q-119 -17 -167 -20h-95h-246q-1 0 -25.5 -5.5t-48.5 -10.5q-34 -9 -34 -26q0 -37 56 -57l86 -21q16 -5 49 -13q95 -18 297 -18q76 0 110 8q77 18 61 18q10 0 34 -26q-17 -37 -62 -53q-41 -12 -81 -25
q8 -31 32 -83q17 -24 29 -24h86q10 0 29.5 6t29.5 6q42 0 42 -55q0 -32 -60 -43q-43 -5 -86 -9q35 -52 67 -52q27 0 79.5 10t79.5 10q38 0 38 -42q0 -13 -10 -38q-24 -12 -69 -20q-53 -8 -70 -14q6 -63 187 -63q103 0 179 22q62 17 165 68.5t272 51.5q56 0 252 -38
q8 -14 8 -27z" />
  </g>

</svg>
