<?xml version="1.0" standalone="no"?>
<!DOCTYPE svg PUBLIC "-//W3C//DTD SVG 1.1//EN" "http://www.w3.org/Graphics/SVG/1.1/DTD/svg11.dtd" >
<svg viewBox="0 -442 2048 2048">
  <g transform="matrix(1 0 0 -1 0 1606)">
   <path fill="currentColor"
d="M1475 74q0 -1 -2 -6q-36 -34 -105 -104q-58 -68 -117 -135q-75 -86 -129 -116q-46 -26 -144 -26q-55 0 -106.5 17t-102.5 35q-3 -2 -8 -7q-65 -70 -243 -70q-75 0 -134 64q-53 56 -72 135q0 1 -15 107q-9 63 -28 135q-15 55 -29 192q-7 61 -19 183q-4 43 -21 110
q-21 83 -26 109q-19 150 -68 447q-2 8 -13 42q-11 31 -11 38q0 49 67 65q4 1 41 1q5 0 15.5 1.5t15.5 1.5q29 0 80 -39q44 -34 58 -93q8 -56 17 -110.5t48 -178.5h2q18 132 68 395q8 24 23 72q1 4 10 77q7 53 22.5 70.5t50.5 17.5q36 0 79.5 -36.5t43.5 -71.5v-92
q0 -19 8 -55t8 -55q0 -18 -6.5 -54.5t-6.5 -54.5q0 -205 -19 -289q5 1 9 12q40 104 132 279q22 36 60 111q3 15 11 44q11 38 41 94q36 65 60 77q20 9 49 9q44 0 84 -52q38 -48 38 -94q0 -2 -8 -47q-31 -177 -127 -374l2 -2q20 8 59 21q77 23 125 23q45 0 80 -62
q12 -22 43 -102q16 -33 42 -101q2 -34 18 -91q9 -8 23 -32q7 -18 7 -85q0 -25 -5 -75t-5 -75q0 -59 4 -92q2 -16 15 -54q11 -34 11 -54zM1129 1275q0 31 -61 78h-11q-35 -74 -106 -221q-98 -204 -138 -311q-13 -36 -31 -60q-10 -11 -27 -35h153q19 27 31 50q42 82 116 248
q1 3 59 198q15 51 15 53zM663 1183q0 158 -20 197q-8 16 -32 39q-8 -9 -22 -29q-57 -114 -94 -604q-1 -12 -6 -46q-5 -29 -5 -47l132 26q3 35 13 104q1 7 13 47q9 28 9 47v53q-1 34 -1 52q0 35 1 53q1 15 7 54q5 34 5 54zM1213 481q-15 9 -40 32q-4 5 -9 28q-3 16 -22 26
l-54 -103q36 -136 64 -136q1 0 30 13q1 3 9 71q6 40 22 69zM1396 447q0 5 -1 38q-20 -27 -50 -34q-30 -2 -61 -5q-27 -21 -27 -96q0 -59 23 -106q0 -1 21 -33q14 -23 14 -35q0 -4 -1 -16q-11 -11 -22 -11q-25 0 -96 98q-7 -9 -35 -9q-11 0 -43 -23q-20 34 -52 106
q-41 125 -41 185q0 5 42.5 66.5t42.5 76.5q0 14 -8 39.5t-8 39.5q0 5 2 9h21q19 -17 47 -66q2 -4 79 -115q20 -11 54 -11q33 0 33 29q0 42 -36 125q-33 77 -63 117q-144 -28 -151 -30q-99 -32 -99 -93q0 -5 1.5 -14.5t1.5 -14.5q0 -37 -38 -37q-9 0 -34.5 10t-32.5 9
l-170 -15q-79 -7 -85 -7h-216q-11 12 -27 39q-14 42 -22 117q-10 93 -15 119q-48 243 -94 286q-25 23 -90 23h-9q26 -93 56 -250q37 -191 51 -251q13 -37 33 -113q22 -121 27 -245q10 -49 27 -148q7 -91 33 -271q12 -53 47 -103q43 -61 89 -61q82 0 205 44q34 12 43 12
q22 0 54 -10q43 -12 53 -14q21 -1 63 -5q51 -9 36 -9q80 0 122 23q62 34 133 115q99 114 119 132q44 40 44 54q0 10 -4.5 29t-4.5 29v164q0 20 9.5 58.5t9.5 58.5zM861 464q0 -16 -35 -42q-107 -81 -197 -81q-95 0 -154 61v24h57q14 0 42 -11t44 -11q59 0 137 54
q17 15 33 29q21 17 40 17q33 0 33 -40zM959 222q-2 -3 -32 -14q-25 -32 -68 -99q-26 -51 -26 -81v-85q0 -17 -27 -17q-45 0 -45 88q0 52 45.5 136.5t90.5 104.5q9 4 28 4t34 -16v-21z" />
  </g>

</svg>
