<?xml version="1.0" standalone="no"?>
<!DOCTYPE svg PUBLIC "-//W3C//DTD SVG 1.1//EN" "http://www.w3.org/Graphics/SVG/1.1/DTD/svg11.dtd" >
<svg viewBox="0 -442 2048 2048">
  <g transform="matrix(1 0 0 -1 0 1606)">
   <path fill="currentColor"
d="M1784 336q0 -55 -34 -95q-38 -35 -75 -70q-90 -88 -232 -181q-28 -18 -97 -43q-73 -26 -102 -26q-43 0 -101 29q-45 22 -85 101q-82 -11 -81 -11q-79 0 -126 25q-4 2 -22 18q-13 12 -23 12q-6 0 -49.5 -19t-71.5 -19h-23q-67 0 -99 8q-5 1 -26.5 10t-26.5 9q1 0 -21 -16
q-33 -24 -85 -24q-135 0 -178 17q-14 5 -43.5 33t-37.5 42q-12 21 -20 89q-7 63 -34 425q-9 123 -9 156q0 108 49 146q44 35 92 48q7 2 37 2q23 0 74 17q64 142 280 142q17 0 50.5 -5.5t50.5 -5.5q21 0 36 27q21 37 37 50q36 27 106 27q9 0 22 -3q22 -5 137 -44
q104 -36 121 -36q19 0 72.5 29t92.5 29q87 0 134 -53q38 -42 61 -135q7 -29 8 -76v-39q0 -25 7 -73t7 -71q0 -5 -3.5 -15t-3.5 -15v-190q65 -30 142 -96q93 -79 93 -130zM1668 339q0 8 -1 16q-24 33 -130 120q-11 -39 -31 -117q-2 -38 -16 -112q-3 -10 -41 -60
q-41 -54 -70.5 -67.5t-99.5 -13.5q-25 0 -88 30q-32 -37 -32 -40q0 -10 24 -39.5t34.5 -34.5t31.5 -5q16 0 64 18q45 17 62 28q23 15 158 128t135 149zM1451 791q0 258 -56 335q-18 25 -58 25q-12 0 -66.5 -29.5t-78.5 -29.5h-27q-39 0 -141 41t-125 41h-35
q-9 -43 -54 -75.5t-89 -32.5q-19 0 -56 5t-56 5q-80 0 -115 -24q-19 -14 -35 -50q-14 -32 -36 -41q-16 -2 -48 -12q-12 -8 -37 -22q-7 -2 -64 -10q-42 -6 -58 -25q-18 -22 -18 -84q0 -44 10 -234q4 -115 21 -345q7 -64 40.5 -79t98.5 -15q30 0 56 15l11 6q-6 22 -16 66
q-2 10 -21 188q-10 92 -10 100v244q14 10 36 10q1 0 5 -1q24 -17 32 -52q18 -80 34.5 -246.5t35.5 -249.5q10 -42 37 -55q18 -8 67 -8q140 0 137 61l-34 642q-1 19 -1 18q0 23 23 23q28 0 41 -33q25 -63 39 -281q12 -187 31 -340q7 -56 21 -78q20 -32 70 -32q86 0 117 32
q36 37 36 88v609q0 51 29 95q18 5 29 5q1 0 7 -1q30 -38 30 -134v-598q24 -11 49 -21.5t53 -10.5q21 0 52 32q9 9 14 20q47 97 60 241q6 70 6 250q0 9 3.5 26t3.5 26z" />
  </g>

</svg>
