<?xml version="1.0" standalone="no"?>
<!DOCTYPE svg PUBLIC "-//W3C//DTD SVG 1.1//EN" "http://www.w3.org/Graphics/SVG/1.1/DTD/svg11.dtd" >
<svg viewBox="0 -442 2048 2048">
  <g transform="matrix(1 0 0 -1 0 1606)">
   <path fill="currentColor"
d="M2019 662q-150 -271 -418 -414q-256 -137 -576 -137q-321 0 -576 137q-268 143 -420 414q153 273 419 416q255 136 577 136t576 -137q267 -143 418 -415zM1830 662q-196 344 -618 414q126 -54 201 -165.5t75 -248.5q0 -134 -74 -246t-197 -167q419 71 613 413zM1392 662
q0 151 -108.5 255.5t-259.5 104.5q-79 0 -152 -33l-38 87q-421 -72 -616 -414q194 -341 612 -413q-123 55 -196.5 166.5t-73.5 246.5q0 82 29 160l93 -29q-26 -65 -26 -131q0 -151 108 -255.5t260 -104.5t260 104.5t108 255.5zM1302 662q0 -114 -82 -193.5t-196 -79.5
q-115 0 -196.5 79t-81.5 194q0 51 17 96l284 -129l-133 282q54 24 110 24q114 0 196 -79.5t82 -193.5z" />
  </g>

</svg>
