<?xml version="1.0" standalone="no"?>
<!DOCTYPE svg PUBLIC "-//W3C//DTD SVG 1.1//EN" "http://www.w3.org/Graphics/SVG/1.1/DTD/svg11.dtd" >
<svg viewBox="0 -442 2048 2048">
  <g transform="matrix(1 0 0 -1 0 1606)">
   <path fill="currentColor"
d="M1158 402q0 -14 -8 -45q-9 -34 -10 -46q-7 -60 -64 -175q-53 -107 -53 -166q0 -129 5 -159q25 -161 25 -140q0 -26 -26.5 -44t-53.5 -18q-10 0 -27 8q-40 249 -40 339q0 59 28 133q22 58 41 95q15 28 42 86q4 21 15 61q21 61 21 136q0 113 -11 178q-3 18 -19.5 36
t-33.5 17q-7 -49 -36 -142q-29 -11 -38 -11q-43 0 -43 35q0 27 10 81.5t10 85.5q0 33 -53 69l-10 -92q-12 -58 -56 -58q-45 0 -45 43q0 10 6.5 30.5t6.5 30.5v88q0 27 -109 63l-26 -82q-16 -47 -55 -65q-27 25 -27 35q0 -21 18 63q9 40 9 89q0 292 -32 378q-2 10 -5 30
q-23 115 -74 115q-17 0 -31 -47q-12 -38 -12 -62v-234v-117q-14 -94 -35 -283v-179q0 -74 -20 -137q-10 -30 -48 -30q-13 0 -30.5 13.5t-16.5 26.5q17 191 13 273q-14 -2 -39 -11q-14 -8 -27 -39t-13 -50v-363q69 -76 217 -216q11 40 48 105q24 -22 24 -36v-421
q0 -8 -15.5 -20.5t-54.5 -12.5q-11 0 -14 1q-6 2 -16.5 16t-10.5 20q0 12 4 35q4 27 5 35q7 72 7 154q0 2 -53 53q-58 56 -61 59q-60 56 -165 178q-14 20 -14 52q0 12 4.5 37t4.5 37v283q0 4 4 14t5 15q12 94 88 124q24 0 70 8q15 5 18 25l2 34q24 188 29 389q1 87 15 260
q4 30 38 74q19 24 99 24q11 0 17 -2q64 -23 93 -82q18 -36 33 -122q8 -18 20 -54q19 -87 19 -237q0 -12 -4.5 -34t-4.5 -35l1 -12q16 -9 46 -11q38 -3 48 -5q17 -4 46 -31q41 -36 44 -38q13 -3 38 -11q47 -20 80 -48q15 -13 30.5 -47t19.5 -37q24 -7 70 -27q48 -30 78 -143
q7 -22 18 -67q7 -47 7 -126z" />
  </g>

</svg>
