<?xml version="1.0" standalone="no"?>
<!DOCTYPE svg PUBLIC "-//W3C//DTD SVG 1.1//EN" "http://www.w3.org/Graphics/SVG/1.1/DTD/svg11.dtd" >
<svg viewBox="0 -442 2048 2048">
  <g transform="matrix(1 0 0 -1 0 1606)">
   <path fill="currentColor"
d="M1656 857q0 1 -3 -12q-19 4 -52 72q-21 46 -41 91q-80 157 -326 268q-56 25 -146 25q-55 0 -103 -12q-99 -23 -115 -23q-17 0 -98 20q-64 15 -121 15q-23 0 -84 -6q-37 -4 -130 -56q-77 -43 -124 -79q-91 -69 -164 -213q-14 -34 -46 -94q-5 -7 -17 -8q-4 16 -4 11
q0 16 20 65q4 9 12 18q6 5 6 21q0 4 1 7q33 95 78 140q148 147 278 204q24 5 70 18q58 18 126 18q70 0 127 -18q74 -24 68 -24q-12 0 69 24q62 18 130 18q218 0 440 -212q12 -8 33 -28q18 -27 49 -86q11 -17 21 -33q13 -20 13 -36q0 3 14 -27q5 -20 16 -59q3 -10 3 -9z
M1617 766q0 -71 -11 -87q-23 -40 -77 -115q-29 -21 -84 -64q-26 -27 -77 -79v-181q0 -2 -7.5 -20t-7.5 -28q0 -4 2 -8q50 49 164 201q12 -7 12 -14q0 3 -19 -39q-9 -24 -30 -70q-44 -80 -87 -119q-24 -9 -65 -39q-3 -17 -14 -47q-63 -104 -111 -164q-71 -88 -147 -118
q-62 -24 -182 -24q-113 0 -174.5 17t-124.5 66l-33 46q-43 60 -121 185q-2 19 -14 50q-33 16 -91 51q-19 26 -56 73q-29 33 -49 99q6 2 18 4q61 -99 153 -154v3q0 8 -6.5 24.5t-6.5 24.5v181q-25 30 -77 73q-61 48 -81 69q-17 33 -59 93q-25 27 -30 51q-2 10 -2 61
q0 18 55 91q22 34 43 67q27 39 58 53q1 9 5 28q3 -1 13 -12q11 4 11 31v4q3 -1 20 -19q17 9 17 23q0 4 -1.5 11.5t-0.5 11.5v6q6 -13 20 -37q20 12 31 43q1 -23 14 -23q24 0 30 16l6 38q3 -15 9 -44q-1 0 -1 -1q0 -2 7 -2q16 0 36 15q2 5 2 21q0 13 10 14q9 -30 20 -30
q4 0 12 1.5t12 1.5q6 12 4 43q23 -35 36 -35q31 0 42 35q4 -10 16 -27h26q4 9 4 27q40 -27 37 -27q21 0 17 31q6 -14 29 -38q3 -2 75 -12q12 18 12 42q10 -30 10 -39q7 0 22 -1.5t23 -1.5q25 0 30 14l8 36q9 -28 9 -39h33q9 12 25 35q0 -13 8 -27h17l15 27h15v-24
q3 -3 15 -3q16 0 20 7q13 19 14 20v-4q-2 -31 38 -31q10 0 36 35v-39q11 -2 33 -7q6 10 15 30h14q-2 -9 -2 -16q0 -33 38 -34q4 6 13 43q1 -1 6 -33q3 -17 23 -17q16 0 18 4q1 10 3 21l9 1q-1 -16 -1 -18q0 -23 26 -28q3 8 12 35q-1 4 -1 -29q0 -18 20 -21q6 7 21 19v-28
l8 -7q1 0 11 12q-1 -23 21 -37q31 -20 36 -26q108 -142 108 -178zM1438 934q0 21 -23 22q0 -8 -2 -24.5t-2 -24.5q0 -16 18 -15q9 27 9 42zM1376 953q0 6 -4 18.5t-4 19.5q-21 0 -45 8q0 -29 -3 -40q-1 -4 -9 -19.5t-8 -19.5v-36q3 0 9 -2.5t10 -2.5q5 0 13 3t12 3
q29 49 29 68zM1283 970v44q-20 4 -59 12q3 -60 0 -115h22q10 0 24 25q13 22 13 34zM1182 958v83h-119v-33q0 -82 71 -82q48 0 48 32zM1032 995q0 43 -42 43q-16 0 -44 -4q-32 -4 -44 -5q-21 -21 -21 -57q0 -78 89 -78q14 0 38 1l11 13q1 13 7 44q6 28 6 43zM858 982v6
q0 32 -17 39q-8 4 -43 4q-13 0 -36.5 7.5t-34.5 7.5q-31 0 -31 -60q0 -40 4 -49t32 -42q25 -1 39 -1q86 0 87 76v12zM676 1013v28h-119v-82q0 -33 48 -33q71 0 71 87zM522 919q-5 9 -11 28q-2 17 -1 79q-18 -6 -53 -16v-36q0 -18 14.5 -41t31.5 -23q11 0 19 9zM437 884v37
q0 6 -7 15.5t-8 14.5q-1 16 -6 48q-14 -8 -44 -8q0 -7 -4 -19.5t-4 -18.5q0 -18 28 -68q39 -6 26 -6q4 0 10 2.5t9 2.5zM333 896q-2 21 -9 61q-9 -4 -22 -12v-46q9 -8 17 -8q9 0 14 5zM1323 421q0 31 -3 40q-21 75 -53 96q-72 48 -214 48h-19q-1 0 -67.5 -34.5t-96.5 -34.5
q-31 0 -90.5 33t-87.5 33q-91 0 -118 -6q-83 -18 -102 -39q-53 -59 -53 -115q0 -11 1.5 -34t1.5 -35q0 -126 16 -184q6 -12 17 -38q26 -72 96 -145q74 -79 144 -95.5t175 -16.5q165 0 219 32q137 82 191 212q43 105 43 283z" />
  </g>

</svg>
