<?xml version="1.0" standalone="no"?>
<!DOCTYPE svg PUBLIC "-//W3C//DTD SVG 1.1//EN" "http://www.w3.org/Graphics/SVG/1.1/DTD/svg11.dtd" >
<svg viewBox="0 -442 2048 2048">
  <g transform="matrix(1 0 0 -1 0 1606)">
   <path fill="currentColor"
d="M1997 793q0 -45 -47 -84q-40 -32 -89 -45q-22 -3 -65 -11q-17 -8 -53 -20q-85 -20 -235 -20q-10 0 -28.5 5t-28.5 5q-24 0 -27 -18q0 2 0 -36q0 -37 -27 -69q-44 -52 -47 -57q-3 -12 -11 -37q-18 -50 -49 -80q-34 -18 -79 -48q-10 -11 -23 -56q-10 -35 -47 -55
q-107 -57 -285 -57q-9 0 -26 5t-23 6q-68 11 -119 30q-63 28 -125 55q-84 36 -126 36h-56q-49 0 -83 -3q-21 -2 -77 -15q-49 -11 -78 -11q-25 0 -44 27q-17 24 -17 50q0 13 8 27q196 38 251 38q170 0 273 -51.5t164 -68.5q77 -22 179 -22q182 0 188 63q-48 6 -139 34
q-10 25 -10 38q0 42 38 42q27 0 79.5 -10t79.5 -10q32 0 67 52q-43 4 -86 9q-61 11 -61 43q0 55 43 55q10 0 29.5 -6t29.5 -6h86q12 0 29 24q9 13 32 83q-40 13 -81 25q-45 16 -62 53q24 26 34 26q-16 0 61 -18q34 -8 110 -8q202 0 297 18q16 5 49 13q86 21 87 21
q55 20 55 57q0 17 -34 26q-24 5 -48.5 10.5t-25.5 5.5l-302 -1q-60 0 -158 15q-119 17 -158 20h-173q-89 0 -134 19q-30 13 -30 47q0 14 12.5 30t26.5 16q37 0 111 -6.5t111 -6.5q29 0 44 2q-2 12 -10 36q-7 14 -38.5 27t-49.5 13h-353q-75 -67 -211 -213q29 -9 59 -19
q42 -16 43 -32q-32 -19 -35 -19h-410q-33 0 -33 59q0 50 36 50q11 0 31 -4.5t28 -5.5q55 -6 160 -6q46 36 140 139q85 93 143 133q20 14 51 14q12 0 36 -4.5t36 -4.5h276q-2 0 28 -9q100 -30 122 -85q2 -5 5 -45q3 -31 16 -38q49 -26 463 -37q86 1 215 -11q66 -20 82 -42
q13 -20 13 -91z" />
  </g>

</svg>
