<?xml version="1.0" standalone="no"?>
<!DOCTYPE svg PUBLIC "-//W3C//DTD SVG 1.1//EN" "http://www.w3.org/Graphics/SVG/1.1/DTD/svg11.dtd" >
<svg viewBox="0 -442 2048 2048">
  <g transform="matrix(1 0 0 -1 0 1606)">
   <path fill="currentColor"
d="M1774 545q0 -221 -89 -423q-113 -255 -304 -255q-195 0 -304 253q-85 198 -85 425t86 434q111 267 305 267q188 0 301 -268q90 -211 90 -433zM864 545q0 -224 -86 -424q-110 -254 -303 -254q-192 0 -304 254q-89 202 -89 424t89 434q113 267 302 267q192 0 304 -266
q87 -209 87 -435zM1688 545q0 190 -66 372q-86 239 -239 239q-149 0 -243 -218q-76 -175 -76 -348q0 -15 1 -28v8q-5 81 45 164q55 94 133 94q97 0 145 -137q34 -98 34 -220q0 -119 -31 -216q-45 -138 -137 -138q-81 0 -143 119q14 -103 89 -189q82 -94 181 -94
q154 0 241 229q66 175 66 363zM1235 562q0 149 -57 149q-30 0 -46 -63q-11 -44 -11 -88q0 -40 12 -85q17 -61 45 -61q57 0 57 148zM781 545q0 190 -67 372q-88 239 -241 239q-147 0 -243 -223q-77 -180 -77 -352q0 -14 1 -26q2 88 48 173q54 100 134 100q95 0 144 -138
q36 -100 36 -219q0 -118 -33 -216q-45 -138 -137 -138q-84 0 -142 119q14 -103 90 -189q82 -94 181 -94q152 0 239 230q67 176 67 362zM328 562q0 44 -11 87q-16 62 -46 62q-56 0 -56 -151q0 -146 55 -146q58 0 58 148z" />
  </g>

</svg>
