<?xml version="1.0" standalone="no"?>
<!DOCTYPE svg PUBLIC "-//W3C//DTD SVG 1.1//EN" "http://www.w3.org/Graphics/SVG/1.1/DTD/svg11.dtd" >
<svg viewBox="0 -442 2048 2048">
  <g transform="matrix(1 0 0 -1 0 1606)">
   <path fill="currentColor"
d="M1116 912q0 -12 -4.5 -35t-4.5 -35v-273q0 -4 -3.5 -13.5t-4.5 -13.5q-5 -35 -28 -70q-26 -39 -57 -50q-23 0 -67 -8q-13 -5 -20 -56q-22 -168 -28 -395q-1 -77 -14 -229q-4 -28 -36 -71q-16 -22 -71 -22q-4 0 -12 -1t-12 -1q-9 0 -16 3q-97 35 -122 196q-8 17 -19 52
q-19 94 -19 248q0 5 4.5 18t4.5 21q0 9 -1 18q-15 9 -44 11q-38 3 -46 5q-16 4 -44 29q-41 35 -42 36q-13 3 -37 11q-49 22 -76 46q-16 14 -30 45.5t-19 35.5q-24 7 -68 26q-98 64 -98 324q0 8 5 24t6 23q5 68 63 192q55 119 55 173q0 124 -5 155q-23 148 -23 135
q0 24 25.5 42t50.5 18q12 0 26 -8q40 -207 40 -326q0 -68 -39 -156q-34 -73 -69 -146q-4 -20 -14 -58q-20 -59 -20 -131q0 -111 10 -171q8 -49 52 -51q6 47 34 136q30 11 37 11q41 0 41 -47q0 -24 -9.5 -71.5t-9.5 -72.5q0 -39 51 -69q4 44 9 89q11 55 54 55t43 -42
q0 -13 -6 -47.5t-6 -53.5q0 -56 25 -74q8 -6 80 -28q12 40 24 79q15 45 53 62q26 -26 26 -34q0 -10 -11 -45q-12 -38 -13 -52.5t-1 -52.5q0 -230 30 -359q2 -16 8 -49q6 -27 24 -56q22 -35 44 -35q18 0 31 45q10 36 10 61v225v112q14 91 34 272v171q0 66 19 132q8 29 47 29
q12 0 28.5 -13t15.5 -25q-16 -183 -12 -262q13 2 37 10q14 8 27 40q12 29 12 47v348q-84 92 -209 207q-11 -37 -46 -101q-23 22 -23 35v403q0 9 15 21t43 12q21 0 23 -1q26 -11 26 -34q0 4 -5 -31q-9 -64 -10 -185q122 -118 268 -279q13 -23 13 -50z" />
  </g>

</svg>
