<?xml version="1.0" standalone="no"?>
<!DOCTYPE svg PUBLIC "-//W3C//DTD SVG 1.1//EN" "http://www.w3.org/Graphics/SVG/1.1/DTD/svg11.dtd" >
<svg viewBox="0 -442 2048 2048">
  <g transform="matrix(1 0 0 -1 0 1606)">
   <path fill="currentColor"
d="M959 966q0 -78 -44 -129t-121 -51q-56 0 -85 16q-36 20 -32 20q5 0 -33 -11q-24 -7 -66 -7q-6 0 -18 3t-18 3q-1 0 -35 -30t-104.5 -57.5t-116.5 -27.5q-82 0 -138.5 54.5t-56.5 136.5q0 53 44 139t44 105q0 14 -6 37q-7 27 -8 37q-4 33 -4 90q0 58 14 127q21 99 57 99
h20q-46 -62 -46 -226q0 -125 22 -152q28 -20 75 -55q62 -48 152 -146q32 -38 93 -94q12 -7 38 -7q55 0 73 24q9 19 26 57q39 76 78 153q60 119 60 144q0 6 -14 34q-104 207 -213 267q4 0 13 1t14 1q54 0 137 -113q44 -60 106 -191q28 -45 74 -142q19 -57 19 -109zM987 185
q0 -15 -63 -132q-78 -144 -79 -146q-90 -190 -184 -249q-58 168 -180 281q-138 127 -302 127q-65 0 -96 -42q-1 9 -1 20q0 83 135 83q51 0 126 -25q60 -22 121 -44q58 -19 129 -19q225 0 386 169q8 -14 8 -23z" />
  </g>

</svg>
