<?xml version="1.0" standalone="no"?>
<!DOCTYPE svg PUBLIC "-//W3C//DTD SVG 1.1//EN" "http://www.w3.org/Graphics/SVG/1.1/DTD/svg11.dtd" >
<svg viewBox="0 -442 2048 2048">
  <g transform="matrix(1 0 0 -1 0 1606)">
   <path fill="currentColor"
d="M1956 843l-59 -204q-10 -7 -23 -7q-1 0 -78 35q-120 55 -271 186q-122 111 -245 223q-2 -17 -2 -53v-25l24 -404q1 -49 3 -146q3 -44 10 -133q5 -77 18 -232q6 -28 16 -85q5 -36 16 -152q7 -74 7 -80q0 -12 -39 -44.5t-54 -37.5q-125 -44 -182 -44q-3 0 -18 5t-19 6
q-65 10 -195 36q-26 10 -79 28q-60 17 -117 60q5 75 19 223q7 28 17 85q0 4 16 188q9 105 9 110v590q0 1 9 100q-1 1 -2 1h-2q-39 -44 -121 -129q-196 -186 -332 -254q-31 -17 -62 -35q-44 -24 -62 -24q-5 0 -8 2l-9 7q-59 212 -59 205v307q33 37 343 158q356 139 391 157
q5 3 30 23q20 16 31 16q31 0 35 -2q24 -14 87 -77q90 89 94 89q36 0 53 -16l40 -39q4 -2 57 -18q202 -59 468 -172q75 -31 220 -98q8 -7 25 -21v-308zM1922 958v169q-22 17 -37 24q-461 227 -707 281q-52 -64 -151 -197q-5 -7 -45 -75q-10 -13 -21 -34v-19l283 12q1 17 7 49
q4 12 33 87q9 -37 9 -53q0 -15 -6 -40q-8 -31 -9 -40q126 -115 383 -337q32 -19 95 -57q54 -33 98 -60q15 27 42 163q26 132 26 127zM979 1403q-15 4 -51 37.5t-41 33.5q-8 0 -38 -31l83 -87zM1144 1452q-15 15 -42 35q-8 -10 -116 -128q-72 -79 -103 -135q-6 -18 -20 -54.5
t-14 -63.5q8 0 33 1h33q15 38 50 110q35 56 179 235zM1234 1052v24q-24 -5 -72 -14q42 -7 72 -10zM1238 1089v11l-255 -16q96 -11 124 -11q19 0 131 16zM1235 985v30l-195 31l-98 15h-167v-97h33q49 9 146 21h281zM1238 930q0 6 -3 30h-275q-10 0 -193 -24v-27q40 10 111 21
h120h240zM1247 879v29h-354l-132 -24v-21l162 27zM906 1321q-6 15 -42 58.5t-47 43.5q-14 0 -136 -43q-113 -39 -145 -53q-235 -101 -389 -179q-10 -7 -31 -21v-168q0 -15 23 -129q22 -109 29 -133q2 -8 16 -29q66 36 193 117q174 132 308 288q39 46 39 49t-11 24t-11 38
q0 116 19 117h6l3 -2q0 -71 7 -97q16 -60 36 -98q4 -7 18 -7q13 0 21 4q7 110 94 220zM1327 -212q0 68 -20 213q-1 8 -8 35q-6 22 -6 34v98q-6 30 -12 88q-9 345 -17 581q-36 18 -317 23q-33 -111 -47 -261q-9 -132 -19 -264q-14 -104 -40 -313q-4 -42 -15 -125
q-1 -8 -10 -35q-7 -23 -7 -35v-95l307 -43q58 12 167 46q18 8 42 46q2 3 2 7zM912 859l-154 -27v-576q0 -15 -6 -44q-6 -32 -7 -44v-97q0 14 -14 -70q-1 -6 -8 -82q-11 -120 -11 -138q19 -6 57 -19q2 64 30 201q26 130 26 201q0 12 5 31q7 23 8 31q6 43 25 318
q13 195 49 315z" />
  </g>

</svg>
