<?xml version="1.0" standalone="no"?>
<!DOCTYPE svg PUBLIC "-//W3C//DTD SVG 1.1//EN" "http://www.w3.org/Graphics/SVG/1.1/DTD/svg11.dtd" >
<svg viewBox="0 -442 2048 2048">
  <g transform="matrix(1 0 0 -1 0 1606)">
   <path fill="currentColor"
d="M1911 6q0 -66 -23 -167q-26 -113 -58 -153q-15 -19 -40 -19h-1588q-39 0 -67 74q-53 138 -53 308q0 155 52 295q3 8 38 87q31 71 31 75q0 -5 -37 57l37 158q7 -3 15 -3q17 0 21 30l2 44q7 131 41 388q13 62 88 94q58 25 74 25h297q4 27 0 57h120q10 0 38 44
q-15 10 -28.5 19.5t-13.5 37.5q0 72 77 72q42 0 61 -27q13 10 25 21q10 6 38 6q32 0 54.5 -20.5t22.5 -51.5q0 -26 -10 -37q-3 -2 -32 -20q25 -44 38 -44h119v-57h298q16 0 74 -25q68 -29 87 -94q14 -46 22 -167q10 -148 28 -290q11 -4 27 -3l40 -157q-2 -3 -19.5 -28.5
t-17.5 -28.5t29 -68q31 -71 34 -79q59 -157 59 -353zM1093 1461q0 32 -35 32q-44 0 -44 -27q0 -46 35 -46q44 0 44 41zM1217 1299v30q-13 0 -38 -1h-38q-30 0 -45 20q-12 24 -25 48q-8 -3 -26 -7q34 -90 59 -90h113zM978 1466q0 27 -44 27q-35 0 -35 -32q0 -41 44 -41
q35 0 35 46zM1792 577l-27 101h-42l40 -136q12 11 29 35zM1053 1300q-16 40 -59 114q-18 -38 -55 -114h114zM947 1389q-8 3 -26 7q-35 -70 -75 -70q-6 0 -29.5 1.5t-41.5 1.5v-30h113q18 0 59 90zM1708 724q0 25 -13 171q-6 85 -28 251q-9 46 -60 76q-44 26 -65 26h-1092
q-22 0 -65 -26q-51 -31 -60 -76t-28 -257q-13 -144 -13 -165q0 -11 11 -18q12 7 28 25q5 14 29 312q2 31 9 78q9 24 36 49.5t50 25.5h1098q28 0 59 -33q22 -24 27 -41q16 -58 22 -170q5 -87 10 -175q4 -56 38 -71q7 11 7 18zM1838 20q0 139 -41 285l-88 272q-8 36 -30 92
q-21 19 -46 44q-8 16 -26 315q-3 53 -5 65q-8 39 -31 53q-32 20 -50 20h-1050q-13 0 -41.5 -16.5t-32.5 -27.5q-1 -3 -8 -65q-14 -169 -30 -344q-6 -15 -22 -26q-19 -11 -24.5 -19.5t-68.5 -211.5q-12 -37 -36 -112q-9 -25 -26 -76q-28 -103 -28 -248t80 -265h1524
q80 132 80 265zM269 678h-42q-27 -98 -27 -101q0 -7 29 -35z" />
  </g>

</svg>
