<?xml version="1.0" standalone="no"?>
<!DOCTYPE svg PUBLIC "-//W3C//DTD SVG 1.1//EN" "http://www.w3.org/Graphics/SVG/1.1/DTD/svg11.dtd" >
<svg viewBox="0 -442 2048 2048">
  <g transform="matrix(1 0 0 -1 0 1606)">
   <path fill="currentColor"
d="M1646 1311l-202 50q-20 -7 -28 -30t-15 -44q-29 -76 -57 -152q-43 -103 -79 -132q-14 -2 -33 -2q-17 0 -33.5 21.5t-76.5 162.5q-7 25 -27 71q0 1 -19 18q-9 -9 -33 -95q-24 -90 -52 -124v-3v-5l232 -1112q-2 -8 -8 -21q-2 -2 -58 -52l-280 -248l-1 -9h-24q0 8 -3 11
l-90 78q-90 80 -167 148q-27 23 -77 70q-2 3 -10 23l232 1112q0 5 -1 8q-8 12 -23 37q-16 62 -58 182q-16 -7 -22 -18q-20 -49 -62 -145q-12 -31 -42 -89q-14 -20 -50 -20q-45 0 -98 146q-26 75 -78 198q-9 17 -19 15l-202 -50v40q65 -2 223 51q51 40 133 96q21 11 67 11
q3 0 62 -46q28 -20 83 -61q3 -2 18 -20t17 -18q8 0 25.5 3t25.5 3h256q8 0 25.5 -3t25.5 -3q2 0 17.5 18t17.5 20q28 20 83 61q10 8 50 45q2 1 12 1q4 0 12 -3t12 -3q15 1 43 -5q42 -37 133 -97q27 -5 71 -14q37 -12 75 -23q45 -14 77 -13v-40zM1390 1372q-40 42 -115 105
q-7 4 -23 4t-70 -48q-36 -31 -71 -63l128 -325h14l8 5q42 108 129 322zM1037 1307q-46 35 -123 35h-100q-80 0 -123 -35q15 -56 30 -111q18 -66 42 -106q29 -5 24 -5q5 0 30 9.5t47 9.5q23 0 48.5 -9.5t28.5 -9.5q12 0 27 7q10 22 69 215zM617 1370q-118 111 -141 111
q-16 0 -23 -4q-42 -38 -115 -105q42 -108 128 -322q3 -6 23 -5zM1161 -54l-176 916q-4 63 -33 170q-23 41 -102 41q-16 0 -43 -14.5t-32 -26t-26 -117.5l-51 -282l-131 -687l299 -261z" />
  </g>

</svg>
