<?xml version="1.0" standalone="no"?>
<!DOCTYPE svg PUBLIC "-//W3C//DTD SVG 1.1//EN" "http://www.w3.org/Graphics/SVG/1.1/DTD/svg11.dtd" >
<svg viewBox="0 -442 2076 2048">
  <g transform="matrix(1 0 0 -1 0 1606)">
   <path fill="currentColor"
d="M1687 542q-5 -4 -18 -4q-41 0 -110 53.5t-69 93.5q0 15 5 25q10 -18 31 -53q12 -18 74 -53q44 -25 87 -50v-12zM2076 899q0 -52 -97 -189q-50 -71 -100 -141q-9 -63 -44 -188q-30 -68 -59 -107q-23 -16 -62 -58q-22 -54 -61 -149q-8 -8 -16 -8q-18 0 -18 23q0 27 46 105
q-39 3 -77 7q-45 4 -72 25l14 25q44 -10 107 -10q29 0 93 56q7 7 23 31q88 138 88 240q0 18 85 131q92 123 105 153q25 60 25 57q0 21 -18 21q-46 0 -156 -145q-69 -91 -69 -99q0 -4 6.5 -14t6.5 -15q0 3 -3 -14h-15q-25 38 -81 99q-57 43 -161 43q-13 0 -56 -3l-7 7
q6 11 19 18v257q0 12 -3 35.5t-3 35.5q-16 2 -13 2q-45 0 -45 -46v-94l9 -146q0 -4 -4 -20.5t-5 -21.5q-8 -64 -34 -139q-31 -86 -68 -124q-29 -30 -77 -36v-36h-12q-5 10 -16 28q-42 14 -68 14q-39 0 -71.5 -33t-32.5 -72q0 -15 15 -15q9 0 25 5q20 6 26 7q34 5 73 5
q51 0 77 -8q20 -6 85 -67t65 -75v-24q-3 -4 -13 -4q-7 0 -40 32q0 -11 2 -34t2 -35v-82q0 -9 -14 -30h-21v114q-1 68 -14 113q-80 54 -147 54q-18 0 -53 -6.5t-53 -6.5q-34 0 -34 78q0 56 35.5 94.5t90.5 38.5q22 0 47 -10t22 -10l32 12q54 20 87 82q12 23 44 116
q13 39 13 111q0 39 -4 82q0 4 -2.5 14t-2.5 16v102q0 45 33 81q14 15 46 15q16 0 26 -10q3 -3 15 -66t12 -74v-216h11q7 23 10 99q0 6 16 66q69 259 130 259q19 0 44 -11q31 -14 26 -31l-107 -389q0 -1 1 -2h5q7 0 34 70q27 82 94 240q1 3 37 45q28 33 49 33q49 0 49 -73
q0 -47 -79.5 -217t-79.5 -177q0 -3 8 -15q61 96 87 128q49 64 110 109q30 22 39 22q38 0 38 -60zM1700 429q-2 -2 -7 -2q-8 0 -28 7q-24 8 -31 9q-69 11 -129 11q-43 0 -88 -3l-5 4v8q28 27 94 27q87 0 151 -14q15 -3 43 -26v-21zM1034 318q0 -29 -11 -57q-14 -37 -38 -37
q-8 0 -63.5 16.5t-73.5 16.5q-21 0 -64 -15q-22 -4 -57 -23q-10 -12 -21 -66q-6 -36 -13 -73q0 -1 -13 -24q-22 8 -22 31q0 7 10.5 46t13.5 42q-1 1 -6 1q-4 0 -19 -9.5t-20 -9.5q-7 0 -17 11l7 19q20 19 61 58q14 13 54.5 35t55.5 22q86 0 138 -17q67 -22 56 -22
q16 0 16 21q0 32 -26 68.5t-57 42.5q-19 4 -40 4q-43 0 -56 -29h-15q0 13 6 30q-27 13 -70 48q-30 40 -51 138q-18 86 -18 150q0 19 12 102q27 187 27 165q0 61 -49 53q-10 -29 -25 -89q-26 -160 -26 -217q10 -29 16 -36q-19 -4 -18 -4l-124 19q-34 -6 -98 -36
q-4 -3 -45 -42q-36 -35 -40 -35q2 0 -15 4q13 50 13 41q0 35 -80.5 155t-108.5 120q-18 0 -18 -29q0 -39 83 -181q85 -146 87 -163q-1 -38 5 -113q2 -11 36 -136q7 -27 49.5 -71t68.5 -50q48 -11 80 -11q15 0 27 3q3 -5 10 -28q-43 -17 -55 -17q-56 0 -94 14q23 -103 23 -90
q0 -21 -21 -21q-15 0 -30 62q-19 78 -21 82q-23 24 -63 77q-5 17 -15 49q-17 47 -25 122q-9 99 -14 124q-26 47 -62 116q-28 56 -57 112q-32 70 -32 119q0 18 11 40.5t27 22.5q43 0 120 -124q54 -87 88 -165l10 6q0 2 -31 103q-40 133 -58 206q-18 70 -18 92q0 45 15 63.5
t39 18.5q23 0 55 -49q27 -41 36 -72q5 -16 18 -81q16 -71 47 -212l14 -4l-52 396q12 42 47 42q48 0 71 -43q2 -5 28.5 -84.5t26.5 -245.5q0 -36 -5 -69l14 -5q10 92 53 290q22 69 37 69q2 0 56 -24q21 -59 21 -70q0 -73 -8 -102q-34 -125 -34 -190q0 -62 23 -136
q26 -84 64 -118q33 -29 51 -29q3 0 18 8t30 8q51 0 94.5 -39.5t43.5 -90.5zM636 638q0 -12 -5 -37q-11 -30 -58 -58q-79 -46 -120 -46h-30q1 8 -4 18q58 23 117 45q75 35 87 78h13zM681 385q0 -12 -11 -12q-4 0 -18 5.5t-18 6.5q-65 14 -158 14q-15 0 -41.5 -4.5t-40.5 -4.5
l-4 7q12 38 97 38q48 0 105 -11q76 -14 89 -39zM1920 1114q0 14 -4 23h-26q-5 0 -26 -27q-25 -33 -47 -86q-19 -46 -37 -92q-21 -52 -64 -156q16 -11 48 -31q45 95 90 189q66 142 66 180zM1762 1175q-18 10 -26 10q-41 0 -100 -162q-28 -78 -39 -216q5 0 17 -1.5t18 -1.5
q13 0 14.5 3t26.5 82l57 184q11 34 32 102zM545 755v97q0 49 -19 148q-23 113 -46 138q-5 5 -18 5q-6 0 -17 -2t-16 -2l71 -384h45zM422 743q-18 67 -54 202q-10 39 -20.5 77.5t-34.5 74.5q-20 30 -33 30q-10 0 -13.5 -10.5l-6.5 -19.5l111 -381q18 7 51 27z" />
  </g>

</svg>
