<?xml version="1.0" standalone="no"?>
<!DOCTYPE svg PUBLIC "-//W3C//DTD SVG 1.1//EN" "http://www.w3.org/Graphics/SVG/1.1/DTD/svg11.dtd" >
<svg viewBox="0 -442 2048 2048">
  <g transform="matrix(1 0 0 -1 0 1606)">
   <path fill="currentColor"
d="M1984 581q-34 -4 -100 -20q-41 -30 -136 -67q-4 -1 -55.5 -1t-70.5 -7q-4 -2 -10.5 -9.5t-16.5 -7.5q-21 0 -21 18q0 2 -2 4q-2 -4 -2 -8q0 -14 9.5 -42t9.5 -41v-161q0 12 11 -52q7 -41 7 -95q0 -6 -6 -18.5t-6 -18.5q0 -5 11 -30t11 -30v-260q0 -12 6 -34q8 -26 9 -34
q-76 -47 -123 -47l-115 9q-23 2 -61 0q-48 -3 -61 -3q-45 0 -135.5 7.5t-135.5 7.5q-37 0 -110.5 -3t-110.5 -3q-48 0 -52.5 1t-10.5 6.5t-10 5.5h-194q-2 0 -22.5 9t-33.5 10l-7 9v75q0 5 6 17t6 17v210q0 9 33 74q-10 33 -10 72q0 26 11.5 68.5t11.5 51.5v132
q1 13 11.5 47t10.5 49l-2 45q-24 -32 -36 -77h-38q-20 0 -57 17t-54 19q-29 -1 -87 8q-7 3 -85 41q-60 30 -85 29q0 3 -2 10t-2 11q0 3 15.5 30.5t17.5 33.5q4 12 45 167q15 58 59 152q59 124 69 151q8 43 38 101q8 1 22 8q6 15 22 43q24 15 65 44q109 91 219 128
q15 5 80 14q11 25 56 43q39 15 71 15q17 0 52 -1t52 -1q56 0 98 -12q38 -11 36 -11l161 19q4 0 30 -7.5t29 -9.5q3 -6 8 -15q24 -35 48 -45q2 -1 26 -1q50 0 156 -50q7 -7 22 -20q48 -26 142 -79q26 -16 49 -57q31 -55 40 -66l24 -56q10 -15 28 -46q8 -28 24 -83
q22 -67 31 -115q8 -17 20 -52q2 -36 17 -105q2 -5 17 -32q13 -23 13 -27v-69zM1212 1413q-21 0 -60 -3q-22 -3 -12 -3q-6 1 -10 6q2 -14 2 -22v-5q0 -10 -3 -15h17q18 10 66 42zM1104 1353q-3 18 -3 36h-77v-43h60q4 0 10.5 3.5t9.5 3.5zM1076 1422h-145q19 -20 61 -51v5
q-1 28 9 37q24 0 71 3zM1956 611v15h-4q-15 0 -20 18q-13 83 -51 250q-28 91 -49 148q-11 29 -50 104q-43 81 -58 96q-26 26 -80 51q-64 30 -84 44q-6 8 -21 20q-33 9 -96 27q-19 10 -59 23q-14 0 -33 4q-3 2 -46 44q-28 27 -54 27q-20 0 -74.5 -8t-81.5 -8t-66 11t-44 11
h-140q19 -26 43 -31q5 -1 55 -1q6 0 17 -2.5t16 -2.5h89q9 0 28.5 -6.5t30.5 -6.5q91 0 121 11q7 2 15 10t20 8t12 -13q0 -9 -26 -37.5t-38 -36.5q-95 -65 -170 -65q-51 0 -85 26q-34 30 -67 61q-9 7 -74 53q-4 10 -17 24q-14 -7 -40 -23q-6 -9 -19 -26q-12 0 -37 -2
q-131 -19 -315 -173q-1 -1 -28 -44q-15 -1 -30 -9q-5 -44 -98 -258q-7 -10 -20 -31q-33 -74 -78 -258q34 -22 106 -59q21 -8 89 -12q56 -4 89 -27v-18l-2 -2h-17q-25 24 -78 29q-44 3 -87 6q-28 4 -111 54q-5 -10 -17 -29q32 -9 66 -24q28 -16 84 -38q28 -1 83 -8
q11 -2 57 -18q37 -12 55 -12q13 21 34 66l6 78q5 53 35 53q10 0 19 -11v-194q0 -16 -10 -52q-11 -39 -12 -53v-114q0 -17 -10.5 -51.5t-10.5 -51.5v-47q12 25 62 195q4 6 9 6l3 -2v-22q1 -15 1 -22q0 -61 -37 -168q-4 -11 -32 -64q-22 -41 -22 -64v-191q-7 -29 -19 -82
q-1 -5 4 -11q48 -13 171 -18q20 -1 71 -6q45 -5 71 -5q10 0 26 3q20 4 27 5q13 1 52 1q51 0 139 -6q100 -8 139 -9h271q9 0 27.5 -3t27.5 -3q15 0 41 12q19 10 39 19v227q0 14 -10.5 62.5t-10.5 72.5q0 14 2 41.5t2 41.5q0 20 -10 52t-10 41v183q0 12 -6 37.5t-6 37.5
q0 26 7.5 77.5t7.5 77.5q0 7 -2 22t-2 23q0 12 9 29h8q12 -47 34 -142q42 2 122 16q32 18 104 36l5 -2v-9q0 -11 -21 -19q-16 -6 -31 -11q-31 -16 -55 -23q-33 -2 -96 -11q-2 0 -22 -12v-17q48 -2 141 13q1 1 103 49q68 32 104 33zM1700 1093q0 -35 -19 -105h-26q-4 4 -4 17
q0 27 28 118h17q4 -14 4 -30zM1644 1014q0 -114 -53 -230h-27v17q0 5 14 50.5t16 54.5q8 59 26 177h24v-69zM1925 615q-20 -10 -26 -10q-7 0 -20.5 3t-20.5 3q-12 0 -18 -6v18q23 19 69 19q2 0 16 -7v-20zM1339 1387q0 -5 -48 -62q-12 -7 -33 -20q-7 -9 -25 -23
q-88 -44 -151 -44q-117 0 -308 171v20h27q10 -13 34 -36q163 -121 230 -121q64 0 114 16q13 9 34 23q17 9 46 29q4 7 13 21q6 9 55 49h12v-23zM1527 257q-5 -13 -12 -13l-17 4q-7 11 -10 25q-6 35 -26 185l-12 90q0 96 6 103zM573 827q1 -6 -7 -21h-17q-25 117 -25 129
q0 17 7 28h14zM520 775h-17q-28 73 -57 147q-41 101 -73 128v21h29q10 -10 28 -32q18 -30 52 -108q38 -86 38 -105v-51z" />
  </g>

</svg>
