<?xml version="1.0" standalone="no"?>
<!DOCTYPE svg PUBLIC "-//W3C//DTD SVG 1.1//EN" "http://www.w3.org/Graphics/SVG/1.1/DTD/svg11.dtd" >
<svg viewBox="0 -442 2048 2048">
  <g transform="matrix(1 0 0 -1 0 1606)">
   <path fill="currentColor"
d="M1899 182q0 -76 -119 -76q-129 0 -211 26q-25 2 -75 11q-7 2 -130 52q-15 11 -46 31q-22 7 -64 26q-29 17 -178 85q-61 28 -191 112q-22 21 -67 62q-30 20 -88 62q-80 61 -196 169q-4 9 -16 26q-26 21 -75 63q-31 28 -167 167l-12 5q-34 31 -94 100q-10 20 -35 57
q-53 60 -53 86q0 53 25 53q38 0 74 -19q61 -33 66 -35q44 -17 85 -24q17 -1 51 -8q51 -18 59 -18q24 0 77 -27q78 -39 79 -39q30 28 79 88q2 6 8 18q28 46 66 46q4 0 11.5 -5.5t12.5 -6.5q65 49 95 59t111 10q9 0 68 -5q94 -8 138.5 -24t122.5 -70q10 -4 28 -14
q25 -17 86 -107.5t73 -125.5q3 -21 11 -63q6 -14 14 -43q4 -22 4 -65q0 -14 -7 -41.5t-7 -41.5q0 -5 2 -13.5t2 -13.5q0 -13 -23 -58q40 -45 121 -133q29 -24 84 -76q201 -209 201 -262zM1487 816q0 90 -26 167q-1 2 -31 55q-11 27 -39 76q-13 10 -37 33q-11 18 -35 45
q-72 48 -115 72q-63 35 -258 35q-20 0 -63.5 -13.5t-57 -23.5t-20.5 -26q3 -1 17.5 -1t33.5 -24t23 -24q7 0 19.5 3t19.5 3q8 0 12 -3q4 -9 16 -27q38 -37 104 -121q12 -20 12 -46q0 -14 -3 -40q-1 -5 -4.5 -17.5t-3.5 -19.5q0 -5 5 -12.5t6 -11.5q2 -8 1 -37
q61 -29 185 -82q17 -3 52 -11q150 -44 165 -44q22 0 22 95zM1481 692l-14 8q-22 -51 -44 -101q-27 -58 -57 -95l16 -7q52 73 99 195zM684 1133q-4 16 -4 36q-26 -26 -44 -51q27 11 48 15zM1175 765q-59 34 -64 34q-4 0 -3.5 -1.5t-3.5 -1.5t-26 12q2 -10 2 -14
q0 -25 -28 -52q-23 9 -71 24q12 -48 12 -74q0 -18 -27 -40q3 -1 54 -34q36 -23 55 -23q5 0 11 2q42 102 89 168zM1035 895q0 5 -7 12t-7 13t3.5 17.5t3.5 17.5q0 3 -6 11.5t-6 16.5q0 5 1 14.5t1 14.5q0 27 -45 68q-62 59 -64 61q-4 8 -14 22q-46 -12 -41 -12q-1 0 -32 35
q-34 4 -43 11q0 1 -26 35q-24 -6 -29 -25q-1 -5 -1 -41q0 -45 -50 -71q-43 -20 -85 -40q-43 -30 -43 -47q0 -4 9.5 -20t10.5 -21q2 -8 2 -39q15 -16 28 -16q5 0 13.5 4.5t13.5 4.5q25 0 46 -39q4 -7 26 -65q16 -40 37 -59q41 -37 74 -37q2 0 6 1.5t6 1.5q6 0 17 -4.5
t17 -4.5q14 0 51 13v9q-1 63 39 80q13 1 39 5q55 17 55 73zM1862 167q-6 35 -16 52.5t-61 72.5q-90 102 -276 297q-15 15 -37 20l-85 -134h-95q-4 0 -38 15q-38 16 -44 18l-108 26q-68 17 -101 42q-6 7 -18 19q-6 5 -41 23t-41 18q-3 0 -8.5 -1.5t-8.5 -1.5q-17 0 -41.5 24
t-29.5 24q-3 0 -7.5 -3t-7.5 -3q-9 0 -22 13.5t-17 15.5q-13 3 -36 14q-11 13 -31 32q-18 5 -51 20q-19 13 -57 76q-11 2 -34.5 32.5t-23.5 41.5q0 2 1 7t1 8q0 13 -13 42t-13 37q0 15 26 45q18 21 37 42q-8 3 -66 36q-30 17 -88 27q-63 10 -88 21q-6 4 -18 10q-24 4 -70 17
q-35 21 -97 42q-6 6 -16 5h-7q6 -22 25 -59q10 -8 29 -25q99 -106 301 -314q53 -46 160 -138q42 -44 100 -95q7 -2 21 -8l27 -24q8 -7 61 -46q17 -18 55 -52q40 -20 118 -63q21 -12 57 -39q4 -6 13 -16q41 -18 103 -45q31 -18 94 -52q59 -23 175 -72q16 -10 49 -25
q22 -3 67 -11q148 -30 207 -30q66 0 85 22zM990 970q-4 -2 -12 -4q0 8 4 12zM902 1001q-8 -14 -20 -43q-1 -17 -8 -51q-12 -35 -52 -35q-12 0 -30 15t-37 15q-3 0 -7.5 -1.5t-7.5 -1.5q-11 0 -24 26q-11 23 -11 36q0 2 7.5 16.5t7.5 26.5q0 5 -2.5 15t-2.5 15v7q6 1 6 7
l16 -15l6 15l9 -21q1 7 1 11q0 9 -5.5 27t-5.5 28q0 8 13 21q47 -53 49 -112q29 45 29 53q0 4 -1.5 10.5t-1.5 10.5q0 13 16 23q20 -12 20 -48q0 -7 -1.5 -22t-1.5 -22v-9h3q7 4 19 16q5 -1 17 -13zM839 924q0 33 -43 33q2 0 -27 -10v-16q37 -29 45 -29q25 0 25 22z" />
  </g>

</svg>
