<?xml version="1.0" standalone="no"?>
<!DOCTYPE svg PUBLIC "-//W3C//DTD SVG 1.1//EN" "http://www.w3.org/Graphics/SVG/1.1/DTD/svg11.dtd" >
<svg viewBox="0 -442 2048 2048">
  <g transform="matrix(1 0 0 -1 0 1606)">
   <path fill="currentColor"
d="M1970 -204q0 -82 -65 -135q-16 -6 -44 -18q-9 -5 -10 -5h-1650q-21 0 -56 22q-63 39 -63 130v292q0 34 15 127t26 126q52 155 52 138v97q0 8 16.5 47t21.5 44q21 22 49 22q16 0 24.5 -9t15.5 -9q-15 0 40 11q94 19 279 19q13 140 17 251q3 91 6 121q6 68 23 119
q43 132 131 228q105 114 228 114q58 0 125 -36q19 -9 53 -30q198 -160 206 -473q6 -97 19 -291q3 -3 111 -3q14 0 152 -16q8 -1 28 -7.5t30 -6.5q5 0 14.5 9t23.5 9q49 0 73 -59q16 -39 16 -152q0 -4 22 -60q23 -62 26 -71q45 -157 45 -265v-280zM1850 525q0 27 -15 69
q-18 49 -39 49q-10 0 -16 -15q-29 3 -85 13q-78 18 -133 18q-9 0 -26 3t-26 3q-10 0 -29.5 -3.5t-29.5 -3.5q-9 0 -16 6v-39q0 -94 32 -131q14 -5 39 -21q9 -8 18 -51h11q98 14 126 19q131 24 163 40q26 13 26 44zM1306 904q0 250 -85 369l-84 120q-47 50 -130 50
q-32 0 -54 -21q-120 -111 -149 -214q-14 -28 -35 -87q-23 -97 -23 -145v-226q0 -4 10 -64h91l9 18q77 14 127 14q141 0 210 -14q7 -6 12 -18h91q10 83 10 218zM1432 493v20q0 3 -8.5 21t-9.5 25q-2 15 -12 133q-10 114 -21 266q-2 37 -9 111q-6 25 -19 74q-9 39 -33 114
q-16 24 -48 74q-88 146 -204 158q-6 1 -20.5 5t-21.5 4q-39 0 -91 -17q-74 -24 -153 -144q-59 -90 -86 -203q-7 -21 -17 -62q-11 -87 -35 -430q-1 -32 -10 -92q-2 -6 -11 -26q-4 -11 -3 -31h86q13 33 13 31v490q0 -5 9 55q12 81 29 122q8 29 30 83q55 96 109 146t130 50
q63 0 110 -37q30 -24 76 -88q66 -93 90 -174q15 -52 23 -111t8 -53v-485q0 -4 13 -29h86zM1506 366q0 14 -2 37q-3 30 -3 38q-14 14 -54 14h-15q4 -13 26 -17.5t25.5 -18t3.5 -38.5q0 -16 -2.5 -46t-2.5 -45q6 4 16 13q8 59 8 63zM1413 427h-18v-33h11q1 1 7 33zM1305 490
v43q0 32 -13 87q-1 4 -18 38q-34 -6 -56 -6q-6 0 -9 6l-9 -142l1 -127q3 -4 13 -4q4 0 14.5 1.5t15.5 1.5l12 68q10 39 49 34zM1373 455q-8 0 -23.5 2t-23.5 2q-20 0 -39 -20v-139q8 -6 24 -16q4 6 9 16q2 44 8 132q22 1 45 23zM1484 90v17q0 9 -16 45t-16 58q0 16 -2 48.5
t-2 48.5q0 3 2.5 9t2.5 9v80q-5 4 -11 4q-8 -58 -21 -58q-26 0 -46 7q-12 4 -12 44v4q-20 -44 -20 -152q0 -34 12 -98q15 -78 32 -78q18 0 48 5q39 6 49 7zM1170 586v87q-65 13 -181 13q-33 0 -110 -13v-68q0 -9 4.5 -26.5t4.5 -26.5v-391q29 -16 103 -16h71q77 0 102 16
v398q0 5 3 13.5t3 13.5zM851 389v119q0 39 -7 144q-22 1 -66 6q-20 -30 -26 -82l-8 -86q7 2 13 2q29 0 39 -41q5 -31 9 -63q5 0 16 -1.5t16 -1.5q10 0 14 4zM765 303v136q-20 20 -30 20h-10q-8 0 -23 -2t-23 -2q1 -5 3 -14q15 -2 43 -9q0 -44 7 -132q2 -12 13 -17zM1936 -99
q0 341 -84 536q-20 -3 -170 -41q-128 -32 -154 -27q-7 -62 -8 -67q-9 -37 -36 -56q0 -30 18.5 -87t18.5 -71q0 -8 -1 -14q-26 -40 -34 -46q-12 -7 -58 -7q-64 0 -94 19q-29 153 -26 209q-30 -1 -67 24q4 15 12 62q-7 -1 -45 -4q-4 -1 -6 4v-166q0 -14 -25 -70
q-69 -15 -153 -15q-102 0 -149 15q-25 60 -25 66v170l-4 -3h-10q-18 0 -37 3q6 -40 8 -62q-25 -19 -67 -24q0 -117 -24 -211q-27 -17 -94 -17q-91 0 -91 60q0 28 19 81t19 77q0 4 -1 7q-34 26 -37.5 58t-6.5 65q7 0 -30 0q-41 0 -144 28q-131 36 -150 40q-84 -218 -84 -520
q0 -125 38 -201q102 -23 90 -23h1564q15 0 92 25q36 96 36 183zM657 394v33h-18q1 -13 6 -33h12zM620 455h-19q-55 0 -55 -50q0 -84 7 -102q4 -10 18 -11q-6 81 -6 119q0 14 22 25q28 12 33 19zM617 633v31q-7 -6 -21 -6q-9 0 -27 3.5t-27 3.5t-26.5 -3t-25.5 -3
q-22 -1 -218 -31q-7 15 -16 15q-22 0 -39 -49q-15 -41 -15 -69q0 -8 9.5 -24.5t16.5 -19.5q24 -5 71 -17q103 -17 225 -45q4 16 14 47q4 12 19 17.5t28 10.5q32 66 32 139zM709 262q0 36 -18 144q-1 -13 -2 -28t-12 -20q-7 0 -22.5 -3.5t-23.5 -3.5q-9 0 -15 24
q-7 28 -13 34l-4 -87q0 -10 2 -29.5t2 -28.5q0 -50 -5 -77q-3 -14 -19 -48q-14 -30 -14 -49q12 -1 50 -7q32 -5 50 -5q17 0 32 82q12 67 12 102zM1094 186q-27 -25 -53 -25h-35q-25 0 -47 25q-2 13 -2 24q0 67 76 67q32 0 53 -25q7 -9 8 -32v-34zM1060 216q0 28 -34 28
q-37 0 -37 -28q0 -25 37 -25q34 0 34 25z" />
  </g>

</svg>
