<?xml version="1.0" standalone="no"?>
<!DOCTYPE svg PUBLIC "-//W3C//DTD SVG 1.1//EN" "http://www.w3.org/Graphics/SVG/1.1/DTD/svg11.dtd" >
<svg viewBox="0 -442 2048 2048">
  <g transform="matrix(1 0 0 -1 0 1606)">
   <path fill="currentColor"
d="M1966 81q0 -30 -38 -57q-91 -65 -244 -122q-13 -5 -195 -16q-171 -10 -202 -10q-55 0 -112 7q-10 4 -30 10q-20 -1 -62 2q-14 7 -43 17q-35 5 -101 23q-6 7 -21 17q-18 6 -52 18q-131 50 -236 125q-57 45 -113 91q-72 57 -119 78q-70 16 -209 75q-39 24 -81 86
q-7 6 -16 19q-10 28 -10 113q0 39 15 98q21 85 23 98q5 55 20 165q5 16 16 47q17 49 50 146q9 33 38 86q25 23 69 23q50 0 124 -46t87 -46t36 6q27 7 37 8q65 7 86 7q11 0 33.5 -4.5t33.5 -4.5q3 0 13 6.5t14 7.5t31 1q18 0 30 4q109 36 157 36q17 0 76.5 -11t74.5 -17
q1 -6 1 -14q0 -20 -4 -34q-5 0 -14.5 -1.5t-14.5 -1.5q-11 0 -35 7.5t-35 7.5q-8 0 -26.5 -2t-28.5 -1l-2 -2v-9q53 -31 91 -47q12 -3 34 -11q25 -14 20 -39q33 -12 33 -42q0 -4 -8 -19t-8 -19q0 -2 8.5 -11.5t9.5 -12.5q5 -23 20 -65q5 -11 21 -11q4 0 12.5 1.5t13.5 1.5
q12 0 44 -43q9 -12 48 -37q2 -19 19 -48q30 -19 46 -19q5 0 14 3t14 3q21 0 26 -6q6 -11 11 -22q13 -6 26 -12.5t13 -28.5q0 -18 -5 -30q24 -25 60 -56q59 0 244 -131q18 -12 35 -37q24 -35 29 -40q2 -14 19 -26q24 -16 27 -19q62 -68 62 -213zM1122 1144q-21 11 -18 11h-19
q12 -3 37 -11zM1103 1016q-2 4 -70 38q18 -18 36 -23q23 -6 34 -15zM1033 1058l-12 3v-4l11 -4zM1015 1159q-8 12 -14 12q-40 0 -151 -38q3 -7 13 -17q67 35 152 43zM1131 976q0 6 -17 23q3 -33 -53 -35q34 -17 43 -17q27 0 27 29zM956 1104q-2 4 -4 13q-6 -1 -14 -4
q12 -9 18 -9zM1507 551q-3 8 -24.5 26t-28.5 18q-4 0 -6.5 -1.5t-3.5 -1.5v-11q42 -35 53 -35q6 0 10 5zM1351 672q-12 18 -43 49h-14l-4 -8q41 -41 45 -41h16zM1183 833l-19 28h-11q0 -1 -2 -2t-2 -5q0 -5 12.5 -16.5t18.5 -12.5q0 3 3 8zM1137 887q-5 10 -7 19
q-21 5 -23 5q-10 0 -31 -27q6 0 18.5 -3.5t18.5 -3.5q4 0 24 10zM1281 752l-20 21q-38 0 -64 -43q26 16 84 22zM993 1028q-12 24 -28 34q-40 25 -66 25h-34q34 -11 68 -23q37 -15 56 -43zM969 992l-30 29v-18q0 -17 13 -25q10 0 17 14zM1058 918q0 -3 -14 23q-9 -21 -26 -64
h11q29 28 29 41zM1036 993q0 14 -20 15q-53 -68 -62 -128h22q12 0 60 113zM1287 664q-64 32 -54 32h-13q2 -5 19.5 -22t21.5 -17q13 0 26 7zM1452 641q-2 -1 -4 -1l-31 32q-13 -7 -40 -18q-10 0 -28 -2q-5 -4 -18 -10q-52 -8 -92 -35q-50 -33 -50 -79q0 -11 4 -15h11
q18 22 61 60q29 18 85 30q74 16 89 21q12 4 13 17zM831 1100q0 7 -19 24h-11q3 -17 7 -50q9 -11 15 -10h1q7 11 7 36zM1468 542q-12 3 -40 22q-23 16 -38 16q-9 0 -57 -16v-13q0 -5 4 -15t4 -17q0 -44 -23 -79q33 23 100 69q18 10 50 33zM901 994q-7 27 -18 27q-6 0 -17 -2
t-16 -2q4 -8 12 -23h39zM1244 795q-16 21 -26 21q-25 0 -47 -17q-38 -29 -59 -78q-33 -76 -39 -85q8 -6 24 -13q27 52 54 105q37 56 93 67zM1828 280v20q0 19 -10 40q-13 28 -45 51q-29 18 -58 37q-31 24 -95 68q-46 26 -80 26q-30 0 -56 -14q-155 -83 -230 -210
q-2 -3 -23 -62q-7 -17 -17 -50q3 1 5 1q8 0 25 -8.5t31 -8.5q6 0 142 3q7 0 21.5 4.5t21.5 4.5q5 0 14 -1.5t14 -1.5q33 0 76 7q6 4 19 10q30 4 88 15q6 4 16 10q13 1 37 5q6 11 46 25q53 30 58 29zM1226 637q-13 7 -64 50q10 -15 26 -45q2 -9 8 -28q11 7 30 23zM1110 822
q-19 15 -21 15h-91q-10 0 -29 6t-29 6q-9 0 -28 -25l-26 -34q8 -16 17 -23l40 40q20 15 55 15q11 0 34.5 -4.5t34.5 -4.5q19 0 43 9zM941 942q-26 27 -27 27q-48 0 -79 -20q-50 -32 -50 -48q0 -21 20 -21q6 0 50 32t86 30zM1097 737q-22 11 -36 11q-23 0 -70 -51
q57 28 106 40zM776 1059q-1 8 -4 8q-10 -14 -41 -32q-22 -13 -31 -44q1 0 5 -2t9 -2q62 62 62 72zM1229 483q-2 5 -4 14q-6 -6 -18 -6h-7q-19 0 -34 43l-4 -20q18 -35 38 -35q5 0 14.5 2t14.5 2zM1106 598q-10 0 -22 -6q-10 10 -16 22q0 -9 -10 -9q-7 0 -15 4q2 -8 6 -19
q22 -7 35 -7q12 0 22 15zM736 961q-3 2 -8 2q-7 0 -19.5 -5t-18.5 -5q-4 0 -10 8t-7 8q-1 -1 -1 -2q0 -23 23 -23q18 0 41 17zM990 651v11q-12 1 -22.5 3t-12.5 25q-4 -7 -4 -15q0 -5 12 -14.5t17 -9.5h10zM781 856q-30 15 -24 51q-15 -15 -15 -29q0 -11 12 -21.5t23 -10.5
q5 6 4 10zM867 742q0 6 -4 17.5t-4 17.5q0 5 2.5 13.5t2.5 12.5q-11 -22 -11 -21q0 -19 8 -36zM773 1098v11q-85 13 -118 13q-39 0 -173 -39q132 33 155 33q9 0 11 -3v-14q-40 -30 -81 -60q-48 -34 -91 -34q-12 0 -17 6l-5 19q-8 -3 -15 -3q-5 0 -9 2v17l9 10l-11 -2
q-10 -28 -10 -27q0 -8 32 -42.5t39 -34.5q28 0 185 81q46 24 99 67zM577 953q-17 -9 -58 -23l30 -4q23 17 28 27zM1930 98q0 53 -32 124q-23 -17 -80 -48q-65 -35 -83 -36q-69 -37 -95 -41q-120 -19 -269 -19q-15 0 -45 3t-45 3q-12 0 -37.5 -3t-37.5 -3q-93 0 -186 28
q-56 22 -169 67q-10 -5 -13 -13q-22 -53 -22 -82q0 -7 1.5 -21t1.5 -21q23 -7 62 -26q5 -6 15 -16q13 -3 37 -9q20 -9 62 -25q146 -44 289 -44q5 0 16 1.5t16 1.5q9 0 27.5 -4.5t27.5 -4.5q101 0 181 16q4 1 17.5 6t17.5 5q7 0 20 -6t20 -6q-5 0 26 8q66 17 206 91
q19 15 57 37q14 34 14 37zM1309 520q0 18 -4 26h-17q-4 -3 -12 -10v-24q1 -17 1 -23q0 -8 -17 -57q-15 -42 -28 -42q-15 0 -15 19q0 5 9 22t9 22q-1 8 -4 8q-24 -16 -31 -16q-63 0 -63 76q0 28 37 53v5q1 36 -27 71q1 -97 -80 -97q-49 0 -59 73q-53 -6 -45 -6q-16 0 -28 22
t-12 39q0 29 37 52q31 17 61 35q-9 17 -29 17q-16 0 -59 -32q-1 -17 -15 -41h-17q-76 -1 -76 55q0 46 27 60q10 0 25 5q37 30 37 43q0 6 -20 26q-32 -13 -43 -28q-1 -9 -5 -28q-13 -29 -55 -29q-67 0 -67 51q0 44 24 58q11 2 28 8q18 12 52 46q-16 13 -21.5 27.5t-10.5 29.5
q-20 -20 -31 -28q1 -13 -2 -37q-14 -45 -78 -45q-8 0 -39 30q-24 -20 -74 -54q-14 -1 -40 -8q-18 -7 -38.5 -45.5t-30.5 -38.5q-25 0 -42 14q-1 3 -1 6q0 16 23.5 46.5t26.5 42.5q-1 1 -17 18q-10 13 -18 13q-3 0 -7.5 -1.5t-7.5 -1.5q-13 0 -21 7q-65 54 -83 81
q-25 49 -51 99l31 31q44 -19 129 -57q8 -4 16 -14q9 6 23 17q-143 81 -164 81q-30 0 -43 -25q-30 -57 -69 -201q-39 -148 -39 -208q0 -71 46 -103q8 -4 22 -12q9 -8 25 -19q32 -9 94 -30q60 -26 98 -58q27 -23 79 -49q65 -31 83 -43q18 -16 56 -41q73 -35 80 -40
q42 -23 70 -57q65 -6 128 -42q4 -4 12 -11h14q10 0 56.5 -20t54.5 -20q5 0 16 1.5t16 1.5q11 0 83 -9q27 89 79 160q-5 23 -5 24q0 2 26.5 52.5t26.5 76.5zM1878 257q-5 11 -15 14q-19 -29 -44 -40.5t-51 -22.5q-77 -37 -122 -46q-45 -2 -134 -12q-21 -7 -64 -16
q-109 -7 -136 -7q-3 0 -63 15q-51 12 -153 33q-43 2 -125 14q-10 7 -31 20q-30 14 -64 24q-15 2 -43 11q-46 23 -142 88l-5 11q-30 25 -98 64q-48 18 -180 101q-107 67 -184 95q-9 0 -27 5q-18 9 -42 33q13 -18 40 -45q48 -32 111 -61q23 -7 64 -26q9 -11 30 -29q6 -1 18 -5
t67 -44.5t59 -40.5t3.5 1.5t3.5 1.5q17 0 58.5 -36.5t57.5 -34.5q22 -9 48 -31q34 -31 44 -37.5t58 -31t54 -24.5q4 0 7.5 1.5t6.5 1.5q4 0 79 -26q79 -28 95 -32q53 -6 159 -23q72 -14 75 -14q176 0 323 25q71 12 214 91q15 6 41 22q2 5 7 13zM810 181q0 12 -35 17
q-28 14 -79 46q-14 15 -43 38q-5 1 -15 5q-9 10 -28 25q-6 3 -15 2q-21 15 -36 15t-89 53q-40 31 -123 90q-45 20 -132 63q-18 10 -93 85q-7 -38 -7 -60q0 -61 10 -92q17 -52 67 -80q40 -22 145 -61q95 -35 143 -66q97 -73 302 -204q0 35 7 65q1 6 12 32q9 23 9 27zM375 906
q0 -149 -71 -184q-33 -16 -63 -16q-16 0 -54 46q-17 21 -17 94q0 47 26 113q23 59 71 59q44 0 76 -34t32 -78zM339 889q0 34 -8 48q-23 41 -70 41q-15 0 -36.5 -33.5t-22.5 -50.5q-1 -30 -1 -45v-23q0 -27 15 -51q16 -27 41 -27q82 0 82 141z" />
  </g>

</svg>
