<?xml version="1.0" standalone="no"?>
<!DOCTYPE svg PUBLIC "-//W3C//DTD SVG 1.1//EN" "http://www.w3.org/Graphics/SVG/1.1/DTD/svg11.dtd" >
<svg viewBox="0 -442 2048 2048">
  <g transform="matrix(1 0 0 -1 0 1606)">
   <path fill="currentColor"
d="M1968 1133l-119 -632q101 -57 101 -163q0 -149 -228 -212q-171 -47 -356 -47h-682q-48 0 -111 8q-213 27 -293 55q-180 62 -180 196q0 124 101 163l-119 632h37q88 0 170 -43q-18 -86 -18 -103q0 -116 75 -130q31 46 77 129l40 -147q49 37 95 37t100 -37q9 38 31 113
q34 -29 68 -57q48 -38 75 -38q34 0 60 27.5t26 61.5q0 25 -31 74l-46 72q46 13 91 26q56 15 93 15t93 -15q45 -13 91 -26l-46 -72q-31 -51 -31 -74q0 -34 26 -61.5t60 -27.5q26 0 74 38q35 28 69 57l31 -113q67 37 97 37q56 0 95 -37q14 48 43 145q39 -66 77 -127
q75 14 75 130q0 21 -7 52q-10 41 -11 51q89 43 207 43zM1889 1081h-29q-10 0 -17 -7q0 -95 -8 -130q-15 -61 -68 -110q-31 -29 -63 -29q-27 0 -59 41q-31 -115 -31 -169q57 36 77 36q75 0 75 -119q0 -78 -32 -126h-183q-56 82 -54 203q64 28 64 80q0 75 -70 75
q-33 0 -55 -22.5t-22 -55.5q0 -53 46 -74q-10 -44 -21 -87.5t-45 -79.5q-36 -39 -40 -39h-271q-21 52 -21 81q0 65 47 114.5t112 49.5q29 0 106 -36q7 32 7 82q0 25 -7 89q-41 -43 -106 -43t-112 49.5t-47 114.5q0 40 33 105q-25 7 -70 7q-49 0 -70 -7q33 -63 33 -105
q0 -65 -47 -114.5t-112 -49.5q-61 0 -106 43q-7 -64 -7 -87q0 -53 7 -84q70 36 106 36q65 0 112 -49.5t47 -114.5q0 -32 -21 -81h-271q-16 0 -57 58q-21 30 -32 72q-8 38 -17 76q46 14 46 74q0 78 -77 78q-70 0 -70 -75q0 -48 64 -80v-4q1 -124 -54 -199h-183
q-32 53 -32 124q0 121 75 121q19 0 77 -36v20q0 27 -31 151q-27 -43 -59 -43q-20 0 -51 19q-40 24 -67 87q-24 56 -24 109q0 10 1 29t1 28q-35 1 -23 1q-10 0 -22 -1l46 -241q64 -17 64 -101q0 -17 -9 -34q-11 -21 -27 -16q39 -210 39 -212q0 -3 -2 -4q-102 -20 -102 -110
q0 -143 342 -175q137 -13 150 -13h726q10 0 27 2q22 3 28 3q301 20 390 94q47 39 47 89q0 88 -105 111l40 215q-3 -1 -5 -1q-31 0 -31 51q0 32 17 62q18 34 47 39zM1518 750q0 -34 -30 -34q-34 0 -34 34t32 34t32 -34zM1099 758q0 -30 -22 -51t-52 -21q-29 0 -51.5 21.5
t-22.5 50.5q0 31 22 54.5t52 23.5q31 0 52.5 -23.5t21.5 -54.5zM596 750q0 -34 -34 -34q-30 0 -30 34t32 34t32 -34z" />
  </g>

</svg>
