<?xml version="1.0" standalone="no"?>
<!DOCTYPE svg PUBLIC "-//W3C//DTD SVG 1.1//EN" "http://www.w3.org/Graphics/SVG/1.1/DTD/svg11.dtd" >
<svg viewBox="0 -442 2048 2048">
  <g transform="matrix(1 0 0 -1 0 1606)">
   <path fill="currentColor"
d="M1998 362q0 -49 -13 -84q-15 -40 -15 -32q0 -10 8 -29t8 -29q0 -7 -11 -38q-12 -36 -13 -43q-1 -18 -8 -53q-16 -41 -59 -91q-6 -6 -59 -39q-34 -22 -34 -57h-12v3l-2 5q-11 -9 -37 -24q-45 -16 -95 -16q-29 0 -36 8q-11 13 -19 16q-38 4 -99 11q-25 4 -156 37
q-272 68 -883 243q-75 23 -225 64q-17 2 -50 8q-106 30 -106 68q0 8 3 24t3 24v569q0 54 13 112q4 10 10 31q1 14 6 41q24 75 96 115q38 21 98 23q5 0 14 -1t13 -1q12 0 67 37q62 43 73 48q45 20 120 20q61 0 164 -17q18 -7 53 -20q15 -5 165 -33q15 -3 134 -34
q82 -21 135 -21q75 0 276 -50q165 -41 278 -79q25 -6 70 -24q5 -5 16 -14l40 -30q21 -18 28 -40q29 -90 29 -287q0 -3 3 -6t3 -6v-231q0 -13 3 -39t3 -39zM1762 888q-8 17 -17 17q-6 0 -20 -14q3 -3 7 -10q10 2 30 7zM1718 938q-21 11 -20 11q-6 0 -23 -17l13 -14
q15 5 30 20zM1799 832q-7 9 -19 27q-6 -3 -18 -7q0 -27 19 -27q4 0 18 7zM1662 972q-4 8 -13 17q-8 -4 -24 -13q18 -18 20 -18q10 0 17 14zM1616 1020q-4 0 -11 7h-19l-8 -8q7 -8 24 -20q7 14 14 21zM1836 772q-2 6 -13 28q-9 -2 -27 -8q3 -8 10 -23q15 3 30 3zM1553 1047
l-23 11l-8 -8q9 -3 19 -3h12zM1945 535v278q0 82 -32 123q-28 36 -83 86q-26 14 -82 27t-80 25q-7 5 -22 14q-42 9 -123 26q1 -7 7 -12q20 -4 79.5 -32t75.5 -41q23 -30 74 -86q12 -7 33 -24q30 -34 83 -137q7 -2 10 -6q16 -21 60 -241zM1862 711q-5 9 -10 26
q-16 -6 -28 -17q5 -9 14 -26q8 5 24 17zM1488 1076q-6 0 -20 7q-5 -5 -11 -15h24zM1880 641q-1 8 -3 25q-10 -2 -31 -7l11 -34q12 12 23 16zM1429 1107q-2 0 -7 3.5t-9 3.5q-6 0 -24 -27q3 0 7.5 -2t7.5 -2q9 0 25 24zM1896 561q-4 40 -4 49q-24 -24 -24 -28q0 -7 7 -28
q9 0 21 7zM1360 1132h-2q-7 0 -38 -23q3 -4 11 -4q11 0 29 27zM1308 1150q-32 11 -27 11q-2 0 -32 -30q16 -8 24 -8q9 0 35 27zM1911 495v27h-14q-23 -14 -23 -18q0 -15 14 -22q8 4 23 13zM1227 1169q-21 7 -28 7l-38 -29q21 -14 30 -14q17 0 36 36zM1917 399v55
q-11 -6 -33 -16v-46q13 0 33 7zM1956 382h-5l-4 -42h6zM1146 1188q-8 0 -23.5 3.5t-23.5 3.5q6 0 -47 -23q53 -18 56 -18q5 0 38 34zM1914 348q-13 -6 -40 -19v-17h37q0 27 3 36zM1043 1206q-32 8 -40 8q-13 0 -31 -21q15 -7 32 -7q14 0 39 20zM950 1229h-17q-2 0 -20 -18
q4 0 12 -1.5t12 -1.5q5 7 13 21zM1905 259v11h-11q-19 0 -19 -25v-5q11 5 30 19zM897 1244h-32q-7 0 -27 -20q24 -6 36 -10q13 19 23 30zM1896 198l-28 4v-25q10 6 28 21zM813 1253q-3 0 -8 2t-8 2q2 0 -22 -14q3 -2 7 -7h21q3 6 10 17zM739 1261l-2 2q-7 0 -14 -8h11
q5 0 5 6zM635 1276h-7q-17 -13 -13 -13l13 -3q7 7 7 16zM1844 392q0 125 -40 265q-4 16 -15 48l-11 7q0 14 -2.5 22.5t-42.5 71.5t-49 70q-56 54 -172 143q-3 2 -31 2q-7 0 -28 9.5t-28 10.5q-10 1 -31 5q-12 6 -38 17q-18 5 -78 19q-37 3 -109 17q-7 4 -21 11
q-34 13 -106.5 26t-105.5 25q-9 6 -28 14q-18 0 -53 5q-200 49 -271 49q-98 0 -153 -23q-7 -5 -22 -13q-32 -2 -90 -9q-90 -14 -144 -79q48 12 68 12q5 0 15 -4.5t15 -4.5q10 0 29 1h29q45 0 59 -8q8 -10 26 -24q25 -1 71 -8q12 -6 38 -16q13 -1 40 -5q196 -53 591 -151
q14 -1 41 -5q8 -4 25 -11q30 -4 88 -13q44 -9 133 -27q33 -1 96 -14q32 -12 69.5 -46t49.5 -64q5 -12 5 -44q0 -9 6.5 -29t6.5 -43q0 -73 -8.5 -218.5t-8.5 -218.5q0 -27 1 -52h60q5 0 26.5 11t26.5 13q19 3 50 21q14 131 14 118v79q0 3 3.5 16t3.5 22zM1920 168
q-62 -44 -163 -80q-3 -1 -31 -1q6 0 -57 -13v-122q0 -11 28 -26v-18q-11 -8 -21 -8q-14 0 -48 40q0 13 1 45v44q0 68 -6 76q-2 30 -1 36v13q1 51 11 178q9 113 9 179q0 33 -1 64q-21 12 -23 21q1 -3 1 31q0 41 -17 81q-6 13 -38 42t-46 33q-19 1 -56 8q-18 8 -56 20
q-66 6 -196 30q-8 4 -25 10q-69 15 -207 48q-95 26 -285 71q-10 0 -28 2q-7 4 -21 10q-7 0 -22 2q-21 8 -62 23q-24 4 -69 17q-7 4 -22 11q-22 0 -65 8q-10 10 -34 23q-16 5 -75 5q-84 0 -100 -2q-27 -3 -52 -87q-21 -71 -21 -146l3 -533q33 -9 101 -27q337 -98 1014 -285
q29 -8 97 -17l6 -10q53 -10 128 -31q5 -4 15 -10q14 0 38 -2q86 -11 127 -28q34 -14 29 -14q12 0 47.5 31.5t49.5 35.5l19 2q124 113 124 220z" />
  </g>

</svg>
