<?xml version="1.0" standalone="no"?>
<!DOCTYPE svg PUBLIC "-//W3C//DTD SVG 1.1//EN" "http://www.w3.org/Graphics/SVG/1.1/DTD/svg11.dtd" >
<svg viewBox="0 -442 2048 2048">
  <g transform="matrix(1 0 0 -1 0 1606)">
   <path fill="currentColor"
d="M1914 151q0 -45 -28 -62q-104 -62 -237 -75q-4 0 -13.5 -2.5t-14.5 -2.5h-241q-4 0 -13 3.5t-12 4.5q-51 5 -154 21q-2 1 -156 20q-100 12 -148 40q-83 48 -312 222q-53 40 -55 40q-3 0 -42 -28.5t-44 -28.5q-9 0 -116 38q-123 43 -133 46q-56 17 -56 37q0 3 1 11t1 12
t-4.5 15t-5.5 15q-2 34 -11 100q-4 7 -10 21q-28 101 -28 159q0 54 20 165q21 121 42 158q8 14 39 25.5t50 11.5q25 0 54 -16q14 -16 48 -40q42 -17 243.5 -69.5t222.5 -52.5q3 0 25 9t33 9q6 0 19.5 -4.5t19.5 -4.5q5 0 13.5 6t13.5 6l55 -52q18 10 24 10q20 0 20 -23
q0 -14 -6 -24q7 -8 15 -8q5 0 16 6t16 6q7 0 22 -7v-17q0 -12 -9 -17q11 -10 32 -32q18 10 24 10q20 0 18 -44q19 -15 41 -21q56 -60 75 -55q9 -7 11 -27q34 -23 67 -45q50 -37 48 -55q22 -23 68 -65q8 -6 66 -23q11 -7 34 -19l160 -68q87 -44 138 -103q13 -12 32 -40
q22 -57 22 -96zM1838 261v11q-19 23 -61 63q-52 39 -252 117q-23 9 -41 8q93 -40 186 -81q100 -47 168 -118zM1335 594q-17 11 -71 57q-6 -5 -13 -17q18 -15 84 -40zM1444 485q-17 19 -33 38q-22 23 -40 23t-53 29v-10q0 -9 9 -25q6 -12 54 -33q44 -18 63 -22zM1224 683
q-17 26 -29 26q-9 0 -17 -17q23 -23 30 -23q9 0 16 14zM1154 734l-26 26q-3 -2 -10 -8q9 -9 28 -25zM1087 788v11l-32 22q-5 -4 -10 -12q31 -21 32 -21h10zM954 894q-12 16 -35 39q0 -4 1 -13.5t1 -13.5q10 -6 33 -12zM1117 767q2 5 -7 5q-12 0 -30.5 -20.5t-19.5 -33.5
q16 21 24 30q16 16 33 19zM990 884h-11q-19 -11 -40 -39q16 14 51 39zM1157 702q-13 -12 -39 -37q3 -3 8 -5zM896 906v11q-15 16 -26 16q-28 0 -70 -36h15q6 0 18 3t17 4q21 2 46 2zM1881 170q0 7 -3 20.5t-3 18.5q-7 -22 -13 -45q-9 -27 -27 -36.5t-74.5 -23t-78.5 -13.5
h-420q-7 0 -82 9q-66 7 -197 28q-20 14 -63 37q-12 1 -36 8q-29 13 -76 49q-11 12 -36 31q-24 10 -70 35q-16 16 -51 47q-57 43 -57 60q0 4 17 42q2 13 12 32q30 25 71 25q12 0 12 -18q8 1 18 1q123 0 209 -72q9 -12 28 -29q30 -11 88 -35q7 -5 21 -13q11 -1 33 -5
q7 -5 22 -13q5 -1 57 -1q-1 0 28 -8q28 -2 57.5 -6t26.5 -40h10q14 0 42.5 9t42.5 9q31 0 38 -30l3 -10q34 12 31 12q28 0 52.5 -16.5t40.5 -16.5q27 0 48 23q-6 20 -23 52q-18 7 -50 25q-4 11 -15 26q-7 5 -60 13q-41 6 -47 38l-66 36q-44 27 -42 53h-5q-14 -1 -20 14
q-8 2 -21 13h-17q-3 -25 -40 -34q10 -4 10 -14q0 -3 -3 -18q-16 0 -20 -1q-49 -53 -83 -63v-4q0 -10 -3 -17q-4 0 -12.5 -3t-12.5 -3q-5 0 -7 1q-26 32 -93 65q-95 48 -103 53q-10 9 -28 22q-53 20 -111 20q-62 0 -114 -29q-13 -7 -45 -40.5t-32 -44.5v-10q102 -63 176 -122
q17 -16 52 -44q18 -8 52 -26q39 -24 78 -49q47 -28 83 -34q74 -9 221 -35q60 -7 181 -22q29 -4 32 -4q204 0 299 12q8 1 76 32q30 12 60 25q32 17 32 52zM1190 535q0 13 -7 34l-11 -10l12 -6v-15l-2 -2h-44q-14 14 -14 21q0 -3 2 10h8l7 -7q0 31 11 46.5l11 15.5
q0 15 -23 26l-22 -23q10 -9 10 -17q0 -11 -19 -11q-16 0 -46 17v14l2 2q7 0 22 -9q-5 9 -5 17q0 14 18 31.5t18 25.5q0 4 -26 38q-11 -15 -21 -30q-14 -19 -28 -19q-1 0 -20 9q-1 4 -1 8q0 26 41 67l-32 31q-11 -16 -21 -32q-13 -19 -32 -17q14 1 34 -9q-14 -14 -23 -14
q-40 16 -41 38l2 1q5 -1 16 -3q2 16 10 46q5 6 14 20q-6 5 -12 16q-17 -19 -60 -41h4q10 1 23 -4v-16l-26 -3q-28 10 -28 41q0 10 2 14l9 -3q0 6 25 32q-23 17 -34 16h-9q-32 -1 -119 -28q-93 -28 -121 -32h-85q-10 0 -30 -1t-29 -1q-20 0 -25 2q-79 31 -170 93
q-120 82 -120 137q0 33 42 33q14 0 30 -11q23 -16 29 -18q166 -70 300 -109q35 -4 103 -17q82 -24 83 -24q7 0 11 12q-159 43 -189 43q1 0 -259 88q-29 17 -94 40q-3 0 -8.5 2.5t-9.5 2.5q-30 0 -49 -22q-22 -26 -46 -151q-22 -113 -22 -164q0 -66 20 -113q4 -24 15 -58
q10 -17 34 -24q21 -5 41 -11q67 -29 164 -76q29 -21 108 -54q13 -17 26 -20q31 52 35 56q11 14 54 43h-11q-21 -8 -61 -28q-3 -10 -15 -28q-3 -1 -10 -1q-3 0 -14.5 4.5t-25.5 5.5h-6q-13 19 -43 46q-48 23 -182 73q-35 13 -60 33q-6 3 -14 10q-14 23 -21 39q-26 62 -26 79
q0 6 1 16v15q0 29 14 92q1 28 8 82q8 18 20 55q1 17 7 51q2 2 4 2h3q2 -10 9 -27q13 -12 37 -39q13 -22 41 -54q23 -17 115 -71q97 -58 116 -63q37 -10 87 -10q85 0 129 16q8 3 29 21t23 18q3 0 3 -3h3q5 0 14.5 3.5t14.5 3.5q19 23 47 23q8 0 12 -5v-23q-6 -2 -18 -4h5
q5 0 7 -3v-20q-16 -4 -33 -3v-13q0 -19 11.5 -41.5t10.5 -43.5l7 -3q2 -8 5 -24q17 -8 25 -19q-2 -9 -2 -19q0 -6 1 -11q16 -10 41 -31q5 -12 17 -33q13 -3 38 -12v-20l-9 -6q21 -5 33 -17q15 -16 22 -20v-24q-10 -5 -14 -5q-5 0 -14 6q-12 7 -16 8q-23 5 -75 40
q-44 29 -86 29q-135 0 -187 -39q72 23 112 23q14 0 39 -4q10 -4 30 -10q15 1 42 -2q37 -24 112 -68q67 -35 119 -61l37 23q25 16 52 58t27 69zM442 331q-6 8 -6 19q0 10 3 30.5t3 30.5q-12 7 -29 13q-2 -22 -8 -67q-9 -6 -23 -20q7 0 60 -6zM188 426q0 19 -21 37v2
q0 15 15 30q-7 8 -10 35q-1 12 -26 24q4 -56 16 -129q7 -6 22 -13q4 4 4 14zM1081 667q-15 -10 -28 -10q-47 0 -47 35q0 5 3 5q5 0 12 -9.5t22 -9.5q10 0 23 3l15 -3v-11z" />
  </g>

</svg>
