<?xml version="1.0" standalone="no"?>
<!DOCTYPE svg PUBLIC "-//W3C//DTD SVG 1.1//EN" "http://www.w3.org/Graphics/SVG/1.1/DTD/svg11.dtd" >
<svg viewBox="0 -442 2048 2048">
  <g transform="matrix(1 0 0 -1 0 1606)">
   <path fill="currentColor"
d="M1750 793q-140 -91 -233 -111q-37 -2 -109 -8q-4 -9 -13 -27q-13 -10 -32 -36q-7 -19 -7 -75q0 -104 51 -275q12 -25 34 -74q7 -18 25 -65q5 -12 54 -125q47 -106 47 -109q0 -15 -28 -43q-19 -21 -39 -41q-10 -18 -33 -50q-15 -16 -73 -51.5t-73 -35.5q-32 0 -62.5 15.5
t-32.5 15.5q-4 0 -20.5 -8t-21.5 -8h-77q-4 0 -26 -7q-25 -7 -30 -8q-27 3 -79 -6q-1 -7 -1 -31h-28q-6 0 -14 8q-26 2 -68 2h-26q-72 0 -113 6q-24 9 -72 23q-27 4 -80 17q-7 3 -20 13q-8 8 -23 8q-32 0 -144 77q-18 4 -50 20q-68 54 -68 84q0 -3 57 125q25 63 74 189
q11 19 29 59q9 29 26 155q2 15 15 62q10 39 10 61q0 67 -21 89q-25 27 -27 38q-5 11 -44 11q-107 0 -302 116l6 64q6 42 25 52q-22 23 -22 79q0 46 7 64q23 34 60 118q2 8 2 43q0 43 53 93q22 20 63 20q17 0 51.5 -3t51.5 -3q9 0 18 9q13 12 17 14q14 2 41 9q12 7 37 16
q44 2 127 18q8 11 22 30q32 30 91 93q26 31 46 31q14 0 27 -14q19 -20 23 -23q18 -12 96 -12q66 0 123 26q50 23 75 23q8 0 13 -1q40 -51 131 -141q51 -10 152 -55q32 -23 35 -23q19 0 56 3.5t56 3.5q31 0 64 -31q30 -29 40 -61q1 -4 1 -39q0 -30 35.5 -93.5t35.5 -114.5
v-14q1 -39 -22 -62q20 -21 24 -54.5t7 -64.5zM1716 816q1 50 -14 60q-160 -103 -268 -131q7 -15 14 -29q5 -7 29 -7q35 0 123.5 38.5t115.5 64.5v4zM965 1365v32h-61v-32h61zM1221 1339q0 59 -45.5 101.5t-43.5 57.5q-8 8 -19 8q-14 0 -64.5 -20t-64.5 -20q-83 0 -125 7
q-15 2 -41.5 17.5t-39.5 15.5q-10 0 -13 -1l-32 -48q-24 -35 -39 -33q-5 -12 -18 -33l-28 -24q-11 -9 -11 -41q0 -29 13 -77q15 -52 31 -71q32 -10 40 -10q18 0 101 38q9 4 16 19q-18 25 -42 72q-4 28 -15 84q-2 7 -17 43q-9 20 -9 46q13 21 21 21q4 0 44 -21t70 -21
q87 0 114 5t111 37l3 -58q-17 -59 -34 -117q-22 -67 -53 -110q12 -2 35 -8q63 -24 62 -24q24 0 48 31q21 28 24 54q1 16 5 47q1 5 8.5 13t7.5 20zM1705 989q0 52 -20 90q-33 62 -39 82q-8 35 -17 69.5t-44 53.5q-15 8 -36 8q-17 0 -50.5 -3t-50.5 -3q-14 0 -48 22
q-39 26 -48 29q-30 8 -88 26q0 -21 -5 -54q-5 -6 -13 -18q-3 -16 -9 -47q-25 -102 -83 -102q-65 0 -118 28q-10 5 -22 5l-11 -1v-131q0 -5 7.5 -16t7.5 -16v-297q0 -15 -6 -45.5t-6 -44.5q2 -85 0 -255q-9 -86 -22 -257l-3 -414q28 -7 37 -7q6 0 41.5 11t43.5 12.5t48 1.5
q13 0 36.5 8t35.5 8q20 0 50 -12.5t40 -12.5q9 0 15 1q36 23 95.5 83.5t94.5 83.5v3q1 31 -36 98q-4 4 -10 12q-5 12 -14 35q-19 40 -51 120q-12 36 -71 273q-20 81 -20 148q0 42 38 99q7 7 14 16q2 27 8 78q6 20 17 62q2 28 8 84q1 11 10 11q13 0 17 -6v-95q0 -5 -2.5 -13
t-2.5 -12q0 -8 6 -11q71 28 203 100q-1 7 -9 30q-6 20 -6 30q0 88 24 163h23v-48q0 -14 -6.5 -43.5t-6.5 -43.5l10 -70q9 4 20 14q0 8 2 24q2 8 13 25q9 13 9 31zM982 645q0 40 -2 50q-1 5 -7.5 13.5t-6.5 11.5q0 7 7.5 23t7.5 23v233q0 7 -6.5 21.5t-6.5 21.5v144h-112
q-5 0 -57 -25t-69 -25q-85 0 -99 46q-1 10 -5 26q-22 40 -22 124q0 16 -2 25h-10q-51 0 -130 -35.5t-80 -35.5q-16 0 -49.5 3t-49.5 3q-45 0 -70 -35q-15 -21 -19 -47q-5 -30 -65 -167q-3 -7 -3 -15q0 -7 1 -20t1 -19q0 -19 8 -32q11 -16 12 -24l3 -24q2 -7 20 -14
q10 62 10 70q0 18 -6.5 55t-6.5 55q0 17 3 25h23q21 -151 21 -163q0 -10 -6 -30q-8 -23 -9 -30q24 -17 105 -57q87 -43 105 -43v11q0 3 -3 11.5t-3 12.5v96q5 6 14 6t10 -3q3 -31 11 -92q7 -20 17 -62q2 -34 8 -78q19 -32 38 -65q14 -28 14 -74q0 -37 -46 -223
q-11 -53 -39 -155q-28 -81 -71 -174q-23 -40 -46 -113q54 -51 203 -124q16 -4 49 -14q20 -10 60 -26q14 -1 43 -5q25 -9 75 -23q54 -10 152 -10q16 0 35 7l18 443q-8 -19 -55 -19q-15 0 -43 27v43q17 17 34 17q49 0 67 -12q3 92 24 271q6 53 6 195zM925 150q0 9 -7 16h-36
v-30q7 -4 18 -4h5q20 0 20 18zM398 745q-97 27 -272 131q-7 -15 -10 -64q26 -24 116.5 -63.5t122.5 -39.5q25 0 43 36zM1490 877h-27q-19 38 -19 45v35h23l23 -45v-35zM956 1113q-36 -13 -35 -13q-55 0 -55 37q0 46 48 46q23 0 28 -8l14 -24v-38zM972 920q0 -12 -1 -21
q-15 -16 -34 -16q-64 0 -64 41q0 39 33 39h11q55 0 55 -43zM972 667q0 -48 -47 -48q-56 0 -56 40q0 17 5 25q23 12 45 12h39q14 -4 14 -29zM959 372q0 4 -16 -22q-5 -1 -16 -1q-61 0 -61 45q0 39 42 39q11 0 51 -13v-48zM388 921q0 3 -19 -44h-27v35q0 7 23 45h23v-36z
M922 -110v-13q0 -34 -37 -34q-15 0 -39 8q-14 18 -14 25v35q23 10 43 10q29 0 35 -2q12 -5 12 -29zM931 1128v21q-6 6 -20 13q-7 -14 -7 -22q0 -19 14 -19q4 0 8 3.5t5 3.5zM944 924q-17 21 -22 21q-15 0 -15 -16q0 -12 14 -22q12 5 23 17zM941 664q-11 11 -19 11t-18 -10
v-11q14 -7 18 -7q10 0 19 17zM941 378v13q-20 20 -23 20q-6 0 -36 -10q-1 -9 13 -19.5t23 -10.5q10 0 23 7zM910 -117q-35 26 -41 26q-18 0 -18 -21q0 -26 32 -26q18 0 27 21z" />
  </g>

</svg>
