<?xml version="1.0" standalone="no"?>
<!DOCTYPE svg PUBLIC "-//W3C//DTD SVG 1.1//EN" "http://www.w3.org/Graphics/SVG/1.1/DTD/svg11.dtd" >
<svg viewBox="0 -442 2048 2048">
  <g transform="matrix(1 0 0 -1 0 1606)">
   <path fill="currentColor"
d="M1922 868l-237 -35q-14 16 -35 27q-18 8 -53 24q-122 62 -133 62t-54 -30q-80 -56 -214 -214q-3 -1 -15 -1q-34 0 -34 44q0 47 35 71q65 45 137 97q34 27 105 75q18 11 84 11t250 -54q115 -34 157 -60q3 -2 7 -17zM2020 806q0 -9 -4.5 -28t-4.5 -28q-2 -49 -29 -108
q-37 -83 -43 -103q-1 -21 -9 -63q-14 -42 -28 -83q-20 -49 -49 -71q-44 -34 -111 -57q-19 -2 -57 -8q-8 -4 -25 -11q-25 -7 -91 -7q-32 0 -57 14q-4 5 -13 14q-21 7 -60 30q-77 69 -77 182q0 53 -29 52h-11q-56 -1 -84 -49q-3 -4 -18 -52q-14 -44 -50 -127q-34 -59 -90 -116
q-8 -8 -57 -33q-9 -4 -138 -35q-12 -5 -38 -11q-67 -10 -120 -10q-4 0 -9.5 2.5t-8.5 2.5q-89 13 -130 50q-31 28 -53 100q-3 9 -10 74q-5 46 -26 70q-25 18 -74 54q-87 64 -156 131q-18 20 -55 57q-7 2 -19 7q-13 13 -39 36q-2 -2 -2 -4q0 -31 25 -72q30 -47 35 -68
q-18 -11 -43 -11q-28 0 -73 166q-7 26 -7 73v26q18 3 17 3q-2 0 20 -9q-1 0 24 0q8 0 14 -2q82 -44 254 -119q5 -2 26 -13q18 -11 22 -11q2 0 67 17q52 14 157 35q110 14 264 14q128 0 223 -17q6 -1 19 -8q10 -6 30 -6q10 0 28.5 -6.5t27.5 -6.5q50 0 136 68q36 29 107 53
q29 7 88 21q197 54 389 53h8q17 -17 17 -52zM1982 781q-4 0 -11 2.5t-11 2.5q-7 0 -28 -14q8 -2 25 -8zM1840 878l-29 20h-14q29 -19 43 -20zM1903 725q0 40 -52 40q-179 0 -333 -67q-33 -12 -72 -32q-19 -21 -30 -105q0 -4 -3 -14.5t-3 -15.5q0 12 21 -74q38 -156 196 -156
q65 0 159 56q99 59 99 245q0 21 9 63t9 60zM1567 760h-12q-11 0 -74.5 -29.5t-79.5 -41t-21 -22.5q61 34 187 93zM830 659h-44h-44q-78 0 -258 -56l4 -15l170 44q98 23 172 27zM1172 558q0 34 -30 47q-64 27 -123 27q-26 0 -73 -4q-52 -5 -74 -6q-51 1 -151 -7
q-32 -5 -81 -27q-53 -25 -70 -46q-7 -9 -7 -37q0 -11 11 -164q6 -77 15 -101q31 -79 175 -79q20 0 118 18q162 30 210 108q22 35 51 133.5t29 137.5zM544 546q-14 7 -35 7q-10 0 -31 -7q32 -21 33 -21q2 0 33 21zM474 585l-7 23q-49 24 -168 73l164 -96h11zM1894 738
q0 -22 -7 -50l-78 69q29 0 85 -19zM1847 478q0 -25 -17.5 -60t-38.5 -46q-39 -13 -115 -38q-11 7 -11 17q0 16 62 55q70 43 76 50q10 12 23 44h17q0 -3 2 -10.5t2 -11.5zM1087 322q-105 -117 -194 -123q-8 16 -19 39l200 121l13 -4v-33z" />
  </g>

</svg>
