<?xml version="1.0" standalone="no"?>
<!DOCTYPE svg PUBLIC "-//W3C//DTD SVG 1.1//EN" "http://www.w3.org/Graphics/SVG/1.1/DTD/svg11.dtd" >
<svg viewBox="0 -442 2048 2048">
  <g transform="matrix(1 0 0 -1 0 1606)">
   <path fill="currentColor"
d="M1310 1266q0 11 -3 -18q-15 0 -23.5 -6t-23.5 -19q-60 -41 -173 -80q-16 1 -45 -15q-20 -160 -20 -195q0 -119 34 -258q5 -52 24 -155q6 -23 51 -164q121 -379 121 -407q0 -12 -4 -20q-10 0 -21 -6q3 -22 16 -57q2 -7 16 -26q11 -16 11 -26v-12q-25 -4 -71 -11
q40 -59 40 -60q0 -16 -21 -16q-12 0 -36 8t-38 8q-60 0 -110 -14q-22 -13 -70 -35q-40 -13 -106 -13q-14 0 -21 11t-18 11l-74 -12q-62 -10 -156 -10q-27 0 -109 16v17l-3 5q-9 2 -23 2q-17 0 -51 -4.5t-51 -4.5q-13 0 -72 30q-14 3 -40 14q-25 15 -21 15q-4 0 -31 -11
t-52 -11q-34 0 -39 11v29q17 0 59 51q-28 -1 -74 15v3q0 18 33 47q36 33 41 49q1 0 -28 -1q-4 9 -9 29q38 63 107 192q25 56 57 185q11 25 29 75q6 37 23 108q4 9 11 27q13 61 40 183q2 28 8 83l8 12q1 16 8 52l-8 25q0 2 10 11l-6 3l-3 8q0 4 4 10.5t4 10.5q0 44 -14 191
q-3 0 -10 -1h-9q-1 0 -45 18q-127 52 -158 103q-2 3 -2 9q0 60 51 144q56 91 111 91q22 0 35.5 -11l13.5 -11q6 0 18 3t18 3q18 0 72 -11q19 -41 59 -104q7 -4 20.5 -13.5t27 -20.5t28.5 -11h150q3 0 7.5 -3.5t7.5 -3.5q7 0 19.5 2.5t18.5 2.5q98 5 114 68q18 69 18 94h59
q6 0 27.5 -10.5t27.5 -10.5q1 0 13 6.5t25 6.5q39 0 48 -6q24 -15 57 -80q40 -80 49 -92q2 -3 22 -21t20 -21zM1264 1267q-9 5 -27 17q-5 3 -47 91q-39 79 -66 79q-14 0 -27 -13v-102q0 -12 -14.5 -25t-26.5 -14l-5 2q22 143 22 139q-46 13 -74 19q-1 -1 -20 -66
q-13 -42 -32 -60q-35 -34 -119 -34q-23 0 -69 1t-69 1q-96 0 -142 36q-37 29 -84 122h-61q-2 -41 -8 -124l-3 -6h-12q-15 19 -15 45q0 13 4 39.5t4 39.5v5q-28 23 -37 23q-35 0 -78 -82q-27 -58 -53 -115q9 -3 25 -11q9 -14 31 -38q24 -11 71 -36q57 -33 51 -33h16
q-27 43 -27 122q0 8 5 11h8q22 -22 29 -61q8 -45 38 -268q62 -18 100 -37q6 -3 53 -37q38 -27 51 -27q6 0 12 2q6 15 26 15q30 0 50.5 -13l20.5 -13q2 0 43 27.5t48 30.5q11 5 130 38q9 75 19 151q19 121 48 121q4 0 4 -1t-1 -1l5 -22q7 -1 9 -5q-17 -15 -16 -29v-4h20
q3 0 38 17q39 18 80.5 36.5t71.5 46.5zM1208 -43v14q0 14 -51.5 183t-60.5 187q-4 5 -10 16q-2 5 -28 127q-47 219 -66 374h-29q1 0 -32 -13q7 -15 7 -39q0 -78 -35 -78q-36 0 -102 29q32 -51 32 -123q0 -12 -14 -225q0 -4 4 -15.5t4 -17.5q0 -7 -1 -20t-1 -19q0 -27 28 -96
q0 -2 -2 -4h-4q-18 0 -62 27q-54 34 -64 38v20.5v19.5q0 47 6.5 142t6.5 142q0 78 -24 141q-18 -52 -36 -105q-20 -62 -20 -108q0 -14 2 -41.5t2 -41.5q0 -162 -26 -177q-41 -24 -101 -26l-5 2v16q0 3 14 32.5t16 37.5q12 50 12 121q0 7 -5 15q7 76 32 204q9 11 26 36
q22 42 22 67q-3 -1 -67 -39q-46 -27 -69 -27q-4 0 -9 1q-15 22 -29 44q-12 19 -12 55q0 21 44 30q-56 23 -64 23q-4 -50 -17 -150q-15 -49 -38 -148q-5 -34 -35 -139q-25 -88 -25 -135q0 -27 -49 -140q-45 -101 -69 -141q-20 -33 -20 -35v-11q2 0 6 1q16 0 48 -19
q17 18 24 18q18 0 43 -10q37 -16 41 -17q10 21 39 21q49 0 142 -31t143 -31q6 0 38 18.5t65 18.5q78 -34 111 -34q17 0 42 20.5t42 20.5q12 0 28 -15t29 -13zM1221 -173q-14 35 -32 95q-169 -18 -172 -18q-11 0 -54 21q-32 -35 -78 -34h-29q-13 0 -43 14t-40 14
q-41 0 -56 -18.5t-41 -18.5q-61 0 -89 7q-22 10 -68 26q-17 2 -50 8q-9 2 -34 16q-20 11 -35 11q-13 0 -26 -12.5t-27 -12.5q-32 0 -63 31h-17q-1 -28 -14 -28q-25 0 -35.5 8t-17.5 8h-4q-18 -39 -59 -79q3 0 9.5 4t10.5 4h74q2 0 66 -37q4 19 17 19q36 0 170 -45
q33 -11 25 -11q3 0 28 8t44 8q10 0 32 -18.5t39 -18.5q44 0 122.5 21t117.5 21q8 0 22.5 -6t22.5 -6q13 0 38 8t38 8zM1177 -235l-9 21h-174q-11 0 -31.5 -4.5t-31.5 -4.5t-32.5 3t-32.5 3q-16 0 -72 -19t-81 -19q-98 0 -108 5q-4 2 -14 20q-7 13 -23 13q-8 0 -23 -4.5
t-23 -4.5q-62 0 -99 10q-29 13 -88 36q-3 -25 -40 -25q-17 0 -45 18q-34 22 -45 26q1 -4 1 -8q0 -7 -36 -53q33 12 60 12q6 0 10 -1q6 -7 42.5 -28.5t44 -22.5t21.5 -1q18 0 54.5 3t54.5 3q25 0 59 -6q16 -34 42 -34q132 0 186 10q4 1 14 5t14 4h76q4 0 15 -11t15 -11
q38 0 111.5 32.5t94.5 32.5h93z" />
  </g>

</svg>
