<?xml version="1.0" standalone="no"?>
<!DOCTYPE svg PUBLIC "-//W3C//DTD SVG 1.1//EN" "http://www.w3.org/Graphics/SVG/1.1/DTD/svg11.dtd" >
<svg viewBox="0 -442 2048 2048">
  <g transform="matrix(1 0 0 -1 0 1606)">
   <path fill="currentColor"
d="M1786 609q0 -153 -116 -246q-36 -29 -69 -42q-15 -3 -42 -17q-16 -33 -39 -79q-194 -391 -586 -391q-320 0 -498 245q-54 75 -88 146q-11 32 -39 78q-27 12 -80 37q-90 46 -123 138q-24 68 -24 129q0 158 161 216q-13 27 -33 84q-21 102 -21 150q0 12 14.5 54t21.5 54
q47 79 118 140q25 12 73 38q71 43 238 89q144 40 249 40q207 0 277 -48q3 -2 38 -55q2 -1 4 -1q14 0 41.5 4t41.5 4q68 0 131 -24q15 -10 46 -28q100 -43 164 -132q19 -27 34 -72q25 -76 25 -77l-34 -238q115 -63 115 -196zM1372 998q-58 133 -133 229q9 -57 31 -171
q33 -21 102 -58zM571 1330q-76 -45 -153 -90q-68 -50 -112 -140q-2 -5 -2 -14q0 -13 2.5 -37t2.5 -36q40 56 125 165q21 26 93 88q19 14 42 49q2 6 2 15zM1705 620q0 126 -145 148l-97 -35q-64 70 -188 190q-20 17 -86 17q-35 0 -79.5 -14t-63.5 -14q-14 0 -14 20
q0 62 151 62q30 0 43 -4q-39 47 -56 126q-28 131 -29 134q-45 -78 -90 -157q-55 -91 -111 -141q-39 -35 -126 -68l-138 -50q6 -2 17 -5q54 -5 86 -39t43 -149l-2 -4q-48 142 -142 142q-64 0 -96 -38q-16 -20 -46 -96l-2 40q0 67 46 112l-231 -83q-61 50 -62 50
q-25 0 -70 -33q-54 -39 -54 -111q0 -69 38.5 -129t100.5 -86q29 -8 68 -25q6 -5 35 -71q44 -100 119 -195q146 -185 410 -185q331 0 502 327q26 58 62 124q15 13 46 23q39 12 49 17q50 26 82 85q30 56 30 115zM1333 641q-25 75 -46 99q-30 35 -97 35q-65 0 -96 -36
q-20 -24 -46 -98q12 192 141 192q111 0 140 -128q4 -17 4 -23v-41zM1315 521q0 -128 -125 -128q-120 0 -120 128q0 132 120 132q125 0 125 -132zM1008 369q-7 -20 -31 -42.5t-43 -22.5q-48 0 -78 65q56 -7 78 -7q40 0 74 7zM798 523q0 -130 -120 -130q-125 0 -125 128
q0 132 125 132q120 0 120 -130zM1075 239q-57 -88 -143 -88q-88 0 -141 88q32 -11 104 -11h63q64 0 117 11zM1169 567q0 25 -24 25q-6 0 -21 -13v-25q8 -8 21 -8q24 0 24 21zM1284 493v14q-6 0 -17 2t-17 2q-17 0 -25 -11q-12 -17 -28 -24v-56h20q19 0 43 27t24 46zM653 565
q0 27 -23 27t-23 -27q0 -19 23 -19t23 19zM767 482v25q-5 0 -15 2t-15 2q-15 0 -26 -11q-16 -16 -31 -24v-56h24q14 0 38.5 24t24.5 38z" />
  </g>

</svg>
