<?xml version="1.0" standalone="no"?>
<!DOCTYPE svg PUBLIC "-//W3C//DTD SVG 1.1//EN" "http://www.w3.org/Graphics/SVG/1.1/DTD/svg11.dtd" >
<svg viewBox="0 -442 2048 2048">
  <g transform="matrix(1 0 0 -1 0 1606)">
   <path fill="currentColor"
d="M1716 -67h-1634v50q0 10 19 208q6 87 13 174q9 106 32 169q31 87 111 119q18 7 165 37q-117 113 -117 266q0 145 98 249t243 104q63 0 136 -32.5t114 -79.5q42 47 116 79.5t137 32.5q141 0 242 -106t101 -247q0 -177 -121 -267q27 -13 84.5 -18.5t83.5 -15.5
q36 -14 70.5 -55.5t46.5 -80.5q19 -63 28 -163q7 -83 13 -166q19 -195 19 -257zM1652 1v42q0 10 -18 183q-7 90 -27 269q-5 31 -34 69t-58 48q-41 15 -151 29q-24 2 -49 4q-30 4 -41 21t-11 37q171 74 171 263q0 122 -82 208t-203 86q-46 0 -103 -21q-22 -8 -65 -38
q-48 -34 -48 -50q0 -6 15 -39q18 -38 20 -44q18 -55 18 -112q0 -110 -48 -185q24 -30 97 -68q0 -21 -10 -44q134 -62 147 -282l27 -282q7 -85 7 -94h446zM923 688q-1 2 -27 28q-11 -9 -31 -28q12 -2 26 -2q5 0 16 1t16 1zM1146 1v32q0 17 -14 159q-8 91 -26 273
q-10 86 -72 132q-41 30 -117 35q-94 7 -122 17q-37 13 -37 45q0 13 18 21q15 6 29 12q32 18 67 63q56 72 56 176q0 118 -84 206t-201 88t-200.5 -88.5t-83.5 -205.5q0 -84 45.5 -157t121.5 -105l3 -4q1 -33 -21 -45t-103 -22q-93 -12 -112 -17q-32 -9 -64.5 -42t-38.5 -64
t-32 -297q-18 -184 -18 -200q0 -12 6 -12h1000z" />
  </g>

</svg>
