<?xml version="1.0" standalone="no"?>
<!DOCTYPE svg PUBLIC "-//W3C//DTD SVG 1.1//EN" "http://www.w3.org/Graphics/SVG/1.1/DTD/svg11.dtd" >
<svg viewBox="0 -442 2048 2048">
  <g transform="matrix(1 0 0 -1 0 1606)">
   <path fill="currentColor"
d="M1988 965q0 -161 -86 -246q-9 1 -15 -5q-26 -23 -39 -97q-6 -35 -35 -300q-2 -31 -10 -90q-4 -9 -11 -28q-8 -26 -16 -133q-3 -4 -12 -4t-17 9q-14 -9 -30 -9q-11 0 -29 12q-24 15 -29 17q6 191 6 220q0 128 -16 203l-4 6q-73 -73 -183 -225q-23 -27 -60 -84
q-1 -6 -4 -18q-6 -6 -17 -19q-3 -4 -48 -95q-86 -173 -185 -242q-22 -15 -106 -33q-43 -13 -111 -26l-381 -4q-10 0 -29.5 3.5t-29.5 3.5h-126q-23 0 -140 25q-101 22 -143 84v96q0 20 19 60q36 76 101 115q36 22 144 59q23 10 71 26q12 1 37 5q40 12 126 75q25 13 74 40
q39 23 108 78q43 26 133 95q111 105 158 193q15 18 45 53q42 51 127 136q11 16 33 46q44 55 139 143q63 51 182 161q125 130 205 130q33 0 82 -81q11 -14 32 -44q90 -141 90 -311zM1825 662q-8 -3 -20 -14q-9 -18 -52 -334q-5 -37 -5 -31v-95q0 -9 -4 -28.5t-4 -29.5z
M1714 215q0 -13 -14 54q-13 -89 -13 -67v-75q6 -1 17 -3q0 15 5 45.5t5 45.5zM1952 932q0 130 -41 236q-17 45 -96 168q-10 -12 -55 -109q-15 -32 -42 -71q-16 -33 -54 -96q-29 -26 -76 -84q-62 -112 -212 -516q-32 -87 -111 -182q-9 -8 -26 -25q-3 -6 -11 -18
q-35 -49 -101 -98q-81 -60 -168 -60q-10 0 -16 1l-12 7q-74 11 -150 37q-101 36 -127 76q-3 8 -11 24q-15 22 -35 75q-89 -51 -161 -80q-68 -26 -136 -53q-99 -40 -123 -63q-72 -68 -72 -186q0 -13 49 -41q45 -25 63 -28q37 -2 109 -14q29 -8 25 -8h129q4 0 17 -5t23 -5h73
q50 1 74 1q161 0 234 10q37 8 111 23q95 16 160 88q14 12 38 40q34 49 85 148q54 104 84 149q48 61 143 185q14 27 51 73q47 41 145 118q58 36 115 72q64 46 85 103q23 64 23 108zM1438 745q-19 -13 -54 -44q-86 -96 -142 -194q-7 -16 -23 -47q-22 -24 -57 -77q-2 -7 -8 -22
q-30 -55 -110 -110q-52 -36 -163 -62q-29 -3 -85 -16q134 -49 187 -49q39 0 118 54q70 47 102 86q66 79 96 139q31 75 95 223q14 40 44 119zM1727 778q0 -5 -2 -16q-162 -136 -264 -267q-23 -37 -59 -83q-8 -5 -25 -6q10 12 51 133q40 118 51 149q32 84 67 143q15 37 56 106
q1 -18 5 -54q5 -22 19 -32.5t29 -20.5q7 -11 21 -32q17 6 27 6q24 0 24 -26zM1163 4q0 -11 -16 -43l-9 -2q-2 -9 -10 -26q-29 -41 -79 -41q-10 0 -29 -10t-28 -11q-60 -7 -181 -23q-87 -12 -89 -12q-5 0 -13.5 3t-13.5 3q-4 0 -9 -4.5t-9 -4.5l-241 3q-16 4 -47 10h-78
q-8 11 -58 26q-59 17 -69 23v12q0 26 27.5 57t53.5 41q11 4 39 4q29 0 89 -17q25 -7 80 -7q-1 0 34 8q26 1 77 8q64 12 185 49q6 2 27 19.5t23 17.5q-5 0 25 -12q40 -16 105 -16q122 0 214 62v-117zM616 195q-30 -15 -93 -39q-67 -14 -135 -28q-77 -17 -125 -56h-42v29
q20 20 39 27q23 8 40 22q9 0 27 2q11 7 34 20q33 9 99 30q39 14 137 73q19 -31 19 -67v-13z" />
  </g>

</svg>
