<?xml version="1.0" standalone="no"?>
<!DOCTYPE svg PUBLIC "-//W3C//DTD SVG 1.1//EN" "http://www.w3.org/Graphics/SVG/1.1/DTD/svg11.dtd" >
<svg viewBox="0 -442 2048 2048">
  <g transform="matrix(1 0 0 -1 0 1606)">
   <path fill="currentColor"
d="M1762 553q0 -136 -84 -227q-32 -22 -87 -73q-9 -22 -25 -62q-30 -72 -82 -144q-212 -295 -562 -295q-380 0 -591 344q-27 43 -50 90q-8 23 -29 67q-22 14 -53 35q-85 63 -112 191q-5 24 -5 74q0 133 92 191q20 152 24 171q17 86 55 165l-143 163q300 199 672 259
q112 18 142 18q18 0 91 -10q375 -51 723 -263l-143 -175q64 -130 70 -324q97 -59 97 -195zM1618 1216q-74 64 -334 149q-253 82 -360 82t-360 -82q-259 -85 -334 -149q28 -30 82 -90q77 -8 229 -19q121 -9 133 -9h153q-23 113 -23 108q0 14 41 86h157q46 -79 46 -82
q0 11 -27 -112h185q250 0 329 28q23 8 47 39q18 25 36 51zM998 1195q0 4 -32 57h-84q-12 -19 -32 -57l28 -109h96q24 120 24 109zM780 1068q-16 -3 -41 -3q10 0 -94 3l-23 -105q102 -24 118 -24q21 0 29 4q4 42 11 125zM1680 542q0 66 -12 95q-19 45 -76 53q-20 -29 -61 -85
q-72 222 -77 391q-78 -45 -158 -67q13 -12 13 -24q0 -17 -22 -17q-11 0 -34 8t-34 8q18 0 -69 -15q-120 -21 -172 -21q-145 0 -238 13q-14 2 -61 15q-42 12 -54 12t-35.5 -10t-35.5 -10q-22 0 -22 20q0 4 12 22q-78 30 -150 66q-5 -171 -77 -391l-61 85q-92 -10 -92 -122
q0 -117 74 -187q38 -22 80 -54q21 -48 71 -144q200 -338 533 -338q178 0 333 105q151 103 226 268q13 41 45 109q9 12 27 20q23 10 29 15q36 28 67 82.5t31 97.5zM1295 648q-36 124 -125 124t-124 -124q9 170 124 170q57 0 83 -26q21 -22 33 -81q4 -15 9 -46v-17zM1277 549
q0 -115 -107 -115q-106 0 -106 113q0 116 106 116q107 0 107 -114zM798 654q-38 118 -124 118q-94 0 -125 -120q10 166 125 166q114 0 124 -164zM1009 376q-35 -73 -87 -73t-91 73q39 -11 89 -11q51 0 89 11zM780 549q0 -115 -106 -115q-107 0 -107 113q0 116 107 116
q106 0 106 -114zM1188 216q-107 -69 -266 -69q-158 0 -266 69l266 -12zM1153 586q0 23 -24 23q-13 0 -19 -13v-21q10 -9 19 -9q24 0 24 20zM1253 530q-5 2 -49 9v-3q-10 -15 -31 -28v-50h20q23 0 43 28q5 6 17 44zM652 575v26q-9 8 -19 8q-12 0 -19 -13v-21q10 -9 19 -9
t19 9zM753 513v22q-22 0 -46 4v-4q-11 -14 -31 -27v-50h21q15 0 35.5 20.5t20.5 34.5z" />
  </g>

</svg>
