<?xml version="1.0" standalone="no"?>
<!DOCTYPE svg PUBLIC "-//W3C//DTD SVG 1.1//EN" "http://www.w3.org/Graphics/SVG/1.1/DTD/svg11.dtd" >
<svg viewBox="0 -442 2048 2048">
  <g transform="matrix(1 0 0 -1 0 1606)">
   <path fill="currentColor"
d="M1778 1009q0 -37 -26.5 -64t-63.5 -27t-66 28t-29 65q0 35 28 61.5t64 26.5q93 0 93 -90zM1342 1259q0 -50 -30 -85q-32 -38 -81 -38q-48 0 -82 37.5t-34 85.5t34.5 85.5t81.5 37.5q49 0 80 -36.5t31 -86.5zM822 1259q0 -51 -30.5 -87t-80.5 -36q-51 0 -83.5 36t-32.5 87
q0 49 34 86t82 37q50 0 80.5 -36t30.5 -87zM1959 660q0 -38 -116 -178q-23 54 -23 67q0 8 32.5 54.5t32.5 54.5q0 10 -80 102q-5 -41 -5 -112v-55q0 -25 17 -70.5t17 -68.5q0 -4 -5 -10t-5 -10v-119q-8 1 -13 -4v-352q0 -15 -16.5 -27t-32.5 -12q-10 0 -27 11t-17 20v360
l-17 10q0 37 -5 110h-11q-2 -13 -6 -110l-17 -10v-352q0 -39 -44 -39q-13 0 -28.5 11t-15.5 24v357q-5 5 -23 3q28 218 28 220q0 -1 -3 216q-15 -97 -50 -221q-12 -16 -31 -16q-18 0 -30.5 14t-89.5 437h-19v-291q0 4 111 -284h-111v-417q0 -21 -18.5 -37t-39.5 -16
q-13 0 -33 11.5t-20 23.5v435h-29v-431q0 -15 -20.5 -27t-36.5 -12t-34.5 12.5t-18.5 27.5v429h-116l113 300v276h-22q-11 -66 -30 -198q-10 -101 -36 -228q-15 -25 -42 -25q-30 0 -43 20q-7 11 -35 191q-11 71 -40 212h-15v-959q0 -23 -17 -40.5t-40 -17.5
q-19 0 -38.5 15.5t-19.5 33.5v578h-24v-583q0 -44 -58 -44q-16 0 -34.5 12.5t-18.5 27.5v977h-19q-16 -114 -40 -342q-5 -81 -45 -81q-39 0 -65 94q-17 67 -35 134q-5 -27 -5 -89q0 -135 26 -196q17 -40 57 -160h-83v-338q0 -13 -15.5 -26t-28.5 -13t-28.5 11t-15.5 24v342
h-29v-353q-41 -24 -43 -24q-11 0 -25 10.5t-14 20.5v345h-93l91 240v206h-22v-203q0 -25 -37 -25q-39 0 -39 54v113q0 108 34 144.5t140 36.5q55 0 104 -6q81 -10 101 -102q4 -20 15 -59l3 336q0 44 48 66q37 17 114 17h127q139 0 164 -61q10 -24 14 -103q8 -138 27 -250
q14 114 14 239q0 139 88 154q24 4 61 4h175q45 0 66 -4q59 -11 80 -75q9 -28 16 -116q10 -130 25 -211q5 65 31 165q15 23 75 26q-29 -1 86 -1q13 0 39 1t39 1q35 0 50 -4t78 -102t63 -117zM450 905h-23v-28h-23v29q-18 1 -53 21q-19 -60 -72 -60q-48 0 -72 60
q-17 -17 -35 -17h-14v-33h-26v28h-20v17h20v28h26v-30q8 4 19 12q5 6 37 78q20 47 65 47q50 0 70 -66t48 -68l7 2v25h23v-28h23v-17z" />
  </g>

</svg>
