<?xml version="1.0" standalone="no"?>
<!DOCTYPE svg PUBLIC "-//W3C//DTD SVG 1.1//EN" "http://www.w3.org/Graphics/SVG/1.1/DTD/svg11.dtd" >
<svg viewBox="0 -442 2048 2048">
  <g transform="matrix(1 0 0 -1 0 1606)">
   <path fill="currentColor"
d="M1970 71q0 -112 -42 -157q-7 -7 -35.5 -22.5t-148.5 -44.5q-32 -8 -117 -21q-51 -10 -154 -22q-103 -3 -244 -3q-153 0 -266 51q-15 9 -46 26q-159 81 -216 174q-7 12 -24 62q-20 60 -20 68q0 15 28 39q-20 62 -65 183q-5 21 -17 63q-25 81 -40 117q-27 65 -61 107v-309
q-58 -28 -61 -28q-7 0 -71 19v169q0 4 -12 88q-13 95 -26 191q-23 134 -54 173q-8 7 -23 22q-73 70 -137 170q-36 56 -36 116q0 149 208 149q79 0 119 -11q34 -9 113 -49q40 -20 77 -68q16 -17 47 -53q21 -34 67 -100q37 -40 104 -124q20 -36 59 -108t128 -208
q13 -13 38 -40q46 -65 147 -187l271 116l17 -2q37 -52 132 -134.5t132 -132.5q21 -28 24 -97q21 -22 94 -63q68 -37 89.5 -68.5t21.5 -50.5zM1068 580q-25 43 -82 122q-16 15 -45 47q-39 47 -112 191q-64 127 -122 181q20 -37 77 -136q18 -42 58 -125q73 -133 226 -280z
M1927 81l-42 30q-20 21 -62 60q-27 22 -105 61.5t-68 39.5q-11 0 -91 -49q-76 -46 -94 -61q-75 -62 -110 -93q-59 -54 -99 -104l3 -7q20 -10 50 -10h123q-10 0 109 11q51 3 153 15q46 13 138 38q27 5 69 21q12 8 17 23q5 19 9 25zM1128 467q-77 74 -221 232q-55 69 -146 247
q-25 43 -69 131q-15 49 -62 140q-68 91 -100 119q-47 39 -139 71q-32 11 -105 11q-25 0 -40 -2q-37 -5 -76 -32q-45 -31 -45 -64q0 -53 18 -80q38 -58 125 -132q70 -59 140 -119q142 -133 192 -220q30 -49 74 -149q37 -128 87 -341zM1717 301q-23 53 -110 119
q-102 77 -126 108q-9 14 -27 43q-3 4 -10 4q-209 -101 -624 -310q-33 -19 -98 -58v-5q0 -23 7 -41q20 -52 181 -156t219 -104q12 0 32 19q24 32 76 94q84 87 205 180q158 119 229 119q9 0 46 -12zM1926 13q-11 -9 -36 -24q-174 -72 -619 -72q-8 0 -23 3t-22 3
q-3 0 -27 -26.5t-62 -26.5q-52 0 -210 77q-21 10 -62 33q-109 75 -167 183v-20q0 -21 64 -101q11 -15 37 -43q138 -120 283 -143q107 -17 105 -17h95q1 0 82 7q28 1 84 6q12 3 37 9q129 14 258 29q179 30 183 123zM737 264q-22 107 -82 316q-4 11 -35 75q-99 206 -356 422
q72 -80 208 -245q83 -111 137 -240l45 -147q22 -61 63 -185zM476 457v282q0 15 -29.5 55.5t-44.5 48.5l40 -402q16 11 34 16zM419 437q-12 126 -42 377q-2 24 -12 69q-6 13 -38 48q57 -183 65 -486zM479 398q-4 27 -4 33q-10 -5 -30 -16v-30q11 5 34 13zM419 385v21
q-9 5 -27 10v-25q16 0 27 -6z" />
  </g>

</svg>
