<?xml version="1.0" standalone="no"?>
<!DOCTYPE svg PUBLIC "-//W3C//DTD SVG 1.1//EN" "http://www.w3.org/Graphics/SVG/1.1/DTD/svg11.dtd" >
<svg viewBox="0 -442 2048 2048">
  <g transform="matrix(1 0 0 -1 0 1606)">
   <path fill="currentColor"
d="M1424 1201q0 -47 -3 -93q-10 -47 -27 -142q-23 -161 -77 -481q-7 -37 -7 -94q0 -72 41.5 -196t41.5 -181q0 5 -4 -54l-11 -6q1 -10 -16 -22q-23 -18 -24 -19q-8 -9 -39 -138q-27 -26 -66 -26q-8 0 -15 1q-7 14 -27 61q-24 -17 -70 -53q-37 -40 -102 -88q-10 -2 -31 -5
q-195 -36 -431 -36q-89 0 -89 76v19l18 11q-107 4 -213 7q-163 11 -191 36q-2 23 4 63q4 9 15.5 11.5t20.5 7t26 14.5q36 9 105 36q8 6 24 17q23 7 68 26q11 8 34 23q153 93 207 287q20 72 20 93v230q0 4 -6 6v219q0 4 -12 166q-5 93 -20 279q-2 18 -11 36l-3 175l10 37
q60 3 180 13q9 1 35 7q23 5 36 5h246q28 0 34 -19q2 -22 4 -43q18 -3 51 -3q22 0 67 4.5t67 4.5h111q29 -113 29 -272zM1382 1179q0 89 -14 254q-28 6 -67 6h-85q-15 0 -45 -4.5t-45 -4.5l-76 1q-103 0 -163 -23v-10q0 -67 16 -152q11 -59 17 -155q8 -127 11 -156
q18 -168 18 -219v-505q0 5 -9 -37q-2 -21 -11 -62q-61 -167 -199 -268v-32q22 -10 26 -10q9 0 26 1.5t26 1.5q94 0 142 -8q31 -5 62.5 -25t30.5 -20q6 0 81 62q68 57 86 75q31 30 58 126q2 20 8 59q2 11 20 58q17 44 17 49q0 3 -11 24t-13 27q-19 70 -19 231q0 3 10 63
l25 150q26 151 74 453q3 21 3 50zM1066 1464v21q-6 7 -17 7q-5 0 -14 -3t-14 -3h-410q-18 0 -17 -60v-4l53 -961q0 -9 -1 -16q-6 -3 -6 -7q0 -97 -14 -163q-13 -59 -19 -77q-12 -35 -39 -70q-10 -20 -34 -57.5t-72 -92.5q-8 -3 -25 -11q-18 -16 -59 -43q19 -29 64 -38
q75 -15 76 -15q9 -5 28 -13q16 -3 46 -11q52 -18 38 -18q11 0 65 38q48 34 64 50q65 62 91 111q13 25 51 132q4 11 4 39q0 12 6.5 25t6.5 14l-3 386q0 21 -6.5 62.5t-6.5 63.5q0 19 1.5 56t1.5 56q0 100 -23 271q-25 198 -29 272v9q-2 28 27 33q26 1 52 3l7 10q88 10 108 10
q4 0 19 -6zM1353 24q0 59 -30 101q-15 -33 -25 -96q-12 -69 -22 -97q48 28 54 34q23 21 23 58zM1275 -128q-7 -1 -17 -6v-70q9 6 12 35q4 38 5 41zM1020 -270q-66 47 -144 47q-18 0 -53.5 -1.5t-53.5 -1.5q-74 0 -68 52q-20 -17 -63 -45q-88 -42 -133 -82v-11q7 -1 31 -8
q20 -5 32 -5h253q44 0 107 14q78 17 92 41zM603 -191q-24 6 -72 21q-12 7 -37 17q-41 8 -80.5 17t-70.5 46q-106 -43 -217 -91q-4 -3 -3 -10q17 -9 53 -19q24 -1 73 -6q56 -7 51 -7h243q-2 0 60 32z" />
  </g>

</svg>
