<?xml version="1.0" standalone="no"?>
<!DOCTYPE svg PUBLIC "-//W3C//DTD SVG 1.1//EN" "http://www.w3.org/Graphics/SVG/1.1/DTD/svg11.dtd" >
<svg viewBox="0 -442 2048 2048">
  <g transform="matrix(1 0 0 -1 0 1606)">
   <path fill="currentColor"
d="M1895 28q0 -39 -23.5 -112t-23.5 -112t19 -71q-298 74 -334 353q-1 15 -5 45q-201 -310 -545 -310q-357 0 -534 294q-6 -34 -20 -103q-21 -93 -121.5 -179t-196.5 -100q15 32 15 73q0 38 -22 111t-22 111q0 96 73 176q66 71 164 103q-197 84 -197 296q0 161 167 219
q-28 77 -28 152q0 225 173 367q161 133 391 133q34 0 91 -21.5t73 -21.5l20 10q66 33 143 33q228 0 391 -132q174 -142 174 -364q0 -79 -31 -156q5 -4 37 -21q121 -63 121 -196q0 -202 -197 -298q104 -31 171 -100q77 -79 77 -179zM1159 1141l-59 217q-53 -61 -53 -64
q0 -25 11 -61l18 -60q47 -23 83 -32zM1709 -57l-111 141q5 -37 27 -107q29 -55 55 -55q16 0 29 21zM524 1319q-36 -27 -99 -90q-98 -125 -98 -274q0 -15 21 -62q27 68 88 199q23 31 60 97q9 22 28 130zM1763 616q0 64 -39 101q-32 30 -85 41l-94 16q-5 1 -47 15
q-33 11 -45 11q6 0 -85 -51q6 -11 8 -22h36q-1 0 84 28q-34 -46 -112 -64q4 -20 4 -37q0 -9 -2 -16q-26 74 -46 98q-32 37 -98 37q-65 0 -97 -38q-20 -24 -45 -97q-3 18 -3 29q0 18 10 50q35 114 134 114q52 0 112 -46q29 1 67 29q-52 23 -153 76l-73 46q-17 0 -49 -12
t-49 -12q-14 0 -14 20q0 37 58 48q-57 57 -153 184q-42 -74 -157 -184q51 -18 51 -46q0 -21 -26 -21q-14 0 -39.5 9.5t-39.5 9.5q-6 0 -58 -33q-64 -39 -65 -40q-25 -14 -105 -49q40 -22 64 -25q51 46 112 46q82 0 114 -63q14 -27 32 -131l-2 -3q-48 143 -144 143
q-64 0 -96 -39q-18 -21 -47 -96q-2 18 -7 53q-67 1 -104 60q74 -29 120 -28l4 22q-52 17 -75 51q-38 -23 -130 -35q-95 -12 -128 -31q-58 -33 -58 -118q0 -69 39 -129.5t102 -87.5q28 -7 69 -25q10 -8 35 -72q41 -102 121 -198q156 -186 414 -186q184 0 305 84
q109 76 202 246q25 57 63 126q16 14 47 23q41 13 50 17q50 25 83 86q30 57 30 116zM245 193l-64 -68q-24 -33 -24 -91q0 -16 21 -85q24 40 48 79q18 37 18 93q0 61 1 72zM1368 516q0 -130 -126 -130q-121 0 -121 130q0 133 121 133q126 0 126 -133zM1341 334q0 -17 -18 -17
h-5q-11 0 -19 8v18q6 12 21 12q21 0 21 -21zM1364 236q-6 -12 -19 -12t-19 12v14q6 12 19 12q10 0 19 -8v-18zM1264 266q0 -19 -20 -19q-3 0 -9 2t-9 2v34h18q20 0 20 -19zM1058 362q-8 -21 -30 -42q-25 -23 -45 -23q-49 0 -79 65q55 -7 79 -7q41 0 75 7zM846 518
q0 -132 -122 -132q-126 0 -126 130q0 133 126 133q122 0 122 -131zM1126 231q-58 -89 -145 -89q-89 0 -143 89q34 -11 92 -11h94q50 0 102 11zM741 255q-9 -8 -19 -8q-19 0 -19 17q0 12 9 21h24l5 -4v-26zM668 334q0 -17 -18 -17h-5q-12 0 -20 8v18q6 12 22 12q21 0 21 -21z
M641 245q0 -21 -22 -21q-17 0 -17 19q0 11 9 19h25q0 -3 2.5 -8.5t2.5 -8.5zM1221 562q0 25 -25 25q-8 0 -21 -12v-26q8 -8 21 -8q25 0 25 21zM1337 488v14q-5 0 -17 2t-18 2q-14 0 -28 -15q-18 -18 -25 -21v-56h20q20 0 44 27t24 47zM699 560q0 27 -23 27q-24 0 -24 -27
q0 -19 24 -19q23 0 23 19zM815 477v25q-5 0 -15 2t-16 2q-14 0 -31 -14q-22 -20 -27 -22v-56h25q16 0 40 23.5t24 39.5z" />
  </g>

</svg>
