<?xml version="1.0" standalone="no"?>
<!DOCTYPE svg PUBLIC "-//W3C//DTD SVG 1.1//EN" "http://www.w3.org/Graphics/SVG/1.1/DTD/svg11.dtd" >
<svg viewBox="0 -442 2048 2048">
  <g transform="matrix(1 0 0 -1 0 1606)">
   <path fill="currentColor"
d="M1590 257q0 -7 -19 -33h-21q-13 0 -20 -8q-9 -65 -12 -82q-10 -47 -29 -78q-29 -28 -81 -88q-11 -16 -32 -58q-22 -47 -22 -60q0 -12 4 -36t4 -35q111 -26 150 -26q11 0 36.5 8.5t33.5 9.5q-13 -26 -43 -93q-42 -19 -84.5 -36.5t-91.5 -17.5q-13 0 -38 1.5t-38 1.5
q-12 0 -36 -1t-36 -1q-37 0 -56.5 2.5t-78.5 18.5q-55 15 -68 15q10 0 -34 -10q-88 -20 -144 -20q-79 0 -155 24q-57 18 -44 18q-2 0 -33.5 -21t-43.5 -24q-18 -4 -53 -4q-12 0 -36 1.5t-36 1.5t-36 -1.5t-36 -1.5q-32 0 -53 4q-102 19 -153 50q-30 18 -57 68q-6 11 -16 52
q9 -1 37 -10q24 -8 37 -8q14 0 54 26q13 43 13 54q0 34 -26 141q-25 104 -40 139q-4 9 -75 70q14 5 34 13q52 117 76 179l-34 103q5 71 35 202q23 20 57 51q50 48 214 151l-110 208q-12 -13 -34 -27q-50 24 -59 38l77 378l266 -42l73 -483q32 1 113 4q72 3 114 3q41 0 65 -9
q28 -11 57 -23q32 164 100 491q82 20 246 63l96 -202q-4 -56 -13 -168q-68 -23 -67 -23q-10 0 -71 61h-3q-4 0 -6 -3q-10 -24 -30 -71l-70 -165q9 -10 44.5 -14.5t46.5 -12.5q24 -18 69 -75q42 -54 57 -84q43 -87 43 -185q0 -13 -7.5 -40t-7.5 -40q0 -15 28 -75
q25 -53 38 -73q4 -6 39 -44q32 -35 32 -39zM1434 1216l-89 259q-58 -21 -171 -70l100 -128q60 -69 124 -103q26 26 36 42zM1273 1220l-117 107q-84 -372 -81 -386q4 7 19 7q8 0 24.5 -3.5t24.5 -3.5q15 0 18 5.5t34 81.5q25 64 78 192zM540 1421l-163 39l-78 -308
q13 -13 25 -13q24 0 79 32t70 53q23 31 40 95q26 99 27 102zM620 976l-70 324q-13 -47 -53 -127q-10 -13 -79 -42l93 -205q36 17 109 50zM1456 382q-14 17 -33 46q-11 36 -11 82q0 17 5 50t5 49q0 41 -67 145.5t-106 123.5q-29 14 -83 13q-63 -1 -85 5l-12 3
q-143 37 -289 37q-84 0 -222 -56q-115 -47 -208 -105q-34 -30 -103 -89q-24 -113 -24 -127l20 -153q112 16 334 58l84 36q31 11 88 37q56 33 161 107q27 23 74.5 83t66.5 75q6 5 29 13q38 -48 108 -148q103 -171 181 -240q3 -3 87 -45zM1544 270q-26 22 -83 63q4 -17 4 -35
q0 -16 -13 -81.5t-19 -74.5q-10 -15 -39 -36t-39 -37q-23 -64 -60 -149q-34 -51 -103 -111q-106 -94 -113 -101q1 0 54 -25q21 -9 68 -9q12 0 35 1t35 1t36 -1.5t36 -1.5q48 0 88.5 16t80.5 32q14 0 -55 0q-25 0 -69 12q-47 13 -63.5 26t-16.5 47q0 33 23 103t42 97
q30 23 78 72q23 33 39 96q-1 36 12 93q36 3 42 3zM1434 291q0 49 -35 75q-17 4 -42 14q-83 59 -155 175q-61 101 -121 202q-47 -58 -154 -159q-49 -35 -128 -76q-67 -34 -133 -68q73 -16 73 -131q0 -3 -2 -5q-26 80 -98 80q-70 0 -97 -80q-3 5 -2 22q-36 7 -58 17
q-15 13 -68 26h-36q-72 0 -102 -16q-42 -23 -42 -89q0 -98 70 -153q22 -10 52 -31q10 -27 32 -80q50 -105 131 -182q92 -86 194 -109q54 -12 123 -12q247 0 401 222q28 40 54 100q9 26 21 57q22 12 63 42q59 56 59 159zM563 417q-13 -2 -31 -10h22zM547 368v15
q-11 0 -30.5 7.5t-28.5 7.5q10 0 -28 -11q30 -19 48 -19h39zM593 -289q-48 34 -121 98q-38 46 -109 177q-13 26 -43 74q-28 20 -78 66q-35 42 -35 71v98q-17 -34 -57 -97q22 -18 52 -54q71 -184 71 -315q0 -8 -2 -12q-27 -53 -43 -61l-70 -14q107 -73 300 -73q70 0 135 42z
M1147 522q-4 -3 -13 -8q-60 14 -99 14q-16 0 -48.5 -6t-50.5 -6l-10 1v14q38 20 85 20h35q77 0 101 -29zM1219 386q-24 -40 -88 -44v-28q-21 84 -100 84t-96 -76q6 134 96 134q62 0 85 -50q61 6 94 26q-10 -27 -86 -52v-9q6 -3 15 -3q43 0 80 18zM1117 234q0 -88 -86 -88
q-82 0 -82 90t84 90t84 -92zM1040 -33q0 -20 -9 -38l-36 47q16 17 28 17q17 0 17 -26zM883 66q-2 -11 -19 -22.5t-28 -11.5q-22 0 -55 33q28 -7 55 -7q15 0 47 8zM723 234q0 -88 -84 -88t-84 88q0 92 84 92t84 -92zM983 -76q-6 -18 -12.5 -36.5t-26.5 -30.5
q-28 -17 -138 -17q-31 0 -70 13q-25 8 -47 69q18 -5 23 -5q20 0 39 28.5t35 28.5q33 0 50 -30q29 30 46 30q16 0 38 -28.5t40 -28.5q9 0 23 7zM677 -24l-36 -47q-9 24 -9 38q0 26 17 26q11 0 28 -17zM1017 261v10q-7 13 -19 13q-6 0 -15 -9v-17q9 -9 17 -9q1 0 17 12z
M1097 222q-12 2 -37 8q1 -25 -27 -27v-37h20q25 0 44 56zM624 262v13q-9 9 -15 9q-13 0 -19 -12v-10q7 -13 17 -13q4 0 17 13zM704 217q0 9 -14 10q-20 2 -23 3q1 -12 -24 -27v-37h21q12 0 26 19.5t14 31.5zM910 -135q-26 22 -74 22q-65 0 -74 -23q31 -2 56 -2h20q32 0 72 3
z" />
  </g>

</svg>
