<?xml version="1.0" standalone="no"?>
<!DOCTYPE svg PUBLIC "-//W3C//DTD SVG 1.1//EN" "http://www.w3.org/Graphics/SVG/1.1/DTD/svg11.dtd" >
<svg viewBox="0 -442 2048 2048">
  <g transform="matrix(1 0 0 -1 0 1606)">
   <path fill="currentColor"
d="M1770 547q0 -136 -84 -228q-31 -22 -87 -74q-9 -23 -25 -62q-34 -77 -82 -144q-215 -298 -566 -298q-382 0 -595 347q-7 10 -79 158q-22 14 -53 35q-85 66 -112 191q-5 23 -5 75q0 138 90 188l-16 143q-5 41 40 219q14 54 22 78q15 44 37 70q19 23 79 63q57 38 88 50
t96.5 15.5t94.5 14.5q32 32 110 79q102 33 262 33q161 0 308 -40q177 -48 276 -125q2 -1 50 -93q26 -41 68 -129q13 -40 20 -104q11 -94 13 -106l-43 -160q-1 -5 7 -10q86 -53 86 -186zM1586 1013q-5 33 -20 96q-7 20 -68 99v-13q0 -63 28 -115q21 -21 60 -67zM1088 1412
l-162 26q-37 0 -156 -28q-1 -5 -12 -30q-9 -21 -9 -26q0 -4 31 -53q9 23 30 54q54 38 136 45zM456 1300l-72 -34q-40 -20 -63 -47q-41 -48 -54 -125q-3 -17 -12 -138l75 185q45 89 126 159zM1688 535q0 118 -55 141q-25 10 -41 9q-15 -49 -47 -148h-14q-57 0 -69 3v11
q0 14 13 68q15 60 17 76q3 20 6 117q0 14 4 51q3 32 3 50q0 14 -79 232q-46 -29 -146 -69q-79 -18 -303 -18q-6 0 -11 2q-125 52 -171 86q-25 19 -51 58q-20 33 -41 66q-9 -42 -45 -118q-25 -31 -111.5 -84t-89.5 -58q-54 -75 -54 -151q0 -187 30 -319q-61 -23 -88 -23
q5 0 -11 4q-21 91 -36 140q-47 20 -62 20q-72 0 -72 -121q0 -117 74 -186q38 -22 80 -54q26 -58 87 -170q200 -315 521 -315q179 0 334 106q152 103 228 269q12 40 45 109q8 12 27 20q24 11 30 16q36 29 66 81q32 56 32 99zM1392 872q0 -50 -29 -50q-4 0 -58 29t-106 29
q-59 0 -106 -29t-58 -29q-29 0 -29 50q0 72 63 113q54 36 130 36q74 0 130 -37q63 -42 63 -112zM1301 642q-35 125 -125 125q-91 0 -126 -125q9 172 126 172q96 0 118 -108q7 -33 7 -46v-18zM1283 543q0 -115 -107 -115q-108 0 -108 113q0 117 108 117q107 0 107 -115z
M858 872q0 -50 -29 -50q-8 0 -59 29t-107 29q-54 0 -105.5 -29t-58.5 -29q-27 0 -27 46q0 73 60 116q54 37 131 37q75 0 116 -26q79 -50 79 -123zM802 648q-39 119 -126 119q-94 0 -125 -121q10 168 125 168t126 -166zM1013 369q-36 -74 -87 -74q-52 0 -91 73q36 -10 89 -10
q51 0 89 11zM784 543q0 -115 -108 -115q-107 0 -107 113q0 117 107 117q108 0 108 -115zM1193 208q-107 -69 -267 -69q-159 0 -267 69l267 -12zM1158 580q0 23 -23 23q-15 0 -20 -12v-22q10 -9 20 -9q23 0 23 20zM1259 524q-17 3 -50 8v-3q-10 -15 -31 -28v-50h21
q23 0 43 28q4 5 17 45zM655 569v26q-9 8 -20 8q-13 0 -19 -12v-22q10 -9 19 -9q10 0 20 9zM756 507v22h-6h-8q-14 0 -32 3v-3q1 -8 -11 -18.5t-20 -9.5v-50h20q15 0 36 20.5t21 35.5z" />
  </g>

</svg>
