<?xml version="1.0" standalone="no"?>
<!DOCTYPE svg PUBLIC "-//W3C//DTD SVG 1.1//EN" "http://www.w3.org/Graphics/SVG/1.1/DTD/svg11.dtd" >
<svg viewBox="0 -442 2048 2048">
  <g transform="matrix(1 0 0 -1 0 1606)">
   <path fill="currentColor"
d="M1954 570q0 -33 -19 -123q-19 -85 -32 -121q-112 -308 -220 -338q-30 -8 -99 -6q-65 3 -98 -8q-32 -29 -79 -69q-161 -123 -389 -123q-197 0 -350 96q-7 4 -61 49q-51 41 -54 41q-13 0 -39 -9.5t-39 -9.5q-97 0 -153 28q-47 24 -116 162q-51 104 -81 195q-43 130 -43 232
q0 133 16 247q13 39 36 115q42 149 122 276q96 155 210 210q15 7 125 28l106 -31q40 24 123 63q45 7 133 22q95 19 150 19q183 0 236 -7q101 -13 230 -68q25 -11 114 -103q41 -40 114 -128q5 -8 67 -141q20 -36 51 -114q39 -155 39 -384zM982 1390v17l-144 -15l-19 -82
q17 -25 96 -134q48 47 48 49q0 -2 -23 84zM1711 289q0 51 -49 51q-17 0 -33.5 -17t-16.5 -34q0 -47 50 -47q49 0 49 47zM1642 196q-34 -28 -46.5 -61.5t-24.5 -67.5q2 2 66 58q5 76 5 71zM1761 557q0 71 -13 96q-19 37 -83 51v18q1 8 -1 16q-34 22 -89 73q-2 3 -24 72
q-55 -7 -159 -7q-179 0 -251 16q-97 23 -224 110q-34 34 -103 100q-50 46 -55 58q-9 36 -18 73q-47 -92 -138 -278q-13 -31 -44 -91q-95 -151 -119 -170q-29 -24 -79 -42q-43 -16 -85 -31v-77q0 -26 25.5 -76t46.5 -70q37 -22 78 -53q21 -47 69 -141q196 -331 523 -331
q174 0 326 103q147 101 221 263q12 40 44 106q9 12 27 20q23 10 29 15q36 27 66 81t30 96zM446 1242q0 6 -2 17t-2 15q-66 -42 -132 -154q-49 -91 -98 -183q58 40 157 133q16 21 45 84q32 68 32 88zM427 289q0 19 -17 35t-36 16q-45 0 -45 -53q0 -45 47 -45q51 0 51 47z
M320 105v50q0 48 -45 108q-25 34 -48 70v-46q0 -44 44 -106q25 -36 49 -76zM1498 750q-55 -61 -111 -56q-6 -16 -4 -35q-25 107 -122 107t-122 -107q9 175 120 175q71 0 106 -61q76 3 119 34q-11 -30 -46 -46q-7 -3 -65 -21l3 -16h33q19 0 89 26zM1366 563q0 -112 -105 -112
q-104 0 -104 110q0 114 104 114q105 0 105 -112zM910 919q-8 -9 -21 -9q-19 0 -57 9.5t-57 9.5q-20 0 -61.5 -9.5t-56.5 -9.5q-12 0 -21 17q26 40 164 40q71 0 110 -31v-17zM897 665q-33 101 -122 101q-91 0 -122 -103v27q-74 8 -119 64q29 -30 106 -30q11 0 23 17
q-32 10 -63 19q-35 14 -47 43q53 -29 118 -30q36 61 104 61q110 0 122 -169zM1103 393q-35 -72 -85 -72q-51 0 -89 72q39 -11 87 -11q49 0 87 11zM879 563q0 -112 -104 -112q-105 0 -105 110q0 114 105 114q104 0 104 -112zM1280 237q-98 -113 -264 -113q-67 0 -143 32
t-119 81q77 -18 301 -18q138 0 225 18zM1244 599q0 22 -23 22q-14 0 -19 -12v-21q9 -8 19 -8q23 0 23 19zM1343 544q-5 2 -49 9v-3q-10 -15 -30 -28v-48h19q23 0 43 27q5 7 17 43zM754 588v25q-9 8 -19 8q-13 0 -19 -12v-21q9 -8 19 -8t19 8zM853 528v21q-21 0 -45 4v-4
q-11 -14 -31 -27v-48h20q14 0 35 20t21 34z" />
  </g>

</svg>
