<?xml version="1.0" standalone="no"?>
<!DOCTYPE svg PUBLIC "-//W3C//DTD SVG 1.1//EN" "http://www.w3.org/Graphics/SVG/1.1/DTD/svg11.dtd" >
<svg viewBox="0 -442 2048 2048">
  <g transform="matrix(1 0 0 -1 0 1606)">
   <path fill="currentColor"
d="M1938 1032q0 -70 -45 -70q-67 0 -67 53q0 19 14.5 44t32.5 25q8 0 22.5 -3.5t20.5 -4.5q22 -19 22 -44zM1864 1154q0 -17 -11 -43q-13 -30 -27 -30q-28 0 -40 7q-3 2 -11 14.5t-14 12.5q-2 0 -6.5 -1.5t-6.5 -1.5q-31 0 -46 7l-18 21q-5 -19 -22 -56q-44 -66 -81 -66
t-66 22t-29 58q0 82 85 142q17 12 18 12q35 0 62 -14q13 -7 27 -45q13 15 27 31t34 16q57 0 58 -60q16 10 18 10q49 0 49 -36zM2004 656q0 -64 -8 -89q-21 -65 -72 -177q-56 -123 -75 -176q-29 -82 -44 -159q-8 -79 -33 -234q-12 -52 -52 -114q-47 -72 -89 -80
q-16 -3 -39 -3q-28 0 -72 11q-50 12 -65 27q-47 47 -47 108q0 134 32 199q25 50 73 109q43 50 85 100q1 2 26 47q7 11 20 34q54 116 54 208q0 91 -25 115q-23 9 -64 25q-85 35 -119 103q-32 64 -32 129q0 23 24 72q55 113 191 113q138 0 217 -152q19 74 50 74q58 0 58 -50
q0 -67 -66 -73q46 -64 53 -76q19 -38 19 -91zM600 1391q0 -36 -30 -58t-67 -22q-41 0 -80 67q-4 8 -19 52q-10 -6 -19 -13q-20 -12 -49 -12q-8 0 -12 6q-6 -6 -24 -30q-6 0 -20 -3.5t-22 -3.5q-13 0 -25 31q-11 26 -11 42q0 36 46 36q4 0 21 -10q4 60 57 60q29 0 59 -50
l6 24q14 38 84 38q19 0 50 -32q55 -57 55 -122zM260 1308q0 -53 -67 -53q-45 0 -45 70q0 52 64 52q19 0 35 -25q13 -23 13 -44zM678 80q0 -163 -183 -163q-61 0 -102 44q-24 26 -60 97q-18 36 -32 140q-10 76 -20 151q-13 73 -44 159q-57 115 -148 352q-7 25 -7 94
q0 62 72 162q-9 0 -27 3q-39 11 -39 61q0 60 56 60q43 0 52 -75q90 153 215 153q109 0 169 -69q13 -15 30.5 -57t17.5 -60q0 -40 -22 -99q-23 -62 -51 -85q-44 -36 -87 -51q-17 -3 -49 -17q-31 -26 -31 -96q0 -75 30 -160q9 -28 30 -84q16 -38 55 -82q34 -37 67 -74
q11 -18 34 -53q47 -69 61 -120q13 -46 13 -131z" />
  </g>

</svg>
