<?xml version="1.0" standalone="no"?>
<!DOCTYPE svg PUBLIC "-//W3C//DTD SVG 1.1//EN" "http://www.w3.org/Graphics/SVG/1.1/DTD/svg11.dtd" >
<svg viewBox="0 -442 2048 2048">
  <g transform="matrix(1 0 0 -1 0 1606)">
   <path fill="currentColor"
d="M1624 -343h-1542v12q0 5 8 82q5 45 13 135q4 57 15 171l20 244q15 145 61 224q61 104 195 135q53 8 158 27q-167 131 -167 363q0 194 137.5 335t330.5 141q196 0 332 -141q133 -140 133 -337q0 -238 -167 -365q78 -7 226 -42q106 -41 155 -167q25 -65 34 -159
q13 -142 39 -427q19 -203 19 -210v-21zM1537 -248q-11 119 -33 358q-7 93 -13 185q-11 113 -39 179q-17 41 -59.5 76t-84.5 42l-138 16q-93 11 -131 28q-30 13 -33 64q236 105 236 360q0 161 -114.5 279.5t-274.5 118.5q-159 0 -274 -118t-115 -278q0 -114 64 -217
q68 -107 172 -144q-2 -52 -37 -69q-19 -9 -126 -23q-135 -16 -139 -17q-61 -11 -113.5 -69.5t-58.5 -120.5q-5 -70 -17 -210q-5 -58 -40 -440h1368zM1048 1307q-40 22 -117 22q-141 0 -236.5 -102t-97.5 -245v-27q-1 -27 14 -77q-63 82 -63 185q0 129 88.5 224t216.5 95
q99 0 195 -75zM760 503q-81 -13 -244 -38q-37 -5 -73 -10q-39 -9 -62 -39q-15 -19 -26 -136l-43 -452h-60q20 195 37 378q5 63 17 188q6 44 54 83q44 35 91 43q28 5 76 10q12 1 69 11q45 7 67 7q59 0 97 -45z" />
  </g>

</svg>
