<?xml version="1.0" standalone="no"?>
<!DOCTYPE svg PUBLIC "-//W3C//DTD SVG 1.1//EN" "http://www.w3.org/Graphics/SVG/1.1/DTD/svg11.dtd" >
<svg viewBox="0 -442 2048 2048">
  <g transform="matrix(1 0 0 -1 0 1606)">
   <path fill="currentColor"
d="M1098 1230q0 -55 -38.5 -96.5t-93.5 -41.5q-54 0 -93 42t-39 96t39 95.5t93 41.5q52 0 92 -42.5t40 -94.5zM507 1230q0 -58 -32 -97q-35 -41 -92 -41t-93.5 40.5t-36.5 97.5q0 55 37.5 96t92.5 41t91 -41q33 -40 33 -96zM1305 437q0 -39 -41 -39q-22 0 -35 17
q-16 20 -34 141q-23 153 -65 345h-22v-1113q0 -22 -20.5 -38t-43.5 -16q-13 0 -36.5 14t-23.5 26v657l-9 9h-28v-662q0 -16 -23 -30t-41 -14t-39 14t-21 31v1122h-27q-15 -118 -50 -352q-4 -43 -23 -123q-11 -28 -50 -28q-26 0 -39.5 16.5t-40.5 182.5q-15 93 -49 278h-17
v-1077q0 -25 -19.5 -44.5t-44.5 -19.5q-13 0 -36.5 14t-23.5 26v661h-31v-652q0 -21 -21 -35t-43 -14q-18 0 -39 14t-21 31v1096h-22q-22 -220 -58 -460q-13 -17 -37 -17q-49 0 -49 70q0 6 8 87q9 95 16 177l8 136q6 81 21 134q13 47 111 57q20 2 142 2q15 0 46 1t47 1
q39 0 65 -4q71 -10 92 -75q5 -15 16 -127q16 -167 27 -252q6 92 19 277q4 59 12 82q14 45 52 61.5t303 16.5q43 0 65 -3q28 -3 54.5 -26.5t33.5 -51.5q8 -32 56 -331q29 -179 29 -193z" />
  </g>

</svg>
