<?xml version="1.0" standalone="no"?>
<!DOCTYPE svg PUBLIC "-//W3C//DTD SVG 1.1//EN" "http://www.w3.org/Graphics/SVG/1.1/DTD/svg11.dtd" >
<svg viewBox="0 -442 2048 2048">
  <g transform="matrix(1 0 0 -1 0 1606)">
   <path fill="currentColor"
d="M1020 1220q0 -51 -36 -88.5t-86 -37.5t-86 38t-36 88t36 88.5t86 38.5q48 0 85 -39.5t37 -87.5zM474 1220q0 -54 -31 -90t-84 -36q-52 0 -85.5 36.5t-33.5 89.5q0 51 34 89t85 38t83 -37.5t32 -89.5zM1211 488q0 -35 -38 -35q-20 0 -32 15q-15 18 -32 130
q-22 145 -60 319h-20v-295q0 3 115 -298h-115v-434q0 -21 -19.5 -35.5t-40.5 -14.5q-12 0 -33.5 13t-21.5 24v447h-33v-444q0 -15 -21.5 -27.5t-38.5 -12.5q-16 0 -35.5 13.5t-19.5 28.5v441h-119l117 314v280h-23q-23 -196 -68 -439q-11 -25 -46 -25q-23 0 -35.5 14
t-37.5 169q-14 86 -45 257h-16v-994q0 -23 -18 -41t-41 -18q-12 0 -33.5 13t-21.5 24v610h-29v-602q0 -45 -60 -45q-16 0 -35.5 13.5t-19.5 28.5v1011h-20q-20 -195 -49 -414q-10 -26 -39 -26q-45 0 -45 64q0 -29 22 244q2 85 27 249q16 56 172 56q20 0 59 1t58 1
q58 0 90 -5q66 -10 85 -70q4 -12 14 -117q11 -108 26 -232q8 84 12 163l6 124q12 81 57 100q37 16 279 16q125 0 144 -75q5 -20 51 -306q27 -168 27 -178z" />
  </g>

</svg>
