<?xml version="1.0" standalone="no"?>
<!DOCTYPE svg PUBLIC "-//W3C//DTD SVG 1.1//EN" "http://www.w3.org/Graphics/SVG/1.1/DTD/svg11.dtd" >
<svg viewBox="0 -442 2048 2048">
  <g transform="matrix(1 0 0 -1 0 1606)">
   <path fill="currentColor"
d="M1980 520q0 -38 -21.5 -106t-117.5 -141l-164 -120q-83 -73 -83 -153q0 -76 58 -76q62 0 62 50q0 49 -49 56q42 18 62 18q60 0 93 -51q28 -44 28 -107q0 -118 -85 -187q-79 -64 -200 -64q-129 0 -180 82q-38 60 -46 203q-200 -169 -312 -169q-64 0 -162 55
q-86 48 -142 103q1 -15 1 -30q0 -244 -229 -244q-119 0 -196 65q-83 70 -83 186q0 158 121 158q17 0 60 -18q-47 -14 -47 -56q0 -50 60 -50q56 0 56 76q0 77 -77 148q-12 11 -156 116q-94 69 -120 128q-29 67 -29 128q0 240 317 236q-70 87 -70 181q0 189 163 295
q87 41 173 83l-30 136l182 -96q8 9 50 108l81 -108l77 177l78 -177l81 112q13 -38 44 -112l188 96l-38 -155q159 -68 234 -128q121 -97 121 -224q0 -120 -97 -189q2 -2 114 -2q-8 0 39 -6q84 -11 137.5 -76t53.5 -151zM1343 1347l-128 -77q-15 31 -39 96l-77 -100
q-21 39 -74 154q-23 -52 -73 -154l-77 100q-13 -33 -43 -96l-128 77q27 -107 43 -177q69 -23 276 -23q179 0 281 23zM1941 530q0 103 -69 148q-51 34 -155 40q-83 2 -166 3q52 37 96 105q47 74 47 132q0 164 -286 290q-25 11 -37 10q-9 -49 -38 -142q-167 -27 -306 -27
q-172 0 -316 30q-12 53 -39 159h-13q-291 -118 -291 -326q0 -61 48 -131q44 -58 87 -115l-156 17q-226 0 -226 -208q0 -118 101 -185q150 -100 182 -129q103 -91 103 -186q0 -125 -99 -125q-48 0 -77.5 35.5t-25.5 83.5q-57 -35 -57 -108q0 -97 76 -155q69 -53 169 -53
q191 0 191 204q0 364 -193 424v11q0 16 22 83q34 104 161 161q124 43 248 87q154 59 229 157q8 11 28 30q137 -87 237 -200q120 -138 140 -269q4 -20 11 -61q-102 -28 -153 -192q-36 -120 -36 -260q0 -26 1 -35q8 -64 65 -103q52 -37 119 -37q99 0 170 53q77 59 77 155
q0 75 -57 108q1 -8 1 -15q0 -104 -102 -104q-97 0 -97 123q0 115 142 226q52 31 151 99q93 70 93 192zM1532 346q-7 22 -10 39q-16 101 -133 224q-94 100 -206 171q-55 -76 -138 -123q-30 -17 -168 -75q27 -4 45 -55q13 -40 13 -76q0 -4 -2 -6q-29 81 -81 81q-64 0 -93 -89
q-3 8 -2 27q-3 -1 -7 -1q-48 0 -74 48h4q41 -21 84 -20q0 8 5 14l-13 4q-15 1 -57 25q-25 0 -91 -49q-62 -46 -76 -115q-1 -8 -6 -24q141 -74 172 -254q3 -31 10 -70q42 -71 137 -135q101 -67 178 -67q99 0 235 119q79 69 95 102q31 86 62 171q39 99 117 134zM784 556
q-16 -6 -50 -17q4 0 12.5 -2.5t12.5 -2.5t25 22zM1174 1225q-9 -9 -18 -9q-5 0 -8 2t-4 2l-5 5v37q9 8 17 8q9 0 18 -9v-36zM1054 1262q0 -42 -27 -42q-31 0 -31 40q0 41 31 41q27 0 27 -39zM907 1225q-5 -3 -13 -9q-21 13 -21 27q0 25 26 27l8 -9v-36zM1373 514
q-6 -17 -34.5 -35.5t-46.5 -14.5q-5 -11 -4 -27q-5 35 -30 62t-59 27q-62 0 -85 -81q0 146 85 146q33 0 56 -28.5t27 -28.5q9 0 42 12t37 18q-1 -29 -76 -60v-10q3 -3 18 -3q41 0 70 23zM1274 347q0 -95 -73 -95q-77 0 -77 95q0 94 75 94t75 -94zM923 347q0 -95 -73 -95
q-77 0 -77 95q0 94 79 94q71 0 71 -94zM1061 166q-14 -26 -34 -26q-16 0 -42 26q17 -3 38 -3t38 3zM1129 51q-34 -77 -104 -77q-64 0 -102 72q7 3 35 23.5t33 20.5q1 0 34 -23q23 23 35 23q3 0 25 -20t44 -19zM1185 390q-9 9 -18 9q-8 -5 -8 -17q0 -9 4 -18h18zM1254 315v21
q-10 2 -29 4q-8 -23 -24 -23v-45q53 9 53 43zM838 377q0 21 -22 21q-7 -9 -7 -19q0 -7 3 -15h17q3 5 9 13zM908 327q0 13 -34 13q-3 -16 -20 -23v-41q3 -1 7 -1q15 0 31 18.5t16 33.5zM1058 12h-65l-4 -9q20 -13 34 -13q23 0 35 22z" />
  </g>

</svg>
