<?xml version="1.0" standalone="no"?>
<!DOCTYPE svg PUBLIC "-//W3C//DTD SVG 1.1//EN" "http://www.w3.org/Graphics/SVG/1.1/DTD/svg11.dtd" >
<svg viewBox="0 -442 2048 2048">
  <g transform="matrix(1 0 0 -1 0 1606)">
   <path fill="currentColor"
d="M1950 954q0 -129 -43 -171l-19 -19q0 18 14 -50q5 -24 5 -86q0 -66 -9 -114q-9 -29 -24 -88q-12 -89 -23 -177q-22 -111 -80 -149q-48 -31 -107 -43q-29 3 -91 -9q-52 -52 -130 -124q-185 -151 -427 -151q-67 0 -123 8q-197 30 -365 196q-20 29 -69 70q-36 3 -95 10
q-94 19 -139 76q-35 44 -48 129q-9 78 -19 157q-6 20 -17 61q-20 80 -20 148q0 60 23 138q-62 43 -62 167q0 252 124 329q78 48 168 48q12 0 35.5 -7.5t35.5 -7.5q36 23 110 63q60 26 168.5 48.5t174.5 22.5h236q155 0 324 -63q46 -17 80 -38q54 -33 49 -33q12 0 35.5 7.5
t35.5 7.5q68 0 134 -31q71 -34 102 -89q1 -1 22 -65q34 -101 34 -171zM1881 932q0 62 -13 127q-9 22 -25 66q-4 17 -18 50q-17 27 -65.5 54t-80.5 27q-60 0 -75 -17.5t-15 -75.5q0 -195 70 -374q16 1 28 9q7 38 14 77q5 11 75 11q6 0 73 -44q32 88 32 90zM1815 311
q0 8 -1 14q-33 -47 -71 -76q-19 -10 -53 -36q-23 -38 -74 -110q17 1 49 8q60 19 105 78.5t45 121.5zM1827 641q0 147 -95 178q2 -64 2 -49q0 -12 -2 -24q-52 -6 -83 -15q-19 25 -51 79q-69 159 -69 387q0 23 1 45q-154 122 -514 122q-370 0 -515 -122q2 -23 2 -40
q0 -132 -39 -288q-28 -114 -81 -183q-29 6 -86 19v22q0 29 3 47q-99 -17 -99 -178q0 -73 32 -156q32 -86 81 -137q29 -17 79 -55q23 -22 60 -82q47 -77 56 -89q95 -131 242 -199q125 -58 263 -58q306 0 504 254q49 78 120 174q189 157 189 348zM439 1082v142q0 32 -86 32
q-32 0 -77 -24t-66 -50q-8 -10 -25 -65q-8 -18 -21 -54q-13 -55 -13 -129q0 -7 32 -92q28 18 55 36q14 7 66 7q11 0 17 -1q7 -29 23 -86q8 -3 25 -9q16 37 42 112q28 115 28 181zM412 103q-22 40 -75 112q-15 9 -44 30q-37 30 -80 80v-32q0 3 14 -32q45 -113 136 -150
q16 -2 49 -8zM1478 902q0 -6 -32 -56h-12q-13 0 -55.5 12.5t-74.5 12.5h-27q-18 -1 -27 -1q-20 0 -56 -14t-53 -14q-25 0 -64 24q-5 29 -17 86q63 47 89 57q30 11 105 11q224 0 224 -118zM1474 1090q-7 -23 -8 -36h-12q-3 0 -51.5 22.5t-61.5 25.5q-22 5 -69 5
q-84 0 -148 -21q-7 -2 -53 -24q-27 -13 -57 -13q-22 0 -54 14q-50 22 -52 23q-62 21 -130 21q-74 0 -211 -54l-13 33q83 71 236 71q54 0 126.5 -31t97.5 -31t99.5 31t128.5 31q137 0 232 -67zM1562 606l-119 -38l112 -57q-6 -10 -17 -29l-133 73q2 12 4 37l145 47
q2 -11 8 -33zM1362 689q-27 96 -101 96q-85 0 -100 -96q3 70 23 97q24 33 90 33q44 0 64 -31q24 -38 24 -80v-19zM1348 599q0 -94 -87 -94q-86 0 -86 96q0 92 86 92q87 0 87 -94zM968 957q-4 -32 -17 -95q-42 -20 -60 -20q-17 0 -53.5 14t-56.5 14q-9 0 -28 1h-27
q-23 0 -47 -3q-12 -2 -44 -13q-28 -9 -45 -9q-6 0 -21 24.5t-15 31.5q0 119 201 119h34q23 -1 34 -1q47 0 79 -18q33 -23 66 -45zM1466 392q-42 -28 -99 -34l-104 -12q89 -51 109 -78q29 -39 29 -135q0 -71 -109 -130l-3 3q67 87 67 92v27q0 54 -10 82q-40 112 -170 145
q0 12 8 34q42 -11 52 -11q99 0 206 53q4 -4 24 -36zM871 689q-25 96 -100 96q-78 0 -100 -92q5 126 98 126q102 0 102 -113v-17zM857 599q0 -94 -86 -94q-87 0 -87 94t87 94q86 0 86 -94zM1148 389q-69 -76 -132 -76q-69 0 -132 76q62 -11 132 -11q72 0 132 11zM1279 258
q-105 -67 -263 -67q-157 0 -263 67q261 -12 263 -12q3 0 263 12zM627 556l-137 -74l-13 25q37 20 108 65l-115 33q2 11 4 34q48 -11 136 -44q18 -9 17 -39zM1163 102q0 -44 -32 -109q-106 -25 -113 -25q-50 0 -118 32q-58 27 -58 120v1q15 -21 38 -50q57 -68 167 -68
q84 0 115 109q1 -5 1 -10zM857 357q-70 -21 -122 -73q-58 -59 -58 -126q0 -86 84 -162q-80 44 -88 51q-42 33 -42 88q0 94 28 130q12 15 106 80q-38 0 -114 8q-29 13 -85 38q6 12 20 37q123 -53 210 -53q11 0 52 11q1 -14 9 -29zM1428 908q0 15 -13 30q-37 42 -112 42
q-144 0 -197 -43q3 -18 7 -37t24 -19q11 0 46.5 11.5t57.5 11.5h78q25 0 100 -19q9 16 9 23zM1244 642l-26 4l-4 -25l25 -4zM1328 575v14q-25 0 -37 4q-7 -20 -27 -27v-42h16q13 0 30.5 18.5t17.5 32.5zM926 933q-52 48 -162 48h-38q-42 0 -77 -16q-45 -20 -45 -57
q0 -6 9 -23q73 20 168 20q29 0 47 -3q8 -1 34 -11t31 -10t25 8q1 21 8 44zM753 621q0 4 -2 12.5t-2 12.5h-26l4 -29zM837 575v14q-25 0 -37 4q-7 -20 -27 -27v-42h16q12 0 30 19t18 32z" />
  </g>

</svg>
