<?xml version="1.0" standalone="no"?>
<!DOCTYPE svg PUBLIC "-//W3C//DTD SVG 1.1//EN" "http://www.w3.org/Graphics/SVG/1.1/DTD/svg11.dtd" >
<svg viewBox="0 -442 2048 2048">
  <g transform="matrix(1 0 0 -1 0 1606)">
   <path fill="currentColor"
d="M1962 -124q0 4 -5 -12l-15 -5l-318 126q-5 0 -9 -7q-46 -73 -80 -112q-198 -228 -513 -228q-372 0 -594 340q-2 3 -8 7l-321 -126q-17 5 -17 17q0 27 138 87q88 37 175 74q-9 28 -32 75q-2 2 -32 19q-39 21 -77.5 76t-48.5 100q-8 38 -8 90q0 121 91 173q-26 137 -26 214
q0 147 50 260q72 162 246 276q159 105 349 135q11 1 34 6q17 56 79 56q9 0 35.5 -10.5t33 -17t14.5 -28.5q145 -23 213 -52q233 -99 345 -232q129 -155 129 -388q0 -75 -19 -230q76 -51 76 -166q0 -117 -74 -205q-38 -26 -93 -76q-16 -22 -31 -75q87 -37 174 -73
q139 -63 139 -88zM1702 919q-1 3 -22 63q-39 110 -159 219q-115 103 -232 143q-98 33 -113 32q198 -138 268 -437q177 -20 258 -20zM1378 939q-21 117 -101 256q-89 154 -182 195q-13 6 -44 6q-84 0 -98 -6q-24 -10 -61 -39q-149 -116 -222 -410l409 5zM871 1379h-13
q4 0 -77 -21q-142 -37 -275 -166q-140 -136 -160 -273h31q55 0 222 20q7 27 22 80q66 236 250 360zM1767 404q0 101 -86 118q-14 -32 -28 -63q-13 -17 -70 -17q-33 0 -37 3l27 224q2 14 -31 87l-42 94q-59 0 -177.5 4.5t-178.5 4.5h-210q-208 0 -405 -14q-66 -105 -66 -123
q0 -35 4.5 -107t4.5 -109l-6 -3q-103 19 -98 19q-91 0 -91 -118q0 -37 5 -56q29 -109 110 -148q13 -4 32 -16q20 -44 60 -119q68 23 192 53q142 34 189 35l3 -3q6 -23 6 -40q0 -8 -2 -15q-237 -23 -363 -81q203 -288 513 -288q318 0 509 292q-146 50 -363 81q3 31 11 54h10
q82 0 375 -88q20 52 58 121q9 4 30 14q50 26 82.5 86t32.5 118zM1428 668q-7 -8 -19 -8q-3 0 -64 25q-34 14 -90 13h-93q-5 15 -5 11q0 38 90 38q142 0 181 -66v-13zM1523 530q0 -20 -59 -24q-48 -3 -93 -13q26 -22 26 -79q0 -50 -30 -47q2 11 8 31q-18 6 -35 6
q-13 0 -18 -13t-28 -13v-46l-6 5q-8 0 -25 -2.5t-26 -2.5q-32 0 -39.5 29.5t-12.5 58.5q-75 -35 -66 -35q-26 0 -26 21q0 12 46 41q168 106 355 106q29 0 29 -23zM883 698q1 0 -92 0q-48 0 -74 -5q-11 -2 -43 -17.5t-43 -15.5q-15 0 -15 17q0 32 75 54q58 16 104 16
q63 0 88 -28v-21zM1105 224q-30 -68 -83 -68q-42 0 -89 68q36 -10 89 -10q47 0 83 10zM948 406q0 -21 -23 -21q3 0 -66 35q-3 -30 -27 -87h-44q42 25 42 65q-14 6 -31 6q-13 0 -18 -13t-28 -13v-38q-36 12 -106 42v25q-1 47 23 86q-51 5 -149 30v18q13 12 45 12
q161 0 331 -102q51 -31 51 -45zM1169 30q-67 -60 -147 -60q-82 0 -147 60h17q22 0 65 -3.5t65 -3.5t65 3.5t65 3.5h17zM1275 448q0 21 -22 21q-13 0 -19 -12v-18q9 -8 19 -8h5q17 0 17 17zM730 436v25q-11 4 -29 4h-8v-25q8 -9 19 -9q6 0 18 5z" />
  </g>

</svg>
