<?xml version="1.0" standalone="no"?>
<!DOCTYPE svg PUBLIC "-//W3C//DTD SVG 1.1//EN" "http://www.w3.org/Graphics/SVG/1.1/DTD/svg11.dtd" >
<svg viewBox="0 -442 2048 2048">
  <g transform="matrix(1 0 0 -1 0 1606)">
   <path fill="currentColor"
d="M1950 14h-23h-71l49 -361h-591l-42 471l-6 7q-106 -65 -250 -65q-121 0 -238 57l-49 -469h-594l76 371q-6 2 -12 2q-19 0 -57.5 -9t-59.5 -8q36 219 115 657q18 93 64 274q1 2 2 3q14 6 34 15q38 19 65 59.5t46 127.5q14 68 28 137q109 11 261 39q6 2 40 29q21 16 69 16
q7 0 19.5 -2t19.5 -2l65.5 34t103.5 34q42 0 106.5 -34t66.5 -34q7 0 20 2t20 2q46 0 69 -17q35 -26 39.5 -28t258.5 -35q1 -2 34 -141q23 -97 43 -129q11 -18 54 -38q39 -18 46 -38q27 -83 68 -296q35 -211 111 -631zM1601 1056l-53 178l-184 19q-2 -6 -5 -18zM1283 1249
q0 23 -26 23q-27 0 -27 -23q0 -26 27 -26q26 0 26 26zM1200 1281q0 25 -32 25q-29 0 -29 -25q0 -28 29 -28q32 0 32 28zM1113 1299q0 41 -40 41t-40 -40q0 -39 40 -39t40 38zM999 1299q0 41 -42 41q-41 0 -41 -40q0 -39 41 -39q42 0 42 38zM1863 85v14q0 -2 -9 52l-54 382
q-35 224 -90 374q-17 46 -85 85l-110 60q28 -52 41 -123q8 -65 17 -129q63 -34 63 -139q0 -94 -43 -152q-16 -16 -43 -49q-5 -9 -5 -28q0 -49 40 -80q36 -28 87 -28q53 0 98 34q2 -6 3 -13q0 -65 -71 -141.5t-138 -86.5zM889 1281q0 25 -28 25q-13 0 -29 -12v-25
q17 -16 29 -16q28 0 28 28zM798 1249q0 23 -27 23q-26 0 -26 -23q0 -26 26 -26q27 0 27 26zM1522 416v29q-16 15 -28 15q-29 0 -29 -30q0 -26 31 -26q14 0 26 12zM1553 316q0 24 -17.5 42.5t-41.5 18.5q-55 0 -55 -59q0 -55 55 -55q59 0 59 53zM669 1235v18l-185 -19
l-53 -178zM1579 675q0 89 -60 89q-9 -24 -33 -68q-143 222 -196 417q-132 -129 -287 -129q-209 0 -260 129q-89 -280 -201 -417q-21 43 -29 68h-17q-43 -23 -43 -91q0 -120 113 -178q140 -357 450 -357q253 0 398 244q21 51 52 113q22 12 62 46q51 61 51 134zM1818 -275
l-42 303q-70 3 -141 6q-85 4 -137 22q-32 11 -77 49q-66 55 -72 59l37 -439h432zM567 416v29q-16 15 -29 15q-28 0 -28 -30q0 -26 28 -26q17 0 29 12zM513 1052l-108 -62q-69 -40 -84 -81q-68 -190 -130 -633q-22 -155 -22 -171v-19l295 27q-7 5 -20 12q-18 6 -53 23
q-46 29 -85 87q-43 62 -46 114v7l2 2q46 -34 98 -34q123 0 123 106q0 26 -28 58q-18 19 -35 51q-28 51 -28 124q0 104 67 140q9 63 18 127q12 74 36 122zM597 318q0 22 -18.5 40.5t-40.5 18.5q-55 0 -55 -59q0 -55 55 -55q59 0 59 55zM695 172q-49 -44 -161 -109
q-38 -13 -116 -16q-115 -3 -120 -4l-61 -316h420zM1302 916q-3 0 -8 -2t-9 -2q-3 0 -33.5 9.5t-51.5 9.5q-15 0 -46 -9.5t-48 -9.5q-8 7 -8 13q0 40 102 40q80 0 102 -36v-13zM1382 801q-35 -37 -81 -42q-9 -8 -8 -22q-17 44 -32 58q-20 18 -61 18q-70 0 -93 -76
q14 73 20 87q19 42 71 42q40 0 62.5 -24.5t26.5 -24.5q21 0 79 26q-6 -19 -33 -32l-46 -16v-9q5 -3 14 -3q27 0 81 18zM1511 562l-5 -29h-24q-9 9 -9 17q0 19 10 17zM1280 660q0 -86 -80 -86t-80 84q0 87 80 87t80 -85zM934 925q-11 -13 -17 -13q-14 0 -42.5 9.5t-42.5 9.5
q-17 0 -49 -9.5t-49 -9.5q0 2 -2 6t-2 9q0 38 91 38h29q69 0 84 -40zM923 772q0 -4 -1 -13v-14q-23 68 -92 68t-91 -76l-3 16q-15 4 -39 12q-16 6 -50 40q19 -7 58 -22l40 3v9q-22 8 -46 17.5t-33 30.5q46 -27 87 -26q18 49 79 49q38 0 64.5 -27.5t26.5 -66.5zM1078 528
q-20 -49 -62 -49q-37 0 -66 49q34 -3 67 -3t61 3zM912 660q0 -86 -80 -86q-79 0 -79 86q0 85 79 85q80 0 80 -85zM1215 410q-93 -48 -199 -48q-95 0 -199 48h398zM555 562l-4 -29h-25q-9 9 -9 17q0 19 10 17zM1184 699q-6 2 -17 4q-5 -8 -5 -19v-3q0 -4 1 -8h17zM1264 650
h-37q-6 -13 -23 -20v-36h17q40 15 43 56zM817 682q-2 6 -4 17q-6 2 -18 4q-5 -8 -5 -19v-3q0 -4 1 -8h17zM893 636v14h-34q-5 -19 -26 -19v-37h17q13 9 26 17q17 12 17 25z" />
  </g>

</svg>
