<?xml version="1.0" standalone="no"?>
<!DOCTYPE svg PUBLIC "-//W3C//DTD SVG 1.1//EN" "http://www.w3.org/Graphics/SVG/1.1/DTD/svg11.dtd" >
<svg viewBox="0 -442 2048 2048">
  <g transform="matrix(1 0 0 -1 0 1606)">
   <path fill="currentColor"
d="M1465 779q0 -105 -25 -264q-32 -211 -80 -219q-31 29 -79 146q-57 139 -88 188q-60 93 -132 93q-40 0 -67 -66q-21 -53 -21 -101q0 -28 14.5 -51.5t57.5 -61.5q46 -41 61 -60q67 -87 67 -159q0 -22 -81 -245.5t-97 -247.5t-38 -24q-40 0 -63 66q-18 51 -18 101
q0 36 14 108t14 108q0 69 -99 121q-80 31 -160 63q-67 23 -186 84q-25 18 -50 74.5t-25 88.5q0 37 2.5 110t2.5 110q0 38 -22 70q-48 -44 -96 -89q-75 -68 -96 -68q-46 0 -73 106q-20 77 -20 144q0 148 52 214q59 74 203 74q30 0 90 -4t90 -4q23 0 36 4q29 9 52 85
q29 97 56 133q51 69 152 69q105 0 147 -70q23 -39 40 -153q17 -107 48 -149q15 -20 68 -40q21 -8 50 -12q58 -4 115 -7q70 -5 109 -31q75 -49 75 -234zM1377 774q0 147 -80 175q-17 6 -82 12q-96 9 -141 24q-78 25 -109 85q-13 26 -28.5 120t-34.5 133q-30 64 -89 64
q-70 0 -102 -75q-26 -69 -51 -138q-42 -75 -137 -75q-31 0 -93 9.5t-93 9.5q-162 0 -162 -223q0 -40 11 -111l82 76q50 44 99 44q44 0 72 -37t28 -82v-161q0 -9 -1.5 -28t-1.5 -28q0 -33 16 -75q34 -91 171 -139q113 -38 227 -76q114 -57 114 -177q0 -17 -14 -115h17
q18 24 51.5 116t33.5 120q0 32 -58 110q-42 54 -83 107q-49 71 -49 133q0 93 37 157q46 78 132 78q165 0 288 -272q30 157 30 239zM908 1139q0 -14 -14.5 -49t-24.5 -42h-15q-25 42 -25 77q0 15 14 52.5t25 37.5h16q24 -61 24 -76zM797 1155q0 -98 -33 -98q-14 0 -26 28
q-11 24 -11 40q0 41 43 109q27 -9 27 -79z" />
  </g>

</svg>
