<?xml version="1.0" standalone="no"?>
<!DOCTYPE svg PUBLIC "-//W3C//DTD SVG 1.1//EN" "http://www.w3.org/Graphics/SVG/1.1/DTD/svg11.dtd" >
<svg viewBox="0 -442 2048 2048">
  <g transform="matrix(1 0 0 -1 0 1606)">
   <path fill="currentColor"
d="M1727 1223l-1 -31q-2 -76 -56 -204q-54 -132 -107 -180q103 -173 103 -288q0 -138 -47 -295q-1 -4 -70 -129q-25 -52 -86 -151q-87 -110 -207 -189q-6 -4 -106 -52q-123 -59 -247 -59q-71 0 -110 9q-271 63 -451 291q-14 17 -74 129q-30 49 -81 151q-4 10 -25 103
q-24 106 -24 194q0 104 105 286q-62 62 -111.5 176.5t-49.5 201.5q0 325 66 325q10 0 14 -9q7 -24 22 -71q38 -118 86 -190q21 -32 79 -87q65 -63 89 -63q-7 0 67 47q140 89 398 89q242 0 391 -85q4 -2 39 -28q31 -23 35 -23q25 0 90 63q57 54 78 87q59 90 111 269h17
q63 -72 63 -287zM1431 258q0 63 -27 135q-30 79 -74 113q-27 21 -85 40t-93 19h-498q-78 0 -179 -59q-38 -22 -72 -109q-32 -80 -32 -131q0 -74 42 -190.5t88 -179.5q39 -52 174.5 -112t225.5 -60q115 0 238 64q38 17 113 64q19 13 52 44q48 56 87.5 171t39.5 191zM1363 332
q0 -4 -14 -19t-15.5 -19t-1.5 -43v-4q-3 0 -9.5 -2t-10.5 -2t-27.5 62.5t-54.5 62.5q-37 0 -56.5 -55t-37.5 -55q-27 0 -27 19q0 37 31 85q34 52 68 52h40q23 0 53 -35q27 15 28 15q8 0 15 -8v-13q0 7 -16 -31v-5q9 4 26 12q9 -8 9 -17zM1287 146q0 -20 -19 -20q-3 0 -9 2
t-7.5 3t-4 6t-2.5 9q0 21 21 21t21 -21zM1208 146q0 -20 -19 -20q-10 0 -23 12v17q7 12 21 12q21 0 21 -21zM1245 86q0 -3 -2 -8.5t-2 -8.5q-3 0 -8 -2t-8 -2q-15 0 -21 12v17q7 13 21 13q20 0 20 -21zM978 61q0 -15 -31 -29q-26 -12 -44 -12q-19 0 -47 13q-32 15 -30 32
q34 -11 77 -11q36 0 75 11v-4zM697 277q0 -19 -27 -19q-17 0 -38.5 55t-55.5 55t-53 -60.5t-29 -60.5h-20v27t-31 49v17l10 9q10 -6 18 -6q2 0 6 1q-15 29 -15 45q4 5 13 5q12 0 27 -15q3 2 31 27q9 8 49 8h12q36 0 71 -51q32 -48 32 -86zM1169 -19q-87 -116 -266 -116
q-110 0 -206 57q-14 8 -40 27q-4 4 -20 32q132 -45 266 -45q132 0 266 45zM640 146q0 -20 -23 -20q-5 0 -18 12v17q7 12 20 12q21 0 21 -21zM988 -163q-41 -22 -85 -22q-65 0 -81 26zM561 146q0 -3 -2.5 -8t-2.5 -8q-4 0 -11 -1t-10 -1q-5 0 -12 2q0 3 -2 8t-2 8q0 21 21 21
t21 -21zM602 84q0 -19 -23 -19q-18 0 -18 21t18 21q23 0 23 -23z" />
  </g>

</svg>
