<?xml version="1.0" standalone="no"?>
<!DOCTYPE svg PUBLIC "-//W3C//DTD SVG 1.1//EN" "http://www.w3.org/Graphics/SVG/1.1/DTD/svg11.dtd" >
<svg viewBox="0 -442 2048 2048">
  <g transform="matrix(1 0 0 -1 0 1606)">
   <path fill="currentColor"
d="M1944 874q0 -42 -19 -107q-3 -9 -25 -63q-21 -50 -21 -54q0 17 14 -49q5 -24 5 -80q0 -223 -142 -360q-23 -17 -68 -53q-24 -36 -62 -90q-99 -136 -233 -225q-149 -97 -303 -110q-33 -3 -75 -3q-315 0 -562 282q-33 45 -102 132q-22 15 -63 46q-76 60 -120 170
q-40 101 -40 205q0 73 16 120q7 20 7 17q0 2 -29 58q-40 77 -40 194q0 283 274 354q-30 55 -49 55q-8 0 -24 -4t-24 -4q-46 0 -77 30t-31 76q0 43 31.5 77t74.5 34q45 0 77.5 -32.5t32.5 -78.5q0 -32 -19 -62l73 -78q48 5 144 17q-88 28 -88 89q0 72 136 112q99 29 197 29
h406q100 0 199 -28q137 -40 137 -113q0 -64 -87 -89q15 -3 44 -5q435 -27 435 -379v-30zM1488 1370q0 44 -133 67q-92 16 -179 16h-326q-172 0 -257 -32q-51 -19 -51 -51q0 -22 32 -57h873q12 0 26.5 22t14.5 35zM1864 918q0 261 -302 323q-93 19 -137 19h-801
q-47 0 -173 -25q23 -22 34 -42l-36 -36q-50 61 -57 61q-13 0 -60.5 -25.5t-62.5 -37.5q-103 -87 -103 -237q0 -90 36 -167q26 21 57 35q4 24 14 72q7 20 21 61q31 92 124.5 168t190.5 88t119 12q87 0 195 -30q97 -27 92 -27q-6 0 90 27q107 30 193 30q368 0 458 -332
q5 -23 14 -69q39 -18 58 -35q36 62 36 167zM337 1411q0 30 -24.5 53t-55.5 23q-76 0 -76 -76t78 -76q31 0 54.5 22.5t23.5 53.5zM1818 526q0 144 -94 178q-23 192 -129 303q-114 120 -301 120q-129 0 -242 -48q-31 -13 -37 -13q-9 0 -79 23q-76 26 -92 29q-45 9 -108 9
q-373 0 -429 -426q-50 3 -78 -65q-21 -52 -21 -111q0 -83 40 -178q45 -104 109 -142q15 -5 41 -21q26 -41 73 -112q203 -301 542 -301q313 0 507 251q44 71 111 162q21 17 61 53q126 129 126 289zM1473 777q0 -6 -16 -24t-22 -18q9 0 -29 7q-70 13 -153 13
q-21 0 -59.5 -11.5t-57.5 -11.5q2 0 -58 16q-15 52 -15 51v19q96 54 187 54q223 0 223 -95zM1472 970q-6 -12 -16 -37q-121 57 -215 57q-43 0 -115 -21q-11 -3 -55 -24q-33 -16 -56 -16q-19 0 -55 17q-49 22 -56 24q-63 20 -117 20q-82 0 -217 -57q0 1 -13 36q86 70 238 70
q49 0 99 -16q12 -4 59 -29q36 -19 62 -19q19 0 60 20q51 25 61 28q51 16 99 16q126 0 214 -56q6 -4 23 -13zM1449 636q-9 -18 -38 -31t-50 -10q-5 -10 -4 -23q-21 80 -99 80q-79 0 -99 -76q8 129 99 129q59 0 84 -50q34 5 100 27q-13 -28 -91 -52q5 -12 19 -12q48 0 79 18z
M1556 493q-40 -11 -118 -37q37 -19 110 -60q-8 -16 -12 -25q-46 21 -135 72q2 11 5 33q47 17 141 50zM1343 487q0 -93 -85 -93t-85 91q0 95 85 95t85 -93zM967 814q-4 -23 -17 -66q-57 -16 -60 -16q9 0 -69 17q-23 5 -68 5q-64 0 -129 -12q-38 -7 -29 -7q-4 0 -42 40
q5 18 24 50q48 47 202 47q95 0 188 -58zM872 572q-16 80 -100 80q-74 0 -99 -76q2 10 -8 18q-59 8 -88 44q41 -20 59 -20h36l7 13q-27 9 -53.5 19.5t-41.5 35.5q35 -25 100 -28q38 47 88 47q73 0 93 -78q7 -27 7 -38v-17zM857 487q0 -93 -87 -93q-84 0 -84 93t86 93
q85 0 85 -93zM1146 279q-57 -75 -133 -75q-81 0 -129 75q32 -12 108 -12q121 0 154 12zM1526 145q-134 -63 -148 -63q-38 0 -90 24q-3 2 -19.5 13.5t-21.5 11.5q3 0 -49 -21q-69 -28 -183 -28q-74 0 -145 16q-9 2 -46 17.5t-41 15.5q10 0 -40 -24.5t-93 -24.5q-10 0 -146 63
l139 -29q150 50 150 105q0 34 -24 59q-10 10 -90 52h22q38 0 56 -8q24 -11 77 -72q4 -5 4 -12q0 -14 -30 -94q24 -6 32 -7l382 7q-30 80 -30 90q0 15 32.5 49t48.5 39q25 2 74 7q-30 -11 -80 -41q-34 -33 -34 -71q0 -31 62 -67q52 -29 92 -36zM629 444l-127 -73
q-15 10 -21 29q31 14 107 56q-37 11 -110 33q-2 4 -2 9t1 14.5t1 13.5q38 -12 146 -50q1 -11 5 -32zM1186 6q0 -24 -7 -71q-11 -37 -69 -63q-51 -22 -95 -22q-46 0 -94 21q-56 23 -70 60q-8 22 -9 69l1 1q11 -17 37 -48q60 -57 135 -57q44 0 100 35t71 75zM1423 786
q-13 52 -190 52q-75 0 -129 -35q7 -37 31 -37q11 0 40.5 7.5t50.5 7.5q29 0 87 -4t87 -4q12 0 23 13zM1241 525q-9 9 -15 9t-15 -8v-18l4 -4h21zM1324 460v17h-37q-6 -28 -27 -23v-41h24q10 0 25 18.5t15 28.5zM925 803q-111 35 -128 35q-46 0 -107 -11q-83 -16 -83 -42
q0 1 4 -11h33q19 0 57.5 3.5t57.5 3.5h48q18 0 46 -7.5t40 -7.5q18 0 32 37zM755 525q-3 7 -16 7q-5 0 -14 -3v-21l25 -4zM838 463v14h-37q-18 -25 -27 -23v-41h24q10 0 25 19.5t15 30.5z" />
  </g>

</svg>
