<?xml version="1.0" standalone="no"?>
<!DOCTYPE svg PUBLIC "-//W3C//DTD SVG 1.1//EN" "http://www.w3.org/Graphics/SVG/1.1/DTD/svg11.dtd" >
<svg viewBox="0 -442 2048 2048">
  <g transform="matrix(1 0 0 -1 0 1606)">
   <path fill="currentColor"
d="M1940 572q0 -105 -18 -151q-28 -74 -113 -87q-4 -35 -16 -105q-21 -98 -41 -147q-81 -193 -158 -250q-13 -10 -18 -19q80 -14 74 -14q7 0 33 19h13l8 -9q-42 -142 -237 -142q-65 0 -122 72q-19 -34 -83 -34q-39 0 -50 5q-3 1 -16.5 11t-19.5 10q-3 0 -26.5 -15.5
t-29.5 -17.5q-12 -4 -48 -4q-76 0 -131 96q9 0 28.5 -5t29.5 -5q20 0 20 17q0 18 -16 35q-27 26 -28 28q-32 48 -58 119q-7 27 -27 77q-14 13 -39 41q-34 48 -29 140l-5 6q-135 -18 -269 -36q-160 -21 -271 -21q-55 0 -84 9q-44 14 -77.5 59t-33.5 91q0 96 69 164.5
t165 68.5q48 0 140 -16q111 -19 142 -22t148 -3q52 0 82 10l-21 118q-13 71 -13 119q0 148 12 210q4 14 13 42q28 96 59 145q38 60 112 109q5 4 39 32q-5 40 -5 47v9q4 16 45 51q29 28 59 56q42 38 66 38q23 0 110 -38t101 -54q9 -10 16 -44h131q32 0 121 -39
q58 -25 101 -72q58 -63 72 -139q5 -27 5 -67v-323q89 -42 89 -175zM929 658v24q-1 5 -4 5h-14v-33q2 -1 6 -2q6 0 12 6zM963 619v8q0 17 -14 26l1 -5q0 -7 -6.5 -19.5t-6.5 -14.5q0 -14 11 -28q15 18 15 33zM1885 552q0 118 -65 141q-8 0 -24 4.5t-16 42.5q0 17 5.5 51.5
t5.5 51.5v219q0 29 -19.5 80t-38.5 70q-112 112 -269 108l-41 -1q-23 -35 -71 -77q-73 -63 -79 -69h-101q-60 0 -98 19q-14 7 -18.5 22.5t-10.5 48.5q-52 -31 -99 -86q-52 -61 -61 -113q67 89 117 120q6 -5 16 -17q9 -18 9 -177v-36h-23q-10 77 -16 173q-31 -42 -63 -83
q-44 -56 -70 -68q-11 -70 -11 -172q7 76 19 108q13 36 56 95l91 -188q19 38 49 83l51 -134l-93 -186q-13 17 -38 52q-1 -35 -6 -45q-8 -18 -38 -18q-31 0 -38 27q-3 10 -3 52q0 57 22 79q9 9 9 13l-30 81q-22 -63 -22 -138q0 6 12 -148l104 12q67 8 93 38q13 15 26.5 51
t26.5 49q9 -5 9 -24q0 -156 -232 -189q-111 -16 -194 -16q-62 0 -325 42q-63 10 -76 10q-57 0 -110 -28q-20 -11 -44 -51.5t-24 -63.5q0 -92 137 -107q55 -6 45 -6q32 0 81 7q67 10 81 11q73 5 219 21q147 26 441 76q173 29 212 29q16 0 22 -10q-7 -20 -19 -27q25 2 50 3
q29 4 29 31q0 22 -21 52.5t-42 30.5q-16 0 -47.5 -5.5t-47.5 -5.5q-7 0 -11 7v7q45 34 120 34q37 0 66 -51q25 -43 29 -85q97 28 133 44q66 30 112 84l3 -32q-88 -308 -165 -360q-1 0 -25 -7l-120 67h-124q-41 0 -59 53l-24 86q-64 -13 -111 -20q-8 -7 -12 -47
q-6 -48 -7 -53q-37 2 -74 2t-62 -3v-125q0 -8 78 -158q0 11 -2 32t-2 32q0 33 19 51h13q26 0 58.5 -15.5t41.5 -36.5q7 -15 40 -184q30 -16 63 -16q29 0 48 12q-75 162 -75 187q0 24 37 59t61 35q38 0 68 -59q21 -46 43 -91q46 -64 73 -64q5 0 26 17q77 63 126 159
q32 62 73 190q31 98 31 131q0 4 -1.5 11t-1.5 11q0 27 36 31q43 5 52 19q32 50 32 131zM1678 1120q0 -23 -21 -23q-12 0 -48 53q-42 62 -49 68q-45 -41 -126 -131q-12 -22 -36 -64q-6 -10 -41 -53h-17v23q0 -1 32 51q14 26 44 75q12 18 72 81q62 67 70 67q27 0 75 -66
q45 -62 45 -81zM1712 939l-81 -146l-83 101l-92 -121q79 -10 79 -137q0 -55 -16 -69h-16q-39 0 -87 8q-16 19 -19 50q-1 28 -3 55l-75 -121l-130 213l73 171q15 -42 49 -124l249 339zM1482 66q0 -19 -17 -19q-5 0 -8 2q-31 48 -63 60q-24 10 -87 10q-195 0 -292 -43
q-1 -1 -8 -35q-5 -23 -19 -23h-5q-9 15 -9 24q0 14 12.5 45.5t23.5 31.5q3 0 6.5 -2t6.5 -2q6 0 29.5 8t28.5 9q111 24 172 24q157 0 195 -31q34 -28 34 -59zM1260 52q-13 -1 -59 -5q-37 -4 -60 -4q-13 0 -50 1q3 17 53 28q38 9 66 9h50v-29zM1452 680q0 4 -2 13t-2 13h-14
q-12 -23 -12 -28q0 1 13 -28q17 17 17 30zM1520 636q0 16 -26 17q-4 -20 -23 -50v-17h29q20 39 20 50z" />
  </g>

</svg>
