<?xml version="1.0" standalone="no"?>
<!DOCTYPE svg PUBLIC "-//W3C//DTD SVG 1.1//EN" "http://www.w3.org/Graphics/SVG/1.1/DTD/svg11.dtd" >
<svg viewBox="0 -442 2048 2048">
  <g transform="matrix(1 0 0 -1 0 1606)">
   <path fill="currentColor"
d="M1970 948q0 -50 -11 -144q-37 -321 -163 -529q-57 -94 -107 -134q-13 -4 -40 -27q-23 -52 -64 -138q-191 -338 -559 -338q-346 0 -543 322q-25 40 -48 86q-8 22 -29 64q-22 15 -55 39q-65 53 -149 233q-8 16 -25 65q-95 267 -95 499q0 332 327 477q235 103 617 103
q381 0 616 -103q328 -144 328 -475zM1893 963q0 83 -16 118q-147 20 -248 20q-201 0 -355 -31q-118 -23 -342 -97q71 -38 288 -129q204 -84 317 -164q148 -102 247 -257q109 248 109 540zM1854 1140q-159 321 -828 321q-706 0 -839 -327q-29 -71 -29 -140q0 -347 95 -536
q59 228 320 412q221 156 488 222q152 38 252 52q128 18 186 18q175 0 191 -1q33 -2 164 -21zM1728 350q0 17 -37 72q-102 152 -358 281q-67 34 -70 34q-27 0 -67.5 -12t-53.5 -12q-15 0 -15 18q0 13 20.5 28.5t33.5 13.5l-333 159q-202 -92 -321 -187q-24 -19 -63 -63
q-44 -49 -51 -69q-2 -5 -2 -64q0 -17 -6 -26q-17 -2 -46 -10q-11 -6 -27 -52t-16 -63q0 -51 35.5 -112.5t80.5 -83.5q13 -3 32 -19q21 -48 70 -142q180 -311 492 -311q100 0 203 36q77 27 168 113q87 82 127 159q33 73 74 155q16 7 46 25q26 20 41 41q43 59 43 91zM1371 496
q-24 107 -111 107q-53 0 -79 -30q-20 -23 -37 -81q1 78 25 111q29 42 105 42q27 0 59 -21q28 -18 38 -110v-18zM1357 393q0 -112 -97 -112q-98 0 -98 112q0 107 98 107q97 0 97 -107zM924 722q-6 -8 -20 -8q-6 0 -45 11.5t-65 11.5t-63 -11.5t-42 -11.5q-21 0 -21 17
q0 48 151 48q57 0 105 -35v-22zM912 490q-36 113 -118 113q-53 0 -78 -30q-15 -19 -35 -79q13 84 24 105q23 46 89 46t93 -47q18 -31 25 -108zM1108 231q-36 -72 -82 -72q-42 0 -82 68q40 -11 82 -11q52 0 82 15zM894 393q0 -112 -102 -112q-97 0 -97 112q0 107 99 107
q100 0 100 -107zM1273 77q-102 -60 -247 -60q-144 0 -247 60q72 -6 94 -6h306q44 0 94 6zM1242 420v18q-13 12 -19 12q-10 0 -19 -8v-26q9 -8 19 -8q5 0 19 12zM1334 359v21q-25 0 -41 4q0 -9 -11 -20t-20 -10v-45h24q10 0 29 20t19 30zM779 429q0 21 -21 21q-8 0 -17 -8
v-26q9 -8 15 -8q23 0 23 21zM871 363v17q-25 0 -45 4q1 -26 -27 -30v-45h20q12 0 32 21t20 33z" />
  </g>

</svg>
