<?xml version="1.0" standalone="no"?>
<!DOCTYPE svg PUBLIC "-//W3C//DTD SVG 1.1//EN" "http://www.w3.org/Graphics/SVG/1.1/DTD/svg11.dtd" >
<svg viewBox="0 -442 2048 2048">
  <g transform="matrix(1 0 0 -1 0 1606)">
   <path fill="currentColor"
d="M1824 795q0 -161 -17 -295q-15 -49 -43 -143q-9 -42 -36 -122q-160 -336 -336 -464q-58 -42 -178 -80q-25 -4 -75 -13q-77 -18 -186 -18q-210 0 -341 67q-37 13 -106 48q-16 11 -104 105q-107 114 -193 286q-88 176 -111 327q-3 19 -9 139q-7 142 -7 161q0 89 24 203
q3 14 30 84.5t34 82.5q1 1 70 79q32 41 104 116q170 142 428 158q114 7 179 7q255 0 373 -36q249 -76 411 -324q40 -61 66 -178q23 -105 23 -190zM1741 763q0 67 -28 188q-2 10 -39 117q-15 51 -41 118q-80 116 -214 188q-128 69 -273 81q-7 1 -25.5 4t-28.5 3h-278
q-86 0 -220 -39q-27 -8 -106 -52q-75 -43 -99 -62q-94 -77 -121 -131q-76 -153 -97 -352q-1 -7 -5 -28q-4 -17 -4 -27t3.5 -29.5t3.5 -29.5q0 -29 29 -197q6 -45 25 -132q37 -126 91 -242q28 -60 149 -189q30 -37 96 -102q54 -42 193 -83q67 -20 201 -20q166 0 273 48
q45 14 121 55q64 54 139 143q83 97 113 163q59 127 84 231q58 237 58 376zM1642 935q0 -110 -73 -276q-19 -30 -54 -91q-40 -76 -134 -162q-44 -40 -167 -86q-67 -25 -61 -25h-118q1 14 1 33q0 12 -1 35t-1 34q0 80 31 199q18 68 53 147q20 26 55 80q57 111 195 177
q29 14 110 40q88 29 110 29q5 0 27 -5q27 -49 27 -129zM917 307q-13 0 -40 -2.5t-41 -2.5q-18 0 -114 29q-61 19 -78 25q-34 14 -70 42q-115 88 -203 238q-13 32 -41 94q-25 49 -41 141q-10 59 -10 73q0 114 51 114q-9 0 91 -26q43 -8 125 -32q11 -7 34 -21q97 -55 143 -107
q60 -68 90 -121q86 -150 100 -322q1 -56 4 -122zM1128 -177q-61 33 -130 33h-87q-82 0 -137 -37q0 15 8 41q43 61 171 61q56 0 95 -9q14 -3 47 -28.5t33 -36.5v-24zM1442 925q-24 -8 -67 -31q-71 -53 -113 -120q-18 -47 -55 -139q172 136 235 290zM573 552q-13 51 -63 131
q-46 74 -88 116q-9 9 -48 28q5 -12 13 -36q19 -62 75 -134t111 -105z" />
  </g>

</svg>
