<?xml version="1.0" standalone="no"?>
<!DOCTYPE svg PUBLIC "-//W3C//DTD SVG 1.1//EN" "http://www.w3.org/Graphics/SVG/1.1/DTD/svg11.dtd" >
<svg viewBox="0 -442 2048 2048">
  <g transform="matrix(1 0 0 -1 0 1606)">
   <path fill="currentColor"
d="M1976 157q0 -74 -47 -146q-52 -80 -122 -80q-22 0 -31 5q0 10 9 11q14 12 14 26q0 76 -48 115l-5 -6q-11 -108 -39 -194q-43 -134 -111 -134q-4 0 -12 2.5t-11 2.5q27 30 27 42q0 95 -67 187q0 -28 -4 -83q-5 -45 -19 -92q-9 -30 -43 -74q-38 -50 -62 -50h-20q3 13 3 26
q0 37 -26.5 95t-55.5 86q-12 -17 -22.5 -33.5t-10.5 -41.5q0 -19 7 -81q7 -67 12 -74q-94 31 -167 142q-7 -26 -23 -76q-9 -21 -77 -86q-27 25 -70 82q-6 27 -22 80q-71 -100 -167 -142q19 51 19 161q0 17 -12 36q-20 30 -21 33q-28 -26 -57 -87.5t-29 -98.5q0 -11 3 -21
h-16q-14 0 -40 20q-38 29 -65 100q-12 33 -16 88q-6 85 -7 91q-67 -101 -67 -185q0 -8 23 -44q-22 -5 -19 -5q-66 0 -111 131q-31 91 -40 189l-5 14q-47 -27 -47 -107q0 -30 27 -41q-14 -9 -35 -9q-71 0 -123 79q-46 71 -46 147q0 40 9 53q2 3 67 67q47 48 47 74q0 37 -1 42
q-3 12 -27 59q-18 36 -18 61q0 46 52 99t52 54q0 5 -10 30q-11 29 -13 35q-16 66 -16 83q0 52 45 86q43 27 87 53q29 18 29 44v165q0 41 35.5 92t72.5 70v123q29 37 91.5 65t110.5 28q33 0 43 -32q7 -28 15 -56q40 15 63 15q142 0 209 -84q88 84 215 84q22 0 65 -15
q7 29 15 58.5t43 29.5q5 0 15.5 -3t15.5 -3q87 0 171 -87v-123q36 -19 71 -71q37 -55 37 -94v-166q0 -16 30 -40q18 -8 53 -25q74 -38 74 -101q0 -38 -11 -80q-24 -90 -24 -79q0 -3 50.5 -56t50.5 -82q0 -43 -24 -93.5t-23 -60.5v-11q1 -39 53 -89q62 -59 65 -66
q9 -19 9 -53zM1511 1428q-19 -3 -35 -3t-30 3q4 8 3 17q34 0 38 -4q7 4 20 8q-2 12 -51.5 32.5t-65.5 20.5q-25 0 -31 -21q-59 -201 -59 -229q0 -21 52 -50q49 -26 73 -26h55zM1427 841q0 35 -18 63q-21 32 -54 33q-7 -16 -25 -47q-15 -15 -42 -47q55 -29 55 -90
q0 -16 -4 -31q35 22 69 43q19 18 19 76zM754 1256q0 14 -26 116q-26 99 -33 117q-5 13 -29 13t-63 -17q-43 -18 -52 -36q34 -6 58 -4l4 -17q-32 -5 -66 -3q10 -83 35 -249h18q11 -1 17 -1q36 0 83 24q54 26 54 57zM1323 739v17q-18 -5 -46 -4q1 -14 -16 -32t-30 -14
q10 -16 28 -49q64 23 64 82zM1223 770v9q-36 16 -29 16q-10 0 -19.5 -16t-9.5 -26q0 -5 9 -23h24q26 0 25 40zM1161 677q-9 18 -17 26q-8 -25 -8 -34q9 2 25 8zM1465 278q0 -11 -26 82q-15 55 -40 178q-22 -14 -52 -50q-32 -40 -32 -62q0 -53 5 -79q4 -20 45.5 -68.5
t59.5 -48.5q12 0 26 18t14 30zM1292 522q0 72 -79 110q-12 6 -34 13q-44 -2 -94 3q2 11 16 47q11 28 11 48q0 19 -17.5 70.5t-17.5 58.5q0 20 35 46q43 32 48 39l48 102q-21 14 -49 28q-15 -157 -130 -157t-130 157l-49 -24q11 -36 44 -102q5 -7 48 -43q35 -29 35 -46
q0 -19 -15.5 -64.5t-15.5 -64.5q0 -21 13.5 -54t13.5 -38q0 -10 -3 -6h-102q-13 0 -48 -25q-54 -39 -54 -98q0 -7 20 -57q6 0 19 -2t20 -2q12 0 34.5 4t32.5 5q11 19 23 38.5t36 21.5l3 -2q-27 -54 -27 -71q0 -58 102 -58t102 56q0 4 -27 75h13q44 -27 45 -61
q15 0 44.5 -2.5t44.5 -2.5q11 0 21 1q20 55 20 57zM923 669q-9 36 -9 34q-11 -11 -18 -25q10 -3 27 -9zM1292 238v199h-61q-27 -96 -42 -159l82 -40h21zM900 728q0 8 -14 16.5t-23 8.5h-20q-5 -17 -43 -48q16 -41 33 -41q18 0 42.5 23t24.5 41zM797 784q0 19 -20 19
q-23 0 -23 -27q0 -16 17 -23q26 7 26 31zM770 843q-51 53 -67 94q-72 -14 -72 -107q0 -47 21 -66q32 -21 63 -42q-1 10 -1 20q0 77 56 101zM1596 693q0 91 -52 91q-18 0 -60.5 -13.5t-56.5 -23.5q-47 -42 -150 -111q49 -42 47 -137q59 92 108 92q60 0 60 -82q0 -45 -21 -88
q-14 -29 -14 -25q0 -18 17.5 -64.5t17.5 -64.5q0 -19 -20 -43t-38 -24q-13 0 -35 17q-16 12 -32 25q-30 -27 -63 -27q-32 0 -101.5 29.5t-125.5 29.5q-123 0 -148 -3q-29 -4 -94 -32q-59 -25 -97 -25q-19 0 -47 28q-60 -42 -67 -42q-22 0 -40 22.5t-18 44.5q0 18 17.5 64.5
t17.5 64.5q0 8 -8.5 16.5t-10.5 12.5q-16 37 -16 90q0 76 60 76q26 0 60 -36l48 -56v26q0 69 47 111q-29 12 -108 77q-67 55 -113 60q-7 1 -23.5 6t-24.5 5q-52 0 -50 -89v-17q1 -83 32 -276q13 -85 46 -251q5 -19 46.5 -64t58.5 -45h26q80 -2 111 29q65 66 71 70
q32 20 132 20q7 0 21 -3.5t21 -3.5t22 3.5t22 3.5q101 0 134 -20q43 -42 104 -90q22 -8 59 -8q53 0 61 -1q41 47 88 113q79 299 79 538zM1203 416v21h-21q-12 -14 -39 -37q-34 -21 -76 -21q-119 0 -152 21q-5 3 -27 26q-11 12 -34 12v-21q0 -18 32 -39q21 -14 73 -13h38
q129 0 144 1q22 2 62 50zM1111 303v23l-5 4q-9 0 -27.5 -2t-27.5 -2q-2 -7 -4 -22q-17 0 64 -1zM1007 302v28h-60v-28q52 3 60 0zM869 281l-42 156h-63v-199h22q8 0 83 43zM743 432q0 17 -34 57q-31 37 -50 49q-15 -72 -52 -213q-18 -55 -18 -50q0 -9 18 -27t26 -18
q15 0 55 45t46 64q9 26 9 93z" />
  </g>

</svg>
