<?xml version="1.0" standalone="no"?>
<!DOCTYPE svg PUBLIC "-//W3C//DTD SVG 1.1//EN" "http://www.w3.org/Graphics/SVG/1.1/DTD/svg11.dtd" >
<svg viewBox="0 -442 2048 2048">
  <g transform="matrix(1 0 0 -1 0 1606)">
   <path fill="currentColor"
d="M1354 1246q0 -96 -210 -96q-105 0 -222 38q-121 40 -199 104q-65 53 -65 101q0 96 205 96q121 0 276 -54q67 -23 133 -73q82 -62 82 -116zM1938 -290q0 -50 -59 -50q13 0 -38 13q-6 2 -68 5q-46 2 -72 21q-6 5 -50 58q-35 42 -58 42q-7 0 -21.5 -4t-21.5 -4q-20 0 -47 5
q-9 5 -27 13q-49 13 -72 64q-18 46 -37 92h-11q-37 1 -62.5 -15t-52.5 -16q-31 0 -39 5q-13 12 -27 24q-13 -1 -28 -1q-23 0 -47 3l-5 -3q7 -40 7 -63q0 -35 -14 -67q-18 -41 -48 -41q-12 0 -16 1q-5 5 -15 13v1q-5 0 -12 -5.5t-11 -5.5q-5 0 -17 9.5t-17 9.5q-7 0 -21 -4
t-21 -4q-57 0 -69 47q-6 46 -13 93q-65 6 -65 43q0 16 17 27q14 8 29 17q11 8 30 27q-51 32 -100.5 65t-86.5 89q-27 59 -61 122q-14 6 -41 22q-8 5 -11 5h-172q-17 0 -43 17q-51 34 -82 95l-48 116q-13 11 -35 33q-13 17 -23 50q-12 41 -17 52q-14 24 -27 49q-10 20 -10 57
q0 6 12.5 49t15.5 50q6 13 30 13q6 15 22 44h33q20 -39 56 -93q22 -3 55 -32q11 -29 18.5 -90.5t18.5 -90.5q14 -12 38 -34q12 -12 65 -74h100q-3 12 -15 29q-30 1 -83 18q-14 10 -32 41t-18 48q0 8 9 26q4 0 10.5 -2t10.5 -2q20 0 42 46q0 4 -7.5 24t-7.5 45q0 8 3.5 25
t3.5 25v93q0 13 29 60q27 44 40 57q40 39 123 39q7 0 20 -3.5t20 -3.5q-4 0 35.5 22.5t68.5 22.5q70 0 100 -9q21 -15 64 -39q46 -5 135 -33q57 -30 75 -90q13 -44 13 -97q0 -29 -33 -66q-12 -68 -12 -92q10 3 37 23q24 16 36 16q61 0 84 -17q17 -24 54 -67q7 -7 89 -59
q26 -15 51 -30q29 -21 29 -48q0 -41 -56 -75q37 -22 62 -43q6 9 21 24q11 2 30 10q8 5 12 29.5t22 36.5q24 16 43 16q6 0 17.5 -1.5t17.5 -1.5q31 0 49.5 20.5t45.5 20.5q19 0 28 -10q20 -21 23 -23q23 -4 61 -25q12 -12 12 -36q0 -45 -44 -45q-6 0 -17.5 5.5t-17.5 5.5
q-3 0 -10 -6.5t-11 -7.5q-7 0 -21 -6q-41 -30 -63 -62q-1 -1 -32 -89q-21 -59 -67 -72q4 -19 28 -105q17 -56 17 -112q16 0 48 -5q54 -18 79 -67q4 -20 21 -56q18 -8 50 -24q9 -31 29 -93q2 -7 23 -34q18 -25 18 -35zM1283 1263q0 39 -65 90q-56 44 -102 59q-133 43 -226 43
q-164 0 -164 -79q0 -36 46 -76q132 -116 349 -116q162 0 162 79zM1873 503v25q-8 6 -45 22q-25 11 -42 35h-17q-21 -48 -80 -48q-6 0 -17.5 1.5t-17.5 1.5q-25 0 -32 -32q-8 -39 -18 -46q-18 -3 -50 -33q45 -48 39 -139q6 -9 15 -9q15 0 41 38q24 35 28 54q0 12 2 35
q2 10 13 26q35 4 48 28q18 32 24 36q2 1 31 1q8 0 17.5 9.5t14.5 9.5t16.5 -9.5t15.5 -9.5q3 0 7.5 2t6.5 2zM1147 956q0 30 -26 67t-54 50q-41 7 -120 29q-17 14 -53 35q-25 10 -93 10q-21 0 -59 -21t-43 -21q-8 0 -25 5.5t-25 5.5q-39 0 -77 -24q-44 -28 -75 -97
q-4 -9 -4 -19v-51q4 1 9 1q46 0 64 -24q12 24 33 73.5t24 55.5q11 19 42 47q3 1 8 1q55 0 72 -39q26 -61 45 -77q12 -10 41.5 -16.5t41.5 -15.5q80 -59 126 -59q30 0 43 8v15q1 33 -15 67h54q14 0 40 -25.5t21 -38.5zM1900 -291q0 5 -15.5 25.5t-17.5 25.5q-8 33 -32 95h-13
q-7 -16 -18 -22q-22 12 -22 47q-1 14 -4 23q-10 25 -78 84h-32q-10 -30 -26 -30q6 0 -10 3q1 16 1 32q0 166 -54 273q-1 2 -23 23q-47 -24 -100.5 -100t-53.5 -127q0 -228 154 -228q33 0 101 41l6 -6v-10l-26 -39q16 -8 71 -64q38 -39 100 -39q10 0 16 1q4 7 7 7
q9 0 27 -15.5t32 -15.5l6 1q4 5 4 15zM1554 337q0 33 -58.5 89.5t-90.5 56.5h-111q98 -72 98 -247q0 -74 -58 -142q-52 -60 -126 -93q14 -21 28 -21q23 0 40 16q22 20 32 24q18 0 54 6q0 152 131 257q17 10 49 33q12 9 12 21zM1111 852q0 29 -25 64q-5 7 -17 8q2 -16 2 -28
q0 -47 -33 -58q-13 -4 -75 -4q-41 0 -70 25q-46 40 -48 41q-18 2 -53 10q-34 13 -58 57q-18 39 -35 77h-33q-33 -64 -82 -199q-46 49 -58 49q-31 0 -31 -71q0 -18 29 -42q33 -27 35 -32q7 -18 6 -49q-2 -37 0 -49q14 -81 45 -136q26 -46 91 -71q62 -24 130 -24q46 0 124 50
q58 37 85 117q5 22 18 64q53 122 53 201zM1471 560v25q-59 32 -165 109q-9 19 -28 48q-16 14 -28 14q-3 0 -9 -1h-9q-38 0 -85 -42t-55 -80q-19 -91 -87 -167q-75 -84 -162 -84q-66 0 -171 31q-25 7 -66 47.5t-46 64.5q-13 0 -39 -2t-40 -2q-94 0 -172 146q-15 28 -21 73
q-4 39 -8 77q-5 12 -14 36h-13q-15 -12 -15 -76q0 -20 -4 -30q-5 8 -11 8q-1 0 -12 -14l-9 2v13q9 8 18 20q9 54 9 75q0 4 -10 21t-12 21q-4 23 -16 69h-18q-1 -13 -1 -30q0 11 2 -65l-3 -3q-15 11 -20 27q-6 20 -14 30q-13 -24 -13 -25q0 -7 13 -38.5t13 -38.5q0 -10 -9 -8
q-4 16 -28 42l-4 -9q2 -19 12 -54q14 -19 35 -60q6 -23 25 -65q17 -15 39 -44q37 -88 97 -173q9 -13 48.5 -32t55.5 -19t48 4t48 4q59 0 84.5 -15.5t56.5 -78.5q38 -77 65 -110q52 -62 134 -86q16 48 16 41q0 5 -10.5 26t-11.5 29q-5 29 -5 76q0 80 34 80q7 0 11 -6
q-11 -26 -11 -58q0 -55 28 -98q34 23 43 23q3 -1 5 -3v-17q-45 -60 -82 -143q-3 -13 -13 -33q-25 -14 -71 -47l8 -13h31q20 0 29.5 9.5t10.5 9.5q4 -45 16 -135l7 -7q8 -2 25 -5q16 17 14.5 51t7.5 47h10q12 -20 12 -53q-1 -53 -1 -56h32q9 12 12.5 39t13.5 40q3 -3 9 -7
v-47q0 -5 -2 -15.5t-2 -16.5q0 -5 1 -8h17q31 62 31 69q0 -10 -20 77q-21 12 -59 40l10 13q31 -8 57 -11q42 115 42 164q0 63 -9 98q-2 8 -17 44t-15 40q0 13 6 19h10q51 -43 64 -106q7 -31 7 -125q0 -61 -42 -134h39q6 0 65 36q32 17 90 66q58 72 58 126q0 75 -24 143
q-7 21 -37 55q-33 37 -50 37q-3 0 -33 -17t-35 -17q-57 0 -69 24q41 10 108 41l35 29q7 0 27.5 -8t34.5 -8q100 0 156 47zM530 646v78q-29 20 -32 20h-12l-16 -28q-10 -17 -23 -17q-7 0 -14 3q13 -21 27.5 -42.5t39.5 -21.5q5 0 15 4t15 4zM1347 609q-9 0 -21 -12
q-14 8 -86 71q-84 -82 -111 -82q3 0 -19 8v13q66 53 122 110q65 -48 115 -108zM1061 711q-7 -4 -11 -4v5q0 20 -25 20q-5 0 -13.5 -5.5t-12.5 -5.5h-20v15l15 10q26 5 27 5h12q17 0 28 -24v-16zM1023 633q0 -24 -21 -52.5t-45 -28.5q-28 0 -28 33q0 31 16 60q19 35 48 35
q30 0 30 -47zM823 782q-6 -2 -18 -4q1 2 1 4q0 26 -35 26q-5 0 -15 -5.5t-15 -5.5v14q22 15 39 15q40 0 43 -44zM786 704q0 -30 -18 -57q-20 -31 -48 -31q-11 0 -19 1q-20 18 -20 33q0 -12 6 20q5 25 23 53q21 32 42 32q34 0 34 -51zM865 515q-14 -8 -30 -8q-45 0 -45 26
q0 6 5 11q34 -19 70 -15v-14zM863 483q-21 -22 -62 -22q-37 0 -60 45q17 -8 122 -23zM967 624l-5 22q-18 -9 -18 -23q0 -6 5 -11q6 0 18 12zM1004 615h-14q-9 -9 -27 -23v-21h3q16 0 38 44zM733 696v21h-14l-8 -8v-25q10 0 22 12zM771 674l-5 13q-21 -21 -36 -31v-25
q14 15 41 43z" />
  </g>

</svg>
