<?xml version="1.0" standalone="no"?>
<!DOCTYPE svg PUBLIC "-//W3C//DTD SVG 1.1//EN" "http://www.w3.org/Graphics/SVG/1.1/DTD/svg11.dtd" >
<svg viewBox="0 -442 2048 2048">
  <g transform="matrix(1 0 0 -1 0 1606)">
   <path fill="currentColor"
d="M1600 555q0 -144 -116 -214q-11 -4 -25 -15q-5 -38 -13 -96q-8 -27 -21 -83q-20 -99 -116 -179q-89 -74 -195 -96q-133 -28 -275 -28q-514 0 -586 318q-20 89 -27 159q-144 83 -144 234q0 66 28 108q14 21 40 37q23 13 46 27q7 230 120 374q106 134 264 163q63 6 148 22
q25 11 25 50q0 63 -78 63q-13 0 -70 -10q70 67 179 67q122 0 285 -87q149 -79 267 -229q126 -162 143 -318q7 -67 7 -95q4 -5 13 -9q101 -49 101 -163zM1523 570q0 45 -34 74t-80 34q1 19 1 39q0 323 -280 536q-166 126 -321 159q-24 5 -31 5h-36q53 -19 53 -104
q0 -108 -86 -115q-31 -2 -92 -9q-209 -34 -293 -206q-34 -70 -42.5 -150.5t-15.5 -158.5q-104 -9 -104 -110q0 -125 137 -178q2 -26 7 -79q17 -221 172 -307q118 -65 363 -65q224 0 340 57q158 76 187 273q5 40 15 121l6 6q37 5 83 52.5t46 83.5q0 7 2.5 21t2.5 21z
M1268 894q0 -10 -9 -17h-17q-28 50 -49 67q-28 21 -78 21q-102 0 -126 -88h-25q-5 20 -5 17q0 52 54 85q46 28 101 28t101 -29q53 -32 53 -84zM1328 720q-19 -58 -70 -83q-27 81 -53 113q-38 47 -109 47q-73 0 -106 -43q-17 -22 -48 -110q10 103 33 146q36 68 123 68
q8 0 22.5 -2.5t19.5 -2.5q90 -7 114 -149q1 -2 4 -2q38 0 70 18zM1234 519q0 -141 -134 -141q-133 0 -133 143q0 139 133 139q134 0 134 -141zM723 896q0 -19 -19 -19q-8 0 -27 28q-21 32 -26 36q-32 24 -83 24t-78 -22q-19 -15 -50 -66h-17q-9 7 -9 17q0 52 53 85
q46 28 101 28q53 0 101 -29q54 -32 54 -82zM711 644q-27 84 -49 111q-35 42 -107 42q-70 0 -107 -48q-25 -31 -50 -112q-51 16 -75 83q46 -18 68 -18q5 0 10 6q31 150 154 150q32 0 67 -13q63 -23 84 -137q5 -27 5 -41v-23zM913 342q-40 -44 -74 -44q-36 0 -74 48
q42 -7 74 -7q13 0 38 1.5t36 1.5zM689 519q0 -141 -134 -141q-133 0 -133 141t133 141q134 0 134 -141zM974 225q-60 -99 -135 -99q-76 0 -131 102q31 -14 94 -14h63q43 0 70 5q9 2 26 6h13zM1077 570q0 25 -26 25q-27 0 -27 -27q0 -23 27 -23q26 0 26 25zM1200 495
q0 5 -1 8q-20 0 -52 8q-4 -31 -42 -39v-67q32 1 63.5 29.5t31.5 60.5zM528 568q0 27 -24 27q-25 0 -25 -27q0 -23 23 -23q26 0 26 23zM654 482v28l-5 -4q-17 0 -51 5q1 -13 -12 -26t-26 -13v-67q21 4 59 20q5 4 20 27.5t15 29.5z" />
  </g>

</svg>
