<?xml version="1.0" standalone="no"?>
<!DOCTYPE svg PUBLIC "-//W3C//DTD SVG 1.1//EN" "http://www.w3.org/Graphics/SVG/1.1/DTD/svg11.dtd" >
<svg viewBox="0 -442 2048 2048">
  <g transform="matrix(1 0 0 -1 0 1606)">
   <path fill="currentColor"
d="M1954 578q0 -21 -21 -120q-21 -95 -30 -120l-32 -57q-40 -68 -104 -213q-18 -57 -18 -50q0 2 26 -61q58 -12 73 -12q3 0 105 80q-2 -16 -2 -39v-38q0 -40 -6 -66q-8 -35 -33 -85q-39 -80 -40 -82q-199 -39 -184 -39q-15 0 -88 38q-68 35 -88 50q-29 22 -64 65
q-54 66 -58 71q-171 -110 -372 -110q-185 0 -330 83q-30 -54 -107 -147q-19 -15 -80 -45q-64 -32 -83 -32q-14 0 -243 58q-93 155 -93 165v145q17 -18 34.5 -33.5t47.5 -15.5q32 0 89 29q2 37 -9 109q-6 17 -38 74q-30 53 -81 162q-43 119 -43 232q0 132 16 247
q13 38 36 114q42 149 122 276q96 156 210 210q16 8 125 28l106 -30q40 24 123 63q46 6 133 21q99 19 155 19q180 0 234 -6q99 -13 227 -68q25 -11 114 -103q41 -40 114 -128q5 -8 67 -141q20 -36 51 -114q39 -155 39 -384zM1244 606q0 23 -23 23q-14 0 -19 -12v-22
q9 -8 19 -8q23 0 23 19zM1343 552q-17 3 -49 8v-3q-10 -14 -30 -27v-49h19q23 0 43 27q5 6 17 44zM1908 -78q-61 -34 -62 -34q-20 0 -64 9q-22 4 -52 34.5t-30 51.5q0 54 54 180q26 45 73 137q74 168 74 295q0 13 -7 93q-7 74 -29 221q-26 128 -99 232q-104 148 -185 208
q-141 104 -459 104q-122 0 -211 -16q-40 -17 -121 -47q-23 -4 -69 -14q-57 -14 -58 -14q-17 0 -51.5 9.5t-51.5 9.5q-19 0 -116 -72t-110 -92q-112 -180 -174 -468q-17 -80 -17 -91q0 -195 23 -278q14 -49 77 -166q56 -102 64 -168q1 -7 5.5 -24.5t4.5 -26.5q0 -22 -41 -88
h-101q3 0 -36 9q7 -35 20 -80q77 -112 255 -112q16 0 20 2q108 44 167 186q4 16 16 47q-13 13 -42 38q-65 48 -115 145q-33 67 -99 175q-29 22 -77 68q-8 11 -23.5 47.5t-15.5 48.5q0 3 113 132q124 141 131 150q21 23 58 72q146 224 143 376q42 18 53 18q6 0 33 -33
q75 -92 196 -187q16 -13 220 -161q49 -43 136 -111q53 -33 126 -54q29 -1 84 -10q40 -14 272 -157q-3 -36 -24 -104q-25 -45 -68 -70q-7 -4 -89 -40q-6 -48 -29 -138q-31 -81 -162 -217q19 -17 52 -54q13 -24 43 -65q84 -84 207 -84q168 0 168 178zM1738 487q-67 37 -146 82
q-32 21 -99 55q-15 5 -158 34q31 -25 31 -88q0 -112 -105 -112q-104 0 -104 110q0 114 104 114q23 0 43 -7q-84 87 -94 87q-23 0 -43 -36q-14 -27 -27 -55l-2 28q0 1 10 53q6 30 24 50q-127 78 -301 216q-31 22 -86 70q-18 28 -56 84v-33q1 -57 -14 -93l-38 -82
q29 11 100 11q100 0 133 -33v-15q-9 -9 -21 -9q-19 0 -57 9.5t-57 9.5q-8 0 -126 -21q-14 -29 -62 -122q40 -13 76 -13q4 0 9 1q42 60 103 60q63 0 95 -53q28 -45 28 -111q0 -3 1 -6l-2 -1q-38 102 -122 102q-88 0 -122 -102q-3 11 -2 30h-5q-58 -2 -95 38l-241 -283
q20 -26 65 -72q22 -10 51 -31q23 -57 75 -164q36 -64 107 -135q74 -74 136 -104q143 -69 274 -69q351 0 543 358q22 56 58 123q16 7 46 25q54 42 73 100zM663 749q-35 4 -44 6q-24 6 -38 22q-8 -9 -21 -29q40 -16 61 -16h38q0 13 4 17zM1103 400q-35 -71 -85 -71
q-52 0 -89 71q36 -10 87 -10q50 0 87 10zM879 570q0 -112 -104 -112q-105 0 -105 110q0 114 105 114q104 0 104 -112zM1280 244q-43 -50 -121 -82q-74 -31 -143 -31q-67 0 -143 32t-119 81q109 -18 204 -18q208 0 322 18zM754 595v26q-9 8 -19 8q-13 0 -19 -12v-22
q9 -8 19 -8t19 8zM853 536v20q-21 0 -45 4v-4q-11 -14 -31 -26v-49h20q14 0 35 20.5t21 34.5z" />
  </g>

</svg>
