<?xml version="1.0" standalone="no"?>
<!DOCTYPE svg PUBLIC "-//W3C//DTD SVG 1.1//EN" "http://www.w3.org/Graphics/SVG/1.1/DTD/svg11.dtd" >
<svg viewBox="0 -442 2048 2048">
  <g transform="matrix(1 0 0 -1 0 1606)">
   <path fill="currentColor"
d="M1940 705l-190 -16l-4 -3q-1 -7 -1 -16q0 -12 3.5 -40t2.5 -42q-13 2 -38 7q-2 -1 -3 -5q0 -6 2.5 -17.5t2.5 -16.5q93 -46 93 -170q0 -76 -35 -137q-19 -21 -51 -68q-4 -31 -13 -82q-5 -22 -42 -76q-13 -4 -78 -17q-201 -335 -578 -335q-57 0 -140 12q-125 18 -250 112
q-117 87 -188 203q-12 -1 -34 2q-67 28 -79 84q1 27 -10 78q-20 21 -54 68q-42 76 -42 154q0 127 94 172v39q-12 -2 -37 -7q1 6 5 95l-4 3l-190 19l15 191q43 2 129 8q20 43 30 79h17q19 0 51 1q1 2 35 107q7 16 19 49q36 102 139 184t211 95q50 6 86 10q24 34 60 100h270
q21 -34 64 -100q35 -4 105 -14q136 -24 234 -127q90 -95 128 -235q6 -24 23 -69q13 -1 68 -1l24 -72q9 -10 63 -13l72 -2zM1849 776v56q-38 2 -113 8q-20 40 -30 71h-32q-18 0 -32 1q-26 87 -40 128q-25 70 -55 123q-68 122 -192 165q-81 28 -149 28v-617zM1156 735v646
q0 -6 -42 77h-206q-42 -73 -42 -78v-645h290zM813 742v614h-24q20 0 -57 -10q-120 -16 -213 -124q-82 -97 -114 -225q-9 -36 -25 -86l-38 1q-14 0 -26 -2q-11 -24 -34 -70q-36 -2 -109 -8q0 -4 -1 -14.5t-1 -15.5q0 -12 1 -26l318 -23l159 -11h164zM1725 408q0 80 -86 103
q0 34 -5 102l-209 51q-3 3 -12 3q-21 0 -66 -2t-68 -2l-683 7q-5 0 -99 -25.5t-101 -28.5q-3 -1 -12 -11v-94q-91 -21 -91 -112q0 -57 30 -112q31 -59 80 -83q14 -4 36 -19q23 -52 70 -144q65 -106 169 -180q108 -78 226 -97q45 -6 105 -6q206 0 358 120q143 113 218 313
q140 55 140 217zM1129 840h-73q-4 -40 0 -75h-92v74q-30 2 -71 -1v84h70q1 14 1 32q0 23 -2 44h92v-74q35 -3 75 0v-84zM1363 474q-35 106 -116 106q-87 0 -119 -102q0 143 119 143q70 0 92 -42q24 -45 24 -86v-19zM1345 382q0 -104 -98 -104q-102 0 -102 104q0 100 102 100
q98 0 98 -100zM894 474q-18 57 -39 79q-27 27 -80 27q-50 0 -76 -27q-20 -20 -39 -75q6 143 115 143q107 0 119 -129v-18zM1095 228q-33 -67 -86 -67q-55 0 -86 67q36 -10 86 -10q51 0 86 10zM877 382q0 -104 -102 -104q-98 0 -98 104q0 100 98 100q102 0 102 -100zM1260 85
q-33 -24 -120 -43q-78 -17 -129 -17q-139 0 -251 59q84 -6 104 -6h294q34 0 102 7zM1228 416q0 20 -21 20q-8 0 -17 -8v-25l5 -4h24q9 9 9 17zM1322 368q-6 0 -20 2t-21 2q-4 -30 -30 -23v-48h20q30 0 51 67zM757 416q0 20 -19 20q-6 0 -15 -8v-25l5 -4h20q9 9 9 17z
M854 365v3q-15 2 -44 8q-2 -13 -34 -31v-44h23q17 0 36.5 23.5t18.5 40.5z" />
  </g>

</svg>
