<?xml version="1.0" standalone="no"?>
<!DOCTYPE svg PUBLIC "-//W3C//DTD SVG 1.1//EN" "http://www.w3.org/Graphics/SVG/1.1/DTD/svg11.dtd" >
<svg viewBox="0 -442 2048 2048">
  <g transform="matrix(1 0 0 -1 0 1606)">
   <path fill="currentColor"
d="M1944 527q0 3 -6 -38q-18 -121 -69 -220q-12 -24 -72 -183q62 -28 81 -52q25 -29 25 -89q0 -38 -9 -68q-7 -25 -46 -59t-64 -36q-10 -1 -39 -1q-35 0 -85 12q-6 -41 -11 -82q-12 -51 -47 -51q-59 0 -93 68q-26 54 -26 121q0 18 11.5 42.5t11.5 29.5q0 11 -6.5 32t-7.5 30
q-2 16 -2 106q0 24 28 125q2 9 26 53q87 164 87 198q0 26 -27 26q-24 0 -54.5 -19t-42.5 -40q-4 -14 -14 -42q-15 -18 -39 -60q-12 -34 -12 -149q0 21 13 -73q6 -43 6 -78q0 -53 -14 -92.5t-27 -79.5q-18 -37 -66 -50q-5 -1 -16 -1q-68 0 -91 9q-16 13 -45 37
q-31 -50 -47 -50q-44 0 -48 2q-34 14 -57 67q-20 46 -20 88q0 33 9 50q7 13 35 35.5t41 24.5q6 1 34 1q55 0 55 44q0 46 -60 99q-28 24 -164 24q-67 0 -98 -24q-62 -49 -62 -120q0 -11 20 -19q8 -3 33 -3h3q23 0 32 -2q54 -12 75 -56q13 -27 13 -61q0 -37 -26 -90
q-30 -60 -62 -60q-45 0 -54 7q-5 3 -30 46q-29 -35 -60 -44q-19 -5 -74 -5q-52 0 -89 54q-7 26 -22 72q-15 41 -15 71q0 36 8 109.5t8 109.5q0 65 -9 103q-13 19 -35 53q-4 18 -17 53q-10 20 -42 39.5t-55 19.5q-30 0 -30 -28q0 -11 50 -114q58 -120 61 -127
q7 -16 19.5 -77.5t12.5 -77.5v-27q0 -48 -5 -74q-10 -51 -10 -43q0 -8 11.5 -37.5t11.5 -50.5q0 -63 -31 -115q-36 -60 -95 -60q-21 0 -28 16q-8 41 -23 117q-49 -12 -80 -12q-69 0 -116 39t-47 108q0 76 17 99q12 16 89 59q-42 105 -105 240q-14 30 -35 155q-7 42 -7 46
q0 7 3 19.5t3 18.5q6 82 82 163t157 81q24 0 74.5 -8.5t75.5 -8.5q26 0 44 17q111 105 131 511q-53 35 -53 87q0 112 112 112q127 0 127 -141q0 -15 -19.5 -33t-19.5 -30q0 -98 31 -98q-5 0 64 16q62 14 119 14q9 0 188 -31q26 26 26 98q0 12 -19 30.5t-19 27.5
q0 147 126 147q113 0 113 -132q0 -26 -29.5 -47.5t-29.5 -30.5q0 11 7 -56q20 -198 37 -269q46 -191 141 -191q25 0 73 8t72 8q31 0 108 -41q85 -45 124 -169q13 -43 13 -72zM1725 561q-12 12 -33 24q-27 -36 -27 -50q0 -5 13 -17q16 12 47 43zM1676 596q-7 0 -22 2t-23 2
q-3 -14 -11 -43q18 -9 24 -9q8 0 32 48zM1732 481v7q-2 16 -4 48q-37 -37 -37 -39q0 -10 9 -28q11 3 32 12zM1604 589h-14q-14 -13 -42 -40q28 7 48 7q4 11 8 33zM1762 166q-21 -19 -25 -29q6 -2 18 -4q7 21 7 33zM1736 120q-4 0 -9 5q-17 -17 -17 -25q1 -9 4 -9h14q0 1 4 6
t4 8v15zM1725 70q-3 1 -33 9q0 -6 -2 -17t-2 -16h4q13 1 16 -4q5 5 17 28zM1713 -11v33h-32q-2 -7 -2 -12v-6q0 -3 1 -9.5t1 -9.5q16 4 32 4zM1884 527q0 45 -9 69q-59 156 -167 156q-21 0 -71 -13.5t-71 -13.5q-108 0 -173 128q-50 101 -55 226q0 10 -5 31.5t-5 31.5v197
q46 50 46 65q0 66 -53 66q-41 0 -57 -7q-26 -12 -26 -73q0 -21 42 -47q1 -10 1 -21q0 -181 -81 -181q-5 0 -45 15q-43 16 -51 18q-36 9 -91 9q-52 0 -91 -9q-9 -2 -53 -18q-40 -15 -45 -15q-79 0 -79 170q0 16 1 32q42 26 42 62q0 42 -22 55q-16 10 -61 10q-53 0 -53 -65
q0 -37 46 -70v-184q0 19 -11 -68q-17 -132 -30 -175q-28 -86 -99 -148q-40 -35 -100 -35q-22 0 -70 13.5t-70 13.5q-73 0 -127 -78q-49 -70 -49 -147q0 -76 39 -177q37 -94 87 -160q59 -77 62 -82q27 -45 28 -99v-21q1 -15 -2 -23q-12 -34 -32 -43q-14 -6 -53 -6
q-15 0 -15 20q0 5 8 14.5t9 13.5q5 13 5 44q0 18 -4 26h-24q-18 0 -58 -58q0 -8 -4 -24t-4 -24q0 -13 18.5 -37.5t31.5 -32.5q34 -20 74 -20q31 0 52 4q30 6 72 45t49 69q2 10 2 25q0 107 -21 165q-37 100 -84 163q-111 147 -111 214q0 44 32.5 74t76.5 30q86 0 175 -120
q81 -110 91 -203q5 -28 10 -58q-11 -50 -26 -149v-129q0 -9 18.5 -38.5t27.5 -37.5q14 -13 44 -13q28 0 66 32t59 32q54 0 54 -54q0 -11 -4 -21q29 20 29 84q0 48 -47 48q-13 0 -39.5 -5.5t-39.5 -5.5q-96 0 -96 111q0 78 51 148t125 98q36 14 184 14q51 0 93 -13.5
t88.5 -57.5t59.5 -84q26 -78 26 -118q0 -98 -93 -98q-13 0 -39.5 5.5t-39.5 5.5q-51 0 -51 -74q0 -9 20 -53l13 -4q-4 10 -4 21q0 53 54 53q23 0 58 -32t72 -32q38 0 62 47q20 38 20 81q0 93 -10 161q-13 92 -13 78q0 54 31 144q15 44 41 79q13 13 36 42q22 36 66 73
q51 44 83 43h19q10 1 27 -1q82 -30 82 -101q0 -66 -46 -133q-23 -27 -66 -83q-108 -169 -108 -256q0 -100 14 -120q70 -95 163 -95q40 0 76 20q13 7 31.5 32t18.5 38q0 14 -9 44q-4 12 -25.5 37t-31.5 25h-28v-51q0 -6 11 -24t11 -23q0 -19 -21 -19q-57 0 -72 28
q-9 18 -9 80q0 36 47 120q15 14 42 45q127 190 127 337zM1725 -69q-7 25 -17 35q-11 -6 -13 -18q15 -15 30 -17zM1249 255q-19 19 -51 43q-4 -7 -13 -20q12 -15 40 -40q13 12 24 17zM1279 209q-9 18 -20 29q-6 -4 -17 -12q0 -5 12 -29q8 4 25 12zM1177 313l-36 12
q-3 -9 -9 -25q18 -6 32 -13q13 13 13 26zM1305 133v24q0 6 -5.5 16.5t-5.5 15.5q-10 -4 -30 -13q20 -43 24 -43h17zM1121 335l-49 12q0 -20 -4 -40h44q1 13 9 28zM1305 61v56h-21q-4 -13 -12 -40q12 -8 33 -16zM1608 -187q0 11 -59 58q-9 -27 -9 -35q0 -98 48 -123
q0 27 10 69t10 31zM1048 347h-70v-37h66zM1294 44q-10 6 -29 12q-1 -2 -8.5 -9.5t-7.5 -12.5t4 -10.5t4 -7.5q21 5 37 28zM958 307q-4 12 -4 36q-49 -7 -48 -7q0 -6 8 -29h44zM1241 12q-2 6 -4 18q-14 -4 -33 -13q15 -8 25 -8q7 0 12 3zM894 304q-4 8 -8 21q-25 -5 -41 -13
q4 -8 12 -25q23 8 37 17zM841 278q-5 7 -17 20q-16 -12 -47 -43q8 -6 25 -17zM478 551q-37 33 -56 38q2 -13 9 -32q16 -2 47 -6zM784 221q0 13 -21 13q-8 -10 -16 -29q13 0 20 -9q17 17 17 25zM406 556q-3 15 -11 44q-8 0 -23 -2t-22 -2q24 -48 30 -48q10 0 26 8zM762 176
q-10 4 -29 13q-13 -26 -13 -29v-27h18q7 3 24 43zM361 530q-1 10 -14.5 32.5t-21.5 22.5q-20 -18 -24 -28q15 -13 47 -39zM826 17q-12 4 -37 13q0 -9 -8 -17q6 -2 13 -2q15 0 32 6zM750 73v28q0 9 -8 16h-21q0 -6 -1 -17.5t-1 -18.5v-7q0 -6 2 -13q10 4 29 12zM335 499
l-37 37q-2 -16 -4 -48v-7q22 -6 32 -12q0 5 4.5 15t4.5 15zM777 36l-21 21q-15 0 -24 -18q10 -11 33 -24q4 9 12 21zM342 393v14q-4 16 -9 31.5t-24 22.5v-13q0 -14 33 -55zM286 137q-8 16 -22 29v-21q4 -6 13 -13q4 4 9 5zM315 95q0 14 -16 30q-5 -3 -13 -9q4 -8 12 -25
q6 2 17 4zM338 46q-2 12 -8 33q-13 0 -29 -8q4 -10 12 -29q9 5 25 4zM346 -15v37h-33v-33q6 0 16.5 -2t16.5 -2zM331 -43q-9 9 -18 9q-3 -12 -11 -37q13 5 29 28zM486 -162q0 6 -9 33q-59 -47 -59 -58q0 -5 10.5 -40t9.5 -60q48 36 48 125zM1328 964q-2 0 -6.5 -2t-8.5 -2
q-3 0 -27 17t-48 17q-29 0 -62 -26h-17q0 2 -4 5.5t-4 8.5q0 10 20.5 30t30.5 22q22 5 34 5q30 0 58 -23t34 -52zM1347 792q0 -58 -30 -101q-34 -49 -89 -49q-96 0 -96 97q0 67 26 114q33 58 95 58q45 0 71 -38q23 -34 23 -81zM875 980q-12 -13 -19 -13q9 0 -37 22
q-11 5 -51 5q-10 0 -49 -34h-13q-8 7 -8 11q0 18 27 43t65 25q55 0 85 -59zM1298 412q0 -45 -27 -72h-25l-8 10q35 30 35 69q0 11 -8 53q33 -1 33 -60zM894 753q0 -65 -35 -91q-27 -20 -63 -20q-56 0 -89 49q-28 42 -28 101q0 46 22 80q26 39 70 39q58 0 93 -52
q30 -45 30 -106zM1249 436q0 -58 -62 -58q-17 0 -87 24.5t-87 24.5q-16 0 -86.5 -24.5t-87.5 -24.5q-62 0 -62 58q0 84 134 110q87 17 100 17q25 0 91 -14t86 -25q61 -34 61 -88zM788 354q-14 -14 -21 -14q-39 0 -39 74q0 48 31 58q-9 -70 -9 -53q0 -57 38 -65zM1332 800
q-5 -6 -12 -6q-8 0 -23 3l-24 4q-6 -28 -35 -77q12 -18 40 -48q10 9 26 28q28 45 28 71v25zM1215 814q0 18 -20 28h-17q-23 -50 -23 -60q0 -19 20 -30q40 20 40 62zM1185 468q-13 12 -28 12q-13 0 -25 -17.5t-11 -30.5v-5q3 -2 43 -27q14 11 21 68zM875 797h-59
q-4 -7 -4 -38q0 -25 -12 -35l47 -48q28 56 28 69v52zM1098 465q0 34 -30 34q-11 0 -19 -9v-44q16 0 40 -8q9 18 9 27zM750 808q0 31 -24 31q-21 0 -21 -37q0 -38 5 -54h20q20 13 20 37v23zM977 446v44q-9 9 -21 9q-28 0 -28 -34q0 -5 2 -13.5t2 -12.5q28 7 45 7zM906 436
q0 12 -14 28t-26 16q-13 0 -25 -12q1 -19 2.5 -39t18.5 -29q14 11 43 31q1 3 1 5z" />
  </g>

</svg>
