<?xml version="1.0" standalone="no"?>
<!DOCTYPE svg PUBLIC "-//W3C//DTD SVG 1.1//EN" "http://www.w3.org/Graphics/SVG/1.1/DTD/svg11.dtd" >
<svg viewBox="0 -442 2055 2048">
  <g transform="matrix(1 0 0 -1 0 1606)">
   <path fill="currentColor"
d="M2055 822q0 -122 -88 -229q-13 -16 -74 -78q-216 -228 -433 -455q-373 -390 -392 -390q-10 0 -15 1q-45 46 -235 245q-169 172 -338 345q-202 206 -327 355q-48 57 -61 108q-10 37 -10 124q0 39 26 105q24 62 51 96q45 58 153 154q104 91 172 136q100 66 297 133
q35 12 40 12h494q4 0 38 -12q203 -71 299 -133q58 -37 171 -137q117 -104 154 -153q30 -40 54 -109.5t24 -117.5zM1994 921q-11 39 -49 112q-26 33 -77 71q-42 32 -84 63q89 -132 210 -246zM1786 1111l-130 162v-149zM2017 836q0 20 -124 143l83 -255h18q23 79 23 112z
M1933 737l-115 328l-149 23l-58 -223zM1934 681l-280 116h-11l125 -220q30 1 85 17q8 5 81 87zM1623 1062l-261 -103l219 -82zM1623 1121v187l-333 138h-444l-333 -138v-187l326 -148h455zM1831 563q-25 -4 -72 -19q-31 -20 -94 -59q7 0 23 -1h23q44 0 69.5 25.5t50.5 53.5z
M1726 562l-126 229l-132 -319q9 6 24 6q11 0 31.5 -3.5t31.5 -3.5q18 0 83 39q82 49 88 52zM1566 831l-248 100l-215 -199l328 -238zM1256 934h-376l190 -172zM1528 438q-85 11 -83 11q-13 0 -99 -34l69 -7q4 0 113 30zM1387 470l-306 222v-245l171 -30zM1697 452
q-36 -2 -107 -14q-2 -1 -137 -64q-47 -126 -138 -378zM774 959l-261 103l45 -188zM483 1124v149l-133 -162zM1033 735l-215 196l-248 -100l138 -337zM1167 393q-12 1 -49 9q-31 6 -50 6t-50 -6q-37 -8 -49 -9q97 -17 99 -17t99 17zM1055 443v249l-306 -222l135 -53z
M1400 368l-144 20l-174 -51v-463zM352 1167q-43 -31 -85 -63q-52 -39 -76 -71q-15 -20 -28 -55q-20 -56 -21 -59q134 132 210 248zM525 865l-58 223l-149 -23l-115 -328zM668 472l-132 319l-129 -229q159 -91 164 -91q29 0 97 1zM1329 171q-48 -77 -147 -230
q-41 -53 -95 -153q-5 -19 -5 -48q58 55 157 180q28 47 51 123q20 64 39 128zM787 411l-98 32l-3 4q-9 0 -39 -4q-24 -2 -39 -2q99 -33 113 -33q7 0 66 3zM493 797h-11l-280 -116q25 -35 81 -87q15 -9 42 -11q36 -4 43 -6zM243 979q-124 -126 -124 -143q0 -28 23 -112h18z
M1054 -126v463l-174 51l-144 -20zM471 482q-93 67 -166 81q24 -28 74 -81h92zM1055 -260v50l-248 381q19 -64 39 -128q23 -76 51 -123q25 -42 74 -94zM821 -4q-42 120 -138 378q-49 24 -99 47q-58 26 -105 26q-19 0 -40 5z" />
  </g>

</svg>
