<?xml version="1.0" standalone="no"?>
<!DOCTYPE svg PUBLIC "-//W3C//DTD SVG 1.1//EN" "http://www.w3.org/Graphics/SVG/1.1/DTD/svg11.dtd" >
<svg viewBox="0 -442 2048 2048">
  <g transform="matrix(1 0 0 -1 0 1606)">
   <path fill="currentColor"
d="M977 1201q0 -65 -33 -65h-152q-2 -21 -16 -60q-37 -55 -201 -143q-118 -58 -235 -117v232l152 89h-373q-32 0 -37 47q0 -1 0 71q0 49 36 62q16 6 77 6q0 31 12 90q23 51 129 79q80 22 159 22q374 0 374 -155q0 -16 -4 -33h36q57 0 70 -34q6 -15 6 -91zM788 657
q0 -65 -191 -166q-86 -43 -257 -132v231q125 67 249 135q188 103 199 156v-224zM300 779q-31 -22 -78 -81v215q0 22 29 59q26 32 49 46v-239zM300 333q0 -5 -36 -43q-42 -45 -43 -46v211q0 26 28 60q25 31 51 45v-227zM976 -133q0 -40 -62 -40q-8 0 -46 2q-4 -12 -4 -50
q0 -83 -130 -120q-86 -25 -202 -25q-282 0 -329 112q-6 14 -5 79q-9 1 -56.5 1t-57.5 37q-2 8 -2 79q0 47 10 60.5t54 13.5h38q25 -1 37 -1q5 41 80 92v-92h37v118q48 33 131 75q111 56 134 69q86 48 105 62q67 45 80 84v-223q0 -51 -89 -108q-68 -37 -135 -74l375 -3
q23 0 37 -12v-136zM903 1198v75h-83v-75h83zM789 1331v63q0 27 -75 52q-63 21 -99 21h-28q142 -27 142 -107q0 -13 -5 -29h65zM659 1331v63q0 27 -56 54q-50 24 -81 24q-65 0 -152 -17q-118 -24 -118 -62v-62h407zM716 1198v75h-578v-75h578zM903 -106v79h-83v-79h83z
M789 -227v63h-64q0 -69 -15.5 -90t-84.5 -41h16q35 0 86 19q62 22 62 49zM716 -106v79h-578v-79h578zM659 -223v59h-407v-58q0 -43 111 -65q76 -14 156 -14q22 0 32 1q24 2 64 28q44 28 44 49z" />
  </g>

</svg>
