<?xml version="1.0" standalone="no"?>
<!DOCTYPE svg PUBLIC "-//W3C//DTD SVG 1.1//EN" "http://www.w3.org/Graphics/SVG/1.1/DTD/svg11.dtd" >
<svg viewBox="0 -442 2048 2048">
  <g transform="matrix(1 0 0 -1 0 1606)">
   <path fill="currentColor"
d="M1930 -44h-1844q-4 42 -4 36h57q12 99 49 292q5 19 53 71.5t67 59.5q48 11 139 34q15 3 31 6t22 17q9 20 9 46q0 10 -6 14q-75 54 -82 54q-6 0 -17 -4t-17 -4q-45 0 -68 12q-12 6 -30 38q-25 42 -64 131q-20 62 -20 110q0 67 13 131q15 73 60 151q52 89 109 115
q37 17 58 17q8 0 24.5 -7.5t24.5 -7.5q3 0 31 15t38 17q64 13 207 13q40 0 49 -1q59 -9 87 -27q54 -36 103 -100q50 -67 65 -128q13 -53 13 -145q0 -133 -84 -284q-7 -12 -30 -26q-13 -8 -71 -8q-24 0 -46.5 -17.5t-42.5 -34.5q0 -10 1.5 -31t1.5 -31q237 -14 370 -165
q4 3 66 87q50 67 69 67q-13 0 44 -15q33 67 33 101q0 32 -49 48.5t-49 40.5q0 47 81 47q20 0 78 -21t65 -21q-25 0 138 21q30 -1 90 3q1 0 36 17q32 16 58 16q24 0 42 -16v-4q1 -6 -6 -31q12 -8 24.5 -16.5t12.5 -22.5q0 -31 -61 -56q-59 -20 -176 -66q-101 -44 -172 -125
q2 -10 24 -19t21 -29l-214 -327h589v-38zM1094 -344h-892v28l105 245h700l87 -238v-35zM1889 619l-36 4q-159 -49 -144 -49q-9 0 -15 13q19 20 80 43q54 20 70 49q-17 -4 -51 -16l-66 -34q-51 -25 -62 -25q-2 1 -5 3v10l11 12q-95 -15 -174 -15q-18 0 -60 21.5t-47 21.5
q-8 0 -23 -3t-22 -3q94 -20 94 -122q0 -9 -20.5 -45t-20.5 -41q0 -13 29 -28q20 -11 40 -21q116 103 192 126q161 48 218 82q10 6 12 17zM629 1264h-32q-43 0 -43 -43q0 -8 21 -31t30 -27q11 9 11 21q0 6 -3 16.5t-3 15.5q0 -9 19 48zM978 737q-11 21 -19 21q-17 0 -26 -8
v-22q25 -11 22 -11q2 0 23 20zM940 665v22q-18 -17 -25 -45zM998 855l-1 37q0 17 -41 45q-4 14 -20 26q-20 15 -24.5 24.5t-17.5 29.5h-131q-142 0 -235 130q-9 12 -9 31q-114 -227 -140 -247q-3 -2 -80 -35v-46q0 -27 27 -49q41 -36 43 -38q14 -35 51 -98q93 -121 232 -121
q157 0 249 162q7 24 25 60q20 12 50 42q22 35 22 47zM378 1186q0 7 -6 11q-60 -53 -98 -142q25 18 68 60q7 17 25 49q11 17 11 22zM367 737q0 12 -9 21h-28q0 -2 -4 -8t-4 -11q0 -22 24 -22q21 0 21 20zM1495 322l-163 95l-64 -90q-51 -70 -70 -70q-37 0 -41 3
q-33 35 -105 95q-115 75 -226 73h-16q-41 -80 -124 -240h-10q-13 0 -17 4q-11 12 -140 225q-60 -9 -174 -43q-19 -9 -55 -49t-42 -60q-29 -93 -53 -271h160v129q0 23 21 56t41 43l6 -6q-26 -84 -26 -120q0 -34 19 -103h497q15 34 29.5 68.5t14.5 74.5q0 18 -5 76q5 6 12 6
q29 -30 34 -123l135 -102h140zM779 462q0 10 -2 30t-2 29q-87 -22 -108 -22h-47q-41 0 -65 11q0 -10 -2.5 -30t-2.5 -30q0 -19 52 -97q35 -51 70 -101q31 54 61 108q46 83 46 102zM1038 -6q-17 53 -52 59q-3 -15 -11 -59h63zM317 664v36q0 4 -40 54v-35q0 5 40 -55z
M1045 -295l-60 179h-655l-79 -179h794zM876 956q-20 -13 -58 -40q-12 45 -63 45q-14 0 -28.5 -14t-16.5 -28v10q0 65 58 65q10 0 29.5 -11t32.5 -11q21 0 39 6q-22 -17 -45 -28q0 -5 2 -5q11 0 50 11zM813 865q0 -47 -49 -47q-52 0 -52 53q0 48 52 48q49 0 49 -54zM595 1036
h-99q-3 0 -19 -8q-9 9 -9 18q25 12 44 12q80 0 83 -22zM587 941v-22q-9 42 -57 42q-38 0 -52 -45q-18 13 -55 38q4 -1 13 -5t15 -4h21v2q0 3 -20 15q-23 14 -25 16q18 -6 41 -6q19 0 31.5 11t37.5 11q50 0 50 -53zM689 787q-24 -33 -39 -33q-23 0 -43 33q8 -3 26 -3
q17 0 56 3zM584 867q0 -49 -52 -49q-45 0 -45 36q0 38 5 48q9 17 43 17q49 0 49 -52zM768 712q-47 -51 -120 -51q-72 0 -120 51h20q17 0 52 -3t52 -3q16 0 49 3t50 3h17zM797 859q-6 1 -17 3q0 -3 -12 -15v-17h14q15 14 15 29zM565 842v17q-9 0 -13 4q-12 -12 -12 -15v-18
q11 2 25 12zM520 879q0 10 -5 10q-4 0 -10 -5q5 -5 15 -5z" />
  </g>

</svg>
