<?xml version="1.0" standalone="no"?>
<!DOCTYPE svg PUBLIC "-//W3C//DTD SVG 1.1//EN" "http://www.w3.org/Graphics/SVG/1.1/DTD/svg11.dtd" >
<svg viewBox="0 -442 2084 2048">
  <g transform="matrix(1 0 0 -1 0 1606)">
   <path fill="currentColor"
d="M2071 824l-1 -17q-38 -27 -62 -27q-5 0 -22.5 11.5t-34.5 11.5q-10 0 -29 -1.5t-28 -1.5q-33 0 -46 17.5t-24 17.5q-5 0 -24.5 -9.5t-24.5 -9.5q-4 0 -10.5 5t-10.5 5q-8 0 -23.5 -19.5t-29.5 -19.5q-4 0 -21 8t-23 8q-39 0 -49.5 -4.5t-31.5 -33.5q-9 -2 -30 -2
q-7 0 -39 37q-12 -25 -28 -29q-33 -7 -36 -8q-1 -12 -41 -38q-10 -46 -19 -46q-12 4 -21 49q-8 42 -27 42q-13 0 -13 -32q0 -11 3.5 -32.5t3.5 -31.5q-7 -11 -13 -17h-24q-23 56 -68 169l-8 -9l46 -182q-14 -36 -60 -72.5t-85 -44.5q-16 0 -48 -2q-13 -2 -37 -10
q-14 -5 -51 -5q-114 0 -141 13q-3 2 -23 17q-11 9 -30 9q-5 0 -13.5 -5t-13.5 -5q-7 0 -20.5 5t-20.5 5q-17 0 -31 -13.5t-42 -13.5q1 0 -27 36q-12 0 -16 -24q-1 -16 -3 -33q-63 -37 -63 -47q0 -4 11.5 -16t11.5 -18q0 -31 -69 -35q-9 -12 -11 -27q-15 -9 -44 -28l-30 -43
q-3 -5 -55 -12q-4 -15 -14 -44q-3 -9 -23 -16t-20 -24q0 -3 7 -34q-4 -13 -15 -33q-4 -1 -13 -6q-39 -7 -101 -32q-7 -8 -13.5 -16.5t-19.5 -8.5q-4 0 -17 6.5t-17 7.5q0 5 1.5 16.5t1.5 17.5q0 17 -13 35t-13 37q0 69 67 69q6 0 17 -2.5t17 -2.5q-3 5 -18 18q-9 9 -9 27
q0 16 6 36q-14 17 -27 22q0 4 -3.5 13.5t-3.5 14.5q0 -4 17 31q20 7 39 13.5t35 28.5q-20 13 -41 27.5t-21 42.5q0 9 30.5 34t30.5 51q0 10 25 38q0 5 -2.5 15t-2.5 15q0 33 49 33q3 0 8.5 -2t8.5 -2q2 6 7 16q1 1 38 29q-13 51 -13 41q0 35 37 35q14 0 48.5 -28t39.5 -28
q3 0 5 2q-34 40 -38 54q-5 32 -9 63q-2 16 -12 41q-6 17 -6 51q5 2 14 7q13 -15 33 -47q37 -93 94 -171l11 3l-97 190v18h30q16 0 54 -55q44 -64 52 -70h4q-1 2 -47 97q-10 11 -27 36q-17 38 -17 53q0 5 3.5 12.5t4.5 10.5q0 19 2 55q18 18 35 18q25 0 51 -40q4 3 4 10
q0 10 -9.5 30t-9.5 30q0 16 28 28q17 -22 48 -69q8 -22 25 -55q4 -2 11 -7q11 -26 34 -71l2 2t1 3t-65 218q0 6 1 14q18 11 22 11t36.5 -29.5t36.5 -29.5q3 0 12.5 5t21.5 5q17 0 37 -10q26 39 35 39q5 0 31 -20q1 -4 2 -13q12 -13 20 -43q9 -33 16 -44q7 17 64 31
q-2 7 -20 58q-16 46 -16 51q0 4 10 19.5t11 42.5v7q13 14 32 12q5 15 3 41q42 14 29 14q3 0 16 -13t18 -15q5 -17 16 -50l4 5l1 10q0 9 -1.5 24t-1.5 22q0 24 13 36h25q5 -5 12 -13q4 -42 39 -130q2 8 2 19q0 8 -3.5 21t-3.5 18v94q6 6 18 17h17q14 -46 14 -69q8 -4 35 -2
q18 -36 19 -36q2 0 10.5 8.5t26.5 8.5q29 0 34 -20q4 -23 7 -46l8 58q9 40 32 40q17 0 17 -17v-96q0 -11 5 -33t6 -31q0 4 0 -40q0 -42 15 -47q25 209 81 209q16 0 16 -21l2 -213q10 10 16 37q3 16 32 79t39 74q13 15 30 15q18 0 18 -31q0 -15 -20 -68t-20 -71q0 -2 2 -3
q4 0 7 3q9 34 37 95h39q4 -14 7 -27q6 -19 16 -19q8 0 16.5 11.5t22.5 11.5t29 -14v-23q1 -40 -4 -66q-9 -47 -9 -44l7 1q1 2 16 41q8 21 32 21q-3 0 22 -5l14 -36q0 -9 -10 -33t-10 -30q0 -2 2 -4q27 30 41 30q4 0 17 -7.5t17 -8.5q25 -4 74 -19q5 -8 6 -15q29 -35 29 -53
q0 -8 -6.5 -23.5t-6.5 -23.5q0 6 15 -17q1 -9 1 -17zM2084 624q0 -36 -5 -58q-13 -12 -40 -35q0 -6 1 -16.5t1 -14.5q0 -18 -15 -33t-33 -15q-10 0 -34 16q1 -17 -6 -51q-2 -5 -12 -17q-6 -7 -6 -20q0 -18 6.5 -53.5t6.5 -53.5q0 -31 -18 -41q-27 -14 -38 -14q-14 0 -27 24
q-10 18 -20 35h-18v-3q2 -21 -20.5 -40t-44.5 -19q-4 0 -11.5 3.5t-11.5 3.5v-6q2 -22 -14.5 -45t-38.5 -23q-7 0 -13 2l-4 -6q6 -68 6 -87q0 -89 -65 -89q-35 0 -74 52q-6 0 -10 -6v-8q1 -43 -17 -54l-50 -18q-4 -2 -11 -10.5t-14 -8.5q-21 0 -50 7q-1 -4 -1 -27
q0 -19 -8 -25q-15 -10 -17 -13.5t-6 -40.5q-22 -40 -35 -40q-22 0 -33 17t-21 35h-9q-9 -7 -24 -25q-2 -10 -9 -30q-8 -13 -49 -13q-12 0 -26 19l-22 -22q-5 -1 -13 -1h-5q-97 0 -162 200q-1 26 -8 75q-5 7 -11 22q-1 24 -6 69q0 1 -11 15q-10 -20 -10 -46q0 -28 16.5 -97.5
t29.5 -98.5q4 -5 11 -16q34 -77 34 -90q0 -49 -42 -49q-10 0 -22 7q-9 44 -37 100q-3 -6 -3 -13q0 -8 5 -19.5t5 -15.5q0 -39 -51 -52q-15 13 -20 41q-6 32 -12 41q-10 4 -28 16q-24 27 -63 270q-2 14 -13 25q-6 -6 -6 -17q0 -13 5.5 -38t5.5 -37q0 -117 13 -143
q9 -4 27 -14q5 -8 5 -27q0 -59 -56 -59q-13 0 -31 17q-1 34 -13 94h-6l-3 -3q0 -5 3 -21q2 -12 2 -20q0 -21 -16 -21q-4 0 -23 10q0 14 -1.5 41t-1.5 41q-5 5 -11 5l-9 -84h-15q-11 68 -49 198q-18 -6 -14 -23l26 -129l-8 -4q-2 1 -14 15q-11 11 -15 11t-14.5 -8t-14.5 -8
t-15 5t-15 6q-8 0 -23 3q-2 1 -39 38q-18 -9 -35 -19q-5 -1 -42 -5q-5 -8 -7 -17q-6 -5 -19 -5q-31 0 -31 31q0 6 8 26t8 38t14 28q26 18 27 19q19 3 31 6q-3 13 -13 39q24 8 60 52q5 15 10 31q6 11 28 13q7 12 23 35q46 52 123 74q-4 -1 36 -1q22 0 38 17.5t37 17.5
q5 0 20.5 -8t20.5 -8q4 0 12.5 3t13.5 3q11 0 21 -17q14 -25 15 -26q11 -5 29 -17q4 -10 12 -28h15q28 49 54 49q6 0 17.5 -5t16.5 -5q1 0 33.5 19.5t48.5 19.5q28 0 54 -30.5t37 -30.5l18 19.5t40 19.5q5 0 14 -3.5t14 -3.5q24 0 30 71q24 23 38 23q11 0 40 -11
q6 -13 23 -38q2 2 2 6q0 15 -16 48v14q11 5 33 11q17 38 49 116q20 14 62 21q23 4 63 76q1 2 5 35q25 16 42 15q17 24 33 47q24 31 44 31q14 0 34.5 -11.5t21.5 -11.5q2 0 19.5 23t41.5 23q5 0 14 -6.5t14 -6.5q4 0 14 6.5t15 6.5q16 0 30 -27q5 -25 21 -72q3 -6 34 -45
q3 -22 32 -58q2 2 2 83q11 31 29 31q5 0 14 -3.5t14 -3.5q3 0 18.5 16.5t29.5 16.5q54 0 54 -101zM1388 1102q-2 12 -8 36q-4 -11 -4 -32v-4h12zM1794 635v11h-22v-11q8 -8 15 -8zM1122 1077q0 22 -24 60q-4 6 -21 13v-30q0 -11 14 -35t23 -29q8 16 8 21zM1645 518
q-19 30 -17 86h-3q-8 0 -17 9.5t-14 10.5v-31q0 -15 14.5 -44.5t25.5 -38.5q3 4 11 8zM1642 348q0 21 -15 43q-28 50 -89 147q-7 11 -10 11q-26 0 -26 -52q0 -14 38 -79.5t51 -75.5q17 -13 35 -14q16 14 16 20zM942 840q0 3 -10 73q-8 -8 -8 -21q0 -14 18 -52zM898 687v11
q0 50 -31 114q-3 1 -8 6q-8 26 -25.5 74t-90.5 158q-4 -15 -4 -12q20 -43 44 -98q14 -47 47 -140l22 -64q14 -39 34 -57zM561 753l-5 1l-4 -8l5 -2zM404 577q0 7 -21 37h-15q20 -27 20 -42q0 -13 -38 -24q-11 -23 -11 -34q11 -23 25 -30q7 37 35 51q5 49 5 42z" />
  </g>

</svg>
