<?xml version="1.0" standalone="no"?>
<!DOCTYPE svg PUBLIC "-//W3C//DTD SVG 1.1//EN" "http://www.w3.org/Graphics/SVG/1.1/DTD/svg11.dtd" >
<svg viewBox="0 -442 2048 2048">
  <g transform="matrix(1 0 0 -1 0 1606)">
   <path fill="currentColor"
d="M1567 494v-5q-31 -13 -26 -13q-15 0 -27 54q-7 33 -19 68q-18 15 -27 15q-12 0 -30.5 -14t-25.5 -14q-18 0 -18 26q0 20 32 36q28 15 50 15q18 0 50 -26q42 -34 41 -142zM1533 357q0 -20 -20 -41q-2 -2 -27 -16q-16 -8 -16 -27q0 -9 3.5 -26t3.5 -25q-2 0 -6 -1.5
t-7 -1.5q-25 0 -34 78q-10 9 -25 9q-9 -10 -16 -38.5t-15 -36.5h-11q-6 12 -6 25q0 10 4 29t4 29q0 12 -4 23q-2 -1 -35 -30q-26 -23 -33 -23h-1q-7 15 -7 18q0 18 20 49q1 2 11 10q7 6 7 11q0 3 -11 22.5t-11 29.5q0 77 29 77q20 0 20 -30q0 -6 -1 -17t-1 -17
q0 -24 39 -57.5t63 -33.5q23 0 61 24h19q0 -2 1.5 -6t1.5 -7zM749 1042q0 -45 -34 -45q-7 0 -47 28t-73 28t-61 -20t-32 -20q-39 0 -39 36q0 2 15 31q1 15 15 43q40 36 93 36q5 0 14 -3t14 -3q45 -2 88 -34q47 -35 47 -77zM1992 1159q-81 53 -253 143q-23 13 -74 32
q-57 11 -128 11q-30 0 -104 -26q-66 -23 -110 -128q-5 -25 -20 -72q-35 -88 -92 -88q-37 0 -74 17q-3 1 -15 14l-7 -11q-1 -4 -1 -10q0 -92 26 -144q7 -13 52 -45q40 -28 136 -28q4 0 76 17q18 4 53 14q23 9 54.5 49.5t54.5 48.5q36 13 48 13q22 0 22 -23q0 -9 -11 -13
q-16 -6 -18 -8q-36 -30 -36 -84q0 -69 59 -167q26 -29 73 -90q38 -59 59 -115q44 -118 44 -216q0 -15 -4 -45.5t-4 -46.5v-28q3 -150 -117 -354q-23 -39 -77 -79q-89 -66 -90 -67h-120q75 55 213 176q2 2 30 55q27 48 69 149q32 123 32 213q0 123 -44 226q-38 89 -113 192
q-20 27 -31 60q-5 16 -28 114q-13 2 -9 2q6 0 -52 -17q-79 -23 -142 -33q-97 -199 -246 -233q-48 -11 -35 -11h-142q-29 -19 -29 -30q0 -45 29 -117q36 -89 36 -122q0 -79 -59 -79q-11 0 -32.5 5t-32.5 5q-28 0 -28 -19q0 -21 17 -46t17 -32q0 -5 -16 -26.5t-22 -24.5
q-26 -10 -75 -33q-12 -7 -33.5 -37.5t-21.5 -42.5q0 -71 65 -127q17 -9 46 -23q114 -58 417 -144h-203q-61 0 -94 10q-126 38 -214 120q-13 -25 -55 -65q-40 -22 -66 -22q-99 0 -240 102l-220 -37v77l232 31q7 1 80.5 -44t121.5 -45q99 0 99 93q0 13 -6 38t-6 38q0 25 41 84
q8 11 31 30q95 21 95 42q0 2 -15.5 30t-15.5 45q0 45 23 57q27 14 49 14q7 0 21 -3t21 -3q30 0 29 32v10q0 23 -47 178q-15 51 -15 59q0 32 26 48l114 19l-66 150q-46 105 -46 146q0 4 2.5 10.5t2.5 9.5q0 19 28 78q26 55 26 138q0 12 -11 84q-4 7 -7 8q-28 5 -81 15
q-36 7 -77 19q-21 6 -109.5 17.5t-113.5 11.5h-86q-41 -41 -113 -130q-44 -67 -72 -148q-2 -5 -2 -12q0 -98 21 -170q21 -37 58 -113q-10 -8 -32 -22q-86 -38 -118 -38q-16 0 -49 31t-33 45v842h852q37 -75 43 -101q8 -29 8 -108q0 -42 -14 -91q-1 -5 -9.5 -19.5t-8.5 -18.5
q0 -5 8.5 -30t9.5 -33q4 -26 4 -52q0 -48 -22 -126.5t-22 -121.5q0 -36 108 -251q23 6 64 25q15 20 41 52q20 16 54 53q6 9 13 38q-101 38 -136 115q-25 55 -25 195q0 8 19 38.5t26 34.5q13 7 23 7q9 0 28 -9t28 -9q38 0 48 20q9 38 30 112q30 81 164 142q72 33 110 33
q136 0 332 -101q15 -8 134 -102v-73zM745 888q-5 -10 -5 -31q0 -45 -28 -76.5t-73 -31.5q-39 0 -76.5 36.5t-37.5 75.5q0 28 27 28q12 0 42.5 -42t45.5 -42q50 0 50 47q0 -8 -3 39q19 13 28 13q6 0 30 -16z" />
  </g>

</svg>
