<?xml version="1.0" standalone="no"?>
<!DOCTYPE svg PUBLIC "-//W3C//DTD SVG 1.1//EN" "http://www.w3.org/Graphics/SVG/1.1/DTD/svg11.dtd" >
<svg viewBox="0 -442 2048 2048">
  <g transform="matrix(1 0 0 -1 0 1606)">
   <path fill="currentColor"
d="M1701 1022q0 -2 -24 -36h-14v17q0 7 20 36h18v-17zM1594 845q0 -17 -23 -31q3 7 3 13q0 10 -18 20q-26 14 -27 15q22 0 34 4q-13 18 -45 13q2 6 4 19h43q29 0 29 -38v-15zM1970 943q0 -17 -20 -38q-26 -27 -30 -33q-5 -9 -5 -245q0 -8 -7 -11q-17 -59 -87 -136
q-97 -108 -108 -125q-14 -46 -40 -118q-93 -212 -254 -332q-172 -129 -394 -129q-412 0 -654 453q-21 54 -72 157l-96 126q-71 93 -71 123q0 3 1.5 8t1.5 8v114q0 17 -1.5 50t-1.5 50q0 2 -50 61v48q30 -26 75 -85q13 -28 13 -235q0 -28 39 -86q43 -44 123 -138
q10 -23 40 -60q2 -1 57 -21q141 -51 198 -106l2 2q0 20 -23.5 45t-44.5 33l-30 6q-31 8 -54 39q-23 1 -35 7q-5 3 -58 47q-69 58 -122 98v25h21q120 -96 303 -189q23 -12 57 -63h10q3 3 3 8q0 44 -83 124q-79 75 -127 89q-12 1 -34 10q-7 14 -21 37q-18 23 -65 55
q-51 34 -68 53v21q3 5 11 5q6 0 49 -30q51 -36 53 -37q49 -29 62 -78q64 2 168 -112l20 7q-3 -5 -3 -13q0 -28 36 -59q1 2 2 6q0 43 -24 99q-27 65 -62 73q-13 20 -26 41q-19 23 -39 24q-59 142 -190 236q7 8 14 8q1 0 37 -31q1 6 10 33q8 23 8 32q0 16 -14 31
q-22 25 -24 28t-11 51h14q13 -33 79 -80q1 -6 1 -29q0 -28 21 -66q24 -42 49 -42q54 0 54 50q0 16 -10 44.5t-12 40.5v86q0 87 -34 103q-44 20 -87 20q-21 0 -33 10t-22 38q-15 67 -45 199q-13 47 -33 143h38q21 -121 34 -178q22 -99 50 -174l-1 -1l5 -2q36 34 89 82
q183 144 533 144q440 0 614 -226q20 1 80 255q5 33 17 100h34v-21q0 -22 -12 -59q-16 -47 -18 -59l-42 -177q0 -8 -2 -23q-17 -49 -66 -51q-61 -2 -83 -24q-26 -26 -26 -156q0 -20 -11.5 -57t-11.5 -57q0 -50 52 -50q65 0 72 137q35 27 90 81v-29q0 -6 -23 -39t-23 -41
q0 -7 8 -32q10 -29 11 -35q10 6 32 30l18 -5q-104 -89 -167 -189q-9 -18 -29 -53l-15 -6q-16 -23 -46 -55q-7 -3 -21 -12q-15 -12 -38.5 -63t-23.5 -70q0 -8 2 -33q12 14 36 41q-7 15 -7 32h14l7 -8q44 45 66 64q47 41 75 46q9 2 29 2q8 39 85 88l69 57h17q5 -13 5 -17
q0 -22 -66 -70q-22 -7 -71 -50q-9 -17 -25 -38l-27 -6q-27 -6 -118 -86t-91 -102v-30l2 -3q25 25 68 63q46 17 133 60q32 20 169 129h22v-25q-40 -27 -116 -86q-22 -25 -65 -59q-11 -5 -34 -6q-12 -30 -58 -40q-8 -1 -23 -3q-18 -5 -44.5 -34t-27.5 -47l2 -2q38 38 119 72
q94 41 125 63q17 19 51 56q44 40 120 130q43 66 43 91q0 17 -1 49.5t-1 49.5q0 109 15 139q10 20 34 43q36 33 40 38q2 -24 2 -31zM388 986h-14q-12 15 -24 53h18q3 -9 20 -35v-18zM529 879q-2 1 -7 1q-8 0 -38 -15q11 -4 37 -2q-1 -21 -38 -22q-5 -8 -4 -27q-22 4 -22 30
v17q0 12 5 23q17 14 24 14h43v-19zM1601 300q-49 -14 -83 -32q-104 -55 -95 -55q-15 0 -32 6v39q-27 6 -27 38q0 13 4 39.5t4 39.5q0 17 -2 46q-10 1 -10 10q0 12 39 83q35 64 50 86q21 30 118 155q-2 0 -66 6q-34 48 -34 62q0 18 9 52t9 52q0 14 -2.5 42.5t-2.5 42.5
q0 96 60 144q-182 167 -517 167q-171 0 -277 -31q-131 -38 -239 -140q16 -1 35 -27.5t25 -45.5q7 -22 7 -60q0 -16 -4.5 -48t-4.5 -48q0 -17 9 -50t9 -50q0 -11 -33 -62q-22 -3 -66 -6q40 -51 117 -155q86 -126 86 -156v-160q0 -10 -11 -21l-16 -5l1 -20q0 -12 -4 -22
l-30 -3q-6 0 -55 30q-56 34 -63 37q-22 8 -67 24q185 -436 583 -436q203 0 356 122q142 112 220 310zM1406 837q0 -20 -21 -20q16 0 -62 18q-22 5 -53 5q-45 0 -65 -7q-47 -16 -50 -16q-21 0 -21 20q0 49 136 49t136 -49zM1406 590q0 -21 -21 -21q2 0 -36 38t-84 38
q-48 0 -83 -38t-34 -38q-17 0 -17 21q0 47 45 78q41 27 90 27q48 0 91 -28q49 -31 49 -77zM916 835q0 -18 -25 -18q1 0 -46 14q-30 9 -69 9q-20 0 -57.5 -11.5t-56.5 -11.5q-21 0 -21 20q0 49 135 49q140 0 140 -51zM916 573q-13 -4 -17 -4q-7 0 -12 5q-32 71 -107 71
q-50 0 -82 -38t-36 -38q-21 0 -21 19q0 47 47 79q42 28 92 28q43 0 86 -25q50 -28 50 -68v-29zM1111 419q-42 -72 -90 -72q-50 0 -85 72q39 -11 85 -11q45 0 90 11zM1214 235q-6 -59 -70 -102q-59 -39 -121 -39q-108 0 -167 85q-22 31 -20 56q71 -76 187 -76q127 0 191 76z
" />
  </g>

</svg>
