<?xml version="1.0" standalone="no"?>
<!DOCTYPE svg PUBLIC "-//W3C//DTD SVG 1.1//EN" "http://www.w3.org/Graphics/SVG/1.1/DTD/svg11.dtd" >
<svg viewBox="0 -442 2048 2048">
  <g transform="matrix(1 0 0 -1 0 1606)">
   <path fill="currentColor"
d="M1732 -354h-160v113q11 15 24 16q20 1 26 4v21q-20 -2 -58 11v338q7 3 19 11v500q0 1 14 29q0 -4 4.5 -12t4.5 -13v-500q13 -4 33 -19q4 -6 5 -61q1 -1 27 -6q19 -4 19 -17v-282q3 -1 15 -1q16 0 27 -15v-117zM1553 -144q0 -10 -7.5 -32t-7.5 -34q0 -16 3.5 -48t3.5 -48
v-48h-49v119q-9 0 -26 4q-16 16 -50 44q-64 46 -114 68q-49 13 -149 41q-21 6 -21 29q0 2 20 32q-73 -29 -222 -80q11 -14 42 -44v-213h-23v203q-37 29 -110 88v67q17 1 50 6q40 8 105 44v-100q1 -2 3 -3q26 0 77 38l6 117q23 16 68 50q-20 21 -39 21q-15 0 -47 -31
q-40 -38 -45 -41q-38 -23 -115 -61q-20 -8 -89 -8q-67 0 -88 8q-44 17 -115 62q-5 3 -47 42q-32 29 -48 29q-6 0 -36 -18q23 -19 67 -56l6 -114q13 -9 67 -38h13v103q55 -30 87 -41l69 -9v-67q-24 -18 -111 -88v-203h-22v213q15 14 42 44q-30 8 -218 80h-4q16 -33 16 -39
q0 -3 -1 -7q-5 -5 -16 -15q-84 -10 -153 -41q-39 -17 -106 -64q-17 -18 -54 -48q-3 -2 -23 -1q-3 -3 -3 -19q0 -14 3 -103h-44q-8 10 -8 33q0 18 3.5 55.5t3.5 56.5q0 11 -7.5 32.5t-7.5 32.5q0 33 22 54q23 18 47 36q16 8 46 25q57 37 125 55q105 28 126 36q4 50 7 100
q11 41 83 41q3 6 3 36q0 4 -2 7q-18 33 -37 66q-14 29 -24 73q-6 25 -31 25q-5 0 -16 -4t-17 -4q-9 0 -22.5 11.5t-22.5 11.5t-27 6q-40 35 -60 87q-1 23 -3 61l-5 5q-40 3 -40 55q0 14 7 57q-35 18 -35 67q0 13 3.5 38t3.5 38q-24 22 -24 49q0 51 23 100q-31 34 -31 41
q0 35 23 70q23 31 46 61q-15 9 -15 35q0 78 105 149q-4 12 -4 23q0 66 112 93q0 14 10 38q23 20 46 20q13 0 40 -9.5t40 -9.5q3 0 12.5 11t30.5 11q30 0 49 -13t21 -13q4 0 12 3.5t13 3.5q9 0 22 -7q18 35 49 35q60 0 66.5 -2t17 -15.5t15.5 -13.5q4 0 12 1.5t12 0.5h5
l12 -5h-1q1 -1 6 -1q1 0 21 13t45 13q24 0 29 -5q18 -17 17 -17q13 0 39.5 9.5t39.5 9.5q9 0 31.5 -13t24 -21t2.5 -25l9 -5h4q26 0 62 -28.5t36 -54.5q0 -12 -9 -23q111 -81 111 -162q0 -16 -15 -26l42 -56q26 -37 26 -62q0 -28 -30 -50q11 -24 23 -93v-23q0 -7 -26 -33
q0 -13 4.5 -39.5t4.5 -40.5q0 -46 -38 -69q0 -10 3.5 -30.5t3.5 -31.5q0 -42 -41 -46q1 -23 -4 -68q-14 -15 -37 -43q-1 -17 -24 -45q-14 0 -38 -6q-3 -2 -17 -15q-7 -7 -20 -7q-5 0 -15.5 4t-15.5 4q-25 0 -30 -21q-25 -101 -62 -142v-40q25 -5 52 -11t35 -32q5 -15 6 -93
v-10q63 -12 185 -54q181 -90 181 -151zM869 -196q0 -51 -52 -51q-20 0 -37.5 15.5t-17.5 35.5t17.5 38t37.5 18q52 0 52 -56zM918 -354h-22v188q-10 9 -79 68q-26 -23 -78 -68v-188h-22v205q96 85 100 85q6 0 101 -85v-205zM877 -316q0 -39 -41 -39q-46 0 -51 1
q-27 6 -27 34q0 22 18.5 40t40.5 18q18 0 39 -18t21 -36zM1522 -134q-28 36 -145 87.5t-166 51.5q-16 0 -36 -49q39 -11 115 -36q52 -18 119 -58q4 -2 39 -28q31 -24 34 -24q11 0 23 23q9 16 17 33zM1086 428h-2q-13 -1 -30.5 17.5t-16.5 32.5q-35 1 -38 3q-7 3 -21 30
q-17 10 -40 10q-45 0 -63 -19l-10 9q7 9 52 35q-26 0 -38 2q-16 15 -14 15q-4 0 -10.5 -2t-10.5 -2q-14 0 -27 11q-11 -11 -26 -11q-4 0 -10.5 2t-10.5 2q-6 0 -9 -7t-5 -8q-28 -2 -40 -2q50 -15 50 -35q0 -4 -6 -9q-16 19 -63 19q-20 0 -40 -10q-18 -37 -63 -33q1 -3 1 -6
q0 -12 -17.5 -28.5t-28.5 -15.5q12 -57 56 -117q50 -69 100 -69q9 0 26.5 4.5t24.5 5.5q12 1 36 1q73 0 86 -1q7 -1 23.5 -5.5t24.5 -4.5q50 0 102 69q44 59 58 117zM1129 406q0 9 -22 19q-35 -144 -130 -194q-30 -16 -55 -16q-3 0 -23.5 8t-40.5 8q-100 0 -110 -2
q-5 -1 -18 -7.5t-18 -6.5q-61 0 -121 76q-54 68 -63 134q-22 -11 -22 -21q0 10 14 -35q18 -58 68 -111q52 -56 107 -71q7 -4 23 -9q9 -2 52 -2q111 0 141 5q73 12 124 62q39 39 58 72q36 64 36 91zM1056 178v33q-133 -88 -239 -88q-109 0 -238 88v-41q74 -66 123 -88
q57 -25 147 -25q84 0 172 85q35 33 35 36zM846 -194q0 7 -11 17t-18 10q-8 0 -18 -9.5t-10 -17.5q0 -26 26 -26q31 0 31 26zM842 -323v14q-16 16 -25 16q-7 0 -24 -16v-17q9 -5 22 -5h6q13 0 21 8zM456 -44q-5 18 -20 49h-23q-27 0 -112 -33q-75 -29 -111 -49
q-29 -16 -77 -57q29 -56 40 -56q-5 0 31 26q62 45 160 84q42 9 112 36zM968 437q0 -69 -53 -69q-21 0 -35.5 18.5t-14.5 40.5q0 75 56 75q47 0 47 -65zM1383 -61q-18 -26 -25 -26q-1 0 -60 26q-31 14 -74 21q11 26 19 26q35 0 140 -47zM770 427q0 -20 -16.5 -39.5
t-35.5 -19.5q-51 0 -51 67t47 67q56 0 56 -75zM854 336q-20 -14 -39 -14q-20 0 -34 14q18 -3 32 -3h8q14 0 33 3zM884 270q-11 0 -33.5 5t-33.5 5l-66 -11q18 34 66 34q36 0 67 -33zM410 -40q-9 -3 -72 -26q-58 -21 -63 -21q-4 0 -29 26q2 1 73 28q50 19 72 19q7 0 19 -26z
M907 437v33h-18v-29zM957 421q0 11 -22 11q-8 -16 -16 -24q5 -7 17 -21q21 21 21 34zM707 449v5q0 7 -3 13h-18v-30l18 -4q3 9 3 16zM754 411v14q-3 0 -10.5 2t-11.5 2q-12 -24 -12 -23q0 6 13 -23q21 21 21 28z" />
  </g>

</svg>
