<?xml version="1.0" standalone="no"?>
<!DOCTYPE svg PUBLIC "-//W3C//DTD SVG 1.1//EN" "http://www.w3.org/Graphics/SVG/1.1/DTD/svg11.dtd" >
<svg viewBox="0 -442 2048 2048">
  <g transform="matrix(1 0 0 -1 0 1606)">
   <path fill="currentColor"
d="M1226 -321q0 -5 -1 -13q-14 -16 -84 -16q-6 0 -15 7.5t-14 7.5q12 0 -38 -14q-32 -9 -96 -9q-116 0 -144 24v33q21 12 61 38q1 14 1 22q0 86 -37 176q-17 21 -43 69q-1 26 -7 77q-13 67 -61 149q-9 16 -43 49q-68 -57 -204 -172q1 -15 1 -27q0 -34 -22 -97t-22 -97
q0 -31 16.5 -91.5t16.5 -91.5q0 -11 -2 -26q-14 -15 -22 -15h-106q-4 0 -9 5.5t-9 5.5q-36 0 -105.5 -11.5t-105.5 -11.5q-50 0 -50 40q0 7 2 13q30 29 59 58q34 34 45 68q9 28 44 173q25 106 59 168q31 56 102 122q105 100 115 111q-21 5 -64 15q-27 7 -73 33
q-55 30 -55 48q0 -8 22 58q43 129 43 237q0 77 -9 104q-13 16 -35 49q-11 20 -30 146q-21 135 -33 170q16 16 47 13q3 3 3 10q0 18 -19 42.5t-19 56.5q0 17 21 31q18 10 35 20q2 27 2 96h90q51 -147 51 -139q0 -20 -50 -58q-1 -12 -1 -25q0 -58 18 -145q21 -100 48 -135
q8 25 8 69q0 15 -9.5 43.5t-9.5 43.5q0 86 63 134q58 44 146 44q72 0 173 -44q20 -9 56.5 -45t42.5 -54q3 -9 3 -41v-43q0 -39 -17 -59q-28 -33 -32.5 -44t-14.5 -34q-11 -17 -52 -31q-35 -11 -35 -33q0 -7 9 -17.5t16 -10.5q15 0 42.5 7.5t42.5 7.5q39 0 47 -23q3 -7 5 -55
q77 -33 185 -99q7 -7 18 -55q26 -111 26 -150q0 -13 -7.5 -33t-7.5 -22q0 9 18 -32q5 -11 5 -50q0 -68 -22 -85q-16 -12 -86 -18q-1 -2 -31 -30l-79 36q15 75 15 124q0 6 -6 9.5t-6 9.5v129q0 39 -27 66q-9 9 -59 44h-3q-4 0 -18.5 -27.5t-14.5 -33.5q0 -11 57.5 -115.5
t57.5 -141.5q0 -5 -1 -8q-45 -31 -45 -42q0 19 10 -55q-2 -50 14 -146q34 -43 85 -110q164 -230 164 -331zM458 1396l-47 125q-14 -6 -41 -16q0 -74 -1 -85q-15 -7 -30 -15.5t-15 -25.5q0 -5 2.5 -14.5t2.5 -14.5q7 -3 13 -12q3 -35 2 -62h56q0 65 1 77q23 15 57 43z
M899 1048q0 15 -5 20h-17q-15 -38 -43 -38q-10 0 -18 10q7 19 7 51q0 15 -2 23q-21 18 -112 18q-14 0 -36.5 14.5t-43.5 14.5q-17 0 -45 -13q-31 -14 -37 -27q-8 -18 -8 -57q0 -62 30 -115q35 -62 92 -62q54 0 122 53q18 19 54 47q2 1 19.5 1t30 21t12.5 39zM1171 502v21
q0 88 -40 202l-189 105q-1 19 -5 58h-76q15 -34 46 -102q-11 2 -55 13q-34 9 -56 9q-29 0 -45 -17q-1 -5 -17 -68q-11 -41 -11 -68q0 -101 116 -330l121 55q-122 230 -122 246q0 23 18 56q24 43 27 53h17q52 -33 104 -65q45 -34 45 -112q0 -13 -1.5 -40.5t-1.5 -41.5l11 -9
h6q26 0 58.5 17t49.5 18zM1179 401q0 58 -29 58q-21 0 -46 -9q-3 -8 -12 -21q-16 -5 -47 -17q0 -10 -1 -31t-1 -31q0 -15 2 -29q4 0 10.5 -2t10.5 -2q5 0 15 11.5t15 11.5q4 0 9 -4t9 -4q8 0 22 4.5t21 6t17 10.5q5 52 5 48zM550 905q-16 49 -32 67q-17 12 -48 42
q-35 46 -66 234h-84v-24q0 -53 15 -138q16 -94 36 -131q15 -25 31 -50q18 -32 15 -54q46 14 133 54zM723 849l-6 5q-14 0 -43 -2t-43 -2q-9 -38 -26 -115zM711 491q-27 103 -27 135q0 71 27 128l-128 -84l-53 161q-22 -20 -22 -77q0 -96 20 -155q10 -32 65 -140
q39 10 118 32zM550 441q-47 81 -63 135q-17 60 -17 152q0 66 11 98q-20 -1 -61 -7q0 -128 -54 -317q72 -51 184 -61zM1167 -281v25q0 12 -96 162.5t-112 163.5q-8 4 -21 16q-6 10 -6 45q0 111 -19 171q-60 -15 -103 -31l-81 172h-5q-97 0 -154 -43q-22 -17 -130 -134.5
t-119 -137.5q-16 -29 -71 -193q-56 -167 -56 -188v-10h252v15q0 24 -17 68t-17 68q0 31 23.5 88t23.5 88q0 8 -4 24.5t-4 25.5v9q230 178 230 196q0 1 -20 34q6 8 13 10q48 -32 95 -96.5t64 -120.5q6 -44 25 -130q28 -60 70 -184q3 -35 10 -105q6 -1 21 -4.5t23 -3.5h185z
M929 -307v18h-25q4 0 -38 -16v-9l3 -5h25zM190 -286q-11 2 -15 2h-21q-5 0 -15 -1t-14 -1v-18h39q8 0 26 18zM795 1096h-14q-8 8 -35 17q18 9 30 9q8 0 19 -12v-14zM773 1055q0 -44 -35 -44q-28 0 -28 25q0 60 43 60q1 0 7 -1q13 -20 13 -40zM649 1129q-37 5 -49 2
q8 8 25 18q15 -3 24 -20zM638 1090q0 -56 -30 -56q-27 0 -27 33q0 48 34 48q23 0 23 -25zM692 985h-24q-11 0 -21 18q16 -4 45 -18zM722 960q-11 -18 -28 -18q-58 0 -86 41q38 -7 114 -23zM665 923h-26v15l26 -4v-11zM760 1045q-5 -2 -14 -4q2 -6 5 -18q4 7 9 22zM619 1094
h-18v-14q12 4 18 14zM631 1063q-5 5 -18 5v-26q4 7 18 21z" />
  </g>

</svg>
