<?xml version="1.0" standalone="no"?>
<!DOCTYPE svg PUBLIC "-//W3C//DTD SVG 1.1//EN" "http://www.w3.org/Graphics/SVG/1.1/DTD/svg11.dtd" >
<svg viewBox="0 -442 2048 2048">
  <g transform="matrix(1 0 0 -1 0 1606)">
   <path fill="currentColor"
d="M1229 1441q0 -50 -43 -99l-80 -78q-49 -49 -79 -99q-30 45 -72.5 88t-83.5 84q-45 52 -45 104q0 108 101 108q63 0 97 -47q45 47 102 47q103 0 103 -108zM2010 685l-1061 -1061l-624 623l1059 1062zM1829 -20q0 -36 -55 -91q-68 -69 -78 -87q-23 33 -51 63q-26 25 -51 51
q-28 32 -28 64q0 69 69 69q36 0 61 -28q31 28 64 28q69 0 69 -69zM667 1228q0 -61 -130 -188q-144 -141 -163 -191q-40 69 -108 140q-60 59 -119 119q-65 76 -65 147q0 70 39 113.5t109 43.5q87 0 144 -69q58 69 147 69q146 0 146 -184zM366 590q0 -35 -55 -91
q-67 -67 -78 -88q-11 20 -79 89q-50 52 -50 91q0 70 67 70q39 0 62 -31q19 31 66 31q67 0 67 -71zM1122 1533q-52 -8 -81 -42l11 -11q25 19 70 53zM1860 716l-439 439l-107 -518zM969 1517q-28 14 -45 14q-80 0 -80 -93q0 -31 25 -64q-11 31 -11 57q0 87 88 87q20 0 23 -1z
M514 1389q-78 -9 -117 -60q6 -6 18 -14q11 13 99 74zM1328 1133l-827 -827l690 137zM1835 626l-537 -74l-37 -179l-179 -37l-74 -537zM1657 31q-16 8 -25 8q-53 0 -53 -61q0 -17 15 -38q-6 18 -6 33q0 57 55 57q16 0 14 1zM294 1366q-44 18 -67 18q-117 0 -117 -136
q0 -47 36 -92q-11 50 -11 85q0 127 125 127q6 0 17.5 -1t16.5 -1zM291 648q-25 -3 -50 -26l7 -2q14 9 43 28zM997 317l-518 -104l439 -439zM197 641q-24 8 -29 8q-52 0 -52 -59q0 -23 15 -41q-6 16 -6 32q0 65 72 60z" />
  </g>

</svg>
