<?xml version="1.0" standalone="no"?>
<!DOCTYPE svg PUBLIC "-//W3C//DTD SVG 1.1//EN" "http://www.w3.org/Graphics/SVG/1.1/DTD/svg11.dtd" >
<svg viewBox="0 -442 2048 2048">
  <g transform="matrix(1 0 0 -1 0 1606)">
   <path fill="currentColor"
d="M1704 289q0 -189 -151 -373q-140 -172 -326 -245q-21 -6 -62 -18q-121 -36 -272 -36q-210 0 -335 54q-193 84 -327 244q-149 179 -149 374q0 142 26 218l39 87q88 210 228 304q60 40 248 109q-59 67 -119 133q-99 112 -99 122q0 12 57 54q73 58 146 115q126 99 132 99
h306q12 0 333 -258q2 -4 2 -10q0 -2 -218 -255q31 -10 92 -32q170 -64 269 -181q81 -96 154 -286q8 -20 17 -107q9 -80 9 -112zM1300 1270l-259 204h-48l140 -204h167zM1064 1264l-122 210h-98l-122 -210h342zM1250 1213h-322l-19 -179l176 -13zM793 1474h-48l-262 -204h170
zM877 1034l-19 179h-322l165 -192zM1610 269q0 142 -13 192q-14 34 -39 102q-32 94 -115.5 190t-171.5 136q-181 82 -378 82q-123 0 -251 -36q-140 -40 -227 -108q-113 -88 -177 -236q-60 -139 -62 -291v-33q-2 -164 162 -336q107 -112 264 -175q24 -10 72 -26
q110 -26 219 -26q39 0 166 17q136 18 264 106q121 84 201 204q14 19 39 59q47 96 47 179zM1531 263q0 -10 -19 -73q-24 -80 -65 -134q-73 -97 -138 -152q-2 -1 -75 -36q-21 -13 -66 -33q-99 -30 -221 -36q-8 0 -26 -2.5t-28 -2.5q-268 0 -416 110q-24 29 -75 83
q-53 49 -97 125q-50 86 -50 148q0 135 20 196q12 36 89 179q39 73 110 130q5 4 44 24q21 13 65 35l78 21q28 9 84 23q64 10 148 10q76 0 148 -10q3 0 71 -20q31 -6 91 -24q198 -74 307 -357q21 -54 21 -204zM1438 293v28q-1 19 -1 29q0 60 -10 90l-36 80q-51 116 -123 176
q-18 11 -53 33q-132 84 -322 84q-189 0 -322 -84q-19 -10 -53 -33q-73 -65 -123 -176q-18 -38 -35 -76q-11 -30 -11 -83q0 -94 20 -165q19 -67 95 -153.5t141 -117.5q111 -53 288 -53q123 0 195 19q85 23 149 73q49 39 104 106q64 78 76 126q21 84 21 97z" />
  </g>

</svg>
