<?xml version="1.0" standalone="no"?>
<!DOCTYPE svg PUBLIC "-//W3C//DTD SVG 1.1//EN" "http://www.w3.org/Graphics/SVG/1.1/DTD/svg11.dtd" >
<svg viewBox="0 -442 2048 2048">
  <g transform="matrix(1 0 0 -1 0 1606)">
   <path fill="currentColor"
d="M1972 -76q0 -49 -26 -89q-53 -82 -134 -144q-12 -9 -56.5 -25t-59.5 -16q-11 0 -27 20t-16 31q0 4 21 40q23 41 25 44l-243 222q-48 -28 -146 -82q-23 -8 -67 -27l-36 -20q-27 0 -57 32q-3 3 -20 51l117 164l-704 714l34 111q-127 152 -127 155q0 30 13 44l-381 382h57
l353 -353q9 10 21 11q20 4 21 4l204 -153q6 0 18 3q4 1 27 15q16 9 30 9q29 0 70 -38q30 -30 59 -60q35 -35 104 -105l347 -347q54 -56 164 -163q3 -2 14 -3q3 0 84.5 47.5t101.5 47.5q60 0 80 -112l-185 -187l184 -226q79 37 95 37q12 0 26.5 -11t14.5 -23zM761 980
q0 5 -66 47q-14 -7 -14 -17q0 -11 27 -33.5t40 -25.5q13 18 13 29zM1766 339q0 -5 -22 61h-10q-25 -7 -74 -26q-6 -3 -61 -36q-51 -30 -53 -30q-9 7 -32 29q-230 234 -695 695q-5 2 -15 2q-19 0 -43 -17q11 -7 34 -22q1 -3 1 -7q0 -9 -35 -51v-11q6 3 32 25q17 15 37 15
q23 0 23 -31q0 -11 -17 -23t-17 -34q0 -29 -91 -90q-10 -7 -28 -7q-14 0 -19 3q0 8 -1.5 24.5t-1.5 25.5q15 19 23 25q13 11 31 12l1 -2v-9q-1 -3 -11 -14t-10 -15q0 -8 7 -13q24 15 25.5 17t12.5 26q3 -5 25 -5q-1 6 -1 11q0 15 12 27q17 17 20 22h-5q-8 0 -14 3v10
q-4 -2 -14.5 -13.5t-18.5 -11.5q-4 0 -11.5 3.5t-11.5 3.5q-1 0 -28.5 -29.5t-39.5 -29.5q-8 0 -68 59q-10 -39 -10 -37q0 -4 36 -47t36 -53q0 -6 -4 -19q68 -53 72 -53q6 0 11 7q-16 20 -47 62q6 7 29 7q13 0 55 38q36 34 50 52q11 23 34 67q16 -21 48 -54q14 -1 34 -8
q31 -29 161 -159q76 -76 225 -230q9 -10 19 -21q0 -15 -31 -53q-27 -34 -44 -47l-386 385q-12 -5 -33 -17q-5 -9 -18 -23l-60 -39l87 -93h10h26l-2 10q7 9 22 26q4 -7 2 -15q35 12 28 12q6 0 9 -5q-6 -16 -22.5 -27t-32.5 -21v-10q14 -27 47 -77q14 -2 33 -20t22 -18
q4 0 35.5 20t35.5 20q-3 0 8 -3v-7q-13 -20 -62 -50q16 -8 22 -16q12 -18 16 -22q14 -9 41 -28q14 14 29.5 28.5t31.5 14.5l5 -2q-3 -10 -12 -28h13q4 0 10.5 2t10.5 2q2 0 3 -1q1 -13 -17 -28q-13 -12 -27 -23l8 -8q42 28 58 28q3 0 5 -2v-15q-14 -10 -40 -31q4 -9 13 -28
q5 -9 54 -57q44 -43 44 -61q0 -12 -58.5 -88.5t-58.5 -80.5q0 -6 18 -25.5t24 -20.5l179 121q-8 4 -8 11q0 5 6.5 19t6.5 23q0 8 -5 16h-9q-6 -1 -9 -1q-10 0 -46.5 30t-36.5 39q0 7 8 22h30q4 0 4.5 -7t1.5 -8l18 -12q4 -2 12 -31q13 -3 24 -6t20 -18q18 -8 28 -8
q9 0 38 23q-8 6 -8 13q0 10 20.5 26t23.5 22.5t5 30.5q18 18 38 18q12 0 14 -3q0 -7 3 -19.5t3 -19.5q0 -95 -162 -160q24 0 66 9q31 15 85 67q12 12 19 34.5t7 23.5q56 52 167 157q2 2 5 6zM705 937q-12 20 -23 39q-16 24 -35 23v11q6 10 20 29q-41 -12 -29 -12
q-7 0 -12 11q5 5 5 11q-12 -6 -19 -6q-4 0 -5.5 7t-2.5 8q-33 27 -98 83q12 -15 33 -45q2 -8 8 -22q29 -27 66 -69q2 -5 1 -14q7 3 21 3q12 0 36 -23zM696 907q0 7 -23 34.5t-30 27.5q-5 0 -26 -20q23 -50 66 -63q13 12 13 21zM1148 343l-7 8q-3 -2 -17 -14l7 -7q8 4 17 13z
M1744 -322v24q-17 19 -21 19q-6 0 -27 -13q0 -14 6 -30q4 0 15 2.5t17 2.5t10 -5zM958 651l-71 -60q-4 3 -18 10v11q51 27 71 49q7 -4 18 -10zM911 674q-2 -10 -18.5 -28t-25.5 -18h-23v11q22 18 57 35h10zM868 678q-12 -9 -37 -28h-11v20l37 25h11v-17zM1068 485
q-12 -14 -61 -29v22q-11 6 -24 6q4 11 4 19q-1 8 -5 8l-30 -3v22q-8 2 -25 6v20l58 19q-4 -10 -12 -31v-1q1 -1 5 -1q7 0 25 12q7 -7 7 -15q0 -3 -5 -10.5t-5 -13.5v-4l30 18q11 -10 11 -9q0 -7 -13 -26q3 -2 8 -2t22 3zM1296 211q-11 -7 -22 -7q-5 0 -33 31.5t-28 37.5
q0 4 23 35q25 -13 25 -24q0 2 -3 -14q14 -19 38 -59zM1114 435q0 -8 -18 -22.5t-26 -14.5h-14q15 26 44 48h14v-11zM1139 398q-33 -25 -45 -25h-13q46 42 58 42v-17z" />
  </g>

</svg>
