<?xml version="1.0" standalone="no"?>
<!DOCTYPE svg PUBLIC "-//W3C//DTD SVG 1.1//EN" "http://www.w3.org/Graphics/SVG/1.1/DTD/svg11.dtd" >
<svg viewBox="0 -442 2048 2048">
  <g transform="matrix(1 0 0 -1 0 1606)">
   <path fill="currentColor"
d="M1938 949q0 -44 -28 -82q-30 -41 -72 -41q-67 0 -127 71q-48 63 -95 125q-2 -4 -2 -9q0 -24 15 -86.5t15 -86.5q0 -36 -19 -83q-22 -54 -50 -65q-23 -9 -67 -9q-25 0 -36 5q-32 16 -58 77q-22 55 -22 97q0 134 102 134q43 0 84 -38q2 2 2 5q0 72 -20 113q-2 5 -221 358
q0 5 13 29l177 -211q-2 39 -16 135q-12 85 -12 132q30 -4 38 -34l8 -54q11 -97 57 -282q12 -32 46 -72l56 -66q29 66 48 84q27 26 88 26q43 0 72 -67q24 -55 24 -105zM1516 470q0 -10 -20.5 -36.5t-20.5 -32.5q0 -5 10 -35t11 -38q5 -30 5 -57t-21 -86q-33 105 -34 109
q-30 68 -77 70q28 -47 32 -67q3 -12 3 -75q0 -74 -70 -151q-22 -14 -58 -49q-9 -25 -29 -72q-23 -44 -49 -79q-156 -215 -416 -215q-316 0 -494 366q-32 24 -84 75q-8 18 -25 52q-8 -61 -8 -55q0 -25 12 -46q-52 40 -52 150q0 49 26 133q-26 21 -36 58l-16 66q32 -16 43 -16
q46 0 59 39q-3 1 -8 1t-14 -1.5t-14 -1.5q-24 0 -65 28q-3 2 -24 34q0 9 2.5 23.5t2.5 20.5l53 -27q8 0 29 21q-5 9 -31 37q-18 19 -18 46q0 24 17 45t41 21q4 0 10.5 -4.5t10.5 -4.5q-13 -6 -26.5 -12t-18.5 -22q25 -25 39 -25q23 0 27 12v30q0 47 45.5 120.5t88.5 91.5
q10 2 30 10q6 11 20 29q94 91 250 91q41 0 81 -12q45 -14 65 -16q6 -6 12 -6q4 0 38 15t52 15q6 0 19 -1.5t19 -1.5q16 0 44 11t46 11q224 0 299 -201q24 -65 24 -116q0 -19 5 -29t28 -31.5t30 -21.5t21.5 1.5t21.5 1.5v-13q0 -14 -56 -37q20 -61 20 -57q0 -10 -6 -27.5
t-6 -26.5q0 -23 21 -23q6 0 32 18q-1 5 -5 16t-4 18q0 11 10 16h7q19 0 33 -28q11 -24 11 -46zM1896 956q0 115 -67 115q-77 0 -77 -125q0 -26 25 -48.5t52 -22.5q-1 0 50 27q17 60 17 54zM1591 811q0 45 -25 84q-29 44 -72 44q-46 0 -46 -82q0 -132 68 -132q32 0 53.5 26.5
t21.5 59.5zM1233 293q-9 32 -28 97q0 -7 -2.5 -22t-2.5 -23q0 8 17 -48q5 -2 16 -4zM1230 233v17h-18q-3 -21 -11 -63q29 39 29 46zM1343 256q0 6 -2.5 16.5t-2.5 15.5q-55 -191 -170 -226v4q27 22 43 64q-9 -2 -25 -9q-49 -93 -125 -112v4q57 65 57 204q0 19 -9 40
q-11 26 -13 37q-10 57 -18 182q-29 -23 -62 -43q42 -42 42 -102q0 -4 -3 -9q-20 51 -34 64q-19 19 -67 19q-53 0 -76 -79l-2 32q0 50 53 83q-10 4 -29 13q-9 -36 -18 -47q-18 -17 -35 -33q-11 -27 -23 -85v-43q0 -16 9 -30t9 -18q0 3 -3 -12h-24q-109 90 -124 238
q-18 -15 -18 -19q0 -10 9.5 -34.5t9.5 -38.5q0 -6 -2 -10q-31 68 -43 68q-10 0 -52 -50l2 -10q80 0 80 -83q0 -87 -81 -87q-79 0 -75 83q-10 -8 -29 -24q12 -22 35 -67q-40 -1 -66 42q-18 37 -36 75v-41q0 -96 27 -161q10 -13 29 -40q-21 -14 -36 -14q-31 0 -55 23
q-33 31 -40 34v-17q0 -24 59 -114q22 -36 61 -87q83 -72 144 -98q67 -27 172 -27q266 0 409 269q10 34 32 86q7 10 35 24.5t42 35.5q39 59 39 114zM579 262v18q-7 8 -14 8q-4 -6 -12 -17l8 -9h18zM658 224q0 6 -5 11h-24q-5 -10 -23 -19v-33h17q35 26 35 41zM311 101
q-41 77 -41 116q0 57 11 97h-23q-37 0 -37 -60q0 -44 26 -88t64 -65zM1046 241q0 -81 -77 -81q-81 0 -81 87q0 79 77 79q81 0 81 -85zM850 118q-13 -18 -27 -37t-41 -19q-30 0 -67 52q37 -5 67 -5q41 0 68 9zM974 -3q-64 -48 -194 -48q-98 0 -193 48h387zM948 280l-18 4
l-4 -17l17 -5zM1023 218v17h-29q-6 -12 -23 -19v-37h13q39 19 39 39z" />
  </g>

</svg>
