<?xml version="1.0" standalone="no"?>
<!DOCTYPE svg PUBLIC "-//W3C//DTD SVG 1.1//EN" "http://www.w3.org/Graphics/SVG/1.1/DTD/svg11.dtd" >
<svg viewBox="0 -442 2048 2048">
  <g transform="matrix(1 0 0 -1 0 1606)">
   <path fill="currentColor"
d="M1928 1508q-4 -45 -10 -136q-8 -170 -25 -363q-10 -5 -27 -27q-8 -161 -32 -322q-49 -320 -276 -320q-43 0 -97 23q-64 28 -64 64l46 77q45 89 90 177q54 103 122 156v149q0 4 -11 18.5t-11 19.5v484h56v-465q14 -16 60 -14l19 479h160zM1397 58q0 -81 -43 -169
q9 -34 9 -70q0 -85 -46 -156h-85q56 77 56 144l-2 24q-65 -64 -99 -85q-54 -34 -123 -34q-155 0 -212 146l-209 -195h-70q88 79 254 246q13 21 43 60q70 66 139 133q81 86 81 165q0 21 -6 51q-140 -142 -245 -142q-179 0 -231 176l-524 -524q1 9 -1 25q-1 20 -1 26
q0 23 9.5 34.5t116.5 118.5q98 94 286 289q53 59 53 114q-1 2 -2 3q-7 0 -105 -47t-157 -47q-62 0 -110.5 54t-48.5 117v23q0 20 23 71v5l-63 -45v93q31 13 89 46q32 32 98 91q129 103 229 103q69 0 135 -63.5t66 -132.5q0 -153 -87 -230l3 -61q225 277 379 277
q85 0 132 -63q41 -56 41 -144q0 -38 -11 -90q-8 -38 -8 -41q0 -36 18 -84q229 -6 229 -212zM1839 969q-5 2 -11 4q-10 0 -29.5 -2t-29.5 -2q-9 0 -87 11v-114q35 -24 58 -24q49 0 83 12q6 55 16 115zM1767 793q-13 0 -38 6t-38 6q-50 0 -176 -252q-42 -84 -69 -122h31
q88 0 198 210q32 50 92 152zM1030 597q0 15 -20 25.5t-36 10.5q-62 0 -173.5 -111.5t-111.5 -173.5q0 -28 17 -56q170 194 316 293q8 5 8 12zM1281 155q-19 36 -58 36q-62 0 -185.5 -121.5t-123.5 -183.5q0 -16 16 -58q185 229 351 327zM559 800q0 14 -23 26t-38 12
q-64 0 -187 -115q-127 -117 -127 -190v-5q0 -35 21 -53q39 45 138 103q115 66 147 93q69 59 69 129z" />
  </g>

</svg>
