<?xml version="1.0" standalone="no"?>
<!DOCTYPE svg PUBLIC "-//W3C//DTD SVG 1.1//EN" "http://www.w3.org/Graphics/SVG/1.1/DTD/svg11.dtd" >
<svg viewBox="0 -442 2048 2048">
  <g transform="matrix(1 0 0 -1 0 1606)">
   <path fill="currentColor"
d="M1923 996q0 -127 -170 -288l-569 -536q-173 -163 -286 -266q-42 -39 -129 -116q-104 -88 -221 -93h-43q-153 0 -286 118q-137 121 -137 272q0 201 147 338q5 5 194 173l707 628q48 44 147 129q105 85 247 85q177 0 313 -163q86 -103 86 -281zM1591 1370q-40 14 -79 14
q-74 0 -183 -87q-92 -77 -276 -229q-177 -145 -177 -154q0 -8 26.5 -23t35.5 -15l250 229q257 235 331 260q21 7 72 5zM1730 1094q-31 41 -67 41q-17 0 -511 -442q19 -21 60 -60zM1872 972q0 6 -4 23q-14 -38 -48 -110q-64 -107 -224 -251q-127 -114 -255 -229v-14h11
q100 91 250 233q64 59 183 186q17 18 47 58q40 64 40 104zM1183 595l-41 57l-330 -285q-51 -47 -157 -134q-35 -19 -69 -38q-50 -28 -50 -49q0 -11 13 -55q19 -10 28 -10q6 0 50 20q41 19 51 26q27 17 168 150zM1298 355q0 60 -71 196q-148 -130 -299 -265
q-62 -61 -194 -175q-103 -77 -195 -77q-18 0 -35 25t-17 44v74q0 15 60 41q72 31 76 34q105 78 244 215q115 114 231 229q-97 90 -108 99q-71 58 -124 71q-12 3 -51 3q-7 0 -11 -3q-14 -10 -107 -97l-222 -208q-51 -57 -164 -152q-9 -4 -26 -14q-9 -6 -50 -57.5t-48 -63.5
q-36 -67 -36 -166q0 -54 12 -93q10 -31 54.5 -98t69.5 -88t87 -47.5t91 -26.5h72q74 0 119 17q37 14 101 61q17 12 145 131q99 94 299 279q32 25 87 84q10 15 10 28z" />
  </g>

</svg>
