<?xml version="1.0" standalone="no"?>
<!DOCTYPE svg PUBLIC "-//W3C//DTD SVG 1.1//EN" "http://www.w3.org/Graphics/SVG/1.1/DTD/svg11.dtd" >
<svg viewBox="0 -442 2048 2048">
  <g transform="matrix(1 0 0 -1 0 1606)">
   <path fill="currentColor"
d="M2030 884l-78 -19q-5 151 -99 285.5t-233 186.5q-27 11 -83 29l55 74q335 -84 420 -453q19 -82 18 -103zM1869 846q-24 -5 -72 -13q-6 43 -28 131q-86 238 -325 259q12 21 37 62q95 -14 204 -81q71 -44 127.5 -152.5t56.5 -194.5v-11zM1869 304q-68 -107 -225 -250
q-57 -58 -172 -173q-2 6 -21 44q-18 35 -18 38q0 17 145.5 152.5t212.5 223.5q33 -12 78 -35zM1717 373l-324 -331q-14 20 -40 70l299 294zM1730 778q0 -123 -76 -246q-57 -92 -174 -206q-95 -92 -190 -183q-154 -158 -232 -307q-80 152 -235 310l-192 182
q-117 113 -173 203q-76 122 -76 247q0 164 87 266q92 109 253 109q91 0 187 -49t149 -122q58 75 147 122q93 49 185 49q53 0 111 -19q229 -76 229 -356zM670 1223q-250 -25 -331 -269q-10 -31 -24 -121q-36 3 -72 13v10q0 10 15 80l15 57q27 109 137 195q104 82 221 97
q13 -21 39 -62zM575 1366q-10 -2 -83 -29q-135 -50 -234.5 -189.5t-97.5 -282.5l-78 19v14q0 -4 8 48q23 146 102 265q86 127 213 186q95 44 112 44q3 0 58 -75zM759 112q-12 -24 -37 -70q-116 109 -327 331l65 33zM679 -37q-14 -27 -39 -82q-56 59 -172 173
q-165 152 -225 250l75 35zM1382 1095h-17q-63 0 -145 -47q-76 -43 -120 -96q15 -13 46 -40q96 113 236 183zM882 1037q-73 46 -166 46q-126 0 -202 -99q-69 -90 -69 -219q0 -120 95 -226q-38 105 -38 220q0 126 83 206t210 80q47 0 87 -8z" />
  </g>

</svg>
