<?xml version="1.0" standalone="no"?>
<!DOCTYPE svg PUBLIC "-//W3C//DTD SVG 1.1//EN" "http://www.w3.org/Graphics/SVG/1.1/DTD/svg11.dtd" >
<svg viewBox="0 -442 2048 2048">
  <g transform="matrix(1 0 0 -1 0 1606)">
   <path fill="currentColor"
d="M1710 497q-104 -45 -191 -85q-5 -46 -27 -135q-6 -16 -72 -73q-152 0 -172 -13t-85 -75q-71 -67 -71 -78q0 -12 16 -49t25 -49q14 -13 39 -41q27 -39 27 -88q0 -102 -45 -193q-44 2 -88 5q-71 5 -71 18v16q0 -3 14 13t44 63q51 81 51 131q0 49 -22 76q-25 30 -51 60
l-150 -132q-25 8 -64 44q-58 54 -59 54q-15 -19 -49 -53q-23 -15 -65 -50q-12 -23 -40 -66q-33 -28 -95 -88q-12 -17 -25 -35q-16 -22 -32 -22q-20 0 -50 47q-28 44 -28 66q0 7 7 17q12 3 59 26q12 3 35 11q139 59 152 86q7 13 26 75t19 73q0 5 -36 42t-45 43l-139 -25v161
q-42 43 -52 43q-169 -8 -149 -8q-7 0 -11 3q-67 44 -91 87q-29 52 -29 122q0 21 17 99q13 8 39 22q-12 15 -56 59l100 104q-20 7 -56 31q-29 32 -29 67q0 7 46 83q12 4 36 13q-20 6 -53 28q-18 22 -82 158h202l8 9l-19 105q82 82 110 92q23 8 155 8q2 0 39.5 -21t42.5 -23
q7 11 25 28l112 -28q6 25 19 75q38 21 87 44l83 -25q8 1 23 24.5t24 27.5t167 48l67 -144q-8 -12 -41 -45q19 -19 47 -40q114 73 223 73l119 -23q-6 -28 -6 -41q0 -22 29.5 -61t29.5 -62q0 -59 -7 -79q-15 -14 -40 -36q-37 -23 -113 -70q51 -9 103 -14q4 -4 4 -137
q-24 -16 -72 -50q78 -87 78 -94q0 -17 -22 -90zM1543 1215q0 -2 -25 46h-12q-41 1 -94 -11q-22 -34 -22 -49q0 -9 7 -15h27q0 4 -1 13v13q0 21 28 21q42 0 42 -38q0 -18 -22.5 -38.5t-40.5 -20.5q-4 0 -11.5 1.5t-11.5 1.5t-13 -1h-13q-13 0 -35.5 16t-22.5 28q0 29 2 36
q19 52 36 61q33 18 164 37q-9 1 -37 8q-24 6 -37 6q-18 0 -113 -21q-17 -2 -45 -12q-60 -45 -60 -118q0 -5 35 -58q80 -39 101 -39q18 0 64 10q50 11 60 19q50 39 50 104zM1139 1421q0 14 -33 72q-23 -7 -67 -27q-60 -41 -60 -56q0 -10 16 -58q8 0 26 -3t27 -3q32 0 61.5 22
t29.5 53zM1500 644v83q0 6 -30 56q-36 14 -72 14q-24 0 -24 26q0 14 30 30l42 20q14 13 44 37v49q-43 10 -39 10q-19 0 -51 -23q-6 -5 -30 -41q-20 -30 -34 -30q-6 0 -22 15q-1 7 -1 13q0 11 7 28.5t7 26.5q0 99 -49 99q-16 0 -42 -36t-26 -53q0 -13 3 -38t3 -38
q0 -17 -24 -17q-6 0 -50 58t-58 58q1 0 -47 -24q-14 -51 -14 -46q0 -13 23 -54q1 -1 58 -8q54 -7 54 -32q0 -10 -9 -17q-12 0 -34 -5q-76 -31 -76 -76q0 -36 29 -36q55 0 88.5 31.5t46.5 31.5q27 0 27 -24q0 -4 -29 -53t-29 -67q0 -5 1 -16.5t1 -17.5q3 -2 13 -13h76
q53 29 59 115q0 11 2 33q3 15 27 15q18 0 25 -12q1 -10 5 -25q11 -19 41 -39.5t51 -20.5q15 0 27 13zM1205 1102q0 5 -45 63q-14 0 -53 3q-34 3 -54 3q-11 0 -11 21q0 26 50 41l74 16q11 8 32 22q-35 53 -63 53q-38 0 -80 -12l-9 -3q-10 -1 -28 -9l-25 -32q-16 -20 -33 -20
q-28 0 -28 22q0 10 6 30.5t6 30.5q0 81 -37 81q-34 0 -62 -8q-23 -43 -23 -77q0 -10 11 -29.5t11 -24.5q0 -25 -25 -25q-10 0 -45 36t-63 36q-34 0 -41 -3q-1 -1 -30 -29q11 -19 39 -48q2 -1 42 -10q26 -5 26 -27q0 -11 -12 -21h-90q-18 0 -35 -17q-1 -1 -14 -25
q28 -30 84 -30q18 0 51 9t50 9q8 0 22 -1t20 -1q9 -12 27 -41l-28 -94q6 -27 13 -53.5t35 -42.5q4 -2 12 -2q47 0 52 2q39 19 39 38q0 20 -8 59.5t-8 59.5q0 6 27 39q8 1 17 1q15 0 52 -24t81 -24q23 0 47 18t24 40zM1584 528q-15 24 -54 57q-23 8 -77 8q-29 0 -38 -5
q-16 -13 -31 -25q10 -18 29 -54q70 -26 87 -26q5 0 84 45zM587 1278q0 58 -93 58q-61 0 -91 -11q-14 -14 -45 -40v-88q0 -12 17 -37t27.5 -29.5t37.5 -4.5q84 0 122 49l-72 -8q-20 0 -54 7q-21 33 -21 46q0 24 6 32q28 38 50 38q48 0 57 -9v-37l-3 -2h-18q-4 0 -10 4.5
t-10 4.5q-25 0 -25 -25q0 -28 43 -28q82 0 82 80zM1436 360q-62 -31 -61 -31h-84q-7 0 -28.5 23t-21.5 30q0 47 32.5 69.5t61.5 22.5q15 0 27 -8v-31q-17 -7 -35 -14q-22 -10 -22 -27q0 -21 28 -21q48 0 68 30q1 8 1 22q0 75 -120 75q-8 0 -13 -2q-74 -23 -101 -97
q-1 -4 -1 -10v-26q0 -16 28 -52.5t43 -36.5q11 0 33 8t33 8h85q26 22 47 68zM389 1085q-74 54 -98 54q5 0 -83 -11q37 -58 44 -66q30 -34 67 -34q38 0 52 10t18 47zM1155 552q0 16 -33 44h-107q-15 0 -62.5 -19t-62.5 -19q-33 0 -33 22q0 18 38 71t38 72q0 50 -14 80h-61
q-17 -15 -38 -42q-17 -46 -17 -159q0 -42 -54 -38l-6 1q-17 40 -45 89q-32 30 -73 30q-22 0 -54 -39q30 -67 69 -76q44 -11 60 -37q-20 -21 -25 -22.5t-37 -1.5q-11 0 -48 -13t-46 -20q-38 -30 -47 -43q-13 -20 -13 -60q0 -11 7 -17q62 16 177 63q3 2 24 20q16 14 24 14
q28 0 28 -34q0 -9 -11 -27t-11 -23v-116q39 -23 52 -23q15 0 22 4q38 21 44 62q1 4 1 83q0 4 12 23q8 1 16 1q33 0 53 -61q21 -68 67 -83q5 -2 15 -2q42 0 50 3q14 4 41 30q0 -5 0 31q0 20 -9 40q-2 12 -11 32q-26 32 -60 42q-55 15 -64 20v27q16 15 21 15h102
q22 0 51.5 17.5t29.5 38.5zM747 907v46l-64 32q-17 -3 -48 -14q-75 -36 -78 -36q-30 0 -30 23q0 12 7.5 19.5t10.5 14.5q11 29 11 54q0 13 -25 24q-21 9 -37 9q-19 0 -51 -39t-32 -57q0 -2 8.5 -20t7.5 -36v-12q-23 -15 -25 -15q2 0 -41.5 31.5t-69.5 31.5q-24 0 -46 -15.5
t-22 -39.5q0 -28 72 -46.5t72 -36.5q0 -20 -17 -25q-15 0 -44 -5q-92 -30 -92 -80q0 -15 34 -15q36 0 81.5 29.5t61.5 29.5q11 0 30 -14q-38 -109 -38 -113q0 -36 28 -36q10 0 39 11q14 27 39 81q3 25 17 72q20 40 53 40t66.5 -43t49.5 -43q32 0 38.5 3t17.5 8v9v20
q1 34 -46 52l-76 24v28q17 15 38 18q33 4 39 6q20 9 61 25zM1183 206q-9 9 -27 23q-73 -58 -70 -112l1 -10zM1073 1q-34 41 -34 96q0 9 9 72h-65q-4 -12 -4 -32v-17q0 -24 35.5 -70.5t58.5 -48.5zM995 40q-50 34 -50 94q0 20 5 41q-39 32 -46 32q-12 0 -40 -23.5t-35 -36.5
q-32 -56 -32 -115q0 -5 46.5 -42t53.5 -37q14 0 98 87zM675 335q-38 13 -35 13q-21 0 -77 -17q-29 -49 -29 -70q0 -8 1.5 -23.5t1.5 -23.5q77 17 82 19q29 14 48 69q2 11 8 33zM1161 -172q0 33 -10 53h-12q-3 -84 -23 -118q-31 -46 -62 -91q31 -10 56 -10h25q26 50 26 166z
M477 497q0 8 -11 48q-7 6 -29 20q-8 -76 -9 -79q-10 -27 -63 -52q-8 -4 -30 -4q-23 0 -47.5 20.5t-24.5 43.5q0 77 53 77q14 0 23 -19l-19 -47l4 -12q4 0 11.5 -2t11.5 -2q24 0 24 65q0 23 -28.5 45t-53.5 22q-67 0 -77.5 -37t-10.5 -55q0 -33 23.5 -74.5t52.5 -55.5
q10 -5 31 -5q128 0 149 49q20 45 20 54zM677 129v25q-7 -2 -21 -8q7 -5 21 -17zM794 134q-20 4 -39 4l-48 19q0 -126 -18 -174q-3 -9 -23 -35q-17 -21 -16 -35q111 80 144 221zM584 -173l-166 -72q22 -56 39 -56q8 0 127 128zM970 1171q0 -32 -43 -32h-12q-19 0 -39 39
q23 30 40 30q54 0 54 -37zM1311 811q0 -30 -31 -30q-41 0 -41 35q0 37 32 37q40 0 40 -42zM527 869q0 -38 -39 -38t-39 27q0 39 45 39q33 0 33 -28zM869 452q-30 -10 -31 -10q-17 0 -43 14q-29 15 -29 30q0 13 14 27t27 14q8 0 21 -3q17 -4 22 -5q19 -25 19 -28v-39z" />
  </g>

</svg>
