<?xml version="1.0" standalone="no"?>
<!DOCTYPE svg PUBLIC "-//W3C//DTD SVG 1.1//EN" "http://www.w3.org/Graphics/SVG/1.1/DTD/svg11.dtd" >
<svg viewBox="0 -442 2048 2048">
  <g transform="matrix(1 0 0 -1 0 1606)">
   <path fill="currentColor"
d="M1996 971q0 -186 -121 -362q-77 -112 -262 -287q-78 -72 -232 -220q-224 -223 -336 -432q-91 168 -259 345q-60 63 -311 300q-188 176 -267 290q-126 181 -126 366q0 230 124 370q130 146 358 146q289 0 478 -232q190 232 472 232q229 0 358 -145q124 -139 124 -371z
M1819 1169l-214 26l-23 212q-8 -69 -24 -206l-5 -8q-71 -8 -212 -23q71 -9 212 -28q10 -37 16 -106q5 -75 13 -107q4 50 26 213q22 3 211 27zM1864 909q-51 15 -54 19q-8 26 -17 51q-2 -10 -15 -50q-8 -4 -55 -20l50 -15q16 -30 20 -55q8 26 17 51q1 2 54 19zM1394 971
q-47 16 -52 20q-9 8 -18 53q-9 -46 -17 -53q-4 -4 -52 -20q42 -7 51.5 -16.5t17.5 -51.5q9 25 17 50q9 11 53 18zM1667 603q-34 9 -103 26q-10 36 -26 108q-12 -51 -24 -104q-2 -4 -35 -12l-72 -18q39 -5 107 -30q13 -62 25 -103q8 48 25 108q31 9 103 25zM903 1114
q-33 10 -54 19q-6 16 -15 50q-16 -49 -19 -52q-7 -8 -54 -17q21 -3 55 -20q6 -17 18 -50q5 17 15 50q14 7 54 20zM1213 775q-27 8 -79 26q-9 26 -24 78q-18 -49 -29 -80q-25 -8 -76 -23q26 -8 78 -26q9 -26 26 -78q11 39 27 80q26 8 77 23zM554 1123l-137 23l-23 134
q-14 -68 -23 -134l-137 -23q46 -8 136 -29q9 -43 24 -131q6 43 26 133q13 3 134 27zM774 808q-24 7 -81 28q-10 35 -26 78q-16 -70 -24 -78t-80 -26q28 -10 83 -29q7 -26 24 -78q16 71 25 80q4 3 79 25zM1042 456q-24 7 -54 20q-5 17 -14 50q-13 -32 -18 -50q-8 -4 -55 -20
l50 -15q15 -28 21 -55q7 29 21 55q16 6 49 15zM1372 214l-133 23l-23 134q-12 -62 -25 -128q-6 -14 -133 -29l126 -24q8 -4 12 -38q1 -10 20 -98q8 44 23 131q30 9 133 29zM434 729q-20 4 -51 20q-5 17 -17 50q-10 -49 -22 -56l-46 -14l49 -18q7 -6 19 -50q5 23 22 53
q16 4 46 15zM799 437q-44 9 -132 24q-8 7 -28 133l-26 -134l-131 -23q43 -8 128 -24q7 -15 29 -135q9 44 24 131q8 11 136 28zM1061 -3q-24 7 -54 20q-5 17 -14 50q-4 -19 -18 -50q-17 -6 -51 -20q20 -3 51 -20q6 -17 18 -50q5 17 14 50q14 7 54 20z" />
  </g>

</svg>
