<?xml version="1.0" standalone="no"?>
<!DOCTYPE svg PUBLIC "-//W3C//DTD SVG 1.1//EN" "http://www.w3.org/Graphics/SVG/1.1/DTD/svg11.dtd" >
<svg viewBox="0 -442 2048 2048">
  <g transform="matrix(1 0 0 -1 0 1606)">
   <path fill="currentColor"
d="M1868 938q0 -161 -98 -321q-74 -120 -226 -269q-125 -120 -249 -239q-211 -214 -318 -416q-101 201 -310 413q-126 120 -253 239q-156 151 -231 270q-101 161 -101 323q0 217 114 352q122 142 336 142q258 0 445 -220q178 220 441 220q215 0 336 -142q114 -134 114 -352z
M1687 1229q-11 12 -35 32v-32h35zM1560 1318l-3 3l-12 -11l3 -4zM1716 1187l-21 31q4 -8 4 -16q0 -26 -28 -26h-8q-6 0 -11 3q3 -21 3 -35q4 1 10 1q16 0 25 -4q-7 7 -7 17q0 35 33 29zM1635 1276q-9 6 -29 18v-5q0 -4 2 -6q-22 -22 -29 -22q-5 0 -19 7v-39h35q-7 11 -6 22
v5q18 20 19 20q-1 0 27 0zM1644 1187q-7 11 -7 28q-20 0 -31 7v-35h38zM1733 1098v32q-30 0 -39 3q4 -19 4 -32q24 0 35 -3zM1769 1052q-3 13 -7 25.5t-22 12.5q2 -12 7 -35q7 -1 22 -3zM1506 1318q0 12 -38 25v-22q6 0 19 -1.5t19 -1.5zM1549 1275q-7 8 -7 18q0 8 4 14
q-4 -3 -12 -3q-14 0 -23 6v-27q-6 -22 -26 -22q-3 0 -8.5 1.5t-8.5 1.5q0 -23 -4 -35h42q-7 10 -7 21q0 28 21 28q5 0 14.5 -1.5t14.5 -1.5zM1602 1183q-10 -7 -21 -7h-6q-3 0 -8 1.5t-7 1.5q0 -6 1.5 -17.5t1.5 -17.5h7h4q12 0 21 -3q-9 11 -9 20q0 13 16 22zM1779 967
l-8 28q-16 4 -31 7q7 -27 3 -39q14 5 36 4zM1733 1009v32q-30 0 -39 3q0 -4 1.5 -12.5t0.5 -12.5v-5q-4 -5 -8 -15q13 13 16 13q5 0 14.5 -1.5t14.5 -1.5zM1644 1098v35q-10 -2 -18 -2h-5q-8 0 -15 2q0 -24 1 -27q-5 -6 -13 -18q16 13 24 13q4 0 13 -1.5t13 -1.5zM1549 1186
q-7 11 -7 29q-10 0 -31 7q0 -27 1 -31q-6 -15 -19 -15q-21 0 -25 3v-35q28 0 35 -2q-5 5 -5 13q0 34 37 34q7 0 14 -3zM1464 1276q-11 9 -11 18t10 23q-13 -13 -22 -13q-7 0 -19 6q2 -5 2 -11q0 -38 -31 -38q-9 0 -16 7q2 -15 -8 -42q1 0 4 3t7 3l31 -3q-4 11 -4 20
q0 24 20 27q-2 0 37 0zM1690 967q-6 9 -6 28q-11 2 -32 7v-39q20 5 38 4zM1697 1053q-14 8 -14 21q0 10 11 24q-7 -12 -18 -12q-19 0 -24 5q0 -26 1 -31q-13 -19 -22 -19q-21 0 -25 4q0 -24 1 -28q-17 -21 -20 -21q-5 0 -14 3t-14 3q0 -32 -7 -46q8 7 43 11q-7 7 -6 18v5
q21 22 26 22t14.5 -1.5t14.5 -1.5q-5 11 -5 21q0 20 22 24q-5 -1 36 -1zM1740 959q-12 -6 -22 -6q-11 0 -23 6q0 -4 1 -12.5t1 -12.5q0 -6 -4.5 -14t-4.5 -10q7 13 17 13q21 0 27 -3v15v8q0 11 8 16zM1549 1098q-6 13 -6 21q0 6 3 10q-23 0 -35 4v-32q6 0 19 -1.5t19 -1.5z
M1599 1053q-10 5 -10 22q0 8 3 11q-17 0 -32 5q-1 -3 -1 -6t1 -9.5t1 -9.5q0 -14 -15 -24q22 11 53 11zM1318 1319q-3 0 -2 8q-7 0 -16 -5q6 -3 13 -3h5zM1411 1318q-3 9 -3 28q-23 -4 -32 -3q0 -10 -9.5 -24.5t-18.5 -14.5t-25 4q4 -11 4 -20q0 -27 -25 -27q-4 0 -10.5 1.5
t-10.5 1.5q0 -29 -3 -38l8 6l33 -3q-4 11 -4 20q0 29 21 29q4 0 12.5 -1.5t13.5 -1.5q-3 10 -3 19q0 24 52 24zM1775 875v31q-19 0 -35 4q1 -9 5 -27q-14 -19 -20 -19q-5 0 -15.5 1.5t-15.5 1.5q4 -20 4 -35q3 1 7 1q16 0 27 -5q-1 8 -1 13q0 25 11 31q6 3 33 3zM1457 1186
q-5 15 -3 32q-7 -2 -16 -2t-16 2q1 -6 1 -11q0 -31 -30 -31q-3 0 -8.5 1.5t-8.5 1.5v-35q28 0 35 -2q-5 5 -5 13q0 34 37 34q7 0 14 -3zM1507 1052q-8 10 -8 21q0 10 7 21q-8 -8 -22 -8q-10 0 -16 4v-35q7 0 20 -1.5t19 -1.5zM1762 818q-3 0 -10.5 1.5t-11.5 1.5
q2 -11 11 -32q11 16 11 29zM1362 1187q-4 13 -3 28q-21 0 -32 7q0 -4 1.5 -12t1.5 -13q0 -13 -9 -18q9 10 19 10q3 0 9 -1t9 -1h4zM1651 962q-18 -9 -25 -9t-20 6q0 -52 -29 -52q-3 0 -8.5 1.5t-8.5 1.5q2 -15 0 -35q9 2 20 2t18 -2q-11 8 -11 18q0 15 20 25.5t34 5.5
q-3 6 -3 13q0 18 13 25zM1690 875q-9 11 -3 35q-7 -2 -18 -2q-10 0 -18 2v-19q0 4 2 -7q0 -20 -34 -20q-8 0 -13 3q2 -14 0 -38q9 2 20 2t18 -2q-7 10 -7 19q0 29 42 29q7 0 11 -2zM1549 1010q-7 8 -7 19q0 8 4 12q-26 0 -35 3q1 -15 1 -20q0 -25 -23 -25q-4 0 -10.5 1.5
t-10.5 1.5v-4v-9q0 -18 -4 -26q20 5 39 4q-2 4 -2 14q0 26 14 30q-3 -1 34 -1zM1461 1098q-7 5 -7 22q0 10 3 13q-7 -2 -17 -2q-11 0 -18 2q2 -6 2 -13q0 -33 -38 -33q-8 0 -13 3q3 -12 3 -20q0 -12 -7 -21q12 6 18 6q4 0 12 -1.5t12 -1.5q-4 6 -4 15q0 34 27 34
q5 0 14 -1.5t13 -1.5zM1273 1275q-3 9 -3 32h-12q-8 -7 -19 -13q-8 -33 -21 -33q-5 0 -14.5 1.5t-14.5 1.5v-35q33 1 38 0q-4 11 -4 20q0 29 21 29q5 0 14.5 -1.5t14.5 -1.5zM1743 786q-20 -10 -23 -10q-14 0 -26 6q5 -30 4 -39h34q-1 -4 -1 24q0 14 12 19zM1318 1150v4
q0 4 -1 11t-1 11q-26 0 -35 3v-35q5 0 16 -2t16 -2t5 10zM1546 924v28q-25 0 -36 7v-24q0 -8 2 -6q-4 -5 -10 -19q7 16 22 16q3 0 9.5 -1t10.5 -1h2zM1273 1187q-5 15 -3 31q-7 -2 -15 -2h-5q-8 0 -15 2q0 -4 1 -11t1 -11q0 -10 -7 -16q6 5 37 7h6zM1690 786q-7 21 -7 32
q-22 0 -31 3q0 -3 1 -11q1 -7 0 -11v-5q-11 -18 -28 -18q-6 0 -19 6v-28q7 -11 26 -10h12q-6 9 -6 19l1 7q18 19 25 19q4 0 13 -1.5t13 -1.5zM1461 1010q-7 8 -7 19t6 19q-8 -8 -22 -8q-10 0 -16 4q1 -7 1 -13q0 -25 -16 -30h-35q3 -8 3 -20q0 -7 -1 -13q-5 -5 -13 -15
q16 13 45 13l5 1q-2 6 -2 16q0 25 16 28q-5 -1 36 -1zM1365 1133q-10 -2 -20 -2q-11 0 -18 2l1 -15q1 -31 -24 -31h-9q-8 0 -14 3q0 -18 -7 -45q11 10 18 10q4 0 13 -1.5t14 -1.5q-4 7 -4 15q0 34 26 34q4 0 10.5 -1.5t10.5 -1.5q-2 11 -2 16q0 12 5 19zM1599 787
q-11 7 -11 31q-22 0 -28 3q2 -15 0 -35q4 1 39 1zM1706 690q-8 0 -11 3q0 -4 1.5 -13t1.5 -13q8 16 8 23zM1503 875q-3 9 -3 31q-20 0 -32 4v-32q26 0 35 -3zM1549 829q-7 22 -3 35q-26 0 -35 3q0 -26 1 -30q-4 -6 -4 -12q10 7 21 7q3 0 10 -1.5t10 -1.5zM1273 1098
q-5 15 -3 32q-26 0 -35 3q3 -9 3 -32q23 0 35 -3zM1227 1140q-3 9 -3 36q-30 0 -35 3q0 -6 1.5 -17.5t1.5 -17.5q3 1 8 1q16 0 27 -5zM1182 1187q-6 5 -8 25v6q-7 -2 -15 -2q-9 0 -16 2q1 -6 3 -17q-3 -7 -10 -18q16 4 46 4zM1690 701q-8 12 -5 32q-8 -4 -16 -4q-10 0 -17 7
q0 -27 1 -31q-7 -18 -27 -18q-8 0 -20 6v-38h38q-8 7 -8 16q0 33 42 33q7 0 12 -3zM1457 924q-3 9 -3 28q-20 0 -32 4q2 -5 2 -11q0 -38 -31 -38q-3 0 -8.5 1.5t-8.5 1.5v-32q27 0 35 -2q-4 9 -4 17q0 39 50 31zM1185 1133l-1 5l-8 -4v-5zM1595 701q-8 7 -8 20q0 10 8 13
q-8 -4 -16 -4q-7 0 -19 6v-35h35zM1549 743v35q-3 0 -8 -1t-8 -1q-10 0 -23 6v-28q7 -11 26 -11h13zM1506 786q-6 10 -6 32q-23 0 -32 3v-32q6 0 19 -1.5t19 -1.5zM1677 640q-17 0 -25 4q0 -4 2 -12.5t2 -13.5q0 -9 -8 -11q14 11 29 33zM1457 829q-2 10 -2 17v8q0 7 2 13
q-7 -2 -15 -2h-5q-8 0 -15 2v-35q4 1 7 1h7q12 0 21 -4zM1366 1045q-8 -6 -17 -6q-5 0 -22 5q2 -48 -16 -48q-6 0 -30 6q1 -11 1 -16q0 -33 -34 -33q-8 0 -13 3q2 -7 2 -17q0 -11 -2 -18q15 4 38 3q-4 9 -4 16q0 40 50 27q-3 10 -3 18q0 27 20 27q4 0 12.5 -1.5t13.5 -1.5
q-5 13 -5 20q0 11 9 16zM1227 1052q-4 11 -3 35q-26 0 -35 3q4 -18 3 -35h4h7q10 0 24 -3zM1273 1009q-5 15 -3 32q-26 0 -35 3q3 -9 3 -18q0 -30 -18 -30q-7 0 -31 6v-39q19 5 38 4q-3 10 -3 18q0 27 20 27q5 0 14.5 -1.5t14.5 -1.5zM1602 650q-18 -9 -25 -9q-3 0 -8.5 1.5
t-8.5 1.5v-32h35q-7 6 -7 15q0 13 14 23zM1511 743q-8 -15 -18 -15q-5 1 -8 2q-10 0 -17 6v-32q13 -3 25 -3h9h5q-7 6 -7 15q0 13 11 27zM1644 604q-8 -2 -15 -2h-4q-10 0 -19 3v-28q2 -5 17 -11q13 6 15 17q4 18 6 21zM1461 781q-10 -5 -20 -5q-7 0 -19 6v-39h35
q-3 10 -3 20q0 14 7 18zM1418 787q-10 10 -10 21q0 12 10 19q-18 -9 -26 -9q-11 0 -15 4v-17v-6q0 -17 -12 -18q12 6 53 6zM1362 924q-3 9 -3 28q-21 0 -32 7l1 -14q1 -38 -34 -38q-8 0 -13 3q1 -8 1 -14q0 -32 -34 -32q-8 0 -13 3q4 -13 3 -35q28 0 35 -2q-3 12 -3 21
q0 26 28 26q15 0 17 -3q-1 15 17 48q20 3 30 2zM1374 876q-18 -12 -27 -12h-10q-5 0 -10 3q0 -23 -2 -33q-4 -6 -8 -16q13 13 36 13q5 0 9 -2q-4 10 -4 19q0 17 16 28zM1549 655q-7 8 -7 19q0 8 4 12q-25 0 -36 7v-27q0 -8 2 -7q-10 -13 -11 -18q8 13 22 14h26zM1556 605
l-2 4l-7 -4v-4zM1189 959l-2 5l-8 -4v-5zM1592 527v28q-20 0 -32 4v-36q11 0 32 4zM1549 567l-1 1q-6 5 -6 16v5q0 8 4 12q-23 0 -35 4v-4q1 -11 3 -32q6 0 17.5 -1t17.5 -1zM1503 609q-3 9 -3 32q-23 0 -32 3v-32q26 0 35 -3zM1191 1054q-6 -2 -14 -9q-4 -4 -17 -4
q-14 0 -20 3q3 -6 7 -17q-17 -31 -26 -31q-4 0 -12 3t-12 3v-11q0 -2 1 -6t1 -6q0 -18 -20 -22q-14 -3 -29 -6q3 -3 3 -11q0 -13 -5 -23q7 7 20 7l18 -2q-3 5 -3 12q0 16 17 27t32 6q-5 6 -5 12q0 10 10.5 21.5t19.5 11.5q4 0 12.5 -1t12.5 -1q-7 7 -7 18q0 18 16 26z
M1416 739q-18 -9 -23 -9q-10 0 -16 6v-17q0 -19 -15 -28q8 6 16 11q1 1 33 -1q-5 11 -5 20q0 13 10 18zM1234 920q-13 -13 -24 -13q-4 0 -11 1.5t-10 1.5q2 -15 2 -18q0 -17 -11 -25q15 19 47 9q-4 9 -4 17q0 14 11 27zM1457 655q-2 6 -3 32q-23 0 -32 3q2 -5 2 -11
q0 -38 -31 -38q-3 0 -8.5 1.5t-8.5 1.5q1 8 1 -21q0 -12 -7 -16q11 7 20 7q-11 0 21 -3q-4 9 -4 17q0 38 50 27zM1319 786q-3 9 -3 32q-26 0 -35 3l1 -12q1 -33 -26 -33q-9 0 -21 6q4 -18 3 -35q6 0 18 -1.5t18 -1.5q-4 4 -4 15q0 30 22 30q4 0 13 -1.5t14 -1.5zM1362 743
l-4 36q-4 -3 -10 -3q-8 0 -21 6q1 -32 1 -19q0 -33 -26 -33q-9 0 -21 6q0 -30 -3 -39l8 7l33 -3q-3 10 -3 18q0 27 22 27q4 0 12 -1.5t12 -1.5zM1178 924l-4 32q-7 -2 -15 -2q-9 0 -16 2q0 -4 1.5 -10.5t1.5 -10.5q0 -28 -32 -28q-3 0 -8.5 1.5t-8.5 1.5q1 4 1 -18
q0 -10 -5 -17q9 2 20 2q12 0 19 -2q-2 5 -2 12q0 40 34 40q7 0 14 -3zM1135 1182q-7 -7 -20 -7q-12 0 -18 4q2 -8 2 -15q0 -47 -48 -33q3 -6 3 -13q0 -29 -47 -29l-2 -1q5 -8 5 -15q0 -32 -32 -32q-8 0 -12 4v-10q2 -39 -22 -39q-5 0 -14 3t-14 3q1 -13 1 -17q0 -32 -33 -32
q-8 0 -13 3q0 -26 -7 -40q5 10 18 10q4 0 12 -1t12 -1h3q-5 7 -5 14q0 38 48 29q-4 9 -4 19q0 1 1 7q28 20 46 17q-8 6 -8 14q0 9 12.5 20t21.5 11q3 0 9.5 -1.5t10.5 -1.5q-1 1 -2.5 3.5t-1.5 8.5q0 37 28 37q4 0 10.5 -1.5t10.5 -1.5q-4 6 -4 13q0 32 50 32q-4 6 -4 13
q0 5 3.5 14t3.5 12zM1182 1098q-7 11 -7 32q-26 0 -35 3l9 -21q-21 -25 -31 -25q-4 0 -11 1.5t-10 1.5q2 -8 2 -15q0 -36 -34 -36q-8 0 -14 4q3 -8 3 -15q0 -8 -10 -20t-18 -12q-5 0 -21 4q5 -7 5 -15q0 -32 -32 -32q-2 0 -6.5 1t-6.5 1q2 -5 2 -12q0 -36 -30 -36
q-4 0 -10.5 1.5t-10.5 1.5v-15q0 -8 -1 -15q-7 -11 -7 -16q4 15 44 14q-5 6 -5 13q0 13 16 24t29 10q-4 4 -4 10q0 14 19.5 25t32.5 6q-3 7 -3 14q0 3 1 7q5 25 22 25q4 0 13 -1t13 -1q-5 6 -5 12q0 33 32 33q3 0 9.5 -1.5t9.5 -1.5q-3 9 -3 16q0 33 31 33q4 0 11 -1.5
t11 -1.5zM1464 609q-10 -7 -21 -7h-10q-8 0 -11 3v-36h6h7q14 0 22 -3q-5 15 -5 24q0 15 12 19zM1507 524q-7 8 -7 19t6 19q-8 -7 -20 -7q-11 0 -18 4v-32q6 0 19.5 -1.5t19.5 -1.5zM1546 477v32q-24 0 -35 7v-39q3 1 35 0zM1227 786q-5 15 -3 32q-26 0 -35 3q3 -14 3 -32
q20 0 35 -3zM1182 829q-7 11 -7 35q-26 0 -35 3q0 -5 3.5 -14t3.5 -14q0 -11 -10 -15q6 5 45 5zM863 1140q-3 9 -3 36q-26 0 -35 3q3 -9 3 -35l6 1l4 -1q14 0 25 -4zM817 1187q-5 13 -4 32q-3 -3 -14 -3q-16 0 -20 6q0 -4 1.5 -12t1.5 -12q0 -10 -7 -15q16 5 42 4zM909 1098
q-3 9 -3 32q-26 0 -35 3q0 -28 -7 -42q10 10 19 10q4 0 13 -1.5t13 -1.5zM771 1229q-7 10 -7 36q-3 -3 -11 -3q-15 0 -23 6v-42l10 6q5 0 15.5 -1.5t15.5 -1.5zM722 1275v15q-12 6 -38 17q0 -3 1 -11q1 -7 0 -11v-5q-4 -5 -8 -15q13 13 16 13q5 0 14.5 -1.5t14.5 -1.5z
M1192 785l-2 5l-8 -4v-5zM1362 655q-5 15 -3 31q-22 0 -32 7q1 -21 1 -19q0 -33 -28 -33h-9q-5 0 -10 3v-32h9q14 1 26 -3v9q-1 6 -1 9q0 27 42 27zM958 1053q-11 6 -10 23l1 6q4 4 9 12q-9 -8 -21 -8q-8 0 -20 4q1 -12 1 -19q0 -30 -28 -30q-12 0 -19 4v-7q1 -22 -4 -32
q6 6 11 6t15.5 -1.5t15.5 -1.5q-3 9 -3 18l1 9q15 18 23 19q-12 -2 28 -2zM775 1179l-2 5l-7 -4v-5zM1232 739q-18 -9 -21 -9q-6 0 -22 4q0 -3 1.5 -10t1.5 -11q0 -10 -7 -15q7 2 42 3q-5 11 -5 20q0 13 10 18zM1181 743v39q-14 -6 -17 -6q-12 0 -24 6q2 -13 7 -39h34z
M1092 874q-10 -10 -24 -10h-10q-5 0 -10 3q7 -10 7 -21q0 -12 -9 -21q5 4 44 4q-7 18 -6 30q8 11 8 15zM1132 786v32q-26 0 -35 3v-32h3h9q9 0 23 -3zM1043 871v42q-17 -9 -38 -5q4 -6 4 -14q0 -13 -8 -20l2 2q6 4 15 4q16 0 25 -9zM817 1098q-5 15 -3 32q-26 0 -35 3
q3 -9 3 -32q23 0 35 -3zM771 1141q-7 10 -7 35q-26 0 -35 3q2 -12 7 -36q6 1 12 1h5q11 0 18 -3zM680 1230q-8 6 -8 23q0 4 2 9q-2 -2 -4 -2q-21 0 -29 8v-39h20q13 1 19 1zM588 1318q-11 11 -11 25q-5 0 -14 1.5t-14 1.5v-13q1 -20 -11 -26l22 12q-8 -1 28 -1zM1365 604
q-8 -2 -18 -2q-14 0 -22 3v-17v-12q0 -20 -23 -20h-10q-9 0 -14 3q2 -10 2 -21t-2 -18q4 4 41 4q-3 10 -3 19q0 26 27 26q3 0 9.5 -1.5t9.5 -1.5q-4 11 -4 21q0 13 7 17zM1276 696q-17 -17 -41 -8q5 -8 5 -16q0 -31 -30 -31q-1 0 -21 5q1 -20 1 -16q0 -12 -5 -21q24 6 42 2
q-5 5 -5 13q0 34 37 34q7 0 14 -3q-4 13 -4 20q0 11 7 21zM1461 478q-7 5 -7 21q0 10 3 13q-6 -2 -15 -2q-11 0 -20 3q2 -5 2 -11q0 -38 -31 -38q-8 0 -20 6q4 -13 4 -22q0 -15 -12 -21q22 11 15 11q6 0 17.5 -3t17.5 -3q-7 11 -7 22q0 21 19 24q-1 0 34 0zM648 1322
q-5 -1 -16.5 -9.5t-15.5 -8.5q-9 0 -21 6q0 -24 1 -27q-15 -22 -28 -22q-5 0 -19 7v-39h35q-6 10 -6 19l1 8q21 22 25 22q5 0 15 -1.5t15 -1.5q-7 9 -7 19q0 25 21 28zM863 1052q-4 11 -3 35q-26 0 -35 3q4 -12 4 -21q0 -28 -30 -28q-13 0 -20 4q0 -4 1.5 -12t1.5 -12
q0 -10 -7 -15q1 0 5 3t8 3q5 0 14.5 -1.5t14.5 -1.5q-3 10 -3 19q0 27 25 27q4 0 12 -1.5t12 -1.5zM722 1186v29q-18 0 -39 7q3 -13 3 -21q0 -25 -24 -25h-11q-5 0 -10 3q3 -21 3 -35q4 1 10 1q16 0 25 -4q-8 8 -8 18q0 30 36 30q8 0 15 -3zM1421 565q-14 -9 -39 -9
q-5 0 -9 2q5 -6 5 -15q0 -33 -32 -33q-7 0 -23 4q4 -9 4 -21q0 -29 -25 -29q-12 0 -24 6q2 -8 2 -18q0 -12 -3 -21q18 6 42 1q-4 11 -4 20q0 26 50 26q-6 9 -6 19l1 7q21 22 25 22t12.5 -1.5t13.5 -1.5q-4 26 -4 20q0 12 14 22zM1273 566q-4 11 -3 35q-23 0 -35 4
q3 -23 3 -36h3h9q13 0 23 -3zM1145 742q-18 -12 -27 -12t-21 6q0 -29 -7 -42q8 6 39 7h3q-1 -4 -1 19q0 12 14 22zM1090 744q-7 5 -7 19v4q0 8 3 11q-7 -2 -17 -2q-11 0 -18 2q3 -9 3 -31q6 0 18 -1.5t18 -1.5zM781 1100q-5 -2 -12 -7.5t-16 -5.5h-10q-9 0 -14 3
q2 -12 7 -35q6 0 17.5 -1.5t17.5 -1.5q-7 9 -7 19q0 17 17 29zM866 1005l-11 -10q-12 2 -34 6q7 -9 7 -23t-7 -18q15 8 42 7q-3 6 -3 13q0 10 6 25zM997 829v42q-10 -7 -19 -7q-7 0 -12 3q1 5 1 -24v-4q0 -13 -12 -15q15 5 42 5zM633 1187q-6 9 -6 28q-21 0 -32 7v-35h38z
M722 1098v32q-30 0 -39 3q4 -19 4 -32q24 0 35 -3zM496 1318q-7 14 -7 25q-11 -2 -32 -7v-15q6 0 19.5 -1.5t19.5 -1.5zM1509 477q-13 -13 -24 -13q-7 0 -17 5q1 -48 -22 -48q-4 0 -12 1.5t-12 1.5q1 -6 1 -11q0 -33 -47 -32q2 -6 2 -13q0 -26 -17 -32q-4 -1 -38 -1
q3 -10 3 -20q0 -7 -4.5 -14.5t-4.5 -10.5q19 21 45 12q-2 9 -2 16q0 28 30 28q14 0 17 -4q1 2 2 34q12 12 23 13h25q-3 14 -3 21q0 24 39 24q7 0 10 1q0 4 -1 13t-1 14q8 11 8 15zM1278 518l-5 2l-4 -9l5 -2zM538 1275q-7 8 -7 18q0 8 4 14q-4 -3 -12 -3q-14 0 -23 6v-27
q-5 -22 -26 -22q-3 0 -8.5 1.5t-8.5 1.5q0 -23 -4 -35h43q-8 11 -8 22q0 27 21 27q5 0 14.5 -1.5t14.5 -1.5zM1227 523q-5 15 -3 32q-23 0 -35 4q3 -9 3 -32q11 0 35 -4zM1182 606q-6 -6 -18 -6q-15 0 -24 8v-25q7 -4 6 -14h6h7q14 0 22 -3q-9 11 -9 22t10 18zM1181 654v39
q-12 -6 -19 -6q-10 0 -22 6q1 -11 4 -34q-14 -19 -19 -19q-15 0 -28 7q1 -7 1 -13q0 -32 -34 -32q-8 0 -13 3q4 -29 3 -36q6 0 18 -1.5t18 -1.5q-7 11 -7 21q0 25 36 25q8 0 13 -3q-3 6 -3 13q0 35 37 35q8 0 15 -3zM775 1004q-1 0 -6 -4t-9 -4q-7 0 -31 6q7 -29 4 -39
q16 5 38 4q-7 8 -7 18q0 14 11 19zM591 1183q-10 -7 -21 -7h-6q-3 0 -8 1.5t-7 1.5q0 -6 1.5 -17.5t1.5 -17.5h7h4q12 0 21 -3q-9 11 -9 20q0 13 16 22zM908 838v5q0 3 -1 10t-1 11q-26 0 -35 3q0 -23 -2 -33q-4 -6 -8 -16q13 13 25 13q3 0 8.5 -1.5t8.5 -1.5q5 0 5 10z
M722 1009v32q-29 0 -38 3q0 -3 1 -12q1 -7 0 -12v-6q-4 -5 -8 -15q13 13 16 13q5 0 14.5 -1.5t14.5 -1.5zM633 1098v35q-10 -2 -18 -2h-5q-8 0 -15 2q0 -24 1 -27q-5 -6 -13 -18q16 13 24 13q4 0 13 -1.5t13 -1.5zM401 1320l-2 5l-8 -4v-5zM1362 389q-3 9 -3 32
q-6 0 -18 1.5t-18 1.5q4 -11 4 -19q0 -21 -17 -24q1 0 -33 0q5 -17 4 -35h38q-4 9 -4 17q0 33 47 26zM1273 478q-5 15 -3 31q-26 0 -35 3q4 -5 4 -13q0 -35 -28 -35q-6 0 -22 4q3 -8 3 -18q0 -14 -7 -18q7 2 19 2q11 0 23 -2q-4 11 -4 20q0 22 17 26h33zM1090 655
q-8 6 -8 23q0 5 2 10q-2 -2 -4 -2q-22 0 -29 7v-26q0 3 2 -6v-1q-19 -28 -48 -18q3 -6 3 -11q0 2 -6 -22q8 2 22 2q13 0 20 -2q-8 7 -8 16q0 33 42 33q7 0 12 -3zM1044 786q-7 21 -7 32q-27 0 -36 3q8 -6 8 -14q0 -10 -10 -20.5t-19 -10.5q-8 0 -14 6q2 -8 2 -16
q0 -36 -31 -36q-8 0 -20 6q1 -11 1 -16q0 -33 -34 -33q-7 0 -13 3v-35h38q0 3 -1 8.5t-1 7.5q0 25 11 30q7 2 34 0q-4 9 -4 19q0 1 1 7q24 17 46 17q-8 7 -8 16q0 29 31 29q4 0 13 -1.5t13 -1.5zM955 786q-7 11 -7 32q-22 0 -31 3l1 -11q1 -34 -27 -34q-8 0 -20 6v-39
q3 1 38 0q-4 10 -4 18q0 28 26 28q4 0 12 -1.5t12 -1.5zM863 874q-2 10 -2 21t2 18q-8 -7 -21 -7q-4 0 -18 2q5 -7 5 -15q0 -29 -30 -29h-10q-5 0 -10 3q0 -4 2 -12t2 -12q0 -8 -9 -18q11 7 23 7q-5 0 20 -2q-3 12 -3 21q0 26 28 26h11q5 0 10 -3zM538 1186q-7 11 -7 29
q-10 0 -31 7q0 -27 1 -31q-8 -15 -19 -15q-21 0 -25 3v-35q28 0 35 -2q-5 5 -5 13q0 34 37 34q7 0 14 -3zM453 1276q-10 9 -10 18q0 8 10 23q-13 -13 -23 -13q-7 0 -19 6q2 -5 2 -12q0 -37 -30 -37q-10 0 -17 7q2 -15 -8 -42q1 0 4 3t7 3l31 -3q-4 11 -4 20q0 24 20 27
q-2 0 37 0zM1276 431q-8 -8 -42 -8h-6q11 -10 11 -19q0 -8 -9 -22q6 5 37 7h6q-4 13 -4 21q0 11 7 21zM1182 478q-5 4 -7 26v5q-24 0 -35 7q6 -18 6 -35q6 0 18 -1.5t18 -1.5zM1132 523v32q-26 0 -38 4q0 -3 1 -12q1 -8 0 -13v-6q-4 -6 -4 -12q10 10 15 10q4 0 12.5 -1.5
t13.5 -1.5zM863 786q-5 15 -3 32q-26 0 -35 3q3 -9 3 -32q20 0 35 -3zM818 957q-8 -4 -19 -4q-8 0 -21 6v-11q0 -3 1 -8t1 -8v-3q-14 -22 -28 -22q-4 0 -23 3q2 -7 5 -27q-8 -19 -28 -19q-4 0 -11.5 1.5t-11.5 1.5q4 -20 4 -35q3 1 8 1q16 0 27 -5q-1 8 -1 14q0 35 39 35
q7 0 11 -2q-7 10 -7 20q0 17 18.5 24.5t34.5 2.5q-5 11 -5 22t6 13zM679 967q-6 9 -6 28q-11 2 -32 7v-39q20 5 38 4zM686 1053q-14 8 -14 20q0 11 12 25q-6 -12 -19 -12q-19 0 -24 5q0 -26 1 -31q-13 -19 -22 -19q-21 0 -25 4q0 -24 1 -28q-17 -21 -20 -21q-5 0 -13.5 3
t-13.5 3q0 -30 -8 -46q8 7 43 11q-6 6 -6 16l1 7q21 22 25 22q5 0 14.5 -1.5t14.5 -1.5q-5 11 -5 21q0 20 22 24q-5 -1 36 -1zM729 959q-12 -6 -21 -6q-12 0 -24 6q0 -4 1 -12.5t1 -12.5q0 -5 -4 -13.5t-4 -10.5q7 13 17 13q20 0 26 -3v15v8q0 11 8 16zM538 1098
q-6 13 -6 21q0 6 3 10q-23 0 -35 4v-32q6 0 19 -1.5t19 -1.5zM588 1053q-10 5 -10 22q0 8 3 11q-17 0 -32 5q-1 -3 -1 -6t1 -9.5t1 -9.5q0 -14 -15 -24q22 11 53 11zM1044 701q-9 13 -6 32q-3 -3 -11 -3q-17 0 -25 6q6 -17 6 -23q0 -7 -10.5 -16.5t-17.5 -9.5q-3 0 -8 1.5
t-7 1.5q2 -5 2 -12q0 -37 -30 -37q-4 0 -10.5 1.5t-10.5 1.5q1 -7 1 -13q0 -29 -26 -29q-14 0 -17 3q-4 -16 -3 -30v-9q7 2 17 2t21 -2q-4 9 -4 17q0 39 46 30q-5 5 -5 11q0 14 17.5 24t30.5 7q-6 11 -5 20q14 23 23 26h32zM446 1186q-5 15 -3 32q-7 -2 -16 -2t-16 2
q1 -6 1 -12q0 -30 -29 -30q-3 0 -9 1.5t-9 1.5v-35q28 0 35 -2q-5 5 -5 13q0 34 37 34q7 0 14 -3zM1279 346q-13 -13 -35 -13q-5 0 -9 2q3 -9 3 -32q26 0 35 -3q-3 9 -3 17v5q0 4 1 8q8 11 8 16zM351 1275q-4 8 -4 22q-11 -5 -31 -18q-19 -16 -49 -53l8 6l33 -3q-4 11 -4 20
q0 29 21 29q4 0 12.5 -1.5t13.5 -1.5zM1181 387v40q-1 0 -5.5 -3t-8.5 -3t-13 1.5t-14 1.5v-37q20 3 41 0zM1090 478q-5 7 -5 17q0 9 4 21q-9 -7 -20 -7q-8 0 -21 4q6 -18 6 -32q5 0 17.5 -1.5t18.5 -1.5zM824 785q-18 -9 -23 -9q-10 0 -22 6q4 -18 3 -35q6 0 17.5 -2
t17.5 -2q-4 16 -4 21q0 13 11 21zM1227 343l-3 39q-19 -6 -35 -1q4 -10 4 -21q0 -16 -10 -21q4 8 15 8q23 0 29 -4zM1320 258q-5 15 -4 31q-27 0 -39 4q3 -9 3 -19v-5q0 -5 -2 -10l-6 -15q8 11 37 11q7 0 11 3zM1132 431v36q-3 0 -8 -1.5t-8 -1.5q-10 0 -22 6q0 -3 1 -13
q1 -8 0 -12v-5q-3 -5 -7 -15q9 9 20 9q4 0 12 -1.5t12 -1.5zM771 786q-7 11 -7 32q-26 0 -35 3q2 -11 7 -32q6 0 17.5 -1.5t17.5 -1.5zM496 1052q-8 10 -8 21q0 10 7 21q-8 -8 -22 -8q-10 0 -16 4v-35q7 0 20 -1.5t19 -1.5zM351 1187q-4 13 -3 28q-21 0 -32 7q0 -4 1.5 -12
t1.5 -13q0 -13 -9 -18q9 10 19 10q3 0 9 -1t9 -1h4zM640 962q-18 -9 -24 -9q-8 0 -21 6q0 -52 -29 -52q-3 0 -8.5 1.5t-8.5 1.5q2 -15 0 -35q9 2 20 2q12 0 19 -2q-11 8 -11 18q0 15 19.5 25.5t33.5 5.5q-3 6 -3 13q0 18 13 25zM863 701q-2 7 -2 18q0 10 2 17q-6 -6 -18 -6
q-9 0 -21 6q4 -5 4 -14q0 -35 -29 -35l-20 5q0 -4 1.5 -12t1.5 -12q0 -11 -8 -20q6 5 37 7h6q-4 11 -4 20q0 29 50 26zM679 875q-9 11 -3 35q-7 -2 -17 -2t-18 2q0 -4 1 -13v-12q0 -4 -7.5 -12.5t-12.5 -8.5q-21 0 -27 3q2 -14 0 -38q9 2 20 2t18 -2q-7 12 -7 22q0 26 42 26
q7 0 11 -2zM538 1010q-7 8 -7 19q0 8 4 12q-26 0 -35 3q1 -15 1 -20q0 -25 -23 -25q-4 0 -10.5 1.5t-10.5 1.5v-6v-10q0 -16 -3 -23q16 4 38 4q-3 10 -3 18q0 5 1 8q7 17 20 19q-15 -2 28 -2zM450 1098q-7 5 -7 22q0 10 3 13q-7 -2 -17 -2q-11 0 -18 2q1 -6 1 -11
q0 -35 -37 -35q-8 0 -13 3q3 -12 3 -20q0 -12 -7 -21q12 6 18 6q4 0 12 -1.5t12 -1.5q-4 6 -4 14q0 35 28 35q4 0 13 -1.5t13 -1.5zM1273 215q-4 11 -3 28q-23 0 -35 4v-36q13 0 38 4zM1227 254q-4 11 -3 35q-23 0 -35 4q3 -9 3 -35q21 0 35 -4zM1139 385q-6 -6 -18 -6h-5
q-4 0 -11.5 1t-10.5 1v-38q10 2 18 2h5q8 0 15 -2q0 -2 0 19v5q0 10 7 18zM1181 300q-6 10 -6 32q-27 0 -36 3q7 -8 7 -20t-7 -17q10 6 19 6q4 0 23 -4zM1043 432q-6 19 -5 35q-8 -4 -15 -4q-11 0 -18 7v-35h5h9q11 0 24 -3zM1090 389q-7 5 -7 22q0 10 3 13q-12 -5 -39 -1
l2 -2q5 -7 5 -21q0 -8 -3 -11h39zM869 654q-21 -21 -45 -12q4 -9 4 -17q0 -12 -9 -20q6 8 14 8q20 0 30 -3q-4 9 -4 18q0 14 10 26zM732 786q-20 -10 -23 -10q-13 0 -25 6q4 -23 3 -39h35v4q0 4 -1 10.5t-1 10.5q0 13 12 18zM998 604q-6 -2 -14 -2q-9 0 -18 3q1 -13 1 -19
q0 -30 -37 -30q-8 0 -13 3q1 -49 -26 -49q-13 0 -20 5q0 -30 -7 -44q7 7 45 7q-3 11 -3 19q0 4 1 7q7 20 45 20q-4 12 -3 20v6q24 19 31 19q3 0 8 -1.5t7 -1.5q-7 10 -7 21q0 13 10 17zM262 1187q-3 9 -3 31q-15 -10 -29 -31h32zM535 924v28q-24 0 -35 7v-24q0 -9 1 -6
q-2 -2 -9 -19q7 16 21 16q3 0 10 -1t10 -1h2zM307 1150v4q0 4 -1 11t-1 11q-26 0 -35 3v-35q5 0 16 -2t16 -2t5 10zM1192 254l-2 4l-8 -4v-5zM679 786q-6 18 -6 32q-23 0 -32 3q0 -3 1 -11q1 -7 0 -11v-5q-10 -18 -28 -18q-6 0 -19 6v-28q7 -11 26 -10h12q-6 9 -6 19l1 7
q18 19 25 19q4 0 13 -1.5t13 -1.5zM771 700v36q-12 -6 -19 -6q-11 0 -23 6q1 -10 5 -31q-17 -20 -20 -20l-30 7q0 -4 1 -13q1 -8 0 -13v-6q-4 -6 -4 -12q8 6 38 7h3q-3 6 -3 13q0 35 37 35q8 0 15 -3zM1234 210q-18 -9 -23 -9q-8 0 -22 7q4 -23 3 -39h35q-4 16 -4 20
q0 13 11 21zM450 1010q-7 8 -7 19t6 19q-8 -8 -22 -8q-10 0 -16 4q2 -7 2 -13q0 -25 -16 -29q-3 -1 -35 -1q2 -7 2 -16q0 -7 -1 -17q-5 -5 -13 -15q16 13 45 13l5 1q-3 10 -3 18q0 5 1 8q8 17 22 19q-15 -2 30 -2zM354 1133q-10 -2 -20 -2q-11 0 -18 2l1 -15q1 -31 -24 -31
h-9q-8 0 -14 3q0 -18 -7 -45q11 10 18 10q5 0 14 -1.5t14 -1.5q-4 7 -4 16q0 33 25 33q4 0 10.5 -1.5t10.5 -1.5q-2 11 -2 16q0 12 5 19zM1004 433q-25 -12 -21 -12q-3 0 -8.5 1.5t-8.5 1.5v-3v-7q0 -15 -4 -25h33q-7 6 -7 17q0 19 16 27zM1050 388q-14 -7 -48 -7v-35
q32 1 42 1q-8 11 -8 19q0 11 14 22zM1182 212q-5 4 -7 27v5q-23 0 -32 3q0 -3 1.5 -9t1.5 -9t-10 -21q6 4 46 4zM817 566q-3 9 -3 35q-28 0 -35 4q0 -6 1.5 -18t1.5 -18h4h9q12 0 22 -3zM771 609q-5 15 -5 26q0 6 2 9q-7 -2 -17 -2t-22 2q2 -11 7 -32h6h7q14 0 22 -3z
M863 524q-5 15 -3 31q-23 0 -35 4q3 -9 3 -18q0 -12 -6.5 -21t-6.5 -10q15 15 22 16q-19 -2 26 -2zM588 787q-11 7 -11 31q-22 0 -28 3q2 -15 0 -35q4 1 39 1zM492 875q-3 9 -3 31q-20 0 -32 4v-32q26 0 35 -3zM538 829q-7 22 -3 35q-26 0 -35 3q0 -26 1 -30q-4 -6 -4 -12
q10 7 21 7q3 0 10 -1.5t10 -1.5zM262 1098q-5 15 -3 32q-26 0 -35 3q3 -9 3 -32q23 0 35 -3zM679 701q-8 12 -5 32q-8 -4 -16 -4q-10 0 -17 7q0 -27 1 -31q-7 -18 -26 -18q-9 0 -21 6v-38h39q-8 7 -8 16q0 33 41 33q7 0 12 -3zM446 924q-3 9 -3 28q-20 0 -32 4q2 -5 2 -12
q0 -37 -30 -37q-3 0 -9 1.5t-9 1.5v-32q27 0 35 -2q-4 9 -4 17q0 39 50 31zM817 478q-5 15 -3 31h-1h-6q-18 0 -28 7v-39q10 5 38 1zM1043 523v36q-23 -6 -41 -1q5 -16 5 -23v-3q-17 -20 -42 -20q2 -4 2 -10q0 -38 -30 -38q-8 0 -20 6v-10q2 -39 -19 -39q-5 0 -14 1.5
t-14 1.5v-11q1 -21 -12 -30.5t-34 -2.5q5 -8 5 -16q0 -29 -51 -29q5 -7 5 -15q0 -30 -31 -30q-4 0 -11.5 1.5t-11.5 1.5q2 -12 7 -36q6 0 17.5 -1t17.5 -1q-8 7 -8 18q0 28 54 28q-6 7 -6 16q0 33 38 33q7 0 13 -3q-6 7 -6 14q0 31 41 31q7 0 12 -3q-4 10 -4 18q0 22 17 25
q-1 0 33 0q-7 10 -6 22v7q23 17 45 17q-5 15 -5 25v1q18 22 27 22q5 0 14 -1.5t13 -1.5zM722 566v35q-26 0 -38 4q0 -6 1.5 -18t1.5 -18q26 0 35 -3zM585 734q-8 -4 -14 -4h-4q-6 0 -18 6v-35h35q-8 6 -8 19q0 11 9 14zM679 609q-5 8 -5 17q0 8 5 21q-4 -9 -38 -6v-5
q-1 -3 0.5 -8.5t1.5 -8.5q0 -7 -7 -13q10 7 21 7h4q7 0 18 -4zM538 743v35q-3 0 -8 -1t-8 -1q-9 0 -22 6v-28q7 -11 26 -11h12zM496 786q-7 11 -7 32q-23 0 -32 3v-32q6 0 19.5 -1.5t19.5 -1.5zM446 829q-2 10 -2 17v8q0 7 2 13q-7 -2 -15 -2h-5q-8 0 -15 2v-35q4 1 7 1h7
q12 0 21 -4zM355 1045q-8 -6 -17 -6q-5 0 -22 5v-8q1 -40 -15 -40q-7 0 -31 6q1 -11 1 -16q0 -33 -34 -33q-8 0 -13 3q2 -7 2 -17q0 -11 -2 -18q15 4 39 3q-4 9 -4 17q0 38 49 26q-3 10 -3 18q0 27 20 27q4 0 12.5 -1.5t13.5 -1.5q-5 13 -5 20q0 11 9 16zM216 1052
q-3 9 -3 35h-25q-3 -12 -10 -35q9 2 17 2q9 0 21 -2zM863 432q-2 10 -2 20q0 11 2 18q-6 -6 -18 -6q-8 0 -20 6q3 -9 3 -18q0 -31 -22 -31q-4 0 -13 1.5t-14 1.5v-35h38q-4 10 -4 18q0 22 17 25q-1 0 33 0zM956 383q-7 -6 -17 -6q3 0 -23 4q1 -13 1 -17q0 -31 -33 -31
q-8 0 -13 3q0 -21 -2 -31q-4 -5 -8 -15q13 13 24 13q3 0 8 -1.5t8 -1.5q8 0 8 5q0 3 -1.5 8.5t-1.5 8.5q0 19 16 23l30 2q-5 13 -5 20q0 11 9 16zM995 337q-8 -6 -15 -6t-14 5q2 -6 2 -13q0 -33 -32 -33h-9q-5 0 -10 3q0 -18 -7 -45q7 7 45 7q-8 6 -8 15q0 33 35 33
q9 0 12 -3q-8 16 -8 23q0 9 9 14zM772 560l-2 -2q-6 -4 -14 -4q-5 0 -14 2t-13 2q2 -6 5 -30q-8 -18 -24 -18q-10 0 -26 4q0 -4 1 -13q1 -8 0 -13v-6q-4 -5 -8 -15q13 13 17 13q5 0 14 -1.5t14 -1.5v8q-2 31 11 37q4 2 38 2q-8 9 -8 20q0 12 9 16zM262 1009q-5 15 -3 32
q-26 0 -35 3q4 -11 4 -20q0 -28 -19 -28q-7 0 -31 6v-39q20 5 39 4q-4 13 -4 20q0 25 20 25q5 0 14.5 -1.5t14.5 -1.5zM684 566q-6 -11 -17 -11q-22 0 -26 4q3 -18 3 -32q6 0 17.5 -1.5t17.5 -1.5q-5 7 -5 16q0 14 10 26zM591 650q-18 -9 -25 -9q-3 0 -8.5 1.5t-8.5 1.5v-32
h35q-7 6 -7 15q0 13 14 23zM500 743q-8 -14 -18 -14q-17 0 -25 7v-32q13 -3 25 -3h8h6q-7 6 -7 15q0 13 11 27zM633 566v39q-10 -2 -20 -2q-11 0 -18 2q0 -6 1.5 -18t1.5 -18q6 0 17.5 -1.5t17.5 -1.5zM450 781q-10 -5 -20 -5q-7 0 -19 6v-39h35q-3 10 -3 20q0 14 7 18z
M407 787q-10 10 -10 21q0 12 10 19q-18 -9 -26 -9q-11 0 -15 4q0 1 0 -22q0 -18 -11 -19q12 6 52 6zM351 924q-3 9 -3 28q-21 0 -32 7q1 -8 1 -14q0 -38 -34 -38q-8 0 -13 3q1 -8 1 -14q0 -32 -34 -32q-8 0 -13 3q4 -13 3 -35q28 0 35 -2q-3 12 -3 21q0 26 28 26q15 0 17 -3
q-1 15 17 48q20 3 30 2zM363 876q-18 -12 -27 -12h-10q-5 0 -10 3q0 -23 -2 -33q-4 -6 -8 -16q13 13 36 13q5 0 9 -2q-4 10 -4 19q0 17 16 28zM538 655q-7 8 -7 19q0 8 4 12q-24 0 -35 7v-27v-5q0 -2 1 -2q-10 -13 -11 -18q8 13 22 14h26zM1135 296q-6 -6 -15 -6
q-4 0 -13.5 1.5t-13.5 1.5q0 -5 1 -16v-15q0 -31 -43 -17q2 -7 2 -14q0 -30 -37 -30q3 0 -11 3q3 -7 3 -15q0 -10 -10 -22t-20 -12q-3 0 -7 1.5t-6 1.5q2 -6 2 -12q0 -31 -51 -31q1 -13 1 -17q0 -31 -33 -31q-8 0 -13 3q1 6 1 -22q0 -10 -8 -18q4 8 42 8h3q-4 8 -4 15
q0 15 15 24t30 4q-4 5 -4 12q0 17 15.5 27t32.5 6q-3 5 -3 11q0 35 25 35l24 -3q-2 4 -2 12q0 25 14 30q4 1 34 1q-5 5 -5 13q0 32 33 32q3 0 9 -1.5t9 -1.5q-3 15 -3 22q0 12 6 20zM1090 301q-5 8 -5 18q0 9 4 20q-9 -8 -22 -8q-8 0 -20 4q8 -9 8 -18q0 -27 -42 -27
q-7 0 -11 2q7 -6 7 -16q0 -32 -29 -32q-11 0 -14 3q2 -5 2 -12q0 -34 -31 -34q-6 0 -20 7l1 -17q1 -36 -27 -36q-4 0 -10.5 1.5t-10.5 1.5v-11q2 -36 -30 -36q-8 0 -16 3q3 -6 3 -14q0 -10 -6 -26q8 6 39 7h3q-4 6 -4 14q0 34 36 34q7 0 14 -3q-3 9 -3 19q0 27 18 27l28 -3
q-4 12 -4 22q0 4 1 8q19 13 45 13q-5 12 -5 19q0 8 11.5 17t20.5 9q3 0 9.5 -1t9.5 -1q-4 9 -4 17q0 29 54 29zM779 385l-3 5l-12 -8l3 -5zM545 605l-1 4l-8 -4v-4zM178 959l-2 5l-8 -4v-5zM863 254q-4 11 -3 35q-23 0 -35 4q3 -9 3 -35q21 0 35 -4zM1135 207q-12 -6 -21 -6
q-10 0 -17 7q0 -5 1 -14v-14q0 -23 -45 -23l-2 -1q2 -7 2 -13q0 -23 -20 -27q-14 -2 -28 -3q5 -6 5 -13q0 -33 -30 -33q-3 0 -7.5 1t-6.5 1q2 -7 2 -13q0 -32 -34 -32q-14 0 -17 3q1 4 1 -23q0 -15 -18 -25q43 15 52 13q-4 9 -4 19q0 1 1 7q22 17 46 17q-7 7 -7 15
q0 15 18.5 24.5t32.5 6.5q-3 6 -3 12q0 18 16.5 27.5t33.5 5.5q-1 3 -1 7q0 39 25 39q4 0 11 -1.5t11 -1.5q-1 11 -1 16q0 10 4 22zM588 524q-10 9 -10 20q0 6 3 11q-20 0 -32 4v-32q6 0 19.5 -1.5t19.5 -1.5zM538 567l-1 1q-6 5 -6 16v5q0 8 4 12q-23 0 -35 4v-4
q1 -11 3 -32q6 0 17.5 -1t17.5 -1zM492 609q-3 9 -3 32q-23 0 -32 3v-32q26 0 35 -3zM223 920q-13 -13 -24 -13q-4 0 -10.5 1.5t-10.5 1.5q3 -28 3 -21q0 -11 -8 -17q11 7 22 7q-9 0 22 -3q-4 10 -4 18q0 14 10 26zM405 739q-18 -9 -22 -9q-11 0 -17 6q0 1 0 -19
q0 -17 -14 -26q7 6 14 11q2 1 34 -1q-5 11 -5 20q0 13 10 18zM1182 127q-9 6 -6 31q-7 -3 -14 -3q-11 0 -19 7q0 -11 6 -21l-23 -23q-6 -3 -29 -3q2 -8 2 -15q0 -24 -15.5 -27.5t-32.5 -5.5q2 -6 2 -12q0 -41 -48 -30q5 -6 5 -13q0 -31 -32 -31q-9 0 -12 3l1 -7
q3 -42 -35 -46q4 -4 16 -20q0 14 1 18q31 23 28 23q4 0 10 -3t8 -3q-7 8 -7 16q0 15 19 25.5t33 4.5q-2 4 -2 9q0 16 21 35q20 3 27 2q-5 6 -5 12q0 14 18 25t32 6q-4 7 -4 14q0 18 20 27q17 8 35 5zM909 212q-3 9 -3 31q-23 0 -35 4q1 -6 1 -12q0 -34 -27 -34
q-4 0 -10.5 1.5t-10.5 1.5q5 -17 4 -35h35q-4 9 -4 21q0 21 17 23q-10 -1 33 -1zM641 523q-7 -14 -17 -14q-20 0 -29 6q0 -23 1 -29q-18 -22 -30 -22q-11 0 -17 6v-35q6 0 19.5 -1.5t19.5 -1.5q-1 1 -2 1q-8 7 -8 22v3q20 20 24 21q-7 -1 32 -1q-7 7 -7 16q0 12 14 29z
M775 475l-22 -11q-8 0 -24 4q5 -18 5 -25v-3q-15 -19 -22 -19q-5 0 -14.5 1.5t-14.5 1.5q3 -13 3 -21q0 -24 -32 -24q-7 0 -13 3q0 -5 1 -15v-14q0 -4 -7 -12.5t-12 -8.5q-21 0 -28 4v-6q-1 -3 0.5 -10t1.5 -10q0 -7 -7 -13q5 4 43 4q-7 10 -7 18q0 27 40 27q8 0 13 -3
q-8 8 -8 18q0 31 37 31q7 0 14 -3q-2 7 -2 13q0 25 16 29q3 1 35 1q-8 7 -8 22q0 16 12 21zM771 346q-5 4 -7 27v5q-26 0 -35 3q2 -6 5 -30q-8 -19 -51 -16q5 -22 4 -32h9q14 1 26 -3q-3 6 -3 13q0 36 37 36q8 0 15 -3zM679 432q-6 19 -5 35q-8 -4 -16 -4q-10 0 -17 7
q2 -9 2 -19q0 -30 -22 -30q-4 0 -12.5 1.5t-13.5 1.5v-20q0 -2 1.5 -4t1.5 -4q0 -3 -9 -11q6 6 18 6q4 0 12.5 -1t12.5 -1h2q-8 9 -8 17q0 26 53 26zM446 655q-2 6 -3 32q-23 0 -32 3q2 -5 2 -12q0 -37 -30 -37q-3 0 -9 1.5t-9 1.5q1 8 1 -21q0 -12 -7 -16q11 7 20 7
q-11 0 21 -3q-4 9 -4 17q0 38 50 27zM308 786q-3 9 -3 32q-26 0 -35 3q1 -7 1 -13q0 -32 -26 -32q-9 0 -21 6q4 -18 3 -35q6 0 18 -1.5t18 -1.5q-4 4 -4 15q0 30 22 30q4 0 13 -1.5t14 -1.5zM351 743l-4 36q-4 -3 -10 -3q-8 0 -21 6q1 -32 1 -19q0 -33 -26 -33q-9 0 -21 6
v-6v-11q0 -15 -3 -22l8 7l33 -3q-2 6 -2 16q0 29 21 29q4 0 12 -1.5t12 -1.5zM817 212q-5 15 -3 31q-23 0 -35 4q3 -12 3 -32q17 0 35 -3zM453 609q-10 -7 -20 -7h-9q-10 0 -13 3v-36h6h7q14 0 22 -3q-5 15 -5 24q0 15 12 19zM496 524q-7 8 -7 19t6 19q-8 -7 -20 -7
q-11 0 -18 4v-32q6 0 19.5 -1.5t19.5 -1.5zM538 478q-7 8 -7 19q0 8 4 12q-24 0 -35 7v-35q6 0 19 -1.5t19 -1.5zM217 786q-5 16 -4 32q-22 0 -28 3q6 -18 6 -35h26zM782 211l-3 5l-11 -8l2 -5zM351 655q-5 15 -3 31q-21 0 -32 7q1 -22 1 -20q0 -47 -47 -31q22 -34 27 -34
q8 0 11 5q-3 9 -3 17q0 30 46 25zM224 736l-2 5l-8 -4v-5zM771 169q-9 14 -5 35q-3 -3 -10 -3q-17 0 -26 7q1 -13 6 -39h35zM1021 -69q-5 2 -15 8q0 -4 1.5 -13t1.5 -14q6 8 12 19zM686 255q-14 9 -14 20q0 10 12 25q-6 -11 -17 -11q-22 0 -26 4q0 9 0 -14v-7q0 -8 -4 -18
q18 6 49 1zM818 160q-10 -5 -19 -5q-6 0 -20 7q0 -3 1 -12q1 -8 0 -13v-6q-4 -6 -4 -12q9 7 41 8q-5 8 -5 20q0 10 6 13zM722 212v31q-27 0 -39 4q6 -24 1 -39q4 4 38 4zM496 432q-8 10 -8 23q0 12 8 19q-10 -10 -22 -10q-11 0 -17 6v-35q6 0 19.5 -1.5t19.5 -1.5zM410 565
q-13 -9 -27 -9h-12q-4 0 -9 3q2 -10 2 -18v-6q0 -8 -2 -15q6 6 12 6q4 0 12.5 -1.5t13.5 -1.5q-4 26 -4 20q0 12 14 22zM266 696q-7 -6 -26 -10q7 -12 22 -32q-4 11 -4 19q0 13 8 23zM584 346v35q-6 -2 -15 -2q-11 0 -20 3v-4q0 -4 1.5 -12.5t1.5 -12.5q0 -7 -6 -11
q8 6 18 6q3 0 10 -1t10 -1zM450 478q-7 5 -7 21q0 10 3 13q-6 -2 -12 -2h-5q-9 0 -18 3q0 1 0 -19v-5q0 -9 -7 -14q1 0 6.5 2.5t9.5 2.5q5 0 15 -1t15 -1zM538 389q-7 8 -7 19q0 8 4 12q-6 0 -18.5 2t-18.5 2h-5q11 -15 11 -26q0 -9 -7 -14q3 2 36 5h5zM355 604
q-8 -2 -15 -2h-7q-9 0 -21 3v-23q0 -3 3.5 -7.5t3.5 -5.5h6h6q11 0 20 -3q-3 10 -3 20q0 14 7 18zM1001 -101q-20 -10 -21 -10q-5 0 -10.5 3t-7.5 3q3 -11 11 -32q9 13 28 36z" />
  </g>

</svg>
