<?xml version="1.0" standalone="no"?>
<!DOCTYPE svg PUBLIC "-//W3C//DTD SVG 1.1//EN" "http://www.w3.org/Graphics/SVG/1.1/DTD/svg11.dtd" >
<svg viewBox="0 -442 2048 2048">
  <g transform="matrix(1 0 0 -1 0 1606)">
   <path fill="currentColor"
d="M1938 892q0 -43 -24 -79q-36 -40 -105 -122q-25 -33 -58 -94q-26 -49 -27 -50q-13 -19 -42 -40q-10 -4 -29 -15q-24 -25 -72 -73q-37 -37 -127 -125q-192 -188 -270 -276q-157 -175 -221 -311q-97 191 -298 396q-23 24 -225 218q-172 165 -245 272q-113 168 -113 341
q0 214 113 347q119 140 330 140q247 0 432 -210q66 55 104 150q39 99 132 99q40 0 84 -23t45 -23q13 0 39 3.5t39 3.5q179 0 293 -103.5t139 -282.5q106 -51 106 -143zM1880 892q0 118 -209 118q-35 0 -73 -13q-11 53 -94 108q-75 51 -135 60q-3 82 -48 153q-51 83 -127 83
q-51 0 -67 -30q-17 -37 -57 -109q-32 -52 -127 -152q-18 -19 -18 -37q0 -71 60 -109q50 -32 127 -32q49 0 96 17q10 -41 92 -106.5t124 -65.5q6 0 11 7q44 -246 168 -246q44 0 65 27q33 59 103 171q5 7 70 75q39 41 39 81zM728 1270q-103 67 -216 67q-175 0 -266 -126
q-80 -111 -80 -293q0 -67 37.5 -160.5t84.5 -143.5q-51 149 -51 301q0 163 108.5 266.5t271.5 103.5q54 0 111 -15z" />
  </g>

</svg>
