<?xml version="1.0" standalone="no"?>
<!DOCTYPE svg PUBLIC "-//W3C//DTD SVG 1.1//EN" "http://www.w3.org/Graphics/SVG/1.1/DTD/svg11.dtd" >
<svg viewBox="0 -442 2048 2048">
  <g transform="matrix(1 0 0 -1 0 1606)">
   <path fill="currentColor"
d="M1842 908q0 -159 -97 -317q-73 -118 -222 -265q-123 -117 -246 -235q-207 -211 -313 -410q-99 194 -305 403q-124 119 -249 237q-153 150 -228 269q-100 160 -100 318q0 214 113 346q119 141 330 141q254 0 439 -217q176 217 435 217q212 0 331 -140q112 -132 112 -347z
M1715 1095v18q-8 7 -14 7t-14 -7v-18q8 -7 14 -7t14 7zM1580 1234v15q-8 7 -16 7t-16 -7v-15q11 -10 16 -10t16 10zM1625 1185v19q-8 7 -16 7t-16 -7v-15q12 -11 17 -11q7 0 15 7zM1670 1140v18q-8 7 -14 7q-7 0 -18 -10v-12q11 -10 18 -10q6 0 14 7zM1534 1284
q-11 3 -32 10v-15q9 -10 16 -10q10 0 16 15zM1739 1046l-3 22h-6l4 -22h5zM1715 1004v18q-8 7 -14 7q-7 0 -14 -6v-19q8 -7 14 -7t14 7zM1444 1279v15q-8 7 -16 7t-16 -7v-15q11 -10 16 -10t16 10zM1489 1234v15q-8 7 -16 7t-16 -7v-15q11 -10 16 -10t16 10zM1580 1140v18
q-8 7 -16 7t-16 -7v-15q11 -10 17 -10q7 0 15 7zM1625 1095v18q-8 7 -15 7q-6 0 -17 -10v-12q11 -10 17 -10q7 0 15 7zM1534 1188v16q-8 7 -16 7t-16 -7v-16q11 -10 16 -10t16 10zM1670 1049v19q-8 7 -14 7q-7 0 -18 -10v-12q12 -11 18 -11t14 7zM1754 949q-3 9 -3 35h-12
q-7 -7 -7 -18t7 -17h15zM1444 1188v16q-8 7 -16 7t-16 -7v-16q11 -10 16 -10t16 10zM1580 1049v19q-8 7 -15 7q-6 0 -17 -10v-12q12 -11 17 -11q7 0 15 7zM1489 1143v15q-8 7 -16 7t-16 -7v-15q11 -10 16 -10t16 10zM1534 1095v18q-8 7 -16 7t-16 -7v-15q11 -10 18 -10
q6 0 14 7zM1625 1004v18q-8 7 -15 7q-6 0 -17 -10v-12q11 -10 17 -10q7 0 15 7zM1398 1234v15q-8 7 -16 7q-3 0 -19 -7v-15q10 -10 18 -10q6 0 17 10zM1670 956v21q-8 7 -14 7q-7 0 -18 -10v-15q11 -10 18 -10q6 0 14 7zM1715 910v19q-8 7 -14 7t-14 -7v-19q8 -7 14 -7t14 7
zM1350 1279v15q-8 7 -16 7t-16 -7v-15q11 -10 16 -10t16 10zM1754 858v28l-15 4q-7 -7 -7 -16t7 -16h15zM1444 1098v12q-11 10 -18 10q-6 0 -14 -7v-18q8 -7 14 -7q7 0 18 10zM1489 1049v15q-12 11 -18 11t-14 -7v-19q8 -7 16 -7q9 0 16 7zM1534 1004v15q-11 10 -16 10
t-16 -10v-15q8 -7 16 -7t16 7zM1580 956v18q-11 10 -16 10t-16 -10v-18q8 -7 16 -7t16 7zM1398 1143v12q-11 10 -17 10q-4 0 -10.5 -3t-7.5 -3v-16q10 -10 18 -10q6 0 17 10zM1305 1234v15q-8 7 -16 7t-16 -7v-18q8 -7 14 -7q7 0 18 10zM1350 1188v16q-8 7 -16 7t-16 -7v-19
q8 -7 14 -7q7 0 18 10zM1625 910v19q-8 7 -15 7q-6 0 -17 -10v-16q8 -7 16 -7t16 7zM1715 829q0 6 -4 13h-21l-3 -25l21 -4q7 6 7 16zM1670 865v18q-8 7 -14 7q-7 0 -18 -10v-15q8 -7 16 -7t16 7zM1444 1004v15q-11 10 -18 10t-14 -6v-19q8 -7 16 -7q9 0 16 7zM1489 956v18
q-11 10 -16 10t-16 -10v-18q8 -7 16 -7t16 7zM1398 1053v11q-12 11 -17 11q-9 0 -18 -11v-14q16 -8 18 -8q5 0 17 11zM1305 1143v12q-11 10 -18 10q-6 0 -14 -7v-18q8 -7 14 -7q7 0 18 10zM1350 1098v12q-11 10 -18 10q-6 0 -14 -7v-18q8 -7 14 -7q7 0 18 10zM1580 865v15
q-11 10 -16 10t-16 -10v-15q8 -7 16 -7t16 7zM1716 737q0 6 -8 14h-18l-3 -25l21 -4q8 8 8 15zM1259 1188v12q-12 11 -17 11q-7 0 -15 -7v-19q8 -7 15 -7q6 0 17 10zM1534 910v15q-12 11 -16 11q-5 0 -16 -10v-16q8 -7 16 -7t16 7zM1625 820v15q-8 7 -16 7t-16 -7v-15
q8 -7 16 -7t16 7zM1670 774v16q-8 7 -16 7t-16 -7v-15q8 -7 16 -7q9 0 16 6zM1211 1231l-4 18q-9 -5 -25 -17l7 -8h14zM1305 1053v11q-12 11 -18 11t-14 -7v-19q8 -7 14 -7q5 0 18 11zM1444 910v15q-12 11 -16 11q-5 0 -16 -10v-16q8 -7 16 -7t16 7zM1259 1098v12
q-11 10 -17 10q-7 0 -15 -7v-18q8 -7 15 -7q6 0 17 10zM1350 1004v15q-11 10 -18 10t-14 -6v-19q8 -7 16 -7q9 0 16 7zM1398 959v15q-11 10 -17 10q-9 0 -18 -10v-18q14 -7 18 -7q6 0 17 10zM1489 865v15q-11 10 -16 10t-16 -10v-15q8 -7 16 -7t16 7zM1580 774v16
q-8 7 -16 7t-16 -7v-15q8 -7 16 -7q9 0 16 6zM1166 1185v19q-8 7 -15 7q-6 0 -14 -7v-19q8 -7 14 -7q7 0 15 7zM1211 1140v18q-8 7 -15 7q-6 0 -14 -7v-18q8 -7 14 -7q7 0 15 7zM1534 820v15q-8 7 -16 7t-16 -7v-15q8 -7 16 -7t16 7zM1625 729v15q-8 7 -16 7t-16 -7v-15
q8 -7 16 -7t16 7zM1670 684v15q-8 7 -16 7t-16 -7v-15q8 -7 16 -7t16 7zM1259 1007v12q-11 10 -17 10q-8 0 -15 -6v-19q8 -7 15 -7q6 0 17 10zM1166 1095v18q-8 7 -15 7q-6 0 -14 -7v-18q8 -7 14 -7q7 0 15 7zM1305 959v15q-11 10 -18 10q-6 0 -14 -7v-21q8 -7 14 -7
q7 0 18 10zM1444 820v15q-8 7 -16 7t-16 -7v-15q8 -7 16 -7t16 7zM1489 774v16q-8 7 -16 7t-16 -7v-15q8 -7 16 -7q9 0 16 6zM1580 684v15q-8 7 -16 7t-16 -7v-15q8 -7 16 -7t16 7zM1120 1140v18q-8 7 -14 7t-14 -7v-18q8 -7 14 -7t14 7zM1211 1049v19q-8 7 -15 7
q-6 0 -14 -7v-19q8 -7 14 -7q7 0 15 7zM1398 865v15q-11 10 -16 10q-9 0 -19 -10v-15q14 -7 19 -7q8 0 16 7zM1534 729v15q-8 7 -16 7t-16 -7v-15q8 -7 16 -7t16 7zM1350 910v15q-12 11 -18 11t-14 -7v-19q8 -7 16 -7q9 0 16 7zM1625 639v15q-8 7 -16 7t-16 -7v-15
q12 -11 16 -11t16 11zM1075 1095v18q-8 7 -14 7q-7 0 -15 -7v-18q8 -7 15 -7q6 0 14 7zM1120 1049v19q-8 7 -14 7t-14 -7v-19q8 -7 14 -7t14 7zM1166 1004v18q-8 7 -15 7t-14 -6v-19q8 -7 14 -7q7 0 15 7zM1444 729v15q-8 7 -16 7t-16 -7v-15q8 -7 16 -7t16 7zM1489 684v15
q-8 7 -16 7t-16 -7v-15q8 -7 16 -7t16 7zM1580 593v16q-8 7 -16 7t-16 -7v-16q11 -10 16 -10t16 10zM1211 956v21q-8 7 -15 7q-6 0 -14 -7v-21q8 -7 14 -7q7 0 15 7zM1305 865v15q-11 10 -18 10q-6 0 -14 -7v-18q8 -7 16 -7q9 0 16 7zM1398 775v15q-7 7 -17 7t-18 -8v-14
q14 -7 19 -7q9 0 16 7zM1259 913v12q-12 11 -17 11q-7 0 -15 -7v-19q8 -7 15 -7q6 0 17 10zM1534 639v15q-8 7 -16 7t-16 -7v-15q12 -11 16 -11t16 11zM1350 820v15q-8 7 -16 7t-16 -7v-15q8 -7 16 -7t16 7zM1618 570h-15q-10 -9 -10 -18q0 -3 6 -14q14 17 19 32zM1075 1004
v18q-8 7 -14 7q-8 0 -15 -6v-19q8 -7 15 -7q6 0 14 7zM1030 1049v19q-8 7 -15 7q-6 0 -17 -10v-12q12 -11 17 -11q7 0 15 7zM1120 956v21q-8 7 -14 7t-14 -7v-21q8 -7 14 -7t14 7zM1444 639v15q-8 7 -16 7t-16 -7v-15q12 -11 16 -11t16 11zM1489 593v16q-8 7 -16 7t-16 -7
v-16q11 -10 16 -10t16 10zM1398 684v15q-8 7 -16 7q-5 0 -19 -7v-15q7 -7 15 -7h5q7 0 15 7zM1305 774v16q-8 7 -16 7t-16 -7v-15q8 -7 16 -7q9 0 16 6zM1166 910v19q-8 7 -15 7q-6 0 -14 -7v-19q8 -7 14 -7q7 0 15 7zM1260 827q0 7 -8 15h-21l-4 -22q7 -7 16 -7q17 0 17 14
zM1211 865v18q-8 7 -15 7q-6 0 -14 -7v-18q8 -7 14 -7q7 0 15 7zM1350 729v15q-8 7 -16 7t-16 -7v-15q8 -7 16 -7t16 7zM1534 545v15q-11 10 -16 10t-16 -10v-15q11 -10 16 -10q6 0 16 10zM1576 514q-3 3 -3 8h-18q-8 -8 -8 -15q0 -14 12 -14q5 7 17 21zM1030 956v21
q-8 7 -15 7q-6 0 -17 -10v-15q11 -10 17 -10q7 0 15 7zM1305 684v15q-8 7 -16 7t-16 -7v-15q8 -7 16 -7t16 7zM1444 552q0 7 -11 18h-14q-7 -14 -7 -18q0 -17 16 -17t16 17zM1075 910v19q-8 7 -14 7q-7 0 -15 -7v-19q8 -7 15 -7q6 0 14 7zM1120 865v18q-8 7 -14 7t-14 -7
v-18q8 -7 14 -7t14 7zM1398 593v16q-8 7 -16 7q-3 0 -19 -7v-16q10 -10 18 -10q6 0 17 10zM1534 465q-6 6 -6 11h-18q-8 -7 -8 -14q0 -15 12 -14q7 5 20 17zM984 1004v18q-8 7 -16 7q-9 0 -19 -10v-12q11 -10 19 -10t16 7zM1259 729v15q-8 7 -16 7t-16 -7v-15q8 -7 16 -7
t16 7zM891 1095v18q-8 7 -15 7q-6 0 -17 -10v-12q11 -10 17 -10q7 0 15 7zM1166 820v18l-4 4h-22l-3 -22q7 -7 14 -7t15 7zM800 1188v13q-23 10 -19 10q-5 0 -13 -7v-16q11 -10 16 -10q6 0 16 10zM936 1049v19q-8 7 -14 7q-7 0 -18 -10v-12q12 -11 18 -11t14 7zM1350 639v15
q-8 7 -16 7t-16 -7v-15q12 -11 16 -11t16 11zM1489 500v15q-8 7 -16 7t-16 -7v-15q12 -11 16 -11t16 11zM1211 772v21l-25 3l-4 -21q6 -7 16 -7q9 0 13 4zM845 1140v18q-8 7 -16 7t-16 -7v-15q11 -10 18 -10q6 0 14 7zM749 1230q-13 10 -26 16v-12q9 -10 16 -10q6 0 10 6z
M710 1188v16q-8 7 -16 7t-16 -7v-19q8 -7 14 -7q7 0 18 10zM1305 593v16q-8 7 -16 7t-16 -7v-19q8 -7 14 -7q7 0 18 10zM619 1279v12q-9 5 -25 10q-7 -7 -7 -16q0 -16 14 -16q10 0 18 10zM664 1234v15q-8 7 -16 7t-16 -7v-18q8 -7 15 -7q6 0 17 10zM755 1143v15q-8 7 -16 7
t-16 -7v-18q8 -7 14 -7q7 0 18 10zM800 1095v18q-8 7 -16 7t-16 -7v-18q8 -7 16 -7t16 7zM891 1004v18q-8 7 -15 7q-6 0 -17 -10v-15q8 -7 16 -7t16 7zM1030 865v18q-8 7 -15 7q-6 0 -17 -10v-15q8 -7 16 -7t16 7zM1165 747l-24 4l-4 -25l25 -3zM1444 454v15q-8 7 -16 7
q-9 0 -16 -6v-19q8 -7 14 -7q7 0 18 10zM1211 702l-22 4q-7 -7 -7 -17q0 -7 4 -12h21zM1489 420q-1 8 -4 8h-18q-7 -7 -7 -16q0 -8 4 -13q25 8 25 21zM1075 829q0 6 -4 13h-21l-4 -25l22 -4q7 6 7 16zM1120 784q0 5 -4 12h-21l-3 -25l21 -3q7 6 7 16zM845 1049v19
q-8 7 -14 7q-7 0 -18 -10v-16q8 -7 16 -7t16 7zM1259 639v15q-8 7 -16 7t-16 -7v-19q8 -7 15 -7q5 0 17 11zM936 956v21q-8 7 -14 7q-7 0 -18 -10v-15q11 -10 18 -10q6 0 14 7zM1350 552q0 7 -11 18h-14q-7 -14 -7 -18q0 -17 16 -17t16 17zM984 910v19q-8 7 -16 7t-19 -11
v-11q12 -11 19 -11q8 0 16 7zM1398 500v15q-8 7 -16 7q-3 0 -19 -7v-15q12 -11 18 -11q5 0 17 11zM710 1098v12q-11 10 -18 10q-6 0 -14 -7v-18q8 -7 14 -7q7 0 18 10zM619 1188v12q-12 11 -18 11t-14 -7v-19q8 -7 14 -7q7 0 18 10zM755 1049v15q-12 11 -18 11t-14 -7v-19
q8 -7 16 -7q9 0 16 7zM1120 698l-7 8h-18l-3 -25l25 -4zM664 1143v12q-11 10 -17 10q-7 0 -15 -7v-18q8 -7 15 -7q6 0 17 10zM800 1004v15q-11 10 -16 10t-16 -10v-15q8 -7 16 -7t16 7zM1075 737q0 7 -7 14h-18l-4 -25l22 -4q7 7 7 15zM1030 774v16q-8 7 -16 7t-16 -7v-15
q8 -7 16 -7q9 0 16 6zM1441 378l-8 8h-14q-7 -7 -7 -16t8 -16q10 9 21 24zM1166 635v19q-8 7 -15 7q-6 0 -14 -7v-19q8 -7 14 -7q7 0 15 7zM1211 590v19q-8 7 -15 7q-6 0 -14 -7v-19q8 -7 14 -7q7 0 15 7zM845 956v18q-11 10 -16 10t-16 -10v-18q8 -7 16 -7t16 7zM1259 545
v15q-11 10 -17 10q-4 0 -15 -10v-18q8 -7 15 -7q6 0 17 10zM1398 409v12q-11 10 -17 10q-4 0 -10.5 -3t-7.5 -3v-16q10 -10 18 -10q6 0 17 10zM570 1230v19q-7 7 -15 7t-16 -7v-18q8 -7 14 -7q4 0 10 3t7 3zM891 910v19q-8 7 -15 7q-6 0 -17 -10v-16q8 -7 16 -7t16 7z
M1305 500v15q-8 7 -16 7t-16 -7v-19q8 -7 14 -7t18 11zM984 820v15q-7 7 -17 7t-18 -7v-15q7 -7 15 -7h5q7 0 15 7zM936 865v18q-8 7 -14 7q-7 0 -18 -10v-15q8 -7 16 -7t16 7zM1350 454v15q-8 7 -16 7q-9 0 -16 -6v-19q8 -7 14 -7q7 0 18 10zM522 1276v21l-4 4h-17
q-8 -8 -8 -16q0 -16 15 -16q6 0 14 7zM619 1098v12q-11 10 -18 10q-6 0 -14 -7v-18q8 -7 14 -7q7 0 18 10zM710 1004v15q-11 10 -18 10t-14 -6v-19q8 -7 16 -7q9 0 16 7zM664 1053v11q-12 11 -17 11q-7 0 -15 -7v-19q8 -7 15 -7q5 0 17 11zM755 956v18q-11 10 -16 10
t-16 -10v-18q8 -7 16 -7t16 7zM1030 684v15q-8 7 -16 7t-16 -7v-15q8 -7 16 -7t16 7zM1120 590v19q-8 7 -14 7t-14 -7v-19q8 -7 14 -7t14 7zM1075 645q0 9 -7 16h-18l-4 -25q8 -8 15 -8q14 0 14 17zM1166 542v21q-8 7 -15 7q-6 0 -14 -7v-21q8 -7 14 -7q7 0 15 7zM1305 409
v12q-11 10 -18 10q-6 0 -14 -7v-18q8 -7 14 -7q7 0 18 10zM1350 364v12q-11 10 -18 10q-6 0 -14 -7v-18q8 -7 14 -7q7 0 18 10zM800 910v15q-12 11 -16 11q-5 0 -16 -10v-16q8 -7 16 -7t16 7zM570 1140v19q-14 6 -16 6h-3q-4 0 -12 -7v-18q8 -7 14 -7q9 0 17 7zM984 729v15
q-7 7 -17 7t-18 -7v-15q7 -7 15 -7h5q7 0 15 7zM845 865v15q-11 10 -16 10t-16 -10v-15q8 -7 16 -7t16 7zM1259 454v12q-11 10 -17 10q-8 0 -15 -6v-19q8 -7 15 -7q6 0 17 10zM477 1230v19q-8 7 -15 7q-6 0 -14 -7v-18q8 -7 14 -7q8 0 15 6zM891 820v15q-8 7 -16 7t-16 -7
v-15q8 -7 16 -7t16 7zM936 774v16q-8 7 -16 7t-16 -7v-15q8 -7 16 -7q9 0 16 6zM522 1185v19q-8 7 -14 7q-7 0 -15 -7v-19q8 -7 15 -7q6 0 14 7zM1211 496v19q-8 7 -15 7q-6 0 -14 -7v-19q8 -7 14 -7q7 0 15 7zM1392 333l-7 7h-15q-7 -7 -7 -16t8 -16q8 8 21 25zM431 1276
v18q-5 0 -14.5 -1.5t-13.5 -1.5v-15q6 -7 14 -7q7 0 14 7zM619 1007v12q-11 10 -18 10t-14 -6v-19q8 -7 14 -7q7 0 18 10zM664 959v15q-11 10 -17 10q-7 0 -15 -7v-21q8 -7 15 -7q6 0 17 10zM710 910v15q-12 11 -18 11t-14 -7v-19q8 -7 16 -7q9 0 16 7zM1030 590v19
q-8 7 -16 7t-16 -7v-16q11 -10 17 -10q7 0 15 7zM1305 318v12q-12 11 -18 11t-14 -7v-19q8 -7 14 -7q7 0 18 10zM570 1049v19q-16 7 -17 7q-6 0 -14 -7v-19q8 -7 14 -7q9 0 17 7zM755 865v15q-11 10 -16 10t-16 -10v-15q8 -7 16 -7t16 7zM1075 551q0 19 -14 19q-7 0 -15 -7
v-21q8 -7 15 -7q14 0 14 16zM1259 364v12q-11 10 -17 10q-7 0 -15 -7v-18q8 -7 15 -7q6 0 17 10zM386 1230v19q-8 7 -14 7q-7 0 -15 -7v-18q8 -7 15 -7t14 6zM431 1185v19q-8 7 -14 7t-14 -7v-19q8 -7 14 -7t14 7zM477 1140v18q-8 7 -15 7q-6 0 -14 -7v-18q8 -7 14 -7
q7 0 15 7zM522 1095v18q-8 7 -14 7q-7 0 -15 -7v-18q8 -7 15 -7q6 0 14 7zM800 820v15q-8 7 -16 7t-16 -7v-15q8 -7 16 -7t16 7zM845 774v16q-8 7 -16 7t-16 -7v-15q8 -7 16 -7q9 0 16 6zM891 729v15q-8 7 -16 7t-16 -7v-15q8 -7 16 -7t16 7zM936 684v15q-8 7 -16 7t-16 -7
v-15q8 -7 16 -7t16 7zM1120 496v19q-8 7 -14 7t-14 -7v-19q8 -7 14 -7t14 7zM1166 451v18q-8 7 -15 7t-14 -6v-19q8 -7 14 -7q7 0 15 7zM1211 406v18q-8 7 -15 7q-6 0 -14 -7v-18q8 -7 14 -7q7 0 15 7zM1347 287l-8 8h-14q-7 -7 -7 -16t8 -16q8 8 21 24zM984 639v15
q-7 7 -15 7h-4q-8 0 -16 -7v-15q12 -11 18 -11q5 0 17 11zM619 913v12q-12 11 -18 11t-14 -7v-19q8 -7 14 -7q7 0 18 10zM664 865v15q-11 10 -17 10q-7 0 -15 -7v-18q8 -7 16 -7q9 0 16 7zM1259 273v12q-11 10 -17 10q-7 0 -15 -7v-18q8 -7 15 -7q6 0 17 10zM710 820v15
q-8 7 -16 7t-16 -7v-15q8 -7 16 -7t16 7zM755 774v16q-8 7 -16 7t-16 -7v-15q8 -7 16 -7q9 0 16 6zM1166 361v18q-8 7 -15 7q-6 0 -14 -7v-18q8 -7 14 -7q7 0 15 7zM431 1095v18q-8 7 -14 7t-14 -7v-18q8 -7 14 -7t14 7zM477 1049v19q-8 7 -15 7q-6 0 -14 -7v-19q8 -7 14 -7
q7 0 15 7zM570 956v21q-16 7 -17 7q-6 0 -14 -7v-21q8 -7 16 -7t15 7zM1120 406v18q-8 7 -14 7t-14 -7v-18q8 -7 14 -7t14 7zM1211 315v19q-8 7 -15 7q-6 0 -14 -7v-19q8 -7 14 -7q7 0 15 7zM386 1140v18q-8 7 -14 7q-7 0 -15 -7v-18q8 -7 15 -7q6 0 14 7zM522 1004v18
q-8 7 -14 7q-8 0 -15 -6v-19q8 -7 15 -7q6 0 14 7zM800 729v15q-8 7 -16 7t-16 -7v-15q8 -7 16 -7t16 7zM845 684v15q-8 7 -16 7t-16 -7v-15q8 -7 16 -7t16 7zM1075 451v18q-8 7 -14 7q-8 0 -15 -6v-19q8 -7 15 -7q6 0 14 7zM341 1185v19q-8 7 -14 7q-5 0 -18 -11v-11
q12 -11 18 -11t14 7zM891 639v15q-8 7 -16 7t-16 -7v-15q12 -11 16 -11t16 11zM936 590v19q-8 7 -16 7t-16 -7v-16q11 -10 18 -10q6 0 14 7zM985 552q0 18 -17 18q-9 0 -19 -10v-15q11 -10 18 -10q18 0 18 17zM1030 496v19q-8 7 -15 7q-6 0 -17 -10v-12q12 -11 17 -11
q7 0 15 7zM1298 246l-21 4q-8 -8 -8 -14q0 -7 8 -15q8 8 21 25zM755 684v15q-8 7 -19 7q-13 0 -13 -13q0 -16 16 -16q8 0 16 7zM619 827q0 8 -7 15h-21l-4 -22q7 -7 16 -7q16 0 16 14zM664 774v16q-8 7 -16 7t-16 -7v-15q8 -7 16 -7q9 0 16 6zM710 729v15q-8 7 -16 7t-16 -7
v-15q8 -7 16 -7t16 7zM1075 361v18q-8 7 -14 7q-7 0 -15 -7v-18q8 -7 15 -7q6 0 14 7zM1120 315v19q-8 7 -14 7t-14 -7v-19q8 -7 14 -7t14 7zM1166 270v18q-8 7 -15 7q-6 0 -14 -7v-18q8 -7 14 -7q7 0 15 7zM1211 225v18q-8 7 -15 7q-6 0 -14 -7v-18q8 -7 14 -7q7 0 15 7z
M386 1049v19q-8 7 -14 7q-7 0 -15 -7v-19q8 -7 15 -7q6 0 14 7zM431 1004v18q-8 7 -14 7q-7 0 -14 -6v-19q8 -7 14 -7t14 7zM296 1140v18q-8 7 -15 7q-6 0 -17 -10v-12q11 -10 17 -10q7 0 15 7zM341 1095v18q-8 7 -14 7q-7 0 -18 -10v-12q11 -10 18 -10q6 0 14 7zM477 956
v21q-8 7 -15 7q-6 0 -14 -7v-21q8 -7 14 -7q7 0 15 7zM571 866v17q-14 7 -18 7q-6 0 -14 -7v-18q8 -7 16 -7q9 0 16 8zM1030 406v18q-8 7 -15 7q-6 0 -17 -10v-12q11 -10 17 -10q7 0 15 7zM1253 201h-22l-3 -25q25 12 25 25zM800 639v15q-8 7 -16 7t-16 -7v-15
q12 -11 16 -11t16 11zM845 593v16q-8 7 -16 7t-16 -7v-16q11 -10 16 -10t16 10zM891 545v15q-11 10 -15 10q-6 0 -17 -10v-15q11 -10 16 -10q6 0 16 10zM522 910v19q-8 7 -14 7q-7 0 -15 -7v-19q8 -7 15 -7q6 0 14 7zM984 451v18q-8 7 -16 7q-9 0 -19 -10v-12q11 -10 19 -10
t16 7zM936 496v19q-8 7 -16 7t-16 -7v-15q12 -11 18 -11t14 7zM1120 225v18q-8 7 -14 7t-14 -7v-18q8 -7 14 -7t14 7zM619 729v15q-8 7 -16 7t-16 -7v-15q8 -7 16 -7t16 7zM664 684v15q-8 7 -16 7t-16 -7v-15q8 -7 16 -7t16 7zM1075 270v18q-8 7 -14 7q-7 0 -15 -7v-18
q8 -7 15 -7q6 0 14 7zM296 1049v19q-8 7 -15 7q-6 0 -17 -10v-12q12 -11 17 -11q7 0 15 7zM710 639v15q-8 7 -16 7t-16 -7v-15q12 -11 16 -11t16 11zM755 593v16q-8 7 -16 7t-16 -7v-16q11 -10 16 -10t16 10zM1030 315v19q-8 7 -15 7q-4 0 -17 -11v-11q12 -11 17 -11
q7 0 15 7zM250 1095v18q-8 7 -14 7q-7 0 -18 -10v-12q11 -10 18 -10q6 0 14 7zM341 1004v18q-8 7 -14 7q-7 0 -18 -10v-12q11 -10 18 -10q6 0 14 7zM386 956v21q-8 7 -14 7q-7 0 -15 -7v-21q8 -7 15 -7q6 0 14 7zM1166 179v19l-4 3h-22l-3 -21q8 -8 14 -8q7 0 15 7zM571 774
v16q-8 7 -16 7t-16 -7v-15q8 -7 16 -7q9 0 16 6zM431 910v19q-8 7 -14 7t-14 -7v-19q8 -7 14 -7t14 7zM477 865v18q-8 7 -15 7q-6 0 -14 -7v-18q8 -7 14 -7q7 0 15 7zM800 545v15q-11 10 -16 10t-16 -10v-15q11 -10 16 -10q6 0 16 10zM984 361v18q-8 7 -16 7q-9 0 -19 -10
v-12q11 -10 19 -10t16 7zM891 451v18q-8 7 -16 7q-9 0 -16 -6v-16q11 -10 17 -10q7 0 15 7zM936 406v18q-8 7 -14 7q-7 0 -18 -10v-12q11 -10 18 -10q6 0 14 7zM522 817v21l-25 4l-4 -22q6 -7 16 -7q9 0 13 4zM845 500v15q-8 7 -16 7t-16 -7v-15q12 -11 16 -11t16 11z
M1207 152q-11 -2 -25 -7l4 -18q8 8 21 25zM205 1059q0 16 -15 15q0 -9 -7 -31h15q7 6 7 16zM1030 225v18q-8 7 -15 7q-6 0 -17 -10v-15q8 -7 16 -7t16 7zM619 639v15q-8 7 -16 7t-16 -7v-19q8 -7 14 -7t18 11zM664 593v16q-8 7 -16 7t-16 -7v-19q8 -7 15 -7q6 0 17 10z
M1075 189q0 5 -4 12h-21l-4 -25l22 -3q7 6 7 16zM250 1004v18q-8 7 -14 7q-7 0 -18 -10v-15q8 -7 16 -7t16 7zM296 956v21q-8 7 -15 7q-6 0 -17 -10v-15q11 -10 17 -10q7 0 15 7zM570 681v18q-7 7 -15 7t-16 -7v-15q8 -7 16 -7q4 0 9 2t6 2zM710 552q0 7 -11 18h-14
q-8 -16 -8 -18q0 -17 17 -17q16 0 16 17zM1120 131v18q-8 7 -14 7t-14 -7v-18q8 -7 14 -7t14 7zM386 865v18q-8 7 -14 7q-7 0 -15 -7v-18q8 -7 15 -7q6 0 14 7zM984 270v18q-8 7 -16 7q-9 0 -19 -10v-12q11 -10 19 -10t16 7zM432 820v18l-5 4h-21l-3 -22q7 -7 14 -7t15 7z
M891 361v18q-8 7 -15 7q-6 0 -17 -10v-12q11 -10 17 -10q7 0 15 7zM341 910v19q-8 7 -14 7q-7 0 -18 -10v-12q12 -11 18 -11t14 7zM755 500v15q-8 7 -16 7t-16 -7v-15q12 -11 16 -11t16 11zM936 315v19q-8 7 -14 7q-5 0 -18 -11v-11q12 -11 18 -11t14 7zM477 772v21l-25 3
l-4 -21q6 -7 16 -7q9 0 13 4zM522 726v21l-21 4q-8 -8 -8 -14q0 -15 16 -15q9 0 13 4zM800 454v15q-8 7 -16 7q-9 0 -16 -6v-16q11 -10 16 -10t16 10zM845 406v18q-8 7 -16 7t-16 -7v-15q11 -10 18 -10q6 0 14 7zM1162 104l-25 3l4 -28q8 8 21 25zM205 956v18q-11 10 -16 10
t-16 -10v-18q8 -7 16 -7t16 7zM619 545v15q-11 10 -18 10q-3 0 -14 -10v-18q8 -7 14 -7q7 0 18 10zM296 865v18q-8 7 -15 7q-6 0 -17 -10v-15q8 -7 16 -7t16 7zM431 747l-25 4l-3 -25l25 -3zM570 590v19q-7 7 -15 7t-16 -7v-19q8 -7 14 -7q4 0 10 3.5t7 3.5zM710 454v15
q-8 7 -16 7q-9 0 -16 -6v-19q8 -7 14 -7q7 0 18 10zM755 409v15q-8 7 -16 7t-16 -7v-18q8 -7 14 -7q7 0 18 10zM800 361v18q-8 7 -16 7t-16 -7v-18q8 -7 16 -7t16 7zM891 270v18q-8 7 -15 7q-6 0 -17 -10v-15q8 -7 16 -7t16 7zM936 225v18q-8 7 -14 7q-7 0 -18 -10v-15
q8 -7 16 -7t16 7zM1030 131v18q-8 7 -15 7q-6 0 -17 -10v-15q8 -7 16 -7t16 7zM1120 58l-28 4l3 -28q12 4 25 24zM477 702l-22 4q-7 -7 -7 -17q0 -7 4 -12h21zM386 784q0 5 -4 12h-21l-3 -25l21 -3q7 6 7 16zM1075 95q0 6 -4 13h-21l-4 -25l22 -4q7 6 7 16zM984 179v16
q-7 7 -17 7t-18 -7v-16q7 -7 15 -7h5q7 0 15 7zM250 910v19q-8 7 -14 7q-7 0 -18 -10v-16q8 -7 16 -7t16 7zM664 500v15q-8 7 -16 7t-16 -7v-19q8 -7 15 -7q5 0 17 11zM845 315v19q-8 7 -14 7t-18 -11v-15q8 -7 16 -7t16 7zM341 820v18l-4 4h-21q-7 -7 -7 -15q0 -14 16 -14
q8 0 16 7zM522 635v22l-4 4h-17q-8 -8 -8 -16q0 -17 15 -17q6 0 14 7zM710 364v12q-11 10 -18 10q-6 0 -14 -7v-18q8 -7 14 -7q7 0 18 10zM386 698l-7 8h-18l-3 -25l24 -4zM755 315v15q-12 11 -18 11t-14 -7v-19q8 -7 16 -7q9 0 16 7zM205 865v15q-11 10 -16 10t-16 -10v-15
q8 -7 16 -7t16 7zM619 454v12q-11 10 -18 10t-14 -6v-19q8 -7 14 -7q7 0 18 10zM664 409v12q-11 10 -17 10q-7 0 -15 -7v-18q8 -7 15 -7q6 0 17 10zM800 270v15q-11 10 -16 10t-16 -10v-15q8 -7 16 -7t16 7zM845 225v15q-11 10 -16 10t-16 -10v-15q8 -7 16 -7t16 7zM1075 4
q0 3 -1.5 7t-1.5 6h-22l-4 -25l18 -4q11 11 11 16zM296 774v16q-8 7 -16 7t-16 -7v-15q8 -7 16 -7q9 0 16 6zM477 590v19q-8 7 -15 7q-6 0 -14 -7v-19q8 -7 14 -7q7 0 15 7zM891 179v16q-8 7 -16 7t-16 -7v-16q8 -7 16 -7t16 7zM1030 40v15q-9 8 -16 8q-8 0 -16 -7v-16
q8 -7 16 -7t16 7zM250 820v15q-8 7 -16 7t-16 -7v-15q8 -7 16 -7t16 7zM341 729v15q-8 7 -16 7t-16 -7v-15q8 -7 16 -7t16 7zM431 635v19q-8 7 -14 7t-14 -7v-19q8 -7 14 -7t14 7zM984 86v15q-7 7 -17 7t-18 -7v-15q7 -7 15 -7h5q7 0 15 7zM522 542v21q-8 7 -14 7
q-4 0 -15 -10v-18q8 -7 15 -7q6 0 14 7zM570 496v19q-7 7 -15 7t-16 -7v-19q8 -7 14 -7q4 0 10 3.5t7 3.5zM936 131v15q-11 10 -16 10t-16 -10v-15q8 -7 16 -7t16 7zM205 775v14l-7 7h-15q3 -10 14 -28zM619 364v12q-11 10 -18 10q-6 0 -14 -7v-18q8 -7 14 -7q7 0 18 10z
M710 270v15q-11 10 -18 10q-6 0 -14 -7v-18q8 -7 16 -7q9 0 16 7zM755 225v15q-11 10 -16 10t-16 -10v-15q8 -7 16 -7t16 7zM664 318v12q-12 11 -17 11q-7 0 -15 -7v-19q8 -7 15 -7q6 0 17 10zM296 684v15q-8 7 -16 7t-16 -7v-15q8 -7 16 -7t16 7zM1030 -50v15q-8 7 -16 7
t-16 -7v-15q8 -7 16 -7t16 7zM386 590v19q-8 7 -14 7q-7 0 -15 -7v-19q8 -7 15 -7q6 0 14 7zM800 179v16q-8 7 -16 7t-16 -7v-16q8 -7 16 -7t16 7zM250 729v15q-8 7 -16 7t-16 -7v-15q8 -7 16 -7t16 7zM341 635v19q-8 7 -16 7t-16 -7v-15q12 -11 18 -11t14 7zM431 542v21
q-8 7 -14 7t-14 -7v-21q8 -7 14 -7t14 7zM570 406v18q-16 7 -17 7q-6 0 -14 -7v-18q8 -7 14 -7q9 0 17 7zM984 -5v15q-7 7 -17 7t-18 -7v-15q7 -7 15 -7h5q7 0 15 7zM845 131v15q-11 10 -16 10t-16 -10v-15q8 -7 16 -7t16 7zM891 86v15q-8 7 -16 7t-16 -7v-15q8 -7 16 -7
t16 7zM477 496v19q-8 7 -15 7q-6 0 -14 -7v-19q8 -7 14 -7q7 0 15 7zM936 40v15q-9 8 -16 8q-8 0 -16 -7v-16q8 -7 16 -7t16 7zM522 451v18q-8 7 -14 7q-8 0 -15 -6v-19q8 -7 15 -7q6 0 14 7zM296 594v14l-8 7h-18q1 -17 18 -29zM619 273v12q-11 10 -18 10q-6 0 -14 -7v-15
q11 -10 16 -10q6 0 16 10zM664 221v18q-11 11 -17 11q-8 0 -15 -7v-11q14 -14 20 -14q3 0 6.5 1.5t5.5 1.5zM710 180v14q-8 8 -16 8q-11 0 -17 -12q18 -18 21 -18q4 0 12 8zM570 315v19q-16 7 -17 7q-6 0 -14 -7v-19q8 -7 16 -7t15 7zM755 131v15q-10 10 -16 10t-16 -11
q8 -8 24 -21zM845 41v14l-7 7h-17l-1 -1q-4 -3 -4 -7q0 -3 18 -21q4 2 11 8zM341 538v21q-5 11 -14 11q-10 0 -18 -14q10 -21 19 -21q3 0 7 1.5t6 1.5zM432 460q0 16 -15 16q-7 0 -14 -7v-25h21q8 7 8 16zM477 406v18q-8 7 -15 7q-6 0 -14 -7v-18q8 -7 14 -7q7 0 15 7z
M522 361v18q-8 7 -14 7q-7 0 -15 -7v-18q8 -7 15 -7q6 0 14 7zM800 86v14l-7 8h-18l-7 -8q8 -8 24 -21zM891 3q0 14 -16 14q-9 0 -16 -7q0 -2 10 -22h14q8 8 8 15zM936 -50v15q-8 7 -16 7t-16 -7v-15q8 -7 16 -7t16 7zM386 496v19q-8 7 -14 7q-7 0 -15 -7v-19q8 -7 15 -7
q6 0 14 7zM984 -95v15q-7 7 -15 7h-4q-8 0 -16 -7v-15q12 -11 18 -11q5 0 17 11z" />
  </g>

</svg>
