<?xml version="1.0" standalone="no"?>
<!DOCTYPE svg PUBLIC "-//W3C//DTD SVG 1.1//EN" "http://www.w3.org/Graphics/SVG/1.1/DTD/svg11.dtd" >
<svg viewBox="0 -442 2048 2048">
  <g transform="matrix(1 0 0 -1 0 1606)">
   <path fill="currentColor"
d="M1950 1242q0 -66 -22 -121q-37 -92 -207 -254q-186 -179 -233 -258l-28 -47q-52 88 -87 128q-55 63 -173.5 178.5t-155.5 165.5q-77 104 -77 208q0 119 64 192q67 78 184 78q148 0 242 -121q102 121 246 121q118 0 184 -77q63 -73 63 -193zM1244 450q0 -130 -98 -257
q-40 -51 -197 -203q-137 -133 -205 -219q-26 -32 -78 -125q-16 25 -49 76q-63 98 -257 285q-140 136 -186 197q-92 124 -92 248q0 145 73 229q78 88 221 88q171 0 287 -143q110 143 286 143q142 0 221 -90q74 -85 74 -229zM1699 1474q-116 -8 -210 -103q12 -13 36 -32
q56 68 174 135zM1328 1431q-69 32 -116 32q-94 0 -147 -70q-49 -64 -49 -160q0 -87 63 -164v11q-24 64 -24 150q0 203 236 203q23 0 37 -2zM943 722h-15q-55 0 -125 -39q-64 -37 -103 -83q24 -24 39 -35q75 90 204 157zM509 672q-65 42 -142 42q-108 0 -173 -88
q-58 -79 -58 -191q0 -96 78 -187q-29 70 -29 188q0 112 70 177t183 65q40 0 71 -6z" />
  </g>

</svg>
