<?xml version="1.0" standalone="no"?>
<!DOCTYPE svg PUBLIC "-//W3C//DTD SVG 1.1//EN" "http://www.w3.org/Graphics/SVG/1.1/DTD/svg11.dtd" >
<svg viewBox="0 -442 2048 2048">
  <g transform="matrix(1 0 0 -1 0 1606)">
   <path fill="currentColor"
d="M2044 880q0 -125 -43 -217q-75 -159 -309 -357q-188 -153 -376 -307q-73 -67 -123 -122l-151 415l211 209l-297 332l323 61l-93 371q171 153 394 153q230 0 353 -159q111 -143 111 -379zM1154 -174q-55 -84 -78 -150q-122 204 -351 412q-85 73 -253 217
q-190 163 -270 276q-120 169 -120 361q0 223 123 358q128 140 349 140q213 0 281 -78q50 -57 100 -189q39 -104 78 -207l-348 -74l-6 -5l409 -370l-192 -208zM1604 1356q-71 14 -96 14q6 0 -31 -9q-60 -14 -126 -46l-120 -58q4 -28 17 -82q44 38 138 105q94 53 218 76z
M1265 855l-245 -48q19 -19 49 -43zM680 1349q-76 24 -100 24q-80 0 -117 -8q-22 -9 -67 -26q-20 -6 -55 -22q-114 -82 -156 -174q-36 -78 -36 -205q0 -36 59 -195q-17 113 -17 148q0 85 11 129q7 36 18 80q22 41 79 105q52 57 85 75q58 30 145 46q75 12 151 23z" />
  </g>

</svg>
