<?xml version="1.0" standalone="no"?>
<!DOCTYPE svg PUBLIC "-//W3C//DTD SVG 1.1//EN" "http://www.w3.org/Graphics/SVG/1.1/DTD/svg11.dtd" >
<svg viewBox="0 -442 2048 2048">
  <g transform="matrix(1 0 0 -1 0 1606)">
   <path fill="currentColor"
d="M1980 36h-176q-29 0 -47 19q-1 -1 -1 -73q0 -42 -34 -78.5t-76 -36.5h-82q16 -48 16 -42v-183h-83v198q0 5 -11 15.5t-16 10.5h-878q-6 0 -16.5 -9.5t-10.5 -15.5v-199h-83v182q0 11 15 41q-1 1 -75 1q-46 0 -80.5 35t-35.5 81l-2 73q-18 -19 -46 -19h-176v83h198
q5 0 15.5 11t10.5 16v890q0 6 -10 16.5t-16 10.5h-198v83h176q32 0 47 -18q1 1 1 72q0 42 34.5 79t75.5 37h82q-16 50 -16 42v183h83v-199q0 -6 10.5 -16t16.5 -10h878q5 0 16 10.5t11 15.5v199h83v-184q0 -9 -15 -39q33 -1 75 -2q46 -2 80.5 -36t35.5 -80l2 -72
q16 18 46 18h176v-83h-198q-5 0 -15.5 -10.5t-10.5 -15.5v-892q0 -6 10 -16t16 -10h198v-83zM1676 -15v1213q0 38 -46 38h-1198q-46 0 -46 -39v-1211q0 -39 39 -39h1212q13 0 26 12.5t13 25.5zM1586 807q0 -81 -26 -141q-40 -93 -209 -260q-203 -200 -244 -255
q-23 -37 -71 -112q-62 125 -266 322q-146 140 -191 197q-100 129 -100 247q0 137 71 220q76 87 211 87q169 0 275 -135q119 135 271 135q135 0 209 -87q70 -81 70 -218zM1304 1068q-133 -8 -233 -118q12 -10 36 -32q82 90 197 150zM886 1021q-60 36 -131 36q-106 0 -166 -79
q-55 -71 -55 -180q0 -100 74 -184q-27 76 -27 178q0 108 64.5 171t172.5 63q36 0 68 -5z" />
  </g>

</svg>
