<?xml version="1.0" standalone="no"?>
<!DOCTYPE svg PUBLIC "-//W3C//DTD SVG 1.1//EN" "http://www.w3.org/Graphics/SVG/1.1/DTD/svg11.dtd" >
<svg viewBox="0 -442 2048 2048">
  <g transform="matrix(1 0 0 -1 0 1606)">
   <path fill="currentColor"
d="M1516 1261q0 -118 -114 -249q-101 -101 -202 -201q-109 -112 -165 -215q-59 115 -250 300q-122 118 -155 162q-75 100 -75 207q0 117 60 188q65 76 180 76q146 0 239 -118q110 118 237 118q115 0 182 -78q63 -73 63 -190zM2045 139q0 -152 -56 -277q-17 -37 -60 -46
q-65 -14 -76 -20q-20 -11 -45 -40q-29 -35 -41 -44q-26 -22 -88 -42.5t-97 -20.5q-63 0 -99 5q-20 3 -75 30t-57 27q-7 0 -17 -6.5t-17 -6.5h-96q-186 179 -186 433q0 23 19 104t30 105q46 103 98 137q28 18 100 18q23 0 44 15q35 26 38 27q115 59 276 59q90 0 123 -11
q10 -3 52 -33q39 -23 107 -81q3 -3 37 -60q14 -19 37 -61q49 -113 49 -211zM975 285q0 -61 -8 -86q-2 -7 -19.5 -37t-17.5 -34l15 -25.5t15 -40.5q0 -84 -30 -113q-46 -34 -93 -67q-13 -18 -36 -50q-61 -84 -174 -127q-77 -29 -152 -29q-14 0 -79.5 25.5t-79.5 35.5
q-109 75 -149 175q-9 49 -34 121q-7 7 -20 22q-31 38 -31 133q0 64 70 108q7 65 33 135q31 85 71 113q51 36 90 36h121q5 0 25 13t26 13q98 0 144 -11q67 -16 152 -60q98 -51 128 -96q33 -49 33 -154zM1266 1490q-124 -15 -199 -103q19 -20 34 -27q49 60 165 130zM908 1447
q-65 34 -119 34q-90 0 -142 -70q-48 -63 -48 -156q0 -85 63 -157q-25 86 -25 154q0 91 58.5 145.5t150.5 54.5q32 0 62 -5zM1936 -19q0 20 -23 20q-21 0 -21 -20q0 -22 14 -22q4 0 11.5 2t11.5 2q7 20 7 18zM1462 416q-22 29 -22 41q0 -5 12 53l-69 -20v-39q25 -26 62 -56
q7 6 17 21zM1936 122q0 54 -26 68q-10 3 -29 12q-2 5 -9.5 14t-35.5 18q-20 6 -31 43h-16q4 0 -36 -8q-85 -17 -167 -17q-56 0 -137 42q-87 45 -103 92q-22 -75 -44 -149q-28 -90 -61 -142q-12 -19 -85 -57v-23q0 -18 24 -51.5t41 -41.5q11 -2 31 -11l36 -53q31 -46 95 -96
q21 -20 58 -47q28 -11 117 -11q153 0 255 141q7 9 20 29q14 54 47 134q7 5 23 19q33 32 33 95zM1191 375q0 4 -7 11q-41 -42 -79 -162q21 20 56 64q30 53 30 87zM904 297v35q0 -5 -14 28v-47q0 -6 14 -16zM660 543q-62 21 -81 21h-32q-3 0 -8 -1q-16 -23 -16 -24q0 -6 7 -19
q29 28 76 28q9 0 27 -2.5t27 -2.5zM1255 -128q0 6 -9.5 15t-15.5 9q-23 0 -23 -26q0 -17 31 -22q17 17 17 24zM1210 -213v25q-16 15 -47 48v-17q0 -2 47 -56zM911 58q0 38 -27 38q-9 0 -24 -28.5t-28 -28.5q-16 0 -36 5v19q0 17 30.5 85.5t30.5 89.5q0 22 -5 58q-7 46 -8 58
l-79 -16q-93 0 -139 13q-69 19 -112 79q-1 2 -28 67q-29 -58 -71 -71q-63 -19 -80 -32q-49 -38 -57 -111q-7 -64 -13 -127h-52q-3 31 -6 61q-6 36 -40 35q-36 -26 -36 -75q0 -50 23 -80q11 -10 30 -32q6 -27 18 -76q29 -109 109 -178q84 -72 194 -72q156 0 265 141
q14 22 36 50q13 4 38 14q67 36 67 114zM1786 199q-19 -13 -55 -42q-41 44 -59 44q-11 0 -34 -16t-24 -26q7 0 21.5 3.5t22.5 3.5q50 0 50 -73v-14q-1 -10 -1 -14q-12 -13 -22 -13q-3 0 -9 1.5t-9 1.5q-7 0 -20.5 -6.5t-20.5 -6.5q-30 0 -30 61v43q0 88 85 88q12 0 24.5 -10
t15.5 -10q7 0 56 25q-11 -35 -41 -44l-1 -4q17 7 51 19v-11zM1462 243q-49 0 -84 -5q-8 -1 -26 -8t-29 -7q-1 0 -7 1v18q58 29 111 29q15 0 35 -13v-15zM1612 -24q-21 -42 -39 -42q-14 0 -34 13t-23 26q31 3 92 18zM1474 115q-39 40 -43 40q-40 0 -71 -34q30 -1 59 -2
q30 -7 30 -44v-29q0 -42 -30 -42q-8 0 -24.5 4.5t-24.5 4.5q-7 0 -18 -6q-14 23 -14 50q0 -11 3 43q-4 2 -35 9q-18 5 -28 23q14 -4 20 -4h36v2q-9 4 -24 4.5t-29 20.5l4 5q9 0 28 -1.5t29 -1.5q29 39 82 39q16 0 33 -17.5t17 -33.5v-30zM1713 -76q1 -39 -62 -67
q-51 -22 -97 -22q-85 0 -114 41q140 8 273 48zM798 232q0 -31 -22 -31q-7 0 -43.5 25.5t-56.5 25.5q-7 0 -73 -19q-7 11 -7 42l1 8q26 42 76 42q125 0 125 -93zM730 158v-39q0 -60 -18 -89q-58 -17 -52 -17q-6 0 -23.5 14.5t-21 22t-3.5 25.5q0 72 68 72q6 0 35 -16h1
q1 2 1 5q0 56 -59 56q-30 0 -61 -45v9q-2 64 60 64q73 0 73 -62zM523 269q-11 -11 -21 -11t-38 27.5t-67 27.5q-7 0 -19.5 -6.5t-19.5 -6.5h-39v33q0 24 39 45q15 8 36 8q61 0 112 -33q17 -11 17 -52v-32zM475 126q0 -20 -25.5 -39.5t-46.5 -19.5q-12 0 -27.5 21t-15.5 34
q0 44 9 58q12 21 53 21q-3 0 38 -16l2 2q-10 59 -59 59q-21 0 -64 -42v14q0 60 68 60q20 0 42 -10q26 -12 26 -30v-112zM545 -2q-28 -29 -35 -29q-19 0 -38 20t-19 39l2 2q12 -7 35 -16q14 -4 55 -4v-12zM615 -93q-75 -18 -94 -18h-76q-7 0 -51 35t-49 44h10q-14 0 65 -21
q65 -12 195 -40zM1688 78v18h-12q-13 -12 -13 -18v-17q12 4 25 17zM1433 33v21h-18q-10 -18 -10 -17v-17q10 3 28 13zM1376 75q0 8 -12 8v-3q0 -4 3 -9q3 0 9 4zM663 111h-13l9 -8q0 3 4 8zM701 63q0 8 -12 8q-19 -19 -19 -20v-6h17q14 13 14 18zM411 160q-2 11 -8 32
q-5 -15 -5 -25q0 -1 1 -7h12zM449 121l-14 4q-7 -4 -20 -11v-18h11q15 10 23 25z" />
  </g>

</svg>
