<?xml version="1.0" standalone="no"?>
<!DOCTYPE svg PUBLIC "-//W3C//DTD SVG 1.1//EN" "http://www.w3.org/Graphics/SVG/1.1/DTD/svg11.dtd" >
<svg viewBox="0 -442 2048 2048">
  <g transform="matrix(1 0 0 -1 0 1606)">
   <path fill="currentColor"
d="M2008 976q0 -187 -122 -364q-77 -113 -263 -289q-79 -72 -234 -221q-225 -225 -338 -435q-92 169 -261 347q-60 64 -313 302q-188 177 -268 292q-127 182 -127 368q0 232 125 373q132 147 361 147q288 0 480 -234q192 234 474 234q230 0 361 -147q125 -140 125 -373z
M1767 875q0 175 -94 280q-98 110 -272 110q-200 0 -356 -172q-152 172 -359 172q-172 0 -268 -109q-92 -104 -92 -278q0 -166 127 -323q38 -47 254 -252q168 -160 264 -289q45 -61 76 -119q80 151 244 316q101 95 203 190q127 122 189 218q84 129 84 256zM1549 798
q0 -76 -30 -138q-46 -95 -208 -248q-176 -166 -225 -245q-17 -28 -41 -69q-59 102 -112 159q-32 34 -173 172q-109 105 -150 164q-72 101 -72 205q0 122 67.5 200.5t188.5 78.5q65 0 138 -36t110 -88q43 52 115 88t138 36q121 0 189 -81q65 -75 65 -198zM1290 1036h-12
q-104 0 -203 -107q12 -10 36 -29q84 91 179 136zM909 994q-72 34 -121 34q-95 0 -150 -74q-50 -67 -50 -165q0 -85 65 -167q-25 99 -25 164q0 98 64 155q61 55 160 55q10 0 29 -1t28 -1z" />
  </g>

</svg>
