<?xml version="1.0" standalone="no"?>
<!DOCTYPE svg PUBLIC "-//W3C//DTD SVG 1.1//EN" "http://www.w3.org/Graphics/SVG/1.1/DTD/svg11.dtd" >
<svg viewBox="0 -442 2048 2048">
  <g transform="matrix(1 0 0 -1 0 1606)">
   <path fill="currentColor"
d="M1870 943q0 -161 -98 -321q-74 -120 -226 -270q-125 -120 -250 -239q-210 -215 -318 -417q-100 197 -310 410q-126 120 -253 241q-156 152 -231 273q-102 162 -102 323q0 218 114 352q122 143 336 143q258 0 446 -221q180 221 442 221q215 0 336 -143q114 -134 114 -352z
M1784 929q-4 52 -4 58q-7 -3 -17 -3q-8 0 -21 12v19q7 12 17 12l19 1q-4 20 -11 48h-5q-20 -1 -20 21q0 12 13 23q-5 9 -14 27q2 -4 2 -7q0 -18 -24 -18q-10 0 -23 12v19q14 12 23 12q13 0 15 -3q-14 46 -73 100q-57 51 -106 67v-3q1 -17 -24 -17q-8 0 -19 9q0 8 -4 24
q-26 5 -55 6q10 -8 10 -19q0 -20 -24 -20q-19 0 -19 20q0 13 9 23h-34q-7 0 -31 -8q7 -9 7 -16q0 -19 -24 -19q-26 0 -23 26q-57 -18 -94 -43q-4 -29 -15 -29q-7 0 -14.5 3.5t-10.5 3.5q-1 0 -17 -12q11 -6 11 -22q0 -22 -21 -22q-3 0 -28 17q-6 -5 -18 -16q6 0 20 -13v-22
q-12 -12 -20 -12q-27 0 -24 26l-28 -28h5q15 0 21 -9v-23q-12 -12 -20 -12q-27 0 -24 26q-11 -10 -25 -28q18 0 23 -9v-23q-13 -12 -21 -12q-27 0 -23 20q-6 -8 -18 -22q16 -2 16 -18q0 -26 -23 -26q-11 0 -23 12v19q14 13 23 13q-8 10 -25 30v-6q2 -22 -23 -22q-8 0 -21 12
v22q14 13 26 13q-3 9 -29 30q2 -4 2 -9q0 -22 -25 -22q-7 0 -20 12v23q5 7 24 9h5q-12 17 -32 31q1 -4 1 -8q0 -21 -24 -21q-7 0 -20 12v23q9 14 26 12q-18 12 -28 22v-2q1 -21 -24 -21q-21 0 -21 22q0 16 11 22l-15 12q-12 -7 -21 -7q-19 0 -21 32q-15 10 -36 15
q-20 16 -58 25v-4q1 -22 -23 -22q-23 0 -23 20q0 9 6 15q-16 8 -18 8h-47q11 -14 11 -26q0 -17 -21 -17q-23 0 -23 22q0 11 6 17q-30 -4 -55 -10q1 -5 1 -9q0 -20 -26 -20q-16 0 -19 20q-37 -19 -110 -67q-19 -16 -53 -65q-37 -53 -37 -72q0 -5 6.5 -14.5t6.5 -16.5
q0 -13 -13 -17q-7 -3 -15 -5q-2 -18 -7 -45h8q19 1 27 -12v-19q-12 -12 -29 -12q-8 0 -13 3v-58q12 6 21 6q11 0 21 -12v-19q-13 -12 -21 -12q-3 0 -9 1.5t-9 1.5q1 -18 7 -52l9 1q23 1 23 -23q0 -7 -8 -16.5t-8 -12.5q0 -14 37 -86h2q24 1 24 -24q0 -7 -5 -15q4 -7 9 -18
q10 10 18 10q23 0 23 -23q0 -12 -5 -15q-6 -6 -8 -10l15 -15q17 17 23 17q22 0 22 -33q0 -13 -20 -18q7 -8 22 -25v3q-2 24 22 24q11 0 21 -12v-23q-14 -13 -26 -13q11 -9 29 -30v5q-1 23 24 23q12 0 19 -8v-23q-12 -13 -29 -12l32 -32v5q-1 24 24 24q12 0 19 -8v-23
q-12 -13 -29 -12l32 -32v4q-1 25 24 25q12 0 19 -8v-23q-9 -16 -26 -12q10 -11 29 -25v3q0 19 24 19q13 0 20 -8v-23q-14 -13 -23 -13q9 -6 25 -21v3q-1 16 24 16q23 0 23 -21q0 -15 -20 -23q7 -7 22 -15q10 13 21 13q23 0 23 -21q0 -11 -17 -23l15 -15q12 13 25 13
q23 0 23 -23q0 -9 -13 -21q3 -3 7 -11q36 9 30 9q22 0 22 -21q0 -12 -13 -23q3 -3 7 -11q36 9 30 9q22 0 22 -21q0 -9 -13 -23l14 -15q13 13 23 13q22 0 22 -21q0 -1 -13 -27l15 -14q10 16 21 16q23 0 23 -26q0 -7 -20 -25q7 -9 22 -22v3q-1 24 22 24q12 0 22 -11v-23
q-13 -12 -22 -12q-3 0 -7.5 1.5t-6.5 1.5q41 -58 60 -98q27 42 104 140h-5q-25 -1 -25 26q0 21 23 21q31 0 21 -29q14 14 25 32q-10 0 -23 12v19q13 12 22 12q25 0 22 -23q9 9 22 26q-7 0 -20 12v19q13 12 22 12q26 0 22 -19q8 6 19 21q-17 8 -17 21q0 23 22 23q13 0 22 -16
l19 18q-17 11 -17 21q0 23 23 23q14 0 17.5 -6t7.5 -7l15 15q-17 4 -17 23q0 21 23 21q14 0 25 -16l18 19h-2q-18 0 -18 22t30 22q12 0 17 -20l22 21q-6 0 -20 13v23q8 8 20 8q26 0 24 -23q9 11 26 25q-10 0 -24 13v23q8 8 20 8q26 0 24 -23q8 9 26 25q-10 0 -24 13v23
q8 8 20 8q27 0 24 -26q6 9 26 28q-10 0 -24 13v23q8 8 20 8q26 0 24 -23q7 9 22 25q-10 3 -20 13v23q13 12 22 12q25 0 22 -23q4 7 19 21q-17 9 -17 18q0 33 22 33q2 0 23 -13q1 1 7 11q-6 13 -6 25q0 23 24 23q9 0 15 -7q3 6 8 18q-1 5 -1 12q0 6 1 11q11 14 20 13
q34 55 42 93q-17 7 -17 19q0 2 1 3q0 31 28 22q6 30 6 51q0 -2 -3 -2q-18 0 -31 12v19q13 12 21 12q10 0 21 -6zM1600 1271q-9 -8 -21 -8t-21 8v25q11 10 21 10t21 -10v-25zM1646 1225q-12 -11 -21 -11t-21 11v25q10 10 23 10q8 0 19 -10v-25zM1692 1179q-12 -11 -19 -11
q-11 0 -23 11v25q10 10 23 10q8 0 19 -10v-25zM1508 1274q-12 -11 -23 -11t-19 8v25q10 10 19 10q12 0 23 -10v-22zM1554 1225q-12 -11 -21 -11t-21 11v25q10 10 19 10q12 0 23 -10v-25zM1600 1179q-12 -11 -21 -11t-21 11v25q10 10 21 10q10 0 21 -10v-25zM1692 1087
q-12 -11 -21 -11t-21 11v21q11 11 23 11t19 -7v-25zM1738 1041q-12 -11 -21 -11t-21 11v21q11 11 23 11t19 -7v-25zM1646 1133q-12 -11 -19 -11q-11 0 -23 11v25q7 7 20 7h4q11 0 18 -7v-25zM1416 1274q-12 -11 -23 -11t-19 8v25q10 10 19 10q8 0 23 -14v-18zM1462 1228
q-15 -14 -23 -14q-7 0 -19 11v25q10 10 19 10q8 0 23 -14v-18zM1508 1179q-11 -11 -23 -11q-7 0 -19 11v25q10 10 19 10q8 0 23 -14v-21zM1554 1133q-11 -11 -23 -11q-7 0 -19 11v25l2 2q6 5 17 5t23 -11v-21zM1600 1087q-12 -11 -21 -11t-21 11v25l2 2q6 5 17 5t23 -11v-21
zM1646 1041q-12 -11 -21 -11t-21 11v21q11 11 21 11q9 0 21 -11v-21zM1692 995q-12 -11 -21 -11t-21 11v21q11 11 21 11q9 0 21 -11v-21zM1738 949q-12 -11 -21 -11t-21 11v21q11 11 21 11q9 0 21 -11v-21zM1416 1182q-15 -14 -23 -14q-7 0 -19 11v25q10 10 19 10
q8 0 23 -14v-18zM1324 1274q-12 -11 -23 -11t-23 11v18q14 14 23 14q8 0 23 -14v-18zM1462 1133q-11 -11 -23 -11q-7 0 -19 11v25l2 2q6 5 17 5t23 -11v-21zM1508 1087q-12 -11 -21 -11t-21 11v25l2 2q6 5 17 5t23 -11v-21zM1554 1041q-12 -11 -21 -11t-21 11v25l2 2
q6 5 17 5t23 -11v-21zM1600 995q-12 -11 -21 -11t-21 11v21q11 11 21 11q9 0 21 -11v-21zM1646 949q-12 -11 -21 -11t-21 11v21q11 11 21 11q9 0 21 -11v-21zM1692 903q-12 -11 -21 -11t-21 11v21q11 11 21 11q9 0 21 -11v-21zM1738 856q-11 -10 -21 -10q-9 0 -21 11v21
q11 11 21 11q9 0 21 -11v-22zM1370 1228q-15 -14 -23 -14t-23 14v18q14 14 23 14q8 0 23 -14v-18zM1416 1087q-12 -11 -21 -11t-21 11v25l2 2q6 5 17 5t23 -11v-21zM1462 1041q-12 -11 -21 -11t-21 11v25l2 2q6 5 17 5t23 -11v-21zM1508 995q-12 -11 -21 -11t-21 11v25l2 2
q6 5 17 5t23 -11v-21zM1554 949q-12 -11 -21 -11t-21 11v21q11 11 21 11q9 0 21 -11v-21zM1600 903q-12 -11 -21 -11t-21 11v21q11 11 21 11q9 0 21 -11v-21zM1646 856q-11 -10 -21 -10q-9 0 -21 11v21q11 11 21 11q9 0 21 -11v-22zM1692 810q-11 -10 -21 -10q-9 0 -21 11
v21q11 11 21 11q9 0 21 -11v-22zM1738 761q-7 -7 -19 -7q-11 0 -23 11v21q11 11 21 11q9 0 21 -11v-25zM1278 1228q-15 -14 -23 -14t-23 14v18q14 14 23 14q8 0 23 -14v-18zM1324 1182q-15 -14 -23 -14t-23 14v18q14 14 23 14q8 0 23 -14v-18zM1370 1136q-14 -14 -23 -14
q-8 0 -23 14v18q11 11 23 11q11 0 23 -11v-18zM1416 995q-12 -11 -21 -11t-21 11v25l2 2q6 5 17 5t23 -11v-21zM1462 949q-12 -11 -21 -11t-21 11v25l2 2q6 5 17 5t23 -11v-21zM1508 903q-12 -11 -21 -11t-21 11v21q11 11 21 11q9 0 21 -11v-21zM1554 856q-11 -10 -21 -10
q-9 0 -21 11v21q11 11 21 11q9 0 21 -11v-22zM1600 810q-11 -10 -21 -10q-9 0 -21 11v21q11 11 21 11q9 0 21 -11v-22zM1646 764q-11 -10 -21 -10q-9 0 -21 11v21q11 11 21 11q9 0 21 -11v-22zM1692 715q-7 -7 -19 -7q-11 0 -23 11v21q11 11 21 11q9 0 21 -11v-25z
M1229 1179q-12 -11 -20 -11t-23 14v18q14 14 23 14t20 -10v-25zM1278 1136q-14 -14 -23 -14q-8 0 -23 14v18q11 11 23 11q11 0 23 -11v-18zM1324 1090q-14 -14 -23 -14q-8 0 -23 14v18q11 11 23 11q11 0 23 -11v-18zM1370 1053q0 -23 -21 -23q-10 0 -25 14v18q11 11 23 11
q23 0 23 -20zM1462 856q-11 -10 -22 -10h-4q-9 0 -16 7v25q12 11 21 11t21 -11v-22zM1508 810q-11 -10 -22 -10h-4q-9 0 -16 7v25q12 11 21 11t21 -11v-22zM1554 764q-11 -10 -22 -10h-4q-9 0 -16 7v25q12 11 21 11t21 -11v-22zM1600 718q-11 -10 -22 -10h-4q-9 0 -16 7v25
q12 11 21 11t21 -11v-22zM1416 903q-11 -11 -23 -11t-19 7v29l2 2q6 5 17 5t23 -11v-21zM1646 669q-11 -10 -21 -10t-21 10v25q11 11 23 11q7 0 19 -11v-25zM1278 1044q-15 -14 -24 -14q-22 0 -22 23q0 20 23 20q11 0 23 -11v-18zM1324 1007q0 -23 -23 -23t-23 23
q0 20 23 20t23 -20zM1370 961q0 -23 -23 -23t-23 21q0 22 23 22t23 -20zM1183 1133q-12 -11 -20 -11q-11 0 -23 11v21q11 11 23 11q13 0 20 -7v-25zM1229 1087q-12 -11 -21 -11q-10 0 -22 11v21q11 11 23 11q13 0 20 -7v-25zM1416 810q-11 -10 -22 -10h-4q-9 0 -16 7v25
q12 11 21 11t21 -11v-22zM1462 764q-11 -10 -22 -10h-4q-9 0 -16 7v25q12 11 21 11t21 -11v-22zM1508 718q-11 -10 -22 -10h-4q-9 0 -16 7v25q12 11 21 11t21 -11v-22zM1554 672q-14 -13 -21 -13q-10 0 -21 10v25q11 11 19 11q11 0 23 -11v-22zM1600 623q-11 -10 -21 -10
t-21 10v25q11 11 21 11q9 0 21 -11v-25zM1278 959q0 -21 -23 -21t-23 23q0 20 23 20t23 -22zM1324 913q0 -21 -23 -21t-23 21q0 22 23 22t23 -22zM1370 866q0 -20 -23 -20t-23 21q0 22 23 22t23 -23zM1137 1087q-12 -11 -21 -11q-10 0 -22 11v21q11 11 23 11q13 0 20 -7v-25
zM1183 1041q-12 -11 -21 -11q-10 0 -22 11v21q11 11 23 11q13 0 20 -7v-25zM1229 995q-12 -11 -21 -11q-10 0 -22 11v21q11 11 23 11q13 0 20 -7v-25zM1416 718q-11 -10 -22 -10h-4q-9 0 -16 7v25q12 11 21 11t21 -11v-22zM1462 672q-14 -13 -23 -13q-8 0 -19 10v25
q11 11 19 11q11 0 23 -11v-22zM1508 626q-14 -13 -23 -13q-8 0 -19 10v25q11 11 19 11q11 0 23 -11v-22zM1278 867q0 -21 -23 -21t-23 20q0 23 23 23t23 -22zM1324 820q0 -20 -23 -20t-23 20q0 23 23 23t23 -23zM1370 774q0 -20 -23 -20q-11 0 -23 11v18q15 14 25 14
q21 0 21 -23zM1554 574q-11 -10 -21 -10q-21 0 -21 23q0 26 21 26q6 0 21 -14v-25zM1091 1041q-12 -11 -21 -11q-10 0 -22 11v21q11 11 23 11q13 0 20 -7v-25zM1137 995q-12 -11 -21 -11q-10 0 -22 11v21q11 11 23 11q13 0 20 -7v-25zM1183 949q-12 -11 -21 -11
q-10 0 -22 11v21q11 11 23 11q15 0 20 -7v-25zM1229 899q-7 -7 -20 -7q-11 0 -23 11v21q11 11 23 11q13 0 20 -7v-29zM1416 626q-14 -13 -23 -13q-8 0 -19 10v25q11 11 19 11t23 -14v-19zM1278 765q-11 -11 -23 -11q-23 0 -23 20q0 23 22 23q9 0 24 -14v-18zM1324 718
q-11 -10 -23 -10q-11 0 -23 11v18q14 14 23 14q8 0 23 -14v-19zM1462 577q-14 -13 -23 -13q-19 0 -19 21q0 28 19 28q8 0 23 -14v-22zM1045 995q-12 -11 -21 -11q-10 0 -22 11v21q11 11 22 11q9 0 21 -11v-21zM1091 949q-12 -11 -21 -11q-10 0 -22 11v21q11 11 22 11
q9 0 21 -11v-21zM1137 903q-12 -11 -21 -11q-10 0 -22 11v21q11 11 22 11q9 0 21 -11v-21zM1183 853q-7 -7 -20 -7q-11 0 -23 11v21q11 11 22 11q9 0 21 -11v-25zM1229 807q-7 -7 -20 -7q-11 0 -23 11v21q11 11 22 11q9 0 21 -11v-25zM1370 672q-14 -13 -23 -13q-8 0 -23 14
v18q14 14 23 14q8 0 23 -14v-19zM1508 528q-10 -10 -23 -10q-8 0 -19 10v25q11 11 19 11t23 -14v-22zM1045 903q-12 -11 -21 -11q-10 0 -22 11v21q11 11 22 11q9 0 21 -11v-21zM1091 856q-11 -10 -21 -10t-22 11v21q11 11 22 11q9 0 21 -11v-22zM1137 807q-7 -7 -20 -7
q-11 0 -23 11v21q11 11 22 11q9 0 21 -11v-25zM1183 761q-7 -7 -20 -7q-11 0 -23 11v21q11 11 22 11q9 0 21 -11v-25zM1229 715q-7 -7 -20 -7q-11 0 -23 11v21q11 11 22 11q9 0 21 -11v-25zM1278 672q-14 -13 -23 -13q-8 0 -23 14v18q14 14 23 14q8 0 23 -14v-19zM1324 626
q-14 -13 -23 -13q-8 0 -23 14v18q14 14 23 14q8 0 23 -14v-19zM1416 531q-14 -13 -23 -13q-8 0 -19 10v25q11 11 19 11t23 -14v-19zM674 1274q-12 -11 -23 -11t-23 11v18q14 14 23 14q8 0 23 -14v-18zM766 1182q-15 -14 -23 -14t-20 11v25q10 10 20 10q8 0 23 -14v-18z
M999 949q-11 -11 -23 -11q-11 0 -23 11v21q11 11 23 11q11 0 23 -11v-21zM1370 587q0 -23 -23 -23t-23 23q0 26 23 26t23 -26zM720 1228q-15 -14 -23 -14t-23 14v18q14 14 23 14q8 0 23 -14v-18zM812 1133q-11 -11 -23 -11q-8 0 -20 11v25q7 7 20 7q11 0 23 -11v-21z
M858 1087q-12 -11 -22 -11q-9 0 -21 11v25q7 7 20 7q11 0 23 -11v-21zM904 1041q-12 -11 -22 -11q-9 0 -21 11v25q7 7 20 7q11 0 23 -11v-21zM950 995q-12 -11 -22 -11q-9 0 -21 11v21q11 11 21 11t22 -11v-21zM1462 482q-10 -10 -23 -10q-8 0 -19 10v25l2 2q6 5 17 5
q12 0 23 -10v-22zM1045 810q-11 -10 -21 -10t-22 11v21q11 11 22 11q9 0 21 -11v-22zM1091 761q-7 -7 -20 -7q-11 0 -23 11v21q11 11 22 11q9 0 21 -11v-25zM1137 715q-7 -7 -20 -7q-11 0 -23 11v21q11 11 22 11q9 0 21 -11v-25zM999 857q-11 -11 -23 -11q-11 0 -23 11v21
q11 11 23 11q11 0 23 -11v-21zM1183 669q-11 -10 -20 -10q-8 0 -23 14v21q11 11 23 11q8 0 20 -11v-25zM1229 623q-11 -10 -20 -10q-8 0 -23 14v18q14 14 23 14q8 0 20 -11v-25zM1278 587q0 -23 -23 -23t-23 23q0 26 23 26t23 -26zM628 1228q-15 -14 -23 -14t-23 14v18
q14 14 23 14q8 0 23 -14v-18zM674 1182q-15 -14 -23 -14t-23 14v18q14 14 23 14q8 0 23 -14v-18zM766 1087q-12 -11 -22 -11q-9 0 -21 11v25q7 7 20 7q11 0 23 -11v-21zM812 1041q-12 -11 -22 -11q-9 0 -21 11v25q7 7 20 7q11 0 23 -11v-21zM858 995q-12 -11 -22 -11
q-9 0 -21 11v25q7 7 20 7q11 0 23 -11v-21zM904 949q-12 -11 -22 -11q-9 0 -21 11v21q11 11 21 11t22 -11v-21zM950 903q-12 -11 -22 -11q-9 0 -21 11v21q11 11 21 11t22 -11v-21zM1324 531q-14 -13 -23 -13t-23 13v19q14 14 23 14q8 0 23 -14v-19zM1416 436
q-11 -10 -21 -10t-21 10v25l2 2q6 5 17 5q12 0 23 -10v-22zM578 1271q-8 -8 -19 -8t-23 11v18q14 14 23 14q8 0 19 -10v-25zM720 1136q-14 -14 -23 -14q-8 0 -23 14v18q11 11 23 11q11 0 23 -11v-18zM1370 485q-13 -13 -23 -13q-9 0 -23 13v19q10 10 23 10q12 0 23 -10v-19z
M1045 715q-7 -7 -20 -7q-11 0 -23 11v21q11 11 22 11q9 0 21 -11v-25zM999 765q-11 -11 -23 -11q-11 0 -23 11v21q11 11 23 11q11 0 23 -11v-21zM1091 669q-11 -10 -21 -10q-7 0 -22 14v21q11 11 23 11q8 0 20 -11v-25zM1137 623q-11 -10 -20 -10q-8 0 -23 14v21
q11 11 23 11q8 0 20 -11v-25zM766 995q-12 -11 -22 -11q-9 0 -21 11v25q7 7 20 7q11 0 23 -11v-21zM812 949q-12 -11 -22 -11q-9 0 -21 11v25q7 7 20 7q11 0 23 -11v-21zM858 903q-12 -11 -22 -11q-9 0 -21 11v21q11 11 21 11t22 -11v-21zM904 856q-11 -10 -22 -10
q-9 0 -21 11v21q11 11 21 11t22 -11v-22zM950 810q-11 -10 -22 -10q-9 0 -21 11v21q11 11 21 11t22 -11v-22zM1183 587q0 -23 -20 -23q-9 0 -23 13v22q15 14 23 14q20 0 20 -26zM486 1271q-8 -8 -19 -8t-23 11v22q10 10 23 10q8 0 19 -10v-25zM628 1136q-14 -14 -23 -14
q-8 0 -23 14v18q11 11 23 11q11 0 23 -11v-18zM674 1090q-14 -14 -23 -14q-8 0 -23 14v18q11 11 23 11q11 0 23 -11v-18zM720 1053q0 -23 -22 -23q-9 0 -24 14v18q11 11 23 11q23 0 23 -20zM1229 528q-11 -10 -20 -10t-23 13v19q14 14 23 14q8 0 20 -11v-25zM532 1225
q-12 -11 -19 -11q-8 0 -23 14v18q14 14 23 14q8 0 19 -10v-25zM578 1179q-12 -11 -19 -11q-8 0 -23 14v18q14 14 23 14q8 0 19 -10v-25zM1278 485q-13 -13 -23 -13q-9 0 -23 13v19q10 10 23 10q12 0 23 -10v-19zM1324 439q-13 -13 -23 -13q-9 0 -23 13v19q10 10 23 10
q12 0 23 -10v-19zM1370 403q0 -23 -21 -23q-11 0 -25 13v19q10 10 23 10q23 0 23 -19zM1045 623q-11 -10 -21 -10q-11 0 -22 10v25q11 11 22 11q9 0 21 -11v-25zM766 903q-11 -11 -23 -11t-20 7v29q7 7 20 7q11 0 23 -11v-21zM812 856q-11 -10 -23 -10t-20 7v25q12 11 21 11
q10 0 22 -11v-22zM858 810q-11 -10 -23 -10t-20 7v25q12 11 21 11q10 0 22 -11v-22zM904 764q-11 -10 -23 -10t-20 7v25q12 11 21 11q10 0 22 -11v-22zM950 718q-11 -10 -23 -10t-20 7v25q12 11 21 11q10 0 22 -11v-22zM999 669q-10 -10 -23 -10q-12 0 -23 10v25
q11 11 23 11q11 0 23 -11v-25zM1091 587q0 -23 -21 -23q-11 0 -22 10v25q15 14 22 14q21 0 21 -26zM394 1271q-9 -8 -21 -8t-21 8v25q11 10 21 10t21 -10v-25zM628 1044q-15 -14 -25 -14q-21 0 -21 23q0 20 23 20q11 0 23 -11v-18zM674 1007q0 -23 -23 -23t-23 23
q0 20 23 20t23 -20zM720 961q0 -23 -23 -23t-23 21q0 22 23 22t23 -20zM1137 528q-11 -10 -20 -10q-12 0 -23 10v22q14 14 23 14q8 0 20 -11v-25zM440 1225q-12 -11 -21 -11t-21 11v25q10 10 23 10q8 0 19 -10v-25zM486 1179q-12 -11 -19 -11q-11 0 -23 11v21q14 14 23 14
q8 0 19 -10v-25zM1278 393q-14 -13 -24 -13q-22 0 -22 23q0 19 23 19q12 0 23 -10v-19zM1324 356q0 -23 -23 -23t-23 23q0 20 23 20t23 -20zM532 1133q-12 -11 -19 -11q-11 0 -23 11v21q11 11 23 11t19 -7v-25zM578 1087q-12 -11 -21 -11t-21 11v21q11 11 23 11t19 -7v-25z
M1183 482q-11 -10 -20 -10q-12 0 -23 10v22q10 10 23 10t20 -7v-25zM1229 436q-11 -10 -21 -10q-11 0 -22 10v22q10 10 23 10t20 -7v-25zM766 810q-11 -10 -23 -10t-20 7v25q12 11 21 11q10 0 22 -11v-22zM812 764q-11 -10 -23 -10t-20 7v25q12 11 21 11q10 0 22 -11v-22z
M858 718q-11 -10 -23 -10t-20 7v25q12 11 21 11q10 0 22 -11v-22zM628 959q0 -21 -23 -21t-23 23q0 20 23 20t23 -22zM674 913q0 -21 -23 -21t-23 21q0 22 23 22t23 -22zM720 866q0 -20 -23 -20t-23 21q0 22 23 22t23 -23zM904 672q-14 -13 -22 -13q-10 0 -21 10v25
q11 11 20 11q11 0 23 -11v-22zM950 623q-11 -10 -22 -10q-10 0 -21 10v25q11 11 21 11t22 -11v-25zM999 574q-10 -10 -23 -10q-12 0 -23 10v25q14 14 23 14q8 0 23 -14v-25zM1045 528q-11 -10 -21 -10q-11 0 -22 10v25q11 11 22 11q9 0 21 -11v-25zM348 1225
q-12 -11 -21 -11t-21 11v25q10 10 19 10q12 0 23 -10v-25zM394 1179q-12 -11 -21 -11t-21 11v25q10 10 21 10q10 0 21 -10v-25zM1278 309q0 -22 -23 -22t-23 23q0 20 23 20t23 -21zM440 1133q-12 -11 -19 -11q-11 0 -23 11v21q11 11 23 11t19 -7v-25zM486 1087
q-12 -11 -21 -11t-21 11v21q11 11 23 11t19 -7v-25zM532 1041q-12 -11 -21 -11t-21 11v21q11 11 23 11t19 -7v-25zM578 995q-12 -11 -21 -11t-21 11v21q11 11 23 11t19 -7v-25zM1091 482q-11 -10 -20 -10q-12 0 -23 10v22q10 10 23 10t20 -7v-25zM1137 436q-11 -10 -21 -10
q-11 0 -22 10v22q10 10 23 10t20 -7v-25zM1183 390q-11 -10 -21 -10q-11 0 -22 10v22q10 10 23 10t20 -7v-25zM1229 344q-12 -11 -21 -11q-10 0 -22 11v22q10 10 23 10t20 -7v-25zM766 718q-11 -10 -23 -10t-20 7v25q12 11 21 11q10 0 22 -11v-22zM628 867q0 -21 -23 -21
t-23 20q0 23 23 23t23 -22zM674 820q0 -20 -23 -20t-23 20q0 23 23 23t23 -23zM720 774q0 -20 -23 -20q-11 0 -23 11v18q15 14 24 14q22 0 22 -23zM812 672q-14 -13 -23 -13t-20 10v25q11 11 20 11q11 0 23 -11v-22zM858 626q-14 -13 -23 -13t-20 10v25q11 11 20 11
q11 0 23 -11v-22zM302 1179q-11 -11 -23 -11q-7 0 -19 11v25q10 10 19 10q12 0 23 -10v-25zM904 574q-11 -10 -22 -10q-21 0 -21 23q0 26 21 26q7 0 22 -14v-25zM394 1087q-12 -11 -21 -11t-21 11v21q11 11 23 11t19 -7v-25zM440 1041q-12 -11 -21 -11t-21 11v21
q11 11 23 11t19 -7v-25zM486 995q-12 -11 -21 -11t-21 11v21q11 11 23 11t19 -7v-25zM532 949q-12 -11 -21 -11t-21 11v21q11 11 23 11t19 -7v-25zM578 899q-7 -7 -19 -7q-11 0 -23 11v21q11 11 23 11t19 -7v-29zM1045 436q-11 -10 -21 -10q-11 0 -22 10v22q10 10 23 10
t20 -7v-25zM1091 390q-11 -10 -21 -10q-11 0 -22 10v22q10 10 23 10t20 -7v-25zM348 1133q-11 -11 -23 -11q-7 0 -19 11v25q7 7 20 7h4q11 0 18 -7v-25zM1137 344q-12 -11 -21 -11q-10 0 -22 11v22q10 10 23 10t20 -7v-25zM1183 298q-12 -11 -21 -11q-10 0 -22 11v22
q10 10 23 10t20 -7v-25zM1229 249q-8 -8 -20 -8q-11 0 -23 11v22q10 10 23 10t20 -7v-28zM950 528q-11 -10 -22 -10q-10 0 -21 10v25q11 11 21 11t22 -11v-25zM999 482q-10 -10 -23 -10q-12 0 -23 10v25l2 2q7 5 19 5h5q13 0 20 -7v-25zM628 765q-11 -11 -23 -11
q-23 0 -23 20q0 23 21 23q10 0 25 -14v-18zM674 718q-11 -10 -23 -10q-11 0 -23 11v18q14 14 23 14q8 0 23 -14v-19zM766 626q-14 -13 -23 -13t-20 10v25q11 11 20 11q8 0 23 -14v-19zM720 672q-14 -13 -23 -13q-8 0 -23 14v18q14 14 23 14q8 0 23 -14v-19zM812 577
q-14 -13 -23 -13q-20 0 -20 23q0 26 20 26q8 0 23 -14v-22zM256 1133q-11 -11 -23 -11q-7 0 -19 11v25l2 2q6 5 17 5t23 -11v-21zM302 1087q-12 -11 -21 -11t-21 11v25l2 2q6 5 17 5t23 -11v-21zM348 1041q-12 -11 -21 -11t-21 11v21q11 11 21 11q9 0 21 -11v-21zM394 995
q-12 -11 -21 -11t-21 11v21q11 11 21 11q9 0 21 -11v-21zM440 949q-12 -11 -21 -11t-21 11v21q11 11 21 11q9 0 21 -11v-21zM486 903q-12 -11 -21 -11t-21 11v21q11 11 21 11q9 0 21 -11v-21zM532 853q-7 -7 -19 -7q-11 0 -23 11v21q11 11 21 11q9 0 21 -11v-25zM578 807
q-7 -7 -19 -7q-11 0 -23 11v21q11 11 21 11q9 0 21 -11v-25zM1045 344q-12 -11 -21 -11q-10 0 -22 11v22q10 10 22 10q10 0 21 -10v-22zM1091 298q-12 -11 -21 -11q-10 0 -22 11v22q10 10 22 10q10 0 21 -10v-22zM1137 252q-12 -11 -21 -11q-10 0 -22 11v22q10 10 22 10
q10 0 21 -10v-22zM1183 203q-8 -8 -20 -8q-11 0 -23 11v22q10 10 22 10q10 0 21 -10v-25zM858 528q-10 -10 -23 -10q-9 0 -20 10v25q11 11 20 11q8 0 23 -14v-22zM999 390q-10 -10 -23 -10q-12 0 -23 10v22q10 10 23 10q12 0 23 -10v-22zM904 482q-10 -10 -23 -10
q-9 0 -20 10v25q7 7 20 7q12 0 23 -10v-22zM950 436q-11 -10 -22 -10q-10 0 -21 10v25q7 7 20 7q12 0 23 -10v-22zM628 672q-14 -13 -23 -13q-8 0 -23 14v18q14 14 23 14q8 0 23 -14v-19zM674 626q-14 -13 -23 -13q-8 0 -23 14v18q14 14 23 14q8 0 23 -14v-19zM256 1041
q-12 -11 -21 -11t-21 11v25l2 2q6 5 17 5t23 -11v-21zM302 995q-12 -11 -21 -11t-21 11v21q11 11 21 11q9 0 21 -11v-21zM348 949q-12 -11 -21 -11t-21 11v21q11 11 21 11q9 0 21 -11v-21zM394 903q-12 -11 -21 -11t-21 11v21q11 11 21 11q9 0 21 -11v-21zM440 856
q-11 -10 -21 -10q-9 0 -21 11v21q11 11 21 11q9 0 21 -11v-22zM486 807q-7 -7 -19 -7q-11 0 -23 11v21q11 11 21 11q9 0 21 -11v-25zM532 761q-7 -7 -19 -7q-11 0 -23 11v21q11 11 21 11q9 0 21 -11v-25zM578 715q-7 -7 -19 -7q-11 0 -23 11v21q11 11 21 11q9 0 21 -11v-25z
M1045 252q-12 -11 -21 -11q-10 0 -22 11v22q10 10 22 10q10 0 21 -10v-22zM1091 206q-12 -11 -21 -11q-10 0 -22 11v22q10 10 22 10q10 0 21 -10v-22zM1137 157q-8 -8 -20 -8q-11 0 -23 11v22q10 10 22 10q10 0 21 -10v-25zM720 587q0 -23 -23 -23t-23 23q0 26 23 26t23 -26
zM766 531q-14 -13 -23 -13t-20 10v25q11 11 20 11q8 0 23 -14v-19zM999 298q-11 -11 -23 -11q-11 0 -23 11v22q10 10 23 10q12 0 23 -10v-22zM812 482q-10 -10 -23 -10q-9 0 -20 10v25q7 7 20 7q12 0 23 -10v-22zM858 436q-11 -10 -22 -10q-10 0 -21 10v25q7 7 20 7
q12 0 23 -10v-22zM904 390q-11 -10 -22 -10q-10 0 -21 10v25q7 7 20 7q12 0 23 -10v-22zM950 344q-12 -11 -22 -11q-9 0 -21 11v22q10 10 21 10t22 -10v-22zM256 949q-12 -11 -21 -11t-21 11v21q11 11 21 11q9 0 21 -11v-21zM302 903q-12 -11 -21 -11t-21 11v21q11 11 21 11
q9 0 21 -11v-21zM348 856q-11 -10 -21 -10q-9 0 -21 11v21q11 11 21 11q9 0 21 -11v-22zM394 810q-11 -10 -21 -10q-9 0 -21 11v21q11 11 21 11q9 0 21 -11v-22zM440 761q-7 -7 -19 -7q-11 0 -23 11v21q11 11 21 11q9 0 21 -11v-25zM486 715q-7 -7 -19 -7q-11 0 -23 11v21
q11 11 21 11q9 0 21 -11v-25zM1045 160q-12 -11 -21 -11q-10 0 -22 11v22q10 10 22 10q10 0 21 -10v-22zM1091 111q-8 -8 -20 -8q-11 0 -23 11v22q10 10 22 10q10 0 21 -10v-25zM628 587q0 -23 -23 -23t-23 23q0 26 23 26t23 -26zM532 669q-11 -10 -19 -10t-23 14v21
q11 11 23 11q7 0 19 -11v-25zM578 623q-11 -10 -19 -10t-23 14v18q14 14 23 14q7 0 19 -11v-25zM999 206q-11 -11 -23 -11q-11 0 -23 11v22q10 10 23 10q12 0 23 -10v-22zM674 531q-14 -13 -23 -13t-23 13v19q14 14 23 14q8 0 23 -14v-19zM766 436q-11 -10 -22 -10
q-10 0 -21 10v25q7 7 20 7q12 0 23 -10v-22zM812 390q-11 -10 -22 -10q-10 0 -21 10v25q7 7 20 7q12 0 23 -10v-22zM858 344q-12 -11 -22 -11q-9 0 -21 11v25q7 7 20 7q12 0 23 -10v-22zM904 298q-12 -11 -22 -11q-9 0 -21 11v22q10 10 21 10t22 -10v-22zM950 252
q-12 -11 -22 -11q-9 0 -21 11v22q10 10 21 10t22 -10v-22zM720 485q-13 -13 -23 -13q-9 0 -23 13v19q10 10 23 10q12 0 23 -10v-19zM256 856q-11 -10 -21 -10q-9 0 -21 11v21q11 11 21 11q9 0 21 -11v-22zM302 810q-11 -10 -21 -10q-9 0 -21 11v21q11 11 21 11q9 0 21 -11
v-22zM348 764q-11 -10 -21 -10q-9 0 -21 11v21q11 11 21 11q9 0 21 -11v-22zM394 715q-7 -7 -19 -7q-11 0 -23 11v21q11 11 21 11q9 0 21 -11v-25zM1045 65q-8 -8 -20 -8q-11 0 -23 11v22q10 10 22 10q10 0 21 -10v-25zM440 669q-11 -10 -21 -10q-6 0 -21 14v21q11 11 23 11
q7 0 19 -11v-25zM486 623q-11 -10 -19 -10t-23 14v21q11 11 23 11q7 0 19 -11v-25zM999 114q-11 -11 -23 -11q-11 0 -23 11v22q10 10 23 10q12 0 23 -10v-22zM532 587q0 -23 -19 -23q-9 0 -23 13v22q15 14 23 14q19 0 19 -26zM766 344q-12 -11 -22 -11q-9 0 -21 11v25
q7 7 20 7q12 0 23 -10v-22zM812 298q-12 -11 -22 -11q-9 0 -21 11v25q7 7 20 7q12 0 23 -10v-22zM858 252q-12 -11 -22 -11q-9 0 -21 11v22q10 10 21 10t22 -10v-22zM904 206q-12 -11 -22 -11q-9 0 -21 11v22q10 10 21 10t22 -10v-22zM950 160q-12 -11 -22 -11q-9 0 -21 11
v22q10 10 21 10t22 -10v-22zM578 528q-11 -10 -19 -10q-9 0 -23 13v19q14 14 23 14q7 0 19 -11v-25zM628 485q-13 -13 -23 -13q-9 0 -23 13v19q10 10 23 10q12 0 23 -10v-19zM674 439q-13 -13 -23 -13q-9 0 -23 13v19q10 10 23 10q12 0 23 -10v-19zM720 403q0 -23 -22 -23
q-10 0 -24 13v19q10 10 23 10q23 0 23 -19zM256 764q-11 -10 -22 -10h-4q-9 0 -16 7v25q12 11 21 11t21 -11v-22zM302 718q-11 -10 -22 -10h-4q-9 0 -16 7v25q12 11 21 11t21 -11v-22zM348 669q-11 -10 -21 -10t-21 10v25q11 11 19 11q11 0 23 -11v-25zM394 623
q-11 -10 -21 -10t-21 10v25q11 11 21 11q9 0 21 -11v-25zM1045 -27q-12 -11 -21 -11q-10 0 -22 11v25q10 10 22 10q10 0 21 -10v-25zM440 587q0 -23 -21 -23q-10 0 -21 10v25q15 14 21 14q21 0 21 -26zM766 252q-11 -11 -23 -11q-11 0 -20 8v28q7 7 20 7q12 0 23 -10v-22z
M812 206q-12 -11 -23 -11q-12 0 -20 8v25q11 10 21 10q11 0 22 -10v-22zM858 160q-12 -11 -23 -11q-12 0 -20 8v25q11 10 21 10q11 0 22 -10v-22zM904 114q-12 -11 -23 -11q-12 0 -20 8v25q11 10 21 10q11 0 22 -10v-22zM950 68q-12 -11 -23 -11q-12 0 -20 8v25q11 10 21 10
q11 0 22 -10v-22zM999 19q-11 -11 -23 -11q-11 0 -23 11v25q10 10 23 10q12 0 23 -10v-25zM486 528q-11 -10 -19 -10q-12 0 -23 10v22q14 14 23 14q7 0 19 -11v-25zM628 393q-14 -13 -25 -13q-21 0 -21 23q0 19 23 19q12 0 23 -10v-19zM674 356q0 -23 -23 -23t-23 23
q0 20 23 20t23 -20zM720 310q0 -23 -23 -23t-23 22q0 21 23 21t23 -20zM532 482q-11 -10 -19 -10q-12 0 -23 10v22q10 10 23 10q12 0 19 -7v-25zM578 436q-11 -10 -21 -10t-21 10v22q10 10 23 10q12 0 19 -7v-25zM999 -73q-11 -11 -23 -11q-11 0 -23 11v25q10 10 23 10
q12 0 23 -10v-25z" />
  </g>

</svg>
