<?xml version="1.0" standalone="no"?>
<!DOCTYPE svg PUBLIC "-//W3C//DTD SVG 1.1//EN" "http://www.w3.org/Graphics/SVG/1.1/DTD/svg11.dtd" >
<svg viewBox="0 -442 2048 2048">
  <g transform="matrix(1 0 0 -1 0 1606)">
   <path fill="currentColor"
d="M431 1417l-42 -107q-14 14 -40 44l39 110q16 -15 43 -47zM509 1342l-42 -110q-19 15 -42 40l42 113zM352 1497l-42 -111l-42 43l42 110q29 -22 42 -42zM2014 599q0 -130 -82 -260q-61 -96 -187 -216q-102 -96 -204 -191q-166 -166 -251 -324q-86 157 -253 324
q-102 95 -204 191q-127 120 -188 216q-82 129 -82 260q0 191 107 295l-462 462q17 24 52 58l474 -471q90 47 191 47q109 0 211 -55.5t154 -148.5q55 91 154 147.5t205 56.5q173 0 271 -111q94 -105 94 -280zM390 1154l-110 -42q-12 8 -44 40l110 45zM312 1233l-107 -42
q-10 6 -47 43l110 38q15 -10 44 -39zM233 1311l-112 -45q-28 28 -39 46q107 39 109 39t42 -40zM1932 596q0 136 -73 221q-78 91 -211 91q-99 0 -205 -73q-99 -68 -153 -159q-52 92 -155 160q-109 72 -210 72q-71 0 -127 -29q179 -177 179 -186q0 -32 -43 -49l-206 189
q-84 -88 -84 -237q0 -144 137 -302q51 -60 280 -266q176 -159 229 -263q75 120 301 329q221 204 292 325q49 83 49 177z" />
  </g>

</svg>
