<?xml version="1.0" standalone="no"?>
<!DOCTYPE svg PUBLIC "-//W3C//DTD SVG 1.1//EN" "http://www.w3.org/Graphics/SVG/1.1/DTD/svg11.dtd" >
<svg viewBox="0 -442 2048 2048">
  <g transform="matrix(1 0 0 -1 0 1606)">
   <path fill="currentColor"
d="M1962 1368q0 -48 -42 -98q-40 -39 -79 -77q-43 -45 -67 -85q-26 42 -70 89q-38 38 -75 77q-42 50 -42 94q0 101 97 101q54 0 88 -40q2 1 42 26q21 14 53 14q95 0 95 -101zM1864 791q0 -37 -28 -70q-29 -28 -57 -55q-33 -33 -54 -67q-9 14 -84 95q-54 59 -54 97
q0 73 71 73q41 0 67 -30q24 30 71 30q68 0 68 -73zM1217 1377q0 -37 -28 -70l-56 -54q-33 -34 -54 -71q-25 38 -55 71q-28 27 -55 54q-29 33 -29 70q0 73 71 73q44 0 68 -30q33 30 68 30q70 0 70 -73zM1550 1081q0 -49 -40 -96q-38 -38 -77 -75q-45 -45 -71 -88
q-24 41 -69 87l-76 78q-42 50 -42 95q0 43 27 71.5t70 28.5q22 0 51 -12q34 -14 40 -31q41 43 94 43q93 0 93 -101zM457 1395q0 -58 -74 -134q-99 -100 -113 -125q-27 43 -72 90q-37 38 -75 76q-41 49 -41 93q0 101 98 101q59 0 90 -43q41 43 93 43q94 0 94 -101zM1666 401
q-41 -26 -125 -76v-424l-279 -169h-320l-86 -116h-447v115h-134v465q-10 -5 -42 -31l-148 170l522 376v160q-3 6 -28 6h-5v142q52 27 61 61q11 45 35 135q30 93 87 281h57q16 -51 47 -154q19 -64 58 -192q7 -31 27 -88q4 -10 21 -10l26 2l7 -1v-177l666 -433v-42zM430 919
q0 -37 -27 -68q-28 -27 -55 -53q-34 -34 -57 -71q-21 36 -54 70q-28 27 -56 55q-29 33 -29 69q0 71 72 71q44 0 67 -30q21 30 70 30q69 0 69 -73zM1864 1455q-41 -7 -76 -40q5 -3 14 -11q21 17 62 51zM1721 1442q-32 8 -41 8q-75 0 -75 -85q0 -25 21 -58v11q-7 16 -7 36
q0 85 79 85q4 0 11.5 1.5t11.5 1.5zM1791 854q-43 -13 -52 -31l8 -5q24 24 44 36zM1451 1165h-3q-27 1 -72 -37q5 -3 14 -10q30 30 61 47zM1138 1437q-26 -3 -49 -28l8 -5q13 12 41 33zM1687 844q-17 8 -32 8q-56 0 -56 -66q0 -26 17 -44q-6 14 -6 32q0 72 61 72q8 0 16 -2z
M1037 1430q-16 8 -30 8q-23 0 -39 -20t-16 -44q0 -33 17 -46q-4 16 -4 32q0 79 72 70zM1312 1152q-22 11 -41 11q-78 0 -78 -88q0 -30 23 -58q-6 24 -6 50q0 87 81 87q10 0 21 -2zM1574 429l-573 377q-30 -14 -61 -34v-63l471 -339zM358 1480h-3q-27 1 -72 -37q5 -3 14 -11
q32 32 61 48zM219 1467q-22 11 -42 11q-77 0 -77 -87q0 -34 21 -55q-4 70 -4 53q0 79 84 79q9 0 18 -1zM1482 -72v356l-167 -88l-54 21v-412zM1361 326l-479 357v240h36v52q-24 2 -43 0l-102 393q-32 -119 -97 -358q-5 -19 -10 -32q-12 0 -37 -4v-51h9q16 1 24 -3v-237
l-479 -360q18 -24 59 -69l98 70v-531h83q35 45 69 90q43 54 78 80q9 7 28 6q25 -2 30 -1v196q0 6 8 24q39 87 136 87q116 0 138 -102q5 -23 5 -19v-191h68v-170h217v531l105 -70q25 29 56 72zM353 982q-28 -9 -51 -28l7 -7q17 17 44 35zM253 972q-24 8 -31 8q-58 0 -58 -64
q0 -20 18 -44q-4 16 -4 32q0 70 56 70q9 0 19 -2zM875 108v62q0 15 -26 32v-94h26zM817 108v97q-19 0 -47.5 -25t-28.5 -44v-28h76zM875 -50v129h-26v-158q6 9 26 29zM817 -81v160h-75v-160h75zM933 -200v118h-23q-126 -154 -126 -151v-102h51zM799 -146h-118l-126 -144v-45
h174q0 106 4 115zM630 -126q0 30 -5 44h-32q-135 -162 -135 -164v-89h45q0 5 -1 17v16q0 26 64 93.5t64 82.5zM832 767h-121v155h121v-155z" />
  </g>

</svg>
