<?xml version="1.0" standalone="no"?>
<!DOCTYPE svg PUBLIC "-//W3C//DTD SVG 1.1//EN" "http://www.w3.org/Graphics/SVG/1.1/DTD/svg11.dtd" >
<svg viewBox="0 -442 2048 2048">
  <g transform="matrix(1 0 0 -1 0 1606)">
   <path fill="currentColor"
d="M1155 1338q0 -6 -1 -13q-10 -10 -17 -10q-4 0 -10 4t-9 4q0 15 -9 43q-18 26 -66 22q10 22 39 22q73 0 73 -72zM1009 1303q0 -12 -13 -25h-14q-12 57 -73 50v18q19 10 37 10q20 0 41.5 -17t21.5 -36zM2018 558q-54 25 -109 50q-34 13 -115 13h-75q-140 0 -280 -55
q-7 -3 -37 -22q-21 -15 -39 -15q-14 0 -39 6q-31 8 -40 9q-62 8 -141 8q-80 0 -126 -8q-3 -1 -45.5 -20t-123.5 -65q-78 -72 -248 -198q-9 -7 -26 -14h-23v11l132 120q41 51 137 141q1 11 5.5 35t4.5 37v336q0 12 13 65q14 58 16 73q-39 10 -62 38q-42 50 -42 76v48l9 -1
q66 -101 109 -102h21q2 27 4.5 55.5t30.5 47.5l20 -3q-23 -56 -23 -127q0 -18 19 -40t37 -22q29 0 49 22v118q0 8 14 39.5t20 38.5v-193q7 -12 28 -12q14 0 33 16t19 30v135q0 27 33 52l-2 -194q0 -11 -9 -40l2 -2q43 0 81 24q42 28 42 69q0 15 -9.5 47t-9.5 47q0 9 11 123
q5 8 11 11l29 -226q1 -5 1 -10q0 -35 -23 -52q30 -23 44 -23q25 0 56 51q29 47 29 75q0 13 -4 22q-32 39 -71 130q-2 27 -11 81q-14 49 -56 49q-25 0 -37 -27q6 -22 6 -47q0 -8 -1 -16q-15 -4 -12 -4q-8 0 -15 11q2 6 2 14q0 47 -54 60q-21 5 -92 5q-151 0 -191.5 -9
t-97.5 -38q-65 -34 -83 -61q-7 -29 -23 -75q-14 -16 -36 -54q0 1 0 -31q0 -30 -76 -119q-52 -59 -104 -117q-37 -42 -103 -132q-66 -115 -126 -267q-4 -21 -11 -63q-13 -84 -41 -251q-2 -14 -22.5 -66.5t-20.5 -57.5q0 -11 16 -32q59 -78 147 -119l162 -76q96 -42 168 -62
q20 -3 59 -11q223 -54 547 -54q47 0 137.5 24.5t137.5 24.5q39 0 46 -2q59 -16 118 -86q9 -11 87 -122h-102l-85 125h-93q-4 0 -22 -7t-23 -8q-142 -29 -226 -29q-243 0 -397 19q-205 25 -475 159q-117 58 -147 77q-77 51 -111 120q-13 27 -13 54q0 3 11 27t13 30
q4 15 12 75q8 92 34 274q10 51 83 217q47 107 166 254q163 202 189 240q17 26 32.5 82.5t29.5 80.5q8 14 62 58q36 29 167 77q30 11 143 11q65 0 140 -11q100 -14 127 -14q7 0 20.5 4.5t20.5 4.5q14 0 34 -17t26 -31q15 -50 52 -148q4 -8 40 -58q29 -39 29 -59q0 -2 3 -7
t3 -9q0 -19 -14 -54q-3 -8 -49 -75q-13 -28 -54 -72q-2 -1 -38 -10q0 -10 3.5 -30.5t3.5 -30.5q0 -16 -17 -48t-31 -39q-21 -10 -53 -10q-58 0 -88 44q-17 25 -37 98q-48 -22 -71 -22q4 0 -54 20h-45q-21 0 -56 27q-4 -1 -6 -12q-11 -64 -11 -117q0 -17 5 -50t5 -49l2 -184
q17 7 49 25q53 38 198 38q72 0 108 -8q9 -2 40 -16t35 -14q46 25 107 55q121 50 360 50q88 0 207 -62v-90zM1890 -222q0 -50 -43 -50q-20 0 -43 35q-34 36 -99 107q-23 36 -79 99q-27 12 -79 36v12h17q51 0 89 -11q79 -23 152 -85q85 -72 85 -143zM1390 211q0 -28 -8 -74
q-35 -79 -233 -79q-110 0 -211 13q-118 15 -168 174l8 8q11 -3 29 -11q6 -9 17 -24q57 -72 106 -72h285q11 0 55 14.5t51 20.5q10 12 21 24.5t26 12.5q14 0 22 -7zM1299 945q0 91 -29 91q-3 0 -81 -39q10 -35 19 -70q13 -39 54 -39q37 0 37 57z" />
  </g>

</svg>
