<?xml version="1.0" standalone="no"?>
<!DOCTYPE svg PUBLIC "-//W3C//DTD SVG 1.1//EN" "http://www.w3.org/Graphics/SVG/1.1/DTD/svg11.dtd" >
<svg viewBox="0 -442 2048 2048">
  <g transform="matrix(1 0 0 -1 0 1606)">
   <path fill="currentColor"
d="M1473 1273v-63q0 -15 -2 -24q-40 -173 -169 -285q-4 -4 -72 -49q-219 -146 -415 -232q-169 -74 -376 -205q-21 -13 -357 -237q6 46 28 135q18 39 51 118q91 243 321 619q2 3 54 66q27 36 86 105q41 33 120 100q74 66 223 156q90 54 198 54q227 0 308 -236q2 -6 2 -22z
M1990 196q0 -78 -22 -126q-20 -44 -77 -101q-14 -16 -44 -44l-41 -18q-27 -15 -84 -38q-97 -26 -143 -26h-337q-14 0 -40 -5q-30 -6 -41 -7q-50 -3 -148 -17q-17 -4 -223 -79q-37 -12 -108 -42q-35 -22 -104 -67q0 6 -1 16v16q0 115 222 352q54 65 172 189q55 51 146 110
q34 16 102 49q262 127 395 127q144 0 198 -17q9 -6 28 -17q150 -72 150 -255zM1342 1254q0 14 -34.5 60t-49.5 55q-45 26 -78 26q-54 0 -137 -35q-21 -9 -96 -60q-73 -47 -189 -136q-99 -95 -259 -355q-64 -103 -264 -411q50 31 146 97q55 48 155 122q78 47 256 138
q169 86 255 140q84 49 195 123q74 71 95 211q5 34 5 25zM1854 188q0 64 -11 82q-45 74 -141 74q-86 0 -129 -11q-36 -6 -106 -23l-111 -45q-98 -37 -174 -83q-86 -52 -188 -148q-85 -85 -170 -169q52 25 158 67q119 35 164 35h340q96 0 215 32q46 12 94.5 58t56.5 91
q2 11 2 40z" />
  </g>

</svg>
