<?xml version="1.0" standalone="no"?>
<!DOCTYPE svg PUBLIC "-//W3C//DTD SVG 1.1//EN" "http://www.w3.org/Graphics/SVG/1.1/DTD/svg11.dtd" >
<svg viewBox="0 -442 2116 2048">
  <g transform="matrix(1 0 0 -1 0 1606)">
   <path fill="currentColor"
d="M2116 293q0 -167 -315 -167q-182 0 -421 61q73 74 77 74q15 0 91 -17q87 -19 101 -21q98 -15 170 -15q214 0 214 108q0 102 -207 265q-260 205 -687 375q-453 180 -755 180q-219 0 -219 -107q0 -83 124 -195q197 -178 526 -337l-168 -14q-5 0 -46 22q-175 96 -319 222
q-200 175 -200 305q0 170 310 170q142 0 336 -41q312 -66 710 -254q210 -99 410 -255q268 -210 268 -359zM1531 419l-241 -180l86 -278l-239 168l-242 -171l92 278l-245 183h302l96 281l94 -281h297zM1393 376h-192l-64 183l-64 -183h-192q104 -79 155 -123l-59 -180
l160 109l159 -109l-58 183z" />
  </g>

</svg>
