<?xml version="1.0" standalone="no"?>
<!DOCTYPE svg PUBLIC "-//W3C//DTD SVG 1.1//EN" "http://www.w3.org/Graphics/SVG/1.1/DTD/svg11.dtd" >
<svg viewBox="0 -442 2048 2048">
  <g transform="matrix(1 0 0 -1 0 1606)">
   <path fill="currentColor"
d="M856 1389l-123 -119q-9 6 -35 32l122 123zM964 1136l-171 -21q3 9 0 45l171 25q-3 -13 0 -49zM616 1530l-25 -184h-5h-8q-38 0 -36 0l25 185q8 0 25 -1h24zM427 1342q-15 -8 -46 -23l-79 155q12 12 40 26zM1998 348q0 -286 -210 -497.5t-496 -211.5q-297 0 -500 206
t-203 503q0 216 112 385l-112 126q0 34 77.5 108.5t110.5 74.5q13 0 128 -105q167 112 387 112q288 0 497 -206.5t209 -494.5zM669 998l-36 -36q-31 9 -62 19.5t-50 39.5q-3 5 -12 40q-6 22 -26 26l3 14q11 0 23 -6q2 2 16 27q5 7 32 7q-9 -36 -9 -41q0 -66 121 -90z
M312 1228q-1 -4 -20 -42l-173 86q8 15 23 44zM280 1031l-189 -32q-6 32 -9 49l189 31zM504 835l-25 -184q-27 4 -49 9l25 175q31 -2 49 0zM358 891l-129 -129l-36 36l129 126q9 -6 36 -33zM866 910l-95 101q-20 -12 -30 -23l101 -98q12 8 24 20zM1678 856q-178 134 -386 134
q-267 0 -454 -188t-187 -455q0 -218 130 -384q-74 142 -74 311q0 274 192 467t466 193q153 0 313 -78z" />
  </g>

</svg>
