<?xml version="1.0" standalone="no"?>
<!DOCTYPE svg PUBLIC "-//W3C//DTD SVG 1.1//EN" "http://www.w3.org/Graphics/SVG/1.1/DTD/svg11.dtd" >
<svg viewBox="0 -442 2048 2048">
  <g transform="matrix(1 0 0 -1 0 1606)">
   <path fill="currentColor"
d="M1958 442q0 -64 -38 -149q-19 -42 -66 -79.5t-92 -47.5q-65 -14 -68 -14h-425q-10 -21 -32 -63q-108 -201 -324 -341q-152 -99 -198 -99q-45 0 -45 46q0 14 36 91q29 63 51 133q41 130 41 233h-452q9 0 -56 11q-91 15 -151 102q-57 81 -57 178v788q0 10 11 71
q18 100 95 162t179 62h1306q32 0 95 -18q135 -39 174 -181q16 -59 16 -95v-790zM1879 479v738q0 84 -39 146q-43 68 -121 84q-45 9 -46 9h-1306q-9 0 -59 -12q-71 -17 -111 -87q-36 -63 -36 -141v-736q0 -110 61.5 -175t171.5 -65h486v-59q0 -85 -42 -231q-45 -158 -93 -212
q139 42 277.5 182.5t171.5 278.5q6 25 14 41h438q200 0 228 197q5 36 5 42zM1714 1243h-69v78h69v-78zM1598 1243h-313v78h313v-78zM1714 1027h-179v81h179v-81zM1483 1027h-188v81h188v-81zM1714 813h-301v79h301v-79zM1236 1243h-423v78h423v-78zM1248 1027h-194v81h194
v-81zM1604 600h-72v78h72v-78zM1367 813h-72v79h72v-79zM1714 384h-182v81h182v-81zM1007 1027h-72v81h72v-81zM1479 600h-306v78h306v-78zM767 1243h-188v78h188v-78zM1248 813h-313v79h313v-79zM1479 384h-187v81h187v-81zM886 1027h-307v81h307v-81zM526 1243h-188v78
h188v-78zM886 813h-73v79h73v-79zM1123 600h-313v78h313v-78zM767 813h-69v79h69v-79zM526 1028h-71v80h71v-80zM1245 384h-432v81h432v-81zM407 1027h-69v81h69v-81zM767 600h-69v78h69v-78zM648 813h-310v79h310v-79zM648 600h-310v78h310v-78zM767 384h-188v81h188v-81z
M526 384h-188v81h188v-81z" />
  </g>

</svg>
