<?xml version="1.0" standalone="no"?>
<!DOCTYPE svg PUBLIC "-//W3C//DTD SVG 1.1//EN" "http://www.w3.org/Graphics/SVG/1.1/DTD/svg11.dtd" >
<svg viewBox="0 -442 2048 2048">
  <g transform="matrix(1 0 0 -1 0 1606)">
   <path fill="currentColor"
d="M1245 1510q-16 -3 -47 -15q-94 -60 -94 -128q0 -39 16 -61q23 -29 47 -57q35 -45 35 -57v-75q-22 -18 -61 -43q30 36 30 59q0 37 -10 55q-12 8 -35 27q-45 43 -58 77q-11 29 -11 93q0 125 188 125zM937 1070l-1 -33q-1 -43 -39.5 -64.5t-74.5 -40.5q-24 -18 -24 -31
q0 -32 55 -65q-59 12 -62 13q-29 13 -29 51t32 63q32 19 63 38q17 11 29 44q1 3 1 6v3q-12 9 -97 50q-60 28 -76 75q-3 7 -3 49q0 21 3 31q14 56 97 56q107 0 107 -59q0 -13 -10.5 -27.5t-22.5 -14.5q-7 0 -19.5 4t-18.5 4q2 0 6 -1q31 0 31 35q0 41 -52 41q-45 0 -60 -22
q-11 -17 -11 -64q0 -3 1 -7q10 -45 95 -79q80 -32 80 -55zM1749 -79q0 -73 -83 -132q-65 -45 -151 -67q-129 -33 -138 -33q-5 0 -16 1.5t-16 1.5q-21 0 -62 -13.5t-62 -13.5h-173q-17 0 -46 -8q-33 -9 -46 -10q-59 -6 -136 -6q-164 0 -252 12q-5 1 -18.5 5t-20.5 4
q-4 0 -14 -4.5t-17 -4.5q-99 0 -132 7q-14 5 -44 16t-67 27q-3 5 -9 13q-18 9 -49 26q-115 76 -115 328q0 47 56 110q48 54 99 83q36 15 105 49q-2 16 -5 48q8 9 8 20q0 5 -2.5 16t-2.5 16q0 42 28 92q10 10 29 31q57 68 121 82q91 20 124 20q28 0 54 -4q6 -1 21.5 -6.5
t21.5 -5.5h112q10 0 30 -3t30 -3q15 0 59 27q56 34 76 52q37 33 50 76q5 17 5 15q0 23 -16 58q-6 12 -28.5 21.5t-31.5 26.5q-55 -19 -53 -61h-10q-14 0 -14 30q0 92 180 92q9 0 73 -18q83 -23 130 -96q45 -69 45 -158q0 -74 -7 -100q-10 -15 -27 -42q111 -2 167 -76
q27 -36 32 -141q86 -26 151 -146q57 -105 57 -254zM1465 382q0 27 -23 53q-48 55 -110 55h-17q-65 0 -100 -4q-29 -39 -51 -39q-10 0 -21 22h-196q-3 0 -12 8q-16 1 -21 11q7 3 20 14q19 0 31 -12q10 4 34 30q14 1 15 1q14 0 24 -13q9 3 28 11q7 15 29 16q28 2 33 5
q10 9 30 18q16 23 23 25h35q5 14 19 38q-7 0 -15 8v28q8 12 20 11h23q-3 5 -22 22v27q13 8 37 25q-14 15 -14 22q0 3 2 9.5t2 9.5q0 5 -9.5 19.5t-10.5 19.5q-2 25 -28 70q-7 6 -56.5 19t-61.5 13q-43 0 -53 -15q11 -1 31 -10q55 -46 55 -97q0 -27 -14 -68q-19 -56 -93 -102
q-24 -19 -61 -43q-46 -16 -87 -16q-39 0 -117.5 9t-117.5 9q-17 0 -88.5 -9t-81.5 -14q-5 -6 -18 -16q-8 -2 -21 -9q-53 -51 -53 -149q0 -112 166 -163q29 -4 85 -14q83 -20 62 -20q22 0 60 11q44 13 58.5 15t74.5 2q14 18 21 18t19 -5t19 -5q11 0 32.5 2t31.5 2
q-3 11 -3 19q0 20 25 20q37 0 37 -26q0 -4 -1 -7h12q18 15 38 15q34 0 27 -30q18 -10 21 -10q5 0 15 5t14 6h30q10 0 20 5t11 5q6 0 17 -4.5t17 -4.5q9 0 26.5 17t39.5 17q4 0 12 -1t12 -1q-7 12 -7 22q0 13 12 19q10 1 30 2q7 17 24 51q1 2 14 8q10 5 10 18zM1672 74
q0 42 -65 119q-5 6 -71 53q-15 -28 -56 -76q-80 -59 -162 -59q-64 0 -169 31q-86 25 -99 24l-284 -27q-6 -1 -15 -1q-121 0 -238 29q-44 11 -155 112q-29 -1 -97 -53q-85 -65 -104 -128q-10 -33 -10 -105q0 -38 21 -99t45 -91q21 -27 62 -38q36 -6 72 -13q11 -5 34 -13
q24 -4 58 -4q8 0 22.5 1.5t22.5 1.5q11 0 28 -5q21 -5 28 -6q50 -7 90 -7q14 0 107 19q15 27 26 27q15 0 23 -5q11 -9 15 -10q6 12 20 12q6 0 17 -3t17 -3h29q-1 17 29 32q26 13 46 13q29 0 29 -21h19q6 0 22.5 14t20.5 14q58 0 69.5 -27.5t24.5 -27.5q7 0 15 3q-1 7 -1 12
q0 33 19 33l29 -4q4 -3 9 -17h12q44 0 71 22q1 8 5 22q4 8 24.5 26.5t27.5 18.5q8 0 31 -4l14 -8q9 18 29 18q9 0 23.5 20t31.5 20q46 0 45 -28l15 4q0 4 4 34q11 10 28 15q5 42 25 42t34 -9q8 24 8 25q4 6 22 15q7 26 7 60z" />
  </g>

</svg>
