<?xml version="1.0" standalone="no"?>
<!DOCTYPE svg PUBLIC "-//W3C//DTD SVG 1.1//EN" "http://www.w3.org/Graphics/SVG/1.1/DTD/svg11.dtd" >
<svg viewBox="0 -442 2048 2048">
  <g transform="matrix(1 0 0 -1 0 1606)">
   <path fill="currentColor"
d="M1970 584q0 -40 -29 -91q-24 -42 -122 -143.5t-138 -125.5q-12 -7 -76 -31q9 -24 9 -49q0 -23 -10 -40q-38 -62 -91 -95q-16 -10 -49 -10q-17 0 -44 10q-6 -22 -21 -64q-19 -39 -76 -94q-46 -43 -92 -85q-120 -122 -205 -122q-47 0 -82 22q-54 34 -151 123
q-102 93 -131 140q-14 22 -30 79q-6 -1 -21 -5t-23 -4q-33 0 -49 10q-53 34 -91 95q-8 13 -8 57q0 20 7 32q-30 9 -94 43q-53 41 -131 125q-75 81 -90 101q-50 67 -50 122q0 36 23 82q19 37 146 178q94 104 166 127q18 6 30 14q-10 27 -10 48q0 32 35 75q30 37 64 57
q13 8 49 8q12 0 43 -7q9 26 31 76q14 26 165 170q125 119 202 119q68 0 173 -88q29 -24 148 -142q49 -49 61 -90q13 -44 15 -44q7 0 22 3t22 3q35 0 52 -11q51 -34 85 -88q7 -12 7 -53q0 -19 -6 -36q38 -12 110 -56q255 -241 255 -345zM1869 591q0 91 -221 283
q-37 32 -107 32q-51 0 -71 -18l-138 141q16 38 16 72q0 64 -29 99q-188 230 -293 230q-83 0 -278 -209q-6 -6 -15 -21q-29 -46 -29 -99q0 -27 16 -72l-138 -141q-22 18 -71 18q-76 0 -122 -43q-206 -192 -206 -272q0 -57 95 -162q44 -49 139 -135q35 -25 96 -25q35 0 70 21
l143 -145q-19 -33 -19 -71q0 -41 20 -83q27 -57 129 -147q111 -99 170 -99q56 0 159 94q47 41 128 130q32 44 32 105q0 34 -19 71l143 145q39 -21 70 -21t71 13q26 8 47 28q212 197 212 281zM1197 416q-88 37 -171 37q-73 0 -171 -37q33 93 33 170q0 73 -33 170
q125 -37 171 -37q47 0 171 37q-33 -109 -33 -170q0 -70 33 -170z" />
  </g>

</svg>
