<?xml version="1.0" standalone="no"?>
<!DOCTYPE svg PUBLIC "-//W3C//DTD SVG 1.1//EN" "http://www.w3.org/Graphics/SVG/1.1/DTD/svg11.dtd" >
<svg viewBox="0 -442 2048 2048">
  <g transform="matrix(1 0 0 -1 0 1606)">
   <path fill="currentColor"
d="M680 -58q0 -138 -80.5 -220.5t-218.5 -82.5q-137 0 -218 82.5t-81 220.5q0 110 35 278q38 159 113 476q93 403 153 847q29 -291 115 -687l156 -680q26 -119 26 -234zM602 -37q0 107 -33 250q-32 123 -63 246q-97 396 -123 652q-22 -149 -78 -446q-43 -165 -122 -495
q-24 -107 -24 -237q0 -35 20 -84q51 -129 202 -129q108 0 167 69q54 64 54 174z" />
  </g>

</svg>
