<?xml version="1.0" standalone="no"?>
<!DOCTYPE svg PUBLIC "-//W3C//DTD SVG 1.1//EN" "http://www.w3.org/Graphics/SVG/1.1/DTD/svg11.dtd" >
<svg viewBox="0 -442 2048 2048">
  <g transform="matrix(1 0 0 -1 0 1606)">
   <path fill="currentColor"
d="M1986 173l-541 43h-49q-8 -36 -8 -99v-49l23 -451q-90 113 -180 225q-106 127 -196 212l-391 -406q70 267 102 438q-1 1 -2 1t-228 -85q6 16 53 93q39 63 40 90l-2 3l-519 -176q166 174 212 225q118 130 200 237q-10 11 -415 103l428 150h1q2 1 2 5t-39 61
q-137 201 -395 470q195 -97 433 -185q63 -25 176 -62h8q22 206 16 338q90 -101 280 -292q14 7 134 216q108 188 136 244l32 -427q1 -2 5 -2q6 0 77 39q249 138 571 386q-156 -230 -230 -347q-125 -196 -212 -358q66 -20 166 -34l168 -22q-75 -57 -151 -114
q-86 -68 -142 -125q82 -84 211 -181zM1769 257q-82 62 -165 124q-92 73 -154 137q46 64 200 199q-54 3 -127 21q-85 21 -117 47q150 268 358 528q-197 -159 -459 -292q-53 -27 -57 -27q6 0 -7 3q-18 116 -18 342q-62 -129 -203 -379q-63 50 -246 236q0 -165 -19 -264
q-141 36 -440 164l313 -379q-99 -55 -277 -120q208 -43 270 -76q-147 -178 -327 -364q242 95 373 125q48 11 49 11q6 0 5 -1v-1q-25 -95 -47 -140q54 23 156 49l2 -2q-16 -113 -64 -336q128 169 264 301q172 -151 286 -304q-8 109 -8 113v165q0 84 21 163h33q79 0 257 -22
q50 -5 148 -21z" />
  </g>

</svg>
