<?xml version="1.0" standalone="no"?>
<!DOCTYPE svg PUBLIC "-//W3C//DTD SVG 1.1//EN" "http://www.w3.org/Graphics/SVG/1.1/DTD/svg11.dtd" >
<svg viewBox="0 -442 2048 2048">
  <g transform="matrix(1 0 0 -1 0 1606)">
   <path fill="currentColor"
d="M1992 1287q0 -274 -100 -538q-131 -344 -356 -344q-115 0 -175 93q-51 79 -51 200q0 205 126 491q147 333 321 333q8 0 23 -5t23 -5q4 0 22 9.5t37 9.5q130 0 130 -244zM1341 1263q0 -274 -102 -540q-131 -346 -357 -346q-115 0 -174 90q-49 77 -49 198q0 208 126 495
q147 337 323 337q4 0 20.5 -6.5t21.5 -6.5q2 0 22 9.5t39 9.5q130 0 130 -240zM1732 205q0 -22 -23 -57t-44 -35h-158q2 0 -127 -8q-166 -10 -307 -30q-71 -10 -223 -40q-74 -17 -148 -33q-90 -19 -150 -19q-120 0 -120 73q0 60 70 87l120 30q127 34 388 66q201 24 369 40
q85 8 255 17h16q37 0 53 -10q29 -19 29 -81zM739 1427q0 -39 -34 -134q-25 -68 -51 -136q-27 -79 -84 -236q-85 -209 -238 -634q-45 -142 -60 -225q-9 -50 -17 -101q-19 -49 -83 -49q-90 0 -90 121q0 83 35 188q110 332 362 925v3q-163 -173 -292 -173q-96 0 -96 62
q0 37 28 50q30 10 60 19q35 14 86 52q144 108 253 235q29 37 59 74q39 44 77 44q85 0 85 -85zM1825 -85q0 -29 -16 -54q-18 -30 -45 -30l-350 -3q-21 -2 -60 -7q-155 -17 -464 -56q-42 -9 -127 -25l-273 -50q-3 -1 -158 -37q-140 -33 -164 -33q-65 0 -65 53q0 44 88 78
q131 51 342 99q108 26 325 73q105 21 309 48q184 24 250 24h350q25 0 43 -28q15 -25 15 -52zM1840 1326q0 42 -13 62h-9q-34 2 -67 -20q-117 -81 -200 -307q-74 -202 -74 -368q0 -133 73 -133q149 0 231 319q59 229 59 447zM1186 1304q0 37 -10 56q-5 1 -10 1q-31 0 -63 -18
q-113 -62 -202 -311q-78 -219 -78 -377q0 -123 73 -123q153 0 234 320q56 225 56 452z" />
  </g>

</svg>
