<?xml version="1.0" standalone="no"?>
<!DOCTYPE svg PUBLIC "-//W3C//DTD SVG 1.1//EN" "http://www.w3.org/Graphics/SVG/1.1/DTD/svg11.dtd" >
<svg viewBox="0 -442 2048 2048">
  <g transform="matrix(1 0 0 -1 0 1606)">
   <path fill="currentColor"
d="M1960 442q0 -66 -50 -88.5t-50 -34.5q0 -4 19.5 -36.5t19.5 -51.5q0 -77 -107 -127q-23 -5 -59 -29l-24 -106q-26 -91 -87 -91q-12 0 -34.5 6.5t-34.5 6.5q-21 0 -28 -39q-4 -28 -9 -56q-9 -20 -59 -34q-42 -12 -72 -12q-2 0 -89 10q-88 -112 -180 -112q-32 0 -56.5 32
t-38.5 32q-18 0 -38.5 -32t-57.5 -32q-92 0 -182 112q-98 -10 -86 -10q-103 0 -132 46q-3 5 -9 58q-5 37 -32 37q-11 0 -32 -6.5t-32 -6.5q-73 0 -102 145q-2 17 -9 49q-43 23 -85 46q-81 49 -81 113q0 21 19.5 52.5t19.5 35.5q0 12 -50 35t-50 88q0 44 27.5 100t27.5 57
q-55 106 -55 173q0 51 50 74t50 35q0 10 -19.5 38.5t-19.5 48.5q0 63 78 110q43 23 85 46q0 1 14 70q25 126 102 126q11 0 31 -4.5t31 -4.5q26 0 30 35q6 50 8 54q12 21 59 37q41 15 70 15q27 0 89 -17q99 116 183 116q36 0 61 -32t37 -32q10 0 35.5 32t62.5 32
q83 0 180 -116q76 17 90 17q31 0 73 -14q49 -16 58 -39q3 -27 7 -54q5 -34 31 -34q11 0 31 4.5t31 4.5q57 0 85 -74q7 -20 28 -122q166 -80 166 -156q0 -19 -19.5 -50t-19.5 -37q0 -10 50 -34.5t50 -88.5q0 -57 -55 -159q1 -7 29 -60q26 -49 26 -97zM1671 1144v18
q0 16 -14 52.5t-25.5 44t-30.5 7.5q-14 0 -40 -11.5t-40 -11.5q-32 0 -37 38q-9 69 -10 72q-15 38 -72 38q-29 0 -64 -11l100 -204q78 -6 233 -32zM1905 441q0 65 -43 104q-55 -72 -168 -162q23 -71 42 -242q35 17 69 35q39 25 39 61q0 20 -27 46.5t-27 49.5q0 33 57.5 49.5
t57.5 58.5zM701 1380q-35 11 -63 11q-55 0 -70 -38q-1 -2 -10 -72q-5 -38 -37 -38q-14 0 -40 11.5t-40 11.5q-17 0 -31.5 -8.5t-27.5 -51.5q-11 -38 -11 -62q55 15 233 32q28 70 97 204zM1905 768q0 32 -57.5 50t-57.5 49q0 21 27 49t27 49q0 51 -110 94q-79 31 -157 42
q-76 6 -167 18q-12 5 -20 21q-80 168 -109 214q-89 146 -164 146q-22 0 -46 -42t-50 -42q-25 0 -49.5 42t-46.5 42q-68 0 -158 -133q-69 -102 -104 -198q-5 -15 -11 -30t-20 -20q-24 -8 -81 -12q-79 -5 -86 -6q-76 -10 -157 -42q-110 -43 -110 -94q0 -20 27 -49t27 -49
q0 -32 -57.5 -50t-57.5 -45q0 -124 209 -309l40 -32q23 -22 23 -43q0 -16 -9 -44q-11 -36 -13 -44q-20 -101 -20 -192q0 -175 72 -175q14 0 40.5 11t40.5 11q36 0 39 -36.5t6 -72.5q14 -38 76 -38q73 0 228 77t152 77q1 0 153.5 -77t226.5 -77q59 0 75 38q4 11 7 71
q2 38 29 38q16 0 45.5 -11t45.5 -11q72 0 72 181q0 98 -24 202q-18 78 -18 72q0 16 13 32q3 4 38 35q221 197 221 313zM1234 -219q-64 24 -131 63q-85 50 -82 50q-3 0 -75 -42q-76 -45 -87 -50q-19 -6 -53 -24q75 -76 117 -76q24 0 48.5 41.5t49.5 41.5t48.5 -41.5
t49.5 -41.5q50 0 115 79zM348 383q-58 55 -175 162q-36 -63 -36 -110q0 -35 57.5 -52t57.5 -50q0 -23 -27 -49.5t-27 -46.5q0 -51 108 -96q15 164 42 242z" />
  </g>

</svg>
