<?xml version="1.0" standalone="no"?>
<!DOCTYPE svg PUBLIC "-//W3C//DTD SVG 1.1//EN" "http://www.w3.org/Graphics/SVG/1.1/DTD/svg11.dtd" >
<svg viewBox="0 -442 2048 2048">
  <g transform="matrix(1 0 0 -1 0 1606)">
   <path fill="currentColor"
d="M1944 780q0 -79 -84 -113q14 -68 14 -71q0 -82 -94 -74q-23 -136 -113 -136q-13 0 -36.5 9.5t-34.5 9.5q-3 -1 -5 -3q-22 -81 -138 -81q-30 0 -61 19q-55 -66 -102 -66q-76 0 -126 29q-9 -8 -27 -22q-32 -20 -71 -20q-59 0 -93 37q-41 -37 -104 -37q-34 0 -91 42
q-11 -1 -32 -7.5t-33 -6.5q-10 0 -28.5 4.5t-28.5 4.5q-3 -1 -5 -3q-18 -66 -95 -106q-71 -36 -144 -30q0 -117 -165 -117q-58 0 -105 22q-60 29 -60 80q0 55 58 81q28 13 105 25q-33 62 -33 95q0 56 47 113q-36 36 -43.5 52t-13.5 68q-101 54 -101 146q0 8 11.5 32.5
t11.5 32.5q0 3 -18.5 40t-18.5 58q0 28 5 61.5t42 48.5q62 25 63 26q0 58 42 95t100 37q9 0 18 -1q3 89 125 89q33 0 100 -19q8 18 31 49q24 21 65 21q19 0 53.5 -14t53.5 -14q-2 0 25 21t61 21q37 0 132 -37q14 10 28 19q27 18 66 18q74 0 114 -37q47 32 100 32
q84 0 128 -70q32 24 58 24q48 0 82 -61q53 14 57 14q67 0 115 -107q5 5 20 5q51 0 84 -37t33 -89q0 -29 -19 -85q75 -38 75 -117zM1888 784q0 45 -44.5 63t-44.5 47q0 3 14 33t14 62q0 68 -60 68q10 0 -44 -19l-30 27q0 10 -2.5 31t-21.5 39.5t-40 18.5q-29 0 -60 -23
q-19 12 -44 32l-9 26q-5 17 -22 17q-7 0 -27 -19t-26 -19q-36 0 -54.5 42t-78.5 42q-34 0 -58 -21t-56 -21q-40 47 -97 47q-44 0 -82 -47q-92 42 -139 42q-30 0 -37 -24q-33 -27 -38 -27q-4 0 -47.5 21t-73.5 21q-25 0 -30.5 -17.5t-10.5 -35.5q-19 -31 -40 -31q-7 0 -26 7
q-22 9 -28 10q-29 6 -93 6h-19q-15 -8 -15 -25q0 -15 10 -28l-33 -45q-41 14 -59 14q-25 0 -51 -14q-30 -17 -34 -39q1 5 1 -33q0 -17 -20 -43h-16q-73 1 -73 -61q0 -34 18.5 -69.5l18.5 -35.5q0 -9 -14 -40.5t-14 -40.5q0 -47 56 -78.5t56 -54.5q0 -7 -2 -20.5t-2 -20.5
q0 -26 16.5 -33.5t34.5 -13.5q12 -7 15.5 -20.5t6.5 -26.5q-69 -46 -69 -107q0 -60 59 -97q51 -31 115 -31q154 0 161 122q25 17 46 17q12 0 34 -9t34 -9t33.5 7t33.5 7q24 0 41.5 -18.5t47.5 -18.5q34 0 63 20.5t34 20.5q22 0 42.5 -20.5t55.5 -20.5q32 0 52.5 23t40.5 23
q11 0 49 -18.5t65 -18.5q49 0 64.5 39.5t47.5 39.5q10 0 31.5 -14t52.5 -14q42 0 58 23q11 14 19 62q35 13 44 13q7 0 37 -16.5t37 -16.5q59 0 59 75q0 15 -4 29q9 12 30 34q8 -1 24 -1q27 0 42 4v39q0 10 -9 29.5t-9 28.5q0 7 26 40q67 8 67 64zM352 144q0 52 -105 52
q-114 0 -114 -49q0 -21 47 -37q37 -12 65 -12q29 0 63 11q44 13 44 35zM1710 899h-133v55h133v-55zM1459 1048h-50v54h50v-54zM1543 899h-50v55h50v-55zM1622 745h-50v55h50v-55zM1375 1048h-217v54h217v-54zM1459 899h-129v55h129v-55zM1533 745h-45v55h45v-55zM1291 899
h-129v55h129v-55zM1459 745h-213v55h213v-55zM1543 597h-134v54h134v-54zM1124 1048h-297v54h297v-54zM1128 899h-133v55h133v-55zM1380 597h-50v54h50v-54zM1212 745h-50v55h50v-55zM1459 448h-129v54h129v-54zM961 899h-50v55h50v-55zM1291 597h-212v54h212v-54zM793 1048
h-133v54h133v-54zM1128 745h-217v55h217v-55zM1291 448h-129v54h129v-54zM877 899h-213v55h213v-55zM626 1048h-129q0 24 -5 54h134v-54zM877 745h-50v55h50v-55zM1049 597h-222v54h222v-54zM793 745h-49v55h49v-55zM626 899h-45v55h45v-55zM1128 448h-301v54h301v-54z
M547 899h-50q0 24 -5 54h55v-54zM793 597h-49v54h49v-54zM710 745h-213q0 25 -5 55h218v-55zM458 899h-138v55h138v-55zM710 597h-213v54h213v-54zM793 448h-133v54h133v-54zM458 745h-138v55h138v-55zM626 448h-129v54h129v-54zM291 745h-55v55h55v-55zM449 597h-138v54
h138v-54z" />
  </g>

</svg>
