<?xml version="1.0" standalone="no"?>
<!DOCTYPE svg PUBLIC "-//W3C//DTD SVG 1.1//EN" "http://www.w3.org/Graphics/SVG/1.1/DTD/svg11.dtd" >
<svg viewBox="0 -442 2048 2048">
  <g transform="matrix(1 0 0 -1 0 1606)">
   <path fill="currentColor"
d="M1986 1381l-278 -176q-15 15 -46 69l279 179zM2040 891h-314v85h314v-85zM1986 485l-42 -72l-282 173q9 20 43 75zM460 1277q-14 -24 -43 -72l-281 176l42 72zM1611 917q0 -97 -30 -175q-10 -26 -79 -159q-96 -186 -103 -295q0 -32 -5 -96q-4 -21 -22.5 -57.5
t-19.5 -48.5q2 -17 -10 -53q8 -28 8 -31q0 -6 -4.5 -16.5t-4.5 -15.5t2.5 -14.5t2.5 -14.5q0 -52 -6 -92q-7 -45 -52 -80q-17 -13 -84 -51q-12 -7 -36 -22q-11 -2 -32 -9q-5 -6 -19 -14q-4 -1 -56 -1t-56 1q-6 5 -19 14q-11 2 -32 9l-57 36q-28 14 -55 29t-47 42
q-15 20 -15 75q0 5 -2 15t-2 15q0 6 2 18t2 18t-4 18.5t-4 19.5t2.5 21t2.5 21q0 33 -10 73q-7 11 -20 34q-15 33 -19 61q-1 69 -24 200q-29 81 -70 163q-84 166 -87 172q-36 88 -36 190q0 239 158 377q150 131 392 131q243 0 392 -131q158 -138 158 -377zM396 891h-314v85
h314v-85zM460 590l-279 -177l-45 69l281 179q15 -23 43 -71zM1538 927q0 208 -137 326q-129 111 -340 111t-340 -111q-137 -118 -137 -326q0 -90 32 -165q8 -20 78 -147q51 -93 80 -172q26 -70 26 -225q0 -15 12 -40q12 -28 24 -34q36 -20 225 -20q182 0 225 20
q36 17 36 157q0 -16 5 38q10 111 114 295q97 173 97 293zM1277 105h-11q-32 0 -101.5 -5t-103.5 -5t-103 5t-103 5h-10v-36q0 -5 11 -21t11 -25q0 -6 -9.5 -13t-9.5 -12q0 -4 9.5 -15.5t9.5 -17.5q0 -5 -8 -16.5t-8 -16.5t8 -15t8 -14q0 -5 -6.5 -15.5t-6.5 -14.5
q0 -9 56 -48q51 -36 69 -43q15 -2 30 -5q20 -3 21 -14q11 -1 31 -1q19 0 30 1q10 12 38 15q7 0 14 4q90 49 120 78q5 5 5 22q0 5 -6.5 17t-6.5 17t8 16.5t8 16.5t-8 18t-8 17t9 16.5t10 17.5q-6 5 -19 16v5q-1 14 10.5 29.5t11.5 36.5z" />
  </g>

</svg>
