<?xml version="1.0" standalone="no"?>
<!DOCTYPE svg PUBLIC "-//W3C//DTD SVG 1.1//EN" "http://www.w3.org/Graphics/SVG/1.1/DTD/svg11.dtd" >
<svg viewBox="0 -442 2048 2048">
  <g transform="matrix(1 0 0 -1 0 1606)">
   <path fill="currentColor"
d="M1910 589q0 -150 -107.5 -256.5t-258.5 -106.5q-7 0 -77 7q76 -40 125 -112q53 -77 53 -159q0 -134 -105 -210q-93 -69 -232 -69q-55 0 -102 10q-20 7 -59 20q-28 7 -49 20q-38 24 -76 69q-45 54 -45 90q0 53 58 53q27 0 52 -41q32 -53 43 -62q79 -62 184 -62
q94 0 155 45q67 51 67 142q0 26 -20 91q-32 104 -183 174q-15 5 -43 16q-35 14 -35 49q0 44 55 44q-4 0 76.5 -17t141.5 -17q108 0 190.5 87.5t82.5 196.5q0 103 -80 192q-83 92 -184 92q-70 0 -140 -16q-84 -19 -87 -19q-55 0 -55 42q0 21 11 33q47 21 121 57
q61 35 105 105t44 138q0 91 -67 140q-59 44 -153 44q-144 0 -213 -90q-8 -20 -31 -56q-14 -16 -37 -16q-58 0 -58 51q0 23 27 66q92 145 306 145q138 0 231 -71q104 -79 104 -212q0 -79 -54 -157q-51 -74 -124 -111q12 0 37 4t38 4q151 0 259.5 -108t108.5 -259zM912 861
q0 -52 -46 -52h-739q-17 0 -31 17t-14 35q0 54 55 54h723q52 0 52 -54zM912 311q0 -51 -46 -51h-739q-17 0 -31 16.5t-14 34.5q0 55 55 55h723q52 0 52 -55z" />
  </g>

</svg>
