<?xml version="1.0" standalone="no"?>
<!DOCTYPE svg PUBLIC "-//W3C//DTD SVG 1.1//EN" "http://www.w3.org/Graphics/SVG/1.1/DTD/svg11.dtd" >
<svg viewBox="0 -442 2048 2048">
  <g transform="matrix(1 0 0 -1 0 1606)">
   <path fill="currentColor"
d="M1538 1281q1 -12 -16 -25q-12 -9 -82 -17q-158 -17 -131 -17q-46 0 -46 44q0 28 57 34q40 3 79 5q-153 92 -314 92q-124 0 -237 -43q-124 -47 -121 -47q-34 0 -34 37q0 41 100 79q78 30 139 36q138 14 162 14q118 0 329 -92h4q-52 92 -52 102q0 35 44 35q24 0 36.5 -22.5
t46.5 -103.5q35 -87 36 -102v-9zM1940 1170l-312 -630h227v-157h-289v-114h289v-155h-289v-190h-169v189h-290v154h289v114h-289v160h229l-314 629h198l259 -537l256 537h205zM786 331q0 -138 -78.5 -227.5t-215.5 -102.5l-5 -4v-118h-120v111q-73 9 -145 17
q-103 15 -136 29q-5 2 -4 16l13 197q27 -19 131 -41q98 -22 140 -22v369q-144 65 -204 128q-80 84 -80 219q0 45 19 111q21 72 105 126q78 49 158 53q3 1 3 8v118h120v-124l222 -36v-205q-103 43 -221 43v-279q32 -17 95 -50q203 -105 203 -336zM1448 -172q0 -65 -171 -102
q-122 -26 -228 -26q-135 0 -329 90h-4q49 -95 49 -102q0 -33 -42 -33q-20 0 -36 19q-8 9 -46.5 104t-38.5 106q0 28 31 38q15 5 98.5 17t102.5 12q43 0 43 -41q0 -35 -64 -38q-68 -4 -69 -5q0 -2 2 -3q155 -89 310 -89q120 0 227 39l68 30q52 22 65 22q32 0 32 -38zM366 775
v220h-22q-37 0 -71 -28q-27 -22 -27 -61q0 -75 120 -131zM620 339q0 98 -132 155v-289q132 26 132 134z" />
  </g>

</svg>
