<?xml version="1.0" standalone="no"?>
<!DOCTYPE svg PUBLIC "-//W3C//DTD SVG 1.1//EN" "http://www.w3.org/Graphics/SVG/1.1/DTD/svg11.dtd" >
<svg viewBox="0 -442 2048 2048">
  <g transform="matrix(1 0 0 -1 0 1606)">
   <path fill="currentColor"
d="M1964 191q0 -307 -411 -446q-280 -95 -669 -95q-472 0 -693 263q-109 130 -109 310q0 221 180 423q123 139 367 298q-1 0 -2 1l-2 -1q-179 -41 -349 -41q-118 0 -118 65q0 63 118 97q84 24 171 24q109 0 264 -41h3q-39 37 -106 69q-57 27 -115 53q-35 19 -44 27
q-25 23 -25 57q0 53 77 126q69 66 126 87q28 10 72 10q23 0 36 -8q19 -11 27 -13q143 76 235 76q64 0 101 -102q19 -59 37 -118q59 10 132 76q68 62 91 62q44 0 44 -71q0 -186 -119 -319q35 -28 100 -74q581 -412 581 -795zM1069 1297q0 25 -19 79q-21 61 -39 61
q-21 0 -62.5 -75t-41.5 -100q0 -29 49 -29q26 0 67 20q46 22 46 44zM1346 1373q-244 -189 -372 -189q-104 0 -104 79q0 53 43 114q40 48 79 97h-10q-9 0 -54 -12q-208 -54 -372 -196q-22 -19 -34 -41q26 -19 149 -85q95 -51 137 -99l5 -12q16 -16 74 -16q338 0 427 221
q19 48 32 139zM727 1411q-23 17 -29 17q-40 0 -117 -63q-80 -64 -75 -102q42 36 108 78q112 69 113 70zM812 794q0 62 -26 127q-78 -145 -78 -206q0 -69 32 -69q29 0 52 61q20 51 20 87zM665 999q-131 32 -259 32q-42 0 -107 -16q-83 -20 -83 -48q0 -15 44 -15q105 0 340 34
q22 5 65 13zM1891 209q0 89 -26 170q-52 164 -271 355q-42 36 -365 279q-34 -13 -104 -33q-105 -23 -282 -23q33 -105 33 -172q0 -69 -36 -129q-42 -71 -106 -71q-46 0 -76 41q-26 36 -26 84q0 72 65 189q-539 -280 -539 -673q0 -264 257 -392q198 -99 492 -99
q984 0 984 474zM1616 217q0 -79 -64 -128q-40 -30 -134 -63q0 -16 1 -46t1 -43l-85 -12q0 11 -2.5 32.5t-2.5 33t-7 18.5q-61 6 -123 11q-64 10 -113 50q24 37 63 81q33 -34 102 -43q33 -1 66 -3q1 1 1 5q0 39 -34 185q-105 15 -148 35q-80 37 -80 116q0 59 54 110
q45 43 108 63q3 1 6 4q-9 32 -28 94q24 4 73 14q11 -32 34 -97q90 -7 156 -47q-10 -23 -32 -69q-36 -1 -98 18q-1 -1 -1 -5q0 -6 36 -148q83 -18 167 -36q84 -33 84 -130zM1270 396l-28 134q-69 -18 -69 -75q0 -17 7 -31q3 -6 37 -17t43 -11h10zM1503 203q0 47 -44 62
q-40 8 -81 17l21 -158h11q32 0 62.5 24t30.5 55z" />
  </g>

</svg>
