<?xml version="1.0" standalone="no"?>
<!DOCTYPE svg PUBLIC "-//W3C//DTD SVG 1.1//EN" "http://www.w3.org/Graphics/SVG/1.1/DTD/svg11.dtd" >
<svg viewBox="0 -442 2048 2048">
  <g transform="matrix(1 0 0 -1 0 1606)">
   <path fill="currentColor"
d="M1952 0h-1856v1336h1856v-1336zM1862 90v1156h-570q130 -90 208 -252q74 -155 74 -318q0 -164 -76 -325q-80 -168 -212 -261h576zM1489 676q0 218 -131 390q-139 180 -334 180q-197 0 -334 -179q-131 -169 -131 -389q0 -226 130 -401q137 -187 335 -187q192 0 332 188
q133 179 133 398zM757 90q-131 92 -209 260q-74 160 -74 328q0 164 73 318q77 161 206 250h-567v-1156h571zM1287 536q0 -82 -66 -125q-57 -36 -143 -35v-57h-91v53q-96 0 -197 27l6 91q171 -25 190 -25v175q-117 43 -132 52q-66 40 -66 116q0 115 195 136v57h92v-53
q87 -2 163 -20l-9 -102q-69 18 -154 24v-131q100 -23 144 -53q68 -45 68 -130zM986 746v103q-93 -1 -93 -43q0 -46 93 -60zM1185 539q0 32 -41 50q-35 11 -69 22v-140q110 0 110 68z" />
  </g>

</svg>
