<?xml version="1.0" standalone="no"?>
<!DOCTYPE svg PUBLIC "-//W3C//DTD SVG 1.1//EN" "http://www.w3.org/Graphics/SVG/1.1/DTD/svg11.dtd" >
<svg viewBox="0 -442 2048 2048">
  <g transform="matrix(1 0 0 -1 0 1606)">
   <path fill="currentColor"
d="M1948 241q0 -401 -792 -428v-158h-319v152q-3 -2 -8 -2q-380 0 -740 56l30 278q157 -36 461 -67q175 -18 234 -18h22v480q-74 17 -220 50q-534 124 -534 415q0 284 543 346q33 4 210 14v164h319v-161q201 -12 603 -51l-19 -260h-13q19 0 -118 23q-23 4 -153 17
q-142 15 -193 15h-106v-365q19 -6 304 -79q227 -58 330 -127q159 -106 159 -294zM1575 251q0 89 -173 142q-123 31 -247 61v-381q43 5 117 15q303 40 303 163zM836 818v290h-19q-104 0 -202 -22q-142 -33 -142 -96q0 -62 119 -108q35 -13 123 -38q98 -27 121 -26z" />
  </g>

</svg>
