<?xml version="1.0" standalone="no"?>
<!DOCTYPE svg PUBLIC "-//W3C//DTD SVG 1.1//EN" "http://www.w3.org/Graphics/SVG/1.1/DTD/svg11.dtd" >
<svg viewBox="0 -442 2050 2048">
  <g transform="matrix(1 0 0 -1 0 1606)">
   <path fill="currentColor"
d="M1852 417q0 -30 -45 -56q-41 -24 -73 -24q-25 0 -52.5 22.5t-27.5 46.5q0 9 9 21.5t18 12.5q11 0 27 -18t34 -18q20 0 47 22.5t39 22.5q24 0 24 -32zM1791 285q0 -18 -29.5 -47t-47.5 -29q-118 0 -118 101q0 5 7 27h21q11 -21 23 -42q16 -28 34 -28q5 0 43 22.5t43 22.5
q24 0 24 -27zM2050 816q0 1 -12 -37q-14 -43 -65 -88q-45 -40 -93 -59q7 -21 7 -30q0 -41 -28 -53q-17 -7 -65 -7q-26 0 -43 22q-2 -11 -9 -31q-14 -23 -44 -23q-32 0 -55 19q-9 -18 -18 -37q-7 -8 -37 -8q-7 0 -29 23q-8 -9 -21 -22q-7 -1 -30 -1q-2 0 -35 32
q-38 -29 -43 -29q-23 0 -31 26q-4 23 -8 45q-15 6 -55 19l-4 -5q0 -55 -9 -148q-21 -10 -24 -31t-5 -41q-24 -236 -34 -372l-519 67l-74 204l96 349q-7 6 -41 16t-57 31l-23 -40q-12 -21 -38 -21q-22 0 -29 16q-10 -13 -60 -13q-23 0 -35 21t-18 21t-16.5 -1.5t-16.5 -1.5
q-57 0 -56 64l-46 4t-42 25q-7 9 -7 23q0 6 1 18.5t1 19.5q-98 28 -129 46q-69 39 -69 108q0 78 71 78q14 0 43.5 -4.5t43.5 -4.5q41 0 132 117q17 37 50 102q53 88 99 88q64 0 77 -56q1 -39 6 -118q7 -86 35 -134q21 -36 70 -65.5t89 -26.5l16 361h46q6 0 141 -8l294 -16
q63 -156 94 -244l-17 -97h4q102 55 158 243q6 42 28 124q16 40 79 40q51 0 104 -71q8 -25 21 -61q22 -66 77 -195q34 -66 62 -85q7 -4 91 -26q54 -14 54 -61zM351 577q0 -9 -20.5 -31.5t-29.5 -22.5q-43 0 -74 49q-27 43 -27 88q0 41 23 41q11 0 22.5 -55.5t47.5 -55.5
q7 0 21 6t21 6q16 0 16 -25zM351 433q0 -9 -59 -67q-27 15 -78 46q-34 23 -42 70v5q-4 48 19 48q11 0 39.5 -43t54.5 -43q7 0 21 6.5t21 6.5q6 0 15 -11.5t9 -17.5zM2015 804q0 15 -8 21q-72 2 -107 14.5t-87 97.5q-44 72 -60 121q-5 21 -18 61q-57 140 -84 140
q-21 -2 -25 -3q-7 -9 -16 -26q-76 -321 -220 -380q-15 -6 -32 -18q-21 -177 -21 -185q0 -27 37 -39q53 -17 56 -20q-9 -23 -9 -40q0 -13 6 -22h22q19 23 37 60q4 -23 32 -63q18 13 24.5 32t13.5 38l16 -36q11 -25 26 -25q19 0 25 30q8 41 10 44q31 -55 56 -55q24 0 29 13
q1 3 1 34q0 16 4 30q21 -18 42.5 -34.5t49.5 -16.5q20 0 37 13v31q-32 17 -42 37q46 11 134 48q71 45 71 98zM1357 1002q-1 5 -28 76l-48 -176l28 210q-8 19 -24 56l-40 -361l66 -131zM1260 1190l-407 25l-17 -382l386 -26zM1312 606l-72 147l-17 -148l75 -156zM1216 768
l-383 29l-25 -159l392 -26zM1274 429q-6 15 -57 126l-58 -355q7 -20 24 -57l32 141l-18 -172q0 -4 12 -27q14 -26 15 -29zM804 851q-87 13 -148 40q-22 10 -40 43q-39 71 -52 153q-2 8 -17 159l-6 5q-47 -14 -93 -93q-40 -69 -79 -137q-52 -70 -117 -70q-14 0 -42 4.5
t-42 4.5q-38 0 -38 -33q0 -19 13 -33q18 -19 67.5 -45t72.5 -26q11 0 33.5 2.5t33.5 2.5q9 0 17 -1q-48 -32 -48 -74q0 -36 33 -36q27 0 73 30q-17 -42 -17 -46q0 -41 30 -41q12 0 36 13q35 18 37 19v-7q-6 -5 -6 -20q0 -53 34 -53q11 0 25 18q20 26 21 27q5 -26 13 -26
q31 0 45 31q17 40 22 43q50 -45 90 -45q15 0 23 4zM1193 573l-388 26l-80 -331l414 -61zM1216 28q-10 24 -23 40q-53 6 -159 22l150 2q-5 10 -14 30q-50 5 -149 16v3h137q-2 9 -14 32q-45 7 -429 55q9 -29 30 -72q59 -8 174 -31l-159 -2q1 -3 14 -34q114 -14 341 -47
q34 -4 101 -14zM1606 967q0 -4 -33 -83q-65 -71 -84 -71h-33q-4 19 -4 15q0 22 74 59q23 30 72 89q8 -4 8 -9zM625 853q0 -12 -10 -16l-20 -8q-75 105 -75 150q0 17 4 29h11q8 -22 27 -65q3 -6 35 -47q28 -36 28 -43z" />
  </g>

</svg>
