<?xml version="1.0" standalone="no"?>
<!DOCTYPE svg PUBLIC "-//W3C//DTD SVG 1.1//EN" "http://www.w3.org/Graphics/SVG/1.1/DTD/svg11.dtd" >
<svg viewBox="0 -442 2122 2048">
  <g transform="matrix(1 0 0 -1 0 1606)">
   <path fill="currentColor"
d="M2122 -228q-15 -17 -22 -17h-186q-40 0 -61 28q-14 19 -56 101q-45 87 -45 101q0 20 19.5 45.5t38.5 29.5q14 3 115 3q19 0 29 -3q24 -7 96 -80.5t72 -92.5v-115zM1692 405h-670q12 -107 12 -111q0 -11 10 -18q20 -4 341 -68v-53l-203 -20l-102 -10h-276l-102 10l-203 20
l1 25l-1 28l340 70q17 90 17 130h-665v1000h1501v-1003zM1799 -253q-5 -23 -14 -69h-1689q-6 17 -14 65l151 322h1415zM1949 -12v29q0 7 -18 30q-4 1 -13.5 4.5t-13.5 3.5q1 0 -32 -11q13 -19 41 -56h36zM1585 525v790h-1289v-790h1289zM1672 -161l-71 165h-1318l-74 -165
h1463z" />
  </g>

</svg>
