<?xml version="1.0" standalone="no"?>
<!DOCTYPE svg PUBLIC "-//W3C//DTD SVG 1.1//EN" "http://www.w3.org/Graphics/SVG/1.1/DTD/svg11.dtd" >
<svg viewBox="0 -442 2048 2048">
  <g transform="matrix(1 0 0 -1 0 1606)">
   <path fill="currentColor"
d="M1845 1516q-11 -12 -34 -36h-118v-118q-12 -11 -36 -34v152h-222v-228h148q-6 -20 -19 -37h-129v-223q7 -4 20 -3q-1 -2 -44 -97q-17 46 -16 59q-14 1 -34 38h33v226h-148q-2 8 -16 36h164v229h-226v-113q-37 71 -32 112h-231v-227h139q-2 -4 -19 -37h-121v-224
q0 1 -35 -81v40l-99 -259h-127v-225h60l-9 -36h-51v-164q-14 -46 -36 -120v18h-110q-12 13 -37 39h145v227h-224v-141q-16 10 -37 31v109h-226v-225h140q-11 -24 -15 -39h-124v-224q7 -4 24 -3q-4 -12 -8 -23q-7 -16 -16 -15v-5q1 -19 -13 -49q-11 -23 -23 -47v1717h1762z
M1958 1435q-67 -59 -135 -118q-79 -71 -120 -132q-73 -110 -153 -293l-132 -304l-284 542q-58 -104 -115 -208q-68 -125 -102 -215q-67 -180 -143 -449q-63 -226 -127 -453l-289 301l-195 -465h-81v83l248 574l266 -277q5 1 6 5q23 71 102 365q61 225 116 360
q52 127 151 312q148 277 163 307l277 -536q3 6 93 210q55 126 108 201q46 65 132 142q72 65 145 129h69v-81zM1957 -359h-1768q4 12 12 35h142v226h-45q14 38 32 38q5 0 11 -1q2 9 6 60q2 35 19 60q5 -3 14 -12v-109h103q11 -11 31 -35h-133v-226h225v131q12 -12 36 -35v-96
h225v225h-163q3 12 12 36h151v225h-81q4 25 9 40h72v154v77q16 55 36 123v-91h232v225h-191q4 12 13 36h178v226h-60q0 1 19 35q7 1 39 1q4 32 4 80q15 -25 33 -77l7 -4q7 -14 16 -34h-23v-227h142q3 -4 18 -35h-160v-226h225v94q7 -11 23 -33q5 9 16 27v-88h222v225h-161
q5 9 19 36h142v224q-11 3 -36 3q6 12 13.5 25.5t20.5 9.5q1 4 1 25q0 15 15 44l22 44v-112h226v225h-145q8 13 31 36h115v109l38 38v-1757zM1918 728v225h-224v-225h224zM1918 466v225h-224v-225h224zM1918 204v225h-224v-225h224zM1656 204v225h-221v-225h221zM1918 -61
v225h-224v-225h224zM1394 204v225h-223v-225h223zM1656 -61v225h-221v-225h221zM1918 -323v225h-224v-225h224zM807 1480h-140l-185 -308l-175 308h-137l217 -358h-162v-97h204v-78h-204v-92h205v-127h116v128h202v92h-203v79h203v95h-155zM1135 204v225h-230v-225h230z
M1656 -323v225h-221v-225h221zM1394 -61v225h-224v-225h224zM1394 -323v225h-223v-225h223zM605 466v225h-224v-225h224zM1135 -61v225h-230v-225h230zM343 466v225h-224v-225h224zM1135 -323v225h-230v-225h230z" />
  </g>

</svg>
