<?xml version="1.0" standalone="no"?>
<!DOCTYPE svg PUBLIC "-//W3C//DTD SVG 1.1//EN" "http://www.w3.org/Graphics/SVG/1.1/DTD/svg11.dtd" >
<svg viewBox="0 -442 2048 2048">
  <g transform="matrix(1 0 0 -1 0 1606)">
   <path fill="currentColor"
d="M1876 -323q0 -7 -18 -21.5t-24 -14.5h-1661q-2 0 -44 17q-18 7 -33 42q-14 32 -14 54v1683q0 45 30.5 76t76.5 31h1639q13 0 30.5 -11.5t17.5 -24.5v-1831zM1851 1466v36q-11 17 -32 17h-9q-53 0 -48 -1v-20q9 1 17 1h11h19q12 -1 18 -1q5 -13 24 -32zM1848 1244
q0 10 -19 20.5t-30 10.5q-37 0 -37 -51q0 -12 26 -29q8 9 25 24q8 -6 25 -15zM1851 -213v601q-7 -3 -18 -10v-578q13 -13 18 -13zM702 1501v18h-501q-25 0 -56 -14q-11 -5 -23 -27t-12 -35v-202h15v208q15 18 46 52h531zM1830 -250v7q0 17 -22 17q-34 0 -34 -38q0 -3 2 -7.5
t2 -6.5h32q20 14 20 28zM1833 532q0 10 -1 16q-8 7 -8 12v109q0 19 -15 82t-24 84q-14 22 -35 65q-1 12 -5 34q-8 9 -23 28q-113 192 -298 306q-22 12 -65 35q-6 5 -18 14q-32 12 -93 35l-8 -562h-5q-10 1 -23 -4q99 -118 99 -249q0 -118 -44 -174q-5 -4 -14 -12
q-12 -16 -38 -46q-83 -80 -256 -83h-26q-10 -1 -53 11q-83 22 -149 93q-54 58 -74 154q-2 10 -2 24q0 142 79 256q13 19 30 29q-15 0 -30 4v562l-16 -13v-558h-19l-18 18v531q-309 -119 -443 -405q-7 -10 -19 -31q-63 -159 -63 -249q0 -4 6 -7t6 -7q0 -5 -4 -13t-5 -11
q-6 -30 -6 -85q0 -25 8 -63q11 -53 12 -63q5 -68 21 -158q13 -22 37 -66q14 -31 46 -91q16 -17 45 -53q63 -98 162 -169q16 -7 46 -24q77 -50 158 -86q17 -9 53 -23q86 -20 141 -20q7 0 21 6.5t21 6.5h206q4 0 23 9.5t24 10.5q36 11 108 34q169 52 266 135q27 34 87 97
q39 35 95 139q49 91 71 156q15 44 18 109q-1 17 2 49q9 48 9 71zM1225 473q0 141 -17 168q-90 137 -231 137q-64 0 -135 -48q-18 -19 -58 -51q-11 -4 -28 -16q-17 -26 -17 -78q0 -125 8 -143q23 -53 77 -95q46 -36 75 -45t88 -9h13q9 -1 14 -1q63 0 126 53q58 49 83 112
q2 6 2 16zM1851 -292q0 8 -1 17q-20 -28 -28 -28h-1642q-52 48 -52 66v1440l-14 13l-4 -1462q0 -85 94 -85h1627q20 0 20 39zM246 1229q0 37 -78 37q-37 0 -37 -42q0 -36 59 -36q56 0 56 41zM1172 555q0 -124 -81 -170q-21 -12 -19 -12q-7 0 -20 14v14q14 -1 57 52
q4 5 15 47.5t11 51.5q0 52 -10 75q-11 27 -48.5 48.5t-112.5 21.5q-29 0 -59.5 -16.5t-58.5 -32.5q-6 8 -20 23q51 41 90 54q35 11 101 11q29 0 65.5 -19t50.5 -42q1 -7 3 -19q7 -9 19 -27q17 -35 17 -74zM1064 546q0 -27 -21.5 -50.5t-48.5 -23.5q-44 0 -57 9
q-18 13 -18 57q0 70 54 70q20 0 29 -15q-2 0 -13 -9q-46 0 -46 -30q0 -57 55 -57q11 0 25 18t14 30q0 3 -7 38h18q16 -17 16 -37z" />
  </g>

</svg>
