<?xml version="1.0" standalone="no"?>
<!DOCTYPE svg PUBLIC "-//W3C//DTD SVG 1.1//EN" "http://www.w3.org/Graphics/SVG/1.1/DTD/svg11.dtd" >
<svg viewBox="0 -442 2048 2048">
  <g transform="matrix(1 0 0 -1 0 1606)">
   <path fill="currentColor"
d="M1950 -1q0 -40 -42 -84t-81 -44h-1622q-41 0 -82 44t-41 85v955q0 43 43 86t86 43h1610q42 0 85.5 -43t43.5 -85v-957zM1871 921v44q0 14 -20.5 33t-35.5 19h-1595q-16 0 -37.5 -19t-21.5 -34v-43h1710zM1871 8v678h-1710v-671q0 -14 19.5 -35.5t33.5 -21.5h1604
q11 0 32 19.5t21 30.5zM1826 970l-54 -37v72q15 -9 54 -35zM1747 970q-30 -18 -54 -34v69q15 -9 54 -35zM1820 11h-373v308h373v-308zM1820 378h-1608v241h1608v-241zM1792 35v257h-319v-257h319zM1792 405v187h-1552v-187h1552zM1359 458q-8 -8 -23 -8q-5 0 -13.5 3
t-13.5 3q-13 0 -41 -10.5t-41 -10.5q-9 0 -23 7l3 33l-1 2q-30 0 -71 -21t-80 -21q-14 0 -33 7.5t-20 7.5q-11 0 -40 2q-25 1 -40 1l-18 -10.5t-32 -10.5q-23 0 -30 22.5t-29 22.5q-27 0 -54 -17q-39 -25 -48 -28l-23 4q33 22 88 61l-2 2q-37 0 -82 -32t-70 -32q-1 3 -1 6
q0 9 4 16q-104 -13 -82 -13q-21 0 -28 13q2 11 25 26.5t35 15.5q10 0 16 -11q0 -11 -10 -11q-3 0 -8 3t-8 3q-8 0 -28 -20q4 -7 15 -7q16 0 64 20q11 3 31 11q7 4 52 50q39 40 55 40h19q3 -15 3 -10q0 -20 -49 -53q-35 -22 -69 -44l3 -1q29 14 57 28q36 17 60 17q7 0 16 -4
q1 -2 1 -4q0 -3 -1.5 -8.5t-1.5 -8.5l3 -3q3 0 9 1.5t9 1.5q26 0 40 -21t26 -21q14 0 40 32q0 1 -9 8v20q4 10 15 10q18 0 18 -18q0 -15 -15 -35q25 -5 44 -5q5 0 15 2t15 2l4 4q5 31 37.5 60t63.5 29q42 0 42 -33q0 -20 -50 -42q-34 -14 -68 -27q4 -5 16 -5q29 0 78.5 20
t77.5 20q25 0 25 -14q0 -7 -6 -23q2 -2 8 -2q13 0 39 10.5t38 10.5q2 0 14.5 -5.5t29.5 -5.5q5 -1 8 -2zM1128 523q0 21 -18 21q-14 0 -49.5 -26t-35.5 -40v-9q103 23 103 54zM753 553l-3 4l-29 -22l3 -4z" />
  </g>

</svg>
