<?xml version="1.0" standalone="no"?>
<!DOCTYPE svg PUBLIC "-//W3C//DTD SVG 1.1//EN" "http://www.w3.org/Graphics/SVG/1.1/DTD/svg11.dtd" >
<svg viewBox="0 -442 2048 2048">
  <g transform="matrix(1 0 0 -1 0 1606)">
   <path fill="currentColor"
d="M2008 26q0 -25 -11 -62q-10 -33 -60 -67q-42 -30 -83 -41q-6 -23 -16 -47h-112q-1 1 -16 28q-12 22 -16 22q-2 0 -79 -8q-184 -20 -534 -51q-113 -12 -339 -31q-127 -9 -210 -17q-27 -2 -78 -9q-11 -2 -18 -24.5t-17 -22.5h-116q-5 5 -29 43q-46 0 -102 47q-46 38 -75 86
l-15 24v1168q0 30 17 58q33 54 93 72q38 11 120 11q4 10 19 56l239 12q17 1 27 -20l14 -36h109q13 45 42 134q9 35 19 72.5t35.5 58t48.5 20.5h435q9 0 35 -17q21 -62 49 -160q6 -27 22 -78q1 -2 6 -2q19 0 57.5 1.5t58.5 1.5q3 19 10 56h218q12 -30 22 -46h143q13 0 39 -14
q7 -4 27.5 -32t20.5 -34v-1152zM1321 1242v21q0 51 -35 95v-116h35zM1249 1243v114q0 20 -33 20h-285q-17 0 -39 -17v-130zM1296 1440l-10 9h-418q-32 0 -45 -36q-20 -55 -60 -189q5 -2 10 -2q17 0 30 33q9 23 17 47q10 39 41 110q17 28 39 28h396zM1954 -5v1139
q0 14 -13 36.5t-25 26.5q-30 9 -94 10q-84 2 -97 3q0 6 -2.5 17.5t-2.5 17.5q0 8 5 12h-131q-3 -19 -12 -56l-989 -37q-26 -1 -33 15l-18 44q-102 -6 -158 -13q-6 -34 -13 -52l-130 -4q-20 0 -58.5 -27.5t-42.5 -45t-4 -42.5v-1140q0 -26 38 -67t80 -39v1181q0 30 36 45
l6 -4q-22 -30 -22 -29v-1141q0 -16 13.5 -38.5t81.5 -22.5q2 0 121 10l1178 100q38 4 113 11q23 1 69 5q32 5 47 16q9 7 33 34.5t24 34.5z" />
  </g>

</svg>
