<?xml version="1.0" standalone="no"?>
<!DOCTYPE svg PUBLIC "-//W3C//DTD SVG 1.1//EN" "http://www.w3.org/Graphics/SVG/1.1/DTD/svg11.dtd" >
<svg viewBox="0 -442 2048 2048">
  <g transform="matrix(1 0 0 -1 0 1606)">
   <path fill="currentColor"
d="M1998 597q0 -403 -277.5 -680.5t-680.5 -277.5t-680.5 277.5t-277.5 680.5q0 404 277 680t681 276q405 0 681.5 -275.5t276.5 -680.5zM1886 934q-11 34 -37 77l-516 -228q6 -13 16 -39zM1781 1118q-129 184 -324 286t-419 102q-221 0 -419 -103q-202 -106 -320 -288
l494 -269q110 112 247 112q143 0 247 -112zM1886 288l-537 191q-5 -13 -13 -39l518 -228q14 28 32 76zM1336 611q0 127 -85 217t-211 90q-127 0 -211.5 -89.5t-84.5 -217.5q0 -127 84.5 -215t211.5 -88q126 0 211 88t85 215zM747 783l-522 228q-9 -17 -31 -77l537 -190
q4 14 16 39zM1781 111l-494 265q-110 -112 -247 -112t-247 112l-494 -268q120 -181 320 -286t419 -105q223 0 422.5 105t320.5 289zM744 440q-5 13 -13 39l-537 -191q10 -33 35 -76zM1301 611q0 -111 -75 -187t-186 -76t-186 76t-75 187q0 109 75 187.5t184 78.5
q110 0 186.5 -77.5t76.5 -188.5zM1280 611q0 99 -70.5 173.5t-169.5 74.5t-169.5 -74.5t-70.5 -173.5q0 -98 71.5 -174t168.5 -76t168.5 76t71.5 174zM1155 611q0 -123 -115 -123t-115 123q0 52 31.5 89t83.5 37q53 0 84 -36t31 -90zM1133 607q0 43 -25.5 72.5t-67.5 29.5
t-67.5 -30t-25.5 -72q0 -43 25.5 -73t67.5 -30q93 0 93 103z" />
  </g>

</svg>
