<?xml version="1.0" standalone="no"?>
<!DOCTYPE svg PUBLIC "-//W3C//DTD SVG 1.1//EN" "http://www.w3.org/Graphics/SVG/1.1/DTD/svg11.dtd" >
<svg viewBox="0 -442 2048 2048">
  <g transform="matrix(1 0 0 -1 0 1606)">
   <path fill="currentColor"
d="M1952 0h-1856v1336h1856v-1336zM1862 90v1156h-1676v-1156h1676zM995 278q-44 -75 -160 -75q-47 0 -135.5 26t-135.5 26q-48 0 -110 -46l-56 82q78 86 98 114q53 75 53 136q0 48 -37 99h-126v73h91q-59 113 -59 179q0 118 85 197t204 79q131 0 199 -87q62 -79 62 -214
h-103q1 202 -165 202q-74 0 -122.5 -47.5t-48.5 -120.5q0 -54 71 -188h190v-73h-156q14 -51 14 -90q0 -53 -41 -117q-11 -17 -78 -101q12 2 59 17q36 11 60 11q35 0 101.5 -23t101.5 -23q33 0 88 39q5 -6 56 -75z" />
  </g>

</svg>
