<?xml version="1.0" standalone="no"?>
<!DOCTYPE svg PUBLIC "-//W3C//DTD SVG 1.1//EN" "http://www.w3.org/Graphics/SVG/1.1/DTD/svg11.dtd" >
<svg viewBox="0 -442 2048 2048">
  <g transform="matrix(1 0 0 -1 0 1606)">
   <path fill="currentColor"
d="M1640 1383q0 -7 -16 -92l-87 -467l-216 -1158q-29 -25 -37 -25h-924q-42 31 -85 62q-66 50 -66 66v174q-14 0 -42 4q-9 2 -47 33t-38 38q0 26 3.5 77t3.5 75q17 14 52 42q-25 56 -25 63q0 -11 13 110q70 53 78 53h805l169 516q-20 32 -40 63q-21 37 -21 71q0 10 70 186
q70 173 84 201q21 41 39 51.5t57 10.5q10 0 113 -29t113 -34q44 -24 44 -91zM1467 1444q-66 32 -78 32q-27 0 -53 -32q-20 -47 -51 -123q-4 -10 -69 -160q-23 -53 -23 -69q0 -72 119 -84q20 19 35 69l22 78zM1550 1326v78q-18 13 -42 25q-35 -108 -108 -322
q-13 -46 -49 -128q-10 -16 -39 -18q-24 -2 -47 -3l-145 -500q5 -20 22 -56q18 -27 18 -34q0 -68 -12 -95.5t-64 -77.5h-861q-6 0 -54 -31v-116q67 -25 60 -25h996q18 0 47 18.5t37 34.5q24 48 42 167l26 178l117 613q12 66 38 198q18 88 18 94zM1073 292v81h-844
q-9 0 -53 -37q-4 -47 -4 -48q12 -8 28 -25h838q7 0 21 11t14 18z" />
  </g>

</svg>
