<?xml version="1.0" standalone="no"?>
<!DOCTYPE svg PUBLIC "-//W3C//DTD SVG 1.1//EN" "http://www.w3.org/Graphics/SVG/1.1/DTD/svg11.dtd" >
<svg viewBox="0 -442 2048 2048">
  <g transform="matrix(1 0 0 -1 0 1606)">
   <path fill="currentColor"
d="M1952 0h-1856v1336h1856v-1336zM1862 90v1156h-1676v-1156h1676zM1307 1030l-39 -84q-132 158 -337 158q-140 0 -254.5 -82t-159.5 -214h685l-40 -85h-664q-5 -36 -5 -57q0 -20 5 -56h612l-41 -85h-552q45 -132 159.5 -214t254.5 -82q202 0 333 152v-118
q-146 -120 -333 -120q-175 0 -315 106.5t-188 275.5h-162l41 85h105q-3 28 -3 56q0 29 3 57h-146l41 85h121q48 169 188 275.5t315 106.5q221 0 376 -160z" />
  </g>

</svg>
