<?xml version="1.0" standalone="no"?>
<!DOCTYPE svg PUBLIC "-//W3C//DTD SVG 1.1//EN" "http://www.w3.org/Graphics/SVG/1.1/DTD/svg11.dtd" >
<svg viewBox="0 -442 2048 2048">
  <g transform="matrix(1 0 0 -1 0 1606)">
   <path fill="currentColor"
d="M1958 1150q0 -38 -29 -102q-26 -58 -54 -92q-83 -102 -221 -234l-234 -222q-100 -98 -343 -349q-205 -212 -260 -265q-175 -167 -283 -225q-66 -35 -135 -35q-113 0 -213 84q-104 88 -104 199q0 128 97 239q38 44 257 256q164 162 495 484q64 63 195 186q20 20 62 54
q53 33 91 33q-4 0 25 -6q25 -5 49 -10.5t48 -22.5q131 -89 131 -244q0 -44 -57 -124q-40 -56 -115 -126l-126 -116q-164 -163 -468 -473l-63 70q221 217 654 660q39 41 50 68q16 39 16 91q0 38 -31 83q-34 48 -70 48q-4 0 -15 -1q-62 -6 -97 -32q-6 -5 -73 -73
q-192 -191 -575 -573q-77 -74 -155 -148q-94 -92 -138 -158.5t-55 -96.5q-13 -38 -13 -111q0 -23 21 -57q46 -75 183 -75q39 0 124 57q67 45 112 87q157 148 399 399q308 320 394 405q97 90 287 275q28 28 80 88q47 63 47 179q0 23 -3 37q-23 111 -110 154q-67 33 -192 33
q-67 0 -178 -113q-188 -191 -488 -478q-427 -409 -493 -473q-24 31 -57 64l654 657q85 85 257 254q38 38 117 111q45 39 91 56q56 21 187 21q38 0 121 -30q204 -73 204 -367z" />
  </g>

</svg>
