<?xml version="1.0" standalone="no"?>
<!DOCTYPE svg PUBLIC "-//W3C//DTD SVG 1.1//EN" "http://www.w3.org/Graphics/SVG/1.1/DTD/svg11.dtd" >
<svg viewBox="0 -442 2048 2048">
  <g transform="matrix(1 0 0 -1 0 1606)">
   <path fill="currentColor"
d="M1976 171q0 -76 -17 -121q-5 -5 -13 -16q-47 -78 -93 -100q-18 -3 -53 -14q-34 -15 -61 -15q-103 0 -309 82q-7 3 -49 28q-36 21 -46 21q-16 0 -65 -20q13 -66 13 -140q0 -38 -34 -100q-31 -56 -64 -86l-54 -33q-3 -4 -9 -11q-10 -1 -49 -9q-31 -7 -49 -7q-44 0 -157 45
q-116 48 -348 142q-68 27 -205 83q-37 16 -47 53q-4 15 -4 54q0 66 78 82q-5 9 -45 54l-28 44q-20 31 -33 32q-1 0 -5 -1q-27 53 -72 163q-18 57 -50 172q-4 31 -15 91q-1 3 -6 10.5t-5 12.5v168q0 89 35 235q14 34 39 100q10 31 43 85q96 99 228 159q26 12 89 23
q71 12 94 20l-18 57l220 41q10 -18 29 -53l269 32q4 0 21 -23q77 -114 235 -339q96 -4 149 -65q16 -19 38 -81q0 -20 8 -59q2 -6 36 -33q71 -55 207 -173v-266q19 -8 34 -34q22 -37 26 -41q20 -18 55 -59q35 -56 53 -129q4 -16 4 -61zM1470 1060q-34 51 -55 51h-10v-4
t29 -54q3 -1 14 -1q14 0 22 8zM1220 998q-15 15 -30 31q12 -33 22 -46q2 5 8 15zM1929 177q1 49 -16 104q-22 69 -58 80q14 -34 36 -105q1 -30 8 -91q4 -7 13 -7q8 0 17 10v9zM1348 1075l-264 402l-608 -113l295 -437l180 55q-44 24 -44 42q0 25 5 29.5t33 4.5q30 0 79 -59
l10 -1q23 -1 56 10q46 15 55 17l-28 28q-19 19 -19 32q0 23 28 23q22 0 50 -26q37 -34 48 -39zM1717 756l-333 281l-142 -39q15 -53 15 -73q0 -32 -33 -32q-25 0 -32 34q-10 49 -11 50l-117 -19q16 -40 16 -82q0 -5 -1 -10q-8 -11 -18 -11q-38 0 -47 23q-17 46 -23 54
q-8 2 -15 1l-166 -32l359 -290zM1029 949v15l-23 22h-14q1 -2 25 -37h12zM1858 124q0 4 -1 11v11q0 58 -42 138q-10 20 -19 40q-12 23 -28 31q-20 -17 -31 -40q-16 -32 -24 -42q-75 -103 -146 -149l-78 -34q41 -34 195 -74l19 -5q59 0 85 14q70 37 70 99zM1751 613
q0 -5 -10 104l-552 -144l-6 -132q-3 -78 -19 -131q-4 -29 -26 -72q13 -15 37 -45q60 -85 64 -113h13q16 0 136 35t134 44q136 87 194 240q4 18 14 54q5 6 11 19q10 37 10 141zM1154 575l-322 239v-19q0 -5 4.5 -11t4.5 -9v-127q0 9 -15 -45l280 -339q34 68 39 155
q7 146 9 156zM757 859q-18 65 -103 84l-144 -33q20 -14 60 -45q12 -15 38 -44zM1057 141l-307 323q-28 -4 -82 -16q-96 -27 -125 -27q-40 0 -59 4q-41 9 -86 50q-43 38 -61 79q-9 13 -23 41q-20 55 -20 106q0 64 45 174q10 24 70 57q25 13 112 31q83 17 117 17q10 0 25 -3.5
t22 -4.5l-251 387l-102 -68q-60 -42 -90 -83q-14 -19 -49 -100q-10 -20 -23 -60q-3 -58 -14 -172q-3 -11 -8 -32q-7 -63 -7 -109q0 -21 30 -132q27 -101 40 -137q32 -71 93 -213q12 -1 17 -10.5t15 -27.5q18 -22 51 -66q17 -28 77 -89q8 -6 10 -14q17 -17 90 -54
q16 -13 51 -33q57 -23 116 -23q89 0 166 34q28 12 75 46q28 31 85 125zM1223 -94v85q0 6 -6 13q-2 33 -32.5 84t-58.5 63l42 -94q20 -52 20 -100q0 -39 -1 -35q3 -20 22 -20q10 0 14 4zM1113 40l-32 68q-21 -32 -64 -96q32 9 96 28zM1132 -79q0 14 -7 56q-99 -32 -199 -64
q-121 -35 -203 -31q46 -20 138 -56q110 -40 141 -40q52 0 70 17q60 56 60 118zM1629 431l-196 -41q-15 17 -48 70l196 39q29 -35 48 -68zM1485 181l-196 -44q-8 22 -22 67l189 42q8 -16 29 -65z" />
  </g>

</svg>
