<?xml version="1.0" standalone="no"?>
<!DOCTYPE svg PUBLIC "-//W3C//DTD SVG 1.1//EN" "http://www.w3.org/Graphics/SVG/1.1/DTD/svg11.dtd" >
<svg viewBox="0 -442 2048 2048">
  <g transform="matrix(1 0 0 -1 0 1606)">
   <path fill="currentColor"
d="M1798 990q0 -197 -140.5 -337.5t-337.5 -140.5q-146 0 -270 83q-217 -223 -658 -660q-31 -31 -95 -90q-10 -8 -147 -91q-23 -13 -68 -42q21 58 42 117q25 69 58 109q59 73 237 251q175 167 522 504q-100 133 -100 297q0 196 141 337t338 141t337.5 -140.5t140.5 -337.5z
M1368 1170q0 79 -55 135.5t-133 56.5t-133.5 -57t-55.5 -135q0 -80 54.5 -134t134.5 -54t134 54t54 134zM1728 993q0 95 -52 199v-11q2 -213 -145.5 -361t-360.5 -148q-55 0 -112 9q119 -93 262 -93q168 0 288 118.5t120 286.5zM998 637l-32 31q-224 -216 -663 -656
q-28 -27 -80 -84q-7 -9 -91 -156z" />
  </g>

</svg>
