<?xml version="1.0" standalone="no"?>
<!DOCTYPE svg PUBLIC "-//W3C//DTD SVG 1.1//EN" "http://www.w3.org/Graphics/SVG/1.1/DTD/svg11.dtd" >
<svg viewBox="0 -442 2048 2048">
  <g transform="matrix(1 0 0 -1 0 1606)">
   <path fill="currentColor"
d="M1948 1111q0 -98 -35 -153q-6 -9 -43 -36q-42 -30 -91 -41q-36 -8 -29 -8q21 0 -85 13l-262 -277q35 -90 35 -196q0 -61 -51 -126q-54 -69 -112 -69q-103 0 -161 20l-75 42q-34 19 -99 60q-136 -126 -407 -377q-106 -98 -153 -137q-88 -75 -165 -122q-70 -43 -96 -43
q-6 0 -21.5 14t-15.5 19q0 88 320 437l356 388q-74 122 -89 157q-30 72 -30 177q0 11 21 53q57 113 184 113q47 0 81 -4q9 -1 102 -30q17 0 147 122t130 142q0 15 -4.5 45t-4.5 45q0 -9 7 28q31 163 230 163q115 0 265.5 -150.5t150.5 -268.5zM1877 1107q0 89 -39 139
q-81 104 -138 147q-85 66 -185 66q-63 0 -108 -38q-48 -39 -48 -101q0 -9 2 -27t2 -27q45 32 58 32q73 0 107 -21q47 -28 112 -97q75 -79 75 -119v-74q0 -4 -31 -45h85q34 0 71 40t37 125zM1680 1024q0 16 -18 58t-30 58q-63 84 -143 108q-36 11 -46 11q-6 0 -39 -12.5
t-38 -16.5q-22 -18 -87 -84q-69 -72 -206 -216q43 -28 125 -89q18 -18 57 -52l336 336q39 -52 39 -118q0 -30 -16 -50q-10 -13 -96 -101t-180 -179q3 -15 17 -22q68 65 202 196q32 30 91 94q32 39 32 79zM1369 446q0 30 -18 99q-3 16 -12 47q-84 180 -261 288q-20 15 -63 38
q-94 30 -157 30q-45 0 -59 -5q-26 -9 -59 -49.5t-33 -66.5q0 -146 118 -269q27 24 50 54q34 42 41 48q21 17 60 17q45 0 83.5 -37.5t38.5 -82.5q0 -41 -45 -85q-39 -34 -77 -68q76 -63 123 -85q61 -30 145 -30q28 0 68.5 31.5t48.5 59t8 66.5zM1060 580q0 11 -60 62
q-9 -3 -23 -11q-2 -1 -101 -101l-427 -427q-43 -42 -126 -128q-13 -14 -72 -94q-69 -94 -125 -179q95 62 273 200q113 104 283 279q227 233 278 284q100 99 100 115zM1858 1099q0 -46 -52 -104q-6 0 -18 -3.5t-19 -3.5l-16 11q5 49 5 51q0 22 -40 83q47 -14 54 -14
q11 0 36 15.5t30 25.5q20 -60 20 -61zM1035 571q-205 -213 -399 -409q-81 -83 -246 -244q-1 -1 -189 -141l817 822q8 -9 17 -28z" />
  </g>

</svg>
