<?xml version="1.0" standalone="no"?>
<!DOCTYPE svg PUBLIC "-//W3C//DTD SVG 1.1//EN" "http://www.w3.org/Graphics/SVG/1.1/DTD/svg11.dtd" >
<svg viewBox="0 -442 2048 2048">
  <g transform="matrix(1 0 0 -1 0 1606)">
   <path fill="currentColor"
d="M1983 -241q-13 13 -39 38v110h-116q-21 21 -32 36h148v229h-229v-114q-3 8 -23 48q-14 28 -14 49q0 8 1 15q-2 1 -18 3q-4 5 -19 36h36v229h-144q-3 4 -19 37h163v228h-225v-89q-5 9 -17 28q-8 -11 -22 -34v95h-229v-228h163q-2 -4 -19 -37h-145v-226q6 -3 25 -3
q-6 -18 -17 -35l-7 -3v-2q1 -13 -13 -39q-10 -19 -21 -38v78q-7 2 -43 3q-5 7 -19 36h61v229h-181q-5 12 -13 37h194v228h-234v-92l-37 122v79v157h-74q-2 6 -9 40h82v228h-153q-4 13 -13 37h166v229h-228v-97l-36 -35v133h-229v-229h135q-10 -16 -31 -37h-105v-110l-14 -14
q-24 44 -22 121q-5 2 -31 4q-4 10 -16 35h46v229h-144q-5 12 -13 37h1793v-1781zM1984 -361h-70q-74 65 -148 131q-88 79 -133 144q-53 76 -109 204l-94 212l-281 -543q-12 24 -167 310q-102 188 -152 317q-55 142 -119 368q-91 324 -106 373l-272 -281l-251 581v85h83
l197 -472l293 306q64 -230 129 -460q77 -274 145 -455q35 -92 103 -218q59 -105 117 -211l287 550q68 -155 135 -310q85 -193 154 -296q42 -62 122 -133q69 -60 137 -120v-82zM1870 -361h-1787v1744q16 -26 37 -106q3 -3 10 -4q7 -14 13 -35h-24v-228h126q2 -10 16 -40h-142
v-230h229v111q18 19 36 32v-142h230v228h-149q12 14 38 40h108q3 6 3 19q16 -48 36 -122v-165h52q4 -11 10 -37h-62v-228h129q5 -12 13 -37h-142v-229h229v43q36 -76 36 -82v-227h124l18 -36h-141v-232h232q1 4 1 28.5t11.5 43.5t23.5 38v-111h229v232h-167q3 11 16 37h150
v226q-8 3 -33 3q6 12 12.5 25.5t19.5 10.5q2 4 2 21q5 12 17 41q15 -33 44 -98h-21v-229h132q11 -18 19 -36h-151v-232h225v154q22 -20 37 -35v-120h120q12 -12 35 -36zM1944 1275v228h-228v-228h228zM1678 1275v228h-225v-228h225zM1944 1010v227h-228v-227h228zM1678 1010
v227h-225v-227h225zM1412 1275v228h-226v-228h226zM1944 741v228h-228v-228h228zM1150 1275v228h-234v-228h234zM1412 1010v227h-227v-227h227zM1678 741v228h-225v-228h225zM1944 476v227h-228v-227h228zM1150 1010v227h-234v-227h234zM1412 741v228h-226v-228h226z
M1944 210v228h-228v-228h228zM1150 741v228h-234v-228h234zM613 476v227h-228v-227h228zM347 476v227h-228v-227h228zM878 -56v228h-227v-228h227zM611 210v228h-226v-228h226zM347 210v228h-226v-228h226zM613 -56v228h-228v-228h228zM878 -324v230h-227v-230h227zM347 -56
v228h-228v-228h228zM613 -323v229h-228v-229h228zM347 -324v230h-226v-230h226z" />
  </g>

</svg>
