<?xml version="1.0" standalone="no"?>
<!DOCTYPE svg PUBLIC "-//W3C//DTD SVG 1.1//EN" "http://www.w3.org/Graphics/SVG/1.1/DTD/svg11.dtd" >
<svg viewBox="0 -442 2048 2048">
  <g transform="matrix(1 0 0 -1 0 1606)">
   <path fill="currentColor"
d="M1115 1022h-193v81h193v-81zM1115 805h-73v79h73v-79zM872 1022h-193v81h193v-81zM995 805h-73v79h73v-79zM401 1184h-317l317 341v-341zM1115 590h-313v79h313v-79zM872 805h-313v79h313v-79zM632 1020h-313v83h313v-83zM1113 371h-311v82h311v-82zM752 590h-73v79h73
v-79zM509 805h-73v79h73v-79zM1364 -368h-1282v1471h82v-1391h1117v1735h-796v80h879v-1895zM632 590h-73v79h73v-79zM1115 156h-193v79h193v-79zM389 805h-70v79h70v-79zM752 371h-73v82h73v-82zM509 590h-73v79h73v-79zM1113 -63h-71v82h71v-82zM389 590h-70v79h70v-79z
M872 156h-193v79h193v-79zM632 371h-313v82h313v-82zM995 -63h-193v82h193v-82zM632 156h-196v79h196v-79zM752 -63h-316v82h316v-82zM389 156h-70v79h70v-79zM389 -63h-70v82h70v-82z" />
  </g>

</svg>
