<?xml version="1.0" standalone="no"?>
<!DOCTYPE svg PUBLIC "-//W3C//DTD SVG 1.1//EN" "http://www.w3.org/Graphics/SVG/1.1/DTD/svg11.dtd" >
<svg viewBox="0 -442 2048 2048">
  <g transform="matrix(1 0 0 -1 0 1606)">
   <path fill="currentColor"
d="M1849 1526q-11 -12 -34 -36h-119v-118l-35 -35v153h-224v-229h149q-6 -18 -19 -36h-129v-224q6 -4 20 -3q-1 -2 -44 -97q-17 46 -16 58q-14 1 -34 39h33v226h-149q-3 13 -15 36h164v230h-226v-113q-37 73 -33 112h-232v-228h140q-5 -9 -19 -36h-121v-225q0 3 -36 -81v43
h-226v-226h140q-4 -12 -13 -36h-127v-227h60l-9 -36h-51v-164q-14 -46 -36 -120v19h-110q-5 6 -37 38h146v227h-226v-140q-14 8 -36 31v109h-227v-226h141q-6 -13 -16 -39h-124v-224q7 -4 24 -3l-8 -24q-7 -16 -16 -15v-5q1 -19 -13 -49q-11 -23 -23 -47v1721h1766z
M1962 1445q-68 -59 -135 -118q-80 -71 -121 -132q-73 -110 -153 -294q-67 -153 -133 -305l-284 543q-58 -104 -115 -208q-68 -125 -102 -215q-67 -180 -143 -450q-63 -228 -127 -455l-291 302l-194 -466h-82v84l248 575l267 -278q5 1 6 5q23 72 102 366q61 226 116 361
q52 127 151 313q148 274 164 307l278 -537q3 6 93 210q55 126 108 201q46 65 132 143q73 64 146 129h69v-81zM1961 -353h-1772q5 12 13 36h142v226h-45q14 38 31 38q6 0 12 -2q2 10 6 61q2 35 19 60q7 -4 14 -11v-110h103q11 -11 31 -35h-134v-227h227v131q12 -11 35 -34
v-97h226v226h-164q4 12 13 36h151v225h-82q3 21 10 41h72v154v77q16 55 36 123v-91h233v225h-192q4 13 13 37h179v226h-61q0 1 19 35q7 1 39 1q4 32 4 80q15 -25 33 -77l7 -4q11 -20 17 -35h-24v-226h142q5 -7 19 -36h-161v-226h225v94q7 -11 23 -33q5 9 16 27v-88h224v225
h-162q2 4 19 37h143v223q-15 4 -37 4q6 12 14 25.5t21 9.5q1 4 1 25q0 15 15 44l22 44v-112h226v225h-146q10 16 31 37h115v109q13 12 39 37v-1760zM1922 737v224h-225v-224h225zM1922 474v225h-225v-225h225zM1922 212v225h-225v-225h225zM869 1261v228h-225v-228h225z
M1659 212v225h-221v-225h221zM605 1261v228h-223v-228h223zM869 999v225h-225v-225h225zM1922 -54v225h-225v-225h225zM1397 212v225h-223v-225h223zM344 1261v228h-223v-228h223zM1659 -54v225h-221v-225h221zM607 999v225h-225v-225h225zM1922 -316v225h-225v-225h225z
M1138 212v225h-232v-225h232zM1659 -316v225h-221v-225h221zM607 738v223h-225v-223h225zM344 999v225h-225v-225h225zM1397 -54v225h-225v-225h225zM1397 -316v225h-223v-225h223zM344 737v224h-223v-224h223zM607 474v225h-225v-225h225zM1138 -54v225h-232v-225h232z
M1138 -316v225h-232v-225h232zM344 474v225h-225v-225h225z" />
  </g>

</svg>
