<?xml version="1.0" standalone="no"?>
<!DOCTYPE svg PUBLIC "-//W3C//DTD SVG 1.1//EN" "http://www.w3.org/Graphics/SVG/1.1/DTD/svg11.dtd" >
<svg viewBox="0 -442 2048 2048">
  <g transform="matrix(1 0 0 -1 0 1606)">
   <path fill="currentColor"
d="M1778 -108q0 -14 -5 -37q-6 -29 -7 -37q-9 -74 -65 -132q-60 -60 -133 -60h-1276q-7 0 -41 9q-12 4 -37 12q-68 21 -104 117q-28 76 -28 163v1616h1297v-1517h399v-134zM1295 25v1437h-1129v-1575q0 -76 40 -126q42 -54 117 -54q142 0 155 157q0 5 3 21q2 12 2 20v120
h812zM1697 -60h-1132q-2 -151 -56 -232h1037q15 0 50 11q101 32 101 221zM1127 1169h-195v81h195v-81zM1127 950h-195v80h195v-80zM878 1167h-192v83h192v-83zM1127 732h-74v80h74v-80zM878 950h-192v80h192v-80zM639 1167h-196v83h196v-83zM1006 732h-74v80h74v-80z
M394 1167h-69v83h69v-83zM1126 511h-317v83h317v-83zM878 732h-313v80h313v-80zM639 950h-317v80h317v-80zM1127 293h-319v80h319v-80zM758 511h-72v83h72v-83zM514 732h-74v80h74v-80zM639 511h-74v83h74v-83zM1127 73h-195v82h195v-82zM393 732h-71v80h71v-80zM760 293
h-74v80h74v-80zM514 511h-74v83h74v-83zM391 511h-69v83h69v-83zM878 72h-192v83h192v-83zM639 293h-317v80h317v-80zM639 72h-199v83h199v-83zM391 72h-69v83h69v-83zM424 -145q-5 0 -17 -1h-17h-13q-18 0 -29 4q-5 2 -15.5 25.5t-10.5 31.5v19h71v-9q-2 -41 31 -70z" />
  </g>

</svg>
