<?xml version="1.0" standalone="no"?>
<!DOCTYPE svg PUBLIC "-//W3C//DTD SVG 1.1//EN" "http://www.w3.org/Graphics/SVG/1.1/DTD/svg11.dtd" >
<svg viewBox="0 -442 2048 2048">
  <g transform="matrix(1 0 0 -1 0 1606)">
   <path fill="currentColor"
d="M1996 889q0 -240 -234 -409q-192 -139 -457 -184q-125 -21 -162 -21h-208q-49 0 -162 21q-283 53 -465 187q-226 167 -226 423q0 317 336 492q272 142 621 142q347 0 620 -143q337 -176 337 -491v-17zM1996 -107q0 -162 -119 -224q-87 -46 -265 -46q-101 0 -165 3
q-7 0 -23 2t-25 2h-10l-5 -3v530q117 10 219 10q181 0 270 -46q123 -64 123 -228zM1331 160l-249 -530h-176l-246 530h145l192 -437l195 437h139zM694 -105q0 -164 -118 -226q-86 -46 -265 -46q-101 0 -165 3q-7 0 -23 2t-25 2h-10l-5 -3v530q117 10 218 10q179 0 269 -46
q124 -64 124 -226zM1884 1140q-20 43 -37 49l-513 -144q4 -6 13 -27zM1884 728l-537 122l-13 -24l513 -147q19 7 37 49zM1778 1255q-126 125 -345 190q-188 57 -394 57q-203 0 -394 -57q-223 -67 -345 -190l492 -172q104 75 247 75q144 0 247 -75zM1334 936q0 94 -105 149
q-87 45 -190 45q-105 0 -190 -44q-105 -55 -105 -150q0 -96 104 -150q86 -45 191 -45q106 0 191 44q104 55 104 151zM1778 616l-492 169q-126 -75 -247 -75q-131 0 -247 75l-492 -169q119 -121 345 -192q199 -62 394 -62q196 0 394 62q223 70 345 192zM1871 -107
q0 184 -240 184q-62 0 -97 -5l-14 -2q-8 0 -14 6v-362q14 0 46 -1h45q126 0 186 28q88 41 88 152zM744 1045l-513 144q-22 -8 -37 -49l537 -122q1 4 13 27zM744 826q-4 8 -13 24l-537 -122q14 -41 37 -49zM570 -108q0 185 -252 185q-16 0 -48 -3.5t-48 -3.5q-9 0 -15 6v-359
q37 -4 96 -4q122 0 181 28q86 41 86 151zM1300 936q0 -85 -92 -132q-75 -38 -169 -38t-168 38q-93 47 -93 132q0 82 94 129q75 37 167 37t167 -37q94 -47 94 -129zM1278 936q0 74 -86 119q-71 37 -153 37q-40 0 -67 -4q-60 -9 -112 -50q-60 -47 -60 -102q0 -75 85 -123
q73 -41 154 -41q83 0 154 40q85 48 85 124zM1154 934q0 -78 -115 -78t-115 78q0 81 115 81t115 -81zM1132 931q0 30 -33 49q-27 16 -60 16q-34 0 -61 -15q-32 -19 -32 -50t32 -50q27 -15 61 -15q93 0 93 65z" />
  </g>

</svg>
