<?xml version="1.0" standalone="no"?>
<!DOCTYPE svg PUBLIC "-//W3C//DTD SVG 1.1//EN" "http://www.w3.org/Graphics/SVG/1.1/DTD/svg11.dtd" >
<svg viewBox="0 -442 2048 2048">
  <g transform="matrix(1 0 0 -1 0 1606)">
   <path fill="currentColor"
d="M1978 -368h-1896v1895h1896v-1895zM1947 743v234h-129v-234h129zM1947 479v236h-129v-236h129zM1947 1264v236h-1785v-236h146v119h285v-119h1354zM1947 1002v236h-1352v-235h940v121h283v-122h129zM1947 220v233h-129v-233h129zM1534 480v235h-322v-235h322zM1947 -41
v236h-129v-236h129zM1534 743v234h-941v-234h318v114h301v-114h322zM1533 220v233h-321v-233h321zM1947 -303v239h-129v-239h129zM1534 -41v236h-322v-236h322zM306 1002v236h-142v-236h142zM910 479v236h-315v-236h315zM1533 -303v239h-321v-239h321zM306 743v234h-144
v-234h144zM910 220v233h-315v-233h315zM306 479v236h-142v-236h142zM910 -41v236h-317v-236h317zM306 220v233h-142v-233h142zM910 -303v239h-315v-239h315zM306 -41v236h-144v-236h144zM306 -303v239h-142v-239h142z" />
  </g>

</svg>
