<?xml version="1.0" standalone="no"?>
<!DOCTYPE svg PUBLIC "-//W3C//DTD SVG 1.1//EN" "http://www.w3.org/Graphics/SVG/1.1/DTD/svg11.dtd" >
<svg viewBox="0 -442 2048 2048">
  <g transform="matrix(1 0 0 -1 0 1606)">
   <path fill="currentColor"
d="M1472 -205q0 -19 -20 -63q-14 -31 -58 -65t-75 -34h-1084q-18 0 -52 17.5t-66 61.5q-35 47 -35 84v1354q0 16 16.5 60t65.5 76.5t96 32.5h282q15 0 20 11q3 6 3 46q0 37 25 48q13 6 57 7h11q3 25 7 50t21 45q9 10 41 22.5t47 12.5q22 0 58 -18.5t44 -36.5q12 -28 11 -72
q3 -1 44 -1q52 0 52 -75q0 -39 25 -39h286q53 0 101.5 -37t64.5 -87q12 -39 12 -44v-1356zM1217 1118v99q0 17 -28 37.5t-46 20.5h-125q-87 0 -91 100h-18q-42 -1 -53 15q-6 8 -22 80q-10 44 -60 44q-53 0 -66.5 -70.5t-63.5 -70.5q-11 0 -24 2q-3 -100 -90 -100h-122
q-23 0 -50 -21.5t-27 -43.5v-92h886zM1387 -218v1385q0 22 -31 49t-53 27h-51q6 -12 6 -21v-155h-968v176h-39q-22 0 -53 -28t-31 -49v-1383q0 -23 33 -50t57 -27h1040q23 0 56.5 27.5t33.5 48.5zM818 1435q0 -41 -43 -41q-42 0 -42 43q0 42 42 42q43 0 43 -44z" />
  </g>

</svg>
