<?xml version="1.0" standalone="no"?>
<!DOCTYPE svg PUBLIC "-//W3C//DTD SVG 1.1//EN" "http://www.w3.org/Graphics/SVG/1.1/DTD/svg11.dtd" >
<svg viewBox="0 -442 2048 2048">
  <g transform="matrix(1 0 0 -1 0 1606)">
   <path fill="currentColor"
d="M1981 -364h-1566v135h-333q220 674 268 1386q12 177 12 195v182h1619v-1898zM1703 1208v246h-1267v-87q0 -10 -3 -30t-3 -30v-99h1273zM1780 -31v1485h-11q-42 -888 -210 -1485h221zM1910 -284v1738h-62v-1566h-314q-12 -40 -40 -118h-1008v-54h1424zM1694 1124h-1273
q-41 -616 -241 -1273h1270q204 661 244 1273zM1133 1330q0 -26 -20 -49.5t-45 -23.5t-43.5 22.5t-18.5 48.5q0 25 20 48t45 23q62 0 62 -69zM1549 767q0 -252 -355 -553q-32 -27 -95 -82h342l-50 -173h-582q7 52 41 150q8 14 123 107q176 143 258 229q161 169 161 285
q0 92 -74 92q-124 0 -277 -86v57q0 21 3 64t3 66q45 30 130 51q80 21 139 21q100 0 166.5 -64.5t66.5 -163.5zM821 959q0 -9 -20 -160q-40 -305 -131 -665q2 -2 15 -2q11 0 77 2l-49 -175h-345l47 172h102q15 50 47 197q23 106 54 273q21 113 21 131v11l-2 2l-113 -67h-7
l-44 153l251 148h97v-20z" />
  </g>

</svg>
