<?xml version="1.0" standalone="no"?>
<!DOCTYPE svg PUBLIC "-//W3C//DTD SVG 1.1//EN" "http://www.w3.org/Graphics/SVG/1.1/DTD/svg11.dtd" >
<svg viewBox="0 -442 2048 2048">
  <g transform="matrix(1 0 0 -1 0 1606)">
   <path fill="currentColor"
d="M2010 -79l-300 -303l-1628 1631l300 303zM1925 -73l-1534 1540l-208 -215l1533 -1534zM767 875l-90 -86q-12 5 -20 21l83 89q6 -3 27 -24zM361 1284q-25 -32 -86 -93l-23 23l86 90q8 -6 23 -20zM1303 335l-89 -83q-5 2 -20 17l83 90q4 -2 26 -24zM497 1142l-87 -86
q-12 6 -23 23l83 87q6 -3 27 -24zM898 743l-83 -89q-12 6 -26 20l89 90zM1030 605l-83 -86q-5 2 -23 20l86 90q16 -16 20 -24zM1165 473l-86 -89l-20 20l86 90zM1570 65l-86 -83q-6 2 -24 20l83 87q6 -3 27 -24zM1702 -67l-83 -86q-10 4 -23 17l86 90q13 -6 20 -21z
M628 1010l-83 -89q-7 3 -27 23l90 87q7 -8 20 -21zM1435 200l-86 -83q-9 7 -27 20l90 87q11 -5 23 -24zM374 1167l-35 -36q-4 0 -18 14q12 16 36 40zM509 1032q-33 -33 -39 -33q-3 0 -17 14q12 13 39 36q11 -6 17 -17zM1046 495q-27 -36 -36 -36q-4 0 -11 6.5t-9 7.5
q3 4 39 40zM911 630q-17 -22 -39 -39l-14 14q17 23 35 39q4 0 18 -14zM1316 225q-36 -36 -39 -36q8 0 -21 14q14 14 43 40zM1448 90q-9 -12 -36 -39l-17 17l36 40zM641 897q-6 -9 -33 -36q-5 2 -20 17q12 11 35 33q4 0 18 -14zM776 765q-5 -7 -16.5 -19.5t-16.5 -19.5
q-12 5 -24 17q36 36 40 36q3 0 17 -14zM1178 360l-33 -39q-5 2 -20 17l35 36q4 0 18 -14zM1583 -45q-9 -12 -36 -39l-21 21q42 32 40 32q3 0 17 -14zM1718 -180l-39 -39l-18 17q27 36 40 36q3 0 17 -14z" />
  </g>

</svg>
