<?xml version="1.0" standalone="no"?>
<!DOCTYPE svg PUBLIC "-//W3C//DTD SVG 1.1//EN" "http://www.w3.org/Graphics/SVG/1.1/DTD/svg11.dtd" >
<svg viewBox="0 -442 2048 2048">
  <g transform="matrix(1 0 0 -1 0 1606)">
   <path fill="currentColor"
d="M1552 -310q0 -16 -15.5 -30.5t-31.5 -14.5q-14 0 -479 269q-268 155 -537 311q-23 11 -46 23q-27 15 -35 35q-25 64 -174 512q-152 456 -152 474q0 46 47 46q20 0 266 -147l2 317q0 14 12 26.5t26 12.5l632 -362q41 37 131 100l354 -201v-1371zM1470 -139v1150l-266 157
l-136 -100l-586 334v-283q248 -145 606 -349q48 -27 63 -39q32 -25 47 -58q10 -32 30 -94q47 -143 242 -718zM1407 -214q-181 527 -289 865q-42 39 -189 123q-248 139 -743 419l294 -872z" />
  </g>

</svg>
