<?xml version="1.0" standalone="no"?>
<!DOCTYPE svg PUBLIC "-//W3C//DTD SVG 1.1//EN" "http://www.w3.org/Graphics/SVG/1.1/DTD/svg11.dtd" >
<svg viewBox="0 -442 2048 2048">
  <g transform="matrix(1 0 0 -1 0 1606)">
   <path fill="currentColor"
d="M1952 -347h-1870v1870h1870v-1870zM1873 -268v1712h-1711v-1712h1711zM1764 1202h-102v108h102v-108zM1421 1335h-13q-17 0 -17 27h30v-27zM1394 1309q0 -28 -28 -28q-30 0 -30 28q0 26 30 26q28 0 28 -26zM1421 1226h-4q-26 0 -26 30q0 24 26 27zM1339 1362
q-12 -27 -29 -27q-29 0 -29 21q0 1 1 6h57zM1421 1150h-30v2q0 8 11.5 17t18.5 8v-27zM1394 1202q0 -28 -29 -28t-29 28q0 27 29 27t29 -27zM1284 1309q0 -28 -27 -28t-27 28q0 26 27 26t27 -26zM1339 1255q0 -29 -27 -29q-31 0 -31 30q0 28 29 28t29 -29zM1229 1349
q0 -14 -25 -14q-29 0 -29 17v10h54v-13zM1339 1151h-57q3 26 28 26q14 0 25 -13q0 -5 4 -13zM1284 1203q0 -29 -27 -29q-13 0 -27 13v29q14 13 27 13q27 0 27 -26zM1230 1256q0 -30 -26 -30q-29 0 -29 30q0 28 29 28q26 0 26 -28zM1178 1309q0 -28 -27 -28q-31 0 -31 28
q0 26 31 26q27 0 27 -26zM1123 1352q0 -17 -27 -17t-27 17v10h54v-10zM1229 1150l-53 3q2 7 6 17q6 7 22 7q13 0 25 -16v-11zM1072 1309q0 -28 -29 -28t-29 27t29 27t29 -26zM1123 1256q0 -30 -27 -30t-27 29t27 29t27 -28zM1178 1202q0 -28 -29 -28t-29 28q0 27 31 27
q27 0 27 -27zM1017 1352q0 -17 -27 -17q-28 0 -28 20q0 3 1 7h54v-10zM1123 1150h-54v11q11 16 29 16q12 0 25 -16v-11zM1017 1255q0 -29 -27 -29q-28 0 -28 30q0 28 28 28q27 0 27 -29zM1072 1203q0 -29 -29 -29t-29 28q0 27 29 27t29 -26zM962 1309q0 -28 -26 -28
q-28 0 -28 28q0 26 28 26q26 0 26 -26zM911 1355q0 -20 -28 -20q-24 0 -30 27h57q1 -3 1 -7zM1017 1150h-54v11q11 16 28 16q28 0 26 -27zM911 1256q0 -30 -28 -30q-30 0 -30 30q0 28 30 28q28 0 28 -28zM856 1309q0 -28 -27 -28q-28 0 -28 28q0 26 28 26q27 0 27 -26z
M962 1202q0 -28 -26 -28q-28 0 -28 28q0 27 28 27q26 0 26 -27zM804 1362q-12 -27 -29 -27q-29 0 -29 21q0 1 1 6h57zM910 1151h-57q8 26 29 26q20 0 28 -26zM750 1309q0 -28 -28 -28q-27 0 -27 28q0 26 27 26q28 0 28 -26zM804 1255q0 -29 -27 -29q-30 0 -30 30q0 28 28 28
q29 0 29 -29zM856 1202q0 -28 -26 -28q-29 0 -29 29q0 26 28 26q27 0 27 -27zM695 1349q0 -14 -21 -14h-6q-27 0 -27 17v10h54v-13zM804 1151h-57q3 26 28 26q14 0 25 -13q0 -5 4 -13zM643 1309q0 -14 -16 -28h-11v54h14q13 -13 13 -26zM750 1203q0 -29 -28 -29
q-13 0 -27 13v29q14 13 27 13q28 0 28 -26zM695 1256q0 -30 -26 -30q-29 0 -29 30q0 28 29 28q26 0 26 -28zM695 1150l-53 3q2 7 6 17q6 7 21 7q14 0 26 -16v-11zM643 1202q0 -21 -16 -28h-11v55h10q17 0 17 -27zM366 1202h-99v108h99v-108zM1764 -130h-1497v1191h1497
v-1191zM1709 834v170h-154v-170h154zM1503 834v170h-154v-170h154zM1709 607v169h-154v-169h154zM1296 834v170h-154v-170h154zM1503 607v169h-154v-169h154zM1709 379v172h-154v-172h154zM1093 834v170h-155v-170h155zM1296 607v169h-154v-169h154zM1503 379v172h-154v-172
h154zM1709 154v169h-154v-169h154zM886 834v170h-154v-170h154zM1093 607v169h-155v-169h155zM1296 380v171h-152v-171h152zM1503 154v169h-154v-169h154zM1709 -74v169h-154v-169h154zM679 834v170h-154v-170h154zM886 607v169h-154v-169h154zM1092 380v171h-154v-171h154z
M1296 154v169h-154v-169h154zM1503 -74v169h-154v-169h154zM473 834v170h-154v-170h154zM679 607v169h-154v-169h154zM886 379v172h-154v-172h154zM1093 154v169h-155v-169h155zM1296 -74v169h-154v-169h154zM473 607v169h-154v-169h154zM679 379v172h-154v-172h154z
M886 154v169h-154v-169h154zM1093 -74v169h-155v-169h155zM473 380v171h-153v-171h153zM679 154v169h-154v-169h154zM886 -74v169h-154v-169h154zM473 154v169h-154v-169h154zM679 -74v169h-154v-169h154zM473 -74v169h-154v-169h154z" />
  </g>

</svg>
