<?xml version="1.0" standalone="no"?>
<!DOCTYPE svg PUBLIC "-//W3C//DTD SVG 1.1//EN" "http://www.w3.org/Graphics/SVG/1.1/DTD/svg11.dtd" >
<svg viewBox="0 -442 2048 2048">
  <g transform="matrix(1 0 0 -1 0 1606)">
   <path fill="currentColor"
d="M1958 429q0 -151 -52 -246h-1287l-537 658v69l37 1q12 27 12 88q0 166 -11 190q-2 5 -21 30q-17 22 -17 25v65h1171q6 0 117 -109l368 -361q61 -56 173 -176q21 -26 35 -112q12 -71 12 -122zM1790 662q-18 0 -26 14t-5 32l-38 6q-8 4 -8 39q-18 3 -35 6q-6 3 -11 40
q-18 3 -36 5q-6 3 -10 41q-48 0 -45 43q-5 -2 -10 -2q-38 0 -38 37q0 5 2 10q-32 4 -38 9.5t-8 36.5q-5 -2 -11 -2q-38 0 -38 37q0 5 3 11q-32 0 -37 12q-4 19 -7 38q-7 -3 -16 -3q-23 0 -25.5 15t-4.5 30q-3 -1 -10 -1q-26 0 -29.5 15t-6.5 32q-3 0 -8 -1h-8q-29 0 -29 27
q0 6 7 12q-6 4 -30 8q-16 2 -26 23q-3 1 -7 1q-19 0 -29 -12t-23 -12q-18 0 -23.5 12t-20.5 12q-10 0 -23 -12t-23 -12q-20 0 -25 12t-20 12q-11 0 -22 -12t-22 -12q-23 0 -26.5 12t-21.5 12q-13 0 -21 -12t-23 -12q-25 0 -29 24h-33q-10 -25 -38 -25q-13 0 -21 25h-29
q-17 -25 -42 -25q-12 0 -20 25h-33q1 -1 1 -3q0 -21 -28 -21q-19 0 -25 12t-21 12q-11 0 -22 -12t-22 -12q-31 0 -33 24h-29q-9 -24 -38 -24q-16 0 -21 24h-32q-9 -24 -30 -24q-20 0 -25.5 12t-18.5 12q-14 0 -23 -12t-24 -12t-30 24h-21q15 -21 50 -59q12 -6 29 -22
q3 -9 13 -24q9 3 32 -22q3 -5 2 -18q18 -3 44 -27q0 -9 5 -25q30 -4 35 -12q2 -3 4 -37q5 3 18 3q27 0 27 -28q0 -11 -5 -21q12 3 20 3q31 0 31 -27q0 -12 -6 -28q14 9 27 9q25 0 25 -27q0 -9 -12 -27q34 9 30 9q24 0 24 -26q0 6 -12 -28q4 -4 11 -4q12 12 23 12
q27 0 27 -25q0 -12 -21 -31q2 -4 8 -11q10 24 31 24q13 0 28 -17v-21q-10 -6 -28 -21q5 -6 14 -17q8 31 32 31q27 0 27 -29q0 -21 -22 -28q2 0 5 -1q7 0 18 7.5t18 7.5q5 0 14 -8t17 -8q32 0 59 16q7 0 15.5 -8t16.5 -8q31 0 35 2q31 14 25 14q5 0 14.5 -8t17.5 -8
q32 0 58 16q7 0 16 -8t17 -8q30 0 35 2q7 7 27 14l2 -1q12 -15 42 -15q17 0 29 8t14 8q5 0 14 -8t17 -8q31 0 35 2q30 14 23 14q5 0 15 -8t18 -8q31 0 35 2q31 14 24 14q2 0 15 -7.5t29 -7.5q15 0 29.5 7.5t16.5 7.5q6 0 16 -8t17 -8q29 0 33 2q30 14 25 14q5 0 14 -8t17 -8
q31 0 35 2q31 14 25 14q5 0 14.5 -8t17.5 -8q30 0 34 1.5t11 8t12 6.5t16 -8t19 -8q1 0 16 2zM1876 428q0 105 -28 150h-1148q15 -91 15 -150q0 -96 -24 -166h1157q28 77 28 166zM645 464q0 112 -13 135q-3 6 -37 46q-37 45 -112 135q-104 121 -312 362q17 -80 17 -184
q0 -38 -15 -101l456 -556q16 78 16 163zM1724 688q0 -24 -28 -24q-27 0 -27 27q0 28 26 28q29 0 29 -31zM1678 735q0 -26 -28 -26q-27 0 -27 28q0 27 26 27q29 0 29 -29zM1586 827q0 -26 -27 -26t-27 26t27 26t27 -26zM1224 1189q0 -26 -29 -26q-4 0 -11 2t-11 2
q0 4 -2 10.5t-2 10.5q0 27 28 27q27 0 27 -26zM1407 1006q0 -26 -29 -26t-29 28q0 27 29 27t29 -29zM1541 871q0 -25 -28 -25q-27 0 -27 26t27 26q28 0 28 -27zM1632 781q0 -26 -27 -26q-28 0 -28 27q0 25 28 25q27 0 27 -26zM1449 964q0 -29 -26 -29q-28 0 -28 29
q0 26 27 26t27 -26zM1361 1052q0 -26 -29 -26t-29 29q0 23 29 23t29 -26zM1495 918q0 -29 -26 -29q-29 0 -29 29q0 26 28 26q27 0 27 -26zM1267 1143q0 -25 -28 -25q-4 0 -11 1.5t-10 1.5l-3 33q14 12 26 12q26 0 26 -23zM1312 1099q0 -27 -26 -27q-29 0 -29 27q0 25 29 25
q26 0 26 -25zM1632 688q0 -24 -27 -24q-28 0 -28 27q0 28 28 28q27 0 27 -31zM1586 735q0 -26 -27 -26t-27 28q0 27 27 27t27 -29zM1133 1189q0 -26 -28 -26q-27 0 -27 26t27 26q28 0 28 -26zM1224 1098q0 -26 -29 -26q-4 0 -11 1.5t-11 1.5q0 4 -2 11.5t-2 11.5q0 26 28 26
q27 0 27 -26zM1361 962q0 -27 -29 -27t-29 29q0 26 29 26t29 -28zM1407 917q0 -28 -29 -28t-29 29q0 26 27 26q31 0 31 -27zM1495 828q0 -27 -26 -27q-29 0 -29 26t28 26q27 0 27 -25zM1541 781q0 -26 -28 -26q-27 0 -27 27q0 25 26 25q29 0 29 -26zM1449 872q0 -26 -26 -26
q-28 0 -28 26t27 26t27 -26zM1178 1143q0 -25 -27 -25t-27 30v5q8 13 24 13h6q24 0 24 -23zM1267 1054q0 -28 -26 -28t-26 28q0 24 27 24q25 0 25 -24zM1312 1008q0 -28 -26 -28q-29 0 -29 29q0 26 29 26q26 0 26 -27zM1407 827q0 -26 -29 -26t-29 27q0 25 29 25t29 -26z
M1541 688q0 -24 -28 -24q-27 0 -27 27q0 28 27 28q28 0 28 -31zM1224 1008q0 -28 -27 -28q-28 0 -28 28q0 27 28 27q27 0 27 -27zM1361 872q0 -26 -29 -26t-29 26t29 26t29 -26zM1495 737q0 -28 -26 -28q-29 0 -29 28q0 27 28 27q27 0 27 -27zM1133 1098q0 -26 -28 -26
q-27 0 -27 27q0 25 27 25q28 0 28 -26zM1267 964q0 -29 -26 -29t-26 29q0 26 26 26t26 -26zM1449 781q0 -26 -26 -26q-28 0 -28 26t27 26t27 -26zM1041 1189q0 -26 -27 -26q-28 0 -28 26t28 26q27 0 27 -26zM1178 1054q0 -28 -27 -28q-28 0 -28 29q0 23 29 23q26 0 26 -24z
M1087 1143q0 -25 -28 -25q-27 0 -27 30v6q13 12 27 12q28 0 28 -23zM1312 918q0 -29 -26 -29q-29 0 -29 29q0 26 29 26q26 0 26 -26zM1407 735q0 -26 -29 -26t-29 29q0 26 29 26t29 -29zM1449 690q0 -26 -26 -26q-28 0 -28 27q0 28 28 28q8 0 17 -10.5t9 -18.5zM950 1189
q0 -26 -26 -26q-4 0 -11 2t-11 2q0 4 -2 10.5t-2 10.5q0 27 27 27q25 0 25 -26zM1133 1008q0 -28 -28 -28q-27 0 -27 29q0 26 27 26q28 0 28 -27zM1178 964q0 -29 -27 -29q-28 0 -28 29q0 26 28 26q27 0 27 -26zM1224 918q0 -29 -27 -29q-28 0 -28 28q0 27 28 27
q27 0 27 -26zM1267 872q0 -26 -26 -26t-26 26t26 26t26 -26zM1361 771q-17 -16 -29 -16q-29 0 -29 36q17 16 29 16t29 -16v-20zM1041 1099q0 -27 -27 -27q-28 0 -28 27q0 25 29 25q26 0 26 -25zM1087 1054q0 -28 -28 -28q-27 0 -27 29q0 23 27 23q28 0 28 -24zM1312 828
q0 -27 -26 -27q-29 0 -29 26t28 26q27 0 27 -25zM995 1130q-11 -12 -25 -12q-29 0 -29 36q12 13 22 13q16 0 32 -10v-27zM1224 828q0 -27 -27 -27q-28 0 -28 24q0 28 28 28q27 0 27 -25zM1361 690q0 -26 -29 -26t-29 27q0 28 29 28t29 -29zM1178 872q0 -26 -27 -26
q-28 0 -28 26t28 26q27 0 27 -26zM950 1085q-12 -13 -26 -13q-4 0 -11 1.5t-11 1.5q-4 12 -4 24v12q21 13 27 13q11 0 25 -13v-26zM1087 964q0 -29 -29 -29q-26 0 -26 29q0 26 27 26q28 0 28 -26zM1133 918q0 -29 -28 -29q-27 0 -27 29q0 26 27 26q28 0 28 -26zM1267 782
q0 -27 -26 -27t-26 26t27 26q25 0 25 -25zM858 1189q0 -26 -25 -26q-4 0 -11.5 2t-11.5 2q0 3 -1.5 10t-1.5 11q0 27 26 27q25 0 25 -26zM1041 1008q0 -28 -27 -28q-28 0 -28 29q0 26 28 26q27 0 27 -27zM1312 737q0 -28 -26 -28q-29 0 -29 28q0 27 29 27q26 0 26 -27z
M904 1130q-11 -12 -26 -12q-4 0 -11 1.5t-11 1.5q-3 9 -3 19v17q20 9 25 9q12 0 26 -9v-27zM996 1054q0 -28 -28 -28q-27 0 -27 29q0 23 29 23q26 0 26 -24zM1224 737q0 -28 -27 -28q-28 0 -28 26q0 29 28 29q27 0 27 -27zM1133 828q0 -27 -29 -27q-26 0 -26 26t27 26
q28 0 28 -25zM1267 690q0 -26 -26 -26t-26 27q0 28 27 28q25 0 25 -29zM950 1008q0 -28 -28 -28q-24 0 -24 26q0 29 27 29q25 0 25 -27zM1087 872q0 -26 -28 -26q-27 0 -27 26t27 26q28 0 28 -26zM1178 782q0 -27 -27 -27q-28 0 -28 27q0 25 29 25q26 0 26 -25zM996 962
q0 -27 -28 -27q-27 0 -27 29q0 26 29 26q26 0 26 -28zM858 1085q-12 -13 -25 -13q-26 0 -26 26t30 26q10 0 21 -13v-26zM767 1189q0 -26 -24 -26q-28 0 -28 25q0 27 28 27q24 0 24 -26zM904 1039q-12 -13 -26 -13q-26 0 -26 26t31 26q10 0 21 -13v-26zM1041 917
q0 -28 -26 -28q-29 0 -29 29q0 26 29 26q26 0 26 -27zM813 1130q-12 -12 -25 -12q-27 0 -27 25q0 23 26 23q12 0 26 -9v-27zM1133 737q0 -28 -29 -28q-26 0 -26 28q0 27 27 27q28 0 28 -27zM1178 690q0 -26 -27 -26q-28 0 -28 27q0 28 28 28q27 0 27 -29zM679 1189
q0 -26 -28 -26q-27 0 -27 26t27 26q28 0 28 -26zM904 962q0 -27 -27 -27q-25 0 -25 26q0 29 26 29t26 -28zM950 917q0 -28 -26 -28t-26 28q0 27 27 27q25 0 25 -27zM996 872q0 -26 -28 -26q-27 0 -27 26t29 26q26 0 26 -26zM1041 827q0 -26 -27 -26q-28 0 -28 26t29 26
q26 0 26 -26zM1087 782q0 -27 -28 -27q-27 0 -27 27q0 25 27 25q28 0 28 -25zM858 1006q0 -26 -25 -26q-26 0 -26 23v6q0 26 26 26q25 0 25 -29zM724 1143q0 -25 -27 -25t-27 25q0 23 27 23t27 -23zM767 1085q-13 -13 -24 -13q-28 0 -28 26t28 26q10 0 24 -13v-26zM813 1039
q-13 -13 -25 -13q-27 0 -27 26v13q15 13 30 13q11 0 22 -13v-26zM950 827q0 -26 -28 -26q-24 0 -24 24q0 28 27 28q25 0 25 -26zM1087 690q0 -26 -29 -26q-26 0 -26 27q0 28 27 28q28 0 28 -29zM904 871q0 -25 -26 -25t-26 25q0 27 26 27t26 -27zM1041 737q0 -28 -27 -28
q-28 0 -28 28q0 27 29 27q26 0 26 -27zM679 1098q0 -26 -28 -26q-27 0 -27 27q0 25 27 25q28 0 28 -26zM813 962q0 -27 -26 -27t-26 27q0 28 26 28t26 -28zM996 782q0 -27 -28 -27q-27 0 -27 27q0 25 29 25q26 0 26 -25zM584 1189q0 -26 -24 -26t-24 22q0 30 24 30t24 -26z
M858 917q0 -28 -25 -28q-26 0 -26 28q0 27 26 27q25 0 25 -27zM724 1052q0 -26 -27 -26q-28 0 -28 26q0 5 1 13q20 13 27 13q27 0 27 -26zM767 1006q0 -26 -24 -26q-28 0 -28 28q0 27 28 27q24 0 24 -29zM633 1130q-19 -12 -27 -12q-28 0 -28 27q0 21 28 21q13 0 27 -9v-27z
M950 737q0 -28 -28 -28q-24 0 -24 26q0 29 27 29q25 0 25 -27zM996 690q0 -26 -26 -26q-29 0 -29 27q0 28 29 28q26 0 26 -29zM724 962q0 -27 -27 -27t-27 27q0 28 27 28t27 -28zM858 827q0 -26 -27 -26q-24 0 -24 24q0 28 26 28q25 0 25 -26zM496 1189q0 -26 -26 -26
t-26 25q0 27 26 27t26 -26zM679 1006q0 -26 -28 -26q-27 0 -27 28q0 27 27 27q28 0 28 -29zM813 871q0 -25 -25 -25q-27 0 -27 25q0 27 26 27t26 -27zM904 782q0 -27 -27 -27q-25 0 -25 26t26 26t26 -25zM542 1130q-11 -12 -26 -12q-6 0 -26 6v33q20 9 26 9q12 0 26 -9v-27z
M584 1085q-13 -13 -24 -13q-10 0 -24 6v33q15 13 24 13q10 0 24 -13v-26zM633 1052q0 -26 -27 -26q-28 0 -28 28q0 24 28 24q27 0 27 -26zM767 917q0 -28 -24 -28q-28 0 -28 28q0 27 28 27q24 0 24 -27zM904 690q0 -26 -26 -26t-26 26q0 29 26 29t26 -29zM724 872
q0 -26 -27 -26t-27 25q0 27 27 27t27 -26zM858 737q0 -28 -25 -28q-26 0 -26 26q0 29 26 29q25 0 25 -27zM405 1189q0 -26 -28 -26q-24 0 -24 25q0 27 24 27q28 0 28 -26zM496 1085q-12 -13 -26 -13q-26 0 -26 26t26 26q17 0 26 -13v-26zM542 1039q-12 -13 -26 -13
q-15 0 -26 10v29q15 13 24 13h7q12 0 21 -13v-26zM633 962q0 -27 -27 -27q-28 0 -28 29q0 26 28 26q27 0 27 -28zM679 917q0 -28 -26 -28q-29 0 -29 29q0 26 27 26q28 0 28 -27zM767 827q0 -26 -24 -26q-28 0 -28 24q0 28 28 28q24 0 24 -26zM813 768q-13 -13 -25 -13
q-27 0 -27 26t26 26q6 0 26 -13v-26zM584 1006q0 -26 -24 -26t-24 23q0 32 24 32t24 -29zM450 1130q-19 -12 -27 -12q-24 0 -24 25q0 23 25 23q12 0 26 -9v-27zM542 962q0 -27 -26 -27t-26 24q0 31 26 31t26 -28zM679 827q0 -26 -28 -26q-27 0 -27 26t27 26q28 0 28 -26z
M813 690q0 -26 -26 -26t-26 26q0 29 26 29t26 -29zM724 782q0 -27 -27 -27t-27 26t27 26t27 -25zM316 1189q0 -26 -29 -26q-26 0 -26 26t28 26q27 0 27 -26zM496 1006q0 -26 -26 -26t-26 28q0 27 26 27t26 -29zM633 871q0 -25 -27 -25q-28 0 -28 26t28 26q27 0 27 -27z
M767 735q0 -26 -24 -26q-28 0 -28 26q0 29 28 29q24 0 24 -29zM362 1143q0 -25 -29 -25q-24 0 -26 39q20 9 26 9q29 0 29 -23zM404 1084q-16 -12 -27 -12q-24 0 -24 26t24 26q7 0 27 -13v-27zM584 917q0 -28 -23 -28q-25 0 -25 24q0 31 24 31t24 -27zM450 1039
q-17 -13 -27 -13q-25 0 -25 30q0 1 1 9q15 13 24 13q13 0 27 -13v-26z" />
  </g>

</svg>
