<?xml version="1.0" standalone="no"?>
<!DOCTYPE svg PUBLIC "-//W3C//DTD SVG 1.1//EN" "http://www.w3.org/Graphics/SVG/1.1/DTD/svg11.dtd" >
<svg viewBox="0 -442 2048 2048">
  <g transform="matrix(1 0 0 -1 0 1606)">
   <path fill="currentColor"
d="M1962 1160q0 -36 -41 -133q-118 -279 -324 -513q-443 -502 -780 -707q-51 -28 -153 -85q-132 -75 -197 -75q-16 0 -33 7q-187 76 -259 170q-8 14 -25 41l-15 2l-40 50q-13 21 -13 67q0 -2 36 49q48 69 142 137q14 10 140 76q19 10 89.5 33.5t85.5 23.5q10 0 63 -40.5
t56 -49.5q13 -41 20 -109q30 -9 58 -9q36 0 76 36l60 64l421 426q56 56 162 170q25 29 25 63q0 25 -20 52h-49q-37 0 -61 14q-16 9 -57 51t-41 55q0 53 49 179q1 3 70 135q12 23 93.5 103t98.5 80q61 0 115 -47q-2 -13 21 -23q17 -6 34 -13q47 -34 117 -130q76 -104 76 -150
zM1785 1366q0 17 -66.5 73t-86.5 57h-14q-22 1 -46 -23q-19 -21 -37 -42q-31 -30 -85 -94q-16 -23 -49 -92q-54 -114 -69 -205q-5 -31 -5 -19q0 -7 24 -16q15 115 102 272q8 15 59 76q42 51 65 51q18 0 102 -34l99 -51q7 32 7 47zM1548 771q0 -16 -2 44q-10 -18 -33 -52
q-17 -19 -102 -104q-75 -74 -224 -221q-81 -83 -244 -248q-34 -35 -104 -98q-8 -6 -70 -23q36 -20 38 -20q45 0 65 14q16 12 90 84.5t221 220.5q63 60 186 183q50 47 99 95q68 67 78 103q2 8 2 22zM637 84q0 59 -18 96q-5 9 -53 80q-15 -1 -43 -7q-23 -7 -114 -46
q-94 -40 -107 -49q-115 -82 -161 -157v5q-1 1 -4 1q-18 0 -18 -25q0 -11 41 -85l14 18l-19 37q47 63 119 128q83 73 143 97q11 4 44 10q7 -8 61 -83q35 -50 71 -76q44 51 44 56z" />
  </g>

</svg>
