<?xml version="1.0" standalone="no"?>
<!DOCTYPE svg PUBLIC "-//W3C//DTD SVG 1.1//EN" "http://www.w3.org/Graphics/SVG/1.1/DTD/svg11.dtd" >
<svg viewBox="0 -442 2048 2048">
  <g transform="matrix(1 0 0 -1 0 1606)">
   <path fill="currentColor"
d="M1956 -356h-1874l1874 1875v-1875zM1867 -270v1578l-1578 -1578h1578zM1772 1109l-18 -18l-41 37l18 19q12 -9 41 -38zM1756 990q-5 -7 -14 -21q-10 8 -98 87q4 9 21 25zM1634 967l-21 -18q-22 22 -38 34q1 22 18 22q3 0 41 -38zM1618 852q-3 -6 -25 -28l-87 93
q2 6 18 22zM1489 829q-3 -7 -18 -22l-38 41l15 15q14 -7 41 -34zM1476 710q-7 -9 -21 -28l-95 90l25 25zM1351 684q-1 -2 -18 -19q-13 9 -42 38l18 18q20 -15 42 -37zM1337 565l-24 -25l-91 94q4 8 18 22zM1205 546q0 -5 -14 -19q-13 12 -41 34q2 6 18 22zM1733 -66
q0 -60 -64 -60q-61 0 -61 60q0 62 61 62q26 0 45 -18t19 -44zM1196 423l-22 -21l-94 90q3 6 22 25zM1067 400l-15 -18q-24 18 -44 38l21 18zM1054 285q-8 -8 -21 -25l-94 91l24 24zM929 258q-6 -4 -18 -14q-16 12 -41 37q0 5 14 19zM912 140q-7 -15 -21 -22l-94 91l25 25
q27 -24 90 -94zM787 117l-21 -18l-38 37q1 2 21 22q9 -12 38 -41zM774 2q-4 -7 -22 -25q-47 42 -94 94l22 21zM645 -22l-18 -18l-41 38l18 18q12 -9 41 -38zM629 -140q-7 -8 -18 -25l-98 94l25 25zM503 -163q-5 -7 -14 -22q-12 9 -45 42q3 0 18 14q28 -21 41 -34z" />
  </g>

</svg>
