<?xml version="1.0" standalone="no"?>
<!DOCTYPE svg PUBLIC "-//W3C//DTD SVG 1.1//EN" "http://www.w3.org/Graphics/SVG/1.1/DTD/svg11.dtd" >
<svg viewBox="0 -442 2048 2048">
  <g transform="matrix(1 0 0 -1 0 1606)">
   <path fill="currentColor"
d="M1800 -346h-57q-77 0 -143 27q-82 33 -99 95q-8 29 -8 32v148q-50 23 -209 49q-129 21 -215 56q-34 14 -80 58q-51 49 -51 80v262q-61 34 -187 50q-167 21 -201 29q-105 27 -147 92q-23 35 -23 48v197q-80 27 -298 27v661h54q104 0 227 -28q169 -39 169 -104
q0 -29 -43.5 -83.5t-43.5 -74.5q0 -31 76 -61q57 -23 105 -30q247 -37 256 -40q130 -34 221 -135q27 -30 27 -46q0 -25 -66.5 -81.5t-66.5 -71.5q0 -23 39 -56q35 -29 62 -38q60 -21 177 -49q88 -17 261 -65q94 -35 94 -85q0 -28 -29.5 -71t-29.5 -68q0 -31 102 -51
q77 -16 127 -16v-657zM1742 -287v546q-75 10 -98 16q-53 12 -91 40v-516q0 -59 131 -78q56 -8 58 -8zM1577 504q0 53 -259 101q-154 29 -168 32q-90 25 -153 78v-504q0 -43 71 -86q52 -32 110 -48q62 -17 125.5 -27t189.5 -39v334q0 38 42 92.5t42 66.5zM1065 962
q0 18 -59 60q-50 35 -78 48q-43 19 -137 41q-92 11 -184 23q-118 15 -168 59v-504q0 -66 170 -103q115 -18 231 -36q48 -9 98 -30v293q0 29 63.5 80.5t63.5 68.5zM476 1427q0 11 -26 27q-38 23 -78 32q-103 23 -174 23h-60v-548q81 -7 241 -32v343q0 38 48.5 93t48.5 62z
" />
  </g>

</svg>
