<?xml version="1.0" standalone="no"?>
<!DOCTYPE svg PUBLIC "-//W3C//DTD SVG 1.1//EN" "http://www.w3.org/Graphics/SVG/1.1/DTD/svg11.dtd" >
<svg viewBox="0 -442 2084 2048">
  <g transform="matrix(1 0 0 -1 0 1606)">
   <path fill="currentColor"
d="M2084 397q0 -153 -56 -264h-1373l-573 703v74h9q11 0 31 1q12 26 12 96q0 166 -11 200q-3 8 -22 31.5t-19 27.5v70h1249q6 0 125 -117l393 -386q63 -61 184 -187q6 -6 22 -56q29 -88 29 -193zM1918 645q-293 299 -610 610q-3 1 -6 1q-20 0 -36 -7t-19 -7q-10 0 -19 6.5
t-30 6.5q-11 0 -26.5 -6.5t-21.5 -6.5q-10 0 -19 6.5t-30 6.5q-12 0 -26.5 -6.5t-20.5 -6.5q-5 0 -20.5 6.5t-28.5 6.5q-14 0 -28 -6.5t-21 -6.5q-5 0 -20.5 6.5t-28.5 6.5q-14 0 -28 -6.5t-20 -6.5q-4 0 -18 6.5t-29 6.5q-16 0 -30.5 -6.5t-18.5 -6.5q-7 0 -18 6.5t-21 6.5
q-30 0 -34 -2q-22 -11 -23 -11q-5 0 -20.5 6.5t-28.5 6.5t-28.5 -6.5t-20.5 -6.5q-7 0 -18.5 6.5t-19.5 6.5q-26 0 -32 -2q-28 -11 -27 -11q-5 0 -20.5 6.5t-28.5 6.5t-28.5 -6.5t-20.5 -6.5t-19 6.5t-28 6.5q-11 0 -26.5 -6.5t-21.5 -6.5q-14 0 -26 12h-47l3 -12
q4 0 12 1.5t12 1.5q24 0 24 -26q0 -13 -9 -21l7 -8q12 6 24 6q27 0 27 -26q0 -13 -13 -25q6 0 17 1t17 1q28 0 28 -26q0 -5 -8 -13.5t-8 -13.5t8 -12q11 17 21 17q32 0 32 -25q0 -8 -16 -32l12 -12q4 20 27 20q26 0 26 -15q0 -4 -4 -25q-8 -10 -22 -10q8 -16 22 -22
q3 23 27 23q26 0 26 -23q0 -29 -29 -30q10 -15 28 -30l-1 10q-1 28 25 28t26 -26q0 -30 -39 -27q85 -101 222 -259q33 -1 45 -1l8 1q26 19 29 19q14 0 21 -9.5t27 -9.5q21 0 27.5 9.5t21.5 9.5q14 0 21.5 -9.5t33.5 -9.5q9 0 14 1q13 18 27 18q15 0 23 -9.5t26 -9.5
q17 0 24.5 9.5t20.5 9.5q7 0 23 -10t44 -10l6 1q3 2 12.5 10.5t15.5 8.5q14 0 23 -10t38 -10q7 0 16.5 10t16.5 10q14 0 22.5 -9.5t26.5 -9.5q16 0 25 9.5t24 9.5q17 0 30 -18q15 -2 35 -2q7 0 17 10t17 10q14 0 21.5 -9.5t25.5 -9.5q17 0 27.5 9.5t21.5 9.5q22 0 27 -18
q7 -1 20 -1q19 0 29.5 9.5t20.5 9.5q22 0 27 -18q15 -2 35 -2q8 0 17.5 10t16.5 10q18 0 29 -18q7 -1 18 -1q17 0 28.5 9.5t30.5 9.5q9 0 21 -18h5h6zM1996 395q0 106 -30 160h-1224q16 -98 16 -160q0 -102 -26 -177h1234q30 90 30 177zM686 488q0 63 -17 90
q-45 71 -170 216q-108 120 -322 363q19 -84 19 -188q0 -37 -17 -116l487 -593q20 85 20 228zM1613 928q0 -24 -25 -24q-27 0 -27 24q0 28 26 28t26 -28zM1808 736q0 -27 -26 -27t-26 27q0 25 24 25q28 0 28 -25zM1323 1220q0 -27 -27 -27q-25 0 -25 26t23 26q29 0 29 -25z
M1372 1172q0 -28 -27 -28q-25 0 -25 26t25 26q27 0 27 -24zM1661 879q0 -24 -24 -24q-28 0 -28 24q0 28 26 28t26 -28zM1710 834q0 -28 -26 -28t-26 26t26 26t26 -24zM1759 785q0 -28 -26 -28t-26 26t26 26t26 -24zM1856 687q0 -27 -27 -27q-25 0 -25 27q0 25 23 25
q29 0 29 -25zM1515 1025q0 -27 -23 -27q-29 0 -29 29q0 23 28 23q24 0 24 -25zM1564 977q0 -28 -24 -28q-28 0 -28 28q0 24 26 24t26 -24zM1466 1060q-13 -13 -22 -13q-30 0 -30 30q0 4 1 8q14 14 27 14q9 0 24 -14v-25zM1417 1109q-13 -14 -24 -14q-27 0 -27 28q0 24 27 24
q10 0 24 -13v-25zM1372 1060q-35 -13 -26 -13q-26 0 -26 26t25 26q5 0 27 -14v-25zM1515 928q0 -24 -23 -24q-29 0 -29 26t28 26q24 0 24 -28zM1564 879q0 -24 -23 -24q-29 0 -29 26t26 26t26 -28zM1710 736q0 -27 -26 -27t-26 26t26 26t26 -25zM1759 687q0 -27 -26 -27
t-26 27q0 25 24 25q28 0 28 -25zM1612 820q-14 -14 -25 -14q-26 0 -26 26t26 26q10 0 25 -14v-24zM1323 1108q-35 -13 -26 -13q-26 0 -26 26t23 26q8 0 29 -13v-26zM1661 771q-14 -14 -26 -14q-26 0 -26 26t26 26q12 0 26 -13v-25zM1223 1220q0 -27 -23 -27q-29 0 -29 26
t27 26q25 0 25 -25zM1418 1025q0 -27 -25 -27q-28 0 -28 31q0 1 1 7q14 14 27 14q25 0 25 -25zM1271 1172q0 -28 -22 -28q-30 0 -30 28q0 24 28 24q24 0 24 -24zM1466 977q0 -28 -24 -28q-28 0 -28 29q0 23 28 23q24 0 24 -24zM1418 928q0 -24 -25 -24q-27 0 -27 26t27 26
q25 0 25 -28zM1612 722q-13 -13 -25 -13q-26 0 -26 27q0 25 26 25q10 0 25 -14v-25zM1128 1220q0 -27 -26 -27t-26 27q0 25 25 25q27 0 27 -25zM1323 1025q0 -27 -26 -27t-26 27q0 25 23 25q29 0 29 -25zM1372 977q0 -28 -26 -28t-26 28q0 24 25 24q27 0 27 -24zM1466 879
q0 -24 -22 -24q-30 0 -30 26t28 26q24 0 24 -28zM1515 820q-13 -14 -24 -14q-28 0 -28 28q0 24 28 24q9 0 24 -14v-24zM1564 771q-13 -14 -24 -14q-28 0 -28 28q0 24 26 24q12 0 26 -13v-25zM1661 687q0 -27 -26 -27t-26 27q0 25 26 25t26 -25zM1177 1172q0 -28 -26 -28
q-29 0 -29 26t28 26q27 0 27 -24zM1271 1060q-13 -13 -22 -13q-30 0 -30 29q0 23 28 23q9 0 24 -14v-25zM1222 1109q-14 -14 -22 -14q-29 0 -29 28q0 24 27 24q10 0 24 -13v-25zM1323 928q0 -24 -26 -24t-26 24q0 28 23 28q29 0 29 -28zM1372 879q0 -24 -26 -24t-26 24
q0 28 25 28q27 0 27 -28zM1031 1220q0 -27 -24 -27q-28 0 -28 26t26 26t26 -25zM1080 1172q0 -28 -26 -28t-26 28q0 24 24 24q28 0 28 -24zM1515 722q-12 -13 -24 -13q-28 0 -28 27q0 25 26 25q11 0 26 -14v-25zM1564 673q-12 -13 -24 -13q-28 0 -28 27q0 25 26 25
q11 0 26 -14v-25zM1417 820q-13 -14 -24 -14q-27 0 -27 28q0 24 27 24q9 0 24 -14v-24zM1128 1109q-14 -14 -26 -14q-26 0 -26 28q0 24 25 24q13 0 27 -13v-25zM1466 771q-13 -14 -24 -14q-28 0 -28 28q0 24 28 24q10 0 24 -13v-25zM1177 1060q-13 -13 -26 -13q-29 0 -29 29
q0 23 28 23q12 0 27 -14v-25zM1223 1025q0 -27 -23 -27q-29 0 -29 29q0 23 27 23q25 0 25 -25zM1271 977q0 -28 -22 -28q-30 0 -30 29q0 23 28 23q24 0 24 -24zM1323 832q0 -26 -26 -26t-26 26t23 26q29 0 29 -26zM1372 783q0 -26 -26 -26t-26 26t25 26q27 0 27 -26z
M1079 1060q-13 -13 -25 -13q-26 0 -26 38q15 14 24 14q12 0 27 -14v-25zM1222 917q-13 -13 -22 -13q-29 0 -29 26t27 26q9 0 24 -14v-25zM1417 722q-13 -13 -25 -13q-26 0 -26 27q0 25 27 25q9 0 24 -14v-25zM1128 1025q0 -27 -26 -27q-27 0 -25 32v6q15 14 24 14
q27 0 27 -25zM933 1206q-12 -13 -24 -13q-28 0 -28 26t26 26q11 0 26 -14v-25zM982 1172q0 -28 -24 -28q-28 0 -28 26t26 26t26 -24zM1031 1109q-13 -14 -24 -14q-28 0 -28 28q0 24 26 24q12 0 26 -13v-25zM1271 879q0 -24 -22 -24q-30 0 -30 26t28 26q24 0 24 -28z
M1466 673q-12 -13 -24 -13q-28 0 -28 27q0 25 26 25q11 0 26 -14v-25zM1177 977q0 -28 -26 -28q-29 0 -29 29q0 23 29 23q26 0 26 -24zM1128 928q0 -24 -26 -24t-26 26t25 26q27 0 27 -28zM1323 735q0 -26 -26 -26t-26 26t23 26q29 0 29 -26zM1372 686q0 -26 -27 -26
q-25 0 -25 26t25 26q27 0 27 -26zM1177 879q0 -24 -26 -24q-29 0 -29 27q0 25 28 25q27 0 27 -28zM836 1220q0 -27 -26 -27t-26 27q0 25 26 25t26 -25zM1031 1025q0 -27 -24 -27q-28 0 -28 29q0 23 26 23t26 -25zM1080 977q0 -28 -25 -28q-27 0 -27 29q0 23 26 23t26 -24z
M982 1060q-12 -13 -24 -13q-29 0 -28 36v2q16 14 26 14q11 0 26 -14v-25zM884 1158q-13 -14 -24 -14q-27 0 -27 28q0 24 26 24q10 0 25 -14v-24zM1222 820q-14 -14 -22 -14q-29 0 -29 29q0 23 27 23q9 0 24 -14v-24zM933 1109q-13 -14 -24 -14q-28 0 -28 26t26 26
q12 0 26 -13v-25zM1271 771q-14 -14 -22 -14q-30 0 -30 28q0 24 28 24q10 0 24 -13v-25zM1031 917q-12 -13 -24 -13q-28 0 -28 26t26 26q11 0 26 -14v-25zM1080 879q0 -24 -26 -24t-26 26t24 26q28 0 28 -28zM1128 819q-35 -13 -26 -13q-26 0 -26 28q0 24 26 24q11 0 26 -14
v-25zM738 1206q-13 -13 -22 -13q-15 0 -26 10v28q15 14 24 14t24 -14v-25zM787 1158q-14 -14 -23 -14q-14 0 -25 10v32q11 10 22 10t26 -14v-24zM1177 770q-35 -13 -26 -13q-29 0 -29 30q0 22 29 22q12 0 26 -13v-26zM884 1060q-12 -13 -24 -13q-27 0 -27 27q0 25 26 25
q10 0 25 -14v-25zM1222 722q-13 -13 -22 -13q-29 0 -29 29q0 23 27 23q9 0 24 -14v-25zM836 1109q-14 -14 -26 -14q-26 0 -26 28q0 24 26 24q12 0 26 -13v-25zM933 1025q0 -27 -24 -27q-28 0 -28 29q0 23 26 23t26 -25zM982 977q0 -28 -23 -28q-29 0 -29 29q0 23 26 23
t26 -24zM1271 673q-13 -13 -22 -13q-30 0 -30 27q0 25 28 25q9 0 24 -14v-25zM933 917q-12 -13 -24 -13q-28 0 -28 27q0 25 26 25q11 0 26 -14v-25zM982 868q-12 -13 -24 -13q-28 0 -28 26t26 26q11 0 26 -14v-25zM1031 820q-13 -14 -24 -14q-28 0 -28 28q0 24 26 24
q11 0 26 -14v-24zM1128 722q-35 -13 -26 -13q-26 0 -26 27q0 25 26 25q11 0 26 -14v-25zM1079 770q-35 -13 -25 -13q-26 0 -26 28q0 24 26 24q11 0 25 -13v-26zM641 1206q-14 -13 -24 -13q-25 0 -25 26t26 26q11 0 23 -11v-28zM787 1060q-13 -13 -23 -13q-26 0 -26 27
q0 25 25 25q12 0 24 -11v-28zM1177 686q0 -26 -24 -26q-31 0 -31 29q0 23 29 23q26 0 26 -26zM689 1158q-15 -14 -24 -14q-24 0 -24 26t26 26q11 0 22 -10v-28zM738 1109q-14 -14 -22 -14q-26 0 -26 28q0 11 3 17.5t21 6.5q13 0 24 -10v-28zM836 1025q0 -27 -26 -27t-26 29
q0 23 26 23t26 -25zM885 978q0 -29 -23 -29q-30 0 -29 38q16 14 27 14q25 0 25 -23zM547 1220q0 -27 -25 -27q-8 0 -24 7v34q12 11 23 11q26 0 26 -25zM836 917q-13 -13 -26 -13q-26 0 -26 27q0 25 26 25q11 0 26 -14v-25zM1031 722q-13 -13 -23 -13q-26 0 -29 38
q16 14 26 14q11 0 26 -14v-25zM884 868q-12 -13 -24 -13q-27 0 -27 27q0 25 26 25q10 0 25 -14v-25zM933 820q-14 -14 -22 -14q-26 0 -29 38q16 14 25 14q11 0 26 -14v-24zM1079 673q-31 -13 -24 -13q-27 0 -27 38q16 14 26 14t25 -14v-25zM595 1172q0 -28 -27 -28
q-25 0 -25 26t26 26t26 -24zM982 771q-14 -14 -23 -14q-26 0 -29 39q15 13 26 13q12 0 26 -13v-25zM689 1060q-14 -13 -24 -13q-24 0 -24 26t26 26q10 0 22 -11v-28zM738 1011q-13 -13 -22 -13q-26 0 -26 29q0 23 24 23q12 0 24 -11v-28zM787 978q0 -29 -21 -29q-6 0 -27 13
v29q15 10 24 10q24 0 24 -23zM641 1109q-15 -14 -24 -14q-25 0 -25 26t26 26q12 0 23 -10v-28zM738 917q-13 -13 -22 -13q-26 0 -26 26t22 26q11 0 26 -14v-25zM547 1121q0 -26 -26 -26q-7 0 -23 8v34q10 10 23 10q26 0 26 -26zM787 868q-13 -13 -23 -13q-26 0 -26 26t23 26
q11 0 26 -14v-25zM933 722q-13 -13 -22 -13q-26 0 -29 38q16 14 27 14q12 0 24 -11v-28zM449 1219q0 -26 -24 -26q-14 0 -28 13v25q14 14 28 14q24 0 24 -26zM498 1172q0 -28 -24 -28q-13 0 -28 14v24q14 14 28 14q24 0 24 -24zM595 1060q-15 -13 -27 -13q-25 0 -25 26
t26 26q11 0 26 -14v-25zM836 820q-13 -14 -24 -14q-28 0 -28 28q0 24 26 24q11 0 26 -14v-24zM982 673q-13 -13 -23 -13q-26 0 -29 38q16 14 28 14t24 -11v-28zM884 771q-14 -14 -22 -14q-26 0 -29 39q15 13 27 13q13 0 24 -10v-28zM641 1011q-13 -13 -23 -13q-26 0 -26 27
q0 25 26 25q11 0 23 -11v-28zM689 963q-14 -14 -22 -14q-26 0 -26 28q0 24 26 24q11 0 22 -10v-28zM355 1220q0 -27 -28 -27q-24 0 -24 26t24 26q28 0 28 -25zM547 1025q0 -27 -26 -27l-23 10v31q11 11 23 11q26 0 26 -25zM641 930q0 -26 -24 -26q-25 0 -25 26t26 26
q23 0 23 -26zM690 881q0 -26 -25 -26q-24 0 -24 26t26 26q23 0 23 -26zM738 820q-14 -14 -22 -14q-26 0 -26 28q0 24 24 24q13 0 24 -10v-28zM787 771q-14 -14 -23 -14q-26 0 -26 28q0 24 25 24q13 0 24 -10v-28zM498 1073q0 -26 -26 -26t-26 27q0 25 26 25t26 -26zM836 722
q-12 -13 -24 -13q-29 0 -28 36v2q16 14 26 14q11 0 26 -14v-25zM884 673q-13 -13 -22 -13q-30 0 -30 31q0 1 1 7q16 14 27 14q12 0 24 -11v-28zM400 1170q0 -26 -24 -26q-28 0 -28 28q0 24 28 24q24 0 24 -26zM449 1121q0 -26 -24 -26q-28 0 -28 28q0 24 26 24t26 -26z
M595 977q0 -28 -26 -28t-26 29q0 23 25 23q27 0 27 -24zM595 868q-15 -13 -27 -13q-25 0 -25 26t26 26q11 0 26 -14v-25zM738 722q-14 -13 -21 -13q-13 0 -27 13v28q15 11 24 11q12 0 24 -11v-28zM787 673q-14 -13 -21 -13q-13 0 -27 13v29q13 10 24 10q12 0 24 -11v-28z
M641 820q-14 -14 -23 -14q-26 0 -26 26t26 26q12 0 23 -10v-28zM689 771q-14 -14 -22 -14q-26 0 -26 28q0 24 26 24q11 0 22 -10v-28z" />
  </g>

</svg>
