<?xml version="1.0" standalone="no"?>
<!DOCTYPE svg PUBLIC "-//W3C//DTD SVG 1.1//EN" "http://www.w3.org/Graphics/SVG/1.1/DTD/svg11.dtd" >
<svg viewBox="0 -442 2048 2048">
  <g transform="matrix(1 0 0 -1 0 1606)">
   <path fill="currentColor"
d="M1530 -275h-1267l-181 319v1457h1249l199 -198v-1578zM1370 15v1319q-8 8 -37 36v-1283q0 -2 37 -72zM1460 -141v1388q-15 13 -44 39v-1345q0 -8 44 -82zM1239 102v1309h-800q4 -10 4 -20q0 -32 -30 -32q-33 0 -33 35q0 3 1.5 8.5t1.5 8.5h-65q4 -10 4 -19q0 -33 -30 -33
q-41 0 -34 51h-61q4 -7 4 -15q0 -33 -29 -36v-55q28 -22 28 -35q0 -21 -28 -31v-58q28 -13 28 -32q0 -21 -28 -31v-59q28 -13 28 -31t-28 -32v-58q28 -2 28 -32q0 -31 -28 -31v-58q28 -19 28 -32q0 -25 -28 -35v-54q28 -22 28 -35q0 -22 -28 -32v-58q28 -13 28 -32
q0 -29 -28 -34v-59q28 -13 28 -31q0 -22 -28 -32v-58q28 -14 28 -32q0 -31 -28 -31v-58q28 -17 28 -32q0 -31 -27 -32v-37h23q-1 38 35 38q31 0 31 -28q0 -6 -3 -9h58q8 37 35 37q37 0 32 -38h58q-1 6 -1 11q0 25 30 27l3 -2v-36h765zM1305 -57q-12 19 -36 58h-1065
q13 -19 35 -58h1066zM1370 -171q-14 29 -28 47h-1066q9 -16 29 -47h1065zM473 1301h-11q-20 0 -20 39q0 14 19 22h12v-61zM446 1271q0 -33 -33 -33t-33 33t33 33t33 -33zM383 1333q0 -33 -31 -33q-34 0 -34 33q0 30 34 30q31 0 31 -30zM473 1179h-11q-20 0 -20 40
q0 12 19 22h12v-62zM446 1150q0 -33 -33 -33t-33 33t33 33t33 -33zM321 1271q0 -33 -29 -33q-33 0 -33 35q0 31 33 31q29 0 29 -33zM383 1210q0 -31 -32 -31q-33 0 -33 31q0 32 34 32q31 0 31 -32zM262 1333q0 -33 -31 -33q-35 0 -35 33q0 30 33 30t33 -30zM473 1055
q-11 4 -21 8.5t-10 23.5q0 27 27 33zM321 1150q0 -33 -29 -33q-33 0 -33 33t33 33q29 0 29 -33zM446 1028q0 -32 -33 -32t-33 32q0 30 33 30t33 -30zM262 1212q0 -33 -33 -33t-33 33q0 30 35 30q31 0 31 -30zM383 1089q0 -35 -31 -35q-34 0 -34 35q0 31 34 31q31 0 31 -31z
M473 934q-31 8 -31 28v13q0 24 31 24v-65zM446 907q0 -33 -33 -33t-33 31q0 32 35 32q31 0 31 -30zM321 1028q0 -32 -31 -32t-31 31t33 31q29 0 29 -30zM383 966q0 -33 -31 -33q-34 0 -34 35q0 31 34 31q31 0 31 -33zM262 1089q0 -35 -31 -35q-35 0 -35 35q0 31 33 31
t33 -31zM473 813q-4 -1 -6 -1q-25 0 -25 33q0 29 16 29h15v-61zM321 907q0 -33 -29 -33q-33 0 -33 31q0 32 31 32t31 -30zM383 845q0 -33 -31 -33q-34 0 -34 33t36 33q29 0 29 -33zM446 786q0 -36 -33 -36t-33 34q0 31 33 31t33 -29zM262 966q0 -33 -33 -33t-33 33t33 33
t33 -33zM473 691h-11q-20 0 -20 33q0 29 19 29h12v-62zM262 845q0 -33 -33 -33t-33 33t33 33t33 -33zM446 661q0 -33 -33 -33t-33 33t33 33t33 -33zM321 784q0 -34 -29 -34q-33 0 -33 34q0 31 33 31q29 0 29 -31zM383 724q0 -33 -31 -33q-34 0 -34 33q0 29 34 29
q31 0 31 -29zM473 570h-11q-20 0 -20 40q0 12 19 22h12v-62zM446 540q0 -36 -33 -36t-33 36q0 33 33 33t33 -33zM262 724q0 -33 -31 -33q-35 0 -35 33q0 29 33 29t33 -29zM321 661q0 -33 -29 -33q-33 0 -33 35q0 31 33 31q29 0 29 -33zM383 601q0 -32 -32 -32q-33 0 -33 32
q0 31 34 31q31 0 31 -31zM473 445h-16q-15 9 -15 26v11q0 25 19 25h12v-62zM262 602q0 -33 -33 -33t-33 33q0 30 35 30q31 0 31 -30zM321 540q0 -36 -29 -36q-33 0 -33 34q0 35 33 35q29 0 29 -33zM383 476q0 -31 -31 -31q-34 0 -34 31t34 31q31 0 31 -31zM446 415
q0 -33 -33 -33t-33 33q0 30 33 30t33 -30zM473 320q-31 8 -31 33q0 27 27 33zM446 294q0 -33 -33 -33t-33 33q0 30 33 30t33 -30zM262 478q0 -33 -33 -33t-33 33q0 29 35 29q31 0 31 -29zM321 415q0 -33 -29 -33q-33 0 -33 33q0 30 31 30t31 -30zM383 355q0 -35 -31 -35
q-34 0 -34 35q0 31 34 31q31 0 31 -31zM473 199l-6 -1q-25 0 -25 34q0 24 31 32v-65zM446 173q0 -33 -33 -33t-33 31t33 31t33 -29zM321 294q0 -33 -29 -33q-33 0 -33 31q0 32 33 32q29 0 29 -30zM383 232q0 -33 -31 -33q-34 0 -34 34q0 32 34 32q31 0 31 -33zM262 353
q0 -33 -31 -33q-35 0 -35 33t35 33q31 0 31 -33zM262 232q0 -33 -31 -33q-35 0 -35 33t35 33q31 0 31 -33zM321 171q0 -31 -29 -31q-33 0 -33 31t33 31q29 0 29 -31z" />
  </g>

</svg>
