<?xml version="1.0" standalone="no"?>
<!DOCTYPE svg PUBLIC "-//W3C//DTD SVG 1.1//EN" "http://www.w3.org/Graphics/SVG/1.1/DTD/svg11.dtd" >
<svg viewBox="0 -442 2110 2048">
  <g transform="matrix(1 0 0 -1 0 1606)">
   <path fill="currentColor"
d="M2110 1130v-1063q0 -60 -11 -93q-5 -16 -40 -45.5t-52 -33.5q-91 -21 -126 -21h-1598q-53 0 -158 34q-43 75 -43 90v1138q0 -6 5 17q10 44 15 56q12 28 40 43q50 28 110 28h1662q40 0 86 -14q58 -17 64 -46q8 -6 21 -20q25 -33 25 -70zM2083 938v75h-81v-75h81zM2083 740
v72h-81v-72h81zM1984 1163q-3 17 -11 49q-54 18 -82 18h-1596q-55 0 -55 -34q0 -35 40 -35q4 0 22 10t22 10h1606q-5 0 54 -18zM1912 210q0 60 -56 97q-49 31 -113 31q-65 0 -115 -31q-58 -36 -58 -97q0 -60 57 -98q50 -34 114 -34q66 0 115 33q56 37 56 99zM1959 488v600
q0 8 -15 24t-24 16h-1569q-50 0 -67 -6q-24 -8 -49 -44q-15 -21 -15 -41v-542q0 -61 68 -61h1622q13 0 31 20.5t18 33.5zM1505 130q0 93 -57 141q-25 21 -52 21q-3 0 -59 -34q-60 -37 -67 -40q56 -16 56 -49q0 -8 -1 -16q-14 -21 -41 -47q111 -74 120 -74q18 0 56.5 31
t42.5 49q2 7 2 18zM1320 317q-69 26 -80 28q-24 6 -86 6q-99 0 -229 -37q98 -88 110 -88q7 0 20 3.5t20 3.5q15 0 46 -1.5t47 -1.5q38 0 49 5q3 2 37 32q28 23 66 50zM1294 1q-40 27 -117 84q-22 -13 -24 -13h-108q-37 0 -73 -25l-64 -46q29 -11 76 -15q66 -6 77 -8t13.5 -7
t11.5 -5q62 0 150 14q15 2 58 21zM951 96q-16 13 -32.5 27t-16.5 36q0 7 17 25.5t19 23.5q-89 78 -104 78q-23 0 -83 -51q-30 -25 -30 -89q0 -8 5 -14q7 -71 115 -107q11 8 110 71zM652 210q0 62 -56 97q-48 31 -114 31t-114 -31q-55 -36 -55 -99q0 -61 55 -98
q48 -32 112 -32q67 0 116 32q56 36 56 100zM1932 501q0 -12 -18 -28t-30 -16h-1592q-6 0 -17.5 9.5t-11.5 15.5v589q32 21 36 21q13 0 39 -5t39 -5h1520q23 0 35 -24v-557zM1804 583v419q0 34 -88 34h-1299q-7 0 -24.5 -17.5t-17.5 -23.5v-395q0 -10 16 -25.5t26 -15.5h1352
q-3 0 35 24zM1728 952q0 11 -14 -31h-61q-17 25 -17 31q0 4 4 8h84q4 0 4 -8zM1740 921q0 -63 -14 -112q-14 34 -14 28q0 79 28 107v-23zM1646 903q0 -68 -23 -94l-5 4v10v14q0 5 6 107q22 -22 22 -41zM1721 794q0 -21 -39 -21q-56 0 -56 21q0 22 36 22q59 0 59 -22z
M1563 952q0 -6 -17 -31h-61q-10 18 -10 24v15h84q4 0 4 -8zM1573 816q-5 -3 -15 -7q-11 33 -11 38q0 41 7 63q7 11 19 34v-128zM1731 755l-14 -111q-19 27 -19 38q0 55 25 101q10 -11 8 -28zM1481 901v-21q0 -41 -24 -74q-12 9 -9 33l11 105q22 -22 22 -43zM1636 750
q0 -33 -8 -71q0 -2 -20 -35l-8 4v11q0 100 21 124q15 -44 15 -33zM1708 628h-88v12q0 4 17 26q6 1 12 1h33q26 0 26 -27v-12zM1557 794q0 -21 -44 -21q-24 0 -37 1q-15 13 -15 19q0 23 38 23h16q42 0 42 -22zM1399 952q0 -5 -17 -30q-6 -1 -15 -1q-33 0 -37 1q-12 5 -23 30
l7 8h81q4 0 4 -8zM1415 944l-10 -131q-4 0 -11 -7q-12 35 -12 34q0 82 33 104zM1570 758q0 -37 -14 -114q-19 25 -19 57v19q0 31 22 63q1 -4 6 -7.5t5 -17.5zM1317 895q0 -66 -29 -86v18q0 68 7 117q22 -31 22 -49zM1471 738q0 -60 -29 -94l-5 5q2 80 16 130q18 -11 18 -41z
M1544 632q-4 -4 -88 -4l-4 8q12 16 17 31h61q5 -12 14 -35zM1392 794q0 -21 -39 -21q-56 0 -56 21q0 22 40 22h11q8 0 34 -2q10 -16 10 -20zM1234 960q-5 -15 -17 -39h-61q-10 30 -10 39h88zM1251 940l-11 -127q-6 -1 -7 -7q-18 25 -18 33q0 17 9 55q9 43 18 49zM1405 761
q0 -33 -14 -117q-15 23 -15 59v27q0 23 18 53q11 -11 11 -22zM1152 906q0 -84 -25 -100q-11 8 -11 16q0 86 18 122q18 -51 18 -38zM1303 738q0 -50 -22 -94q-7 9 -7 23q0 109 19 112q10 -20 10 -41zM1382 632q-13 0 -40.5 -2t-40.5 -2h-10q0 13 13 39h65q5 -12 13 -35z
M1228 794q0 -3 -18 -21h-67q-7 14 -7 20q0 23 30 23q62 0 62 -22zM1241 761q0 -18 -4 -51q-3 -36 -4 -51q-2 -6 -9 -15q-19 41 -19 35q0 48 7 76q8 10 21 28q8 -16 8 -22zM1142 746q0 -46 -28 -102q-5 9 -5 27t4 50q4 36 4 51l11 11q14 -41 14 -37zM1214 632q-4 -4 -55 -4
h-33q0 11 14 39h61q5 -12 13 -35zM1056 796q0 -3 -10 -23h-71q-7 14 -7 21q0 1 10 21h71q7 -14 7 -19zM905 960q-6 -13 -17 -39h-61q-14 43 -14 31q0 5 4 8h88zM918 944v-40q0 -14 -3 -40.5t-3 -39.5q0 -7 -11 -15q-12 20 -12 41q0 66 29 94zM819 895q0 -39 -4 -58
q-7 -10 -17 -31q-8 9 -8 26q0 -9 11 112q18 -20 18 -49zM895 794q0 -21 -62 -21q-30 0 -30 21q0 22 34 22h29q29 0 29 -22zM740 952q-19 -31 -33 -31h-10q-22 0 -35 1q-14 38 -14 30q0 3 5 8h83q1 -5 4 -8zM753 929q2 -68 -14 -120q-18 15 -18 35q0 83 32 100v-15zM908 766
q0 -38 -14 -122q-19 36 -19 42q0 38 8 69q5 8 13 24q12 -1 12 -13zM655 890v-22q0 -30 -22 -62q-12 18 -11 24l11 114q22 -26 22 -54zM810 740q0 -55 -28 -96l-9 8q3 45 22 131q15 -30 15 -43zM885 636q-3 -4 -3 -8h-85q-4 0 -4 8q0 7 17 30q6 1 11 1h33q18 0 31 -31z
M731 796q0 -23 -36 -23q-58 0 -60 21q10 22 43 22q10 0 38 -2q15 -12 15 -18zM572 960v-13q0 -2 -17 -25q-6 -1 -15 -1q-27 0 -42 1q-18 25 -18 30q0 3 5 8h87zM585 923q2 -64 -10 -114q-19 17 -19 30q0 78 29 105v-21zM741 746v-16q0 -25 -4 -82l-8 -4q-18 29 -18 49v14
q0 53 29 72q1 -18 1 -33zM490 899q0 -61 -22 -90q-11 6 -11 11q0 -7 11 124q22 -26 22 -45zM645 750q0 -33 -8 -71q-1 -3 -21 -35v88q0 6 2 19.5t2 20.5l11 11q14 -41 14 -33zM717 630h-88v9q0 3 17 28h61q5 -10 10 -37zM566 794q0 -21 -38 -21q-54 0 -54 20q0 23 31 23
q61 0 61 -22zM575 742q0 -24 -10 -98q-19 30 -19 46q0 65 25 89q4 -16 4 -37zM477 737q0 -48 -23 -93l-5 5q1 40 9 119q4 5 12 11q7 -28 7 -42zM556 632q-12 0 -37 -2t-37 -2h-14q-4 0 -4 8q0 -10 14 31h61q11 -16 17 -35z" />
  </g>

</svg>
