<?xml version="1.0" standalone="no"?>
<!DOCTYPE svg PUBLIC "-//W3C//DTD SVG 1.1//EN" "http://www.w3.org/Graphics/SVG/1.1/DTD/svg11.dtd" >
<svg viewBox="0 -442 2048 2048">
  <g transform="matrix(1 0 0 -1 0 1606)">
   <path fill="currentColor"
d="M1700 -306h-1369q-4 7 -69 124q-180 13 -180 188q0 24 8.5 47l8.5 23q0 4 -6 16t-7 17q-4 26 -4 38q0 10 4 38q1 5 7 18t6 18q0 4 -6 16t-7 17q-4 26 -4 38q0 11 4 39q1 5 7 18t6 18q0 4 -6 16t-7 17q-4 26 -4 38q0 10 4 38q1 5 7 18t6 18q0 4 -6 16t-7 17q-4 26 -4 38
q0 11 4 39q1 5 7 18t6 18q0 4 -6 16t-7 17q-4 26 -4 38q0 10 4 38q1 5 7 18t6 18q0 4 -6 16t-7 17q-4 26 -4 39q0 10 4 38q1 5 7 18t6 18q0 4 -6 16t-7 17q-4 26 -4 38q0 9 4 38q1 6 7 19t6 18q0 4 -6 15.5t-7 16.5q-4 25 -4 39q0 10 4 38q1 5 7 18t6 18q0 4 -6 16t-7 17
q-4 26 -4 40q0 78 51.5 130.5t129.5 52.5q8 0 25 -3t25 -3h1254l133 -163v-1633zM1623 -171v1494q-20 19 -61 58v-1441q0 -2 61 -111zM396 1298v19q0 52 -40.5 91t-92.5 39q-58 0 -94.5 -45t-35.5 -104q55 53 130 53q71 0 133 -53zM1475 -51v1451h-1048q19 -48 19 -67
q0 -41 -1 -48.5t-6.5 -24t-5.5 -20.5q0 5 9 -27q4 -14 4 -46q0 -22 -1 -28.5t-6.5 -23t-5.5 -20.5q0 5 9 -27q4 -14 4 -46q0 -23 -1 -29.5t-6.5 -23t-5.5 -20.5q0 5 9 -27q4 -14 4 -46q0 -20 -6.5 -44.5t-6.5 -28.5q0 6 9 -26q4 -14 4 -41q0 -32 -4 -48q-9 -36 -9 -30
q0 -1 6.5 -25.5t6.5 -42.5q0 -31 -4 -47q-9 -36 -9 -31q0 -9 6.5 -27.5t6.5 -28.5q0 -42 -4 -59q-9 -36 -9 -30q0 4 9 -26q4 -15 4 -47q0 -27 -4 -43q-9 -36 -9 -30q0 4 9 -27q4 -16 4 -46q0 -15 -6.5 -40.5t-6.5 -33.5q0 -7 5.5 -22t5.5 -23q0 -28 -26 -28q-15 0 -40 51
q-29 58 -67 75v-178h1164zM396 1153v18q0 52 -40.5 91t-92.5 39q-58 0 -94.5 -44.5t-35.5 -103.5q54 52 130 52q72 0 133 -52zM396 1007v19q0 52 -40 91t-93 39q-58 0 -94.5 -45t-35.5 -104q49 53 130 53q70 0 133 -53zM396 861v19q0 52 -40.5 91t-92.5 39q-58 0 -94.5 -45
t-35.5 -104q55 53 130 53q71 0 133 -53zM396 716v18q0 52 -40.5 91.5t-92.5 39.5q-58 0 -94.5 -45t-35.5 -104q55 53 130 53q71 0 133 -53zM396 570v19q0 52 -40 91t-93 39q-58 0 -94.5 -45t-35.5 -104q49 53 130 53q70 0 133 -53zM396 425v18q0 52 -40.5 91.5t-92.5 39.5
q-58 0 -94.5 -45t-35.5 -104q55 53 130 53q71 0 133 -53zM1548 -226l-44 78h-1163l43 -78h1164zM396 279v19q0 52 -40.5 91t-92.5 39q-58 0 -94.5 -45t-35.5 -104q55 53 130 53q71 0 133 -53zM396 134v18q0 52 -40 91t-93 39q-58 0 -94.5 -44.5t-35.5 -103.5q49 53 130 53
q70 0 133 -53zM224 -114v241h-11q-81 -43 -81 -112q0 -109 92 -129zM1157 964h-513v267h513v-267z" />
  </g>

</svg>
