<?xml version="1.0" standalone="no"?>
<!DOCTYPE svg PUBLIC "-//W3C//DTD SVG 1.1//EN" "http://www.w3.org/Graphics/SVG/1.1/DTD/svg11.dtd" >
<svg viewBox="0 -442 2048 2048">
  <g transform="matrix(1 0 0 -1 0 1606)">
   <path fill="currentColor"
d="M1914 580q0 -422 -247 -683q-253 -267 -672 -267q-416 0 -667 268q-246 262 -246 681q0 370 232 735q114 179 151 179q12 0 22 -13q1 -1 73 -107l146 -214q16 23 173 247q29 44 89 124q11 13 28 13q23 0 71 -69q74 -106 223 -315q75 111 149 219q23 35 70 102
q10 13 24 13q18 0 78 -69q303 -346 303 -844zM1820 588q0 407 -283 789l-138 -213q-22 -37 -44 -73q-34 -48 -63 -48q-31 0 -67 50q-25 39 -50 77q-1 1 -75 110q-35 48 -104 144q-53 -79 -163 -235q-27 -44 -55 -88q-40 -58 -75 -58q-27 0 -57 41q-20 33 -40 65
q-50 72 -150 228q-280 -429 -280 -789q0 -384 215 -621q223 -246 604 -246q612 0 782 570q43 144 43 297zM1645 187h-1294v715h1294v-715zM1585 243v599h-1174v-599h1174z" />
  </g>

</svg>
