<?xml version="1.0" standalone="no"?>
<!DOCTYPE svg PUBLIC "-//W3C//DTD SVG 1.1//EN" "http://www.w3.org/Graphics/SVG/1.1/DTD/svg11.dtd" >
<svg viewBox="0 -442 2048 2048">
  <g transform="matrix(1 0 0 -1 0 1606)">
   <path fill="currentColor"
d="M1966 489h-307v-842h-1121q-56 91 -159 276v37q-2 2 -14 2q-3 0 -123 -3l-160 289v1283h1103l175 -175v-140h128q60 -54 168 -168q2 -2 1 -22h174v-222h-173v-94h308v-221zM1801 838v152h-63v-152h63zM1516 1024v45l-32 31v-76h32zM1936 522v152h-64v-152h64zM1302 1024
v280q-25 26 -42 38v-318h42zM1400 1024v113h-42v-113h42zM1596 709v94h-39v-94h39zM1219 222v1162q-5 6 -32 31v-1130q0 -3 32 -63zM1516 -93v896h-33v-836q0 3 33 -60zM1400 -19v822h-42v-822h42zM1301 81v722h-41v-646q0 -9 41 -76zM1596 -234v722h-39v-650q0 -6 39 -72z
M1103 296v1156h-940v-1156h940zM1162 155q-9 17 -29 51h-941q9 -18 31 -51h939zM1458 -160q-9 18 -31 51h-941q11 -17 34 -51h938zM1223 54q-12 16 -25 42h-942q7 -14 22 -42h945zM1520 -261q-9 14 -29 42h-938q6 -15 22 -42h945z" />
  </g>

</svg>
