<?xml version="1.0" standalone="no"?>
<!DOCTYPE svg PUBLIC "-//W3C//DTD SVG 1.1//EN" "http://www.w3.org/Graphics/SVG/1.1/DTD/svg11.dtd" >
<svg viewBox="0 -442 2048 2048">
  <g transform="matrix(1 0 0 -1 0 1606)">
   <path fill="currentColor"
d="M1970 -102q0 -143 -53 -248h-1212l-488 601v66q10 -1 18 -1q28 0 28 43q0 13 -61 89q-75 93 -120 150v69h8q10 0 30 1l4 4q7 53 7 146q0 92 -10 126q-3 9 -21 32.5t-18 26.5v65h135v68h18h19q12 25 12 124q0 124 -10 156q-2 8 -20.5 30.5t-18.5 25.5v65h1095
q10 0 297 -276q276 -266 310 -303q5 -6 24 -59q27 -76 27 -186q0 -134 -47 -220h-150q44 -98 54 -173v-51q0 -41 31 -67q49 -42 58 -56q54 -81 54 -248zM1798 960l-44 44q-17 -18 -17 -29q0 -29 33 -29q24 0 28 14zM1369 1389q-16 16 -51 44q-10 -15 -10 -27q0 -34 32 -34
q12 0 29 17zM1421 1337l-44 44q-17 -13 -17 -29q0 -32 34 -32q23 0 27 17zM1476 1282q-15 15 -47 44q-14 -4 -14 -28q0 -33 32 -33q16 0 29 17zM1528 1230l-44 44q-17 -18 -17 -29q0 -32 34 -32q25 0 27 17zM1584 1175q-28 28 -48 44q-14 -14 -14 -28q0 -34 34 -34
q21 0 28 18zM1639 1119q-16 17 -51 45q-11 -16 -11 -28q0 -34 33 -34q12 0 29 17zM1746 1012q-15 15 -47 44q-14 -6 -14 -27q0 -34 32 -34q19 0 29 17zM1691 1067l-45 44q-17 -13 -17 -29q0 -32 34 -32q26 0 28 17zM1314 1444l-16 16h-45v-10q0 -23 33 -23q20 0 28 17z
M1737 947q-16 8 -19 8q-5 0 -21 -8h40zM1697 975q0 35 -32 35q-36 0 -36 -35q0 -29 34 -29t34 29zM1320 1354q0 33 -32 33q-35 0 -35 -35q0 -32 32 -32q35 0 35 34zM1375 1300q0 32 -34 32q-33 0 -33 -34q0 -33 32 -33q11 0 23 12t12 23zM1427 1246q0 34 -32 34
q-35 0 -35 -35q0 -32 34 -32q33 0 33 33zM1590 1084q0 34 -33 34q-35 0 -35 -36q0 -32 32 -32q36 0 36 34zM1482 1193q0 32 -33 32q-34 0 -34 -35q0 -33 32 -33q35 0 35 36zM1645 1030q0 32 -34 32t-34 -33q0 -34 33 -34q35 0 35 35zM1535 1137q0 33 -33 33q-35 0 -35 -33
q0 -35 35 -35q33 0 33 35zM1265 1407q0 32 -32 32q-36 0 -36 -32q0 -35 36 -35q32 0 32 35zM1212 1460h-66q1 -33 32 -33q25 0 34 33zM1626 947q-8 8 -16 8q-5 0 -20 -8h36zM1590 975q0 35 -34 35t-34 -35q0 -29 34 -29t34 29zM1320 1246q0 34 -34 34q-33 0 -33 -37
q0 -30 33 -30q34 0 34 33zM1375 1193q0 32 -34 32q-33 0 -33 -34t30 -34q37 0 37 36zM1482 1085q0 33 -32 33q-35 0 -35 -36q0 -32 32 -32q35 0 35 35zM1427 1139q0 31 -32 31q-35 0 -35 -33q0 -35 35 -35q32 0 32 37zM1535 1030q0 32 -31 32q-37 0 -37 -32q0 -35 35 -35
q33 0 33 35zM1102 1460h-67q1 -33 32 -33q26 0 35 33zM1519 947q-8 8 -17 8q-5 0 -20 -8h37zM1482 975q0 35 -33 35q-34 0 -34 -35q0 -29 34 -29q33 0 33 29zM1375 1084q0 34 -35 34q-32 0 -32 -37q0 -31 32 -31q35 0 35 34zM1320 1137q0 33 -32 33q-35 0 -35 -34t33 -34
q34 0 34 35zM1265 1193q0 32 -32 32q-36 0 -36 -34t34 -34t34 36zM1427 1030q0 32 -32 32q-35 0 -35 -32q0 -35 35 -35q32 0 32 35zM992 1450v10h-67q2 -33 33 -33q7 0 20.5 8t13.5 15zM1412 947q-16 8 -18 8q-3 0 -19 -8h37zM1375 977q0 10 -12 21.5t-22 11.5
q-33 0 -33 -35q0 -29 32 -29q35 0 35 31zM1213 1137q0 33 -34 33t-34 -34t33 -34q35 0 35 35zM1265 1084q0 34 -32 34q-36 0 -36 -36q0 -32 34 -32t34 34zM1320 1030q0 32 -34 32q-33 0 -33 -33q0 -34 32 -34q35 0 35 35zM1158 1191q0 34 -33 34q-38 0 -38 -34t35 -34
q36 0 36 34zM885 1450v10h-67v-3q-3 -30 33 -30q34 0 34 23zM1265 1300q0 32 -31 32q-25 0 -38 -37l-23 23q40 6 40 37q0 32 -32 32q-29 0 -38 -37l-19 20q34 14 34 39q0 30 -34 30q-29 0 -39 -37h-35q-8 37 -35 37q-26 0 -37 -37h-35q-9 37 -37 37q-29 0 -36 -37h-38v5
q3 32 -33 32q-29 0 -36 -37h-38q-9 37 -33 37q-26 0 -39 -36q-5 -1 -13 -1q4 -5 12 -16q-49 0 -49 -34q0 -32 32 -32q26 0 30 19q2 13 4 27q9 -9 29 -32l-4 -2h-4q-12 1 -23.5 -9.5t-11.5 -22.5q0 -35 35 -35q20 0 25 13t9 27q20 -20 20 -23q0 -5 -5 -5q-29 0 -29 -32
q0 -33 45 -33q11 0 25 34q5 -1 35 -4q4 -9 9 -19t18 -10q36 0 45 31h36q7 -31 47 -31q13 0 25 30h38q7 -31 22 -31q35 0 39.5 15.5t38.5 15.5q9 0 13 -2v-5q-2 -23 32 -23q21 0 26 11q10 17 11 18q20 2 28 2q-6 6 -18 19q40 1 40 37zM1305 947q-16 8 -19 8q-5 0 -21 -8h40z
M1265 975q0 35 -31 35q-37 0 -37 -35q0 -29 34 -29t34 29zM1213 1030q0 32 -34 32t-34 -35q0 -32 33 -32q35 0 35 35zM1158 1084q0 34 -33 34q-38 0 -38 -34t35 -34q36 0 36 34zM1047 1193q0 32 -32 32q-35 0 -35 -34t34 -34q33 0 33 36zM1102 1139q0 31 -33 31
q-34 0 -34 -34t32 -34q35 0 35 37zM777 1460h-66v-10q0 -23 33 -23q32 0 33 33zM1197 947q-16 8 -18 8q-5 0 -21 -8h39zM1158 975q0 35 -34 35q-11 0 -24 -11t-13 -22q0 -31 35 -31q36 0 36 29zM940 1191q0 34 -32 34q-35 0 -35 -35q0 -33 32 -33q35 0 35 34zM1047 1084
q0 34 -32 34q-35 0 -35 -36q0 -32 32 -32q35 0 35 34zM1102 1030q0 32 -33 32q-34 0 -34 -33q0 -34 32 -34q35 0 35 35zM992 1137q0 33 -30 33q-37 0 -37 -33q0 -35 35 -35q32 0 32 35zM670 1460h-67q1 -33 32 -33q27 0 35 33zM1887 713q0 112 -29 153h-1074v-10q0 16 8 -34
q7 -43 7 -106q0 -78 -18 -153h1084q22 68 22 150zM1084 947q-8 8 -17 8q-5 0 -20 -8h37zM1047 977q0 33 -32 33q-35 0 -35 -35q0 -29 34 -29q33 0 33 31zM940 1084q0 34 -32 34q-35 0 -35 -36q0 -32 32 -32q35 0 35 34zM833 1191q0 34 -34 34t-34 -35q0 -33 33 -33
q35 0 35 34zM885 1139q0 31 -32 31q-35 0 -35 -34t35 -34q32 0 32 37zM615 1409q0 30 -32 30q-35 0 -35 -33q0 -34 35 -34q32 0 32 37zM992 1030q0 32 -30 32q-37 0 -37 -32q0 -35 35 -35q32 0 32 35zM563 1460h-67q1 -33 32 -33q26 0 35 33zM1868 113l-47 42
q-4 -15 -14 -42q13 -2 25 -2h10q12 0 26 2zM977 947q-8 8 -17 8q-5 0 -20 -8h37zM940 975q0 35 -34 35q-33 0 -33 -35q0 -29 33 -29q34 0 34 29zM563 1354q0 33 -32 33q-35 0 -35 -35q0 -32 32 -32q35 0 35 34zM670 1246q0 34 -33 34q-34 0 -34 -35q0 -32 34 -32q33 0 33 33
zM833 1084q0 34 -32 34q-36 0 -36 -36q0 -32 33 -32q35 0 35 34zM508 1407q0 32 -32 32q-35 0 -35 -33q0 -34 33 -34q34 0 34 35zM615 1300q0 32 -32 32q-35 0 -35 -34q0 -33 35 -33q32 0 32 35zM723 1193q0 32 -33 32q-35 0 -35 -34t34 -34t34 36zM778 1137q0 33 -32 33
q-36 0 -36 -34t34 -34t34 35zM885 1030q0 32 -32 32q-35 0 -35 -33q0 -34 35 -34q32 0 32 35zM453 1450v10h-67q5 -33 33 -33q34 0 34 23zM870 947q-8 8 -17 8q-5 0 -20 -8h37zM345 1460h-15q4 -5 12 -11q3 3 3 9v2zM401 1409q0 6 -9 18t-15 12h-21l-2 -7q12 -16 39 -45
q8 14 8 22zM453 1355q0 32 -32 32q-9 0 -20 -11q14 -15 45 -44q7 13 7 23zM508 1300q0 32 -32 32q-12 0 -23 -14q10 -10 41 -47q14 21 14 29zM563 1246q0 10 -11.5 22t-21.5 12q-22 -9 -28 -17q26 -33 44 -47q17 17 17 30zM833 977q0 10 -12 21.5t-22 11.5q-34 0 -34 -35
q0 -29 34 -29t34 31zM615 1191q0 34 -32 34q-30 0 -32 -21q14 -16 44 -47q20 20 20 34zM723 1085q0 33 -33 33q-10 0 -22.5 -10.5t-12.5 -20.5q0 -5 16 -21t22 -16q30 0 30 35zM670 1137q0 33 -33 33q-15 0 -34 -20q13 -16 38 -48q29 13 29 35zM778 1030q0 32 -32 32
q-36 0 -36 -32q0 -9 12.5 -22t21.5 -13q34 0 34 35zM1697 465q-11 12 -25 33l-954 4q-8 0 -20 14q-42 51 -126 154l-264 321h-115l466 -526h1038zM729 737q0 129 -14 150q-11 17 -124 151q-68 80 -284 331q17 -81 17 -187q0 -35 -15 -100l403 -494q17 93 17 149zM1752 246
q0 100 -28 151h-1075v-10q0 15 8 -37q7 -45 7 -104q0 -126 -24 -167h1084q28 76 28 167zM1887 -102q0 32 -7 85q-2 16 -7 16h-1080v-22q0 -6 3 -17.5t3 -17.5v-94q0 -53 -24 -115l1084 -3q28 85 28 168zM596 353q0 43 -16 65q-186 247 -406 474q1 -19 8 -60.5t7 -64.5
q0 -88 -15 -154l403 -494q19 106 19 234zM728 20h-120l-286 310q-6 -43 -13 -66l403 -495q16 72 16 76v175z" />
  </g>

</svg>
