<?xml version="1.0" standalone="no"?>
<!DOCTYPE svg PUBLIC "-//W3C//DTD SVG 1.1//EN" "http://www.w3.org/Graphics/SVG/1.1/DTD/svg11.dtd" >
<svg viewBox="0 -442 2048 2048">
  <g transform="matrix(1 0 0 -1 0 1606)">
   <path fill="currentColor"
d="M1966 412q0 -145 -52 -248h-1293l-539 662v69h8q10 0 29 1q11 24 11 87q0 161 -10 192q-3 8 -20.5 30t-17.5 26v65h1176q5 0 117 -110l371 -363q59 -58 173 -176q6 -6 21 -53q26 -79 26 -182zM1810 647l-415 413q7 -10 7 -23q0 -19 -20 -19q-28 0 -28 23t25 23q7 0 15 -3
q-43 43 -86 87q-72 72 -79 72q-4 0 -16 -11t-16 -11q-9 0 -18 11t-30 11q-13 0 -20 -2q-17 -20 -22 -20q-14 0 -21 11t-28 11q-13 0 -20 -2q-17 -20 -23 -20q-12 0 -20.5 11t-27.5 11q-11 0 -19 -2q-25 -20 -24 -20q-5 0 -15.5 11t-31.5 11q-13 0 -21 -2q-25 -20 -23 -20
q-7 0 -28 20q-14 2 -20 2q-13 0 -20 -2q-17 -20 -24 -20q-17 0 -25 20q-14 2 -21 2q-14 0 -22 -2q-15 -20 -24 -20q-7 0 -17 11t-29 11t-28 -11t-18 -11q-10 0 -20 11t-32 11q-13 0 -24.5 -11t-15.5 -11q-9 0 -17 11t-27 11q-12 0 -20 -2l-26 -20q-10 0 -18.5 11t-27.5 11
q-12 0 -20 -2l-26 -20q-17 0 -25 21h-41q-7 -14 -7 -18q0 -13 11 -12q12 6 16 6q-1 0 22 -11q0 -5 -1.5 -16t-1.5 -16t1 -9q27 9 26 9q22 0 22 -23q0 -5 -4.5 -13t-4.5 -11q0 -6 3 -14l30 15q13 0 22 -10v-22q-12 -11 -22 -11q9 -11 24 -24q14 25 22 25q22 0 22 -25
q0 -24 -25 -25q9 -14 24 -27q-1 28 24 28q11 0 23 -11v-22q-6 -11 -32 -11h-2q62 -76 190 -222q9 -4 23 -15q6 -13 23 -37q22 1 28 -30q25 -26 51 -26q10 0 30 3t30 3q8 0 23.5 -3t23.5 -3t23 3t23 3q7 0 22 -3t22 -3q8 0 24 3t24 3q7 0 22 -3t22 -3q8 0 23 3t23 3t23 -3
t23 -3q7 0 22 3t22 3q8 0 24 -3t24 -3t23 3t23 3t23 -3t23 -3q7 0 22 3t22 3q8 0 23 -3t23 -3q7 0 22 3t22 3q8 0 23 -3t23 -3t23 3t23 3t23 -3t23 -3t23 3t23 3t23 -3t23 -3t23 3t23 3t23.5 -3.5t23.5 -3.5q10 0 31 4t33 3zM1884 410q0 98 -29 151h-1152q15 -92 15 -151
q0 -97 -24 -166h1162q28 84 28 166zM651 495q0 61 -17 87q-42 66 -160 203q-102 114 -303 343q18 -77 18 -177q0 -36 -16 -110l458 -558q20 83 20 212zM1535 890q-8 -7 -18 -7h-4q-18 0 -18 20t20 20q9 0 20 -10v-23zM1354 1070q-6 -6 -18 -6t-24 12v18q13 12 22 12
q10 0 20 -9v-27zM1764 673q0 -20 -19 -20q-23 0 -23 22q0 21 21 21t21 -23zM1446 981q-9 -9 -21 -9t-25 13v17q13 13 25 13q-2 0 21 -10v-24zM1489 935q-10 -9 -18 -9t-22 13v20q10 10 22 10q7 0 18 -10v-24zM1581 844q-11 -10 -20 -10q-20 0 -20 26q0 17 20 17q9 0 20 -10
v-23zM1627 801q-11 -10 -22 -10q-10 0 -21 10v21q21 9 23 9q9 0 20 -10v-20zM1719 719q0 -23 -19 -23q-24 0 -24 25q0 21 21 21q22 0 22 -23zM1672 752q-11 -10 -18 -10q-24 0 -24 26q0 20 23 20q8 0 19 -10v-26zM1262 1162q-22 -10 -19 -10q-23 0 -23 23q0 20 21 20
q1 0 21 -9v-24zM1305 1116q-11 -10 -16 -10q-23 0 -23 25q0 21 21 21q8 0 18 -9v-27zM1354 978q-6 -6 -18 -6q-11 0 -24 13v20q10 10 22 10q9 0 20 -10v-27zM1305 1040v-6q0 -16 -18 -16q-21 0 -21 21q0 25 21 25q18 0 18 -24zM1535 798q-8 -7 -18 -7h-4q-18 0 -18 20t20 20
q9 0 20 -10v-23zM1262 1070q-14 -6 -19 -6q-10 0 -23 12v18q12 12 21 12q1 0 21 -9v-27zM1446 893q-12 -10 -23 -10q-23 0 -23 20t23 20l23 -10v-20zM1581 752q-11 -10 -20 -10q-20 0 -20 28q0 18 20 18q9 0 20 -10v-26zM1673 673q0 -20 -20 -20q-9 0 -23 13v18q13 12 23 12
q20 0 20 -23zM1400 935q-10 -9 -21 -9q-12 0 -25 13v17q13 13 26 13q9 0 20 -10v-24zM1489 844q-11 -10 -18 -10q-8 0 -22 13v20q10 10 20 10q9 0 20 -10v-23zM1627 718q0 -22 -19 -22q-24 0 -24 25q0 21 23 21q20 0 20 -24zM1216 1116q-22 -10 -19 -10q-23 0 -23 25
q0 21 21 21q1 0 21 -9v-27zM1171 1162q-11 -10 -19 -10q-24 0 -24 23q0 20 23 20q9 0 20 -10v-23zM1216 1024q-12 -6 -21 -6q-21 0 -21 23t21 23q7 0 21 -13v-27zM1354 890l-1 -1q-7 -6 -20 -6q-21 0 -21 20t21 20q10 0 21 -10v-23zM1581 673q0 -20 -20 -20t-20 23
q0 20 20 20t20 -23zM1171 1070q-6 -6 -19 -6q-12 0 -24 12v18q13 12 23 12t20 -9v-27zM1262 978q-14 -6 -19 -6q-10 0 -23 12v18q13 13 21 13q-1 0 21 -10v-27zM1446 801q-12 -10 -23 -10q-23 0 -23 22q0 18 23 18l23 -10v-20zM1489 752q-11 -10 -18 -10q-22 0 -22 26
q0 20 20 20q9 0 20 -10v-26zM1535 718q0 -22 -18 -22q-22 0 -22 25q0 21 20 21t20 -24zM1305 935q-10 -9 -16 -9q-9 0 -23 13v20q10 10 21 10q7 0 18 -10v-24zM1400 844q-11 -10 -20 -10q-11 0 -25 13v17q15 13 24 13q10 0 21 -10v-23zM1125 1116q-11 -10 -18 -10
q-25 0 -25 25q0 21 25 21q8 0 18 -9v-27zM1079 1162q-11 -10 -18 -10q-25 0 -25 23q0 20 23 20q9 0 20 -10v-23zM1125 1038q0 -20 -20 -20q-23 0 -23 23t25 23q18 0 18 -26zM1262 889q-11 -6 -22 -6q-20 0 -20 20t20 20l22 -10v-24zM1354 798l-1 -1q-7 -6 -20 -6
q-21 0 -21 20t21 20q10 0 21 -10v-23zM1489 673q0 -20 -18 -20q-22 0 -22 22q0 21 20 21t20 -23zM1171 978q-6 -6 -19 -6q-11 0 -24 13v17q14 13 23 13t20 -10v-27zM1079 1070q-6 -6 -18 -6q-13 0 -25 12v18q13 12 23 12t20 -9v-27zM1216 936q-11 -10 -19 -10q-9 0 -23 13
v17q13 13 21 13q-2 0 21 -10v-23zM1036 1119q-13 -13 -21 -13q-25 0 -25 25q0 21 23 21q9 0 23 -13v-20zM1400 752q-11 -10 -20 -10q-26 0 -26 25q0 21 25 21q10 0 21 -10v-26zM1446 709q-13 -13 -21 -13q-25 0 -25 25q0 21 23 21q9 0 23 -13v-20zM1305 844q-11 -10 -16 -10
q-9 0 -23 13v20q10 10 20 10q8 0 19 -10v-23zM990 1165q-14 -13 -20 -13q-26 0 -26 23q0 20 23 20q9 0 23 -13v-17zM1036 1038q0 -20 -23 -20t-23 23t23 23t23 -26zM1171 901q0 -10 -7 -18h-29q-7 14 -7 20q0 20 23 20q20 0 20 -22zM1263 811q0 -9 -11 -20h-26q-6 15 -6 22
q0 18 20 18q23 0 23 -20zM944 1119q-14 -13 -20 -13q-8 0 -22 13v24q9 9 19 9q9 0 23 -13v-20zM990 1073q-9 -9 -21 -9q-25 0 -25 21t23 21q10 0 23 -12v-21zM1354 718q0 -22 -20 -22q-22 0 -22 25q0 21 21 21t21 -24zM1400 673q0 -20 -20 -20q-11 0 -25 13v18q14 12 24 12
q21 0 21 -23zM1079 978q-6 -6 -18 -6t-25 13v17q14 13 23 13t20 -10v-27zM1125 936q-5 -10 -18 -10q-12 0 -25 13v17q13 13 25 13q7 0 18 -10v-23zM1217 844q-11 -10 -20 -10q-23 0 -23 21q0 22 20 22q12 0 23 -10v-23zM898 1165q-14 -13 -19 -13q1 0 -23 10v24q20 9 21 9
q7 0 21 -13v-17zM1305 749q-8 -7 -16 -7q-23 0 -23 26q0 20 20 20q8 0 19 -10v-29zM944 1038q0 -20 -20 -20q-23 0 -23 23t20 23q23 0 23 -26zM898 1073q-10 -9 -21 -9q-16 0 -21 9v24l21 9q8 0 21 -12v-21zM990 981q-10 -9 -20 -9q-12 0 -26 13v17q14 13 23 13t23 -13v-21z
M1036 947q0 -21 -21 -21q-12 0 -25 13v17q14 13 23 13q23 0 23 -22zM1079 901q0 -10 -7 -18h-29q-7 14 -7 20q0 20 23 20q20 0 20 -22zM1171 810q0 -12 -7 -19h-29q-7 14 -7 20q0 20 21 20q22 0 22 -21zM1217 752q-11 -10 -20 -10q-23 0 -23 25q0 21 21 21q11 0 22 -10v-26z
M806 1165q-14 -13 -21 -13q-2 0 -18 7v26q10 10 18 10q7 0 21 -13v-17zM852 1119q-14 -13 -19 -13q-23 0 -23 25q0 21 21 21q7 0 21 -13v-20zM1262 706q-11 -10 -19 -10q-23 0 -23 25q0 21 21 21q7 0 21 -13v-23zM1305 660q-8 -7 -16 -7q-23 0 -23 22q0 21 20 21q9 0 19 -9
v-27zM1125 844q-5 -10 -18 -10q-12 0 -25 13v17q14 13 23 13t20 -10v-23zM853 1038q0 -20 -22 -20q-16 0 -21 10v23q13 13 21 13q22 0 22 -26zM806 1073q-10 -9 -20 -9h-8q-6 0 -11 3v29q10 10 18 10t21 -12v-21zM898 981q-10 -9 -19 -9q-2 0 -23 9v24q10 10 21 10
q7 0 21 -13v-21zM944 947q0 -21 -20 -21q-2 0 -22 9v24q11 10 19 10q23 0 23 -22zM990 901q0 -8 -10 -18h-29q-7 14 -7 20q0 20 23 20t23 -22zM1217 663q-11 -10 -20 -10q-23 0 -23 20q0 23 21 23q9 0 22 -12v-21zM718 1165q-12 -13 -23 -13q6 0 -23 13v20q10 10 20 10
q12 0 26 -13v-17zM761 1119q-14 -13 -20 -13q6 0 -23 13v24q20 9 21 9q8 0 22 -13v-20zM1036 855q0 -21 -21 -21q-12 0 -25 13v17q14 13 23 13q23 0 23 -22zM1079 798q-8 -7 -20 -7q-23 0 -23 20t23 20q9 0 20 -10v-23zM1125 749q-7 -7 -18 -7q-25 0 -25 25q0 21 23 21
q9 0 20 -10v-29zM1171 706q-11 -10 -20 -10q-23 0 -23 23t23 23q10 0 20 -9v-27zM761 1038q0 -20 -20 -20q-10 0 -23 12v21q13 13 21 13q22 0 22 -26zM806 981q-10 -9 -20 -9h-4q-9 0 -15 6v27q10 10 18 10q7 0 21 -13v-21zM718 1073q-9 -9 -22 -9q-3 0 -24 9v24q9 9 20 9
q13 0 26 -12v-21zM898 893q-12 -10 -23 -10t-19 7v23q10 10 21 10q7 0 21 -13v-17zM853 947q0 -21 -22 -21q-16 0 -21 10v23q10 10 21 10q22 0 22 -22zM944 855q0 -21 -20 -21q1 0 -22 10v23q11 10 19 10q23 0 23 -22zM672 1119q-12 -13 -23 -13q6 0 -23 13v24q20 9 22 9
q10 0 24 -13v-20zM990 801q-12 -10 -23 -10q-23 0 -23 20t23 20q9 0 23 -13v-17zM1036 765q0 -23 -21 -23q-25 0 -25 25q0 21 23 21t23 -23zM1125 660q-7 -7 -18 -7q-25 0 -25 20q0 23 23 23q10 0 20 -9v-27zM623 1165q-14 -13 -20 -13t-20 13v20q10 10 19 10q10 0 21 -10
v-20zM1079 706q-11 -10 -20 -10q-23 0 -23 23t23 23q11 0 20 -10v-26zM672 1038q0 -20 -23 -20q-10 0 -23 12v21q13 13 22 13q24 0 24 -26zM807 901q0 -7 -10 -18h-26l-4 4v26q11 10 18 10q22 0 22 -22zM718 981q-9 -9 -23 -9q-2 0 -23 9v24q10 10 20 10q12 0 26 -13v-21z
M623 1073q-10 -9 -20 -9t-20 9v24q9 9 19 9q8 0 21 -12v-21zM898 801q-12 -10 -23 -10t-19 7v23q10 10 21 10q7 0 21 -13v-17zM944 752q-11 -10 -20 -10q-8 0 -22 13v23q10 10 19 10t23 -13v-23zM1036 673q0 -20 -21 -20q-25 0 -25 20q0 23 23 23t23 -23zM761 947
q0 -21 -20 -21q-3 0 -23 9v24q22 10 21 10q22 0 22 -22zM853 855q0 -21 -20 -21l-23 10v23q10 10 21 10q22 0 22 -22zM577 1119q-14 -13 -20 -13q-9 0 -20 10v27q9 9 19 9q7 0 21 -13v-20zM990 718q0 -22 -20 -22q-26 0 -26 23t23 23t23 -24zM531 1165q-14 -13 -20 -13
q-5 0 -19 13v20q10 10 18 10q10 0 21 -10v-20zM577 1027q-10 -9 -21 -9q-19 0 -19 21q0 25 19 25q7 0 21 -13v-24zM718 893q-10 -10 -25 -10q-10 0 -21 10v20q10 10 21 10q10 0 25 -13v-17zM807 810q0 -8 -10 -19h-26l-4 4v26q11 10 20 10q20 0 20 -21zM944 672
q0 -19 -20 -19q1 0 -22 10v24q9 9 19 9q23 0 23 -24zM531 1073q-10 -9 -20 -9q-9 0 -19 9v24q9 9 18 9q11 0 21 -9v-24zM623 981q-10 -9 -20 -9t-20 9v24q10 10 19 10q10 0 21 -10v-24zM672 939q-14 -13 -23 -13q-3 0 -23 9v24q23 10 22 10q10 0 24 -13v-17zM488 1119
q-12 -13 -23 -13q-5 0 -19 13v24q9 9 18 9q10 0 24 -13v-20zM852 752q-11 -10 -19 -10q-9 0 -23 13v23q10 10 21 10q7 0 21 -13v-23zM898 718q0 -22 -19 -22q-9 0 -23 13v20q14 13 21 13q21 0 21 -24zM761 857q0 -23 -20 -23l-23 10v23q10 10 23 10q20 0 20 -20zM442 1165
q-14 -13 -21 -13t-21 13v20q10 10 20 10q11 0 22 -10v-20zM488 1027q-10 -9 -21 -9q-21 0 -21 17v6q0 23 19 23q9 0 23 -13v-24zM807 718q0 -22 -22 -22q-18 0 -18 21v4q0 21 18 21q22 0 22 -24zM442 1073q-10 -9 -21 -9t-21 9v24q9 9 21 9q11 0 21 -9v-24zM623 893
q-11 -10 -21 -10q-12 0 -19 7v23q11 10 20 10t20 -10v-20zM718 801q-10 -10 -25 -10q-10 0 -21 10v20q10 10 21 10q10 0 25 -13v-17zM853 672q0 -19 -22 -19q-16 0 -21 10v21q12 12 21 12q22 0 22 -24zM531 981q-10 -9 -20 -9q-9 0 -19 9v24q10 10 18 10q10 0 21 -10v-24z
M577 949q0 -23 -21 -23q-19 0 -19 21q0 22 19 22q21 0 21 -20zM672 847q-12 -13 -23 -13q-9 0 -23 13v20l23 10q9 0 23 -13v-17zM761 752q-11 -10 -20 -10t-23 13v24q21 9 23 9q9 0 20 -10v-26zM396 1119q-14 -13 -19 -13q-9 0 -23 13v24q9 9 21 9q11 0 21 -9v-24zM351 1162
q-11 -10 -20 -10t-23 13v20q10 10 21 10t22 -10v-23zM488 939q-14 -13 -23 -13q-8 0 -19 10v23q10 10 19 10l23 -10v-20zM531 893q-11 -10 -21 -10q-11 0 -18 7v23q11 10 19 10q9 0 20 -10v-20zM623 801q-11 -10 -21 -10q-12 0 -19 7v23q11 10 20 10t20 -10v-20zM672 752
l-23 -10q-9 0 -23 13v24q21 9 23 9q9 0 23 -13v-23zM718 718q0 -22 -23 -22t-23 23t21 23q25 0 25 -24zM761 673q0 -20 -20 -20l-23 10v21q13 12 23 12q20 0 20 -23zM577 857q0 -23 -20 -23q-9 0 -20 10v23q10 10 20 10q20 0 20 -20z" />
  </g>

</svg>
