<?xml version="1.0" standalone="no"?>
<!DOCTYPE svg PUBLIC "-//W3C//DTD SVG 1.1//EN" "http://www.w3.org/Graphics/SVG/1.1/DTD/svg11.dtd" >
<svg viewBox="0 -442 2048 2048">
  <g transform="matrix(1 0 0 -1 0 1606)">
   <path fill="currentColor"
d="M1589 607l-396 -219v-530h-68v497q-11 -5 -103 -58v-439h-62v406q-68 -32 -177 -112q-118 -86 -173 -116q-27 -10 -80 -31q-95 -41 -157 -41q-97 0 -182 36q-109 47 -109 130q0 60 56 108q19 17 106 69q100 60 191 121v474q0 59 51 131.5t106 94.5q13 5 172 45
q123 31 369 90q153 35 220 35q30 0 96 -26q71 -28 105.5 -95t34.5 -108v-462zM1547 655v339q0 122 -68 187.5t-190 65.5q-16 0 -142 -32q-119 -31 -359 -93q44 -9 97 -90.5t53 -129.5v-579zM852 277l-385 110q-18 -9 -186 -112q-78 -47 -88 -56q-52 -41 -52 -84
q0 -56 80 -87q62 -25 128 -25q90 0 181 45q51 25 159 100q103 71 163 109zM1423 639l-158 -81v171q-187 -70 -206 -88q-9 -8 -12 -22q-15 -13 -32 -13q-40 0 -40 43q0 27 23 40q8 4 136 51q97 35 289 106v-207z" />
  </g>

</svg>
