<?xml version="1.0" standalone="no"?>
<!DOCTYPE svg PUBLIC "-//W3C//DTD SVG 1.1//EN" "http://www.w3.org/Graphics/SVG/1.1/DTD/svg11.dtd" >
<svg viewBox="0 -442 2048 2048">
  <g transform="matrix(1 0 0 -1 0 1606)">
   <path fill="currentColor"
d="M1692 376q0 -163 -174 -259q-144 -80 -322 -80q-98 0 -208 31v-150h159q50 0 50 -140q0 -141 -62 -141h-997q-56 0 -56 87v108q0 86 56 86h150v227q0 12 12.5 28.5t23.5 16.5h87q36 43 109 129q-357 394 -357 750q0 179 78 324q94 176 258 176q155 0 375 -126
q179 -103 325 -240q1 33 12 89q5 11 82 63.5t89 52.5q55 0 101.5 -47t46.5 -102q0 -20 -51 -89l-63 -85q-26 -4 -90 -9q137 -146 240 -325q126 -220 126 -375zM1482 1272q0 28 -30 57.5t-59 29.5q-8 0 -75.5 -57.5t-67.5 -75.5q0 -7 1 -10q86 -89 99 -89t25.5 8t59.5 67
t47 70zM1161 1165q-381 334 -629 334q-79 0 -128 -47.5t-49 -126.5q0 -130 104 -317q84 -150 197 -278zM1622 408q0 141 -116 336q-89 150 -218 291l-432 -505q131 -114 279 -196q188 -105 316 -105q78 0 124.5 50t46.5 129zM1286 1110l-53 53l-545 -474q71 -87 127 -124z
M1402 161q-263 29 -589 320q-295 263 -429 532q-70 140 -100 263q-38 -107 -38 -221q0 -355 291 -645t646 -290q121 0 219 41zM694 191q-37 26 -112 75q-24 -33 -62 -75h174zM904 -80v171q-47 19 -50 19h-486v-190h536zM1109 -281v119h-945v-119h945z" />
  </g>

</svg>
