<?xml version="1.0" standalone="no"?>
<!DOCTYPE svg PUBLIC "-//W3C//DTD SVG 1.1//EN" "http://www.w3.org/Graphics/SVG/1.1/DTD/svg11.dtd" >
<svg viewBox="0 -442 2048 2048">
  <g transform="matrix(1 0 0 -1 0 1606)">
   <path fill="currentColor"
d="M1864 448q-66 22 -128 22q-81 0 -200 -49q-25 -10 -190 -89q-56 -27 -111 -54q-67 -30 -117 -39q-60 -11 -122 -11q-240 0 -443 109t-332 309q-46 71 -79 158q-30 81 -60 163q34 12 101 33q13 -201 182 -329q67 -50 204 -82q104 -24 132 -24q10 0 19 1q-94 103 -94 216
q0 136 80 212.5t216 76.5q114 0 197.5 -86t83.5 -201q0 -45 -21 -104q-23 -63 -52 -92q-6 -10 -6 -12q0 -1 1 -4q325 137 325 387q0 59 -17 139zM1096 787q0 75 -52 126t-127 51q-78 0 -128.5 -49.5t-50.5 -127.5q0 -77 50 -127t127 -50q78 0 129.5 49.5t51.5 127.5z" />
  </g>

</svg>
