<?xml version="1.0" standalone="no"?>
<!DOCTYPE svg PUBLIC "-//W3C//DTD SVG 1.1//EN" "http://www.w3.org/Graphics/SVG/1.1/DTD/svg11.dtd" >
<svg viewBox="0 -442 2048 2048">
  <g transform="matrix(1 0 0 -1 0 1606)">
   <path fill="currentColor"
d="M2034 814q-21 -11 -59 -36q-118 195 -318 395q-204 204 -396 317l36 62q189 -121 402.5 -335t334.5 -403zM1860 701l-55 -40q-13 10 -23 26q-112 176 -287 349t-351 279q18 35 36 63q176 -108 373 -305q192 -193 307 -372zM1705 593l-53 -36q-87 156 -273 339
q-178 176 -340 274l36 52q166 -108 344 -286t286 -343zM1611 331q0 -24 -13 -36q-23 -20 -90 -52q-50 -23 -99 -46l-567 -288q-191 -91 -405 -208q-3 -17 -11 -47q-4 -9 -51 -55q-82 44 -147 103q-25 23 -82 94q-64 78 -64 95q0 18 54 52q17 -1 47 11q24 26 58 101
q26 55 51 111l190 374q96 193 295 576q37 8 61 8q186 0 479 -289t293 -475q0 -5 1 -14v-15zM1537 408q0 110 -269 378t-380 268q-36 0 -36 -35q0 -106 271.5 -377.5t378.5 -271.5q35 0 35 38zM1459 302q-41 9 -69 24q-129 70 -309 249q-176 175 -254 307q-33 55 -33 90
q-165 -311 -493 -933q-23 -46 -73 -138l-40 -8q-23 -7 -30 -23q106 -141 198 -195q20 19 23 43.5t6 28.5q15 16 172 93q98 49 196 97q236 120 706 365z" />
  </g>

</svg>
