<?xml version="1.0" standalone="no"?>
<!DOCTYPE svg PUBLIC "-//W3C//DTD SVG 1.1//EN" "http://www.w3.org/Graphics/SVG/1.1/DTD/svg11.dtd" >
<svg viewBox="0 -442 2048 2048">
  <g transform="matrix(1 0 0 -1 0 1606)">
   <path fill="currentColor"
d="M1606 602l-530 -287v-702h-83l-3 656l-133 -71v-585h-87v543q-27 -18 -45 -26l-643 126v718q0 1 24 104q14 62 72 125.5t118 87.5q1 0 204 51q227 59 681 169q8 2 21 2q66 0 138 -16q22 -4 65 -15q107 -40 154 -133.5t47 -205.5v-541zM1542 657v479q0 7 -3 19.5t-3 19.5
q0 102 -61 171q-43 49 -100 68q-34 11 -119 21q-16 2 -70 9l-642 -163q50 -21 98.5 -75t63.5 -106q8 -16 21 -49q20 -62 20 -80v-744zM672 233v726q0 61 -45 141q-48 83 -101 107q-46 21 -105 21q-90 0 -122 -18q-55 -31 -99 -120q-41 -83 -41 -152v-620zM1066 1090
l-190 -68v-312q26 -25 26 -55q0 -63 -48 -63q-23 0 -45.5 21.5t-22.5 44.5q0 4 3 12.5t3 13.5v559l274 78v-231zM584 818l-344 45v83l344 -38v-90zM585 692l-131 19v-200q-58 14 -88 17v190q-47 12 -126 23v86l345 -49v-86z" />
  </g>

</svg>
