<?xml version="1.0" standalone="no"?>
<!DOCTYPE svg PUBLIC "-//W3C//DTD SVG 1.1//EN" "http://www.w3.org/Graphics/SVG/1.1/DTD/svg11.dtd" >
<svg viewBox="0 -442 2048 2048">
  <g transform="matrix(1 0 0 -1 0 1606)">
   <path fill="currentColor"
d="M2044 -8q1 -5 -1 -16.5t-2 -15.5q0 -19 -2 -56t-2 -55q0 -5 6 -9h-1648q-8 0 -14 6h-2q-6 0 -9 -2q13 -30 13 -92q0 -70 -23 -116q-3 -1 -15 -1q-29 0 -32 22q-4 29 -12 35q-12 -4 -12 -47q0 -17 -9 -23h-28q-5 8 -5 48q0 21 -13 26l-3 -3q-20 -77 -42 -77h-23
q0 -1 -5 30q4 9 4 20q0 7 -2 17l-24 -25h-31v32q-7 4 -22 3q0 4 -2 11.5t-2 11.5q0 7 26 33q-2 4 -12.5 15.5t-10.5 15.5q0 8 14 21q11 10 21 19q1 5 1 35q18 6 36 8q3 3 7 29q3 20 18 20q6 0 13 -2v5q1 14 -4 16q11 5 36 4q1 3 1 6q0 4 -2.5 13t-2.5 14t13 11q-7 14 -16 18
l27 324q13 175 47 525q2 16 17 34q19 24 22 31h222q53 -115 75 -147q3 -2 8 -6h39v245q6 -1 14 -1q6 0 21 1h21v388h1051v-378q8 -2 25 -2q21 0 49 3v-259h99zM1743 758v588h-979v-588h979zM1992 -3l-70 713h-1292q-6 -55 -22 -164h-8q-11 1 -21 -3l-42 -375q0 -3 11 -18.5
t11 -34.5q0 -16 -3 -48t-3 -48q0 -13 6 -22h1433zM575 761q0 22 -14 48.5t-16 38.5l-92 -836q-1 -10 16 -33q13 -15 25 -31l17 160q0 4 -8 24.5t-8 25.5t7 62l34 286q2 20 8 58q5 7 14 22q17 47 17 175zM523 870h-171q-9 -8 -19 -24q0 -2 -7 -61q-18 -205 -56 -614
q-15 -156 -15 -152h175zM364 -124q-4 23 -22 53q-1 -8 -1 -18q0 -16 4 -42q13 0 19 7zM341 -272v118h-17q-5 0 -17.5 -6.5t-16.5 -6.5q-13 0 -17 57l-1 7q-15 -1 -26.5 -17.5t-20.5 -16.5q-4 0 -8 2q-2 -33 0 -42h-35q10 -13 10 -22q0 -18 -36 -20q1 -4 19 -20q0 -8 -9 -30
h15q6 9 28 22l1 -2q-1 -27 5 -52l18 40q14 27 28 27q2 0 4 -2q0 -21 7 -56q3 21 7.5 42.5t25.5 21.5t36 -44zM1634 1173l-4 -32h-66v32h70zM1634 1229h-303v28h303v-28zM1634 1056h-70l4 30h66v-30zM1519 1141h-70v33h70v-33zM1519 1056h-70l3 31h67v-31zM1634 883h-70v35
h70v-35zM1634 973h-303v28h303v-28zM1285 1229h-182v28h182v-28zM1400 1056h-69l3 31h66v-31zM1634 800h-70l4 30h66v-30zM1400 1139h-297v35h297v-35zM1519 883h-188v35h188v-35zM1285 1056h-66v31h66v-31zM1285 973h-66v28h66v-28zM1938 234h-326l-16 408h300zM1051 1229
h-181v28h181v-28zM1519 800h-300v31h300v-31zM1051 1139h-66v35h66v-35zM1285 883h-182v35h182v-35zM1170 1056h-300v31h300v-31zM939 1139h-69v35h69v-35zM1170 973h-300v28h300v-28zM1170 800h-185v31h185v-31zM1051 883h-181v35h181v-35zM1512 375h-540l26 299h498z
M939 800h-69v31h69v-31zM1385 214q0 -54 -48 -85q-41 -27 -98 -27t-98 27q-48 31 -48 85q0 51 48 85q43 30 96 30q55 0 99 -29q49 -34 49 -86zM1866 557q-2 41 0 53h-59v-53h59zM1874 461v66h-57v-66h57zM1778 557v53h-51v-53h51zM1787 461v66h-55q3 -38 0 -66h55zM1883 365
v66h-60v-66h60zM1699 557q-3 27 0 53h-64v-53h64zM1896 272q-4 36 -10 66h-54q-1 -16 -1 -29v-11q0 -12 1 -26h64zM1704 461v66h-68q3 -35 0 -66h68zM1792 365q-2 54 0 66h-55v-66h55zM1800 272v66h-58q2 -56 0 -66h58zM1709 365q-2 48 0 66h-66q3 -56 0 -66h66zM1712 272
q-2 54 0 66h-63q2 -60 0 -66h63zM1467 426l-13 210h-421l-16 -210h450zM1353 224q0 89 -114 89t-114 -89q0 -41 38 -67q33 -23 76 -23q44 0 77 22q37 26 37 68zM1416 537v-20q0 -7 -1 -18l-31 -3q-2 27 -2 41v21q0 7 1 20h31q2 -28 2 -41zM1370 499l-31 -3q-1 18 -1 29v24
q0 10 1 29h31v-79zM1324 558v-13v-23q-1 -15 -1 -23l-29 -3q-1 18 -1 29v24q0 10 1 29h29q1 -10 1 -20zM1280 546q0 -9 -3 -50h-28q-2 14 -2 28v19q0 13 2 35h28q3 -16 3 -32zM1227 531h-18v9h18v-9zM1191 556q0 -25 -5 -60h-24l-6 4q1 26 5 79h24l5 -4q1 -9 1 -19z
M1145 574q0 -26 -4 -78h-24l-6 4q1 26 5 79h24zM1101 574q-1 -47 -5 -78h-24l-5 4q-1 7 -1 15q0 24 6 64h24zM1410 572h-15q0 -5 -2 -15t-2 -16h16q0 5 1.5 14t1.5 14v3zM1407 534h-16q-1 -9 -3 -28v-4h15q0 5 2 15.5t2 16.5zM1365 572h-15l-3 -27v-4h15q0 5 1.5 15.5
t1.5 15.5zM1362 534h-15q0 -5 -2 -15.5t-2 -16.5h16q0 5 1.5 16t1.5 16zM1320 572h-15l-3 -31h15q0 19 3 31zM1317 534h-15q-1 -9 -3 -28v-4h15q0 5 1.5 16t1.5 16zM1276 564q-1 8 -4 8h-12l-3 -31h15q0 4 2 11.5t2 11.5zM1272 533h-15l-3 -30h15q0 18 3 30zM1186 568
q-3 3 -15 4q-2 -10 -7 -31h19q0 21 3 27zM1183 533h-19v-31h15q0 19 4 31zM1138 541v31h-15q0 -19 -4 -31h19zM1138 533h-19v-31h16q0 22 3 31zM1093 541v31h-15q0 -19 -4 -31h19zM1093 533h-18q0 -21 -4 -26q4 -3 15 -5q2 10 7 31z" />
  </g>

</svg>
