<?xml version="1.0" standalone="no"?>
<!DOCTYPE svg PUBLIC "-//W3C//DTD SVG 1.1//EN" "http://www.w3.org/Graphics/SVG/1.1/DTD/svg11.dtd" >
<svg viewBox="0 -442 2048 2048">
  <g transform="matrix(1 0 0 -1 0 1606)">
   <path fill="currentColor"
d="M1906 182l-522 -532h-1302v1119l418 381q-95 102 -95 190q0 85 59 137.5t145 52.5q106 0 183 -71q55 -51 116 -165h84q114 236 298 236q89 0 145 -52t56 -141q0 -20 -3 -41h418v-1114zM1763 1209h-316q-64 -83 -184 -146h347zM1421 1340q0 50 -41 79q-35 25 -88 25
q-124 0 -215 -149h334q10 26 10 45zM1345 1209h-132q-5 0 -137 -134h11q8 3 41 14q138 50 217 120zM1827 218v927l-161 -166v-930q161 157 161 169zM1095 1209h-64q-9 -19 -33 -100zM957 1209h-18q3 -10 11 -30q2 10 7 30zM1531 980h-539l-193 -198h530zM823 1295
q-91 149 -217 149q-51 0 -87 -25q-41 -28 -41 -77q0 -73 81 -139q35 30 104 92h160zM911 1063q-12 49 -43 146h-183q-10 0 -60 -50q83 -52 202 -86q36 -10 41 -10h43zM1586 -29v927l-192 -196v-930zM631 1064q-23 12 -66 38q-15 -12 -44 -38h110zM872 980h-439l-217 -198
h463zM1311 -268v967h-573v-967h573zM655 -268v967h-491v-967h491z" />
  </g>

</svg>
