<?xml version="1.0" standalone="no"?>
<!DOCTYPE svg PUBLIC "-//W3C//DTD SVG 1.1//EN" "http://www.w3.org/Graphics/SVG/1.1/DTD/svg11.dtd" >
<svg viewBox="0 -442 2048 2048">
  <g transform="matrix(1 0 0 -1 0 1606)">
   <path fill="currentColor"
d="M1990 593l-508 -278v-670h-82v629l-132 -71v-558h-86v514q-38 -22 -142 -94q-93 -67 -284 -190q-86 -50 -207 -84q-36 -10 -94 -10q-165 0 -264 54q-57 31 -87 68q-22 27 -22 70q0 47 10 76q19 56 149 135q45 27 154 98v394l133 65v206q0 -16 8 35q11 71 36 121
q54 107 161 151q11 4 78 21l155 37q205 54 616 153q8 2 21 2q108 0 197 -30q11 -7 34 -20q73 -34 118 -119q38 -72 38 -177v-528zM1931 649v428q0 155 -66 231q-41 47 -96 64q-21 6 -180 29l-618 -156q51 -23 98 -75.5t61 -104.5q6 -12 16 -37q21 -58 21 -78v-716zM1079 451
v473l-616 -289v-488zM1058 179l-244 67l-415 -199l-5 3v162q-71 -45 -143 -90q-92 -63 -92 -126q0 -71 101 -112q78 -32 163 -32q117 0 240 64q61 33 210 138q113 80 185 125zM1496 1090l-190 -68v-312q26 -25 26 -55q0 -63 -48 -63q-23 0 -45.5 21.5t-22.5 44.5q0 4 3 12.5
t3 13.5v559l274 78v-231zM1045 736q-23 -11 -70 -31v132l70 28v-129zM925 604l-172 -275v109l-194 -87v176l196 90v115z" />
  </g>

</svg>
