<?xml version="1.0" standalone="no"?>
<!DOCTYPE svg PUBLIC "-//W3C//DTD SVG 1.1//EN" "http://www.w3.org/Graphics/SVG/1.1/DTD/svg11.dtd" >
<svg viewBox="0 -442 2048 2048">
  <g transform="matrix(1 0 0 -1 0 1606)">
   <path fill="currentColor"
d="M2040 614q0 -16 -10 -144q-5 -79 -20 -236q-9 -20 -23 -61q-21 -102 -47 -210q-6 -4 -17 -16q-3 -15 -11 -42q-21 -46 -68 -133q-14 1 -46 -43t-58 -44q7 0 -26 12q-2 1 -37 1q-74 0 -183 93q-14 16 -41 49l-13 5q-42 73 -286 288q-40 36 -200 116q-29 15 -89 44
q-15 5 -45 16q-22 9 -18 9q-18 0 -144 -113t-131 -113l-445 29v781l309 192h424l16 -197q10 9 31 24q81 34 241 113q39 23 111 90q43 35 124 109q64 67 102 120l13 5q38 54 82 84q87 59 132 59h95q14 0 36 -29q29 -39 32 -41q15 -3 25 -25q10 -25 22 -30q26 -89 46 -121
q6 -4 17 -16q4 -23 12 -60q21 -74 29 -125q12 -28 29 -89q9 -62 21 -223q9 -114 9 -128zM1962 490q0 14 -4 307q-11 37 -28 95q-5 53 -21 134q-6 8 -14 25q-5 32 -18 96q-11 40 -38 108q-8 11 -21 35q-57 125 -128 125q-70 0 -159 -115q-16 -17 -37 -45q-2 -17 -8 -51
q-5 -9 -11 -29q-7 -55 -21.5 -162.5t-14.5 -111.5v-80q112 -20 326 -49q19 -2 39.5 -5t31.5 -19q26 -37 26 -168q0 -39 -14 -98q-10 -40 -48 -52l-74 -14q-25 -255 -187 -345q-2 -1 -65 -11v-39q0 -29 20 -68q86 -166 195 -166q35 0 58 14q67 41 130 251l21 108l11 13
q6 46 21 137q6 13 14 41q18 90 18 139zM1815 598q0 80 -11 101q-9 18 -23.5 22.5t-160.5 20t-174 15.5v-161h299q0 19 9 -97l-314 -42v-27h11q18 0 170 21.5t164 26.5q30 11 30 120zM1458 -75q-18 31 -59 166q-6 22 -19 158q-11 130 -11 166v369q0 49 18 218q2 37 12 106
l23 86q16 51 36 80l-8 8l-18 -30q-11 -8 -30 -25q-14 -24 -46 -70q-52 -64 -113 -117q-20 -13 -58 -40q-17 -18 -41 -39q-9 -1 -28 -5q-10 -4 -61 -38q-12 -12 -38 -33q-60 -38 -253 -108q-32 -11 -93 -37q-59 -31 -59 -134q0 -112 59 -147q38 -23 133 -54q13 -2 38 -9
q175 -66 375 -219l48 -45q33 -28 94 -90q15 -24 46 -70q17 -17 45 -55zM717 1033h-301l-223 -126h253zM755 866v113l-269 -150v-648q16 15 47 46v347q0 67 19 131q26 83 72 105q15 3 45 11q23 9 86 45zM415 182v654h-254v-638z" />
  </g>

</svg>
