<?xml version="1.0" standalone="no"?>
<!DOCTYPE svg PUBLIC "-//W3C//DTD SVG 1.1//EN" "http://www.w3.org/Graphics/SVG/1.1/DTD/svg11.dtd" >
<svg viewBox="0 -442 2048 2048">
  <g transform="matrix(1 0 0 -1 0 1606)">
   <path fill="currentColor"
d="M1982 -197q0 -21 -21.5 -63.5t-38.5 -54.5q-31 -22 -63 -22h-572q-34 0 -63 23q-20 16 -41.5 61.5t-21.5 71.5v1291q0 75 41 123q44 52 117 46q6 32 7 140q1 101 8.5 123t56.5 22q14 0 19 -21q12 -50 13 -128v-130l409 -3q59 -1 104 -40q46 -42 46 -100v-1339zM1084 426
l-372 -458v196h-630v522h629v198zM1374 1282v265h-12q-11 -21 -11 -81q0 -27 -4 -80.5t-4 -80.5v-23h31zM1849 582v536h-552v-536h552zM1895 533v560q-8 7 -24 22v-561h-571q4 -8 13 -21h582zM1886 373v97h-185v-97h185zM1886 249v95h-185v-95h185zM1944 1165
q-4 36 -42.5 65.5t-75.5 29.5h-502q-34 0 -70.5 -22t-49 -54t-12.5 -46v-1344q0 -6 17 -33t23 -33v1411q0 17 16 42q36 55 135 55h382q116 0 179 -71zM1886 132v89h-185v-89h185zM1676 249v221h-203v-221h203zM1886 27v79h-185v-79h185zM1448 373v97h-181v-97h181zM1676 132
v89h-203v-89h203zM1886 -99v94h-185v-94h185zM1448 249v95h-181v-95h181zM1676 27v79h-203v-79h203zM1886 -204v79h-183v-79h183zM1448 132v89h-181v-89h181zM1676 -99v94h-203v-94h203zM1448 27v79h-181v-79h181zM1676 -204v79h-201v-79h201zM1448 -99v94h-181v-94h181z
M1446 -204v79h-179v-79h179zM1633 311l-10 -10h-93q-4 0 -14 10v101q18 9 23 9h84l10 -10v-100zM1614 333v58q-1 0 -13 8q-10 1 -38 1q-8 0 -16 -4.5t-9 -4.5v-58q12 -10 29 -10h18q17 0 29 10z" />
  </g>

</svg>
