<?xml version="1.0" standalone="no"?>
<!DOCTYPE svg PUBLIC "-//W3C//DTD SVG 1.1//EN" "http://www.w3.org/Graphics/SVG/1.1/DTD/svg11.dtd" >
<svg viewBox="0 -442 2048 2048">
  <g transform="matrix(1 0 0 -1 0 1606)">
   <path fill="currentColor"
d="M1747 1525l-127 -114l-8 8l126 115zM1574 1460h-17v131h17v-131zM1848 1317h-182v16h182v-16zM1513 1419l-8 -8l-127 114l9 9zM1760 1128l-9 -9l-126 115l8 8zM1449 1317h-182v16h182v-16zM1469 1237l-126 -115l-9 9l127 114zM2022 463q0 -219 -106 -418h-290
q22 -6 22 -48q0 -29 -29 -29h-258q-29 0 -29 49q0 22 22 28h-693q22 -6 22 -48q0 -29 -29 -29h-258q-29 0 -29 49q0 22 22 28h-243q-114 219 -114 429q0 204 114 363q390 52 819 52q208 0 423 -9l151 399q-22 14 -22 40q0 48 47 48q48 0 48 -48t-48 -48h-2l-135 -393
q153 -7 489 -41q106 -162 106 -374zM1916 553q0 102 -67 178t-168 76t-169 -78q-66 -74 -66 -176t66 -176q69 -77 169 -77t169 77q66 75 66 176zM1332 680v160h-652v-160h652zM1360 223v396q0 34 -44 34h-616q-34 0 -34 -34v-396q0 -34 34 -34h626q34 0 34 34zM1376 83
l-41 58h-85l32 -58h94zM1251 83l-27 58h-93l18 -58h102zM1121 83l-16 58h-91v-58h107zM996 141h-86l-14 -58h99zM892 141h-85l-26 -58h94zM593 553q0 102 -67 178t-168 76t-168.5 -76t-67.5 -178q0 -101 68 -177t168 -76t169 77q66 75 66 176zM788 141h-86l-45 -58h99z
M1886 553q0 -88 -58 -154q-60 -69 -147 -69q-89 0 -148 68q-57 65 -57 155t57 155q59 69 148 69q88 0 148 -69q57 -66 57 -155zM1297 708h-405v-20h-19v20h-163v45h10v-35h95v35h10v-35h48v99h19v-99h27v35h10v-35h86v35h10v-35h76v35h10v-35h74v35h10v-35h92v35h10v-45z
M1343 227q0 -24 -23 -24h-614q-23 0 -23 24v388q0 24 23 24h604q33 0 33 -24v-388zM563 553q0 -88 -58 -154q-60 -69 -147 -69q-89 0 -148 68q-58 65 -58 155t58 155q60 69 148 69t148 -69q57 -66 57 -155zM1232 435v121h-424v-121h424z" />
  </g>

</svg>
