<?xml version="1.0" standalone="no"?>
<!DOCTYPE svg PUBLIC "-//W3C//DTD SVG 1.1//EN" "http://www.w3.org/Graphics/SVG/1.1/DTD/svg11.dtd" >
<svg viewBox="0 -442 2048 2048">
  <g transform="matrix(1 0 0 -1 0 1606)">
   <path fill="currentColor"
d="M906 -205q0 -47 -38 -95q-40 -52 -85 -52h-575q-47 0 -88 54q-38 51 -38 100v1306q0 73 43 120t116 43q9 40 6 134q-3 89 9 131q6 21 26 21q51 0 56 -45q-1 -41 -1 -81q4 -34 6 -148l4 -9h415q62 0 103 -44t41 -106v-1329zM295 1275v265h-11q-7 -5 -11 -84
q-8 -149 -8 -148v-33h30zM772 571v539h-553v-539h553zM819 523v561q-6 7 -24 23v-564h-573q3 -7 13 -20h584zM810 361v98h-185v-98h185zM810 237v95h-185v-95h185zM865 1157v20q0 9 -25.5 33.5t-36.5 28.5q-35 14 -54 14h-504q-89 0 -119 -76q-13 -33 -13 -47v-1353
q0 -25 40 -64v1418q0 17 16 42q36 55 137 55h384q135 0 175 -71zM810 119v89h-185v-89h185zM599 237v222h-204v-222h204zM810 14v79h-185v-79h185zM370 361v98h-182v-98h182zM599 119v89h-204v-89h204zM810 -113v95h-185v-95h185zM370 237v95h-182v-95h182zM599 14v79h-204
v-79h204zM810 -218v79h-185v-79h185zM370 119v89h-182v-89h182zM599 -113v95h-204v-95h204zM370 14v79h-182v-79h182zM599 -218v79h-202v-79h202zM370 -113v95h-182v-95h182zM368 -218v79h-180v-79h180zM556 299l-10 -10h-93q-5 0 -15 10v101q20 10 24 10h84l10 -10v-101z
M537 321v54q-8 13 -28 13q-37 0 -49 -10v-57q15 -10 39 -10q22 0 38 10z" />
  </g>

</svg>
