<?xml version="1.0" standalone="no"?>
<!DOCTYPE svg PUBLIC "-//W3C//DTD SVG 1.1//EN" "http://www.w3.org/Graphics/SVG/1.1/DTD/svg11.dtd" >
<svg viewBox="0 -442 2048 2048">
  <g transform="matrix(1 0 0 -1 0 1606)">
   <path fill="currentColor"
d="M1661 -189q-9 -12 -31 -27q-44 -12 -140 -8l-5 -2q7 -36 7 -50q0 -65 -83 -65q-90 0 -114 27l-78 94h-656q-14 0 -86 -97q-18 -24 -92 -24q-106 0 -106 54q0 33 15 62q8 -1 -74 -1q-106 0 -106 55v1330q0 32 36 63h545q22 40 50 79l-140 216v22q17 9 23 9q10 0 76 -102
q39 -62 78 -123q37 15 79 15q89 0 133 -15q42 73 134 213q9 12 21 12q5 0 22 -9v-22l-139 -216q9 -11 49 -79h545q37 -53 37 -69v-1342zM1027 1223q-21 74 -141 74q-111 0 -143 -74h284zM1566 -136v1255h-1359v-1255h1359zM1403 -261q-4 14 -15 41h-62q5 -18 22 -41h55z
M446 -220h-61q-3 -4 -21 -41h55q19 25 27 41zM1527 388q0 -26 -20 -100q-1 -5 -17 -45q-61 -155 -376 -155h-473q-143 0 -243 47q-129 61 -142 186q-11 105 -11 98v331q0 87 27 152q34 83 127 117q60 22 177 30q31 4 91 8q9 0 369 3q47 0 132 -5q177 -11 249 -62
q90 -64 105 -231q5 -55 5 -47v-327zM1492 -4q0 -86 -87 -86q-88 0 -88 86t86 86q89 0 89 -86zM1036 -4q0 -38 -40 -38t-40 38q0 42 38 42q14 0 28 -14t14 -28zM929 -4q0 -38 -43 -38q-40 0 -40 38q0 14 13 28t27 14t28.5 -14.5t14.5 -27.5zM820 -4q0 -38 -40 -38t-40 38
q0 42 40 42t40 -42zM446 -5q0 -85 -84 -85q-87 0 -87 86t85 86q86 0 86 -87zM1456 463v214q0 62 -16 145q-27 140 -213 153q-71 5 -57 5h-497q-57 0 -146 -14q-107 -16 -136 -38q-44 -33 -57 -138q-3 -14 -6 -40l-3 -265q0 -128 26 -190q39 -91 147 -110q95 -17 110 -17h586
q25 0 95 14l51 15q116 33 116 266zM1456 -5q0 18 -16.5 35t-34.5 17q-19 0 -37 -16.5t-18 -34.5q0 -17 18.5 -33.5t36.5 -16.5q17 0 34 16t17 33zM411 -4q0 18 -16.5 34.5t-34.5 16.5q-16 0 -33 -17.5t-17 -33.5t17 -33t33 -17q18 0 34.5 16t16.5 34z" />
  </g>

</svg>
