<?xml version="1.0" standalone="no"?>
<!DOCTYPE svg PUBLIC "-//W3C//DTD SVG 1.1//EN" "http://www.w3.org/Graphics/SVG/1.1/DTD/svg11.dtd" >
<svg viewBox="0 -442 2048 2048">
  <g transform="matrix(1 0 0 -1 0 1606)">
   <path fill="currentColor"
d="M1914 923q0 -179 -125 -304t-304 -125q-66 0 -128 19v-123h33v61h133v-338h-133v52h-33v-81h-140v-126h-675v126h-86v351q-140 14 -233.5 118t-93.5 245q0 152 106.5 258t258.5 106q107 0 195 -55.5t134 -151.5h234q12 169 135.5 283t292.5 114q179 0 304 -125t125 -304z
M1786 1084q-17 61 -93.5 119.5t-139.5 58.5l-23 -3q-4 -49 -4 -152q0 -44 41 -73q34 -24 63 -24q16 0 86 37zM1841 912q0 50 -17 76l-93 -23q-28 -7 -67 -41q-41 -37 -41 -63q0 -60 44 -104q22 -22 79 -78q43 25 71 104q24 68 24 129zM1451 1111l-14 145q-17 4 -36 4
q-71 0 -145.5 -59t-94.5 -128q26 -11 160 -63q16 -6 30 -6q39 0 71.5 34.5t28.5 72.5zM1550 924q0 21 -14.5 38t-40.5 17q-17 0 -30 -7l-20 19l-17 -17l19 -21q-8 -9 -8 -29q0 -57 55 -57q56 0 56 57zM1389 873l-32 8v-81zM1659 612l-74 123q-38 63 -89 63q-60 0 -89 -50
l-50 -86v-61q55 -31 150 -31q109 0 152 42zM1311 952l-170 26l-3 -26h173zM742 955q-24 49 -81 88q-53 35 -109 35h-20q-4 -53 -3 -123h213zM465 955q0 36 -5 123q-7 0 -21 -1.5t-21 -1.5q-60 0 -115 -46.5t-72 -106.5q21 -9 124 -51q12 -5 26 -5q48 0 75 53v36h9zM379 725
q0 86 -50 93l-117 16q-4 -9 -4 -53q0 -52 23 -108q26 -63 65 -86q18 22 65 79q18 22 18 59zM456 502v170q-19 -12 -28 -29l-60 -106q28 -28 88 -35z" />
  </g>

</svg>
