<?xml version="1.0" standalone="no"?>
<!DOCTYPE svg PUBLIC "-//W3C//DTD SVG 1.1//EN" "http://www.w3.org/Graphics/SVG/1.1/DTD/svg11.dtd" >
<svg viewBox="0 -442 2048 2048">
  <g transform="matrix(1 0 0 -1 0 1606)">
   <path fill="currentColor"
d="M1693 592q0 -330 -237.5 -569.5t-567.5 -239.5q-324 0 -565 242t-241 567t240.5 566.5t565.5 241.5t565 -241.5t240 -566.5zM758 1103l-6 133q-7 -7 -7 -74v-64zM1131 1024q-18 56 -82 59q-124 5 -262 5q-79 0 -110 -18q-43 -24 -43 -97q0 -42 27 -55v24q-1 17 -1 24
q0 72 43 93q26 13 107 13q21 0 62.5 -1.5t62.5 -1.5q105 0 137 -7q24 -5 59 -38zM1554 587q0 269 -195 469t-464 200q-19 0 -50 -3q-37 -3 -50 -3l-7 5q3 -71 3 -116q0 -23 -4 -36q234 -5 237 -5q137 0 137 -123v-552l247 -256q146 195 146 420zM1098 608v368q0 6 -13 16
v-375h-125q11 -11 43 -11h36q6 0 59 2zM729 1241q-94 -32 -137 -51q-77 -35 -122 -80l143 -142q0 130 85 130q3 0 21 -5q3 49 10 148zM1069 638v353h-363v-113l241 -240h122zM1093 503v61h-76l59 -61h17zM1036 344l-61 58v-59q20 -1 61 1zM734 638q-6 12 -27 32v-32h27z
M907 465q-12 18 -42 47v-36l10 -11h32zM954 417q-12 28 -35 34q-2 0 -49 3q-24 1 -24 25q0 5 1 15.5t1 15.5q0 29 -26 45v-138h132zM773 605l-62 12v-12h62zM1094 278q-8 16 -35 42h-84v-42h119zM801 503v61h-114v-61h114zM959 345v56h-138v-56h138zM1093 192v61h-118v-61
h118zM1305 74l-142 146q0 -76 -8 -103q-23 -79 -64 -79h-411q-21 0 -44 41q-22 38 -22 61v625q-113 120 -247 246q-146 -183 -146 -417q0 -155 45 -248q206 -424 622 -424q255 0 417 152zM801 417v66h-114v-66h114zM959 278v42h-138v-42h138zM1093 125v51h-118v-51h118z
M801 345v56h-114v-56h114zM959 192v61h-138v-61h138zM661 81v636q-8 8 -27 25v-612q0 -12 27 -49zM801 278v42h-114v-42h114zM959 125v49h-138v-49h138zM801 192v61h-114v-61h114zM801 125v51h-114v-51h114z" />
  </g>

</svg>
