<?xml version="1.0" standalone="no"?>
<!DOCTYPE svg PUBLIC "-//W3C//DTD SVG 1.1//EN" "http://www.w3.org/Graphics/SVG/1.1/DTD/svg11.dtd" >
<svg viewBox="0 -442 2048 2048">
  <g transform="matrix(1 0 0 -1 0 1606)">
   <path fill="currentColor"
d="M1940 695h-330v-32h292v-306h-291v-358h-152v-213q0 -50 -37 -101q-39 -55 -87 -55h-584q-53 0 -92 54q-35 49 -36 105l-3 216q-61 -19 -142 -19q-178 0 -260 73q-136 120 -136 439q0 240 75 363q94 156 320 156q91 0 144 -22q1 46 2 102q3 90 26 120q53 69 135 60l9 204
q0 22 4 63q5 23 40 23q3 0 9 1t10 1q28 0 28 -72q0 -10 -1 -30t-1 -30q0 -122 11 -156h420q47 0 88.5 -31.5t53.5 -76.5q4 -15 4 -171h481v-307zM1855 794v137h-461v-835h136v358h290v139h-291v201h326zM1323 1003v111h-561v-111h561zM1324 794v137h-462v-835h136v358h294
v139h-295v201h327zM1311 228v97h-137v-97h137zM1311 109v90h-137v-90h137zM1148 228v97h-69v-97h69zM1311 2v81h-137v-81h137zM1148 109v90h-69v-90h69zM1361 -127v96h-187v-96h187zM1148 2v81h-69v-81h69zM1361 -234v81h-187v-81h187zM783 512q0 436 -305 436
q-311 0 -311 -437q0 -200 54 -299q72 -132 257 -132q179 0 251 136q54 101 54 296zM1148 -127v96h-207v-96h207zM1148 -234v81h-207v-81h207zM912 -127v96h-185v-96h185zM912 -234v81h-183v-81h183zM654 512q0 -287 -176 -287q-179 0 -179 287q0 291 178 291q177 0 177 -291
z" />
  </g>

</svg>
