<?xml version="1.0" standalone="no"?>
<!DOCTYPE svg PUBLIC "-//W3C//DTD SVG 1.1//EN" "http://www.w3.org/Graphics/SVG/1.1/DTD/svg11.dtd" >
<svg viewBox="0 -442 2088 2048">
  <g transform="matrix(1 0 0 -1 0 1606)">
   <path fill="currentColor"
d="M2088 -255q0 -17 -17 -49q-10 -19 -40 -36t-52 -17q16 0 -134 51q-221 67 -657 213q-33 12 -55 39q-34 41 -33 139l-6 3q-10 -3 -36 -24q-22 -18 -40 -18q-6 0 -18.5 1t-18.5 1q-26 0 -160 -55q-87 -35 -173 -71l-375 125q-15 90 -37 189q-4 6 -28 14q-20 6 -20 22
l-3 200q8 1 23 9v16q-12 6 -35 22q-91 91 -91 306q0 76 65 145q35 37 134 66q109 33 132 49q1 0 14 30q300 114 904 329q43 14 80 14q79 0 146 -37l27 -15q5 0 15 8.5t14 8.5q34 0 80 -8q68 -12 101 -101q25 -67 25 -151q0 -38 -35 -85q-7 -10 -32 -26h-8l-7 4q-4 13 -4 28
q0 16 5 47t5 47q0 81 -25 116v11q15 7 44 23q4 5 4 10q0 9 -25 38q-4 1 -10 1q-20 0 -48 -9.5t-35 -9.5q-4 0 -8 1l-1 1l-3 -1q13 -11 37 -35q15 -18 33 -66.5t18 -70.5v-89q0 -13 -1.5 -38.5t-1.5 -38.5v-351l5 -5q102 -18 299 -70q23 -17 63 -45v-805zM1623 1349
q-7 28 -54 28q15 0 -75 -18q-5 -5 -11 -17q37 -37 44 -37q4 0 46.5 20.5t49.5 23.5zM1375 1394v18q-4 0 -12 2t-12 2q5 0 -50 -11q36 -18 42 -18q11 0 32 7zM1216 1351v12l-4 4q-2 0 -7 1.5t-8 1.5q-6 0 -55 -10v-18l5 4q8 0 22.5 -2.5t22.5 -2.5q2 0 24 10zM1105 1304v20
q-64 0 -80 1v-21h14q7 0 22 -1t22 -1q11 0 22 2zM2072 -242v782q-27 22 -43 29q-27 11 -423.5 110t-408.5 99q-24 0 -49 -38q87 -22 546 -135q87 -19 259 -65q24 -8 54 -28v-820q6 -7 15 -7q24 0 42 33q8 15 8 40zM1125 770q-5 8 -17 20q-23 14 -53 14q-4 0 -9 -4.5t-9 -4.5
q-3 0 -7 3t-7 3q-8 0 -93 -47q6 -6 7 -11q68 0 82 -2q5 -1 15 -6.5t13 -5.5q4 0 20 15t21 17q13 2 37 9zM1981 -308v799q-18 20 -31 26q-33 8 -97 24l-714 182l-14 -17v-694q0 -24 33 -56q21 -20 77 -37l86 -24q173 -56 346 -113q288 -94 303 -94q8 0 11 4zM1678 1151
q0 10 -12 33.5t-20 23.5q-6 0 -19.5 -8t-18.5 -8q-19 0 -30 12q-5 12 -18 36q-43 70 -94 90q-16 6 -63 14l-262 -91q-59 6 -175 26l-511 -174q5 -1 15 -6t14 -5q6 0 22 8t22 8t20.5 -5.5t18.5 -6.5q12 0 35 -5q31 -11 80.5 -53t57.5 -69q43 -147 43 -202q0 -105 -110 -205
q-23 -16 -47 -32q-25 -20 -25 -48q0 -17 2 -51t2 -51q8 3 85 26v-433l194 72v675q0 17 16 33q6 6 63 37.5t63 31.5q10 0 28 -8t27 -8q6 0 292 125.5t291 131.5q14 16 14 86zM699 972l-66 70q-62 -19 -129 -50q34 -25 69 -77q5 -1 13 -1q20 0 39 13q29 21 34 23q19 2 40 22z
M1098 177v415h-116v-352q0 -22 48 -41zM1108 649v74q-70 -20 -72 -20q-3 0 -45 4q-23 19 -68 19q-16 0 -16 -46v-14l23 -597h94q24 0 40 22t16 46q0 5 -8 20q-5 -4 -15 -4l1 -9l-2 -4q-4 16 -44 28q-50 16 -56 20v422q8 9 16 9q5 0 15.5 -1.5t15.5 -1.5q38 0 70 16.5
t35 16.5zM634 661q0 32 -28 129q-33 113 -78 153l-74 66q-41 30 -92 30q-24 0 -54 -12q36 -8 102 -38q65 -47 113 -128q51 -86 51 -161v-52q-1 -34 -1 -51q0 -34 -20 -62h31q19 16 35 59q15 40 15 67zM429 726q0 42 -28 42q-6 0 -14 -7v-30q0 -19 13 -37h11q18 16 18 32z
M500 696q0 14 -12 52q0 12 -5 33q-10 9 -28 29q-81 112 -143 110l-27 -1q-32 -1 -80 -60q-20 -25 -20 -67q0 -66 23 -129q30 -83 83 -83h13v7q-24 5 -56 45q-29 35 -40 64q-10 26 -10 71q0 39 30 85q32 50 69 50q71 0 128 -73q53 -69 53 -142q0 -16 -7 -58q11 -6 19 -6
q10 31 10 73zM354 668q-12 24 -32 73q-4 20 -15 60q-18 -16 -18 -50q0 -74 65 -83zM474 591l-14 15q-36 -39 -76 -50v-15q34 10 50 17q30 14 40 33zM510 546l-11 11q-22 -20 -119 -53v-22h17q5 0 16.5 9t14.5 10q22 8 46 17t36 28zM500 492q-70 -35 -114 -41q18 -5 28 -5
q8 0 41 11.5t38.5 18t6.5 16.5zM555 190v50q0 15 -2 40q-2 30 -2 39q-43 13 -278 72v-17q0 -16 3.5 -46.5t3.5 -45.5l6 -14q19 -9 136 -43.5t133 -34.5z" />
  </g>

</svg>
