<?xml version="1.0" standalone="no"?>
<!DOCTYPE svg PUBLIC "-//W3C//DTD SVG 1.1//EN" "http://www.w3.org/Graphics/SVG/1.1/DTD/svg11.dtd" >
<svg viewBox="0 -442 2185 2048">
  <g transform="matrix(1 0 0 -1 0 1606)">
   <path fill="currentColor"
d="M2185 1133l-221 -171l37 -18h15v-7l159 -78l-159 -40v-241l40 -77l-40 22v-528h-780q-34 -15 -78 -34q-44 -14 -111 -14q-50 0 -97 11q-10 2 -47.5 19.5t-40.5 17.5h-780v947h74v154h356v-153h208q9 40 32 118q3 9 56 63t58 54h359l-85 141l289 -146l66 346l153 -333
l207 198l-25 -251h355zM1934 777v21l-28 -7l7 -14h21zM2039 1083h-264l17 171l-160 -153l-117 255l-49 -258l-194 98l131 -218l-190 -84l224 -53l-73 -142l145 43l154 -295l10 320l264 -144l-104 201l197 50l-160 78zM1269 1028q-63 72 -71 72h-298q-8 0 -71 -72h440z
M1356 563l-13 77l-41 -12q33 -30 54 -65zM1580 378q0 31 -32 31q-31 0 -31 -31q0 -32 30 -32q33 0 33 32zM1580 280q0 35 -33 35q-30 0 -30 -35q0 -31 30 -31q33 0 33 31zM1326 735l-14 84l-255 61l183 81h-429l-69 -398q44 71 133 118.5t174 47.5q126 0 231 -83zM1934 89
v87h-529q-16 -29 -61 -87h590zM1379 324q0 135 -97.5 231t-232.5 96q-134 0 -233.5 -97t-99.5 -230q0 -135 99 -232.5t234 -97.5q137 0 233.5 96.5t96.5 233.5zM433 959v68h-195v-68h195zM706 876h-542v-99h523zM534 301q0 32 -25 48l-10 119h-34l-22 -156
q-3 -22 10.5 -39.5t35.5 -17.5q45 0 45 46zM754 89q-22 28 -61 87h-529v-87h590zM1303 319q0 -58 -35 -136q-21 12 -43 17q44 61 44 132q0 15 -7 55q-3 22 -6 22q-6 0 -28 -14q16 -65 16 -77q0 -61 -39 -110q-11 7 -21 7q17 30 28 73l1 2l-2 3q-11 -19 -21 -39
q-17 -30 -25 -30q-3 0 -60 19q0 -14 7 -62q-31 -20 -82 -20q10 0 -69 10q27 -21 61 -21q55 0 92 11v-3q-1 -7 3 -34l-4 4q-8 0 -31 -3q-19 -2 -30 -2q-122 0 -181 107q-18 -10 -29 -21q50 -60 92.5 -80.5t120.5 -20.5q35 0 66 15q0 6 6 -56q-41 -10 -76 -10q-108 0 -187 77
t-79 184t78.5 180.5t185.5 73.5q108 0 181 -73t73 -180zM1082 407q-36 8 -41 8q-70 0 -82 -69q21 45 49 55q18 7 74 6zM1093 291q0 27 -27 27q-30 0 -30 -28q0 -29 30 -29q27 0 27 30z" />
  </g>

</svg>
