<?xml version="1.0" standalone="no"?>
<!DOCTYPE svg PUBLIC "-//W3C//DTD SVG 1.1//EN" "http://www.w3.org/Graphics/SVG/1.1/DTD/svg11.dtd" >
<svg viewBox="0 -442 2106 2048">
  <g transform="matrix(1 0 0 -1 0 1606)">
   <path fill="currentColor"
d="M2106 778h-52v153h-1918v-153h-54v316q0 -1 24 35h1976q24 -36 24 -34v-317zM2106 -37q0 -17 -22 -33.5t-39 -16.5h-1905q-17 0 -37.5 17t-20.5 34v781q0 2 1.5 6t1.5 5q-1 2 -3 4h69v151h1886v-151h69l-3 -4q3 -4 3 -10v-783zM1876 727h-98q55 -43 97 -117v51q1 35 1 50
v16zM2034 429q0 160 -73 298h-55v-230q0 -97 -46 -178q-48 -84 -132 -126h242q64 93 64 236zM1731 485q0 30 -21.5 70.5t-48.5 49.5q-49 17 -56 17h-18v-12q21 -1 33 -12v-16l-2 -2h-31v-39q52 -19 52 -66t-52 -60v-68h27q10 0 42.5 20t40.5 30q34 41 34 88zM1620 478
q0 12 -15 28q-2 2 -8.5 2.5t-6.5 4.5l-3 -71h12q21 13 21 36zM1495 226v475q-26 17 -32 17h-738q-7 0 -32 -17v-475q9 -7 25 -14l749 -3q11 0 28 17zM597 679v47h-288l90 -235q23 92 64.5 131.5t133.5 56.5zM601 446l-4 68q-7 -2 -19.5 -15.5t-12.5 -20.5q14 -36 25 -36
q4 0 7 2t4 2zM601 347v68q-52 1 -52 60q0 45 52 66v35q-12 1 -36 6v15q12 9 36 17q-4 9 -13 9q-51 0 -97 -47q-6 -6 -20 -44t-14 -47q0 -51 41 -94.5t92 -43.5h11zM601 231q0 38 -4 53q-5 -1 -12 -1q-13 0 -56 13t-53 21q-46 35 -62 65q-35 67 -74 171q-32 88 -65 175h-48
q-76 -118 -76 -299q0 -140 67 -237h369q14 11 14 39zM1682 548q-4 -4 -20 -4q-6 0 -32 27v25h14q8 0 23.5 -20t14.5 -28zM1702 434q0 -11 -24 -35t-36.5 -28.5t-24.5 -3.5h-3v22q25 6 62 55q11 5 13 5q13 0 13 -15zM555 571l-24 -27h-24q-4 0 -4 8q0 13 40 44h12v-25z
M574 370h-27q-11 0 -37.5 27.5t-26.5 37.5q0 14 15 14q7 0 30.5 -30.5t45.5 -29.5v-19z" />
  </g>

</svg>
