<?xml version="1.0" standalone="no"?>
<!DOCTYPE svg PUBLIC "-//W3C//DTD SVG 1.1//EN" "http://www.w3.org/Graphics/SVG/1.1/DTD/svg11.dtd" >
<svg viewBox="0 -442 2048 2048">
  <g transform="matrix(1 0 0 -1 0 1606)">
   <path fill="currentColor"
d="M2018 541q0 -265 -189.5 -456t-454.5 -191q-258 0 -447.5 194t-189.5 453q0 264 187 457t450 193q267 0 455.5 -191.5t188.5 -458.5zM612 76q0 -8 -15 -36.5t-22 -32.5q-29 -18 -54 -18h-352q-34 0 -60.5 34.5t-26.5 69.5v832q0 47 28.5 80t74.5 27q6 32 6 62v95
q0 28 28 28t28 -18v-163h271q31 0 62.5 -25t31.5 -55v-880zM1949 541q0 236 -170 406.5t-405 170.5q-232 0 -400 -172t-168 -405q0 -228 171 -401.5t399 -173.5q233 0 403 171t170 404zM216 1037v170q-13 -31 -13 -149q0 -11 4 -21h9zM526 589v341h-354v-341h354zM556 555
v358q0 4 -16 18v-370h-365l4 -6h377zM549 451v64h-114v-64h114zM549 372v58h-114v-58h114zM585 960v12q0 19 -31.5 35t-52.5 16h-305q-41 0 -66 -25q-31 -31 -31 -59v-859q0 -13 29 -48v911q0 20 21 40t41 20h325q29 0 70 -43zM549 296v55h-114v-55h114zM414 372v143h-131
v-143h131zM549 227v48h-114v-48h114zM266 451v63h-116v-63h116zM414 296v55h-131v-55h131zM549 144v62h-114v-62h114zM266 372v58h-118v-58h118zM414 227v48h-131v-48h131zM549 79v48h-114v-48h114zM266 296v55h-118v-55h118zM414 144v62h-131v-62h131zM266 227v48h-118v-48
h118zM414 79v48h-131v-48h131zM266 144v62h-118v-62h118zM266 79v48h-118v-48h118zM1850 541q0 -161 -104 -298q-32 36 -39 36q12 0 -111 -32l76 -75q-115 -104 -293 -104q-192 0 -333 140.5t-141 332.5q0 158 107 301l148 -152q22 123 22 116q0 4 -99 103q43 48 136 81
q85 30 157 30q195 0 334.5 -141.5t139.5 -337.5zM389 461q0 -58 -17 -58q-45 0 -62 8v62q15 7 40 7q39 0 39 -19zM1718 365q0 29 -61 87q-66 63 -79 115q-6 20 -17 60q-7 58 -15 115q-12 78 -39 102q-21 11 -65 33q-5 64 -63 64q-45 0 -60 -31q-7 -19 -14 -39q-5 -2 -16 -6
q-52 -22 -64 -57q-9 -26 -31 -162q-17 -105 -53 -150q-37 -32 -93 -89q-11 -15 -11 -38q0 -57 143 -83q91 -17 196 -17q101 0 198 18q144 26 144 78zM375 424v35q-9 8 -25 8q-11 0 -27 -7v-36q12 -7 27 -7q17 0 25 7zM1418 881q-64 1 -84 1q-1 36 44 36q40 0 40 -28v-9z
M1691 361q-31 51 -66 53q-30 -52 -190 -52q-11 -53 -57 -53q-38 0 -57 51l-104 10q-66 11 -87 44q-43 -9 -66 -53q8 47 83 79q62 27 119 27h223q55 0 114 -24q70 -28 88 -70v-12zM1419 381q0 43 -41 43q-42 0 -42 -45q0 -44 42 -44q41 0 41 46z" />
  </g>

</svg>
