<?xml version="1.0" standalone="no"?>
<!DOCTYPE svg PUBLIC "-//W3C//DTD SVG 1.1//EN" "http://www.w3.org/Graphics/SVG/1.1/DTD/svg11.dtd" >
<svg viewBox="0 -442 2048 2048">
  <g transform="matrix(1 0 0 -1 0 1606)">
   <path fill="currentColor"
d="M1568 -281l-52 -52h-1382q-52 52 -52 56v1491l1279 309q10 3 47 -28v-268h135q25 -39 25 -32v-1476zM1329 1227v199l-878 -199h878zM1489 -249v1393h-1325v-1393h1325zM1404 909h-132v35h132v-35zM1404 812h-29v32h29v-32zM1353 812h-33v32h33v-32zM1247 909h-78v35h78
v-35zM1403 709h-28v42h28v-42zM1114 1012h-145v78h145v-78zM1351 709h-31v42h31v-42zM1301 812h-132v32h132v-32zM1144 909h-81v35h81v-35zM1300 709h-28v42h28v-42zM1404 612h-132v37h132v-37zM1247 709h-33v42h33v-42zM1144 812h-29v32h29v-32zM929 1012h-148v78h148v-78z
M1089 812h-26v32h26v-32zM990 909h-30v35h30v-35zM1247 612h-33v39h33v-39zM1195 711h-132v40h132v-40zM941 909h-84v35h84v-35zM990 812h-81v32h81v-32zM1195 612h-132v37h132v-37zM741 1012h-150v78h150v-78zM835 909h-135v35h135v-35zM887 812h-81v32h81v-32zM990 709
h-133v42h133v-42zM1404 229h-341v325h341v-325zM681 909h-33v35h33v-35zM557 1012h-57v78h57v-78zM784 812h-84v32h84v-32zM990 612h-133v39h133v-39zM835 709h-29v42h29v-42zM1404 131h-29v38l29 -3v-35zM990 515h-30v36h30v-36zM681 812h-33v32h33v-32zM1353 131h-33v38
l33 -3v-35zM941 515h-32v36h32v-36zM835 612h-29v39h29v-39zM784 709h-136v42h136v-42zM1301 131h-29v38l29 -3v-35zM575 909h-133v35h133v-35zM784 612h-33v39h33v-39zM575 812h-30v32h30v-32zM1404 31h-132v38h132v-38zM990 412h-81v39h81v-39zM1247 131h-33v38h33v-38z
M887 515h-136v36h136v-36zM732 612h-32v39h32v-39zM1404 -31l-3 -35h-26v35h29zM526 812h-35v32h35v-32zM990 331h-30v35h30v-35zM420 909h-81v35h81v-35zM681 612h-33v39h33v-39zM575 709h-30v42h30v-42zM1247 31h-33v38h33v-38zM1195 131h-132v37h132v-37zM887 412h-81v39
h81v-39zM1353 -65h-81v34h81v-34zM732 515h-32v36h32v-36zM941 331h-84v35h84v-35zM1404 -166h-29v39l29 -4v-35zM525 709h-34v42h34v-42zM472 812h-133v32h133v-32zM314 909h-81v35h81v-35zM681 515h-33v36h33v-36zM990 228h-81v38h81v-38zM470 709h-28v42h28v-42zM1195 31
h-132v38h132v-38zM1247 -66h-78v35h78v-35zM784 412h-136v39h136v-39zM575 612h-133v39h133v-39zM1353 -166h-139v37h139v-37zM420 709h-32v42h32v-42zM314 812h-29v32h29v-32zM835 331h-135v35h135v-35zM887 228h-81v38h81v-38zM575 515h-30v36h30v-36zM263 812h-30v32h30
v-32zM990 131h-133v38h133v-38zM1144 -66h-81v35h81v-35zM420 612h-32v39h32v-39zM369 711h-136v40h136v-40zM526 515h-84v36h84v-36zM681 331h-33v35h33v-35zM1195 -166h-80v37h80v-37zM575 412h-30v39h30v-39zM784 228h-84v38h84v-38zM990 31h-133v38h133v-38zM835 131
h-29v38h29v-38zM369 612h-136v37h136v-37zM1089 -166h-26v38h26v-38zM990 -66l-30 3v32h30v-35zM420 515h-81v36h81v-36zM681 228h-33v38h33v-38zM526 414h-138v37h138v-37zM941 -66h-32v35h32v-35zM835 31h-29v38h29v-38zM784 131h-136v38h136v-38zM575 331h-133v35h133
v-35zM784 31h-33v38h33v-38zM314 515h-81v36h81v-36zM990 -166h-81v38h81v-38zM887 -66h-136v35h136v-35zM732 31h-32v38h32v-38zM369 414h-84v37h84v-37zM420 331h-81v35h81v-35zM681 31h-33v38h33v-38zM887 -166h-81v38h81v-38zM263 412h-30v39h30v-39zM732 -66h-32v35h32
v-35zM314 331h-81v35h81v-35zM681 -66h-33v35h33v-35zM784 -166h-136v38h136v-38zM575 -66h-342v332h342v-332zM575 -166h-30v38h30v-38zM526 -166h-138v37h138v-37zM369 -166h-84v37h84v-37zM263 -166h-30v38h30v-38z" />
  </g>

</svg>
