<?xml version="1.0" standalone="no"?>
<!DOCTYPE svg PUBLIC "-//W3C//DTD SVG 1.1//EN" "http://www.w3.org/Graphics/SVG/1.1/DTD/svg11.dtd" >
<svg viewBox="0 -442 2048 2048">
  <g transform="matrix(1 0 0 -1 0 1606)">
   <path fill="currentColor"
d="M2010 -109q0 -21 -17 -60q-22 -49 -73 -87.5t-103 -38.5h-83q-12 -27 -31 -84h-143q-8 39 -28 84h-972q-19 -43 -28 -84h-143q-9 28 -31 84q-85 0 -109 5q-61 13 -112 66q-55 56 -55 116v869q0 52 44 107.5t95 68.5q22 3 66 11q10 2 122 41q98 33 294 100l1109 381
q0 21 5 37q99 42 113 42q24 0 44 -33q17 -29 17 -55q0 -20 -13 -30q-8 -6 -53 -25.5t-53 -19.5q-7 0 -36 22l-1294 -461h1288q8 0 57 -16q42 -14 82.5 -69.5t40.5 -99.5v-871zM1963 1497q-8 12 -26 27l-87 -26q7 -12 23 -37zM1929 -93v839q0 42 -38 81t-80 39h-1530
q-43 0 -80 -39t-37 -82v-49h850v-57h-850v-81h850v-57h-850v-80h850v-57h-850v-81h850v-57h-850v-81h850v-57h-850v-80h850v-58h-850v-43q0 -58 50 -94q32 -23 51 -23h1562q34 0 68 41.5t34 75.5zM1850 366h-672v331h672v-331zM1860 139q0 -62 -41 -104t-103 -42
q-60 0 -103.5 43t-43.5 103q0 59 43 102t102 43q63 0 104.5 -41t41.5 -104zM1478 137q0 -61 -42.5 -102.5t-103.5 -41.5q-62 0 -103.5 42t-41.5 104q0 59 43 102t102 43q63 0 104.5 -42t41.5 -105zM1786 419v222h-545v-222h329v147h45v-147h171z" />
  </g>

</svg>
