<?xml version="1.0" standalone="no"?>
<!DOCTYPE svg PUBLIC "-//W3C//DTD SVG 1.1//EN" "http://www.w3.org/Graphics/SVG/1.1/DTD/svg11.dtd" >
<svg viewBox="0 -442 2048 2048">
  <g transform="matrix(1 0 0 -1 0 1606)">
   <path fill="currentColor"
d="M1940 479l-525 -533l-510 532h348v559q0 7 -5 51q-14 121 -31 169q-29 83 -106 135t-229 44q71 78 283 78q187 0 298 -132q97 -114 124 -311q8 -59 8 -82v-510h345zM1140 -273q-71 -78 -283 -78q-188 0 -299 131q-97 115 -123 312q-8 60 -8 83v509h-345l525 533l510 -532
h-348v-560q0 -8 5 -51q14 -124 30 -169q30 -83 106 -133q69 -45 230 -45z" />
  </g>

</svg>
