<?xml version="1.0" standalone="no"?>
<!DOCTYPE svg PUBLIC "-//W3C//DTD SVG 1.1//EN" "http://www.w3.org/Graphics/SVG/1.1/DTD/svg11.dtd" >
<svg viewBox="0 -442 2048 2048">
  <g transform="matrix(1 0 0 -1 0 1606)">
   <path fill="currentColor"
d="M1063 1039q0 -19 -59.5 -79t-78.5 -60q-15 0 -31.5 16.5t-16.5 31.5q0 19 61 78.5t80 59.5q45 0 45 -47zM699 1171q0 -82 -1 -89q-8 -58 -46 -58q-47 0 -47 68q0 83 1 88q7 59 43 59q50 0 50 -68zM1221 666q0 -49 -74 -49h-68q-78 0 -78 49t74 49h80q66 0 66 -49z
M420 945q0 -14 -15.5 -29.5t-29.5 -15.5q-10 0 -66 49t-62.5 62.5t-6.5 27.5q0 47 45 47q15 0 67 -49q48 -45 60 -65q8 -13 8 -27zM917 669q0 -110 -77.5 -187.5t-187.5 -77.5q-109 0 -187 77t-78 185t78 185.5t187 77.5q107 0 186 -76.5t79 -183.5zM1063 300q0 -48 -48 -48
q-11 0 -74.5 63.5t-63.5 74.5q0 14 16.5 28t31.5 14q23 0 80.5 -55t57.5 -77zM699 218q0 -60 -3 -75q-9 -44 -47 -44q-15 0 -42 25v171q24 24 45 24q47 0 47 -101zM302 666q0 -37 -48 -47q-17 -3 -77 -3q-95 0 -95 53q0 47 123 47q97 0 97 -50zM420 390q0 -19 -59.5 -78.5
t-78.5 -59.5q-42 0 -42 48q0 19 56.5 75.5t75.5 56.5q48 0 48 -42zM838 666q0 78 -54.5 133.5t-131.5 55.5q-76 0 -134 -56.5t-58 -132.5q0 -75 57 -132t132 -57q79 0 134 55t55 134z" />
  </g>

</svg>
