<?xml version="1.0" standalone="no"?>
<!DOCTYPE svg PUBLIC "-//W3C//DTD SVG 1.1//EN" "http://www.w3.org/Graphics/SVG/1.1/DTD/svg11.dtd" >
<svg viewBox="0 -442 2048 2048">
  <g transform="matrix(1 0 0 -1 0 1606)">
   <path fill="currentColor"
d="M1097 1046q0 -29 -32 -58.5t-62 -29.5q-49 0 -49 48q0 28 32 61.5t60 33.5q51 0 51 -55zM1252 671q0 -58 -80 -58t-80 58q0 51 80 51t80 -51zM719 1170q0 -75 -52 -75q-57 0 -57 75q0 80 54 80q55 0 55 -80zM386 1006q0 -48 -54 -48q-23 0 -59 34t-36 57q0 16 20 34
t37 18q24 0 58 -35.5t34 -59.5zM1097 298q0 -21 -17 -39t-37 -18q-23 0 -56 35.5t-33 58.5q0 20 15 37.5t34 17.5q24 0 59 -34t35 -58zM942 674q0 -115 -78.5 -194t-193.5 -79q-114 0 -193.5 79.5t-79.5 193.5q0 111 80.5 188.5t192.5 77.5t192 -77t80 -189zM248 668
q0 -55 -83 -55t-83 58q0 51 83 51t83 -54zM719 166q0 -80 -52 -80q-57 0 -57 80t54 80q55 0 55 -80zM386 335q0 -23 -36 -58.5t-59 -35.5q-17 0 -35.5 20t-18.5 37q0 22 37.5 57t59.5 35q17 0 34.5 -18.5t17.5 -36.5zM851 671q0 77 -52.5 130t-128.5 53q-72 0 -129 -54
t-57 -126q0 -73 55 -130t128 -57t128.5 55.5t55.5 128.5z" />
  </g>

</svg>
