<?xml version="1.0" standalone="no"?>
<!DOCTYPE svg PUBLIC "-//W3C//DTD SVG 1.1//EN" "http://www.w3.org/Graphics/SVG/1.1/DTD/svg11.dtd" >
<svg viewBox="0 -442 2048 2048">
  <g transform="matrix(1 0 0 -1 0 1606)">
   <path fill="currentColor"
d="M1602 -341h-113v1264q0 90 -13 150q-7 11 -20 33q-17 36 -57.5 62t-80.5 26q-113 0 -167 -82q-8 -12 -24 -68.5t-16 -70.5v-223q0 -76 9.5 -227.5t9.5 -227.5q0 -181 -91 -315q-29 -43 -97 -99q-58 -48 -98 -60q-9 -3 -83 -14q-111 -17 -98 -17q-11 0 -29 3q-22 4 -29 5
q-192 18 -293 145q-4 10 -11 28q-30 67 -30 129v264q-16 6 -33 6q-1 12 -13 202q-23 1 -69 9q-74 24 -74 105v507q92 0 89 1v328q0 5 1.5 5t1.5 5q-1 2 -3 3h63q13 -8 13 -16v-325h232v325q0 17 26 17q42 0 50 -17v-325q1 1 4 1q16 0 47 -1t47 -1v-483q0 -9 -11 -49t-15 -44
q-26 -27 -79 -29q-87 -4 -88 -4l-18 -217q-5 1 -12 1h-17q-11 -1 -17 -1v-268q0 -30 13 -63q21 -53 105 -88q73 -30 139 -30q35 0 97 12q72 13 89 28q78 69 109 120q37 62 45 156q10 111 8 131l-15 185l-7 93v253q0 10 2.5 27.5t2.5 24.5q12 199 110 293q81 78 224 78
q124 0 221 -105q9 -10 36 -53t27 -51v-1451zM1412 1262q-16 27 -104 27q-15 0 -132 -46q-22 -8 -55 -30q-88 -112 -85 -239v-9q13 59 58 175q17 33 58 80q97 53 200 53q26 0 60 -11zM526 1194v329h-28v-329h28zM222 1194v329h-27v-329h27zM561 1127q0 3 -1.5 9t-1.5 9h-439
v-472q8 -5 24 -13v467h418zM1046 258q0 25 -8 84v-132q0 -30 -29 -110q-41 -112 -149 -166q60 11 103 67q83 108 83 257zM301 549h-41v-11h38q3 3 3 8v3zM304 506v5l-47 -3v-5zM307 453v8h-44v-8h44zM311 407q0 8 -4 12q-20 0 -35 5q0 -2 -1 -5v-5q0 -1 1 -4l33 -3h6z" />
  </g>

</svg>
