<?xml version="1.0" standalone="no"?>
<!DOCTYPE svg PUBLIC "-//W3C//DTD SVG 1.1//EN" "http://www.w3.org/Graphics/SVG/1.1/DTD/svg11.dtd" >
<svg viewBox="0 -442 2048 2048">
  <g transform="matrix(1 0 0 -1 0 1606)">
   <path fill="currentColor"
d="M1759 916l-372 -330v201q-8 -2 -19 -2q-7 0 -19.5 1t-19.5 1q-29 0 -75 -15t-66 -33q-13 -11 -119 -124q-129 -136 -231 -248q-55 -65 -173 -186q-24 -21 -96 -55q-76 -35 -103 -35h-384v266h356q69 0 182 116q78 86 155 173q101 114 312 330q79 73 182 73q8 0 24.5 -1.5
t24.5 -1.5q18 0 68 2v202zM1759 224l-373 -329v201h-157q4 0 -38 12q-75 21 -151 96q-61 69 -122 137l157 170q138 -158 250 -158q10 0 29 2t28 2q4 8 4 31q0 28 -3 170zM806 799l-147 -171q-32 31 -97 93t-128 62h-352v266h389l48 -13q82 -22 160 -96q32 -30 127 -141z" />
  </g>

</svg>
