<?xml version="1.0" standalone="no"?>
<!DOCTYPE svg PUBLIC "-//W3C//DTD SVG 1.1//EN" "http://www.w3.org/Graphics/SVG/1.1/DTD/svg11.dtd" >
<svg viewBox="0 -442 2048 2048">
  <g transform="matrix(1 0 0 -1 0 1606)">
   <path fill="currentColor"
d="M1986 849h-463q-65 0 -118 46q-49 -51 -178 -95v-146h193q9 0 21 -16t12 -25v-924q0 -51 -49 -51h-1268q-15 0 -33 15t-18 30v929q0 13 13 27.5t26 14.5h186v356q-12 9 -42 9q-13 0 -39 -6.5t-39 -6.5q-49 0 -80 42q-28 39 -28 90q0 49 27 92q31 48 78 48q13 0 40 -7.5
t40 -7.5q29 0 59 6q9 17 16 39q25 77 113 144q85 64 168 75q103 13 146 13q128 0 219 -35l36 -18q29 -14 33 -14q17 0 52.5 6t52.5 6q164 0 240 -99q46 49 148 49h436v-64h-423q-59 0 -99 -28q-30 -20 -72 -77q-20 75 -91 115q-62 36 -145 36q-80 0 -263 -52
q-158 -51 -316 -103q-206 -64 -315 -64q-17 0 -39.5 7.5t-34.5 7.5q-45 0 -45 -54h461q9 48 53 48q33 0 51 -27q23 -2 34 -1l260 22q68 6 68 -50t-64 -49q-250 26 -298 22q-13 -25 -38 -25q-35 0 -45 6q-15 9 -21 41h-459q-2 -1 -2 -5q0 -48 48 -48q9 0 28 6.5t30 5.5h18
q108 -3 324 -70q163 -52 327 -104q155 -45 240 -45q189 0 234 154q12 -28 55.5 -66.5t71.5 -38.5h467v-86zM922 1440q-79 23 -155 23q-264 0 -345 -178q16 1 45 10q22 26 65 72q72 67 159 69l5 -2q-80 -35 -100 -47q-48 -28 -82 -74zM1153 655v144h-58v-144h58zM1063 655
v150q-11 1 -33 6v-156h33zM955 655v172l-370 117v-289h370zM1375 -284v861h-45v-861h45zM507 655v314q-31 10 -54 15v-329h54zM418 655v342q-12 0 -30 6v-348h30zM1292 -284v861h-1130v-861h1130zM888 294q0 -67 -59 -102l58 -325h-234l52 321q0 3 -17 18.5t-19 19.5
q-16 27 -16 65q0 50 33.5 86t83.5 36q49 0 83.5 -35t34.5 -84z" />
  </g>

</svg>
