<?xml version="1.0" standalone="no"?>
<!DOCTYPE svg PUBLIC "-//W3C//DTD SVG 1.1//EN" "http://www.w3.org/Graphics/SVG/1.1/DTD/svg11.dtd" >
<svg viewBox="0 -442 2048 2048">
  <g transform="matrix(1 0 0 -1 0 1606)">
   <path fill="currentColor"
d="M1940 845q0 -14 -89 -108q-55 -56 -110 -113l-752 -814q-55 -64 -152 -158q-26 -18 -48 -18q-42 0 -113 19q-148 40 -282 158q-66 58 -222 236q-25 29 -57.5 119t-32.5 130q0 27 22.5 61.5t67.5 78.5l74 72q251 271 755 811q68 77 194 202q4 3 14 3q77 0 183 -44
q3 -1 93 -62q25 -15 85 -61q18 16 24 16q23 0 63 -24q13 -8 67.5 -62.5t54.5 -61.5q0 -16 -23 -38q65 -62 121 -158q63 -109 63 -184zM1731 1225q-18 19 -57 52q-2 -4 -7 -4q12 -9 38 -35q-5 -7 -17 -18q-9 9 -23 16q-27 -27 -42 -30q19 -37 19 -35q0 -4 -6 -8q-7 2 -26 7
q27 -30 41 -30q-4 0 80 85zM1897 870v23q0 23 -30 71l-63 93q-16 26 -31 52q-21 32 -41 41q-12 -16 -36 -47q29 -20 37 -20h10q1 6 8 16q28 -27 28 -35q0 -5 -10.5 -14t-15.5 -9q-31 0 -90 39q-16 15 -48 43q-40 27 -107 90q-3 8 -12 22q-16 14 -45 45q-36 48 -36 74
q0 10 11 19q10 -7 26 -25q7 -23 28 -67q8 -12 42 -43t43 -31q1 0 9 4q-10 15 -25 30q4 5 14 11q10 -10 24 -16q6 33 29 46l-16 16q14 15 21 15q9 0 35 -26q4 7 8 21q-1 1 -50 40q-52 -48 -71 -48q-8 0 -13 8q8 7 13 19q-178 155 -276 155q-31 0 -31 -28q0 -37 54 -121
q42 -68 82 -112q253 -284 486 -354q-36 16 -51 35q13 12 20 12q13 0 53 -28q1 -7 5 -20q5 4 12 4zM1865 816q-10 11 -77 41q-80 35 -90 41q-21 14 -64 43q-111 72 -264 234q-84 89 -116 133q-64 88 -66 158l-546 -588q-83 -90 -241 -259q-40 -40 -114 -124q-14 -19 -14 -34
q0 -46 44.5 -132.5t44.5 -79.5q0 -6 -79.5 -86.5t-79.5 -94.5q0 -41 72 -92q25 44 76 100q43 45 86 91q75 -77 235 -219q136 -103 282 -103q8 0 312 323q588 624 599 648zM1660 1026q-12 -4 -14 -4q8 0 -26 22q-135 87 -192 168q4 6 14 18l79 -71q4 4 11 4q11 0 19 -11
q5 -36 55.5 -73.5t53.5 -52.5zM1431 1241l-8 -8q-17 16 -43 36q0 3 8 18q15 -15 43 -46zM1390 797l-27 -30l-93 87l-86 -93l-30 27l87 93l-93 86l27 30l93 -87l86 93l30 -27l-87 -93zM776 138l-27 -29l-215 200l28 29z" />
  </g>

</svg>
