<?xml version="1.0" standalone="no"?>
<!DOCTYPE svg PUBLIC "-//W3C//DTD SVG 1.1//EN" "http://www.w3.org/Graphics/SVG/1.1/DTD/svg11.dtd" >
<svg viewBox="0 -442 2048 2048">
  <g transform="matrix(1 0 0 -1 0 1606)">
   <path fill="currentColor"
d="M1990 -155q0 -24 -38 -64q-29 -27 -58 -55q-29 -31 -90 -89q-10 -8 -28 -8q-20 0 -83 66q-97 96 -289 288q-38 35 -107 108q-7 8 -7 26q0 27 43 62l-73 73q-219 -161 -455 -161q-292 0 -507.5 216.5t-215.5 508.5q0 291 217 506.5t508 215.5q293 0 509 -216t216 -509
q0 -229 -158 -448l70 -70q13 11 26.5 22.5t31.5 11.5q26 0 85 -59q89 -88 267 -265q45 -43 128 -131q8 -10 8 -29zM1426 275q-37 37 -72 67q-21 -19 -36 -39q23 -25 73 -70zM1457 831q0 265 -191 456.5t-456 191.5q-266 0 -455.5 -191t-189.5 -457q0 -268 188.5 -456
t456.5 -188q266 0 456.5 189t190.5 455zM1367 220l-69 66q-7 -5 -17 -17l69 -70q13 13 17 21zM1801 -279l-403 402l131 131q-18 13 -27 13q-11 0 -79 -65.5t-68 -85.5q0 -12 16 -28q374 -384 401 -384q19 0 29 17zM1374 833q0 -234 -163 -397t-398 -165h-28
q-170 -2 -322 119t-198 287q-18 65 -18 108v18q40 -183 179 -297.5t325 -114.5q209 0 357 148t148 357q0 177 -108 315q-107 135 -279 183h10q64 0 172 -48q151 -67 238 -208q85 -137 85 -305zM705 1082q0 -76 -55 -131t-131 -55q-62 0 -112 38.5t-67 98.5q55 -84 146 -84
q67 0 116.5 48.5t49.5 114.5q0 104 -87 146q60 -19 100 -67t40 -109z" />
  </g>

</svg>
