<?xml version="1.0" standalone="no"?>
<!DOCTYPE svg PUBLIC "-//W3C//DTD SVG 1.1//EN" "http://www.w3.org/Graphics/SVG/1.1/DTD/svg11.dtd" >
<svg viewBox="0 -442 2048 2048">
  <g transform="matrix(1 0 0 -1 0 1606)">
   <path fill="currentColor"
d="M2004 822q0 -294 -217.5 -512t-511.5 -218q-248 0 -455 162q-33 -27 -77 -71q44 -48 44 -65q0 -20 -66 -85l-291 -294q-34 -36 -105 -105q-8 -7 -28 -7q-18 0 -27 7q-26 20 -94 87.5t-87 92.5q-7 9 -7 29q0 24 22 48q21 19 41 38q91 93 275 277q42 44 121 118q10 8 32 8
q30 0 57 -35q73 63 73 71q0 -5 -55 80q-104 162 -104 370q0 295 217.5 513t512.5 218q293 0 511.5 -217t218.5 -510zM1920 837q0 268 -190.5 460t-458.5 192q-267 0 -459.5 -192.5t-192.5 -459.5q0 -268 192 -458.5t460 -190.5q270 0 459.5 189.5t189.5 459.5zM797 274
l-40 36q-24 -22 -70 -70l39 -39q24 24 71 73zM737 330q-7 7 -18 14l-69 -67q6 -7 21 -17q42 42 66 70zM719 118q0 10 -8 23q-11 18 -68 70q-60 55 -73 55t-23 -8q-19 -15 -157 -158q-242 -251 -242 -257q0 -13 17 -29l408 409l135 -131q11 16 11 26zM1835 840
q0 -236 -163 -400.5t-401 -167.5h-20q-26 -1 -110 14q-125 22 -242 123q-113 99 -161 220q-37 95 -37 165v1v17q34 -182 177.5 -300t329.5 -118q211 0 360 149t149 360q0 175 -110 317.5t-280 183.5h10q52 0 136 -33q171 -68 266.5 -207.5t95.5 -323.5zM1162 1090
q0 -76 -56 -131.5t-132 -55.5q-58 0 -109.5 37t-67.5 92q64 -76 145 -76q71 0 119 47t48 118q0 96 -85 146q138 -51 138 -177z" />
  </g>

</svg>
