<?xml version="1.0" standalone="no"?>
<!DOCTYPE svg PUBLIC "-//W3C//DTD SVG 1.1//EN" "http://www.w3.org/Graphics/SVG/1.1/DTD/svg11.dtd" >
<svg viewBox="0 -442 2048 2048">
  <g transform="matrix(1 0 0 -1 0 1606)">
   <path fill="currentColor"
d="M1924 786q-14 -11 -55 -45h-173q-55 48 -55 58q0 36 18 73q16 34 33 67q-9 2 -21 2q-15 0 -30 -3v227q0 23 -26 55q-24 29 -47 41q-46 24 -118 24q-78 0 -129 -31q-62 -37 -62 -110v-438h202q9 0 19.5 -18.5t10.5 -27.5v-945q0 -55 -56 -55h-1293q-18 0 -39 14t-21 32
v957q0 12 12.5 27.5t24.5 15.5h860v478q0 23 20 87.5t33 85.5q123 198 418 198q343 0 439 -239q35 -87 35 -147v-383zM1844 809v370q0 54 -34 114q-104 183 -359 183q-297 0 -374 -218q-21 -59 -21 -102v-450h37v450q0 -10 9 44q16 98 93 169t176 79l3 -2q-29 -12 -44 -17
q-90 -32 -148.5 -121t-58.5 -187v-415h59v460q0 60 58 119q55 56 116 65q77 11 94 11q230 0 265 -183q5 -26 5 -29v-341l17 -13h15v358q0 68 -53 132t-119 84h6q76 2 140 -76q61 -75 61 -153v-345h39q7 0 18 14zM1411 -260v889h-47v-889h47zM1324 -260v889h-1162v-889h1162z
M909 -104h-241l54 331q0 3 -15 16q-18 16 -19 18q-20 26 -20 71q0 51 34 88.5t85 37.5t86.5 -35.5t35.5 -86.5q0 -66 -55 -102q-5 -4 -5 -6z" />
  </g>

</svg>
