<?xml version="1.0" standalone="no"?>
<!DOCTYPE svg PUBLIC "-//W3C//DTD SVG 1.1//EN" "http://www.w3.org/Graphics/SVG/1.1/DTD/svg11.dtd" >
<svg viewBox="0 -442 2048 2048">
  <g transform="matrix(1 0 0 -1 0 1606)">
   <path fill="currentColor"
d="M1690 83q0 -30 -49.5 -65t-81.5 -35q-10 0 -44.5 34t-34.5 44q0 7 48 39q-21 22 -73 33q-61 13 -79 23q-30 17 -70 61q-32 36 -63 72q-25 27 -452 463q-83 83 -245 256q-6 7 -6 8q0 18 51 71q43 45 69 63q21 15 84 48q-1 80 46.5 131.5t126.5 51.5q74 0 123.5 -54.5
t43.5 -128.5q68 -29 133 -92q69 -66 94 -132q18 -48 37 -163q22 -137 89 -313q73 -191 149 -287q30 -31 61 -62q43 -45 43 -66zM1671 -191l-112 -113l-1477 1492l112 107zM1070 148q-46 -108 -155 -108q-117 0 -151 109l12 13q20 1 70 4q45 3 71 3q52 0 137 -7zM1256 -58
q-7 -8 -6 -21l-230 -10l-115 -5q-204 0 -427 31q-339 48 -339 141q0 24 12 38q16 14 46 42q50 47 89 115q110 188 174 443q9 11 25 11l2 -1q15 -12 184 -186q140 -136 296 -300q1 -2 7 -42q-238 -4 -351 -15q-218 -21 -336 -79q54 -52 291 -79q166 -18 334 -18q41 0 122 4.5
t122 4.5q34 0 58 -25q21 -24 42 -49zM1662 81q0 11 -42 55q-26 28 -53 56q-27 33 -57 85q-113 196 -172 453q-13 72 -46 215q-15 55 -69 118t-107 87q-22 7 -56 34q-5 8 -5 51q0 50 -46 85q-42 32 -94 32q-34 0 -63 -11q-19 -7 -43.5 -34.5t-28.5 -46.5q0 -28 -12 -76
q-6 -9 -64 -39q-88 -45 -135 -134l739 -747q28 -29 87 -84l92 -26q79 -23 79 -52q0 -7 -48 -50q39 -41 48 -41q20 0 58 26t38 44zM1031 134h-233q37 -70 117 -70q81 0 116 70zM1213 -49q-34 41 -50 41q-15 0 -45.5 -4.5t-45.5 -4.5h-343q-94 0 -264 31q-211 39 -211 88
q0 47 209 87q171 33 261 33h217l-461 462q-86 -314 -204 -478q-5 -7 -59 -68q-49 -57 -49 -60q0 -29 73 -59q205 -84 662 -84q9 0 310 16zM1022 1219q0 -24 -26 -24q-14 0 -43 4.5t-43 4.5q-13 0 -38 -4.5t-38 -4.5q-27 0 -27 26q0 38 35 68t73 30q39 0 73 -31t34 -69z
M993 1224q-15 66 -78 66q-27 0 -51 -19.5t-27 -46.5q44 4 76 4t80 -4z" />
  </g>

</svg>
