<?xml version="1.0" standalone="no"?>
<!DOCTYPE svg PUBLIC "-//W3C//DTD SVG 1.1//EN" "http://www.w3.org/Graphics/SVG/1.1/DTD/svg11.dtd" >
<svg viewBox="0 -442 2048 2048">
  <g transform="matrix(1 0 0 -1 0 1606)">
   <path fill="currentColor"
d="M1982 1157q0 -126 -75.5 -233t-193.5 -150v-324h167v-215h-167v-13h167v-371h-385v926q-119 39 -195.5 146t-76.5 233q0 157 112.5 274t268.5 117q155 0 266.5 -117t111.5 -273zM1384 -296q0 -57 -46 -57h-1208q-14 0 -31 14t-17 28v922q0 16 14.5 29t30.5 13h171v399
q0 57 36 137q95 213 399 213q343 0 417 -260q21 -74 21 -114v-375h174q14 0 26.5 -18.5t12.5 -32.5v-898zM1929 1163q0 136 -94 237t-229 101t-231 -100t-96 -236q0 -126 73 -219t195 -120v-913h285v262h-171v121h169v110h-169v417q121 30 194.5 123t73.5 217zM1097 653v387
q0 41 -27 102q-84 189 -337 189q-117 0 -208 -49q-104 -55 -136 -158q-20 -63 -20 -103v-368h34v363q0 88 62 169.5t146 103.5q42 11 51 11q4 0 5 1l1 -2q-14 -6 -42 -16q-71 -21 -123.5 -90.5t-63.5 -146.5q-5 -34 -5 -25v-368h52v369q0 65 50 120.5t115 67.5q52 10 83 10
q157 0 219 -107q30 -52 30 -83v-377h30v347q0 53 -33.5 114.5t-77.5 88.5q-17 10 -46 22l11 1q14 0 49 -18q60 -31 94.5 -94t34.5 -133v-328h52zM908 653v381q0 7 -8 25q-37 84 -167 84q-132 0 -163 -78q-10 -25 -10 -35v-377h348zM1309 -278v856h-42v-856h42zM1226 -278
v856h-1069v-856h1069zM1698 1293q0 -42 -26.5 -69.5t-67.5 -27.5q-94 0 -94 98q0 42 26 70.5t68 28.5t68 -29t26 -71zM847 -127h-225l52 319q0 3 -5 7q-47 34 -47 96q0 48 32.5 82.5t79.5 34.5t80 -34.5t33 -82.5q0 -55 -47 -93q-10 -8 -9 -13zM1652 1283q0 16 -16.5 32
t-32.5 16q-41 0 -41 -46t41 -46q49 0 49 44z" />
  </g>

</svg>
