<?xml version="1.0" standalone="no"?>
<!DOCTYPE svg PUBLIC "-//W3C//DTD SVG 1.1//EN" "http://www.w3.org/Graphics/SVG/1.1/DTD/svg11.dtd" >
<svg viewBox="0 -442 2048 2048">
  <g transform="matrix(1 0 0 -1 0 1606)">
   <path fill="currentColor"
d="M1752 725h-1147v-200l-384 467l383 468v-199h1148v-536zM2034 -261h-132l-228 292h-32v-292h-89v643h88v-248q7 -4 23 -2h6q33 37 222 250h129l-278 -293zM1505 -238q-72 -33 -186 -33q-271 0 -271 330q0 336 270 336q72 0 187 -36q-11 -37 -33 -110q-103 38 -153 38
q-25 0 -62 -14q-114 -43 -114 -214q0 -222 180 -222q83 0 149 32zM1064 -261h-104q-16 50 -54 149h-232q-29 -71 -48 -149h-100l203 643h125zM516 -79q0 -145 -112 -177q-28 -8 -39 -8h-283v646h286q43 0 81 -27q54 -38 54 -134q0 -85 -54 -148q67 -53 67 -152zM886 -13
l-99 300l-90 -300h189zM414 205q0 70 -84 70q-25 0 -76 -2t-75 -2l-5 3v-158h184q56 0 56 89zM424 -68q0 95 -66 95h-184v-180q28 0 84 -1t84 -1q82 0 82 87z" />
  </g>

</svg>
