<?xml version="1.0" standalone="no"?>
<!DOCTYPE svg PUBLIC "-//W3C//DTD SVG 1.1//EN" "http://www.w3.org/Graphics/SVG/1.1/DTD/svg11.dtd" >
<svg viewBox="0 -442 2048 2048">
  <g transform="matrix(1 0 0 -1 0 1606)">
   <path fill="currentColor"
d="M1990 1198q0 -115 -57 -188q-39 -50 -173 -185q-67 -70 -206 -200q-78 -66 -208 -66q-70 0 -141 30l-175 -171q34 -92 34 -148q0 -115 -64 -193q-36 -43 -168 -178q-64 -65 -195 -192q-23 -21 -62 -40q-72 -35 -150 -35q-136 0 -239.5 102t-103.5 238q0 124 66 200
q45 52 173 182q60 61 184 181q35 32 106 55q66 21 118 21q72 0 142 -34l174 176q-34 55 -34 144q0 90 38 158q33 59 150 176q87 84 174 169q50 51 81 74q85 63 195 63q138 0 239.5 -100.5t101.5 -238.5zM1765 1196q0 47 -33 81.5t-80 34.5t-75 -26q-1 -1 -93 -97
q-122 -125 -184 -188q23 8 46 8q45 0 83.5 -36t38.5 -81q0 -21 -11 -49q138 138 208 210q34 33 86 93q14 22 14 50zM1913 1199q0 106 -78 183.5t-184 77.5q-103 0 -161 -51q-51 -45 -187 -181q-57 -56 -167 -173q-51 -59 -51 -161q0 -69 18 -82q20 20 61 59q-1 10 -1 21
q0 81 34 118q42 45 192 195q52 54 162 152q38 29 100 29q77 0 131 -55.5t54 -132.5q0 -66 -30 -107t-211 -209q-52 -53 -104 -107q-68 -62 -126 -62q-6 0 -17 1.5t-17 1.5t-68 -67q40 -16 86 -16q75 0 125 32q36 23 167 152q64 61 127 121q81 80 113 131.5t32 129.5z
M1388 890q0 11 -18.5 28t-29.5 17q-8 -6 -29 -26q-6 -6 -525 -521q-102 -101 -102 -112q0 -10 15 -27.5t25 -17.5t139 128q169 166 500 503q12 13 25 28zM987 274q0 49 -14 84q-22 -17 -45 -33q-24 -21 -24 -47q0 -6 1 -18t1 -18q0 -37 -22 -67q-28 -39 -183 -194
q-160 -160 -189 -175q-45 -23 -91 -23q-77 0 -132.5 54.5t-55.5 131.5q0 78 47 127q26 27 190 188q48 49 149 144q36 29 100 29q4 0 12 -1.5t12 -1.5q8 0 64 66q-39 17 -83 17q-91 0 -154 -54q-76 -65 -222 -212q-50 -49 -145 -151q-44 -52 -44 -151q0 -107 77.5 -185
t184.5 -78q99 0 157 51q64 56 208 200q53 52 153 160q48 58 48 157zM770 159q-20 -5 -40 -5q-47 0 -85 40.5t-38 87.5q0 17 5 39q-97 -91 -279 -282q-26 -30 -26 -67q0 -46 34 -78.5t80 -32.5q45 0 65 16q15 12 83 79.5t201 202.5z" />
  </g>

</svg>
