<?xml version="1.0" standalone="no"?>
<!DOCTYPE svg PUBLIC "-//W3C//DTD SVG 1.1//EN" "http://www.w3.org/Graphics/SVG/1.1/DTD/svg11.dtd" >
<svg viewBox="0 -442 2048 2048">
  <g transform="matrix(1 0 0 -1 0 1606)">
   <path fill="currentColor"
d="M1336 1103h-207v-580h-538v579h-207l476 395zM1638 199q0 -81 -34 -143q-42 -76 -117 -76h-184v-240h-129v662h320q73 0 112 -68q32 -57 32 -135zM1118 78q0 -139 -55 -225q-69 -108 -210 -108q-259 0 -259 336t259 336q141 0 210 -111q55 -89 55 -228zM581 287h-185
v-547h-129v547h-185v115h499v-115zM1512 192q0 97 -75 97h-135v-197h143q67 0 67 100zM989 78q0 239 -136 239q-84 0 -113 -86q-17 -50 -17 -157q0 -104 17 -150q28 -79 113 -79q136 0 136 233z" />
  </g>

</svg>
