<?xml version="1.0" standalone="no"?>
<!DOCTYPE svg PUBLIC "-//W3C//DTD SVG 1.1//EN" "http://www.w3.org/Graphics/SVG/1.1/DTD/svg11.dtd" >
<svg viewBox="0 -442 2048 2048">
  <g transform="matrix(1 0 0 -1 0 1606)">
   <path fill="currentColor"
d="M1522 -301q0 -19 -17.5 -33t-36.5 -14h-1325q-20 0 -40.5 15.5t-20.5 35.5v971q0 15 12 31t26 16h199v388q0 72 28 151q93 264 457 264q360 0 455 -264q29 -81 29 -150v-389h203q15 0 31 -40v-982zM1206 722v408q0 50 -32.5 117t-71.5 100q-113 96 -298 96
q-302 0 -380 -212q-23 -62 -23 -102v-407h35v359q0 106 58 194q60 92 159 123q51 16 72 16q2 0 4 -2q-17 -9 -38 -14q-75 -19 -146 -106t-71 -163q0 -6 -2.5 -18t-2.5 -18v-371h61v408q0 49 45.5 103t93.5 69q78 24 135 24q188 0 251 -129q22 -45 22 -68v-407h35v382
q0 75 -52.5 141.5t-125.5 88.5q90 -4 154 -83q60 -75 60 -168v-361h58zM998 722v395q0 40 -35.5 77.5t-75.5 42.5q-67 8 -83 8q-23 0 -48 -1q-52 -2 -98 -38q-49 -40 -49 -90v-394h389zM1440 -266v909h-46v-909h46zM1352 -266v909h-1188v-909h1188zM930 341q0 -73 -65 -106
l62 -342h-246l58 342q-59 28 -59 106q0 52 36 89.5t88 37.5q51 0 88.5 -38t37.5 -89z" />
  </g>

</svg>
