<?xml version="1.0" standalone="no"?>
<!DOCTYPE svg PUBLIC "-//W3C//DTD SVG 1.1//EN" "http://www.w3.org/Graphics/SVG/1.1/DTD/svg11.dtd" >
<svg viewBox="0 -442 2048 2048">
  <g transform="matrix(1 0 0 -1 0 1606)">
   <path fill="currentColor"
d="M2016 593q0 -397 -286 -681.5t-683 -284.5q-392 0 -678.5 286t-286.5 678q0 393 284.5 681.5t677.5 288.5q397 0 684.5 -285.5t287.5 -682.5zM1909 593q0 349 -257 605.5t-606 256.5t-603.5 -256.5t-254.5 -605.5q0 -345 257 -602t602 -257q350 0 606 254.5t256 604.5z
M1765 591q0 -248 -159 -443l-132 126q-23 -27 -46 -53.5t-62 -48.5l129 -132q-181 -159 -443 -159q-290 0 -504.5 211.5t-214.5 500.5q0 240 161 444l107 -104l127 87l-125 125q182 159 444 159q293 0 505.5 -210t212.5 -503zM1473 439q0 114 -110 220q78 97 78 193
q0 90 -53 150q-56 63 -145 63q-90 0 -143.5 -60.5t-53.5 -151.5q0 -94 78 -197q-103 -93 -103 -216q0 -186 167 -237q26 -8 57 -8q95 0 163 75q65 73 65 169zM1064 653q-13 24 -42 72q-4 5 -70 70v-205q0 -15 45 -49q7 23 30 57q35 52 37 55zM1001 212v142h-94v695h-77
l-177 -120l55 -124l79 56v-509h-108v-140h322zM1338 842q0 -65 -93 -132q-93 76 -93 135q0 85 93 85t93 -88zM1350 447q0 -45 -32 -81t-76 -36q-48 0 -80 34.5t-32 82.5q0 54 33 90q19 21 79 60q67 -55 74 -63q34 -38 34 -87zM1306 431q0 12 -36 48q-23 23 -47 46
q-49 -49 -49 -91q0 -72 66 -72q26 0 46 21.5t20 47.5z" />
  </g>

</svg>
