<?xml version="1.0" standalone="no"?>
<!DOCTYPE svg PUBLIC "-//W3C//DTD SVG 1.1//EN" "http://www.w3.org/Graphics/SVG/1.1/DTD/svg11.dtd" >
<svg viewBox="0 -442 2048 2048">
  <g transform="matrix(1 0 0 -1 0 1606)">
   <path fill="currentColor"
d="M1040 -359l-24 -16l-242 187l-253 -187l-24 16l15 1564h222q-46 124 -130 205q-98 95 -217 95q-79 0 -134.5 -58t-55.5 -137q0 -72 95.5 -192.5t95.5 -192.5q0 -106 -68 -294q-18 -51 -84 -170q-75 -137 -98 -137q-26 0 -26 27q0 12 56 111q69 120 70 122q48 95 70 181
q25 96 25 151q0 -2 -8 33q-10 42 -103 159q-83 104 -83 200q0 105 71.5 181.5t175.5 76.5q285 0 409 -361h230l15 -16v-1548zM979 -272v1419h-170l9 -63q41 -19 41 -63q0 -29 -20.5 -49.5t-49.5 -20.5t-49 20.5t-20 49.5q0 43 38 62q-4 21 -11 64h-189v-1419l205 164z" />
  </g>

</svg>
