<?xml version="1.0" standalone="no"?>
<!DOCTYPE svg PUBLIC "-//W3C//DTD SVG 1.1//EN" "http://www.w3.org/Graphics/SVG/1.1/DTD/svg11.dtd" >
<svg viewBox="0 -442 2048 2048">
  <g transform="matrix(1 0 0 -1 0 1606)">
   <path fill="currentColor"
d="M1818 992l-371 -451v188h-1127v530h1126v191zM1906 -231h-72l-245 419v-419h-81v623h71l244 -428v426h83v-621zM1453 83q0 -322 -224 -322q-231 0 -231 322t231 322q224 0 224 -322zM963 80q0 -319 -231 -319q-224 0 -224 322t224 322q124 0 184 -106q47 -84 47 -219z
M468 -59q0 -92 -73 -139q-61 -41 -158 -41q-72 0 -155 23q8 64 8 113q67 -34 165 -34q44 0 78 18q41 22 41 63q0 46 -74 85q-129 68 -137 74q-74 55 -74 140q0 162 189 162q51 0 148 -28v-107q-114 34 -162 34q-94 0 -94 -58q0 -37 77 -74q115 -54 144 -77q77 -60 77 -154z
M1370 83q0 221 -141 221q-76 0 -114 -77q-29 -59 -29 -144q0 -220 143 -220q141 0 141 220zM875 83q0 221 -139 221q-138 0 -138 -224q0 -217 138 -217q139 0 139 220z" />
  </g>

</svg>
