<?xml version="1.0" standalone="no"?>
<!DOCTYPE svg PUBLIC "-//W3C//DTD SVG 1.1//EN" "http://www.w3.org/Graphics/SVG/1.1/DTD/svg11.dtd" >
<svg viewBox="0 -442 2048 2048">
  <g transform="matrix(1 0 0 -1 0 1606)">
   <path fill="currentColor"
d="M1884 -201q0 -32 -30 -61.5t-62 -29.5h-1618q-32 0 -62 30t-30 62v1615q0 35 31.5 65t66.5 30h1606q35 0 66.5 -29.5t31.5 -64.5v-1617zM1823 1450q-22 31 -59 31h-1558q-27 0 -60 -28l171 -23q35 12 32 12h1271q6 0 33 -15zM1847 -183v1600l-174 -20q0 -3 3 -9.5
t3 -10.5v-1355zM1654 26v1335q0 15 -22.5 37t-37.5 22h-1219q-15 0 -37.5 -20.5t-22.5 -35.5v-1338q0 -15 23.5 -35.5t39.5 -20.5h1213q14 0 38.5 21t24.5 35zM1833 -220l-165 193q-4 -6 -37 -36l168 -191q13 10 34 34zM291 22v1378l-170 20v-1603zM335 -60q-14 10 -40 33
l-162 -196q7 -20 44 -37zM1520 692q0 -363 -104 -520q-70 -106 -208 -106q-101 0 -167 52q-151 118 -151 571q0 632 318 632q141 0 208 -100q104 -155 104 -529zM855 89h-357v203h107v735l-97 -73l-68 177l221 167h101v-1006q1 1 6 1h44q28 -1 43 -1v-203zM1363 681
q0 153 -23 266q-39 189 -132 189q-152 0 -152 -476q0 -425 151 -425q156 0 156 446z" />
  </g>

</svg>
