<?xml version="1.0" standalone="no"?>
<!DOCTYPE svg PUBLIC "-//W3C//DTD SVG 1.1//EN" "http://www.w3.org/Graphics/SVG/1.1/DTD/svg11.dtd" >
<svg viewBox="0 -442 2048 2048">
  <g transform="matrix(1 0 0 -1 0 1606)">
   <path fill="currentColor"
d="M1833 605q0 -360 -259 -617t-619 -257q-362 0 -617.5 256t-255.5 618q0 360 256.5 618.5t616.5 258.5q362 0 620 -257.5t258 -619.5zM1561 605q0 250 -178 427.5t-428 177.5q-251 0 -426 -177t-175 -428q0 -250 175.5 -426t425.5 -176q252 0 429 175t177 427zM1741 605
q0 283 -183 506q-39 48 -47 48q-11 0 -73 -73q201 -206 201 -481q0 -274 -203 -477t-477 -203q-277 0 -485 201l-73 -73q236 -233 558 -233q316 0 549 234.5t233 550.5zM1285 605q0 -136 -97 -231t-233 -95q-137 0 -231.5 94.5t-94.5 231.5q0 136 95 233t231 97
q138 0 234 -96t96 -234z" />
  </g>

</svg>
