<?xml version="1.0" standalone="no"?>
<!DOCTYPE svg PUBLIC "-//W3C//DTD SVG 1.1//EN" "http://www.w3.org/Graphics/SVG/1.1/DTD/svg11.dtd" >
<svg viewBox="0 -442 2048 2048">
  <g transform="matrix(1 0 0 -1 0 1606)">
   <path fill="currentColor"
d="M1696 21q0 -45 -86 -81q-225 -93 -748 -93q-209 0 -434 31q-346 48 -346 143q0 21 12 39q47 48 131 154q122 188 205 549q13 67 47 198q19 61 95 134q71 68 136 96q14 190 179 190q76 0 128 -50t54 -126v-14q74 -29 148 -106q78 -81 94 -154q32 -146 84 -344
q75 -289 226 -461q24 -24 48 -47q27 -30 27 -58zM1666 26q-43 51 -87 103q-50 62 -76 110q-129 239 -179 488q-12 63 -38 189q-13 56 -65 122t-104 92q-32 13 -74 41q-10 15 -12 46q-2 39 -4 48q-9 36 -56 63q-42 24 -82 24q-111 0 -148 -122q-1 -3 -1 -39q0 -23 -47 -50
q-33 -18 -67 -36q-81 -51 -119 -149q-18 -46 -55 -224q-52 -251 -167 -473q-36 -70 -80 -124q-26 -27 -53 -53q-40 -41 -40 -53q0 -26 66 -59q88 -44 333 -71q195 -22 351 -22q475 0 718 83q82 28 86 66zM1004 1212q0 -25 -25 -25q-15 0 -46 5t-46 5q-14 0 -41.5 -5
t-41.5 -5q-30 0 -30 25q0 41 38 73t80 32t77 -32t35 -73zM1567 46q0 -50 -224 -91q-179 -33 -278 -33h-357q-96 0 -280 34q-226 41 -226 90q0 29 81 56q222 74 596 74q427 0 631 -84q57 -24 57 -46zM973 1218q-14 38 -29.5 51t-54.5 13q-61 0 -84 -64q56 4 93 4q39 0 75 -4z
M1525 45v10q-26 12 -80 34q-184 62 -548 62q-172 0 -343 -20q-236 -27 -318 -82q20 -12 62 -31q183 -66 586 -66q436 0 641 93zM1049 91q0 -28 -44.5 -66.5t-108.5 -38.5q-36 0 -80 12q-18 5 -49.5 39t-31.5 52q0 4 2.5 11t2.5 10h298q1 -3 6 -7.5t5 -11.5zM1008 75
q-43 11 -62 11q-54 0 -176 -11q38 -64 117 -64q82 0 121 64z" />
  </g>

</svg>
