<?xml version="1.0" standalone="no"?>
<!DOCTYPE svg PUBLIC "-//W3C//DTD SVG 1.1//EN" "http://www.w3.org/Graphics/SVG/1.1/DTD/svg11.dtd" >
<svg viewBox="0 -442 2048 2048">
  <g transform="matrix(1 0 0 -1 0 1606)">
   <path fill="currentColor"
d="M1538 819q0 -178 -81 -337q-82 -162 -226 -264q2 -6 2 -13q0 -13 -28 -57l-6 -24l8 -5q18 8 21.5 25.5t5.5 34.5h14q42 -34 51 -45q22 -26 27 -63q14 -101 14 -104q0 -6 -19.5 -49t-25.5 -52l-28 -32q-9 -12 -9 -46q0 -8 3 -22.5t3 -22.5q0 -36 -40.5 -73.5t-76.5 -37.5
q-65 0 -95 21q0 30 -28 68q-199 -22 -266 -22q-37 0 -113 13q-34 6 -31 6q-24 0 -40 -37q-13 -28 -25 -56q-23 -9 -78 -9q-28 0 -72 33.5t-44 60.5q0 4 11 27.5t11 27.5q0 5 -44 93t-44 106q0 163 85 214q-1 18 -19 39q-42 40 -121 126q-152 191 -152 473q0 303 213 518
t515 215q301 0 514.5 -214.5t213.5 -515.5zM1484 834q0 281 -200 481t-482 200q-280 0 -479.5 -200.5t-199.5 -480.5q0 -283 198 -481.5t481 -198.5q282 0 482 199t200 481zM1182 169q-96 -56 -160 -74q41 6 90 25q68 24 70 49zM1218 -257q0 22 -44 22q-41 0 -41 -38v-11
q0 -17 31 -17q54 0 54 44zM653 70q-4 8 -10 10q-15 4 -45 11q-73 20 -112 38q-23 13 -71 37q9 -17 26 -39q29 -21 82 -38q18 -1 53 -5q5 -1 21.5 -7.5t20.5 -6.5h35zM718 -144v21q-7 5 -15 12v9q4 3 13 10q-16 16 -68 23q-59 8 -77 18q1 5 3 14l85 -3l-3 10q-122 31 -152 42
q-109 39 -111 89v5l2 1h8q88 -90 259 -100q-4 6 -10 14q-1 1 -41.5 11t-118.5 35q-6 3 -27 23t-31 20q-3 0 -7 -1.5t-7 -1.5q-5 0 -11 8q5 5 5 11q0 5 -29 37q-7 -29 -30 -50t-24.5 -26.5t-4.5 -74.5q-11 -11 -11 -23q0 -35 20 -50l26 -19v-27q0 -2 24 -28q39 13 30 13
q45 0 130.5 -25t130.5 -25q19 0 30 1q9 7 10 14q-19 0 -41 14q6 6 20 6q16 0 23 -7zM471 -269v20q0 -11 -7 20q-24 9 -71 31v-54q0 -11 19 -30t30 -19h16q-4 16 -4 23q0 5 1 9h16zM428 -329l-9 4l-1 -4l8 -4zM1098 1147q-8 -18 -17 -18q-38 0 -79 23q-2 1 -10 17
q17 17 31 17q12 0 38 -16q34 -22 37 -23zM1393 673q-10 -4 -10 -30q0 -11 -5 -19t-6 -14q-1 -17 -8 -51q-7 -16 -16 -50q-20 -15 -23 -32q-3 -24 -8 -31q-32 -30 -86 -88q-10 -18 -34 -49q-1 -1 -34 -15q-37 -16 -80 -29q-19 -4 -51 -15q-5 -3 -13 -21q-6 1 -11 1
q-13 0 -41 -11q-31 -12 -42 -14q-57 -10 -138 -10q-48 0 -136 22q-46 11 -141 65q-107 59 -122 92q-4 9 -4 34q0 19 12 19q-13 0 96 -34q51 -16 154 -41q6 -1 67 -1t67 1q94 16 192 87.5t137 155.5q8 13 20 41q17 59 17 139q0 29 -7.5 85t-7.5 83q0 10 -5.5 19t-5.5 13
q0 10 17 35q7 0 16 -9q15 15 21 15q5 0 18.5 -7.5t18.5 -7.5q15 0 20.5 15.5t15.5 15.5q16 0 60 -51q18 -20 21 -82q4 -4 11 -12q2 -22 8 -66q2 -9 14 -36t12 -33t-3.5 -17t-3.5 -18q0 -42 27 -44zM1051 704q0 -6 -2.5 -17.5t-2.5 -16.5q0 -18 -5 -54q-6 -23 -36 -79
q-36 -66 -107.5 -107t-148.5 -41q-114 0 -202 43q-30 10 -88 36q-45 28 -71 60q-4 5 -13 43q37 -27 114 -75q17 -8 72.5 -24t71.5 -17h9q12 -1 14 11q-3 10 -75 42q-83 36 -127 84q-67 74 -67 191q0 -3 10 76l7 -1q28 -60 99 -172q65 -79 149 -102q72 -20 95 -20
q98 0 124 11q7 6 21 17q46 28 93 91q12 25 42 73l15 -4v-9q-1 -8 4 -21t5 -18z" />
  </g>

</svg>
