<?xml version="1.0" standalone="no"?>
<!DOCTYPE svg PUBLIC "-//W3C//DTD SVG 1.1//EN" "http://www.w3.org/Graphics/SVG/1.1/DTD/svg11.dtd" >
<svg viewBox="0 -442 2048 2048">
  <g transform="matrix(1 0 0 -1 0 1606)">
   <path fill="currentColor"
d="M1978 -160q0 -109 -62 -155q-10 -7 -62 -22q-4 -1 -9 -1q-62 0 -101 24q-18 11 -79 68l-393 370q-68 66 -209 194q-6 5 -13 10q-34 0 -57 -16q-6 -4 -47 -41q-21 -19 -204 -236q-660 746 -660 1242q0 126 47 279l729 -671q130 -121 241 -226q38 -34 102 -98q1 -16 14 -52
q5 -7 95 -80q105 -87 316 -260q100 -80 296 -243q56 -47 56 -86zM1926 -191q0 53 -20 75q-13 15 -148 127q-206 165 -611 503q6 7 5 13l-986 933q-29 -86 -29 -188q0 -260 213 -607q131 -214 395 -528q64 71 127 142q93 97 154 97q7 0 14 -1q40 49 96 122l484 -402
q77 -64 229 -193q30 -27 41.5 -47.5t11.5 -93.5q24 27 24 48zM1593 35q0 4 -1.5 12t-1.5 12q-4 0 -11.5 2t-11.5 2q-29 0 -29 -28q0 -21 31 -21q24 0 24 21zM1409 189q0 6 -8.5 15.5t-14.5 9.5q-24 0 -24 -27q0 -20 22 -20q25 0 25 22zM1230 364q0 4 -3.5 9t-3.5 6h-32
q-1 -2 -7 -7t-6 -9q0 -29 24 -29q28 16 28 30z" />
  </g>

</svg>
