<?xml version="1.0" standalone="no"?>
<!DOCTYPE svg PUBLIC "-//W3C//DTD SVG 1.1//EN" "http://www.w3.org/Graphics/SVG/1.1/DTD/svg11.dtd" >
<svg viewBox="0 -442 2048 2048">
  <g transform="matrix(1 0 0 -1 0 1606)">
   <path fill="currentColor"
d="M1950 -40q0 -15 -7 -41l-98 66q-75 49 -96 49q-20 0 -84 -58q-20 -18 -40.5 -64.5t-23.5 -75.5q89 -67 195 -143q-33 -29 -85 -29q-60 0 -102 13q-100 30 -146 118q-3 15 -11 43q-12 43 -24 85.5t-46 81.5l-455 518q-103 117 -314 348q-30 31 -118 60q-34 11 -66 11
q-15 0 -45.5 -6.5t-45.5 -6.5q-24 0 -83 25q-14 10 -42 29q-70 45 -97 90q-10 16 -22 75t-12 82q0 3 10 18q38 -22 142 -88q20 -14 62 -39q20 -10 42 -10q33 0 93 60.5t60 93.5v84l-215 131l10 34q40 19 78 19q134 0 193 -47q97 -76 109 -136q-1 -45 8 -134q2 -8 19 -35.5
t121 -145.5q230 -265 697 -789q20 -22 59 -41q44 -21 105 -25q79 -4 104 -10q64 -16 117.5 -80.5t53.5 -129.5z" />
  </g>

</svg>
