<?xml version="1.0" standalone="no"?>
<!DOCTYPE svg PUBLIC "-//W3C//DTD SVG 1.1//EN" "http://www.w3.org/Graphics/SVG/1.1/DTD/svg11.dtd" >
<svg viewBox="0 -442 2048 2048">
  <g transform="matrix(1 0 0 -1 0 1606)">
   <path fill="currentColor"
d="M859 1408q-17 -5 -17 -21q0 -8 6 -16q-2 0 -9.5 4.5t-14.5 4.5q-6 0 -13.5 -4.5t-9.5 -4.5q3 6 10 18q1 10 -21 21q4 -1 9 -1q20 0 26 34q0 -15 10 -26t24 -9zM598 1425q-22 -9 -22 -37q0 -8 4 -13q-26 15 -31 15q-11 0 -31 -20l15 33q-9 7 -26 23q5 -1 8 -1q33 0 36 44
q0 -52 47 -44zM1630 128l-86 -87l-376 375q27 30 81 92zM1278 595l-202 -202l-375 375l197 202zM879 1015l-217 -223l-276 270l218 218zM1646 76q-18 -17 -51 -56q0 3 -6 12t-6 17q0 10 12 22t22 12q5 0 14.5 -3.5t14.5 -3.5zM343 1310l-25 -27q3 -11 9 -29q-10 8 -32 21
q-10 -6 -29 -21q9 11 9 26q0 21 -25 30q7 -2 14 -2q39 0 29 40q7 -13 15 -27t22 -14q7 0 13 3zM173 1436q-22 -15 -22 -32q0 -12 9 -23q-11 7 -33 20q-10 -6 -29 -21q2 12 10 34q-9 7 -26 22q5 -3 10 -3q13 0 24 13.5t10 27.5q9 -41 33 -41q7 0 14 3zM226 1063
q-19 -9 -19 -30q0 -9 5 -15q-15 15 -26 15q-4 0 -19 -15q0 4 2 10.5t2 10.5q0 14 -21 24q5 -1 8 -1q25 0 32 29q0 -41 36 -28zM1320 -215h-114l-292 739l-267 -739h-114l296 823q84 -77 248 -243z" />
  </g>

</svg>
