<?xml version="1.0" standalone="no"?>
<!DOCTYPE svg PUBLIC "-//W3C//DTD SVG 1.1//EN" "http://www.w3.org/Graphics/SVG/1.1/DTD/svg11.dtd" >
<svg viewBox="0 -442 2048 2048">
  <g transform="matrix(1 0 0 -1 0 1606)">
   <path fill="currentColor"
d="M1756 646h-531v121q43 44 138 132q117 108 156 156q88 106 88 193q0 95 -103 95q-111 0 -223 -70l-16 151q113 56 238 56q238 0 238 -226q0 -216 -299 -472h314v-136zM1964 -350h-944v937h-938v945h944v-937h938v-945zM876 -49q0 -265 -281 -265q-147 0 -247 50v155
q116 -64 250 -64q141 0 141 128q0 116 -158 116q-14 0 -40.5 -1t-38.5 -1v127h131q26 0 55 20q23 16 23 72q0 113 -123 113q-80 0 -203 -63v151q87 50 212 50q255 0 255 -246q0 -86 -58 -156q82 -79 82 -186zM809 648v132h-153v688h-90l-282 -151l62 -124l170 89l3 -3v-499
h-180v-132h470zM1768 -121v142h-113v502h-90l-389 -523v-122h343v-173h138v174h111zM1517 16h-179l179 226v-226z" />
  </g>

</svg>
