<?xml version="1.0" standalone="no"?>
<!DOCTYPE svg PUBLIC "-//W3C//DTD SVG 1.1//EN" "http://www.w3.org/Graphics/SVG/1.1/DTD/svg11.dtd" >
<svg viewBox="0 -442 2048 2048">
  <g transform="matrix(1 0 0 -1 0 1606)">
   <path fill="currentColor"
d="M1805 32l-213 -219l-1041 1085l169 173zM1101 1222q-60 23 -128 23q-87 0 -132 -37q-17 -14 -132 -127l-275 -275l37 -36l-139 -143l-237 234l136 143q18 -11 46 -40q84 79 240 242q73 76 91 94q61 60 99 82q49 29 108 29q78 0 163 -61q73 -53 123 -128zM541 1247
l-169 -176q-12 11 -33 35l170 173z" />
  </g>

</svg>
