<?xml version="1.0" standalone="no"?>
<!DOCTYPE svg PUBLIC "-//W3C//DTD SVG 1.1//EN" "http://www.w3.org/Graphics/SVG/1.1/DTD/svg11.dtd" >
<svg viewBox="0 -442 2048 2048">
  <g transform="matrix(1 0 0 -1 0 1606)">
   <path fill="currentColor"
d="M1950 909q0 -67 -22 -157q-20 -76 -40 -153q-1 13 -1 69q0 106 -54 164q-85 91 -100 122q-3 19 -11 55q-13 54 -13 88q0 15 1.5 45.5t1.5 45.5q0 31 -2 46q-5 36 -105 147q48 -19 138 -68q82 -57 144.5 -180t62.5 -224zM1647 1057q-64 24 -181 92q-40 33 -67 97
q-12 29 -12 98q0 109 -92 179q40 -10 115 -40q14 -13 42 -37q85 -65 109 -178q2 -46 23 -133zM773 951q0 -40 -13 -87q-11 -20 -31 -62q-1 18 -11 52q-27 26 -74 79q-75 96 -75 190q0 3 36 167q5 -24 20 -70q8 -18 42 -55q44 -46 50 -54q56 -73 56 -160zM1919 -36
q0 -63 -21 -120q-23 -63 -113.5 -126t-157.5 -63h-1198q-79 0 -150 28q-83 32 -118 91q-24 40 -51.5 147.5t-27.5 156.5q0 126 49 210q7 9 22 28q-1 -119 31.5 -193t122.5 -149v5q0 19 -9.5 54.5t-9.5 53.5q0 16 6 48t6 47q0 24 -16 53q-48 88 -53 95q-31 50 -70 83
q105 -23 159 -61q51 -36 111 -158q18 -37 61 -81q48 -49 82 -57q32 25 32 98q0 3 -32.5 120t-34.5 119q-11 12 -29 43q-31 83 -31 263q0 41 12 103q14 80 36 84q0 -77 19 -137q7 -22 51 -98.5t61 -97.5q27 -34 154 -134h4q-55 151 -55 245q0 57 22 128q16 51 67 95
q-1 -10 -4 -42q-3 -26 -3 -42q0 -45 25 -87q8 -13 52 -51q26 187 26 199q0 90 -58 248q-11 31 -54 75.5t-54 73.5q-22 59 -22 149q0 21 14 99q4 -54 7 -70q7 -38 28 -64q14 -17 81 -72q39 -34 121 -91q13 -5 37 -17q111 -72 175 -166q36 -52 36 -149q0 -13 -2 -38t-2 -38
q0 -2 1 -5q23 22 34 42q4 8 14.5 61t10.5 65q0 9 -33 71q36 -10 65 -52t29 -81l-7 -38q-26 -142 -26 -153q0 -66 77 -158q7 -8 45 -70l63 227q0 248 -157 336q-3 2 -40 31q29 -4 101 -30q67 -24 79 -24t52 -22q101 -55 154 -130q70 -98 92 -189q28 -115 28 -173
q0 -37 -6.5 -111.5t-6.5 -112.5q0 -29 21 -63q29 -48 33 -58q43 -111 43 -203zM484 336q-32 23 -89 76q-18 21 -47 69q-31 52 -35 73q-7 37 -7 72q0 65 28 151q4 12 23 43q0 -7 -1 -22.5t-1 -23.5q0 -35 23 -71q21 -32 42 -63q32 -59 43 -121q6 -61 21 -183z" />
  </g>

</svg>
