<?xml version="1.0" standalone="no"?>
<!DOCTYPE svg PUBLIC "-//W3C//DTD SVG 1.1//EN" "http://www.w3.org/Graphics/SVG/1.1/DTD/svg11.dtd" >
<svg viewBox="0 -442 2048 2048">
  <g transform="matrix(1 0 0 -1 0 1606)">
   <path fill="currentColor"
d="M1954 -350h-701v540h-587v508h-584v825h701v-507h581v-541h590v-825zM1830 -226l-31 100q-51 -48 -148 -48q-74 0 -115 56q-38 50 -38 126q0 109 10 150q20 82 90 111q24 10 48 10q92 0 153 -55q6 17 31 109q-75 52 -185 52q-274 0 -274 -336q0 -333 277 -333
q154 0 182 58zM1258 458q0 61 -18 90.5t-71 59.5q-2 2 -2 3v1q82 43 82 148q0 102 -61 139q-46 27 -151 27h-222v-650h298q-1 0 22 5q123 27 123 177zM701 821l-198 647h-151l-192 -647h127q15 50 49 149h181q8 -22 48 -149h136zM1124 740q0 -84 -44 -84h-141v158h141
q44 0 44 -74zM501 1070h-143l68 237zM1137 469q0 -51 -12 -67q-14 -20 -63 -20q23 0 -118 5l-4 -4v182h149q48 0 48 -96z" />
  </g>

</svg>
