<?xml version="1.0" standalone="no"?>
<!DOCTYPE svg PUBLIC "-//W3C//DTD SVG 1.1//EN" "http://www.w3.org/Graphics/SVG/1.1/DTD/svg11.dtd" >
<svg viewBox="0 -442 2048 2048">
  <g transform="matrix(1 0 0 -1 0 1606)">
   <path fill="currentColor"
d="M2028 1343q0 -85 -97 -189q-173 -186 -732 -801q-19 -20 -47 -65q-10 -27 -15 -93q-4 -62 -19 -94q-6 -13 -65 -96q-64 -92 -134 -188q-76 -104 -123 -141l-46 -24q-77 -40 -149 -40q-77 0 -130 16l-63 30q-101 45 -189 142q-91 101 -119 204l-18 67q0 100 32 167
q30 62 145 159q20 21 63 58q137 99 234 146q24 12 86 27q56 14 84 31q10 6 69 61l126 117q49 44 146 132q133 123 401 369q66 62 201 180q41 34 153 34q60 0 118 -45.5t73 -105t15 -58.5zM1993 1343q0 -1 -17 35l-863 -919q12 -41 35 -125l783 879q38 43 47 58q15 28 15 72z
M1836 1512q-15 5 -52 5q-60 0 -87 -18q-35 -24 -146 -125q-101 -97 -305 -288q-53 -49 -464 -433q41 -2 122 -7q30 34 30 59q0 7 -2 12q48 67 111 89q32 4 70 12q5 3 66 59q132 119 331 315q276 272 326 320zM1227 722q0 20 -52 66h-11q-2 -5 -2 -10v-2q10 -6 54 -79
q11 21 11 25zM1183 673q0 14 -17 48q-6 12 -46.5 31.5t-55.5 19.5q-30 0 -59.5 -21.5t-29.5 -50.5q0 -15 7 -31q78 -51 114 -51q87 0 87 55zM1113 310q0 82 -42 162q-17 32 -46 51t-57 38q-78 60 -143 60q-141 0 -181 -17q-286 -125 -420 -291l156 24q56 -18 160 -67
q18 -14 54 -39q12 -5 34 -15q78 -42 172 -228q19 -37 30 -138q0 -4 3 -14t3 -15q0 8 -7 -39q41 25 41 121q0 56 -73 177q0 6 1 17h-8q-4 0 -9 1q-4 8 -13 21q-6 3 -14 9q-2 7 -8 21q-15 11 -42 36q-6 7 -9 16q-48 36 -147 97q-15 3 -44 14q-14 11 -42 27q-27 1 -72 14
q-6 6 -19 17q-9 3 -20 6t-11 12q52 18 59 18q60 0 113 -13q13 -3 72 -39q28 -10 69 -30q77 -64 116 -101q74 -71 94 -115q61 -135 61 -166q0 -5 -2 -16t-2 -17q0 -9 4 -17q19 16 19 57q0 86 -27 144q-11 12 -29 38q-1 9 -5 25q-17 41 -90.5 116t-114.5 98q-27 10 -82 31
q-81 31 -87 31q-81 0 -106 -2q-4 0 -14.5 -2.5t-16.5 -2.5q-8 0 -8 5v3q10 10 30 26q48 29 113 29q56 0 214 -64q51 -21 107.5 -75.5t81.5 -105.5q32 -46 71 -119q9 -37 15 -140q28 46 76 143q42 109 42 183zM679 55q0 29 -44.5 74.5t-72.5 49.5q-9 -11 -25 -35
q-20 -38 -20 -66q0 -15 19 -39t33 -24q24 0 63 11q47 13 47 29zM782 -161q0 149 -75 198q-5 -20 -67 -37q-50 -13 -82 -13q-72 0 -72 106q0 51 56 107q-35 23 -97 46q-68 25 -103 25q-25 0 -86 -28q-44 -20 -62 -74q-17 -50 -17 -39q0 -33 7 -63q6 -11 17 -35q4 -20 18 -57
q44 -74 78 -107q169 -165 302 -165q80 0 116 26q67 49 67 110zM750 -275h-11q-30 -9 -80 -49l18 -4q55 18 73 53zM560 -337q-62 16 -142 61q-84 48 -124 92q-5 11 -18 32q-15 17 -45 52q-12 15 -34 45q-7 7 -20 22q-18 51 -49 140q-8 -24 -8 -33q0 -41 13 -70
q63 -142 121 -189q155 -125 214 -143q31 -3 92 -9zM1148 656q-5 -4 -14 -12q-10 0 -31 -2.5t-31 -2.5q-17 0 -24 32q61 -12 51 -12q30 0 30 24q0 7 -2.5 21t-2.5 21q16 -7 24 -69z" />
  </g>

</svg>
