<?xml version="1.0" standalone="no"?>
<!DOCTYPE svg PUBLIC "-//W3C//DTD SVG 1.1//EN" "http://www.w3.org/Graphics/SVG/1.1/DTD/svg11.dtd" >
<svg viewBox="0 -442 2048 2048">
  <g transform="matrix(1 0 0 -1 0 1606)">
   <path fill="currentColor"
d="M1867 1149q0 -84 -47 -149q-49 -68 -130 -85h-10v45q58 27 80 46q34 31 34 81q0 70 -92 114q-121 58 -147 91l-2 -508q0 -13 -19 -42q-59 -92 -204 -92q-75 0 -142 38q-78 44 -78 113q0 54 55 99q47 39 106 50q22 4 59 4q77 0 145 -36l3 597q34 -35 110 -93
q47 -23 141 -70q76 -40 105 -78q33 -44 33 -125zM1938 -339h-931v924h-925v933h931v-924h925v-933zM935 -208q-99 -89 -313 -89q-456 0 -456 413q0 185 112 303.5t295 118.5q359 0 359 -341q0 -26 -2 -46q-6 -64 -52 -124q-52 -68 -111 -68q-63 0 -84 39q-39 -57 -118 -57
q-80 0 -124 55q-40 50 -40 131q0 182 164 182q67 0 97 -42l8 30h62v-246q0 -19 34 -19q81 0 81 164q0 267 -276 267q-145 0 -236 -103q-88 -99 -88 -246q0 -333 371 -333q156 0 270 73zM874 1320v135h-654v-135h654zM1420 359q0 179 -172 179q-160 0 -160 -179
q0 -180 160 -180q172 0 172 180zM1752 532h-114l-429 -817h111zM1864 -125q0 184 -166 184t-166 -183q0 -182 166 -182t166 181zM874 1069v135h-654v-136h260v-424h136v425h258zM657 69v115q-41 59 -92 59q-89 0 -89 -113q0 -120 95 -120q30 0 46 10q40 25 40 49zM1330 356
q0 -92 -80 -92q-74 0 -74 92q0 95 75 95q79 0 79 -95zM1773 -127q0 -95 -77 -95q-74 0 -74 97q0 96 74 96q77 0 77 -98z" />
  </g>

</svg>
