<?xml version="1.0" standalone="no"?>
<!DOCTYPE svg PUBLIC "-//W3C//DTD SVG 1.1//EN" "http://www.w3.org/Graphics/SVG/1.1/DTD/svg11.dtd" >
<svg viewBox="0 -442 2048 2048">
  <g transform="matrix(1 0 0 -1 0 1606)">
   <path fill="currentColor"
d="M1086 -97h-998v108q18 23 34 23h193q0 7 -3 23t-3 25q0 22 14 46q16 28 37 28h290q49 0 110 38q39 25 64 104q20 66 20 125q0 97 -62 173.5t-157 93.5q-40 -63 -79 -137q-18 10 -38 10q-25 0 -43 -29q-13 -25 -25 -50l-72 39q42 68 42 80q0 16 -37 41q78 141 237 421
q39 73 123 199q3 4 58 21q39 12 39 61q0 10 -1 21q8 -4 44 -31q26 -20 50 -19q7 -5 16 -5q-48 -20 -48 -64q0 -11 4 -33.5t4 -33.5q0 -41 -179 -332q-22 -35 -46 -78l4 -6q282 -79 282 -376q0 -144 -56 -221.5t-193 -130.5h375v-134zM553 292q-5 -19 -29 -67l-442 245
q12 17 34 61z" />
  </g>

</svg>
