<?xml version="1.0" standalone="no"?>
<!DOCTYPE svg PUBLIC "-//W3C//DTD SVG 1.1//EN" "http://www.w3.org/Graphics/SVG/1.1/DTD/svg11.dtd" >
<svg viewBox="0 -442 2062 2048">
  <g transform="matrix(1 0 0 -1 0 1606)">
   <path fill="currentColor"
d="M2062 991q0 -32 -30 -95q-2 -4 -16 -21.5t-14 -20.5q0 -6 3.5 -17t3.5 -18t-59 -129q-28 -72 -57 -144q-34 -87 -77 -133q-52 -55 -202 -108q-30 -11 -34 -11q-11 0 -120 33t-126 41q-26 -26 -48 -26q-3 0 -6.5 1.5t-6.5 1.5q4 0 -28 -37q-8 -9 -26 -13q-22 -4 -29 -8
q-15 -21 -55 -53q-11 -1 -32 -5q-5 -2 -45 -40q-4 -1 -13 -1q-10 0 -20 10q-44 -45 -94 -175q-53 -139 -95 -191q-9 -11 -94 -48q-76 -33 -106 -42.5t-64 -9.5q-4 0 -47 20q-218 105 -278 189q-79 110 -151 385q-14 53 -14 58q0 27 43 144.5t61 134.5q35 33 114 62
q118 45 124 48l234 -113q6 2 23 26q5 8 32 23.5t36 15.5q7 0 17 -13q13 -1 14 35q15 2 42 10q4 5 13 11q15 2 42 12q8 9 25 24q15 10 62 11q12 10 30 34q11 23 40 103q28 86 87 256l301 169l312 -122l106 26q46 0 106 -55q51 -47 76 -97q8 -15 24 -69.5t16 -68.5zM2020 1004
q0 10 -12.5 43.5t-18.5 40.5q7 -31 7 -74q0 -31 -4 -71q2 5 15 33q13 25 13 28zM1959 1008q0 140 -122 198q73 -82 114 -234q8 26 8 36zM1962 819l-207 362l-204 -110l187 -401zM1686 1202l-286 98l-206 -118l314 -81zM1683 665q-38 102 -77 203q-47 124 -110 183
q-46 43 -161 63q-90 14 -179 28l-102 -285q29 53 49 63q12 0 36 2q16 20 54 56q41 30 86 30q113 0 200 -128q9 -13 40.5 -82.5t31.5 -78.5v-357l25 -10zM1505 673v38q0 39 -55 132q-31 53 -93 96q-29 20 -89 20q-10 0 -26 -8q78 -36 78 -89q-14 -6 -15 -6q-4 0 -49 25
q-51 29 -56 31q65 -26 65 -81q0 -12 -21 -13q-69 61 -74 61q8 0 -18 -7l40 -38q25 -26 25 -45q0 -5 -3 -7h-15q-22 19 -44 37q-30 25 -48 25q-6 0 -6 -5v-2q26 -15 35 -42q6 -26 13 -52q-9 -5 -14 -5q-3 0 -26.5 27.5t-37.5 31.5q-18 0 -53 4q57 -38 57 -86q0 -6 -10 -6
q-12 0 -40.5 25.5t-34.5 25.5q-14 0 -21 -11q24 -19 39 -77q-10 -5 -18 -5q-4 0 -37 30q-37 35 -40 37l-8 -8q35 -36 35 -84q0 -2 -2 -4h-15q-75 67 -81 67q-16 0 -30 -27l70 -58q-6 -24 -14 -40q-24 24 -87 74q-16 -16 -34 -16q-3 0 -21 19q-7 -6 -20 -18q34 -12 73 -32
q51 -83 123 -262q16 -46 52 -127q2 -4 11 -4q20 70 20 67q0 20 -9.5 59.5t-9.5 59.5q0 10 2 16q30 -17 42 -61l12 -76l7 -4q17 38 17 46q0 19 -5.5 59t-4.5 61v11q49 -61 49 -118q0 -11 -9 -56q11 8 24 24q7 30 7 85q0 12 -11 50q-13 43 -15 53q43 -31 52 -77q5 -45 11 -90
q18 30 18 47q0 25 -13 76.5t-13 76.5q0 3 2 6q40 -25 53 -80q8 -48 15 -97q30 25 30 74q0 17 -13 65q-14 54 -16 72l2 1q14 -6 36 -25q7 -11 25 -86q0 -13 3 -40q24 -1 24 48q0 21 -7 64q-9 48 -10 65q30 -27 41 -69q8 -40 16 -79q6 6 13 14q8 18 8 57q0 12 -9.5 36.5
t-9.5 36.5q0 18 5 33q52 -26 51 -148q27 63 27 69q0 8 -4 23.5t-5 21.5q-3 26 -3 46q0 9 1 17l3 3q51 -42 48 -106q28 36 28 40q0 5 -3.5 14.5t-3.5 13.5v89zM680 575l-268 137l-127 -66l242 -153zM927 150q0 33 -23 81q-20 39 -40 77q-58 119 -121 237l-172 -101l168 -388
q63 31 188 94zM712 -7l-87 236q-53 145 -114 219q-44 53 -136 94q-77 34 -154 67l-81 -236q25 -93 50 -185q30 -112 76 -173q48 -64 153 -129q169 -103 173 -106z" />
  </g>

</svg>
