<?xml version="1.0" standalone="no"?>
<!DOCTYPE svg PUBLIC "-//W3C//DTD SVG 1.1//EN" "http://www.w3.org/Graphics/SVG/1.1/DTD/svg11.dtd" >
<svg viewBox="0 -442 2050 2048">
  <g transform="matrix(1 0 0 -1 0 1606)">
   <path fill="currentColor"
d="M2050 780q0 -26 -48 -33q-69 -9 -91 -22q-48 -30 -48 -111q0 -23 2 -29q59 -145 168 -440q12 -36 12 -97q0 -101 -29 -131q-19 -20 -252 -20q-34 0 -101 -6.5t-100 -6.5q-22 0 -40 4q-13 32 -13 55q0 15 6.5 37t6.5 34v37q0 47 -44 224q-7 50 -40 140q-24 38 -67 38
q-39 0 -116.5 -10.5t-116.5 -10.5q-69 0 -200 56q-23 10 -23 30q0 11 1 32v31q0 49 -7 57q-12 43 -61 88q-53 49 -82 49h-451q-3 3 -16 21q-37 0 -75 -1q-55 3 -65 21q-8 15 -8 61v51q1 35 1 52q-6 2 -35 2q-36 0 -36 56q0 59 7.5 70t41.5 15q28 2 28 22h137q3 -13 12 -38
h884q19 19 25 19l409 -3q18 38 55 38q8 0 29 -11q4 -12 16 -33q29 0 54 -16l25 -16q10 0 30.5 4.5t30.5 4.5q46 0 46 -33q0 -5 -16 -32t-16 -32q0 -36 49 -127q17 -31 50 -53q1 -1 42 -9q29 -6 29 -28zM1686 1121q-1 8 -4 8t-9 -1.5t-9 -1.5v-19h11q11 10 11 14zM1752 1033
q0 42 -29 42h-28q-19 -1 -28 -1v-18q3 1 8 1q28 0 34.5 -27.5t17.5 -27.5l25 10v21zM1567 1050v30h-341l-3 -30h344zM1641 737v31q-9 13 -30 13q-28 0 -28 -28q0 -32 24 -32q10 0 34 16zM2006 83q0 9 -2 17q-19 72 -60 184q-54 147 -66 183q-45 138 -45 174q0 87 88 143
q11 4 33 14v15q-18 3 -32 26q-12 19 -23 38h-12l19 -78q-93 -111 -93 -157q0 -28 73 -243q32 -91 64 -181q41 -124 41 -180q0 -10 -2 -25q-1 -1 -1 -2q-3 -3 -9 -3q-49 0 -146 2t-146 2q-11 0 -26 12q-29 109 -86 327q-24 95 -24 112q0 6 8.5 19t8.5 21q0 61 -31 92
q-8 4 -23 16q-4 5 -18.5 68t-14.5 74q0 13 3 19h83q23 32 45 32q29 0 45 -37q38 -11 87 -62h12v15q-32 28 -94 87h-203v-81q0 -6 39 -129q12 -2 32 -16q22 -30 22 -54q0 -11 -5.5 -33.5t-5.5 -34.5q0 -67 44 -239q40 -155 73 -237l93 16l253 -6l-4 5q6 74 6 85zM1500 510v25
h-18q-2 -4 -7 -10v-15h25zM1804 106q0 30 -31 30q-30 0 -30 -29q0 -32 32 -32q29 0 29 31zM1196 1059v19h-861v-19h861zM1399 574q0 137 -107 137q-14 0 -47 -30q9 -41 9 -39q0 -12 -37 -59q-33 -44 -48 -57q-30 -26 -60 -26q-9 0 -21 12q10 13 40 29q27 15 39 34
q24 40 24 80q0 37 -4 57l3 5h-144q-29 0 -61 -29.5t-32 -58.5v-26q0 -31 2 -38q33 -100 239 -100q29 0 83 10q63 11 76 23q46 44 46 76zM277 1111v21h-105v-21h105zM277 938q-10 29 -10 117q-19 10 -24 10h-74v-11q12 -12 12 -16q0 -57 4 -90q45 -10 92 -10zM149 1047v15
h-53v-15h53z" />
  </g>

</svg>
