<?xml version="1.0" standalone="no"?>
<!DOCTYPE svg PUBLIC "-//W3C//DTD SVG 1.1//EN" "http://www.w3.org/Graphics/SVG/1.1/DTD/svg11.dtd" >
<svg viewBox="0 -442 2048 2048">
  <g transform="matrix(1 0 0 -1 0 1606)">
   <path fill="currentColor"
d="M1826 882q0 -179 -156 -221q-41 -11 -49 -11h-447v816h350q134 0 197 -35q84 -48 84 -172q0 -78 -38 -130q-22 -28 -44 -57q0 -2 2 -3q101 -66 101 -187zM1950 -338h-937v930h-931v938h937v-930h931v-938zM885 -253q-108 -43 -276 -43q-406 0 -406 418q0 202 103 310
q105 112 305 112q155 0 274 -46q-17 -45 -49 -136q-119 46 -228 46q-130 0 -198 -80q-65 -74 -65 -206q0 -279 267 -279q132 0 224 40zM1671 1237q0 90 -90 90h-270v-200h261q43 0 71 33t28 77zM1687 894q0 120 -99 120h-277v-230h257q119 0 119 110zM1844 122
q0 419 -384 419q-158 0 -292 -22v-797l129 -9h227q59 0 140 38q180 84 180 371zM961 651l-313 815h-187l-306 -815h150l70 188h356l79 -188h151zM697 963h-288l141 382zM1708 122q0 -251 -196 -272q-11 -1 -42 -1q-19 0 -55.5 1t-54.5 1q-6 0 -18 2t-18 2q-12 0 -16 -5v551
q8 -6 24 -6q18 0 55.5 3t56.5 3q264 0 264 -279z" />
  </g>

</svg>
