<?xml version="1.0" standalone="no"?>
<!DOCTYPE svg PUBLIC "-//W3C//DTD SVG 1.1//EN" "http://www.w3.org/Graphics/SVG/1.1/DTD/svg11.dtd" >
<svg viewBox="0 -442 2048 2048">
  <g transform="matrix(1 0 0 -1 0 1606)">
   <path fill="currentColor"
d="M1824 58h-600l-268 -465l-274 465h-600l299 524l-299 521h597l274 464l271 -464h600l-299 -521zM1698 1026h-431l217 -370zM1138 1104l-185 318l-185 -318h370zM1698 135l-217 373l-211 -373h428zM1438 582l-252 444h-462l-256 -444l256 -447h462zM639 1026h-428
l211 -370zM1138 56h-370l188 -314zM639 135l-217 373l-211 -373h428zM1145 582q0 -81 -54.5 -135.5t-135.5 -54.5q-82 0 -136 54t-54 136t54 136t136 54q79 0 134.5 -55.5t55.5 -134.5z" />
  </g>

</svg>
