<?xml version="1.0" standalone="no"?>
<!DOCTYPE svg PUBLIC "-//W3C//DTD SVG 1.1//EN" "http://www.w3.org/Graphics/SVG/1.1/DTD/svg11.dtd" >
<svg viewBox="0 -442 2048 2048">
  <g transform="matrix(1 0 0 -1 0 1606)">
   <path fill="currentColor"
d="M1207 991q-29 -13 -33 -13q-36 0 -36 33q0 29 34 29q14 0 35 -13v-36zM1035 1155q-18 -9 -33 -9q-29 0 -29 31t31 31q3 0 31 -13v-40zM1425 769q-16 -13 -31 -13q-10 0 -31 9v40q7 13 29 13q17 0 33 -13v-36zM1092 1122q0 -33 -30 -33q-13 0 -31 8v44q9 9 26 9h7
q28 0 28 -28zM1257 953q0 -32 -29 -32q-33 0 -33 34q0 31 31 31t31 -33zM871 1323q-17 -17 -29 -17q-37 0 -37 37q0 33 33 33q14 0 33 -17v-36zM981 1217q-17 -17 -32 -17q-37 0 -37 34q0 31 37 31q13 0 32 -17v-31zM1314 880q-16 -17 -31 -17q-35 0 -35 37q0 33 35 33
q13 0 31 -17v-36zM1367 823q-13 -13 -28 -13q-5 0 -14.5 2t-13.5 2q-5 14 -5 34v15q27 12 33 12q14 0 28 -13v-39zM1535 659q-18 -18 -28 -18q-33 0 -33 35q0 31 31 31q16 0 30 -13v-35zM924 1288q0 -35 -29 -35q-25 0 -31 13q-3 6 -5 35q20 18 34 18q31 0 31 -31zM1482 732
q0 -37 -31 -37q-34 0 -34 37q0 28 30 28q35 0 35 -28zM1593 601q-18 -17 -29 -17q-41 0 -41 53q19 17 35 17q23 0 35 -18v-35zM1150 1064q0 -37 -31 -37q-13 0 -27 14.5t-14 27.5q0 5 3 11q19 17 34 17q35 0 35 -33zM871 1217q-18 -17 -31 -17q-35 0 -35 34q0 31 33 31
q15 0 33 -17v-31zM1092 1009q0 -31 -32 -31q-5 0 -15 2.5t-14 2.5v43q18 14 31 14q30 0 30 -31zM1207 880q-17 -17 -33 -17q-36 0 -36 37q0 33 34 33q17 0 35 -17v-36zM1535 548q-17 -13 -32 -13q-19 0 -29 9v39q18 13 31 13q16 0 30 -13v-35zM924 1177q0 -17 -13 -30h-43
q-9 22 -9 44q18 17 34 17q31 0 31 -31zM813 1288q0 -35 -28 -35q-19 0 -33 13v40q19 13 31 13q30 0 30 -31zM1150 953q0 -32 -31 -32q-39 0 -39 34q0 31 35 31t35 -33zM1256 823q-14 -13 -28 -13q-5 0 -14.5 2t-13.5 2q-5 14 -5 35v9q18 17 31 17q16 0 30 -13v-39zM1314 769
q-16 -13 -31 -13q-32 0 -35 45q19 17 35 17q17 0 31 -13v-36zM1425 659q-18 -18 -29 -18q-13 0 -33 10v47q9 9 29 9q17 0 33 -13v-35zM1482 619q0 -35 -31 -35q-35 0 -35 41q0 4 1 12q20 17 32 17q33 0 33 -35zM981 1102q-17 -13 -32 -13q-26 0 -32 12q-3 6 -5 36
q20 13 37 13q16 0 32 -13v-35zM1035 1044q-18 -17 -27 -17q-35 0 -35 39q0 31 31 31q17 0 31 -13v-40zM1367 739q0 -44 -24 -44q-19 0 -37 17v40q18 8 33 8q28 0 28 -21zM1150 827q-18 -17 -33 -17q-43 0 -37 50q-17 3 -33 6t-16 28q0 39 29 39q33 0 33 -35q0 -19 -10 -31
v-4q24 12 30 12q19 0 37 -17v-31zM764 1230q0 -30 -35 -30t-35 32q0 33 33 33q37 0 37 -35zM813 1175q0 -15 -13 -28h-43q-5 15 -5 34v14q13 13 31 13q30 0 30 -33zM1425 548q-17 -13 -33 -13t-28 5v43q13 13 28 13q19 0 33 -13v-35zM1207 774q-17 -18 -35 -18q-24 0 -30 12
q-2 4 -4 33q19 17 40 17q15 0 29 -17v-27zM1482 508q0 -31 -33 -31q-32 0 -32 33t30 33q35 0 35 -35zM1035 938q-17 -17 -29 -17q-33 0 -33 32q0 33 31 33q13 0 31 -17v-31zM871 1106q-18 -17 -33 -17q-33 0 -33 35v13q15 13 33 13q17 0 33 -13v-31zM981 991
q-13 -13 -32 -13q-34 0 -37 44q11 18 37 18q16 0 32 -13v-36zM1367 621q0 -37 -26 -37q-35 0 -35 39q0 31 31 31q30 0 30 -33zM1314 659q-18 -18 -29 -18q-37 0 -37 37q0 29 35 29q17 0 31 -13v-35zM924 1044q-18 -17 -27 -17q-39 0 -39 44q0 4 1 9q19 17 34 17q17 0 31 -13
v-40zM1256 712q-18 -17 -26 -17q-36 0 -36 40q0 6 1 13q16 12 31 12q16 0 30 -13v-35zM764 1106q-16 -17 -35 -17q-35 0 -35 33q0 28 24 28h9q16 0 37 -13v-31zM1092 787q0 -31 -30 -31q-10 0 -31 9v40q7 13 29 13q32 0 32 -31zM1035 823q-13 -13 -29 -13q-5 0 -14.5 2
t-13.5 2q-4 12 -4 28v21q27 12 30 12q4 0 31 -12v-40zM1425 433q-18 -13 -31 -13t-31 8v44q8 14 29 14q17 0 33 -13v-40zM702 1155q-18 -9 -32 -9q-33 0 -33 33q0 29 33 29q3 0 32 -13v-40zM870 991q-32 -13 -30 -13q-35 0 -35 33q0 29 33 29q4 0 32 -13v-36zM1207 659
q-18 -18 -33 -18q-36 0 -36 37q0 29 34 29q14 0 35 -13v-35zM1314 548q-16 -13 -31 -13q-24 0 -30 11q-3 5 -5 33q19 17 33 17q6 0 33 -12v-36zM1367 508q0 -31 -28 -31q-33 0 -33 33t33 33q28 0 28 -35zM1257 619q0 -35 -27 -35q-35 0 -35 39q0 31 31 31t31 -35zM813 1062
q0 -35 -28 -35q-33 0 -33 39q0 31 31 31q30 0 30 -35zM924 953q0 -32 -29 -32q-37 0 -37 34q0 31 35 31q31 0 31 -33zM981 880q-17 -17 -32 -17q-37 0 -37 37q0 33 37 33q13 0 32 -17v-36zM1150 732q0 -37 -31 -37q-39 0 -39 39q0 26 33 26q37 0 37 -28zM764 995
q-16 -17 -35 -17q-5 0 -15 2t-15 2q-5 15 -5 35v10q15 13 40 13q15 0 30 -18v-27zM1207 548q-20 -13 -37 -13q-32 0 -32 33q0 28 34 28q14 0 35 -13v-35zM813 953q0 -32 -28 -32q-33 0 -33 30q0 35 31 35q30 0 30 -33zM871 880q-18 -17 -31 -17q-35 0 -35 37q0 33 33 33
q15 0 33 -17v-36zM1092 676q0 -35 -28 -35q-13 0 -33 10v43q17 13 31 13q30 0 30 -31zM1256 490q-13 -13 -28 -13q-5 0 -14.5 2.5t-13.5 2.5q-5 14 -5 35v9q18 17 31 17q12 0 30 -17v-36zM1314 433q-13 -13 -29 -13q-36 0 -36 48q21 18 34 18q16 0 31 -14v-39zM645 1102
q-8 -13 -22 -13h-11q-23 0 -25 15.5t-3 32.5q15 13 32 13q19 0 29 -9v-39zM924 823q-14 -13 -29 -13q-36 0 -36 41v7q17 17 34 17t31 -13v-39zM1150 619q0 -35 -29 -35q-41 0 -41 39q0 31 35 31t35 -35zM981 769q-17 -13 -32 -13q-34 0 -37 44q11 18 37 18q16 0 32 -13v-36z
M1367 380q-9 -14 -23 -14h-9q-29 0 -29 14v39q21 9 33 9q18 0 28 -9v-39zM1035 712q-18 -17 -27 -17q-16 0 -34 17v40q18 8 30 8q13 0 31 -8v-40zM702 1044q-18 -17 -26 -17q-39 0 -39 41q0 29 27 29h8q15 0 30 -13v-40zM764 898q0 -35 -33 -35q-37 0 -37 35t33 35
q37 0 37 -35zM1092 566q0 -31 -32 -31q-17 0 -29 5v43q13 13 29 13q32 0 32 -30zM1207 437q-16 -17 -35 -17q-26 0 -31 15q-2 3 -3 37q16 14 39 14q15 0 30 -18v-31zM813 843q0 -33 -30 -33q-31 0 -31 13v39q13 13 31 13q30 0 30 -32zM871 773q-18 -17 -33 -17q-31 0 -33 45
q19 17 33 17q15 0 33 -17v-28zM1150 508q0 -31 -33 -31q-37 0 -37 35q0 31 33 31q37 0 37 -35zM645 991q-13 -13 -29 -13q-5 0 -14.5 2.5t-13.5 2.5q0 4 -2.5 13.5t-2.5 14.5q0 29 31 29q17 0 31 -13v-36zM702 938q-17 -17 -28 -17q-37 0 -37 34q0 31 33 31q14 0 32 -17v-31
zM1035 601q-17 -17 -29 -17q-33 0 -33 37q0 33 31 33q13 0 31 -17v-36zM1314 326q-17 -17 -29 -17q-38 0 -38 39q0 4 2 10q19 17 32 17q15 0 33 -17v-32zM1256 379q-18 -13 -30 -13q-32 0 -32 32q0 5 1 17q17 13 31 13q16 0 30 -13v-36zM981 659q-16 -18 -30 -18
q-39 0 -39 49q10 17 30 17h7q16 0 32 -13v-35zM592 1044q-18 -17 -27 -17q-40 0 -40 44q0 4 1 9q20 17 33 17q15 0 33 -17v-36zM924 712q-18 -17 -27 -17q-38 0 -38 52q13 13 34 13q17 0 31 -13v-35zM764 774q-17 -18 -35 -18q-35 0 -35 33q0 30 32 30h9q14 0 29 -18v-27z
M1092 453q0 -33 -30 -33q-13 0 -31 8v44q8 14 29 14q32 0 32 -33zM1207 326q-18 -17 -33 -17q-36 0 -36 35q0 31 39 31q15 0 30 -18v-31zM1035 490q-13 -13 -29 -13q-33 0 -33 33t31 33q13 0 31 -17v-36zM592 938q-16 -17 -31 -17q-35 0 -35 34q0 31 33 31q15 0 33 -17v-31z
M538 991q-29 -13 -32 -13q-38 0 -38 37q0 4 1 12q29 13 34 13q14 0 35 -13v-36zM645 896q0 -33 -29 -33q-33 0 -33 37q0 33 33 33q29 0 29 -37zM702 823q-13 -13 -28 -13q-37 0 -37 37q0 28 33 28q5 0 32 -12v-40zM871 659q-17 -18 -31 -18q-35 0 -35 53q13 13 33 13
q19 0 33 -13v-35zM981 548q-17 -13 -32 -13q-36 0 -37 44q19 17 35 17q13 0 34 -13v-35zM1150 384q-19 -18 -33 -18q-37 0 -37 35q0 27 33 27q16 0 37 -13v-31zM813 712q-17 -17 -28 -17q-33 0 -33 35q0 30 31 30q16 0 30 -13v-35zM924 619q0 -35 -27 -35q-39 0 -39 39
q0 31 35 31q31 0 31 -35zM1257 286q0 -34 -27 -34q-36 0 -36 39q0 5 1 13q17 13 31 13q31 0 31 -31zM871 548q-13 -13 -35 -13q-31 0 -31 33q0 28 33 28q6 0 33 -12v-36zM1092 344q0 -35 -28 -35q-15 0 -33 9v43q18 14 31 14q30 0 30 -31zM1207 215q-17 -17 -33 -17
q-36 0 -36 37q0 29 34 29q14 0 35 -13v-36zM764 676q0 -35 -33 -35q-37 0 -37 41q0 4 1 12q15 13 32 13q37 0 37 -31zM481 953q0 -32 -29 -32q-37 0 -37 34q0 31 35 31q31 0 31 -33zM538 880q-17 -17 -32 -17q-33 0 -37 53q17 17 34 17t35 -17v-36zM813 619q0 -35 -26 -35
q-35 0 -35 35t31 35q30 0 30 -35zM1035 379q-18 -13 -31 -13q-30 0 -30 14v39q21 9 30 9q10 0 31 -9v-40zM645 770q-9 -14 -26 -14h-6q-30 0 -30 33q0 29 30 29h9q15 0 23 -13v-35zM591 827q-18 -17 -30 -17q-31 0 -35 48q17 17 35 17q3 0 30 -12v-36zM924 508
q0 -31 -29 -31q-37 0 -37 35q0 10 12.5 20.5t22.5 10.5q31 0 31 -35zM981 433q-18 -13 -30 -13q-39 0 -39 48q11 18 37 18q16 0 32 -13v-40zM1150 286q0 -34 -31 -34q-39 0 -39 37q0 28 35 28t35 -31zM702 712q-17 -17 -26 -17q-39 0 -39 37q0 28 26 28h7q14 0 32 -8v-40z
M764 552q-13 -17 -31 -17q-38 0 -38 34v15q27 12 40 12q15 0 29 -17v-27zM813 510q0 -33 -28 -33q-33 0 -33 31q0 35 31 35q30 0 30 -33zM1092 233q0 -35 -30 -35q-11 0 -31 9v44q14 13 29 13q32 0 32 -31zM428 896q0 -33 -31 -33q-36 0 -36 38q0 5 1 15q18 17 31 17
q35 0 35 -37zM1150 174q0 -33 -31 -33q-39 0 -39 39q0 31 33 31q37 0 37 -37zM871 437q-18 -17 -33 -17q-33 0 -33 35v13q20 18 33 18q14 0 33 -18v-31zM481 843q0 -33 -31 -33q-25 0 -31 13q-2 5 -4 35q17 17 35 17q31 0 31 -32zM538 774q-17 -18 -35 -18q-31 0 -34 45
q19 17 38 17t31 -17v-27zM702 601q-17 -17 -28 -17q-37 0 -37 39q0 31 33 31q14 0 32 -17v-36zM924 379q-18 -13 -31 -13q-33 0 -34 49q13 13 34 13q17 0 31 -13v-36zM981 326q-18 -17 -30 -17q-39 0 -39 49q19 17 35 17q22 0 34 -18v-31zM1035 269q-17 -17 -29 -17
q-33 0 -33 34q0 31 31 31q17 0 31 -13v-35zM645 676q0 -35 -27 -35q-35 0 -35 37q0 29 31 29t31 -31zM592 712q-18 -17 -27 -17q-39 0 -39 52q13 13 35 13q17 0 31 -13v-35zM1092 120q0 -15 -13 -28h-43l-5 5v43q14 13 29 13q32 0 32 -33zM370 843q0 -33 -31 -33
q-12 0 -30 8v44q13 13 28 13q33 0 33 -32zM764 437q-16 -17 -35 -17q-35 0 -35 35q0 31 32 31h8q15 0 30 -18v-31zM427 773q-18 -17 -32 -17q-33 0 -33 33q0 29 28 29h10q15 0 27 -17v-28zM645 548q-16 -13 -31 -13q-22 0 -27 12q-1 16 -3 32q19 17 32 17q15 0 29 -13v-35z
M871 326q-16 -17 -31 -17q-35 0 -35 49q19 17 33 17q15 0 33 -17v-32zM1035 154q-14 -13 -27 -13q-35 0 -35 37q0 33 31 33q12 0 31 -18v-39zM702 490q-13 -13 -28 -13q-37 0 -37 35q0 31 33 31q14 0 32 -17v-36zM813 379q-18 -13 -30 -13q-31 0 -31 14v35q18 13 31 13
q16 0 30 -13v-36zM592 601q-17 -17 -29 -17q-37 0 -37 39q0 31 33 31q15 0 33 -17v-36zM981 215q-16 -17 -30 -17q-39 0 -39 41v8q19 17 35 17q13 0 34 -13v-36zM538 659q-16 -18 -30 -18q-40 0 -40 40q0 4 1 13q29 13 34 13q14 0 35 -13v-35zM924 286q0 -34 -27 -34
q-39 0 -39 37q0 28 35 28q31 0 31 -31zM481 712q-17 -17 -29 -17q-38 0 -38 41q0 4 2 12q13 12 32 12q18 0 33 -13v-35zM764 344q0 -35 -33 -35q-36 0 -36 36v13q19 17 34 17q35 0 35 -31zM538 548q-14 -13 -35 -13q-34 0 -34 46q-21 6 -43 12q-11 6 -11 44q19 17 35 17
q31 0 31 -32q0 -16 -10 -34v-4q24 12 32 12q17 0 35 -13v-35zM1035 47q-18 -13 -31 -13q-30 0 -30 14v35q18 13 30 13q17 0 31 -13v-36zM313 770q-9 -14 -24 -14h-12q-26 0 -26 14v35q15 13 33 13h7q14 0 22 -13v-35zM592 494q-16 -17 -31 -17q-35 0 -35 35q0 10 12.5 20.5
t22.5 10.5q13 0 31 -17v-32zM871 215q-16 -17 -31 -17q-35 0 -35 37q0 29 33 29q4 0 33 -13v-36zM981 104q-14 -12 -34 -12q-33 0 -35 44q27 17 37 17q3 0 32 -13v-36zM428 676q0 -35 -31 -35q-36 0 -36 41q0 4 1 12q17 13 31 13q35 0 35 -31zM645 433q-13 -13 -29 -13
q-5 0 -14.5 2.5t-13.5 2.5q0 5 -2.5 15.5t-2.5 16.5q0 29 31 29h7q15 0 24 -14v-39zM813 286q0 -34 -26 -34q-35 0 -35 34q0 31 31 31q30 0 30 -31zM924 176q0 -35 -27 -35q-39 0 -39 39q0 31 35 31q31 0 31 -35zM370 732q0 -37 -29 -37q-18 0 -32 13v44q8 8 23 8h9
q29 0 29 -28zM702 379q-18 -13 -30 -13q-35 0 -35 33q0 29 33 29q12 0 32 -9v-40zM871 104q-14 -12 -35 -12q-27 0 -30 11q0 17 -1 33q17 17 33 17q15 0 33 -17v-32zM428 566q0 -31 -35 -31q-32 0 -32 32q0 5 1 17q27 12 33 12q33 0 33 -30zM764 233q0 -35 -33 -35
q-38 0 -38 40q0 4 1 13q13 13 35 13q35 0 35 -31zM370 619q0 -35 -31 -35q-2 0 -30 13v44q13 13 28 13q33 0 33 -35zM813 176q0 -35 -28 -35q-33 0 -33 35t31 35q30 0 30 -35zM481 510q0 -33 -29 -33q-38 0 -38 34q0 5 1 15q17 17 35 17q31 0 31 -33zM538 437
q-17 -17 -32 -17q-37 0 -37 35q0 31 37 31q16 0 32 -13v-36zM924 47q-18 -13 -31 -13q-33 0 -34 45q20 17 34 17q17 0 31 -13v-36zM313 684q0 -43 -27 -43q-35 0 -35 35q0 31 33 31q29 0 29 -23zM645 344q0 -35 -27 -35q-35 0 -35 37q0 29 31 29t31 -31zM591 379
q-18 -13 -30 -13q-34 0 -35 49q13 13 35 13q16 0 30 -13v-36zM702 269q-17 -17 -28 -17q-37 0 -37 37q0 28 25 28h8q17 0 32 -13v-35zM981 -10q-17 -17 -28 -17q-42 0 -41 52q10 17 30 17h7q16 0 32 -13v-39zM259 712q-18 -17 -26 -17q-44 0 -44 43q0 4 1 10q19 12 36 12
q18 0 33 -13v-35zM764 105q-13 -13 -31 -13h-12q-27 0 -27 30q0 31 33 31q10 0 37 -17v-31zM370 508q0 -31 -31 -31q-13 0 -20 3q-10 5 -10 26q0 37 28 37q33 0 33 -35zM427 437q-18 -17 -32 -17q-33 0 -33 35q0 31 31 31q22 0 34 -18v-31zM813 65q0 -31 -30 -31
q-31 0 -31 14v35q18 13 31 13q30 0 30 -31zM312 548q-16 -13 -30 -13q-31 0 -31 13v35q15 13 33 13q14 0 28 -13v-35zM645 211q-14 -13 -27 -13q-33 0 -34 49q19 17 32 17q15 0 29 -13v-40zM702 154q-14 -13 -26 -13q-39 0 -39 39q0 31 33 31q13 0 32 -18v-39zM871 -10
q-16 -17 -31 -17q-35 0 -35 42v10q19 17 33 17q15 0 33 -17v-35zM481 379q-18 -13 -31 -13q-25 0 -31 14q-2 4 -4 35q15 13 33 13t33 -13v-36zM202 676q0 -35 -27 -35q-35 0 -35 43v10q17 13 31 13q31 0 31 -31zM538 326q-18 -17 -32 -17q-39 0 -39 38q0 5 2 11q19 17 34 17
q23 0 35 -18v-31zM592 269q-17 -17 -29 -17q-37 0 -37 37q0 28 33 28q19 0 33 -13v-35zM259 601q-18 -17 -28 -17q-13 0 -27 13t-14 26q0 31 40 31q15 0 29 -17v-36zM924 -46q0 -35 -27 -35q-39 0 -39 40q0 5 1 13q29 13 34 13q31 0 31 -31zM645 120q0 -19 -9 -28h-43
q-9 27 -9 44q19 17 32 17q29 0 29 -33zM370 399q0 -33 -31 -33q-10 0 -30 9v44q9 9 28 9q33 0 33 -29zM428 344q0 -35 -31 -35q-36 0 -36 38q0 5 1 11q19 17 33 17q33 0 33 -31zM764 9q0 -36 -33 -36q-37 0 -37 38q0 31 33 31q37 0 37 -33zM871 -117q-16 -17 -31 -17
q-35 0 -35 35q0 30 33 30q15 0 33 -17v-31zM202 548q-16 -13 -31 -13q-32 0 -32 31q0 5 1 17q17 13 31 13q17 0 31 -13v-35zM313 433q-7 -13 -27 -13q-5 0 -15 2t-15 2q-5 14 -5 33v15q16 14 33 14q20 0 29 -14v-39zM592 158q-17 -17 -29 -17q-37 0 -37 39q0 10 12.5 20.5
t22.5 10.5q12 0 31 -18v-35zM259 494q-16 -17 -31 -17q-38 0 -38 35q0 31 36 31q15 0 33 -17v-32zM702 47q-13 -13 -28 -13q-37 0 -37 33q0 29 27 29h8q15 0 30 -13v-36zM813 -64q-17 -17 -28 -17q-33 0 -33 35q0 31 31 31q16 0 30 -13v-36zM148 601q-17 -17 -28 -17
q-38 0 -38 43q0 27 34 27q14 0 32 -17v-36zM538 215q-17 -17 -32 -17q-26 0 -32 14q-3 5 -5 36q-19 4 -36.5 10t-17.5 31q0 28 35 28q32 0 32 -27q0 -17 -11 -34v-5q26 13 32 13q16 0 35 -13v-36z" />
  </g>

</svg>
