<?xml version="1.0" standalone="no"?>
<!DOCTYPE svg PUBLIC "-//W3C//DTD SVG 1.1//EN" "http://www.w3.org/Graphics/SVG/1.1/DTD/svg11.dtd" >
<svg viewBox="0 -442 2048 2048">
  <g transform="matrix(1 0 0 -1 0 1606)">
   <path fill="currentColor"
d="M1705 1135l-4 -3l-14 17l4 4zM1500 1283q-10 -10 -23 -10q-22 0 -22 23q0 22 21 22q10 0 24 -13v-22zM1640 1146q-14 -13 -24 -13q-20 0 -20 24q0 20 20 20q13 0 24 -10v-21zM1592 1191q-10 -10 -22 -10q-22 0 -22 22q0 19 22 19q11 0 22 -10v-21zM1451 1332
q-11 -11 -22 -11q-22 0 -22 22q0 20 19 20q4 0 12.5 -3.5t12.5 -3.5v-24zM1777 1002q-11 -10 -20 -10q-21 0 -21 24q0 21 21 21q9 0 20 -10v-25zM1730 1047q-7 -7 -19 -7q-23 0 -23 24q0 18 23 18q12 0 19 -7v-28zM1544 1235q-11 -10 -20 -10q-24 0 -24 24q0 21 22 21
q11 0 22 -10v-25zM1682 1095q-5 -10 -18 -10q-24 0 -24 24q0 20 23 20q12 0 19 -7v-27zM1816 945h-21q-14 13 -14 23t14 24zM1400 1369q-3 0 -8.5 -1.5t-8.5 -1.5q-24 0 -24 18v10q15 -3 41 -13v-12zM1500 1201q0 -9 -11 -20h-27q-7 17 -7 22q0 19 21 19q24 0 24 -21z
M1640 1062q0 -13 -10 -22h-27q-7 13 -7 24q0 18 20 18q24 0 24 -20zM1359 1342q0 -11 -10 -21h-27q-8 19 -8 22q0 20 21 20q24 0 24 -21zM1311 1379q-13 -13 -22 -13q-22 0 -22 24q0 21 20 21q9 0 24 -14v-18zM1404 1283q-11 -10 -21 -10q-24 0 -24 23q0 22 23 22
q11 0 22 -10v-25zM1452 1239q-14 -14 -23 -14q-22 0 -22 24q0 21 21 21q10 0 24 -13v-18zM1544 1143q-11 -10 -20 -10q-24 0 -24 22t22 22q11 0 22 -10v-24zM1592 1098q-13 -13 -22 -13q-22 0 -22 25q0 19 22 19q11 0 22 -10v-21zM1777 906q-7 -7 -17 -7h-5q-19 0 -19 22v4
q0 16 18 16h5q11 0 18 -7v-28zM1682 1002q-5 -10 -18 -10q-24 0 -24 22q0 23 23 23q12 0 19 -7v-28zM1730 954q-11 -10 -19 -10q-23 0 -23 26q0 19 21 19q10 0 21 -10v-25zM1822 862q-5 -10 -17 -10q-24 0 -24 22t22 22q12 0 19 -7v-27zM1867 816q0 -12 -15 -12
q-23 0 -23 25q0 9 10 19h18q10 -30 10 -32zM1263 1424q-9 -10 -20 -10q-24 0 -24 14l4 17q20 -3 40 -10v-11zM1881 769h-5l-4 15h5zM1171 1424q-11 -10 -21 -10q-24 0 -24 22t21 22q10 0 24 -13v-21zM1218 1379q-13 -13 -22 -13q-22 0 -22 24q0 21 21 21q8 0 23 -14v-18z
M1311 1283q-11 -10 -21 -10q-23 0 -23 23q0 22 20 22q10 0 24 -13v-22zM1452 1143q-11 -10 -21 -10q-24 0 -24 24q0 20 21 20q13 0 24 -10v-24zM1500 1098q-12 -13 -24 -13q-21 0 -21 25q0 19 21 19q13 0 24 -10v-21zM1592 1002q-11 -10 -20 -10q-10 0 -24 13v22
q10 10 20 10q13 0 24 -10v-25zM1640 958q-13 -14 -24 -14q-20 0 -20 26q0 19 20 19q13 0 24 -10v-21zM1359 1239q-13 -14 -24 -14q-21 0 -21 24q0 21 21 21q10 0 24 -13v-18zM1263 1331q-10 -10 -22 -10q-22 0 -22 21t22 21q10 0 22 -11v-21zM1404 1191q-10 -10 -22 -10
q-23 0 -23 20q0 21 23 21q11 0 22 -10v-21zM1544 1050q-11 -10 -22 -10q-22 0 -22 22q0 20 24 20q12 0 20 -7v-25zM1730 862q-11 -10 -19 -10q-9 0 -23 13v21q10 10 21 10q10 0 21 -10v-24zM1870 721q-11 -10 -19 -10t-22 13v22q10 10 20 10t21 -10v-25zM1777 814
q-11 -10 -20 -10q-21 0 -21 25q0 19 19 19q11 0 22 -10v-24zM1682 906q-8 -7 -18 -7q-24 0 -24 23q0 19 23 19q12 0 19 -7v-28zM1822 766q-8 -7 -17 -7q-24 0 -24 22q0 19 20 19h6q9 0 15 -6v-28zM1895 663q-22 12 -22 24q0 10 15 24q0 1 7 -48zM1500 1005q-14 -13 -24 -13
q-21 0 -21 24q0 21 21 21q13 0 24 -10v-22zM1640 865q-14 -13 -24 -13q-20 0 -20 24q0 20 20 20q13 0 24 -10v-21zM1078 1424q-11 -10 -21 -10q-24 0 -24 22t21 22q10 0 24 -13v-21zM1218 1283q-11 -10 -20 -10q-24 0 -24 23q0 22 21 22q9 0 23 -13v-22zM1359 1146
q-14 -13 -24 -13q-21 0 -21 24q0 20 21 20q13 0 24 -10v-21zM1171 1331q-10 -10 -23 -10q-22 0 -22 22q0 20 22 20q11 0 23 -11v-21zM1311 1191q-10 -10 -22 -10q-22 0 -22 22q0 19 22 19q11 0 22 -10v-21zM1452 1050q-11 -10 -23 -10q-22 0 -22 24q0 18 22 18q7 0 23 -7
v-25zM1870 629q-7 -7 -19 -7q-17 0 -22 10v21q16 7 22 7q12 0 19 -7v-24zM1592 910q-12 -11 -20 -11q-24 0 -24 24q0 18 22 18q6 0 22 -7v-24zM1777 721q-11 -10 -20 -10q-21 0 -21 24q0 21 21 21q9 0 20 -10v-25zM1123 1376q-11 -10 -21 -10q-24 0 -24 24q0 21 24 21
q9 0 21 -11v-24zM1263 1235q-11 -10 -20 -10q-24 0 -24 24q0 21 22 21q11 0 22 -10v-25zM1404 1095q-11 -10 -21 -10q-24 0 -24 24q0 20 23 20q11 0 22 -10v-24zM1544 954q-11 -10 -20 -10q-24 0 -24 24q0 21 22 21q11 0 22 -10v-25zM1730 766q-8 -7 -18 -7q-24 0 -24 24
q0 17 21 17h6q9 0 15 -6v-28zM1682 814q-5 -10 -18 -10q-24 0 -24 24q0 20 23 20q12 0 19 -7v-27zM1822 673q-5 -10 -17 -10q-24 0 -24 24q0 21 22 21q12 0 19 -7v-28zM1902 574h-15q-14 14 -14 19q0 11 11 22h18v-41zM1033 1477q-3 -15 -22 -15h-5q-11 0 -17 15h44z
M1777 629q-7 -7 -18 -7h-4q-19 0 -19 20q0 18 21 18q12 0 20 -7v-24zM1500 910q-11 -11 -23 -11q-22 0 -22 22v5q0 15 21 15q8 0 24 -7v-24zM1640 769q-10 -10 -22 -10q-22 0 -22 22v4q0 15 20 15q10 0 24 -6v-25zM1078 1331q-10 -10 -22 -10q-23 0 -23 22q0 20 23 20
q10 0 22 -11v-21zM1218 1191q-10 -10 -22 -10q-22 0 -22 22q0 19 22 19q11 0 22 -10v-21zM1359 1062q0 -12 -10 -22h-27q-8 14 -8 24q0 18 21 18q24 0 24 -20zM982 1424q-11 -10 -20 -10q-24 0 -24 22t24 22q9 0 20 -10v-24zM1030 1379q-14 -13 -22 -13q-23 0 -23 24
q0 21 23 21q7 0 22 -14v-18zM1123 1283q-11 -10 -21 -10q-24 0 -24 23q0 22 24 22q10 0 21 -10v-25zM1171 1239q-14 -14 -23 -14q-22 0 -22 24q0 21 21 21q10 0 24 -13v-18zM1263 1143q-11 -10 -20 -10q-24 0 -24 22t22 22q11 0 22 -10v-24zM1311 1098q-13 -13 -22 -13
q-22 0 -22 25q0 19 22 19q11 0 22 -10v-21zM1404 1002q-11 -10 -21 -10q-24 0 -24 22q0 23 23 23q11 0 22 -10v-25zM1452 958q-14 -14 -23 -14q-22 0 -22 26q0 19 22 19q12 0 23 -10v-21zM1544 862q-11 -10 -20 -10q-24 0 -24 22t22 22q11 0 22 -10v-24zM1592 817
q-13 -13 -22 -13q-22 0 -22 25q0 19 22 19q11 0 22 -10v-21zM1822 581q-8 -7 -17 -7q-24 0 -24 19q0 22 22 22q12 0 19 -7v-27zM1870 533q-8 -7 -17 -7q-24 0 -24 22q0 19 20 19q10 0 21 -10v-24zM1682 721q-5 -10 -18 -10q-24 0 -24 22q0 23 23 23q12 0 19 -7v-28z
M1730 673q-11 -10 -19 -10q-23 0 -23 26q0 19 21 19q10 0 21 -10v-25zM937 1474l-10 -12h-30v12h40zM1895 481h-11q-11 11 -11 19t11 19h11v-38zM890 1424q-11 -10 -21 -10q-24 0 -24 22t24 22q10 0 21 -10v-24zM937 1379q-13 -13 -22 -13q-22 0 -22 24q0 21 21 21
q8 0 23 -14v-18zM1171 1143q-11 -10 -21 -10q-24 0 -24 24q0 20 21 20q13 0 24 -10v-24zM1311 1002q-11 -10 -19 -10q-11 0 -25 13v22q10 10 20 10q13 0 24 -10v-25zM1452 862q-11 -10 -21 -10t-24 13v21q10 10 21 10q13 0 24 -10v-24zM1500 817q-12 -13 -24 -13
q-21 0 -21 25q0 19 21 19q13 0 24 -10v-21zM1592 721q-11 -10 -20 -10q-10 0 -24 13v22q10 10 20 10q13 0 24 -10v-25zM1640 676q-12 -13 -24 -13q-20 0 -20 26q0 19 20 19q13 0 24 -10v-22zM1730 581q-8 -7 -18 -7q-13 0 -24 10v21q11 10 21 10t21 -10v-24zM1870 440
q-8 -7 -17 -7q-13 0 -24 10v22q11 10 20 10q10 0 21 -10v-25zM1030 1283q-11 -10 -21 -10q-24 0 -24 23q0 22 23 22q8 0 22 -13v-22zM1078 1239q-14 -14 -22 -14q-23 0 -23 24q0 21 21 21q10 0 24 -13v-18zM1218 1098q-13 -13 -22 -13q-22 0 -22 25q0 19 22 19q11 0 22 -10
v-21zM1359 958q-13 -14 -24 -14q-21 0 -21 26q0 19 21 19q13 0 24 -10v-21zM1777 533q-7 -7 -19 -7q-22 0 -22 22q0 19 19 19q11 0 22 -10v-24zM1682 626q-4 -4 -16 -4h-6q-20 0 -20 10v18q10 10 23 10q12 0 19 -7v-27zM982 1331q-11 -10 -22 -10q-22 0 -22 21t24 21
q8 0 20 -11v-21zM1123 1191q-11 -10 -23 -10q-22 0 -22 20q0 21 24 21q10 0 21 -10v-21zM1263 1050q-11 -10 -22 -10q-22 0 -22 22q0 20 24 20q12 0 20 -7v-25zM1822 485q-4 -4 -15 -4h-4q-22 0 -22 11v17q10 10 22 10t19 -7v-27zM1404 910q-12 -11 -21 -11q-24 0 -24 23
q0 19 24 19q14 0 21 -7v-24zM1544 769q-11 -10 -20 -10q-24 0 -24 22q0 19 22 19h6q10 0 16 -6v-25zM1888 430q0 -7 -1 -20.5t-1 -20.5q-13 4 -13 15t15 26zM1640 584q-11 -10 -22 -10t-22 10v21q10 10 20 10q13 0 24 -10v-21zM1500 724q-14 -13 -24 -13q-21 0 -21 24
q0 21 21 21q13 0 24 -10v-22zM1592 628q-12 -6 -22 -6q-17 0 -22 10v21q16 7 22 7t22 -7v-25zM1870 347q-6 -6 -19 -6q-17 0 -22 10v21q10 10 20 10t21 -10v-25zM937 1283q-11 -10 -20 -10q-24 0 -24 23q0 22 21 22q9 0 23 -13v-22zM1078 1146q-14 -13 -22 -13q-23 0 -23 24
q0 20 21 20q13 0 24 -10v-21zM1218 1005q-14 -13 -22 -13t-22 13v22q10 10 21 10q12 0 23 -10v-22zM1359 865q-14 -13 -24 -13q-21 0 -21 24q0 20 21 20q13 0 24 -10v-21zM1777 440q-7 -7 -19 -7q-11 0 -22 10v22q10 10 21 10q9 0 20 -10v-25zM890 1331q-11 -10 -23 -10
q-22 0 -22 22q0 20 24 20q9 0 21 -11v-21zM1171 1050q-11 -10 -23 -10q-22 0 -22 24q0 18 22 18q7 0 23 -7v-25zM797 1436q0 -22 -21 -22q-24 0 -24 20q0 9 37 21q8 -8 8 -19zM1030 1191q-11 -10 -22 -10q-23 0 -23 22q0 19 24 19q10 0 21 -10v-21zM1311 910
q-12 -11 -21 -11q-23 0 -23 24q0 18 22 18q6 0 22 -7v-24zM1452 769q-11 -10 -21 -10q-24 0 -24 24q0 17 22 17q9 0 23 -6v-25zM1822 411v-9q0 -17 -17 -17q-24 0 -24 23q0 22 22 22q19 0 19 -19zM1730 488q-7 -7 -19 -7q-18 0 -23 10v22q14 6 22 6h4q9 0 16 -7v-24z
M842 1388q0 -22 -19 -22q-25 0 -26 31q16 14 26 14q19 0 19 -23zM982 1235q-11 -10 -20 -10q-24 0 -24 24q0 21 24 21q9 0 20 -10v-25zM1123 1095q-11 -10 -21 -10q-24 0 -24 24q0 20 24 20q10 0 21 -10v-24zM1263 954q-11 -10 -19 -10q-25 0 -25 24q0 21 22 21q11 0 22 -10
v-25zM1404 814q-11 -10 -21 -10q-24 0 -24 24q0 20 23 20q11 0 22 -10v-24zM1544 673q-11 -10 -20 -10q-24 0 -24 24q0 21 22 21q11 0 22 -10v-25zM1682 533q-8 -7 -18 -7q-24 0 -24 21q0 20 23 20q12 0 19 -7v-27zM1777 347q-7 -6 -16 -6h-6q-19 0 -19 20q0 21 21 21
q9 0 20 -10v-25zM1499 628q-14 -6 -23 -6q-21 0 -21 20q0 18 21 18q7 0 23 -7v-25zM1640 488q-16 -7 -24 -7q-20 0 -20 21q0 17 17 17h5q8 0 22 -6v-25zM797 1331q-10 -10 -22 -10q-23 0 -23 22q0 20 23 20q10 0 22 -11v-21zM937 1191q-10 -10 -22 -10q-22 0 -22 22
q0 19 22 19q11 0 22 -10v-21zM1078 1050q-11 -10 -22 -10q-23 0 -23 24q0 18 23 18q6 0 22 -7v-25zM1544 581q-7 -7 -19 -7q-25 0 -25 19q0 22 22 22q11 0 22 -10v-24zM1592 536q-11 -10 -20 -10q-24 0 -24 22q0 19 22 19q11 0 22 -10v-21zM1730 392q-8 -7 -18 -7
q-24 0 -24 23q0 22 21 22q10 0 21 -10v-28zM1822 313q0 -20 -17 -20q-24 0 -24 20q0 24 24 24q17 0 17 -24zM1359 769q-10 -10 -22 -10q-23 0 -23 22v4q0 15 21 15q10 0 24 -6v-25zM1218 910q-12 -11 -20 -11q-24 0 -24 24q0 18 22 18q6 0 22 -7v-24zM749 1376
q-11 -10 -19 -10q-26 0 -26 24q0 21 24 21q9 0 21 -11v-24zM842 1294q0 -21 -19 -21q-26 0 -26 23q0 22 26 22q19 0 19 -24zM890 1235q-11 -10 -21 -10q-24 0 -24 24q0 21 24 21q10 0 21 -10v-25zM982 1143q-11 -10 -20 -10q-24 0 -24 22t24 22q9 0 20 -10v-24zM1123 1002
q-11 -10 -19 -10q-12 0 -26 13v19q14 13 24 13t21 -10v-25zM1171 957q-14 -13 -21 -13q-24 0 -24 26q0 19 22 19q12 0 23 -10v-22zM1263 862q-11 -10 -19 -10q-25 0 -25 22t22 22q11 0 22 -10v-24zM1311 817q-14 -13 -21 -13q-23 0 -23 25q0 19 22 19q11 0 22 -10v-21z
M1404 721q-11 -10 -21 -10q-24 0 -24 22q0 23 23 23q11 0 22 -10v-25zM1452 676q-13 -13 -23 -13q-22 0 -22 26q0 19 22 19q12 0 23 -10v-22zM1682 440q-8 -7 -18 -7q-24 0 -24 19q0 23 23 23q12 0 19 -7v-28zM1030 1098q-14 -13 -22 -13q-23 0 -23 25q0 19 24 19
q10 0 21 -10v-21zM1857 289q-5 -15 -13 -44q-15 13 -15 22q0 3 10 22h18zM704 1429l-13 -15l-22 4q12 4 35 11zM1640 395q-10 -10 -22 -10q-22 0 -22 23q0 22 20 22q10 0 24 -13v-22zM1452 584q-11 -10 -21 -10q-13 0 -24 10v21q11 10 21 10q13 0 24 -10v-21zM1500 536
q-10 -10 -23 -10q-22 0 -22 22q0 19 21 19q13 0 24 -10v-21zM1592 443q-11 -10 -20 -10q-13 0 -24 10v22q11 10 20 10q13 0 24 -10v-22zM1730 300q-8 -7 -18 -7q-24 0 -24 22t21 22q10 0 21 -10v-27zM1777 252q-7 -7 -19 -7q-22 0 -22 22t21 22q9 0 20 -10v-27zM1822 204
q-4 -4 -15 -4h-5q-21 0 -21 17v5q0 20 22 20q11 0 19 -8v-30zM1682 345q-4 -4 -16 -4h-5q-21 0 -21 19q0 22 23 22q12 0 19 -7v-30zM656 1388q0 -22 -20 -22q-24 0 -24 17v11q15 5 33 17q11 -11 11 -23zM701 1328q-7 -7 -19 -7q-22 0 -22 22q0 20 22 20q12 0 19 -7v-28z
M749 1283q-11 -10 -19 -10q-10 0 -25 14v18q14 13 23 13q10 0 21 -10v-25zM890 1143q-11 -10 -21 -10q-24 0 -24 24q0 20 24 20q10 0 21 -10v-24zM1030 1002q-11 -10 -19 -10q-11 0 -25 13v22q23 10 22 10q11 0 22 -10v-25zM1171 862q-11 -10 -19 -10q-12 0 -26 13v21
q10 10 21 10q13 0 24 -10v-24zM1311 721q-11 -10 -19 -10q-11 0 -25 13v22q10 10 20 10q13 0 24 -10v-25zM1404 629q-7 -7 -21 -7q-24 0 -24 10v18q15 10 24 10q14 0 21 -7v-24zM797 1235q-11 -10 -21 -10q-24 0 -24 24q0 21 23 21q11 0 22 -10v-25zM937 1098
q-13 -13 -22 -13q-22 0 -22 25q0 19 22 19q11 0 22 -10v-21zM1078 958q-14 -14 -22 -14q-23 0 -23 26q0 19 23 19q11 0 22 -10v-21zM1218 817q-13 -13 -22 -13q-22 0 -22 25q0 19 22 19q11 0 22 -10v-21zM1359 676q-12 -13 -24 -13q-21 0 -21 26q0 19 21 19q13 0 24 -10v-22
zM1544 488l-2 -2q-7 -5 -18 -5q-24 0 -24 11v17q14 10 24 10q12 0 20 -7v-24zM842 1187q-6 -6 -17 -6h-6q-22 0 -22 20q0 21 26 21q12 0 19 -7v-28zM982 1050q-11 -10 -22 -10q-22 0 -22 22q0 20 25 20q12 0 19 -7v-25zM1123 910q-12 -11 -21 -11q-24 0 -24 23q0 19 24 19h4
q10 0 17 -7v-24zM1263 769q-11 -10 -20 -10q-24 0 -24 22q0 19 22 19h6q10 0 16 -6v-25zM1640 303q-10 -10 -22 -10q-22 0 -22 22t20 22q10 0 24 -13v-21zM1359 584q-11 -10 -22 -10t-22 10v21q10 10 20 10q13 0 24 -10v-21zM1500 443q-11 -10 -23 -10q-11 0 -22 10v22
q10 10 21 10q13 0 24 -10v-22zM1592 347q-14 -6 -22 -6q-17 0 -22 10v21q10 10 20 10q13 0 24 -10v-25zM1777 159q-7 -7 -19 -7q-22 0 -22 22q0 23 21 23q9 0 20 -10v-28zM1078 865q-14 -13 -22 -13t-22 13v21q10 10 20 10q13 0 24 -10v-21zM1311 628q-12 -6 -22 -6
q-17 0 -22 10v21q16 7 22 7t22 -7v-25zM1730 207q-7 -7 -19 -7q-18 0 -23 10v21q11 11 21 11q9 0 21 -11v-24zM656 1283q-11 -10 -20 -10q-24 0 -24 23q0 22 22 22q11 0 22 -10v-25zM797 1143q-11 -10 -21 -10q-24 0 -24 24q0 20 23 20q11 0 22 -10v-24zM937 1005
q-14 -13 -22 -13t-22 13v22q10 10 21 10q12 0 23 -10v-22zM1218 724q-14 -13 -22 -13t-22 13v22q10 10 21 10q12 0 23 -10v-22zM1452 488q-14 -7 -23 -7q-17 0 -22 10v22q14 6 22 6q9 0 23 -6v-25zM1544 392q-7 -7 -19 -7q-25 0 -25 23q0 22 22 22q11 0 22 -10v-28z
M890 1050q-11 -10 -23 -10q-22 0 -22 24q0 18 25 18q12 0 20 -7v-25zM608 1331q-11 -10 -20 -10q-24 0 -24 22q0 20 24 20q8 0 20 -11v-21zM701 1248q0 -23 -17 -23q-24 0 -24 24q0 21 22 21q19 0 19 -22zM749 1191q-11 -10 -21 -10q-24 0 -24 22q0 19 24 19q10 0 21 -10
v-21zM1171 769q-11 -10 -21 -10q-24 0 -24 24q0 17 22 17q9 0 23 -6v-25zM1404 533q-7 -7 -19 -7q-26 0 -26 21q0 20 23 20q11 0 22 -10v-24zM1682 265q0 -20 -18 -20q-24 0 -24 22t23 22q19 0 19 -17v-7zM1030 910q-12 -11 -21 -11q-24 0 -24 24q0 18 24 18q5 0 21 -7v-24z
M842 1095q-11 -10 -19 -10q-24 0 -26 31q15 13 26 13q12 0 19 -7v-27zM982 954q-11 -10 -19 -10q-25 0 -25 24q0 21 24 21q9 0 20 -10v-25zM1123 814q-11 -10 -19 -10q-26 0 -26 24q0 20 24 20q10 0 21 -10v-24zM1263 673q-11 -10 -19 -10q-25 0 -25 24q0 21 22 21
q11 0 22 -10v-25zM1640 207q-16 -7 -24 -7q-20 0 -20 21t20 21q12 0 24 -11v-24zM1499 347q-14 -6 -23 -6q-21 0 -21 20q0 21 21 21q12 0 23 -10v-25zM1218 628q-14 -6 -23 -6q-21 0 -21 20q0 18 22 18q6 0 22 -7v-25zM1452 395q-11 -10 -21 -10q-24 0 -24 23q0 22 21 22
q10 0 24 -13v-22zM1544 300q-7 -7 -19 -7q-25 0 -25 20q0 24 24 24q9 0 20 -10v-27zM1592 255q-11 -10 -20 -10q-24 0 -24 22t20 22q10 0 24 -13v-21zM1359 488q-16 -7 -24 -7q-21 0 -21 21q0 17 18 17h5q8 0 22 -6v-25zM561 1294q0 -21 -18 -21q-24 0 -24 23q0 22 23 22
q19 0 19 -17v-7zM656 1191q-10 -10 -22 -10q-22 0 -22 22q0 19 22 19q11 0 22 -10v-21zM701 1143q-5 -10 -17 -10q-24 0 -24 24q0 20 22 20q12 0 19 -7v-27zM797 1050q-11 -10 -22 -10q-23 0 -23 24q0 18 23 18q6 0 22 -7v-25zM1263 581q-7 -7 -19 -7q-25 0 -25 19
q0 22 22 22q11 0 22 -10v-24zM1311 536q-11 -10 -21 -10q-23 0 -23 22q0 19 22 19q11 0 22 -10v-21zM1404 440q-7 -7 -19 -7q-26 0 -26 19q0 23 23 23q11 0 22 -10v-25zM1682 173q0 -21 -18 -21q-24 0 -24 21q0 24 24 24q18 0 18 -24zM1730 111q-8 -7 -18 -7q-24 0 -24 23
q0 22 21 22q10 0 21 -10v-28zM937 910q-12 -11 -20 -11q-24 0 -24 24q0 18 22 18q6 0 22 -7v-24zM1078 769q-11 -10 -21 -10q-24 0 -24 24q0 17 23 17q8 0 22 -6v-25zM842 1002q-5 -10 -18 -10t-27 13v19q15 13 26 13q12 0 19 -7v-28zM890 954q-11 -10 -20 -10q-25 0 -25 26
q0 19 24 19q10 0 21 -10v-25zM982 862q-11 -10 -19 -10q-11 0 -25 13v18q14 13 24 13q9 0 20 -10v-24zM1123 721q-11 -10 -19 -10q-12 0 -26 13v18q15 14 24 14q10 0 21 -10v-25zM1171 676q-14 -13 -21 -13q-24 0 -24 26q0 19 22 19q12 0 23 -10v-22zM515 1343
q0 -12 -10 -21h-18q3 4 28 21zM608 1235q-11 -10 -19 -10q-25 0 -25 24q0 21 24 21q9 0 20 -10v-25zM749 1095q-11 -10 -19 -10q-26 0 -26 25q0 19 24 19q10 0 21 -10v-24zM1030 817q-14 -13 -21 -13q-24 0 -24 25q0 19 24 19q10 0 21 -10v-21zM1771 101q-8 -17 -27 -42
q-8 8 -8 20t11 22h24zM1736 38q-27 -26 -29 -26q-19 0 -19 22t21 22q18 0 27 -18zM1452 303q-11 -10 -21 -10q-24 0 -24 22t21 22q10 0 24 -13v-21zM1500 255q-10 -10 -23 -10q-22 0 -22 22t21 22q10 0 24 -13v-21zM1592 162q-11 -10 -20 -10q-24 0 -24 22q0 23 20 23
q9 0 24 -14v-21zM1640 114q-10 -10 -22 -10q-22 0 -22 23q0 22 20 22q10 0 24 -13v-22zM1359 395q-10 -10 -22 -10q-23 0 -23 23q0 22 21 22q10 0 24 -13v-22zM1404 347q-6 -6 -19 -6h-5q-21 0 -21 19q0 22 23 22q11 0 22 -10v-25zM1171 584q-11 -10 -21 -10q-13 0 -24 10
v21q11 10 21 10q13 0 24 -10v-21zM1311 443q-11 -10 -21 -10q-12 0 -23 10v22q11 10 20 10q13 0 24 -10v-22zM1544 207q-6 -7 -20 -7q-24 0 -24 19q0 23 22 23q10 0 22 -11v-24zM1218 536q-11 -10 -20 -10q-24 0 -24 22q0 19 22 19q11 0 22 -10v-21zM701 1047q-7 -7 -17 -7
h-5q-19 0 -19 24q0 18 22 18q12 0 19 -7v-28zM561 1187q-6 -6 -19 -6q-23 0 -23 22q0 19 23 19q12 0 19 -7v-28zM749 1002q-11 -10 -19 -10q4 0 -25 13v22l23 10q10 0 21 -10v-25zM890 862q-11 -10 -20 -10q-11 0 -25 13v21q23 10 24 10q10 0 21 -10v-24zM1030 721
q-11 -10 -19 -10q-11 0 -25 13v22q23 10 22 10q11 0 22 -10v-25zM1123 629q-7 -7 -21 -7q-24 0 -24 10v18q10 10 26 10q12 0 19 -7v-24zM516 1235q-11 -10 -21 -10q-24 0 -24 24q0 21 23 21q11 0 22 -10v-25zM608 1143q-11 -10 -19 -10q-11 0 -25 13v21q23 10 24 10
q9 0 20 -10v-24zM656 1095q-11 -10 -20 -10q-24 0 -24 25q0 19 22 19q11 0 22 -10v-24zM797 954q-11 -10 -21 -10q-24 0 -24 26q0 19 23 19q11 0 22 -10v-25zM937 817q-13 -13 -22 -13q-22 0 -22 25q0 19 22 19q11 0 22 -10v-21zM1078 676q-13 -13 -22 -13q-23 0 -23 26
q0 19 23 19q11 0 22 -10v-22zM1263 488l-2 -2q-7 -5 -18 -5q-24 0 -24 11v17q14 10 24 10q12 0 20 -7v-24zM1682 64q-5 -5 -18 -5q-24 0 -24 21t23 21q12 0 19 -7v-30zM842 906q-7 -7 -19 -7q-26 0 -26 23q0 19 26 19q12 0 19 -7v-28zM982 769q-11 -10 -20 -10q-24 0 -24 22
q0 19 23 19h6q9 0 15 -6v-25zM468 1284l-11 -11h-24q0 2 -6 8q17 17 37 27zM1500 162q-10 -10 -23 -10q-22 0 -22 22q0 23 21 23q9 0 24 -14v-21zM1640 22q-10 -10 -22 -10q-22 0 -22 22t20 22q10 0 24 -13v-21zM1359 303q-10 -10 -22 -10q-23 0 -23 22t21 22q10 0 24 -13
v-21zM1078 584q-11 -10 -22 -10t-22 10v21q10 10 20 10q13 0 24 -10v-21zM1311 347q-14 -6 -22 -6q-17 0 -22 10v21q10 10 20 10q13 0 24 -10v-25zM1452 207q-16 -7 -23 -7q-17 0 -22 10v21q11 11 21 11q12 0 24 -11v-24zM1218 443q-11 -10 -22 -10t-22 10v22q10 10 21 10
q12 0 23 -10v-22zM1592 66q-16 -7 -22 -7q-22 0 -22 23q0 19 20 19q13 0 24 -10v-25zM1030 628q-14 -6 -22 -6q-17 0 -22 10v21q16 7 23 7q5 0 21 -7v-25zM420 1248q0 -23 -17 -23q-8 0 -18 4l-3 11l30 30q8 -16 8 -22zM516 1143q-11 -10 -21 -10t-24 13v21q10 10 23 10
q11 0 22 -10v-24zM656 1002q-11 -10 -20 -10q-3 0 -24 13v22q10 10 22 10q11 0 22 -10v-25zM797 862q-11 -10 -21 -10t-24 13v21q10 10 23 10q11 0 22 -10v-24zM937 724q-14 -13 -22 -13t-22 13v22q10 10 21 10q12 0 23 -10v-22zM1263 392q-7 -7 -19 -7q-25 0 -25 23
q0 22 22 22q11 0 22 -10v-28zM1404 252q-7 -7 -19 -7q-26 0 -26 22t23 22q11 0 22 -10v-27zM1544 111q-7 -7 -19 -7q-25 0 -25 23q0 22 22 22q11 0 22 -10v-28zM1170 488q-14 -7 -22 -7q-17 0 -22 10v22q14 6 22 6t22 -6v-25zM468 1191q-11 -10 -21 -10q-24 0 -24 22
q0 19 24 19q10 0 21 -10v-21zM561 1095q-5 -10 -18 -10q-24 0 -24 25q0 19 23 19q12 0 19 -7v-27zM608 1050q-11 -10 -20 -10q-24 0 -24 24q0 18 25 18q12 0 19 -7v-25zM701 955q-6 -11 -17 -11q-24 0 -24 26q0 19 22 19q12 0 19 -7v-27zM749 910q-12 -11 -19 -11
q-10 0 -25 14v21q16 7 25 7q12 0 19 -7v-24zM890 769q-11 -10 -21 -10q-24 0 -24 24q0 17 25 17q14 0 20 -6v-25zM1123 533q-7 -7 -19 -7q-26 0 -26 21q0 20 24 20q10 0 21 -10v-24zM1682 -12q0 -24 -19 -24q-23 0 -23 24q0 20 23 20q19 0 19 -20zM842 814q-5 -10 -18 -10
q-27 0 -27 24q0 20 26 20q12 0 19 -7v-27zM982 673q-11 -10 -19 -10q-25 0 -25 24q0 21 24 21q9 0 20 -10v-25zM1500 66q-4 -2 -11 -6h-27q-7 11 -7 22q0 19 21 19q13 0 24 -10v-25zM375 1201q0 -10 -10 -20h-24q-2 4 -7 11q6 9 30 33q11 -11 11 -24zM1218 347
q-14 -6 -23 -6q-21 0 -21 20q0 21 21 21q12 0 23 -10v-25zM1359 207q-16 -7 -24 -7q-21 0 -21 21t21 21q12 0 24 -11v-24zM1640 -74q-4 -2 -10 -7h-27q-7 11 -7 22q0 19 20 19q13 0 24 -10v-24zM1544 18q-6 -6 -17 -6h-4q-23 0 -23 20q0 24 24 24q9 0 20 -10v-28zM937 628
q-14 -6 -23 -6q-21 0 -21 20q0 18 22 18q6 0 22 -7v-25zM1171 395q-11 -10 -21 -10q-24 0 -24 23q0 22 21 22q10 0 24 -13v-22zM1263 300q-7 -7 -19 -7q-25 0 -25 20q0 24 24 24q9 0 20 -10v-27zM1311 255q-11 -10 -21 -10q-23 0 -23 22t20 22q10 0 24 -13v-21zM1404 159
q-7 -7 -19 -7q-26 0 -26 21q0 24 24 24q10 0 21 -10v-28zM1452 114q-11 -10 -21 -10q-24 0 -24 23q0 22 21 22q10 0 24 -13v-22zM1592 -26q-11 -10 -20 -10q-24 0 -24 24q0 20 20 20q10 0 24 -13v-21zM1078 488q-16 -7 -24 -7q-21 0 -21 21q0 17 23 17q8 0 22 -6v-25z
M420 1143q-5 -10 -17 -10q-24 0 -24 24q0 20 22 20q12 0 19 -7v-27zM516 1050q-11 -10 -22 -10q-23 0 -23 24q0 18 23 18q6 0 22 -7v-25zM561 1002q-5 -10 -18 -10q-10 0 -24 13v22q11 10 23 10t19 -7v-28zM701 862q-5 -10 -17 -10q-10 0 -24 13v21q11 10 22 10q12 0 19 -7
v-27zM982 581q-7 -7 -19 -7q-14 0 -25 10v18q14 13 24 13q9 0 20 -10v-24zM1123 440q-7 -7 -19 -7q-15 0 -26 10v18q15 14 24 14q10 0 21 -10v-25zM656 910q-12 -11 -20 -11q-9 0 -24 14v21q16 7 22 7t22 -7v-24zM797 769q-11 -10 -21 -10q-24 0 -24 24q0 17 23 17
q8 0 22 -6v-25zM1030 536q-11 -10 -21 -10q-24 0 -24 22q0 19 24 19q10 0 21 -10v-21zM842 721q-5 -10 -18 -10t-27 13v18q16 14 26 14q12 0 19 -7v-28zM890 673q-11 -10 -20 -10q-25 0 -25 26q0 19 24 19q10 0 21 -10v-25zM468 1095q-11 -10 -19 -10q-26 0 -26 25
q0 19 24 19q10 0 21 -10v-24zM608 954q-11 -10 -19 -10q-25 0 -25 26q0 19 24 19q9 0 20 -10v-25zM749 814q-11 -10 -19 -10q-26 0 -26 25q0 19 24 19q10 0 21 -10v-24zM328 1155q0 -22 -19 -22h-4q-6 0 -16 4v14q10 9 27 30q12 -12 12 -26zM1171 303q-11 -10 -21 -10
q-24 0 -24 22t21 22q10 0 24 -13v-21zM1311 162q-11 -10 -21 -10q-23 0 -23 22q0 23 20 23q9 0 24 -14v-21zM1452 22q-11 -10 -21 -10q-24 0 -24 22t21 22q10 0 24 -13v-21zM1500 -26q-10 -10 -23 -10q-22 0 -22 22t21 22q10 0 24 -13v-21zM1592 -119q-26 -10 -22 -10
q-22 0 -22 22q0 23 20 23q9 0 24 -14v-21zM1078 395q-11 -10 -21 -10q-24 0 -24 23q0 22 21 22q10 0 24 -13v-22zM1218 255q-11 -10 -20 -10q-24 0 -24 22t21 22q9 0 23 -13v-21zM1359 114q-10 -10 -22 -10q-23 0 -23 23q0 22 21 22q10 0 24 -13v-22zM1123 347q-7 -6 -17 -6
h-7q-21 0 -21 10v18q14 13 24 13t21 -10v-25zM890 581q-7 -7 -20 -7q-14 0 -25 10v21q23 10 24 10q10 0 21 -10v-24zM1030 443q-11 -10 -21 -10q-13 0 -23 10v22q23 10 22 10q11 0 22 -10v-22zM1263 207q-6 -7 -20 -7q-24 0 -24 19q0 23 22 23q10 0 22 -11v-24zM375 1095
q-11 -10 -20 -10q-21 0 -21 24q0 20 19 20q11 0 22 -10v-24zM937 536q-11 -10 -20 -10q-24 0 -24 22q0 19 22 19q11 0 22 -10v-21zM1404 66q-6 -7 -21 -7q-24 0 -24 21t23 21q11 0 22 -10v-25zM1544 -74q-6 -7 -20 -7q-24 0 -24 21q0 20 22 20q11 0 22 -10v-24zM420 1047
q-7 -7 -17 -7h-5q-19 0 -19 24q0 18 22 18q12 0 19 -7v-28zM468 1002q-11 -10 -19 -10q4 0 -25 13v22l23 10q10 0 21 -10v-25zM749 721q-11 -10 -19 -10q4 0 -25 13v22l23 10q10 0 21 -10v-25zM842 629q-7 -7 -21 -7q-24 0 -24 10v18q10 10 26 10q12 0 19 -7v-24zM516 954
q-11 -10 -21 -10q-24 0 -24 26q0 19 23 19q11 0 22 -10v-25zM561 906q-8 -7 -18 -7q-24 0 -24 24q0 18 23 18q12 0 19 -7v-28zM608 862q-11 -10 -19 -10q4 0 -25 13v21q23 10 24 10q9 0 20 -10v-24zM656 814q-11 -10 -20 -10q-24 0 -24 25q0 19 22 19q11 0 22 -10v-24z
M797 673q-11 -10 -21 -10q-24 0 -24 26q0 19 23 19q11 0 22 -10v-25zM982 488l-2 -2q-7 -5 -18 -5q-24 0 -24 11v17q11 10 25 10q12 0 19 -7v-24zM701 766q-8 -7 -17 -7q-24 0 -24 24q0 17 20 17h6q9 0 15 -6v-28zM1500 -119q-10 -10 -23 -10q-22 0 -22 22q0 23 21 23
q9 0 24 -14v-21zM1078 303q-10 -10 -22 -10q-23 0 -23 22t21 22q10 0 24 -13v-21zM1218 162q-10 -10 -22 -10q-22 0 -22 22q0 23 21 23q8 0 23 -14v-21zM1359 22q-10 -10 -22 -10q-23 0 -23 22t21 22q10 0 24 -13v-21zM1030 347q-12 -6 -22 -6q-17 0 -22 10v21q23 10 22 10
q11 0 22 -10v-25zM1171 207q-16 -7 -23 -7q-17 0 -22 10v21q11 11 21 11q12 0 24 -11v-24zM375 1002q-11 -10 -20 -10q-21 0 -21 24q0 21 19 21q11 0 22 -10v-25zM797 584q-10 -10 -22 -10t-23 10v21q10 10 23 10q11 0 22 -10v-21zM937 443q-11 -10 -22 -10t-22 10v22
q10 10 21 10q12 0 23 -10v-22zM1311 66q-16 -7 -22 -7q-22 0 -22 23q0 19 20 19q13 0 24 -10v-25zM1452 -74q-16 -7 -23 -7q-22 0 -22 22q0 19 21 19q13 0 24 -10v-24zM749 629q-7 -7 -21 -7q-10 0 -23 10v21q16 7 25 7q12 0 19 -7v-24zM327 1050q-11 -10 -20 -10
q-16 0 -21 10v25q16 7 22 7q12 0 19 -7v-25zM516 862q-11 -10 -21 -10q-3 0 -24 13v21q10 10 23 10q11 0 22 -10v-24zM656 721q-11 -10 -20 -10q-3 0 -24 13v22q10 10 22 10q11 0 22 -10v-25zM890 488q-7 -7 -21 -7q-24 0 -24 11v21q14 6 25 6q12 0 20 -7v-24zM982 392
q-7 -7 -19 -7q-25 0 -25 21q0 24 24 24q9 0 20 -10v-28zM1123 252q-7 -7 -19 -7q-26 0 -26 20q0 24 24 24q10 0 21 -10v-27zM1263 111q-7 -7 -19 -7q-25 0 -25 23q0 22 22 22q11 0 22 -10v-28zM1404 -29q-7 -7 -19 -7q-26 0 -26 24q0 20 23 20q11 0 22 -10v-27zM1544 -158
q-11 -4 -26 -19q-18 10 -18 24q0 21 22 21q12 0 22 -10v-16zM278 1105q0 -11 -3 -20l-30 4q9 9 30 37q3 -10 3 -21zM420 955q-6 -11 -17 -11q-24 0 -24 26q0 19 22 19q12 0 19 -7v-27zM468 910q-12 -11 -19 -11q-10 0 -25 14v21q16 7 25 7q12 0 19 -7v-24zM561 814
q-5 -10 -18 -10q-24 0 -24 25q0 19 23 19q12 0 19 -7v-27zM701 673q-5 -10 -17 -10q-24 0 -24 26q0 19 22 19q12 0 19 -7v-28zM842 533q-7 -7 -19 -7q-26 0 -26 21q0 20 26 20q12 0 19 -7v-27zM608 769q-11 -10 -19 -10q-11 0 -25 13v22q14 6 23 6h7q8 0 14 -6v-25z
M234 1072q1 -12 -10 -31h-11q7 10 21 31zM1496 -188q-2 -6 -36 -27l-5 4v21q10 10 21 10q4 0 20 -8zM937 347q-14 -6 -23 -6q-21 0 -21 20q0 21 21 21q12 0 23 -10v-25zM1078 207q-16 -7 -24 -7q-21 0 -21 21t21 21q12 0 24 -11v-24zM1218 66q-4 -2 -10 -6h-27q-7 11 -7 22
q0 19 21 19q12 0 23 -10v-25zM1359 -74q-4 -2 -10 -7h-27q-8 13 -8 22q0 19 21 19q13 0 24 -10v-24zM1263 18q-6 -6 -17 -6h-4q-23 0 -23 20q0 24 24 24q9 0 20 -10v-28zM656 629q-7 -7 -20 -7q-11 0 -24 10v21q16 7 22 7t22 -7v-24zM701 581q-7 -7 -19 -7q-11 0 -22 10v21
q10 10 22 10t19 -7v-27zM890 406q0 -21 -21 -21q-24 0 -24 23q0 22 24 22q21 0 21 -24zM982 300q-7 -7 -19 -7q-25 0 -25 20q0 24 24 24q9 0 20 -10v-27zM1123 159q-7 -7 -19 -7q-26 0 -26 21q0 24 24 24q10 0 21 -10v-28zM1171 114q-11 -10 -21 -10q-24 0 -24 23
q0 22 21 22q10 0 24 -13v-22zM1311 -26q-11 -10 -21 -10q-23 0 -23 24q0 20 20 20q10 0 24 -13v-21zM1404 -119q-11 -10 -21 -10q-24 0 -24 21q0 24 24 24q10 0 21 -10v-25zM1452 -167q-11 -10 -21 -10q-24 0 -24 24q0 21 21 21q9 0 24 -14v-21zM797 488q-7 -7 -20 -7h-5
q-20 0 -20 21q0 17 23 17q8 0 22 -6v-25zM375 910q-12 -11 -20 -11q-21 0 -21 24q0 18 19 18q6 0 22 -7v-24zM1030 255q-11 -10 -21 -10q-24 0 -24 22t23 22q8 0 22 -13v-21zM280 1002q-5 -10 -18 -10q-10 0 -24 13v22q11 10 22 10q12 0 20 -7v-28zM420 862q-5 -10 -17 -10
q-10 0 -24 13v21q11 10 22 10q12 0 19 -7v-27zM561 721q-5 -10 -18 -10q-10 0 -24 13v22q11 10 23 10t19 -7v-28zM749 536q-11 -10 -21 -10q-9 0 -23 13v18l23 10q10 0 21 -10v-21zM842 440q-7 -7 -19 -7q-15 0 -26 10v18q15 14 26 14q12 0 19 -7v-28zM327 954
q-11 -10 -19 -10q-22 0 -22 26q0 19 21 19q9 0 20 -10v-25zM516 769q-11 -10 -21 -10t-24 13v22q14 6 23 6q8 0 22 -6v-25zM468 814q-11 -10 -19 -10q-26 0 -26 25q0 19 24 19q10 0 21 -10v-24zM608 673q-11 -10 -19 -10q-25 0 -25 26q0 19 24 19q9 0 20 -10v-25zM1436 -226
q-17 -10 -25 -18q0 9 10 18h15zM1171 22q-11 -10 -21 -10q-24 0 -24 22t21 22q10 0 24 -13v-21zM1311 -119q-11 -10 -21 -10q-23 0 -23 22q0 23 20 23q9 0 24 -14v-21zM890 312q0 -19 -14 -19q-31 0 -31 22t24 22q21 0 21 -25zM797 406q0 -21 -21 -21q-24 0 -24 23
q0 22 23 22q22 0 22 -24zM937 255q-11 -10 -20 -10q-24 0 -24 22t21 22q9 0 23 -13v-21zM1030 162q-11 -10 -21 -10q-24 0 -24 22q0 23 23 23q7 0 22 -14v-21zM1078 114q-11 -10 -21 -10q-24 0 -24 23q0 22 21 22q10 0 24 -13v-22zM1218 -26q-11 -10 -20 -10q-24 0 -24 22
t21 22q9 0 23 -13v-21zM1359 -167q-10 -10 -22 -10q-23 0 -23 22q0 23 21 23q9 0 24 -14v-21zM842 347q-6 -6 -17 -6h-7q-21 0 -21 10v18q15 13 26 13q12 0 19 -7v-28zM561 629q-7 -7 -21 -7q-21 0 -21 20q0 18 23 18q12 0 19 -7v-24zM749 440q-7 -7 -19 -7q-2 0 -25 10v22
l23 10q10 0 21 -10v-25zM982 207q-9 -7 -20 -7q-24 0 -24 11v17q15 14 24 14q8 0 20 -11v-24zM235 954q-11 -10 -21 -10q-21 0 -21 26q0 19 21 19q10 0 21 -10v-25zM327 862q-11 -10 -19 -10t-22 13v21q10 10 21 10q9 0 20 -10v-24zM375 814q-11 -10 -20 -10q-21 0 -21 25
q0 19 19 19q11 0 22 -10v-24zM608 581q-7 -7 -19 -7q-2 0 -25 10v21q23 10 24 10q9 0 20 -10v-24zM656 536q-11 -10 -20 -10q-10 0 -24 13v18q10 10 22 10q11 0 22 -10v-21zM701 488q-7 -7 -21 -7q-20 0 -20 21q0 17 22 17q12 0 19 -7v-24zM1123 66l-1 -1q-8 -6 -20 -6
q-24 0 -24 21t24 21q10 0 21 -10v-25zM1263 -74q-6 -7 -20 -7q-24 0 -24 21q0 20 22 20q11 0 22 -10v-24zM1404 -215q-6 -7 -21 -7q-24 0 -24 21t23 21q11 0 22 -10v-25zM468 721q-11 -10 -19 -10q4 0 -25 13v22l23 10q10 0 21 -10v-25zM516 673q-11 -10 -21 -10
q-24 0 -24 26q0 19 23 19q11 0 22 -10v-25zM420 766q-8 -7 -17 -7q-24 0 -24 24q0 17 20 17h6q9 0 15 -6v-28zM279 906q-8 -7 -17 -7q-24 0 -24 24q0 18 22 18q12 0 19 -7v-28zM797 313q0 -20 -22 -20q-23 0 -23 22t23 22q22 0 22 -24zM937 162q-10 -10 -22 -10
q-22 0 -22 22q0 23 21 23q8 0 23 -14v-21zM1078 22q-10 -10 -22 -10q-23 0 -23 22t21 22q10 0 24 -13v-21zM1218 -119q-10 -10 -22 -10q-22 0 -22 22q0 23 21 23q8 0 23 -14v-21zM1359 -259q-11 -11 -22 -11q-23 0 -23 23q0 22 21 22q10 0 24 -13v-21zM749 347q-7 -6 -21 -6
q-10 0 -23 10v21l23 10q10 0 21 -10v-25zM890 207l-1 -1q-8 -6 -20 -6q-24 0 -24 11v21q23 10 24 10q9 0 21 -11v-24zM187 922q0 -23 -20 -23h-3q-6 0 -15 5q3 17 10 37h21q7 -7 7 -19zM235 862q-11 -10 -21 -10q-21 0 -21 24q0 20 21 20q10 0 21 -10v-24zM375 721
q-11 -10 -20 -10q-21 0 -21 24q0 21 19 21q11 0 22 -10v-25zM516 584q-11 -10 -21 -10q-1 0 -24 10v21q10 10 23 10q11 0 22 -10v-21zM656 443q-11 -10 -20 -10q-1 0 -24 10v22q10 10 22 10q11 0 22 -10v-22zM1171 -74q-16 -7 -23 -7q-22 0 -22 22q0 19 21 19q13 0 24 -10
v-24zM1311 -212q-11 -10 -22 -10q-22 0 -22 23q0 19 20 19q13 0 24 -10v-22zM701 411v-9q0 -17 -17 -17q-24 0 -24 23q0 22 22 22q19 0 19 -19zM1030 66q-14 -7 -22 -7q-23 0 -23 23q0 19 23 19q11 0 22 -10v-25zM468 629q-7 -7 -21 -7q-10 0 -23 10v21q16 7 25 7
q12 0 19 -7v-24zM561 533q-8 -7 -18 -7q-24 0 -24 22q0 19 23 19q12 0 19 -7v-27zM982 111q-7 -7 -19 -7q-25 0 -25 21q0 24 24 24q9 0 20 -10v-28zM1123 -29q-7 -7 -19 -7q-26 0 -26 22t24 22q10 0 21 -10v-27zM1263 -167q-11 -10 -20 -10q-24 0 -24 24q0 21 22 21
q11 0 22 -10v-25zM842 268v-6q0 -17 -19 -17q-26 0 -26 20q0 24 26 24q19 0 19 -21zM608 488l-2 -2q-7 -5 -18 -5q-12 0 -24 10v22q14 6 25 6q12 0 19 -7v-24zM327 769q-11 -10 -19 -10q-22 0 -22 24q0 17 20 17h6q9 0 15 -6v-25zM280 814q-5 -10 -18 -10q-24 0 -24 25
q0 19 22 19q12 0 20 -7v-27zM420 673q-5 -10 -17 -10q-24 0 -24 26q0 19 22 19q12 0 19 -7v-28zM142 858q-6 0 -12 -6q0 13 7 35q5 -10 5 -29zM1311 -280q-2 -6 -44 -18v15q10 10 22 10q8 0 22 -7zM1219 -201q0 -9 -11 -20h-27q-7 17 -7 22q0 19 21 19q24 0 24 -21zM797 207
q-7 -7 -20 -7h-5q-20 0 -20 21t23 21q10 0 22 -11v-24zM375 629q-7 -7 -18 -7h-4q-19 0 -19 20q0 18 19 18q6 0 22 -7v-24zM656 347q-6 -6 -20 -6q-11 0 -24 10v21q10 10 22 10q11 0 22 -10v-25zM937 66q-4 -2 -10 -6h-27q-7 11 -7 22q0 19 21 19q12 0 23 -10v-25zM701 318
v-9q0 -16 -19 -16q-22 0 -22 22t22 22q19 0 19 -19zM1078 -74q-4 -2 -10 -7h-27q-8 13 -8 22q0 19 21 19q13 0 24 -10v-24zM982 18q-6 -6 -17 -6h-4q-23 0 -23 20q0 24 24 24q9 0 20 -10v-28zM420 581q-7 -7 -19 -7q-11 0 -22 10v21q10 10 22 10t19 -7v-27zM561 440
q-7 -7 -19 -7t-23 10v22q10 10 23 10q12 0 19 -7v-28zM609 406q0 -21 -21 -21q-9 0 -24 14v18q14 13 24 13q21 0 21 -24zM749 265q0 -20 -21 -20q-9 0 -23 13v18q14 13 23 13q21 0 21 -24zM842 173q0 -21 -19 -21q-26 0 -26 21q0 24 26 24q19 0 19 -24zM890 125
q0 -21 -21 -21q-24 0 -24 23q0 22 24 22q21 0 21 -24zM1123 -119q-11 -10 -21 -10q-24 0 -24 21q0 24 24 24q10 0 21 -10v-25zM1171 -167q-11 -10 -21 -10q-24 0 -24 24q0 21 21 21q9 0 24 -14v-21zM235 769q-11 -10 -21 -10q-21 0 -21 24q0 17 21 17q7 0 21 -6v-25z
M516 488q-7 -7 -21 -7q-12 0 -24 10v22q14 6 23 6q8 0 22 -6v-25zM1030 -26q-11 -10 -21 -10q-24 0 -24 24q0 20 23 20q8 0 22 -13v-21zM1263 -259q-12 -11 -20 -11q-24 0 -24 21q0 24 24 24q9 0 20 -10v-24zM280 721q-5 -10 -18 -10q-10 0 -24 13v22q11 10 22 10
q12 0 20 -7v-28zM468 536q-11 -10 -21 -10q-9 0 -23 13v18l23 10q10 0 21 -10v-21zM187 814q-11 -10 -19 -10q-23 0 -23 25q0 19 21 19q10 0 21 -10v-24zM327 673q-11 -10 -19 -10q-22 0 -22 26q0 19 21 19q9 0 20 -10v-25zM142 769q-11 -10 -21 -10q-9 0 -17 4q4 24 4 37
h24q4 -2 10 -6v-25zM561 347q-6 -6 -17 -6h-6q-19 0 -19 20q0 21 23 21q12 0 19 -7v-28zM701 207q-7 -7 -19 -7h-4q-18 0 -18 21t22 21q12 0 19 -7v-28zM749 171q0 -19 -16 -19q-15 0 -28 13v19q14 13 23 13q21 0 21 -26zM609 312q0 -19 -14 -19q-18 0 -31 13v18
q14 13 24 13q21 0 21 -25zM890 31q0 -19 -14 -19q-31 0 -31 22t24 22q21 0 21 -25zM327 581q-7 -7 -19 -7q-11 0 -22 10v21q10 10 21 10q9 0 20 -10v-24zM375 536q-11 -10 -20 -10q-21 0 -21 22q0 19 19 19q11 0 22 -10v-21zM516 406q0 -21 -21 -21q-24 0 -24 23q0 22 23 22
q22 0 22 -24zM656 265q0 -20 -20 -20q-24 0 -24 22t22 22t22 -24zM797 125q0 -21 -21 -21q-24 0 -24 23q0 22 23 22q22 0 22 -24zM937 -26q-11 -10 -20 -10q-24 0 -24 22t21 22q9 0 23 -13v-21zM1030 -119q-11 -10 -21 -10q-24 0 -24 22q0 23 23 23q7 0 22 -14v-21z
M1078 -167q-11 -10 -21 -10q-24 0 -24 22q0 23 21 23q9 0 24 -14v-21zM1171 -259q-12 -11 -21 -11q-24 0 -24 23q0 22 21 22q10 0 24 -13v-21zM1218 -307q-11 -10 -20 -10q-24 0 -24 24q0 20 21 20q12 0 23 -10v-24zM187 721q-11 -10 -19 -10t-22 13v22q10 10 20 10t21 -10
v-25zM468 440q-7 -7 -19 -7q-2 0 -25 10v22l23 10q10 0 21 -10v-25zM235 673q-11 -10 -21 -10q-21 0 -21 26q0 19 21 19q10 0 21 -10v-25zM279 629l-2 -2q-7 -5 -18 -5q-21 0 -21 20q0 18 22 18q12 0 19 -7v-24zM420 488q-7 -7 -21 -7q-20 0 -20 21q0 17 22 17q12 0 19 -7
v-24zM842 66q-7 -7 -21 -7q-24 0 -24 21t26 21q12 0 19 -7v-28zM982 -74q-9 -7 -20 -7q-24 0 -24 21q0 20 24 20q9 0 20 -10v-24zM1123 -215l-1 -1q-8 -6 -20 -6q-24 0 -24 21t24 21q10 0 21 -10v-25zM1164 -326q1 0 -34 -7q0 6 13 12zM235 584q-11 -10 -21 -10t-21 10v21
q10 10 21 10q10 0 21 -10v-21zM375 443q-11 -10 -20 -10q-10 0 -21 10v21q5 11 19 11q11 0 22 -10v-22zM516 313q0 -20 -21 -20q-24 0 -24 22t23 22q22 0 22 -24zM656 173q0 -21 -20 -21q-24 0 -24 22q0 23 22 23t22 -24zM797 32q0 -20 -22 -20q-23 0 -23 22t23 22
q22 0 22 -24zM937 -119q-10 -10 -22 -10q-22 0 -22 22q0 23 21 23q8 0 23 -14v-21zM1078 -259q-11 -11 -22 -11q-23 0 -23 23q0 22 21 22q10 0 24 -13v-21zM468 347q-7 -6 -21 -6q-10 0 -23 10v21l23 10q10 0 21 -10v-25zM420 411v-5q0 -21 -17 -21q-24 0 -24 23q0 22 22 22
q19 0 19 -19zM187 629q-7 -7 -21 -7q-21 0 -21 20q0 18 23 18q12 0 19 -7v-24zM561 265q0 -20 -18 -20q-24 0 -24 22t23 22q19 0 19 -17v-7zM608 207q-9 -7 -20 -7t-24 10v22q23 10 24 10q8 0 20 -11v-24zM890 -74l-1 -1q-8 -6 -20 -6q-24 0 -24 22q0 19 24 19q10 0 21 -10
v-24zM701 130v-9q0 -11 -3.5 -14t-13.5 -3q-24 0 -24 23q0 22 22 22q19 0 19 -19zM327 488l-2 -2q-7 -5 -18 -5q-21 0 -21 21q0 17 22 17q12 0 19 -7v-24zM749 66l-1 -1q-8 -6 -20 -6q-24 0 -24 23q0 19 24 19q10 0 21 -10v-25zM1030 -212q-11 -10 -22 -10q-23 0 -23 23
q0 19 23 19q11 0 22 -10v-22zM842 -11v-5q0 -20 -19 -20q-26 0 -26 22t26 22q19 0 19 -19zM142 673q-11 -10 -21 -10q-23 0 -23 26q0 19 22 19q11 0 22 -10v-25zM982 -167q-11 -10 -20 -10q-24 0 -24 22q0 23 24 23q9 0 20 -10v-25zM1123 -307q-11 -10 -21 -10q-24 0 -24 24
q0 20 24 20q10 0 21 -10v-24zM279 533q-8 -7 -17 -7q-24 0 -24 22q0 19 22 19q12 0 19 -7v-27zM97 629q-7 -7 -12 -7v34l12 -3v-24zM1078 -339h-44v11q14 7 22 7t22 -7v-11zM375 347q-6 -6 -18 -6h-4q-19 0 -19 20q0 21 19 21q11 0 22 -10v-25zM938 -201q0 -9 -11 -20h-27
q-7 17 -7 22q0 19 21 19q24 0 24 -21zM142 584q-10 -10 -22 -10q-11 0 -22 10v21q10 10 22 10q11 0 22 -10v-21zM328 406q0 -21 -21 -21t-21 23q0 22 21 22t21 -24zM516 207q-6 -7 -21 -7q-11 0 -24 10v21q11 11 23 11q10 0 22 -11v-24zM561 173q0 -21 -19 -21q-23 0 -23 22
q0 23 23 23q19 0 19 -17v-7zM420 315v-5q0 -17 -19 -17q-22 0 -22 22t22 22q19 0 19 -22zM701 37v-9q0 -16 -19 -16q-22 0 -22 22t22 22q19 0 19 -19zM235 488q-7 -7 -21 -7q-21 0 -21 21q0 17 21 17q7 0 21 -6v-25zM656 66q-6 -7 -20 -7q-24 0 -24 23q0 19 22 19
q11 0 22 -10v-25zM797 -62q0 -12 -7 -19h-31q-7 17 -7 22q0 19 23 19q22 0 22 -22zM609 125q0 -21 -21 -21q-9 0 -24 14v18q14 13 24 13q21 0 21 -24zM842 -107q0 -22 -19 -22q-26 0 -26 21q0 24 26 24q19 0 19 -23zM890 -156q0 -21 -21 -21q-24 0 -24 24q0 21 24 21
q21 0 21 -24zM187 536q-11 -10 -21 -10q-21 0 -21 22q0 19 21 19q10 0 21 -10v-21zM279 440q-7 -7 -19 -7q-11 0 -22 10v22q10 10 22 10t19 -7v-28zM468 265q0 -20 -21 -20q-10 0 -24 13v18q14 13 24 13q21 0 21 -24zM749 -16q0 -20 -21 -20q-24 0 -24 24q0 20 24 20
q21 0 21 -24zM982 -259q-12 -11 -20 -11q-24 0 -24 21q0 24 24 24q9 0 20 -10v-24zM1030 -307q-11 -10 -21 -10q-24 0 -24 25q0 19 23 19q11 0 22 -10v-24zM97 533q-5 -2 -15 -4v41l15 -13v-24zM982 -339h-41q8 18 22 18q5 0 19 -7v-11zM328 312q0 -19 -17 -19q-25 0 -25 22
t21 22t21 -25zM235 406q0 -21 -21 -21t-21 23q0 22 21 22t21 -24zM375 265q0 -20 -20 -20q-21 0 -21 22q0 8 7 22h24q10 -10 10 -24zM420 207q-7 -7 -19 -7h-4q-18 0 -18 21t22 21q12 0 19 -7v-28zM187 440q-7 -7 -19 -7q-11 0 -22 10v22q10 10 20 10t21 -10v-25zM749 -108
q0 -21 -21 -21q-9 0 -23 13v18q15 14 23 14q21 0 21 -24zM609 31q0 -19 -14 -19q-18 0 -31 13v18q14 13 24 13q21 0 21 -25zM279 347q-6 -6 -16 -6h-6q-19 0 -19 20q0 21 22 21q12 0 19 -7v-28zM561 66q-7 -7 -19 -7h-4q-19 0 -19 21t23 21q12 0 19 -7v-28zM142 488
q-7 -7 -20 -7h-4q-20 0 -20 21q0 17 22 17q8 0 22 -6v-25zM701 -74q-8 -7 -19 -7h-4q-18 0 -18 21q0 20 22 20q12 0 19 -7v-27zM516 125q0 -21 -21 -21q-24 0 -24 23q0 22 23 22q22 0 22 -24zM656 -16q0 -20 -20 -20q-24 0 -24 24q0 20 22 20t22 -24zM797 -156
q0 -21 -21 -21q-24 0 -24 22q0 23 23 23q22 0 22 -24zM890 -249q0 -21 -21 -21q-24 0 -24 23q0 22 24 22q21 0 21 -24zM937 -307q-11 -10 -20 -10q-24 0 -24 24q0 20 21 20q12 0 23 -10v-24zM468 171q0 -19 -13 -19q-19 0 -32 13v19q14 13 24 13q21 0 21 -26zM842 -215
q-7 -7 -21 -7q-24 0 -24 21t26 21q12 0 19 -7v-28zM890 -329q-7 -4 -16 -4q-5 0 -13.5 2t-12.5 2q16 8 22 8q4 0 20 -8zM235 313q0 -20 -21 -20t-21 22t21 22t21 -24zM375 173q0 -21 -20 -21q-21 0 -21 22q0 23 21 23q20 0 20 -24zM187 347q-7 -6 -17 -6h-6q-19 0 -19 20
q0 21 21 21q10 0 21 -10v-25zM327 207q-8 -7 -18 -7h-4q-19 0 -19 21t21 21q8 0 20 -11v-24zM142 406q0 -21 -21 -21q-23 0 -23 23q0 22 22 22t22 -24zM516 32q0 -20 -21 -20q-24 0 -24 22t23 22q22 0 22 -24zM656 -108q0 -21 -20 -21q-24 0 -24 22q0 23 22 23t22 -24z
M797 -249q0 -21 -22 -21q-23 0 -23 23q0 22 23 22q22 0 22 -24zM280 265q0 -20 -18 -20q-24 0 -24 22t22 22q20 0 20 -24zM561 -16q0 -20 -18 -20q-24 0 -24 22t23 22q19 0 19 -17v-7zM701 -155q0 -22 -17 -22q-24 0 -24 22q0 23 22 23q19 0 19 -23zM420 127v-6
q0 -10 -3.5 -13.5t-13.5 -3.5q-24 0 -24 23q0 22 22 22q19 0 19 -22zM468 66l-1 -1q-8 -6 -20 -6q-24 0 -24 23q0 19 24 19q10 0 21 -10v-25zM608 -74q-9 -7 -20 -7q-24 0 -24 22q0 19 24 19q9 0 20 -10v-24zM749 -215l-1 -1q-8 -6 -20 -6q-24 0 -24 23q0 19 24 19
q10 0 21 -10v-25zM842 -307q-11 -10 -19 -10q-24 0 -26 31q14 13 26 13t19 -7v-27zM142 313q0 -9 -11 -20q-5 5 -20 44h21q10 -10 10 -24zM749 -308q-15 5 -44 14v11q19 10 23 10q11 0 21 -10v-25zM235 207q-8 -7 -19 -7h-4q-19 0 -19 21t21 21q9 0 21 -11v-24zM375 66
q-6 -7 -20 -7q-21 0 -21 21t19 21q11 0 22 -10v-25zM420 37v-5q0 -20 -19 -20q-22 0 -22 22t22 22q19 0 19 -19zM280 173q0 -12 -3.5 -16.5t-16.5 -4.5q-22 0 -22 22q0 23 22 23q20 0 20 -24zM328 125q0 -21 -21 -21t-21 23q0 22 21 22t21 -24zM561 -107q0 -22 -19 -22
q-23 0 -23 22q0 23 23 23q19 0 19 -23zM187 265q0 -20 -21 -20t-21 22t21 22t21 -24zM516 -74q-6 -7 -21 -7q-24 0 -24 22q0 19 23 19q11 0 22 -10v-24zM656 -215q-6 -7 -20 -7q-24 0 -24 23q0 19 22 19q11 0 22 -10v-25zM701 -247q0 -23 -19 -23q-22 0 -22 23q0 22 22 22
q19 0 19 -22zM609 -156q0 -21 -21 -21q-24 0 -24 24q0 21 24 21q21 0 21 -24zM468 -16q0 -20 -21 -20q-24 0 -24 24q0 20 24 20q21 0 21 -24zM187 171q0 -11 -7 -16q-13 21 -18 41h14q11 -11 11 -25zM608 -257q-13 7 -41 17q9 15 22 15t19 -14v-18zM328 31q0 -19 -17 -19
q-25 0 -25 22t21 22t21 -25zM375 -16q0 -20 -20 -20q-21 0 -21 22q0 8 7 22h24q10 -10 10 -24zM420 -74q-8 -7 -19 -7h-4q-18 0 -18 21q0 20 22 20q12 0 19 -7v-27zM235 125q0 -21 -19 -21q-6 0 -16 10.5t-10 16.5q0 18 24 18q21 0 21 -24zM468 -108q0 -21 -21 -21
q-10 0 -24 13v18q15 14 24 14q21 0 21 -24zM516 -156q0 -21 -21 -21q-24 0 -24 24q0 21 23 21q22 0 22 -24zM561 -215q-7 -7 -19 -7q-23 0 -23 23q0 19 23 19q12 0 19 -7v-28zM279 66q-7 -7 -18 -7h-4q-19 0 -19 21t22 21q12 0 19 -7v-28zM376 -98l-3 -3l-14 14l3 4z
M328 -53l-3 -3l-14 14l3 3z" />
  </g>

</svg>
