<?xml version="1.0" standalone="no"?>
<!DOCTYPE svg PUBLIC "-//W3C//DTD SVG 1.1//EN" "http://www.w3.org/Graphics/SVG/1.1/DTD/svg11.dtd" >
<svg viewBox="0 -442 2048 2048">
  <g transform="matrix(1 0 0 -1 0 1606)">
   <path fill="currentColor"
d="M1394 507q0 -95 -49 -178q-46 -78 -336 -436q-62 -78 -192 -226q-26 -27 -96 -27q-24 0 -55 21q-19 13 -182 218q-103 126 -306 380q-96 122 -96 249v811q0 23 17 64q53 128 207 128q33 0 82 -27q36 -20 87 -88q89 -119 261 -342q65 79 204 263q83 110 100 127
q67 67 140 67q69 0 124.5 -39.5t77.5 -104.5q12 -35 12 -48v-812zM1283 548v52q-31 2 -31 33q0 34 31 28v54h-4q-27 0 -27 29q0 32 31 28v54q-4 -1 -8 -1q-23 0 -23 31q0 19 11 23.5t20 7.5v49q-31 2 -31 31q0 21 15.5 26.5l15.5 5.5v48q-31 2 -31 31q0 26 31 31v49
q-31 5 -31 33q0 34 31 28v54h-5q-26 -1 -26 27q0 24 25 31q-13 25 -25 37q2 -7 2 -13q0 -28 -29 -28q-31 0 -31 32q0 10 9.5 21.5t19.5 8.5q-10 4 -31 11q-2 -16 -23 -16q-4 0 -10 3t-10 3q-5 0 -15 -11q10 -11 10 -24q0 -28 -30 -28q-5 0 -23 9q-5 -7 -11 -18q7 -10 7 -20
q0 -26 -33 -26q-19 0 -23 -10l-2 -24q-1 -13 -14 -19q-17 -8 -19 -10q-35 -40 -118 -161q3 3 14 3q27 0 27 -28q0 -29 -27 -29q-32 0 -31 35q-20 -20 -24 -35q3 1 5 1q23 0 23 -28q0 -30 -29 -30q-11 0 -30 13q-7 -15 -7 -20v-2q9 -10 9 -20q0 -22 -35 -29q-3 -10 -6 -52
q2 0 7 1t8 1q26 0 26 -30t-29 -30q-9 0 -12 3v-56q2 0 7 1t7 1q27 0 27 -30t-29 -30q-9 0 -12 3v-57h26q15 -12 15 -28q0 -32 -29 -32q-9 0 -12 3v-57q41 0 41 -27q0 -32 -29 -32q-6 0 -12 2v-57q2 0 7 1.5t8 1.5q26 0 26 -28q0 -34 -41 -29v-57q2 0 6.5 1.5t7.5 1.5
q27 0 27 -30t-29 -30q-3 0 -6.5 1.5t-5.5 1.5v-60q6 6 14 6q27 0 27 -30t-29 -30q-9 0 -12 3v-57h26q15 -11 15 -27q0 -30 -27 -30q-11 0 -14 3v-57q41 0 41 -27q0 -32 -29 -32q-6 0 -12 2v-57q2 0 5.5 1.5t6.5 1.5t8 -3t8 -3q-1 0 16 14q-7 8 -7 19q0 30 29 30q3 0 4 -1.5
t4 -1.5q13 0 16.5 26t35.5 32q59 75 178 223q-3 0 -8 -1t-8 -1q-25 0 -25 28q0 29 28 29q39 0 30 -32q9 11 21 28q-25 6 -25 33q0 28 30 28q15 0 32 -22q4 8 14 17q-19 11 -19 32q0 27 27 27q14 0 25 -13q4 6 14 18q-13 13 -13 24q0 28 29 28q11 0 21 -6q4 6 8 20q-1 4 -1 8
q0 22 24 32q5 12 5 53q-28 2 -28 33q0 27 31 29zM709 -191v1038q0 66 -132 235q-70 90 -152 200q-52 71 -56 75q-40 43 -78 43t-68 -28t-30 -66v-779q0 -96 36 -147q20 -29 144 -185q59 -75 306 -382q22 -4 30 -4zM1198 1302q0 -29 -27 -29q-30 0 -30 29q0 28 28 28
q29 0 29 -28zM1255 1246q0 -30 -29 -30q-32 0 -32 30t31 30q30 0 30 -30zM1144 1246q0 -30 -30 -30t-30 32q0 28 30 28t30 -30zM1198 1191q0 -32 -27 -32q-30 0 -30 32q0 28 30 28q27 0 27 -28zM1255 1135q0 -30 -29 -30q-32 0 -32 30q0 27 31 27q30 0 30 -27zM1087 1191
q0 -32 -29 -32q-28 0 -28 32q0 28 28 28q29 0 29 -28zM1144 1135q0 -30 -29 -30q-31 0 -31 28q0 29 30 29t30 -27zM1198 1078q0 -30 -27 -30q-30 0 -30 30t30 30q27 0 27 -30zM1255 1023q0 -29 -30 -29q-31 0 -31 29q0 28 32 28q29 0 29 -28zM1087 1078q0 -30 -27 -30
q-30 0 -30 32q0 28 30 28q27 0 27 -30zM1144 1024q0 -30 -30 -30t-30 29q0 28 31 28q29 0 29 -27zM1198 967q0 -30 -27 -30q-30 0 -30 30t30 30q27 0 27 -30zM1030 1133q0 -28 -29 -28q-28 0 -28 30q0 27 30 27q27 0 27 -29zM1255 912q0 -32 -29 -32q-32 0 -32 32
q0 28 31 28q30 0 30 -28zM1087 967q0 -30 -29 -30q-28 0 -28 30t30 30q27 0 27 -30zM976 1080q0 -32 -30 -32t-30 32q0 28 30 28t30 -28zM1030 1023q0 -29 -27 -29q-30 0 -30 29q0 28 28 28q29 0 29 -28zM1144 912q0 -32 -29 -32q-31 0 -31 32q0 28 30 28t30 -28zM1198 856
q0 -30 -29 -30q-28 0 -28 30q0 27 30 27q27 0 27 -27zM1255 801q0 -32 -30 -32q-31 0 -31 32q0 28 31 28q30 0 30 -28zM976 967q0 -30 -29 -30q-31 0 -31 30t30 30t30 -30zM1087 856q0 -30 -29 -30q-28 0 -28 29q0 28 28 28q29 0 29 -27zM1144 799q0 -30 -30 -30t-30 32
q0 28 30 28t30 -30zM1198 744q0 -29 -27 -29q-30 0 -30 29q0 28 28 28q29 0 29 -28zM1255 688q0 -30 -29 -30q-32 0 -32 30t31 30q30 0 30 -30zM1030 912q0 -32 -27 -32q-30 0 -30 32q0 28 30 28q27 0 27 -28zM1087 745q0 -30 -29 -30h-7q-10 0 -21 13v31q14 13 28 13
q29 0 29 -27zM1144 688q0 -30 -30 -30t-30 32q0 28 30 28t30 -30zM919 912q0 -32 -27 -32q-30 0 -30 32q0 28 30 28q27 0 27 -28zM976 856q0 -30 -29 -30q-31 0 -31 30q0 27 30 27t30 -27zM1030 801q0 -32 -27 -32q-30 0 -30 30t30 30q27 0 27 -28zM1198 633q0 -32 -27 -32
q-30 0 -30 32q0 28 30 28q27 0 27 -28zM1255 576q0 -32 -30 -32q-31 0 -31 33q0 27 31 27q30 0 30 -28zM865 856q0 -30 -29 -30q-31 0 -31 29q0 28 30 28t30 -27zM919 799q0 -30 -27 -30q-30 0 -30 30t30 30q27 0 27 -30zM976 744q0 -29 -30 -29t-30 29q0 28 31 28
q29 0 29 -28zM1030 688q0 -30 -27 -30q-30 0 -30 30t30 30q27 0 27 -30zM1087 633q0 -32 -29 -32q-28 0 -28 32q0 28 28 28q29 0 29 -28zM1144 577q0 -33 -30 -33t-30 32q0 28 30 28t30 -27zM1198 519q0 -32 -29 -32q-28 0 -28 32q0 28 28 28q29 0 29 -28zM1255 461
q0 -28 -29 -28q-32 0 -32 28q0 29 31 29q30 0 30 -29zM865 745q0 -30 -30 -30t-30 29q0 28 31 28q29 0 29 -27zM919 688q0 -30 -27 -30q-30 0 -30 30t30 30q27 0 27 -30zM976 633q0 -32 -29 -32q-31 0 -31 32q0 28 30 28t30 -28zM1030 576q0 -32 -27 -32q-30 0 -30 32
q0 28 30 28q27 0 27 -28zM1087 517q0 -30 -29 -30q-28 0 -28 32q0 28 28 28q29 0 29 -30zM1144 463q0 -30 -30 -30t-30 28q0 29 30 29t30 -27zM1198 406q0 -30 -29 -30q-28 0 -28 30t28 30q29 0 29 -30zM865 633q0 -32 -29 -32q-31 0 -31 32q0 28 30 28t30 -28zM919 577
q0 -33 -27 -33q-31 0 -30 40v7q13 13 23 13q34 0 34 -27zM1087 406q0 -30 -29 -30q-28 0 -28 32q0 28 28 28q29 0 29 -30zM1144 352q0 -30 -30 -30t-30 29q0 28 30 28t30 -27zM976 519q0 -32 -29 -32q-31 0 -31 32q0 28 31 28q29 0 29 -28zM1030 461q0 -28 -27 -28
q-30 0 -30 30q0 27 30 27q27 0 27 -29zM865 519q0 -32 -29 -32q-31 0 -31 32q0 28 31 28q29 0 29 -28zM919 461q0 -28 -29 -28q-28 0 -28 30q0 27 30 27q27 0 27 -29zM976 408q0 -32 -29 -32q-31 0 -31 32q0 28 31 28q29 0 29 -28zM1030 351q0 -29 -27 -29q-30 0 -30 29
q0 28 30 28q27 0 27 -28zM1087 295q0 -30 -29 -30q-28 0 -28 30q0 27 28 27q29 0 29 -27zM865 406q0 -30 -29 -30q-31 0 -31 32q0 28 31 28q29 0 29 -30zM919 351q0 -29 -29 -29q-28 0 -28 29q0 28 28 28q29 0 29 -28zM976 295q0 -30 -30 -30t-30 30q0 27 31 27q29 0 29 -27
zM1030 240q0 -32 -27 -32q-30 0 -30 32q0 28 28 28q29 0 29 -28zM865 295q0 -30 -30 -30t-30 30q0 27 31 27q29 0 29 -27zM919 240q0 -32 -29 -32q-28 0 -28 32q0 28 28 28q29 0 29 -28zM976 182q0 -28 -29 -28q-31 0 -31 28q0 29 30 29t30 -29zM1030 127q0 -30 -27 -30
q-30 0 -30 30t30 30q27 0 27 -30zM865 184q0 -30 -30 -30t-30 28q0 29 30 29t30 -27zM919 127q0 -30 -29 -30q-28 0 -28 30t28 30q29 0 29 -30zM976 72q0 -29 -29 -29q-31 0 -31 29q0 28 31 28q29 0 29 -28zM865 73q0 -30 -30 -30t-30 29q0 28 30 28t30 -27zM919 16
q0 -30 -27 -30q-30 0 -30 30q0 27 28 27q29 0 29 -27zM865 -39q0 -32 -29 -32q-31 0 -31 32q0 28 31 28q29 0 29 -28z" />
  </g>

</svg>
