<?xml version="1.0" standalone="no"?>
<!DOCTYPE svg PUBLIC "-//W3C//DTD SVG 1.1//EN" "http://www.w3.org/Graphics/SVG/1.1/DTD/svg11.dtd" >
<svg viewBox="0 -442 2048 2048">
  <g transform="matrix(1 0 0 -1 0 1606)">
   <path fill="currentColor"
d="M1844 1527q0 -22 -22 -22t-22 22v3h44v-3zM1852 1498l-7 -15q1 9 7 15zM1799 1482q0 -22 -22 -22t-22 22t22 22t22 -22zM1832 1456l-18 -39q-14 6 -14 20q0 22 22 22q5 0 10 -3zM1754 1527q0 -22 -22 -22t-22 22v3h44v-3zM1709 1482q0 -22 -22 -22t-22 22t22 22t22 -22z
M1754 1437q0 -22 -22 -22t-22 22t22 22t22 -22zM1799 1392q0 -22 -22 -22t-22 22t22 22t22 -22zM1664 1527q0 -22 -22 -22t-22 22v3h44v-3zM1619 1482q0 -22 -22 -22t-22 22t22 22t22 -22zM1664 1437q0 -22 -22 -22t-22 22t22 22t22 -22zM1709 1392q0 -22 -22 -22t-22 22
t22 22t22 -22zM1754 1347q0 -22 -22 -22t-22 22t22 22t22 -22zM1769 1323l-13 -28q-1 3 -1 7q0 16 14 21zM1574 1527q0 -22 -22 -22t-22 22v3h44v-3zM1529 1482q0 -22 -22 -22t-22 22t22 22t22 -22zM1574 1437q0 -22 -22 -22t-22 22t22 22t22 -22zM1619 1392q0 -22 -22 -22
t-22 22t22 22t22 -22zM1664 1347q0 -22 -22 -22t-22 22t22 22t22 -22zM1709 1302q0 -22 -22 -22t-22 22t22 22t22 -22zM1746 1273l-18 -38q-18 3 -18 22q0 22 22 22q7 0 14 -6zM1484 1527q0 -22 -22 -22t-22 22v3h44v-3zM1439 1482q0 -22 -22 -22t-22 22t22 22t22 -22z
M1484 1437q0 -22 -22 -22t-22 22t22 22t22 -22zM1529 1392q0 -22 -22 -22t-22 22t22 22t22 -22zM1574 1347q0 -22 -22 -22t-22 22t22 22t22 -22zM1619 1302q0 -22 -22 -22t-22 22t22 22t22 -22zM1664 1257q0 -22 -22 -22t-22 22t22 22t22 -22zM1709 1212q0 -22 -22 -22
t-22 22t22 22t22 -22zM1394 1527q0 -22 -22 -22t-22 22v3h44v-3zM1349 1482q0 -22 -22 -22t-22 22t22 22t22 -22zM1394 1437q0 -22 -22 -22t-22 22t22 22t22 -22zM1439 1392q0 -22 -22 -22t-22 22t22 22t22 -22zM1484 1347q0 -22 -22 -22t-22 22t22 22t22 -22zM1529 1302
q0 -22 -22 -22t-22 22t22 22t22 -22zM1574 1257q0 -22 -22 -22t-22 22t22 22t22 -22zM1619 1212q0 -22 -22 -22t-22 22t22 22t22 -22zM1664 1167q0 -22 -22 -22t-22 22t22 22t22 -22zM1685 1144l-16 -35q-4 6 -4 13q0 20 20 22zM1304 1527q0 -22 -22 -22t-22 22v3h44v-3z
M1259 1482q0 -22 -22 -22t-22 22t22 22t22 -22zM1304 1437q0 -22 -22 -22t-22 22t22 22t22 -22zM1349 1392q0 -22 -22 -22t-22 22t22 22t22 -22zM1394 1347q0 -22 -22 -22t-22 22t22 22t22 -22zM1439 1302q0 -22 -22 -22t-22 22t22 22t22 -22zM1484 1257q0 -22 -22 -22
t-22 22t22 22t22 -22zM1529 1212q0 -22 -22 -22t-22 22t22 22t22 -22zM1574 1167q0 -22 -22 -22t-22 22t22 22t22 -22zM1619 1122q0 -22 -22 -22t-22 22t22 22t22 -22zM1660 1090l-16 -35h-2q-22 0 -22 22t22 22q12 0 18 -9zM1214 1527q0 -22 -22 -22t-22 22v3h44v-3z
M1169 1482q0 -22 -22 -22t-22 22t22 22t22 -22zM1214 1437q0 -22 -22 -22t-22 22t22 22t22 -22zM1259 1392q0 -22 -22 -22t-22 22t22 22t22 -22zM1304 1347q0 -22 -22 -22t-22 22t22 22t22 -22zM1349 1302q0 -22 -22 -22t-22 22t22 22t22 -22zM1394 1257q0 -22 -22 -22
t-22 22t22 22t22 -22zM1439 1212q0 -22 -22 -22t-22 22t22 22t22 -22zM1484 1167q0 -22 -22 -22t-22 22t22 22t22 -22zM1529 1122q0 -22 -22 -22t-22 22t22 22t22 -22zM1574 1077q0 -22 -22 -22t-22 22t22 22t22 -22zM1619 1032q0 -22 -22 -22t-22 22t22 22t22 -22z
M1124 1527q0 -22 -22 -22t-22 22v3h44v-3zM1079 1482q0 -22 -22 -22t-22 22t22 22t22 -22zM1124 1437q0 -22 -22 -22t-22 22t22 22t22 -22zM1169 1392q0 -22 -22 -22t-22 22t22 22t22 -22zM1214 1347q0 -22 -22 -22t-22 22t22 22t22 -22zM1259 1302q0 -22 -22 -22t-22 22
t22 22t22 -22zM1304 1257q0 -22 -22 -22t-22 22t22 22t22 -22zM1349 1212q0 -22 -22 -22t-22 22t22 22t22 -22zM1394 1167q0 -22 -22 -22t-22 22t22 22t22 -22zM1439 1122q0 -22 -22 -22t-22 22t22 22t22 -22zM1484 1077q0 -22 -22 -22t-22 22t22 22t22 -22zM1529 1032
q0 -22 -22 -22t-22 22t22 22t22 -22zM1574 987q0 -22 -22 -22t-22 22t22 22t22 -22zM1601 964l-18 -39q-8 7 -8 17q0 22 22 22h4zM1034 1527q0 -22 -22 -22t-22 22v3h44v-3zM989 1482q0 -22 -22 -22t-22 22t22 22t22 -22zM1034 1437q0 -22 -22 -22t-22 22t22 22t22 -22z
M1079 1392q0 -22 -22 -22t-22 22t22 22t22 -22zM1124 1347q0 -22 -22 -22t-22 22t22 22t22 -22zM1169 1302q0 -22 -22 -22t-22 22t22 22t22 -22zM1214 1257q0 -22 -22 -22t-22 22t22 22t22 -22zM1259 1212q0 -22 -22 -22t-22 22t22 22t22 -22zM1304 1167q0 -22 -22 -22
t-22 22t22 22t22 -22zM1349 1122q0 -22 -22 -22t-22 22t22 22t22 -22zM1394 1077q0 -22 -22 -22t-22 22t22 22t22 -22zM1439 1032q0 -22 -22 -22t-22 22t22 22t22 -22zM1484 987q0 -22 -22 -22t-22 22t22 22t22 -22zM1529 942q0 -22 -22 -22t-22 22t22 22t22 -22zM1573 904
l-13 -28q-2 -1 -8 -1q-22 0 -22 22t22 22q16 0 21 -15zM944 1527q0 -22 -22 -22t-22 22v3h44v-3zM899 1482q0 -22 -22 -22t-22 22t22 22t22 -22zM944 1437q0 -22 -22 -22t-22 22t22 22t22 -22zM989 1392q0 -22 -22 -22t-22 22t22 22t22 -22zM1034 1347q0 -22 -22 -22t-22 22
t22 22t22 -22zM1079 1302q0 -22 -22 -22t-22 22t22 22t22 -22zM1124 1257q0 -22 -22 -22t-22 22t22 22t22 -22zM1169 1212q0 -22 -22 -22t-22 22t22 22t22 -22zM1214 1167q0 -22 -22 -22t-22 22t22 22t22 -22zM1259 1122q0 -22 -22 -22t-22 22t22 22t22 -22zM1304 1077
q0 -22 -22 -22t-22 22t22 22t22 -22zM1349 1032q0 -22 -22 -22t-22 22t22 22t22 -22zM1394 987q0 -22 -22 -22t-22 22t22 22t22 -22zM1439 942q0 -22 -22 -22t-22 22t22 22t22 -22zM1484 897q0 -22 -22 -22t-22 22t22 22t22 -22zM1529 852q0 -22 -22 -22t-22 22t22 22
t22 -22zM854 1527q0 -22 -22 -22t-22 22v3h44v-3zM809 1482q0 -22 -22 -22t-22 22t22 22t22 -22zM854 1437q0 -22 -22 -22t-22 22t22 22t22 -22zM899 1392q0 -22 -22 -22t-22 22t22 22t22 -22zM944 1347q0 -22 -22 -22t-22 22t22 22t22 -22zM989 1302q0 -22 -22 -22t-22 22
t22 22t22 -22zM1034 1257q0 -22 -22 -22t-22 22t22 22t22 -22zM1079 1212q0 -22 -22 -22t-22 22t22 22t22 -22zM1124 1167q0 -22 -22 -22t-22 22t22 22t22 -22zM1169 1122q0 -22 -22 -22t-22 22t22 22t22 -22zM1214 1077q0 -22 -22 -22t-22 22t22 22t22 -22zM1259 1032
q0 -22 -22 -22t-22 22t22 22t22 -22zM1304 987q0 -22 -22 -22t-22 22t22 22t22 -22zM1349 942q0 -22 -22 -22t-22 22t22 22t22 -22zM1394 897q0 -22 -22 -22t-22 22t22 22t22 -22zM1439 852q0 -22 -22 -22t-22 22t22 22t22 -22zM1484 807q0 -22 -22 -22t-22 22t22 22t22 -22
zM1515 782l-18 -39q-12 7 -12 19q0 22 22 22q3 0 8 -2zM764 1527q0 -22 -22 -22t-22 22v3h44v-3zM719 1482q0 -22 -22 -22t-22 22t22 22t22 -22zM764 1437q0 -22 -22 -22t-22 22t22 22t22 -22zM809 1392q0 -22 -22 -22t-22 22t22 22t22 -22zM854 1347q0 -22 -22 -22t-22 22
t22 22t22 -22zM899 1302q0 -22 -22 -22t-22 22t22 22t22 -22zM944 1257q0 -22 -22 -22t-22 22t22 22t22 -22zM989 1212q0 -22 -22 -22t-22 22t22 22t22 -22zM1034 1167q0 -22 -22 -22t-22 22t22 22t22 -22zM1079 1122q0 -22 -22 -22t-22 22t22 22t22 -22zM1124 1077
q0 -22 -22 -22t-22 22t22 22t22 -22zM1169 1032q0 -22 -22 -22t-22 22t22 22t22 -22zM1214 987q0 -22 -22 -22t-22 22t22 22t22 -22zM1259 942q0 -22 -22 -22t-22 22t22 22t22 -22zM1304 897q0 -22 -22 -22t-22 22t22 22t22 -22zM1349 852q0 -22 -22 -22t-22 22t22 22
t22 -22zM1394 807q0 -22 -22 -22t-22 22t22 22t22 -22zM1439 762q0 -22 -22 -22t-22 22t22 22t22 -22zM1484 715l-6 -13q-7 -7 -16 -7q-22 0 -22 22t22 22t22 -22v-2zM674 1527q0 -22 -22 -22t-22 22v3h44v-3zM629 1482q0 -22 -22 -22t-22 22t22 22t22 -22zM674 1437
q0 -22 -22 -22t-22 22t22 22t22 -22zM719 1392q0 -22 -22 -22t-22 22t22 22t22 -22zM764 1347q0 -22 -22 -22t-22 22t22 22t22 -22zM809 1302q0 -22 -22 -22t-22 22t22 22t22 -22zM854 1257q0 -22 -22 -22t-22 22t22 22t22 -22zM899 1212q0 -22 -22 -22t-22 22t22 22t22 -22
zM944 1167q0 -22 -22 -22t-22 22t22 22t22 -22zM989 1122q0 -22 -22 -22t-22 22t22 22t22 -22zM1034 1077q0 -22 -22 -22t-22 22t22 22t22 -22zM1079 1032q0 -22 -22 -22t-22 22t22 22t22 -22zM1124 987q0 -22 -22 -22t-22 22t22 22t22 -22zM1169 942q0 -22 -22 -22t-22 22
t22 22t22 -22zM1214 897q0 -22 -22 -22t-22 22t22 22t22 -22zM1259 852q0 -22 -22 -22t-22 22t22 22t22 -22zM1304 807q0 -22 -22 -22t-22 22t22 22t22 -22zM1349 762q0 -22 -22 -22t-22 22t22 22t22 -22zM1394 717q0 -22 -22 -22t-22 22t22 22t22 -22zM1439 672
q0 -22 -22 -22t-22 22t22 22t22 -22zM1451 646l-11 -23v4q0 13 11 19zM584 1527q0 -22 -22 -22t-22 22v3h44v-3zM539 1482q0 -22 -22 -22t-22 22t22 22t22 -22zM584 1437q0 -22 -22 -22t-22 22t22 22t22 -22zM629 1392q0 -22 -22 -22t-22 22t22 22t22 -22zM674 1347
q0 -22 -22 -22t-22 22t22 22t22 -22zM719 1302q0 -22 -22 -22t-22 22t22 22t22 -22zM764 1257q0 -22 -22 -22t-22 22t22 22t22 -22zM809 1212q0 -22 -22 -22t-22 22t22 22t22 -22zM854 1167q0 -22 -22 -22t-22 22t22 22t22 -22zM899 1122q0 -22 -22 -22t-22 22t22 22t22 -22
zM944 1077q0 -22 -22 -22t-22 22t22 22t22 -22zM989 1032q0 -22 -22 -22t-22 22t22 22t22 -22zM1034 987q0 -22 -22 -22t-22 22t22 22t22 -22zM1079 942q0 -22 -22 -22t-22 22t22 22t22 -22zM1124 897q0 -22 -22 -22t-22 22t22 22t22 -22zM1169 852q0 -22 -22 -22t-22 22
t22 22t22 -22zM1214 807q0 -22 -22 -22t-22 22t22 22t22 -22zM1259 762q0 -22 -22 -22t-22 22t22 22t22 -22zM1304 717q0 -22 -22 -22t-22 22t22 22t22 -22zM1349 672q0 -22 -22 -22t-22 22t22 22t22 -22zM1394 627q0 -22 -22 -22t-22 22t22 22t22 -22zM1430 600l-19 -39
q-16 5 -16 21q0 22 22 22q7 0 13 -4zM494 1527q0 -22 -22 -22t-22 22v3h44v-3zM449 1482q0 -22 -22 -22t-22 22t22 22t22 -22zM494 1437q0 -22 -22 -22t-22 22t22 22t22 -22zM539 1392q0 -22 -22 -22t-22 22t22 22t22 -22zM584 1347q0 -22 -22 -22t-22 22t22 22t22 -22z
M629 1302q0 -22 -22 -22t-22 22t22 22t22 -22zM674 1257q0 -22 -22 -22t-22 22t22 22t22 -22zM719 1212q0 -22 -22 -22t-22 22t22 22t22 -22zM764 1167q0 -22 -22 -22t-22 22t22 22t22 -22zM809 1122q0 -22 -22 -22t-22 22t22 22t22 -22zM854 1077q0 -22 -22 -22t-22 22
t22 22t22 -22zM899 1032q0 -22 -22 -22t-22 22t22 22t22 -22zM944 987q0 -22 -22 -22t-22 22t22 22t22 -22zM989 942q0 -22 -22 -22t-22 22t22 22t22 -22zM1034 897q0 -22 -22 -22t-22 22t22 22t22 -22zM1079 852q0 -22 -22 -22t-22 22t22 22t22 -22zM1124 807
q0 -22 -22 -22t-22 22t22 22t22 -22zM1169 762q0 -22 -22 -22t-22 22t22 22t22 -22zM1214 717q0 -22 -22 -22t-22 22t22 22t22 -22zM1259 672q0 -22 -22 -22t-22 22t22 22t22 -22zM1304 627q0 -22 -22 -22t-22 22t22 22t22 -22zM1349 582q0 -22 -22 -22t-22 22t22 22t22 -22
zM1394 537q0 -22 -22 -22t-22 22t22 22t22 -22zM404 1527q0 -22 -22 -22t-22 22v3h44v-3zM359 1482q0 -22 -22 -22t-22 22t22 22t22 -22zM404 1437q0 -22 -22 -22t-22 22t22 22t22 -22zM449 1392q0 -22 -22 -22t-22 22t22 22t22 -22zM494 1347q0 -22 -22 -22t-22 22t22 22
t22 -22zM539 1302q0 -22 -22 -22t-22 22t22 22t22 -22zM584 1257q0 -22 -22 -22t-22 22t22 22t22 -22zM629 1212q0 -22 -22 -22t-22 22t22 22t22 -22zM674 1167q0 -22 -22 -22t-22 22t22 22t22 -22zM719 1122q0 -22 -22 -22t-22 22t22 22t22 -22zM764 1077q0 -22 -22 -22
t-22 22t22 22t22 -22zM809 1032q0 -22 -22 -22t-22 22t22 22t22 -22zM854 987q0 -22 -22 -22t-22 22t22 22t22 -22zM899 942q0 -22 -22 -22t-22 22t22 22t22 -22zM944 897q0 -22 -22 -22t-22 22t22 22t22 -22zM989 852q0 -22 -22 -22t-22 22t22 22t22 -22zM1034 807
q0 -22 -22 -22t-22 22t22 22t22 -22zM1079 762q0 -22 -22 -22t-22 22t22 22t22 -22zM1124 717q0 -22 -22 -22t-22 22t22 22t22 -22zM1169 672q0 -22 -22 -22t-22 22t22 22t22 -22zM1214 627q0 -22 -22 -22t-22 22t22 22t22 -22zM1259 582q0 -22 -22 -22t-22 22t22 22t22 -22
zM1304 537q0 -22 -22 -22t-22 22t22 22t22 -22zM1349 492q0 -22 -22 -22t-22 22t22 22t22 -22zM1368 469l-15 -32q-3 5 -3 10q0 18 18 22zM314 1527q0 -22 -22 -22t-22 22v3h44v-3zM269 1482q0 -22 -22 -22t-22 22t22 22t22 -22zM314 1437q0 -22 -22 -22t-22 22t22 22
t22 -22zM359 1392q0 -22 -22 -22t-22 22t22 22t22 -22zM404 1347q0 -22 -22 -22t-22 22t22 22t22 -22zM449 1302q0 -22 -22 -22t-22 22t22 22t22 -22zM494 1257q0 -22 -22 -22t-22 22t22 22t22 -22zM539 1212q0 -22 -22 -22t-22 22t22 22t22 -22zM584 1167q0 -22 -22 -22
t-22 22t22 22t22 -22zM629 1122q0 -22 -22 -22t-22 22t22 22t22 -22zM674 1077q0 -22 -22 -22t-22 22t22 22t22 -22zM719 1032q0 -22 -22 -22t-22 22t22 22t22 -22zM764 987q0 -22 -22 -22t-22 22t22 22t22 -22zM809 942q0 -22 -22 -22t-22 22t22 22t22 -22zM854 897
q0 -22 -22 -22t-22 22t22 22t22 -22zM899 852q0 -22 -22 -22t-22 22t22 22t22 -22zM944 807q0 -22 -22 -22t-22 22t22 22t22 -22zM989 762q0 -22 -22 -22t-22 22t22 22t22 -22zM1034 717q0 -22 -22 -22t-22 22t22 22t22 -22zM1079 672q0 -22 -22 -22t-22 22t22 22t22 -22z
M1124 627q0 -22 -22 -22t-22 22t22 22t22 -22zM1169 582q0 -22 -22 -22t-22 22t22 22t22 -22zM1214 537q0 -22 -22 -22t-22 22t22 22t22 -22zM1259 492q0 -22 -22 -22t-22 22t22 22t22 -22zM1304 447q0 -22 -22 -22t-22 22t22 22t22 -22zM1343 416l-17 -36q-21 1 -21 22
q0 22 22 22q9 0 16 -8zM224 1527q0 -22 -22 -22t-22 22v3h44v-3zM179 1482q0 -22 -22 -22t-22 22t22 22t22 -22zM224 1437q0 -22 -22 -22t-22 22t22 22t22 -22zM269 1392q0 -22 -22 -22t-22 22t22 22t22 -22zM314 1347q0 -22 -22 -22t-22 22t22 22t22 -22zM359 1302
q0 -22 -22 -22t-22 22t22 22t22 -22zM404 1257q0 -22 -22 -22t-22 22t22 22t22 -22zM449 1212q0 -22 -22 -22t-22 22t22 22t22 -22zM494 1167q0 -22 -22 -22t-22 22t22 22t22 -22zM539 1122q0 -22 -22 -22t-22 22t22 22t22 -22zM584 1077q0 -22 -22 -22t-22 22t22 22t22 -22
zM629 1032q0 -22 -22 -22t-22 22t22 22t22 -22zM674 987q0 -22 -22 -22t-22 22t22 22t22 -22zM719 942q0 -22 -22 -22t-22 22t22 22t22 -22zM764 897q0 -22 -22 -22t-22 22t22 22t22 -22zM809 852q0 -22 -22 -22t-22 22t22 22t22 -22zM854 807q0 -22 -22 -22t-22 22t22 22
t22 -22zM899 762q0 -22 -22 -22t-22 22t22 22t22 -22zM944 717q0 -22 -22 -22t-22 22t22 22t22 -22zM989 672q0 -22 -22 -22t-22 22t22 22t22 -22zM1034 627q0 -22 -22 -22t-22 22t22 22t22 -22zM1079 582q0 -22 -22 -22t-22 22t22 22t22 -22zM1124 537q0 -22 -22 -22
t-22 22t22 22t22 -22zM1169 492q0 -22 -22 -22t-22 22t22 22t22 -22zM1214 447q0 -22 -22 -22t-22 22t22 22t22 -22zM1259 402q0 -22 -22 -22t-22 22t22 22t22 -22zM1304 357q0 -22 -22 -22t-22 22t22 22t22 -22zM134 1527q0 -22 -22 -22t-22 22v3h44v-3zM89 1483l-7 15
q6 -6 7 -15zM134 1437q0 -14 -14 -20l-18 39q5 3 10 3q22 0 22 -22zM179 1392q0 -22 -22 -22t-22 22t22 22t22 -22zM224 1347q0 -22 -22 -22t-22 22t22 22t22 -22zM269 1302q0 -22 -22 -22t-22 22t22 22t22 -22zM314 1257q0 -22 -22 -22t-22 22t22 22t22 -22zM359 1212
q0 -22 -22 -22t-22 22t22 22t22 -22zM404 1167q0 -22 -22 -22t-22 22t22 22t22 -22zM449 1122q0 -22 -22 -22t-22 22t22 22t22 -22zM494 1077q0 -22 -22 -22t-22 22t22 22t22 -22zM539 1032q0 -22 -22 -22t-22 22t22 22t22 -22zM584 987q0 -22 -22 -22t-22 22t22 22t22 -22z
M629 942q0 -22 -22 -22t-22 22t22 22t22 -22zM674 897q0 -22 -22 -22t-22 22t22 22t22 -22zM719 852q0 -22 -22 -22t-22 22t22 22t22 -22zM764 807q0 -22 -22 -22t-22 22t22 22t22 -22zM809 762q0 -22 -22 -22t-22 22t22 22t22 -22zM854 717q0 -22 -22 -22t-22 22t22 22
t22 -22zM899 672q0 -22 -22 -22t-22 22t22 22t22 -22zM944 627q0 -22 -22 -22t-22 22t22 22t22 -22zM989 582q0 -22 -22 -22t-22 22t22 22t22 -22zM1034 537q0 -22 -22 -22t-22 22t22 22t22 -22zM1079 492q0 -22 -22 -22t-22 22t22 22t22 -22zM1124 447q0 -22 -22 -22
t-22 22t22 22t22 -22zM1169 402q0 -22 -22 -22t-22 22t22 22t22 -22zM1214 357q0 -22 -22 -22t-22 22t22 22t22 -22zM1259 312q0 -22 -22 -22t-22 22t22 22t22 -22zM1283 289l-17 -37q-6 6 -6 15q0 22 22 22h1zM179 1302q0 -5 -1 -7l-13 28q14 -5 14 -21zM224 1257
q0 -19 -18 -22l-18 38q7 6 14 6q22 0 22 -22zM269 1212q0 -22 -22 -22t-22 22t22 22t22 -22zM314 1167q0 -22 -22 -22t-22 22t22 22t22 -22zM359 1122q0 -22 -22 -22t-22 22t22 22t22 -22zM404 1077q0 -22 -22 -22t-22 22t22 22t22 -22zM449 1032q0 -22 -22 -22t-22 22
t22 22t22 -22zM494 987q0 -22 -22 -22t-22 22t22 22t22 -22zM539 942q0 -22 -22 -22t-22 22t22 22t22 -22zM584 897q0 -22 -22 -22t-22 22t22 22t22 -22zM629 852q0 -22 -22 -22t-22 22t22 22t22 -22zM674 807q0 -22 -22 -22t-22 22t22 22t22 -22zM719 762q0 -22 -22 -22
t-22 22t22 22t22 -22zM764 717q0 -22 -22 -22t-22 22t22 22t22 -22zM809 672q0 -22 -22 -22t-22 22t22 22t22 -22zM854 627q0 -22 -22 -22t-22 22t22 22t22 -22zM899 582q0 -22 -22 -22t-22 22t22 22t22 -22zM944 537q0 -22 -22 -22t-22 22t22 22t22 -22zM989 492
q0 -22 -22 -22t-22 22t22 22t22 -22zM1034 447q0 -22 -22 -22t-22 22t22 22t22 -22zM1079 402q0 -22 -22 -22t-22 22t22 22t22 -22zM1124 357q0 -22 -22 -22t-22 22t22 22t22 -22zM1169 312q0 -22 -22 -22t-22 22t22 22t22 -22zM1214 267q0 -22 -22 -22t-22 22t22 22t22 -22
zM1257 232l-15 -31q-2 0 -5 -1q-22 0 -22 22t22 22q14 0 20 -12zM269 1122q0 -7 -4 -13l-16 35q20 -1 20 -22zM314 1077q0 -22 -22 -22h-2l-16 35q6 9 18 9q22 0 22 -22zM359 1032q0 -22 -22 -22t-22 22t22 22t22 -22zM404 987q0 -22 -22 -22t-22 22t22 22t22 -22zM449 942
q0 -22 -22 -22t-22 22t22 22t22 -22zM494 897q0 -22 -22 -22t-22 22t22 22t22 -22zM539 852q0 -22 -22 -22t-22 22t22 22t22 -22zM584 807q0 -22 -22 -22t-22 22t22 22t22 -22zM629 762q0 -22 -22 -22t-22 22t22 22t22 -22zM674 717q0 -22 -22 -22t-22 22t22 22t22 -22z
M719 672q0 -22 -22 -22t-22 22t22 22t22 -22zM764 627q0 -22 -22 -22t-22 22t22 22t22 -22zM809 582q0 -22 -22 -22t-22 22t22 22t22 -22zM854 537q0 -22 -22 -22t-22 22t22 22t22 -22zM899 492q0 -22 -22 -22t-22 22t22 22t22 -22zM944 447q0 -22 -22 -22t-22 22t22 22
t22 -22zM989 402q0 -22 -22 -22t-22 22t22 22t22 -22zM1034 357q0 -22 -22 -22t-22 22t22 22t22 -22zM1079 312q0 -22 -22 -22t-22 22t22 22t22 -22zM1124 267q0 -22 -22 -22t-22 22t22 22t22 -22zM1169 222q0 -22 -22 -22t-22 22t22 22t22 -22zM1214 177q0 -22 -22 -22
t-22 22t22 22t22 -22zM359 942q0 -10 -8 -17l-18 39h4q22 0 22 -22zM404 897q0 -22 -22 -22q-3 0 -8 1l-13 28q5 15 21 15q22 0 22 -22zM449 852q0 -22 -22 -22t-22 22t22 22t22 -22zM494 807q0 -22 -22 -22t-22 22t22 22t22 -22zM539 762q0 -22 -22 -22t-22 22t22 22
t22 -22zM584 717q0 -22 -22 -22t-22 22t22 22t22 -22zM629 672q0 -22 -22 -22t-22 22t22 22t22 -22zM674 627q0 -22 -22 -22t-22 22t22 22t22 -22zM719 582q0 -22 -22 -22t-22 22t22 22t22 -22zM764 537q0 -22 -22 -22t-22 22t22 22t22 -22zM809 492q0 -22 -22 -22t-22 22
t22 22t22 -22zM854 447q0 -22 -22 -22t-22 22t22 22t22 -22zM899 402q0 -22 -22 -22t-22 22t22 22t22 -22zM944 357q0 -22 -22 -22t-22 22t22 22t22 -22zM989 312q0 -22 -22 -22t-22 22t22 22t22 -22zM1034 267q0 -22 -22 -22t-22 22t22 22t22 -22zM1079 222q0 -22 -22 -22
t-22 22t22 22t22 -22zM1124 177q0 -22 -22 -22t-22 22t22 22t22 -22zM1169 132q0 -22 -22 -22t-22 22t22 22t22 -22zM1198 108l-18 -39q-10 7 -10 18q0 22 22 22q3 0 6 -1zM449 762q0 -12 -12 -19l-18 39q5 2 8 2q22 0 22 -22zM494 717q0 -22 -22 -22q-9 0 -16 7l-6 13v2
q0 22 22 22t22 -22zM539 672q0 -22 -22 -22t-22 22t22 22t22 -22zM584 627q0 -22 -22 -22t-22 22t22 22t22 -22zM629 582q0 -22 -22 -22t-22 22t22 22t22 -22zM674 537q0 -22 -22 -22t-22 22t22 22t22 -22zM719 492q0 -22 -22 -22t-22 22t22 22t22 -22zM764 447
q0 -22 -22 -22t-22 22t22 22t22 -22zM809 402q0 -22 -22 -22t-22 22t22 22t22 -22zM854 357q0 -22 -22 -22t-22 22t22 22t22 -22zM899 312q0 -22 -22 -22t-22 22t22 22t22 -22zM944 267q0 -22 -22 -22t-22 22t22 22t22 -22zM989 222q0 -22 -22 -22t-22 22t22 22t22 -22z
M1034 177q0 -22 -22 -22t-22 22t22 22t22 -22zM1079 132q0 -22 -22 -22t-22 22t22 22t22 -22zM1124 87q0 -22 -22 -22t-22 22t22 22t22 -22zM1169 45l-10 -21q-6 -4 -12 -4q-22 0 -22 22t22 22q19 0 22 -19zM494 623l-11 23q11 -6 11 -19v-4zM539 582q0 -16 -16 -21l-19 39
q6 4 13 4q22 0 22 -22zM584 537q0 -22 -22 -22t-22 22t22 22t22 -22zM629 492q0 -22 -22 -22t-22 22t22 22t22 -22zM674 447q0 -22 -22 -22t-22 22t22 22t22 -22zM719 402q0 -22 -22 -22t-22 22t22 22t22 -22zM764 357q0 -22 -22 -22t-22 22t22 22t22 -22zM809 312
q0 -22 -22 -22t-22 22t22 22t22 -22zM854 267q0 -22 -22 -22t-22 22t22 22t22 -22zM899 222q0 -22 -22 -22t-22 22t22 22t22 -22zM944 177q0 -22 -22 -22t-22 22t22 22t22 -22zM989 132q0 -22 -22 -22t-22 22t22 22t22 -22zM1034 87q0 -22 -22 -22t-22 22t22 22t22 -22z
M1079 42q0 -22 -22 -22t-22 22t22 22t22 -22zM1124 -3q0 -22 -22 -22t-22 22t22 22t22 -22zM1133 -31l-8 -17q0 10 8 17zM584 447q0 -6 -3 -11l-15 33q18 -4 18 -22zM629 402q0 -21 -21 -22l-17 36q7 8 16 8q22 0 22 -22zM674 357q0 -22 -22 -22t-22 22t22 22t22 -22z
M719 312q0 -22 -22 -22t-22 22t22 22t22 -22zM764 267q0 -22 -22 -22t-22 22t22 22t22 -22zM809 222q0 -22 -22 -22t-22 22t22 22t22 -22zM854 177q0 -22 -22 -22t-22 22t22 22t22 -22zM899 132q0 -22 -22 -22t-22 22t22 22t22 -22zM944 87q0 -22 -22 -22t-22 22t22 22
t22 -22zM989 42q0 -22 -22 -22t-22 22t22 22t22 -22zM1034 -3q0 -22 -22 -22t-22 22t22 22t22 -22zM1079 -48q0 -22 -22 -22t-22 22t22 22t22 -22zM1113 -74l-19 -39q-14 6 -14 20q0 22 22 22q6 0 11 -3zM674 267q0 -9 -6 -15l-17 37h1q22 0 22 -22zM719 222q0 -22 -22 -22
q-2 0 -5 1l-15 31q6 12 20 12q22 0 22 -22zM764 177q0 -22 -22 -22t-22 22t22 22t22 -22zM809 132q0 -22 -22 -22t-22 22t22 22t22 -22zM854 87q0 -22 -22 -22t-22 22t22 22t22 -22zM899 42q0 -22 -22 -22t-22 22t22 22t22 -22zM944 -3q0 -22 -22 -22t-22 22t22 22t22 -22z
M989 -48q0 -22 -22 -22t-22 22t22 22t22 -22zM1034 -93q0 -22 -22 -22t-22 22t22 22t22 -22zM1079 -138q0 -22 -22 -22t-22 22t22 22t22 -22zM764 87q0 -11 -10 -18l-18 39q3 1 6 1q22 0 22 -22zM809 42q0 -22 -22 -22q-6 0 -12 4l-10 21q3 19 22 19q22 0 22 -22zM854 -3
q0 -22 -22 -22t-22 22t22 22t22 -22zM899 -48q0 -22 -22 -22t-22 22t22 22t22 -22zM944 -93q0 -22 -22 -22t-22 22t22 22t22 -22zM989 -138q0 -22 -22 -22t-22 22t22 22t22 -22zM1034 -183q0 -22 -22 -22t-22 22t22 22t22 -22zM1050 -207l-13 -29q-2 5 -2 8q0 16 15 21z
M809 -48l-8 17q8 -7 8 -17zM854 -93q0 -14 -14 -20l-19 39q5 3 11 3q22 0 22 -22zM899 -138q0 -22 -22 -22t-22 22t22 22t22 -22zM944 -183q0 -22 -22 -22t-22 22t22 22t22 -22zM989 -228q0 -22 -22 -22t-22 22t22 22t22 -22zM1027 -257l-18 -38q-19 3 -19 22q0 22 22 22
q9 0 15 -6zM899 -228q0 -3 -2 -8l-13 29q15 -5 15 -21zM944 -273q0 -19 -19 -22l-18 38q6 6 15 6q22 0 22 -22zM989 -318q0 -22 -22 -22t-22 22t22 22t22 -22z" />
  </g>

</svg>
