<?xml version="1.0" standalone="no"?>
<!DOCTYPE svg PUBLIC "-//W3C//DTD SVG 1.1//EN" "http://www.w3.org/Graphics/SVG/1.1/DTD/svg11.dtd" >
<svg viewBox="0 -442 2048 2048">
  <g transform="matrix(1 0 0 -1 0 1606)">
   <path fill="currentColor"
d="M1147 1421q-14 -13 -23 -13q-6 0 -20 13v17q15 13 20 13q9 0 23 -13v-17zM1286 1289q0 -20 -22 -20q-7 0 -21 13v17q13 13 21 13q22 0 22 -23zM1610 954q-9 -9 -22 -9q-21 0 -21 20q0 23 21 23q8 0 22 -13v-21zM1749 824q0 -18 -20 -18q-23 0 -23 20q0 23 23 23
q20 0 20 -25zM1193 1374q-14 -13 -23 -13q-6 0 -20 13v18q15 13 20 13q9 0 23 -13v-18zM1240 1335q0 -20 -22 -20q-8 0 -22 13v17q13 13 22 13q22 0 22 -23zM1332 1243q0 -21 -21 -21q-8 0 -22 13v18q13 13 22 13q21 0 21 -23zM1521 1059q0 -6 -9.5 -15.5t-15.5 -9.5
q-22 0 -22 25q0 21 22 21q25 0 25 -21zM1703 870q0 -18 -20 -18q-24 0 -24 18q0 25 24 25q20 0 20 -25zM1842 731q0 -18 -19 -18q-25 0 -25 20q0 6 9 14.5t15 8.5q20 0 20 -25zM1100 1467q-15 -13 -23 -13q-6 0 -20 13v17q15 13 20 13q9 0 23 -13v-17zM1656 908
q-26 -10 -21 -10q-22 0 -22 20q0 23 22 23q8 0 21 -12v-21zM1795 778q0 -19 -20 -19q-23 0 -23 20q0 23 22 23q21 0 21 -24zM1564 1001q-13 -13 -22 -13q-21 0 -21 23t21 23q8 0 22 -13v-20zM1054 1524q0 -6 -8.5 -15t-14.5 -9t-14.5 9t-8.5 15q0 20 23 20t23 -20z
M1378 1196q0 -23 -21 -23q-22 0 -22 25q0 21 22 21q21 0 21 -23zM1425 1151q0 -14 -22 -24q-21 0 -21 24q0 19 21 19q22 0 22 -19zM1888 676q-13 -12 -20 -12q-23 0 -23 23q0 20 23 20q6 0 20 -13v-18zM1471 1105q0 -14 -22 -25q-21 0 -21 25q0 19 21 19q22 0 22 -19z
M1934 630q-14 -13 -20 -13q-23 0 -23 23q0 20 23 20q7 0 20 -12v-18zM1980 584q-14 -13 -19 -13q-6 0 -15 8.5t-9 14.5q0 20 24 20q5 0 19 -13v-17zM1521 965q0 -20 -25 -20q-12 0 -22 9v21q14 13 22 13q25 0 25 -23zM1147 1335q0 -20 -23 -20q-6 0 -20 13v17q15 13 20 13
q23 0 23 -23zM1193 1289q0 -20 -23 -20q-6 0 -20 13v17q15 13 20 13q23 0 23 -23zM1240 1243q0 -21 -22 -21q-8 0 -22 13v18q13 13 22 13q22 0 22 -23zM1564 908q-10 -10 -22 -10q-21 0 -21 20q0 23 21 23q9 0 22 -12v-21zM1610 870q0 -18 -22 -18q-21 0 -21 18q0 25 21 25
q22 0 22 -25zM1656 824q0 -18 -21 -18q-22 0 -22 18q0 25 22 25q21 0 21 -25zM1749 731q0 -18 -20 -18q-23 0 -23 20q0 23 21 23q22 0 22 -25zM1100 1374q-14 -13 -23 -13q-6 0 -20 13v18q15 13 20 13q9 0 23 -13v-18zM1703 769q-11 -10 -20 -10q-24 0 -24 19q0 15 22 24
q9 0 22 -12v-21zM1054 1421q-15 -13 -23 -13q-9 0 -23 13v17q14 13 23 13t23 -13v-17zM1286 1196q0 -23 -23 -23q-20 0 -20 25q0 21 21 21q22 0 22 -23zM1425 1059q0 -14 -22 -25q-21 0 -21 25q0 21 21 21q22 0 22 -21zM1471 1011q0 -23 -22 -23q-7 0 -21 13v20q17 13 21 13
q22 0 22 -23zM1005 1467q-14 -13 -20 -13q-9 0 -23 13v17q14 13 23 13q6 0 20 -13v-17zM1332 1150q0 -23 -23 -23q-20 0 -20 24q0 19 20 19q23 0 23 -20zM1795 676q-13 -12 -21 -12q-22 0 -22 23q0 20 22 20q7 0 21 -13v-18zM1888 584q-14 -13 -20 -13q-23 0 -23 23
q0 20 23 20q6 0 20 -13v-17zM1934 537q-13 -12 -20 -12q-10 0 -23 12v18q14 13 23 13q6 0 20 -13v-18zM1378 1104q0 -24 -21 -24q-22 0 -22 25q0 19 22 19q21 0 21 -20zM1842 630q-14 -13 -20 -13t-15 8.5t-9 14.5q0 20 24 20q7 0 20 -12v-18zM1521 870q0 -18 -25 -18
q-22 0 -22 18q0 25 22 25q6 0 15.5 -9.5t9.5 -15.5zM1425 965q0 -20 -22 -20q-1 0 -21 9v21q13 13 21 13q22 0 22 -23zM1564 824q0 -18 -22 -18q-21 0 -21 18q0 25 21 25q22 0 22 -25zM1101 1289q0 -20 -24 -20q-6 0 -20 13v17q15 13 20 13q6 0 15 -8.5t9 -14.5zM1147 1243
q0 -5 -9 -13t-14 -8q-6 0 -20 13v18q15 13 20 13q23 0 23 -23zM1471 918q0 -20 -22 -20q2 0 -21 10v21q12 12 21 12q22 0 22 -23zM1610 778q0 -19 -22 -19q-21 0 -21 19q0 24 21 24q22 0 22 -24zM1656 731q0 -18 -21 -18q-22 0 -22 18q0 25 20 25q23 0 23 -25zM1054 1335
q0 -20 -23 -20t-23 20q0 23 23 23t23 -23zM1193 1196q0 -23 -23 -23q-20 0 -20 25q0 21 20 21q23 0 23 -23zM1332 1057q0 -23 -23 -23q-20 0 -20 25q0 21 20 21q23 0 23 -23zM1378 1011q0 -23 -21 -23q10 0 -22 12v21q14 13 22 13q21 0 21 -23zM1842 537q-13 -12 -20 -12
q-10 0 -23 12v18q14 13 23 13q6 0 20 -13v-18zM1005 1374q-14 -13 -20 -13q-9 0 -23 13v18q14 13 23 13q6 0 20 -13v-18zM1240 1150q0 -6 -9 -14.5t-15 -8.5q-20 0 -20 24q0 19 20 19q24 0 24 -20zM1286 1104q0 -6 -8.5 -15t-14.5 -9q-20 0 -20 25q0 19 20 19q23 0 23 -20z
M1703 676q-13 -12 -22 -12q-22 0 -22 23q0 20 22 20q8 0 22 -13v-18zM958 1421q-14 -13 -20 -13q-9 0 -23 13v17q14 13 23 13q6 0 20 -13v-17zM1749 630q-14 -13 -22 -13q-21 0 -21 23q0 20 21 20q9 0 22 -12v-18zM1795 584q-14 -13 -21 -13q-22 0 -22 23q0 20 22 20
q7 0 21 -13v-17zM1888 491q-14 -13 -20 -13q-9 0 -23 13v18q13 12 23 12q7 0 20 -12v-18zM1521 778q0 -19 -25 -19q-22 0 -22 19q0 24 23 24q24 0 24 -24zM1332 957q-13 -12 -23 -12t-20 9v21q14 13 20 13q9 0 23 -13v-18zM1425 870q0 -18 -22 -18q-21 0 -21 18q0 25 21 25
q6 0 14 -9.5t8 -15.5zM1471 824q0 -18 -22 -18q-21 0 -21 18q0 25 21 25q6 0 14 -9.5t8 -15.5zM1564 722q-20 -9 -22 -9q-21 0 -21 18q0 25 23 25q6 0 20 -13v-21zM1378 911q-14 -13 -21 -13q1 0 -22 10v21q12 12 22 12q8 0 21 -12v-18zM1286 1012q0 -24 -23 -24
q-6 0 -20 13v20q15 13 20 13q23 0 23 -22zM1054 1235q-14 -13 -23 -13q-23 0 -23 21q0 23 25 23q7 0 21 -13v-18zM1101 1198q0 -25 -24 -25q-20 0 -20 25q0 21 22 21t22 -21zM1240 1059q0 -25 -24 -25q-20 0 -20 25q0 21 20 21q24 0 24 -21zM1005 1282q-14 -13 -20 -13
q-23 0 -23 20q0 23 23 23q6 0 20 -13v-17zM1147 1150q0 -23 -23 -23q-20 0 -20 24q0 19 20 19q23 0 23 -20zM1610 676q-13 -12 -22 -12q-13 0 -21 21q0 22 21 22q8 0 22 -13v-18zM1749 537q-13 -12 -22 -12q-8 0 -21 12v18q14 13 23 13t20 -10v-21zM1842 445
q-14 -13 -20 -13q6 0 -23 13v17q13 13 24 13q8 0 19 -10v-20zM912 1374q-14 -13 -20 -13q6 0 -23 13v18q13 13 25 13q7 0 18 -10v-21zM1193 1104q0 -24 -25 -24q-18 0 -18 25q0 19 20 19q23 0 23 -20zM1703 584q-14 -13 -22 -13q-22 0 -22 23q0 20 24 20q9 0 20 -10v-20z
M958 1328q-14 -13 -20 -13q-23 0 -23 20q0 23 23 23q6 0 20 -13v-17zM1656 630q-14 -13 -21 -13q-22 0 -22 23q0 20 22 20q8 0 21 -12v-18zM1795 491q-14 -13 -21 -13q-8 0 -22 13v18q13 12 23 12t20 -9v-21zM1239 957q-13 -12 -23 -12t-20 9v21q14 13 20 13q9 0 23 -13v-18
zM1286 911q-14 -13 -23 -13t-20 10v21q13 12 20 12q10 0 23 -12v-18zM1332 872q0 -20 -23 -20q-20 0 -20 18q0 25 20 25q23 0 23 -23zM1378 826q0 -20 -21 -20q-22 0 -22 18q0 25 22 25q21 0 21 -23zM1425 778q0 -19 -22 -19q-21 0 -21 19q0 24 23 24q20 0 20 -24zM1471 731
q0 -18 -22 -18q-21 0 -21 18q0 25 23 25q5 0 12.5 -10t7.5 -15zM1521 685q0 -21 -25 -21q-9 0 -22 12v18q13 13 22 13q25 0 25 -22zM1147 1059q0 -25 -25 -25q-18 0 -18 25q0 21 20 21q23 0 23 -21zM1193 1012q0 -24 -25 -24q-18 0 -18 23t18 23q15 0 25 -22zM866 1328
q-14 -13 -22 -13q-21 0 -21 20q0 23 21 23q8 0 22 -13v-17zM912 1282q-14 -13 -20 -13q-23 0 -23 20q0 23 23 23q6 0 20 -13v-17zM1101 1104q0 -6 -9 -15t-15 -9q-20 0 -20 25q0 19 20 19q24 0 24 -20zM1564 630q-14 -13 -22 -13q-13 0 -21 22q0 21 21 21q9 0 22 -12v-18z
M1610 584q-14 -13 -22 -13q-21 0 -21 23q0 20 21 20q8 0 22 -13v-17zM1656 537q-13 -12 -21 -12q-9 0 -22 12v18q13 13 22 13q7 0 21 -13v-18zM1703 491q-14 -13 -22 -13q-7 0 -21 13v18q13 12 23 12t20 -9v-21zM1749 445q-14 -13 -22 -13q-7 0 -21 13v17q14 13 23 13
t20 -10v-20zM1795 398q-13 -12 -21 -12q-9 0 -22 12v18q14 13 23 13t20 -10v-21zM958 1235q-14 -13 -20 -13q-23 0 -23 21q0 23 23 23q6 0 20 -13v-18zM1005 1198q0 -25 -20 -25q-23 0 -23 23t23 23q20 0 20 -21zM1054 1151q0 -24 -23 -24t-23 23q0 20 23 20t23 -19z
M1147 966q0 -21 -23 -21q-10 0 -20 9v21q14 13 20 13q23 0 23 -22zM1286 826q0 -20 -23 -20q-20 0 -20 18q0 25 20 25q23 0 23 -23zM1240 872q0 -20 -24 -20q-20 0 -20 18q0 25 20 25q6 0 15 -8.5t9 -14.5zM1193 920q0 -22 -23 -22q-9 0 -20 10v21q13 12 20 12q23 0 23 -21z
M1332 779q0 -20 -23 -20q-20 0 -20 19q0 24 22 24q21 0 21 -23zM1378 733q0 -20 -21 -20q-22 0 -22 18q0 25 23 25q4 0 12 -9t8 -14zM1101 1011q0 -23 -24 -23q-5 0 -20 13v20q13 13 22 13q22 0 22 -23zM1521 592q0 -21 -25 -21q-8 0 -22 13v17q13 13 22 13q25 0 25 -22z
M1425 687q0 -23 -22 -23q-8 0 -21 12v18q13 13 21 13q22 0 22 -20zM1564 537q-12 -12 -22 -12q-21 0 -21 23q0 20 21 20q-1 0 22 -10v-21zM820 1290q0 -21 -22 -21t-22 21q0 22 23 22q21 0 21 -22zM866 1244q0 -22 -22 -22q-21 0 -21 21q0 23 23 23q20 0 20 -22zM1703 398
q-13 -12 -22 -12q-22 0 -22 23q0 20 24 20q9 0 20 -10v-21zM1054 1059q0 -14 -21 -25q-25 0 -25 23t25 23q21 0 21 -21zM1471 640q0 -23 -22 -23q-7 0 -21 13v18q12 12 21 12q22 0 22 -20zM1610 491q-13 -13 -22 -13q-21 0 -21 23q0 20 21 20q2 0 22 -9v-21zM1656 445
q-13 -13 -21 -13q-22 0 -22 23q0 20 22 20q1 0 21 -9v-21zM1749 361q0 -22 -22 -22q-21 0 -21 20q0 23 23 23q20 0 20 -21zM912 1198q0 -25 -18 -25q-25 0 -25 23t25 23q18 0 18 -21zM959 1151q0 -24 -19 -24q-25 0 -25 23q0 20 23 20q21 0 21 -19zM1005 1105q0 -25 -19 -25
q-24 0 -24 24q0 20 23 20q20 0 20 -19zM1147 872q0 -20 -23 -20q-20 0 -20 18q0 25 20 25q23 0 23 -23zM1193 826q0 -20 -23 -20q-20 0 -20 18q0 25 20 25q23 0 23 -23zM1286 733q0 -20 -23 -20q-20 0 -20 18q0 25 21 25q22 0 22 -23zM1101 920q0 -22 -24 -22q-9 0 -20 10
v21q13 12 20 12q24 0 24 -21zM1240 779q0 -20 -24 -20q-20 0 -20 19q0 24 22 24t22 -23zM1054 965q0 -20 -23 -20t-23 21q0 22 23 22t23 -23zM1521 500q0 -22 -25 -22q-8 0 -22 13v21l22 9q25 0 25 -21zM1332 687q0 -23 -21 -23q-9 0 -22 12v18q13 13 22 13q21 0 21 -20z
M1425 594q0 -23 -22 -23q-7 0 -21 13v17q13 13 21 13q22 0 22 -20zM1471 537q-13 -12 -22 -12q-8 0 -21 12v18q13 13 21 13t22 -13v-18zM1564 445q-13 -13 -22 -13q-21 0 -21 23q0 20 21 20q2 0 22 -9v-21zM1610 398q-12 -12 -22 -12q-21 0 -21 23q0 20 21 20q-1 0 22 -10
v-21zM773 1244q0 -22 -21 -22q-22 0 -22 22t23 22q20 0 20 -22zM1703 315q0 -22 -22 -22t-22 22q0 21 24 21q20 0 20 -21zM1378 640q0 -23 -21 -23q-8 0 -22 13v18q12 12 22 12q21 0 21 -20zM1656 352q-14 -13 -21 -13q-22 0 -22 22q0 21 22 21q8 0 21 -12v-18zM1005 1011
q0 -23 -19 -23q-24 0 -24 23t24 23q19 0 19 -23zM820 1198q0 -25 -21 -25q-23 0 -23 25q0 21 23 21q21 0 21 -21zM959 1059q0 -25 -19 -25q-25 0 -25 23t25 23q19 0 19 -21zM866 1151q0 -24 -20 -24q-23 0 -23 23q0 20 23 20q20 0 20 -19zM912 1105q0 -25 -18 -25
q-25 0 -25 24q0 20 23 20q20 0 20 -19zM1101 826q0 -20 -24 -20q-20 0 -20 18q0 25 20 25q6 0 15 -8.5t9 -14.5zM1147 779q0 -20 -23 -20q-20 0 -20 19q0 24 20 24q23 0 23 -23zM1193 733q0 -20 -23 -20q-20 0 -20 18q0 25 20 25q23 0 23 -23zM1521 409q0 -23 -25 -23
q-9 0 -22 12v21q24 10 22 10q17 0 25 -20zM1054 872q0 -20 -23 -20t-23 20q0 23 23 23t23 -23zM959 965q0 -20 -21 -20q-23 0 -23 20q0 23 25 23q19 0 19 -23zM1240 687q0 -23 -22 -23q-9 0 -22 12v18q13 13 22 13q22 0 22 -20zM1005 908q-11 -10 -20 -10q-23 0 -23 22
q0 21 23 21q7 0 20 -12v-21zM1286 640q0 -23 -22 -23q-7 0 -21 13v18q12 12 21 12q22 0 22 -20zM1332 594q0 -23 -21 -23q-8 0 -22 13v17q13 13 22 13q21 0 21 -20zM1378 537q-13 -12 -21 -12q-9 0 -22 12v18q13 13 22 13q7 0 21 -13v-18zM1425 491q-14 -13 -22 -13
q-7 0 -21 13v18q12 12 21 12t22 -12v-18zM1471 455q0 -23 -22 -23q-7 0 -21 13v21q22 9 21 9q22 0 22 -20zM1564 352q-14 -13 -22 -13q-21 0 -21 22q0 21 21 21q9 0 22 -12v-18zM1610 306q-14 -13 -22 -13q-21 0 -21 22q0 21 21 21q8 0 22 -13v-17zM1656 260
q-12 -13 -23 -13q-20 0 -20 21q0 22 22 22q7 0 21 -13v-17zM727 1198q0 -14 -22 -25q-21 0 -21 25q0 21 21 21q22 0 22 -21zM866 1059q0 -25 -20 -25q-23 0 -23 23t23 23q20 0 20 -21zM912 1011q0 -23 -18 -23q-25 0 -25 23t25 23q18 0 18 -23zM773 1151q0 -24 -20 -24
q-23 0 -23 24q0 19 23 19q20 0 20 -19zM820 1105q0 -25 -21 -25q-23 0 -23 25q0 19 23 19q21 0 21 -19zM1101 733q0 -20 -22 -20t-22 20q0 23 20 23q6 0 15 -8.5t9 -14.5zM1521 315q0 -22 -25 -22q-8 0 -22 13v17q13 13 22 13q25 0 25 -21zM1054 779q0 -20 -23 -20t-23 20
q0 23 23 23t23 -23zM866 954q-10 -9 -20 -9q-23 0 -23 20q0 23 23 23q6 0 20 -13v-21zM1005 824q0 -18 -20 -18q-23 0 -23 20q0 23 23 23q20 0 20 -25zM1147 687q0 -23 -23 -23q-7 0 -20 12v18q15 13 20 13q23 0 23 -20zM1286 537q-13 -12 -22 -12q-8 0 -21 12v18
q13 13 21 13t22 -13v-18zM1425 409q0 -23 -22 -23q-8 0 -21 12v21q24 10 21 10q22 0 22 -20zM1564 259q-13 -12 -20 -12q-23 0 -23 21q0 22 21 22q8 0 22 -13v-18zM959 870q0 -18 -21 -18q-23 0 -23 20q0 23 23 23q21 0 21 -25zM1240 594q0 -23 -22 -23q-8 0 -22 13v17
q13 13 22 13q22 0 22 -20zM912 918q0 -20 -20 -20q-23 0 -23 20q0 23 25 23q18 0 18 -23zM1193 640q0 -23 -23 -23q-6 0 -20 13v18q13 12 20 12q23 0 23 -20zM1332 491q-13 -13 -21 -13t-22 13v21q9 9 20 9q10 0 23 -12v-18zM1378 445q-14 -13 -21 -13q-8 0 -22 13v17
q13 13 22 13q7 0 21 -13v-17zM1471 361q0 -22 -22 -22q-7 0 -21 13v18q13 12 21 12q13 0 22 -21zM773 1059q0 -25 -20 -25q-23 0 -23 25q0 21 23 21q20 0 20 -21zM819 1001q-14 -13 -20 -13q-23 0 -23 23t23 23q6 0 20 -13v-20zM681 1151q0 -14 -22 -24q-22 0 -22 24
q0 19 22 19t22 -19zM727 1105q0 -14 -22 -25q-21 0 -21 25q0 19 21 19q22 0 22 -19zM1610 222q0 -14 -22 -25q-21 0 -21 25q0 18 21 18q22 0 22 -18zM773 954q-10 -9 -20 -9q-23 0 -23 20q0 23 23 23q6 0 20 -13v-21zM866 870q0 -18 -20 -18q-23 0 -23 20q0 23 23 23
q20 0 20 -25zM912 824q0 -18 -20 -18q-23 0 -23 20q0 23 25 23q18 0 18 -25zM1005 731q0 -18 -20 -18q-23 0 -23 20q0 23 23 23q20 0 20 -25zM1147 594q0 -23 -23 -23q-6 0 -20 13v17q15 13 20 13q23 0 23 -20zM1193 537q-13 -12 -23 -12q-7 0 -20 12v18q15 13 20 13
q9 0 23 -13v-18zM1286 445q-13 -13 -22 -13q-7 0 -21 13v20q10 10 20 10q9 0 23 -13v-17zM1332 398q-12 -12 -21 -12t-22 12v21q10 10 20 10q9 0 23 -13v-18zM1425 315q0 -22 -20 -22q-9 0 -23 13v17q13 13 21 13q13 0 22 -21zM1471 268q0 -21 -20 -21q-9 0 -23 13v17
q13 13 21 13q13 0 22 -22zM959 778q0 -19 -21 -19q-23 0 -23 20q0 23 23 23q21 0 21 -24zM1101 640q0 -6 -9 -14.5t-15 -8.5q-20 0 -20 23q0 20 20 20q24 0 24 -20zM819 908q-11 -10 -20 -10q-23 0 -23 20q0 23 23 23q7 0 20 -12v-21zM1239 491q-14 -13 -21 -13q-8 0 -22 13
v18q12 12 22 12q8 0 21 -12v-18zM1378 359q0 -20 -20 -20q-9 0 -23 13v18q12 12 22 12q21 0 21 -23zM727 1001q-13 -13 -22 -13q-21 0 -21 23t21 23q8 0 22 -13v-20zM1054 687q0 -23 -23 -23t-23 23q0 20 23 20t23 -20zM1564 176q0 -14 -22 -25q-21 0 -21 25q0 21 21 21
q22 0 22 -21zM637 1105q0 -6 -9 -15.5t-15 -9.5q-22 0 -22 25q0 19 22 19q24 0 24 -19zM681 1059q0 -14 -22 -25q-22 0 -22 25q0 21 22 21t22 -21zM1521 222q0 -6 -9.5 -15.5t-15.5 -9.5q-22 0 -22 25q0 18 22 18q25 0 25 -18zM820 824q0 -18 -21 -18q-23 0 -23 18
q0 25 23 25q21 0 21 -25zM1521 129q0 -6 -9.5 -15t-15.5 -9q-22 0 -22 24q0 22 22 22q13 0 25 -22zM591 1059q0 -6 -9.5 -15.5t-15.5 -9.5q-21 0 -21 25q0 21 21 21q14 0 25 -21zM637 1011q0 -23 -24 -23q-22 0 -22 23t22 23q24 0 24 -23zM680 954q-9 -9 -21 -9
q-22 0 -22 20q0 23 22 23q7 0 21 -13v-21zM727 908q-23 -10 -22 -10q-21 0 -21 20q0 23 21 23q9 0 22 -12v-21zM773 870q0 -18 -20 -18q-23 0 -23 18q0 25 23 25q20 0 20 -25zM866 778q0 -19 -20 -19q-23 0 -23 20q0 23 21 23q22 0 22 -24zM912 731q0 -18 -18 -18
q-25 0 -25 20q0 23 23 23q20 0 20 -25zM1100 537q-14 -12 -23 -12q-7 0 -20 12v18q15 13 20 13q9 0 23 -13v-18zM1147 491q-14 -13 -23 -13q-6 0 -20 13v18q13 12 20 12q10 0 23 -12v-18zM1193 445q-14 -13 -23 -13q-6 0 -20 13v17q15 13 20 13q9 0 23 -13v-17zM1239 398
q-12 -12 -21 -12t-22 12v21q10 10 20 10q9 0 23 -13v-18zM1286 359q0 -20 -22 -20q-7 0 -21 13v18q12 12 21 12q22 0 22 -23zM1332 313q0 -20 -21 -20q-22 0 -22 22q0 21 20 21q23 0 23 -23zM1378 267q0 -20 -20 -20q-9 0 -23 13v17q14 13 22 13q21 0 21 -23zM1054 594
q0 -23 -23 -23t-23 23q0 20 23 20t23 -20zM1471 176q0 -14 -22 -25q-21 0 -21 25q0 21 21 21q22 0 22 -21zM958 676q-13 -12 -20 -12q-23 0 -23 23q0 20 23 20q6 0 20 -13v-18zM1005 630q-14 -13 -20 -13q-23 0 -23 23q0 20 23 20q7 0 20 -12v-18zM1425 222q0 -14 -22 -25
q-21 0 -21 25q0 18 21 18q22 0 22 -18zM591 965q0 -20 -25 -20q-11 0 -21 9v21q14 13 21 13q25 0 25 -23zM637 918q0 -20 -24 -20q-22 0 -22 20q0 23 22 23q24 0 24 -23zM727 824q0 -18 -22 -18q-21 0 -21 18q0 25 21 25q22 0 22 -25zM1147 398q-13 -12 -23 -12q-7 0 -20 12
v18q14 13 21 13q8 0 22 -13v-18zM1286 267q0 -20 -22 -20q-21 0 -21 21q0 22 20 22q23 0 23 -23zM681 870q0 -18 -22 -18t-22 18q0 25 22 25t22 -25zM1240 313q0 -20 -22 -20q-8 0 -22 13v17q13 13 22 13q22 0 22 -23zM1471 81q0 -20 -22 -20q-10 0 -21 10v21q14 13 21 13
q22 0 22 -24zM773 769q-11 -10 -20 -10q-23 0 -23 19q0 15 22 24q8 0 21 -12v-21zM819 723q-11 -10 -20 -10q-23 0 -23 20q0 23 22 23q7 0 21 -13v-20zM1100 445q-14 -13 -23 -13q-6 0 -20 13v17q14 13 22 13q7 0 21 -13v-17zM1193 359q0 -20 -23 -20q-6 0 -20 13v18
q13 12 20 12q23 0 23 -23zM542 1011q0 -23 -22 -23q-7 0 -21 13v20q17 13 21 13q22 0 22 -23zM1425 129q0 -14 -22 -24q-21 0 -21 24q0 22 21 22q22 0 22 -22zM1054 491q-12 -13 -23 -13q-9 0 -23 13v18q12 12 25 12q8 0 21 -12v-18zM1378 174q0 -23 -21 -23q-22 0 -22 25
q0 21 22 21q21 0 21 -23zM866 676q-13 -12 -22 -12q-21 0 -21 23q0 20 21 20q8 0 22 -13v-18zM1005 537q-13 -12 -20 -12q-10 0 -23 12v18q14 13 23 13q6 0 20 -13v-18zM912 630q-14 -13 -20 -13q-23 0 -23 23q0 20 23 20q7 0 20 -12v-18zM958 584q-14 -13 -20 -13
q-23 0 -23 23q0 20 23 20q6 0 20 -13v-17zM1332 220q0 -23 -23 -23q-20 0 -20 25q0 18 20 18q23 0 23 -20zM591 870q0 -18 -25 -18q-21 0 -21 18q0 25 21 25q6 0 15.5 -9.5t9.5 -15.5zM637 824q0 -18 -24 -18q-22 0 -22 18q0 25 22 25q6 0 15 -9.5t9 -15.5zM495 965
q0 -20 -21 -20q-2 0 -22 9v21q13 13 22 13q21 0 21 -23zM542 918q0 -20 -22 -20q2 0 -21 10v21q12 12 21 12q22 0 22 -23zM727 731q0 -18 -22 -18q-21 0 -21 18q0 25 21 25q22 0 22 -25zM1147 313q0 -20 -23 -20q-6 0 -20 13v17q15 13 20 13q23 0 23 -23zM1193 267
q0 -20 -23 -20q-6 0 -20 13v17q15 13 20 13q23 0 23 -23zM1425 35q0 -20 -22 -20q2 0 -21 10v20q13 13 21 13q22 0 22 -23zM681 778q0 -19 -22 -19t-22 19q0 24 22 24t22 -24zM1101 359q0 -20 -24 -20q-6 0 -20 13v18q13 12 20 12q6 0 15 -8.5t9 -14.5zM1378 81
q0 -20 -21 -20q1 0 -22 10v21q13 13 22 13q21 0 21 -24zM1054 398q-13 -12 -23 -12q6 0 -23 12v18q13 13 25 13q7 0 21 -13v-18zM1286 174q0 -23 -23 -23q-20 0 -20 25q0 21 20 21q23 0 23 -23zM1332 128q0 -23 -23 -23q-20 0 -20 24q0 22 20 22q23 0 23 -23zM773 685
q0 -21 -20 -21q-23 0 -23 21q0 22 22 22q21 0 21 -22zM866 584q-14 -13 -22 -13q-21 0 -21 23q0 20 21 20q8 0 22 -13v-17zM912 537q-13 -12 -20 -12q-10 0 -23 12v18q14 13 23 13q6 0 20 -13v-18zM1005 445q-14 -13 -20 -13q6 0 -23 13v17q14 13 23 13q6 0 20 -13v-17z
M1240 220q0 -6 -9 -14.5t-15 -8.5q-20 0 -20 25q0 18 20 18q24 0 24 -20zM819 630q-14 -13 -21 -13q-22 0 -22 23q0 20 22 20q8 0 21 -12v-18zM958 491q-14 -13 -20 -13q-9 0 -23 13v18q13 12 23 12q7 0 20 -12v-18zM591 778q0 -19 -25 -19q-21 0 -21 19q0 24 23 24t23 -24z
M637 731q0 -18 -24 -18q-22 0 -22 18q0 25 23 25t23 -25zM542 824q0 -18 -22 -18t-22 18q0 25 22 25q12 0 22 -25zM1286 74q-14 -13 -23 -13t-20 10v21q14 13 20 13q9 0 23 -13v-18zM449 911q-14 -13 -22 -13q2 0 -21 10v21q12 12 21 12t22 -12v-18zM495 872q0 -20 -21 -20
q-22 0 -22 18q0 25 22 25q21 0 21 -23zM1100 259q-27 -12 -23 -12q-6 0 -20 13v17q14 13 22 13q7 0 21 -13v-18zM1332 28q-14 -13 -23 -13t-20 10v20q14 13 20 13q9 0 23 -13v-17zM1378 -18q-14 -13 -21 -13q-2 0 -22 9v21q13 13 22 13q7 0 21 -13v-17zM1240 129
q0 -24 -24 -24q-20 0 -20 24q0 22 20 22q24 0 24 -22zM1054 306q-14 -13 -23 -13q-23 0 -23 20q0 23 25 23q7 0 21 -13v-17zM1193 174q0 -23 -25 -23q-18 0 -18 25q0 21 18 21q25 0 25 -23zM680 676q-13 -12 -21 -12q-10 0 -22 21q0 22 22 22q7 0 21 -13v-18zM727 630
q-14 -13 -22 -13q-11 0 -21 22q0 21 21 21q9 0 22 -12v-18zM773 584q-14 -13 -21 -13q-22 0 -22 23q0 20 23 20q9 0 20 -10v-20zM819 537q-13 -12 -21 -12q-9 0 -22 12v18q14 13 23 13t20 -10v-21zM866 491q-14 -13 -22 -13q-7 0 -21 13v18q13 12 23 12t20 -9v-21zM912 445
q-14 -13 -20 -13q6 0 -23 13v17q13 13 25 13q7 0 18 -10v-20zM958 398q-13 -12 -20 -12q4 0 -23 12v18q13 13 25 13q7 0 18 -10v-21zM1005 352q-14 -13 -20 -13q-23 0 -23 20q0 23 23 23q7 0 20 -12v-18zM1147 220q0 -23 -23 -23q-20 0 -20 25q0 18 20 18q23 0 23 -20z
M449 826q0 -20 -22 -20q-21 0 -21 18q0 25 21 25q22 0 22 -23zM1286 -18q-14 -13 -23 -13t-20 10v20q14 13 20 13q9 0 23 -13v-17zM403 872q0 -20 -23 -20q-21 0 -21 18q0 25 21 25q23 0 23 -23zM542 733q0 -20 -22 -20t-22 18q0 25 24 25q20 0 20 -23zM1193 83
q0 -22 -23 -22q-9 0 -20 10v21q14 13 20 13q23 0 23 -22zM1332 -65q-14 -13 -23 -13t-20 10v21q14 13 20 13q9 0 23 -13v-18zM495 779q0 -20 -21 -20q-22 0 -22 19q0 24 23 24q20 0 20 -23zM1239 28q-14 -13 -23 -13t-20 10v20q14 13 20 13q9 0 23 -13v-17zM591 685
q0 -21 -25 -21q-8 0 -21 12v18q13 13 21 13q14 0 25 -22zM1147 129q0 -24 -23 -24q-20 0 -20 24q0 22 20 22q23 0 23 -22zM1101 176q0 -14 -22 -25q-22 0 -22 25q0 21 20 21q24 0 24 -21zM637 639q0 -22 -24 -22q-10 0 -22 22q0 21 22 21q14 0 24 -21zM727 537
q-13 -12 -22 -12q-21 0 -21 23q0 20 21 20q8 0 22 -13v-18zM866 398q-13 -12 -22 -12q-8 0 -21 12v18q14 13 23 13t20 -10v-21zM1005 259q-13 -12 -20 -12q-23 0 -23 20q0 23 23 23q6 0 20 -13v-18zM680 584q-14 -13 -21 -13q-10 0 -22 21q0 22 22 22q7 0 21 -13v-17z
M773 491q-14 -13 -21 -13q-22 0 -22 23q0 20 23 20q10 0 20 -9v-21zM819 445q-14 -13 -21 -13q-22 0 -22 23q0 20 23 20q9 0 20 -10v-20zM912 352q-14 -13 -20 -13q-23 0 -23 20q0 23 23 23q7 0 20 -12v-18zM958 306q-14 -13 -20 -13q-23 0 -23 20q0 23 23 23q6 0 20 -13
v-17zM1054 222q0 -14 -21 -25q-25 0 -25 23q0 20 23 20t23 -18zM356 826q0 -20 -23 -20q-20 0 -20 18q0 25 20 25q23 0 23 -23zM449 733q0 -20 -22 -20q-21 0 -21 18q0 25 23 25q20 0 20 -23zM1101 83q0 -22 -24 -22q-9 0 -20 10v21q14 13 20 13q24 0 24 -22zM1147 37
q0 -22 -23 -22q-9 0 -20 10v20q14 13 20 13q23 0 23 -21zM1193 -10q0 -21 -23 -21q-9 0 -20 10v20q14 13 20 13q23 0 23 -22zM1286 -104q0 -20 -23 -20q-20 0 -20 19q0 24 21 24q22 0 22 -23zM403 779q0 -20 -23 -20q-21 0 -21 19q0 24 22 24t22 -23zM1239 -65
q-14 -13 -23 -13t-20 10v21q14 13 20 13q9 0 23 -13v-18zM591 592q0 -21 -25 -21q-7 0 -21 13v17q13 13 21 13q25 0 25 -22zM637 546q0 -21 -24 -21q-22 0 -22 21q0 22 22 22q24 0 24 -22zM495 687q0 -23 -21 -23q-9 0 -22 12v18q13 13 22 13q21 0 21 -20zM542 640
q0 -23 -22 -23q-7 0 -21 13v18q12 12 21 12q22 0 22 -20zM727 445q-13 -13 -22 -13q-21 0 -21 23q0 20 21 20q2 0 22 -9v-21zM773 398q-13 -12 -21 -12q-22 0 -22 23q0 20 23 20q9 0 20 -10v-21zM866 315q0 -22 -22 -22q-21 0 -21 20q0 23 23 23q20 0 20 -21zM912 268
q0 -21 -20 -21q-14 0 -23 20q0 23 25 23q18 0 18 -22zM1054 129q0 -14 -21 -24q-25 0 -25 24q0 22 25 22q21 0 21 -22zM820 361q0 -22 -22 -22t-22 22q0 21 23 21q21 0 21 -21zM680 491q-13 -13 -21 -13q-22 0 -22 23q0 20 22 20q1 0 21 -9v-21zM1005 176q0 -25 -19 -25
q-24 0 -24 23t24 23q19 0 19 -21zM959 222q0 -25 -19 -25q-25 0 -25 23q0 20 23 20q21 0 21 -18zM1147 -65q-14 -13 -23 -13t-20 10v21q14 13 20 13q-6 0 23 -13v-18zM1240 -150q0 -20 -24 -20q-20 0 -20 18q0 25 22 25t22 -23zM310 779q0 -20 -23 -20q-20 0 -20 19
q0 24 21 24q22 0 22 -23zM356 733q0 -20 -23 -20q-20 0 -20 18q0 25 22 25q21 0 21 -23zM1100 -18q-14 -13 -23 -13t-20 10v20q14 13 20 13q-6 0 23 -13v-17zM1193 -104q0 -20 -23 -20q-20 0 -20 19q0 24 20 24q23 0 23 -23zM591 501q0 -23 -25 -23q-7 0 -21 13v18
q12 12 21 12q14 0 25 -20zM637 455q0 -23 -24 -23q-22 0 -22 23q0 20 22 20q14 0 24 -20zM1054 25q-22 -10 -23 -10q-23 0 -23 22q0 21 23 21q-4 0 23 -12v-21zM403 687q0 -23 -22 -23q-8 0 -21 12v18q13 13 21 13q22 0 22 -20zM541 537q-13 -12 -21 -12t-21 12v18
q13 13 21 13q7 0 21 -13v-18zM820 268q0 -21 -22 -21t-22 21q0 22 23 22q21 0 21 -22zM1005 81q0 -20 -20 -20q-23 0 -23 22t24 22q19 0 19 -24zM449 640q0 -23 -22 -23q-7 0 -21 13v18q12 12 21 12q22 0 22 -20zM495 594q0 -23 -21 -23q-8 0 -22 13v17q13 13 22 13
q21 0 21 -20zM680 398q-12 -12 -21 -12q-22 0 -22 23q0 20 22 20q-2 0 21 -10v-21zM727 352q-14 -13 -22 -13q-21 0 -21 22q0 21 21 21q9 0 22 -12v-18zM773 315q0 -22 -21 -22q-22 0 -22 22q0 21 23 21q20 0 20 -21zM959 129q0 -24 -19 -24q-25 0 -25 23t25 23q19 0 19 -22
zM912 176q0 -25 -18 -25q-25 0 -25 23t25 23q18 0 18 -21zM866 222q0 -25 -20 -25q-23 0 -23 23q0 20 23 20q20 0 20 -18zM1147 -150q0 -20 -22 -20q-21 0 -21 20q0 23 20 23q23 0 23 -23zM264 733q0 -20 -22 -20t-22 20q0 23 21 23q23 0 23 -23zM1101 -104q0 -20 -22 -20
t-22 20q0 23 20 23q6 0 15 -8.5t9 -14.5zM1193 -197q0 -20 -21 -20q-22 0 -22 20q0 24 20 24q6 0 14.5 -9t8.5 -15zM591 409q0 -23 -25 -23q-8 0 -21 12v21q24 10 21 10q25 0 25 -20zM1054 -65q-14 -13 -23 -13q-23 0 -23 22t23 22q-6 0 23 -13v-18zM637 361q0 -22 -23 -22
t-23 22q0 21 22 21q14 0 24 -21zM310 687q0 -23 -22 -23q-8 0 -21 12v18q13 13 21 13q22 0 22 -20zM403 594q0 -23 -22 -23q-7 0 -21 13v17q13 13 21 13q22 0 22 -20zM449 537q-13 -12 -22 -12q-8 0 -21 12v18q13 13 21 13t22 -13v-18zM542 455q0 -23 -22 -23q-7 0 -21 13
v17q13 13 21 13q22 0 22 -20zM727 259q-12 -12 -22 -12q-21 0 -21 21q0 22 21 22q8 0 22 -13v-18zM1005 -22q-10 -9 -20 -9q-23 0 -23 21q0 22 23 22q6 0 20 -13v-21zM912 81q0 -20 -20 -20q-23 0 -23 20q0 24 25 24q18 0 18 -24zM959 35q0 -20 -21 -20q-23 0 -23 22
q0 21 25 21q19 0 19 -23zM356 640q0 -23 -21 -23q-8 0 -22 13v18q12 12 22 12q21 0 21 -20zM495 491q-14 -13 -21 -13q-8 0 -22 13v18q12 12 22 12q8 0 21 -12v-18zM680 306q-14 -13 -19 -13q-24 0 -24 22q0 21 22 21q7 0 21 -13v-17zM866 129q0 -24 -20 -24q-23 0 -23 23
t23 23q20 0 20 -22zM820 176q0 -25 -21 -25q-23 0 -23 25q0 21 23 21q21 0 21 -21zM773 222q0 -25 -20 -25q-23 0 -23 25q0 18 23 18q20 0 20 -18zM1101 -197q0 -20 -22 -20t-22 20q0 24 20 24q6 0 15 -9t9 -15zM591 315q0 -22 -23 -22q-9 0 -23 13v17q13 13 21 13
q14 0 25 -21zM637 268q0 -21 -23 -21t-23 21q0 22 22 22q14 0 24 -22zM1054 -150q0 -20 -23 -20t-23 20q0 23 23 23t23 -23zM217 687q0 -23 -23 -23q-7 0 -20 12v18q15 13 20 13q23 0 23 -20zM264 640q0 -23 -23 -23q-6 0 -20 13v18q13 12 20 12q23 0 23 -20zM310 594
q0 -23 -22 -23q-7 0 -21 13v17q13 13 21 13q22 0 22 -20zM356 537q-13 -12 -21 -12q-9 0 -22 12v18q13 13 22 13q7 0 21 -13v-18zM403 491q-14 -13 -22 -13q-7 0 -21 13v18q12 12 21 12t22 -12v-18zM449 445q-14 -13 -22 -13q-7 0 -21 13v17q13 13 21 13t22 -13v-17z
M495 398q-13 -12 -20 -12q-10 0 -23 12v18q13 13 22 13q7 0 21 -13v-18zM542 361q0 -22 -20 -22q-9 0 -23 13v18q12 12 21 12q12 0 22 -21zM866 25q-11 -10 -20 -10t-23 13v17q14 13 23 13q6 0 20 -13v-20zM912 -11q0 -20 -20 -20q-23 0 -23 21q0 22 25 22q18 0 18 -23z
M1005 -105q0 -19 -20 -19q-23 0 -23 20q0 23 23 23q20 0 20 -24zM1147 -243q0 -23 -23 -23q-6 0 -20 13v17q15 13 20 13q23 0 23 -20zM819 71q-11 -10 -20 -10q-23 0 -23 20q0 6 8.5 15t14.5 9t20 -13v-21zM958 -68q-11 -10 -20 -10q-23 0 -23 22t23 22q6 0 20 -13v-21z
M727 176q0 -14 -22 -25q-21 0 -21 25q0 21 21 21q22 0 22 -21zM773 129q0 -24 -20 -24q-23 0 -23 24q0 22 23 22q20 0 20 -22zM681 222q0 -14 -22 -25q-22 0 -22 25q0 18 22 18t22 -18zM264 537q-13 -12 -23 -12q-7 0 -20 12v18q15 13 20 13q9 0 23 -13v-18zM403 398
q-12 -12 -22 -12q-8 0 -21 12v21q10 10 20 10q9 0 23 -13v-18zM542 268q0 -21 -20 -21q-9 0 -23 13v17q13 13 21 13q22 0 22 -22zM727 71q-10 -10 -22 -10q-21 0 -21 20q0 24 21 24q8 0 22 -13v-21zM866 -68q-11 -10 -20 -10t-23 13v18q14 13 23 13q6 0 20 -13v-21z
M959 -152q0 -18 -19 -18q-25 0 -25 20q0 23 23 23q21 0 21 -25zM1005 -198q0 -19 -19 -19q-24 0 -24 20q0 6 8.5 15t14.5 9q20 0 20 -25zM1101 -289q0 -6 -9 -14.5t-15 -8.5q-20 0 -20 23q0 20 20 20q24 0 24 -20zM171 640q0 -23 -23 -23q-20 0 -20 23q0 20 20 20
q23 0 23 -20zM217 594q0 -23 -23 -23q-20 0 -20 23q0 20 20 20q23 0 23 -20zM310 491q-14 -13 -22 -13q-7 0 -21 13v18q12 12 21 12t22 -12v-18zM356 445q-14 -13 -21 -13q-8 0 -22 13v17q13 13 22 13q7 0 21 -13v-17zM449 359q0 -20 -20 -20q-9 0 -23 13v18q13 12 21 12
q22 0 22 -23zM495 313q0 -20 -20 -20q-9 0 -23 13v17q14 13 22 13q21 0 21 -23zM637 176q0 -6 -9 -15.5t-15 -9.5q-22 0 -22 25q0 21 22 21q24 0 24 -21zM773 25q-11 -10 -20 -10q-23 0 -23 20q0 23 23 23q6 0 20 -13v-20zM819 -22q-10 -9 -20 -9q-23 0 -23 20q0 23 23 23
q6 0 20 -13v-21zM912 -105q0 -19 -18 -19q-25 0 -25 20q0 23 23 23q20 0 20 -24zM681 129q0 -14 -22 -24q-22 0 -22 24q0 22 22 22t22 -22zM591 222q0 -6 -9.5 -15.5t-15.5 -9.5q-21 0 -21 25q0 18 21 18q25 0 25 -18zM1054 -243q0 -23 -23 -23t-23 23q0 20 23 20t23 -20z
M637 81q0 -20 -24 -20q-22 0 -22 20q0 24 22 24q24 0 24 -24zM125 594q0 -23 -23 -23q-20 0 -20 23q0 20 20 20q23 0 23 -20zM171 537q-14 -12 -23 -12q-7 0 -20 12v18q15 13 20 13q9 0 23 -13v-18zM264 445q-14 -13 -23 -13q-6 0 -20 13v17q15 13 20 13q9 0 23 -13v-17z
M310 398q-13 -12 -22 -12q-8 0 -21 12v18q13 13 21 13t22 -13v-18zM403 313q0 -20 -22 -20q-7 0 -21 13v17q13 13 21 13q22 0 22 -23zM449 267q0 -20 -20 -20q-9 0 -23 13v17q14 13 21 13q22 0 22 -23zM591 129q0 -6 -9.5 -15t-15.5 -9q-21 0 -21 24q0 22 21 22q14 0 25 -22
zM727 -22q-20 -9 -22 -9q-21 0 -21 20q0 23 21 23q8 0 22 -13v-21zM866 -152q0 -18 -20 -18q-23 0 -23 20q0 23 21 23q22 0 22 -25zM773 -68q-11 -10 -20 -10q-23 0 -23 20q0 6 8.5 15t14.5 9t20 -13v-21zM912 -198q0 -19 -18 -19q-25 0 -25 20q0 6 8.5 15t14.5 9
q20 0 20 -25zM217 491q-14 -13 -23 -13q-6 0 -20 13v18q13 12 20 12q10 0 23 -12v-18zM356 359q0 -20 -21 -20q-8 0 -22 13v18q12 12 22 12q21 0 21 -23zM680 25q-10 -10 -21 -10q-22 0 -22 20q0 23 22 23q7 0 21 -13v-20zM819 -114q-11 -10 -20 -10q-23 0 -23 19
q0 15 22 24q7 0 21 -13v-20zM542 176q0 -14 -22 -25q-22 0 -22 25q0 21 22 21t22 -21zM1054 -335q0 -6 -8.5 -15t-14.5 -9t-14.5 9t-8.5 15q0 20 23 20t23 -20zM1005 -299q-14 -13 -20 -13q-23 0 -23 23q0 20 23 20q6 0 20 -13v-17zM495 220q0 -23 -21 -23q-22 0 -22 25
q0 18 22 18q21 0 21 -20zM958 -253q-14 -13 -20 -13q-23 0 -23 23q0 20 23 20q6 0 20 -13v-17z" />
  </g>

</svg>
