<?xml version="1.0" standalone="no"?>
<!DOCTYPE svg PUBLIC "-//W3C//DTD SVG 1.1//EN" "http://www.w3.org/Graphics/SVG/1.1/DTD/svg11.dtd" >
<svg viewBox="0 -442 2048 2048">
  <g transform="matrix(1 0 0 -1 0 1606)">
   <path fill="currentColor"
d="M938 815q0 -20 -21 -20q-18 0 -29 10v25q15 15 23 15q27 0 27 -30zM775 972q-15 -14 -27 -14t-27 14v26q10 10 27 10q19 0 27 -10v-26zM884 872q0 -23 -25 -23q-14 0 -29 14v22q14 14 29 14q25 0 25 -27zM829 913q-16 -14 -25 -14t-24 14v30q11 10 22 10q6 0 27 -9v-31z
M988 752q0 -16 -20 -16q-25 0 -25 29q0 15 10 25q7 -3 21 -17.5t14 -20.5zM1037 682h-25q-5 7 -15 19l6 26q18 -12 34 -45zM1087 628q-25 3 -35 14v26q22 -21 35 -40zM1127 569l-20 19v16q7 -12 20 -35zM829 804q-10 -9 -25 -9q-13 0 -24 10v25q8 15 24 15q14 0 25 -10v-31z
M997 652q0 -25 -29 -25q-25 0 -25 27t25 27q29 0 29 -29zM775 859q-20 -10 -27 -10q-4 0 -27 10v30q10 10 27 10q16 0 27 -10v-30zM1160 484q0 -20 -21 -20q-10 0 -33 10v25q15 15 27 15q27 0 27 -30zM1214 419q-16 -14 -29 -14q-9 0 -20 10v35q10 9 22 9t27 -14v-26z
M883 750q-16 -14 -24 -14q-9 0 -29 19v21q14 14 31 14q11 0 22 -10v-30zM1051 587q-20 -19 -29 -19q-25 0 -25 30q0 25 27 25q11 0 27 -15v-21zM1373 253q-10 -11 -23 -11q-22 0 -22 25q0 7 11 29q12 -14 34 -43zM938 696q-8 -15 -23 -15q-27 0 -27 28q0 11 11 22h33l6 -5
v-30zM716 913q-16 -14 -25 -14t-24 14v31q21 9 26 9q12 0 23 -10v-30zM1101 528q-7 -14 -22 -14q-12 0 -27 14v26q14 14 27 14q11 0 22 -10v-30zM1264 361q-11 -10 -22 -10q-23 0 -23 27q0 12 10 22h29l6 -5v-34zM1323 317q-14 -21 -25 -21q-13 0 -29 15v21q18 14 25 14
q10 0 29 -29zM1418 188h-26l-10 10l6 35q23 -23 30 -45zM666 863q-15 -14 -29 -14t-25 10v25q8 15 25 15q13 0 29 -15v-21zM1051 474q-10 -10 -27 -10q-27 0 -27 20q0 30 27 30q11 0 27 -15v-25zM775 750q-15 -14 -27 -14t-27 14v31q21 9 27 9t27 -9v-31zM997 533
q-20 -19 -32 -19q-7 0 -22 14v26q12 14 25 14q-3 0 29 -14v-21zM716 817q0 -22 -19 -22h-6q-15 0 -25 10v30q11 10 25 10q25 0 25 -28zM829 696q-14 -15 -27 -15q-6 0 -22 15v26q10 9 24 9q15 0 25 -5v-30zM884 642q-8 -15 -25 -15q-30 0 -30 25q0 29 30 29q10 0 25 -14v-25
zM1214 311q-16 -15 -27 -15t-22 10v30q11 10 22 10q6 0 27 -9v-26zM1264 267q0 -25 -22 -25q-12 0 -23 10v30q16 14 25 14q20 0 20 -29zM938 582q-16 -14 -25 -14q-8 0 -24 15v30q23 10 26 10q12 0 23 -10v-31zM1160 380q0 -29 -27 -29q-12 0 -27 14v26q10 10 27 10
q27 0 27 -21zM1323 202q-8 -14 -25 -14q-14 0 -29 14v21q15 15 29 15q9 0 25 -15v-21zM1101 427q0 -22 -22 -22q-4 0 -27 10v30q14 14 27 14q22 0 22 -25v-7zM1214 197q-18 -9 -27 -9q-12 0 -22 9v31q11 10 22 10t27 -15v-26zM607 817q0 -12 -10 -22h-29q-10 10 -10 16
q0 9 24 33q25 -9 25 -27zM666 755q-20 -19 -29 -19q-10 0 -25 14v30q11 10 23 10q16 0 31 -14v-21zM775 641q-15 -14 -27 -14t-27 14v26q14 14 27 14q12 0 27 -14v-26zM938 474q-11 -10 -25 -10t-25 10v25q15 15 27 15t23 -10v-30zM997 419q-16 -14 -29 -14q-10 0 -25 14v26
q16 14 25 14q10 0 29 -18v-22zM1160 267q0 -25 -27 -25q-12 0 -27 14v22q19 18 29 18q25 0 25 -29zM829 582q-16 -14 -25 -14q-8 0 -24 15v30q11 10 22 10q4 0 27 -10v-31zM1051 365q-15 -14 -27 -14q-27 0 -27 29q0 21 27 21q16 0 27 -10v-26zM716 709q0 -7 -10 -27h-25
l-14 15v29q3 0 11 2.5t13 2.5q25 0 25 -22zM884 541q0 -7 -10 -27h-25q-20 15 -20 29q0 25 30 25q25 0 25 -27zM1101 306q-11 -10 -22 -10t-27 15v26q21 9 27 9q11 0 22 -10v-30zM553 765q0 -14 -15 -29h-20l-10 11q18 27 34 43q11 -11 11 -25zM829 474q-11 -10 -25 -10
q-13 0 -24 10v26q15 14 24 14q14 0 25 -10v-30zM666 652q0 -25 -29 -25q-25 0 -25 27t25 27q29 0 29 -29zM1051 256q-15 -14 -27 -14q-27 0 -27 25q0 29 25 29q14 0 29 -14v-26zM997 311q-16 -15 -29 -15q-25 0 -25 28q0 22 25 22q14 0 29 -14v-21zM1101 197q-10 -9 -22 -9
q-6 0 -27 9v26q15 15 27 15q11 0 22 -10v-31zM775 528q-15 -14 -27 -14t-27 14v26q14 14 27 14q12 0 27 -14v-26zM607 709q0 -28 -27 -28q-14 0 -22 16l5 34h34q10 -10 10 -22zM883 419q-16 -14 -24 -14q-14 0 -29 14v22q19 18 29 18q9 0 24 -14v-26zM938 365
q-7 -14 -23 -14q-27 0 -27 27q0 11 11 22h33l6 -5v-30zM716 582q-16 -14 -25 -14q-8 0 -24 15v30q23 10 26 10q12 0 23 -10v-31zM499 711q0 -15 -15 -29h-26q20 31 34 45q7 -7 7 -16zM997 202q-15 -14 -29 -14t-25 10v25q8 15 25 15q13 0 29 -15v-21zM938 252
q-10 -10 -23 -10q-3 0 -26 10v30q16 14 24 14q10 0 25 -14v-30zM829 366q-14 -15 -27 -15q-7 0 -22 14v26q12 10 24 10q13 0 25 -6v-29zM553 642q-8 -15 -25 -15q-29 0 -29 25q0 29 29 29q10 0 25 -14v-25zM666 533q-20 -19 -31 -19q-8 0 -23 14v26q12 14 25 14q-3 0 29 -14
v-21zM716 474q-8 -10 -25 -10q-14 0 -25 10v30q11 10 25 10q9 0 25 -15v-25zM775 415q-20 -10 -27 -10q-4 0 -27 10v30q14 14 27 14q12 0 27 -14v-30zM607 582q-16 -14 -25 -14q-8 0 -24 15v30q11 10 22 10q4 0 27 -10v-31zM884 311q-8 -15 -25 -15q-13 0 -29 15v21
q14 14 29 14q14 0 25 -10v-25zM829 252q-20 -10 -27 -10q-11 0 -22 10v30q16 14 24 14q10 0 25 -14v-30zM607 474q-11 -10 -25 -10q-13 0 -24 10v30q11 10 22 10t27 -15v-25zM666 419q-16 -14 -29 -14q-10 0 -25 14v26q16 14 25 14q10 0 29 -18v-22zM884 210q0 -22 -25 -22
q-14 0 -29 14v21q15 15 29 15q25 0 25 -28zM775 311q-16 -15 -27 -15t-27 15v26q21 9 27 9t27 -9v-26zM499 598q0 -30 -25 -30q-9 0 -29 19v21q15 15 26 15q28 0 28 -25zM716 378q0 -7 -10 -27h-25l-14 15v29q4 0 11.5 3t12.5 3q25 0 25 -23zM553 541q0 -7 -10 -27h-25
q-19 15 -19 29q0 25 29 25q25 0 25 -27zM391 587l-16 -15l-4 4l15 16zM499 484q0 -20 -23 -20h-8q-12 0 -23 10v25q15 15 26 15q28 0 28 -30zM775 197q-18 -9 -27 -9q-6 0 -27 9v31q10 10 27 10q16 0 27 -10v-31zM716 252q-10 -10 -23 -10q-3 0 -26 10v30q16 14 24 14
q10 0 25 -14v-30zM444 528q-15 -14 -27 -14q-23 0 -23 29q0 25 23 25q12 0 27 -14v-26zM666 311q-16 -15 -29 -15q-25 0 -25 28q0 22 25 22q14 0 29 -14v-21zM553 419q-16 -14 -25 -14q-14 0 -29 14v22q19 18 29 18t25 -14v-26zM607 378q0 -27 -27 -27q-14 0 -22 15l5 34h34
q10 -10 10 -22zM390 473q-18 -9 -30 -9q-24 0 -24 20q0 30 27 30q11 0 27 -15v-26zM666 202q-15 -14 -29 -14t-25 10v25q8 15 25 15q13 0 29 -15v-21zM444 415q-20 -10 -27 -10q-11 0 -22 10v30q6 14 22 14q12 0 27 -14v-30zM607 251q-21 -9 -27 -9q-11 0 -22 10v30
q16 14 24 14q10 0 25 -14v-31zM499 380q0 -29 -28 -29q-11 0 -26 14v26l2 2q9 8 24 8q28 0 28 -21zM553 311q-8 -15 -25 -15q-13 0 -29 15v21q14 14 29 14q14 0 25 -10v-25zM499 267q0 -25 -28 -25q-11 0 -26 14v26q14 14 29 14q25 0 25 -29zM444 311q-16 -15 -27 -15
t-22 10v30q11 10 22 10q6 0 27 -9v-26zM553 210q0 -22 -25 -22q-14 0 -29 14v21q15 15 29 15q25 0 25 -28zM390 365q-15 -14 -27 -14q-27 0 -27 29q0 21 22 21h8q13 0 24 -10v-26zM331 415q-11 -10 -20 -10q-15 0 -30 14v26q14 14 27 14t23 -9v-35zM444 197q-18 -9 -27 -9
q-12 0 -22 9v31q11 10 22 10t27 -15v-26zM390 256q-15 -14 -27 -14q-27 0 -27 25q0 29 24 29q10 0 30 -19v-21zM277 365q-7 -14 -23 -14q-11 0 -22 10v30q11 10 22 10t23 -10v-26zM331 306q-11 -10 -23 -10q-10 0 -26 15v26q21 9 26 9q12 0 23 -10v-30zM276 252
q-10 -10 -22 -10q-11 0 -22 10v30q16 14 20 14q9 0 24 -14v-30zM227 321q0 -9 -15 -24h-30q0 6 -9 15q34 34 33 34q21 0 21 -25zM331 197q-10 -9 -23 -9q-5 0 -26 9v26q15 15 26 15q12 0 23 -10v-31zM166 267q0 -18 -9 -24h-29q8 24 33 49q5 -8 5 -25zM227 202
q-15 -14 -30 -14q-24 0 -24 25t24 25q14 0 30 -15v-21zM112 210q0 -14 -9 -22h-21q4 9 25 40q5 -5 5 -18z" />
  </g>

</svg>
