<?xml version="1.0" standalone="no"?>
<!DOCTYPE svg PUBLIC "-//W3C//DTD SVG 1.1//EN" "http://www.w3.org/Graphics/SVG/1.1/DTD/svg11.dtd" >
<svg viewBox="0 -442 2048 2048">
  <g transform="matrix(1 0 0 -1 0 1606)">
   <path fill="currentColor"
d="M1418 1007q-4 -9 -25 -40q-5 5 -5 18q0 14 9 22h21zM1327 983q0 -25 -24 -25q-15 0 -30 14v21q16 15 30 15q24 0 24 -25zM1372 953q-8 -25 -33 -50q-5 8 -5 26t9 24h29zM1218 972q-14 -14 -26 -14t-23 10v30q11 10 23 10q3 0 26 -10v-26zM1327 883q-34 -34 -33 -34
q-21 0 -21 25q0 9 15 24h30q0 -6 9 -15zM1268 913q-16 -14 -20 -14q-9 0 -24 14v30q10 10 22 10q11 0 22 -10v-30zM1218 858q-21 -9 -26 -9q-12 0 -23 10v30q11 10 23 10q10 0 26 -15v-26zM1268 804q-10 -9 -22 -9t-23 10v25q8 15 23 15q11 0 22 -10v-31zM1105 968
q-11 -10 -22 -10q-12 0 -27 14v26q20 10 27 10q11 0 22 -10v-30zM1164 928q0 -29 -24 -29q-10 0 -30 19v21q15 14 27 14q27 0 27 -25zM1001 972q-14 -14 -29 -14q-25 0 -25 27q0 23 25 23q13 0 29 -15v-21zM1219 750q-14 -14 -27 -14q-12 0 -23 10v34q11 10 20 10
q15 0 30 -14v-26zM1164 815q0 -20 -20 -20h-7q-16 0 -27 10v25q16 15 27 15q27 0 27 -30zM1056 913q-14 -14 -30 -14q-25 0 -25 29q0 25 28 25q12 0 27 -14v-26zM1105 859q-11 -10 -22 -10q-4 0 -27 10v26q15 14 27 14q11 0 22 -10v-30zM1056 804q-9 -9 -27 -9q-28 0 -28 20
q0 30 28 30q11 0 27 -15v-26zM1001 863q-14 -14 -29 -14q-14 0 -25 10v25q8 15 25 15q13 0 29 -15v-21zM888 972q-7 -14 -25 -14q-14 0 -29 14v21q16 15 29 15q14 0 25 -10v-26zM942 913q-16 -14 -24 -14q-10 0 -25 14v31q21 9 27 9q11 0 22 -10v-30zM1105 751
q-7 -15 -22 -15q-12 0 -27 14v31q18 9 27 9q11 0 22 -10v-29zM1164 711q0 -30 -27 -30q-11 0 -27 15v26q18 9 30 9q24 0 24 -20zM942 829l-5 -34h-34q-10 10 -10 22q0 28 27 28q14 0 22 -16zM1001 755q-20 -19 -29 -19q-10 0 -25 14v26q16 14 25 14q14 0 29 -14v-21z
M779 968q-10 -10 -27 -10q-16 0 -27 10v30q20 10 27 10q4 0 27 -10v-30zM888 872q0 -23 -25 -23q-14 0 -29 14v22q15 14 29 14q25 0 25 -27zM1106 652q0 -25 -23 -25q-12 0 -27 14v26q15 14 27 14q23 0 23 -29zM833 913q-16 -14 -24 -14q-10 0 -25 14v30q10 10 23 10
q5 0 26 -9v-31zM1056 696q-15 -15 -27 -15q-28 0 -28 30q0 20 23 20h8q13 0 24 -10v-25zM1129 619l-15 -16l-5 5l16 16zM833 800q-3 0 -11 -2.5t-13 -2.5q-25 0 -25 22q0 7 10 27h25l14 -15v-29zM1001 652q0 -25 -29 -25q-25 0 -25 27q0 7 10 27h25q19 -15 19 -29zM1055 587
q-14 -14 -26 -14q-28 0 -28 25q0 29 25 29q9 0 29 -19v-21zM670 972q-14 -14 -29 -14q-25 0 -25 27q0 23 25 23q13 0 29 -15v-21zM779 858q-21 -9 -27 -9q-4 0 -27 10v26q15 14 27 14q11 0 27 -15v-26zM888 750q-16 -14 -25 -14t-29 19v21q16 14 29 14q10 0 25 -14v-26z
M942 691q-11 -10 -22 -10t-27 15v26q10 9 25 9q13 0 24 -10v-30zM720 913q-16 -14 -24 -14q-10 0 -25 14v31q18 9 27 9q11 0 22 -10v-30zM942 582q-10 -9 -22 -9q-6 0 -27 9v31q16 14 25 14t24 -14v-31zM670 863q-14 -14 -29 -14q-14 0 -25 10v25q8 15 25 15q13 0 29 -15
v-21zM720 804q-10 -9 -24 -9q-15 0 -25 5v30q14 15 27 15q6 0 22 -15v-26zM779 750q-14 -14 -27 -14q-12 0 -27 14v31q18 9 27 9q6 0 27 -9v-31zM834 691q-11 -10 -25 -10q-9 0 -25 15v25q8 10 25 10q14 0 25 -10v-30zM888 641q-12 -14 -25 -14q3 0 -29 14v22q19 18 31 18
q8 0 23 -14v-26zM1001 543q0 -29 -29 -29q-10 0 -25 14v26q8 14 25 14q29 0 29 -25zM557 972q-7 -14 -25 -14q-14 0 -29 14v21q16 15 29 15q14 0 25 -10v-26zM611 913q-16 -14 -24 -14q-10 0 -25 14v30q10 10 23 10q5 0 26 -9v-31zM1042 513q-18 -28 -34 -44q-7 7 -7 15
q0 15 15 29h26zM833 582q-21 -9 -26 -9q-12 0 -23 10v30q16 14 25 14t24 -14v-31zM612 817q0 -11 -11 -22h-33l-6 5v30q8 15 23 15q27 0 27 -28zM448 972q-14 -14 -27 -14q-11 0 -22 10v30q11 10 22 10q4 0 27 -10v-26zM670 755q-20 -19 -29 -19t-24 14v26q16 14 24 14
q14 0 29 -14v-21zM942 498l-5 -34h-34q-10 10 -10 23q0 27 27 27q14 0 22 -16zM779 641q-14 -14 -27 -14q-12 0 -27 14v26q15 14 27 14t27 -14v-26zM557 872q0 -23 -25 -23q-14 0 -29 14v22q15 14 29 14q25 0 25 -27zM503 928q0 -29 -25 -29q-14 0 -29 14v26q15 14 27 14
q27 0 27 -25zM888 541q0 -27 -25 -27q-29 0 -29 29q0 25 29 25q25 0 25 -27zM720 696q-16 -15 -24 -15q-14 0 -25 10v31q10 9 25 9q13 0 24 -10v-25zM992 448q-18 -27 -34 -43q-11 11 -11 25t15 29h20zM448 858q-21 -9 -27 -9q-11 0 -22 10v30q11 10 22 10t27 -15v-26z
M671 652q0 -25 -30 -25q-25 0 -25 27q0 7 10 27h25q20 -15 20 -29zM833 469q-3 0 -11 -2.5t-13 -2.5q-25 0 -25 23q0 7 10 27h25l14 -15v-30zM503 815q0 -20 -24 -20h-6q-13 0 -24 10v25q16 15 27 15q27 0 27 -30zM720 582q-10 -9 -22 -9q-6 0 -27 9v31q16 14 25 14t24 -14
v-31zM335 968q-11 -10 -22 -10q-12 0 -27 14v26q20 10 27 10q11 0 22 -10v-30zM394 918q-20 -19 -29 -19q-25 0 -25 29q0 25 27 25q12 0 27 -14v-21zM557 750q-16 -14 -25 -14t-29 19v21q16 14 29 14q10 0 25 -14v-26zM612 696q-15 -15 -27 -15t-23 10v31q10 9 25 9
q14 0 25 -10v-25zM779 528q-14 -14 -27 -14q-12 0 -27 14v26q15 14 27 14t27 -14v-26zM888 415q-11 -10 -23 -10q-16 0 -31 14v22q19 18 29 18t25 -14v-30zM942 385q0 -10 -24 -34q-25 9 -25 27q0 12 10 22h29q10 -10 10 -15zM231 972q-14 -14 -29 -14q-10 0 -25 14v21
q9 15 25 15q13 0 29 -15v-21zM394 804q-9 -9 -27 -9q-27 0 -27 20q0 30 27 30q11 0 27 -15v-26zM448 750q-14 -14 -27 -14q-22 0 -22 25v7q0 22 22 22q6 0 27 -9v-31zM611 582q-21 -9 -26 -9q-12 0 -23 10v30q16 14 25 14t24 -14v-31zM834 361q-11 -10 -25 -10q-25 0 -25 27
q0 23 21 23h7q11 0 22 -10v-30zM281 913q-16 -14 -25 -14q-20 0 -20 29q0 25 22 25q12 0 23 -10v-30zM335 859q-11 -10 -22 -10q-4 0 -27 10v26q15 14 27 14q11 0 22 -10v-30zM671 543q0 -29 -30 -29q-10 0 -25 14v26q8 14 25 14q30 0 30 -25zM720 474q-11 -10 -24 -10
t-25 6v29q14 15 27 15q6 0 22 -15v-25zM557 641q-12 -14 -25 -14q3 0 -29 14v22q19 18 32 18q7 0 22 -14v-26zM779 415q-23 -10 -27 -10t-27 10v30q15 14 27 14t27 -14v-30zM503 711q0 -30 -27 -30q-11 0 -27 15v25q10 10 27 10q27 0 27 -20zM888 311q-8 -15 -25 -15
q-13 0 -29 15v21q15 14 29 14t25 -10v-25zM118 997l-6 -35q-23 23 -30 45h26zM281 817q0 -12 -10 -22h-29l-6 5v35q11 10 22 10q23 0 23 -28zM231 863q-18 -14 -25 -14q-9 0 -29 30q14 20 25 20q13 0 29 -15v-21zM448 641q-14 -14 -27 -14q-11 0 -22 10v30q7 14 22 14
q12 0 27 -14v-26zM833 251q-21 -9 -26 -9q-12 0 -23 10v30q16 14 25 14t24 -14v-31zM503 598q0 -25 -27 -25q-12 0 -27 14v21q20 19 29 19q25 0 25 -29zM612 487q0 -12 -11 -23h-33l-6 6v29q8 15 23 15q27 0 27 -27zM172 928q0 -7 -11 -29q-12 14 -34 43q10 11 23 11
q22 0 22 -25zM670 419q-14 -14 -31 -14q-11 0 -22 10v30q16 14 24 14q10 0 29 -18v-22zM335 746q-11 -10 -22 -10q-12 0 -27 14v26q16 14 29 14q9 0 20 -10v-34zM394 696q-15 -15 -27 -15q-27 0 -27 30q0 20 21 20q12 0 33 -9v-26zM779 306q-10 -10 -27 -10q-16 0 -27 10v31
q18 9 27 9q6 0 27 -9v-31zM720 365q-7 -14 -24 -14q-14 0 -25 10v30q11 10 25 10q13 0 24 -10v-26zM557 541q0 -27 -25 -27q-29 0 -29 29q0 25 29 25q25 0 25 -27zM393 591q-14 23 -20 36l20 -19v-17zM448 528q-24 22 -35 39q25 -3 35 -14v-25zM503 494l-6 -25
q-19 12 -34 44h25q5 -7 15 -19zM557 430q0 -15 -10 -25q-7 3 -21 18t-14 21q0 15 20 15q25 0 25 -29zM720 252q-11 -10 -22 -10q-4 0 -27 10v30q16 14 25 14t24 -14v-30zM779 197q-9 -9 -27 -9q-19 0 -27 10v25q15 14 27 14t27 -14v-26zM670 311q-15 -15 -29 -15
q-25 0 -25 28q0 22 22 22q17 0 32 -14v-21zM612 365q-14 -14 -23 -14q-27 0 -27 29q0 21 25 21q14 0 25 -10v-26z" />
  </g>

</svg>
