<?xml version="1.0" standalone="no"?>
<!DOCTYPE svg PUBLIC "-//W3C//DTD SVG 1.1//EN" "http://www.w3.org/Graphics/SVG/1.1/DTD/svg11.dtd" >
<svg viewBox="0 -442 2048 2048">
  <g transform="matrix(1 0 0 -1 0 1606)">
   <path fill="currentColor"
d="M1918 -51q0 6 -13 -74q-14 -88 -91 -142q-71 -51 -164 -51h-1300q2 0 -75 13q-88 15 -142 91q-51 72 -51 164v1300q0 5 12 75q15 90 95 144q72 49 168 49h1286q93 0 167 -51q80 -54 95 -142q13 -75 13 -74v-1302zM1800 -34v1268q0 77 -47.5 121.5t-125.5 44.5h-1254
q-78 0 -125.5 -44.5t-47.5 -121.5v-1267q0 -74 46.5 -120.5t120.5 -46.5h1266q74 0 120.5 46t46.5 120zM1430 935h-762v-761q0 -4 -8 -4q-90 0 -90 89v682q0 90 96 90h668q93 0 96 -96zM1709 -44q0 -21 -22.5 -43t-43.5 -22h-1290q-4 0 -42 18q22 23 68 69h1243v1243
q21 21 62 65q25 -25 25 -42v-1288z" />
  </g>

</svg>
