<?xml version="1.0" standalone="no"?>
<!DOCTYPE svg PUBLIC "-//W3C//DTD SVG 1.1//EN" "http://www.w3.org/Graphics/SVG/1.1/DTD/svg11.dtd" >
<svg viewBox="0 -442 2048 2048">
  <g transform="matrix(1 0 0 -1 0 1606)">
   <path fill="currentColor"
d="M1642 1180q0 -26 -29 -26q-26 0 -26 22q0 33 26 33q29 0 29 -29zM1781 1020q-10 -11 -21 -11q-5 0 -14 1.5t-13 1.5v38l17 17q20 -20 31 -47zM1736 1075v-4q-13 -14 -25 -14q-30 0 -30 29t30 29q26 0 25 -40zM1594 1226q0 -27 -26 -27q-29 0 -29 29t27 29q28 0 28 -31z
M1691 1131q0 -29 -28 -29q-27 0 -27 29t27 29q28 0 28 -29zM1545 1276q0 -29 -25 -29q-29 0 -29 29t27 29t27 -29zM1497 1322q0 -26 -26 -26q-32 0 -32 29q0 26 24 26q11 0 33 -17q1 -2 1 -12zM1445 1362q-9 -18 -18 -18h-6q-27 0 -27 28q0 12 8 20q15 -10 43 -30zM1810 958
h-15q-17 14 -17 31q0 12 8 20q11 -19 24 -51zM1691 1036q0 -27 -29 -27q-4 0 -12 1.5t-9.5 3t-3 9.5t-1.5 12q0 32 27 32q28 0 28 -31zM1787 939q0 -27 -29 -27q-11 0 -25 7v34q17 17 25 17q29 0 29 -31zM1642 1086q0 -29 -29 -29q-26 0 -26 24q0 34 26 34q29 0 29 -29z
M1545 1180q0 -26 -29 -26q-25 0 -25 26q0 29 27 29t27 -29zM1449 1276q0 -29 -26 -29q-29 0 -29 29t27 29q28 0 28 -29zM1594 1131q0 -29 -28 -29q-27 0 -27 29t27 29q28 0 28 -29zM1355 1372q0 -28 -29 -28q-31 0 -29 32v10q21 13 29 13q29 0 29 -27zM1400 1322
q0 -26 -27 -26t-27 27q0 28 25 28q29 0 29 -29zM1307 1418q0 -26 -31 -26q-27 0 -27 29q0 23 16 23q42 0 42 -26zM1497 1226q0 -27 -26 -27q-14 0 -32 17v25q26 16 29 16q29 0 29 -31zM1736 988q0 -31 -26 -31q-29 0 -29 32q0 29 29 29q26 0 26 -30zM1832 891q0 -31 -27 -31
t-27 33q0 29 27 29t27 -31zM1861 816h-14q-21 0 -21 27q0 20 14 27h11q3 -18 10 -54zM1249 1449q-7 -8 -19 -8q-16 0 -26 10v12q15 -3 45 -14zM1594 1035q0 -26 -28 -26q-4 0 -11.5 1.5t-11.5 1.5q0 4 -2 11.5t-2 11.5q0 32 27 32q28 0 28 -32zM1691 939q0 -27 -28 -27
q-27 0 -27 27q0 31 27 31q28 0 28 -31zM1545 1085q0 -28 -25 -28q-29 0 -29 28q0 30 27 30t27 -30zM1787 844q0 -29 -29 -29q-9 0 -25 8v33q17 17 25 17q29 0 29 -29zM1449 1180q0 -26 -29 -26q-26 0 -26 26q0 29 27 29q28 0 28 -29zM1258 1357q-17 -13 -28 -13
q-15 0 -26 10v32q15 13 26 13q13 0 28 -14v-28zM1642 989q0 -32 -29 -32q-26 0 -26 28q0 33 26 33q29 0 29 -29zM1355 1276q0 -29 -29 -29q-31 0 -29 32v10q28 16 29 16q29 0 29 -29zM1307 1322q0 -26 -29 -26t-29 29q0 26 27 26q31 0 31 -29zM1881 736q0 -17 -26 -17
q-29 0 -29 29t27 29q28 0 28 -41zM1400 1226q0 -27 -27 -27t-27 29t25 29q29 0 29 -31zM1832 794q0 -27 -27 -27t-27 29t27 29t27 -31zM1210 1421q0 -29 -29 -29t-29 31q0 24 29 24t29 -26zM1736 891q0 -31 -26 -31q-29 0 -29 31t29 31q26 0 26 -31zM1497 1131
q0 -29 -26 -29q-34 0 -32 37v5q27 16 29 16q29 0 29 -29zM1162 1458q0 -17 -27 -17h-9q-13 0 -22 17v18h58v-18zM1883 680l-9 8l5 31q4 -11 4 -34v-5zM1787 749q0 -30 -29 -30q-11 0 -25 7v37q14 14 24 14q30 0 30 -28zM1117 1421q0 -29 -33 -29q-4 0 -11.5 2t-10.5 2
q0 6 -1.5 19t-1.5 19q15 13 25 13q33 0 33 -26zM1259 1276q0 -29 -28 -29q-27 0 -27 29t26 29q29 0 29 -29zM1355 1180q0 -26 -29 -26t-29 27q0 28 29 28t29 -29zM1449 1085q0 -28 -26 -28q-29 0 -29 29t27 29q28 0 28 -30zM1594 939q0 -27 -28 -27q-27 0 -27 26q0 32 27 32
q28 0 28 -31zM1691 844q0 -29 -28 -29q-27 0 -27 28q0 30 27 30q28 0 28 -29zM1881 651q0 -26 -21 -26q-5 0 -15 2t-15 2q0 4 -2 12t-2 12q0 30 27 30q28 0 28 -32zM1307 1226q0 -27 -29 -27t-29 29t27 29q31 0 31 -31zM1497 1036q0 -27 -26 -27q-32 0 -32 27q0 31 29 31
t29 -31zM1545 988q0 -31 -27 -31t-27 31q0 30 27 30t27 -30zM1642 891q0 -9 -10 -20t-19 -11q-26 0 -26 28q0 34 26 34q29 0 29 -31zM1162 1372q0 -28 -26 -28q-32 0 -32 29q0 26 29 26t29 -27zM1210 1322q0 -26 -27 -26q-31 0 -31 29q0 26 29 26t29 -29zM1736 796
q0 -29 -26 -29q-29 0 -29 27q0 31 29 31q26 0 26 -29zM1400 1131q0 -29 -27 -29t-27 29t25 29q29 0 29 -29zM1832 699q0 -29 -25 -29q-29 0 -29 29t27 29t27 -29zM1065 1468q0 -27 -29 -27t-29 27q0 21 24 21q5 0 15 -2t15 -2q0 -3 2 -8.5t2 -8.5zM1890 577q-16 14 -16 27
q0 21 16 24v-51zM1787 651q0 -26 -24 -26q-5 0 -15 2t-15 2v37q16 17 25 17q29 0 29 -32zM1259 1180q0 -26 -29 -26q-4 0 -11.5 2t-11.5 2q0 3 -1.5 10.5t-1.5 11.5q0 29 26 29q29 0 29 -29zM1355 1085q0 -28 -27 -28q-33 0 -31 33v9q28 16 29 16q29 0 29 -30zM1117 1322
q0 -26 -31 -26q-27 0 -27 30q0 25 25 25q33 0 33 -29zM1691 749q0 -30 -28 -30q-27 0 -27 29t27 29q28 0 28 -28zM1400 1035q0 -26 -29 -26q-25 0 -25 27q0 31 25 31q29 0 29 -32zM1020 1421q0 -9 -11 -19t-20 -10q-20 0 -25 12q0 3 -2 30q15 13 27 13q31 0 31 -26z
M1594 844q0 -29 -28 -29q-27 0 -27 28q0 30 27 30q28 0 28 -29zM1642 794q0 -27 -29 -27q-26 0 -26 26q0 32 26 32q29 0 29 -31zM1162 1276q0 -29 -26 -29q-32 0 -32 31q0 27 30 27q28 0 28 -29zM1210 1226q0 -27 -27 -27q-31 0 -31 29t29 29q9 0 19 -11t10 -20zM1307 1131
q0 -29 -29 -29t-29 31q0 27 27 27q31 0 31 -29zM1449 988q0 -31 -28 -31q-27 0 -27 32q0 29 27 29q28 0 28 -30zM1497 939q0 -27 -26 -27q-32 0 -32 27q0 31 29 31t29 -31zM1545 891q0 -31 -27 -31t-27 31t27 31t27 -31zM1832 604q0 -30 -25 -30q-30 0 -30 35q0 4 1 9
q16 14 25 14q29 0 29 -28zM1065 1372q0 -28 -27 -28q-31 0 -31 28q0 27 29 27t29 -27zM1736 699q0 -29 -26 -29q-29 0 -29 29t27 29q28 0 28 -29zM1881 554q0 -29 -24 -29q-31 0 -31 29t27 29q28 0 28 -29zM972 1467q0 -26 -31 -26t-31 27q0 21 28 21h10q24 0 24 -22z
M1890 534q-4 -24 -4 -47q-12 11 -12 20q0 23 16 27zM1259 1085q0 -28 -28 -28q-20 0 -24 9q-3 5 -3 17q0 32 26 32q29 0 29 -30zM1691 651q0 -26 -28 -26q-4 0 -12 2t-12 2q0 4 -1.5 12t-1.5 12q0 30 27 30q28 0 28 -32zM1117 1226q0 -27 -31 -27q-27 0 -27 27q0 31 25 31
q33 0 33 -31zM1307 1035q0 -26 -31 -26q-27 0 -27 27q0 31 27 31q31 0 31 -32zM1020 1322q0 -26 -31 -26q-27 0 -27 29q0 26 29 26t29 -29zM1162 1180q0 -26 -29 -26t-29 27q0 28 30 28q28 0 28 -29zM1594 748q0 -29 -28 -29q-27 0 -27 29t27 29q28 0 28 -29zM1400 941
q0 -29 -27 -29t-27 27q0 31 25 31q29 0 29 -29zM1545 796q0 -29 -27 -29t-27 27q0 31 27 31t27 -29zM1787 554q0 -29 -27 -29q8 0 -27 11v33q14 14 25 14q29 0 29 -29zM1832 509q0 -29 -27 -29t-27 29t27 29t27 -29zM923 1421q0 -29 -29 -29t-29 29q0 26 29 26t29 -26z
M1642 699q0 -29 -29 -29q-26 0 -26 26q0 32 28 32q27 0 27 -29zM1355 989q0 -32 -27 -32q-34 0 -32 35l1 10q28 16 29 16q29 0 29 -29zM972 1372q0 -28 -31 -28t-31 29q0 26 31 26t31 -27zM1449 891q0 -31 -26 -31q-29 0 -29 31t27 31q28 0 28 -31zM1065 1278q0 -31 -27 -31
q-31 0 -31 31q0 8 11.5 17.5t19.5 9.5q27 0 27 -27zM1210 1131q0 -8 -9.5 -18.5t-17.5 -10.5q-31 0 -31 42q27 16 29 16q29 0 29 -29zM1497 844q0 -29 -26 -29q-32 0 -32 29t31 29q27 0 27 -29zM1736 606q0 -32 -25 -32q-30 0 -30 30q0 28 29 28q26 0 26 -26zM1881 461
q0 -33 -24 -33q-31 0 -31 31q0 28 29 28q26 0 26 -26zM875 1458q-12 -17 -31 -17q-27 0 -27 17v18h58v-18zM1594 653q0 -28 -28 -28q-4 0 -11.5 2t-11.5 2q0 4 -2 12t-2 12q0 30 27 30q28 0 28 -30zM1020 1226q0 -27 -31 -27q-27 0 -27 29t27 29q31 0 31 -31zM1117 1131
q0 -9 -11 -19t-20 -10q-27 0 -27 33q0 25 25 25q33 0 33 -29zM1162 1085q0 -28 -26 -28q-32 0 -32 29t30 29q28 0 28 -30zM1210 1035q0 -26 -26 -26q-32 0 -32 27q0 31 29 31t29 -32zM1259 988q0 -31 -28 -31q-27 0 -27 29q0 32 26 32q29 0 29 -30zM1307 939q0 -27 -29 -27
t-29 27q0 31 27 31q31 0 31 -31zM1642 604q0 -30 -27 -30q-11 0 -27 10v34q16 14 25 14q29 0 29 -28zM875 1372q0 -28 -31 -28q-27 0 -27 28q0 27 29 27t29 -27zM923 1323q0 -27 -29 -27t-29 29q0 26 29 26t29 -28zM1065 1181q0 -27 -31 -27q-27 0 -27 27q0 28 29 28t29 -28
zM1449 796q0 -29 -28 -29q-27 0 -27 27q0 31 27 31q28 0 28 -29zM1691 554q0 -29 -26 -29q-29 0 -29 31q0 27 26 27q29 0 29 -29zM1736 509q0 -29 -26 -29q-29 0 -29 29t27 29q28 0 28 -29zM1787 459q0 -31 -27 -31q8 0 -27 11v34q14 14 25 14q29 0 29 -28zM827 1421
q0 -29 -30 -29q-29 0 -29 29q0 26 29 26q30 0 30 -26zM972 1276q0 -9 -11 -19t-20 -10q-31 0 -31 29t31 29t31 -29zM1355 891q0 -31 -29 -31t-29 31t29 31q9 0 19 -11t10 -20zM1400 844q0 -29 -27 -29t-27 29t27 29t27 -29zM1545 699q0 -29 -25 -29q-29 0 -29 29t27 29
t27 -29zM1832 412q0 -29 -25 -29q-29 0 -29 29t25 29q29 0 29 -29zM1497 749q0 -30 -27 -30q-31 0 -31 41q18 17 31 17q27 0 27 -28zM1867 377q0 -7 -3 -19.5t-3 -18.5q-7 -2 -16 -2t-16 2q0 5 -1.5 14.5t-1.5 14.5q0 13 17 25h17q7 -4 7 -16zM778 1459q-11 -18 -29 -18
q-11 0 -19 8q17 6 48 10zM1117 1035q0 -15 -29 -26q-9 1 -26 3q0 4 -1.5 13t-1.5 13q0 29 25 29q33 0 33 -32zM1642 509q0 -29 -22 -29q-5 0 -14.5 2t-14.5 2q-4 7 -4 20q0 34 28 34q27 0 27 -29zM1787 364q0 -29 -30 -29q-19 0 -22 6t-3 18q0 34 26 34q29 0 29 -29z
M972 1180q0 -26 -34 -26q-28 0 -28 29q0 26 31 26t31 -29zM1259 891q0 -31 -26 -31q-29 0 -29 28q0 34 26 34q29 0 29 -31zM875 1276q0 -9 -11 -19t-20 -10q-27 0 -27 31q0 27 27 27q31 0 31 -29zM923 1228q0 -29 -29 -29t-29 29t29 29t29 -29zM1020 1131q0 -9 -11 -19
t-20 -10q-27 0 -27 31q0 27 26 27q32 0 32 -29zM1065 1086q0 -29 -27 -29q-31 0 -31 31q0 8 10.5 17.5t18.5 9.5q29 0 29 -29zM1210 938q0 -26 -27 -26q-31 0 -31 27q0 31 29 31t29 -32zM1307 844q0 -29 -29 -29t-29 29t29 29t29 -29zM1355 794q0 -27 -27 -27q-31 0 -31 27
q0 31 29 31q9 0 19 -11t10 -20zM1497 653q0 -28 -22 -28q-5 0 -14.5 2t-14.5 2q-7 12 -7 24q0 30 31 30q27 0 27 -30zM827 1323q0 -27 -28 -27q-31 0 -31 29q0 26 29 26q30 0 30 -28zM1400 748q0 -29 -25 -29q-29 0 -29 30q0 28 27 28t27 -29zM1545 606q0 -32 -25 -32
q-29 0 -29 29t29 29q25 0 25 -26zM1691 461q0 -33 -26 -33q-29 0 -29 31q0 28 27 28q28 0 28 -26zM1832 317q0 -30 -25 -30q-29 0 -29 30q0 28 27 28t27 -28zM730 1423q0 -31 -31 -31q-27 0 -27 25v17q54 13 40 13q18 0 18 -24zM778 1373q0 -29 -29 -29t-29 29q0 26 31 26
q27 0 27 -26zM1162 988q0 -31 -24 -31q-34 0 -34 32q0 29 29 29t29 -30zM1449 701q0 -31 -26 -31q-29 0 -29 29t29 29q26 0 26 -27zM1736 412q0 -29 -25 -29q-30 0 -30 29t27 29q28 0 28 -29zM1594 556q0 -31 -26 -31q-30 0 -30 35q0 5 1 10q15 13 27 13q28 0 28 -27z
M1844 296q-7 -28 -17 -42v25zM1020 1035q0 -26 -32 -26q-26 0 -26 27q0 31 27 31q31 0 31 -32zM1117 939q0 -27 -31 -27q-27 0 -27 26q0 32 25 32q33 0 33 -31zM1787 267q0 -26 -30 -26q-25 0 -25 23q0 32 26 32q29 0 29 -29zM875 1181q0 -27 -32 -27q-26 0 -26 27
q0 28 29 28t29 -28zM1259 796q0 -29 -28 -29q-27 0 -27 26q0 32 27 32q28 0 28 -29zM1691 364q0 -29 -28 -29q-4 0 -12 2t-12 2q0 4 -1.5 11.5t-1.5 11.5q0 31 26 31q29 0 29 -29zM972 1085q0 -28 -31 -28t-31 31q0 27 31 27t31 -30zM1400 653q0 -28 -27 -28t-27 28
q0 30 27 30t27 -30zM1545 509q0 -29 -27 -29t-27 29t27 29t27 -29zM1642 412q0 -29 -27 -29q-28 0 -28 26q0 32 28 32q27 0 27 -29zM1307 749q0 -30 -28 -30q-30 0 -30 30q0 28 29 28t29 -28zM827 1228q0 -29 -28 -29q-31 0 -31 31q0 27 29 27q30 0 30 -29zM778 1278
q0 -31 -29 -31t-29 31q0 27 29 27t29 -27zM923 1133q0 -31 -29 -31t-29 31q0 27 29 27t29 -27zM1210 844q0 -29 -27 -29q-31 0 -31 29t31 29q27 0 27 -29zM1355 699q0 -29 -27 -29q-31 0 -31 29t31 29q27 0 27 -29zM730 1323q0 -27 -31 -27q-27 0 -27 29q0 26 29 26t29 -28z
M1449 604q0 -30 -26 -30q-29 0 -29 30q0 28 29 28q26 0 26 -28zM1736 317q0 -30 -25 -30q-30 0 -30 29t29 29q26 0 26 -28zM1162 891q0 -31 -26 -31q-32 0 -32 33q0 29 29 29t29 -31zM1594 461q0 -33 -26 -33q-29 0 -29 31q0 28 27 28q28 0 28 -26zM681 1373q0 -29 -27 -29
q-31 0 -31 29q0 26 31 26q27 0 27 -26zM1065 989q0 -8 -9.5 -20t-16.5 -12q-34 0 -32 39v6q27 16 29 16q29 0 29 -29zM1497 554q0 -29 -26 -29q-32 0 -32 31q0 27 29 27t29 -29zM633 1418l-5 -16q-3 -9 -13 -9h-24q10 10 42 25zM1823 236l-21 -49q-24 11 -24 30v9
q0 13 14 19h27q4 -5 4 -9zM1787 171q0 -26 -30 -26q-8 0 -24 7v34q16 14 25 14q29 0 29 -29zM875 1086q0 -29 -31 -29q-27 0 -27 31q0 27 27 27q31 0 31 -29zM923 1036q0 -27 -30 -27q-28 0 -28 27q0 31 29 31q9 0 19 -11t10 -20zM1020 938q0 -26 -31 -26q-27 0 -27 27
q0 31 26 31q32 0 32 -32zM1117 844q0 -9 -11 -19t-20 -10q-27 0 -27 28q0 30 27 30q31 0 31 -29zM1307 651q0 -26 -29 -26t-29 28q0 30 29 30t29 -32zM1691 267q0 -26 -29 -26q-26 0 -26 26q0 29 26 29q29 0 29 -29zM1642 316q0 -29 -27 -29q-11 0 -27 10v34q16 14 25 14
q29 0 29 -29zM778 1181q0 -27 -30 -27q-28 0 -28 27q0 28 29 28t29 -28zM1259 699q0 -29 -28 -29q-27 0 -27 28q0 30 27 30q28 0 28 -29zM1449 509q0 -29 -28 -29q-27 0 -27 29t29 29q26 0 26 -29zM1594 364q0 -29 -28 -29q-27 0 -27 29t29 29q26 0 26 -29zM1545 412
q0 -29 -25 -29q-29 0 -29 29t29 29q25 0 25 -29zM730 1228q0 -29 -29 -29t-29 29t29 29t29 -29zM1162 796q0 -29 -24 -29q-34 0 -34 29t29 29t29 -29zM1355 604q0 -30 -27 -30q-31 0 -31 30q0 28 31 28q27 0 27 -28zM1210 748q0 -7 -9.5 -18t-16.5 -11q-33 0 -32 36v5
q18 17 31 17q27 0 27 -29zM827 1133q0 -31 -28 -31q-31 0 -31 33q0 25 29 25q30 0 30 -27zM972 988q0 -31 -29 -31q-33 0 -33 34q0 8 10.5 17.5t18.5 9.5q33 0 33 -30zM681 1278q0 -31 -27 -31q-31 0 -31 31q0 27 31 27q27 0 27 -27zM633 1323q0 -27 -27 -27q-31 0 -31 29
q0 26 31 26q27 0 27 -28zM588 1372q0 -28 -29 -28q-13 0 -29 11v11q17 8 47 26q11 -11 11 -20zM1065 891q0 -8 -9.5 -19.5t-16.5 -11.5q-32 0 -32 33q0 9 10 19t19 10q29 0 29 -31zM1400 556q0 -31 -27 -31t-27 31q0 27 27 27t27 -27zM1736 221q0 -31 -26 -31q-31 0 -29 35
v6q15 14 29 14q26 0 26 -24zM1497 461q0 -8 -9 -20.5t-17 -12.5q-32 0 -32 31q0 28 29 28t29 -26zM1117 749q0 -30 -29 -30t-29 32q0 26 27 26q31 0 31 -28zM827 1036q0 -27 -26 -27q-4 0 -12.5 1.5t-12.5 1.5q-8 14 -8 26q0 29 29 29q9 0 19.5 -11t10.5 -20zM1690 158
q-12 -13 -27 -13q-4 0 -11.5 1.5t-11.5 1.5q-4 11 -4 32v6q16 14 27 14q17 0 27 -14v-28zM778 1086q0 -29 -29 -29t-29 29t29 29t29 -29zM923 939q0 -27 -29 -27t-29 29t29 29t29 -31zM1020 844q0 -29 -29 -29t-29 29t27 29q31 0 31 -29zM1210 653q0 -28 -22 -28
q-36 0 -36 28q0 30 31 30q27 0 27 -30zM1355 509q0 -5 -9 -17t-13 -12q-36 0 -36 27q0 31 31 31q8 0 17.5 -10.5t9.5 -18.5zM1594 267q0 -26 -28 -26q-4 0 -11.5 2t-11.5 2q0 4 -2 11t-2 11q0 29 27 29q28 0 28 -29zM1259 606q0 -9 -9.5 -20.5t-18.5 -11.5q-27 0 -27 30
q0 28 27 28q28 0 28 -26zM1545 317q0 -30 -25 -30q-31 0 -30 31l1 13q16 14 27 14q27 0 27 -28zM536 1325q0 -29 -27 -29q-31 0 -31 29q0 6 13.5 19t19.5 13q25 0 25 -32zM588 1278q0 -31 -31 -31q-30 0 -30 31q0 9 11.5 18t20.5 9q29 0 29 -27zM681 1181q0 -27 -27 -27
q-31 0 -31 27q0 9 12 18.5t21 9.5q25 0 25 -28zM875 989q0 -32 -29 -32t-29 34q0 27 29 27t29 -29zM1449 412q0 -29 -26 -29q-29 0 -29 29t29 29q26 0 26 -29zM1642 219q0 -29 -29 -29q-14 0 -25 10v35q23 10 25 10q29 0 29 -26zM633 1228q0 -29 -27 -29q-31 0 -31 29t31 29
q27 0 27 -29zM730 1133q0 -31 -31 -31q-27 0 -27 31q0 27 29 27t29 -27zM972 891q0 -31 -29 -31q-33 0 -33 33q0 29 31 29t31 -31zM1065 794q0 -27 -26 -27q-32 0 -32 29t31 29q27 0 27 -31zM1162 701q0 -31 -26 -31q-32 0 -32 31q0 27 30 27q28 0 28 -27zM1307 556
q0 -31 -29 -31t-29 31q0 27 29 27t29 -27zM1497 364q0 -29 -29 -29t-29 27q0 31 31 31q27 0 27 -29zM1736 122q0 -26 -26 -26q-29 0 -29 26q0 29 29 29q26 0 26 -29zM1400 461q0 -9 -9 -21t-18 -12q-27 0 -27 29q0 30 27 30t27 -26zM1117 651q0 -26 -26 -26q-5 0 -14.5 2
t-14.5 2q0 4 -1.5 12.5t-1.5 12.5q0 29 27 29q31 0 31 -32zM1259 509q0 -29 -23 -29q-5 0 -14.5 2t-14.5 2q0 4 -1.5 11.5t-1.5 11.5q0 31 27 31q28 0 28 -29zM588 1181q0 -27 -31 -27q-30 0 -30 27q0 9 11.5 18.5t20.5 9.5q29 0 29 -28zM730 1036q0 -27 -32 -27
q-26 0 -26 27q0 31 29 31q9 0 19 -11t10 -20zM1020 748q0 -29 -29 -29t-29 30q0 28 27 28q31 0 31 -29zM1594 158q-12 -13 -28 -13q-27 0 -27 27q0 28 27 28q18 0 28 -14v-28zM1691 77q0 -29 -28 -29q-27 0 -27 27q0 28 27 28q28 0 28 -26zM827 939q0 -27 -28 -27
q-31 0 -31 29t29 29q9 0 19.5 -11t10.5 -20zM491 1278q0 -31 -30 -31q-28 0 -28 31q0 27 29 27t29 -27zM681 1086q0 -29 -27 -29q-31 0 -31 29t31 29q27 0 27 -29zM923 844q0 -29 -27 -29q-31 0 -31 31q0 27 29 27t29 -29zM1355 412q0 -7 -10 -18t-17 -11q-31 0 -31 28
q0 30 31 30q27 0 27 -29zM1642 122q0 -26 -29 -26q-26 0 -26 23q0 32 26 32q29 0 29 -29zM1449 317q0 -30 -26 -30q-29 0 -29 29t29 29q26 0 26 -28zM875 891q0 -31 -29 -31t-29 33q0 29 29 29q9 0 19 -11t10 -20zM972 796q0 -29 -29 -29q-33 0 -33 29t31 29t31 -29z
M1400 364q0 -29 -29 -29q-25 0 -25 29t27 29t27 -29zM778 989q0 -32 -27 -32q-31 0 -31 32q0 29 29 29t29 -29zM1497 267q0 -26 -29 -26t-29 28q0 27 29 27t29 -29zM1162 606q0 -32 -26 -32q-32 0 -32 32q0 26 30 26q28 0 28 -26zM1307 461q0 -33 -29 -33t-29 31q0 28 29 28
t29 -26zM1545 221q0 -31 -25 -31q-20 0 -25 12q-1 2 -4 29q16 14 27 14q27 0 27 -24zM536 1228q0 -29 -27 -29q-31 0 -31 29t33 29q25 0 25 -29zM633 1133q0 -31 -27 -31q-31 0 -31 31q0 27 31 27q27 0 27 -27zM1065 699q0 -29 -27 -29q-31 0 -31 31q0 27 31 27q27 0 27 -29
zM1210 556q0 -31 -27 -31q-31 0 -31 31q0 27 31 27q27 0 27 -27zM1719 54l-26 -41q-12 5 -12 13v10q0 5 17 18h21zM1020 653q0 -28 -31 -28q-27 0 -27 28q0 30 27 30q31 0 31 -30zM491 1181q0 -27 -30 -27q-28 0 -28 27q0 28 29 28t29 -28zM588 1086q0 -29 -31 -29
q-30 0 -30 29t32 29q29 0 29 -29zM1259 412q0 -29 -28 -29q-27 0 -27 28q0 30 27 30q28 0 28 -29zM633 1036q0 -27 -29 -27t-29 27q0 31 31 31q27 0 27 -31zM730 939q0 -27 -29 -27t-29 27q0 31 29 31q9 0 19 -11t10 -20zM875 794q0 -27 -29 -27t-29 29t27 29q31 0 31 -31z
M923 749q0 -30 -27 -30q-31 0 -31 32q0 26 29 26t29 -28zM1117 556q0 -31 -31 -31q-27 0 -27 29t27 29q31 0 31 -27zM1162 509q0 -29 -28 -29q-30 0 -30 29t30 29q28 0 28 -29zM1307 364q0 -29 -31 -29q-27 0 -27 29t29 29t29 -29zM1355 317q0 -30 -27 -30q-31 0 -31 29
t29 29t29 -28zM1594 77q0 -29 -28 -29q-20 0 -25 11q-1 3 -2 30q16 14 27 14q28 0 28 -26zM1642 13q-17 -13 -29 -13q-14 0 -25 10v31q15 13 25 13q8 0 29 -13v-28zM827 844q0 -29 -26 -29q-33 0 -33 31q0 27 29 27q30 0 30 -29zM1400 267q0 -26 -29 -26q-25 0 -25 26
q0 29 27 29t27 -29zM1545 122q0 -26 -27 -26t-27 26q0 29 27 29t27 -29zM440 1228q0 -29 -26 -29q-29 0 -29 27q0 31 29 31q26 0 26 -29zM1497 158q-17 -13 -29 -13q-29 0 -29 27q0 28 29 28q7 0 29 -14v-28zM1678 0q0 -1 -31 -42q-11 11 -11 22q0 9 13 29h24q5 -5 5 -9z
M778 891q0 -31 -27 -31q-31 0 -31 33q0 29 31 29q27 0 27 -31zM972 701q0 -31 -29 -31q-33 0 -33 31q0 27 31 27q9 0 20 -9.5t11 -17.5zM681 989q0 -32 -25 -32q-33 0 -33 32q0 29 33 29q25 0 25 -29zM1449 221q0 -31 -26 -31q-20 0 -25 12q-1 2 -4 29q16 14 27 14
q28 0 28 -24zM1065 604q0 -30 -27 -30q-32 0 -31 37v4q18 17 31 17q27 0 27 -28zM1210 461q0 -33 -27 -33q-31 0 -31 31q0 28 31 28q27 0 27 -26zM536 1133q0 -31 -27 -31q-31 0 -31 31q0 9 12 18t21 9q25 0 25 -27zM1636 -50q-12 -12 -37 -34q-3 2 -11 4v24l13 14h27z
M491 1086q0 -29 -30 -29q-28 0 -28 29t29 29t29 -29zM923 651q0 -26 -29 -26t-29 29t29 29t29 -32zM1259 317q0 -30 -28 -30q-27 0 -27 27q0 31 27 31q28 0 28 -28zM1307 267q0 -26 -31 -26q-27 0 -27 26q0 29 29 29t29 -29zM1594 -20q0 -29 -28 -29q-27 0 -27 29t27 29
q28 0 28 -29zM827 749q0 -30 -26 -30q-33 0 -33 32q0 26 29 26q30 0 30 -28zM1117 461q0 -7 -12 -20t-19 -13q-27 0 -27 29q0 30 27 30q31 0 31 -26zM1400 158q-14 -13 -29 -13q-25 0 -25 27q0 28 25 28q7 0 29 -14v-28zM1545 13q-14 -13 -25 -13q-29 0 -29 27t27 27h6
q12 0 21 -13v-28zM391 1180q0 -26 -27 -26q-28 0 -28 26q0 29 28 29q27 0 27 -29zM536 1036q0 -27 -30 -27q-28 0 -28 27q0 8 12.5 19.5t20.5 11.5q25 0 25 -31zM588 989q0 -32 -29 -32q-32 0 -32 32q0 29 32 29q29 0 29 -29zM633 939q0 -27 -27 -27q-31 0 -31 27
q0 31 31 31q27 0 27 -31zM730 832l-29 -17q-29 0 -29 29t27 29q6 0 31 -16v-25zM778 794q0 -27 -27 -27q-31 0 -31 29t29 29t29 -31zM875 687l-29 -17q-29 0 -29 31q0 27 27 27q6 0 31 -16v-25zM1020 556q0 -31 -31 -31q-27 0 -27 32q0 26 27 26q31 0 31 -27zM1065 507
q0 -27 -27 -27q-31 0 -31 29t31 29q27 0 27 -31zM1162 412q0 -29 -26 -29q-32 0 -32 29t30 29q28 0 28 -29zM1210 364q0 -29 -30 -29q-28 0 -28 27q0 31 31 31q27 0 27 -29zM1449 122q0 -26 -28 -26q-27 0 -27 26q0 29 27 29q28 0 28 -29zM972 606q0 -32 -31 -32
q-33 0 -30 36v5q27 17 30 17q31 0 31 -26zM440 1131q0 -29 -28 -29q-27 0 -27 28q0 30 29 30q26 0 26 -29zM1355 221q0 -31 -29 -31q-20 0 -25 12q-1 2 -4 29q22 14 29 14q29 0 29 -24zM1497 77q0 -29 -27 -29q-31 0 -31 29q0 26 29 26t29 -26zM681 891q0 -31 -25 -31
q-33 0 -33 31t33 31q25 0 25 -31zM1117 364q0 -29 -33 -29q-4 0 -11.5 2t-10.5 2q0 4 -1.5 12.5t-1.5 12.5q0 29 27 29q31 0 31 -29zM827 651q0 -26 -23 -26q-5 0 -14 2t-14 2q-8 14 -8 25q0 29 29 29q30 0 30 -32zM1584 -95q-14 -19 -45 -37v28q5 5 14 16h27q1 -4 4 -7z
M440 1036q0 -27 -26 -27q-4 0 -12.5 1.5t-12.5 1.5q0 4 -2 11.5t-2 11.5q0 32 29 32q26 0 26 -31zM1307 172q0 -27 -31 -27q-27 0 -27 27q0 28 29 28t29 -28zM972 509q0 -29 -29 -29q-33 0 -33 29t31 29t31 -29zM346 1133q0 -9 -10 -20t-19 -11q-26 0 -26 28q0 30 26 30
q29 0 29 -27zM391 1085q0 -28 -26 -28q-29 0 -29 29t29 29q26 0 26 -30zM491 989q0 -32 -29 -32t-29 32q0 29 29 29t29 -29zM1210 267q0 -26 -30 -26q-28 0 -28 26q0 29 31 29q27 0 27 -29zM1355 122q0 -26 -29 -26t-29 26q0 29 29 29t29 -29zM730 749q0 -30 -29 -30t-29 32
q0 26 27 26q31 0 31 -28zM875 604q0 -30 -29 -30t-29 32q0 26 27 26q31 0 31 -28zM1162 317q0 -30 -26 -30q-32 0 -32 30q0 28 30 28q28 0 28 -28zM1259 221q0 -31 -29 -31q-20 0 -22.5 13.5t-3.5 27.5q16 14 26 14q29 0 29 -24zM1449 13q-14 -13 -26 -13q-29 0 -29 29
q0 25 27 25h7q12 0 21 -13v-28zM588 891q0 -9 -10 -20t-19 -11q-32 0 -32 31t32 31q29 0 29 -31zM1020 461q0 -33 -31 -33q-27 0 -27 31q0 28 27 28q31 0 31 -26zM1545 -68q0 -29 -27 -29t-27 27q0 28 27 28t27 -26zM1400 77q0 -29 -29 -29q-27 0 -26 31l1 10q16 14 25 14
q29 0 29 -26zM536 939q0 -27 -27 -27q-31 0 -31 27q0 31 33 31q25 0 25 -31zM633 844q0 -29 -27 -29q-31 0 -31 29t29 29t29 -29zM681 794q0 -27 -25 -27q-33 0 -33 29t31 29q27 0 27 -31zM778 699q0 -29 -27 -29q-31 0 -31 31q0 27 29 27t29 -29zM923 554q0 -29 -29 -29
t-29 32q0 26 29 26t29 -29zM1065 411q0 -28 -27 -28q-31 0 -31 29t31 29q27 0 27 -30zM1497 -20q0 -29 -27 -29q-31 0 -31 31q0 27 29 27t29 -29zM346 1036q0 -27 -30 -27q-25 0 -25 26q0 32 26 32q29 0 29 -31zM1117 267q0 -26 -33 -26q-19 0 -23 9q-2 5 -2 16q0 30 27 30
q31 0 31 -29zM1529 -140q-12 -11 -38 -28v15l14 13h24zM730 651q0 -26 -31 -26q-27 0 -27 29q0 8 9.5 18.5t17.5 10.5q31 0 31 -32zM875 507q0 -8 -10.5 -17.5t-18.5 -9.5q-29 0 -29 29t27 29q31 0 31 -31zM1020 364q0 -29 -32 -29q-26 0 -26 29t27 29q31 0 31 -29z
M1259 122q0 -26 -29 -26q-26 0 -26 25q0 30 27 30q28 0 28 -29zM295 1085q0 -28 -26 -28q-29 0 -29 29t29 29q26 0 26 -30zM440 939q0 -27 -26 -27q-29 0 -29 26q0 32 29 32q26 0 26 -31zM588 794q0 -27 -29 -27q-32 0 -32 27q0 31 30 31q31 0 31 -31zM1210 172
q0 -27 -29 -27t-29 27q0 28 29 28t29 -28zM1307 77q0 -29 -31 -29q-20 0 -25 11q-1 3 -2 30q16 14 27 14q31 0 31 -26zM1497 -118q0 -24 -27 -24q-31 0 -31 27q0 28 29 28t29 -31zM491 891q0 -9 -10 -20t-19 -11q-29 0 -29 31t29 31t29 -31zM972 412q0 -9 -11 -19t-20 -10
q-31 0 -31 29t31 29t31 -29zM1355 27q0 -27 -29 -27t-29 29q0 25 29 25t29 -27zM1400 -20q0 -29 -29 -29q-25 0 -25 29t27 29t27 -29zM633 749q0 -30 -27 -30q-31 0 -31 30q0 28 29 28t29 -28zM778 604q0 -30 -29 -30t-29 32q0 26 29 26t29 -28zM1065 317q0 -30 -27 -30
q-31 0 -31 30q0 28 31 28q27 0 27 -28zM1449 -68q0 -29 -28 -29q-27 0 -27 27q0 28 27 28q28 0 28 -26zM827 554q0 -29 -28 -29q-31 0 -31 32q0 26 29 26q30 0 30 -29zM923 459q0 -8 -9.5 -19.5t-17.5 -11.5q-31 0 -31 31q0 28 29 28t29 -28zM391 988q0 -31 -24 -31
q-31 0 -31 32q0 29 29 29q26 0 26 -30zM536 844q0 -29 -27 -29q-31 0 -31 31q0 27 31 27q27 0 27 -29zM681 699q0 -29 -25 -29q-33 0 -33 29q0 9 11 19t20 10q27 0 27 -29zM1162 225q2 -35 -26 -35q-33 0 -32 37v4q10 14 35 14q11 0 23 -14v-6zM1468 -188l-15 -7v5l14 7z
M249 1036q0 -27 -29 -27q-22 0 -22 18q0 6 12 23t17 17q22 0 22 -31zM1117 172q0 -27 -33 -27q-14 0 -19.5 4t-5.5 20q0 31 27 31q31 0 31 -28zM346 939q0 -27 -29 -27q-26 0 -26 27q0 31 26 31q29 0 29 -31zM1020 267q0 -26 -31 -26q-27 0 -27 26q0 29 27 29q31 0 31 -29z
M1400 -118q0 -24 -29 -24q-25 0 -25 26q0 29 25 29q29 0 29 -31zM491 794q0 -27 -29 -27t-29 27q0 9 9.5 20t18.5 11q30 0 30 -31zM633 651q0 -26 -27 -26q-31 0 -31 28q0 30 29 30t29 -32zM778 507q0 -27 -27 -27q-31 0 -31 29t29 29t29 -31zM875 411q0 -28 -31 -28
q-27 0 -27 29t27 29q31 0 31 -30zM923 362q0 -27 -30 -27q-28 0 -28 29t29 29t29 -31zM1258 13q-17 -13 -28 -13q-26 0 -26 27t26 27q7 0 28 -13v-28zM1307 -20q0 -29 -31 -29q-27 0 -27 29t29 29t29 -29zM972 317q0 -30 -31 -30t-31 30q0 28 31 28t31 -28zM440 844
q0 -29 -26 -29q-29 0 -29 28q0 30 27 30q28 0 28 -29zM588 687q-27 -17 -29 -17q-32 0 -32 31q0 27 30 27q14 0 31 -16v-25zM1162 122q0 -26 -28 -26q-30 0 -30 28q0 27 30 27q28 0 28 -29zM1210 77q0 -29 -29 -29t-29 29q0 26 29 26t29 -26zM1355 -68q0 -29 -29 -29t-29 29
q0 26 29 26t29 -26zM681 604q0 -30 -25 -30q-33 0 -32 41q27 17 30 17q27 0 27 -28zM295 988q0 -31 -26 -31q-29 0 -29 32q0 29 29 29q26 0 26 -30zM536 749q0 -30 -27 -30q-31 0 -31 30q0 28 31 28q27 0 27 -28zM730 554q0 -8 -10 -18.5t-18 -10.5q-30 0 -30 32q0 26 27 26
q31 0 31 -29zM827 459q0 -8 -9 -19.5t-17 -11.5q-33 0 -33 31q0 28 29 28q30 0 30 -28zM1449 -165q0 -29 -26 -29q-31 0 -29 32v10q15 13 27 13q28 0 28 -26zM391 891q0 -31 -24 -31q-31 0 -31 33q0 29 29 29q26 0 26 -31zM1065 221q0 -31 -27 -31q-32 0 -31 37v4
q22 14 29 14q29 0 29 -24zM201 994v-6q0 -19 -20 -30h-18q18 31 26 51q12 -12 12 -15zM1020 172q0 -27 -31 -27q-27 0 -27 27q0 28 27 28q31 0 31 -28zM1117 77q0 -29 -33 -29q-4 0 -11.5 2t-10.5 2q0 6 -1.5 18.5t-1.5 18.5q16 14 25 14q33 0 33 -26zM1307 -118
q0 -24 -31 -24q-27 0 -27 27q0 28 29 28t29 -31zM249 939q0 -27 -27 -27t-27 27q0 31 27 31t27 -31zM1400 -222q-22 -14 -33 -14q-21 0 -21 23q0 29 25 29q11 0 29 -17v-21zM346 844q0 -29 -29 -29q-26 0 -26 28q0 30 26 30q29 0 29 -29zM923 267q0 -26 -30 -26
q-28 0 -28 26q0 29 29 29t29 -29zM875 317q0 -30 -29 -30t-29 30q0 28 27 28q31 0 31 -28zM1259 -68q0 -29 -29 -29q-15 0 -26 10v31q16 14 26 14q29 0 29 -26zM827 362q0 -27 -30 -27q-29 0 -29 29t29 29q30 0 30 -31zM491 687q-27 -17 -29 -17q-29 0 -29 29t28 29
q13 0 30 -16v-25zM536 651q0 -26 -29 -26t-29 29t31 29q27 0 27 -32zM681 507q0 -27 -19 -27q-5 0 -15.5 2t-15.5 2q-8 14 -8 25q0 29 31 29q27 0 27 -31zM778 411q0 -28 -29 -28t-29 29t29 29t29 -30zM1210 -20q0 -29 -29 -29t-29 31q0 27 29 27t29 -29zM440 749
q0 -30 -26 -30q-29 0 -29 29t27 29q28 0 28 -28zM588 604q0 -30 -29 -30q-32 0 -32 30q0 28 30 28q31 0 31 -28zM1162 27q0 -27 -26 -27q-32 0 -32 27t30 27q28 0 28 -27zM391 796q0 -29 -24 -29q-31 0 -31 29t29 29q26 0 26 -29zM1065 122q0 -26 -29 -26t-29 26q0 29 31 29
q27 0 27 -29zM1355 -165q0 -29 -29 -29q-31 0 -29 32v10q21 13 29 13q29 0 29 -26zM972 221q0 -31 -31 -31t-30 37v4q28 14 30 14q31 0 31 -24zM295 890q0 -30 -26 -30q-29 0 -29 31t29 31q26 0 26 -32zM730 459q0 -8 -10 -19.5t-18 -11.5q-30 0 -30 33q0 26 27 26
q31 0 31 -28zM633 554q0 -29 -26 -29q-32 0 -32 34q0 24 29 24t29 -29zM1349 -244q-10 -8 -51 -24q-2 4 -2 9q0 27 30 27q11 0 23 -12zM1117 -20q0 -29 -33 -29q-4 0 -11.5 2t-10.5 2q0 4 -1.5 13t-1.5 14q0 27 27 27q31 0 31 -29zM440 651q0 -26 -21 -26q-5 0 -15 2t-15 2
q0 4 -2 12t-2 12q0 30 27 30q28 0 28 -32zM588 507q0 -6 -8.5 -16.5t-14.5 -10.5q-5 0 -15.5 2t-15.5 2q0 4 -3.5 13t-3.5 14q0 27 30 27q31 0 31 -31zM923 172q0 -27 -30 -27q-28 0 -28 27q0 28 29 28t29 -28zM1020 77q0 -29 -32 -29q-26 0 -26 29q0 26 27 26q31 0 31 -26z
M1210 -118q0 -24 -29 -24t-29 27q0 28 29 28t29 -31zM346 749q0 -30 -29 -30q-26 0 -26 32v7v5q15 14 25 14q30 0 30 -28zM249 844q0 -29 -27 -29t-27 28q0 30 27 30t27 -29zM827 266q0 -25 -28 -25q-31 0 -31 26q0 29 29 29q30 0 30 -30zM491 604q0 -30 -29 -30t-29 32
q0 26 28 26q30 0 30 -28zM730 362q0 -27 -31 -27q-27 0 -27 29t27 29q31 0 31 -31zM778 316q0 -29 -27 -29q-31 0 -31 30q0 28 29 28t29 -29zM1259 -165q0 -29 -29 -29q-4 0 -11.5 2t-11.5 2q0 6 -1.5 19t-1.5 19q15 13 26 13q29 0 29 -26zM1307 -215q0 -27 -29 -27t-29 29
t27 29q31 0 31 -31zM201 891q0 -9 -10 -20t-19 -11q-26 0 -26 28q0 34 26 34q29 0 29 -31zM972 122q0 -26 -31 -26t-31 26q0 29 31 29t31 -29zM681 411q0 -28 -25 -28q-33 0 -33 29t31 29q27 0 27 -30zM295 796q0 -29 -26 -29q-29 0 -29 27q0 31 29 31q26 0 26 -29zM875 221
q0 -31 -31 -31q-26 0 -27 41q15 14 29 14q29 0 29 -24zM1162 -68q0 -29 -28 -29q-30 0 -30 29q0 26 29 26t29 -26zM1065 27q0 -27 -27 -27q-31 0 -31 27t29 27t29 -27zM391 699q0 -29 -24 -29q-31 0 -31 31q0 27 28 27q27 0 27 -29zM633 459q0 -31 -27 -31q-31 0 -31 33
q0 26 29 26t29 -28zM536 554q0 -29 -25 -29q-33 0 -33 32q0 7 11.5 16.5t19.5 9.5q27 0 27 -29zM153 844q0 -29 -26 -29q-3 0 -9.5 2t-9.5 2q10 26 16 54h11q18 -8 18 -29zM1117 -118q0 -24 -31 -24q-4 0 -12 2t-12 2q0 4 -1.5 11t-1.5 11q0 29 27 29q31 0 31 -31zM346 651
q0 -26 -30 -26q-4 0 -10.5 2t-10.5 2q0 4 -2 12t-2 12q0 30 26 30q29 0 29 -32zM1259 -261q0 -26 -29 -26q-26 0 -26 24q0 31 26 31q29 0 29 -29zM491 507q0 -27 -29 -27t-29 29t28 29q30 0 30 -31zM1020 -20q0 -9 -11 -19t-20 -10q-27 0 -27 31q0 27 27 27q31 0 31 -29z
M249 749q0 -30 -27 -30t-27 29t27 29t27 -28zM827 172q0 -27 -30 -27q-29 0 -29 27q0 28 29 28q30 0 30 -28zM201 794q0 -27 -29 -27q-12 0 -26 7v34q17 17 26 17q29 0 29 -31zM588 411q0 -8 -10.5 -18t-18.5 -10q-32 0 -32 31q0 27 30 27q31 0 31 -30zM730 266
q0 -25 -31 -25q-27 0 -27 26q0 29 27 29q31 0 31 -30zM875 122q0 -26 -31 -26q-27 0 -27 26q0 29 27 29q31 0 31 -29zM923 77q0 -29 -30 -29q-28 0 -28 29q0 26 29 26t29 -26zM681 316q0 -29 -25 -29q-34 0 -32 41q27 17 30 17q27 0 27 -29zM633 362q0 -27 -27 -27
q-31 0 -31 31q0 27 29 27t29 -31zM972 27q0 -27 -31 -27t-31 29q0 25 31 25t31 -27zM1210 -215q0 -27 -27 -27q-31 0 -31 29t29 29q9 0 19 -11t10 -20zM392 610q2 -36 -23 -36q-33 0 -33 34q0 5 1 10q16 14 32 14q10 0 22 -14zM778 219q0 -29 -29 -29q-26 0 -29 41
q13 14 25 14q33 0 33 -26zM295 699q0 -29 -26 -29q-29 0 -29 29t27 29q28 0 28 -29zM440 554q0 -29 -25 -29q-30 0 -30 31q0 27 27 27q28 0 28 -29zM1065 -68q0 -29 -27 -29q-31 0 -31 27q0 28 29 28t29 -26zM1162 -165q0 -29 -26 -29q-34 0 -32 36v6q10 13 24 13
q34 0 34 -26zM536 459q0 -31 -25 -31q-32 0 -32 42q27 17 30 17q27 0 27 -28zM1207 -299q-6 0 -55 -7q10 25 29 25q8 0 26 -18zM1020 -118q0 -24 -31 -24q-27 0 -27 27q0 28 27 28q31 0 31 -31zM249 651q0 -26 -27 -26q-4 0 -12 2t-12 2q0 4 -1.5 12t-1.5 12q0 30 27 30
t27 -32zM1117 -215q0 -27 -31 -27q-27 0 -27 27q0 31 27 31q31 0 31 -31zM491 411q0 -28 -27 -28q-31 0 -31 31q0 7 10.5 17t17.5 10q30 0 30 -30zM923 -20q0 -29 -29 -29t-29 29t29 29t29 -29zM153 748q0 -29 -26 -29q-29 0 -29 29t27 29q28 0 28 -29zM730 172
q0 -27 -31 -27q-27 0 -27 29q0 26 29 26t29 -28zM1162 -261q0 -26 -26 -26q-32 0 -32 27q0 28 30 28q28 0 28 -29zM588 316q0 -29 -27 -29q-35 0 -34 38v3q27 17 30 17q31 0 31 -29zM827 75q0 -27 -30 -27q-29 0 -29 29q0 26 29 26q30 0 30 -28zM875 27q0 -27 -29 -27
t-29 27t29 27t29 -27zM201 699q0 -29 -29 -29q-12 0 -26 7v34q16 17 28 17q27 0 27 -29zM346 554q0 -29 -27 -29q-28 0 -28 31q0 27 26 27q29 0 29 -29zM391 509q0 -29 -24 -29q-31 0 -31 29t29 29q26 0 26 -29zM633 267q0 -26 -27 -26q-31 0 -31 28q0 27 29 27t29 -29z
M778 124q0 -28 -30 -28q-28 0 -28 28q0 27 29 27t29 -27zM972 -68q0 -9 -11 -19t-20 -10q-31 0 -31 29q0 26 31 26t31 -26zM536 364q0 -29 -29 -29t-29 31q0 27 31 27q27 0 27 -29zM295 604q0 -30 -25 -30q-30 0 -30 30q0 28 27 28q28 0 28 -28zM440 459q0 -31 -25 -31
q-30 0 -30 31q0 28 27 28q28 0 28 -28zM681 219q0 -29 -27 -29q-30 0 -30 41q28 14 30 14q27 0 27 -26zM1065 -165q0 -29 -27 -29q-31 0 -31 29q0 26 29 26t29 -26zM104 699q0 -20 -18 -28q4 26 3 51q15 -9 15 -23zM1116 -313l-53 -10q-4 4 -4 15q0 27 25 27q14 0 32 -20
v-12zM923 -118q0 -24 -30 -24q-28 0 -28 27q0 28 29 28t29 -31zM491 316q0 -29 -27 -29q-31 0 -31 32q0 26 29 26t29 -29zM1020 -215q0 -27 -31 -27q-27 0 -27 29t27 29q31 0 31 -31zM827 -20q0 -29 -30 -29q-29 0 -29 29t29 29q30 0 30 -29zM201 604q0 -30 -27 -30
q-12 0 -28 10v34q16 14 26 14q29 0 29 -28zM295 509q0 -29 -26 -29q-29 0 -29 29t27 29q28 0 28 -29zM440 364q0 -29 -28 -29q-4 0 -11.5 2t-11.5 2q0 4 -2 11.5t-2 11.5q0 31 27 31q28 0 28 -29zM633 171q0 -26 -27 -26q-31 0 -31 29q0 26 29 26t29 -29zM730 75
q0 -27 -29 -27t-29 29q0 26 29 26t29 -28zM875 -68q0 -9 -11 -19t-20 -10q-27 0 -27 27q0 28 29 28t29 -26zM1065 -260q0 -27 -27 -27q-31 0 -31 27q0 28 29 28t29 -28zM249 554q0 -29 -25 -29q-29 0 -29 31q0 27 25 27q29 0 29 -29zM346 459q0 -31 -27 -31q-28 0 -28 31
q0 28 26 28q29 0 29 -28zM778 27q0 -27 -29 -27t-29 29q0 25 29 25t29 -27zM391 412q0 -29 -22 -29q-33 0 -33 29t28 29q27 0 27 -29zM536 267q0 -26 -29 -26t-29 28q0 27 31 27q27 0 27 -29zM681 122q0 -26 -27 -26q-31 0 -31 28q0 27 31 27q27 0 27 -29zM588 219
q0 -29 -29 -29q-31 0 -32 41q22 14 32 14q29 0 29 -26zM972 -165q0 -9 -11 -19t-20 -10q-31 0 -31 29q0 26 31 26t31 -26zM153 653q0 -28 -21 -28q-4 0 -13.5 2t-14.5 2q-1 -2 -1 -21q0 -23 -21 -31v54q3 0 8.5 -1.5t8.5 -1.5q1 2 1 5t-1.5 10t-1.5 10q0 30 30 30
q26 0 26 -30zM1020 -301l-4 -21h-54v24q15 17 27 17q11 0 31 -20zM827 -116q0 -26 -30 -26q-29 0 -29 26q0 29 29 29q30 0 30 -29zM201 509q0 -29 -23 -29q-5 0 -14 2t-14 2q-4 7 -4 20q0 34 28 34q27 0 27 -29zM346 364q0 -29 -30 -29q-25 0 -25 27q0 31 26 31q29 0 29 -29
zM972 -261q0 -26 -31 -26t-31 29q0 26 29 26q33 0 33 -29zM440 267q0 -26 -28 -26q-27 0 -27 25q0 30 27 30q28 0 28 -29zM588 124q0 -28 -31 -28q-30 0 -30 28q0 9 11.5 18t20.5 9q29 0 29 -27zM730 -20q0 -9 -11 -19t-20 -10q-27 0 -27 29t29 29t29 -29zM923 -215
q0 -27 -29 -27t-29 29t29 29q9 0 19 -11t10 -20zM153 556q0 -31 -24 -31q-31 0 -31 31q0 27 29 27q26 0 26 -27zM249 461q0 -33 -25 -33q-29 0 -29 31q0 28 27 28t27 -26zM295 412q0 -29 -25 -29q-30 0 -30 29t27 29q28 0 28 -29zM391 317q0 -30 -22 -30q-33 0 -33 30
q0 28 28 28q27 0 27 -28zM491 219q0 -29 -29 -29q-22 0 -29 41q22 14 29 14q29 0 29 -26zM536 158q-12 -13 -27 -13q-31 0 -31 38q14 17 33 17q10 0 25 -14v-28zM633 77q0 -29 -29 -29t-29 31q0 24 31 24q27 0 27 -26zM778 -68q0 -29 -29 -29t-29 29q0 26 29 26t29 -26z
M875 -165q0 -9 -11 -19t-20 -10q-27 0 -27 29q0 26 29 26t29 -26zM681 29q0 -29 -27 -29q-31 0 -31 29q0 25 33 25q25 0 25 -25zM104 509q0 -12 -14 -26q-8 8 -8 18v37q22 -6 22 -29zM923 -317q-39 2 -57 0v19q16 17 28 17t29 -17v-19zM346 267q0 -26 -30 -26q-25 0 -25 25
q0 30 26 30q29 0 29 -29zM730 -116q0 -26 -29 -26t-29 27q0 28 29 28t29 -29zM875 -260q0 -27 -31 -27q-27 0 -27 27q0 28 29 28t29 -28zM249 364q0 -29 -27 -29q-4 0 -12 2t-12 2q0 4 -1.5 11.5t-1.5 11.5q0 31 25 31q29 0 29 -29zM201 412q0 -29 -27 -29q-5 0 -28 7v34
q15 17 20 17q35 0 35 -29zM491 122q0 -26 -29 -26t-29 28q0 27 29 27t29 -29zM439 158q-12 -13 -27 -13q-4 0 -11.5 1.5t-11.5 1.5q-4 11 -4 32v6q22 14 29 14q10 0 25 -14v-28zM588 27q0 -27 -29 -27q-32 0 -32 29q0 25 32 25q29 0 29 -27zM827 -213q0 -29 -28 -29
q-31 0 -31 29t29 29q30 0 30 -29zM633 -20q0 -29 -29 -29t-29 31q0 27 29 27t29 -29zM295 317q0 -30 -25 -30q-30 0 -30 29t29 29q26 0 26 -28zM153 461q0 -33 -24 -33q-31 0 -31 29q0 30 29 30q26 0 26 -26zM536 77q0 -29 -29 -29q-23 0 -29 38q14 17 33 17q25 0 25 -26z
M681 -68q0 -29 -27 -29q-31 0 -31 29q0 26 31 26q27 0 27 -26zM778 -163q0 -31 -29 -31t-29 31q0 24 31 24q27 0 27 -24zM391 221q0 -31 -26 -31q-30 0 -28 38v7q16 10 28 10q26 0 26 -24zM826 -310q-18 5 -54 14q15 15 25 15q12 0 29 -17v-12zM153 364q0 -29 -24 -29
q-11 0 -14 4q-11 39 -11 38q0 16 21 16q28 0 28 -29zM346 171q0 -26 -29 -26q-15 0 -26 10v31q16 14 26 14q29 0 29 -29zM249 267q0 -26 -29 -26q-25 0 -25 26q0 29 25 29q29 0 29 -29zM201 316q0 -29 -27 -29q-12 0 -28 10v34q16 14 26 14q29 0 29 -29zM633 -116
q0 -26 -27 -26q-31 0 -31 27q0 28 29 28t29 -29zM778 -260q0 -27 -29 -27t-29 27q0 28 29 28t29 -28zM491 27q0 -27 -29 -27t-29 29q0 25 29 25t29 -27zM440 77q0 -29 -28 -29q-4 0 -11.5 2t-11.5 2q-4 12 -4 38q21 13 29 13q26 0 26 -26zM588 -68q0 -9 -11 -19t-20 -10
q-30 0 -30 29q0 26 32 26q29 0 29 -26zM730 -213q0 -29 -29 -29t-29 29t29 29t29 -29zM391 122q0 -26 -24 -26q-31 0 -31 26q0 29 28 29q27 0 27 -29zM536 -20q0 -29 -29 -29t-29 31q0 27 31 27q27 0 27 -29zM681 -163q0 -31 -27 -31q-31 0 -31 31q0 24 31 24q27 0 27 -24z
M295 221q0 -31 -26 -31q-31 0 -29 35v6q15 14 29 14q26 0 26 -24zM153 267q0 -9 -7 -19q-6 16 -19 48h12q14 -20 14 -29zM681 -271l-51 20q11 20 29 20q9 0 22 -19v-21zM249 158q-12 -13 -27 -13q-4 0 -12 1.5t-12 1.5q-3 9 -3 24v14q16 14 27 14q17 0 27 -14v-28zM346 77
q0 -29 -29 -29q-4 0 -11.5 2t-10.5 2q-4 12 -4 37q16 14 26 14q29 0 29 -26zM201 219q0 -29 -23 -29t-28 47q16 8 22 8q29 0 29 -26zM440 -20q0 -29 -26 -29q-29 0 -29 28q0 30 29 30q26 0 26 -29zM491 -68q0 -29 -29 -29t-29 29q0 26 29 26t29 -26zM536 -116q0 -26 -27 -26
q-31 0 -31 27q0 28 31 28q27 0 27 -29zM295 122q0 -26 -26 -26q-29 0 -29 26q0 29 29 29q26 0 26 -29zM588 -163q0 -31 -31 -31q-30 0 -30 31q0 24 30 24q31 0 31 -24zM633 -213q0 -29 -21 -29q-3 0 -37 17v21q19 20 29 20q29 0 29 -29zM391 13q-14 -13 -26 -13
q-29 0 -29 29q0 25 33 25q11 0 22 -13v-28zM249 61q-7 7 -32 41h19l13 -13v-28zM491 -171q-26 13 -48 31h31q5 -5 17 -13v-18zM294 40l-4 -31q-23 17 -34 45h25zM439 -132h-15l-33 30q9 15 23 15h5q7 0 20 -18v-27zM346 -20q0 -12 -11 -22q-37 18 -37 38q0 13 19 13
q29 0 29 -29zM391 -68q0 -11 -7 -23q-28 21 -41 34q4 15 16 15h6q26 0 26 -26z" />
  </g>

</svg>
