<?xml version="1.0" standalone="no"?>
<!DOCTYPE svg PUBLIC "-//W3C//DTD SVG 1.1//EN" "http://www.w3.org/Graphics/SVG/1.1/DTD/svg11.dtd" >
<svg viewBox="0 -442 2048 2048">
  <g transform="matrix(1 0 0 -1 0 1606)">
   <path fill="currentColor"
d="M2018 757l-272 -297l-31 32l-143 -165q46 -1 137 -13q34 -15 102 -43v-124q0 -18 -30 -48q-20 -14 -59 -42q-111 -82 -293 -159q-45 -19 -96 -19q-10 0 -30.5 4.5t-30.5 4.5q-7 -7 -24 -29q-57 -78 -176 -224q-2 -3 -35 -3q-7 0 -9 3q-59 77 -174 223q-23 30 -26 30
q-10 0 -30.5 -4.5t-30.5 -4.5q-39 0 -96 19q-26 13 -79 39q-102 48 -142 70q-80 44 -129 90q-7 13 -23 37q-9 13 -9 14v123q33 17 102 43q46 4 137 13l-140 165q-6 -3 -34 -32l-272 297l221 307l266 -280l-101 -127q14 -29 48 -84q50 -61 126 -136q102 -101 136 -102h19
q64 -1 83 19q21 31 43 61q4 76 17 258q9 122 9 125t1 8.5t1 8.5q0 14 -44.5 58.5t-45.5 50.5q70 77 70 178l-126 146q60 58 128 155q57 82 115 164q9 -11 117 -162q67 -95 130 -154q-48 -70 -125 -142q-1 -2 -1 -7q0 -38 7 -61q4 -13 33.5 -64t29.5 -53q0 -3 -45 -48
t-45 -58q0 -3 1 -10t1 -9.5t9 -128.5q5 -85 16 -255q14 -27 59 -70q20 -10 68 -10h19q37 3 138 102q88 84 124 136q7 9 48 84l-101 127l266 280zM1940 773q-97 78 -156 216q-60 -78 -158 -186q-8 -3 -22 -11q-16 -14 -13 -14t-13 2q72 -72 98 -109t70 -130q30 100 70 208
q58 6 124 24zM1232 1251q-39 41 -94 121q-62 90 -90 123q-55 -86 -180 -244l42 -42l72 22q3 17 6 51q54 40 62 40q9 0 62 -40q2 -17 5 -51q57 -22 73 -22q-1 0 42 42zM1084 1240v28q-19 13 -36 25q-13 -14 -32 -25v-28q30 -19 34 -19q6 0 34 19zM1169 927q-30 56 -89 168
q-11 21 -32 35q-38 -68 -117 -204h29q-6 0 30 13q-4 16 -4 30q0 64 64 64q65 0 65 -64q0 -14 -5 -30q31 -13 49 -13q6 0 10 1zM1078 971q0 7 -10.5 15.5t-17.5 8.5q-28 0 -28 -24q0 -8 10 -17t18 -9q28 0 28 26zM1584 495q-60 -61 -184 -179q-36 -27 -108 -83q29 -56 46 -56
q18 0 57 43q25 30 51 60q28 26 77 84q25 37 61 131zM1569 188q-66 11 -58 11q-7 0 -20 -7v-14zM1493 204q-5 0 -15.5 5.5t-14.5 5.5q-7 0 -39 -34h17q-5 0 52 23zM1763 208v29q-38 -26 -118 -68q-186 -70 -276 -70q-8 0 -96 110q-53 65 -105 131q-18 20 -39 50
q-5 24 -10.5 109.5t-16.5 259.5q-22 -26 -62 -26q-9 0 -36 26q-2 -22 -2 -172q0 -132 -28.5 -202t-104.5 -151q-124 -132 -126 -135q-273 36 -400 138v-44q0 -27 4 -40q6 -17 67 -57q53 -35 82 -47q-18 15 -56 42v72l2 2q97 -51 181 -69v-113q103 -48 117 -48q11 0 73 65
q37 40 75 80q6 -13 71 -192q42 -115 93 -182q25 30 63 92q35 95 104 285q35 -42 71 -84q56 -64 76 -64q12 0 118 48q-2 33 -2 65q0 8 1 51q62 10 129 38q60 25 48 25q7 0 7 -23q0 -43 -7 -51q-22 -18 -45 -36q29 11 78 43q55 36 63 56q7 17 7 57zM522 780q-16 -2 -13 -2
t-13 14q-21 15 -60 50q-3 3 -120 147q-60 -137 -156 -216q61 -17 123 -24q19 -45 52 -137q6 -24 19 -71q6 19 21 52q6 5 14 16q5 17 23 50q55 67 110 121zM808 236q-67 42 -152 123l-140 136v-11q0 -31 60 -120q26 -38 78 -84q4 -4 52 -56q43 -47 47 -47q19 0 33 22
q11 18 22 37zM676 181q-34 34 -39 34t-15 -5.5t-15 -5.5q59 -23 69 -23zM610 188q-11 11 -19 11q-6 0 -50 -11q8 0 23 -3t23 -3q13 0 23 6z" />
  </g>

</svg>
