<?xml version="1.0" standalone="no"?>
<!DOCTYPE svg PUBLIC "-//W3C//DTD SVG 1.1//EN" "http://www.w3.org/Graphics/SVG/1.1/DTD/svg11.dtd" >
<svg viewBox="0 -442 2048 2048">
  <g transform="matrix(1 0 0 -1 0 1606)">
   <path fill="currentColor"
d="M1165 1096q-18 -17 -32 -17t-28 13v29q18 17 28 17q14 0 32 -17v-25zM1228 1033q-19 -18 -31 -18q-13 0 -28 14v28q19 18 28 18q12 0 31 -18v-24zM1292 979q0 -28 -32 -28q-27 0 -27 26q0 34 27 34q8 0 20 -12t12 -20zM1356 915q0 -27 -30 -27t-30 25q0 8 11 21t19 13
t19 -12t11 -20zM1420 849q0 -25 -30 -25t-30 25q0 34 32 34q8 0 18 -13t10 -21zM1483 786q0 -26 -29 -26q-30 0 -30 26q0 34 32 34q8 0 17.5 -13t9.5 -21zM1037 1236q0 -10 -12 -22t-22 -12q-8 0 -16.5 13t-8.5 21q0 30 27 30q7 0 19.5 -11.5t12.5 -18.5zM1101 1172
q0 -10 -12 -22t-22 -12q-25 0 -25 32t25 32q20 0 34 -30zM1551 722q0 -30 -34 -30q-10 0 -29 18v24q18 18 29 18q20 0 34 -30zM974 1298q0 -8 -12 -20t-20 -12t-18 13t-10 21q0 25 28 25q32 0 32 -27zM1611 646q-19 -18 -30 -18q-7 0 -18.5 11.5t-11.5 18.5q0 30 30 30
q11 0 30 -18v-24zM1674 582q-18 -17 -29 -17q-30 0 -30 32q0 27 30 27q11 0 29 -17v-25zM910 1363q0 -10 -11 -22t-21 -12q-8 0 -20 12t-12 20q0 28 32 28t32 -26zM1101 1045q0 -30 -32 -30q-12 0 -27 14v28q19 18 27 18t20 -11t12 -19zM1037 1109q0 -30 -32 -30
q-13 0 -27 13v29q18 17 27 17q8 0 20 -10.5t12 -18.5zM1165 979q0 -28 -32 -28q-28 0 -28 26q0 10 9.5 22t18.5 12q8 0 20 -12t12 -20zM1228 915q0 -27 -31 -27q-28 0 -28 25q0 34 28 34q8 0 19.5 -12t11.5 -20zM1292 852q0 -28 -32 -28q-27 0 -27 25q0 34 29 34
q8 0 19 -11.5t11 -19.5zM1356 788q0 -28 -30 -28t-30 26q0 34 32 34q7 0 17.5 -12.5t10.5 -19.5zM974 1170q0 -10 -11 -21t-21 -11q-7 0 -28 18v28q18 18 30 18q30 0 30 -32zM1551 595q0 -30 -34 -30q-10 0 -29 18v24q17 17 29 17q20 0 34 -29zM910 1236q0 -9 -11 -21.5
t-19 -12.5q-10 0 -22 11.5t-12 20.5q0 10 12 21t22 11q9 0 19.5 -10.5t10.5 -19.5zM1420 724q0 -32 -30 -32q-11 0 -30 18v24q18 18 30 18q30 0 30 -28zM1611 519q-18 -18 -30 -18q-30 0 -30 32q0 28 30 28q-2 0 30 -14v-28zM1483 660q0 -32 -29 -32q-11 0 -30 18v24
q18 18 30 18q29 0 29 -28zM842 1300q0 -9 -8.5 -21.5t-17.5 -12.5q-10 0 -22 11.5t-12 20.5q0 27 32 27q28 0 28 -25zM974 1045q0 -30 -32 -30q-13 0 -28 14v28q19 18 28 18q8 0 20 -11t12 -19zM1101 915q0 -27 -32 -27q-27 0 -27 25q0 34 27 34q8 0 20 -12t12 -20z
M1037 979q0 -28 -32 -28q-27 0 -27 26q0 34 27 34q8 0 20 -12t12 -20zM1165 852q0 -28 -32 -28q-28 0 -28 25q0 34 30 34q8 0 19 -11.5t11 -19.5zM1228 788q0 -28 -31 -28q-28 0 -28 26q0 34 30 34q8 0 18.5 -12t10.5 -20zM910 1106q0 -27 -32 -27t-32 30q0 9 11.5 19
t20.5 10q10 0 21 -11t11 -21zM1551 467q0 -30 -34 -30q-10 0 -29 18v29q31 13 29 13q10 0 22 -10.5t12 -19.5zM1292 724q0 -32 -30 -32q-10 0 -29 18v24q18 18 29 18q30 0 30 -28zM1356 660q0 -32 -30 -32q-10 0 -29 18v24q18 18 29 18q30 0 30 -28zM1420 597q0 -32 -30 -32
q-11 0 -30 18v24q17 17 30 17q30 0 30 -27zM1483 519q-19 -18 -29 -18q-11 0 -30 18v24q18 18 30 18q10 0 29 -18v-24zM778 1236q0 -34 -25 -34q-10 0 -22 11.5t-12 20.5q0 10 12 21t22 11q25 0 25 -30zM842 1170q0 -32 -26 -32q-10 0 -22 11.5t-12 20.5q0 10 12 21t22 11
q26 0 26 -32zM974 915q0 -27 -32 -27q-28 0 -28 25q0 10 9.5 22t18.5 12q8 0 20 -12t12 -20zM1101 788q0 -28 -32 -28q-27 0 -27 26q0 34 27 34q8 0 20 -12t12 -20zM1037 852q0 -28 -32 -28q-27 0 -27 25q0 34 27 34q8 0 20 -11.5t12 -19.5zM910 979q0 -28 -32 -28t-32 28
q0 8 12 20t20 12t20 -12t12 -20zM1356 519q-19 -18 -30 -18q-10 0 -29 18v24q18 18 29 18t30 -18v-24zM778 1106q0 -27 -27 -27q-32 0 -32 27q0 10 12 21t22 11q25 0 25 -32zM842 1028q-14 -13 -28 -13q-32 0 -32 30q0 9 11 19.5t21 10.5q9 0 28 -18v-29zM1165 724
q0 -32 -30 -32q-11 0 -30 18v24q18 18 30 18q30 0 30 -28zM1292 597q0 -32 -30 -32q-10 0 -29 18v24q17 17 29 17q30 0 30 -27zM1483 405q0 -31 -29 -31q-12 0 -30 17v29q31 13 30 13q29 0 29 -28zM1228 660q0 -32 -29 -32q-11 0 -30 18v24q18 18 30 18q29 0 29 -28z
M1419 455q-19 -18 -29 -18q-11 0 -30 18v24q18 18 30 18q10 0 29 -18v-24zM714 1170q0 -32 -25 -32q-10 0 -22 11.5t-12 20.5q0 10 12 21t22 11q25 0 25 -32zM974 788q0 -28 -30 -28t-30 28q0 9 9.5 20.5t18.5 11.5q8 0 20 -12t12 -20zM910 852q0 -28 -32 -28t-32 28
q0 8 12 19.5t20 11.5t20 -11.5t12 -19.5zM1356 391q-18 -17 -30 -17q-11 0 -29 17v24q18 18 29 18t30 -18v-24zM651 1092q-14 -13 -28 -13q-32 0 -32 27q0 8 12 20t20 12q10 0 28 -17v-29zM714 1043q0 -28 -27 -28q-32 0 -32 28q0 10 12 21t22 11q25 0 25 -32zM778 977
q0 -26 -27 -26q-32 0 -32 28q0 8 12 20t20 12q27 0 27 -34zM842 913q0 -25 -28 -25q-32 0 -32 27q0 8 12 20t20 12q9 0 18.5 -12t9.5 -22zM1037 724q0 -8 -12 -20t-20 -12t-27 18v24q20 18 27 18q32 0 32 -28zM1101 660q0 -8 -12 -20t-20 -12t-27 18v24q20 18 27 18
q32 0 32 -28zM1165 597q0 -32 -30 -32q-11 0 -30 18v24q17 17 30 17q30 0 30 -27zM1228 519q-19 -18 -29 -18q-11 0 -30 18v24q18 18 30 18q10 0 29 -18v-24zM1292 455q-18 -18 -30 -18q-10 0 -29 18v28q14 14 27 14t32 -18v-24zM1420 342q0 -32 -30 -32q-11 0 -30 18v28
q31 13 30 13q30 0 30 -27zM587 1028q-14 -13 -28 -13q-31 0 -31 28q0 8 11.5 20t19.5 12q9 0 28 -18v-29zM1101 519q-19 -18 -32 -18q-8 0 -27 18v24q20 18 27 18q13 0 32 -18v-24zM1356 274q0 -28 -28 -28q-12 0 -31 18v24q18 18 29 18q30 0 30 -32zM651 977q0 -26 -28 -26
q-32 0 -32 28q0 8 12 20t20 12q28 0 28 -34zM714 913q0 -25 -27 -25q-32 0 -32 27q0 10 12 21t22 11q25 0 25 -34zM778 849q0 -25 -27 -25q-32 0 -32 28q0 8 12 19.5t20 11.5q27 0 27 -34zM842 786q0 -26 -28 -26q-32 0 -32 28q0 8 12 20t20 12q28 0 28 -34zM974 660
q0 -8 -12 -20t-20 -12q-28 0 -28 32q0 8 10 18t18 10q32 0 32 -28zM1037 597q0 -8 -12 -20t-20 -12t-27 18v24q19 17 27 17q32 0 32 -27zM1165 455q-19 -18 -30 -18t-30 18v24q18 18 30 18q11 0 30 -18v-24zM1228 391q-17 -17 -29 -17t-30 17v29q13 13 28 13q12 0 31 -18
v-24zM1292 328q-18 -18 -30 -18q-10 0 -29 18v28q13 13 27 13t32 -17v-24zM910 724q0 -8 -12 -20t-20 -12t-20 12t-12 20t12 18t20 10q32 0 32 -28zM587 913q0 -25 -28 -25q-31 0 -31 25q0 34 31 34q28 0 28 -34zM1101 391q-18 -17 -32 -17q-9 0 -27 17v24q20 18 27 18
q13 0 32 -18v-24zM523 977q0 -26 -27 -26q-32 0 -32 26q0 11 10.5 22.5t21.5 11.5q27 0 27 -34zM651 849q0 -25 -28 -25q-32 0 -32 28q0 19 30 31q30 0 30 -34zM714 786q0 -26 -25 -26q-34 0 -34 28q0 8 12 20t20 12q27 0 27 -34zM973 519q-20 -18 -31 -18q-9 0 -28 18v24
q20 18 28 18q12 0 31 -18v-24zM1037 455q-19 -18 -32 -18q-8 0 -27 18v24q20 18 27 18q13 0 32 -18v-24zM1165 328q-18 -18 -30 -18q-11 0 -30 18v28q13 13 28 13q14 0 32 -17v-24zM1228 274q0 -28 -29 -28q-11 0 -30 18v24q18 18 30 18q29 0 29 -32zM1292 210
q0 -28 -30 -28q-29 0 -29 30t27 30q32 0 32 -32zM910 597q0 -8 -12 -20t-20 -12t-20 12t-12 20t12 17.5t20 9.5q32 0 32 -27zM778 710q-19 -18 -27 -18t-20 12t-12 20t12 18t20 10t27 -18v-24zM842 646q-19 -18 -28 -18q-8 0 -20 12t-12 20t12 18t20 10q9 0 28 -18v-24z
M460 913q0 -25 -30 -25t-30 25q0 9 10.5 21.5t19.5 12.5q30 0 30 -34zM587 774q-15 -14 -28 -14q-31 0 -31 28q0 19 29 32q11 0 30 -18v-28zM1101 274q0 -7 -12.5 -17.5t-19.5 -10.5q-8 0 -27 18v24q20 18 27 18q8 0 20 -12t12 -20zM523 837q-14 -13 -27 -13q-32 0 -32 25
q0 20 30 34q11 0 29 -17v-29zM973 391q-18 -17 -31 -17q-10 0 -28 17v24q19 18 30 18q10 0 29 -18v-24zM1037 328q-19 -18 -32 -18q-8 0 -27 18v24q18 17 30 17q11 0 29 -17v-24zM1165 210q0 -28 -30 -28q-11 0 -30 18v24q18 18 30 18q30 0 30 -32zM1228 146q0 -27 -29 -27
q-30 0 -30 29q0 30 28 30q31 0 31 -32zM910 455q-17 -18 -32 -18q-13 0 -32 18v24q18 18 34 18q11 0 30 -18v-24zM842 519q-19 -18 -28 -18q-12 0 -31 18v24q19 18 31 18q9 0 28 -18v-24zM651 710q-19 -18 -30 -18q-30 0 -30 32q0 28 30 28q11 0 30 -18v-24zM778 582
q-18 -17 -27 -17q-8 0 -20 12t-12 20t12 17.5t20 9.5q9 0 27 -17v-25zM714 646q-19 -18 -27 -18t-20 12t-12 20t12 18t20 10t27 -18v-24zM460 786q0 -26 -30 -26t-30 26q0 9 10.5 21.5t19.5 12.5q30 0 30 -34zM974 274q0 -9 -11.5 -18.5t-20.5 -9.5t-28 18v24q20 18 28 18
t20 -12t12 -20zM1101 146q0 -7 -12.5 -17t-19.5 -10q-9 0 -27 17v25q19 17 27 17t20 -12t12 -20zM396 849q0 -25 -30 -25t-30 25q0 9 10.5 21.5t19.5 12.5q30 0 30 -34zM1037 210q0 -7 -12.5 -17.5t-19.5 -10.5q-8 0 -27 18v24q20 18 27 18q8 0 20 -12t12 -20zM910 328
q-19 -18 -32 -18q-7 0 -18 8t-14 9v25q17 17 34 17q12 0 30 -17v-24zM842 391q-18 -17 -28 -17q7 0 -31 17v24q19 18 31 18q9 0 28 -18v-24zM523 722q0 -30 -27 -30q-10 0 -21 10t-11 20q0 30 30 30q29 0 29 -30zM587 646q-19 -18 -30 -18q-8 0 -18.5 11.5t-10.5 20.5
q0 28 29 28q11 0 30 -18v-24zM651 582q-18 -17 -30 -17q-8 0 -19 12t-11 20q0 27 30 27q12 0 30 -17v-25zM714 519q-19 -18 -27 -18q-13 0 -32 18v24q19 18 32 18q8 0 27 -18v-24zM778 455q-19 -18 -27 -18q-13 0 -32 18v24q19 18 32 18q8 0 27 -18v-24zM1165 83
q0 -8 -12 -20t-20 -12q-28 0 -28 34q0 25 28 25q32 0 32 -27zM336 786q0 -26 -34 -26q-29 0 -29 26q0 11 10.5 22.5t21.5 11.5q31 0 31 -34zM973 136q-38 -17 -31 -17q-10 0 -28 17v25q18 17 30 17q10 0 29 -18v-24zM1101 19q0 -10 -12 -21t-22 -11q-8 0 -16.5 13t-8.5 21
q0 30 25 30q10 0 22 -11t12 -21zM910 200q-19 -18 -32 -18q-8 0 -20 10t-12 18q0 10 11.5 21t22.5 11t30 -18v-24zM587 519q-19 -18 -30 -18q-10 0 -29 18v24q19 18 31 18q13 0 28 -14v-28zM396 710q-19 -18 -30 -18q-7 0 -18.5 11.5t-11.5 18.5q0 30 30 30q11 0 30 -18v-24
zM523 582q-18 -17 -29 -17q-8 0 -19 12t-11 20q0 27 32 27q13 0 27 -13v-29zM651 455q-19 -18 -30 -18t-30 18v24q19 18 32 18t28 -14v-28zM714 391q-18 -17 -27 -17q6 0 -32 17v24q18 18 34 18q11 0 25 -13v-29zM778 328q-19 -18 -27 -18q6 0 -32 17v25q17 17 34 17
q11 0 25 -13v-28zM842 264q-19 -18 -28 -18q-8 0 -20 10t-12 18q0 10 11 21t21 11q9 0 28 -18v-24zM1037 83q0 -8 -12 -20t-20 -12t-17.5 13t-9.5 21q0 25 27 25q32 0 32 -27zM459 646q-19 -18 -29 -18q-7 0 -18.5 11.5t-11.5 18.5q0 30 30 30q10 0 29 -18v-24zM273 722
q0 -30 -34 -30q-11 0 -30 18v24q18 18 30 18q20 0 34 -30zM974 21q0 -9 -11 -21.5t-19 -12.5q-9 0 -19.5 12.5t-10.5 21.5q0 30 28 30q7 0 19.5 -11.5t12.5 -18.5zM336 658q0 -30 -34 -30q-7 0 -18 11.5t-11 18.5q0 30 29 30q20 0 34 -30zM1037 -43q0 -11 -10.5 -22.5
t-21.5 -11.5q-8 0 -17.5 13t-9.5 21q0 30 27 30q19 0 32 -30zM587 391q-18 -17 -30 -17q-29 0 -29 31q0 28 31 28q14 0 28 -13v-29zM396 582q-18 -17 -30 -17q-7 0 -18.5 11.5t-11.5 18.5q0 29 30 29q12 0 30 -17v-25zM459 519q-19 -18 -29 -18q-30 0 -30 32q0 28 30 28
q10 0 29 -18v-24zM523 455q-19 -18 -29 -18q-30 0 -30 32q0 28 32 28q12 0 27 -14v-28zM651 328q-19 -18 -30 -18t-30 18v24q18 17 32 17t28 -13v-28zM714 264q-19 -18 -27 -18t-20 10t-12 18q0 10 11 21t21 11q8 0 27 -18v-24zM778 200q-19 -18 -27 -18t-20 10t-12 18
q0 10 11 21t21 11q8 0 27 -18v-24zM842 136q-18 -17 -28 -17q-8 0 -20 10t-12 17q0 10 11 21t21 11q9 0 28 -18v-24zM910 85q0 -9 -11 -21.5t-19 -12.5q-10 0 -22 11.5t-12 20.5q0 27 32 27t32 -25zM974 -106q0 -30 -32 -30q-14 0 -28 13v29q18 17 28 17q19 0 32 -29z
M273 595q0 -30 -34 -30q-11 0 -30 18v24q17 17 30 17q34 0 34 -29zM336 531q0 -30 -34 -30q-29 0 -29 30t29 30q34 0 34 -30zM587 276q0 -30 -30 -30q-29 0 -29 30t31 30q28 0 28 -30zM205 660q0 -32 -30 -32q-11 0 -30 18v24q18 18 30 18q30 0 30 -28zM396 455
q-18 -18 -30 -18q-30 0 -30 32q0 28 30 28q1 0 30 -13v-29zM459 391q-17 -17 -29 -17q-30 0 -30 31q0 28 30 28l29 -13v-29zM523 328q-19 -18 -29 -18q-30 0 -30 32q0 27 32 27q13 0 27 -13v-28zM651 212q0 -30 -30 -30t-30 28q0 32 32 32q28 0 28 -30zM714 148
q0 -29 -27 -29q-20 0 -32 27q0 10 11.5 21t22.5 11q25 0 25 -30zM910 -43q0 -9 -11 -21.5t-19 -12.5q-10 0 -22 12t-12 22q0 9 12.5 19.5t21.5 10.5t19.5 -10.5t10.5 -19.5zM842 21q0 -9 -8.5 -21.5t-17.5 -12.5q-10 0 -22 11.5t-12 20.5t12.5 20.5t21.5 11.5q26 0 26 -30z
M778 85q0 -34 -25 -34q-10 0 -22 11.5t-12 20.5q0 27 32 27q27 0 27 -25zM273 469q0 -32 -34 -32q-11 0 -30 18v24q18 18 30 18q34 0 34 -28zM336 405q0 -31 -34 -31q-29 0 -29 31q0 28 29 28q34 0 34 -28zM909 -187q-29 -13 -31 -13q-32 0 -32 30q0 9 11 19.5t21 10.5
q7 0 16 -7q12 -10 15 -11v-29zM141 597q0 -32 -30 -32q-10 0 -29 18v24q17 17 29 17q30 0 30 -27zM205 519q-19 -18 -30 -18t-30 18v24q18 18 30 18q11 0 30 -18v-24zM587 148q0 -29 -30 -29q-29 0 -29 29q0 30 31 30q28 0 28 -30zM396 328q-18 -18 -30 -18q-30 0 -30 32
q0 27 30 27q1 0 30 -13v-28zM459 264q-19 -18 -29 -18q-30 0 -30 30t30 30q10 0 29 -18v-24zM523 212q0 -30 -29 -30q-30 0 -30 30t32 30q27 0 27 -30zM842 -109q0 -27 -28 -27q-32 0 -32 30q0 9 12.5 19t21.5 10q26 0 26 -32zM714 21q0 -34 -25 -34q-10 0 -22 11.5
t-12 20.5t12.5 20.5t21.5 11.5q25 0 25 -30zM778 -43q0 -34 -25 -34q-10 0 -22 11.5t-12 20.5t12.5 20.5t21.5 11.5q25 0 25 -30zM651 85q0 -34 -28 -34q-8 0 -20 12t-12 20q0 27 32 27q28 0 28 -25z" />
  </g>

</svg>
