<?xml version="1.0" standalone="no"?>
<!DOCTYPE svg PUBLIC "-//W3C//DTD SVG 1.1//EN" "http://www.w3.org/Graphics/SVG/1.1/DTD/svg11.dtd" >
<svg viewBox="0 -442 2048 2048">
  <g transform="matrix(1 0 0 -1 0 1606)">
   <path fill="currentColor"
d="M1214 1384q0 -25 -30 -25q-26 0 -26 25q0 28 28 28t28 -28zM1680 916q0 -26 -25 -26q-28 0 -28 26q0 30 26 30q27 0 27 -30zM1261 1337q0 -25 -30 -25q-27 0 -27 26q0 27 29 27q28 0 28 -28zM1308 1290q0 -25 -30 -25q-27 0 -27 26q0 27 29 27q28 0 28 -28zM1355 1243
q0 -25 -30 -25q-27 0 -27 26q0 27 28 27q29 0 29 -28zM1727 871q0 -28 -27 -28t-27 26q0 30 25 30q29 0 29 -28zM1401 1198q0 -27 -29 -27q-26 0 -27 40q15 13 27 13q29 0 29 -26zM1773 824q0 -28 -26 -28q-27 0 -27 26q0 30 25 30q28 0 28 -28zM1820 777q0 -28 -26 -28
q-27 0 -27 27q0 29 25 29q28 0 28 -28zM1867 730q0 -28 -28 -28q-25 0 -25 27q0 29 25 29q28 0 28 -28zM1633 950q-12 -13 -27 -13q-26 0 -26 26q0 27 26 27q20 0 27 -14v-26zM1167 1430q0 -28 -28 -28t-28 28q0 29 28 29t28 -29zM1586 997q-13 -14 -27 -14q-26 0 -26 27
t26 27q20 0 27 -14v-26zM1961 624q-17 -16 -28 -16q-28 0 -28 28q0 29 26 29q12 0 30 -17v-24zM2008 578q-18 -17 -28 -17q-28 0 -28 29q0 28 26 28q13 0 30 -16v-24zM1073 1523q0 -27 -28 -27t-28 28t28 28t28 -29zM1120 1476q0 -27 -28 -27t-28 28t28 28t28 -29z
M1445 1137q-12 -13 -26 -13q-27 0 -27 27q0 26 27 26q20 0 26 -13v-27zM1492 1090q-12 -13 -26 -13q-27 0 -27 27q0 26 27 26q20 0 26 -13v-27zM1539 1043q-12 -13 -27 -13q-26 0 -26 27q0 26 26 26q21 0 27 -13v-27zM1914 683q0 -28 -28 -28t-28 28t28 28t28 -28z
M1120 1384q0 -25 -30 -25q-26 0 -26 25q0 28 28 28t28 -28zM1167 1337q0 -25 -30 -25q-26 0 -26 25q0 28 28 28t28 -28zM1214 1290q0 -25 -30 -25q-26 0 -26 26q0 27 28 27t28 -28zM1308 1198q0 -27 -30 -27q-25 0 -26 40q15 13 26 13q30 0 30 -26zM1586 916q0 -26 -25 -26
q-28 0 -28 26q0 30 26 30q27 0 27 -30zM1633 869q0 -26 -25 -26q-28 0 -28 26q0 30 26 30q27 0 27 -30zM1680 824q0 -28 -27 -28q-26 0 -26 26q0 30 26 30q27 0 27 -28zM1261 1243q0 -25 -30 -25q-27 0 -27 26q0 27 29 27q28 0 28 -28zM1355 1151q0 -27 -30 -27
q-26 0 -27 40q15 13 27 13q30 0 30 -26zM1727 777q0 -28 -27 -28t-27 27q0 29 25 29q29 0 29 -28zM1867 636q0 -28 -28 -28q-25 0 -25 27q0 30 25 30q28 0 28 -29zM1401 1104q0 -27 -29 -27q-26 0 -27 40q15 13 27 13q29 0 29 -26zM1773 730q0 -28 -26 -28q-27 0 -27 27
q0 29 25 29q28 0 28 -28zM1820 683q0 -28 -28 -28q-25 0 -25 27q0 29 25 29q28 0 28 -28zM1539 950q-14 -13 -25 -13q-28 0 -28 26q0 27 26 27q20 0 27 -14v-26zM1961 531q-17 -16 -28 -16q-28 0 -28 29q0 27 26 27q13 0 30 -16v-24zM1073 1429q0 -27 -26 -27q-30 0 -30 28
q0 29 28 29t28 -30zM1492 997q-13 -14 -26 -14q-27 0 -27 27t27 27q19 0 26 -14v-26zM1914 578q-18 -17 -28 -17q-28 0 -28 30q0 27 26 27q13 0 30 -16v-24zM1026 1476q0 -27 -26 -27q-30 0 -30 28t28 28t28 -29zM1445 1043q-12 -13 -26 -13q-26 0 -27 40q15 13 27 13
q20 0 26 -13v-27zM1026 1382q0 -23 -28 -23t-28 25q0 28 28 28t28 -30zM1073 1337q0 -25 -29 -25q-27 0 -27 25q0 28 28 28t28 -28zM1120 1290q0 -25 -30 -25q-26 0 -26 25q0 28 28 28t28 -28zM1167 1243q0 -25 -30 -25q-26 0 -26 26q0 27 28 27t28 -28zM1214 1198
q0 -27 -30 -27q-26 0 -26 27q0 26 28 26t28 -26zM1261 1151q0 -27 -30 -27q-25 0 -26 40q15 13 26 13q30 0 30 -26zM1308 1104q0 -27 -30 -27q-25 0 -26 40q15 13 26 13q30 0 30 -26zM1492 916q0 -26 -25 -26q-28 0 -28 28t27 28q26 0 26 -30zM1539 869q0 -26 -25 -26
q-28 0 -28 26q0 30 26 30q27 0 27 -30zM1586 822q0 -26 -25 -26q-28 0 -28 26q0 30 26 30q27 0 27 -30zM1633 777q0 -28 -27 -28q-26 0 -26 27q0 29 26 29q27 0 27 -28zM1680 730q0 -28 -27 -28q-26 0 -26 27q0 29 26 29q27 0 27 -28zM1867 543q0 -28 -28 -28q-25 0 -25 28
t24 28q29 0 29 -28zM1355 1057q0 -27 -30 -27q-26 0 -27 40q15 13 27 13q30 0 30 -26zM1727 683q0 -28 -27 -28t-27 27q0 29 25 29q29 0 29 -28zM1773 636q0 -28 -28 -28q-25 0 -25 27q0 30 25 30q28 0 28 -29zM1820 590q0 -29 -28 -29q-25 0 -25 27q0 30 25 30q28 0 28 -28
zM1401 1010q0 -27 -28 -27q-30 0 -29 31l1 10q15 13 27 13q29 0 29 -27zM1914 496q0 -28 -28 -28t-28 29q0 27 26 27q30 0 30 -28zM1445 950q-14 -13 -25 -13q-30 0 -29 30l1 10q15 13 27 13q19 0 26 -14v-26zM979 1429q0 -27 -26 -27q-30 0 -30 28q0 29 28 29t28 -30z
M1401 916q0 -26 -28 -26t-28 28t27 28q29 0 29 -30zM933 1382q0 -23 -29 -23q-28 0 -28 25q0 28 28 28q29 0 29 -30zM1680 636q0 -28 -27 -28q-26 0 -26 27q0 30 26 30q27 0 27 -29zM1308 1010q0 -27 -28 -27q-30 0 -29 31l1 10q15 13 26 13q30 0 30 -27zM1355 963
q0 -26 -29 -26q-30 0 -29 30l1 10q15 13 27 13q30 0 30 -27zM979 1335q0 -23 -28 -23t-28 25q0 28 28 28t28 -30zM1026 1290q0 -25 -29 -25q-27 0 -27 25q0 28 28 28t28 -28zM1073 1243q0 -25 -29 -25q-27 0 -27 25q0 28 28 28t28 -28zM1120 1198q0 -27 -30 -27
q-26 0 -26 27q0 26 28 26t28 -26zM1167 1151q0 -27 -30 -27q-26 0 -26 27q0 26 28 26t28 -26zM1445 869q0 -26 -25 -26q-28 0 -28 28t27 28q26 0 26 -30zM1492 822q0 -26 -25 -26q-28 0 -28 28t27 28q26 0 26 -30zM1539 776q0 -27 -25 -27q-28 0 -28 28t26 28q27 0 27 -29z
M1586 730q0 -28 -27 -28q-26 0 -26 28t26 28q27 0 27 -28zM1633 683q0 -28 -27 -28q-26 0 -26 27q0 29 26 29q27 0 27 -28zM1727 590q0 -29 -29 -29q-25 0 -25 27q0 30 25 30q29 0 29 -28zM1773 543q0 -28 -28 -28q-25 0 -25 26q0 30 25 30q28 0 28 -28zM1820 496
q0 -28 -28 -28q-25 0 -25 28t24 28q29 0 29 -28zM1867 449q0 -28 -28 -28q-25 0 -25 28t24 28q29 0 29 -28zM1214 1104q0 -27 -28 -27q-30 0 -29 30l1 10q15 13 26 13q30 0 30 -26zM1261 1057q0 -27 -28 -27q-30 0 -29 31l1 10q14 12 26 12q30 0 30 -26zM1308 916
q0 -26 -28 -26q-29 0 -29 28t29 28q28 0 28 -30zM1355 869q0 -26 -29 -26q-28 0 -28 28t27 28q30 0 30 -30zM1401 824q0 -28 -28 -28t-28 28t27 28q29 0 29 -28zM1680 543q0 -28 -27 -28q-26 0 -26 26q0 30 26 30q27 0 27 -28zM886 1337q0 -25 -28 -25q-29 0 -29 26
q0 27 29 27q28 0 28 -28zM933 1290q0 -25 -29 -25q-28 0 -28 26q0 27 28 27q29 0 29 -28zM1214 1010q0 -27 -28 -27t-28 29q0 25 26 25q30 0 30 -27zM1261 963q0 -26 -28 -26q-29 0 -29 28q0 25 27 25q30 0 30 -27zM1586 636q0 -28 -27 -28q-26 0 -26 28q0 29 26 29
q27 0 27 -29zM1633 590q0 -29 -27 -29q-26 0 -26 29q0 28 26 28q27 0 27 -28zM1727 496q0 -28 -27 -28t-27 26q0 30 27 30t27 -28zM979 1244q0 -26 -29 -26q-27 0 -27 26q0 27 28 27t28 -27zM1026 1198q0 -27 -29 -27q-27 0 -27 27q0 26 28 26t28 -26zM1073 1151
q0 -27 -28 -27t-28 27q0 26 28 26t28 -26zM1120 1104q0 -27 -28 -27t-28 27q0 26 28 26t28 -26zM1167 1057q0 -27 -28 -27t-28 28q0 25 26 25q30 0 30 -26zM1445 776q0 -27 -25 -27q-28 0 -28 28t27 28q26 0 26 -29zM1492 729q0 -27 -25 -27q-28 0 -28 28t27 28q26 0 26 -29
zM1539 683q0 -28 -27 -28q-26 0 -26 28t26 28q27 0 27 -28zM1773 449q0 -28 -26 -28q-13 0 -27 13v30q15 13 25 13q28 0 28 -28zM1820 402q0 -28 -26 -28q-13 0 -27 13v30q15 13 25 13q28 0 28 -28zM1214 916q0 -26 -28 -26t-28 28t28 28t28 -30zM1261 869q0 -26 -28 -26
q-29 0 -29 28t29 28q28 0 28 -30zM1308 822q0 -26 -28 -26q-29 0 -29 28t27 28q30 0 30 -30zM1355 777q0 -28 -29 -28q-28 0 -28 28t27 28q30 0 30 -28zM1401 730q0 -28 -28 -28t-28 28t27 28q29 0 29 -28zM1167 963q0 -26 -28 -26t-28 28q0 25 26 25q30 0 30 -27zM1586 543
q0 -28 -27 -28q-26 0 -26 28t26 28q27 0 27 -28zM1633 496q0 -28 -25 -28q-28 0 -28 28t26 28q27 0 27 -28zM1680 449q0 -28 -25 -28q-28 0 -28 28t26 28q27 0 27 -28zM1727 402q0 -28 -27 -28t-27 30q0 6 1 13q15 13 24 13q29 0 29 -28zM839 1290q0 -25 -28 -25
q-29 0 -29 26q0 27 29 27q28 0 28 -28zM886 1243q0 -25 -27 -25q-30 0 -30 26q0 27 29 27q28 0 28 -28zM933 1198q0 -27 -29 -27q-28 0 -28 28q0 25 28 25q29 0 29 -26zM1120 1010q0 -27 -28 -27t-28 29q0 25 26 25q30 0 30 -27zM1492 636q0 -28 -26 -28q-27 0 -27 28
q0 29 27 29q26 0 26 -29zM1539 590q0 -29 -27 -29q-26 0 -26 29q0 28 26 28q27 0 27 -28zM979 1151q0 -27 -28 -27t-28 28q0 25 28 25t28 -26zM1026 1104q0 -27 -28 -27t-28 27q0 26 28 26t28 -26zM1073 1057q0 -27 -28 -27t-28 27q0 26 28 26t28 -26zM1445 682
q0 -27 -25 -27q-28 0 -28 28t27 28q26 0 26 -29zM1773 355q0 -28 -26 -28q-13 0 -27 13v30q15 13 25 13q28 0 28 -28zM1120 918q0 -28 -28 -28t-28 28t28 28t28 -28zM1167 869q0 -26 -28 -26t-28 28t28 28t28 -30zM1214 822q0 -26 -28 -26t-28 28t28 28t28 -30zM1261 776
q0 -27 -28 -27q-29 0 -29 28t27 28q30 0 30 -29zM1308 730q0 -28 -28 -28q-29 0 -29 28t27 28q30 0 30 -28zM1355 683q0 -28 -29 -28q-28 0 -28 28t27 28q30 0 30 -28zM1401 636q0 -28 -28 -28t-28 28q0 29 28 29t28 -29zM792 1243q0 -25 -27 -25q-29 0 -29 26q0 27 28 27
t28 -28zM1073 965q0 -28 -28 -28t-28 28q0 25 28 25t28 -25zM1492 544q0 -29 -26 -29q-27 0 -27 28t28 28q25 0 25 -27zM1539 497q0 -29 -25 -29q-28 0 -28 28t28 28q25 0 25 -27zM1586 450q0 -29 -25 -29q-28 0 -28 28t28 28q25 0 25 -27zM1633 404q0 -30 -25 -30
q-28 0 -28 28t28 28q25 0 25 -26zM1680 357q0 -30 -25 -30q-29 0 -28 36v7q15 13 26 13q27 0 27 -26zM839 1184q-12 -13 -27 -13q-30 0 -30 28q0 25 35 25q11 0 22 -13v-27zM1727 308q0 -28 -27 -28t-27 30q0 6 1 13q15 13 24 13q29 0 29 -28zM886 1152q0 -28 -28 -28
q-29 0 -29 28q0 25 30 25q27 0 27 -25zM933 1105q0 -28 -29 -28q-28 0 -28 28q0 25 30 25q27 0 27 -25zM1026 1012q0 -29 -28 -29t-28 27t30 27q26 0 26 -25zM1445 591q0 -30 -26 -30q-27 0 -27 29q0 28 28 28q25 0 25 -27zM979 1058q0 -28 -28 -28t-28 28q0 25 30 25
q26 0 26 -25zM1026 918q0 -28 -28 -28t-28 29q0 27 28 27t28 -28zM1073 871q0 -28 -28 -28t-28 29q0 27 28 27t28 -28zM1120 824q0 -28 -28 -28t-28 28t28 28t28 -28zM1167 776q0 -27 -28 -27t-28 28t28 28t28 -29zM1214 729q0 -27 -28 -27t-28 28t26 28q30 0 30 -29z
M1308 636q0 -28 -28 -28q-29 0 -29 28q0 29 29 29q28 0 28 -29zM1355 590q0 -29 -27 -29q-30 0 -30 29q0 28 28 28q29 0 29 -28zM1401 543q0 -28 -28 -28t-28 28t28 28t28 -28zM1261 683q0 -28 -28 -28q-29 0 -29 28t27 28q30 0 30 -28zM745 1184q-12 -13 -27 -13
q-29 0 -29 28q0 25 34 25q11 0 22 -13v-27zM792 1137q-12 -13 -27 -13q-29 0 -29 28q0 25 34 25q11 0 22 -13v-27zM933 1012q0 -29 -29 -29q-28 0 -28 29q0 25 30 25q27 0 27 -25zM979 965q0 -28 -28 -28t-28 28q0 25 30 25q26 0 26 -25zM1445 497q0 -29 -25 -29
q-28 0 -28 28t28 28q25 0 25 -27zM1492 450q0 -29 -25 -29q-28 0 -28 28t28 28q25 0 25 -27zM1539 404q0 -30 -25 -30q-28 0 -28 28t28 28q25 0 25 -26zM1586 357q0 -30 -25 -30q-28 0 -28 28t28 28q25 0 25 -26zM1633 310q0 -30 -25 -30q-29 0 -28 36v7q15 13 26 13
q27 0 27 -26zM1680 263q0 -30 -25 -30q-29 0 -28 36v7q15 13 26 13q27 0 27 -26zM839 1105q0 -28 -28 -28q-29 0 -29 28q0 25 30 25q27 0 27 -25zM886 1058q0 -28 -28 -28q-29 0 -29 28q0 25 30 25q27 0 27 -25zM933 918q0 -28 -29 -28q-28 0 -28 28t28 28q29 0 29 -28z
M1214 636q0 -28 -27 -28q-29 0 -29 28q0 29 28 29t28 -29zM1308 543q0 -28 -27 -28q-30 0 -30 28t29 28q28 0 28 -28zM1355 496q0 -28 -29 -28q-28 0 -28 28t28 28q29 0 29 -28zM1633 203q-13 -14 -27 -14q-4 0 -11.5 2t-11.5 2q-3 9 -3 24v13q15 13 26 13q17 0 27 -14v-26z
M698 1137q-12 -13 -26 -13q-4 0 -11.5 2t-11.5 2q-4 12 -4 36q15 13 31 13q11 0 22 -13v-27zM979 871q0 -28 -28 -28t-28 28t28 28t28 -28zM1026 824q0 -28 -28 -28t-28 30q0 26 28 26t28 -28zM1073 777q0 -28 -28 -28t-28 30q0 26 28 26t28 -28zM1120 730q0 -28 -28 -28
t-28 30q0 26 26 26q30 0 30 -28zM1167 682q0 -27 -28 -27t-28 28t26 28q30 0 30 -29zM1261 590q0 -29 -27 -29q-30 0 -30 29q0 28 29 28q28 0 28 -28zM1401 449q0 -28 -28 -28t-28 28t28 28t28 -28zM886 965q0 -28 -28 -28q-29 0 -29 28q0 25 30 25q27 0 27 -25zM745 1090
q-12 -13 -27 -13q-29 0 -29 28q0 25 34 25q11 0 22 -13v-27zM792 1058q0 -28 -28 -28t-28 28q0 25 29 25q27 0 27 -25zM839 1012q0 -29 -28 -29q-29 0 -29 29q0 25 30 25q27 0 27 -25zM1445 404q0 -30 -25 -30q-28 0 -28 28t28 28q25 0 25 -26zM1492 357q0 -30 -25 -30
q-28 0 -28 28t28 28q25 0 25 -26zM1539 310q0 -30 -25 -30q-28 0 -28 28t28 28q25 0 25 -26zM1586 263q0 -30 -25 -30q-29 0 -28 36v7q15 13 26 13q27 0 27 -26zM1214 544q0 -29 -27 -29q-29 0 -29 28t28 28t28 -27zM1586 156q-12 -13 -27 -13q-4 0 -11.5 1.5t-11.5 1.5
q-3 9 -3 24v13q15 13 26 13q17 0 27 -14v-26zM839 918q0 -28 -28 -28q-29 0 -29 28t29 28q28 0 28 -28zM886 871q0 -28 -28 -28q-29 0 -29 28t29 28q28 0 28 -28zM933 824q0 -28 -29 -28q-28 0 -28 28t28 28q29 0 29 -28zM1120 636q0 -28 -26 -28q-30 0 -30 30q0 27 28 27
t28 -29zM1167 590q0 -29 -27 -29q-29 0 -29 30q0 27 28 27t28 -28zM1261 496q0 -28 -28 -28q-29 0 -29 28t29 28q28 0 28 -28zM1308 449q0 -28 -28 -28q-29 0 -29 28t29 28q28 0 28 -28zM1355 402q0 -28 -29 -28q-28 0 -28 28t28 28q29 0 29 -28zM1539 203q-13 -14 -27 -14
q-26 0 -26 27t26 27q17 0 27 -14v-26zM651 1090q-12 -13 -26 -13q-4 0 -11.5 2t-11.5 2q-4 12 -4 36q15 13 31 13q11 0 22 -13v-27zM698 1043q-12 -13 -26 -13q-27 0 -27 27q0 26 31 26q11 0 22 -13v-27zM979 777q0 -28 -28 -28t-28 28t28 28t28 -28zM1026 730
q0 -28 -28 -28t-28 30q0 26 30 26q26 0 26 -28zM1073 683q0 -28 -26 -28q-30 0 -30 30q0 26 28 26t28 -28zM1401 355q0 -28 -28 -28t-28 28t28 28t28 -28zM792 965q0 -28 -28 -28t-28 28q0 25 29 25q27 0 27 -25zM745 1012q0 -29 -28 -29t-28 29q0 25 29 25q27 0 27 -25z
M1445 310q0 -30 -25 -30q-28 0 -28 28t28 28q25 0 25 -26zM1492 263q0 -30 -25 -30q-28 0 -28 28t28 28q25 0 25 -26zM698 965q0 -28 -28 -28q-25 0 -25 26q0 27 27 27q26 0 26 -25zM745 918q0 -28 -28 -28t-28 28t29 28q27 0 27 -28zM792 871q0 -28 -28 -28t-28 28t29 28
q27 0 27 -28zM1120 543q0 -28 -26 -28q-30 0 -30 29q0 27 28 27t28 -28zM1167 497q0 -29 -28 -29t-28 29q0 27 28 27t28 -27zM1214 450q0 -29 -28 -29t-28 29q0 27 28 27t28 -27zM1492 156q-12 -13 -26 -13q-27 0 -27 26q0 27 27 27q16 0 26 -14v-26zM1539 109
q-12 -13 -27 -13q-25 0 -26 40q15 13 26 13q18 0 27 -13v-27zM651 997q-13 -14 -26 -14q-27 0 -27 27t27 27q14 0 26 -14v-26zM839 824q0 -28 -28 -28q-29 0 -29 28t30 28q27 0 27 -28zM886 777q0 -28 -27 -28q-30 0 -30 28t30 28q27 0 27 -28zM933 730q0 -28 -27 -28
q-30 0 -30 28t30 28q27 0 27 -28zM1026 636q0 -28 -26 -28q-30 0 -30 30q0 27 28 27t28 -29zM1073 590q0 -29 -26 -29q-30 0 -30 30q0 27 28 27t28 -28zM1261 404q0 -30 -28 -30q-29 0 -29 30q0 26 29 26q28 0 28 -26zM1308 357q0 -30 -28 -30q-29 0 -29 28t29 28
q28 0 28 -26zM1355 310q0 -30 -29 -30q-28 0 -28 28t28 28q29 0 29 -26zM1445 203q-13 -14 -26 -14q-27 0 -27 25q0 29 28 29q11 0 25 -13v-27zM604 1043q-13 -13 -25 -13q-28 0 -28 27q0 26 31 26q11 0 22 -13v-27zM979 683q0 -28 -26 -28q-30 0 -30 28t30 28q26 0 26 -28z
M1401 263q0 -30 -28 -30t-28 28t28 28t28 -26zM651 918q0 -28 -28 -28q-25 0 -25 26q0 30 27 30q26 0 26 -28zM698 871q0 -28 -28 -28q-25 0 -25 26q0 30 27 30q26 0 26 -28zM1355 216q0 -27 -30 -27q-27 0 -27 25q0 29 28 29q29 0 29 -27zM1401 169q0 -26 -29 -26
q-27 0 -27 25q0 28 28 28t28 -27zM604 950q-13 -13 -25 -13q-28 0 -28 26q0 27 31 27q11 0 22 -13v-27zM745 824q0 -28 -27 -28q-29 0 -29 28t29 28q27 0 27 -28zM792 777q0 -28 -27 -28q-29 0 -29 28t29 28q27 0 27 -28zM933 636q0 -28 -27 -28q-30 0 -30 28q0 29 28 29
q29 0 29 -29zM1026 543q0 -28 -26 -28q-30 0 -30 29q0 27 28 27t28 -28zM1073 496q0 -28 -28 -28t-28 29q0 27 28 27t28 -28zM1120 449q0 -28 -28 -28t-28 29q0 27 28 27t28 -28zM1167 404q0 -30 -28 -30t-28 30q0 26 28 26t28 -26zM1214 357q0 -30 -28 -30t-28 30
q0 26 28 26t28 -26zM1445 109q-12 -13 -26 -13q-26 0 -27 40q15 13 25 13h8q11 0 20 -13v-27zM1492 62q-12 -13 -26 -13q-26 0 -27 40q15 13 25 13h8q11 0 20 -13v-27zM557 996q-13 -13 -25 -13q-28 0 -28 27t27 27q14 0 26 -14v-27zM839 730q0 -28 -27 -28q-30 0 -30 28
t30 28q27 0 27 -28zM886 683q0 -28 -27 -28q-30 0 -30 28t30 28q27 0 27 -28zM979 590q0 -29 -26 -29q-30 0 -30 29q0 28 28 28t28 -28zM1261 310q0 -30 -28 -30q-29 0 -29 30q0 26 29 26q28 0 28 -26zM1308 263q0 -30 -28 -30q-29 0 -29 30q0 26 29 26q28 0 28 -26z
M1308 169q0 -26 -30 -26q-27 0 -27 26q0 27 29 27q28 0 28 -27zM1355 122q0 -26 -30 -26q-27 0 -27 26q0 27 28 27q29 0 29 -27zM557 916q0 -26 -25 -26q-28 0 -28 26q0 30 27 30q26 0 26 -30zM604 871q0 -28 -26 -28q-27 0 -27 26q0 30 27 30q26 0 26 -28zM651 824
q0 -28 -26 -28q-27 0 -27 26q0 30 27 30q26 0 26 -28zM698 777q0 -28 -26 -28q-27 0 -27 27q0 29 27 29q26 0 26 -28zM1261 216q0 -27 -30 -27q-27 0 -27 27t29 27q28 0 28 -27zM1401 75q0 -26 -29 -26q-26 0 -27 40q15 13 27 13q29 0 29 -27zM933 543q0 -28 -27 -28
q-30 0 -30 29q0 27 28 27q29 0 29 -28zM510 950q-13 -13 -24 -13q-29 0 -29 26q0 27 31 27q11 0 22 -13v-27zM745 730q0 -28 -27 -28q-29 0 -29 28t29 28q27 0 27 -28zM792 683q0 -28 -27 -28q-29 0 -29 28t29 28q27 0 27 -28zM839 636q0 -28 -27 -28q-30 0 -30 28
q0 29 29 29q28 0 28 -29zM886 590q0 -29 -27 -29q-30 0 -30 29q0 28 29 28q28 0 28 -28zM979 496q0 -28 -26 -28q-30 0 -30 29q0 27 28 27t28 -28zM1026 449q0 -28 -28 -28t-28 29q0 27 28 27t28 -28zM1073 402q0 -28 -28 -28t-28 30q0 26 28 26t28 -28zM1120 355
q0 -28 -28 -28t-28 30q0 26 28 26t28 -28zM1167 310q0 -30 -28 -30t-28 30q0 26 28 26t28 -26zM1214 263q0 -30 -28 -30t-28 30q0 26 28 26t28 -26zM1445 15q-12 -13 -26 -13q-26 0 -27 40q15 13 25 13h8q11 0 20 -13v-27zM1214 169q0 -26 -30 -26q-26 0 -26 26q0 27 28 27
t28 -27zM464 916q0 -26 -25 -26q-29 0 -29 26q0 30 27 30t27 -30zM511 869q0 -26 -25 -26q-29 0 -29 26q0 30 27 30t27 -30zM1167 216q0 -27 -30 -27q-26 0 -26 27t28 27t28 -27zM1261 122q0 -26 -30 -26q-27 0 -27 28q0 25 29 25q28 0 28 -27zM1308 75q0 -26 -30 -26
q-27 0 -27 26q0 27 29 27q28 0 28 -27zM1355 28q0 -26 -30 -26q-26 0 -27 40q15 13 27 13q30 0 30 -27zM557 824q0 -28 -26 -28q-27 0 -27 26q0 30 27 30q26 0 26 -28zM604 777q0 -28 -25 -28q-28 0 -28 27q0 29 27 29q26 0 26 -28zM651 730q0 -28 -26 -28q-27 0 -27 27
q0 29 27 29q26 0 26 -28zM698 683q0 -28 -26 -28q-27 0 -27 27q0 29 27 29q26 0 26 -28zM1401 -18q0 -27 -29 -27q-26 0 -27 40q15 13 27 13q29 0 29 -26zM745 636q0 -28 -27 -28q-29 0 -29 30q0 27 28 27t28 -29zM792 590q0 -29 -27 -29q-29 0 -29 29q0 28 28 28t28 -28z
M839 543q0 -28 -27 -28q-30 0 -30 28t29 28q28 0 28 -28zM886 496q0 -28 -27 -28q-30 0 -30 28t29 28q28 0 28 -28zM933 449q0 -28 -27 -28q-30 0 -30 29q0 27 28 27q29 0 29 -28zM979 402q0 -28 -28 -28t-28 30q0 26 28 26t28 -28zM1026 355q0 -28 -28 -28t-28 30
q0 26 28 26t28 -28zM1073 308q0 -28 -28 -28t-28 30q0 26 28 26t28 -28zM1120 263q0 -8 -9 -19t-17 -11q-30 0 -30 30q0 26 28 26t28 -26zM417 869q0 -26 -25 -26q-28 0 -28 26q0 30 28 30q25 0 25 -30zM1120 169q0 -26 -30 -26q-26 0 -26 26q0 27 28 27t28 -27zM1167 122
q0 -26 -30 -26q-26 0 -26 28q0 25 28 25t28 -27zM1214 75q0 -26 -30 -26q-26 0 -26 28q0 25 28 25t28 -27zM1308 -18q0 -27 -30 -27q-27 0 -26 40q15 13 26 13q30 0 30 -26zM464 822q0 -26 -24 -26q-30 0 -30 26q0 30 27 30t27 -30zM511 777q0 -28 -25 -28q-29 0 -29 27
q0 29 27 29t27 -28zM651 636q0 -28 -26 -28q-27 0 -27 27q0 30 27 30q26 0 26 -29zM698 590q0 -29 -26 -29q-27 0 -27 29q0 28 25 28q28 0 28 -28zM1073 216q0 -27 -29 -27q-27 0 -27 27t28 27t28 -27zM1261 28q0 -26 -30 -26q-27 0 -27 28q0 25 29 25q28 0 28 -27z
M1355 -64q0 -28 -30 -28q-26 0 -27 40q15 13 27 13q30 0 30 -25zM557 730q0 -28 -25 -28q-28 0 -28 27q0 29 27 29q26 0 26 -28zM604 683q0 -28 -25 -28q-28 0 -28 27q0 29 27 29q26 0 26 -28zM745 543q0 -28 -27 -28q-29 0 -29 29q0 27 28 27t28 -28zM792 496
q0 -28 -27 -28q-29 0 -29 29q0 27 28 27t28 -28zM839 449q0 -28 -27 -28q-30 0 -30 28t29 28q28 0 28 -28zM886 402q0 -28 -27 -28q-30 0 -30 30q0 26 29 26q28 0 28 -28zM933 355q0 -28 -29 -28q-28 0 -28 30q0 26 28 26q29 0 29 -28zM979 308q0 -28 -26 -28q-30 0 -30 30
q0 26 28 26t28 -28zM1026 261q0 -28 -26 -28q-30 0 -30 30q0 26 28 26t28 -28zM417 776q0 -27 -24 -27q-15 0 -29 13v27q19 16 28 16q25 0 25 -29zM651 543q0 -28 -26 -28q-27 0 -27 28t25 28q28 0 28 -28zM698 496q0 -28 -26 -28q-27 0 -27 28t25 28q28 0 28 -28zM1026 169
q0 -26 -29 -26q-27 0 -27 26q0 27 28 27t28 -27zM1073 122q0 -26 -29 -26q-27 0 -27 28q0 25 28 25t28 -27zM1120 75q0 -26 -30 -26q-26 0 -26 28q0 25 28 25t28 -27zM1167 28q0 -26 -30 -26q-26 0 -26 28q0 25 28 25t28 -27zM1214 -18q0 -27 -30 -27q-26 0 -26 28
q0 25 28 25t28 -26zM1261 -64q0 -28 -30 -28q-27 0 -26 40q15 13 26 13q30 0 30 -25zM1308 -111q0 -28 -28 -28q-27 0 -28 40q15 13 26 13q30 0 30 -25zM370 822q0 -26 -24 -26q-31 0 -30 30l1 10l28 16q25 0 25 -30zM464 730q0 -28 -25 -28q-29 0 -29 27q0 29 27 29t27 -28
zM511 683q0 -28 -25 -28q-29 0 -29 27q0 29 27 29t27 -28zM557 636q0 -28 -25 -28q-28 0 -28 27q0 30 27 30q26 0 26 -29zM604 590q0 -29 -25 -29q-28 0 -28 27q0 30 27 30q26 0 26 -28zM979 214q0 -25 -28 -25t-28 27t28 27t28 -29zM745 449q0 -28 -27 -28q-29 0 -29 29
q0 27 28 27t28 -28zM792 402q0 -28 -27 -28q-29 0 -29 30q0 26 28 26t28 -28zM839 355q0 -28 -25 -28q-32 0 -32 31q0 25 29 25q28 0 28 -28zM886 308q0 -28 -27 -28q-30 0 -30 30q0 26 29 26q28 0 28 -28zM933 261q0 -28 -27 -28q-30 0 -30 30q0 26 28 26q29 0 29 -28z
M933 168q0 -25 -29 -25q-28 0 -28 28q0 25 28 25q29 0 29 -28zM464 636q0 -28 -25 -28q-29 0 -29 27q0 30 27 30t27 -29zM511 590q0 -29 -25 -29q-29 0 -29 27q0 30 27 30t27 -28zM557 543q0 -28 -25 -28q-28 0 -28 26q0 30 27 30q26 0 26 -28zM604 496q0 -28 -25 -28
q-14 0 -28 13v30q15 13 25 13q28 0 28 -28zM651 449q0 -28 -25 -28q-14 0 -28 13v30q15 13 25 13q28 0 28 -28zM698 402q0 -28 -25 -28q-14 0 -28 13v30q15 13 25 13q28 0 28 -28zM886 214q0 -25 -28 -25q-29 0 -29 29q0 25 29 25q28 0 28 -29zM979 122q0 -26 -29 -26
q-27 0 -27 28q0 25 28 25t28 -27zM1026 75q0 -26 -29 -26q-27 0 -27 28q0 25 28 25t28 -27zM1073 28q0 -26 -29 -26q-27 0 -27 28q0 25 28 25t28 -27zM1120 -18q0 -27 -30 -27q-26 0 -26 28q0 25 28 25t28 -26zM1167 -64q0 -28 -28 -28t-28 28q0 25 28 25t28 -25zM1214 -111
q0 -28 -28 -28q-27 0 -28 40q15 13 26 13q30 0 30 -25zM1261 -158q0 -28 -28 -28q-27 0 -28 40q15 13 26 13q30 0 30 -25zM323 776q0 -27 -23 -27q-32 0 -30 31v9l28 16q25 0 25 -29zM370 729q0 -27 -24 -27q-31 0 -30 30l1 10q18 16 28 16q25 0 25 -29zM417 683
q0 -28 -25 -28q-31 0 -29 31l1 9q18 16 28 16q25 0 25 -28zM745 355q0 -28 -25 -28q-31 0 -31 30q0 26 28 26t28 -28zM792 308q0 -28 -25 -28q-31 0 -31 31q0 25 28 25t28 -28zM839 261q0 -28 -27 -28q-30 0 -30 31q0 25 29 25q28 0 28 -28zM370 636q0 -28 -25 -28
q-28 0 -28 28q0 29 28 29q25 0 25 -29zM417 590q0 -29 -25 -29q-28 0 -28 29q0 28 28 28q25 0 25 -28zM464 543q0 -28 -25 -28q-29 0 -29 28t27 28t27 -28zM511 496q0 -28 -25 -28q-29 0 -29 28t27 28t27 -28zM792 214q0 -25 -28 -25t-28 29q0 25 28 25t28 -29zM839 168
q0 -25 -28 -25q-29 0 -29 28q0 25 29 25q28 0 28 -28zM886 121q0 -25 -28 -25q-29 0 -29 28q0 25 29 25q28 0 28 -28zM933 75q0 -26 -30 -26q-27 0 -27 28q0 25 28 25q29 0 29 -27zM1214 -204q0 -29 -28 -29q-27 0 -28 41q15 13 26 13q30 0 30 -25zM557 449q0 -28 -25 -28
q-14 0 -28 13v30q15 13 25 13q28 0 28 -28zM604 402q0 -28 -25 -28q-14 0 -28 13v30q15 13 25 13q28 0 28 -28zM651 355q0 -28 -25 -28q-14 0 -28 13v30q15 13 25 13q28 0 28 -28zM698 308q0 -28 -25 -28q-14 0 -28 13v30q15 13 25 13q28 0 28 -28zM979 28q0 -26 -28 -26
t-28 28q0 25 28 25t28 -27zM1026 -18q0 -27 -28 -27t-28 28q0 25 28 25t28 -26zM1073 -64q0 -28 -28 -28t-28 28q0 25 28 25t28 -25zM1120 -111q0 -28 -28 -28t-28 28q0 25 28 25t28 -25zM1167 -158q0 -28 -28 -28q-27 0 -28 40q15 13 26 13q30 0 30 -25zM276 729
q0 -27 -23 -27q-32 0 -30 31v9q18 16 28 16q25 0 25 -29zM323 682q0 -27 -23 -27q-32 0 -30 31v9q18 16 28 16q25 0 25 -29zM745 261q0 -28 -25 -28q-31 0 -31 31q0 25 28 25t28 -28zM1167 -251q0 -28 -28 -28t-28 29q0 27 28 27t28 -28zM698 214q0 -25 -24 -25h-8
q-21 0 -21 11v30q15 13 25 13q28 0 28 -29zM232 683q0 -28 -26 -28q-32 0 -30 31v9q18 16 28 16q18 0 28 -28zM370 543q0 -28 -25 -28q-28 0 -28 28t28 28q25 0 25 -28zM417 496q0 -28 -25 -28q-28 0 -28 28t26 28q27 0 27 -28zM511 402q0 -28 -24 -28q-3 0 -26 7
q-3 9 -3 24v12q15 13 24 13q29 0 29 -28zM745 168q0 -25 -28 -25t-28 28q0 25 28 25t28 -28zM792 121q0 -25 -28 -25t-28 29q0 24 28 24t28 -28zM323 590q0 -29 -25 -29q-28 0 -28 29q0 28 28 28q25 0 25 -28zM464 449q0 -28 -25 -28q-29 0 -29 28t27 28t27 -28zM839 74
q0 -25 -27 -25q-30 0 -30 29q0 24 29 24q28 0 28 -28zM886 28q0 -26 -28 -26q-29 0 -29 30q0 23 29 23q28 0 28 -27zM933 -18q0 -27 -29 -27q-28 0 -28 28q0 25 28 25q29 0 29 -26zM1120 -204q0 -29 -28 -29q-27 0 -28 41q15 13 26 13q30 0 30 -25zM276 635q0 -27 -23 -27
q-32 0 -30 32v9q18 16 28 16q25 0 25 -30zM557 355q0 -28 -23 -28q-3 0 -26 7q-4 12 -4 36q15 13 25 13q28 0 28 -28zM604 308q0 -28 -23 -28q-16 0 -30 13v30q15 13 25 13q28 0 28 -28zM651 261q0 -28 -25 -28q-14 0 -28 13v30q15 13 25 13q28 0 28 -28zM979 -65
q0 -27 -28 -27t-28 28q0 25 28 25t28 -26zM1026 -111q0 -28 -28 -28t-28 28q0 25 28 25t28 -25zM1073 -158q0 -28 -28 -28t-28 28q0 25 28 25t28 -25zM698 109q-12 -13 -26 -13q-4 0 -11.5 1.5t-11.5 1.5q-4 12 -4 37q15 13 31 13q11 0 22 -13v-27zM651 156q-10 -13 -22 -13
h-11q-20 0 -20 10v30q15 13 31 13q11 0 22 -13v-27zM1073 -250q0 -29 -28 -29t-28 29q0 27 28 27t28 -27zM1120 -297q0 -29 -28 -29t-28 29q0 27 28 27t28 -27zM604 203q-13 -14 -26 -14q-4 0 -11.5 2t-11.5 2q-4 12 -4 37q15 13 31 13q10 0 22 -14v-26zM185 636
q0 -28 -26 -28q-30 0 -30 28q0 29 30 29q26 0 26 -29zM232 590q0 -29 -26 -29q-30 0 -30 29q0 28 30 28q26 0 26 -28zM745 62q-12 -13 -27 -13q-29 0 -29 29q0 24 34 24q11 0 22 -13v-27zM792 15q-12 -13 -27 -13q-29 0 -29 30q0 23 34 23q11 0 22 -13v-27zM276 544
q0 -29 -25 -29q-28 0 -28 28t30 28q23 0 23 -27zM323 497q0 -29 -25 -29q-28 0 -28 28t30 28q23 0 23 -27zM370 450q0 -29 -24 -29q-3 0 -26 7q0 3 -1.5 10t-1.5 11q0 28 28 28q25 0 25 -27zM417 404q0 -30 -24 -30q-3 0 -26 7q0 3 -1.5 10t-1.5 11q0 28 28 28q25 0 25 -26z
M464 357q0 -30 -24 -30q-3 0 -26 7q-3 9 -3 26v10q15 13 26 13q27 0 27 -26zM511 310q0 -30 -24 -30q-3 0 -26 7q-3 9 -3 26v10q15 13 26 13q27 0 27 -26zM839 -17q0 -28 -28 -28q-29 0 -29 30q0 23 30 23q27 0 27 -25zM886 -64q0 -28 -28 -28q-29 0 -29 30q0 23 30 23
q27 0 27 -25zM933 -111q0 -28 -29 -28q-28 0 -28 30q0 23 30 23q27 0 27 -25zM1026 -203q0 -30 -28 -30t-28 29q0 25 30 25q26 0 26 -24zM557 263q0 -30 -23 -30q-3 0 -26 7q-4 12 -4 36q15 13 27 13q26 0 26 -26zM979 -156q0 -30 -28 -30t-28 28q0 25 30 25q26 0 26 -23z
M557 156q-12 -13 -26 -13q-4 0 -11.5 1.5t-11.5 1.5q-4 12 -4 37q15 13 31 13q11 0 22 -13v-27zM604 109q-12 -13 -26 -13q-4 0 -11.5 1.5t-11.5 1.5q-4 12 -4 37q15 13 31 13q11 0 22 -13v-27zM651 62q-12 -13 -26 -13q-4 0 -11.5 1.5t-11.5 1.5q-4 12 -4 37q15 13 31 13
q11 0 22 -13v-27zM698 15q-12 -13 -26 -13q-4 0 -11.5 1.5t-11.5 1.5q-4 12 -4 37q15 13 31 13q11 0 22 -13v-27zM510 203q-13 -14 -26 -14q-4 0 -11.5 2t-11.5 2q-3 9 -3 24v13q15 13 29 13q11 0 23 -14v-26zM139 590q0 -29 -27 -29q-30 0 -30 29q0 28 30 28q27 0 27 -28z
M185 543q0 -28 -26 -28q-30 0 -30 28t30 28q26 0 26 -28zM232 496q0 -28 -26 -28q-30 0 -30 28t30 28q26 0 26 -28zM979 -250q0 -29 -28 -29t-28 29q0 7 10.5 17t17.5 10q28 0 28 -27zM1026 -297q0 -29 -28 -29t-28 29q0 27 28 27t28 -27zM1073 -344q0 -29 -28 -29t-28 29
q0 27 28 27t28 -27zM745 -32q-12 -13 -27 -13q-29 0 -29 30q0 23 34 23q11 0 22 -13v-27zM276 450q0 -29 -23 -29q-30 0 -30 28t30 28q23 0 23 -27zM323 404q0 -30 -23 -30q-4 0 -27 7q0 3 -1.5 10t-1.5 11q0 28 28 28q25 0 25 -26zM370 357q0 -30 -24 -30q-3 0 -26 7
q0 3 -1.5 10t-1.5 11q0 28 28 28q25 0 25 -26zM417 310q0 -30 -24 -30q-3 0 -26 7q0 3 -1.5 10t-1.5 11q0 28 28 28q25 0 25 -26zM464 263q0 -30 -24 -30q-3 0 -26 7q-3 9 -3 26v10q15 13 26 13q27 0 27 -26zM792 -64q0 -28 -28 -28t-28 30q0 23 29 23q27 0 27 -25z
M933 -203q0 -30 -29 -30q-28 0 -28 30q0 24 30 24q27 0 27 -24zM839 -111q0 -28 -28 -28q-29 0 -29 30q0 23 30 23q27 0 27 -25zM886 -158q0 -28 -28 -28q-29 0 -29 30q0 23 30 23q27 0 27 -25z" />
  </g>

</svg>
