<?xml version="1.0" standalone="no"?>
<!DOCTYPE svg PUBLIC "-//W3C//DTD SVG 1.1//EN" "http://www.w3.org/Graphics/SVG/1.1/DTD/svg11.dtd" >
<svg viewBox="0 -442 2048 2048">
  <g transform="matrix(1 0 0 -1 0 1606)">
   <path fill="currentColor"
d="M989 1508q0 -22 -22 -22t-22 22t22 22t22 -22zM1027 1447q-6 -6 -15 -6q-22 0 -22 22q0 19 19 22zM1050 1397q-15 5 -15 21q0 3 2 8zM944 1463q0 -22 -22 -22q-9 0 -15 6l18 38q19 -3 19 -22zM989 1418q0 -22 -22 -22t-22 22t22 22t22 -22zM1034 1373q0 -22 -22 -22
t-22 22t22 22t22 -22zM1079 1328q0 -22 -22 -22t-22 22t22 22t22 -22zM1113 1264q-5 -3 -11 -3q-22 0 -22 22q0 14 14 20zM1133 1221q-8 7 -8 17zM899 1418q0 -16 -15 -21l13 29q2 -5 2 -8zM944 1373q0 -22 -22 -22t-22 22t22 22t22 -22zM989 1328q0 -22 -22 -22t-22 22
t22 22t22 -22zM1034 1283q0 -22 -22 -22t-22 22t22 22t22 -22zM1079 1238q0 -22 -22 -22t-22 22t22 22t22 -22zM1124 1193q0 -22 -22 -22t-22 22t22 22t22 -22zM1169 1145q-3 -19 -22 -19q-22 0 -22 22t22 22q6 0 12 -4zM1198 1082q-3 -1 -6 -1q-22 0 -22 22q0 11 10 18z
M899 1328q0 -22 -22 -22t-22 22t22 22t22 -22zM944 1283q0 -22 -22 -22t-22 22t22 22t22 -22zM989 1238q0 -22 -22 -22t-22 22t22 22t22 -22zM1034 1193q0 -22 -22 -22t-22 22t22 22t22 -22zM1079 1148q0 -22 -22 -22t-22 22t22 22t22 -22zM1124 1103q0 -22 -22 -22t-22 22
t22 22t22 -22zM1169 1058q0 -22 -22 -22t-22 22t22 22t22 -22zM1214 1013q0 -22 -22 -22t-22 22t22 22t22 -22zM1257 958q-6 -12 -20 -12q-22 0 -22 22t22 22q2 0 5 -1zM1283 901h-1q-22 0 -22 22q0 9 6 15zM854 1283q0 -22 -22 -22q-6 0 -11 3l19 39q14 -6 14 -20z
M899 1238q0 -22 -22 -22t-22 22t22 22t22 -22zM944 1193q0 -22 -22 -22t-22 22t22 22t22 -22zM989 1148q0 -22 -22 -22t-22 22t22 22t22 -22zM1034 1103q0 -22 -22 -22t-22 22t22 22t22 -22zM1079 1058q0 -22 -22 -22t-22 22t22 22t22 -22zM1124 1013q0 -22 -22 -22t-22 22
t22 22t22 -22zM1169 968q0 -22 -22 -22t-22 22t22 22t22 -22zM1214 923q0 -22 -22 -22t-22 22t22 22t22 -22zM1259 878q0 -22 -22 -22t-22 22t22 22t22 -22zM1304 833q0 -22 -22 -22t-22 22t22 22t22 -22zM1343 774q-7 -8 -16 -8q-22 0 -22 22q0 21 21 22zM1368 721
q-18 4 -18 22q0 6 3 11zM809 1238q0 -10 -8 -17zM854 1193q0 -22 -22 -22t-22 22t22 22t22 -22zM899 1148q0 -22 -22 -22t-22 22t22 22t22 -22zM944 1103q0 -22 -22 -22t-22 22t22 22t22 -22zM989 1058q0 -22 -22 -22t-22 22t22 22t22 -22zM1034 1013q0 -22 -22 -22t-22 22
t22 22t22 -22zM1079 968q0 -22 -22 -22t-22 22t22 22t22 -22zM1124 923q0 -22 -22 -22t-22 22t22 22t22 -22zM1169 878q0 -22 -22 -22t-22 22t22 22t22 -22zM1214 833q0 -22 -22 -22t-22 22t22 22t22 -22zM1259 788q0 -22 -22 -22t-22 22t22 22t22 -22zM1304 743
q0 -22 -22 -22t-22 22t22 22t22 -22zM1349 698q0 -22 -22 -22t-22 22t22 22t22 -22zM1394 653q0 -22 -22 -22t-22 22t22 22t22 -22zM1430 590q-6 -4 -13 -4q-22 0 -22 22q0 16 16 21zM1451 544q-11 6 -11 19v4zM809 1148q0 -22 -22 -22q-19 0 -22 19l10 21q6 4 12 4
q22 0 22 -22zM854 1103q0 -22 -22 -22t-22 22t22 22t22 -22zM899 1058q0 -22 -22 -22t-22 22t22 22t22 -22zM944 1013q0 -22 -22 -22t-22 22t22 22t22 -22zM989 968q0 -22 -22 -22t-22 22t22 22t22 -22zM1034 923q0 -22 -22 -22t-22 22t22 22t22 -22zM1079 878
q0 -22 -22 -22t-22 22t22 22t22 -22zM1124 833q0 -22 -22 -22t-22 22t22 22t22 -22zM1169 788q0 -22 -22 -22t-22 22t22 22t22 -22zM1214 743q0 -22 -22 -22t-22 22t22 22t22 -22zM1259 698q0 -22 -22 -22t-22 22t22 22t22 -22zM1304 653q0 -22 -22 -22t-22 22t22 22t22 -22
zM1349 608q0 -22 -22 -22t-22 22t22 22t22 -22zM1394 563q0 -22 -22 -22t-22 22t22 22t22 -22zM1439 518q0 -22 -22 -22t-22 22t22 22t22 -22zM1484 473q0 -22 -22 -22t-22 22t22 22q9 0 16 -7l6 -13v-2zM1515 408q-5 -2 -8 -2q-22 0 -22 22q0 12 12 19zM764 1103
q0 -22 -22 -22q-3 0 -6 1l18 39q10 -7 10 -18zM809 1058q0 -22 -22 -22t-22 22t22 22t22 -22zM854 1013q0 -22 -22 -22t-22 22t22 22t22 -22zM899 968q0 -22 -22 -22t-22 22t22 22t22 -22zM944 923q0 -22 -22 -22t-22 22t22 22t22 -22zM989 878q0 -22 -22 -22t-22 22t22 22
t22 -22zM1034 833q0 -22 -22 -22t-22 22t22 22t22 -22zM1079 788q0 -22 -22 -22t-22 22t22 22t22 -22zM1124 743q0 -22 -22 -22t-22 22t22 22t22 -22zM1169 698q0 -22 -22 -22t-22 22t22 22t22 -22zM1214 653q0 -22 -22 -22t-22 22t22 22t22 -22zM1259 608q0 -22 -22 -22
t-22 22t22 22t22 -22zM1304 563q0 -22 -22 -22t-22 22t22 22t22 -22zM1349 518q0 -22 -22 -22t-22 22t22 22t22 -22zM1394 473q0 -22 -22 -22t-22 22t22 22t22 -22zM1439 428q0 -22 -22 -22t-22 22t22 22t22 -22zM1484 383q0 -22 -22 -22t-22 22t22 22t22 -22zM1529 338
q0 -22 -22 -22t-22 22t22 22t22 -22zM1573 286q-5 -15 -21 -15q-22 0 -22 22t22 22q3 0 8 -1zM1601 226h-4q-22 0 -22 22q0 10 8 17zM764 1013q0 -22 -22 -22t-22 22t22 22t22 -22zM809 968q0 -22 -22 -22t-22 22t22 22t22 -22zM854 923q0 -22 -22 -22t-22 22t22 22t22 -22z
M899 878q0 -22 -22 -22t-22 22t22 22t22 -22zM944 833q0 -22 -22 -22t-22 22t22 22t22 -22zM989 788q0 -22 -22 -22t-22 22t22 22t22 -22zM1034 743q0 -22 -22 -22t-22 22t22 22t22 -22zM1079 698q0 -22 -22 -22t-22 22t22 22t22 -22zM1124 653q0 -22 -22 -22t-22 22t22 22
t22 -22zM1169 608q0 -22 -22 -22t-22 22t22 22t22 -22zM1214 563q0 -22 -22 -22t-22 22t22 22t22 -22zM1259 518q0 -22 -22 -22t-22 22t22 22t22 -22zM1304 473q0 -22 -22 -22t-22 22t22 22t22 -22zM1349 428q0 -22 -22 -22t-22 22t22 22t22 -22zM1394 383q0 -22 -22 -22
t-22 22t22 22t22 -22zM1439 338q0 -22 -22 -22t-22 22t22 22t22 -22zM1484 293q0 -22 -22 -22t-22 22t22 22t22 -22zM1529 248q0 -22 -22 -22t-22 22t22 22t22 -22zM1574 203q0 -22 -22 -22t-22 22t22 22t22 -22zM1619 158q0 -22 -22 -22t-22 22t22 22t22 -22zM1660 100
q-6 -9 -18 -9q-22 0 -22 22t22 22h2zM1685 46q-20 1 -20 22q0 7 4 13zM719 968q0 -22 -22 -22q-14 0 -20 12l15 31q2 1 5 1q22 0 22 -22zM764 923q0 -22 -22 -22t-22 22t22 22t22 -22zM809 878q0 -22 -22 -22t-22 22t22 22t22 -22zM854 833q0 -22 -22 -22t-22 22t22 22
t22 -22zM899 788q0 -22 -22 -22t-22 22t22 22t22 -22zM944 743q0 -22 -22 -22t-22 22t22 22t22 -22zM989 698q0 -22 -22 -22t-22 22t22 22t22 -22zM1034 653q0 -22 -22 -22t-22 22t22 22t22 -22zM1079 608q0 -22 -22 -22t-22 22t22 22t22 -22zM1124 563q0 -22 -22 -22
t-22 22t22 22t22 -22zM1169 518q0 -22 -22 -22t-22 22t22 22t22 -22zM1214 473q0 -22 -22 -22t-22 22t22 22t22 -22zM1259 428q0 -22 -22 -22t-22 22t22 22t22 -22zM1304 383q0 -22 -22 -22t-22 22t22 22t22 -22zM1349 338q0 -22 -22 -22t-22 22t22 22t22 -22zM1394 293
q0 -22 -22 -22t-22 22t22 22t22 -22zM1439 248q0 -22 -22 -22t-22 22t22 22t22 -22zM1484 203q0 -22 -22 -22t-22 22t22 22t22 -22zM1529 158q0 -22 -22 -22t-22 22t22 22t22 -22zM1574 113q0 -22 -22 -22t-22 22t22 22t22 -22zM1619 68q0 -22 -22 -22t-22 22t22 22t22 -22z
M1664 23q0 -22 -22 -22t-22 22t22 22t22 -22zM1709 -22q0 -22 -22 -22t-22 22t22 22t22 -22zM1746 -83q-7 -6 -14 -6q-22 0 -22 22q0 19 18 22zM1769 -133q-14 5 -14 21q0 5 1 7zM674 923q0 -22 -22 -22h-1l17 37q6 -6 6 -15zM719 878q0 -22 -22 -22t-22 22t22 22t22 -22z
M764 833q0 -22 -22 -22t-22 22t22 22t22 -22zM809 788q0 -22 -22 -22t-22 22t22 22t22 -22zM854 743q0 -22 -22 -22t-22 22t22 22t22 -22zM899 698q0 -22 -22 -22t-22 22t22 22t22 -22zM944 653q0 -22 -22 -22t-22 22t22 22t22 -22zM989 608q0 -22 -22 -22t-22 22t22 22
t22 -22zM1034 563q0 -22 -22 -22t-22 22t22 22t22 -22zM1079 518q0 -22 -22 -22t-22 22t22 22t22 -22zM1124 473q0 -22 -22 -22t-22 22t22 22t22 -22zM1169 428q0 -22 -22 -22t-22 22t22 22t22 -22zM1214 383q0 -22 -22 -22t-22 22t22 22t22 -22zM1259 338q0 -22 -22 -22
t-22 22t22 22t22 -22zM1304 293q0 -22 -22 -22t-22 22t22 22t22 -22zM1349 248q0 -22 -22 -22t-22 22t22 22t22 -22zM1394 203q0 -22 -22 -22t-22 22t22 22t22 -22zM1439 158q0 -22 -22 -22t-22 22t22 22t22 -22zM1484 113q0 -22 -22 -22t-22 22t22 22t22 -22zM1529 68
q0 -22 -22 -22t-22 22t22 22t22 -22zM1574 23q0 -22 -22 -22t-22 22t22 22t22 -22zM1619 -22q0 -22 -22 -22t-22 22t22 22t22 -22zM1664 -67q0 -22 -22 -22t-22 22t22 22t22 -22zM1709 -112q0 -22 -22 -22t-22 22t22 22t22 -22zM1754 -157q0 -22 -22 -22t-22 22t22 22
t22 -22zM1799 -202q0 -22 -22 -22t-22 22t22 22t22 -22zM1832 -266q-5 -3 -10 -3q-22 0 -22 22q0 14 14 20zM1852 -308q-6 6 -7 15zM1844 -340h-44v3q0 22 22 22t22 -22v-3zM674 833q0 -22 -22 -22t-22 22t22 22t22 -22zM719 788q0 -22 -22 -22t-22 22t22 22t22 -22z
M764 743q0 -22 -22 -22t-22 22t22 22t22 -22zM809 698q0 -22 -22 -22t-22 22t22 22t22 -22zM854 653q0 -22 -22 -22t-22 22t22 22t22 -22zM899 608q0 -22 -22 -22t-22 22t22 22t22 -22zM944 563q0 -22 -22 -22t-22 22t22 22t22 -22zM989 518q0 -22 -22 -22t-22 22t22 22
t22 -22zM1034 473q0 -22 -22 -22t-22 22t22 22t22 -22zM1079 428q0 -22 -22 -22t-22 22t22 22t22 -22zM1124 383q0 -22 -22 -22t-22 22t22 22t22 -22zM1169 338q0 -22 -22 -22t-22 22t22 22t22 -22zM1214 293q0 -22 -22 -22t-22 22t22 22t22 -22zM1259 248q0 -22 -22 -22
t-22 22t22 22t22 -22zM1304 203q0 -22 -22 -22t-22 22t22 22t22 -22zM1349 158q0 -22 -22 -22t-22 22t22 22t22 -22zM1394 113q0 -22 -22 -22t-22 22t22 22t22 -22zM1439 68q0 -22 -22 -22t-22 22t22 22t22 -22zM1484 23q0 -22 -22 -22t-22 22t22 22t22 -22zM1529 -22
q0 -22 -22 -22t-22 22t22 22t22 -22zM1574 -67q0 -22 -22 -22t-22 22t22 22t22 -22zM1619 -112q0 -22 -22 -22t-22 22t22 22t22 -22zM1664 -157q0 -22 -22 -22t-22 22t22 22t22 -22zM1709 -202q0 -22 -22 -22t-22 22t22 22t22 -22zM1754 -247q0 -22 -22 -22t-22 22t22 22
t22 -22zM1799 -292q0 -22 -22 -22t-22 22t22 22t22 -22zM1754 -340h-44v3q0 22 22 22t22 -22v-3zM629 788q0 -22 -22 -22q-9 0 -16 8l17 36q21 -1 21 -22zM674 743q0 -22 -22 -22t-22 22t22 22t22 -22zM719 698q0 -22 -22 -22t-22 22t22 22t22 -22zM764 653q0 -22 -22 -22
t-22 22t22 22t22 -22zM809 608q0 -22 -22 -22t-22 22t22 22t22 -22zM854 563q0 -22 -22 -22t-22 22t22 22t22 -22zM899 518q0 -22 -22 -22t-22 22t22 22t22 -22zM944 473q0 -22 -22 -22t-22 22t22 22t22 -22zM989 428q0 -22 -22 -22t-22 22t22 22t22 -22zM1034 383
q0 -22 -22 -22t-22 22t22 22t22 -22zM1079 338q0 -22 -22 -22t-22 22t22 22t22 -22zM1124 293q0 -22 -22 -22t-22 22t22 22t22 -22zM1169 248q0 -22 -22 -22t-22 22t22 22t22 -22zM1214 203q0 -22 -22 -22t-22 22t22 22t22 -22zM1259 158q0 -22 -22 -22t-22 22t22 22t22 -22
zM1304 113q0 -22 -22 -22t-22 22t22 22t22 -22zM1349 68q0 -22 -22 -22t-22 22t22 22t22 -22zM1394 23q0 -22 -22 -22t-22 22t22 22t22 -22zM1439 -22q0 -22 -22 -22t-22 22t22 22t22 -22zM1484 -67q0 -22 -22 -22t-22 22t22 22t22 -22zM1529 -112q0 -22 -22 -22t-22 22
t22 22t22 -22zM1574 -157q0 -22 -22 -22t-22 22t22 22t22 -22zM1619 -202q0 -22 -22 -22t-22 22t22 22t22 -22zM1664 -247q0 -22 -22 -22t-22 22t22 22t22 -22zM1709 -292q0 -22 -22 -22t-22 22t22 22t22 -22zM1664 -340h-44v3q0 22 22 22t22 -22v-3zM584 743q0 -18 -18 -22
l15 32q3 -5 3 -10zM629 698q0 -22 -22 -22t-22 22t22 22t22 -22zM674 653q0 -22 -22 -22t-22 22t22 22t22 -22zM719 608q0 -22 -22 -22t-22 22t22 22t22 -22zM764 563q0 -22 -22 -22t-22 22t22 22t22 -22zM809 518q0 -22 -22 -22t-22 22t22 22t22 -22zM854 473
q0 -22 -22 -22t-22 22t22 22t22 -22zM899 428q0 -22 -22 -22t-22 22t22 22t22 -22zM944 383q0 -22 -22 -22t-22 22t22 22t22 -22zM989 338q0 -22 -22 -22t-22 22t22 22t22 -22zM1034 293q0 -22 -22 -22t-22 22t22 22t22 -22zM1079 248q0 -22 -22 -22t-22 22t22 22t22 -22z
M1124 203q0 -22 -22 -22t-22 22t22 22t22 -22zM1169 158q0 -22 -22 -22t-22 22t22 22t22 -22zM1214 113q0 -22 -22 -22t-22 22t22 22t22 -22zM1259 68q0 -22 -22 -22t-22 22t22 22t22 -22zM1304 23q0 -22 -22 -22t-22 22t22 22t22 -22zM1349 -22q0 -22 -22 -22t-22 22t22 22
t22 -22zM1394 -67q0 -22 -22 -22t-22 22t22 22t22 -22zM1439 -112q0 -22 -22 -22t-22 22t22 22t22 -22zM1484 -157q0 -22 -22 -22t-22 22t22 22t22 -22zM1529 -202q0 -22 -22 -22t-22 22t22 22t22 -22zM1574 -247q0 -22 -22 -22t-22 22t22 22t22 -22zM1619 -292
q0 -22 -22 -22t-22 22t22 22t22 -22zM1574 -340h-44v3q0 22 22 22t22 -22v-3zM584 653q0 -22 -22 -22t-22 22t22 22t22 -22zM629 608q0 -22 -22 -22t-22 22t22 22t22 -22zM674 563q0 -22 -22 -22t-22 22t22 22t22 -22zM719 518q0 -22 -22 -22t-22 22t22 22t22 -22zM764 473
q0 -22 -22 -22t-22 22t22 22t22 -22zM809 428q0 -22 -22 -22t-22 22t22 22t22 -22zM854 383q0 -22 -22 -22t-22 22t22 22t22 -22zM899 338q0 -22 -22 -22t-22 22t22 22t22 -22zM944 293q0 -22 -22 -22t-22 22t22 22t22 -22zM989 248q0 -22 -22 -22t-22 22t22 22t22 -22z
M1034 203q0 -22 -22 -22t-22 22t22 22t22 -22zM1079 158q0 -22 -22 -22t-22 22t22 22t22 -22zM1124 113q0 -22 -22 -22t-22 22t22 22t22 -22zM1169 68q0 -22 -22 -22t-22 22t22 22t22 -22zM1214 23q0 -22 -22 -22t-22 22t22 22t22 -22zM1259 -22q0 -22 -22 -22t-22 22t22 22
t22 -22zM1304 -67q0 -22 -22 -22t-22 22t22 22t22 -22zM1349 -112q0 -22 -22 -22t-22 22t22 22t22 -22zM1394 -157q0 -22 -22 -22t-22 22t22 22t22 -22zM1439 -202q0 -22 -22 -22t-22 22t22 22t22 -22zM1484 -247q0 -22 -22 -22t-22 22t22 22t22 -22zM1529 -292
q0 -22 -22 -22t-22 22t22 22t22 -22zM1484 -340h-44v3q0 22 22 22t22 -22v-3zM539 608q0 -22 -22 -22q-7 0 -13 4l19 39q16 -5 16 -21zM584 563q0 -22 -22 -22t-22 22t22 22t22 -22zM629 518q0 -22 -22 -22t-22 22t22 22t22 -22zM674 473q0 -22 -22 -22t-22 22t22 22t22 -22
zM719 428q0 -22 -22 -22t-22 22t22 22t22 -22zM764 383q0 -22 -22 -22t-22 22t22 22t22 -22zM809 338q0 -22 -22 -22t-22 22t22 22t22 -22zM854 293q0 -22 -22 -22t-22 22t22 22t22 -22zM899 248q0 -22 -22 -22t-22 22t22 22t22 -22zM944 203q0 -22 -22 -22t-22 22t22 22
t22 -22zM989 158q0 -22 -22 -22t-22 22t22 22t22 -22zM1034 113q0 -22 -22 -22t-22 22t22 22t22 -22zM1079 68q0 -22 -22 -22t-22 22t22 22t22 -22zM1124 23q0 -22 -22 -22t-22 22t22 22t22 -22zM1169 -22q0 -22 -22 -22t-22 22t22 22t22 -22zM1214 -67q0 -22 -22 -22
t-22 22t22 22t22 -22zM1259 -112q0 -22 -22 -22t-22 22t22 22t22 -22zM1304 -157q0 -22 -22 -22t-22 22t22 22t22 -22zM1349 -202q0 -22 -22 -22t-22 22t22 22t22 -22zM1394 -247q0 -22 -22 -22t-22 22t22 22t22 -22zM1439 -292q0 -22 -22 -22t-22 22t22 22t22 -22z
M1394 -340h-44v3q0 22 22 22t22 -22v-3zM494 563q0 -13 -11 -19l11 23v-4zM539 518q0 -22 -22 -22t-22 22t22 22t22 -22zM584 473q0 -22 -22 -22t-22 22t22 22t22 -22zM629 428q0 -22 -22 -22t-22 22t22 22t22 -22zM674 383q0 -22 -22 -22t-22 22t22 22t22 -22zM719 338
q0 -22 -22 -22t-22 22t22 22t22 -22zM764 293q0 -22 -22 -22t-22 22t22 22t22 -22zM809 248q0 -22 -22 -22t-22 22t22 22t22 -22zM854 203q0 -22 -22 -22t-22 22t22 22t22 -22zM899 158q0 -22 -22 -22t-22 22t22 22t22 -22zM944 113q0 -22 -22 -22t-22 22t22 22t22 -22z
M989 68q0 -22 -22 -22t-22 22t22 22t22 -22zM1034 23q0 -22 -22 -22t-22 22t22 22t22 -22zM1079 -22q0 -22 -22 -22t-22 22t22 22t22 -22zM1124 -67q0 -22 -22 -22t-22 22t22 22t22 -22zM1169 -112q0 -22 -22 -22t-22 22t22 22t22 -22zM1214 -157q0 -22 -22 -22t-22 22
t22 22t22 -22zM1259 -202q0 -22 -22 -22t-22 22t22 22t22 -22zM1304 -247q0 -22 -22 -22t-22 22t22 22t22 -22zM1349 -292q0 -22 -22 -22t-22 22t22 22t22 -22zM1304 -340h-44v3q0 22 22 22t22 -22v-3zM494 473q0 -22 -22 -22t-22 22v2l6 13q7 7 16 7q22 0 22 -22zM539 428
q0 -22 -22 -22t-22 22t22 22t22 -22zM584 383q0 -22 -22 -22t-22 22t22 22t22 -22zM629 338q0 -22 -22 -22t-22 22t22 22t22 -22zM674 293q0 -22 -22 -22t-22 22t22 22t22 -22zM719 248q0 -22 -22 -22t-22 22t22 22t22 -22zM764 203q0 -22 -22 -22t-22 22t22 22t22 -22z
M809 158q0 -22 -22 -22t-22 22t22 22t22 -22zM854 113q0 -22 -22 -22t-22 22t22 22t22 -22zM899 68q0 -22 -22 -22t-22 22t22 22t22 -22zM944 23q0 -22 -22 -22t-22 22t22 22t22 -22zM989 -22q0 -22 -22 -22t-22 22t22 22t22 -22zM1034 -67q0 -22 -22 -22t-22 22t22 22
t22 -22zM1079 -112q0 -22 -22 -22t-22 22t22 22t22 -22zM1124 -157q0 -22 -22 -22t-22 22t22 22t22 -22zM1169 -202q0 -22 -22 -22t-22 22t22 22t22 -22zM1214 -247q0 -22 -22 -22t-22 22t22 22t22 -22zM1259 -292q0 -22 -22 -22t-22 22t22 22t22 -22zM1214 -340h-44v3
q0 22 22 22t22 -22v-3zM449 428q0 -22 -22 -22q-3 0 -8 2l18 39q12 -7 12 -19zM494 383q0 -22 -22 -22t-22 22t22 22t22 -22zM539 338q0 -22 -22 -22t-22 22t22 22t22 -22zM584 293q0 -22 -22 -22t-22 22t22 22t22 -22zM629 248q0 -22 -22 -22t-22 22t22 22t22 -22zM674 203
q0 -22 -22 -22t-22 22t22 22t22 -22zM719 158q0 -22 -22 -22t-22 22t22 22t22 -22zM764 113q0 -22 -22 -22t-22 22t22 22t22 -22zM809 68q0 -22 -22 -22t-22 22t22 22t22 -22zM854 23q0 -22 -22 -22t-22 22t22 22t22 -22zM899 -22q0 -22 -22 -22t-22 22t22 22t22 -22z
M944 -67q0 -22 -22 -22t-22 22t22 22t22 -22zM989 -112q0 -22 -22 -22t-22 22t22 22t22 -22zM1034 -157q0 -22 -22 -22t-22 22t22 22t22 -22zM1079 -202q0 -22 -22 -22t-22 22t22 22t22 -22zM1124 -247q0 -22 -22 -22t-22 22t22 22t22 -22zM1169 -292q0 -22 -22 -22t-22 22
t22 22t22 -22zM1124 -340h-44v3q0 22 22 22t22 -22v-3zM449 338q0 -22 -22 -22t-22 22t22 22t22 -22zM494 293q0 -22 -22 -22t-22 22t22 22t22 -22zM539 248q0 -22 -22 -22t-22 22t22 22t22 -22zM584 203q0 -22 -22 -22t-22 22t22 22t22 -22zM629 158q0 -22 -22 -22t-22 22
t22 22t22 -22zM674 113q0 -22 -22 -22t-22 22t22 22t22 -22zM719 68q0 -22 -22 -22t-22 22t22 22t22 -22zM764 23q0 -22 -22 -22t-22 22t22 22t22 -22zM809 -22q0 -22 -22 -22t-22 22t22 22t22 -22zM854 -67q0 -22 -22 -22t-22 22t22 22t22 -22zM899 -112q0 -22 -22 -22
t-22 22t22 22t22 -22zM944 -157q0 -22 -22 -22t-22 22t22 22t22 -22zM989 -202q0 -22 -22 -22t-22 22t22 22t22 -22zM1034 -247q0 -22 -22 -22t-22 22t22 22t22 -22zM1079 -292q0 -22 -22 -22t-22 22t22 22t22 -22zM1034 -340h-44v3q0 22 22 22t22 -22v-3zM404 293
q0 -22 -22 -22q-16 0 -21 15l13 28q2 1 8 1q22 0 22 -22zM449 248q0 -22 -22 -22t-22 22t22 22t22 -22zM494 203q0 -22 -22 -22t-22 22t22 22t22 -22zM539 158q0 -22 -22 -22t-22 22t22 22t22 -22zM584 113q0 -22 -22 -22t-22 22t22 22t22 -22zM629 68q0 -22 -22 -22t-22 22
t22 22t22 -22zM674 23q0 -22 -22 -22t-22 22t22 22t22 -22zM719 -22q0 -22 -22 -22t-22 22t22 22t22 -22zM764 -67q0 -22 -22 -22t-22 22t22 22t22 -22zM809 -112q0 -22 -22 -22t-22 22t22 22t22 -22zM854 -157q0 -22 -22 -22t-22 22t22 22t22 -22zM899 -202q0 -22 -22 -22
t-22 22t22 22t22 -22zM944 -247q0 -22 -22 -22t-22 22t22 22t22 -22zM989 -292q0 -22 -22 -22t-22 22t22 22t22 -22zM944 -340h-44v3q0 22 22 22t22 -22v-3zM359 248q0 -22 -22 -22h-4l18 39q8 -7 8 -17zM404 203q0 -22 -22 -22t-22 22t22 22t22 -22zM449 158q0 -22 -22 -22
t-22 22t22 22t22 -22zM494 113q0 -22 -22 -22t-22 22t22 22t22 -22zM539 68q0 -22 -22 -22t-22 22t22 22t22 -22zM584 23q0 -22 -22 -22t-22 22t22 22t22 -22zM629 -22q0 -22 -22 -22t-22 22t22 22t22 -22zM674 -67q0 -22 -22 -22t-22 22t22 22t22 -22zM719 -112
q0 -22 -22 -22t-22 22t22 22t22 -22zM764 -157q0 -22 -22 -22t-22 22t22 22t22 -22zM809 -202q0 -22 -22 -22t-22 22t22 22t22 -22zM854 -247q0 -22 -22 -22t-22 22t22 22t22 -22zM899 -292q0 -22 -22 -22t-22 22t22 22t22 -22zM854 -340h-44v3q0 22 22 22t22 -22v-3z
M359 158q0 -22 -22 -22t-22 22t22 22t22 -22zM404 113q0 -22 -22 -22t-22 22t22 22t22 -22zM449 68q0 -22 -22 -22t-22 22t22 22t22 -22zM494 23q0 -22 -22 -22t-22 22t22 22t22 -22zM539 -22q0 -22 -22 -22t-22 22t22 22t22 -22zM584 -67q0 -22 -22 -22t-22 22t22 22
t22 -22zM629 -112q0 -22 -22 -22t-22 22t22 22t22 -22zM674 -157q0 -22 -22 -22t-22 22t22 22t22 -22zM719 -202q0 -22 -22 -22t-22 22t22 22t22 -22zM764 -247q0 -22 -22 -22t-22 22t22 22t22 -22zM809 -292q0 -22 -22 -22t-22 22t22 22t22 -22zM764 -340h-44v3q0 22 22 22
t22 -22v-3zM314 113q0 -22 -22 -22q-12 0 -18 9l16 35h2q22 0 22 -22zM359 68q0 -22 -22 -22t-22 22t22 22t22 -22zM404 23q0 -22 -22 -22t-22 22t22 22t22 -22zM449 -22q0 -22 -22 -22t-22 22t22 22t22 -22zM494 -67q0 -22 -22 -22t-22 22t22 22t22 -22zM539 -112
q0 -22 -22 -22t-22 22t22 22t22 -22zM584 -157q0 -22 -22 -22t-22 22t22 22t22 -22zM629 -202q0 -22 -22 -22t-22 22t22 22t22 -22zM674 -247q0 -22 -22 -22t-22 22t22 22t22 -22zM719 -292q0 -22 -22 -22t-22 22t22 22t22 -22zM674 -340h-44v3q0 22 22 22t22 -22v-3z
M269 68q0 -20 -20 -22l16 35q4 -6 4 -13zM314 23q0 -22 -22 -22t-22 22t22 22t22 -22zM359 -22q0 -22 -22 -22t-22 22t22 22t22 -22zM404 -67q0 -22 -22 -22t-22 22t22 22t22 -22zM449 -112q0 -22 -22 -22t-22 22t22 22t22 -22zM494 -157q0 -22 -22 -22t-22 22t22 22t22 -22
zM539 -202q0 -22 -22 -22t-22 22t22 22t22 -22zM584 -247q0 -22 -22 -22t-22 22t22 22t22 -22zM629 -292q0 -22 -22 -22t-22 22t22 22t22 -22zM584 -340h-44v3q0 22 22 22t22 -22v-3zM269 -22q0 -22 -22 -22t-22 22t22 22t22 -22zM314 -67q0 -22 -22 -22t-22 22t22 22
t22 -22zM359 -112q0 -22 -22 -22t-22 22t22 22t22 -22zM404 -157q0 -22 -22 -22t-22 22t22 22t22 -22zM449 -202q0 -22 -22 -22t-22 22t22 22t22 -22zM494 -247q0 -22 -22 -22t-22 22t22 22t22 -22zM539 -292q0 -22 -22 -22t-22 22t22 22t22 -22zM494 -340h-44v3q0 22 22 22
t22 -22v-3zM224 -67q0 -22 -22 -22q-7 0 -14 6l18 38q18 -3 18 -22zM269 -112q0 -22 -22 -22t-22 22t22 22t22 -22zM314 -157q0 -22 -22 -22t-22 22t22 22t22 -22zM359 -202q0 -22 -22 -22t-22 22t22 22t22 -22zM404 -247q0 -22 -22 -22t-22 22t22 22t22 -22zM449 -292
q0 -22 -22 -22t-22 22t22 22t22 -22zM404 -340h-44v3q0 22 22 22t22 -22v-3zM179 -112q0 -16 -14 -21l13 28q1 -3 1 -7zM224 -157q0 -22 -22 -22t-22 22t22 22t22 -22zM269 -202q0 -22 -22 -22t-22 22t22 22t22 -22zM314 -247q0 -22 -22 -22t-22 22t22 22t22 -22zM359 -292
q0 -22 -22 -22t-22 22t22 22t22 -22zM314 -340h-44v3q0 22 22 22t22 -22v-3zM179 -202q0 -22 -22 -22t-22 22t22 22t22 -22zM224 -247q0 -22 -22 -22t-22 22t22 22t22 -22zM269 -292q0 -22 -22 -22t-22 22t22 22t22 -22zM224 -340h-44v3q0 22 22 22t22 -22v-3zM134 -247
q0 -22 -22 -22q-5 0 -10 3l18 39q14 -6 14 -20zM179 -292q0 -22 -22 -22t-22 22t22 22t22 -22zM89 -293q-1 -9 -7 -15zM134 -340h-44v3q0 22 22 22t22 -22v-3z" />
  </g>

</svg>
