<?xml version="1.0" standalone="no"?>
<!DOCTYPE svg PUBLIC "-//W3C//DTD SVG 1.1//EN" "http://www.w3.org/Graphics/SVG/1.1/DTD/svg11.dtd" >
<svg viewBox="0 -442 2048 2048">
  <g transform="matrix(1 0 0 -1 0 1606)">
   <path fill="currentColor"
d="M1770 605q0 -17 -17 -34l-196 -196q-17 -17 -34 -17q-14 0 -33 17l-164 147h-312v-312l147 -162q16 -18 16 -35t-16 -33l-196 -196q-16 -16 -34 -16t-34 16l-196 196q-16 16 -16 33t16 35l147 162v312h-312l-162 -147q-19 -17 -35 -17q-15 0 -32 17l-198 196
q-17 17 -17 34q0 16 17 33l198 198q15 15 32 15q19 0 35 -15l162 -149h312v314l-147 162q-16 18 -16 34q0 18 16 34l196 196q16 16 34 16t34 -16l196 -196q16 -16 16 -34q0 -16 -16 -34l-147 -162v-314h312l164 149q17 15 33 15q19 0 34 -15l196 -198q17 -17 17 -33z" />
  </g>

</svg>
