<?xml version="1.0" standalone="no"?>
<!DOCTYPE svg PUBLIC "-//W3C//DTD SVG 1.1//EN" "http://www.w3.org/Graphics/SVG/1.1/DTD/svg11.dtd" >
<svg viewBox="0 -442 2048 2048">
  <g transform="matrix(1 0 0 -1 0 1606)">
   <path fill="currentColor"
d="M1484 1404l-81 -90q-163 52 -298 110q-75 34 -149 68q-104 44 -150 44q-98 0 -158 -62q-39 -40 -90 -149h-125q67 144 137 204q89 77 230 77q66 0 212 -54q180 -67 472 -148zM1206 1130q0 -68 -57 -113q-53 -42 -123 -42h-107v-121q0 -42 87 -42v-57q-131 4 -136 4
q11 0 -136 -4v57q41 -1 29 -1q58 0 58 44v319q0 34 -29 41q-10 3 -58 2v56h280q75 0 129 -33q63 -39 63 -110zM1821 0q-71 6 -113 6h-361q-36 0 -107 -6v61q9 0 29 -1h28q119 0 137 36q8 16 8 45v611q-213 -97 -300 -209q-110 -142 -110 -400q0 -56 51 -73q26 -9 97 -9v-61
q-75 6 -139 6h-193q-64 0 -139 -6v61q148 0 148 82q0 232 -109 384q-98 136 -304 230v-616q0 -29 8 -45q18 -36 197 -35v-61q-71 6 -115 6h-358q-37 0 -108 -6v61q9 0 28 -1h28q121 0 139 36q7 14 7 45v994q0 31 -7 45q-17 34 -149 34h-46v62q70 -6 112 -6h354q45 0 115 6
v-62q-9 0 -27.5 1t-27.5 1q-123 0 -142 -36q-8 -16 -8 -45v-271q230 -99 341 -216q125 -132 159 -346h2q32 208 161 343q113 119 335 212v278q0 29 -8 45q-17 34 -148 34h-46v62q70 -6 112 -6h356q43 0 113 6v-62q-9 0 -27.5 1t-28.5 1q-122 0 -140 -36q-8 -16 -8 -45v-994
q0 -29 8 -45q18 -36 196 -35v-61zM1107 1120q0 64 -45 85q-29 13 -101 13q-22 0 -30 -5q-12 -7 -12 -35v-155h69q119 0 119 97z" />
  </g>

</svg>
