<?xml version="1.0" standalone="no"?>
<!DOCTYPE svg PUBLIC "-//W3C//DTD SVG 1.1//EN" "http://www.w3.org/Graphics/SVG/1.1/DTD/svg11.dtd" >
<svg viewBox="0 -442 2048 2048">
  <g transform="matrix(1 0 0 -1 0 1606)">
   <path fill="currentColor"
d="M1935 1548q0 -32 -38 -91q-21 -29 -56 -90q-20 -55 -63 -164q-35 -86 -95 -143q-22 21 -43 45q51 49 85 139q49 130 61 152q-126 -48 -152 -63q-76 -46 -95 -128q-27 18 -58 25q28 104 97 149q31 20 138 52q90 28 137 74l29 39q22 30 32 30q21 0 21 -26zM1714 985
q-90 -30 -113 -43q-65 -36 -65 -90q0 -19 20 -119q23 -116 23 -247q0 -169 -103 -299q-111 -141 -275 -141q-254 0 -283 -87q-16 -104 -31 -207q-27 -162 -76 -162q-21 0 -41 20q-16 19 -32 37q-10 -3 -33 -22q-18 -15 -39 -15q-28 0 -50 44.5t-30 44.5q-10 0 -35.5 -11.5
t-41.5 -11.5q-47 0 -58.5 45.5t-21.5 45.5t-29.5 -2.5t-29.5 -2.5q-46 0 -46 30q0 16 14 44.5t14 44.5q0 8 -46.5 25.5t-46.5 48.5q0 34 35.5 52t99.5 31q91 19 103 22q113 32 171 93q37 39 105 165q34 64 43 82q26 53 31 85q-129 67 -224 76q-33 0 -96 11q-36 13 -36 41
q0 7 2 19.5t2 19.5q0 20 -67.5 42t-67.5 64q0 11 8.5 30t8.5 30q0 15 -79 39t-79 63q0 16 9 45t9 45q0 20 -29 43q-23 17 -46 33q-49 44 -49 215q0 8 1 15q91 -53 194 -68l282 -16q202 -12 304 -59q143 -65 143 -210q0 -15 -2 -44t-2 -44q0 -122 78 -122q73 0 108 133
q16 70 32 139q21 81 57 119q46 51 130 51q71 0 122 -61q90 -107 154 -149zM1597 1002q-25 22 -77 91q-30 40 -75 40q-91 0 -131 -115q-30 -106 -59 -213q-44 -115 -144 -115q-146 0 -146 180q0 16 2.5 46.5t2.5 46.5q0 62 -19 87q-70 92 -303 115q-173 9 -347 18
q-55 6 -116 30v-34q0 -27 57.5 -73.5t57.5 -91.5q0 -16 -10.5 -45t-10.5 -44q1 -1 7 -1q3 0 7 -1q146 -36 146 -105q0 -13 -8.5 -32.5t-8.5 -27.5h10q5 0 9 -1q61 -15 86 -36q32 -28 28 -85q173 -15 372 -107q-7 -77 -80 -215q-67 -128 -127 -195q-67 -74 -169 -104
q-96 -24 -193 -47q-10 -3 -29 -13q86 -18 86 -70q0 -19 -19 -62q15 5 33 5q42 0 59 -26q8 -11 22 -61l-1 -3q10 0 34.5 11.5t42.5 11.5q55 0 88 -84q38 32 64 32q37 0 66 -41q25 53 33 151q10 112 23 154q43 136 337 136q116 0 215 108q105 114 105 277q0 23 -12 112
l-28 207q-4 30 -4 42q0 97 124 147zM1506 1033q0 -38 -38 -38q-39 0 -39 38t39 38q38 0 38 -38z" />
  </g>

</svg>
