<?xml version="1.0" standalone="no"?>
<!DOCTYPE svg PUBLIC "-//W3C//DTD SVG 1.1//EN" "http://www.w3.org/Graphics/SVG/1.1/DTD/svg11.dtd" >
<svg viewBox="0 -442 2048 2048">
  <g transform="matrix(1 0 0 -1 0 1606)">
   <path fill="currentColor"
d="M1365 605q0 -65 -44.5 -110t-109.5 -45t-110.5 45t-45.5 110t45.5 109.5t110.5 44.5t109.5 -44.5t44.5 -109.5zM872 994q0 -65 -45.5 -109.5t-110.5 -44.5t-109.5 44.5t-44.5 109.5t44.5 110.5t109.5 45.5t110.5 -45.5t45.5 -110.5zM1562 65q0 -47 -24 -47q-10 0 -26 40
t-47 40q-16 0 -103 -53q-247 -151 -485 -235q-147 -52 -289 -52q-204 0 -350 140.5t-146 343.5q0 213 134 363q-134 150 -134 361q0 206 145 346t351 140q140 0 289 -53q238 -85 485 -235q89 -54 103 -54q31 0 47 40t26 40q24 0 24 -46q0 -157 -6 -178q-2 -8 -21 -8
q-5 0 -44 28q-221 160 -397 238q-213 94 -378 94q-385 0 -385 -416q0 -50 10.5 -148.5t10.5 -148.5t-10.5 -149t-10.5 -149q0 -416 385 -416q165 0 378 94q162 71 397 239q38 27 44 27q18 0 21 -9q6 -21 6 -177zM872 214q0 -65 -45.5 -110t-110.5 -45t-109.5 45t-44.5 110
t44.5 110.5t109.5 45.5t110.5 -45.5t45.5 -110.5z" />
  </g>

</svg>
