<?xml version="1.0" standalone="no"?>
<!DOCTYPE svg PUBLIC "-//W3C//DTD SVG 1.1//EN" "http://www.w3.org/Graphics/SVG/1.1/DTD/svg11.dtd" >
<svg viewBox="0 -442 2048 2048">
  <g transform="matrix(1 0 0 -1 0 1606)">
   <path fill="currentColor"
d="M1786 605q0 -350 -248.5 -598.5t-598.5 -248.5t-598.5 248.5t-248.5 598.5t248.5 598.5t598.5 248.5t598.5 -248.5t248.5 -598.5zM1708 605q0 318 -225.5 543.5t-543.5 225.5t-543.5 -225.5t-225.5 -543.5t225.5 -543.5t543.5 -225.5t543.5 225.5t225.5 543.5zM1570 605
q0 -60 -44 -103.5t-104 -43.5q-82 0 -129 76h-281v-285q75 -46 75 -127q0 -60 -44 -103.5t-104 -43.5t-103.5 43.5t-43.5 103.5q0 80 76 127v285h-285q-47 -76 -127 -76q-60 0 -103.5 43.5t-43.5 103.5t43.5 104t103.5 44q81 0 127 -75h285v281q-76 47 -76 129
q0 60 43.5 104t103.5 44t104 -44t44 -104q0 -83 -75 -129v-281h281q46 75 129 75q60 0 104 -44t44 -104z" />
  </g>

</svg>
