<?xml version="1.0" standalone="no"?>
<!DOCTYPE svg PUBLIC "-//W3C//DTD SVG 1.1//EN" "http://www.w3.org/Graphics/SVG/1.1/DTD/svg11.dtd" >
<svg viewBox="0 -442 2048 2048">
  <g transform="matrix(1 0 0 -1 0 1606)">
   <path fill="currentColor"
d="M1092 996q0 -65 -44.5 -110.5t-109.5 -45.5t-110.5 45.5t-45.5 110.5t45.5 110t110.5 45t109.5 -45t44.5 -110zM1562 244q0 -206 -145 -346t-351 -140q-140 0 -289 53q-238 85 -485 235q-89 54 -103 54q-31 0 -47 -40t-26 -40q-24 0 -24 46q0 157 6 178q2 8 21 8
q5 0 44 -28q221 -160 397 -238q213 -94 378 -94q385 0 385 416q0 50 -10.5 148.5t-10.5 148.5t10.5 149t10.5 149q0 416 -385 416q-165 0 -378 -94q-162 -71 -397 -239q-38 -27 -44 -27q-18 0 -21 9q-6 21 -6 177q0 47 24 47q10 0 26 -40t47 -40q16 0 103 53
q247 151 485 235q147 52 289 52q204 0 350 -140.5t146 -343.5q0 -213 -134 -363q134 -150 134 -361zM1092 216q0 -65 -44.5 -110.5t-109.5 -45.5t-110.5 45.5t-45.5 110.5t45.5 109.5t110.5 44.5t109.5 -44.5t44.5 -109.5zM599 605q0 -65 -45.5 -109.5t-110.5 -44.5
t-109.5 44.5t-44.5 109.5t44.5 110t109.5 45t110.5 -45t45.5 -110z" />
  </g>

</svg>
