<?xml version="1.0" standalone="no"?>
<!DOCTYPE svg PUBLIC "-//W3C//DTD SVG 1.1//EN" "http://www.w3.org/Graphics/SVG/1.1/DTD/svg11.dtd" >
<svg viewBox="0 -442 2048 2048">
  <g transform="matrix(1 0 0 -1 0 1606)">
   <path fill="currentColor"
d="M1068 1411l-105 -102l-104 109l104 99zM1291 1240q-134 -142 -271 -142q-208 0 -351 220l50 37q93 -121 223 -121q122 0 211 121zM1662 645q0 -181 -61 -307q-80 -165 -242 -165q-110 0 -151 85q-28 59 -28 185v74q0 137 -73 137q-62 0 -154 -64q129 -173 129 -333
q0 -136 -90 -217q-86 -78 -224 -78q-257 0 -427 243q-144 207 -168 483l56 16q36 -231 148 -397q140 -208 346 -208q96 0 159.5 68t63.5 165q0 179 -144 325q-75 -104 -178 -151l-70 166q232 68 232 222q0 118 -141 118q-105 0 -221 -63l-68 165q96 46 199 46
q139 0 222 -89.5t83 -229.5q0 -61 -24 -108l31 -29q133 127 254 127q10 0 31 -2q47 244 248 244q262 0 262 -428zM1588 632q0 112 -46 194q-56 99 -160 99q-125 0 -180 -114q54 -27 53 -130l-1 -180q0 -180 113 -180q108 0 170 106q51 89 51 205z" />
  </g>

</svg>
