<?xml version="1.0" standalone="no"?>
<!DOCTYPE svg PUBLIC "-//W3C//DTD SVG 1.1//EN" "http://www.w3.org/Graphics/SVG/1.1/DTD/svg11.dtd" >
<svg viewBox="0 -442 2048 2048">
  <g transform="matrix(1 0 0 -1 0 1606)">
   <path fill="currentColor"
d="M740 143q0 -180 -268 -180q-133 0 -221 48q-41 22 -50 53q-4 14 -4 77v519q0 83 3 95q9 43 55 68q63 34 189 46v63q-79 5 -129 47q-56 47 -56 123q0 74 65 170l25 37q67 99 67 165q0 13 -4 37q254 -144 254 -365q0 -166 -173 -214v-63q144 -14 186 -41q61 -41 61 -167
v-518zM616 1133q0 149 -158 295q-10 -50 -74 -157l-22 -37q-54 -91 -54 -136q0 -55 48 -91q44 -33 101 -33q66 0 112.5 46.5t46.5 112.5zM676 758q0 43 -183 58v-51h-49v51q-185 -14 -185 -59q0 -27 90 -43q64 -11 111 -11q216 0 216 55zM690 143v561q-78 -50 -222 -50
q-142 0 -222 50v-561q0 -131 222 -131t222 131z" />
  </g>

</svg>
