<?xml version="1.0" standalone="no"?>
<!DOCTYPE svg PUBLIC "-//W3C//DTD SVG 1.1//EN" "http://www.w3.org/Graphics/SVG/1.1/DTD/svg11.dtd" >
<svg viewBox="0 -442 2048 2048">
  <g transform="matrix(1 0 0 -1 0 1606)">
   <path fill="currentColor"
d="M1682 582q0 -330 -235 -565t-565 -235t-565 235t-235 565t235 565t565 235t565 -235t235 -565zM1570 582q0 284 -202 486t-486 202t-486 -202t-202 -486t202 -486t486 -202t486 202t202 486zM1230 1108l-39 -59q-33 22 -59 35l31 62q40 -20 67 -38zM1446 863l-62 -31
q-13 27 -35 59l59 39q18 -27 38 -67zM921 1212l-5 -70q-34 2 -68 0l-5 70q22 1 19 1h40q-3 0 19 -1zM1513 562q0 3 -1 -19l-70 5q2 34 0 68l70 5q1 -22 1 -19v-40zM632 1084q-27 -13 -59 -35l-39 59q27 18 67 38zM1446 301q-20 -40 -38 -67l-59 39q22 32 35 59zM967 116
l-85 -170l-85 170h46v461q-34 126 -73 271l-44 -12l38 186l126 -142l-44 -12l47 -175h28v-106q9 -35 27 -102l-27 -7v-362h46zM415 891q-22 -32 -35 -59l-62 31q20 40 38 67zM1230 56q-27 -18 -67 -38l-31 62q27 13 59 35zM322 548l-70 -5q-1 20 -1 18v41q0 -3 1 19l70 -5
q-2 -34 0 -68zM415 273l-59 -39q-18 27 -38 67l62 31q13 -27 35 -59zM632 80l-31 -62q-40 20 -67 38l39 59q32 -22 59 -35z" />
  </g>

</svg>
