<?xml version="1.0" standalone="no"?>
<!DOCTYPE svg PUBLIC "-//W3C//DTD SVG 1.1//EN" "http://www.w3.org/Graphics/SVG/1.1/DTD/svg11.dtd" >
<svg viewBox="0 -442 2048 2048">
  <g transform="matrix(1 0 0 -1 0 1606)">
   <path fill="currentColor"
d="M1682 245q0 -159 -324 -234q-210 -48 -443 -48t-443 48q-324 75 -324 234q0 51 46 112l38 50q95 125 124 181q51 98 51 209v72q0 88 30 197q32 116 79 183q111 160 319 182q0 86 80 86t80 -86q208 -22 319 -182q46 -67 78 -183q30 -109 30 -197v-72q0 -111 52 -209
q29 -56 124 -181l38 -50q46 -61 46 -112zM1551 385q-109 147 -144 224q-32 69 -35 166l-3 92q-7 206 -86 342q-108 185 -367 185q-260 0 -368 -185q-78 -135 -85 -342l-3 -92q-3 -97 -35 -165q-35 -76 -145 -225q267 108 636 108q368 0 635 -108zM1632 237q0 107 -316 166
q-218 41 -399 41q-43 0 -107 -3q8 -26 8 -47q0 -76 -50.5 -130t-126.5 -54q-79 0 -130 52.5t-51 132.5q-263 -77 -263 -160q0 -120 314 -182q209 -41 403 -41q197 0 405 41q313 62 313 184z" />
  </g>

</svg>
