<?xml version="1.0" standalone="no"?>
<!DOCTYPE svg PUBLIC "-//W3C//DTD SVG 1.1//EN" "http://www.w3.org/Graphics/SVG/1.1/DTD/svg11.dtd" >
<svg viewBox="0 -442 2320 2048">
  <g transform="matrix(1 0 0 -1 0 1606)">
   <path fill="currentColor"
d="M2320 -25l-878 66q-98 -53 -183 -53q-86 0 -202 53l-884 -66v1390l187 11l72 141q236 62 421 62q143 0 227 -32q109 -41 166 -149q89 181 403 181q169 0 407 -62l68 -130l196 -11v-1401zM2147 210v1027l-99 187v-1028zM1999 401v1081q-220 48 -372 48q-184 0 -280 -76
q-76 -60 -76 -205v-933q74 78 165 106q71 22 197 22q186 0 366 -43zM2117 160l-96 186q-227 49 -397 49q-353 0 -353 -235q74 12 113 59zM2270 28v1304l-123 7l49 -81v-1148l-801 50q-58 -49 -148 -49q-89 0 -146 49l-805 -50v1148l37 71l-111 -6v-1295l851 63
q100 -54 185 -54q79 0 169 54zM1222 320v931q0 279 -349 279q-179 0 -379 -50v-1077q226 41 358 41q257 0 370 -124zM444 396v1032l-98 -180v-1043zM1222 160q-16 140 -122 194q-80 41 -238 41q-166 0 -382 -46l-96 -189l731 58q32 -41 107 -58z" />
  </g>

</svg>
