<?xml version="1.0" standalone="no"?>
<!DOCTYPE svg PUBLIC "-//W3C//DTD SVG 1.1//EN" "http://www.w3.org/Graphics/SVG/1.1/DTD/svg11.dtd" >
<svg viewBox="0 -442 2048 2048">
  <g transform="matrix(1 0 0 -1 0 1606)">
   <path fill="currentColor"
d="M1765 436q0 -109 -21 -195q-32 -132 -105 -132q-19 0 -83 43q-77 52 -298 88q-186 30 -319 30q-37 0 -37 -61q0 -21 16 -60t16 -59.5t25.5 -49.5t25.5 -43q0 -4 -2.5 -12t-2.5 -12q0 -12 23.5 -40t23.5 -45q0 -8 -7.5 -22.5t-7.5 -22.5q0 -11 12.5 -27.5t12.5 -21.5
q0 -18 -48 -18q-106 0 -149 62q-26 38 -51 159q-46 226 -159 226q-4 0 -12.5 -1.5t-12.5 -1.5q-128 0 -128 234q0 138 131 193q57 21 203 79q134 55 311 184q161 117 223 197q27 138 109 138q98 0 189 -216q122 -289 122 -593zM535 231q-110 7 -153 28q-71 34 -71 127
q0 91 58 135q21 12 134 71q-48 -53 -48 -162q0 -132 80 -199zM1510 503q0 102 -33 192q-40 109 -114 153q39 -356 118 -534q29 88 29 189zM1509 212q-89 134 -141 339q-48 188 -48 365l14 114q-72 -92 -185 -163q-70 -42 -211 -127q-124 -76 -124 -179q0 -222 150 -247
q5 -1 111 -5q248 -10 434 -97zM460 273q-39 109 -39 171q0 43 11 73l-22 -6q-13 -46 -13 -98q0 -43 35 -140h28zM405 279q-36 86 -36 123t8 92l-28 -19q-7 -40 -7 -75q0 -46 39 -112z" />
  </g>

</svg>
