<?xml version="1.0" standalone="no"?>
<!DOCTYPE svg PUBLIC "-//W3C//DTD SVG 1.1//EN" "http://www.w3.org/Graphics/SVG/1.1/DTD/svg11.dtd" >
<svg viewBox="0 -442 2048 2048">
  <g transform="matrix(1 0 0 -1 0 1606)">
   <path fill="currentColor"
d="M2033 687q0 -297 -180 -549q88 188 88 423q0 220 -71 407q-86 228 -251 313q201 -64 309 -224q105 -155 105 -370zM1850 654q0 -238 -144 -439q70 150 70 338q0 174 -57 325q-69 183 -201 251q159 -51 247 -180q85 -125 85 -295zM1685 620q0 -191 -116 -352
q57 121 57 271q0 139 -46 260q-56 146 -160 201q127 -41 196 -142.5t69 -237.5zM1505 427q0 -109 -21 -195q-32 -132 -105 -132q-19 0 -83 43q-77 52 -298 88q-186 30 -319 30q-38 0 -38 -61q0 -21 16 -60t16 -59.5t26 -49.5t26 -43q0 -4 -2.5 -12t-2.5 -12q0 -12 23.5 -40
t23.5 -45q0 -8 -7.5 -22.5t-7.5 -22.5q0 -11 12 -27.5t12 -21.5q0 -18 -48 -18q-105 0 -148 62q-26 37 -51 159q-46 226 -160 226q-4 0 -12 -1.5t-12 -1.5q-128 0 -128 234q0 138 131 193q57 21 203 79q136 56 311 184q159 116 223 197q26 138 109 138q98 0 189 -216
q122 -291 122 -593zM275 222q-110 7 -153 28q-71 34 -71 127q0 91 57 135q21 12 134 71q-47 -53 -47 -162q0 -132 80 -199zM1249 494q0 101 -33 192q-40 109 -113 153q38 -356 117 -534q29 88 29 189zM1248 203q-89 135 -140 339q-48 188 -48 365l13 114q-72 -93 -184 -163
q-71 -42 -211 -127q-124 -76 -124 -179q0 -222 150 -247q5 -1 110 -5q249 -10 434 -97zM200 264q-39 109 -39 171q0 43 11 73l-23 -6q-12 -46 -12 -98q0 -43 35 -140h28zM145 270q-36 86 -36 123t8 92l-28 -19q-7 -40 -7 -75q0 -46 38 -112z" />
  </g>

</svg>
