<?xml version="1.0" standalone="no"?>
<!DOCTYPE svg PUBLIC "-//W3C//DTD SVG 1.1//EN" "http://www.w3.org/Graphics/SVG/1.1/DTD/svg11.dtd" >
<svg viewBox="0 -442 2048 2048">
  <g transform="matrix(1 0 0 -1 0 1606)">
   <path fill="currentColor"
d="M1915 0h-1782v246q103 9 186 54q197 107 254 374q33 154 164 253q127 96 287 96q161 0 288.5 -97t161.5 -252q58 -267 255 -374q83 -45 186 -54v-246zM1346 605q0 132 -94.5 222.5t-227.5 90.5t-227 -90.5t-94 -222.5t94 -223t227 -91t227.5 91t94.5 223zM1332 593h-130
v26h130v-26zM1036 774h-26v130h26v-130zM1246 798l-45 -59l-7 7l-135 -124l-12 12l139 119l-9 8zM1008 637l-19 -16l-56 79l-12 -8l-29 71l69 -43l-14 -11zM1055 605q0 -31 -31 -31t-31 31q0 30 31 30t31 -30zM1036 303h-26v130h26v-130zM847 593h-130v26h130v-26z" />
  </g>

</svg>
