<?xml version="1.0" standalone="no"?>
<!DOCTYPE svg PUBLIC "-//W3C//DTD SVG 1.1//EN" "http://www.w3.org/Graphics/SVG/1.1/DTD/svg11.dtd" >
<svg viewBox="0 -442 2048 2048">
  <g transform="matrix(1 0 0 -1 0 1606)">
   <path fill="currentColor"
d="M1027 1217q0 -113 -64 -225q-6 -11 -10 -36l-13 -84l-140 -67l-20 -51q-38 -13 -103 -13q-62 0 -103 13l-20 51l-140 67l-13 84q-4 27 -43 94q-31 53 -31 167q0 143 106 225q97 75 244 75t244 -75q106 -82 106 -225zM866 782l-25 -99l-61 -53q-32 -62 -105 -62
q-72 0 -105 62l-61 53l-25 99l36 9q3 -9 9 -23q23 -54 52 -70.5t90 -16.5q68 0 94 13q33 17 56 74q3 6 9 23zM1180 81q0 -46 -98 -62q-46 -56 -76 -56q-37 0 -70 94q-3 8 -11 29q-140 115 -252 174q-137 -77 -254 -184q-16 -113 -68 -113q-33 0 -76 64q-102 0 -102 56
q0 52 78 75q20 6 120 21q91 67 216 134q-168 84 -274 103q-50 -44 -85 -44q-53 0 -53 43q0 19 44 77q-10 41 -10 62q0 59 47 59q46 0 149 -121q115 -41 276 -123q60 33 228 105q10 4 42 18q116 118 151 118q41 0 41 -53q0 -23 -7 -65q43 -54 43 -80q0 -45 -48 -45
q-21 0 -99 49q-92 -17 -264 -103l32 -19q62 -36 148 -91q9 -6 50 -30q182 -21 182 -92zM912 1061q0 85 -82 85q-86 0 -86 -92q0 -96 84 -96t84 103zM739 879q0 9 -26 46q-34 46 -35 48q-17 -24 -35 -49q-26 -36 -26 -46q0 -32 37 -32q11 0 24 8q13 -8 24 -8q37 0 37 33z
M615 1061q0 85 -81 85q-86 0 -86 -92q0 -96 83 -96q84 0 84 103z" />
  </g>

</svg>
