<?xml version="1.0" standalone="no"?>
<!DOCTYPE svg PUBLIC "-//W3C//DTD SVG 1.1//EN" "http://www.w3.org/Graphics/SVG/1.1/DTD/svg11.dtd" >
<svg viewBox="0 -442 2048 2048">
  <g transform="matrix(1 0 0 -1 0 1606)">
   <path fill="currentColor"
d="M1630 835l-29 -13q1 -141 -25 -194q-65 -133 -208 -133q-183 0 -247 114q-38 68 -44 223l18 31q-31 26 -81 26t-81 -26l18 -31q-6 -155 -44 -223q-64 -114 -247 -114q-143 0 -208 133q-26 53 -25 194l-29 13v88q172 57 278 57t238 -50q54 25 100 25t100 -25
q132 50 238 50t278 -57v-88zM1282 907q-49 3 -100 -19q-39 -22 -39 -129q0 -59 25 -113q33 183 114 261zM625 907q-49 3 -100 -19q-39 -22 -39 -129q0 -59 25 -113q33 183 114 261z" />
  </g>

</svg>
