<?xml version="1.0" standalone="no"?>
<!DOCTYPE svg PUBLIC "-//W3C//DTD SVG 1.1//EN" "http://www.w3.org/Graphics/SVG/1.1/DTD/svg11.dtd" >
<svg viewBox="0 -442 2048 2048">
  <g transform="matrix(1 0 0 -1 0 1606)">
   <path fill="currentColor"
d="M674 1391h-217v23q19 2 44 25q4 14 4 31q0 10 -2 22h125q2 -7 2 -17t-2 -22q-4 -25 46 -41v-21zM651 1359q-5 -40 -32 -40q-16 0 -32 14.5t-20 14.5q-6 0 -18.5 -15t-24.5 -14q-24 2 -42 40q31 19 90 19q63 0 79 -19zM844 1180l-62 -465l-49 16l-65 -502h-195l-79 502
l-51 -16l-43 465l205 58l-29 -44l64 -180l23 195l-19 29h60l-19 -29l16 -195l70 180l-30 47zM667 182q2 -27 2 -50q0 -106 -50 -106q-38 0 -44 84q-7 -84 -50 -84q-44 0 -44 103q0 24 2 54l14 -1q-8 -44 28 -46q27 -1 33 23q2 9 -1 24l16 -1q1 -5 2 -14q0 9 1 15l13 -1
q-6 -44 30 -46q26 -1 32 23q3 11 0 24zM820 -221q0 -72 -249 -72t-249 72q0 44 108 66q73 15 141 15t141 -15q108 -22 108 -66z" />
  </g>

</svg>
