<?xml version="1.0" standalone="no"?>
<!DOCTYPE svg PUBLIC "-//W3C//DTD SVG 1.1//EN" "http://www.w3.org/Graphics/SVG/1.1/DTD/svg11.dtd" >
<svg viewBox="0 -442 2048 2048">
  <g transform="matrix(1 0 0 -1 0 1606)">
   <path fill="currentColor"
d="M1694 169q-201 -245 -585 -245q-414 0 -530 73q-63 -7 -98 -7q-27 0 -75 21q-54 25 -54 47q0 26 3 91q122 156 247 242q139 96 250 116q0 25 24.5 43t50.5 18q0 31 -23 222q-22 183 -20 253q-25 19 -25 38v43q-14 42 -14 41q0 9 6 28.5t5 33.5q-2 22 0 24l66 89
q55 22 78 20q24 -2 81 -18l51 -73q49 -230 49 -329q0 -211 -19 -350q40 0 75 -20q42 -24 42 -61q0 -39 -21 -39q93 -32 227 -71q82 -24 209 -89v-141zM1073 1301q0 35 -56 35q-42 0 -42 -36q0 -38 56 -38q42 0 42 39zM1103 1156l-21 74h-42l25 -74h38zM957 1251l-17 82
l-20 -19zM938 1228q0 36 -23 36q-26 0 -26 -43q0 -29 26 -29q23 0 23 36zM960 1078q0 36 -23 36q-22 0 -22 -36q0 -35 22 -35q23 0 23 35zM1068 552q14 315 -29 593q-12 -5 -30 -5q-14 0 -30 46q56 -271 56 -513q0 -72 -7 -122q0 -34 17 -34q21 0 23 35zM1273 517l-7 19
l-59 -37l16 -14zM1208 471q0 9 -1 12l-61 55h-18q40 -24 58 -53q-53 -34 -145 -34q-82 0 -165 35q19 -21 77 -40q54 -19 86 -19q88 0 169 44zM1366 156l-27 48l-87 -16l-3 -15l30 -33zM1418 85l-34 47l-81 -19l-3 -16l23 -36zM1223 119l-27 48l-85 -26l-2 -16l25 -30z
M870 461l-16 22l-74 -21l29 -21zM1265 48l-29 42l-101 -22l-3 -15l27 -31zM769 369l-21 19l-84 -33v-45l37 -10v48zM1194 237q-125 -24 -351 -89q-91 -37 -232 -138l26 -5q119 71 230 124q60 29 327 108zM1173 303v16q-304 -22 -673 -195l-16 -108q16 21 40 71
q96 65 292 136q223 80 357 80zM458 8q-16 18 -48 56q-27 34 -39 73l-6 -77z" />
  </g>

</svg>
