<?xml version="1.0" standalone="no"?>
<!DOCTYPE svg PUBLIC "-//W3C//DTD SVG 1.1//EN" "http://www.w3.org/Graphics/SVG/1.1/DTD/svg11.dtd" >
<svg viewBox="0 -442 2048 2048">
  <g transform="matrix(1 0 0 -1 0 1606)">
   <path fill="currentColor"
d="M393 1151h-31q-190 0 -190 243q0 88 29.5 121.5t115.5 33.5h36q-28 -84 -28 -150q0 -129 68 -248zM766 775q0 -382 -117 -689q-112 -66 -256 -91q-16 74 -16 144q0 121 64 254h18q123 0 123 373q0 385 -123 385h-18q-74 128 -74 253q0 73 26 145q134 -22 256 -91
q117 -311 117 -683zM399 393q-63 -119 -63 -254q0 -77 20 -144h-40q-80 0 -109 37q-25 33 -25 116q0 245 179 245h38z" />
  </g>

</svg>
