<?xml version="1.0" standalone="no"?>
<!DOCTYPE svg PUBLIC "-//W3C//DTD SVG 1.1//EN" "http://www.w3.org/Graphics/SVG/1.1/DTD/svg11.dtd" >
<svg viewBox="0 -442 2048 2048">
  <g transform="matrix(1 0 0 -1 0 1606)">
   <path fill="currentColor"
d="M1145 542q-23 -94 -122 -175.5t-195 -81.5q-218 0 -317 90v525q99 -30 190 -30q142 0 259 131q97 108 140 254h45v-713zM564 -25q-68 -41 -106 -57q-119 0 -228 54q-83 230 -83 626q0 159 20 344q24 225 63 333q109 54 228 55q38 -16 106 -58l-23 -288l-150 -97
q-65 -99 -65 -250q0 -182 32 -233q25 -40 183 -140zM1115 545v658q-52 -146 -156 -247q-119 -116 -258 -116q-84 0 -160 20v-472q89 -73 287 -73q75 0 166 68q99 74 121 162z" />
  </g>

</svg>
