<?xml version="1.0" standalone="no"?>
<!DOCTYPE svg PUBLIC "-//W3C//DTD SVG 1.1//EN" "http://www.w3.org/Graphics/SVG/1.1/DTD/svg11.dtd" >
<svg viewBox="0 -442 2048 2048">
  <g transform="matrix(1 0 0 -1 0 1606)">
   <path fill="currentColor"
d="M1843 612q0 -341 -239 -580t-580 -239t-580 239t-239 580t239 580t580 239t580 -239t239 -580zM1712 612q0 287 -200.5 487.5t-487.5 200.5q-255 0 -448 -165l129 -129l-91 -100l-131 132q-147 -187 -147 -426q0 -287 200.5 -487.5t487.5 -200.5q238 0 425 148l-118 117
l90 100l125 -124q166 193 166 447zM1322 291q0 -124 -87 -211t-211 -87q-125 0 -212.5 86.5t-87.5 211.5v176q-49 2 -84 36.5t-35 83.5t35 83t84 36v441q223 0 380 -64q218 -89 218 -281v-511zM1051 1060l-208 48h-69v-73zM1202 963l-81 60l-347 -38v-73zM1259 857l-26 56
l-459 -55v-60zM1272 746v56l-498 -56h498zM1272 291v415h-40q0 -88 -14 -126q-23 -66 -93 -66q-106 0 -106 192h-245v-415h498zM724 511v151q-73 -6 -73 -75q0 -70 73 -76zM1136 189v39h-226v-39h226zM893 592l-34 -36l-29 36h63zM987 338h-37v278h-141v34h178v-312z" />
  </g>

</svg>
