<?xml version="1.0" standalone="no"?>
<!DOCTYPE svg PUBLIC "-//W3C//DTD SVG 1.1//EN" "http://www.w3.org/Graphics/SVG/1.1/DTD/svg11.dtd" >
<svg viewBox="0 -442 2048 2048">
  <g transform="matrix(1 0 0 -1 0 1606)">
   <path fill="currentColor"
d="M2048 976q0 -97 -45 -132q-40 -30 -141 -30q-295 0 -295 216v45q142 -76 306 -76q94 0 175 25v-48zM2048 1068q-88 -19 -174 -19q-146 0 -307 77v21q0 148 -450 148q-464 0 -464 -148v-21q-154 -90 -304 -90q-89 0 -177 32q28 162 111 308q377 141 822 141
q462 0 833 -141q81 -136 110 -308zM1838 0h-1456v234q0 147 100 309l258 417v187h222v-135h296v135h222v-187l264 -421q56 -89 74 -145q20 -62 20 -160v-234zM653 1031q0 -229 -292 -229q-106 0 -146 34q-43 37 -43 141v43q101 -33 183 -33q154 0 298 81v-37zM1381 765v86
h-122v-86h122zM1381 617v86h-122v-86h122zM1171 765v86h-122v-86h122zM1381 469v86h-122v-86h122zM1171 617v86h-122v-86h122zM961 765v86h-122v-86h122zM1381 321v86h-122v-86h122zM1171 469v86h-122v-86h122zM961 617v86h-122v-86h122zM1171 321v86h-122v-86h122zM961 469
v86h-122v-86h122zM961 321v86h-122v-86h122z" />
  </g>

</svg>
