<?xml version="1.0" standalone="no"?>
<!DOCTYPE svg PUBLIC "-//W3C//DTD SVG 1.1//EN" "http://www.w3.org/Graphics/SVG/1.1/DTD/svg11.dtd" >
<svg viewBox="0 -442 2048 2048">
  <g transform="matrix(1 0 0 -1 0 1606)">
   <path fill="currentColor"
d="M2048 995q0 -97 -45 -134q-41 -34 -141 -34q-295 0 -295 212v63q0 71 -20.5 102.5t-86.5 57.5q-116 46 -351 46q-192 0 -282 -23q-174 -45 -174 -181v-60q0 -217 -299 -217q-94 0 -135 29q-47 35 -47 125v46q0 147 111 350q342 140 821 140q484 0 832 -140
q112 -190 112 -343v-39zM1838 0h-1456v199q0 121 25 199q22 73 90 180l243 384v235h222v-185h296v185h222v-235l242 -386q79 -127 96 -178q20 -61 20 -199v-199zM1999 1001v29q-40 -18 -110 -18q-150 0 -273 67v-60q0 -71 97 -106q69 -25 155 -25q73 0 100 20q31 24 31 93z
M1990 1079q-29 145 -84 256q-345 133 -804 133q-457 0 -792 -133q-56 -128 -81 -256q52 -18 110 -18q118 0 265 70v16q0 210 498 210q514 0 514 -210v-16q153 -70 270 -70q59 0 104 18zM1788 49v149q0 143 -20 200q-13 35 -102 178l-236 379v192h-123v-185h-395v185h-123
v-200l-233 -370q-83 -132 -100 -178q-25 -68 -25 -200v-150h1357zM604 1041v38q-120 -68 -252 -68q-81 0 -131 20v-32q0 -123 133 -123q117 0 191 44q59 35 59 121zM1381 765h-122v86h122v-86zM1381 617h-122v86h122v-86zM1171 765h-122v86h122v-86zM1381 469h-122v86h122
v-86zM1171 617h-122v86h122v-86zM961 765h-122v86h122v-86zM1381 321h-122v86h122v-86zM1171 469h-122v86h122v-86zM961 617h-122v86h122v-86zM1171 321h-122v86h122v-86zM961 469h-122v86h122v-86zM961 321h-122v86h122v-86z" />
  </g>

</svg>
