<?xml version="1.0" standalone="no"?>
<!DOCTYPE svg PUBLIC "-//W3C//DTD SVG 1.1//EN" "http://www.w3.org/Graphics/SVG/1.1/DTD/svg11.dtd" >
<svg viewBox="0 -442 2048 2048">
  <g transform="matrix(1 0 0 -1 0 1606)">
   <path fill="currentColor"
d="M1705 424q0 -126 -100 -339q-85 -181 -183 -311q161 491 161 589q0 31 -8 45q-18 32 -149 69q21 -43 21 -80q0 -232 -211 -568q22 89 65 269q37 164 37 270q0 75 -19 103q-17 25 -90 63q11 -64 11 -140q0 -190 -88 -349q-61 -111 -127 -111t-128 111q-89 160 -89 349
q0 76 10 140q-73 -38 -90 -63q-19 -28 -19 -103q0 -109 37 -270q22 -90 65 -269q-211 335 -211 568q0 37 22 80q-131 -37 -149 -69q-9 -16 -9 -45q0 -101 162 -589q-99 130 -184 311q-100 212 -100 339q0 39 14 57q28 36 492 156l5 10q-202 -18 -306 -18q-66 0 -82 9
q-37 21 -37 186q0 334 143 542q-48 -333 -48 -461q0 -153 44 -187q17 -13 69 -13q42 0 84 6q-61 60 -61 157q0 340 163 557q-54 -298 -54 -467q0 -190 34 -212q15 -10 51 -10q45 0 116 12q-85 49 -85 174q0 69 34 125q40 64 105 64t106 -64q34 -55 34 -125q0 -125 -85 -174
q72 -12 116 -12q37 0 52 10q34 22 34 212q0 167 -55 467q163 -217 163 -557q0 -97 -61 -157q42 -6 84 -6q52 0 69 13q44 34 44 187q0 127 -47 461q143 -209 143 -542q0 -164 -38 -186q-16 -9 -81 -9q-104 0 -307 18l5 -10q464 -120 492 -156q14 -18 14 -57z" />
  </g>

</svg>
