<?xml version="1.0" standalone="no"?>
<!DOCTYPE svg PUBLIC "-//W3C//DTD SVG 1.1//EN" "http://www.w3.org/Graphics/SVG/1.1/DTD/svg11.dtd" >
<svg viewBox="-3 -442 2050 2048">
  <g transform="matrix(1 0 0 -1 0 1606)">
   <path fill="currentColor"
d="M2050 799l-116 -38q-233 -429 -341 -1010l81 -111l-46 -34l-60 82q-274 51 -545 51q-270 0 -544 -51l-60 -82l-46 34l81 111q-108 581 -341 1010l-116 38l18 54l112 -36q533 291 868 648v108h57v-108q336 -358 869 -648l111 36zM1850 794q-473 256 -798 590v-222
q84 -94 278 -237q181 -133 314 -198zM1571 703q-114 58 -279 178q-150 109 -240 200v-187q122 -141 327 -253zM1857 736l-211 -68q-68 -123 -136 -332q-67 -205 -88 -349l127 -175q97 518 308 924zM1309 618q-161 91 -257 193v-276zM1570 643l-180 -59q-90 -155 -132 -372
l119 -163q20 127 81 313q54 167 112 281zM995 1162v222q-324 -333 -797 -590l205 -67q133 65 314 198q194 143 278 237zM1312 559l-248 -80l151 -208q38 175 97 288zM995 894v187q-90 -91 -240 -200q-165 -120 -279 -178l192 -62q205 112 327 253zM995 535v276
q-96 -102 -257 -193zM1183 217l-159 219l-160 -219q87 14 159 14t160 -14zM983 479l-248 80q59 -113 97 -288zM1343 -2l-112 153q-104 22 -207 22q-104 0 -208 -22l-111 -153q132 20 318 20q187 0 320 -20zM789 212q-43 219 -132 372l-180 59q58 -114 112 -281
q61 -186 81 -313zM1521 -247l-131 180q-135 27 -366 27q-232 0 -367 -27l-130 -180q263 43 496 43q234 0 498 -43zM625 -13q-21 144 -88 349q-68 209 -136 332l-211 68q211 -406 308 -924z" />
  </g>

</svg>
