<?xml version="1.0" standalone="no"?>
<!DOCTYPE svg PUBLIC "-//W3C//DTD SVG 1.1//EN" "http://www.w3.org/Graphics/SVG/1.1/DTD/svg11.dtd" >
<svg viewBox="0 -442 2048 2048">
  <g transform="matrix(1 0 0 -1 0 1606)">
   <path fill="currentColor"
d="M1456 1241q0 -122 -93 -190l-283 -208q-20 33 -51 61l293 219q46 34 46 112q0 99 -112 99q-48 0 -85 -25l-420 -281q-68 -45 -68 -118q0 -53 30 -90t81 -37q64 0 142 49q19 -14 49 -59q-108 -64 -202 -64q-83 0 -137 61q-51 58 -51 143q0 135 126 214l425 265
q42 26 114 26q196 0 196 -177zM1355 325q0 -88 -65 -138q-60 -47 -150 -47q-97 0 -153 55l69 47q39 -34 95 -34q48 0 85 30q41 33 41 79q0 39 -30 83l-284 421q-42 62 -132 62q-89 0 -100 -63q-24 18 -34 88q15 25 71 54q23 12 65 12q60 0 130 -36.5t100 -85.5l267 -433
q25 -41 25 -94zM999 321l-67 -43l-222 340q-42 64 -62 134q48 -42 104 -50q8 -31 20 -48zM1456 258q0 -122 -93 -190l-383 -279q-80 -58 -186 -58q-84 0 -143 58t-59 143q0 123 131 207l423 270q27 17 71 24q19 -26 46 -82h-7q-48 0 -85 -25l-420 -281q-72 -48 -72 -115
q0 -49 35 -86t83 -37q70 0 142 53l383 280q50 37 50 111q0 10 -12 47q2 21 2 32q0 41 -27 95q121 -37 121 -167z" />
  </g>

</svg>
