<?xml version="1.0" standalone="no"?>
<!DOCTYPE svg PUBLIC "-//W3C//DTD SVG 1.1//EN" "http://www.w3.org/Graphics/SVG/1.1/DTD/svg11.dtd" >
<svg viewBox="0 -442 2048 2048">
  <g transform="matrix(1 0 0 -1 0 1606)">
   <path fill="currentColor"
d="M2036 1184l-1379 -1047l-583 -174l330 507l1375 1047q236 -71 257 -333zM1979 1209q-35 184 -190 251l-255 -192q151 -80 188 -254zM1501 999q-15 33 -42 59l-837 -638q46 -11 46 -59zM1422 1093q-33 25 -65 39l-831 -630q17 4 28 4q40 0 40 -38l-1 -10zM1549 880
q-12 43 -26 75l-826 -633q37 -2 37 -34q0 -14 -13 -41zM694 266q0 23 -27 23q-29 0 -100 -35q60 57 60 95t-43 38q-23 0 -94 -34q63 54 63 95q0 22 -25 22q-45 0 -96 -39l-174 -274l57 -72l311 92q68 60 68 89z" />
  </g>

</svg>
