<?xml version="1.0" standalone="no"?>
<!DOCTYPE svg PUBLIC "-//W3C//DTD SVG 1.1//EN" "http://www.w3.org/Graphics/SVG/1.1/DTD/svg11.dtd" >
<svg viewBox="0 -442 2048 2048">
  <g transform="matrix(1 0 0 -1 0 1606)">
   <path fill="currentColor"
d="M1550 172q-107 -197 -256 -244l-100 102q-242 34 -413 180q-104 10 -225 24q-4 1 -96 40l-192 81q73 154 207 154q61 0 135 -39q76 23 126 35q12 63 12 99q-84 62 -136 121q-61 -35 -137 -66q-18 -199 -213 -199v296l232 216l-190 161q-132 112 -132 196q0 61 60 125
l328 -239q-74 163 -74 237q0 100 116 152l221 -392q16 132 40 181q43 88 148 88q10 0 35 -2q-9 -69 -9 -165q0 -233 37 -515zM1010 884q-25 193 -25 426q0 47 5 123q-72 -19 -97 -87q-16 -45 -16 -137q0 -31 6 -101zM907 960l-324 574q-48 -32 -48 -84q0 -66 107 -295z
M884 919l-642 464q-17 -29 -17 -54q0 -72 143 -189l190 -155zM1489 172l-515 673l-439 98l-225 -207l1 -223q121 27 113 182q111 36 194 94q74 -80 182 -166q0 -71 -28 -162q-57 -15 -173 -44q-60 42 -122 42q-80 0 -134 -81q100 -44 228 -96l225 -21q180 -160 415 -178
l95 -105q119 75 183 194z" />
  </g>

</svg>
