<?xml version="1.0" standalone="no"?>
<!DOCTYPE svg PUBLIC "-//W3C//DTD SVG 1.1//EN" "http://www.w3.org/Graphics/SVG/1.1/DTD/svg11.dtd" >
<svg viewBox="0 -442 2048 2048">
  <g transform="matrix(1 0 0 -1 0 1606)">
   <path fill="currentColor"
d="M1909 1388q-53 -35 -211 -138h159v-1350h-1663v1350h839q280 125 387 161q79 26 418 130zM1864 1427l-31 59l-554 -252l31 -68zM1816 -66v1282h-173l-132 -80h217v-280h-348v208q-130 -69 -295 -146l-137 298h-713v-1282h1581zM1058 905q-70 -35 -265 -101
q-86 -29 -282 -67l-71 152q99 83 232 173q112 76 249 138zM1379 575h-825v74h825v-74zM1379 407h-706v75h706v-75zM1379 239h-603v75h603v-75zM490 749l-103 -48q-9 6 -31 15q-8 2 -17 2q-23 0 -56 -11l-4 8l143 67l-4 10l-143 -67l-4 9q21 12 53 50q6 11 9 33l103 48z" />
  </g>

</svg>
