<?xml version="1.0" standalone="no"?>
<!DOCTYPE svg PUBLIC "-//W3C//DTD SVG 1.1//EN" "http://www.w3.org/Graphics/SVG/1.1/DTD/svg11.dtd" >
<svg viewBox="0 -442 2048 2048">
  <g transform="matrix(1 0 0 -1 0 1606)">
   <path fill="currentColor"
d="M2012 1179l-1442 -1092l-39 50l-411 -174l-46 62l283 342l-38 50l1444 1100q231 -81 249 -338zM1923 1178q-34 178 -189 252l-160 -122q156 -76 191 -252zM1606 935q-31 183 -192 255l-678 -517q160 -78 191 -255l87 67q22 136 175.5 259.5t292.5 123.5q9 0 33 -3z
M771 299q-33 180 -191 256l-159 -119q154 -67 194 -255z" />
  </g>

</svg>
