<?xml version="1.0" standalone="no"?>
<!DOCTYPE svg PUBLIC "-//W3C//DTD SVG 1.1//EN" "http://www.w3.org/Graphics/SVG/1.1/DTD/svg11.dtd" >
<svg viewBox="0 -442 2048 2048">
  <g transform="matrix(1 0 0 -1 0 1606)">
   <path fill="currentColor"
d="M1887 0l-147 53q-23 7 -73 27q-47 29 -126 78q-35 -51 -117 -63q-48 -95 -125 -95q-38 0 -77 30q-36 -30 -80 -30q-53 0 -97 52q-125 -36 -225 -52q-103 29 -164 60l-157 -60q-89 135 -89 325q0 23 3 70q73 25 108 57t177 231l-525 327q-1 11 -1 18q0 49 54 68l535 -336
l54 62l446 62l193 -215l106 -316q-53 -21 -96 -23q65 -17 88 -63q69 -40 166 -102q17 -17 56 -55zM1493 384l-84 260l-167 185l-404 -53l-34 -41l215 -135q81 42 145 83q60 -58 155 -127q57 -175 145 -175q11 0 29 3zM1335 404q-39 55 -58 118q-76 45 -123 95q-9 -6 -88 -48
zM1272 324l-258 162q1 -26 2 -94q87 -15 256 -68zM1367 92q-36 0 -111 15l-25 -7q26 -48 70 -48q32 0 66 40zM1505 212q0 71 -143 71q-40 0 -95 -11q-147 55 -301 76l1 85l-2 82l-223 141l-53 -69q-2 -3 -32 -47q-93 -137 -195 -179v-34q0 -132 59 -263l135 49
q17 -7 162 -54q124 16 439 97q73 -17 119 -17q129 0 129 73zM1196 91l-95 -25q19 -15 45 -15q43 0 50 40z" />
  </g>

</svg>
