<?xml version="1.0" standalone="no"?>
<!DOCTYPE svg PUBLIC "-//W3C//DTD SVG 1.1//EN" "http://www.w3.org/Graphics/SVG/1.1/DTD/svg11.dtd" >
<svg viewBox="0 -442 2048 2048">
  <g transform="matrix(1 0 0 -1 0 1606)">
   <path fill="currentColor"
d="M1689 1172q-14 -32 -48 -87l-238 18l-80 125q0 -105 68 -166q65 -59 171 -59l82 -439v-200h-49v-49h41l20 -150l-20 -165h-1227l-20 165l20 150h40v49h-49v200l83 439q108 0 173 59t65 166l-79 -125l-238 -18q-34 55 -48 87q0 98 45 188q206 146 611 146q402 0 632 -146
q44 -90 45 -188zM1219 1188v86q-69 9 -233 9q-123 0 -160 -9l-1 -86h394zM1480 315l-1 49h-919v-49h920zM1132 159q0 37 -37 37t-37 -37t37 -37t37 37zM993 159q0 37 -37 37t-37 -37t37 -37t37 37zM846 159q0 37 -37 37t-37 -37t37 -37t37 37zM712 159q0 37 -37 37t-37 -37
t37 -37t37 37zM565 159q0 37 -37 37t-37 -37t37 -37t37 37z" />
  </g>

</svg>
