<?xml version="1.0" standalone="no"?>
<!DOCTYPE svg PUBLIC "-//W3C//DTD SVG 1.1//EN" "http://www.w3.org/Graphics/SVG/1.1/DTD/svg11.dtd" >
<svg viewBox="0 -442 2048 2048">
  <g transform="matrix(1 0 0 -1 0 1606)">
   <path fill="currentColor"
d="M1578 1056q0 -97 -36 -141q-39 -47 -105 -60q-5 -1 -15 -1q-13 0 -38.5 2t-37.5 2q-1 -1 -209 -221q26 -64 26 -141q0 -22 -2 -40q-5 -48 -54 -93t-97 -45q-123 0 -249 99q-164 -152 -327 -305q-271 -241 -336 -241q-4 0 -34 19q11 75 100 180q84 100 303 339
q46 49 135 149q4 5 8 11q0 -3 -30 45q-50 79 -64 153q-2 10 -2 67q0 41 47 86.5t89 50.5q8 1 35 1q48 0 86 -8q7 -1 31.5 -11t28.5 -10q7 0 223 209q-1 11 -5 42q-3 27 -3 43q0 22 22 62.5t41 55.5q5 4 45 18q34 12 100 12q7 0 66 -22q91 -34 172 -125q86 -97 86 -182z
M1531 1029q0 112 -97 210t-208 98q-63 0 -97 -30q-39 -35 -39 -74v-83l6 4l-245 -257q105 -64 164 -128l270 270q24 -18 24 -81q0 -16 -14 -34q-8 -10 -63.5 -65.5l-164.5 -164.5q13 -17 24 -36q88 80 251 248q27 32 27 68q0 -6 -6 19q-14 59 -62 110.5t-105 66.5
q-30 8 -29 8q-4 0 -30 -11t-35 -12q30 27 51 27q36 0 58 -5q28 -6 88.5 -65t71.5 -88q7 -18 7 -47q0 -30 -9 -44q-12 -18 -25 -36q69 -7 71 -7q52 0 86 45q30 40 30 94zM1115 482q0 87 -24 149q-26 69 -112 155t-154 115q-17 3 -51 11q-44 13 -91 13q-29 0 -43 -5
q-25 -9 -53 -47t-28 -64q0 -123 104 -227q30 33 59 66q34 35 74 35q26 0 53.5 -28t27.5 -54q0 -31 -17 -50q-1 -1 -41 -35q-26 -22 -44 -44q114 -100 227 -100q26 0 33 4q80 49 80 106zM858 613q0 6 -23 27t-30 21q-16 0 -357 -350q-83 -79 -237 -244q-39 -47 -108 -167
q142 110 200 160q104 87 187 176q7 8 197 200q171 173 171 177zM1512 1026q0 -43 -27 -79q-24 -32 -48 -32h-52q16 21 16 76q0 47 -68 120q-63 68 -112 85q-23 8 -66 8q-18 0 -43 -16v11q0 116 112 116q100 0 194 -94.5t94 -194.5zM1350 975q0 -21 -24 -56q-23 -23 -69 -68
q74 72 74 112q0 58 -43 111l-267 -273q-44 35 -135 103q76 86 226 228q31 24 58 24q6 0 52 -18q39 -15 82 -68q46 -56 46 -95zM1096 487q0 -20 -1 -28q-3 -20 -34 -45.5t-53 -25.5q-92 0 -201 81q31 28 61 55q31 32 31 72q0 39 -34.5 72.5t-73.5 33.5q-35 0 -69 -32
q-27 -30 -53 -60q-84 80 -84 187q0 66 61 97q10 5 37 5q52 0 139 -23q23 -6 89 -59q152 -123 177 -240q8 -38 8 -90zM836 609q0 -13 -187 -192q-117 -121 -235 -241q-141 -143 -257 -216l668 672q11 -18 11 -23z" />
  </g>

</svg>
