<?xml version="1.0" standalone="no"?>
<!DOCTYPE svg PUBLIC "-//W3C//DTD SVG 1.1//EN" "http://www.w3.org/Graphics/SVG/1.1/DTD/svg11.dtd" >
<svg viewBox="0 -442 2048 2048">
  <g transform="matrix(1 0 0 -1 0 1606)">
   <path fill="currentColor"
d="M1532 -237q0 -48 -48 -67q-19 -7 -88 -18l-313 -48q-39 -6 -72 -6q-92 0 -146 71q-28 51 -85 154q-73 132 -83 157q-27 65 -40 171l-106 884q-4 37 27 51q12 5 64 11l296 33q53 6 79 61h23l32 58l-12 114l8 24l-12 141q-15 2 -17 17q-1 14 25 14q24 0 26 -18
q-6 -7 -18 -13l12 -141l11 -24l12 -114l36 -58h18l42 -84l103 -978l171 -266q14 -19 39 -57q16 -26 16 -69zM1507 -237q0 37 -14 61q-12 16 -36 50l-175 273l-103 979l-33 63h-113q-29 -52 -93 -58q-132 -12 -329 -36q-37 -4 -35 -34l1 -15l105 -866q13 -105 39 -166
q9 -22 81 -153q46 -84 77 -143q50 -69 132 -69q41 0 234.5 28.5t224.5 39.5q37 13 37 46zM1101 979q-32 64 -70 64q-56 0 -167.5 -18t-166.5 -18l-11 2l13 18q293 40 351 40q39 0 48 -20q3 -6 3 -54v-14zM1003 964q0 -8 -19 -46q-21 -43 -31 -43q-13 0 -13 13
q0 11 20.5 49.5t29.5 38.5q13 0 13 -12zM953 964q0 -8 -19 -46q-21 -43 -31 -43q-13 0 -13 13q0 11 20.5 49.5t29.5 38.5q13 0 13 -12zM903 964q0 -8 -19 -46q-21 -43 -31 -43q-13 0 -13 13q0 11 20.5 49.5t29.5 38.5q13 0 13 -12zM1121 823q0 -8 -10 -23l-165 -27
q-98 -16 -166 -16q-30 0 -42 26q-7 25 -13 50q47 -45 63 -45q22 0 155.5 15t141.5 18q18 8 23 58q13 -48 13 -56zM678 1081q-51 -9 -51 -46q0 -28 8 -143l-11 -3q-19 142 -19 160q0 29 25 30zM1230 240q5 -43 -62 -48l-163 -28q-128 -22 -162 -22q-58 0 -74 60
q-5 34 -23 167q-10 83 -37 298l-1 8q-6 46 41 52l384 47q39 0 45 -54zM1231 141l-126 -24l2 -24l-20 -2l-4 44l142 27zM1302 -10q0 -14 -35 -21q-267 -52 -361 -52q-13 0 -44 33.5t-31 46.5v1l38 -17q36 -16 68 -16q141 0 290 36q35 8 35 15q0 10 -4.5 32.5t-4.5 33.5
q49 -74 49 -92zM990 80l-22 -7l-2 27l-162 -27v22l182 27zM1490 -229q0 -11 -11 -13l-492 -67q-11 0 -11 12t10 13l492 67q12 0 12 -12zM1131 715q0 19 -31 19q-53 0 -53 -29q0 -20 23 -20q61 0 61 30zM1142 628q0 20 -31 20q-53 0 -53 -30q0 -19 23 -19q61 0 61 29z
M1158 536q0 20 -31 20q-53 0 -53 -30q0 -19 23 -19q61 0 61 29zM988 685q0 22 -27 22q-54 0 -54 -29q0 -20 29 -20q52 0 52 27zM1172 442q0 19 -31 19q-53 0 -53 -29q0 -20 23 -20q61 0 61 30zM999 599q0 22 -27 22q-54 0 -54 -29q0 -20 29 -20q52 0 52 27zM1190 344
q0 19 -32 19q-44 0 -44 -25q0 -19 32 -19q44 0 44 25zM1015 507q0 22 -26 22q-55 0 -55 -29q0 -20 29 -20q52 0 52 27zM853 665q0 27 -41 27q-54 0 -54 -34q0 -27 41 -27q54 0 54 34zM1203 272q0 18 -31 18q-44 0 -44 -25q0 -18 31 -18q44 0 44 25zM1029 412q0 22 -27 22
q-55 0 -55 -29q0 -19 29 -19q53 0 53 26zM864 579q0 27 -42 27q-53 0 -53 -35q0 -27 41 -27q54 0 54 35zM1089 329q0 19 -35 19q-44 0 -44 -25q0 -19 32 -19q47 0 47 25zM880 487q0 27 -41 27q-54 0 -54 -35q0 -27 41 -27q54 0 54 35zM1100 257q0 18 -34 18q-44 0 -44 -25
q0 -18 31 -18q47 0 47 25zM987 309q0 19 -31 19q-44 0 -44 -25q0 -19 31 -19q44 0 44 25zM894 392q0 27 -42 27q-54 0 -54 -34q0 -27 42 -27q54 0 54 34zM998 237q0 19 -32 19q-44 0 -44 -26q0 -18 32 -18q44 0 44 25zM878 294q0 19 -31 19q-44 0 -44 -25q0 -19 31 -19
q44 0 44 25zM896 222q0 19 -32 19q-44 0 -44 -26q0 -18 32 -18q44 0 44 25z" />
  </g>

</svg>
