<?xml version="1.0" standalone="no"?>
<!DOCTYPE svg PUBLIC "-//W3C//DTD SVG 1.1//EN" "http://www.w3.org/Graphics/SVG/1.1/DTD/svg11.dtd" >
<svg viewBox="0 -442 2048 2048">
  <g transform="matrix(1 0 0 -1 0 1606)">
   <path fill="currentColor"
d="M2016 1285q0 -76 -159 -242q-115 -119 -225 -205l-196 -153q-65 -51 -93 -52q-12 -1 -38 19l-162 -126q-291 -226 -362 -226q-23 0 -64 39l-199 -242q-227 -43 -415 -134l-29 39q141 157 234 370l289 130q-26 38 -26 60q0 57 314 295l165 125q-8 18 -8 29q0 28 38 55
q2 2 22 17l204 155q367 279 513 279q62 0 131 -86q66 -82 66 -146zM1960 1290q0 50 -51.5 112t-100.5 62q-125 0 -534 -311l-117 -89q210 -86 249 -334l128 98q426 326 426 462zM1357 748q-48 181 -193 258l-201 -154q-154 -118 -312 -265q112 -75 166 -223q222 143 349 239
zM730 430q-19 32 -47 58l-341 -155q-10 -19 -45 -92q-9 -20 -80 -129l149 112l-1 8q0 51 52 51t52 -51q0 -50 -51 -50q-7 0 -21 4l-151 -113q101 35 208 59q7 2 30 8zM1869 1223q-34 -76 -160 -171l-164 -124q-8 -57 -67 -57q-68 0 -68 66t67 66q11 0 31 -6l119 87
q144 105 180 222z" />
  </g>

</svg>
