<?xml version="1.0" standalone="no"?>
<!DOCTYPE svg PUBLIC "-//W3C//DTD SVG 1.1//EN" "http://www.w3.org/Graphics/SVG/1.1/DTD/svg11.dtd" >
<svg viewBox="0 -442 2048 2048">
  <g transform="matrix(1 0 0 -1 0 1606)">
   <path fill="currentColor"
d="M2036 1295q0 -144 -206 -302l-474 -364q-36 -28 -53 -28q-21 0 -43 21l-337 -259q-306 -235 -591 -332l-175 -61q-17 -7 -31 -7q-52 0 -52 56q0 19 33 68l85 126q163 242 419 438l395 303q-6 14 -6 28q0 28 52 67l465 352q155 117 293 117q99 0 162.5 -62t63.5 -161z
M1983 1297q0 75 -49.5 127t-123.5 52q-117 0 -279 -124l-416 -318q215 -93 249 -333l420 319q199 151 199 277zM1311 721q-48 176 -187 256l-501 -380q-171 -130 -313 -310l-89 -113q60 -46 77 -105l129 53q223 92 454 269zM1888 1231q-26 -66 -164 -168l-223 -164
q-7 -59 -68 -59q-65 0 -65 66q0 67 70 67q10 0 25 -7l182 132q152 110 180 219z" />
  </g>

</svg>
