<?xml version="1.0" standalone="no"?>
<!DOCTYPE svg PUBLIC "-//W3C//DTD SVG 1.1//EN" "http://www.w3.org/Graphics/SVG/1.1/DTD/svg11.dtd" >
<svg viewBox="0 -442 2048 2048">
  <g transform="matrix(1 0 0 -1 0 1606)">
   <path fill="currentColor"
d="M2000 1468q0 -41 -83 -135q-43 -50 -131 -149l-264 -279q-244 -258 -424 -339l-468 -211q-47 -275 -312 -275h-33q-134 0 -211 -117q13 226 126 357q121 142 341 152l318 394q126 156 425 316l380 203q249 133 282 133q54 0 54 -50zM1955 1450l-19 21q-49 -20 -120 -60
q-115 -65 -117 -66l-268 -142q-421 -223 -548 -385l-11 -14q130 -82 166 -215l19 9q205 97 490 403l220 236q86 92 163 185q5 6 25 28zM901 534q-29 91 -122 151l-197 -238q29 -11 36 -43z" />
  </g>

</svg>
