<?xml version="1.0" standalone="no"?>
<!DOCTYPE svg PUBLIC "-//W3C//DTD SVG 1.1//EN" "http://www.w3.org/Graphics/SVG/1.1/DTD/svg11.dtd" >
<svg viewBox="0 -442 2048 2048">
  <g transform="matrix(1 0 0 -1 0 1606)">
   <path fill="currentColor"
d="M1718 595q-81 -71 -233 -222q-58 -83 -183 -241q-53 -60 -206 -170v-146q-129 -54 -253 -54q-134 0 -238 57v114q-15 19 -43 50q-71 79 -113 218q-43 143 -43 226q0 6 11 117l-150 264q-26 43 -73 131q-22 48 -22 86q0 40 28 70t67 30q65 0 127 -118q139 -265 165 -292h3
q-6 13 -57 106q-61 111 -114.5 206t-53.5 151q0 116 98 116q53 0 92 -48q18 -22 89 -143q59 -103 179 -308q44 165 151 488q46 115 123 115q94 0 94 -107q0 -32 -13 -76q-44 -142 -133 -427h5l119 374q58 178 144 178q90 0 90 -105q0 -54 -33 -181q-28 -111 -85 -332
q-28 -104 -28 -110q0 -10 21 -109q39 13 89 38q1 1 28.5 43.5t79 72t100.5 29.5q61 0 171 -91zM1646 597q-47 42 -95 42q-86 0 -143 -89q-9 -16 -32 -46q-54 -22 -141 -63q-40 -22 -88 -67l-81 -75q-21 16 -36 33q75 102 173 151l-27 134q24 98 116 445q38 143 38 169
q0 63 -48 63q-37 0 -72 -82q-20 -59 -40 -117q-40 -119 -123 -358q-61 -1 -71 -1q-12 0 -20 2q47 143 94 285q68 213 68 270q0 60 -47 60q-48 0 -75 -57q-7 -15 -37 -122l-79 -281q-18 -71 -43 -148q-9 -7 -81 -16q-79 139 -230 421q-50 97 -91 97q-53 0 -53 -65
q0 -18 55 -126q68 -129 203 -389q-33 -20 -76 -39q-75 122 -224 368q-47 78 -80 78q-40 0 -40 -46q0 -44 125 -250.5t125 -215.5q0 -23 -6.5 -67.5t-6.5 -67.5q0 -54 39 -191t68 -181q13 -20 97 -117v-93q103 -35 191 -35q85 0 197 35v138q61 49 122 97q71 58 113 108
q54 77 166 223q35 41 95 96q100 89 101 90z" />
  </g>

</svg>
