<?xml version="1.0" standalone="no"?>
<!DOCTYPE svg PUBLIC "-//W3C//DTD SVG 1.1//EN" "http://www.w3.org/Graphics/SVG/1.1/DTD/svg11.dtd" >
<svg viewBox="0 -442 2048 2048">
  <g transform="matrix(1 0 0 -1 0 1606)">
   <path fill="currentColor"
d="M1766 1045q0 -121 -68.5 -162t-253.5 -41l-306 1q-21 -15 -65 -40q36 3 58 3q182 0 182 -116q0 -126 -185 -126q-18 0 -37 3q-37 -90 -130 -90q-30 0 -57 16q-42 -46 -89 -46q-52 0 -111 51q-78 -14 -123 -19q-105 32 -197 82l-180 -20q-32 90 -32 181q0 110 30 186
l642 197zM1714 998l-864 57l-609 -187q-19 -61 -19 -146q0 -65 17 -127l155 17q103 -61 203 -82q236 45 422 101q53 -20 113 -20q127 0 127 76q0 68 -131 68q-55 0 -113 -18q-117 49 -287 80l21 48q111 -15 221 -55q93 39 147 82h327q119 0 159 9q98 21 111 97zM1032 574
l-20 4l-100 -27q23 -25 45 -25q52 0 75 48zM875 544l-108 -32q26 -15 49 -15q43 0 59 47z" />
  </g>

</svg>
