<?xml version="1.0" standalone="no"?>
<!DOCTYPE svg PUBLIC "-//W3C//DTD SVG 1.1//EN" "http://www.w3.org/Graphics/SVG/1.1/DTD/svg11.dtd" >
<svg viewBox="0 -442 2048 2048">
  <g transform="matrix(1 0 0 -1 0 1606)">
   <path fill="currentColor"
d="M1063 458q0 -12 -6.5 -34.5t-6.5 -34.5v-98q0 -54 -19 -145q-21 -100 -45 -136q-4 -6 -41.5 -48.5t-37.5 -44.5v-118q-106 -54 -242 -54q-110 0 -244 54v152q0 2 -51 86q-23 38 -63 125q-46 100 -46 124q0 32 14 78q23 75 23 76q18 76 18 159q0 91 -31 214
q-28 105 -57 210q-18 64 -36 129q-20 75 -20 131q0 42 26.5 71.5t68.5 29.5q81 0 128 -131q37 -104 79 -280q51 -216 71 -283q31 185 100 555q36 177 136 177q115 0 115 -111q0 -45 -63 -315q-60 -261 -83 -325q50 49 96 49q109 0 109 -108q0 -24 -14 -66q27 6 47 6
q75 0 75 -94zM1016 458q0 47 -28 47q-8 0 -25.5 -1.5t-25.5 -1.5q-46 0 -46 32q0 13 8.5 38.5t8.5 39.5q0 61 -62 61q-3 0 -52.5 -25t-72.5 -25q-24 0 -24 25q0 11 9 39q43 136 114 463q29 134 29 161q0 64 -68 64q-61 0 -90 -139q-5 -23 -66 -377q-10 -60 -34 -179
q-11 -45 -45 -45q-31 0 -46 42l-88 368q-77 292 -145 292q-48 0 -48 -54q0 -75 44 -227q34 -116 68 -231q32 -128 32 -226q0 -103 -43 -249q-12 -41 -12 -64q0 -40 80 -178.5t80 -156.5v-120q107 -39 197 -39q108 0 195 37v88q0 18 36 60q25 30 51 59q19 25 39 123
q17 88 17 132v98q0 12 6.5 35t6.5 34z" />
  </g>

</svg>
