<?xml version="1.0" standalone="no"?>
<!DOCTYPE svg PUBLIC "-//W3C//DTD SVG 1.1//EN" "http://www.w3.org/Graphics/SVG/1.1/DTD/svg11.dtd" >
<svg viewBox="0 -442 2048 2048">
  <g transform="matrix(1 0 0 -1 0 1606)">
   <path fill="currentColor"
d="M1766 826q0 -122 -46 -221h-159q-70 -105 -146 -146t-203 -41q-162 0 -213 23q-56 25 -56 79q0 12 2 25q-71 8 -95 53q-17 32 -17 107q-59 22 -75 81q-8 29 -8 115q-270 5 -391 5q-187 0 -187 104q0 80 104 104q47 11 168 11q20 0 365 8l218 119q198 -57 460 -185h225
q54 -103 54 -241z" />
  </g>

</svg>
