<?xml version="1.0" standalone="no"?>
<!DOCTYPE svg PUBLIC "-//W3C//DTD SVG 1.1//EN" "http://www.w3.org/Graphics/SVG/1.1/DTD/svg11.dtd" >
<svg viewBox="0 -442 2048 2048">
  <g transform="matrix(1 0 0 -1 0 1606)">
   <path fill="currentColor"
d="M1208 787q0 -71 -55 -129q22 -35 22 -66q0 -77 -81 -99q3 -18 3 -29q0 -93 -108 -102q2 -13 2 -19q0 -71 -66 -93q-35 -11 -125 -11l-35 18q-66 -18 -116 -18q-18 0 -56 3q-120 55 -223 173h-149q-49 119 -49 237q0 121 54 236q155 0 176 14t77 91q65 90 80 105l186 197
l50 222q92 -23 134 -60q52 -46 52 -133q0 -53 -68 -181q-44 -82 -56 -174h28q115 0 203 -36q120 -48 120 -146zM1157 793q0 127 -354 127q5 150 79 276q47 80 47 128q0 94 -100 128l-40 -185l-201 -214q-21 -23 -77 -99q-66 -90 -103 -107q-31 -13 -151 -13
q-34 -95 -34 -193q0 -83 31 -174h138q85 -113 214 -185q56 2 81 5q46 7 78 23q44 -24 78 -24q98 0 98 75q0 21 -3 49q111 0 111 60q0 12 -9 57q82 17 82 62q0 28 -37 75q72 63 72 129z" />
  </g>

</svg>
