<?xml version="1.0" standalone="no"?>
<!DOCTYPE svg PUBLIC "-//W3C//DTD SVG 1.1//EN" "http://www.w3.org/Graphics/SVG/1.1/DTD/svg11.dtd" >
<svg viewBox="0 -442 2048 2048">
  <g transform="matrix(1 0 0 -1 0 1606)">
   <path fill="currentColor"
d="M1208 828q0 -121 -54 -236q-155 0 -176 -14t-77 -91q-65 -90 -80 -105l-186 -197l-50 -222q-92 23 -134 60q-52 46 -52 133q0 53 68 181q44 82 56 174h-28q-115 0 -203 36q-120 48 -120 146q0 71 55 129q-22 35 -22 66q0 77 81 99q-3 18 -3 29q0 93 108 102q-2 13 -2 19
q0 71 66 93q35 11 125 11l35 -18q66 18 116 18q18 0 56 -3q120 -55 223 -173h149q49 -119 49 -237zM1157 839q0 83 -31 174h-138q-85 113 -214 185q-56 -2 -81 -5q-46 -7 -78 -23q-44 24 -78 24q-98 0 -98 -75q0 -21 3 -49q-111 0 -111 -60q0 -12 9 -57q-82 -17 -82 -62
q0 -28 37 -75q-72 -63 -72 -129q0 -127 354 -127q-5 -150 -79 -276q-47 -80 -47 -128q0 -94 100 -128l40 185l201 214q21 23 77 99q66 90 103 107q31 13 151 13q34 95 34 193z" />
  </g>

</svg>
