<?xml version="1.0" standalone="no"?>
<!DOCTYPE svg PUBLIC "-//W3C//DTD SVG 1.1//EN" "http://www.w3.org/Graphics/SVG/1.1/DTD/svg11.dtd" >
<svg viewBox="0 -442 2048 2048">
  <g transform="matrix(1 0 0 -1 0 1606)">
   <path fill="currentColor"
d="M1652 1175q0 -45 -43 -120l-191 -332l11 -120q0 -8 -8 -56q-28 -164 -83 -282q-6 -13 -14 -28q-29 -33 -88 -100v-110q-110 -52 -228 -52q-114 0 -241 52v143q-153 106 -194 161l-123 164q-18 26 -62 82q-22 21 -72 68l-144 137q108 87 162 87q119 0 201 -138
q56 -20 88 -38q8 71 17 105l-124 482q-16 62 -16 113q0 93 93 93q78 0 134 -164l126 -372q-12 478 -12 489q0 165 111 165q112 0 112 -156v-478l120 419q37 128 121 128q98 0 98 -111q0 -29 -20 -105l-107 -408l174 285q56 92 111 92q39 0 65 -28t26 -67zM1605 1174
q0 45 -41 45q-29 0 -71 -68l-217 -353l-73 35l134 487q18 65 18 85q0 63 -51 63q-54 0 -87 -123l-125 -459l-78 14l1 563q0 91 -63 91q-67 0 -63 -163l12 -491h-86l-145 430q-35 103 -77 103q-43 0 -43 -59q0 -34 19 -105l126 -471q-18 -62 -26 -135l-39 -25q-65 34 -131 54
q-67 127 -164 127q-43 0 -90 -40l123 -115q20 -17 61 -58l56 -75l112 -150q31 -42 218 -187v-134q102 -34 183 -34q98 0 186 34v87q31 36 92 110q25 31 65 168q38 134 38 178l-12 135l200 343q38 65 38 93z" />
  </g>

</svg>
