<?xml version="1.0" standalone="no"?>
<!DOCTYPE svg PUBLIC "-//W3C//DTD SVG 1.1//EN" "http://www.w3.org/Graphics/SVG/1.1/DTD/svg11.dtd" >
<svg viewBox="0 -442 2048 2048">
  <g transform="matrix(1 0 0 -1 0 1606)">
   <path fill="currentColor"
d="M1766 1010q0 -104 -187 -104q-121 0 -391 -5q0 -86 -8 -115q-16 -59 -75 -81q0 -75 -17 -107q-24 -45 -95 -53q2 -13 2 -25q0 -54 -56 -79q-51 -23 -213 -23q-127 0 -203 41t-146 146h-159q-46 99 -46 221q0 138 54 241h225q262 128 460 185l218 -119q345 -8 365 -8
q121 0 168 -11q104 -24 104 -104z" />
  </g>

</svg>
