<?xml version="1.0" standalone="no"?>
<!DOCTYPE svg PUBLIC "-//W3C//DTD SVG 1.1//EN" "http://www.w3.org/Graphics/SVG/1.1/DTD/svg11.dtd" >
<svg viewBox="0 -442 2048 2048">
  <g transform="matrix(1 0 0 -1 0 1606)">
   <path fill="currentColor"
d="M1766 722q0 -91 -32 -181l-180 20q-92 -50 -197 -82q-45 5 -123 19q-59 -51 -111 -51q-47 0 -89 46q-27 -16 -57 -16q-93 0 -130 90q-19 -3 -37 -3q-185 0 -185 126q0 116 182 116q22 0 58 -3q-44 25 -65 40l-306 -1q-185 0 -252 40q-70 42 -70 163l922 60l642 -197
q30 -76 30 -186z" />
  </g>

</svg>
