<?xml version="1.0" standalone="no"?>
<!DOCTYPE svg PUBLIC "-//W3C//DTD SVG 1.1//EN" "http://www.w3.org/Graphics/SVG/1.1/DTD/svg11.dtd" >
<svg viewBox="0 -442 2048 2048">
  <g transform="matrix(1 0 0 -1 0 1606)">
   <path fill="currentColor"
d="M1652 782l-144 -137q-23 -20 -72 -68q-19 -25 -61 -82l-123 -164q-42 -56 -195 -161v-143q-127 -52 -241 -52q-118 0 -228 52v110q-29 33 -87 100l-14 28q-55 115 -83 282q-9 53 -9 56l11 120l-191 332q-43 75 -43 120q0 39 26 67t65 28q56 0 112 -92l173 -285l-107 408
q-20 76 -20 105q0 111 98 111q84 0 121 -128l120 -419v478q0 156 112 156q111 0 111 -165q0 -10 -11 -489l125 372q55 164 135 164q92 0 92 -93q0 -51 -16 -113l-124 -482q10 -34 17 -105q32 18 89 38q82 138 201 138q53 0 161 -87zM1580 779q-48 40 -91 40q-97 0 -164 -127
q-176 -55 -296 -200l-38 30q60 90 164 146q-9 71 -26 130l126 471q20 75 20 105q0 59 -44 59q-42 0 -77 -103l-145 -430h-86q13 532 13 536q0 118 -63 118q-50 0 -60 -58q-2 -9 -2 -96v-500l-79 -14l-125 459q-33 123 -86 123q-52 0 -52 -63q0 -20 18 -85l134 -487l-73 -35
l-217 353q-42 68 -71 68q-40 0 -40 -45q0 -30 37 -93l200 -343l-12 -135q0 -44 38 -178q40 -137 65 -168q31 -37 92 -110v-87q88 -34 186 -34q81 0 183 34v134q187 145 218 187l112 150q16 24 56 75l62 58z" />
  </g>

</svg>
