<?xml version="1.0" standalone="no"?>
<!DOCTYPE svg PUBLIC "-//W3C//DTD SVG 1.1//EN" "http://www.w3.org/Graphics/SVG/1.1/DTD/svg11.dtd" >
<svg viewBox="0 -442 2048 2048">
  <g transform="matrix(1 0 0 -1 0 1606)">
   <path fill="currentColor"
d="M830 830q0 -47 -46 -89q16 -27 16 -57q0 -93 -90 -130q3 -19 3 -37q0 -185 -126 -185q-116 0 -116 182q0 22 3 58q-25 -44 -40 -65l1 -306q0 -185 -40 -252q-42 -70 -163 -70l-60 922l197 642q76 30 186 30q91 0 181 -32l-20 -180q50 -92 82 -197q-5 -45 -19 -123
q51 -59 51 -111zM780 829q0 23 -15 49l-32 -108q47 16 47 59zM751 688q0 22 -25 45l-27 -100l4 -20q48 23 48 75zM747 1048q-21 100 -82 203l17 155q-62 17 -127 17q-85 0 -146 -19l-187 -609l57 -864q76 13 97 111q9 40 9 159v327q43 54 82 147q-40 110 -55 221l48 21
q31 -170 80 -287q-18 -58 -18 -113q0 -131 68 -131q76 0 76 127q0 60 -20 113q56 186 101 422z" />
  </g>

</svg>
