<?xml version="1.0" standalone="no"?>
<!DOCTYPE svg PUBLIC "-//W3C//DTD SVG 1.1//EN" "http://www.w3.org/Graphics/SVG/1.1/DTD/svg11.dtd" >
<svg viewBox="0 -442 2048 2048">
  <g transform="matrix(1 0 0 -1 0 1606)">
   <path fill="currentColor"
d="M952 1046q0 -52 -21 -118l16 -37l3 -53q0 -132 -101 -132q-12 0 -24 2q-16 -112 -111 -112q-21 0 -49 11q-24 -90 -103 -90q-57 0 -87 50q-4 -17 -8 -36l-4 -360q-3 -233 -107 -233q-76 0 -100 96q-9 38 -12 157l-10 409l-37 41l-25 275q55 190 129 338v225
q113 53 242 53q114 0 228 -48v-154q109 -100 161 -196q6 -10 14 -28q6 -24 6 -60zM900 844q0 5 -1 44l-77 164q-29 -22 -56 -65l59 -134v-97q75 0 75 88zM906 1063q0 10 -4 35q-68 116 -183 206v146q-93 31 -182 31q-94 0 -187 -35v-193q-47 -112 -127 -340l22 -253
l144 -157q39 44 39 100q0 86 -89 171q57 100 51 206l50 -2q1 -23 1 -35q0 -17 -3 -39q17 91 130 148l30 -70q21 66 115 121l28 -62q46 56 105 81l53 -125q7 51 7 66zM778 741q0 5 -2 95l-84 194q-53 -35 -64 -117l46 -104l-1 -146q24 -15 42 -15q63 0 63 93zM626 687l-1 106
l-77 190q-65 -38 -65 -114q0 -44 32 -90v-129q0 -82 46 -82q65 0 65 119zM464 765q-29 52 -29 104q0 15 1 23q-10 -55 -38 -108q46 -59 65 -109zM415 456q-9 -10 -25 -24l-106 116l9 -366q5 -195 64 -195q57 0 57 242q0 -1 1 227z" />
  </g>

</svg>
