<?xml version="1.0" standalone="no"?>
<!DOCTYPE svg PUBLIC "-//W3C//DTD SVG 1.1//EN" "http://www.w3.org/Graphics/SVG/1.1/DTD/svg11.dtd" >
<svg viewBox="0 -442 2048 2048">
  <g transform="matrix(1 0 0 -1 0 1606)">
   <path fill="currentColor"
d="M1766 722q0 -91 -32 -181l-180 20q-92 -50 -197 -82q-45 5 -123 19q-59 -51 -111 -51q-47 0 -89 46q-27 -16 -57 -16q-93 0 -130 90q-19 -3 -37 -3q-185 0 -185 126q0 116 182 116q22 0 58 -3q-44 25 -65 40l-306 -1q-185 0 -252 40q-70 42 -70 163l922 60l642 -197
q30 -76 30 -186zM1716 722q0 85 -19 146l-609 187l-864 -57q13 -76 111 -97q40 -9 159 -9h327q54 -43 147 -82q110 40 221 55l21 -48q-170 -31 -287 -80q-58 18 -113 18q-131 0 -131 -68q0 -76 127 -76q60 0 113 20q186 -56 422 -101q100 21 203 82l155 -17q17 62 17 127z
M1171 512l-108 32q16 -47 59 -47q23 0 49 15zM1026 551l-100 27l-20 -4q23 -48 75 -48q22 0 45 25z" />
  </g>

</svg>
