<?xml version="1.0" standalone="no"?>
<!DOCTYPE svg PUBLIC "-//W3C//DTD SVG 1.1//EN" "http://www.w3.org/Graphics/SVG/1.1/DTD/svg11.dtd" >
<svg viewBox="0 -442 2048 2048">
  <g transform="matrix(1 0 0 -1 0 1606)">
   <path fill="currentColor"
d="M1174 -318h-49v-74h-932v74h-65v1874h1046v-1874zM1142 -281v1811h-988v-1811h988zM1029 452h-762v999h762v-999zM1029 393h-148v29h148v-29zM1029 296q0 -31 -21.5 -52.5t-52.5 -21.5t-52.5 21.5t-21.5 52.5t21.5 52.5t52.5 21.5t52.5 -21.5t21.5 -52.5zM783 185h-505
v32h505v-32zM783 62h-505v32h505v-32zM783 -61h-505v32h505v-32zM783 -184h-505v32h505v-32zM1002 1213v219h-713v-219h713zM1002 1040v144h-713v-144h713zM1002 921v92h-713v-92h713zM1002 727v162h-713v-162h713zM1002 480v218h-713v-218h713zM950 1269h-127v36h127v-36z
M954 1321h-170v-22h-279v22h-173v55h622v-55zM475 1269h-49v30h49v-30z" />
  </g>

</svg>
