<?xml version="1.0" standalone="no"?>
<!DOCTYPE svg PUBLIC "-//W3C//DTD SVG 1.1//EN" "http://www.w3.org/Graphics/SVG/1.1/DTD/svg11.dtd" >
<svg viewBox="0 -442 2048 2048">
  <g transform="matrix(1 0 0 -1 0 1606)">
   <path fill="currentColor"
d="M1652 99q0 -41 -28.5 -70t-69.5 -29h-1185l-197 197v1185q0 41 29 69.5t70 28.5h1283q41 0 69.5 -28.5t28.5 -69.5v-1283zM1356 839v592h-888v-592q0 -49 49 -49l790 -1q49 0 49 50zM1603 98v1284q0 49 -49 49h-148v-592q0 -41 -29 -70t-70 -29h-790q-41 0 -69.5 29
t-28.5 70v592h-148q-50 0 -50 -49v-1165l168 -168h178v444q0 50 49 50h592q50 0 50 -50v-444h296q49 0 49 49zM863 49v444h-247v-444h247z" />
  </g>

</svg>
