<?xml version="1.0" standalone="no"?>
<!DOCTYPE svg PUBLIC "-//W3C//DTD SVG 1.1//EN" "http://www.w3.org/Graphics/SVG/1.1/DTD/svg11.dtd" >
<svg viewBox="0 -442 2048 2048">
  <g transform="matrix(1 0 0 -1 0 1606)">
   <path fill="currentColor"
d="M2036 254q0 -403 -264 -403q-37 0 -101 18q-78 21 -78 46q0 27 42 67q-65 52 -65 128q0 57 47 114q42 48 84 95l60 102q38 60 89 70q22 4 50 3q7 20 58 117q36 69 36 123q0 96 -67 153q-64 53 -162 52l149 -75q55 -28 55 -99q0 -69 -128 -138q-124 -67 -176 -121.5
t-129 -191.5q-74 -133 -131 -189q-401 -398 -1245 -411q-132 122 -132 297l-16 501q0 18 120 62l187 68l602 226q536 200 561 200q29 0 242 -109q25 5 50 5q103 0 172 -58q73 -62 73 -163q0 -83 -94 -249l59 -3q29 -15 37 -55q15 -72 15 -182zM1852 859l-102 54l-37 -17
l102 -54zM1731 921l-91 48l-35 -15l90 -48zM1795 834l-41 21l-38 -17l39 -21zM1624 978l-33 16l-36 -14l33 -17zM1736 867l-41 22l-39 -17l41 -21zM1677 897l-38 21l-38 -15l37 -22zM1555 1013l-31 16l-34 -13l30 -17zM1620 929l-34 17l-35 -13l32 -20zM1569 957l-31 17
l-36 -14l31 -17zM1676 841l-38 23l-41 -16l40 -24zM1502 993l-30 17l-35 -15l31 -16zM1737 807l-41 23l-100 -43l39 -26zM1620 875l-37 20l-37 -15l35 -23zM1565 905l-33 20l-37 -15l32 -20zM1515 934l-32 18l-36 -12l32 -20zM1616 816l-38 23l-39 -17l39 -23zM1450 973
l-28 16l-37 -12l29 -18zM2008 398q-4 48 -11 61q-13 22 -54 22h-16q-10 -1 -15 -1l-18 -52q30 -4 114 -30zM1560 849l-34 23l-38 -16l34 -22zM1509 884l-33 19l-39 -16l33 -19zM1459 912l-28 19l-40 -14l30 -19zM1397 952l-28 17l-38 -14l28 -17zM1900 479l-19 1
q-57 3 -95 -61q54 13 96 11zM1571 733l-37 27l-44 -20l37 -26zM1461 807l-34 25l-40 -18l32 -24zM1410 842l-30 22l-39 -18l29 -21zM1364 876l-29 19l-39 -16l28 -19zM1303 916l-27 19l-36 -14l25 -19zM1505 702l-36 28l-43 -18l36 -28zM1452 744l-36 26l-44 -18l35 -28z
M1400 782l-80 58l-42 -17l77 -59zM1304 850l-29 21l-39 -16l29 -20zM1208 933q-4 9 -16 9q-21 0 -21 -11q3 -8 17 -8q19 0 20 10zM1246 894l-27 19l-38 -14l26 -21zM1440 674l-36 27l-47 -20l36 -27zM2024 216q0 59 -12 161q-73 38 -147 38q-36 0 -86 -12q-11 -17 -32 -51
q-49 -57 -98 -113q-61 -71 -61 -131q0 -80 78 -127q65 -39 151 -39q207 0 207 274zM1101 894q-3 8 -16 8q-21 0 -21 -10q3 -9 15 -9q22 0 22 11zM1147 857l-26 19l-39 -16l22 -20zM1245 774l-30 23l-72 -29l25 -25zM1292 736l-32 26l-124 -50l29 -29zM1201 810l-26 22
l-104 -40l26 -24zM1342 694l-35 30l-161 -69l32 -30zM1087 833l-23 20l-43 -15l22 -22zM1322 622l-33 30l-71 -32l34 -37q23 13 70 39zM1147 735l-27 25l-43 -18l26 -26zM1076 759l-25 23l-45 -17l24 -24zM1023 808l-23 21l-41 -16l21 -21zM961 842q-3 8 -12 8
q-23 0 -23 -11q3 -8 12 -8q23 0 23 11zM1143 673l-29 29l-47 -20l29 -29zM1080 707l-26 25l-47 -17l26 -27zM1230 572l-36 38l-74 -32l40 -45zM1155 614l-32 31l-46 -20l29 -32zM909 823q-3 8 -16 8q-20 0 -20 -12q0 -10 16 -10q19 0 20 14zM1007 732l-22 25l-45 -17l22 -24
zM1072 642l-29 30l-46 -19l28 -29zM930 771l-22 23l-43 -17l20 -21zM1009 679l-22 26l-46 -19l21 -27zM855 803q-2 7 -14 7q-25 0 -25 -15q0 -6 10 -6q29 0 29 14zM1080 581l-28 34l-50 -21l28 -35zM939 707l-21 23l-46 -18l19 -25zM1136 519l-41 47l-78 -35l43 -56z
M1000 613l-26 31l-49 -20l27 -33zM863 746l-20 23l-45 -17l17 -24zM938 650l-23 27l-47 -20l22 -29zM1004 550l-27 34l-52 -23l26 -35zM868 677l-18 26l-48 -19l18 -26zM751 765q0 7 -14 7q-27 0 -27 -14q0 -9 15 -9q26 0 26 16zM795 719l-18 26l-45 -16l16 -27zM925 581
l-25 32l-50 -20l22 -35zM866 619l-23 29l-49 -20l20 -30zM795 647l-18 27l-47 -17l17 -29zM691 741q0 10 -18 10q-21 0 -21 -16q0 -8 15 -8q24 0 24 14zM926 515l-27 36l-51 -23l24 -36zM847 549l-22 32l-52 -21l21 -34zM694 680l-18 27l-46 -17l15 -27zM789 588l-18 30
l-51 -20l19 -31zM1939 774q0 39 -37 58l-357 -170q-148 -70 -456 -275q-316 -210 -478 -291q-273 -135 -496 -136q7 -98 68 -173q46 -2 84 -2q171 0 333 29q254 45 490 162q275 136 400 315q8 12 77 128q46 78 90 119q1 1 166 103q116 72 116 133zM630 721q0 7 -10 7
q-30 0 -30 -17q0 -8 12 -8q28 0 28 18zM723 617l-17 29l-50 -19l17 -30zM844 480l-22 36l-56 -22l23 -37zM769 516l-23 33l-53 -23l21 -35zM620 652l-17 27l-47 -19l15 -27zM569 697q0 9 -15 9q-26 0 -26 -16q0 -10 16 -10q25 0 25 17zM713 557l-19 31l-52 -21l16 -32z
M648 588l-18 30l-50 -21l16 -30zM761 444l-20 38l-57 -23l22 -39zM507 673q0 9 -13 9q-27 0 -27 -17q0 -9 13 -9q27 0 27 17zM546 624l-14 28l-49 -18l12 -29zM686 480l-20 36l-54 -22l19 -38zM1040 464l-49 57l-491 -214l38 -105q197 86 502 262zM634 523l-18 33l-53 -21
l16 -33zM570 557l-15 31l-53 -21l13 -32zM442 651q0 8 -10 8q-29 0 -29 -19q0 -7 10 -7q29 0 29 18zM675 405l-19 42l-57 -24l18 -42zM602 446l-18 36l-55 -24l15 -39zM551 491l-15 33l-52 -21l12 -35zM434 581l-13 29l-51 -20l10 -31zM489 525l-13 32l-55 -22l13 -33z
M378 628q0 6 -10 6q-31 0 -31 -17q0 -9 14 -9q27 0 27 20zM587 367l-17 42l-59 -25l16 -41zM467 455l-13 35l-55 -22l10 -35zM516 410l-16 36l-58 -22l13 -41zM354 550l-9 30l-54 -20l9 -31zM405 490l-10 34l-55 -21l8 -35zM494 327l-14 45l-61 -27l12 -44zM379 420l-11 37
l-56 -25l10 -37zM426 372l-13 39l-61 -24l13 -42zM272 519l-6 32l-54 -22l6 -33zM319 456l-8 36l-55 -22l5 -36zM182 554q0 8 -11 8q-35 0 -35 -21q0 -7 11 -7q35 0 35 20zM401 287l-14 45l-63 -26l11 -47zM505 186l-34 107l-98 -43l23 -107q30 10 109 43zM290 383l-8 38
l-60 -24l6 -39zM333 331l-12 43l-61 -26l8 -44zM232 423l-6 34l-57 -22l3 -38zM132 463l-4 35l-56 -22l2 -35zM141 386l-3 38l-63 -25l5 -38zM196 345l-5 39l-109 -43l2 -42zM363 134l-22 102l-100 -43l10 -92q40 10 112 33zM237 291l-9 44l-139 -59l4 -47zM302 245l-8 48
l-202 -86l5 -52zM217 93l-10 83l-107 -45l5 -56q37 5 112 18zM1997 182q-1 -80 -47 -144q-51 -71 -127 -71q-41 0 -78 16q49 109 51 202l133 -117q31 41 68 114z" />
  </g>

</svg>
