<?xml version="1.0" standalone="no"?>
<!DOCTYPE svg PUBLIC "-//W3C//DTD SVG 1.1//EN" "http://www.w3.org/Graphics/SVG/1.1/DTD/svg11.dtd" >
<svg viewBox="0 -442 2146 2048">
  <g transform="matrix(1 0 0 -1 0 1606)">
   <path fill="currentColor"
d="M2146 0h-1974v1480h1086l98 -197h395l99 197h296v-1480zM2096 50v1380h-215l-99 -197h-457l-98 197h-1005v-1380h197v296h1480v-296h197zM1849 50v246h-1380v-246h1380zM1800 830q0 -102 -72 -174t-174 -72t-174 72t-72 174q0 83 50 148.5t128 87.5l-565 72
q85 -43 137 -126t52 -182q0 -143 -101.5 -244.5t-244.5 -101.5t-244.5 101.5t-101.5 244.5t101.5 244.5t244.5 101.5q19 0 61 -5l748 -96q96 -12 161.5 -81t65.5 -164zM1675 830q0 50 -35.5 85.5t-85.5 35.5t-85.5 -35.5t-35.5 -85.5t35.5 -85.5t85.5 -35.5t85.5 35.5
t35.5 85.5zM885 830q0 50 -35.5 85.5t-85.5 35.5t-85.5 -35.5t-35.5 -85.5t35.5 -85.5t85.5 -35.5t85.5 35.5t35.5 85.5z" />
  </g>

</svg>
