<?xml version="1.0" standalone="no"?>
<!DOCTYPE svg PUBLIC "-//W3C//DTD SVG 1.1//EN" "http://www.w3.org/Graphics/SVG/1.1/DTD/svg11.dtd" >
<svg viewBox="0 -442 2048 2048">
  <g transform="matrix(1 0 0 -1 0 1606)">
   <path fill="currentColor"
d="M1760 1011q0 -111 -101 -214h99v-757h-50v-40h-1374v40h-46v757h203q163 136 163 324q0 146 -100 208h1011q80 -31 139 -132q56 -96 56 -186zM1734 1020q0 78 -52.5 168t-121.5 121h-944q63 -66 63 -190q0 -180 -140 -322h1083q112 97 112 223zM1728 286v481h-1410v-481
h1410zM1728 53v207h-323v-43h-852v43h-235v-207h1410zM1712 347h-709v395h709v-395zM1686 373v343h-657v-343h657zM1639 585h-31v101h31v-101zM1622 467h-150v34h150v-34zM1622 401h-150v35h150v-35zM1563 578h-501v108h501v-108zM1437 467h-149v34h149v-34zM1437 401h-149
v35h149v-35zM1253 467h-149v34h149v-34zM1253 401h-149v35h149v-35z" />
  </g>

</svg>
