<?xml version="1.0" standalone="no"?>
<!DOCTYPE svg PUBLIC "-//W3C//DTD SVG 1.1//EN" "http://www.w3.org/Graphics/SVG/1.1/DTD/svg11.dtd" >
<svg viewBox="0 -442 2048 2048">
  <g transform="matrix(1 0 0 -1 0 1606)">
   <path fill="currentColor"
d="M1287 775h-527v79l43 63v28h-43v414h527v-414h-53v-28l53 -63v-79zM1878 -32h-527v79l43 63v28h-43v414h527v-414h-53v-28l53 -63v-79zM1292 459h-103l36 38l-125 125l-40 -36v103h107l-36 -35l126 -125l35 35v-105zM988 584l-40 36l-125 -125l35 -36h-103v103l36 -36
l125 126l-36 37h108v-105zM1193 305l-77 -71v50h-177v-51l-83 72l83 74v-50h177v50zM697 -32h-527v79l43 63v28h-43v414h527v-414h-53v-28l53 -63v-79zM1235 1034v273q0 17 -16 17h-390q-17 0 -17 -17v-273q0 -17 17 -17h390q16 0 16 17zM1826 227v273q0 17 -16 17h-390
q-17 0 -17 -17v-273q0 -17 17 -17h390q16 0 16 17zM645 227v273q0 17 -16 17h-390q-17 0 -17 -17v-273q0 -17 17 -17h390q16 0 16 17z" />
  </g>

</svg>
