<?xml version="1.0" standalone="no"?>
<!DOCTYPE svg PUBLIC "-//W3C//DTD SVG 1.1//EN" "http://www.w3.org/Graphics/SVG/1.1/DTD/svg11.dtd" >
<svg viewBox="0 -442 2048 2048">
  <g transform="matrix(1 0 0 -1 0 1606)">
   <path fill="currentColor"
d="M1458 -224h-1286v1758h891l395 -405v-1353zM1389 1128l-326 334v-334h326zM1408 -174v1252h-395v406h-791v-1658h1186zM1261 630h-248v50h248v-50zM898 630h-529v722h529v-722zM1261 406h-892v50h892v-50zM1261 182h-892v50h892v-50zM1261 -42h-892v50h892v-50zM868 660
v662h-469v-662h469zM860 1158q-14 0 -26.5 -19.5t-32.5 -19.5q-33 0 -54 8v3q19 -8 46 -8q22 0 30 8q1 1 15 26h-15q-10 0 -23 -6.5t-23 -6.5q-3 0 -10 1h-9q-6 -1 -13 -4l-1 5h33q16 0 23 10q-39 2 -58 7l-1 8h86q-6 6 -16 20q-2 -7 -9 -16l-11 11q0 4 2 7q-1 3 -4 9
q1 -5 -8 -5q-4 0 -4 1q1 4 1 9q0 3 -1 10v9q-3 -6 -10 -16q-3 4 -8 13l-3 -12l-8 9q-3 -4 -10 -10q-5 13 -7 22l1 4q3 -7 7 -20q6 6 10 8l4 -5q1 4 4 13q3 -5 11 -15q1 7 10 17q5 -18 4 -34q1 4 4 11l2 -1q12 -16 6 -23q3 -3 9 -7q1 7 8 16q15 -19 17 -20q9 -1 19 -3
q5 -1 12 -3l-2 -2l-113 -1q7 -3 20 -6q24 -2 42 -2q8 0 24 1t24 1zM860 1031l-67 -8q-2 6 -4 18q-4 2 -13 6l-5 7q9 1 27 2l3 6q-1 1 -45 8l-3 5q51 -6 51 -13q0 -9 -9.5 -10t-18.5 -2q18 0 19 -22l59 5q-18 2 -48 12q8 2 39 32q-36 6 -93 1l-1 3q36 2 58 2h15q23 0 36 -4
v-3q-3 1 -7 1t-35 -32l42 -9v-5zM860 986q-49 23 -58 31h58v-4h-43q14 -9 43 -24v-3zM632 1179h-3l-3 3h1zM761 1028q-9 -1 -23 -6l-2 -4q-11 -4 -27 -13h-1q-6 -3 -19 -9h-4l-4 3l5 6l-3 4l1 3q1 0 2 1l-4 2q0 1 6 11l-2 8l2 15l-3 7l-2 -1l2 7l-3 -2q0 5 -1 7h-1l-3 6
l-4 1q-1 5 -5 3q0 2 -1 3l-3 -2h-1l-6 -4h-2l-1 -2q3 0 -6 1l-3 -3l-4 1q-1 0 -3 -1h-1q-1 3 -6 3q-6 5 -20 13l-2 -3l4 -20q-14 -7 -34 -7q-10 0 -29 17q-1 2 -7 12.5t-6 49.5q0 9 5 21.5t3 25.5l7 13q0 3 -1 8t-1 8q0 20 17 30h1l-4 -31q3 -13 6 -13t8 1.5t8 1.5
q7 0 10 -11q-9 7 -14 7q-1 0 -3.5 -1t-2.5 -2q1 0 4 1h5q6 0 9 -6q-3 -3 -9 -3q-4 0 -6 5l-7 -5v-3q-1 0 -5 6q-3 0 -3 -12q0 -20 13 -46q14 -30 31 -30q34 0 43 28l2 2v2q1 3 3 10l1 1h-2l-1 4l3 7l2 -1q1 5 5 16t4 18q0 8 -4 8q-5 0 -13.5 -7.5t-14.5 -7.5q2 1 7 5l-1 1
q-32 0 -20 4q0 4 13 5l2 1l-5 2q-10 0 -12 -8l-4 -14l-5 -2q-3 0 -3 7q0 20 14 25q7 -9 24 -2l1 -1l2 1l6 -3q3 1 8 2q3 8 3 13q0 1 -1 6q-3 1 -8 4l-2 2v3q-5 3 -8 15q-8 10 -23.5 12.5t-18.5 5.5q3 4 3 13v1q-2 -1 -6 -12l-38 -21q-1 17 24 31.5t44 14.5q53 0 74 -41
q11 -23 18 -87q1 -7 5 -25.5t4 -28.5q0 -5 1 -9q-1 -4 -1 -11q0 -13 14 -34t14 -27zM614 1170l-1 -2h-3v2h4zM589 1182l-3 -3h-3l5 3h1zM620 1148q0 -9 -11 -13q-2 1 -8 3v1q-3 3 -10 9v2h1l6 -3q6 0 20 6zM627 1131q-9 -4 -12 -4l-14 2v1q9 3 25 7l1 -2v-4zM621 1121l-1 -1
l-2 1q-1 0 -3 -1.5t-4 -1.5q-1 0 -10 2v1l1 2q5 1 16 4l3 -5v-1zM600 1130q-1 -1 -4 -1h-2q-3 0 -7 2v1l2 1q7 0 11 -3zM678 970h-2l2 1v-1zM673 969l-5 -3q2 3 3 5h1zM527 1188q-2 -5 -9 -15q-2 3 -6 10q-1 -3 -5 -7q-3 5 -3 9q-3 -1 -7 -1t-7 6q0 -5 -4 -7q-4 6 -7 12
q-2 -13 -10 -31q-1 3 -5 7q-1 -3 -5 -7l-9 17q-1 -9 -9 -21q15 -3 37 -24q-9 -9 -24 -12q1 0 4 -1t4 -1q4 0 12 3t12 3q2 0 14 -7t22 -6v-3q-11 0 -18 -2q10 -2 19 -4l1 -5q-13 2 -34 12q5 1 18 1q-9 3 -22 11q-4 0 -12 -3t-12 -3q-11 0 -14 6q9 3 27 12q-22 20 -47 20
q1 0 -11 6l-6 -6q-4 0 -5 1v4h5q2 3 5 5q7 -7 12 -7q2 0 15 6q1 7 4 22q5 -2 12 -17q2 2 7 6l3 -5q2 11 10 27q5 -5 7 -10q1 3 6 8q2 -1 5 -10l7 4v13h-4q-3 0 -7.5 -2t-6.5 -2q-4 0 -2 1q-2 16 -13 20q-7 -14 -23 -14q-1 0 -12 19q-5 -9 -15 -23q-4 6 -7 12q-3 -1 -8 -5v4
q2 2 9 5q2 -4 8 -9q4 8 13 21q1 -2 9 -21h6q9 0 15 7.5t7 7.5q1 -2 4 -4q2 -1 2 1h2q2 0 6 -17q6 2 17 5q4 -4 4 -26v-3q2 3 5 7q3 -3 6 -8q1 6 7 15zM667 965l-2 -2v3h1zM538 1057l-2 -2l-2 4q-2 -4 -7 -12l-6 8q-2 -4 -6 -10l-4 6q-27 -27 -27 -29q0 -7 14 -17l-2 -2
q-15 10 -15 19q0 8 12.5 19t14.5 16q-8 -4 -9 -4l-10 8q0 -7 -5 -17q-2 3 -5 10l-4 -4q-2 4 -6 16q0 -3 -4 -19q-7 2 -12 5q1 -4 1 -10v-7q-11 -3 -11 -11q0 -14 18 -21l28 -12l-3 -4q-14 7 -28 13q-17 9 -17 24q0 1 4 13l-16 5q0 -4 -1 -11h-22v3q6 2 20 0v5q0 4 1 8
q8 -3 23 -9v7q0 10 -3 16q-10 1 -23 8q21 4 64 11q-9 1 -19 7q20 4 43 4q-4 2 -9 7h5q-14 -1 17 -1v-1h-13q5 -1 10 -6q-16 -4 -35 -4q6 -1 7 -5q-8 -2 -25 -9l5 -13q1 1 4 1q5 0 5 -9q1 5 6 15l10 -11q3 3 9 7q4 -4 7 -11q3 9 7 11q3 -3 4 -8q2 4 8 10q2 -2 4 -7zM857 742
q0 -9 -1 -22q-73 -50 -170 -50q-57 0 -63 45q-12 10 -16 10q-1 0 -3.5 -1.5t-3.5 -1.5q-6 0 -21 5q-36 -18 -44 -42l-6 2q-5 30 -2 36q-8 -9 -13 -9q-16 0 -10 26h-3q-92 -4 -92 57q0 72 129 236q4 5 24 22q11 -7 21 -10q-1 -1 -12 -22q0 -5 -2 -13h-3q-1 2 -2 3
q-5 -4 -7.5 -6.5t-6.5 -14.5q19 -32 96 -32q4 0 8 3h1v-2h1l5 2h2q-1 -2 -10 -10q18 7 27 18l-1 1l8 5h1l5 4v-2h1l2 2h3l2 2h3q1 1 63 21v1q-4 1 -14 2l-1 2q9 -1 15 3h-26h-2q7 8 26 8q50 0 74 -93q18 -65 18 -139v-46zM479 976l-3 -5q-23 -3 -70 -11v3q25 4 73 13z
M468 959l-3 -6q-4 -1 -11 -3l8 -2l-2 -4q-8 2 -12 7q7 6 20 8zM452 932l-2 -3q-16 2 -44 15v8q0 -11 46 -20zM425 923l-1 -1q-3 -5 -5 -18l5 1q-3 -7 -11 -20h11l-1 -3q-5 0 -14 1q5 11 10 17q0 8 -2 24q-8 2 -11 15q10 -14 10 -9h1q2 0 3 -3t3 -3t2 -1zM466 1064q0 4 -2 9
q-10 -1 -29 -5q5 -1 15 -5q1 -3 3.5 -6t9.5 -6q3 7 3 13zM672 745q-52 73 -123 73q-26 0 -26 -33q0 -6 2 -10h11l-1 6l1 1l28 -34q19 -23 35 -23l4 2l-12 12h2q32 -22 41 -22v1q0 9 -30 33q17 -14 55 -31q1 1 1 3q0 11 -44 45v3l1 1h4q20 -13 49 -28zM542 768l-16 2l4 -8z
M576 731q-31 17 -29 34q-41 -18 -41 -38l3 -4q3 26 26 26q-5 -6 -11 -11q-9 -10 -9 -21q7 7 23 20v-1q0 -5 -5 -13.5t-5 -13.5q5 5 16 14v-1q0 -4 -6.5 -10t-6.5 -10q0 -6 2 -12q0 20 43 41z" />
  </g>

</svg>
