<?xml version="1.0" standalone="no"?>
<!DOCTYPE svg PUBLIC "-//W3C//DTD SVG 1.1//EN" "http://www.w3.org/Graphics/SVG/1.1/DTD/svg11.dtd" >
<svg viewBox="0 -442 2048 2048">
  <g transform="matrix(1 0 0 -1 0 1606)">
   <path fill="currentColor"
d="M1997 134q0 -89 -86 -118q-48 -16 -162 -16h-589q-119 0 -163 17q-75 29 -75 127q0 52 11 128l99 684q22 150 71 190q46 38 200 38h101q0 235 -221 235q-233 0 -358 -337l-17 -46q-146 -394 -425 -394q-108 0 -206 80q-103 85 -103 191q0 49 46 49q31 0 64 -78
q60 -144 200 -144q124 0 210 111q42 55 117 221l37 82q164 364 439 364q316 0 316 -334h100q166 0 208 -33q47 -37 71 -196l102 -683q13 -87 13 -138zM1946 152q0 29 -11 105l-103 709q-17 119 -51 145q-30 24 -154 24h-335q-123 0 -154 -25q-34 -26 -51 -144l-103 -709
q-11 -76 -11 -105q0 -70 56 -91q31 -12 118 -12h625q88 0 119 11q55 21 55 92zM1718 642h-123v394h123v-394zM1521 642h-124v394h124v-394zM1323 642h-123v394h123v-394z" />
  </g>

</svg>
