<?xml version="1.0" standalone="no"?>
<!DOCTYPE svg PUBLIC "-//W3C//DTD SVG 1.1//EN" "http://www.w3.org/Graphics/SVG/1.1/DTD/svg11.dtd" >
<svg viewBox="0 -442 2048 2048">
  <g transform="matrix(1 0 0 -1 0 1606)">
   <path fill="currentColor"
d="M1458 -224h-1286v1758h891l395 -399v-1359zM1389 1134l-326 329v-329h326zM1408 -174v1258h-1186v-1258h1186zM1259 803h-18q-12 0 -25 -25q-15 -29 -21 -33q-26 -18 -78 -18q-41 0 -79 15l-1 7q9 -4 25 -10q23 -6 55 -6q33 0 56 10q9 2 20 8q8 18 24 49h-24
q-37 0 -52 -13.5t-45 -13.5q-4 0 -19 1t-18 1q-6 0 -25 -8l-2 10q11 4 27 4q4 0 19 -1.5t18 -1.5q31 0 45 19q-79 4 -113 13l-2 17h168q-21 22 -30 39q-10 -28 -19 -31q-14 14 -21 22q-1 6 3 13q-3 6 -7 18q1 -11 -15 -11q-6 0 -8 2q-1 -6 -1 55q-11 -22 -20 -31
q-4 9 -14 26q-2 -9 -6 -23l-17 17q-7 -9 -19 -20q-11 27 -14 43q0 7 2 8q11 -27 14 -40q13 14 20 17q8 -8 8 -11q2 9 8 26q8 -12 21 -29q3 15 19 34q10 -39 8 -68q3 9 8 23q3 0 4 -3q16 -22 16 -33q0 -6 -5 -11q6 -6 19 -15q3 14 16 31q12 -18 37 -42q20 -2 56 -9
q0 -3 -3 -3l-222 -3q14 -5 38 -11q46 -3 84 -3q45 0 81 3q21 2 24 -4zM1259 554l-132 -15q-2 7 -1 7q-6 17 -7 27q-8 5 -24 13l-11 13q2 0 25 2q19 2 28 2q0 6 6 12q-15 10 -42 13q-23 1 -46 3l-6 10q33 -4 84 -11q16 -2 16 -15q0 -17 -18 -19l-36 -4q34 0 37 -43l116 9
q-36 3 -94 23q23 7 41 26t34 37q-40 7 -93 7q-35 0 -89 -5l-1 6q68 4 90 4q97 0 123 -8v-6q-1 0 -5 1.5t-8 1.5q-6 0 -69 -64l82 -18v-9zM1259 465q-41 22 -103 54l-10 7h113v-7h-85q30 -18 85 -47v-7zM812 845h-6q-3 1 -6 5l2 1q4 -1 10 -6zM1065 548q-20 -3 -46 -11
q-1 -3 -3 -8q-22 -9 -52 -26l-2 1q-13 -6 -39 -19l-8 1l-6 6l8 12l-4 7l1 5l2 1l1 2q-1 3 -6 3q2 7 11 23q-2 5 -5 14l4 31q-3 4 -5 13l-4 -2q1 3 3 13l-5 -4v8q0 1 -1 6h-3q-1 4 -6 12l-7 2q-2 10 -11 7l1 4l-2 1l-7 -4l-2 1q-4 -2 -10 -8l-5 -1l-2 -3l-3 -1l-7 3h-2l-2 -3
q-5 0 -4 -3l-8 2l-6 -3h-2q0 5 -11 7q-4 3 -40 24l-3 -5l8 -40q-19 -10 -39 -10q-5 0 -14 -1.5t-13 -1.5q-21 0 -58 33q-1 5 -12 22q-14 23 -14 100q0 18 10 39.5t10 28.5l-3 25l12 21v4q0 6 -1 16t-1 15q0 15 7 21t8 12.5t18 25.5h2l-8 -60q1 -8 1.5 -17t9.5 -9q5 0 16 2.5
t16 2.5q13 0 20 -21q-18 14 -28 14q-2 0 -10 -3l-2 -2v-2q3 0 8.5 1t8.5 1q12 0 18 -12l-2 -2q-6 -3 -16 -3q-5 0 -7.5 4.5t-3.5 4.5q-4 -3 -13 -9l-1 -5l-2 1q-4 9 -8 9q-6 0 -6 -23q0 -3 6 -28q12 -49 18 -63q10 -22 41 -52q6 -6 21 -6q19 0 50 19t36 36l4 4v4q5 11 5 20
l2 1v1h-4l-2 8l6 13l3 -2q1 10 10 31t9 36q0 16 -9 16t-26 -15t-23 -15q-1 0 -6 1q5 3 14 10l-1 1q-18 0 -24.5 5t-14.5 2v1q0 9 25 10l4 2q-2 3 -10 3q-20 0 -24 -14.5t-8 -27.5l-9 -4q-7 0 -7 13q0 39 28 49q5 -7 36 -7q9 0 11 4l2 -3l5 2q3 0 6 -2.5t5 -2.5q3 0 8 1.5
t8 1.5q5 13 5 25q0 9 -2 13q-5 3 -15 8l-3 3l-1 6q-8 5 -15 30q-17 19 -47.5 25t-35.5 11q6 9 6 24q0 1 -1 3q-2 -2 -11 -24q-1 -1 -74 -41q-1 11 22 38q44 52 111 52q110 0 156 -103q12 -27 25 -149q1 -14 10 -52q8 -33 8 -53q0 -10 2 -18q-3 -12 -3 -21q0 -25 27 -67
t28 -53zM776 826l-2 -3h-5v3h7zM727 850q0 -2 -6 -5h-6q1 2 10 6zM789 783q0 -15 -23 -24q-5 3 -14 4l-1 3q-6 6 -19 18v3h2q2 0 5.5 -3t6.5 -3q2 0 15 7q8 1 23 6q4 -4 5 -11zM803 758l-1 -7q-18 -8 -24 -8q1 0 -27 4v2q31 12 50 12zM790 730l-2 -1q-1 1 -3 1
q-3 0 -6.5 -2.5t-8.5 -2.5t-18 3l-1 2l2 4q11 2 31 8l6 -10v-2zM749 748q-3 0 -8 -1h-3q-9 0 -15 3v3l5 2q10 0 21 -7zM902 434h-4l4 3v-3zM893 433q0 -4 -11 -7q5 5 7 11h2zM606 861q-5 -11 -17 -29q-5 7 -12 20q-3 -6 -11 -14q-5 9 -5 19q-1 0 -5.5 -1t-8.5 -1
q-2 0 -13 11q0 -10 -8 -14q-10 15 -14 23q-5 -26 -20 -60q-4 9 -9 14q-3 -6 -11 -14l-17 34q-3 -13 -8 -32q-5 -4 -10 -10q20 -7 40 -15q26 -11 33 -32q-16 -16 -48 -23q3 0 8.5 -2t8.5 -2t23.5 5.5t23.5 5.5t23.5 -11t29.5 -14q4 -1 17 0l1 -7q-12 0 -36 -3q20 -3 38 -8
l2 -10q-26 4 -68 23q15 4 35 3q-8 3 -24 12t-18 9q-4 0 -23.5 -5.5t-23.5 -5.5q-23 0 -28 12q24 8 54 23q-8 9 -21 21q-49 21 -59 21q-4 0 -7.5 -1.5t-6.5 -1.5q1 0 -21 11q-11 -11 -12 -11q-4 0 -6 1t-3 1v7h10q6 12 10 11q14 -14 22 -14q5 0 30 12q2 15 9 42q9 -4 22 -32
q4 5 14 12q5 -5 6 -10q5 21 20 52q10 -10 14 -20q3 7 11 17q4 -4 11 -20q5 2 13 7v27q-9 2 -21 -3t-14 -5q-7 0 -5 2q-2 15 -24 38q-4 -9 -14 -20q-13 -6 -32 -6q-12 0 -15 11q-7 23 -9 26q-9 -19 -29 -45q-8 12 -13 22q-7 -4 -16 -9v7q7 6 18 11q5 -7 15 -17q7 14 25 40
q6 -7 19 -40h11q17 0 26 9q6 8 17 19q8 -8 10 -8q4 0 3 1.5t3 1.5t12 -34q12 4 32 11q9 -10 9 -29l-1 -28q7 13 11 12q5 -6 12 -15q3 12 14 30zM880 424l-4 -3v3l1 2h2zM627 606q-1 -2 -4 -4q-3 3 -3 6q-4 -9 -14 -23q-5 9 -11 17q-4 -9 -12 -20q-3 5 -9 12q-52 -52 -52 -57
q0 -14 28 -33l-4 -5q-30 21 -30 38q0 16 22 35q26 22 31 33q-16 -8 -18 -8l-20 15q-1 -13 -10 -32q-9 22 -9 19l-8 -8q-5 10 -12 31q0 -9 -7 -37q-14 3 -25 11q1 -5 2 -34q-20 -6 -20 -22q0 -28 35 -42q27 -12 54 -23l-5 -7l-54 24q-35 18 -35 48q0 1 8 25q-11 4 -31 11
q0 -20 -2 -22h-43v6q6 2 15 2t24 -2q-1 16 2 25q14 -6 46 -17v13q0 18 -7 31q-20 3 -44 17q43 7 125 21q-17 1 -37 13q40 8 83 8q-8 4 -18 14q-3 -1 45 -1v-3h-27q9 -3 20 -11q-38 -8 -68 -9q12 -2 14 -9q-8 -10 -25 -13q-22 -3 -24 -4l9 -27q1 0 2.5 1.5t5.5 1.5
q11 0 10 -17q2 9 12 28l19 -20l2 2q8 7 15 10q12 -12 15 -20q5 16 14 20q9 -9 8 -14q4 8 14 19l3 -2zM1254 52q0 -68 -3 -107q-144 -99 -333 -99q-112 0 -124 89q-23 18 -32 18q-3 0 -6.5 -3t-6.5 -3q-9 0 -40 10q-86 -42 -86 -74q0 -5 -1 -7l-12 3q-8 53 -8 50q0 11 5 21
q-16 -17 -27 -17q-22 0 -22 28q0 10 3 23q-10 -1 -20 -1q-166 0 -166 113q0 61 51 148q62 108 201 314q4 5 48 43q22 -15 41 -20q-3 -2 -24 -42q-1 -11 -4 -27l-6 1l-1 4l-3 1l-10 -7l-5 -5l-5 -9q-3 -7 -7 -20q5 -9 17 -25q16 -15 82 -28q56 -10 90 -10q7 0 15 6h3v-4h2
l9 4h4q-7 -6 -20 -18h1l12 5q19 12 41 29l-2 2l14 11q1 0 3 -1q5 0 10 8l-1 -4h2l5 3h5l4 4l6 1q3 2 124 42l-1 1q-2 1 -27 3l-2 5l7 -1q8 1 22 6q-7 4 -17 4q-5 0 -16 -1.5t-17 -1.5h-4q15 16 51 16q69 0 115 -99q66 -143 66 -382zM512 446l-6 -9q-24 -2 -63 -6
q-20 -3 -74 -16v6q24 11 72 17q70 8 71 8zM491 412l-7 -11q-8 -2 -22 -6l16 -4l-4 -7q-16 4 -23 13q13 10 40 15zM459 359l-3 -5q-34 5 -47 8q-25 7 -40 22v16q0 -23 90 -41zM405 268l-3 -6q-10 0 -28 2q10 19 20 33q-3 48 -3 47q-20 5 -21 19l-1 10q19 -20 17 -20
q4 0 2.5 1t2.5 1q3 0 5 -5.5t7 -5.5q2 0 2 -4q-6 -11 -10 -35q6 5 10 1q-7 -13 -22 -38h22zM484 603q2 22 -2 33q-17 -2 -57 -10q21 -5 31 -9q2 -5 4 -13q8 -3 21 -10q0 4 3 9zM890 -6q-54 76 -144 119q-50 24 -96 24q-51 0 -51 -65q0 -13 3 -20h22l-2 11l2 3q8 -6 22 -19
q4 -10 13.5 -28t40.5 -42t48 -24q5 1 7 4q-16 14 -23 25h3q65 -44 77 -44q1 0 3 1l1 1q-1 18 -59 64q18 -1 53.5 -28.5t54.5 -30.5q1 1 1 4q0 24 -86 90v5l2 2h8q41 -26 97 -54zM636 39l-31 4l6 -16zM703 -34q-60 34 -57 66q-81 -35 -81 -74q0 -6 5 -8q1 12 18.5 31.5
t28.5 19.5q1 0 5 -1q-11 -10 -21 -20q-19 -19 -19 -41q15 13 46 39v-3q0 -9 -10 -25.5t-10 -27.5q9 11 31 28q1 -1 1 -3q0 -8 -13 -20t-13 -18q0 -15 3 -24q0 39 86 81z" />
  </g>

</svg>
