<?xml version="1.0" standalone="no"?>
<!DOCTYPE svg PUBLIC "-//W3C//DTD SVG 1.1//EN" "http://www.w3.org/Graphics/SVG/1.1/DTD/svg11.dtd" >
<svg viewBox="0 -442 2048 2048">
  <g transform="matrix(1 0 0 -1 0 1606)">
   <path fill="currentColor"
d="M1653 148q0 -99 -24.5 -123.5t-123.5 -24.5h-1184q-99 0 -123.5 24.5t-24.5 123.5v395q0 104 22 126t126 22h148v789h888v-789h148q104 0 126 -22t22 -126v-395zM1308 691v740h-790v-740h790zM1604 148v395q0 69 -15 84t-84 15h-1184q-69 0 -84 -15t-15 -84v-395
q0 -64 17.5 -81.5t81.5 -17.5h1184q64 0 81.5 17.5t17.5 81.5zM1184 1234h-542v49h542v-49zM1184 1036h-542v50h542v-50zM1184 839h-542v49h542v-49zM1431 325q0 -74 -74 -74h-888q-74 0 -74 74v40q0 46 14 60t60 14h888q46 0 60 -14t14 -60v-40z" />
  </g>

</svg>
