<?xml version="1.0" standalone="no"?>
<!DOCTYPE svg PUBLIC "-//W3C//DTD SVG 1.1//EN" "http://www.w3.org/Graphics/SVG/1.1/DTD/svg11.dtd" >
<svg viewBox="0 -442 2048 2048">
  <g transform="matrix(1 0 0 -1 0 1606)">
   <path fill="currentColor"
d="M2036 197q0 -141 -28.5 -169t-169.5 -28h-691q-139 0 -168 29t-29 168v166q-107 -129 -252 -129q-122 0 -196 86q-70 81 -70 205q0 90 14 174l14 84q21 126 21 185q0 67 -45.5 111t-112.5 44q-70 0 -163 -70q-23 -17 -43 -17q-43 0 -43 40q0 60 99 107q84 39 152 39
q111 0 183 -73t72 -185q0 -66 -14 -154l-16 -100q-20 -125 -20 -181q0 -80 42 -135q46 -61 124 -61q160 0 254 210q17 147 50 228q43 101 140 184q154 131 353 131q226 0 384.5 -158.5t158.5 -384.5v-346zM1986 592q-17 137 -113 267l-36 -38q79 -101 97 -229h52zM1986 197
v346h-97q-7 155 -121 280l69 71q-162 142 -347 142q-136 0 -281 -91l58 -82q-154 -124 -165 -320h-103v-346q0 -103 22.5 -125.5t125.5 -22.5h691q111 0 129.5 18.5t18.5 129.5zM1198 872l-29 40q-138 -128 -170 -320h54q25 164 145 280zM1789 543q0 -123 -86.5 -209.5
t-209.5 -86.5q-124 0 -210 86t-86 210q0 123 86.5 209.5t209.5 86.5t209.5 -86.5t86.5 -209.5zM1740 543q0 103 -72 175t-175 72t-175 -72t-72 -175t72 -175t175 -72t175 72t72 175zM1665 543q0 -72 -50 -122.5t-122 -50.5t-122.5 50.5t-50.5 122.5t50.5 122.5t122.5 50.5
q71 0 121.5 -50.5t50.5 -122.5z" />
  </g>

</svg>
