<?xml version="1.0" standalone="no"?>
<!DOCTYPE svg PUBLIC "-//W3C//DTD SVG 1.1//EN" "http://www.w3.org/Graphics/SVG/1.1/DTD/svg11.dtd" >
<svg viewBox="0 -442 2048 2048">
  <g transform="matrix(1 0 0 -1 0 1606)">
   <path fill="currentColor"
d="M1458 -224h-1286v1758h891l395 -405v-1353zM1389 1128l-326 334v-334h326zM1408 -174v1252h-395v406h-791v-1658h1186zM866 1302h-497v50h497v-50zM866 1078h-497v50h497v-50zM1261 854h-892v50h892v-50zM1031 630h-662v50h662v-50zM1261 406h-892v50h892v-50zM1261 182
h-892v50h892v-50zM1261 -42h-892v50h892v-50z" />
  </g>

</svg>
