<?xml version="1.0" standalone="no"?>
<!DOCTYPE svg PUBLIC "-//W3C//DTD SVG 1.1//EN" "http://www.w3.org/Graphics/SVG/1.1/DTD/svg11.dtd" >
<svg viewBox="0 -442 2048 2048">
  <g transform="matrix(1 0 0 -1 0 1606)">
   <path fill="currentColor"
d="M1653 740q0 -309 -215.5 -524.5t-524.5 -215.5t-524.5 215.5t-215.5 524.5t215.5 524.5t524.5 215.5t524.5 -215.5t215.5 -524.5zM1604 740q0 288 -201.5 489.5t-489.5 201.5t-489.5 -201.5t-201.5 -489.5t201.5 -489.5t489.5 -201.5t489.5 201.5t201.5 489.5zM1135 740
q0 -93 -64.5 -157.5t-157.5 -64.5t-157.5 64.5t-64.5 157.5t64.5 157.5t157.5 64.5t157.5 -64.5t64.5 -157.5z" />
  </g>

</svg>
