<?xml version="1.0" standalone="no"?>
<!DOCTYPE svg PUBLIC "-//W3C//DTD SVG 1.1//EN" "http://www.w3.org/Graphics/SVG/1.1/DTD/svg11.dtd" >
<svg viewBox="0 -442 2048 2048">
  <g transform="matrix(1 0 0 -1 0 1606)">
   <path fill="currentColor"
d="M1629 518h-1333v962h1333v-962zM1752 0h-1579v114q0 99 52 207l71 148h1333l71 -148q52 -108 52 -207v-114zM1579 568v863h-1233v-863h1233zM1703 49v37q0 100 -46 200l-61 133h-1271l-63 -135q-40 -86 -40 -139v-96h1481zM1530 768q0 -100 -26.5 -125.5t-127.5 -25.5
h-827q-101 0 -127.5 25.5t-26.5 125.5v462q0 101 26 126.5t128 25.5h827q102 0 128 -25.5t26 -126.5v-462zM1512 210h-123v48h-125v-48h-122v48h-125v-48h-121v48h-126v-48h-121v48h-125v-48h-123v48h122v51h-122v49h123v-49h125v49h121v-49h126v49h121v-49h125v49h122v-49
h125v49h123v-49h-122v-51h122v-48zM1481 766v465q0 67 -19.5 84t-88.5 17h-824q-69 0 -87 -17t-18 -86v-460q0 -68 18 -85.5t87 -17.5h824q70 0 89 16.5t19 83.5zM1264 260v47h-122v-47h122zM1017 260v47h-121v-47h121zM770 260v47h-121v-47h121z" />
  </g>

</svg>
