<?xml version="1.0" standalone="no"?>
<!DOCTYPE svg PUBLIC "-//W3C//DTD SVG 1.1//EN" "http://www.w3.org/Graphics/SVG/1.1/DTD/svg11.dtd" >
<svg viewBox="0 -442 2048 2048">
  <g transform="matrix(1 0 0 -1 0 1606)">
   <path fill="currentColor"
d="M1823 -254h-154q-30 37 -119 59q-73 18 -138 18q-166 0 -287 -77h-203q-121 77 -288 77q-65 0 -138 -18q-89 -22 -119 -59h-154v188q88 76 88 266q0 112 -15 165q-15 49 -73 150v123q88 157 88 315q0 190 -88 266v188h154q31 -38 119 -60q69 -17 138 -17q167 0 288 77
h203q121 -77 287 -77q69 0 138 17q88 22 119 60h154v-188q-88 -76 -88 -266q0 -112 15 -165q14 -49 73 -150v-125q-61 -105 -74 -151q-14 -49 -14 -162q0 -190 88 -266v-188zM1564 392v784h-447v-784h447zM1092 664v512h-590v-512h590zM1564 -3v370h-447v-370h447zM1092 -3
v642h-283v-642h283zM784 -3v642h-282v-642h282z" />
  </g>

</svg>
