<?xml version="1.0" standalone="no"?>
<!DOCTYPE svg PUBLIC "-//W3C//DTD SVG 1.1//EN" "http://www.w3.org/Graphics/SVG/1.1/DTD/svg11.dtd" >
<svg viewBox="0 -442 2048 2048">
  <g transform="matrix(1 0 0 -1 0 1606)">
   <path fill="currentColor"
d="M1258 0h-1086v1534h691l395 -405v-1129zM1189 1128l-326 334v-334h326zM1208 50v1028h-395v406h-591v-1434h986zM666 1302h-297v50h297v-50zM666 1078h-297v50h297v-50zM1061 854h-692v50h692v-50zM1061 630h-692v50h692v-50zM1061 406h-692v50h692v-50zM1061 182h-692
v50h692v-50z" />
  </g>

</svg>
