<?xml version="1.0" standalone="no"?>
<!DOCTYPE svg PUBLIC "-//W3C//DTD SVG 1.1//EN" "http://www.w3.org/Graphics/SVG/1.1/DTD/svg11.dtd" >
<svg viewBox="0 -442 2582 2048">
  <g transform="matrix(1 0 0 -1 0 1606)">
   <path fill="currentColor"
d="M2581 1023q1 -10 -35 -81l-473 -942h-1900v1159q0 124 123 124h57q73 0 89 66l10 40q17 66 53 82q21 9 104 9h382q76 0 95 -9q33 -14 51 -74l11 -37q17 -57 33 -67t79 -10h691q71 0 96.5 -27t25.5 -99v-96h397q108 0 111 -38zM2506 991q-3 21 -62 21h-1614
q-55 0 -78 -12.5t-47 -59.5l-453 -891h1789l443 888q22 44 22 54zM2024 1061v96q0 77 -75 77h-695q-86 0 -100 5q-36 12 -52 74l-12 46q-13 49 -32 62q-17 10 -71 10h-370q-58 0 -77 -8q-31 -13 -43 -60l-12 -46q-15 -57 -39 -72q-19 -11 -83 -11h-62q-47 0 -63 -14.5
t-16 -61.5v-1056l430 838q46 90 76 106q27 15 132 15h1164z" />
  </g>

</svg>
