<?xml version="1.0" standalone="no"?>
<!DOCTYPE svg PUBLIC "-//W3C//DTD SVG 1.1//EN" "http://www.w3.org/Graphics/SVG/1.1/DTD/svg11.dtd" >
<svg viewBox="0 -442 2141 2048">
  <g transform="matrix(1 0 0 -1 0 1606)">
   <path fill="currentColor"
d="M1981 941l-238 -763v798h200q26 0 38 -35zM2102 689l-362 -665l193 698h134q7 0 35 -33zM2141 412l-398 -461l257 511h122q6 -17 19 -50zM2108 176l-360 -276l243 323h92q8 -16 25 -47zM1727 -72q0 -25 -27 -53.5t-51 -28.5h-460v218q0 55 -73 55q-76 0 -76 -55v-218
h-278v218q0 46 -65 46q-80 0 -80 -46v-218h-452q-22 0 -52.5 28t-30.5 49v1139q0 22 37 43q34 19 58 19h254q12 0 31 27q3 5 27 84q17 59 48 59h250q35 0 51.5 -85t40.5 -85h776q28 0 50 -21t22 -49v-1126zM1938 934q0 3 -3 9h-156v-523zM2059 682h-99l-105 -368zM2099 422
h-78l-112 -217zM2062 186h-50l-79 -101zM1680 -72v1126q0 23 -25 23h-776q-52 0 -73 64l-26 106h-237q-11 -37 -37 -110q-25 -60 -75 -60h-254q-19 0 -48 -22v-1130q14 -20 34 -32h407v171q0 44 43 71q37 22 84 22q45 0 78.5 -25t33.5 -68v-171h184v171q0 47 39 76
q36 26 84 26t82 -27q38 -29 38 -75v-171h415q29 26 29 35z" />
  </g>

</svg>
