<?xml version="1.0" standalone="no"?>
<!DOCTYPE svg PUBLIC "-//W3C//DTD SVG 1.1//EN" "http://www.w3.org/Graphics/SVG/1.1/DTD/svg11.dtd" >
<svg viewBox="0 -442 2311 2048">
  <g transform="matrix(1 0 0 -1 0 1606)">
   <path fill="currentColor"
d="M2311 461l-134 -205l-120 26v48l72 -13l-82 123v-201l-791 -338l-1174 480v514l606 89l1095 -168l-135 191l-1379 109l179 -153l-31 -8l-206 163l93 127l1517 10zM2264 459l-466 756l-1474 -9l-37 -52l1381 -108l509 -729zM1720 709l-1014 173v-141l538 -143zM2007 262
v236l-186 267l-1132 183l-567 -86v-455l1108 -452v609l-1066 281l530 83l1109 -192l32 -40l-571 -132v-619zM672 750v132l-316 -48z" />
  </g>

</svg>
