<?xml version="1.0" standalone="no"?>
<!DOCTYPE svg PUBLIC "-//W3C//DTD SVG 1.1//EN" "http://www.w3.org/Graphics/SVG/1.1/DTD/svg11.dtd" >
<svg viewBox="0 -442 2048 2048">
  <g transform="matrix(1 0 0 -1 0 1606)">
   <path fill="currentColor"
d="M1160 1230q0 -44 -35 -73l-14 -12v-957q0 -105 -48 -137q-130 -88 -397 -88q-266 0 -396 88q-48 32 -48 137v957l-14 12q-35 29 -35 73v122q0 62 51 90q138 75 442 75q305 0 443 -75q51 -28 51 -90v-122zM1111 1360q0 53 -200 85q-143 23 -245 23t-245 -23
q-199 -32 -199 -86q0 -55 201 -83q130 -18 244 -18q116 0 244 18q200 28 200 84zM1111 1265v30q-168 -86 -445 -86q-274 0 -444 86v-30q0 -167 444 -167q445 0 445 167zM1061 191v928q-34 -14 -74 -27v-934l-49 -13v934q-60 -11 -148 -21v-935h-50v935q-60 -3 -74 -3
q-13 0 -74 3v-935h-49v935q-88 10 -148 21v-934l-49 13v934q-40 13 -74 27v-928q0 -89 57 -118q121 -61 337 -61q217 0 338 61q57 29 57 118z" />
  </g>

</svg>
