<?xml version="1.0" standalone="no"?>
<!DOCTYPE svg PUBLIC "-//W3C//DTD SVG 1.1//EN" "http://www.w3.org/Graphics/SVG/1.1/DTD/svg11.dtd" >
<svg viewBox="0 -442 2048 2048">
  <g transform="matrix(1 0 0 -1 0 1606)">
   <path fill="currentColor"
d="M1742 769q6 -7 -4 -11v-641q0 -6 -5 -7l-79 -98l-2 -2v-2q0 -7 -8 -7q-8 1 -11 7l-4 9q-12 27 -99 69q-83 40 -114 40h-4v-50q5 -19 37 -19v-211q0 -46 -14 -66q-22 -31 -114 -31h-445v-45h-190v45h-67v-13h-154v352h154v-31h53v1l-11 6q-17 9 -17 24q0 17 17 9l11 -5
v176l-11 6q-17 9 -17 25q0 13 17 7l11 -4v175l-11 6q-17 9 -17 25q0 14 17 8l11 -4v194l-11 6q-17 9 -17 25q0 14 17 8l11 -4v76h-53v-31h-154v349h154v-13h67v46h31v51h-77v13h-162q-40 -53 -107 -53q-56 0 -95 39t-39 95q0 55 39.5 94.5t94.5 39.5q75 0 114 -64h155v16
h278v-16h174q39 64 114 64q55 0 94.5 -39.5t39.5 -94.5q0 -56 -39 -95t-95 -39q-67 0 -107 53h-181v-13h-74v-51h32v-46h445q71 0 96 -16q32 -20 32 -83v-208q-31 0 -37 -18v-49h13l199 95l12 23q9 18 16 15q8 -1 8 -13v-1l2 -2zM1303 1313q0 40 -28.5 68t-68.5 28
q-60 0 -92 -63h-196v-77h201q34 -53 87 -53q40 0 68.5 28.5t28.5 68.5zM1396 856v196q0 9 -99 29q38 -14 82 -41v-184h17zM1404 740v26h-244v-26h244zM1724 440v31l-84 -15h-268q60 25 68.5 59.5t25.5 87.5l-34 8q-7 -27 -24 -73q-9 -18 -81 -69v255h-32v-198q-19 99 -55 99
q-94 0 -94 -94q0 -42 53 -75h-186v-33h248q-96 -36 -96 -157l27 -5q7 33 31 87q16 20 72 58v-258h32v200q12 -84 84 -84q67 0 67 87q0 20 -48 72h210zM640 1269v77h-177q-32 63 -92 63q-40 0 -68.5 -28t-28.5 -68t28.5 -68.5t68.5 -28.5q53 0 87 53h182zM852 665v138l-47 14
v-127zM574 831v261h-12v-261h12zM869 641l-183 84q-15 0 0 -11q11 -8 81 -40.5t77 -32.5h25zM1143 57v69h-2q-10 0 -61.5 -14.5t-56.5 -19.5l-5 -6q-12 -11 -22 -11q-6 0 -9 8q-5 13 2 129q10 151 7 183q-9 102 -26 363q-3 57 11 57q19 0 50 -30q2 -3 51.5 -20.5t60.5 -19.5
v72h-247q1 -4 1 -10q0 -10 -7 -10q-5 0 -10 3l-4 1v-156l4 -4q17 -17 17 -24q0 -22 -17 -14l-4 2v-188l4 -4q17 -17 17 -25q0 -21 -17 -13l-4 2v-171l4 -3q17 -18 17 -24q0 -17 -9 -17q-4 1 -8 3l-4 1v-109h267zM1404 110v26h-244v-26h244zM849 447v159l-44 14v-149z
M1396 -184v197h-17v-185q-5 -14 -82 -41q99 20 99 29zM869 413l-183 84q-15 -1 0 -12q11 -8 81 -40t77 -32h25zM849 227v157l-44 17v-152zM869 203l-183 84q-17 0 0 -12q10 -7 81 -39.5t77 -32.5h25zM849 61v111l-44 21v-122zM574 -225v264h-12v-264h12zM1302 461
q-44 8 -103 27q-17 14 -17 57q0 42 31 42q47 0 89 -126zM1440 355q0 -36 -2 -42q-5 -18 -30 -18q-44 0 -81 128q113 -10 113 -68z" />
  </g>

</svg>
