<?xml version="1.0" standalone="no"?>
<!DOCTYPE svg PUBLIC "-//W3C//DTD SVG 1.1//EN" "http://www.w3.org/Graphics/SVG/1.1/DTD/svg11.dtd" >
<svg viewBox="0 -442 2048 2048">
  <g transform="matrix(1 0 0 -1 0 1606)">
   <path fill="currentColor"
d="M1889 275q0 -96 -30 -185q-42 -122 -121 -122h-1310q-169 0 -226 66q-51 59 -51 233v1026h1587v-129h151v-889zM1708 -2v1265h-1527v-996q0 -162 43 -212q47 -57 204 -57h1280zM1502 977h-531v50h531v-50zM1182 1119h-211v50h211v-50zM1502 835h-531v50h531v-50z
M1282 582h-311v50h311v-50zM1502 440h-531v50h531v-50zM837 977h-561v50h561v-50zM1502 282h-531v50h531v-50zM517 1119h-241v50h241v-50zM837 835h-561v50h561v-50zM1630 460q0 -156 -87 -261q-92 -113 -245 -113q-163 0 -309 96q-160 105 -179 258h-534v50h533
q7 139 144 225q121 76 269 76q224 0 381 -117l-29 -28q-150 112 -371 112q-146 0 -244 -58q-118 -70 -118 -207q0 -158 164 -272q148 -102 313 -102q279 0 279 322q0 195 -194 225l31 32q196 -31 196 -238zM717 582h-441v50h441v-50zM747 298h-471v50h471v-50z" />
  </g>

</svg>
