<?xml version="1.0" standalone="no"?>
<!DOCTYPE svg PUBLIC "-//W3C//DTD SVG 1.1//EN" "http://www.w3.org/Graphics/SVG/1.1/DTD/svg11.dtd" >
<svg viewBox="0 -442 2048 2048">
  <g transform="matrix(1 0 0 -1 0 1606)">
   <path fill="currentColor"
d="M1770 551q0 -57 -55 -57h-78v-43h30v-81h-30v-28h30v-116h-55v50h-89v-50h-60v116h25v28h-25v81h25v43h-693q-19 -36 -43 -36q-23 0 -37 36h-28v-36q-56 0 -56 36h-21q36 -65 36 -134q0 -67 -48.5 -116.5t-115.5 -49.5q-207 0 -207 202q0 77 62 142q-17 18 -37 59
q-23 45 -23 65q0 239 205 239q67 0 115.5 -49.5t48.5 -116.5q0 -51 -37 -120h20q-1 25 17 32q10 4 38 3v-35h29q13 35 37 35t45 -35h923q21 0 36.5 -21t15.5 -43zM571 744q0 77 -103 77q-110 0 -110 -88q0 -66 35 -66q22 0 43 23l3 -66q0 -14 -13 -40q-15 -30 -17 -39
q1 -5 17 -35q13 -24 13 -39q0 -48 -10 -68q-13 25 -36 25q-43 0 -43 -51q0 -104 124 -104q96 0 96 93q0 52 -15 52q-21 0 -24 -25q-3 -30 -32 -30q-30 0 -30 45q0 63 68 68q-26 20 -26 70q0 52 26 73q-68 5 -68 68q0 45 30 45q29 0 32 -30q3 -25 24 -25q16 0 16 67z" />
  </g>

</svg>
