<?xml version="1.0" standalone="no"?>
<!DOCTYPE svg PUBLIC "-//W3C//DTD SVG 1.1//EN" "http://www.w3.org/Graphics/SVG/1.1/DTD/svg11.dtd" >
<svg viewBox="0 -442 2048 2048">
  <g transform="matrix(1 0 0 -1 0 1606)">
   <path fill="currentColor"
d="M2025 346l-272 -65l263 -399l-661 286l-206 -163l-33 149l-230 -152l-46 172l-223 -161l-41 201l-344 -74l70 217l-279 -31l152 235l-143 155l260 141l-223 295l338 -19l12 306l314 -171l159 143l218 -164l129 187l158 -212l390 79l-89 -263l287 69l-141 -239l178 -109
l-146 -210zM1956 748l-177 103l105 181l-258 -66l89 272l-338 -68l-135 181l-121 -172l-225 169l-153 -141l-278 152l-9 -278l-287 17l195 -258l-255 -135l126 -138l-117 -184l252 28l-69 -208l313 68l34 -175l224 155l43 -172l229 155l34 -143l168 131l541 -234l-212 324
l267 63l-123 172z" />
  </g>

</svg>
