<?xml version="1.0" standalone="no"?>
<!DOCTYPE svg PUBLIC "-//W3C//DTD SVG 1.1//EN" "http://www.w3.org/Graphics/SVG/1.1/DTD/svg11.dtd" >
<svg viewBox="0 -442 2048 2048">
  <g transform="matrix(1 0 0 -1 0 1606)">
   <path fill="currentColor"
d="M1682 -32h-1316v1156h1316v-1156zM1642 750v334h-388v-314l96 91l129 -111h163zM1642 610v116h-135zM1383 750l-31 27l-29 -27h60zM1642 365v163l-231 198h-113l-44 -41v-320h388zM1230 750v334h-414v-334h414zM1642 8v333h-388v-333h388zM1208 726h-392v-173l111 -92z
M1230 365v297l-301 -285l-113 94v-106h414zM792 750v334h-386v-334h386zM1230 8v333h-414v-333h414zM792 573v153h-386v-329l298 249zM792 365v126l-88 73l-238 -199h326zM792 8v333h-355l-31 -26v-307h386z" />
  </g>

</svg>
