<?xml version="1.0" standalone="no"?>
<!DOCTYPE svg PUBLIC "-//W3C//DTD SVG 1.1//EN" "http://www.w3.org/Graphics/SVG/1.1/DTD/svg11.dtd" >
<svg viewBox="0 -442 2048 2048">
  <g transform="matrix(1 0 0 -1 0 1606)">
   <path fill="currentColor"
d="M804 1385q0 -52 -35.5 -84.5t-87.5 -32.5t-85 34.5t-33 86.5q0 51 35.5 84t87.5 33q51 0 84.5 -34.5t33.5 -86.5zM861 1380q0 -63 -39 -112q-27 18 -59 13q55 39 55 106q0 58 -37 97t-95 39q-59 0 -99.5 -38.5t-40.5 -96.5t36 -97.5t93 -39.5q12 0 32 4q-35 -26 -33 -58
q-76 0 -126 54.5t-50 131.5q0 78 54.5 129t133.5 51q75 0 125 -54t50 -129zM1373 949q0 -11 -7 -18q-10 1 -19 1q-17 0 -47 -5q-50 -55 -90 -74l-469 -219q-23 -11 -57 -14q-55 -6 -58 -7q-7 -1 -23.5 -25t-25.5 -24q-12 0 -27 12t-15 23q0 32 52 67q48 32 82 32
q29 0 52 -16q82 44 185 102q-2 6 -35 22l-18 -8q-172 271 -172 376q0 37 27.5 62.5t64.5 25.5q38 0 66 -25q20 -18 62.5 -80.5t51.5 -87.5l57 -198l-14 -6q0 -6 -4 -18t-4 -19q0 -9 13 -9q38 0 184 79q4 48 51 75q39 24 91 24q46 0 46 -48zM1551 -183q0 -76 -36 -210
q-121 64 -178 118q-77 73 -451 849q32 22 32 55q0 26 -21 59l179 87q18 -34 52 -65l8 -1q12 -1 54 6q105 -229 209 -457q152 -348 152 -441zM1489 -347l-440 934l-58 -6l-27 -47q201 -394 398 -757q45 -38 127 -124z" />
  </g>

</svg>
