<?xml version="1.0" standalone="no"?>
<!DOCTYPE svg PUBLIC "-//W3C//DTD SVG 1.1//EN" "http://www.w3.org/Graphics/SVG/1.1/DTD/svg11.dtd" >
<svg viewBox="0 -442 2048 2048">
  <g transform="matrix(1 0 0 -1 0 1606)">
   <path fill="currentColor"
d="M2046 925q0 -206 -206 -344q-4 -37 -4 -43q0 -80 67 -150q14 -15 131 -107q-22 -4 -48 -4q-315 0 -405 210q-79 -12 -123 -12q-78 0 -180 31q-93 282 -398 361q-9 23 -9 59q0 206 201 326q169 100 390 100q220 0 387 -101q197 -120 197 -326zM1251 421q0 -137 -95 -247
q-83 -97 -220 -155q-118 -50 -273 -50q-104 0 -196 26q-52 -187 -237 -187q-99 0 -228 93q228 5 228 190q0 12 -1 27q-154 121 -154 306q0 148 110 259q96 98 249 146q98 31 245 31q211 0 380 -112q192 -126 192 -327zM1997 925q0 184 -182 291q-153 89 -351 89
q-194 0 -352 -85q-192 -104 -192 -281q0 -26 5 -41q125 -28 239 -128q118 -104 149 -224q52 -21 151 -21q75 0 146 17q59 -165 193 -199q43 -11 100 -14q-113 77 -113 209q0 35 6 75q201 132 201 312zM1202 423q0 135 -103 235q-88 85 -230 128q-90 27 -208 27t-207 -27
q-142 -43 -229 -128q-101 -99 -101 -235q0 -87 40 -157q25 -43 75 -90q40 -38 40 -48q0 -184 -134 -251q44 -19 88 -19q162 0 196 198q77 -39 232 -39q116 0 196 25q146 46 238 136q107 105 107 245z" />
  </g>

</svg>
