<?xml version="1.0" standalone="no"?>
<!DOCTYPE svg PUBLIC "-//W3C//DTD SVG 1.1//EN" "http://www.w3.org/Graphics/SVG/1.1/DTD/svg11.dtd" >
<svg viewBox="0 -442 2048 2048">
  <g transform="matrix(1 0 0 -1 0 1606)">
   <path fill="currentColor"
d="M1842 1077l-311 -295l-21 19l275 327zM1872 656l-316 20v33l316 38v-91zM1842 326l-57 -51l-275 327l21 18zM1466 401q0 -85 -252 -143q-29 -7 -36 -39q-2 -9 -2 -62q0 -33 16 -95t16 -94h-684q0 31 2 93t2 93q0 208 -119 297q-133 100 -187 226q-47 112 -47 291
q0 193 197 343q183 140 382 140h39q330 0 382 -140q13 -55 33 -121q21 -28 21 -63q0 -67 34 -96q17 -15 81.5 -38t99.5 -58q7 -7 7 -15q0 -12 -53.5 -49.5t-53.5 -65.5q0 -22 18 -35t22 -18q-37 -27 -76 -68q-16 -16 -54 -70q85 -27 173 -27q9 0 9 -13q0 -21 -14 -50
t-14 -34q0 -12 29 -37t29 -52z" />
  </g>

</svg>
