<?xml version="1.0" standalone="no"?>
<!DOCTYPE svg PUBLIC "-//W3C//DTD SVG 1.1//EN" "http://www.w3.org/Graphics/SVG/1.1/DTD/svg11.dtd" >
<svg viewBox="0 -442 2048 2048">
  <g transform="matrix(1 0 0 -1 0 1606)">
   <path fill="currentColor"
d="M2006 1131q0 -198 -199 -331q-4 -47 -4 -41q0 -77 64 -143q11 -12 126 -103q-21 -4 -46 -4q-303 0 -389 201q-75 -11 -118 -11q-77 0 -173 29q-90 270 -382 346q-9 20 -9 51q0 202 191 318q161 97 377 97q212 0 372 -97q190 -114 190 -312zM1851 251q0 -145 -172 -245
q-136 -79 -304 -99q-90 -234 -421 -234q-42 0 -96 3q121 49 160 75q84 58 86 143q-188 18 -329 81q-188 84 -227 229q98 -17 198 -17q202 0 343 108q148 113 178 309q220 0 375 -69q209 -93 209 -284zM1241 647q0 -256 -302 -386q-114 -49 -262 -49q-97 0 -189 26
q-51 -180 -227 -180q-83 0 -219 89q154 0 202 103q21 45 21 80q0 15 -6 23q-26 25 -74 78q-73 89 -73 216q0 143 105 251q92 95 240 141q94 29 235 29q203 0 365 -107q184 -121 184 -314zM1957 1131q0 177 -175 279q-147 86 -337 86q-189 0 -339 -82q-183 -100 -183 -273
q0 -14 6 -37q124 -29 230 -122q112 -98 142 -215q49 -21 144 -21q70 0 141 17q23 -64 71 -118q54 -59 114 -73q46 -11 97 -13q-109 74 -109 200q0 32 6 72q192 127 192 300zM1809 254q0 156 -183 239q-141 63 -320 63q-9 -63 -32 -110q-150 -304 -542 -304q-62 0 -108 6
q102 -150 395 -192q49 -4 112 -13q21 -8 21 -46q0 -42 -25.5 -93t-59.5 -77q214 14 272 219q289 50 410 169q60 59 60 139zM1194 648q0 130 -99 226q-85 82 -221 123q-86 26 -199 26q-193 0 -341 -89q-175 -105 -175 -286q0 -89 40 -152q17 -27 73 -83q40 -40 40 -70
q0 -152 -133 -219q42 -18 85 -18q139 0 176 141q4 16 12 49q97 -36 223 -36q115 0 188 23q141 44 229 130q102 101 102 235z" />
  </g>

</svg>
