<?xml version="1.0" standalone="no"?>
<!DOCTYPE svg PUBLIC "-//W3C//DTD SVG 1.1//EN" "http://www.w3.org/Graphics/SVG/1.1/DTD/svg11.dtd" >
<svg viewBox="0 -442 2048 2048">
  <g transform="matrix(1 0 0 -1 0 1606)">
   <path fill="currentColor"
d="M2025 326l-279 31l70 -217l-344 74l-41 -201l-223 161l-46 -172l-230 152l-33 -149l-206 163l-661 -286l263 399l-272 65l149 203l-146 210l178 109l-141 239l287 -69l-89 263l390 -79l158 212l129 -187l218 164l159 -143l314 171l12 -306l338 19l-223 -295l260 -141
l-143 -155zM1939 705l-255 135l195 258l-287 -17l-9 278l-278 -152l-153 141l-225 -169l-121 172l-135 -181l-338 68l89 -272l-258 66l105 -181l-177 -103l137 -201l-123 -172l267 -63l-212 -324l541 234l168 -131l34 143l229 -155l43 172l224 -155l34 175l313 -68l-69 208
l252 -28l-117 184z" />
  </g>

</svg>
