<?xml version="1.0" standalone="no"?>
<!DOCTYPE svg PUBLIC "-//W3C//DTD SVG 1.1//EN" "http://www.w3.org/Graphics/SVG/1.1/DTD/svg11.dtd" >
<svg viewBox="0 -442 2048 2048">
  <g transform="matrix(1 0 0 -1 0 1606)">
   <path fill="currentColor"
d="M2002 5q0 -52 -62 -82q-49 -23 -108 -23q-55 0 -106 23q-63 29 -63 78q0 21 3 32q-9 -3 -34 -3q-173 0 -228 142q-27 -13 -63 -13q-42 0 -72 16q-29 -42 -95 -42q-68 0 -109 36q-51 -36 -97 -36q-71 0 -101 39q-39 -34 -97 -34q-44 0 -84 20q-47 23 -58 61
q-39 -21 -95 -21q-98 0 -123 86q-24 -27 -78 -27q-47 0 -78 39q-30 36 -30 84q0 11 2 22h-4q-102 0 -102 68q0 28 18 83q-92 36 -92 125q0 82 86 121q-21 42 -21 97q0 52 33 88.5t84 36.5q9 0 25 -6q27 107 115 107q7 0 62 -12q27 62 88 62q36 0 60 -24q34 74 122 74
q92 0 115 -36q50 45 116 45q73 0 96 -39q94 39 142 39q64 0 86 -51q59 36 123 36q68 0 92 -77q99 18 134 18q62 0 82 -32q3 -21 15 -58l3 -2q5 0 15.5 1.5t15.5 1.5q141 0 144 -142l4 -4q110 -16 110 -106q0 -66 -35 -130q23 -25 23 -70q0 -97 -118 -151q3 -9 3 -25
q0 -55 -59 -99q56 -51 56 -121q0 -72 -41 -106q180 -23 180 -109zM1955 6q0 26 -49 43q-38 13 -71 13q-36 0 -74 -12q-51 -16 -51 -44q0 -56 122 -56q37 0 73 11q50 16 50 45zM1943 809q0 50 -62 63q-23 5 -102 5q-30 0 -42 2q88 37 88 57q0 36 -26.5 60.5t-62.5 24.5
q-28 0 -68 -15q-32 -14 -65 -27q3 8 28 50q20 33 20 50q0 28 -48 28q-89 0 -171 -48q-4 35 -8 69q-10 38 -49 38q-37 0 -159 -62q-3 26 -7 52q-7 27 -39 27q-92 0 -187 -73q3 12 3 19q0 54 -53 54q-54 0 -92 -42.5t-37 -42.5q-3 0 -24 39q-19 35 -76 35q-70 0 -85 -70
q-11 -51 -19 -51q1 0 -29.5 38t-53.5 38q-41 0 -41 -43q0 -7 2.5 -19.5t2.5 -19.5q0 -13 -8 -13q-6 0 -44 21t-64 21q-65 0 -65 -90q0 -44 17 -92l-6 -5q-58 84 -86 84q-67 0 -67 -74q0 -58 47 -130q-71 -22 -75 -25q-37 -19 -37 -64q0 -48 35 -65q21 -10 78 -13
q0 -1 -20 -54q-13 -35 -13 -53q0 -38 40 -38q-20 0 84 12q-27 -62 -27 -82q0 -28 19 -53t46 -25q50 0 107 70l6 -3q0 -129 82 -129q72 0 119 56q7 -47 38 -79q33 -35 79 -35q41 0 73.5 33.5t31.5 33.5q5 0 13 -16q29 -58 85 -58q55 0 66 49q5 25 9 25l42 -37t86 -37
q42 0 64 36q9 15 26 72q5 18 10 18q6 0 10 -32q9 -64 58 -64q36 0 63.5 22t26.5 22q5 0 17 -52q29 -122 183 -122q69 0 122 35q61 39 61 105q0 55 -56 100t-56 47q0 11 31 11q87 0 87 62q0 18 -18 54q4 4 14 7q116 36 116 115q0 28 -41 67q53 62 53 126z" />
  </g>

</svg>
