<?xml version="1.0" standalone="no"?>
<!DOCTYPE svg PUBLIC "-//W3C//DTD SVG 1.1//EN" "http://www.w3.org/Graphics/SVG/1.1/DTD/svg11.dtd" >
<svg viewBox="0 -442 2048 2048">
  <g transform="matrix(1 0 0 -1 0 1606)">
   <path fill="currentColor"
d="M1947 126q-93 -126 -225 -126q-136 0 -249 52q-137 64 -167 179q-142 -32 -295 -32q-206 0 -364 38q-209 50 -353 148q-193 130 -193 305q0 176 195 306q278 185 698 185q472 0 747 -219q145 -116 145 -271q0 -180 -237 -332q-10 -220 298 -233zM1849 88
q-249 52 -249 268q0 25 6 33q0 1 28 16q206 115 206 286q0 126 -107 216q-266 225 -738 225q-118 0 -251 -19q-206 -29 -375 -126q-219 -125 -219 -297q0 -143 145 -249q265 -193 702 -193q189 0 350 41q2 -120 135 -188q108 -55 241 -55q70 0 126 42z" />
  </g>

</svg>
