<?xml version="1.0" standalone="no"?>
<!DOCTYPE svg PUBLIC "-//W3C//DTD SVG 1.1//EN" "http://www.w3.org/Graphics/SVG/1.1/DTD/svg11.dtd" >
<svg viewBox="0 -442 2048 2048">
  <g transform="matrix(1 0 0 -1 0 1606)">
   <path fill="currentColor"
d="M1947 690q0 -175 -193 -305q-144 -98 -353 -148q-158 -38 -364 -38q-153 0 -295 32q-30 -115 -167 -179q-113 -52 -249 -52q-132 0 -225 126q308 13 298 233q-237 152 -237 332q0 155 145 271q275 219 747 219q420 0 698 -185q195 -130 195 -306zM1898 690
q0 172 -219 297q-169 97 -375 126q-133 19 -251 19q-472 0 -738 -225q-107 -90 -107 -216q0 -171 206 -286q11 -4 28 -16q6 -8 6 -33q0 -216 -249 -268q56 -42 126 -42q133 0 241 55q133 68 135 188q161 -41 350 -41q437 0 702 193q145 106 145 249z" />
  </g>

</svg>
