<?xml version="1.0" standalone="no"?>
<!DOCTYPE svg PUBLIC "-//W3C//DTD SVG 1.1//EN" "http://www.w3.org/Graphics/SVG/1.1/DTD/svg11.dtd" >
<svg viewBox="0 -442 2048 2048">
  <g transform="matrix(1 0 0 -1 0 1606)">
   <path fill="currentColor"
d="M2002 678q0 -89 -92 -125q18 -55 18 -83q0 -68 -102 -68h-4q2 -11 2 -22q0 -48 -30 -84q-31 -39 -78 -39q-54 0 -78 27q-25 -86 -123 -86q-56 0 -95 21q-11 -38 -58 -61q-40 -20 -84 -20q-58 0 -97 34q-30 -39 -101 -39q-46 0 -97 36q-41 -36 -109 -36q-66 0 -95 42
q-30 -16 -72 -16q-36 0 -63 13q-55 -142 -228 -142q-25 0 -34 3q3 -11 3 -32q0 -49 -63 -78q-51 -23 -106 -23q-59 0 -108 23q-62 30 -62 82q0 86 180 109q-41 34 -41 106q0 70 56 121q-59 44 -59 99q0 16 3 25q-118 54 -118 151q0 45 23 70q-35 64 -35 130q0 90 110 106
l4 4q3 142 144 142q5 0 15.5 -1.5t15.5 -1.5l3 2q1 18 15 58q20 32 82 32q35 0 134 -18q24 77 92 77q64 0 123 -36q22 51 86 51q48 0 142 -39q23 39 96 39q66 0 116 -45q23 36 115 36q88 0 122 -74q24 24 60 24q61 0 88 -62q55 12 62 12q88 0 115 -107q16 6 25 6
q51 0 84 -36.5t33 -88.5q0 -55 -21 -97q86 -39 86 -121zM1955 678q0 45 -37 64q-4 3 -75 25q47 72 47 130q0 74 -67 74q-28 0 -86 -84l-6 5q17 48 17 92q0 90 -65 90q-26 0 -64 -21t-44 -21q-8 0 -8 13q0 7 2.5 19.5t2.5 19.5q0 43 -41 43q-23 0 -53.5 -38t-29.5 -38
q-8 0 -19 51q-15 70 -85 70q-57 0 -76 -35q-21 -39 -24 -39q1 0 -37 42.5t-92 42.5q-53 0 -53 -54q0 -7 3 -19q-95 73 -187 73q-32 0 -37.5 -26.5t-8.5 -52.5q-122 62 -159 62q-39 0 -49 -38q-4 -34 -8 -69q-82 48 -171 48q-48 0 -48 -28q0 -17 20 -50q25 -42 28 -50
q-33 13 -65 27q-40 15 -68 15q-36 0 -62.5 -24.5t-26.5 -60.5q0 -20 88 -57q-12 -2 -42 -2q-79 0 -102 -5q-62 -13 -62 -63q0 -64 53 -126q-41 -39 -41 -67q0 -79 116 -115q10 -3 14 -7q-18 -36 -18 -54q0 -62 87 -62q31 0 31 -11q0 -2 -56 -47t-56 -100q0 -66 61 -105
q53 -35 122 -35q154 0 183 122q12 52 17 52q-1 0 26.5 -22t63.5 -22q49 0 58 64q4 32 10 32q5 0 10 -18q17 -57 26 -72q22 -36 64 -36q44 0 86 37l42 37q4 0 9 -25q11 -49 66 -49q56 0 85 58q8 16 13 16q-1 0 31.5 -33.5t73.5 -33.5q46 0 79 35q31 32 38 79q47 -56 119 -56
q82 0 82 129l6 3q57 -70 107 -70q27 0 46 25t19 53q0 20 -27 82q104 -12 84 -12q40 0 40 38q0 18 -13 53q-20 53 -20 54q57 3 78 13q35 17 35 65zM338 6q0 28 -51 44q-38 12 -74 12q-33 0 -71 -13q-49 -17 -49 -43q0 -29 50 -45q36 -11 73 -11q122 0 122 56z" />
  </g>

</svg>
