<?xml version="1.0" standalone="no"?>
<!DOCTYPE svg PUBLIC "-//W3C//DTD SVG 1.1//EN" "http://www.w3.org/Graphics/SVG/1.1/DTD/svg11.dtd" >
<svg viewBox="0 -442 4005 2048">
  <g transform="matrix(1 0 0 -1 0 1606)">
   <path fill="currentColor"
d="M3637 1338q-2 2 -11 4l-7 -2q-4 1 -6 3q8 2 24 -5zM3777 1190l-2 -2l-1 2h3zM3758 1182l-3 -2v4v-1q2 0 3 -1zM3751 1183l-1 -1l-1 1l1 1zM3691 1185l-2 -2l-1 1l1 2zM3416 1437q-2 -1 -15 -1q-2 0 -10 -2l-6 3q0 5 7 5h5q11 0 19 -5zM3629 1198v-1l-5 2v1zM3546 1222
l-5 1v2l5 -1v-2zM3529 1225q-4 2 -13 7h3q4 -4 10 -7zM3324 1419q-9 1 -16 4h6q4 -1 10 -4zM3449 1282l-5 -6l-3 6l6 2zM3471 1161l-2 -2l-5 2q3 4 3 7l4 -3v-4zM3469 1148h-1l-1 3h1zM3064 1482q-6 -2 -10 -3q-12 0 -32 5l-5 5l8 -3l7 1q10 -1 32 -5zM3073 1447h-1v3h1v-3z
M3441 1094q-5 -5 -12 -16q1 4 4 13l3 -2zM3071 1452q-4 0 -11 1zM3060 1453h-4h1h3zM3362 1140l-1 -1l-2 2l1 1zM3424 1078l-4 -6v7zM3372 1105l-3 3q-3 0 -9 3q-3 -1 -3 -4q0 -4 2 -7l-15 21q-2 6 -33 50q-6 4 -17 14q-4 7 -13 21l6 -2l1 2l-1 3q-5 3 -9 10q24 -11 31 -32
q14 -14 44 -41q-3 2 -10 3l-4 -4q1 -5 26 -35l2 2l2 -4q2 -1 3 -3zM3008 1485l-5 -2q-15 2 -18 7l2 1h4q3 -1 7.5 -1.5t6.5 -0.5v-2zM3027 1463q-5 0 -14.5 1t-14.5 1v4h13zM2993 1472l-1 -3l-7 5h5zM2997 1463h-3v2h3v-2zM3423 1061q-16 -12 -15 -18h-3l-19 10q-5 -3 -7 -5
l-5 4h-2l-2 -3l4 -4l11 -5h-1q-2 0 -4.5 -2.5t-4.5 -2.5q-2 8 -10 13q0 -1 2 9l-3 5q5 -2 11 -3l1 2l-3 5q0 7 -13 26q32 -15 41 -21q2 0 7 -1q3 0 4 6l2 -7q3 -3 9 -8zM2996 1482l-9 1l-13 -3l-5 2v-3h-4q-11 3 -24 7l1 1q-5 1 -7 3v3l5 2q4 0 12.5 -3t12.5 -3h4l-7 4l6 1
q17 -9 28 -12zM3005 1441h-2v1h2v-1zM3221 1223l-7 2v4h4l3 -2v-4zM2953 1470l-8 2v1l8 -2v-1zM2928 1487l-3 -1l-5 5q3 -1 8 -4zM2923 1446v-2l-3 2l1 1zM3383 982l-3 5l1 1zM3427 953l-3 -4v-3v-4l-4 -2q0 4 -1 11q-3 -2 -4 -5h-4l-1 -2l1 -5l-1 -3q-1 3 -1 5l-2 2
q-4 -3 -5 -7q-7 1 -12 0l1 1q-5 2 -8 6l-1 -6l6 -6h-2q-3 0 -5 -12q-2 0 -11 6l-3 6l3 3v4q-5 -1 -12 0q-5 -2 -14 -6l-6 -1l-4 2q-5 -4 -1 -8q-5 0 -15 1l-2 6q10 -2 15 15l4 2l11 -1l13 3l4 -3h3l4 4q-2 2 -3 5l4 9l-3 6v4l4 1l-2 -5l6 -6q5 3 13 10q0 7 5 12q0 9 -9 26
q-1 5 -4 8q5 5 1 8q4 -2 7 -5l2 2l2 -1l1 2l-3 5l-1 -2h-4v4h3q30 -25 25 -37l2 -7l-4 -4q7 -10 7 -19.5t8 -14.5zM2823 1459h-3v2h3v-2zM3364 924l-3 -7l-6 2q-15 0 -5 -11q-4 5 -12 11q4 4 4 9q2 -1 5 -2q3 0 3 5q4 -1 11 -1l3 4l-2 -5zM3337 900l-1 -1q1 -4 1 -7l-1 -2
l-2 -1l1 -3l-4 -2q-2 5 -2 8l-2 1q-1 -1 -1 -3q1 -3 3 -4l-4 1q0 2 -2.5 5.5t-2.5 5.5q1 2 2 5q0 5 -7 12q-1 -3 -2 -5v0l-2 -1l2 1q-3 2 -7 6l3 3l1 -1q5 7 7 7l7 -5l5 1v-5q2 -1 7 -6v-1q-1 -2 -1 -7zM3317 907h-1l-1 3h1zM3242 980l-1 -1l-1 2l1 1zM3319 904l-3 -3l-1 3
h4zM2747 1473h-3q-4 0 -11 1l6 3q5 -2 8 -4zM3337 876h-2v3h2v-3zM3274 937h-1l-1 2h1zM3333 872h-1l-1 3h1zM2731 1470l-10 -3l1 4q4 0 9 -1zM3567 629l-1 -4h-2l1 4h2zM3271 920l-1 -4h-6q2 2 7 4zM4005 193l-5 -8l-3 2q-4 -3 -7 -4l-2 1q0 1 17 9zM3985 167q-6 -2 -10 -3
q-1 0 -6 1l-1 3q0 9 12 9q1 0 5 -10zM2627 1521q-30 -5 -34 -5h-10v7l6 3l-6 2q7 1 9 1h4q0 -4 2 -5q2 1 7 3zM3844 273h-3v1h3v-1zM3229 858l-1 1v0zM3856 227h-2v3h2v-3zM3785 290q-7 6 -7 14v3h2q2 -5 5 -17zM3787 288h-1v3h1v-3zM3855 221h-2v2h2v-2zM2575 1525
q-27 0 -44 3l-16 4l6 2l-1 1q5 1 20 3l6 -3v-2q7 3 9 4q11 0 12 -8h-1q2 -2 9 -4zM2569 1505l-6 -1v2l6 1v-2zM2579 1495h-6v2h6v-2zM2537 1539h-16q-11 -1 -17 -1l2 2l-7 1q2 4 -1 4l18 3q6 -2 19 -4l-2 -1zM3857 206l-2 -2h-1l1 3zM3776 291l-1 -6q-12 8 -12 5v5
q2 -2 13 -4zM3705 351h-2v6h2v-6zM3718 331h-6q-1 4 -7 12v7q5 -5 13 -14v-5zM3847 204q-2 -1 -6 -1v2v10l3 -7l2 3q1 -2 1 -7zM3644 407h-2l-1 3h2zM3676 378v-1l-19 13l1 2zM3685 367q-1 -3 -3 -7q-1 5 -5 15q8 -7 8 -8zM3742 306q-5 3 -8 4l3 4q4 -5 5 -8zM3733 315
l-1 -3l-1 2zM3728 315h-1v4h1v-4zM3852 192l-4 -3l-2 9zM3652 392l-6 2l5 1zM2513 1534l-6 -1q-9 2 -14 3q7 0 20 -2zM3218 821l-1 -3l-2 1l2 2h1zM3770 259l-1 -1l-2 2l1 1zM2482 1547h-9v1h9v-1zM2510 1506h-2v2h2v-2zM3862 153l-3 1l3 4v-5zM3246 790q0 -3 -2 -21
q-4 -9 -4 -17q-12 20 -12 21q0 25 13 25q5 0 5 -8zM3862 144h-1v3h1v-3zM3611 400h-6l-3 -2q2 3 5 3zM3675 362l-1 -3q-5 0 -4 -9h-6q-14 -11 -21 -11h-5l-4 3l-2 -1q-3 2 -9 7h14q5 0 7 5l4 -4h5q1 0 7 7q4 1 7 4l-1 3v6q3 -1 9 -2v-5zM2514 1475v-1l-4 1v1zM2507 1478h-2
v2h2v-2zM3444 538h-2v2h2v-2zM3608 350h-2v4h2v-4zM3830 122h-1v6h1v-6zM3683 262l-1 -1l-4 2l1 1zM3650 288q-4 3 -5 5l5 -1v-4zM2397 1544h-8v1h8v-1zM3644 292h-2v4h2v-4zM3304 634l-2 -6l-1 7zM3301 621l-3 -3q-7 7 -18 16h-1q0 -4 4 -10q-2 2 -12 10l-5 -4h-4l-4 4
l-2 -2q0 9 4 10q-3 4 -6 5l-1 -5l-3 5h-2q-2 7 -7 22q2 -3 8 -5q-3 27 -3 25q0 6 3 13q2 -2 4 -2h1q3 0 7 -6v3l4 -1l2 4v-8v-4q3 -2 7 -9q-3 -5 -10 -18v-5q-1 -5 4 -11q0 -8 6 -12h3l1 6h4q4 -6 8 -8v4l7 -3l-4 -3q1 -4 8 -8zM3822 104h-4l-2 1l-1 2l-3 -1q-6 3 -19 29
q9 -10 29 -27v-4zM3272 645h-1v4h1v-4zM3325 592q-4 0 -10 6v3q-9 16 -9 12h11l3 -5q1 -5 5 -16zM2463 1456h-1q-3 0 -6 1l3 3zM3302 619l-2 -5l-1 3zM3159 754h-2v5h2v-5zM3332 573h-1v3h1v-3zM3303 603q-5 3 -7 6l-3 -3l-1 8q4 -3 11 -11zM3327 575h-2l-1 7h2zM3320 582
q-3 -1 -3 -3l-5 11l-2 -1l-2 5l1 6v-3l3 -2l2 2zM2456 1453q-5 -1 -9 -1h-2l3 2zM3276 626h-4v1h4v-1zM3284 610h-1l-1 2l1 1zM3277 608h-2v3h2v-3zM3312 573l-8 -2l-1 2l4 5h4zM3462 420v-2l-3 1v2zM3269 615l-2 -6q-4 6 -13 18h2h2q11 0 11 -12zM3292 592l-5 -5l-1 -3
l-2 2l-5 -2q0 -1 0 8v5q-1 4 -3 7l10 -6l1 1l5 -3v-4zM2418 1459h-3v1h3v-1zM3475 404l-4 -1q-7 2 -11 3q6 0 15 -2zM3646 276q-2 -1 -8 -1l1 2q-12 6 -21 5l-3 2l-2 -1l-4 1q-1 1 -7 11t-16 20l-2 -1q-7 4 -14 6l-3 -3l-6 5l2 -8q-4 0 -6 1l1 -4l-7 -2q-4 1 -7 1h-1
q5 -1 12 -8q-6 -7 -10 -7q-22 0 -33 18l-5 -1l-4 2q-2 -2 -4 -2v2q-2 -2 -8 -6h-8q3 14 12 14q4 -1 6 -3l-2 -5l3 5l-4 6l4 -1l2 1q-5 1 -8 4l5 1q-10 4 -7 18l-3 -1l-1 4q-20 8 -42 18l4 4q-2 1 -9 0l-7 5q1 5 1 9q-2 -6 -9 -16h-3q-2 7 1 8q-4 4 -11 10q2 1 9 1q4 3 7 4
l1 -4l1 3l5 -2l2 4v3l-1 1q-6 -1 -20 -1l-3 1l-2 7q-3 1 -8 5l-1 -2l-3 3l-3 -1v5l2 2l2 -6q2 2 3 6q5 1 16 6q3 0 9 -3t11 -3q1 6 1 -9q0 -2 -2 -6q0 -9 5 -14l2 4q0 -13 8 -13q6 5 15 17q11 5 10 7q3 2 9 3q11 -6 36 -13l3 -2q17 1 42 -18h2q17 -13 16 -22q14 -8 22 -10
l4 -4v-6l-9 1l-3 -4q0 -11 14 -17q0 -18 13 -14q-1 -2 -1 -4q0 -5 10 -4l-3 -3q0 -4 9 -7l-2 -1zM3296 587v-20l-1 -4q-6 3 -10 9v3l6 15h5v-3zM3340 538q-3 -8 -4 -12q0 1 -5 12q-2 -2 -5 -9l4 -10l-2 -6h-2q-1 2 -1 7l-3 -4h-3q-6 4 -9 22q-3 2 -8 7q-3 -3 -2 -6l-4 4
l-3 -3l-3 5q-3 -5 -5 -13h-4v3q0 2 1.5 6t1.5 6q5 1 11 7q3 2 5 3l1 -2h3q0 1 0 -9q4 3 6 6l1 2l1 2l4 -1l1 6l4 -2l1 2h4q0 3 -2 9v3q6 -5 11 -12l-1 -5l3 -4q1 -2 3 -14zM2386 1462l-10 -2l-1 4h9zM3347 490h-1v5h1v-5zM3246 589h-2v4h2v-4zM3370 468l-1 -7h-2q0 2 3 7z
M3405 425q-2 2 -6 4l-1 -1l2 -3h-4l-2 2l2 3q5 -1 9 -1v-4zM3121 719l-4 -9v-4q-1 -2 -9 -9h-3q-6 2 -10 4l-1 9q2 3 6 11l2 -1h3l4 1l3 1l2 -1l2 2h3zM2280 1546q-2 -1 -20 -2l13 3zM2434 1382h-7v1h7v-1zM3332 480h-1l-1 3h1zM3363 450q-3 -4 -5 -6q-1 1 -2 4q0 9 7 14
v-12zM3286 527l-1 -2h-4v3zM2258 1550l-6 1v2l6 -1v-2zM2428 1380l-5 1v1l5 -1v-1zM3248 582q-4 -2 -11 -9v-4q-4 -5 -17 -16l2 6q6 7 18 22l3 1v7l2 -3l1 2q2 -3 2 -6zM3372 448l-5 -6q0 -1 5 -6q-6 0 -8 1q-1 -1 -2 -4q0 -11 6 -15q-5 2 -9 9l1 6l-2 3v7l3 -2q2 6 10 12z
M2420 1381h-4v1h4v-1zM3393 401q-4 0 -7 1l7 3v-4zM2247 1546l-8 -1v1l8 1v-1zM3275 516l-5 1v1l5 -1v-1zM3446 338l-4 2q0 4 3 10zM2255 1543q-4 -1 -13 -2h-3l-5 1l2 2q5 -1 19 -1zM3361 419h-4l-2 5l2 1q2 -4 4 -6zM3354 426l-1 -3l-2 1l2 2h1zM3443 331h-5l2 10
q2 -3 3 -6v-4zM2225 1552h-6v2h6v-2zM2241 1535h-4v2h4v-2zM2341 1499q-21 -4 -64 -17l3 -2q-6 0 -11 -3h-5l4 -3l-3 -3l-6 3v-2l6 -3q-2 0 -7 1h-4q1 -1 9 -3l-5 -1l2 -2h-12q-9 1 -13 1l8 3q-4 -1 -11 -1l-3 1q7 2 10 5h7l-5 2l6 1l-5 2q5 0 9 1l-4 1l-2 3l3 3h6l2 3
q17 5 22 5v2h7q4 -1 6 -1q-3 0 25 4q2 5 10 5q12 0 15 -5zM3364 406l-8 1l3 3zM2225 1543h-3v2h3v-2zM3260 507l-3 -2l-1 1l3 2zM2217 1549h-6v2h6v-2zM2228 1540l-4 -3l-5 3h9zM3398 375l-13 7q-2 0 -6 -1q-2 1 -4 3l-6 -4l-4 6l-4 -5q3 8 10 8q2 -1 7 -2q2 1 5 2
q1 0 5.5 -1.5t6.5 -1.5l3 -7v-4zM2216 1548h-8v1h8v-1zM2218 1543l-7 1v-2h-6v2h5l-14 1v1l22 -2v-1zM3339 402h-9v2h9v-2zM3338 395h-2l-1 7h2zM2244 1484l-1 -1l-3 1v1zM2311 1421q-5 0 -15 1l-5 3l3 4zM3326 404q-4 -1 -9 -2v3q5 -1 9 -1zM2189 1538h-6v2h6v-2zM3353 380
q-2 -3 -8 -6q-3 2 -7 6l1 5h10q2 -3 4 -5zM3406 322l-5 -8l-1 3q1 6 6 9v-4zM3305 409l-4 -2l-1 4l-3 -4v5l4 1v-4q3 3 4 0zM2171 1542h-6v2h6v-2zM2172 1535h-4v2h4v-2zM3866 -118q-3 -6 -10 -14q-9 -3 -11 -10l-3 3q-5 -1 -12 -8v-2q-20 -19 -39 -27l-1 4h-5q19 11 19 17
q-4 4 -10 11q12 3 30 31l1 2l2 -1l1 3l-3 -1q0 4 1 7l1 -2q1 2 3 7l-4 2l-1 -4q0 2 -1 6v6l-1 3l2 4v3v5q1 -5 2 -8l2 2l2 -3l3 1l-1 -4l2 -1l1 1q0 -3 -4 -8l2 -6q-2 -3 -7 -8l6 -2l-1 -3l1 -1q2 3 6 8l1 -3q-2 -6 -3 -10q4 -3 12 -7q4 3 12 7h5zM3382 316l-1 -3l-2 1l2 2
h1zM2279 1432l-9 1l-3 -2l-4 1q-10 -2 -20 2l-1 2h3q-4 3 -19 7l-3 -1q-4 1 -5 3v3h6q2 2 5 7l-7 1l6 2v3q8 3 14 3q3 0 14 -3h-4l-2 -2l5 -2h-5q1 -3 -1 -4q11 -17 30 -21zM2162 1543q-5 0 -13 -5h-5l3 3q4 0 7 1l-1 2q-2 0 6 1q2 -1 3 -2zM3327 453q-11 -18 -20 -18
q-10 3 -13 3q-15 0 -19 -2q-2 1 -6 2q-9 0 -9 -12q0 -16 13 -17l8 9q2 -2 4 -2l7 4q2 -1 6 -1l-1 2l8 -1l-2 -4l-3 3q-7 -8 -19 -16l-3 2l-1 -2q11 -11 12 -19l-1 -6q1 -1 7 -11q-5 1 -11 -7q-6 0 -5 10q-3 3 -8 10q2 2 3 8l-2 4h-2q-6 0 -6 -19q0 -3 -1 -10.5t-1 -12.5
q-2 -1 -8 -3l-4 6l4 15q-1 7 -1 11q-4 1 -7 -1l-2 12q2 8 13 30l1 -3q1 1 1 3q0 5 -3 10l2 -1q1 5 6 15l2 -2l5 7h3q5 -1 8 -4q26 -3 15 -3l4 2q3 -1 8 -2q5 0 14 12zM2140 1538h-3v2h3v-2zM2135 1542l-8 -1v2l8 1v-2zM2236 1437v-1l-7 3v1zM3342 318l-3 -4l-8 2q6 2 10 2h1
zM3399 262q-3 -3 -8 -5l-4 3l-1 -2h-5l3 7l1 -5l1 6q6 -3 11 0zM3299 364q-4 -9 -1 -11l-4 -6l-2 3q1 5 5 14h2zM3293 362l-2 -10h-3q-1 5 5 10zM3284 352h-2v4h2v-4zM3248 508q-2 -4 -7 -5l-5 1l-2 -2q4 -4 6 -8h-9l-2 2l-1 -4h-4q2 -3 7 -7l-5 1l-4 -3l4 -3l-2 -2
q5 -5 10 -14l-2 -5l15 -15l-6 -2l-6 4q-1 -1 -6 -27q-6 -1 -8 -6l-3 3l-1 -6q-3 -4 -5 -6v-5l4 -1q-4 -5 -5 -10l-1 -1l1 -3v-11l-2 -1v9q-2 -2 -18 -11q0 4 -2 12l-2 -2l-1 4v-2l-3 2l-2 -4h-4q0 1 -7 8l-5 -7l-4 1q-4 -2 -6 -4q0 4 -2 12q-3 -1 -8 -4h-3v3l-2 -2l-2 2
l-3 -1v1q0 8 -4 14q1 3 1 5q0 13 -10 10l3 2l-5 2v5h1q0 2 -2 6.5t-2 7.5q0 -3 2 11q3 5 6 8v-2q2 -1 9 -4l1 2q4 -4 8 -4l3 2h1v2q0 4 2 6h-3l3 3v4q7 1 18 6q2 2 14 21q4 1 12 7l3 -2q4 2 6 4l-3 3l4 3q4 6 12 21l1 -6l4 6q4 -5 7 -8q0 -4 -1 -7l6 1v-4l1 -1l2 2l5 -4
q5 -3 8 -3zM3049 578h-2v4h2v-4zM3321 310q-1 0 -9 -3l2 3h7zM2219 1414q-3 -4 -12 -6q-4 1 -6 4v3l6 2zM2877 744h-1v3h1v-3zM3349 308q-10 -4 -28 -14q-3 -5 -10 -11l-8 -3h-5q2 4 6 13l5 -1l-3 1l4 3l2 -2q9 14 32 14h5zM3310 309l-1 -3l-2 2zM2861 752l-1 6l-3 5
q4 -3 4 -9v-2zM3109 484q-3 3 -3 5v1h2q0 -2 1 -4v-2zM3293 308l-3 -3q-6 -2 -13 -4q-25 0 -24 0v5l9 3q2 -1 11 -4l7 1l6 -2q3 2 7 8v-4zM3296 275l-6 -4v1l5 4zM2024 1537h-3v2h3v-2zM3250 307l-1 -3l-2 1l1 2h2zM3127 412h-2v4h2v-4zM3263 282l-4 -1q-6 3 -18 10q4 2 8 2
h5q1 -1 9 -8v-3zM3244 303q-6 -1 -8 -2l-1 4q-6 -2 -19 -7l-2 1v3l1 4q2 0 6 1q1 0 8 -5l4 3q-3 2 -6 6h4l3 -3l2 2l3 -4l3 3zM2905 628l-1 -9h-2l1 9h2zM2979 544h-2v4h2v-4zM1996 1524h-4v2h4v-2zM3213 307l-3 -7l-5 2q-1 3 4 9zM3782 -169l-6 -2v-1h2q-2 -10 -35 -28
l-4 -6l1 -3h-4l-2 2q-7 -2 -20 -9q-17 -16 -54 -33l-5 2q-3 1 -6 5q-3 -1 -9 0l4 3l-1 1l-3 -1l2 1h1q5 1 5 4v1l3 2l1 -2q6 4 18 13q26 11 81 45q3 5 19 14l-2 -3l2 -3l-3 -5h2l9 4l1 -2zM2903 608l-1 -8h-2l1 8h2zM3062 443l-4 4h4v-4zM3056 447l-2 -2h-1l1 3zM3180 329
l-9 -4l-3 2l-1 -1h-4l3 4q9 -1 14 -1zM3200 309q-1 -1 -6 -7q-4 3 -9 10q0 -1 10 -1zM3108 391v-1q0 -2 -1 -6l-3 2l-4 -1l1 8zM2901 589l-1 -4h-2l1 4h2zM3043 443l-2 -2l-5 1v4zM1979 1536l-27 -8q-7 0 -6 3h-5h-7q-5 0 -12 1h9q6 1 9 1l2 1q-11 0 -33 1l4 1l-3 1h7l4 3
q6 -1 20 -4q1 3 3 4l6 -2l6 1zM3089 392q-1 -3 -1 -7q-4 9 -20 16l4 6l4 -2l3 2q8 -15 10 -15zM1964 1513q-6 -2 -17 -5l2 3q-9 0 -15 -1l4 4l-4 3h12q2 0 7.5 -2.5t10.5 -1.5zM2922 530h-2l-1 5h1zM3184 302q-4 3 -15 8q-5 -2 -8 -2q-18 0 -49 11l-6 -3q-14 6 -22 6l-1 5
q-6 5 -11 5l6 12q3 -2 11 -3l2 3q3 -2 14 -7l3 1l6 -9h19q2 2 5 7h3l5 -5l2 2l9 -4h4q1 -6 15 -12l8 -1v-14zM3633 49q-6 -11 -6 -29.5t-35 -61.5q-14 -10 -36 -32q-11 -14 -31 -43q-6 -3 -25 -5q-6 -4 -19 -11q-6 0 -11 -5l-4 1v4l-3 -1l3 6q-4 0 -8 -3l4 6v3q-2 0 -9 -5
l3 -1q-6 -1 -18 -8q-1 0 -7.5 4.5t-12.5 2.5q-6 3 -13 15q7 15 4 24l3 4l-2 1q-10 -5 -14 -5q6 6 9 11v12q-7 -9 -11 -15q-4 0 -11 -2l2 3l5 1q19 26 21 32l-1 3h-1q0 -1 -12 -15q-10 -1 -24 -16v-4l-7 7l3 -2q1 4 1 8v6q-1 4 -1 6l-5 2l-1 4l4 3l-2 3l-2 -1l1 3l-3 3l-4 -1
l-6 4l-4 -2l-12 8l-7 -2q-18 -6 -57 -9q-10 -4 -29 -12q-2 -1 -7.5 -7t-10.5 -6l-5 1l-7 -1l-2 1q-7 1 -8 1q-17 0 -29 -10l-3 1q-12 -9 -22 -9q-13 0 -23 11l-2 -1q0 5 4 10l1 -1q9 6 9 14q3 5 6 14v39q0 20 -9 41l3 -5l3 3q0 2 -1 6t-1 6q0 -4 5 -12l4 8q-5 14 -5 23
q0 10 13 36v-4v-5q14 13 37 27l9 -2q9 5 17 7l5 4q21 4 22 4q11 4 16 18q3 2 9 7q-1 2 -2 5q0 -4 13 18q-1 -1 -1 -3q0 10 7 -14q1 4 1 9l2 -3l2 4l-4 5q2 2 2 5l3 -2l1 1q2 0 10 -2l1 1q-3 1 -5 3q3 1 1 10q3 1 5 3l5 -4l-2 6l1 1q3 0 4 -2v5q1 5 4 6l1 -2l1 2l2 -3
q3 4 4 7h2l2 1l2 -1q2 2 4 6q13 -4 13 -24v2l2 -2v5l6 4q1 0 6 -6l2 5l4 -5q0 3 3 6l-2 1l1 2l-3 1l-1 3q3 3 8 11l5 3l-1 5l4 5h4l-1 4l4 -2l2 6q6 -2 17 -2l3 2l2 6q-1 2 -3 4h-5l-1 5l2 -4l1 3l7 -5l2 2q3 -5 9 -7l2 2l5 -6q4 1 6 2q4 -3 8 -4l6 5l-1 -6l3 2v-2l2 -2
q2 2 5 7q1 -3 3 -4h1q-1 -3 -5 -8l-2 -4q-5 0 -9 -7l3 -2q-5 -9 -10 -15q7 -9 16 -18l2 1l14 -12l8 -2q4 -9 14 -13q26 0 26 58q0 2 3 8v4l2 3l2 -2l2 3q-2 1 -5 3l3 6l2 1q2 8 10 18l-2 -2h3q-1 -7 5 -16l-2 -3l2 -4q1 -3 1 -21q0 -6 3 -8h3l2 2l4 1q2 -6 8 -10
q0 -7 -3 -21l4 -9l2 1v-10q0 -2 -3 -8q4 -4 1 -10q6 -6 14 -9l3 -6l1 2l6 -7l1 2q3 -2 3 -4q-2 -2 -2 -4q0 -1 1 -2l3 -3q1 -6 2 -9q-1 -2 -1 -5q0 -6 5 -10l2 6l5 -5l2 2q0 -4 -1 -15l3 -3l1 2l-1 -4q5 -8 16 -22v-12zM3080 384l-4 -6l1 -5l-2 -28q-4 3 -6 6l-2 -4h-3l-4 4
v-6q-17 14 -44 48q-3 10 -15 31q-1 5 -9 11q0 9 -19 30l-2 6q-17 15 -16 15q-6 7 -16 20l1 6h4l12 -6l13 1l9 -12l1 -3q2 -3 7 -8q9 -3 14 -10l1 -4l3 -4l1 2q1 -1 8 -10v6q2 -1 7 -8q1 3 3 5l1 -5h-3l6 -3q3 -4 4 -7v0l1 2q-1 4 -3 5l5 -1l-2 -2v-6q2 -4 9 -4l-2 -5l7 2
q4 -3 6 -5q-3 -2 -7 -6v-2q0 -14 13 -9q0 -7 7 -15l-3 -4l1 -3l5 3l6 -1q0 -5 6 -11zM1989 1435h-5v2h5v-2zM2987 431h-3v2h3v-2zM2974 439q-7 14 -7 11v1h4l3 -5v-7zM2983 427h-1l-1 2l1 1zM1935 1523h-2q-4 0 -16 -2l-6 -9q-1 -1 -11 -10v0l-3 -2l-5 3h3l-1 2q-2 1 -7 0
q-8 2 -12 5q-6 -1 19 -1q-6 3 -9 3q10 0 15 2v1l-2 -1l-26 1q9 2 29 5l-5 1l3 1q4 -1 -8 -1h-6l1 3l-3 -1l-3 1q-1 -6 -10 -6q-3 0 -8 1l4 1q-4 1 -11 4l4 1v3q-4 0 -7 -1l-2 3q2 4 13 4l2 -3q6 0 11 -3l5 6q3 0 7 -4t7 -4h1q-4 3 -6 9h7l7 -1v-2l2 -2l4 2q5 -6 25 -9z
M1874 1534h-4v1h4v-1zM2983 425l-1 -3l-1 1l1 2h1zM1972 1431l-1 -2l-3 2v1zM1869 1533h-4v1h4v-1zM2992 406q0 -2 -1 -2l-6 7v5h4q3 -6 3 -10zM3004 390h-1l-2 3h2zM3007 384h-2v4h2v-4zM3647 -255l-8 -2q2 3 8 7v-5zM1960 1427h-2v1h2v-1zM1961 1425h-2v1h2v-1zM1859 1519
v-1l-3 1v1zM1853 1521l-6 3h4zM1942 1425l-3 -1v1l2 1zM1930 1422h-5v2h5v-2zM1925 1418h-5v2h5v-2zM3472 -138l-1 -3l-1 1l1 2h1zM3485 -153l-4 -3v0q0 4 1 6zM1917 1415l-6 -2l-3 2q5 1 8 3zM2744 572l-1 -1l-3 1l1 2zM1899 1413l-3 -2l-1 1l3 2zM1904 1407q-3 -1 -5 -2
l1 3zM1897 1404l-5 1l5 5v-6zM2766 533q0 -17 -19 -16q-6 7 -9 29l2 1l2 21l6 2q18 -28 18 -37zM3392 -93q-5 0 -8 -3l-2 1q-2 0 -7 1q2 3 7 3h2q3 -1 8 -2zM1887 1401h-3v2h3v-2zM3582 -307l-4 -1v2l3 1zM3476 -169q-3 -5 -8 -15l-1 2q-8 -7 -15 -18l-1 3h3l-2 3l-2 -1
l-1 2q-1 -3 -5 -7l-1 1q-3 -3 -7 -6l-2 2l-6 -1l3 1l-3 3q0 8 1 14l2 -4q1 2 1 13q0 8 5 14q8 -5 16 -7h6l1 1q5 0 16 4v-4zM3588 1352l-7 3l-3 -1l-19 5l-2 -1q-4 0 -14 6t-15 5q-12 -2 -10 -2q3 0 -17 7v1l-4 4l-1 -3q-2 2 -5 3l-1 -1v-3q1 -3 14 -6l-3 -3l1 -2q2 1 4 1
q-1 -3 -5 -8h-14q2 -7 13 -7l2 2q5 -3 14 -8v-3q6 1 27 -11v-3q-8 2 -20 3l-3 2l-3 -1l1 -2q-5 -3 -13 -9l-8 -2l2 -3h-3q0 -1 -3 -6l3 -1l-7 -7q2 -2 4 -6q-21 9 -25 9q-2 0 -11 -3l-2 1q-2 -5 -2 -9q-6 5 -9 9q-2 -2 -8 -5l4 -4q-4 1 -15 4l-1 -3q2 -3 7 -10v-2
q-1 -16 11 -16l3 1l9 -3v-1q0 -2 20 -17v-4h-3q-2 1 -3 7l-3 -1q0 -2 -1 -4q0 -11 18 -19v-4h-5l-3 1l-6 -7q4 -5 13 -13l-4 2l-7 -5l-3 2l-1 -2l3 -1q4 -5 8 -15q-1 -4 -4 -11q-7 2 -41 34.5t-40 41.5q0 1 1 8q0 7 -8 9h5q4 2 6 3.5t3 19.5v1l2 2q1 4 -1 9l7 6l2 -1l2 2
q-1 2 -16 19q4 0 11 2q-17 3 -15 3q-6 0 -9 -2q5 -8 11 -12l-2 1q-5 0 -7 -6t-5 -8l-5 6l-3 -1l-2 1q-2 4 -7 11l-5 -3l-6 3q-19 0 -17 -1l-2 -5v-3t-1 -4l1 -5l-4 -5q2 -3 6 -11h3q1 1 3 1q2 -1 7 -3h-5l-4 -2q-2 1 -6 2l-4 -4l-6 1l-3 -1q-7 0 -10 2q5 0 8 1q-4 3 -14 6
l-6 -1l-14 4l-5 -5l2 -2l-7 2l-7 -2q-6 1 -10 2v-3q-14 3 -19 3q-25 0 -23 -10l-4 -6l2 -6q-3 -4 -8 -12v-8q0 -5 -14 -19q6 -6 23 -6q5 -11 9 -11l2 3l6 -1l-2 -4l4 -1q4 1 7 5l1 -6l2 3l-5 8q-1 0 10 0q-5 0 31 -16h-7q3 -1 9 -4q3 -4 9 -9q2 -1 2 -13q8 -12 22 -40
q-3 -5 -3 -32q0 -11 -8 -30t-17 -19l-12 3l-3 5l-2 -3l-2 3q-3 0 -5 -9l-3 1l-4 -4l3 -1q-3 -3 -6 -10q3 -4 7 -11l-18 -18q18 -12 51 -60q-2 -5 -4 -8l-2 2h-2q-2 -2 -1 -5q-2 2 -6 4q-4 -2 -10 -9l-2 1l-2 -3q-2 2 -3 8l-2 -1q-1 5 0 16l-2 2l-3 1l-4 8h-3l-2 2l4 2l4 -3
l1 2l-4 3q-2 5 -3 8l-6 3l-4 -1q-3 4 -6 4h-1l3 -2h-4l-1 -2l-7 7v4l5 2l-5 2l-1 7l-2 3l-9 4l-1 -1q-2 2 -5 3l-5 -2l-2 2q-7 -5 -20 -17l-3 1l3 4l1 4l-7 2q1 4 5 12q-6 6 -9 10v-3q-2 1 -4 1q-19 -15 -17 -23q-2 -2 -8 -3l-5 2l-3 -5l17 -14l2 3q3 -2 5.5 -8.5t8.5 -6.5
h3q9 10 10 10q6 -4 15 -6l2 2l7 -3q-1 -3 1 -6l-5 2q-11 -6 -12 -5q-1 -7 -1 -8l-2 -1l-4 3q0 -4 2 -5q-1 -3 -5 -6l-1 -8l1 -4q10 -3 15 -7q6 -7 16 -23q10 -6 16 -14l-3 1l4 -3q-5 1 -8 3l4 1q-4 1 -13 4l-3 -2h-4v-1h4v1q8 -3 23 -15q-4 -2 -11 -8h-1l-7 -3l6 2l3 -4l6 3
l11 -6l-6 -6l2 -1l1 2l2 -2l-1 -2l-1 2l-1 -2l4 -7h-5l6 -6l-3 -1l-2 2l-2 -5l-4 -1h2q0 -7 -1 -11l-3 2q0 -5 -2 -10l-2 3l-3 -2q3 -4 6 -6l-7 -6l5 1v-9l-2 3l-2 -6l-2 1v-4q-1 -2 -2 -6l-2 2l-1 -2l-2 1l-5 -3l3 -1q-2 -4 -10 -12l-1 2l-5 -4l3 -2q-12 -4 -7 -4l-3 -2
l-5 2l2 -4l-5 3q-2 -2 -6 -5v4l-3 -4q-5 0 -8 -1q-2 3 -5 9q-1 -3 -4 -4q2 -1 6 -6v-4l-2 1l-1 -2l-2 2l-2 -4l-3 -2l-4 4v-5l-5 2l-4 -5l-2 1q-5 0 -15 -10l5 -5v-4h-5q-6 11 -4 16q-3 1 -4 3l-5 -3l-5 6l-1 -2l-3 5l-1 -2v-3l-3 -2l-2 1l-9 -9h-6h-2l2 -5h-1q0 -7 -7 -11
q-2 -4 -2 -10q0 -10 12 -17v-5q11 -8 13.5 -12t11.5 -9q7 -12 22 -51l-2 -2v-6q1 -3 1 -5q0 -10 -22 -21h-3l-1 3l-1 -1l-3 2l-1 -4l1 -2l-3 -1l3 -1l-2 -2q0 -3 -1 -7q-2 1 -4 3l1 -6q-5 -4 -16 -11l2 2v18q-2 2 -7 4l-1 3q-5 1 -9 3l-4 -1q1 2 2 5q-1 2 -2 3l-5 -4
q-1 8 -7 21l-3 -3l-3 5l-2 -1l-5 6l-4 -2l-7 1q-1 5 1 10q-3 1 -7 4q-5 -3 -7 -6q2 -6 2 -11q0 -6 -4.5 -18t-4.5 -19q0 -10 4 -12l4 2q5 -7 10 -25l-2 3l-1 -2q0 -4 11 -12h7q4 -5 11 -11q14 -9 14 -22q1 -20 2 -24q6 -7 11 -18v-4l-3 3l-3 -2l2 -2h-5q-10 7 -28 21v3
q0 -3 -8 13q-1 6 -6 17t-12 34l-2 1q-7 7 -11 14l-4 -3q-1 3 -1 5q0 35 1 30q2 5 2 9t2 7l-2 1v4q0 9 -10 30v-2q-4 13 -11 37l-3 1q-2 5 -8 14v-11l-3 -3l-3 1v3h-1v-3h1v-4l-2 1q-3 -3 -8 -9l-1 5l-2 -3l-1 2q-2 -2 -3 -4q1 4 1 7q-3 -2 -3 -6l-2 2h-3v10q1 6 1 9
q0 2 -11 31l-3 -2q2 -3 3 -5l-5 5l2 2l2 1q-7 9 -11 9l-1 -1l1 3q0 2 -2 5l-1 -5l-3 5l-1 -3l-9 12q-1 8 -11 24l-5 -2v-2q-5 8 -6 15h-2v-3l-2 1l3 -3q0 -2 -1 -7l3 -5v-3l-2 1l-2 -7q-2 3 -4 10q-2 -3 -1 -9h-2l-2 5v0v-7l-1 4l-1 -4l-3 5l-1 -2v-4l-1 2l-2 -2l-1 6
q-3 -2 -6 -7v7l-1 1q-6 -3 -15 -14q1 -3 2 -9l-2 -4l-5 -4v-1q-3 -2 -9 -4v4q-2 -3 -5.5 -9.5t-30.5 -33.5l-1 -7q0 -1 -7.5 -2t-7.5 -8l-1 2q-11 -5 -11 -13q0 -29 2 -22q5 -8 5 -6q-3 -12 -8 -27l3 -1q0 -4 1 -14h-4h-3q-2 -5 -5 -15q-7 -1 -9 -9t-8 -8q-8 0 -11 12
q-2 2 -4 9l1 4q-8 14 -23 44q-2 8 -7 23q-10 18 -24 61q1 5 0 8l-1 -1l2 3q-4 1 -4 20q0 6 -5 9l6 6l-7 1v4q0 2 2 3l-6 2l-1 -5l-2 -1q0 -2 1 -4.5t1 -3.5q0 -4 -15 -10q-1 0 -24 19l-2 5l4 -2l3 2q7 0 10 8l-2 1q-4 -2 -8 -3q-2 0 -16 10v3l-3 -1l4 5q-4 0 -5 -1l-1 2
q-1 -1 -2 -1t-2 -1q-2 0 -5 7t-8 7q-2 9 -8 12l-3 -3q2 0 -14 -2l-3 -2l-7 4l-28 -5l-2 1h-4q-4 1 -10 4l-4 -2q-10 2 -15 2q-8 0 -22 5q0 7 -10 21q-8 -1 -24 -11l-7 4h-6q-13 4 -38 33l-3 2q-2 4 -10 16l-4 -3l-7 4v3q-5 0 -2 -7l-6 1l-2 -2l-4 3l-2 -2v-10h1q4 -4 8 -12
l1 -1l6 -9v-2l5 -3q12 -21 12 -22l14 -22l4 1q0 -2 6 -9v1l4 -1l7 3l12 -1l9 1l24 31l-2 -9l2 -2q1 -7 0 -9q3 -6 33 -20q4 -6 14 -15v-3q0 -4 -7 -13.5t-7 -14.5l-4 3q-10 -5 -4 -20v-3h-2q-4 0 -15 -15h-3q-6 -3 -11 -13q-16 -2 -37 -14v-8q-24 -7 -34 -13q-17 -9 -14 -10
l-4 1l-28 -10q-10 -10 -21 -10q-2 0 -8 1q-11 22 -10 53q-8 11 -21 32q-2 6 -8 17q-3 3 -9 8h-3q-10 9 -10 30q0 26 -22 29l-4 6l1 3q-23 46 -32 47l-4 -2q3 7 3 21l-1 1q-2 -5 -7 -26l-12 11l-1 4q-4 7 -10 18l-2 -5q3 -11 16 -25q0 -23 30 -58l-3 -4q1 -4 19 -25v-5
q4 -4 5 -7q0 -1 -1 -3q0 -29 20 -43v-4l1 2q4 -15 17 -43l1 7q1 -3 6 -9l2 1q11 -10 33 -31v-3l2 1l3 -5v-5q-4 -1 -10 -7l3 1q7 0 12 -8.5t12 -8.5l15 6l9 -2l12 7l5 -1l9 3l5 -1q5 1 14 4q18 6 9 6q1 0 5 -1q0 -6 -1 -19l-2 -4q0 -8 -9 -30q-3 -2 -5 -5.5t-7 -15.5
q-11 -33 -39 -61q-49 -48 -52 -51q-13 -16 -14 -15v-4q-3 -2 -9 -7l-1 -6q-5 -11 -10 -21l-3 -2q-5 -27 -5 -20q0 -3 4 -7.5t4 -7.5t-1 -7.5t-1 -6.5h1q-4 -13 4 -29l7 -4q1 -3 3 -4q-1 -5 -2 -11q0 -8 1.5 -24.5t1.5 -24.5q0 -26 -50 -47l-2 -4l-24 -24l-4 3v-7v-6
q1 -2 4 -6q5 -32 5 -30q0 -2 -1.5 -6.5t-1.5 -7.5v-1h2q-2 -8 -17.5 -13.5t-21.5 -15.5q5 -3 5 -9q0 -25 -8.5 -30t-37.5 -42q-23 -31 -43 -31q-6 0 -6 -5l-7 2l-7 -4l-10 3l-6 -2l-5 2l-15 -7l-6 1l-16 -6q-7 5 -11 6l-2 5l-4 -4q1 2 1 4q0 7 -7 15l1 3l3 -1q1 4 3 8
q0 -7 -13 28q-2 10 -10 26q-13 12 -16 30q-2 11 -7 32v27q-35 53 -35 75q0 4 1 12v12l2 2q2 11 8 31q2 4 6 11q2 1 3 2q7 5 7 18q0 6 -4.5 17t-5.5 16q4 5 5 8q-4 9 -7 21q-7 8 -8 21l-1 -1v4q-11 20 -34 45l-1 7l-3 2l5 2q-4 2 -5 5l-2 -2l-4 7l2 2l1 -2q5 15 4 17l2 -3h4
l2 2q-4 1 -8 5l3 -1q0 3 2 9l-4 1v3q7 7 7 25q0 2 -2 9l-2 -1l2 5l-2 3h-3v-3l-2 2l-2 -1q-2 7 -11 13v-4l-6 -2l-3 3l-1 -2h-3l-3 2l-1 -3l-2 4q-2 -4 -4 -6l-3 2v-2q-8 2 -10 13l2 4l-4 -1l3 2l-5 1l1 2q-3 4 -20 10l-2 1l-2 -2q-13 1 -31 -9h-4v3l-1 -2q-8 -5 -25 -11
q-5 -5 -8 -5q-8 0 -15 9l-4 -3l-4 2q-10 0 -13 -2l-4 1q-9 -2 -30 -12l-2 1v-1q-23 5 -49 36l1 2l-2 -1l-11 6l2 3q-7 2 -13 13l2 -2q1 1 2 4v1l-2 -1l-2 2q-1 1 3 5q-8 11 -13 16h-1q-8 0 -5 8l-2 4l-3 3l-2 -3l-4 5v6h5l1 3h-2q-2 0 -5 -1.5t-4 -1.5v3l-6 -2q0 3 3 6h-6
l3 2q-2 1 -6 0v9q1 1 9 3h-3q4 3 7 3l-2 2q-3 -1 -6 -1l4 1l-6 2l1 5l-2 -1q-1 4 -9 12q7 4 13 21v5q6 16 6 21q0 3 -1 13l-4 7l2 2q1 3 2 9l-3 10l-2 -3q-2 8 -5 10q7 12 18 38q4 4 11 13q1 7 7 20q5 4 13 12q1 5 7 13q17 6 43 34l-2 7q1 11 8 22q2 11 19 19t24 33l4 1
l3 -2l-1 3q7 -11 30 -9l10 -4q7 5 22 12l4 -1q9 16 53 16q8 0 13 -3q3 2 12 6l8 -3l4 3q7 -3 10 -3h5q4 3 12 7q1 -2 3 -3l1 2l6 -8l6 4v-3q-6 -6 -6 -9q0 -5 7 -8q0 -11 -6.5 -16t-6.5 -6l5 -7q4 0 5 -2l3 1l2 -4l19 -8l7 2l24 -8q4 -12 18 -17q21 -7 30 -13q13 0 13 10
q0 3 -1 8.5t-1 7.5q0 7 23 12q4 -1 13 -4l3 -5q9 -4 21 -4q2 -3 2 -7l2 1l2 -2l6 2q13 -3 41 -11q7 4 11 8l1 -2l4 3h3l4 2l6 -2l5 1l-2 -3l5 -4l2 4q2 -2 6 -4h5q6 1 11 4l3 3l1 -1q6 21 15 47q-3 17 -2 21l-2 3l4 6l-2 3q-3 -1 -8 -4l-8 3q-10 -11 -22 -11q-2 0 -11.5 6
t-13.5 6q-6 0 -4 -9q3 -1 -9 -1q-6 0 -7 3.5t-2 3.5l-2 -1l-5 4l-5 -4l2 5q-2 4 -7 2l-3 5l-2 -1q-1 1 0 8q-5 2 -7 4l4 2l-4 4l2 3q-2 4 -4 6l4 4q-3 1 -10 0v7q2 1 4 3q0 1 -1 1l-2 -2q2 2 5 8q-4 0 -8 -1v2q-3 1 -11 3l-5 -2l-3 2q-6 -2 -9 -4q2 -2 2 -3q-1 -1 -1 -3
t2 -4l-5 4l-2 -1q-4 0 -5 7l-4 -6q0 7 8 -15l-2 3q-4 -5 -1 -7l-4 -1q6 -3 17 -9q0 -5 1 -8q-2 1 -7 4l-5 -2l5 -6l-3 -1q-3 2 -5 4l-1 -1q0 -2 6 -15l-4 4l-5 -3l-3 6l-3 -4q-1 5 -9 16q1 3 8 7l11 -6h2l2 3q-3 1 -8 5l-2 -2q-3 1 -8 0l-4 3l-1 -3l-6 8l5 1l-2 2l-3 -1
q-7 8 -18 23q2 6 2 12v5q-6 4 -15 13l-3 -1l2 2q-5 1 -22 12l-4 -1q-7 6 -10 10l3 1l-3 2l-2 -1v4q0 4 -4 7l-2 -1l2 2l-3 2l-7 -7l-3 7l4 4l-4 4l-1 -2q-2 0 -7 -1.5t-7 -1.5l-2 -3l3 -7h-1l-1 -3q0 -5 8 -10t9 -7q17 -25 29 -23q0 -2 -2 -4q14 -5 31 -22l-1 -3h-4
q0 1 -9 10q-10 -1 -10 -12q3 -2 9 -7v-4q-5 0 -8 -7.5t-7 -7.5l-4 4q-4 -4 -4 -17q0 -3 -4 -5q-6 3 -9 6q-24 7 -18 8l-1 6l5 -1l3 2l8 -3l21 4q2 4 7 9q-2 9 -8 18l-3 -1q-2 0 -6 9q-7 1 -13 9q-18 3 -38 26q-5 20 -19 20l-20 -13l-2 2q-8 -8 -12 -8q-6 0 -11 7l-1 -2l-3 2
l-1 -2l-7 2q-9 -4 -12 -8q-1 -8 3 -10l-3 -7q-10 -4 -28 -15v-2q-13 -16 -13 -19q0 -5 4 -8q0 -1 -6.5 -7t-4.5 -10q-8 -3 -15 -13q-14 2 -45 -11q-3 0 -6 6q-4 7 0 7q-4 1 -8 6q-2 -1 -6 1q-4 -5 -6 -5q-1 0 -7 2l-5 -2q4 12 4 23l-5 -2l2 6v1l-5 -4v1q0 4 5 17t5 24
q0 4 2 5l-1 1l1 4l-1 1h3l-3 1l-1 7l-2 -1l-1 1v3q4 3 11 3l4 6q4 -1 11 -4l4 2q19 -1 57 -5q4 5 9 32q2 -1 6 -7v1q-2 7 -5 8v3v6q-4 2 -10 8v6l3 1h-7l1 3l-5 2l-3 -2l-2 5h-3h-5q-4 1 -6 1l3 2v4l-1 1l-4 -1l3 4q4 0 14 3l6 -5l3 2q7 -1 12 0l-2 2l1 6l-4 7q4 -1 7 0
q0 -6 12 -6q5 1 8 3h-4q6 2 16 10v3q0 9 10 10l2 -2l8 5l2 -1l4 2l-2 2l5 1l-1 2q2 5 9 15q5 4 20 9l5 -2l1 3q2 1 5 1q2 0 8 -3l1 2l1 -3q1 4 1 7q1 -1 3 -1q1 0 5 2h-4l-3 6l4 2q-2 3 -4 5q5 0 14 -2l-1 -3l4 -2h9l-4 -4q3 -1 8 -3l6 5l1 -2l1 2l7 3l7 -5l2 1q2 -4 7 -7h3
q1 4 16.5 10t20.5 6q3 0 6 -3.5t9 -3.5q7 3 11 6l-5 2q3 1 12 0l2 6q-2 6 -4 13q0 21 14 21l14 -12l6 6v15l-4 -2l-6 3l3 3l-4 1v5q6 3 20 6l19 -3q9 0 7 3l5 3l3 -1l5 3q5 -1 9 -1q-2 2 -7 4q-1 0 -3 -1q-7 0 -8 8q-4 -1 -54 -11l-3 3l2 3l-5 -1q-8 3 -12 5l-2 4l2 8l-3 3
q0 4 -4 11q2 2 5 8l3 -1q16 14 25 21l6 1l1 2l-2 5q-4 3 -13 8l-4 -3h-6l-2 2l-2 -2l-1 2q-1 -3 -1 -5q-4 0 -8 -3l1 -3l-5 -3l5 -5q-11 -6 -32 -21l-2 1v3h-2v-3h2v-4l-4 -1l-1 -1l1 -3q-2 -2 0 -7l-3 -1q0 -4 1 -12q7 -3 19 -12q-2 -4 -8 -6l3 -3l-4 -3l-3 2q-1 0 -7 -6
h-6v-1l3 -1h-3l4 -3v-3l-3 -2l1 -7q-4 -18 -13 -16q-7 -3 -11 -5q1 -3 0 -6q-4 1 -15 0l2 3q0 2 -2 3.5t-2 3.5q1 2 2 5q-5 12 -11 25l-2 -1q-4 0 -5 11l-5 4q1 2 1 5l-1 3q-1 -5 -8 -13l-3 1l-1 -2q-2 0 -9 -6.5t-11 -6.5q-2 0 -5 1h-5l2 3q-6 0 -14 7l3 3l2 -2h2l-1 3l5 3
l-5 1l6 3h-2q-5 -2 -7 -4l-2 4l6 2l-4 1l8 7l1 -2l5 4h-2q1 0 -11 -5q0 3 -1 9l-2 -3h-3l2 3l-3 1q5 2 17 3l1 -3l4 3l-1 3q-3 -1 -9 -2q-4 1 -11 1h4l1 3q-3 2 -6 3l4 2l6 -2l5 2q-4 1 -10 1q2 1 0 3l7 -2q0 2 -2 3h4l2 2h2l3 -4l1 2h1q-4 3 -6 5q5 -2 8 -2l4 3l2 -1l1 1
l-12 3l6 -1l5 3l4 -3l1 1l-2 3h4l-1 1l5 1l4 3l3 -3h2l3 2q2 -1 4 -1q2 2 0 3l4 2v1l2 2l-1 2q-3 -3 -7 -4l3 -1q-7 -2 -10 -2l2 2l-3 -1l5 3h-3q3 3 10 8l2 -3l5 3l-2 2l3 1l-1 1l3 3l-2 -2l1 -1l6 1l-3 1l4 1l-4 4l6 1l-4 1q1 2 6 5l-1 1l3 3l4 -2l5 3q-4 0 -10 1h1l5 4
l-1 2q9 0 8 1l1 2h8q-1 3 -7 3q2 1 0 2q6 -1 7 -3l4 4l-2 1l-4 -1l4 2l-2 1h1q2 2 3 5q1 -3 3 -5l4 4h-3v2l8 -1l5 2q-6 1 -13 1q2 1 6 2l4 -1l1 5l4 5h2l2 -2l3 1l-1 1l2 1v-2h3v2h-3q3 1 0 2l5 1l1 -4q4 3 5 6v-6q2 1 3 2t1 3l7 1q4 -2 7 -2l-4 7q4 -1 7 -2l7 -3l2 2h-3
q6 2 13 10h4l2 -1l1 1l3 -1q-1 0 -8 -8l2 -1q9 9 13 10l1 -6l5 2l-1 2h3l-1 3q2 1 4 1q1 0 5 -1l-5 -4q3 -1 5 -5q1 2 3 7h5l2 -2l6 1l2 -3l8 -1l-11 -3q-3 1 -7 1l-2 -1q1 -2 7 -2l2 -4h3l2 2l6 -2h-7q2 -1 5 -1q2 0 3 2l4 -2l6 4l8 -3q-4 1 -9 1l3 -4l4 1l3 -2q1 1 4 1
l-1 -4l7 3q21 -1 56 -16l3 1q5 -3 17 -13q0 -13 -25 -13q-24 0 -43 9h-3q4 0 -13 5h-6q6 -3 12 -9h5l-2 -1q5 -1 16 -7q-2 -4 -3 -5l6 -12q12 -4 26 -9q2 1 6 1l1 2l-5 6l-2 -1l-11 6l5 4l14 -6l3 1l10 -3q5 0 8 2q-1 2 -10 8q8 6 19 14h4q3 0 12 -2l-3 -2l2 -2l1 2h3l3 -2
q-1 3 1 9q0 7 -8 7q1 -5 1 9q0 5 -7 8q5 2 30 -9q-6 1 -15 -5q5 -2 11 -8q3 -1 8 -1q10 0 10 11h6h5l-4 2q10 4 29 9l2 -3l3 2l-3 3l8 3l5 -1l1 -4l-5 -2q2 -2 11 -2h5q1 7 19 4q8 4 12 4h7q1 -5 3 -6h5l-1 4q5 1 8 3q0 1 -10 8l7 3l36 -6l3 -2l2 1q9 0 38 -13q1 3 2 9h-4
q-6 0 -11 8h-2l-7 2l-2 -2l-2 4q2 1 3 3l-6 8l-5 1l-1 3q10 3 11 21q-2 0 17 0t19 -9q-1 -5 -4 -7q5 -3 13 -7q4 -7 3 -9q-2 -5 20 -20v-5l2 -6q-5 -4 -8 -9q-3 0 -11 -3q-2 0 -5 1t-4 1t-4 -1l6 -5q16 -3 23 -3h4l1 5q5 2 10 5v6l5 4q-1 2 -5.5 5.5t-4.5 5.5v1l14 3
q9 -7 21 -15q4 -2 15 -4l1 1l-17 3q-1 5 2 6q-9 10 -28 13q-5 -1 -16 -3q-2 2 -7 8q-1 5 0 10q-6 7 -17 10q2 2 3 6q5 1 9 4q-2 2 -6 7q7 -2 9 -4q1 -7 6 -14q10 0 31 -6h4l1 2q-4 1 -12 5l-4 -1q-6 1 -18 7l7 2q5 -2 11 -3q1 1 1 2l-4 2h-4q7 2 11 2q12 0 28 -7h12
q-7 3 -22 9q-4 3 -13 10l2 3q22 0 52 2l2 2l-1 1l-4 2h-1l2 2l-6 2v5l2 -1q17 2 48 12l-3 1h18l-2 -2h7q2 0 15 3q7 -1 13 -1q-5 4 -10 4q12 0 23 1v-2h2v2h-2q-5 1 -14 4v3q7 5 15 5q3 0 19 -2q-4 -1 -10 -3v-1q4 -1 12 1l3 -2q3 1 12 1l1 -2l-3 -3l4 -2l22 4q6 0 16 -2.5
t14 -2.5l5 -3l4 1q3 -2 10 -5l-13 3l-1 -2q6 -1 16 -4v-4q-7 -2 -21 -9h4q-7 -4 -8.5 -5.5t-18.5 -12.5h3l4 5q16 -1 33 6l2 4q8 -5 12 -5q4 1 4 4q5 -3 11 -7h4l-5 3h45l6 -6q14 0 41 -2l1 1q-4 5 -7 7l8 1l14 -3l4 1v-1q10 -2 7 1q7 -1 22 -6l-1 -1q2 -1 9 -3l-4 -1
q5 0 14 -5h-6q-2 1 -4 1h-1q4 -5 47 -18l1 3q-4 7 -5 11q30 -6 21 -6q6 1 14 3q17 -5 27 -6l-1 3l-5 2l3 -1l2 2l7 -3l5 2q-3 2 -9 4q0 2 2 4q-4 1 -9 -1l-2 4q4 0 6 -1l6 3l-5 2l43 -4l-4 -3h10h2l4 -3h-5l6 -4q4 0 7 4t5 4q11 0 27 -5l-3 1l-4 -2l2 -2q6 -1 19 -3v-1
q13 0 20 -3l-3 -1q7 -2 14 -2q4 0 13 1.5t14 1.5q32 0 43 -7q7 -5 4 -5q6 -5 45 -5l29 -2h3l3 3h1q11 -5 43 -13l1 2q0 5 -19 10l-4 5q17 0 28 -4l15 1q-12 0 43 -5l4 -2q71 -12 92 -24l2 1q9 -6 28 -14l1 1q-6 4 -18 9h2q1 0 9 -1l3 -2l1 2h6q-5 0 40 -12l1 -5l-4 1l1 -2
q-3 0 -9 1h-9q2 0 13 -5h-3l7 -3l-3 -2q4 -5 9 -3v-4zM1977 1281l-4 -2l-2 2l2 1h2zM1874 1379v0h-1h1zM1980 1274q-4 0 -10 -6l-2 6l7 2zM1945 1297h-2v3h2v-3zM1937 1266l-1 -5l-5 -6l-2 5q0 5 5 7zM2461 731l-1 -5h-2l1 5h2zM2316 863h-1v4h1v-4zM1832 1341l-5 -1v2l5 1
v-2zM1609 1556l-1 -1l-2 3l1 1zM1824 1339h-2v2h2v-2zM2350 809h-1v3h1v-3zM2364 797q0 -7 -5 -7q-4 0 -5 10l3 11h3l3 -4q1 7 1 -10zM1613 1515l-4 -1v1l3 1zM1678 1438l-4 -1v1l3 1zM1795 1313h-2v2h2v-2zM1847 1264v-8h-2h-2l-6 1q3 2 10 7zM1882 1218h-3h-2l1 1q1 2 3 2
zM1600 1503q-2 -3 -3 -6v5zM1796 1301v-4l-2 3zM1870 1237q-3 -2 -4 -4q1 -1 1 -2l-4 -3v-6q-1 9 -6 9h-2q1 3 -1 5l5 4q1 -2 3 -3q2 3 4 5h4v-5zM1797 1292h-2l-1 2l2 1zM1605 1484h-2v1h2v-1zM1797 1291l-1 -5h-2l1 5h2zM1588 1496l-4 1v2l4 -2v-1zM1600 1485l-7 1l4 2z
M1833 1256q-7 -3 -7 -6l-1 2l4 4h4zM1831 1253l-2 -3l-1 1l1 2h2zM1852 1248l-3 -5l-1 2l-3 -4q-2 -2 -7 -4l2 -1v-10h-3h-3h-5q-1 4 -5 9v15l5 -3l2 4l4 -3l-1 5q3 1 6 1h5l-4 -4q14 -1 11 -2zM1852 1228l-1 -4l-1 1l1 3h1zM1851 1228l-7 2l-4 3q1 1 3 1h1q2 0 7 -1v-5z
M2139 950l-6 -6l1 -2q-3 -1 -12 -7l-7 3l-1 4q8 3 25 8zM1577 1475h-13l7 2zM2040 1000h-1q-2 1 -7 2l4 2zM2025 1012h-3v2h3v-2zM2042 987l-3 1l1 6zM1464 1565h-2v2h2v-2zM2013 1017l-1 -1l-4 3l1 1zM2046 980h-4v2h4v-2zM1729 1300l-1 -3l-4 2zM2035 987h-2v6h2v-6z
M2058 966h-2v2h2v-2zM2411 613q-3 -2 -8 -2h-1h-3v5zM2062 962q-2 -5 -5 -7v5zM2003 1013h-1l-1 3h1zM1556 1459l-6 -1l-6 3h-5h3h2q4 -1 12 -2zM2023 982l-1 -1l-3 2l1 1zM1542 1464l-10 1v2l10 -1v-2zM1555 1454h-5l2 -2q-6 1 -17 7h11q6 -4 9 -5zM2015 987q-6 4 -17 12h5
q2 -2 8 -5q2 -5 4 -7zM1674 1323l-1 -1l-3 3l1 1zM1418 1565h-4v1h4v-1zM1894 1082h-1v2h1v-2zM1421 1561l-6 -3l-13 4h10q6 -1 9 -1zM2039 943q-9 -2 -13 -2h-4l-2 3q-9 1 -12 1l1 4l9 -3q1 0 5 1l9 -2l3 -2h4zM1673 1274l-4 -6q-2 1 -3 -1l-3 3l3 -1q1 3 7 5zM1674 1257
l-7 4l4 3zM1751 1193q0 -4 -12 -11l2 -3h-4q3 -1 10 -4q-10 -7 -31 -4l-1 -3h-6l-1 -2q-3 1 -9 2q-7 0 -9 -6h-4l-2 2q-4 -2 -11 -6l-3 2l-2 -1q22 15 28 15q1 0 7 6q-3 0 -9 -3l-5 3l-2 -1l-3 4l-8 -2l2 1l-2 3q13 8 13 9q-1 1 -2 5l-5 -2l5 4l-3 3h4l2 -2l6 2l3 -2l1 2
q1 4 4 11l-3 2l-1 -2q-4 3 -4 7q4 3 7 5h-5q-3 0 -10 -1l-2 -2l-3 1l-2 -2l-2 3h1q3 5 5 7q0 2 -1 6q1 1 3 1l-2 4l-2 -5l-1 2l-1 -2l-2 2q-2 -3 -5 -9q1 5 5 14l3 1l-1 3h2l-2 2l-6 -3l1 1v4l3 2q0 1 -3 5l2 5h5v2q1 2 3 8l4 -2l16 3q-5 -4 -14 -11l3 -1l-4 -2l3 -2l6 3h17
l1 -3q-3 -5 -14 -14l3 -3l-11 -2l6 -2q2 1 5 1q2 0 14 -18q3 -1 13 -15l-3 2h-4l-1 -1q4 0 10 -5l-2 -7l3 -2q3 4 6 4q8 0 8 -6zM1613 1363l-5 1v-4q-4 -1 -11 -7l-3 1l-16 -6l-2 1l-1 -2q-4 0 -9.5 -2.5t-8.5 -2.5t-8 1t-7 1v3q-4 1 -23 1q2 1 13 6v1h-4q3 1 5 3
q-5 -1 -7 -2v3q-2 1 -17 1q15 3 21 2l1 1q-3 2 -5 2q4 1 7 3l-3 2q-5 0 -18 -2l-3 1l4 3q3 -2 5 -2l2 2l-3 1l2 1v3q4 0 7 -2l1 -2l1 2l-2 2l3 1l-4 2h4q3 -1 9 -4q0 -4 -3 -5q1 -3 4 -7q3 3 4 6l3 -2q4 5 3 8l8 -5l1 5l6 1q4 -4 6 -7v7l6 -4l4 4q3 -1 6 -1l2 5h6q2 -3 3 -5
l4 3l-1 -3l3 -1l-1 -3l3 -1v-3h7l-3 -2zM1365 1556l-11 2v2l11 -2v-2zM1661 1259l-1 -3l-2 1l1 2h2zM1680 1233h-1v3h1v-3zM1670 1236l-2 2l2 1v-3zM2226 658h-1v3h1v-3zM1718 1166h-2v1h2v-1zM1837 1048q-1 -7 -4 -14q-3 3 -4 6t-2 10q3 1 8 6q2 -4 2 -8zM1675 1222l-4 -7
h-4q-4 1 -7 1q7 -6 7 -10q0 -7 -5 -17l-6 1q-8 -4 -13 -7l-1 2q-5 -4 -12 -6l-3 2l-6 -1l-3 5l6 2l-5 1h6v3q3 2 13 4l-2 2l-8 -2q2 1 4 5l4 2q-4 1 -12 5h2q1 2 4 5l-3 3l4 3l5 -3l1 2q3 -1 5 -1v2q3 1 4 3q-1 2 -5 2q13 6 9 6h3q1 -3 0 -6l4 5l-2 3h4l-2 -2l1 -1l12 2
q0 -3 5 -8zM1670 1553q-4 -1 -17 -4l-3 1l-3 -3q-24 -2 -43 -2q-5 0 -8 -1q6 0 19 -1h19q-5 -2 -24 -2q-7 0 -13 -4l3 -1q6 3 15 3h7q-6 2 -26 -13q-1 1 -3 1l-17 -13l4 -2q0 2 14 4h-2l9 -2h-6h-9l2 -1l-3 -1q6 -1 20 -3l1 -2q-1 -1 -5 -1h-7q-4 1 -6 1q-7 0 -13 -2l5 -1
l-5 -1l-4 3q-3 -2 -5 -4l1 -2q3 0 7 -3h7l-10 -2q7 1 18 -4v-4l-3 -1l-6 2q-5 1 -9 4l-5 -1l3 -1l-3 -1l11 -3q-5 -1 -14 -1l6 -2h14l-6 -2l-1 2l-4 -3h15l2 -2l-7 -2q-7 3 -18 3q-1 -3 -5 -2l1 -2l-3 -2q4 -2 6 -5l-1 5q2 0 6 -1h5l-1 -6q-5 0 -17 -2q-5 2 -13 5h6v-1l9 -1
v1l-9 1l-5 2l-20 -7q-3 1 -6 1h-3l2 -1q-3 0 -8 -1l1 -3q2 2 10 2h5q4 -1 6 -1q-4 -1 -13 -1l-8 -1l8 -3l7 3h6l1 -4h-3q-4 0 -7 -1l3 -3l6 3l17 -6l-4 -3h4l1 -1l-2 -3q2 0 2 1h4l-3 -4l4 -2l-2 -1l1 -4l-8 1l1 3l-3 -4h-6q-5 6 -23 15l-4 -1q-7 3 -14 5v-2q3 -1 8 -3h-3
q-3 0 -6 -1l25 -3q-5 -2 -8 -3l7 -3q-9 -1 -25 -4l18 6h-10l-3 2l-7 -3h2q-4 -1 -11 -5q17 -1 25 -1q-7 -1 -21 -4l7 -1l23 5l1 -2q17 -3 26 -3q-7 -1 -14 -3v-3l-3 1q-42 -19 -72 -19q-6 0 -11 8l-2 -6l3 -1l-1 -3h-2q-6 0 -18 -9q-15 -10 -19 -11l-3 2v-4l-8 -3l-1 3
l-2 -4l-3 3l-3 -3l-4 1l5 4v1q-2 1 -6 2l1 -3l-5 -4l-1 2l-1 -1l1 -4l-7 -1l-4 2v-2l-3 1l-5 -2q-1 -4 -4 -6q-2 1 -8 1q-1 -4 1 -5v-5h-8l-1 -1l6 -3l-1 -4h-9l6 -3l-6 -1l-3 2l-2 -2l2 -3l-4 -2l-2 2q-1 -1 -1 -2l4 -1l-15 -3l6 -4h-3l2 -1l-2 -5h-1h3l-1 -2l-6 -1l3 -2
l-6 1v-2l4 -1l-7 -2l2 -1l-7 -1l6 -2l-6 -2l3 -1l-5 -3l-1 1l-4 -1q6 -2 2 -3q2 0 4 -3q-3 0 -9 4l-4 -4v-1l-7 2q3 2 3.5 3t2.5 3l-3 -1l-1 2l-5 -2l1 3l-2 3q3 -1 5 0l-2 -3l5 5l-2 1l-4 -2l1 3h-4l1 -3q-4 0 -10 -3l-9 2q0 3 -6 3l4 4q-1 1 -8 0l4 1q-7 5 -3 5l-3 1l3 2
l-7 2q1 3 4 7l-3 2q3 1 5 3h-8l7 2l-5 1l4 2h-9l5 2l-3 3h6l-5 1h12l-1 2l3 3l-3 1l3 1q0 -2 4 -4h2q-3 2 -2 5l-5 1v6q-1 -3 -4 -8l-2 2l-11 -7v3q0 -1 10 5l-3 2l-5 -2q2 6 1 6l4 1l-5 1l2 2l-4 1q1 0 12 2l1 3q-3 -2 -11 -2l-1 2h-4l4 1l-4 1q5 2 11 2v-2h2v2h-2l2 1
q-3 1 -8 1q-3 0 11 3l-1 2h-8l2 3q23 1 15 1q2 -2 9 -3q-3 0 -12 -4h4q1 0 9 1l-3 1q4 0 7 1l-3 3h-2q-3 0 -4 1h2l-27 -1l7 3l-3 1l11 6l-2 1l5 -1l-3 -1q2 -1 7 -2l-6 1q-5 -1 -9 -4q3 -1 9 2q13 -2 19 -4l1 1l-3 1h2v2h1l4 2l-8 3v3l5 3l-2 2l3 3l8 -1l1 2l-3 2h-4
q4 2 7 2l1 2l-1 2l3 -1v1q1 2 3 3q-5 1 -7 0l-2 2l-3 -2q-14 4 -24 8q2 1 6 1q12 0 26 -5h2q1 2 2 5q0 5 -8 6h1l7 3l-4 1l3 2h-14l4 2l-5 -1l1 7q-5 -2 -2 -6l-7 -2l-1 -3q-4 -2 -10 1l-2 -2l-3 3q5 1 13 4v1q-4 -1 -7 -1q5 2 13 6l-3 1l3 2l-4 5l4 2l-4 4l2 1l-1 6l2 3
l-9 6l-2 2l2 5q-22 8 -43 5l-3 2l-12 -2l1 1q-16 0 -13 0l1 -2q-8 0 -20 4l4 1h12l1 2q-9 0 -16 1l6 2q-3 1 -9 -1l-4 2q57 0 43 1l1 2l4 3q6 -1 -15 -1q-4 0 -5 2l-2 -2h-6l-3 3h2q-7 1 -20 3l3 3q34 4 54 8q1 0 4 -1q17 0 21 9q3 1 10 3q2 -3 2 0q-5 1 -15 -1q-8 1 -12 2
l37 8l4 -3v3q3 0 8 -1h7q8 0 7 6q4 2 10 2l8 -1l4 -2q3 0 8 -2h3q-2 2 -7 3.5t-7 3.5h43l-5 -5h2l8 3l22 -3l-2 2l6 1q-7 6 -7 5h12q5 0 27 -6h9l-3 1l3 3h17q-7 1 -20 4q-3 0 18 0q8 0 9 -3v3q2 0 7 -1t8 -1q-12 2 -34 5h10h21h-2l15 -3l-1 3q3 -1 8 -2q4 1 7 2q-8 2 -12 2
q3 0 10 2l7 -2l1 1q3 0 13 1t14 1l52 -3q-51 0 -76 -3h81q-4 -1 -6 -1q3 -1 11 1l6 -2q6 1 12 0l3 -2l-92 -4l-1 -3h5q4 0 11.5 1t11.5 1h33q-12 -2 -20 -4q1 -2 3 -2v1q4 0 16.5 3t14.5 3q8 0 11 -1q-9 -4 -23 -11v-2l33 10l4 -2l6 2q7 -2 12 -1l6 3q3 1 12 1q5 0 26 -3z
M1840 1022l-2 -5v-2v-3v-10l-4 1l-4 -5l-5 3l-1 -1q0 3 2 11q-2 7 -4 11v4l3 -1l8 6q5 0 7 -9zM1774 1012l-5 1v2l5 -1v-2zM1765 1009l-6 -4l-4 3l-2 -1l6 5zM1383 1372q-3 -1 -5 -1h-1l1 2zM1278 1442q-1 -1 -1 -2v0h-2zM1282 1436l-5 1v1l5 -1v-1zM1284 1431l-4 -1v2l3 1z
M1257 1454h-4v1h4v-1zM1270 1440h-3v1h3v-1zM1256 1452h-3v1h3v-1zM1347 1356h-1l-1 5h1zM1200 1508h-17v2h17v-2zM1262 1438h-3v1h3v-1zM1153 1528l-8 1v1l8 -1v-1zM1293 1560q-21 -5 -68 -6l4 -3q-7 0 -17 -2h1q12 0 45 3q-16 -3 -50 -10l-6 1v-2h-10q-6 0 -10 -2
q3 -1 11 -1q-4 -2 -13 -3l-14 3l-3 -1q0 -1 8 -3q-31 0 -30 0l-11 -3h2q-3 0 -13 -2l5 -1l-3 -2h28q-7 -1 -18 -3q2 -2 9 -2q-7 -1 -14 -1l1 -2q-10 -1 -17 -1l-2 -4q-7 -3 -22 -4q-6 2 -9 5l-2 -3l-5 -1q5 -2 14 -3l7 1l-2 -2q2 -2 12 -1q-7 -6 -31 -6l-3 3l-5 -1l2 1l-4 2
l-1 -4h-7v3q-2 -2 -5 -3l-3 3l-5 -3l-2 2l-1 -3h-10v2q-2 1 -8 -1l-3 2l-2 -2h-6l2 3l-1 1q-5 -3 -8 -4l-2 1q1 1 30 7l2 2h-5v4q3 1 8 2q8 0 8 -2v-2q0 -3 17 -3v2q6 1 19 7v0l-18 -6h-5l-2 3q4 1 7 0l-1 3l7 1l-4 1l2 2l-1 1l-8 -4h-3l-1 2l-11 -2q10 7 30 7q7 0 14 -3
q2 0 3 1l-3 2l6 -1q4 1 8 3q1 -1 -11 -1q11 0 -18 10h2q3 0 6 1l-5 2h22q7 -2 10 -6q3 0 8 -1q1 0 7 1q-4 1 -12 2l2 2q-4 2 -7 3q32 0 42 3q-3 1 -5 1q4 0 18 2q-3 1 -15 0q7 2 21 4q-3 1 -5 1q-7 0 -21.5 -4t-22.5 -4l-4 1h2q3 0 6 1q-2 1 -5 1q-7 0 -22 -4q-4 1 -13 2
q13 1 39 4q-5 2 -23 2q-5 0 -15 -1.5t-16 -1.5h-7q3 1 10 2q-1 2 -3 2h19q-8 1 -23 3q5 0 16 1h16h17q-2 3 -10 3q4 0 13 2q3 0 11 -2l-1 -1h9l-3 1q7 -2 23 -4q-7 2 -19 6h7l-1 1q3 -1 6 0h4l-3 1h10q6 -1 10 -1v1q-5 1 -7 2q6 -1 19 -1l5 -4q3 1 5 3q-3 0 -9 2
q25 -3 31 -3l3 1l-4 1q3 1 6 1h6q4 -1 6 -1v1h34q-6 0 -18 -2q17 0 37 1l4 -2l-3 -1q5 0 15 -1zM1266 1423q-1 -4 -20 -6h-2l6 1q-3 1 -8 5l3 1l-2 2l6 3q-4 0 17 -6zM1167 1510h-3v2h3v-2zM1139 1528h-3v2h3v-2zM1266 1407q-3 -1 -10 -4l-5 2l2 2h13zM1256 1408h-4v1h4v-1z
M1242 1420h-3v1h3v-1zM1256 1400l-1 -1l-4 2v2zM1235 1389h-3v1h3v-1zM1239 1381v0v0v0zM1078 1547l-11 -3q-3 1 -10 3h9h4h8zM1062 1552h-6q5 1 6 0zM1056 1553h-3v2h3v-2zM1075 1528h-2v1h2v-1zM1242 1356q-2 -2 -3 -2l-1 2h4zM1065 1527h-6v2h6v-2zM1292 1297h-4v1h4v-1z
M2226 352h-1v5h1v-5zM2446 138v-1v-4l-1 -1h-3zM1080 1495l-3 -1v1l2 2zM1057 1517h-3v1h3v-1zM1052 1516h-3v1h3v-1zM1071 1532q-17 -3 -28 -8l-3 2l-5 -3l-2 1l-6 -4h-4l-2 4l-1 -4q-4 1 -12 -1q-9 1 -13 3h4q4 0 8 1q-5 1 -15 4q8 4 32 2l3 1q-1 1 -8 1h3h-32q3 2 7 2
l6 2q-5 1 -15 0l1 4q4 0 14 -1l7 2h-6l-3 1h-6l22 3q-2 2 -6 3q7 0 19 2v0l-6 2h12q2 0 8 -8q6 -1 9 -1l-2 -1l3 -2l4 3h5l-4 -3l4 -1l-8 -5l1 -1l7 2q5 -2 8 -2zM2222 336l-3 4l1 5q1 -3 2 -9zM1064 1483l-5 -1v1l5 1v-1zM1015 1530h-5v1h5v-1zM2226 317l-1 -3l-1 1l1 2h1z
M2421 120h-5l-1 5h5zM2293 241h-2v3h2v-3zM2270 257h-1v7h1v-7zM1096 1436h-5v1h5v-1zM1072 1460q-11 0 -32 -1q1 6 -4 7q2 2 6 4q9 -1 26 -3zM1112 1403h-1v1zM1007 1512l-5 -3l-6 1l6 3zM969 1537h-1h-2q-2 0 -6 1l5 2zM998 1503q-4 -1 -5 -3l-1 2zM1069 1488q-4 0 -14 -7
q-11 -3 -17 -3q-2 1 -7 2l1 3h-1l-6 -3q-3 -1 -8 -2q-2 1 -4 3l-4 -3l-1 2l-2 -1q2 0 -25 0l5 3l-15 -3l-8 3q-5 -1 -8 0q1 1 3 4q-1 0 -2 1l10 7q0 4 -2 7l-7 -3q-5 1 -14 2l3 1l-7 2l12 4q5 -1 16 -2l-1 -2q7 -1 22 -2h-7q5 -1 13 -2q-4 -2 -7 -2q-5 0 -9 2l-1 -2l2 -1
l-3 -2q9 0 14 -1l-6 -2l6 -2l2 3l4 -3l9 2q3 -2 8 -3q5 0 5 1l-1 1q30 3 36 3q3 0 5 -2l7 -1l-1 -1zM977 1521l-5 -2l2 -1q-7 0 -21 -3l-1 2h3l2 2l-6 1q5 5 9 5q3 0 8 -2t9 -2zM2358 206l-2 -8h-3q-1 5 -3 8q-3 -2 -3 -4t1 -6t1 -6v-4q-5 -5 -5 -8q0 -36 -36 -111
q-2 -4 -11 -4q-4 -2 -11 -6l-12 4l-4 5q-5 9 -5 15q1 4 2 7q-2 5 -5 20q2 3 5.5 10.5t11.5 20.5l1 4l-6 31q4 6 8 19q6 0 9 4l2 -3l1 3l2 -2l3 4l3 -1v2l4 -3l2 1l-2 3q2 3 8 6l1 -4l2 4h-1v3l4 3v-3l4 6h3l-2 2v3l2 2q1 1 1 3v7l4 -5q9 13 9 15q0 3 -1 4q2 2 6 7l-1 -2
q4 -4 4 -8q4 -15 9 -38zM1041 1405q-2 1 -3 2l3 2v-4zM1032 1417l-5 -2l3 3zM1050 1399q-3 -1 -4 -1h-3l-4 1l4 2zM941 1523q-5 -1 -3 -6q-3 -1 -9 -2l-5 1q0 3 -1 3q-4 2 -26 2q8 1 17 4l-3 2l-1 1l-5 -1l1 2h-4l6 2h15l1 -5l6 2l6 -4q1 1 4 1zM1021 1420h-2v1h2v-1z
M1155 1384l-7 -4h-5l-5 -1l4 -3l-5 -1l2 -2q-4 0 -5 -3l-1 2l-1 -2l-3 4q-2 -4 -8 -13q-2 3 -3 4l-4 3l2 -2h-5l3 1l-4 1l1 2l2 -1l2 2l-6 2q5 1 8 1l1 2q-2 0 -9 -1l-4 4l-3 -1l2 2l-2 3q-5 0 -7 -1l2 -1l-3 -2l-2 2l1 -6q-1 0 -4 -1q1 0 -4 4l-5 -1h4l-1 -4q8 -2 6 -3
l-1 -2l1 -7l1 -1l1 2l4 -4l4 2q-1 -1 -2 -4q0 -1 2 -2l2 1l-4 -2l4 -5v-6l-3 -2l-2 6l-2 -5v-6l-4 2l-2 -6v5l-2 -1q-4 1 -6 3l-1 -2v4q-1 0 -2 -2q-3 2 -8 9l-1 -5q-4 4 -7 5l-3 -3q2 -4 14 -13q1 -4 3 -5q-2 -4 -4 -4q-35 0 -25 11q-6 2 -19 5l-1 3q5 1 8 3l-4 4
q-2 -1 -4 -1h1q-5 4 -7 11l-7 -3l2 2l-4 1l2 2l-1 1l-3 -2v-3q-4 -1 -10 1l-3 -2q-3 0 -11 -3q-5 1 -8 1l-1 2v4q5 3 16 9l17 -3l20 5l-4 4v4q9 2 28 6l-7 2q4 2 10 6v12h-5l4 4l-2 2l-5 -3l-2 2l3 4l-6 -1l-2 2q-9 -5 -14 -5q5 1 14 6q-3 3 -9 6l3 1q-4 1 -7 1l3 4
q-3 1 -8 4l2 2h-2q-2 -1 -6 -1l-2 -2l6 -2v-3q-3 -1 -7 -1l-17 3q-1 0 -4 -1l4 -4q-18 4 -8 4h-1l2 -2l-3 -1q-13 5 -36 3l1 3l-5 1l-8 -1q-5 2 -7 2l-2 4l2 3q4 0 12 -3q4 0 9 2q-2 2 -21 5q21 28 60 28h11q-17 -3 -27 -13v-3l-6 -5q4 -5 6 -7l-11 -3h-3v-1h3v1q3 0 8 -3
q3 2 9 8l-5 2l-2 3q3 0 9 3l3 -1l5 3q-4 0 -8 1l6 5h5l-2 2q7 -1 10 -1h4q-1 0 -11 3q3 0 11 2l4 -2l-1 3q9 3 23 2q1 4 1 -10v-1q-4 -1 -9 -3l1 -2l-5 -3q-1 0 -1 -1t1 -2q4 3 14 7l-1 -3l2 2h4l-3 -4l2 -1l2 2l3 -4l-1 6q2 0 6.5 -1t6.5 -1v1q-4 2 -9 2l1 2q7 3 11 3
q8 -1 10 -4l1 2q5 -1 6 -2q0 -1 -9 -3h-3v-2h3v2q4 -2 7 -1l7 -1q-8 -2 -13 -2l-1 -3l2 -3l3 2q4 2 9 2l-2 -1q3 0 3 -5q3 1 4 2h-2l3 1l1 2q5 0 13 -1l-2 -4q-13 1 -16 -6q7 1 21 4q-10 -4 -18 -7l1 -2q2 2 6 3l1 -1q9 4 13 5q-4 -2 -5 -3v-2q4 2 11 4l7 -2q-8 -2 -24 -9h1
l13 5l4 -2q-7 -1 -14 -4h2q7 0 20 7l3 -3v-5h-5h-22l-1 -2q13 0 28 -2l-11 -2l-3 2h-8l3 -1l-2 -1l-1 -2q4 1 7 1q-4 -1 -3 -3h-9l3 -4l6 -2l2 2l2 -1q-2 0 -3 -1l2 -2h1l-2 -1v-1l3 1v1v0q2 0 4 -3l2 1l-3 -3q3 0 8 3l3 -3q2 2 5 2l-2 -2l1 -2l3 1l-1 -1l4 -1q-5 -2 -1 -3
l-6 1l-2 -3v-2q9 3 12 1l4 2q-4 -4 -10 -5l4 -3l5 4l1 -2l4 -2l2 4zM917 1514l-10 1v1l10 -1v-1zM1017 1416l-13 -6v2l12 6zM1037 1403q-6 -12 -16 -12h-9l-2 3q0 10 17 10h2q5 0 8 -1zM945 1485q-2 -5 -11 -5q-6 0 -13 3v2l-4 -1q8 3 23 8l5 -2v-5zM1085 1317l-7 -1v3z
M926 1501q-1 -2 -5.5 -5.5t-4.5 -5.5l-2 1q-4 -2 -6 -4q2 -1 -8 -2h-15l5 1l-1 2q-1 0 11 3h6v2h-6v-2h-24h-3q13 0 12 1l5 1l-3 1l1 3l4 1l-4 1l4 1q5 -4 8 -7q4 1 2 3l4 1l-1 2l-5 1l8 2q5 -1 7 -3l3 3q6 0 8 -1zM882 1509h-8l1 3v2h4zM1546 845l-5 -4q1 3 5 8v-4z
M956 1471q-22 -13 -31 -13q-2 0 -5.5 1t-5.5 1q-1 0 -5 -2l3 -4q-3 -1 -11 -5h-5l-2 2q3 3 3 8q4 3 14 11l5 -2l-1 5q5 0 18 2q8 -2 16 -3zM1386 992l-1 -2l-3 2v1zM881 1498q-2 0 -6 -1h-5h-4h8q5 1 7 1zM947 1424l-4 2v1l4 -1v-2zM860 1523l-8 -3q-6 0 -17 2q3 0 9 1t10 1
q1 0 6 -1zM872 1494h-3v2h3v-2zM1526 837l-2 -2q-1 2 -1 4v1v1h3v-4zM895 1473l-15 -2v1l15 2v-1zM1517 846q-2 -2 -6 -7l-2 5q5 1 8 2zM832 1520h-4v2h4v-2zM891 1460h-4v2h4v-2zM1498 847h-2v4h2v-4zM849 1517h-10l-2 -2l4 -1q-7 -2 -21 -4l-6 3q8 6 28 5zM1043 1301
q-3 0 -5 -1q2 3 4 4zM858 1489l-3 -4h-7l6 4h4zM894 1447h-4v2h4v-2zM1110 1225h-3v2h3v-2zM896 1468q-10 0 -7 -2q-5 -2 -15 -5l1 -1h8l-1 -4l5 2q-3 -4 -11 -10q-3 0 -13 -3l-4 1l-4 -4h-8l1 2q-2 5 -15 12v2l7 3h4l1 -4h4h3q3 1 7 6h6q-4 1 -12 4q5 0 8 -1l1 4q4 0 11 1
q3 -1 4 -3q4 2 14 3zM1828 485q-1 -5 -3 -7l-2 1zM969 1340q-3 -1 -5 -2h-1l-2 4l3 1zM932 1375v-3h-3v4zM793 1503h-4v2h4v-2zM921 1370l-3 2l3 3v-5zM851 1495q-5 -8 -27 -12l-3 3q-2 -2 -6 -2l-4 2q-18 -4 -38 -8h-14l-2 2q14 1 39 7q-3 1 -10 -1l-5 2l-12 -3q5 3 7 3
l-3 2l-6 -3l-2 1l-7 -4l-3 2l-3 -2q-3 3 -5 3l-8 -1q8 2 26 5l-6 1l-11 -1q5 1 18 1l6 2q-4 1 -14 1q4 2 8 2q13 -2 12 0v1l-8 1q3 1 7 2h7v-3q3 -1 12 -1l2 -2l-4 -1l1 -2h3l1 -2h19l2 2l-4 2l5 2l-2 4q4 0 13 4l6 -1l-3 -5q-4 -1 -5 -2v-4q3 1 5 1l3 -1l6 3h7zM826 1469
q-1 -3 -16 -9q1 2 -4 7q7 3 12 3t8 -1zM859 1419l-2 -2l-1 1l2 2zM852 1418h-3v2h3v-2zM945 1346l-9 -3l-12 3l2 1q-2 2 -6 5l-27 -14h-5l4 7l-4 1q-5 0 -8 -2h-4q4 2 13 6q5 11 22 23l5 -1l-2 -3l1 -4l3 2h3q2 -2 6 -3q3 -6 10 -6v-4l-5 -5h6h6zM942 1328q-1 -3 -8 -9h-4v4
q1 2 7 5h5zM787 1510q-2 0 -11 -7q-23 -4 -18 -4h-3q4 3 6 5q-8 0 -20 -7l-2 2l-12 -6l-1 5h-1l-6 -3l-10 1l4 3q16 5 50 10q6 0 17 2zM851 1410q-4 -1 -14 -5l-8 2l-4 5l-5 -1l1 1h-4l-1 1q4 1 9 3.5t15 6.5l8 -6q1 -4 1 -7h2zM921 1334l-17 -8h-6q5 3 18 10zM1129 1138
q-4 -6 -10 -5l-1 -1l1 -3q-2 -1 -2 -2l1 -4q3 3 10 8q-2 -2 -6 -8l1 -2l5 5q1 -6 -7 -15h-6l2 4l-1 2l-6 -3q3 5 6 8l-1 7q-7 -5 -19 -14l-7 1q6 3 17 9q-2 0 -5 1q-3 -1 -5 -4l-2 3v3q-4 -3 -12 -4l-16 3l-2 -2h-9v4q5 3 16 9h-4q0 5 9 8l-1 2l3 3l2 -1q3 14 13 17
q6 6 20 13l-3 -4l2 -3q-9 -5 -20 -19l1 -2q2 3 8 8l7 -2l-8 -7l6 -2q1 -2 0 -4q1 0 11 6l1 -2l8 1l2 -2q-2 -2 -10 -7v-4l4 -1l4 2l2 -1zM2522 -284l-2 -4h-5q4 3 7 4zM1800 432h-2v3h2v-3zM2514 -288l-2 -3l-4 1l-5 -2q1 4 4 13l2 -2l-2 -2q3 -1 7 -5zM1064 1139l-3 -2
l-1 1l3 2zM791 1408h-3v2h3v-2zM2538 -341h-2v2h2v-2zM1034 1146h-5q2 0 -21 11h6q15 0 20 -11zM814 1425l-6 -4l-8 3l-9 -4l-4 2l-1 -2v-2l1 -1q15 0 10 1q-2 -1 -3 -4v0h1q-6 -2 -14 -2q-20 0 -19 0l2 2q-5 2 -10 2l3 3h-2q11 0 -12 -5q-33 -8 -59 -8h-4v4q2 3 4 5
q-9 -1 -24 6l2 4q26 4 30 4q18 -2 26 -1l-3 4q-5 1 -11 1h-38v4q13 2 38 6l-8 1q-5 0 -19 -2q2 2 5 3l-5 1q-4 -1 -7 -1q7 2 18 8l-2 1l42 10h10q-5 -2 -13 -8l3 -1l6 1l2 2l8 3q8 -2 12 -4l-8 -2l5 -2l12 2l4 3l-5 2q6 0 11 -2v-4q-2 -3 -5 -9h2l7 2q1 8 16 17q4 0 14 -4
q-3 -5 -8 -17l-7 -5q0 -3 6 -7l2 1l9 -6zM761 1406h-3v1h3v-1zM898 1246l-4 -2v1l3 3zM1039 1104q-4 -8 -11 -8l4 4l-3 1l7 4l1 -2zM895 1249q-2 -3 -10 -8h-4l7 6zM731 1467q-25 -5 -76 -23q-8 -1 -23 -5h-8l2 5q-3 2 -8 5l-2 1q14 7 43 20l1 5q9 3 30 3q8 0 12 -4h4v-2
l12 4q6 -1 13 -9zM1504 623h-3l1 3zM1017 1107h-3v1h3v-1zM1013 1107l-4 -5h-3l-2 4l-3 -2l-5 4h2q2 0 7 -1h8zM996 1115l-1 -7l-3 3zM1553 541l-1 -2l-3 1v2zM1414 649h-2v4h2v-4zM847 1197h-4l-7 4l1 2l10 -1v-5zM551 1428l-2 -3q-26 -3 -25 -4q9 3 27 7zM870 1029
q-3 -1 -22 -5l6 4q7 0 12 1h4zM932 668l-1 -1l-1 2h2v-1zM930 668l-1 -4h-2l1 4h2zM933 653h-2l-1 5h2zM329 1271q-4 -6 -16 -13l6 5l-1 1q3 7 10 7h1zM935 642h-1v4h1v-4zM325 1256l-3 -4l-1 2l-3 -5h-4q2 2 5 7h6zM752 819l-1 -1l-4 4l1 1zM319 1269l-4 -2l1 3l-2 1l-2 -3
l3 -3l-2 -3l-4 5l-3 -4l5 -2l-11 -15l3 6l-1 1q2 6 4 9h-2v6l2 1l1 -2v5l6 1zM187 1386l-3 -4l-1 4h4zM935 631h-1v3h1v-3zM881 696q-3 -3 -8 -3h-10l-2 7q15 -1 20 0v-4zM324 1244l-3 -2v4l-2 1h1zM303 1258l-4 -2v2l3 2zM932 622h-2v3h2v-3zM769 783h-2v2h2v-2zM244 1306
h-2v2h2v-2zM837 711h-2v2h2v-2zM317 1237l-6 -3l3 -4q-3 0 -5 -2h3l-6 -3v12l4 2l1 3h-4q3 1 5 0v4h4q0 -2 1 -5v-4zM238 1301h-3v2h3v-2zM773 767l-1 -1l-3 2l1 1zM317 1214h-2v2h2v-2zM740 791l-5 -4l-1 3l3 8zM303 1231l-3 -6h-2l3 6h2zM792 740l-2 -3l-6 1l6 1z
M227 1300l-2 -1v1l2 1v-1zM325 1201h-4v3h4v-3zM1064 458h-1v0v2h1v-2zM1063 458v0v0v0zM320 1201l-2 -1v1l2 1v-1zM740 782l-1 -4l-2 4l2 2v-3zM313 1203h-1v5h1v-5zM322 1200l-1 -3l-4 1q3 1 5 2zM321 1194h-3q2 1 3 0zM847 703q-2 -4 -4 -6q-4 2 -14 4q-3 -4 -7 -4
q-3 1 -5 3l-6 -4q-2 -5 -4 -8q-1 5 -5 14l3 3l-1 4q-7 -7 -4 -7l2 -4v-4l-4 3q3 0 -16 0q-4 0 -6 -3l-6 4v4l18 -3q6 1 9 3q-2 1 -5 13l-7 4l5 2l15 -3v-9q2 3 1 12q6 -1 22 -4q7 -10 11 -10l2 1q2 -2 6 -5zM218 1295h-3v1h3v-1zM930 578h-7q3 2 3 5l-2 4l6 1v-10zM315 1194
h-2v3h2v-3zM1075 429v-1l-3 1v2zM1072 434l-3 -5l-5 3zM303 1215q-6 -4 -17 -12l1 -1l3 1l-3 -3q-3 -4 -2 -8q-2 3 -2 5q1 1 2 5l-1 1l3 3l-3 2q3 5 6 8h3v-3l2 2l2 -2zM1064 437l-2 -7l-1 1l2 6h1zM315 1180h-2v2h2v-2zM332 1162h-2v2h2v-2zM790 704q-3 1 -5 2h3zM324 1168
h-3v1h3v-1zM334 1152h-2l-1 3h2zM727 758h-2v2h2v-2zM894 593l-2 -5l-2 2h2zM1058 420l-3 -3l-1 1l2 3zM100 1376l-3 -1v1l2 1zM333 1136l-5 -1q-7 3 -11 5l5 4q-2 1 -10 1q1 1 3 5q0 1 -1 1l-2 -1v1h-5l7 3q-2 2 -6 5l-3 -2l3 3q-5 0 -7 1l3 4l-4 1v2l5 2q8 -3 23 -7
q-1 -2 -1 -7q0 -8 6 -9v-11zM308 1156l-1 -3l-1 1l1 2h1zM775 725q-2 -1 -11 -2l-4 -2q-10 2 -29 0q2 2 8 9q0 3 -6.5 3.5t-8 5t-3.5 7.5h-2q-1 0 -4 -1q-8 3 -14 6v4l-1 -2h-6l-2 3l-1 -2q-4 0 -11 3q4 0 6 2q-1 3 -7 3q-9 0 -29 -13l-2 2h3l1 6l4 5q8 3 26 7l7 -2l3 2
l3 -2l3 1q4 -1 11 -4q4 -5 29 -18l1 2v-4h4l4 -4l2 1l6 -3l3 1q0 -4 -1 -5q6 0 18 -9zM580 861h-3v2h3v-2zM833 607l-1 -1l-3 3l1 1zM745 692h-4l-2 2l-7 -4l-13 7q3 2 8 3q6 -1 17 -5zM818 602l-4 -1l1 7l3 -1v-5zM672 744h-4l-1 6l5 -1v-5zM144 1273h-7v2h7v-2zM57 1340
q-5 0 -13 -2q2 2 6 4zM134 1268q-6 -6 -10 -5v-2h-4l-4 -2l-9 -1h-2l-4 -2q1 8 9 8l3 -3q3 2 6 7l3 -3l6 4l3 -2zM617 729l-3 -2l-1 2l3 2zM36 1300l-5 -4l-9 -2l-5 5q3 0 9 1h10zM19 1238l-13 -3l-2 3l7 4q3 -1 1 -3l2 -1l3 3zM4 1234l-4 1v1l4 -1v-1zM1148 80l-1 -1l-2 2
l1 1zM662 539h-2v2h2v-2zM1266 323q0 -24 -12 -35l-1 1v-3q-9 -14 -13 -15l-2 2v-3q-4 -10 -14 -30q-4 3 -5 6l-2 -3l1 -3q-2 -3 -4 -9l4 -34q0 -3 -3 -16q1 -5 1 -7t-2 -10t-3 -17v-3q-2 -2 -6 -15l-6 -6q-2 -8 -1 -14l-11 -14q-6 0 -13 -1l-1 4v0q-2 -1 -1 -4q1 1 -8 1
q1 0 -9 -2l-2 -3q-3 -3 -10 -8l-3 1l-5 -4l-1 2l-20 -18l1 -1l-2 -3l-3 2l-4 -3l4 -3q-3 -2 -2 -8h-2q6 -13 6 -23q0 -2 -2 -13q-8 -5 -13.5 -23.5t-16.5 -27.5v3q8 6 14 21l-2 5l-3 -3q-3 2 -6 3l3 -4q-2 -4 -4 -11q-7 -7 -4 -16q-15 -41 -34 -36l-7 -3l-15 7h-3
q-7 0 -13 10h-1q2 -6 20 -21q1 -6 2 -13t8 -4l3 -7q-3 -7 -7 -20q-9 -7 -41 -11q-5 1 -14 2q8 -11 5 -22l5 -4v-3q-6 -4 -12 -4q-10 2 -19 5l-2 -3l6 -15q4 -3 7 -4q0 -5 -2 -6q1 -3 8 -5q-8 -6 -8 -9l4 -9v-10h-2q-16 1 -16 -14q0 -12 18 -17q11 -2 11 -3v-6l-3 -1l5 -1
q-1 -2 -7.5 -8.5t-6.5 -11.5v-1q2 -2 3 -9l-5 -1l-5 -8q0 7 6 -12l-2 -1q7 -2 14 -10l-7 2l-4 -5l-10 -3l-1 -2l4 -14h-5l-12 6l-6 -1q3 -2 4 -3l1 2l5 -3l-3 -4q0 3 -3 3l-2 -2l-6 5h2l2 3l-3 2l4 1l-4 6l-2 -3l-2 2v4l-1 1l-5 -3l1 3q-2 3 -4 5q5 0 7 -2l2 1l1 3l-1 4
q-1 0 -8 1v-2l3 -2l-2 -2q-2 1 -6 7l-1 -2l-2 1v5l-2 3l-1 -2l-2 2h-4q3 2 6 3v3l-3 2v-4q-3 2 -7 7l-2 -1l-1 2l2 2l-2 2q3 -1 5 -1l-1 2h-3v11l-2 2q-3 -4 -3 -7l-2 3v-1q2 -5 4 -8l-3 -2l-2 4l-1 5q-3 -3 -1 -6q-3 2 -7 6l2 -2l3 4l-1 5l-3 -1l2 4q3 -3 5 -6q1 3 3 5
l-5 2l5 1q-3 2 -9 7q6 0 11 -3l4 1v2q-4 1 -8 6l-1 -2q-2 0 -6 1l1 1q-4 2 -4 5l2 -1l1 3q-3 5 -15 5v6q-4 -3 -6 -5q4 4 7 9q0 1 -1 2l-3 -1v2h9q0 -1 1 -3q-1 -1 -3 -2l7 -2l2 -3l2 6v2l-1 -2l-3 8l4 4v-1l3 -2v2l-3 1q-4 0 -4 1l-1 4q3 2 5 4v3q-3 2 -9 5q2 4 2 7l-2 -1
q-2 3 -2 17l-3 4h4q-4 4 -6 5l4 6l-1 2l-1 -4l-5 2l-3 -4h-5q-10 10 -9 26l2 3v5q-7 10 -14 32h3q-1 18 5 52q0 5 -1 14q-4 9 -10 28v3q0 2 1 6t1 7q0 2 -2.5 5.5t-2.5 5.5q0 49 2 43l2 2l-3 2q1 2 2 7q0 3 -1.5 10.5t-1.5 12.5l-3 6q4 5 4 13q0 14 -10 60q-5 5 -17 15
q-24 10 -65 46v4q0 6 -7 16.5t-8 14.5l-6 6q-1 13 -19.5 43.5t-30.5 32.5v4l4 1q-5 10 -7 19q0 7 17 19l3 9q-1 4 -1 8q-2 -3 -2 -6l-1 2q-2 -3 -4 -5q-2 2 -8 6q2 2 1 19l6 4q-1 1 -1 2q0 3 2.5 8.5t2.5 10.5l4 2l2 -1q1 2 6 4l2 -1l3 6l-2 5h4q0 3 1 8q3 1 10 3q2 6 9 17
v31q-4 4 -1 10q-13 30 -13 22l3 4h3l-2 4l-1 -2q-4 3 -13 9q-5 0 -7.5 -5.5t-8.5 -4.5v-3q1 -3 4 -8l-7 -5h-3q0 3 -2 10l-2 -4h-3q-9 12 -18 9l-7 7l-1 -1l2 -4q-4 3 -4 7.5t-11 9.5l-7 10l-2 -2l4 -3v-4h-3q-7 6 -7 10q0 3 3 5v6q-9 9 -23 26v3l4 -3l1 2q0 4 -6 8l-2 -5
h-6l-2 2l-3 -1q-15 10 -29 10l-37 34h-5l2 1l-3 1q-5 -5 -23 -10q-48 9 -65 34l-3 -1q-5 1 -15 6q-2 3 -14 12q-8 7 -8 15q0 2 5 7l-2 1q2 3 5 8q-3 7 -3 14.5t-19 29.5l2 1l-6 4v3v4l-5 2l-3 4h-2l1 1v1h-3l-2 1q1 5 5 8q-1 5 -7 7q1 4 -6 6q0 5 1 9q-3 2 -6 3
q-20 21 -10 46q-2 1 -7 7l-4 -2l-8 6q-5 -15 -5 -26q7 -12 7 -17q4 -2 6 -8l-1 -6l7 -14l-1 -4q1 -1 2 -4l1 4q4 -27 4 -36l4 -3l2 2l4 -4l3 -9l-5 -6h-3v2q0 4 -10 13t-10 12t1.5 8.5t1.5 8.5q-4 3 -10 13l-1 -2h-5q-6 8 -13 15q5 1 13 -4q2 2 2 4q0 1 -1 2l-1 -3l-1 1
q0 4 4 10q0 3 -7.5 11t-7.5 20q0 40 -11 47q0 3 -2 4l-4 1q-5 6 -15 5l2 8l-7 19q3 5 5 7q-3 3 -4 8l2 6v-3l2 -2q1 4 3 10l-2 2l-4 -5q-1 4 -5 15q3 7 3 20q2 4 6 7q4 10 14 31q16 20 37 46q5 0 9 1q-3 2 -8 3q4 3 5 6l3 2l-2 3q3 12 6 17q20 -4 17 -4l1 -3l-5 -2
q1 -2 3 -1q-2 -2 -5 -6l-2 1l-2 -2l2 -2q19 4 16 20q1 1 4 8l-2 2l4 3l-3 1l2 3h-2l-7 -3v3l2 -2l4 4l-3 -1v5l-2 -3h-5q1 4 3 6q-4 2 -12 5q5 1 8 3v1l-4 -2h-3l-2 6h-11l7 2l-4 1v7l2 1v-1q0 -1 1 -1q2 1 5 4v3v-1l3 1v1l-3 -1q-1 3 -3 3l2 1l4 3l-3 1q1 0 3 9l2 -3l2 2
l3 -3l1 1q-1 2 -5 5l6 2l-1 3l-3 -3q-5 0 -8 -5v-1l-3 1l-2 7l3 2l2 -3l1 4h5v1h-5v-1q-3 2 -4 2l3 4l1 -5q2 4 0 5h5l-1 1q3 2 8 5l1 3h-2q-6 -2 -8 -6l-3 2l-4 -2q4 4 8 5l-3 1h6l-4 2l-2 -1l-2 3l-3 -2q3 2 7 6h4v-3q2 4 4 6h-1q-6 0 -17 -7q3 3 9 8h-2l2 4l2 -1q0 4 2 6
l-6 6h4l-1 2l6 6h3v2h-3v4l-6 2q4 7 4 11q-4 -4 -9 -12l-2 1v1h-4q3 4 6 6l-1 1l-4 -3l-3 3q-4 -1 -6 -2h5v-6h-3q-3 -1 -5 -2l-4 4v1q0 9 -10 11q4 2 6 5h-11h-6l3 3h-26q-3 0 -7 4q5 2 9 5h-1l-10 -4h-4l3 3q-3 3 -7 4q5 1 7 2q-1 1 -2 1q-4 0 -9 -3l-2 2l-6 -3l2 3h-3
q-6 -2 -10 -5l2 -1l-6 -2h7q-6 -2 -15 -7q-4 1 -5 2q-4 -2 -6 -2l-9 -5l-1 2q-7 -5 -23 -7q4 2 13 6h2v2h-2v-2l-4 1q8 7 33 17l3 -2h6l3 1l-5 2l3 2l-5 2q-21 -6 -39 -15l-3 1v-4q-19 -4 -32 -13l6 -2q-7 -4 -21 -10q-9 -2 -27 -8l2 2l-3 1v-4q-5 0 -24 -9l-2 1l-4 -4
q-6 -1 -16 -4l-1 -3l-1 2q-9 -7 -17 -7h-7v3q20 10 32 11q3 3 21 10l3 -1l-1 1q4 4 15 9l-3 1q5 3 16 8h-2q-4 1 -11 -3h-5l2 3l-1 2q-4 -3 -11 -8l1 6h-6l1 2l-3 1l-19 -5q2 0 9 5l-3 1q4 4 16 14l1 4q-13 -8 -14 -8h-12l2 7l-3 -1v3q4 1 11 4l-1 -4l7 2v-2q2 2 7 6l-9 -1
l-6 1l6 2l-2 2l-5 -3v4l3 1l-2 2q11 6 28 12v-2h3l3 3l-2 1q3 2 9 4h2l4 3h5l-4 -3q11 0 23 6q1 0 5 -1q15 0 23 14q6 2 12 6l-1 1q-18 -4 -27 -7v3l-1 -3q-10 1 -29 3l3 6q3 0 10 1q-5 1 -12 6l3 -1q16 6 29 6l2 2q8 1 23 4l-8 -5l1 -1h7q5 -1 7 -1t11 3l3 -1l1 3h8
q4 0 7 3q-5 1 -14 0l6 4l-1 2l-1 -1l-1 2l-6 -2l-7 1l4 6q-3 3 -8 10q17 3 51 12q9 4 28 12l1 -2l18 3v-1l1 -1l9 3l-4 2h14l29 8l6 -3q-5 -1 -8 -1l-2 -2l2 -1q9 3 14 4l-2 -2l3 -2q8 1 11 1h5q-3 -2 -6 -3q9 0 27 -2q25 -3 48 -3q-4 0 15 -7q27 2 41 -12q0 3 -2 4
q8 0 11 -4l2 4q-2 0 -7 2q6 2 3 2l2 -1l3 3q4 0 12 3l1 -2l-9 -3q5 0 14 2.5t14 2.5q1 0 6 -1l-4 -2v2l-3 -1q1 -2 5 -5q7 4 25 9l3 -2q12 5 19 7l-2 2l4 1q1 -3 -1 -10q3 -4 6 -5l5 5h5l-1 1l8 3q-4 -4 -7 -8l4 -1q15 6 21 6q-9 0 43 -12l7 3l9 -6l-1 -2q-12 -3 -20 -6
q10 -3 19 -3q23 0 31 3l4 -3h5l-3 -3l1 -1l3 3l2 -6l-6 1v-2q0 -5 4 -8v4l3 3l3 -2q2 3 4 12q11 3 32 11h-4l-15 -4l-3 1l-8 -3l-1 3q8 2 29 7l5 -2q-1 -3 -3 -4q0 -1 1 -2q4 -5 14 -3q15 -1 38 -5l9 4l1 -1l3 -4l5 2v3q-4 2 -8 -1l1 5q5 0 9 3q5 -4 8 -4l-2 -2l6 1
q-3 -3 -10 -8l1 -4l4 2l-2 -2l3 -1l5 8q13 2 32 16q-1 1 -2 1q-2 -2 -5 -3h-2q4 2 7 4l-1 1l5 1v-2l3 1v-3l3 1l-2 8v-3l-5 -1l-4 3l-1 -1q-6 2 -9 4v3q5 5 11 4l1 3h-5q3 2 11 8l4 -2l4 3l-3 1q-5 0 15 2v-3l3 2l4 -4q-3 -4 -5 -6q4 -4 2 -7h3q-5 -2 -17 -7q2 -1 9 -3l2 2
l2 -2l5 1l-7 -2l2 -5q0 -3 -4 -5v-5q22 13 20 13q4 0 6 -5l-4 -6l-2 1l-6 -7l3 -9l16 9h-5l6 5v-5q9 5 13 10l8 1l1 2l5 2l-5 3l5 7q5 0 25 -2l-6 -1q4 -3 13 -6l-12 -3l3 -1h6q-2 -1 -7 -3l-7 1h4v2h-4v-2v1q0 -4 -2 -10l3 -5l-2 -4q-10 -3 -30 -10q-2 4 1 5h-3v2
q-2 1 -4 1q-1 0 -5 -1l1 -2l2 1l4 -3v-5l-5 3l-2 -3l-6 4q-8 0 -12 1l-1 -2l4 -4q-27 -10 -25 -10l-6 3l1 1q-3 1 -10 4l-3 -2q-2 2 -6 2q-1 0 -5 -1q4 -1 8 -1.5t10 -6.5q2 -1 15 -1l-2 -4q-31 -11 -25 -11l-5 2v-2h-4v2q-4 -1 -10 -7l-6 -1q-14 4 -21 4q4 -2 7 -3l-4 -1
l7 1l7 -3v-4q-6 -3 -20 -3v-4q-4 1 -9.5 -3t-7 -4.5t-4.5 -0.5v-3q-10 -1 -26.5 -18.5t-18.5 -17.5l5 -6l4 2l7 -1q-2 -12 -14 -24h4l17 3q7 -1 20 -5l6 -6l1 -4l15 -6l5 -6l13 1l3 -2l3 1l10 -2q-2 -3 -9 -11q-1 -7 -8 -18l3 -7l-5 -3q10 1 10 -9l-2 -4l5 -1l3 -4v-4h2v4
h-2q2 8 7 9l3 -6q1 4 7 10.5t6 16.5q3 5 7 15h-3v7q56 9 56 41q0 4 -10 14q4 3 14 9l3 4l1 -1q4 3 6 6q-1 2 -1 3q1 3 4 4v3l-3 2q3 3 11 8l-2 4q0 9 13 9q4 0 13 -5q5 1 8 1l2 -2l1 2q3 1 10 2q6 -2 9 -4l-3 -3l5 -1l-2 -2h6l-4 -3q7 -1 15 -8h3l3 3v-2q-16 -10 -20 -10
l-3 -1q3 -1 11 -1l1 -9q-4 -4 -7 -6v3q-2 -1 -6 -4l3 -3l6 4h8l1 -6l3 1l1 -5q7 2 15 9h4l-1 -7l3 6q2 2 8 4l-2 2l7 4l1 -1v0q0 2 -2 3l5 2q1 4 7 8l2 -1l-4 -3h3q1 -4 4 -12l-6 -1l1 -2l2 2h5l-2 -3l3 -3q-3 0 -9 -3h10l-4 -3h-3v-2h3v2q2 -1 3 -1l-2 -2h4v-5l-5 -1
q2 -2 7 -6l-2 -2v-3l-1 3q-2 -2 -8 -4l3 -1l-3 -2v-2q6 -5 10 -8l1 1l2 -1l-2 -4v0l-2 -3h6l2 -2l-4 -3l1 -1l5 4l-1 1l2 -1l3 2l-2 -2h4l-1 -2q5 -1 15 -5q-11 -3 -27 -7l4 -1q-11 0 -18 -10h2q28 13 36 13l1 -5q-3 -1 -5 -3l2 -2l6 4q3 -1 8 -5v-4l-5 -1l2 -1l-2 -2l1 -2
l-6 -1l5 -2l-2 -1l2 -2q-12 -5 -32 -13l-2 1q-21 -17 -40 -17l-15 3l-7 -2q-2 1 -6 2q-20 0 -29 -2q-9 -7 -12.5 -10t-11.5 -4l-3 -2l-1 2q-13 -11 -39 -31q-22 -10 -66 -32q-4 -2 -5 -4q21 8 61 27q19 13 38 25q23 15 44 15q8 0 13 -6l-2 1v-6q-4 -1 -15 -6q-3 1 -8 2
q-6 0 -9 -3q3 0 10 -1q0 -3 2 -5l3 3h6q-3 -5 -10 -10l6 -1l-2 -2v-7l6 -3v-2l15 -6l7 3l2 -3q7 8 20 20l2 -4q-6 -5 -14 -14l2 -2l-6 1l2 -7l-2 1q-5 0 -15 -4.5t-13 -4.5l-2 2v-4l-4 3q-7 -6 -18 -14l-1 1l-5 -4l-4 4l-2 -1v4q3 3 10 9q4 4 17 8l3 -4v4q3 0 9 2v0l-2 1h-5
q-3 0 -9 -1q3 2 8 6l-3 4l-3 -6q-4 -2 -13 -5l-3 2q-6 -5 -10 -5l-2 1l-1 2l-2 -1v-6q-7 -3 -13 -5l-1 2l-3 -4l-1 4l-2 -3l-1 4l-11 -11l-1 2l-1 -1l-1 2l-2 -3h-2q-8 -5 -16 -18l-5 -5q2 -3 8 -9l-5 -1l-2 1l-4 -1l-3 2l-5 -5q-10 0 -28 -7v6q-3 -7 -6 -11h-1h-1l3 -3
q-7 -10 -18 -20q-4 5 -5 9q0 1 0 -14q0 -2 -16 -21q1 5 7 11l-2 1v6l-2 -2l1 4h2l-3 3q3 4 4 6q5 1 5 5v1l-5 -2q-8 0 -8 -19l-9 5l-1 -1q6 -4 9 -7l-3 -4l2 -2l-2 -1v-7l-5 4l-1 -1v2h-3v-2h3q3 -2 2 -5q4 -1 5 1l1 -4l-2 -6h-2h-2h-2v-2l-3 2l-2 -4q3 -1 8 0v-5l3 4
q-1 -4 -7 -8l-3 3l-3 -2l1 -2l-3 -3l-2 1l-1 -2q2 -2 7 -2q-3 -1 -8 -1l-4 -3l-1 2q-3 -4 -23.5 -18t-23.5 -14l-1 -3l-3 2l-3 -6l-5 -4l-2 -6h-3l1 -2l-3 -5q-2 -8 -2 -11q0 -8 4 -22l-1 2q-1 -2 -1 -4q0 -4 2 -11.5t2 -11.5q0 -26 -14 -26q-2 0 -3 1l2 1q-5 8 -8 11v3
l-1 3l3 4l-3 -1l1 5h-2l-2 -2q0 3 -3 9l5 7l-3 1l-1 -3q1 5 4 14l-1 4q-5 5 -13 16q-6 -6 -11 -5l-2 -1h-3l-3 6l2 2l-7 -1v3l-3 2l-5 -2l-2 3l-5 -3h-1l-2 -2h-3l-1 7l-3 -5l-6 -1q-3 1 -5 1q-1 0 -8 -3l-5 3q-3 -1 -4 -3l3 -3l4 1l-2 -2l2 -2l4 2q-4 -4 -5 -7q2 -1 6 -6
l-4 -1q-1 4 -9 9l-1 -7l-3 3l-5 -3l-4 6q-2 1 -6 4q-3 0 -8 -3q-7 0 -10 5h1v2h-1v-2l-1 -2h-5l-1 1q-2 -2 -7 -4h-5l1 3l-4 -3v-4l-6 -5l-12 -5l-4 2q-4 -4 -1 -5l-3 1l-3 -4l-4 -2l1 -1q-4 -1 -6 -3l2 -4l-3 -3l-3 2q0 -3 2 -4q-5 -9 -2 -21l-2 -4h-4l-1 -2l2 -1l1 1
l-3 -6l-1 6q-2 -7 -1 -12h-3v-2h3l-2 -1q-6 -29 -6 -32q0 1 15 -48v-5v-1l4 4q6 0 10 -4.5t6 -4.5l18 5l3 -1l3 4h7v-3l3 -1l5 4v3q12 7 14 21q2 11 28 18q-7 -2 12 -2l4 2h3q1 -1 1 -4q0 -4 -7 -13t-6.5 -13.5t-5.5 -17.5q-1 3 -1 9q-3 -4 -7 -6l4 -5q-3 -15 -15 -33
q5 -1 8 0l-2 -4q3 1 10 4q5 -2 11 -2l14 3l6 -1l5 1l11 -3l1 -3h-4l4 -5l2 1l3 -2l1 2l2 -3l-4 -1v-2l2 1v-8q0 -4 -5 -18.5t-3 -20.5l-4 -7q4 -9 18 -26q0 -8 7 -8q2 0 1 2q3 -3 7 -4q7 4 20 11h4q15 0 30 -20v-3l2 -1q1 3 0 11q7 5 10 10q4 1 6 3q1 8 10 23q3 0 5 -1v-3
l1 -2q3 5 4 9l6 -1q5 0 21 12l1 3l2 -2l1 4q3 0 9 -1v-5q-9 -3 -13 -7q5 -6 5 -11t-5 -11l-1 -2q3 -8 6 -12h1q5 0 7 9q-4 7 -6 11v6q7 5 20 10l3 -1v3q6 -1 17 -6q1 -11 7 -11l17 2l19 -9q4 2 10 6q4 0 7 1l-4 2q17 0 26 1q-6 -2 -11 -1v-2q0 -4 2 -5l-4 -1l2 -1l3 3
q2 -6 5 -9l1 5l4 -5l1 3q6 -2 11 -6q-5 -4 -6 -10q-2 0 -5 -1q6 -3 8 -3q0 3 7 2l3 1q3 -3 6 -4l2 -1q15 -6 12 -26v-2l4 7q6 0 16 -14q1 0 4 1q5 0 11 -5v5h8l2 -2h3l-2 3q4 -2 11 -3l2 -2q1 0 14 -4q5 -5 13 -15l1 3q1 -5 3 -7l1 3q2 -13 13 -35v0v0q3 -3 6 -3v-8
q-5 -7 -16 -19l-1 -4l-1 3l-5 -9l1 -4q1 5 3 8l4 -2l-2 -7l-8 -4v3l-1 -2l-3 1q-4 -2 -6 -4l1 -1h3q1 0 2 -1q6 3 16 10q1 -6 3 -9q0 3 -1 7l3 -1l2 3h-5l2 6q0 4 -2 6q10 1 16 -1l5 2l9 -3v-3q-2 -5 -6 -14l-4 -1l-2 1l-3 -4l-1 2l-1 -2q-4 0 -12 1l6 -4l4 1l2 -3l1 3l5 2
q0 -1 -1 -4t-1 -4t1 -4q0 3 2 10q5 3 7 6l3 -3l3 3l-3 1q5 4 3 9h10l2 3q2 -3 5 -4.5t10 -3t11 -9.5l2 4l2 -2l1 2l5 -5q-1 -4 -3 -6l2 -2l3 2q-4 -10 -5 -13v-3q7 8 6 12h4l-3 -4l1 -2q5 8 12 8l15 -7l3 1l8 -4l1 2q6 1 9 1q11 0 29 -17.5t29 -15.5l8 -3q8 -18 8 -29z
M323 857l-1 -5l-3 1zM312 855h-1l-2 6l1 1zM1114 25h-2v4h2v-4zM328 794h-1v3h1v-3zM308 791h-1l-1 3h1zM560 419l-1 -3l-1 1l1 2h1zM1348 -365l-2 -3q-6 6 -24 12q12 -2 26 -9zM547 418l-2 3l2 1v-4zM541 419l-2 -4h-6q3 5 5 6l-6 9q4 -1 9 -11zM979 -196l-3 -1l-5 4l1 7h4
q1 -3 3 -10zM1091 -322q-2 -3 -9 -3l2 -2q-4 -1 -6 -4l-4 2l1 4l5 1q-1 3 -3 5l7 1l1 -3l1 2h4l-2 -1zM1073 -320q-4 -6 -7 -9l-3 1q3 2 5 5l-7 4l4 -2l2 2zM865 -199l-1 -5q-4 1 -5.5 2.5t-3 6.5t-1.5 7v6l2 -2v2l5 -5l-1 -5q2 -2 5 -7zM882 -220l-2 -6l-4 2l2 4h4z
M1030 -364l-3 -4l-9 -1q-8 0 -25 4l-3 -3l-9 3l-4 -1l-1 2l-1 -2l-4 3l-1 -2l-2 2l-4 -1l4 5l1 -4l1 2q2 -2 7 -2l-6 3h5l3 -2l1 2h4v-4l3 2q-5 3 -16 8v3q4 1 6 3l-4 3q-3 -1 -10 -1v8q2 -1 4 -1l1 5l7 -3l3 1l3 -5v2h2l3 -6q29 -20 39 -20q2 0 5 1zM869 -222l-2 -3l-2 3h4
zM875 -230h-6v2h6v-2zM875 -233h-3v2h3v-2zM1012 -370q-4 -1 -7 -1q-3 1 -5 3h8zM872 -238h-2l-1 3l1 1zM1006 -376l-1 -1l-5 2v1zM898 -271l-1 -1l-3 1v1zM999 -374l-10 3l2 -3q-3 1 -9 4h3l1 -2q1 1 10 3l-4 -1zM987 -369h-5v2h5v-2zM968 -357l-5 3l3 4l2 -3v-4zM886 -279
h-4q1 2 1 4zM974 -370h-3v2h3v-2zM960 -357l-2 -1l-2 3zM880 -273v-1q0 -3 -1 -5l-7 7l5 -2q1 1 3 1zM963 -362v-1l-3 1v1zM881 -283l-4 -1v1l3 1zM955 -358q-2 1 -7 2l2 2l5 -1v-3zM881 -285l-1 -3l-2 1l2 2h1zM903 -309l-1 -5l-2 2l1 3l-1 3zM919 -328v-2l-5 3l1 1z
M891 -303v-1l-1 4zM899 -310l-1 -1l-2 2l1 1zM913 -324l-1 -2l-2 1v2zM903 -317l-2 -1v1l2 1v-1zM917 -332h-2l-1 2l1 1zM932 -345l-1 -1l-5 3l1 1zM925 -343h-3v2h3v-2zM905 -327h-1v4h1v-4zM3581 1369v2l-5 1v-2zM3487 1358q-3 1 -8 4h-8l-1 -2q2 -1 9 -4zM2922 1210v6
q-5 11 -13 22l-4 -2v-3q3 -3 3 -7q0 -14 0 -13q-3 -4 -7 -11l-1 -6q-1 -4 -22 -15q4 -2 11 -4l13 5q0 3 2 9l2 -1l5 4q6 2 8 8l3 2v6zM3150 767v2h-3v-2h3zM3145 756l-1 4h-2l1 -4h2zM2635 1112q-2 1 -7 1l-6 -4l-6 2l-5 -2q-5 1 -15 4q-9 -1 -14 -1l-9 -9q0 -4 -2 -5l2 -4
q3 -2 10 -8q-1 5 -1 14q4 1 11 8q10 0 31 -4l8 1zM3321 296v2h-2v-2h2zM3149 451l-4 1v-2l4 -1v2zM2922 664v8h-2v-8h2zM2429 1108v1l-2 -2l-4 5h-4v-2h-4l1 -5q8 1 9 -3h3q1 3 1 6zM2431 1080l-2 3q-3 3 -5 11l-2 1l-2 7h-6l-2 3h-3q2 -2 4 -6l-3 -1v1l-2 2l-6 -3
q-1 -4 -2 -12l3 -10q7 2 11 -5q1 1 3.5 0t13.5 9zM3039 432v2h-4v-2h4zM2604 766v2h-1v-2h1zM2373 967v5q-5 6 -6 27q-3 3 -11 7l7 1q-6 8 -10 8l-2 -1q0 7 -2 19q-4 3 -7 10v1q0 3 1 9q-5 3 -10 4l-4 4l-2 -1q-7 11 -12 16q-4 1 -5 3l2 1h12q-3 1 -7 5l2 1q1 5 5 5
q8 0 26 -3l-7 -7v-4q7 9 9 9h2l-2 8h-4l-4 -3l-5 3q1 7 -5 20l-4 1l-7 -2l-1 2l-9 1l-23 -9l-2 1l1 -5l-3 -1l-1 -2q-3 -2 -8 -3l-2 1l-3 -1q7 -9 -5 -15v-5q11 -2 13 -20q10 -12 31 -35l7 -2q-8 -2 -8 -7t-2 -10t-2 -8v-4q1 -5 8 -13q3 0 10 -3q19 -11 24 -11q3 0 19 4
q1 -1 6 -1zM2119 1100v2h-3v-2h3zM2217 1041q0 16 -19 18q-9 7 -28 19l-4 5l-4 -1q-3 2 -11 6l2 4l3 -3l6 2v3q-1 0 -1 1l3 6l1 -2l2 3l4 -1q-3 2 -11 7q4 2 9 1v3q3 1 8 4l-2 3q-8 -2 -12 -1v-1l-26 -8q-2 -2 -7 -6l2 5q-5 -2 -12 -7l4 -4h4l-3 4h1q2 -3 6 -7l2 -2l-2 1
l3 -4l1 2l2 -1l2 2q5 0 8 -1q0 -6 -11 -3q-2 -4 -9 -5l-10 -5q-2 0 -4 2l1 6q-7 5 -13 7q5 2 13 6q0 3 1 5l-4 -3l-4 2q-10 -2 -14 3q3 1 6 3h-2q-3 0 -4 1v4l-2 -4h-2l-1 2q0 -3 -7 -3q-10 -11 -13 -23l-5 -3l-1 3q-1 0 -5 -21l-6 -5q-1 -4 -4 -11q4 -6 19 -18l-1 -2
q-4 1 -7 1l-7 -1l-13 -10q5 0 12 -1l4 3l1 -2h13l-2 3l1 2h9q-9 7 -9 5l1 2q25 -2 22 -2l2 1q14 14 38 11q3 2 6 2q1 -7 12 -4q3 -6 6 -8l3 2l21 -7l10 3l9 -2q19 8 19 14zM1865 1236v3h-1v-3h1zM1808 1281v2h-4v-2h4zM1532 1558v2h-9v-2h9zM1544 1461h-2h-3h5zM1805 1196
l-5 2l-2 -6h4zM1536 1446l-6 3l-5 -3l9 -1l-4 -3v0zM1541 1439v1l-7 -1q2 -2 4 -3h1zM1704 1246v1h-2v-1h2zM1867 1077l-1 1l-1 -1l1 -1zM1704 1203v2h-2v-2h2zM1485 1416l-39 7q5 -9 8 -12q13 0 31 5zM1660 1217l-3 3q-4 -5 -5 -5h5l1 3zM1582 1533l-4 1q-6 0 -13 -4l-4 12
q-6 -2 -9 -2q-7 0 -11 6h-5q-4 0 -11.5 -1t-11.5 -1q-5 0 -22 4l4 6l-5 1v2l-4 -1l4 -9l-9 2l-69 -5q-9 3 -14 4l11 -9l-52 7l-9 -4l-13 3l3 -4h-22q-5 2 -9 2l-4 2h-5h-2h-1q-6 -8 -19 -7h-2l-2 -11l-10 9q-2 -10 -14 -7h-2q-6 -8 -18 -10l-12 -11q19 2 52 -11l-4 -6l3 -2
l3 -3l3 -2l4 -3l-6 -8l1 -1l9 -9l-5 -3l4 -1l38 3l-11 -6l9 -1l-9 -6l9 -1l-22 -11l1 -2v-1q0 -4 -3 -10l1 -17l-5 2l-3 -4l8 -2l-10 -8l11 -4l-6 -2l21 -5q1 0 -32 0q-18 0 -18 -10l34 -6l-29 -6l-1 -2l16 -12l-9 -2l16 -3l-33 -9l9 -2l-3 -4l7 -4h21l-1 -4l4 1l-7 6l5 1
l-7 2l9 3l-12 6l27 3q4 0 7 1l-28 12q31 2 39 1l9 8h1v3l3 7h4h5h2l2 3l6 3l1 7l10 -5l8 13l2 -5q3 1 4 1q4 0 6 -1l4 7v2l15 -9q8 7 27 17l9 23l18 3l-7 1l11 4l-15 1q13 5 37 13v7l-17 7l14 1l-6 3q11 1 32 4l-6 3q28 0 40 4l7 -1h1l-29 11l-11 3l30 4l15 3l-1 4l2 2l3 2
l-3 1l2 2l-27 9l40 2l4 3q1 2 5 5zM1627 1183v1h-3v-1h3zM1253 1419v1h-3v-1h3zM1313 1330l-2 1l-1 -1l3 -1v1zM1248 1383v2l-2 -1v-2zM1239 1378v2h-3v-2h3zM1244 1337l-3 -1l2 -1zM1045 1527v2h-3v-2h3zM1248 1323l-1 3l-3 -2l1 -2zM2163 425l-2 4q-3 0 -6 -2l-4 6l-5 2
l-2 3q-3 -1 -7 -5l-2 1q-4 -1 -10 -5q0 -2 -1.5 -4.5t-1.5 -4.5q0 -15 -1 -20q1 -4 2 -11l3 1q1 3 3 6l4 -3l2 1l1 -1q0 -4 -1 -6l5 1l-1 6q3 0 5 -2q3 3 6 8h-7l3 1q1 2 2 7h4l-1 4l2 3l1 7q2 0 5 1.5t4 1.5zM1070 1448l-1 2l-2 -2v-1zM1064 1448l-1 2l-2 -2v-1zM1067 1446
v2l-5 -1v-2zM2090 386l-1 3l-1 -1l1 -2h1zM1040 1420v1h-4v-1h4zM1001 1457v2h-3v-2h3zM998 1458v2h-3v-2h3zM1078 1382q-4 0 -10 5l-2 1q-1 0 -5 -2.5t-8 -2.5l4 -2q0 -4 -2 -7q5 4 8 4l9 -1zM2117 305q-3 14 -19 32l-1 2l2 5q-3 27 -3 22q-2 4 -5 20q-2 -6 -4 -18l2 -2
q-1 -10 2 -19l-2 -3q2 -9 17 -32l-1 -6l8 -4zM988 1428l-4 1v-1l3 -2zM2167 223q-1 4 -4 8l-1 -1l-2 2v7q-1 5 -1 7l1 6q1 3 4 9q-1 12 -11 31h-4l-2 -2q2 -4 6 -11q-1 -6 1 -17l-5 -10q2 -4 4 -18l4 -4l-1 -7h5l5 -3v5zM961 1437v1h-3v-1h3zM1025 1357l-1 1l-2 -1v-1z
M1007 1364l-5 -4l1 -2zM1076 1270v1l-3 -1v-2zM1079 1252v2h-6v-2h6zM890 1425v1l-6 -3v-1zM885 1420h-5l-2 -2l3 -2zM1019 1270l-1 1l-6 -2v-1zM1721 518v1h-3v-1h3zM830 1387q-2 0 -6 1h-1h-2l3 -5l1 4h5zM748 1453v1l-3 -1v-1zM1509 671l-2 1l-1 -2l2 -1zM819 1349l-2 3
l-3 -4l2 -1zM1506 636v1h-2v-1h2zM1522 600l-4 1v-2l3 -1zM936 1133v2h-3v-2h3zM835 1174l-1 1l-3 -1v-1zM613 1384q-16 -4 -23 -4h-5q7 4 18 6l-7 2l-63 -10v-4h4l5 3h8l2 -2q4 1 10 3q4 -1 7 -2q-7 -2 -15 -1l2 -2q-6 -3 -20 -9q4 -2 9 -2q6 0 13.5 3.5t9.5 3.5h2l-18 -9
q8 2 26 7l-1 3l7 2q4 -1 9 -2q-2 0 19 11zM516 1415v2l-5 1v-2zM649 1331l-1 3q-4 2 -10 2q-7 0 -20 -6.5t-21 -6.5q-5 0 -5 6q-3 0 -4 -1l-10 6l-1 -4l3 -2q-1 0 0 -6q-8 -3 -22 -9l-6 1l-4 -2l-6 2l2 -5q6 0 17 -3q12 2 19 3l6 5q47 10 55 19l3 -3zM512 1415q-2 1 -4 1
q-1 0 -9 -3h-3v-2h3v2l3 -2q-5 0 -9 -1h11l-1 1q0 3 9 4zM491 1414l-1 2l-4 -2v-2zM849 1081l-16 -6q-6 1 -9 0l6 -1l-2 -3q-22 8 -34 -6v-4q-1 0 26 0q3 0 17 5l4 6l-1 2q3 2 9 7zM668 1205v6q-3 1 -7 2q-5 0 -14 -10l3 -2q-2 -2 -2 -4t1.5 -6t1.5 -6v-1l6 1l-4 -5l6 2
l1 -1l-12 -14v-3h4q3 2 10 11q0 6 3 16t3 14zM804 1084q0 5 -2 11.5t-7 6.5l-3 -1l-11 4l-5 -1q-6 2 -10 2l-2 3l-4 1l4 4l-3 2l5 1l-4 8l4 4q-13 1 -11 12q-5 0 -17 4h-4l-1 -5l-3 3q-24 -13 -55 -30v-2h5q6 3 10 3l-4 -4l6 -1l23 8l2 -1l-2 -3l7 2q3 -7 11 -7q3 0 9 2t9 2
q2 0 3 -1l-1 -3q3 1 8 -2l-1 -1l2 -3l-3 -1q-4 1 -12 2q-3 -1 -11 -2l-3 -2l-1 2l-5 -3l-1 2q-9 -8 -21 -20q4 1 8 5q-9 -11 -21 -42l2 -5h3q6 0 14 10.5t6 15.5q8 19 18 23v-3q4 4 13 8q0 4 3 6q4 -2 12 -7q-1 -4 -4 -12l-12 -10l1 -2h4q5 6 9 6l1 -1l1 -1q0 -2 -22 -32
q3 -1 10 -4q8 0 30 9t22 14l-2 3l-4 -5l-3 1l-13 -4q-2 0 -6 1q-6 0 -13.5 -5t-10.5 -5t-3 2q3 2 8 2q6 5 15 16t16 22l2 -5l2 1l5 -3l4 1l1 5zM806 992v4h-2v-4h2zM802 999h-1l-2 -3l2 -1zM801 982l-1 5h-2l1 -5h2zM304 1295q-3 0 -5 1l1 -3zM331 1245q-1 0 -2 2l-2 -2h4z
M222 1315v2l-6 -1v-1h6zM337 1192l-5 1l-2 -1h-2q3 1 6 -5zM327 1195l-1 1l-3 -2l1 -2zM328 1189l-1 1l-2 -1v-1zM342 1171l-1 1l-3 -4l1 -1zM330 1182q-3 0 -7 2l-3 -2h10zM342 1164v2h-3v-2h3zM297 1212l-1 2l-7 -4v-2zM338 1166v2l-2 -2v-1zM309 1167h-1q-1 0 -3 -1l2 -2
q1 2 2 3zM329 1120v4l-2 -2zM149 1293v2h-10v-2h10zM145 1291v2h-3v-2h3zM142 1290v2h-3v-2h3zM139 1292v2h-3v-2h3zM136 1291v2h-6v-2h6zM139 1289v2l-10 -1v-2zM91 1331v2h-3v-2h3zM129 1290v2h-4v-2h4zM128 1287v2h-2v-2h2zM126 1286v2l-5 1v-2zM82 1305l-1 2l-7 -3v-2z
M94 1282l-2 4l-3 -3zM96 1269v2h-5v-2h5zM90 1268v3h-1v-3h1zM617 606v1h-4v-1h-2v-6h2v6h4zM628 592l-2 2l-2 -2l-9 3l9 -6zM614 597v2h-2v-2h2zM840 192q-4 7 -14 14h-5q1 -2 1 -9q6 -3 6 -4l5 -2l4 -4zM1071 -49l-1 4q-6 -9 -11 -19l6 3q2 3 6 12zM964 -300l-2 2h-3
q2 -1 5 -2zM901 -294v2h-2v-2h2zM953 -341l-3 4q-2 -6 -10 -5v-4l4 1l2 -3l2 3l2 -3l-1 1q1 3 4 6zM947 -336q-2 2 -5 2l-5 -2l-2 3l-3 -3l4 -4q3 5 11 4zM934 -333v4h-2v-4h2zM906 -303l-4 1v-1l4 -1v1zM3481 1358l-9 1v2l9 -1v-2zM2420 1095h-4v1h4v-1zM2411 1090l-6 4
l3 1zM2412 1080l-2 -2q-4 4 -1 2q-2 4 -4 12q2 -2 7 -4v-8zM787 1099l-2 -3q-9 2 -14 4q3 0 6 -1l4 2l1 -2l1 1l3 -2zM765 1105l-1 -3l-1 1l1 2h1zM725 1121l-6 -4l-1 1l6 5zM722 1090l-5 -5l-1 1l5 5z" />
  </g>

</svg>
