<?xml version="1.0" standalone="no"?>
<!DOCTYPE svg PUBLIC "-//W3C//DTD SVG 1.1//EN" "http://www.w3.org/Graphics/SVG/1.1/DTD/svg11.dtd" >
<svg viewBox="0 -442 2048 2048">
  <g transform="matrix(1 0 0 -1 0 1606)">
   <path fill="currentColor"
d="M1960 678q-2 23 -28 74q-6 6 -16 19q-19 39 -39 78q-26 51 -51 66q-8 8 -28 19q-1 18 -8 24q-9 1 -30.5 5t-32.5 4q-16 0 -18 -24q106 -34 133 -111q-6 -9 -13 -9q-5 0 -5.5 3.5t-5.5 3.5q-4 0 -9.5 -3.5t-9.5 -3.5q2 0 -27 26.5t-55 26.5q-10 0 -19 -10q10 -12 47.5 -31
t55.5 -41q-15 -28 -33 -28q-5 0 -38 19t-38 19q-10 0 -24 -14q13 -23 53 -45q43 -25 57 -41v-21q-18 -8 -23 -8q1 0 -27 22.5t-51 22.5q-21 0 -21 -17q0 -18 22 -28q19 -7 38 -13q12 -9 38 -25q17 -5 49 -17q10 -4 15 -17q7 -17 10 -20q9 -4 25 -15q12 -13 25 -25.5
t33 -12.5q9 0 25 11q17 45 20 58q0 5 -3 13.5t-3 10.5q0 6 9 29v-991h-222q-21 85 -67 255q-14 49 -93 146l-14 6q-10 23 -30 67q-3 -4 -11 -4q-5 0 -25 21q6 6 18 17q2 11 20 79q15 57 15 71q0 3 -68.5 137t-68.5 157q0 4 1 9q-44 6 -129 36q-6 2 -14 2q-33 0 -95 -15
q-12 -3 -67 -6q-40 -2 -65 -18q0 -17 -4 -51q-1 -5 -9.5 -19t-8.5 -21q0 -20 16 -27t32 -12q11 -12 30 -33q4 4 3 15q27 -9 43 -23v-14q0 -2 2 -5q8 -14 52 -57.5t61 -55.5q46 -33 128 -40l12 -6h10q2 1 3 3q0 33 -34 61q-55 45 -58 49q44 9 66 12q3 2 3 9q0 19 -16 38
q-15 15 -30 31q1 5 5 8q22 14 26 35v45v5q18 4 17 4q1 0 5 -1q7 -91 31 -270q1 -4 9 -27q7 -19 6 -25l-66 -588h-40q17 72 38 329l11 11q-14 19 -91 84q-23 15 -47 30q-28 19 -36 41v5q0 12 6.5 39t6.5 41q0 24 -36 71q-26 34 -53 67h-13q-14 -102 -11 -175l19 -543h-95v374
q0 56 20 171q1 7 14 60q7 28 7 67q0 25 12 42t12 19q0 15 -12 15q-19 0 -19 -14q0 -7 4 -12q-22 2 -45 -50q-29 -64 -37 -71q-52 -31 -139 -82q-140 -84 -171 -204h-17q-12 70 -12 57q0 54 187 173q29 14 57 29q32 16 47 44q16 42 48 124q18 3 53 9l3 3v14q-26 18 -31 18
t-36.5 -17t-37.5 -17h-24v16q0 16 22 38l1 1q0 2 -3 5q-23 -11 -74 -88q-62 -92 -74 -105q-155 -170 -212 -307q-50 -121 -71 -183h-15l31 98h-3q-39 -66 -66 -227h-68q14 59 40 177q2 27 10 79q13 54 34 103q1 3 17 30q13 23 13 28q0 4 -6.5 15t-7.5 17q-5 36 -5 105
q0 44 21 97l21 53q0 3 -20 23q-23 22 -25 25q-59 79 -118 259q-15 46 -15 182q-17 3 -12 3q-5 0 -27.5 -27t-34.5 -27q-46 0 -55 14l1 14q1 19 -14 29.5t-15 24.5q0 49 16 65q-23 34 -23 42q0 22 18 39q0 16 16 38v13q-1 2 -4 3q-16 0 -24 -17l-15 -29q-86 21 -86 182
q0 8 16 75q22 5 27 28q4 20 7 41q14 2 28.5 5t18.5 17q-1 24 6 72q2 7 38 38q5 2 16 2q8 0 23 -4t23 -4q11 0 49 38q11 -8 32 -22q93 -58 121 -58h94q5 0 18 9t17 10q5 -8 5 -22q0 -43 -33 -90.5t-73 -64.5q6 -18 22 -29v-104q0 -40 -26 -75q-26 -30 -53 -61
q36 -70 118 -204q51 -58 146 -178q8 -24 33 -69q26 -33 47 -33l104 139q-36 66 -37 140l-274 71l282 4q15 66 56 119l-221 276l282 -217q29 21 67 35l-41 386l128 -369l9 1q19 2 60 -7l140 352l-58 -384q27 -16 50 -37l265 250l-214 -312q63 -38 63 -129q0 -23 7 -30
q16 -14 19 -19q1 -14 10 -42q13 -10 36 -30l14 15h32q0 -8 8 -8q-26 -25 -26 -37q0 -20 17 -20q38 0 41 23q5 32 33 48q-15 11 -15 17q0 -16 5 37q5 5 13 15v32q0 22 20 33q19 7 38 15q-13 11 -37 37q-1 3 -1 12t1 12q18 10 53 32q17 12 22 45q7 48 9 52q9 8 24 23
q1 17 6 50h82q79 -148 79 -170v-20l-70 130q-6 -2 -10 -21q-3 -1 -19 -4q-7 -5 -20 -44t-13 -51q0 -21 54 -75q8 -4 24 -11q-1 -38 30 -72q6 17 24 50v-45q-14 -13 -14 -20q0 -5 7.5 -14.5t7.5 -13.5v-109zM1599 647q-49 35 -55 35h-23q-4 -10 -13 -29q38 -40 87 -42
q2 12 4 36zM1307 918v18q-80 58 -78 58q6 0 -44 -17q12 -14 36 -35q49 -28 69 -28q4 0 9 2t8 2zM1489 713q0 5 -14 19.5t-20 14.5q-9 0 -15.5 -10t-12.5 -13q-9 8 -29 21v30q6 4 57 30q-8 37 -44 56q-7 -15 -22 -43q-7 -6 -16 -15q-17 -33 -17 -43q0 -23 13 -46q1 -2 15 -12
q14 0 42 -2q4 -1 16 -5.5t17 -4.5q30 0 30 23zM1599 542q0 8 -19.5 30.5t-27.5 22.5q-4 0 -7.5 -4t-7.5 -4q-7 0 -68 72q-32 -8 -44 -8v-21h4q12 0 19 -4v-9l-12 -12q54 -90 92 -95q2 -7 8 -21q9 -17 36 -31q27 81 27 84zM1724 605q-23 7 -26 27h-21l-7 -7q-6 7 -21 15
l-91 -439q28 -6 82 -20q8 112 84 424zM1166 1023q-12 16 -64 16q-69 0 -106 -32q-54 -47 -54 -76q0 -9 18 -9q32 22 64.5 43t71.5 21q28 0 54 -7q5 10 16 44zM1106 954q0 13 -17 13q-125 0 -146 -163q18 19 43 54q0 13 6 38q19 37 49 37q5 0 26.5 -9t26.5 -10q0 7 6 21t6 19
zM1196 926v14h-21q-5 -12 -32.5 -30.5t-40.5 -18.5q-5 0 -12.5 7.5t-11.5 7.5q-16 0 -21 -22l-6 -32q-4 -8 -20.5 -14t-19.5 -14q15 -10 15 -19t-15.5 -24t-15.5 -23q0 -6 6 -11q12 12 45 26l3 -2v-10q-32 -33 -55 -56q-7 19 -7 30h-18v-62q0 4 13 -25q16 32 55 83
q20 6 57 20q0 3 -1 9.5t-1 10.5q0 21 17 21l26 -15l1 7q1 6 -15 25q16 5 37 3q0 32 8 48h-11q-15 0 -23 3q22 20 64 63zM589 1418q-8 3 -16 5q-10 0 -31 -2t-31 -2q-48 0 -112.5 40t-56.5 40q-4 0 -20 -10.5t-24 -11.5q-41 -6 -65 -7q-16 -25 -16 -27v-27h32q8 0 25 5.5
t25 5.5q44 0 82 -2q23 -30 33 -30q35 0 44 5q7 -17 23 -48q34 -11 46 -24q21 25 62 90zM1398 352v18h-22q0 -14 4 -18h18zM947 740v18h-6v-18h6zM1409 205v29h-12q-48 0 -87 24.5t-52 24.5q-4 -13 -15 -37q45 0 82.5 -27t51.5 -27q16 0 32 13zM1063 455v10h-14v-10h14z
M1033 474v17l-12 12h-25q3 -10 23 -29h14zM445 1053q-34 27 -48 73q-33 23 -34 23h-17v-14q26 -34 74 -87q2 -2 13 -2q8 -1 8 -5zM1018 577v14q-9 -12 -31 -27q-14 18 -32 45l-108 -95q14 -14 27 -14q6 0 37.5 17t43.5 17l3 -3q0 -4 -1.5 -11.5t-1.5 -11.5q14 7 42 20
q21 57 21 49zM297 1202h-47q-16 0 -29 -21l32 -5q26 13 44 26zM1395 99q0 33 -35 55q-30 19 -66 19t-36 -28q0 -9 4 -12q32 -25 119 -96q14 15 14 62zM274 1081v15l-25 -4q6 0 6 -6q0 -1 -21 -54t-24 -64h25q7 6 15 15q2 4 13 49t11 49zM707 573q-32 48 -97 143
q-47 64 -154 201q-27 31 -75 95q-1 9 -6 26q-12 14 -32 46q-3 11 -14 29q-45 37 -89 37q-8 0 -18.5 7t-15.5 7l-12 -22q0 -31 38 -31q6 0 18 4t19 4q4 0 6 -1q27 -23 29 -27q5 -8 5 -37q0 -17 52 -66q-10 -18 -10 -20q0 5 5 -13q2 -26 10 -78q28 -126 56 -251
q39 -133 127 -225q28 27 80 84q17 28 55 79q10 10 23 9zM786 448v33h-25q-54 -50 -54 -84q0 -11 5 -15h19q10 0 32.5 27.5t22.5 38.5zM809 374h-17q-36 -34 -84 -98q-62 -84 -78 -103q-109 -129 -156 -240q-9 -15 -21 -46q-1 -19 -6 -57q-11 -23 -29 -69l13 -13q7 6 16 16
q10 26 31 78q30 73 85 192q12 28 38 83q5 9 24 26q6 -7 14 -7z" />
  </g>

</svg>
