<?xml version="1.0" standalone="no"?>
<!DOCTYPE svg PUBLIC "-//W3C//DTD SVG 1.1//EN" "http://www.w3.org/Graphics/SVG/1.1/DTD/svg11.dtd" >
<svg viewBox="0 -442 2048 2048">
  <g transform="matrix(1 0 0 -1 0 1606)">
   <path fill="currentColor"
d="M1665 1602l-2 -3l-5 4l4 3zM1674 1571l-7 -6l2 14zM2048 1354q-32 -31 -85 -31l-10 -14q-4 -1 -8 -1q-5 0 -14 1.5t-14 1.5q-23 0 -42 -43q-18 -39 -16 -64l-7 -2q-14 15 -64 50q-54 37 -66 37t-42 -16q-23 24 -43 24q-14 0 -14 -25q0 -2 3 -8q18 -5 76 -45l2 -9l-17 -15
q-12 5 -36 13l-8 -16q-11 -2 -31 -11l-14 15q3 8 12 22q2 4 3 9q0 14 -16 27q-20 16 -23 22v13q6 12 21 36q37 8 38 22q-17 22 -17 40l19 14q8 -7 23 -21l21 -3l10 8l-3 18q29 38 29 89q0 12 -8.5 32.5t-9.5 29.5l3 11l-6 22l9 7l7 -4l13 12q12 -1 54 -57q48 -64 56 -71
q26 -10 77 -34q10 -11 37 -24l8 2q8 16 27 45l13 3l7 -10q0 -3 -20 -59l11 -22l-9 -6v-4l5 -10l7 -2l4 -6q2 2 47 9zM1560 1264l-5 -11l-7 19l8 7l4 -8v-7zM1498 829q-6 -14 -24 -35h-4l2 20l-3 11l28 29zM1774 963q-5 -35 -36 -94l2 -16q0 -11 -23 -11q-14 0 -14 -25
q0 -12 4.5 -34.5t4.5 -34.5q0 -17 -17 -50.5t-16 -46.5l-18 -19q8 -21 27 -63v-3q0 -9 -13 -29t-21 -24l-18 1q-8 0 -17.5 -11t-18.5 -11l-10 7q9 18 7 31q6 13 30 35v2l-23 13q-10 0 -16 -24q-8 -30 -10 -33q-6 1 -9 11t-9 10q-18 0 -18 -27q0 -11 3 -28l-11 -17l-11 -2
q-18 9 -18 24q0 1 4 19l6 7l-11 6l-11 -6l1 -10q-5 -9 -7 -26l-6 -5l-4 -8l-14 -6l-17 8l-17 -4q-10 2 -38 22l-21 -5l-6 5l-1 -14l-5 -2q-11 2 -11 22q0 14 5 34l-1 5l-10 -3q-6 -26 -6 -31q0 -12 10.5 -29.5t10.5 -25.5l-12 -10l-8 6q-32 -16 -42.5 -39t-18.5 -29l-14 -1
l-16 7q-17 0 -26 14t-17 27v7l7 10l-2 2q5 6 18 48l-4 6l-25 -1l-21 9l-13 -7l-10 7h-4q-7 0 -20.5 -6t-22.5 -4l-19 -12q-24 7 -27 7h-2q-18 -14 -48 -14l-15 17l-20 -6q-4 -2 -9 -20q-15 -10 -27 -43l-37 30l-11 -3l-6 3l-12 -5l-13 14l-15 -8l-7 7l-9 -5l-5 2l-1 14
q13 25 41 33q38 12 49 21l2 10q26 23 74 76q4 6 52 18l6 -3q11 0 17 -7t10 -8l12 2q11 -2 30 -10q35 2 98 25l12 -18l-7 -11l7 -10q7 5 27 8l7 -3l7 7h9l13 14v-10l2 -5l5 8v4q0 6 -8 14t-8 14q0 16 29 28.5t33 26.5q0 12 3 37q-5 23 -5 24q0 30 36 26q8 5 25 7l9 -11
l-12 -8l-7 -17h-2q-2 0 -16 -5l-2 -11l8 -2l3 -6l-4 -20l5 -12l4 -2q10 0 31 23q23 9 43 23l4 -2q23 11 33 25q17 24 23 30l14 3q12 26 26 37l20 43q28 28 28 106q0 17 -2 28l15 22l-10 14h-2l-11 -24l-11 -11l-4 4v9q8 16 26 36q-2 17 -12 39l5 10q17 11 25 23l-4 12l17 10
q10 0 15.5 -17.5t16.5 -17.5q18 0 25 16l-1 3l-18 -10l-12 18q8 33 24 33q7 0 12 -8.5t10 -9.5l13 4l4 -7q-6 -22 -6 -33q0 -26 24 -67.5t24 -80.5q0 -9 3 -15zM1566 469q-3 1 -7 5l6 -1zM1565 443l-1 -8l-4 2l1 7zM1407 467l-9 3l-21 -3l-7 4l7 6l5 -3l15 2zM1187 461
l-8 -7l-11 8l1 6l10 4l6 -1zM1135 486l-9 -6l-1 2v4l7 4zM985 458l-2 -3l-11 15l3 5zM1175 413q-2 -8 -36.5 -33.5t-44.5 -28.5q-8 20 -37 20l-21 -10q-5 -14 -16 -22l-1 -3q2 -17 6 -26h-2l-16 2l-15 10l1 14l-17 5q-10 9 -14 29q-4 25 -8 32l-16 -5l-10 8q21 4 61 25
q9 30 27 30l17 -14l19 3l7 -3l19 9l1 8q11 10 25 10q11 0 37 -19l12 1l9 -1q0 -10 1 -27zM740 546q-3 -14 -15 -26l-6 9l17 28zM720 508l-4 -8l-5 1l-1 7l5 9zM745 456l-1 -2l-7 8l4 3zM935 332q-3 -12 -24 -29.5t-26 -29.5q-5 -25 -10 -51q-8 -38 -22 -38l-20 13l-5 -5
l2 -17q-12 -7 -34 -24l-4 3q9 34 8 58l8 5l-4 13l-10 -6q0 -47 -19 -47l-26 24q2 9 13 26l-4 31l8 20l8 5l4 -2q11 1 26 26l-1 15l6 19l-14 25l-9 -6l13 -15l-16 -21q-7 0 -9.5 8t-7.5 8l-31 -22l-7 5l-1 4l3 9q-7 5 -15 33l7 9q3 -12 19 -26l8 4l-3 7q-12 9 -24 33l9 13
l10 -6l11 5l1 7h5l6 -6l19 6q15 16 39 30l5 -5h3q9 0 14.5 -18t18.5 -18l21 10q21 0 21 -19l-8 -16l1 -4l14 2l5 -15l11 -10zM715 409l-11 -10l7 15zM792 309l-8 -8l-1 5l6 10zM776 314q-4 -18 -14 -25l-7 7q2 8 9 23l8 1zM683 377l-3 -4l-19 -8v5q7 9 18 29l3 -2zM653 364
l-2 -9h-2l-8 11l5 7zM736 258l-2 -6l-5 1q4 4 7 5zM728 249l-11 -10l-4 2l13 12zM827 119q-11 -9 -14 -29l-8 -8l-4 4q1 13 13 36l7 3zM685 193l-6 2l4 4l2 -3v-3zM775 92l-2 -14l-7 2l-1 5l5 10zM723 64l-4 2l4 2v-4zM709 45l-6 -3v2l5 4zM695 23l-1 -6l-3 3zM680 27l-5 -1
l1 5zM682 -81l-5 -24q-10 -2 -19 -19q-16 1 -29 15l1 3l6 4l-2 10q27 6 40 14zM608 -178l-12 -6l-20 11l-3 28l11 7l21 -28zM797 -387l-3 -2l-5 3l1 10l3 -1zM560 -187l-6 -10l-4 5l1 9l5 1zM543 -214l-4 -5v7zM519 -212q-3 -8 -13 -19l-1 5zM475 -246l-7 -6l-3 2l1 4l9 3
v-3zM538 -249q-3 -7 -43 -39h-6q-11 -8 -15 -22l-12 -4q0 3 -1 8q0 18 16 31.5t18 23.5l2 1l8 -8l7 -2q4 1 21 19zM431 -250l-2 -3h-4l-1 5zM389 -270l-1 -4h-6l1 5l3 4zM234 -413l-10 -11l-7 2l3 16l9 3zM135 -414l-22 -28l-4 7l1 8l2 -1l20 19zM81 -433l-7 -4h-10l-5 8
l10 7h2zM14 -417l-9 -5l-5 12zM1872 1439l-2 4l-11 4l-3 -1l9 -9zM1658 600l-15 13l-3 -3l13 -13zM1299 572l-3 6h-5l-14 -15q-3 -14 -3 -15l1 -11q21 20 24 35z" />
  </g>

</svg>
