<?xml version="1.0" standalone="no"?>
<!DOCTYPE svg PUBLIC "-//W3C//DTD SVG 1.1//EN" "http://www.w3.org/Graphics/SVG/1.1/DTD/svg11.dtd" >
<svg viewBox="0 -442 2048 2048">
  <g transform="matrix(1 0 0 -1 0 1606)">
   <path fill="currentColor"
d="M847 1521h-21v7h21v-7zM1621 232q0 -62 -14 -124q-15 -3 -39 -26q-9 -19 -9 -309q0 -19 -38 -37q20 -15 20 -35q0 -8 -4 -22.5t-4 -22.5q0 -20 26 -30q-5 -16 -18 -48h-453q0 4 3.5 13.5t3.5 14.5q0 9 -17 33q-12 -11 -12 -21q0 -7 6 -16q-26 -1 -27 -24h-67q1 9 -3 15
q-22 -15 -23 -15q-3 0 -7.5 3.5t-7.5 3.5q-1 0 -4 -1l1 -1l-21 -4q14 23 30 24l-6 13q-41 -14 -40 -37h-49q4 12 7 20l-2 2q-6 3 -17 1l27 9v10q-12 4 -19 7q0 38 -8 47q8 4 23 19q-13 20 -28 25q-2 -8 -7 -25l-9 -6l-13 48q5 10 20 9q1 7 1 11q0 10 -6 30t-6 30q0 3 2.5 9
t2.5 9q0 14 -6 14q-3 0 -8.5 -4t-8.5 -4q-25 0 -25 52v13q4 0 13.5 -3.5t14.5 -3.5q8 0 14 6v18l-11 3l7 9q-5 5 -19 11q19 10 19 13q0 22 -42 20q9 19 19 25q-2 14 -28 24q-7 -18 -24 -52l6 -12l-9 -5q-13 13 -13 26q0 12 4 22q-6 12 -15 36h-7q-14 -10 -14 -29
q0 -8 2 -23.5t2 -23.5q-12 8 -18 49.5t-21 57.5q-18 -35 -21 -35t-8.5 4t-8.5 4q-14 0 -54 -30q-14 35 -27 57h-2l-7 -3q4 -8 12 -23q-8 -4 -26 -8q-2 7 -15 18.5t-20 11.5q-3 0 -6.5 -4t-6.5 -4q-27 0 -58 27h-10l-3 -3q0 -17 17.5 -27t17.5 -14t-2.5 -11t-2.5 -10
q-24 27 -32 27q-1 0 -4 -1l1 -2q-1 0 -4 -1q-5 0 -24 23l-13 -3q11 -21 11 -31q-24 22 -76 61q-4 -113 -7 -226q-5 -134 -28 -223q-23 -24 -64 -24q-3 0 -10 1q-23 34 -45 67q-32 50 -32 69q0 14 9.5 35t9.5 28q0 53 -11 158t-11 158q0 23 -1.5 67.5t-1.5 67.5t4.5 69
t4.5 69q0 11 -7 31.5t-7 31.5v288q0 -6 10 31q5 19 5 60q0 18 -7.5 52.5t-7.5 52.5t15 58q22 58 22 59l24 136q18 89 58 116q96 65 238 154q6 4 66 34q38 18 61 44q62 26 68 26q8 0 10 -6q9 2 26 6q-17 -7 -48 -24v-3l3 -6q8 1 26.5 10t27.5 9q3 0 13 -8q14 16 27 16
q29 0 70 -13q61 -18 69 -20q-47 -4 -47 -23q0 -4 2 -9q-4 -9 -28 -18t-30 -23q4 1 39 15l-1 -1q1 -7 6 -15l11 24q4 1 23 10q-4 -11 -4 -19q0 -1 1 -7q4 4 10 22h4q6 0 12 -3q7 11 16 11q-13 0 66 -12q-2 1 -54 25q2 2 14 2q16 0 23 12q6 -13 31 -11q15 -21 54 -20
q13 -13 51 -13q14 0 21 2q38 -89 38 -107q0 -8 -3 -16q15 -13 36 -49q18 -33 44 -50l-15 -5q7 -9 18.5 -9t124.5 -108q93 -89 133 -132q46 -49 33 -115q24 -12 66 -45q9 -11 19 -65q9 -48 9 -70q0 -14 -9.5 -41t-9.5 -41q0 -27 30.5 -66.5t30.5 -54.5q0 -16 -17 -54t-17 -61
q0 -30 17.5 -87.5t17.5 -87.5zM798 -230q-4 -6 -14 -17l-4 26zM482 45l-4 -10h-37l-1 9l2 6q10 -5 40 -5zM590 -106h-6v14h6v-14zM556 -83h-7l-3 33h6zM817 -345l-10 -5l-5 10l11 5zM836 -370q-5 -7 -18 -14q-2 6 -4 18zM548 -112l-5 -10l-5 2l5 10zM430 -30h-6v18h6v-18z
M601 -191l-4 -4l-13 14l4 3zM587 -208h-7l-4 17h6zM537 -157h-12v7h12v-7zM392 -9l-5 -10l-5 2l5 10zM449 -89l-5 -10l-5 2l5 10zM358 3l-4 -21h-6l4 21h6zM597 -242l-14 -9q-5 3 -13 10q2 1 7 1h12q-4 0 8 -2zM624 -273l-13 -13l-4 4l13 13zM565 -226l-17 4v7l17 -5v-6z
M328 10l-5 -10l-6 2l5 10zM381 -46l-4 -33h-7l4 33h7zM604 -289l-2 -5l-12 4v6zM579 -273h-6l-4 9l5 2zM385 -102h-7v18h7v-18zM613 -318l-10 -10l-4 4l10 9zM588 -304l-12 -4q-3 5 -10 14q22 -4 22 -10zM564 -338h-7v26h7v-26zM590 -362l-4 -21h-6l4 21h6zM326 -117
q-16 8 -26 8l4 14q7 -2 22 -4v-18zM395 -201l-2 -6l-13 5v6zM560 -364l-9 -12l-5 4l9 12zM484 -307h-7v14h7v-14zM319 -144q-9 2 -15 14l15 4v-18zM564 -399h-6l-5 9l6 2zM517 -360q-9 -3 -26 -13q-2 13 -4 38q8 0 16 8l1 -3l-6 -11q7 -12 19 -19zM552 -414h-6l-4 13l5 2z
M533 -403h-6v14h6v-14zM479 -392l-3 -5l-14 9l4 5zM438 -372l-5 -4l-13 16l5 3zM422 -377l-19 -8v5l17 9zM419 -398l-10 -10l-4 4l10 9zM383 -397q-7 -6 -22 -17q4 5 4 17h18zM1026 1434v6l-52 15v-5zM1434 935q-4 4 -15 5l9 -15zM790 1516v6l-14 2v-6zM1320 896l-18 10
l-3 -8l3 -7zM1293 930l-5 10h-17q-1 -15 -1 -11v-10l2 -9q6 8 21 20zM1226 978q-58 -21 -100 -31l12 -37l9 5q0 2 -1 6q0 8 5 16h3l40 12t32 29zM1567 568q-5 11 -19 11q-12 0 -26 -14q13 3 45 3zM570 1528q-5 3 -14 10l-5 -18q11 0 19 8zM1125 989h-17l-13 -13l9 -13
q13 7 21 26zM550 1518h-5l-24 -54l5 -3zM1263 779l-27 4l17 -18q3 5 10 14zM1194 779q-3 5 -10 13q-1 -2 -16 -29l8 -2l6 1zM1441 510q0 3 -1 8q-8 -7 -21 -24v-14q13 0 18 -4q0 6 2 17t2 17zM1319 591l-5 11l-9 -11h14zM1247 614q-9 18 -19 18q-1 0 -7 -1q0 -14 17 -22z
M1434 434q0 8 -5 15q-14 -9 -33 -33h17q21 9 21 18zM1224 596l-2 6l-7 -2l3 -7zM1390 413q-9 2 -28 5q7 -13 26 -13l-2 4zM1229 557v2l-1 8l-11 -9l10 -6zM1376 332v10h-14v-10h14zM1285 332v18q-10 -2 -15 -5zM1282 307q0 1 -2 9q-8 -8 -25 -24l9 -10l13 4q5 10 5 21z
M1289 244l-4 11l-10 -14zM1291 188v2l-3 8q-13 -8 -33 -30q12 7 36 20zM1058 987q-58 -18 -177 -46q-64 -4 -127 -7q-81 -5 -119 -31q2 -23 2 -15q0 -28 -37 -131q-39 -106 -55 -106q-35 0 -102.5 -13.5t-102.5 -13.5q-34 0 -50 61q-11 45 -23 89l2 1q5 -6 12 -6
q9 0 24.5 7.5t24.5 7.5q3 0 5 -3.5t5 -3.5q6 0 16 7.5t16 7.5t18 -4t18 -4q8 0 22.5 6t24.5 6q8 38 25 115q13 71 27 141q23 94 60 123q17 13 24 13q69 0 185 -44l182 -70q24 -8 74 -16q6 3 6 10q0 19 -14 35q-25 29 -47 75q-19 41 -38 81l15 18q-20 11 -38 46.5t-33 45.5
q-18 6 -53 18l-6 19l-30 24q-48 33 -134 40l-1 -1q-60 -26 -76 -26q2 0 -25 7q-20 -11 -40 -11q-320 -206 -319 -396q21 88 118 88q10 0 21 -7l-1 -4q3 -7 5 -14q0 -30 -27 -112.5t-44 -106.5q-13 0 -39 5.5t-40 5.5q-16 0 -25 -16q-16 -30 -16 -248q0 -85 16 -218
q21 -178 24 -218q29 -6 87 -6q104 0 172 14q143 30 226 111q121 119 235 312q124 210 147 358zM1241 188l-3 6l-10 -9l10 -6zM1285 108v37q-19 -18 -19 -29q0 -8 5 -16q7 0 14 8zM1250 95q-16 -8 -21 -18h13q8 7 8 18zM1234 -87v11h-7v-11h7zM1240 -107l-10 4l-5 -18z
M1255 -153h-15l10 -10zM1228 -148q0 5 -4 13t-4 13q-21 -10 -21 -22l7 -2q-8 -4 -23 -12q12 -3 37 -9q0 4 4 9.5t4 9.5zM1251 -215q-4 8 -13 17l-6 -11q0 -2 10 -11zM1182 -179h-18l-7 -12v-25q22 11 25 37zM779 161v14h-14v-14h14zM810 120q0 20 -5 36h-14v-14q9 -12 8 -27
zM1216 -277q0 15 -13 15q-3 -5 -9 -14q3 -1 8 -2h6q3 0 8 1zM783 113l-9 5l-14 -13q3 -1 8 -2q7 0 15 10zM1110 -245q-15 13 -20 13q-1 0 -6 -1q6 -8 6 -15q0 -5 -6.5 -12.5t-6.5 -12.5l17 -4q0 1 16 32zM1083 -304q-1 5 -5 15l-9 -15h14zM717 71q-5 2 -17 5l-4 -10
q1 0 4 -1q7 0 17 6zM1138 -358h-5l-5 -13l6 -2zM1091 -317l-17 9v-34q9 9 17 25zM796 -132v14h-7v-14h7zM866 -271q-8 14 -9 28h-3l-6 4q-4 -5 -4 -10q0 -16 22 -22zM834 -273l-5 15l-5 -2l4 -13h6zM475 89q-12 22 -30 21v-14q12 -6 20 -16zM411 110l-6 5l-3 -3l5 -6z
M147 187q-2 6 -4 18h-14v-14zM163 154q0 5 -10 14q-13 -12 -13 -17q0 -18 18 -25q0 5 2.5 14t2.5 14zM189 105v7h-10v-7h10zM201 4l-2 5l-9 -4v-6zM220 -56q-6 12 -6 24q-6 -8 -17 -24h23zM219 -80l-17 4q0 -7 13 -19zM196 -70v7h-10v-7h10zM142 6l-3 13q-8 0 -24 8
q-13 -12 -13 -15q0 -11 9 -18l-3 -15l5 -5h2l6 -6q-15 -6 -15 -21q0 -19 13 -38q6 2 17 9v36q0 -16 -9 29zM235 -126q-12 -3 -13 -3q-4 0 -14 22h-14q1 -7 3 -20q-5 -6 -17 -12l2 -12h14l7 10q6 -6 19 -15q4 10 13 30zM179 -161l-5 2l-5 -10l5 -2zM136 -246q-3 8 -14 10v-15
zM185 -290h-2l-8 -7v-15q10 9 10 22zM111 -266v14h-7v-14h7zM608 500q-6 -9 -15 -9q-23 0 -65 15.5t-65 15.5q-30 0 -87.5 -13.5t-87.5 -13.5q-23 0 -23 27q0 23 46 23q29 0 66 22.5t41 22.5q27 0 66 -23q11 4 14 4q17 0 59.5 -28t50.5 -43zM593 436q-119 -67 -270 -67
q-12 0 -39 11q-30 13 -30 22v16q6 1 74 1q7 0 19.5 7.5t20.5 7.5q3 0 7 -2t7 -2q13 0 64 31q15 -8 27 -8q8 0 27 15q16 -11 48.5 -17.5t44.5 -14.5z" />
  </g>

</svg>
