<?xml version="1.0" standalone="no"?>
<!DOCTYPE svg PUBLIC "-//W3C//DTD SVG 1.1//EN" "http://www.w3.org/Graphics/SVG/1.1/DTD/svg11.dtd" >
<svg viewBox="0 -442 2048 2048">
  <g transform="matrix(1 0 0 -1 0 1606)">
   <path fill="currentColor"
d="M1652 0h-1480v1480h1480v-1480zM1552 100v1280h-1280v-1280h1280zM1425 501q-42 -87 -64 -114q-44 -54 -111 -54q-125 0 -329 221l-47 51l-24 -32q-184 -245 -292 -245q-77 0 -158 128q28 -6 42 -6q128 0 299 215l39 49l-29 34q-202 237 -202 330q0 68 111 173
q47 -213 191 -389l23 -28l41 51q205 255 329 255q61 0 99 -59q8 -12 20 -28q-151 -68 -347 -283l-42 -46l30 -33q182 -200 337 -200q45 0 84 10z" />
  </g>

</svg>
