<?xml version="1.0" standalone="no"?>
<!DOCTYPE svg PUBLIC "-//W3C//DTD SVG 1.1//EN" "http://www.w3.org/Graphics/SVG/1.1/DTD/svg11.dtd" >
<svg viewBox="0 -442 2048 2048">
  <g transform="matrix(1 0 0 -1 0 1606)">
   <path fill="currentColor"
d="M1252 -358h-189q-90 123 -166 177q-99 69 -230 69t-230 -69q-76 -54 -166 -177h-189q336 374 430 784l18 78q0 -8 -22 32q-11 20 -12 130q30 25 62 20l60 395q-25 14 -25 49q0 30 25 45q-21 12 -21 46q0 56 46 60q0 125 24 233q24 -108 24 -233q46 -4 46 -60
q0 -34 -21 -46q25 -15 25 -45q0 -35 -25 -49l60 -395q32 5 62 -20q-1 -110 -12 -130q-22 -40 -22 -32l18 -78q94 -410 430 -784zM721 1130q0 15 -18 29.5t-18 17.5t16 12.5t16 31.5q0 30 -23 37.5t-23 13.5q0 59 -4 107q-4 -48 -4 -107q0 -6 -23 -13.5t-23 -37.5
q0 -22 16 -31.5t16 -12.5t-18 -17.5t-18 -29.5q0 -18 13.5 -29t12.5 -16h56q-1 5 12.5 16t13.5 29zM736 812l-22 151h-94l-22 -151h138zM754 694l-5 37h-164l-5 -37h174zM818 656q-16 10 -32 10h-238q-16 0 -32 -10q1 -48 13 -115q6 -7 16 -22h244q6 7 16 22.5t13 114.5z
" />
  </g>

</svg>
