<?xml version="1.0" standalone="no"?>
<!DOCTYPE svg PUBLIC "-//W3C//DTD SVG 1.1//EN" "http://www.w3.org/Graphics/SVG/1.1/DTD/svg11.dtd" >
<svg viewBox="0 -442 2048 2048">
  <g transform="matrix(1 0 0 -1 0 1606)">
   <path fill="currentColor"
d="M1652 0h-1480v1480h1480v-1480zM1502 150v1180h-1180v-1180h1180zM1414 537q-93 -190 -195 -190q-89 0 -266 162l-46 42l-15 -21q-169 -236 -256 -236q-115 0 -226 187q15 -1 22 -1q133 0 292 200l27 34l-35 38q-148 161 -148 265q0 89 162 210q23 -158 137 -302l30 -38
l24 31q165 213 303 213q106 0 161 -161q-16 2 -24 2q-58 0 -155 -81q-77 -64 -126 -129l-31 -41l30 -28q167 -156 335 -156z" />
  </g>

</svg>
