<?xml version="1.0" standalone="no"?>
<!DOCTYPE svg PUBLIC "-//W3C//DTD SVG 1.1//EN" "http://www.w3.org/Graphics/SVG/1.1/DTD/svg11.dtd" >
<svg viewBox="0 -442 2048 2048">
  <g transform="matrix(1 0 0 -1 0 1606)">
   <path fill="currentColor"
d="M2048 -442h-2048v953q32 0 86 28q36 18 129 78q93 57 270 181q17 14 53 52q77 87 235 259q44 38 124 120q12 15 55 83q10 1 40 8q25 5 41 5q76 0 104 -21q7 -5 40 -64q31 19 39 19q37 0 118 -115q91 -128 244 -291q85 -90 331 -260q47 -27 139 -82v-953zM1994 363v73
q-185 83 -364 263l-152 146q-89 87 -142 155q-33 59 -114 165q-9 -6 -70 -32q8 -19 8 -31q0 -7 -1 -11q-28 24 -49 64q-18 37 -35 73q-45 4 -71 4q-19 0 -60 -52l-55 -69q-22 -15 -62 -48q-41 -40 -146 -163q-89 -105 -152 -157q-186 -155 -425 -279q-9 -4 -64 -18
q64 -29 79 -29q38 0 95 37q29 28 87 83q5 -31 9 -62q9 -42 34 -42q17 0 37 27q13 21 27 42q28 27 83 84q1 -2 2 -6q0 -26 -45 -126q18 -10 24 -26h16q31 50 62 99q38 57 78 86v-9q0 -28 -18.5 -75.5t-18.5 -58.5q0 -17 13 -33q20 35 64 101q19 22 54 70q-3 -23 -23 -88
q-17 -55 -17 -90q0 -2 32 -67q13 26 44 74q56 78 171 234v-6q0 -65 -64 -231q17 -6 25 -6q10 0 44.5 55.5t52.5 54.5q43 113 87 244q2 -7 6 -9l-1 -87q0 -65 6 -87q9 -32 47 -72q8 19 18 30q43 -26 51 -65q2 -9 2 -84q0 -22 6 -40q15 92 21 164q8 -23 8 -38q10 1 17 9
q0 9 -1 28t-1 29q0 16 10 41t10 28q0 20 -9.5 57t-9.5 56q7 -16 26 -46q28 21 53 21q5 0 7 -4q-2 -5 -2 -9q0 -32 54 -133q37 -68 74 -137q19 -6 27 -6q5 0 11 7.5t11 7.5q7 0 68 -98l13 5q-32 70 -39 89q-20 51 -25 93q27 -27 61 -93.5t60 -92.5q0 12 -5 37.5t-5 39.5
q0 20 9 35l109 -199v18l-138 301q59 -52 127 -194q11 -24 36 -64q13 -13 28 -13q6 0 14 2l-107 224q52 -5 108 -84q29 -45 59 -89q13 -9 40 -9l40 -76l4 52z" />
  </g>

</svg>
