<?xml version="1.0" standalone="no"?>
<!DOCTYPE svg PUBLIC "-//W3C//DTD SVG 1.1//EN" "http://www.w3.org/Graphics/SVG/1.1/DTD/svg11.dtd" >
<svg viewBox="0 -442 2048 2048">
  <g transform="matrix(1 0 0 -1 0 1606)">
   <path fill="currentColor"
d="M1967 944l-244 -112q-141 -68 -234 -132q-81 -56 -221 -204q-3 -1 -8 -1q-12 0 -32 7q115 146 308 262q127 75 367 177v2q-235 121 -351 221q-109 93 -276 310q-437 -222 -656 -507q183 -105 265 -182q88 -82 196 -254h-13q-18 0 -47 9l-51 82q-103 166 -397 336
q223 302 711 558q193 -230 305 -328q153 -135 378 -244zM1763 946q-18 5 -161 22q-223 27 -270 27h-72v-96q0 -4 -5 -35q-26 -159 -66 -263l-99 137q76 117 94 249l-5 2q-112 0 -354 -50l-90 57l325 39q49 4 123 17q8 183 73 322q38 -38 48 -62q-44 -89 -44 -259
q97 -2 194 -5q123 -4 187 -25q13 -4 122 -77zM1857 -59l-857 -351l-912 351v630l658 156q51 -8 154 -27q9 -12 28 -37l-182 35l-626 -154l880 -269l819 269l-382 60q-33 -25 -56 -48l5 -4q68 -13 203 -38l-308 -66l-823 157l265 64q89 -17 234 -46q12 -15 21 -33l-254 43
q-37 -5 -101 -24l659 -128l137 30q-18 6 -103 20q35 40 53 58q35 34 62 47l426 -68v-627zM1824 -36v546l-807 -265v-610zM981 -365v610l-860 265v-546z" />
  </g>

</svg>
