<?xml version="1.0" standalone="no"?>
<!DOCTYPE svg PUBLIC "-//W3C//DTD SVG 1.1//EN" "http://www.w3.org/Graphics/SVG/1.1/DTD/svg11.dtd" >
<svg viewBox="0 -442 2048 2048">
  <g transform="matrix(1 0 0 -1 0 1606)">
   <path fill="currentColor"
d="M2038 644l-242 -152l146 -229l-208 -19l85 -268l-314 134l-132 -161l-173 129l-177 -146l-177 146l-167 -129l-135 161l-314 -134l85 269l-208 18l143 232l-240 147l240 146l-149 220l213 25l-84 268l314 -131l135 161l167 -129l178 144l177 -144l169 129l59 -73l419 309
l-205 -347l176 81l-85 -269l214 -24l-149 -217zM1945 645l-217 129l132 193l-190 21l73 229l-223 -106l158 269l-259 -186l-55 70l-164 -123l-176 143l-175 -143l-164 120l-128 -150l-251 108l73 -231l-190 -21l131 -193l-217 -132l217 -135l-129 -203l188 -15l-73 -228
l252 105l129 -150l162 123l175 -146l176 146l164 -123l126 150l253 -105l-73 227l187 16l-129 205zM1546 1234l-514 -875l-93 243l-528 -445l534 884l79 -211z" />
  </g>

</svg>
