<?xml version="1.0" standalone="no"?>
<!DOCTYPE svg PUBLIC "-//W3C//DTD SVG 1.1//EN" "http://www.w3.org/Graphics/SVG/1.1/DTD/svg11.dtd" >
<svg viewBox="0 -442 2048 2048">
  <g transform="matrix(1 0 0 -1 0 1606)">
   <path fill="currentColor"
d="M1794 582q0 -354 -251 -605t-605 -251t-605 251t-251 605t251 605t605 251t605 -251t251 -605zM1694 582q0 313 -221.5 534.5t-534.5 221.5t-534.5 -221.5t-221.5 -534.5t221.5 -534.5t534.5 -221.5t534.5 221.5t221.5 534.5zM1672 642q0 -115 -105 -115q-106 0 -106 117
q0 48 43 123q55 94 63 120q8 -27 61 -122q44 -78 44 -123zM1435 694h-100q0 68 -25 133q-32 86 -87 86t-87 -86q-25 -65 -25 -133h-100q0 114 48 206q60 113 164 113t164 -113q48 -92 48 -206zM865 694h-100q0 68 -25 133q-32 86 -87 86t-87 -86q-25 -65 -25 -133h-100
q0 114 48 206q60 113 164 113t164 -113q48 -92 48 -206zM1469 513q0 -219 -156 -375t-375 -156t-375 156t-156 375h1062zM1620 637q0 40 -57 129q-17 -32 -34 -63q-22 -43 -22 -65q0 -65 58 -65q55 0 55 64zM1357 413h-838q35 -145 152.5 -238t266.5 -93t266.5 93t152.5 238
z" />
  </g>

</svg>
