<?xml version="1.0" standalone="no"?>
<!DOCTYPE svg PUBLIC "-//W3C//DTD SVG 1.1//EN" "http://www.w3.org/Graphics/SVG/1.1/DTD/svg11.dtd" >
<svg viewBox="0 -442 2048 2048">
  <g transform="matrix(1 0 0 -1 0 1606)">
   <path fill="currentColor"
d="M1794 474q0 -354 -251 -605t-605 -251t-605 251t-251 605q0 325 216 568v504l346 -268q142 52 294 52t294 -52l346 268v-504q216 -243 216 -568zM1694 474q0 313 -221.5 534.5t-534.5 221.5t-534.5 -221.5t-221.5 -534.5t221.5 -534.5t534.5 -221.5t534.5 221.5
t221.5 534.5zM1359 634q0 -68 -45.5 -113t-113.5 -45q-70 0 -114.5 45t-44.5 115t48 114q-17 14 -27 32l221 225l76 -76l-133 -138q133 -31 133 -159zM835 636q0 -70 -44.5 -115t-114.5 -45q-68 0 -113.5 45t-45.5 113q0 128 133 159l-133 138l76 76l221 -225
q-10 -18 -27 -32q48 -44 48 -114zM1388 146q-204 -205 -450 -205t-450 205l72 75q184 -174 378 -174t378 174z" />
  </g>

</svg>
