<?xml version="1.0" standalone="no"?>
<!DOCTYPE svg PUBLIC "-//W3C//DTD SVG 1.1//EN" "http://www.w3.org/Graphics/SVG/1.1/DTD/svg11.dtd" >
<svg viewBox="0 -442 2048 2048">
  <g transform="matrix(1 0 0 -1 0 1606)">
   <path fill="currentColor"
d="M1794 582q0 -354 -251 -605t-605 -251t-605 251t-251 605t251 605t605 251t605 -251t251 -605zM1694 582q0 313 -221.5 534.5t-534.5 221.5t-534.5 -221.5t-221.5 -534.5t221.5 -534.5t534.5 -221.5t534.5 221.5t221.5 534.5zM1392 895q0 -89 -97 -202q-83 -97 -176 -152
q-29 70 -57 117q-4 7 -71 101q-38 53 -58 115q-55 -67 -109 -135q-70 -88 -75 -148q-258 133 -258 286q0 56 35 93t90 37q77 0 101 -75q52 75 111 75q51 0 73 -22q15 -16 35 -69q36 96 122 96q83 0 104 -69q23 23 47 46t61 23q47 0 84.5 -35.5t37.5 -81.5zM1388 254
q-204 -205 -450 -205t-450 205l72 75q184 -174 378 -174t378 174z" />
  </g>

</svg>
