<?xml version="1.0" standalone="no"?>
<!DOCTYPE svg PUBLIC "-//W3C//DTD SVG 1.1//EN" "http://www.w3.org/Graphics/SVG/1.1/DTD/svg11.dtd" >
<svg viewBox="0 -442 2048 2048">
  <g transform="matrix(1 0 0 -1 0 1606)">
   <path fill="currentColor"
d="M1794 582q0 -354 -251 -605t-605 -251t-605 251t-251 605t251 605t605 251t605 -251t251 -605zM1556 1017q-105 148 -265 233q-165 88 -353 88t-353 -88q-160 -85 -265 -233h1236zM1694 582q0 172 -74 326h-145v-134q0 -19 -18 -53q-69 -132 -249 -132q-95 0 -172 46
q-87 53 -97 141q-22 -90 -100 -141q-72 -46 -169 -46q-166 0 -253 143q-14 23 -14 35v141h-147q-74 -154 -74 -326q0 -313 221.5 -534.5t534.5 -221.5t534.5 221.5t221.5 534.5zM1388 254q-204 -205 -450 -205t-450 205l72 75q184 -174 378 -174t378 174z" />
  </g>

</svg>
