<?xml version="1.0" standalone="no"?>
<!DOCTYPE svg PUBLIC "-//W3C//DTD SVG 1.1//EN" "http://www.w3.org/Graphics/SVG/1.1/DTD/svg11.dtd" >
<svg viewBox="0 -442 2048 2048">
  <g transform="matrix(1 0 0 -1 0 1606)">
   <path fill="currentColor"
d="M1930 40q0 -43 -33.5 -72.5t-76.5 -29.5q-93 0 -122 140q-119 -163 -298 -256q-185 -96 -394 -96q-211 0 -397 98q-180 94 -299 260q-21 -146 -121 -146q-45 0 -76 30t-31 75q0 52 49 102q44 46 104 66q-85 176 -85 371q0 354 251 605t605 251t605 -251t251 -605
q0 -193 -82 -366q150 -80 150 -176zM1716 322q-5 71 -127 118v-34q0 -42 16 -85q21 -56 55 -56q22 0 40 18q11 26 16 39zM1876 43q0 57 -122 122l-3 -5q6 -52 11 -104q13 -64 58 -64q56 0 56 51zM1762 582q0 313 -221.5 534.5t-534.5 221.5t-534.5 -221.5t-221.5 -534.5
q0 -88 21 -176q14 12 203 136l6 -29h1053l5 29q34 -33 76 -58q34 -17 69 -35q39 -21 57 -49q22 89 22 182zM1425 413h-109v-199q82 85 109 199zM1216 137v276h-160v-328q85 10 160 52zM1664 210q-122 0 -133 227q-28 -195 -178 -325t-347 -130q-196 0 -345.5 128t-179.5 321
q-3 -79 -30 -138q-36 -76 -102 -85q101 -177 277 -279.5t380 -102.5t380.5 103t277.5 281zM956 85v328h-160v-276q75 -42 160 -52zM696 214v199h-109q27 -114 109 -199zM413 346v95q-110 -53 -121 -107q12 -34 24 -61q13 -8 27 -8q25 0 47.5 28t22.5 53zM257 168
q-66 -38 -80 -49q-47 -37 -47 -76q0 -51 54 -51q53 0 62 68q6 54 11 108zM1543 694h-100q0 68 -25 133q-32 86 -87 86t-87 -86q-25 -65 -25 -133h-100q0 114 48 206q60 113 164 113t164 -113q48 -92 48 -206zM893 694h-100q0 68 -25 133q-32 86 -87 86t-87 -86
q-25 -65 -25 -133h-100q0 114 48 206q60 113 164 113t164 -113q48 -92 48 -206z" />
  </g>

</svg>
