<?xml version="1.0" standalone="no"?>
<!DOCTYPE svg PUBLIC "-//W3C//DTD SVG 1.1//EN" "http://www.w3.org/Graphics/SVG/1.1/DTD/svg11.dtd" >
<svg viewBox="0 -442 2048 2048">
  <g transform="matrix(1 0 0 -1 0 1606)">
   <path fill="currentColor"
d="M1794 582q0 -354 -251 -605t-605 -251t-605 251t-251 605t251 605t605 251t605 -251t251 -605zM1694 582q0 313 -221.5 534.5t-534.5 221.5t-534.5 -221.5t-221.5 -534.5t221.5 -534.5t534.5 -221.5q216 0 399 114q-15 -2 -28 -2q-141 0 -257 117q-56 -11 -114 -11
q-221 0 -367 144q-137 136 -172 361l98 16q29 -188 139 -300q118 -121 302 -121t302 121q110 112 139 300l98 -16q-20 -131 -79 -237q28 -35 54 -104t26 -112q0 -27 -7 -50q223 222 223 536zM1372 104q0 45 -42 111q-69 -79 -160 -122q73 -52 135 -52q67 0 67 63zM1475 694
h-100q0 68 -25 133q-32 86 -87 86t-87 -86q-25 -65 -25 -133h-100q0 114 48 206q60 113 164 113t164 -113q48 -92 48 -206zM825 694h-100q0 68 -25 133q-32 86 -87 86t-87 -86q-25 -65 -25 -133h-100q0 114 48 206q60 113 164 113t164 -113q48 -92 48 -206z" />
  </g>

</svg>
