<?xml version="1.0" standalone="no"?>
<!DOCTYPE svg PUBLIC "-//W3C//DTD SVG 1.1//EN" "http://www.w3.org/Graphics/SVG/1.1/DTD/svg11.dtd" >
<svg viewBox="0 -442 2048 2048">
  <g transform="matrix(1 0 0 -1 0 1606)">
   <path fill="currentColor"
d="M1794 582q0 -354 -251 -605t-605 -251t-605 251t-251 605t251 605t605 251t605 -251t251 -605zM1694 582q0 313 -221.5 534.5t-534.5 221.5t-534.5 -221.5t-221.5 -534.5t221.5 -534.5t534.5 -221.5t534.5 221.5t221.5 534.5zM1378 709l-53 -89l-279 159v91l277 162
q24 -35 55 -91l-196 -114zM827 779l-276 -159q-31 52 -53 92l196 115l-196 114l50 91l279 -159v-94zM1469 513q0 -219 -156 -375t-375 -156t-375 156t-156 375h1062zM1357 413h-838q35 -145 152.5 -238t266.5 -93t266.5 93t152.5 238z" />
  </g>

</svg>
