<?xml version="1.0" standalone="no"?>
<!DOCTYPE svg PUBLIC "-//W3C//DTD SVG 1.1//EN" "http://www.w3.org/Graphics/SVG/1.1/DTD/svg11.dtd" >
<svg viewBox="0 -442 2048 2048">
  <g transform="matrix(1 0 0 -1 0 1606)">
   <path fill="currentColor"
d="M1794 582q0 -354 -251 -605t-605 -251t-605 251t-251 605t251 605t605 251t605 -251t251 -605zM1694 582q0 313 -221.5 534.5t-534.5 221.5t-534.5 -221.5t-221.5 -534.5t221.5 -534.5t534.5 -221.5t534.5 221.5t221.5 534.5zM1375 679q-21 -47 -52 -95l-277 162v94
l277 158l52 -88l-193 -117zM825 745q0 -67 -45 -112.5t-112 -45.5q-66 0 -112.5 46t-46.5 112q0 67 46 113t113 46q66 0 111.5 -46.5t45.5 -112.5zM1388 254q-204 -205 -450 -205t-450 205l72 75q184 -174 378 -174t378 174z" />
  </g>

</svg>
