<?xml version="1.0" standalone="no"?>
<!DOCTYPE svg PUBLIC "-//W3C//DTD SVG 1.1//EN" "http://www.w3.org/Graphics/SVG/1.1/DTD/svg11.dtd" >
<svg viewBox="0 -442 2048 2048">
  <g transform="matrix(1 0 0 -1 0 1606)">
   <path fill="currentColor"
d="M1800 1277q0 -146 -271 -232q268 -254 268 -622q0 -354 -251 -605t-605 -251t-605 251t-251 605q0 368 267 621q-270 86 -270 233q0 167 359 257q254 63 500 63t500 -63q359 -90 359 -257zM1693 1277q0 117 -324 176q-216 39 -425 39q-210 0 -428 -39q-327 -59 -327 -176
q0 -102 254 -158q223 160 498 160t499 -161q253 58 253 159zM1294 1092q-164 87 -353 87q-186 0 -349 -85q203 -27 397 -27q130 0 305 25zM1697 423q0 364 -284 591q-241 -54 -472 -54q-235 0 -473 53q-283 -227 -283 -590q0 -313 221.5 -534.5t534.5 -221.5t534.5 221.5
t221.5 534.5zM1370 583q0 -68 -46 -114t-114 -46q-66 0 -112.5 47t-46.5 113t46.5 112.5t112.5 46.5q67 0 113.5 -46t46.5 -113zM832 583q0 -66 -46.5 -113t-112.5 -47q-68 0 -114 46t-46 114q0 66 47 112.5t113 46.5t112.5 -46.5t46.5 -112.5zM1388 95q-204 -205 -450 -205
t-450 205l72 75q184 -174 378 -174t378 174z" />
  </g>

</svg>
