<?xml version="1.0" standalone="no"?>
<!DOCTYPE svg PUBLIC "-//W3C//DTD SVG 1.1//EN" "http://www.w3.org/Graphics/SVG/1.1/DTD/svg11.dtd" >
<svg viewBox="0 -442 2048 2048">
  <g transform="matrix(1 0 0 -1 0 1606)">
   <path fill="currentColor"
d="M1794 582q0 -354 -251 -605t-605 -251t-605 251t-251 605t251 605t605 251t605 -251t251 -605zM1694 582q0 313 -221.5 534.5t-534.5 221.5t-534.5 -221.5t-221.5 -534.5t221.5 -534.5t534.5 -221.5t534.5 221.5t221.5 534.5zM1376 677l-52 -90l-279 161v90l277 160
l54 -90l-194 -114zM827 745l-275 -158l-52 93l194 111l-194 117l52 90l275 -157v-96zM1259 265h-106q-4 -114 -53 -208q-61 -116 -162 -116q-100 0 -165 116q-57 102 -51 208h-105v107h642v-107zM1042 265h-214v-39q0 -44 31 -107q36 -72 75 -72q49 0 82 88q26 69 26 130z
" />
  </g>

</svg>
