<?xml version="1.0" standalone="no"?>
<!DOCTYPE svg PUBLIC "-//W3C//DTD SVG 1.1//EN" "http://www.w3.org/Graphics/SVG/1.1/DTD/svg11.dtd" >
<svg viewBox="0 -442 2048 2048">
  <g transform="matrix(1 0 0 -1 0 1606)">
   <path fill="currentColor"
d="M1794 582q0 -354 -251 -605t-605 -251t-605 251t-251 605t251 605t605 251t605 -251t251 -605zM1694 582q0 313 -221.5 534.5t-534.5 221.5t-534.5 -221.5t-221.5 -534.5t221.5 -534.5t534.5 -221.5t534.5 221.5t221.5 534.5zM1360 988l-73 -77l-226 227l71 74zM1362 747
q0 -66 -46.5 -112.5t-112.5 -46.5t-112.5 46.5t-46.5 112.5t46.5 112.5t112.5 46.5t112.5 -46.5t46.5 -112.5zM815 1138l-226 -227l-73 77l228 224zM832 747q0 -66 -46.5 -112.5t-112.5 -46.5t-112.5 46.5t-46.5 112.5t46.5 112.5t112.5 46.5t112.5 -46.5t46.5 -112.5z
M1388 214l-72 -75q-184 174 -378 174t-378 -174l-72 75q204 205 450 205t450 -205zM1126 111l-77 -73q-60 63 -111 63q-50 0 -111 -63l-77 73q93 96 188 96t188 -96z" />
  </g>

</svg>
