<?xml version="1.0" standalone="no"?>
<!DOCTYPE svg PUBLIC "-//W3C//DTD SVG 1.1//EN" "http://www.w3.org/Graphics/SVG/1.1/DTD/svg11.dtd" >
<svg viewBox="0 -442 2048 2048">
  <g transform="matrix(1 0 0 -1 0 1606)">
   <path fill="currentColor"
d="M1794 582q0 -354 -251 -605t-605 -251t-605 251t-251 605t251 605t605 251t605 -251t251 -605zM1694 582q0 313 -221.5 534.5t-534.5 221.5t-534.5 -221.5t-221.5 -534.5t221.5 -534.5t534.5 -221.5t534.5 221.5t221.5 534.5zM1369 986l-79 -78l-226 227l77 77zM1369 748
q0 -69 -46 -114.5t-115 -45.5t-115 45.5t-46 114.5q0 67 47 113.5t114 46.5t114 -46.5t47 -113.5zM829 1135l-227 -227l-78 78l228 221q21 -16 77 -72zM829 751q0 -68 -46.5 -115.5t-114.5 -47.5q-70 0 -115 45t-45 115q0 68 45 114t113 46q67 0 115 -45t48 -112zM1384 211
q-30 -39 -67 -77q-195 176 -379 176q-192 0 -379 -176l-72 72q77 94 203 152.5t248 58.5q118 0 243 -59q117 -56 203 -147z" />
  </g>

</svg>
