<?xml version="1.0" standalone="no"?>
<!DOCTYPE svg PUBLIC "-//W3C//DTD SVG 1.1//EN" "http://www.w3.org/Graphics/SVG/1.1/DTD/svg11.dtd" >
<svg viewBox="0 -442 2048 2048">
  <g transform="matrix(1 0 0 -1 0 1606)">
   <path fill="currentColor"
d="M1794 582q0 -354 -251 -605t-605 -251t-605 251t-251 605t251 605t605 251t605 -251t251 -605zM1694 582q0 313 -221.5 534.5t-534.5 221.5t-534.5 -221.5t-221.5 -534.5t221.5 -534.5t534.5 -221.5t534.5 221.5t221.5 534.5zM1367 845q0 -66 -46.5 -112.5t-112.5 -46.5
q-68 0 -113.5 45.5t-45.5 113.5q0 66 46.5 112.5t112.5 46.5t112.5 -46.5t46.5 -112.5zM832 848q0 -70 -44.5 -116t-114.5 -46t-114.5 44.5t-44.5 114.5q0 67 44.5 113t111.5 46q69 0 115.5 -43.5t46.5 -112.5zM1408 224h-883v107h883v-107z" />
  </g>

</svg>
