<?xml version="1.0" standalone="no"?>
<!DOCTYPE svg PUBLIC "-//W3C//DTD SVG 1.1//EN" "http://www.w3.org/Graphics/SVG/1.1/DTD/svg11.dtd" >
<svg viewBox="0 -442 2048 2048">
  <g transform="matrix(1 0 0 -1 0 1606)">
   <path fill="currentColor"
d="M1794 582q0 -354 -251 -605t-605 -251t-605 251t-251 605t251 605t605 251t605 -251t251 -605zM1694 582q0 313 -221.5 534.5t-534.5 221.5t-534.5 -221.5t-221.5 -534.5t221.5 -534.5t534.5 -221.5t534.5 221.5t221.5 534.5zM1475 694h-100q0 68 -25 133q-32 86 -87 86
t-87 -86q-25 -65 -25 -133h-100q0 114 48 206q60 113 164 113t164 -113q48 -92 48 -206zM825 694h-100q0 68 -25 133q-32 86 -87 86t-87 -86q-25 -65 -25 -133h-100q0 114 48 206q60 113 164 113t164 -113q48 -92 48 -206zM1183 102q0 -52 -76 -91q-65 -35 -122 -35v73
q22 1 54 16q36 18 36 37q0 20 -38 38q-33 16 -57 17v70q22 1 54 18q37 19 37 37q0 20 -36 38q-32 16 -55 17v71q60 -1 123 -34q75 -39 75 -92t-69 -87q74 -44 74 -93z" />
  </g>

</svg>
