<?xml version="1.0" standalone="no"?>
<!DOCTYPE svg PUBLIC "-//W3C//DTD SVG 1.1//EN" "http://www.w3.org/Graphics/SVG/1.1/DTD/svg11.dtd" >
<svg viewBox="0 -442 2048 2048">
  <g transform="matrix(1 0 0 -1 0 1606)">
   <path fill="currentColor"
d="M1794 582q0 -354 -251 -605t-605 -251t-605 251t-251 605t251 605t605 251t605 -251t251 -605zM1694 582q0 313 -221.5 534.5t-534.5 221.5t-534.5 -221.5t-221.5 -534.5t221.5 -534.5t534.5 -221.5t534.5 221.5t221.5 534.5zM1364 985q-19 -25 -72 -78l-226 226
q10 16 72 77zM1615 580q0 -115 -109 -115q-110 0 -110 115q0 39 45 123q62 115 65 124q5 -12 66 -121q43 -78 43 -126zM1370 747q0 -69 -47.5 -114.5t-117.5 -45.5q-66 0 -113 47t-47 113q0 64 49 112t113 48q68 0 115.5 -46t47.5 -114zM832 1133l-227 -226q-25 25 -77 72
l227 231zM832 747q0 -67 -49 -113.5t-116 -46.5q-66 0 -113 47t-47 113q0 67 47 113.5t115 46.5q64 0 113.5 -48.5t49.5 -111.5zM1367 264h-853v105h853v-105zM1561 582q0 53 -55 128q-56 -103 -56 -128q0 -69 56 -69q24 0 39.5 22t15.5 47z" />
  </g>

</svg>
