<?xml version="1.0" standalone="no"?>
<!DOCTYPE svg PUBLIC "-//W3C//DTD SVG 1.1//EN" "http://www.w3.org/Graphics/SVG/1.1/DTD/svg11.dtd" >
<svg viewBox="0 -442 2048 2048">
  <g transform="matrix(1 0 0 -1 0 1606)">
   <path fill="currentColor"
d="M1794 582q0 -354 -251 -605t-605 -251t-605 251t-251 605t251 605t605 251t605 -251t251 -605zM1694 582q0 313 -221.5 534.5t-534.5 221.5t-534.5 -221.5t-221.5 -534.5t221.5 -534.5t534.5 -221.5t534.5 221.5t221.5 534.5zM1377 679l-52 -93l-279 161v90l276 161
q28 -42 55 -87l-194 -118zM1624 390q0 -88 -97 -204q-88 -107 -177 -150q-19 42 -62 124l-78 104q-44 64 -44 119q0 52 36 89t88 37q85 0 105 -71h1q43 71 105 71q48 0 85.5 -35.5t37.5 -83.5zM831 745q0 -67 -47.5 -113t-114.5 -46q-68 0 -113.5 45.5t-45.5 113.5
q0 64 47.5 113t111.5 49q63 0 112.5 -49.5t49.5 -112.5zM1183 102q0 -81 -197 -126v74q88 18 88 52q0 39 -94 55v70q92 33 92 57q0 38 -92 50v74h12q8 0 49 -13q136 -43 136 -111q0 -55 -69 -89q25 -19 50 -37q25 -21 25 -56z" />
  </g>

</svg>
