<?xml version="1.0" standalone="no"?>
<!DOCTYPE svg PUBLIC "-//W3C//DTD SVG 1.1//EN" "http://www.w3.org/Graphics/SVG/1.1/DTD/svg11.dtd" >
<svg viewBox="0 -442 2048 2048">
  <g transform="matrix(1 0 0 -1 0 1606)">
   <path fill="currentColor"
d="M1794 582q0 -354 -251 -605t-605 -251t-605 251t-251 605t251 605t605 251t605 -251t251 -605zM1694 582q0 313 -221.5 534.5t-534.5 221.5t-534.5 -221.5t-221.5 -534.5t221.5 -534.5t534.5 -221.5t534.5 221.5t221.5 534.5zM1475 1013q0 -114 -48 -206
q-60 -113 -164 -113t-164 113q-48 92 -48 206h100q0 -68 25 -133q32 -86 87 -86t87 86q25 65 25 133h100zM825 1013q0 -114 -48 -206q-60 -113 -164 -113t-164 113q-48 92 -48 206h100q0 -68 25 -133q32 -86 87 -86t87 86q25 65 25 133h100zM1181 104q0 -80 -196 -125v73
q88 17 88 52q0 39 -93 54v70q91 33 91 57q0 40 -91 51v73h12q7 0 49 -13q135 -42 135 -111q0 -55 -68 -89q24 -18 49 -36q24 -21 24 -56z" />
  </g>

</svg>
