<?xml version="1.0" standalone="no"?>
<!DOCTYPE svg PUBLIC "-//W3C//DTD SVG 1.1//EN" "http://www.w3.org/Graphics/SVG/1.1/DTD/svg11.dtd" >
<svg viewBox="0 -442 2048 2048">
  <g transform="matrix(1 0 0 -1 0 1606)">
   <path fill="currentColor"
d="M1794 582q0 -354 -251 -605t-605 -251t-605 251t-251 605t251 605t605 251t605 -251t251 -605zM1694 582q0 313 -221.5 534.5t-534.5 221.5t-534.5 -221.5t-221.5 -534.5t221.5 -534.5t534.5 -221.5t534.5 221.5t221.5 534.5zM1362 770q0 -66 -46.5 -112.5t-112.5 -46.5
t-112.5 46.5t-46.5 112.5t46.5 112.5t112.5 46.5t112.5 -46.5t46.5 -112.5zM832 770q0 -66 -46.5 -112.5t-112.5 -46.5t-112.5 46.5t-46.5 112.5t46.5 112.5t112.5 46.5t112.5 -46.5t46.5 -112.5zM1262 256h-112q0 -114 -48 -206q-60 -113 -164 -113t-164 113
q-48 92 -48 206h-112v107h648v-107zM1050 256h-224q0 -68 25 -133q32 -86 87 -86t87 86q25 65 25 133z" />
  </g>

</svg>
