<?xml version="1.0" standalone="no"?>
<!DOCTYPE svg PUBLIC "-//W3C//DTD SVG 1.1//EN" "http://www.w3.org/Graphics/SVG/1.1/DTD/svg11.dtd" >
<svg viewBox="0 -442 2048 2048">
  <g transform="matrix(1 0 0 -1 0 1606)">
   <path fill="currentColor"
d="M1794 582q0 -354 -251 -605t-605 -251t-605 251t-251 605t251 605t605 251t605 -251t251 -605zM1694 582q0 313 -221.5 534.5t-534.5 221.5t-534.5 -221.5t-221.5 -534.5t221.5 -534.5t534.5 -221.5t534.5 221.5t221.5 534.5zM1453 748q0 -70 -47 -115.5t-117 -45.5
q-127 0 -158 136q-1 4 -1 8q0 11 2.5 33.5t2.5 34.5h-165v107h353q6 0 22 -9q13 -5 37 -17q71 -45 71 -132zM917 748q0 -66 -50 -113.5t-116 -47.5q-124 0 -158 136q-1 4 -1 8q0 11 3 34t3 34h-164v107h347q49 0 94 -55q42 -53 42 -103zM1367 264h-853v105h853v-105z" />
  </g>

</svg>
