<?xml version="1.0" standalone="no"?>
<!DOCTYPE svg PUBLIC "-//W3C//DTD SVG 1.1//EN" "http://www.w3.org/Graphics/SVG/1.1/DTD/svg11.dtd" >
<svg viewBox="0 -442 2048 2048">
  <g transform="matrix(1 0 0 -1 0 1606)">
   <path fill="currentColor"
d="M1794 582q0 -354 -251 -605t-605 -251t-605 251t-251 605t251 605t605 251t605 -251t251 -605zM1694 582q0 313 -221.5 534.5t-534.5 221.5t-534.5 -221.5t-221.5 -534.5t221.5 -534.5t534.5 -221.5t534.5 221.5t221.5 534.5zM1362 870q0 -66 -46.5 -112.5t-112.5 -46.5
t-112.5 46.5t-46.5 112.5t46.5 112.5t112.5 46.5t112.5 -46.5t46.5 -112.5zM832 870q0 -66 -46.5 -112.5t-112.5 -46.5t-112.5 46.5t-46.5 112.5t46.5 112.5t112.5 46.5t112.5 -46.5t46.5 -112.5zM1183 102q0 -52 -76 -91q-65 -35 -122 -35v73q22 1 54 16q36 18 36 37
q0 20 -38 38q-33 16 -57 17v70q22 1 54 18q37 19 37 37q0 20 -36 38q-32 16 -55 17v71q60 -1 123 -34q75 -39 75 -92t-69 -87q74 -44 74 -93z" />
  </g>

</svg>
