<?xml version="1.0" standalone="no"?>
<!DOCTYPE svg PUBLIC "-//W3C//DTD SVG 1.1//EN" "http://www.w3.org/Graphics/SVG/1.1/DTD/svg11.dtd" >
<svg viewBox="0 -442 2048 2048">
  <g transform="matrix(1 0 0 -1 0 1606)">
   <path fill="currentColor"
d="M1794 582q0 -354 -251 -605t-605 -251t-605 251t-251 605t251 605t605 251t605 -251t251 -605zM1694 582q0 313 -221.5 534.5t-534.5 221.5t-534.5 -221.5t-221.5 -534.5t221.5 -534.5t534.5 -221.5t534.5 221.5t221.5 534.5zM1469 933q0 -33 -34 -112.5t-58 -100.5
q-31 -17 -93 -50l54 -94q31 -56 31 -102q0 -114 -109 -114q-103 0 -103 114q0 47 29 100l56 90q-27 10 -79 37q-97 66 -122 270l6 23h99q27 -216 109 -216q46 0 81 77q30 65 30 118q0 12 -2 21h105v-61zM830 938q0 -6 -10 -37q-36 -112 -64 -154q-52 -75 -140 -75
q-89 0 -155 103q-59 92 -59 186v33h104q27 -216 110 -216q46 0 80 78q30 66 30 119q0 11 -2 18h106v-55zM1379 215q-30 -41 -66 -77q-178 174 -375 174q-191 0 -376 -174l-71 71q190 210 447 210q117 0 240 -59q116 -55 201 -145zM1316 477q0 33 -18 67l-32 60
q-55 -65 -55 -130q0 -61 52 -61q53 0 53 64z" />
  </g>

</svg>
