<?xml version="1.0" standalone="no"?>
<!DOCTYPE svg PUBLIC "-//W3C//DTD SVG 1.1//EN" "http://www.w3.org/Graphics/SVG/1.1/DTD/svg11.dtd" >
<svg viewBox="0 -442 2048 2048">
  <g transform="matrix(1 0 0 -1 0 1606)">
   <path fill="currentColor"
d="M1794 582q0 -354 -251 -605t-605 -251t-605 251t-251 605t251 605t605 251t605 -251t251 -605zM1694 582q0 313 -221.5 534.5t-534.5 221.5t-534.5 -221.5t-221.5 -534.5q0 -319 228 -541q22 200 173 336t355 136q203 0 354.5 -136t173.5 -336q228 222 228 541zM1357 82
q-35 145 -152.5 238t-266.5 93t-266.5 -93t-152.5 -238h838zM1398 -18h-920q203 -156 460 -156t460 156zM1475 1013q0 -114 -48 -206q-60 -113 -164 -113t-164 113q-48 92 -48 206h100q0 -68 25 -133q32 -86 87 -86t87 86q25 65 25 133h100zM1620 599q0 -48 -39.5 -78.5
t-89.5 -30.5q-5 0 -71 13q-53 11 -159 32q29 15 117 104q66 68 136 68q48 0 77 -30t29 -78zM825 1013q0 -114 -48 -206q-60 -113 -164 -113t-164 113q-48 92 -48 206h100q0 -68 25 -133q32 -86 87 -86t87 86q25 65 25 133h100zM1568 599q0 56 -57 56q-39 0 -134 -91
q9 -1 57 -13q36 -8 58 -8q76 0 76 56z" />
  </g>

</svg>
