<?xml version="1.0" standalone="no"?>
<!DOCTYPE svg PUBLIC "-//W3C//DTD SVG 1.1//EN" "http://www.w3.org/Graphics/SVG/1.1/DTD/svg11.dtd" >
<svg viewBox="0 -442 2048 2048">
  <g transform="matrix(1 0 0 -1 0 1606)">
   <path fill="currentColor"
d="M1794 582q0 -354 -251 -605t-605 -251t-605 251t-251 605t251 605t605 251t605 -251t251 -605zM1694 582q0 313 -221.5 534.5t-534.5 221.5t-534.5 -221.5t-221.5 -534.5t221.5 -534.5t534.5 -221.5t534.5 221.5t221.5 534.5zM1376 677l-52 -90l-277 159v93l271 158
q4 0 58 -88l-194 -117zM831 748l-279 -161l-52 90l196 115l-196 114l52 91l279 -161v-88zM1383 217q-23 -28 -69 -78q-181 176 -376 176q-200 0 -376 -176l-72 75q203 205 448 205q236 0 445 -202z" />
  </g>

</svg>
