<?xml version="1.0" standalone="no"?>
<!DOCTYPE svg PUBLIC "-//W3C//DTD SVG 1.1//EN" "http://www.w3.org/Graphics/SVG/1.1/DTD/svg11.dtd" >
<svg viewBox="0 -442 2048 2048">
  <g transform="matrix(1 0 0 -1 0 1606)">
   <path fill="currentColor"
d="M1794 582q0 -354 -251 -605t-605 -251t-605 251t-251 605t251 605t605 251t605 -251t251 -605zM1409 827v346q-25 20 -51 37v-307q34 -33 51 -76zM1310 938v302q-25 14 -51 26v-309q27 -6 51 -19zM1211 963v324q-25 10 -51 18v-348q25 6 49 6h2zM1112 940v378
q-25 6 -51 10v-424q23 22 51 36zM1370 748q0 67 -47 114t-114 47t-114 -47t-47 -114t47 -114t114 -47t114 47t47 114zM815 904v424q-26 -4 -51 -10v-378q28 -14 51 -36zM716 957v348q-26 -8 -51 -18v-324h2q24 0 49 -6zM617 957v309q-26 -12 -51 -26v-302q24 13 51 19z
M1694 582q0 124 -39 240v-243h-48v355q-23 43 -51 83v-438h-48v499q-24 28 -51 53v-552h-48v90q-17 -43 -51 -76v-14h-16q-59 -46 -133 -46q-86 0 -148 59v-13h-48v81q-19 42 -19 88t19 88v498q-25 3 -51 4v-759h-48v759q-26 -1 -51 -4v-498q19 -42 19 -88t-19 -88v-81h-48
v13q-62 -59 -148 -59q-74 0 -133 46h-16v14q-34 33 -51 76v-90h-48v552q-27 -25 -51 -53v-499h-48v438q-28 -40 -51 -83v-355h-48v243q-39 -116 -39 -240q0 -319 228 -541q22 200 173 336t355 136t355 -136t173 -336q228 222 228 541zM518 903v307q-26 -17 -51 -37v-346
q17 43 51 76zM828 748q0 67 -47 114t-114 47t-114 -47t-47 -114t47 -114t114 -47t114 47t47 114zM1357 82q-35 145 -152.5 238t-266.5 93t-266.5 -93t-152.5 -238h838zM1398 -18h-920q203 -156 460 -156t460 156zM1265 748q0 -56 -56 -56t-56 56t56 56t56 -56zM723 748
q0 -56 -56 -56t-56 56t56 56t56 -56z" />
  </g>

</svg>
