<?xml version="1.0" standalone="no"?>
<!DOCTYPE svg PUBLIC "-//W3C//DTD SVG 1.1//EN" "http://www.w3.org/Graphics/SVG/1.1/DTD/svg11.dtd" >
<svg viewBox="0 -442 2048 2048">
  <g transform="matrix(1 0 0 -1 0 1606)">
   <path fill="currentColor"
d="M1794 712q0 -226 -111 -422q-108 -190 -293 -305q34 -102 34 -108q0 -25 -28 -25q-11 0 -21 11.5t-35 92.5q-51 -27 -104 -47q8 -33 20 -77q-5 -23 -31 -23q-23 0 -40 83q-119 -36 -247 -36q-129 0 -250 37l-20 -80q-6 -4 -17 -4q-28 0 -28 20q0 11 17 80q-48 18 -106 49
q-30 -106 -54 -106q-25 0 -28 25l35 108q-186 116 -294 305q-111 196 -111 422q0 354 251 605t605 251t605 -251t251 -605zM1624 -188q0 -41 -26.5 -71.5t-67.5 -30.5q-24 0 -54 15q0 -63 -31 -105q-35 -46 -96 -46q-91 0 -118 81q-21 -16 -42 -33q-24 -16 -51 -16
q-47 0 -77 43q-26 39 -26 88q0 92 56 92q28 0 28 -26q0 -9 -16 -26.5t-16 -32.5q0 -84 51 -84t70 61q3 19 7 39t25 20q26 0 26 -71q0 -32 24.5 -54.5t56.5 -22.5t56 24.5t24 56.5q0 17 -16 45t-16 44q0 24 23 24q8 0 39.5 -30.5t63.5 -30.5q50 0 50 54q0 47 -39 65t-39 31
q0 30 28 30q46 0 76 -45q27 -40 27 -88zM844 -263q0 -48 -29 -87q-31 -44 -77 -44q-59 0 -87 52l-3 -2q-45 -82 -120 -82q-59 0 -95 46t-32 105q-27 -15 -54 -15q-40 0 -67.5 30t-27.5 70q0 49 28 89q30 46 77 46q26 0 26 -30q0 -10 -10 -21l-6 -3q-26 1 -44 -23t-18 -51
q0 -52 52 -52q34 0 63 30.5t38 30.5q24 0 24 -25q0 -9 -16 -42.5t-16 -42.5q0 -34 23 -59t56 -25q51 0 70 38q8 17 15 72q5 38 22 38q21 0 28 -25q3 -18 6 -37q19 -58 69 -58q22 0 38 27q15 24 15 47q0 24 -31 55q-1 4 -1 12q0 28 25 28q27 0 45 -34q14 -28 14 -58z
M1694 712q0 313 -221.5 534.5t-534.5 221.5t-534.5 -221.5t-221.5 -534.5q0 -193 92 -362q89 -163 244 -267l70 216l-27 -26l-74 76q71 64 162 127q53 194 74 222q12 16 29 16q21 0 25 -25l-57 -178q24 8 73 24l20 88q18 67 41 67q36 0 30 -24l-28 -112h40q79 0 124 -10
q-25 100 -25 111q0 29 25 29q12 0 20.5 -7.5t23.5 -67.5q16 -69 21 -80q25 -7 74 -21q-58 181 -58 186q0 20 25 20q15 0 24 -14q41 -61 77 -226q26 -18 58 -39q23 -15 104 -86l-74 -76l-27 26l70 -216q155 104 244 267q92 169 92 362zM1311 55q-76 259 -103 299
q-12 17 -94 55q32 -134 97 -402q50 19 100 48zM1161 -11q-53 212 -115 445q-69 15 -109 15q-33 0 -109 -15q-4 -15 -115 -444q109 -34 225 -34t223 33zM765 409q-86 -38 -97 -53q-13 -40 -32 -96l-71 -206q45 -26 100 -47zM1366 1269l-225 -227l-76 74l227 227zM1365 827
h-321v106h321v-106zM830 1116l-71 -74l-228 224l73 77zM829 827h-318v106h318v-106z" />
  </g>

</svg>
