<?xml version="1.0" standalone="no"?>
<!DOCTYPE svg PUBLIC "-//W3C//DTD SVG 1.1//EN" "http://www.w3.org/Graphics/SVG/1.1/DTD/svg11.dtd" >
<svg viewBox="0 -442 2048 2048">
  <g transform="matrix(1 0 0 -1 0 1606)">
   <path fill="currentColor"
d="M1794 582q0 -354 -251 -605t-605 -251t-605 251t-251 605t251 605t605 251t605 -251t251 -605zM1694 582q0 313 -221.5 534.5t-534.5 221.5t-534.5 -221.5t-221.5 -534.5t221.5 -534.5t534.5 -221.5t534.5 221.5t221.5 534.5zM1632 582q0 -115 -105 -115q-106 0 -106 117
q0 48 43 123q55 94 63 120q8 -27 61 -122q44 -78 44 -123zM1364 691l-74 -77l-226 226l73 74zM830 840l-224 -226l-73 73l224 227zM1383 215l-70 -74q-180 176 -375 176q-200 0 -372 -176l-73 74q195 206 445 206q239 0 445 -206zM1580 577q0 40 -57 129q-17 -32 -34 -63
q-22 -43 -22 -65q0 -65 58 -65q55 0 55 64z" />
  </g>

</svg>
