<?xml version="1.0" standalone="no"?>
<!DOCTYPE svg PUBLIC "-//W3C//DTD SVG 1.1//EN" "http://www.w3.org/Graphics/SVG/1.1/DTD/svg11.dtd" >
<svg viewBox="0 -442 2048 2048">
  <g transform="matrix(1 0 0 -1 0 1606)">
   <path fill="currentColor"
d="M1794 582q0 -354 -251 -605t-605 -251t-605 251t-251 605t251 605t605 251t605 -251t251 -605zM1694 582q0 313 -221.5 534.5t-534.5 221.5t-534.5 -221.5t-221.5 -534.5q0 -319 228 -541q22 200 173 336t355 136t355 -136t173 -336q228 222 228 541zM1357 82
q-35 145 -152.5 238t-266.5 93t-266.5 -93t-152.5 -238h838zM1398 -18h-920q203 -156 460 -156t460 156zM1365 973l-74 -74l-227 221l73 77zM1365 681l-74 -77l-227 224l73 74zM829 1132l-223 -227l-78 74l228 227zM829 831l-223 -227l-78 74l228 224z" />
  </g>

</svg>
