<?xml version="1.0" standalone="no"?>
<!DOCTYPE svg PUBLIC "-//W3C//DTD SVG 1.1//EN" "http://www.w3.org/Graphics/SVG/1.1/DTD/svg11.dtd" >
<svg viewBox="0 -442 2048 2048">
  <g transform="matrix(1 0 0 -1 0 1606)">
   <path fill="currentColor"
d="M1794 582q0 -354 -251 -605t-605 -251t-605 251t-251 605t251 605t605 251t605 -251t251 -605zM1694 582q0 313 -221.5 534.5t-534.5 221.5t-534.5 -221.5t-221.5 -534.5q0 -319 228 -541q22 200 173 336t355 136q203 0 354.5 -136t173.5 -336q228 222 228 541zM1357 82
q-27 114 -109 199v-199h109zM1148 82v276q-75 42 -160 52v-328h160zM888 82v328q-85 -10 -160 -52v-276h160zM1398 -18h-920q203 -156 460 -156t460 156zM628 82v199q-82 -85 -109 -199h109zM1362 760q0 -66 -46.5 -112.5t-112.5 -46.5t-112.5 46.5t-46.5 112.5t46.5 112.5
t112.5 46.5t112.5 -46.5t46.5 -112.5zM832 760q0 -66 -46.5 -112.5t-112.5 -46.5t-112.5 46.5t-46.5 112.5t46.5 112.5t112.5 46.5t112.5 -46.5t46.5 -112.5z" />
  </g>

</svg>
