<?xml version="1.0" standalone="no"?>
<!DOCTYPE svg PUBLIC "-//W3C//DTD SVG 1.1//EN" "http://www.w3.org/Graphics/SVG/1.1/DTD/svg11.dtd" >
<svg viewBox="0 -442 2202 2048">
  <g transform="matrix(1 0 0 -1 0 1606)">
   <path fill="currentColor"
d="M2202 264q0 -39 -36.5 -74t-75.5 -35q-92 0 -137 156q-86 -258 -307 -420q-225 -165 -505 -165q-277 0 -501 162q-220 159 -308 413q-50 -146 -140 -146q-38 0 -74 35.5t-36 73.5q0 105 218 158q-15 79 -15 160q0 354 251 605t605 251t605 -251t251 -605q0 -72 -13 -147
l3 -14l130 -46q85 -32 85 -111zM2147 265q0 48 -59 71q-49 18 -97 35q15 -49 31 -98q22 -59 70 -59q19 0 37 16t18 35zM1920 487q0 46 -60 71q-48 15 -97 31q45 -157 102 -157q20 0 37.5 17.5t17.5 37.5zM1897 594q-5 309 -225.5 526.5t-530.5 217.5q-309 0 -530 -217
t-226 -526q29 17 104 36t110 40l2 -4q-30 -35 -44 -110q-16 -85 -31 -112q-31 -55 -111 -73h-1q55 -190 199 -331q22 200 173 336t355 136t355 -136t173 -336q143 139 198 331q-80 50 -107 93q-13 20 -28 83t-51 121q73 -22 216 -75zM1560 82q-27 114 -109 199v-199h109z
M1351 82v276q-75 42 -160 52v-328h160zM1091 82v328q-85 -10 -160 -52v-276h160zM1601 -18h-920q203 -156 460 -156t460 156zM831 82v199q-82 -85 -109 -199h109zM519 589q-48 -16 -96 -31q-58 -26 -58 -71q0 -19 18 -37t37 -18q35 0 67 63q23 47 32 94zM294 371
q-4 -3 -95 -35q-61 -21 -61 -71q0 -21 17.5 -36t38.5 -15q50 0 70 59zM1582 681q-26 -52 -50 -92l-282 160v90l278 163l54 -89l-195 -118zM1035 747l-276 -158q-34 51 -53 89l194 117l-194 112q10 19 51 95l278 -160v-95z" />
  </g>

</svg>
