<?xml version="1.0" standalone="no"?>
<!DOCTYPE svg PUBLIC "-//W3C//DTD SVG 1.1//EN" "http://www.w3.org/Graphics/SVG/1.1/DTD/svg11.dtd" >
<svg viewBox="0 -442 2048 2048">
  <g transform="matrix(1 0 0 -1 0 1606)">
   <path fill="currentColor"
d="M1794 582q0 -354 -251 -605t-605 -251t-605 251t-251 605t251 605t605 251t605 -251t251 -605zM1694 582q0 313 -221.5 534.5t-534.5 221.5t-534.5 -221.5t-221.5 -534.5t221.5 -534.5t534.5 -221.5t534.5 221.5t221.5 534.5zM1369 744q0 -64 -48 -113t-112 -49
q-67 0 -113 47.5t-46 114.5q0 61 48 116q-17 15 -26 33l219 225q25 -19 78 -72l-133 -142q133 -31 133 -160zM832 744q0 -65 -48.5 -113.5t-113.5 -48.5q-66 0 -111 48t-45 114q0 125 148 165l-132 137l71 72l231 -226q-37 -33 -37 -42q0 -3 18.5 -39t18.5 -67zM1384 213
q-34 -45 -66 -77q-101 91 -172 127q-94 48 -208 48q-217 0 -374 -175l-72 72q75 97 199 154q121 55 247 55q233 0 446 -204z" />
  </g>

</svg>
