<?xml version="1.0" standalone="no"?>
<!DOCTYPE svg PUBLIC "-//W3C//DTD SVG 1.1//EN" "http://www.w3.org/Graphics/SVG/1.1/DTD/svg11.dtd" >
<svg viewBox="0 -442 2048 2048">
  <g transform="matrix(1 0 0 -1 0 1606)">
   <path fill="currentColor"
d="M1794 582q0 -354 -251 -605t-605 -251t-605 251t-251 605t251 605t605 251t605 -251t251 -605zM1694 582q0 313 -221.5 534.5t-534.5 221.5t-534.5 -221.5t-221.5 -534.5t221.5 -534.5t534.5 -221.5t534.5 221.5t221.5 534.5zM1366 744q0 -64 -48 -113t-112 -49
q-67 0 -113 47.5t-46 114.5q0 63 48 117q-16 14 -26 32l220 226q22 -17 77 -72l-138 -138l9 -7q129 -28 129 -158zM829 744q0 -65 -48.5 -113.5t-113.5 -48.5q-66 0 -111.5 48t-45.5 114q0 111 123 158q4 1 9 7l-132 133q12 18 72 77l225 -226l-26 -28q48 -68 48 -121z
M1383 206q-25 -31 -68 -71q-178 175 -378 175t-376 -175l-73 71q193 211 449 211q257 0 446 -211zM1126 105l-71 -71q-25 21 -51 42t-60 21q-32 0 -64 -21l-54 -42q-16 10 -76 71q96 99 191 99q88 0 185 -99z" />
  </g>

</svg>
