<?xml version="1.0" standalone="no"?>
<!DOCTYPE svg PUBLIC "-//W3C//DTD SVG 1.1//EN" "http://www.w3.org/Graphics/SVG/1.1/DTD/svg11.dtd" >
<svg viewBox="0 -442 2048 2048">
  <g transform="matrix(1 0 0 -1 0 1606)">
   <path fill="currentColor"
d="M1794 474q0 -354 -251 -605t-605 -251t-605 251t-251 605q0 325 216 568v504l346 -268q142 52 294 52t294 -52l346 268v-504q216 -243 216 -568zM1694 474q0 308 -216 529v339l-230 -178q-146 66 -310 66t-310 -66l-230 178v-339q-216 -221 -216 -529
q0 -313 221.5 -534.5t534.5 -221.5t534.5 221.5t221.5 534.5zM1367 676q0 -69 -45.5 -114t-113.5 -45q-66 0 -112.5 46.5t-46.5 112.5t46.5 112.5t112.5 46.5t112.5 -46.5t46.5 -112.5zM837 676q0 -66 -46 -112.5t-112 -46.5q-69 0 -114.5 45t-45.5 114q0 66 47 112.5
t113 46.5t112 -46.5t46 -112.5zM1469 405q0 -219 -156 -375t-375 -156t-375 156t-156 375h1062zM1357 305h-838q35 -145 152.5 -238t266.5 -93t266.5 93t152.5 238z" />
  </g>

</svg>
