<?xml version="1.0" standalone="no"?>
<!DOCTYPE svg PUBLIC "-//W3C//DTD SVG 1.1//EN" "http://www.w3.org/Graphics/SVG/1.1/DTD/svg11.dtd" >
<svg viewBox="0 -442 2048 2048">
  <g transform="matrix(1 0 0 -1 0 1606)">
   <path fill="currentColor"
d="M1794 474q0 -354 -251 -605t-605 -251t-605 251t-251 605q0 325 216 568v504l346 -268q142 52 294 52t294 -52l346 268v-504q216 -243 216 -568zM1694 474q0 308 -216 529v339l-230 -178q-146 66 -310 66t-310 -66l-230 178v-339q-216 -221 -216 -529
q0 -313 221.5 -534.5t534.5 -221.5t534.5 221.5t221.5 534.5zM1475 586h-100q0 68 -25 133q-32 86 -87 86t-87 -86q-25 -65 -25 -133h-100q0 114 48 206q60 113 164 113t164 -113q48 -92 48 -206zM825 586h-100q0 68 -25 133q-32 86 -87 86t-87 -86q-25 -65 -25 -133h-100
q0 114 48 206q60 113 164 113t164 -113q48 -92 48 -206zM1469 405q0 -219 -156 -375t-375 -156t-375 156t-156 375h1062zM1357 305h-109v-199q82 85 109 199zM1148 29v276h-160v-328q85 10 160 52zM888 -23v328h-160v-276q75 -42 160 -52zM628 106v199h-109
q27 -114 109 -199z" />
  </g>

</svg>
