<?xml version="1.0" standalone="no"?>
<!DOCTYPE svg PUBLIC "-//W3C//DTD SVG 1.1//EN" "http://www.w3.org/Graphics/SVG/1.1/DTD/svg11.dtd" >
<svg viewBox="0 -442 2048 2048">
  <g transform="matrix(1 0 0 -1 0 1606)">
   <path fill="currentColor"
d="M1862 353q0 -82 -14 -161q-9 -52 -73 -177q-58 -113 -58 -171v-90h-100v104q0 70 41 150q36 70 72 139q34 81 34 223q0 155 -58 155q-52 0 -69 -141q-4 -49 -23 -145q-11 -33 -96 -127q-81 -90 -81 -103v-255h-100v49q-168 -77 -356 -77q-196 0 -372 85v-57h-100v202
q0 39 -71 128q-85 105 -95.5 128.5t-27.5 121.5q-8 56 -17 112q-18 79 -58 79q-60 0 -60 -156q0 -139 43 -238q34 -66 68 -131q36 -74 36 -144v-102h-100q0 9 1 32v33q0 72 -18 118q-7 20 -55 104q-73 129 -73 310q0 48 10 106q13 72 33 107v18q0 354 251 605t605 251
t605 -251t251 -605v-19q25 -61 25 -210zM1735 630q-19 297 -236.5 502.5t-517.5 205.5q-301 0 -519.5 -207.5t-235.5 -505.5q17 2 31 2q74 0 108 -70q22 -45 36 -149q14 -108 27 -138q16 -37 93 -114q68 -68 77 -121q8 -45 10 -111q172 -98 373 -98q188 0 355 89v30
q0 77 4 99q10 56 83 122q77 70 87 98q6 17 10 62q28 306 179 306q16 0 36 -2zM1412 988l-74 -77l-231 228l74 77zM1406 741q0 -68 -48 -114.5t-116 -46.5q-64 0 -111 47.5t-47 111.5q0 66 46 114.5t112 48.5q63 0 113.5 -49t50.5 -112zM866 1142l-228 -234l-77 77l231 231z
M869 739q0 -66 -47.5 -112.5t-113.5 -46.5q-68 0 -113.5 46.5t-45.5 114.5q0 65 47 113t112 48q64 0 112.5 -49.5t48.5 -113.5zM1130 192q0 -259 -153 -259q-36 0 -61 9q-51 18 -78 114q-19 70 -19 145q0 272 158 272q153 0 153 -281z" />
  </g>

</svg>
