<?xml version="1.0" standalone="no"?>
<!DOCTYPE svg PUBLIC "-//W3C//DTD SVG 1.1//EN" "http://www.w3.org/Graphics/SVG/1.1/DTD/svg11.dtd" >
<svg viewBox="0 -442 2048 2048">
  <g transform="matrix(1 0 0 -1 0 1606)">
   <path fill="currentColor"
d="M1794 582q0 -354 -251 -605t-605 -251t-605 251t-251 605t251 605t605 251t605 -251t251 -605zM1694 582q0 313 -221.5 534.5t-534.5 221.5t-534.5 -221.5t-221.5 -534.5t221.5 -534.5t534.5 -221.5t534.5 221.5t221.5 534.5zM1368 747q0 -67 -46.5 -113.5t-112.5 -46.5
q-68 0 -114 44.5t-46 112.5q0 71 44.5 116.5t115.5 45.5q67 0 113 -46.5t46 -112.5zM832 747q0 -66 -46.5 -113t-112.5 -47q-68 0 -116.5 46t-48.5 114q0 64 49 111.5t113 47.5q68 0 115 -45.5t47 -113.5z" />
  </g>

</svg>
