<?xml version="1.0" standalone="no"?>
<!DOCTYPE svg PUBLIC "-//W3C//DTD SVG 1.1//EN" "http://www.w3.org/Graphics/SVG/1.1/DTD/svg11.dtd" >
<svg viewBox="0 -442 2734 2048">
  <g transform="matrix(1 0 0 -1 0 1606)">
   <path fill="currentColor"
d="M2734 1200h-306v106l151 163h-151v107h306v-111l-152 -157h152v-108zM2335 1200h-306v106l151 163h-149v107h304v-111l-152 -157h152v-108zM1913 1474l-152 -166h151v-108h-306v106l155 163h-155v107h307v-102zM1794 582q0 -354 -251 -605t-605 -251t-605 251t-251 605
t251 605t605 251t605 -251t251 -605zM1694 582q0 313 -221.5 534.5t-534.5 221.5t-534.5 -221.5t-221.5 -534.5t221.5 -534.5t534.5 -221.5t534.5 221.5t221.5 534.5zM1475 1013q0 -114 -48 -206q-60 -113 -164 -113t-164 113q-48 92 -48 206h100q0 -68 25 -133
q32 -86 87 -86t87 86q25 65 25 133h100zM825 1013q0 -114 -48 -206q-60 -113 -164 -113t-164 113q-48 92 -48 206h100q0 -68 25 -133q32 -86 87 -86t87 86q25 65 25 133h100zM1047 111q0 -45 -32 -77t-77 -32t-77 32t-32 77t32 77t77 32t77 -32t32 -77z" />
  </g>

</svg>
