<?xml version="1.0" standalone="no"?>
<!DOCTYPE svg PUBLIC "-//W3C//DTD SVG 1.1//EN" "http://www.w3.org/Graphics/SVG/1.1/DTD/svg11.dtd" >
<svg viewBox="0 -442 2048 2048">
  <g transform="matrix(1 0 0 -1 0 1606)">
   <path fill="currentColor"
d="M1794 474q0 -354 -251 -605t-605 -251t-605 251t-251 605q0 325 216 568v504l346 -268q142 52 294 52t294 -52l346 268v-504q216 -243 216 -568zM1694 474q0 308 -216 529v339l-230 -178q-146 66 -310 66t-310 -66l-230 178v-339q-216 -221 -216 -529
q0 -313 221.5 -534.5t534.5 -221.5t534.5 221.5t221.5 534.5zM1361 634q0 -68 -45.5 -113t-113.5 -45q-70 0 -114.5 45t-44.5 115t48 114q-17 14 -27 32l221 225l76 -76l-133 -138q133 -31 133 -159zM830 636q0 -69 -44.5 -114.5t-113.5 -45.5q-70 0 -115 44t-45 114
q0 124 149 164l-128 132q13 19 72 77l225 -225l-36 -38q12 -26 23 -52q13 -30 13 -56zM1389 113q-36 -43 -71 -79q-178 179 -378 179q-188 0 -376 -175q-30 24 -75 71q205 207 451 207q236 0 449 -203zM1126 6q-21 -25 -71 -74q-64 69 -112 69q-46 0 -115 -69q-19 15 -75 71
q91 104 187 104q94 0 186 -101z" />
  </g>

</svg>
