<?xml version="1.0" standalone="no"?>
<!DOCTYPE svg PUBLIC "-//W3C//DTD SVG 1.1//EN" "http://www.w3.org/Graphics/SVG/1.1/DTD/svg11.dtd" >
<svg viewBox="0 -442 2048 2048">
  <g transform="matrix(1 0 0 -1 0 1606)">
   <path fill="currentColor"
d="M1794 582q0 -354 -251 -605t-605 -251t-605 251t-251 605t251 605t605 251t605 -251t251 -605zM1694 582v3l-217 -208v-325q217 221 217 530zM1679 731q-52 262 -259 433q-210 174 -482 174q-275 0 -484.5 -176t-258.5 -442l244 -245h992zM1384 45v323h-895v-323h895z
M1334 -62h-792q182 -112 396 -112t396 112zM394 57v315l-212 210q0 -305 212 -525zM1369 986l-78 -77l-227 226l77 78zM1368 695h-320v100h320v-100zM828 1136l-227 -227l-78 77l228 222zM828 695h-321v100h321v-100z" />
  </g>

</svg>
