<?xml version="1.0" standalone="no"?>
<!DOCTYPE svg PUBLIC "-//W3C//DTD SVG 1.1//EN" "http://www.w3.org/Graphics/SVG/1.1/DTD/svg11.dtd" >
<svg viewBox="0 -442 2048 2048">
  <g transform="matrix(1 0 0 -1 0 1606)">
   <path fill="currentColor"
d="M1794 582q0 -354 -251 -605t-605 -251t-605 251t-251 605t251 605t605 251t605 -251t251 -605zM1694 582q0 313 -221.5 534.5t-534.5 221.5t-534.5 -221.5t-221.5 -534.5t221.5 -534.5t534.5 -221.5t534.5 221.5t221.5 534.5zM1423 748q0 -91 -62 -152.5t-153 -61.5
t-152.5 61.5t-61.5 152.5q0 88 63 151t151 63t151.5 -63t63.5 -151zM882 748q0 -88 -63 -151t-151 -63q-92 0 -153.5 61.5t-61.5 152.5q0 87 62 150.5t149 63.5q90 0 154 -62.5t64 -151.5zM1155 258q0 -87 -66 -152t-153 -65q-86 0 -153 65.5t-67 151.5q0 87 66.5 152
t153.5 65t153 -65t66 -152zM1369 748q0 67 -47 114t-114 47t-113.5 -47t-46.5 -114q0 -68 45 -114t113 -46q70 0 116.5 45t46.5 115zM828 748q0 67 -46.5 114t-113.5 47q-69 0 -115 -46t-46 -115t44 -114.5t113 -45.5q70 0 117 45t47 115zM1267 748q0 -54 -59 -54
q-53 0 -53 54t53 54q59 0 59 -54zM721 748q0 -54 -57 -54q-56 0 -56 54t60 54q53 0 53 -54z" />
  </g>

</svg>
