<?xml version="1.0" standalone="no"?>
<!DOCTYPE svg PUBLIC "-//W3C//DTD SVG 1.1//EN" "http://www.w3.org/Graphics/SVG/1.1/DTD/svg11.dtd" >
<svg viewBox="0 -442 2048 2048">
  <g transform="matrix(1 0 0 -1 0 1606)">
   <path fill="currentColor"
d="M1794 582q0 -354 -251 -605t-605 -251t-605 251t-251 605t251 605t605 251t605 -251t251 -605zM1694 582q0 313 -221.5 534.5t-534.5 221.5t-534.5 -221.5t-221.5 -534.5t221.5 -534.5t534.5 -221.5t534.5 221.5t221.5 534.5zM1365 983l-77 -78l-225 227l77 76zM1612 573
q0 -111 -106 -111t-106 111q0 39 43 120q59 109 63 120q5 -12 64 -118q42 -74 42 -122zM1365 747q0 -66 -46.5 -113t-112.5 -47t-112.5 47t-46.5 113t46.5 112t112.5 46t112.5 -46t46.5 -112zM829 1132l-226 -227l-77 78l226 220q25 -19 77 -71zM829 749q0 -70 -44.5 -116
t-114.5 -46t-114.5 45t-44.5 115q0 67 44.5 112.5t111.5 45.5q69 0 115.5 -44t46.5 -112zM1153 261q0 -85 -65 -150.5t-150 -65.5q-86 0 -150.5 66t-64.5 152q0 83 64.5 148t147.5 65q86 0 152 -64.5t66 -150.5zM1560 575q0 26 -20 64q-17 29 -34 59q-54 -97 -54 -123
q0 -67 54 -67t54 67z" />
  </g>

</svg>
