<?xml version="1.0" standalone="no"?>
<!DOCTYPE svg PUBLIC "-//W3C//DTD SVG 1.1//EN" "http://www.w3.org/Graphics/SVG/1.1/DTD/svg11.dtd" >
<svg viewBox="0 -442 2048 2048">
  <g transform="matrix(1 0 0 -1 0 1606)">
   <path fill="currentColor"
d="M1794 474q0 -354 -251 -605t-605 -251t-605 251t-251 605q0 325 216 568v504l346 -268q142 52 294 52t294 -52l346 268v-504q216 -243 216 -568zM1694 474q0 308 -216 529v339l-230 -178q-146 66 -310 66t-310 -66l-230 178v-339q-216 -221 -216 -529
q0 -313 221.5 -534.5t534.5 -221.5t534.5 221.5t221.5 534.5zM1475 905q0 -114 -48 -206q-60 -113 -164 -113t-164 113q-48 92 -48 206h100q0 -68 25 -133q32 -86 87 -86t87 86q25 65 25 133h100zM825 905q0 -114 -48 -206q-60 -113 -164 -113t-164 113q-48 92 -48 206h100
q0 -68 25 -133q32 -86 87 -86t87 86q25 65 25 133h100zM1187 -4q0 -84 -196 -127v72q26 9 52 19q35 16 35 36q0 32 -90 55v72q87 16 87 53q0 20 -35 36q-28 13 -52 14v76q196 -46 196 -126q0 -61 -69 -88l48 -38q24 -23 24 -54z" />
  </g>

</svg>
