<?xml version="1.0" standalone="no"?>
<!DOCTYPE svg PUBLIC "-//W3C//DTD SVG 1.1//EN" "http://www.w3.org/Graphics/SVG/1.1/DTD/svg11.dtd" >
<svg viewBox="0 -442 2048 2048">
  <g transform="matrix(1 0 0 -1 0 1606)">
   <path fill="currentColor"
d="M1794 582q0 -354 -251 -605t-605 -251t-605 251t-251 605t251 605t605 251t605 -251t251 -605zM1535 1045q-23 29 -39 47h-236l51 -47h224zM1599 948q-18 33 -31 52h-209l-52 -52h292zM1677 740q-8 35 -13 54h-285v-54h298zM1444 1143q-216 195 -506 195t-506 -195h238
l87 81l81 -81h200l81 81l87 -81h238zM1143 1045l-50 47h-310l-50 -47h410zM1247 948l-56 52h-506l-56 -52h618zM1647 844q-10 27 -22 53h-1374q-12 -26 -22 -53h1418zM1049 740v54h-222v-54h222zM1691 648q-1 16 -5 47h-1496q-2 -14 -5 -47h1506zM616 1092h-236
q-16 -18 -39 -47h224zM1694 582v16h-1512v-16q0 -6 1 -31h1510q1 25 1 31zM1690 500h-1504q2 -22 8 -53h1488q6 31 8 53zM569 948l-52 52h-209q-13 -19 -31 -52h292zM1672 402h-1468q8 -31 13 -48h1442q5 17 13 48zM497 740v54h-285q-5 -19 -13 -54h298zM1641 304h-1406
q84 -213 274 -344q193 -134 429 -134t429 134q190 131 274 344zM1049 107q0 -46 -32.5 -78.5t-78.5 -32.5t-78.5 32.5t-32.5 78.5t32.5 78.5t78.5 32.5t78.5 -32.5t32.5 -78.5z" />
  </g>

</svg>
