<?xml version="1.0" standalone="no"?>
<!DOCTYPE svg PUBLIC "-//W3C//DTD SVG 1.1//EN" "http://www.w3.org/Graphics/SVG/1.1/DTD/svg11.dtd" >
<svg viewBox="0 -442 2048 2048">
  <g transform="matrix(1 0 0 -1 0 1606)">
   <path fill="currentColor"
d="M1234 981q0 -21 -17 -46q-12 0 -30 11q1 6 1 12q0 60 -68 108q1 10 24 32q27 -9 58.5 -49t31.5 -68zM1458 1060q0 -105 -35 -151q-3 -4 -44 -36q-31 -25 -30 -42l65 -1128h-54q-22 476 -28 592q-19 334 -48 590q25 0 58.5 30t42.5 55q19 54 19 210q0 160 -46 186
q-11 -23 -11 -91q0 -17 1 -49.5t1 -47.5q25 -24 33 -45l-15 -13q-46 54 -171 54q-31 0 -80 -10l-12 14q15 16 33 27l-6 233q-16 -2 -28 -37q-11 -29 -11 -49q0 -13 1.5 -40t1.5 -40q0 -205 -71 -234q-23 37 -46 75q-27 40 -74 40q-18 0 -35 -9q34 -49 105 -145
q65 -84 150 -104v-237q0 -11 -2 -32t-2 -32q0 -4 1 -10q136 -105 136 -358q0 -233 -127 -376q-132 -149 -362 -149q-224 0 -359 152q-129 146 -129 373q0 160 40 238q5 9 96 130l-4 301q68 14 125 79q44 62 88 123q7 10 42 42q-9 14 -29 14q-47 0 -76 -37q0 -1 -43 -77h-20
q-13 15 -31 59.5t-18 63.5q0 14 1 41.5t1 41.5q0 183 -48 192q-5 -12 -5 -98v-118q0 -13 33 -44q-6 -14 -19 -14q-12 0 -36.5 5.5t-36.5 5.5q-120 0 -172 -54q-14 6 -14 19q0 12 33 39v173l-9 14q-42 -21 -42 -139q0 -24 1 -73v-72q0 -131 59 -173q13 -9 48 -23q5 -12 4 -24
l-66 -1003v-138q0 -6 -6 -17h-54l65 1123q1 17 1 11q0 11 -21.5 22t-43.5 38q-41 50 -41 172q0 257 41 306q21 12 57 43q3 15 24 43q17 5 49 20q18 14 35 28q13 9 48 9q2 0 58 -27q19 -4 54 -19q39 -27 50 -169q7 -98 14 -195q9 15 26 44q30 50 94 50q79 0 79 -63
q0 -15 -25 -41q-17 -19 -35 -38q-13 -30 -46 -86q-21 -30 -65 -64l-72 -56v-231q7 -3 10 -3q15 0 41 11q37 17 41 18q75 24 208 24q170 0 294 -55q9 24 9 47v189q-74 51 -107 88q-21 25 -76 114q-3 5 -35 38q-23 24 -23 45q0 63 74 63t120 -98q14 21 14 46v201q0 18 15 60
t26 52q5 4 53 24q7 3 35 21q16 10 43 10q21 0 40 -12q16 -13 33 -25q18 -5 48 -20q7 -14 25 -43q18 -10 50 -37q52 -58 52 -321zM416 1074q-22 -27 -44 -53q-24 -30 -24 -60q0 -10 2 -20q-10 -3 -30 -6q-19 36 -19 46q0 27 34 67q30 35 58 50zM1303 1197v227l-18 6
q-28 -64 -28 -187v-40q15 -3 46 -6zM1234 1473q-11 0 -18 7q-30 -32 -30 -89v-184h32v200q0 13 7 33q8 25 9 33zM358 1320q0 158 -33 160q-18 -13 -18 -19q0 -9 6 -25q8 -19 9 -25q4 -21 4 -112v-65q0 -4 3 -27h26q0 13 2 56q1 36 1 57zM280 1203v83q0 21 -19 132
q-8 12 -18 13q-12 -12 -12 -39q0 -227 1 -195q16 3 48 6zM1202 240q0 394 -429 394q-433 0 -433 -398q0 -215 105 -340q112 -134 323 -134q201 0 321 141q113 133 113 337zM1014 310q-20 63 -82 63q-53 0 -78 -60q1 35 22.5 61t55.5 26q82 0 82 -90zM994 240q0 -69 -70 -69
q-71 0 -71 71q0 65 67 65q74 0 74 -67zM687 307q-25 66 -82 66q-62 0 -83 -66q11 93 83 93q76 0 82 -93zM689 242q0 -71 -71 -71q-70 0 -70 71q0 65 70 65q71 0 71 -65zM950 21q0 -38 -39.5 -91t-76.5 -63q-26 -7 -72 -7q-26 0 -49 7q-49 15 -86 77q-36 58 -36 112h359v-35z
M977 235q-21 0 -29 7q-11 -22 -24 -23v-31h19q23 15 34 47zM907 253v21h-21l-6 -21h27zM667 217v18q-17 0 -25 7q-11 -23 -28 -23v-31h18q35 16 35 29zM601 253v21h-26v-21h26z" />
  </g>

</svg>
