<?xml version="1.0" standalone="no"?>
<!DOCTYPE svg PUBLIC "-//W3C//DTD SVG 1.1//EN" "http://www.w3.org/Graphics/SVG/1.1/DTD/svg11.dtd" >
<svg viewBox="0 -442 2048 2048">
  <g transform="matrix(1 0 0 -1 0 1606)">
   <path fill="currentColor"
d="M1790 -217q-18 0 -51.5 -2.5t-49.5 -2.5q-24 0 -40 3q-82 16 -410 365q-25 -27 -105 -141q-58 -84 -125 -128q75 -50 155 -96h-141q-5 0 -32 16.5t-55 16.5t-60.5 -16.5t-31.5 -16.5h-147q26 18 80 52q63 29 183 98q126 89 255 297q27 29 69 94q1 7 7 22l-4 25
q-133 -68 -197 -206h-25q-12 10 -12 27q0 8 55 84q33 46 66 93q12 19 51 98l-4 47q-46 -21 -154 -206q-13 -22 -34 -52q-15 -13 -34 -14q-13 10 -13 25q0 -1 69.5 114t69.5 156q0 16 -14 16q-6 0 -147 -160q-148 -169 -176 -189q-7 25 -7 35q0 11 44.5 86.5t44.5 86.5
q0 36 -28 36q-9 0 -16 -10q-24 -28 -60 -89q-3 -11 -10 -33q-27 -77 -253 -305q-43 -44 -144 -128q-120 -100 -142 -100h-135q235 148 361 274q-81 104 -105 325q-16 -3 -29 -3q-81 0 -126 43q-31 30 -64 108.5t-33 122.5q0 349 232 349q24 0 66 -22q14 15 22 53
q9 44 17.5 57t28.5 38q28 37 57.5 73.5t68.5 59.5q123 72 256 72q16 0 46.5 -1.5t46.5 -1.5q19 0 55.5 1t55.5 1q94 0 235 -71q41 -20 92 -81q49 -57 69 -102q1 -2 15 -59q9 -39 23 -39q11 0 33 11t33 11q104 0 169 -94q58 -83 58 -192v-31q-1 -21 -1 -31q0 -87 -59 -176
q-64 -98 -147 -98q-5 0 -45 2q-22 -198 -100 -309q181 -178 377 -288zM1704 670q0 71 -4 95q-9 54 -52 111q-49 63 -99 63q-22 0 -45 -68q-18 -54 -22 -89q-2 -19 -2 -47v-169q0 -60 6 -110l-5 -9h84q33 0 82 73q45 66 53 106q4 20 4 44zM1391 404q0 142 -89 168v14
q83 50 83 223q0 112 -41 185q-51 90 -155 90q-90 0 -162 -92q-28 -35 -100 -169q-14 28 -43 82q-99 179 -225 179q-83 0 -140 -82q-51 -73 -51 -160q0 -96 18 -156q6 -27 25 -68q21 -11 43 -42q-3 -3 -10 -7q-85 -47 -85 -162q0 -116 75 -237l11 -1q42 22 42 44
q0 9 -33.5 54t-33.5 79q0 70 56 70q11 0 27 -2q-18 60 -18 91q0 58 55 58q4 0 62 -23q5 18 9 37q8 21 24 27q11 2 33.5 5.5t71.5 24.5q39 17 85 17q78 0 164 -45q31 6 30 6q41 0 58 -72q23 23 46 23q39 0 51 -10t12 -49q0 -10 -16 -85q12 2 24 2q64 0 64 -69
q0 -35 -38.5 -81.5t-38.5 -54.5q0 -13 35 -42l13 7q62 104 62 223zM1047 576q0 10 -6 13q-25 12 -114 12q-76 0 -113 -13q72 -93 112 -147h21q100 132 100 135zM814 498q-33 44 -59 53q-7 -6 -7 -20q0 -15 30 -74q14 12 36 41zM737 407q0 24 -29 55q-22 24 -45 48q-3 1 -9 1
h-6v-51q0 -27 63 -103q26 38 26 50zM372 666q0 81 -12 157q-19 116 -59 116q-56 0 -107 -75q-48 -70 -48 -129v-43q0 -88 45 -161q52 -85 135 -85q25 0 44 17q-1 26 -1 45q0 26 1.5 79t1.5 79zM670 311q-28 19 -88 51v-30q0 -10 20 -40q13 -20 26 -41q33 35 42 60zM1319 765
q0 -136 -127 -136q-129 0 -129 136q0 141 129 141q127 0 127 -141zM786 765q0 -136 -124 -136q-53 0 -73 12.5t-38.5 45t-18.5 54.5q0 160 127 160t127 -136zM1163 796v25q-12 13 -22 13q-22 0 -22 -22q0 -5 3 -12t3 -10q13 3 38 6zM1285 725v19h-54q-16 -23 -39 -33v-49h35
q11 0 34.5 26t23.5 37zM631 827l-37 6v-37l31 -6zM753 720v24h-48q-17 -18 -40 -27v-55h29q11 0 35 23.5t24 34.5z" />
  </g>

</svg>
