<?xml version="1.0" standalone="no"?>
<!DOCTYPE svg PUBLIC "-//W3C//DTD SVG 1.1//EN" "http://www.w3.org/Graphics/SVG/1.1/DTD/svg11.dtd" >
<svg viewBox="0 -442 2048 2048">
  <g transform="matrix(1 0 0 -1 0 1606)">
   <path fill="currentColor"
d="M1539 -271h-69q-13 60 -55 123q-50 76 -101 77q-124 -96 -179 -121q-80 -36 -213 -36q-246 0 -377 133q-57 58 -57 116q0 7 1 22t1 22q0 337 112 679q34 103 52 143q42 94 88.5 112t196.5 18q67 0 111 31v26q-22 25 -50 25q-56 0 -106 -5q-7 5 -7 18q0 29 114 86.5
t114 109.5q0 24 -36 24q-49 0 -103 -39q-12 -8 -86 -74h-24q-7 6 -7 19q0 28 65.5 94t65.5 93q0 22 -16 22q-45 0 -116.5 -76t-77.5 -76q-7 0 -24 6v17q0 10 43.5 66.5t43.5 86.5q0 20 -24 20q-16 0 -59 -36q-83 -70 -125 -157q-38 -90 -77 -181q-30 -49 -89 -148
q-62 -105 -103 -205q-221 -542 -226 -1035h-58v88q0 31 14 132q48 348 139 609t269 567q17 28 33 83q19 61 30 85q119 246 268 246q62 0 62 -39q0 -5 -11 -48l3 -5q50 55 98 55q21 0 36.5 -20.5t15.5 -42.5q0 -9 -28 -80q59 34 74 34q32 0 55.5 -24.5t23.5 -56.5
q0 -90 -174 -172l80 -20q45 -17 45 -59q0 -46 -42 -74q-37 -24 -86 -24h-173q-54 0 -89 -57q-23 -52 -46 -103q225 18 213 18q577 0 577 -434q0 -212 -115 -389q149 -79 185 -269zM1408 398q0 231 -179 317q-123 58 -384 58q-94 0 -175 -25q-121 -250 -121 -647
q0 -74 19 -121q27 -67 159 -109q107 -34 201 -34q229 0 360 170q120 156 120 391zM1232 329q-23 78 -87 78q-52 0 -82 -59q19 98 88 98q72 0 81 -117zM1207 263q0 -78 -76 -78q-81 0 -81 71q0 81 76 81q81 0 81 -74zM885 361q-22 85 -94 85q-57 0 -81 -65q0 2 -1 7
q0 34 26.5 62.5t59.5 28.5q82 0 90 -118zM854 302q0 -85 -74 -85q-31 0 -57 20.5t-26 51.5q0 81 76 81q81 0 81 -68zM1028 10q0 -33 -31 -56q-27 -20 -62 -20q-81 0 -81 71q0 77 85 77q33 0 61 -20t28 -52zM1006 -100q-34 -30 -65 -30t-71 41q48 -19 84 -19q24 0 52 8z
M1115 297l-14 13l-18 -19l12 -13q19 0 20 19zM1185 249l-36 7q-8 -17 -22 -17v-32h18q25 0 40 42zM766 316q-3 6 -6 20h-25l6 -25q8 2 25 5zM837 282q-5 0 -13.5 3.5t-13.5 3.5q-7 0 -16 -9t-16 -9v-31h25q19 12 34 42z" />
  </g>

</svg>
