<?xml version="1.0" standalone="no"?>
<!DOCTYPE svg PUBLIC "-//W3C//DTD SVG 1.1//EN" "http://www.w3.org/Graphics/SVG/1.1/DTD/svg11.dtd" >
<svg viewBox="0 -442 2048 2048">
  <g transform="matrix(1 0 0 -1 0 1606)">
   <path fill="currentColor"
d="M1756 354q0 -170 -121 -218q-66 -27 -267 -27q-312 0 -365.5 33t-84.5 118q-6 -9 -30 -60q-15 -31 -44 -51q-57 -38 -294 -38h-180q-145 0 -211 47q-77 56 -77 196q0 71 31.5 159t138.5 196.5t196 145.5q-1 20 -1 36q0 403 466 403q241 0 352 -98q119 -104 119 -341
q146 -72 253 -205q119 -148 119 -296zM1714 357q0 125 -108 261q-97 121 -221 185q-23 -222 -126 -370q167 16 168 16q22 0 39 -10l-5 -26q-17 1 -30 1q-92 0 -260 -41q-78 -19 -94 -19q-8 0 -13 5q-15 72 -30 143q-24 107 -44 129q-14 16 -31 18l-17 -18q-8 -50 -8 -138
q0 -155 27 -221q45 -107 177 -107h436q71 0 108 64q32 52 32 128zM1330 863q0 211 -102 302q-96 87 -310 87q-213 0 -311 -87q-104 -92 -104 -302q0 -228 116 -390q56 -78 105 -78q15 0 21 8q5 74 38 165q42 118 95 118q23 0 40 -30q18 30 39 30q96 0 137 -290h25
q45 0 101 83q41 60 66 125q44 115 44 259zM899 496q0 93 -9 140q-7 11 -19 13q-35 -23 -54 -82q-2 -6 -22 -99q-14 -65 -32 -115q-208 45 -398 70v22l6 4h80q33 0 128 -16q-102 144 -131 370q-129 -72 -222 -187q-108 -133 -108 -262q0 -109 48 -151q43 -38 91 -38h443
q130 0 173 110q26 65 26 221zM1170 733q0 -66 -84 -66h-19q-35 0 -68 50l7 33q45 -53 75 -53q25 0 46 18l35 35q8 -4 8 -17zM839 735q0 -35 -36 -59q-14 -9 -39 -9h-28q-48 0 -74 69q7 7 16 7q1 0 5.5 -2t26.5 -30q12 -14 40 -14q42 0 80 53q9 -1 9 -15z" />
  </g>

</svg>
