<?xml version="1.0" standalone="no"?>
<!DOCTYPE svg PUBLIC "-//W3C//DTD SVG 1.1//EN" "http://www.w3.org/Graphics/SVG/1.1/DTD/svg11.dtd" >
<svg viewBox="0 -442 2048 2048">
  <g transform="matrix(1 0 0 -1 0 1606)">
   <path fill="currentColor"
d="M1794 474q0 -354 -251 -605t-605 -251t-605 251t-251 605q0 325 216 568v504l346 -268q142 52 294 52t294 -52l346 268v-504q216 -243 216 -568zM1694 474q0 308 -216 529v339l-230 -178q-146 66 -310 66t-310 -66l-230 178v-339q-216 -221 -216 -529q0 -319 228 -541
q22 200 173 336t355 136q203 0 354.5 -136t173.5 -336q228 222 228 541zM1357 -26q-35 145 -152.5 238t-266.5 93t-266.5 -93t-152.5 -238h838zM1398 -126h-920q203 -156 460 -156t460 156zM1365 865l-74 -74l-227 221l73 77zM1365 573l-74 -77l-227 224l73 74zM829 1024
l-223 -227l-78 74l228 227zM829 723l-223 -227l-78 74l228 224z" />
  </g>

</svg>
