<?xml version="1.0" standalone="no"?>
<!DOCTYPE svg PUBLIC "-//W3C//DTD SVG 1.1//EN" "http://www.w3.org/Graphics/SVG/1.1/DTD/svg11.dtd" >
<svg viewBox="0 -442 2048 2048">
  <g transform="matrix(1 0 0 -1 0 1606)">
   <path fill="currentColor"
d="M1802 -109h-81v270q0 4 -10 41q-24 119 -96 351q-55 133 -166 269q-117 143 -234 211q-14 8 -92 42.5t-84 34.5h-43l-5 -24q55 -36 111 -72q69 -49 85 -94q-5 -7 -17 -7q-5 0 -76 41.5t-98 41.5q-36 0 -36 -21q0 -16 107 -73q121 -64 131 -73v-25h-32q-6 0 -57 20.5
t-82 20.5q-20 0 -41 -23v-13q25 -7 76 -22q77 -26 162 -103q81 -74 122 -150q59 -109 106 -314q45 -198 45 -329h-60l-51 309q-26 -32 -85 -91q-30 -18 -89 -55q-101 -66 -153.5 -81t-175.5 -15q-105 0 -252 83q-33 18 -70 60q-51 58 -62 68l-46 -278h-61v32q0 20 16 105
q13 74 43 221q6 27 76 215q4 14 16 39q8 8 22 27.5t41 60.5q97 131 283 173l14 13q-18 33 -46 33q-27 0 -137 -41h-26l-7 6v19q59 40 120 70q31 14 63.5 28.5t54.5 39.5v18q-22 10 -42 10q-28 0 -157 -82h-24q7 42 81 96q55 38 110 77v14q-8 8 -24 8h-7q-54 0 -155 -53
q-92 -48 -140 -92q-298 -276 -381 -685q-4 -19 -8 -82q-7 -90 -19 -270h-77v171q0 33 33 171q29 123 46 177q2 5 31 82q24 64 24 73q0 4 -23.5 54t-23.5 143v37q0 85 61 157q63 76 146 76q19 0 55 -26q9 1 23 46q8 29 17 58q49 108 166 167q105 54 232 54q180 0 213 -7
q1 0 63 -23q38 -9 109 -39q77 -48 128 -143q23 -43 34 -99q3 -14 10 -14q10 0 30.5 13t30.5 13q89 0 152 -89q56 -80 56 -173v-47q0 -19 -13.5 -54t-13.5 -54q0 10 45 -132q23 -74 80 -337q9 -42 9 -46v-209zM1632 782q0 41 -7 62q-15 45 -48 82q-39 44 -80 44q-12 0 -24 -8
q-22 -59 -22 -67q0 -7 79 -104q48 -57 95 -115q7 36 7 106zM1001 883q-22 22 -38 30q-24 -20 -70 -61q2 1 7 1q29 0 38 -17q1 15 19.5 32t34.5 17q5 0 9 -2zM723 1098h-54q-71 0 -121 -101q78 63 175 101zM1343 399q0 47 -116 208q-55 76 -145 117q-35 13 -71 27
q-49 20 -59 38q-1 -46 -45 -62q-74 -27 -78 -30q57 15 116 15q17 0 38 -3q36 -5 79 -31q50 -32 48 -62l-3 -3h-14q-75 53 -165 53h-38q-35 0 -82 -26.5t-50 -26.5q-4 0 -15 5q34 50 70 71h-5q-56 0 -151 -118q-40 -50 -102 -177q-18 -37 -18 -42q0 -27 48 -94q44 -61 72 -82
q20 -15 90 -50t91 -39q32 -6 89 -6q130 0 259 84q40 26 97 107q60 86 60 127zM418 854q0 68 -43 116q-77 -5 -117 -81q-31 -61 -31 -147q0 -68 30 -114q22 34 68 100l54 62q39 47 39 64zM1110 531q0 -26 -29 -26q-11 0 -34 20.5t-29 32.5l5 39h44q43 -26 43 -66zM847 578
q0 -17 -25.5 -45t-41.5 -28q-26 0 -26 30q0 12 16.5 37.5t27.5 25.5h42q7 -7 7 -20zM996 309q0 -42 -30 -84q-33 -46 -73 -46q-51 0 -51 65q0 47 30 86.5t75 39.5q49 0 49 -61zM944 148q0 -30 -51 -30q-92 0 -92 74l2 5q13 -12 42 -32q34 -4 99 -17z" />
  </g>

</svg>
