<?xml version="1.0" standalone="no"?>
<!DOCTYPE svg PUBLIC "-//W3C//DTD SVG 1.1//EN" "http://www.w3.org/Graphics/SVG/1.1/DTD/svg11.dtd" >
<svg viewBox="0 -442 2048 2048">
  <g transform="matrix(1 0 0 -1 0 1606)">
   <path fill="currentColor"
d="M1358 1422q0 -56 -225 -297q-6 12 -6 29q0 73 56 186q63 127 127 127q48 0 48 -45zM959 1410q0 -51 -25 -160q-24 -103 -46 -158q-70 196 -70 313q0 77 70 77q71 0 71 -72zM650 1162q0 -15 -7 -36q-229 238 -229 294q0 47 53 47q92 0 168 -244q15 -48 15 -61zM1686 117
q0 -101 -32 -147q-25 -36 -77 -57q-89 -36 -503 -36q-172 0 -187 112q-11 -7 -24 -40t-40 -48q-40 -23 -128 -23q-70 0 -230 6q-71 1 -213 14q-98 17 -136 68q-34 46 -34 179q0 137 40 251q27 77 95 149.5t143 102.5q3 43 33 148q55 122 210 181q124 48 283 48
q206 0 345 -83q166 -99 181 -290q274 -129 274 -535zM1325 1417q0 21 -20 21q-38 0 -86 -101q-32 -68 -52 -139q44 57 88 113q70 92 70 106zM915 1400q0 48 -27 48q-15 0 -26 -15v-48q0 -28 26 -206q27 214 27 221zM605 1203q-10 51 -53 135q-50 100 -85 100q-19 0 -19 -18
q0 -16 69 -105zM1634 99q0 353 -222 482q-5 -270 -174 -447h35q14 0 74.5 48t89.5 48q9 0 23 -5v-26q-50 -33 -99 -67q-61 -37 -111 -37q-20 0 -59.5 4.5t-59.5 4.5q-110 0 -162 -54l5 -13q60 20 108 20q6 0 12 -6l-80 -24q-51 -17 -64 -47q55 28 127 28q15 0 26 -5
q-43 -10 -116 -51q27 -26 121 -26q398 0 477 56q49 35 49 117zM1353 553q0 413 -467 413q-462 0 -462 -409v-40q0 -83 34 -165q25 -60 76 -124q64 -80 111 -80q5 0 14.5 2.5t14.5 2.5q77 0 127 -36q2 -1 43 -40q32 -31 42 -31q6 0 49 34q47 38 56 42q30 15 84.5 18.5
t74.5 13.5q28 13 63 45q140 128 140 354zM824 -13q-12 26 -66 40q-67 18 -79 26q29 3 51 3q14 0 40 -6t38 -7q-32 61 -163 61q-20 0 -60.5 -4.5t-60.5 -4.5q-50 0 -111 37q-50 34 -100 67v22q10 9 21 9q30 0 91 -49t99 -49q6 0 15 3q-94 88 -133 205q-24 70 -47 241
q-112 -56 -173 -196q-52 -120 -52 -261q0 -128 79 -158q106 -41 462 -41q104 0 110 34q-43 9 -116 46l75 3q26 -7 72 -33zM1153 303q0 -5 -2 -10q-14 -5 -145 -1l96 -59v-22q-5 -5 -16 -5q-14 0 -83 45t-69 53q0 26 141 104h22l5 -7v-17q-33 -19 -96 -60q11 -5 144 -4
q3 -10 3 -17zM843 304q0 -9 -142 -98h-21l-11 11q7 17 43 38q26 15 53 30q-13 0 -49 1q-31 1 -49 1q15 0 -44 -3v41q5 -2 15 -2q62 0 127 2q-44 26 -96 69l7 14h24q18 0 80.5 -44.5t62.5 -59.5z" />
  </g>

</svg>
