<?xml version="1.0" standalone="no"?>
<!DOCTYPE svg PUBLIC "-//W3C//DTD SVG 1.1//EN" "http://www.w3.org/Graphics/SVG/1.1/DTD/svg11.dtd" >
<svg viewBox="0 -442 2048 2048">
  <g transform="matrix(1 0 0 -1 0 1606)">
   <path fill="currentColor"
d="M1450 12h-62v316q17 17 31 17q21 0 31 -22v-311zM1733 435q0 12 -13 -141l-24 -282h-60q41 145 41 405q0 554 -250 607l-18 -3q41 -81 41 -259q0 -247 -146 -450q-161 -224 -399 -224q-151 0 -272 91q-269 203 -269 663q0 43 32 179v1q-3 1 -8 2q-83 0 -153 -110
q-56 -87 -75 -186q-21 -107 -21 -316q0 -208 35 -400h-60q-32 290 -32 411q0 280 58 425q20 50 64 107q50 66 90 83q44 7 119 34q4 3 26 38q26 42 76 82q127 100 390 100q158 0 271 -38q66 -22 127 -71q65 -53 90 -112q24 -4 71 -15q153 -43 221 -260q48 -153 48 -361z
M426 12h-59v321q9 12 24 12q13 0 25 -12v-192q0 -13 5 -39t5 -39v-51zM1389 793q0 242 -123 348q-115 99 -361 99q-247 0 -363 -98q-126 -107 -126 -349q0 -230 125 -419q142 -214 361 -214q222 0 363 213q124 187 124 420zM1176 672q-38 90 -111 90q-35 0 -54 -29
q-18 -25 -15 -61q-9 15 -9 39q0 82 67 82q45 0 81 -39q33 -36 41 -82zM1167 572q0 -57 -79 -57q-75 0 -75 54q0 59 75 59q79 0 79 -56zM828 711q0 -14 -13 -42q2 93 -69 93q-60 0 -107 -82q4 39 41 76t76 37q31 0 51.5 -25t20.5 -57zM802 569q0 -54 -80 -54q-79 0 -79 57
q0 56 79 56q80 0 80 -59zM1095 332h-375q119 34 185 34q87 0 190 -34zM1141 561h-29q-8 -16 -21 -16v-24h18q33 18 32 40zM1080 585l-12 12h-16q-13 -2 -13 -6v-18l34 -6q7 7 7 18zM781 542v19h-35q-1 -15 -15 -16v-24h23q13 6 27 21zM720 585l-12 12h-17q-15 -7 -17 -24
q15 -7 22 -7q17 0 24 19z" />
  </g>

</svg>
