<?xml version="1.0" standalone="no"?>
<!DOCTYPE svg PUBLIC "-//W3C//DTD SVG 1.1//EN" "http://www.w3.org/Graphics/SVG/1.1/DTD/svg11.dtd" >
<svg viewBox="0 -442 2048 2048">
  <g transform="matrix(1 0 0 -1 0 1606)">
   <path fill="currentColor"
d="M1804 418q0 -250 -65 -373q-19 -36 -19 -39v-246h-82v177q0 19 23 94q50 164 57 189q23 96 23 198q0 308 -141 588q-56 111 -177 233q-142 143 -239 143q-36 0 -88 -36q51 -13 103 -27q55 -19 82 -63v-18q-42 18 -85 36q-52 20 -88 20q-64 0 -64 -36q0 -15 81 -40
q89 -29 104 -44v-23q-5 -11 -18 -11t-61 20.5t-79 20.5q-33 0 -33 -26q0 -16 11 -27q21 -21 62 -45q60 -35 66 -39q127 -86 215 -210q101 -142 101 -276q0 -243 -152 -414q-158 -178 -398 -178q-241 0 -397 180q-149 171 -149 416q0 70 22 136q29 87 137 202q95 102 187 163
q32 17 90 57q21 19 24 43q-12 19 -33 19q-31 0 -82 -21t-68 -21q-6 0 -17 5v29q18 21 86 42q83 26 99 35v20q-20 23 -62 23q-34 0 -93.5 -28.5t-69.5 -28.5q-8 0 -8 13q0 62 187 95q-21 37 -83 37q-118 0 -278 -178q-140 -155 -192 -290q-98 -255 -98 -498
q0 -137 48.5 -294.5t48.5 -173.5v-188h-72v234q0 -5 -35 88q-53 141 -53 334q0 263 99 504q106 256 296 417q115 97 225 97q85 0 131 -44q36 -34 70 -122h80q35 88 71 122q47 44 132 44q110 0 218 -93q191 -165 298 -418q102 -242 102 -505zM1426 540q0 259 -264 453
q-40 26 -119 80q-40 30 -48 52l-20 66h-65q-6 -49 -23 -79q-15 -25 -52 -48l-64 -36q-124 -76 -210 -196q-96 -134 -96 -265v-27q0 -198 139 -350q143 -157 339 -157q197 0 342 156q141 153 141 351zM1269 676q-27 91 -107 91q-79 0 -106 -93q15 124 106 124q61 0 83 -33
q15 -22 24 -89zM1256 597q0 -88 -94 -88q-93 0 -93 85q0 86 93 86q94 0 94 -83zM835 682q-27 85 -104 85t-104 -82q7 60 25 83q23 30 79 30q100 0 104 -116zM821 594q0 -85 -92 -85q-88 0 -88 85q0 86 88 86q92 0 92 -86zM1177 343q-14 -77 -85 -125q-66 -45 -147 -45
q-184 0 -232 170h464zM1229 567v18q-13 3 -39 6q-10 -21 -27 -21v-40h24q31 20 42 37zM1141 631q-12 12 -23 12q-10 -6 -10 -16q0 -4 4 -14h23q6 6 6 18zM800 585q-6 0 -16.5 3.5t-16.5 3.5q-7 0 -16.5 -11t-16.5 -11v-40h18q48 29 48 55zM713 631q-12 12 -24 12l-12 -15
q5 -8 5 -15h24q7 7 7 18z" />
  </g>

</svg>
