<?xml version="1.0" standalone="no"?>
<!DOCTYPE svg PUBLIC "-//W3C//DTD SVG 1.1//EN" "http://www.w3.org/Graphics/SVG/1.1/DTD/svg11.dtd" >
<svg viewBox="0 -442 2048 2048">
  <g transform="matrix(1 0 0 -1 0 1606)">
   <path fill="currentColor"
d="M1829 -214h-134q-156 116 -184 136q-140 100 -181 116q-26 5 -78 17q-10 2 -59 22q-46 17 -53 17q2 0 -44 -23q-5 -3 -69 -25l36 -51q34 -49 97 -109q52 -50 105 -100h-121l-137 177q-48 -5 -106 -2q-43 -61 -137 -175h-118q61 52 171 168q62 82 75 95q45 48 101 64
q179 51 262 155q8 11 25 32q54 2 149 25q70 17 163 63q119 58 119 103q0 19 -30 19q-10 0 -87 -31q-90 -36 -172 -36q-52 0 -100 11q-53 12 -61 12q-25 0 -147.5 -41t-148.5 -56q-34 -21 -77 -66q-36 -37 -71 -74q-65 -62 -129 -111q-56 -43 -250 -180q-215 -152 -225 -152
h-131q49 48 210 146q93 57 170 108q-79 20 -79 91q0 9 1 15q13 13 46 21q38 9 50 16q-26 31 -72 94q-6 -3 -16 -3q-88 0 -180 22q-130 32 -130 92q0 42 19 58q15 13 59 16q-9 15 -9 34q0 27 18.5 48t45.5 21q26 0 74 -17q-7 36 -18 108q-6 44 -6 116q0 361 164 523.5
t525 162.5t525 -160t164 -520q0 -38 -14 -113t-14 -113l2 -4q53 17 77 17q62 0 62 -69q0 -16 -5 -33q44 -4 57 -11q21 -13 21 -52q0 -23 -16 -49q-22 -36 -140 -59q-92 -18 -162 -18q-2 0 -6.5 1.5t-6.5 1.5q-3 0 -73 -94q30 -8 61 -16q41 -14 41 -37q0 -66 -78 -90
q65 -45 141 -91q62 -38 124 -75q70 -45 115 -88zM1780 398q0 19 -26 19q-29 0 -77 -30q-36 -24 -73 -47q46 3 99 15q77 18 77 43zM1562 821q0 304 -154 442q-146 131 -454 131q-307 0 -454 -133q-154 -139 -154 -443q0 -149 42 -298q67 -8 153 -8q17 0 50.5 9.5t50.5 9.5
q50 0 313 -105q25 6 158 61q109 44 156 44q18 0 51.5 -10t51.5 -10q27 0 72 3q52 3 71 3q47 134 47 304zM1381 256q-2 0 -55 -11q5 -15 19 -32q11 15 36 43zM1457 125l-102 36q-70 25 -91 46q-27 -34 -81 -80q98 -39 204 -39q66 0 70 37zM879 390l-229 76q-166 -23 -161 -23
q-82 0 -158 29q-99 38 -103 38q-28 0 -28 -19q0 -62 178 -131q158 -60 238 -60q15 0 45 -32q21 -23 41 -46q54 61 177 168zM585 245q-19 4 -58 11q11 -15 36 -43zM660 192l-13 15q-35 -26 -93 -48l-100 -34v-10q16 -27 67 -27q21 0 73 43q46 36 66 61zM305 340
q-35 25 -70 49q-43 28 -79 28q-25 0 -25 -17q0 -37 174 -60zM1297 784q-31 107 -114 107q-88 0 -114 -107q2 78 24 112q28 42 102 42q50 0 78 -45q24 -39 24 -92v-17zM1279 691q0 -102 -97 -102t-97 102q0 104 98 104q96 0 96 -104zM842 782q-37 109 -115 109t-115 -109
q9 79 24 107q26 49 91 49q108 0 115 -156zM826 692q0 -103 -97 -103t-97 103t95 103q99 0 99 -103zM1164 714v20q-10 9 -20 9q-18 0 -18 -19q0 -16 20 -16q12 0 18 6zM1256 662v19q-5 -4 -15 -4q-13 0 -24 5q-4 -15 -33 -31v-45h10q19 0 40.5 19t21.5 37zM710 724
q0 19 -20 19q-8 0 -18 -9v-17q5 -9 18 -9q20 0 20 16zM803 669q0 1 -1 6q-13 2 -39 7q-9 -25 -32 -27v-49h9q21 0 42 21t21 42z" />
  </g>

</svg>
