<?xml version="1.0" standalone="no"?>
<!DOCTYPE svg PUBLIC "-//W3C//DTD SVG 1.1//EN" "http://www.w3.org/Graphics/SVG/1.1/DTD/svg11.dtd" >
<svg viewBox="0 -442 2048 2048">
  <g transform="matrix(1 0 0 -1 0 1606)">
   <path fill="currentColor"
d="M1734 701q0 -75 -72.5 -193t-72.5 -180q0 1 139 -431h-48h-33q-31 112 -102 332q-9 20 -22 62q-6 26 -6 73q0 49 77.5 151t77.5 188q0 66 -54 167q-23 44 -75 103q-63 72 -94 72q-16 0 -16 -19q0 -22 11 -34q10 -6 30 -17q32 -20 93 -105q-33 6 -83 56q2 -9 18 -54
q15 -40 15 -47q0 -8 -14 -8q-25 54 -50 107q-31 64 -69 95h-30q-4 -4 -4 -11q0 -21 25 -89q69 -187 69 -280q0 -21 -35 -100q-79 -179 -79 -268q0 -65 44 -188q34 -93 69 -187h-76q-32 96 -61 176q-80 -47 -149 -90q-82 -51 -121 -63q-42 -13 -131 -13q-8 0 -23 -1h-23
q-92 0 -197 53q-99 51 -163 124q-8 -20 -61 -186h-76q39 101 78 203q46 121 46 210q0 85 -57 206.5t-57 179.5q0 28 18 84q75 234 75 233v40q-2 3 -7 3q-37 0 -80 -82q-30 -57 -59 -114h-19q35 98 35 97q0 1 -2 6q-42 -42 -75 -62v18q0 10 65 67t65 78v18q-13 5 -18 5
q-12 0 -70 -59q-48 -49 -67 -74q-87 -113 -87 -198q0 -7 1 -22v-22q0 -57 76 -154.5t76 -171.5q0 -73 -56 -241q-43 -124 -85 -248h-76q42 126 83 253q57 179 57 244q0 22 -59 132q-63 117 -70 148q-6 25 -6 69q0 130 132 291q35 43 102 87q29 19 45 19q22 0 55 -37
q65 83 96 112q56 52 126 75q41 15 83 29t86 14h183q89 0 235 -61q87 -36 170 -201q27 27 54 27q33 0 97 -54q52 -44 82 -83q101 -133 101 -259zM1345 814q0 17 -22 75q-25 64 -28 81q1 25 -19 77q-34 45 -88 45q-92 0 -141 -34q-42 -28 -93 -113q-9 -33 -45 -87
q-21 36 -63.5 107t-73.5 95q-41 31 -113 31q-73 0 -109 -38q-13 -14 -40 -93q-35 -103 -35 -135q0 -89 23 -136q26 -24 55 -76l-3 -2q-20 -4 -40 -20q-24 -18 -24 -35q0 -10 28 -74q29 -69 33 -89t4 -56q0 -27 -7 -108q37 -82 158 -143q112 -56 209 -56q71 0 127 16
q84 25 151 80q81 67 81 142q0 11 -1 33.5t-1 33.5q0 37 33.5 113.5t33.5 94.5q0 49 -68 70v20q39 15 61 78q17 51 17 103zM1278 799q0 -127 -116 -127q-127 0 -127 125q0 128 121 128q122 0 122 -126zM1092 508q0 -15 -23 -38q-17 3 -43.5 33t-26.5 47q0 -10 5 23h50
q38 -25 38 -65zM1097 595h-18q-8 0 -36 17q-32 20 -38 22q-23 9 -84 9h-41q-39 0 -89.5 -24t-76.5 -24q52 98 204 98q53 0 105 -25q60 -28 74 -73zM775 835q0 -168 -107 -168q-130 0 -130 132q0 77 37 105q30 23 108 23q35 0 63.5 -29t28.5 -63zM817 534q0 -13 -65 -64
q-28 17 -28 38q0 15 18 40t32 25h43v-39zM978 271q0 -46 -28 -87q-32 -45 -76 -45q-62 0 -62 67q0 41 37 85.5t77 44.5q52 0 52 -65zM926 100q-7 -28 -54 -28q-50 0 -79 27q-16 15 -16 28v37q28 -47 73 -51q63 -5 76 -13zM1138 841q-11 11 -11 22h-29l-6 -40h29zM1247 779
q-23 12 -38 12q-4 0 -20 -17t-24 -20v-55h9q25 0 47.5 27t25.5 53zM630 828q-2 12 -5 35h-30l6 -40q10 2 29 5zM745 757v29h-45q-15 -22 -38 -32v-51h24q59 38 59 54z" />
  </g>

</svg>
