<?xml version="1.0" standalone="no"?>
<!DOCTYPE svg PUBLIC "-//W3C//DTD SVG 1.1//EN" "http://www.w3.org/Graphics/SVG/1.1/DTD/svg11.dtd" >
<svg viewBox="0 -442 2048 2048">
  <g transform="matrix(1 0 0 -1 0 1606)">
   <path fill="currentColor"
d="M1490 951l-105 -114q-198 127 -442 127q-132 0 -220 -47q-112 -59 -112 -179q0 -113 105 -207q85 -76 208 -118l-199 -134q-317 175 -317 452q0 196 150 306q134 99 337 99q312 0 595 -185zM1998 1346q0 -188 -181 -447q95 -263 95 -568q0 -302 -144 -500
q-162 -223 -453 -223q-283 0 -535 304q-272 -212 -492 -304l-239 199q525 179 884 431q337 235 719 674q-66 190 -66 322q0 126 53 215q63 108 181 108q86 0 134 -64q44 -58 44 -147zM1757 403q0 158 -53 350q-382 -491 -803 -752q160 -176 380 -176q229 0 360 180
q116 160 116 398z" />
  </g>

</svg>
