<?xml version="1.0" standalone="no"?>
<!DOCTYPE svg PUBLIC "-//W3C//DTD SVG 1.1//EN" "http://www.w3.org/Graphics/SVG/1.1/DTD/svg11.dtd" >
<svg viewBox="0 -442 2048 2048">
  <g transform="matrix(1 0 0 -1 0 1606)">
   <path fill="currentColor"
d="M1993 762q0 -199 -228 -322q-189 -101 -406 -101q-186 0 -384 72l51 -50q215 -211 349 -211q93 0 93 78q0 18 -16 50q194 -26 194 -157t-189 -131q-216 0 -500 295l-50 52q-114 119 -209 186q-200 -193 -372 -193q-113 0 -190 67q-80 70 -80 181q0 92 65.5 153t158.5 61
q101 0 233 -57l66 68q265 273 495 273q136 0 236 -83q107 -88 107 -221q0 -76 -52.5 -132.5t-127.5 -56.5q-110 0 -180 152q43 -16 74 -16q57 0 104 30q53 34 53 89q0 85 -91 85q-99 0 -351 -259l-72 -74q247 -121 437 -121q182 0 314 93q148 104 148 279q0 95 -53 159
q142 0 242 -48q131 -63 131 -190zM435 657q-71 28 -131 28q-105 0 -105 -79q0 -57 66 -57q52 0 170 108z" />
  </g>

</svg>
