<?xml version="1.0" standalone="no"?>
<!DOCTYPE svg PUBLIC "-//W3C//DTD SVG 1.1//EN" "http://www.w3.org/Graphics/SVG/1.1/DTD/svg11.dtd" >
<svg viewBox="0 -442 2048 2048">
  <g transform="matrix(1 0 0 -1 0 1606)">
   <path fill="currentColor"
d="M1578 454q0 -203 -99 -337q-111 -150 -307 -150q-277 0 -451 317l133 199q43 -124 119 -209q93 -104 207 -104q119 0 178 113q47 88 47 219q0 244 -126 442l113 105q186 -283 186 -595zM1999 1379q0 -117 -108 -181q-90 -53 -215 -53q-132 0 -322 66q-439 -381 -675 -718
q-251 -359 -431 -885l-198 239q92 221 304 492q-305 252 -305 535q0 291 224 453q199 144 502 144t566 -95q259 181 446 181q89 0 147 -44q65 -48 65 -134zM1194 1263q-190 53 -352 53q-237 0 -397 -117q-178 -130 -178 -359q0 -221 175 -380q262 420 752 803z" />
  </g>

</svg>
