<?xml version="1.0" standalone="no"?>
<!DOCTYPE svg PUBLIC "-//W3C//DTD SVG 1.1//EN" "http://www.w3.org/Graphics/SVG/1.1/DTD/svg11.dtd" >
<svg viewBox="0 -442 2048 2048">
  <g transform="matrix(1 0 0 -1 0 1606)">
   <path fill="currentColor"
d="M1998 -153l-199 -239q-179 525 -431 884q-235 337 -674 719q-190 -66 -322 -66q-126 0 -215 53q-108 63 -108 181q0 86 64 134q58 44 147 44q188 0 447 -181q263 95 568 95q302 0 500 -144q223 -162 223 -453q0 -283 -304 -535q212 -272 304 -492zM1327 284
q-175 -317 -452 -317q-196 0 -306 150q-99 134 -99 337q0 312 185 595l114 -105q-127 -198 -127 -442q0 -132 47 -220q59 -112 179 -112q113 0 207 105q76 85 118 208zM1781 840q0 229 -180 360q-160 116 -398 116q-158 0 -350 -53q491 -382 752 -803q176 160 176 380z" />
  </g>

</svg>
