<?xml version="1.0" standalone="no"?>
<!DOCTYPE svg PUBLIC "-//W3C//DTD SVG 1.1//EN" "http://www.w3.org/Graphics/SVG/1.1/DTD/svg11.dtd" >
<svg viewBox="0 -442 2048 2048">
  <g transform="matrix(1 0 0 -1 0 1606)">
   <path fill="currentColor"
d="M1968 487q0 -88 -75 -140q-67 -47 -158 -47q-101 0 -214 60l-98 -92q-189 -178 -260 -223q-87 -55 -176 -55q-120 0 -218 79q-104 84 -104 202q0 75 43 130q47 60 120 60q87 0 167 -93q-23 4 -36 4q-77 0 -137 -46q-65 -50 -65 -125q0 -44 31.5 -75.5t75.5 -31.5
q112 0 390 285l81 83q-98 66 -264 114q-161 46 -284 46q-209 0 -354 -124q-152 -131 -152 -337q0 -45 11 -85q-212 38 -212 186q0 216 230 351q196 115 427 115q150 0 409 -102l-72 70q-88 86 -195 157q-141 94 -224 94q-52 0 -91 -29q-42 -32 -42 -83q0 -11 3 -30
q-138 52 -138 134q0 66 69 105q58 32 129 32q194 0 561 -362l70 -69q77 -76 168 -140q170 174 342 174q93 0 163 -48q79 -55 79 -144zM1861 460q0 60 -85 60q-92 0 -204 -113q89 -33 147 -33q142 0 142 86z" />
  </g>

</svg>
