<?xml version="1.0" standalone="no"?>
<!DOCTYPE svg PUBLIC "-//W3C//DTD SVG 1.1//EN" "http://www.w3.org/Graphics/SVG/1.1/DTD/svg11.dtd" >
<svg viewBox="0 -442 2048 2048">
  <g transform="matrix(1 0 0 -1 0 1606)">
   <path fill="currentColor"
d="M1993 487q0 -92 -66 -152.5t-158 -60.5q-101 0 -233 57l-66 -68q-265 -273 -495 -273q-137 0 -237 82q-106 88 -106 222q0 75 52.5 132t127.5 57q109 0 180 -152q-43 15 -74 15q-57 0 -104 -30q-53 -34 -53 -88q0 -85 91 -85q99 0 351 259l72 74q-247 121 -437 121
q-183 0 -314 -93q-148 -105 -148 -280q0 -95 53 -158q-143 0 -242 48q-131 62 -131 189q0 200 227 322q189 102 406 102q185 0 385 -72l-51 49q-220 211 -349 211q-93 0 -93 -77q0 -19 15 -51q-193 27 -193 157q0 132 189 132q216 0 500 -295l50 -52q114 -119 208 -186
q201 193 373 193q113 0 190 -67q80 -71 80 -182zM1850 459q0 58 -66 58q-52 0 -170 -108q71 -28 131 -28q105 0 105 78z" />
  </g>

</svg>
