<?xml version="1.0" standalone="no"?>
<!DOCTYPE svg PUBLIC "-//W3C//DTD SVG 1.1//EN" "http://www.w3.org/Graphics/SVG/1.1/DTD/svg11.dtd" >
<svg viewBox="0 -442 2048 2048">
  <g transform="matrix(1 0 0 -1 0 1606)">
   <path fill="currentColor"
d="M1993 578q0 -111 -78.5 -179.5t-191.5 -68.5q-172 0 -372 193q-95 -67 -209 -186l-50 -52q-284 -295 -500 -295q-189 0 -189 131t194 157q-16 -32 -16 -50q0 -78 93 -78q134 0 349 211l51 50q-198 -72 -384 -72q-217 0 -406 101q-228 123 -228 322q0 127 131 190
q100 48 242 48q-53 -64 -53 -159q0 -175 148 -279q132 -93 314 -93q190 0 437 121l-72 74q-252 259 -351 259q-91 0 -91 -85q0 -55 53 -89q47 -30 104 -30q31 0 74 16q-70 -152 -180 -152q-75 0 -127.5 56.5t-52.5 132.5q0 133 107 221q100 83 236 83q230 0 495 -273l66 -68
q132 57 233 57q93 0 158.5 -61t65.5 -153zM1850 606q0 79 -105 79q-60 0 -131 -28q118 -108 170 -108q66 0 66 57z" />
  </g>

</svg>
