<?xml version="1.0" standalone="no"?>
<!DOCTYPE svg PUBLIC "-//W3C//DTD SVG 1.1//EN" "http://www.w3.org/Graphics/SVG/1.1/DTD/svg11.dtd" >
<svg viewBox="0 -442 2048 2048">
  <g transform="matrix(1 0 0 -1 0 1606)">
   <path fill="currentColor"
d="M1968 262q0 -148 -212 -186q11 40 11 85q0 206 -152 337q-145 124 -354 124q-123 0 -284 -46q-166 -48 -264 -114l81 -83q278 -285 390 -285q44 0 75.5 31.5t31.5 75.5q0 75 -65 125q-60 46 -137 46q-13 0 -36 -4q80 93 167 93q73 0 120 -60q43 -55 43 -130
q0 -118 -104 -202q-98 -79 -218 -79q-89 0 -176 55q-71 45 -260 223l-98 92q-113 -60 -214 -60q-91 0 -158 47q-75 52 -75 140q0 89 79 144q70 48 163 48q172 0 342 -174q91 64 168 140l70 69q367 362 561 362q71 0 129 -32q69 -39 69 -105q0 -82 -138 -134q3 19 3 30
q0 51 -42 83q-39 29 -91 29q-83 0 -224 -94q-107 -71 -195 -157l-72 -70q259 102 409 102q231 0 427 -115q230 -135 230 -351zM476 407q-112 113 -204 113q-85 0 -85 -60q0 -86 142 -86q58 0 147 33z" />
  </g>

</svg>
