<?xml version="1.0" standalone="no"?>
<!DOCTYPE svg PUBLIC "-//W3C//DTD SVG 1.1//EN" "http://www.w3.org/Graphics/SVG/1.1/DTD/svg11.dtd" >
<svg viewBox="0 -442 2048 2048">
  <g transform="matrix(1 0 0 -1 0 1606)">
   <path fill="currentColor"
d="M1639 730q0 -277 -317 -451l-199 133q124 43 209 119q104 93 104 207q0 119 -113 178q-88 47 -219 47q-244 0 -442 -126l-105 113q283 186 595 186q203 0 337 -99q150 -111 150 -307zM1998 -194l-239 -198q-221 92 -492 304q-252 -305 -535 -305q-291 0 -453 224
q-144 199 -144 502t95 566q-181 259 -181 446q0 89 44 147q48 65 134 65q117 0 181 -108q53 -90 53 -215q0 -132 -66 -322q381 -439 718 -675q359 -251 885 -431zM1146 0q-420 262 -803 752q-53 -190 -53 -352q0 -237 117 -397q130 -178 359 -178q221 0 380 175z" />
  </g>

</svg>
