<?xml version="1.0" standalone="no"?>
<!DOCTYPE svg PUBLIC "-//W3C//DTD SVG 1.1//EN" "http://www.w3.org/Graphics/SVG/1.1/DTD/svg11.dtd" >
<svg viewBox="0 -442 2048 2048">
  <g transform="matrix(1 0 0 -1 0 1606)">
   <path fill="currentColor"
d="M1993 303q0 -127 -131 -189q-99 -48 -242 -48q53 63 53 158q0 175 -148 280q-131 93 -314 93q-190 0 -437 -121l72 -74q252 -259 351 -259q91 0 91 85q0 54 -54 88q-46 30 -103 30q-31 0 -74 -15q71 152 180 152q75 0 127.5 -57t52.5 -132q0 -134 -106 -222
q-100 -82 -237 -82q-230 0 -495 273l-66 68q-132 -57 -233 -57q-92 0 -158 60.5t-66 152.5q0 111 80 182q77 67 190 67q172 0 373 -193q94 67 208 186l50 52q284 295 500 295q189 0 189 -132q0 -130 -193 -157q15 32 15 51q0 77 -93 77q-129 0 -349 -211l-51 -49
q200 72 385 72q217 0 406 -102q227 -122 227 -322zM435 409q-118 108 -170 108q-66 0 -66 -58q0 -78 105 -78q60 0 131 28z" />
  </g>

</svg>
