<?xml version="1.0" standalone="no"?>
<!DOCTYPE svg PUBLIC "-//W3C//DTD SVG 1.1//EN" "http://www.w3.org/Graphics/SVG/1.1/DTD/svg11.dtd" >
<svg viewBox="0 -442 2048 2048">
  <g transform="matrix(1 0 0 -1 0 1606)">
   <path fill="currentColor"
d="M1577 711q0 -312 -185 -595l-114 105q127 198 127 442q0 132 -47 220q-59 112 -179 112q-113 0 -207 -105q-76 -85 -118 -208l-134 199q175 317 452 317q196 0 306 -150q99 -134 99 -337zM1998 -214q0 -86 -64 -134q-58 -44 -147 -44q-188 0 -447 181q-263 -95 -568 -95
q-302 0 -500 144q-223 162 -223 453q0 283 304 535q-212 272 -304 492l199 239q179 -525 431 -885q235 -336 674 -718q190 66 322 66q126 0 215 -53q108 -63 108 -181zM1194 -98q-491 382 -752 803q-176 -160 -176 -380q0 -229 180 -360q160 -116 398 -116q158 0 350 53z
" />
  </g>

</svg>
