<?xml version="1.0" standalone="no"?>
<!DOCTYPE svg PUBLIC "-//W3C//DTD SVG 1.1//EN" "http://www.w3.org/Graphics/SVG/1.1/DTD/svg11.dtd" >
<svg viewBox="0 -442 2048 2048">
  <g transform="matrix(1 0 0 -1 0 1606)">
   <path fill="currentColor"
d="M1999 291q0 -291 -224 -453q-199 -144 -502 -144t-566 95q-259 -181 -446 -181q-89 0 -147 44q-65 48 -65 134q0 117 108 181q90 53 215 53q132 0 322 -66q438 381 675 718q251 359 431 885l198 -239q-92 -221 -304 -492q305 -252 305 -535zM1327 881l-133 -199
q-43 124 -119 209q-93 104 -207 104q-119 0 -178 -113q-47 -88 -47 -219q0 -244 126 -442l-113 -105q-186 283 -186 595q0 203 99 337q111 150 307 150q277 0 451 -317zM1781 325q0 221 -175 380q-262 -420 -752 -803q190 -53 352 -53q237 0 397 117q178 130 178 359z" />
  </g>

</svg>
