<?xml version="1.0" standalone="no"?>
<!DOCTYPE svg PUBLIC "-//W3C//DTD SVG 1.1//EN" "http://www.w3.org/Graphics/SVG/1.1/DTD/svg11.dtd" >
<svg viewBox="0 -442 2048 2048">
  <g transform="matrix(1 0 0 -1 0 1606)">
   <path fill="currentColor"
d="M1998 -180q0 -89 -44 -147q-48 -65 -134 -65q-117 0 -181 108q-53 90 -53 215q0 132 66 322q-381 438 -718 675q-360 251 -885 431l239 198q221 -92 492 -304q252 305 535 305q291 0 453 -224q144 -199 144 -502t-95 -566q181 -259 181 -446zM1490 215
q-283 -186 -595 -186q-203 0 -337 99q-150 111 -150 307q0 277 317 451l199 -133q-124 -43 -209 -119q-104 -93 -104 -207q0 -119 113 -178q88 -47 219 -47q244 0 442 126zM1757 765q0 237 -117 397q-130 178 -359 178q-221 0 -380 -175q420 -262 803 -752q53 190 53 352z
" />
  </g>

</svg>
