<?xml version="1.0" standalone="no"?>
<!DOCTYPE svg PUBLIC "-//W3C//DTD SVG 1.1//EN" "http://www.w3.org/Graphics/SVG/1.1/DTD/svg11.dtd" >
<svg viewBox="0 -442 2048 2048">
  <g transform="matrix(1 0 0 -1 0 1606)">
   <path fill="currentColor"
d="M1967 803q0 -215 -231 -350q-196 -115 -426 -115q-149 0 -409 102l73 -71q88 -85 194 -156q141 -94 224 -94q52 0 91 29q43 32 43 83q0 11 -3 29q138 -52 138 -134q0 -65 -70 -104q-57 -32 -128 -32q-195 0 -562 362l-70 69q-75 74 -168 140q-170 -174 -342 -174
q-93 0 -163 48q-78 54 -78 144q0 88 75 140q66 46 157 46q101 0 215 -60l97 93q149 142 197 179q130 99 239 99q121 0 218 -79q104 -85 104 -203q0 -75 -43 -130q-47 -59 -120 -59q-87 0 -167 92q24 -4 36 -4q77 0 137 46q65 51 65 125q0 44 -31.5 76t-75.5 32
q-115 0 -390 -285l-80 -83q96 -66 263 -114q161 -46 284 -46q209 0 354 124q153 131 153 336q0 45 -11 85q211 -37 211 -186zM475 659q-88 32 -146 32q-142 0 -142 -85q0 -60 85 -60q92 0 203 113z" />
  </g>

</svg>
