<?xml version="1.0" standalone="no"?>
<!DOCTYPE svg PUBLIC "-//W3C//DTD SVG 1.1//EN" "http://www.w3.org/Graphics/SVG/1.1/DTD/svg11.dtd" >
<svg viewBox="0 -442 2048 2048">
  <g transform="matrix(1 0 0 -1 0 1606)">
   <path fill="currentColor"
d="M1998 1358q-525 -179 -884 -431q-337 -235 -719 -674q66 -190 66 -322q0 -126 -53 -215q-63 -108 -181 -108q-86 0 -134 64q-44 58 -44 147q0 188 181 447q-95 263 -95 568q0 302 144 500q162 223 453 223q283 0 535 -304q272 212 492 304zM1639 434q0 -196 -150 -306
q-134 -99 -337 -99q-312 0 -595 185l105 114q198 -127 442 -127q132 0 220 47q112 59 112 179q0 113 -105 207q-85 76 -208 118l199 134q317 -175 317 -452zM1146 1164q-160 176 -380 176q-229 0 -360 -180q-116 -160 -116 -398q0 -158 53 -350q382 491 803 752z" />
  </g>

</svg>
