<?xml version="1.0" standalone="no"?>
<!DOCTYPE svg PUBLIC "-//W3C//DTD SVG 1.1//EN" "http://www.w3.org/Graphics/SVG/1.1/DTD/svg11.dtd" >
<svg viewBox="0 -442 2048 2048">
  <g transform="matrix(1 0 0 -1 0 1606)">
   <path fill="currentColor"
d="M2048 -442h-2048v2048h2048v-2048zM2048 -442q0 259 -117 481q-231 438 -756 533q0 -257 145 -477q172 -261 525 -369q11 -55 15 -102q-340 67 -562.5 337t-222.5 617q203 22 342 78q154 61 295.5 189.5t218.5 275.5q71 138 108 338q-255 0 -472 -146
q-266 -179 -366 -519q-38 -8 -75 -12l-30 -3q80 341 340 557q266 221 612 221v49q-416 -26 -679 -264q-142 -129 -220 -279q-72 -138 -110 -338q248 0 471 146q269 176 365 521q44 12 105 17q-94 -399 -401 -608q-256 -174 -555 -174q-20 376 -265 640q-241 259 -615 324
q0 -249 145 -470q174 -264 525 -370l6 -31q6 -35 6 -72q-343 73 -560 340.5t-217 617.5h-49q0 -323 184 -587q243 -349 697 -430q0 252 -142 469q-176 269 -525 372q-12 60 -16 104q347 -79 562 -339q220 -265 220 -617q-269 0 -529 -178q-347 -238 -432 -700
q319 15 533 186t301 478q42 13 106 17q-100 -394 -399 -597q-259 -176 -560 -176v-50q322 0 587 184q351 244 428 691q-320 -19 -539 -200q-118 -98 -186 -208q-61 -100 -109 -258q-31 -9 -70 -13l-33 -3q85 350 338 562q260 218 615 218q17 -300 180 -537
q130 -189 303 -293q160 -96 399 -143q-45 665 -671 852q-11 46 -15 101q344 -79 556 -339q215 -263 215 -614h50zM1822 1375q-140 -442 -568 -568q121 424 568 568zM1828 -217q-209 54 -362.5 209t-211.5 366q443 -129 574 -575zM795 807q-212 63 -360 211.5t-209 360.5
q439 -133 569 -572zM800 348q-62 -208 -209.5 -356.5t-355.5 -210.5q58 207 207.5 356t357.5 211z" />
  </g>

</svg>
