<?xml version="1.0" standalone="no"?>
<!DOCTYPE svg PUBLIC "-//W3C//DTD SVG 1.1//EN" "http://www.w3.org/Graphics/SVG/1.1/DTD/svg11.dtd" >
<svg viewBox="0 -442 2048 2048">
  <g transform="matrix(1 0 0 -1 0 1606)">
   <path fill="currentColor"
d="M1998 1372q-460 -27 -704 -458q-99 -40 -221 -45q93 298 354 488q253 184 571 200v-185zM1998 1324q-90 -300 -352 -490q-252 -181 -573 -202v188q486 33 703 456q123 41 222 48zM1998 -392h-190q0 218 -129 409q-120 179 -320 291q-43 114 -48 225q306 -103 488 -354
q175 -242 199 -571zM974 632h-190q-37 489 -456 703q-38 109 -45 222q311 -112 490 -354q176 -239 201 -571zM737 632q-305 104 -486 355q-175 241 -202 570h185q37 -494 453 -700q39 -99 50 -225zM1763 -405q-357 140 -534 431q-156 257 -156 507h197q33 -477 445 -706
q4 -14 10 -36q31 -104 38 -196zM974 348q-231 -11 -415 -136q-179 -121 -288 -330q-136 -44 -222 -44q108 307 353.5 491t571.5 204v-185zM974 295q-107 -305 -355 -487q-244 -179 -570 -200v185q212 0 413 132q199 129 291 323q125 40 221 47z" />
  </g>

</svg>
