<?xml version="1.0" standalone="no"?>
<!DOCTYPE svg PUBLIC "-//W3C//DTD SVG 1.1//EN" "http://www.w3.org/Graphics/SVG/1.1/DTD/svg11.dtd" >
<svg viewBox="0 -442 2048 2048">
  <g transform="matrix(1 0 0 -1 0 1606)">
   <path fill="currentColor"
d="M1974 506q0 -232 -177 -378q-166 -138 -403 -138h-19v62q184 13 290 114q112 106 112 287q0 189 -122 313.5t-310 124.5q-166 0 -317 -104q-167 -116 -167 -275q0 -73 47 -130q49 -61 121 -61q65 0 107 50q39 48 39 114q0 21 -6 52l60 18q20 -64 20 -124q0 -113 -61 -191
q-66 -85 -176 -85q-136 0 -222 144q-117 -309 -569 -309h-147v62q75 0 145 177l19 48q38 96 70 132q38 45 125 79q-133 15 -211 82q-87 76 -87 203q0 137 112 223q102 80 243 80q219 0 354 -192l-54 -41q-88 111 -214 111q-95 0 -166 -62q-75 -64 -75 -158q0 -76 57 -124
q54 -45 131 -45q131 0 280 131l41 36q286 251 601 251q218 0 369 -128q160 -135 160 -349zM755 512l-1 55q-133 -73 -195 -127q-83 -75 -133 -188l-14 -32q-51 -117 -116 -167q467 23 459 459z" />
  </g>

</svg>
