<?xml version="1.0" standalone="no"?>
<!DOCTYPE svg PUBLIC "-//W3C//DTD SVG 1.1//EN" "http://www.w3.org/Graphics/SVG/1.1/DTD/svg11.dtd" >
<svg viewBox="0 -442 2048 2048">
  <g transform="matrix(1 0 0 -1 0 1606)">
   <path fill="currentColor"
d="M1976 707q-112 27 -159 56q-77 49 -77 140q0 46 33 84t79 38q93 0 93 -82q0 -49 -47 -49q-14 0 -34.5 14.5t-29.5 14.5q-23 0 -23 -51q0 -49 165 -165zM1896 660q-193 42 -331 42q-79 0 -187 -20l-16 61q120 19 202 19q98 0 174 -25q59 -19 158 -77zM1937 629
q-225 -53 -548 -53v79q183 -4 548 -26zM1983 532q-164 -117 -164 -165q0 -51 22 -51q9 0 29.5 14.5t34.5 14.5q47 0 47 -50q0 -82 -92 -82q-46 0 -79.5 38t-33.5 85q0 92 77 140q45 28 159 56zM1901 583q-96 -65 -150 -86q-71 -28 -171 -28q-96 0 -213 19l16 62
q105 -20 171 -20q101 0 347 53zM1369 624q0 -55 -26 -119l-50 29q15 61 15 75q0 51 -15 89l50 31q26 -60 26 -105zM1288 626q0 -42 -22 -113q-46 -3 -51 -3l-485 1q-159 0 -393 92l-20 -11v20h-278v13h278v18l20 -9q225 94 393 94l485 1q6 0 54 -4q19 -54 19 -99zM1932 939
q0 73 -78 73q-41 0 -71 -33.5t-30 -75.5q0 -122 159 -167q-114 81 -114 136q0 64 36 64q12 0 32.5 -14.5t31.5 -14.5q34 0 34 32zM1830 686q-122 63 -255 63q-96 0 -197 -17l10 -35q132 22 214 22q100 0 228 -33zM1851 624l-451 17v-48q246 0 451 31zM1939 299q0 32 -34 32
q-11 0 -31.5 -14t-32.5 -14q-36 0 -36 64q0 55 115 136q-88 -43 -106 -58q-49 -39 -49 -104q0 -42 26 -77q28 -38 69 -38q79 0 79 73zM1837 556q-181 -40 -277 -40q-72 0 -168 19l-9 -36q103 -17 197 -17q150 0 257 74zM1210 617q0 28 -19 79h-452q7 -49 7 -74
q0 -24 -13 -81h458q19 49 19 76zM686 584q0 10 -4 23q-12 -1 -50.5 -5t-53.5 -4q-55 0 -142 19q126 -57 191 -57h52q7 13 7 24zM1195 617q0 -25 -14 -61h-430q10 41 10 66q0 26 -5 59h425q14 -38 14 -64zM848 611v17h-38v-17h38z" />
  </g>

</svg>
