<?xml version="1.0" standalone="no"?>
<!DOCTYPE svg PUBLIC "-//W3C//DTD SVG 1.1//EN" "http://www.w3.org/Graphics/SVG/1.1/DTD/svg11.dtd" >
<svg viewBox="0 -442 2048 2048">
  <g transform="matrix(1 0 0 -1 0 1606)">
   <path fill="currentColor"
d="M2023 -10h-208q-219 0 -331 39q-166 58 -232 221q-92 -136 -229 -136q-113 0 -189 88q-72 84 -72 198q0 97 61 239l90 -42q-22 -52 -22 -91q0 -127 116 -127q60 0 99 42t39 102q0 142 -143 241q-129 88 -277 88q-167 0 -287 -109q-124 -112 -124 -278q0 -163 95 -264.5
t257 -111.5v-99h-32q-253 0 -420 121q-189 136 -189 379q0 227 167 380q162 149 391 149q275 0 568 -234l60 -48q180 -144 283 -144q57 0 98 41t41 98q0 70 -56 118q-53 45 -124 45q-89 0 -175 -90l-76 65q130 206 371 206q149 0 252 -82q112 -88 112 -234q0 -105 -74 -177
q-68 -66 -175 -86q124 -53 177 -218l16 -50q23 -71 46 -99q34 -41 96 -41v-99zM1717 81q-72 27 -128 123l-17 29q-127 217 -268 244q32 -396 413 -396z" />
  </g>

</svg>
