<?xml version="1.0" standalone="no"?>
<!DOCTYPE svg PUBLIC "-//W3C//DTD SVG 1.1//EN" "http://www.w3.org/Graphics/SVG/1.1/DTD/svg11.dtd" >
<svg viewBox="0 -442 2048 2048">
  <g transform="matrix(1 0 0 -1 0 1606)">
   <path fill="currentColor"
d="M2023 490q0 -243 -189 -379q-167 -121 -420 -121h-32v99q162 10 257 111.5t95 264.5q0 166 -124 278q-120 109 -287 109q-148 0 -277 -88q-143 -99 -143 -241q0 -60 39 -102t99 -42q116 0 116 127q0 39 -22 91l90 42q61 -142 61 -239q0 -114 -72 -198q-76 -88 -189 -88
q-137 0 -229 136q-66 -163 -232 -221q-112 -39 -331 -39h-208v99q62 0 96 41q23 28 46 99l16 50q53 165 177 218q-107 20 -175 86q-74 72 -74 177q0 146 112 234q103 82 252 82q241 0 371 -206l-76 -65q-86 90 -175 90q-71 0 -124 -45q-56 -48 -56 -118q0 -57 41 -98t98 -41
q103 0 283 144l60 48q293 234 568 234q229 0 391 -149q167 -153 167 -380zM744 477q-141 -27 -268 -244l-17 -29q-56 -96 -128 -123q381 0 413 396z" />
  </g>

</svg>
