<?xml version="1.0" standalone="no"?>
<!DOCTYPE svg PUBLIC "-//W3C//DTD SVG 1.1//EN" "http://www.w3.org/Graphics/SVG/1.1/DTD/svg11.dtd" >
<svg viewBox="0 -442 2048 2048">
  <g transform="matrix(1 0 0 -1 0 1606)">
   <path fill="currentColor"
d="M2024 576q0 -228 -167 -381q-162 -148 -392 -148q-270 0 -567 234l-61 48q-182 143 -283 143q-56 0 -97.5 -41t-41.5 -97q0 -70 56 -118q53 -46 124 -46q90 0 175 91l77 -65q-131 -206 -371 -206q-150 0 -253 82q-111 88 -111 234q0 104 74 177q68 65 175 86
q-124 52 -177 218l-16 50q-23 72 -46 100q-34 40 -97 40v99h208q220 0 332 -39q166 -58 232 -222q89 137 228 137q113 0 189 -88q72 -85 72 -199q0 -96 -60 -238l-90 41q22 53 22 92q0 127 -117 127q-60 0 -98.5 -42.5t-38.5 -102.5q0 -142 143 -240q129 -88 277 -88
q167 0 287 109q123 113 123 278q0 163 -95 264t-257 112v99h33q252 0 420 -121q189 -136 189 -379zM745 588q-32 397 -414 397q72 -28 128 -123l17 -29q128 -218 269 -245z" />
  </g>

</svg>
