<?xml version="1.0" standalone="no"?>
<!DOCTYPE svg PUBLIC "-//W3C//DTD SVG 1.1//EN" "http://www.w3.org/Graphics/SVG/1.1/DTD/svg11.dtd" >
<svg viewBox="0 -442 2048 2048">
  <g transform="matrix(1 0 0 -1 0 1606)">
   <path fill="currentColor"
d="M918 1445q0 -46 -38 -79t-85 -33q-91 0 -139 77q-28 45 -56 159q116 -165 164 -165q52 0 52 23q0 9 -14.5 29.5t-14.5 34.5q0 47 49 47q82 0 82 -93zM662 1166q0 -96 -19 -214l-61 17q20 105 20 171q0 101 -54 346q64 -92 86 -150q28 -73 28 -170zM555 974h-79
q4 184 27 548q52 -224 52 -548zM424 1561q-27 -115 -55 -159q-47 -76 -140 -76q-46 0 -84.5 33t-38.5 79q0 92 82 92q49 0 49 -46q0 -14 -14 -34.5t-14 -29.5q0 -23 51 -23q48 0 164 164zM472 1482q-43 -193 -43 -331q0 -79 21 -187l-61 -17q-20 120 -20 202q0 102 25 175
q19 55 78 158zM627 929l-29 -50q-61 14 -76 14q-50 0 -88 -14l-31 50q60 26 105 26q55 0 119 -26zM622 800l-1 -484q0 -159 -93 -394l12 -20h-21v-277h-12v277h-19l9 20q-93 226 -93 394l-1 484q0 7 3 54q55 20 100 20q41 0 113 -23q3 -45 3 -51zM905 1446q0 79 -73 79
q-32 0 -32 -34q0 -12 14.5 -32t14.5 -32q0 -36 -65 -36q-54 0 -135 114q45 -89 57 -105q39 -49 105 -49q42 0 78 27t36 68zM649 1166q0 149 -74 257q40 -182 40 -278q0 -72 -18 -167l36 -9q16 103 16 197zM538 988q0 244 -31 449l-16 -449h47zM396 1498q-81 -114 -136 -114
q-64 0 -64 36q0 11 14 31.5t14 32.5q0 34 -32 34q-73 0 -73 -79q0 -41 34.5 -70.5t75.5 -29.5q122 0 167 159zM445 1415q-62 -121 -62 -254q0 -96 16 -197l36 9q-22 132 -22 215q0 99 32 227zM591 318v459q-49 19 -76 19q-29 0 -79 -19v-453q49 8 73 8q25 0 82 -14zM572 213
v52q-14 7 -24 7t-24 -5q1 -15 6 -52q4 -33 4 -52q0 -54 -19 -141q57 126 57 191zM576 337q-41 9 -66 9q-26 0 -59 -4v425q38 14 64 14q24 0 61 -14v-430zM520 394v40h-17v-40h17z" />
  </g>

</svg>
