<?xml version="1.0" standalone="no"?>
<!DOCTYPE svg PUBLIC "-//W3C//DTD SVG 1.1//EN" "http://www.w3.org/Graphics/SVG/1.1/DTD/svg11.dtd" >
<svg viewBox="0 -442 2048 2048">
  <g transform="matrix(1 0 0 -1 0 1606)">
   <path fill="currentColor"
d="M1974 560q0 -214 -159 -349q-151 -129 -369 -129q-141 0 -307 70q-159 66 -295 182l-41 35q-155 132 -280 132q-77 0 -131 -45q-57 -48 -57 -124q0 -95 75 -159q71 -61 167 -61q125 0 213 111l54 -42q-135 -191 -354 -191q-141 0 -243 80q-111 86 -111 223q0 249 297 285
q-87 34 -125 78q-33 38 -70 132l-19 49q-69 177 -145 177v62h148q451 0 568 -309q84 144 222 144q110 0 176 -85q61 -78 61 -192q0 -59 -20 -124l-60 19q7 30 7 52q0 66 -41 114.5t-106 48.5q-71 0 -119.5 -59t-48.5 -131q0 -160 167 -275q150 -105 317 -105q188 0 310 125
t122 314q0 180 -112 287q-106 101 -289 114v62h19q235 0 402 -138q177 -147 177 -378zM755 557q7 432 -459 456q65 -51 116 -167l14 -32q50 -114 133 -188q61 -53 195 -127z" />
  </g>

</svg>
