<?xml version="1.0" standalone="no"?>
<!DOCTYPE svg PUBLIC "-//W3C//DTD SVG 1.1//EN" "http://www.w3.org/Graphics/SVG/1.1/DTD/svg11.dtd" >
<svg viewBox="0 -442 2048 2048">
  <g transform="matrix(1 0 0 -1 0 1606)">
   <path fill="currentColor"
d="M1974 -10h-147q-452 0 -569 309q-86 -144 -222 -144q-110 0 -176 85q-61 78 -61 191q0 60 20 124l60 -18q-6 -31 -6 -52q0 -66 40.5 -115t105.5 -49q72 0 121 61q47 57 47 130q0 159 -167 275q-151 104 -317 104q-188 0 -310 -124.5t-122 -313.5q0 -181 112 -287
q106 -101 290 -114v-62h-19q-237 0 -403 138q-177 146 -177 378q0 214 160 349q151 128 369 128q315 0 601 -251l41 -36q149 -131 280 -131q77 0 132.5 46.5t55.5 122.5q0 94 -75 158q-71 62 -166 62q-126 0 -214 -111l-54 41q135 192 354 192q141 0 243 -80
q112 -86 112 -223q0 -127 -87 -203q-78 -67 -211 -82q87 -34 125 -79q32 -36 70 -132l19 -48q70 -177 145 -177v-62zM1752 53q-65 50 -116 167l-14 32q-50 113 -133 188q-62 54 -195 127l-1 -55q-8 -436 459 -459z" />
  </g>

</svg>
