<?xml version="1.0" standalone="no"?>
<!DOCTYPE svg PUBLIC "-//W3C//DTD SVG 1.1//EN" "http://www.w3.org/Graphics/SVG/1.1/DTD/svg11.dtd" >
<svg viewBox="0 -442 2048 2048">
  <g transform="matrix(1 0 0 -1 0 1606)">
   <path fill="currentColor"
d="M2024 977q-63 0 -97 -40q-23 -28 -46 -100l-16 -50q-53 -166 -177 -218q107 -21 175 -86q74 -73 74 -177q0 -146 -112 -234q-103 -82 -252 -82q-240 0 -371 206l77 65q85 -91 175 -91q71 0 125.5 47t54.5 117q0 56 -41.5 97t-97.5 41q-101 0 -283 -143l-61 -48
q-297 -234 -567 -234q-230 0 -392 148q-167 153 -167 381q0 243 189 379q168 121 420 121h33v-99q-162 -11 -257 -112t-95 -264q0 -165 123 -278q120 -109 287 -109q148 0 277 88q143 98 143 240q0 60 -38.5 102.5t-98.5 42.5q-117 0 -117 -127q0 -39 22 -92l-90 -41
q-60 142 -60 238q0 114 72 199q76 88 189 88q139 0 228 -137q66 164 232 222q112 39 332 39h208v-99zM1718 985q-382 0 -414 -397q141 27 269 245l17 29q56 95 128 123z" />
  </g>

</svg>
