<?xml version="1.0" standalone="no"?>
<!DOCTYPE svg PUBLIC "-//W3C//DTD SVG 1.1//EN" "http://www.w3.org/Graphics/SVG/1.1/DTD/svg11.dtd" >
<svg viewBox="0 -442 2048 2048">
  <g transform="matrix(1 0 0 -1 0 1606)">
   <path fill="currentColor"
d="M2048 -442h-50q0 351 -215 614q-212 260 -556 339q4 -55 15 -101q626 -187 671 -852q-239 47 -399 143q-173 104 -303 293q-163 237 -180 537q-355 0 -615 -218q-253 -212 -338 -562l33 3q39 4 70 13q48 158 109 258q68 110 186 208q219 181 539 200q-77 -447 -428 -691
q-265 -184 -587 -184v50q301 0 560 176q299 203 399 597q-64 -4 -106 -17q-87 -307 -301 -478t-533 -186q85 462 432 700q260 178 529 178q0 352 -220 617q-216 260 -562 339q4 -44 16 -104q349 -103 525 -372q142 -217 142 -469q-454 81 -697 430q-184 264 -184 587h49
q0 -350 217 -617.5t560 -340.5q0 37 -6 72q-2 8 -6 31q-351 106 -525 370q-145 221 -145 470q374 -65 615 -324q245 -264 265 -640q299 0 555 174q307 209 401 608q-61 -5 -105 -17q-96 -345 -365 -521q-223 -146 -471 -146q38 200 110 338q78 150 220 279q263 238 679 264
v-49q-346 0 -612 -221q-260 -216 -340 -557l30 3q37 4 75 12q100 340 366 519q217 146 472 146q-37 -200 -108 -338q-77 -147 -218.5 -275.5t-295.5 -189.5q-139 -56 -342 -78q0 -347 222.5 -617t562.5 -337q-4 47 -15 102q-353 108 -525 369q-145 220 -145 477
q525 -95 756 -533q117 -222 117 -481zM1822 1375q-447 -144 -568 -568q428 126 568 568zM1828 -217q-131 446 -574 575q58 -211 211.5 -366t362.5 -209zM795 807q-130 439 -569 572q61 -212 209 -360.5t360 -211.5zM800 348q-208 -62 -357.5 -211t-207.5 -356
q208 62 355.5 210.5t209.5 356.5z" />
  </g>

</svg>
