<?xml version="1.0" standalone="no"?>
<!DOCTYPE svg PUBLIC "-//W3C//DTD SVG 1.1//EN" "http://www.w3.org/Graphics/SVG/1.1/DTD/svg11.dtd" >
<svg viewBox="0 -442 2048 2048">
  <g transform="matrix(1 0 0 -1 0 1606)">
   <path fill="currentColor"
d="M1983 612h-278v-20l-19 11q-233 -92 -394 -92l-485 -1q-5 0 -51 3q-22 71 -22 113q0 45 20 99q48 4 53 4l485 -1q166 0 394 -94l19 9v-18h278v-13zM729 534l-50 -29q-26 64 -26 119q0 45 26 105l50 -31q-14 -38 -14 -89q0 -14 14 -75zM660 743l-16 -61q-108 20 -187 20
q-138 0 -331 -42q99 58 158 77q76 25 174 25q83 0 202 -19zM282 903q0 -92 -76 -140q-46 -29 -159 -56q164 116 164 165q0 51 -23 51q-9 0 -29.5 -14.5t-34.5 -14.5q-47 0 -47 49q0 82 93 82q46 0 79 -38t33 -84zM634 576q-324 0 -548 53q64 7 548 26v-79zM656 488
q-118 -19 -214 -19q-100 0 -171 28q-54 21 -149 86q245 -53 346 -53q66 0 171 20zM275 336q0 -47 -33.5 -85t-79.5 -38q-92 0 -92 82q0 50 47 50q14 0 34.5 -14.5t29.5 -14.5q23 0 23 51q0 48 -165 165q114 -28 159 -56q77 -48 77 -140zM1586 617q-87 -19 -141 -19
q-15 0 -52 4q-23 2 -52 5q-5 -13 -5 -23q0 -11 7 -24h52q65 0 191 57zM1290 541q-14 57 -14 81q0 25 7 74h-452q-19 -51 -19 -79q0 -27 19 -76h459zM643 732q-100 17 -196 17q-133 0 -254 -63q127 33 227 33q83 0 214 -22zM269 903q0 41 -29.5 75t-70.5 34q-79 0 -79 -73
q0 -32 34 -32q12 0 32.5 14.5t31.5 14.5q36 0 36 -64q0 -55 -114 -136q159 45 159 167zM620 593v48q-45 0 -449 -17q205 -31 449 -31zM639 499l-11 36q-93 -19 -166 -19q-96 0 -277 40q107 -74 257 -74q94 0 197 17zM257 341q0 65 -49 104q-18 15 -105 58q114 -81 114 -136
q0 -64 -36 -64q-12 0 -32.5 14t-31.5 14q-34 0 -34 -32q0 -73 79 -73q41 0 69 38q26 35 26 77zM1271 556h-430q-14 36 -14 61q0 26 14 64h425q-5 -33 -5 -59q0 -25 10 -66zM1212 611v17h-38v-17h38z" />
  </g>

</svg>
