<?xml version="1.0" standalone="no"?>
<!DOCTYPE svg PUBLIC "-//W3C//DTD SVG 1.1//EN" "http://www.w3.org/Graphics/SVG/1.1/DTD/svg11.dtd" >
<svg viewBox="0 -442 2048 2048">
  <g transform="matrix(1 0 0 -1 0 1606)">
   <path fill="currentColor"
d="M1974 1014q-76 0 -145 -177l-19 -49q-37 -94 -70 -132q-38 -44 -125 -78q297 -36 297 -285q0 -137 -111 -223q-102 -80 -243 -80q-219 0 -354 191l54 42q88 -111 213 -111q96 0 167 61q75 64 75 159q0 76 -57 124q-54 45 -131 45q-125 0 -280 -132l-41 -35
q-136 -116 -295 -182q-166 -70 -307 -70q-218 0 -369 129q-159 135 -159 349q0 231 177 378q167 138 402 138h19v-62q-183 -13 -289 -114q-112 -107 -112 -287q0 -189 122 -314t310 -125q167 0 317 105q167 115 167 275q0 72 -47 130q-50 60 -121 60q-65 0 -106 -48.5
t-41 -114.5q0 -22 7 -52l-60 -19q-20 65 -20 124q0 114 61 192q66 85 176 85q138 0 222 -144q117 309 568 309h148v-62zM1752 1013q-466 -24 -459 -456l1 -58q134 74 195 127q83 74 133 188l14 32q51 116 116 167z" />
  </g>

</svg>
