<?xml version="1.0" standalone="no"?>
<!DOCTYPE svg PUBLIC "-//W3C//DTD SVG 1.1//EN" "http://www.w3.org/Graphics/SVG/1.1/DTD/svg11.dtd" >
<svg viewBox="0 -442 2048 2048">
  <g transform="matrix(1 0 0 -1 0 1606)">
   <path fill="currentColor"
d="M622 393q0 -6 -3 -51q-72 -23 -113 -23q-45 0 -100 20q-3 48 -3 54l1 485q0 166 93 393l-9 20h19v278h12v-278h21l-12 -20q93 -233 93 -393zM627 265q-64 -26 -119 -26q-45 0 -105 26l31 50q38 -15 88 -15q15 0 76 15zM662 28q0 -98 -28 -171q-22 -57 -86 -150
q54 245 54 347q0 66 -20 171l61 16q19 -117 19 -213zM918 -252q0 -92 -82 -92q-49 0 -49 46q0 14 14.5 35t14.5 30q0 22 -52 22q-48 0 -164 -164q28 114 56 159q48 77 139 77q47 0 85 -33t38 -80zM555 219q0 -323 -52 -548q-7 65 -27 548h79zM472 -288q-59 102 -78 158
q-25 74 -25 174q0 82 20 202l61 -16q-21 -108 -21 -187q0 -138 43 -331zM424 -368q-116 165 -164 165q-51 0 -51 -23q0 -9 14 -29.5t14 -34.5q0 -47 -49 -47q-82 0 -82 92q0 46 38 79.5t85 33.5q92 0 140 -77q28 -45 55 -159zM572 929v52q0 64 -57 191q19 -87 19 -142
q0 -20 -4 -52q-5 -39 -6 -52q14 -4 24 -4t24 7zM591 417v458q-57 -13 -82 -13q-24 0 -73 7v-452q50 -19 79 -19q27 0 76 19zM649 28q0 94 -16 197l-36 -10q18 -95 18 -167q0 -96 -40 -277q74 107 74 257zM905 -253q0 41 -37 70q-35 26 -77 26q-66 0 -105 -49
q-12 -16 -57 -106q81 114 135 114q65 0 65 -35q0 -12 -14.5 -32.5t-14.5 -32.5q0 -33 32 -33q73 0 73 78zM538 206h-47q0 -46 16 -449q31 204 31 449zM445 -222q-32 128 -32 228q0 82 22 214l-36 10q-16 -101 -16 -197q0 -133 62 -255zM396 -305q-45 160 -167 160
q-42 0 -76 -30t-34 -71q0 -78 73 -78q32 0 32 34q0 11 -14 31.5t-14 32.5q0 36 64 36q55 0 136 -115zM576 427q-37 -14 -61 -14q-26 0 -64 14v425q33 -5 59 -5q25 0 66 10v-430zM520 760v38h-16v-38h16z" />
  </g>

</svg>
