<?xml version="1.0" standalone="no"?>
<!DOCTYPE svg PUBLIC "-//W3C//DTD SVG 1.1//EN" "http://www.w3.org/Graphics/SVG/1.1/DTD/svg11.dtd" >
<svg viewBox="0 -442 2048 2048">
  <g transform="matrix(1 0 0 -1 0 1606)">
   <path fill="currentColor"
d="M2048 -442h-2048v2048h2048v-2048zM1999 1372v185q-318 -16 -572 -200q-261 -190 -354 -488q122 5 221 45q244 431 705 458zM1999 1324q-100 -7 -222 -48q-219 -423 -704 -456v-188q321 21 573 202q262 190 353 490zM1999 -392q-23 328 -200 571q-182 251 -488 354
q6 -111 49 -225q199 -112 319 -291q129 -192 129 -409h191zM975 632q-26 332 -202 571q-179 242 -489 354q6 -112 44 -222q422 -215 457 -703h190zM738 632q-13 127 -50 225q-417 206 -454 700h-185q28 -331 202 -571q181 -251 487 -354zM1763 -405q-6 94 -37 196
q-3 10 -11 36q-412 228 -444 706h-198q0 -251 156 -507q177 -291 534 -431zM975 348v185q-327 -20 -572 -203.5t-354 -491.5q86 0 223 44q108 209 288 330q185 125 415 136zM975 295q-96 -7 -222 -47q-92 -194 -291 -323q-201 -132 -413 -132v-185q326 21 570 200
q248 182 356 487z" />
  </g>

</svg>
