<?xml version="1.0" standalone="no"?>
<!DOCTYPE svg PUBLIC "-//W3C//DTD SVG 1.1//EN" "http://www.w3.org/Graphics/SVG/1.1/DTD/svg11.dtd" >
<svg viewBox="0 -442 2199 2048">
  <g transform="matrix(1 0 0 -1 0 1606)">
   <path fill="currentColor"
d="M2199 1024q0 -131 -112 -233.5t-244 -102.5q-77 0 -177 23l-168 -844l-214 -87l122 614q-158 -187 -347 -300q-219 -130 -435 -130q-192 0 -316 108q-129 113 -129 303q0 265 202 491q208 233 470 233q216 0 216 -234q124 132 251 132q81 0 261 -67l94 -35
q209 -78 298 -78q117 0 117 122q0 62 -62 101l134 124q39 -69 39 -140zM1482 778l-28 14q-114 57 -203 57q-85 0 -213 -98q-155 -309 -656 -337q-1 -20 -1 -29q0 -141 120 -222q105 -70 253 -70q252 0 460.5 184.5t258.5 452.5zM873 853q0 160 -131 160q-159 0 -260 -199
q-77 -151 -95 -338q197 15 326 96q160 102 160 281z" />
  </g>

</svg>
