<?xml version="1.0" standalone="no"?>
<!DOCTYPE svg PUBLIC "-//W3C//DTD SVG 1.1//EN" "http://www.w3.org/Graphics/SVG/1.1/DTD/svg11.dtd" >
<svg viewBox="0 -442 2048 2048">
  <g transform="matrix(1 0 0 -1 0 1606)">
   <path fill="currentColor"
d="M1530 746h-345v-746h-198v234q-155 -271 -447 -271q-189 0 -316 115q-131 118 -131 305q0 297 297 445q-254 124 -254 331q0 183 150 278q127 80 321 80q163 0 319 -55v-171q-166 79 -333 79q-109 0 -180 -53q-80 -58 -80 -163q0 -167 195 -226q112 -34 330 -34h672v-148
zM987 647v99h-157q-190 0 -201 -1q-122 -9 -188 -57q-138 -101 -138 -289q0 -121 76 -201q77 -83 197 -83q201 0 314 172q97 148 97 360z" />
  </g>

</svg>
