<?xml version="1.0" standalone="no"?>
<!DOCTYPE svg PUBLIC "-//W3C//DTD SVG 1.1//EN" "http://www.w3.org/Graphics/SVG/1.1/DTD/svg11.dtd" >
<svg viewBox="0 -442 2048 2048">
  <g transform="matrix(1 0 0 -1 0 1606)">
   <path fill="currentColor"
d="M1548 728h-271v-728h-296v185q-198 -222 -443 -222q-194 0 -322 109q-136 116 -136 307q0 306 370 456q-131 29 -210 109q-86 87 -86 215q0 187 160 281q131 77 331 77q181 0 354 -50v-198q-158 60 -311 60q-94 0 -159 -44q-76 -51 -76 -140q0 -137 167 -200
q85 -32 305 -32h623v-185zM981 655v73h-117q-226 0 -325 -68q-152 -105 -152 -259q0 -94 65.5 -165t158.5 -71q175 0 280 164q90 141 90 326z" />
  </g>

</svg>
