<?xml version="1.0" standalone="no"?>
<!DOCTYPE svg PUBLIC "-//W3C//DTD SVG 1.1//EN" "http://www.w3.org/Graphics/SVG/1.1/DTD/svg11.dtd" >
<svg viewBox="0 -442 2048 2048">
  <g transform="matrix(1 0 0 -1 0 1606)">
   <path fill="currentColor"
d="M1672 740l-22 -1q-72 -3 -109 -40q-25 -25 -61 -104q-68 -150 -227 -286q90 -119 140 -151q39 -26 144 -33l30 -2v-123h-507l-76 89q-179 -126 -387 -126q-220 0 -377 113q-177 127 -177 338q0 297 405 454q-133 175 -133 316q0 162 142 254q122 79 293 79q170 0 297 -69
q156 -85 156 -241q0 -235 -356 -339q169 -265 316 -456q109 133 109 263q0 61 -72 61q-1 0 -49 3l-16 1v124h537v-124zM908 1236q0 155 -122 155q-125 0 -125 -133q0 -85 117 -277q130 104 130 255zM909 190q-214 254 -392 552q-113 -84 -113 -213q0 -145 102 -258
q106 -117 249 -117q70 0 154 36z" />
  </g>

</svg>
