<?xml version="1.0" standalone="no"?>
<!DOCTYPE svg PUBLIC "-//W3C//DTD SVG 1.1//EN" "http://www.w3.org/Graphics/SVG/1.1/DTD/svg11.dtd" >
<svg viewBox="0 -442 2275 2048">
  <g transform="matrix(1 0 0 -1 0 1606)">
   <path fill="currentColor"
d="M2275 1019q0 -169 -135 -276q-125 -100 -298 -100q-36 0 -91 8l-156 -784l-313 -87l125 630q-153 -190 -374 -313q-238 -132 -465 -132q-176 0 -289 95q-119 102 -119 275q0 296 218 535q224 246 517 246q104 0 174 -51q75 -54 91 -153q113 103 247 103q88 0 264 -69
l112 -44q168 -66 259 -66q99 0 99 94q0 95 -112 105l182 169q64 -78 64 -185zM1473 740l-35 19q-112 61 -217 61q-31 0 -73 -14q-74 -197 -276 -297q-173 -85 -406 -85q-3 -33 -3 -51q0 -112 66.5 -179.5t178.5 -67.5q231 0 475 189q240 187 285 401zM881 829
q0 169 -118 169q-126 0 -209 -188q-59 -133 -77 -294q158 0 272 75q132 87 132 238z" />
  </g>

</svg>
