<?xml version="1.0" standalone="no"?>
<!DOCTYPE svg PUBLIC "-//W3C//DTD SVG 1.1//EN" "http://www.w3.org/Graphics/SVG/1.1/DTD/svg11.dtd" >
<svg viewBox="0 -442 2554 2048">
  <g transform="matrix(1 0 0 -1 0 1606)">
   <path fill="currentColor"
d="M2554 272q0 -272 -227 -445q-208 -158 -488 -158q-226 0 -445 114q-202 105 -364 286q-219 -116 -463 -116q-182 0 -303 104q-128 110 -128 289q0 187 152 325q107 97 320 190q-48 123 -48 229q0 166 132 291.5t298 125.5q111 0 184 -66t73 -176q0 -274 -435 -415
q30 -88 113 -265q116 203 266 277q134 66 383 66h317q244 0 290 8q183 32 183 171q0 100 -105 143l144 141q95 -78 95 -196q0 -200 -246 -319q-198 -96 -420 -96h-76q-156 -365 -559 -614q160 -179 355 -282q215 -115 435 -115q182 0 296 102q118 107 118 286
q0 162 -159 229l161 151q151 -71 151 -265zM1082 1266q0 172 -146 172q-93 0 -151 -79q-51 -71 -51 -168q0 -106 56 -284q292 124 292 359zM1605 780h-117q-374 0 -533 -254q94 -173 199 -312q330 182 451 566zM977 133q-204 253 -352 670q-280 -130 -280 -392
q0 -151 97 -247.5t248 -96.5q124 0 287 66z" />
  </g>

</svg>
