<?xml version="1.0" standalone="no"?>
<!DOCTYPE svg PUBLIC "-//W3C//DTD SVG 1.1//EN" "http://www.w3.org/Graphics/SVG/1.1/DTD/svg11.dtd" >
<svg viewBox="0 -442 2048 2048">
  <g transform="matrix(1 0 0 -1 0 1606)">
   <path fill="currentColor"
d="M2023 -315h-117v89h117v-89zM2024 1q0 -22 -48 -60q-3 -2 -47 -22q22 -3 45 -3q24 0 49 3v-101h-1940v98h323q42 94 177 148q-89 21 -141 39q-76 26 -202 90q-158 81 -158 115q0 24 155 142q277 211 638 338q126 35 370 122q51 34 142 91q124 73 260 115q217 66 376 64
v-235q-62 -10 -186 -27q-453 -50 -769 -145q-367 -111 -711 -326q-74 -46 -106 -90q48 29 144 84q598 326 1343 398q104 10 123 10h162v-58h-131q-10 0 -157 -11q-840 -63 -1519 -472q3 -3 7 -2h7q105 11 315 30q217 17 585 36l228 12q105 5 117 5h548v-55l-801 -16
q-123 -1 -401 -8q-60 -3 -198 -11l-395 -23q122 -91 380 -152q31 -6 91 -20q13 -3 37 -19v-11q1 -19 -6 -28t-66 -30.5t-86 -49.5l672 -2q13 0 90.5 55t110.5 55h573v-73zM1716 -315h-113v89h113v-89zM921 478q0 -26 -17 -43.5t-107 -23.5q-185 -13 -281 -25q87 39 173 79
q117 50 175 50q57 0 57 -37zM1417 -315h-121v89h121v-89zM1110 -315h-113v89h113v-89zM806 -315h-117v89h117v-89zM503 -315h-117v89h117v-89zM200 -315h-117v89h117v-89zM1992 1100q0 15 -5 21q-52 -4 -140 -20v-78h14q-8 0 33 7q98 16 98 70zM1771 1008v74h-16
q2 0 -22 -6.5t-74 -20.5q-146 -46 -269 -125zM1839 -82q-59 24 -89 109q-33 -98 -96 -109h185zM1543 -82q-49 18 -79 108q-18 -3 -77.5 -56t-83.5 -52h240zM894 470q0 29 -38 29q-53 0 -53 -39q0 -28 37 -28q54 0 54 38z" />
  </g>

</svg>
