<?xml version="1.0" standalone="no"?>
<!DOCTYPE svg PUBLIC "-//W3C//DTD SVG 1.1//EN" "http://www.w3.org/Graphics/SVG/1.1/DTD/svg11.dtd" >
<svg viewBox="0 -442 2048 2048">
  <g transform="matrix(1 0 0 -1 0 1606)">
   <path fill="currentColor"
d="M1710 149q0 -64 -44.5 -106.5t-109.5 -42.5t-107 42t-42 107q0 63 44.5 108.5t106.5 45.5t107 -46t45 -108zM2018 149q0 -13 -24 -32t-37 -19h-202q0 8 2 26t2 28q0 79 -60 137.5t-139 58.5q-77 0 -139.5 -58t-62.5 -135q0 -25 8 -52h-757q4 15 4 49q0 78 -59 137
t-137 59q-84 0 -141 -59q-53 -56 -61 -142h-14q-27 0 -70 18q-49 21 -49 43v338q0 9 114 291q18 47 36 93q29 60 67 60h1649q17 0 43.5 -17.5t26.5 -33.5v-790zM564 152q0 -65 -42.5 -108.5t-107.5 -43.5q-62 0 -108 43.5t-46 105.5q0 61 45.5 107.5t106.5 46.5
q65 0 108.5 -43t43.5 -108zM1879 585v266h-244v-266h244zM1544 585v266h-235v-266h235zM1223 585v266h-244v-266h244zM884 585v266h-244v-266h244zM550 585v266h-204l-103 -266h307z" />
  </g>

</svg>
