<?xml version="1.0" standalone="no"?>
<!DOCTYPE svg PUBLIC "-//W3C//DTD SVG 1.1//EN" "http://www.w3.org/Graphics/SVG/1.1/DTD/svg11.dtd" >
<svg viewBox="0 -442 2048 2048">
  <g transform="matrix(1 0 0 -1 0 1606)">
   <path fill="currentColor"
d="M1666 187h-153q-41 -187 -200 -187q-79 0 -137 55t-58 134q0 23 5 43h-823q-8 -8 -23 -25v-183h-180l-15 24l129 237q0 5 -8 9q-107 58 -107 162q0 28 6 53q8 34 45.5 69.5t71.5 41.5q0 46 36 72h234l3 7l-76 282q11 30 54 126h174l54 -126l-77 -289h159l14 96
q17 52 71 52q57 0 73 -49q10 -29 7 -96h220v295q0 -4 20 31h481v-104h-209v-223h209v-507zM1055 98q0 -39 -27 -68.5t-66 -29.5q-38 0 -65.5 30t-27.5 68t27.5 65.5t65.5 27.5q39 0 66 -27t27 -66zM793 98q0 -39 -27.5 -68.5t-65.5 -29.5q-37 0 -62.5 30t-25.5 68t27.5 65.5
t65.5 27.5t63 -27t25 -66zM531 98q0 -38 -27 -68t-64 -30q-40 0 -65.5 29t-25.5 69q0 37 26 65t63 28q93 0 93 -93z" />
  </g>

</svg>
