<?xml version="1.0" standalone="no"?>
<!DOCTYPE svg PUBLIC "-//W3C//DTD SVG 1.1//EN" "http://www.w3.org/Graphics/SVG/1.1/DTD/svg11.dtd" >
<svg viewBox="0 -442 2048 2048">
  <g transform="matrix(1 0 0 -1 0 1606)">
   <path fill="currentColor"
d="M1559 829q0 -88 -58 -142.5t-146 -54.5q-137 0 -188 154q-10 1 -19 1q-104 0 -185 -60q-11 -8 -48 -51t-37 -50v-287h203q32 0 56 -24.5t24 -56.5q0 -19 -19 -48t-37 -29h-838q-19 0 -36 30q-15 26 -15 47q0 32 22 56.5t53 24.5h180v103q0 14 -14 14q10 0 -27 -10
q-22 -6 -68 -6q-106 0 -188.5 77t-82.5 182q0 132 102 229.5t234 97.5q66 0 147 -31q90 -34 125 -80v289l-488 37q-7 1 -16 1q-14 0 -42 -2.5t-42 -2.5q-15 0 -29 15v27l21 13q15 2 45 2q145 0 315 -5l105 -9l188 -16q135 -12 614 -58q16 -11 16 -25q0 -29 -31 -26l-596 49
v-285q8 -4 21 -4q41 0 92 44q40 36 80 71h141v-47q-93 -5 -162 -123l3 -7h219l11 8q31 169 191 169q90 0 147 -55.5t57 -145.5zM1516 827q0 68 -44 114t-112 46q-59 0 -102 -37.5t-53 -96.5h182v-44q-53 -9 -178 -19q34 -115 151 -115q65 0 110.5 43.5t45.5 108.5zM647 623
v252q-30 40 -97 65q-60 23 -116 23q-94 0 -182 -73q-93 -77 -93 -169q0 -46 24 -68q33 -30 70 -30h394zM815 340v119h-282v-119h282z" />
  </g>

</svg>
