<?xml version="1.0" standalone="no"?>
<!DOCTYPE svg PUBLIC "-//W3C//DTD SVG 1.1//EN" "http://www.w3.org/Graphics/SVG/1.1/DTD/svg11.dtd" >
<svg viewBox="0 -442 2048 2048">
  <g transform="matrix(1 0 0 -1 0 1606)">
   <path fill="currentColor"
d="M1940 469l-5 -6l-134 112h52zM1865 340q-1 -10 -5 -9l-236 210q8 0 22.5 2.5t22.5 2.5q14 0 22 -8q13 -13 93.5 -104t80.5 -94zM1936 -340q-120 72 -364 210q-84 45 -181 75q-26 5 -79 17q-89 25 -128 46q-66 36 -85 98q-4 14 -9 14q-11 0 -35.5 -16.5t-28.5 -27.5
q-1 -3 -14 -75q-21 -112 -32 -189q-4 -44 -21 -128q-3 -10 -20 -24q-89 88 -269 269q-46 44 -134 135q-17 18 -40.5 88t-21.5 94l30 283q1 9 -116 128q-68 69 -137 138q-26 25 -70 80q-99 155 -99 314q0 150 42 286q145 36 274 36q118 0 229 -52q31 -11 87 -40
q37 -27 116 -102q61 -60 122 -121q107 -105 117 -104l281 27q102 10 183 -59q85 -72 400 -407q-8 -7 -21 -16l-82 -14l-159 -27q-62 -3 -162 -29q-17 -10 -36 -64q34 -15 70.5 -57.5t48.5 -78.5q7 -26 22 -79q42 -130 147 -319q87 -155 175 -309zM1261 -272
q-106 89 -210 181q0 8 1 23.5t1 23.5q0 10 -1 17zM1129 -343q-70 49 -107 79q-1 8 -1 17q0 5 1 20v19zM1759 717q-75 79 -230 233q-23 24 -72 65q-18 13 -59 13h-8l-245 -24l346 -345zM1228 442l-397 367h-36q-5 -5 -5 -18q0 -16 6.5 -26.5t136.5 -157.5q78 -88 210 -242
q28 26 85 77zM764 1252q-32 44 -163 129q-25 16 -101 40q-80 24 -107 22l-224 -19l-19 -220q-1 -7 21 -91q39 -151 173 -281q18 125 156.5 263.5t263.5 156.5zM1785 -193q-67 115 -135 231q-68 130 -91 250q-2 10 -36 76q-61 118 -158 118q-32 0 -95 -47q-43 -32 -93 -97
q-62 -81 -62 -109q0 -52 46 -106q43 -51 94 -70q34 -8 102 -29q46 -19 428 -217zM1401 615l-616 613q-28 -13 -84 -37q-143 -51 -244 -194q-56 -80 -93 -190l617 -616q5 45 100 164q-109 124 -312 382q-29 41 -29 100q0 6 1 12q11 6 29 6q60 0 134 -59q56 -51 113 -102
q72 -61 216 -182q40 31 79 61q49 37 89 42zM937 101l-349 350l-16 -167l-8 -83q0 -44 75 -124q54 -55 109 -111q27 -31 132 -136z" />
  </g>

</svg>
