<?xml version="1.0" standalone="no"?>
<!DOCTYPE svg PUBLIC "-//W3C//DTD SVG 1.1//EN" "http://www.w3.org/Graphics/SVG/1.1/DTD/svg11.dtd" >
<svg viewBox="0 -442 2048 2048">
  <g transform="matrix(1 0 0 -1 0 1606)">
   <path fill="currentColor"
d="M1610 -442h-178l-192 210h-800l-174 -210h-184l233 223q-8 7 -38 17q-23 7 -30 29q-14 42 -19 122q-5 88 -14 123q-14 18 -36 57q-20 55 -20 90v801q0 30 20 71q38 78 169 118q102 30 214 29q14 38 29 76q20 42 61 42h158v171h-314v79h702v-79h-314v-171h162
q7 0 31 -12.5t27 -18.5q5 -29 31 -87q83 -1 172 -17q151 -27 206 -131q6 -10 15 -46q11 -41 11 -30v-785q0 -43 -21 -100q-14 -15 -36 -53q-13 -41 -18 -122q-5 -86 -15 -123q-4 -14 -31 -28q-39 -21 -40 -22zM1062 1238q-7 33 -19 64h-390q-7 -21 -23 -64h432zM1016 954
v233h-336v-233h336zM1415 377q0 53 -59 53q-60 0 -60 -55q0 -52 60 -52q59 0 59 54zM1273 375q0 55 -59 55t-59 -53q0 -54 61 -54q57 0 57 52zM1461 171v125h-312q-8 0 -37 29v95q11 13 34 37h315v557q0 16 -17 52.5t-29 46.5q-46 38 -170 60q-63 11 -58 11h-130v-967h-424
v967h-120q-78 0 -181 -40q-74 -29 -91 -104q-6 -26 -6 -20v-563h311q12 -11 34 -33v-99q-29 -29 -34 -29h-311v-129q20 -16 39 -33q19 -13 53 -13h310q-1 14 -1 17q0 21 15 21h394q11 -5 11 -34v-4h314q33 0 53 13q6 4 38 37zM1016 248v682h-340v-682h340zM1100 -19v108h-44
q1 4 1 -34q0 -20 -12 -27h-141q-15 11 -15 51q0 18 -8 25q-13 1 -33 1q-48 0 -48 -19q0 -4 1.5 -12t1.5 -12q0 -18 -15 -34h-137q-14 0 -14 61h-42v-108h505zM541 378q0 52 -63 52q-59 0 -59 -53q0 -54 59 -54q63 0 63 55zM1411 -53v16h-206v-50q0 -27 -15 -38h-685
q-20 13 -20 37q0 6 1.5 19t1.5 19q0 8 -1 13h-206q3 -34 20 -98q13 -28 43 -28h1004q7 0 25.5 12t21.5 19q16 30 16 79zM399 378q0 52 -61 52q-58 0 -58 -55q0 -52 58 -52q61 0 61 55zM1392 1023l-5 -53q-4 -2 -11 -8h-254q-13 8 -13 38q0 38 25 38h246q12 -12 12 -15z
M1423 592q-11 -9 -32 -27h-281q-10 8 -28 24v268q28 28 41 28h255q9 0 45 -36v-257zM955 1077q-27 -12 -52 -12h-34q-108 0 -132 12v75q35 18 56 17l29 -1q37 2 109 -1q10 -1 24 -15v-75zM986 592q-11 -9 -32 -28h-211q3 0 -33 24v261q34 36 44 36h187q9 0 45 -36v-257z
M583 989q0 -21 -13 -27h-254q-12 8 -12 28v40q9 8 21 8h246q12 -15 12 -38v-11zM614 588q-3 -2 -15 -13t-18 -11h-275q5 0 -37 28v252q0 9 15 23t25 16q19 4 63 4q12 0 35.5 -1t35.5 -1q124 0 135 -2q13 -10 36 -26v-269zM936 1115q0 30 -36 30q-37 0 -37 -30q0 -31 37 -31
q36 0 36 31zM829 1117q0 28 -35 28q-34 0 -34 -28q0 -33 34 -33q35 0 35 33z" />
  </g>

</svg>
