<?xml version="1.0" standalone="no"?>
<!DOCTYPE svg PUBLIC "-//W3C//DTD SVG 1.1//EN" "http://www.w3.org/Graphics/SVG/1.1/DTD/svg11.dtd" >
<svg viewBox="0 -442 2048 2048">
  <g transform="matrix(1 0 0 -1 0 1606)">
   <path fill="currentColor"
d="M1793 341h-1522v869q0 17 13 60.5t22 56.5q37 54 224 92q69 14 180 31q59 9 68 9h508q5 0 70 -10q60 -9 178 -30q186 -37 222.5 -95.5t36.5 -116.5v-866zM1793 241h-1522v72h1522v-72zM1793 -78q0 -5 -25 -35q-17 -4 -51 -13q-1 5 -1 14q0 6 1 18t1 18q0 25 -20 43h-174
l201 -347h-121l-116 347h-911l-117 -347h-125l205 347h-174q-20 -15 -20 -43q0 -6 1 -18t1 -18q0 -9 -1 -14q-18 4 -52 13q-24 27 -24 44v278h1522v-287zM1188 -303h-30v80h-252v-80h-30v111h312v-111zM1736 423v768q0 34 -21 67q-26 40 -131 57q-152 24 -224 24h-98v-938
q0 -11 16 -25h401q12 0 34.5 17.5t22.5 29.5zM1212 376v963h-360v-963h360zM1709 41v129q-32 24 -45 24h-381q-12 0 -37 -24v-141q31 -16 26 -16h405q11 9 32 28zM802 392v947h-90q-121 0 -301 -40q-14 -3 -39 -19q-44 -28 -44 -86v-770q0 -12 20.5 -30t32.5 -18h405z
M818 29v141q-24 24 -37 24h-381q-8 0 -44 -24v-133q36 -24 33 -24h400q-2 0 29 16zM1674 1214q0 -48 -52 -48t-52 48q0 19 17.5 35.5t36.5 16.5q18 0 34 -17t16 -35zM1535 1212q0 -46 -48 -46q-52 0 -52 48q0 19 16.5 35.5t35.5 16.5q48 0 48 -54zM1646 1037h-284v90h284
v-90zM1689 584h-361v377h361v-377zM625 1214q0 -48 -48 -48q-52 0 -52 48q0 18 16 35t34 17q50 0 50 -52zM1659 90q0 -35 -17 -35h-132q-17 7 -17 39q0 48 12 62h141q13 -14 13 -55v-11zM490 1212q0 -46 -50 -46t-50 46q0 19 15.5 36.5t34.5 17.5q50 0 50 -54zM702 1037
h-284v90h284v-90zM1412 107q0 -59 -62 -59q-65 0 -65 61q0 24 19.5 45t43.5 21q64 0 64 -68zM736 584h-361v377h361v-377zM779 109q0 -61 -65 -61q-62 0 -62 59q0 27 18 47.5t44 20.5t45.5 -20t19.5 -46zM571 71q-9 -8 -16 -15h-133q-17 7 -17 39q0 46 13 61h128q8 0 25 -16
v-69z" />
  </g>

</svg>
