<?xml version="1.0" standalone="no"?>
<!DOCTYPE svg PUBLIC "-//W3C//DTD SVG 1.1//EN" "http://www.w3.org/Graphics/SVG/1.1/DTD/svg11.dtd" >
<svg viewBox="0 -442 2142 2048">
  <g transform="matrix(1 0 0 -1 0 1606)">
   <path fill="currentColor"
d="M2142 180h-606v-527h-167l-216 239h-791l-198 -239h-82v105l156 147q-1 1 -38 18q-23 10 -30 27q-17 41 -19 121q-3 88 -13 122q-14 18 -36 56q-20 49 -20 93v848q0 9 6 16q15 110 155 162q103 38 238 37q9 31 31 90q4 8 26 17.5t32 9.5h389q36 0 54 -25q11 -33 35 -92
q146 -10 207 -27q113 -31 168 -114q24 -36 24 -77v-843q0 -43 -20 -95q-14 -14 -36 -53q-13 -41 -17 -121q-4 -84 -14 -121q-4 -14 -31 -28q-39 -19 -41 -21l166 -158v512h346v1031h-325l-126 114v114h793v-82h-722l68 -66h654v-79h-72v-1030q17 -2 36 -2q20 0 36 2v-81z
M1989 1030v260h-105v-260h105zM1989 679v293h-105v-293h105zM977 1405q-6 28 -20 64h-385q-7 -21 -23 -64h428zM1989 260v363h-105v-363h105zM931 1125v230h-333v-230h333zM1326 514q0 53 -59 53t-59 -53q0 -54 59 -54t59 54zM1186 514q0 53 -57 53q-61 0 -61 -52
q0 -55 63 -55q55 0 55 54zM1371 291v143h-308q-8 0 -37 29v93q12 12 33 38h312v589q0 23 -13 50q-26 54 -85 78q-24 10 -115 30q-46 10 -58 10h-128v-1015h-416v1015h-123q-78 0 -179 -39q-73 -28 -90 -102q-6 -26 -6 -20v-596h308q30 -27 36 -47q2 -9 2 -60
q0 -15 -11.5 -34t-26.5 -19h-308v-143q37 -50 93 -50h305q-1 12 -1 15q0 23 15 23h389q10 -5 11 -34v-4h311q39 0 90 50zM933 366v735h-338v-735h338zM1014 103v107h-44q-1 -4 -1 -9t1.5 -15.5t1.5 -15.5q0 -16 -12 -21h-140q-14 10 -14 52q0 16 -8 23q-13 1 -33 1
q-48 0 -48 -19q0 -4 1.5 -11.5t1.5 -11.5q0 -18 -15 -34h-135q-14 0 -14 61h-41v-107h499zM461 514q0 53 -60 53q-61 0 -61 -53q0 -54 59 -54q62 0 62 54zM1322 85h-204q0 2 0 -49q0 -27 -15 -38h-677q-16 13 -15 41v46h-207q13 -51 20 -98q50 -27 42 -27h993q-3 0 46 27
l17 80v18zM321 514q0 53 -61 53q-57 0 -57 -55q0 -52 59 -52t59 54zM1303 1187q0 7 -5 -46q-4 -3 -11 -9h-252q-9 7 -9 51q0 24 22 24h243q12 -12 12 -20zM871 1246q-39 -12 -54 -12h-29q-108 0 -133 12v74q33 17 56 17l29 -1q115 0 131 -15v-75zM1333 723q-13 -6 -31 -24
h-273q3 0 -33 24v305q27 28 40 28h253q9 0 44 -35v-298zM901 727q-10 -9 -31 -28h-209q3 0 -33 24v298q33 35 44 35h185q9 0 44 -35v-294zM503 1172v-11q0 -24 -13 -29h-252q-12 24 -12 45q0 14 13 30h251q13 -7 13 -35zM533 723q-24 -24 -32 -24h-272q2 0 -33 24v298
q10 15 35 33q18 4 61 4h68q45 -1 68 -1q54 0 70 -3q13 -10 35 -26v-305zM852 1285q0 29 -34 29q-38 0 -38 -31q0 -30 36 -30t36 32zM746 1269v29q-17 16 -34 16q-35 0 -35 -31q0 -30 35 -30q16 0 34 16z" />
  </g>

</svg>
