<?xml version="1.0" standalone="no"?>
<!DOCTYPE svg PUBLIC "-//W3C//DTD SVG 1.1//EN" "http://www.w3.org/Graphics/SVG/1.1/DTD/svg11.dtd" >
<svg viewBox="0 -442 2048 2048">
  <g transform="matrix(1 0 0 -1 0 1606)">
   <path fill="currentColor"
d="M1893 1092q0 -64 -48 -86q-43 -20 -123 -20h-16l35 168h54q98 0 98 -62zM1697 1157l-47 -179h-235q87 125 138 190q11 3 23 2zM2014 582h-404q-9 0 -41 19.5t-40 28.5t-8 42q0 36 49 101q43 56 81 85q4 3 77 37.5t81 37.5q90 29 130 29h75v-380zM1497 1173l-146 -191
h-154l-96 17l174 206q42 -14 110 -21q106 -10 112 -11zM2014 -14h-1842q6 49 36 140q11 19 37 38q22 15 44 31q-54 24 -147 93q-16 18 -48 126q-12 40 -12 101q0 51 24 112q65 163 333 302q36 13 106 42q110 50 295 92q5 1 12 1q8 0 23 -1.5t23 -1.5q17 0 31 8q4 2 130 134
q65 68 106 106q48 45 98 59q72 21 155 21h596v-78h-636q-18 0 -63 -9q-40 -8 -61 -27q-36 -33 -122 -148q-73 -96 -134 -136q-88 -9 -204 -23l-75 -24q-236 -67 -301 -130v-570q110 -20 133 -20h1463v-238zM2014 -316h-116v89h116v-89zM1709 -316h-113v89h113v-89z
M1410 -316h-120v89h120v-89zM674 484q0 -43 -31 -69t-75 -26q-43 0 -74.5 26t-31.5 69q0 42 32 70t74 28q43 0 74.5 -28t31.5 -70zM2014 -183h-1932v97h1932v-97zM1105 -316h-113v89h113v-89zM803 -316h-117v89h117v-89zM501 -316h-117v89h117v-89zM199 -316h-117v89h117
v-89zM375 256v525q-29 -12 -73 -63q-22 -18 -58 -59q-57 -90 -57 -187q0 -51 33 -97q30 -42 72 -68t83 -51z" />
  </g>

</svg>
