<?xml version="1.0" standalone="no"?>
<!DOCTYPE svg PUBLIC "-//W3C//DTD SVG 1.1//EN" "http://www.w3.org/Graphics/SVG/1.1/DTD/svg11.dtd" >
<svg viewBox="0 -442 2048 2048">
  <g transform="matrix(1 0 0 -1 0 1606)">
   <path fill="currentColor"
d="M1465 222h-1271v614q0 23 29.5 46.5t53.5 23.5h508l-269 227l307 257l311 -257l-264 -227h517q18 0 48 -23t30 -41v-620zM1322 89q0 -65 -62 -65q-68 0 -68 63q0 26 21 48.5t47 22.5q62 0 62 -69zM1134 87q0 -63 -67 -63t-67 65q0 25 21 47t46 22q28 0 47.5 -21.5
t19.5 -49.5zM1546 -128h-1464v84h1464v-84zM700 87q0 -27 -21.5 -45t-48.5 -18t-48 18t-21 45t21 49t48 22q26 0 48 -22.5t22 -48.5zM511 87q0 -63 -69 -63t-69 65q0 26 21.5 47.5t47.5 21.5q28 0 48.5 -21.5t20.5 -49.5zM1380 596v220h-223v-220h223zM991 1133l-164 141
l-172 -141l172 -141zM1066 596v220h-196v-220h196zM784 596v220h-202v-220h202zM493 594v222h-214v-222h214z" />
  </g>

</svg>
