<?xml version="1.0" standalone="no"?>
<!DOCTYPE svg PUBLIC "-//W3C//DTD SVG 1.1//EN" "http://www.w3.org/Graphics/SVG/1.1/DTD/svg11.dtd" >
<svg viewBox="0 -442 2048 2048">
  <g transform="matrix(1 0 0 -1 0 1606)">
   <path fill="currentColor"
d="M1797 1191h-241l-958 -264h1107q14 0 39 -19.5t25 -32.5v-718q0 -9 -20.5 -29t-29.5 -20h-226q0 8 2 26t2 28q0 81 -62.5 142.5t-143.5 61.5q-84 0 -146.5 -59.5t-62.5 -143.5q0 -27 7 -54h-454l5 7q2 15 2 36q0 87 -59.5 150.5t-146.5 63.5t-146 -63q-55 -59 -63 -148
h-15q-39 0 -86 20q-42 18 -42 106q0 15 1.5 43.5t1.5 43.5t-2.5 45.5t-2.5 45.5q0 36 6 60q3 13 30 69q60 127 108 236q45 104 84 104h128v55l755 207h-1077v94h1681v-93zM1451 157q0 -67 -46.5 -112t-113.5 -45t-113 45t-46 112q0 65 47 113.5t112 48.5q64 0 112 -49
t48 -113zM593 160q0 -68 -44.5 -114t-112.5 -46q-65 0 -113.5 46t-48.5 111q0 62 49.5 112t110.5 50q68 0 113.5 -45.5t45.5 -113.5zM1609 556v264h-249v-264h249zM1262 556v264h-258v-264h258zM910 556v264h-255v-264h255zM560 554v266h-214l-118 -266h332z" />
  </g>

</svg>
