<?xml version="1.0" standalone="no"?>
<!DOCTYPE svg PUBLIC "-//W3C//DTD SVG 1.1//EN" "http://www.w3.org/Graphics/SVG/1.1/DTD/svg11.dtd" >
<svg viewBox="0 -442 2048 2048">
  <g transform="matrix(1 0 0 -1 0 1606)">
   <path fill="currentColor"
d="M1973 583q0 -398 -275 -671t-674 -273q-396 0 -672.5 275t-276.5 671q0 395 277.5 671.5t672.5 276.5q397 0 672.5 -276t275.5 -674zM1893 583q0 365 -252 617.5t-616 252.5q-362 0 -616 -253t-254 -615q0 -217 99 -405q96 -183 264 -302l120 204h-139q-16 -12 -16 -35
l1 -40q-14 3 -42 11q-19 21 -19 35v222h1218v-229q0 -4 -20 -28q-4 -2 -41 -11q1 -5 1 40q0 21 -16 35h-139l114 -199q164 119 257 299q96 186 96 401zM1574 141v103q-25 19 -36 19h-305q-10 0 -30 -19v-113q25 -13 21 -13h324q9 7 26 23zM1477 -158l-80 240h-729l-83 -247
q201 -116 439 -116q246 0 453 123zM861 131v113q-19 19 -30 19h-305q-7 0 -35 -19v-106q29 -20 27 -20h320q-2 0 23 13zM1641 381h-1218v695q0 52 28 93q37 54 323 99q44 7 55 7h406q6 0 56 -8q126 -20 173 -32q123 -29 148 -69q29 -46 29 -93v-692zM1534 180q0 -28 -14 -28
h-106q-13 6 -13 40v12q0 18 9 29h113q11 -12 11 -31v-22zM1336 194q0 -48 -50 -48q-52 0 -52 49q0 19 16 36t35 17q51 0 51 -54zM1641 301h-1218v57h1218v-57zM830 195q0 -49 -52 -49q-50 0 -50 48q0 54 50 54q52 0 52 -53zM1157 -134h-24v64h-202v-64h-24v88h250v-88z
M663 165q-8 -7 -13 -12h-106q-14 6 -14 43q0 24 11 37h102q6 0 20 -13v-55zM1595 446v615q0 27 -17 53q-21 32 -129 51q-81 14 -149 14h-84v-750q0 -9 13 -20h321q10 0 27.5 14t17.5 23zM1176 409v770h-288v-770h288zM848 422v757h-72q-58 0 -141 -12q-100 -14 -131 -35
q-35 -24 -35 -69v-616q0 -10 16 -24t26 -14h324zM1546 1079q0 -38 -42 -38t-42 38q0 15 14 28.5t30 13.5q14 0 27 -14t13 -28zM1434 1077q0 -36 -38 -36q-42 0 -42 38q0 42 42 42q38 0 38 -44zM1523 937h-227v72h227v-72zM1558 575h-289v302h289v-302zM706 1079
q0 -38 -38 -38q-42 0 -42 38q0 14 13 28t27 14q40 0 40 -42zM598 1077q0 -36 -40 -36t-40 36q0 44 40 44t40 -44zM768 937h-227v72h227v-72zM795 575h-289v302h289v-302z" />
  </g>

</svg>
