<?xml version="1.0" standalone="no"?>
<!DOCTYPE svg PUBLIC "-//W3C//DTD SVG 1.1//EN" "http://www.w3.org/Graphics/SVG/1.1/DTD/svg11.dtd" >
<svg viewBox="0 -442 2048 2048">
  <g transform="matrix(1 0 0 -1 0 1606)">
   <path fill="currentColor"
d="M1672 -353h-182l-219 241h-800l-199 -241h-190l264 254q-8 7 -38 17q-23 7 -30 29q-14 42 -19 122q-5 88 -14 123q-14 18 -36 57q-20 55 -20 90v861q0 30 20 71q38 78 169 118q102 30 214 29q14 38 29 76q20 42 61 42h394q7 0 31 -12.5t27 -18.5q5 -29 31 -87
q83 -1 172 -17q151 -27 206 -131q5 -10 15 -46q11 -41 11 -30v-845q0 -43 -21 -100q-14 -15 -36 -53q-13 -41 -18 -122q-5 -86 -15 -123q-4 -14 -31 -28q-39 -21 -40 -22zM1093 1418q-7 33 -19 64h-390q-7 -21 -23 -64h432zM1047 1134v233h-336v-233h336zM1446 517
q0 53 -59 53q-60 0 -60 -55q0 -52 60 -52q59 0 59 54zM1304 515q0 55 -59 55t-59 -53q0 -54 61 -54q57 0 57 52zM1492 291v145h-312q-8 0 -37 29v95q11 13 34 37h315v597q0 16 -17 52.5t-29 46.5q-46 38 -170 60q-63 11 -58 11h-130v-1027h-424v1027h-120q-78 0 -181 -40
q-74 -29 -91 -104q-6 -26 -6 -20v-603h311q12 -11 34 -33v-99q-29 -29 -34 -29h-311v-149q19 -16 39 -33q18 -13 53 -13h310q-1 15 -1 17q0 21 15 21h394q10 -5 11 -34v-4h314q33 0 53 13q6 4 38 37zM1047 368v742h-340v-742h340zM1131 101v108h-44q1 2 1 -34q0 -20 -12 -27
h-141q-15 11 -15 51q0 18 -8 25q-13 1 -33 1q-48 0 -48 -19q0 -4 1.5 -12t1.5 -12q0 -18 -15 -34h-137q-14 0 -14 61h-42v-108h505zM572 518q0 52 -63 52q-59 0 -59 -53q0 -54 59 -54q63 0 63 55zM1442 83h-206q0 2 0 -50q0 -27 -15 -38h-685q-20 13 -20 37q0 6 1.5 19
t1.5 19q0 7 -1 13h-206q3 -34 20 -98q13 -28 43 -28h1004q7 0 25.5 12t21.5 19q16 30 16 79v16zM430 518q0 52 -61 52q-58 0 -58 -55q0 -52 58 -52q61 0 61 55zM1423 1203l-5 -53q-4 -2 -11 -8h-254q-13 8 -13 38q0 38 25 38h246q12 -12 12 -15zM986 1257q-28 -12 -52 -12
h-34q-107 0 -132 12v75q33 17 56 17l29 -1q97 0 108 -1t25 -15v-75zM1454 732q-11 -9 -32 -27h-281q-10 8 -28 24v308q28 28 41 28h255q9 0 45 -36v-297zM1017 732q-11 -9 -32 -28h-211q3 0 -33 24v301q34 36 44 36h187q9 0 45 -36v-297zM614 1180v-11q0 -21 -13 -27h-254
q-12 8 -12 28v40q9 8 21 8h246q12 -15 12 -38zM645 728q-3 -2 -15 -13t-18 -11h-275q5 0 -37 28v292q0 9 15 23t25 16q18 4 63 4q12 0 35.5 -1t35.5 -1q124 0 135 -2q13 -10 36 -26v-309zM967 1295q0 30 -36 30q-37 0 -37 -30q0 -31 37 -31q36 0 36 31zM860 1297
q0 28 -35 28q-34 0 -34 -28q0 -33 34 -33q35 0 35 33z" />
  </g>

</svg>
