<?xml version="1.0" standalone="no"?>
<!DOCTYPE svg PUBLIC "-//W3C//DTD SVG 1.1//EN" "http://www.w3.org/Graphics/SVG/1.1/DTD/svg11.dtd" >
<svg viewBox="0 -442 2048 2048">
  <g transform="matrix(1 0 0 -1 0 1606)">
   <path fill="currentColor"
d="M1772 -68q0 -17 -23 -52t-39 -44q-18 -5 -52 -19v-125q-9 -8 -24 -31h-218q-27 39 -27 36v123h-924v-124q0 3 -27 -35h-218q-1 3 -12.5 15t-11.5 17v124q-18 5 -52 19q-14 8 -38 43t-24 50v1465q0 14 33 51.5t48 44.5q93 43 157 43h1214q70 0 157 -43q15 -8 48 -44.5
t33 -50.5v-1463zM1707 216v1156q0 21 -35 42q-67 39 -134 39h-1222q-19 0 -70 -14.5t-65 -25.5q-34 -26 -34 -42v-1155h1560zM1707 26v63h-158v-63h158zM1442 52q0 64 -57 64q-61 0 -61 -62q0 -59 61 -59q57 0 57 57zM1294 54q0 25 -18 43.5t-43 18.5q-24 0 -42.5 -19
t-18.5 -43q0 -59 65 -59q57 0 57 59zM1707 -72v47h-582l-22 22v113q22 22 26 22h578v37h-1560v-37h567q15 0 37 -22v-113l-22 -22h-582v-46q0 5 27 -37h1502q31 31 31 36zM682 54q0 25 -20 43.5t-45 18.5q-57 0 -57 -64q0 -57 57 -57q65 0 65 59zM530 54q0 25 -18 43.5
t-43 18.5q-57 0 -57 -64q0 -57 57 -57q61 0 61 59zM305 26v63h-158v-63h158zM1654 463q-30 -31 -36 -31h-1382q-5 0 -36 31v878q0 25 45 45q38 18 67 18h1230q29 0 67 -17q45 -20 45 -45v-879zM1047 -39v-16q0 -38 -18 -38h-209q-13 11 -13 43v10q0 24 9 38h218
q13 -15 13 -37zM1460 1161v174h-1066v-174h1066zM1608 528v564h-652v-592h616q9 0 36 28zM898 500v592h-652v-556q0 -10 27 -36h625z" />
  </g>

</svg>
