<?xml version="1.0" standalone="no"?>
<!DOCTYPE svg PUBLIC "-//W3C//DTD SVG 1.1//EN" "http://www.w3.org/Graphics/SVG/1.1/DTD/svg11.dtd" >
<svg viewBox="0 -442 2048 2048">
  <g transform="matrix(1 0 0 -1 0 1606)">
   <path fill="currentColor"
d="M818 1153q0 -146 -93 -252.5t-235 -121.5v-51q7 -1 52 -1q36 0 52 -11q18 -19 37 -38v-395q-13 -13 -39 -38h-101v-116q13 -4 55 -4q35 0 48.5 -29.5t68.5 -193.5q56 -167 56 -180q0 -20 -22 -60q-5 -1 -19 -7t-19 -6h-418q-9 0 -40 13q-20 36 -20 48v10q0 20 64 203
q15 61 59 175q12 22 48 26q29 2 58 5v115h-102l-39 36v402q14 17 47 41q32 1 94 5v51q-142 15 -235 121.5t-93 252.5q0 157 106 266.5t262 109.5t262 -109.5t106 -266.5zM768 1153q0 137 -91.5 231.5t-226.5 94.5t-226.5 -94.5t-91.5 -231.5t91.5 -231.5t226.5 -94.5
t226.5 94.5t91.5 231.5zM564 307v336l-18 19h-192l-18 -19v-336h228zM637 -280v23q-88 272 -98 290q-15 27 -72 27q-92 0 -107 -27q-7 -13 -29 -78q-25 -79 -76 -235h382zM671 987q0 -21 -28 -35v-29q-5 -4 -11 -14h-65l-11 16v24h-211v-24l-12 -16h-65l-11 15v28
q-28 14 -28 34v366q0 16 27 31q24 14 41 14h306q17 0 42.5 -14.5t25.5 -29.5v-366zM573 1344v24h-246v-24h246zM620 1129v183h-153v-183h153zM592 1014q0 12 -12 12t-12 -12q0 -11 12 -11t12 11zM433 1129v183h-153v-183h153zM542 1014q0 12 -12 12t-12 -12q0 -11 12 -11
t12 11zM633 1069v24h-366v-24h366zM483 1002v24h-66v-24h66zM382 1014q0 12 -12 12t-12 -12q0 -11 12 -11t12 11zM332 1014q0 12 -12 12t-12 -12q0 -11 12 -11t12 11z" />
  </g>

</svg>
