<?xml version="1.0" standalone="no"?>
<!DOCTYPE svg PUBLIC "-//W3C//DTD SVG 1.1//EN" "http://www.w3.org/Graphics/SVG/1.1/DTD/svg11.dtd" >
<svg viewBox="0 -442 2048 2048">
  <g transform="matrix(1 0 0 -1 0 1606)">
   <path fill="currentColor"
d="M2032 316q0 -69 -27 -121q-11 -21 -47 -45.5t-60 -29.5q-14 0 -42 -10q-15 -22 -41 -58q-44 -52 -125 -52q-97 0 -157 103h-930q-60 -103 -162 -103q-89 0 -130 62q-22 37 -43 75q-17 3 -47 10q-50 13 -78 36q-61 49 -61 285q0 67 4 103q5 45 108 171q91 112 145 157
q41 24 102 76q5 16 17 47q33 82 155 134q75 32 253 38q113 4 294 15q131 8 141 8q108 0 332 -2q53 0 158 -2q39 -2 68 -13q20 -8 35 -31q21 -33 62 -146.5t45 -151.5q31 -272 31 -555zM1872 1071v22q0 17 -22 51q-43 17 -117 17h-58q17 -28 35.5 -54.5t56.5 -30.5
q49 -5 78 -5h27zM1887 1024l-4 19q-140 0 -170 13t-49 49q-29 55 -34 61h-301q10 0 -185 -10l-370 -19q6 -9 6 -17q0 -23 -37 -53l-56 -42q313 16 322 16q-26 0 293 -6zM1773 182q0 34 -24 60.5t-57 26.5q-32 0 -54.5 -26.5t-22.5 -58.5q0 -34 22.5 -59.5t56.5 -25.5
q32 0 55.5 25.5t23.5 57.5zM750 1129l-46 5q-91 -32 -117 -47q-63 -35 -82 -91l132 56q87 37 113 77zM1971 324l-17 229h-1332q-11 9 -11 20q0 15 15 28h1329v103q0 115 -45 278l-8 6l-958 17q-253 2 -355 -31q-32 -15 -95 -45q-41 -18 -107 -58q-104 -92 -226 -270h361
q14 -14 14 -26q0 -14 -10 -22h-367q-2 0 -17 -8v-11l9 -7q27 7 54 7q15 0 22 -11q13 -21 13 -104q0 -34 -36 -34q-8 0 -24 1.5t-24 1.5q-9 0 -15 -2v-16q0 -42 29 -139q69 -33 101 -33q7 74 53 121.5t119 47.5q78 0 128 -59t45 -138h904q-1 81 44 137q48 60 128 60
q77 0 127 -57q46 -53 50 -132q34 14 80 52q25 50 22 94zM207 419q-3 30 -3 86q-21 -2 -62 -8q-2 -12 -2 -26v-26q0 -14 2 -26q42 3 48 3h7q6 0 10 -3zM521 182q0 35 -22.5 61t-57.5 26q-32 0 -55.5 -26.5t-23.5 -58.5q0 -33 23 -59t56 -26q34 0 57 24.5t23 58.5zM1425 724
h-85v-95h-134v93q-43 3 -84 0v143h83v91h133v-89h87v-143zM643 871q0 -37 -11 -95q-18 -92 -18 -95l-16 -12q-61 -7 -220 -29q-87 -12 -97 -12q-25 0 -25 30q0 22 37 64q71 81 78 88q53 54 91 70q31 13 53 13h115q13 -11 13 -22z" />
  </g>

</svg>
