<?xml version="1.0" standalone="no"?>
<!DOCTYPE svg PUBLIC "-//W3C//DTD SVG 1.1//EN" "http://www.w3.org/Graphics/SVG/1.1/DTD/svg11.dtd" >
<svg viewBox="0 -442 2048 2048">
  <g transform="matrix(1 0 0 -1 0 1606)">
   <path fill="currentColor"
d="M941 1237h-194v144q0 30 33 53.5t64 23.5q29 0 63 -24t34 -52v-145zM1563 327q0 -105 -112 -105v-136q0 -33 -37.5 -59.5t-72.5 -26.5t-70 29t-35 63v133h-816v-144q0 -29 -39 -56q-35 -25 -66 -25q-30 0 -66 23q-39 25 -39 54v145q-15 5 -52 5q-52 0 -67 42q-9 23 -9 87
v224q0 67 8 88q12 29 60 62q20 107 40 213q34 145 84 186q26 21 152 42q111 18 166 18h451q69 0 185 -20q142 -24 163 -55q40 -57 69 -187l40 -202q63 -19 63 -142v-256zM1473 500q0 51 -37 88.5t-87 37.5q-52 0 -90.5 -38.5t-38.5 -90.5q0 -54 37.5 -89t91.5 -35
q55 0 89.5 36t34.5 91zM1388 732q-16 80 -32 159q-19 95 -49 154q-156 39 -404 39h-238q-208 0 -327 -39q-20 -28 -51 -151q-29 -117 -30 -162l380 19q180 9 191 9q9 0 186 -9zM446 497q0 51 -39 90t-90 39q-52 0 -90.5 -38.5t-38.5 -90.5q0 -54 37.5 -89t91.5 -35
q53 0 91 36t38 88z" />
  </g>

</svg>
