<?xml version="1.0" standalone="no"?>
<!DOCTYPE svg PUBLIC "-//W3C//DTD SVG 1.1//EN" "http://www.w3.org/Graphics/SVG/1.1/DTD/svg11.dtd" >
<svg viewBox="0 -442 2048 2048">
  <g transform="matrix(1 0 0 -1 0 1606)">
   <path fill="currentColor"
d="M1682 177q0 -76 -51.5 -126.5t-127.5 -50.5t-125 49t-49 125q0 74 52 127t125 53q71 0 123.5 -53t52.5 -124zM1993 115h-258q5 78 5 62q0 91 -71.5 159.5t-162.5 68.5q-96 0 -165.5 -69t-69.5 -165q0 -25 5 -50h-539l5 7q3 20 3 41q0 97 -67.5 166.5t-164.5 69.5
q-101 0 -170 -76.5t-65 -177.5q-11 5 -43 14q-56 15 -85 40q-68 58 -68 182q0 229 309 470q259 201 524 277q49 14 59 14h1019v-1033zM695 177q0 -76 -51.5 -126.5t-127.5 -50.5q-73 0 -126 52t-53 125q0 68 55.5 122.5t123.5 54.5q71 0 125 -53t54 -124zM1796 674v313h-326
v-313h326zM1359 671v316h-362v-316h362zM886 672v305q-257 -80 -502 -305h502z" />
  </g>

</svg>
