<?xml version="1.0" standalone="no"?>
<!DOCTYPE svg PUBLIC "-//W3C//DTD SVG 1.1//EN" "http://www.w3.org/Graphics/SVG/1.1/DTD/svg11.dtd" >
<svg viewBox="0 -442 2048 2048">
  <g transform="matrix(1 0 0 -1 0 1606)">
   <path fill="currentColor"
d="M1984 472q-9 -13 -29 -39q-27 0 -48 -2q-22 -79 -39 -125h-135q2 -131 -76 -217q-81 -89 -210 -89q-130 0 -209 88q-77 85 -74 216h-380l-5 -5q3 -13 3 -24q0 -9 -2 -22q-38 -254 -316 -254q-25 0 -82 22q-82 32 -129 113q-43 76 -40 168q-16 5 -48 17t-61 45
q-20 22 -20 115q0 7 -1 20t-1 20q0 28 11 45q21 31 24 37q14 48 53 139q8 14 42 38q48 34 85 46q14 4 149 25q94 15 136 54q9 9 45 65q32 55 106 158q8 9 48.5 35.5t48.5 26.5h882q18 0 29 -12q15 -17 57 -109q27 -61 55 -122h107q24 -23 24 -32v-441zM1837 618l-11 165h-57
v-165h68zM1846 465v93q-8 18 -29 19q17 -1 -38 -1q-27 0 -45 17v211q15 15 72 15q10 0 16 2q-8 22 -64 173q-14 40 -29 81q-25 59 -48 59h-793q-40 0 -78 -20.5t-72 -71.5q-28 -43 -55 -86q-26 -37 -51 -74q-32 -41 -69 -55q-1 0 -169 -40q-130 -32 -142 -57q-9 1 53 1
q24 0 37 -12q-1 -29 -23.5 -67.5t-47 -52t-84.5 -14.5q-17 0 -25 -4q-17 -8 -17 -115q0 -18 1 -28q2 -15 26.5 -43t38.5 -28q15 0 27 26q8 19 17 39q85 135 241 135q194 0 275 -200h403q33 88 106.5 144t164.5 56q193 0 274 -200h115q12 106 12 98zM1576 280q0 56 -37 94.5
t-92 38.5t-92.5 -38t-37.5 -93t37.5 -93t92.5 -38q54 0 91.5 37.5t37.5 91.5zM311 702h-91q-14 -17 -24 -46l-16 -50h32q67 0 99 96zM627 282q0 52 -39.5 91.5t-91.5 39.5t-91.5 -39.5t-39.5 -91.5t39.5 -91.5t91.5 -39.5t91.5 39.5t39.5 91.5zM1664 878q0 -8 -17 -28
q-150 -36 -162 -36q-18 0 -24 21q-16 53 -16 217q0 20 16 34q40 2 128 2q52 0 59 -21q16 -47 16 -189zM1398 826q-7 -8 -24 -19q-13 -4 -110 -4q-27 0 -79.5 -6t-79.5 -6q-30 0 -30 37q0 180 16 239q6 21 28 21h238q28 0 33 -52q1 -4 1 -73q0 -62 7 -137zM1032 1065
q0 15 -7 -52q0 -79 -17 -201q-9 -24 -40 -25q-250 -8 -253 -8q-49 0 -49 33q0 15 64 117q19 36 37.5 72t57 61.5t102.5 25.5h89q16 -14 16 -23z" />
  </g>

</svg>
