<?xml version="1.0" standalone="no"?>
<!DOCTYPE svg PUBLIC "-//W3C//DTD SVG 1.1//EN" "http://www.w3.org/Graphics/SVG/1.1/DTD/svg11.dtd" >
<svg viewBox="0 -442 2048 2048">
  <g transform="matrix(1 0 0 -1 0 1606)">
   <path fill="currentColor"
d="M2000 347q0 -32 -52 -162q-32 -23 -99.5 -37t-70.5 -16q-14 -22 -36 -57q-55 -75 -146 -75q-99 0 -167 106l-772 7q-59 -113 -171 -113q-105 0 -154 87q-7 24 -32 60q-27 6 -77 22q-42 17 -105 55q-13 49 -13 59v104q0 2 12 20q-35 16 -35 24v97l12 17h61q-3 -23 -3 -41
q0 -15 2 -29q19 29 69 76q60 34 177 39q134 7 181 22q55 41 128 95q48 31 125 66q31 10 92 35q-4 3 -4 15q0 19 30 65t47 46h139q36 0 68 -97q38 -3 115 -9q118 -11 168 -39q36 -20 123 -86q75 -57 126 -79q60 -6 148 -18q33 -6 54 -38q17 -25 17 -156q43 -44 43 -65z
M1666 214q0 74 -70 74t-70 -74q0 -81 72 -81q30 0 49 25t19 56zM1907 463q0 13 -2 39.5t-2 38.5q-53 6 -105 12q-71 9 -98 24q-41 23 -165 107q-25 19 -77 50q-58 27 -149 31q-75 4 -151 7q-18 2 -34 17v18l3 3h40v41q0 11 -28 48h-134l-26 -40q-7 -15 -6 -51q16 3 29 3
q10 0 18 -2v-31q-197 -45 -323 -133q-48 -41 -108 -87q-32 -11 -87 -9q-67 2 -88 -1q-90 -12 -114 -19q-58 -17 -96 -62q-13 -16 -33 -69h38q14 23 47 66h1601v-18q0 -8 -7 -15q0 -4 -1 -11v-10q0 -19 8 -24h37q13 27 13 77zM996 246q-19 26 -19 52q0 58 19 79q12 0 -26 0
q-25 0 -64 25q-8 12 -25 34q-12 -37 -63 -57q-9 -4 -43 -2q19 -23 19 -46v-38q0 -23 -19 -46h22q35 1 70 -32q7 -7 18 -32q6 23 38.5 45t57.5 22q9 0 15 -4zM556 214q0 74 -70 74t-70 -76q0 -30 20.5 -54.5t49.5 -24.5q70 0 70 81zM132 441v80h-27v-80h27zM1502 561h-361
l6 98q4 75 18 85h27q18 1 27 1q97 0 157 -39q63 -52 126 -103v-42zM1090 722l-24 -170h-291q-10 49 -63 53q62 47 161 91q111 48 176 48q44 0 41 -22z" />
  </g>

</svg>
