<?xml version="1.0" standalone="no"?>
<!DOCTYPE svg PUBLIC "-//W3C//DTD SVG 1.1//EN" "http://www.w3.org/Graphics/SVG/1.1/DTD/svg11.dtd" >
<svg viewBox="0 -442 2048 2048">
  <g transform="matrix(1 0 0 -1 0 1606)">
   <path fill="currentColor"
d="M1968 127q-3 -1 -13 -8.5t-16 -7.5h-262q-56 -111 -158 -111q-114 0 -154 111h-703q-50 -111 -158 -111q-110 0 -154 111h-236q-4 0 -32 28v108l15 16v217q0 10 35 138q42 151 43 155q26 3 29 23q0 20 -1 40l1 9q26 13 166 13q54 0 60 -15q3 -29 7 -59h381q5 0 15.5 6
t15.5 6h402q26 -15 26 -45q0 -6 -1 -19t-1 -19q0 -8 2 -12.5t28 -4.5q29 0 116 3q-64 49 -171 147q-5 6 -4 33h-1106q-2 4 -13 16t-11 18v110q0 -2 24 33h1516q31 0 55 -20t24 -50v-288h192l4 25h-111q-8 9 -27 28v243q43 43 46 45q12 7 61 7q17 0 42.5 -20.5t25.5 -31.5
v-867zM1926 900v90q-7 17 -35 17h-23q-19 0 -41 -25v-82h99zM1926 831v41h-98v-41h98zM1926 758v45h-98v-45h98zM1600 916q-3 18 -3 35v8q0 16 3 32q-36 -35 -68 -75h68zM1586 1017h-188q32 -37 94 -98zM1452 916l-94 102l-93 -102q54 18 59 18q14 0 37 -18q12 -1 26 -1
q8 0 33 1h32zM1596 716v163h-198zM1318 1017h-184q30 -34 94 -98zM1188 916l-94 102l-98 -102h192zM1930 562v54h-941v-54h941zM1930 161v49h-246q3 -38 0 -49h246zM1054 1017h-188q30 -34 94 -98zM1930 341v114h-941v-114h941zM923 916l-97 102l-94 -102h191zM1597 168
q0 30 -24 53.5t-54 23.5q-32 0 -53.5 -23t-21.5 -56q0 -74 75 -74q32 0 55 22.5t23 53.5zM786 1017h-184q30 -34 94 -98zM652 916l-90 102l-98 -102h188zM521 1017h-187q30 -34 94 -98zM1358 161q-3 24 0 49h-369v-49h369zM950 268v462h-248v-309q12 1 21 1q25 0 34.5 -7.5
t9.5 -33.5q0 -32 -18 -40q-11 -4 -47 -1v-179h202q-1 -6 -1 48q0 62 47 59zM387 916l-93 102l-94 -102h187zM254 1017h-91v-98zM647 503v162h-113q-9 -14 -9 -65q0 -8 1.5 -23.5t1.5 -24.5q0 -52 14 -61q37 -1 59 -1q19 0 30 1q6 3 16 12zM399 758v64h-164v-64h164zM486 491
l-3 2q3 2 3 9v161h-109v-173q1 1 109 1zM330 502v164h-94q-15 0 -26 -32q-5 -23 -11 -46q-18 -54 -18 -71q0 -11 16 -27h120zM667 341v87h-528v-87h528zM579 168q0 32 -21.5 54.5t-53.5 22.5q-31 0 -50.5 -23t-19.5 -54q0 -76 70 -76q75 0 75 76zM353 233h-210
q-10 0 -27 -16v-52q29 -12 21 -12h204v12q-2 40 12 68zM938 578h-33v114h33v-114zM889 614q0 -74 -80 -74q-77 0 -77 84q0 95 91 95h27l8 -9q-1 -10 -8 -16q-99 -10 -99 -68q0 -60 60 -60q51 0 51 46q0 35 -38 35q-11 0 -23 -14v-18l7 -7q9 0 17 16l18 -4v-22
q-14 -13 -32 -13q-41 0 -41 41q0 48 54 48q65 0 65 -60zM931 490h-8q-5 -1 -8 -1h-5q-5 0 -9 2q0 2 -2 7.5t-2 8.5q0 17 17 17q3 0 8.5 -2t8.5 -2v-30zM931 429q-3 0 -10.5 -2t-11.5 -2l-4 26l26 -4v-18zM885 499q0 -28 -32 -28q-29 0 -29 28q0 29 31 29q30 0 30 -29z
M896 447l-4 -22h-13q-9 9 -9 13q0 10 5 13zM862 421h-14v34h14v-34zM783 463h-16q-3 2 -4 9v52l20 -4v-57zM835 429q-6 -2 -17 -4q-9 9 -9 13q0 10 5 13l21 -4v-18zM916 358q0 -29 -31 -29q-26 0 -26 29q0 28 28 28q29 0 29 -28zM747 472q-8 -8 -18 -8v59h18v-51zM805 429
h-7q-4 -1 -7 -1h-5q-5 0 -8 2l5 21h13l9 -8v-14zM835 352q-2 0 -6 -1h-5q-6 0 -11 2q-2 13 -2 10q0 8 7 12q6 -2 17 -4v-19zM897 266q0 -48 -46 -48t-46 50q0 46 48 46q44 0 44 -48zM892 184h-87v18h87v-18zM759 287q-27 -12 -23 -12q-4 0 -10 2.5t-7.5 4t-3.5 7.5t-2 9
q0 23 25 23q8 0 21 -12v-22zM747 255l-4 -18h-14q-4 0 -4 10q0 5 2 8.5t2 4.5zM774 203q0 -19 -23 -19q-10 0 -19 8v25q13 12 19 12q23 0 23 -26zM874 266q0 25 -23 25q-7 0 -19 -12v-26q9 -8 19 -8q23 0 23 21z" />
  </g>

</svg>
