<?xml version="1.0" standalone="no"?>
<!DOCTYPE svg PUBLIC "-//W3C//DTD SVG 1.1//EN" "http://www.w3.org/Graphics/SVG/1.1/DTD/svg11.dtd" >
<svg viewBox="0 -442 2048 2048">
  <g transform="matrix(1 0 0 -1 0 1606)">
   <path fill="currentColor"
d="M1497 406q0 -19 -24 -46q0 -12 6.5 -33.5t6.5 -32.5q0 -12 -18 -25q-21 -14 -25 -23q1 -22 -4 -65q-16 -3 -32 -5q-20 -4 -22 -20t-10 -49q-12 -7 -20 -7q-4 0 -12.5 2.5t-12.5 2.5q-19 0 -29 -30t-31 -30q-6 0 -17.5 5t-17.5 5q-7 0 -28.5 -20t-28.5 -20t-22 10t-23 10
q-7 0 -22 -10t-23 -10q-7 0 -31 17.5t-31 17.5t-18.5 -7.5t-18.5 -7.5q-16 0 -24 25t-26 25q-5 0 -14 -2.5t-14 -2.5q-16 0 -26 11q0 60 -54 55q-4 7 -14 50q-5 19 -41 35q-5 17 -20 48h-239q-59 48 -77 48q-16 0 -48 -1.5t-48 -1.5l-3 -3v-14q38 -15 61.5 -57.5t23.5 -85.5
q0 -69 -49 -116.5t-118 -47.5q-73 0 -117.5 44.5t-44.5 117.5q0 133 136 163l3 6l-154 369q34 45 56 67h143v124q14 4 31 4t33 -4v-129h391q21 25 58 77q-23 20 -64 65q11 23 25 23q7 0 23.5 -15t23.5 -15q5 0 12.5 6t11.5 7q19 6 107 6q36 0 44.5 15t15.5 68q6 44 27 66
q1 1 20 13q13 8 13 18q0 3 -63 123q-11 2 -51 2v18q4 2 37 14q20 7 31 26q12 24 38 71q6 1 9 1q47 0 82 -42q20 -73 42 -73q-5 0 49 14v-18q-27 -22 -84 -49q0 -23 32.5 -76t32.5 -63q0 -24 -12.5 -71t-12.5 -71q0 -105 35 -105q-7 0 48 10q7 -5 7 -17q0 -5 -30 -49
q18 0 49 -11q8 -17 29 -46q13 -1 40 -4q5 -17 22 -48q8 -10 27 -17q23 -7 30 -13l3 -60q14 -9 29 -19.5t15 -26.5q0 -6 -10 -18.5t-10 -21.5q0 -16 27 -33q3 -7 3 -17zM979 765q0 7 -7.5 17.5t-7.5 17.5q0 11 10 31q-39 5 -115 20q60 -48 60 -61q0 -18 -17 -18q4 0 -66 35
q-45 -43 -56 -68q102 -51 117 -51q12 0 47 33t35 44z" />
  </g>

</svg>
