<?xml version="1.0" standalone="no"?>
<!DOCTYPE svg PUBLIC "-//W3C//DTD SVG 1.1//EN" "http://www.w3.org/Graphics/SVG/1.1/DTD/svg11.dtd" >
<svg viewBox="0 -442 2054 2048">
  <g transform="matrix(1 0 0 -1 0 1606)">
   <path fill="currentColor"
d="M2054 520q0 -18 -3 -49q-3 -35 -4 -49q-5 -147 -31 -224q-32 -31 -75 -35q10 1 -84 1q-88 -164 -251 -164q-154 0 -243 164h-606q-84 -164 -247 -164q-173 0 -243 164h-124q-10 8 -28 26q-33 42 -33 184q0 287 217 404q26 14 50 14h254q87 94 268 275q23 22 48 31
q38 14 90 14h427q38 0 113 -22q83 -24 138 -87q26 -28 71 -106q32 -56 59 -64q16 -5 91 -5q45 0 64 -6q13 -4 31.5 -23t18.5 -32v-148q32 -31 32 -99zM1966 692h-25q-12 0 -29.5 -30t-17.5 -44q0 -19 33 -58h38q0 14 -1 41.5t-1 41.5q0 24 3 49zM1770 258q0 66 -48 112
t-114 46t-114 -46t-48 -112q0 -65 49.5 -113.5t114.5 -48.5q63 0 111.5 49.5t48.5 112.5zM1998 488q0 11 -9 36q-6 0 -21.5 -1t-23.5 -1q-82 0 -82 96q0 81 84 128q-8 6 -9 13q-130 0 -160.5 10t-49.5 41q-15 28 -31 57q-103 161 -244 161h-491q-17 0 -40.5 -17t-168.5 -164
q-137 -139 -144 -139h-243q-39 0 -75 -43q64 -5 64 -59q0 -63 -70 -117q-63 -48 -130 -54v-117l13 -61h82q-2 107 76 185t185 78t184.5 -77.5t80.5 -185.5h574q2 107 77 185t182 78q106 0 185 -79t78 -185h78q11 11 27 38q22 61 22 194zM326 604q0 14 -5 20h-64
q-51 0 -91 -136h14q19 0 37 5q29 8 67 45q42 39 42 66zM670 258q0 65 -47.5 111.5t-112.5 46.5q-68 0 -114 -45.5t-46 -112.5q0 -65 47.5 -113.5t112.5 -48.5q63 0 111.5 49.5t48.5 112.5zM1570 764q0 -38 -21 -56h-342q-13 14 -13 34q0 -14 13 213q24 26 67 26h66
q99 0 148 -11q82 -18 82 -206zM1150 944q0 -37 -14 -219l-15 -17h-382q-13 12 -13 24q0 8 79 91q41 49 83 98q59 64 99 64q14 0 41 -2t41 -2q81 0 81 -37z" />
  </g>

</svg>
