<?xml version="1.0" standalone="no"?>
<!DOCTYPE svg PUBLIC "-//W3C//DTD SVG 1.1//EN" "http://www.w3.org/Graphics/SVG/1.1/DTD/svg11.dtd" >
<svg viewBox="0 -442 2048 2048">
  <g transform="matrix(1 0 0 -1 0 1606)">
   <path fill="currentColor"
d="M1982 -51l-16 -21h-117q-12 15 -12 74q0 23 -4 38l-67 -3q51 -75 51 -151q0 -103 -78 -179t-181 -76q-115 0 -187 81q-69 77 -67 194l-413 73q12 -95 12 -93q0 -108 -75.5 -181.5t-183.5 -73.5q-107 0 -180.5 75t-73.5 182q0 86 46 149l-303 3q-17 14 -51 40v140
q13 15 43 38q10 0 34 8v354q0 -3 91 198q49 117 164 340h415v146q70 47 80 47h979q5 0 48 -44v-1183l26 -5l20 -22v-148zM1851 1159v107h-948v-107h948zM1851 1012v119h-946v-119h946zM1851 866v114h-948v-114h948zM1851 715v119h-948v-119h948zM1851 569v118h-948v-118h948
zM1939 -40v118h-56v-118h56zM1851 422v115h-948v-115h948zM1851 272v118h-948v-118h948zM1851 145v99h-948v-99h948zM1678 -112q0 48 -35 82.5t-83 34.5q-50 0 -83.5 -33.5t-33.5 -83.5q0 -49 33 -83.5t82 -34.5q48 0 84 35.5t36 82.5zM1354 39h-378l342 -57q9 21 36 57z
M829 145v932h-380q-213 -484 -213 -480v-452h593zM764 -114q0 48 -36 83.5t-84 35.5t-83.5 -35.5t-35.5 -83.5q0 -46 36.5 -81t82.5 -35q47 0 83.5 34.5t36.5 81.5zM175 102v111h-51v-111h51zM725 611h-415q-9 15 -9 23q0 3 66 135q71 143 76 153q45 97 69 97h184
q11 0 29 -20v-388z" />
  </g>

</svg>
