<?xml version="1.0" standalone="no"?>
<!DOCTYPE svg PUBLIC "-//W3C//DTD SVG 1.1//EN" "http://www.w3.org/Graphics/SVG/1.1/DTD/svg11.dtd" >
<svg viewBox="0 -442 2048 2048">
  <g transform="matrix(1 0 0 -1 0 1606)">
   <path fill="currentColor"
d="M2020 511q0 -17 -3 -48q-4 -34 -4 -48q-5 -146 -30 -220q-32 -30 -74 -35q8 1 -83 1q-86 -161 -246 -161q-151 0 -239 162h-596q-82 -162 -242 -162q-170 0 -239 162h-122q-10 8 -27 25q-33 42 -33 181q0 286 213 397q25 13 49 13h250q86 92 263 271q23 22 48 30
q35 12 161 15l5 5q0 4 22 205h144l20 -212h163q34 0 103 -20q81 -23 136 -85q25 -29 69 -105q33 -55 58 -63q17 -5 90 -5q45 0 64 -6q13 -4 30.5 -23t17.5 -32v-145q32 -30 32 -97zM1933 551q0 14 -1.5 43t-1.5 43q0 25 3 43h-25q-12 0 -28.5 -29.5t-16.5 -43.5
q0 -19 32 -56h38zM1206 1093q-5 57 -16 172h-54l-16 -172h86zM1953 367v18h-149q37 -71 35 -133h77q37 23 37 115zM1914 733q-8 6 -9 13q-127 0 -157.5 9.5t-48.5 40.5q-16 28 -31 56q-104 158 -240 158h-483q-19 0 -40 -16t-165 -161q-136 -137 -141 -137h-239
q-38 0 -73 -42q25 -2 55 -21h1488q3 27 30 58.5t54 41.5zM1741 254q0 65 -47 110t-112 45t-112.5 -45t-47.5 -110q0 -64 49 -111.5t113 -47.5q62 0 109.5 48.5t47.5 110.5zM1961 474q0 26 -5 41l-36 -1q-82 0 -90 75h-1480q-9 -56 -66 -104.5t-115 -54.5h148q83 81 186 81
q119 0 186 -82h705q85 82 188 82t187 -82h191v23q1 16 1 22zM1363 384h-640q23 -33 40 -132h565q0 87 35 132zM322 594q0 13 -5 19h-63q-50 0 -89 -133h14q19 0 36 5q28 8 67.5 45.5t39.5 63.5zM660 254q0 64 -46.5 109.5t-110.5 45.5q-66 0 -111.5 -44.5t-45.5 -110.5
q0 -64 46.5 -111.5t110.5 -47.5q62 0 109.5 48.5t47.5 110.5zM282 385h-129v-80q0 2 13 -53h81q4 88 35 133zM1544 754q0 -40 -21 -58h-335q-13 14 -13 33q0 -17 13 209q25 27 66 27h73q88 0 137 -11q43 -10 64 -85q16 -55 16 -115zM1132 928q0 -33 -14 -215q-5 -7 -15 -17
h-375q-13 12 -13 23q0 8 78 90q38 45 77 89q56 63 85 69q7 1 16 1t25.5 -2.5t25.5 -2.5q6 0 17 1h16q77 0 77 -36zM1220 443h-34v131h34v-131zM1174 443h-40l-25 41l-26 -41h-69l-9 27h-40l-10 -27h-32l44 131h35l46 -129l40 65l-39 64h37l25 -39l23 39h38l-41 -63zM938 551
h-37v-108h-34v107h-39v24h110v-23zM996 495l-12 40l-13 -40h25z" />
  </g>

</svg>
