<?xml version="1.0" standalone="no"?>
<!DOCTYPE svg PUBLIC "-//W3C//DTD SVG 1.1//EN" "http://www.w3.org/Graphics/SVG/1.1/DTD/svg11.dtd" >
<svg viewBox="0 -442 2048 2048">
  <g transform="matrix(1 0 0 -1 0 1606)">
   <path fill="currentColor"
d="M1111 1212h-56v219h56v-219zM1034 1212h-66l-42 68l-44 -68h-114l-16 46h-67l-15 -46h-55l74 219h59l76 -215l67 108l-66 107h63l41 -65l39 65h63l-69 -106zM642 1392h-63v-180h-56v179h-66v40h185v-39zM1526 343q0 -62 -19 -88q-22 -32 -84 -32v-143q0 -31 -30.5 -55.5
t-75.5 -24.5q-39 0 -72.5 26.5t-33.5 64.5v136h-812v-147q0 -11 -12 -31q-30 -49 -91 -49q-35 0 -71.5 31t-36.5 66v127q-106 0 -106 82v287q0 54 13 70q27 32 34 49q21 49 51 194q27 125 66 189q20 32 123 53q80 16 142 16h568q86 0 208 -28q33 -8 46 -14q23 -11 36 -32
q45 -75 91 -372q22 -12 44 -26t22 -43v-306zM738 1298l-21 68l-21 -68h42zM1439 497q0 50 -36 89.5t-86 39.5q-48 0 -87.5 -40.5t-39.5 -88.5q0 -54 36 -86.5t91 -32.5q122 0 122 119zM1360 730l-36 160q-32 122 -56.5 136.5t-89.5 21.5q-164 17 -182 17h-381q-12 0 -84 -8
q-47 -4 -140 -14q-55 -7 -74.5 -22.5t-31.5 -81.5q-6 -46 -12 -93q-18 -112 -18 -116l361 15q193 8 181 8t188 -8zM420 497q0 129 -119 129q-51 0 -90 -39t-39 -90q0 -56 36.5 -87.5t92.5 -31.5q119 0 119 119z" />
  </g>

</svg>
