<?xml version="1.0" standalone="no"?>
<!DOCTYPE svg PUBLIC "-//W3C//DTD SVG 1.1//EN" "http://www.w3.org/Graphics/SVG/1.1/DTD/svg11.dtd" >
<svg viewBox="0 -442 2048 2048">
  <g transform="matrix(1 0 0 -1 0 1606)">
   <path fill="currentColor"
d="M749 -236q-21 -22 -30 -22h-614q-23 23 -23 29v1642q0 4 23 30h604q16 0 40 -23v-1656zM706 -210v1605h-576v-1605h576zM660 1123q0 -99 -73 -170.5t-172 -71.5q-106 0 -172 68.5t-66 175.5q0 101 70 170t171 69q97 0 169.5 -72t72.5 -169zM660 592q0 -104 -70.5 -172.5
t-174.5 -68.5q-105 0 -171.5 67t-66.5 172q0 103 67.5 173.5t170.5 70.5q99 0 172 -72t73 -170zM660 52q0 -100 -71.5 -173.5t-170.5 -73.5q-101 0 -171 73.5t-70 175.5q0 103 67.5 173.5t170.5 70.5q101 0 173 -72.5t72 -173.5zM507 1270q-8 17 -38 37t-48 20
q-15 0 -44.5 -21.5t-33.5 -35.5q27 10 80 10q51 0 84 -10z" />
  </g>

</svg>
