<?xml version="1.0" standalone="no"?>
<!DOCTYPE svg PUBLIC "-//W3C//DTD SVG 1.1//EN" "http://www.w3.org/Graphics/SVG/1.1/DTD/svg11.dtd" >
<svg viewBox="0 -442 2048 2048">
  <g transform="matrix(1 0 0 -1 0 1606)">
   <path fill="currentColor"
d="M1568 108h-84v731q0 19 -21 49q-27 38 -83 38q-55 0 -114 -56t-78 -56t-38.5 18.5t-19.5 37.5q0 9 42 68q46 64 53 86q21 63 21 134q0 84 -54.5 135.5t-138.5 51.5q-23 0 -79 -23q-27 38 -55 94q46 40 131 40q133 0 220 -80t87 -212q0 -50 -43 -158q56 16 78 16
q125 0 162 -121q14 -45 14 -54v-739zM1384 108h-83v338q-2 2 -3 2l-74 -26t-119 -26q-109 0 -188 64q-83 69 -83 176q0 84 43 141q-174 10 -282 104q-118 101 -118 270q0 127 65 233q71 115 188 145q32 -52 54 -95q-22 -5 -47 -18q-141 -76 -141 -264q0 -113 74.5 -191
t187.5 -78q14 0 42 6t42 6q58 0 58 -52q0 -17 -27 -74.5t-27 -107.5q0 -162 163 -162q69 0 139 58t80 58q14 0 35 -13.5t21 -26.5v-467zM1568 -188h-84v214h84v-214zM1383 -188h-83v214h83v-214zM1195 -188h-1113v214h1113v-214z" />
  </g>

</svg>
