<?xml version="1.0" standalone="no"?>
<!DOCTYPE svg PUBLIC "-//W3C//DTD SVG 1.1//EN" "http://www.w3.org/Graphics/SVG/1.1/DTD/svg11.dtd" >
<svg viewBox="0 -442 2048 2048">
  <g transform="matrix(1 0 0 -1 0 1606)">
   <path fill="currentColor"
d="M1974 590q0 -388 -278.5 -667t-665.5 -279q-382 0 -665 281t-283 663t281 664.5t663 282.5q383 0 665.5 -281t282.5 -664zM1811 586q0 320 -230.5 551.5t-550.5 231.5q-289 0 -493 -173l1100 -1101q174 212 174 491zM1522 -20l-1104 1101q-173 -229 -173 -495
q0 -320 232.5 -549.5t552.5 -229.5q282 0 492 173zM1571 658h-58v267q0 61 -75 61q-40 0 -83.5 -31t-60.5 -31q-33 0 -33 31q0 10 1 14q29 29 58 57q21 28 21 79q0 117 -135 117q-21 0 -64 -12q-6 14 -34 56q22 30 93 30q83 0 146 -45q71 -50 71 -129q0 -31 -25 -79
q8 0 24.5 3.5t24.5 3.5q92 0 118 -75q11 -32 11 -37v-280zM1442 658h-67q3 17 3 34q0 14 -2 27q-76 -44 -139 -44q-71 0 -124 40q-57 43 -57 112q0 40 21 73q-110 9 -177 60q-78 59 -78 162q0 25 16 96q6 26 56.5 72t75.5 46q6 0 21 -25.5t18 -35.5q-61 -27 -81 -54
q-23 -31 -23 -97q0 -71 44.5 -114t115.5 -43q10 0 30 4.5t30 4.5q41 0 41 -35q0 -11 -18.5 -39t-18.5 -64q0 -95 112 -95q50 0 100 34t62 34q39 0 39 -29v-124zM1571 436h-57v175h57v-175zM1442 436h-64v175h64v-175zM1307 491l-122 119h122v-119zM1009 437h-613v174h435z
" />
  </g>

</svg>
