<?xml version="1.0" standalone="no"?>
<!DOCTYPE svg PUBLIC "-//W3C//DTD SVG 1.1//EN" "http://www.w3.org/Graphics/SVG/1.1/DTD/svg11.dtd" >
<svg viewBox="0 -442 2048 2048">
  <g transform="matrix(1 0 0 -1 0 1606)">
   <path fill="currentColor"
d="M1926 1285q0 -7 -6 -18q-256 -185 -279 -185q-31 0 -31 43q0 17 17.5 31t136.5 90q123 78 131 78q11 0 21 -14t10 -25zM2004 816v-9q0 -38 -26 -38h-303q-9 0 -19.5 15.5t-10.5 24.5q0 35 34 35h308q17 -12 17 -28zM1926 330q0 -37 -33 -37q-6 0 -129 78q-117 75 -138 91
q-16 12 -16 30q0 39 31 39q7 0 129 -78t139 -91.5t17 -31.5zM476 1123q0 -41 -31 -41q-4 0 -130 81t-139 92q-16 14 -16 28q0 12 10 26.5t21 14.5q8 0 136.5 -81t140.5 -92q8 -8 8 -28zM1652 -320h-1222v571q0 19 25 40q15 13 44 18q41 9 47 11l3 7q5 164 11 328
q9 212 39 316q5 16 40 79q88 155 296 199q25 5 85 5q105 0 135 -5q19 -8 58 -21q102 -29 177 -103q78 -77 99 -177q6 -17 14 -51q6 -41 15 -189q6 -130 21 -389q33 -2 92 -28q21 -20 21 -35v-576zM441 809q0 -12 -9.5 -26t-20.5 -14h-303q-26 0 -26 40q0 35 29 35h296
q34 0 34 -35zM476 492q0 -17 -6 -23q-15 -14 -141 -95t-136 -81q-33 0 -33 35q0 20 15.5 32.5t140.5 91.5t131 79q29 0 29 -39zM1441 320v45q0 -9 -10 137q-3 134 -30 399q-9 50 -35 98q-81 151 -270 151q-226 0 -283 -42q-84 -61 -128 -211q-14 -48 -18 -137
q-2 -71 -5 -141q-17 -217 -17 -270v-29h260q26 48 53 96q31 53 85 53q52 0 85 -51q28 -49 57 -98h256zM1125 321q-19 31 -59 93h-46q-25 -34 -59 -93h164zM1570 -226v404q0 2 -17 34q-18 10 -32 10h-952q-14 0 -31.5 -11.5t-17.5 -25.5v-411h712v414h79v-414h38v414h152
q31 -42 31 -46v-368h38zM1372 770q0 -183 -10 -241q-12 -73 -74 -114q-14 -9 -50 -9q-15 0 -22 5q-29 22 -172 218q-13 -6 -35 -37q-30 -43 -32 -45q-30 -42 -59 -84q-43 -57 -74 -57q-89 0 -120 123q-9 36 -9 184q0 9 -1 27v28q0 94 41 180q9 19 43 31q16 6 73 6
q18 0 27 -6q33 -21 77 -97q33 -56 66 -113q26 37 52 81q21 38 43 76q30 45 61 57q7 3 67 3q57 0 87 -85q21 -61 21 -131zM1328 709q0 56 -11 90q1 35 -22 99q-24 28 -53 28t-40.5 -10t-85 -110t-73.5 -107l192 -230h22q24 26 54 83q17 74 17 157zM1039 699l-63 94v-188z
M926 638v131h-21q-14 0 -35.5 -28.5t-21.5 -43.5q0 -28 22.5 -46t45.5 -34q10 18 10 21zM925 797v18q0 13 -15.5 54t-23.5 47q-15 10 -54 10q-7 0 -11 -2q-34 -20 -41 -47l-8 -62q-14 -78 -14 -104q0 -51 16 -155q3 -17 27 -52t39 -35q34 0 74 124q-34 0 -64 35t-30 69
q0 93 105 100z" />
  </g>

</svg>
