<?xml version="1.0" standalone="no"?>
<!DOCTYPE svg PUBLIC "-//W3C//DTD SVG 1.1//EN" "http://www.w3.org/Graphics/SVG/1.1/DTD/svg11.dtd" >
<svg viewBox="0 -442 2048 2048">
  <g transform="matrix(1 0 0 -1 0 1606)">
   <path fill="currentColor"
d="M1754 598q0 -254 -143.5 -464t-380.5 -308q-159 -66 -312 -66q-344 0 -590 249.5t-246 593.5q0 337 248.5 587.5t585.5 250.5q199 0 391 -105q209 -114 327 -307q120 -196 120 -431zM1392 1157q-219 170 -472 170q-194 0 -344 -86q-172 -98 -277 -270
q-107 -176 -107 -371q0 -256 174 -473zM1645 600q0 275 -179 470l-1026 -1021q215 -175 474 -175q297 0 514 215t217 511z" />
  </g>

</svg>
