<?xml version="1.0" standalone="no"?>
<!DOCTYPE svg PUBLIC "-//W3C//DTD SVG 1.1//EN" "http://www.w3.org/Graphics/SVG/1.1/DTD/svg11.dtd" >
<svg viewBox="0 -442 2048 2048">
  <g transform="matrix(1 0 0 -1 0 1606)">
   <path fill="currentColor"
d="M1964 304q-39 -3 -95 -21l50 -209h-68q-5 13 -22 46q-25 -20 -64 -46l-148 -3q27 43 61 77q-9 2 -24 2q-75 0 -128 -21l-116 -50q-31 -3 -83 -8q44 74 80 123q1 0 1 1q-2 1 -7 1q-48 0 -156 -43q-12 -5 -60.5 -40t-51.5 -35h-54q2 32 68 123h-17q-16 1 -30 -3
q-102 -31 -177 -67q-30 -19 -89 -45q-24 -5 -136 -5q-13 0 -38.5 -2.5t-38.5 -2.5q-33 0 -53 6q-2 1 -127 78q-55 27 -153 95q-47 46 -107 124q-97 127 -99 130h192l5 7q7 84 17 253l271 -78q-122 -29 -233 -63q-4 -39 -12 -116l357 -3q19 11 45 49q20 29 39 58
q51 -11 107 -30l147 48q-2 1 -18 2h-4q-39 48 -115 146v112q15 23 54 57q59 28 124 28q-6 0 58 -5q28 -29 46 -66l22 -52q14 -34 31 -44q43 -13 123 -56q6 -5 103 -247h186v122h310zM1899 349l-19 209h-190v-236zM1819 151l-46 113q-52 -6 -79 -11v-49q23 -5 68 -18
q-9 -12 -30 -33v-37q29 11 87 35zM1166 832q-7 25 -42 92q-86 17 -84 17q-40 0 -83 -33q-11 -9 -26.5 -34.5t-15.5 -38.5v-47l83 54q88 -69 88 -79q0 4 -26 -85h14zM1372 510q-16 89 -24 120q-21 84 -45 106q-36 33 -75 33q-10 0 -45 -13q-13 -16 -35 -49q-17 -46 -42 -98
q-34 -22 -95 -34q-92 -19 -100 -21q0 -22 -4 -44h265q17 0 46 30q3 4 19 43q12 29 33 29q1 0 3 -2q0 -7 2 -21t2 -21q0 -6 -7 -28q-7 -25 -8 -30h110zM853 535q-21 10 -63 28q-25 -34 -44 -53h99q4 8 8 25zM1620 200v236h-1382q49 -65 116 -143q53 -39 164 -95
q125 -63 170 -63q9 0 28 2t28 2h27q18 -1 26 -1q52 0 164 45.5t188 47.5q10 0 31.5 3.5t33.5 3.5q3 0 6 -2q-18 -22 -53 -66q72 23 216 63q41 5 124 17v-5l-69 -90q118 39 182 45zM456 694l-120 32q3 -16 0 -52z" />
  </g>

</svg>
