<?xml version="1.0" standalone="no"?>
<!DOCTYPE svg PUBLIC "-//W3C//DTD SVG 1.1//EN" "http://www.w3.org/Graphics/SVG/1.1/DTD/svg11.dtd" >
<svg viewBox="0 -442 2048 2048">
  <g transform="matrix(1 0 0 -1 0 1606)">
   <path fill="currentColor"
d="M1966 1036q0 -92 -54 -161q-58 -75 -147 -75h-1265v-1169h-54v1168h-129v-1168h-58v1169q-77 18 -128 88q-49 67 -49 148q0 90 62 163.5t151 73.5h94q50 107 186 107q135 0 186 -107h79q40 107 184 107q136 0 184 -107h79q64 107 186 107q136 0 186 -107h94q94 0 155 -72
q58 -69 58 -165zM1916 1034q0 114 -85 169q-25 16 -43 16h-124q15 -62 15 -168q0 -82 -3 -105q-9 -60 -43 -92h151q54 0 95 65q37 57 37 115zM1653 1017q2 64 -6 167q-39 143 -172 143q-59 0 -97 -25q-58 -38 -76 -110q-9 -37 -9 -101q0 -125 13 -149q45 -81 169 -81
q114 0 164 73q15 21 14 83zM1316 854q-50 40 -50 225q0 47 5 74q14 83 14 66h-72q19 -71 19 -125v-93q0 -108 -49 -147h133zM1206 1020v47q-1 30 -1 46q0 91 -44 149q-49 65 -137 65q-81 0 -132 -63q-48 -58 -48 -141q0 -162 15 -189q41 -73 167 -73q180 0 180 159zM865 854
q-44 36 -44 254q0 70 14 111h-72q19 -62 19 -191t-50 -174h133zM753 1123q0 87 -45 143q-49 61 -133 61q-62 0 -111.5 -41t-63.5 -102q-6 -26 -6 -145q0 -36 3 -58q17 -120 176 -120q77 0 131 35q12 8 33 38q16 23 16 189zM418 854q-38 36 -47 111q-3 23 -3 125q0 53 6 82
q10 46 10 44h-120q-46 0 -86 -51.5t-40 -99.5q0 -5 -3 -15.5t-3 -15.5q0 -60 28 -104q48 -76 97 -76h161zM1628 1079v-49q-1 -135 -153 -135q-96 0 -128 46q-24 36 -24 132v45q0 71 40 122q43 56 112 56q38 0 62 -13q92 -49 91 -204zM1175 1105q0 -113 -19 -151
q-30 -59 -132 -59q-124 0 -150 97q-2 8 -2 21v109q0 69 42.5 121.5t109.5 52.5q38 0 62 -13q89 -48 89 -178zM724 1124q0 -133 -15 -166q-28 -63 -143 -63q-97 0 -127 58q-19 37 -19 145q0 62 11 94q15 44 55.5 74t86.5 30q51 0 92.5 -31.5t53.5 -80.5q5 -21 5 -60z
M1610 1055q0 60 -36.5 99t-96.5 39q-61 0 -99.5 -36.5t-38.5 -97.5q0 -123 155 -123q48 0 82 35.5t34 83.5zM1104 1140v29h-7v-29h7zM1119 1117v37h-7v-37h7zM1088 1177h-6l-4 -25h6zM1069 1159v26h-6v-26h6zM1054 1167v22h-7v-22h7zM1039 1171v21h-7v-21h7zM1149 1014v94
h-6v-94h6zM1024 1188h-7l-4 -17h6zM1134 984v155h-6v-155h6zM1004 1167v22h-6v-22h6zM989 1163v26h-7v-26h7zM1119 968v136h-7v-136h7zM974 1155v26h-7v-26h7zM1104 1108h-7l-4 -155h7zM959 1177h-7l-4 -29h7zM1088 1116h-6l-4 -171h7zM1069 938v182h-6v-182h6zM943 1162h-6
l-4 -33h6zM1054 938v186h-7v-186h7zM1039 938v186h-7v-186h7zM1022 941v183h-7v-183h7zM1004 941v183h-6v-183h6zM989 945v179h-7v-179h7zM974 949v171h-7v-171h7zM959 1116h-7l-4 -163h7zM924 976v170h-7v-170h7zM943 961l-4 147h-6l4 -147h6zM909 995v132h-7v-132h7z
M894 1041v52h-7v-52h7zM657 1136l-4 37h-7l4 -37h7zM672 1113l-4 45h-7l4 -45h7zM638 1152v29h-7v-29h7zM622 1155v30h-6v-30h6zM607 1163v26h-7v-26h7zM592 1192h-7l-4 -21h7zM703 1010v102h-7v-102h7zM577 1188h-7l-4 -17h6zM687 1143h-6l-4 -163h6zM557 1167v22h-6v-22h6
zM542 1189h-6l-4 -26h6zM672 1104h-7l-4 -140h7zM527 1185h-7l-4 -30h7zM653 949v163h-7v-163h7zM641 945l-3 175h-7l4 -175h6zM512 1177h-7l-4 -33h7zM622 938v182h-6v-182h6zM496 1166h-6l-4 -37h6zM605 938v186h-7v-186h7zM592 938v186h-7v-186h7zM575 941v183h-7v-183h7
zM557 941v183h-6v-183h6zM542 1124h-7l-3 -179h6zM527 945v175h-7v-175h7zM512 1116h-7l-4 -163h7zM474 975v176l-6 -171zM496 957v151h-6v-151h6zM462 991v140h-7v-140h7zM447 1029v75h-7v-75h7zM1568 1109q-11 4 -31.5 9.5t-56.5 5.5q-29 0 -98 -14q19 60 95 60
q23 0 55 -19q36 -21 36 -42z" />
  </g>

</svg>
