<?xml version="1.0" standalone="no"?>
<!DOCTYPE svg PUBLIC "-//W3C//DTD SVG 1.1//EN" "http://www.w3.org/Graphics/SVG/1.1/DTD/svg11.dtd" >
<svg viewBox="0 -442 2048 2048">
  <g transform="matrix(1 0 0 -1 0 1606)">
   <path fill="currentColor"
d="M1934 1490q0 -11 -8 -14.5t-80 -27t-76 -23.5q-8 0 -16 8v21q2 4 8 10q4 2 73 24.5t74 22.5q25 0 25 -21zM1934 1243q0 -21 -23 -21q-21 0 -157 57v5q-1 13 4 24q16 4 12 4q31 0 151 -50q13 -5 13 -19zM1352 1445q0 -20 -17 -20q-29 0 -163 56v18q12 12 24 12
q4 0 73 -22.5t74 -24.5q9 -5 9 -19zM1352 1291q0 -14 -9 -19q-13 -7 -76 -28.5t-73 -21.5q-23 0 -23 22q0 12 13 18q8 4 77.5 27t73.5 23q17 0 17 -21zM845 1490q0 -10 -9 -15q-170 -50 -157 -50q-8 0 -14 8v25q142 53 155 53q25 0 25 -21zM845 1243q0 -21 -23 -21
q-31 0 -157 57v5q-1 13 4 24q16 4 12 4q31 0 151 -50q13 -5 13 -19zM262 1436q-9 -11 -16 -11q-30 0 -164 56v18q11 12 23 12t79 -24.5t78 -32.5v-18zM1934 581q0 -7 -9.5 -19t-15.5 -12h-178v-852q0 -23 -16.5 -30t-77.5 -7q-11 0 -33 1t-33 1q-124 0 -131 1q-28 4 -28 28
v857h-808v-854q0 -33 -96 -33q-191 0 -199 2q-24 5 -24 28v858h-178q-7 0 -16 10.5t-9 17.5v491q0 7 11 19.5t18 12.5h176v94h131l3 3v22q-110 45 -110 147q0 62 43 105t104 43q59 0 102.5 -44.5t43.5 -103.5q0 -100 -105 -148v-23h105v-94h804v92h106l3 4v21
q-46 16 -77.5 58t-31.5 90q0 58 46 103t104 45q59 0 103 -44.5t44 -103.5q0 -112 -110 -148v-23h132v-95h174q9 0 21 -12.5t12 -21.5v-486zM262 1290q0 -14 -8 -18q-3 -2 -75 -26t-74 -24q-23 0 -23 22q0 12 12 18q8 4 78 27t74 23q16 0 16 -22zM1660 1367q0 43 -29.5 75
t-72.5 32q-44 0 -74.5 -31.5t-30.5 -75.5q0 -45 29 -74.5t74 -29.5t74.5 29.5t29.5 74.5zM1659 1102v48h-175v-48h175zM1858 625v233l-142 -233h142zM1828 1026h-130l-245 -401h134zM1573 1026h-134l-245 -401h142zM1314 1026h-134l-241 -401h138zM563 1367q0 43 -31 75
t-74 32q-44 0 -73 -31.5t-29 -75.5q0 -104 100 -104q47 0 77 28.5t30 75.5zM1659 -261v784h-172v-784h172zM1051 1026h-130l-238 -401h127zM532 1102v48h-175v-48h175zM796 1026h-134l-242 -401h134zM536 1026h-134l-241 -401h134zM277 1026h-119v-198zM529 -261v784h-172
v-784h172z" />
  </g>

</svg>
