<?xml version="1.0" standalone="no"?>
<!DOCTYPE svg PUBLIC "-//W3C//DTD SVG 1.1//EN" "http://www.w3.org/Graphics/SVG/1.1/DTD/svg11.dtd" >
<svg viewBox="0 -442 2048 2048">
  <g transform="matrix(1 0 0 -1 0 1606)">
   <path fill="currentColor"
d="M1234 1165q0 -55 -35.5 -90t-90.5 -35q-54 0 -89.5 34.5t-35.5 88.5q0 51 37 89.5t88 38.5q50 0 88 -38t38 -88zM1962 220q0 -32 -33 -42l-58 -14q-23 -9 -111 -73q-63 -46 -133 -46q-64 0 -152.5 63t-122.5 63q-33 0 -121.5 -63t-153.5 -63q-27 0 -110 31
q-6 -1 -28 -26.5t-51 -25.5q-52 0 -52 50q0 24 37 63q-18 34 -76 34q-28 0 -118.5 -63t-156.5 -63q-120 0 -282 189q-158 185 -158 308q0 58 52 58q29 0 75 -10q61 -13 75 -15q207 -28 396 -28q0 46 11 68q16 31 113 149q91 111 127 146.5t91 35.5q34 0 247 -14
q83 -3 245 -20q86 -16 86 -103q0 -37 -52 -98q-40 -42 -81 -85q-37 -39 -71 -80l344 -4q7 0 27.5 -16t20.5 -22v-261q72 27 106 27q68 0 68 -50zM1401 708l-338 23l-153 -188h326q15 0 165 165zM1700 172q-16 19 -16 27v238h-379q-24 0 -265 -281q41 -6 34 -6q43 0 122 60
t156 60q79 0 159.5 -60t117.5 -60q28 0 71 22zM1145 442l-461 -1q-52 0 -197 13l-274 25q25 -78 128 -198q113 -131 181 -131q40 0 118.5 60t158.5 60q67 0 150 -52z" />
  </g>

</svg>
