<?xml version="1.0" standalone="no"?>
<!DOCTYPE svg PUBLIC "-//W3C//DTD SVG 1.1//EN" "http://www.w3.org/Graphics/SVG/1.1/DTD/svg11.dtd" >
<svg viewBox="0 -442 2048 2048">
  <g transform="matrix(1 0 0 -1 0 1606)">
   <path fill="currentColor"
d="M1734 636q0 -341 -243.5 -584t-584.5 -243t-582.5 243t-241.5 584q0 342 241 584.5t583 242.5q343 0 585.5 -242t242.5 -585zM1389 1188q-207 181 -483 181q-303 0 -517 -215t-214 -518q0 -273 181 -481zM1640 636q0 277 -185 486l-1033 -1033q208 -186 484 -186
q302 0 518 215.5t216 517.5zM1063 1099q0 -45 -31 -76.5t-75 -31.5q-47 0 -78.5 31.5t-31.5 78.5q0 43 33.5 76.5t76.5 33.5q45 0 75.5 -33.5t30.5 -78.5zM1208 671l-163 -2l141 142q22 -77 22 -140zM1110 952l-190 -190q-19 58 -51 79q-41 27 -351 117v13h563q14 -6 29 -19
zM1208 639l-54 -599h-12l-93 387l-193 -382h-15l72 493l114 114zM670 813q-15 -41 -58 -89q-30 -33 -37 -88q-23 3 -35 7q-34 12 -35 12q-19 0 -54.5 -11.5t-54.5 -11.5q-64 0 -109 87q98 61 110 142q40 -18 93 -29q8 2 46 20q31 15 45 15q16 0 28 -20q14 -25 28 -32
q11 -1 33 -2zM587 818l-9 15q-10 -3 -27 -11q21 -3 36 -4zM619 782q-124 9 -197 33q-21 -57 -90 -107q31 -42 64 -42q19 0 54.5 11.5t54.5 11.5q9 0 42 -13q7 30 29 56t43 50z" />
  </g>

</svg>
