<?xml version="1.0" standalone="no"?>
<!DOCTYPE svg PUBLIC "-//W3C//DTD SVG 1.1//EN" "http://www.w3.org/Graphics/SVG/1.1/DTD/svg11.dtd" >
<svg viewBox="0 -442 2048 2048">
  <g transform="matrix(1 0 0 -1 0 1606)">
   <path fill="currentColor"
d="M626 1359q0 -53 -39.5 -92t-92.5 -39t-92.5 39.5t-39.5 92.5q0 54 39 91.5t93 37.5q55 0 93.5 -37.5t38.5 -92.5zM1230 -281q0 -5 -2 -10q-115 -62 -116 -62q-16 0 -78 132q-81 177 -249 518q-4 7 -11 7t-52.5 -49.5t-49.5 -60.5q-17 -48 -99 -386q-9 -53 -34 -140
q-3 -6 -14 -17q-51 11 -151 35q-12 20 -12 32q0 8 36 178q24 125 80 373q2 7 34 70q125 244 125 275q0 34 -95 182h-15q-21 -45 -66 -115q-10 -10 -145 -67.5t-150 -57.5q6 0 -24 1q-30 60 -30 73t5 19q20 26 179 133q23 13 47 28t36 36q5 10 20 72q18 78 39 152q7 29 14 59
q11 31 34 49q7 5 48 18q28 11 55 21q37 14 56 14q37 0 181 -59q95 -40 190 -81q31 -9 61 -19q35 -13 43 -43q25 -91 25 -390q0 -42 -28 -42q-6 0 -17 1t-17 1q-15 0 -27 -5q-21 19 -39 141l-20 158q-3 24 -11 57q-3 8 -15 18h-74q-2 -4 -2 -10q0 -15 23 -120q19 -81 55 -242
q-9 -15 -15 -33q272 -841 272 -844z" />
  </g>

</svg>
