<?xml version="1.0" standalone="no"?>
<!DOCTYPE svg PUBLIC "-//W3C//DTD SVG 1.1//EN" "http://www.w3.org/Graphics/SVG/1.1/DTD/svg11.dtd" >
<svg viewBox="0 -442 2154 2048">
  <g transform="matrix(1 0 0 -1 0 1606)">
   <path fill="currentColor"
d="M1867 1349q0 -55 -43.5 -96.5t-98.5 -41.5q-57 0 -99 40.5t-42 97.5t42 98.5t99 41.5q59 0 100.5 -40.5t41.5 -99.5zM2154 563q0 -63 -54 -63q-42 0 -62 39q-8 16 -42 160q-1 6 -68 229l-40 -3l184 -642q3 -10 -13 -35h-159v-527q0 -53 -81 -53q-17 0 -43.5 20.5
t-26.5 37.5v522h-43v-523q0 -17 -23.5 -37t-41.5 -20q-28 0 -56 13q-34 16 -34 40v526h-144q-21 22 -17 36l164 642q-7 3 -29 3q-2 0 -4 -1q-44 -184 -105 -395q-21 -32 -56 -32q-63 0 -63 68q0 28 57 232q54 199 72 242.5t60 76.5q45 37 89 37h295q46 0 94 -45
q43 -40 59 -88q131 -383 131 -460zM645 1349q0 -55 -42 -96.5t-97 -41.5q-57 0 -100 40.5t-43 97.5t43 98.5t100 41.5q59 0 99 -40.5t40 -99.5zM1149 -392h-81v1941h81v-1941zM878 462q0 -16 -29 -32t-47 -16q-22 0 -48 21t-26 43v421h-36v-1171q0 -21 -30 -40.5t-52 -19.5
q-91 0 -91 72v668q-7 9 -20 9q-15 0 -23 -9v-681q0 -10 -28 -34.5t-39 -24.5q-38 0 -69 17q-38 20 -38 55v1159h-36v-437q0 -52 -76 -52q-78 0 -78 56v515q0 68 66 127q63 57 132 57h400q49 0 108.5 -59t59.5 -108v-536z" />
  </g>

</svg>
