<?xml version="1.0" standalone="no"?>
<!DOCTYPE svg PUBLIC "-//W3C//DTD SVG 1.1//EN" "http://www.w3.org/Graphics/SVG/1.1/DTD/svg11.dtd" >
<svg viewBox="0 -442 2048 2048">
  <g transform="matrix(1 0 0 -1 0 1606)">
   <path fill="currentColor"
d="M1137 780q0 -27 -113 -138q-135 -133 -143 -143q-28 -37 -28 -130q0 -52 -25 -72q-20 -16 -34 -16h-346q-11 0 -33 11q-27 14 -30 87q-4 85 -32.5 121t-172.5 176q-51 50 -55 55q-25 31 -25 72q0 74 105 74q27 0 98 -66t75 -66h149q3 12 3 38q0 3 -48 60q-51 60 -57 78
q-13 37 -13 92q0 65 20 101q4 7 21 27q68 80 155 80h32q68 0 126 -59t58 -127v-40q0 -67 -36 -115q-42 -45 -83 -89v-46h164q138 130 151 130h68q24 0 38 -37q11 -29 11 -58zM1031 -59q0 -30 -32 -69q-23 -28 -95 -102q-81 -83 -94 -87q-6 -2 -13 -2q-26 0 -45 2
q-34 22 -34 33v72q0 -1 40 46.5t40 78.5q0 25 -23 57q-19 25 -39 50v75q0 5 30 38t38 37q23 12 68 12q16 0 70 -52q50 -47 65 -69q24 -35 24 -120zM519 -290l-29 -28h-62q-8 0 -94 91q-76 80 -102 110.5t-26 114.5q0 49 136 175q26 8 64 8q13 0 53 -37.5t40 -50.5v-73
q0 -3 -33.5 -46t-33.5 -62q0 -28 43.5 -78t43.5 -53v-71z" />
  </g>

</svg>
