<?xml version="1.0" standalone="no"?>
<!DOCTYPE svg PUBLIC "-//W3C//DTD SVG 1.1//EN" "http://www.w3.org/Graphics/SVG/1.1/DTD/svg11.dtd" >
<svg viewBox="0 -442 2048 2048">
  <g transform="matrix(1 0 0 -1 0 1606)">
   <path fill="currentColor"
d="M1113 838q0 -51 -42 -51h-947q-15 0 -28.5 17.5t-13.5 33.5q0 36 39 44q9 2 66 2q11 0 17 1q36 95 132 174q100 81 198 88l13 7v204h96v-204q14 -5 76 -20q83 -19 163 -95q76 -71 109 -154h20q14 1 19 1q83 0 83 -48zM919 616q0 -51 -50 -51q-30 0 -50 48q-16 40 -16 75
q0 17 17.5 31.5t35.5 14.5q28 0 47 -47q16 -38 16 -71zM735 608q0 -67 -48 -67q-53 0 -53 103q0 66 48 66q53 0 53 -102zM977 347q0 -48 -50 -48q-29 0 -49 45q-17 38 -17 71q0 53 51 53q32 0 51 -47q14 -36 14 -74zM561 662q0 -121 -53 -121q-19 0 -36 14t-17 32
q0 123 58 123q16 0 32 -16t16 -32zM1031 81q0 -49 -49 -49q-28 0 -37 16q-26 44 -26 103q0 46 51 46q30 0 39 -21q22 -53 22 -95zM755 340q0 -75 -46 -75q-51 0 -51 89q0 43 4 54q8 26 42 26q51 0 51 -94zM387 683q0 -34 -15 -72q-19 -46 -48 -46q-48 0 -48 51q0 37 14 72
q18 46 49 46q18 0 33 -16t15 -35zM1089 -188q0 -51 -51 -51q-28 0 -46 48q-15 39 -15 73q0 49 46 49q32 0 44 -21q22 -38 22 -98zM542 370q0 -105 -53 -105q-19 0 -36.5 14.5t-17.5 33.5q0 121 56 121q51 0 51 -64zM774 59q0 -65 -51 -65q-46 0 -46 82q0 92 41 92
q56 0 56 -109zM329 415q0 -47 -21 -95q-9 -21 -42 -21q-48 0 -48 48q0 36 14 71q18 45 48 45q49 0 49 -48zM793 -214q0 -63 -45 -63q-56 0 -56 108q0 61 51 61q50 0 50 -106zM518 103q0 -109 -54 -109q-48 0 -48 66q0 103 53 103q49 0 49 -60zM276 148q0 -10 -11 -51
t-16 -49q-13 -21 -39 -21q-51 0 -51 51q0 31 17 71q20 48 46 48q19 0 36.5 -15t17.5 -34zM503 -156q0 -121 -56 -121q-47 0 -47 73q0 96 52 96q19 0 35 -15t16 -33zM218 -118q0 -33 -16 -73q-19 -48 -47 -48q-19 0 -36.5 15t-17.5 34q0 11 10.5 51t15.5 49q13 21 40 21
q19 0 35 -15t16 -34zM880 885q-102 169 -285 169q-185 0 -280 -169h565z" />
  </g>

</svg>
