<?xml version="1.0" standalone="no"?>
<!DOCTYPE svg PUBLIC "-//W3C//DTD SVG 1.1//EN" "http://www.w3.org/Graphics/SVG/1.1/DTD/svg11.dtd" >
<svg viewBox="0 -442 2048 2048">
  <g transform="matrix(1 0 0 -1 0 1606)">
   <path fill="currentColor"
d="M682 1349q0 -55 -43.5 -96.5t-98.5 -41.5q-57 0 -99.5 40.5t-42.5 97.5t42.5 98.5t99.5 41.5q59 0 100.5 -40.5t41.5 -99.5zM968 563q0 -63 -54 -63q-41 0 -61 39q-8 16 -42 160q-1 6 -68 229l-40 -3l184 -642q3 -10 -13 -35h-159v-527q0 -53 -81 -53q-17 0 -43.5 20.5
t-26.5 37.5v522h-43v-523q0 -17 -23.5 -37t-41.5 -20q-28 0 -56 13q-34 16 -34 40v526h-144q-21 22 -17 36l163 642q-7 3 -28 3q-2 0 -4 -1q-44 -184 -106 -395q-21 -32 -55 -32q-63 0 -63 68q0 28 57 232q54 199 72 242.5t60 76.5q45 37 89 37h295q46 0 94 -45
q43 -40 59 -88q130 -380 130 -460z" />
  </g>

</svg>
