<?xml version="1.0" standalone="no"?>
<!DOCTYPE svg PUBLIC "-//W3C//DTD SVG 1.1//EN" "http://www.w3.org/Graphics/SVG/1.1/DTD/svg11.dtd" >
<svg viewBox="0 -442 2048 2048">
  <g transform="matrix(1 0 0 -1 0 1606)">
   <path fill="currentColor"
d="M1263 1299q0 -56 -39 -95t-95 -39q-54 0 -91.5 40t-37.5 94q0 55 38 92t94 37q57 0 94 -36t37 -93zM1333 628q0 -18 -27.5 -45t-45.5 -27h-255v-256q0 -5 -11 -28q-24 -49 -85 -49q-32 0 -64 26t-32 57v355q0 30 31 58.5t61 28.5h240v183h-324q-32 0 -56 33
q-22 30 -22 63q0 39 27 67.5t65 28.5h406q24 0 58 -24.5t34 -47.5v-423zM1572 10q0 -131 -92.5 -223.5t-223.5 -92.5q-127 0 -219.5 93.5t-92.5 220.5q0 131 91.5 225t222.5 94q130 0 222 -93.5t92 -223.5zM715 610q0 -128 -95.5 -222t-223.5 -94q-131 0 -222.5 93.5
t-91.5 224.5q0 124 96 219t220 95q128 0 222.5 -94t94.5 -222zM1474 13q0 92 -62.5 153.5t-155.5 61.5q-90 0 -156.5 -62.5t-66.5 -152.5t66.5 -157.5t156.5 -67.5q92 0 155 66t63 159zM616 610q0 92 -63.5 157.5t-154.5 65.5q-89 0 -155.5 -67t-66.5 -156t64.5 -153.5
t153.5 -64.5q96 0 159 61t63 157z" />
  </g>

</svg>
