<?xml version="1.0" standalone="no"?>
<!DOCTYPE svg PUBLIC "-//W3C//DTD SVG 1.1//EN" "http://www.w3.org/Graphics/SVG/1.1/DTD/svg11.dtd" >
<svg viewBox="0 -442 2048 2048">
  <g transform="matrix(1 0 0 -1 0 1606)">
   <path fill="currentColor"
d="M1121 1347q0 -58 -44 -100.5t-102 -42.5t-99 42.5t-41 100.5q0 59 42 100.5t101 41.5q56 0 99.5 -43t43.5 -99zM540 1110q0 -57 -37 -92.5t-94 -35.5q-53 0 -91.5 37.5t-38.5 90.5q0 52 40.5 92.5t92.5 40.5q54 0 91 -39.5t37 -93.5zM1440 521q-145 -31 -200 -64
q-16 -268 -16 -314q0 -33 25 -85q21 -40 42 -81q40 -87 125 -258q-51 -36 -107 -60q-78 141 -157 282q-85 164 -100 304l-13 4q-12 0 -34 -62q-35 -100 -51 -254q-26 -255 -27 -259q-33 8 -126 20q2 29 13 267q7 162 27 266q10 50 37 127q75 213 75 200q0 44 -57 217
q-11 -20 -43 -53q-25 -16 -78 -30l-84 -22q-14 -21 -14 -47l3 -1l31 10l40 -161q-56 -13 -168 -35q1 -3 -4 -9l74 -207q-30 -8 -89 -25l148 -412q-20 -21 -62 -42q-64 150 -192 449h-73q-99 -251 -171 -453q-18 7 -53 20l108 454q-12 11 -39 19q114 314 114 375q0 30 -14 42
q-10 0 -22 -31q-14 -39 -17 -42q-18 -23 -80 -63l-92 -56q-19 10 -37 37q39 36 79 72q47 45 67 82t40.5 120.5t41.5 120.5q5 10 40 47.5t40 37.5t16 -2.5t16 -2.5q12 0 34.5 7.5t34.5 7.5q16 0 56 -26q37 -24 49 -39q20 -26 41 -83q26 -74 34 -89l74 24q41 14 64 44
q11 15 45 135q35 126 51 155q2 4 59 68q20 -1 60 4q5 2 28 13q20 10 27 10q36 0 95 -42q25 -18 47 -60q16 -36 33 -71q30 -53 59 -106q43 -79 43 -104q0 13 -14 -91q6 -8 14 -8q6 0 17.5 4t16.5 5zM1268 786q0 10 -31.5 58t-38.5 48q-8 0 -18 -7l40 -202q9 2 28 5
q2 12 12 49q8 30 8 49zM604 663q0 -10 -22 54q-9 -7 -25.5 -45t-16.5 -51q0 -12 11 -22q17 0 31 10q22 51 22 54z" />
  </g>

</svg>
