<?xml version="1.0" standalone="no"?>
<!DOCTYPE svg PUBLIC "-//W3C//DTD SVG 1.1//EN" "http://www.w3.org/Graphics/SVG/1.1/DTD/svg11.dtd" >
<svg viewBox="0 -442 2048 2048">
  <g transform="matrix(1 0 0 -1 0 1606)">
   <path fill="currentColor"
d="M1962 379q-3 -5 -12 -5q-7 0 -25 19q-2 -2 -2 -6q0 -11 4 -37t4 -40q0 -146 -108 -251t-254 -105q-118 0 -210.5 69.5t-131.5 182.5q-9 -2 -139 -28q-24 -32 -41 -76q4 -3 18 -4q8 -7 8 -29t-8 -31h-112q-13 15 -13 31q0 29 22 30t44 1q25 43 41 85q-54 41 -54 88
q0 23 23 53l-333 322q-6 -4 -6 -13q0 -7 51 -71q54 -67 62 -92q24 -78 24 -182q0 -61 -13 -86l-14 -3q-31 -66 -62 -109q-45 -62 -124 -100t-158 -38q-149 0 -255 107t-106 256q0 143 92 242q89 96 233 119q0 7 -12 18q12 21 29 21q30 0 93 -16q68 -18 86 -34h10l114 295
q-50 31 -50 103q0 27 54 81q3 2 11 2q15 0 28.5 -14.5t13.5 -29.5q0 -12 -16 -32q-13 -15 -25 -30q-5 -7 -5 -9q0 -17 26 -23q30 -7 35 -16q1 -14 1 -20q0 -19 -26 -82q-18 -44 -36 -87l403 -317q5 0 8 7t45 110q53 130 85 205q-6 9 -53 31q-42 20 -42 34q0 32 72 32
q33 0 91 -4q65 -4 91 -5q20 -20 20 -40q0 -24 -40 -44q-34 -17 -61 -17q-5 0 -15 2t-15 2q-6 0 -23 -37.5t-17 -46.5q0 -15 56 -88l18 12q65 41 102 53q44 15 120 15q70 0 99 -9q63 -20 133 -77q66 -54 103 -113q27 -42 38 -92q1 -13 6 -39zM1843 451q-98 167 -272 167
q-102 0 -166 -52q47 -67 146 -176q12 -1 34 -6l41 -25zM1508 383l-143 158q-73 -69 -97 -170zM1874 315q0 30 -16 104q-87 -30 -223 -89q-14 -13 -46 -35q-11 -5 -84 -23t-222 -52q25 -94 107 -152q79 -56 179 -56q127 0 216 88t89 215zM1314 616q-28 35 -48 55l-108 -308
h45q0 119 111 253zM1542 310q-8 8 -8 18l-266 -47q4 -20 4 -36zM1123 431l-403 309q-3 -12 -12 -35l351 -350q32 -1 45 24q10 26 19 52zM1218 234q-4 12 -4 33h-25q-4 -12 -12 -37q28 4 41 4zM746 320q0 123 -109 229q-15 -41 -53 -119q-45 -37 -97 -105l254 -46q0 6 2.5 20
t2.5 21zM578 586q-31 11 -95 31l-34 -235q43 30 75 94zM738 248q-73 11 -219 34q-43 3 -107 13q-13 4 -13 25q0 10 7.5 24.5t9.5 19.5q7 25 21.5 125t14.5 128h-55q-30 0 -89 -29q-77 -38 -124.5 -112.5t-47.5 -160.5q0 -128 89.5 -215.5t217.5 -87.5q111 0 190 63.5
t105 172.5z" />
  </g>

</svg>
