<?xml version="1.0" standalone="no"?>
<!DOCTYPE svg PUBLIC "-//W3C//DTD SVG 1.1//EN" "http://www.w3.org/Graphics/SVG/1.1/DTD/svg11.dtd" >
<svg viewBox="0 -442 2048 2048">
  <g transform="matrix(1 0 0 -1 0 1606)">
   <path fill="currentColor"
d="M900 1182q0 -54 -40 -92.5t-94 -38.5q-58 0 -96 36.5t-38 94.5q0 56 39 96.5t95 40.5q52 0 93 -42t41 -95zM1795 58q0 -131 -95.5 -224.5t-227.5 -93.5q-135 0 -226.5 92.5t-91.5 227.5q0 130 94 225.5t224 95.5q134 0 228.5 -94.5t94.5 -228.5zM1182 601q0 -30 -12 -47
q-17 -24 -104 -85l-118 -82q9 -22 87 -131q66 -95 66 -124q0 -38 -30.5 -67t-69.5 -29q-36 0 -62 22q-23 19 -112 157q-34 47 -69 93q-45 65 -45 99q0 37 17 59q21 27 102 83q58 40 116 79l-104 155q-77 -51 -153 -103q-120 -79 -145 -79q-37 0 -66.5 30.5t-29.5 67.5
q0 32 17.5 54.5t161.5 122.5q131 91 181 120q28 16 57 16q32 0 56 -16q17 -11 129 -171.5t123 -186.5q7 -17 7 -37zM723 58q0 -135 -92.5 -226.5t-227.5 -91.5q-131 0 -226 94.5t-95 225.5q0 133 95 227t228 94q131 0 224.5 -95.5t93.5 -227.5zM1699 60q0 95 -66 160
t-161 65q-94 0 -160.5 -65.5t-66.5 -159.5t66.5 -159.5t160.5 -65.5t160.5 65.5t66.5 159.5zM632 60q0 94 -66 159.5t-161 65.5q-96 0 -161.5 -65.5t-65.5 -161.5q0 -93 67 -158t160 -65q94 0 160.5 65.5t66.5 159.5z" />
  </g>

</svg>
