<?xml version="1.0" standalone="no"?>
<!DOCTYPE svg PUBLIC "-//W3C//DTD SVG 1.1//EN" "http://www.w3.org/Graphics/SVG/1.1/DTD/svg11.dtd" >
<svg viewBox="0 -442 2048 2048">
  <g transform="matrix(1 0 0 -1 0 1606)">
   <path fill="currentColor"
d="M1742 596q0 -344 -243 -588.5t-587 -244.5q-345 0 -587.5 245t-242.5 590q0 347 241.5 588.5t588.5 241.5q349 0 589.5 -241.5t240.5 -590.5zM1635 614q0 290 -222 498q-218 204 -510 204q-234 0 -420 -142l987 -1028q165 241 165 468zM1383 59l-986 1033
q-217 -213 -217 -494q0 -291 215.5 -511.5t505.5 -220.5q261 0 482 193zM847 1067q0 -36 -27 -61t-64 -25q-35 0 -63 25.5t-28 60.5q0 36 27.5 63.5t63.5 27.5t63.5 -27.5t27.5 -63.5zM1131 571h-59l-28 233h-72l-4 -7l41 -152l-265 277q28 45 94 45q43 0 146 -50
q74 -36 147 -73v-273zM758 691q0 -3 -21 -40q-115 -48 -190 -85h-17q-5 22 -23 58q60 29 169 96q17 13 18 32q64 -48 64 -61zM1159 73q-26 -16 -77 -48l-177 405q-42 -44 -52 -56q-28 -32 -42 -64q-23 -52 -43 -141q-26 -119 -34 -144q-32 12 -97 38v14q0 28 36 155
q33 118 49 159q18 46 57 106q32 50 65 101q53 -51 107 -103q64 -61 94 -113q34 -57 64 -152q25 -78 50 -157z" />
  </g>

</svg>
