<?xml version="1.0" standalone="no"?>
<!DOCTYPE svg PUBLIC "-//W3C//DTD SVG 1.1//EN" "http://www.w3.org/Graphics/SVG/1.1/DTD/svg11.dtd" >
<svg viewBox="0 -442 2048 2048">
  <g transform="matrix(1 0 0 -1 0 1606)">
   <path fill="currentColor"
d="M1659 641q0 -330 -229 -560.5t-559 -230.5t-559.5 230t-229.5 561t229.5 561t559.5 230t559 -230t229 -561zM1546 641q0 283 -198 483t-480 200q-287 0 -484.5 -200.5t-197.5 -487.5q0 -286 197.5 -486.5t482.5 -200.5q288 0 485 203q195 200 195 489zM1277 194h-272v171
q0 14 -15.5 29.5t-29.5 15.5q-32 0 -59 -43q-43 -67 -56 -79q-43 -43 -113 -43q-76 0 -130 54q-13 14 -86 116h-156v258h180q9 14 12.5 54.5t11.5 57.5q23 50 93 95v86h-167q-17 0 -30 25q-11 22 -11 41q0 32 23 53.5t55 21.5h390q26 0 45 -23.5t19 -49.5q0 -14 -18.5 -41
t-31.5 -27h-144l-4 -3v-79q87 -32 100 -76q7 -61 13 -121q10 -2 78 -7q96 -7 180 -67q88 -64 111 -153q12 -47 12 -52v-214zM1193 279v111q0 65 -75 136.5t-140 71.5h-167v131q0 29 -27.5 53t-56.5 24q-18 0 -51.5 -24t-33.5 -41v-143h-187v-102q15 0 44 -1.5t42 -1.5
q51 0 92.5 -81.5t95.5 -81.5q30 0 100 82.5t124 82.5q142 0 142 -216h98z" />
  </g>

</svg>
