<?xml version="1.0" standalone="no"?>
<!DOCTYPE svg PUBLIC "-//W3C//DTD SVG 1.1//EN" "http://www.w3.org/Graphics/SVG/1.1/DTD/svg11.dtd" >
<svg viewBox="0 -442 2048 2048">
  <g transform="matrix(1 0 0 -1 0 1606)">
   <path fill="currentColor"
d="M1724 612q0 -340 -240.5 -581.5t-580.5 -241.5t-580.5 241.5t-240.5 581.5q0 345 238.5 584t582.5 239t582.5 -239t238.5 -584zM1618 630q0 287 -220 492q-215 202 -504 202q-231 0 -415 -140l229 -237l-36 43q0 58 100 58q35 0 76 -22v-17q-10 -12 -21 -12
q-14 0 -39.5 7t-39.5 7q-18 0 -34 -26q28 -30 28 -32q0 -15 -12 -25l-11 8q53 -68 62 -68l260 5l4 26q-77 1 -114 45q13 16 26 16h123q14 0 39.5 7t39.5 7q19 0 35 -16v-14q-20 -22 -50 -29q-45 -11 -55 -16q-11 -30 -11 -31q0 -14 90 -115q67 41 136 41q99 0 174 -75
t75 -174q0 -154 -155 -228q-34 -16 -52 -16t-42 33q90 8 148 62q60 58 60 147q0 87 -61.5 148.5t-148.5 61.5q-79 0 -109 -40l108 -131q2 1 6 1q14 0 26.5 -14t12.5 -29q0 -41 -44 -41q-14 0 -25 9t-14 9q-22 0 -113 -23l-35 35q4 2 9 7q53 5 139 24q-35 44 -109 128
q-29 -29 -61 -129q-33 19 -33 37q0 29 69 129l-63 83q-32 -105 -62 -174l450 -467q164 241 164 463zM1022 834h-207l160 -169zM761 718l-48 53l-5 -3l48 -53zM849 626l-48 53l-5 -3l47 -53zM1369 81l-511 533q13 -25 48 -71q6 -3 16 -11q3 -3 64 -63l-22 -20t-29 -10
q-26 0 -36 17q-1 11 -7 33q-11 27 -213 296q-16 -46 -16 -53q0 3 39.5 -65.5t39.5 -123.5q0 -102 -74 -174.5t-176 -72.5q-103 0 -176 72t-73 175q0 99 74 175t173 76q80 0 134 -41q9 24 28 73l24 -22l-283 299q-214 -229 -214 -489q0 -287 213 -505.5t499 -218.5
q258 0 478 191zM700 540q0 83 -54 134q-18 -54 -44 -88q-9 -12 -55 -49.5t-55 -37.5q-41 0 -41 41q0 46 41 46q6 0 15 -6.5t15 -6.5q25 0 56 59q26 47 34 82q-69 39 -122 39q-85 0 -145 -62.5t-60 -147.5q0 -89 59 -147.5t148 -58.5q88 0 148 57.5t60 145.5z" />
  </g>

</svg>
