<?xml version="1.0" standalone="no"?>
<!DOCTYPE svg PUBLIC "-//W3C//DTD SVG 1.1//EN" "http://www.w3.org/Graphics/SVG/1.1/DTD/svg11.dtd" >
<svg viewBox="0 -442 2048 2048">
  <g transform="matrix(1 0 0 -1 0 1606)">
   <path fill="currentColor"
d="M1091 970q-49 -32 -154 -32q-231 0 -231 298q0 127 51 205q60 93 180 93q96 0 154 -31l-25 -101q-42 34 -127 34q-57 0 -97 -37.5t-49 -94.5q-4 -26 -4 -69q0 -44 7 -85q8 -49 50.5 -82.5t92.5 -33.5q62 0 127 31zM1986 1242q0 -43 -26 -62l-20 -539q-1 -86 -9 -257
q-1 -16 -31 -45h-225q-3 -40 -13 -119q-17 -94 -51.5 -131.5t-87.5 -72.5q-82 -54 -91 -63q-47 -42 -47 -95q0 -60 24 -74q6 -4 65 -6q50 -3 50 -55q0 18 -5 -65l-43 -26h-891q-2 5 -10 17q-5 7 -5 28q0 25 7 31q20 16 71 32t71 32q30 24 30 50v74q0 17 -48 61
q-64 58 -90 92q-48 65 -48 132q0 8 1.5 24t1.5 24q0 35 -50.5 68.5t-50.5 52.5v97q49 16 42 16h873l2 5l-253 791q4 17 16 39q64 17 56 17q11 0 25 -24q5 -8 42 -122q41 -124 140 -419q24 -79 65 -188v501q-20 7 -57 21v61q9 -6 20 -6q6 0 17.5 3t18.5 3l3 2v34q-9 8 -22 14
v70q26 19 30 19h481q22 -13 22 -42zM680 1525l-114 -577h-85l-98 404l-95 -404h-82l-124 577h86l82 -408l98 408h79l97 -408l80 408h76z" />
  </g>

</svg>
