<?xml version="1.0" standalone="no"?>
<!DOCTYPE svg PUBLIC "-//W3C//DTD SVG 1.1//EN" "http://www.w3.org/Graphics/SVG/1.1/DTD/svg11.dtd" >
<svg viewBox="0 -442 2048 2048">
  <g transform="matrix(1 0 0 -1 0 1606)">
   <path fill="currentColor"
d="M645 1350q0 -55 -42 -96.5t-97 -41.5q-57 0 -100 40.5t-43 97.5t43 98t100 41q59 0 99 -40t40 -99zM878 462q0 -16 -29 -32t-47 -16q-22 0 -48 21t-26 43v422h-36v-1173q0 -21 -30 -40.5t-52 -19.5q-91 0 -91 73v668q-7 9 -20 9q-15 0 -23 -9v-681q0 -10 -28 -34.5
t-39 -24.5q-38 0 -69 17q-38 20 -38 55v1160h-36v-438q0 -52 -76 -52q-78 0 -78 56v515q0 68 66 127q63 57 132 57h400q49 0 108.5 -59t59.5 -108v-536z" />
  </g>

</svg>
