<?xml version="1.0" standalone="no"?>
<!DOCTYPE svg PUBLIC "-//W3C//DTD SVG 1.1//EN" "http://www.w3.org/Graphics/SVG/1.1/DTD/svg11.dtd" >
<svg viewBox="0 -442 2048 2048">
  <g transform="matrix(1 0 0 -1 0 1606)">
   <path fill="currentColor"
d="M1986 1408q0 -17 -28 -34q-9 -2 -27 -9q-11 -233 -35 -698q-4 -106 -19 -257q-4 -15 -34 -32q-1 -1 -222 -14q-145 -486 -145 -503q0 -4 38.5 -42.5t38.5 -42.5v-106q-61 -44 -57 -44h-1134q-27 0 -54 23q-11 10 -11 66t10 71q28 25 55 49q9 70 29 253q-11 8 -30 16
q-187 79 -257 187q-17 26 -17 78q0 21 9 59q-14 20 -14 40q0 50 33 69q-2 27 9 77q6 12 21 22q67 46 173 67q43 9 186 25q117 15 352 34q17 1 58 4q37 4 58 4q89 0 126 -14q15 -14 49 -35q25 -1 72 -11q2 -1 43 -42h22v477q-9 3 -41 3q-45 0 -45 25v112q16 24 39 24
q46 -1 45 -1q4 6 3 38v37l-34 25v94q47 29 54 29h659q22 -30 22 -35v-88zM1946 1426q-1 18 -4 53q-20 18 -32 18h-583q-8 0 -33 -16v-55l29 -19h593q-3 0 30 19zM1881 1373h-541v-710l165 -230h314zM1284 1185v86h-42v-86h42zM1127 551v35q0 31 -20 103q-12 7 -37 18
q-58 14 -144 14q-84 0 -330 -27q-156 -17 -163 -18q-91 -13 -159 -37q-35 -16 -105 -49v-49h823q14 0 40.5 -3t40.5 -3q13 0 54 16zM1230 533q0 4 -26 128h-40q22 -88 22 -115q0 -48 -61 -48h-990q-13 -12 -13 -20q0 -26 23 -26l965 -3q42 0 68 10q52 20 52 74zM1563 358
h-48q-28 0 -36 7q-4 4 -56 74q-41 57 -124 170h-14l-6 -4q0 -9 3 -25.5t3 -24.5v-80q-23 -20 -61 -47q-49 -20 -127 -20h-959v-50q0 1 8 -20q2 -9 8 -25q34 -55 138 -110l164 -78q-40 -316 -46 -324.5t-47 -38.5v-58q33 -16 39 -16q148 0 433 -1q307 -2 433 -2h142
q71 0 88 16v57q-16 19 -41 28q-45 17 -46 18q0 -9 0 55q0 26 107 349q45 136 45 150zM1470 325q0 -41 -66 -88q-55 -39 -105 -54q-27 -8 -107 -25q-87 -17 -102 -16l-143 14q99 23 295 80q47 16 110 53q106 60 107 61q11 -5 11 -25z" />
  </g>

</svg>
