<?xml version="1.0" standalone="no"?>
<!DOCTYPE svg PUBLIC "-//W3C//DTD SVG 1.1//EN" "http://www.w3.org/Graphics/SVG/1.1/DTD/svg11.dtd" >
<svg viewBox="0 -442 2048 2048">
  <g transform="matrix(1 0 0 -1 0 1606)">
   <path fill="currentColor"
d="M1684 568q0 -336 -232 -572.5t-567 -236.5q-333 0 -568 238t-235 571q0 337 232 572.5t569 235.5t569 -235.5t232 -572.5zM1598 570q0 267 -214 480l-415 -440q84 0 176.5 -57t128.5 -132q8 -16 18 -60q8 -34 8 -29v-222h-278v156q0 22 -14 43t-36 21q-29 0 -57 -44
q-44 -66 -59 -80q-45 -44 -115 -44q-77 0 -144 63l-165 -180q240 -185 468 -185q282 0 491 215q207 212 207 495zM1300 1129q-195 136 -405 136q-281 0 -492 -200q-215 -203 -215 -483q0 -234 160 -453l189 195q-10 1 -10 11h-166v269q130 -3 162 -3q22 0 29 4q-1 9 -1 20
q0 118 111 181v90h-169q-17 0 -30 26q-12 22 -12 41q0 31 20 54t50 23h416q21 0 40 -27q16 -25 16 -47q0 -77 -129 -77q-13 0 -35 1q-27 1 -36 1v-81q23 -1 62.5 -34.5t43.5 -56.5zM1213 197v112q0 58 -65 128.5t-123 77.5q-75 9 -117 9q-13 0 -19 -4q-36 -23 -113 -108
q-54 -62 -109 -123q35 -40 72 -40q36 0 101.5 83.5t123.5 83.5q150 0 150 -219h99zM825 625q-35 108 -91 108q-18 0 -52 -24t-34 -41v-147h-191v-104h44q66 0 102 -29z" />
  </g>

</svg>
