<?xml version="1.0" standalone="no"?>
<!DOCTYPE svg PUBLIC "-//W3C//DTD SVG 1.1//EN" "http://www.w3.org/Graphics/SVG/1.1/DTD/svg11.dtd" >
<svg viewBox="0 -442 2048 2048">
  <g transform="matrix(1 0 0 -1 0 1606)">
   <path fill="currentColor"
d="M1407 1108l-143 -242l103 274zM1649 834l-205 -193l165 241zM984 1207l-29 -281l-22 281h51zM678 866l-143 242l40 32zM1556 15q0 -39 -34 -46q-215 -45 -565 -45q-379 0 -569 45q-35 8 -35 46q0 46 34 55q5 89 81 130v38q-37 8 -37 46q0 52 78 85q27 152 133 220
q85 54 253 68q-38 15 -38 45q0 46 89 46q93 0 93 -46q0 -30 -37 -45q170 -14 260 -68q114 -69 141 -220q74 -30 74 -89q0 -24 -36 -41v-38q77 -42 81 -131q34 -8 34 -55zM498 641l-205 193l40 48zM1009 707q0 11 -63 11q-58 0 -58 -11q0 -27 60 -27q61 0 61 27zM1374 360
q-38 158 -154 221q-96 53 -270 49q-8 0 -55 -3q-149 -110 -143 -255l1 -23q97 -7 166 -7q131 0 455 18zM881 620q-190 -102 -196 -264l24 -3q12 101 48.5 156.5t123.5 110.5zM1433 288q0 24 -40 42q-185 -19 -467 -19q-276 0 -394 31q-6 -4 -44 -20q-19 -8 -19 -26
q0 -62 450 -62q514 0 514 54zM883 627q-154 -13 -224 -60q-81 -55 -118 -195l63 -8q8 104 94 176q74 63 185 87z" />
  </g>

</svg>
