<?xml version="1.0" standalone="no"?>
<!DOCTYPE svg PUBLIC "-//W3C//DTD SVG 1.1//EN" "http://www.w3.org/Graphics/SVG/1.1/DTD/svg11.dtd" >
<svg viewBox="0 -442 2340 2048">
  <g transform="matrix(1 0 0 -1 0 1606)">
   <path fill="currentColor"
d="M2281 776q-55 31 -69 31h-143v30h169zM1569 817q-32 -19 -65 -39q-39 -21 -71 -21h-43l139 77q13 -5 40 -17zM2340 -184h-1024q37 90 37 97v819h239v4q0 8 -2 23t-2 23q0 120 68.5 196t187.5 76q118 0 171 -108q34 -70 46 -212h242v-815zM1315 198l-512 -435h-569
q28 33 59 64v1038q27 8 81 22l1 -1q1 2 2 6q0 4 -38 83q-25 51 -72 155q-29 60 -57 121q-35 78 -35 125q0 84 72 84q60 0 82 -32q18 -27 35 -76q26 -72 29 -79q29 -67 106 -228q4 61 9 121q15 71 79 71q90 0 120 -164l76 111h138q8 -14 33 -46q82 139 177 139q70 0 70 -74
q0 -12 -25 -119q3 -2 8 -2q22 0 75 2v-827q18 -20 56 -59zM2009 733v13q0 10 -11 65q-38 188 -156 188q-90 0 -145 -68q-50 -63 -50 -156v-42h362zM1160 1209q0 22 -29 22q-33 0 -77.5 -46.5t-44.5 -79.5v-19h104q47 121 47 123zM2303 -153q-21 61 -21 59v801h-901v-788
q0 -8 -31 -72h953zM1027 956l-116 176l-150 -257zM891 1162h-86l-214 -293h132zM662 1006v78q0 34 -20 68q-23 39 -55 39q-49 0 -49 -77q0 -37 16 -165q108 23 108 57zM246 1429h-10q-12 0 -28.5 -14t-16.5 -25q0 -16 42 -102q-7 23 -7 51q0 44 20 90zM472 957
q-45 133 -169 385q36 -80 97 -243q2 -7 2 -43q0 -13 30 -50q20 -24 40 -49zM1275 204q-37 44 -37 55v742l-681 -251l9 -788l237 -162zM708 -187l-167 119l-14 713l-11 -713l-151 -107l163 74zM500 747l-182 84v-962q8 -6 26 -17l147 97zM677 -206l-152 74l-148 -74h300z
M1972 807h-288q0 5 2 15t2 15h281q0 -21 3 -30zM2018 249h-361v176h361v-176zM1123 504l-232 -131v216l232 103v-188z" />
  </g>

</svg>
