<?xml version="1.0" standalone="no"?>
<!DOCTYPE svg PUBLIC "-//W3C//DTD SVG 1.1//EN" "http://www.w3.org/Graphics/SVG/1.1/DTD/svg11.dtd" >
<svg viewBox="0 -442 2048 2048">
  <g transform="matrix(1 0 0 -1 0 1606)">
   <path fill="currentColor"
d="M1260 309h-1178v1051h1178v-1051zM1215 18q0 -91 -60.5 -150.5t-151.5 -59.5q-127 0 -191 121h-45q-53 0 -62 28h-199q-15 25 -35 45q-91 -46 -101 -46q-15 0 -52 51q-91 -46 -101 -46q-6 0 -43 36.5t-37 43.5q0 10 27 48h643q65 138 198 138q85 0 147.5 -62.5
t62.5 -146.5zM1199 371v927h-1056v-927h1056zM1184 18q0 17 -15.5 31t-32.5 14q-39 0 -39 -43t46 -43q41 0 41 41zM1138 540q0 -15 -19.5 -39t-34.5 -24h-114v607h38q88 0 113 -36q17 -25 17 -47v-461zM923 478h-489v606h92v8q0 7 -1 22t-1 22q0 81 82 81q12 0 36.5 -2.5
t36.5 -2.5q11 0 31.5 1.5t31.5 1.5q75 0 85 -32l4 -94q24 -4 44 -4q21 0 48 4v-611zM382 477h-109q-12 0 -33 26t-21 39v468q0 9 17 33.5t26 28.5q29 12 92 12h28v-607zM791 1085v59q0 6 -17 22h-186q-16 -16 -16 -26v-55h219z" />
  </g>

</svg>
