<?xml version="1.0" standalone="no"?>
<!DOCTYPE svg PUBLIC "-//W3C//DTD SVG 1.1//EN" "http://www.w3.org/Graphics/SVG/1.1/DTD/svg11.dtd" >
<svg viewBox="0 -442 2381 2048">
  <g transform="matrix(1 0 0 -1 0 1606)">
   <path fill="currentColor"
d="M2381 1155h-194v-535q-30 22 -67 35v500h-194l136 330h183zM1932 631q-171 -148 -215 -305h-160l111 401q34 27 63 27q4 0 12 1t12 1q68 0 108 -32q30 -24 69 -93zM2327 -250h-347l140 80v415q37 11 67 34v-449zM1642 742l-120 -416h-186l23 490q63 32 118 32
q110 0 165 -106zM1335 817l-28 -491q-25 1 -76 -2q-9 -1 -35.5 -10t-32.5 -9t-31 9q-28 9 -37 10q-25 0 -76 2l-28 491q-6 109 172 109t172 -109zM990 326h-186l-120 416q55 106 165 106q55 0 118 -32zM2226 454q0 -76 -54.5 -124t-131.5 -48q-9 0 -27 2q-34 -72 -41 -93
q-12 -39 -12 -104q0 -34 10 -100.5t10 -99.5q0 -87 -74 -137q-2 -21 -2 -33v-8h-1482v8q0 12 -2 33q-74 50 -74 137q0 33 10 99.5t10 100.5q0 65 -12 104q-7 21 -41 93q-18 -2 -27 -2q-77 0 -130 47q-56 49 -56 125q0 73 66 123q60 46 136 46q177 0 292 -315h511
q30 0 58 -40q28 40 58 40h511q115 315 292 315q76 0 136 -46q66 -50 66 -123zM769 326h-160q-44 157 -215 305q39 69 69 93q40 32 108 32q4 0 12 -1t12 -1q29 0 63 -27zM1881 638q-40 80 -111 80q-25 0 -66 -15q-92 -313 -92 -321v-15h74q56 151 195 271zM1598 737
q-40 70 -120 70q-32 0 -80 -18q-3 -56 -15 -269q-7 -130 -7 -127v-26h115zM1294 808q5 77 -131 77t-131 -77l28 -444q48 0 69 -5q4 -1 17 -7t17 -6t17 6t17 7q21 5 69 5zM950 367v26q0 -3 -7 127l-15 269q-48 18 -80 18q-80 0 -120 -70l107 -370h115zM2188 449q0 56 -55 96
q-50 37 -109 37q-95 0 -170 -115q-36 -55 -95 -199h-531q-14 0 -35 -27l-30 -38l-30 38q-21 27 -35 27h-531q-59 144 -95 199q-75 115 -170 115q-59 0 -109 -37q-55 -40 -55 -96q0 -60 48 -94q42 -29 105 -29q7 0 20.5 1.5t20.5 1.5q6 0 22 -40q50 -123 50 -206
q0 -36 -8.5 -109t-8.5 -110q0 -49 24 -65l48 -32q5 -5 3 -28h1402q-2 23 3 28l48 32t24 65q0 37 -8.5 110t-8.5 109q0 83 50 206q16 40 22 40q7 0 20.5 -1.5t20.5 -1.5q63 0 105 29q48 34 48 94zM714 367v15q0 8 -92 321q-41 15 -66 15q-71 0 -111 -80q139 -120 195 -271h74
zM1720 97q-5 -65 -10 -104h-1094q-5 39 -10 104h499q10 0 31 28q13 18 27 37q14 -19 27 -37q21 -28 31 -28h499zM1741 -226h-1156q12 9 35 40h1086q10 -15 35 -40zM1686 33v20h-455q-13 0 -38.5 16t-29.5 28q-4 -12 -29.5 -28t-38.5 -16h-455v-20h1046z" />
  </g>

</svg>
