<?xml version="1.0" standalone="no"?>
<!DOCTYPE svg PUBLIC "-//W3C//DTD SVG 1.1//EN" "http://www.w3.org/Graphics/SVG/1.1/DTD/svg11.dtd" >
<svg viewBox="0 -442 2048 2048">
  <g transform="matrix(1 0 0 -1 0 1606)">
   <path fill="currentColor"
d="M676 1166q-6 0 -17 2t-17 2v27h8q6 0 26 4v-35zM647 1229q-22 -32 -22 -47l19 -47h-53q15 37 15 47q0 20 -19 47h60zM593 1169h-20q-27 0 -51 29q-12 -22 -23 -43q-27 -40 -85 -40q-78 0 -105 83q-4 -5 -14 -15q-17 -14 -60 -14v25q16 5 33 10t26 21q4 23 12 67
q9 37 40 65t68 28q83 0 109 -93q2 -19 8 -57q4 -17 24.5 -29t37.5 -9v-28zM247 1135h-53q16 40 16 47q0 16 -19 47h56q-18 -33 -18 -55q0 -7 18 -39zM193 1170q-6 0 -30 -4v35q16 -4 30 -4v-27zM689 313q-137 -1 -131 -1v-494q0 -20 -29 -35q-8 -4 -34 -4q-63 0 -63 46v483
q-9 4 -17 4t-18 -4v-487q0 -42 -62 -42q-65 0 -65 43v490q-2 0 -5 -1q-21 0 -62.5 1t-62.5 1l130 338v284q-5 6 -19 6q-5 0 -10 -6v-298q0 -42 -47 -42q-54 0 -54 52v314q0 12 10 48q12 42 58 69q43 25 89 25h228q70 0 114 -44t44 -113v-290q0 -61 -53 -61q-49 0 -49 40v300
q-5 6 -18 6q-6 0 -11 -6v-288z" />
  </g>

</svg>
