<?xml version="1.0" standalone="no"?>
<!DOCTYPE svg PUBLIC "-//W3C//DTD SVG 1.1//EN" "http://www.w3.org/Graphics/SVG/1.1/DTD/svg11.dtd" >
<svg viewBox="0 -442 2048 2048">
  <g transform="matrix(1 0 0 -1 0 1606)">
   <path fill="currentColor"
d="M1839 289l-41 -24l-47 13v87l-756 -364v-145l-61 -34l-62 29v150l-580 228v-111l-43 -17l-40 23v509l40 9l43 -8v-42q7 14 17 23q21 19 54 27l439 99l-31 25q75 75 153 84q72 8 106 -6v214l50 8l759 -93v-684zM1830 296v672l-746 94l-38 -6l752 -97v-680zM1726 665
l-257 96q-41 6 -77 6q-33 0 -62 -5l-77 -21l31 32q-197 69 -318 69q-45 0 -76 -12q-47 -17 -98 -62q49 -45 125 -61q130 -27 213 -23l51 16l-24 -20q58 -32 200 -70q24 -7 189 -34q45 13 124 42q35 17 56 47zM1524 290v152q0 71 -38 103q-26 22 -98 39l-598 141l-422 -99
q-30 -7 -53 -35t-23 -59v-38l580 -178v145l62 20l61 -17v-418zM982 -136v596l-48 14l-49 -16l49 -11v-608zM871 267v35l-588 182v146l-34 7l-28 -6l28 -8v-150zM283 124v107l-34 11v-130zM1587 614l-39 -20l-62 18l62 -7zM1168 718l-39 -20l-62 18l62 -7z" />
  </g>

</svg>
