<?xml version="1.0" standalone="no"?>
<!DOCTYPE svg PUBLIC "-//W3C//DTD SVG 1.1//EN" "http://www.w3.org/Graphics/SVG/1.1/DTD/svg11.dtd" >
<svg viewBox="0 -442 2048 2048">
  <g transform="matrix(1 0 0 -1 0 1606)">
   <path fill="currentColor"
d="M1992 400q0 -57 -54 -83q-67 -33 -75 -48q-32 -57 -72 -202q-44 -160 -69 -217q-29 -65 -63 -82q-18 -4 -37 -8q-23 -6 -22 -24q3 -3 73 -30q44 -17 44 -57q0 -55 -87 -55h-97q-92 0 -92 85q0 38 23 78h-880q23 -40 23 -78q0 -85 -92 -85h-97q-87 0 -87 55q0 40 44 57
q70 27 73 30q1 18 -22 24q-19 4 -37 8q-34 17 -63 82q-25 57 -69 217q-40 145 -72 202q-8 15 -75 48q-54 26 -54 83q0 45 43 78q39 30 86 30h1575v938q0 15 -16.5 30.5t-31.5 15.5q-16 0 -25 -4q-20 -9 -82 -142q71 -55 79 -204l39 -23l-25 -43l-425 250l25 43l41 -24
q90 38 141 38q44 0 80 -13q67 147 107 164q19 8 45 8q36 0 67 -30t31 -66v-938h53q47 0 86 -30q43 -33 43 -78zM1632 1173q-16 160 -152 160q-37 0 -87 -19zM1667 -353v6q-37 13 -98 44l-19 37v5q0 9 2 18h-59l14 -25q-16 -28 -16 -53q0 -35 42 -35h112q14 0 22 3zM1942 400
q0 24 -29 42q-25 16 -50 16h-1678q-25 0 -50 -16q-29 -18 -29 -42q0 -23 51 -52q59 -34 72 -55q18 -30 87 -258q62 -205 94 -221q3 -1 9 -2q30 -5 24 -5h1162q16 0 32 6q36 14 69 135q32 115 63 230q44 131 103 163q23 10 45 20q25 14 25 39zM557 -321q0 25 -16 53l14 25
h-59q2 -9 2 -18v-5l-19 -37q-42 -16 -98 -44v-6q8 -3 22 -3h112q42 0 42 35z" />
  </g>

</svg>
