<?xml version="1.0" standalone="no"?>
<!DOCTYPE svg PUBLIC "-//W3C//DTD SVG 1.1//EN" "http://www.w3.org/Graphics/SVG/1.1/DTD/svg11.dtd" >
<svg viewBox="0 -442 2048 2048">
  <g transform="matrix(1 0 0 -1 0 1606)">
   <path fill="currentColor"
d="M617 1254q0 -51 -27 -88q-31 -40 -80 -40t-80 39t-31 89q0 49 30 88q33 43 81 43q50 0 80 -42q27 -37 27 -89zM879 805q0 -29 -68 -128l-92 -128l-39 103l96 147l-112 143v-288q21 -61 47 -137q-19 -36 -19 -31v-158h-19v-495q0 -54 -63 -54q-64 0 -64 52v495q-6 3 -19 2
v159h-34v-159h-19v-495q0 -54 -64 -54t-64 52v495q-6 3 -18 2v157q0 -8 -19 33l45 139v285l-111 -145l97 -145l-39 -103q-161 210 -161 256q0 17 68 133q64 109 86 138q27 35 54 35h324q30 0 62 -47q22 -36 43 -73q102 -163 102 -186z" />
  </g>

</svg>
