<?xml version="1.0" standalone="no"?>
<!DOCTYPE svg PUBLIC "-//W3C//DTD SVG 1.1//EN" "http://www.w3.org/Graphics/SVG/1.1/DTD/svg11.dtd" >
<svg viewBox="0 -442 2048 2048">
  <g transform="matrix(1 0 0 -1 0 1606)">
   <path fill="currentColor"
d="M1533 1026q0 -77 -42.5 -142.5t-113.5 -96.5q41 78 41 154q0 108 -43 172l-78 86q-43 47 -43 113q0 76 49 145.5t122 83.5h10q-72 -90 -72 -182q0 -95 85 -172t85 -161zM1199 1024q0 -176 -151 -259q38 107 38 170q0 118 -43 191q-40 49 -81 98q-43 53 -43 124
q0 89 49 157t134 91q-71 -101 -71 -204q0 -101 84 -188.5t84 -179.5zM875 1023q0 -162 -153 -236q40 80 40 155q0 57 -34 156q-11 32 -79 91q-57 49 -57 122q0 141 128 211q40 22 56 19q-71 -92 -71 -181q0 -94 85 -167.5t85 -169.5zM1992 400q0 -57 -54 -83
q-67 -33 -75 -48q-32 -57 -72 -202q-44 -160 -69 -217q-29 -65 -63 -82q-18 -4 -37 -8q-23 -6 -22 -24q3 -3 73 -30q44 -17 44 -57q0 -55 -87 -55h-97q-92 0 -92 85q0 38 23 78h-880q23 -40 23 -78q0 -85 -92 -85h-97q-87 0 -87 55q0 40 44 57q70 27 73 30q1 18 -22 24
q-19 4 -37 8q-34 17 -63 82q-25 57 -69 217q-40 145 -72 202q-8 15 -75 48q-54 26 -54 83q0 45 43 78q39 30 86 30h125q38 61 61 79q34 28 95 28q109 0 152 -107h298q53 54 106 107q81 77 114 77q36 0 112 -76l100 -108h243q43 36 106 100l3 145l-13 -1q-20 -2 -43.5 23.5
t-23.5 46.5q0 51 50 51q51 0 70 -75q19 3 19 34q0 16 22 16t24 -18.5t4 -36.5q29 30 38 30q26 0 26 -27q0 -10 -15.5 -26.5t-25.5 -17.5l-6 3v-189q0 -22 -41 -58h78q47 0 86 -30q43 -33 43 -78zM500 834q0 -80 -54 -134.5t-134 -54.5t-137 54.5t-57 134.5t57 135t137 55
t134 -55t54 -135zM1667 -353v6q-37 13 -98 44l-19 37v5q0 9 2 18h-59l14 -25q-16 -28 -16 -53q0 -35 42 -35h112q14 0 22 3zM1942 400q0 24 -29 42q-25 16 -50 16h-1678q-25 0 -50 -16q-29 -18 -29 -42q0 -23 51 -52q59 -34 72 -55q18 -30 87 -258q62 -205 94 -221
q3 -1 9 -2q30 -5 24 -5h1162q16 0 32 6q36 14 69 135q32 115 63 230q44 131 103 163q23 10 45 20q25 14 25 39zM557 -321q0 25 -16 53l14 25h-59q2 -9 2 -18v-5l-19 -37q-42 -16 -98 -44v-6q8 -3 22 -3h112q42 0 42 35z" />
  </g>

</svg>
