<?xml version="1.0" standalone="no"?>
<!DOCTYPE svg PUBLIC "-//W3C//DTD SVG 1.1//EN" "http://www.w3.org/Graphics/SVG/1.1/DTD/svg11.dtd" >
<svg viewBox="0 -442 2048 2048">
  <g transform="matrix(1 0 0 -1 0 1606)">
   <path fill="currentColor"
d="M939 1303h-41q-4 -50 0 -99h-67v95q-19 7 -48 5l78 74q31 -25 78 -75zM1413 470q0 -10 -15 -32.5t-24 -29.5q-16 -11 -40 -11h-119v640h119q26 0 52.5 -26t26.5 -52v-489zM1156 398h-572v638q46 0 101 2q9 12 9 67q0 70 89 70h148q55 0 74 -6q38 -11 45 -52q3 -22 2 -76
q28 -4 56 -4q24 0 48 3v-642zM526 397h-124q-24 0 -49 31.5t-25 56.5v459q0 33 24 63t69 30h105v-640zM1659 146h-239v-270h-172v269h-757v-269h-172v268h-237v143q10 -1 15 -1q2 0 47 3q17 80 91 80q70 0 87 -82h78q18 77 89 77q61 0 84 -77h83q11 77 89 77q62 0 84 -77h79
q22 77 88 77q81 0 80 -72q12 -4 37 -4q24 0 50 1q17 42 31 56q20 19 60 19q64 0 87 -76h79q2 3 6 13q22 58 82 58q64 0 89 -70q22 -2 62 -2v-141zM1000 1042v59q0 33 -134 33q-69 0 -80 -2q-46 -9 -46 -51v-39h260zM782 682v231q-35 0 -47 4v114h-37v-118h-46v-231h130z
M735 863q-6 -6 -11 -6h-7q-8 0 -19 10v22q11 10 18 10q8 0 19 -11v-25z" />
  </g>

</svg>
