<?xml version="1.0" standalone="no"?>
<!DOCTYPE svg PUBLIC "-//W3C//DTD SVG 1.1//EN" "http://www.w3.org/Graphics/SVG/1.1/DTD/svg11.dtd" >
<svg viewBox="0 -442 2048 2048">
  <g transform="matrix(1 0 0 -1 0 1606)">
   <path fill="currentColor"
d="M1234 1231h-412q-22 43 -68 127h480v-127zM1234 1009q0 -39 -56.5 -86t-96.5 -49q-16 -1 -37 -1q-90 0 -139 55.5t-45 146.5q-33 7 -90 6q19 25 58 76h406v-148zM1452 -134h-691v197h523v105h-419q124 168 308 408q61 86 163 210q9 8 27 8q37 0 63 -27t26 -64v-837z
M417 879h-89v-157l-245 141v445h334v-429zM1206 799l-451 -581v397q-49 -59 -141 -183q-70 -108 -138 -108q-42 0 -186 111q-132 103 -172 153q-36 45 -36 75q0 25 21 47.5t46 22.5q42 0 166 -109t159 -109q55 0 219 284h513zM394 907v367h-273l208 -120v-247h65z" />
  </g>

</svg>
