<?xml version="1.0" standalone="no"?>
<!DOCTYPE svg PUBLIC "-//W3C//DTD SVG 1.1//EN" "http://www.w3.org/Graphics/SVG/1.1/DTD/svg11.dtd" >
<svg viewBox="0 -442 2048 2048">
  <g transform="matrix(1 0 0 -1 0 1606)">
   <path fill="currentColor"
d="M1234 116q0 -54 -39 -143l-349 331q-7 -16 -7 -46q0 -23 6 -39q18 -30 54 -87q45 -68 91 -137q73 -111 73 -124v-85q-187 44 -209 44q-15 0 -51 -53h-62l-21 -144l-21 144h-62q-36 53 -51 53q-22 0 -209 -44v85q0 13 73 124q46 69 91 137q21 28 54 87q6 16 6 39
q0 30 -7 46l-349 -331q-39 89 -39 143q0 18 159 285q168 282 188 338q13 36 13 93q0 19 -1 51q68 1 77 17q2 64 4 145q11 304 74 493q63 -189 74 -493q1 -71 4 -145q9 -16 77 -17q-1 -32 -1 -51q0 -57 13 -93q20 -56 188 -338q159 -267 159 -285z" />
  </g>

</svg>
