<?xml version="1.0" standalone="no"?>
<!DOCTYPE svg PUBLIC "-//W3C//DTD SVG 1.1//EN" "http://www.w3.org/Graphics/SVG/1.1/DTD/svg11.dtd" >
<svg viewBox="0 -442 2325 2048">
  <g transform="matrix(1 0 0 -1 0 1606)">
   <path fill="currentColor"
d="M2325 406q-95 -97 -149 -95l-1027 41q-14 1 -80 -18q-84 -24 -88 -25q-66 -15 -149 -15q-240 0 -362 88l-50 32q-26 20 -26 50q0 24 20 51q-28 20 -184 106q-192 106 -192 118q0 27 171 41l409 -147q25 6 64 21q3 2 28 33q93 115 197 115q5 0 14 -1l548 -58q19 -2 23 -2
q22 0 32 27l-318 40l-4 20q29 21 61 21q21 0 303 -17q24 39 154 273q9 1 14 1q21 0 98 -15l-59 -270l391 -42q-23 -47 -67 -47q-58 0 -172 7t-170 7q-6 0 -19 -46q-15 -53 -19 -59q-17 -30 -97 -91q-75 -59 -113 -76zM1534 807l-223 13q206 -26 207 -26q10 0 16 13z
M2267 389l-853 68q125 54 212 134q31 25 71 64q11 17 19 56q6 29 12 59l357 -12l-343 39l59 274q-6 2 -64 11q-54 -98 -108 -197q-90 -154 -120 -164q-9 -3 -21 -3q-14 0 -23 1l-544 58h-7q-42 0 -85 -27q122 0 212 -30q-7 -48 -18 -143q-3 -6 -7 -6q-95 49 -172 61
q-42 4 -125 14q12 16 37 48q-22 -26 -57 -60q-81 -34 -163 -68q-117 -51 -117 -104q21 48 84 48q127 0 127 -91q0 -46 -58 -61q95 -40 231 -40q84 0 178 18q11 2 93 25q55 16 94 15l1001 -37q48 0 98 50zM562 625l-351 131q-86 -7 -136 -18l348 -197q63 57 139 84zM606 419
q0 32 -38 51q-31 16 -66 16q-64 0 -64 -46q0 -23 41 -45q36 -19 62 -19q65 0 65 43zM1215 589q-72 -11 -68 -11q-14 0 -54 133q54 -5 95 -10zM1102 572l-54 -10l15 143q13 -44 39 -133zM589 426q0 -33 -41 -33q-24 0 -54 14q-35 16 -35 36q0 29 44 29q26 0 52 -11
q34 -13 34 -35z" />
  </g>

</svg>
