<?xml version="1.0" standalone="no"?>
<!DOCTYPE svg PUBLIC "-//W3C//DTD SVG 1.1//EN" "http://www.w3.org/Graphics/SVG/1.1/DTD/svg11.dtd" >
<svg viewBox="0 -442 2048 2048">
  <g transform="matrix(1 0 0 -1 0 1606)">
   <path fill="currentColor"
d="M1975 948q0 -72 -72 -89q-57 -13 -147 -15q-75 -2 -149 -3q-147 -9 -440 -23l-50 -653q-2 -32 103 -94q123 -73 138 -93v-58h-251l-83 -116l-83 116h-251v58q15 20 138 93q105 62 103 94l-50 653q-26 1 -440 23q-74 1 -149 3q-90 2 -147 15q-72 17 -72 89q0 61 90 83
q69 9 138 19q42 7 170 20q198 20 391 44q17 55 34 109q22 63 50 103q-149 0 -198 17q56 20 219 20q31 33 57 51q26 -18 57 -51q163 0 219 -20q-50 -17 -198 -17q27 -38 84 -212q193 -24 391 -44q57 -5 170 -20q69 -10 138 -19q90 -22 90 -83z" />
  </g>

</svg>
