<?xml version="1.0" standalone="no"?>
<!DOCTYPE svg PUBLIC "-//W3C//DTD SVG 1.1//EN" "http://www.w3.org/Graphics/SVG/1.1/DTD/svg11.dtd" >
<svg viewBox="0 -442 2048 2048">
  <g transform="matrix(1 0 0 -1 0 1606)">
   <path fill="currentColor"
d="M1723 289q-52 20 -267 111q-66 33 -201 89q-140 45 -202 45q-33 0 -44 -27q-5 -12 -23 -214q-17 -198 -17 -230q0 -15 105 -89q110 -77 119 -95q16 -32 16 -103v-6l-265 72q-14 -19 -35 -68q-14 70 -23 68l-262 -72v16q0 18 6 48q8 38 9 48l225 176q0 -15 -14 176
q-1 83 -15 244q-3 20 -24 38t-41 18q-2 0 -119.5 -28t-279.5 -98q-135 -60 -271 -119v59q0 53 16 74t90 71q71 46 80 64q1 2 5 92q3 62 37 62q22 0 32 -39q6 -28 12 -57l146 110v123q0 36 38 36q30 0 46 -96q221 156 221 183q0 6 -1 16.5t-1 16.5q0 52 22 196l16 120
q19 88 57 88q50 0 64 -141q21 -208 21 -217q0 -10 -3 -30.5t-3 -30.5q0 -37 95 -109q66 -46 131 -92l14 58q10 38 35 38q36 0 36 -30v-129l151 -110q4 29 9 58q7 38 34 38q30 0 35 -67q5 -88 7 -92q4 -8 96 -74q85 -60 85 -100v-89z" />
  </g>

</svg>
