<?xml version="1.0" standalone="no"?>
<!DOCTYPE svg PUBLIC "-//W3C//DTD SVG 1.1//EN" "http://www.w3.org/Graphics/SVG/1.1/DTD/svg11.dtd" >
<svg viewBox="0 -442 2048 2048">
  <g transform="matrix(1 0 0 -1 0 1606)">
   <path fill="currentColor"
d="M1889 1038q0 -104 -71.5 -175.5t-175.5 -71.5q-38 0 -75 11l-241 -241l547 -523l-218 -218l-524 547l-229 -230q11 -37 11 -74q0 -105 -71 -176.5t-176 -71.5q-35 0 -70 10l190 190l-187 187l-190 -190q-10 35 -10 70q0 104 72 175.5t176 71.5q35 0 70 -9l235 234
l-340 355l172 172l354 -340l246 246q-9 34 -9 69q0 105 71 177t176 72q36 0 71 -10l-190 -190l186 -187l190 190q10 -35 10 -70zM606 1258l-171 -171l-33 33l171 171zM1168 1230q-63 25 -130 25q-102 0 -166 -64l-374 -374l39 -39l-142 -143l-239 239l142 142l44 -43
l372 372q76 76 165 76q148 0 289 -191z" />
  </g>

</svg>
