<?xml version="1.0" standalone="no"?>
<!DOCTYPE svg PUBLIC "-//W3C//DTD SVG 1.1//EN" "http://www.w3.org/Graphics/SVG/1.1/DTD/svg11.dtd" >
<svg viewBox="0 -442 2048 2048">
  <g transform="matrix(1 0 0 -1 0 1606)">
   <path fill="currentColor"
d="M2025 1062q0 -38 -43 -81q-64 -65 -208 -129q-115 -49 -231 -97q-168 -76 -306 -138q-96 -44 -191 -88q-113 -50 -197 -74q-46 -13 -163 -23q-176 -15 -299 -19l-282 281q-5 5 -5 13q0 16 20 41.5t36 25.5t336 -153l414 179l-355 158q-1 3 -1 9q0 25 51 56.5t79 31.5
q21 0 147 -25q307 -61 414 -61q32 0 56 3t95 38l100 48q244 105 361 105q58 0 108 -22q64 -29 64 -79zM1960 -225q0 -40 -40 -40h-1780q-40 0 -40 40t40 40h1780q40 0 40 -40z" />
  </g>

</svg>
