<?xml version="1.0" standalone="no"?>
<!DOCTYPE svg PUBLIC "-//W3C//DTD SVG 1.1//EN" "http://www.w3.org/Graphics/SVG/1.1/DTD/svg11.dtd" >
<svg viewBox="0 -442 2048 2048">
  <g transform="matrix(1 0 0 -1 0 1606)">
   <path fill="currentColor"
d="M1825 1357q0 -47 -156 -234.5t-155 -193.5l133 -960q3 -22 3 -20q0 -31 -37 -72q-30 -31 -60 -61q-95 269 -211 537q-23 54 -75 131q-65 98 -96 98q-20 0 -221.5 -167t-201.5 -180q0 -10 7 -53q9 -57 27 -172q10 -61 10 -74q0 -23 -75 -111q-14 21 -162 268
q-23 -6 -82 -26q19 34 35 64q-161 108 -268 161q66 65 111 85l293 -45q48 41 195 211q158 182 158 208q0 40 -122 110q-147 84 -278 138q-120 44 -356 138q13 28 56.5 62.5t71.5 34.5q-3 0 11 -2l960 -134q23 11 99 81q241 222 328 222q58 0 58 -44z" />
  </g>

</svg>
