<?xml version="1.0" standalone="no"?>
<!DOCTYPE svg PUBLIC "-//W3C//DTD SVG 1.1//EN" "http://www.w3.org/Graphics/SVG/1.1/DTD/svg11.dtd" >
<svg viewBox="0 -442 2048 2048">
  <g transform="matrix(1 0 0 -1 0 1606)">
   <path fill="currentColor"
d="M2048 -442h-2048v952q78 0 268.5 109.5t266.5 109.5q106 0 185 -63q43 -40 132 -117q74 -62 163 -62q88 0 259.5 74.5t276.5 74.5q64 0 229.5 -63t267.5 -63v-952zM1950 -397l-921 880h-29l-920 -880h1870zM1093 411h-30l-9 15h26zM1146 349h-42l-21 33h43l20 -21v-12z
M1230 259h-69l-29 45h71l27 -27v-18zM1383 96h-115l-54 84h118l51 -47v-37zM1040 411h-53l7 15h39zM1068 349h-109l16 33h78zM1669 -238h-189l-130 206h192l127 -124v-82zM974 426l-9 -15h-30l12 15h27zM1499 -376h-84l-394 836h8l470 -756v-80zM1109 259h-190l19 45h152z
M945 382l-21 -33h-42v12l20 21h43zM1182 96h-336l38 84h260zM895 304l-29 -45h-69v18l28 27h70zM1334 -238h-640l96 206h448zM814 180l-54 -84h-115v37l51 47h118zM1007 460l-395 -836h-83v80l469 756h9zM678 -32l-131 -206h-188v82l127 124h192zM1117 372q-3 4 -9 4
q-9 0 -7 -4q3 -3 10 -3q8 0 6 3zM1138 361l-3 3h-36l2 -3h37zM1188 292q-3 5 -13 5q-12 0 -10 -5q3 -5 14 -5q12 0 9 5zM1219 277l-4 4h-63l3 -4h64zM1311 160q-5 8 -23 8q-21 0 -17 -8q4 -9 23 -9q22 0 17 9zM1367 133l-6 6h-113l5 -6h114zM1547 -85q-10 19 -50 19
q-38 0 -38 -13q0 -25 52 -25q46 0 36 19zM1640 -156l-15 15h-192l11 -15h196zM1057 361l-3 3h-80l-3 -3h86zM1440 -297l-412 752l387 -775v23h25zM1094 277l-2 4h-156l-2 -4h160zM923 372q1 4 -7 4q-7 0 -10 -4q-2 -3 7 -3q7 0 10 3zM929 364h-36l-3 -3h37zM1156 133l-3 6
h-279l-2 -6h284zM858 292q2 5 -10 5q-10 0 -13 -5t10 -5q11 0 13 5zM875 281h-62l-4 -4h63zM753 160q4 8 -17 8q-19 0 -23 -8q-5 -9 16 -9q20 0 24 9zM1276 -156l-7 15h-510l-7 -15h524zM999 455l-411 -751h24v-24zM779 139h-112l-7 -6h115zM563 -85q9 19 -37 19
q-39 0 -50 -19t36 -19q42 0 51 19zM595 -141h-193l-14 -15h196z" />
  </g>

</svg>
