<?xml version="1.0" standalone="no"?>
<!DOCTYPE svg PUBLIC "-//W3C//DTD SVG 1.1//EN" "http://www.w3.org/Graphics/SVG/1.1/DTD/svg11.dtd" >
<svg viewBox="0 -442 2048 2048">
  <g transform="matrix(1 0 0 -1 0 1606)">
   <path fill="currentColor"
d="M1488 1279q0 -75 -204 -113q-134 -25 -260 -25t-260 25q-204 38 -204 113t204 113q134 25 260 25t260 -25q204 -38 204 -113zM1488 859q0 -82 -200 -131q-145 -35 -264 -35t-264 35q-200 49 -200 131v390q0 -75 204 -113q134 -25 260 -25t260 25q204 38 204 113v-390z
M1488 422q0 -64 -136 -129q-148 -71 -328 -71t-328 71q-136 65 -136 129v402q0 -81 201 -128q144 -33 263 -33t263 34q201 46 201 127v-402zM1488 -33q0 -75 -136 -142q-145 -71 -328 -71q-126 0 -273 49q-191 63 -191 164v418q0 -62 136 -124q147 -67 328 -67t328 67
q136 62 136 124v-418zM1333 1325q-141 36 -309 36q-102 0 -211 -16q-152 -23 -195 -66q43 -43 195 -66q110 -16 211 -16q187 0 308 36q-20 -2 -53 -2q-142 0 -142 48t142 48q34 0 54 -2zM1432 859v262q-154 -66 -408 -66t-408 66l1 -263q34 -51 189 -84q122 -25 218 -25
q98 0 219 25q155 33 189 85zM1432 422v266q-164 -81 -408 -81q-245 0 -408 81v-266q0 -27 104 -78q134 -66 304 -66t304 66q104 51 104 78zM1432 -33v272q-174 -101 -408 -101t-408 101v-272q0 -39 105 -92q130 -65 303 -65t303 65q105 53 105 92z" />
  </g>

</svg>
