<?xml version="1.0" standalone="no"?>
<!DOCTYPE svg PUBLIC "-//W3C//DTD SVG 1.1//EN" "http://www.w3.org/Graphics/SVG/1.1/DTD/svg11.dtd" >
<svg viewBox="0 -442 2048 2048">
  <g transform="matrix(1 0 0 -1 0 1606)">
   <path fill="currentColor"
d="M1787 398q0 -78 -107 -78q-93 0 -238 56l-232 94q-117 43 -314 119q-99 37 -197 74q-115 44 -192 86q-39 21 -132 99q-129 108 -225 198v398q0 28 65 28q24 0 37 -22q8 -12 30 -74q30 -86 90 -257q139 -57 419 -167l-139 363q7 15 38 15q77 0 111 -28q16 -13 97 -131
q67 -99 135 -198q90 -124 155 -175q16 -12 94 -40q105 -37 106 -37q25 -11 75 -31q120 -44 205 -108q119 -89 119 -184zM1402 318q0 -28 -23 -48.5t-51 -20.5q-69 0 -69 69t69 69q28 0 51 -21t23 -48zM824 546q0 -28 -21.5 -49.5t-49.5 -21.5q-29 0 -50.5 22t-21.5 51
q0 28 22 49t50 21q71 0 71 -72zM1860 -225q0 -40 -40 -40h-1680q-40 0 -40 40t40 40h1680q40 0 40 -40z" />
  </g>

</svg>
