<?xml version="1.0" standalone="no"?>
<!DOCTYPE svg PUBLIC "-//W3C//DTD SVG 1.1//EN" "http://www.w3.org/Graphics/SVG/1.1/DTD/svg11.dtd" >
<svg viewBox="0 -442 2048 2048">
  <g transform="matrix(1 0 0 -1 0 1606)">
   <path fill="currentColor"
d="M1868 793q0 -36 -25 -64.5t-61 -28.5q-89 0 -89 93q0 36 25 64t61 28q35 0 62 -28.5t27 -63.5zM1403 879h-164v154h164v-154zM1209 879h-167v154h167v-154zM962 1057l-113 -110l-114 120l117 107zM1015 879h-137l-14 47l114 107h37v-154zM2035 -270h-121v88h121v-88z
M2035 -135h-1921v90h751q-55 15 -90 60.5t-35 103.5q0 20 4 38q-8 3 -61 7q-1 3 -1 6q0 4 2.5 13t2.5 13q0 11 -18 11q-56 0 -113.5 -50.5t-72.5 -106.5q-5 -21 -25 -56q-14 -13 -62 -13q-13 0 -38 1t-38 1q-11 0 -32 -1t-32 -1q-52 0 -100 29v13q0 11 36 92q-10 2 -27 2
t-28 -2v17q-12 5 -37 3l17 200q21 -13 26 -13q12 0 36.5 3t36.5 3q2 43 10 127q2 9 12 42q10 30 10 39q0 7 -6.5 19.5t-6.5 19.5q0 18 32 144q5 28 22 73q2 3 22 17q16 12 16 18q0 4 -8.5 21t-8.5 30q0 168 64 196q18 8 76 8q56 0 119 -3q5 0 15.5 -1.5t16.5 -1.5q10 0 20 4
q15 6 76 74q31 42 105 114q73 51 197 51q18 0 53.5 -8.5t53.5 -8.5h144q5 4 5 9t-8 12q-18 -10 -44 -10q11 66 11 56q13 -20 27 -20q4 0 9 6.5t9 6.5t14 -7.5t14 -8.5q13 -4 44 -4q8 0 25.5 3.5t25.5 3.5q6 0 19 -3.5t19 -3.5v-22q-11 -1 -33 -6l9 -12h623l10 -75l-923 -1
q-18 0 -53.5 8.5t-53.5 8.5q-106 0 -179 -63l-102 -117q-55 -63 -117 -63q-25 0 -75.5 3t-75.5 3q-24 0 -40 -1q-22 -42 -23 -123q16 -32 16 -55q0 -49 -54 -88q-17 -50 -38 -153q13 -27 13 -50q0 -19 -9 -47q-12 -35 -14 -46q-5 -64 -16 -191l-37 1q-29 1 -62 -3l-5 -54
q3 -1 119 -26q-17 -38 -51 -113q12 0 35.5 1t35.5 1q15 0 43.5 -1t42.5 -1q26 89 98 155q77 71 165 71h14q67 75 87 75h1259q-10 -41 -10 -47v-193q-8 0 -18 -10q-6 19 -20 56h-62q6 -22 6 -45q0 -58 -35 -103.5t-90 -60.5h235v-90zM1736 -270h-115v88h115v-88zM1436 -270
h-118v88h118v-88zM1133 -270h-117v88h117v-88zM834 -270h-118v88h118v-88zM534 -270h-118v88h118v-88zM234 -270h-120v88h120v-88zM1364 1319h-91q-7 -7 -7 -16q-7 -1 66 -1h12l12 2q8 6 8 15zM1710 -45q-55 15 -90 60.5t-35 103.5q0 31 10 58h-133q-11 0 -24 -17
q-19 -26 -25.5 -72.5t-14.5 -59.5h-140q-19 149 -64 149h-124q10 -27 10 -58q0 -58 -35 -103.5t-90 -60.5h755z" />
  </g>

</svg>
