<?xml version="1.0" standalone="no"?>
<!DOCTYPE svg PUBLIC "-//W3C//DTD SVG 1.1//EN" "http://www.w3.org/Graphics/SVG/1.1/DTD/svg11.dtd" >
<svg viewBox="0 -442 2048 2048">
  <g transform="matrix(1 0 0 -1 0 1606)">
   <path fill="currentColor"
d="M1516 1442l-138 -167l107 188q11 -11 31 -21zM1660 1300l-221 -106l205 143q8 -13 16 -37zM1679 1107l-250 21q27 0 79.5 4t78.5 4q45 0 92 -6v-23zM1289 1486l-21 -201l-16 201h37zM1366 1102h-109q4 37 14 110h76q7 -36 19 -110zM1598 664l-142 -107q-4 6 -4 11
q0 18 46 54l62 48q-9 5 -33 3v303h-73v14h144v-326zM1173 1119h-13v8h13v-8zM1159 1114l-47 -7v8l47 8v-9zM1200 1232q0 -17 -4 -52.5t-4 -53.5q-31 5 -94 15v5q0 30 -6 42q-5 -11 -5 -47l-356 -13q90 -1 269 -7q49 -3 87 -14h-393v83q10 -13 39 -13q49 0 62 4q70 -3 153 6
h-267q-6 -11 -4 -46l-90 -15v172h95v-47h426q4 11 4 47h81q7 -35 7 -66zM523 1486l-16 -206l-16 206h32zM407 1271l-143 171l36 21zM523 1102h-109q6 37 19 110h75q8 -50 15 -110zM1472 54l-27 5v8l27 -5v-8zM345 1194l-226 111q6 12 21 33zM1473 115h-1167v-50h220
q7 0 25.5 12.5t25.5 12.5q18 0 33.5 -12t17.5 -12h524q24 24 46 24q27 0 52 -25h188v-61h-36v-174h-208q0 69 -2 107q-14 3 -41 15q-6 4 -29 51h-465q-10 -22 -21 -43q-4 -7 -49 -23q-1 -19 -1 -107h-211v169q-15 5 -48 5v24q0 35 -29 33v67h28v898q0 19 28 42.5t47 23.5
h963q19 0 47 -23.5t28 -41.5v-895q12 -4 34 -17zM350 1128l-250 -21v23q61 5 110 5q23 0 69.5 -3.5t70.5 -3.5zM316 557l-124 107v326h124v-13h-37v-303q-17 -2 -49 -9q29 -26 86 -81v-27zM1414 673v317h-495v-317h495zM1414 153v119h-177v-119h177zM846 673v317h-481v-317
h481zM1256 13q0 62 -58 62t-58 -62q0 -24 17 -43.5t41 -19.5q58 0 58 63zM1198 272h-611v-47h606q0 27 5 47zM1198 185h-611v-32h606q2 11 5 32zM537 153v119h-176v-119h176zM635 13q0 62 -53 62q-58 0 -58 -62q0 -63 55 -63q56 0 56 63z" />
  </g>

</svg>
