<?xml version="1.0" standalone="no"?>
<!DOCTYPE svg PUBLIC "-//W3C//DTD SVG 1.1//EN" "http://www.w3.org/Graphics/SVG/1.1/DTD/svg11.dtd" >
<svg viewBox="0 -442 2048 2048">
  <g transform="matrix(1 0 0 -1 0 1606)">
   <path fill="currentColor"
d="M1571 1072h-138l-55 40h146v147l47 -56v-131zM1647 910l-189 142h132v156l-69 85l-170 15l17 39q15 22 49 22q88 0 174 -93l56 -264v-102zM1279 1313q-210 17 -355 14l72 185q20 30 78 29q98 -3 180 -73zM1740 651q-121 39 -206 77q-60 27 -166 84v285l322 -245v-84
l50 -38v-79zM1504 1132h-158v-307l-354 220q-204 128 -471 162v85q291 20 471 19q189 -1 512 -34v-145zM1850 603q-2 -101 -25 -166q-371 -175 -703 -175q-262 0 -306 -4q-172 -16 -295 -139l-41 595q-16 236 -101 485q185 8 415 -81q134 -52 332 -178q245 -156 324 -196
q186 -94 400 -141zM459 657q-24 71 -98 188q-97 153 -97 234q0 85 82 118q60 -154 86 -323q15 -98 27 -217zM2048 -442h-2048v952h471l14 -277q-64 55 -116 62q-44 6 -88 -16q-105 -52 -120 -51q-50 3 -108 23v-31q48 -19 111 -23q20 -1 90.5 36.5t113.5 31.5
q79 -10 125 -93l8 -116q147 162 316 176q28 2 187 -39q167 -44 266 -41q86 2 251 35v29q-157 -35 -256 -35q-111 0 -302 54l191 -1q153 -1 309 46q197 59 376 145q14 50 21 85h188v-952zM1457 1160v78h-284v-78h284zM1655 796q0 39 -22 39q-21 0 -21 -39t21 -39q22 0 22 39z
M1562 855q0 42 -23 42t-23 -42q0 -43 23 -43t23 43zM1459 924q0 47 -25 47t-25 -47t25 -47t25 47zM1144 1160v78h-290v-78h290zM832 1160v78h-273v-24q54 -9 97 -19q29 -6 117 -35h59z" />
  </g>

</svg>
