<?xml version="1.0" standalone="no"?>
<!DOCTYPE svg PUBLIC "-//W3C//DTD SVG 1.1//EN" "http://www.w3.org/Graphics/SVG/1.1/DTD/svg11.dtd" >
<svg viewBox="0 -442 2048 2048">
  <g transform="matrix(1 0 0 -1 0 1606)">
   <path fill="currentColor"
d="M1521 1372l-232 -291l-238 -46l140 243zM2047 1089l-260 -437l-621 63l177 200zM924 825q0 -25 -36 -25q-8 0 -11 6l-195 338q-24 -1 -42 17t-18 42q0 21 21.5 37.5t43.5 16.5q20 0 35 -18t15 -38q0 -16 -11 -31q198 -342 198 -345zM1240 962q0 -63 -104 -154
q-73 -64 -161 -115q-187 -108 -313 -108q-81 0 -81 52q0 108 239 254q53 -99 66 -99q12 0 29 11t17 22q0 6 -55 98q161 93 262 93t101 -54zM1535 447q0 -72 -98 -164q-71 -66 -163 -119q-170 -99 -297 -99q-74 0 -97 40l-105 180l137 300l-288 -65l-20 65q16 -24 62 -24
q114 0 275 86q145 77 238 170q76 76 76 123q0 9 -4 17l34 -58l-171 -198l305 -29q116 -203 116 -225zM1625 145q0 -99 -180 -206q-164 -97 -273 -97q-81 0 -81 79q0 60 28 144q213 86 324 188q182 -47 182 -108zM631 795l-141 -193l-489 -133l313 292zM863 540l-261 -574
l-556 -22l555 538zM1218 962q0 36 -69 36q-66 0 -161 -41q65 20 118 20q75 0 75 -36q0 -43 -75 -124q112 98 112 145zM1513 446q0 8 -119 213l-40 1l141 -251q18 20 18 37zM912 830l-197 339q13 21 13 35q0 15 -14.5 27.5t-29.5 12.5q-4 0 -8 -1q17 -5 34 -34v-4
q0 -14 -15 -32l209 -356zM1602 146q0 58 -162 87q78 -65 118 -101q-2 -36 -71 -104q-64 -63 -201 -137q148 51 254 159q62 63 62 96z" />
  </g>

</svg>
