<?xml version="1.0" standalone="no"?>
<!DOCTYPE svg PUBLIC "-//W3C//DTD SVG 1.1//EN" "http://www.w3.org/Graphics/SVG/1.1/DTD/svg11.dtd" >
<svg viewBox="0 -442 2048 2048">
  <g transform="matrix(1 0 0 -1 0 1606)">
   <path fill="currentColor"
d="M1753 -5q-11 0 -41 -1h-41q-127 0 -238 18q-56 9 -56 47q0 21 40 29q49 10 62 23q-56 81 -175 199q-139 137 -184 192q-26 35 -51 69q-36 44 -66 49q-18 -24 -35 -64q-53 -125 -118 -246q-102 -192 -147 -192q-35 0 -78 74q-26 53 -53 106l-178 339q-31 36 -82 107
q-2 15 -9 44q-10 32 -87 156q-2 3 -68 84q-48 59 -48 85v34q65 7 196 17h135q151 2 452 10q121 9 362 27q1 0 70 -15q282 -62 282 -227q0 -142 -165 -237q-125 -72 -293 -96q24 -36 79 -94q86 -85 255 -258l92 -108q69 -75 106 -75h82v-96zM1441 1002q0 38 -61 69
q-52 28 -95 28q-27 0 -61 -59q-21 -41 -43 -82q-17 -19 -45 -60q-9 -28 -31 -81q-18 -31 -46 -95h23q4 0 99 25q260 68 260 255zM1166 1080q0 13 -6 13q-105 6 -329 6h-158l-134 -9l-267 -19q169 -404 439 -813q62 92 146 254q103 198 139 258q11 18 33 55q5 19 20 54
q4 7 29 16q1 12 4 34q7 31 48 78q36 42 36 73z" />
  </g>

</svg>
