<?xml version="1.0" standalone="no"?>
<!DOCTYPE svg PUBLIC "-//W3C//DTD SVG 1.1//EN" "http://www.w3.org/Graphics/SVG/1.1/DTD/svg11.dtd" >
<svg viewBox="0 -442 2048 2048">
  <g transform="matrix(1 0 0 -1 0 1606)">
   <path fill="currentColor"
d="M1165 993q0 -64 -54 -104q-49 -37 -115 -37q-67 0 -110 38q-46 40 -44 107v8q6 4 52 21q-10 -31 -10 -54q0 -40 34 -65q31 -23 72 -23q96 0 96 77q0 54 -100 101q-111 52 -127 89q-12 29 -12 59q0 65 42 105.5t107 40.5q78 0 110 -35q38 -42 38 -73v-35q-16 0 -47 -10
q5 9 5 34q0 87 -104 87q-93 0 -93 -77q0 -42 52 -70l136 -62q72 -43 72 -122zM1737 1245h-8q-59 3 -124 -61q-54 -54 -83 -118q-58 -136 -175 -406l-378 -852h-68q-44 98 -132 293l-306 691q-47 106 -143 316q-29 61 -66 93q-43 37 -154 44v52h646v-46q-64 -6 -128 -13
q-79 -16 -79 -78q0 -35 218 -521q132 -291 264 -583h2q6 -1 8 4q15 35 44 104l92 214q84 189 167 378q123 288 123 359q0 122 -174 131v51h454v-52z" />
  </g>

</svg>
