<?xml version="1.0" standalone="no"?>
<!DOCTYPE svg PUBLIC "-//W3C//DTD SVG 1.1//EN" "http://www.w3.org/Graphics/SVG/1.1/DTD/svg11.dtd" >
<svg viewBox="0 -442 2048 2048">
  <g transform="matrix(1 0 0 -1 0 1606)">
   <path fill="currentColor"
d="M1577 157q-27 -26 -56 -33q-63 -15 -101 -12l-310 22q-15 1 -43 -2q-32 -4 -44 -4q-29 0 -51 52q-19 44 -19 79q0 15 5.5 45t5.5 45v428q0 6 18 116q20 21 71 48q88 18 313 18q195 0 195 -92q0 -71 -157 -71q-26 0 -78 5.5t-78 5.5h-145q-20 -22 -20 -85q0 -26 15 -45
q16 5 56 5q53 0 97 -16q60 -22 60 -65q0 -33 -60 -52q-43 -13 -86 -13q-34 0 -77 6l-16 -95v-173q43 -21 126 -21h35q81 0 156 12q102 15 99 15q47 0 65 -41zM817 169l-22 -55q-17 -7 -51 -7q-78 0 -158 65t-81 65q-14 0 -30 -20q-21 -25 -43 -36q-39 -20 -107 -20
q-225 0 -225 236q0 150 103 303q91 133 230 228q78 53 91 53q26 0 106 -30t92 -47q35 -51 35 -61v-137q0 -26 -28.5 -108.5t-44.5 -104.5q-22 -24 -43 -48q-25 -29 -25 -56q0 -55 74 -140h4q27 1 62 -25q39 -28 55 -31q6 -28 6 -24zM676 745q0 46 -54 73q-44 22 -96 22
q-153 0 -234 -177q-62 -137 -62 -312q0 -13 16.5 -37.5t29 -31.5t34.5 -7q42 0 83 17q52 22 55 57q-5 15 -79 21q-68 5 -68 54q0 74 128 74q34 0 48 -2q9 -1 35.5 -10.5t32.5 -9.5t39 39q92 110 92 230z" />
  </g>

</svg>
