<?xml version="1.0" standalone="no"?>
<!DOCTYPE svg PUBLIC "-//W3C//DTD SVG 1.1//EN" "http://www.w3.org/Graphics/SVG/1.1/DTD/svg11.dtd" >
<svg viewBox="0 -442 2048 2048">
  <g transform="matrix(1 0 0 -1 0 1606)">
   <path fill="currentColor"
d="M1279 975q0 -40 -26 -69.5t-65 -29.5q-36 0 -63 32.5t-27 68.5q0 34 28 65t62 31q38 0 64.5 -29.5t26.5 -68.5zM1273 406q0 -38 -26.5 -71t-63.5 -33q-36 0 -63.5 32t-27.5 69t27.5 66.5t63.5 29.5q35 0 62.5 -29t27.5 -64zM1612 775q0 -30 -1 -90t-1 -91q0 -67 -2 -87
q-2 -25 -46 -78q-37 -47 -65 -69q7 14 18 39q7 22 7 51q0 48 -31 93q-35 49 -81 49h-458v-469q0 -9 12 -34q36 -76 121 -76q59 0 92 30q-9 -16 -67.5 -64.5t-71.5 -48.5h-361q-11 0 -71.5 50t-70.5 64q23 -31 95 -31q32 0 61 11q21 8 48.5 43.5t27.5 57.5v467h-462
q-25 0 -56 -22q-61 -43 -61 -135q0 -28 25 -75q-28 16 -64.5 61.5t-42.5 73.5t-6 77q0 18 2.5 54t2.5 54q0 17 -1.5 51.5t-1.5 52.5q0 57 4 80q8 49 109 141q-27 -44 -27 -95q0 -48 34 -91q37 -46 83 -46h462v462q0 33 -31.5 68t-63.5 42t-40 7q-54 0 -102 -36q8 19 73 69
t84 50h340q23 0 81 -45q55 -43 69 -67q-6 11 -45 20q-34 9 -52 9q-41 0 -84 -38t-43 -78v-463h457q19 0 61 27q51 33 51 110q0 47 -31 95q34 -18 72 -66.5t44 -84.5q5 -27 5 -79zM627 972q0 -37 -26 -69t-62 -32q-38 0 -65.5 31t-27.5 70q0 36 28.5 66t64.5 30t62 -30
t26 -66zM617 406q0 -38 -27 -71t-64 -33q-38 0 -63 34q-22 31 -22 70q0 36 24.5 67t60.5 31q34 0 62.5 -31.5t28.5 -66.5z" />
  </g>

</svg>
