<?xml version="1.0" standalone="no"?>
<!DOCTYPE svg PUBLIC "-//W3C//DTD SVG 1.1//EN" "http://www.w3.org/Graphics/SVG/1.1/DTD/svg11.dtd" >
<svg viewBox="0 -442 2048 2048">
  <g transform="matrix(1 0 0 -1 0 1606)">
   <path fill="currentColor"
d="M2022 -67h-312q-71 68 -148 178q-64 96 -129 192l-94 140q-73 99 -116 99q-6 0 -18 -1t-18 -1q-12 0 -20 2v-483q0 -60 72 -75q18 -4 119 -6h8v-45h-475q7 21 5 45q24 -1 29 -1q114 0 114 236v324h-330l-355 -519q52 -70 130 -83h-384q93 15 193 177q205 330 658 1038
q-10 3 -27 3q-65 0 -107 -13q14 20 42 59l329 4q553 0 553 -323q0 -116 -70.5 -196.5t-185.5 -105.5q-23 -4 -68 -15q72 -48 181 -208q141 -205 185 -255q110 -124 213 -124q13 0 26 2v-45zM1556 868q0 161 -82 230q-75 64 -239 64q-76 0 -71 -1v-577h107q66 0 133 23
q80 28 108 75q44 74 44 186zM1032 585v526l-303 -526h303z" />
  </g>

</svg>
