<?xml version="1.0" standalone="no"?>
<!DOCTYPE svg PUBLIC "-//W3C//DTD SVG 1.1//EN" "http://www.w3.org/Graphics/SVG/1.1/DTD/svg11.dtd" >
<svg viewBox="0 -442 2048 2048">
  <g transform="matrix(1 0 0 -1 0 1606)">
   <path fill="currentColor"
d="M1599 764q0 -25 -1.5 -76t-1.5 -76q0 -90 -2.5 -114t-45.5 -78q-37 -47 -64 -68q7 15 17 39q7 22 7 53q0 49 -27 88q-8 13 -38.5 31.5t-45.5 18.5h-453v-464q0 -20 27 -59q35 -50 107 -50q51 0 86 25q-15 -30 -57.5 -63.5t-76.5 -42.5q-25 -7 -70 -7q-18 0 -53.5 3
t-53.5 3l-75 -1q-88 0 -139 22.5t-108 89.5q38 -29 96 -29q46 0 88 32q46 34 46 78v463h-458q-24 0 -56 -22q-60 -43 -60 -140q0 -16 30 -70q-32 18 -67.5 60.5t-43.5 76.5q-6 27 -6 75q0 18 2.5 53.5t2.5 53.5v47q-1 31 -1 47q0 74 2 88q2 8 18 32q20 28 39 57q24 32 49 46
q-25 -68 -25 -89q0 -51 32 -92q34 -44 84 -44h457v458q0 44 -42.5 80t-87.5 36q-51 0 -97 -30q15 31 61 66t81 44q25 6 75 6q17 0 51.5 -2t51.5 -2q16 0 47.5 1t47.5 1q63 0 82 -4q16 -10 46 -28q48 -28 94 -79q-1 0 -46 17q-27 10 -49 10q-43 0 -87 -36t-44 -79v-459h453
q14 0 35 11q77 40 77 142q0 35 -26 72q94 -61 110 -145q6 -27 6 -77z" />
  </g>

</svg>
