<?xml version="1.0" standalone="no"?>
<!DOCTYPE svg PUBLIC "-//W3C//DTD SVG 1.1//EN" "http://www.w3.org/Graphics/SVG/1.1/DTD/svg11.dtd" >
<svg viewBox="0 -442 2048 2048">
  <g transform="matrix(1 0 0 -1 0 1606)">
   <path fill="currentColor"
d="M1498 1145q0 -63 -66 -152q-69 -94 -128 -94q-5 0 -9.5 2.5t-11.5 2.5q-21 0 -54 -55q-15 -13 -39 -42q-3 -13 -12 -37q-12 -7 -35 -33q-7 -29 -21 -79q-10 -25 -96 -176q-75 -132 -75 -164q0 -17 16 -57.5t16 -57.5q0 -6 -8.5 -18.5t-8.5 -16.5q0 -5 1 -15.5t1 -15.5
q0 -15 -9 -24q-14 -15 -17 -21q-2 -17 -17 -52q-17 -13 -46 -42h-198q-95 76 -95 161q0 20 16.5 67.5t16.5 67.5q0 28 -72 168.5t-72 161.5q0 43 -59 141q-36 69 -114 180q-11 11 -34 12q-28 2 -36 5t-47 39q-85 78 -85 153q0 82 65.5 150t147.5 68q79 0 127 -72
q43 -63 43 -146q0 -99 -61 -150q7 -25 25 -73q17 -23 48 -70q15 -38 50 -112q29 -41 77 -127q57 -141 70 -163q56 -99 130 -99q9 0 17 1q25 72 84 177q78 140 94 173q14 20 40 61q95 172 95 188l-18 25q-34 47 -34 122q0 124 72 183q14 11 52 30q42 19 56 19q5 0 15 -6
t14 -7q32 0 99 -22q90 -55 90 -159zM1390 1096q0 11 -17.5 53t-25.5 47q-32 21 -76 21q-73 0 -73 -82q0 -71 31 -94q10 -7 28 -7q68 0 90 12q43 24 43 50zM380 1178q0 95 -79 95q-38 0 -65.5 -26.5t-27.5 -64.5q0 -40 23 -75q27 -39 65 -39t63 37q21 33 21 73zM876 212
q0 26 -38.5 48t-66.5 22t-50.5 -18.5t-22.5 -46.5q0 -36 27.5 -62.5t63.5 -26.5q37 0 62 23.5t25 60.5z" />
  </g>

</svg>
