<?xml version="1.0" standalone="no"?>
<!DOCTYPE svg PUBLIC "-//W3C//DTD SVG 1.1//EN" "http://www.w3.org/Graphics/SVG/1.1/DTD/svg11.dtd" >
<svg viewBox="0 -442 2048 2048">
  <g transform="matrix(1 0 0 -1 0 1606)">
   <path fill="currentColor"
d="M1348 255q0 -142 -86 -239q-89 -101 -229 -101q-92 0 -188 67q-29 21 -154 133q-91 -85 -144 -118q-88 -57 -174 -57q-124 0 -198.5 71.5t-74.5 194.5t74 221q80 106 199 106q85 0 215 -84q28 24 28 98q0 134 -1 116q-70 6 -139 13q-91 10 -91 75q0 60 73 72q14 3 118 3
q15 0 29 2l4 4v49q-29 15 -139 15q-116 0 -116 67q0 54 97 68q29 4 138 4q46 0 46 80q0 13 -4 40t-4 40q0 30 24.5 51t54.5 21q59 0 71 -93l6 -138q27 0 82 6t83 6q38 0 73 -12q48 -17 48 -48q0 -86 -147 -86q-22 0 -64 3.5t-63 3.5l-17 -10v-64q18 -16 69 -16q17 0 52 3
t52 3q55 0 75 -10q31 -15 31 -64q0 -72 -33 -72q-28 0 -83.5 2.5t-83.5 2.5q-27 0 -55 -1q-25 -45 -25 -136q0 -99 11 -129q65 69 107 90q49 25 138 25q142 0 225 -66q90 -73 90 -212zM1203 206q0 86 -62 136q-58 47 -146 47q-39 0 -88.5 -63.5t-49.5 -104.5q0 -72 59 -118
q55 -42 129 -42q158 0 158 145zM579 236q0 56 -54 97q-49 37 -107 37q-55 0 -89.5 -34.5t-34.5 -89.5q0 -77 27.5 -104t105.5 -27q152 0 152 121z" />
  </g>

</svg>
