<?xml version="1.0" standalone="no"?>
<!DOCTYPE svg PUBLIC "-//W3C//DTD SVG 1.1//EN" "http://www.w3.org/Graphics/SVG/1.1/DTD/svg11.dtd" >
<svg viewBox="0 -442 2048 2048">
  <g transform="matrix(1 0 0 -1 0 1606)">
   <path fill="currentColor"
d="M1779 1184q-127 -28 -155 -28h-232q-39 0 -96 -13q-52 -107 -140 -330q39 -17 62 -15q202 22 220 22q31 0 92 -34q-38 -80 -124 -80q-39 0 -116 6t-116 6q-38 0 -57 -13q-35 -23 -69 -106l-46 -124l-112 -288q-67 -166 -126 -282q-85 49 -157 202q-65 137 -197 411
l-166 326q-144 283 -144 290q0 26 41 45q35 15 65 15h198h99q119 9 391 29l782 57q39 3 78 -13q27 -49 25 -83zM1177 1133l-936 -43v-23q0 -39 69 -159q49 -81 97 -162q31 -67 95 -201q84 -169 107 -209q65 -116 133 -193q253 481 388 847l30 72q20 51 17 71z" />
  </g>

</svg>
