<?xml version="1.0" standalone="no"?>
<!DOCTYPE svg PUBLIC "-//W3C//DTD SVG 1.1//EN" "http://www.w3.org/Graphics/SVG/1.1/DTD/svg11.dtd" >
<svg viewBox="0 -442 2048 2048">
  <g transform="matrix(1 0 0 -1 0 1606)">
   <path fill="currentColor"
d="M1500 -154q-48 -32 -144 -32q-54 0 -120 11q-92 16 -102 44q4 19 28 31q37 19 40 21q-177 328 -336 483q-9 -52 -9 -117q0 -57 6 -170t6 -169q11 -16 59 -36q39 -16 39 -41q0 -21 -12 -40q-63 -7 -173 -7q-13 0 -39.5 -2t-39.5 -2q-86 0 -86 46q0 47 123 57v493l-5 4
l-337 -493q89 -25 89 -69q0 -28 -121 -46q-91 -14 -151 -14q-8 0 -56.5 16.5t-53.5 21.5t-5 22q0 41 61 49q78 11 86 17q18 14 91 117q113 159 166 240q90 135 150 250q-42 0 -153 2q-100 2 -153 2q-128 0 -185 49q22 61 124 190q194 245 355 491q103 157 158 157
q7 0 51 -59q186 -248 316 -469q52 -74 103 -148q73 -108 73 -150v-35q-77 -17 -366 -17q-46 0 -67 -2q46 -63 138 -191q70 -97 209 -293l44 -64q29 -41 52 -54q47 -11 93 -22q54 -14 54 -72zM1186 667q-222 357 -398 592l-23 7l-403 -615h582q19 0 242 16z" />
  </g>

</svg>
