<?xml version="1.0" standalone="no"?>
<!DOCTYPE svg PUBLIC "-//W3C//DTD SVG 1.1//EN" "http://www.w3.org/Graphics/SVG/1.1/DTD/svg11.dtd" >
<svg viewBox="0 -442 2048 2048">
  <g transform="matrix(1 0 0 -1 0 1606)">
   <path fill="currentColor"
d="M1317 343q0 -85 -38 -138q-43 -61 -124 -61q-117 0 -177 125q-54 -29 -109 -57t-121 -28q-108 0 -292 85q-15 -33 -51 -95q-45 -64 -129 -64q-78 0 -129 67q-47 62 -47 143q0 83 47 130t129 47q25 0 47 -7q9 95 23 158q18 82 82 170t136 132q-11 31 -11 71q0 80 37 137
q43 67 119 67q15 0 69 -22q50 -21 66 -32q37 -26 37 -112q0 -64 -15 -109q253 -199 253 -336q0 -18 -9.5 -55.5t-8.5 -57.5q127 -18 152 -30q64 -31 64 -128zM771 1045q0 16 -17.5 29.5t-33.5 13.5q-14 0 -40 -13v-36q18 -31 49 -31q13 0 27.5 12t14.5 25zM1238 332
q0 15 -28 28q-23 11 -41 11q-85 0 -85 -59q0 -49 63 -49q91 0 91 69zM999 568q0 111 -83 186q-81 72 -193 72q-114 0 -203 -71q-96 -76 -96 -187q0 -100 93 -184q90 -81 192 -81q112 0 199 76q91 79 91 189zM350 312q0 16 -30 30q-26 12 -44 12q-51 0 -51 -42
q0 -25 21 -42.5t47 -17.5q20 0 38.5 20t18.5 40z" />
  </g>

</svg>
