<?xml version="1.0" standalone="no"?>
<!DOCTYPE svg PUBLIC "-//W3C//DTD SVG 1.1//EN" "http://www.w3.org/Graphics/SVG/1.1/DTD/svg11.dtd" >
<svg viewBox="0 -442 2048 2048">
  <g transform="matrix(1 0 0 -1 0 1606)">
   <path fill="currentColor"
d="M2034 924q0 -13 -2 -39q-17 -38 -48 -113q-21 -54 -42 -107q-28 -56 -80 -80h-17q-16 25 -16 52q0 -1 15 73q-19 19 -100 19q-38 0 -264 -10q-39 -2 -96 13q-62 17 -86 40q17 64 17 99q0 61 -49 129q-53 74 -111 74q-13 0 -36 -6q-27 -7 -36 -8q-106 -12 -141 -57
q-32 -40 -42 -127q-10 -91 -28 -120q-4 -6 -36 -14t-43 -8h-261q-56 0 -140 -22q-103 -27 -138 -137q-66 8 -80 10q-46 10 -73 31l-1 10q-2 36 32 78q51 65 54 70q21 61 70 180q23 48 69 48q14 0 36.5 -9t22.5 -22q0 -16 -26 -120q46 -25 127 -25q107 0 287 12l7 8
q35 178 89 254q77 109 233 109q130 0 221 -95q88 -93 88 -224q0 -32 -5 -65q24 -14 126 -14q150 0 195 4q111 11 186 54q7 4 44 43q32 34 47 34q5 0 31 -22zM1312 135q-5 -41 -10 -58q-10 -35 -33 -43h-61q-50 0 -65.5 -7t-24.5 -94q-8 -81 -35 -81q-13 0 -26 11t-13 23v133
q-14 10 -111 19q-80 7 -80 44q0 41 69 59q95 25 107 34q-15 23 -77 54q-47 25 -47 72q0 55 31 111l31 56q0 6 -19 21t-21 19q-12 18 -12 58q0 59 38 109q42 54 99 54q63 0 115 -46.5t52 -108.5q0 -46 -30 -85q46 -56 46 -129q0 -113 -98 -190l91 -7q58 -4 84 -28zM1124 578
q0 13 -14.5 23.5t-27.5 10.5q-55 0 -55 -47q0 -29 45 -29q17 0 34.5 13t17.5 29zM1142 350q0 16 -19 30t-35 14q-26 0 -48 -17t-22 -43q0 -16 20 -27t37 -11q21 0 44 16.5t23 37.5z" />
  </g>

</svg>
