<?xml version="1.0" standalone="no"?>
<!DOCTYPE svg PUBLIC "-//W3C//DTD SVG 1.1//EN" "http://www.w3.org/Graphics/SVG/1.1/DTD/svg11.dtd" >
<svg viewBox="0 -442 2048 2048">
  <g transform="matrix(1 0 0 -1 0 1606)">
   <path fill="currentColor"
d="M1082 338q0 -101 -72 -225.5t-160 -169.5q-128 -65 -259 -65q-185 0 -338 146t-153 331t47 271q44 79 200 192q-39 21 -110 72q-32 30 -54 94q-21 60 -21 108q0 68 48 163q56 109 117 109q21 0 43 -13.5t22 -33.5q0 -13 -50.5 -71t-50.5 -137q0 -109 113 -171
q93 -50 212 -50q111 0 184 35q97 46 97 144q0 65 -36 128t-93 88q26 70 42 70q3 0 79 -32q142 -59 142 -226q0 -96 -44 -162q-25 -38 -80 -80q-44 -33 -44 -50t53 -66q63 -56 68 -64q70 -102 85 -157q13 -47 13 -178zM947 380q0 201 -142 281q-114 65 -206 65
q-146 0 -256 -102q-114 -104 -114 -247q0 -166 131 -257q114 -80 287 -80q130 0 218 107q82 100 82 233z" />
  </g>

</svg>
