<?xml version="1.0" standalone="no"?>
<!DOCTYPE svg PUBLIC "-//W3C//DTD SVG 1.1//EN" "http://www.w3.org/Graphics/SVG/1.1/DTD/svg11.dtd" >
<svg viewBox="0 -442 2048 2048">
  <g transform="matrix(1 0 0 -1 0 1606)">
   <path fill="currentColor"
d="M1526 626q0 -297 -210.5 -506.5t-507.5 -209.5q-291 0 -499.5 212t-208.5 504q0 300 204.5 510.5t503.5 210.5t508.5 -210.5t209.5 -510.5zM1260 695q-33 152 -153 306q-125 162 -263 213v-519h416zM1307 422v25q0 94 -21 166h-442v-585q59 -11 87 -11q163 0 272 122
q104 118 104 283zM763 53v1180q-59 12 -80 12q-151 0 -258 -129q-101 -122 -101 -276q0 -243 111 -458q122 -235 328 -329z" />
  </g>

</svg>
