<?xml version="1.0" standalone="no"?>
<!DOCTYPE svg PUBLIC "-//W3C//DTD SVG 1.1//EN" "http://www.w3.org/Graphics/SVG/1.1/DTD/svg11.dtd" >
<svg viewBox="0 -442 2048 2048">
  <g transform="matrix(1 0 0 -1 0 1606)">
   <path fill="currentColor"
d="M1104 753q0 -86 -385 -882q-18 -41 -37 -82q-33 -67 -48 -67q-41 0 -74 46q-25 35 -244 502q-216 460 -216 469q0 69 215 69q28 0 84 -3t84 -3q11 0 31.5 3t28.5 3q22 33 29 119l-8 12q-49 4 -97 8q-69 11 -69 45q0 45 85 45q9 0 27 -1.5t27 -1.5q46 0 46 58l-1 124
q-62 -50 -89 -50q-28 0 -28 28q0 30 34 93q26 46 51 92q58 126 118 165q83 -127 150 -328q13 -39 13 -45q0 -44 -51 -44q-29 0 -95 72q0 -22 -3 -64.5t-3 -63.5q0 -38 95 -45.5t95 -51.5t-66 -44q-12 0 -34.5 2.5t-34.5 2.5q-36 0 -45 -7t-9 -41q0 -28 16 -75
q101 -6 303 -20q105 -7 105 -39zM946 672q-110 23 -307 23l-348 -1q1 -100 136 -375q96 -191 193 -382q46 50 175 351q120 278 151 384z" />
  </g>

</svg>
