<?xml version="1.0" standalone="no"?>
<!DOCTYPE svg PUBLIC "-//W3C//DTD SVG 1.1//EN" "http://www.w3.org/Graphics/SVG/1.1/DTD/svg11.dtd" >
<svg viewBox="0 -442 2048 2048">
  <g transform="matrix(1 0 0 -1 0 1606)">
   <path fill="currentColor"
d="M1760 1425l-372 -885v477l-447 -402q101 -145 101 -370q0 -178 -94 -332q-21 -35 -29 -35q18 0 -90 24q107 111 107 332q0 233 -141 383q-144 153 -375 153q-169 0 -284 -101q-36 101 -36 90q0 26 94 68q83 37 122 42q94 13 129 13q285 0 420 -180l453 416h-433zM779 254
q0 -126 -86 -224q-90 -102 -214 -102q-125 0 -214 102q-86 97 -86 224q0 123 89 221t211 98q123 0 213 -99q87 -96 87 -220zM661 178q0 37 -19 102q-20 70 -84 140q-71 80 -135 80t-99 -62q-28 -50 -28 -120q0 -87 44 -170q47 -89 121 -121q86 -37 88 -37q52 0 85 71
q27 57 27 117z" />
  </g>

</svg>
