<?xml version="1.0" standalone="no"?>
<!DOCTYPE svg PUBLIC "-//W3C//DTD SVG 1.1//EN" "http://www.w3.org/Graphics/SVG/1.1/DTD/svg11.dtd" >
<svg viewBox="0 -442 2048 2048">
  <g transform="matrix(1 0 0 -1 0 1606)">
   <path fill="currentColor"
d="M1942 1164q0 -74 -56.5 -121.5t-132.5 -47.5q-141 0 -188 154l-230 -518v282l-291 -244q98 -133 98 -303q0 -216 -152.5 -368.5t-368.5 -152.5q-217 0 -369 153.5t-152 370.5q0 214 153.5 366t367.5 152q216 0 375 -159l295 247h-277l552 188q16 171 189 171
q74 0 130.5 -48.5t56.5 -121.5zM1871 1149q0 51 -40.5 92t-90.5 41q-90 0 -90 -107q0 -49 35 -91.5t83 -42.5q42 0 72.5 32.5t30.5 75.5zM962 207q0 154 -84 312q-86 162 -215 241q-65 40 -132 40q-107 0 -170 -93q-56 -82 -56 -194q0 -144 68 -290q69 -151 180 -235
q79 -60 160 -60q119 0 186 82q63 76 63 197z" />
  </g>

</svg>
