<?xml version="1.0" standalone="no"?>
<!DOCTYPE svg PUBLIC "-//W3C//DTD SVG 1.1//EN" "http://www.w3.org/Graphics/SVG/1.1/DTD/svg11.dtd" >
<svg viewBox="0 -442 2048 2048">
  <g transform="matrix(1 0 0 -1 0 1606)">
   <path fill="currentColor"
d="M1595 472q-46 -36 -126 -36q-24 0 -72 7.5t-71 7.5q-42 1 -206 4q-127 3 -206 3q-33 0 -55 -18q-51 -43 -186 -230q-146 -203 -191 -203q-25 0 -51 22q-47 41 -160 211q-52 68 -150 207q-21 32 -21 58q0 49 104 174q71 81 143 161q36 46 71 91q56 68 80 68h40
q49 -102 142 -235q101 -146 174 -209q18 -15 43 -16q36 -2 44 -4l535 74q6 1 17 1q54 0 102 -32v-106zM751 481q0 32 -54 97q-39 44 -78 89q-39 61 -134 164l-266 -327q-1 -20 36 -59q47 -50 51 -57q11 -30 43 -84q44 -35 105 -103q4 -16 9 -32q6 -20 20 -19q62 59 152 164
q116 134 116 167z" />
  </g>

</svg>
