<?xml version="1.0" standalone="no"?>
<!DOCTYPE svg PUBLIC "-//W3C//DTD SVG 1.1//EN" "http://www.w3.org/Graphics/SVG/1.1/DTD/svg11.dtd" >
<svg viewBox="0 -442 2048 2048">
  <g transform="matrix(1 0 0 -1 0 1606)">
   <path fill="currentColor"
d="M1526 626q0 -297 -210.5 -506.5t-507.5 -209.5q-291 0 -499.5 212t-208.5 504q0 300 204.5 510.5t503.5 210.5t508.5 -210.5t209.5 -510.5zM1271 675q-63 223 -209 383q-170 187 -379 187q-151 0 -258 -129q-101 -122 -101 -276q0 -69 16 -155zM1307 420q0 92 -19 173
l-933 9q51 -228 195 -394q166 -191 380 -191q162 0 271 122q106 117 106 281z" />
  </g>

</svg>
