<?xml version="1.0" standalone="no"?>
<!DOCTYPE svg PUBLIC "-//W3C//DTD SVG 1.1//EN" "http://www.w3.org/Graphics/SVG/1.1/DTD/svg11.dtd" >
<svg viewBox="0 -442 2048 2048">
  <g transform="matrix(1 0 0 -1 0 1606)">
   <path fill="currentColor"
d="M1315 1060q0 -203 -105 -375q-110 -177 -293 -255q-73 -31 -114 -31q-8 3 -17 7v-164h192v-38h-187v-352q113 187 218 187q112 0 191 -217q8 -28 27 -83q13 -34 13 -54h-83q-28 66 -55 133q-44 81 -105 81q-50 0 -121 -84q-51 -60 -90 -130h-166q-123 205 -212 205
q-92 0 -155 -205h-101q46 104 92 207q71 129 164 129q61 0 121 -57q17 -16 89 -107v344h-185v39h185v156q-3 4 -12 6q-109 29 -177 68q-149 85 -239 242t-90 330q0 94 89 247q97 167 182 167q82 0 180 -164q33 53 66 107q46 66 95 66t91 -68q29 -55 57 -110q58 95 74 115
q54 68 108 68q114 0 237 -292q14 -30 34 -89q2 -10 2 -29zM1226 1120q-29 73 -74 133q-62 81 -117 81q-57 0 -108 -76q-34 -62 -68 -125q-29 60 -57 121q-44 80 -92 80q-79 0 -156 -214h672zM548 1120q-85 209 -184 209q-106 0 -175 -209h359zM1231 995v53h-1047v-52
q0 -44 27 -128q54 -168 188 -272q138 -108 311 -108q160 0 292 97q125 93 188 246q41 100 41 164z" />
  </g>

</svg>
