<?xml version="1.0" standalone="no"?>
<!DOCTYPE svg PUBLIC "-//W3C//DTD SVG 1.1//EN" "http://www.w3.org/Graphics/SVG/1.1/DTD/svg11.dtd" >
<svg viewBox="0 -442 2048 2048">
  <g transform="matrix(1 0 0 -1 0 1606)">
   <path fill="currentColor"
d="M1943 119h-335q6 20 6 37q0 69 -94 103q-67 24 -152 24q-249 0 -249 -135q0 -14 3 -29h-536v-192h-177v189h-176v54h175v253q-118 27 -195 125t-77 220q0 210 214 328q-13 8 -30 12q-30 8 -52 23q-55 40 -110 140q-58 102 -58 167v18q59 -131 171 -208q116 -80 257 -80
q108 0 198.5 69.5t122.5 173.5q-19 -94 -80 -182q-68 -98 -148 -127q102 -45 165 -134q65 -92 65 -200q0 -118 -77 -215q-75 -93 -190 -130v-251h396q51 164 385 164q337 0 386 -165h192v-52zM1943 -73h-1155v62h1155v-62zM723 688q0 30 -8 83q-15 102 -102 198
q-93 103 -191 103q-73 0 -116 -71q-36 -60 -36 -139q0 -124 86 -247q95 -135 215 -135q152 0 152 208z" />
  </g>

</svg>
