<?xml version="1.0" standalone="no"?>
<!DOCTYPE svg PUBLIC "-//W3C//DTD SVG 1.1//EN" "http://www.w3.org/Graphics/SVG/1.1/DTD/svg11.dtd" >
<svg viewBox="0 -442 2048 2048">
  <g transform="matrix(1 0 0 -1 0 1606)">
   <path fill="currentColor"
d="M1526 626q0 -297 -210.5 -506.5t-507.5 -209.5q-291 0 -499.5 212t-208.5 504q0 300 204.5 510.5t503.5 210.5t508.5 -210.5t209.5 -510.5zM1307 420q0 247 -123 464q-129 229 -345 329v-1182q71 -14 89 -14q164 0 273 121q106 116 106 282zM762 53v1180q-59 12 -79 12
q-151 0 -257 -129q-101 -122 -101 -276q0 -243 110 -458q121 -235 327 -329z" />
  </g>

</svg>
