<?xml version="1.0" standalone="no"?>
<!DOCTYPE svg PUBLIC "-//W3C//DTD SVG 1.1//EN" "http://www.w3.org/Graphics/SVG/1.1/DTD/svg11.dtd" >
<svg viewBox="0 -442 2048 2048">
  <g transform="matrix(1 0 0 -1 0 1606)">
   <path fill="currentColor"
d="M1405 1104h-413q1 26 1 33q0 23 -4 35q-16 49 -102 74q-62 18 -132 18q-65 0 -128 -18q-86 -24 -102 -69l-1 -67v-6h-424v50h280q53 161 375 161q122 0 219 -30q136 -42 156 -131h275v-50zM1405 969h-275q-20 -77 -104 -113l-154 -46q68 -26 126.5 -96.5t68.5 -141.5
q7 -50 7 -68q0 -11 -7 -68q-12 -95 -94 -171q-76 -70 -175 -94v-238h161v-42h-158v-177h-141v174h-150v43h148v245q-248 90 -248 328q0 99 60 184q56 80 148 127q-120 35 -143 47q-79 38 -95 107h-280v50h424q-6 -19 -6 -37q0 -67 91 -100q65 -23 149 -23q85 0 149 24
q89 34 89 103q0 16 -5 33h414v-50zM949 439q0 117 -70 217q-78 110 -189 110q-74 0 -113 -63q-32 -53 -32 -132q0 -127 64 -226q73 -113 193 -113q72 0 113 70q34 59 34 137z" />
  </g>

</svg>
