<?xml version="1.0" standalone="no"?>
<!DOCTYPE svg PUBLIC "-//W3C//DTD SVG 1.1//EN" "http://www.w3.org/Graphics/SVG/1.1/DTD/svg11.dtd" >
<svg viewBox="0 -442 2048 2048">
  <g transform="matrix(1 0 0 -1 0 1606)">
   <path fill="currentColor"
d="M1447 1238q-35 -73 -109 -216q-52 -95 -157 -283q-66 -112 -188 -341q-114 -242 -197 -342q-144 -175 -334 -175q-139 0 -250.5 113.5t-111.5 252.5q0 145 98 256q49 56 227 172q164 115 497 335q39 24 275 146q35 18 102 56q3 2 43 36q34 29 39 29q34 0 66 -39z
M1237 1061h-14q-134 -86 -403 -255q-62 -35 -185 -107q-39 -23 -74 -73q97 -21 182 -101.5t108 -176.5q82 103 227 396q13 25 127 241q10 26 32 76zM753 265q0 91 -70 152q-31 33 -88 79q-28 14 -88 14q-138 0 -202 -50q-73 -57 -73 -192q0 -115 57 -182q60 -73 173 -73
q111 0 198 69q93 75 93 183z" />
  </g>

</svg>
