<?xml version="1.0" standalone="no"?>
<!DOCTYPE svg PUBLIC "-//W3C//DTD SVG 1.1//EN" "http://www.w3.org/Graphics/SVG/1.1/DTD/svg11.dtd" >
<svg viewBox="0 -442 2048 2048">
  <g transform="matrix(1 0 0 -1 0 1606)">
   <path fill="currentColor"
d="M1841 908q-7 -32 -36 -92h-169q-30 0 -90 10t-90 10q-51 0 -81 -39l-52 -82q6 -15 36 -18q23 -1 45 -1q77 -5 165 -80q80 -67 118 -144q78 -7 89 -10q60 -13 60 -48q0 -47 -38 -47h-121q-7 -17 -17 -52q-29 -141 -116 -226q-94 -92 -233 -92q-78 0 -144 38
q-76 45 -76 118q0 25 18.5 48t43.5 23q15 0 44 -26q20 -18 41 -37q30 -21 97 -21q93 0 148 64q52 60 53 155q-74 28 -230 28q-63 0 -284 -5q-32 -1 -91 4q-64 6 -92 6q-19 0 -28 -33q-4 -36 -23 -109q-47 -109 -156.5 -181t-228.5 -72q-76 0 -145 48q-75 54 -75 127
q0 35 21.5 61t55.5 26q53 0 89 -46q10 -26 36 -77q19 -6 67 -6q179 0 239 234q-21 24 -66 24q-57 0 -169.5 -8t-169.5 -8q-88 0 -166 25q-6 4 -6 15q0 74 242 74q38 0 115.5 -2.5t116.5 -2.5q41 0 74 23q-7 54 -70 100q-59 44 -115 44q-24 0 -73 -12t-73 -12q-64 0 -64 54
q0 39 47 83q72 67 76 72q-20 14 -67 17q-37 0 -73 1q-84 5 -150 5q1 74 160 74q25 0 74.5 -2.5t74.5 -2.5q118 0 154 72v13q-20 13 -63 13q-26 0 -79 -2.5t-80 -2.5q-173 0 -173 72q0 57 89 57q39 0 118.5 -12.5t118.5 -12.5q30 0 91 5t91 5q45 0 79 -30q2 -5 2 -11
q0 -26 -48 -81q-66 -75 -67 -77q79 -13 337 -13q16 0 47.5 -2.5t47.5 -2.5q-2 0 133 9q43 1 128 8.5t111 83.5l-4 8q-26 4 -67 4q-44 0 -132 -7t-132 -7q-69 0 -69 56q0 52 64 52q17 0 65 -9q44 -8 63 -6l289 25q23 2 105 -11q0 -4 3 -14.5t3 -16.5q0 -32 -43 -71
q-53 -49 -66 -76q27 -18 88 -18q23 0 68.5 2.5t68.5 2.5q47 0 91 -22zM1490 477q-12 55 -75 90q-56 32 -117 32q-75 0 -98 -22q-12 -16 -25 -31.5t-37 -15.5q-77 0 -77 81q0 21 64 91q44 42 124 133l-704 6q-24 -20 -48 -41q-33 -30 -32 -47q307 -38 351 -267l416 -25
q14 -1 28 -1q39 0 115.5 8.5t114.5 8.5z" />
  </g>

</svg>
