<?xml version="1.0" standalone="no"?>
<!DOCTYPE svg PUBLIC "-//W3C//DTD SVG 1.1//EN" "http://www.w3.org/Graphics/SVG/1.1/DTD/svg11.dtd" >
<svg viewBox="0 -442 2048 2048">
  <g transform="matrix(1 0 0 -1 0 1606)">
   <path fill="currentColor"
d="M1394 1188q0 -83 -68 -140q-64 -54 -149 -54q-73 0 -133 44.5t-77 114.5q-3 -4 -3 -29h-233v-373l9 -9q164 -42 265 -177.5t101 -306.5q0 -202 -145 -354t-346 -152q-214 0 -364.5 146.5t-150.5 359.5q0 188 114 325t299 168v370h-241v66h240v265h217v-263h231
q13 88 71 143.5t146 55.5q89 0 153 -56t64 -144zM1312 1170q0 61 -43.5 107t-103.5 46q-106 0 -106 -117q0 -61 37.5 -107t97.5 -46q52 0 85 32.5t33 84.5zM906 149q0 197 -100 348q-113 173 -300 173q-112 0 -168 -107q-44 -85 -44 -208q0 -153 67 -278q73 -136 206 -194
q58 -25 118 -25q108 0 169 95q52 82 52 196z" />
  </g>

</svg>
