<?xml version="1.0" standalone="no"?>
<!DOCTYPE svg PUBLIC "-//W3C//DTD SVG 1.1//EN" "http://www.w3.org/Graphics/SVG/1.1/DTD/svg11.dtd" >
<svg viewBox="0 -442 2048 2048">
  <g transform="matrix(1 0 0 -1 0 1606)">
   <path fill="currentColor"
d="M1656 1290q0 -65 -52.5 -112t-118.5 -47t-118 47t-52 112q0 66 53 113q50 46 117 46q68 0 119.5 -46t51.5 -113zM1302 1315l-215 -467v249l-264 -215q58 -98 58 -202q0 -105 -58 -200.5t-151 -143.5q-36 -18 -99 -34q-3 -1 -11 -8v-271h185v-48h-182v-208h-169v205h-185
v48h183v285q-132 35 -213 136t-81 236q0 158 115 271.5t273 113.5q166 0 298 -127l263 214h-238zM1598 1273q0 50 -39 96t-88 46q-39 0 -66 -35t-27 -75q0 -52 35 -97q37 -48 87 -48q40 0 69 36t29 77zM730 605q0 144 -77 253q-85 123 -223 123q-84 0 -132 -70
q-42 -62 -42 -150q0 -148 76 -263q87 -130 228 -130q170 0 170 237z" />
  </g>

</svg>
