<?xml version="1.0" standalone="no"?>
<!DOCTYPE svg PUBLIC "-//W3C//DTD SVG 1.1//EN" "http://www.w3.org/Graphics/SVG/1.1/DTD/svg11.dtd" >
<svg viewBox="0 -442 2048 2048">
  <g transform="matrix(1 0 0 -1 0 1606)">
   <path fill="currentColor"
d="M958 1156h-322l224 -164q-22 -21 -57 -47l-230 164v-235q143 -28 227 -118q89 -95 89 -236t-81 -234t-222 -121v-262h179v-46h-177v-189h-155v186h-174v46h173v265q-121 38 -198 131q-80 98 -80 221q0 140 99 242q93 95 235 120v230l-235 -164q-22 13 -54 47l223 165
h-322v73h317l-218 164q27 18 52 43l234 -170v248h94v-248l223 170q11 -7 58 -43l-224 -165h322v-73zM735 555q-21 95 -96 168q-81 78 -174 78q-73 0 -122 -66q-45 -60 -45 -136q0 -13 5 -44h432zM750 450q0 39 -6 57h-430q13 -106 88 -189q81 -89 184 -89q85 0 128 71
q36 59 36 150z" />
  </g>

</svg>
