<?xml version="1.0" standalone="no"?>
<!DOCTYPE svg PUBLIC "-//W3C//DTD SVG 1.1//EN" "http://www.w3.org/Graphics/SVG/1.1/DTD/svg11.dtd" >
<svg viewBox="0 -442 2048 2048">
  <g transform="matrix(1 0 0 -1 0 1606)">
   <path fill="currentColor"
d="M1523 299q0 -89 -76 -89q-17 0 -115 30q-111 34 -196 149q-85 112 -91 230h-167q-15 0 -24 -20q-11 -39 -51 -127q-44 -75 -143 -143q-105 -71 -186 -71q-59 0 -133 24q-81 26 -118 63q-46 45 -84.5 136t-38.5 156q0 150 118.5 273t268.5 123q129 0 235 -89
q103 -88 132 -215l8 -15q88 10 178 10q8 39 29 116q89 274 343 274q15 0 29 -2q33 -46 33 -82q0 -23 -14 -50q-17 -32 -37 -32q-14 0 -41 10.5t-41 10.5q-78 0 -134 -68.5t-53 -146.5l1 -15q49 -17 83 -14l185 16q72 6 72 -59q0 -27 -15 -51q-17 -28 -43 -28
q-11 0 -33.5 5.5t-33.5 5.5h-195q-2 -1 -4 -3q0 -123 124 -190l226 -94q2 -15 2 -28zM736 726q-10 52 -68 102q-56 47 -111 55q-11 -110 -11 -157q43 -4 90 -4h22q46 0 78 4zM736 578v35h-70q-9 0 -120 -16v-174h55q40 0 87.5 57t47.5 98zM445 737q0 97 -22 152h-18
q-13 0 -47 -18q-109 -56 -109 -218q0 -95 42 -158q47 -72 137 -82q17 292 17 324z" />
  </g>

</svg>
