<?xml version="1.0" standalone="no"?>
<!DOCTYPE svg PUBLIC "-//W3C//DTD SVG 1.1//EN" "http://www.w3.org/Graphics/SVG/1.1/DTD/svg11.dtd" >
<svg viewBox="0 -442 2048 2048">
  <g transform="matrix(1 0 0 -1 0 1606)">
   <path fill="currentColor"
d="M1528 1173q0 -80 -63.5 -133t-144.5 -53t-142 54t-61 134t62 136q60 53 141 53q85 0 145 -52q63 -55 63 -139zM1196 528q0 -124 -64 -243q-103 -191 -372 -355q-272 -166 -486 -163q267 93 485 298q257 240 257 486q0 222 -124 222q-107 0 -186 -115q-66 -98 -79 -216
h-223v667h-304v61h301v193h221v-197h489v-54h-484v-502q35 104 110 175q84 78 186 78q273 0 273 -335zM1449 1156q0 58 -41.5 102t-98.5 44q-102 0 -102 -112q0 -59 35 -101q38 -46 95 -46q48 0 80 32.5t32 80.5z" />
  </g>

</svg>
