<?xml version="1.0" standalone="no"?>
<!DOCTYPE svg PUBLIC "-//W3C//DTD SVG 1.1//EN" "http://www.w3.org/Graphics/SVG/1.1/DTD/svg11.dtd" >
<svg viewBox="0 -442 2048 2048">
  <g transform="matrix(1 0 0 -1 0 1606)">
   <path fill="currentColor"
d="M1092 271q0 -199 -142 -347q-144 -151 -342 -151q-210 0 -359 144.5t-149 353.5q0 179 115.5 318.5t291.5 168.5v364h-238v65h237v261h214v-258h232v-65h-230v-368l9 -9q162 -41 261.5 -174.5t99.5 -302.5zM882 284q-31 158 -120 264q-104 124 -253 124q-35 0 -53 -3
q-63 -11 -115 -91q-49 -75 -49 -142v-152h590zM895 164q0 17 -4.5 51t-4.5 51v-4q1 -13 -7 -26h-575q41 -147 132 -245q106 -114 244 -114q103 0 163 96q52 82 52 191z" />
  </g>

</svg>
