<?xml version="1.0" standalone="no"?>
<!DOCTYPE svg PUBLIC "-//W3C//DTD SVG 1.1//EN" "http://www.w3.org/Graphics/SVG/1.1/DTD/svg11.dtd" >
<svg viewBox="0 -442 2048 2048">
  <g transform="matrix(1 0 0 -1 0 1606)">
   <path fill="currentColor"
d="M1136 243q0 -208 -148 -364q-151 -157 -358 -157q-220 0 -375 151t-155 370q0 193 117.5 334t307.5 173v381h-248v68h247v272h223v-269h243v-68h-241v-384q6 -8 10 -10q40 -15 120 -53q121 -70 189 -187.5t68 -256.5zM930 130q0 202 -102 358q-116 179 -307 179
q-117 0 -175 -109q-46 -87 -46 -215q0 -187 100 -331l130 194h-201v77h201l-133 214q12 32 33 49q43 -65 137 -188v279h55v-285q94 127 147 193q20 -29 28 -48l-133 -212h194v-77h-194l133 -205q-10 -30 -33 -51q-48 64 -143 193v-280h-55q35 -11 69 -21q41 -13 71 -13
q107 0 170 100q54 86 54 199zM565 -132v277l-126 -184q61 -72 126 -93z" />
  </g>

</svg>
