<?xml version="1.0" standalone="no"?>
<!DOCTYPE svg PUBLIC "-//W3C//DTD SVG 1.1//EN" "http://www.w3.org/Graphics/SVG/1.1/DTD/svg11.dtd" >
<svg viewBox="0 -442 2048 2048">
  <g transform="matrix(1 0 0 -1 0 1606)">
   <path fill="currentColor"
d="M790 104q0 -148 -92 -264q-99 -125 -243 -125q-153 0 -256 117q-99 111 -99 267q0 307 283 377v282h-162v48h161v125h23q3 3 3 21q0 14 -4 147q-54 -31 -198 -109q-10 27 -43 81q65 36 193 114l-193 115q11 18 49 81l195 -115v229h95v-220l5 -4l192 110l49 -81l-194 -115
l194 -116q-12 -27 -44 -80q-66 37 -199 110q-3 -3 -3 -31v-127q12 -7 31 -5v-128h162v-48h-161v-284q6 -7 9 -8q27 -10 80 -37q167 -103 167 -327zM643 112v24q0 8 -19 63q-30 86 -90 146q-69 70 -152 70q-82 0 -123 -93q-30 -69 -30 -164q0 -20 2 -40l7 -6h405zM654 20
q0 13 -4 38.5t-4 37.5q0 -13 -6 -21h-398v-18q0 -9 18 -54q33 -83 92 -139q69 -66 148 -66q78 0 120 76q34 61 34 146z" />
  </g>

</svg>
