<?xml version="1.0" standalone="no"?>
<!DOCTYPE svg PUBLIC "-//W3C//DTD SVG 1.1//EN" "http://www.w3.org/Graphics/SVG/1.1/DTD/svg11.dtd" >
<svg viewBox="0 -442 2048 2048">
  <g transform="matrix(1 0 0 -1 0 1606)">
   <path fill="currentColor"
d="M1038 120h-352l250 -228q-41 -43 -68 -62l-246 228v-325h-102v325l-250 -223q-22 19 -68 57l245 229h-347v92h347l-245 228l68 57l214 -191v344q-3 6 -8 8q-37 12 -109 46q-85 52 -135.5 141.5t-50.5 189.5q0 156 118.5 273.5t274.5 117.5q170 0 289 -109
q122 -112 122 -280q0 -154 -92 -257q-87 -98 -241 -136v-343l216 196q46 -33 68 -57l-250 -230h352v-91zM833 962q0 142 -84 257q-92 126 -229 126q-80 0 -133 -72q-49 -65 -49 -148q0 -151 80 -270q91 -135 235 -135q93 0 141 78q39 65 39 164z" />
  </g>

</svg>
