<?xml version="1.0" standalone="no"?>
<!DOCTYPE svg PUBLIC "-//W3C//DTD SVG 1.1//EN" "http://www.w3.org/Graphics/SVG/1.1/DTD/svg11.dtd" >
<svg viewBox="0 -442 2048 2048">
  <g transform="matrix(1 0 0 -1 0 1606)">
   <path fill="currentColor"
d="M1232 723q0 -301 -277 -512q-81 -62 -264 -62q-323 0 -501 216q-39 47 -66 167q-24 103 -24 182q0 112 31 200q68 194 186.5 280t320.5 86q153 0 246 -35q106 -39 203 -144q56 -61 87 -109q8 -13 26 -67q32 -98 32 -202zM1110 807l-15 74q-19 96 -104.5 177t-181.5 91
q-13 4 -39 9h-40q-13 -57 -10.5 -175t-11.5 -176q64 -9 134 -9q44 0 133.5 4.5t134.5 4.5zM1110 705q-61 10 -102 7l-284 -18v-172q0 -103 12 -218q118 13 228 109q115 99 131 213q5 35 15 79zM586 1068v53q-1 44 -1 42h-44q8 0 -47 -14q-101 -26 -181 -111
q-86 -92 -86 -192v-51h247q24 0 106 3zM585 315v374h-236q-76 0 -111 -17q18 -165 106 -268q19 -22 80 -55.5t88 -33.5h73z" />
  </g>

</svg>
