<?xml version="1.0" standalone="no"?>
<!DOCTYPE svg PUBLIC "-//W3C//DTD SVG 1.1//EN" "http://www.w3.org/Graphics/SVG/1.1/DTD/svg11.dtd" >
<svg viewBox="0 -442 2048 2048">
  <g transform="matrix(1 0 0 -1 0 1606)">
   <path fill="currentColor"
d="M1263 70q0 -73 -59.5 -126.5t-133.5 -53.5q-46 0 -105.5 40.5t-80.5 83.5h-241v-246h-199v244h-209v54h207v345q-149 40 -245.5 165t-96.5 279q0 185 133 323t317 138q194 0 333 -131.5t139 -324.5q0 -172 -107 -298q-104 -122 -274 -161v-333h217q5 0 7 20v4
q18 72 72 114.5t128 42.5q80 0 137 -49q61 -51 61 -130zM845 769q0 166 -95 301q-105 150 -264 150q-96 0 -153 -85q-51 -75 -51 -175q0 -176 89 -315q102 -160 268 -160q108 0 162 93q44 75 44 191zM1188 54q0 56 -39 99t-95 43q-44 0 -70 -34t-26 -79q0 -51 38 -95t88 -44
q45 0 74.5 32t29.5 78z" />
  </g>

</svg>
