<?xml version="1.0" standalone="no"?>
<!DOCTYPE svg PUBLIC "-//W3C//DTD SVG 1.1//EN" "http://www.w3.org/Graphics/SVG/1.1/DTD/svg11.dtd" >
<svg viewBox="0 -442 2048 2048">
  <g transform="matrix(1 0 0 -1 0 1606)">
   <path fill="currentColor"
d="M1110 1035h-379l269 -240q-40 -40 -67 -61l-228 216q-9 -17 -9 -37v-303q162 -46 256 -149q101 -113 101 -274q0 -183 -127.5 -303.5t-311.5 -120.5q-171 0 -299 126.5t-128 297.5q0 144 92.5 258t233.5 147v359l-229 -217q-22 19 -68 55l258 247h-374v99h374l-264 251
q25 18 73 67l247 -251v245h163v-245l234 251q35 -27 73 -67l-269 -253h379v-98zM889 266q0 108 -42 178q-50 85 -151 85q-155 0 -253 -148q-86 -130 -86 -294q0 -91 51 -160q57 -76 145 -76q148 0 247 137q89 123 89 278z" />
  </g>

</svg>
