<?xml version="1.0" standalone="no"?>
<!DOCTYPE svg PUBLIC "-//W3C//DTD SVG 1.1//EN" "http://www.w3.org/Graphics/SVG/1.1/DTD/svg11.dtd" >
<svg viewBox="0 -442 2048 2048">
  <g transform="matrix(1 0 0 -1 0 1606)">
   <path fill="currentColor"
d="M829 649q0 -104 -148 -104q-24 0 -71.5 6t-71.5 6q-52 0 -52 -42q0 -173 14 -224q5 -20 68 -49q80 -36 86 -41q20 -15 46 -98q23 -76 23 -110q0 -25 -16 -63q-81 -192 -270 -192q-103 0 -163 75q-56 69 -56 174q0 40 7 74q25 122 102 179q5 4 38 20q13 6 19 14
q8 129 8 161q0 122 -45 122q-28 0 -87 -20.5t-92 -20.5q-11 0 -22 2q-46 77 -46 112q0 61 118 61q17 0 50.5 -2.5t50.5 -2.5q23 0 41 1q21 23 21 72q0 131 -19 175q-57 42 -114 85q-103 82 -103 191q0 103 84.5 185t187.5 82q94 0 174.5 -73t80.5 -166q0 -53 -32 -120.5
t-72 -105.5q-31 -18 -80 -67q-18 -31 -18 -108q0 -58 18 -141q33 -12 50 -10l196 22q30 3 60 -13q35 -18 35 -46zM538 1191q0 157 -135 157q-55 0 -96 -36q-44 -37 -44 -91q0 -26 18 -60q25 -45 29 -58q41 -19 79 -19q29 0 78 15q57 17 63 37q8 26 8 55zM599 1q0 82 -59 111
q-39 18 -131 18q-32 0 -61 -38t-29 -71q0 -58 51 -109t109 -51q52 0 87 45q33 41 33 95z" />
  </g>

</svg>
