<?xml version="1.0" standalone="no"?>
<!DOCTYPE svg PUBLIC "-//W3C//DTD SVG 1.1//EN" "http://www.w3.org/Graphics/SVG/1.1/DTD/svg11.dtd" >
<svg viewBox="0 -442 2048 2048">
  <g transform="matrix(1 0 0 -1 0 1606)">
   <path fill="currentColor"
d="M1092 646q0 -149 -120 -249q-102 -85 -261 -115q-5 -5 -4 -36q0 -25 4 -219h228v-48h-230v-193h-217v190h-234v48h232v253q-152 29 -259 112q-131 99 -131 237q0 143 134 246q120 93 270 103q4 4 4 32q0 21 -5 229h-233v48h239v193h209v-190h227v-48h-226v-259l9 -9
q130 -21 239 -106q125 -98 125 -219zM893 550q0 159 -116 264q-112 103 -272 103q-99 0 -158.5 -59.5t-59.5 -158.5q0 -149 120 -253q114 -100 265 -100q94 0 157.5 55.5t63.5 148.5z" />
  </g>

</svg>
