<?xml version="1.0" standalone="no"?>
<!DOCTYPE svg PUBLIC "-//W3C//DTD SVG 1.1//EN" "http://www.w3.org/Graphics/SVG/1.1/DTD/svg11.dtd" >
<svg viewBox="0 -442 2048 2048">
  <g transform="matrix(1 0 0 -1 0 1606)">
   <path fill="currentColor"
d="M1083 640q0 -143 -120 -248q-109 -96 -257 -116q-5 -5 -4 -36q0 -24 4 -217h226v-48h-228v-191h-216v188h-231v48h230v250q-153 30 -259 111q-128 99 -128 238q0 140 134 242q120 93 267 102q4 4 4 32q0 20 -5 227h-231v47h236v191h207v-188h226v-47h-224v-257l9 -9
q127 -20 235 -105q125 -97 125 -214zM874 635q-39 124 -139 197.5t-230 73.5q-99 0 -159.5 -59t-60.5 -158q0 -35 7 -54h582zM887 544q0 11 -4.5 33.5t-4.5 33.5v-4q1 -13 -7 -20h-568q36 -106 144 -178q105 -70 220 -70q94 0 157 56t63 149z" />
  </g>

</svg>
