<?xml version="1.0" standalone="no"?>
<!DOCTYPE svg PUBLIC "-//W3C//DTD SVG 1.1//EN" "http://www.w3.org/Graphics/SVG/1.1/DTD/svg11.dtd" >
<svg viewBox="0 -442 2048 2048">
  <g transform="matrix(1 0 0 -1 0 1606)">
   <path fill="currentColor"
d="M1607 345q0 -91 -72.5 -154.5t-165.5 -63.5q-40 0 -90 18q-46 16 -74 69q-25 45 -49 90q-61 13 -181 13q-40 0 -121 -3t-121 -3q-41 0 -150 12q-17 -11 -32 -52q-15 -44 -45 -69q-23 -19 -85 -38.5t-95 -19.5q-92 0 -157 55q-69 59 -69 149q0 114 83.5 196.5t197.5 82.5
q18 0 58 -28q26 -18 61 -80q32 -58 62 -73q45 -23 150 -23q19 0 56 2.5t55 2.5q112 0 150 7q7 1 32 9q20 7 32 7q15 0 45 -11.5t45 -11.5q57 0 81 42q20 39 39 78q34 42 114 42q98 0 172 -73.5t74 -171.5zM1488 327q0 20 -24 58q-29 47 -33 57q-23 14 -45 14q-38 0 -63 -39
q-23 -35 -23 -75q0 -26 23 -68q8 -2 27 -2q22 0 70 13q52 14 63 26q5 6 5 16zM463 364q0 115 -123 115q-106 0 -106 -87q0 -50 45 -83q40 -31 92 -31q92 0 92 86z" />
  </g>

</svg>
