<?xml version="1.0" standalone="no"?>
<!DOCTYPE svg PUBLIC "-//W3C//DTD SVG 1.1//EN" "http://www.w3.org/Graphics/SVG/1.1/DTD/svg11.dtd" >
<svg viewBox="0 -442 2048 2048">
  <g transform="matrix(1 0 0 -1 0 1606)">
   <path fill="currentColor"
d="M1024 1212q0 -83 -60.5 -134.5t-145.5 -51.5q-80 0 -139 53q-62 54 -62 133t62 134q59 53 139 53q84 0 143 -51q63 -54 63 -136zM1548 925q-25 77 -93 134q-71 61 -149 61q-97 0 -155 -73q-54 -67 -54 -167q0 -245 435 -696h-659v-500q-10 3 -30 3t-69 -3v499h-665
q441 448 441 703q0 98 -54 164q-59 70 -155 70q-150 0 -241 -195v10q-2 120 93 207q93 84 215 84q127 0 200 -95q65 -86 65 -217q0 -182 -152 -376q-43 -55 -289 -303h541v782q20 -3 45 -3q23 0 49 2v-779h548q-194 177 -288 300q-153 200 -153 374q0 131 67 219
q74 96 201 96q75 0 147 -37.5t112 -99.5q16 -25 32 -71q17 -49 15 -93zM946 1196q0 52 -43.5 100t-95.5 48q-45 0 -73 -36t-28 -82q0 -57 37 -102q39 -48 94 -48q45 0 77 37.5t32 82.5z" />
  </g>

</svg>
