<?xml version="1.0" standalone="no"?>
<!DOCTYPE svg PUBLIC "-//W3C//DTD SVG 1.1//EN" "http://www.w3.org/Graphics/SVG/1.1/DTD/svg11.dtd" >
<svg viewBox="0 -442 2048 2048">
  <g transform="matrix(1 0 0 -1 0 1606)">
   <path fill="currentColor"
d="M1149 470q0 -148 -76.5 -293t-199.5 -224q-12 -8 -87 -27.5t-91 -19.5q-10 0 -31 5.5t-31 5.5t-29.5 -5.5t-29.5 -5.5q-57 0 -124 26q-155 60 -251 192q-99 135 -99 298q0 194 142 333q130 127 330 167q16 26 16 61q0 113 -74 176q-70 60 -184 60q-56 0 -98 -14
q-5 -2 -19.5 -11t-25.5 -9q-31 0 -31 48q0 59 88 91q66 24 139 24q98 0 163 -42q35 -23 123 -115q69 100 233 100q82 0 138 -27q75 -35 75 -107q0 -48 -59 -84q-45 32 -89 65q-55 36 -101 36q-131 0 -160 -227q38 -22 155 -58q96 -30 145 -77q67 -64 118 -190
q25 -62 25 -152zM1003 458q0 63 -8 96q-6 25 -38 60q-49 53 -50 54q-8 16 -25 38q-5 3 -40 17q-133 51 -285 52h-24q-62 1 -84 -8q-84 -34 -141 -146q-51 -102 -51 -202q0 -151 126 -249q116 -90 272 -90q153 0 253 114q95 109 95 264z" />
  </g>

</svg>
