<?xml version="1.0" standalone="no"?>
<!DOCTYPE svg PUBLIC "-//W3C//DTD SVG 1.1//EN" "http://www.w3.org/Graphics/SVG/1.1/DTD/svg11.dtd" >
<svg viewBox="0 -442 2048 2048">
  <g transform="matrix(1 0 0 -1 0 1606)">
   <path fill="currentColor"
d="M1788 -171q0 -9 -5.5 -26t-5.5 -25q-29 -17 -41 -17q-8 0 -23.5 8t-23.5 8q-23 0 -69 -5.5t-69 -5.5q-255 0 -310 60q23 22 33 42q43 6 129 22q-19 78 -161 287q-109 161 -203 277q-6 0 -22 -19v-130q0 -59 -8 -175.5t-8 -175.5q0 -38 59 -45q67 -6 85 -61q3 -10 3 -20
q0 -51 -50 -51q-7 0 -28 9t-30 10q-13 2 -57 2q-15 0 -44.5 -3t-44.5 -3q-29 0 -74 15q-53 18 -53 40q0 23 55 43q61 23 68 36q6 75 6 177q0 49 -2 148t-2 148q0 12 -10 61l-8 10q-24 -22 -65 -72q-113 -184 -298 -462q7 -6 104 -41q79 -28 79 -53q0 -50 -120 -50
q-18 0 -53.5 3t-53.5 3q-14 0 -43 -8t-43 -8q-4 0 -130 11q-38 2 -112 10q-13 15 -39 38q11 19 27 60q52 0 167 17q32 29 159 205q166 229 314 449v14q-36 14 -84 14q-20 0 -61 -10.5t-61 -10.5q-13 0 -52 11t-60 11q-41 0 -55 -71q-40 -55 -63 -55q-33 0 -33 107v155
q0 21 24 54t44 33q22 0 40.5 -22.5t18.5 -45.5q0 -13 -7 -23q25 -22 27.5 -23t31.5 -1t84.5 -7.5t83.5 -7.5h181q9 0 24 18q-57 87 -94 136l-370 481q-24 -10 -41 -10q-59 0 -120 48q4 40 49 53q12 3 78 8q13 3 37 6l250 5q15 0 27 -18t12 -34q0 -57 -115 -72
q65 -128 294 -401q26 -31 35 -31t10 58q1 52 8 164q8 107 8 164q0 25 -62 46l-68 22q-16 20 -16 45q0 27 22 39q72 39 202 39q48 0 96 -8q20 -22 49 -40q1 -7 1 -14q0 -56 -60 -78.5t-60 -44.5q0 -48 -2.5 -143.5t-2.5 -143.5q0 -2 14 -39q35 20 133 170q86 130 119 197
q-7 13 -46 16q-33 2 -33 31q0 6 7.5 22.5t8.5 24.5q33 13 101 32q156 23 240 23q26 0 48.5 -19t22.5 -44q0 -50 -54 -60q-81 -15 -88 -19q-412 -540 -436 -581q-4 -14 -11 -40q12 -13 30 -13q12 0 298 15q14 1 40.5 -2t37.5 -3q15 0 29 24q9 18 19 36l-6 11q28 9 54 33
q55 -4 55 -109q0 -123 -38 -192q-15 -27 -62 -27q-7 0 -13 1q-14 31 -37 117q-76 7 -131 7q-20 0 -61 -5t-61 -5q-8 0 -26 7.5t-27 7.5q-33 0 -33 -26q0 -7 199 -277q228 -310 234 -318q22 -32 61 -68q48 -45 73 -45q6 0 18.5 2.5t18.5 2.5q22 0 45 -13q28 -14 28 -34z" />
  </g>

</svg>
