<?xml version="1.0" standalone="no"?>
<!DOCTYPE svg PUBLIC "-//W3C//DTD SVG 1.1//EN" "http://www.w3.org/Graphics/SVG/1.1/DTD/svg11.dtd" >
<svg viewBox="0 -442 2048 2048">
  <g transform="matrix(1 0 0 -1 0 1606)">
   <path fill="currentColor"
d="M1607 440q0 -50 -27 -116q-56 -137 -210 -156q-290 -35 -751 -35h-243q-139 0 -200 41q-76 50 -76 182q0 155 72 258q64 93 145 93h1021q115 0 192 -76t77 -191zM1501 437q0 125 -134 125q-145 0 -145 -139q0 -63 29 -104q33 -47 93 -47q62 0 109.5 51t47.5 114z
M1148 589h-569q17 -43 17 -108q0 -111 -39 -219q60 -9 130 -9q63 0 190.5 10.5t193.5 10.5q28 0 55 -1q-16 44 -16 93q0 45 15 112q21 97 23 111zM514 422q0 60 -47.5 106t-107.5 46q-64 0 -108.5 -45t-44.5 -109q0 -67 48.5 -110t116.5 -43q62 0 102.5 45t40.5 110z" />
  </g>

</svg>
