<?xml version="1.0" standalone="no"?>
<!DOCTYPE svg PUBLIC "-//W3C//DTD SVG 1.1//EN" "http://www.w3.org/Graphics/SVG/1.1/DTD/svg11.dtd" >
<svg viewBox="0 -442 2048 2048">
  <g transform="matrix(1 0 0 -1 0 1606)">
   <path fill="currentColor"
d="M1368 1134q0 -323 -3 -526q-1 -109 -11 -326q-50 -34 -87 -34h-223q-94 0 -94 -29v-253q0 -34 -34 -70q-45 -1 -143 -9q-94 -8 -144 -8q-60 0 -79 12q-33 21 -33 66v228q0 16 -19 25h-181q-7 0 -10 -9q-35 -18 -95 -18q-112 0 -112 57q0 -7 6 55q10 103 10 143v914
q0 26 28 48q23 18 95 18q21 0 63 -5t63 -5h368q73 0 219.5 10.5t219.5 10.5q130 0 170 -80q26 -54 26 -215zM1256 616q0 12 -1 41l-22 643h-669q-173 0 -330 -27v-162q0 -49 8 -147t8 -147v-395q0 -16 -3 -46.5t-3 -46.5q0 -10 1 -17q11 0 33.5 -3t34.5 -3q32 0 96.5 8
t96.5 8q129 0 129 -114q0 -27 -9.5 -81t-9.5 -82q0 -52 20 -75q103 6 201 6q8 41 7 89l-1 62q0 20 -5.5 60.5t-5.5 61.5q0 28 7 42.5t65 31.5q53 16 76 16q19 0 57.5 -1t57.5 -1q97 0 141 15q20 156 20 264z" />
  </g>

</svg>
