<?xml version="1.0" standalone="no"?>
<!DOCTYPE svg PUBLIC "-//W3C//DTD SVG 1.1//EN" "http://www.w3.org/Graphics/SVG/1.1/DTD/svg11.dtd" >
<svg viewBox="0 -442 2048 2048">
  <g transform="matrix(1 0 0 -1 0 1606)">
   <path fill="currentColor"
d="M1420 674v-21q-3 -273 -193 -485q-198 -220 -466 -220q-289 0 -481 229q-180 217 -180 509q0 13 3 21q43 131 109 240q95 157 184 157q93 0 195 -183q34 59 69 117q50 76 101 76q55 0 101 -74q31 -59 63 -119q100 198 196 198q122 0 259 -316q16 -32 38 -96q2 -11 2 -33z
M1323 740q-29 75 -81 143q-68 89 -126 89q-65 0 -119 -84q-36 -70 -72 -139q-5 6 -31 68q-62 150 -133 150q-54 0 -104 -90q-32 -68 -63 -137h729zM588 740q-33 77 -79 140q-65 87 -121 87q-57 0 -119 -87q-52 -72 -70 -140h389zM1328 599v63h-1134v-62q0 -40 23 -118
q55 -187 201 -307q152 -125 343 -125q186 0 335 120q141 114 203 297q29 87 29 132z" />
  </g>

</svg>
