<?xml version="1.0" standalone="no"?>
<!DOCTYPE svg PUBLIC "-//W3C//DTD SVG 1.1//EN" "http://www.w3.org/Graphics/SVG/1.1/DTD/svg11.dtd" >
<svg viewBox="0 -442 2048 2048">
  <g transform="matrix(1 0 0 -1 0 1606)">
   <path fill="currentColor"
d="M1432 -42q0 -16 -23.5 -42t-39.5 -26q-22 0 -65 7.5t-65 7.5h-172q-51 0 -51 45q0 60 100 75q-9 39 -44 124q-25 62 -122 250q-105 206 -128 227q-6 6 -67 6q-77 0 -108 -38q-40 -48 -135 -270q-28 -65 -48 -107q-11 -19 -31 -58q-1 -2 -9 -41q-12 -35 -35 -104
q76 -33 95 -80q-22 -22 -46 -43.5t-56 -21.5q-23 0 -68.5 7.5t-68.5 7.5q-14 0 -43.5 -5t-43.5 -5q-58 0 -58 50q0 57 45 60q76 6 93 17q28 17 44 58q13 36 25 71q219 510 219 520q0 15 -39 51q-43 40 -49 54q-33 81 -33 164q0 161 104.5 274t264.5 113q137 0 232 -121
q89 -113 89 -253q0 -66 -34 -139q-35 -76 -87 -111q21 -82 92 -231q80 -167 127 -284q11 -45 45 -126q13 -20 109 -29q85 -8 85 -54zM979 998q0 57 -76 106q-69 44 -129 44q-79 0 -143 -51q-68 -54 -68 -131q0 -93 63.5 -153t157.5 -60q107 0 145 48q13 16 32 95
q18 75 18 102z" />
  </g>

</svg>
