<?xml version="1.0" standalone="no"?>
<!DOCTYPE svg PUBLIC "-//W3C//DTD SVG 1.1//EN" "http://www.w3.org/Graphics/SVG/1.1/DTD/svg11.dtd" >
<svg viewBox="0 -442 2048 2048">
  <g transform="matrix(1 0 0 -1 0 1606)">
   <path fill="currentColor"
d="M1607 1305q0 -78 -225 -136q-53 -21 -161 -57q-22 -2 -66 -9q-47 -9 -104 -44t-81 -73q72 -82 210 -251q27 -35 49 -71q31 -62 99 -155q35 -10 90 -28q81 -36 131 -102q53 -70 53 -154q0 -114 -79 -188.5t-194 -74.5q-101 0 -173 65q-75 68 -75 168q0 71 38 154
q39 87 93 127q-41 84 -128 211q-26 38 -104 119q-88 92 -111 92q-5 0 -37 -29q-72 -66 -158 -185q-133 -185 -144 -198q39 -38 53 -65q58 -114 58 -201q0 -104 -76.5 -170.5t-181.5 -66.5q-114 0 -191 68.5t-77 181.5q0 114 79 200t192 86q9 0 24 -2q19 -3 25 -3l2 3
q87 134 341 449q-125 95 -319 154q-120 36 -348 77q-11 20 -11 37q0 14 41.5 59t54.5 45q14 0 24 -9q38 -1 110 -8q16 -9 51 -23q29 -2 86 -13q120 -35 238 -96q12 -6 85 -69q59 -50 91 -50q15 0 85 46q40 35 126 98q54 26 162 79q133 65 247 65q106 0 106 -53zM1495 246
q0 51 -36 98.5t-85 47.5q-74 0 -130 -42q-62 -46 -62 -117q0 -64 44.5 -114t107.5 -50q60 0 110.5 58t50.5 119zM555 236q0 73 -59 127.5t-133 54.5q-67 0 -107 -45t-40 -112q0 -73 54 -117.5t128 -44.5q67 0 110 34q47 37 47 103z" />
  </g>

</svg>
