<?xml version="1.0" standalone="no"?>
<!DOCTYPE svg PUBLIC "-//W3C//DTD SVG 1.1//EN" "http://www.w3.org/Graphics/SVG/1.1/DTD/svg11.dtd" >
<svg viewBox="0 -442 2048 2048">
  <g transform="matrix(1 0 0 -1 0 1606)">
   <path fill="currentColor"
d="M1499 -9l-45 -60l-604 -3q-92 0 -302 -2q-30 -2 -99 -8l-199 -16q-70 -6 -119 26q-3 7 -12 167q-9 153 -9 178v632q0 16 -5 47.5t-5 47.5q0 92 48 92q19 0 78 -50.5t70 -71.5q33 -64 66 -129q37 -70 80 -121q36 22 92 81q67 80 135 161q108 125 138 125q67 0 174 -181.5
t131 -181.5q32 0 164.5 162t167.5 162h35v-258q0 -516 20 -799zM1383 499l-7 337q-56 -43 -161 -136q-27 -38 -88 -106q-6 -6 -16 -5h-12q-29 1 -56 43q-20 34 -40 67q-46 73 -91 145q-56 89 -113 127q-62 -90 -210 -246q-33 -36 -101 -102q-18 -15 -49 -15q-63 0 -126 103
q-68 110 -106 119l-5 -246q-2 -103 15 -241l624 -6q161 -2 322 21q93 13 74 13q12 0 36.5 -5t36.5 -5q45 0 66 11q9 52 7 127zM1374 102q0 21 -1 69q-1 44 -1 69q-165 23 -258 20l-896 -25q-2 -21 -2 -45q0 -80 16 -162l659 -5l160 5l321 10q2 28 2 64z" />
  </g>

</svg>
