<?xml version="1.0" standalone="no"?>
<!DOCTYPE svg PUBLIC "-//W3C//DTD SVG 1.1//EN" "http://www.w3.org/Graphics/SVG/1.1/DTD/svg11.dtd" >
<svg viewBox="0 -442 2048 2048">
  <g transform="matrix(1 0 0 -1 0 1606)">
   <path fill="currentColor"
d="M1031 304q0 -187 -134 -327.5t-320 -140.5q-198 0 -337.5 135.5t-139.5 332.5q0 171 107 299.5t275 157.5v342h-223v61h222v245h201v-243h218v-61h-216v-345q4 -6 8 -8q36 -14 108 -48q231 -134 231 -400zM846 203q0 180 -89 318q-103 159 -273 159q-204 0 -204 -289
q0 -247 170 -381q46 -36 82 -53q49 -23 113 -23q96 0 152 90q49 77 49 179zM683 280q0 -43 -37 -77.5t-80 -34.5q-49 0 -80.5 31.5t-31.5 80.5q0 46 33 76t79 30q45 0 81 -31t36 -75z" />
  </g>

</svg>
