<?xml version="1.0" standalone="no"?>
<!DOCTYPE svg PUBLIC "-//W3C//DTD SVG 1.1//EN" "http://www.w3.org/Graphics/SVG/1.1/DTD/svg11.dtd" >
<svg viewBox="0 -442 2048 2048">
  <g transform="matrix(1 0 0 -1 0 1606)">
   <path fill="currentColor"
d="M1707 789q0 -43 -32 -69q-33 -18 -88 -47q-101 -55 -312 -153q-54 -21 -122 -65l-116 -76q-157 -83 -468 -254q-20 -14 -61 -37q-36 -17 -100 -17q-126 0 -217 92.5t-91 218.5q0 140 149 260q90 73 272 158q76 35 228 107q178 90 356 179q279 136 335 136q44 0 44 -44
q0 -23 -28 -43l-46 -28q-86 -60 -290 -325v-6l242 40q143 22 244 22q51 0 95 -6q1 -5 3.5 -20t2.5 -23zM1365 708h-23q-58 0 -251 -45q-199 -46 -245 -73q-41 13 -41 44q0 25 82 102q55 49 109 98q57 55 75 74q39 43 60 85q-90 -34 -281 -130q-206 -104 -372 -198
q81 -55 141 -130q74 -92 74 -171q0 -20 -6 -38q201 111 428 229q68 33 202 104q29 17 48 49zM577 346q0 68 -47 134q-51 73 -116 73q-86 0 -145 -30q-76 -39 -76 -117q0 -54 37 -117q40 -67 89 -82q19 -6 71 -6q187 0 187 145z" />
  </g>

</svg>
