<?xml version="1.0" standalone="no"?>
<!DOCTYPE svg PUBLIC "-//W3C//DTD SVG 1.1//EN" "http://www.w3.org/Graphics/SVG/1.1/DTD/svg11.dtd" >
<svg viewBox="0 -442 2048 2048">
  <g transform="matrix(1 0 0 -1 0 1606)">
   <path fill="currentColor"
d="M1486 955q0 -280 -167 -495q-174 -224 -446 -265l10 -3v-232h219v-44h-216v-176h-193v173h-214v44h212v237q-4 5 -13 7q-125 34 -201 77q-170 97 -273.5 276.5t-103.5 376.5q0 107 102 282q110 190 207 190q94 0 206 -187q37 61 75 122q53 76 108 76q56 0 104 -78
q32 -63 64 -125q118 208 208 208q131 0 272 -335q16 -33 38 -99q2 -10 2 -30zM1385 1020q-33 82 -85 151q-71 93 -134 93q-65 0 -123 -87q-38 -71 -77 -142q-33 69 -65 138q-51 91 -105 91q-91 0 -178 -244h767zM611 1020q-97 239 -210 239q-110 0 -199 -239h409zM1390 877
v61h-1194v-60q0 -32 19 -108q51 -203 211 -335q164 -136 370 -136q183 0 332 111q143 106 215 280q47 114 47 187z" />
  </g>

</svg>
