<?xml version="1.0" standalone="no"?>
<!DOCTYPE svg PUBLIC "-//W3C//DTD SVG 1.1//EN" "http://www.w3.org/Graphics/SVG/1.1/DTD/svg11.dtd" >
<svg viewBox="0 -442 2050 2048">
  <g transform="matrix(1 0 0 -1 0 1606)">
   <path fill="currentColor"
d="M2050 -34h-88h-7q0 272 -125 484q-130 221 -371 331q-180 81 -381 81q-203 0 -385 -84q-241 -111 -370 -332q-124 -213 -122 -485h-101v88q0 123 64 297q104 284 359 453q248 165 555 165q327 0 579 -183q256 -185 349 -496q44 -148 44 -245v-74zM1358 210
q0 -105 -84 -176q-79 -68 -186 -68q-105 0 -185 70t-80 174t81 176q79 69 184 69q108 0 187 -68q83 -71 83 -177zM1256 187q0 74 -56 132.5t-130 58.5q-130 0 -130 -148q0 -79 47 -134q49 -59 126 -59q62 0 102.5 43.5t40.5 106.5z" />
  </g>

</svg>
