<?xml version="1.0" standalone="no"?>
<!DOCTYPE svg PUBLIC "-//W3C//DTD SVG 1.1//EN" "http://www.w3.org/Graphics/SVG/1.1/DTD/svg11.dtd" >
<svg viewBox="0 -442 2048 2048">
  <g transform="matrix(1 0 0 -1 0 1606)">
   <path fill="currentColor"
d="M1560 -70q0 -8 -3 -20q-3 -15 -3 -20q-182 -12 -294 -12q-287 0 -287 76q0 35 45 49q35 9 71 18q-128 221 -225 334q-50 -17 -115 -17q-4 0 -139 17l-120 -188q-88 -146 -82 -186q38 -9 110 -34v-20q2 -72 -66 -72q-289 0 -340 41q-2 11 -2 20q0 45 72 61q93 20 105 30
q20 17 59 91q27 52 53 104q32 44 63 88q45 62 45 91q0 22 -40 49q-50 33 -57 43q-7 29 -27 81q-33 62 -33 118q0 52 20 117q21 70 52 106q16 15 33 31q23 22 23 34q0 30 -41 82q-31 39 -62 77q-29 53 -94 136q-7 5 -106 30q-75 19 -75 71q0 37 59 56q42 14 89 14
q57 0 128 -22q91 -27 91 -69q0 -15 -19 -41t-34 -30q13 -50 71 -127q45 -59 90 -119q140 35 145 35q19 0 58 -11.5t58 -11.5q65 0 115 149q2 7 51 121q-17 19 -54 25q-43 6 -56 14q0 92 40 92q11 0 45 -11.5t54 -11.5q27 0 82.5 9t83.5 9q32 0 49 -19q1 -11 1 -18
q0 -17 -18 -50q-18 -36 -32 -36q-6 0 -12 3t-12 3q-53 0 -83 -51q-18 -30 -71 -139q-58 -119 -58 -133q0 -17 35 -51q44 -43 50 -52q31 -48 41 -94q9 -38 8 -109v-28q-1 -73 -47 -128.5t-46 -81.5q0 -48 132 -225q127 -169 180 -205h155q35 0 63 -24t28 -58zM798 906
q-36 25 -66 25h-15q-39 0 -58 -13q13 -78 66 -121q57 25 73 109zM979 649q0 112 -42 151q-29 27 -62 26q-4 -8 -39 -71q-32 -55 -32 -62q0 -34 47 -89q44 -52 79 -68q49 63 49 113zM647 655q0 109 -102 177q-67 -39 -67 -131q0 -111 108 -166q61 43 61 120zM774 464
q-20 55 -48 83q-27 -12 -44 -68q58 -12 92 -15z" />
  </g>

</svg>
