<?xml version="1.0" standalone="no"?>
<!DOCTYPE svg PUBLIC "-//W3C//DTD SVG 1.1//EN" "http://www.w3.org/Graphics/SVG/1.1/DTD/svg11.dtd" >
<svg viewBox="0 -442 2048 2048">
  <g transform="matrix(1 0 0 -1 0 1606)">
   <path fill="currentColor"
d="M1926 230q0 -117 -50 -217q-31 17 -102 16h-29q-465 -3 -769 -11q-68 -2 -268 -12q-168 -9 -268 -9q-212 0 -329 33q5 22 5 64q0 58 -8 173t-8 172q0 95 43 175q71 13 132 13q40 0 120 -4.5t120 -4.5q54 0 79 10q19 7 51 44q38 44 49 53q79 52 232 162q71 55 217 179
l136 118q103 83 144 83q28 0 47 -25q16 -23 16 -52q0 -23 -95 -256q-113 -278 -117 -288l9 -8q64 -7 198 -15q106 -7 121 -7q39 0 118 8t118 8q25 0 50 -11q32 -13 32 -34q6 -336 6 -357zM1819 269v256l-9 -5q-3 1 -12 3.5t-14 2.5h-549q-8 0 -24 -5.5t-24 -5.5
q-14 0 -25 23q-9 20 -9 36q0 42 169 486h-19q-123 -102 -370 -305q-54 -44 -176 -136q-28 -35 -79 -81q-63 -33 -153 -33h-237q-9 0 -76 -17q4 -191 4 -195q5 -90 28 -184l1559 37q16 126 16 123z" />
  </g>

</svg>
