<?xml version="1.0" standalone="no"?>
<!DOCTYPE svg PUBLIC "-//W3C//DTD SVG 1.1//EN" "http://www.w3.org/Graphics/SVG/1.1/DTD/svg11.dtd" >
<svg viewBox="0 -442 2048 2048">
  <g transform="matrix(1 0 0 -1 0 1606)">
   <path fill="currentColor"
d="M1121 828q0 -118 -98 -200q-92 -78 -213 -78q-123 0 -212 77q-93 80 -93 201q0 122 93 205q89 80 212 80q121 0 214 -81q97 -85 97 -204zM1508 324q0 -119 -96 -201q-91 -78 -212 -78q-122 0 -213 77q-95 82 -95 202q0 123 94 205q90 79 214 79q122 0 213 -80
q95 -83 95 -204zM710 327q0 -121 -91.5 -201.5t-213.5 -80.5t-212 78q-93 81 -93 201q0 122 93 204q89 80 212 80q122 0 213.5 -80t91.5 -201zM998 802q0 86 -62 154.5t-147 68.5q-67 0 -111 -52.5t-44 -120.5q0 -83 58 -153q61 -73 142 -73q69 0 116.5 53t47.5 123z
M1391 300q0 86 -64.5 153t-149.5 67q-70 0 -115 -54q-41 -50 -41 -122q0 -83 60.5 -150t142.5 -67q73 0 120 49.5t47 123.5zM593 297q0 93 -59.5 158t-151.5 65q-68 0 -112 -54q-41 -50 -41 -119q0 -85 59 -151q60 -69 144 -69q71 0 116 49.5t45 120.5z" />
  </g>

</svg>
