<?xml version="1.0" standalone="no"?>
<!DOCTYPE svg PUBLIC "-//W3C//DTD SVG 1.1//EN" "http://www.w3.org/Graphics/SVG/1.1/DTD/svg11.dtd" >
<svg viewBox="0 -442 2048 2048">
  <g transform="matrix(1 0 0 -1 0 1606)">
   <path fill="currentColor"
d="M1722 287q0 -36 -55 -158q-14 -21 -40 -64q-10 -28 -19 -56q-12 -34 -36 -45q-17 -8 -40 -7q-16 15 -16 40q0 10 3 29.5t3 29.5q0 21 -11 34q-63 -8 -382 -11q-83 -2 -250 -5q-109 -2 -191 -13q-10 -1 -38 -11q-24 -8 -37 -8h-276q-50 0 -80 -29q-30 -33 -60 -65v-4
q2 -67 -62 -67q-5 0 -14.5 3t-14.5 3q0 9 -3 28.5t-3 29.5q0 62 47 169q38 81 77 163q28 14 49 14q31 0 37 -25q1 -4 1 -50q0 -15 2 -27q37 -15 135 -15q37 0 408 20q-22 77 -77 167q-71 114 -220 340q-19 35 -70 93q-39 14 -77 29q-46 18 -46 66q0 88 186 88q160 0 160 -51
q0 -22 -29.5 -59t-29.5 -63q0 -42 84 -182q78 -129 120 -172q20 50 14 117q-12 123 -32 370v126q-42 21 -85 43q-53 28 -53 67q0 28 17 51q45 4 162 19q76 10 82 10q111 0 111 -72q0 -33 -45 -58q-35 -20 -71 -39q-2 -3 -2 -9q0 1 12 -377q2 -17 4 -52q1 -55 20 -164
q28 27 54 73q108 190 108 225q0 16 -46 45q-49 30 -54.5 43.5t-5.5 30.5q0 94 236 94q131 0 160 -8q17 -5 33.5 -32t16.5 -46q0 -36 -23 -46q-30 -7 -90 -30q-79 -41 -109 -92q-51 -87 -251 -514q33 -26 115 -25h31q43 0 130.5 10.5t131.5 10.5h131q16 0 53.5 61.5
t66.5 61.5q17 0 30 -17.5t13 -35.5z" />
  </g>

</svg>
