<?xml version="1.0" standalone="no"?>
<!DOCTYPE svg PUBLIC "-//W3C//DTD SVG 1.1//EN" "http://www.w3.org/Graphics/SVG/1.1/DTD/svg11.dtd" >
<svg viewBox="0 -442 2048 2048">
  <g transform="matrix(1 0 0 -1 0 1606)">
   <path fill="currentColor"
d="M1672 1122v-12h-32q-13 14 -48.5 26.5t-57.5 12.5l-299 -4q107 -85 107 -257q0 -261 -282 -331q84 -127 194 -304q73 -118 82 -132q51 -75 98 -120q40 -38 82 -30v-38h-251q-193 319 -374 601q-8 2 -22 2q-48 0 -67 -9v-393q0 -175 155 -163v-38h-461v38l17 -1
q129 -4 129 111v996q0 33 -23 72h-276q-60 0 -127 -61q-62 -58 -81 -119h-35v261h1572v-108zM1172 891q0 114 -55 184q-61 78 -172 78q-20 0 -60.5 -2.5t-61.5 -2.5q-21 -19 -21 -32v-512h41q329 0 329 287z" />
  </g>

</svg>
