<?xml version="1.0" standalone="no"?>
<!DOCTYPE svg PUBLIC "-//W3C//DTD SVG 1.1//EN" "http://www.w3.org/Graphics/SVG/1.1/DTD/svg11.dtd" >
<svg viewBox="0 -442 2048 2048">
  <g transform="matrix(1 0 0 -1 0 1606)">
   <path fill="currentColor"
d="M1044 1217q0 -51 -26 -102q-21 -42 -84 -123q-66 -86 -89 -128q-19 -34 -50 -138q-53 -30 -80 -30q-20 0 -36 25q-13 22 -13 44q0 37 51.5 102.5t51.5 91.5q0 46 -76 80q-64 29 -118 29q-89 0 -173 -62q-78 -57 -118 -142q-30 -63 -30 -179q0 -160 36 -248
q37 -91 159.5 -179t219.5 -88q56 0 170 45q109 42 124 40q-2 -69 -67.5 -134t-134.5 -65q-8 0 -24 5.5t-25 5.5q-16 0 -48.5 -11.5t-48.5 -11.5q-200 0 -357.5 154.5t-157.5 354.5q0 138 67 296q10 22 28 68q44 118 178 197q126 74 259 74q79 0 147 -31q5 -2 40 -24
q30 -19 36 -19q30 0 66 74t75 74h41q1 -6 4 -21.5t3 -23.5z" />
  </g>

</svg>
