<?xml version="1.0" standalone="no"?>
<!DOCTYPE svg PUBLIC "-//W3C//DTD SVG 1.1//EN" "http://www.w3.org/Graphics/SVG/1.1/DTD/svg11.dtd" >
<svg viewBox="0 -442 2048 2048">
  <g transform="matrix(1 0 0 -1 0 1606)">
   <path fill="currentColor"
d="M1045 -310q0 -8 -3 -17q-24 -15 -54 -15q-52 0 -86 43q-31 39 -31 93q0 19 12 58t12 58q0 37 -43 84.5t-43 79.5q0 22 9.5 67t9.5 67q0 15 -58 77t-58 113q0 10 2.5 31.5t2.5 32.5q0 16 -5 26t-26 23.5t-32 13.5h-56q-2 -1 -3 -4q0 -20 21.5 -72t21.5 -67
q0 -17 -21.5 -70.5t-21.5 -70.5q0 -16 21.5 -70t21.5 -70q0 -21 -12 -72t-12 -69q0 -27 12 -84.5t12 -84.5q0 -24 -63 -133h-27q-1 6 -11 30q-9 20 -9 27q0 18 9.5 55t9.5 55q0 25 -9.5 77t-9.5 77q0 21 9.5 63.5t9.5 63.5q0 25 -9.5 77t-9.5 77q0 19 9.5 58.5t9.5 58.5
q0 17 -41 124q-29 -2 -57 -4q-31 -8 -31 -49q0 -13 4.5 -37t4.5 -36q0 -64 -56.5 -90t-56.5 -72q0 -21 9.5 -64.5t9.5 -64.5q0 -18 -31 -62t-31 -71q0 -6 14 -58q29 -106 29 -149q0 -39 -34 -64q-30 -22 -71 -22q-38 0 -47 33q-18 59 -19 61h22q29 -1 64 4q-44 155 -44 223
q0 24 32 62.5t32 59.5q0 29 -10.5 85.5t-10.5 81.5q0 41 37 66l68 42v131q0 25 49 58q34 24 123 53q-21 7 -57 28q-18 36 -50 94q-14 22 -99 72q-71 42 -71 78v203q-25 17 -69 56q-16 19 -16 110q0 19 9.5 36.5t9.5 22.5v70q-22 7 -42 13.5t-20 46.5q38 15 74 15
q97 0 97 -81q0 -18 -21.5 -74t-21.5 -74q0 -7 47 -57q51 -53 56 -63q2 -4 2 -23q0 -31 -9.5 -93t-9.5 -94q40 -19 107 -71q9 -12 25 -59q13 -39 38 -59h60q3 3 3 10q0 17 -9.5 51t-9.5 51q0 11 9.5 34.5t9.5 34.5q0 24 -19 85t-19 94q0 26 19 51.5t19 31.5q0 4 -31 61
t-31 87q0 8 21.5 56t21.5 56q0 5 -9 20.5t-9 22.5v73h15q26 0 56 -40t31 -67q0 -4 1 -15.5t1 -17.5q0 -22 -10 -66t-10 -66q0 -7 22 -51.5t22 -71.5q0 -3 -42 -99q-2 -5 -2 -37q0 -8 31.5 -54t31.5 -53q0 -10 -19 -71q-21 -68 -24 -83q29 -13 52 -13q50 0 62 55q8 45 16 91
q25 10 49 21q35 16 35 32v210q28 16 57 33.5t29 50.5q0 17 -21.5 69t-21.5 69q0 45 26 84q29 43 72 43q50 0 50 -36q0 -11 -3 -15q-59 -40 -59 -54q0 -7 31 -64t31 -80q0 -77 -62 -110.5t-62 -62.5q0 -26 10 -78t10 -78q0 -8 -3 -12q-72 -95 -118 -148q-83 -96 -132 -127
q36 -28 72 -55q47 -37 54 -68q6 -41 32 -118q4 -8 59 -74q35 -42 35 -87q0 -22 -9.5 -66.5t-9.5 -66.5q0 -34 43 -80t43 -92q0 -22 -12 -68t-12 -68q0 -25 44 -44t44 -45z" />
  </g>

</svg>
