<?xml version="1.0" standalone="no"?>
<!DOCTYPE svg PUBLIC "-//W3C//DTD SVG 1.1//EN" "http://www.w3.org/Graphics/SVG/1.1/DTD/svg11.dtd" >
<svg viewBox="0 -442 2048 2048">
  <g transform="matrix(1 0 0 -1 0 1606)">
   <path fill="currentColor"
d="M1788 993q0 -58 -49 -158q-37 -76 -75 -153q-10 -41 -36 -120q-6 -15 -45 -81q-48 -82 -71 -132q-14 -32 -77 -196q-9 -26 -30 -76q-13 -12 -35 -38q-6 -17 -20 -49q-16 -24 -36 -83h-34q-40 0 -179 236q-83 146 -165 292q-62 -67 -126 -187q-96 -180 -108 -199
q-4 -6 -56 -65q-43 -49 -42 -64q-58 -24 -52 -24q-27 0 -37 25l-14 42q-9 5 -24 21q0 1 -25 99q-69 275 -339 805q-13 26 -13 67q0 -14 11 22q5 16 7 45q35 28 64 28q30 0 51 -51l26 -76q30 -53 84 -163q6 -35 25 -104q13 -15 35 -49q13 -30 96 -255q9 -30 32 -88
q7 -8 19 -27q14 -34 44 -102q25 0 50 45q17 33 33 67q32 5 64 71q40 86 47 94q13 7 35 27q72 94 72 195q0 28 -13 114q-7 30 -18 92q-3 30 -3 72q0 28 2.5 84t2.5 84q0 63 -74 63q-19 0 -56 -8.5t-56 -8.5q-79 0 -79 85q0 84 161 105q15 3 43 6l213 6q119 3 185 -30
q19 -78 19 -101q0 -49 -19.5 -68t-70.5 -19q-17 0 -51.5 5.5t-51.5 5.5q-22 0 -36 -14q0 -24 5.5 -72.5t5.5 -73.5v-213q0 -247 118 -320l-1 -6q0 -15 20 -40q14 -18 29 -36q5 -16 15 -49q16 -22 40 -60q7 -20 23 -59q9 1 15 -5q13 16 39 75q4 18 14 54q9 5 24 22
q6 21 20 60q24 39 67 120q12 44 41 131q23 29 63 92q30 83 117 251q15 22 50 53q41 36 60 36q30 0 30 -74z" />
  </g>

</svg>
