<?xml version="1.0" standalone="no"?>
<!DOCTYPE svg PUBLIC "-//W3C//DTD SVG 1.1//EN" "http://www.w3.org/Graphics/SVG/1.1/DTD/svg11.dtd" >
<svg viewBox="0 -442 2272 2048">
  <g transform="matrix(1 0 0 -1 0 1606)">
   <path fill="currentColor"
d="M2272 193q0 -110 -108 -138q-40 -10 -193 -10q-17 -36 -16 -99l1 -30q22 -10 64 -32v-26h-191q-4 0 -4 9q0 11 27 24q31 17 35 21q1 35 5 129q4 81 4 128q0 52 -3 80q-71 -1 -71 39q0 7 3 16q46 32 147 32q300 0 300 -143zM1825 27q0 -72 -53 -125t-125 -53
q-59 0 -94.5 34.5t-35.5 93.5q0 41 25.5 76.5t64.5 35.5q22 0 22 -24q0 -14 -24 -32t-24 -32q0 -19 21 -33.5t41 -14.5q-2 0 35 18q10 1 28 7q27 15 27 51q0 48 -92 90t-92 112q0 31 30.5 76t59.5 45q98 0 98 -89q0 -46 -42 -46q-20 0 -36 22t-34 22q-24 0 -24 -18
q0 -25 58 -50q84 -36 108 -54q58 -43 58 -112zM1517 428q-1 -72 -19 -157q-24 -122 -65 -122q-27 0 -33 44q-6 49 -9 50q-29 14 -135 10q-121 -4 -133 -4q-68 0 -91 5q-3 1 -37 29q1 12 1 25q0 101 -48 173q-56 83 -153 83q-14 0 -79 -31q-61 -29 -78 -42q-39 -28 -39 -67
q0 -7 2 -21.5t2 -21.5q0 -15 -13.5 -37.5t-13.5 -34.5q0 -6 3 -11q-51 -28 -137 -31q-71 -1 -142 -1q-48 -3 -78 -15q-3 -1 -28 -76q-24 -70 -58 -70q-36 0 -36 50q0 32 17 79q22 61 25 77q5 33 23 96q16 37 45 37q5 0 36 -18q1 -10 1 -20q0 -14 -3 -27q25 -19 46 -19h147
q5 0 16 -4t17 -4q16 0 24 19q6 41 30 120q29 65 106 111t151 46q135 0 251 -129q21 -23 38 -87q24 -88 27 -96h164q104 0 146 17q2 1 24 44q20 39 56 39q12 0 30 -8zM2192 195q0 70 -130 70q-47 0 -97 -13q2 -40 8 -119q21 -4 70 -4q149 0 149 66z" />
  </g>

</svg>
