<?xml version="1.0" standalone="no"?>
<!DOCTYPE svg PUBLIC "-//W3C//DTD SVG 1.1//EN" "http://www.w3.org/Graphics/SVG/1.1/DTD/svg11.dtd" >
<svg viewBox="0 -442 2048 2048">
  <g transform="matrix(1 0 0 -1 0 1606)">
   <path fill="currentColor"
d="M1621 1261q0 -15 -41.5 -34t-35.5 -44q-51 10 -84 10h-448l-16 -877q-1 -71 20 -199q80 75 209 296q-40 15 -118 53q-8 17 -8 24q0 57 158 57q34 0 94 -10q69 -12 88 -26q4 -19 8 -56q-11 -12 -81 -27q-61 -13 -108 -87q-2 -3 -4 -31q0 -11 -5 -18q-30 -44 -87 -136
q-36 -71 -116 -211q-15 -46 -52 -130q-19 -34 -60 -34q-18 0 -39 12q-24 125 -24 197l-4 573q-45 -31 -94 -103q-39 -60 -78 -119q-28 -28 -73 -87q-2 -13 -8 -37q-15 -12 -41 -39q-13 -30 -41 -86q-46 -65 -133 -199q5 -4 58 -27q40 -17 40 -39q0 -33 -91 -51
q-64 -12 -119 -12q-57 0 -111 14q-76 21 -76 60q0 27 61 35q68 9 70 11q21 25 160 210q174 232 283 392q24 48 80 141q33 36 67 71q45 49 45 79q0 23 -1 68.5t-1 68.5v222q-2 20 -29 46h-173l-247 -16q-39 -3 -117 13q-24 77 -24 71t6 18q86 28 140 28q55 0 166 -6.5
t166 -6.5l243 13l485 27q34 2 83 -15q58 -19 58 -47z" />
  </g>

</svg>
