<?xml version="1.0" standalone="no"?>
<!DOCTYPE svg PUBLIC "-//W3C//DTD SVG 1.1//EN" "http://www.w3.org/Graphics/SVG/1.1/DTD/svg11.dtd" >
<svg viewBox="0 -442 2048 2048">
  <g transform="matrix(1 0 0 -1 0 1606)">
   <path fill="currentColor"
d="M1121 -147q0 -35 -48 -51q-37 -13 -77 -10l-162 13l-197 -11l-396 -23q-67 -4 -94 12q-36 20 -36 83q0 3 16 214q5 65 5 68l-32 484q-3 47 19 125q26 93 63 93q48 0 144 -5.5t143 -5.5q20 15 19 51l-5 569q0 45 43 45q34 0 52 -12l-4 -433q0 -17 -3 -65t-3 -67
q0 -54 44 -77q14 85 14 236q0 58 -2 173.5t-2 173.5q0 41 33 82q49 -1 55 -23q17 -56 17 -637h252q45 0 113 -32q4 -34 10 -152q3 -68 3 -57q-5 -538 -5 -537q0 -37 10.5 -112t10.5 -112zM1009 215l-28 524q-188 10 -267 10q-156 0 -256 -8q-80 -9 -240 -25v-828h650
q67 0 130 17q4 73 8 206q3 99 3 104z" />
  </g>

</svg>
