<?xml version="1.0" standalone="no"?>
<!DOCTYPE svg PUBLIC "-//W3C//DTD SVG 1.1//EN" "http://www.w3.org/Graphics/SVG/1.1/DTD/svg11.dtd" >
<svg viewBox="0 -442 2048 2048">
  <g transform="matrix(1 0 0 -1 0 1606)">
   <path fill="currentColor"
d="M1484 1318q-1 -31 -18 -67q-24 0 -72 -3t-71 -3q-3 -8 -24 -107q-34 -158 -87 -242q-14 -22 -48.5 -46.5t-45.5 -39.5q-9 -24 -42 -68q-36 -27 -101 -54q-98 -40 -105 -44q1 -90 28 -163q32 0 99 6t100 6q95 0 95 -63q0 -103 -132 -103q-36 0 -168 6q-5 -8 -5 -23
q0 -13 1 -15l28 -256q116 -18 124 -20q83 -23 83 -74q0 -39 -24 -52q-16 -8 -59 -8q-26 0 -78 5.5t-77 5.5q-33 0 -98 -11.5t-97 -11.5q-89 0 -89 69q0 48 43 61q40 8 80 15q9 3 25 21q30 35 30 110q0 -3 -8 173q-22 10 -49 10q-29 0 -85.5 -8.5t-84.5 -8.5q-51 0 -68 8
q-26 14 -26 58q0 29 19 65q22 41 49 41q-14 0 56 -16q52 -12 114 -12q67 0 79 27q4 9 4 89q0 68 -27 82q-16 8 -81.5 32t-188.5 81q-38 21 -89 97q-49 72 -88 182q-30 97 -59 194q-12 3 -62 3q-84 0 -84 58q0 12 3 26q115 58 266 58q146 0 146 -75q0 -13 -13 -51q6 1 -59 1
q-25 0 -43 -11q-1 -15 -1 -30q0 -172 130.5 -301.5t303.5 -129.5q148 0 264 134q112 128 112 279q0 15 -10 21q-39 13 -114 44q-22 10 -19 66q212 30 272 30q81 0 146 -47z" />
  </g>

</svg>
