<?xml version="1.0" standalone="no"?>
<!DOCTYPE svg PUBLIC "-//W3C//DTD SVG 1.1//EN" "http://www.w3.org/Graphics/SVG/1.1/DTD/svg11.dtd" >
<svg viewBox="0 -442 2048 2048">
  <g transform="matrix(1 0 0 -1 0 1606)">
   <path fill="currentColor"
d="M1423 396q0 -130 -94 -244q-99 -121 -226 -121q-60 0 -107 38q-17 13 -82 85q0 14 -5.5 42.5t-5.5 43.5q0 63 50 140q54 83 113 83q65 0 65 -51q0 -18 -6 -23q-37 -15 -92 -40q-1 -7 -1 -18q0 -62 24 -112q31 -62 86 -62q30 0 72 26t59 52q34 53 34 128q0 84 -106 189
q-126 125 -151 187q-11 28 -11 52q0 5 1 15v16q0 47 -15 68h-12q-3 -17 -10 -49q-5 -19 -51 -84q-16 -23 -75 -73q-63 -54 -81 -54q-46 0 -46 65q0 24 16.5 85t16.5 85v40q-24 4 -22 4q-10 0 -31 -7t-31 -7q-16 0 -32 15v82q104 0 116 1q23 42 27 132q5 115 10 141h30
q31 -24 31 -95q0 -22 -2.5 -67.5t-2.5 -69.5v-11l12 -11q16 -2 79 -14q52 -10 78 -10q60 0 118.5 69.5t120.5 69.5q120 0 120 -111q0 -76 -92 -119q-74 -35 -159 -33q9 -75 25 -110q14 -31 83 -95q90 -83 99 -94q63 -72 63 -169zM680 370q0 -115 -56 -196q-49 -69 -158 -136
q-26 -16 -108 -16q-258 0 -258 225q0 47 17 107q20 70 49 93q44 35 94 35q2 0 34 -14q4 -7 4 -15q0 -23 -26.5 -47.5t-51.5 -33.5v-10q-2 -130 79 -181q3 -2 21.5 -2t42.5 -36q9 -1 18 -1q75 0 133.5 59t58.5 135q0 151 -124 219q-14 1 -42 12q-12 9 -47 43q-93 90 -93 178
q0 89 52.5 146.5t140.5 57.5q151 0 151 -99q0 -63 -47 -63q-29 0 -79 28t-69 28q-42 0 -42 -60q0 -14 17.5 -34t17.5 -39q0 -3 3 -8q13 -23 112 -89q96 -62 122 -125q34 -83 34 -161zM1321 994v21q-31 19 -47 19q-56 0 -88 -54q30 -15 56 -15q11 0 45 11t34 18zM922 855
q0 35 -28 35q-10 0 -23.5 -12.5t-13.5 -22.5v-76q21 7 43 31.5t22 44.5z" />
  </g>

</svg>
