<?xml version="1.0" standalone="no"?>
<!DOCTYPE svg PUBLIC "-//W3C//DTD SVG 1.1//EN" "http://www.w3.org/Graphics/SVG/1.1/DTD/svg11.dtd" >
<svg viewBox="0 -442 2048 2048">
  <g transform="matrix(1 0 0 -1 0 1606)">
   <path fill="currentColor"
d="M1600 717v-13q-13 -19 -58.5 -34.5t-71.5 -12.5l-260 32q-18 2 -38 2q-33 0 -47 -12q-36 -61 -88 -149q-37 -59 -125 -91q-5 -21 -5 -69q0 -56 23 -163t23 -163q0 -94 -78 -94q-25 0 -48 14q-26 15 -28 38q-1 7 -1 30q0 57 8 154q5 70 5 68v158q-63 29 -125 57
q-68 38 -92 98q-10 33 -21 67q-13 28 -58 28l-83 -6l-166 -13q-23 -2 -86 10q-66 13 -80 24v32q0 20 29 53t48 32l352 -23q24 0 37 1q27 49 87 144q29 40 69 63.5t80 45.5q-3 60 -18 193q-9 77 -9 80q0 162 84 162q17 0 37 -12q25 -51 25 -157q0 -46 -23 -179q-9 -53 -9 -58
q0 -29 45 -58l68 -40q79 -52 104 -123q19 -53 31 -53q9 0 28 4.5t28 4.5h208q7 0 42.5 16t42.5 16q10 0 53.5 -21.5t49.5 -29.5q12 -16 11 -53zM1035 703q0 93 -41 151q-48 67 -137 67q-82 0 -130 -50t-48 -132q0 -130 83 -176q21 -12 67 -12q89 0 146 16q60 100 60 136z
" />
  </g>

</svg>
