<?xml version="1.0" standalone="no"?>
<!DOCTYPE svg PUBLIC "-//W3C//DTD SVG 1.1//EN" "http://www.w3.org/Graphics/SVG/1.1/DTD/svg11.dtd" >
<svg viewBox="0 -442 2048 2048">
  <g transform="matrix(1 0 0 -1 0 1606)">
   <path fill="currentColor"
d="M1069 659q0 -201 -147.5 -348.5t-348.5 -147.5q-218 0 -350 156q-123 147 -123 370q0 205 128.5 338t333.5 133q199 0 353 -151.5t154 -349.5zM937 640q0 168 -99 274q-102 108 -269 108q-164 0 -266 -87q-109 -93 -109 -254q0 -175 107 -285.5t281 -110.5q149 0 252 103
t103 252zM816 722q0 -45 -32 -74.5t-78 -29.5q-105 0 -105 112q0 42 33.5 70.5t76.5 28.5q46 0 75.5 -30t29.5 -77zM551 725q0 -99 -99 -99q-48 0 -79 36t-31 85q0 104 99 104q50 0 80 -37.5t30 -88.5zM689 540q0 -55 -27 -95q-31 -45 -83 -45q-43 0 -74 33.5t-31 76.5
q0 49 36 80t86 31q93 0 93 -81z" />
  </g>

</svg>
