<?xml version="1.0" standalone="no"?>
<!DOCTYPE svg PUBLIC "-//W3C//DTD SVG 1.1//EN" "http://www.w3.org/Graphics/SVG/1.1/DTD/svg11.dtd" >
<svg viewBox="0 -442 2048 2048">
  <g transform="matrix(1 0 0 -1 0 1606)">
   <path fill="currentColor"
d="M873 130q0 -93 -22 -149q-38 -97 -130 -166q-95 -71 -197 -71q-172 0 -296 110q-128 114 -128 284q0 137 79 252q65 95 238 116q9 90 9 249v94q-37 14 -80 14q-13 0 -37.5 -2.5t-37.5 -2.5q-101 0 -101 49q0 51 130.5 52.5t130.5 31.5q0 22 -63 22q-21 0 -62.5 -7.5
t-62.5 -7.5q-83 0 -83 60q0 25 16 48q88 0 222 16q13 5 13 10q0 12 -50 12q-25 0 -75.5 -3t-75.5 -3q-70 0 -70 57q0 13 11 26q87 8 261 27q0 182 69 182q39 0 54 -32q22 -48 16 -154q57 -7 105 -7q76 0 155 17q7 -14 7 -35q0 -66 -77 -66q-24 0 -71.5 3t-71.5 3
q-47 0 -47 -14q0 -26 92 -26q19 0 57 2.5t57 2.5q44 0 59 -8q22 -13 22 -53q0 -50 -116 -50q-20 0 -60 2.5t-60 2.5q-46 0 -46 -18q0 -38 57 -38q26 0 78.5 5.5t78.5 5.5q35 0 82 -26q-12 -56 -30.5 -72.5t-74.5 -16.5h-187q-19 -81 -19 -267v-81q332 -71 332 -380zM782 138
q0 116 -87 187q-81 66 -199 66q-129 0 -209 -55q-92 -63 -92 -186q0 -147 105 -224q93 -67 246 -67q100 0 171 91q65 85 65 188z" />
  </g>

</svg>
