<?xml version="1.0" standalone="no"?>
<!DOCTYPE svg PUBLIC "-//W3C//DTD SVG 1.1//EN" "http://www.w3.org/Graphics/SVG/1.1/DTD/svg11.dtd" >
<svg viewBox="0 -442 2048 2048">
  <g transform="matrix(1 0 0 -1 0 1606)">
   <path fill="currentColor"
d="M1456 107q0 -30 -58 -52q-26 -10 -130 -13l-622 -17q-64 -2 -106 30q-46 36 -41 99q35 441 34 517v55h-404q-5 14 -29 38q10 31 35 46q53 31 103 31h247q17 0 28 37q9 29 9 51v212q0 14 -4 41.5t-4 41.5q0 35 10 54q14 26 49 47.5t64 21.5q9 0 49 -11.5t69 -11.5
q-1 0 54 1q84 0 250 5q91 9 273 28q23 2 56.5 -19.5t33.5 -44.5q0 -35 -87 -61q-71 -21 -119 -21h-184q-9 0 -29.5 -8.5t-30.5 -8.5q-25 0 -75 3t-76 3q-73 0 -148 -32q0 -22 6 -66t6 -67v-152q46 -27 93 -27q45 0 136.5 6t136.5 6q15 0 30 -24t15 -41q0 -70 -102 -70
q-32 0 -97 8.5t-97 8.5q-65 0 -83 -11q-27 -16 -27 -76v-488q46 -23 74 -22h22q28 0 88.5 14t89.5 14q8 0 23.5 -5.5t23.5 -5.5q39 0 118.5 11.5t118.5 11.5q64 0 124 -17q84 -24 84 -70z" />
  </g>

</svg>
