<?xml version="1.0" standalone="no"?>
<!DOCTYPE svg PUBLIC "-//W3C//DTD SVG 1.1//EN" "http://www.w3.org/Graphics/SVG/1.1/DTD/svg11.dtd" >
<svg viewBox="0 -442 2048 2048">
  <g transform="matrix(1 0 0 -1 0 1606)">
   <path fill="currentColor"
d="M1691 -149q-10 25 -35 54q-28 33 -50.5 37t-68.5 9q-42 5 -154 40q-86 27 -189.5 126.5t-138.5 185.5q-58 142 -67 248l-7 6h-881v125h885q16 104 45 188q52 151 219 284q171 135 328 142q16 0 48 8q21 10 66 68v-351q-39 77 -45 85q-28 34 -84 34q-148 0 -277.5 -87.5
t-193.5 -223.5q-40 -84 -38 -141h285q22 0 61 65v-268q-21 69 -65 70l-277 5q-4 -3 -3 -7v-11q3 -99 91 -221t180 -160q22 -12 69 -32q80 -26 158 -26q60 0 85 20q12 9 54 70v-342z" />
  </g>

</svg>
