<?xml version="1.0" standalone="no"?>
<!DOCTYPE svg PUBLIC "-//W3C//DTD SVG 1.1//EN" "http://www.w3.org/Graphics/SVG/1.1/DTD/svg11.dtd" >
<svg viewBox="0 -442 2048 2048">
  <g transform="matrix(1 0 0 -1 0 1606)">
   <path fill="currentColor"
d="M1753 656q1 -18 -7 -35q-20 -30 -59 -91q-14 -27 -29 -54q-22 -39 -39 -39q-22 0 -47 54q-19 -3 -58 -3q-38 0 -112.5 6t-112.5 6h-162q-16 0 -33.5 16.5t-17.5 32.5t4 46.5t4 46.5q0 65 -47.5 117.5t-112.5 52.5q-118 0 -118 -132q0 -16 19.5 -40t19.5 -42
q0 -53 -80 -80q-57 -18 -127 -18q-38 0 -114 2.5t-114 2.5q-80 0 -115 -12q-18 -6 -57 -43q-35 -32 -56 -32q-24 0 -24 48q0 30 63 121t93 110q17 -8 19 -40q2 -36 15 -45q8 0 32 -3q20 -3 32 -3q5 0 290 13q13 122 62 203q63 106 170 106q152 0 206 -85q41 -65 41 -226
q0 -21 66 -21h364q10 6 50 51q31 36 54 36q16 0 38 -20v-7zM1763 411q0 -9 -50.5 -100.5t-62.5 -107.5q-23 -30 -53 -30q-32 0 -32 20q0 9 7 26.5t7 26.5q0 8 -7 12q-89 11 -190 11q-82 0 -247 -3.5t-247 -3.5t-246 6t-246 6q-121 0 -172 -30q-15 -9 -43 -61
q-24 -43 -57 -43q-24 0 -24 36q0 20 40 92q7 17 24 48q9 9 25 29.5t31 41.5q21 26 42 26h29q7 -20 5 -48q603 -9 604 -9q3 0 720 9q6 4 54 46q35 31 58 31q31 0 31 -31z" />
  </g>

</svg>
