<?xml version="1.0" standalone="no"?>
<!DOCTYPE svg PUBLIC "-//W3C//DTD SVG 1.1//EN" "http://www.w3.org/Graphics/SVG/1.1/DTD/svg11.dtd" >
<svg viewBox="0 -442 2048 2048">
  <g transform="matrix(1 0 0 -1 0 1606)">
   <path fill="currentColor"
d="M1783 750q-27 -25 -41 -51q-24 -48 -49 -96q-39 -66 -71 -66h-21q-10 14 -10 46q0 29 11 52q-40 25 -79 26q-288 10 -298 10q-18 0 -54.5 -4t-55.5 -4q-543 5 -615 5q-32 0 -96.5 -3t-96.5 -3q-58 0 -90 -40q-55 -68 -65 -75q-22 17 -22 39q0 71 39 150q45 94 108 94
q25 0 25 -45q0 -15 -5 -28q15 -14 38 -15q111 -5 199 -5q94 0 283 7.5t284 7.5q65 0 194 -4.5t194 -4.5q48 0 156 8q8 1 37.5 27.5t52.5 26.5q21 0 32 -19zM1688 175q0 -33 -62 -65q-55 -27 -93 -27q-18 0 -38 30t-34 30q-10 0 -77.5 -36t-77.5 -36q-23 0 -102 70
q-66 -76 -149 -76q-24 0 -46 32q-15 26 -31 52q-26 -5 -81 -37q-50 -29 -84 -29q-30 0 -60 37t-45 38q-134 -94 -223 -94q-66 0 -100 65q-32 -22 -65 -44q-36 -23 -74 -23q-49 0 -97.5 45.5t-48.5 94.5q0 34 53 127q47 83 79 119q21 23 60 50q46 30 69 30q58 0 90 -16
q7 -4 39 -31q28 -25 33 -25t12.5 5t12.5 5q12 0 21 -26q8 -22 8 -37q0 -29 -42 -97t-42 -107q0 -30 35 -30q25 0 75 19q65 25 75 28q78 157 109 198q80 108 184 108q78 0 116 -60q17 9 31 9q18 0 48 -29l-75 -203q0 -24 -1 -54l4 -5q16 0 50 19l48 28q7 92 90 175t174 83
q28 0 63 -18.5t47 -42.5q17 15 33 31q27 24 33 24q14 0 25 -12v-18q0 -52 -34.5 -121.5t-34.5 -82.5t12 -36q28 18 46 18q42 0 42 -52zM1501 365q0 1 -1 10q-27 18 -50 18q-48 0 -85.5 -49.5t-37.5 -99.5q0 -43 22 -57q152 82 152 178zM1026 395q0 2 -10 33q-86 3 -73 3
q-41 0 -77 -59q-33 -54 -33 -98q0 -26 13 -74q54 -3 118 70q62 70 62 125zM454 411q-44 24 -63 24q-51 0 -86 -48q-17 -23 -46 -92q-4 -9 -9 -27l-3 -78q29 -1 18 -1q7 0 29 9q56 24 107 89t53 124z" />
  </g>

</svg>
