<?xml version="1.0" standalone="no"?>
<!DOCTYPE svg PUBLIC "-//W3C//DTD SVG 1.1//EN" "http://www.w3.org/Graphics/SVG/1.1/DTD/svg11.dtd" >
<svg viewBox="0 -442 2048 2048">
  <g transform="matrix(1 0 0 -1 0 1606)">
   <path fill="currentColor"
d="M1733 495q0 -111 -78 -209q-83 -105 -191 -105q-52 0 -107 37.5t-80 85.5q-18 34 -18 100q0 123 93 123q41 0 41 -37q0 -14 -7.5 -41.5t-7.5 -41.5q0 -22 20.5 -55.5t40.5 -42.5q14 -6 41 -6q114 0 114 125q0 103 -78 155q-94 51 -187 102q-107 69 -107 169q0 80 67 137
t148 57q76 0 122 -46t46 -122q0 -23 -14 -58q-17 -40 -37 -40q-35 0 -64 57q-22 42 -43 85q-9 2 -23 2q-85 0 -85 -33q0 -23 27 -59q37 -50 139 -97q122 -56 155 -83q73 -59 73 -159zM1190 480q0 -119 -88.5 -214t-206.5 -95q-76 0 -144 57q-71 60 -71 135q0 29 20 67
q23 44 49 44q37 0 49 -45l22 -82q22 -45 84 -45q48 0 95 30q53 33 53 79q0 104 -86 161q-79 45 -158 91q-86 67 -86 197q0 90 60 144.5t150 54.5q67 0 132 -32q78 -38 78 -98q0 -26 -28.5 -57t-53.5 -31q-29 0 -65.5 53.5t-86.5 53.5q-85 0 -85 -75q0 -42 79 -88
q59 -29 117 -58q171 -89 171 -247zM658 441q0 -61 -73 -143q-68 -77 -130 -100q-49 -18 -105 -18q-87 0 -163 46q-87 54 -87 135q0 34 19 70q22 42 53 42q34 0 37 -46q6 -66 17 -84q27 -46 119 -46q71 0 129 37q67 42 67 109q0 70 -85 139q-79 58 -159 117q-85 75 -85 157
q0 39 25 92t55 75q39 29 116 29q66 0 125 -30q72 -37 72 -97q0 -75 -48 -75q-33 0 -78 45.5t-79 45.5q-29 0 -53 -19.5t-24 -47.5q0 -47 111 -111q66 -38 106 -64q56 -36 88 -114q30 -71 30 -144z" />
  </g>

</svg>
