<?xml version="1.0" standalone="no"?>
<!DOCTYPE svg PUBLIC "-//W3C//DTD SVG 1.1//EN" "http://www.w3.org/Graphics/SVG/1.1/DTD/svg11.dtd" >
<svg viewBox="0 -442 2048 2048">
  <g transform="matrix(1 0 0 -1 0 1606)">
   <path fill="currentColor"
d="M1508 964q0 14 -7 -53q-4 -38 -50 -89q-48 -54 -84 -54q-12 0 -36.5 7.5t-36.5 7.5q-38 0 -80 -22q-28 -15 -72 -71q-33 -42 -65 -84q-15 -17 -192 -224v-202q0 -148 22 -200q39 -14 77 -28q74 -30 74 -72q0 -50 -36 -50q-9 0 -43 10.5t-59 10.5q-33 0 -100 -5t-100 -5
q-43 0 -56 8q-19 12 -19 52q0 44 54 48q66 5 75 16q17 136 17 174q0 37 -3.5 111t-3.5 112q0 23 -28 43q-48 35 -103 96q-47 52 -94 105q-20 21 -69.5 53.5t-69.5 52.5l-48 58q-30 34 -63 34q-11 0 -34 -5t-34 -5q-67 0 -107 64q-34 56 -34 127q0 85 46 150q51 72 132 72
q60 0 107 -37q26 -19 63 -67q29 -37 42 -37h236q6 0 60 6l169 18q66 7 72 7q13 0 38 -2.5t38 -2.5q50 0 107 39.5t110 39.5q84 0 138 -62q50 -59 50 -145zM1414 969q0 33 -37 56q-32 20 -67 20q-32 0 -63 -22q0 -68 7 -85q14 -34 69 -34q33 0 60 16q31 19 31 49zM1126 878
q0 47 -22 71q-92 9 -224 7l-333 -5q-23 -3 -69 -8q-29 -33 -48 -74q112 -112 128 -127q75 -70 140 -112q13 -9 69 -70q46 -49 71 -49q10 0 129 135.5t136 164.5q23 39 23 67zM393 1021q0 32 -25.5 51.5t-58.5 19.5q-60 0 -82 -23t-22 -84q0 -26 22 -48.5t48 -22.5
q37 0 77.5 35.5t40.5 71.5z" />
  </g>

</svg>
