<?xml version="1.0" standalone="no"?>
<!DOCTYPE svg PUBLIC "-//W3C//DTD SVG 1.1//EN" "http://www.w3.org/Graphics/SVG/1.1/DTD/svg11.dtd" >
<svg viewBox="0 -442 2048 2048">
  <g transform="matrix(1 0 0 -1 0 1606)">
   <path fill="currentColor"
d="M1541 108q0 -18 -11 -42q-13 -27 -29 -27q-19 0 -57 1h-56q-56 0 -150 -7q-109 -8 -149 -9q-185 -6 -540 -6l-118 -7l-236 -14q-29 -2 -54.5 22.5t-31.5 53.5q-9 46 -9 148q0 35 1 106t1 106q0 164 60 228q162 24 266 24l678 -1q47 0 88 1t150 14q59 7 62 7q43 0 108 -38
v-399q0 -27 13.5 -80.5t13.5 -80.5zM1398 173v229q0 20 -5.5 58.5t-5.5 58.5q0 23 10 37l-804 -2q-35 0 -368 -24l4 -8q0 -21 -2.5 -65t-2.5 -66q0 -84 22 -251h223q14 0 41.5 5t41.5 5q50 0 150.5 -5t150.5 -5q232 0 545 33zM1298 455q0 -69 -158 -69q-17 0 -47 1t-42 1
q-38 0 -53 -5q-39 73 -39 77q0 39 69 58q47 13 103 13q53 0 101 -15q66 -20 66 -61zM1287 279q0 -19 -39 -69q-11 0 -53 -4q-33 -2 -54 -2h-170q-33 44 -33 66q0 71 156 71q76 0 193 -38v-24zM911 455q0 -11 -18.5 -41.5t-28.5 -30.5h-146q-87 0 -87 66q0 5 2 33
q37 44 138 44q44 0 85 -15q55 -20 55 -56zM896 264q0 -19 -12 -43q-14 -28 -31 -28q-12 0 -34.5 5t-34.5 5q-11 0 -34 -2.5t-34 -2.5q-85 0 -85 58q0 85 148 85q117 0 117 -77zM541 465q0 -76 -127 -76h-36q-112 0 -112 55q0 82 132 82q72 0 135 -24q8 -29 8 -37zM589 280
q0 -82 -222 -82q-106 0 -106 69q0 40 75 62q55 17 107 17q45 0 87 -13q59 -18 59 -53z" />
  </g>

</svg>
