<?xml version="1.0" standalone="no"?>
<!DOCTYPE svg PUBLIC "-//W3C//DTD SVG 1.1//EN" "http://www.w3.org/Graphics/SVG/1.1/DTD/svg11.dtd" >
<svg viewBox="0 -442 2048 2048">
  <g transform="matrix(1 0 0 -1 0 1606)">
   <path fill="currentColor"
d="M1994 -169q-22 57 -74 78q-20 8 -107 21q-25 7 -74 21q-66 18 -120 54q-107 71 -187 205q-86 141 -84 262v8q-34 5 -305 9q-182 3 -545 10l-4 -3l171 -209q-9 -12 -46 -61l-167 210v-302h-72v302l-166 -210q-15 19 -42 59l162 213h-234v87h234l-162 216q7 13 42 59
l167 -215v312h72v-312l165 215q21 -21 47 -56l-171 -219l850 16q0 2 12 57q2 10 19 73q40 149 187.5 281t299.5 148q54 6 77 17q29 15 55 58v-321q-42 73 -44 77q-26 30 -78 30q-140 0 -263.5 -89.5t-175.5 -221.5q-28 -72 -27 -109h148q81 0 123 7q23 4 49 57v-249
q-15 54 -45 62q-25 7 -272 7q-2 -1 -3 -2q0 -48 32 -127q120 -292 454 -292q44 0 102 79v-312z" />
  </g>

</svg>
