<?xml version="1.0" standalone="no"?>
<!DOCTYPE svg PUBLIC "-//W3C//DTD SVG 1.1//EN" "http://www.w3.org/Graphics/SVG/1.1/DTD/svg11.dtd" >
<svg viewBox="0 -442 2048 2048">
  <g transform="matrix(1 0 0 -1 0 1606)">
   <path fill="currentColor"
d="M1600 162q0 -124 -74 -206q-76 -85 -199 -85q-113 0 -179 76q-63 72 -63 187q0 90 45 147q30 38 122 98q-20 118 -155 365l-204 362q-32 -1 -92 -108q-18 -18 -49 -58q-20 -31 -142 -257q-124 -231 -124 -239q0 -14 55 -58q63 -51 69 -58q42 -54 42 -134
q0 -112 -87 -204.5t-199 -92.5q-141 0 -243 141q-23 32 -23 109q0 65 34.5 133.5t86.5 108.5q21 16 67 30q41 13 52 25q4 4 39 57.5t98 152.5l225 354q40 67 124 195q38 53 84 53q12 0 21 -8q22 -82 105 -209q85 -132 107 -201q13 -43 116 -196q92 -136 139 -194
q28 -35 74 -69q58 -43 74 -58q54 -51 54 -159zM1470 118q0 57 -37 105.5t-93 48.5q-55 0 -98 -50.5t-43 -106.5q0 -53 42 -89t96 -36q56 0 94.5 36.5t38.5 91.5zM553 183q0 62 -36 104t-97 42q-68 0 -132 -53q-68 -55 -68 -121q0 -58 50 -95q45 -33 106 -33q72 0 124.5 42.5
t52.5 113.5z" />
  </g>

</svg>
