<?xml version="1.0" standalone="no"?>
<!DOCTYPE svg PUBLIC "-//W3C//DTD SVG 1.1//EN" "http://www.w3.org/Graphics/SVG/1.1/DTD/svg11.dtd" >
<svg viewBox="0 -442 2048 2048">
  <g transform="matrix(1 0 0 -1 0 1606)">
   <path fill="currentColor"
d="M1311 1380q0 -20 -7 -41q-64 -4 -143 -21q-1 -22 -4 -87q-2 -54 -2 -87q0 -65 3.5 -196t3.5 -196q0 -17 -1 -49.5t-1 -49.5q0 -76 19 -189q9 -53 9 -63q0 -106 -164 -112q-133 -5 -200 -5q-10 -56 -10 -193q0 -163 12 -193q57 -1 153 -19q19 -8 19 -28q0 -35 -53 -63
q-46 -24 -84 -24h-177q-21 0 -62 -5.5t-62 -5.5q-92 0 -91 105q33 24 107 30l116 4q0 11 -3 33t-3 33v255q0 58 -67 58q-25 0 -75.5 -2t-75.5 -2q-139 0 -160 46q-17 36 -18 168q-1 171 -6 514q-3 24 -7 73l-6 124q-8 75 -36 117q-41 3 -81 6q-54 7 -54 43q0 33 79 57
q62 18 108 18q83 0 259 -35q-3 -20 -6 -59q-51 -3 -143 -33q-2 -13 -2 -24q0 -9 3 -26.5t3 -26.5q0 -68 -7 -204.5t-7 -205.5q0 -341 46 -413h362q6 0 90 7l181 15q-9 217 -17 435q-14 250 -47 432q-9 7 -70 31q-45 17 -45 37q0 7 3 19t3 16q147 29 220 29q35 0 102 -10
q76 -12 95 -24q1 -8 1 -13z" />
  </g>

</svg>
