<?xml version="1.0" standalone="no"?>
<!DOCTYPE svg PUBLIC "-//W3C//DTD SVG 1.1//EN" "http://www.w3.org/Graphics/SVG/1.1/DTD/svg11.dtd" >
<svg viewBox="0 -442 2048 2048">
  <g transform="matrix(1 0 0 -1 0 1606)">
   <path fill="currentColor"
d="M1251 576q0 -7 -197 -211q-348 -361 -396 -361q-21 0 -56 46q-45 61 -50 65q-59 50 -130 135l-120 144q-61 62 -121 124q-81 89 -81 140q0 55 78 117l120 92q48 58 153 168q63 50 178 158q11 17 23 34q16 23 29 23q37 0 142 -131l118 -146q77 -90 228 -271
q82 -101 82 -126zM1115 593q-62 62 -149 172q-113 142 -144 177q-42 48 -131 131q-7 5 -26 7q-43 -85 -191 -214q-156 -136 -205 -217q72 -93 217 -278q33 -42 105 -112q87 -86 110 -86q15 0 160 145q113 114 165 170q59 65 89 105z" />
  </g>

</svg>
