<?xml version="1.0" standalone="no"?>
<!DOCTYPE svg PUBLIC "-//W3C//DTD SVG 1.1//EN" "http://www.w3.org/Graphics/SVG/1.1/DTD/svg11.dtd" >
<svg viewBox="0 -442 2048 2048">
  <g transform="matrix(1 0 0 -1 0 1606)">
   <path fill="currentColor"
d="M1808 730q0 -5 -20 -36q-32 -54 -63 -109q-39 -62 -84 -93q-24 10 -26.5 32t-4.5 43q-22 15 -158 15q-91 0 -272 -7t-271 -7q-84 0 -252 4.5t-252 4.5q-113 0 -169 -13q-38 -28 -86 -56h-33q-6 11 -6 37q0 46 39 118l64 112q6 1 23 7.5t25 6.5q32 0 32 -26
q0 -10 -5.5 -28.5t-5.5 -27.5q0 -29 217 -30l809 -5q39 0 117.5 10.5t116.5 10.5q14 0 42.5 -5.5t42.5 -5.5q45 0 70 48t38 48q11 0 41.5 -19t30.5 -29zM1792 446q0 -22 -25 -58l-38 -54q-15 -44 -54 -111q-12 -12 -56 -12q-22 19 -22 44q0 11 5.5 32t4.5 32v4
q-108 11 -157 9l-258 -9q2 -129 -74 -205.5t-204 -76.5q-131 0 -177 44q-18 17 -50.5 82t-38.5 93l-15 67h-1q-12 0 -35.5 -2.5t-35.5 -2.5q-36 0 -110 10.5t-110 10.5q-77 0 -115 -28q-7 -5 -44 -54q-31 -40 -48 -40h-22q-12 22 -12 42q0 58 54 140q59 89 113 89
q31 0 60 -53q50 -6 57 -6l185 11q153 0 181 -55q9 -17 11 -66q4 -54 9 -72q12 -41 63 -66q44 -22 92 -22q39 0 82 17q52 20 62 50q-1 -3 -1 83q0 125 64 125q31 0 92.5 -5t92.5 -5q27 0 80 5t80 5h174q4 0 48.5 29.5t58.5 29.5q34 0 34 -51z" />
  </g>

</svg>
