<?xml version="1.0" standalone="no"?>
<!DOCTYPE svg PUBLIC "-//W3C//DTD SVG 1.1//EN" "http://www.w3.org/Graphics/SVG/1.1/DTD/svg11.dtd" >
<svg viewBox="0 -442 2048 2048">
  <g transform="matrix(1 0 0 -1 0 1606)">
   <path fill="currentColor"
d="M1800 293q0 -73 -22 -158q-26 -100 -68.5 -142t-133.5 -57q-18 -3 -151 -14q-76 -6 -188 -21q-91 -12 -123 -12q-44 0 -60 8q-23 13 -23 53q0 15 14 40q20 36 21 39q17 42 18 109l12 755q0 9 -15 9q-24 0 -145 -159q0 -1 -84 -129q-62 -93 -87.5 -109t-63.5 -16
q-5 0 -16 1h-16q-28 0 -102 86q-45 58 -91 116q-70 87 -150 142q-28 -92 -28 -289q0 -88 1 -263.5t1 -263.5q0 -19 51.5 -41t51.5 -56q0 -16 -15 -35t-30 -19h-138q-120 0 -120 29q0 54 61 90q0 1 21 375q10 179 10 178q0 52 -6.5 155t-6.5 155q0 37 9 117q11 93 22 106
q16 19 39 19h11q49 0 154 -102q137 -133 284 -298q131 107 282 296q34 44 67 88q44 55 78 76q41 26 128 26q391 0 463 -81q57 -64 57 -162q0 -178 -146 -282q0 -1 29 -26q144 -126 144 -333zM1616 905v18q0 109 -192 109q-32 0 -96 -5t-94 -5q-18 -64 -18 -120
q0 -25 3 -74.5t3 -73.5q38 -6 108 -6q286 0 286 157zM1662 307q0 139 -76 192q-7 5 -98 44q-35 17 -71 34q-30 12 -79 12q-70 0 -117 -31v-436q0 -23 26 -78q11 6 171 6q37 0 89 20q155 60 155 237z" />
  </g>

</svg>
