<?xml version="1.0" standalone="no"?>
<!DOCTYPE svg PUBLIC "-//W3C//DTD SVG 1.1//EN" "http://www.w3.org/Graphics/SVG/1.1/DTD/svg11.dtd" >
<svg viewBox="0 -442 2048 2048">
  <g transform="matrix(1 0 0 -1 0 1606)">
   <path fill="currentColor"
d="M1397 1170q0 -41 -43 -110q-23 -36 -65 -56q-46 -21 -54 -31q-31 -38 -52 -115v-38q0 -13 -3 -21q-9 -29 -67 -181q-48 -125 -131 -377q-29 -56 -78 -163q-25 -76 -51 -152q-32 -88 -75 -141q-18 3 -48 25q-19 58 -50 151q-70 191 -166 390q-52 102 -145 308
q-5 32 -21 94q-21 56 -69 153q-54 110 -80 141q-20 4 -57 20q-42 30 -42 111q0 41 10 57q4 6 40 42q26 25 51 55q99 -53 110 -64q28 -30 28 -117q0 -22 -12 -48.5t-12 -34.5q0 -7 12 -33q13 -31 15 -36q28 -91 89 -234q74 -176 95 -232q13 -34 45 -85q41 -65 50 -83
q6 -11 29 -64q6 -31 11 -61q7 -35 40 -48q20 94 20 195q0 21 -2 61.5t-2 60.5q0 10 5.5 30.5t5.5 30.5q0 78 -8 277q-1 14 -10 43t-9 44q0 7 4.5 20.5t4.5 20.5q0 21 -43 95.5t-43 81.5q0 51 54.5 101t105.5 50q52 0 84 -48q29 -42 29 -97q0 -30 -38 -81q-41 -55 -42 -62
q-19 -90 -19 -229v-469q0 4 16 -172q25 43 81 126q-2 5 -2 11q0 14 21 45q24 36 28 49q8 31 25 94q29 104 79 209q17 35 34 115.5t34 117.5q4 8 33 46q18 23 18 57q0 22 -17.5 76t-17.5 76q0 35 28 73t61 49h30q27 0 35 26q14 -27 44 -34t38 -26q31 -71 31 -85z" />
  </g>

</svg>
