<?xml version="1.0" standalone="no"?>
<!DOCTYPE svg PUBLIC "-//W3C//DTD SVG 1.1//EN" "http://www.w3.org/Graphics/SVG/1.1/DTD/svg11.dtd" >
<svg viewBox="0 -442 2048 2048">
  <g transform="matrix(1 0 0 -1 0 1606)">
   <path fill="currentColor"
d="M1864 800q0 -35 -62.5 -154t-91.5 -140q-17 -12 -38 -19q-19 12 -19 35q0 22 38 86q-37 26 -104 26q-62 0 -185 -5.5t-185 -5.5q-24 0 -39 -14q29 -37 150 -132q97 -77 129 -148q38 -85 38 -207q0 -96 -28 -152q-24 -48 -83 -77q-53 -27 -111 -27q-106 0 -203 77
q-8 7 -27 20q-120 -81 -230 -81q-101 0 -162.5 65t-61.5 167q0 187 110 318q7 9 78 73q66 59 66 63q0 34 -110 34q-75 0 -277 -23q-97 -11 -132 -11q-58 0 -112 -67.5t-97 -67.5q-15 0 -15 18q0 36 90 187l56 102q43 66 83 66q14 0 14 -18q0 -32 -30 -102q22 -3 59 -3
q30 0 90.5 2t90.5 2q20 0 60 -2.5t60 -2.5q36 0 79 9q5 9 5 15t-38 35q-24 17 -48 35q-152 128 -152 319q0 201 152 284q48 26 91 26q154 0 268 -113q146 113 259 113q112 0 182 -95q64 -86 64 -202q0 -122 -74 -221q-21 -28 -164 -170q16 -4 36 -4q141 0 263 19
q133 21 166 48l32 36q19 22 40 22q30 0 30 -38zM1463 1113q0 85 -42 142q-47 65 -128 65q-71 0 -261 -117q-76 55 -111 71q-55 25 -130 25q-119 0 -162 -73q-24 -41 -24 -91q0 -121 173 -262q168 -137 292 -137q106 0 244.5 121t147.5 227q1 12 1 29zM1394 158q0 92 -62 171
q-26 33 -327 245q-116 -33 -221 -159q-108 -129 -108 -247q0 -19 6 -46q11 -49 73 -96t112 -47q20 0 68.5 29.5t48.5 46.5t-11 47.5t-11 47.5q0 19 13.5 37.5t32.5 18.5q27 0 55 -36q4 -6 28 -58q65 -143 165 -143q67 0 106 63q32 54 32 126z" />
  </g>

</svg>
