<?xml version="1.0" standalone="no"?>
<!DOCTYPE svg PUBLIC "-//W3C//DTD SVG 1.1//EN" "http://www.w3.org/Graphics/SVG/1.1/DTD/svg11.dtd" >
<svg viewBox="0 -442 2048 2048">
  <g transform="matrix(1 0 0 -1 0 1606)">
   <path fill="currentColor"
d="M1020 1166q0 -43 -27 -92q-29 -52 -67 -65q-21 -7 -99 -7t-130 -51q-16 -15 -40 -54q-28 -43 -28 -59q0 -34 61 -138q55 -93 89 -131q121 -135 121 -318q0 -135 -113.5 -244.5t-249.5 -109.5q-55 0 -158.5 51t-144.5 94q-134 143 -134 433q0 349 182 578q198 249 540 254
q101 1 145 -25q53 -31 53 -116zM878 1203q-21 -5 -21 -29q0 -20 14 -37t33 -14q14 2 14 32q0 57 -40 48zM773 231q0 66 -41 151q-11 23 -78 139l-86 126q-37 60 -37 153q0 38 46 136q48 104 85 127l56 32q32 21 32 51q0 33 -25 40q-7 2 -53 2q-36 0 -137 -54.5t-134 -88.5
q-100 -103 -157.5 -245.5t-57.5 -286.5q0 -176 79 -318q94 -171 255 -171q86 0 166 60q87 64 87 147z" />
  </g>

</svg>
