<?xml version="1.0" standalone="no"?>
<!DOCTYPE svg PUBLIC "-//W3C//DTD SVG 1.1//EN" "http://www.w3.org/Graphics/SVG/1.1/DTD/svg11.dtd" >
<svg viewBox="0 -442 2048 2048">
  <g transform="matrix(1 0 0 -1 0 1606)">
   <path fill="currentColor"
d="M1927 -14q-45 -59 -85 -59q-16 0 -429 6q-7 7 -7 24q0 15 30 76q41 4 73 17q-32 94 -102 205q-12 18 -130 189q-28 2 -63 -62q-23 -45 -46 -89q-2 -11 0 -21q-40 -65 -80 -131q-57 -89 -106 -89q-66 0 -100 115.5t-175 287.5q-48 -3 -113 -130q-27 -37 -78 -114
q-23 -47 -72 -139q22 -18 99 -34q54 -10 54 -56q0 -26 -76 -44q-6 -2 -19 -5l-272 -11q-19 -1 -67 11t-60 22q-3 12 -3 19q0 40 53 44l81 8q28 12 99 120l92 144q2 3 114 153q96 129 96 136q0 8 -35 71q-33 60 -43 72q-15 13 -40 44q-26 55 -85 162l-88 118q-51 74 -51 135
q21 12 35 12q18 0 95 -77q73 -74 84 -98q4 -20 20 -54q18 -9 56 -44q16 -21 130 -221q133 175 192 270q21 43 67 107q17 14 43 14q71 0 95 -94q1 -14 9 -43q4 -9 47 -70q37 -52 108 -157q18 7 27 20q10 31 30 87q104 245 169 337q35 50 96 50q15 0 43 -28q-9 -91 -149 -329
q-138 -233 -138 -254q0 -17 142 -273t161 -273q11 -10 59 -10t113 -9q94 -12 94 -35q0 -3 -2 -8.5t-2 -8.5q0 -7 10 -6zM1205 585q0 22 -99 174.5t-116 156.5h-6h-11q-4 -7 -109 -166q-83 -127 -83 -157q0 -5 36 -52q41 -52 44 -58q29 -56 96 -163q29 -39 66 -67
q182 294 182 332z" />
  </g>

</svg>
