<?xml version="1.0" standalone="no"?>
<!DOCTYPE svg PUBLIC "-//W3C//DTD SVG 1.1//EN" "http://www.w3.org/Graphics/SVG/1.1/DTD/svg11.dtd" >
<svg viewBox="0 -442 2048 2048">
  <g transform="matrix(1 0 0 -1 0 1606)">
   <path fill="currentColor"
d="M1134 1331q-10 -70 -63 -142q-48 -62 -97 -124q-135 -204 -418 -605q-44 -59 -44 -87q0 -76 307 -356q37 -30 98 -90q35 -43 35 -90q0 -8 -3 -21q-3 -16 -3 -22q-133 21 -288 168q-129 122 -214 267q-121 207 -203 413q-38 94 -87 278q-54 204 -54 276v135q102 25 134 23
l169 -13l85 -6l165 8l331 16h23q95 0 127 -28zM957 1240q-149 12 -196 12h-427q-50 0 -143 -12q29 -239 73 -388q58 -195 171 -356q295 321 522 744z" />
  </g>

</svg>
