<?xml version="1.0" standalone="no"?>
<!DOCTYPE svg PUBLIC "-//W3C//DTD SVG 1.1//EN" "http://www.w3.org/Graphics/SVG/1.1/DTD/svg11.dtd" >
<svg viewBox="0 -442 2048 2048">
  <g transform="matrix(1 0 0 -1 0 1606)">
   <path fill="currentColor"
d="M1858 1038q0 -191 -233 -289q221 -133 221 -361q0 -202 -240 -344q-209 -124 -427 -124q-303 0 -356 37q-40 28 -236 453q-119 261 -237 523q-26 58 -53 116q-43 91 -59 100q-5 3 -84 14q-54 7 -54 45q0 51 107 61q8 1 145 1q11 0 33.5 1t33.5 1q125 0 125 -64
q0 -34 -108 -49q93 -217 266 -558q75 -147 93 -181q54 -101 105 -174q23 40 125 283q53 127 230 561q-80 1 -165 20q-125 28 -125 78q0 60 175 60q59 0 176 -5.5t175 -5.5q135 0 246 -60q121 -66 121 -139zM1664 997q0 102 -155 102q-13 0 -39 -5.5t-39 -5.5q-35 0 -91 -89
q-54 -85 -54 -124q0 -26 131 -26q65 0 150 42q97 49 97 106zM1664 397q0 146 -111 230q-100 77 -250 77q-26 0 -36 -3q-32 -10 -104 -178q-48 -108 -95 -215q-66 -153 -75 -211q78 -14 150 -14q305 0 479 234q42 57 42 80z" />
  </g>

</svg>
