<?xml version="1.0" standalone="no"?>
<!DOCTYPE svg PUBLIC "-//W3C//DTD SVG 1.1//EN" "http://www.w3.org/Graphics/SVG/1.1/DTD/svg11.dtd" >
<svg viewBox="0 -442 2048 2048">
  <g transform="matrix(1 0 0 -1 0 1606)">
   <path fill="currentColor"
d="M1766 162q0 -25 -31.5 -66t-55.5 -41q-33 0 -56 65q-54 159 -109 318q-66 181 -142 304q-20 -2 -61 -31q-167 -117 -497 -359q-39 -30 -105 -65q-88 -47 -108 -59q-18 -19 -58 -50q-26 -8 -77 -27q-148 -67 -209 -67q-49 0 -98 25q-59 30 -59 74q0 42 32.5 80.5
t74.5 38.5q16 0 23 -8q16 -39 48 -109q10 -1 20 -1q90 0 219 66q50 25 202 120q20 13 48 45q32 39 44 49q8 4 24 13q21 14 330 227q286 197 292 197q12 0 45 -27.5t40 -41.5q21 -39 224 -670z" />
  </g>

</svg>
