<?xml version="1.0" standalone="no"?>
<!DOCTYPE svg PUBLIC "-//W3C//DTD SVG 1.1//EN" "http://www.w3.org/Graphics/SVG/1.1/DTD/svg11.dtd" >
<svg viewBox="0 -442 2048 2048">
  <g transform="matrix(1 0 0 -1 0 1606)">
   <path fill="currentColor"
d="M1414 1218q0 -94 -109 -92q-41 110 -73 110q-15 0 -35 -12t-60 -81q-27 -34 -70 -105q-3 -7 0 -21q-4 -11 -50 -112q-33 -73 -36 -114q51 -23 90 -71q42 -52 42 -104q0 -37 -23 -75q-27 -44 -61 -44q-33 0 -50 58q-22 78 -38 96q-39 -12 -56 -66q-25 -82 -27 -85
q-20 -19 -50 -64q-2 -22 -13 -64q-13 -15 -34 -47q-2 -4 -29 -88q-17 -52 -50 -76q1 -3 1 -7q0 -16 -22 -41q-16 -18 -32 -37q-23 -42 -78 -121q-41 -50 -136 -108q-103 -62 -159 -62q1 0 -106 33q-50 80 -50 149q0 52 32 103q36 58 84 58q32 0 63.5 -21.5t31.5 -52.5
q0 -21 -23 -50t-43 -29q-7 0 -20 5q-16 5 -21 6q-4 -4 -4 -10q0 -64 76 -64q122 0 173 72q4 6 26 19q15 8 15 25t44 73t44 72q0 3 -1 9.5t-1 9.5q0 12 38 73q47 74 49 78v27q0 8 4 15q23 36 62 112q13 47 47 140q-2 2 -5 3q-44 0 -54.5 -63.5t-64.5 -63.5q-5 0 -14 3.5
t-13 3.5q-18 68 -18 78q0 34 46 93q43 56 76 73q36 9 106 35q20 10 28 37q7 22 14 45q19 30 50 95q41 122 124 236q106 146 202 146q55 0 108 -43t53 -97z" />
  </g>

</svg>
