<?xml version="1.0" standalone="no"?>
<!DOCTYPE svg PUBLIC "-//W3C//DTD SVG 1.1//EN" "http://www.w3.org/Graphics/SVG/1.1/DTD/svg11.dtd" >
<svg viewBox="0 -442 2048 2048">
  <g transform="matrix(1 0 0 -1 0 1606)">
   <path fill="currentColor"
d="M1566 800q0 -35 -37 -151q-232 -729 -727 -729q-25 0 -48 2q-110 10 -271 120q-155 106 -218 206q-165 260 -165 546q0 191 80 191q214 0 416 -11l496 -27q18 -1 32 -1q44 0 131 12.5t131 12.5q180 0 180 -171zM1385 782q0 54 -14 71q-179 7 -208 7q-15 0 -20 -2
q-27 -12 -47 -59q-221 -532 -221 -650q0 -53 45 -53q59 0 171 77q131 90 215 270q79 172 79 339zM967 805q0 57 -96 57q-28 0 -85 6t-85 6q-94 0 -94 -39q0 -118 127 -447q35 -91 61 -91q3 0 17 28q44 92 95 239q60 174 60 241zM695 157q0 38 -129 364q-128 321 -140 327
q-24 12 -70 12q-65 0 -91 -14q-37 -20 -37 -79q0 -197 123 -406q140 -237 322 -237q22 0 22 33z" />
  </g>

</svg>
