<?xml version="1.0" standalone="no"?>
<!DOCTYPE svg PUBLIC "-//W3C//DTD SVG 1.1//EN" "http://www.w3.org/Graphics/SVG/1.1/DTD/svg11.dtd" >
<svg viewBox="0 -442 2048 2048">
  <g transform="matrix(1 0 0 -1 0 1606)">
   <path fill="currentColor"
d="M1347 951q0 -115 -57 -214q-64 -108 -168 -135q-99 -26 -102 -26q-20 0 -65.5 17t-65.5 17q-45 0 -102 -68q-40 -52 -80 -105q-176 -207 -177 -208q-96 -116 -166 -217q-38 -57 -77 -114q-59 -77 -100 -77q-25 0 -56 34.5t-31 60.5q0 66 111 194l164 174q61 66 180 217
q144 181 144 209q0 -3 -39.5 93.5t-39.5 153.5q0 133 104 246q106 117 237 117q146 0 266 -112t120 -257zM1230 931q0 100 -64 178q-67 82 -165 82q-65 0 -146 -50q-91 -56 -91 -117q0 -302 295 -302q70 0 123 71q48 65 48 138z" />
  </g>

</svg>
