<?xml version="1.0" standalone="no"?>
<!DOCTYPE svg PUBLIC "-//W3C//DTD SVG 1.1//EN" "http://www.w3.org/Graphics/SVG/1.1/DTD/svg11.dtd" >
<svg viewBox="0 -442 2048 2048">
  <g transform="matrix(1 0 0 -1 0 1606)">
   <path fill="currentColor"
d="M1436 1315q0 -71 -39.5 -229t-106.5 -369q-19 -56 -53 -168q-36 -137 -115 -407q-100 -344 -116 -354q-36 -24 -102 -24q-32 0 -96.5 8.5t-96.5 8.5q-19 0 -55.5 -5.5t-55.5 -5.5q-47 0 -69 34q-16 25 -32 104q-10 57 -21 114q-61 244 -165 591q-90 293 -179 587
q-34 115 -34 123q0 61 150 55h5q423 -18 425 -18h113q75 1 113 1h530v-46zM1257 1279q-242 3 -385 3q-323 0 -565 -15q47 -48 132 -101q131 -82 140 -89l98 -78q67 -50 107 -50q48 0 113 53l98 86q5 4 143 83q87 50 119 108zM1316 1187q-423 -282 -448 -323
q-35 -57 -35 -169v-683q0 -53 13 -127q30 -12 47 -12q29 0 57 17q45 146 194 621q34 106 95 320q38 151 77 356zM757 533v14q0 49 -8 155q-10 123 -21 142q-16 29 -69 66l-82 56q-159 119 -175 130q-101 71 -186 113q-13 -10 -13 -24q0 -11 130 -418q143 -448 151 -474
q27 -103 54 -207q33 -122 74 -200q52 -8 50 -8q20 0 41 13z" />
  </g>

</svg>
