<?xml version="1.0" standalone="no"?>
<!DOCTYPE svg PUBLIC "-//W3C//DTD SVG 1.1//EN" "http://www.w3.org/Graphics/SVG/1.1/DTD/svg11.dtd" >
<svg viewBox="0 -442 2048 2048">
  <g transform="matrix(1 0 0 -1 0 1606)">
   <path fill="currentColor"
d="M1356 960q0 -19 -28 -144q-5 -56 -27 -165q-21 -70 -54 -123q-64 -106 -129 -212q-83 -133 -141 -199q-37 -23 -98 -62q-91 -61 -104 -67q-58 -31 -118 -31q-121 0 -198 97q-71 90 -71 214q0 98 44 262l64 220q38 140 38 219q0 68 -47 120.5t-114 52.5q-63 0 -106 -37
q-46 -39 -46 -101q0 -22 10 -63t10 -62q0 -65 -56 -65q-43 0 -67 60q-18 47 -18 98q0 115 81 201.5t195 86.5q137 0 211 -101q65 -89 65 -231q0 -82 -42 -249q-35 -125 -69 -251q-36 -136 -36 -181q0 -155 152 -155q83 0 178 36q75 28 206 250q22 37 96 143q13 17 35 51
q3 14 9 40q16 40 44 123q37 140 37 214q0 66 -57 140q-61 77 -125 77q-50 0 -81 -34.5t-31 -85.5q0 -56 44 -103.5t44 -70.5q0 -47 -46 -47q-74 0 -119.5 49.5t-45.5 124.5q0 97 66.5 185t159.5 109q-1 0 44 0q36 0 43 19q101 -81 145 -153q53 -86 53 -199z" />
  </g>

</svg>
