<?xml version="1.0" standalone="no"?>
<!DOCTYPE svg PUBLIC "-//W3C//DTD SVG 1.1//EN" "http://www.w3.org/Graphics/SVG/1.1/DTD/svg11.dtd" >
<svg viewBox="0 -442 2048 2048">
  <g transform="matrix(1 0 0 -1 0 1606)">
   <path fill="currentColor"
d="M1643 1141q0 -191 -17 -258q-5 -20 -37 -42.5t-54 -23.5q-20 20 -20 50q0 11 3 32t3 32q0 25 -11 45q-105 -118 -210 -237q-130 -137 -243 -194q-51 -26 -128 -81q10 -20 10 -34v-186q0 -5 15 -63q46 -173 45 -262v-6q-8 -8 -27 -19q-34 -11 -125 -11q-22 0 -42.5 27.5
t-20.5 49.5q0 -20 19 117q21 149 21 263q0 19 -2.5 57t-2.5 57q0 10 -8 16q-106 19 -152 32q-73 21 -143 63q-82 49 -99 72q-1 8 -9 26q-10 15 -56 58q-41 38 -56.5 73t-72.5 199q-6 18 -18 18q-11 0 -32.5 -7.5t-32.5 -7.5q-40 0 -40 45q0 37 119 88q109 47 153 47
q27 0 35 -6t8 -31q0 -17 -2 -21q-7 -15 -47.5 -44.5t-40.5 -32.5q0 -63 62.5 -174.5t115.5 -149.5q112 -80 224 -97q63 -10 71 -9h7q34 62 34 332q0 22 -10 50.5t-10 37.5q0 48 26 145h21q28 0 45 -90q13 -66 13 -117v-328q124 22 256 142q111 100 189 230q-1 2 -3 2
q-4 0 -69.5 -32t-102.5 -32q-40 0 -40 48v7q0 35 51 63q49 24 145 78q18 11 106 104q75 80 102 80q43 0 67 -77q18 -57 18 -113z" />
  </g>

</svg>
