<?xml version="1.0" standalone="no"?>
<!DOCTYPE svg PUBLIC "-//W3C//DTD SVG 1.1//EN" "http://www.w3.org/Graphics/SVG/1.1/DTD/svg11.dtd" >
<svg viewBox="0 -442 2048 2048">
  <g transform="matrix(1 0 0 -1 0 1606)">
   <path fill="currentColor"
d="M1694 1233q0 -76 -104 -177q-96 -93 -177 -120q35 -41 63 -111q31 -79 31 -142q0 -169 -257 -347q-29 -20 -102.5 -42t-109.5 -22q-27 0 -60 14q-39 18 -39 41v48q155 41 271 137q140 115 140 255q0 125 -119 125q-87 0 -121 -33q-6 -6 -101 -174q-195 -345 -312 -529
q-50 -65 -138 -201q-7 -24 -23 -73h-97v48q0 24 47 89q55 77 62 93q-6 4 -12 4q-25 0 -73.5 -13.5t-73.5 -13.5q-63 0 -129 26q-74 29 -106 75q-12 18 -33 67.5t-21 66.5q0 58 45 99.5t103 41.5q76 0 76 -63q0 -56 -52 -117q43 -50 120 -50q118 0 202 103q79 98 79 218
q0 91 -69.5 166.5t-159.5 75.5q-46 0 -108.5 -31.5t-81.5 -31.5q-20 0 -60 29q67 113 225 252q200 175 249 232q-7 4 -15 4q-7 0 -13 -1l-455 -73q-29 0 -47 48q-13 37 -13 73q0 2 1 14q36 38 96 46q48 7 223 15q168 8 212 8q108 0 161 -14q22 -61 22 -104q0 -25 -8 -38
q-32 -50 -331 -307q71 -34 143 -68q143 -78 181 -196q7 -22 13 -39q57 94 170 280q13 22 127.5 194t157.5 222q116 132 222 132q80 0 131 -67q48 -62 48 -144zM1543 1285q0 15 -30 31q-27 13 -45 13q-57 0 -126 -88q-46 -68 -92 -137q-45 -65 -45 -99v-19q51 16 149 58
q46 27 114 109q75 89 75 132z" />
  </g>

</svg>
