<?xml version="1.0" standalone="no"?>
<!DOCTYPE svg PUBLIC "-//W3C//DTD SVG 1.1//EN" "http://www.w3.org/Graphics/SVG/1.1/DTD/svg11.dtd" >
<svg viewBox="0 -442 2048 2048">
  <g transform="matrix(1 0 0 -1 0 1606)">
   <path fill="currentColor"
d="M1150 1332l-442 -444q47 -77 47 -158q0 -128 -101 -216q-97 -83 -227 -83q-131 0 -227 84q-100 88 -100 217q0 127 101 216q97 86 226 86q37 0 99 -18t91 -39l447 436zM1534 491q0 -130 -100 -216q-95 -83 -227 -83q-78 0 -166 42l-429 -421q-53 50 -81 85l411 411
q-63 100 -63 182q0 129 100 218q97 86 228 86q132 0 228 -85q99 -88 99 -219zM1409 465q0 91 -69 163.5t-159 72.5q-72 0 -116 -57q-40 -53 -40 -127q0 -91 58 -164q62 -78 150 -78q73 0 124.5 58t51.5 132zM630 706q0 90 -68.5 159.5t-157.5 69.5q-77 0 -120.5 -52
t-43.5 -130q0 -89 61 -160q64 -74 152 -74q78 0 127.5 54t49.5 133z" />
  </g>

</svg>
