<?xml version="1.0" standalone="no"?>
<!DOCTYPE svg PUBLIC "-//W3C//DTD SVG 1.1//EN" "http://www.w3.org/Graphics/SVG/1.1/DTD/svg11.dtd" >
<svg viewBox="0 -442 2048 2048">
  <g transform="matrix(1 0 0 -1 0 1606)">
   <path fill="currentColor"
d="M1626 1330q0 -120 -179 -259q5 -11 39 -62q21 -32 21 -72q0 -94 -76 -179q-79 -87 -171 -87q-62 0 -116.5 62t-54.5 125q0 28 13 55q17 32 42 32q27 0 54 -50t55 -50q40 0 66 36q24 32 24 74q0 35 -16 64q-20 35 -52 35q-5 0 -14.5 -2.5t-14.5 -2.5q-48 0 -48 45
q0 47 35 55l72 6q66 13 111.5 60t45.5 112q0 55 -23 55q-37 0 -78 -38q-1 -1 -61 -66q-323 -351 -375 -633q3 -4 9 -4q16 0 44.5 12.5t43.5 12.5q82 0 82 -121q0 -157 -117 -157q-74 0 -166 75q-6 -2 -45 -33q20 -102 20 -179q0 -269 -205 -453q-116 -104 -232 -104
q-110 0 -110 137q0 172 363 554q-87 107 -181 107q-27 0 -81 -7.5t-81 -7.5q-46 0 -46 25q0 33 56 76q43 30 85 59q131 102 131 114q0 17 -28 17q-44 0 -130 -16t-130 -16q-107 0 -107 69q0 32 59 73q77 50 225 157q26 21 26 34q0 10 -22 10q-35 0 -104 -30t-104 -30
q-80 0 -80 85q0 36 19 70q23 39 56 39q11 0 37 -10.5t42 -10.5h57q79 0 114 7q8 2 37 11q23 8 38 8q34 0 88 -20q64 -23 64 -50q0 -42 -131 -120q-110 -65 -153 -130q9 -3 195 -3q36 0 65 -21t29 -56q0 -46 -69 -97q-85 -63 -98 -85q-7 -12 -7 -16q0 -3 58 -20
q48 -14 168 -113q93 41 120 103q2 5 2 46q0 67 36 148q102 230 305 473q196 234 310 234q60 0 102 -50t42 -111zM1010 530q0 35 -32 35q-38 0 -38 -35q0 -34 41 -34q29 0 29 34zM657 219q0 27 -6 49h-18q-114 -127 -172 -207q-106 -148 -107 -234h36q102 0 189 149
q78 132 78 243z" />
  </g>

</svg>
