<?xml version="1.0" standalone="no"?>
<!DOCTYPE svg PUBLIC "-//W3C//DTD SVG 1.1//EN" "http://www.w3.org/Graphics/SVG/1.1/DTD/svg11.dtd" >
<svg viewBox="0 -442 2048 2048">
  <g transform="matrix(1 0 0 -1 0 1606)">
   <path fill="currentColor"
d="M1652 740q0 -307 -216.5 -523.5t-523.5 -216.5t-523.5 216.5t-216.5 523.5t216.5 523.5t523.5 216.5t523.5 -216.5t216.5 -523.5zM1502 740q0 244 -173 417t-417 173t-417 -173t-173 -417t173 -417t417 -173t417 173t173 417zM1352 740q0 -182 -129 -311t-311 -129
t-311 129t-129 311t129 311t311 129t311 -129t129 -311zM1202 740q0 120 -85 205t-205 85t-205 -85t-85 -205t85 -205t205 -85t205 85t85 205zM1052 740q0 -58 -41 -99t-99 -41t-99 41t-41 99t41 99t99 41t99 -41t41 -99z" />
  </g>

</svg>
