<?xml version="1.0" standalone="no"?>
<!DOCTYPE svg PUBLIC "-//W3C//DTD SVG 1.1//EN" "http://www.w3.org/Graphics/SVG/1.1/DTD/svg11.dtd" >
<svg viewBox="0 -442 2048 2048">
  <g transform="matrix(1 0 0 -1 0 1606)">
   <path fill="currentColor"
d="M1630 740l-234 -136l136 -234h-272v-271l-234 135l-136 -234l-136 234l-234 -135v271h-271l135 234l-234 136l234 136l-135 234h271v272l234 -136l136 234l136 -234l234 136v-272h272l-136 -234zM1211 1296l-203 -117l-118 -439zM1446 1061h-235l-321 -321zM1532 740
l-203 118l-439 -118h642zM890 740v642l-118 -203zM890 740l-321 556v-235zM1446 419l-117 203l-439 118zM890 740l-556 321l117 -203zM1211 184v235l-321 321zM1008 301l-118 439v-642zM890 740h-642l203 -118zM890 740l-556 -321h235zM890 740l-321 -556l203 117z" />
  </g>

</svg>
