<?xml version="1.0" standalone="no"?>
<!DOCTYPE svg PUBLIC "-//W3C//DTD SVG 1.1//EN" "http://www.w3.org/Graphics/SVG/1.1/DTD/svg11.dtd" >
<svg viewBox="0 -442 2048 2048">
  <g transform="matrix(1 0 0 -1 0 1606)">
   <path fill="currentColor"
d="M1461 0h-1344v1344h1344v-1344zM1361 100v1144h-1144v-1144h1144zM1267 1092q0 -58 -58 -58t-58 58t58 58t58 -58zM1057 1092q0 -58 -58 -58t-58 58t58 58t58 -58zM1162 882q0 -58 -58 -58t-58 58t58 58t58 -58zM847 1092q0 -58 -58 -58t-58 58t58 58t58 -58zM1267 672
q0 -58 -58 -58t-58 58t58 58t58 -58zM952 882q0 -58 -58 -58t-58 58t58 58t58 -58zM637 1092q0 -58 -58 -58t-58 58t58 58t58 -58zM1057 672q0 -58 -58 -58t-58 58t58 58t58 -58zM742 882q0 -58 -58 -58t-58 58t58 58t58 -58zM1162 462q0 -58 -58 -58t-58 58t58 58t58 -58z
M427 1092q0 -58 -58 -58t-58 58t58 58t58 -58zM847 672q0 -58 -58 -58t-58 58t58 58t58 -58zM1267 252q0 -58 -58 -58t-58 58t58 58t58 -58zM532 882q0 -58 -58 -58t-58 58t58 58t58 -58zM952 462q0 -58 -58 -58t-58 58t58 58t58 -58zM637 672q0 -58 -58 -58t-58 58t58 58
t58 -58zM1057 252q0 -58 -58 -58t-58 58t58 58t58 -58zM742 462q0 -58 -58 -58t-58 58t58 58t58 -58zM427 672q0 -58 -58 -58t-58 58t58 58t58 -58zM847 252q0 -58 -58 -58t-58 58t58 58t58 -58zM532 462q0 -58 -58 -58t-58 58t58 58t58 -58zM637 252q0 -58 -58 -58t-58 58
t58 58t58 -58zM427 252q0 -58 -58 -58t-58 58t58 58t58 -58z" />
  </g>

</svg>
