<?xml version="1.0" standalone="no"?>
<!DOCTYPE svg PUBLIC "-//W3C//DTD SVG 1.1//EN" "http://www.w3.org/Graphics/SVG/1.1/DTD/svg11.dtd" >
<svg viewBox="0 -442 2048 2048">
  <g transform="matrix(1 0 0 -1 0 1606)">
   <path fill="currentColor"
d="M1461 0h-1344v1344h1344v-1344zM1361 1104v140h-140zM1290 1033l-211 211h-169l211 -211h169zM1361 793v140h-140zM979 1033l-211 211h-169l211 -211h169zM1290 722l-211 211h-169l211 -211h169zM1361 482v140h-140zM668 1033l-211 211h-169l211 -211h169zM979 722
l-211 211h-169l211 -211h169zM1290 411l-211 211h-169l211 -211h169zM1361 171v140h-140zM357 1033l-140 140v-140h140zM668 722l-211 211h-169l211 -211h169zM979 411l-211 211h-169l211 -211h169zM1290 100l-211 211h-169l211 -211h169zM357 722l-140 140v-140h140z
M668 411l-211 211h-169l211 -211h169zM979 100l-211 211h-169l211 -211h169zM357 411l-140 140v-140h140zM668 100l-211 211h-169l211 -211h169zM357 100l-140 140v-140h140z" />
  </g>

</svg>
