<?xml version="1.0" standalone="no"?>
<!DOCTYPE svg PUBLIC "-//W3C//DTD SVG 1.1//EN" "http://www.w3.org/Graphics/SVG/1.1/DTD/svg11.dtd" >
<svg viewBox="0 -442 2048 2048">
  <g transform="matrix(1 0 0 -1 0 1606)">
   <path fill="currentColor"
d="M1461 0h-1344v1344h1344v-1344zM1361 100v1144h-1144v-1144h1144zM1322 1092q0 -53 -53 -53t-53 53t53 53t53 -53zM1143 1058h-228v68h228v-68zM1303 848h-188v68h188v-68zM1322 672q0 -53 -53 -53t-53 53t53 53t53 -53zM1062 882q0 -53 -53 -53t-53 53t53 53t53 -53z
M842 1092q0 -53 -53 -53t-53 53t53 53t53 -53zM1143 638h-228v68h228v-68zM903 848h-228v68h228v-68zM1303 428h-188v68h188v-68zM663 1058h-228v68h228v-68zM1322 252q0 -53 -53 -53t-53 53t53 53t53 -53zM1062 462q0 -53 -53 -53t-53 53t53 53t53 -53zM842 672
q0 -53 -53 -53t-53 53t53 53t53 -53zM622 882q0 -53 -53 -53t-53 53t53 53t53 -53zM362 1092q0 -53 -53 -53t-53 53t53 53t53 -53zM1143 218h-228v68h228v-68zM463 848h-188v68h188v-68zM903 428h-228v68h228v-68zM663 638h-228v68h228v-68zM842 252q0 -53 -53 -53t-53 53
t53 53t53 -53zM622 462q0 -53 -53 -53t-53 53t53 53t53 -53zM362 672q0 -53 -53 -53t-53 53t53 53t53 -53zM463 428h-188v68h188v-68zM663 218h-228v68h228v-68zM362 252q0 -53 -53 -53t-53 53t53 53t53 -53z" />
  </g>

</svg>
