<?xml version="1.0" standalone="no"?>
<!DOCTYPE svg PUBLIC "-//W3C//DTD SVG 1.1//EN" "http://www.w3.org/Graphics/SVG/1.1/DTD/svg11.dtd" >
<svg viewBox="0 -442 2048 2048">
  <g transform="matrix(1 0 0 -1 0 1606)">
   <path fill="currentColor"
d="M1461 0h-1344v1344h1344v-1344zM1361 100v1144h-1144v-1144h1144zM1294 1015l-48 -48l-57 57l-57 -57l-48 48l57 57l-57 57l48 48l57 -57l57 57l48 -48l-57 -57zM894 1015l-48 -48l-57 57l-57 -57l-48 48l57 57l-57 57l48 48l57 -57l57 57l48 -48l-57 -57zM1094 815
l-48 -48l-57 57l-57 -57l-48 48l57 57l-57 57l48 48l57 -57l57 57l48 -48l-57 -57zM1294 615l-48 -48l-57 57l-57 -57l-48 48l57 57l-57 57l48 48l57 -57l57 57l48 -48l-57 -57zM494 1015l-48 -48l-57 57l-57 -57l-48 48l57 57l-57 57l48 48l57 -57l57 57l48 -48l-57 -57z
M694 815l-48 -48l-57 57l-57 -57l-48 48l57 57l-57 57l48 48l57 -57l57 57l48 -48l-57 -57zM894 615l-48 -48l-57 57l-57 -57l-48 48l57 57l-57 57l48 48l57 -57l57 57l48 -48l-57 -57zM1094 415l-48 -48l-57 57l-57 -57l-48 48l57 57l-57 57l48 48l57 -57l57 57l48 -48
l-57 -57zM1294 215l-48 -48l-57 57l-57 -57l-48 48l57 57l-57 57l48 48l57 -57l57 57l48 -48l-57 -57zM494 615l-48 -48l-57 57l-57 -57l-48 48l57 57l-57 57l48 48l57 -57l57 57l48 -48l-57 -57zM694 415l-48 -48l-57 57l-57 -57l-48 48l57 57l-57 57l48 48l57 -57l57 57
l48 -48l-57 -57zM894 215l-48 -48l-57 57l-57 -57l-48 48l57 57l-57 57l48 48l57 -57l57 57l48 -48l-57 -57zM494 215l-48 -48l-57 57l-57 -57l-48 48l57 57l-57 57l48 48l57 -57l57 57l48 -48l-57 -57z" />
  </g>

</svg>
