<?xml version="1.0" standalone="no"?>
<!DOCTYPE svg PUBLIC "-//W3C//DTD SVG 1.1//EN" "http://www.w3.org/Graphics/SVG/1.1/DTD/svg11.dtd" >
<svg viewBox="0 -442 2048 2048">
  <g transform="matrix(1 0 0 -1 0 1606)">
   <path fill="currentColor"
d="M1461 0h-1344v1344h1344v-1344zM1361 100v1144h-211v-1144h211zM1050 100v1144h-211v-1144h211zM739 100v1144h-211v-1144h211zM428 100v1144h-211v-1144h211zM1314 1072q0 -58 -58 -58t-58 58t58 58t58 -58zM1314 872q0 -58 -58 -58t-58 58t58 58t58 -58zM1003 1072
q0 -58 -58 -58t-58 58t58 58t58 -58zM1314 672q0 -58 -58 -58t-58 58t58 58t58 -58zM1003 872q0 -58 -58 -58t-58 58t58 58t58 -58zM1314 472q0 -58 -58 -58t-58 58t58 58t58 -58zM692 1072q0 -58 -58 -58t-58 58t58 58t58 -58zM1003 672q0 -58 -58 -58t-58 58t58 58t58 -58
zM1314 272q0 -58 -58 -58t-58 58t58 58t58 -58zM692 872q0 -58 -58 -58t-58 58t58 58t58 -58zM1003 472q0 -58 -58 -58t-58 58t58 58t58 -58zM381 1072q0 -58 -58 -58t-58 58t58 58t58 -58zM692 672q0 -58 -58 -58t-58 58t58 58t58 -58zM1003 272q0 -58 -58 -58t-58 58
t58 58t58 -58zM381 872q0 -58 -58 -58t-58 58t58 58t58 -58zM692 472q0 -58 -58 -58t-58 58t58 58t58 -58zM381 672q0 -58 -58 -58t-58 58t58 58t58 -58zM692 272q0 -58 -58 -58t-58 58t58 58t58 -58zM381 472q0 -58 -58 -58t-58 58t58 58t58 -58zM381 272q0 -58 -58 -58
t-58 58t58 58t58 -58z" />
  </g>

</svg>
