<?xml version="1.0" standalone="no"?>
<!DOCTYPE svg PUBLIC "-//W3C//DTD SVG 1.1//EN" "http://www.w3.org/Graphics/SVG/1.1/DTD/svg11.dtd" >
<svg viewBox="0 -442 2048 2048">
  <g transform="matrix(1 0 0 -1 0 1606)">
   <path fill="currentColor"
d="M1461 0h-1344v1344h1344v-1344zM1361 100v1144h-1144v-1144h1144zM1243 978h-68v228h68v-228zM1113 1058h-228v68h228v-68zM1323 848h-228v68h228v-68zM823 978h-68v228h68v-228zM1033 768h-68v228h68v-228zM1243 558h-68v228h68v-228zM693 1058h-228v68h228v-68z
M903 848h-228v68h228v-68zM1113 638h-228v68h228v-68zM1323 428h-228v68h228v-68zM403 978h-68v228h68v-228zM613 768h-68v228h68v-228zM823 558h-68v228h68v-228zM1033 348h-68v228h68v-228zM1243 138h-68v228h68v-228zM483 848h-228v68h228v-68zM693 638h-228v68h228v-68z
M903 428h-228v68h228v-68zM1113 218h-228v68h228v-68zM403 558h-68v228h68v-228zM613 348h-68v228h68v-228zM823 138h-68v228h68v-228zM483 428h-228v68h228v-68zM693 218h-228v68h228v-68zM403 138h-68v228h68v-228z" />
  </g>

</svg>
