<?xml version="1.0" standalone="no"?>
<!DOCTYPE svg PUBLIC "-//W3C//DTD SVG 1.1//EN" "http://www.w3.org/Graphics/SVG/1.1/DTD/svg11.dtd" >
<svg viewBox="0 -442 2048 2048">
  <g transform="matrix(1 0 0 -1 0 1606)">
   <path fill="currentColor"
d="M1461 0h-1344v1344h1344v-1344zM1361 1033v211h-1144v-211h1144zM1361 722v211h-1144v-211h1144zM1361 411v211h-1144v-211h1144zM1361 100v211h-1144v-211h1144zM1247 1138q0 -58 -58 -58t-58 58t58 58t58 -58zM847 1138q0 -58 -58 -58t-58 58t58 58t58 -58zM1047 827
q0 -58 -58 -58t-58 58t58 58t58 -58zM1247 516q0 -58 -58 -58t-58 58t58 58t58 -58zM447 1138q0 -58 -58 -58t-58 58t58 58t58 -58zM647 827q0 -58 -58 -58t-58 58t58 58t58 -58zM847 516q0 -58 -58 -58t-58 58t58 58t58 -58zM1047 205q0 -58 -58 -58t-58 58t58 58t58 -58z
M447 516q0 -58 -58 -58t-58 58t58 58t58 -58zM647 205q0 -58 -58 -58t-58 58t58 58t58 -58z" />
  </g>

</svg>
