<?xml version="1.0" standalone="no"?>
<!DOCTYPE svg PUBLIC "-//W3C//DTD SVG 1.1//EN" "http://www.w3.org/Graphics/SVG/1.1/DTD/svg11.dtd" >
<svg viewBox="0 -442 2048 2048">
  <g transform="matrix(1 0 0 -1 0 1606)">
   <path fill="currentColor"
d="M1461 0h-1344v1344h1344v-1344zM1361 100v1144h-1144v-1144h1144zM1236 1004q-38 0 -66 26t-28 62t28 61.5t66 25.5v-52q-42 0 -42 -35q0 -36 42 -36v-52zM1336 794q-38 0 -66 26t-28 62t28 61.5t66 25.5v-52q-42 0 -42 -35q0 -36 42 -36v-52zM1036 1004q-38 0 -66 26
t-28 62t28 61.5t66 25.5v-52q-42 0 -42 -35q0 -36 42 -36v-52zM1136 794q-38 0 -66 26t-28 62t28 61.5t66 25.5v-52q-42 0 -42 -35q0 -36 42 -36v-52zM836 1004q-38 0 -66 26t-28 62t28 61.5t66 25.5v-52q-42 0 -42 -35q0 -36 42 -36v-52zM1236 584q-38 0 -66 26t-28 62
t28 61.5t66 25.5v-52q-42 0 -42 -35q0 -36 42 -36v-52zM936 794q-38 0 -66 26t-28 62t28 61.5t66 25.5v-52q-42 0 -42 -35q0 -36 42 -36v-52zM1336 374q-38 0 -66 26t-28 62t28 61.5t66 25.5v-52q-42 0 -42 -35q0 -36 42 -36v-52zM636 1004q-38 0 -66 26t-28 62t28 61.5
t66 25.5v-52q-42 0 -42 -35q0 -36 42 -36v-52zM1036 584q-38 0 -66 26t-28 62t28 61.5t66 25.5v-52q-42 0 -42 -35q0 -36 42 -36v-52zM736 794q-38 0 -66 26t-28 62t28 61.5t66 25.5v-52q-42 0 -42 -35q0 -36 42 -36v-52zM1136 374q-38 0 -66 26t-28 62t28 61.5t66 25.5v-52
q-42 0 -42 -35q0 -36 42 -36v-52zM436 1004q-38 0 -66 26t-28 62t28 61.5t66 25.5v-52q-42 0 -42 -35q0 -36 42 -36v-52zM836 584q-38 0 -66 26t-28 62t28 61.5t66 25.5v-52q-42 0 -42 -35q0 -36 42 -36v-52zM1236 164q-38 0 -66 26t-28 62t28 61.5t66 25.5v-52
q-42 0 -42 -35q0 -36 42 -36v-52zM536 794q-38 0 -66 26t-28 62t28 61.5t66 25.5v-52q-42 0 -42 -35q0 -36 42 -36v-52zM936 374q-38 0 -66 26t-28 62t28 61.5t66 25.5v-52q-42 0 -42 -35q0 -36 42 -36v-52zM636 584q-38 0 -66 26t-28 62t28 61.5t66 25.5v-52q-42 0 -42 -35
q0 -36 42 -36v-52zM1036 164q-38 0 -66 26t-28 62t28 61.5t66 25.5v-52q-42 0 -42 -35q0 -36 42 -36v-52zM336 794q-38 0 -66 26t-28 62t28 61.5t66 25.5v-52q-42 0 -42 -35q0 -36 42 -36v-52zM736 374q-38 0 -66 26t-28 62t28 61.5t66 25.5v-52q-42 0 -42 -35q0 -36 42 -36
v-52zM436 584q-38 0 -66 26t-28 62t28 61.5t66 25.5v-52q-42 0 -42 -35q0 -36 42 -36v-52zM836 164q-38 0 -66 26t-28 62t28 61.5t66 25.5v-52q-42 0 -42 -35q0 -36 42 -36v-52zM536 374q-38 0 -66 26t-28 62t28 61.5t66 25.5v-52q-42 0 -42 -35q0 -36 42 -36v-52zM636 164
q-38 0 -66 26t-28 62t28 61.5t66 25.5v-52q-42 0 -42 -35q0 -36 42 -36v-52zM336 374q-38 0 -66 26t-28 62t28 61.5t66 25.5v-52q-42 0 -42 -35q0 -36 42 -36v-52zM436 164q-38 0 -66 26t-28 62t28 61.5t66 25.5v-52q-42 0 -42 -35q0 -36 42 -36v-52z" />
  </g>

</svg>
