<?xml version="1.0" standalone="no"?>
<!DOCTYPE svg PUBLIC "-//W3C//DTD SVG 1.1//EN" "http://www.w3.org/Graphics/SVG/1.1/DTD/svg11.dtd" >
<svg viewBox="0 -442 2048 2048">
  <g transform="matrix(1 0 0 -1 0 1606)">
   <path fill="currentColor"
d="M1461 0h-1344v1344h1344v-1344zM1361 1154v90h-90v-90h90zM1361 804v265h-175v175h-265v-90h175v-175h175v-175h90zM1361 454v265h-175v175h-175v175h-175v175h-265v-90h175v-175h175v-175h175v-175h175v-175h90zM1361 104v265h-175v175h-175v175h-175v175h-175v175h-175
v175h-269v-90h179v-175h175v-175h175v-175h175v-175h175v-175h175v-175h90zM1182 100v90h-175v175h-175v175h-175v175h-175v175h-175v175h-90v-265h175v-175h175v-175h175v-175h175v-175h265zM832 100v90h-175v175h-175v175h-175v175h-90v-265h175v-175h175v-175h265z
M482 100v90h-175v175h-90v-265h265z" />
  </g>

</svg>
