<?xml version="1.0" standalone="no"?>
<!DOCTYPE svg PUBLIC "-//W3C//DTD SVG 1.1//EN" "http://www.w3.org/Graphics/SVG/1.1/DTD/svg11.dtd" >
<svg viewBox="0 -442 2048 2048">
  <g transform="matrix(1 0 0 -1 0 1606)">
   <path fill="currentColor"
d="M1461 0h-1344v1344h1344v-1344zM1361 1104v140h-140zM1361 793v169l-211 211v-169zM1050 1104v140h-140zM1050 793v169l-211 211v-169zM1361 482v169l-211 211v-169zM739 1104v140h-140zM739 793v169l-211 211v-169zM1050 482v169l-211 211v-169zM1361 171v169l-211 211
v-169zM428 1104v140h-140zM1290 100l-140 140v-140h140zM428 793v169l-211 211v-169zM739 482v169l-211 211v-169zM1050 171v169l-211 211v-169zM979 100l-140 140v-140h140zM428 482v169l-211 211v-169zM739 171v169l-211 211v-169zM668 100l-140 140v-140h140zM428 171
v169l-211 211v-169zM357 100l-140 140v-140h140z" />
  </g>

</svg>
