<?xml version="1.0" standalone="no"?>
<!DOCTYPE svg PUBLIC "-//W3C//DTD SVG 1.1//EN" "http://www.w3.org/Graphics/SVG/1.1/DTD/svg11.dtd" >
<svg viewBox="0 -442 2048 2048">
  <g transform="matrix(1 0 0 -1 0 1606)">
   <path fill="currentColor"
d="M1461 0h-1344v1344h1344v-1344zM1361 100v1144h-1144v-1144h1144zM1262 1152q0 -53 -53 -53t-53 53t53 53t53 -53zM1243 798h-68v228h68v-228zM1033 998h-68v188h68v-188zM842 1152q0 -53 -53 -53t-53 53t53 53t53 -53zM1052 892q0 -53 -53 -53t-53 53t53 53t53 -53z
M1262 672q0 -53 -53 -53t-53 53t53 53t53 -53zM823 798h-68v228h68v-228zM613 998h-68v188h68v-188zM1033 558h-68v228h68v-228zM1243 318h-68v228h68v-228zM422 1152q0 -53 -53 -53t-53 53t53 53t53 -53zM632 892q0 -53 -53 -53t-53 53t53 53t53 -53zM842 672
q0 -53 -53 -53t-53 53t53 53t53 -53zM1052 452q0 -53 -53 -53t-53 53t53 53t53 -53zM1262 192q0 -53 -53 -53t-53 53t53 53t53 -53zM403 798h-68v228h68v-228zM613 558h-68v228h68v-228zM1033 158h-68v188h68v-188zM823 318h-68v228h68v-228zM422 672q0 -53 -53 -53t-53 53
t53 53t53 -53zM632 452q0 -53 -53 -53t-53 53t53 53t53 -53zM842 192q0 -53 -53 -53t-53 53t53 53t53 -53zM613 158h-68v188h68v-188zM403 318h-68v228h68v-228zM422 192q0 -53 -53 -53t-53 53t53 53t53 -53z" />
  </g>

</svg>
