<?xml version="1.0" standalone="no"?>
<!DOCTYPE svg PUBLIC "-//W3C//DTD SVG 1.1//EN" "http://www.w3.org/Graphics/SVG/1.1/DTD/svg11.dtd" >
<svg viewBox="0 -442 2048 2048">
  <g transform="matrix(1 0 0 -1 0 1606)">
   <path fill="currentColor"
d="M1461 0h-1344v1344h1344v-1344zM1290 1244h-140v-140zM1361 1004v169l-211 -211v-169zM979 1244h-140v-140zM1050 1004v169l-211 -211v-169zM1361 693v169l-211 -211v-169zM668 1244h-140v-140zM739 1004v169l-211 -211v-169zM1050 693v169l-211 -211v-169zM1361 382v169
l-211 -211v-169zM357 1244h-140v-140zM1361 100v140l-140 -140h140zM428 1004v169l-211 -211v-169zM739 693v169l-211 -211v-169zM1050 382v169l-211 -211v-169zM1050 100v140l-140 -140h140zM428 693v169l-211 -211v-169zM739 382v169l-211 -211v-169zM739 100v140
l-140 -140h140zM428 382v169l-211 -211v-169zM428 100v140l-140 -140h140z" />
  </g>

</svg>
