<?xml version="1.0" standalone="no"?>
<!DOCTYPE svg PUBLIC "-//W3C//DTD SVG 1.1//EN" "http://www.w3.org/Graphics/SVG/1.1/DTD/svg11.dtd" >
<svg viewBox="0 -442 2048 2048">
  <g transform="matrix(1 0 0 -1 0 1606)">
   <path fill="currentColor"
d="M1461 0h-1344v1344h1344v-1344zM1361 1154v90h-269v-175h-175v-175h-175v-175h-175v-175h-175v-175h-175v-265h90v175h175v175h175v175h175v175h175v175h175v175h179zM307 1154v90h-90v-90h90zM657 1154v90h-265v-175h-175v-265h90v175h175v175h175zM1007 1154v90h-265
v-175h-175v-175h-175v-175h-175v-265h90v175h175v175h175v175h175v175h175zM1361 800v265h-90v-175h-175v-175h-175v-175h-175v-175h-175v-175h-175v-90h265v175h175v175h175v175h175v175h175zM1361 450v265h-90v-175h-175v-175h-175v-175h-175v-90h265v175h175v175h175z
M1361 100v265h-90v-175h-175v-90h265z" />
  </g>

</svg>
