<?xml version="1.0" standalone="no"?>
<!DOCTYPE svg PUBLIC "-//W3C//DTD SVG 1.1//EN" "http://www.w3.org/Graphics/SVG/1.1/DTD/svg11.dtd" >
<svg viewBox="0 -442 2048 2048">
  <g transform="matrix(1 0 0 -1 0 1606)">
   <path fill="currentColor"
d="M1461 0h-1344v1344h1344v-1344zM1361 1033v140l-140 -140h140zM1290 1244h-169l-211 -211h169zM1361 722v140l-140 -140h140zM979 1244h-169l-211 -211h169zM1290 933h-169l-211 -211h169zM1361 411v140l-140 -140h140zM668 1244h-169l-211 -211h169zM979 933h-169
l-211 -211h169zM1290 622h-169l-211 -211h169zM357 1244h-140v-140zM1361 100v140l-140 -140h140zM668 933h-169l-211 -211h169zM979 622h-169l-211 -211h169zM1290 311h-169l-211 -211h169zM357 933h-140v-140zM668 622h-169l-211 -211h169zM979 311h-169l-211 -211h169z
M357 622h-140v-140zM668 311h-169l-211 -211h169zM357 311h-140v-140z" />
  </g>

</svg>
