<?xml version="1.0" standalone="no"?>
<!DOCTYPE svg PUBLIC "-//W3C//DTD SVG 1.1//EN" "http://www.w3.org/Graphics/SVG/1.1/DTD/svg11.dtd" >
<svg viewBox="0 -442 2048 2048">
  <g transform="matrix(1 0 0 -1 0 1606)">
   <path fill="currentColor"
d="M899 861q0 -44 -29.5 -72.5t-73.5 -28.5q-68 0 -102 71q-26 55 -26 132q0 201 142 345q28 28 38 28q20 0 20 -21q0 -8 -23 -32q-135 -135 -135 -332q0 -15 4 -24l6 6q33 31 76 31q45 0 74 -29t29 -74zM525 861q0 -44 -29 -72.5t-73 -28.5q-69 0 -103 71q-27 55 -27 132
q0 203 143 345q28 28 39 28q19 0 19 -21q0 -9 -23 -32q-136 -136 -136 -332q0 -15 4 -24q1 0 7 6q35 31 77 31q44 0 73 -29t29 -74z" />
  </g>

</svg>
