<?xml version="1.0" standalone="no"?>
<!DOCTYPE svg PUBLIC "-//W3C//DTD SVG 1.1//EN" "http://www.w3.org/Graphics/SVG/1.1/DTD/svg11.dtd" >
<svg viewBox="0 -442 2048 2048">
  <g transform="matrix(1 0 0 -1 0 1606)">
   <path fill="currentColor"
d="M671 1136q0 -204 -142 -346q-29 -28 -39 -28q-19 0 -19 21q0 9 23 32q135 136 135 332q0 15 -4 24q-1 0 -7 -6q-34 -31 -76 -31q-45 0 -74 29t-29 74q0 44 29.5 72.5t73.5 28.5q68 0 103 -71q26 -55 26 -131zM297 1136q0 -202 -143 -346q-28 -28 -38 -28q-20 0 -20 21
q0 8 24 32q135 135 135 332q0 15 -4 24l-6 -6q-34 -31 -78 -31t-72.5 29t-28.5 74q0 44 28.5 72.5t72.5 28.5q68 0 103 -71q27 -55 27 -131z" />
  </g>

</svg>
