<?xml version="1.0" standalone="no"?>
<!DOCTYPE svg PUBLIC "-//W3C//DTD SVG 1.1//EN" "http://www.w3.org/Graphics/SVG/1.1/DTD/svg11.dtd" >
<svg viewBox="0 -442 2048 2048">
  <g transform="matrix(1 0 0 -1 0 1606)">
   <path fill="currentColor"
d="M729 2q0 -205 -137 -345q-28 -29 -39 -29q-19 0 -19 21q0 8 13 22q139 151 139 331q0 22 -5 29q-26 -31 -75 -31q-45 0 -74.5 28.5t-29.5 73.5q0 44 29.5 73t74.5 29q123 0 123 -202zM354 2q0 -205 -137 -345q-28 -29 -39 -29q-19 0 -19 21q0 8 13 22q140 151 140 331
q0 22 -5 29q-27 -31 -76 -31q-45 0 -74 28.5t-29 73.5q0 44 29.5 73t73.5 29q123 0 123 -202z" />
  </g>

</svg>
