<?xml version="1.0" standalone="no"?>
<!DOCTYPE svg PUBLIC "-//W3C//DTD SVG 1.1//EN" "http://www.w3.org/Graphics/SVG/1.1/DTD/svg11.dtd" >
<svg viewBox="0 -442 2048 2048">
  <g transform="matrix(1 0 0 -1 0 1606)">
   <path fill="currentColor"
d="M671 1237q0 -45 -28 -74t-73 -29q-44 0 -77 31l-6 6q-4 -9 -4 -24q0 -197 134 -332q24 -24 24 -32q0 -21 -20 -21q-10 0 -38 28q-143 144 -143 346q0 76 27 131q35 71 103 71q44 0 72.5 -28.5t28.5 -72.5zM298 1237q0 -45 -29 -74t-73 -29q-42 0 -77 31q-2 2 -7 6
q-4 -9 -4 -24q0 -196 136 -332q22 -23 22 -32q0 -21 -18 -21q-11 0 -40 28q-142 142 -142 346q0 76 27 131q34 71 103 71q44 0 73 -28.5t29 -72.5z" />
  </g>

</svg>
