<?xml version="1.0" standalone="no"?>
<!DOCTYPE svg PUBLIC "-//W3C//DTD SVG 1.1//EN" "http://www.w3.org/Graphics/SVG/1.1/DTD/svg11.dtd" >
<svg viewBox="0 -442 2048 2048">
  <g transform="matrix(1 0 0 -1 0 1606)">
   <path fill="currentColor"
d="M748 898q0 -66 -70 -66q-43 0 -115 20q-83 23 -115 27q4 -47 27 -193q20 -121 20 -194q0 -501 -39 -783q-5 -38 -27 -38q-23 0 -28 38q-38 282 -38 783q0 73 19 194q23 146 27 193q-32 -4 -115 -27q-71 -20 -115 -20q-71 0 -71 66q0 64 71 64q43 0 115 -21
q82 -22 115 -26q-2 67 -25 216q-21 139 -21 216q0 79 66 79t66 -79q0 -77 -22 -216q-22 -149 -25 -216q33 4 115 26q72 21 115 21q70 0 70 -64z" />
  </g>

</svg>
