<?xml version="1.0" standalone="no"?>
<!DOCTYPE svg PUBLIC "-//W3C//DTD SVG 1.1//EN" "http://www.w3.org/Graphics/SVG/1.1/DTD/svg11.dtd" >
<svg viewBox="0 -442 2048 2048">
  <g transform="matrix(1 0 0 -1 0 1606)">
   <path fill="currentColor"
d="M748 986q0 -63 -71 -63q-43 0 -115 20q-81 23 -115 26q3 -54 25 -172q22 -112 22 -174q0 -75 -65 -75t-65 75q0 62 21 174q23 118 25 172q-33 -3 -115 -26q-72 -20 -115 -20q-72 0 -72 63q0 66 72 66q44 0 115 -20q83 -23 115 -26q-2 55 -25 172q-21 112 -21 173
q0 75 65 75t65 -75q0 -61 -22 -173q-23 -117 -25 -172q33 3 115 26q72 20 115 20q71 0 71 -66zM748 108q0 -63 -71 -63q-43 0 -115 20q-81 23 -115 26q3 -54 25 -172q22 -112 22 -174q0 -74 -65 -74t-65 74q0 62 21 174q23 118 25 172q-33 -3 -115 -26q-72 -20 -115 -20
q-72 0 -72 63q0 66 72 66q44 0 115 -20q83 -23 115 -26q-2 55 -25 172q-21 112 -21 173q0 75 65 75t65 -75q0 -61 -22 -173q-23 -117 -25 -172q33 3 115 26q72 20 115 20q71 0 71 -66z" />
  </g>

</svg>
