<?xml version="1.0" standalone="no"?>
<!DOCTYPE svg PUBLIC "-//W3C//DTD SVG 1.1//EN" "http://www.w3.org/Graphics/SVG/1.1/DTD/svg11.dtd" >
<svg viewBox="0 -442 2292 2048">
  <g transform="matrix(1 0 0 -1 0 1606)">
   <path fill="currentColor"
d="M2292 419q0 -453 -282 -453q-280 0 -280 453q0 459 281 459t281 -459zM1612 419q0 -453 -282 -453q-280 0 -280 453q0 459 281 459t281 -459zM1358 1470q0 -12 -17 -37l-1037 -1536q-21 -31 -41 -31q-41 0 -41 41q0 13 19 41l920 1364q-106 -70 -274 -70q-160 0 -297 99
q22 -86 22 -222q0 -453 -282 -453q-280 0 -280 453q0 459 281 459q149 0 223 -142q165 -149 331 -149q235 0 389 195q23 29 43 29q41 0 41 -41zM2173 351v141q0 150 -19 217q-35 130 -144 130q-108 0 -143 -128q-18 -67 -18 -216v-145q0 -345 161 -345q163 0 163 346z
M1493 351v141q0 150 -19 217q-35 130 -144 130q-108 0 -143 -128q-18 -67 -18 -216v-145q0 -345 161 -345q163 0 163 346zM493 1051q0 226 1 203q-5 132 -34 197q-47 44 -84 81q-22 7 -46 7q-108 0 -143 -128q-18 -67 -18 -216v-145q0 -345 161 -345q163 0 163 346z" />
  </g>

</svg>
