<?xml version="1.0" standalone="no"?>
<!DOCTYPE svg PUBLIC "-//W3C//DTD SVG 1.1//EN" "http://www.w3.org/Graphics/SVG/1.1/DTD/svg11.dtd" >
<svg viewBox="0 -442 2048 2048">
  <g transform="matrix(1 0 0 -1 0 1606)">
   <path fill="currentColor"
d="M1201 751q0 -17 -27 -17q-17 0 -31 25l-385 667q-9 16 -9 32q0 37 40 60q33 20 73 20q76 0 94 -54l239 -707q6 -18 6 -26zM841 751q0 -17 -27 -17q-17 0 -31 25l-385 667q-9 16 -9 32q0 37 40 60q33 20 73 20q76 0 94 -54l239 -707q6 -18 6 -26zM481 751q0 -17 -27 -17
q-17 0 -31 25l-385 667q-9 16 -9 32q0 37 40 60q33 20 73 20q76 0 94 -54l239 -707q6 -18 6 -26z" />
  </g>

</svg>
