<?xml version="1.0" standalone="no"?>
<!DOCTYPE svg PUBLIC "-//W3C//DTD SVG 1.1//EN" "http://www.w3.org/Graphics/SVG/1.1/DTD/svg11.dtd" >
<svg viewBox="0 -442 2048 2048">
  <g transform="matrix(1 0 0 -1 0 1606)">
   <path fill="currentColor"
d="M753 882q0 -45 -32 -77t-77 -32t-77 32t-32 77q0 44 32 76t77 32t77 -32t32 -76zM1206 429q0 -45 -32 -77t-77 -32t-77 32t-32 77q0 44 32 76t77 32t77 -32t32 -76zM1027 88q0 -42 -42 -42q-16 0 -26 10l-315 315l-316 -316q-10 -10 -25 -10q-43 0 -43 43q0 15 10 25
l316 316l-316 316q-10 10 -10 25q0 43 43 43q15 0 25 -10l316 -316l315 315q10 10 26 10q42 0 42 -42q0 -16 -10 -26l-315 -315l315 -315q10 -10 10 -26zM300 429q0 -45 -32 -77t-77 -32t-77 32t-32 77q0 44 32 76t77 32t77 -32t32 -76zM753 -24q0 -45 -32 -77t-77 -32
t-77 32t-32 77q0 44 32 76t77 32t77 -32t32 -76z" />
  </g>

</svg>
