<?xml version="1.0" standalone="no"?>
<!DOCTYPE svg PUBLIC "-//W3C//DTD SVG 1.1//EN" "http://www.w3.org/Graphics/SVG/1.1/DTD/svg11.dtd" >
<svg viewBox="0 -442 2048 2048">
  <g transform="matrix(1 0 0 -1 0 1606)">
   <path fill="currentColor"
d="M909 1362l-79 -934q-4 -45 -29 -45t-29 47l-79 932q-4 47 32 77q32 27 76 27t76 -27q36 -30 32 -77zM449 1362l-79 -934q-4 -45 -29 -45t-29 47l-79 932q-4 47 32 77q32 27 76 27t76 -27q36 -30 32 -77zM910 109q0 -45 -32 -77t-77 -32t-77 32t-32 77q0 44 32 76t77 32
t77 -32t32 -76zM450 109q0 -45 -32 -77t-77 -32t-77 32t-32 77q0 44 32 76t77 32t77 -32t32 -76z" />
  </g>

</svg>
