<?xml version="1.0" standalone="no"?>
<!DOCTYPE svg PUBLIC "-//W3C//DTD SVG 1.1//EN" "http://www.w3.org/Graphics/SVG/1.1/DTD/svg11.dtd" >
<svg viewBox="0 -442 2048 2048">
  <g transform="matrix(1 0 0 -1 0 1606)">
   <path fill="currentColor"
d="M822 1167q0 -124 -98 -200q-239 -185 -252 -347l-16 -192q-4 -45 -29 -45t-29 47l-67 792q-1 7 -1 15q0 40 28.5 64.5t68.5 24.5t68.5 -24.5t28.5 -64.5q0 -9 -1 -15l-30 -361q37 66 90 124q69 75 69 195q0 117 -51 168t-172 51q-187 0 -268 -139q114 1 114 -93t-94 -94
t-94 98q0 126 115 204q101 69 233 69q157 0 260 -59q127 -73 127 -218zM536 109q0 -44 -32.5 -76.5t-76.5 -32.5t-76.5 32.5t-32.5 76.5t32.5 76t76.5 32t76.5 -32t32.5 -76z" />
  </g>

</svg>
