<?xml version="1.0" standalone="no"?>
<!DOCTYPE svg PUBLIC "-//W3C//DTD SVG 1.1//EN" "http://www.w3.org/Graphics/SVG/1.1/DTD/svg11.dtd" >
<svg viewBox="0 -442 2048 2048">
  <g transform="matrix(1 0 0 -1 0 1606)">
   <path fill="currentColor"
d="M607 468q0 -27 -18.5 -48t-44.5 -21q-12 0 -44.5 27t-53.5 27q-32 0 -32 -34q0 -28 65 -37t65 -61q0 -26 -20 -44.5t-46 -18.5q-45 0 -53.5 67.5t-44.5 67.5q-41 0 -41 -39q0 -14 27 -48t27 -57q0 -51 -66 -51q-63 0 -63 51q0 18 28 50t28 55q0 39 -39 39
q-34 0 -43 -67.5t-62 -67.5q-23 0 -43 21.5t-20 44.5q0 52 66 58.5t66 39.5q0 31 -32 31q-22 0 -53.5 -25.5t-46.5 -25.5q-60 0 -60 66q0 60 57 60q21 0 55.5 -25t48.5 -25q34 0 34 29q0 36 -69 44t-69 55q0 24 21 45t45 21q49 0 60 -65t43 -65q38 0 38 37q0 19 -26.5 51
t-26.5 45q0 26 21.5 43t47.5 17q24 0 43.5 -18t19.5 -42q0 -21 -27 -51.5t-27 -47.5q0 -39 43 -39q29 0 37.5 66t61.5 66q60 0 60 -60q0 -54 -65 -59.5t-65 -36.5q0 -37 31 -37q19 0 51 27.5t55 27.5q56 0 56 -63zM377 468q0 45 -44 45q-50 0 -50 -48q0 -45 50 -45
q44 0 44 48z" />
  </g>

</svg>
