<?xml version="1.0" standalone="no"?>
<!DOCTYPE svg PUBLIC "-//W3C//DTD SVG 1.1//EN" "http://www.w3.org/Graphics/SVG/1.1/DTD/svg11.dtd" >
<svg viewBox="0 -442 2048 2048">
  <g transform="matrix(1 0 0 -1 0 1606)">
   <path fill="currentColor"
d="M735 872q0 -137 -97 -230t-235 -93q-180 0 -267 158q-69 125 -69 321q0 143 60 260q66 126 185 189q85 45 176 45q84 0 141 -36q68 -43 68 -122q0 -78 -82 -78t-82 74q0 65 73 71q-42 37 -115 37q-58 0 -111 -30q-146 -82 -152 -354q67 107 184 107q135 0 229 -92
t94 -227zM575 836v69q0 234 -163 234q-89 0 -139 -77q-43 -66 -43 -160q0 -136 27 -196q45 -99 146 -99q172 0 172 229z" />
  </g>

</svg>
