<?xml version="1.0" standalone="no"?>
<!DOCTYPE svg PUBLIC "-//W3C//DTD SVG 1.1//EN" "http://www.w3.org/Graphics/SVG/1.1/DTD/svg11.dtd" >
<svg viewBox="0 -442 2048 2048">
  <g transform="matrix(1 0 0 -1 0 1606)">
   <path fill="currentColor"
d="M735 1046q0 -115 -35 -212q-44 -123 -140 -201q-102 -84 -227 -84q-90 0 -151 34q-76 42 -76 125q0 77 81 77q34 0 58.5 -20.5t24.5 -53.5q0 -60 -66 -72q47 -32 127 -32q54 0 106 30q132 77 137 352q-67 -108 -185 -108q-135 0 -228.5 92.5t-93.5 226.5q0 140 99 231
t240 91q178 0 262 -158q67 -125 67 -318zM572 1173q0 131 -25 191q-44 104 -141 104q-99 0 -148 -82q-30 -50 -30 -159v-71q0 -222 163 -222q90 0 139 78q42 66 42 161z" />
  </g>

</svg>
