<?xml version="1.0" standalone="no"?>
<!DOCTYPE svg PUBLIC "-//W3C//DTD SVG 1.1//EN" "http://www.w3.org/Graphics/SVG/1.1/DTD/svg11.dtd" >
<svg viewBox="0 -442 2048 2048">
  <g transform="matrix(1 0 0 -1 0 1606)">
   <path fill="currentColor"
d="M735 -27q0 -123 -109 -201q-99 -71 -226 -71q-124 0 -221 61q-112 71 -112 188q0 157 213 257q-171 93 -171 226q0 108 95 178q86 63 198 63q108 0 193 -53q99 -61 99 -163q0 -129 -178 -216q219 -115 219 -269zM605 458q0 73 -68 120q-60 42 -137 42q-70 0 -130 -31
q-73 -38 -73 -102q0 -54 75 -103q31 -20 187 -109q146 77 146 183zM638 -75q0 74 -114 143q-49 30 -187 104q-172 -86 -172 -222q0 -86 78 -141q69 -50 159 -50q83 0 153 41q83 48 83 125z" />
  </g>

</svg>
