<?xml version="1.0" standalone="no"?>
<!DOCTYPE svg PUBLIC "-//W3C//DTD SVG 1.1//EN" "http://www.w3.org/Graphics/SVG/1.1/DTD/svg11.dtd" >
<svg viewBox="0 -442 2048 2048">
  <g transform="matrix(1 0 0 -1 0 1606)">
   <path fill="currentColor"
d="M867 -270q-86 5 -164 5q-50 0 -183 -4v64q58 2 58 26q0 5 -147 174q-133 -134 -133 -166q0 -31 47 -35v-63q-106 4 -163 4q-68 0 -142 -5v65q116 0 204 77q8 7 148 168l-154 177q-54 62 -81 73q-22 9 -110 9v66q92 -6 162 -6q13 0 184 6v-65q-56 -1 -56 -25
q0 -13 128 -155q115 127 115 146q0 32 -47 34v65q91 -6 163 -6q54 0 142 6v-65q-114 -2 -194 -69q-16 -14 -141 -156l209 -239q37 -42 155 -41v-65z" />
  </g>

</svg>
