<?xml version="1.0" standalone="no"?>
<!DOCTYPE svg PUBLIC "-//W3C//DTD SVG 1.1//EN" "http://www.w3.org/Graphics/SVG/1.1/DTD/svg11.dtd" >
<svg viewBox="0 -442 2048 2048">
  <g transform="matrix(1 0 0 -1 0 1606)">
   <path fill="currentColor"
d="M1311 -269q-149 4 -188 4q-40 0 -193 -4v64q28 -1 42 -1q47 0 60 5q23 10 23 50v331q0 149 -108 149q-88 0 -147 -64.5t-59 -153.5v-267q0 -45 53 -49q25 -2 72 0v-64q-149 4 -191 4q-36 0 -190 -4v64q28 -1 42 -1q47 0 60 5q23 10 23 50v331q0 149 -108 149
q-89 0 -148 -64.5t-59 -153.5v-272q0 -20 6 -29q13 -20 118 -15v-64q-149 4 -189 4q-36 0 -190 -4v64q28 -1 42 -1q47 0 59 5q23 11 23 50v381q0 56 -38 67q-12 3 -86 2v65l245 17v-123q80 122 227 122q177 0 216 -123q78 123 230 123q229 0 229 -225v-28q-1 -19 -1 -28
v-272q0 -34 77 -34q12 0 48 2v-64z" />
  </g>

</svg>
