<?xml version="1.0" standalone="no"?>
<!DOCTYPE svg PUBLIC "-//W3C//DTD SVG 1.1//EN" "http://www.w3.org/Graphics/SVG/1.1/DTD/svg11.dtd" >
<svg viewBox="0 -442 2048 2048">
  <g transform="matrix(1 0 0 -1 0 1606)">
   <path fill="currentColor"
d="M1310 101l-67 -360h-847v58q123 0 123 49v345q-194 22 -327 156q-140 140 -140 333q0 209 161 353q156 140 367 140q148 0 275 -110l70 90q16 20 30 20q25 0 25 -31v-340q0 -25 -32 -25q-26 0 -33 28q-9 40 -35 118q-39 86 -114 138.5t-168 52.5q-79 0 -154 -33
q-221 -97 -221 -402q0 -315 239 -407q29 -11 57 -18v303q0 30 -30 39q-23 7 -93 7v59h827l45 -315h-54q-19 153 -76 205t-212 52h-200q-37 0 -45 -5q-13 -7 -13 -40v-312h127q96 0 124.5 29.5t28.5 125.5h56v-369h-56q0 96 -28.5 125.5t-124.5 29.5h-127v-346q0 -33 13 -40
q8 -5 45 -5h208q172 0 237 69q54 57 85 233h54z" />
  </g>

</svg>
