<?xml version="1.0" standalone="no"?>
<!DOCTYPE svg PUBLIC "-//W3C//DTD SVG 1.1//EN" "http://www.w3.org/Graphics/SVG/1.1/DTD/svg11.dtd" >
<svg viewBox="0 -442 2048 2048">
  <g transform="matrix(1 0 0 -1 0 1606)">
   <path fill="currentColor"
d="M1267 854q0 -26 -31 -26q-27 0 -33 32q-12 60 -47 178q-51 127 -147 205q-104 85 -234 85q-104 0 -207 -50q-298 -145 -298 -606q0 -476 322 -614q54 -23 106 -33v541q0 87 -45 109q-24 11 -122 10v68l297 23v-235q76 235 262 235q60 0 107 -35q52 -38 52 -96
q0 -40 -25.5 -67t-65.5 -27q-39 0 -65.5 26t-26.5 66q0 64 48 84q-6 2 -14 2q-136 0 -207 -140q-55 -111 -55 -262v-306q122 18 219 99.5t135 199.5q17 52 27 140q4 33 23 33q24 0 24 -35q0 -205 -154 -353t-360 -148q-288 0 -488 215q-196 211 -196 501q0 289 196 501
q201 216 488 216q193 0 363 -169l99 144q17 25 31 25q21 0 21 -33z" />
  </g>

</svg>
