<?xml version="1.0" standalone="no"?>
<!DOCTYPE svg PUBLIC "-//W3C//DTD SVG 1.1//EN" "http://www.w3.org/Graphics/SVG/1.1/DTD/svg11.dtd" >
<svg viewBox="0 -442 2048 2048">
  <g transform="matrix(1 0 0 -1 0 1606)">
   <path fill="currentColor"
d="M976 290q0 -26 -22 -89q-78 -225 -264 -225q-85 0 -177 56q-32 19 -153 112q-81 -168 -182 -168q-50 0 -78.5 35t-28.5 86q0 65 44 106.5t110 41.5q35 0 94 -10q4 50 4 90q0 102 -13 269h-221v60h216q-7 83 -10 130h-206v60h203q-3 61 -3 113q0 171 92 293
q102 134 268 134q117 0 182 -66q61 -62 61 -131q0 -27 -20.5 -50t-47.5 -23q-49 0 -61 61q-22 109 -24 112q-27 61 -114 61q-192 0 -192 -294q0 -53 16 -210h364v-60h-359q3 -44 3 -80v-50h356v-60h-357q-6 -197 -65 -374q84 -28 167 -56q101 -30 172 -30q135 0 189 107
q8 20 15 40q12 29 24 29q18 0 18 -20zM309 169q-52 34 -96 34q-105 0 -105 -99q0 -89 75 -89q88 0 126 154z" />
  </g>

</svg>
