<?xml version="1.0" standalone="no"?>
<!DOCTYPE svg PUBLIC "-//W3C//DTD SVG 1.1//EN" "http://www.w3.org/Graphics/SVG/1.1/DTD/svg11.dtd" >
<svg viewBox="0 -442 2048 2048">
  <g transform="matrix(1 0 0 -1 0 1606)">
   <path fill="currentColor"
d="M1723 0q-198 6 -238 6t-244 -6v66q26 -1 43 -1q71 0 92 13q32 19 32 84v499q0 238 -157 238q-16 0 -32 -2l-257 -396v-346q0 -39 12 -60q21 -35 155 -29v-66q-198 6 -242 6q-35 0 -240 -6v16l-228 -351q-11 -17 -35 -17q-40 0 -40 40q0 13 6 22l464 714v237
q0 238 -158 238q-130 0 -213 -109q-76 -100 -76 -234v-397q0 -47 11 -64q22 -36 154 -29v-66q-198 6 -239 6q-35 0 -240 -6v66q26 -1 43 -1q70 0 92 13q31 19 31 84v574q0 87 -44 109q-25 12 -122 10v68l301 23v-225q101 225 316 225q251 0 284 -210q58 130 181 183l286 440
q11 17 35 17q40 0 40 -40q0 -13 -6 -22l-239 -368h15q158 0 228 -85q63 -77 63 -239v-42q-1 -27 -1 -41v-409q0 -73 167 -64v-66zM1081 835q-66 -57 -98 -150zM814 162v111l-135 -208h11q70 -1 92 13q32 19 32 84z" />
  </g>

</svg>
