<?xml version="1.0" standalone="no"?>
<!DOCTYPE svg PUBLIC "-//W3C//DTD SVG 1.1//EN" "http://www.w3.org/Graphics/SVG/1.1/DTD/svg11.dtd" >
<svg viewBox="0 -442 2283 2048">
  <g transform="matrix(1 0 0 -1 0 1606)">
   <path fill="currentColor"
d="M2283 274q0 -146 -102 -226q-92 -72 -242 -72q-140 0 -237 93q-77 -93 -96 -93q-22 0 -22 33v57q-58 -90 -160 -90q-132 0 -203.5 78t-71.5 211v585q-51 -106 -177 -171q-117 -60 -243 -60h-285v-473q0 -32 7 -48q18 -39 198 -37v-61q-72 6 -133 6h-326q-50 0 -122 -6v61
q73 -1 55 -1q122 0 140 38q7 15 7 48v1051q0 32 -7 48q-18 41 -195 36v62h645q157 0 289 -80q146 -89 171 -231q68 114 70 285h53v-394h305v-68h-305v-594q0 -231 144 -231t144 265v36q0 32 27 32q21 0 30 -35q37 -146 92 -214q73 -90 206 -90q103 0 167 45q74 52 74 150
q0 147 -223 195q-128 28 -148 33q-82 25 -134 67q-91 75 -91 183q0 134 108 204q92 59 233 59q118 0 201 -61q60 61 80 61q24 0 24 -33v-254q0 -35 -29 -35q-23 0 -31 43l-6 60q-16 87 -84 134q-63 44 -155 44q-94 0 -158 -34q-81 -43 -81 -129t94 -130q48 -22 169 -46
q170 -33 243 -102q91 -86 91 -204zM974 977q0 161 -75.5 232.5t-237.5 71.5h-136q-53 0 -67 -12q-19 -14 -19 -67v-532h222q313 0 313 307z" />
  </g>

</svg>
