<?xml version="1.0" standalone="no"?>
<!DOCTYPE svg PUBLIC "-//W3C//DTD SVG 1.1//EN" "http://www.w3.org/Graphics/SVG/1.1/DTD/svg11.dtd" >
<svg viewBox="0 -442 2048 2048">
  <g transform="matrix(1 0 0 -1 0 1606)">
   <path fill="currentColor"
d="M1712 274q0 -146 -102 -226q-92 -72 -242 -72q-211 0 -319 95q-101 89 -133 284q-23 141 -117 230q-70 67 -183 67h-177v-511q0 -29 7 -46q15 -37 197 -34v-61q-74 6 -143 6h-289q-69 0 -143 -6v61q6 0 26 -1h27q125 0 142 35q7 15 7 46v1055q0 27 -6 45q-15 44 -196 40
v62h568q183 0 333 -84q180 -100 180 -267q0 -43 -15 -84q89 52 220 52q118 0 201 -61q60 61 80 61q24 0 24 -33v-254q0 -35 -29 -35q-23 0 -31 43l-6 60q-16 87 -84 134q-63 44 -155 44q-94 0 -158 -34q-81 -43 -81 -129t94 -130q48 -22 169 -46q170 -33 243 -102
q91 -86 91 -204zM947 992q0 183 -124 247q-86 44 -289 44q-95 0 -95 -64v-523h169q339 0 339 296zM1609 219q0 147 -223 195q-128 28 -148 33q-82 25 -134 67q-91 75 -91 183q0 39 10 73q-92 -68 -218 -99q163 -56 224 -182q23 -48 52 -200q25 -130 70 -184q67 -81 217 -81
q103 0 167 45q74 52 74 150z" />
  </g>

</svg>
