<?xml version="1.0" standalone="no"?>
<!DOCTYPE svg PUBLIC "-//W3C//DTD SVG 1.1//EN" "http://www.w3.org/Graphics/SVG/1.1/DTD/svg11.dtd" >
<svg viewBox="0 -442 2048 2048">
  <g transform="matrix(1 0 0 -1 0 1606)">
   <path fill="currentColor"
d="M2019 1284q-152 0 -195 -132l-101 -308h190v-60h-209l-43 -130h252v-60h-271l-196 -598q-13 -39 -38 -39q-26 0 -38 37l-196 600h-262l-193 -598q-13 -39 -41 -39q-25 0 -37 37l-196 600h-306v60h286l-43 130h-243v60h224l-117 357q-6 19 -23 53q-25 33 -155 30v62
q242 -6 333 -6q114 0 187 6v-62q-166 1 -166 -58q0 -15 4 -27l116 -355h399l76 232q-17 63 -35 127q-16 48 -50 64q-38 17 -136 17v62q242 -6 333 -6q114 0 187 6v-62q-165 1 -165 -58q0 -15 5 -30l115 -352h400l97 297q10 31 10 39q0 53 -63 81q-48 22 -109 23v62
q155 -6 234 -6q89 0 179 6v-62zM1652 784h-361l42 -130h277zM1092 844l-50 153l-49 -153h99zM1590 594h-237l119 -363zM1154 654l-42 130h-139l-42 -130h223zM922 784h-361l43 -130h276zM860 594h-236l118 -363z" />
  </g>

</svg>
