<?xml version="1.0" standalone="no"?>
<!DOCTYPE svg PUBLIC "-//W3C//DTD SVG 1.1//EN" "http://www.w3.org/Graphics/SVG/1.1/DTD/svg11.dtd" >
<svg viewBox="0 -442 2048 2048">
  <g transform="matrix(1 0 0 -1 0 1606)">
   <path fill="currentColor"
d="M1489 1246q0 -7 -6 -20l-93 -196q-11 -23 -27 -23q-32 0 -28 30q2 12 2 24q0 126 -164 213q-105 56 -218 56t-215 -55q-222 -120 -273 -412h842l-56 -117h-799q-1 -26 -1 -52q0 -49 4 -96h725l-56 -117h-653q58 -284 270 -405q102 -58 214 -58q102 0 208 57
q103 55 185 176q8 12 19 12q24 0 24 -29v-124q-189 -153 -438 -153q-241 0 -431 150q-186 146 -248 374h-217l56 117h140q-4 35 -4 71q0 39 4 77h-196l56 117h162q63 229 248 376q189 151 430 151q238 0 423 -144q62 23 84 23q27 0 27 -23z" />
  </g>

</svg>
