<?xml version="1.0" standalone="no"?>
<!DOCTYPE svg PUBLIC "-//W3C//DTD SVG 1.1//EN" "http://www.w3.org/Graphics/SVG/1.1/DTD/svg11.dtd" >
<svg viewBox="0 -442 2048 2048">
  <g transform="matrix(1 0 0 -1 0 1606)">
   <path fill="currentColor"
d="M1346 901h-49q-22 262 -88.5 321.5t-330.5 59.5q-46 0 -62 -9q-23 -14 -23 -56v-554l429 91v-60l-429 -91v-130l429 91v-60l-429 -91v-267q0 -25 10 -47q19 -41 277 -38v-61q-84 6 -154 6h-439q-71 0 -155 -6v61q9 0 38 -1h38q184 0 202 39q8 17 8 47v229l-429 -91v60
l429 91v130l-429 -91v60l429 91v593q0 43 -29 56q-17 8 -66 8q-256 0 -321 -62.5t-86 -318.5h-48l36 442h1206z" />
  </g>

</svg>
