<?xml version="1.0" standalone="no"?>
<!DOCTYPE svg PUBLIC "-//W3C//DTD SVG 1.1//EN" "http://www.w3.org/Graphics/SVG/1.1/DTD/svg11.dtd" >
<svg viewBox="0 -442 2048 2048">
  <g transform="matrix(1 0 0 -1 0 1606)">
   <path fill="currentColor"
d="M1041 -15q0 -145 -124 -232q-111 -78 -262 -78l-6 34q95 18 157 109q58 85 58 185q0 238 -238 585l-172 -491l-112 269l-148 -260h-134l307 528l106 -248l97 285q-122 176 -161 252q-78 151 -78 285q0 126 79 204t205 78q91 0 142.5 -51.5t51.5 -142.5q0 -184 -129 -531
q175 -258 235 -370q126 -236 126 -410zM712 1281q0 126 -89 126q-72 0 -111 -69q-31 -56 -31 -134q0 -151 141 -354q90 285 90 431z" />
  </g>

</svg>
