<?xml version="1.0" standalone="no"?>
<!DOCTYPE svg PUBLIC "-//W3C//DTD SVG 1.1//EN" "http://www.w3.org/Graphics/SVG/1.1/DTD/svg11.dtd" >
<svg viewBox="0 -442 2048 2048">
  <g transform="matrix(1 0 0 -1 0 1606)">
   <path fill="currentColor"
d="M1405 478q-80 0 -97 -6q-40 -15 -40 -81v-360q0 -29 -16 -29q-42 0 -127 122q-97 -167 -369 -167v-65h-60v68q-269 23 -450 232q-178 206 -178 481q0 274 179 481q182 211 449 234v58h60v-56q195 -1 361 -169l99 144q17 25 31 25q21 0 21 -33l1 -503q0 -26 -31 -26
q-27 0 -33 32q-12 60 -46 177q-51 128 -147 206q-105 85 -235 85q-10 0 -21 -1v-1309q16 -1 32 -1q124 0 208 56q98 65 98 183v126q0 40 -9 56q-23 40 -175 40h-63v59q65 -5 194 -5q184 0 364 5v-59zM696 26v1294q-62 -11 -117 -38q-309 -152 -309 -609q0 -456 312 -609
q53 -26 114 -38z" />
  </g>

</svg>
