<?xml version="1.0" standalone="no"?>
<!DOCTYPE svg PUBLIC "-//W3C//DTD SVG 1.1//EN" "http://www.w3.org/Graphics/SVG/1.1/DTD/svg11.dtd" >
<svg viewBox="0 -442 2048 2048">
  <g transform="matrix(1 0 0 -1 0 1606)">
   <path fill="currentColor"
d="M1101 524h-724q-21 -17 -40 -42q-62 -80 -62 -182q0 -115 75 -199t189 -84q194 0 311 107t117 250q0 72 30 72q24 0 24 -29v-431q0 -29 -20 -29q-14 0 -30 26l-72 111q-126 -137 -362 -137q-167 0 -279 123q-109 119 -109 287q0 83 28 157h-109v60h139q47 79 126 130
h-265v60h412q73 15 216 52q199 61 199 250q0 109 -74.5 183.5t-183.5 74.5q-279 0 -360 -290q-8 -41 -25 -122q-5 -22 -23 -22q-28 0 -28 28v429q0 33 24 33q12 0 29 -27l69 -112q142 139 316 139q160 0 271 -111t111 -271q0 -131 -80 -234h160v-60h-219q-53 -43 -118 -67
q-6 -2 -252 -63h589v-60z" />
  </g>

</svg>
