<?xml version="1.0" standalone="no"?>
<!DOCTYPE svg PUBLIC "-//W3C//DTD SVG 1.1//EN" "http://www.w3.org/Graphics/SVG/1.1/DTD/svg11.dtd" >
<svg viewBox="0 -442 2048 2048">
  <g transform="matrix(1 0 0 -1 0 1606)">
   <path fill="currentColor"
d="M1267 854q0 -26 -31 -26q-27 0 -33 32q-12 60 -47 178q-50 126 -145 203q-103 85 -230 87v-1311q139 1 253.5 86t157.5 217q17 52 27 140q4 33 23 33q24 0 24 -35q0 -197 -143.5 -343t-341.5 -157v-66h-60v66q-277 12 -467 225q-186 208 -186 490q0 281 187 490
q190 213 466 226v57h60v-57q174 -9 334 -168l99 144q17 25 31 25q22 0 22 -33v-503zM721 21v1304q-78 -10 -153 -47q-298 -145 -298 -606q0 -476 322 -614q66 -28 129 -37z" />
  </g>

</svg>
