<?xml version="1.0" standalone="no"?>
<!DOCTYPE svg PUBLIC "-//W3C//DTD SVG 1.1//EN" "http://www.w3.org/Graphics/SVG/1.1/DTD/svg11.dtd" >
<svg viewBox="0 -442 2048 2048">
  <g transform="matrix(1 0 0 -1 0 1606)">
   <path fill="currentColor"
d="M1302 265q0 -113 -48 -193q-58 -96 -164 -96q-132 0 -203.5 78t-71.5 211v590h-456v-693q0 -50 12 -67q15 -21 65 -27q22 -3 91 -2v-66q-220 6 -238 6q-37 0 -236 -6v66q10 0 33 -1t35 -1q98 0 98 98v693h-166v68h166v354q0 87 -44 108q-23 11 -122 10v67l306 23v-562
h332q107 0 169 151q47 116 49 243h53v-394h305v-68h-305v-594q0 -231 144 -231q145 0 145 290q0 18 -1 67h52v-122z" />
  </g>

</svg>
