<?xml version="1.0" standalone="no"?>
<!DOCTYPE svg PUBLIC "-//W3C//DTD SVG 1.1//EN" "http://www.w3.org/Graphics/SVG/1.1/DTD/svg11.dtd" >
<svg viewBox="0 -442 2048 2048">
  <g transform="matrix(1 0 0 -1 0 1606)">
   <path fill="currentColor"
d="M1040 367q0 -157 -91 -261q-84 -95 -229 -131v-40h-89v25q-31 -3 -68 -3q-40 0 -81 6v-28h-89v48q-82 24 -149 63v-111h-89v177q-103 97 -103 222q0 44 28 85q31 45 73 45q78 0 86 -88q56 89 111 89q85 0 119 -94q49 94 120 94q131 0 131 -216v-206q194 69 194 257
q0 102 -62 182q-55 71 -167 100q-88 17 -260 65q-116 43 -186.5 140.5t-70.5 220.5q0 160 111 271t271 111q174 0 316 -139l69 112q17 27 29 27q24 0 24 -33v-429q0 -28 -28 -28q-18 0 -23 22q-7 41 -25 122q-80 290 -360 290q-109 0 -183.5 -74.5t-74.5 -183.5
q0 -188 199 -250q85 -19 252 -62q137 -41 216 -147.5t79 -249.5zM631 22v302q0 111 -48 111q-51 0 -80 -82q-21 -62 -21 -126v-202q45 -8 78 -8q35 0 71 5zM394 332q0 103 -49 103q-51 0 -80 -82q-21 -62 -21 -126v-114q66 -40 149 -66zM155 183v142q0 59 -20 59
q-38 0 -38 -69q0 -70 58 -132z" />
  </g>

</svg>
