<?xml version="1.0" standalone="no"?>
<!DOCTYPE svg PUBLIC "-//W3C//DTD SVG 1.1//EN" "http://www.w3.org/Graphics/SVG/1.1/DTD/svg11.dtd" >
<svg viewBox="0 -442 2048 2048">
  <g transform="matrix(1 0 0 -1 0 1606)">
   <path fill="currentColor"
d="M1024 1050l-59 -94h-201q-9 -108 -129 -192q-101 -70 -223 -93q141 -48 202 -120q49 -58 68 -166q17 -113 34 -227q30 -158 118 -158q64 0 97 59q18 35 34 116q6 31 24 31q24 0 24 -33q0 -86 -49 -148q-54 -68 -137 -68q-161 0 -248 81q-70 65 -88 237q-21 201 -50 257
q-64 120 -258 120v44q146 0 251 58q130 71 130 202h-496l59 94h427q-20 96 -93 149q-69 50 -169 50h-224l59 94h897l-59 -94h-386q137 -79 174 -199h271z" />
  </g>

</svg>
