<?xml version="1.0" standalone="no"?>
<!DOCTYPE svg PUBLIC "-//W3C//DTD SVG 1.1//EN" "http://www.w3.org/Graphics/SVG/1.1/DTD/svg11.dtd" >
<svg viewBox="0 -442 2048 2048">
  <g transform="matrix(1 0 0 -1 0 1606)">
   <path fill="currentColor"
d="M1927 626q0 -138 -67 -289t-170 -242q-124 -110 -293 -110q-21 0 -49 17q-57 35 -73 161q-7 106 -15 212t-51 106q-62 0 -158 -207q-68 -147 -105 -273q-17 -5 -72 -5q-45 0 -63 8q-7 368 -56 456h-1l-5 -2q-75 -268 -75 -439q0 -379 282 -379q34 0 70 6q63 10 123 55
q69 51 69 108q0 11 -7.5 31.5t-7.5 31.5q0 52 53 52q73 0 73 -78q0 -67 -85 -146q-74 -69 -148 -96q-64 -23 -147 -23q-180 0 -280 131q-90 119 -90 304q0 177 90 468l-2 2q-79 -2 -244 -492q-21 -3 -70 -3q-39 0 -61 11l-2 227q-1 78 -19 157q-26 113 -74 113
q-55 0 -120 -101q-16 9 -37 29q36 62 102 119q78 66 137 66q77 0 117 -170q24 -106 28 -236l4 -4h12q48 103 97 206q71 139 127 177q14 7 40 29q10 12 31 96q19 81 19 104q0 17 -12 17q17 0 -64 -12q-20 -3 -74 -3q-117 0 -191 58q-82 64 -82 178q0 90 75 148q69 54 162 54
q233 0 291 -330l312 124q191 70 324 70q192 0 316 -153q116 -143 116 -339zM1832 616q0 255 -179 373q-89 59 -189 59q-122 0 -311 -69q-152 -60 -303 -120q-4 -97 -62 -262q114 -57 137 -325q1 -27 3 -55q4 -38 19 -46q63 127 127 255q101 176 187 176q96 0 129 -136
q7 -31 28 -252q13 -136 59 -136h14q34 0 80 17q133 49 204 218q57 137 57 303zM761 922q0 92 -52 175q-59 95 -146 95q-61 0 -97 -44q-32 -40 -32 -103q0 -82 69 -127q60 -40 146 -40q73 0 110 15q2 11 2 29z" />
  </g>

</svg>
