<?xml version="1.0" standalone="no"?>
<!DOCTYPE svg PUBLIC "-//W3C//DTD SVG 1.1//EN" "http://www.w3.org/Graphics/SVG/1.1/DTD/svg11.dtd" >
<svg viewBox="-1053 -442 2048 2048">
  <g transform="matrix(1 0 0 -1 0 1606)">
   <path fill="currentColor"
d="M13 1093q0 -41 -41 -41t-41 41q0 166 -117.5 283.5t-283.5 117.5q-136 0 -242 -81.5t-143 -208.5q118 79 152 79q33 0 33 -34q0 -19 -49 -41q-78 -35 -178 -128q-30 -28 -48 -28q-21 0 -30 54q-23 139 -61 211q-17 32 -17 45q0 31 35 31t86 -158q46 150 173.5 245.5
t288.5 95.5q200 0 341.5 -141.5t141.5 -341.5z" />
  </g>

</svg>
