<?xml version="1.0" standalone="no"?>
<!DOCTYPE svg PUBLIC "-//W3C//DTD SVG 1.1//EN" "http://www.w3.org/Graphics/SVG/1.1/DTD/svg11.dtd" >
<svg viewBox="-1053 -442 2048 2048">
  <g transform="matrix(1 0 0 -1 0 1606)">
   <path fill="currentColor"
d="M13 1362q0 -13 -17 -45q-38 -72 -61 -211q-9 -54 -30 -54q-18 0 -48 28q-100 93 -178 128q-49 22 -49 41q0 34 33 34q34 0 152 -79q-37 127 -143 208.5t-242 81.5q-166 0 -283.5 -117.5t-117.5 -283.5q0 -41 -41 -41t-41 41q0 200 141.5 341.5t341.5 141.5q161 0 290 -96
q126 -95 172 -245q51 158 86 158t35 -31z" />
  </g>

</svg>
