<?xml version="1.0" standalone="no"?>
<!DOCTYPE svg PUBLIC "-//W3C//DTD SVG 1.1//EN" "http://www.w3.org/Graphics/SVG/1.1/DTD/svg11.dtd" >
<svg viewBox="-1208 -442 2048 2048">
  <g transform="matrix(1 0 0 -1 0 1606)">
   <path fill="currentColor"
d="M-13 582q0 -200 -141.5 -341.5t-341.5 -141.5q-191 0 -330 130t-152 319q-35 -36 -91 -73q-67 -45 -100 -45q-39 0 -39 41q0 22 25 36q22 10 44 19q90 42 173 168q38 161 169.5 266t300.5 105q200 0 341.5 -141.5t141.5 -341.5zM-95 582q0 166 -117.5 283.5t-283.5 117.5
q-144 0 -254.5 -91t-138.5 -229q69 -98 152 -137q22 -9 44 -19q25 -14 25 -36q0 -41 -39 -41q-33 0 -97 43q-54 36 -91 72q14 -154 128.5 -259t270.5 -105q166 0 283.5 117.5t117.5 283.5z" />
  </g>

</svg>
