<?xml version="1.0" standalone="no"?>
<!DOCTYPE svg PUBLIC "-//W3C//DTD SVG 1.1//EN" "http://www.w3.org/Graphics/SVG/1.1/DTD/svg11.dtd" >
<svg viewBox="-1208 -442 2048 2048">
  <g transform="matrix(1 0 0 -1 0 1606)">
   <path fill="currentColor"
d="M-13 582q0 -200 -141.5 -341.5t-341.5 -141.5q-169 0 -300.5 105t-169.5 266q-83 126 -173 168q-22 9 -44 19q-25 14 -25 36q0 41 39 41q33 0 100 -45q56 -37 91 -73q13 189 152 319t330 130q200 0 341.5 -141.5t141.5 -341.5zM-95 582q0 166 -117.5 283.5t-283.5 117.5
q-156 0 -270.5 -105t-128.5 -259q37 36 91 72q64 43 97 43q39 0 39 -41q0 -22 -25 -36q-22 -10 -44 -19q-83 -39 -152 -137q28 -138 138.5 -229t254.5 -91q166 0 283.5 117.5t117.5 283.5z" />
  </g>

</svg>
