<?xml version="1.0" standalone="no"?>
<!DOCTYPE svg PUBLIC "-//W3C//DTD SVG 1.1//EN" "http://www.w3.org/Graphics/SVG/1.1/DTD/svg11.dtd" >
<svg viewBox="-1500 -442 2048 2048">
  <g transform="matrix(1 0 0 -1 0 1606)">
   <path fill="currentColor"
d="M460 89q0 -275 -92 -359q-82 -74 -363 -88q-237 -12 -525 -12q-289 0 -525 12q-284 14 -366 91q-89 83 -89 363v744q0 280 89 364q81 76 366 90q260 13 736 13q355 0 505 -29q174 -34 228 -151q36 -79 36 -282v-756zM360 89v756q0 234 -64 290q-54 48 -295 59
q-275 13 -702 13q-585 0 -649 -84q-50 -65 -50 -283v-744q0 -237 62 -293q55 -49 297 -61q289 -14 703 -14q583 0 648 85q50 65 50 276z" />
  </g>

</svg>
