<?xml version="1.0" standalone="no"?>
<!DOCTYPE svg PUBLIC "-//W3C//DTD SVG 1.1//EN" "http://www.w3.org/Graphics/SVG/1.1/DTD/svg11.dtd" >
<svg viewBox="-1357 -442 2048 2048">
  <g transform="matrix(1 0 0 -1 0 1606)">
   <path fill="currentColor"
d="M463 -113q0 -137 -96.5 -233t-233.5 -96h-1160q-137 0 -233.5 96t-96.5 233v1159q0 137 96.5 234.5t233.5 97.5h1160q137 0 233.5 -97.5t96.5 -234.5v-1159zM391 -70v1116q0 124 -88.5 211.5t-212.5 87.5h-1117q-124 0 -211.5 -87.5t-87.5 -211.5v-1116
q0 -124 87.5 -211.5t211.5 -87.5h1117q124 0 212.5 87.5t88.5 211.5zM270 35q0 -117 -83.5 -201t-200.5 -84h-972q-117 0 -200 84t-83 201v970q0 117 83 201t200 84h972q117 0 200.5 -84t83.5 -201v-970zM197 78v927q0 104 -74 178t-178 74h-931q-104 0 -178 -74t-74 -178
v-927q0 -104 74 -179t178 -75h931q104 0 178 75t74 179z" />
  </g>

</svg>
