<?xml version="1.0" standalone="no"?>
<!DOCTYPE svg PUBLIC "-//W3C//DTD SVG 1.1//EN" "http://www.w3.org/Graphics/SVG/1.1/DTD/svg11.dtd" >
<svg viewBox="-708 -442 2048 2048">
  <g transform="matrix(1 0 0 -1 0 1606)">
   <path fill="currentColor"
d="M-332 1225q0 -47 -43 -47q-14 0 -23 8l-102 86l23 -136q0 -40 -43 -40t-43 40v3l23 133l-102 -86q-9 -8 -22 -8q-44 0 -44 47q0 27 23 35l126 46l-126 47q-23 9 -23 35q0 47 44 47q13 0 22 -8l102 -86l-23 136q0 40 43 40t43 -40v-2l-23 -134l102 86q9 8 23 8
q43 0 43 -47q0 -27 -22 -35l-126 -47l126 -46q22 -8 22 -35z" />
  </g>

</svg>
