<?xml version="1.0" standalone="no"?>
<!DOCTYPE svg PUBLIC "-//W3C//DTD SVG 1.1//EN" "http://www.w3.org/Graphics/SVG/1.1/DTD/svg11.dtd" >
<svg viewBox="0 -442 2048 2048">
  <g transform="matrix(1 0 0 -1 0 1606)">
   <path fill="currentColor"
d="M1470 1455l-1155 -1746h-89l1155 1746h89zM783 715q0 -62 -40 -103t-102 -41q-98 0 -129 97q-67 -105 -206 -105q-96 0 -170 34q-96 44 -96 128q0 125 165 194q99 41 289 51v43q0 73 -44 122.5t-116 49.5q-94 0 -150 -47q70 -13 70 -74q0 -34 -25.5 -54.5t-59.5 -20.5
q-84 0 -84 76q0 83 89 132q74 40 164 40q142 0 227 -82q60 -58 60 -174v-284q0 -62 49 -62q55 0 47 170h62v-90zM1380 -90q0 -12 -8 -30q-75 -165 -268 -165q-142 0 -248 96t-106 237q0 144 106 244q105 97 250 97q91 0 164 -36q92 -45 92 -127q0 -76 -83 -76q-84 0 -84 75
q0 56 60 72q-56 36 -147 36q-41 0 -85 -22q-121 -61 -121 -260q0 -196 128 -258q45 -22 88 -22q83 0 132 43q26 22 56 78q23 43 43 43q31 0 31 -25zM494 788v132q-116 -5 -198 -43q-113 -52 -113 -150q0 -50 43 -82q38 -30 90 -30q75 0 126.5 49t51.5 124z" />
  </g>

</svg>
