<?xml version="1.0" standalone="no"?>
<!DOCTYPE svg PUBLIC "-//W3C//DTD SVG 1.1//EN" "http://www.w3.org/Graphics/SVG/1.1/DTD/svg11.dtd" >
<svg viewBox="0 -442 2048 2048">
  <g transform="matrix(1 0 0 -1 0 1606)">
   <path fill="currentColor"
d="M1470 1455l-1155 -1746h-89l1155 1746h89zM783 715q0 -62 -40 -103t-102 -41q-98 0 -129 97q-67 -105 -206 -105q-96 0 -170 34q-96 44 -96 128q0 125 165 194q99 41 289 51v43q0 73 -44 122.5t-116 49.5q-94 0 -150 -47q70 -13 70 -74q0 -34 -25.5 -54.5t-59.5 -20.5
q-84 0 -84 76q0 83 89 132q74 40 164 40q142 0 227 -82q60 -58 60 -174v-284q0 -62 49 -62q55 0 47 170h62v-90zM1393 -77q0 -105 -84 -161q-72 -47 -183 -47q-103 0 -177 58q-53 -58 -73 -58q-26 0 -26 32v214q0 31 30 31q24 0 32 -30q27 -97 69 -141q52 -54 145 -54
q170 0 170 120q0 88 -159 119q-97 19 -112 23q-63 16 -103 46q-72 53 -72 129q0 97 89 146q71 39 176 39q87 0 150 -38q41 38 61 38q28 0 28 -32v-169q0 -33 -32 -33q-23 0 -31 29q-4 24 -7 48q-22 110 -169 110q-169 0 -169 -98q0 -53 72 -80q31 -12 117 -27
q131 -22 187 -70q71 -60 71 -144zM494 788v132q-116 -5 -198 -43q-113 -52 -113 -150q0 -50 43 -82q38 -30 90 -30q75 0 126.5 49t51.5 124z" />
  </g>

</svg>
