<?xml version="1.0" standalone="no"?>
<!DOCTYPE svg PUBLIC "-//W3C//DTD SVG 1.1//EN" "http://www.w3.org/Graphics/SVG/1.1/DTD/svg11.dtd" >
<svg viewBox="0 -442 2048 2048">
  <g transform="matrix(1 0 0 -1 0 1606)">
   <path fill="currentColor"
d="M1336 258q0 -11 -7 -22q-80 -121 -254 -200q-163 -73 -319 -73q-318 0 -510 198t-192 517q0 318 192.5 516.5t509.5 198.5q97 0 221 -47q119 -45 177 -45q41 0 54 46t39 46q32 0 32 -30v-397q0 -34 -32 -34q-22 0 -35 26q-13 35 -44 102q-55 100 -176 181
q-127 84 -236 84q-192 0 -286 -241q-69 -176 -69 -406q0 -620 379 -620q249 0 418 156q22 23 68 68q15 14 28 14q42 0 42 -38zM1210 1124v124q-25 -15 -62 -15q-15 0 -38 3q62 -56 100 -112zM542 61q-210 159 -210 617q0 412 180 607q-192 -69 -294 -237q-96 -158 -96 -370
q0 -224 103 -384q110 -171 317 -233z" />
  </g>

</svg>
