<?xml version="1.0" standalone="no"?>
<!DOCTYPE svg PUBLIC "-//W3C//DTD SVG 1.1//EN" "http://www.w3.org/Graphics/SVG/1.1/DTD/svg11.dtd" >
<svg viewBox="0 -442 2048 2048">
  <g transform="matrix(1 0 0 -1 0 1606)">
   <path fill="currentColor"
d="M1957 854q0 -26 -31 -26q-27 0 -33 32q-12 60 -47 178q-51 127 -147 205q-104 85 -234 85q-104 0 -207 -50q-298 -145 -298 -606q0 -476 322 -614q96 -41 185 -41q140 0 256 85t159 218q17 52 27 140q4 33 23 33q24 0 24 -35q0 -205 -154 -353t-360 -148q-288 0 -488 215
q-196 211 -196 501q0 289 196 501q201 216 488 216q193 0 363 -169l99 144q17 25 31 25q21 0 21 -33zM713 1078q0 -128 -90 -217.5t-218 -89.5t-217.5 89.5t-89.5 217.5q0 129 89 218.5t218 89.5t218.5 -89.5t89.5 -218.5zM628 1079q0 94 -64.5 158.5t-158.5 64.5
t-158.5 -64.5t-64.5 -158.5q0 -93 65 -158t158 -65t158 65t65 158z" />
  </g>

</svg>
