<?xml version="1.0" standalone="no"?>
<!DOCTYPE svg PUBLIC "-//W3C//DTD SVG 1.1//EN" "http://www.w3.org/Graphics/SVG/1.1/DTD/svg11.dtd" >
<svg viewBox="0 -442 2048 2048">
  <g transform="matrix(1 0 0 -1 0 1606)">
   <path fill="currentColor"
d="M1303 508l-55 -508h-1026v61q8 0 27 -1h26q124 0 142 35q7 14 7 46v107q-157 37 -257 171t-100 302q0 171 99.5 309.5t257.5 176.5q0 30 -7 44q-17 34 -195 33v62q71 -6 126 -6h383q47 0 120 6v-62q-11 0 -33 1t-33 1q-156 0 -177 -36q-8 -14 -10 -35q106 -16 176 -68
q83 -62 83 -157q0 -100 -97 -100q-42 0 -70.5 28t-28.5 70q0 94 100 99q-60 59 -163 74v-867q89 13 145 76q30 34 65 110q26 56 45 56q29 0 29 -22t-27 -75q-86 -168 -257 -197v-102q0 -52 20 -67q15 -12 66 -12h173q212 0 303 123q70 96 94 324h49zM424 323v814
q-180 -90 -180 -411q0 -307 178 -402z" />
  </g>

</svg>
