<?xml version="1.0" standalone="no"?>
<!DOCTYPE svg PUBLIC "-//W3C//DTD SVG 1.1//EN" "http://www.w3.org/Graphics/SVG/1.1/DTD/svg11.dtd" >
<svg viewBox="0 -442 2048 2048">
  <g transform="matrix(1 0 0 -1 0 1606)">
   <path fill="currentColor"
d="M1440 1455l-1155 -1746h-89l1155 1746h89zM670 758q0 -12 -8 -30q-75 -165 -268 -165q-142 0 -248 96t-106 237q0 144 106 244q105 97 250 97q91 0 164 -36q92 -45 92 -127q0 -76 -83 -76q-84 0 -84 75q0 56 60 72q-56 36 -147 36q-41 0 -85 -22q-121 -61 -121 -260
q0 -196 128 -258q45 -22 88 -22q83 0 132 43q26 22 56 78q23 43 43 43q31 0 31 -25zM1491 46q0 -143 -114 -239q-108 -92 -253 -92q-144 0 -251 92q-113 97 -113 239q0 145 112 245q108 98 254 98q145 0 253 -98q112 -101 112 -245zM1337 57q0 132 -41 192q-60 88 -172 88
q-117 0 -175 -91q-37 -58 -37 -189q0 -133 40 -195q59 -91 174 -91q120 0 177 100q34 60 34 186z" />
  </g>

</svg>
