<?xml version="1.0" standalone="no"?>
<!DOCTYPE svg PUBLIC "-//W3C//DTD SVG 1.1//EN" "http://www.w3.org/Graphics/SVG/1.1/DTD/svg11.dtd" >
<svg viewBox="0 -442 2048 2048">
  <g transform="matrix(1 0 0 -1 0 1606)">
   <path fill="currentColor"
d="M1440 1455l-1155 -1746h-89l1155 1746h89zM1696 -268l-251 -18v103q-71 -102 -197 -102q-142 0 -198 55.5t-56 195.5v250q0 67 -30 79q-12 5 -94 4v65l255 17v-483q0 -75 28 -103t103 -28q85 0 136 65q48 59 48 146v252q0 56 -39 67q-11 3 -86 2v65l256 17v-517
q0 -56 39 -67q11 -3 86 -2v-63zM670 758q0 -12 -8 -30q-75 -165 -268 -165q-142 0 -248 96t-106 237q0 144 106 244q105 97 250 97q91 0 164 -36q92 -45 92 -127q0 -76 -83 -76q-84 0 -84 75q0 56 60 72q-56 36 -147 36q-41 0 -85 -22q-121 -61 -121 -260q0 -196 128 -258
q45 -22 88 -22q83 0 132 43q26 22 56 78q23 43 43 43q31 0 31 -25z" />
  </g>

</svg>
