<?xml version="1.0" standalone="no"?>
<!DOCTYPE svg PUBLIC "-//W3C//DTD SVG 1.1//EN" "http://www.w3.org/Graphics/SVG/1.1/DTD/svg11.dtd" >
<svg viewBox="0 -442 2048 2048">
  <g transform="matrix(1 0 0 -1 0 1606)">
   <path fill="currentColor"
d="M1245 408q0 -241 -255 -355q-189 -84 -466 -84q-207 0 -337 64q-173 85 -173 270q0 208 155 340q131 111 353 155q-124 41 -175 81q-82 62 -82 166q0 177 174 269q139 73 334 73t322 -76q115 -69 115 -130q0 -29 -80 -89.5t-112 -60.5q-3 0 -7.5 1t-6.5 1q38 22 38 69
q0 98 -85 164q-79 61 -180 61q-116 0 -216 -69q-112 -77 -112 -188q0 -124 128 -196q106 -59 241 -59q67 0 115 24l8 -8q-28 -83 -97 -83q-360 0 -508 -164q-89 -98 -89 -203q0 -149 131 -251q121 -95 274 -95q186 0 318.5 129t132.5 315q0 83 -46 117q80 0 134 -54t54 -134
z" />
  </g>

</svg>
