<?xml version="1.0" standalone="no"?>
<!DOCTYPE svg PUBLIC "-//W3C//DTD SVG 1.1//EN" "http://www.w3.org/Graphics/SVG/1.1/DTD/svg11.dtd" >
<svg viewBox="0 -442 2048 2048">
  <g transform="matrix(1 0 0 -1 0 1606)">
   <path fill="currentColor"
d="M1080 1143q0 -150 -134 -304q-116 -131 -270 -208q176 -67 176 -218q0 -188 -216 -329q-194 -125 -393 -125q-213 0 -213 131q0 74 59 135t133 61q13 0 13 -18q0 -7 -15.5 -38.5t-15.5 -53.5q0 -101 181 -101q118 0 202 66q91 72 91 187q0 171 -235 211q-32 2 -65 4
q-49 5 -49 20q0 32 61 66q51 29 90 34q20 1 61 5q132 15 233 114q132 130 132 275q0 104 -98 162q-82 50 -193 50q-109 0 -191 -65q-60 -61 -119 -122q-66 -65 -135 -65q-13 0 -13 16q0 10 8 22q93 142 257 236q168 96 334 96q124 0 216 -59q108 -68 108 -185z" />
  </g>

</svg>
