<?xml version="1.0" standalone="no"?>
<!DOCTYPE svg PUBLIC "-//W3C//DTD SVG 1.1//EN" "http://www.w3.org/Graphics/SVG/1.1/DTD/svg11.dtd" >
<svg viewBox="-46 -442 2048 2048">
  <g transform="matrix(1 0 0 -1 0 1606)">
   <path fill="currentColor"
d="M1039 312q-194 -261 -427 -325q-76 -160 -207 -283q-155 -146 -306 -146q-55 0 -96 24q-49 28 -49 79q0 92 174 187q55 30 258 112l74 166q-125 -145 -247 -145q-80 0 -130 63q-46 58 -46 140q0 76 38 178l-48 -59l-27 17q51 71 125 152q219 238 421 238q87 0 124 -54
q27 -39 24 -77l59 107l247 20q-231 -391 -370 -682q207 74 381 305zM659 575q0 97 -79 97q-94 0 -243 -267q-141 -252 -141 -361q0 -29 31 -29q79 0 172 89q72 69 125 159q135 231 135 312zM369 -80q-350 -162 -350 -276q0 -25 21.5 -41t46.5 -16q131 0 282 333z" />
  </g>

</svg>
