<?xml version="1.0" standalone="no"?>
<!DOCTYPE svg PUBLIC "-//W3C//DTD SVG 1.1//EN" "http://www.w3.org/Graphics/SVG/1.1/DTD/svg11.dtd" >
<svg viewBox="-68 -442 2176 2048">
  <g transform="matrix(1 0 0 -1 0 1606)">
   <path fill="currentColor"
d="M2176 1284q0 -138 -187 -283q-130 -101 -312 -182q-49 -21 -165 -68q-257 -585 -257 -708q0 -31 40 -31q87 0 222 122q105 96 178 200l28 -17q-91 -123 -191 -211q-141 -124 -243 -124q-94 0 -143 87q-39 70 -39 171q0 107 39 220q23 66 91 204q-108 -31 -209 -65
q-141 -429 -480 -566q-129 -52 -269 -52q-138 0 -235 64q-112 74 -112 205q0 76 48.5 134.5t123.5 58.5q50 0 89 -29q44 -31 44 -79q0 -55 -45 -91q-13 -10 -108 -33q-70 -18 -70 -66q0 -62 98 -101q77 -31 151 -31q206 0 337 229q63 110 143 274q-185 -73 -358 -215l-19 23
q174 149 394 229q169 348 361 576q-169 -132 -210 -161q-160 -111 -231 -111q-40 0 -66 27t-26 67q0 62 64 149t64 92q0 18 -23 18q-127 0 -416 -354l-25 15q287 369 453 369q45 0 78 -32.5t33 -77.5q0 -69 -60.5 -146t-60.5 -83q0 -9 13 -9q29 0 104 47q32 20 131 95
q130 102 394 299l17 -21q-112 -110 -192 -316q-60 -177 -121 -353l-3 -8l221 71q124 205 212 314q334 414 562 414q64 0 103.5 -42.5t39.5 -107.5zM2110 1344q0 26 -23.5 43t-50.5 17q-152 0 -291 -210q-88 -132 -214 -405q209 87 323 174q144 111 227 285q29 60 29 96z" />
  </g>

</svg>
