<?xml version="1.0" standalone="no"?>
<!DOCTYPE svg PUBLIC "-//W3C//DTD SVG 1.1//EN" "http://www.w3.org/Graphics/SVG/1.1/DTD/svg11.dtd" >
<svg viewBox="0 -442 2048 2048">
  <g transform="matrix(1 0 0 -1 0 1606)">
   <path fill="currentColor"
d="M1278 397q0 -194 -114 -341q-62 -80 -226 -206q-139 -107 -166 -174q-144 162 -276 162q-88 0 -156 -82l-23 19q175 192 304 192q105 0 245 -127q242 164 242 459q0 169 -100 323q-112 173 -269 173q-81 0 -225 -97q143 -169 143 -290t-129 -238q-111 -91 -221 -182
l-151 121l-74 -58l-25 27l222 176l153 -119q90 67 90 148q0 91 -78 198q-72 92 -145 185q-78 116 -78 231q0 151 138 285q125 109 249 217q112 -119 238 -119q117 0 172 96l31 -10q-135 -211 -291 -211q-89 0 -244 111q-152 -106 -152 -254q0 -161 125 -279q221 118 336 219
q203 -63 324 -201q131 -150 131 -354z" />
  </g>

</svg>
