<?xml version="1.0" standalone="no"?>
<!DOCTYPE svg PUBLIC "-//W3C//DTD SVG 1.1//EN" "http://www.w3.org/Graphics/SVG/1.1/DTD/svg11.dtd" >
<svg viewBox="0 -442 2048 2048">
  <g transform="matrix(1 0 0 -1 0 1606)">
   <path fill="currentColor"
d="M1511 39q0 -39 -35 -39h-599q-33 0 -33 39q0 36 55 36q78 0 97 19t19 92v446h-467v-457q0 -69 30 -87q20 -12 94 -12q48 0 48 -37q0 -39 -35 -39h-599q-33 0 -33 39q0 36 57 36q78 0 96.5 19t18.5 92v982q0 69 -31 87q-20 11 -92 11q-49 0 -49 40q0 37 33 37h599
q35 0 35 -37q0 -38 -57 -38q-78 0 -96.5 -19t-18.5 -92v-429h467v440q0 69 -31 88q-20 11 -92 11q-48 0 -48 39q0 37 33 37h599q35 0 35 -37q0 -38 -57 -38q-78 0 -97 -19t-19 -92v-982q0 -69 30 -87q20 -12 95 -12q48 0 48 -37zM1281 75q-18 38 -18 100v982q0 72 17 111
h-208q18 -38 18 -100v-982q0 -72 -17 -111h208zM491 75q-18 38 -18 100v982q0 72 17 111h-208q18 -38 18 -100v-982q0 -71 -17 -111h208z" />
  </g>

</svg>
