<?xml version="1.0" standalone="no"?>
<!DOCTYPE svg PUBLIC "-//W3C//DTD SVG 1.1//EN" "http://www.w3.org/Graphics/SVG/1.1/DTD/svg11.dtd" >
<svg viewBox="0 -442 2048 2048">
  <g transform="matrix(1 0 0 -1 0 1606)">
   <path fill="currentColor"
d="M1188 309q0 -19 -26 -87q-94 -246 -253 -246q-76 0 -124.5 49.5t-48.5 125.5q0 37 30 120q133 368 133 492q0 152 -117 152q-137 0 -242 -111q-94 -98 -130 -240l-118 -473q-15 -61 -26 -78q-21 -37 -67 -37q-57 0 -57 57q0 22 7 50l253 1009l-162 -59q-19 -7 -28 -7
q-29 0 -29 35q0 19 36 32l202 74l45 178q5 20 5 36q0 37 -78 40.5t-78 24.5q0 24 21 39q6 4 131 15q122 11 147 11q27 0 27 -22q0 3 -9 -33l-58 -234l376 137q19 7 28 7q29 0 29 -35q0 -19 -36 -32l-415 -151l-90 -361q135 172 322 172q111 0 175 -58q67 -61 67 -171
q0 -112 -137 -489q-36 -99 -36 -150q0 -72 58 -72q86 0 145 95q31 49 72 171q15 44 33 44q23 0 23 -20z" />
  </g>

</svg>
