<?xml version="1.0" standalone="no"?>
<!DOCTYPE svg PUBLIC "-//W3C//DTD SVG 1.1//EN" "http://www.w3.org/Graphics/SVG/1.1/DTD/svg11.dtd" >
<svg viewBox="-54 -442 2048 2048">
  <g transform="matrix(1 0 0 -1 0 1606)">
   <path fill="currentColor"
d="M1553 1404q-139 0 -225 -113q-70 -92 -136 -286q-25 -76 -90 -310q-25 -91 -75 -215q115 48 186 130q80 94 80 209q0 37 -12 106l31 3q13 -71 13 -108q0 -133 -96 -239q-86 -95 -221 -142q-154 -311 -459 -418q-128 -45 -258 -45q-136 0 -233 65q-112 74 -112 204
q0 80 51.5 137t130.5 57q51 0 87.5 -32.5t36.5 -82.5q0 -65 -57 -92q-53 -16 -107 -31q-57 -19 -57 -64q0 -59 91 -97q73 -30 143 -30q164 0 277 135q46 53 165 275q-134 35 -216 120q-91 94 -91 225q0 211 226 381q166 125 418.5 205.5t507.5 83.5zM1407 1397
q-130 -17 -239 -45q-202 -52 -372 -209q-165 -152 -246 -351q-34 -84 -34 -156q0 -152 205 -189q87 181 173 361q104 204 208 332q133 162 305 257z" />
  </g>

</svg>
