<?xml version="1.0" standalone="no"?>
<!DOCTYPE svg PUBLIC "-//W3C//DTD SVG 1.1//EN" "http://www.w3.org/Graphics/SVG/1.1/DTD/svg11.dtd" >
<svg viewBox="0 -442 2048 2048">
  <g transform="matrix(1 0 0 -1 0 1606)">
   <path fill="currentColor"
d="M1147 1339q-18 -110 -94 -186q-80 -80 -189 -80q-113 0 -262.5 108.5t-253.5 108.5q-84 0 -142.5 -55.5t-58.5 -138.5q0 -72 51.5 -120t123.5 -48q32 0 57 8l8 -33q-34 -12 -70 -12q-93 0 -154 64t-61 157q0 126 107 212q99 79 229 79q107 0 213 -58q19 -11 161 -107
q84 -58 138 -58q67 0 115 55q41 48 55 119zM1155 948l-20 -28q-68 63 -119 63q-34 0 -61 -22.5t-27 -55.5q0 -51 109.5 -219.5t109.5 -282.5q0 -186 -173 -305q-153 -106 -347 -106q-132 0 -227 71q-38 28 -127 132q-61 71 -111 71q-63 0 -101 -80l-38 2q31 74 97 123
t142 49q98 0 185 -80q70 -74 140 -149q85 -80 177 -80q86 0 161 64q79 67 79 151q0 104 -105.5 275t-105.5 274q0 84 58 147.5t140 63.5q86 0 164 -78z" />
  </g>

</svg>
