<?xml version="1.0" standalone="no"?>
<!DOCTYPE svg PUBLIC "-//W3C//DTD SVG 1.1//EN" "http://www.w3.org/Graphics/SVG/1.1/DTD/svg11.dtd" >
<svg viewBox="0 -442 2048 2048">
  <g transform="matrix(1 0 0 -1 0 1606)">
   <path fill="currentColor"
d="M1744 1260q0 -162 -226 -385q-193 -190 -377 -278l-44 -21q-59 -165 -125 -262q-75 -110 -205 -205q173 -82 277 -82q202 0 428 307l26 -17q-250 -325 -480 -325q-106 0 -297 89q-164 -100 -360 -100q-91 0 -169 29q-106 39 -106 114q0 68 70 103q56 28 131 28
q129 0 342 -86q74 141 171 364q-34 -3 -57 -3q-162 0 -282.5 113.5t-120.5 274.5q0 217 240 373q215 139 444 139q80 0 173 -23l-9 -29q-86 20 -160 20q-238 0 -401 -165q-169 -171 -169 -397q0 -134 77 -204.5t212 -70.5q27 0 66 5q287 667 584 826q90 48 161 48
q77 0 131.5 -51.5t54.5 -128.5zM1658 1317q0 93 -103 93q-126 0 -227 -161q-73 -118 -139 -337q-40 -148 -81 -296q360 171 513 558q37 94 37 143zM609 138q-199 87 -322 87q-55 0 -106 -23q-64 -29 -64 -77q0 -60 92 -92q66 -22 142 -22q119 0 188 48q23 16 70 79z" />
  </g>

</svg>
