<?xml version="1.0" standalone="no"?>
<!DOCTYPE svg PUBLIC "-//W3C//DTD SVG 1.1//EN" "http://www.w3.org/Graphics/SVG/1.1/DTD/svg11.dtd" >
<svg viewBox="0 -442 2048 2048">
  <g transform="matrix(1 0 0 -1 0 1606)">
   <path fill="currentColor"
d="M945 1347q0 -312 -361 -725q-56 -64 -147 -152q-20 -19 -58 -58q-7 -8 -7 -58q0 -102 39 -190q51 -113 140 -113q107 0 297 188h7q20 0 20 -23q0 -43 -128 -135q-112 -81 -200 -81q-245 0 -306 255q-107 -112 -128 -112q-28 0 -28 22q0 17 144 157q-12 81 -12 154
q0 344 207 735q63 119 156 209q117 112 225 112q140 0 140 -185zM892 1365q0 116 -78 116q-90 0 -213 -249q-84 -168 -137 -338q-75 -240 -79 -401q507 539 507 872z" />
  </g>

</svg>
