<?xml version="1.0" standalone="no"?>
<!DOCTYPE svg PUBLIC "-//W3C//DTD SVG 1.1//EN" "http://www.w3.org/Graphics/SVG/1.1/DTD/svg11.dtd" >
<svg viewBox="0 -442 2048 2048">
  <g transform="matrix(1 0 0 -1 0 1606)">
   <path fill="currentColor"
d="M1617 461q0 -199 -139 -342t-337 -143q-179 0 -281 157q-24 -46 -77 -133h-53v1081h-371v-919q0 -50 12 -67q15 -21 65 -27q22 -3 91 -2v-66q-220 6 -238 6q-37 0 -236 -6v66q10 0 33 -1t35 -1q98 0 98 98v919h-112q-68 0 -68 41t68 41h112v114q0 87 -44 108
q-23 11 -122 10v67l306 23v-322h371v114q0 88 -47 109q-25 12 -120 9v67l307 23v-322h377q68 0 68 -41t-68 -41h-377v-274q121 139 295 139q191 0 324 -148q128 -143 128 -337zM1439 464q0 199 -60 297q-85 138 -225 138q-91 0 -179 -61q-98 -67 -98 -153v-442q0 -45 30 -89
q89 -130 225 -130q154 0 243 138q64 99 64 302z" />
  </g>

</svg>
