<?xml version="1.0" standalone="no"?>
<!DOCTYPE svg PUBLIC "-//W3C//DTD SVG 1.1//EN" "http://www.w3.org/Graphics/SVG/1.1/DTD/svg11.dtd" >
<svg viewBox="0 -442 2048 2048">
  <g transform="matrix(1 0 0 -1 0 1606)">
   <path fill="currentColor"
d="M1380 1306q0 -30 -29 -37q-27 -2 -53 -4q-50 -9 -63 -51q-7 -22 -7 -87v-1130q0 -34 -36 -34q-19 0 -30 14l-851 1125v-884q0 -89 28.5 -116t118.5 -27q36 0 36 -36q0 -39 -36 -39h-370q-35 0 -35 39q0 34 44 36q66 3 83 13q44 24 44 112v1009q-53 59 -113 59
q-33 0 -33 38q0 37 33 37h407q14 0 26 -16l596 -802v596q0 92 -27 119.5t-119 27.5q-36 0 -36 38q0 37 36 37h353q33 0 33 -37zM1140 129v269l-646 870h-214z" />
  </g>

</svg>
