<?xml version="1.0" standalone="no"?>
<!DOCTYPE svg PUBLIC "-//W3C//DTD SVG 1.1//EN" "http://www.w3.org/Graphics/SVG/1.1/DTD/svg11.dtd" >
<svg viewBox="0 -442 2048 2048">
  <g transform="matrix(1 0 0 -1 0 1606)">
   <path fill="currentColor"
d="M1884 623q0 -128 -76 -216q-80 -92 -206 -92q-135 0 -225.5 98t-90.5 234q0 126 78 211.5t203 85.5q139 0 228 -91t89 -230zM1884 0h-598v112h598v-112zM1435 1245q0 -43 -31 -72t-74 -29q-44 0 -87 27q-50 31 -71 31q-53 0 -66 -90q-3 -23 -3 -128v-1015h-45l-619 1107
v-652q0 -167 -10 -228q-24 -141 -109 -189q-65 -38 -142 -38q-65 0 -109 28q-53 34 -53 95q0 43 30.5 69.5t74.5 26.5q40 0 90 -27q56 -30 77 -30q51 0 62 121q1 15 1 154v697q0 91 -5 114q-13 62 -65 84q-43 17 -125 18v37h355l504 -913v435q0 191 5 233q17 141 91 204
q65 55 162 55q63 0 109 -30q53 -35 53 -95zM1738 526q0 111 -39 223q-51 148 -139 148q-119 0 -119 -176q0 -109 41 -218q54 -142 145 -142q111 0 111 165z" />
  </g>

</svg>
