<?xml version="1.0" standalone="no"?>
<!DOCTYPE svg PUBLIC "-//W3C//DTD SVG 1.1//EN" "http://www.w3.org/Graphics/SVG/1.1/DTD/svg11.dtd" >
<svg viewBox="0 -442 2048 2048">
  <g transform="matrix(1 0 0 -1 0 1606)">
   <path fill="currentColor"
d="M1915 547q0 -384 -271.5 -655.5t-655.5 -271.5q-383 0 -655.5 272t-272.5 655q0 384 272 655.5t656 271.5t655.5 -271.5t271.5 -655.5zM1833 547q0 351 -247 598t-598 247q-350 0 -597 -247.5t-247 -597.5q0 -349 247.5 -597.5t596.5 -248.5q350 0 597.5 248t247.5 598z
M1605 806q0 -149 -139 -248q-125 -89 -280 -89h-287v-410q0 -39 19 -51q12 -8 56 -11q25 -2 110 0v-86q-84 7 -135 7h-293q-42 0 -125 -7v86q56 -1 71 -1q93 0 106 25q5 10 5 29v954q0 25 -5 38q-12 30 -177 23v86h640q162 0 291 -89q143 -101 143 -256zM1391 806
q0 138 -63.5 198.5t-202.5 60.5h-168q-42 0 -52 -8.5t-10 -47.5v-464h230q266 0 266 261z" />
  </g>

</svg>
