<?xml version="1.0" standalone="no"?>
<!DOCTYPE svg PUBLIC "-//W3C//DTD SVG 1.1//EN" "http://www.w3.org/Graphics/SVG/1.1/DTD/svg11.dtd" >
<svg viewBox="0 -442 2048 2048">
  <g transform="matrix(1 0 0 -1 0 1606)">
   <path fill="currentColor"
d="M1428 1015q0 -156 -86 -301q-80 -135 -215 -232q-141 -101 -256 -101q-92 0 -155 51q-66 55 -66 146q0 69 33 120q38 59 104 59q74 0 74 -73q0 -30 -27 -58q-17 -17 -78 -35q-43 -12 -43 -56q0 -46 52 -80q46 -30 94 -30q56 0 128 46q116 74 195 262q73 171 73 323
q0 72 -37 126q-42 60 -111 60q-63 0 -126 -30q-124 -59 -303 -222q-155 -141 -264 -276q145 -297 145 -435q0 -84 -32 -160q-36 -87 -100 -126q-59 -36 -114 -36q-48 0 -106 30q-117 61 -117 217q0 97 54 204q29 58 114 181q-61 150 -61 244q0 185 158 366q122 141 318 258
l26 -43q-341 -202 -341 -494q0 -83 32 -157q346 367 499 454.5t277 87.5q119 0 193 -87q69 -82 69 -203zM431 151q0 132 -150 387q-84 -130 -99 -158q-46 -90 -46 -178q0 -77 44 -135q48 -63 123 -63q60 0 95 44q33 41 33 103z" />
  </g>

</svg>
