<?xml version="1.0" standalone="no"?>
<!DOCTYPE svg PUBLIC "-//W3C//DTD SVG 1.1//EN" "http://www.w3.org/Graphics/SVG/1.1/DTD/svg11.dtd" >
<svg viewBox="0 -442 2048 2048">
  <g transform="matrix(1 0 0 -1 0 1606)">
   <path fill="currentColor"
d="M1195 970q0 -187 -171 -288q-142 -83 -343 -83q-14 0 -43 1t-43 1t-57 -1v-418q0 -78 33 -96q20 -11 107 -11q34 0 34 -36q0 -39 -34 -39h-591q-34 0 -34 39q0 36 40 36q84 0 102.5 16.5t18.5 94.5v975q0 71 -18 89t-94 18q-49 0 -49 38q0 37 34 37h596q214 0 347 -78
q165 -96 165 -295zM1120 970q0 219 -250 278q59 -79 59 -278q0 -186 -63 -273q254 69 254 273zM854 970q0 151 -30 210q-44 88 -180 88q-39 0 -69 -18q-37 -21 -37 -57v-518h105q130 0 178 91q33 64 33 204zM486 1268h-213q16 -38 16 -107v-975q0 -72 -15 -111h208
q-19 39 -19 107v1011q0 42 23 75z" />
  </g>

</svg>
