<?xml version="1.0" standalone="no"?>
<!DOCTYPE svg PUBLIC "-//W3C//DTD SVG 1.1//EN" "http://www.w3.org/Graphics/SVG/1.1/DTD/svg11.dtd" >
<svg viewBox="0 -442 2048 2048">
  <g transform="matrix(1 0 0 -1 0 1606)">
   <path fill="currentColor"
d="M1450 671q0 -260 -133 -443q-138 -190 -387 -245q46 -94 136 -150t195 -56q22 0 63.5 8.5t63.5 8.5q37 0 37 -38q0 -46 -162 -80q-126 -27 -206 -27q-168 0 -311.5 94t-210.5 248q-233 64 -361 253q-121 179 -121 427q0 315 192 511.5t507 196.5t506.5 -196.5
t191.5 -511.5zM1375 671q0 205 -91 356.5t-254 222.5q145 -178 145 -580q0 -395 -142 -575q165 72 255 225q87 150 87 351zM1100 670q0 635 -348 635q-350 0 -350 -634t350 -634q348 0 348 633zM471 1249q-162 -72 -252.5 -223t-90.5 -355q0 -417 340 -574
q-141 182 -141 574q0 397 144 578zM1107 -272q-148 54 -254 246q-47 -12 -101 -12q-68 0 -126 20q151 -258 431 -258q15 0 50 4z" />
  </g>

</svg>
