<?xml version="1.0" standalone="no"?>
<!DOCTYPE svg PUBLIC "-//W3C//DTD SVG 1.1//EN" "http://www.w3.org/Graphics/SVG/1.1/DTD/svg11.dtd" >
<svg viewBox="0 -442 2048 2048">
  <g transform="matrix(1 0 0 -1 0 1606)">
   <path fill="currentColor"
d="M1943 1085q0 -103 -94 -200q-117 -122 -372 -183q104 -98 104 -235q0 -66 -35.5 -199.5t-35.5 -196.5q0 -35 23 -35q83 0 302 298l27 -17q-240 -341 -412 -341q-79 0 -130.5 51t-51.5 130q0 90 78 241t78 223q0 34 -20 69q-43 -6 -73 -6q-61 0 -61 31q0 42 63 42
q45 0 113 -32q120 15 211 159q82 132 82 261q0 126 -121 197q-111 -49 -176 -136q-100 -133 -186 -422q-26 -95 -89 -278q-60 -141 -158 -257q-226 -268 -581 -268q-144 0 -241 61q-115 72 -115 209q0 78 52.5 133.5t129.5 55.5q50 0 88.5 -34t38.5 -83q0 -64 -57 -90
q-53 -15 -107 -31q-57 -18 -57 -64q0 -61 95 -98q74 -29 147 -29q159 0 275 128q79 87 218 381q51 108 160 318q209 365 528 522q-111 39 -261 39q-248 0 -497 -96q-268 -104 -416 -279q-103 -122 -103 -252q0 -68 39 -112q41 -47 109 -47q81 0 176 70q252 185 273 517h30
q14 -95 14 -172q0 -196 -116 -326q-120 -135 -314 -135q-102 0 -170 51q-74 56 -74 155q0 135 110 268q147 178 424 287q256 101 507 101q156 0 326 -44q89 31 154 48l7 -28q-62 -17 -116 -35q258 -99 258 -285z" />
  </g>

</svg>
