<?xml version="1.0" standalone="no"?>
<!DOCTYPE svg PUBLIC "-//W3C//DTD SVG 1.1//EN" "http://www.w3.org/Graphics/SVG/1.1/DTD/svg11.dtd" >
<svg viewBox="0 -442 2048 2048">
  <g transform="matrix(1 0 0 -1 0 1606)">
   <path fill="currentColor"
d="M1366 166l-219 -174q-159 89 -159 384v68q1 45 1 66q0 69 -29 131q-36 78 -98 78q-14 0 -127 -47q0 -167 -20 -256q-30 -133 -119 -223q-43 -44 -132 -103q-100 -66 -136 -98l-125 141l-68 -51l-22 29l217 168l123 -146q57 31 75 79q13 34 13 112v585q0 432 -217 432
q-75 0 -134 -50q-61 -53 -61 -126q0 -74 64 -134l120 -102q64 -68 64 -161q0 -85 -45 -156q-49 -76 -127 -98l-6 33q96 39 96 110q0 54 -68 109q-120 96 -126 103q-68 72 -68 169q0 140 100.5 246.5t239.5 106.5q112 0 204 -53q104 -60 125 -160q179 87 357 217l160 -124
q73 -74 73 -186q0 -170 -256 -286q102 -70 128 -244q8 -140 17 -280q11 -134 79 -134q28 0 83 56zM1122 1020q0 82 -61 144.5t-143 62.5q-57 0 -205 -88q22 -102 22 -426q187 69 245 104q142 85 142 203z" />
  </g>

</svg>
