<?xml version="1.0" standalone="no"?>
<!DOCTYPE svg PUBLIC "-//W3C//DTD SVG 1.1//EN" "http://www.w3.org/Graphics/SVG/1.1/DTD/svg11.dtd" >
<svg viewBox="0 -442 2048 2048">
  <g transform="matrix(1 0 0 -1 0 1606)">
   <path fill="currentColor"
d="M1399 39q0 -39 -33 -39h-339q-16 0 -25 14l-387 598h-65v-430q0 -71 26 -91q20 -16 89 -16q59 0 59 -36q0 -39 -34 -39h-603q-34 0 -34 39q0 36 58 36q77 0 96.5 19t19.5 92v975q0 71 -26 91q-21 16 -90 16q-58 0 -58 38q0 37 34 37h645q201 0 346 -81q177 -99 177 -285
q0 -281 -342 -343q356 -559 453 -559q33 0 33 -36zM1180 977q0 201 -263 269q72 -88 72 -269t-64 -264q255 58 255 264zM914 977q0 151 -51 216q-58 75 -204 75q-109 0 -109 -75v-507h46q186 0 248 51q70 58 70 240zM1231 75q-147 136 -411 564q-48 -17 -118 -24l350 -540
h179zM497 1268h-214q19 -40 19 -107v-975q0 -71 -18 -111h210q-19 40 -19 107v1011q0 42 22 75z" />
  </g>

</svg>
