<?xml version="1.0" standalone="no"?>
<!DOCTYPE svg PUBLIC "-//W3C//DTD SVG 1.1//EN" "http://www.w3.org/Graphics/SVG/1.1/DTD/svg11.dtd" >
<svg viewBox="0 -442 2048 2048">
  <g transform="matrix(1 0 0 -1 0 1606)">
   <path fill="currentColor"
d="M1544 -6q-81 5 -175 5q-44 0 -195 -5v66q63 2 63 38q0 10 -165 225q-151 -173 -151 -214q0 -45 51 -49v-66q-121 5 -170.5 5t-144 3.5t-141.5 3.5h-326q-50 0 -122 -6v61q73 -1 55 -1q122 0 140 38q7 15 7 48v1051q0 32 -7 48q-18 41 -195 36v62h695q174 0 311 -94
q154 -106 154 -272q0 -112 -78 -201q-71 -79 -185 -122q10 -27 144 -195l105 131q26 32 26 58q0 45 -52 47v68q95 -7 173 -7q60 0 151 7v-68q-127 -2 -210 -87q-25 -26 -159 -196l233 -299q30 -39 77 -48q24 -5 91 -5v-66zM1024 977q0 161 -75.5 232.5t-237.5 71.5h-186
q-53 0 -67 -12q-19 -14 -19 -67v-532h272q313 0 313 307zM1036 369l-196 254q-31 -4 -61 -4h-335v-467q0 -32 7 -48q20 -44 198 -44q133 0 226 103q5 6 161 206z" />
  </g>

</svg>
