<?xml version="1.0" standalone="no"?>
<!DOCTYPE svg PUBLIC "-//W3C//DTD SVG 1.1//EN" "http://www.w3.org/Graphics/SVG/1.1/DTD/svg11.dtd" >
<svg viewBox="0 -442 2048 2048">
  <g transform="matrix(1 0 0 -1 0 1606)">
   <path fill="currentColor"
d="M1440 173q0 -86 -49 -148q-53 -68 -137 -68q-160 0 -248 81q-82 75 -82 237q0 13 1 40v40q0 158 -76 230q-64 61 -165 67l-245 -526q2 -18 7 -31q15 -37 197 -34v-61q-74 6 -143 6h-117l-98 -211q-23 -49 -48 -49q-8 0 -18 4q-23 11 -23 33q0 15 15 46l82 177h-82
q-69 0 -143 -6v61q6 0 26 -1h27q125 0 142 35q7 15 7 46v1055q0 27 -6 45q-15 44 -196 40v62h618q106 0 215 -34l28 60l-320 148q-48 22 -48 47q0 42 37 42q16 0 46 -14l333 -155q47 -22 47 -44q0 -14 -15 -46l-31 -67q221 -101 221 -288q0 -122 -115 -213
q-94 -75 -229 -108q165 -57 224 -182q25 -52 40 -161l24 -170q31 -158 118 -158q101 0 131 175q5 31 24 31q24 0 24 -33zM997 992q0 130 -61 199l-230 -493q291 19 291 294zM869 1241q-85 42 -329 42q-51 0 -69 -7q-32 -14 -32 -57v-523h176zM594 652h-155v-333z" />
  </g>

</svg>
