<?xml version="1.0" standalone="no"?>
<!DOCTYPE svg PUBLIC "-//W3C//DTD SVG 1.1//EN" "http://www.w3.org/Graphics/SVG/1.1/DTD/svg11.dtd" >
<svg viewBox="0 -442 2122 2048">
  <g transform="matrix(1 0 0 -1 0 1606)">
   <path fill="currentColor"
d="M2122 578q-72 5 -99 5h-266q-23 0 -95 -5v67q116 0 133 6q23 8 23 35v706l-349 -781q-14 -32 -39 -32t-41 36l-344 767v-656q0 -82 156 -81v-66q-160 4 -189 4q-28 0 -190 -4v66q156 -1 156 81v670q0 12 -4 21q-8 19 -152 18v67h275q43 0 59 -36l317 -710l319 714
q14 32 49 32h281v-67q-12 0 -38 1t-40 1q-78 0 -78 -45v-707q0 -13 5 -23q9 -18 151 -17v-67zM748 837q0 -124 -92.5 -205.5t-218.5 -81.5q-175 0 -276 86q-64 -86 -81 -86q-28 0 -28 32v288q0 32 31 32q36 0 36 -60q0 -90 85 -158t232 -68q78 0 134 50t56 126q0 63 -45 113
q-42 47 -150 71l-172 36q-90 29 -146 93q-61 70 -61 160q0 118 96 196q90 72 211 72q133 0 240 -87q62 87 78 87q31 0 31 -34v-287q0 -31 -34 -31q-22 0 -28.5 25.5t-20.5 79.5q-58 185 -265 185q-74 0 -128 -42q-58 -46 -58 -118q0 -104 126 -148l212 -48q105 -27 168 -98
q68 -76 68 -180z" />
  </g>

</svg>
