<?xml version="1.0" standalone="no"?>
<!DOCTYPE svg PUBLIC "-//W3C//DTD SVG 1.1//EN" "http://www.w3.org/Graphics/SVG/1.1/DTD/svg11.dtd" >
<svg viewBox="0 -442 2980 2048">
  <g transform="matrix(1 0 0 -1 0 1606)">
   <path fill="currentColor"
d="M2980 365l-45 -365h-813v66q8 0 30 -1h29q84 0 93 18q4 8 4 20v721q0 11 -4 19q-8 16 -152 15v68q68 -5 100 -5h314q25 0 95 5v-68q-14 0 -44 1t-46 1q-87 0 -99 -19q-5 -8 -5 -25v-710q0 -30 12 -36q7 -4 41 -4h133q155 0 220 75q55 64 74 224h63zM2088 365l-70 -365
h-896v66q53 -1 54 -1q88 0 98 19q4 7 4 26v704q0 16 -5 26q-10 21 -151 16v67h876l47 -321h-64q-19 153 -75.5 203.5t-211.5 50.5h-202q-36 0 -43 -3q-12 -7 -12 -37v-304h124q97 0 124 28.5t27 124.5h65v-374h-65q0 96 -27.5 125t-123.5 29h-124v-339q0 -30 12 -37
q7 -3 43 -3h210q172 0 237 67q53 56 85 232h64zM1061 602h-63q-17 182 -72 222q-44 33 -238 33q-53 0 -53 -31v-716q0 -14 6 -25q11 -22 215 -19v-67q-80 5 -123 5h-354q-44 0 -124 -5v67q10 0 38 -1h38q129 0 140 20q4 8 4 25v717q0 30 -60 30q-188 0 -233 -36
q-52 -41 -69 -219h-62l30 321h950z" />
  </g>

</svg>
