<?xml version="1.0" standalone="no"?>
<!DOCTYPE svg PUBLIC "-//W3C//DTD SVG 1.1//EN" "http://www.w3.org/Graphics/SVG/1.1/DTD/svg11.dtd" >
<svg viewBox="0 -442 2392 2048">
  <g transform="matrix(1 0 0 -1 0 1606)">
   <path fill="currentColor"
d="M2392 578q-72 5 -99 5h-266q-23 0 -95 -5v67q116 0 133 6q23 8 23 35v706l-349 -781q-14 -32 -39 -32t-41 36l-344 767v-656q0 -82 156 -81v-66q-160 4 -189 4q-28 0 -190 -4v66q156 -1 156 81v670q0 12 -4 21q-8 19 -152 18v67h275q43 0 59 -36l317 -710l319 714
q14 32 49 32h281v-67q-12 0 -38 1t-40 1q-78 0 -78 -45v-707q0 -13 5 -23q9 -18 151 -17v-67zM1061 1181h-63q-17 182 -72 222q-44 33 -238 33q-53 0 -53 -31v-716q0 -14 6 -25q11 -22 215 -19v-67q-80 5 -123 5h-354q-44 0 -124 -5v67q10 0 38 -1h38q129 0 140 20q4 8 4 25
v717q0 30 -60 30q-188 0 -233 -36q-52 -41 -69 -219h-62l30 321h950z" />
  </g>

</svg>
