<?xml version="1.0" standalone="no"?>
<!DOCTYPE svg PUBLIC "-//W3C//DTD SVG 1.1//EN" "http://www.w3.org/Graphics/SVG/1.1/DTD/svg11.dtd" >
<svg viewBox="0 -442 2048 2048">
  <g transform="matrix(1 0 0 -1 0 1606)">
   <path fill="currentColor"
d="M1468 1284q-164 -1 -214 -132l-440 -1158q-14 -37 -48 -37q-31 0 -47 43l-165 436l-299 -641q-23 -49 -48 -49q-41 0 -41 37q0 14 15 46l333 714l-252 666q-22 57 -81 71q-28 7 -113 4v62q213 -6 344 -6q115 0 188 6v-62h-18q-144 0 -144 -56q0 -31 172 -477l289 618
l-320 148q-48 22 -48 47q0 42 37 42q16 0 46 -14l333 -155q47 -22 47 -44q0 -14 -15 -46l-328 -702l175 -448l361 950q9 24 9 40q0 94 -143 97v62q153 -6 223 -6q99 0 192 6v-62z" />
  </g>

</svg>
