<?xml version="1.0" standalone="no"?>
<!DOCTYPE svg PUBLIC "-//W3C//DTD SVG 1.1//EN" "http://www.w3.org/Graphics/SVG/1.1/DTD/svg11.dtd" >
<svg viewBox="0 -442 2048 2048">
  <g transform="matrix(1 0 0 -1 0 1606)">
   <path fill="currentColor"
d="M868 9q0 -196 -132 -319.5t-330 -123.5q-121 0 -215 54q-113 64 -113 176q0 100 97 100q42 0 70.5 -28t28.5 -70q0 -94 -100 -99q79 -78 229 -78q59 0 120 34q168 94 168 344q0 112 -42 204q-47 105 -136 153q-63 34 -123 34q-113 0 -181 -64q-40 -37 -78 -118
q-30 -64 -49 -64q-29 0 -29 22q0 23 27 75q38 72 122 143l436 370h-504q-43 0 -43 29q0 17 20 36l517 476h-193q-147 0 -209 -50q-66 -52 -75 -189h-54l19 287h665q43 0 43 -28q0 -16 -20 -34l-520 -479h507q43 0 43 -28q0 -17 -20 -34l-348 -299q177 -17 289.5 -136.5
t112.5 -295.5z" />
  </g>

</svg>
