<?xml version="1.0" standalone="no"?>
<!DOCTYPE svg PUBLIC "-//W3C//DTD SVG 1.1//EN" "http://www.w3.org/Graphics/SVG/1.1/DTD/svg11.dtd" >
<svg viewBox="0 -442 2048 2048">
  <g transform="matrix(1 0 0 -1 0 1606)">
   <path fill="currentColor"
d="M1395 320l-64 -320h-347q-25 0 -31.5 7t-6.5 33q0 150 101 423t101 423q0 184 -114 318q-120 142 -303 142t-303 -142q-114 -134 -114 -318q0 -150 101.5 -423t101.5 -423q0 -40 -39 -40h-347l-64 320h49q17 -111 36.5 -144t38.5 -41q15 -7 55 -7h214q-27 111 -120 256
q-144 223 -153 240q-76 141 -76 272q0 220 204 364q185 130 416 130t416 -130q204 -144 204 -364q0 -131 -76 -272q-9 -18 -153 -240q-93 -145 -120 -256h214q40 0 55 7q19 8 38.5 41t36.5 144h49z" />
  </g>

</svg>
