<?xml version="1.0" standalone="no"?>
<!DOCTYPE svg PUBLIC "-//W3C//DTD SVG 1.1//EN" "http://www.w3.org/Graphics/SVG/1.1/DTD/svg11.dtd" >
<svg viewBox="0 -442 2048 2048">
  <g transform="matrix(1 0 0 -1 0 1606)">
   <path fill="currentColor"
d="M1395 1023h-49q-17 111 -36.5 144t-38.5 41q-15 7 -55 7h-214q27 -111 120 -256q144 -223 153 -240q76 -141 76 -272q0 -220 -204 -364q-185 -130 -416 -130t-415 130q-205 144 -205 364q0 131 76 272q9 17 153 240q93 145 120 256h-214q-40 0 -55 -7q-19 -8 -38.5 -41
t-36.5 -144h-49l64 320h347q39 0 39 -40q0 -150 -101.5 -423t-101.5 -423q0 -184 114 -318q120 -142 303 -142t303 142q114 134 114 318q0 150 -101 423t-101 423q0 26 6.5 33t31.5 7h347z" />
  </g>

</svg>
