<?xml version="1.0" standalone="no"?>
<!DOCTYPE svg PUBLIC "-//W3C//DTD SVG 1.1//EN" "http://www.w3.org/Graphics/SVG/1.1/DTD/svg11.dtd" >
<svg viewBox="-14 -442 2048 2048">
  <g transform="matrix(1 0 0 -1 0 1606)">
   <path fill="currentColor"
d="M1184 164q0 -236 -187 -373q-167 -123 -411 -123q-174 0 -270 94q-44 43 -110 173q-47 94 -102 94q-76 0 -86 -103h-32q9 76 66.5 123t133.5 47q122 0 195 -100l112 -186q71 -101 189 -101q291 0 291 402q0 483 -252 483q-146 0 -197 -141l-30 16q39 103 149 143
q-95 39 -143 125l26 21q70 -117 174 -117q123 0 187 101q55 85 55 212q0 169 -72 272q-82 117 -243 117q-138 0 -250 -83q-123 -92 -123 -226q0 -54 20 -98l-26 -14q-27 60 -27 116q0 155 139 254q125 88 285 88q188 0 329 -96q161 -109 161 -289q0 -135 -108 -239
q-91 -88 -234 -135q179 -38 283 -155q108 -122 108 -302z" />
  </g>

</svg>
