<?xml version="1.0" standalone="no"?>
<!DOCTYPE svg PUBLIC "-//W3C//DTD SVG 1.1//EN" "http://www.w3.org/Graphics/SVG/1.1/DTD/svg11.dtd" >
<svg viewBox="0 -442 2048 2048">
  <g transform="matrix(1 0 0 -1 0 1606)">
   <path fill="currentColor"
d="M1417 0q-127 6 -355 6q-113 0 -187 -6v61q162 -1 162 59q0 29 -47 159q-31 84 -62 169h-487l-56 -146q-39 -107 -39 -140q0 -51 52 -78q42 -23 97 -23v-61q-189 6 -228 6q-62 0 -199 -6v61q174 2 219 133l358 1029q-104 58 -104 178q0 84 58.5 144.5t142.5 60.5
t142.5 -59.5t58.5 -143.5q0 -121 -104 -180l374 -1083q21 -61 84 -75q25 -6 120 -4v-61zM873 1403q0 54 -38.5 93.5t-92.5 39.5q-53 0 -92 -40.5t-39 -94.5t38.5 -93.5t92.5 -39.5q53 0 92 40.5t39 94.5zM906 510l-222 641l-220 -641h442z" />
  </g>

</svg>
