<?xml version="1.0" standalone="no"?>
<!DOCTYPE svg PUBLIC "-//W3C//DTD SVG 1.1//EN" "http://www.w3.org/Graphics/SVG/1.1/DTD/svg11.dtd" >
<svg viewBox="0 -442 2048 2048">
  <g transform="matrix(1 0 0 -1 0 1606)">
   <path fill="currentColor"
d="M1828 1119q0 -127 -133 -234q-73 -58 -245 -143q251 -100 251 -297q0 -169 -168 -316q-163 -143 -334 -143q-66 0 -108 36q-46 38 -46 102q0 179 214 295l16 -27q-80 -43 -135 -111q-63 -78 -63 -159q0 -40 25 -69q26 -32 65 -32q81 0 189 165q129 198 129 380
q0 109 -79 159q-82 -31 -137 -31q-40 0 -40 31q0 46 80 46q42 0 95 -15q99 36 169 180q63 129 63 246t-72 164q-161 -88 -240 -238q-42 -80 -111 -323l-42 -148q-83 -294 -276 -466q-209 -187 -501 -187q-146 0 -243 60q-116 73 -116 211q0 81 49 135.5t128 54.5
q49 0 87 -30q41 -33 41 -81q0 -62 -57 -93l-106 -38q-57 -20 -57 -57q0 -62 96 -101q75 -30 149 -30q157 0 273 132q74 82 163 270l129 271q150 314 323 478q116 110 279 196q-117 42 -276 42q-245 0 -474 -82q-257 -93 -397 -260q-104 -124 -104 -243q0 -65 40.5 -110.5
t105.5 -45.5q74 0 174 65q126 82 204.5 216.5t89.5 285.5l27 8q14 -93 14 -151q0 -184 -94 -306q-127 -165 -341 -165q-104 0 -173 48q-79 55 -79 155q0 128 111 260q150 178 410 272q231 84 491 84q167 0 327 -45q55 25 147 49l8 -29q-67 -19 -114 -37q199 -88 199 -254z
" />
  </g>

</svg>
