<?xml version="1.0" standalone="no"?>
<!DOCTYPE svg PUBLIC "-//W3C//DTD SVG 1.1//EN" "http://www.w3.org/Graphics/SVG/1.1/DTD/svg11.dtd" >
<svg viewBox="0 -442 2048 2048">
  <g transform="matrix(1 0 0 -1 0 1606)">
   <path fill="currentColor"
d="M1225 369q-133 -377 -512 -377q-277 0 -451 226q-160 208 -160 493q0 216 74 405q98 250 279 250q139 0 188 -160l154 193q148 -96 235 -96q83 0 137 71l29 -16q-125 -182 -278 -182q-78 0 -201 65q-70 -70 -70 -129q0 -84 106.5 -256t106.5 -260q0 -167 -182 -326
l-21 29q66 56 66 139q0 82 -96.5 245t-96.5 257q0 99 82 227q-8 63 -45 108q-41 50 -100 50q-207 0 -207 -465q0 -287 95 -473q123 -242 382 -242q348 0 453 224h33z" />
  </g>

</svg>
