<?xml version="1.0" standalone="no"?>
<!DOCTYPE svg PUBLIC "-//W3C//DTD SVG 1.1//EN" "http://www.w3.org/Graphics/SVG/1.1/DTD/svg11.dtd" >
<svg viewBox="0 -442 2048 2048">
  <g transform="matrix(1 0 0 -1 0 1606)">
   <path fill="currentColor"
d="M1429 1172q0 -100 -61 -180q-66 -86 -164 -86q-63 0 -102 45t-39 109q0 121 157 215l20 -22q-122 -103 -122 -220q0 -40 25.5 -69.5t65.5 -29.5q82 0 138 81q50 74 50 159q0 97 -61 161.5t-157 64.5q-140 0 -253 -127q-110 -123 -110 -265q0 -71 33 -137q31 1 43 1
q63 0 124 -16q87 -23 87 -66q0 -49 -79 -49q-100 0 -232 78q-168 -54 -277 -216q-105 -157 -105 -338q0 -252 261 -252q156 0 276 80q124 84 170 230q16 51 16 87q0 62 -34 103q-37 45 -97 45q-78 0 -150 -74q-116 -119 -120 -315h-31q-25 61 -25 123q0 126 86.5 215
t212.5 89q81 0 136.5 -51.5t55.5 -131.5q0 -148 -119 -275q-147 -157 -381 -157q-197 0 -334 107q-156 122 -156 306q0 196 190 327q151 103 370 139q-120 109 -120 240q0 140 124 235q140 107 354 107q146 0 233 -60q101 -70 101 -210zM1048 796q0 21 -54 35q-41 10 -71 10
q-22 0 -51 -4q68 -64 138 -64q38 0 38 23z" />
  </g>

</svg>
