<?xml version="1.0" standalone="no"?>
<!DOCTYPE svg PUBLIC "-//W3C//DTD SVG 1.1//EN" "http://www.w3.org/Graphics/SVG/1.1/DTD/svg11.dtd" >
<svg viewBox="0 -442 2048 2048">
  <g transform="matrix(1 0 0 -1 0 1606)">
   <path fill="currentColor"
d="M1904 1416q-126 -191 -281 -191q-100 0 -284.5 77.5t-292.5 77.5q-168 0 -338 -100q-135 -79 -224 -190q-106 -133 -106 -268q0 -72 43 -122q45 -53 116 -53q115 0 249 202q104 157 104 280q0 58 -28 127l31 7q70 -156 70 -277q0 -156 -117.5 -264.5t-274.5 -108.5
q-99 0 -161 53q-65 57 -65 154q0 206 210 387q270 233 639 233q103 0 189 -16q274 -51 343 -51q85 0 154 60zM1563 793q0 -47 -46 -94q-16 -15 -86 -68q-2 -165 -61 -261q-94 -15 -165 -34q75 118 130 260q-56 -18 -110 -23q-36 -145 -136 -280q-234 -314 -615 -314
q-181 0 -275 88q-83 78 -83 181q0 77 51.5 133.5t128.5 56.5q48 0 87 -30q42 -33 42 -80q0 -60 -56 -90q-52 -20 -104 -39q-56 -23 -56 -65q0 -38 58 -76q69 -45 170 -45q157 0 271 130q69 79 159 269l69 146q-194 -29 -346 -178l-22 23q93 89 174 130q85 43 208 59
q215 441 490 613l22 -22q-59 -42 -86 -96q-33 -66 -86 -270q-18 -70 -56 -210q57 5 116 25q40 104 56 133q46 81 104 81q53 0 53 -53zM1528 791q0 23 -24 23q-48 0 -69 -141q93 67 93 118z" />
  </g>

</svg>
