<?xml version="1.0" standalone="no"?>
<!DOCTYPE svg PUBLIC "-//W3C//DTD SVG 1.1//EN" "http://www.w3.org/Graphics/SVG/1.1/DTD/svg11.dtd" >
<svg viewBox="-78 -442 2389 2048">
  <g transform="matrix(1 0 0 -1 0 1606)">
   <path fill="currentColor"
d="M2389 1405q0 -20 -35 -69q-59 -83 -131 -208q-84 -146 -135 -252q-347 -725 -347 -829q0 -31 29 -31q54 0 177 132q90 96 153 186l28 -17q-253 -337 -384 -337q-76 0 -120 78q-38 66 -38 147q0 246 275 626q133 184 460 546q-373 -239 -846 -960q-89 -136 -164 -243
q-29 -43 -91 -123q-61 -69 -99 -69q-33 0 -67 45q-39 52 -39 151q0 243 229 617q112 182 397 556q-289 -247 -663 -750q-69 -93 -139 -187q-81 -106 -148 -178q-237 -254 -476 -254q-122 0 -203 59q-90 67 -90 184q0 81 50 141q53 65 132 65q48 0 85.5 -32.5t37.5 -79.5
q0 -64 -70 -100q-49 -12 -99 -24q-60 -15 -60 -64q0 -62 84 -95q63 -24 137 -24q167 0 310 124q89 78 205 220q140 172 214 267q119 155 368 455q207 229 338 324q35 25 49 25q29 0 29 -23q0 -11 -13 -34q-158 -275 -350 -774q-74 -193 -118 -315q-27 -75 -74 -228
q62 64 271 382q408 621 766 906q109 87 148 87q27 0 27 -23z" />
  </g>

</svg>
