<?xml version="1.0" standalone="no"?>
<!DOCTYPE svg PUBLIC "-//W3C//DTD SVG 1.1//EN" "http://www.w3.org/Graphics/SVG/1.1/DTD/svg11.dtd" >
<svg viewBox="0 -442 2048 2048">
  <g transform="matrix(1 0 0 -1 0 1606)">
   <path fill="currentColor"
d="M829 315q-85 -108 -123 -144q-85 -80 -164 -80q-20 0 -38 5q-127 -110 -235 -110q-101 0 -165.5 68.5t-64.5 169.5q0 56 33 139q-25 -33 -45 -60l-27 17q280 390 550 390q197 0 197 -187q0 -183 -206 -391l2 -2q7 -5 19 -5q77 0 239 207zM678 565q0 109 -81 109
q-106 0 -242 -250q-126 -233 -126 -355q0 -47 55 -47q90 0 187 91q-11 17 -11 35q0 59 63 59q7 0 15 -2q140 221 140 360z" />
  </g>

</svg>
