<?xml version="1.0" standalone="no"?>
<!DOCTYPE svg PUBLIC "-//W3C//DTD SVG 1.1//EN" "http://www.w3.org/Graphics/SVG/1.1/DTD/svg11.dtd" >
<svg viewBox="0 -442 2048 2048">
  <g transform="matrix(1 0 0 -1 0 1606)">
   <path fill="currentColor"
d="M1327 954q0 -73 -89 -123q-28 94 -102 149l-268 -333q181 -151 213 -179q145 -130 178 -196q21 -42 21 -81q0 -88 -78 -175q-48 -53 -71 -53q-15 0 -15 17q0 8 13 43t13 57q0 73 -77 154q-26 28 -135 118l-586 485q-124 -148 -124 -259q0 -96 138 -234t138 -215
q0 -166 -250 -166q-83 0 -83 31q0 3 46.5 31t46.5 80q0 39 -47 136q-55 115 -63 143q-15 53 -15 117q0 155 175 368l-142 136q-74 71 -74 149q0 47 26 98q66 129 112 129q20 0 20 -18q0 -12 -7 -36t-7 -36q0 -86 94 -182q73 -75 135 -126l360 -297l264 330
q-126 102 -126 190q0 139 181 175q-38 -54 -38 -93q0 -64 111.5 -157.5t111.5 -176.5z" />
  </g>

</svg>
