<?xml version="1.0" standalone="no"?>
<!DOCTYPE svg PUBLIC "-//W3C//DTD SVG 1.1//EN" "http://www.w3.org/Graphics/SVG/1.1/DTD/svg11.dtd" >
<svg viewBox="0 -442 2048 2048">
  <g transform="matrix(1 0 0 -1 0 1606)">
   <path fill="currentColor"
d="M831 1267q0 -68 -54 -116.5t-123 -48.5q-151 0 -151 166q0 62 55 110t118 48q155 0 155 -159zM751 312q0 -19 -20 -44q-228 -290 -462 -290q-133 0 -133 125q0 95 51 225l195 497q4 10 4 20q0 31 -29 31q-42 0 -129 -96t-98 -96q-7 0 -11 4q-18 5 -18 24q0 21 44 73
q200 236 410 236q150 0 150 -141q0 -52 -20 -106l-177 -475q-25 -67 -25 -105q0 -33 23 -33q39 0 123 93.5t94 94.5q28 -11 28 -37z" />
  </g>

</svg>
