<?xml version="1.0" standalone="no"?>
<!DOCTYPE svg PUBLIC "-//W3C//DTD SVG 1.1//EN" "http://www.w3.org/Graphics/SVG/1.1/DTD/svg11.dtd" >
<svg viewBox="0 -442 2048 2048">
  <g transform="matrix(1 0 0 -1 0 1606)">
   <path fill="currentColor"
d="M1390 555q0 -285 -182 -498q-191 -223 -472 -223q-282 0 -473 223q-182 212 -182 498q0 209 105 387q109 185 294 269q-62 192 -188 192q-138 0 -180 -166q-9 -35 -21 -35q-23 0 -23 41q0 135 52 236q65 127 187 127q126 0 185 -130q34 -73 56 -239q95 30 186 30
q281 0 472 -218q184 -210 184 -494zM851 1099q0 51 -33 85t-84 34q-92 0 -174 -46q36 -196 172 -196q50 0 84.5 36.5t34.5 86.5zM1195 555q0 213 -69 375q-86 199 -259 263q28 -45 28 -94q0 -68 -47.5 -117t-115.5 -49q-144 0 -221 208q-233 -172 -233 -586q0 -455 262 -613
q96 -58 196 -58q97 0 192 56q267 157 267 615z" />
  </g>

</svg>
