<?xml version="1.0" standalone="no"?>
<!DOCTYPE svg PUBLIC "-//W3C//DTD SVG 1.1//EN" "http://www.w3.org/Graphics/SVG/1.1/DTD/svg11.dtd" >
<svg viewBox="0 -442 2950 2048">
  <g transform="matrix(1 0 0 -1 0 1606)">
   <path fill="currentColor"
d="M2950 -1q-122 5 -289 5q-85 0 -154 -5v67q99 3 99 27q0 3 -234 309q-218 -279 -218 -288q0 -46 95 -48v-67q-71 5 -160 5q-63 0 -227 -4v66q157 0 222 83l243 311l-273 358q-25 32 -80 39q-18 3 -92 1v68q107 -5 241 -5q133 0 202 5v-67q-98 -3 -98 -27q0 -9 193 -253
q174 224 174 232q0 46 -93 48v67q78 -5 183 -5q32 0 203 4v-67q-160 -1 -222 -80l-202 -257l314 -413q26 -34 80 -41q18 -3 93 -1v-67zM1835 -1q-122 5 -286 5q-85 0 -156 -5v67h25q99 0 99 27q0 18 -79 206h-358q-69 -159 -69 -178q0 -55 115 -55v-66q-145 4 -188 4
q-61 0 -166 -4v66q138 2 170 81l314 787q14 34 47 34t47 -34l327 -823q15 -38 69 -45q10 -1 89 0v-67zM952 602h-63q-19 152 -70 201q-54 53 -207 53h-194q-33 0 -40 -4q-11 -7 -11 -36v-322h118q97 0 125 33q24 28 24 121h62v-374h-62q0 94 -24 121q-28 33 -125 33h-118
v-319q0 -15 4 -24q10 -22 190 -19v-67q-71 5 -109 5h-301q-30 0 -99 -5v67q117 0 133 6q23 9 23 37v706q0 13 -4 23q-9 22 -152 18v67h855zM1411 366l-152 382l-151 -382h303z" />
  </g>

</svg>
