<?xml version="1.0" standalone="no"?>
<!DOCTYPE svg PUBLIC "-//W3C//DTD SVG 1.1//EN" "http://www.w3.org/Graphics/SVG/1.1/DTD/svg11.dtd" >
<svg viewBox="0 -442 2048 2048">
  <g transform="matrix(1 0 0 -1 0 1606)">
   <path fill="currentColor"
d="M1523 837q0 -48 -34.5 -83.5t-82.5 -35.5h-254q-6 -81 -6 -127q0 -105 34 -216q22 -73 89 -196q23 -42 23 -61q0 -57 -52.5 -100.5t-111.5 -43.5q-91 0 -140 135q-35 100 -35 214q0 156 50 395h-246l-103 -492q-29 -141 -44 -169q-40 -81 -142 -81q-43 0 -83 25
q-46 29 -46 69q0 33 66 177q45 95 90 189q69 152 111 282h-153q-172 0 -230 -75q-36 -47 -61 -47q-34 0 -34 28q0 7 6 17q162 282 374 282h930q35 0 60 -25.5t25 -60.5zM1448 837q0 11 -10 11h-930q-82 0 -161 -63q45 8 106 8h953q42 0 42 44zM1215 120q-50 112 -100 225
q-44 117 -44 246q0 44 4 105q-47 -230 -47 -373q0 -69 22 -156q30 -118 78 -118q33 0 60 25t27 46zM675 694q-64 -180 -202 -478q-23 -47 -60 -142q17 -23 55 -23q63 0 88 68q12 61 25 122z" />
  </g>

</svg>
