<?xml version="1.0" standalone="no"?>
<!DOCTYPE svg PUBLIC "-//W3C//DTD SVG 1.1//EN" "http://www.w3.org/Graphics/SVG/1.1/DTD/svg11.dtd" >
<svg viewBox="0 -442 2048 2048">
  <g transform="matrix(1 0 0 -1 0 1606)">
   <path fill="currentColor"
d="M1509 897q0 -9 -13 -26q-208 -269 -313 -505q-65 -146 -77 -313q-2 -77 -10 -230q-18 -265 -181 -265q-44 0 -73 36q-27 33 -27 78q0 108 111 333.5t111 372.5q0 178 -148 268q-122 74 -312 74q-161 0 -234 -86q-19 -30 -39 -60q-28 -42 -50 -42q-37 0 -37 37q0 5 3 12
q153 378 481 378q331 0 421 -554q278 530 352 530q35 0 35 -38zM966 685q-95 199 -265 199q-163 0 -277 -114q75 25 153 25q241 0 389 -110zM1032 67q-48 -102 -95 -205q-47 -111 -47 -190q0 -39 25 -39q115 0 115 341v32q0 37 1 52z" />
  </g>

</svg>
