<?xml version="1.0" standalone="no"?>
<!DOCTYPE svg PUBLIC "-//W3C//DTD SVG 1.1//EN" "http://www.w3.org/Graphics/SVG/1.1/DTD/svg11.dtd" >
<svg viewBox="0 -442 2048 2048">
  <g transform="matrix(1 0 0 -1 0 1606)">
   <path fill="currentColor"
d="M1167 991q0 -37 -35 -37q-39 0 -39 37q0 133 -129 211q-109 66 -252 66h-121q-55 0 -55 -111v-988q0 -70 51 -86q26 -8 125 -8q41 0 41 -36q0 -39 -35 -39h-631q-34 0 -34 39q0 36 57 36q78 0 96.5 19t18.5 92v975q0 74 -27 92q-19 14 -97 14q-48 0 -48 39q0 37 34 37
h1048q32 0 32 -35v-317zM1092 1194v74h-92q54 -32 92 -74zM482 1268h-200q18 -39 18 -107v-975q0 -71 -17 -111h197q-19 36 -19 94v988q0 64 21 111z" />
  </g>

</svg>
