<?xml version="1.0" standalone="no"?>
<!DOCTYPE svg PUBLIC "-//W3C//DTD SVG 1.1//EN" "http://www.w3.org/Graphics/SVG/1.1/DTD/svg11.dtd" >
<svg viewBox="0 -442 2048 2048">
  <g transform="matrix(1 0 0 -1 0 1606)">
   <path fill="currentColor"
d="M1511 39q0 -39 -35 -39h-599q-33 0 -33 39q0 36 55 36q78 0 97 19t19 92v982q0 63 -24 83q-20 17 -82 17h-255q-53 0 -72 -9q-28 -14 -32 -59q-2 -16 -2 -43v-982q0 -69 30 -87q19 -12 94 -12q48 0 48 -37q0 -39 -35 -39h-599q-33 0 -33 39q0 36 57 36q78 0 96.5 19
t18.5 92v982q0 99 -87 99q-6 0 -17 -1h-17q-51 0 -51 40q0 37 33 37h1390q35 0 35 -37q0 -38 -57 -38q-77 0 -96.5 -19t-19.5 -92v-982q0 -69 30 -87q21 -12 95 -12q48 0 48 -37zM1281 75q-18 38 -18 100v982q0 72 17 111h-208q18 -38 18 -100v-982q0 -72 -17 -111h208z
M491 1268h-213q22 -41 22 -100v-982q0 -71 -17 -111h208q-18 38 -18 100v982q0 71 18 111z" />
  </g>

</svg>
