<?xml version="1.0" standalone="no"?>
<!DOCTYPE svg PUBLIC "-//W3C//DTD SVG 1.1//EN" "http://www.w3.org/Graphics/SVG/1.1/DTD/svg11.dtd" >
<svg viewBox="0 -442 2048 2048">
  <g transform="matrix(1 0 0 -1 0 1606)">
   <path fill="currentColor"
d="M1245 443l-56 -407q-5 -36 -32 -36h-1069q-35 0 -35 39q0 10 383 631l-379 617q-4 7 -4 19q0 37 34 37h1085q31 0 35 -35l34 -314q4 -40 -37 -40q-26 0 -44 51l-22 72q-51 101 -187 151q-109 40 -244 40h-272l368 -598l-366 -595h277q133 0 247 67t173 184q11 41 38 121
q12 32 37 32q41 0 36 -36zM1144 1197l-8 71h-90q57 -30 98 -71zM1135 192q-59 -70 -140 -117h124zM715 670l-368 598h-190l367 -598q-119 -190 -353 -573q-6 -11 -15 -22h193z" />
  </g>

</svg>
