<?xml version="1.0" standalone="no"?>
<!DOCTYPE svg PUBLIC "-//W3C//DTD SVG 1.1//EN" "http://www.w3.org/Graphics/SVG/1.1/DTD/svg11.dtd" >
<svg viewBox="0 -442 2048 2048">
  <g transform="matrix(1 0 0 -1 0 1606)">
   <path fill="currentColor"
d="M1311 666q0 -309 -168 -503q-177 -206 -481 -206q-236 0 -430 100q-52 27 -74 43q-31 23 -31 53q0 26 19.5 47t45.5 21q17 0 36 -11q210 -123 434 -123q250 0 389 168q130 156 130 411q0 267 -136 426q-144 168 -407 168q-170 0 -348 -69v-364h311q65 0 65 -65t-65 -65
h-376q-26 0 -45.5 19.5t-19.5 45.5v473q0 74 206 120q154 35 272 35q317 0 499 -206q174 -197 174 -518z" />
  </g>

</svg>
