<?xml version="1.0" standalone="no"?>
<!DOCTYPE svg PUBLIC "-//W3C//DTD SVG 1.1//EN" "http://www.w3.org/Graphics/SVG/1.1/DTD/svg11.dtd" >
<svg viewBox="-82 -442 2048 2048">
  <g transform="matrix(1 0 0 -1 0 1606)">
   <path fill="currentColor"
d="M1393 853q0 -80 -17 -155q-70 -310 -288 -500q-227 -198 -539 -198h-606l-22 13q-3 7 -3 17q0 36 40 45q14 3 68 3q64 0 87 108l206 970q8 38 8 59q0 41 -41 49q-9 2 -74 2l-22 13q-3 7 -3 17q0 16 13.5 31.5t29.5 15.5h605q243 0 394 -121q164 -132 164 -369zM1316 836
q0 299 -274 397q84 -110 84 -311q0 -207 -81 -434q-90 -250 -230 -371q190 67 319 226q124 152 167 355q15 71 15 138zM1049 906q0 360 -260 360q-120 0 -137 -79l-220 -1033q-2 -9 -2 -14q0 -63 93 -63q372 0 503 618q23 109 23 211zM619 1268h-220q4 -16 4 -36
q0 -34 -9 -76l-206 -970q-14 -68 -43 -111h220q-11 22 -11 49q0 16 3 30l220 1033q10 47 42 81z" />
  </g>

</svg>
