<?xml version="1.0" standalone="no"?>
<!DOCTYPE svg PUBLIC "-//W3C//DTD SVG 1.1//EN" "http://www.w3.org/Graphics/SVG/1.1/DTD/svg11.dtd" >
<svg viewBox="0 -442 2048 2048">
  <g transform="matrix(1 0 0 -1 0 1606)">
   <path fill="currentColor"
d="M1419 309q0 -112 -87 -219q-92 -114 -203 -114q-182 0 -281 113q-143 -113 -293 -113q-181 0 -289 95q-114 100 -114 279q0 254 173.5 431.5t426.5 177.5q119 0 210 -73l93 431q3 13 3 24q0 50 -52 47l-53 -3q-39 -2 -39 38q0 35 36 37l380 16q45 2 45 -36q0 -2 -1 -6
l-261 -1217q-7 -33 -7 -78q0 -85 31 -85q129 0 188 192q5 24 20 71q12 29 36 29q38 0 38 -37zM1290 1399l-163 -7q13 -36 1 -91l-235 -1108q-2 -13 -7 -38q68 -77 156 -95q-11 25 -11 97q0 69 9 111zM934 767q-48 106 -164 106q-127 0 -202 -143q-43 -83 -80 -255
q-35 -162 -35 -248q0 -166 126 -166q134 0 239 132q0 18 3 34zM558 848q-152 -60 -241.5 -196.5t-89.5 -301.5q0 -216 187 -278q-36 62 -36 155q0 107 38 275q39 175 86 263q25 47 56 83z" />
  </g>

</svg>
