<?xml version="1.0" standalone="no"?>
<!DOCTYPE svg PUBLIC "-//W3C//DTD SVG 1.1//EN" "http://www.w3.org/Graphics/SVG/1.1/DTD/svg11.dtd" >
<svg viewBox="0 -442 2048 2048">
  <g transform="matrix(1 0 0 -1 0 1606)">
   <path fill="currentColor"
d="M1195 198q0 -13 -9 -24q-159 -198 -551 -198q-205 0 -337 98q-146 109 -146 308q0 264 213 428q195 149 467 149q121 0 213 -49q113 -60 113 -170q0 -189 -264 -253q-139 -34 -414 -34q-25 -103 -25 -177q0 -94 49 -158q51 -67 131 -67q286 0 434 114q18 14 59 57
q14 14 28 14q39 0 39 -38zM1083 740q0 63 -72.5 103.5t-178.5 40.5q-93 0 -132 -20q-26 -14 -76 -75q-69 -83 -124 -261q583 0 583 212zM568 837q-154 -58 -244 -172q-97 -123 -97 -283q0 -220 209 -298q-56 83 -56 192q0 122 56 294q58 178 132 267z" />
  </g>

</svg>
