<?xml version="1.0" standalone="no"?>
<!DOCTYPE svg PUBLIC "-//W3C//DTD SVG 1.1//EN" "http://www.w3.org/Graphics/SVG/1.1/DTD/svg11.dtd" >
<svg viewBox="0 -442 2048 2048">
  <g transform="matrix(1 0 0 -1 0 1606)">
   <path fill="currentColor"
d="M848 1367q0 -76 -58.5 -132.5t-134.5 -56.5q-63 0 -107.5 42.5t-44.5 105.5q0 77 58.5 133.5t135.5 56.5q63 0 107 -43t44 -106zM919 314q0 -6 -2 -13q-105 -325 -359 -325q-101 0 -184 48q-99 56 -99 149q0 32 14 70l173 474q23 63 23 120q0 45 -25 45q-77 0 -171 -87
t-94 -164q0 -37 -37 -37q-38 0 -38 37q0 117 122 224q119 104 238 104q101 0 184 -48q99 -57 99 -151q0 -31 -13 -66l-174 -475q-25 -68 -25 -127q0 -41 21 -41q149 0 239 187q10 29 34 86q13 26 35 26q39 0 39 -36zM773 1367q0 31 -22 52.5t-54 21.5q-46 0 -82.5 -34.5
t-36.5 -80.5q0 -73 77 -73q46 0 82 34t36 80zM688 760q0 82 -132 115q4 -18 4 -38q0 -70 -28 -146l-173 -474q-9 -26 -9 -44q0 -79 129 -112q-3 15 -3 31q0 72 30 153l174 475q8 23 8 40z" />
  </g>

</svg>
