<?xml version="1.0" standalone="no"?>
<!DOCTYPE svg PUBLIC "-//W3C//DTD SVG 1.1//EN" "http://www.w3.org/Graphics/SVG/1.1/DTD/svg11.dtd" >
<svg viewBox="-145 -442 2048 2048">
  <g transform="matrix(1 0 0 -1 0 1606)">
   <path fill="currentColor"
d="M884 1366q0 -77 -58 -132.5t-135 -55.5q-64 0 -108.5 42.5t-44.5 105.5q0 76 58 133t134 57q64 0 109 -43.5t45 -106.5zM790 743q0 -18 -5 -41l-180 -830q-32 -148 -193 -236q-141 -77 -309 -77q-87 0 -159 37q-89 46 -89 125q0 64 46.5 110t110.5 46q47 0 80 -30.5
t33 -77.5q0 -78 -65 -121q14 -3 24 -3q87 0 155 85q57 71 78 166l175 812q14 66 14 105q0 70 -46 70q-81 0 -166 -56q-78 -52 -125 -125q-14 -28 -43 -83q-13 -24 -34 -24q-39 0 -39 36q0 7 3 15q52 134 165 221q118 92 257 92q114 0 204 -50q108 -61 108 -166zM809 1366
q0 32 -23.5 53.5t-55.5 21.5q-46 0 -81.5 -34.5t-35.5 -80.5q0 -73 78 -73q46 0 82 33.5t36 79.5zM715 743q0 92 -141 129q7 -26 7 -59q0 -47 -16 -121l-175 -812q-28 -129 -111 -219q218 68 253 227l180 830q3 15 3 25zM50 -231q0 33 -38 33q-33 0 -57.5 -24t-24.5 -57
t48 -58q7 19 42 49q30 25 30 57z" />
  </g>

</svg>
