<?xml version="1.0" standalone="no"?>
<!DOCTYPE svg PUBLIC "-//W3C//DTD SVG 1.1//EN" "http://www.w3.org/Graphics/SVG/1.1/DTD/svg11.dtd" >
<svg viewBox="0 -442 2048 2048">
  <g transform="matrix(1 0 0 -1 0 1606)">
   <path fill="currentColor"
d="M1411 1091q0 -73 -42 -136q-20 -31 -95 -109q-95 -98 -176 -187q79 -200 79 -392q0 -121 -69 -211q-75 -98 -193 -98q-87 0 -132 85q-36 68 -36 163q0 130 235 390q-99 258 -319 514q-61 -75 -164 -230q-124 -188 -124 -228q0 -86 137 -85v-61q-87 6 -235 6
q-76 0 -188 -6v61q116 1 177 49q44 34 111 148q88 151 119 198q70 110 136 186q-145 173 -266 173q-90 0 -151.5 -63.5t-65.5 -153.5h-48q3 117 79 196.5t193 79.5q172 0 340 -146q163 146 349 146q136 0 237 -75q112 -82 112 -214zM1251 1029q0 111 -47 193q-56 99 -158 99
q-157 0 -297 -125q192 -192 332 -493q91 87 124 143q46 78 46 183zM1056 223q0 154 -58 326q-202 -218 -202 -345q0 -73 23 -128q30 -76 92 -76q76 0 115 78q30 61 30 145z" />
  </g>

</svg>
