<?xml version="1.0" standalone="no"?>
<!DOCTYPE svg PUBLIC "-//W3C//DTD SVG 1.1//EN" "http://www.w3.org/Graphics/SVG/1.1/DTD/svg11.dtd" >
<svg viewBox="0 -442 2048 2048">
  <g transform="matrix(1 0 0 -1 0 1606)">
   <path fill="currentColor"
d="M1388 572q0 -146 -127 -239l-30 43q98 74 98 187q0 93 -74 160q-161 -199 -402 -255q18 -126 18 -209q0 -309 -216 -309q-137 0 -196 66q-55 62 -55 201q0 107 29 253q-285 63 -285 246q0 115 126 192q101 62 258 88q17 134 17 231q0 79 -52 105q-35 18 -122 18
q-52 0 -99 -17q-63 -23 -63 -66q0 -40 40 -50q15 -4 73 -4q18 0 18 -19q0 -58 -85 -58h-3q-161 40 -161 192t148 152q32 0 94 -14t94 -14q21 0 58.5 15t57.5 15q55 0 55 -74q0 -169 -14 -404q49 6 91 6q32 0 66 -2q-3 63 -3 122q0 210 77 284q59 57 143 57q119 0 237 -102
q143 -124 143 -365q0 -80 -49 -203q95 -99 95 -229zM1150 1017q0 419 -187 419q-116 0 -152 -124q-19 -64 -19 -219q0 -43 2 -90q202 -22 354 -99q2 50 2 113zM1142 818q-146 93 -343 107q15 -208 46 -407q138 29 205 91q76 71 92 209zM794 509q-17 140 -44 419h-26
q-68 0 -142 -10l-27 -414q53 -5 96 -5q73 0 143 10zM519 908q-300 -59 -300 -229q0 -111 225 -158q24 101 63 305zM817 245q0 53 -17 212q-71 -11 -147 -11q-49 0 -101 5q-6 -140 -6 -257q0 -71 31 -123q37 -61 103 -61q137 0 137 235z" />
  </g>

</svg>
