<?xml version="1.0" standalone="no"?>
<!DOCTYPE svg PUBLIC "-//W3C//DTD SVG 1.1//EN" "http://www.w3.org/Graphics/SVG/1.1/DTD/svg11.dtd" >
<svg viewBox="0 -442 2048 2048">
  <g transform="matrix(1 0 0 -1 0 1606)">
   <path fill="currentColor"
d="M2018 -11q0 -124 -92.5 -205.5t-218.5 -81.5q-175 0 -276 86q-64 -86 -81 -86q-28 0 -28 32v288q0 32 31 32q36 0 36 -60q0 -90 85 -158t232 -68q78 0 134 50t56 126q0 63 -45 113q-42 47 -150 71l-172 36q-90 29 -146 93q-61 70 -61 160q0 118 96 196q90 72 211 72
q133 0 240 -87q62 87 78 87q31 0 31 -34v-287q0 -31 -34 -31q-22 0 -28.5 25.5t-20.5 79.5q-58 185 -265 185q-74 0 -128 -42q-58 -46 -58 -118q0 -104 126 -148l212 -48q105 -27 168 -98q68 -76 68 -180zM1840 1455l-1155 -1746h-89l1155 1746h89zM1115 578q-122 5 -286 5
q-85 0 -156 -5v67h25q99 0 99 27q0 18 -79 206h-358q-69 -159 -69 -178q0 -55 115 -55v-66q-145 4 -188 4q-61 0 -166 -4v66q138 2 170 81l314 787q14 34 47 34t47 -34l327 -823q15 -38 69 -45q10 -1 89 0v-67zM691 945l-152 382l-151 -382h303z" />
  </g>

</svg>
