<?xml version="1.0" standalone="no"?>
<!DOCTYPE svg PUBLIC "-//W3C//DTD SVG 1.1//EN" "http://www.w3.org/Graphics/SVG/1.1/DTD/svg11.dtd" >
<svg viewBox="0 -442 2048 2048">
  <g transform="matrix(1 0 0 -1 0 1606)">
   <path fill="currentColor"
d="M952 -1h-855l-45 321h63q19 -152 70 -201q54 -53 207 -53h194q33 0 40 4q11 7 11 36v322h-118q-97 0 -125 -33q-24 -28 -24 -121h-62v374h62q0 -94 24 -121q28 -33 125 -33h118v319q0 15 -4 24q-10 22 -190 19v67q71 -5 109 -5h301q30 0 99 5v-67q-117 0 -133 -6
q-23 -9 -23 -37v-706q0 -13 4 -23q9 -22 152 -18v-67z" />
  </g>

</svg>
