<?xml version="1.0" standalone="no"?>
<!DOCTYPE svg PUBLIC "-//W3C//DTD SVG 1.1//EN" "http://www.w3.org/Graphics/SVG/1.1/DTD/svg11.dtd" >
<svg viewBox="0 -442 2048 2048">
  <g transform="matrix(1 0 0 -1 0 1606)">
   <path fill="currentColor"
d="M1582 122l-13 -114q-178 8 -304 131q-110 -137 -226 -137q-125 0 -232 120q-109 -122 -215 -122q-129 0 -231 130q-126 -122 -296 -122l-15 114q148 -1 263 85q-65 154 -65 268q0 74 30 130q36 70 103 70q66 0 102 -66q30 -55 30 -126q0 -158 -103 -295q71 -74 171 -74
q98 0 178 78q-80 138 -80 279q0 76 29 132q36 72 104 72q63 0 101 -66q31 -54 31 -123q0 -135 -94 -302q60 -70 177 -70q103 0 185 85q-95 142 -95 278q0 74 32 130q38 68 106 68q64 0 101 -65q30 -54 30 -124q0 -134 -76 -273q118 -89 272 -91zM1323 452q0 103 -68 103
q-77 0 -77 -116q0 -94 81 -178q64 104 64 191zM881 456q0 99 -66 99q-39 0 -60 -43q-17 -35 -17 -78q0 -109 64 -194q79 112 79 216zM450 455q0 102 -66 102q-39 0 -60 -45q-17 -36 -17 -80q0 -108 54 -180q89 97 89 203z" />
  </g>

</svg>
