<?xml version="1.0" standalone="no"?>
<!DOCTYPE svg PUBLIC "-//W3C//DTD SVG 1.1//EN" "http://www.w3.org/Graphics/SVG/1.1/DTD/svg11.dtd" >
<svg viewBox="0 -442 2048 2048">
  <g transform="matrix(1 0 0 -1 0 1606)">
   <path fill="currentColor"
d="M1686 564q0 -26 -16 -46l-212 -262q-73 -91 -97 -253q-14 -94 -14 -276q0 -86 -82 -86t-82 86q0 258 194 527q1 1 161 203h-353q-84 0 -97 -7t-35 -128h-60l56 306h56q2 -17 9 -24q20 -20 182 -20h390v-20zM668 579q-67 5 -112 5h-302q-45 0 -112 -5v64q16 0 37 -1t30 -1
q109 0 123 24q5 9 5 30v708q-80 -31 -204 -31v62q193 0 290 89h12q38 0 38 -45v-786q0 -18 5 -28q11 -22 190 -21v-64zM1419 1415q0 -13 -6 -22l-1071 -1667q-11 -17 -35 -17q-40 0 -40 40q0 13 6 22l1071 1667q11 17 35 17q40 0 40 -40z" />
  </g>

</svg>
