<?xml version="1.0" standalone="no"?>
<!DOCTYPE svg PUBLIC "-//W3C//DTD SVG 1.1//EN" "http://www.w3.org/Graphics/SVG/1.1/DTD/svg11.dtd" >
<svg viewBox="0 -442 2048 2048">
  <g transform="matrix(1 0 0 -1 0 1606)">
   <path fill="currentColor"
d="M1661 138q0 -116 -35 -212q-43 -118 -134 -196q-103 -89 -233 -89q-92 0 -153 35q-74 42 -74 124q0 77 81 77q35 0 59 -21t24 -53q0 -60 -66 -72q47 -32 127 -32q55 0 106 30q132 77 137 352q-67 -108 -185 -108q-141 0 -234 98q-88 93 -88 221q0 139 103 233
q97 89 236 89q78 0 145 -37q184 -101 184 -439zM668 579q-67 5 -112 5h-302q-45 0 -112 -5v64q16 0 37 -1t30 -1q109 0 123 24q5 9 5 30v708q-80 -31 -204 -31v62q193 0 290 89h12q38 0 38 -45v-786q0 -18 5 -28q11 -22 190 -21v-64zM1439 1415q0 -13 -6 -22l-1071 -1667
q-11 -17 -35 -17q-40 0 -40 40q0 13 6 22l1071 1667q11 17 35 17q40 0 40 -40zM1498 265q0 131 -25 191q-44 104 -141 104q-98 0 -148 -82q-30 -49 -30 -159v-58q0 -105 26 -153q45 -82 137 -82t141 81q40 66 40 158z" />
  </g>

</svg>
