<?xml version="1.0" standalone="no"?>
<!DOCTYPE svg PUBLIC "-//W3C//DTD SVG 1.1//EN" "http://www.w3.org/Graphics/SVG/1.1/DTD/svg11.dtd" >
<svg viewBox="0 -442 2048 2048">
  <g transform="matrix(1 0 0 -1 0 1606)">
   <path fill="currentColor"
d="M668 579q-67 5 -112 5h-302q-45 0 -112 -5v64q16 0 37 -1t30 -1q109 0 123 24q5 9 5 30v708q-80 -31 -204 -31v62q193 0 290 89h12q38 0 38 -45v-786q0 -18 5 -28q11 -22 190 -21v-64zM1655 -82q0 -120 -107 -201q-100 -76 -235 -76q-121 0 -216 56q-110 65 -110 171
q0 90 97 90q42 0 70 -24.5t28 -62.5q0 -82 -93 -87q74 -85 219 -85q88 0 131 72q35 58 35 147q0 220 -176 220h-81q-35 0 -35 26q0 25 94 30q87 5 130 67t43 153q0 146 -140 146q-123 0 -187 -67q86 -8 86 -79q0 -80 -89 -80q-90 0 -90 81q0 94 97 150q83 49 190 49
q109 0 196 -49q102 -57 102 -152q0 -79 -57 -147q-52 -62 -136 -95q100 -27 164 -92q70 -70 70 -161zM1419 1415q0 -13 -6 -22l-1071 -1667q-11 -17 -35 -17q-40 0 -40 40q0 13 6 22l1071 1667q11 17 35 17q40 0 40 -40z" />
  </g>

</svg>
