<?xml version="1.0" standalone="no"?>
<!DOCTYPE svg PUBLIC "-//W3C//DTD SVG 1.1//EN" "http://www.w3.org/Graphics/SVG/1.1/DTD/svg11.dtd" >
<svg viewBox="0 -442 2048 2048">
  <g transform="matrix(1 0 0 -1 0 1606)">
   <path fill="currentColor"
d="M724 841l-46 -261h-599v22q0 26 21 47l300 296q160 158 160 299q0 89 -49 149q-55 67 -150 67q-136 0 -195 -119q98 -2 98 -83q0 -35 -26.5 -59t-64.5 -24q-94 0 -94 87q0 109 92 186q89 75 211 75q142 0 238 -74q102 -79 102 -205q0 -82 -61 -159q-32 -40 -124 -120
l-300 -259h285q97 0 110 9.5t33 125.5h59zM1655 -82q0 -120 -107 -201q-100 -76 -235 -76q-121 0 -216 56q-110 65 -110 171q0 90 97 90q42 0 70 -24.5t28 -62.5q0 -82 -93 -87q74 -85 219 -85q88 0 131 72q35 58 35 147q0 220 -176 220h-81q-35 0 -35 26q0 25 94 30
q87 5 130 67t43 153q0 146 -140 146q-123 0 -187 -67q86 -8 86 -79q0 -80 -89 -80q-90 0 -90 81q0 94 97 150q83 49 190 49q109 0 196 -49q102 -57 102 -152q0 -79 -57 -147q-52 -62 -136 -95q100 -27 164 -92q70 -70 70 -161zM1439 1415q0 -13 -6 -22l-1071 -1667
q-11 -17 -35 -17q-40 0 -40 40q0 13 6 22l1071 1667q11 17 35 17q40 0 40 -40z" />
  </g>

</svg>
