<?xml version="1.0" standalone="no"?>
<!DOCTYPE svg PUBLIC "-//W3C//DTD SVG 1.1//EN" "http://www.w3.org/Graphics/SVG/1.1/DTD/svg11.dtd" >
<svg viewBox="0 -442 2048 2048">
  <g transform="matrix(1 0 0 -1 0 1606)">
   <path fill="currentColor"
d="M668 579q-67 5 -112 5h-302q-45 0 -112 -5v64q16 0 37 -1t30 -1q109 0 123 24q5 9 5 30v708q-80 -31 -204 -31v62q193 0 290 89h12q38 0 38 -45v-786q0 -18 5 -28q11 -22 190 -21v-64zM1642 -40q0 -131 -102 -225t-248 -94q-120 0 -206.5 78t-86.5 185q0 84 86 84
q37 0 63 -22t26 -56t-26 -56t-63 -22h-10q25 -58 84.5 -95.5t129.5 -37.5q103 0 159 86q35 54 35 185q0 116 -26 169q-42 84 -125 84q-100 0 -174 -73q-38 -38 -47 -38q-32 0 -32 38v430q0 33 25 33q10 0 22 -4q125 -40 206 -40q63 0 109 12q53 15 106 31q7 2 9 2
q25 0 25 -26q0 -14 -30 -44q-111 -110 -281 -110q-60 0 -122 15v-235q80 59 188 59q135 0 224 -99q82 -91 82 -214zM1419 1415q0 -13 -6 -22l-1071 -1667q-11 -17 -35 -17q-40 0 -40 40q0 13 6 22l1071 1667q11 17 35 17q40 0 40 -40z" />
  </g>

</svg>
