<?xml version="1.0" standalone="no"?>
<!DOCTYPE svg PUBLIC "-//W3C//DTD SVG 1.1//EN" "http://www.w3.org/Graphics/SVG/1.1/DTD/svg11.dtd" >
<svg viewBox="0 -442 2048 2048">
  <g transform="matrix(1 0 0 -1 0 1606)">
   <path fill="currentColor"
d="M724 841l-46 -261h-599v22q0 26 21 47l300 296q160 158 160 299q0 89 -49 149q-55 67 -150 67q-136 0 -195 -119q98 -2 98 -83q0 -35 -26.5 -59t-64.5 -24q-94 0 -94 87q0 109 92 186q89 75 211 75q142 0 238 -74q102 -79 102 -205q0 -82 -61 -159q-32 -40 -124 -120
l-300 -259h285q97 0 110 9.5t33 125.5h59zM1642 -40q0 -131 -102 -225t-248 -94q-120 0 -206.5 78t-86.5 185q0 84 86 84q37 0 63 -22t26 -56t-26 -56t-63 -22h-10q25 -58 84.5 -95.5t129.5 -37.5q103 0 159 86q35 54 35 185q0 116 -26 169q-42 84 -125 84q-100 0 -174 -73
q-38 -38 -47 -38q-32 0 -32 38v430q0 33 25 33q10 0 22 -4q125 -40 206 -40q63 0 109 12q53 15 106 31q7 2 9 2q25 0 25 -26q0 -14 -30 -44q-111 -110 -281 -110q-60 0 -122 15v-235q80 59 188 59q135 0 224 -99q82 -91 82 -214zM1429 1415q0 -13 -6 -22l-1071 -1667
q-11 -17 -35 -17q-40 0 -40 40q0 13 6 22l1071 1667q11 17 35 17q40 0 40 -40z" />
  </g>

</svg>
