<?xml version="1.0" standalone="no"?>
<!DOCTYPE svg PUBLIC "-//W3C//DTD SVG 1.1//EN" "http://www.w3.org/Graphics/SVG/1.1/DTD/svg11.dtd" >
<svg viewBox="0 -442 2048 2048">
  <g transform="matrix(1 0 0 -1 0 1606)">
   <path fill="currentColor"
d="M1642 -40q0 -131 -102 -225t-248 -94q-120 0 -206.5 78t-86.5 185q0 84 86 84q37 0 63 -22t26 -56t-26 -56t-63 -22h-10q25 -58 84.5 -95.5t129.5 -37.5q103 0 159 86q35 54 35 185q0 116 -26 169q-42 84 -125 84q-100 0 -174 -73q-38 -38 -47 -38q-32 0 -32 38v430
q0 33 25 33q10 0 22 -4q125 -40 206 -40q63 0 109 12q53 15 106 31q7 2 9 2q25 0 25 -26q0 -14 -30 -44q-111 -110 -281 -110q-60 0 -122 15v-235q80 59 188 59q135 0 224 -99q82 -91 82 -214zM735 827q0 -120 -107 -201q-100 -76 -235 -76q-121 0 -216 56q-110 65 -110 171
q0 90 97 90q42 0 70 -24.5t28 -62.5q0 -82 -93 -87q74 -85 219 -85q88 0 131 72q35 58 35 147q0 220 -176 220h-81q-35 0 -35 26q0 25 94 30q87 5 130 67t43 153q0 146 -140 146q-123 0 -187 -67q86 -8 86 -79q0 -80 -89 -80q-90 0 -90 81q0 94 97 150q83 49 190 49
q109 0 196 -49q102 -57 102 -152q0 -79 -57 -147q-52 -62 -136 -95q100 -27 164 -92q70 -70 70 -161zM1419 1415q0 -13 -6 -22l-1071 -1667q-11 -17 -35 -17q-40 0 -40 40q0 13 6 22l1071 1667q11 17 35 17q40 0 40 -40z" />
  </g>

</svg>
