<?xml version="1.0" standalone="no"?>
<!DOCTYPE svg PUBLIC "-//W3C//DTD SVG 1.1//EN" "http://www.w3.org/Graphics/SVG/1.1/DTD/svg11.dtd" >
<svg viewBox="0 -442 2048 2048">
  <g transform="matrix(1 0 0 -1 0 1606)">
   <path fill="currentColor"
d="M757 809h-156v-120q0 -18 5 -27q11 -20 147 -19v-64q-78 5 -117 5h-213q-36 0 -114 -5v64l58 -1q76 0 88 20q6 10 6 27v120h-416v56l481 653q15 21 40 21q35 0 35 -47v-620h156v-63zM1642 -40q0 -131 -102 -225t-248 -94q-120 0 -206.5 78t-86.5 185q0 84 86 84
q37 0 63 -22t26 -56t-26 -56t-63 -22h-10q25 -58 84.5 -95.5t129.5 -37.5q103 0 159 86q35 54 35 185q0 116 -26 169q-42 84 -125 84q-100 0 -174 -73q-38 -38 -47 -38q-32 0 -32 38v430q0 33 25 33q10 0 22 -4q125 -40 206 -40q63 0 109 12q53 15 106 31q7 2 9 2
q25 0 25 -26q0 -14 -30 -44q-111 -110 -281 -110q-60 0 -122 15v-235q80 59 188 59q135 0 224 -99q82 -91 82 -214zM1439 1415q0 -13 -6 -22l-1071 -1667q-11 -17 -35 -17q-40 0 -40 40q0 13 6 22l1071 1667q11 17 35 17q40 0 40 -40zM470 872v476l-352 -476h352z" />
  </g>

</svg>
