<?xml version="1.0" standalone="no"?>
<!DOCTYPE svg PUBLIC "-//W3C//DTD SVG 1.1//EN" "http://www.w3.org/Graphics/SVG/1.1/DTD/svg11.dtd" >
<svg viewBox="0 -442 2048 2048">
  <g transform="matrix(1 0 0 -1 0 1606)">
   <path fill="currentColor"
d="M668 579q-67 5 -112 5h-302q-45 0 -112 -5v64q16 0 37 -1t30 -1q109 0 123 24q5 9 5 30v708q-80 -31 -204 -31v62q193 0 290 89h12q38 0 38 -45v-786q0 -18 5 -28q11 -22 190 -21v-64zM1655 -36q0 -131 -92 -225q-95 -98 -240 -98q-187 0 -273 170q-63 124 -63 309
q0 138 57 254q65 130 188 195q85 45 176 45q87 0 144 -38q65 -42 65 -120t-82 -78t-82 74q0 64 73 71q-42 37 -115 37q-57 0 -111 -30q-146 -82 -152 -354q68 107 184 107q142 0 235 -98q88 -93 88 -221zM1439 1415q0 -13 -6 -22l-1071 -1667q-11 -17 -35 -17q-40 0 -40 40
q0 13 6 22l1071 1667q11 17 35 17q40 0 40 -40zM1495 -72v69q0 102 -28 153q-44 81 -135 81t-141 -80q-41 -66 -41 -157q0 -135 27 -196q44 -99 146 -99q99 0 146 85q26 48 26 144z" />
  </g>

</svg>
