<?xml version="1.0" standalone="no"?>
<!DOCTYPE svg PUBLIC "-//W3C//DTD SVG 1.1//EN" "http://www.w3.org/Graphics/SVG/1.1/DTD/svg11.dtd" >
<svg viewBox="0 -442 2048 2048">
  <g transform="matrix(1 0 0 -1 0 1606)">
   <path fill="currentColor"
d="M1655 -36q0 -131 -92 -225q-95 -98 -240 -98q-187 0 -273 170q-63 124 -63 309q0 138 57 254q65 130 188 195q85 45 176 45q87 0 144 -38q65 -42 65 -120t-82 -78t-82 74q0 64 73 71q-42 37 -115 37q-57 0 -111 -30q-146 -82 -152 -354q68 107 184 107q142 0 235 -98
q88 -93 88 -221zM722 869q0 -131 -102 -225t-248 -94q-120 0 -206.5 78t-86.5 185q0 84 86 84q37 0 63 -22t26 -56t-26 -56t-63 -22h-10q25 -58 84.5 -95.5t129.5 -37.5q103 0 159 86q35 54 35 185q0 116 -26 169q-42 84 -125 84q-100 0 -174 -73q-38 -38 -47 -38
q-32 0 -32 38v430q0 33 25 33q10 0 22 -4q125 -40 206 -40q63 0 109 12q53 15 106 31q7 2 9 2q25 0 25 -26q0 -14 -30 -44q-111 -110 -281 -110q-60 0 -122 15v-235q80 59 188 59q135 0 224 -99q82 -91 82 -214zM1429 1415q0 -13 -6 -22l-1071 -1667q-11 -17 -35 -17
q-40 0 -40 40q0 13 6 22l1071 1667q11 17 35 17q40 0 40 -40zM1495 -72v69q0 102 -28 153q-44 81 -135 81t-141 -80q-41 -66 -41 -157q0 -135 27 -196q44 -99 146 -99q99 0 146 85q26 48 26 144z" />
  </g>

</svg>
