<?xml version="1.0" standalone="no"?>
<!DOCTYPE svg PUBLIC "-//W3C//DTD SVG 1.1//EN" "http://www.w3.org/Graphics/SVG/1.1/DTD/svg11.dtd" >
<svg viewBox="0 -442 2048 2048">
  <g transform="matrix(1 0 0 -1 0 1606)">
   <path fill="currentColor"
d="M1655 -87q0 -118 -104 -197q-98 -75 -231 -75q-128 0 -225 64q-108 71 -108 185q0 157 213 257q-35 19 -100 66q-71 68 -71 160q0 104 90 174q86 67 203 67q112 0 197 -55q95 -62 95 -161q0 -128 -178 -216q50 -25 139 -90q80 -79 80 -179zM1439 1415q0 -13 -6 -22
l-1071 -1667q-11 -17 -35 -17q-40 0 -40 40q0 13 6 22l1071 1667q11 17 35 17q40 0 40 -40zM735 827q0 -120 -107 -201q-100 -76 -235 -76q-121 0 -216 56q-110 65 -110 171q0 90 97 90q42 0 70 -24.5t28 -62.5q0 -82 -93 -87q74 -85 219 -85q88 0 131 72q35 58 35 147
q0 220 -176 220h-81q-35 0 -35 26q0 25 94 30q87 5 130 67t43 153q0 146 -140 146q-123 0 -187 -67q86 -8 86 -79q0 -80 -89 -80q-90 0 -90 81q0 94 97 150q83 49 190 49q109 0 196 -49q102 -57 102 -152q0 -79 -57 -147q-52 -62 -136 -95q100 -27 164 -92q70 -70 70 -161z
M1525 398q0 69 -61.5 115.5t-143.5 46.5q-77 0 -136 -35q-67 -38 -67 -98q0 -55 75 -103q34 -22 187 -109q146 77 146 183zM1558 -135q0 74 -114 143q-51 31 -187 104q-172 -86 -172 -222q0 -81 72 -137q69 -54 165 -54q90 0 160 45q76 48 76 121z" />
  </g>

</svg>
