<?xml version="1.0" standalone="no"?>
<!DOCTYPE svg PUBLIC "-//W3C//DTD SVG 1.1//EN" "http://www.w3.org/Graphics/SVG/1.1/DTD/svg11.dtd" >
<svg viewBox="0 -442 2048 2048">
  <g transform="matrix(1 0 0 -1 0 1606)">
   <path fill="currentColor"
d="M1655 -87q0 -118 -104 -197q-98 -75 -231 -75q-128 0 -225 64q-108 71 -108 185q0 157 213 257q-35 19 -100 66q-71 68 -71 160q0 104 90 174q86 67 203 67q112 0 197 -55q95 -62 95 -161q0 -128 -178 -216q50 -25 139 -90q80 -79 80 -179zM722 869q0 -131 -102 -225
t-248 -94q-120 0 -206.5 78t-86.5 185q0 84 86 84q37 0 63 -22t26 -56t-26 -56t-63 -22h-10q25 -58 84.5 -95.5t129.5 -37.5q103 0 159 86q35 54 35 185q0 116 -26 169q-42 84 -125 84q-100 0 -174 -73q-38 -38 -47 -38q-32 0 -32 38v430q0 33 25 33q10 0 22 -4
q125 -40 206 -40q63 0 109 12q53 15 106 31q7 2 9 2q25 0 25 -26q0 -14 -30 -44q-111 -110 -281 -110q-60 0 -122 15v-235q80 59 188 59q135 0 224 -99q82 -91 82 -214zM1429 1415q0 -13 -6 -22l-1071 -1667q-11 -17 -35 -17q-40 0 -40 40q0 13 6 22l1071 1667q11 17 35 17
q40 0 40 -40zM1525 398q0 69 -61.5 115.5t-143.5 46.5q-77 0 -136 -35q-67 -38 -67 -98q0 -55 75 -103q34 -22 187 -109q146 77 146 183zM1558 -135q0 74 -114 143q-51 31 -187 104q-172 -86 -172 -222q0 -81 72 -137q69 -54 165 -54q90 0 160 45q76 48 76 121z" />
  </g>

</svg>
