<?xml version="1.0" standalone="no"?>
<!DOCTYPE svg PUBLIC "-//W3C//DTD SVG 1.1//EN" "http://www.w3.org/Graphics/SVG/1.1/DTD/svg11.dtd" >
<svg viewBox="0 -442 2048 2048">
  <g transform="matrix(1 0 0 -1 0 1606)">
   <path fill="currentColor"
d="M1655 -87q0 -118 -104 -197q-98 -75 -231 -75q-128 0 -225 64q-108 71 -108 185q0 157 213 257q-35 19 -100 66q-71 68 -71 160q0 104 90 174q86 67 203 67q112 0 197 -55q95 -62 95 -161q0 -128 -178 -216q50 -25 139 -90q80 -79 80 -179zM746 1473q0 -26 -16 -46
l-212 -262q-73 -91 -97 -253q-14 -94 -14 -276q0 -86 -82 -86t-82 86q0 258 194 527q1 1 161 203h-353q-84 0 -97 -7t-35 -128h-60l56 306h56q2 -17 9 -24q20 -20 182 -20h390v-20zM1399 1415q0 -13 -6 -22l-1071 -1667q-11 -17 -35 -17q-40 0 -40 40q0 13 6 22l1071 1667
q11 17 35 17q40 0 40 -40zM1525 398q0 69 -61.5 115.5t-143.5 46.5q-77 0 -136 -35q-67 -38 -67 -98q0 -55 75 -103q34 -22 187 -109q146 77 146 183zM1558 -135q0 74 -114 143q-51 31 -187 104q-172 -86 -172 -222q0 -81 72 -137q69 -54 165 -54q90 0 160 45q76 48 76 121z
" />
  </g>

</svg>
