<?xml version="1.0" standalone="no"?>
<!DOCTYPE svg PUBLIC "-//W3C//DTD SVG 1.1//EN" "http://www.w3.org/Graphics/SVG/1.1/DTD/svg11.dtd" >
<svg viewBox="0 -442 2048 2048">
  <g transform="matrix(1 0 0 -1 0 1606)">
   <path fill="currentColor"
d="M1272 0q-71 6 -111 6h-987q-35 0 -106 -6v61q9 0 28 -1h29q128 0 147 36q9 17 9 49v1056q0 32 -9 49q-18 34 -153 34h-51v62q70 -6 109 -6h990q35 0 105 6v-62q-12 0 -37 1t-38 1q-140 0 -140 -85v-1057q0 -27 11 -48q16 -29 94 -35q8 -1 110 0v-61zM883 145v1056
q0 32 -9 49q-15 29 -95 34h-109q-13 0 -37.5 1t-37.5 1q-140 0 -140 -85v-1057q0 -57 50 -75q27 -9 99 -9q11 0 33 1h33h110q78 6 94 35q9 17 9 49z" />
  </g>

</svg>
