<?xml version="1.0" standalone="no"?>
<!DOCTYPE svg PUBLIC "-//W3C//DTD SVG 1.1//EN" "http://www.w3.org/Graphics/SVG/1.1/DTD/svg11.dtd" >
<svg viewBox="0 -442 2070 2048">
  <g transform="matrix(1 0 0 -1 0 1606)">
   <path fill="currentColor"
d="M2070 1284q-164 -1 -214 -132l-440 -1158q-14 -37 -48 -37q-31 0 -47 43l-457 1209q-22 57 -81 71q-27 6 -113 4q-14 0 -37 1q-27 1 -38 1q-140 0 -140 -85v-1057q0 -27 11 -48q19 -36 204 -35v-61q-71 6 -117 6h-373q-41 0 -112 -6v61q9 0 28 -1h29q128 0 147 36
q9 17 9 49v1056q0 32 -9 49q-15 29 -95 34h-109v62q70 -6 115 -6h850q90 0 169 6v-62h-18q-144 0 -144 -56q0 -33 175 -486q107 -273 213 -545l361 950q9 24 9 40q0 94 -143 97v62q153 -6 223 -6q99 0 192 6v-62z" />
  </g>

</svg>
