<?xml version="1.0" standalone="no"?>
<!DOCTYPE svg PUBLIC "-//W3C//DTD SVG 1.1//EN" "http://www.w3.org/Graphics/SVG/1.1/DTD/svg11.dtd" >
<svg viewBox="0 -442 2048 2048">
  <g transform="matrix(1 0 0 -1 0 1606)">
   <path fill="currentColor"
d="M1468 1284q-164 -1 -214 -132l-440 -1158q-14 -37 -48 -37q-31 0 -47 43l-457 1209q-22 57 -81 71q-29 7 -113 4v62q214 -6 344 -6q114 0 188 6v-62h-18q-144 0 -144 -56q0 -33 175 -486q107 -273 213 -545l361 950q9 24 9 40q0 95 -143 97v62q153 -6 223 -6q99 0 192 6
v-62z" />
  </g>

</svg>
