<?xml version="1.0" standalone="no"?>
<!DOCTYPE svg PUBLIC "-//W3C//DTD SVG 1.1//EN" "http://www.w3.org/Graphics/SVG/1.1/DTD/svg11.dtd" >
<svg viewBox="0 -442 2672 2048">
  <g transform="matrix(1 0 0 -1 0 1606)">
   <path fill="currentColor"
d="M2672 0q-71 6 -117 6h-975q-41 0 -112 -6v61q9 0 29 -1h28q128 0 147 36q9 17 9 49v1056q0 56 -40 73q-23 10 -91 10q-130 0 -175 -14q-86 -25 -121 -118l-440 -1158q-14 -37 -48 -37q-31 0 -47 43l-457 1209q-22 57 -81 71q-28 7 -113 4v62q213 -6 344 -6q114 0 188 6
v-62h-18q-144 0 -144 -56q0 -33 175 -486q107 -273 213 -545l361 950q9 24 9 40q0 94 -143 97v62q153 -6 213 -6h1295q41 0 111 6v-62q-11 0 -36.5 1t-38.5 1q-140 0 -140 -85v-1057q0 -28 11 -48q20 -36 204 -35v-61zM2283 145v1056q0 32 -9 49q-15 29 -95 34h-109
q-13 0 -37.5 1t-37.5 1q-140 0 -140 -85v-1057q0 -57 50 -75q27 -9 99 -9q11 0 33 1h33h110q78 6 94 35q9 17 9 49z" />
  </g>

</svg>
