<?xml version="1.0" standalone="no"?>
<!DOCTYPE svg PUBLIC "-//W3C//DTD SVG 1.1//EN" "http://www.w3.org/Graphics/SVG/1.1/DTD/svg11.dtd" >
<svg viewBox="0 -442 2052 2048">
  <g transform="matrix(1 0 0 -1 0 1606)">
   <path fill="currentColor"
d="M2052 0q-127 6 -360 6q-111 0 -183 -6v61q128 5 128 59q0 10 -320 493l-281 -414q-19 -28 -19 -48q0 -43 42 -68q35 -21 81 -22v-61q-74 6 -169 6h-791q-41 0 -112 -6v61q9 0 29 -1h28q128 0 147 36q9 17 9 49v1056q0 31 -9 49q-14 28 -94 34h-110v62q70 -6 115 -6h376
q41 0 111 6v-62q-11 0 -36.5 1t-38.5 1q-140 0 -140 -85v-1057q0 -57 50 -75q27 -9 99 -9q134 0 196 18q96 27 155 114l323 477l-362 547q-34 51 -99 64q-33 6 -122 4v62q112 -6 347 -6q125 0 197 6v-62q-128 -5 -128 -58q0 -14 268 -410l225 333q17 25 17 46q0 43 -41 67
q-34 21 -80 22v62q81 -6 222 -6q26 0 248 6v-62q-198 -2 -285 -128l-271 -395l416 -629q35 -53 99 -66q33 -7 123 -5v-61z" />
  </g>

</svg>
