<?xml version="1.0" standalone="no"?>
<!DOCTYPE svg PUBLIC "-//W3C//DTD SVG 1.1//EN" "http://www.w3.org/Graphics/SVG/1.1/DTD/svg11.dtd" >
<svg viewBox="0 -442 2052 2048">
  <g transform="matrix(1 0 0 -1 0 1606)">
   <path fill="currentColor"
d="M2052 0q-71 6 -117 6h-856q-100 0 -172 -6v61q128 5 128 59q0 10 -320 493l-281 -414q-19 -28 -19 -48q0 -43 42 -68q35 -21 81 -22v-61q-74 6 -191 6q-65 0 -279 -6v61q196 0 285 131l323 477l-362 547q-34 51 -99 64q-32 6 -122 4v62q112 -6 298 -6q174 0 246 6v-62
q-128 -5 -128 -58q0 -14 268 -410l225 333q17 25 17 46q0 43 -41 67q-34 21 -80 22v62q81 -6 222 -6q26 0 248 6v-62q-198 -2 -285 -128l-271 -395l416 -629q35 -53 99 -66q32 -6 123 -5h29q20 -1 28 -1q128 0 147 36q9 17 9 49v1056q0 32 -9 49q-15 29 -94 34h-110v62
q70 -6 115 -6h376q41 0 111 6v-62q-11 0 -36.5 1t-38.5 1q-140 0 -140 -85v-1057q0 -28 11 -48q20 -36 204 -35v-61z" />
  </g>

</svg>
