<?xml version="1.0" standalone="no"?>
<!DOCTYPE svg PUBLIC "-//W3C//DTD SVG 1.1//EN" "http://www.w3.org/Graphics/SVG/1.1/DTD/svg11.dtd" >
<svg viewBox="0 -442 2048 2048">
  <g transform="matrix(1 0 0 -1 0 1606)">
   <path fill="currentColor"
d="M1283 1276q0 -48 -33.5 -81.5t-81.5 -33.5q-46 0 -79 34.5t-33 80.5q0 45 33.5 79t78.5 34q48 0 81.5 -33t33.5 -80zM826 1276q0 -48 -33.5 -81.5t-81.5 -33.5q-46 0 -79 34.5t-33 80.5q0 45 33.5 79t78.5 34q48 0 81.5 -33t33.5 -80zM369 1276q0 -48 -33.5 -81.5
t-81.5 -33.5q-46 0 -79 34.5t-33 80.5q0 45 33.5 79t78.5 34q48 0 81.5 -33t33.5 -80zM1424 0q-202 6 -223 6q-39 0 -118 -3t-116 -3q-39 0 -111 3q-75 3 -112 3q-39 0 -118 -3t-116 -3q-39 0 -111 3q-75 3 -112 3q-41 0 -234 -6v66q51 -1 44 -1q66 0 89 13q33 18 33 79v582
q0 85 -41 105q-23 12 -117 11v68l298 23v-802q0 -59 51 -73q22 -6 100 -5h22q15 -1 22 -1q66 0 89 13q33 18 33 79v582q0 85 -41 105q-23 12 -117 11v68l298 23v-802q0 -59 51 -73q22 -6 100 -5h22q15 -1 22 -1q66 0 89 13q33 18 33 79v582q0 85 -41 105q-23 12 -117 11v68
l298 23v-802q0 -59 51 -73q24 -7 100 -5v-66z" />
  </g>

</svg>
