<?xml version="1.0" standalone="no"?>
<!DOCTYPE svg PUBLIC "-//W3C//DTD SVG 1.1//EN" "http://www.w3.org/Graphics/SVG/1.1/DTD/svg11.dtd" >
<svg viewBox="0 -442 2048 2048">
  <g transform="matrix(1 0 0 -1 0 1606)">
   <path fill="currentColor"
d="M1407 1276q0 -48 -33.5 -81.5t-81.5 -33.5q-46 0 -79 34.5t-33 80.5q0 45 33.5 79t78.5 34q48 0 81.5 -33t33.5 -80zM1548 0q-202 6 -223 6q-41 0 -234 -6v66q51 -1 44 -1q66 0 89 13q33 18 33 79v582q0 85 -41 105q-23 12 -117 11q-142 -1 -198 -142l-279 -697
q-16 -40 -45 -40t-45 40l-309 760q-24 60 -68 73q-21 7 -102 6v68q120 -8 207 -8q1 0 233 8v-68q-122 0 -122 -54q0 -15 252 -634l219 546q13 32 13 50q0 90 -102 92v68q135 -8 185 -8q57 0 161 8l298 23v-802q0 -59 51 -73q24 -7 100 -5v-66z" />
  </g>

</svg>
