<?xml version="1.0" standalone="no"?>
<!DOCTYPE svg PUBLIC "-//W3C//DTD SVG 1.1//EN" "http://www.w3.org/Graphics/SVG/1.1/DTD/svg11.dtd" >
<svg viewBox="0 -442 2048 2048">
  <g transform="matrix(1 0 0 -1 0 1606)">
   <path fill="currentColor"
d="M1447 1276q0 -48 -33.5 -81.5t-81.5 -33.5q-46 0 -79 34.5t-33 80.5q0 45 33.5 79t78.5 34q48 0 81.5 -33t33.5 -80zM1588 0q-202 6 -223 6q-41 0 -234 -6q-91 6 -206 6q-54 0 -231 -6v66q77 3 77 54q0 10 -208 285q-192 -223 -192 -272q0 -61 62 -67v-66q-141 6 -203 6
q-98 0 -177 -6v66q159 0 274 128q67 85 200 256l-212 276q-71 92 -103 109q-36 20 -149 20v68q110 -8 202 -8q30 0 233 8v-68q-75 -2 -75 -52q0 -20 184 -255l134 167q33 41 33 75q0 61 -63 65v68q108 -8 204 -8q73 0 177 8v-68q-152 -3 -255 -109q-26 -27 -197 -244
l287 -369q37 -47 92 -60q32 -7 112 -7h22q15 -1 22 -1q66 0 89 13q33 18 33 79v582q0 85 -41 105q-23 12 -117 11v68l298 23v-802q0 -59 51 -73q24 -7 100 -5v-66z" />
  </g>

</svg>
