<?xml version="1.0" standalone="no"?>
<!DOCTYPE svg PUBLIC "-//W3C//DTD SVG 1.1//EN" "http://www.w3.org/Graphics/SVG/1.1/DTD/svg11.dtd" >
<svg viewBox="0 -442 2143 2048">
  <g transform="matrix(1 0 0 -1 0 1606)">
   <path fill="currentColor"
d="M2143 662q0 -264 -168 -458q-176 -204 -436 -204h-867q-260 0 -436 204q-168 194 -168 458q0 268 165 468q176 213 439 213h867q263 0 439 -213q165 -200 165 -468zM1946 662q0 292 -103 437q-129 182 -359 182h-207q-53 0 -67 -11q-20 -15 -20 -68v-209h150
q131 0 219 -107q83 -100 83 -234q0 -132 -84 -229q-88 -102 -218 -102h-150v-181q0 -53 20 -68q15 -11 67 -11h209q225 0 350 168q110 148 110 433zM1464 652q0 280 -231 280q-27 0 -35 -7t-8 -33v-471q0 -39 44 -39q230 0 230 270zM1021 421v471q0 26 -8 33t-34 7
q-231 0 -231 -280q0 -270 230 -270q43 0 43 39zM1021 140v181h-150q-130 0 -218 102q-84 97 -84 229q0 134 83 234q88 107 219 107h150v209q0 53 -20 68q-14 11 -67 11h-207q-230 0 -359 -182q-103 -145 -103 -437q0 -285 110 -433q125 -168 350 -168h209q52 0 67 11
q20 15 20 68z" />
  </g>

</svg>
