<?xml version="1.0" standalone="no"?>
<!DOCTYPE svg PUBLIC "-//W3C//DTD SVG 1.1//EN" "http://www.w3.org/Graphics/SVG/1.1/DTD/svg11.dtd" >
<svg viewBox="0 -442 2048 2048">
  <g transform="matrix(1 0 0 -1 0 1606)">
   <path fill="currentColor"
d="M1267 673q0 -290 -196 -501q-200 -215 -488 -215q-206 0 -360 148t-154 353q0 35 24 35q19 0 23 -33q10 -88 27 -140q43 -133 159 -218t256 -85q89 0 185 41q322 138 322 614q0 461 -298 606q-103 50 -207 50q-130 0 -234 -85q-96 -78 -147 -205q-22 -56 -47 -178
q-6 -32 -33 -32q-31 0 -31 26l1 503q0 33 21 33q14 0 31 -25l99 -144q170 169 363 169q287 0 488 -216q196 -212 196 -501z" />
  </g>

</svg>
