<?xml version="1.0" standalone="no"?>
<!DOCTYPE svg PUBLIC "-//W3C//DTD SVG 1.1//EN" "http://www.w3.org/Graphics/SVG/1.1/DTD/svg11.dtd" >
<svg viewBox="0 -442 2048 2048">
  <g transform="matrix(1 0 0 -1 0 1606)">
   <path fill="currentColor"
d="M1286 1246q0 -7 -6 -20l-93 -196q-11 -23 -27 -23q-32 0 -28 30q2 12 2 24q0 126 -164 213q-101 54 -193 54q-104 0 -198 -46q-170 -83 -244 -228q-65 -129 -65 -331q0 -203 66 -331q74 -145 246 -228q97 -47 206 -47q288 0 359 290h121v-809h-174v583
q-110 -124 -338 -124q-292 0 -488 186q-200 190 -200 480q0 287 198 477t486 190q238 0 423 -144q62 23 84 23q27 0 27 -23z" />
  </g>

</svg>
