<?xml version="1.0" standalone="no"?>
<!DOCTYPE svg PUBLIC "-//W3C//DTD SVG 1.1//EN" "http://www.w3.org/Graphics/SVG/1.1/DTD/svg11.dtd" >
<svg viewBox="0 -442 2048 2048">
  <g transform="matrix(1 0 0 -1 0 1606)">
   <path fill="currentColor"
d="M1486 662q0 -264 -168 -458q-176 -204 -436 -204h-814v61q68 -2 62 -2q108 0 130 31q10 14 10 52v1060q0 36 -10 50q-23 33 -192 29v62h814q263 0 439 -213q165 -200 165 -468zM1289 662q0 292 -103 437q-129 182 -359 182h-301q-53 0 -67 -11q-20 -15 -20 -68v-31h278
q208 0 342 -166q120 -150 120 -343q0 -188 -123 -333q-133 -158 -337 -158h-280v-31q0 -53 20 -68q15 -11 67 -11h303q225 0 350 168q110 148 110 433zM1001 652q0 172 -108 304q-119 147 -304 147h-150v-110h150q131 0 219 -107q83 -100 83 -234q0 -132 -84 -229
q-88 -102 -218 -102h-150v-110h150q181 0 301 140q111 130 111 301zM713 652q0 280 -231 280q-27 0 -35 -7t-8 -33v-471q0 -39 44 -39q230 0 230 270z" />
  </g>

</svg>
