<?xml version="1.0" standalone="no"?>
<!DOCTYPE svg PUBLIC "-//W3C//DTD SVG 1.1//EN" "http://www.w3.org/Graphics/SVG/1.1/DTD/svg11.dtd" >
<svg viewBox="0 -442 2331 2048">
  <g transform="matrix(1 0 0 -1 0 1606)">
   <path fill="currentColor"
d="M2331 662q0 -264 -168 -458q-176 -204 -436 -204h-1055q-260 0 -436 204q-168 194 -168 458q0 268 165 468q176 213 439 213h1055q263 0 439 -213q165 -200 165 -468zM2134 662q0 292 -103 437q-129 182 -359 182h-301q-53 0 -67 -11q-20 -15 -20 -68v-31h278
q208 0 342 -166q120 -150 120 -343q0 -188 -123 -333q-133 -158 -337 -158h-280v-31q0 -53 20 -68q15 -11 67 -11h303q225 0 350 168q110 148 110 433zM1846 652q0 172 -108 304q-119 147 -304 147h-150v-110h150q131 0 219 -107q83 -100 83 -234q0 -132 -84 -229
q-88 -102 -218 -102h-150v-110h150q181 0 301 140q111 130 111 301zM1558 652q0 280 -231 280q-27 0 -35 -7t-8 -33v-471q0 -39 44 -39q230 0 230 270zM1115 421v471q0 26 -8 33t-34 7q-231 0 -231 -280q0 -270 230 -270q43 0 43 39zM1115 211v110h-150q-130 0 -218 102
q-84 97 -84 229q0 134 83 234q88 107 219 107h150v110h-150q-185 0 -304 -147q-108 -132 -108 -304q0 -171 111 -301q120 -140 301 -140h150zM1115 140v31h-280q-204 0 -337 158q-123 145 -123 333q0 193 120 343q134 166 342 166h278v31q0 53 -20 68q-14 11 -67 11h-301
q-230 0 -359 -182q-103 -145 -103 -437q0 -285 110 -433q125 -168 350 -168h303q52 0 67 11q20 15 20 68z" />
  </g>

</svg>
