<?xml version="1.0" standalone="no"?>
<!DOCTYPE svg PUBLIC "-//W3C//DTD SVG 1.1//EN" "http://www.w3.org/Graphics/SVG/1.1/DTD/svg11.dtd" >
<svg viewBox="0 -442 2048 2048">
  <g transform="matrix(1 0 0 -1 0 1606)">
   <path fill="currentColor"
d="M1655 -82q0 -120 -107 -201q-100 -76 -235 -76q-121 0 -216 56q-110 65 -110 171q0 90 97 90q42 0 70 -24.5t28 -62.5q0 -82 -93 -87q74 -85 219 -85q88 0 131 72q35 58 35 147q0 220 -176 220h-81q-35 0 -35 26q0 25 94 30q87 5 130 67t43 153q0 146 -140 146
q-123 0 -187 -67q86 -8 86 -79q0 -80 -89 -80q-90 0 -90 81q0 94 97 150q83 49 190 49q109 0 196 -49q102 -57 102 -152q0 -79 -57 -147q-52 -62 -136 -95q100 -27 164 -92q70 -70 70 -161zM739 1033q0 -210 -59 -317q-91 -166 -280 -166q-183 0 -274 160q-63 111 -63 330
q0 210 59 317q91 166 280 166q183 0 274 -160q63 -111 63 -330zM1419 1415q0 -13 -6 -22l-1071 -1667q-11 -17 -35 -17q-40 0 -40 40q0 13 6 22l1071 1667q11 17 35 17q40 0 40 -40zM590 965v173q0 335 -190 335t-190 -365v-173q0 -335 190 -335t190 365z" />
  </g>

</svg>
