<?xml version="1.0" standalone="no"?>
<!DOCTYPE svg PUBLIC "-//W3C//DTD SVG 1.1//EN" "http://www.w3.org/Graphics/SVG/1.1/DTD/svg11.dtd" >
<svg viewBox="0 -442 2048 2048">
  <g transform="matrix(1 0 0 -1 0 1606)">
   <path fill="currentColor"
d="M989 194q0 -14 -14 -18q-76 -23 -108 -36q-51 -22 -100 -57q-95 -68 -155 -166q-46 -75 -67 -163q-3 -18 -10 -54q-5 -18 -23 -18t-22 18t-11 54q-21 88 -67 163q-109 177 -304 243q-20 4 -59 16q-14 5 -14 63q0 18 22 18l6 -2q102 -28 158 -57q158 -82 250 -233v1234
q-68 -111 -175 -187q-92 -65 -233 -103q-2 -1 -6 -2q-22 0 -22 63q0 13 14 18q20 5 59 16q194 66 304 244q44 72 65 154q3 21 12 62q5 18 23 18q19 0 23 -18q4 -22 13 -66q34 -133 133 -239q96 -103 219 -149q25 -7 75 -22q14 -5 14 -63q0 -18 -22 -18l-6 2
q-139 38 -232 103q-108 76 -176 187v-1234q67 110 176 187q92 65 232 103q2 1 6 2q20 0 23 -24q-1 9 -1 -39z" />
  </g>

</svg>
