<?xml version="1.0" standalone="no"?>
<!DOCTYPE svg PUBLIC "-//W3C//DTD SVG 1.1//EN" "http://www.w3.org/Graphics/SVG/1.1/DTD/svg11.dtd" >
<svg viewBox="0 -442 2048 2048">
  <g transform="matrix(1 0 0 -1 0 1606)">
   <path fill="currentColor"
d="M1931 582q0 -14 -15 -20t-46 -18q-190 -83 -296 -265q-41 -70 -79 -213q-2 -7 -8 -13t-53 -6q-21 0 -21 27q0 2 8 36q65 274 287 431h-860l-257 -445q-23 -40 -46 -40q-41 0 -41 38q0 15 16 43l233 404h-599q-39 0 -39 41t39 41h647l257 446q23 39 45 39q41 0 41 -38
q0 -16 -15 -42l-234 -405h813q-154 111 -238 288q-57 121 -57 179q0 24 21 28q-3 -1 41 -1q15 0 20 -19q14 -55 54 -163q105 -217 317 -310l40 -14q25 -11 25 -29z" />
  </g>

</svg>
