<?xml version="1.0" standalone="no"?>
<!DOCTYPE svg PUBLIC "-//W3C//DTD SVG 1.1//EN" "http://www.w3.org/Graphics/SVG/1.1/DTD/svg11.dtd" >
<svg viewBox="0 -442 2048 2048">
  <g transform="matrix(1 0 0 -1 0 1606)">
   <path fill="currentColor"
d="M1980 582q0 -14 -11 -27q-105 -121 -164 -167q-101 -78 -206 -78q-103 0 -205 78q-59 46 -166 167q-96 109 -148 150q-83 65 -163 65q-82 0 -230 -106q-171 -123 -276 -123h-73q244 -175 295 -467q0 -27 -20 -27h-41q-18 0 -21 19q-31 171 -144.5 304.5t-276.5 188.5
q-15 8 -15 23q0 16 15 20q163 57 276.5 191t144.5 305q3 19 21 19h41q20 0 20 -27q-51 -292 -295 -467h73q84 0 229 106q168 123 277 123q104 0 205 -77q63 -48 167 -166q95 -108 148 -151q84 -66 162 -66q80 0 163 66q50 41 148 151q12 14 31 14q39 0 39 -41z" />
  </g>

</svg>
