<?xml version="1.0" standalone="no"?>
<!DOCTYPE svg PUBLIC "-//W3C//DTD SVG 1.1//EN" "http://www.w3.org/Graphics/SVG/1.1/DTD/svg11.dtd" >
<svg viewBox="0 -442 2048 2048">
  <g transform="matrix(1 0 0 -1 0 1606)">
   <path fill="currentColor"
d="M989 1516q0 -41 -63 -41h-828q-63 0 -63 41q0 40 63 40h828q63 0 63 -40zM989 120q0 -13 -14 -19q-22 -6 -65 -19q-132 -46 -229.5 -150.5t-132.5 -238.5q-3 -23 -13 -67q-6 -18 -23 -18q-19 0 -23 18q-4 22 -13 66q-35 135 -132.5 239.5t-229.5 150.5q-22 6 -65 19
q-14 4 -14 64q0 18 22 18l6 -2q102 -28 160 -59q158 -84 248 -232v1481q0 37 41 37t41 -37v-1481q90 149 247 232q57 30 161 59q2 1 6 2q21 0 23 -23q-1 11 -1 -40z" />
  </g>

</svg>
