<?xml version="1.0" standalone="no"?>
<!DOCTYPE svg PUBLIC "-//W3C//DTD SVG 1.1//EN" "http://www.w3.org/Graphics/SVG/1.1/DTD/svg11.dtd" >
<svg viewBox="0 -442 2048 2048">
  <g transform="matrix(1 0 0 -1 0 1606)">
   <path fill="currentColor"
d="M1972 895q0 -244 -194 -316q-104 -38 -401 -38h-1039q222 -158 288 -432q7 -29 7 -35q0 -28 -32 -28q-43 0 -50 20q-4 16 -11 47q-37 146 -132 258q-100 118 -277 191q-16 7 -16 20q0 15 62 41q133 56 231 171q95 113 132 257q4 18 7 36q7 23 18 28q7 3 18 3q50 0 50 -28
q0 -6 -7 -35q-65 -270 -288 -432h1159q184 0 271 44q122 62 122 228q0 142 -62 207.5t-204 65.5q-17 0 -48 -5t-41 -5q-41 0 -41 44q0 48 130 48q348 0 348 -355z" />
  </g>

</svg>
