<?xml version="1.0" standalone="no"?>
<!DOCTYPE svg PUBLIC "-//W3C//DTD SVG 1.1//EN" "http://www.w3.org/Graphics/SVG/1.1/DTD/svg11.dtd" >
<svg viewBox="0 -442 2048 2048">
  <g transform="matrix(1 0 0 -1 0 1606)">
   <path fill="currentColor"
d="M1972 582q0 -13 -16 -20q-177 -73 -277 -191q-95 -112 -132 -258q-3 -16 -11 -47q-7 -20 -50 -20q-32 0 -32 28q0 6 7 35q66 274 288 432h-1039q-297 0 -401 38q-194 72 -194 316q0 355 348 355q130 0 130 -48q0 -44 -41 -44q-10 0 -41 5t-48 5q-142 0 -204 -65.5
t-62 -207.5q0 -166 122 -228q87 -44 271 -44h1159q-223 162 -288 432q-7 29 -7 35q0 28 50 28q24 0 32 -20q4 -16 11 -47q37 -144 133.5 -258t229.5 -170q62 -26 62 -41z" />
  </g>

</svg>
