<?xml version="1.0" standalone="no"?>
<!DOCTYPE svg PUBLIC "-//W3C//DTD SVG 1.1//EN" "http://www.w3.org/Graphics/SVG/1.1/DTD/svg11.dtd" >
<svg viewBox="0 -442 2048 2048">
  <g transform="matrix(1 0 0 -1 0 1606)">
   <path fill="currentColor"
d="M1972 895q0 -249 -203 -319q-102 -35 -413 -35v-520q0 -37 -41 -37t-41 37v520h-936q228 -162 288 -432q7 -31 7 -35q0 -24 -21 -27q3 0 -41 0q-14 0 -20 19q-3 16 -11 47q-17 66 -40 115q-36 77 -92 143q-108 127 -277 191q-16 6 -16 20t16 23q16 6 46 18
q221 96 323 314q23 50 40 114q3 16 11 47q5 18 25 20q-9 -1 36 -1q21 0 21 -27q0 -4 -7 -35q-59 -266 -288 -432h936v59q0 261 50 381q78 187 300 187q348 0 348 -355zM1890 895q0 142 -62 207.5t-204 65.5q-184 0 -239 -164q-29 -85 -29 -322v-59q22 0 69.5 -1t71.5 -1
q183 0 269 44q124 62 124 230z" />
  </g>

</svg>
