<?xml version="1.0" standalone="no"?>
<!DOCTYPE svg PUBLIC "-//W3C//DTD SVG 1.1//EN" "http://www.w3.org/Graphics/SVG/1.1/DTD/svg11.dtd" >
<svg viewBox="0 -442 2048 2048">
  <g transform="matrix(1 0 0 -1 0 1606)">
   <path fill="currentColor"
d="M1933 582q0 -14 -16 -20q-169 -64 -277 -191q-56 -66 -92 -143q-23 -49 -40 -115q-3 -16 -11 -47q-6 -19 -20 -19q-44 0 -41 0q-21 3 -21 27q0 4 7 35q60 270 288 432h-936v-520q0 -37 -41 -37t-41 37v520q-311 0 -413 35q-203 70 -203 319q0 355 348 355q222 0 300 -187
q50 -120 50 -381v-59h936q-229 166 -288 432q-7 31 -7 35q0 27 21 27q45 0 36 1q20 -2 24 -19t12 -48q38 -146 132.5 -257.5t230.5 -170.5q16 -5 46 -18q16 -9 16 -23zM692 623v59q0 237 -29 322q-55 164 -239 164q-142 0 -204 -65.5t-62 -207.5q0 -168 124 -230
q86 -44 269 -44q24 0 71.5 1t69.5 1z" />
  </g>

</svg>
