<?xml version="1.0" standalone="no"?>
<!DOCTYPE svg PUBLIC "-//W3C//DTD SVG 1.1//EN" "http://www.w3.org/Graphics/SVG/1.1/DTD/svg11.dtd" >
<svg viewBox="0 -442 2399 2048">
  <g transform="matrix(1 0 0 -1 0 1606)">
   <path fill="currentColor"
d="M2399 582q0 -16 -15 -20q-163 -57 -276.5 -191t-144.5 -305q-3 -19 -21 -19h-41q-20 0 -20 27q51 292 295 467h-72q-84 0 -230 -107q-168 -123 -276 -123q-104 0 -206 77q-64 48 -167 166q-96 109 -148 151q-83 66 -161 66q-81 0 -229 -106q-173 -124 -277 -124h-72
q244 -175 295 -467q0 -27 -20 -27h-41q-18 0 -21 19q-31 171 -144.5 304.5t-276.5 188.5q-15 8 -15 23q0 16 15 20q163 57 276.5 191t144.5 305q3 19 21 19h41q20 0 20 -27q-51 -292 -295 -467h72q82 0 230 108q167 122 276 122q103 0 205 -78q59 -46 166 -167
q96 -109 148 -150q83 -65 163 -65q81 0 229 106q173 124 277 124h72q-244 175 -295 467q0 27 20 27h41q18 0 21 -19q31 -171 144.5 -304.5t276.5 -188.5q15 -7 15 -23z" />
  </g>

</svg>
