<?xml version="1.0" standalone="no"?>
<!DOCTYPE svg PUBLIC "-//W3C//DTD SVG 1.1//EN" "http://www.w3.org/Graphics/SVG/1.1/DTD/svg11.dtd" >
<svg viewBox="0 -442 2445 2048">
  <g transform="matrix(1 0 0 -1 0 1606)">
   <path fill="currentColor"
d="M2445 582q0 -14 -15 -20t-46 -18q-190 -83 -296 -265q-41 -70 -79 -213q-2 -7 -8 -13t-53 -6q-21 0 -21 27q0 2 8 36q65 274 287 431h-924l-257 -445q-23 -40 -46 -40q-41 0 -41 38q0 15 16 43l233 404h-865q228 -162 288 -432q7 -31 7 -35q0 -24 -21 -27q3 0 -41 0
q-14 0 -20 19q-3 16 -11 47q-17 66 -40 115q-36 77 -92 143q-108 127 -277 191q-16 6 -16 20t16 23q16 6 46 18q221 96 323 314q23 50 40 114q3 16 11 47q5 18 25 20q-9 -1 36 -1q21 0 21 -27q0 -4 -7 -35q-59 -266 -288 -432h913l257 446q23 39 45 39q41 0 41 -38
q0 -16 -15 -42l-234 -405h877q-154 111 -238 288q-57 121 -57 179q0 24 21 28q-3 -1 41 -1q15 0 20 -19q14 -55 54 -163q105 -217 317 -310l40 -14q25 -11 25 -29z" />
  </g>

</svg>
