<?xml version="1.0" standalone="no"?>
<!DOCTYPE svg PUBLIC "-//W3C//DTD SVG 1.1//EN" "http://www.w3.org/Graphics/SVG/1.1/DTD/svg11.dtd" >
<svg viewBox="0 -442 2048 2048">
  <g transform="matrix(1 0 0 -1 0 1606)">
   <path fill="currentColor"
d="M1924 1488q0 -21 -18 -31l-992 -573l590 -400l-1113 -643q271 -6 456 -207q8 -9 8 -15q0 -14 -22 -28t-37 -14q-1 0 -60 52q-156 138 -375 138q-76 0 -144 -20q-75 -22 -71 -22q-22 0 -22 22q0 9 58 63q166 155 166 406q0 55 -10 102q-16 75 -16 71q0 12 22.5 26.5
t35.5 14.5q12 0 18 -18q29 -89 29 -201q0 -159 -77 -299l1001 579l-589 400l1103 637q7 4 17 4q42 0 42 -44z" />
  </g>

</svg>
