<?xml version="1.0" standalone="no"?>
<!DOCTYPE svg PUBLIC "-//W3C//DTD SVG 1.1//EN" "http://www.w3.org/Graphics/SVG/1.1/DTD/svg11.dtd" >
<svg viewBox="0 -442 2048 2048">
  <g transform="matrix(1 0 0 -1 0 1606)">
   <path fill="currentColor"
d="M906 41q0 -41 -41 -41t-41 41v1052h-527q126 -107 178 -251q3 -8 3 -15q0 -39 -42 -39q-24 0 -36 26q-8 19 -25 58q-76 149 -230 236q-27 15 -27 26t27 26q155 88 230 237q8 20 25 59q12 26 36 26q42 0 42 -39q0 -7 -3 -15q-52 -146 -179 -253h569q41 0 41 -41v-1093z
" />
  </g>

</svg>
