<?xml version="1.0" standalone="no"?>
<!DOCTYPE svg PUBLIC "-//W3C//DTD SVG 1.1//EN" "http://www.w3.org/Graphics/SVG/1.1/DTD/svg11.dtd" >
<svg viewBox="0 -442 2048 2048">
  <g transform="matrix(1 0 0 -1 0 1606)">
   <path fill="currentColor"
d="M906 1134q0 -11 -27 -26q-154 -87 -230 -236q-8 -19 -25 -58q-12 -26 -36 -26q-42 0 -42 39q0 7 3 15q52 144 178 251h-527v-1052q0 -41 -41 -41t-41 41v1093q0 41 41 41h569q-127 107 -179 253q-3 8 -3 15q0 39 42 39q24 0 36 -26q8 -20 25 -59q75 -149 230 -237
q27 -15 27 -26z" />
  </g>

</svg>
