<?xml version="1.0" standalone="no"?>
<!DOCTYPE svg PUBLIC "-//W3C//DTD SVG 1.1//EN" "http://www.w3.org/Graphics/SVG/1.1/DTD/svg11.dtd" >
<svg viewBox="0 -442 2048 2048">
  <g transform="matrix(1 0 0 -1 0 1606)">
   <path fill="currentColor"
d="M1972 4q0 -45 -41 -45t-41 37q0 160 -49 320q-77 251 -244 403q-184 168 -432 168q-295 0 -509.5 -207.5t-217.5 -501.5q107 127 253 179q8 3 15 3q39 0 39 -42q0 -24 -26 -36q-20 -8 -59 -25q-149 -75 -237 -230q-15 -27 -26 -27t-26 27q-87 154 -236 230q-19 8 -58 25
q-26 12 -26 36q0 42 39 42q7 0 15 -3q144 -52 251 -178q2 328 242 560q237 230 567 230q361 0 594 -309q213 -283 213 -656z" />
  </g>

</svg>
