<?xml version="1.0" standalone="no"?>
<!DOCTYPE svg PUBLIC "-//W3C//DTD SVG 1.1//EN" "http://www.w3.org/Graphics/SVG/1.1/DTD/svg11.dtd" >
<svg viewBox="0 -442 2048 2048">
  <g transform="matrix(1 0 0 -1 0 1606)">
   <path fill="currentColor"
d="M1997 318q0 -24 -26 -36q-19 -8 -58 -25q-149 -76 -236 -230q-15 -27 -26 -27t-26 27q-88 155 -237 230q-20 8 -59 25q-26 12 -26 36q0 42 39 42q7 0 15 -3q146 -52 253 -179q-3 294 -217.5 501.5t-509.5 207.5q-248 0 -432 -168q-167 -152 -244 -403q-49 -160 -49 -320
q0 -37 -41 -37t-41 45q0 373 213 656q233 309 594 309q330 0 568.5 -231t240.5 -559q107 126 251 178q8 3 15 3q39 0 39 -42z" />
  </g>

</svg>
