<?xml version="1.0" standalone="no"?>
<!DOCTYPE svg PUBLIC "-//W3C//DTD SVG 1.1//EN" "http://www.w3.org/Graphics/SVG/1.1/DTD/svg11.dtd" >
<svg viewBox="0 -442 2048 2048">
  <g transform="matrix(1 0 0 -1 0 1606)">
   <path fill="currentColor"
d="M1931 1565q0 -41 -39 -41h-1738q-39 0 -39 41t39 41h1738q39 0 39 -41zM1924 -274q0 -44 -44 -44q-14 0 -24 10l-1556 1556q19 -77 19 -150q0 -173 -101 -345q-8 -13 -19 -13q-10 0 -30 20t-20 30q0 -1 35 69q56 112 56 249q0 69 -15 132q-20 85 -60.5 151t-40.5 68
q0 23 24 23l67 -40q127 -76 285 -76q134 0 247 56q71 35 67 35q10 0 30.5 -19t20.5 -29q0 -14 -12 -21q-165 -100 -346 -100q-76 0 -149 18l1556 -1556q10 -10 10 -24z" />
  </g>

</svg>
