<?xml version="1.0" standalone="no"?>
<!DOCTYPE svg PUBLIC "-//W3C//DTD SVG 1.1//EN" "http://www.w3.org/Graphics/SVG/1.1/DTD/svg11.dtd" >
<svg viewBox="0 -442 2048 2048">
  <g transform="matrix(1 0 0 -1 0 1606)">
   <path fill="currentColor"
d="M1516 582q0 -297 -211.5 -509.5t-508.5 -212.5q-298 0 -510 212t-212 510q0 205 111.5 385.5t296.5 264.5q9 5 18 5q39 0 39 -42q0 -25 -23 -35q-164 -75 -263 -235.5t-99 -342.5q0 -265 188.5 -453.5t453.5 -188.5q264 0 452 189t188 453q0 183 -97 339t-259 236
q38 -109 39 -206q0 -54 -9 -106q-4 -21 -23 -30q-19 -8 -39 3.5t-17 39.5q3 21 7 64q10 166 -80 320q-16 27 -11 36q6 9 37 9q176 -1 317 90q17 12 51 37q23 17 44 5q36 -21 17 -55q-4 -6 -10 -11q-118 -100 -279 -128q179 -92 285.5 -266t106.5 -377z" />
  </g>

</svg>
