<?xml version="1.0" standalone="no"?>
<!DOCTYPE svg PUBLIC "-//W3C//DTD SVG 1.1//EN" "http://www.w3.org/Graphics/SVG/1.1/DTD/svg11.dtd" >
<svg viewBox="0 -442 2048 2048">
  <g transform="matrix(1 0 0 -1 0 1606)">
   <path fill="currentColor"
d="M1516 582q0 -298 -212 -510t-510 -212q-297 0 -508.5 212.5t-211.5 509.5q0 203 106.5 377t285.5 266q-161 28 -279 128q-6 5 -10 11q-19 34 17 55q21 12 44 -5q17 -13 51 -37q141 -91 317 -90q31 0 37 -9q5 -9 -11 -36q-90 -154 -80 -320q2 -21 7 -64q3 -28 -17 -39.5
t-39 -3.5q-19 9 -23 30q-9 52 -9 106q1 97 39 206q-162 -80 -259 -236t-97 -339q0 -264 188 -453t452 -189q265 0 453.5 188.5t188.5 453.5q0 182 -99 342.5t-263 235.5q-23 10 -23 35q0 42 39 42q9 0 18 -5q185 -84 298 -266q110 -179 110 -384z" />
  </g>

</svg>
