<?xml version="1.0" standalone="no"?>
<!DOCTYPE svg PUBLIC "-//W3C//DTD SVG 1.1//EN" "http://www.w3.org/Graphics/SVG/1.1/DTD/svg11.dtd" >
<svg viewBox="0 -442 2048 2048">
  <g transform="matrix(1 0 0 -1 0 1606)">
   <path fill="currentColor"
d="M1933 954q0 -41 -37 -41h-1499q148 -90 232 -248q31 -58 59 -160q1 -2 2 -6q0 -22 -18 -22q-60 0 -64 14q-6 22 -19 65q-46 132 -150.5 229.5t-239.5 132.5q-22 4 -66 13q-18 4 -18 23q0 17 18 23q23 4 67 13q134 35 238.5 132.5t150.5 229.5q6 23 19 65q6 14 19 14
q51 0 40 1q23 -2 23 -23l-2 -6q-29 -104 -59 -161q-83 -157 -232 -247h1499q37 0 37 -41zM1933 272q0 -18 -18 -23q-22 -4 -66 -13q-134 -35 -240 -133t-151 -229q-6 -22 -18 -65q-4 -14 -19 -14q-48 0 -39 -1q-24 3 -24 23l2 6q38 139 103 232q77 108 188 176h-1499
q-37 0 -37 41t37 41h1499q-113 68 -188 174q-65 91 -103 234q-1 2 -2 6q0 22 18 22q58 0 64 -14q6 -22 19 -65q67 -192 239 -298q75 -46 164 -67q22 -3 43 -7q28 -7 28 -26z" />
  </g>

</svg>
