<?xml version="1.0" standalone="no"?>
<!DOCTYPE svg PUBLIC "-//W3C//DTD SVG 1.1//EN" "http://www.w3.org/Graphics/SVG/1.1/DTD/svg11.dtd" >
<svg viewBox="0 -442 2048 2048">
  <g transform="matrix(1 0 0 -1 0 1606)">
   <path fill="currentColor"
d="M1933 242q0 -41 -37 -41h-1499q149 -90 232 -247q30 -57 59 -161q1 -2 2 -6q0 -21 -23 -23q11 1 -40 1q-13 0 -19 14q-6 22 -19 65q-46 132 -150.5 229.5t-238.5 132.5q-23 3 -67 13q-18 6 -18 23q0 19 18 23q22 4 66 13q252 65 366 304q-114 239 -366 304q-22 4 -66 13
q-18 4 -18 23q0 17 18 23q23 4 67 13q134 35 238.5 132.5t150.5 229.5q6 22 19 65q6 14 19 14q51 0 40 1q23 -2 23 -23l-2 -6q-29 -104 -59 -161q-83 -157 -232 -247h1499q37 0 37 -41t-37 -41h-1499q126 -76 204 -199q32 -50 52 -100q-20 -50 -52 -100q-78 -123 -204 -199
h1499q37 0 37 -41z" />
  </g>

</svg>
