<?xml version="1.0" standalone="no"?>
<!DOCTYPE svg PUBLIC "-//W3C//DTD SVG 1.1//EN" "http://www.w3.org/Graphics/SVG/1.1/DTD/svg11.dtd" >
<svg viewBox="0 -442 2048 2048">
  <g transform="matrix(1 0 0 -1 0 1606)">
   <path fill="currentColor"
d="M1669 970q0 -51 1 -40q-2 -23 -23 -23l-6 2q-104 29 -161 59q-157 83 -247 232v-1481q0 -37 -41 -37t-41 37v1481q-76 -126 -199 -204q-50 -32 -100 -52q-50 20 -100 52q-123 78 -199 204v-1481q0 -37 -41 -37t-41 37v1481q-90 -149 -247 -232q-57 -30 -161 -59
q-2 -1 -6 -2q-21 0 -23 23q1 -11 1 40q0 13 14 19q22 6 65 19q132 46 229.5 150.5t132.5 238.5q3 23 13 67q6 18 23 18q19 0 23 -18q4 -22 13 -66q65 -252 304 -366q239 114 304 366q4 22 13 66q4 18 23 18q17 0 23 -18q4 -23 13 -67q35 -134 132.5 -238.5t229.5 -150.5
q22 -6 65 -19q14 -6 14 -19z" />
  </g>

</svg>
