<?xml version="1.0" standalone="no"?>
<!DOCTYPE svg PUBLIC "-//W3C//DTD SVG 1.1//EN" "http://www.w3.org/Graphics/SVG/1.1/DTD/svg11.dtd" >
<svg viewBox="0 -442 2048 2048">
  <g transform="matrix(1 0 0 -1 0 1606)">
   <path fill="currentColor"
d="M1933 242q0 -17 -18 -23q-23 -4 -67 -13q-134 -35 -238.5 -132.5t-150.5 -229.5q-6 -22 -19 -65q-6 -14 -19 -14q-51 0 -40 -1q-23 2 -23 23l2 6q29 104 59 161q83 157 232 247h-1499q-37 0 -37 41t37 41h1499q-126 76 -204 199q-32 50 -52 100q20 50 52 100
q78 123 204 199h-1499q-37 0 -37 41t37 41h1499q-149 90 -232 247q-30 57 -59 161q-1 2 -2 6q0 21 23 23q-11 -1 40 -1q13 0 19 -14q6 -22 19 -65q46 -132 150.5 -229.5t238.5 -132.5q23 -3 67 -13q18 -6 18 -23q0 -19 -18 -23q-22 -4 -66 -13q-252 -65 -366 -304
q114 -239 366 -304q22 -4 66 -13q18 -4 18 -23z" />
  </g>

</svg>
