<?xml version="1.0" standalone="no"?>
<!DOCTYPE svg PUBLIC "-//W3C//DTD SVG 1.1//EN" "http://www.w3.org/Graphics/SVG/1.1/DTD/svg11.dtd" >
<svg viewBox="0 -442 2458 2048">
  <g transform="matrix(1 0 0 -1 0 1606)">
   <path fill="currentColor"
d="M2458 582q0 -14 -14 -20q-201 -89 -322 -207q-114 -112 -185 -252q-11 -24 -32 -70q-7 -14 -59 -14q-21 0 -21 22q0 38 74 153q61 94 107 148h-833l-142 -246q-23 -40 -46 -40q-41 0 -41 38q0 15 16 43l118 205h-524q43 -47 107 -147q73 -116 73 -154q0 -22 -61 -22
q-11 0 -18 14q-10 23 -31 69q-85 171 -233 297q-120 102 -273 163q-16 6 -16 20q0 15 16 23q31 13 92 41q276 140 414 417q10 23 31 68q7 14 59 14q20 0 20 -22q0 -38 -73 -153q-63 -98 -107 -148h801l143 247q23 39 45 39q41 0 41 -38q0 -16 -15 -42l-119 -206h556
q-48 58 -107 149q-74 114 -74 152q0 22 62 22q11 0 18 -14q44 -90 57 -115q31 -55 72 -108q135 -174 332 -269q28 -11 78 -34q14 -8 14 -23zM2303 582q-122 66 -219 158h-681l-183 -316h864q97 92 219 158zM1308 740h-832q-97 -92 -219 -158q122 -66 219 -158h650z" />
  </g>

</svg>
