<?xml version="1.0" standalone="no"?>
<!DOCTYPE svg PUBLIC "-//W3C//DTD SVG 1.1//EN" "http://www.w3.org/Graphics/SVG/1.1/DTD/svg11.dtd" >
<svg viewBox="0 -442 2048 2048">
  <g transform="matrix(1 0 0 -1 0 1606)">
   <path fill="currentColor"
d="M1189 755q0 -18 -23 -18q-35 0 -152 86q-94 70 -149 121v-1225q0 -37 -41 -37t-41 37v1315q-99 122 -157 264q-56 -139 -158 -264v-1315q0 -37 -41 -37t-41 37v1225q-47 -47 -148 -121q-117 -86 -153 -86q-23 0 -23 63q0 8 13 15q214 120 336 268q111 136 168 301
q8 27 24 80q6 18 23 18t22 -18q48 -163 110 -265q73 -120 181 -220q83 -77 238 -164q12 -7 12 -60z" />
  </g>

</svg>
