<?xml version="1.0" standalone="no"?>
<!DOCTYPE svg PUBLIC "-//W3C//DTD SVG 1.1//EN" "http://www.w3.org/Graphics/SVG/1.1/DTD/svg11.dtd" >
<svg viewBox="0 -442 2048 2048">
  <g transform="matrix(1 0 0 -1 0 1606)">
   <path fill="currentColor"
d="M1932 582q0 -15 -14 -20q-36 -10 -107 -34q-150 -57 -276 -159q-163 -133 -270 -338q-6 -12 -58 -12q-20 0 -20 22q0 36 87 155q74 100 120 146h-1239q-39 0 -39 41t39 41h1329q120 99 262 158q-142 59 -262 158h-1329q-39 0 -39 41t39 41h1239q-50 52 -121 148
q-86 117 -86 153q0 20 23 23q-5 -1 38 -1q11 0 17 -12q110 -208 268 -336q141 -115 316 -172q28 -6 69 -20q14 -8 14 -23z" />
  </g>

</svg>
