<?xml version="1.0" standalone="no"?>
<!DOCTYPE svg PUBLIC "-//W3C//DTD SVG 1.1//EN" "http://www.w3.org/Graphics/SVG/1.1/DTD/svg11.dtd" >
<svg viewBox="0 -442 2048 2048">
  <g transform="matrix(1 0 0 -1 0 1606)">
   <path fill="currentColor"
d="M1189 364q0 -8 -12 -15q-158 -89 -238 -163q-196 -181 -273 -422q-5 -22 -18 -64q-6 -18 -22 -18q-17 0 -23 18q-7 27 -24 81q-56 165 -168 301q-125 152 -336 267q-13 7 -13 15v45q0 18 23 18q35 0 154 -86q105 -77 147 -121v1225q0 37 41 37t41 -37v-1315
q101 -125 158 -264q57 142 157 264v1315q0 37 41 37t41 -37v-1225q46 46 148 121q118 86 153 86q21 0 24 -24q-1 7 -1 -39z" />
  </g>

</svg>
