<?xml version="1.0" standalone="no"?>
<!DOCTYPE svg PUBLIC "-//W3C//DTD SVG 1.1//EN" "http://www.w3.org/Graphics/SVG/1.1/DTD/svg11.dtd" >
<svg viewBox="0 -442 2048 2048">
  <g transform="matrix(1 0 0 -1 0 1606)">
   <path fill="currentColor"
d="M1189 127q0 -11 -17 -18q-128 -55 -222 -128q-169 -132 -268 -333q-11 -27 -21 -53q-17 -37 -35 -37q-14 0 -21 12q-11 26 -34 76q-101 204 -269 335q-76 59 -223 128q-17 8 -18 27q1 -17 1 36q0 19 23 19q37 0 153 -74q103 -65 148 -106v1142q-48 -42 -149 -106
q-116 -74 -152 -74q-23 0 -23 64q0 5 5 10t12 8q126 54 222 128q178 139 278 349q9 22 28 64q5 10 19 10t22 -18q9 -23 29 -68q66 -138 178 -252q131 -133 317 -213q17 -7 17 -18v-45q0 -19 -23 -19q-35 0 -152 74q-94 61 -149 106v-1142q49 42 148 106q117 74 153 74
q21 0 24 -24q-1 5 -1 -40zM783 -67v1298q-92 99 -157 219q-64 -117 -158 -219v-1298q94 -102 158 -219q65 120 157 219z" />
  </g>

</svg>
