<?xml version="1.0" standalone="no"?>
<!DOCTYPE svg PUBLIC "-//W3C//DTD SVG 1.1//EN" "http://www.w3.org/Graphics/SVG/1.1/DTD/svg11.dtd" >
<svg viewBox="0 -442 2048 2048">
  <g transform="matrix(1 0 0 -1 0 1606)">
   <path fill="currentColor"
d="M1924 5q0 -42 -43 -42q-16 0 -25 9l-1297 1298q-157 16 -297 75q59 -138 75 -298l1296 -1297q10 -10 10 -25q0 -43 -43 -43q-15 0 -25 10l-1233 1233q0 -75 -20 -203q-26 -163 -61 -163q-10 0 -29.5 17.5t-19.5 27.5q0 3 2 10q53 191 53 327q0 230 -99 432q-44 90 -44 87
q0 22 23 22q5 0 13 -4q166 -85 265 -109q119 -29 241 -29q127 0 327 54h6q11 0 29.5 -17.5t18.5 -27.5t-7 -18q-23 -25 -170 -47q-117 -18 -189 -20l1233 -1234q10 -10 10 -25z" />
  </g>

</svg>
