<?xml version="1.0" standalone="no"?>
<!DOCTYPE svg PUBLIC "-//W3C//DTD SVG 1.1//EN" "http://www.w3.org/Graphics/SVG/1.1/DTD/svg11.dtd" >
<svg viewBox="0 -442 2048 2048">
  <g transform="matrix(1 0 0 -1 0 1606)">
   <path fill="currentColor"
d="M1924 1460q0 3 -44 -87q-99 -202 -99 -432q0 -136 53 -327q2 -7 2 -10q0 -10 -19.5 -27.5t-29.5 -17.5q-35 0 -61 163q-20 128 -20 203l-1233 -1233q-10 -10 -25 -10q-43 0 -43 43q0 15 10 25l1296 1297q16 160 75 298q-140 -59 -297 -75l-1297 -1298q-9 -9 -25 -9
q-43 0 -43 42q0 15 10 25l1233 1234q-72 2 -189 20q-147 22 -170 47q-7 8 -7 18t18.5 27.5t29.5 17.5h6q200 -54 327 -54q122 0 241 29q99 24 265 109q8 4 13 4q23 0 23 -22z" />
  </g>

</svg>
