<?xml version="1.0" standalone="no"?>
<!DOCTYPE svg PUBLIC "-//W3C//DTD SVG 1.1//EN" "http://www.w3.org/Graphics/SVG/1.1/DTD/svg11.dtd" >
<svg viewBox="0 -442 2048 2048">
  <g transform="matrix(1 0 0 -1 0 1606)">
   <path fill="currentColor"
d="M1924 -296q0 -22 -23 -22q-5 0 -13 4q-166 85 -265 109q-119 29 -241 29q-127 0 -327 -54h-6q-11 0 -29.5 17.5t-18.5 27.5t7 18q23 25 170 47q117 18 189 20l-1233 1234q-10 10 -10 25q0 42 43 42q16 0 25 -9l1297 -1298q157 -16 297 -75q-59 138 -75 298l-1296 1297
q-10 10 -10 25q0 43 43 43q15 0 25 -10l1233 -1233q0 75 20 203q26 163 61 163q10 0 29.5 -17.5t19.5 -27.5q0 -3 -2 -10q-53 -191 -53 -327q0 -230 99 -432q44 -90 44 -87z" />
  </g>

</svg>
