<?xml version="1.0" standalone="no"?>
<!DOCTYPE svg PUBLIC "-//W3C//DTD SVG 1.1//EN" "http://www.w3.org/Graphics/SVG/1.1/DTD/svg11.dtd" >
<svg viewBox="0 -442 2048 2048">
  <g transform="matrix(1 0 0 -1 0 1606)">
   <path fill="currentColor"
d="M1924 1159q0 -15 -10 -25l-1233 -1234q72 -2 189 -20q147 -22 170 -47q7 -8 7 -18t-18.5 -27.5t-29.5 -17.5h-6q-200 54 -327 54q-122 0 -241 -29q-99 -24 -265 -109q-8 -4 -13 -4q-23 0 -23 22q0 -3 44 87q99 202 99 432q0 136 -53 327q-2 7 -2 10q0 10 19.5 27.5
t29.5 17.5q35 0 61 -163q20 -128 20 -203l1233 1233q10 10 25 10q43 0 43 -43q0 -15 -10 -25l-1296 -1297q-16 -160 -75 -298q140 59 297 75l1297 1298q9 9 25 9q43 0 43 -42z" />
  </g>

</svg>
