<?xml version="1.0" standalone="no"?>
<!DOCTYPE svg PUBLIC "-//W3C//DTD SVG 1.1//EN" "http://www.w3.org/Graphics/SVG/1.1/DTD/svg11.dtd" >
<svg viewBox="0 -442 2048 2048">
  <g transform="matrix(1 0 0 -1 0 1606)">
   <path fill="currentColor"
d="M1931 185q0 -41 -37 -41h-1222q71 -117 118 -247q3 -8 3 -15q0 -39 -42 -39q-22 0 -36 27q-18 46 -57 136q-136 277 -394 462q-42 26 -124 79q-25 17 -25 35t25 35q42 25 124 78q255 182 394 464q18 46 57 135q14 27 36 27q42 0 42 -39q0 -7 -3 -15q-47 -130 -118 -247
h1222q37 0 37 -41t-37 -41h-1277q-132 -186 -317 -315h1590q41 0 41 -41t-41 -41h-1590q186 -131 318 -315h1276q37 0 37 -41z" />
  </g>

</svg>
