<?xml version="1.0" standalone="no"?>
<!DOCTYPE svg PUBLIC "-//W3C//DTD SVG 1.1//EN" "http://www.w3.org/Graphics/SVG/1.1/DTD/svg11.dtd" >
<svg viewBox="0 -442 2048 2048">
  <g transform="matrix(1 0 0 -1 0 1606)">
   <path fill="currentColor"
d="M1931 582q0 -20 -10 -29l-190 -170q-13 -12 -31 -12t-31 12l-348 314l-348 -314q-13 -12 -31 -12t-31 12l-176 158h-442q127 -107 179 -253q3 -8 3 -15q0 -39 -42 -39q-24 0 -36 26q-8 20 -25 59q-75 149 -230 237q-27 15 -27 26t27 26q154 87 230 236q8 19 25 58
q12 26 36 26q42 0 42 -39q0 -7 -3 -15q-52 -144 -178 -251h458q16 0 32 -14l158 -142l348 314q13 12 31 12t31 -12l348 -314l160 142q16 14 30 14q41 0 41 -41z" />
  </g>

</svg>
