<?xml version="1.0" standalone="no"?>
<!DOCTYPE svg PUBLIC "-//W3C//DTD SVG 1.1//EN" "http://www.w3.org/Graphics/SVG/1.1/DTD/svg11.dtd" >
<svg viewBox="0 -442 2048 2048">
  <g transform="matrix(1 0 0 -1 0 1606)">
   <path fill="currentColor"
d="M1931 582q0 -11 -27 -26q-154 -87 -230 -236q-8 -19 -25 -58q-12 -26 -36 -26q-42 0 -42 39q0 7 3 15q52 144 178 251h-458q-16 0 -32 14l-158 142l-348 -314q-13 -12 -31 -12t-31 12l-348 314l-160 -142q-16 -14 -30 -14q-41 0 -41 41q0 20 10 29l190 170q13 12 31 12
t31 -12l348 -314l348 314q13 12 31 12t31 -12l176 -158h442q-127 107 -179 253q-3 8 -3 15q0 39 42 39q24 0 36 -26q8 -20 25 -59q75 -149 230 -237q27 -15 27 -26z" />
  </g>

</svg>
