<?xml version="1.0" standalone="no"?>
<!DOCTYPE svg PUBLIC "-//W3C//DTD SVG 1.1//EN" "http://www.w3.org/Graphics/SVG/1.1/DTD/svg11.dtd" >
<svg viewBox="0 -442 2048 2048">
  <g transform="matrix(1 0 0 -1 0 1606)">
   <path fill="currentColor"
d="M989 925q0 -18 -22 -18l-6 2q-102 28 -160 59q-158 84 -248 232v-281q0 -37 -41 -37t-41 37v281q-90 -149 -247 -232q-57 -30 -161 -59q-2 -1 -6 -2q-21 0 -23 23q1 -11 1 40q0 13 14 19q22 6 65 19q132 46 229.5 150.5t132.5 238.5q3 23 13 67q6 18 23 18q19 0 23 -18
q4 -22 13 -66q35 -135 132.5 -239.5t229.5 -150.5q22 -6 65 -19q14 -4 14 -64zM553 521q0 -39 -41 -39t-41 39v195q0 39 41 39t41 -39v-195zM553 121q0 -39 -41 -39t-41 39v195q0 39 41 39t41 -39v-195zM553 -279q0 -39 -41 -39t-41 39v195q0 39 41 39t41 -39v-195z" />
  </g>

</svg>
