<?xml version="1.0" standalone="no"?>
<!DOCTYPE svg PUBLIC "-//W3C//DTD SVG 1.1//EN" "http://www.w3.org/Graphics/SVG/1.1/DTD/svg11.dtd" >
<svg viewBox="0 -442 2048 2048">
  <g transform="matrix(1 0 0 -1 0 1606)">
   <path fill="currentColor"
d="M1190 773q0 -36 -24 -36h-276q-26 0 -26 -27v-728h163q37 0 37 -41v-218q0 -41 -37 -41h-804q-37 0 -37 41v218q0 41 37 41h163v728q0 27 -26 27h-276q-24 0 -24 36q0 4 1 14v13q0 7 13 15q221 128 336 268q113 137 168 301q7 27 24 80q7 18 23 18t23 -18q8 -27 24 -80
q55 -164 168 -301q115 -140 336 -268q13 -8 13 -13.5t1 -14.5v-14zM1019 819q-101 74 -154 125q-160 155 -240 354q-80 -199 -240 -354q-53 -51 -154 -125h198q39 0 39 -41v-849q0 -27 -24 -27h-152q-24 0 -24 -27v-86q0 -27 24 -27h666q24 0 24 27v86q0 27 -24 27h-152
q-24 0 -24 27v849q0 41 39 41h198z" />
  </g>

</svg>
