<?xml version="1.0" standalone="no"?>
<!DOCTYPE svg PUBLIC "-//W3C//DTD SVG 1.1//EN" "http://www.w3.org/Graphics/SVG/1.1/DTD/svg11.dtd" >
<svg viewBox="0 -442 2048 2048">
  <g transform="matrix(1 0 0 -1 0 1606)">
   <path fill="currentColor"
d="M1933 582q0 -16 -18 -23q-27 -8 -80 -24q-164 -55 -301 -168q-140 -115 -268 -336q-8 -13 -15 -13h-13q-10 -1 -14 -1q-36 0 -36 24v276q0 26 -27 26h-728v-163q0 -37 -41 -37h-218q-41 0 -41 37v804q0 37 41 37h218q41 0 41 -37v-163h728q27 0 27 26v276q0 24 36 24h14
q9 -1 14.5 -1t13.5 -13q128 -221 268 -336q137 -113 301 -168q27 -7 80 -24q18 -7 18 -23zM1749 582q-199 80 -354 240q-51 53 -125 154v-198q0 -39 -41 -39h-849q-27 0 -27 24v152q0 24 -27 24h-86q-27 0 -27 -24v-666q0 -24 27 -24h86q27 0 27 24v152q0 24 27 24h849
q41 0 41 -39v-198q74 101 125 154q155 160 354 240z" />
  </g>

</svg>
