<?xml version="1.0" standalone="no"?>
<!DOCTYPE svg PUBLIC "-//W3C//DTD SVG 1.1//EN" "http://www.w3.org/Graphics/SVG/1.1/DTD/svg11.dtd" >
<svg viewBox="0 -442 2048 2048">
  <g transform="matrix(1 0 0 -1 0 1606)">
   <path fill="currentColor"
d="M1423 109q26 -26 -3 -55t-55 -3l-809 809q18 -73 18 -149q0 -96 -29 -191q-19 -63 -71 -155q-1 -2 -3 -5q-16 -16 -28 -3q-17 14 -37 42q-2 7 1 13q11 19 33 59q61 127 56 270q-6 143 -76 262q-13 19 -38 56q-9 16 3.5 28.5t29.5 4.5q19 -14 57 -39q173 -101 376 -68
q81 14 155 49q19 12 59 33q14 6 23 -4q37 -36 37 -44t-8 -16l-5 -3q-94 -53 -156 -72q-94 -29 -189 -29q-75 0 -150 19zM1439 1299q0 -41 -68 -41h-1155v-1255q0 -68 -41 -68t-41 68v1269q0 61 35 66q11 2 33 2h1169q68 0 68 -41z" />
  </g>

</svg>
