<?xml version="1.0" standalone="no"?>
<!DOCTYPE svg PUBLIC "-//W3C//DTD SVG 1.1//EN" "http://www.w3.org/Graphics/SVG/1.1/DTD/svg11.dtd" >
<svg viewBox="0 -442 2048 2048">
  <g transform="matrix(1 0 0 -1 0 1606)">
   <path fill="currentColor"
d="M1439 68q0 -61 -35 -66q-11 -2 -33 -2h-1169q-68 0 -68 41t68 41h1155v1255q0 68 41 68t41 -68v-1269zM1191 281q9 -16 -3.5 -28.5t-29.5 -4.5q-19 14 -57 39q-173 101 -376 68q-81 -14 -155 -49q-19 -12 -59 -33q-14 -6 -23 4q-37 36 -37 44t8 16l5 3q94 53 156 72
q94 29 189 29q75 0 150 -19l-809 809q-26 26 3 55t55 3l809 -809q-18 73 -18 149q0 96 29 191q19 63 71 155q1 2 3 5q16 16 28 3q17 -14 37 -42q2 -7 -1 -13q-11 -19 -33 -59q-61 -127 -56 -270q6 -143 76 -262q13 -19 38 -56z" />
  </g>

</svg>
