<?xml version="1.0" standalone="no"?>
<!DOCTYPE svg PUBLIC "-//W3C//DTD SVG 1.1//EN" "http://www.w3.org/Graphics/SVG/1.1/DTD/svg11.dtd" >
<svg viewBox="0 -442 2048 2048">
  <g transform="matrix(1 0 0 -1 0 1606)">
   <path fill="currentColor"
d="M1190 127q0 -10 -17 -18q-192 -85 -318 -213q-114 -115 -178 -252q-10 -25 -21 -50q-17 -36 -31 -36t-31 36q-11 25 -21 50q-64 137 -178 252q-126 128 -318 213q-17 8 -17 18q0 43 0 40q3 24 23 24h277q26 0 26 27v728q0 27 -26 27h-277q-20 0 -23 24q0 -3 0 40
q0 10 17 18q192 85 318 213q114 115 178 252q10 25 21 50q17 36 31 36t31 -36q11 -25 21 -50q64 -137 178 -252q126 -128 318 -213q17 -8 17 -18q0 -43 0 -40q-3 -24 -23 -24h-277q-26 0 -26 -27v-728q0 -27 26 -27h277q20 0 23 -24q0 3 0 -40zM1003 109h-182q-39 0 -39 41
v864q0 41 39 41h182q-88 57 -138 98q-142 115 -240 297q-98 -182 -240 -297q-50 -41 -138 -98h182q39 0 39 -41v-864q0 -41 -39 -41h-182q88 -57 138 -98q142 -115 240 -297q98 182 240 297q50 41 138 98z" />
  </g>

</svg>
