<?xml version="1.0" standalone="no"?>
<!DOCTYPE svg PUBLIC "-//W3C//DTD SVG 1.1//EN" "http://www.w3.org/Graphics/SVG/1.1/DTD/svg11.dtd" >
<svg viewBox="0 -442 2048 2048">
  <g transform="matrix(1 0 0 -1 0 1606)">
   <path fill="currentColor"
d="M1932 582q0 -14 -14 -20q-17 -6 -50 -20q-188 -84 -293 -263q-43 -74 -79 -213q-2 -7 -8 -13t-53 -6q-21 0 -21 27q0 2 8 36q65 274 287 431h-494v-395q0 -39 -41 -39t-41 39v395h-218v-395q0 -39 -41 -39t-41 39v395h-494q228 -162 288 -432q7 -31 7 -35q0 -24 -21 -27
q3 0 -41 0q-14 0 -20 19q-3 15 -10 44q-38 148 -133 261q-108 128 -277 191q-16 6 -16 20q0 15 59 40q138 59 233.5 171.5t133.5 261.5q3 15 10 43q5 18 25 20q-9 -1 36 -1q21 0 21 -27q0 -4 -7 -35q-59 -266 -288 -432h494v397q0 37 41 37t41 -37v-397h218v397q0 37 41 37
t41 -37v-397h494q-154 111 -238 288q-57 121 -57 179q0 24 21 27q-3 0 41 0q15 0 20 -19q49 -191 144 -303t225 -169q19 -6 53 -21q14 -8 14 -23z" />
  </g>

</svg>
