<?xml version="1.0" standalone="no"?>
<!DOCTYPE svg PUBLIC "-//W3C//DTD SVG 1.1//EN" "http://www.w3.org/Graphics/SVG/1.1/DTD/svg11.dtd" >
<svg viewBox="0 -442 2048 2048">
  <g transform="matrix(1 0 0 -1 0 1606)">
   <path fill="currentColor"
d="M1933 582q0 -41 -37 -41h-1036v-500q0 -24 -36 -24q-4 0 -14 1h-13q-7 0 -15 13q-128 221 -266.5 335t-302.5 169q-27 7 -80 24q-18 7 -18 23t18 23q27 8 80 24q164 55 302.5 169t266.5 335q8 13 15 13q4 0 13 1h14q36 0 36 -24v-500h1036q37 0 37 -41zM778 188v788
q-74 -101 -125 -154q-155 -160 -354 -240q199 -80 354 -240q51 -53 125 -154z" />
  </g>

</svg>
