<?xml version="1.0" standalone="no"?>
<!DOCTYPE svg PUBLIC "-//W3C//DTD SVG 1.1//EN" "http://www.w3.org/Graphics/SVG/1.1/DTD/svg11.dtd" >
<svg viewBox="0 -442 2048 2048">
  <g transform="matrix(1 0 0 -1 0 1606)">
   <path fill="currentColor"
d="M1933 582q0 -14 -14 -20q-17 -6 -50 -20q-188 -84 -293 -263q-43 -74 -79 -213q-2 -7 -8 -13t-53 -6q-21 0 -21 27v467h-782v-467q0 -27 -21 -27q-47 0 -53 6t-8 13q-36 139 -79 213q-105 179 -293 263q-17 6 -50 20q-14 6 -14 20q0 15 14 23q18 7 53 21q130 57 225 169
t144 303q5 19 20 19q44 0 41 0q21 -3 21 -27v-467h782v467q0 24 21 27q-3 0 41 0q15 0 20 -19q49 -191 144 -303t225 -169q19 -6 53 -21q14 -8 14 -23zM1771 582q-178 101 -274 281v-562q96 180 274 281zM551 301v562q-96 -180 -274 -281q178 -101 274 -281z" />
  </g>

</svg>
