<?xml version="1.0" standalone="no"?>
<!DOCTYPE svg PUBLIC "-//W3C//DTD SVG 1.1//EN" "http://www.w3.org/Graphics/SVG/1.1/DTD/svg11.dtd" >
<svg viewBox="0 -442 2048 2048">
  <g transform="matrix(1 0 0 -1 0 1606)">
   <path fill="currentColor"
d="M1036 810q0 -313 -128 -556q-159 -299 -443 -299q-183 0 -308 127t-125 311q0 194 130 350q161 193 390 193q108 0 190 -69q76 -66 108 -173h2q16 132 16 218q0 199 -76 335q-95 168 -278 168q-208 0 -271 -162q7 1 14 1q38 0 65 -27t27 -65q0 -37 -27.5 -64.5
t-64.5 -27.5q-40 0 -66.5 29t-26.5 70q0 27 19 79q80 218 328 218q245 0 393 -212q132 -188 132 -444zM827 562q0 135 -65 226q-74 103 -203 103q-186 0 -284 -182q-34 -63 -55 -194q-18 -111 -18 -204q0 -131 64 -211q70 -88 197 -88q180 0 282 194q82 158 82 356z" />
  </g>

</svg>
