<?xml version="1.0" standalone="no"?>
<!DOCTYPE svg PUBLIC "-//W3C//DTD SVG 1.1//EN" "http://www.w3.org/Graphics/SVG/1.1/DTD/svg11.dtd" >
<svg viewBox="0 -442 2048 2048">
  <g transform="matrix(1 0 0 -1 0 1606)">
   <path fill="currentColor"
d="M1022 39q0 -39 -37 -39h-611l-122 -336q-17 -47 -44 -47q-42 0 -42 38q0 15 8 37l112 308h-132q-39 0 -39 41t39 41h162l214 588h-350q-37 0 -37 41t37 41h380l214 587h-620q-39 0 -39 41t39 41h650l29 80q17 46 43 46q42 0 42 -37q0 -15 -8 -37l-19 -52h94q37 0 37 -37
v-1345zM940 752v587h-79l-213 -587h292zM940 82v588h-322l-214 -588h536z" />
  </g>

</svg>
