<?xml version="1.0" standalone="no"?>
<!DOCTYPE svg PUBLIC "-//W3C//DTD SVG 1.1//EN" "http://www.w3.org/Graphics/SVG/1.1/DTD/svg11.dtd" >
<svg viewBox="0 -442 2048 2048">
  <g transform="matrix(1 0 0 -1 0 1606)">
   <path fill="currentColor"
d="M1518 582q0 -298 -211.5 -510.5t-509.5 -212.5q-205 0 -380 109l-214 -305q-12 -17 -34 -17q-40 0 -40 41q0 13 7 23l214 305q-276 218 -276 567q0 300 211.5 511.5t511.5 211.5q206 0 380 -109l214 306q11 15 33 15q41 0 41 -41q0 -11 -7 -21l-214 -306
q274 -218 274 -567zM1436 582q0 306 -239 499l-733 -1046q154 -94 333 -94q264 0 451.5 188.5t187.5 452.5zM1130 1129q-153 94 -333 94q-266 0 -453.5 -187.5t-187.5 -453.5q0 -307 241 -500z" />
  </g>

</svg>
