<?xml version="1.0" standalone="no"?>
<!DOCTYPE svg PUBLIC "-//W3C//DTD SVG 1.1//EN" "http://www.w3.org/Graphics/SVG/1.1/DTD/svg11.dtd" >
<svg viewBox="0 -442 2048 2048">
  <g transform="matrix(1 0 0 -1 0 1606)">
   <path fill="currentColor"
d="M1194 41q0 -41 -37 -41h-364q-72 0 -143 15l-128 -351q-17 -47 -44 -47q-42 0 -42 38q0 15 8 37l126 346q-177 63 -285 205q-115 149 -115 339q0 250 188 419q182 163 435 163h187l123 337q17 46 43 46q42 0 42 -37q0 -15 -8 -37l-112 -309h89q37 0 37 -41t-37 -41h-119
l-167 -459h286q37 0 37 -41t-37 -41h-316l-162 -446q61 -13 120 -13h358q37 0 37 -41zM950 1082h-151q-201 0 -366 -127q-179 -137 -179 -332h529zM753 541h-499q0 -144 103 -262q94 -107 242 -161z" />
  </g>

</svg>
