<?xml version="1.0" standalone="no"?>
<!DOCTYPE svg PUBLIC "-//W3C//DTD SVG 1.1//EN" "http://www.w3.org/Graphics/SVG/1.1/DTD/svg11.dtd" >
<svg viewBox="0 -442 2048 2048">
  <g transform="matrix(1 0 0 -1 0 1606)">
   <path fill="currentColor"
d="M1194 582q0 -250 -188 -419q-182 -163 -435 -163h-117l-122 -336q-17 -47 -44 -47q-42 0 -42 38q0 15 8 37l112 308h-159q-37 0 -37 41t37 41h189l167 459h-356q-37 0 -37 41t37 41h386l156 428q-93 31 -184 31h-358q-37 0 -37 41t37 41h364q107 0 207 -33l135 370
q17 46 43 46q42 0 42 -37q0 -15 -8 -37l-135 -372q153 -72 243 -206q96 -140 96 -313zM1110 623q0 128 -83 237q-76 100 -202 160l-144 -397h429zM1110 541h-459l-167 -459h81q201 0 366 127q179 137 179 332z" />
  </g>

</svg>
