<?xml version="1.0" standalone="no"?>
<!DOCTYPE svg PUBLIC "-//W3C//DTD SVG 1.1//EN" "http://www.w3.org/Graphics/SVG/1.1/DTD/svg11.dtd" >
<svg viewBox="0 -442 2048 2048">
  <g transform="matrix(1 0 0 -1 0 1606)">
   <path fill="currentColor"
d="M1038 935q0 -118 -101 -196q-93 -71 -215 -71q-111 0 -198 53q-103 62 -103 166q0 89 91 89t91 -85q0 -79 -83 -85q68 -79 197 -79q151 0 151 208q0 210 -160 210q-85 0 -64 -2q-44 4 -44 28q0 22 35 28q27 1 53 3q80 6 118.5 64.5t38.5 145.5q0 138 -126 138
q-111 0 -169 -61q78 -8 78 -77q0 -79 -84 -79q-85 0 -85 80q0 92 90 146q77 47 175 47q99 0 180 -47q95 -55 95 -148q0 -158 -173 -232q89 -26 148 -88q64 -68 64 -156zM1747 1565q0 -10 -2 -14l-952 -1975q-9 -18 -56 -18q-13 0 -18 12l-408 897q-129 -98 -135 -98
q-29 0 -29 29q0 9 9 16l243 184q8 6 15 6q14 0 20 -14l367 -807l870 1804q9 19 35 19q41 0 41 -41z" />
  </g>

</svg>
