<?xml version="1.0" standalone="no"?>
<!DOCTYPE svg PUBLIC "-//W3C//DTD SVG 1.1//EN" "http://www.w3.org/Graphics/SVG/1.1/DTD/svg11.dtd" >
<svg viewBox="0 -442 2048 2048">
  <g transform="matrix(1 0 0 -1 0 1606)">
   <path fill="currentColor"
d="M1479 -12q-49 -11 -78 -11q-245 0 -428 277l-45 68q-176 -345 -459 -345q-168 0 -267 154q-87 134 -87 311t90 311q102 152 270 152q155 0 280 -107q84 -72 193 -237q174 344 459 344q39 0 70 -8l2 -63q-28 6 -54 6q-142 0 -262 -114q-100 -95 -164 -245l95 -145
q81 -123 138 -177q93 -89 198 -89q16 0 49 4v-86zM877 401q-57 88 -113 177q-70 102 -134 161q-81 74 -184 74q-132 0 -210 -125q-68 -108 -68 -248q0 -148 67 -262q79 -135 216 -135q270 0 426 358z" />
  </g>

</svg>
