<?xml version="1.0" standalone="no"?>
<!DOCTYPE svg PUBLIC "-//W3C//DTD SVG 1.1//EN" "http://www.w3.org/Graphics/SVG/1.1/DTD/svg11.dtd" >
<svg viewBox="0 -442 2048 2048">
  <g transform="matrix(1 0 0 -1 0 1606)">
   <path fill="currentColor"
d="M1019 1449q0 -75 -77 -75q-75 0 -75 75q0 69 67 78q-47 38 -120 38q-86 0 -126 -118q-35 -104 -60 -511q117 -35 190.5 -133.5t73.5 -220.5q0 -143 -97 -248.5t-239 -118.5l-31 -239q-23 -165 -90 -274q-88 -144 -231 -144q-78 0 -137 39q-67 44 -67 118q0 75 76 75
q77 0 77 -75q0 -69 -70 -78q48 -39 121 -39q98 0 144 118q34 86 50 251l18 262q-116 35 -189 133t-73 220q0 142 96.5 248t238.5 119l31 237q57 420 294 420q77 0 137 -39q68 -45 68 -118zM844 582q0 103 -61 187.5t-159 117.5q-16 -239 -62 -624q120 15 201 106.5t81 212.5
zM482 901q-120 -15 -200 -106.5t-80 -212.5q0 -103 60.5 -187t157.5 -117q24 319 62 623z" />
  </g>

</svg>
