<?xml version="1.0" standalone="no"?>
<!DOCTYPE svg PUBLIC "-//W3C//DTD SVG 1.1//EN" "http://www.w3.org/Graphics/SVG/1.1/DTD/svg11.dtd" >
<svg viewBox="0 -442 2048 2048">
  <g transform="matrix(1 0 0 -1 0 1606)">
   <path fill="currentColor"
d="M1559 1449q0 -75 -77 -75q-76 0 -76 75q0 69 68 78q-47 38 -120 38q-86 0 -126 -118q-36 -107 -61 -514q265 -124 265 -351q0 -261 -338 -381l-29 -225q-23 -165 -90 -274q-88 -144 -231 -144q-78 0 -137 39q-67 44 -67 118q0 75 75 75q78 0 78 -75q0 -69 -70 -78
q48 -39 121 -39q98 0 144 118q31 79 46 219q8 114 17 228q-82 -15 -158 -15q-118 0 -241 34q-17 -135 -27 -206q-23 -165 -90 -274q-88 -144 -231 -144q-78 0 -137 39q-67 44 -67 118q0 75 76 75q77 0 77 -75q0 -69 -70 -78q48 -39 121 -39q98 0 144 118q34 87 50 253
q9 131 18 263q-262 124 -262 350q0 261 336 380l30 224q57 420 294 420q77 0 137 -39q68 -45 68 -118q0 -75 -77 -75q-75 0 -75 75q0 69 67 78q-47 38 -120 38q-86 0 -126 -118q-35 -103 -56 -447q86 16 161 16q117 0 240 -34q40 301 66 382q77 242 255 242q77 0 137 -39
q68 -45 68 -118zM1384 582q0 189 -220 299q-16 -236 -63 -626q283 109 283 327zM1027 934q-120 34 -234 34q-79 0 -164 -17l-4 -51q-27 -338 -62 -629l-5 -41q120 -34 235 -34q76 0 162 17q35 479 72 721zM483 909q-281 -109 -281 -327q0 -188 218 -298q24 305 63 625z" />
  </g>

</svg>
