<?xml version="1.0" standalone="no"?>
<!DOCTYPE svg PUBLIC "-//W3C//DTD SVG 1.1//EN" "http://www.w3.org/Graphics/SVG/1.1/DTD/svg11.dtd" >
<svg viewBox="-13 -442 2048 2048">
  <g transform="matrix(1 0 0 -1 0 1606)">
   <path fill="currentColor"
d="M1019 1449q0 -75 -77 -75q-75 0 -75 75q0 69 67 78q-47 38 -120 38q-86 0 -126 -118q-35 -104 -60 -511q117 -35 190.5 -133.5t73.5 -220.5q0 -143 -97 -248.5t-239 -118.5l-31 -239q-23 -165 -90 -274q-88 -144 -231 -144q-78 0 -137 39q-67 44 -67 118q0 75 76 75
q77 0 77 -75q0 -69 -70 -78q48 -39 121 -39q98 0 144 118q34 86 50 252q9 130 18 261q-114 35 -186.5 130t-75.5 214q-113 -102 -144 -102q-23 0 -23 35q0 4 32 20q102 50 135 128q3 11 15 34q32 107 120 179t200 82l31 237q57 420 294 420q77 0 137 -39q68 -45 68 -118z
M844 582q0 103 -61 187.5t-159 117.5q-16 -239 -62 -624q120 15 201 106.5t81 212.5zM482 901q-103 -13 -179 -85t-96 -174q38 -70 130 -116q31 -16 31 -20q0 -35 -22 -35q-31 0 -144 102q3 -100 63 -181.5t155 -113.5q24 317 62 623z" />
  </g>

</svg>
