<?xml version="1.0" standalone="no"?>
<!DOCTYPE svg PUBLIC "-//W3C//DTD SVG 1.1//EN" "http://www.w3.org/Graphics/SVG/1.1/DTD/svg11.dtd" >
<svg viewBox="0 -442 2048 2048">
  <g transform="matrix(1 0 0 -1 0 1606)">
   <path fill="currentColor"
d="M1307 1000q0 -46 -34 -79.5t-79 -33.5q-46 0 -79.5 33.5t-33.5 79.5q0 47 33 79.5t80 32.5q45 0 79 -33.5t34 -78.5zM283 1000q0 -46 -34 -79.5t-79 -33.5q-46 0 -79.5 33.5t-33.5 79.5q0 47 33 79.5t80 32.5q45 0 79 -33.5t34 -78.5zM795 113q0 -47 -33 -80t-80 -33
t-80 33t-33 80t33 80t80 33q46 0 79.5 -33.5t33.5 -79.5z" />
  </g>

</svg>
