<?xml version="1.0" standalone="no"?>
<!DOCTYPE svg PUBLIC "-//W3C//DTD SVG 1.1//EN" "http://www.w3.org/Graphics/SVG/1.1/DTD/svg11.dtd" >
<svg viewBox="0 -442 2048 2048">
  <g transform="matrix(1 0 0 -1 0 1606)">
   <path fill="currentColor"
d="M909 1232q0 -47 -33 -80t-80 -33t-80 33t-33 80t33 80t80 33q46 0 79.5 -33.5t33.5 -79.5zM1477 746q0 -152 -92 -267q-100 -124 -248 -124q-114 0 -238 88l-208 164q-123 88 -236 88q-162 0 -245 -147q-29 -52 -38 -142q-5 -51 -29 -51q-28 0 -28 63q0 152 92 268
q99 123 248 123q115 0 240 -88q104 -82 207 -164q124 -88 235 -88q85 0 156 50t104 130q15 36 22 109q5 51 29 51q29 0 29 -63zM909 -68q0 -47 -33 -80t-80 -33t-80 33t-33 80t33 80t80 33q46 0 79.5 -33.5t33.5 -79.5z" />
  </g>

</svg>
