<?xml version="1.0" standalone="no"?>
<!DOCTYPE svg PUBLIC "-//W3C//DTD SVG 1.1//EN" "http://www.w3.org/Graphics/SVG/1.1/DTD/svg11.dtd" >
<svg viewBox="0 -442 2048 2048">
  <g transform="matrix(1 0 0 -1 0 1606)">
   <path fill="currentColor"
d="M1477 418q0 -63 -29 -63q-24 0 -29 51q-3 36 -22 109q-33 80 -104 130t-156 50q-111 0 -235 -88q-103 -82 -207 -164q-125 -88 -240 -88q-149 0 -248 123q-92 116 -92 268q0 63 28 63q24 0 29 -51q9 -90 38 -142q83 -147 245 -147q113 0 236 88l208 164q124 88 238 88
q148 0 248 -124q92 -115 92 -267z" />
  </g>

</svg>
