<?xml version="1.0" standalone="no"?>
<!DOCTYPE svg PUBLIC "-//W3C//DTD SVG 1.1//EN" "http://www.w3.org/Graphics/SVG/1.1/DTD/svg11.dtd" >
<svg viewBox="0 -442 2048 2048">
  <g transform="matrix(1 0 0 -1 0 1606)">
   <path fill="currentColor"
d="M1518 584q0 -14 -11 -27q-105 -121 -164 -167q-101 -78 -206 -78q-103 0 -205 78q-59 46 -166 167q-96 109 -148 150q-83 65 -163 65t-163 -66q-50 -41 -148 -151q-12 -14 -31 -14q-39 0 -39 41q0 14 11 27q105 121 164 167q101 78 206 78q104 0 205 -77q63 -48 167 -166
q95 -108 148 -151q84 -66 162 -66q80 0 163 66q50 41 148 151q12 14 31 14q39 0 39 -41z" />
  </g>

</svg>
