<?xml version="1.0" standalone="no"?>
<!DOCTYPE svg PUBLIC "-//W3C//DTD SVG 1.1//EN" "http://www.w3.org/Graphics/SVG/1.1/DTD/svg11.dtd" >
<svg viewBox="0 -442 2048 2048">
  <g transform="matrix(1 0 0 -1 0 1606)">
   <path fill="currentColor"
d="M2038 506q-143 -183 -225 -256q-153 -139 -297 -139q-171 0 -357 197q-152 182 -305 364q-176 197 -321 197q-119 0 -260 -132q-74 -70 -199 -231l-64 51q142 181 225 256q154 138 298 138q171 0 357 -197q152 -182 305 -364q176 -197 321 -197q118 0 259 133
q73 69 199 231z" />
  </g>

</svg>
