<?xml version="1.0" standalone="no"?>
<!DOCTYPE svg PUBLIC "-//W3C//DTD SVG 1.1//EN" "http://www.w3.org/Graphics/SVG/1.1/DTD/svg11.dtd" >
<svg viewBox="0 -442 2048 2048">
  <g transform="matrix(1 0 0 -1 0 1606)">
   <path fill="currentColor"
d="M1477 746q0 -152 -92 -267q-100 -124 -248 -124q-137 0 -328 158l-241 -417q-23 -40 -46 -40q-41 0 -41 38q0 15 16 43l248 429q-161 129 -290 129q-162 0 -245 -147q-29 -52 -38 -142q-5 -51 -29 -51q-28 0 -28 63q0 152 92 268q99 123 248 123q139 0 336 -163l244 423
q23 39 45 39q41 0 41 -38q0 -16 -15 -42l-251 -435q156 -124 282 -124q85 0 156 50t104 130q15 36 22 109q5 51 29 51q29 0 29 -63z" />
  </g>

</svg>
