<?xml version="1.0" standalone="no"?>
<!DOCTYPE svg PUBLIC "-//W3C//DTD SVG 1.1//EN" "http://www.w3.org/Graphics/SVG/1.1/DTD/svg11.dtd" >
<svg viewBox="0 -442 2048 2048">
  <g transform="matrix(1 0 0 -1 0 1606)">
   <path fill="currentColor"
d="M1477 282q0 -41 -37 -41h-708l-210 -577q-17 -47 -44 -47q-42 0 -42 38q0 15 8 37l200 549h-490q-39 0 -39 41t39 41h520l171 469q-159 127 -181 142q-107 69 -209 69q-162 0 -245 -147q-29 -52 -38 -142q-5 -51 -29 -51q-28 0 -28 63q0 152 92 268q99 123 248 123
q110 0 228 -79q97 -78 195 -155l225 618q17 46 43 46q42 0 42 -37q0 -15 -8 -37l-232 -638q96 -58 189 -58q85 0 156 50t104 130q15 36 22 109q5 51 29 51q29 0 29 -63q0 -152 -92 -267q-100 -124 -248 -124q-109 0 -223 78l-152 -418h678q37 0 37 -41z" />
  </g>

</svg>
