<?xml version="1.0" standalone="no"?>
<!DOCTYPE svg PUBLIC "-//W3C//DTD SVG 1.1//EN" "http://www.w3.org/Graphics/SVG/1.1/DTD/svg11.dtd" >
<svg viewBox="0 -442 2048 2048">
  <g transform="matrix(1 0 0 -1 0 1606)">
   <path fill="currentColor"
d="M1477 1115q0 -152 -92 -267q-100 -124 -248 -124q-114 0 -238 88l-208 164q-123 88 -236 88q-162 0 -245 -147q-29 -52 -38 -142q-5 -51 -29 -51q-28 0 -28 63q0 152 92 268q99 123 248 123q115 0 240 -88q104 -82 207 -164q124 -88 235 -88q85 0 156 50t104 130
q15 36 22 109q5 51 29 51q29 0 29 -63zM1477 41q0 -41 -37 -41h-789l-170 -294q-23 -40 -46 -40q-41 0 -41 38q0 15 16 43l146 253h-402q-39 0 -39 41t39 41h449l184 318h-633q-39 0 -39 41t39 41h680l114 197q23 39 45 39q41 0 41 -38q0 -16 -15 -42l-90 -156h511
q37 0 37 -41t-37 -41h-558l-184 -318h742q37 0 37 -41z" />
  </g>

</svg>
