<?xml version="1.0" standalone="no"?>
<!DOCTYPE svg PUBLIC "-//W3C//DTD SVG 1.1//EN" "http://www.w3.org/Graphics/SVG/1.1/DTD/svg11.dtd" >
<svg viewBox="0 -442 2048 2048">
  <g transform="matrix(1 0 0 -1 0 1606)">
   <path fill="currentColor"
d="M1477 41q0 -41 -37 -41h-796l-122 -336q-17 -47 -44 -47q-42 0 -42 38q0 15 8 37l112 308h-402q-39 0 -39 41t39 41h432l116 318h-548q-39 0 -39 41t39 41h578l130 357q-95 75 -189 150q-112 75 -218 75q-162 0 -245 -147q-29 -52 -38 -142q-5 -51 -29 -51q-28 0 -28 63
q0 152 92 268q99 123 248 123q114 0 237 -86q101 -80 203 -161l208 570q17 46 43 46q42 0 42 -37q0 -15 -8 -37l-214 -588q86 -47 171 -47t156 50t104 130q15 36 22 109q5 51 29 51q29 0 29 -63q0 -152 -92 -267q-100 -124 -248 -124q-101 0 -205 66l-112 -308h620
q37 0 37 -41t-37 -41h-650l-116 -318h766q37 0 37 -41z" />
  </g>

</svg>
