<?xml version="1.0" standalone="no"?>
<!DOCTYPE svg PUBLIC "-//W3C//DTD SVG 1.1//EN" "http://www.w3.org/Graphics/SVG/1.1/DTD/svg11.dtd" >
<svg viewBox="0 -442 2048 2048">
  <g transform="matrix(1 0 0 -1 0 1606)">
   <path fill="currentColor"
d="M1477 495q0 -152 -92 -267q-100 -124 -248 -124q-101 0 -205 66q-37 23 -176 136l-234 -642q-17 -47 -44 -47q-42 0 -42 38q0 15 8 37l243 667q-121 85 -232 85q-162 0 -245 -147q-29 -52 -38 -142q-5 -51 -29 -51q-28 0 -28 63q0 152 92 268q99 123 248 123
q124 0 266 -107l107 296q-133 108 -173 133q-102 64 -200 64q-162 0 -245 -147q-29 -52 -38 -142q-5 -51 -29 -51q-28 0 -28 63q0 152 92 268q99 123 248 123q107 0 219 -74q5 -3 187 -147l242 664q17 46 43 46q42 0 42 -37q0 -15 -8 -37l-250 -686q107 -69 207 -69
q85 0 156 50t104 130q15 36 22 109q5 51 29 51q29 0 29 -63q0 -152 -92 -267q-100 -124 -248 -124q-115 0 -240 90l-108 -297q111 -92 162 -123q94 -56 186 -56q85 0 156 50t104 130q15 36 22 109q5 51 29 51q29 0 29 -63z" />
  </g>

</svg>
