<?xml version="1.0" standalone="no"?>
<!DOCTYPE svg PUBLIC "-//W3C//DTD SVG 1.1//EN" "http://www.w3.org/Graphics/SVG/1.1/DTD/svg11.dtd" >
<svg viewBox="0 -442 2048 2048">
  <g transform="matrix(1 0 0 -1 0 1606)">
   <path fill="currentColor"
d="M1477 1025q0 -17 -17 -32q-139 -122 -309 -194q-181 -77 -354 -77t-356 77q-172 73 -310 194q-16 14 -16 32q0 41 41 41q14 0 24 -8q328 -254 617 -254q285 0 614 254q10 8 25 8q41 0 41 -41zM1477 139q0 -41 -41 -41q-15 0 -25 8q-327 254 -614 254q-292 0 -617 -254
q-10 -8 -24 -8q-41 0 -41 41q0 18 16 32q138 121 310 194q183 77 356 77t354 -77q170 -72 309 -194q17 -15 17 -32z" />
  </g>

</svg>
