<?xml version="1.0" standalone="no"?>
<!DOCTYPE svg PUBLIC "-//W3C//DTD SVG 1.1//EN" "http://www.w3.org/Graphics/SVG/1.1/DTD/svg11.dtd" >
<svg viewBox="0 -442 2048 2048">
  <g transform="matrix(1 0 0 -1 0 1606)">
   <path fill="currentColor"
d="M1477 782q0 -41 -37 -41h-391q-13 0 -25 13t-12 26q0 87 -64 152t-151 65q-89 0 -152 -64t-63 -153q0 -39 -39 -39h-389q-39 0 -39 41t39 41h348q17 111 100 183.5t195 72.5q109 0 194 -74t99 -182h350q37 0 37 -41zM1477 382q0 -41 -37 -41h-350q-15 -109 -99 -182.5
t-194 -73.5q-111 0 -195.5 73t-99.5 183h-348q-39 0 -39 41t39 41h389q39 0 39 -37q0 -90 62.5 -154.5t152.5 -64.5q88 0 151.5 65.5t63.5 153.5q0 37 37 37h391q37 0 37 -41z" />
  </g>

</svg>
