<?xml version="1.0" standalone="no"?>
<!DOCTYPE svg PUBLIC "-//W3C//DTD SVG 1.1//EN" "http://www.w3.org/Graphics/SVG/1.1/DTD/svg11.dtd" >
<svg viewBox="0 -442 2048 2048">
  <g transform="matrix(1 0 0 -1 0 1606)">
   <path fill="currentColor"
d="M1148 1565q0 -7 -14 -37l-292 -622q-18 -39 -45 -39t-45 39q-309 654 -309 659q0 41 41 41q26 0 45 -39l268 -563l265 563q18 39 45 39q41 0 41 -41zM1477 782q0 -41 -37 -41h-1286q-39 0 -39 41t39 41h1286q37 0 37 -41zM1477 382q0 -41 -37 -41h-1286q-39 0 -39 41
t39 41h1286q37 0 37 -41z" />
  </g>

</svg>
