<?xml version="1.0" standalone="no"?>
<!DOCTYPE svg PUBLIC "-//W3C//DTD SVG 1.1//EN" "http://www.w3.org/Graphics/SVG/1.1/DTD/svg11.dtd" >
<svg viewBox="0 -442 2048 2048">
  <g transform="matrix(1 0 0 -1 0 1606)">
   <path fill="currentColor"
d="M1416 1483q0 -52 -52 -52q-53 0 -53 52q0 26 18 41h-3q-76 0 -76 -92v-86h79v-42h-75v-282h73v-42q-18 0 -58.5 1t-60.5 1q-18 0 -53 -1t-50 -1v42h57v282h-46v42h46v88q0 62 57 96q48 27 115 27q32 0 57 -21t25 -53zM1022 1066q-33 -96 -149 -96q-86 0 -139.5 56
t-53.5 142q0 83 49.5 137.5t131.5 54.5q161 0 161 -182q0 -17 -13 -17h-220v-1q0 -153 92 -153q57 0 84 40t33 40q24 0 24 -17v-4zM634 980l-154 -5v33q-47 -38 -94 -38q-79 0 -126 58q-44 55 -44 136q0 83 49 137t131 54q49 0 89 -31v157q0 23 -57 22v43l149 6v-507
q0 -24 57 -23v-42zM1477 782q0 -41 -37 -41h-1286q-39 0 -39 41t39 41h1286q37 0 37 -41zM1477 382q0 -41 -37 -41h-1286q-39 0 -39 41t39 41h1286q37 0 37 -41zM941 1192q0 135 -80 135q-73 0 -72 -135h152zM480 1060v220q-31 43 -76 43q-79 0 -79 -165q0 -155 69 -155
q50 0 86 57z" />
  </g>

</svg>
