<?xml version="1.0" standalone="no"?>
<!DOCTYPE svg PUBLIC "-//W3C//DTD SVG 1.1//EN" "http://www.w3.org/Graphics/SVG/1.1/DTD/svg11.dtd" >
<svg viewBox="0 -442 2048 2048">
  <g transform="matrix(1 0 0 -1 0 1606)">
   <path fill="currentColor"
d="M1158 980q-15 0 -53 1q-34 1 -52 1q-17 0 -50 -1q-36 -1 -50 -1v42h51v226q0 75 -27 75q-46 0 -76 -40q-28 -36 -28 -84v-177h57v-42q-16 0 -52 1t-54 1q-17 0 -51 -1t-48 -1v42h51v226q0 75 -27 75q-46 0 -77 -40q-28 -36 -28 -84v-177h57v-42q-15 0 -51.5 1t-54.5 1
t-53.5 -1t-51.5 -1v42h57v257q0 24 -57 23v42l145 7v-76q41 80 124 80q93 0 109 -72q43 72 120 72q113 0 113 -118v-215h57v-42zM1477 782q0 -41 -37 -41h-1286q-39 0 -39 41t39 41h1286q37 0 37 -41zM1477 382q0 -41 -37 -41h-1286q-39 0 -39 41t39 41h1286q37 0 37 -41z
" />
  </g>

</svg>
