<?xml version="1.0" standalone="no"?>
<!DOCTYPE svg PUBLIC "-//W3C//DTD SVG 1.1//EN" "http://www.w3.org/Graphics/SVG/1.1/DTD/svg11.dtd" >
<svg viewBox="0 -442 2048 2048">
  <g transform="matrix(1 0 0 -1 0 1606)">
   <path fill="currentColor"
d="M982 1465q0 -54 -81 -122t-81 -156v-42q0 -19 -25 -19t-25 19v42q0 97 50 183q45 78 45 117q0 64 -70 64q-48 0 -81 -26q45 -11 45 -60q0 -64 -62 -64q-64 0 -64 64q0 59 53 94q47 31 109 31q187 0 187 -125zM872 998q0 -32 -22.5 -55t-54.5 -23t-55 23t-23 55t23 54.5
t55 22.5t54.5 -22.5t22.5 -54.5zM1477 782q0 -41 -37 -41h-1286q-39 0 -39 41t39 41h1286q37 0 37 -41zM1477 382q0 -41 -37 -41h-1286q-39 0 -39 41t39 41h1286q37 0 37 -41z" />
  </g>

</svg>
