<?xml version="1.0" standalone="no"?>
<!DOCTYPE svg PUBLIC "-//W3C//DTD SVG 1.1//EN" "http://www.w3.org/Graphics/SVG/1.1/DTD/svg11.dtd" >
<svg viewBox="0 -442 2048 2048">
  <g transform="matrix(1 0 0 -1 0 1606)">
   <path fill="currentColor"
d="M870 582q0 -437 -313 -776q88 -90 184 -154q23 -13 68 -41q12 -8 12 -22q0 -31 -30 -31q-53 0 -279 201q-223 -201 -281 -201q-30 0 -30 31q0 14 12 22q23 13 68 41q96 64 184 154q-313 339 -313 776q0 440 313 776q-88 90 -184 154q-23 13 -68 41q-12 8 -12 22
q0 31 30 31q29 0 141 -85q91 -69 140 -116q51 48 139 116q112 85 140 85q30 0 30 -31q0 -14 -12 -22q-23 -13 -68 -41q-96 -64 -184 -154q313 -339 313 -776zM770 582q0 412 -258 723q-260 -305 -260 -723q0 -414 260 -723q258 311 258 723z" />
  </g>

</svg>
