<?xml version="1.0" standalone="no"?>
<!DOCTYPE svg PUBLIC "-//W3C//DTD SVG 1.1//EN" "http://www.w3.org/Graphics/SVG/1.1/DTD/svg11.dtd" >
<svg viewBox="0 -442 2048 2048">
  <g transform="matrix(1 0 0 -1 0 1606)">
   <path fill="currentColor"
d="M1421 31q0 -41 -41 -41q-8 0 -14 3l-618 292l-226 -621q-17 -47 -44 -47q-42 0 -42 38q0 15 8 37l229 628l-476 225q-27 13 -27 37t27 37l706 333l200 549q17 46 43 46q42 0 42 -37q0 -15 -8 -37l-171 -471l357 169q6 3 14 3q41 0 41 -41q0 -26 -24 -37l-427 -202
l-194 -533l621 -293q24 -11 24 -37zM864 845l-557 -263l394 -186z" />
  </g>

</svg>
