<?xml version="1.0" standalone="no"?>
<!DOCTYPE svg PUBLIC "-//W3C//DTD SVG 1.1//EN" "http://www.w3.org/Graphics/SVG/1.1/DTD/svg11.dtd" >
<svg viewBox="0 -442 2048 2048">
  <g transform="matrix(1 0 0 -1 0 1606)">
   <path fill="currentColor"
d="M1421 582q0 -24 -27 -37l-666 -314l-206 -567q-17 -47 -44 -47q-42 0 -42 38q0 15 8 37l178 488l-397 -187q-6 -3 -14 -3q-41 0 -41 41q0 26 24 37l467 220l183 502l-650 306q-24 11 -24 37q0 41 41 41q8 0 14 -3l647 -305l231 635q17 46 43 46q42 0 42 -37q0 -15 -8 -37
l-234 -643l448 -211q27 -13 27 -37zM1284 582l-365 172l-152 -416z" />
  </g>

</svg>
