<?xml version="1.0" standalone="no"?>
<!DOCTYPE svg PUBLIC "-//W3C//DTD SVG 1.1//EN" "http://www.w3.org/Graphics/SVG/1.1/DTD/svg11.dtd" >
<svg viewBox="0 -442 2048 2048">
  <g transform="matrix(1 0 0 -1 0 1606)">
   <path fill="currentColor"
d="M1421 -259q0 -41 -37 -41h-827l-35 -95q-17 -47 -44 -47q-42 0 -42 38q0 15 8 37l24 67h-259q-39 0 -39 41t39 41h289l193 530l-494 233q-27 13 -27 37t27 37l732 346l174 477q17 46 43 46q42 0 42 -37q0 -15 -8 -37l-145 -399l331 156q6 3 14 3q41 0 41 -41
q0 -26 -24 -37l-402 -189l-201 -555l603 -284q24 -11 24 -37q0 -41 -41 -41q-8 0 -14 3l-600 283l-180 -494h798q37 0 37 -41zM890 857l-583 -275l412 -194z" />
  </g>

</svg>
