<?xml version="1.0" standalone="no"?>
<!DOCTYPE svg PUBLIC "-//W3C//DTD SVG 1.1//EN" "http://www.w3.org/Graphics/SVG/1.1/DTD/svg11.dtd" >
<svg viewBox="0 -442 2048 2048">
  <g transform="matrix(1 0 0 -1 0 1606)">
   <path fill="currentColor"
d="M1421 -259q0 -41 -37 -41h-827l-35 -95q-17 -47 -44 -47q-42 0 -42 38q0 15 8 37l24 67h-259q-39 0 -39 41t39 41h289l150 411l-423 -200q-6 -3 -14 -3q-41 0 -41 41q0 26 24 37l493 233l175 480l-668 315q-24 11 -24 37q0 41 41 41q8 0 14 -3l665 -314l213 585
q17 46 43 46q42 0 42 -37q0 -15 -8 -37l-215 -592l429 -203q27 -13 27 -37t-27 -37l-640 -302l-168 -461h798q37 0 37 -41zM1284 582l-347 164l-144 -395z" />
  </g>

</svg>
