<?xml version="1.0" standalone="no"?>
<!DOCTYPE svg PUBLIC "-//W3C//DTD SVG 1.1//EN" "http://www.w3.org/Graphics/SVG/1.1/DTD/svg11.dtd" >
<svg viewBox="0 -442 2048 2048">
  <g transform="matrix(1 0 0 -1 0 1606)">
   <path fill="currentColor"
d="M1477 46q0 -152 -92 -267q-100 -124 -248 -124q-105 0 -214 71q-16 11 -183 144l-46 -257q-10 -55 -41 -55q-42 0 -42 42q0 10 3 27l52 297q-108 71 -211 71q-162 0 -245 -147q-29 -52 -38 -142q-5 -51 -29 -51q-28 0 -28 63q0 152 92 268q99 123 248 123q111 0 230 -81
l93 526l-553 -261q-6 -3 -14 -3q-41 0 -41 41q0 26 24 37l601 283l75 426l-676 319q-24 11 -24 37q0 41 41 41q8 0 14 -3l660 -311l69 392q10 54 41 54q42 0 42 -41q0 -16 -2 -27l-73 -415l432 -204q27 -13 27 -37t-27 -37l-526 -248l-110 -624q146 -118 176 -137
q104 -67 203 -67q85 0 156 50t104 130q15 36 22 109q5 51 29 51q29 0 29 -63zM1284 882l-337 159l-61 -347z" />
  </g>

</svg>
