<?xml version="1.0" standalone="no"?>
<!DOCTYPE svg PUBLIC "-//W3C//DTD SVG 1.1//EN" "http://www.w3.org/Graphics/SVG/1.1/DTD/svg11.dtd" >
<svg viewBox="0 -442 2048 2048">
  <g transform="matrix(1 0 0 -1 0 1606)">
   <path fill="currentColor"
d="M1421 150q0 -24 -27 -37l-698 -329l-30 -171q-10 -55 -41 -55q-42 0 -42 42q0 10 3 27l20 114l-381 -180q-6 -3 -14 -3q-41 0 -41 41q0 26 24 37l429 202l102 576l-531 250q-24 11 -24 37q0 41 41 41q8 0 14 -3l514 -243l37 208l-579 273q-27 13 -27 37t27 37l699 330
l30 171q10 54 41 54q42 0 42 -41q0 -16 -2 -27l-20 -114l379 179q6 3 14 3q41 0 41 -41q0 -26 -24 -37l-427 -202l-103 -576l530 -250q24 -11 24 -37q0 -41 -41 -41q-8 0 -14 3l-513 242l-37 -207l578 -273q27 -13 27 -37zM879 1284l-572 -270l484 -228zM1284 150l-483 228
l-88 -497z" />
  </g>

</svg>
