<?xml version="1.0" standalone="no"?>
<!DOCTYPE svg PUBLIC "-//W3C//DTD SVG 1.1//EN" "http://www.w3.org/Graphics/SVG/1.1/DTD/svg11.dtd" >
<svg viewBox="0 -442 2048 2048">
  <g transform="matrix(1 0 0 -1 0 1606)">
   <path fill="currentColor"
d="M1421 -401q0 -41 -41 -41q-8 0 -14 3l-654 309l-46 -257q-10 -55 -41 -55q-42 0 -42 42q0 10 3 27l49 279l-438 207q-27 13 -27 37t27 37l532 251l44 246l-548 -259q-6 -3 -14 -3q-41 0 -41 41q0 26 24 37l596 281l76 430l-672 317q-24 11 -24 37q0 41 41 41q8 0 14 -3
l655 -309l46 258q10 54 41 54q42 0 42 -41q0 -16 -2 -27l-50 -281l437 -206q27 -13 27 -37t-27 -37l-531 -251l-43 -245l546 258q6 3 14 3q41 0 41 -41q0 -26 -24 -37l-594 -280l-77 -432l671 -316q24 -11 24 -37zM1284 1014l-341 161l-63 -351zM712 341l-405 -191l343 -162
z" />
  </g>

</svg>
