<?xml version="1.0" standalone="no"?>
<!DOCTYPE svg PUBLIC "-//W3C//DTD SVG 1.1//EN" "http://www.w3.org/Graphics/SVG/1.1/DTD/svg11.dtd" >
<svg viewBox="0 -442 2048 2048">
  <g transform="matrix(1 0 0 -1 0 1606)">
   <path fill="currentColor"
d="M1421 582q0 -41 -37 -41q-267 0 -496 -31q-237 -32 -424 -146q-178 -108 -212 -335q-6 -39 -41 -39q-41 0 -41 45q0 12 8 53q25 130 106 225q172 203 550 269q-435 77 -590 327q-74 119 -74 224q0 43 41 43q35 0 41 -37q35 -232 211 -339q184 -113 424 -145
q236 -32 497 -32q37 0 37 -41zM1421 274q0 -41 -37 -41q-326 0 -573 -107q-137 -60 -226 -160q-80 -90 -106 -247q-3 -18 -13.5 -27.5t-27.5 -9.5q-41 0 -41 43q0 9 6 43q24 135 109 237q138 165 397 245q212 65 469 65q43 0 43 -41z" />
  </g>

</svg>
