<?xml version="1.0" standalone="no"?>
<!DOCTYPE svg PUBLIC "-//W3C//DTD SVG 1.1//EN" "http://www.w3.org/Graphics/SVG/1.1/DTD/svg11.dtd" >
<svg viewBox="0 -442 2048 2048">
  <g transform="matrix(1 0 0 -1 0 1606)">
   <path fill="currentColor"
d="M1421 582q0 -41 -37 -41q-233 0 -437 -24l-182 -540q-10 -28 -38 -28q-42 0 -42 39q0 8 2 15l170 502q-219 -35 -393 -141q-178 -108 -212 -335q-6 -39 -41 -39q-41 0 -41 45q0 12 8 53q25 130 106 225q172 203 550 269q-435 77 -590 327q-74 119 -74 224q0 43 41 43
q35 0 41 -37q35 -232 211 -339q186 -113 424 -145l19 -3l181 537q10 28 38 28q42 0 42 -39q0 -8 -2 -15l-176 -520q190 -20 395 -20q37 0 37 -41z" />
  </g>

</svg>
