<?xml version="1.0" standalone="no"?>
<!DOCTYPE svg PUBLIC "-//W3C//DTD SVG 1.1//EN" "http://www.w3.org/Graphics/SVG/1.1/DTD/svg11.dtd" >
<svg viewBox="0 -442 2048 2048">
  <g transform="matrix(1 0 0 -1 0 1606)">
   <path fill="currentColor"
d="M1421 41q0 -41 -39 -41h-590q-24 0 -47 2l-123 -338q-17 -47 -44 -47q-42 0 -42 38q0 15 8 37l117 322q-208 43 -346 197q-145 161 -145 371q0 245 190 416q184 166 432 166h288l123 337q17 46 43 46q42 0 42 -37q0 -15 -8 -37l-112 -309h214q39 0 39 -41t-39 -41h-244
l-364 -999q12 -1 24 -1h584q39 0 39 -41zM1050 1082h-252q-216 0 -378 -140q-168 -147 -168 -360q0 -185 130 -323q124 -131 308 -167z" />
  </g>

</svg>
