<?xml version="1.0" standalone="no"?>
<!DOCTYPE svg PUBLIC "-//W3C//DTD SVG 1.1//EN" "http://www.w3.org/Graphics/SVG/1.1/DTD/svg11.dtd" >
<svg viewBox="0 -442 2048 2048">
  <g transform="matrix(1 0 0 -1 0 1606)">
   <path fill="currentColor"
d="M1421 582q0 -245 -190 -416q-184 -166 -432 -166h-255l-122 -336q-17 -47 -44 -47q-42 0 -42 38q0 15 8 37l112 308h-247q-39 0 -39 41t39 41h277l363 997q-28 3 -56 3h-584q-39 0 -39 41t39 41h590q40 0 79 -5l125 342q17 46 43 46q42 0 42 -37q0 -15 -8 -37l-120 -330
q197 -51 326 -201q135 -158 135 -360zM1339 582q0 176 -120 312q-114 128 -287 171l-358 -983h219q216 0 378 140q168 147 168 360z" />
  </g>

</svg>
