<?xml version="1.0" standalone="no"?>
<!DOCTYPE svg PUBLIC "-//W3C//DTD SVG 1.1//EN" "http://www.w3.org/Graphics/SVG/1.1/DTD/svg11.dtd" >
<svg viewBox="0 -442 2048 2048">
  <g transform="matrix(1 0 0 -1 0 1606)">
   <path fill="currentColor"
d="M1421 -259q0 -41 -37 -41h-821l-42 -115q-10 -27 -37 -27q-43 0 -43 40q0 7 3 15l32 87h-267q-39 0 -39 41t39 41h297l90 249q-185 59 -302 205q-124 153 -124 346q0 245 190 416q184 166 432 166h218l59 161q10 28 37 28q43 0 43 -40q0 -8 -3 -16l-49 -133h285
q39 0 39 -41t-39 -41h-315l-362 -992q47 -8 93 -8h584q39 0 39 -41t-39 -41h-590q-58 0 -116 11l-83 -229h791q37 0 37 -41zM980 1082h-182q-216 0 -378 -140q-168 -147 -168 -360q0 -167 109 -299q102 -124 264 -174z" />
  </g>

</svg>
