<?xml version="1.0" standalone="no"?>
<!DOCTYPE svg PUBLIC "-//W3C//DTD SVG 1.1//EN" "http://www.w3.org/Graphics/SVG/1.1/DTD/svg11.dtd" >
<svg viewBox="0 -442 2048 2048">
  <g transform="matrix(1 0 0 -1 0 1606)">
   <path fill="currentColor"
d="M1421 -259q0 -41 -37 -41h-829l-42 -115q-10 -27 -37 -27q-43 0 -43 40q0 7 3 15l32 87h-259q-39 0 -39 41t39 41h289l79 218h-368q-39 0 -39 41t39 41h398l356 974q-84 26 -170 26h-584q-39 0 -39 41t39 41h590q98 0 192 -30l70 191q10 28 37 28q43 0 43 -40
q0 -8 -3 -16l-70 -192q157 -72 252 -207q101 -143 101 -316q0 -245 -190 -416q-184 -166 -432 -166h-135l-79 -218h799q37 0 37 -41zM1339 582q0 147 -86 268q-80 114 -214 177l-345 -945h99q216 0 378 140q168 147 168 360z" />
  </g>

</svg>
