<?xml version="1.0" standalone="no"?>
<!DOCTYPE svg PUBLIC "-//W3C//DTD SVG 1.1//EN" "http://www.w3.org/Graphics/SVG/1.1/DTD/svg11.dtd" >
<svg viewBox="0 -442 2048 2048">
  <g transform="matrix(1 0 0 -1 0 1606)">
   <path fill="currentColor"
d="M1421 41q0 -41 -39 -41h-590q-248 0 -432 166q-190 171 -190 416t190 416q184 166 432 166h590q39 0 39 -41t-39 -41h-584q-216 0 -378 -140q-168 -147 -168 -360t168 -360q162 -140 378 -140h584q39 0 39 -41zM1421 -259q0 -41 -37 -41h-574l-177 -133q-12 -9 -25 -9
q-42 0 -42 43q0 19 17 32l90 67h-464q-39 0 -39 41t39 41h573l176 133q12 8 25 8q42 0 42 -42q0 -19 -17 -32l-89 -67h465q37 0 37 -41z" />
  </g>

</svg>
