<?xml version="1.0" standalone="no"?>
<!DOCTYPE svg PUBLIC "-//W3C//DTD SVG 1.1//EN" "http://www.w3.org/Graphics/SVG/1.1/DTD/svg11.dtd" >
<svg viewBox="0 -442 2048 2048">
  <g transform="matrix(1 0 0 -1 0 1606)">
   <path fill="currentColor"
d="M1249 389q0 -203 -188 -327q-165 -107 -379 -107t-379 107q-188 124 -188 327v799q0 37 41 37t41 -37v-793q0 -169 164 -271q140 -87 321 -87q182 0 322 86q163 101 163 272v146h-562q158 -123 214 -336q6 -23 6 -29q0 -31 -35 -31q-4 0 -11 1h-12q-19 0 -33 59
q-26 112 -104 203q-67 79 -217 150q-19 9 -19 24q0 17 55 40q105 44 181.5 135t103.5 202q2 13 9 38q9 22 41 22q41 0 41 -31q0 -6 -6 -29q-55 -211 -214 -336h562v565q0 37 41 37t41 -37v-799z" />
  </g>

</svg>
