<?xml version="1.0" standalone="no"?>
<!DOCTYPE svg PUBLIC "-//W3C//DTD SVG 1.1//EN" "http://www.w3.org/Graphics/SVG/1.1/DTD/svg11.dtd" >
<svg viewBox="0 -442 2048 2048">
  <g transform="matrix(1 0 0 -1 0 1606)">
   <path fill="currentColor"
d="M1249 389q0 -203 -188 -327q-165 -107 -379 -107t-379 107q-188 124 -188 327v799q0 37 41 37t41 -37v-793q0 -169 164 -271q140 -87 321 -87q182 0 322 86q163 101 163 272v793q0 37 41 37t41 -37v-799zM1061 394q0 -62 -60 -62q-15 0 -29 10l-262 191l31 -338
q0 -53 -59 -53q-23 0 -42.5 17t-17.5 40l31 334l-262 -191q-14 -10 -29 -10q-59 0 -59 62q0 36 28 49l295 139l-295 139q-28 13 -28 49q0 62 59 62q15 0 29 -10l262 -191l-31 340q0 53 60 53q25 0 43 -17t16 -42l-31 -334l262 191q14 10 29 10q60 0 60 -62q0 -35 -29 -49
l-295 -139l295 -139q29 -14 29 -49z" />
  </g>

</svg>
