<?xml version="1.0" standalone="no"?>
<!DOCTYPE svg PUBLIC "-//W3C//DTD SVG 1.1//EN" "http://www.w3.org/Graphics/SVG/1.1/DTD/svg11.dtd" >
<svg viewBox="0 -442 2048 2048">
  <g transform="matrix(1 0 0 -1 0 1606)">
   <path fill="currentColor"
d="M1518 582q0 -298 -211.5 -510.5t-509.5 -212.5t-510.5 212.5t-212.5 510.5q0 300 211.5 511.5t511.5 211.5q299 0 510 -212t211 -511zM1436 582q0 241 -159 423l-423 -423l423 -421q159 181 159 421zM1219 1063q-181 160 -422 160q-243 0 -424 -160l424 -424zM737 582
l-422 422q-159 -181 -159 -422q0 -239 158 -421zM1220 102l-1 1l-422 422l-424 -422q182 -162 424 -162q241 0 423 161z" />
  </g>

</svg>
