<?xml version="1.0" standalone="no"?>
<!DOCTYPE svg PUBLIC "-//W3C//DTD SVG 1.1//EN" "http://www.w3.org/Graphics/SVG/1.1/DTD/svg11.dtd" >
<svg viewBox="0 -442 2048 2048">
  <g transform="matrix(1 0 0 -1 0 1606)">
   <path fill="currentColor"
d="M1518 582q0 -298 -211.5 -510.5t-509.5 -212.5t-510.5 212.5t-212.5 510.5q0 300 211.5 511.5t511.5 211.5q299 0 510 -212t211 -511zM1219 1063q-181 160 -422 160q-266 0 -453.5 -187.5t-187.5 -453.5q0 -240 160 -422zM1436 582q0 241 -159 423l-903 -903
q182 -161 423 -161q264 0 451.5 188.5t187.5 452.5z" />
  </g>

</svg>
