<?xml version="1.0" standalone="no"?>
<!DOCTYPE svg PUBLIC "-//W3C//DTD SVG 1.1//EN" "http://www.w3.org/Graphics/SVG/1.1/DTD/svg11.dtd" >
<svg viewBox="0 -442 2048 2048">
  <g transform="matrix(1 0 0 -1 0 1606)">
   <path fill="currentColor"
d="M1538 582q0 -312 -218.5 -530.5t-530.5 -218.5t-530.5 218.5t-218.5 530.5t218.5 530.5t530.5 218.5t530.5 -218.5t218.5 -530.5zM1438 582q0 270 -189.5 459.5t-459.5 189.5t-459.5 -189.5t-189.5 -459.5t189.5 -459.5t459.5 -189.5t459.5 189.5t189.5 459.5zM1072 582
q0 -118 -82.5 -200.5t-200.5 -82.5t-200.5 82.5t-82.5 200.5t82.5 200.5t200.5 82.5t200.5 -82.5t82.5 -200.5zM972 582q0 77 -53 130t-130 53t-130 -53t-53 -130t53 -130t130 -53t130 53t53 130z" />
  </g>

</svg>
