<?xml version="1.0" standalone="no"?>
<!DOCTYPE svg PUBLIC "-//W3C//DTD SVG 1.1//EN" "http://www.w3.org/Graphics/SVG/1.1/DTD/svg11.dtd" >
<svg viewBox="0 -442 2048 2048">
  <g transform="matrix(1 0 0 -1 0 1606)">
   <path fill="currentColor"
d="M1518 582q0 -298 -211.5 -510.5t-509.5 -212.5t-510.5 212.5t-212.5 510.5q0 300 211.5 511.5t511.5 211.5q299 0 510 -212t211 -511zM1436 582q0 265 -187.5 453t-451.5 188q-266 0 -453.5 -187.5t-187.5 -453.5q0 -264 188.5 -452.5t452.5 -188.5t451.5 188.5
t187.5 452.5zM1174 394q0 -62 -60 -62q-15 0 -29 10l-262 191l31 -338q0 -53 -59 -53q-23 0 -42.5 17t-17.5 40l31 334l-262 -191q-14 -10 -29 -10q-59 0 -59 62q0 36 28 49l295 139l-295 139q-28 13 -28 49q0 62 59 62q15 0 29 -10l262 -191l-31 340q0 53 60 53
q25 0 43 -17t16 -42l-31 -334l262 191q14 10 29 10q60 0 60 -62q0 -35 -29 -49l-295 -139l295 -139q29 -14 29 -49z" />
  </g>

</svg>
