<?xml version="1.0" standalone="no"?>
<!DOCTYPE svg PUBLIC "-//W3C//DTD SVG 1.1//EN" "http://www.w3.org/Graphics/SVG/1.1/DTD/svg11.dtd" >
<svg viewBox="0 -442 2048 2048">
  <g transform="matrix(1 0 0 -1 0 1606)">
   <path fill="currentColor"
d="M1362 711q0 -41 -37 -41h-493l-238 -413v-218q0 -39 -41 -39t-41 39v76l-161 -279q-23 -40 -46 -40q-41 0 -41 38q0 15 16 43l232 402v1105q0 37 41 37t41 -37v-632h191l333 577q23 39 45 39q41 0 41 -38q0 -16 -15 -42l-309 -536h445q37 0 37 -41zM197 39q0 -39 -41 -39
t-41 39v1345q0 37 41 37t41 -37v-1345zM738 670h-144v-249z" />
  </g>

</svg>
