<?xml version="1.0" standalone="no"?>
<!DOCTYPE svg PUBLIC "-//W3C//DTD SVG 1.1//EN" "http://www.w3.org/Graphics/SVG/1.1/DTD/svg11.dtd" >
<svg viewBox="0 -442 2048 2048">
  <g transform="matrix(1 0 0 -1 0 1606)">
   <path fill="currentColor"
d="M1421 582q0 -41 -39 -41q-435 0 -706 -80q-386 -114 -386 -306q0 -81 67 -133q62 -48 146 -48q40 0 40 -40t-40 -40q-117 0 -202 72q-91 76 -91 191q0 179 232 300q160 83 391 125q-231 42 -391 125q-232 121 -232 300q0 115 91 191q85 72 202 72q40 0 40 -40t-40 -40
q-84 0 -146 -48q-67 -52 -67 -133q0 -192 386 -306q271 -80 706 -80q39 0 39 -41z" />
  </g>

</svg>
