<?xml version="1.0" standalone="no"?>
<!DOCTYPE svg PUBLIC "-//W3C//DTD SVG 1.1//EN" "http://www.w3.org/Graphics/SVG/1.1/DTD/svg11.dtd" >
<svg viewBox="0 -442 2048 2048">
  <g transform="matrix(1 0 0 -1 0 1606)">
   <path fill="currentColor"
d="M1384 1143q0 -35 -38 -41q-120 -19 -194 -61q-82 -48 -144 -144q-117 -181 -153 -419t-36 -486q0 -37 -41 -37t-41 37q0 420 -87 696q-53 168 -161 282q-98 103 -280 132q-16 3 -27.5 14.5t-11.5 26.5q0 41 45 41q24 0 77 -12q194 -44 313 -215q126 -185 173 -449
q71 384 280 561q97 82 227 107q41 8 54 8q45 0 45 -41z" />
  </g>

</svg>
