<?xml version="1.0" standalone="no"?>
<!DOCTYPE svg PUBLIC "-//W3C//DTD SVG 1.1//EN" "http://www.w3.org/Graphics/SVG/1.1/DTD/svg11.dtd" >
<svg viewBox="0 -442 2048 2048">
  <g transform="matrix(1 0 0 -1 0 1606)">
   <path fill="currentColor"
d="M1411 329q0 -38 -39 -38h-555q-129 0 -227 80q-104 85 -104 211t104 211q98 80 227 80h555q39 0 39 -38t-39 -38h-552q-97 0 -172 -58q-81 -63 -81 -157t81 -157q75 -58 172 -58h552q39 0 39 -38zM1421 41q0 -41 -39 -41h-590q-248 0 -432 166q-190 171 -190 416t190 416
q184 166 432 166h590q39 0 39 -41t-39 -41h-584q-216 0 -378 -140q-168 -147 -168 -360t168 -360q162 -140 378 -140h584q39 0 39 -41z" />
  </g>

</svg>
