<?xml version="1.0" standalone="no"?>
<!DOCTYPE svg PUBLIC "-//W3C//DTD SVG 1.1//EN" "http://www.w3.org/Graphics/SVG/1.1/DTD/svg11.dtd" >
<svg viewBox="0 -442 2048 2048">
  <g transform="matrix(1 0 0 -1 0 1606)">
   <path fill="currentColor"
d="M1249 -8q0 -37 -41 -37t-41 37v792q0 171 -163 273q-140 86 -322 86q-183 0 -322 -87q-163 -101 -163 -272v-792q0 -37 -41 -37t-41 37v799q0 202 189 326q164 108 378 108t379 -107q188 -124 188 -327v-799zM965 4q0 -39 -37 -39q-38 0 -38 39v636q0 75 -69 120
q-60 39 -139 39q-78 0 -139 -40q-69 -45 -69 -119v-636q0 -39 -38 -39t-38 39v639q0 108 90 176q82 61 194 61q111 0 193 -61q90 -68 90 -176v-639z" />
  </g>

</svg>
