<?xml version="1.0" standalone="no"?>
<!DOCTYPE svg PUBLIC "-//W3C//DTD SVG 1.1//EN" "http://www.w3.org/Graphics/SVG/1.1/DTD/svg11.dtd" >
<svg viewBox="0 -442 2048 2048">
  <g transform="matrix(1 0 0 -1 0 1606)">
   <path fill="currentColor"
d="M965 537q0 -108 -90 -175q-82 -62 -193 -62q-112 0 -194 62q-90 67 -90 175v639q0 39 38 39t38 -39v-636q0 -74 69 -119q61 -40 139 -40q79 0 139 39q69 45 69 120v636q0 39 38 39q37 0 37 -39v-639zM1249 389q0 -203 -188 -327q-165 -107 -379 -107t-379 107
q-188 124 -188 327v799q0 37 41 37t41 -37v-793q0 -169 164 -271q140 -87 321 -87q182 0 322 86q163 101 163 272v793q0 37 41 37t41 -37v-799z" />
  </g>

</svg>
