<?xml version="1.0" standalone="no"?>
<!DOCTYPE svg PUBLIC "-//W3C//DTD SVG 1.1//EN" "http://www.w3.org/Graphics/SVG/1.1/DTD/svg11.dtd" >
<svg viewBox="0 -442 2048 2048">
  <g transform="matrix(1 0 0 -1 0 1606)">
   <path fill="currentColor"
d="M1249 -8q0 -37 -41 -37t-41 37v792q0 161 -145 261q-125 85 -299 97v-998q0 -62 -41 -62t-41 62v998q-175 -12 -299 -97q-145 -100 -145 -261v-792q0 -37 -41 -37t-41 37v799q0 192 171 314q149 107 355 119v197q0 61 41 61t41 -61v-197q206 -12 355 -118
q171 -122 171 -315v-799z" />
  </g>

</svg>
