<?xml version="1.0" standalone="no"?>
<!DOCTYPE svg PUBLIC "-//W3C//DTD SVG 1.1//EN" "http://www.w3.org/Graphics/SVG/1.1/DTD/svg11.dtd" >
<svg viewBox="0 -442 2048 2048">
  <g transform="matrix(1 0 0 -1 0 1606)">
   <path fill="currentColor"
d="M1421 890q0 -41 -43 -41q-257 0 -469 65q-259 80 -397 245q-85 102 -109 237q-6 34 -6 43q0 43 41 43q17 0 27.5 -9.5t13.5 -27.5q26 -157 106 -247q89 -100 226 -160q247 -107 573 -107q37 0 37 -41zM1421 582q0 -41 -37 -41q-267 0 -496 -31q-237 -32 -424 -146
q-178 -108 -212 -335q-6 -39 -41 -39q-41 0 -41 45q0 12 8 53q25 130 106 225q172 203 550 269q-435 77 -590 327q-74 119 -74 224q0 43 41 43q35 0 41 -37q35 -232 211 -339q184 -113 424 -145q236 -32 497 -32q37 0 37 -41z" />
  </g>

</svg>
