<?xml version="1.0" standalone="no"?>
<!DOCTYPE svg PUBLIC "-//W3C//DTD SVG 1.1//EN" "http://www.w3.org/Graphics/SVG/1.1/DTD/svg11.dtd" >
<svg viewBox="0 -442 2048 2048">
  <g transform="matrix(1 0 0 -1 0 1606)">
   <path fill="currentColor"
d="M1421 35q0 -45 -41 -45q-17 0 -27.5 10.5t-13.5 28.5q-28 180 -137 278q-118 106 -289 156q-100 29 -213 47l-38 -253q278 -80 420 -252q112 -136 112 -280q0 -43 -41 -43q-17 0 -27.5 10t-13.5 27q-23 156 -104 247q-123 138 -359 208l-75 -498q-6 -35 -40 -35
q-49 0 -42 47l77 507q-167 38 -360 38q-39 0 -39 41t45 41q194 0 367 -38l37 244q-168 20 -410 20q-39 0 -39 41t39 41q252 0 429 23l81 536q6 35 40 35q49 0 42 -47l-78 -511q101 17 192 44q173 51 289 156q108 97 135 280q6 37 41 37q41 0 41 -43q0 -22 -12 -76
q-42 -188 -196 -297q-178 -126 -455 -178q269 -47 453 -177q156 -110 198 -295q12 -53 12 -75z" />
  </g>

</svg>
