<?xml version="1.0" standalone="no"?>
<!DOCTYPE svg PUBLIC "-//W3C//DTD SVG 1.1//EN" "http://www.w3.org/Graphics/SVG/1.1/DTD/svg11.dtd" >
<svg viewBox="0 -442 2048 2048">
  <g transform="matrix(1 0 0 -1 0 1606)">
   <path fill="currentColor"
d="M1421 274q0 -41 -37 -41q-238 0 -435 -57l-75 -500q-6 -35 -40 -35q-49 0 -42 47l70 459q-176 -67 -277 -181q-80 -90 -106 -247q-3 -18 -13.5 -27.5t-27.5 -9.5q-41 0 -41 43q0 9 6 43q24 135 109 237q129 154 364 234l42 275l-30 -4q-234 -31 -424 -146
q-178 -108 -212 -335q-6 -39 -41 -39q-41 0 -41 45q0 12 8 53q25 130 106 225q172 203 550 269q-435 77 -590 327q-74 119 -74 224q0 43 41 43q35 0 41 -37q35 -232 211 -339q193 -118 475 -152l81 534q6 35 40 35q49 0 42 -47l-81 -530q176 -17 364 -17q37 0 37 -41
t-37 -41q-202 0 -382 -18l-39 -258q192 50 415 50q43 0 43 -41z" />
  </g>

</svg>
