<?xml version="1.0" standalone="no"?>
<!DOCTYPE svg PUBLIC "-//W3C//DTD SVG 1.1//EN" "http://www.w3.org/Graphics/SVG/1.1/DTD/svg11.dtd" >
<svg viewBox="0 -442 2048 2048">
  <g transform="matrix(1 0 0 -1 0 1606)">
   <path fill="currentColor"
d="M1421 141q0 -41 -37 -41h-1175q-39 0 -39 37v1090q0 37 39 37h1175q37 0 37 -41t-37 -41h-1132v-1000h1132q37 0 37 -41zM1421 -218q0 -41 -37 -41h-549l-283 -164q-26 -15 -43 -15q-38 0 -38 41q0 23 40 46l160 92h-462q-39 0 -39 41t39 41h604l284 164q26 15 42 15
q38 0 38 -41q0 -22 -39 -45l-161 -93h407q37 0 37 -41z" />
  </g>

</svg>
