<?xml version="1.0" standalone="no"?>
<!DOCTYPE svg PUBLIC "-//W3C//DTD SVG 1.1//EN" "http://www.w3.org/Graphics/SVG/1.1/DTD/svg11.dtd" >
<svg viewBox="0 -442 2048 2048">
  <g transform="matrix(1 0 0 -1 0 1606)">
   <path fill="currentColor"
d="M1421 882q0 -24 -27 -37l-1169 -552q-6 -3 -14 -3q-41 0 -41 41q0 26 24 37l1090 514l-1090 514q-24 11 -24 37q0 41 41 41q8 0 14 -3l1169 -552q27 -13 27 -37zM1477 46q0 -152 -92 -267q-100 -124 -248 -124q-92 0 -185 54q-56 32 -159 118l-324 -259q-13 -10 -26 -10
q-42 0 -42 43q0 18 16 31l311 248q-148 115 -273 115q-162 0 -245 -147q-29 -52 -38 -142q-5 -51 -29 -51q-28 0 -28 63q0 152 92 268q99 123 248 123q93 0 186 -53q57 -33 159 -118l322 258q13 9 26 9q42 0 42 -42q0 -18 -16 -31l-309 -247q149 -116 272 -116q85 0 156 50
t104 130q15 36 22 109q5 51 29 51q29 0 29 -63z" />
  </g>

</svg>
