<?xml version="1.0" standalone="no"?>
<!DOCTYPE svg PUBLIC "-//W3C//DTD SVG 1.1//EN" "http://www.w3.org/Graphics/SVG/1.1/DTD/svg11.dtd" >
<svg viewBox="0 -442 2048 2048">
  <g transform="matrix(1 0 0 -1 0 1606)">
   <path fill="currentColor"
d="M1421 335q0 -45 -41 -45q-17 0 -27.5 10.5t-13.5 28.5q-28 180 -137 278q-118 106 -289 156q-268 78 -704 78q-39 0 -39 41t39 41q436 0 706 80q173 51 289 156q108 97 135 280q6 37 41 37q41 0 41 -43q0 -22 -12 -76q-42 -188 -196 -297q-178 -126 -455 -178
q269 -47 453 -177q156 -110 198 -295q12 -52 12 -75zM1477 46q0 -152 -92 -267q-100 -124 -248 -124q-92 0 -185 54q-56 32 -159 118l-324 -259q-13 -10 -26 -10q-42 0 -42 43q0 18 16 31l311 248q-148 115 -273 115q-162 0 -245 -147q-29 -52 -38 -142q-5 -51 -29 -51
q-28 0 -28 63q0 152 92 268q99 123 248 123q93 0 186 -53q57 -33 159 -118l322 258q13 9 26 9q42 0 42 -42q0 -18 -16 -31l-309 -247q149 -116 272 -116q85 0 156 50t104 130q15 36 22 109q5 51 29 51q29 0 29 -63z" />
  </g>

</svg>
