<?xml version="1.0" standalone="no"?>
<!DOCTYPE svg PUBLIC "-//W3C//DTD SVG 1.1//EN" "http://www.w3.org/Graphics/SVG/1.1/DTD/svg11.dtd" >
<svg viewBox="0 -442 2048 2048">
  <g transform="matrix(1 0 0 -1 0 1606)">
   <path fill="currentColor"
d="M1421 -118q0 -41 -37 -41h-898l-64 -177q-17 -47 -44 -47q-42 0 -42 38q0 15 8 37l54 149h-189q-39 0 -39 41t39 41h219l160 438l-361 -171q-4 -2 -16 -2q-41 0 -41 37v1112q0 37 41 37q12 0 16 -2l622 -294l154 423q17 46 43 46q42 0 42 -37q0 -15 -8 -37l-156 -430
l473 -224q24 -11 24 -37t-18 -35l-709 -336l-178 -488h868q37 0 37 -41zM1284 782l-389 183l-161 -444zM821 1001l-569 268v-976l376 178z" />
  </g>

</svg>
