<?xml version="1.0" standalone="no"?>
<!DOCTYPE svg PUBLIC "-//W3C//DTD SVG 1.1//EN" "http://www.w3.org/Graphics/SVG/1.1/DTD/svg11.dtd" >
<svg viewBox="0 -442 2048 2048">
  <g transform="matrix(1 0 0 -1 0 1606)">
   <path fill="currentColor"
d="M1464 41q0 -41 -37 -41h-294q-242 0 -421 151q-184 155 -201 390h-304q-37 0 -37 41t37 41h304q17 235 201 390q179 151 421 151h294q37 0 37 -41t-37 -41h-288q-201 0 -366 -127q-179 -137 -179 -332h833q37 0 37 -41t-37 -41h-833q0 -195 179 -332q165 -127 366 -127
h288q37 0 37 -41z" />
  </g>

</svg>
