<?xml version="1.0" standalone="no"?>
<!DOCTYPE svg PUBLIC "-//W3C//DTD SVG 1.1//EN" "http://www.w3.org/Graphics/SVG/1.1/DTD/svg11.dtd" >
<svg viewBox="0 -442 2048 2048">
  <g transform="matrix(1 0 0 -1 0 1606)">
   <path fill="currentColor"
d="M1194 41q0 -41 -37 -41h-364q-253 0 -435 163q-188 169 -188 419t188 419q182 163 435 163h364q37 0 37 -41t-37 -41h-358q-201 0 -366 -127q-179 -137 -179 -332h903q37 0 37 -41t-37 -41h-903q0 -195 179 -332q165 -127 366 -127h358q37 0 37 -41zM1194 -318
q0 -41 -37 -41h-948q-39 0 -39 41t39 41h948q37 0 37 -41z" />
  </g>

</svg>
