<?xml version="1.0" standalone="no"?>
<!DOCTYPE svg PUBLIC "-//W3C//DTD SVG 1.1//EN" "http://www.w3.org/Graphics/SVG/1.1/DTD/svg11.dtd" >
<svg viewBox="0 -442 2048 2048">
  <g transform="matrix(1 0 0 -1 0 1606)">
   <path fill="currentColor"
d="M1194 41q0 -41 -37 -41h-364q-253 0 -435 163q-188 169 -188 419t188 419q182 163 435 163h364q37 0 37 -41t-37 -41h-364q-164 0 -302 -84t-200 -225h866q37 0 37 -41t-37 -41h-893q-12 -53 -12 -109t12 -109h893q37 0 37 -41t-37 -41h-866q62 -141 200 -225t302 -84
h364q37 0 37 -41z" />
  </g>

</svg>
