<?xml version="1.0" standalone="no"?>
<!DOCTYPE svg PUBLIC "-//W3C//DTD SVG 1.1//EN" "http://www.w3.org/Graphics/SVG/1.1/DTD/svg11.dtd" >
<svg viewBox="0 -442 2048 2048">
  <g transform="matrix(1 0 0 -1 0 1606)">
   <path fill="currentColor"
d="M994 462q0 -198 -149 -332q-144 -130 -345 -130h-293q-37 0 -37 41t37 41h293q158 0 275.5 96.5t134.5 242.5h-658v-185q0 -39 -41 -39t-41 39v454q0 37 41 37t41 -37v-187h658q-17 146 -134.5 242.5t-275.5 96.5h-293q-37 0 -37 41t37 41h293q201 0 345 -130
q149 -134 149 -332z" />
  </g>

</svg>
