<?xml version="1.0" standalone="no"?>
<!DOCTYPE svg PUBLIC "-//W3C//DTD SVG 1.1//EN" "http://www.w3.org/Graphics/SVG/1.1/DTD/svg11.dtd" >
<svg viewBox="0 -442 2048 2048">
  <g transform="matrix(1 0 0 -1 0 1606)">
   <path fill="currentColor"
d="M994 1185q0 -41 -39 -41h-748q-37 0 -37 41t37 41h748q39 0 39 -41zM994 462q0 -198 -149 -332q-144 -130 -345 -130h-293q-37 0 -37 41t37 41h293q158 0 275.5 96.5t134.5 242.5h-703q-37 0 -37 41t37 41h703q-17 146 -134.5 242.5t-275.5 96.5h-293q-37 0 -37 41t37 41
h293q201 0 345 -130q149 -134 149 -332z" />
  </g>

</svg>
