<?xml version="1.0" standalone="no"?>
<!DOCTYPE svg PUBLIC "-//W3C//DTD SVG 1.1//EN" "http://www.w3.org/Graphics/SVG/1.1/DTD/svg11.dtd" >
<svg viewBox="0 -442 2048 2048">
  <g transform="matrix(1 0 0 -1 0 1606)">
   <path fill="currentColor"
d="M1477 1159q0 -19 -11 -29l-192 -167q125 -164 125 -365q0 -249 -176.5 -426.5t-425.5 -177.5q-248 0 -426 176l-185 -162q-16 -14 -30 -14q-41 0 -41 43q0 17 10 26l192 168q-122 162 -122 367q0 249 176.5 425.5t425.5 176.5q242 0 424 -176l184 162q16 14 31 14
q41 0 41 -41zM1159 969q-151 149 -362 149q-215 0 -368 -152.5t-153 -367.5q0 -178 103 -311zM1317 598q0 173 -105 309l-780 -682q153 -147 365 -147q214 0 367 153t153 367z" />
  </g>

</svg>
