<?xml version="1.0" standalone="no"?>
<!DOCTYPE svg PUBLIC "-//W3C//DTD SVG 1.1//EN" "http://www.w3.org/Graphics/SVG/1.1/DTD/svg11.dtd" >
<svg viewBox="0 -442 2048 2048">
  <g transform="matrix(1 0 0 -1 0 1606)">
   <path fill="currentColor"
d="M1141 1023q0 -41 -68 -41h-910q-68 0 -68 41t68 41h910q68 0 68 -41zM1095 230q0 -18 -23 -18q-2 0 -6 2q-124 27 -253 124q-126 94 -195 207q-69 -112 -195 -207q-130 -97 -254 -124q-4 -2 -6 -2q-23 0 -23 18v45q0 14 15 19q172 38 293.5 169t146.5 306q3 18 23 18
q19 0 22 -18q25 -175 146.5 -306t293.5 -169q15 -5 15 -19v-45z" />
  </g>

</svg>
