<?xml version="1.0" standalone="no"?>
<!DOCTYPE svg PUBLIC "-//W3C//DTD SVG 1.1//EN" "http://www.w3.org/Graphics/SVG/1.1/DTD/svg11.dtd" >
<svg viewBox="0 -442 2048 2048">
  <g transform="matrix(1 0 0 -1 0 1606)">
   <path fill="currentColor"
d="M1141 325q0 -91 -64 -155t-154 -64q-91 0 -155 64t-64 155v136h-253v-136q0 -90 -64.5 -154.5t-154.5 -64.5t-154 64t-64 155q0 90 64 154.5t154 64.5h137v252h-137q-90 0 -154 64.5t-64 154.5q0 91 64 155t154 64q91 0 155 -64t64 -155v-136h253v136q0 91 64 155t155 64
q90 0 154 -64t64 -155q0 -90 -64 -154.5t-154 -64.5h-137v-252h137q90 0 154 -64.5t64 -154.5zM1059 1015q0 56 -40 96.5t-96 40.5q-57 0 -97 -40t-40 -97v-136h137q56 0 96 40t40 96zM704 544v252h-253v-252h253zM1059 325q0 56 -40 96t-96 40h-137v-136q0 -56 40.5 -96.5
t96.5 -40.5t96 40.5t40 96.5zM369 879v136q0 56 -40.5 96.5t-96.5 40.5t-96 -40.5t-40 -96.5t40 -96t96 -40h137zM369 325v136h-137q-56 0 -96 -40t-40 -96t40 -96.5t96 -40.5t96.5 40.5t40.5 96.5z" />
  </g>

</svg>
