<?xml version="1.0" standalone="no"?>
<!DOCTYPE svg PUBLIC "-//W3C//DTD SVG 1.1//EN" "http://www.w3.org/Graphics/SVG/1.1/DTD/svg11.dtd" >
<svg viewBox="0 -442 2048 2048">
  <g transform="matrix(1 0 0 -1 0 1606)">
   <path fill="currentColor"
d="M1531 667q0 -298 -209 -507t-508 -209t-508 209t-209 507q0 299 209.5 508t507.5 209q299 0 508 -209t209 -508zM1461 667q0 270 -188.5 458.5t-458.5 188.5q-269 0 -458 -188.5t-189 -458.5q0 -269 188.5 -457.5t458.5 -188.5t458.5 188.5t188.5 457.5zM1436 667
q0 -259 -181 -440.5t-441 -181.5t-441 181.5t-181 440.5t181.5 441t440.5 182q260 0 441 -181.5t181 -441.5zM1423 657q11 0 11 10q0 11 -11 11h-39q-3 143 -70 266l33 19q9 5 4 14q-6 9 -15 4l-33 -19q-73 122 -195 194l20 34q5 9 -4 14t-14 -4l-20 -33q-123 68 -265 70
l-1 40q0 10 -10 10q-11 0 -11 -10l1 -40q-143 -2 -266 -70l-20 33q-5 9 -14 4t-4 -14l20 -34q-122 -73 -195 -194l-33 19q-9 5 -15 -4q-5 -9 4 -14l34 -19q-68 -124 -71 -266h-39q-11 0 -11 -11q0 -10 11 -10h39q3 -143 70 -266l-33 -19q-9 -5 -4 -14q6 -10 15 -4l33 19
q73 -122 195 -195l-20 -33q-5 -9 4 -14q9 -6 14 4l20 33q123 -68 266 -70l-1 -40q0 -10 11 -10q10 0 10 10l1 40q142 2 265 70l20 -33q5 -10 14 -4q9 5 4 14l-20 33q122 73 195 195l33 -19q9 -6 15 4q5 9 -4 14l-33 19q67 123 70 266h39zM1280 662h-164q-2 -76 -37 -142
l141 -81q4 -3 2 -7q-3 -4 -7 -2l-141 82q-39 -66 -104 -104l81 -142q3 -4 -2 -6q-4 -3 -6 1l-82 142q-66 -36 -142 -37v-165q0 -4 -5 -4t-5 4v165q-76 1 -142 37l-82 -142q-2 -4 -6 -1q-5 2 -2 6l81 142q-46 27 -79 69l-3 -2q-25 -15 -139 -31l-24 -14q-5 3 -5 9l24 13
l44 58q27 33 52 47l4 2q-19 50 -20 103h-164q-4 0 -5 5q1 5 5 5h164q2 77 38 142l-142 82q-4 3 -2 7q3 4 7 2l142 -82q38 65 104 104l-82 141q-3 5 2 7q4 3 6 -2l82 -141q51 28 110 35q-4 59 -4 113q0 75 41 143q41 -68 41 -143q0 -54 -4 -113q59 -7 110 -35l82 141q2 5 6 2
q5 -2 2 -7l-81 -141q65 -39 104 -104l141 82q4 2 7 -2q2 -4 -2 -7l-141 -82q35 -65 37 -142h164q4 0 5 -5q-1 -5 -5 -5zM1106 667q0 113 -73 195t-183 95q-6 -103 -27 -253q29 -5 29 -37q0 -37 -38 -37q-16 0 -26 9q-67 -58 -201 -157q87 -107 227 -107q123 0 207.5 85
t84.5 207zM805 704q-21 150 -27 253q-110 -13 -183 -95t-73 -195q0 -54 18 -103q55 30 237 95q-1 4 -1 8q0 32 29 37z" />
  </g>

</svg>
