<?xml version="1.0" standalone="no"?>
<!DOCTYPE svg PUBLIC "-//W3C//DTD SVG 1.1//EN" "http://www.w3.org/Graphics/SVG/1.1/DTD/svg11.dtd" >
<svg viewBox="0 -442 2048 2048">
  <g transform="matrix(1 0 0 -1 0 1606)">
   <path fill="currentColor"
d="M1254 -178q0 -242 -577 -242t-577 242v91q0 126 32 201q28 65 212 263q173 184 173 210q0 27 -174 208q-186 192 -213 262q-30 78 -30 226v82q0 221 577 221t577 -221v-82q0 -148 -30 -226q-27 -70 -213 -262q-174 -181 -174 -208q0 -26 173 -210q184 -198 212 -263
q32 -75 32 -201v-91zM1158 1407q0 66 -211 97q-129 18 -270 18t-270 -18q-211 -31 -211 -97q0 -45 154 -85t327 -40t327 40t154 85zM1191 -158v76q0 110 -25.5 169t-217.5 258q-175 180 -175 239q0 58 173 238q193 202 218.5 255t25.5 136v118q-182 -113 -513 -113t-513 113
v-118q0 -83 25.5 -136t218.5 -255q173 -180 173 -238q0 -59 -175 -239q-192 -199 -217.5 -258t-25.5 -169v-76q0 -78 62 -117q129 -81 452 -81t452 81q62 39 62 117zM1053 1081q-41 -67 -118 -151q-66 -69 -132 -139q-36 -39 -88 -109q-16 -31 -25 -95q-6 -50 -13 -100
q-7 50 -13 100q-9 64 -24 94t-89 110q-66 70 -132 139q-77 84 -118 151q192 -122 376 -122t376 122zM1125 -182q-165 -83 -448 -83t-448 83q17 64 113 124q18 11 157 82q54 27 130 76q22 22 48 87q26 -65 47.5 -86.5t130.5 -76.5q139 -71 157 -82q96 -60 113 -124z" />
  </g>

</svg>
