<?xml version="1.0" standalone="no"?>
<!DOCTYPE svg PUBLIC "-//W3C//DTD SVG 1.1//EN" "http://www.w3.org/Graphics/SVG/1.1/DTD/svg11.dtd" >
<svg viewBox="0 -442 2300 2048">
  <g transform="matrix(1 0 0 -1 0 1606)">
   <path fill="currentColor"
d="M2270 604l-569 -569q-35 -35 -60 -35h-1520q-54 0 -54 54v1220q0 52 54 52h1520q23 0 60 -38l569 -568q30 -30 30 -58t-30 -58zM2192 662l-558 558h-1461v-1114h1463zM1385 110q-24 0 -58 34l-447 447l-447 -447q-34 -34 -58 -34q-17 0 -32 15t-15 32q0 24 34 58l447 447
l-447 447q-34 34 -34 58q0 17 15 32t32 15q24 0 58 -34l447 -447l447 447q34 34 58 34q17 0 32 -15t15 -32q0 -24 -34 -58l-447 -447l447 -447q34 -34 34 -58q0 -17 -15 -32t-32 -15z" />
  </g>

</svg>
