<?xml version="1.0" standalone="no"?>
<!DOCTYPE svg PUBLIC "-//W3C//DTD SVG 1.1//EN" "http://www.w3.org/Graphics/SVG/1.1/DTD/svg11.dtd" >
<svg viewBox="0 -442 2062 2048">
  <g transform="matrix(1 0 0 -1 0 1606)">
   <path fill="currentColor"
d="M2062 197q0 -83 -58.5 -141.5t-141.5 -58.5h-1528q-83 0 -141.5 58.5t-58.5 141.5v639q0 83 58.5 141.5t141.5 58.5h1528q83 0 141.5 -58.5t58.5 -141.5v-639zM1962 197v639q0 41 -29.5 70.5t-70.5 29.5h-1528q-41 0 -70.5 -29.5t-29.5 -70.5v-639q0 -41 29.5 -70.5
t70.5 -29.5h1528q41 0 70.5 29.5t29.5 70.5zM1726 757q0 -34 -34 -34h-67q-34 0 -34 34v56q0 34 34 34h67q34 0 34 -34v-56zM1846 627q0 -34 -34 -34h-67q-34 0 -34 34v56q0 34 34 34h67q34 0 34 -34v-56zM1476 757q0 -34 -34 -34h-67q-34 0 -34 34v56q0 34 34 34h67
q34 0 34 -34v-56zM1596 627q0 -34 -34 -34h-67q-34 0 -34 34v56q0 34 34 34h67q34 0 34 -34v-56zM1726 497q0 -34 -34 -34h-67q-34 0 -34 34v56q0 34 34 34h67q34 0 34 -34v-56zM1846 367q0 -34 -34 -34h-67q-34 0 -34 34v56q0 34 34 34h67q34 0 34 -34v-56zM1226 757
q0 -34 -34 -34h-67q-34 0 -34 34v56q0 34 34 34h67q34 0 34 -34v-56zM1346 627q0 -34 -34 -34h-67q-34 0 -34 34v56q0 34 34 34h67q34 0 34 -34v-56zM1476 497q0 -34 -34 -34h-67q-34 0 -34 34v56q0 34 34 34h67q34 0 34 -34v-56zM1596 367q0 -34 -34 -34h-67q-34 0 -34 34
v56q0 34 34 34h67q34 0 34 -34v-56zM1726 237q0 -34 -34 -34h-67q-34 0 -34 34v56q0 34 34 34h67q34 0 34 -34v-56zM976 757q0 -34 -34 -34h-67q-34 0 -34 34v56q0 34 34 34h67q34 0 34 -34v-56zM1096 627q0 -34 -34 -34h-67q-34 0 -34 34v56q0 34 34 34h67q34 0 34 -34v-56
zM1226 497q0 -34 -34 -34h-67q-34 0 -34 34v56q0 34 34 34h67q34 0 34 -34v-56zM1346 367q0 -34 -34 -34h-67q-34 0 -34 34v56q0 34 34 34h67q34 0 34 -34v-56zM726 757q0 -34 -34 -34h-67q-34 0 -34 34v56q0 34 34 34h67q34 0 34 -34v-56zM846 627q0 -34 -34 -34h-67
q-34 0 -34 34v56q0 34 34 34h67q34 0 34 -34v-56zM976 497q0 -34 -34 -34h-67q-34 0 -34 34v56q0 34 34 34h67q34 0 34 -34v-56zM1096 367q0 -34 -34 -34h-67q-34 0 -34 34v56q0 34 34 34h67q34 0 34 -34v-56zM1476 237q0 -34 -34 -34h-817q-34 0 -34 34v56q0 34 34 34h817
q34 0 34 -34v-56zM476 757q0 -34 -34 -34h-67q-34 0 -34 34v56q0 34 34 34h67q34 0 34 -34v-56zM596 627q0 -34 -34 -34h-67q-34 0 -34 34v56q0 34 34 34h67q34 0 34 -34v-56zM726 497q0 -34 -34 -34h-67q-34 0 -34 34v56q0 34 34 34h67q34 0 34 -34v-56zM846 367
q0 -34 -34 -34h-67q-34 0 -34 34v56q0 34 34 34h67q34 0 34 -34v-56zM476 497q0 -34 -34 -34h-67q-34 0 -34 34v56q0 34 34 34h67q34 0 34 -34v-56zM596 367q0 -34 -34 -34h-67q-34 0 -34 34v56q0 34 34 34h67q34 0 34 -34v-56zM476 237q0 -34 -34 -34h-67q-34 0 -34 34v56
q0 34 34 34h67q34 0 34 -34v-56z" />
  </g>

</svg>
