<?xml version="1.0" standalone="no"?>
<!DOCTYPE svg PUBLIC "-//W3C//DTD SVG 1.1//EN" "http://www.w3.org/Graphics/SVG/1.1/DTD/svg11.dtd" >
<svg viewBox="0 -442 2300 2048">
  <g transform="matrix(1 0 0 -1 0 1606)">
   <path fill="currentColor"
d="M2300 52q0 -52 -54 -52h-1520q-23 0 -61 38l-568 568q-30 30 -30 58t30 58l568 569q36 35 61 35h1520q54 0 54 -54v-1220zM2194 106v1114h-1463l-556 -556l558 -558h1461zM2039 1169q0 -24 -34 -58l-447 -447l447 -447q34 -34 34 -58q0 -17 -15 -32t-33 -15q-23 0 -57 34
l-447 447l-447 -447q-34 -34 -58 -34q-17 0 -32 15t-15 32q0 24 34 58l447 447l-447 447q-34 34 -34 58q0 17 15 32t32 15q24 0 58 -34l447 -447l447 447q34 34 57 34q18 0 33 -15t15 -32z" />
  </g>

</svg>
