<?xml version="1.0" standalone="no"?>
<!DOCTYPE svg PUBLIC "-//W3C//DTD SVG 1.1//EN" "http://www.w3.org/Graphics/SVG/1.1/DTD/svg11.dtd" >
<svg viewBox="0 -442 2048 2048">
  <g transform="matrix(1 0 0 -1 0 1606)">
   <path fill="currentColor"
d="M1694 166q0 -24 -21 -36l-721 -416q-5 -3 -20 -3t-20 3l-721 416q-21 12 -21 36v832q0 24 21 36l721 416q5 3 20 3t20 -3l721 -416q21 -12 21 -36v-832zM1612 190v784l-680 393l-680 -393v-784l680 -393zM1506 914q0 -43 -40 -43q-12 0 -22 6l-512 296q-21 12 -21 35
q0 43 40 43q10 0 22 -7l512 -296q21 -12 21 -34zM1506 250q0 -22 -21 -34l-512 -296q-12 -7 -22 -7q-40 0 -40 43q0 23 21 35l512 296q10 6 22 6q40 0 40 -43zM420 286q0 -41 -41 -41t-41 41v592q0 41 41 41t41 -41v-592z" />
  </g>

</svg>
