<?xml version="1.0" standalone="no"?>
<!DOCTYPE svg PUBLIC "-//W3C//DTD SVG 1.1//EN" "http://www.w3.org/Graphics/SVG/1.1/DTD/svg11.dtd" >
<svg viewBox="0 -442 2048 2048">
  <g transform="matrix(1 0 0 -1 0 1606)">
   <path fill="currentColor"
d="M1589 1140l-378 -1038l-94 34l378 1038zM1228 440q-63 -173 -229 -251q-92 -42 -187 -42q-75 0 -153 28q-173 63 -251 229q-43 92 -42 187q0 75 28 153q63 173 229 251q92 43 187 43q75 0 153 -29q173 -63 251 -229q43 -92 43 -186q0 -76 -29 -154zM509 1065l-378 -1038
l-94 34l378 1038zM1134 475q21 58 21 119q0 106 -61 194.5t-165 126.5q-58 21 -119 21q-106 0 -194 -60q-90 -63 -127 -166q-21 -58 -21 -119q0 -106 61 -195t165 -126q60 -22 119 -22q72 0 144 33q129 60 177 194z" />
  </g>

</svg>
