<?xml version="1.0" standalone="no"?>
<!DOCTYPE svg PUBLIC "-//W3C//DTD SVG 1.1//EN" "http://www.w3.org/Graphics/SVG/1.1/DTD/svg11.dtd" >
<svg viewBox="0 -442 2048 2048">
  <g transform="matrix(1 0 0 -1 0 1606)">
   <path fill="currentColor"
d="M1614 561q0 -52 -49 -52q-13 0 -41 10q-23 -201 -173.5 -336t-352.5 -135q-175 0 -317 103.5t-194 269.5q-165 -118 -303 -315q-25 -40 -76 -118q-17 -25 -42 -25q-52 0 -52 49q0 13 8 27q178 313 443 488q-2 21 -2 51q0 220 155 377t375 157q208 0 362.5 -140.5
t170.5 -347.5q52 -16 56 -19q32 -15 32 -44zM1429 652q-26 159 -150 263.5t-286 104.5q-181 0 -309 -129t-129 -310q229 121 504 121q178 0 370 -50zM1434 547q-197 55 -374 55q-270 0 -492 -129q36 -147 156.5 -240t272.5 -93q172 0 298 117.5t139 289.5z" />
  </g>

</svg>
