<?xml version="1.0" standalone="no"?>
<!DOCTYPE svg PUBLIC "-//W3C//DTD SVG 1.1//EN" "http://www.w3.org/Graphics/SVG/1.1/DTD/svg11.dtd" >
<svg viewBox="0 -442 2048 2048">
  <g transform="matrix(1 0 0 -1 0 1606)">
   <path fill="currentColor"
d="M1488 -72q0 -39 -37 -39h-1308q-39 0 -39 39v1510q0 37 39 37h1308q37 0 37 -37v-1510zM1406 737v656h-1220v-645q25 232 199 389.5t411 157.5t413 -161.5t197 -396.5zM1309 682q0 211 -151.5 362t-362.5 151q-213 0 -362.5 -150t-149.5 -363t149.5 -363t363.5 -150
q212 0 362.5 150t150.5 363zM1406 -29v655q-21 -236 -196 -396.5t-414 -160.5q-237 0 -411 157.5t-199 389.5v-645h1220z" />
  </g>

</svg>
