<?xml version="1.0" standalone="no"?>
<!DOCTYPE svg PUBLIC "-//W3C//DTD SVG 1.1//EN" "http://www.w3.org/Graphics/SVG/1.1/DTD/svg11.dtd" >
<svg viewBox="0 -442 2048 2048">
  <g transform="matrix(1 0 0 -1 0 1606)">
   <path fill="currentColor"
d="M1488 -72q0 -39 -37 -39h-1308q-39 0 -39 39v1510q0 37 39 37h1308q37 0 37 -37v-1510zM1406 -29v640h-838q228 -162 288 -432q7 -31 7 -35q0 -24 -21 -27q3 0 -41 0q-14 0 -20 19q-3 16 -11 47q-17 66 -40 115q-36 77 -92 143q-108 127 -277 191q-16 6 -16 20t16 23
q16 6 46 18q221 96 323 314q23 50 40 114q3 16 11 47q5 18 25 20q-9 -1 36 -1q21 0 21 -27q0 -4 -7 -35q-59 -266 -288 -432h838v700h-1220v-1422h1220z" />
  </g>

</svg>
