<?xml version="1.0" standalone="no"?>
<!DOCTYPE svg PUBLIC "-//W3C//DTD SVG 1.1//EN" "http://www.w3.org/Graphics/SVG/1.1/DTD/svg11.dtd" >
<svg viewBox="0 -442 2048 2048">
  <g transform="matrix(1 0 0 -1 0 1606)">
   <path fill="currentColor"
d="M1421 943q97 -167 97 -360q0 -181 -84 -341q-87 -164 -242 -265l64 -109q15 -27 15 -43q0 -19 -20 -31q-11 -6 -21 -6q-23 0 -46 39l-63 109q-152 -76 -322 -76q-191 0 -358 94q-172 96 -270 267q-97 168 -97 361q0 180 85.5 341.5t240.5 263.5l-64 110q-15 26 -15 42
q0 19 20 31q11 6 21 6q23 0 45 -38l64 -110q152 77 323 77q191 0 357 -94q172 -97 270 -268zM1350 902q-87 152 -239 237q-148 84 -317 84q-149 0 -282 -66l639 -1109q136 90 211 235q74 141 74 300q0 171 -86 319zM1080 8l-639 1107q-136 -90 -212 -234q-73 -140 -73 -299
q0 -171 86.5 -321t238.5 -236q148 -83 318 -83q148 0 281 66z" />
  </g>

</svg>
