<?xml version="1.0" standalone="no"?>
<!DOCTYPE svg PUBLIC "-//W3C//DTD SVG 1.1//EN" "http://www.w3.org/Graphics/SVG/1.1/DTD/svg11.dtd" >
<svg viewBox="0 -442 2048 2048">
  <g transform="matrix(1 0 0 -1 0 1606)">
   <path fill="currentColor"
d="M1488 -72q0 -39 -37 -39h-1308q-39 0 -39 39v1510q0 37 39 37h1308q37 0 37 -37v-1510zM1406 -29v1422h-1220v-1422h1220zM1319 74q0 -26 -27 -26h-988q-28 0 -28 26q0 6 4 15l473 1121q15 36 45 36t45 -36l472 -1121q4 -9 4 -15zM1119 189l-361 858l-361 -858h722z" />
  </g>

</svg>
