<?xml version="1.0" standalone="no"?>
<!DOCTYPE svg PUBLIC "-//W3C//DTD SVG 1.1//EN" "http://www.w3.org/Graphics/SVG/1.1/DTD/svg11.dtd" >
<svg viewBox="0 -442 2048 2048">
  <g transform="matrix(1 0 0 -1 0 1606)">
   <path fill="currentColor"
d="M1479 41q0 -41 -37 -41h-1288q-39 0 -39 41t39 41h602v241q-160 15 -272.5 135.5t-112.5 284.5q0 163 111.5 286t273.5 138v160q0 37 41 37t41 -37v-160q161 -17 271 -139.5t110 -284.5q0 -163 -111 -283t-270 -137v-241h604q37 0 37 -41zM1142 743q0 130 -87.5 230
t-216.5 116v-688q127 16 215.5 114t88.5 228zM756 400v690q-130 -15 -219 -115.5t-89 -231.5q0 -132 89.5 -230t218.5 -113z" />
  </g>

</svg>
