<?xml version="1.0" standalone="no"?>
<!DOCTYPE svg PUBLIC "-//W3C//DTD SVG 1.1//EN" "http://www.w3.org/Graphics/SVG/1.1/DTD/svg11.dtd" >
<svg viewBox="-1 -442 2048 2048">
  <g transform="matrix(1 0 0 -1 0 1606)">
   <path fill="currentColor"
d="M1647 482q0 -41 -39 -41h-744v-728q0 -39 -41 -39t-41 39v728h-742q-41 0 -41 41t41 41h742v744q-162 -228 -432 -288q-31 -7 -35 -7q-24 0 -27 21q0 -3 0 41q0 14 19 20q16 3 47 11q66 17 115 40q77 36 143 92q127 108 191 277q6 16 20 16t23 -16q6 -16 18 -46
q96 -221 314 -323q50 -23 114 -40q16 -3 47 -11q18 -5 20 -25q-1 9 -1 -36q0 -21 -27 -21q-4 0 -35 7q-266 59 -432 288v-744h744q39 0 39 -41z" />
  </g>

</svg>
