<?xml version="1.0" standalone="no"?>
<!DOCTYPE svg PUBLIC "-//W3C//DTD SVG 1.1//EN" "http://www.w3.org/Graphics/SVG/1.1/DTD/svg11.dtd" >
<svg viewBox="0 -442 2048 2048">
  <g transform="matrix(1 0 0 -1 0 1606)">
   <path fill="currentColor"
d="M1488 -72q0 -39 -37 -39h-1308q-39 0 -39 39v1510q0 37 39 37h1308q37 0 37 -37v-1510zM1406 -29v1422h-1220v-1422h569v1156q-163 -228 -432 -288q-32 -7 -35 -7q-24 0 -28 21q1 -3 1 41q0 14 19 20q15 3 47 11q65 17 115 40q76 36 143 92q127 108 191 277q6 16 20 16
t23 -16q5 -16 18 -46q95 -221 314 -323q49 -23 114 -40q16 -3 47 -11q17 -5 20 -25q-1 9 -1 -36q0 -21 -27 -21q-4 0 -35 7q-266 59 -432 288v-1156h569z" />
  </g>

</svg>
