<?xml version="1.0" standalone="no"?>
<!DOCTYPE svg PUBLIC "-//W3C//DTD SVG 1.1//EN" "http://www.w3.org/Graphics/SVG/1.1/DTD/svg11.dtd" >
<svg viewBox="0 -442 2048 2048">
  <g transform="matrix(1 0 0 -1 0 1606)">
   <path fill="currentColor"
d="M1488 -72q0 -39 -37 -39h-1308q-39 0 -39 39v1310q0 37 39 37h1308q37 0 37 -37v-1310zM1406 423v770h-1220v-770q168 45 321 190q146 138 218 304q23 54 38 116q3 17 13 50q6 17 20 17t20 -17q3 -8 13 -50q15 -62 38 -116q72 -166 218 -304q153 -145 321 -190zM1406 -29
v361q-446 163 -610 528q-164 -365 -610 -528v-361h1220z" />
  </g>

</svg>
