<?xml version="1.0" standalone="no"?>
<!DOCTYPE svg PUBLIC "-//W3C//DTD SVG 1.1//EN" "http://www.w3.org/Graphics/SVG/1.1/DTD/svg11.dtd" >
<svg viewBox="0 -442 2048 2048">
  <g transform="matrix(1 0 0 -1 0 1606)">
   <path fill="currentColor"
d="M1479 1323q0 -41 -37 -41h-604v-241q159 -17 270 -137t111 -283q0 -162 -110 -284.5t-271 -139.5v-160q0 -37 -41 -37t-41 37v160q-162 15 -273.5 138.5t-111.5 285.5q0 164 112.5 284.5t272.5 135.5v241h-602q-39 0 -39 41t39 41h1288q37 0 37 -41zM1142 621
q0 130 -88.5 228t-215.5 114v-688q129 16 216.5 116t87.5 230zM756 274v690q-129 -15 -218.5 -113t-89.5 -230q0 -131 89 -231.5t219 -115.5z" />
  </g>

</svg>
