<?xml version="1.0" standalone="no"?>
<!DOCTYPE svg PUBLIC "-//W3C//DTD SVG 1.1//EN" "http://www.w3.org/Graphics/SVG/1.1/DTD/svg11.dtd" >
<svg viewBox="0 -442 2048 2048">
  <g transform="matrix(1 0 0 -1 0 1606)">
   <path fill="currentColor"
d="M1277 841q0 -173 -125.5 -297.5t-298.5 -124.5t-298.5 124.5t-125.5 297.5q0 174 125 300t299 126t299 -126t125 -300zM1575 -353q0 -59 -59 -59t-59 59v1243q0 237 -185 405q-180 163 -419 163q-245 0 -422 -160q-182 -166 -182 -408v-1243q0 -59 -59 -59t-59 59v1243
q0 291 217 491q212 195 505 195q288 0 502 -198q220 -202 220 -488v-1243zM1190 841q0 138 -99.5 238.5t-237.5 100.5t-237.5 -100.5t-99.5 -238.5q0 -137 100 -236t237 -99t237 99t100 236z" />
  </g>

</svg>
