<?xml version="1.0" standalone="no"?>
<!DOCTYPE svg PUBLIC "-//W3C//DTD SVG 1.1//EN" "http://www.w3.org/Graphics/SVG/1.1/DTD/svg11.dtd" >
<svg viewBox="0 -442 2048 2048">
  <g transform="matrix(1 0 0 -1 0 1606)">
   <path fill="currentColor"
d="M1518 582q0 -298 -211.5 -510.5t-509.5 -212.5t-510.5 212.5t-212.5 510.5q0 300 211.5 511.5t511.5 211.5q299 0 510 -212t211 -511zM1436 582q0 265 -187.5 453t-451.5 188q-266 0 -453.5 -187.5t-187.5 -453.5q0 -264 188.5 -452.5t452.5 -188.5t451.5 188.5
t187.5 452.5zM1302 731q0 -15 -12 -21l-373 -176q201 -369 201 -371q0 -22 -23 -22q-11 0 -14 4l-285 303l-281 -299q-8 -8 -18 -8q-23 0 -23 22q0 3 201 371l-368 174q-17 8 -17 23q0 27 25 22l407 -78l51 410q2 18 23 18q20 0 23 -18l51 -410l407 78q25 5 25 -22z" />
  </g>

</svg>
