<?xml version="1.0" standalone="no"?>
<!DOCTYPE svg PUBLIC "-//W3C//DTD SVG 1.1//EN" "http://www.w3.org/Graphics/SVG/1.1/DTD/svg11.dtd" >
<svg viewBox="0 -442 2048 2048">
  <g transform="matrix(1 0 0 -1 0 1606)">
   <path fill="currentColor"
d="M937 1480q0 -46 -34 -79.5t-79 -33.5q-46 0 -79.5 33.5t-33.5 79.5q0 47 33 79.5t80 32.5q45 0 79 -33.5t34 -78.5zM313 1480q0 -46 -34 -79.5t-79 -33.5q-46 0 -79.5 33.5t-33.5 79.5q0 47 33 79.5t80 32.5q45 0 79 -33.5t34 -78.5zM1018 731q0 -15 -12 -21l-373 -176
q201 -369 201 -371q0 -22 -23 -22q-10 0 -14 4l-285 303l-281 -299q-8 -8 -18 -8q-23 0 -23 22q0 3 201 371l-368 174q-17 8 -17 23q0 27 25 22l407 -78l51 410q2 18 23 18t23 -18l51 -410l407 78q25 5 25 -22z" />
  </g>

</svg>
