<?xml version="1.0" standalone="no"?>
<!DOCTYPE svg PUBLIC "-//W3C//DTD SVG 1.1//EN" "http://www.w3.org/Graphics/SVG/1.1/DTD/svg11.dtd" >
<svg viewBox="0 -442 2048 2048">
  <g transform="matrix(1 0 0 -1 0 1606)">
   <path fill="currentColor"
d="M937 1480q0 -46 -34 -79.5t-79 -33.5q-46 0 -79.5 33.5t-33.5 79.5q0 47 33 79.5t80 32.5q45 0 79 -33.5t34 -78.5zM313 1480q0 -46 -34 -79.5t-79 -33.5q-46 0 -79.5 33.5t-33.5 79.5q0 47 33 79.5t80 32.5q45 0 79 -33.5t34 -78.5zM736 581q0 -90 -67 -156t-157 -66
q-91 0 -157.5 65.5t-66.5 156.5t66.5 158.5t157.5 67.5q92 0 158 -67t66 -159zM659 581q0 60 -44 104.5t-103 44.5t-103 -44.5t-44 -104.5q0 -58 44 -101.5t103 -43.5t103 43.5t44 101.5z" />
  </g>

</svg>
