<?xml version="1.0" standalone="no"?>
<!DOCTYPE svg PUBLIC "-//W3C//DTD SVG 1.1//EN" "http://www.w3.org/Graphics/SVG/1.1/DTD/svg11.dtd" >
<svg viewBox="0 -442 2048 2048">
  <g transform="matrix(1 0 0 -1 0 1606)">
   <path fill="currentColor"
d="M1421 41q0 -41 -39 -41h-418v-201q0 -41 -41 -41t-41 41v201h-90q-248 0 -432 166q-190 171 -190 416t190 416q184 166 432 166h90v203q0 39 41 39t41 -39v-203h418q39 0 39 -41t-39 -41h-418v-1000h418q39 0 39 -41zM882 82v1000h-84q-216 0 -378 -140
q-168 -147 -168 -360t168 -360q162 -140 378 -140h84z" />
  </g>

</svg>
