<?xml version="1.0" standalone="no"?>
<!DOCTYPE svg PUBLIC "-//W3C//DTD SVG 1.1//EN" "http://www.w3.org/Graphics/SVG/1.1/DTD/svg11.dtd" >
<svg viewBox="0 -442 2048 2048">
  <g transform="matrix(1 0 0 -1 0 1606)">
   <path fill="currentColor"
d="M1596 1373q0 -6 -4 -14l-425 -857q20 -3 40 -3q85 0 156 50t104 130q15 36 22 109q5 51 29 51q29 0 29 -63q0 -152 -92 -267q-100 -124 -248 -124q-46 0 -92 13l-218 -440q-17 -35 -50 -35q-34 0 -51 35l-370 748q-95 -38 -146 -128q-29 -52 -38 -142q-5 -51 -29 -51
q-28 0 -28 63q0 109 51 205q53 100 142 149l-276 557q-4 8 -4 14q0 17 24 17h1450q24 0 24 -17zM1463 1244h-1115l201 -406q124 -9 287 -141q187 -153 267 -180zM1055 421q-65 31 -218 157q-134 110 -227 135l295 -595z" />
  </g>

</svg>
