<?xml version="1.0" standalone="no"?>
<!DOCTYPE svg PUBLIC "-//W3C//DTD SVG 1.1//EN" "http://www.w3.org/Graphics/SVG/1.1/DTD/svg11.dtd" >
<svg viewBox="0 -442 2048 2048">
  <g transform="matrix(1 0 0 -1 0 1606)">
   <path fill="currentColor"
d="M1276 885q0 -100 -49 -189q-51 -94 -138 -136q-30 -225 -117 -378q-118 -206 -309 -206q-222 0 -344 277q-94 214 -94 471q0 32 3 78q-106 -65 -127 -223q-6 -46 -26 -46q-25 0 -25 56q0 102 49 190q52 95 140 136q32 224 118 373q116 201 306 201q224 0 344 -279
q94 -217 94 -490q0 -24 -1 -46q74 46 104 123q11 28 20 98q6 46 26 46q26 0 26 -56zM941 736q0 226 -48 414q-73 285 -230 285q-213 0 -266 -496q107 -15 271 -152.5t270 -149.5q3 54 3 99zM930 535q-105 15 -270 152.5t-272 149.5q-3 -53 -3 -100q0 -227 48 -418
q74 -289 230 -289q214 0 267 505z" />
  </g>

</svg>
