<?xml version="1.0" standalone="no"?>
<!DOCTYPE svg PUBLIC "-//W3C//DTD SVG 1.1//EN" "http://www.w3.org/Graphics/SVG/1.1/DTD/svg11.dtd" >
<svg viewBox="0 -442 2048 2048">
  <g transform="matrix(1 0 0 -1 0 1606)">
   <path fill="currentColor"
d="M1488 -72q0 -39 -37 -39h-1308q-39 0 -39 39v1510q0 37 39 37h1308q37 0 37 -37v-1510zM1406 -29v1422h-1220v-1422h1220zM1089 994q0 -123 -124 -265q-100 -113 -123 -153q-45 -74 -51 -184h-33q6 106 31 182q20 62 76 168q76 146 76 237t-46 153q-52 69 -140 69
q-54 0 -97 -25q-52 -29 -52 -79q0 -27 24 -72.5t24 -66.5q0 -68 -64 -68q-43 0 -68 44q-20 36 -20 82q0 108 93 172q82 58 194 58q165 0 243 -96q57 -71 57 -156zM869 203q0 -37 -26 -63t-63 -26t-63 26t-26 63q0 38 25.5 64t63.5 26t63.5 -26t25.5 -64z" />
  </g>

</svg>
