<?xml version="1.0" standalone="no"?>
<!DOCTYPE svg PUBLIC "-//W3C//DTD SVG 1.1//EN" "http://www.w3.org/Graphics/SVG/1.1/DTD/svg11.dtd" >
<svg viewBox="0 -442 2048 2048">
  <g transform="matrix(1 0 0 -1 0 1606)">
   <path fill="currentColor"
d="M1249 1184q0 -10 -2 -15l-250 -565q134 38 158 174q3 26 7 53q8 37 27 37q28 0 28 -56q0 -121 -73 -214q-78 -100 -196 -104l-227 -514q-11 -25 -39 -25q-22 0 -37 25q-1 1 -30 67l-311 698q-66 -31 -95 -84q-23 -40 -36 -121q-8 -46 -28 -46q-28 0 -28 56q0 192 149 282
q-151 342 -151 352q0 41 41 41q28 0 39 -25l149 -337q25 5 50 5q113 0 263 -124q159 -132 248 -145l266 601q11 25 37 25q41 0 41 -41zM863 505q-69 21 -230 154q-135 112 -246 107l295 -670z" />
  </g>

</svg>
