<?xml version="1.0" standalone="no"?>
<!DOCTYPE svg PUBLIC "-//W3C//DTD SVG 1.1//EN" "http://www.w3.org/Graphics/SVG/1.1/DTD/svg11.dtd" >
<svg viewBox="0 -442 2048 2048">
  <g transform="matrix(1 0 0 -1 0 1606)">
   <path fill="currentColor"
d="M1249 -4q0 -41 -41 -41q-26 0 -37 25l-266 601q-89 -13 -248 -145q-150 -124 -263 -124q-25 0 -50 5l-149 -337q-11 -25 -39 -25q-41 0 -41 41q0 10 151 352q-149 90 -149 282q0 56 28 56q20 0 28 -46q13 -81 36 -121q29 -53 95 -84l311 698q9 23 30 67q15 25 37 25
q28 0 39 -25l227 -514q118 -4 196 -104q73 -93 73 -214q0 -56 -28 -56q-19 0 -27 37q-4 27 -7 53q-24 136 -158 174l250 -565q2 -5 2 -15zM863 675l-181 409l-295 -670q111 -5 246 107q161 133 230 154z" />
  </g>

</svg>
