<?xml version="1.0" standalone="no"?>
<!DOCTYPE svg PUBLIC "-//W3C//DTD SVG 1.1//EN" "http://www.w3.org/Graphics/SVG/1.1/DTD/svg11.dtd" >
<svg viewBox="0 -442 2048 2048">
  <g transform="matrix(1 0 0 -1 0 1606)">
   <path fill="currentColor"
d="M1197 190q0 -84 -45 -140q-48 -62 -130 -62q-125 0 -173 162q-161 -174 -361 -174q-192 0 -317 148q-119 139 -119 335q0 199 123 346q130 155 325 155q160 0 255 -98q75 -78 119 -232q9 -34 58 -273q49 97 79 254q27 143 27 267q0 72 43 72q47 0 47 -72q0 -125 -57 -305
q-52 -168 -122 -287q49 -233 118 -233q79 0 79 173q0 -3 -3 85h54v-121zM1181 -268q0 -41 -37 -41h-1055q-39 0 -39 41t39 41h1055q37 0 37 -41zM834 207q-30 133 -61 266q-46 196 -106 298q-81 141 -200 141q-135 0 -200 -121q-52 -96 -52 -243q0 -186 67 -331
q87 -187 251 -187q152 0 301 177z" />
  </g>

</svg>
