<?xml version="1.0" standalone="no"?>
<!DOCTYPE svg PUBLIC "-//W3C//DTD SVG 1.1//EN" "http://www.w3.org/Graphics/SVG/1.1/DTD/svg11.dtd" >
<svg viewBox="0 -442 2048 2048">
  <g transform="matrix(1 0 0 -1 0 1606)">
   <path fill="currentColor"
d="M1276 430q0 -173 -79 -302q-93 -152 -255 -152q-185 0 -278 219q-93 -219 -278 -219q-162 0 -255 152q-79 129 -79 302q0 245 121 382q128 145 369 148v-48q-327 -10 -327 -470q0 -412 202 -412q135 0 224 241q-67 140 -67 291q0 219 90 219t90 -219q0 -151 -67 -291
q89 -241 224 -241q202 0 202 412q0 460 -327 470v48q241 -3 369 -148q121 -138 121 -382zM1271 -268q0 -41 -37 -41h-1135q-39 0 -39 41t39 41h1135q37 0 37 -41z" />
  </g>

</svg>
