<?xml version="1.0" standalone="no"?>
<!DOCTYPE svg PUBLIC "-//W3C//DTD SVG 1.1//EN" "http://www.w3.org/Graphics/SVG/1.1/DTD/svg11.dtd" >
<svg viewBox="0 -442 2048 2048">
  <g transform="matrix(1 0 0 -1 0 1606)">
   <path fill="currentColor"
d="M1411 782q0 -41 -37 -41h-432q-554 -783 -617 -783q-79 0 -147 191q-58 161 -58 262q0 40 38 69q35 27 76 27q23 0 40 -11q7 -4 51 -128q39 -110 95 -110q35 0 372 483h-393q-39 0 -39 41t39 41h450l185 264q38 53 117 156q39 46 97 87q72 51 118 51q16 0 16 -14
q0 -26 -57 -99q-39 -49 -78 -97q-22 -29 -247 -348h374q37 0 37 -41z" />
  </g>

</svg>
