<?xml version="1.0" standalone="no"?>
<!DOCTYPE svg PUBLIC "-//W3C//DTD SVG 1.1//EN" "http://www.w3.org/Graphics/SVG/1.1/DTD/svg11.dtd" >
<svg viewBox="0 -442 2048 2048">
  <g transform="matrix(1 0 0 -1 0 1606)">
   <path fill="currentColor"
d="M1719 41q0 -41 -68 -41h-1019q-106 -145 -106 -229v-35q107 127 253 179q8 3 15 3q39 0 39 -42q0 -24 -26 -36q-20 -8 -59 -25q-149 -75 -237 -230q-15 -27 -26 -27t-26 27q-87 154 -236 230q-19 8 -58 25q-26 12 -26 36q0 42 39 42q7 0 15 -3q144 -52 251 -178v34
q0 99 90 229h-22q-61 0 -66 35q-2 11 -2 33v532q-112 100 -158 162q-73 97 -73 197q0 101 73 198q46 62 158 160v20q0 68 41 68t41 -68v-700q110 -97 157 -162q72 -98 72 -198q0 -90 -66 -195h962q68 0 68 -41zM444 710v499q-149 -139 -149 -250q0 -110 149 -249zM673 277
q0 111 -147 250v-445h66q81 117 81 195z" />
  </g>

</svg>
