<?xml version="1.0" standalone="no"?>
<!DOCTYPE svg PUBLIC "-//W3C//DTD SVG 1.1//EN" "http://www.w3.org/Graphics/SVG/1.1/DTD/svg11.dtd" >
<svg viewBox="0 -442 2048 2048">
  <g transform="matrix(1 0 0 -1 0 1606)">
   <path fill="currentColor"
d="M1878 324q0 -41 -31 -72t-72 -31q-42 0 -72.5 30.5t-30.5 72.5q0 43 30 72.5t73 29.5q41 0 72 -30.5t31 -71.5zM1555 324q0 -41 -31 -72t-72 -31q-42 0 -72.5 30.5t-30.5 72.5q0 43 30 72.5t73 29.5q41 0 72 -30.5t31 -71.5zM1232 324q0 -43 -30 -73t-73 -30t-73 30
t-30 73t30 73t73 30q42 0 72.5 -30.5t30.5 -72.5zM913 365q0 -59 -37 -100q-40 -44 -105 -44q-98 0 -129 97q-67 -105 -206 -105q-97 0 -171 34q-95 44 -95 128q0 125 165 194q99 41 289 51v43q0 70 -41 118q-44 54 -119 54q-94 0 -150 -47q70 -13 70 -74q0 -75 -85 -75
q-84 0 -84 76q0 81 87 130q74 42 166 42q141 0 227 -82q60 -57 60 -174v-284q0 -62 49 -62t49 106q0 18 -2 64h62v-90zM1878 41q0 -41 -37 -41h-1632q-39 0 -39 41t39 41h1632q37 0 37 -41zM624 438v132q-124 -6 -208 -48q-103 -52 -103 -145q0 -47 39 -79.5t94 -32.5
q79 0 130 52q48 50 48 121z" />
  </g>

</svg>
