<?xml version="1.0" standalone="no"?>
<!DOCTYPE svg PUBLIC "-//W3C//DTD SVG 1.1//EN" "http://www.w3.org/Graphics/SVG/1.1/DTD/svg11.dtd" >
<svg viewBox="0 -442 2048 2048">
  <g transform="matrix(1 0 0 -1 0 1606)">
   <path fill="currentColor"
d="M1843 365q0 -59 -37 -100q-40 -44 -105 -44q-98 0 -129 97q-67 -105 -206 -105q-97 0 -171 34q-95 44 -95 128q0 125 165 194q100 41 289 51v43q0 70 -41 118q-44 54 -119 54q-94 0 -150 -47q70 -13 70 -74q0 -75 -85 -75q-84 0 -84 76q0 81 87 130q74 42 166 42
q141 0 227 -82q60 -57 60 -174v-284q0 -62 49 -62t49 106q0 18 -2 64h62v-90zM1878 41q0 -41 -37 -41h-702q-39 0 -39 41t39 41h702q37 0 37 -41zM913 365q0 -59 -37 -100q-40 -44 -105 -44q-98 0 -129 97q-67 -105 -206 -105q-97 0 -171 34q-95 44 -95 128q0 125 165 194
q100 41 289 51v43q0 70 -41 118q-44 54 -119 54q-94 0 -150 -47q70 -13 70 -74q0 -75 -85 -75q-84 0 -84 76q0 81 87 130q74 42 166 42q141 0 227 -82q60 -57 60 -174v-284q0 -62 49 -62t49 106q0 18 -2 64h62v-90zM948 41q0 -41 -37 -41h-702q-39 0 -39 41t39 41h702
q37 0 37 -41zM1554 438v132q-124 -6 -208 -48q-103 -52 -103 -145q0 -47 39 -79.5t94 -32.5q79 0 130 52q48 50 48 121zM624 438v132q-124 -6 -208 -48q-103 -52 -103 -145q0 -47 39 -79.5t94 -32.5q79 0 130 52q48 50 48 121z" />
  </g>

</svg>
