<?xml version="1.0" standalone="no"?>
<!DOCTYPE svg PUBLIC "-//W3C//DTD SVG 1.1//EN" "http://www.w3.org/Graphics/SVG/1.1/DTD/svg11.dtd" >
<svg viewBox="0 -442 2048 2048">
  <g transform="matrix(1 0 0 -1 0 1606)">
   <path fill="currentColor"
d="M1426 1245l-181 -313q-23 37 -56 66l166 288q18 32 54 11q36 -20 17 -52zM1822 582q0 -41 -37 -41h-326v82h326q37 0 37 -41zM775 1048q-40 -18 -71 -42l-137 237q-20 34 16 54q36 21 55 -13zM1373 446q0 -59 -37 -100q-40 -44 -105 -44q-98 0 -129 97
q-67 -105 -206 -105q-97 0 -171 34q-95 44 -95 128q0 125 165 194q99 41 289 51v43q0 70 -41 118q-44 54 -119 54q-94 0 -150 -47q70 -13 70 -74q0 -75 -85 -75q-84 0 -84 76q0 81 87 130q74 42 166 42q141 0 227 -82q60 -57 60 -174v-284q0 -62 49 -62t49 106q0 18 -2 64
h62v-90zM1426 -81q19 -32 -17 -52q-36 -21 -54 11l-184 318q24 -5 49 -5q24 0 47 4zM610 623q-29 -38 -44 -82h-357q-39 0 -39 41t39 41h401zM818 192l-180 -312q-19 -34 -55 -13q-36 20 -16 54l171 296q38 -16 80 -25zM1084 519v132q-124 -6 -208 -48q-103 -52 -103 -145
q0 -47 39 -79.5t94 -32.5q79 0 130 52q48 50 48 121z" />
  </g>

</svg>
