<?xml version="1.0" standalone="no"?>
<!DOCTYPE svg PUBLIC "-//W3C//DTD SVG 1.1//EN" "http://www.w3.org/Graphics/SVG/1.1/DTD/svg11.dtd" >
<svg viewBox="0 -442 2048 2048">
  <g transform="matrix(1 0 0 -1 0 1606)">
   <path fill="currentColor"
d="M2029 582q0 -16 -10 -26l-925 -925q-11 -11 -27 -11q-17 0 -28 11l-693 693h116l605 -604l862 862l-864 864l-605 -605l-116 1l695 694q10 10 26 10t26 -10l927 -926q11 -11 11 -28zM1335 582q0 -23 -32 -38q-116 -53 -191 -117q-63 -54 -150 -165q-18 -23 -38 -23
q-36 0 -36 47v137h-757q-61 0 -61 59v200q0 59 61 59l757 -1v138q0 47 36 47q20 0 38 -23q87 -111 150 -165q75 -64 191 -117q32 -15 32 -38zM1193 582q-135 74 -223 177v-30q0 -30 -22 -50t-50 -20h-746v-154h746q28 0 50 -20t22 -50v-30q88 103 223 177z" />
  </g>

</svg>
