<?xml version="1.0" standalone="no"?>
<!DOCTYPE svg PUBLIC "-//W3C//DTD SVG 1.1//EN" "http://www.w3.org/Graphics/SVG/1.1/DTD/svg11.dtd" >
<svg viewBox="0 -442 2048 2048">
  <g transform="matrix(1 0 0 -1 0 1606)">
   <path fill="currentColor"
d="M1821 582q0 -41 -37 -41h-168q-14 -209 -153 -369l119 -119q26 -26 -3 -55t-55 -3l-119 119q-159 -140 -368 -154v-165q0 -39 -41 -39t-41 39v165q-210 15 -369 155l-118 -118q-27 -28 -56 1t-2 57l118 118q-139 159 -153 368h-166q-39 0 -39 41t39 41h166
q13 210 152 369l-117 117q-27 28 2 57t56 1l117 -117q159 140 370 154v167q0 37 41 37t41 -37v-167q210 -14 369 -154l118 119q26 26 55 -3t3 -55l-118 -119q138 -159 152 -369h168q37 0 37 -41zM1348 992q-135 116 -311 130v-441zM1534 623q-13 176 -129 311l-311 -311h440
zM955 681v440q-177 -13 -312 -129zM1534 541h-440l311 -311q116 135 129 311zM897 623l-311 311q-116 -135 -129 -311h440zM1347 172l-310 311v-441q175 14 310 130zM897 541h-440q13 -175 129 -310zM955 43v440l-311 -310q135 -117 311 -130z" />
  </g>

</svg>
