<?xml version="1.0" standalone="no"?>
<!DOCTYPE svg PUBLIC "-//W3C//DTD SVG 1.1//EN" "http://www.w3.org/Graphics/SVG/1.1/DTD/svg11.dtd" >
<svg viewBox="0 -442 2048 2048">
  <g transform="matrix(1 0 0 -1 0 1606)">
   <path fill="currentColor"
d="M1518 582q0 -298 -211.5 -510.5t-509.5 -212.5t-510.5 212.5t-212.5 510.5q0 300 211.5 511.5t511.5 211.5q299 0 510 -212t211 -511zM1435 623q-16 251 -200.5 425.5t-437.5 174.5q-255 0 -439.5 -174t-200.5 -426h241q23 0 35 -20l363 -590l363 590q12 20 35 20h241z
M1435 541h-218l-368 -598q236 19 403.5 190t182.5 408zM743 -57l-368 598h-218q15 -236 182.5 -407t403.5 -191z" />
  </g>

</svg>
