<?xml version="1.0" standalone="no"?>
<!DOCTYPE svg PUBLIC "-//W3C//DTD SVG 1.1//EN" "http://www.w3.org/Graphics/SVG/1.1/DTD/svg11.dtd" >
<svg viewBox="0 -442 2048 2048">
  <g transform="matrix(1 0 0 -1 0 1606)">
   <path fill="currentColor"
d="M1518 583q0 -300 -211.5 -511.5t-511.5 -211.5t-510 210.5t-210 510.5q0 222 121 403q20 -58 30 -110q-69 -135 -69 -293q0 -266 186 -452.5t452 -186.5t453.5 187.5t187.5 453.5q0 265 -187 452t-452 187q-157 0 -293 -70q-52 10 -110 30q181 122 403 122
q299 0 510 -211t211 -510zM1241 195q26 -26 -3 -55t-55 -3l-610 610l-181 -180q-33 -33 -58 -8l-2 2q-12 15 -9 42q13 103 13 168q0 126 -55 272q-12 33 4.5 49.5t49.5 4.5q146 -55 272 -55q65 0 168 13q28 3 44 -11q25 -25 -8 -58l-180 -181zM669 960q-136 -11 -283 32
q43 -147 32 -283z" />
  </g>

</svg>
