<?xml version="1.0" standalone="no"?>
<!DOCTYPE svg PUBLIC "-//W3C//DTD SVG 1.1//EN" "http://www.w3.org/Graphics/SVG/1.1/DTD/svg11.dtd" >
<svg viewBox="0 -442 2048 2048">
  <g transform="matrix(1 0 0 -1 0 1606)">
   <path fill="currentColor"
d="M1488 936q0 -39 -42 -39q-28 0 -39 32q-12 43 -54 139q-76 138 -212 221t-292 83q-316 0 -484 -255q-23 -52 -74 -140q33 2 52 2q68 0 156 -20q119 -27 119 -70q0 -42 -37 -42l-79 28t-169 28q-75 0 -161 -23q-19 -5 -25 -5q-17 0 -17 17q0 6 5 25q23 86 23 161
q0 91 -27 169t-27 77q0 38 42 38q48 0 72 -132q18 -102 14 -187q181 411 617 411q204 0 413 -155q226 -166 226 -363zM1491 295q0 -123 -86 -209t-209 -86t-209 86t-86 209t86 209t209 86q121 0 208 -87t87 -208zM691 295q0 -123 -86 -209t-209 -86t-209 86t-86 209t86 209
t209 86q121 0 208 -87t87 -208zM1409 295q0 87 -63 150t-150 63q-89 0 -151 -62t-62 -151t62 -151t151 -62t151 62t62 151zM609 295q0 87 -63 150t-150 63q-89 0 -151 -62t-62 -151t62 -151t151 -62t151 62t62 151z" />
  </g>

</svg>
