<?xml version="1.0" standalone="no"?>
<!DOCTYPE svg PUBLIC "-//W3C//DTD SVG 1.1//EN" "http://www.w3.org/Graphics/SVG/1.1/DTD/svg11.dtd" >
<svg viewBox="0 -442 2048 2048">
  <g transform="matrix(1 0 0 -1 0 1606)">
   <path fill="currentColor"
d="M1456 432q0 -41 -37 -41h-283q-39 0 -39 41t39 41h283q37 0 37 -41zM1456 732q0 -41 -37 -41h-1245q-39 0 -39 41t39 41h1245q37 0 37 -41zM975 432q0 -41 -37 -41h-283q-39 0 -39 41t39 41h283q37 0 37 -41zM494 432q0 -41 -37 -41h-283q-39 0 -39 41t39 41h283
q37 0 37 -41z" />
  </g>

</svg>
