<?xml version="1.0" standalone="no"?>
<!DOCTYPE svg PUBLIC "-//W3C//DTD SVG 1.1//EN" "http://www.w3.org/Graphics/SVG/1.1/DTD/svg11.dtd" >
<svg viewBox="0 -442 2048 2048">
  <g transform="matrix(1 0 0 -1 0 1606)">
   <path fill="currentColor"
d="M1660 892h-82v106h-106v82h147q41 0 41 -41v-147zM1660 560h-82v224h82v-224zM1032 998h-224v82h224v-82zM1660 228h-82v224h82v-224zM1660 -104h-82v224h82v-224zM700 998h-106v-106h-82v147q0 41 41 41h147v-82zM1364 998h-224v82h26v318h-984v-1316h330v38h82v-224
h-82v104h-371q-41 0 -41 41v1398q0 41 41 41h1066q41 0 41 -41v-359h116v-82zM1288 302l-425 -49l89 156q-202 139 -358 172v-21h-82v33q-72 8 -155 6v149q18 1 63 1q43 0 92 -5v40h82v-51q212 -41 444 -189l83 145zM1660 -359q0 -41 -41 -41h-147v82h106v106h82v-147z
M594 228h-82v224h82v-224zM1364 -400h-224v82h224v-82zM1032 -400h-224v82h224v-82zM700 -400h-147q-41 0 -41 41v147h82v-106h106v-82z" />
  </g>

</svg>
