<?xml version="1.0" standalone="no"?>
<!DOCTYPE svg PUBLIC "-//W3C//DTD SVG 1.1//EN" "http://www.w3.org/Graphics/SVG/1.1/DTD/svg11.dtd" >
<svg viewBox="0 -442 2048 2048">
  <g transform="matrix(1 0 0 -1 0 1606)">
   <path fill="currentColor"
d="M2000 37q0 -288 -90.5 -378.5t-378.5 -90.5h-962q-288 0 -378.5 90.5t-90.5 378.5v543q0 270 77 364t314 103v147l402 402h716v-549q237 -9 314 -103t77 -364v-543zM880 1208v259l-259 -259h259zM1527 226v1288h-565v-388h-389v-900h954zM1918 37v543q0 237 -54 306
q-56 73 -255 79v-821h-1118v821q-199 -6 -255 -79q-54 -69 -54 -306v-543q0 -254 66.5 -320.5t320.5 -66.5h962q254 0 320.5 66.5t66.5 320.5z" />
  </g>

</svg>
