<?xml version="1.0" standalone="no"?>
<!DOCTYPE svg PUBLIC "-//W3C//DTD SVG 1.1//EN" "http://www.w3.org/Graphics/SVG/1.1/DTD/svg11.dtd" >
<svg viewBox="0 -442 2048 2048">
  <g transform="matrix(1 0 0 -1 0 1606)">
   <path fill="currentColor"
d="M2000 469q0 -288 -90.5 -378.5t-378.5 -90.5h-962q-288 0 -378.5 90.5t-90.5 378.5v543q0 288 90 378t379 90h962q289 0 379 -90t90 -378v-543zM1918 469v543q0 254 -66 320t-321 66h-962q-255 0 -321 -66t-66 -320v-543q0 -254 66.5 -320.5t320.5 -66.5h962
q254 0 320.5 66.5t66.5 320.5zM1798 1123l-1229 -928q-31 0 -70 2l1287 980q8 -26 12 -54zM1704 1263l-1345 -1024q-19 16 -33 38l1316 1002q31 -5 62 -16zM1456 1285l-1159 -882q-2 32 -2 62l1077 820h84z" />
  </g>

</svg>
