<?xml version="1.0" standalone="no"?>
<!DOCTYPE svg PUBLIC "-//W3C//DTD SVG 1.1//EN" "http://www.w3.org/Graphics/SVG/1.1/DTD/svg11.dtd" >
<svg viewBox="0 -442 2048 2048">
  <g transform="matrix(1 0 0 -1 0 1606)">
   <path fill="currentColor"
d="M1136 582q0 -208 -142.5 -361t-347.5 -169v-144h357q37 0 37 -41t-37 -41h-794q-39 0 -39 41t39 41h355v144q-206 16 -348 169t-142 361q0 210 141.5 362.5t348.5 167.5v223q0 39 41 39t41 -39v-223q206 -15 348 -168t142 -362zM1054 582q0 175 -118 303.5t-290 144.5
v-896q171 16 289.5 145t118.5 303zM564 134v896q-173 -15 -290.5 -143.5t-117.5 -304.5q0 -174 118 -303t290 -145z" />
  </g>

</svg>
