<?xml version="1.0" standalone="no"?>
<!DOCTYPE svg PUBLIC "-//W3C//DTD SVG 1.1//EN" "http://www.w3.org/Graphics/SVG/1.1/DTD/svg11.dtd" >
<svg viewBox="0 -442 2048 2048">
  <g transform="matrix(1 0 0 -1 0 1606)">
   <path fill="currentColor"
d="M1587 913q0 -65 -36 -101l-632 -629q-38 -38 -183 -38v-206q0 -46 -35 -46q-18 0 -35 17l-484 485q-12 12 -12 29t12 29l484 485q17 17 35 17q35 0 35 -46v-206h292v741q0 46 35 46q18 0 35 -17l209 -210l210 210q17 17 35 17q35 0 35 -46v-531zM1505 913v432l-169 -169
q-11 -11 -31 -11q-15 0 -26 11l-169 169v-642h215l168 167q12 12 12 43zM1242 621h-547q-41 0 -41 41v148l-385 -386l385 -386v148q0 41 41 41q152 0 166 14z" />
  </g>

</svg>
