<?xml version="1.0" standalone="no"?>
<!DOCTYPE svg PUBLIC "-//W3C//DTD SVG 1.1//EN" "http://www.w3.org/Graphics/SVG/1.1/DTD/svg11.dtd" >
<svg viewBox="0 -442 2048 2048">
  <g transform="matrix(1 0 0 -1 0 1606)">
   <path fill="currentColor"
d="M1451 513q0 -41 -37 -41h-1346q-39 0 -39 41t39 41h631v898q0 37 41 37t41 -37v-898h633q37 0 37 -41zM1301 236q0 -41 -37 -41h-1046q-39 0 -39 41t39 41h1046q37 0 37 -41zM1151 -41q0 -41 -37 -41h-746q-39 0 -39 41t39 41h746q37 0 37 -41zM1001 -318q0 -41 -37 -41
h-446q-39 0 -39 41t39 41h446q37 0 37 -41z" />
  </g>

</svg>
