<?xml version="1.0" standalone="no"?>
<!DOCTYPE svg PUBLIC "-//W3C//DTD SVG 1.1//EN" "http://www.w3.org/Graphics/SVG/1.1/DTD/svg11.dtd" >
<svg viewBox="0 -442 2048 2048">
  <g transform="matrix(1 0 0 -1 0 1606)">
   <path fill="currentColor"
d="M1864 -332q0 -41 -22 -41q-19 0 -23 18q-9 154 -94 237q-43 42 -114 54q-34 5 -129 5h-277q-89 0 -132 21q-96 47 -141 202q-45 -155 -141 -202q-42 -21 -131 -21h-277q-95 0 -129 -5q-71 -12 -114 -54q-85 -83 -94 -237q-4 -18 -23 -18q-23 0 -23 41q0 174 78 285
q51 73 116 93q42 13 149 13h313q117 0 184 75q61 69 70 187q2 33 22 33q18 0 21 -18t4 -35q31 -242 252 -242h313q107 0 149 -13q65 -20 116 -93q77 -109 77 -285z" />
  </g>

</svg>
