<?xml version="1.0" standalone="no"?>
<!DOCTYPE svg PUBLIC "-//W3C//DTD SVG 1.1//EN" "http://www.w3.org/Graphics/SVG/1.1/DTD/svg11.dtd" >
<svg viewBox="0 -442 2048 2048">
  <g transform="matrix(1 0 0 -1 0 1606)">
   <path fill="currentColor"
d="M1864 332q0 -174 -78 -285q-51 -73 -116 -93q-42 -13 -149 -13h-313q-117 0 -184 -75q-61 -69 -70 -187q-2 -33 -22 -33q-18 0 -21 18t-4 35q-31 242 -252 242h-313q-107 0 -149 13q-65 20 -116 93q-77 109 -77 285q0 41 22 41q19 0 23 -18q9 -154 94 -237
q43 -42 114 -54q34 -5 129 -5h277q89 0 132 -21q96 -47 141 -202q45 155 141 202q42 21 131 21h277q95 0 129 5q71 12 114 54q85 83 94 237q4 18 23 18q23 0 23 -41z" />
  </g>

</svg>
