<?xml version="1.0" standalone="no"?>
<!DOCTYPE svg PUBLIC "-//W3C//DTD SVG 1.1//EN" "http://www.w3.org/Graphics/SVG/1.1/DTD/svg11.dtd" >
<svg viewBox="0 -442 2048 2048">
  <g transform="matrix(1 0 0 -1 0 1606)">
   <path fill="currentColor"
d="M1694 166q0 -24 -21 -36l-721 -416q-5 -3 -20 -3t-20 3l-721 416q-21 12 -21 36v832q0 24 21 36l721 416q5 3 20 3t20 -3l721 -416q21 -12 21 -36v-832zM1612 190v784l-680 393l-680 -393v-784l680 -393zM1401 582q0 -192 -138.5 -330.5t-330.5 -138.5q-193 0 -331 138
t-138 331t138 331t331 138q192 0 330.5 -138.5t138.5 -330.5zM1319 582q0 158 -114.5 272.5t-272.5 114.5q-159 0 -273 -114t-114 -273t114 -273t273 -114q158 0 272.5 114.5t114.5 272.5z" />
  </g>

</svg>
