<?xml version="1.0" standalone="no"?>
<!DOCTYPE svg PUBLIC "-//W3C//DTD SVG 1.1//EN" "http://www.w3.org/Graphics/SVG/1.1/DTD/svg11.dtd" >
<svg viewBox="0 -442 2048 2048">
  <g transform="matrix(1 0 0 -1 0 1606)">
   <path fill="currentColor"
d="M1801 916q0 -25 -24 -36l-629 -279q8 -30 8 -59q0 -113 -90 -186l387 -698q6 -11 6 -21q0 -41 -43 -41q-23 0 -35 22l-386 698q-39 -14 -79 -14q-43 0 -86 17l-411 -684q-13 -21 -34 -21q-43 0 -43 41q0 12 6 22l412 684q-84 73 -84 181q0 154 143 219l-166 668
q-2 8 -2 11q0 40 43 40q30 0 38 -32l167 -667q13 1 17 1q125 0 198 -107l629 280q9 4 19 4q39 0 39 -43zM640 1071q0 -11 -22 -46q-48 -75 -80 -204q-13 -52 -34 -52q-17 0 -46 32q-89 98 -166 142q-45 26 -45 46q0 32 32 32q35 0 148 -91l-108 433q-2 8 -2 11q0 40 43 40
q30 0 38 -32l108 -432q64 152 103 152q31 0 31 -31z" />
  </g>

</svg>
