<?xml version="1.0" standalone="no"?>
<!DOCTYPE svg PUBLIC "-//W3C//DTD SVG 1.1//EN" "http://www.w3.org/Graphics/SVG/1.1/DTD/svg11.dtd" >
<svg viewBox="0 -442 2048 2048">
  <g transform="matrix(1 0 0 -1 0 1606)">
   <path fill="currentColor"
d="M1339 184q0 -210 -59 -317q-91 -166 -280 -166q-176 0 -267 144q-71 112 -71 339q0 211 58 320q91 170 281 170q184 0 275 -160q63 -111 63 -330zM668 -270q-67 5 -105 5h-316q-38 0 -105 -5v64q13 0 41.5 -1t42.5 -1q93 0 106 24q5 9 5 30v708q-80 -31 -204 -31v62
q193 0 290 89h12q38 0 38 -45v-786q0 -18 5 -28q11 -22 190 -21v-64zM1190 116v173q0 335 -190 335t-190 -336q0 -27 1 -81v-80q0 -158 25 -238q42 -138 164 -138q190 0 190 365z" />
  </g>

</svg>
