<?xml version="1.0" standalone="no"?>
<!DOCTYPE svg PUBLIC "-//W3C//DTD SVG 1.1//EN" "http://www.w3.org/Graphics/SVG/1.1/DTD/svg11.dtd" >
<svg viewBox="0 -442 2048 2048">
  <g transform="matrix(1 0 0 -1 0 1606)">
   <path fill="currentColor"
d="M1711 1279q0 -53 -37 -114q-189 211 -463 271q68 105 168 105q97 0 211 -81q121 -88 121 -181zM1125 1507h-68v-81h-66v79h-68v67h202v-65zM837 1436q-274 -60 -463 -271q-37 61 -37 114q0 93 121 181q114 81 211 81q100 0 168 -105zM1824 582q0 -330 -235 -565
t-565 -235t-565 235t-235 565t235 565t565 235t565 -235t235 -565zM1660 -215h-174l-36 62q119 69 210 172v-234zM598 -153l-36 -62h-174v234q91 -103 210 -172zM1712 582q0 284 -202 486t-486 202t-486 -202t-202 -486t202 -486t486 -202t486 202t202 486zM1372 1108
l-39 -59q-33 22 -59 35l31 62q40 -20 67 -38zM1588 863l-62 -31q-13 27 -35 59l59 39q18 -27 38 -67zM1655 566l-1 -23l-70 5q2 34 0 68l70 5l1 -23v-32zM774 1084q-27 -13 -59 -35l-39 59q27 18 67 38zM1588 301q-20 -40 -38 -67l-59 39q22 32 35 59zM1113 659l-50 -87
v-101h-58l-90 -156l40 -23l-159 -105l11 190l40 -23l138 238v456h-46l85 170l85 -170h-46v-360zM557 891q-22 -32 -35 -59l-62 31q20 40 38 67zM1372 56q-27 -18 -67 -38l-31 62q26 13 59 35zM464 548l-70 -5l-1 21v34l1 23l70 -5q-2 -34 0 -68zM1063 -48l-23 -1h-32l-23 1
l5 70q34 -2 68 0zM557 273l-59 -39q-18 27 -38 67l62 31q13 -26 35 -59zM774 80l-31 -62q-40 20 -67 38l39 59q32 -22 59 -35z" />
  </g>

</svg>
