<?xml version="1.0" standalone="no"?>
<!DOCTYPE svg PUBLIC "-//W3C//DTD SVG 1.1//EN" "http://www.w3.org/Graphics/SVG/1.1/DTD/svg11.dtd" >
<svg viewBox="0 -442 2048 2048">
  <g transform="matrix(1 0 0 -1 0 1606)">
   <path fill="currentColor"
d="M1824 582q0 -330 -235 -565t-565 -235t-565 235t-235 565t235 565t565 235t565 -235t235 -565zM1712 582q0 284 -202 486t-486 202t-486 -202t-202 -486t202 -486t486 -202t486 202t202 486zM1372 1108l-39 -59q-33 22 -59 35l31 62q40 -20 67 -38zM1588 863l-62 -31
q-13 27 -35 59l59 39q18 -27 38 -67zM1063 1212l-5 -70q-34 2 -68 0l-5 70l23 1h32zM1655 566l-1 -23l-70 5q2 34 0 68l70 5l1 -23v-32zM774 1084q-27 -13 -59 -35l-39 59q27 18 67 38zM1588 301q-20 -40 -38 -67l-59 39q22 32 35 59zM1146 594q0 -48 -35.5 -92t-82.5 -44
q-34 0 -74 23q-67 38 -170 133q-111 103 -166.5 139.5t-55.5 60.5q0 20 15 38.5t34 18.5q16 0 62 -23q59 -30 203 -74q134 -42 202 -81.5t68 -98.5zM557 891q-22 -32 -35 -59l-62 31q20 40 38 67zM1372 56q-27 -18 -67 -38l-31 62q26 13 59 35zM464 548l-70 -5l-1 21v34
l1 23l70 -5q-2 -34 0 -68zM1063 -48l-23 -1h-32l-23 1l5 70q34 -2 68 0zM557 273l-59 -39q-18 27 -38 67l62 31q13 -26 35 -59zM774 80l-31 -62q-40 20 -67 38l39 59q32 -22 59 -35z" />
  </g>

</svg>
