<?xml version="1.0" standalone="no"?>
<!DOCTYPE svg PUBLIC "-//W3C//DTD SVG 1.1//EN" "http://www.w3.org/Graphics/SVG/1.1/DTD/svg11.dtd" >
<svg viewBox="0 -442 2048 2048">
  <g transform="matrix(1 0 0 -1 0 1606)">
   <path fill="currentColor"
d="M1390 -324h-1228v112h137q3 555 254 798q-248 227 -254 807h-137v112h1228v-112h-137q-6 -580 -254 -807q251 -243 254 -798h137v-112zM1141 -212q-4 480 -186 682q-31 28 -61 56q-44 41 -44 61q0 21 45 63q33 29 65 58q175 201 181 685h-730q6 -484 181 -685
q32 -29 65 -58q45 -42 45 -63q0 -20 -44 -61q-30 -28 -61 -56q-182 -202 -186 -682h730zM1034 939q-10 -29 -18 -50h-481q-10 25 -18 50h517zM993 839q-15 -31 -28 -50h-379q-12 19 -28 50h435zM927 739q-13 -15 -54 -50h-192q-19 16 -56 50h302zM801 224h-50v390h50v-390z
M1074 59h-596q4 26 9 50h578q5 -23 9 -50zM1087 -41h-622q1 14 6 50h610q2 -17 6 -50zM1094 -141h-636q1 19 3 50h630q2 -30 3 -50z" />
  </g>

</svg>
