<?xml version="1.0" standalone="no"?>
<!DOCTYPE svg PUBLIC "-//W3C//DTD SVG 1.1//EN" "http://www.w3.org/Graphics/SVG/1.1/DTD/svg11.dtd" >
<svg viewBox="0 -442 2048 2048">
  <g transform="matrix(1 0 0 -1 0 1606)">
   <path fill="currentColor"
d="M2016 1558l-118 -143v31l105 128h13v-16zM1979 1574l-97 -118h-26l97 118h26zM2016 1497l-118 -143v32l118 143v-32zM1929 1574l-97 -118h-26l97 118h26zM2016 1437l-71 -87h-26l97 118v-31zM2016 1376l-21 -26h-26l47 57v-31zM1829 1574l-37 -45v32l11 13h26zM1879 1574
l-87 -106v32l61 74h26zM1664 1495l-32 -39h-26l58 71v-32zM1664 1556l-82 -100h-26l97 118h11v-18zM1664 1456h-8l8 10v-10zM1939 1222l-41 -50v31l16 19h25zM1989 1222l-91 -111v31l66 80h25zM2016 1194l-118 -144v32l116 140h2v-28zM1629 1574l-97 -118h-26l97 118h26z
M2016 1133l-111 -135h-7v23l118 143v-31zM1579 1574l-97 -118h-26l97 118h26zM2016 1072l-61 -74h-26l87 105v-31zM2016 1011l-11 -13h-26l37 45v-32zM1479 1574l-39 -47v31l13 16h26zM1529 1574l-89 -108v31l63 77h26zM1312 1495l-32 -39h-26l58 71v-32zM1312 1556
l-82 -100h-26l97 118h11v-18zM1312 1456h-8l8 10v-10zM1900 870l-2 -2v2h2zM1950 870l-52 -63v31l26 32h26zM2000 870l-102 -124v32l76 92h26zM1277 1574l-97 -118h-26l97 118h26zM2016 829l-118 -144v32l118 143v-31zM1227 1574l-97 -118h-26l97 118h26zM2016 768
l-100 -122h-18v10l118 144v-32zM2016 707l-50 -61h-26l76 93v-32zM2016 646h-26l26 32v-32zM1127 1574l-39 -47v31l13 16h26zM1177 1574l-89 -108v31l63 77h26zM1734 1056q0 -146 -86 -146q-81 0 -86 56h-21q1 -39 9 -71t8 -34q0 -18 -52 -18q-17 0 -17 18l1 3q16 50 17 102
h-21q-4 -56 -86 -56q-86 0 -86 146q0 76 112 182q22 21 82 131q6 11 16 11q14 0 24 -29q20 -55 110 -148q76 -78 76 -147zM960 1553l-80 -97h-26l97 118h9v-21zM960 1493l-30 -37h-26l56 68v-31zM960 1456h-6l6 7v-7zM1910 518l-12 -15v15h12zM1960 518l-62 -76v32l36 44h26
zM2010 518l-112 -137v32l86 105h26zM927 1574l-97 -118h-26l97 118h26zM2016 464l-118 -143v31l118 144v-32zM877 1574l-97 -118h-26l97 118h26zM2016 403l-90 -109h-26l116 141v-32zM2016 343l-40 -49h-26l66 80v-31zM2016 294h-16l16 19v-19zM777 1574l-41 -50v32l15 18
h26zM827 1574l-91 -111v32l65 79h26zM608 1551l-78 -95h-26l97 118h7v-23zM608 1490l-28 -34h-26l54 66v-32zM608 1456h-4l4 5v-5zM1921 166l-23 -28v28h23zM1971 166l-73 -88v31l47 57h26zM2016 160l-118 -143v31l97 118h21v-6zM577 1574l-97 -118h-26l97 118h26zM2016 99
l-118 -143v31l118 144v-32zM527 1574l-97 -118h-26l97 118h26zM2016 39l-80 -97h-25l105 128v-31zM2016 -22l-30 -36h-25l55 67v-31zM2016 -58h-5l5 7v-7zM427 1574l-43 -52v31l17 21h26zM477 1574l-93 -113v31l67 82h26zM1875 -66h-168q-5 40 -85 163q-82 127 -112 127h-9
q0 -85 6 -290h-147q7 163 7 331q0 164 -7 303h147q-6 -148 -6 -249h5q19 0 98.5 110.5t85.5 138.5h153q-6 -33 -96 -137q-81 -93 -123 -126v-1q49 -30 152 -190q46 -71 57 -89q38 -65 42 -91zM256 1549l-76 -93h-26l97 118h5v-25zM256 1488l-26 -32h-26l52 63v-31zM256 1456
h-2l2 2v-2zM1931 -186l-33 -40v31l7 9h26zM1981 -186l-83 -101v31l57 70h26zM2016 -265l-119 -145h-26l145 176v-31zM2016 -204l-169 -206h-26l184 224h11v-18zM2016 -326l-69 -84h-26l95 115v-31zM2016 -387l-19 -23h-26l45 55v-32zM77 1574l-45 -55v32l19 23h26zM127 1574
l-95 -115v31l69 84h26zM227 1574l-184 -224h-11v18l169 206h26zM177 1574l-145 -176v31l119 145h26zM150 1420l-57 -70h-26l83 101v-31zM150 1359l-7 -9h-26l33 40v-31zM1794 -292l-2 -2v2h2zM1844 -292l-52 -63v31l26 32h26zM1894 -292l-97 -118h-5v25l76 93h26zM1285 60
l-10 -121q-75 -18 -139 -18q-150 0 -244 82q-98 87 -98 235q0 149 98.5 243.5t248.5 94.5q58 0 117 -15l-18 -121q-58 19 -114 19q-90 0 -139 -59q-46 -54 -46 -146q0 -94 56.5 -155t150.5 -61q63 0 137 22zM1664 -328l-67 -82h-26l93 113v-31zM1664 -389l-17 -21h-26l43 52
v-31zM37 1222l-5 -7v7h5zM87 1222l-55 -67v31l30 36h25zM137 1222l-105 -128v31l80 97h25zM1644 -292l-97 -118h-26l97 118h26zM150 1177l-118 -144v32l118 143v-31zM1594 -292l-97 -118h-26l97 118h26zM150 1116l-97 -118h-21v6l118 143v-31zM150 1055l-47 -57h-26l73 88
v-31zM150 998h-23l23 28v-28zM1444 -292l-4 -5v5h4zM1494 -292l-54 -66v32l28 34h26zM1544 -292l-97 -118h-7v23l78 95h26zM1312 -328l-67 -82h-26l93 113v-31zM1312 -389l-17 -21h-26l43 52v-31zM48 870l-16 -19v19h16zM98 870l-66 -80v31l40 49h26zM148 870l-116 -141v32
l90 109h26zM1292 -292l-97 -118h-26l97 118h26zM150 812l-118 -144v32l118 143v-31zM1242 -292l-97 -118h-26l97 118h26zM150 751l-86 -105h-26l112 137v-32zM150 690l-36 -44h-26l62 76v-32zM150 646h-12l12 15v-15zM1092 -292l-4 -5v5h4zM1142 -292l-54 -66v32l28 34h26z
M1192 -292l-97 -118h-7v23l78 95h26zM784 -66h-163q-1 39 -43 178h-213q-21 -62 -43 -178h-155q4 44 76 229q48 123 97 245q24 61 51 160h191q2 -34 46 -157l88 -246q65 -183 68 -231zM960 -331l-65 -79h-26l91 111v-32zM960 -392l-15 -18h-26l41 50v-32zM58 518l-26 -32v32
h26zM108 518l-76 -93v32l50 61h26zM150 508l-118 -144v32l100 122h18v-10zM942 -292l-97 -118h-26l97 118h26zM150 447l-118 -143v31l118 144v-32zM892 -292l-97 -118h-26l97 118h26zM150 386l-76 -92h-26l102 124v-32zM150 326l-26 -32h-26l52 63v-31zM150 294h-2l2 2v-2z
M742 -292l-6 -7v7h6zM792 -292l-56 -68v31l30 37h26zM842 -292l-97 -118h-9v21l80 97h26zM608 -333l-63 -77h-26l89 108v-31zM608 -394l-13 -16h-26l39 47v-31zM69 166l-37 -45v32l11 13h26zM119 166l-87 -105v31l61 74h26zM592 -292l-97 -118h-26l97 118h26zM150 143
l-118 -143v31l111 135h7v-23zM542 -292l-97 -118h-26l97 118h26zM150 82l-116 -140h-2v28l118 144v-32zM150 22l-66 -80h-25l91 111v-31zM150 -39l-16 -19h-25l41 50v-31zM392 -292l-8 -10v10h8zM492 -292l-97 -118h-11v18l82 100h26zM442 -292l-58 -71v32l32 39h26z
M256 -336l-61 -74h-26l87 106v-32zM256 -397l-11 -13h-26l37 45v-32zM79 -186l-47 -57v31l21 26h26zM129 -186l-97 -118v31l71 87h26zM242 -292l-97 -118h-26l97 118h26zM150 -222l-118 -143v32l118 143v-32zM192 -292l-97 -118h-26l97 118h26zM150 -282l-105 -128h-13v16
l118 143v-31zM551 216q-31 82 -79 249q-9 -41 -81 -249h160z" />
  </g>

</svg>
