<?xml version="1.0" standalone="no"?>
<!DOCTYPE svg PUBLIC "-//W3C//DTD SVG 1.1//EN" "http://www.w3.org/Graphics/SVG/1.1/DTD/svg11.dtd" >
<svg viewBox="0 -442 2048 2048">
  <g transform="matrix(1 0 0 -1 0 1606)">
   <path fill="currentColor"
d="M1208 438q0 -70 -62 -114q-56 -40 -126 -40q-63 0 -116 30q-64 36 -64 98q0 55 59 55q60 0 60 -54q0 -39 -40 -51q38 -31 98 -31q79 0 79 107t-84 107q-69 0 -69 22q0 21 57 24q42 3 62.5 33t20.5 75q0 68 -65 68q-48 0 -80 -22q35 -11 35 -46q0 -51 -55 -51
q-56 0 -56 51q0 55 57 87q46 26 102 26q57 0 105 -26q60 -32 60 -88q0 -80 -87 -126q109 -41 109 -134zM1998 50l-50 -50h-1848l-50 50v850h100v-800h1748v800h100v-850z" />
  </g>

</svg>
