<?xml version="1.0" standalone="no"?>
<!DOCTYPE svg PUBLIC "-//W3C//DTD SVG 1.1//EN" "http://www.w3.org/Graphics/SVG/1.1/DTD/svg11.dtd" >
<svg viewBox="0 -442 2048 2048">
  <g transform="matrix(1 0 0 -1 0 1606)">
   <path fill="currentColor"
d="M444 -184q0 -71 -50.5 -121.5t-121.5 -50.5t-121.5 50.5t-50.5 121.5q0 57 34 103t88 62v1174q-54 16 -88 62t-34 103q0 71 50.5 121.5t121.5 50.5t121.5 -50.5t50.5 -121.5q0 -57 -34 -103t-88 -62v-1174q54 -16 88 -62t34 -103zM349 1320q0 32 -22.5 54.5t-54.5 22.5
t-54.5 -22.5t-22.5 -54.5t22.5 -54.5t54.5 -22.5t54.5 22.5t22.5 54.5zM349 -184q0 32 -22.5 54.5t-54.5 22.5t-54.5 -22.5t-22.5 -54.5t22.5 -54.5t54.5 -22.5t54.5 22.5t22.5 54.5z" />
  </g>

</svg>
