<?xml version="1.0" standalone="no"?>
<!DOCTYPE svg PUBLIC "-//W3C//DTD SVG 1.1//EN" "http://www.w3.org/Graphics/SVG/1.1/DTD/svg11.dtd" >
<svg viewBox="0 -442 2048 2048">
  <g transform="matrix(1 0 0 -1 0 1606)">
   <path fill="currentColor"
d="M1920 1478h-128v128h128v-128zM1664 1478h-128v128h128v-128zM1920 1222h-128v128h128v-128zM1408 1478h-128v128h128v-128zM1664 1222h-128v128h128v-128zM1920 966h-128v128h128v-128zM1152 1478h-128v128h128v-128zM1408 1222h-128v128h128v-128zM1664 966h-128v128
h128v-128zM1920 710h-128v128h128v-128zM896 1478h-128v128h128v-128zM1152 1222h-128v128h128v-128zM1408 966h-128v128h128v-128zM1664 710h-128v128h128v-128zM1920 454h-128v128h128v-128zM640 1478h-128v128h128v-128zM896 1222h-128v128h128v-128zM1152 966h-128v128
h128v-128zM1408 710h-128v128h128v-128zM1664 454h-128v128h128v-128zM1920 198h-128v128h128v-128zM384 1478h-128v128h128v-128zM640 1222h-128v128h128v-128zM896 966h-128v128h128v-128zM1152 710h-128v128h128v-128zM1408 454h-128v128h128v-128zM1664 198h-128v128
h128v-128zM1920 -58h-128v128h128v-128zM128 1478h-128v128h128v-128zM384 1222h-128v128h128v-128zM640 966h-128v128h128v-128zM896 710h-128v128h128v-128zM1152 454h-128v128h128v-128zM1408 198h-128v128h128v-128zM1664 -58h-128v128h128v-128zM1920 -314h-128v128
h128v-128zM128 1222h-128v128h128v-128zM384 966h-128v128h128v-128zM640 710h-128v128h128v-128zM896 454h-128v128h128v-128zM1152 198h-128v128h128v-128zM1408 -58h-128v128h128v-128zM1664 -314h-128v128h128v-128zM128 966h-128v128h128v-128zM384 710h-128v128h128
v-128zM640 454h-128v128h128v-128zM896 198h-128v128h128v-128zM1152 -58h-128v128h128v-128zM1408 -314h-128v128h128v-128zM128 710h-128v128h128v-128zM384 454h-128v128h128v-128zM640 198h-128v128h128v-128zM896 -58h-128v128h128v-128zM1152 -314h-128v128h128v-128z
M128 454h-128v128h128v-128zM384 198h-128v128h128v-128zM640 -58h-128v128h128v-128zM896 -314h-128v128h128v-128zM128 198h-128v128h128v-128zM384 -58h-128v128h128v-128zM640 -314h-128v128h128v-128zM128 -58h-128v128h128v-128zM384 -314h-128v128h128v-128z
M128 -314h-128v128h128v-128z" />
  </g>

</svg>
