<?xml version="1.0" standalone="no"?>
<!DOCTYPE svg PUBLIC "-//W3C//DTD SVG 1.1//EN" "http://www.w3.org/Graphics/SVG/1.1/DTD/svg11.dtd" >
<svg viewBox="0 -442 2048 2048">
  <g transform="matrix(1 0 0 -1 0 1606)">
   <path fill="currentColor"
d="M1920 1478h-128v128h128v-128zM2048 1350h-128v128h128v-128zM1664 1478h-128v128h128v-128zM1792 1350h-128v128h128v-128zM1920 1222h-128v128h128v-128zM2048 1094h-128v128h128v-128zM1408 1478h-128v128h128v-128zM1536 1350h-128v128h128v-128zM1664 1222h-128v128
h128v-128zM1792 1094h-128v128h128v-128zM1920 966h-128v128h128v-128zM2048 838h-128v128h128v-128zM1152 1478h-128v128h128v-128zM1280 1350h-128v128h128v-128zM1408 1222h-128v128h128v-128zM1536 1094h-128v128h128v-128zM1664 966h-128v128h128v-128zM1792 838h-128
v128h128v-128zM1920 710h-128v128h128v-128zM2048 582h-128v128h128v-128zM896 1478h-128v128h128v-128zM1024 1350h-128v128h128v-128zM1152 1222h-128v128h128v-128zM1280 1094h-128v128h128v-128zM1408 966h-128v128h128v-128zM1536 838h-128v128h128v-128zM1664 710
h-128v128h128v-128zM1792 582h-128v128h128v-128zM1920 454h-128v128h128v-128zM2048 326h-128v128h128v-128zM640 1478h-128v128h128v-128zM768 1350h-128v128h128v-128zM896 1222h-128v128h128v-128zM1024 1094h-128v128h128v-128zM1152 966h-128v128h128v-128zM1280 838
h-128v128h128v-128zM1408 710h-128v128h128v-128zM1536 582h-128v128h128v-128zM1664 454h-128v128h128v-128zM1792 326h-128v128h128v-128zM1920 198h-128v128h128v-128zM2048 70h-128v128h128v-128zM384 1478h-128v128h128v-128zM512 1350h-128v128h128v-128zM640 1222
h-128v128h128v-128zM768 1094h-128v128h128v-128zM896 966h-128v128h128v-128zM1024 838h-128v128h128v-128zM1152 710h-128v128h128v-128zM1280 582h-128v128h128v-128zM1408 454h-128v128h128v-128zM1536 326h-128v128h128v-128zM1664 198h-128v128h128v-128zM1792 70
h-128v128h128v-128zM1920 -58h-128v128h128v-128zM2048 -186h-128v128h128v-128zM128 1478h-128v128h128v-128zM256 1350h-128v128h128v-128zM384 1222h-128v128h128v-128zM512 1094h-128v128h128v-128zM640 966h-128v128h128v-128zM768 838h-128v128h128v-128zM896 710
h-128v128h128v-128zM1024 582h-128v128h128v-128zM1152 454h-128v128h128v-128zM1280 326h-128v128h128v-128zM1408 198h-128v128h128v-128zM1536 70h-128v128h128v-128zM1664 -58h-128v128h128v-128zM1792 -186h-128v128h128v-128zM1920 -314h-128v128h128v-128zM2048 -442
h-128v128h128v-128zM128 1222h-128v128h128v-128zM256 1094h-128v128h128v-128zM384 966h-128v128h128v-128zM512 838h-128v128h128v-128zM640 710h-128v128h128v-128zM768 582h-128v128h128v-128zM896 454h-128v128h128v-128zM1024 326h-128v128h128v-128zM1152 198h-128
v128h128v-128zM1280 70h-128v128h128v-128zM1408 -58h-128v128h128v-128zM1536 -186h-128v128h128v-128zM1664 -314h-128v128h128v-128zM1792 -442h-128v128h128v-128zM128 966h-128v128h128v-128zM256 838h-128v128h128v-128zM384 710h-128v128h128v-128zM512 582h-128v128
h128v-128zM640 454h-128v128h128v-128zM768 326h-128v128h128v-128zM896 198h-128v128h128v-128zM1024 70h-128v128h128v-128zM1152 -58h-128v128h128v-128zM1280 -186h-128v128h128v-128zM1408 -314h-128v128h128v-128zM1536 -442h-128v128h128v-128zM128 710h-128v128h128
v-128zM256 582h-128v128h128v-128zM384 454h-128v128h128v-128zM512 326h-128v128h128v-128zM640 198h-128v128h128v-128zM768 70h-128v128h128v-128zM896 -58h-128v128h128v-128zM1024 -186h-128v128h128v-128zM1152 -314h-128v128h128v-128zM1280 -442h-128v128h128v-128z
M128 454h-128v128h128v-128zM256 326h-128v128h128v-128zM384 198h-128v128h128v-128zM512 70h-128v128h128v-128zM640 -58h-128v128h128v-128zM768 -186h-128v128h128v-128zM896 -314h-128v128h128v-128zM1024 -442h-128v128h128v-128zM128 198h-128v128h128v-128zM256 70
h-128v128h128v-128zM384 -58h-128v128h128v-128zM512 -186h-128v128h128v-128zM640 -314h-128v128h128v-128zM768 -442h-128v128h128v-128zM128 -58h-128v128h128v-128zM256 -186h-128v128h128v-128zM384 -314h-128v128h128v-128zM512 -442h-128v128h128v-128zM128 -314
h-128v128h128v-128zM256 -442h-128v128h128v-128z" />
  </g>

</svg>
