<?xml version="1.0" standalone="no"?>
<!DOCTYPE svg PUBLIC "-//W3C//DTD SVG 1.1//EN" "http://www.w3.org/Graphics/SVG/1.1/DTD/svg11.dtd" >
<svg viewBox="0 -442 2048 2048">
  <g transform="matrix(1 0 0 -1 0 1606)">
   <path fill="currentColor"
d="M1461 0h-1344v1344h1344v-1344zM1361 1033v211h-211v-211h211zM1050 1033v211h-211v-211h211zM1361 722v211h-211v-211h211zM739 1033v211h-211v-211h211zM1050 722v211h-211v-211h211zM1361 411v211h-211v-211h211zM428 1033v211h-211v-211h211zM739 722v211h-211v-211
h211zM1050 411v211h-211v-211h211zM1361 100v211h-211v-211h211zM428 722v211h-211v-211h211zM739 411v211h-211v-211h211zM1050 100v211h-211v-211h211zM428 411v211h-211v-211h211zM739 100v211h-211v-211h211zM428 100v211h-211v-211h211z" />
  </g>

</svg>
