<?xml version="1.0" standalone="no"?>
<!DOCTYPE svg PUBLIC "-//W3C//DTD SVG 1.1//EN" "http://www.w3.org/Graphics/SVG/1.1/DTD/svg11.dtd" >
<svg viewBox="0 -442 2048 2048">
  <g transform="matrix(1 0 0 -1 0 1606)">
   <path fill="currentColor"
d="M1461 0h-1344v1344h1344v-1344zM1361 1104v140h-140zM1361 793v169l-282 282h-169zM1361 482v169l-593 593h-169zM1361 171v169l-904 904h-169zM1290 100l-1073 1073v-169l904 -904h169zM979 100l-762 762v-169l593 -593h169zM668 100l-451 451v-169l282 -282h169z
M357 100l-140 140v-140h140z" />
  </g>

</svg>
