<?xml version="1.0" standalone="no"?>
<!DOCTYPE svg PUBLIC "-//W3C//DTD SVG 1.1//EN" "http://www.w3.org/Graphics/SVG/1.1/DTD/svg11.dtd" >
<svg viewBox="0 -442 2048 2048">
  <g transform="matrix(1 0 0 -1 0 1606)">
   <path fill="currentColor"
d="M1461 0h-1344v1344h1344v-1344zM1290 1244h-69l35 -35zM1361 1104v69l-35 -34zM1185 1139l-85 84l-85 -84l85 -85zM1340 983l-84 85l-85 -85l85 -85zM979 1244h-69l35 -35zM1361 793v69l-35 -34zM874 1139l-85 84l-85 -85l85 -84zM1029 983l-84 85l-85 -85l84 -85z
M1185 828l-85 84l-85 -85l85 -84zM1340 672l-84 85l-85 -85l84 -85zM668 1244h-69l34 -35zM1361 482v69l-35 -35zM563 1139l-85 84l-85 -84l85 -85zM718 983l-85 85l-84 -85l84 -85zM874 827l-85 85l-85 -85l85 -84zM1029 672l-85 85l-84 -85l84 -85zM1185 516l-85 85
l-85 -85l85 -84zM1340 361l-85 85l-84 -85l84 -85zM357 1244h-69l34 -35zM1361 171v69l-35 -35zM252 1139l-35 34v-69zM1290 100l-35 35l-34 -35h69zM407 983l-84 85l-85 -85l84 -85zM563 827l-85 85l-85 -85l85 -84zM718 672l-85 85l-84 -85l84 -85zM874 516l-85 85
l-85 -85l85 -84zM1029 361l-85 85l-84 -85l84 -85zM1185 205l-85 85l-85 -85l85 -84zM252 828l-35 34v-69zM979 100l-35 35l-34 -35h69zM407 672l-85 85l-84 -85l85 -85zM563 516l-85 85l-85 -84l85 -85zM718 361l-85 85l-84 -85l84 -85zM874 205l-85 85l-85 -85l85 -84z
M252 517l-35 34v-69zM668 100l-35 35l-34 -35h69zM407 361l-84 85l-85 -85l85 -85zM563 206l-85 84l-85 -84l85 -85zM252 206l-35 34v-69zM357 100l-34 35l-35 -35h69z" />
  </g>

</svg>
