<?xml version="1.0" standalone="no"?>
<!DOCTYPE svg PUBLIC "-//W3C//DTD SVG 1.1//EN" "http://www.w3.org/Graphics/SVG/1.1/DTD/svg11.dtd" >
<svg viewBox="0 -442 2048 2048">
  <g transform="matrix(1 0 0 -1 0 1606)">
   <path fill="currentColor"
d="M832 821q0 -56 -56 -56t-56 56t56 56t56 -56zM929 724q0 -56 -56 -56t-56 56t56 56t56 -56zM711 883q0 -56 -56 -56t-56 56t56 56t56 -56zM991 603q0 -56 -56 -56t-56 56t56 56t56 -56zM576 904q0 -56 -56 -56t-56 56t56 56t56 -56zM1012 468q0 -56 -56 -56t-56 56t56 56
t56 -56zM441 883q0 -56 -56 -56t-56 56t56 56t56 -56zM991 333q0 -56 -56 -56t-56 56t56 56t56 -56zM320 821q0 -56 -56 -56t-56 56t56 56t56 -56zM929 212q0 -56 -56 -56t-56 56t56 56t56 -56zM223 724q0 -56 -56 -56t-56 56t56 56t56 -56zM832 115q0 -56 -56 -56t-56 56
t56 56t56 -56zM161 603q0 -56 -56 -56t-56 56t56 56t56 -56zM711 53q0 -56 -56 -56t-56 56t56 56t56 -56zM140 468q0 -56 -56 -56t-56 56t56 56t56 -56zM576 32q0 -56 -56 -56t-56 56t56 56t56 -56zM161 333q0 -56 -56 -56t-56 56t56 56t56 -56zM441 53q0 -56 -56 -56
t-56 56t56 56t56 -56zM223 212q0 -56 -56 -56t-56 56t56 56t56 -56zM320 115q0 -56 -56 -56t-56 56t56 56t56 -56z" />
  </g>

</svg>
