<?xml version="1.0" standalone="no"?>
<!DOCTYPE svg PUBLIC "-//W3C//DTD SVG 1.1//EN" "http://www.w3.org/Graphics/SVG/1.1/DTD/svg11.dtd" >
<svg viewBox="0 -442 2048 2048">
  <g transform="matrix(1 0 0 -1 0 1606)">
   <path fill="currentColor"
d="M1538 582q0 -312 -218.5 -530.5t-530.5 -218.5t-530.5 218.5t-218.5 530.5t218.5 530.5t530.5 218.5t530.5 -218.5t218.5 -530.5zM1438 582q0 270 -189.5 459.5t-459.5 189.5t-459.5 -189.5t-189.5 -459.5t189.5 -459.5t459.5 -189.5t459.5 189.5t189.5 459.5zM1288 582
q0 -208 -145.5 -353.5t-353.5 -145.5t-353.5 145.5t-145.5 353.5t145.5 353.5t353.5 145.5t353.5 -145.5t145.5 -353.5zM1188 582q0 167 -116 283t-283 116t-283 -116t-116 -283t116 -283t283 -116t283 116t116 283z" />
  </g>

</svg>
