<?xml version="1.0" standalone="no"?>
<!DOCTYPE svg PUBLIC "-//W3C//DTD SVG 1.1//EN" "http://www.w3.org/Graphics/SVG/1.1/DTD/svg11.dtd" >
<svg viewBox="0 -442 2056 2048">
  <g transform="matrix(1 0 0 -1 0 1606)">
   <path fill="currentColor"
d="M2056 267q0 -52 -20 -52q-15 0 -20 42q-3 27 -5 55q-12 76 -60 133q-54 66 -125 66q-140 0 -213 -208q-7 -25 -23 -74q-6 -17 -20 -17q-15 0 -20 19q-2 38 -25 129q-61 151 -207 151q-163 0 -197 -192q-9 -51 -9 -70v-489q0 -89 -44 -143q-47 -59 -134 -59
q-79 0 -134.5 53.5t-55.5 132.5q0 34 34 34t34 -34q0 -51 35.5 -84.5t86.5 -33.5q110 0 110 134v489q0 19 -9 70q-34 192 -197 192q-146 0 -207 -151q-12 -30 -16 -66q-5 -46 -9.5 -64t-19.5 -18q-14 0 -20 17q-7 25 -23 74q-73 208 -213 208q-71 0 -125 -66
q-48 -57 -60 -133q-2 -28 -5 -55q-5 -42 -20 -42q-20 0 -20 52q0 337 311 571q278 207 633 229v35q0 34 34 34t34 -34v-35q355 -22 633 -229q311 -234 311 -571z" />
  </g>

</svg>
