<?xml version="1.0" standalone="no"?>
<!DOCTYPE svg PUBLIC "-//W3C//DTD SVG 1.1//EN" "http://www.w3.org/Graphics/SVG/1.1/DTD/svg11.dtd" >
<svg viewBox="0 -442 2048 2048">
  <g transform="matrix(1 0 0 -1 0 1606)">
   <path fill="currentColor"
d="M2014 902l-135 -25l-59 -62l59 -36l-13 -12q-61 50 -215 87l-82 -21q33 -36 33 -94q0 -99 -229 -179q161 -109 161 -295q0 -53 -31 -130q-28 -63 -55 -125q-49 -124 -171 -201l139 -9l48 29l26 -4l-72 -46q-54 2 -163 8l-57 18q-130 41 -182 41q-88 0 -197 -61l-42 6v20
l40 -6l26 12q-24 0 -116 69l-91 -8l-31 -23l-41 4l4 14l30 -4l30 25l81 8q-159 125 -159 308q0 174 91 284q-320 79 -320 221q0 80 83 116l-52 73l-75 -25l-86 29l12 13l74 -25l66 21l-66 89l-59 36l-86 -8l-29 -48l-55 -28l-8 14l48 24l22 36l-36 -2l-24 -17l-16 11l34 24
l127 7l-52 29l-7 105l-40 36l14 14l45 -42l5 -100l127 -75l111 -151l12 -4l-83 119q-7 48 -26 142q-2 10 -21 56q-14 35 -14 59q0 7 1 14l18 5q-8 -45 30 -111l28 66l15 -4l-11 -26l22 14l18 61l15 -2l-19 -69l-38 -23l-24 -38l22 -136l40 -54l65 66v114l17 21v-141l-71 -74
l48 -82q62 0 211 -55q-10 14 -10 30q0 53 66 73q-48 47 -48 132q0 81 30 146l-82 -17l7 62l87 26q2 9 2 26q0 63 -23 90q-6 7 -38 23q-26 12 -26 24q0 49 145 112.5t261 63.5q32 0 32 -25q0 -9 -21 -52.5t-21 -68.5q0 -45 36 -70l70 36l50 -36l-42 -29q184 -73 184 -230
q0 -127 -69 -188q71 0 71 -102q97 73 150 73q24 0 57 -17l3 97l-49 76l9 22l58 -92l-6 -90l29 31l17 123l29 17q26 55 15 192l16 34l21 2l-16 -36q11 -135 -15 -183l105 52l77 194l12 -13l-63 -164l179 -3l-4 -16l-177 -1l-156 -81l-5 -18l99 28l90 -36l58 12l6 -12l-68 -14
l-88 34l-99 -28l-14 -92l-40 -41l14 -15l93 21l146 -48l75 71l36 8l19 80h17l-18 -78l84 13zM990 1388q-17 19 -17 29q0 16 13 49l-22 -12q-14 -25 -14 -38t16 -30zM1038 1550q0 8 -12 15h-22q12 -9 12 -17q0 -50 -267 -138v-18q289 85 289 158zM1293 842q0 34 -34 54
q18 -25 18 -59q0 -29 -10 -48l22 17q4 19 4 36zM1291 1105q0 152 -184 218q-315 -148 -396 -148q-31 -68 -31 -149q0 -120 102 -158q56 -20 204 -20q21 60 77 60q51 0 77 -35q69 0 113 85q38 71 38 147zM1251 829q0 21 -44 55l-22 -17q39 -31 39 -100l19 10q8 29 8 52z
M1205 769q0 53 -35 92l-19 -5q14 -12 14 -33q0 -37 -6 -58l-16 6q6 18 6 35q0 27 -24 55.5t-51 28.5q-53 0 -62 -38q42 -30 51 -70q4 -16 4 -91q71 0 128 28q10 28 10 50zM1044 755q0 73 -48 82q-19 -4 -48 -4q-40 -50 -40 -100q54 0 136 22zM1195 604v33q-99 -27 -126 -27
v-55q0 -17 8.5 -58t8.5 -65q24 14 36 14q35 0 69 -10q4 102 4 168zM881 835q-32 0 -102 19q-40 -20 -40 -57q0 -13 10 -32q61 -26 107 -26q-2 15 -2 24q0 40 27 72zM747 871l-18 8q-64 -16 -64 -62q0 -17 7 -34l31 -8q-10 21 -10 29q0 51 54 67zM1187 221v117q-21 31 -67 31
q-22 0 -42 -13l-20 -143q69 18 105 18q12 0 24 -10zM1578 741q0 60 -34 84l-26 -10l12 -20l-9 -6l-39 40l24 2l10 21q-30 13 -50 13q-35 0 -122.5 -58t-121.5 -58q-6 -34 -9 -197q-2 -111 -2 -349q0 -16 16 -46t16 -43q0 -7 -7 -25.5t-7 -30.5q0 -9 8 -24l-26 -4v63l-22 -15
l-7 -54l-17 -4l4 60l-22 9l-13 -79l-19 8l11 66l-32 7l-18 -83l-24 8l18 73l-36 -13l-20 -64l-20 2q24 37 24 89q-11 -8 -18 -8q-29 0 -29 29q0 34 35 34q8 0 20 -15l27 193q12 90 12 98q0 19 -9.5 57t-9.5 58q0 68 2 186q-105 -20 -140 -20q-74 0 -249 54t-192 54
q-12 0 -17 -6l30 -48l22 10l8 -12l-72 -32v16l24 9l-45 57q0 1 -1 2q-5 0 -35 -26q-36 -31 -36 -76q0 -61 80 -111q48 -29 150 -67q81 -29 82 -39q-55 -116 -63 -139q-22 -63 -22 -151q0 -234 290 -381q76 36 154 36q67 0 229 -52q89 57 144 145q30 46 90 184q31 71 31 125
q0 86 -42 156q-27 44 -79 91q-42 38 -42 46q0 6 115.5 64t115.5 117zM1219 120q0 18 -20 42q-22 11 -32 11q-40 0 -119 -13l-12 -57q44 9 77 9q38 0 92 -9q14 11 14 17zM1126 1249l-4 -18q-28 6 -42 6q-24 0 -32 -52l-14 14q0 18 14.5 40.5t31.5 22.5q18 0 46 -13z
M1143 1168q0 -12 -10 -32q-10 -23 -20 -23q-46 0 -46 57q0 9 15.5 22t24.5 13q10 0 23 -13.5t13 -23.5zM1195 1013q0 -37 -26 -37q-20 0 -20 24q0 7 12 20.5t19 13.5q15 0 15 -21zM1119 1002q0 -14 -16 -14q-24 0 -80 27q-59 28 -59 46q0 40 44 40q15 0 63 -43t48 -56z
M1122 966q0 -20 -17 -20q-23 0 -23 20q0 18 31 18q9 0 9 -18zM902 1145q0 -65 -40 -65q-46 0 -46 59q0 19 57 33q29 -17 29 -27zM1056 956q0 -32 -20 -32q-22 0 -22 24q0 26 18 26q24 0 24 -18zM990 940q0 -28 -48 -28q-13 0 -13 30q0 20 31 20q30 0 30 -22zM912 972
q0 -24 -27 -24q-25 0 -25 22q0 24 19 24q20 0 33 -22zM1024 417q0 -35 -36 -35q-26 0 -26 29q0 10 11 24.5t21 14.5q30 0 30 -33zM1032 257q0 -38 -28 -38q-35 0 -35 34q0 36 27 36q36 0 36 -32zM1128 1170q-11 13 -19 13q-16 0 -27 -15v-19q15 14 23 14t21 -16zM1103 1000
q-84 84 -99 84q-24 0 -24 -21q0 -12 53 -37.5t70 -25.5zM881 1122v17q-6 16 -14 16q-10 0 -26 -14l2 -17q11 6 19 6q6 0 19 -8z" />
  </g>

</svg>
