<?xml version="1.0" standalone="no"?>
<!DOCTYPE svg PUBLIC "-//W3C//DTD SVG 1.1//EN" "http://www.w3.org/Graphics/SVG/1.1/DTD/svg11.dtd" >
<svg viewBox="0 -442 2048 2048">
  <g transform="matrix(1 0 0 -1 0 1606)">
   <path fill="currentColor"
d="M2048 889q-75 -24 -225 -74q-418 -146 -857 -465q-173 -126 -504 -457q-119 -119 -212 -119q-98 0 -174 75.5t-76 173.5q0 164 211 318q250 182 650 321q335 117 707 182q257 45 480 45zM1879 855q-200 -7 -461 -69q-431 -102 -809 -264q-589 -253 -589 -499
q0 -90 70 -159.5t160 -69.5q81 0 198 113q123 119 245 238q143 133 261 221q441 327 925 489zM1581 757q-713 -221 -1103 -638q167 219 499 406q314 176 604 232zM1572 769q-667 -163 -1197 -568q223 213 557 369q326 153 640 199zM371 9q0 -50 -38.5 -85t-88.5 -35
q-48 0 -84 36t-36 84q0 49 35.5 86t84.5 37q52 0 89.5 -35.5t37.5 -87.5zM351 9q0 42 -32.5 70t-74.5 28q-40 0 -70 -29t-30 -69q0 -39 30.5 -67t69.5 -28q41 0 74 27.5t33 67.5z" />
  </g>

</svg>
