<?xml version="1.0" standalone="no"?>
<!DOCTYPE svg PUBLIC "-//W3C//DTD SVG 1.1//EN" "http://www.w3.org/Graphics/SVG/1.1/DTD/svg11.dtd" >
<svg viewBox="0 -442 2048 2048">
  <g transform="matrix(1 0 0 -1 0 1606)">
   <path fill="currentColor"
d="M1857 322q0 -147 -102.5 -249.5t-249.5 -102.5t-249.5 102.5t-102.5 249.5q0 141 97.5 243t238.5 109q-32 227 -166 376q-148 166 -366 166t-366 -166q-134 -149 -166 -376q141 -7 238.5 -109t97.5 -243q0 -147 -102.5 -249.5t-249.5 -102.5t-250 102.5t-103 249.5
q0 130 84 229t213 119q31 259 185 430q168 186 419 186t419 -186q154 -171 185 -430q128 -20 212 -119t84 -229zM1757 322q0 106 -73 179t-179 73q-105 0 -179 -73.5t-74 -178.5q0 -106 73.5 -179t179.5 -73q105 0 178.5 73.5t73.5 178.5zM661 322q0 105 -73.5 178.5
t-178.5 73.5q-106 0 -179 -73t-73 -179q0 -105 73.5 -178.5t178.5 -73.5q106 0 179 73t73 179z" />
  </g>

</svg>
