<?xml version="1.0" standalone="no"?>
<!DOCTYPE svg PUBLIC "-//W3C//DTD SVG 1.1//EN" "http://www.w3.org/Graphics/SVG/1.1/DTD/svg11.dtd" >
<svg viewBox="0 -442 2048 2048">
  <g transform="matrix(1 0 0 -1 0 1606)">
   <path fill="currentColor"
d="M1857 934q0 -130 -84 -229t-212 -119q-31 -259 -185 -430q-168 -186 -419 -186t-419 186q-154 171 -185 430q-129 20 -213 119t-84 229q0 147 103 249.5t250 102.5t249.5 -102.5t102.5 -249.5q0 -141 -97.5 -243t-238.5 -109q32 -227 166 -376q148 -166 366 -166t366 166
q134 149 166 376q-141 7 -238.5 109t-97.5 243q0 147 102.5 249.5t249.5 102.5t249.5 -102.5t102.5 -249.5zM1757 934q0 105 -73.5 178.5t-178.5 73.5q-106 0 -179.5 -73t-73.5 -179q0 -105 74 -178.5t179 -73.5q106 0 179 73t73 179zM661 934q0 106 -73 179t-179 73
q-105 0 -178.5 -73.5t-73.5 -178.5q0 -106 73 -179t179 -73q105 0 178.5 73.5t73.5 178.5z" />
  </g>

</svg>
