<?xml version="1.0" standalone="no"?>
<!DOCTYPE svg PUBLIC "-//W3C//DTD SVG 1.1//EN" "http://www.w3.org/Graphics/SVG/1.1/DTD/svg11.dtd" >
<svg viewBox="0 -442 2048 2048">
  <g transform="matrix(1 0 0 -1 0 1606)">
   <path fill="currentColor"
d="M1543 912q0 -147 -102.5 -249.5t-249.5 -102.5q-118 0 -206 65l-322 -322q86 -97 86 -231q0 -147 -102.5 -249.5t-249.5 -102.5t-249.5 102.5t-102.5 249.5t102.5 249.5t249.5 102.5q118 0 206 -65l322 322q-86 97 -86 231q0 147 102.5 249.5t249.5 102.5t249.5 -102.5
t102.5 -249.5zM1442 912q0 105 -73 178.5t-178 73.5t-178 -73.5t-73 -178.5q0 -104 73.5 -177.5t177.5 -73.5t177.5 73.5t73.5 177.5zM648 72q0 105 -73 178t-178 73t-178 -73t-73 -178q0 -104 73.5 -178t177.5 -74t177.5 74t73.5 178z" />
  </g>

</svg>
