<?xml version="1.0" standalone="no"?>
<!DOCTYPE svg PUBLIC "-//W3C//DTD SVG 1.1//EN" "http://www.w3.org/Graphics/SVG/1.1/DTD/svg11.dtd" >
<svg viewBox="0 -442 2070 2048">
  <g transform="matrix(1 0 0 -1 0 1606)">
   <path fill="currentColor"
d="M2070 849q0 -5 -3 -11q-25 -53 -44 -70q-26 -22 -78 -22q-3 0 -166 7q-91 4 -112 8q-67 13 -87 58q-8 18 -8 31q0 8 3 13q126 -30 313 -30q144 0 182 16zM2054 891q-59 -13 -166 -13q-205 0 -338 38q-12 92 -160 106q-9 -33 -9 -61q0 -68 68 -146q83 -95 98 -134
l185 -489q12 -32 12 -77q0 -115 -66 -115h-1266q-66 0 -66 115q0 45 12 77l185 489q15 39 98 134q68 78 68 146q0 28 -9 61q-148 -14 -160 -106q-133 -38 -338 -38q-107 0 -166 13q18 170 59 232q51 78 204 122q327 94 746 94t746 -94q153 -44 204 -122q41 -62 59 -232z
M518 850q0 -13 -8 -31q-20 -45 -87 -58q-21 -4 -112 -8q-163 -7 -166 -7q-52 0 -78 22q-19 17 -44 70q-3 6 -3 11q38 -16 182 -16q187 0 313 30q3 -5 3 -13zM1334 1035q-120 28 -289 28t-289 -28q19 -68 54 -119q221 9 235 9t235 -9q35 51 54 119zM1390 511
q0 140 -102.5 242.5t-242.5 102.5t-242.5 -102.5t-102.5 -242.5q0 -145 100 -246.5t245 -101.5t245 101.5t100 246.5zM1206 722q-17 -29 -46 -12t-12 46t46 12t12 -46zM1302 660q17 -29 -12 -46t-46 12t12 46t46 -12zM1342 511q0 -33 -33 -33q-34 0 -34 33q0 34 34 34
q33 0 33 -34zM1079 775q0 -34 -34 -34t-34 34q0 33 34 33t34 -33zM942 756q17 -29 -12 -46t-46 12t13 46q29 16 45 -12zM1309 338q-4 -14 -17 -25q-77 37 -130 79q-2 2 -2 4q0 10 13.5 26t17.5 11q48 -62 118 -95zM1140 511q0 -43 -27.5 -70.5t-67.5 -27.5t-67.5 27.5
t-27.5 70.5q0 37 29 66t66 29t66 -29t29 -66zM846 626q-17 -29 -46 -12t-12 46t46 12t12 -46zM1079 247q0 -33 -34 -33t-34 33q0 34 34 34t34 -34zM815 511q0 -34 -34 -34q-33 0 -33 34q0 33 33 33q34 0 34 -33zM846 396q17 -29 -12 -46t-46 12t12 46t46 -12zM942 266
q-17 -29 -46 -12t-12 46t46 12t12 -46z" />
  </g>

</svg>
