<?xml version="1.0" standalone="no"?>
<!DOCTYPE svg PUBLIC "-//W3C//DTD SVG 1.1//EN" "http://www.w3.org/Graphics/SVG/1.1/DTD/svg11.dtd" >
<svg viewBox="0 -442 2070 2048">
  <g transform="matrix(1 0 0 -1 0 1606)">
   <path fill="currentColor"
d="M2070 849q0 -5 -3 -11q-25 -53 -44 -70q-26 -22 -78 -22q-3 0 -166 7q-91 4 -112 8q-67 13 -87 58q-8 18 -8 31q0 8 3 13q126 -30 313 -30q144 0 182 16zM2054 891q-59 -13 -166 -13q-205 0 -338 38q-12 92 -160 106q-9 -33 -9 -61q0 -68 68 -146q83 -95 98 -134
l185 -489q12 -32 12 -77q0 -115 -66 -115h-1266q-66 0 -66 115q0 45 12 77l185 489q15 39 98 134q68 78 68 146q0 28 -9 61q-148 -14 -160 -106q-133 -38 -338 -38q-107 0 -166 13q18 170 59 232q51 78 204 122q327 94 746 94t746 -94q153 -44 204 -122q41 -62 59 -232z
M518 850q0 -13 -8 -31q-20 -45 -87 -58q-21 -4 -112 -8q-163 -7 -166 -7q-52 0 -78 22q-19 17 -44 70q-3 6 -3 11q38 -16 182 -16q187 0 313 30q3 -5 3 -13zM1999 933q-15 128 -56.5 177.5t-165.5 86.5q-311 92 -732 92t-732 -92q-124 -37 -165.5 -86.5t-56.5 -177.5
q45 -5 111 -5q178 0 297 29q35 88 241 129q138 27 305 27q169 0 305 -26q205 -40 241 -130q119 -29 297 -29q66 0 111 5zM1334 1035q-120 28 -289 28t-289 -28q19 -68 54 -119q221 9 235 9t235 -9q35 51 54 119zM1694 108q0 42 -9 66l-185 489q-16 43 -87 118
q-64 69 -77 129q-24 -45 -44 -45q-41 0 -123.5 5t-123.5 5t-123.5 -5t-123.5 -5q-20 0 -44 45q-13 -60 -77 -129q-71 -75 -87 -118l-185 -489q-9 -24 -9 -59q0 -65 16 -65h1266q16 0 16 58zM1390 511q0 -145 -100 -246.5t-245 -101.5t-245 101.5t-100 246.5
q0 140 102.5 242.5t242.5 102.5t242.5 -102.5t102.5 -242.5zM1206 722q17 29 -12 46t-46 -12t12 -46t46 12zM1302 660q-17 29 -46 12t-12 -46t46 -12t12 46zM1342 511q0 34 -33 34q-34 0 -34 -34q0 -33 34 -33q33 0 33 33zM1079 775q0 33 -34 33t-34 -33q0 -34 34 -34t34 34
zM942 756q-16 28 -45 12q-30 -17 -13 -46t46 -12t12 46zM1309 338q-70 33 -118 95q-4 5 -17.5 -11t-13.5 -26q1 -3 2 -4q53 -42 130 -79q6 -3 14 10t3 15zM1140 511q0 37 -29 66t-66 29t-66 -29t-29 -66q0 -43 27.5 -70.5t67.5 -27.5t67.5 27.5t27.5 70.5zM846 626
q17 29 -12 46t-46 -12t12 -46t46 12zM1079 247q0 34 -34 34t-34 -34q0 -33 34 -33t34 33zM815 511q0 33 -34 33q-33 0 -33 -33q0 -34 33 -34q34 0 34 34zM846 396q-17 29 -46 12t-12 -46t46 -12t12 46zM942 266q17 29 -12 46t-46 -12t12 -46t46 12z" />
  </g>

</svg>
