<?xml version="1.0" standalone="no"?>
<!DOCTYPE svg PUBLIC "-//W3C//DTD SVG 1.1//EN" "http://www.w3.org/Graphics/SVG/1.1/DTD/svg11.dtd" >
<svg viewBox="0 -442 2048 2048">
  <g transform="matrix(1 0 0 -1 0 1606)">
   <path fill="currentColor"
d="M2016 -410h-1984v1984h1984v-1984zM1866 -260v1684h-1684v-1684h1684zM1807 1301q-66 -74 -190 -225l-284 -375q-45 -57 -142 -188q-30 -46 -98 -152l-197 -305l-72 -123q-11 -23 -43 -57q-23 -13 -150 -13q-52 0 -71 18q-8 8 -35 64q-125 260 -125 402q0 36 47 69
q93 66 158 66q26 0 39 -23q9 -22 18 -45q72 -170 88 -170q11 0 53 62l316 468q47 72 158 234q3 4 55 68l110 135q49 60 162 94q95 29 189 29z" />
  </g>

</svg>
