<?xml version="1.0" standalone="no"?>
<!DOCTYPE svg PUBLIC "-//W3C//DTD SVG 1.1//EN" "http://www.w3.org/Graphics/SVG/1.1/DTD/svg11.dtd" >
<svg viewBox="0 -442 2048 2048">
  <g transform="matrix(1 0 0 -1 0 1606)">
   <path fill="currentColor"
d="M2016 -410h-1984v1984h1984v-1984zM1866 -260v1684h-1684v-1684h1684zM1639 1253q0 -11 -23 -33q-18 -17 -69 -83l-291 -377q-8 -11 -23 -33q67 -126 224 -469q-9 -20 -29 -29v-16l-24 -15q-17 -11 -17 -18q0 -9 10 -29q-3 -18 -25.5 -34.5t-41.5 -16.5q-20 0 -78 90
l-193 297l-405 -628q-34 -25 -107 -25q-18 0 -43 41q-30 48 -30 63q0 10 6 29.5t6 28.5t-9.5 17.5t-9.5 13.5q0 14 50 100l49 84q129 221 375 493l-152 418q-23 63 -23 70q0 13 21.5 37t34.5 24q11 0 33 -18q12 10 32 10q7 3 21 19q11 12 20 12q19 0 37 -37l84 -168
q24 -46 72 -139l51 63q280 330 297 330q25 0 72 -39q43 41 45 41q5 0 12 -16q3 -7 22 -29t19 -29z" />
  </g>

</svg>
