<?xml version="1.0" standalone="no"?>
<!DOCTYPE svg PUBLIC "-//W3C//DTD SVG 1.1//EN" "http://www.w3.org/Graphics/SVG/1.1/DTD/svg11.dtd" >
<svg viewBox="0 -442 2048 2048">
  <g transform="matrix(1 0 0 -1 0 1606)">
   <path fill="currentColor"
d="M1476 106q0 -25 -18.5 -42.5t-43.5 -17.5t-46 23q-51 68 -152 199q-209 269 -415 478q-238 -239 -352 -438q-29 -62 -89 -186q-19 -37 -54 -37q-61 0 -61 59q0 12 4 23q116 314 466 664q-111 108 -332 323q-48 44 -139 137q-18 20 -18 42q0 24 18.5 42.5t42.5 18.5
q22 0 42 -18q64 -63 191 -189q94 -90 281 -272q101 95 301 287q47 52 145 152q20 19 43 19q61 0 61 -60q0 -20 -15 -39q-27 -35 -147 -153q-101 -96 -302 -290q126 -128 329 -366q260 -305 260 -359z" />
  </g>

</svg>
