<?xml version="1.0" standalone="no"?>
<!DOCTYPE svg PUBLIC "-//W3C//DTD SVG 1.1//EN" "http://www.w3.org/Graphics/SVG/1.1/DTD/svg11.dtd" >
<svg viewBox="0 -442 2056 2048">
  <g transform="matrix(1 0 0 -1 0 1606)">
   <path fill="currentColor"
d="M1689 1606q-10 -38 -11 -82q-2 -57 -5 -66q-9 -35 -48 -35q-53 0 -53 51q0 82 117 132zM1824 1376q-10 -38 -11 -82q-2 -57 -5 -66q-9 -35 -48 -35q-53 0 -53 51q0 82 117 132zM1959 1146q-10 -38 -11 -82q-2 -57 -5 -66q-9 -35 -48 -35q-53 0 -53 51q0 82 117 132z
M1419 1606q-10 -38 -11 -82q-2 -57 -5 -66q-9 -35 -48 -35q-53 0 -53 51q0 82 117 132zM1554 1376q-10 -38 -11 -82q-2 -57 -5 -66q-9 -35 -48 -35q-53 0 -53 51q0 82 117 132zM1689 1146q-10 -38 -11 -82q-2 -57 -5 -66q-9 -35 -48 -35q-53 0 -53 51q0 82 117 132z
M1149 1606q-10 -38 -11 -82q-2 -57 -5 -66q-9 -35 -48 -35q-53 0 -53 51q0 82 117 132zM1284 1376q-10 -38 -11 -82q-2 -57 -5 -66q-9 -35 -48 -35q-53 0 -53 51q0 82 117 132zM879 1606q-10 -38 -11 -82q-2 -57 -5 -66q-9 -35 -48 -35q-53 0 -53 51q0 82 117 132z
M1014 1376q-10 -38 -11 -82q-2 -57 -5 -66q-9 -35 -48 -35q-53 0 -53 51q0 82 117 132zM609 1606q-10 -38 -11 -82q-2 -57 -5 -66q-9 -35 -48 -35q-53 0 -53 51q0 82 117 132zM744 1376q-10 -38 -11 -82q-2 -57 -5 -66q-9 -35 -48 -35q-53 0 -53 51q0 82 117 132zM474 1376
q-10 -38 -11 -82q-2 -57 -5 -66q-9 -35 -48 -35q-53 0 -53 51q0 82 117 132zM609 1146q-10 -38 -11 -82q-2 -57 -5 -66q-9 -35 -48 -35q-53 0 -53 51q0 82 117 132zM2056 267q0 -52 -20 -52q-15 0 -20 42q-3 27 -5 55q-12 76 -60 133q-54 66 -125 66q-140 0 -213 -208
q-7 -25 -23 -74q-6 -17 -20 -17q-15 0 -20 19q-2 38 -25 129q-61 151 -207 151q-163 0 -197 -192q-9 -51 -9 -70v-489q0 -89 -44 -143q-47 -59 -134 -59q-79 0 -134.5 53.5t-55.5 132.5q0 34 34 34t34 -34q0 -51 35.5 -84.5t86.5 -33.5q110 0 110 134v489q0 19 -9 70
q-34 192 -197 192q-146 0 -207 -151q-12 -30 -16 -66q-5 -46 -9.5 -64t-19.5 -18q-14 0 -20 17q-7 25 -23 74q-73 208 -213 208q-71 0 -125 -66q-48 -57 -60 -133q-2 -28 -5 -55q-5 -42 -20 -42q-20 0 -20 52q0 337 311 571q278 207 633 229v35q0 34 34 34t34 -34v-35
q355 -22 633 -229q311 -234 311 -571zM339 1106q-10 -38 -11 -82q-2 -57 -5 -66q-9 -35 -48 -35q-53 0 -53 51q0 82 117 132z" />
  </g>

</svg>
