<?xml version="1.0" standalone="no"?>
<!DOCTYPE svg PUBLIC "-//W3C//DTD SVG 1.1//EN" "http://www.w3.org/Graphics/SVG/1.1/DTD/svg11.dtd" >
<svg viewBox="0 -442 2048 2048">
  <g transform="matrix(1 0 0 -1 0 1606)">
   <path fill="currentColor"
d="M1757 662q0 -40 -17.5 -116.5t-17.5 -116.5q0 -23 6 -67.5t6 -67.5q0 -87 -65 -136q-59 -43 -149 -43q-98 0 -224 80q-63 40 -196 149q-98 80 -126 80q-25 0 -25 -29q0 10 5 -58q3 -40 3 -92q0 -74 -26 -224q-27 -157 -53 -215q-32 -71 -88 -71q-63 0 -63 45q0 -2 78 194
q74 186 74 336q0 112 -36 112q-28 0 -121 -83q-76 -68 -191 -130q-133 -71 -214 -71q-98 0 -163 53q-70 57 -70 153q0 45 17.5 131.5t17.5 131.5q0 18 -5.5 53.5t-5.5 53.5q0 200 205 200q98 0 233 -75l214 -134q-23 75 -160 257q-115 153 -115 274q0 117 70.5 193.5
t186.5 76.5q45 0 134 -17.5t134 -17.5q30 0 89 14.5t89 14.5q106 0 164 -92q49 -79 49 -191q0 -88 -133 -262q-97 -125 -193 -250l220 124q136 75 235 75q227 0 227 -242z" />
  </g>

</svg>
