<?xml version="1.0" standalone="no"?>
<!DOCTYPE svg PUBLIC "-//W3C//DTD SVG 1.1//EN" "http://www.w3.org/Graphics/SVG/1.1/DTD/svg11.dtd" >
<svg viewBox="0 -442 2048 2048">
  <g transform="matrix(1 0 0 -1 0 1606)">
   <path fill="currentColor"
d="M2024 264q-32 -14 -62 -18q-6 -94 -69 -160q-66 -68 -159 -68q-71 0 -115 36q-49 39 -49 108q0 18 3 47q3 35 4 46q50 -48 117 -48q110 0 133 112q-143 59 -241 158q-117 120 -115 254q-191 -1 -267 -137q168 -85 168 -227q0 -181 -208 -281q-165 -80 -369 -80
q-238 0 -429.5 113.5t-310.5 322.5q-31 54 -31 102q0 88 87 88q54 0 86 -54q-22 -40 -22 -84q0 -65 43.5 -107.5t107.5 -42.5q46 0 77 18q74 43 94 175q34 221 45 252q51 153 199 246q83 52 193 52q112 0 189 -63q84 -68 84 -177q0 -77 -48 -167l5 -6q131 116 257 116
q24 0 52 -4q28 76 165 172q122 86 122 153q0 50 -38 80q207 -4 207 -159q0 -87 -70 -129q-25 -15 -163 -40q-107 -20 -136 -79q152 -29 271 -138q130 -120 134 -266q44 -47 59 -116zM1838 418v14q0 114 -91.5 203.5t-206.5 94.5q-6 -19 -6 -40q0 -88 111 -172
q88 -67 193 -100z" />
  </g>

</svg>
