<?xml version="1.0" standalone="no"?>
<!DOCTYPE svg PUBLIC "-//W3C//DTD SVG 1.1//EN" "http://www.w3.org/Graphics/SVG/1.1/DTD/svg11.dtd" >
<svg viewBox="0 -442 2048 2048">
  <g transform="matrix(1 0 0 -1 0 1606)">
   <path fill="currentColor"
d="M1886 627q0 -120 -62 -267l-55 23q57 135 57 244q0 122 -63 256l54 26l13 -27q56 -116 56 -255zM1756 627q0 -114 -48 -228h-143q-115 -125 -224 -175q-41 -5 -60 -5q-55 0 -118 20l-37 -16l-35 -2q-150 -9 -150 108q0 5 2 16q-112 16 -112 111q0 21 11 49
q-90 24 -90 103q0 57 50 87l-36 8l-360 4q-233 3 -233 107q0 62 56 87q49 22 197 25l409 9l41 38l275 25q190 -55 338 -129h214q53 -113 53 -242z" />
  </g>

</svg>
