<?xml version="1.0" standalone="no"?>
<!DOCTYPE svg PUBLIC "-//W3C//DTD SVG 1.1//EN" "http://www.w3.org/Graphics/SVG/1.1/DTD/svg11.dtd" >
<svg viewBox="0 -442 2048 2048">
  <g transform="matrix(1 0 0 -1 0 1606)">
   <path fill="currentColor"
d="M1886 814q0 -104 -233 -107l-360 -4l-36 -8q50 -30 50 -87q0 -79 -90 -103q11 -28 11 -49q0 -95 -112 -111q2 -11 2 -16q0 -117 -150 -108l-35 2l-37 16q-63 -20 -118 -20q-19 0 -60 5q-109 50 -224 175h-143q-48 114 -48 228q0 129 53 242h214q148 74 338 129l275 -25
l41 -38l409 -9q148 -3 197 -25q56 -25 56 -87zM296 883q-63 -134 -63 -256q0 -109 57 -244l-55 -23q-62 147 -62 267q0 139 56 255l13 27z" />
  </g>

</svg>
