<?xml version="1.0" standalone="no"?>
<!DOCTYPE svg PUBLIC "-//W3C//DTD SVG 1.1//EN" "http://www.w3.org/Graphics/SVG/1.1/DTD/svg11.dtd" >
<svg viewBox="0 -442 2048 2048">
  <g transform="matrix(1 0 0 -1 0 1606)">
   <path fill="currentColor"
d="M1886 627q0 -120 -62 -267l-55 23q57 135 57 244q0 122 -63 256l54 26l13 -27q56 -116 56 -255zM1756 627q0 -114 -48 -228h-143q-115 -125 -224 -175q-41 -5 -60 -5q-55 0 -118 20l-37 -16l-35 -2q-150 -9 -150 108q0 5 2 16q-112 16 -112 111q0 21 11 49
q-90 24 -90 103q0 57 50 87l-36 8l-360 4q-233 3 -233 107q0 62 56 87q49 22 197 25l409 9l41 38l275 25q190 -55 338 -129h214q53 -113 53 -242zM1705 633q0 94 -35 187h-182q-254 102 -340 127l-253 -22l-157 -144q44 -39 100 -39q86 0 171 89q100 -57 189 -52l17 1
l-2 -50l-23 -1q-83 -4 -171 43q-59 -46 -109 -65l90 -1q52 29 104 29q115 0 183 -133l-70 -30q66 -21 121 -115l-62 -28q56 -46 81 -105l-125 -53q51 -7 66 -7q10 0 35 4q116 68 206 183h135q31 93 31 182zM1218 622q-38 65 -114 65q-44 0 -90 -32h-129q-82 0 -82 -46
q0 -66 119 -65l106 1zM1265 478q-35 53 -117 64l-104 -46l-146 1q-15 -24 -15 -42q0 -65 98 -63l90 2zM1287 348q-22 29 -65 56l-134 -59h-97q0 -77 93 -75l39 1zM783 886l-366 -9q-195 -5 -195 -64q0 -56 242 -57l227 -1q-10 9 -24 25z" />
  </g>

</svg>
