<?xml version="1.0" standalone="no"?>
<!DOCTYPE svg PUBLIC "-//W3C//DTD SVG 1.1//EN" "http://www.w3.org/Graphics/SVG/1.1/DTD/svg11.dtd" >
<svg viewBox="0 -442 2048 2048">
  <g transform="matrix(1 0 0 -1 0 1606)">
   <path fill="currentColor"
d="M1419 487q-55 -190 -129 -338v-214q-113 -53 -242 -53q-114 0 -228 48v143q-125 115 -175 224q-5 41 -5 60q0 55 20 118l-16 37l-2 35q-9 150 108 150q5 0 16 -2q16 112 111 112q21 0 49 -11q24 90 103 90q57 0 87 -50l8 36l4 360q3 233 107 233q62 0 87 -56
q22 -49 25 -197l9 -409l38 -41zM1330 -179l-27 -13q-116 -56 -255 -56q-120 0 -267 62l23 55q135 -57 244 -57q122 0 256 63zM1307 855l-9 366q-5 195 -64 195q-56 0 -57 -242l-1 -227q9 10 25 24zM1108 534q0 44 -32 90v129q0 82 -46 82q-66 0 -65 -119l1 -106l77 -190
q65 38 65 114zM963 490l-46 104l1 146q-24 15 -42 15q-65 0 -63 -98l2 -90l84 -194q53 35 64 117zM1368 490l-22 253l-144 157q-39 -44 -39 -100q0 -86 89 -171q-57 -100 -52 -189l1 -17l-50 2l-1 23q-4 83 43 171q-46 59 -65 109l-1 -90q29 -52 29 -104q0 -115 -133 -183
l-30 70q-21 -66 -115 -121l-28 62q-46 -56 -105 -81l-53 125q-7 -51 -7 -66q0 -10 4 -35q68 -116 183 -206v-135q93 -31 182 -31q94 0 187 35v182q102 254 127 340zM825 416l-59 134v97q-77 0 -75 -93l1 -39l77 -164q29 22 56 65z" />
  </g>

</svg>
