<?xml version="1.0" standalone="no"?>
<!DOCTYPE svg PUBLIC "-//W3C//DTD SVG 1.1//EN" "http://www.w3.org/Graphics/SVG/1.1/DTD/svg11.dtd" >
<svg viewBox="0 -442 2048 2048">
  <g transform="matrix(1 0 0 -1 0 1606)">
   <path fill="currentColor"
d="M1886 814q0 -104 -233 -107l-360 -4l-36 -8q50 -30 50 -87q0 -79 -90 -103q11 -28 11 -49q0 -95 -112 -111q2 -11 2 -16q0 -117 -150 -108l-35 2l-37 16q-63 -20 -118 -20q-19 0 -60 5q-109 50 -224 175h-143q-48 114 -48 228q0 129 53 242h214q148 74 338 129l275 -25
l41 -38l409 -9q148 -3 197 -25q56 -25 56 -87zM296 883q-63 -134 -63 -256q0 -109 57 -244l-55 -23q-62 147 -62 267q0 139 56 255l13 27zM1837 813q0 59 -195 64l-366 9l116 -106q-14 -16 -24 -25l227 1q242 1 242 57zM1256 609q0 46 -82 46h-129q-46 32 -90 32
q-76 0 -114 -65l190 -77l106 -1q119 -1 119 65zM1176 455q0 18 -15 42l-146 -1l-104 46q-82 -11 -117 -64l194 -84l90 -2q98 -2 98 63zM1321 781l-157 144l-253 22q-86 -25 -340 -127h-182q-35 -93 -35 -187q0 -89 31 -182h135q90 -115 206 -183q25 -4 35 -4q15 0 66 7
l-125 53q25 59 81 105l-62 28q55 94 121 115l-70 30q68 133 183 133q52 0 104 -29l90 1q-50 19 -109 65q-88 -47 -171 -43l-23 1l-2 50l17 -1q89 -5 189 52q85 -89 171 -89q56 0 100 39zM1068 345h-97l-134 59q-43 -27 -65 -56l164 -77l39 -1q93 -2 93 75z" />
  </g>

</svg>
