<?xml version="1.0" standalone="no"?>
<!DOCTYPE svg PUBLIC "-//W3C//DTD SVG 1.1//EN" "http://www.w3.org/Graphics/SVG/1.1/DTD/svg11.dtd" >
<svg viewBox="0 -442 2048 2048">
  <g transform="matrix(1 0 0 -1 0 1606)">
   <path fill="currentColor"
d="M1278 1403l-23 -55q-135 57 -244 57q-122 0 -256 -63l-26 54l27 13q116 56 255 56q120 0 267 -62zM1419 860q0 -55 -20 -118l16 -37l2 -35q9 -150 -108 -150q-5 0 -16 2q-16 -112 -111 -112q-21 0 -49 11q-24 -90 -103 -90q-57 0 -87 50l-8 -36l-4 -360
q-3 -233 -107 -233q-62 0 -87 56q-22 49 -25 197l-9 409l-38 41l-25 275q55 190 129 338v214q113 53 242 53q114 0 228 -48v-143q125 -115 175 -224q5 -41 5 -60zM1368 663l-1 39l-77 164q-29 -22 -56 -65l59 -134v-97q77 0 75 93zM1374 877q0 10 -4 35q-68 116 -183 206
v135q-93 31 -182 31q-94 0 -187 -35v-182q-102 -254 -127 -340l22 -253l144 -157q39 44 39 100q0 86 -89 171q57 100 52 189l-1 17l50 -2l1 -23q4 -83 -43 -171q46 -59 65 -109l1 90q-29 52 -29 104q0 115 133 183l30 -70q21 66 115 121l28 -62q46 56 105 81l53 -125
q7 51 7 66zM1246 560l-2 90l-84 194q-53 -35 -64 -117l46 -104l-1 -146q24 -15 42 -15q65 0 63 98zM1094 501l-1 106l-77 190q-65 -38 -65 -114q0 -44 32 -90v-129q0 -82 46 -82q66 0 65 119zM883 270q-9 -10 -25 -24l-106 116l9 -366q5 -195 64 -195q56 0 57 242z" />
  </g>

</svg>
