<?xml version="1.0" standalone="no"?>
<!DOCTYPE svg PUBLIC "-//W3C//DTD SVG 1.1//EN" "http://www.w3.org/Graphics/SVG/1.1/DTD/svg11.dtd" >
<svg viewBox="0 -442 2048 2048">
  <g transform="matrix(1 0 0 -1 0 1606)">
   <path fill="currentColor"
d="M1270 62q0 -62 -62 -62h-842q-111 0 -185 44q-90 54 -90 157q0 105 97 203l825 833q47 47 47 84q0 35 -43 58q-36 19 -74 19h-658q80 -85 155 -227q84 -159 84 -256q0 -63 -62 -63q-38 0 -52 28l-16 60q-50 178 -117 270q-41 56 -203 207q-24 23 -24 49q0 58 69 58h824
q92 0 164 -54q77 -60 77 -149q0 -88 -83 -172l-825 -834q-61 -62 -61 -114q0 -76 151 -76h842q62 0 62 -63z" />
  </g>

</svg>
