<?xml version="1.0" standalone="no"?>
<!DOCTYPE svg PUBLIC "-//W3C//DTD SVG 1.1//EN" "http://www.w3.org/Graphics/SVG/1.1/DTD/svg11.dtd" >
<svg viewBox="0 -442 2048 2048">
  <g transform="matrix(1 0 0 -1 0 1606)">
   <path fill="currentColor"
d="M1998 582q0 -406 -284 -690t-690 -284t-690 284t-284 690t284 690t690 284t690 -284t284 -690zM1898 582q0 364 -255 619t-619 255t-619 -255t-255 -619t255 -619t619 -255t619 255t255 619zM1848 582h-650q0 104 -86 152l325 563q188 -108 298 -295q113 -193 113 -420z
M1148 582q0 -54 -35 -89t-89 -35t-89 35t-35 89t35 89t89 35t89 -35t35 -89zM936 734q-86 -48 -86 -152h-650q0 227 113 420q110 187 298 295zM1437 -133q-190 -109 -413 -109t-413 109l325 563q39 -22 88 -22q47 0 87 22z" />
  </g>

</svg>
