<?xml version="1.0" standalone="no"?>
<!DOCTYPE svg PUBLIC "-//W3C//DTD SVG 1.1//EN" "http://www.w3.org/Graphics/SVG/1.1/DTD/svg11.dtd" >
<svg viewBox="0 -442 2048 2048">
  <g transform="matrix(1 0 0 -1 0 1606)">
   <path fill="currentColor"
d="M1955 311q-81 264 -298 351q-59 24 -121 24q-102 0 -214 -65q-64 -37 -111 -103l-71 37q3 15 3 27q0 92 -85 115l3 80q81 8 145 45q179 103 203 270q4 31 4 62q0 199 -159 371q125 -80 202.5 -214.5t77.5 -256.5q0 -114 -67 -215q252 15 403 -246q78 -135 85 -282z
M1254 948q-30 -31 -71 -52q-75 37 -159 37t-159 -37q-41 21 -71 52q105 65 230 65t230 -65zM1455 582q0 -122 -60.5 -223t-162.5 -156q-10 39 -12 86q146 97 155 275q40 25 80 36v-18zM990 697q-85 -23 -85 -115q0 -12 3 -27l-71 -37q-47 66 -111 103q-112 65 -214 65
q-62 0 -121 -24q-217 -87 -298 -351q7 147 85 282q151 261 403 246q-67 101 -67 215q0 122 77.5 256.5t202.5 214.5q-159 -172 -159 -371q0 -31 4 -62q24 -167 203 -270q64 -37 145 -45zM1725 -87q-132 -68 -287 -68q-301 0 -414 226q-113 -226 -414 -226q-155 0 -287 68
q75 -17 150 -17q177 0 303 99q132 104 132 311q0 73 -34 148l66 41q33 -32 84 -32t84 32l66 -41q-34 -75 -34 -148q0 -207 132 -311q126 -99 303 -99q75 0 150 17zM828 289q-2 -42 -13 -86q-102 55 -162 156t-60 223v18q40 -11 80 -36q9 -178 155 -275z" />
  </g>

</svg>
