<?xml version="1.0" standalone="no"?>
<!DOCTYPE svg PUBLIC "-//W3C//DTD SVG 1.1//EN" "http://www.w3.org/Graphics/SVG/1.1/DTD/svg11.dtd" >
<svg viewBox="0 -442 2048 2048">
  <g transform="matrix(1 0 0 -1 0 1606)">
   <path fill="currentColor"
d="M2016 1491q0 -30 -46 -53q-40 -20 -73 -20q-46 0 -110 18q-53 16 -107 32q-2 1 -5 1q-15 0 -19 -15l4 -5q95 -54 212 -54q8 0 20 1q1 -78 -110 -78q-88 0 -137 21q-8 3 -53 32q-41 26 -45 26q-10 0 -12 -8q7 -28 77 -59q65 -28 99 -28q4 0 9 1q-33 -82 -136 -82
q-76 0 -132.5 46.5t-58.5 46.5q-6 0 -6 -7q0 -20 49 -59t70 -38q-28 -43 -114 -48q-44 -79 -248 -147q73 -48 73 -108q0 -86 -83 -145q97 -52 97 -136t-100 -142q60 -43 60 -105q0 -73 -84 -132q89 -56 89 -113q0 -65 -87 -100q49 -37 49 -92q0 -46 -71 -90q30 -22 72 -52
l-11 -23q-53 14 -104 34v-221h-40v221q-51 -20 -104 -34l-11 23q20 15 72 52q-71 44 -71 90q0 55 49 92q-87 35 -87 100q0 57 89 113q-84 59 -84 132q0 62 60 105q-100 58 -100 142t97 136q-83 59 -83 145q0 60 73 108q-204 68 -248 147q-86 5 -114 48q21 -1 70 38t49 59
q0 7 -6 7q-2 0 -58.5 -46.5t-132.5 -46.5q-103 0 -136 82q5 -1 9 -1q34 0 99 28q70 31 77 59q-2 8 -12 8q-4 0 -45 -26q-45 -29 -53 -32q-49 -21 -137 -21q-111 0 -110 78q12 -1 20 -1q117 0 212 54l4 5q-4 15 -19 15q-2 0 -5 -1q-54 -16 -107 -32q-64 -18 -110 -18
q-33 0 -73 20q-46 23 -46 53v83h863q-14 -28 -14 -59q0 -87 106 -101v-153q0 -98 -98 -98q-39 0 -98 34q36 20 69 71q-8 4 -24 10q-36 -48 -73 -78q19 -30 93 -62l148 -56v378q-55 13 -55 56q0 26 24 42t51 16t51 -16t24 -42q0 -43 -55 -56v-378l148 56q74 32 93 62
q-37 30 -73 78q-5 -2 -24 -10q33 -51 69 -71q-59 -34 -98 -34q-98 0 -98 98v153q106 14 106 101q0 31 -14 59h863v-83zM988 1059q-140 52 -176 71q-83 44 -83 95q0 21 29.5 53t50.5 32q19 0 51 -14t48 -14q35 0 35 25q0 29 -52 50q-42 16 -78 16q-58 0 -104 -38t-46 -95
q0 -81 88 -133q46 -28 183 -74q24 13 54 26zM1191 907q0 53 -79 98q-38 -13 -57 -20q76 -41 76 -100q0 -52 -74 -89q17 -7 50 -21q84 53 84 132zM1105 885q0 44 -61 77v-143q61 30 61 66zM1004 819v143q-61 -33 -61 -77q0 -36 61 -66zM1385 1240q0 57 -46 95t-104 38
q-36 0 -78 -16q-52 -21 -52 -50q0 -25 35 -25q16 0 48 14t51 14q21 0 50.5 -32t29.5 -53q0 -59 -120 -112q-111 -43 -222 -87q-120 -55 -120 -119q0 -75 74 -126q69 -36 139 -73q74 -40 74 -89q0 -58 -130.5 -113.5t-130.5 -126.5q0 -59 64 -105q5 -4 120 -68q64 -35 64 -68
q0 -42 -107.5 -88t-107.5 -108q0 -57 161 -115q-113 80 -113 116q0 64 103 103t103 88t-119.5 116t-119.5 117q0 45 71 83l132 66q71 46 71 110q0 66 -75 108l-138 62q-75 37 -75 89q0 72 121 121q113 41 226 83q121 58 121 151zM1118 619q0 36 -74 73v-145q74 34 74 72z
M1004 547v145q-74 -37 -74 -73q0 -38 74 -72zM994 716q-35 17 -55 29q-96 -46 -96 -119q0 -74 99 -126q21 12 49 24q-87 40 -87 95q0 51 90 97zM1165 379q0 55 -59 92q-21 -11 -52 -25q63 -35 63 -79q0 -43 -67 -86q11 -6 33 -19q82 52 82 117zM1091 367q0 28 -47 54v-113
q47 31 47 59zM1004 308v113q-47 -26 -47 -54t47 -59zM1105 138q0 19 -61 51v-102q61 26 61 51zM1004 87v102q-61 -32 -61 -51q0 -25 61 -51zM995 214q-18 9 -30 17q-87 -51 -87 -97q0 -50 88 -83q13 7 25 13q-74 33 -74 74q0 35 78 76zM1132 -58q0 49 -52 81q-19 -7 -30 -12
q34 -26 34 -68q0 -22 -40 -59q7 -5 20 -15q68 39 68 73zM1058 -57q0 22 -14 38v-61q14 15 14 23zM1004 -80v61q-14 -16 -14 -38q0 -8 14 -23zM991 -165l-5 3l-15 -11q6 2 20 8zM1191 1323q0 -24 -37 -24q-23 0 -23 19q0 24 34 24q26 0 26 -19zM917 1318q0 -19 -23 -19
q-37 0 -37 24q0 19 26 19q34 0 34 -24zM1178 1324q0 6 -11 6q-22 0 -22 -12q0 -6 10 -6q23 0 23 12zM903 1318q0 12 -22 12q-11 0 -11 -6q0 -12 23 -12q10 0 10 6z" />
  </g>

</svg>
