<?xml version="1.0" standalone="no"?>
<!DOCTYPE svg PUBLIC "-//W3C//DTD SVG 1.1//EN" "http://www.w3.org/Graphics/SVG/1.1/DTD/svg11.dtd" >
<svg viewBox="0 -442 2048 2048">
  <g transform="matrix(1 0 0 -1 0 1606)">
   <path fill="currentColor"
d="M1406 1545q0 -3 -1 -4q-37 -64 -100 -108q-69 -49 -136 -49q-73 0 -125 28q-77 -58 -188 -58q-101 0 -157.5 60.5t-56.5 162.5q1 6 4 6q18 -13 48 -34q89 -59 193 -59q64 0 117 83q1 2 5 2q-8 0 65.5 -42t129.5 -42q70 0 194 58q2 1 4 1q4 -1 4 -5zM1983 516
q0 -319 -220 -577q-39 -46 -68 -65q-13 -3 -13 11q0 13 48 113q121 252 121 504q0 279 -151 522l-67 97q-55 79 -55 87q0 17 16 17q26 0 113 -83q276 -262 276 -626zM1642 632q0 -247 -123 -452q-120 -201 -337 -326q72 -32 217 -92q24 -8 70 -27q11 -6 11 -16
q0 -17 -40 -17q-125 0 -325 56q-26 -116 -91 -142q-65 26 -91 142q-200 -56 -325 -56q-40 0 -40 17q0 10 11 16q7 4 70 27q1 0 217 92q-217 125 -337 326q-123 205 -123 452q0 293 163 528q44 63 63 63q12 0 12 -15q0 -11 -22 -84q-64 -211 -64 -434q0 -468 375 -710
q17 188 17 243q0 148 -18 444.5t-18 444.5q0 37 36.5 73.5t73.5 36.5t73.5 -36.5t36.5 -73.5q0 -148 -18 -444.5t-18 -444.5q0 -55 17 -243q375 242 375 710q0 223 -64 434q-22 73 -22 84q0 15 12 15q19 0 63 -63q163 -235 163 -528zM470 1208q0 -8 -55 -87l-67 -97
q-151 -243 -151 -522q0 -252 121 -504q48 -100 48 -113q0 -14 -13 -11q-29 19 -68 65q-220 258 -220 577q0 364 276 626q87 83 113 83q16 0 16 -17z" />
  </g>

</svg>
