<?xml version="1.0" standalone="no"?>
<!DOCTYPE svg PUBLIC "-//W3C//DTD SVG 1.1//EN" "http://www.w3.org/Graphics/SVG/1.1/DTD/svg11.dtd" >
<svg viewBox="0 -442 2048 2048">
  <g transform="matrix(1 0 0 -1 0 1606)">
   <path fill="currentColor"
d="M1604 774q0 -192 -73 -421q-42 -131 -158 -400q-57 245 -359 245q66 -54 124 -134q66 -92 77 -164q50 -22 50 -77q0 -35 -24.5 -59.5t-59.5 -24.5t-59.5 24.5t-24.5 59.5q0 43 34 68q-18 110 -230 248v-281q89 -28 89 -122q0 -53 -37.5 -90.5t-90.5 -37.5t-90.5 37.5
t-37.5 90.5q0 94 89 122v281q-212 -138 -230 -248q34 -25 34 -68q0 -35 -24.5 -59.5t-59.5 -24.5t-59.5 24.5t-24.5 59.5q0 55 50 77q11 72 77 164q58 80 124 134q-302 0 -359 -245q-116 269 -158 400q-73 229 -73 421q0 180 130 341q114 139 293 229q-109 -75 -181 -225
q-70 -145 -70 -282q0 -225 161 -358q123 -102 370 -167v108h-182l34 93q-116 42 -193 151t-77 232q0 145 81 255q85 114 224 144q-30 83 -69 132l221 113l221 -113q-39 -49 -69 -132q139 -30 224 -144q81 -110 81 -255q0 -123 -77 -232t-193 -151l34 -93h-182v-108
q247 65 370 167q161 133 161 358q0 137 -70 282q-72 150 -181 225q179 -90 293 -229q130 -161 130 -341zM1196 896q0 225 -211 286q-30 -158 -30 -286q0 -98 54 -275q187 71 187 275zM769 896q0 128 -30 286q-211 -61 -211 -286q0 -204 187 -275q54 177 54 275z" />
  </g>

</svg>
