<?xml version="1.0" standalone="no"?>
<!DOCTYPE svg PUBLIC "-//W3C//DTD SVG 1.1//EN" "http://www.w3.org/Graphics/SVG/1.1/DTD/svg11.dtd" >
<svg viewBox="0 -442 2048 2048">
  <g transform="matrix(1 0 0 -1 0 1606)">
   <path fill="currentColor"
d="M1641 740q0 -324 -227 -551t-551 -227q-323 0 -550.5 227.5t-227.5 550.5q0 324 227 551.5t551 227.5q325 0 551.5 -227t226.5 -552zM1541 740q0 282 -198 480.5t-480 198.5q-162 0 -306.5 -73t-240.5 -203q80 32 177 32q185 0 301 -119q108 -112 132 -300
q41 -323 308 -323q134 0 220.5 86.5t86.5 220.5zM615 740q0 51 -36 87t-87 36q-52 0 -88 -35.5t-36 -87.5t36 -87.5t88 -35.5q51 0 87 36t36 87zM1358 740q0 -52 -36 -87.5t-88 -35.5q-51 0 -87 36t-36 87t36 87t87 36q52 0 88 -35.5t36 -87.5z" />
  </g>

</svg>
