<?xml version="1.0" standalone="no"?>
<!DOCTYPE svg PUBLIC "-//W3C//DTD SVG 1.1//EN" "http://www.w3.org/Graphics/SVG/1.1/DTD/svg11.dtd" >
<svg viewBox="0 -442 2048 2048">
  <g transform="matrix(1 0 0 -1 0 1606)">
   <path fill="currentColor"
d="M1794 582q0 -354 -251 -605t-605 -251t-605 251t-251 605t251 605t605 251t605 -251t251 -605zM1362 845q0 66 -46.5 112.5t-112.5 46.5t-112.5 -46.5t-46.5 -112.5t46.5 -112.5t112.5 -46.5t112.5 46.5t46.5 112.5zM832 845q0 66 -46.5 112.5t-112.5 46.5t-112.5 -46.5
t-46.5 -112.5t46.5 -112.5t112.5 -46.5t112.5 46.5t46.5 112.5zM1440 535h-68q-79 -353 -434 -353t-434 353h-68q24 -220 151 -350q134 -138 351 -138t351 138q127 130 151 350z" />
  </g>

</svg>
