<?xml version="1.0" standalone="no"?>
<!DOCTYPE svg PUBLIC "-//W3C//DTD SVG 1.1//EN" "http://www.w3.org/Graphics/SVG/1.1/DTD/svg11.dtd" >
<svg viewBox="0 -442 2048 2048">
  <g transform="matrix(1 0 0 -1 0 1606)">
   <path fill="currentColor"
d="M1417 740q0 -332 -231.5 -561t-564.5 -229q-267 0 -470 158q-28 22 -28 47q0 45 51 45q6 0 16 -2l243 -49q245 0 416.5 173t171.5 418q0 242 -170 416.5t-411 174.5l-250 -50q-10 -2 -16 -2q-51 0 -51 45q0 26 30 48q219 158 474 158q329 0 559.5 -230.5t230.5 -559.5z
M1317 740q0 288 -201 489t-489 201q-49 0 -96 -6q254 -36 422 -231.5t168 -452.5q0 -256 -168 -452.5t-421 -231.5q43 -6 89 -6q291 0 493.5 199.5t202.5 490.5z" />
  </g>

</svg>
