<?xml version="1.0" standalone="no"?>
<!DOCTYPE svg PUBLIC "-//W3C//DTD SVG 1.1//EN" "http://www.w3.org/Graphics/SVG/1.1/DTD/svg11.dtd" >
<svg viewBox="0 -442 2048 2048">
  <g transform="matrix(1 0 0 -1 0 1606)">
   <path fill="currentColor"
d="M1417 156q0 -26 -30 -48q-219 -158 -474 -158q-329 0 -559.5 230.5t-230.5 559.5q0 332 231.5 561t564.5 229q267 0 470 -158q28 -22 28 -47q0 -45 -51 -45q-6 0 -16 2l-243 49q-245 0 -416.5 -173t-171.5 -418q0 -242 170 -416.5t411 -174.5l250 50q10 2 16 2
q51 0 51 -45zM1009 56q-254 36 -422 231.5t-168 452.5q0 256 168 452.5t421 231.5q-43 6 -89 6q-291 0 -493.5 -199.5t-202.5 -490.5q0 -288 201 -489t489 -201q49 0 96 6z" />
  </g>

</svg>
