<?xml version="1.0" standalone="no"?>
<!DOCTYPE svg PUBLIC "-//W3C//DTD SVG 1.1//EN" "http://www.w3.org/Graphics/SVG/1.1/DTD/svg11.dtd" >
<svg viewBox="0 -442 2048 2048">
  <g transform="matrix(1 0 0 -1 0 1606)">
   <path fill="currentColor"
d="M1146 750q0 -205 -134.5 -355.5t-335.5 -173.5v-266h281v-125h-281v-270h-125v270h-281v125h281v265q-201 23 -336 173.5t-135 356.5q0 154 80 283q78 126 209 193q-183 114 -212 379h61q73 -321 395 -321t395 321h62q-29 -265 -213 -379q131 -67 209 -193
q80 -129 80 -283zM1021 750q0 171 -118.5 290t-289.5 119t-289.5 -119t-118.5 -290t118.5 -289.5t289.5 -118.5t289.5 118.5t118.5 289.5z" />
  </g>

</svg>
