<?xml version="1.0" standalone="no"?>
<!DOCTYPE svg PUBLIC "-//W3C//DTD SVG 1.1//EN" "http://www.w3.org/Graphics/SVG/1.1/DTD/svg11.dtd" >
<svg viewBox="0 -442 2048 2048">
  <g transform="matrix(1 0 0 -1 0 1606)">
   <path fill="currentColor"
d="M1467 381h-369l-62 63v986l62 62h369v-125h-306v-861h306v-125zM1007 0q0 -102 -73 -176t-175 -74t-175 74t-73 176q0 84 52 151.5t133 88.5v712h-165v125h165v415h125v-415h166v-125h-166v-712q81 -22 133.5 -89t52.5 -151zM482 444l-63 -63h-369v125h307v861h-307v125
h369l63 -62v-986zM882 0q0 50 -36.5 86.5t-86.5 36.5t-86.5 -36.5t-36.5 -86.5t36.5 -87.5t86.5 -37.5t86.5 37.5t36.5 87.5z" />
  </g>

</svg>
