<?xml version="1.0" standalone="no"?>
<!DOCTYPE svg PUBLIC "-//W3C//DTD SVG 1.1//EN" "http://www.w3.org/Graphics/SVG/1.1/DTD/svg11.dtd" >
<svg viewBox="0 -442 2196 2048">
  <g transform="matrix(1 0 0 -1 0 1606)">
   <path fill="currentColor"
d="M2196 1110q0 -172 -107 -370h-151q110 196 110 360q0 115 -46 195q-56 99 -162 99q-200 0 -373 -445q-95 -245 -154 -616q-54 -344 -54 -635v-93h-148v99q0 276 -52 608q-56 356 -144 592q-179 478 -386 478q-105 0 -161 -97q-47 -80 -47 -193q0 -170 110 -352h-150
q-108 196 -108 367q0 168 94 285q100 126 264 126q311 0 490 -489q117 -322 151 -741h25q28 411 151 742q180 488 491 488q164 0 264 -125q93 -115 93 -283z" />
  </g>

</svg>
