<?xml version="1.0" standalone="no"?>
<!DOCTYPE svg PUBLIC "-//W3C//DTD SVG 1.1//EN" "http://www.w3.org/Graphics/SVG/1.1/DTD/svg11.dtd" >
<svg viewBox="0 -442 2048 2048">
  <g transform="matrix(1 0 0 -1 0 1606)">
   <path fill="currentColor"
d="M1986 1369h-26q-138 0 -247 -195l-59 -106q-67 -120 -119 -176q-69 -74 -175 -116q355 -196 355 -565q0 -257 -188.5 -443.5t-446.5 -186.5q-257 0 -446.5 186.5t-189.5 443.5q0 181 98 332q92 142 257 233q-106 42 -175 116q-52 56 -119 176l-59 106q-109 195 -246 195
h-27v111h73q196 0 353 -274l81 -141q77 -133 161 -189q93 -62 239 -62t239 62q84 56 161 189l81 141q157 274 352 274h73v-111zM1567 208q0 203 -142 343t-345 140t-345.5 -140t-142.5 -343q0 -201 143.5 -340t344.5 -139t344 139.5t143 339.5z" />
  </g>

</svg>
