<?xml version="1.0" standalone="no"?>
<!DOCTYPE svg PUBLIC "-//W3C//DTD SVG 1.1//EN" "http://www.w3.org/Graphics/SVG/1.1/DTD/svg11.dtd" >
<svg viewBox="0 -442 2048 2048">
  <g transform="matrix(1 0 0 -1 0 1606)">
   <path fill="currentColor"
d="M1755 -260q-173 -159 -332 -159q-136 0 -230.5 90.5t-94.5 226.5q0 178 188 578l96 204q111 236 111 384q0 186 -106 299q-109 117 -293 117q-168 0 -273 -100.5t-105 -267.5q0 -152 98 -356l39 -81q97 -201 97 -296q0 -156 -115.5 -267.5t-272.5 -111.5q-163 0 -276 114
t-113 277q0 158 111 272t268 114q56 0 124 -21q-108 207 -108 366q0 216 157 352q149 130 368 130q247 0 396 -142q152 -145 152 -390q0 -132 -41 -254q-21 -64 -102 -240l-69 -150q-184 -400 -184 -515q0 -83 50.5 -140t132.5 -57q105 0 240 119zM827 388q0 117 -78 197.5
t-195 80.5q-114 0 -192 -81t-78 -195q0 -117 78 -198t194 -81q115 0 193 81t78 196z" />
  </g>

</svg>
