<?xml version="1.0" standalone="no"?>
<!DOCTYPE svg PUBLIC "-//W3C//DTD SVG 1.1//EN" "http://www.w3.org/Graphics/SVG/1.1/DTD/svg11.dtd" >
<svg viewBox="0 -442 2048 2048">
  <g transform="matrix(1 0 0 -1 0 1606)">
   <path fill="currentColor"
d="M1739 652q0 -428 -378 -752q18 -130 153 -295h-174q-63 80 -112 212q-139 -79 -340 -111v127q190 39 311 111q-15 96 -15 193v900q0 220 -64 332q-157 -169 -232 -476v-893h-149v987q0 275 -65 382q-153 -178 -231 -441v-928h-148v1075q0 223 -122 405h156
q83 -114 114 -293q75 185 174 293l145 27q100 -128 126 -340q51 160 181 313l143 27q120 -167 120 -369v-282q60 170 127 266l122 45q158 -245 158 -515zM1591 644q0 178 -78 345q-110 -136 -181 -363v-587q259 263 259 605z" />
  </g>

</svg>
