<?xml version="1.0" standalone="no"?>
<!DOCTYPE svg PUBLIC "-//W3C//DTD SVG 1.1//EN" "http://www.w3.org/Graphics/SVG/1.1/DTD/svg11.dtd" >
<svg viewBox="0 -442 2073 2048">
  <g transform="matrix(1 0 0 -1 0 1606)">
   <path fill="currentColor"
d="M2073 383q0 -158 -106.5 -270.5t-264.5 -112.5q-211 0 -369 164q-100 -261 -159 -333q-106 -127 -324 -127h-134v123h63q152 0 238 64q72 53 122 170q4 10 84 246q-54 95 -76 194q-7 36 -30 210l-37 283q-36 279 -86 385q-129 -152 -220 -405.5t-91 -455.5v-80h-147v52
q0 133 -45 385q-49 272 -99 367q-61 116 -191 116h-28v122h111q155 0 215 -122q71 -145 129 -487q84 376 280 609l195 38q71 -158 120 -489l27 -181q11 -75 18 -135q19 -164 45 -245q143 273 395 273q153 0 259 -103t106 -255zM1950 381q0 104 -69.5 176t-172.5 72
q-218 0 -342 -340q161 -178 325 -178q114 0 186.5 78t72.5 192z" />
  </g>

</svg>
