<?xml version="1.0" standalone="no"?>
<!DOCTYPE svg PUBLIC "-//W3C//DTD SVG 1.1//EN" "http://www.w3.org/Graphics/SVG/1.1/DTD/svg11.dtd" >
<svg viewBox="0 -442 2048 2048">
  <g transform="matrix(1 0 0 -1 0 1606)">
   <path fill="currentColor"
d="M2009 939l-115 -51l-119 284l-433 -284l-120 284l-428 -284l-120 284l-432 -284l-68 102l555 367l122 -284l430 284l120 -284l430 284zM2008 174l-115 -51l-119 284l-432 -284l-120 284l-428 -284l-121 284l-432 -284l-68 102l555 367l122 -284l430 284l120 -284l430 284
z" />
  </g>

</svg>
