<?xml version="1.0" standalone="no"?>
<!DOCTYPE svg PUBLIC "-//W3C//DTD SVG 1.1//EN" "http://www.w3.org/Graphics/SVG/1.1/DTD/svg11.dtd" >
<svg viewBox="0 -442 2048 2048">
  <g transform="matrix(1 0 0 -1 0 1606)">
   <path fill="currentColor"
d="M1913 924q0 -69 -38 -103q-15 -14 -79 -44q-49 -23 -65 -57q-100 -217 -106 -287q35 -95 35 -135q0 -61 -43 -112v-53q50 -45 50 -140q0 -75 -39 -109q-16 -7 -46 -24q-5 -12 -16 -35q-94 -192 -581 -192q-508 0 -598 227q-88 27 -88 146q0 84 53 128v51q-43 44 -43 112
q0 25 17 68t17 66q0 28 -50 145q-33 78 -67 155q-10 24 -56 41q-90 32 -90 137q0 59 44.5 102.5t104.5 43.5q87 0 129 -82q12 -23 12 -80q0 -10 -4 -29.5t-4 -29.5q0 -24 54 -66l76 -54q35 -28 44 -28q18 0 18 26q0 14 -13 71l-75 332q-71 39 -71 123q0 96 95 136
q33 14 47 14q13 0 44 -8q105 -27 105 -127q0 -49 -25 -94q31 -86 91 -260q34 -99 66 -99q22 0 25 23q0 -2 0 40q0 -2 2 21q1 8 25 396q-36 55 -36 99q0 62 44 106t106 44q69 0 110 -47.5t41 -118.5q0 -38 -36 -80v-5q0 14 11 -167q1 -91 19 -272q7 -39 23 -39q29 0 47 49
q36 103 109 310q-34 46 -34 92q0 56 48 98q47 39 104 39q56 0 101.5 -42.5t45.5 -98.5q0 -89 -79 -132q-20 -95 -61 -286q0 -2 -17 -59q-10 -35 -10 -59q0 -25 17 -25t53 26.5t73 52.5q41 32 58 70q-18 43 -18 83q0 66 51 108q48 39 116 39q66 0 111.5 -38t45.5 -103z
M1511 1239q0 38 -25 67t-63 29q-35 0 -61.5 -26.5t-26.5 -60.5q0 -33 23.5 -60.5t56.5 -27.5q35 0 65.5 22.5t30.5 56.5zM1072 1379q0 34 -26.5 61t-60.5 27q-31 0 -60 -24.5t-29 -55.5q0 -40 24.5 -67.5t63.5 -27.5q34 0 61 26.5t27 60.5zM634 1240q0 95 -104 95
q-31 0 -55.5 -28t-24.5 -60q0 -40 29 -64.5t70 -24.5q30 0 57.5 26t27.5 56zM1846 925q0 33 -28 55t-64 22q-102 0 -102 -96q0 -7 4.5 -21t4.5 -21q0 -27 -3 -45q-8 -46 -94.5 -117t-133.5 -71q-27 0 -51 15q-27 16 -27 42q0 35 39 244l31 166q-36 0 -68 17
q-30 -89 -60 -177q-47 -135 -66 -159q-33 -41 -77 -41q-78 0 -89 121q-8 129 -25 388q-24 -18 -53 -18q-33 0 -61 18l-17 -405q-4 -104 -88 -104q-71 0 -115 113q-3 8 -88 263q-27 -14 -78 -16q17 -88 53 -263q26 -120 26 -133q0 -45 -26 -60q-19 -11 -68 -11
q-46 0 -134.5 84t-88.5 129q0 8 8.5 28.5t8.5 33.5q0 34 -26 60t-60 26q-37 0 -62.5 -27.5t-25.5 -64.5t57 -74q70 -46 82 -66q23 -37 73 -157q54 -128 54 -156q0 -31 -14 -74q-23 -68 -24 -73l10 -43q286 263 604 263q311 0 606 -263q8 20 8 39q0 24 -17.5 68t-17.5 68
q0 46 113 311q16 36 59 64q36 22 73 44q38 30 38 74zM1607 2q0 88 -42 88q-45 0 -45 -95q0 -74 42 -74q45 0 45 81zM1553 151v52q-197 177 -416 233q-83 21 -119 21h-6v-50q0 3 113 -131q8 -11 26 -29q36 -11 89 -28q101 -36 235 -128q34 52 78 60zM1518 -130
q-61 35 -60 157q-129 100 -241 138q-56 19 -64 19q-3 0 -141 -131v-104q180 -11 255 -28q176 -40 174 -138q56 35 77 87zM1097 221l-112 122l-113 -123l113 -112zM948 405v52h-13q-27 0 -99 -17q-199 -47 -421 -238v-51q53 -4 70 -60q153 105 332 156q32 27 69 76z
M1388 -211q0 11 -42 36q-50 30 -154 51q-93 19 -163 19h-96q-74 0 -184 -22q-137 -27 -159 -65q-1 -4 -5 -11.5t-4 -8.5q0 -53 150 -78q98 -17 204 -17h171q84 0 165 18q117 27 117 78zM948 -51v104q-38 39 -132 131q-152 -40 -314 -157v-11q0 -115 -60 -146q21 -50 77 -87
q3 94 177 138q114 28 252 28zM449 2q0 88 -42 88q-45 0 -45 -94q0 -75 42 -75q45 0 45 81z" />
  </g>

</svg>
