<?xml version="1.0" standalone="no"?>
<!DOCTYPE svg PUBLIC "-//W3C//DTD SVG 1.1//EN" "http://www.w3.org/Graphics/SVG/1.1/DTD/svg11.dtd" >
<svg viewBox="0 -442 2076 2048">
  <g transform="matrix(1 0 0 -1 0 1606)">
   <path fill="currentColor"
d="M2076 -381h-265q-2 41 -65 41q-21 0 -98 -10q-186 -24 -243 -24q-102 0 -186 40q-99 46 -129 132q-8 22 -12 38q-4 -16 -12 -38q-30 -86 -129 -132q-84 -40 -186 -40q-57 0 -243 24q-77 10 -98 10q-63 0 -65 -41h-265v61q0 82 77 149q105 91 308 91q45 0 133 -12.5
t133 -12.5q69 0 102 19q28 17 69 76q-75 15 -110 26q-65 21 -97 54v304q-165 119 -165 297q0 128 95 237q20 22 196 174q65 55 194 164q-101 49 -101 154q0 70 47 117t117 47t117 -47t47 -117q0 -105 -101 -154l194 -164q176 -152 196 -174q95 -109 95 -237
q0 -178 -165 -297v-304q-48 -49 -207 -80q41 -59 69 -76q33 -19 102 -19q45 0 133 12.5t133 12.5q203 0 308 -91q77 -67 77 -149v-61zM1170 1400q0 37 -27.5 63.5t-64.5 26.5t-64.5 -26.5t-27.5 -63.5q0 -36 28 -63t64 -27t64 27t28 63zM1559 669q0 100 -79 186
q-74 80 -197 187q-102 88 -205 177q-103 -89 -205 -177q-123 -107 -197 -187q-79 -86 -79 -186q0 -82 45.5 -152t120.5 -100q191 53 315 53t315 -53q75 30 120.5 100t45.5 152zM2007 -314q-39 166 -304 166q-47 0 -139 -13t-139 -13q-87 0 -144 42q-44 32 -97 116h-70v-30
q0 -36 15 -85q53 -174 277 -174q46 0 288 28q43 5 51 5q64 0 106 -42h156zM1393 136v61l-58 65l58 39v48q-152 52 -272 52h-86q-120 0 -272 -52v-48l58 -39l-58 -65v-61q107 37 233 37h164q126 0 233 -37zM1355 82q-100 24 -193 24h-168q-91 0 -192 -24q93 -38 208 -38h136
q128 0 209 38zM1042 -46v30h-70q-53 -84 -97 -116q-57 -42 -144 -42q-47 0 -139 13t-139 13q-265 0 -304 -166h156q42 42 106 42q8 0 51 -5q242 -28 288 -28q224 0 277 174q15 49 15 85zM1255 725h-143v-144h-70v144h-144v69h144v143h70v-143h143v-69zM1175 290l-97 -61
l-97 61l97 65z" />
  </g>

</svg>
