<?xml version="1.0" standalone="no"?>
<!DOCTYPE svg PUBLIC "-//W3C//DTD SVG 1.1//EN" "http://www.w3.org/Graphics/SVG/1.1/DTD/svg11.dtd" >
<svg viewBox="0 -442 2048 2048">
  <g transform="matrix(1 0 0 -1 0 1606)">
   <path fill="currentColor"
d="M1878 537q0 -63 -19.5 -186.5t-19.5 -186.5q0 -90 35 -196q-65 -116 -290 -182q-165 -49 -439 -75q-186 -15 -373 -30q-127 -14 -307 -75l-18 23q0 13 29 156q8 71 35 211q10 37 66 159q19 46 38 93q18 40 59 87l96 106q69 81 69 113q0 24 -22 44q-44 -13 -76 -31
q-23 -4 -51 -4q-24 0 -70.5 4t-70.5 4q-29 0 -39 -16q-28 -21 -56 -41q-34 -25 -63 -25q-28 0 -70 28.5t-65 28.5q-12 0 -25 10.5t-13 22.5q0 67 119 67q22 0 22 14q0 36 -43 36q-39 0 -85.5 -33.5t-51.5 -33.5q-29 0 -42 25q-50 32 -50 68q0 24 21 42q-28 31 -28 59
q0 29 108 85q78 41 140 64l178 58q106 34 171 72q49 37 153 104q48 15 143 49q34 20 107 49q2 99 87 147q47 26 174 53q114 23 146 52q155 -100 222 -298q7 -22 24 -65q131 -290 131 -541q0 -19 7 -57.5t7 -57.5zM941 1121q0 6 -10.5 13.5t-16.5 7.5q-8 0 -19 -10.5
t-11 -18.5q0 -12 30 -12q6 0 16.5 7.5t10.5 12.5zM1818 537v6q-55 18 -127 24l2 30q68 -5 121 -21q-3 16 -8 48q-74 14 -134 18l2 30q58 -3 130 -17q0 15 -2 48q-51 15 -106 15q-9 0 -29 -2l-2 30q23 2 31 2q54 0 104 -13q-2 18 -5 41q-54 13 -139 9l-2 30q39 2 54 2
q41 0 82 -9q-3 16 -9 44q-35 10 -71 10q-13 0 -73 -7l-4 30q61 7 77 7q32 0 63 -7l-3 14q-29 5 -84 5v30h26q26 0 49 -3q-4 14 -13 41q-11 1 -19 1q-49 0 -110 -33l-14 26q67 37 124 37h9l-9 28q-26 5 -50 5q-21 0 -95 -20l-7 29q78 21 102 21q22 0 38 -2l-7 20
q-13 -3 -34 -10l-9 29l33 9l-10 25q-55 -6 -129 -44l-13 27q74 38 132 46l-20 54q-62 -15 -135 -64l-17 25q73 49 142 67q-24 63 -61 120q-90 -108 -177 -143q-15 -34 -61 -67.5t-82 -33.5q-37 0 -91 22l23 56q43 -18 68 -18q18 0 51.5 25.5t37.5 42.5l20 25q40 13 76 41
q-73 -15 -145 -30q-74 -20 -137 -66l-36 48q88 65 218 89q145 26 200 57q-13 16 -28 31q-56 -48 -136 -50l-1 30q67 0 115 40q-6 5 -17 15q-34 -16 -140 -38q-101 -21 -142 -46q-65 -38 -65 -114l-32 -36q-12 -2 -101 -44q27 -26 51 -66l-26 -16q-27 47 -56 70
q-18 -6 -36 -11q62 -19 62 -82q-14 -3 -41.5 -21.5t-48.5 -18.5q-17 0 -47 16.5t-48 14.5q7 10 20 29q4 9 11 28q-46 -34 -141 -97q-67 -39 -176 -75q-92 -29 -183 -59q-44 -16 -81 -32q22 -5 22 -31q0 -31 -45 -51q-36 -16 -75 -18l-8 -56l-14 -6q5 -7 29 -27q86 61 140 61
q21 0 41 -9q27 32 68 32q26 0 56 -20q34 -21 34 -45q0 -41 -33 -68.5t-75 -26.5q-29 -40 -81 -34q58 -36 65 -36q19 0 77 51q34 30 80 31q30 30 45 41q49 37 134 42q109 7 146 20l10 -28q-28 -10 -153 -21q-90 -8 -139 -55q100 -7 99 -7q32 0 67 16t53 16q19 0 62.5 -13.5
t71.5 -13.5q50 0 131.5 40.5t105.5 81.5q43 73 43 159q0 30 -4 71l60 6q4 -41 4 -77q0 -103 -51 -189q-32 -55 -129 -104q-93 -48 -160 -48q-25 0 -47 4q2 -12 2 -18q0 -62 -92 -162q-116 -127 -131 -154l-45 -108q-24 -49 -62 -150q-9 -69 -33 -207q-8 -29 -22 -88
q143 44 252 56l524 48q373 50 491 159q-44 13 -78 29l13 27q41 -20 88 -32l4 5q-6 20 -9 34q-58 12 -105 15l2 30q43 -2 96 -13q-4 18 -7 42q-58 9 -102 12l2 30q41 -3 96 -11q-2 18 -2 29q-45 11 -99 13l1 29q57 -2 98 -11q1 31 3 57q-52 -13 -99 -32l-12 28q49 21 115 36
l3 24h-9q-41 0 -95 -15l-8 28q61 17 102 17q-9 0 14 -1l5 28q-46 19 -103 24l2 30q59 -5 106 -23l3 23q-36 20 -108 21v30q73 -1 112 -20q2 13 5 40q-32 15 -71 15q-9 0 -39 -4l-4 30q30 4 43 4q38 0 73 -14q1 19 1 35zM454 711q-13 8 -29 8q-10 0 -38 -34q38 -6 25 -6
q36 0 42 32zM216 855l-3 3q-16 -7 -47 -23q18 2 29 5q21 6 21 15zM1574 748q0 -149 -63 -243q-32 -48 -142 -142q-101 -87 -148 -171l-27 14q46 82 146 169q109 95 141 141q63 92 63 232q0 68 -42 146l27 15q45 -83 45 -161zM1112 842q-32 -3 -48 -3q-31 0 -71 12l8 29
q36 -11 61 -11q15 0 47 3zM1629 327l-4 -30q-27 3 -45 3q-34 0 -82 -11l-7 29q53 12 89 12q22 0 49 -3zM1625 216q-77 -5 -139 -23l-9 29q63 19 146 24zM973 960q-106 -40 -322 -105l-7 30q63 14 161 49q124 44 159 55zM1610 113h-12q-58 0 -125 -16l-7 29q71 17 131 17h13
v-30zM1188 560q-176 -67 -227 -67q-30 0 -64 20l16 26q26 -16 48 -16q47 0 217 65zM1155 495q-113 -59 -180 -59q-44 0 -90 23l13 27q38 -20 77 -20q61 0 166 55zM604 734l-30 -4q-5 30 -20 68l28 11q17 -42 22 -75zM1451 26l-4 -30q-95 14 -159 14q-97 0 -183 -29l-10 28
q90 31 193 31q68 0 163 -14zM569 695l-30 -1q-2 49 -52 81l17 25q63 -40 65 -105zM477 875q-113 -52 -182 -115l-20 23q69 64 189 119zM1440 -72l-4 -30q-48 7 -77 7q-45 0 -119 -16q-88 -19 -119 -22l-3 29q33 3 120 22q76 17 121 17q32 0 81 -7z" />
  </g>

</svg>
