<?xml version="1.0" standalone="no"?>
<!DOCTYPE svg PUBLIC "-//W3C//DTD SVG 1.1//EN" "http://www.w3.org/Graphics/SVG/1.1/DTD/svg11.dtd" >
<svg viewBox="0 -442 2048 2048">
  <g transform="matrix(1 0 0 -1 0 1606)">
   <path fill="currentColor"
d="M1508 -374h-1428v101q0 112 59 199t163 124q37 9 84 25q9 7 58 90q162 273 192 475q7 47 7 147h-278v64q0 71 81 138q64 53 146 82q-72 83 -72 194q0 114 80 193.5t194 79.5t194 -79.5t80 -193.5q0 -109 -73 -193q23 -10 64 -29q164 -85 164 -200v-56h-278v-84
q0 -10 8 -65q35 -237 249 -563q258 -51 297 -273q9 -51 9 -64v-112zM1150 854v5q0 6 -10 28q-38 83 -239 161q99 101 99 217q0 86 -60 146.5t-146 60.5t-146 -60.5t-60 -146.5q0 -113 98 -217q-113 -48 -151 -72q-92 -57 -97 -122h712zM1440 -309v30q0 -5 -2 17
q-11 119 -65.5 181.5t-170.5 94.5q-23 5 -50 13q-9 7 -51 77q-225 378 -223 683h-169q2 -328 -255 -735q-6 -11 -17 -25q-36 -10 -96 -28q-194 -73 -194 -308h1293z" />
  </g>

</svg>
