<?xml version="1.0" standalone="no"?>
<!DOCTYPE svg PUBLIC "-//W3C//DTD SVG 1.1//EN" "http://www.w3.org/Graphics/SVG/1.1/DTD/svg11.dtd" >
<svg viewBox="0 -442 2048 2048">
  <g transform="matrix(1 0 0 -1 0 1606)">
   <path fill="currentColor"
d="M1899 849q0 -165 -115 -306q-31 -34 -61 -69q-43 -51 -43 -74q12 -12 27 -26q14 -17 18 -39q2 -12 2 -26q0 -82 -74 -92q-3 -27 -6 -35q-6 -18 -21 -29q26 -42 26 -89q0 -63 -53 -101v-36q26 -28 26 -78q0 -110 -227 -162q-148 -33 -317 -33q-257 0 -366 11
q-262 26 -339 115q-24 28 -24 78q0 43 29 70v35q-54 29 -54 104q0 45 26 87q-18 24 -25 61l-2 2q-76 11 -76 79q0 69 49 103q-5 26 -42 71q-27 34 -55 67q-122 161 -122 317q0 178 101 298q107 128 282 128q145 0 317 -90v331h419v-331q184 90 319 90q177 0 283 -129
q98 -120 98 -302zM1680 1129q0 69 -62 69q-56 0 -56 -52q0 -58 49 -58h29q40 0 40 41zM1833 944q0 53 -55 53q-61 0 -61 -54t55 -54q61 0 61 55zM1435 1128q0 70 -62 70q-56 0 -56 -51q0 -59 50 -59h28q40 0 40 40zM1780 661q0 54 -50 54q-60 0 -60 -62q0 -54 56 -54
q54 0 54 62zM1125 1407l-63 61l-73 -80l-73 80l-62 -61l73 -82l-63 -73l63 -62l63 71l63 -71l62 62l-62 74zM1651 817q0 94 -46 164q-53 80 -142 80q-1 0 -35 -5q-130 -19 -209 -181q-65 -135 -65 -284q235 -72 380 -82q117 162 117 308zM1161 988q0 64 -51 118.5t-114 54.5
q-41 0 -90.5 -30.5t-69.5 -66.5q-18 -32 -18 -76q0 -67 52.5 -119t119.5 -52q55 0 91 28q8 9 26 26q54 49 54 117zM1572 377q0 50 -51 50q-60 0 -60 -55q0 -54 56 -54q55 0 55 59zM664 1129q0 69 -62 69q-56 0 -56 -51q0 -59 49 -59h28q41 0 41 41zM1336 465q0 42 -55 42
q-64 0 -64 -57q0 -51 56 -51q63 0 63 66zM1045 669q0 48 -48 48q-61 0 -61 -55q0 -54 55 -54q54 0 54 61zM1617 31l-2 4q2 6 2 14q0 27 -28.5 47.5t-56.5 20.5q-26 0 -52 -28.5t-26 -55.5q0 -29 26 -53.5t55 -24.5q35 0 61 25q9 8 20 26q1 8 1 25zM417 1143q0 55 -55 55
q-62 0 -62 -55t41 -55h28q48 0 48 55zM1045 505q0 49 -51 49q-58 0 -58 -55t54 -55q55 0 55 61zM826 591v16q0 81 -37 194q-40 119 -90 175q-76 85 -183 85q-90 0 -142 -80q-46 -69 -46 -164q0 -146 118 -309q153 13 380 83zM1571 208q0 29 -30 46q-240 135 -594 135
q-100 0 -234 -34t-226 -82q-25 -12 -49 -24q-28 -18 -28 -43q0 -42 42 -42q8 0 77 30q80 35 86 37q168 61 402 61q189 0 406 -90q91 -38 103 -38q45 0 45 44zM1135 164q0 46 -51 74q-43 24 -93 24q-53 0 -95 -25q-51 -29 -51 -79q0 -18 24 -46.5t42 -34.5q39 -13 63 -13
q47 0 59 3q102 25 102 97zM755 445q0 62 -56 62q-54 0 -54 -54q0 -64 67 -64q43 0 43 56zM255 933q0 64 -55 64q-54 0 -54 -54q0 -63 63 -63q46 0 46 53zM310 640l-1 27q-2 48 -54 48q-45 0 -64 -62q16 -54 64 -54q57 0 55 41zM1497 -147q0 45 -99 93q-68 32 -140 51
q-119 31 -297 31q-239 0 -436 -119q-42 -25 -42 -50q0 -58 44 -58q11 0 24 4q8 5 23 16q73 51 189 86q98 30 241 30q112 0 216 -31q70 -21 159 -70q64 -35 75 -35q43 0 43 52zM518 372q0 55 -50 55q-58 0 -58 -56q0 -53 53 -53q55 0 55 54zM528 45q0 21 -31.5 46.5
t-53.5 25.5q-34 0 -56 -24.5t-22 -58.5q0 -28 27 -53.5t55 -25.5q32 0 56.5 28.5t24.5 61.5zM1575 790q0 -108 -86 -210l-74 54q39 52 39 143q0 29 -25 29q-28 0 -54 -74q-27 -77 -40 -80q-26 -29 -78 -29q1 0 -32 3q18 32 26 82q11 63 17 81q46 137 175 137q132 0 132 -136
zM1064 925q-50 -57 -112 -57q-23 0 -54 28.5t-35 51.5q-2 11 -2 34q0 54 46 89l2 -1q47 -115 155 -145zM763 626q-30 -3 -32 -3q-86 0 -112 80q-34 103 -62 103q-21 0 -21 -46q0 -52 28 -127l-73 -53q-85 105 -85 209q0 137 118 137q123 0 172 -99q33 -100 67 -201z" />
  </g>

</svg>
