<?xml version="1.0" standalone="no"?>
<!DOCTYPE svg PUBLIC "-//W3C//DTD SVG 1.1//EN" "http://www.w3.org/Graphics/SVG/1.1/DTD/svg11.dtd" >
<svg viewBox="0 -442 2048 2048">
  <g transform="matrix(1 0 0 -1 0 1606)">
   <path fill="currentColor"
d="M1913 910q0 -52 -33 -95q-37 -47 -87 -47q-42 0 -63 10q-105 -182 -105 -375q0 -32 27 -67.5t27 -62.5q0 -36 -27 -62t-27 -50q0 -27 27 -74t27 -74q0 -30 -39 -86q-30 -41 -59 -82q-9 -52 -28 -85q-75 -128 -428 -128q-442 0 -581 47q-37 13 -70 38q-56 43 -68 108
q0 8 -4 22q-9 10 -26 31q-68 82 -68 126q0 30 31 82.5t31 86.5q0 7 -25 41t-29 51q7 41 23 67q20 33 20 62q0 201 -105 384q-14 -10 -49 -10q-54 0 -91 48q-34 45 -34 100q0 49 45.5 91.5t95.5 42.5q55 0 93 -39t38 -94q0 -56 -18 -85q148 -218 217 -218q44 0 44 76
q0 185 -88 411q-130 11 -130 131q0 141 132 141q141 0 141 -159q0 -48 -37 -78q33 -104 84 -220q77 -172 121 -172q60 0 85 218q15 128 15 274v14q-72 35 -72 123q0 69 44 112.5t113 43.5q60 0 101.5 -45t41.5 -105q0 -87 -72 -129q2 -151 8 -224q10 -124 38 -220
q21 -71 46 -71h10q39 0 117 178q62 140 86 224q-42 32 -42 95q0 61 39.5 101t100.5 40q60 0 98 -31q42 -33 42 -91q0 -140 -131 -150l-1 -1q-86 -249 -86 -389q0 -97 44 -97q81 0 216 217q-27 32 -27 79q0 55 42.5 97.5t97.5 42.5t98 -42.5t43 -97.5zM1493 1302q0 52 -51 52
q-46 0 -46 -44q0 -52 53 -52q44 0 44 44zM1811 956q0 -4 -4 24q-5 36 -50 36q-46 0 -46 -42q0 -55 54 -55q46 0 46 37zM1091 1450q0 52 -55 52q-41 0 -41 -43q0 -53 53 -53q43 0 43 44zM587 1281q0 64 -44 64q-51 0 -51 -51q0 -45 39 -45h26q30 0 30 32zM1623 4l-87 94
l-86 -95l87 -94zM1590 211q0 12 -6 22q-45 77 -155 159q-190 142 -472 142q-8 0 -65 -7q-281 -34 -461 -267q-28 -36 -28 -49q0 -42 36 -42q22 0 78 48q66 57 87 73q52 41 94 62q123 61 333 61q208 0 385 -141q51 -47 113 -98q12 -5 23 -5q38 0 38 42zM282 970q0 46 -46 46
q-50 0 -50 -46q0 -51 43 -51q53 0 53 51zM1145 195l-149 155l-148 -155l150 -164zM1511 -217q0 13 -10 28q-61 91 -234 142q-139 41 -279 41q-298 0 -462 -147q-44 -39 -44 -64q0 -35 47 -35q5 0 15 11q37 39 104 65q120 47 265 47h167q201 0 321 -74q19 -14 37 -27
q27 -19 39 -19q34 0 34 32zM542 4l-86 94l-86 -95l86 -95z" />
  </g>

</svg>
