<?xml version="1.0" standalone="no"?>
<!DOCTYPE svg PUBLIC "-//W3C//DTD SVG 1.1//EN" "http://www.w3.org/Graphics/SVG/1.1/DTD/svg11.dtd" >
<svg viewBox="0 -442 2076 2048">
  <g transform="matrix(1 0 0 -1 0 1606)">
   <path fill="currentColor"
d="M2076 -381h-265q-2 41 -65 41q-21 0 -98 -10q-186 -24 -243 -24q-102 0 -186 40q-99 46 -129 132q-8 22 -12 38q-4 -16 -12 -38q-30 -86 -129 -132q-84 -40 -186 -40q-57 0 -243 24q-77 10 -98 10q-63 0 -65 -41h-265v61q0 82 77 149q105 91 308 91q45 0 133 -12.5
t133 -12.5q69 0 102 19q28 17 69 76q-75 15 -110 26q-65 21 -97 54v304q-165 119 -165 297q0 128 95 237q20 22 196 174q65 55 194 164q-101 49 -101 154q0 70 47 117t117 47t117 -47t47 -117q0 -105 -101 -154l194 -164q176 -152 196 -174q95 -109 95 -237
q0 -178 -165 -297v-304q-48 -49 -207 -80q41 -59 69 -76q33 -19 102 -19q45 0 133 12.5t133 12.5q203 0 308 -91q77 -67 77 -149v-61zM1170 1400q0 37 -27.5 63.5t-64.5 26.5t-64.5 -26.5t-27.5 -63.5q0 -36 28 -63t64 -27t64 27t28 63zM1255 725v69h-143v143h-70v-143h-144
v-69h144v-144h70v144h143zM1393 197v104l-58 -39zM1393 349v68q-191 53 -315 53t-315 -53v-68q152 52 272 52h86q120 0 272 -52zM1175 290l-97 65l-97 -65l97 -61zM1393 72v64q-107 37 -233 37h-164q-126 0 -233 -37v-64q121 34 231 34h168q110 0 231 -34zM821 262l-58 39
v-104z" />
  </g>

</svg>
