<?xml version="1.0" standalone="no"?>
<!DOCTYPE svg PUBLIC "-//W3C//DTD SVG 1.1//EN" "http://www.w3.org/Graphics/SVG/1.1/DTD/svg11.dtd" >
<svg viewBox="0 -442 2048 2048">
  <g transform="matrix(1 0 0 -1 0 1606)">
   <path fill="currentColor"
d="M1878 537q0 -63 -19.5 -186.5t-19.5 -186.5q0 -90 35 -196q-65 -116 -289 -182q-165 -49 -439 -75l-374 -30q-127 -14 -307 -75l-18 23q0 13 29 156q8 71 35 211q10 37 66 159q19 46 38 93q18 40 59 87l96 106q69 81 69 113q0 24 -22 44q-44 -13 -76 -31q-23 -4 -51 -4
q-24 0 -70.5 4t-70.5 4q-29 0 -39 -16q-28 -21 -56 -41q-34 -25 -63 -25q-28 0 -70 28.5t-65 28.5q-12 0 -25 10.5t-13 22.5q0 67 119 67q22 0 22 14q0 36 -43 36q-39 0 -85.5 -33.5t-51.5 -33.5q-29 0 -42 25q-50 32 -50 68q0 24 21 42q-28 31 -28 59q0 29 108 85
q78 41 140 64l178 58q106 34 171 72q49 37 153 104q48 15 143 49q34 20 107 49q2 99 87 147q47 26 174 53q114 23 146 52q155 -101 222 -298q7 -22 24 -65q131 -290 131 -541q0 -19 7 -57.5t7 -57.5zM1527 1446q-10 10 -22 21q-48 -40 -116 -40l1 -30q82 2 137 49z
M1680 1224l-10 28q-79 -15 -162 -71l17 -25q83 55 155 68zM1729 1089l-10 28q-28 -7 -52 -14l9 -29q18 5 53 15zM1711 1139l-11 29q-68 -5 -152 -48l13 -27q84 43 150 46zM1752 1026l-12 34q-29 6 -61 6q-24 0 -102 -21l7 -29q74 20 95 20q37 0 73 -10zM1771 969
q-3 11 -10 32q-15 2 -32 2q-57 0 -124 -37l14 -26q61 33 110 33q24 0 42 -4zM1780 928q-32 6 -68 6h-26v-30q56 0 88 -6zM1584 1376l-26 31q-58 -32 -203 -59q-131 -24 -205 -80l24 -33q61 45 154 67q83 18 165 36q-56 -52 -111 -71l-14 -16q-5 -21 -41 -49t-58 -28
q-30 0 -63 15l-16 -37q42 -18 79 -18q34 0 78.5 33t57.5 66q90 35 179 143zM1804 844q-3 13 -8 35q-42 13 -86 13q-16 0 -77 -7l4 -30q60 7 73 7q44 0 94 -18zM1816 770q-1 11 -4 32q-56 15 -104 15q-15 0 -54 -2l2 -30q93 5 160 -15zM1823 697q-1 19 -2 32q-58 19 -125 19
q-8 0 -31 -2l2 -30q20 2 29 2q70 0 127 -21zM1827 620q-3 20 -3 31q-86 17 -150 21l-2 -30q69 -4 155 -22zM1838 540q0 10 -3 29q-62 22 -142 28l-2 -30q86 -7 146 -30zM1837 493q-44 23 -93 23q-13 0 -43 -4l4 -30q30 4 39 4q48 0 90 -25q1 11 3 32zM1829 421
q-49 29 -131 30v-30q77 -1 126 -32q2 11 5 32zM1059 1135q-36 71 -99 101l-13 -27q54 -25 85 -88zM1821 369q-56 26 -124 31l-2 -30q68 -6 122 -32zM1813 317q-20 2 -34 2q-41 0 -102 -17l8 -28q54 15 95 15q9 0 29 -2zM1002 1099q0 38 -27 62.5t-66 24.5q3 0 -18 -10
q-8 0 -24 -5q-12 -6 -18 -24q-11 -27 -12 -28q-7 -10 -20 -29q18 2 48 -14.5t47 -16.5q21 0 48.5 18.5t41.5 21.5zM1807 270q-80 -18 -136 -41l12 -28q53 21 120 37q0 3 4 32zM1574 748q0 78 -45 161l-27 -15q42 -78 42 -146q0 -140 -63 -232q-32 -46 -141 -141
q-100 -87 -146 -169l27 -14q47 84 148 171q110 94 142 142q63 94 63 243zM1112 842l-3 30q-32 -3 -47 -3q-25 0 -61 11l-8 -29q40 -12 71 -12q16 0 48 3zM1800 139q-1 20 -1 25v6q-53 15 -118 17l-1 -29q66 -2 120 -19zM1629 327q-27 3 -49 3q-36 0 -89 -12l7 -29
q48 11 82 11q18 0 45 -3zM1284 919q0 26 -2 56l-40 -3q2 -30 2 -53q0 -48 -34 -141q-22 -60 -112 -111q-86 -49 -154 -49q-26 0 -76 13q20 -23 27 -47q30 -6 49 -6q82 0 177 56q100 59 127 132q36 99 36 153zM1805 82q-1 10 -3 31q-64 11 -117 14l-2 -30q56 -4 122 -15z
M1821 6q-3 11 -8 32q-70 16 -117 18l-2 -30q54 -3 127 -20zM1625 216l-2 30q-83 -5 -146 -24l9 -29q62 18 139 23zM1826 -33q-63 14 -110 37l-13 -27q43 -21 101 -35q15 16 22 25zM973 960l-9 29q-105 -40 -320 -104l7 -30q63 14 162 50q122 44 160 55zM1610 113v30h-13
q-60 0 -131 -17l7 -29q67 16 125 16h12zM1188 560l-10 28q-170 -65 -217 -65q-22 0 -48 16l-16 -26q34 -20 64 -20q51 0 227 67zM1155 495l-14 26q-105 -55 -166 -55q-39 0 -77 20l-13 -27q46 -23 90 -23q67 0 180 59zM883 706l-10 28q-50 -17 -92 -17q-150 0 -233 -86h7
q22 0 36 -1q49 47 139 55q125 11 153 21zM604 734q-5 33 -22 75l-28 -11q15 -38 20 -68zM1451 26q-95 14 -163 14q-103 0 -193 -31l10 -28q86 29 183 29q64 0 159 -14zM569 695q-2 65 -65 105l-17 -25q50 -32 52 -81zM477 875l-13 27q-120 -55 -189 -119l20 -23
q69 63 182 115zM1440 -72q-49 7 -81 7q-45 0 -121 -17q-87 -19 -120 -22l3 -29q31 3 119 22q74 16 119 16q29 0 77 -7zM485 714q0 25 -50 25t-50 -43q0 -37 37 -37q23 0 43 16t20 39zM279 853q0 7 -13 21q-14 0 -60 -14q-49 -15 -54.5 -24t-5.5 -23q0 -19 18 -19q36 0 70 13
q45 17 45 46zM951 1121q0 -10 -13.5 -20t-23.5 -10q-40 0 -40 22q0 12 14 25.5t26 13.5q10 0 23.5 -10.5t13.5 -20.5z" />
  </g>

</svg>
