<?xml version="1.0" standalone="no"?>
<!DOCTYPE svg PUBLIC "-//W3C//DTD SVG 1.1//EN" "http://www.w3.org/Graphics/SVG/1.1/DTD/svg11.dtd" >
<svg viewBox="0 -442 2048 2048">
  <g transform="matrix(1 0 0 -1 0 1606)">
   <path fill="currentColor"
d="M1314 619q0 -114 -79.5 -194.5t-193.5 -80.5q-104 0 -192 70q-78 64 -124 166h-4v-26q0 -491 472 -506l9 -48h-990l9 48q472 15 472 506v26h-4q-46 -102 -124 -166q-88 -70 -192 -70q-114 0 -193.5 80.5t-79.5 194.5q0 121 89 236q46 61 181 184q144 131 210 221
q95 127 127 276q32 -149 127 -276q66 -90 210 -221q135 -123 181 -184q89 -115 89 -236z" />
  </g>

</svg>
