<?xml version="1.0" standalone="no"?>
<!DOCTYPE svg PUBLIC "-//W3C//DTD SVG 1.1//EN" "http://www.w3.org/Graphics/SVG/1.1/DTD/svg11.dtd" >
<svg viewBox="0 -442 2048 2048">
  <g transform="matrix(1 0 0 -1 0 1606)">
   <path fill="currentColor"
d="M1638 691q0 -149 -101 -250t-250 -101q-129 0 -243 90q-105 82 -158 208h-4v-52q0 -246 161 -403q65 -63 161 -96q51 -17 184 -43l11 -44h-1060l12 44q132 26 183 43q96 33 161 96q161 157 161 403v52h-4q-53 -126 -158 -208q-114 -90 -243 -90q-149 0 -250 101t-101 250
q0 129 82 232q88 110 214 110q88 0 205 -63l5 4q-85 130 -85 224q0 145 101 241.5t247 96.5t247 -96.5t101 -241.5q0 -94 -85 -224l5 -4q117 63 205 63q126 0 214 -110q82 -103 82 -232z" />
  </g>

</svg>
