<?xml version="1.0" standalone="no"?>
<!DOCTYPE svg PUBLIC "-//W3C//DTD SVG 1.1//EN" "http://www.w3.org/Graphics/SVG/1.1/DTD/svg11.dtd" >
<svg viewBox="0 -442 2048 2048">
  <g transform="matrix(1 0 0 -1 0 1606)">
   <path fill="currentColor"
d="M1460 1216q0 -135 -88 -293q-55 -99 -178 -254q-168 -212 -243 -330q-123 -192 -171 -370q-48 178 -171 370q-75 118 -243 330q-123 155 -178 254q-88 158 -88 293q0 138 95 229t234 91q128 0 228 -95q94 -89 123 -219q29 130 123 219q100 95 228 95q139 0 234 -91
t95 -229z" />
  </g>

</svg>
