<?xml version="1.0" standalone="no"?>
<!DOCTYPE svg PUBLIC "-//W3C//DTD SVG 1.1//EN" "http://www.w3.org/Graphics/SVG/1.1/DTD/svg11.dtd" >
<svg viewBox="0 -442 2048 2048">
  <g transform="matrix(1 0 0 -1 0 1606)">
   <path fill="currentColor"
d="M1638 691q0 -149 -101 -250t-250 -101q-129 0 -243 90q-105 82 -158 208h-4v-52q0 -246 161 -403q65 -63 161 -96q51 -17 184 -43l11 -44h-1060l12 44q132 26 183 43q96 33 161 96q161 157 161 403v52h-4q-53 -126 -158 -208q-114 -90 -243 -90q-149 0 -250 101t-101 250
q0 129 82 232q88 110 214 110q88 0 205 -63l5 4q-85 130 -85 224q0 145 101 241.5t247 96.5t247 -96.5t101 -241.5q0 -94 -85 -224l5 -4q117 63 205 63q126 0 214 -110q82 -103 82 -232zM1556 691q0 102 -64.5 181t-149.5 79q-44 0 -118.5 -34.5t-94.5 -34.5q-13 0 -22 7
q-71 56 -71 78q0 11 7 21q92 141 92 210q0 110 -76.5 183t-189.5 73t-189.5 -73t-76.5 -183q0 -61 49 -139.5t49 -97.5q0 -16 -15 -28q-65 -52 -84 -52q-9 0 -16 4q-122 66 -190 66q-85 0 -149.5 -79t-64.5 -181q0 -115 77 -192t192 -77q113 0 195 77q45 42 107 144
q46 77 72 77h16q15 0 28 -12q13 12 28 12h16q26 0 72 -77q62 -102 107 -144q82 -77 195 -77q115 0 192 77t77 192zM1036 82q-104 77 -167 205q-63 -128 -167 -205h334z" />
  </g>

</svg>
