<?xml version="1.0" standalone="no"?>
<!DOCTYPE svg PUBLIC "-//W3C//DTD SVG 1.1//EN" "http://www.w3.org/Graphics/SVG/1.1/DTD/svg11.dtd" >
<svg viewBox="0 -442 2048 2048">
  <g transform="matrix(1 0 0 -1 0 1606)">
   <path fill="currentColor"
d="M1433 623q0 -15 -14 -15l-127.5 59.5t-170.5 59.5h-316v-695q0 -43 59.5 -170.5l59.5 -127.5q0 -14 -15 -14q-9 0 -77.5 85t-96.5 85t-96.5 -85t-77.5 -85q-15 0 -15 14l59.5 127.5t59.5 170.5v695h-316q-43 0 -170.5 -59.5l-127.5 -59.5q-14 0 -14 15q0 9 85 77.5
t85 96.5t-85 96.5t-85 77.5q0 15 14 15l127.5 -59.5t170.5 -59.5h316v309q0 43 -59.5 170.5l-59.5 127.5q0 14 15 14q9 0 77.5 -85t96.5 -85t96.5 85t77.5 85q15 0 15 -14l-59.5 -127.5t-59.5 -170.5v-309h316q43 0 170.5 59.5l127.5 59.5q14 0 14 -15q0 -9 -85 -77.5
t-85 -96.5t85 -96.5t85 -77.5z" />
  </g>

</svg>
