<?xml version="1.0" standalone="no"?>
<!DOCTYPE svg PUBLIC "-//W3C//DTD SVG 1.1//EN" "http://www.w3.org/Graphics/SVG/1.1/DTD/svg11.dtd" >
<svg viewBox="0 -442 2048 2048">
  <g transform="matrix(1 0 0 -1 0 1606)">
   <path fill="currentColor"
d="M1531 798q0 -28 -35 -96t-35 -78q0 -15 -14 -15q-3 0 -128 59.5t-170 59.5h-288v-696q0 -45 59.5 -170t59.5 -128q0 -14 -15 -14q-10 0 -78 -35t-96 -35t-96 35t-78 35q-15 0 -15 14q0 3 59.5 128t59.5 170v696h-289q-45 0 -170 -59.5t-128 -59.5q-14 0 -14 15
q0 10 -35 78t-35 96t35 96t35 78q0 15 14 15q3 0 128 -59.5t170 -59.5h289v308q0 45 -59.5 170t-59.5 128q0 14 15 14q10 0 78 35t96 35t96 -35t78 -35q15 0 15 -14q0 -3 -59.5 -128t-59.5 -170v-308h288q45 0 170 59.5t128 59.5q14 0 14 -15q0 -10 35 -78t35 -96zM1466 798
q0 7 -49 105q-207 -100 -268 -100h-288q-26 0 -45.5 19.5t-19.5 45.5v308q0 61 100 268q-98 49 -105 49q-8 0 -106 -49q101 -209 101 -268v-308q0 -26 -19.5 -45.5t-45.5 -19.5h-289q-61 0 -268 100q-49 -98 -49 -105q0 -8 49 -106q209 101 268 101h289q26 0 45.5 -19.5
t19.5 -45.5v-696q0 -59 -101 -268q98 -49 106 -49q7 0 105 49q-100 207 -100 268v696q0 26 19.5 45.5t45.5 19.5h288q59 0 268 -101q49 98 49 106z" />
  </g>

</svg>
