<?xml version="1.0" standalone="no"?>
<!DOCTYPE svg PUBLIC "-//W3C//DTD SVG 1.1//EN" "http://www.w3.org/Graphics/SVG/1.1/DTD/svg11.dtd" >
<svg viewBox="0 -442 2048 2048">
  <g transform="matrix(1 0 0 -1 0 1606)">
   <path fill="currentColor"
d="M1726 1248q0 -21 -13 -42l-227 -361l-407 34q-62 5 -62 34q0 21 31 43q24 14 48 29l-99 204l-258 -423l-435 263l245 403q65 107 187 102l596 -25q119 -5 162 -92l82 -166q83 46 94 46q19 0 37.5 -15t18.5 -34zM2028 473q0 -37 -46 -126l-269 -520q-47 -91 -143 -91h-186
v-85q0 -45 -45 -45q-22 0 -47 37l-235 354l208 355q23 39 52 39q38 0 38 -28v-71h221l-264 422l432 271l247 -393q37 -59 37 -119zM1005 -236h-468q-130 0 -206 130l-286 490q-25 43 -25 104q0 47 20 80l97 158l-73 45q-19 13 -19 42q0 43 61 44l421 6l196 -360
q15 -28 15 -48q0 -13 -15.5 -25t-29.5 -12q-9 4 -74 40l-115 -182h501v-512zM1692 1245q0 16 -17 16t-114 -50l-98 195q-34 67 -124 71l-496 22q54 -28 84 -91l211 -436q-39 -20 -83 -52q26 -13 32 -13l379 -29q226 356 226 367zM1991 471q0 52 -38 114l-219 355l-377 -235
l256 -413h177q74 0 137.5 53t63.5 126zM981 1224l-79 158q-56 113 -184 113q-93 0 -156 -103l-214 -352l380 -227zM1923 302q-68 -43 -128 -43l-477 -1q0 10 1 30.5t1 30.5q0 38 -8 39q-6 -5 -16 -17l-197 -342q71 -110 216 -326q23 -32 25 -32q12 0 12 16v117h224
q68 0 109 78zM699 463q-6 12 -189 366l-417 -4q-11 0 -11 -12q0 -14 11 -20l89 -52l-114 -196q-15 -26 -15 -64q0 -35 24 -76l253 -437q0 100 26 141l248 394q36 -17 89 -46zM969 -209v446h-491l-92 -147q-23 -37 -23 -109q0 -190 191 -190h415z" />
  </g>

</svg>
