<?xml version="1.0" standalone="no"?>
<!DOCTYPE svg PUBLIC "-//W3C//DTD SVG 1.1//EN" "http://www.w3.org/Graphics/SVG/1.1/DTD/svg11.dtd" >
<svg viewBox="0 -442 2048 2048">
  <g transform="matrix(1 0 0 -1 0 1606)">
   <path fill="currentColor"
d="M1520 569l-445 257l221 13l-273 473l-264 -459l-101 58l365 633l374 -648l123 187v-514zM2032 -201l-815 -1l100 -198l-445 257l445 257l-100 -199h613l-299 517l101 58zM1203 303q0 -90 -61 -142q-57 -50 -148 -50q-218 0 -218 250q0 308 289 308q42 0 93 -8v-96h-6
q-37 17 -88 17q-143 0 -162 -150q72 44 133 44q168 0 168 -173zM748 -202l-732 1l407 705l-221 13l445 257v-514l-123 187l-306 -533h530v-116zM1076 296q0 96 -102 96q-34 0 -71 -14v-19q-1 -13 -1 -19q0 -148 92 -148q82 0 82 104z" />
  </g>

</svg>
