<?xml version="1.0" standalone="no"?>
<!DOCTYPE svg PUBLIC "-//W3C//DTD SVG 1.1//EN" "http://www.w3.org/Graphics/SVG/1.1/DTD/svg11.dtd" >
<svg viewBox="0 -442 2048 2048">
  <g transform="matrix(1 0 0 -1 0 1606)">
   <path fill="currentColor"
d="M1692 1245q0 -11 -226 -367l-379 29q-6 0 -32 13q2 5 83 52l-211 436q-30 63 -84 91l496 -22q90 -4 124 -71l98 -195q97 50 114 50t17 -16zM1991 471q0 -73 -63.5 -126t-137.5 -53h-177l-256 413l377 235l219 -355q38 -62 38 -114zM981 1224l-253 -411l-380 227l214 352
q63 103 156 103q128 0 184 -113zM1923 302l-238 -450q-41 -78 -109 -78h-224v-117q0 -16 -12 -16q-2 0 -25 32q-18 25 -216 326l197 342q3 4 16 17q8 -1 8 -39q0 -10 -1 -30.5t-1 -30.5l477 1q60 0 128 43zM699 463l-6 -6q-53 29 -89 46l-248 -394q-26 -41 -26 -141
l-253 437q-24 41 -24 76q0 38 15 64l114 196l-89 52q-11 6 -11 20q0 12 11 12l417 4q65 -121 189 -366zM969 -209h-415q-191 0 -191 190q0 72 23 109l92 147h491v-446z" />
  </g>

</svg>
