<?xml version="1.0" standalone="no"?>
<!DOCTYPE svg PUBLIC "-//W3C//DTD SVG 1.1//EN" "http://www.w3.org/Graphics/SVG/1.1/DTD/svg11.dtd" >
<svg viewBox="0 -442 2048 2048">
  <g transform="matrix(1 0 0 -1 0 1606)">
   <path fill="currentColor"
d="M2048 582q0 -426 -299 -725t-725 -299q-427 0 -725.5 298.5t-298.5 725.5t298.5 725.5t725.5 298.5q426 0 725 -299t299 -725zM1627 1177q0 15 -15 15q-16 0 -103 -45l-88 175q-30 60 -112 64l-446 20q49 -26 76 -82l189 -392q-35 -18 -74 -47q11 -6 28 -12l342 -26
q203 319 203 330zM1896 481q0 47 -34 102l-197 320l-340 -212l231 -371h159q67 0 124 47.5t57 113.5zM987 1159l-71 142q-50 101 -166 101q-84 0 -140 -92l-193 -317l342 -204zM1835 329q-61 -39 -115 -39l-430 -1q0 9 1 27.5t1 27.5q0 34 -7 35q-5 -5 -14 -15l-178 -308
q64 -99 195 -293q10 -15 22 -29q11 0 11 14v106h202q61 0 98 70zM733 474q-4 9 -170 329l-375 -4q-10 0 -10 -10q0 -12 10 -18l80 -47l-103 -177q-13 -22 -13 -57q0 -30 22 -68l227 -394q0 89 24 127l223 355q22 -11 80 -42zM976 -131v401h-442l-82 -132q-21 -34 -21 -98
q0 -171 172 -171h373z" />
  </g>

</svg>
