<?xml version="1.0" standalone="no"?>
<!DOCTYPE svg PUBLIC "-//W3C//DTD SVG 1.1//EN" "http://www.w3.org/Graphics/SVG/1.1/DTD/svg11.dtd" >
<svg viewBox="0 -442 2048 2048">
  <g transform="matrix(1 0 0 -1 0 1606)">
   <path fill="currentColor"
d="M2048 582q0 -426 -299 -725t-725 -299q-427 0 -725.5 298.5t-298.5 725.5t298.5 725.5t725.5 298.5q426 0 725 -299t299 -725zM1998 582q0 406 -284 690t-690 284t-690 -284t-284 -690t284 -690t690 -284t690 284t284 690zM1627 1177q0 -11 -203 -330l-342 26
q-4 0 -28 12q2 5 74 47l-189 392q-27 56 -76 82l446 -20q82 -4 112 -64l88 -175q87 45 103 45q15 0 15 -15zM1896 481q0 -66 -57 -113.5t-124 -47.5h-159l-231 371l340 212l197 -320q34 -55 34 -102zM987 1159l-228 -370l-342 204l193 317q56 92 140 92q116 0 166 -101z
M1835 329l-214 -405q-37 -70 -98 -70h-202v-106q0 -14 -11 -14q-5 5 -22 29q-29 41 -195 293l178 308q2 4 14 15q7 -1 7 -35q0 -9 -1 -27.5t-1 -27.5l430 1q53 0 115 39zM733 474l-5 -6q-26 14 -80 42l-223 -355q-24 -38 -24 -127l-227 394q-22 38 -22 68q0 35 13 57
l103 177l-80 47q-10 6 -10 18q0 10 10 10l375 4q59 -109 170 -329zM976 -131h-373q-172 0 -172 171q0 64 21 98l82 132h442v-401z" />
  </g>

</svg>
