<?xml version="1.0" standalone="no"?>
<!DOCTYPE svg PUBLIC "-//W3C//DTD SVG 1.1//EN" "http://www.w3.org/Graphics/SVG/1.1/DTD/svg11.dtd" >
<svg viewBox="0 -442 2048 2048">
  <g transform="matrix(1 0 0 -1 0 1606)">
   <path fill="currentColor"
d="M2048 582q0 -426 -299 -725t-725 -299t-725 299t-299 725t299 725t725 299t725 -299t299 -725zM1948 582q0 385 -269.5 654.5t-654.5 269.5t-654.5 -269.5t-269.5 -654.5t269.5 -654.5t654.5 -269.5t654.5 269.5t269.5 654.5zM1823 582q0 -160 -92 -279
q-100 -130 -256 -130q-237 0 -412 231q-28 37 -54 72q-186 -303 -442 -303q-153 0 -252 131q-90 120 -90 278q0 159 93 278q100 129 255 129q117 0 231 -68q105 -61 181 -162q27 -35 54 -72q190 302 442 302q154 0 252 -130q90 -119 90 -277zM1716 582q0 114 -60 203
q-69 102 -177 102q-113 0 -225 -84q-96 -72 -164 -183q106 -137 171 -199q121 -114 223 -114t170 88q62 81 62 187zM958 542q-240 314 -394 314q-103 0 -170 -88q-62 -81 -62 -188q0 -112 61 -202q69 -102 176 -102q113 0 225 84q96 72 164 182z" />
  </g>

</svg>
