<?xml version="1.0" standalone="no"?>
<!DOCTYPE svg PUBLIC "-//W3C//DTD SVG 1.1//EN" "http://www.w3.org/Graphics/SVG/1.1/DTD/svg11.dtd" >
<svg viewBox="0 -442 2048 2048">
  <g transform="matrix(1 0 0 -1 0 1606)">
   <path fill="currentColor"
d="M1761 -52l-320 -115l-204 550h-591l-106 921v18q0 75 53.5 128.5t128.5 53.5t128.5 -53.5t53.5 -128.5q0 -72 -50 -125t-122 -57l33 -287h351l20 -172h-351l15 -126h557l186 -502l160 57zM1352 -70q-76 -130 -207 -206q-134 -79 -290 -79q-238 0 -406.5 168.5
t-168.5 406.5q0 154 77 286q74 129 201 206l23 -202q-125 -118 -125 -290q0 -165 117 -282t282 -117q159 0 273.5 108.5t124.5 265.5z" />
  </g>

</svg>
