<?xml version="1.0" standalone="no"?>
<!DOCTYPE svg PUBLIC "-//W3C//DTD SVG 1.1//EN" "http://www.w3.org/Graphics/SVG/1.1/DTD/svg11.dtd" >
<svg viewBox="0 -442 2048 2048">
  <g transform="matrix(1 0 0 -1 0 1606)">
   <path fill="currentColor"
d="M1976 23l-416 -314h-1488v1497l529 249h1375v-1432zM1838 1395h-1223l-379 -178h1306zM1916 52v1320l-336 -202v-1371zM1520 -231v1388h-1388v-1388h1388zM1389 874q0 -63 -45 -108t-108 -45t-108 45t-45 108q0 61 45.5 107t107.5 46t107.5 -45.5t45.5 -107.5zM1389 464
q0 -63 -45 -108t-108 -45t-108 45t-45 108q0 61 45.5 107t107.5 46t107.5 -45.5t45.5 -107.5zM569 874q0 -63 -45 -108t-108 -45t-108 45t-45 108q0 61 45.5 107t107.5 46t107.5 -45.5t45.5 -107.5zM1389 54q0 -63 -45 -108t-108 -45t-108 45t-45 108q0 61 45.5 107
t107.5 46t107.5 -45.5t45.5 -107.5zM569 464q0 -63 -45 -108t-108 -45t-108 45t-45 108q0 61 45.5 107t107.5 46t107.5 -45.5t45.5 -107.5zM569 54q0 -63 -45 -108t-108 -45t-108 45t-45 108q0 61 45.5 107t107.5 46t107.5 -45.5t45.5 -107.5z" />
  </g>

</svg>
