<?xml version="1.0" standalone="no"?>
<!DOCTYPE svg PUBLIC "-//W3C//DTD SVG 1.1//EN" "http://www.w3.org/Graphics/SVG/1.1/DTD/svg11.dtd" >
<svg viewBox="0 -442 2246 2048">
  <g transform="matrix(1 0 0 -1 0 1606)">
   <path fill="currentColor"
d="M2246 671q0 -164 -92 -381q-20 122 -74 249q-65 151 -142 211l-83 -10l-435 -447l418 -407q31 -30 31 -71q0 -56 -51 -104.5t-107 -48.5q-40 0 -68 29l-404 416l-403 -414q-30 -31 -71 -31q-56 0 -104 51t-48 107q0 40 29 68l416 404l-434 446l-232 -232q-27 -27 -45 -27
t-42 24l-197 197q-28 28 -28 45q0 18 27 45l219 219q-34 38 -34 77q0 51 49 98t100 47q41 0 79 -28l219 218q28 28 44 28q18 0 46 -28l197 -197q24 -24 24 -42t-27 -45l-233 -232l449 -436l450 438l9 82l-139 140l-66 -26l-101 101l332 331l100 -100l-25 -67
q210 -177 304 -303q143 -192 143 -394zM1815 779l-87 87l-1047 -1019q-12 -12 -12 -28q0 -32 31.5 -66.5t63.5 -34.5q18 0 32 14zM1813 -187q0 18 -14 32l-419 407l-102 -105l405 -417q12 -12 29 -12q32 0 66.5 31.5t34.5 63.5zM1198 430l-446 434l-87 -87l433 -445z" />
  </g>

</svg>
