<?xml version="1.0" standalone="no"?>
<!DOCTYPE svg PUBLIC "-//W3C//DTD SVG 1.1//EN" "http://www.w3.org/Graphics/SVG/1.1/DTD/svg11.dtd" >
<svg viewBox="0 -442 2048 2048">
  <g transform="matrix(1 0 0 -1 0 1606)">
   <path fill="currentColor"
d="M1780 489l-155 -468l-71 131q-298 -385 -574 -396v-148h-100v148q-276 11 -574 396l-71 -131l-155 468l441 -243l-160 -44q86 -100 237 -176q155 -79 282 -83v1119h-359v100h221q-54 67 -54 152q0 100 71 171t171 71t171 -71t71 -171q0 -85 -54 -152h221v-100h-359v-1119
q127 4 282 83q151 76 237 176l-160 44zM1082 1314q0 63 -44.5 107.5t-107.5 44.5t-107.5 -44.5t-44.5 -107.5t44.5 -107.5t107.5 -44.5t107.5 44.5t44.5 107.5z" />
  </g>

</svg>
