<?xml version="1.0" standalone="no"?>
<!DOCTYPE svg PUBLIC "-//W3C//DTD SVG 1.1//EN" "http://www.w3.org/Graphics/SVG/1.1/DTD/svg11.dtd" >
<svg viewBox="0 -442 2048 2048">
  <g transform="matrix(1 0 0 -1 0 1606)">
   <path fill="currentColor"
d="M2022 263q0 -67 -57 -157q-50 -79 -119 -149q-93 -95 -154 -95q-42 0 -99 44q-9 7 -84 76q-39 34 -115 102q-102 -85 -102 -141q0 -52 39 -109q-153 40 -153 142q0 104 131 212l-285 280l-285 -280q131 -108 131 -212q0 -101 -153 -142q39 57 39 109q0 56 -103 141
q-38 -34 -113 -102t-85 -76q-57 -44 -99 -44q-61 0 -154 95q-69 70 -119 149q-57 90 -57 157q0 123 86 197q82 69 207 69q231 0 398 -188l218 215l-728 716q124 -3 251 -96q35 -25 114 -98q148 -136 451 -434q272 268 453 434q36 34 113 98q127 93 252 96l-728 -716
l217 -215q167 188 399 188q125 0 207 -69q86 -74 86 -197zM1910 254q0 79 -64 124q-56 39 -139 39q-157 0 -313 -136q257 -281 296 -281q18 0 73 40q46 33 70 56q77 75 77 158zM654 281q-156 136 -313 136q-83 0 -139 -39q-65 -45 -65 -124q0 -83 78 -158q99 -96 142 -96
q40 0 297 281z" />
  </g>

</svg>
