<?xml version="1.0" standalone="no"?>
<!DOCTYPE svg PUBLIC "-//W3C//DTD SVG 1.1//EN" "http://www.w3.org/Graphics/SVG/1.1/DTD/svg11.dtd" >
<svg viewBox="0 -442 2048 2048">
  <g transform="matrix(1 0 0 -1 0 1606)">
   <path fill="currentColor"
d="M1200 972q0 -57 -62 -57q-72 0 -152 90l-110 -184q154 -166 154 -263q0 -171 -250 -171q-67 0 -159 13l-123 -204q103 -121 103 -200q0 -112 -178 -112q-53 0 -110 7l-126 -208l-57 33l103 188q-153 30 -153 68q0 9 4 16q10 3 27 3q-1 0 160 -18l105 193
q-90 104 -106 127q-65 88 -65 144q0 105 175 105q58 0 193 -17l142 261q-176 201 -176 306q0 86 72 135q64 44 153 44q98 0 193 -42l99 180q25 45 73 45q69 0 69 -75q0 -25 -12 -45l-111 -183q125 -107 125 -179zM1151 1009q0 26 -26 26q-19 0 -19 -17q0 -22 30 -22
q15 0 15 13zM881 1089q-34 10 -76 10q-84 0 -84 -58q0 -45 66 -123zM857 572q0 41 -61 118l-107 -178q25 -2 55 -2q113 0 113 62zM513 416q-78 12 -109 12q-54 0 -54 -32q0 -33 83 -126zM462 25q0 27 -27 67l-75 -124q102 2 102 57z" />
  </g>

</svg>
