<?xml version="1.0" standalone="no"?>
<!DOCTYPE svg PUBLIC "-//W3C//DTD SVG 1.1//EN" "http://www.w3.org/Graphics/SVG/1.1/DTD/svg11.dtd" >
<svg viewBox="0 -442 2048 2048">
  <g transform="matrix(1 0 0 -1 0 1606)">
   <path fill="currentColor"
d="M1645 955q0 -182 -125 -295q-121 -108 -305 -108q-199 0 -315 127q-112 123 -112 324q0 70 16 139q-163 -68 -335 -258q-145 -161 -248 -349q-7 24 -58.5 63t-73.5 37q187 339 402 553q294 293 590 293q237 0 397 -143q167 -149 167 -383zM1816 -200h-116l-127 514h-288
v-514h-112v514h-288l-127 -514h-116l145 583l54 43h776l54 -43zM205 519q0 -9 -10 -9q-23 0 -68.5 36.5t-45.5 58.5q0 10 9 10q21 0 68 -38t47 -58z" />
  </g>

</svg>
