<?xml version="1.0" standalone="no"?>
<!DOCTYPE svg PUBLIC "-//W3C//DTD SVG 1.1//EN" "http://www.w3.org/Graphics/SVG/1.1/DTD/svg11.dtd" >
<svg viewBox="0 -442 2048 2048">
  <g transform="matrix(1 0 0 -1 0 1606)">
   <path fill="currentColor"
d="M1089 839q0 -107 -73 -231q-68 -110 -137 -219q-73 -137 -73 -273q0 -176 41 -402l-28 -6l-142 300q-95 197 -182 259q-79 42 -226 145q-161 147 -189 342q5 3 13 3q57 0 189 -99q12 30 32 30q57 0 153 -99q106 -110 136 -120q4 8 4 21q0 39 -24 100q-43 109 -120 162
q-136 93 -186 151q-83 95 -83 219q0 150 75 248q82 108 228 108q141 0 231 -122q82 -111 82 -257q0 -103 -42 -185q-23 -44 -79 -110q-42 -50 -42 -75q0 -60 70 -134q101 77 160 178q30 57 59 113q42 63 103 63q21 0 39 -9q11 -50 11 -101zM734 1073q0 110 -64 210
q-72 114 -175 114q-102 0 -163 -88q-53 -77 -53 -184q0 -117 75 -155q25 26 45 26q15 0 65 -42q23 33 59 33q46 0 49 -44q22 15 37 15q9 0 29.5 -16t45.5 -17q50 66 50 148z" />
  </g>

</svg>
