<?xml version="1.0" standalone="no"?>
<!DOCTYPE svg PUBLIC "-//W3C//DTD SVG 1.1//EN" "http://www.w3.org/Graphics/SVG/1.1/DTD/svg11.dtd" >
<svg viewBox="0 -442 2048 2048">
  <g transform="matrix(1 0 0 -1 0 1606)">
   <path fill="currentColor"
d="M1800 323q-24 -77 -66 -157h-236q-56 -74 -130 -130v-236q-80 -42 -157 -66l-167 168q-45 -6 -92 -6t-92 6l-167 -168q-77 24 -157 66v236q-74 56 -130 130h-236q-42 80 -66 157l168 167q-6 45 -6 92t6 92l-168 167q24 77 66 157h236q56 74 130 130v236q80 42 157 66
l167 -168q45 6 92 6t92 -6l167 168q77 -24 157 -66v-236q74 -56 130 -130h236q42 -80 66 -157l-168 -167q6 -45 6 -92t-6 -92zM1518 582q0 234 -166 400t-400 166t-400 -166t-166 -400t166 -400t400 -166t400 166t166 400zM1478 582q0 -218 -154 -372t-372 -154t-372 154
t-154 372t154 372t372 154t372 -154t154 -372zM1151 582q0 82 -58.5 140.5t-140.5 58.5t-140.5 -58.5t-58.5 -140.5t58.5 -140.5t140.5 -58.5t140.5 58.5t58.5 140.5z" />
  </g>

</svg>
