<?xml version="1.0" standalone="no"?>
<!DOCTYPE svg PUBLIC "-//W3C//DTD SVG 1.1//EN" "http://www.w3.org/Graphics/SVG/1.1/DTD/svg11.dtd" >
<svg viewBox="0 -442 2202 2048">
  <g transform="matrix(1 0 0 -1 0 1606)">
   <path fill="currentColor"
d="M1235 1342q0 -48 -33 -81t-81 -33t-81 33t-33 81t33 81t81 33t81 -33t33 -81zM2202 1226q-83 -167 -289 -258q-179 -80 -387 -80q-91 0 -170 16q44 -68 44 -152q0 -103 -64.5 -179.5t-163.5 -94.5v-831q0 -49 -51 -49t-51 49v831q-99 18 -163.5 94.5t-64.5 179.5
q0 84 44 152q-79 -16 -170 -16q-208 0 -387 80q-206 91 -289 258q66 -12 131 -12q125 0 285 49q61 20 121 41q74 23 124 23q115 0 156 -69q18 -32 36 -148q15 -98 59 -135q52 39 118 51v181q24 -9 51 -9t51 9v-181q66 -12 118 -51q44 37 59 135q18 116 36 148q41 69 156 69
q50 0 124 -23q60 -21 121 -41q160 -49 285 -49q65 0 131 12zM1165 1342q0 84 -54 84q-31 0 -52.5 -26t-21.5 -58q0 -74 74 -74q54 0 54 74zM1310 752q0 65 -38.5 115t-99.5 67v-364q61 17 99.5 67t38.5 115zM1070 570v364q-61 -17 -99.5 -67t-38.5 -115t38.5 -115t99.5 -67z
" />
  </g>

</svg>
