<?xml version="1.0" standalone="no"?>
<!DOCTYPE svg PUBLIC "-//W3C//DTD SVG 1.1//EN" "http://www.w3.org/Graphics/SVG/1.1/DTD/svg11.dtd" >
<svg viewBox="0 -442 2048 2048">
  <g transform="matrix(1 0 0 -1 0 1606)">
   <path fill="currentColor"
d="M1762 214q0 -209 -311 -209q-90 0 -197 22q-123 -376 -324 -376q-197 0 -320 376q-107 -24 -202 -24q-307 0 -307 211q0 155 185 368q-186 208 -186 363q0 213 302 213q93 0 204 -25q130 380 324 380q201 0 324 -380q113 25 206 25q124 0 202 -42q100 -54 100 -167
q0 -158 -187 -367q187 -210 187 -368zM1685 916q0 191 -284 191q-63 0 -135 -11q37 -123 55 -287q135 -105 220 -190q144 164 144 297zM1210 1126q-113 301 -280 301q-164 0 -279 -301q133 -29 276 -97q155 70 283 97zM1277 835q-9 69 -52 253q-98 -23 -250 -78
q149 -76 154 -79q76 -42 148 -96zM1515 582q-64 68 -186 171q4 -56 4 -156v-37q0 -93 -8 -153q67 55 190 175zM1690 250q0 123 -145 295q-89 -90 -224 -194q-18 -159 -55 -283q75 -12 137 -12q287 0 287 194zM882 1006q-127 56 -246 79q-26 -86 -52 -254q97 82 220 138
q26 12 78 37zM1295 582q0 107 -11 205q-56 39 -171 112q-81 47 -183 89q-167 -63 -350 -201q-14 -119 -14 -205q0 -85 14 -209q185 -128 350 -201q144 54 354 205q11 92 11 205zM1280 325q-112 -72 -147 -92q-84 -50 -154 -79q159 -63 246 -78q33 113 55 249zM599 1092
q-76 13 -142 13q-115 0 -188 -39q-95 -50 -95 -155q0 -130 146 -299q98 105 223 193q15 148 56 287zM539 757q-112 -86 -193 -179q79 -85 190 -171q-8 111 -8 175q0 87 11 175zM886 154q-204 99 -302 175q25 -169 56 -253q111 19 246 78zM1210 38q-133 28 -276 93
q-162 -69 -283 -93q118 -305 279 -305q169 0 280 305zM599 68q-40 129 -56 283q-106 78 -227 194q-141 -170 -141 -299q0 -190 286 -190q62 0 138 12zM1084 580q0 -61 -46 -103.5t-107 -42.5t-107 42.5t-46 103.5t46 103.5t107 42.5t107 -42.5t46 -103.5zM1047 640
q0 25 -41 48q-34 19 -63 22q40 -39 48 -81q2 -1 9 -1q47 0 47 12zM1068 580q0 23 -8 44q-34 -12 -64 -12q9 -22 9 -56q30 0 62 13q1 9 1 11z" />
  </g>

</svg>
