<?xml version="1.0" standalone="no"?>
<!DOCTYPE svg PUBLIC "-//W3C//DTD SVG 1.1//EN" "http://www.w3.org/Graphics/SVG/1.1/DTD/svg11.dtd" >
<svg viewBox="0 -442 2048 2048">
  <g transform="matrix(1 0 0 -1 0 1606)">
   <path fill="currentColor"
d="M1604 576q0 -115 -86 -197.5t-202 -82.5q-94 0 -188 103q75 36 75 77q0 27 -43 27q-81 0 -117 -105q38 0 64 -26t26 -64t-26 -64t-64 -26h-18q7 -90 40 -90q17 0 17 31q0 16 -5 36q22 29 56 29q62 0 103.5 -47.5t41.5 -110.5q0 -71 -46 -115t-117 -44q-92 0 -156 66
q-6 -54 -59 -136q-58 -88 -68 -133q-10 45 -68 133q-53 82 -59 136q-64 -66 -156 -66q-71 0 -117 44t-46 115q0 63 41.5 110.5t103.5 47.5q34 0 56 -29q-5 -20 -5 -36q0 -31 17 -31q33 0 40 90h-18q-38 0 -64 26t-26 64t26 64t64 26q-36 105 -117 105q-43 0 -43 -27
q0 -41 75 -77q-94 -103 -188 -103q-116 0 -202 82.5t-86 197.5q0 128 97 217t226 89q147 0 256 -110q-22 90 -22 163q0 98 94 229q106 147 121 219q15 -72 121 -219q94 -131 94 -229q0 -73 -22 -163q109 110 256 110q129 0 226 -89t97 -217zM1544 576q0 103 -81 176
q-78 70 -182 70q-165 0 -270 -163q-89 -139 -100 -321h-59q7 96 73 299q62 189 62 298q0 69 -57 157q-49 70 -98 141q-49 -71 -98 -141q-57 -88 -57 -157q0 -109 62 -298q66 -203 73 -299h-59q-11 182 -100 321q-105 163 -270 163q-104 0 -182 -70q-81 -73 -81 -176
q0 -90 68.5 -155t159.5 -65q49 0 97 39q-44 47 -44 81q0 37 32 62t71 25q81 0 134 -72q44 -61 58 -153h-75q-30 0 -30 -30t30 -30h80v-3q0 -207 -102 -207q-36 0 -57.5 29.5t-19.5 65.5q-76 -10 -76 -97q0 -99 103 -99q100 0 156 109q44 85 49 202h60q-2 -46 -27 -143
q-23 -92 -23 -143q0 -44 68 -149q68 105 68 149q0 51 -23 143q-25 97 -27 143h60q5 -117 49 -202q56 -109 156 -109q103 0 103 99q0 87 -76 97q2 -36 -19.5 -65.5t-57.5 -29.5q-102 0 -102 207v3h80q30 0 30 30t-30 30h-75q14 92 58 153q53 72 134 72q39 0 71 -25t32 -62
q0 -34 -44 -81q48 -39 97 -39q91 0 159.5 65t68.5 155z" />
  </g>

</svg>
