<?xml version="1.0" standalone="no"?>
<!DOCTYPE svg PUBLIC "-//W3C//DTD SVG 1.1//EN" "http://www.w3.org/Graphics/SVG/1.1/DTD/svg11.dtd" >
<svg viewBox="0 -442 2048 2048">
  <g transform="matrix(1 0 0 -1 0 1606)">
   <path fill="currentColor"
d="M1953 794q0 -116 -292 -363l-46 54q267 231 267 299q0 59 -341 92q-235 22 -439 22q-102 0 -203 -7l-5 69q83 6 226 6q269 0 465 -22q368 -42 368 -150zM1292 1096l-65 -27q-40 95 -94 196q-83 154 -116 154q-63 0 -217 -375q-123 -299 -181 -531l-67 17q60 242 182 541
q170 418 283 418q116 0 275 -393zM1649 -137q0 -153 -95 -153q-126 0 -400 170l37 60q272 -164 359 -164q31 0 31 67q0 155 -80 456q-69 258 -145 448l64 26q80 -196 148 -451q81 -298 81 -459zM903 125l-36 -59q-205 128 -446 329q-326 273 -326 389q0 126 462 161l6 -70
q-107 -9 -221 -30q-178 -33 -178 -68q0 -70 290 -316q247 -209 449 -336zM1386 214q-177 -149 -430 -310q-327 -207 -457 -207q-95 0 -95 158q0 129 51 336l68 -16q-50 -213 -50 -355q0 -56 31 -56q88 0 379 180q280 173 459 323z" />
  </g>

</svg>
