<?xml version="1.0" standalone="no"?>
<!DOCTYPE svg PUBLIC "-//W3C//DTD SVG 1.1//EN" "http://www.w3.org/Graphics/SVG/1.1/DTD/svg11.dtd" >
<svg viewBox="0 -442 2048 2048">
  <g transform="matrix(1 0 0 -1 0 1606)">
   <path fill="currentColor"
d="M1526 582q0 -171 -113 -296.5t-281 -143.5v-171h196v-98h-196v-189h-98v189h-196v98h196v171q-130 14 -231 96q-101 -82 -231 -96v-171h196v-98h-196v-189h-98v189h-196v98h196v171q-168 18 -281 143.5t-113 296.5q0 185 129 314t314 129q158 0 280 -99q122 99 280 99
q185 0 314 -129t129 -314zM1428 582q0 144 -100.5 244.5t-244.5 100.5q-119 0 -211 -71q94 -120 94 -274t-94 -274q92 -71 211 -71q144 0 244.5 100.5t100.5 244.5zM868 582q0 113 -65 203q-65 -90 -65 -203t65 -203q65 90 65 203zM734 308q-94 120 -94 274t94 274
q-92 71 -211 71q-144 0 -244.5 -100.5t-100.5 -244.5t100.5 -244.5t244.5 -100.5q119 0 211 71z" />
  </g>

</svg>
