<?xml version="1.0" standalone="no"?>
<!DOCTYPE svg PUBLIC "-//W3C//DTD SVG 1.1//EN" "http://www.w3.org/Graphics/SVG/1.1/DTD/svg11.dtd" >
<svg viewBox="0 -442 2048 2048">
  <g transform="matrix(1 0 0 -1 0 1606)">
   <path fill="currentColor"
d="M1549 692l-175 101l-88 -153q180 -132 180 -358q0 -185 -129 -314t-314 -129q-147 0 -263 85.5t-159 221.5q-40 -7 -78 -7q-185 0 -314 129t-129 314t129 314t314 129q93 0 178 -37l89 154l-175 100l377 152l57 -402l-175 101l-88 -153q115 -85 159 -222q40 7 78 7
q93 0 178 -37l89 154l-175 100l377 152zM1368 282q0 144 -100.5 244.5t-244.5 100.5q-29 0 -59 -5q2 -23 2 -40q0 -137 -74.5 -247.5t-196.5 -161.5q34 -105 124 -170.5t204 -65.5q144 0 244.5 100.5t100.5 244.5zM868 582v9q-86 -43 -138 -126t-52 -183v-9q86 43 138 126
t52 183zM851 691q-34 105 -124 170.5t-204 65.5q-144 0 -244.5 -100.5t-100.5 -244.5t100.5 -244.5t244.5 -100.5q29 0 59 5q-2 23 -2 40q0 137 76 249q73 109 195 160z" />
  </g>

</svg>
