<?xml version="1.0" standalone="no"?>
<!DOCTYPE svg PUBLIC "-//W3C//DTD SVG 1.1//EN" "http://www.w3.org/Graphics/SVG/1.1/DTD/svg11.dtd" >
<svg viewBox="0 -442 2048 2048">
  <g transform="matrix(1 0 0 -1 0 1606)">
   <path fill="currentColor"
d="M1449 1194l-175 101l-88 -153q180 -132 180 -358q0 -178 -120.5 -305t-296.5 -137q-37 -128 -139.5 -214.5t-237.5 -101.5v-171h196v-98h-196v-189h-98v189h-196v98h196v171q-168 18 -281 143.5t-113 296.5q0 178 120.5 305t296.5 137q40 140 157.5 229.5t268.5 89.5
q93 0 178 -37l89 154l-175 100l377 152zM1268 784q0 144 -100.5 244.5t-244.5 100.5q-111 0 -199.5 -62.5t-124.5 -163.5q158 -27 262.5 -150t104.5 -287q0 -5 -1 -24q129 16 216 113t87 229zM868 466q0 129 -82 225t-207 116q-1 -16 -1 -23q0 -129 82 -225t207 -116
q1 16 1 23zM847 347q-158 27 -262.5 150t-104.5 287q0 5 1 24q-129 -16 -216 -113t-87 -229q0 -144 100.5 -244.5t244.5 -100.5q111 0 199.5 62.5t124.5 163.5z" />
  </g>

</svg>
