<?xml version="1.0" standalone="no"?>
<!DOCTYPE svg PUBLIC "-//W3C//DTD SVG 1.1//EN" "http://www.w3.org/Graphics/SVG/1.1/DTD/svg11.dtd" >
<svg viewBox="0 -442 2048 2048">
  <g transform="matrix(1 0 0 -1 0 1606)">
   <path fill="currentColor"
d="M966 418q0 -185 -129 -314t-314 -129t-314 129t-129 314q0 171 113 296.5t281 143.5v171h-196v98h196v149h-201l250 320l250 -320h-201v-149h196v-98h-196v-171q168 -18 281 -143.5t113 -296.5zM868 418q0 144 -100.5 244.5t-244.5 100.5t-244.5 -100.5t-100.5 -244.5
t100.5 -244.5t244.5 -100.5t244.5 100.5t100.5 244.5z" />
  </g>

</svg>
