<?xml version="1.0" standalone="no"?>
<!DOCTYPE svg PUBLIC "-//W3C//DTD SVG 1.1//EN" "http://www.w3.org/Graphics/SVG/1.1/DTD/svg11.dtd" >
<svg viewBox="0 -442 2048 2048">
  <g transform="matrix(1 0 0 -1 0 1606)">
   <path fill="currentColor"
d="M1950 582q0 -185 -129 -314t-314 -129t-314 129t-129 314v-492h-98v492q0 -185 -129 -314t-314 -129t-314 129t-129 314t129 314t314 129t314 -129t129 -314v492h98v-492q0 185 129 314t314 129t314 -129t129 -314zM1852 582q0 144 -100.5 244.5t-244.5 100.5
t-244.5 -100.5t-100.5 -244.5t100.5 -244.5t244.5 -100.5t244.5 100.5t100.5 244.5zM868 582q0 144 -100.5 244.5t-244.5 100.5t-244.5 -100.5t-100.5 -244.5t100.5 -244.5t244.5 -100.5t244.5 100.5t100.5 244.5z" />
  </g>

</svg>
