<?xml version="1.0" standalone="no"?>
<!DOCTYPE svg PUBLIC "-//W3C//DTD SVG 1.1//EN" "http://www.w3.org/Graphics/SVG/1.1/DTD/svg11.dtd" >
<svg viewBox="0 -442 2450 2048">
  <g transform="matrix(1 0 0 -1 0 1606)">
   <path fill="currentColor"
d="M2450 582q0 -185 -129 -314t-314 -129q-171 0 -296.5 113t-143.5 281h-604q-18 -168 -143.5 -281t-296.5 -113q-185 0 -314 129t-129 314t129 314t314 129q171 0 296.5 -113t143.5 -281h604q18 168 143.5 281t296.5 113q185 0 314 -129t129 -314zM2352 582
q0 144 -100.5 244.5t-244.5 100.5t-244.5 -100.5t-100.5 -244.5t100.5 -244.5t244.5 -100.5t244.5 100.5t100.5 244.5zM868 582q0 144 -100.5 244.5t-244.5 100.5t-244.5 -100.5t-100.5 -244.5t100.5 -244.5t244.5 -100.5t244.5 100.5t100.5 244.5z" />
  </g>

</svg>
