<?xml version="1.0" standalone="no"?>
<!DOCTYPE svg PUBLIC "-//W3C//DTD SVG 1.1//EN" "http://www.w3.org/Graphics/SVG/1.1/DTD/svg11.dtd" >
<svg viewBox="0 -442 2048 2048">
  <g transform="matrix(1 0 0 -1 0 1606)">
   <path fill="currentColor"
d="M1195 638q0 -29 -50 -136q-213 -456 -294 -831l-55 -44h-285l-55 44q-81 375 -294 831q-50 107 -50 136q0 30 19 81q57 151 140.5 232t236.5 129l-38 22l-29 49v274h-155v112h735v-112h-155v-274l-29 -49l-38 -22q153 -48 236.5 -129t140.5 -232q19 -51 19 -81zM1083 638
q0 21 -36 99q-43 93 -103 145q-41 36 -98 60q-57 20 -115 39q-69 31 -69 81q0 68 92 122v241h-201v-241q92 -54 92 -122q0 -50 -69 -81q-58 -19 -115 -39q-57 -24 -98 -60q-60 -52 -103 -145q-36 -78 -36 -99q2 -6 14 -33q125 -284 179 -426q92 -238 139 -440h195
q70 301 318 866q7 15 14 33z" />
  </g>

</svg>
