<?xml version="1.0" standalone="no"?>
<!DOCTYPE svg PUBLIC "-//W3C//DTD SVG 1.1//EN" "http://www.w3.org/Graphics/SVG/1.1/DTD/svg11.dtd" >
<svg viewBox="0 -442 2048 2048">
  <g transform="matrix(1 0 0 -1 0 1606)">
   <path fill="currentColor"
d="M2015 582q0 -410 -290.5 -700.5t-700.5 -290.5t-700.5 290.5t-290.5 700.5t290.5 700.5t700.5 290.5t700.5 -290.5t290.5 -700.5zM1880 1018q-98 192 -271 325l5 -58zM1897 971l-4 4h1l-292 294l-277 -93v-346l290 -245l272 84zM1978 474l-87 176l-271 -85l-191 -356
l75 -215l286 9q159 210 188 471zM1305 831v346l-323 165l-296 -232l15 -313l283 -143zM969 1357l-59 178q-333 -39 -569 -278l19 -110l312 -22zM341 1139l-17 100q-215 -229 -253 -541l118 82zM1486 -13l-75 215l-360 102l-263 -212l111 -296l339 -25zM1038 319l-62 317
l-283 143l-283 -251l62 -291l303 -131zM1311 -334l-75 85l-340 25l-108 -125q115 -29 236 -29q147 0 287 44zM453 232l-63 295l-195 233l-127 -88q-4 -43 -4 -90q0 -240 110 -448l132 -84zM326 -77l-26 107l-105 67q54 -93 131 -174z" />
  </g>

</svg>
