<?xml version="1.0" standalone="no"?>
<!DOCTYPE svg PUBLIC "-//W3C//DTD SVG 1.1//EN" "http://www.w3.org/Graphics/SVG/1.1/DTD/svg11.dtd" >
<svg viewBox="0 -442 2048 2048">
  <g transform="matrix(1 0 0 -1 0 1606)">
   <path fill="currentColor"
d="M2015 582q0 -410 -290.5 -700.5t-700.5 -290.5t-700.5 290.5t-290.5 700.5t290.5 700.5t700.5 290.5t700.5 -290.5t290.5 -700.5zM1966 582q0 220 -96 415q-93 189 -258 321q-66 -56 -120 -117l-70 61q52 60 113 111q-232 151 -511 151t-511 -151q61 -51 113 -111
l-70 -61q-54 61 -120 117q-165 -132 -258 -321q-96 -195 -96 -415t96 -415q93 -189 258 -321q66 56 120 117l70 -61q-52 -60 -113 -111q232 -151 511 -151t511 151q-61 51 -113 111l70 61q54 -61 120 -117q165 132 258 321q96 195 96 415zM1424 1114q-59 -84 -98 -176
l-83 31q44 109 111 206zM1291 834q-26 -95 -32 -197h-90q7 117 38 228zM805 969l-83 -31q-39 92 -98 176l70 61q67 -97 111 -206zM1291 330l-84 -31q-31 111 -38 228h90q6 -102 32 -197zM879 637h-90q-6 102 -32 197l84 31q31 -111 38 -228zM1424 50l-70 -61
q-67 97 -111 206l83 31q39 -92 98 -176zM879 527q-7 -117 -38 -228l-84 31q26 95 32 197h90zM805 195q-44 -109 -111 -206l-70 61q59 84 98 176z" />
  </g>

</svg>
