<?xml version="1.0" standalone="no"?>
<!DOCTYPE svg PUBLIC "-//W3C//DTD SVG 1.1//EN" "http://www.w3.org/Graphics/SVG/1.1/DTD/svg11.dtd" >
<svg viewBox="0 -442 2048 2048">
  <g transform="matrix(1 0 0 -1 0 1606)">
   <path fill="currentColor"
d="M1709 420q0 -144 -284 -221q-201 -55 -401 -55t-401 55q-284 77 -284 221v339q0 136 289 209q203 52 396 52t396 -52q289 -73 289 -209v-339zM1670 420v214q-24 -30 -53 -51v-258q53 43 53 95zM1537 278v261q-26 -12 -58 -23v-260q36 12 58 22zM1670 742q0 127 -270 193
q-188 46 -376 46t-376 -46q-270 -66 -270 -193q0 -137 266 -209q186 -50 380 -50t380 50q266 72 266 209zM1404 234v258q-15 -3 -46 -10v-259q20 4 46 11zM1300 212v258q-31 -6 -73 -11v-259q27 4 73 12zM1188 195v258q-83 -9 -164 -9q-134 0 -279 26v-258q159 -29 279 -29
q63 0 164 12zM706 219v259q-33 7 -80 20v-259q53 -14 80 -20zM565 257v260q-21 7 -60 23v-260q20 -9 60 -23zM440 318v259q-36 25 -62 57v-214q0 -57 62 -102zM1543 761q0 -109 -215 -160q-142 -35 -304 -35t-304 35q-215 51 -215 160t215 160q142 35 304 35q161 0 304 -35
q215 -51 215 -160zM1504 761q0 83 -204 126q-140 30 -276 30t-275 -29q-205 -44 -205 -127t205 -127q139 -29 275 -29t275 29q205 44 205 127zM1188 761q0 -78 -164 -78t-164 78t164 78t164 -78zM1149 761q0 19 -54 31q-40 8 -71 8t-71 -8q-54 -12 -54 -31t54 -31
q40 -8 71 -8q32 0 70 8q55 11 55 31zM2048 1606zM0 1606zM2048 -442zM0 -442z" />
  </g>

</svg>
