<?xml version="1.0" standalone="no"?>
<!DOCTYPE svg PUBLIC "-//W3C//DTD SVG 1.1//EN" "http://www.w3.org/Graphics/SVG/1.1/DTD/svg11.dtd" >
<svg viewBox="0 -442 2048 2048">
  <g transform="matrix(1 0 0 -1 0 1606)">
   <path fill="currentColor"
d="M1709 624q0 -144 -284 -221q-201 -55 -401 -55t-401 55q-284 77 -284 221v339q0 136 289 209q203 52 396 52t396 -52q289 -73 289 -209v-339zM1709 265q0 -144 -284 -221q-201 -54 -401 -54t-401 54q-284 77 -284 221v338q0 -144 284 -221q201 -54 401 -54t401 54
q284 77 284 221v-338zM1670 624v214q-22 -27 -53 -50v-259q53 43 53 95zM1537 482v261q-26 -12 -58 -23v-260q36 12 58 22zM1670 265v213q-22 -27 -53 -50v-258q53 43 53 95zM1670 946q0 127 -270 193q-188 46 -376 46t-376 -46q-270 -66 -270 -193q0 -137 266 -208
q185 -50 380 -50q194 0 380 50q266 71 266 208zM1404 438v259q-21 -5 -46 -11v-258q15 3 46 10zM1300 416v259q-25 -4 -73 -12v-259q27 4 73 12zM1537 123v260q-26 -12 -58 -23v-259q36 12 58 22zM1404 79v258q-21 -5 -46 -11v-257q15 3 46 10zM1188 399v259q-83 -9 -164 -9
q-134 0 -279 26v-259q159 -29 279 -29q63 0 164 12zM1300 57v258q-25 -4 -73 -12v-258q27 4 73 12zM706 424v258q-33 7 -80 20v-259q37 -10 80 -19zM1188 40v258q-83 -9 -164 -9q-134 0 -279 26v-258q154 -28 279 -28q72 0 164 11zM565 461v260q-36 13 -60 24v-260
q29 -13 60 -24zM440 523v258q-36 25 -62 57v-214q0 -56 62 -101zM706 65v257q-33 7 -80 20v-258q37 -10 80 -19zM565 103v258q-36 13 -60 24v-259q20 -9 60 -23zM440 164v257q-36 25 -62 57v-213q0 -56 62 -101zM1543 966q0 -109 -215 -160q-142 -35 -304 -35t-304 35
q-215 51 -215 160t215 160q142 35 304 35q161 0 304 -35q215 -51 215 -160zM1504 966q0 83 -204 126q-140 30 -276 30t-275 -29q-205 -44 -205 -127t205 -127q139 -29 275 -29t275 29q205 44 205 127zM1188 966q0 -78 -164 -78t-164 78t164 78t164 -78zM1149 966
q0 19 -54 31q-40 8 -71 8t-71 -8q-54 -12 -54 -31t54 -31q40 -8 71 -8q32 0 70 8q55 11 55 31zM2048 1606zM0 1606zM2048 -442zM0 -442z" />
  </g>

</svg>
