<?xml version="1.0" standalone="no"?>
<!DOCTYPE svg PUBLIC "-//W3C//DTD SVG 1.1//EN" "http://www.w3.org/Graphics/SVG/1.1/DTD/svg11.dtd" >
<svg viewBox="0 -442 2048 2048">
  <g transform="matrix(1 0 0 -1 0 1606)">
   <path fill="currentColor"
d="M1709 420q0 -81 -92 -142v300q92 61 92 142v-300zM1537 236q-31 -13 -58 -22v300q16 5 58 23v-301zM1709 759q0 -144 -284 -221q-201 -55 -401 -55t-401 55q-284 77 -284 221q0 136 289 209q203 52 396 52t396 -52q289 -73 289 -209zM1404 193q-30 -8 -46 -11v300
q15 4 46 12v-301zM1300 171q-28 -5 -73 -11v300q21 3 73 12v-301zM1188 154q-88 -10 -164 -10q-128 0 -279 27v301q157 -28 279 -28q67 0 164 11v-301zM706 179q-54 11 -80 18v301q42 -11 80 -19v-300zM565 215q-20 7 -60 24v300q30 -13 60 -23v-301zM440 273
q-101 63 -101 147v300q0 -84 101 -147v-300zM1543 761q0 109 -215 160q-143 35 -304 35q-162 0 -304 -35q-215 -51 -215 -160t215 -160q142 -35 304 -35t304 35q215 51 215 160zM1504 761q0 -83 -205 -127q-139 -29 -275 -29t-275 29q-205 44 -205 127t205 127
q139 29 275 29t276 -30q204 -43 204 -126zM1188 761q0 78 -164 78t-164 -78t164 -78t164 78zM1149 761q0 -20 -55 -31q-38 -8 -70 -8q-31 0 -71 8q-54 12 -54 31t54 31q40 8 71 8t71 -8q54 -12 54 -31zM2048 1606zM0 1606zM2048 -442zM0 -442z" />
  </g>

</svg>
