<?xml version="1.0" standalone="no"?>
<!DOCTYPE svg PUBLIC "-//W3C//DTD SVG 1.1//EN" "http://www.w3.org/Graphics/SVG/1.1/DTD/svg11.dtd" >
<svg viewBox="0 -442 2048 2048">
  <g transform="matrix(1 0 0 -1 0 1606)">
   <path fill="currentColor"
d="M1709 624q0 -81 -92 -142v300q92 61 92 142v-300zM1537 441q-31 -13 -58 -22v300q27 9 58 22v-300zM1709 265q0 -81 -92 -142v299q92 61 92 142v-299zM1709 963q0 -144 -284 -221q-201 -54 -401 -54t-401 54q-284 77 -284 221q0 136 289 209q203 52 396 52t396 -52
q289 -73 289 -209zM1404 398q-15 -4 -46 -12v300q15 4 46 12v-300zM1300 376q-25 -4 -73 -12v300q21 3 73 12v-300zM1537 82q-31 -13 -58 -22v299q27 9 58 22v-299zM1404 39q-15 -4 -46 -12v299q15 4 46 12v-299zM1709 584q0 -144 -282 -221q-202 -55 -403 -55t-403 55
q-282 77 -282 221v20q0 -144 282 -220q201 -55 403 -55t403 55q282 76 282 220v-20zM1188 359q-97 -11 -164 -11q-122 0 -279 28v300q151 -27 279 -27q76 0 164 10v-300zM1300 17q-25 -4 -73 -12v299q21 3 73 12v-299zM706 383q-38 8 -80 19v300q26 -7 80 -18v-301zM1188 0
q-88 -10 -164 -10q-128 0 -279 27v299q151 -27 279 -27q76 0 164 10v-299zM565 420q-30 10 -60 23v300q30 -13 60 -23v-300zM440 477q-101 63 -101 147v300q0 -84 101 -147v-300zM706 25q-54 11 -80 18v299q26 -7 80 -18v-299zM565 61q-30 10 -60 23v299q30 -13 60 -23v-299
zM440 118q-101 63 -101 147v299q0 -84 101 -147v-299zM1543 966q0 109 -215 160q-143 35 -304 35q-162 0 -304 -35q-215 -51 -215 -160t215 -160q142 -35 304 -35t304 35q215 51 215 160zM1504 966q0 -83 -205 -127q-139 -29 -275 -29t-275 29q-205 44 -205 127t205 127
q139 29 275 29t276 -30q204 -43 204 -126zM1188 966q0 78 -164 78t-164 -78t164 -78t164 78zM1149 966q0 -20 -55 -31q-38 -8 -70 -8q-31 0 -71 8q-54 12 -54 31t54 31q40 8 71 8t71 -8q54 -12 54 -31zM2048 1606zM0 1606zM2048 -442zM0 -442z" />
  </g>

</svg>
