<?xml version="1.0" standalone="no"?>
<!DOCTYPE svg PUBLIC "-//W3C//DTD SVG 1.1//EN" "http://www.w3.org/Graphics/SVG/1.1/DTD/svg11.dtd" >
<svg viewBox="0 -442 2048 2048">
  <g transform="matrix(1 0 0 -1 0 1606)">
   <path fill="currentColor"
d="M1719 159q0 -516 -695 -516t-695 516q0 297 255 447q-118 119 -118 281q0 110 51 193q141 230 507 230q227 0 377 -95q177 -113 177 -328q0 -166 -114 -281q255 -141 255 -447zM1619 159q0 146 -75 247q-47 63 -138 121q-75 47 -75 62q0 10 75.5 110t75.5 188
q0 169 -152 254q-123 69 -306 69t-306 -69q-152 -85 -152 -254q0 -88 75.5 -188t75.5 -110q0 -15 -75 -62q-91 -58 -138 -121q-75 -101 -75 -247q0 -241 188 -341q141 -75 407 -75t407 75q188 100 188 341zM1294 885q0 -32 -25.5 -58.5t-57.5 -26.5q-34 0 -59 25.5t-25 59.5
q0 32 25 58.5t57 26.5q35 0 60 -25t25 -60zM921 885q0 -32 -26 -58.5t-58 -26.5q-34 0 -58.5 25.5t-24.5 59.5t24.5 59.5t57.5 25.5q35 0 60 -25t25 -60z" />
  </g>

</svg>
