<?xml version="1.0" standalone="no"?>
<!DOCTYPE svg PUBLIC "-//W3C//DTD SVG 1.1//EN" "http://www.w3.org/Graphics/SVG/1.1/DTD/svg11.dtd" >
<svg viewBox="0 -442 2048 2048">
  <g transform="matrix(1 0 0 -1 0 1606)">
   <path fill="currentColor"
d="M2038 1434q-12 -45 -13 -91q-2 -63 -5 -74q-11 -38 -54 -38q-59 0 -59 56q0 91 131 147zM1738 1434q-12 -45 -13 -91q-2 -63 -5 -74q-11 -38 -54 -38q-59 0 -59 56q0 91 131 147zM1909 1134q-12 -45 -13 -91q-2 -63 -5 -74q-11 -38 -54 -38q-59 0 -59 56q0 91 131 147z
M1438 1434q-12 -45 -13 -91q-2 -63 -5 -74q-11 -38 -54 -38q-59 0 -59 56q0 91 131 147zM1609 1134q-12 -45 -13 -91q-2 -63 -5 -74q-11 -38 -54 -38q-59 0 -59 56q0 91 131 147zM1770 834q-12 -45 -13 -91q-2 -63 -5 -74q-11 -38 -54 -38q-59 0 -59 56q0 91 131 147z
M1138 1434q-12 -45 -13 -91q-2 -63 -5 -74q-11 -38 -54 -38q-59 0 -59 56q0 91 131 147zM1941 534q-12 -45 -13 -91q-2 -63 -5 -74q-11 -38 -54 -38q-59 0 -59 56q0 91 131 147zM1309 1134q-12 -45 -13 -91q-2 -63 -5 -74q-11 -38 -54 -38q-59 0 -59 56q0 91 131 147z
M1470 834q-12 -45 -13 -91q-2 -63 -5 -74q-11 -38 -54 -38q-59 0 -59 56q0 91 131 147zM838 1434q-12 -45 -13 -91q-2 -63 -5 -74q-11 -38 -54 -38q-59 0 -59 56q0 91 131 147zM1641 534q-12 -45 -13 -91q-2 -63 -5 -74q-11 -38 -54 -38q-59 0 -59 56q0 91 131 147z
M1009 1134q-12 -45 -13 -91q-2 -63 -5 -74q-11 -38 -54 -38q-59 0 -59 56q0 91 131 147zM1792 234q-12 -45 -13 -91q-2 -63 -5 -74q-11 -38 -54 -38q-59 0 -59 56q0 91 131 147zM1170 834q-12 -45 -13 -91q-2 -63 -5 -74q-11 -38 -54 -38q-59 0 -59 56q0 91 131 147z
M538 1434q-12 -45 -13 -91q-2 -63 -5 -74q-11 -38 -54 -38q-59 0 -59 56q0 91 131 147zM1953 -66q-12 -45 -13 -91q-2 -63 -5 -74q-11 -38 -54 -38q-59 0 -59 56q0 91 131 147zM1341 534q-12 -45 -13 -91q-2 -63 -5 -74q-11 -38 -54 -38q-59 0 -59 56q0 91 131 147z
M709 1134q-12 -45 -13 -91q-2 -63 -5 -74q-11 -38 -54 -38q-59 0 -59 56q0 91 131 147zM1492 234q-12 -45 -13 -91q-2 -63 -5 -74q-11 -38 -54 -38q-59 0 -59 56q0 91 131 147zM870 834q-12 -45 -13 -91q-2 -63 -5 -74q-11 -38 -54 -38q-59 0 -59 56q0 91 131 147zM238 1434
q-12 -45 -13 -91q-2 -63 -5 -74q-11 -38 -54 -38q-59 0 -59 56q0 91 131 147zM1653 -66q-12 -45 -13 -91q-2 -63 -5 -74q-11 -38 -54 -38q-59 0 -59 56q0 91 131 147zM1041 534q-12 -45 -13 -91q-2 -63 -5 -74q-11 -38 -54 -38q-59 0 -59 56q0 91 131 147zM409 1134
q-12 -45 -13 -91q-2 -63 -5 -74q-11 -38 -54 -38q-59 0 -59 56q0 91 131 147zM1192 234q-12 -45 -13 -91q-2 -63 -5 -74q-11 -38 -54 -38q-59 0 -59 56q0 91 131 147zM570 834q-12 -45 -13 -91q-2 -63 -5 -74q-11 -38 -54 -38q-59 0 -59 56q0 91 131 147zM1353 -66
q-12 -45 -13 -91q-2 -63 -5 -74q-11 -38 -54 -38q-59 0 -59 56q0 91 131 147zM741 534q-12 -45 -13 -91q-2 -63 -5 -74q-11 -38 -54 -38q-59 0 -59 56q0 91 131 147zM892 234q-12 -45 -13 -91q-2 -63 -5 -74q-11 -38 -54 -38q-59 0 -59 56q0 91 131 147zM270 834
q-12 -45 -13 -91q-2 -63 -5 -74q-11 -38 -54 -38q-59 0 -59 56q0 91 131 147zM1053 -66q-12 -45 -13 -91q-2 -63 -5 -74q-11 -38 -54 -38q-59 0 -59 56q0 91 131 147zM441 534q-12 -45 -13 -91q-2 -63 -5 -74q-11 -38 -54 -38q-59 0 -59 56q0 91 131 147zM592 234
q-12 -45 -13 -91q-2 -63 -5 -74q-11 -38 -54 -38q-59 0 -59 56q0 91 131 147zM753 -66q-12 -45 -13 -91q-2 -63 -5 -74q-11 -38 -54 -38q-59 0 -59 56q0 91 131 147zM141 534q-12 -45 -13 -91q-2 -63 -5 -74q-11 -38 -54 -38q-59 0 -59 56q0 91 131 147zM292 234
q-12 -45 -13 -91q-2 -63 -5 -74q-11 -38 -54 -38q-59 0 -59 56q0 91 131 147zM453 -66q-12 -45 -13 -91q-2 -63 -5 -74q-11 -38 -54 -38q-59 0 -59 56q0 91 131 147zM153 -66q-12 -45 -13 -91q-2 -63 -5 -74q-11 -38 -54 -38q-59 0 -59 56q0 91 131 147z" />
  </g>

</svg>
