<?xml version="1.0" standalone="no"?>
<!DOCTYPE svg PUBLIC "-//W3C//DTD SVG 1.1//EN" "http://www.w3.org/Graphics/SVG/1.1/DTD/svg11.dtd" >
<svg viewBox="0 -442 2048 2048">
  <g transform="matrix(1 0 0 -1 0 1606)">
   <path fill="currentColor"
d="M1931 1449q0 -22 -17.5 -40t-39.5 -18q-21 0 -39 17.5t-18 38.5q0 55 57 55t57 -53zM1569 1400q0 -53 -57 -53t-57 53q0 22 17.5 40t39.5 18t39.5 -18t17.5 -40zM1761 1206q0 -55 -55 -55q-56 0 -56 55q0 56 54 56q57 0 57 -56zM1950 1012q0 -57 -54 -57q-21 0 -39 18
t-18 39q0 20 18.5 39t38.5 19q22 0 38 -18t16 -40zM1229 1426q0 -57 -53 -57q-22 0 -40 17.5t-18 39.5q0 54 56 54q55 0 55 -54zM1761 804q0 -56 -55 -56q-56 0 -56 56q0 55 58 55q53 0 53 -55zM1950 600q0 -55 -56 -55q-55 0 -55 53q0 22 17.5 40t39.5 18q54 0 54 -56z
M871 1447q0 -56 -54 -56q-23 0 -40 17.5t-17 40.5q0 53 57 53q54 0 54 -55zM553 1400q0 -53 -54 -53q-57 0 -57 55q0 21 18 38.5t39 17.5q54 0 54 -58zM231 1424q0 -55 -53 -55q-22 0 -40 17t-18 38q0 56 58 56q53 0 53 -56zM383 1208q0 -21 -17.5 -39t-38.5 -18
q-55 0 -55 55q0 56 53 56q22 0 40 -16t18 -38zM1719 159q0 -516 -695 -516t-695 516q0 297 255 447q-118 119 -118 281q0 110 51 193q141 230 507 230q227 0 377 -95q177 -113 177 -328q0 -166 -114 -281q255 -141 255 -447zM209 1012q0 -57 -54 -57q-21 0 -39 18t-18 39
q0 20 18.5 39t38.5 19q22 0 38 -18t16 -40zM398 805q0 -57 -56 -57q-20 0 -37.5 17.5t-17.5 38.5q0 55 57 55q54 0 54 -54zM209 600q0 -55 -54 -55q-57 0 -57 53q0 22 17.5 40t39.5 18q54 0 54 -56zM1294 885q0 35 -25 60t-60 25q-32 0 -57 -26.5t-25 -58.5q0 -34 25 -59.5
t59 -25.5q32 0 57.5 26.5t25.5 58.5zM921 885q0 35 -25 60t-60 25q-33 0 -57.5 -25.5t-24.5 -59.5t24.5 -59.5t58.5 -25.5q32 0 58 26.5t26 58.5z" />
  </g>

</svg>
