<?xml version="1.0" standalone="no"?>
<!DOCTYPE svg PUBLIC "-//W3C//DTD SVG 1.1//EN" "http://www.w3.org/Graphics/SVG/1.1/DTD/svg11.dtd" >
<svg viewBox="0 -442 2048 2048">
  <g transform="matrix(1 0 0 -1 0 1606)">
   <path fill="currentColor"
d="M1958 871l-29 -51l-87 -5q12 44 22 110zM1005 1421q-51 -41 -84 -74l-40 78l30 51zM1878 1154q-24 -321 -70 -401q-21 -37 -64 -110l17 -10l-33 -58l-17 10l-18 -30l-43 25l-55 -94l-123 71l55 94l-591 341l-54 -94l-123 71l54 94l-43 25l17 30l-17 10l34 58l17 -10
q21 37 63 110q48 81 312 262q159 -58 355.5 -171.5t326.5 -222.5zM1776 -374h-160v155q0 159 -135 159h-315v160h315q138 0 219 -92q76 -87 76 -227v-155zM816 562h-413q-86 0 -115 -53q-20 -38 -20 -131q0 -91 21 -124q28 -45 114 -45h253v-160h-253q-140 0 -217.5 79.5
t-77.5 219.5v65q0 140 78.5 224.5t216.5 84.5h413v-160zM1300 300h-197q-73 0 -96 -32q-19 -25 -19 -97v-230q0 -139 -88 -229t-227 -90h-633v160h633q72 0 113.5 43t41.5 116v230q0 289 275 289h197v-160zM1820 1135q-98 76 -298 191.5t-313 161.5q-111 -66 -191 -141
q392 -204 775 -448q25 109 27 236zM1765 761l-142 82l-49 -85l142 -82zM1587 863l-497 287l-19 -33l497 -287zM1557 811l-497 287l-19 -33l497 -287zM1734 626l-923 533l-14 -23l924 -533zM1054 1171l-142 82l-49 -85l142 -82z" />
  </g>

</svg>
