<?xml version="1.0" standalone="no"?>
<!DOCTYPE svg PUBLIC "-//W3C//DTD SVG 1.1//EN" "http://www.w3.org/Graphics/SVG/1.1/DTD/svg11.dtd" >
<svg viewBox="0 -442 2048 2048">
  <g transform="matrix(1 0 0 -1 0 1606)">
   <path fill="currentColor"
d="M1995 524h-220q-7 -112 -33 -216q-70 -277 -250 -434q-190 -166 -468 -166t-468 166q-180 157 -250 434q-26 104 -33 216h-220v81q90 41 208 100q4 106 14 161q35 191 168 350q215 257 581 257t581 -257q133 -159 168 -350q10 -55 14 -161q118 -59 208 -100v-81z
M1363 899v179h-243v241h-193v-243h-242v-178h242v-242h194v243h242zM1621 524h-1194q0 -62 24 -166q51 -226 195 -366q157 -153 378 -153t378 153q144 140 195 366q24 104 24 166z" />
  </g>

</svg>
