<?xml version="1.0" standalone="no"?>
<!DOCTYPE svg PUBLIC "-//W3C//DTD SVG 1.1//EN" "http://www.w3.org/Graphics/SVG/1.1/DTD/svg11.dtd" >
<svg viewBox="0 -442 2048 2048">
  <g transform="matrix(1 0 0 -1 0 1606)">
   <path fill="currentColor"
d="M1948 582q0 -385 -269.5 -654.5t-654.5 -269.5t-654.5 269.5t-269.5 654.5t269.5 654.5t654.5 269.5t654.5 -269.5t269.5 -654.5zM1461 1146q-192 148 -437 148t-436 -147l326 -326v-129h-129l-326 326q-147 -191 -147 -436t148 -437zM1736 582q0 245 -148 437
l-1001 -1001q192 -148 437 -148t436 147l-326 326v129h129l326 -326q147 191 147 436z" />
  </g>

</svg>
