<?xml version="1.0" standalone="no"?>
<!DOCTYPE svg PUBLIC "-//W3C//DTD SVG 1.1//EN" "http://www.w3.org/Graphics/SVG/1.1/DTD/svg11.dtd" >
<svg viewBox="0 -442 2048 2048">
  <g transform="matrix(1 0 0 -1 0 1606)">
   <path fill="currentColor"
d="M1778 114q0 -377 -240 -388v-80h-119v76q-244 19 -244 396q0 325 179 375q22 5 65 17v154q-32 6 -94 28q-150 75 -150 369q0 309 168 372q2 1 76 22v77h119v-77q72 -18 101 -34q139 -76 139 -361q0 -369 -244 -392v-158q6 -2 21 -6q132 -31 184 -147q39 -87 39 -243z
M873 -354h-130q-9 74 -17 148q-19 76 -88 113h-9q-5 -59 -6 -64q-10 -27 -53 -27q-38 0 -50 29q-6 14 -10 62q-71 -20 -93 -108q-6 -24 -17 -153h-130v59q0 9 5 44q19 130 64 192q55 73 174 96v155l-10 5q-129 11 -188 144q-45 99 -45 248q0 368 244 390v158q-17 4 -50 12
q-100 26 -146 123q-48 101 -48 197v63h130l14 -154q19 -80 96 -111q3 48 10 64q13 30 51 30q40 0 50 -30l8 -64q72 21 96 110q9 33 18 155h130v-53q0 -33 -12 -94q-42 -214 -211 -243q-8 -1 -24 -8v-153q0 -4 16 -4q35 0 81 -24q150 -78 150 -366q0 -332 -216 -387
q-20 -5 -31 -9v-150q25 -7 75 -23q84 -30 127 -123q45 -96 45 -249zM1648 1058q0 180 -70 245q-20 18 -43 18q0 -48 -6 -63q-11 -27 -52 -27q-61 0 -59 90h-13q-99 -43 -99 -263q0 -243 112 -260q0 46 7 63q12 28 52 28q61 0 58 -91h13q7 0 26 13q74 50 74 247zM1648 114
q0 245 -113 265q1 -15 1 -22q0 -72 -59 -72q-68 0 -59 94q-112 -19 -112 -267q0 -242 112 -259q-1 11 -1 19q0 75 60 75q61 0 58 -94q113 20 113 261zM742 587q0 89 -21 159q-31 99 -95 106q2 -21 2 -35q0 -59 -57 -59q-67 0 -58 94q-113 -20 -113 -267q0 -220 112 -259v26
q0 64 59 64q42 0 52 -28q6 -14 3 -62h13q11 0 32 15q71 50 71 246z" />
  </g>

</svg>
