<?xml version="1.0" standalone="no"?>
<!DOCTYPE svg PUBLIC "-//W3C//DTD SVG 1.1//EN" "http://www.w3.org/Graphics/SVG/1.1/DTD/svg11.dtd" >
<svg viewBox="0 -442 2048 2048">
  <g transform="matrix(1 0 0 -1 0 1606)">
   <path fill="currentColor"
d="M1912 27l-411 -400l-415 397q33 44 81 92l194 -192v259q0 71 -53 71h-303q-12 0 -41 6q-133 28 -214 122t-81 229q0 117 64.5 207t175.5 129q48 17 70 17h311q71 0 71 82v450h275v-603q0 -2 -6 -25q-15 -59 -62 -106q-51 -52 -108 -52h-365q-151 0 -151 -101
q0 -46 38 -73q33 -25 81 -25h386q-2 0 26 -6q115 -25 149 -129q12 -37 12 -51v-401l194 192zM966 1154l-81 -88l-195 192v-311q-159 -132 -159 -336q0 -214 159 -336v-592h-277v1572l-192 -189q-28 30 -85 88l415 401z" />
  </g>

</svg>
