<?xml version="1.0" standalone="no"?>
<!DOCTYPE svg PUBLIC "-//W3C//DTD SVG 1.1//EN" "http://www.w3.org/Graphics/SVG/1.1/DTD/svg11.dtd" >
<svg viewBox="0 -442 2048 2048">
  <g transform="matrix(1 0 0 -1 0 1606)">
   <path fill="currentColor"
d="M1948 172h-100v37q0 98 -65 169t-162 71q-124 0 -188 -120v499h195q54 0 75 -50l101 -245q71 0 96 -9q48 -16 48 -73v-279zM1809 198q0 -81 -54 -139.5t-134 -58.5t-134 58.5t-54 139.5t54 139.5t134 58.5t134 -58.5t54 -139.5zM1398 172h-795v37q0 98 -65.5 169
t-162.5 71t-162.5 -71t-65.5 -169v-37h-47v769h1298v-769zM560 198q0 -81 -54 -139.5t-134 -58.5t-134 58.5t-54 139.5t54 139.5t134 58.5t134 -58.5t54 -139.5zM1763 533l-92 242h-205v-242h297z" />
  </g>

</svg>
