<?xml version="1.0" standalone="no"?>
<!DOCTYPE svg PUBLIC "-//W3C//DTD SVG 1.1//EN" "http://www.w3.org/Graphics/SVG/1.1/DTD/svg11.dtd" >
<svg viewBox="0 -442 2048 2048">
  <g transform="matrix(1 0 0 -1 0 1606)">
   <path fill="currentColor"
d="M1240 194q0 -239 -169 -408t-408 -169t-408 169t-169 408q0 220 147 384.5t366 188.5v447q-182 -143 -402 -238v91q370 279 440 468h52q70 -189 440 -468v-91q-220 95 -402 238v-447q219 -24 366 -188.5t147 -384.5zM1120 194q0 189 -134 323t-323 134t-323 -134
t-134 -323t134 -323t323 -134t323 134t134 323zM820 194q0 -65 -46 -111t-111 -46t-111 46t-46 111t46 111t111 46t111 -46t46 -111z" />
  </g>

</svg>
