<?xml version="1.0" standalone="no"?>
<!DOCTYPE svg PUBLIC "-//W3C//DTD SVG 1.1//EN" "http://www.w3.org/Graphics/SVG/1.1/DTD/svg11.dtd" >
<svg viewBox="0 -442 2048 2048">
  <g transform="matrix(1 0 0 -1 0 1606)">
   <path fill="currentColor"
d="M1640 1184q0 -68 -47.5 -116t-115.5 -48t-116 48t-48 116t48 116t116 48t115.5 -48t47.5 -116zM735 1182q0 -69 -46.5 -115.5t-115.5 -46.5t-117 47.5t-48 116.5q0 68 48.5 116t116.5 48q67 0 114.5 -49.5t47.5 -116.5zM1661 322q0 -261 -187 -449t-448 -188
q-263 0 -451 187t-188 450q0 244 157.5 422.5t400.5 205.5v561h163v-558q0 -5 15 -5h4q125 -23 215 -74q146 -82 232.5 -232.5t86.5 -319.5zM1497 320q0 194 -139.5 334.5t-333.5 140.5q-192 0 -332.5 -140.5t-140.5 -332.5t140.5 -332.5t332.5 -140.5q195 0 334 138
t139 333z" />
  </g>

</svg>
