<?xml version="1.0" standalone="no"?>
<!DOCTYPE svg PUBLIC "-//W3C//DTD SVG 1.1//EN" "http://www.w3.org/Graphics/SVG/1.1/DTD/svg11.dtd" >
<svg viewBox="0 -442 2048 2048">
  <g transform="matrix(1 0 0 -1 0 1606)">
   <path fill="currentColor"
d="M1331 514l-102 -73l-205 631l-85 -263h-127l212 652zM1948 789l-805 -585l-102 74l538 391h-278l-39 120h686zM1595 -297l-805 585l39 119l538 -390l-86 264l102 74zM1134 669h-665l225 -163l-39 -120l-555 403h995zM1008 106l-555 -403l307 946h126l-205 -632l225 163z
" />
  </g>

</svg>
