<?xml version="1.0" standalone="no"?>
<!DOCTYPE svg PUBLIC "-//W3C//DTD SVG 1.1//EN" "http://www.w3.org/Graphics/SVG/1.1/DTD/svg11.dtd" >
<svg viewBox="0 -442 2048 2048">
  <g transform="matrix(1 0 0 -1 0 1606)">
   <path fill="currentColor"
d="M1948 789l-555 -403l-39 120l225 163h-665l39 120h995zM1236 809h-127l-85 263l-205 -631l-102 73l307 947zM1595 -297l-555 403l102 74l225 -163l-205 632h126zM1007 278l-102 -74l-805 585h686l-39 -120h-278zM1258 288l-805 -585l212 652l102 -74l-86 -264l538 390z
" />
  </g>

</svg>
