<?xml version="1.0" standalone="no"?>
<!DOCTYPE svg PUBLIC "-//W3C//DTD SVG 1.1//EN" "http://www.w3.org/Graphics/SVG/1.1/DTD/svg11.dtd" >
<svg viewBox="0 -442 2048 2048">
  <g transform="matrix(1 0 0 -1 0 1606)">
   <path fill="currentColor"
d="M1281 1101q0 -104 -76.5 -178.5t-180.5 -74.5t-180.5 74.5t-76.5 178.5q0 107 75 182t182 75t182 -75t75 -182zM1813 205q0 -105 -75 -180t-180 -75t-180 76t-75 181q0 107 74 180t181 73q104 0 179.5 -75.5t75.5 -179.5zM749 205q0 -102 -78.5 -178.5t-180.5 -76.5
q-104 0 -179.5 75.5t-75.5 179.5t75.5 179.5t179.5 75.5q106 0 182.5 -74.5t76.5 -180.5z" />
  </g>

</svg>
