<?xml version="1.0" standalone="no"?>
<!DOCTYPE svg PUBLIC "-//W3C//DTD SVG 1.1//EN" "http://www.w3.org/Graphics/SVG/1.1/DTD/svg11.dtd" >
<svg viewBox="0 -442 2048 2048">
  <g transform="matrix(1 0 0 -1 0 1606)">
   <path fill="currentColor"
d="M1570 508h-252q-24 -132 -98 -237l176 -176l-104 -105l-177 177q-113 -77 -236 -98v-252h-148v252q-123 21 -236 98l-177 -177l-105 105l177 176q-74 105 -98 237h-252v148h252q24 132 98 237l-177 176l105 105l177 -177q113 77 236 98v252h148v-252q123 -21 236 -98
l177 177l104 -105l-176 -176q74 -105 98 -237h252v-148zM1185 582q0 159 -110.5 269.5t-269.5 110.5t-269.5 -110.5t-110.5 -269.5q0 -158 111 -269t269 -111t269 111t111 269z" />
  </g>

</svg>
