<?xml version="1.0" standalone="no"?>
<!DOCTYPE svg PUBLIC "-//W3C//DTD SVG 1.1//EN" "http://www.w3.org/Graphics/SVG/1.1/DTD/svg11.dtd" >
<svg viewBox="0 -442 2048 2048">
  <g transform="matrix(1 0 0 -1 0 1606)">
   <path fill="currentColor"
d="M1997 -224h-1590q26 86 91 251q17 35 75 111q52 70 68 109q3 52 10 129q21 69 62 207q7 27 22 81q22 79 67 138q51 68 72 124q4 11 39 158q15 62 71 194q54 123 67 195l51 60q66 -34 184 -193q103 -138 149 -232q28 -71 90 -211q42 -70 122 -212q101 -190 140 -313
q16 -90 62 -266q17 -51 77 -164q54 -102 71 -166zM883 999q-13 -43 -48 -124q-32 -40 -86 -127q-6 -12 -50 -159q-24 -69 -62 -209q-3 -17 -9 -125q-51 -71 -142 -220q-23 -46 -50 -129q-30 -95 -45 -130h-340q31 70 82 215q8 62 33 183q35 122 171 297q9 56 41 146
q37 105 47 145q4 21 16 63q8 21 40 73q54 87 68 114q36 65 50 122l54 48q90 -34 230 -183z" />
  </g>

</svg>
