<?xml version="1.0" standalone="no"?>
<!DOCTYPE svg PUBLIC "-//W3C//DTD SVG 1.1//EN" "http://www.w3.org/Graphics/SVG/1.1/DTD/svg11.dtd" >
<svg viewBox="0 -442 2048 2048">
  <g transform="matrix(1 0 0 -1 0 1606)">
   <path fill="currentColor"
d="M1982 -272h-1916v179h718l178 649q-24 9 -68 9q-115 0 -181 -33q-62 85 -156 138q-99 56 -200 56q-102 0 -169 -31q29 123 101 261q61 116 183 209q118 89 250 125q117 32 247 32q111 0 190 -19q18 63 42 137q19 32 54 32q69 0 69 -59q0 -10 -35 -142q255 -95 415 -272
q182 -200 182 -451q0 -147 -61 -291q-131 160 -348 160q-110 0 -186 -41q-61 92 -196 156l-174 -625h1061v-179zM1764 527q0 207 -123 366q-113 147 -314 232q100 -178 100 -373q0 -107 -25 -219q71 5 100 5q138 0 258 -65q0 8 2 26t2 28zM1311 770q0 209 -120 402
q-134 -75 -239 -204q-108 -135 -143 -279q40 6 101 6q212 0 372 -135q29 115 29 210zM1058 1202q-101 8 -115 8q-407 0 -590 -359q187 -6 342 -128q40 148 135 276q100 136 228 203z" />
  </g>

</svg>
