<?xml version="1.0" standalone="no"?>
<!DOCTYPE svg PUBLIC "-//W3C//DTD SVG 1.1//EN" "http://www.w3.org/Graphics/SVG/1.1/DTD/svg11.dtd" >
<svg viewBox="0 -442 2048 2048">
  <g transform="matrix(1 0 0 -1 0 1606)">
   <path fill="currentColor"
d="M1927 894h-101v142q0 127 -65 236q-74 125 -191 137v94h13q38 0 95 -22q201 -78 243 -377q6 -42 6 -43v-167zM1399 1409l-5 1q-7 1 -15 1q-60 0 -113 -80q-50 -75 -50 -147q0 -12 2 -23h-105v17q0 123 81 221q85 103 205 104v-94zM931 1161h-101q1 6 1 19q0 75 -53 149
q-58 80 -130 80v94h8q96 0 176 -83q73 -76 93 -174q6 -30 6 -28v-57zM1293 669h-538v176q182 0 181 1v180h176v-180q1 1 8 1q29 0 86.5 -1t86.5 -1v-176zM478 1410q-115 -10 -190 -133q-66 -108 -66 -232v-151h-101v170q0 13 4 35q5 27 6 36q10 115 94 228q92 121 200 133
q29 3 49 7zM1927 520q0 -17 -26 -52q-76 -101 -190 -146q-47 -19 -234 -60q-2 -2 -2 -5l66 -447h229v-157h-1492v157h225l70 446q-39 9 -117 28q-157 40 -248 114q-17 14 -51 57q-36 47 -36 62v72h1806v-69z" />
  </g>

</svg>
