<?xml version="1.0" standalone="no"?>
<!DOCTYPE svg PUBLIC "-//W3C//DTD SVG 1.1//EN" "http://www.w3.org/Graphics/SVG/1.1/DTD/svg11.dtd" >
<svg viewBox="0 -442 2048 2048">
  <g transform="matrix(1 0 0 -1 0 1606)">
   <path fill="currentColor"
d="M1788 837h-701v-700q0 -18 -35 -34q-30 -13 -51 -13q-27 0 -55 16q-31 19 -31 44v1406zM1968 86q0 -224 -305 -353q-239 -102 -502 -102h-274q-19 0 -54 4q-39 5 -54 6q-237 12 -441 114q-258 128 -258 331q0 150 192 271q156 100 331 128q54 6 154 22q1 -140 5 -419
q1 -21 20 -56q29 -53 94 -86q62 -32 125 -32q29 0 72 9q53 11 110 63q62 56 62 106v415q14 -4 43 -6q203 -13 416 -117q264 -128 264 -298z" />
  </g>

</svg>
