<?xml version="1.0" standalone="no"?>
<!DOCTYPE svg PUBLIC "-//W3C//DTD SVG 1.1//EN" "http://www.w3.org/Graphics/SVG/1.1/DTD/svg11.dtd" >
<svg viewBox="0 -442 2048 2048">
  <g transform="matrix(1 0 0 -1 0 1606)">
   <path fill="currentColor"
d="M1123 1305q0 -87 -63.5 -151.5t-150.5 -64.5q-86 0 -150.5 65t-64.5 151t64.5 151.5t150.5 65.5q89 0 151.5 -64t62.5 -153zM1811 526q0 -76 -59 -134.5t-136 -58.5q-78 0 -134 57t-56 136q0 83 54.5 138t137.5 55q79 0 136 -57t57 -136zM1930 -299h-697q-115 0 -152 89
q-12 28 -45 141t-98 339h-54q-36 -112 -102 -337q-31 -120 -55 -158q-45 -74 -139 -74h-470v79h358l200 687v312l-353 -418q-106 43 -106 141q0 39 43 89q36 42 108 128l128 160q95 114 139 140q57 34 121 34h975q-51 -191 -125 -191h-467v-387q45 -151 210 -695h581v-79z
" />
  </g>

</svg>
