<?xml version="1.0" standalone="no"?>
<!DOCTYPE svg PUBLIC "-//W3C//DTD SVG 1.1//EN" "http://www.w3.org/Graphics/SVG/1.1/DTD/svg11.dtd" >
<svg viewBox="0 -442 2048 2048">
  <g transform="matrix(1 0 0 -1 0 1606)">
   <path fill="currentColor"
d="M1850 211q-101 -260 -324.5 -414t-501.5 -154q-277 0 -504 154q-230 156 -322 414q142 50 226 144q96 105 96 245q0 137 -97 243q-87 96 -225 141q98 261 322 414.5t504 153.5q276 0 503 -154q231 -157 323 -414q-137 -39 -227 -141q-95 -108 -95 -246q0 -139 96 -245
q85 -95 226 -141zM1636 1057q-217 338 -612 338q-194 0 -355 -89.5t-261 -254.5q108 -49 192 -191q81 -137 81 -260q0 -127 -80 -263q-82 -141 -193 -194q90 -160 260 -253q165 -90 354 -90q193 0 354 89t259 254q-115 63 -191.5 193t-76.5 261q0 262 241 436q10 7 28 24z
" />
  </g>

</svg>
