<?xml version="1.0" standalone="no"?>
<!DOCTYPE svg PUBLIC "-//W3C//DTD SVG 1.1//EN" "http://www.w3.org/Graphics/SVG/1.1/DTD/svg11.dtd" >
<svg viewBox="0 -442 2048 2048">
  <g transform="matrix(1 0 0 -1 0 1606)">
   <path fill="currentColor"
d="M1974 310q0 -171 -35 -251q-53 -122 -202 -122q-115 0 -169 77q-41 59 -57 186q-12 95 -12 110v269q0 295 -85 295h-102v-1063h333v-134h-1571v132h310v1400q0 -1 7 29q18 78 81 150q70 80 143 80h465q60 0 126 -65q58 -56 84 -119q8 -19 14 -51q7 -36 7 -27v-182
q68 -1 196 -24q69 -26 95 -100q37 -106 43 -267q0 7 0 -269q0 -166 29 -241q21 -53 67 -53q87 0 87 187q0 405 -34 679q-7 59 -44.5 115.5t-89.5 81.5q-38 19 -289 103l47 132q94 -29 276 -98q167 -74 223 -218q35 -93 43 -315q2 -56 5 -92q2 -14 5 -43q4 -172 4 -292z
M1114 898v241h-533v-241h533z" />
  </g>

</svg>
