<?xml version="1.0" standalone="no"?>
<!DOCTYPE svg PUBLIC "-//W3C//DTD SVG 1.1//EN" "http://www.w3.org/Graphics/SVG/1.1/DTD/svg11.dtd" >
<svg viewBox="0 -442 2048 2048">
  <g transform="matrix(1 0 0 -1 0 1606)">
   <path fill="currentColor"
d="M1973 -354h-1898v1900h1898v-1900zM1869 757q0 134 -66 216q-72 90 -203 90h-115v137h-1066v-559q0 -130 109 -247q103 -112 234 -143q42 -10 112 -10h177q101 0 183 29q115 41 162 93q32 36 56 92h165q9 0 38 6q214 45 214 296zM1853 131q0 66 -113 104q-85 20 -169 40
q-134 -183 -575 -183q-524 0 -604 183l-146 -40q-90 -34 -90 -104q0 -79 126 -137q268 -123 722 -123q473 0 739 132q110 55 110 128zM1711 759q0 -142 -107 -142h-118v283h118q53 0 82 -46q25 -39 25 -95z" />
  </g>

</svg>
