<?xml version="1.0" standalone="no"?>
<!DOCTYPE svg PUBLIC "-//W3C//DTD SVG 1.1//EN" "http://www.w3.org/Graphics/SVG/1.1/DTD/svg11.dtd" >
<svg viewBox="0 -442 2048 2048">
  <g transform="matrix(1 0 0 -1 0 1606)">
   <path fill="currentColor"
d="M1838 326q-45 -3 -78 -3q-164 0 -473.5 97.5t-473.5 97.5q-255 0 -487 -208v-720h-116v1984h116v-197q242 197 484 197q162 0 468 -101t468 -101q36 0 92 5v-1051zM1722 1030v226q-154 5 -456 105q-294 97 -456 97q-136 0 -262 -70q-78 -43 -222 -161v-177
q225 174 487 174q164 0 455 -91q305 -96 454 -103zM1722 440v226q-154 5 -456 105q-294 97 -456 97q-136 0 -262 -70q-78 -43 -222 -161v-177q225 174 487 174q164 0 455 -91q305 -96 454 -103z" />
  </g>

</svg>
