<?xml version="1.0" standalone="no"?>
<!DOCTYPE svg PUBLIC "-//W3C//DTD SVG 1.1//EN" "http://www.w3.org/Graphics/SVG/1.1/DTD/svg11.dtd" >
<svg viewBox="0 -442 2196 2048">
  <g transform="matrix(1 0 0 -1 0 1606)">
   <path fill="currentColor"
d="M2196 151q-157 -130 -335 -130q-12 0 -38 2l-855 536l-101 -55q-104 -57 -103 -109l1 -41v-25q0 -159 -94 -259q-97 -102 -255 -102q-113 0 -190.5 74t-77.5 186q0 210 312 304l140 42q78 23 105 43q48 33 48 95q0 83 -134 122l-145 42q-326 94 -326 315q0 112 80 185
t193 73q145 0 244.5 -104.5t99.5 -249.5v-78q-4 -41 87 -95l116 -69l873 534q200 0 355 -128l-970 -553zM1032 711q0 58 -58 58t-58 -58q0 -57 58 -57t58 57zM641 1103q0 83 -69 152.5t-152 69.5q-58 0 -104 -40t-46 -97q0 -101 167 -165l63 -24q50 -19 63 -19q78 0 78 123z
M641 314q0 111 -86 111q-31 0 -57 -10l-80 -31q-147 -57 -147 -158q0 -57 49 -97q46 -38 104 -38q88 0 152.5 67.5t64.5 155.5z" />
  </g>

</svg>
