<?xml version="1.0" standalone="no"?>
<!DOCTYPE svg PUBLIC "-//W3C//DTD SVG 1.1//EN" "http://www.w3.org/Graphics/SVG/1.1/DTD/svg11.dtd" >
<svg viewBox="0 -442 2048 2048">
  <g transform="matrix(1 0 0 -1 0 1606)">
   <path fill="currentColor"
d="M1951 586l-850 -109l199 -229l-190 -17l-207 234l-291 -23h-59q-52 0 -39 -57q8 -34 8 -59q0 -81 -55 -130t-138 -49q-89 0 -159 66t-70 154q0 80 57 127q53 45 133 45q40 0 122 -20.5t122 -20.5q143 0 260 125q-26 58 -92 116q-102 90 -258 129q-47 10 -137 41
q-139 66 -139 195q0 74 51 121t125 47q88 0 160.5 -67t72.5 -154q0 -37 -19.5 -79.5t-19.5 -47.5q0 -28 137 -78q87 -32 228 -168l645 37q199 11 403 -129zM514 1063q0 58 -55.5 106t-114.5 48q-119 0 -119 -125q0 -58 66 -105q60 -43 122 -43q47 0 75 37q26 34 26 82z
M460 330q0 69 -52 112q-49 39 -120 39q-52 0 -90.5 -32.5t-38.5 -83.5q0 -65 54 -113q51 -47 116 -47q54 0 92.5 35.5t38.5 89.5z" />
  </g>

</svg>
