<?xml version="1.0" standalone="no"?>
<!DOCTYPE svg PUBLIC "-//W3C//DTD SVG 1.1//EN" "http://www.w3.org/Graphics/SVG/1.1/DTD/svg11.dtd" >
<svg viewBox="0 -442 2048 2048">
  <g transform="matrix(1 0 0 -1 0 1606)">
   <path fill="currentColor"
d="M1927 424q-73 -84 -199 -84q-86 0 -225 51l-612 225l-13 -4q-81 -28 -162.5 -56t-166.5 -38q-48 -5 -48 -37q0 -6 13 -37q20 -48 20 -79q0 -87 -61.5 -143t-149.5 -56q-91 0 -152 48q-65 52 -65 142q0 142 135 199q63 27 197 23q159 -4 231 38t84 97q-26 68 -106 104
q-68 31 -148 29l-129 -4q-98 -3 -161 32q-109 60 -109 173q0 96 63 151q60 53 158 53q81 0 144 -55t63 -135q0 -32 -15.5 -74.5t-15.5 -48.5q0 -32 78 -37q116 -8 316 -94l618 231q150 56 227 56q101 0 191 -84l-774 -297zM462 1053q0 63 -48 102q-44 35 -109 35
q-60 0 -99.5 -39.5t-39.5 -99.5q0 -62 53 -103q48 -39 112 -39q61 0 96 41t35 103zM467 373q0 60 -37.5 98.5t-98.5 38.5q-67 0 -114 -46.5t-47 -113.5q0 -56 47 -90q42 -31 100 -31q64 0 107 39.5t43 104.5z" />
  </g>

</svg>
