<?xml version="1.0" standalone="no"?>
<!DOCTYPE svg PUBLIC "-//W3C//DTD SVG 1.1//EN" "http://www.w3.org/Graphics/SVG/1.1/DTD/svg11.dtd" >
<svg viewBox="0 -442 2048 2048">
  <g transform="matrix(1 0 0 -1 0 1606)">
   <path fill="currentColor"
d="M1951 834q-203 -140 -403 -129l-645 36q-141 -136 -228 -168q-39 -14 -79 -28q-58 -24 -58 -49q0 -5 19.5 -47.5t19.5 -79.5q0 -88 -72.5 -155t-160.5 -67q-74 0 -125 47t-51 121q0 129 139 195q30 14 137 41q156 39 258 129q65 57 92 117q-117 125 -260 125
q-40 0 -122 -20.5t-122 -20.5q-80 0 -133 45q-57 47 -57 127q0 88 70 153.5t159 65.5q83 0 138 -48.5t55 -129.5q0 -26 -8 -60q-13 -57 39 -57h59l291 -23l207 234l190 -17l-199 -229zM460 1090q0 54 -38.5 89t-92.5 35q-65 0 -116 -46q-54 -49 -54 -113q0 -51 38.5 -84
t90.5 -33q71 0 121.5 41.5t50.5 110.5zM514 356q0 48 -27 83.5t-74 35.5q-62 0 -122 -43q-66 -46 -66 -104q0 -125 119 -125q59 0 114.5 47.5t55.5 105.5z" />
  </g>

</svg>
