<?xml version="1.0" standalone="no"?>
<!DOCTYPE svg PUBLIC "-//W3C//DTD SVG 1.1//EN" "http://www.w3.org/Graphics/SVG/1.1/DTD/svg11.dtd" >
<svg viewBox="0 -442 2196 2048">
  <g transform="matrix(1 0 0 -1 0 1606)">
   <path fill="currentColor"
d="M2196 151q-157 -130 -335 -130q-12 0 -38 2l-855 536l-101 -55q-104 -57 -103 -109l1 -41v-25q0 -159 -94 -259q-97 -102 -255 -102q-113 0 -190.5 74t-77.5 186q0 210 312 304l140 42q78 23 105 43q48 33 48 95q0 83 -134 122l-145 42q-326 94 -326 315q0 112 80 185
t193 73q145 0 244.5 -104.5t99.5 -249.5v-78q-4 -41 87 -95l116 -69l873 534q200 0 355 -128l-970 -553zM2102 149l-932 527l-156 -90l838 -514q147 0 250 77zM2099 1260q-100 77 -265 77l-1029 -644q-11 -79 -58 -113q-25 -18 -124 -49l-121 -38q-149 -47 -205 -84
q-100 -67 -100 -183q0 -88 67 -148.5t156 -60.5q121 0 208.5 88.5t87.5 209.5v22l-3 29q-1 10 -1 24q0 67 62 117q18 14 120 72zM916 818l-65 38q-141 83 -137 154l2 34v33q0 139 -80 229q-84 93 -221 93q-85 0 -151.5 -63.5t-66.5 -147.5q0 -180 312 -271l110 -32
q84 -24 114 -43q53 -32 70 -94zM1022 711q0 -47 -48 -47t-48 47q0 48 48 48t48 -48zM641 1103q0 -123 -78 -123q-13 0 -63 19l-63 24q-167 64 -167 165q0 57 46 97t104 40q83 0 152 -69.5t69 -152.5zM641 314q0 -88 -64.5 -155.5t-152.5 -67.5q-58 0 -104 38q-49 40 -49 97
q0 101 147 158l80 31q26 10 57 10q86 0 86 -111zM596 1106q0 65 -56 117.5t-122 52.5q-38 0 -68.5 -26.5t-30.5 -64.5q0 -63 143 -121l37 -15q35 -14 57 -14q40 0 40 71zM594 310q0 69 -41 69q-22 0 -52 -13l-44 -19q-139 -60 -139 -117q0 -39 33 -64q30 -24 70 -24
q68 0 120.5 50.5t52.5 117.5z" />
  </g>

</svg>
