<?xml version="1.0" standalone="no"?>
<!DOCTYPE svg PUBLIC "-//W3C//DTD SVG 1.1//EN" "http://www.w3.org/Graphics/SVG/1.1/DTD/svg11.dtd" >
<svg viewBox="0 -442 2048 2048">
  <g transform="matrix(1 0 0 -1 0 1606)">
   <path fill="currentColor"
d="M1416 1125q0 -32 -26 -86q-68 -141 -164 -141q-35 0 -100 32q156 111 187 297q103 -49 103 -102zM1998 582q0 -406 -284 -690t-690 -284q-173 0 -328 96q-176 109 -176 272q0 35 19 75q18 34 36 69q-30 34 -54 69q28 293 170.5 585t355.5 493q34 3 50 3q92 0 187 -28
q-42 -178 -191 -296q-25 13 -41 13q-91 0 -214 -252q-88 -180 -88 -272q0 -69 53 -85q1 -14 1 -41q0 -179 -117 -291q-28 20 -60 49q-29 -27 -29 -70q0 -131 154 -216q130 -73 272 -73q364 0 619 255t255 619t-255 619t-619 255t-619 -255t-255 -619q0 -338 225 -587
q-23 -13 -38 -13q-88 0 -172 159q-60 113 -89 235q-26 108 -26 206q0 406 284 690t690 284t690 -284t284 -690zM956 185q0 -61 -37 -134q-42 -84 -96 -84q-32 0 -105 36q123 124 123 295q0 16 -1 33q116 -56 116 -146z" />
  </g>

</svg>
