<?xml version="1.0" standalone="no"?>
<!DOCTYPE svg PUBLIC "-//W3C//DTD SVG 1.1//EN" "http://www.w3.org/Graphics/SVG/1.1/DTD/svg11.dtd" >
<svg viewBox="0 -442 2048 2048">
  <g transform="matrix(1 0 0 -1 0 1606)">
   <path fill="currentColor"
d="M1998 582q0 -406 -284 -690t-690 -284t-690 284t-284 690t284 690t690 284t690 -284t284 -690zM1898 582q0 364 -255 619t-619 255t-619 -255t-255 -619t255 -619t619 -255t619 255t255 619zM1214 865q-83 55 -190 55t-190 -55l64 483q48 16 126 16t126 -16zM1750 308
q-10 -50 -49 -117t-77 -101l-450 186q90 44 143 136.5t47 192.5zM1288 582q0 -109 -77.5 -186.5t-186.5 -77.5t-186.5 77.5t-77.5 186.5t77.5 186.5t186.5 77.5t186.5 -77.5t77.5 -186.5zM874 276l-450 -186q-38 34 -77 101t-49 117l386 297q-6 -100 47 -192.5t143 -136.5z
" />
  </g>

</svg>
