<?xml version="1.0" standalone="no"?>
<!DOCTYPE svg PUBLIC "-//W3C//DTD SVG 1.1//EN" "http://www.w3.org/Graphics/SVG/1.1/DTD/svg11.dtd" >
<svg viewBox="0 -442 2048 2048">
  <g transform="matrix(1 0 0 -1 0 1606)">
   <path fill="currentColor"
d="M1867 623q0 -65 -183 -84q-153 -16 -310 -16l-182 -241q34 -3 67 -6q41 -10 41 -43q0 -42 -66 -42q-19 0 -56 1t-55 1l-120 -164l49 -8l40 -7q19 -7 19 -32q0 -39 -71 -39q-32 0 -106 -5q-57 -81 -140 -182q-24 -18 -66 -18q-4 0 -82 1q271 609 271 727q0 47 -53 61
q-10 3 -90 10l-381 32l-194 -243l-126 -20l92 282l-82 35l82 35l-92 282l126 -20l194 -243l381 32q80 7 90 10q53 14 53 61q0 118 -271 727l82 1q42 0 66 -18q1 -1 140 -182q74 -5 106 -5q71 0 71 -39q0 -25 -19 -32l-40 -7l-49 -8l120 -164q18 0 55 1t56 1q66 0 66 -42
q0 -33 -41 -43q-33 -3 -67 -6l182 -241q156 0 310 -16q183 -19 183 -84z" />
  </g>

</svg>
