<?xml version="1.0" standalone="no"?>
<!DOCTYPE svg PUBLIC "-//W3C//DTD SVG 1.1//EN" "http://www.w3.org/Graphics/SVG/1.1/DTD/svg11.dtd" >
<svg viewBox="0 -442 2048 2048">
  <g transform="matrix(1 0 0 -1 0 1606)">
   <path fill="currentColor"
d="M1537 677q0 -345 -143 -537q-101 -136 -259 -221q-163 -87 -328 -87q-311 0 -507 185q-200 189 -200 499q0 79 48 133q28 30 91 65q48 26 48 41q0 21 -9.5 62.5t-9.5 62.5q0 36 41 90q39 50 75.5 68.5t91.5 27.5l78 -18q2 6 2 11q0 13 -8 36t-8 36q0 75 51.5 124.5
t127.5 49.5q73 0 168 -56q62 117 134 117q141 0 206 -99q37 -57 78 -227q115 -15 150 -38q30 -20 58 -152q24 -113 24 -173zM1223 1055q-30 113 -48 147q-42 77 -121 77q-44 0 -76.5 -37t-32.5 -81q0 -22 22 -78q129 -5 256 -28zM878 1090q-32 71 -55 95q-36 38 -99 38
q-101 0 -101 -89q0 -49 37 -127q40 87 117 87q18 0 52 -2t49 -2zM1007 684q-138 11 -246 59q52 -101 86 -191q60 77 160 132zM1455 677q0 155 -53 258q-82 23 -278 46q-122 14 -366 30q-41 -53 -41 -91q0 -4 1 -7q42 -149 404 -149q37 0 123 2l39 -61q-197 -54 -295 -128
q-137 -103 -137 -275q0 -95 38 -220l-41 -22q-101 135 -101 286q-20 -7 -47 -7q-20 0 -33 5q3 -21 3 -40q0 -165 -137 -165q-90 0 -190 98t-100 187q0 18 5 18q25 0 117.5 -110.5t167.5 -110.5q55 0 55 83q0 54 -122 194t-174 140q-46 0 -78.5 -38t-32.5 -84
q0 -275 176 -440q173 -162 449 -162q144 0 291 79q143 77 231 196q126 171 126 488zM782 495q-58 149 -129 277q-113 202 -188 202q-9 0 -17 -3q-97 -37 -97 -107q0 -38 30 -99q41 -84 139 -201q118 -142 178 -142q76 0 84 73z" />
  </g>

</svg>
