<?xml version="1.0" standalone="no"?>
<!DOCTYPE svg PUBLIC "-//W3C//DTD SVG 1.1//EN" "http://www.w3.org/Graphics/SVG/1.1/DTD/svg11.dtd" >
<svg viewBox="0 -442 2048 2048">
  <g transform="matrix(1 0 0 -1 0 1606)">
   <path fill="currentColor"
d="M1457 485q0 -30 -32 -68q-26 -30 -52 -59q-22 -42 -67 -127q-152 -285 -280 -379q-42 -31 -145 -73q-159 -65 -240 -65q-151 0 -244 32q-1 0 -68 31q-133 61 -185 168q-44 90 -44 249v268q0 5 11 246q0 88 15 263q9 53 49 121q48 80 92 80q10 0 28 -8q18 75 33 108
q28 56 79 76q10 4 56 2q30 71 66 95t113 24q33 0 63 -38q39 -48 53 -56l52 10q123 -43 142 -148q5 -25 10 -224l6 -246q6 -141 21 -244q2 -11 44 -143q18 9 30 36q8 22 17 45q30 62 94 114q71 58 133 58q26 0 76.5 -23t62 -44t11.5 -81zM672 664v593q0 23 -8 56
q-12 48 -13 56q-33 13 -46 13q-20 0 -42.5 -24t-22.5 -44q0 18 17 -60q26 -118 28 -297q-2 169 -2 -301zM497 644v550q0 8 -19 53q-40 19 -49 19q-24 0 -42 -32q-16 -28 -16 -54q0 12 24 -222q8 -77 19 -332zM1406 500q-44 50 -85 50q-101 0 -168 -111q-51 -95 -101 -191
h-17q-17 0 -32 11q-30 22 -80 214q-26 99 -28 167l-15 511q-4 138 -66 138q-68 0 -56 -1q5 -280 5 -264q0 -19 -3.5 -57t-3.5 -57v-259q68 -27 68 -56q0 -20 -15 -20q-22 0 -63 12.5t-63 12.5q-248 0 -400 -123q-11 -9 -32 -26l-22 34q4 20 44 57q30 24 59 49q1 3 1 8
q0 270 -29 483l-18 12q-69 -1 -90 -198q-6 -128 -13 -256q-5 -44 -5 -49v-392q0 -35 11 -91q25 -128 80.5 -188.5t181.5 -92.5q64 -16 149 -16q74 0 158 28q74 28 149 57q20 6 58 24q92 57 179 182q44 64 131 223q29 53 131 175zM791 317q-145 -160 -145 -226q0 -15 3 -44
t3 -43q-15 -7 -45 -19l-31 131q33 71 67 142q38 66 109 114q15 -17 39 -55z" />
  </g>

</svg>
