<?xml version="1.0" standalone="no"?>
<!DOCTYPE svg PUBLIC "-//W3C//DTD SVG 1.1//EN" "http://www.w3.org/Graphics/SVG/1.1/DTD/svg11.dtd" >
<svg viewBox="0 -442 2048 2048">
  <g transform="matrix(1 0 0 -1 0 1606)">
   <path fill="currentColor"
d="M1789 996q0 -7 -1 -18l-525 -327l45 -63q86 -120 101 -137q55 -59 139 -88q3 -47 3 -70q0 -190 -89 -325l-157 60q-61 -31 -164 -60q-100 16 -225 52q-44 -52 -97 -52q-44 0 -80 30q-39 -30 -77 -30q-76 0 -125 95q-82 12 -117 63l-126 -78l-220 -80l169 165l166 102
q23 46 88 63q-43 2 -96 23l106 316l193 215l446 -62l54 -62l535 336q54 -19 54 -68zM1157 703l-34 41l-404 53l-167 -185l-84 -260q18 -3 29 -3q88 0 145 175l33 24q62 45 122 103q64 -41 145 -83zM1499 295v34q-103 42 -195 179q-13 20 -32 47l-53 69l-223 -141l-2 -82
l1 -85q-154 -21 -301 -76q-55 11 -95 11q-143 0 -143 -71q0 -73 129 -73q46 0 119 17q315 -81 439 -97l46 15q85 27 116 39l135 -49q59 131 59 263zM895 537l-26 13q-35 16 -62 35q-47 -50 -123 -95q-19 -63 -58 -118zM947 454l-258 -162q169 53 256 68zM860 34l-95 25
q7 -40 50 -40q26 0 45 15zM730 68l-25 7q-75 -15 -111 -15q34 -40 66 -40q44 0 70 48z" />
  </g>

</svg>
