<?xml version="1.0" standalone="no"?>
<!DOCTYPE svg PUBLIC "-//W3C//DTD SVG 1.1//EN" "http://www.w3.org/Graphics/SVG/1.1/DTD/svg11.dtd" >
<svg viewBox="0 -442 2048 2048">
  <g transform="matrix(1 0 0 -1 0 1606)">
   <path fill="currentColor"
d="M1822 158q0 -57 -98 -56l-555 7q-58 7 -117 43l-868 522l-84 313l166 277l305 51l844 -508q50 -30 53 -32q24 -18 39 -46l20 -37l269 -467q26 -57 26 -67zM1437 676v65l-817 490l58 -215l745 -447q14 48 14 107zM1691 283q0 27 -49 110l-153 260q-14 -306 -291 -485
l383 -10q47 6 71 37q39 51 39 88zM1411 522l-756 455l-129 -213l758 -455q99 92 127 213zM624 1022l-69 242l-256 -45l-142 -236l68 -266l248 53zM1249 274l-748 449l-227 -43l850 -510q67 40 125 104zM483 1071q0 -72 -43 -127q-51 -65 -96 -65q-64 0 -64 73q0 57 45 121
q48 68 103 68q24 0 41 -23q14 -21 14 -47z" />
  </g>

</svg>
