<?xml version="1.0" standalone="no"?>
<!DOCTYPE svg PUBLIC "-//W3C//DTD SVG 1.1//EN" "http://www.w3.org/Graphics/SVG/1.1/DTD/svg11.dtd" >
<svg viewBox="0 -442 2048 2048">
  <g transform="matrix(1 0 0 -1 0 1606)">
   <path fill="currentColor"
d="M1869 709q0 -35 -75 -88l-420 -295q-46 -33 -50 -34q-15 -7 -57 -7h-956l-211 245v369l211 227h932q43 0 70 -13q5 -3 61 -40l420 -282q75 -50 75 -82zM1702 700q0 56 -19 97l-326 221l-4 -4q76 -174 76 -305q0 -140 -61 -316l4 -4l319 227q11 48 11 84zM1339 909
q-30 93 -72 166h-858l142 -166h788zM1370 682q0 84 -15 162h-804v-269h804q15 51 15 107zM1345 510h-805l-143 -162h899q26 60 49 162zM495 545v338l-166 192l-174 -192v-326l174 -209zM393 713q0 -154 -86 -154q-70 0 -70 160q0 162 76 162q80 0 80 -168z" />
  </g>

</svg>
