<?xml version="1.0" standalone="no"?>
<!DOCTYPE svg PUBLIC "-//W3C//DTD SVG 1.1//EN" "http://www.w3.org/Graphics/SVG/1.1/DTD/svg11.dtd" >
<svg viewBox="0 -442 2048 2048">
  <g transform="matrix(1 0 0 -1 0 1606)">
   <path fill="currentColor"
d="M1822 1260q0 -11 -26 -68l-289 -504q-18 -34 -92 -78l-844 -508l-305 52l-166 276l84 313l868 523q43 26 54 30q18 7 63 13l555 6q98 1 98 -55zM1691 1135q0 37 -39 88q-24 31 -71 37h-35l-348 -11q277 -179 291 -485l153 260q49 83 49 111zM1411 895q-28 121 -127 213
l-758 -455l129 -213zM1249 1143q-58 64 -125 104l-850 -510l227 -43zM1437 676v65q0 59 -14 107l-745 -447l-58 -215zM624 395l-151 252l-248 53l-68 -266l142 -235l256 -45zM483 346q0 -26 -14 -47q-17 -23 -41 -23q-55 0 -103 68q-45 64 -45 121q0 74 64 74q44 0 96 -66
q43 -55 43 -127z" />
  </g>

</svg>
