<?xml version="1.0" standalone="no"?>
<!DOCTYPE svg PUBLIC "-//W3C//DTD SVG 1.1//EN" "http://www.w3.org/Graphics/SVG/1.1/DTD/svg11.dtd" >
<svg viewBox="0 -442 2048 2048">
  <g transform="matrix(1 0 0 -1 0 1606)">
   <path fill="currentColor"
d="M1890 709q-100 -103 -334 -244q-297 -180 -416 -180q-63 0 -107 41q-28 25 -69 94q-70 117 -141 117q-113 0 -141 -138h-301q-66 0 -84 3q-35 7 -76 38q-121 90 -121 269q0 190 145 276q52 31 148 31h289q36 -135 137 -135q67 0 114 65q38 61 77 122q53 65 137 65
q107 0 436 -201q216 -132 307 -223zM1534 535v149l-195 -8q-35 -133 -129 -133q-66 0 -105 50q-36 46 -36 116q0 68 35 114q40 51 108 51q93 0 127 -131l195 -8v152q-271 172 -373 172q-69 0 -120 -66q-41 -61 -83 -122q-56 -66 -139 -66q-130 0 -182 145h-242
q-81 0 -125 -28q-111 -70 -111 -213q0 -123 84 -195q50 -43 136 -43h258q20 64 74 103.5t122 39.5q72 0 126 -66q41 -61 81 -122q49 -66 111 -66q121 0 383 175z" />
  </g>

</svg>
