<?xml version="1.0" standalone="no"?>
<!DOCTYPE svg PUBLIC "-//W3C//DTD SVG 1.1//EN" "http://www.w3.org/Graphics/SVG/1.1/DTD/svg11.dtd" >
<svg viewBox="0 -442 2048 2048">
  <g transform="matrix(1 0 0 -1 0 1606)">
   <path fill="currentColor"
d="M1949 709q-235 -44 -430 -326q-118 -170 -245 -170q-93 0 -166 78q-40 43 -70 151q-24 87 -38 110q-31 52 -97 52q-59 0 -94 -55q-54 -85 -84 -106q-39 -27 -129 -27h-177q-108 0 -132 3q-81 9 -118 49q-69 75 -69 249q0 196 113 256q38 20 262 20h114q88 0 122 -16
q43 -20 85.5 -95t108.5 -75q61 0 90 43q16 23 37 100q19 67 25 83q15 41 44 77q73 92 187 92q109 0 229 -166q103 -142 182 -209q110 -93 250 -118zM1796 709q0 15 -164 22l-234 10q-36 109 -127 109q-59 0 -95 -42.5t-36 -102.5q0 -55 34 -97q36 -45 89 -45q96 0 135 113
h48l296 14q54 3 54 19z" />
  </g>

</svg>
