<?xml version="1.0" standalone="no"?>
<!DOCTYPE svg PUBLIC "-//W3C//DTD SVG 1.1//EN" "http://www.w3.org/Graphics/SVG/1.1/DTD/svg11.dtd" >
<svg viewBox="0 -442 2048 2048">
  <g transform="matrix(1 0 0 -1 0 1606)">
   <path fill="currentColor"
d="M1507 1411l-190 -225l-426 -563l-295 -457l-72 -123q-11 -22 -43 -57q-28 -13 -117 -13q-77 0 -91 8q-17 9 -48 74q-125 259 -125 402q0 36 47 69q94 66 158 66q26 0 39 -22l18 -46l41 -96q32 -74 47 -74q11 0 53 62l474 702l165 203q48 59 160 94q96 29 191 29z" />
  </g>

</svg>
