<?xml version="1.0" standalone="no"?>
<!DOCTYPE svg PUBLIC "-//W3C//DTD SVG 1.1//EN" "http://www.w3.org/Graphics/SVG/1.1/DTD/svg11.dtd" >
<svg viewBox="0 -442 2048 2048">
  <g transform="matrix(1 0 0 -1 0 1606)">
   <path fill="currentColor"
d="M1687 1239q0 -40 -14 -60q-21 -22 -41 -44l-143 -156l-498 -524l-266 -256q-242 -233 -299 -228l-47 4q-43 4 -140 82q-43 34 -82 80q-18 21 -18 76l-29 248q-16 141 -10 246q5 84 10 96.5t58 75.5q41 49 48 56q33 33 60 42q57 18 105 18q34 0 63 -20q29 -25 29 -66
q0 -34 20 -151l19 -111q4 -35 26 -90q24 -27 56 -27q15 0 43 27l34 33l713 694l158 131q35 29 80 29q46 0 55.5 -12t9.5 -60v-133z" />
  </g>

</svg>
