<?xml version="1.0" standalone="no"?>
<!DOCTYPE svg PUBLIC "-//W3C//DTD SVG 1.1//EN" "http://www.w3.org/Graphics/SVG/1.1/DTD/svg11.dtd" >
<svg viewBox="0 -442 2048 2048">
  <g transform="matrix(1 0 0 -1 0 1606)">
   <path fill="currentColor"
d="M1271 1280q0 -12 -22 -33q-18 -17 -70 -84l-313 -409l63 -127l160 -342q-9 -21 -28 -29v-16q-1 -1 -24 -15q-17 -11 -17 -18q0 -9 10 -29q-3 -18 -26 -34.5t-42 -16.5q-20 0 -78 90l-192 297l-406 -629q-32 -24 -106 -24q-17 0 -43 41q-31 49 -31 63q0 12 6 33
q9 31 -1.5 40.5t-10.5 14.5q0 17 49 101l49 84q79 135 351 464l24 29l-151 418q-23 64 -23 70q0 9 27 43l14 12q7 6 14 6q11 0 33 -18q12 10 33 10q6 3 18 14q10 17 23 17q19 0 37 -37l155 -308l52 64l100 115q187 215 196 215q25 0 72 -39l23 20q14 21 22 21q5 0 12 -17
q4 -9 24 -31q17 -18 17 -26z" />
  </g>

</svg>
