<?xml version="1.0" standalone="no"?>
<!DOCTYPE svg PUBLIC "-//W3C//DTD SVG 1.1//EN" "http://www.w3.org/Graphics/SVG/1.1/DTD/svg11.dtd" >
<svg viewBox="0 -442 2048 2048">
  <g transform="matrix(1 0 0 -1 0 1606)">
   <path fill="currentColor"
d="M1341 1266q0 -8 -13.5 -27t-13.5 -22q-8 3 -436 -498l-10 -12l127 -164l176 -211q-4 -23 -18 -49q-36 -64 -49 -64h-17q-4 0 -14.5 -16.5t-7.5 -24.5q5 -12 -23.5 -37.5t-34.5 -25.5q-4 0 -30 18q-32 19 -27 19q-2 0 -34.5 -35t-51.5 -35q-2 0 -7.5 2t-8.5 2
q-53 54 -120 150q-92 134 -110 157l-37 -49l-276 -371h-27l-39 43q0 4 3 14.5t3 14.5q0 10 -10 10q-6 0 -49 -16q-19 9 -57 72q-21 35 -21 32q0 6 12.5 22.5t12.5 31.5q0 11 -15.5 40t-17.5 39l176 213l166 195q-178 332 -238 537q22 42 74 90q5 -1 23.5 -20t21.5 -19
q31 0 29 39q-1 19 15.5 34t37.5 15q19 0 43 -37l242 -362q51 60 248 262q215 221 231 221q6 0 38 -27q36 -29 36 -45q-1 -4 -2 -6q-8 -8 -8 -14q0 -8 14.5 -19t30.5 -11q4 0 8 1q13 4 24 -12z" />
  </g>

</svg>
