<?xml version="1.0" standalone="no"?>
<!DOCTYPE svg PUBLIC "-//W3C//DTD SVG 1.1//EN" "http://www.w3.org/Graphics/SVG/1.1/DTD/svg11.dtd" >
<svg viewBox="0 -442 2048 2048">
  <g transform="matrix(1 0 0 -1 0 1606)">
   <path fill="currentColor"
d="M1608 279q0 -12 -11 -19q-4 -2 -10 -2q-12 0 -18 10q-228 413 -697 422q6 -465 422 -696q11 -6 11 -19q0 -8 -2 -10q-7 -10 -19 -10h-866q-12 0 -19 10q-2 2 -2 10q0 13 11 19q414 230 423 696q-468 -9 -698 -422q-6 -10 -18 -10q-3 0 -11 2q-10 7 -10 19v866q0 11 10 18
q2 0 5.5 1t5.5 1q12 0 18 -10q231 -415 698 -424q-9 469 -423 699q-11 6 -11 18q0 3 2 8q6 12 19 12h866q13 0 19 -12q2 -2 2 -8q0 -12 -11 -18q-416 -231 -422 -699q466 9 697 424q6 10 18 10q6 0 10 -2q11 -7 11 -18v-866z" />
  </g>

</svg>
