<?xml version="1.0" standalone="no"?>
<!DOCTYPE svg PUBLIC "-//W3C//DTD SVG 1.1//EN" "http://www.w3.org/Graphics/SVG/1.1/DTD/svg11.dtd" >
<svg viewBox="0 -442 2048 2048">
  <g transform="matrix(1 0 0 -1 0 1606)">
   <path fill="currentColor"
d="M1566 709q0 -70 -55 -116q-51 -42 -117 -42q-61 0 -135 24l-108 35q-175 57 -283 66q8 -117 55 -266l35 -111q29 -92 29 -147q0 -71 -41 -124q-44 -57 -113 -57q-70 0 -113 56q-40 51 -40 125q0 48 26 141l84 299q13 45 10 84q-98 -11 -276 -64l-100 -30
q-90 -27 -138 -27q-73 0 -127 39q-59 44 -59 115q0 67 50 111t120 44q64 0 139 -26l119 -41q119 -41 272 -58q-9 112 -69 308l-27 88q-24 78 -24 125q0 73 40 126q44 58 115 58q66 0 110 -52t44 -120q0 -58 -58 -238q-61 -189 -63 -295l285 64l98 33q71 24 125 24
q80 0 133 -39q57 -41 57 -112z" />
  </g>

</svg>
