<?xml version="1.0" standalone="no"?>
<!DOCTYPE svg PUBLIC "-//W3C//DTD SVG 1.1//EN" "http://www.w3.org/Graphics/SVG/1.1/DTD/svg11.dtd" >
<svg viewBox="0 -442 2048 2048">
  <g transform="matrix(1 0 0 -1 0 1606)">
   <path fill="currentColor"
d="M1568 709q0 -86 -59.5 -144.5t-144.5 -58.5q-97 0 -183 110q-18 24 -67 60q-46 18 -113 14l-37 -2q-20 -95 -112 -110v-56q0 -79 15 -106q12 -22 79 -76q92 -74 92 -172q0 -79 -57 -138t-136 -59q-86 0 -146 56.5t-60 142.5q0 97 108 186q47 39 60 76q10 29 10 100v43
q-102 31 -113 115h-47q-69 0 -100 -13q-36 -16 -76 -71q-75 -102 -184 -102q-81 0 -139 61.5t-58 143.5q0 81 58 136.5t141 55.5q101 0 180 -100q44 -55 90 -69q30 -9 117 -9h18q11 107 111 117l4 49q8 102 -51 151q-70 58 -94 90q-39 54 -39 125q0 77 59.5 133t136.5 56
q83 0 142 -59.5t59 -141.5q0 -100 -98 -176q-37 -29 -42 -34q-18 -18 -26 -46q-19 -49 -16 -108l2 -39q46 -3 78 -37t34 -80l41 -2q70 -3 106 12t79 68q83 102 182 102q83 0 139.5 -55.5t56.5 -138.5z" />
  </g>

</svg>
