<?xml version="1.0" standalone="no"?>
<!DOCTYPE svg PUBLIC "-//W3C//DTD SVG 1.1//EN" "http://www.w3.org/Graphics/SVG/1.1/DTD/svg11.dtd" >
<svg viewBox="0 -442 2048 2048">
  <g transform="matrix(1 0 0 -1 0 1606)">
   <path fill="currentColor"
d="M1570 709q0 -110 -72 -186q-74 -79 -184 -79q-101 0 -174 57q-56 55 -112 109q-68 61 -156 66q-2 -98 125 -219q111 -106 111 -228q0 -110 -81.5 -184t-191.5 -74q-105 0 -182.5 81t-77.5 186q0 111 115.5 223t114.5 215q-102 -7 -215 -123q-109 -113 -224 -113
q-110 0 -188 79.5t-78 189.5q0 104 79 185t183 81q99 0 173 -60l114 -112q69 -60 156 -60q-8 96 -123 214q-111 114 -111 227q0 104 78 182t182 78q108 0 188 -73q82 -76 82 -183q0 -101 -57 -174l-108 -112q-60 -70 -64 -159q100 -2 215 123q100 109 213 109q110 0 190 -78
t80 -188z" />
  </g>

</svg>
