<?xml version="1.0" standalone="no"?>
<!DOCTYPE svg PUBLIC "-//W3C//DTD SVG 1.1//EN" "http://www.w3.org/Graphics/SVG/1.1/DTD/svg11.dtd" >
<svg viewBox="0 -442 2048 2048">
  <g transform="matrix(1 0 0 -1 0 1606)">
   <path fill="currentColor"
d="M1577 709q0 -54 -40.5 -91.5t-95.5 -37.5q-28 0 -57 16q-2 -61 -39 -103t-96 -42q-58 0 -93.5 36.5t-35.5 92.5q0 51 33 100l-285 -6l-6 -275q58 35 100 35q58 0 97.5 -37t39.5 -94q0 -54 -44 -95q-42 -37 -97 -42q14 -28 14 -60q0 -56 -38.5 -95.5t-94.5 -39.5
q-53 0 -91 38t-38 91q0 29 17 66q-59 -2 -101 35q-45 38 -45 96q0 56 38 96.5t93 40.5q46 0 95 -35l-5 275l-276 4q33 -45 33 -100q0 -58 -41 -95t-99 -37q-57 0 -92 47q-32 43 -34 103q-48 -16 -76 -16q-49 0 -84 41q-33 38 -33 88q0 55 40.5 94t96.5 39q27 0 56 -13
q3 55 42 96.5t93 41.5q57 0 95 -37t38 -94q0 -39 -35 -101l276 4l5 285q-39 -39 -95 -39q-58 0 -95.5 35.5t-37.5 93.5q0 113 144 137q-17 47 -17 66q0 51 37 89t88 38q59 0 99 -39.5t40 -99.5q0 -18 -12 -54q58 -5 97.5 -41t39.5 -94q0 -53 -36.5 -92t-88.5 -39
q-58 0 -106 39l4 -285l285 -4q-37 50 -37 105q0 57 38.5 93t96.5 36q55 0 93 -42t40 -98q34 15 55 15q56 0 97 -40t41 -95z" />
  </g>

</svg>
