<?xml version="1.0" standalone="no"?>
<!DOCTYPE svg PUBLIC "-//W3C//DTD SVG 1.1//EN" "http://www.w3.org/Graphics/SVG/1.1/DTD/svg11.dtd" >
<svg viewBox="0 -442 2048 2048">
  <g transform="matrix(1 0 0 -1 0 1606)">
   <path fill="currentColor"
d="M1583 709q0 -11 -23 -17q-243 -62 -413 -221q-223 -208 -299 -461q-12 -39 -21 -37q-7 -1 -16 31q-71 258 -240 426q-81 81 -201 155q-124 78 -229 111q-41 8 -41 23q0 9 35 20q247 76 414 244q195 197 266 418q14 43 22 43q9 0 19 -33q70 -243 248 -418
q196 -192 436 -260q43 -17 43 -24z" />
  </g>

</svg>
