<?xml version="1.0" standalone="no"?>
<!DOCTYPE svg PUBLIC "-//W3C//DTD SVG 1.1//EN" "http://www.w3.org/Graphics/SVG/1.1/DTD/svg11.dtd" >
<svg viewBox="0 -442 2048 2048">
  <g transform="matrix(1 0 0 -1 0 1606)">
   <path fill="currentColor"
d="M1583 694q-260 -54 -465 -259q-199 -200 -268 -462h-37q-54 259 -256 458q-193 190 -457 263v41q254 62 450 260q191 193 263 449h37q66 -260 268 -455.5t465 -253.5v-41zM1499 715q-196 36 -266 54q-146 38 -250 97q-85 150 -152 492q-37 -178 -58 -252
q-40 -140 -98 -240q-102 -57 -246 -95q-53 -14 -259 -56q228 -49 259 -57q147 -39 246 -99q57 -98 97 -238q15 -52 59 -251q34 176 55 251q39 139 97 238q101 61 251 100q133 28 265 56z" />
  </g>

</svg>
