<?xml version="1.0" standalone="no"?>
<!DOCTYPE svg PUBLIC "-//W3C//DTD SVG 1.1//EN" "http://www.w3.org/Graphics/SVG/1.1/DTD/svg11.dtd" >
<svg viewBox="0 -442 2048 2048">
  <g transform="matrix(1 0 0 -1 0 1606)">
   <path fill="currentColor"
d="M1948 482q-202 -7 -251 -69q-40 -50 -49 -259h-31q-6 124 -19 173q-26 100 -100 130q-46 18 -185 26v34q201 6 251 67q42 50 52 258h31q13 -171 21 -204q17 -67 74 -90q51 -21 206 -33v-33zM1428 800q-294 -14 -407 -52q-137 -48 -187 -178q-46 -118 -55 -408h-34
q-9 287 -54 406q-50 132 -186 181q-116 41 -405 51v34q289 11 402 49q134 46 185 175q46 116 57 402h36q-1 -270 54 -398t199 -178q120 -41 395 -50v-34zM1535 49q-104 -1 -148 -7q-98 -13 -131 -53q-26 -32 -40 -105q-9 -48 -22 -203h-29q-11 180 -24 228q-21 77 -87 105
q-60 26 -228 36v35q175 17 228 37q65 26 84 98q11 39 27 228h29q20 -197 28 -229q19 -74 82 -99q56 -22 231 -35v-36zM1716 498q-57 25 -86 83q-29 -56 -92 -83q63 -29 92 -89q29 61 86 89zM1067 817q-243 61 -307 289q-31 -125 -98.5 -192t-192.5 -97q125 -31 193.5 -99.5
t99.5 -193.5q32 128 104 197q70 66 201 96zM1278 70q-71 29 -98 101q-29 -74 -112 -103q81 -30 111 -101q27 73 99 103z" />
  </g>

</svg>
