<?xml version="1.0" standalone="no"?>
<!DOCTYPE svg PUBLIC "-//W3C//DTD SVG 1.1//EN" "http://www.w3.org/Graphics/SVG/1.1/DTD/svg11.dtd" >
<svg viewBox="0 -442 2048 2048">
  <g transform="matrix(1 0 0 -1 0 1606)">
   <path fill="currentColor"
d="M1579 713q0 -17 -39 -17l-553 -53l342 -422q18 -18 18 -26q0 -13 -12 -13q-8 0 -31 23l-411 344l-41 -545q-7 -33 -15 -33q-18 0 -18 39l-55 545l-422 -352q-23 -19 -27 -19q-14 0 -14 15q0 10 20 30l350 418l-536 39q-35 3 -35 16q0 9 39 17l530 53l-354 422
q-16 19 -16 27q0 14 12 14q8 0 31 -23l422 -346l43 547q6 31 14 31q12 0 16 -37l60 -547l428 369q19 16 26 16q15 0 15 -14q0 -8 -23 -31l-348 -426l551 -45q33 -3 33 -16z" />
  </g>

</svg>
