<?xml version="1.0" standalone="no"?>
<!DOCTYPE svg PUBLIC "-//W3C//DTD SVG 1.1//EN" "http://www.w3.org/Graphics/SVG/1.1/DTD/svg11.dtd" >
<svg viewBox="0 -442 2048 2048">
  <g transform="matrix(1 0 0 -1 0 1606)">
   <path fill="currentColor"
d="M1546 408q0 -13 -10 -13q-3 0 -33 6l-473 95l90 -465q4 -21 4 -31q0 -12 -12 -12q-13 0 -27 28l-266 377l-268 -379q-26 -26 -25 -26q-10 0 -10 10q0 4 2 15t2 16l84 467l-461 -78q-24 -4 -31 -4q-12 0 -12 10q0 8 31 29l383 258l-381 274l-29 29q0 10 12 10q4 0 17 -2
t16 -2l455 -84l-84 453q0 1 -2 16q-3 12 -1 18q2 9 11 9q11 0 25 -29l266 -377l258 371q14 28 27 28q12 0 12 -12q0 -5 -2 -16t-2 -15l-82 -446l475 84q41 7 41 -8q0 -10 -29 -25l-391 -276l391 -277q29 -21 29 -26z" />
  </g>

</svg>
