<?xml version="1.0" standalone="no"?>
<!DOCTYPE svg PUBLIC "-//W3C//DTD SVG 1.1//EN" "http://www.w3.org/Graphics/SVG/1.1/DTD/svg11.dtd" >
<svg viewBox="0 -442 2048 2048">
  <g transform="matrix(1 0 0 -1 0 1606)">
   <path fill="currentColor"
d="M1405 1010q0 -60 -56 -92q-20 -12 -108 -39q-179 -56 -307 -66l184 199q112 121 170 121q48 0 82.5 -37t34.5 -86zM860 1339q0 -76 -43 -209l-68 -210q-39 81 -76 208q-41 139 -41 209q0 44 33.5 74.5t77.5 30.5q117 0 117 -103zM1396 395q0 -46 -33.5 -83.5t-78.5 -37.5
q-51 0 -176 119l-166 195l297 -64q76 -16 107 -35q50 -31 50 -94zM923 702q0 -69 -50.5 -120.5t-119.5 -51.5q-73 0 -125.5 51t-52.5 124q0 71 50.5 123.5t121.5 52.5q73 0 124.5 -52.5t51.5 -126.5zM569 813q-137 11 -307 66q-87 28 -107 40q-55 32 -55 91q0 49 33.5 87
t81.5 38q56 0 170 -123zM860 76q0 -47 -33.5 -75t-83.5 -28q-45 0 -78 30.5t-33 74.5q0 71 41 210q36 124 76 208l68 -211q43 -133 43 -209zM563 588l-166 -197q-123 -117 -176 -117q-45 0 -80 37.5t-35 81.5q0 61 52 91q17 10 106 38z" />
  </g>

</svg>
