<?xml version="1.0" standalone="no"?>
<!DOCTYPE svg PUBLIC "-//W3C//DTD SVG 1.1//EN" "http://www.w3.org/Graphics/SVG/1.1/DTD/svg11.dtd" >
<svg viewBox="0 -442 2048 2048">
  <g transform="matrix(1 0 0 -1 0 1606)">
   <path fill="currentColor"
d="M1405 401q0 -49 -36.5 -83.5t-86.5 -34.5q-79 0 -204.5 129t-152.5 129q-2 0 -24 -11q-4 -3 -72 -39q-31 -16 -31 -53q0 -32 40 -143.5t40 -177.5q0 -59 -33 -101q-35 -45 -92 -45q-55 0 -91 42.5t-36 99.5q0 70 41 211q31 106 31 127q0 27 -29 36q-22 7 -55 33
q-31 23 -39 23q-36 0 -152.5 -132t-201.5 -132q-50 0 -84.5 36t-34.5 84q0 90 109 139q41 18 202 56q109 26 109 61q0 7 -2 22.5t-2 22.5q0 11 3 33t3 33q0 40 -110 65q-175 40 -204 52q-110 45 -110 131q0 51 35.5 88t87.5 37q65 0 144 -67q28 -25 120 -126q62 -67 88 -67
q12 0 28.5 13t73.5 39q25 11 25 50q0 40 -36 147.5t-36 163.5q0 63 30 105q34 47 95 47q42 0 78 -29q47 -38 47 -119q0 -65 -37.5 -178t-37.5 -147q0 -36 28 -45q23 -7 53 -32q26 -22 39 -22q45 0 127 99q138 166 226 166q50 0 86 -35.5t36 -85.5q0 -90 -109 -139
q-43 -19 -203 -57q-109 -26 -109 -60q0 -8 2 -25t2 -26t-3 -27t-3 -27q0 -40 111 -64q170 -35 206 -50q111 -46 111 -140zM899 709q0 63 -45 107t-109 44q-62 0 -103.5 -46t-41.5 -109t44.5 -106.5t106.5 -43.5q61 0 104.5 46t43.5 108z" />
  </g>

</svg>
