<?xml version="1.0" standalone="no"?>
<!DOCTYPE svg PUBLIC "-//W3C//DTD SVG 1.1//EN" "http://www.w3.org/Graphics/SVG/1.1/DTD/svg11.dtd" >
<svg viewBox="0 -442 2048 2048">
  <g transform="matrix(1 0 0 -1 0 1606)">
   <path fill="currentColor"
d="M1353 995q0 -77 -59 -131q-43 -39 -168 -57q-133 -19 -184 -31q-102 -24 -174 -67q117 -60 256 -80l131 -19q84 -12 137 -62q57 -53 57 -134q0 -28 -8 -76q-73 -66 -145 -66q-106 0 -199 131q-143 201 -248 261l-2 -29q-6 -85 68 -250l43 -96q30 -67 30 -121
q0 -154 -157 -197q-160 45 -160 189q0 46 33 135l31 84q65 176 65 264v21q-103 -60 -254 -271q-86 -121 -178 -121q-71 0 -158 66q-10 70 -10 86q0 153 217 186l111 17q160 24 254 82q-105 60 -308 90q-140 20 -190 47q-89 47 -80 158l6 75q90 66 156 66t124 -52
q33 -31 87 -108q129 -185 223 -229v45q0 81 -76 262q-59 141 -59 192q0 144 166 189q62 -21 105 -64q50 -50 50 -110q0 -59 -36 -144q-105 -248 -101 -370q33 13 62 39l125 139l61 80q98 129 186 129q71 0 158 -66q12 -52 12 -82z" />
  </g>

</svg>
