<?xml version="1.0" standalone="no"?>
<!DOCTYPE svg PUBLIC "-//W3C//DTD SVG 1.1//EN" "http://www.w3.org/Graphics/SVG/1.1/DTD/svg11.dtd" >
<svg viewBox="0 -442 2048 2048">
  <g transform="matrix(1 0 0 -1 0 1606)">
   <path fill="currentColor"
d="M1393 981q8 -122 -63 -178q-57 -45 -190 -60l-302 -34l302 -39q145 -19 199 -74q51 -53 51 -176q0 -35 -3 -80q-131 -72 -207 -72q-113 0 -202 115l-185 240l123 -279q43 -98 43 -147q0 -86 -66 -144q-40 -35 -143 -82q-100 52 -138 86q-68 60 -68 140q0 52 41 147
l120 279l-184 -240q-99 -129 -188 -129q-85 0 -224 86l-8 96q-1 14 -1 27q0 176 249 207l311 39l-309 34q-141 16 -195 74q-50 54 -50 177q0 35 3 81q130 92 213 92q92 0 195 -137l188 -250l-123 287q-45 105 -45 160q0 125 213 217q97 -46 137 -81q66 -58 66 -138
q0 -65 -39 -158l-121 -287l183 250q91 125 200 125q73 0 211 -80zM892 1198q0 147 -144 199q-145 -53 -145 -189q0 -43 29 -125l102 -288h29l102 288q27 76 27 115zM1353 420q0 94 -78 153q-49 37 -142 52l-299 49l-14 -29l197 -231q93 -109 192 -109q67 0 137 55zM795 709
q0 43 -47 43t-47 -43q0 -45 49 -45q45 0 45 45zM681 645l-19 29l-305 -49q-219 -35 -205 -211l4 -52q72 -57 138 -57q88 0 184 109z" />
  </g>

</svg>
