<?xml version="1.0" standalone="no"?>
<!DOCTYPE svg PUBLIC "-//W3C//DTD SVG 1.1//EN" "http://www.w3.org/Graphics/SVG/1.1/DTD/svg11.dtd" >
<svg viewBox="0 -442 2048 2048">
  <g transform="matrix(1 0 0 -1 0 1606)">
   <path fill="currentColor"
d="M1648 815q0 -114 -79 -201q-81 -90 -195 -90q-99 0 -144 31q-26 18 -36 18q-15 0 -15 -12q0 -20 45 -26q97 -12 168.5 -96t71.5 -181q0 -120 -82.5 -203.5t-202.5 -83.5q-129 0 -212 86.5t-83 216.5q0 6 2 21t2 22q0 25 -14 25t-14 -25q0 -7 2 -22.5t2 -22.5
q0 -114 -53 -186q-85 -115 -236 -115q-119 0 -204 85t-85 204q0 135 97 215q62 51 143 66q47 0 47 26q0 13 -18 13q-2 0 -59 -21.5t-109 -21.5q-116 0 -201.5 85.5t-85.5 200.5q0 116 84 202.5t201 86.5q92 0 162 -50q43 -32 87 -94q36 -50 46 -50t10 10q0 -2 -51.5 75
t-51.5 166q0 115 85 195t200 80q113 0 204 -83t91 -194q0 -48 -23 -109q-25 -68 -59 -97q-25 -25 -16 -46q18 0 35 35q30 62 106 106q73 42 143 42q121 0 208 -82t87 -201zM1122 662q0 102 -72.5 174.5t-175.5 72.5t-176.5 -72t-73.5 -173q0 -104 73.5 -176t178.5 -72
q101 0 173.5 72.5t72.5 173.5z" />
  </g>

</svg>
