<?xml version="1.0" standalone="no"?>
<!DOCTYPE svg PUBLIC "-//W3C//DTD SVG 1.1//EN" "http://www.w3.org/Graphics/SVG/1.1/DTD/svg11.dtd" >
<svg viewBox="0 -442 2048 2048">
  <g transform="matrix(1 0 0 -1 0 1606)">
   <path fill="currentColor"
d="M1626 813q0 -124 -77.5 -197.5t-196.5 -73.5q-14 0 -29 1l-146 12q273 -148 273 -324q0 -102 -80.5 -181t-182.5 -79q-260 0 -317 377q-18 -92 -27 -124q-20 -70 -51 -118q-86 -135 -227 -135q-111 0 -191.5 79.5t-80.5 189.5q0 108 80 189q51 52 176 122l-117 -6
q-133 -7 -227 61q-105 75 -105 207q0 114 75.5 191t190.5 77q137 0 305 -168q-73 180 -73 267q0 114 71 189t183 75q113 0 192 -72q82 -75 82 -186q0 -99 -76 -262q176 157 320 157q106 0 181 -80t75 -188zM1505 805q0 85 -59 139q-57 51 -142 51q-183 0 -274 -161l51 -62
l164 39q57 14 57 -12q0 -17 -45 -37l-151 -68v-82q79 -18 135 -18q105 0 180 52q84 58 84 159zM1054 1087q0 100 -48 164q-54 70 -150 70q-95 0 -146 -75q-45 -66 -45 -165q0 -109 80 -209l76 27l14 170q4 51 23 51q11 0 24 -51l27 -170l65 -27q80 110 80 215zM1341 276
q0 97 -82 175q-73 71 -174 96l-41 -58l90 -143q23 -28 23 -47q0 -16 -17 -16q-11 0 -45 34l-118 119l-68 -24q-2 -16 -2 -33q0 -109 70 -197q74 -94 180 -94q75 0 129.5 57t54.5 131zM690 831q-108 160 -271 160q-81 0 -138.5 -55t-57.5 -135q0 -97 88 -160q80 -57 182 -57
q40 0 131 26v82l-153 64q-52 15 -52 37q0 21 60 10l166 -31zM831 412l-74 24l-116 -127q-21 -28 -35 -28t-14 14t16 43l84 151l-47 60q-242 -86 -242 -277q0 -73 56.5 -128.5t129.5 -55.5q103 0 176 94q69 88 69 194q0 19 -3 36z" />
  </g>

</svg>
