<?xml version="1.0" standalone="no"?>
<!DOCTYPE svg PUBLIC "-//W3C//DTD SVG 1.1//EN" "http://www.w3.org/Graphics/SVG/1.1/DTD/svg11.dtd" >
<svg viewBox="0 -442 2048 2048">
  <g transform="matrix(1 0 0 -1 0 1606)">
   <path fill="currentColor"
d="M1573 709q0 -191 -205 -230q51 -82 51 -133q0 -78 -66 -150.5t-143 -72.5q-55 0 -149 49q-19 -90 -78 -144q-63 -57 -154 -57q-85 0 -145 60q-57 57 -68 143q-84 -53 -135 -53q-94 0 -162.5 68.5t-68.5 162.5q0 48 55 133q-85 11 -145 72t-60 145q0 186 205 228
q-53 93 -53 139q0 89 65 154t154 65q58 0 145 -53q11 96 71.5 152.5t155.5 56.5q87 0 146.5 -59t64.5 -146q82 53 136 53q98 0 165.5 -65.5t67.5 -163.5q0 -54 -55 -135q88 -13 146.5 -73t58.5 -146zM1370 1075q0 65 -50.5 113.5t-115.5 48.5q-117 0 -174 -131l-80 -184
l18 -13l109 170q55 86 123 86q47 0 74.5 -30t27.5 -76q0 -65 -88 -119l-172 -106l10 -21l187 84q131 59 131 178zM1005 1221q0 70 -50.5 121t-119.5 51q-74 0 -120 -54t-46 -129q0 -33 19 -86l67 -186l25 8l-39 191q-16 77 10 125q31 57 84 57q80 0 105 -82q11 -38 -4 -98
l-50 -197l25 -6l72 188q22 57 22 97zM1521 700q0 76 -52 125t-130 49q-28 0 -84 -22l-188 -74l4 -22l200 43q77 16 121 -8q56 -31 56 -93q0 -68 -72 -96q-38 -14 -98 0l-205 49l-6 -24l192 -74q55 -21 93 -21q41 0 81 23q88 51 88 145zM725 928l-80 182q-58 131 -176 131
q-66 0 -116 -50t-50 -116q0 -117 127 -174l182 -82l12 23l-172 100q-84 49 -84 119q0 42 31.5 75t73.5 33q79 0 127 -84l98 -172zM1020 707q0 76 -54.5 131t-130.5 55q-77 0 -131.5 -53.5t-54.5 -130.5t54 -132t132 -55q77 0 131 54t54 131zM1368 352q0 106 -123 158
l-195 82l-10 -21l178 -106q80 -48 80 -121q0 -38 -32.5 -70t-71.5 -32q-71 0 -119 80l-107 178l-22 -15l86 -186q57 -123 166 -123q73 0 121.5 51.5t48.5 124.5zM1007 195q0 34 -20 86l-74 192l-22 -4l45 -201q6 -26 6 -50q0 -122 -111 -122q-71 0 -98 76q-11 32 2 90
l47 205l-25 8l-71 -192q-19 -52 -19 -91q0 -49 29 -88q61 -81 137 -81q70 0 122 50.5t52 121.5zM602 784l-189 70q-55 20 -94 20q-44 0 -88 -24q-80 -45 -80 -145q0 -72 51.5 -119t122.5 -47q30 0 82 20l193 74l-4 24l-203 -51q-77 -19 -121 6q-47 34 -47 93q0 79 78 102
q37 11 96 -2l197 -43zM725 487l-25 15l-113 -180q-50 -80 -114 -80q-44 0 -73.5 31.5t-29.5 76.5q0 67 84 119l170 106l-8 21l-190 -82q-125 -54 -125 -164q0 -72 48 -124t120 -52q113 0 170 125z" />
  </g>

</svg>
