<?xml version="1.0" standalone="no"?>
<!DOCTYPE svg PUBLIC "-//W3C//DTD SVG 1.1//EN" "http://www.w3.org/Graphics/SVG/1.1/DTD/svg11.dtd" >
<svg viewBox="0 -442 2048 2048">
  <g transform="matrix(1 0 0 -1 0 1606)">
   <path fill="currentColor"
d="M1573 709q0 -305 -215 -521.5t-519 -216.5q-306 0 -522.5 215.5t-216.5 522.5q0 305 215.5 520t521.5 215q304 0 520 -215.5t216 -519.5zM1347 1219l-342 -140q139 -73 201 -205zM979 1090l-142 335l-141 -335q61 24 149 24q81 0 134 -24zM1554 705l-336 145
q25 -82 25 -148q0 -77 -25 -141zM675 1079l-337 148l131 -353q64 148 206 205zM1187 700q0 148 -101 254.5t-249 106.5q-144 0 -249 -100.5t-105 -243.5q0 -150 102 -255.5t252 -105.5q142 0 246 101t104 243zM1343 193l-135 339q-70 -134 -203 -196zM458 561
q-26 85 -26 141q0 63 26 148l-333 -145zM981 328q-72 -25 -148 -25q-62 0 -137 25l143 -342zM667 336q-135 73 -194 196l-131 -339z" />
  </g>

</svg>
