<?xml version="1.0" standalone="no"?>
<!DOCTYPE svg PUBLIC "-//W3C//DTD SVG 1.1//EN" "http://www.w3.org/Graphics/SVG/1.1/DTD/svg11.dtd" >
<svg viewBox="0 -442 2048 2048">
  <g transform="matrix(1 0 0 -1 0 1606)">
   <path fill="currentColor"
d="M1409 965q0 -115 -164 -170q-114 -38 -303 -68l-115 -18l100 -17q106 -17 303 -63q177 -56 177 -174q0 -56 -13 -115q-106 -96 -172 -96q-83 0 -234 162q-14 14 -198 235q144 -341 144 -481q0 -85 -48 -126q-28 -25 -127 -63q-97 33 -131 58q-59 44 -59 123q0 88 55 247
q8 21 94 242l-94 -117q-223 -278 -336 -278q-59 0 -172 94q-16 72 -16 111q0 117 154 167l309 68l123 23l-357 69q-229 44 -229 191q0 40 16 108q97 97 164 97q118 0 344 -281l94 -117l-94 244q-55 159 -55 248q0 76 60 120q38 27 130 56q101 -38 128 -61q47 -41 47 -128
q0 -138 -144 -479q99 118 198 237q150 161 236 161q63 0 170 -97q15 -67 15 -112zM1347 1055q-49 71 -100 71q-94 0 -237 -151q-96 -115 -193 -230zM759 786v613q-78 -8 -110.5 -41t-32.5 -111q0 -93 52 -235q45 -113 91 -226zM1372 449q0 108 -229 171q-76 21 -322 58
l530 -303q21 50 21 74zM686 748l-531 307q-22 -53 -22 -80q0 -74 117 -127q85 -39 239 -68q98 -16 197 -32zM893 160q0 152 -134 473v-610q134 6 134 137zM690 680l-529 -307q49 -74 105 -74q153 0 424 381z" />
  </g>

</svg>
