<?xml version="1.0" standalone="no"?>
<!DOCTYPE svg PUBLIC "-//W3C//DTD SVG 1.1//EN" "http://www.w3.org/Graphics/SVG/1.1/DTD/svg11.dtd" >
<svg viewBox="0 -442 2048 2048">
  <g transform="matrix(1 0 0 -1 0 1606)">
   <path fill="currentColor"
d="M1360 389l-50 -74l-196 117l8 -217l-61 21l-19 241l-278 166v-328l210 -139l-26 -61l-184 121l4 -236h-78l4 236l-184 -121l-27 61l211 139v328l-277 -166l-20 -241l-61 -21l8 217l-197 -117l-47 74l203 115l-195 94l39 55l225 -110l293 166l-293 163l-225 -108l-39 55
l195 92l-203 117l47 72l197 -117l-8 219l61 -20l20 -244l277 -166v328l-211 141l27 62l184 -121l-4 235h78l-4 -235l184 121l26 -62l-210 -141v-328l278 166l19 244l61 20l-8 -219l196 117l50 -72l-203 -117l192 -92l-39 -55l-225 108l-293 -163l293 -166l225 110l39 -55
l-192 -94z" />
  </g>

</svg>
