<?xml version="1.0" standalone="no"?>
<!DOCTYPE svg PUBLIC "-//W3C//DTD SVG 1.1//EN" "http://www.w3.org/Graphics/SVG/1.1/DTD/svg11.dtd" >
<svg viewBox="0 -442 2048 2048">
  <g transform="matrix(1 0 0 -1 0 1606)">
   <path fill="currentColor"
d="M1382 399q0 -5 -14 -20l-19 -21l-6 -14q-13 -31 -18 -31q-12 0 -29 17l-242 147v-315l-276 155l14 -278q1 -28 1 -27q0 -14 -29 -10l-29 4l-17 -2q-38 -8 -38 4v31l18 278l-272 -155v315l-238 -147q-28 -17 -31 -17q-6 0 -14 23l-10 22l-13 13q-20 27 -20 28q0 6 14 14
q7 3 15 7l252 131l-267 158l267 153l-252 129q-29 15 -29 21q0 8 12 20l15 21l4 14l6 18q5 13 12 13q12 0 29 -17l248 -145v311l272 -155l-18 286q-1 8 -1 21q-1 13 4 15q4 2 23 -1l25 -4l18 2l10.5 2t16.5 1q8 -1 8 -7v-29l-6 -284l276 153v-311l234 158q18 18 29 18
q5 0 14 -22l10 -25l12 -12q21 -31 21 -29q0 -6 -29 -23l-244 -139l269 -153l-269 -158l252 -131q29 -15 29 -21zM1015 920v258l-235 -134v-270zM1286 709l-232 127l-239 -127l239 -134zM698 774v270l-231 134v-269zM1015 233v271l-235 137v-276zM657 709l-231 127l-230 -127
l230 -134zM698 365v276l-231 -137v-271z" />
  </g>

</svg>
