<?xml version="1.0" standalone="no"?>
<!DOCTYPE svg PUBLIC "-//W3C//DTD SVG 1.1//EN" "http://www.w3.org/Graphics/SVG/1.1/DTD/svg11.dtd" >
<svg viewBox="0 -442 2048 2048">
  <g transform="matrix(1 0 0 -1 0 1606)">
   <path fill="currentColor"
d="M1370 549l-193 -68l185 -104l-31 -47l-184 106l45 -200l-109 -19l-98 322l-223 123v-252l223 -250l-64 -88l-159 145l8 -217h-72l10 217l-162 -145l-61 88l223 250v252l-223 -123l-98 -322l-111 19l45 200l-184 -106l-29 47l185 104l-193 68l37 102l330 -73l217 131
l-217 131l-330 -74l-37 102l193 68l-185 104l29 47l184 -108l-45 201l111 18l98 -319l223 -125v252l-223 249l61 91l162 -148l-10 219h72l-8 -219l159 148l64 -91l-223 -249v-252l223 125l98 319l109 -18l-45 -201l184 108l31 -47l-185 -104l193 -68l-39 -102l-328 74
l-219 -131l219 -131l328 73z" />
  </g>

</svg>
