<?xml version="1.0" standalone="no"?>
<!DOCTYPE svg PUBLIC "-//W3C//DTD SVG 1.1//EN" "http://www.w3.org/Graphics/SVG/1.1/DTD/svg11.dtd" >
<svg viewBox="0 -442 2048 2048">
  <g transform="matrix(1 0 0 -1 0 1606)">
   <path fill="currentColor"
d="M1470 1309l-407 -410l-45 39l405 414zM1568 709q-24 -88 -61 -126q-45 -46 -133 -46q-50 0 -111 28l-102 56l-76 41q-63 34 -63 47q0 11 20 18q81 49 161 97q100 59 171 59q146 0 194 -174zM1005 1253q0 -72 -80 -209l-45 -77q-42 -72 -51 -72q-6 0 -29 41l-59 104
q-82 145 -82 201q0 167 178 203q168 -45 168 -191zM651 938l-45 -39l-404 410l43 43zM1480 119l-43 -43l-413 401l41 47zM1001 709q0 -71 -49 -120.5t-119 -49.5q-69 0 -118.5 49.5t-49.5 118.5q0 70 48 120t118 50q71 0 120.5 -49t49.5 -119zM649 707q0 -2 -37 -27
q-77 -45 -153 -90q-91 -51 -166 -51q-151 0 -193 170q43 176 186 176q75 0 166 -52l152 -94q45 -30 45 -32zM1007 170q0 -142 -176 -199q-170 53 -170 201q0 68 54 158q46 75 92 149q29 43 30 43q23 0 39 -63q1 -1 83 -136q48 -78 48 -153zM651 477l-410 -401l-45 43
l410 405z" />
  </g>

</svg>
