<?xml version="1.0" standalone="no"?>
<!DOCTYPE svg PUBLIC "-//W3C//DTD SVG 1.1//EN" "http://www.w3.org/Graphics/SVG/1.1/DTD/svg11.dtd" >
<svg viewBox="0 -442 2048 2048">
  <g transform="matrix(1 0 0 -1 0 1606)">
   <path fill="currentColor"
d="M1417 434q0 -75 -51.5 -125.5t-126.5 -50.5t-128 53.5t-53 128.5q0 14 9 54l-273 155v-319q62 -20 102 -65q44 -49 44 -111q0 -76 -52.5 -129.5t-128.5 -53.5q-78 0 -129 53t-51 130q0 60 44 110q40 47 100 66v319l-273 -155q10 -33 10 -64q0 -68 -54 -120t-122 -52
q-75 0 -128 47q-56 48 -56 123q0 74 51 130t123 56q86 0 145 -65l269 160l-269 157q-62 -65 -141 -65q-72 0 -125 54t-53 126q0 76 52 126t128 50q75 0 127.5 -52.5t52.5 -127.5q0 -26 -10 -53l273 -158v321q-61 18 -101 64q-43 50 -43 111q0 77 51.5 129.5t128.5 52.5
t129 -52.5t52 -129.5q0 -61 -44 -111q-41 -46 -102 -64v-321l273 158q-9 30 -9 61q0 69 53.5 120.5t123.5 51.5q75 0 128.5 -47.5t53.5 -122.5q0 -74 -50 -129t-124 -55q-84 0 -144 63l-268 -157l268 -160q62 65 140 65q73 0 125.5 -53.5t52.5 -126.5z" />
  </g>

</svg>
