<?xml version="1.0" standalone="no"?>
<!DOCTYPE svg PUBLIC "-//W3C//DTD SVG 1.1//EN" "http://www.w3.org/Graphics/SVG/1.1/DTD/svg11.dtd" >
<svg viewBox="0 -442 2048 2048">
  <g transform="matrix(1 0 0 -1 0 1606)">
   <path fill="currentColor"
d="M1382 1169q0 -44 -30 -72q-8 -7 -68 -46l-250 -160l-21 20l162 254q38 59 45 67q28 30 72 30q37 0 63.5 -28t26.5 -65zM1577 709q0 -35 -28.5 -63t-64.5 -28q-24 0 -81 13l-295 67v29l295 59q65 13 79 13q37 0 66 -27t29 -63zM931 1350q0 -5 -16 -80l-63 -295h-29
l-74 338q-10 44 0 71q21 60 84 60q39 0 68.5 -28t29.5 -66zM659 909l-16 -18l-256 160q-55 35 -66 44q-33 30 -33 70t27.5 66t67.5 26q41 0 69 -30q6 -7 43 -64zM1386 252q0 -39 -27 -66.5t-67 -27.5q-48 0 -80 49l-197 305l19 16l260 -166q54 -35 63 -43q29 -27 29 -67z
M1032 711q0 -83 -55.5 -142t-137.5 -59q-80 0 -138 57t-58 138t56 138.5t138 57.5q79 0 137 -56t58 -134zM934 61q0 -36 -30.5 -63t-68.5 -27q-33 0 -61.5 28.5t-28.5 61.5q0 12 14 80l62 301h29l69 -301q15 -65 15 -80zM569 698l-342 -84q-41 -10 -68 2q-59 26 -59 93
q0 37 28 60.5t66 23.5q-2 0 84 -15l291 -51v-29zM659 512l-188 -293q-35 -55 -92 -55q-37 0 -63 25.5t-26 62.5q0 39 30 67q9 8 63 43l256 166z" />
  </g>

</svg>
