<?xml version="1.0" standalone="no"?>
<!DOCTYPE svg PUBLIC "-//W3C//DTD SVG 1.1//EN" "http://www.w3.org/Graphics/SVG/1.1/DTD/svg11.dtd" >
<svg viewBox="0 -442 2048 2048">
  <g transform="matrix(1 0 0 -1 0 1606)">
   <path fill="currentColor"
d="M1564 709q0 -107 -116 -107q-20 0 -86 10l-371 56l-19 -47l351 -234q69 -46 69 -106q0 -50 -31 -86q-32 -39 -81 -39q-52 0 -87 30q-18 15 -59 72l-221 305l-41 -18l74 -408q10 -54 0 -86q-24 -80 -113 -80q-75 0 -110 68q-18 35 -9 86l76 420l-45 18l-215 -297
q-80 -110 -131 -110q-47 0 -80 32t-33 77q0 11 2 22q13 65 91 119l309 215l-19 45l-364 -52q-84 -12 -90 -12q-115 0 -115 107q0 52 37 87t88 35q21 0 82 -12l362 -71l19 43l-303 200q-62 41 -78 57q-35 36 -35 87t36.5 83.5t88.5 32.5q41 0 78 -38q10 -10 55 -72l215 -293
l45 20l-74 410q-10 54 -2 82q23 84 111 84q51 0 85 -38t34 -89q0 -25 -10 -84l-62 -365l41 -20l234 340q54 78 122 78q47 0 81 -38t34 -85q0 -64 -65 -109l-347 -241l19 -45l366 71q62 12 86 12q49 0 85 -35t36 -87z" />
  </g>

</svg>
