<?xml version="1.0" standalone="no"?>
<!DOCTYPE svg PUBLIC "-//W3C//DTD SVG 1.1//EN" "http://www.w3.org/Graphics/SVG/1.1/DTD/svg11.dtd" >
<svg viewBox="0 -442 2048 2048">
  <g transform="matrix(1 0 0 -1 0 1606)">
   <path fill="currentColor"
d="M1339 994q0 -173 -129 -301q-21 -21 -235 -177q-124 -90 -118 -174h-395q0 171 121 309q57 66 224 190q121 90 121 142q0 68 -78 101q-57 24 -136 24q-110 0 -311 -53q-178 -46 -303 -99v387q104 44 302 81q192 36 312 36q234 0 415 -113q210 -132 210 -353zM885 -2
q0 -93 -66.5 -159.5t-159.5 -66.5t-159 66.5t-66 159.5t66 159.5t159 66.5t159.5 -66.5t66.5 -159.5z" />
  </g>

</svg>
