<?xml version="1.0" standalone="no"?>
<!DOCTYPE svg PUBLIC "-//W3C//DTD SVG 1.1//EN" "http://www.w3.org/Graphics/SVG/1.1/DTD/svg11.dtd" >
<svg viewBox="0 -442 2048 2048">
  <g transform="matrix(1 0 0 -1 0 1606)">
   <path fill="currentColor"
d="M1325 846q0 -131 -92 -219t-224 -88q-203 0 -291 211q-28 -90 -109.5 -150t-176.5 -61q-150 -1 -244 108q-88 103 -88 256q0 230 175 390t405 151l41 -51q-142 3 -269 -67q-139 -77 -180 -204q78 39 145 39q184 0 279 -164q50 200 200.5 323.5t354.5 123.5h18l41 -51
q-135 3 -268 -69q-145 -80 -180 -202q78 39 151 39q130 0 221 -92.5t91 -222.5z" />
  </g>

</svg>
