<?xml version="1.0" standalone="no"?>
<!DOCTYPE svg PUBLIC "-//W3C//DTD SVG 1.1//EN" "http://www.w3.org/Graphics/SVG/1.1/DTD/svg11.dtd" >
<svg viewBox="0 -442 2048 2048">
  <g transform="matrix(1 0 0 -1 0 1606)">
   <path fill="currentColor"
d="M1325 1079q0 -229 -175 -388.5t-405 -151.5l-41 51q142 -3 269 67q139 76 180 203q-82 -41 -146 -41q-180 0 -280 166q-48 -200 -198 -322q-153 -124 -357 -124h-17l-41 51q137 -2 268 70q144 79 179 200q-81 -37 -150 -37q-130 0 -220.5 92t-90.5 222q0 131 91.5 219
t221.5 88q208 0 291 -211q29 91 111.5 151t177.5 60q150 0 244 -109q88 -103 88 -256z" />
  </g>

</svg>
