<?xml version="1.0" standalone="no"?>
<!DOCTYPE svg PUBLIC "-//W3C//DTD SVG 1.1//EN" "http://www.w3.org/Graphics/SVG/1.1/DTD/svg11.dtd" >
<svg viewBox="0 -442 2048 2048">
  <g transform="matrix(1 0 0 -1 0 1606)">
   <path fill="currentColor"
d="M1456 1347l-37 -53q-88 -37 -293 -37h-31v-696q0 -409 -59 -576q-54 -153 -162 -246q-118 -102 -272 -102q-140 0 -239 81q-105 87 -105 224q0 97 64.5 168.5t160.5 71.5q65 0 117.5 -46t52.5 -110q0 -56 -31 -93q-33 -40 -88 -40q-69 0 -69 -59q0 -61 61 -98
q53 -31 117 -31q119 0 208 93q75 79 113 204.5t43 431.5l-350 -27q-19 -1 -39 -1q-192 0 -340 110q-178 133 -178 356q0 135 66.5 244t185.5 168q128 63 493 63h162v213l88 21v-234h361zM1009 469v786h-194q-31 -223 -31 -372q0 -60 4 -115l19 -238q110 -53 202 -61z" />
  </g>

</svg>
