<?xml version="1.0" standalone="no"?>
<!DOCTYPE svg PUBLIC "-//W3C//DTD SVG 1.1//EN" "http://www.w3.org/Graphics/SVG/1.1/DTD/svg11.dtd" >
<svg viewBox="0 -442 2048 2048">
  <g transform="matrix(1 0 0 -1 0 1606)">
   <path fill="currentColor"
d="M985 1151q0 -91 -49 -170q-32 -52 -66 -77q-24 -17 -90 -46q-108 -47 -154 -91q-55 -54 -84 -157q-29 103 -83 156q-45 44 -154 92q-64 28 -84 42q-35 23 -66 69q-55 82 -55 194q0 178 131 241q88 42 287 42q236 0 320 -35q147 -60 147 -260zM833 262q0 -120 -85 -205.5
t-206 -85.5q-120 0 -205 85.5t-85 205.5q0 121 85 206t205 85q121 0 206 -85t85 -206z" />
  </g>

</svg>
