<?xml version="1.0" standalone="no"?>
<!DOCTYPE svg PUBLIC "-//W3C//DTD SVG 1.1//EN" "http://www.w3.org/Graphics/SVG/1.1/DTD/svg11.dtd" >
<svg viewBox="0 -442 2048 2048">
  <g transform="matrix(1 0 0 -1 0 1606)">
   <path fill="currentColor"
d="M1071 1169q0 -103 -41 -178q-46 -84 -164 -135q-223 -96 -281 -248q-34 93 -110 154q-57 45 -168 94q-62 27 -85 43q-35 24 -65 70q-57 86 -57 186q0 121 59 201q65 88 183 88q91 0 161 -77q62 -69 82 -165q26 99 85 165q69 77 161 77q112 0 178 -84q62 -77 62 -191z
M878 262q0 -120 -85.5 -205.5t-205.5 -85.5q-121 0 -205.5 85.5t-84.5 205.5q0 121 85 206t205 85t205.5 -85t85.5 -206z" />
  </g>

</svg>
