<?xml version="1.0" standalone="no"?>
<!DOCTYPE svg PUBLIC "-//W3C//DTD SVG 1.1//EN" "http://www.w3.org/Graphics/SVG/1.1/DTD/svg11.dtd" >
<svg viewBox="0 -442 2048 2048">
  <g transform="matrix(1 0 0 -1 0 1606)">
   <path fill="currentColor"
d="M1748 1292q0 -136 -158 -249q-145 -104 -287 -104q-92 0 -208 52l-147 -322q-7 15 -7 45q0 134 76 313l-300 180q-203 118 -310 118q-86 0 -153.5 -64.5t-67.5 -149.5q0 -47 29.5 -89.5t29.5 -49.5q0 -30 -33 -56.5t-64 -26.5q-88 0 -88 102q0 142 137 283t278 141
q124 0 299 -129l-10 76q81 92 170 92q91 0 151 -78q54 -71 54 -165q0 -50 -20 -141q111 -71 230 -71q72 0 129 41q62 45 62 114q0 57 -39 90t-39 58q0 65 38.5 111t102.5 46q66 0 107 -52q38 -48 38 -115zM1552 523q0 -180 -152 -299q-33 -25 -282 -157q-152 -81 -152 -169
q0 -54 41 -92.5t95 -38.5q155 0 193 162q4 22 8.5 43t21.5 38q10 10 45 10q41 0 72 -22q35 -25 35 -65q0 -108 -143 -175q-116 -53 -239 -53q-301 0 -527 218q-229 220 -229 520q0 181 78 304q92 146 263 146q110 0 180 -85q67 -81 60 -192l23 -9q127 221 320 221
q126 0 209 -90q80 -88 80 -215zM1043 1182q0 66 -35 122q-41 64 -103 64q-80 0 -80 -87q0 -94 204 -191q14 42 14 92z" />
  </g>

</svg>
