<?xml version="1.0" standalone="no"?>
<!DOCTYPE svg PUBLIC "-//W3C//DTD SVG 1.1//EN" "http://www.w3.org/Graphics/SVG/1.1/DTD/svg11.dtd" >
<svg viewBox="0 -442 2048 2048">
  <g transform="matrix(1 0 0 -1 0 1606)">
   <path fill="currentColor"
d="M2024 544q0 -48 -31 -102q-119 -209 -309 -322q-193 -114 -431 -114q-204 0 -369 80q-208 100 -208 281q0 142 168 227q-76 136 -267 137q2 -134 -115 -254q-98 -99 -241 -158q23 -112 133 -112q67 0 117 48q1 -11 4 -46q3 -29 3 -47q0 -69 -49 -108q-44 -36 -115 -36
q-93 0 -157.5 67t-70.5 161q-30 4 -62 18q15 69 59 116q4 146 134 266q119 109 271 138q-29 59 -136 79q-138 25 -163 40q-70 42 -70 129q0 155 207 159q-38 -30 -38 -80q0 -67 122 -153q137 -96 165 -172q28 4 52 4q126 0 257 -116l5 6q-48 90 -48 167q0 109 84 177
q77 63 189 63q110 0 193 -52q148 -93 199 -246q11 -31 45 -252q20 -132 94 -175q31 -18 77 -18q64 0 107.5 42.5t43.5 107.5q0 44 -22 84q32 54 86 54q87 0 87 -88zM514 690q0 21 -6 40q-115 -5 -206.5 -94.5t-91.5 -203.5v-14q105 33 193 100q111 84 111 172z" />
  </g>

</svg>
