<?xml version="1.0" standalone="no"?>
<!DOCTYPE svg PUBLIC "-//W3C//DTD SVG 1.1//EN" "http://www.w3.org/Graphics/SVG/1.1/DTD/svg11.dtd" >
<svg viewBox="0 -442 2048 2048">
  <g transform="matrix(1 0 0 -1 0 1606)">
   <path fill="currentColor"
d="M1998 582q0 -406 -284 -690t-690 -284t-690 284t-284 690t284 690t690 284t690 -284t284 -690zM1405 412h-82q-14 -86 -31 -122q-31 -63 -98 -63h-374q72 80 280 232q135 99 196 173q90 112 90 239q0 139 -106 223q-98 78 -241 78q-151 0 -251 -81q-107 -88 -107 -235
q0 -75 30 -128q37 -63 107 -63q56 0 94 36.5t38 92.5q0 57 -43 85q-9 5 -81 31q-43 16 -43 44q0 60 66 99q57 34 121 34q170 0 170 -210q0 -136 -95 -286q-58 -91 -205 -255t-197 -244v-69h737z" />
  </g>

</svg>
