<?xml version="1.0" standalone="no"?>
<!DOCTYPE svg PUBLIC "-//W3C//DTD SVG 1.1//EN" "http://www.w3.org/Graphics/SVG/1.1/DTD/svg11.dtd" >
<svg viewBox="0 -442 2048 2048">
  <g transform="matrix(1 0 0 -1 0 1606)">
   <path fill="currentColor"
d="M1998 582q0 -406 -284 -690t-690 -284t-690 284t-284 690t284 690t690 284t690 -284t284 -690zM1397 318q0 236 -267 307q224 91 224 267q0 136 -110 213q-97 67 -239 67q-124 0 -213 -63q-99 -72 -99 -191q0 -57 32 -97q34 -43 90 -43q49 0 82.5 32t33.5 81t-45.5 89
t-45.5 54q0 58 114 58q174 0 174 -220q0 -215 -155 -215q-12 0 -36.5 3t-36.5 3q-56 0 -56 -50q0 -49 47 -49q15 0 45.5 6t45.5 6q171 0 171 -252q0 -253 -195 -253q-49 0 -101 21q-64 27 -64 68q0 15 55.5 55t55.5 97q0 51 -34.5 83.5t-85.5 32.5q-65 0 -101 -48
q-32 -42 -32 -109q0 -139 110 -213q95 -65 240 -65q169 0 275 76q121 87 121 249z" />
  </g>

</svg>
