<?xml version="1.0" standalone="no"?>
<!DOCTYPE svg PUBLIC "-//W3C//DTD SVG 1.1//EN" "http://www.w3.org/Graphics/SVG/1.1/DTD/svg11.dtd" >
<svg viewBox="0 -442 2048 2048">
  <g transform="matrix(1 0 0 -1 0 1606)">
   <path fill="currentColor"
d="M1998 582q0 -406 -284 -690t-690 -284t-690 284t-284 690t284 690t690 284t690 -284t284 -690zM1394 390q0 164 -106 270t-270 106q-96 0 -215 -54l17 223q96 -16 177 -16q192 0 278 123q42 60 42 114q0 16 -12 16q-4 0 -34 -10q-79 -26 -184 -26q-141 0 -325 37
l-35 -519q-42 -59 -42 -94q0 -48 50 -48q59 0 59 111q96 55 169 55q181 0 181 -284q0 -321 -195 -321q-49 0 -97 18q-62 23 -62 63q0 12 61.5 49.5t61.5 97.5q0 50 -35 83t-86 33q-65 0 -103 -48q-35 -44 -35 -111q0 -125 104 -199q92 -66 223 -66q182 0 297.5 108
t115.5 289z" />
  </g>

</svg>
