<?xml version="1.0" standalone="no"?>
<!DOCTYPE svg PUBLIC "-//W3C//DTD SVG 1.1//EN" "http://www.w3.org/Graphics/SVG/1.1/DTD/svg11.dtd" >
<svg viewBox="0 -442 2048 2048">
  <g transform="matrix(1 0 0 -1 0 1606)">
   <path fill="currentColor"
d="M1998 582q0 -406 -284 -690t-690 -284t-690 284t-284 690t284 690t690 284t690 -284t284 -690zM1414 386q0 163 -91 246t-208 83q-123 0 -228 -112v19q0 478 213 478q69 0 69 -45q0 -10 -16.5 -44t-16.5 -60q0 -48 30.5 -81t78.5 -33q56 0 91 38.5t35 94.5q0 97 -91 153
q-77 49 -180 49q-191 0 -321 -161q-145 -180 -145 -477q0 -222 88 -367q106 -174 315 -174q173 0 276 111q101 108 101 282zM1180 348q0 -279 -145 -279q-83 0 -122 106q-27 75 -27 176q0 127 47 191.5t110 64.5q137 0 137 -259z" />
  </g>

</svg>
