<?xml version="1.0" standalone="no"?>
<!DOCTYPE svg PUBLIC "-//W3C//DTD SVG 1.1//EN" "http://www.w3.org/Graphics/SVG/1.1/DTD/svg11.dtd" >
<svg viewBox="0 -442 2048 2048">
  <g transform="matrix(1 0 0 -1 0 1606)">
   <path fill="currentColor"
d="M1998 582q0 -406 -284 -690t-690 -284t-690 284t-284 690t284 690t690 284t690 -284t284 -690zM1414 363q0 125 -69 204q-57 64 -184 118q198 102 198 248q0 114 -114 182q-96 57 -219 57q-143 0 -244 -88q-105 -92 -105 -233q0 -186 214 -288q-257 -87 -257 -276
q0 -147 121 -226q103 -68 258 -68q176 0 286 96q115 101 115 274zM1211 908q0 -117 -113 -201q-122 44 -170 76q-91 60 -91 150q0 76 53 123q51 44 128 44q87 0 140 -52.5t53 -139.5zM1264 274q0 -96 -70 -153q-64 -53 -163 -53q-104 0 -162 62.5t-58 167.5q0 172 151 236
q181 -70 239 -121q63 -56 63 -139z" />
  </g>

</svg>
