<?xml version="1.0" standalone="no"?>
<!DOCTYPE svg PUBLIC "-//W3C//DTD SVG 1.1//EN" "http://www.w3.org/Graphics/SVG/1.1/DTD/svg11.dtd" >
<svg viewBox="0 -442 2048 2048">
  <g transform="matrix(1 0 0 -1 0 1606)">
   <path fill="currentColor"
d="M1998 582q0 -406 -284 -690t-690 -284t-690 284t-284 690t284 690t690 284t690 -284t284 -690zM1414 643q0 218 -87 359q-105 170 -310 170q-176 0 -279.5 -110t-103.5 -287q0 -136 80 -226q83 -95 217 -95q106 0 232 104q-3 -350 -114 -446q-51 -44 -104 -44
q-69 0 -69 42q0 15 17 50t17 57q0 49 -32 83t-80 34q-56 0 -91 -40.5t-35 -97.5q0 -94 95 -152q82 -51 182 -51q189 0 318 163q147 185 147 487zM1168 841q0 -106 -31 -179q-43 -100 -134 -100q-138 0 -138 250q0 287 151 287q152 0 152 -258z" />
  </g>

</svg>
