<?xml version="1.0" standalone="no"?>
<!DOCTYPE svg PUBLIC "-//W3C//DTD SVG 1.1//EN" "http://www.w3.org/Graphics/SVG/1.1/DTD/svg11.dtd" >
<svg viewBox="0 -442 2048 2048">
  <g transform="matrix(1 0 0 -1 0 1606)">
   <path fill="currentColor"
d="M1998 582q0 -406 -284 -690t-690 -284t-690 284t-284 690t284 690t690 284t690 -284t284 -690zM1741 581q0 215 -72 377q-94 214 -281 214q-196 0 -292 -213q-72 -160 -72 -384q0 -208 75 -372q98 -210 281 -210q192 0 288 210q73 160 73 378zM867 17v75q-57 0 -72 5
q-35 11 -35 56v992h-59q-103 -56 -162 -75q-73 -24 -176 -31v-72h119q63 0 63 -54v-736q0 -66 -46 -80q-14 -5 -103 -5v-75h471zM1495 585q0 -514 -115 -514q-110 0 -110 485q0 541 115 541q110 0 110 -512z" />
  </g>

</svg>
