<?xml version="1.0" standalone="no"?>
<!DOCTYPE svg PUBLIC "-//W3C//DTD SVG 1.1//EN" "http://www.w3.org/Graphics/SVG/1.1/DTD/svg11.dtd" >
<svg viewBox="0 -442 2048 2048">
  <g transform="matrix(1 0 0 -1 0 1606)">
   <path fill="currentColor"
d="M1998 582q0 -406 -284 -690t-690 -284t-690 284t-284 690t284 690t690 284t690 -284t284 -690zM1898 582q0 364 -255 619t-619 255t-619 -255t-255 -619t255 -619t619 -255t619 255t255 619zM1412 368q0 -171 -132 -263q-115 -81 -293 -81q-197 0 -351 68v193h20
q148 -93 304 -93q238 0 238 189q0 114 -110 145q-48 14 -203 14v156q136 0 190 17q104 31 104 134q0 127 -199 127q-146 0 -296 -93h-17v191q155 68 334 68q157 0 257 -53q129 -67 129 -210q0 -89 -58.5 -157.5t-147.5 -86.5v-11q231 -35 231 -254z" />
  </g>

</svg>
