<?xml version="1.0" standalone="no"?>
<!DOCTYPE svg PUBLIC "-//W3C//DTD SVG 1.1//EN" "http://www.w3.org/Graphics/SVG/1.1/DTD/svg11.dtd" >
<svg viewBox="0 -442 2048 2048">
  <g transform="matrix(1 0 0 -1 0 1606)">
   <path fill="currentColor"
d="M1998 582q0 -406 -284 -690t-690 -284t-690 284t-284 690t284 690t690 284t690 -284t284 -690zM1898 582q0 364 -255 619t-619 255t-619 -255t-255 -619t255 -619t619 -255t619 255t255 619zM1407 398q0 -180 -129 -281q-117 -93 -302 -93q-194 0 -335 63v195h21
q147 -90 292 -90q240 0 240 202q0 175 -268 175q-65 0 -116 -8q-42 -9 -126 -21v578h704v-165h-504v-230q52 4 118 4q405 0 405 -329z" />
  </g>

</svg>
