<?xml version="1.0" standalone="no"?>
<!DOCTYPE svg PUBLIC "-//W3C//DTD SVG 1.1//EN" "http://www.w3.org/Graphics/SVG/1.1/DTD/svg11.dtd" >
<svg viewBox="0 -442 2048 2048">
  <g transform="matrix(1 0 0 -1 0 1606)">
   <path fill="currentColor"
d="M1998 582q0 -406 -284 -690t-690 -284t-690 284t-284 690t284 690t690 284t690 -284t284 -690zM1898 582q0 364 -255 619t-619 255t-619 -255t-255 -619t255 -619t619 -255t619 255t255 619zM1441 345q0 -157 -135 -247q-118 -77 -283 -77q-170 0 -283 72
q-133 85 -133 246q0 177 205 264v5q-176 86 -176 248q0 140 130 220q110 67 259 67q152 0 258 -59q130 -73 130 -213q0 -164 -185 -245v-5q213 -85 213 -276zM1207 855q0 71 -58 110q-49 33 -124 33q-70 0 -119 -30q-60 -35 -60 -100q0 -64 109 -129q56 -34 158 -65
q94 78 94 181zM1230 332q0 56 -27.5 93t-127.5 78q-73 26 -147 53q-112 -75 -112 -195q0 -89 64 -143q61 -51 152 -51q83 0 137 40q61 45 61 125z" />
  </g>

</svg>
