<?xml version="1.0" standalone="no"?>
<!DOCTYPE svg PUBLIC "-//W3C//DTD SVG 1.1//EN" "http://www.w3.org/Graphics/SVG/1.1/DTD/svg11.dtd" >
<svg viewBox="0 -442 2048 2048">
  <g transform="matrix(1 0 0 -1 0 1606)">
   <path fill="currentColor"
d="M1998 582q0 -406 -284 -690t-690 -284t-690 284t-284 690t284 690t690 284t690 -284t284 -690zM1898 582q0 364 -255 619t-619 255t-619 -255t-255 -619t255 -619t619 -255t619 255t255 619zM1433 645q0 -286 -134 -447q-145 -173 -425 -173q-95 0 -162 18v174h17
q67 -32 158 -32q145 0 230.5 81t100.5 227q-126 -75 -252 -75q-162 0 -256 90t-94 252q0 171 117 277q113 103 285 103q415 0 415 -495zM1222 680q0 310 -206 310q-92 0 -143 -66q-46 -59 -46 -154q0 -199 218 -199q93 0 175 42q2 54 2 67z" />
  </g>

</svg>
