<?xml version="1.0" standalone="no"?>
<!DOCTYPE svg PUBLIC "-//W3C//DTD SVG 1.1//EN" "http://www.w3.org/Graphics/SVG/1.1/DTD/svg11.dtd" >
<svg viewBox="0 -442 2048 2048">
  <g transform="matrix(1 0 0 -1 0 1606)">
   <path fill="currentColor"
d="M1998 582q0 -406 -284 -690t-690 -284t-690 284t-284 690t284 690t690 284t690 -284t284 -690zM1898 582q0 364 -255 619t-619 255t-619 -255t-255 -619t255 -619t619 -255t619 255t255 619zM1721 582q0 -248 -57 -374q-84 -184 -300 -184t-299 184q-57 127 -57 374
t57 374q84 184 299 184t299 -185q58 -128 58 -373zM867 46h-448v149h125v642h-125v137q79 -1 114 33.5t39 114.5h175v-927h120v-149zM1509 541v82q0 359 -145 359t-145 -352v-86q0 -361 145 -361t145 358z" />
  </g>

</svg>
