<?xml version="1.0" standalone="no"?>
<!DOCTYPE svg PUBLIC "-//W3C//DTD SVG 1.1//EN" "http://www.w3.org/Graphics/SVG/1.1/DTD/svg11.dtd" >
<svg viewBox="0 -442 2048 2048">
  <g transform="matrix(1 0 0 -1 0 1606)">
   <path fill="currentColor"
d="M1998 582q0 -406 -284 -690t-690 -284t-690 284t-284 690t284 690t690 284t690 -284t284 -690zM1433 356q0 112 -67 183q-64 68 -177 85v12q93 19 155.5 91t62.5 166q0 150 -136 222q-105 55 -271 55q-190 0 -352 -71v-202h18q158 98 312 98q209 0 209 -134
q0 -108 -111 -142q-56 -17 -199 -17v-164q163 0 214 -15q116 -33 116 -153q0 -199 -250 -199q-165 0 -321 98h-21v-204q161 -71 370 -71q187 0 309 85q139 97 139 277z" />
  </g>

</svg>
