<?xml version="1.0" standalone="no"?>
<!DOCTYPE svg PUBLIC "-//W3C//DTD SVG 1.1//EN" "http://www.w3.org/Graphics/SVG/1.1/DTD/svg11.dtd" >
<svg viewBox="0 -442 2048 2048">
  <g transform="matrix(1 0 0 -1 0 1606)">
   <path fill="currentColor"
d="M1998 582q0 -406 -284 -690t-690 -284t-690 284t-284 690t284 690t690 284t690 -284t284 -690zM1455 393q0 171 -99 266.5t-271 95.5q-135 0 -265 -79q16 152 106.5 237.5t241.5 85.5q98 0 166 -32h19v183q-77 18 -172 18q-296 0 -447 -181q-140 -167 -140 -469
q0 -235 99 -370q113 -154 340 -154q182 0 300 108q122 111 122 291zM1232 383q0 -101 -47 -162q-52 -69 -150 -69q-220 0 -220 327q0 31 2 70q93 45 186 45q229 0 229 -211z" />
  </g>

</svg>
