<?xml version="1.0" standalone="no"?>
<!DOCTYPE svg PUBLIC "-//W3C//DTD SVG 1.1//EN" "http://www.w3.org/Graphics/SVG/1.1/DTD/svg11.dtd" >
<svg viewBox="0 -442 2048 2048">
  <g transform="matrix(1 0 0 -1 0 1606)">
   <path fill="currentColor"
d="M1998 582q0 -406 -284 -690t-690 -284t-690 284t-284 690t284 690t690 284t690 -284t284 -690zM1464 332q0 202 -225 291v5q195 85 195 259q0 147 -138 224q-111 62 -271 62q-157 0 -273 -71q-137 -84 -137 -231q0 -172 186 -262v-5q-217 -91 -217 -278q0 -169 141 -259
q119 -76 298 -76q174 0 298 81q143 95 143 260zM1217 870q0 -110 -99 -191q-282 86 -282 204q0 68 63 106q53 32 126 32q79 0 131 -35q61 -41 61 -116zM1241 318q0 -84 -64 -131q-58 -42 -145 -42q-96 0 -159 53q-68 57 -68 151q0 127 118 206l155 -56q106 -44 134.5 -83
t28.5 -98z" />
  </g>

</svg>
