<?xml version="1.0" standalone="no"?>
<!DOCTYPE svg PUBLIC "-//W3C//DTD SVG 1.1//EN" "http://www.w3.org/Graphics/SVG/1.1/DTD/svg11.dtd" >
<svg viewBox="0 -442 2048 2048">
  <g transform="matrix(1 0 0 -1 0 1606)">
   <path fill="currentColor"
d="M1998 582q0 -406 -284 -690t-690 -284t-690 284t-284 690t284 690t690 284t690 -284t284 -690zM1759 582q0 258 -62 393q-89 195 -315 195q-227 0 -315 -195q-60 -134 -60 -393q0 -260 60 -393q88 -195 315 -195q228 0 316 194q61 134 61 394zM859 17v157h-127v977h-184
q-4 -84 -41 -120.5t-121 -35.5v-144h132v-677h-132v-157h473zM1535 519q0 -358 -153 -358q-152 0 -152 353v144q0 346 152 346q153 0 153 -355v-130z" />
  </g>

</svg>
