<?xml version="1.0" standalone="no"?>
<!DOCTYPE svg PUBLIC "-//W3C//DTD SVG 1.1//EN" "http://www.w3.org/Graphics/SVG/1.1/DTD/svg11.dtd" >
<svg viewBox="0 -442 2048 2048">
  <g transform="matrix(1 0 0 -1 0 1606)">
   <path fill="currentColor"
d="M1608 877l-22 -118q-165 32 -283 32q-150 0 -297 -41q222 -150 222 -395q0 -144 -111.5 -249.5t-256.5 -105.5t-256 105.5t-111 249.5q0 245 221 395q-147 41 -297 41q-113 0 -283 -32l-22 118q181 34 305 34q237 0 443 -84q205 84 443 84q124 0 305 -34zM1108 355
q0 221 -248 341q-247 -120 -247 -341q0 -95 77 -166q74 -69 170 -69t172 70t76 165z" />
  </g>

</svg>
