<?xml version="1.0" standalone="no"?>
<!DOCTYPE svg PUBLIC "-//W3C//DTD SVG 1.1//EN" "http://www.w3.org/Graphics/SVG/1.1/DTD/svg11.dtd" >
<svg viewBox="0 -442 2048 2048">
  <g transform="matrix(1 0 0 -1 0 1606)">
   <path fill="currentColor"
d="M1937 709q-274 -110 -555 -455q23 286 150 420h-250q-229 0 -318 -64q-64 -46 -114 -142q-48 -91 -58 -175h-692q13 140 91 252q82 118 210 164q-260 101 -301 415h692q18 -187 144 -295q66 -57 166 -75q61 -11 184 -11h246q-142 142 -150 420q240 -322 555 -454z" />
  </g>

</svg>
