<?xml version="1.0" standalone="no"?>
<!DOCTYPE svg PUBLIC "-//W3C//DTD SVG 1.1//EN" "http://www.w3.org/Graphics/SVG/1.1/DTD/svg11.dtd" >
<svg viewBox="0 -442 2048 2048">
  <g transform="matrix(1 0 0 -1 0 1606)">
   <path fill="currentColor"
d="M1659 698q-134 -32 -212.5 -103.5t-125.5 -201.5q-9 -30 -33 -84q-50 -78 -129 -78q-65 0 -107.5 41.5t-42.5 106.5t58 122q49 49 118 74l283 103l51 12l-4 4l-452 -37l-463 -108q-227 -53 -275 -53q-102 0 -162 54q-63 57 -63 159q0 215 225 215q41 0 262 -52l451 -106
l477 -41l4 4l-309 105q-78 27 -134 76q-69 61 -69 132q0 64 43.5 104t108.5 40q105 0 149 -121q57 -157 123 -226q75 -79 228 -120v-21z" />
  </g>

</svg>
