<?xml version="1.0" standalone="no"?>
<!DOCTYPE svg PUBLIC "-//W3C//DTD SVG 1.1//EN" "http://www.w3.org/Graphics/SVG/1.1/DTD/svg11.dtd" >
<svg viewBox="0 -442 2048 2048">
  <g transform="matrix(1 0 0 -1 0 1606)">
   <path fill="currentColor"
d="M1742 709q-145 -66 -269 -190q-140 -141 -167 -277q-67 39 -111 110.5t-44 145.5q0 73 35 120q27 37 96 78v4h-49q-115 0 -238 -38q-102 -32 -215 -130q-94 -82 -143 -112q-85 -51 -172 -51q-99 0 -172 75q-37 38 -78 158q-36 107 -115 107q78 16 115 120q41 117 88 165
q62 63 174 63q104 0 212 -86q182 -146 206 -160q147 -86 348 -86h39v4q-133 74 -133 193q0 76 45 149.5t112 112.5q26 -137 166 -279q122 -124 270 -196z" />
  </g>

</svg>
