<?xml version="1.0" standalone="no"?>
<!DOCTYPE svg PUBLIC "-//W3C//DTD SVG 1.1//EN" "http://www.w3.org/Graphics/SVG/1.1/DTD/svg11.dtd" >
<svg viewBox="0 -442 2048 2048">
  <g transform="matrix(1 0 0 -1 0 1606)">
   <path fill="currentColor"
d="M1853 709q0 -50 -80 -125l-184 -172q-88 -82 -135 -82q-41 0 -84 21q-51 25 -51 61q0 19 22.5 66.5t22.5 70.5q0 51 -93 51h-114q-107 0 -140.5 -16.5t-101.5 -100.5l-65 -80q-59 -73 -83.5 -84.5t-117.5 -11.5h-451q-98 0 -98 62q0 21 16 45l25 37l121 196q26 35 26 62
q0 23 -53 106l-90 141q-45 71 -45 95q0 59 115 59h446q81 0 100 -8q24 -10 74 -70l80 -96q70 -83 97 -98q35 -19 137 -19h116q49 0 63 4q36 9 36 45q0 26 -21 68q-24 48 -24 63q0 82 135 82q53 0 110 -55l213 -205q76 -73 76 -112z" />
  </g>

</svg>
