<?xml version="1.0" standalone="no"?>
<!DOCTYPE svg PUBLIC "-//W3C//DTD SVG 1.1//EN" "http://www.w3.org/Graphics/SVG/1.1/DTD/svg11.dtd" >
<svg viewBox="0 -442 2048 2048">
  <g transform="matrix(1 0 0 -1 0 1606)">
   <path fill="currentColor"
d="M1935 709q0 -43 -63 -107l-336 -340q-75 -76 -127 -76q-50 0 -84.5 35t-34.5 86q0 30 8 62l25 100q10 40 10 59q0 62 -78 62q-70 0 -106 -43q-15 -17 -74 -123l-78 -139q-48 -86 -114 -111q-47 -18 -162 -18h-467q-154 0 -154 149q0 40 20 103l72 227q14 44 14 74
q0 27 -14 71l-72 228q-20 63 -20 108q0 146 154 146h467q110 0 157 -16q70 -24 113 -101l84 -152q52 -94 64 -109q44 -57 104 -57q90 0 90 62q0 19 -10 59l-25 101q-8 32 -8 61q0 51 34.5 86t84.5 35q52 0 127 -76l336 -340q63 -64 63 -106z" />
  </g>

</svg>
