<?xml version="1.0" standalone="no"?>
<!DOCTYPE svg PUBLIC "-//W3C//DTD SVG 1.1//EN" "http://www.w3.org/Graphics/SVG/1.1/DTD/svg11.dtd" >
<svg viewBox="0 -442 2048 2048">
  <g transform="matrix(1 0 0 -1 0 1606)">
   <path fill="currentColor"
d="M1396 582q0 -134 -94.5 -228.5t-228.5 -94.5q-132 0 -226.5 94.5t-94.5 228.5q0 133 95 228t226 95q133 0 228 -95t95 -228zM1421 41q0 -41 -39 -41h-590q-248 0 -432 166q-190 171 -190 416t190 416q184 166 432 166h590q39 0 39 -41t-39 -41h-584q-216 0 -378 -140
q-168 -147 -168 -360t168 -360q162 -140 378 -140h584q39 0 39 -41zM1314 582q0 99 -71 170t-170 71q-97 0 -168 -71t-71 -170q0 -100 70.5 -170.5t168.5 -70.5q100 0 170.5 70.5t70.5 170.5z" />
  </g>

</svg>
