<?xml version="1.0" standalone="no"?>
<!DOCTYPE svg PUBLIC "-//W3C//DTD SVG 1.1//EN" "http://www.w3.org/Graphics/SVG/1.1/DTD/svg11.dtd" >
<svg viewBox="0 -442 2048 2048">
  <g transform="matrix(1 0 0 -1 0 1606)">
   <path fill="currentColor"
d="M1421 582q0 -245 -190 -416q-184 -166 -432 -166h-590q-39 0 -39 41t39 41h584q216 0 378 140q168 147 168 360t-168 360q-162 140 -378 140h-584q-39 0 -39 41t39 41h590q248 0 432 -166q190 -171 190 -416zM839 582q0 -133 -95 -228t-226 -95q-133 0 -228 95t-95 228
q0 134 94.5 228.5t228.5 94.5q132 0 226.5 -94.5t94.5 -228.5zM757 582q0 100 -70.5 170.5t-168.5 70.5q-100 0 -170.5 -70.5t-70.5 -170.5q0 -99 71 -170t170 -71q97 0 168 71t71 170z" />
  </g>

</svg>
