<?xml version="1.0" standalone="no"?>
<!DOCTYPE svg PUBLIC "-//W3C//DTD SVG 1.1//EN" "http://www.w3.org/Graphics/SVG/1.1/DTD/svg11.dtd" >
<svg viewBox="0 -442 2048 2048">
  <g transform="matrix(1 0 0 -1 0 1606)">
   <path fill="currentColor"
d="M739 -317q0 -33 -63 -33q-173 0 -287 150q-104 137 -104 315q0 155 88 326q82 142 164 285q88 169 88 323q0 236 -147 345q-43 32 -142 52q-51 10 -51 35q0 33 63 33q173 0 287 -150q104 -137 104 -315q0 -157 -88 -328q-82 -142 -164 -285q-88 -169 -88 -321
q0 -236 147 -345q43 -32 142 -52q51 -10 51 -35z" />
  </g>

</svg>
