<?xml version="1.0" standalone="no"?>
<!DOCTYPE svg PUBLIC "-//W3C//DTD SVG 1.1//EN" "http://www.w3.org/Graphics/SVG/1.1/DTD/svg11.dtd" >
<svg viewBox="0 -442 2048 2048">
  <g transform="matrix(1 0 0 -1 0 1606)">
   <path fill="currentColor"
d="M1821 41q0 -41 -39 -41h-590q-248 0 -432 166q-190 171 -190 416t190 416q184 166 432 166h590q39 0 39 -41t-39 -41h-584q-216 0 -378 -140q-168 -147 -168 -360t168 -360q162 -140 378 -140h584q39 0 39 -41zM569 -311q0 -41 -39 -41q-33 0 -40 26l-488 1788
q-2 7 -2 13q0 41 39 41q33 0 40 -26l488 -1788q2 -7 2 -13z" />
  </g>

</svg>
