<?xml version="1.0" standalone="no"?>
<!DOCTYPE svg PUBLIC "-//W3C//DTD SVG 1.1//EN" "http://www.w3.org/Graphics/SVG/1.1/DTD/svg11.dtd" >
<svg viewBox="0 -442 2048 2048">
  <g transform="matrix(1 0 0 -1 0 1606)">
   <path fill="currentColor"
d="M2002 512q0 -41 -37 -41h-701v-432q0 -39 -41 -39t-41 39v1345q0 37 41 37t41 -37v-434h701q37 0 37 -41t-37 -41h-701v-315h701q37 0 37 -41zM867 39q0 -39 -41 -39t-41 39v432h-701q-37 0 -37 41t37 41h701v315h-701q-37 0 -37 41t37 41h701v434q0 37 41 37t41 -37
v-1345z" />
  </g>

</svg>
