<?xml version="1.0" standalone="no"?>
<!DOCTYPE svg PUBLIC "-//W3C//DTD SVG 1.1//EN" "http://www.w3.org/Graphics/SVG/1.1/DTD/svg11.dtd" >
<svg viewBox="0 -442 2048 2048">
  <g transform="matrix(1 0 0 -1 0 1606)">
   <path fill="currentColor"
d="M1948 582q0 -41 -37 -41h-1163q-16 -122 -108.5 -203.5t-215.5 -81.5q-133 0 -228.5 96.5t-95.5 229.5q0 134 95 230t229 96q122 0 215.5 -82t108.5 -203h1163q37 0 37 -41zM668 582q0 100 -72 172t-172 72q-99 0 -170.5 -72.5t-71.5 -171.5t71.5 -171.5t170.5 -72.5
q100 0 172 72t72 172z" />
  </g>

</svg>
