<?xml version="1.0" standalone="no"?>
<!DOCTYPE svg PUBLIC "-//W3C//DTD SVG 1.1//EN" "http://www.w3.org/Graphics/SVG/1.1/DTD/svg11.dtd" >
<svg viewBox="0 -442 2048 2048">
  <g transform="matrix(1 0 0 -1 0 1606)">
   <path fill="currentColor"
d="M1831 590q0 -23 -34 -38q-60 -25 -178 -80q-353 -186 -532 -532q-2 -4 -75 -174q-15 -34 -39 -34t-39 34q-23 58 -75 174q-179 346 -532 532q-14 7 -178 80q-34 15 -34 38t34 38q60 25 178 80q353 186 532 532q2 4 75 174q15 34 39 34t39 -34q23 -58 75 -174
q179 -346 532 -532q14 -7 178 -80q34 -15 34 -38zM1674 590q-492 218 -701 698q-209 -480 -701 -698q492 -218 701 -698q209 480 701 698z" />
  </g>

</svg>
