<?xml version="1.0" standalone="no"?>
<!DOCTYPE svg PUBLIC "-//W3C//DTD SVG 1.1//EN" "http://www.w3.org/Graphics/SVG/1.1/DTD/svg11.dtd" >
<svg viewBox="0 -442 2048 2048">
  <g transform="matrix(1 0 0 -1 0 1606)">
   <path fill="currentColor"
d="M1540 846q0 -42 -39 -42q-6 0 -15 3q-67 23 -134 57v-1145q0 -37 -41 -37t-41 37v1188q-141 82 -258 192v-1380q0 -37 -41 -37t-41 37v1464q-78 88 -129 179q-51 -91 -129 -179v-1464q0 -37 -41 -37t-41 37v1380q-117 -110 -258 -192v-1188q0 -37 -41 -37t-41 37v1145
q-67 -34 -134 -57q-9 -3 -15 -3q-39 0 -39 42q0 22 27 36q46 18 135 57q281 138 464 394q25 42 78 124q17 25 35 25t35 -25q25 -42 78 -124q183 -256 464 -394q46 -17 135 -57q27 -14 27 -36z" />
  </g>

</svg>
