<?xml version="1.0" standalone="no"?>
<!DOCTYPE svg PUBLIC "-//W3C//DTD SVG 1.1//EN" "http://www.w3.org/Graphics/SVG/1.1/DTD/svg11.dtd" >
<svg viewBox="0 -442 2048 2048">
  <g transform="matrix(1 0 0 -1 0 1606)">
   <path fill="currentColor"
d="M1540 318q0 -22 -27 -36q-46 -18 -135 -57q-281 -138 -464 -394q-25 -42 -78 -124q-17 -25 -35 -25t-35 25q-25 42 -78 124q-183 256 -464 394q-46 17 -135 57q-27 14 -27 36q0 42 39 42q6 0 15 -3q67 -23 134 -57v1145q0 37 41 37t41 -37v-1188q141 -82 258 -192v1380
q0 37 41 37t41 -37v-1464q78 -88 129 -179q51 91 129 179v1464q0 37 41 37t41 -37v-1380q117 110 258 192v1188q0 37 41 37t41 -37v-1145q67 34 134 57q9 3 15 3q39 0 39 -42z" />
  </g>

</svg>
