<?xml version="1.0" standalone="no"?>
<!DOCTYPE svg PUBLIC "-//W3C//DTD SVG 1.1//EN" "http://www.w3.org/Graphics/SVG/1.1/DTD/svg11.dtd" >
<svg viewBox="-200 -442 2048 2048">
  <g transform="matrix(1 0 0 -1 0 1606)">
   <path fill="currentColor"
d="M995 582q0 -200 -141.5 -341.5t-341.5 -141.5q-91 0 -186 37q-103 40 -156 104q-10 12 -10 27q0 42 42 42q12 0 26 -11q144 -117 284 -117q166 0 283.5 117.5t117.5 283.5t-117.5 283.5t-283.5 117.5q-156 0 -270.5 -105t-128.5 -259q36 36 90 72q65 43 98 43
q39 0 39 -41q0 -22 -25 -36q-22 -10 -44 -19q-90 -42 -177 -174q-13 -20 -24 -20t-24 20q-87 132 -177 174q-22 9 -44 19q-25 14 -25 36q0 41 39 41q33 0 100 -45q57 -37 91 -73q13 189 152 319t330 130q200 0 341.5 -141.5t141.5 -341.5z" />
  </g>

</svg>
