<?xml version="1.0" standalone="no"?>
<!DOCTYPE svg PUBLIC "-//W3C//DTD SVG 1.1//EN" "http://www.w3.org/Graphics/SVG/1.1/DTD/svg11.dtd" >
<svg viewBox="0 -442 2048 2048">
  <g transform="matrix(1 0 0 -1 0 1606)">
   <path fill="currentColor"
d="M1224 693q0 -22 -25 -36q-22 -10 -44 -19q-90 -42 -177 -174q-13 -20 -24 -20t-24 20q-87 132 -177 174q-22 9 -44 19q-25 14 -25 36q0 41 39 41q33 0 98 -43q54 -36 90 -72q-14 154 -128.5 259t-270.5 105q-166 0 -283.5 -117.5t-117.5 -283.5t117.5 -283.5
t283.5 -117.5q140 0 284 117q14 11 26 11q42 0 42 -42q0 -15 -10 -27q-53 -64 -156 -104q-95 -37 -186 -37q-200 0 -341.5 141.5t-141.5 341.5t141.5 341.5t341.5 141.5q191 0 330 -130t152 -319q34 36 91 73q67 45 100 45q39 0 39 -41z" />
  </g>

</svg>
