<?xml version="1.0" standalone="no"?>
<!DOCTYPE svg PUBLIC "-//W3C//DTD SVG 1.1//EN" "http://www.w3.org/Graphics/SVG/1.1/DTD/svg11.dtd" >
<svg viewBox="0 -442 2891 2048">
  <g transform="matrix(1 0 0 -1 0 1606)">
   <path fill="currentColor"
d="M2891 582q0 -14 -15 -20t-46 -18q-190 -83 -296 -265q-41 -70 -79 -213q-2 -7 -8 -13t-53 -6q-21 0 -21 27q0 2 8 36q65 274 287 431h-591q-16 -284 -224.5 -483t-495.5 -199t-496.5 198.5t-225.5 483.5h-481q-39 0 -39 41t39 41h481q16 286 224.5 484t497.5 198
q288 0 496 -198.5t224 -483.5h591q-154 111 -238 288q-57 121 -57 179q0 24 21 28q-3 -1 41 -1q15 0 20 -19q14 -55 54 -163q105 -217 317 -310l40 -14q25 -11 25 -29zM1995 623q-16 241 -187 412.5t-411 186.5v-599h598zM1315 623v599q-241 -16 -412 -187t-186 -412h598z
M1995 541h-598v-599q239 15 410.5 187t187.5 412zM1315 -58v599h-598q16 -240 187 -411.5t411 -187.5z" />
  </g>

</svg>
