<?xml version="1.0" standalone="no"?>
<!DOCTYPE svg PUBLIC "-//W3C//DTD SVG 1.1//EN" "http://www.w3.org/Graphics/SVG/1.1/DTD/svg11.dtd" >
<svg viewBox="0 -442 2891 2048">
  <g transform="matrix(1 0 0 -1 0 1606)">
   <path fill="currentColor"
d="M2891 582q0 -14 -15 -20t-46 -18q-190 -83 -296 -265q-41 -70 -79 -213q-2 -7 -8 -13t-53 -6q-21 0 -21 27q0 2 8 36q65 274 287 431h-2330q222 -157 287 -431q8 -34 8 -36q0 -27 -21 -27q-47 0 -53 6t-8 13q-22 84 -31 109q-18 53 -48 104q-106 182 -296 265
q-16 6 -47 18q-14 6 -14 20q0 18 25 29l40 14q132 57 226 169q53 63 91 141q24 49 54 163q5 19 20 19q44 0 41 1q21 -4 21 -28q0 -58 -57 -179q-84 -177 -238 -288h2330q-154 111 -238 288q-57 121 -57 179q0 24 21 28q-3 -1 41 -1q15 0 20 -19q14 -55 54 -163
q105 -217 317 -310l40 -14q25 -11 25 -29z" />
  </g>

</svg>
