<?xml version="1.0" standalone="no"?>
<!DOCTYPE svg PUBLIC "-//W3C//DTD SVG 1.1//EN" "http://www.w3.org/Graphics/SVG/1.1/DTD/svg11.dtd" >
<svg viewBox="0 -442 2891 2048">
  <g transform="matrix(1 0 0 -1 0 1606)">
   <path fill="currentColor"
d="M2891 383q0 -41 -37 -41h-2200q45 -44 121 -148q86 -118 86 -153q0 -20 -23 -23q7 1 -38 1q-11 0 -17 12q-74 142 -162 238q-175 191 -418 272q-24 7 -71 21q-16 5 -16 20t16 23q24 7 68 20q172 56 315 171q159 128 268 337q6 12 58 12q20 0 20 -22q0 -35 -86 -153
q-75 -102 -121 -148h2200q37 0 37 -41t-37 -41h-2290q-120 -99 -262 -158q142 -59 262 -158h2290q37 0 37 -41z" />
  </g>

</svg>
