<?xml version="1.0" standalone="no"?>
<!DOCTYPE svg PUBLIC "-//W3C//DTD SVG 1.1//EN" "http://www.w3.org/Graphics/SVG/1.1/DTD/svg11.dtd" >
<svg viewBox="0 -442 2048 2048">
  <g transform="matrix(1 0 0 -1 0 1606)">
   <path fill="currentColor"
d="M840 1232q0 -52 -36 -88.5t-88 -36.5q-51 0 -87.5 37t-36.5 88t36.5 86.5t87.5 35.5q52 0 88 -35t36 -87zM356 1232q0 -51 -37 -88t-88 -37t-87 37t-36 88t36 86.5t87 35.5t88 -35.5t37 -86.5zM839 743q0 -51 -36.5 -87t-87.5 -36t-88 36t-37 87t37 87t88 36t87.5 -36
t36.5 -87zM356 740q0 -52 -36.5 -88t-88.5 -36q-51 0 -87 36.5t-36 87.5t36 87t87 36q52 0 88.5 -36t36.5 -87zM355 250q0 -51 -36.5 -87t-87.5 -36t-88 36t-37 87t37 87.5t88 36.5t87.5 -36.5t36.5 -87.5z" />
  </g>

</svg>
