<?xml version="1.0" standalone="no"?>
<!DOCTYPE svg PUBLIC "-//W3C//DTD SVG 1.1//EN" "http://www.w3.org/Graphics/SVG/1.1/DTD/svg11.dtd" >
<svg viewBox="0 -442 2048 2048">
  <g transform="matrix(1 0 0 -1 0 1606)">
   <path fill="currentColor"
d="M1540 846q0 -42 -39 -42q-7 0 -15 3q-129 47 -247 118v-1206q0 -37 -41 -37t-41 37v1261q-186 132 -315 317v-1574q0 -41 -41 -41t-41 41v1574q-131 -186 -315 -318v-1260q0 -37 -41 -37t-41 37v1206q-117 -71 -247 -118q-8 -3 -15 -3q-39 0 -39 42q0 22 27 36
q46 18 136 57q277 136 462 394q26 42 79 124q17 25 35 25t35 -25q25 -42 78 -124q182 -255 464 -394q46 -18 135 -57q27 -14 27 -36z" />
  </g>

</svg>
