<?xml version="1.0" standalone="no"?>
<!DOCTYPE svg PUBLIC "-//W3C//DTD SVG 1.1//EN" "http://www.w3.org/Graphics/SVG/1.1/DTD/svg11.dtd" >
<svg viewBox="0 -442 2048 2048">
  <g transform="matrix(1 0 0 -1 0 1606)">
   <path fill="currentColor"
d="M1540 318q0 -22 -27 -36q-46 -18 -135 -57q-282 -139 -464 -394q-25 -42 -78 -124q-17 -25 -35 -25t-35 25q-25 42 -79 124q-185 258 -462 394q-46 17 -136 57q-27 14 -27 36q0 42 39 42q7 0 15 -3q130 -47 247 -118v1206q0 37 41 37t41 -37v-1260q184 -132 315 -318
v1574q0 41 41 41t41 -41v-1574q129 185 315 317v1261q0 37 41 37t41 -37v-1206q118 71 247 118q8 3 15 3q39 0 39 -42z" />
  </g>

</svg>
