<?xml version="1.0" standalone="no"?>
<!DOCTYPE svg PUBLIC "-//W3C//DTD SVG 1.1//EN" "http://www.w3.org/Graphics/SVG/1.1/DTD/svg11.dtd" >
<svg viewBox="0 -442 2048 2048">
  <g transform="matrix(1 0 0 -1 0 1606)">
   <path fill="currentColor"
d="M1931 582q0 -14 -16 -21.5t-46 -19.5q-221 -96 -323 -314q-23 -50 -40 -114q-3 -16 -11 -47q-5 -18 -25 -20q9 1 -36 1q-21 0 -21 27q0 4 7 35q59 266 288 432h-54q-39 0 -39 41t39 41h54q-228 162 -288 432q-7 31 -7 35q0 24 21 27q-3 0 41 0q14 0 20 -19q3 -16 11 -47
q17 -66 40 -115q36 -77 92 -143q108 -127 277 -191q16 -6 16 -20zM1445 582q0 -41 -39 -41h-54q-37 0 -37 41t37 41h54q39 0 39 -41zM1145 582q0 -41 -39 -41h-54q-37 0 -37 41t37 41h54q39 0 39 -41zM845 582q0 -41 -39 -41h-54q-37 0 -37 41t37 41h54q39 0 39 -41z
M545 582q0 -41 -39 -41h-54q-37 0 -37 41t37 41h54q39 0 39 -41zM245 582q0 -41 -39 -41h-54q-37 0 -37 41t37 41h54q39 0 39 -41z" />
  </g>

</svg>
