<?xml version="1.0" standalone="no"?>
<!DOCTYPE svg PUBLIC "-//W3C//DTD SVG 1.1//EN" "http://www.w3.org/Graphics/SVG/1.1/DTD/svg11.dtd" >
<svg viewBox="0 -442 2048 2048">
  <g transform="matrix(1 0 0 -1 0 1606)">
   <path fill="currentColor"
d="M1963 582q0 -14 -16 -20q-169 -64 -277 -191q-56 -66 -92 -143q-23 -49 -40 -115q-3 -16 -11 -47q-6 -19 -20 -19q-44 0 -41 0q-21 3 -21 27q0 4 7 35q60 270 288 432h-569v-395q0 -39 -41 -39t-41 39v395h-218v-395q0 -39 -41 -39t-41 39v395h-218q-221 -96 -323 -314
q-23 -50 -40 -114q-3 -16 -11 -47q-5 -18 -25 -20q9 1 -36 1q-21 0 -21 27q0 4 7 35q26 118 93 224q97 154 247 249q-150 95 -247 249q-67 106 -93 224q-7 31 -7 35q0 27 21 27q45 0 36 1q20 -2 24 -19t12 -48q38 -146 132.5 -257.5t230.5 -170.5h218v397q0 37 41 37t41 -37
v-397h218v397q0 37 41 37t41 -37v-397h569q-229 166 -288 432q-7 31 -7 35q0 27 21 27q45 0 36 1q20 -2 24 -19t12 -48q38 -146 132.5 -257.5t230.5 -170.5q16 -5 46 -18q16 -9 16 -23z" />
  </g>

</svg>
