<?xml version="1.0" standalone="no"?>
<!DOCTYPE svg PUBLIC "-//W3C//DTD SVG 1.1//EN" "http://www.w3.org/Graphics/SVG/1.1/DTD/svg11.dtd" >
<svg viewBox="0 -442 2048 2048">
  <g transform="matrix(1 0 0 -1 0 1606)">
   <path fill="currentColor"
d="M1931 74q0 -27 -21 -27q-45 0 -36 -1q-20 2 -24 19t-12 48q-38 146 -132.5 257.5t-230.5 170.5h-1321q-39 0 -39 41t39 41h1321q221 96 323 314q23 50 40 114q3 16 11 47q5 18 25 20q-9 -1 36 -1q21 0 21 -27q0 -4 -7 -35q-26 -118 -93 -224q-97 -154 -247 -249
q150 -95 247 -249q67 -106 93 -224q7 -31 7 -35z" />
  </g>

</svg>
