<?xml version="1.0" standalone="no"?>
<!DOCTYPE svg PUBLIC "-//W3C//DTD SVG 1.1//EN" "http://www.w3.org/Graphics/SVG/1.1/DTD/svg11.dtd" >
<svg viewBox="0 -442 2048 2048">
  <g transform="matrix(1 0 0 -1 0 1606)">
   <path fill="currentColor"
d="M1931 582q0 -41 -39 -41h-1321q-221 -96 -323 -314q-23 -50 -40 -114q-3 -16 -11 -47q-5 -18 -25 -20q9 1 -36 1q-21 0 -21 27q0 4 7 35q26 118 93 224q97 154 247 249q-150 95 -247 249q-67 106 -93 224q-7 31 -7 35q0 27 21 27q45 0 36 1q20 -2 24 -19t12 -48
q38 -146 132.5 -257.5t230.5 -170.5h1321q39 0 39 -41z" />
  </g>

</svg>
