<?xml version="1.0" standalone="no"?>
<!DOCTYPE svg PUBLIC "-//W3C//DTD SVG 1.1//EN" "http://www.w3.org/Graphics/SVG/1.1/DTD/svg11.dtd" >
<svg viewBox="0 -442 2048 2048">
  <g transform="matrix(1 0 0 -1 0 1606)">
   <path fill="currentColor"
d="M1924 -295q0 -23 -24 -23l-67 40q-127 76 -285 76q-134 0 -247 -56q-71 -35 -67 -35q-10 0 -30.5 19t-20.5 29q0 14 12 21q165 100 346 100q76 0 149 -18l-1390 1390q19 -77 19 -150q0 -173 -101 -345q-8 -13 -19 -13q-10 0 -30 20t-20 30q0 -1 35 69q56 112 56 249
q0 69 -15 132q-20 85 -60.5 151t-40.5 68q0 23 24 23l67 -40q127 -76 285 -76q134 0 247 56q71 35 67 35q10 0 30.5 -19t20.5 -29q0 -14 -12 -21q-165 -100 -346 -100q-76 0 -149 18l1390 -1390q-19 77 -19 150q0 173 101 345q8 13 19 13q10 0 30 -20t20 -30q0 1 -35 -69
q-56 -112 -56 -249q0 -69 15 -132q20 -85 60.5 -151t40.5 -68z" />
  </g>

</svg>
