<?xml version="1.0" standalone="no"?>
<!DOCTYPE svg PUBLIC "-//W3C//DTD SVG 1.1//EN" "http://www.w3.org/Graphics/SVG/1.1/DTD/svg11.dtd" >
<svg viewBox="0 -442 2048 2048">
  <g transform="matrix(1 0 0 -1 0 1606)">
   <path fill="currentColor"
d="M1379 135q0 -124 -122 -243t-246 -119q-121 0 -245 122q-68 67 -68 102q0 38 42 38q15 0 28 -12q18 -24 56 -70q95 -98 187 -98q93 0 187 94.5t94 187.5q0 119 -172 291l-820 820q19 -77 19 -150q0 -173 -101 -345q-8 -13 -19 -13q-10 0 -30 20t-20 30q0 -1 35 69
q56 112 56 249q0 69 -15 132q-20 85 -60.5 151t-40.5 68q0 23 24 23l67 -40q127 -76 285 -76q134 0 247 56q71 35 67 35q10 0 30.5 -19t20.5 -29q0 -14 -12 -21q-165 -100 -346 -100q-76 0 -149 18l735 -735q142 -142 184 -196q102 -131 102 -240z" />
  </g>

</svg>
