<?xml version="1.0" standalone="no"?>
<!DOCTYPE svg PUBLIC "-//W3C//DTD SVG 1.1//EN" "http://www.w3.org/Graphics/SVG/1.1/DTD/svg11.dtd" >
<svg viewBox="0 -442 2048 2048">
  <g transform="matrix(1 0 0 -1 0 1606)">
   <path fill="currentColor"
d="M1379 1459q0 -2 -40.5 -68t-60.5 -151q-15 -63 -15 -132q0 -137 56 -249q35 -70 35 -69q0 -10 -20 -30t-30 -20q-11 0 -19 13q-101 172 -101 345q0 73 19 150l-820 -820q-172 -172 -172 -291q0 -93 94 -187.5t187 -94.5q92 0 187 98q17 25 56 70q13 12 28 12q42 0 42 -38
q0 -35 -68 -102q-124 -122 -245 -122q-124 0 -246 119t-122 243q0 109 102 240q42 54 184 196l735 735q-73 -18 -149 -18q-181 0 -346 100q-12 7 -12 21q0 10 20.5 29t30.5 19q-4 0 67 -35q113 -56 247 -56q158 0 285 76l67 40q24 0 24 -23z" />
  </g>

</svg>
