<?xml version="1.0" standalone="no"?>
<!DOCTYPE svg PUBLIC "-//W3C//DTD SVG 1.1//EN" "http://www.w3.org/Graphics/SVG/1.1/DTD/svg11.dtd" >
<svg viewBox="0 -442 2048 2048">
  <g transform="matrix(1 0 0 -1 0 1606)">
   <path fill="currentColor"
d="M1379 -204q0 -23 -24 -23l-67 40q-127 76 -285 76q-134 0 -247 -56q-71 -35 -67 -35q-10 0 -30.5 19t-20.5 29q0 14 12 21q165 100 346 100q76 0 149 -18l-735 735q-142 142 -184 196q-102 131 -102 240q0 124 122 243t246 119q121 0 245 -122q68 -67 68 -102
q0 -38 -42 -38q-15 0 -28 12q-18 24 -56 70q-95 98 -187 98q-93 0 -187 -94.5t-94 -187.5q0 -119 172 -291l820 -820q-19 77 -19 150q0 173 101 345q8 13 19 13q10 0 30 -20t20 -30q0 1 -35 -69q-56 -112 -56 -249q0 -69 15 -132q20 -85 60.5 -151t40.5 -68z" />
  </g>

</svg>
