<?xml version="1.0" standalone="no"?>
<!DOCTYPE svg PUBLIC "-//W3C//DTD SVG 1.1//EN" "http://www.w3.org/Graphics/SVG/1.1/DTD/svg11.dtd" >
<svg viewBox="0 -442 2048 2048">
  <g transform="matrix(1 0 0 -1 0 1606)">
   <path fill="currentColor"
d="M1379 1120q0 -109 -102 -240q-42 -54 -184 -196l-735 -735q73 18 149 18q181 0 346 -100q12 -7 12 -21q0 -10 -20.5 -29t-30.5 -19q4 0 -67 35q-113 56 -247 56q-158 0 -285 -76l-67 -40q-24 0 -24 23q0 2 40.5 68t60.5 151q15 63 15 132q0 137 -56 249q-35 70 -35 69
q0 10 20 30t30 20q11 0 19 -13q101 -172 101 -345q0 -73 -19 -150l820 820q172 172 172 291q0 93 -94 187.5t-187 94.5q-92 0 -187 -98q-17 -25 -56 -70q-13 -12 -28 -12q-42 0 -42 38q0 35 68 102q124 122 245 122q124 0 246 -119t122 -243z" />
  </g>

</svg>
