<?xml version="1.0" standalone="no"?>
<!DOCTYPE svg PUBLIC "-//W3C//DTD SVG 1.1//EN" "http://www.w3.org/Graphics/SVG/1.1/DTD/svg11.dtd" >
<svg viewBox="0 -442 2048 2048">
  <g transform="matrix(1 0 0 -1 0 1606)">
   <path fill="currentColor"
d="M1924 -295q0 -23 -24 -23l-67 40q-127 76 -285 76q-134 0 -247 -56q-71 -35 -67 -35q-10 0 -30.5 19t-20.5 29q0 14 12 21q165 100 346 100q76 0 149 -18l-666 666l-832 -832q-10 -10 -24 -10q-44 0 -44 44q0 14 10 24l832 832l-832 832q-10 10 -10 24q0 44 44 44
q14 0 24 -10l832 -832l666 666q-73 -18 -149 -18q-181 0 -346 100q-12 7 -12 21q0 10 20.5 29t30.5 19q-4 0 67 -35q113 -56 247 -56q158 0 285 76l67 40q24 0 24 -23q0 -2 -40.5 -68t-60.5 -151q-15 -63 -15 -132q0 -137 56 -249q35 -70 35 -69q0 -10 -20 -30t-30 -20
q-11 0 -19 13q-101 172 -101 345q0 73 19 150l-666 -666l666 -666q-19 77 -19 150q0 173 101 345q8 13 19 13q10 0 30 -20t20 -30q0 1 -35 -69q-56 -112 -56 -249q0 -69 15 -132q20 -85 60.5 -151t40.5 -68z" />
  </g>

</svg>
