<?xml version="1.0" standalone="no"?>
<!DOCTYPE svg PUBLIC "-//W3C//DTD SVG 1.1//EN" "http://www.w3.org/Graphics/SVG/1.1/DTD/svg11.dtd" >
<svg viewBox="0 -442 2048 2048">
  <g transform="matrix(1 0 0 -1 0 1606)">
   <path fill="currentColor"
d="M1924 -274q0 -44 -44 -44q-14 0 -24 10l-832 832l-666 -666q73 18 149 18q181 0 346 -100q12 -7 12 -21q0 -10 -20.5 -29t-30.5 -19q4 0 -67 35q-113 56 -247 56q-158 0 -285 -76l-67 -40q-24 0 -24 23q0 2 40.5 68t60.5 151q15 63 15 132q0 137 -56 249q-35 70 -35 69
q0 10 20 30t30 20q11 0 19 -13q101 -172 101 -345q0 -73 -19 -150l666 666l-666 666q19 -77 19 -150q0 -173 -101 -345q-8 -13 -19 -13q-10 0 -30 20t-20 30q0 -1 35 69q56 112 56 249q0 69 -15 132q-20 85 -60.5 151t-40.5 68q0 23 24 23l67 -40q127 -76 285 -76
q134 0 247 56q71 35 67 35q10 0 30.5 -19t20.5 -29q0 -14 -12 -21q-165 -100 -346 -100q-76 0 -149 18l666 -666l832 832q10 10 24 10q44 0 44 -44q0 -14 -10 -24l-832 -832l832 -832q10 -10 10 -24z" />
  </g>

</svg>
