<?xml version="1.0" standalone="no"?>
<!DOCTYPE svg PUBLIC "-//W3C//DTD SVG 1.1//EN" "http://www.w3.org/Graphics/SVG/1.1/DTD/svg11.dtd" >
<svg viewBox="0 -442 2048 2048">
  <g transform="matrix(1 0 0 -1 0 1606)">
   <path fill="currentColor"
d="M1924 1438q0 -14 -10 -24l-1722 -1722q-10 -10 -24 -10q-44 0 -44 44q0 14 10 24l1722 1722q10 10 24 10q44 0 44 -44zM966 698l-58 -58l-774 774q-10 10 -10 24q0 44 44 44q14 0 24 -10zM1924 -274q0 -44 -44 -44q-14 0 -24 10l-774 774l58 58l774 -774q10 -10 10 -24z
" />
  </g>

</svg>
