<?xml version="1.0" standalone="no"?>
<!DOCTYPE svg PUBLIC "-//W3C//DTD SVG 1.1//EN" "http://www.w3.org/Graphics/SVG/1.1/DTD/svg11.dtd" >
<svg viewBox="0 -442 2048 2048">
  <g transform="matrix(1 0 0 -1 0 1606)">
   <path fill="currentColor"
d="M1980 582q0 -16 -15 -20q-163 -57 -276.5 -191t-144.5 -305q-3 -19 -21 -19h-41q-20 0 -20 27q51 292 295 467h-73q-84 0 -229 -106q-168 -123 -277 -123q-104 0 -205 77q-63 48 -167 166q-95 108 -148 151q-84 66 -162 66q-80 0 -163 -66q-50 -41 -148 -151
q-12 -14 -31 -14q-39 0 -39 41q0 14 11 27q105 121 164 167q101 78 206 78q103 0 205 -78q59 -46 166 -167q96 -109 148 -150q83 -65 163 -65q82 0 230 106q171 123 276 123h73q-244 175 -295 467q0 27 20 27h41q18 0 21 -19q31 -171 144.5 -304.5t276.5 -188.5
q15 -7 15 -23z" />
  </g>

</svg>
