<?xml version="1.0" standalone="no"?>
<!DOCTYPE svg PUBLIC "-//W3C//DTD SVG 1.1//EN" "http://www.w3.org/Graphics/SVG/1.1/DTD/svg11.dtd" >
<svg viewBox="0 -442 2048 2048">
  <g transform="matrix(1 0 0 -1 0 1606)">
   <path fill="currentColor"
d="M1616 1049q0 -18 -22 -18l-6 2q-102 28 -160 59q-158 84 -248 232v-429q0 -244 -194 -316q-104 -38 -401 -38h-431q-39 0 -39 41t39 41h551q184 0 271 44q122 62 122 228v429q-90 -149 -247 -232q-57 -30 -161 -59q-2 -1 -6 -2q-21 0 -23 23q1 -11 1 40q0 13 14 19
q22 6 65 19q132 46 229.5 150.5t132.5 238.5q3 23 13 67q6 18 23 18q19 0 23 -18q4 -22 13 -66q35 -135 132.5 -239.5t229.5 -150.5q22 -6 65 -19q14 -4 14 -64z" />
  </g>

</svg>
