<?xml version="1.0" standalone="no"?>
<!DOCTYPE svg PUBLIC "-//W3C//DTD SVG 1.1//EN" "http://www.w3.org/Graphics/SVG/1.1/DTD/svg11.dtd" >
<svg viewBox="0 -442 2048 2048">
  <g transform="matrix(1 0 0 -1 0 1606)">
   <path fill="currentColor"
d="M1180 1136q0 -297 -38 -401q-72 -194 -316 -194h-429q148 -90 232 -248q31 -58 59 -160q1 -2 2 -6q0 -22 -18 -22q-60 0 -64 14q-6 22 -19 65q-46 132 -150.5 229.5t-239.5 132.5q-22 4 -66 13q-18 4 -18 23q0 17 18 23q23 4 67 13q134 35 238.5 132.5t150.5 229.5
q6 22 19 65q6 14 19 14q51 0 40 1q23 -2 23 -23l-2 -6q-29 -104 -59 -161q-83 -157 -232 -247h429q166 0 228 122q44 87 44 271v551q0 39 41 39t41 -39v-431z" />
  </g>

</svg>
