<?xml version="1.0" standalone="no"?>
<!DOCTYPE svg PUBLIC "-//W3C//DTD SVG 1.1//EN" "http://www.w3.org/Graphics/SVG/1.1/DTD/svg11.dtd" >
<svg viewBox="0 -442 2048 2048">
  <g transform="matrix(1 0 0 -1 0 1606)">
   <path fill="currentColor"
d="M1180 582q0 -19 -18 -23q-22 -4 -66 -13q-135 -35 -239.5 -132.5t-150.5 -229.5q-6 -22 -19 -65q-4 -14 -64 -14q-18 0 -18 22l2 6q28 102 59 160q84 158 232 248h-429q-244 0 -316 194q-38 104 -38 401v431q0 39 41 39t41 -39v-551q0 -184 44 -271q62 -122 228 -122h429
q-149 90 -232 247q-30 57 -59 161q-1 2 -2 6q0 21 23 23q-11 -1 40 -1q13 0 19 -14q6 -22 19 -65q46 -132 150.5 -229.5t238.5 -132.5q23 -3 67 -13q18 -6 18 -23z" />
  </g>

</svg>
