<?xml version="1.0" standalone="no"?>
<!DOCTYPE svg PUBLIC "-//W3C//DTD SVG 1.1//EN" "http://www.w3.org/Graphics/SVG/1.1/DTD/svg11.dtd" >
<svg viewBox="0 -442 2048 2048">
  <g transform="matrix(1 0 0 -1 0 1606)">
   <path fill="currentColor"
d="M827 629q0 -260 -120 -504q-117 -238 -322 -406q75 6 186 -13q141 -24 141 -73q0 -42 -38 -42q1 0 -77 27t-169 27q-75 0 -161 -23q-19 -5 -25 -5q-17 0 -17 17q0 6 5 25q23 86 23 161q0 90 -28 169l-28 79q0 37 42 37q43 0 70 -119q20 -88 20 -156q0 -19 -2 -54
q418 368 418 853q0 397 -278 729q-46 45 -136 138q-14 15 -14 30q0 43 41 43q15 0 28 -11q200 -164 320.5 -417t120.5 -512z" />
  </g>

</svg>
