<?xml version="1.0" standalone="no"?>
<!DOCTYPE svg PUBLIC "-//W3C//DTD SVG 1.1//EN" "http://www.w3.org/Graphics/SVG/1.1/DTD/svg11.dtd" >
<svg viewBox="0 -442 2048 2048">
  <g transform="matrix(1 0 0 -1 0 1606)">
   <path fill="currentColor"
d="M827 68l-28 -79t-28 -169q0 -75 23 -161q5 -19 5 -25q0 -17 -17 -17q-6 0 -25 5q-86 23 -161 23q-91 0 -169 -27t-77 -27q-38 0 -38 42q0 49 141 73q111 19 186 13q-205 168 -322 406q-120 244 -120 504q0 259 120.5 512t320.5 417q13 11 28 11q41 0 41 -43
q0 -15 -14 -30q-47 -44 -136 -138q-278 -332 -278 -729q0 -485 418 -853q-2 35 -2 54q0 68 20 156q27 119 70 119q42 0 42 -37z" />
  </g>

</svg>
