<?xml version="1.0" standalone="no"?>
<!DOCTYPE svg PUBLIC "-//W3C//DTD SVG 1.1//EN" "http://www.w3.org/Graphics/SVG/1.1/DTD/svg11.dtd" >
<svg viewBox="0 -442 2048 2048">
  <g transform="matrix(1 0 0 -1 0 1606)">
   <path fill="currentColor"
d="M2013 735q0 -38 -42 -38q-49 0 -73 141q-19 111 -13 186q-168 -205 -406 -322q-244 -120 -504 -120q-259 0 -512 120.5t-417 320.5q-11 13 -11 28q0 41 43 41q15 0 30 -14q44 -47 138 -136q332 -278 729 -278q485 0 853 418q-35 -2 -54 -2q-68 0 -156 20q-119 27 -119 70
q0 42 37 42l79 -28t169 -28q75 0 161 23q19 5 25 5q17 0 17 -17q0 -6 -5 -25q-23 -86 -23 -161q0 -91 27 -169t27 -77z" />
  </g>

</svg>
