<?xml version="1.0" standalone="no"?>
<!DOCTYPE svg PUBLIC "-//W3C//DTD SVG 1.1//EN" "http://www.w3.org/Graphics/SVG/1.1/DTD/svg11.dtd" >
<svg viewBox="0 -442 2048 2048">
  <g transform="matrix(1 0 0 -1 0 1606)">
   <path fill="currentColor"
d="M2013 743q0 -41 -43 -41q-15 0 -30 14q-44 47 -138 136q-332 278 -729 278q-485 0 -853 -418q35 2 54 2q68 0 156 -20q119 -27 119 -70q0 -42 -37 -42l-79 28t-169 28q-75 0 -161 -23q-19 -5 -25 -5q-17 0 -17 17q0 6 5 25q23 86 23 161q0 91 -27 169t-27 77q0 38 42 38
q49 0 73 -141q19 -111 13 -186q168 205 406 322q244 120 504 120q259 0 512 -120.5t417 -320.5q11 -13 11 -28zM1438 582q0 -41 -37 -41h-247v-245q0 -39 -41 -39t-41 39v245h-245q-39 0 -39 41t39 41h245v247q0 37 41 37t41 -37v-247h247q37 0 37 -41z" />
  </g>

</svg>
