<?xml version="1.0" standalone="no"?>
<!DOCTYPE svg PUBLIC "-//W3C//DTD SVG 1.1//EN" "http://www.w3.org/Graphics/SVG/1.1/DTD/svg11.dtd" >
<svg viewBox="0 -442 2048 2048">
  <g transform="matrix(1 0 0 -1 0 1606)">
   <path fill="currentColor"
d="M1687 732q0 -321 -234 -540q-229 -215 -553 -215q-326 0 -554 225q2 -23 2 -54q0 -68 -19 -155q-26 -118 -69 -118q-42 0 -42 38q0 -3 27.5 79.5t27.5 166.5q0 77 -23 161q-5 18 -5 25q0 17 17 17q6 0 24 -5q85 -23 161 -23q87 0 170 28t78 28q38 0 38 -42
q0 -43 -119 -70q-88 -20 -156 -20q-31 0 -54 2q204 -200 497 -200q289 0 495 190q211 195 211 481q0 209 -114 424q-61 115 -144 210q-16 17 -47 51q-10 11 -10 25q0 43 41 43q15 0 32 -16q143 -136 232 -337q90 -204 90 -399z" />
  </g>

</svg>
