<?xml version="1.0" standalone="no"?>
<!DOCTYPE svg PUBLIC "-//W3C//DTD SVG 1.1//EN" "http://www.w3.org/Graphics/SVG/1.1/DTD/svg11.dtd" >
<svg viewBox="0 -442 2048 2048">
  <g transform="matrix(1 0 0 -1 0 1606)">
   <path fill="currentColor"
d="M1687 -87q0 -38 -42 -38q-43 0 -69 118q-19 87 -19 155q0 31 2 54q-228 -225 -554 -225q-324 0 -553 215q-234 219 -234 540q0 195 90 399q89 201 232 337q17 16 32 16q41 0 41 -43q0 -14 -10 -25q-16 -17 -47 -51q-83 -95 -144 -210q-114 -215 -114 -424
q0 -286 211 -481q206 -190 495 -190q293 0 497 200q-23 -2 -54 -2q-68 0 -156 20q-119 27 -119 70q0 42 38 42q-5 0 78 -28t170 -28q76 0 161 23q18 5 24 5q17 0 17 -17q0 -7 -5 -25q-23 -84 -23 -161q0 -84 27.5 -166.5t27.5 -79.5z" />
  </g>

</svg>
