<?xml version="1.0" standalone="no"?>
<!DOCTYPE svg PUBLIC "-//W3C//DTD SVG 1.1//EN" "http://www.w3.org/Graphics/SVG/1.1/DTD/svg11.dtd" >
<svg viewBox="0 -442 2048 2048">
  <g transform="matrix(1 0 0 -1 0 1606)">
   <path fill="currentColor"
d="M1518 582q0 -298 -211.5 -510.5t-509.5 -212.5t-510.5 212.5t-212.5 510.5q0 263 168.5 464.5t427.5 247.5q152 89 222 227q8 20 25 59q13 26 36 26q42 0 42 -39q0 -7 -3 -15q-55 -143 -178 -247q293 -7 498.5 -218t205.5 -505zM1436 582q0 260 -181.5 447t-441.5 194v-1
q125 -105 179 -246q3 -8 3 -15q0 -39 -42 -39q-23 0 -36 26q-8 20 -25 58q-63 124 -194 209q-234 -36 -388 -216t-154 -417q0 -264 188.5 -452.5t452.5 -188.5t451.5 188.5t187.5 452.5z" />
  </g>

</svg>
