<?xml version="1.0" standalone="no"?>
<!DOCTYPE svg PUBLIC "-//W3C//DTD SVG 1.1//EN" "http://www.w3.org/Graphics/SVG/1.1/DTD/svg11.dtd" >
<svg viewBox="0 -442 2048 2048">
  <g transform="matrix(1 0 0 -1 0 1606)">
   <path fill="currentColor"
d="M1518 582q0 -298 -212.5 -510.5t-510.5 -212.5t-509.5 212.5t-211.5 510.5q0 294 205.5 505t498.5 218q-123 104 -178 247q-3 8 -3 15q0 39 42 39q23 0 36 -26q8 -20 25 -59q70 -138 222 -227q259 -46 427.5 -247.5t168.5 -464.5zM1436 582q0 237 -154 417t-388 216
q-131 -85 -194 -209q-8 -20 -25 -58q-13 -26 -36 -26q-42 0 -42 39q0 7 3 15q54 141 179 246v1q-260 -7 -441.5 -194t-181.5 -447q0 -264 187.5 -452.5t451.5 -188.5t452.5 188.5t188.5 452.5z" />
  </g>

</svg>
