<?xml version="1.0" standalone="no"?>
<!DOCTYPE svg PUBLIC "-//W3C//DTD SVG 1.1//EN" "http://www.w3.org/Graphics/SVG/1.1/DTD/svg11.dtd" >
<svg viewBox="0 -442 2048 2048">
  <g transform="matrix(1 0 0 -1 0 1606)">
   <path fill="currentColor"
d="M1933 954q0 -19 -28 -26q-21 -4 -43 -7q-205 -48 -329 -221q-46 -64 -74 -144q-6 -23 -19 -65q-6 -14 -64 -14q-18 0 -18 22l2 6q38 143 103 234q75 106 188 174h-639q-37 0 -37 41t37 41h639q-111 68 -188 176q-65 93 -103 232q-1 2 -2 6q0 20 24 23q-9 -1 39 -1
q15 0 19 -14q5 -22 18 -65q45 -131 151 -229t240 -133q22 -4 66 -13q18 -5 18 -23zM1933 272q0 -41 -37 -41h-1499q149 -90 232 -247q30 -57 59 -161q1 -2 2 -6q0 -21 -23 -23q11 1 -40 1q-13 0 -19 14q-6 22 -19 65q-46 132 -150.5 229.5t-238.5 132.5q-23 3 -67 13
q-18 6 -18 23q0 19 18 23q22 4 66 13q135 35 239.5 132.5t150.5 229.5q6 22 19 65q4 14 64 14q18 0 18 -22l-2 -6q-28 -102 -59 -160q-84 -158 -232 -248h1499q37 0 37 -41z" />
  </g>

</svg>
