<?xml version="1.0" standalone="no"?>
<!DOCTYPE svg PUBLIC "-//W3C//DTD SVG 1.1//EN" "http://www.w3.org/Graphics/SVG/1.1/DTD/svg11.dtd" >
<svg viewBox="0 -442 2048 2048">
  <g transform="matrix(1 0 0 -1 0 1606)">
   <path fill="currentColor"
d="M1933 854q0 -41 -37 -41h-1499q148 -90 232 -248q31 -58 59 -160q1 -2 2 -6q0 -22 -18 -22q-60 0 -64 14q-6 22 -19 65q-46 132 -150.5 229.5t-239.5 132.5q-22 4 -66 13q-18 4 -18 23q0 17 18 23q23 4 67 13q134 35 238.5 132.5t150.5 229.5q6 22 19 65q6 14 19 14
q51 0 40 1q23 -2 23 -23l-2 -6q-29 -104 -59 -161q-83 -157 -232 -247h1499q37 0 37 -41zM1933 272q0 -41 -39 -41h-345v-345q0 -39 -41 -39t-41 39v345h-347q-37 0 -37 41t37 41h347v347q0 37 41 37t41 -37v-347h345q39 0 39 -41z" />
  </g>

</svg>
