<?xml version="1.0" standalone="no"?>
<!DOCTYPE svg PUBLIC "-//W3C//DTD SVG 1.1//EN" "http://www.w3.org/Graphics/SVG/1.1/DTD/svg11.dtd" >
<svg viewBox="0 -442 2048 2048">
  <g transform="matrix(1 0 0 -1 0 1606)">
   <path fill="currentColor"
d="M1931 582q0 -14 -15 -20t-46 -18q-190 -83 -296 -265q-41 -70 -79 -213q-2 -7 -8 -13t-53 -6q-21 0 -21 27q0 2 8 36q65 274 287 431h-906l274 -274q27 -27 -2 -56t-56 -2l-315 315l-315 -315q-27 -27 -56 2t-2 56l274 274h-450q-39 0 -39 41t39 41h450l-275 275
q-26 26 3 55t55 3l316 -316l316 316q26 26 55 -3t3 -55l-275 -275h906q-154 111 -238 288q-57 121 -57 179q0 24 21 28q-3 -1 41 -1q15 0 20 -19q14 -55 54 -163q105 -217 317 -310l40 -14q25 -11 25 -29z" />
  </g>

</svg>
