<?xml version="1.0" standalone="no"?>
<!DOCTYPE svg PUBLIC "-//W3C//DTD SVG 1.1//EN" "http://www.w3.org/Graphics/SVG/1.1/DTD/svg11.dtd" >
<svg viewBox="0 -442 2048 2048">
  <g transform="matrix(1 0 0 -1 0 1606)">
   <path fill="currentColor"
d="M1931 582q0 -16 -62 -41q-132 -54 -230 -170t-133 -258q-2 -16 -11 -47q-8 -20 -47 -20q-35 0 -35 28q0 7 7 35q69 273 288 432h-1370q219 -159 288 -432q7 -28 7 -35q0 -28 -35 -28q-39 0 -47 20q-4 16 -11 47q-35 142 -133 258t-230 170q-62 25 -62 41q0 41 67 41h1682
q67 0 67 -41z" />
  </g>

</svg>
