<?xml version="1.0" standalone="no"?>
<!DOCTYPE svg PUBLIC "-//W3C//DTD SVG 1.1//EN" "http://www.w3.org/Graphics/SVG/1.1/DTD/svg11.dtd" >
<svg viewBox="0 -442 2048 2048">
  <g transform="matrix(1 0 0 -1 0 1606)">
   <path fill="currentColor"
d="M612 -251q0 -67 -41 -67q-16 0 -41 62q-54 132 -170 230t-258 133q-16 2 -47 11q-20 8 -20 47q0 35 28 35q7 0 35 -7q273 -69 432 -288v1370q-159 -219 -432 -288q-28 -7 -35 -7q-28 0 -28 35q0 39 20 47q16 4 47 11q142 35 258 133t170 230q25 62 41 62q41 0 41 -67
v-1682z" />
  </g>

</svg>
