<?xml version="1.0" standalone="no"?>
<!DOCTYPE svg PUBLIC "-//W3C//DTD SVG 1.1//EN" "http://www.w3.org/Graphics/SVG/1.1/DTD/svg11.dtd" >
<svg viewBox="0 -442 2048 2048">
  <g transform="matrix(1 0 0 -1 0 1606)">
   <path fill="currentColor"
d="M1587 1007q0 -35 -28 -35q-7 0 -35 7q-273 69 -432 288v-1554q0 -39 -41 -39t-41 39v1710q0 67 41 67q16 0 41 -62q54 -132 170 -230t258 -133q16 -2 47 -11q20 -8 20 -47zM612 -287q0 -39 -41 -39t-41 39v1554q-163 -224 -432 -288q-30 -7 -35 -7q-28 0 -28 50
q0 25 20 32q16 4 47 11q145 37 258 133t170 230l14 38q11 24 27 24q41 0 41 -67v-1710z" />
  </g>

</svg>
