<?xml version="1.0" standalone="no"?>
<!DOCTYPE svg PUBLIC "-//W3C//DTD SVG 1.1//EN" "http://www.w3.org/Graphics/SVG/1.1/DTD/svg11.dtd" >
<svg viewBox="0 -442 2048 2048">
  <g transform="matrix(1 0 0 -1 0 1606)">
   <path fill="currentColor"
d="M1587 157q0 -39 -20 -47q-16 -4 -47 -11q-142 -35 -258 -133t-170 -230q-25 -62 -41 -62q-41 0 -41 67v1710q0 39 41 39t41 -39v-1554q159 219 432 288q28 7 35 7q28 0 28 -35zM612 -287q0 -39 -41 -39t-41 39v1554q-163 -224 -432 -288q-30 -7 -35 -7q-28 0 -28 50
q0 25 20 32q16 4 47 11q145 37 258 133t170 230l14 38q11 24 27 24q41 0 41 -67v-1710z" />
  </g>

</svg>
