<?xml version="1.0" standalone="no"?>
<!DOCTYPE svg PUBLIC "-//W3C//DTD SVG 1.1//EN" "http://www.w3.org/Graphics/SVG/1.1/DTD/svg11.dtd" >
<svg viewBox="0 -442 2048 2048">
  <g transform="matrix(1 0 0 -1 0 1606)">
   <path fill="currentColor"
d="M1587 1007q0 -35 -28 -35q-7 0 -35 7q-273 69 -432 288v-1554q0 -39 -41 -39t-41 39v1710q0 67 41 67q16 0 41 -62q54 -132 170 -230t258 -133q16 -2 47 -11q20 -8 20 -47zM612 -259q0 -67 -41 -67q-16 0 -27 24l-14 38q-57 134 -170 230t-258 133q-28 3 -64 25
q-3 6 -3 18q0 50 28 50q5 0 35 -7q269 -64 432 -288v1554q0 39 41 39t41 -39v-1710z" />
  </g>

</svg>
