<?xml version="1.0" standalone="no"?>
<!DOCTYPE svg PUBLIC "-//W3C//DTD SVG 1.1//EN" "http://www.w3.org/Graphics/SVG/1.1/DTD/svg11.dtd" >
<svg viewBox="0 -442 2048 2048">
  <g transform="matrix(1 0 0 -1 0 1606)">
   <path fill="currentColor"
d="M1015 1102q0 -41 -37 -41h-724q-39 0 -39 41t39 41h724q37 0 37 -41zM1931 582q0 -14 -15 -20t-46 -18q-190 -83 -296 -265q-41 -70 -79 -213q-2 -7 -8 -13t-53 -6q-21 0 -21 27q0 2 8 36q65 274 287 431h-1554q-39 0 -39 41t39 41h1554q-154 111 -238 288
q-57 121 -57 179q0 24 21 28q-3 -1 41 -1q15 0 20 -19q14 -55 54 -163q105 -217 317 -310l40 -14q25 -11 25 -29zM1015 842q0 -41 -37 -41h-724q-39 0 -39 41t39 41h724q37 0 37 -41z" />
  </g>

</svg>
