<?xml version="1.0" standalone="no"?>
<!DOCTYPE svg PUBLIC "-//W3C//DTD SVG 1.1//EN" "http://www.w3.org/Graphics/SVG/1.1/DTD/svg11.dtd" >
<svg viewBox="0 -442 2048 2048">
  <g transform="matrix(1 0 0 -1 0 1606)">
   <path fill="currentColor"
d="M1931 582q0 -14 -15 -20t-46 -18q-190 -83 -296 -265q-41 -70 -79 -213q-2 -7 -8 -13t-53 -6q-21 0 -21 27q0 2 8 36q65 274 287 431h-1554q-39 0 -39 41t39 41h1554q-154 111 -238 288q-57 121 -57 179q0 24 21 28q-3 -1 41 -1q15 0 20 -19q14 -55 54 -163
q105 -217 317 -310l40 -14q25 -11 25 -29zM1018 1057q0 -101 -57 -176q-62 -81 -160 -81q-90 0 -213.5 102t-196.5 102q-123 0 -157 -153q-11 -51 -30 -51q-28 0 -28 56q0 110 51 181q59 81 164 81q91 0 214.5 -102t195.5 -102q53 0 97 35t55 86q4 24 8 49q9 34 26 34
q31 0 31 -61z" />
  </g>

</svg>
