<?xml version="1.0" standalone="no"?>
<!DOCTYPE svg PUBLIC "-//W3C//DTD SVG 1.1//EN" "http://www.w3.org/Graphics/SVG/1.1/DTD/svg11.dtd" >
<svg viewBox="0 -442 2048 2048">
  <g transform="matrix(1 0 0 -1 0 1606)">
   <path fill="currentColor"
d="M1931 582q0 -14 -16 -20q-169 -64 -277 -191q-56 -66 -92 -143q-23 -49 -40 -115q-3 -16 -11 -47q-6 -19 -20 -19q-44 0 -41 0q-21 3 -21 27q0 4 7 35q60 270 288 432h-1554q-39 0 -39 41t39 41h1554q-229 166 -288 432q-7 31 -7 35q0 27 21 27q45 0 36 1q20 -2 24 -19
t12 -48q38 -146 132.5 -257.5t230.5 -170.5q16 -5 46 -18q16 -9 16 -23zM1015 303q0 -101 -57 -176q-62 -81 -160 -81q-90 0 -213.5 102t-196.5 102q-123 0 -157 -153q-11 -51 -30 -51q-28 0 -28 56q0 110 51 181q59 81 164 81q91 0 214.5 -102t195.5 -102q53 0 97 35t55 86
q4 24 8 49q9 34 26 34q31 0 31 -61z" />
  </g>

</svg>
