<?xml version="1.0" standalone="no"?>
<!DOCTYPE svg PUBLIC "-//W3C//DTD SVG 1.1//EN" "http://www.w3.org/Graphics/SVG/1.1/DTD/svg11.dtd" >
<svg viewBox="0 -442 2048 2048">
  <g transform="matrix(1 0 0 -1 0 1606)">
   <path fill="currentColor"
d="M1421 900q0 -24 -27 -37l-1169 -552q-6 -3 -14 -3q-41 0 -41 41q0 26 24 37l1090 514l-1090 514q-24 11 -24 37q0 41 41 41q8 0 14 -3l1169 -552q27 -13 27 -37zM1421 0q0 -11 -27 -26q-154 -87 -230 -236q-8 -19 -25 -58q-12 -26 -36 -26q-42 0 -42 39q0 7 3 15
q52 144 178 251h-1035q-37 0 -37 41t37 41h1036q-127 107 -179 253q-3 8 -3 15q0 39 42 39q24 0 36 -26q8 -20 25 -59q75 -149 230 -237q27 -15 27 -26z" />
  </g>

</svg>
