<?xml version="1.0" standalone="no"?>
<!DOCTYPE svg PUBLIC "-//W3C//DTD SVG 1.1//EN" "http://www.w3.org/Graphics/SVG/1.1/DTD/svg11.dtd" >
<svg viewBox="0 -442 2048 2048">
  <g transform="matrix(1 0 0 -1 0 1606)">
   <path fill="currentColor"
d="M1421 459q0 -41 -39 -41h-590q-254 0 -432 141q-190 150 -190 391t190 391q178 141 432 141h590q39 0 39 -41t-39 -41h-584q-223 0 -378 -115q-168 -126 -168 -335t168 -335q155 -115 378 -115h584q39 0 39 -41zM1421 0q0 -11 -27 -26q-154 -87 -230 -236q-8 -19 -25 -58
q-12 -26 -36 -26q-42 0 -42 39q0 7 3 15q52 144 178 251h-1035q-37 0 -37 41t37 41h1036q-127 107 -179 253q-3 8 -3 15q0 39 42 39q24 0 36 -26q8 -20 25 -59q75 -149 230 -237q27 -15 27 -26z" />
  </g>

</svg>
