<?xml version="1.0" standalone="no"?>
<!DOCTYPE svg PUBLIC "-//W3C//DTD SVG 1.1//EN" "http://www.w3.org/Graphics/SVG/1.1/DTD/svg11.dtd" >
<svg viewBox="0 -442 2048 2048">
  <g transform="matrix(1 0 0 -1 0 1606)">
   <path fill="currentColor"
d="M2041 41q0 -41 -39 -41h-480q-237 0 -417 153q-186 157 -203 388h-564q228 -162 288 -432q7 -31 7 -35q0 -24 -21 -27q3 0 -41 0q-14 0 -20 19q-3 16 -11 47q-17 66 -40 115q-36 77 -92 143q-108 127 -277 191q-16 6 -16 20t16 23q16 6 46 18q221 96 323 314
q23 50 40 114q3 16 11 47q5 18 25 20q-9 -1 36 -1q21 0 21 -27q0 -4 -7 -35q-59 -266 -288 -432h564q17 231 203 388q180 153 417 153h480q39 0 39 -41t-39 -41h-474q-205 0 -363 -128q-164 -133 -181 -331h908q39 0 39 -41t-39 -41h-908q17 -198 181 -331
q158 -128 363 -128h474q39 0 39 -41z" />
  </g>

</svg>
