<?xml version="1.0" standalone="no"?>
<!DOCTYPE svg PUBLIC "-//W3C//DTD SVG 1.1//EN" "http://www.w3.org/Graphics/SVG/1.1/DTD/svg11.dtd" >
<svg viewBox="0 -442 2048 2048">
  <g transform="matrix(1 0 0 -1 0 1606)">
   <path fill="currentColor"
d="M1421 950q0 -241 -190 -391q-178 -141 -432 -141h-590q-39 0 -39 41t39 41h584q223 0 378 115q168 126 168 335t-168 335q-155 115 -378 115h-584q-39 0 -39 41t39 41h590q254 0 432 -141q190 -150 190 -391zM1421 0q0 -41 -37 -41h-1035q126 -107 178 -251q3 -8 3 -15
q0 -39 -42 -39q-24 0 -36 26q-8 19 -25 58q-76 149 -230 236q-27 15 -27 26t27 26q155 88 230 237q8 20 25 59q12 26 36 26q42 0 42 -39q0 -7 -3 -15q-52 -146 -179 -253h1036q37 0 37 -41z" />
  </g>

</svg>
