<?xml version="1.0" standalone="no"?>
<!DOCTYPE svg PUBLIC "-//W3C//DTD SVG 1.1//EN" "http://www.w3.org/Graphics/SVG/1.1/DTD/svg11.dtd" >
<svg viewBox="0 -442 2048 2048">
  <g transform="matrix(1 0 0 -1 0 1606)">
   <path fill="currentColor"
d="M1371 6q0 -348 -355 -348q-240 0 -313 188q-73 -188 -313 -188q-355 0 -355 348q0 130 48 130q44 0 44 -41q0 -10 -5 -41t-5 -48q0 -142 65.5 -204t207.5 -62q166 0 228 122q44 87 44 271v642q0 39 41 39t41 -39v-642q0 -184 44 -271q62 -122 228 -122q142 0 207.5 62
t65.5 204q0 17 -5 48t-5 41q0 41 44 41q48 0 48 -130z" />
  </g>

</svg>
