<?xml version="1.0" standalone="no"?>
<!DOCTYPE svg PUBLIC "-//W3C//DTD SVG 1.1//EN" "http://www.w3.org/Graphics/SVG/1.1/DTD/svg11.dtd" >
<svg viewBox="0 -442 2048 2048">
  <g transform="matrix(1 0 0 -1 0 1606)">
   <path fill="currentColor"
d="M1421 31q0 -41 -41 -41q-8 0 -14 3l-531 251q70 -209 222 -391q46 -45 136 -138q14 -15 14 -30q0 -43 -41 -43q-15 0 -28 11q-297 243 -402 637l-539 255q-27 13 -27 37t27 37l539 255q105 394 402 637q13 11 28 11q41 0 41 -43q0 -15 -14 -30q-47 -44 -136 -138
q-152 -182 -222 -391l531 251q6 3 14 3q41 0 41 -41q0 -26 -24 -37l-591 -279q-27 -116 -27 -235t27 -235l591 -279q24 -11 24 -37zM714 390q-17 97 -17 192t17 192l-407 -192z" />
  </g>

</svg>
