<?xml version="1.0" standalone="no"?>
<!DOCTYPE svg PUBLIC "-//W3C//DTD SVG 1.1//EN" "http://www.w3.org/Graphics/SVG/1.1/DTD/svg11.dtd" >
<svg viewBox="0 -442 2048 2048">
  <g transform="matrix(1 0 0 -1 0 1606)">
   <path fill="currentColor"
d="M1421 582q0 -24 -27 -37l-539 -255q-105 -394 -402 -637q-13 -11 -28 -11q-41 0 -41 43q0 15 14 30q47 44 136 138q152 182 222 391l-531 -251q-6 -3 -14 -3q-41 0 -41 41q0 26 24 37l591 279q27 116 27 235t-27 235l-591 279q-24 11 -24 37q0 41 41 41q8 0 14 -3
l531 -251q-70 209 -222 391q-46 45 -136 138q-14 15 -14 30q0 43 41 43q15 0 28 -11q297 -243 402 -637l539 -255q27 -13 27 -37zM1284 582l-407 192q17 -97 17 -192t-17 -192z" />
  </g>

</svg>
