<?xml version="1.0" standalone="no"?>
<!DOCTYPE svg PUBLIC "-//W3C//DTD SVG 1.1//EN" "http://www.w3.org/Graphics/SVG/1.1/DTD/svg11.dtd" >
<svg viewBox="0 -442 2048 2048">
  <g transform="matrix(1 0 0 -1 0 1606)">
   <path fill="currentColor"
d="M1421 582q0 -24 -27 -37l-570 -269q69 -227 233 -423q46 -45 136 -138q14 -15 14 -30q0 -43 -41 -43q-15 0 -28 11q-275 225 -387 588l-265 -125q67 -138 171 -263q46 -45 136 -138q14 -15 14 -30q0 -43 -41 -43q-15 0 -28 11q-205 168 -326 428l-187 -88q-6 -3 -14 -3
q-41 0 -41 41q0 26 24 37l186 88q-83 214 -83 426t83 426l-186 88q-24 11 -24 37q0 41 41 41q8 0 14 -3l187 -88q121 260 326 428q13 11 28 11q41 0 41 -43q0 -15 -14 -30q-47 -44 -136 -138q-104 -125 -171 -263l265 -125q112 363 387 588q13 11 28 11q41 0 41 -43
q0 -15 -14 -30q-47 -44 -136 -138q-164 -196 -233 -423l570 -269q27 -13 27 -37zM1284 582l-480 226q-25 -112 -25 -226t25 -226zM729 844l-275 129q-75 -190 -75 -391t75 -391l275 129q-32 133 -32 262t32 262z" />
  </g>

</svg>
