<?xml version="1.0" standalone="no"?>
<!DOCTYPE svg PUBLIC "-//W3C//DTD SVG 1.1//EN" "http://www.w3.org/Graphics/SVG/1.1/DTD/svg11.dtd" >
<svg viewBox="0 -442 2048 2048">
  <g transform="matrix(1 0 0 -1 0 1606)">
   <path fill="currentColor"
d="M1421 31q0 -41 -41 -41q-8 0 -14 3l-187 88q-121 -260 -326 -428q-13 -11 -28 -11q-41 0 -41 43q0 15 14 30q47 44 136 138q104 125 171 263l-265 125q-112 -363 -387 -588q-13 -11 -28 -11q-41 0 -41 43q0 15 14 30q47 44 136 138q164 196 233 423l-570 269
q-27 13 -27 37t27 37l570 269q-69 227 -233 423q-46 45 -136 138q-14 15 -14 30q0 43 41 43q15 0 28 -11q275 -225 387 -588l265 125q-67 138 -171 263q-46 45 -136 138q-14 15 -14 30q0 43 41 43q15 0 28 -11q205 -168 326 -428l187 88q6 3 14 3q41 0 41 -41q0 -26 -24 -37
l-186 -88q83 -214 83 -426t-83 -426l186 -88q24 -11 24 -37zM1212 582q0 201 -75 391l-275 -129q32 -133 32 -262t-32 -262l275 -129q75 190 75 391zM812 582q0 114 -25 226l-480 -226l480 -226q25 112 25 226z" />
  </g>

</svg>
