<?xml version="1.0" standalone="no"?>
<!DOCTYPE svg PUBLIC "-//W3C//DTD SVG 1.1//EN" "http://www.w3.org/Graphics/SVG/1.1/DTD/svg11.dtd" >
<svg viewBox="0 -442 2048 2048">
  <g transform="matrix(1 0 0 -1 0 1606)">
   <path fill="currentColor"
d="M268 1452q0 -63 -63 -63t-63 63t63 63q25 0 44 -19t19 -44zM268 1162q0 -63 -63 -63t-63 63t63 63q25 0 44 -19t19 -44zM268 872q0 -63 -63 -63t-63 63t63 63q25 0 44 -19t19 -44zM268 582q0 -63 -63 -63t-63 63t63 63q25 0 44 -19t19 -44zM268 292q0 -63 -63 -63t-63 63
t63 63q25 0 44 -19t19 -44zM268 2q0 -63 -63 -63t-63 63t63 63q25 0 44 -19t19 -44zM268 -288q0 -63 -63 -63t-63 63t63 63q25 0 44 -19t19 -44z" />
  </g>

</svg>
