<?xml version="1.0" standalone="no"?>
<!DOCTYPE svg PUBLIC "-//W3C//DTD SVG 1.1//EN" "http://www.w3.org/Graphics/SVG/1.1/DTD/svg11.dtd" >
<svg viewBox="0 -442 2048 2048">
  <g transform="matrix(1 0 0 -1 0 1606)">
   <path fill="currentColor"
d="M1362 582q0 -24 -26 -37l-839 -415q25 -26 52 -49q20 -16 118 -79q19 -12 19 -34q0 -41 -39 -41q-9 0 -17 4q-119 62 -208 162l-252 -125q-4 -2 -14 -2q-41 0 -41 41q0 24 25 36l231 114q-135 191 -135 425t134 424l-236 117q-19 9 -19 34q0 41 41 41q10 0 14 -2
l252 -125q89 100 208 162q8 4 17 4q39 0 39 -41q0 -22 -19 -34q-40 -24 -118 -79q-27 -23 -52 -49l845 -417q20 -10 20 -35zM1229 582l-786 388q-127 -174 -127 -388q0 -215 128 -389z" />
  </g>

</svg>
