<?xml version="1.0" standalone="no"?>
<!DOCTYPE svg PUBLIC "-//W3C//DTD SVG 1.1//EN" "http://www.w3.org/Graphics/SVG/1.1/DTD/svg11.dtd" >
<svg viewBox="0 -442 2048 2048">
  <g transform="matrix(1 0 0 -1 0 1606)">
   <path fill="currentColor"
d="M1395 574q0 -39 -41 -39q-22 0 -34 19q-24 40 -79 118q-38 44 -83 82l-383 -776q-10 -20 -35 -20q-24 0 -37 26l-381 770q-45 -38 -83 -82q-16 -20 -79 -118q-12 -19 -34 -19q-41 0 -41 39q0 9 4 17q73 139 197 237l-160 323q-2 4 -2 14q0 41 41 41q24 0 36 -25l151 -307
q178 111 388 111t387 -110l154 312q9 19 34 19q41 0 41 -41q0 -10 -2 -14l-160 -323q124 -98 197 -237q4 -8 4 -17zM1091 802q-161 103 -351 103t-352 -103l352 -710z" />
  </g>

</svg>
