<?xml version="1.0" standalone="no"?>
<!DOCTYPE svg PUBLIC "-//W3C//DTD SVG 1.1//EN" "http://www.w3.org/Graphics/SVG/1.1/DTD/svg11.dtd" >
<svg viewBox="0 -442 2048 2048">
  <g transform="matrix(1 0 0 -1 0 1606)">
   <path fill="currentColor"
d="M1362 41q0 -41 -37 -41h-148q-27 -107 -75 -183q-12 -18 -32 -18q-42 0 -42 42q0 8 4 16q40 74 61 143h-939q-39 0 -39 41q0 18 10 29l615 707q-130 59 -273 59q-37 0 -37 41q0 39 37 39q173 0 327 -77l250 287q-48 -7 -96 -7q-113 0 -212 39q-20 8 -25 28q-4 20 11 37.5
t42 9.5q21 -8 61 -20q68 -17 135 -17q95 0 195 35q29 10 38 3q8 -7 1 -37q-13 -64 -13 -124q0 -105 41 -205q9 -18 27 -57q12 -26 -4 -44q-28 -31 -57 -6q-5 4 -9 12q-75 134 -73 300l-239 -276q153 -100 242 -260q91 -165 91 -354q0 -49 -7 -101h132q37 0 37 -41zM1120 183
q0 172 -84 321q-81 144 -222 232l-568 -654h866q8 49 8 101z" />
  </g>

</svg>
