<?xml version="1.0" standalone="no"?>
<!DOCTYPE svg PUBLIC "-//W3C//DTD SVG 1.1//EN" "http://www.w3.org/Graphics/SVG/1.1/DTD/svg11.dtd" >
<svg viewBox="0 -442 2048 2048">
  <g transform="matrix(1 0 0 -1 0 1606)">
   <path fill="currentColor"
d="M1362 41q0 -41 -39 -41h-939q21 -69 61 -143q4 -8 4 -16q0 -42 -42 -42q-20 0 -32 18q-48 76 -75 183h-148q-37 0 -37 41t37 41h132q-7 52 -7 101q0 189 91 354q89 160 242 260l-239 276q2 -166 -73 -300q-4 -8 -9 -12q-29 -25 -57 6q-16 18 -4 44q10 19 27 57
q41 100 41 205q0 60 -13 124q-7 30 1 37q9 7 38 -3q100 -35 195 -35q67 0 135 17q20 7 61 20q27 8 42 -9.5t11 -37.5q-5 -20 -25 -28q-99 -39 -212 -39q-48 0 -96 7l250 -287q154 77 327 77q37 0 37 -39q0 -41 -37 -41q-143 0 -273 -59l615 -707q10 -11 10 -29zM1231 82
l-568 654q-141 -88 -222 -232q-84 -149 -84 -321q0 -52 8 -101h866z" />
  </g>

</svg>
