<?xml version="1.0" standalone="no"?>
<!DOCTYPE svg PUBLIC "-//W3C//DTD SVG 1.1//EN" "http://www.w3.org/Graphics/SVG/1.1/DTD/svg11.dtd" >
<svg viewBox="0 -442 2048 2048">
  <g transform="matrix(1 0 0 -1 0 1606)">
   <path fill="currentColor"
d="M1362 993q0 -41 -37 -41h-132q7 -52 7 -101q0 -190 -91 -355q-89 -159 -242 -259l239 -276q-2 165 73 299q4 8 9 12q29 26 57 -6q16 -18 4 -44q-10 -18 -27 -57q-41 -100 -41 -204q0 -60 13 -124q7 -31 -1 -38q-9 -7 -38 4q-100 35 -195 35q-67 0 -135 -17
q-20 -7 -61 -20q-27 -8 -42 9.5t-11 37.5q5 20 25 28q99 39 212 39q48 0 96 -8l-250 287q-154 -76 -327 -76q-37 0 -37 39q0 41 37 41q143 0 273 59l-615 707q-10 11 -10 29q0 41 39 41h939q-21 68 -61 142q-4 8 -4 17q0 41 42 41q20 0 32 -18q48 -76 75 -182h148
q37 0 37 -41zM1120 850q0 52 -8 102h-866l568 -654q141 88 222 232q84 149 84 320z" />
  </g>

</svg>
