<?xml version="1.0" standalone="no"?>
<!DOCTYPE svg PUBLIC "-//W3C//DTD SVG 1.1//EN" "http://www.w3.org/Graphics/SVG/1.1/DTD/svg11.dtd" >
<svg viewBox="0 -442 2048 2048">
  <g transform="matrix(1 0 0 -1 0 1606)">
   <path fill="currentColor"
d="M1362 993q0 -18 -10 -29l-615 -707q130 -59 273 -59q37 0 37 -41q0 -39 -37 -39q-173 0 -327 76l-250 -287q48 8 96 8q113 0 212 -39q20 -8 25 -28q4 -20 -11 -37.5t-42 -9.5q-21 7 -61 20q-68 17 -135 17q-95 0 -195 -35q-29 -11 -38 -4q-8 7 -1 38q13 64 13 124
q0 104 -41 204l-27 57q-12 26 4 44q28 32 57 6q5 -4 9 -12q75 -134 73 -299l239 276q-153 100 -242 259q-91 165 -91 355q0 49 7 101h-132q-37 0 -37 41t37 41h148q27 106 75 182q12 18 32 18q42 0 42 -41q0 -9 -4 -17q-40 -74 -61 -142h939q39 0 39 -41zM1231 952h-866
q-8 -50 -8 -102q0 -171 84 -320q81 -144 222 -232z" />
  </g>

</svg>
