<?xml version="1.0" standalone="no"?>
<!DOCTYPE svg PUBLIC "-//W3C//DTD SVG 1.1//EN" "http://www.w3.org/Graphics/SVG/1.1/DTD/svg11.dtd" >
<svg viewBox="0 -442 2048 2048">
  <g transform="matrix(1 0 0 -1 0 1606)">
   <path fill="currentColor"
d="M1525 1078q7 -8 -3 -38q-35 -100 -35 -195q0 -67 17 -135q7 -20 20 -61q8 -27 -11 -43q-31 -27 -57 2q-3 4 -7 13q-39 100 -39 213q0 48 7 95l-287 -250q77 -154 77 -327q0 -37 -39 -37q-41 0 -41 37q0 145 -59 273l-707 -615q-11 -10 -29 -10q-41 0 -41 39v939
q-67 -20 -143 -61q-7 -4 -16 -4q-42 0 -42 42q0 20 18 32q75 48 183 75v148q0 37 41 37t41 -37v-132q50 7 101 7q189 0 354 -91q160 -89 260 -242l276 239q-165 -3 -300 73q-8 5 -12 9q-26 29 6 57q18 16 44 4q19 -10 57 -27q101 -41 207 -41q59 0 122 13q31 6 37 -1z
M1027 699q-88 140 -233 222q-148 84 -320 84q-52 0 -101 -8v-866z" />
  </g>

</svg>
