<?xml version="1.0" standalone="no"?>
<!DOCTYPE svg PUBLIC "-//W3C//DTD SVG 1.1//EN" "http://www.w3.org/Graphics/SVG/1.1/DTD/svg11.dtd" >
<svg viewBox="0 -442 2048 2048">
  <g transform="matrix(1 0 0 -1 0 1606)">
   <path fill="currentColor"
d="M1525 955q0 -42 -42 -42q-9 0 -16 4q-76 41 -143 61v-939q0 -39 -41 -39q-18 0 -29 10l-707 615q-59 -128 -59 -273q0 -37 -41 -37q-39 0 -39 37q0 173 77 327l-287 250q7 -47 7 -95q0 -113 -39 -213q-4 -9 -7 -13q-26 -29 -57 -2q-19 16 -11 43q7 20 20 61q17 68 17 135
q0 95 -35 195q-10 30 -3 38q6 7 37 1q63 -13 122 -13q106 0 207 41l57 27q26 12 44 -4q32 -28 6 -57q-4 -4 -12 -9q-135 -76 -300 -73l276 -239q100 153 260 242q165 91 354 91q51 0 101 -7v132q0 37 41 37t41 -37v-148q108 -27 183 -75q18 -12 18 -32zM1242 131v866
q-49 8 -101 8q-172 0 -318.5 -83t-234.5 -223z" />
  </g>

</svg>
