<?xml version="1.0" standalone="no"?>
<!DOCTYPE svg PUBLIC "-//W3C//DTD SVG 1.1//EN" "http://www.w3.org/Graphics/SVG/1.1/DTD/svg11.dtd" >
<svg viewBox="0 -442 2048 2048">
  <g transform="matrix(1 0 0 -1 0 1606)">
   <path fill="currentColor"
d="M1525 169q-6 -7 -37 -1q-63 13 -122 13q-106 0 -207 -41l-57 -27q-26 -12 -44 4q-32 28 -6 57q4 4 12 9q135 76 300 73l-276 239q-100 -153 -260 -242q-165 -91 -354 -91q-51 0 -101 7v-132q0 -37 -41 -37t-41 37v148q-108 27 -183 75q-18 12 -18 32q0 42 42 42
q9 0 16 -4q76 -41 143 -61v939q0 39 41 39q18 0 29 -10l707 -615q59 128 59 273q0 37 41 37q39 0 39 -37q0 -173 -77 -327l287 -250q-7 47 -7 95q0 113 39 213q4 9 7 13q26 29 57 2q19 -16 11 -43q-7 -20 -20 -61q-17 -68 -17 -135q0 -95 35 -195q10 -30 3 -38zM1027 548
l-654 568v-866q49 -8 101 -8q172 0 320 84q145 82 233 222z" />
  </g>

</svg>
