<?xml version="1.0" standalone="no"?>
<!DOCTYPE svg PUBLIC "-//W3C//DTD SVG 1.1//EN" "http://www.w3.org/Graphics/SVG/1.1/DTD/svg11.dtd" >
<svg viewBox="0 -442 2048 2048">
  <g transform="matrix(1 0 0 -1 0 1606)">
   <path fill="currentColor"
d="M1525 292q0 -20 -18 -32q-75 -48 -183 -75v-148q0 -37 -41 -37t-41 37v132q-50 -7 -101 -7q-189 0 -354 91q-160 89 -260 242l-276 -239q165 3 300 -73q8 -5 12 -9q26 -29 -6 -57q-18 -16 -44 -4q-19 10 -57 27q-101 41 -207 41q-59 0 -122 -13q-31 -6 -37 1q-7 8 3 38
q35 100 35 195q0 67 -17 135q-7 20 -20 61q-8 27 11 43q31 27 57 -2q3 -4 7 -13q39 -100 39 -213q0 -48 -7 -95l287 250q-77 154 -77 327q0 37 39 37q41 0 41 -37q0 -145 59 -273l707 615q11 10 29 10q41 0 41 -39v-939q67 20 143 61q7 4 16 4q42 0 42 -42zM1242 250v866
l-654 -568q88 -140 232 -222q149 -84 321 -84q52 0 101 8z" />
  </g>

</svg>
