<?xml version="1.0" standalone="no"?>
<!DOCTYPE svg PUBLIC "-//W3C//DTD SVG 1.1//EN" "http://www.w3.org/Graphics/SVG/1.1/DTD/svg11.dtd" >
<svg viewBox="0 -442 2048 2048">
  <g transform="matrix(1 0 0 -1 0 1606)">
   <path fill="currentColor"
d="M1518 582q0 -274 -184 -481l107 -106q27 -27 27 -46q0 -39 -39 -39q-19 0 -46 27l-106 106q-206 -184 -480 -184q-298 0 -510.5 212.5t-212.5 510.5q0 276 183 481l-106 106q-27 27 -27 46q0 39 39 39q19 0 46 -27l106 -106q206 184 482 184q299 0 510 -212t211 -511z
M1436 582q0 265 -187.5 453t-451.5 188q-243 0 -424 -160l903 -903q160 182 160 422zM1219 101l-904 904q-159 -181 -159 -423q0 -264 188.5 -452.5t452.5 -188.5q240 0 422 160z" />
  </g>

</svg>
