<?xml version="1.0" standalone="no"?>
<!DOCTYPE svg PUBLIC "-//W3C//DTD SVG 1.1//EN" "http://www.w3.org/Graphics/SVG/1.1/DTD/svg11.dtd" >
<svg viewBox="0 -442 2048 2048">
  <g transform="matrix(1 0 0 -1 0 1606)">
   <path fill="currentColor"
d="M1422 1565q0 -41 -37 -41h-1176q-39 0 -39 41t39 41h1176q37 0 37 -41zM1518 582q0 -298 -212.5 -510.5t-510.5 -212.5q-274 0 -480 184l-106 -106q-27 -27 -46 -27q-39 0 -39 39q0 19 27 46l107 106q-184 207 -184 481q0 299 211 511t510 212q276 0 482 -184l106 106
q27 27 46 27q39 0 39 -39q0 -19 -27 -46l-106 -106q183 -205 183 -481zM1219 1063q-181 160 -424 160q-265 0 -452 -188t-187 -453q0 -240 160 -422zM1436 582q0 242 -159 423l-904 -904q182 -160 422 -160q264 0 452.5 188.5t188.5 452.5z" />
  </g>

</svg>
