<?xml version="1.0" standalone="no"?>
<!DOCTYPE svg PUBLIC "-//W3C//DTD SVG 1.1//EN" "http://www.w3.org/Graphics/SVG/1.1/DTD/svg11.dtd" >
<svg viewBox="0 -442 2048 2048">
  <g transform="matrix(1 0 0 -1 0 1606)">
   <path fill="currentColor"
d="M1019 1377q0 -90 -67 -156t-157 -66q-91 0 -157.5 65.5t-66.5 156.5t66.5 158.5t157.5 67.5q92 0 158 -67t66 -159zM1518 322q0 -298 -212.5 -510.5t-510.5 -212.5q-274 0 -480 184l-106 -106q-27 -27 -46 -27q-39 0 -39 39q0 19 27 46l107 106q-184 207 -184 481
q0 299 211 511t510 212q276 0 482 -184l106 106q27 27 46 27q39 0 39 -39q0 -19 -27 -46l-106 -106q183 -205 183 -481zM942 1377q0 60 -44 104.5t-103 44.5t-103 -44.5t-44 -104.5q0 -58 44 -101.5t103 -43.5t103 43.5t44 101.5zM1219 803q-181 160 -424 160
q-265 0 -452 -188t-187 -453q0 -240 160 -422zM1436 322q0 242 -159 423l-904 -904q182 -160 422 -160q264 0 452.5 188.5t188.5 452.5z" />
  </g>

</svg>
