<?xml version="1.0" standalone="no"?>
<!DOCTYPE svg PUBLIC "-//W3C//DTD SVG 1.1//EN" "http://www.w3.org/Graphics/SVG/1.1/DTD/svg11.dtd" >
<svg viewBox="0 -442 2048 2048">
  <g transform="matrix(1 0 0 -1 0 1606)">
   <path fill="currentColor"
d="M1276 1396q0 -39 -45 -39h-741q128 -97 128 -130q0 -32 -31 -32q-17 0 -48 33q-63 65 -179 127q-43 23 -43 41t43 41q116 62 179 127q31 33 48 33q31 0 31 -32q0 -33 -128 -130h741q45 0 45 -39zM1518 372q0 -298 -212.5 -510.5t-510.5 -212.5q-274 0 -480 184l-106 -106
q-27 -27 -46 -27q-39 0 -39 39q0 19 27 46l107 106q-184 207 -184 481q0 299 211 511t510 212q276 0 482 -184l106 106q27 27 46 27q39 0 39 -39q0 -19 -27 -46l-106 -106q183 -205 183 -481zM1219 853q-181 160 -424 160q-265 0 -452 -188t-187 -453q0 -240 160 -422z
M1436 372q0 242 -159 423l-904 -904q182 -160 422 -160q264 0 452.5 188.5t188.5 452.5z" />
  </g>

</svg>
