<?xml version="1.0" standalone="no"?>
<!DOCTYPE svg PUBLIC "-//W3C//DTD SVG 1.1//EN" "http://www.w3.org/Graphics/SVG/1.1/DTD/svg11.dtd" >
<svg viewBox="0 -442 2048 2048">
  <g transform="matrix(1 0 0 -1 0 1606)">
   <path fill="currentColor"
d="M2035 582q0 -41 -61 -41h-150q-16 -284 -224.5 -483t-495.5 -199t-496.5 198.5t-225.5 483.5h-151q-61 0 -61 41t61 41h151q16 286 224.5 484t497.5 198q288 0 496 -198.5t224 -483.5h150q61 0 61 -41zM1742 623q-16 251 -200.5 425.5t-437.5 174.5q-255 0 -439.5 -174
t-200.5 -426h1278zM1742 541h-1278q16 -251 201.5 -425.5t438.5 -174.5t437.5 174.5t200.5 425.5z" />
  </g>

</svg>
