<?xml version="1.0" standalone="no"?>
<!DOCTYPE svg PUBLIC "-//W3C//DTD SVG 1.1//EN" "http://www.w3.org/Graphics/SVG/1.1/DTD/svg11.dtd" >
<svg viewBox="0 -442 2048 2048">
  <g transform="matrix(1 0 0 -1 0 1606)">
   <path fill="currentColor"
d="M1518 582q0 -274 -184 -481l107 -106q27 -27 27 -46q0 -39 -39 -39q-19 0 -46 27l-106 106q-206 -184 -480 -184q-275 0 -481 185l-107 -107q-27 -27 -46 -27q-39 0 -39 39q0 19 27 46l107 107q-184 206 -184 480q0 276 183 481l-106 106q-27 27 -27 46q0 39 39 39
q19 0 46 -27l106 -106q206 184 482 184q275 0 480 -184l106 106q27 27 46 27q39 0 39 -39q0 -19 -27 -46l-106 -106q183 -206 183 -481zM1219 1063q-181 160 -422 160q-243 0 -424 -160l423 -423zM1436 582q0 241 -159 423l-423 -423l422 -422q160 182 160 422zM738 582
l-423 423q-159 -181 -159 -423q0 -240 160 -422zM1219 101l-423 423l-422 -422q182 -161 423 -161q240 0 422 160z" />
  </g>

</svg>
