<?xml version="1.0" standalone="no"?>
<!DOCTYPE svg PUBLIC "-//W3C//DTD SVG 1.1//EN" "http://www.w3.org/Graphics/SVG/1.1/DTD/svg11.dtd" >
<svg viewBox="0 -442 2048 2048">
  <g transform="matrix(1 0 0 -1 0 1606)">
   <path fill="currentColor"
d="M1518 582q0 -298 -211.5 -510.5t-509.5 -212.5t-510.5 212.5t-212.5 510.5q0 300 211.5 511.5t511.5 211.5q299 0 510 -212t211 -511zM1436 582q0 265 -187.5 453t-451.5 188q-266 0 -453.5 -187.5t-187.5 -453.5q0 -264 188.5 -452.5t452.5 -188.5t451.5 188.5
t187.5 452.5zM1241 969l-831 -831q-28 -28 -57 1t-1 57l831 831q26 26 55 -3t3 -55zM664 829q0 -47 -34 -81t-81 -34t-79.5 32.5t-32.5 80.5t33 81t81 33t80.5 -32.5t32.5 -79.5zM1155 337q0 -48 -33 -81t-81 -33t-80.5 32.5t-32.5 79.5t34 81t81 34t79.5 -32.5t32.5 -80.5z
" />
  </g>

</svg>
