<?xml version="1.0" standalone="no"?>
<!DOCTYPE svg PUBLIC "-//W3C//DTD SVG 1.1//EN" "http://www.w3.org/Graphics/SVG/1.1/DTD/svg11.dtd" >
<svg viewBox="0 -442 2048 2048">
  <g transform="matrix(1 0 0 -1 0 1606)">
   <path fill="currentColor"
d="M1518 490q0 -287 -198.5 -497t-483.5 -225v-149q0 -61 -40 -61q-42 0 -42 61v149q-284 17 -482 226t-198 496q0 288 197.5 496.5t482.5 225.5v215q-107 -126 -251 -178q-8 -3 -15 -3q-39 0 -39 42q0 24 26 36q19 8 58 25q149 76 236 230q15 27 26 27t26 -27
q88 -155 237 -230q20 -8 59 -25q26 -12 26 -36q0 -42 -39 -42q-7 0 -15 3q-146 52 -253 179v-216q286 -15 484 -224.5t198 -497.5zM1436 490q0 254 -174 439.5t-426 200.5v-1280q251 16 425.5 201.5t174.5 438.5zM754 -150v1280q-251 -17 -424.5 -201.5t-173.5 -438.5
q0 -253 174 -438t424 -202z" />
  </g>

</svg>
