<?xml version="1.0" standalone="no"?>
<!DOCTYPE svg PUBLIC "-//W3C//DTD SVG 1.1//EN" "http://www.w3.org/Graphics/SVG/1.1/DTD/svg11.dtd" >
<svg viewBox="0 -442 2048 2048">
  <g transform="matrix(1 0 0 -1 0 1606)">
   <path fill="currentColor"
d="M1538 582q0 -312 -218.5 -530.5t-530.5 -218.5t-530.5 218.5t-218.5 530.5t218.5 530.5t530.5 218.5t530.5 -218.5t218.5 -530.5zM1438 582q0 270 -189.5 459.5t-459.5 189.5t-459.5 -189.5t-189.5 -459.5t189.5 -459.5t459.5 -189.5t459.5 189.5t189.5 459.5zM1118 582
q0 -137 -96 -233t-233 -96t-233 96t-96 233t96 233t233 96t233 -96t96 -233zM1018 582q0 96 -66.5 162.5t-162.5 66.5t-162.5 -66.5t-66.5 -162.5t66.5 -162.5t162.5 -66.5t162.5 66.5t66.5 162.5z" />
  </g>

</svg>
