<?xml version="1.0" standalone="no"?>
<!DOCTYPE svg PUBLIC "-//W3C//DTD SVG 1.1//EN" "http://www.w3.org/Graphics/SVG/1.1/DTD/svg11.dtd" >
<svg viewBox="0 -442 2048 2048">
  <g transform="matrix(1 0 0 -1 0 1606)">
   <path fill="currentColor"
d="M1976 582q0 -92 -67 -158t-159 -66q-90 0 -156 67t-66 157q0 91 65.5 157.5t156.5 66.5t158.5 -66.5t67.5 -157.5zM1518 582q0 -298 -211.5 -510.5t-509.5 -212.5t-510.5 212.5t-212.5 510.5q0 300 211.5 511.5t511.5 211.5q299 0 510 -212t211 -511zM1899 582
q0 59 -44.5 103t-104.5 44q-58 0 -101.5 -44t-43.5 -103t43.5 -103t101.5 -44q60 0 104.5 44t44.5 103zM1436 582q0 265 -187.5 453t-451.5 188q-266 0 -453.5 -187.5t-187.5 -453.5q0 -264 188.5 -452.5t452.5 -188.5t451.5 188.5t187.5 452.5z" />
  </g>

</svg>
