<?xml version="1.0" standalone="no"?>
<!DOCTYPE svg PUBLIC "-//W3C//DTD SVG 1.1//EN" "http://www.w3.org/Graphics/SVG/1.1/DTD/svg11.dtd" >
<svg viewBox="0 -442 2048 2048">
  <g transform="matrix(1 0 0 -1 0 1606)">
   <path fill="currentColor"
d="M1981 430q0 -41 -37 -41h-452q-65 -231 -255 -379q-195 -151 -440 -151q-298 0 -510.5 212.5t-212.5 510.5q0 300 211.5 511.5t511.5 211.5q246 0 440 -151q191 -148 255 -379h452q37 0 37 -41t-37 -41h-434q8 -55 8 -111t-9 -111h435q37 0 37 -41zM1436 582
q0 265 -187.5 453t-451.5 188q-266 0 -453.5 -187.5t-187.5 -453.5q0 -264 188.5 -452.5t452.5 -188.5t451.5 188.5t187.5 452.5z" />
  </g>

</svg>
