<?xml version="1.0" standalone="no"?>
<!DOCTYPE svg PUBLIC "-//W3C//DTD SVG 1.1//EN" "http://www.w3.org/Graphics/SVG/1.1/DTD/svg11.dtd" >
<svg viewBox="0 -442 2048 2048">
  <g transform="matrix(1 0 0 -1 0 1606)">
   <path fill="currentColor"
d="M1488 -72q0 -39 -37 -39h-1308q-39 0 -39 39v1310q0 37 39 37h1308q37 0 37 -37v-1310zM1406 -29v1222h-1220v-1222h1220zM1175 394q0 -62 -60 -62q-15 0 -29 10l-262 191l31 -338q0 -53 -59 -53q-23 0 -42.5 17t-17.5 40l31 334l-262 -191q-14 -10 -29 -10q-59 0 -59 62
q0 36 28 49l295 139l-295 139q-28 13 -28 49q0 62 59 62q15 0 29 -10l262 -191l-31 340q0 53 60 53q25 0 43 -17t16 -42l-31 -334l262 191q14 10 29 10q60 0 60 -62q0 -35 -29 -49l-295 -139l295 -139q29 -14 29 -49z" />
  </g>

</svg>
