<?xml version="1.0" standalone="no"?>
<!DOCTYPE svg PUBLIC "-//W3C//DTD SVG 1.1//EN" "http://www.w3.org/Graphics/SVG/1.1/DTD/svg11.dtd" >
<svg viewBox="0 -442 2178 2048">
  <g transform="matrix(1 0 0 -1 0 1606)">
   <path fill="currentColor"
d="M2178 -372q0 -39 -37 -39h-1308q-39 0 -39 39v561h-651q-39 0 -39 39v1310q0 37 39 37h1308q37 0 37 -37v-563h653q37 0 37 -37v-1310zM2096 -329v1222h-608v-665q0 -39 -37 -39h-575v-518h1220zM1406 271v622h-530v-622h530zM1406 975v518h-1220v-1222h608v667
q0 37 39 37h573z" />
  </g>

</svg>
