<?xml version="1.0" standalone="no"?>
<!DOCTYPE svg PUBLIC "-//W3C//DTD SVG 1.1//EN" "http://www.w3.org/Graphics/SVG/1.1/DTD/svg11.dtd" >
<svg viewBox="0 -442 2048 2048">
  <g transform="matrix(1 0 0 -1 0 1606)">
   <path fill="currentColor"
d="M1515 -76q0 -35 -43 -35h-1352q-43 0 -43 35q0 12 6 24l676 1355q14 28 36 28q23 0 37 -28l677 -1355q6 -12 6 -24zM1406 -29l-610 1222l-610 -1222h1220zM979 244q0 -174 -246 -174q-84 0 -159 21l24 106q72 -25 143 -25q116 0 116 53q0 43 -70 77q-119 59 -131 67
q-70 52 -70 134q0 162 217 162q88 0 149 -15l-18 -107q-66 24 -131 24q-96 0 -96 -51q0 -37 71 -69q108 -49 130 -65q71 -52 71 -138z" />
  </g>

</svg>
