<?xml version="1.0" standalone="no"?>
<!DOCTYPE svg PUBLIC "-//W3C//DTD SVG 1.1//EN" "http://www.w3.org/Graphics/SVG/1.1/DTD/svg11.dtd" >
<svg viewBox="0 -442 2048 2048">
  <g transform="matrix(1 0 0 -1 0 1606)">
   <path fill="currentColor"
d="M1064 -176q0 -18 -12 -31l-170 -190q-9 -10 -29 -10q-41 0 -41 41q0 14 14 30l142 160l-314 348q-12 13 -12 31t12 31l314 348l-314 348q-12 13 -12 31t12 31l314 348l-142 160q-14 16 -14 30q0 41 41 41q20 0 29 -10l170 -190q12 -13 12 -31t-12 -31l-314 -348l314 -348
q12 -13 12 -31t-12 -31l-314 -348l314 -348q12 -13 12 -31zM564 -176q0 -18 -12 -31l-170 -190q-9 -10 -29 -10q-41 0 -41 41q0 14 14 30l142 160l-314 348q-12 13 -12 31t12 31l314 348l-314 348q-12 13 -12 31t12 31l314 348l-142 160q-14 16 -14 30q0 41 41 41
q20 0 29 -10l170 -190q12 -13 12 -31t-12 -31l-314 -348l314 -348q12 -13 12 -31t-12 -31l-314 -348l314 -348q12 -13 12 -31z" />
  </g>

</svg>
