<?xml version="1.0" standalone="no"?>
<!DOCTYPE svg PUBLIC "-//W3C//DTD SVG 1.1//EN" "http://www.w3.org/Graphics/SVG/1.1/DTD/svg11.dtd" >
<svg viewBox="0 -442 2048 2048">
  <g transform="matrix(1 0 0 -1 0 1606)">
   <path fill="currentColor"
d="M1931 442q0 -182 -105 -318q-113 -147 -290 -147q-134 0 -264 77q-119 70 -205 186l-61 82q-212 -345 -502 -345q-174 0 -286 149q-103 136 -103 316q0 181 105 316q114 147 290 147q131 0 263 -78q121 -71 206 -184l119 -158q100 -133 133 -173q81 -99 150 -158
q82 -70 188 -70q136 0 226 113q83 106 83 245q0 27 26 27q27 0 27 -27zM948 397q-67 86 -133 173q-81 101 -150 159q-82 70 -188 70q-137 0 -226 -113q-83 -106 -83 -246q0 -147 82 -263q92 -128 233 -128q260 0 465 348z" />
  </g>

</svg>
