<?xml version="1.0" standalone="no"?>
<!DOCTYPE svg PUBLIC "-//W3C//DTD SVG 1.1//EN" "http://www.w3.org/Graphics/SVG/1.1/DTD/svg11.dtd" >
<svg viewBox="0 -442 2048 2048">
  <g transform="matrix(1 0 0 -1 0 1606)">
   <path fill="currentColor"
d="M1841 963q0 -24 -23 -24q-10 0 -18 11q-28 43 -91 124q-255 286 -685 286t-685 -286q-17 -19 -91 -124q-8 -11 -18 -11q-23 0 -23 24q0 9 4 16q131 218 345 344q218 129 468 129t468 -129q214 -126 345 -344q4 -7 4 -16zM1931 442q0 -182 -105 -318q-113 -147 -290 -147
q-134 0 -264 77q-119 71 -205 186l-61 82q-212 -345 -502 -345q-174 0 -286 149q-103 136 -103 316q0 181 105 316q114 147 290 147q132 0 263 -77q122 -72 206 -185l61 -82q216 344 502 344q175 0 287 -148q102 -135 102 -315zM1878 442q0 149 -81 264q-91 128 -234 128
q-260 0 -465 -349l134 -172q82 -102 149 -159q82 -70 188 -70q136 0 226 113q83 106 83 245zM948 397q-67 86 -133 173q-81 101 -150 159q-82 70 -188 70q-137 0 -226 -113q-83 -106 -83 -246q0 -147 82 -263q92 -128 233 -128q260 0 465 348z" />
  </g>

</svg>
