<?xml version="1.0" standalone="no"?>
<!DOCTYPE svg PUBLIC "-//W3C//DTD SVG 1.1//EN" "http://www.w3.org/Graphics/SVG/1.1/DTD/svg11.dtd" >
<svg viewBox="0 -442 2048 2048">
  <g transform="matrix(1 0 0 -1 0 1606)">
   <path fill="currentColor"
d="M1931 442q0 -182 -105 -318q-113 -147 -290 -147q-134 0 -264 77q-119 71 -205 186l-3 4v-310q0 -62 -41 -62t-41 62v351q-206 -308 -478 -308q-174 0 -286 149q-103 136 -103 316q0 181 105 316q114 147 290 147q132 0 263 -77q122 -72 206 -185l3 -4v372q0 61 41 61
t41 -61v-413q209 307 478 307q175 0 287 -148q102 -135 102 -315zM1878 442q0 149 -81 264q-91 128 -234 128q-260 0 -465 -349l134 -172q82 -102 149 -159q82 -70 188 -70q136 0 226 113q83 106 83 245zM948 397q-67 86 -133 173q-81 101 -150 159q-82 70 -188 70
q-137 0 -226 -113q-83 -106 -83 -246q0 -147 82 -263q92 -128 233 -128q260 0 465 348z" />
  </g>

</svg>
