<?xml version="1.0" standalone="no"?>
<!DOCTYPE svg PUBLIC "-//W3C//DTD SVG 1.1//EN" "http://www.w3.org/Graphics/SVG/1.1/DTD/svg11.dtd" >
<svg viewBox="0 -442 2159 2048">
  <g transform="matrix(1 0 0 -1 0 1606)">
   <path fill="currentColor"
d="M2159 582q0 -133 -95.5 -229.5t-228.5 -96.5q-123 0 -215.5 81.5t-108.5 203.5h-748q-16 -122 -108.5 -203.5t-215.5 -81.5q-133 0 -228.5 96.5t-95.5 229.5q0 134 95 230t229 96q122 0 215.5 -82t108.5 -203h748q15 121 108.5 203t215.5 82q134 0 229 -96t95 -230z
M2077 582q0 99 -71.5 171.5t-170.5 72.5q-100 0 -172 -72t-72 -172t72 -172t172 -72q99 0 170.5 72.5t71.5 171.5zM683 582q0 100 -72 172t-172 72q-99 0 -170.5 -72.5t-71.5 -171.5t71.5 -171.5t170.5 -72.5q100 0 172 72t72 172z" />
  </g>

</svg>
