<?xml version="1.0" standalone="no"?>
<!DOCTYPE svg PUBLIC "-//W3C//DTD SVG 1.1//EN" "http://www.w3.org/Graphics/SVG/1.1/DTD/svg11.dtd" >
<svg viewBox="0 -442 2048 2048">
  <g transform="matrix(1 0 0 -1 0 1606)">
   <path fill="currentColor"
d="M1420 382q0 -41 -37 -41h-479l-242 -419q-23 -39 -46 -39q-41 0 -41 37q0 17 15 43l218 378h-304l-242 -419q-23 -39 -46 -39q-41 0 -41 37q0 17 15 43l218 378h-199q-39 0 -39 41t39 41h247l184 318h-431q-39 0 -39 41t39 41h478l242 419q23 39 45 39q41 0 41 -37
q0 -17 -15 -43l-218 -378h305l242 419q23 39 45 39q41 0 41 -37q0 -17 -15 -43l-218 -378h201q37 0 37 -41t-37 -41h-248l-184 -318h432q37 0 37 -41zM1040 741h-305l-184 -318h305z" />
  </g>

</svg>
