<?xml version="1.0" standalone="no"?>
<!DOCTYPE svg PUBLIC "-//W3C//DTD SVG 1.1//EN" "http://www.w3.org/Graphics/SVG/1.1/DTD/svg11.dtd" >
<svg viewBox="0 -442 2048 2048">
  <g transform="matrix(1 0 0 -1 0 1606)">
   <path fill="currentColor"
d="M1216 1545q0 -101 -57 -176q-62 -81 -160 -81q-90 0 -213.5 102t-196.5 102q-123 0 -157 -153q-11 -51 -30 -51q-28 0 -28 56q0 110 51 181q59 81 164 81q91 0 214.5 -102t195.5 -102q53 0 97 35t55 86q4 24 8 49q9 34 26 34q31 0 31 -61zM1420 382q0 -41 -37 -41h-479
l-242 -419q-23 -39 -46 -39q-41 0 -41 37q0 17 15 43l218 378h-304l-242 -419q-23 -39 -46 -39q-41 0 -41 37q0 17 15 43l218 378h-199q-39 0 -39 41t39 41h247l184 318h-431q-39 0 -39 41t39 41h478l242 419q23 39 45 39q41 0 41 -37q0 -17 -15 -43l-218 -378h305l242 419
q23 39 45 39q41 0 41 -37q0 -17 -15 -43l-218 -378h201q37 0 37 -41t-37 -41h-248l-184 -318h432q37 0 37 -41zM1040 741h-305l-184 -318h305z" />
  </g>

</svg>
