<?xml version="1.0" standalone="no"?>
<!DOCTYPE svg PUBLIC "-//W3C//DTD SVG 1.1//EN" "http://www.w3.org/Graphics/SVG/1.1/DTD/svg11.dtd" >
<svg viewBox="0 -442 2048 2048">
  <g transform="matrix(1 0 0 -1 0 1606)">
   <path fill="currentColor"
d="M1420 182q0 -41 -37 -41h-595l-126 -219q-23 -39 -46 -39q-41 0 -41 37q0 17 15 43l103 178h-305l-126 -219q-23 -39 -46 -39q-41 0 -41 37q0 17 15 43l103 178h-84q-39 0 -39 41t39 41h131l184 318h-315q-39 0 -39 41t39 41h362l184 318h-546q-39 0 -39 41t39 41h593
l127 219q23 39 45 39q41 0 41 -37q0 -17 -15 -43l-103 -178h305l127 219q23 39 45 39q41 0 41 -37q0 -17 -15 -43l-103 -178h86q37 0 37 -41t-37 -41h-133l-184 -318h317q37 0 37 -41t-37 -41h-364l-183 -318h547q37 0 37 -41zM1155 941h-305l-184 -318h305zM924 541h-305
l-183 -318h304z" />
  </g>

</svg>
