<?xml version="1.0" standalone="no"?>
<!DOCTYPE svg PUBLIC "-//W3C//DTD SVG 1.1//EN" "http://www.w3.org/Graphics/SVG/1.1/DTD/svg11.dtd" >
<svg viewBox="0 -442 2048 2048">
  <g transform="matrix(1 0 0 -1 0 1606)">
   <path fill="currentColor"
d="M1518 776q0 -287 -198.5 -497t-483.5 -225v-318q107 127 253 179q8 3 15 3q39 0 39 -42q0 -24 -26 -36q-20 -8 -59 -25q-149 -75 -237 -230q-15 -27 -26 -27t-26 27q-87 154 -236 230q-19 8 -58 25q-26 12 -26 36q0 42 39 42q7 0 15 -3q144 -52 251 -178v317
q-284 17 -482 226t-198 496q0 300 211.5 511.5t511.5 211.5q299 0 510 -212t211 -511zM1436 776q0 265 -187.5 453t-451.5 188q-266 0 -453.5 -187.5t-187.5 -453.5q0 -264 188.5 -452.5t452.5 -188.5t451.5 188.5t187.5 452.5z" />
  </g>

</svg>
