<?xml version="1.0" standalone="no"?>
<!DOCTYPE svg PUBLIC "-//W3C//DTD SVG 1.1//EN" "http://www.w3.org/Graphics/SVG/1.1/DTD/svg11.dtd" >
<svg viewBox="0 -442 2048 2048">
  <g transform="matrix(1 0 0 -1 0 1606)">
   <path fill="currentColor"
d="M1001 582q0 -17 -10 -27l-438 -438v-377h309q62 0 62 -41t-62 -41h-701q-61 0 -61 41t61 41h310v377l-438 438q-10 10 -10 27q0 19 10 29l438 438v375h-310q-61 0 -61 41t61 41h701q62 0 62 -41t-62 -41h-309v-375l438 -438q10 -10 10 -29zM902 582l-391 391l-389 -391
l389 -389z" />
  </g>

</svg>
