<?xml version="1.0" standalone="no"?>
<!DOCTYPE svg PUBLIC "-//W3C//DTD SVG 1.1//EN" "http://www.w3.org/Graphics/SVG/1.1/DTD/svg11.dtd" >
<svg viewBox="0 -442 2048 2048">
  <g transform="matrix(1 0 0 -1 0 1606)">
   <path fill="currentColor"
d="M1798 582q0 -41 -37 -41h-447v-445q0 -39 -41 -39t-41 39v445h-218v-445q0 -39 -41 -39t-41 39v445h-218v-445q0 -39 -41 -39t-41 39v445h-445q-39 0 -39 41t39 41h445v447q0 37 41 37t41 -37v-447h218v447q0 37 41 37t41 -37v-447h218v447q0 37 41 37t41 -37v-447h447
q37 0 37 -41z" />
  </g>

</svg>
