<?xml version="1.0" standalone="no"?>
<!DOCTYPE svg PUBLIC "-//W3C//DTD SVG 1.1//EN" "http://www.w3.org/Graphics/SVG/1.1/DTD/svg11.dtd" >
<svg viewBox="0 -442 2048 2048">
  <g transform="matrix(1 0 0 -1 0 1606)">
   <path fill="currentColor"
d="M1998 582q0 -402 -286 -688.5t-687 -286.5q-402 0 -688.5 286.5t-286.5 688.5q0 404 285.5 689.5t689.5 285.5q403 0 688 -286t285 -689zM1889 582q0 357 -253.5 611.5t-610.5 254.5q-359 0 -612.5 -253.5t-253.5 -612.5q0 -357 254.5 -611.5t611.5 -254.5q356 0 610 255
t254 611zM1866 582q0 -54 -48 -54h-740v-740q0 -48 -54 -48t-54 48v740h-737q-51 0 -51 54t51 54h737v737q0 51 54 51t54 -51v-737h740q48 0 48 -54z" />
  </g>

</svg>
