<?xml version="1.0" standalone="no"?>
<!DOCTYPE svg PUBLIC "-//W3C//DTD SVG 1.1//EN" "http://www.w3.org/Graphics/SVG/1.1/DTD/svg11.dtd" >
<svg viewBox="0 -442 2048 2048">
  <g transform="matrix(1 0 0 -1 0 1606)">
   <path fill="currentColor"
d="M1665 1044h-51q-80 215 -328 291q-156 47 -457 47h-597l304 -423q67 24 136 24q166 0 283.5 -117.5t117.5 -283.5t-117.5 -283.5t-283.5 -117.5q-84 0 -160 33l-326 -403h680q284 0 439 50q235 77 309 287h50l-148 -438h-1463q-17 0 -17 20q0 6 5 12l410 506
q-180 119 -180 334q0 180 135 300l-365 507q-6 8 -6 35q0 30 19 30h1462zM1023 582q0 145 -103 248t-248 103q-54 0 -105 -16l225 -313q6 -8 6 -22t-8 -24l-245 -303q62 -24 127 -24q145 0 248 103t103 248zM669 517l-234 324q-114 -104 -114 -259q0 -191 161 -295z" />
  </g>

</svg>
