<?xml version="1.0" standalone="no"?>
<!DOCTYPE svg PUBLIC "-//W3C//DTD SVG 1.1//EN" "http://www.w3.org/Graphics/SVG/1.1/DTD/svg11.dtd" >
<svg viewBox="0 -442 2048 2048">
  <g transform="matrix(1 0 0 -1 0 1606)">
   <path fill="currentColor"
d="M1279 927h-50q-80 215 -392 246q-6 -99 -17 -273q-22 -334 -94 -880q188 4 298 47q154 60 205 206h49l-117 -347h-449q-71 -368 -313 -368q-78 0 -137 39q-67 44 -67 118q0 75 76 75q77 0 77 -75q0 -69 -70 -78q48 -39 121 -39q98 0 144 118q30 76 45 210h-531
q-21 0 -21 24q0 9 5 15l467 576l-467 648q-6 8 -6 32q0 31 23 31h667q24 128 74 217q78 137 210 137q77 0 137 -39q68 -45 68 -118q0 -75 -77 -75q-75 0 -75 75q0 69 67 78q-47 38 -120 38q-86 0 -126 -118q-24 -70 -38 -195h316zM714 1179q-52 1 -68 1h-437l410 -569
q6 -8 6 -22t-8 -24l-441 -545h421q2 36 7 104q31 446 72 769q17 131 38 286z" />
  </g>

</svg>
