<?xml version="1.0" standalone="no"?>
<!DOCTYPE svg PUBLIC "-//W3C//DTD SVG 1.1//EN" "http://www.w3.org/Graphics/SVG/1.1/DTD/svg11.dtd" >
<svg viewBox="0 -442 2639 2048">
  <g transform="matrix(1 0 0 -1 0 1606)">
   <path fill="currentColor"
d="M2639 1449q0 -75 -77 -75q-76 0 -76 75q0 69 68 78q-47 38 -120 38q-86 0 -126 -118q-30 -89 -45 -268q-9 -140 -18 -279q-25 -376 -100 -924q-23 -165 -90 -274q-88 -144 -231 -144q-78 0 -137 39q-67 44 -67 118q0 75 75 75q78 0 78 -75q0 -69 -71 -78q48 -39 122 -39
q98 0 144 118q39 99 60 408q29 429 73 769q15 121 39 293q25 180 83 283q78 137 211 137q77 0 137 -39q68 -45 68 -118zM2099 1449q0 -75 -77 -75q-76 0 -76 75q0 69 68 78q-47 38 -120 38q-86 0 -126 -118q-30 -89 -45 -268q-9 -140 -18 -279q-25 -376 -100 -924
q-23 -165 -90 -274q-88 -144 -231 -144q-78 0 -137 39q-67 44 -67 118q0 75 75 75q78 0 78 -75q0 -69 -70 -78q48 -39 121 -39q98 0 144 118q39 99 60 408q29 429 73 769q15 121 39 293q24 178 84 283q78 137 210 137q77 0 137 -39q68 -45 68 -118zM1559 1449q0 -75 -77 -75
q-76 0 -76 75q0 69 68 78q-47 38 -120 38q-86 0 -126 -118q-30 -89 -45 -268q-9 -140 -18 -279q-25 -376 -100 -924q-23 -165 -90 -274q-88 -144 -231 -144q-78 0 -137 39q-67 44 -67 118q0 75 75 75q78 0 78 -75q0 -69 -70 -78q48 -39 121 -39q98 0 144 118q39 99 60 408
q29 429 73 769q16 121 39 293q24 178 84 283q78 137 210 137q77 0 137 -39q68 -45 68 -118zM1019 1449q0 -75 -77 -75q-75 0 -75 75q0 69 67 78q-47 38 -120 38q-86 0 -126 -118q-30 -89 -45 -268q-9 -140 -18 -279q-25 -377 -100 -924q-23 -165 -90 -274
q-88 -144 -231 -144q-78 0 -137 39q-67 44 -67 118q0 75 76 75q77 0 77 -75q0 -69 -70 -78q48 -39 121 -39q98 0 144 118q40 102 61 408q31 446 72 769q15 121 39 293q24 178 84 283q78 137 210 137q77 0 137 -39q68 -45 68 -118z" />
  </g>

</svg>
