<?xml version="1.0" standalone="no"?>
<!DOCTYPE svg PUBLIC "-//W3C//DTD SVG 1.1//EN" "http://www.w3.org/Graphics/SVG/1.1/DTD/svg11.dtd" >
<svg viewBox="0 -442 2048 2048">
  <g transform="matrix(1 0 0 -1 0 1606)">
   <path fill="currentColor"
d="M1019 1449q0 -75 -77 -75q-75 0 -75 75q0 69 67 78q-47 38 -120 38q-87 0 -126 -118q-31 -93 -45 -269l-18 -278l-7 -101h254q33 0 33 -37t-33 -37h-260q-12 -150 -28 -286h288q33 0 33 -37t-33 -37h-297q-30 -247 -50 -389q-23 -165 -90 -274q-88 -144 -231 -144
q-78 0 -137 39q-67 44 -67 118q0 75 76 75q77 0 77 -75q0 -69 -70 -78q48 -39 121 -39q98 0 144 118q40 104 61 408q9 132 18 241h-252q-35 0 -35 37t35 37h258q14 162 28 286h-286q-35 0 -35 37t35 37h295q17 144 50 387q57 420 294 420q77 0 137 -39q68 -45 68 -118z" />
  </g>

</svg>
