<?xml version="1.0" standalone="no"?>
<!DOCTYPE svg PUBLIC "-//W3C//DTD SVG 1.1//EN" "http://www.w3.org/Graphics/SVG/1.1/DTD/svg11.dtd" >
<svg viewBox="0 -442 2048 2048">
  <g transform="matrix(1 0 0 -1 0 1606)">
   <path fill="currentColor"
d="M1019 1449q0 -75 -77 -75q-75 0 -75 75q0 69 67 78q-47 38 -120 38q-87 0 -126 -118q-30 -91 -45 -269l-18 -278q-10 -145 -19 -249q341 124 343 124q37 0 37 -38q0 -26 -21 -34l-367 -133q-15 -147 -35 -299q-12 -99 -38 -295q-23 -165 -90 -274q-88 -144 -231 -144
q-78 0 -137 39q-67 44 -67 118q0 75 76 75q77 0 77 -75q0 -69 -70 -78q48 -39 121 -39q98 0 144 118q40 103 61 408q17 247 30 388q-337 -123 -343 -123q-37 0 -37 38q0 26 23 34l365 133q20 201 73 592q57 420 294 420q77 0 137 -39q68 -45 68 -118z" />
  </g>

</svg>
