<?xml version="1.0" standalone="no"?>
<!DOCTYPE svg PUBLIC "-//W3C//DTD SVG 1.1//EN" "http://www.w3.org/Graphics/SVG/1.1/DTD/svg11.dtd" >
<svg viewBox="0 -442 2048 2048">
  <g transform="matrix(1 0 0 -1 0 1606)">
   <path fill="currentColor"
d="M1019 1449q0 -75 -77 -75q-75 0 -75 75q0 69 67 78q-47 38 -120 38q-87 0 -126 -118q-35 -106 -60 -511q110 -33 176 -116q6 -8 6 -15q0 -24 -24 -24q-9 0 -18 9q-76 74 -143 97q-22 -318 -63 -624q76 9 160 67q9 6 15 6q24 0 24 -25q0 -9 -10 -18q-76 -67 -195 -78
l-31 -239q-23 -165 -90 -274q-88 -144 -231 -144q-78 0 -137 39q-67 44 -67 118q0 75 76 75q77 0 77 -75q0 -69 -70 -78q48 -39 121 -39q98 0 144 118q34 88 50 252q9 130 18 261q-116 35 -189 133.5t-73 219.5q0 142 96.5 248t238.5 119l31 237q57 420 294 420
q77 0 137 -39q68 -45 68 -118zM482 901q-120 -15 -200 -106.5t-80 -212.5q0 -103 60.5 -187t157.5 -117q28 359 62 623z" />
  </g>

</svg>
