<?xml version="1.0" standalone="no"?>
<!DOCTYPE svg PUBLIC "-//W3C//DTD SVG 1.1//EN" "http://www.w3.org/Graphics/SVG/1.1/DTD/svg11.dtd" >
<svg viewBox="0 -442 2048 2048">
  <g transform="matrix(1 0 0 -1 0 1606)">
   <path fill="currentColor"
d="M628 582q0 -43 -31 -74t-74 -31t-74 31t-31 74t31 74t74 31t74 -31t31 -74zM1019 1449q0 -75 -77 -75q-75 0 -75 75q0 69 67 78q-47 38 -120 38q-87 0 -126 -118q-35 -106 -59 -496h229q34 0 34 -33v-670q0 -35 -34 -35h-302l-31 -237q-23 -165 -90 -274
q-88 -144 -231 -144q-78 0 -137 39q-67 44 -67 118q0 75 76 75q77 0 77 -75q0 -69 -70 -78q48 -39 121 -39q98 0 144 118q36 92 52 267l18 278h426v642h-361l37 283q57 420 294 420q77 0 137 -39q68 -45 68 -118z" />
  </g>

</svg>
