<?xml version="1.0" standalone="no"?>
<!DOCTYPE svg PUBLIC "-//W3C//DTD SVG 1.1//EN" "http://www.w3.org/Graphics/SVG/1.1/DTD/svg11.dtd" >
<svg viewBox="0 -442 2048 2048">
  <g transform="matrix(1 0 0 -1 0 1606)">
   <path fill="currentColor"
d="M844 582q0 -43 -31 -74t-74 -31t-74.5 31t-31.5 74t31.5 74t74.5 31t74 -31t31 -74zM1108 582q0 -152 -108.5 -260.5t-260.5 -108.5q-93 0 -177 46l-37 -283q-23 -165 -90 -274q-88 -144 -231 -144q-78 0 -137 39q-67 44 -67 118q0 75 76 75q77 0 77 -75q0 -69 -70 -78
q48 -39 121 -39q98 0 144 118q40 103 61 408q15 212 27 351q34 -96 117.5 -155t185.5 -59q132 0 226.5 94.5t94.5 226.5t-94.5 226.5t-226.5 94.5q-181 0 -275 -155q19 167 56 438q57 420 294 420q77 0 137 -39q68 -45 68 -118q0 -75 -77 -75q-75 0 -75 75q0 69 67 78
q-47 38 -120 38q-86 0 -126 -118q-35 -103 -60 -513q54 17 111 17q152 0 260.5 -108.5t108.5 -260.5z" />
  </g>

</svg>
