<?xml version="1.0" standalone="no"?>
<!DOCTYPE svg PUBLIC "-//W3C//DTD SVG 1.1//EN" "http://www.w3.org/Graphics/SVG/1.1/DTD/svg11.dtd" >
<svg viewBox="0 -442 2048 2048">
  <g transform="matrix(1 0 0 -1 0 1606)">
   <path fill="currentColor"
d="M1019 1449q0 -75 -77 -75q-75 0 -75 75q0 69 67 78q-47 38 -120 38q-86 0 -126 -118q-35 -104 -60 -511q117 -35 190.5 -133.5t73.5 -220.5q0 -143 -97 -248.5t-239 -118.5l-31 -239q-23 -165 -90 -274q-88 -144 -231 -144q-78 0 -137 39q-67 44 -67 118q0 75 76 75
q77 0 77 -75q0 -69 -70 -78q48 -39 121 -39q98 0 144 118q34 87 50 251l18 262q-116 35 -189 133.5t-73 219.5q0 142 96.5 248t238.5 119l31 237q57 420 294 420q77 0 137 -39q68 -45 68 -118zM844 582q0 132 -94.5 226.5t-226.5 94.5t-226.5 -94.5t-94.5 -226.5
t94.5 -226.5t226.5 -94.5t226.5 94.5t94.5 226.5zM628 582q0 -43 -31 -74t-74 -31t-74 31t-31 74t31 74t74 31t74 -31t31 -74z" />
  </g>

</svg>
