<?xml version="1.0" standalone="no"?>
<!DOCTYPE svg PUBLIC "-//W3C//DTD SVG 1.1//EN" "http://www.w3.org/Graphics/SVG/1.1/DTD/svg11.dtd" >
<svg viewBox="0 -442 2048 2048">
  <g transform="matrix(1 0 0 -1 0 1606)">
   <path fill="currentColor"
d="M1117 765q0 -133 -98 -178q-64 -29 -215 -29h-144q-14 -134 -34 -287q-12 -99 -38 -295q-23 -165 -90 -274q-88 -144 -231 -144q-78 0 -137 39q-67 44 -67 118q0 75 76 75q77 0 77 -75q0 -69 -70 -78q48 -39 121 -39q98 0 144 118q40 104 61 408q17 246 35 434h-376
q58 -43 111 -121q60 -88 60 -150q0 -19 -28 -19q-17 0 -24 27q-25 98 -80 163q-61 72 -134 100q-36 14 -36 24t36 24q73 28 134 100q59 69 77 150q2 9 7 27q6 13 20 13q28 0 28 -18q0 -8 -4 -22q-44 -160 -167 -250h381q22 218 71 580q57 420 294 420q77 0 137 -39
q68 -45 68 -118q0 -75 -77 -75q-75 0 -75 75q0 69 67 78q-47 38 -120 38q-87 0 -126 -118q-31 -93 -46 -269q-8 -139 -17 -278q-11 -172 -23 -294h175q105 0 156 26q72 36 72 133q0 157 -154 157q-9 0 -25.5 -2.5t-25.5 -2.5q-25 0 -25 26q0 28 76 28q203 0 203 -206z" />
  </g>

</svg>
