<?xml version="1.0" standalone="no"?>
<!DOCTYPE svg PUBLIC "-//W3C//DTD SVG 1.1//EN" "http://www.w3.org/Graphics/SVG/1.1/DTD/svg11.dtd" >
<svg viewBox="0 -442 2048 2048">
  <g transform="matrix(1 0 0 -1 0 1606)">
   <path fill="currentColor"
d="M1020 148q0 -39 -38 -39q-14 0 -23 9l-369 369q-8 -78 -27 -216q-12 -99 -38 -295q-23 -165 -90 -274q-88 -144 -231 -144q-78 0 -137 39q-67 44 -67 118q0 75 76 75q77 0 77 -75q0 -69 -70 -78q48 -39 121 -39q99 0 144 118q40 105 61 408q15 222 26 343l-347 -348
q-9 -9 -24 -9q-38 0 -38 37q0 15 10 25l411 410l-411 410q-10 10 -10 25q0 37 38 37q14 0 24 -10l368 -367q18 170 64 509q57 420 294 420q77 0 137 -39q68 -45 68 -118q0 -75 -77 -75q-75 0 -75 75q0 69 67 78q-47 38 -120 38q-87 0 -126 -118q-31 -93 -46 -269
q-8 -139 -17 -278q-8 -122 -15 -203l349 349q9 9 23 9q38 0 38 -39q0 -13 -9 -22l-412 -412l412 -412q9 -9 9 -22z" />
  </g>

</svg>
