<?xml version="1.0" standalone="no"?>
<!DOCTYPE svg PUBLIC "-//W3C//DTD SVG 1.1//EN" "http://www.w3.org/Graphics/SVG/1.1/DTD/svg11.dtd" >
<svg viewBox="0 -442 2048 2048">
  <g transform="matrix(1 0 0 -1 0 1606)">
   <path fill="currentColor"
d="M1019 1449q0 -75 -77 -75q-75 0 -75 75q0 69 67 78q-47 38 -120 38q-86 0 -126 -118q-35 -104 -60 -510q127 -35 207.5 -141t80.5 -238v-377q0 -25 -24 -25q-25 0 -25 25v377q0 113 -67 204t-175 125q-24 -357 -100 -911q-23 -165 -90 -274q-88 -144 -231 -144
q-78 0 -137 39q-67 44 -67 118q0 75 76 75q77 0 77 -75q0 -69 -70 -78q48 -39 121 -39q98 0 144 118q40 102 61 408q31 453 73 776q-129 -15 -216.5 -113.5t-87.5 -228.5v-377q0 -25 -24 -25t-24 25v377q0 152 103.5 265t255.5 126l31 237q57 420 294 420q77 0 137 -39
q68 -45 68 -118z" />
  </g>

</svg>
