<?xml version="1.0" standalone="no"?>
<!DOCTYPE svg PUBLIC "-//W3C//DTD SVG 1.1//EN" "http://www.w3.org/Graphics/SVG/1.1/DTD/svg11.dtd" >
<svg viewBox="0 -442 2048 2048">
  <g transform="matrix(1 0 0 -1 0 1606)">
   <path fill="currentColor"
d="M1019 1449q0 -75 -77 -75q-75 0 -75 75q0 69 67 78q-47 38 -120 38q-86 0 -126 -118q-30 -89 -45 -268q-9 -140 -18 -279q-22 -336 -63 -636q130 15 217.5 113t87.5 229v377q0 25 25 25q24 0 24 -25v-377q0 -153 -104 -266t-256 -126l-31 -238q-23 -165 -90 -274
q-88 -144 -231 -144q-78 0 -137 39q-67 44 -67 118q0 75 76 75q77 0 77 -75q0 -69 -70 -78q48 -39 121 -39q98 0 144 118q34 87 50 251q9 130 18 261q-127 36 -206.5 141t-79.5 237v377q0 25 24 25t24 -25v-377q0 -112 67.5 -203.5t174.5 -125.5q27 351 61 616
q15 114 39 292.5t84 283.5q78 137 210 137q77 0 137 -39q68 -45 68 -118z" />
  </g>

</svg>
