<?xml version="1.0" standalone="no"?>
<!DOCTYPE svg PUBLIC "-//W3C//DTD SVG 1.1//EN" "http://www.w3.org/Graphics/SVG/1.1/DTD/svg11.dtd" >
<svg viewBox="0 -442 2048 2048">
  <g transform="matrix(1 0 0 -1 0 1606)">
   <path fill="currentColor"
d="M1019 1449q0 -75 -77 -75q-75 0 -75 75q0 69 67 78q-47 38 -120 38q-86 0 -126 -118q-32 -92 -46 -269q-9 -139 -17 -278q-25 -376 -79 -760q-23 -166 -90 -274q-87 -144 -231 -144q-78 0 -137 39q-67 44 -67 118q0 75 76 75q77 0 77 -75q0 -70 -70 -78q49 -39 121 -39
q97 0 144 118q40 101 61 408q29 426 63 698q28 223 32 248q26 143 79 235q78 137 210 137q77 0 137 -39q68 -45 68 -118zM992 -405q0 -37 -33 -37h-897q-35 0 -35 37t35 37h897q33 0 33 -37z" />
  </g>

</svg>
