<?xml version="1.0" standalone="no"?>
<!DOCTYPE svg PUBLIC "-//W3C//DTD SVG 1.1//EN" "http://www.w3.org/Graphics/SVG/1.1/DTD/svg11.dtd" >
<svg viewBox="0 -442 2048 2048">
  <g transform="matrix(1 0 0 -1 0 1606)">
   <path fill="currentColor"
d="M2020 582q0 -24 -27 -37l-1168 -552q-6 -3 -14 -3q-41 0 -41 41q0 26 24 37l1088 514l-1088 514q-24 11 -24 37q0 41 41 41q8 0 14 -3l1168 -552q27 -13 27 -37zM1420 582q0 -24 -27 -37l-1168 -552q-6 -3 -14 -3q-41 0 -41 41q0 26 24 37l1088 514l-1088 514
q-24 11 -24 37q0 41 41 41q8 0 14 -3l1168 -552q27 -13 27 -37z" />
  </g>

</svg>
