<?xml version="1.0" standalone="no"?>
<!DOCTYPE svg PUBLIC "-//W3C//DTD SVG 1.1//EN" "http://www.w3.org/Graphics/SVG/1.1/DTD/svg11.dtd" >
<svg viewBox="0 -442 2048 2048">
  <g transform="matrix(1 0 0 -1 0 1606)">
   <path fill="currentColor"
d="M965 1438q0 -69 -50 -119t-119 -50t-119 50t-50 119t50 118.5t119 49.5t119 -49.5t50 -118.5zM1422 582q0 -41 -37 -41h-548v-546q0 -39 -41 -39t-41 39v546h-546q-39 0 -39 41t39 41h546v548q0 37 41 37t41 -37v-548h548q37 0 37 -41zM905 1438q0 44 -32 76t-77 32
t-77 -32t-32 -76q0 -45 32 -77t77 -32t77 32t32 77z" />
  </g>

</svg>
