<?xml version="1.0" standalone="no"?>
<!DOCTYPE svg PUBLIC "-//W3C//DTD SVG 1.1//EN" "http://www.w3.org/Graphics/SVG/1.1/DTD/svg11.dtd" >
<svg viewBox="0 -442 2048 2048">
  <g transform="matrix(1 0 0 -1 0 1606)">
   <path fill="currentColor"
d="M1136 1575q-74 -85 -95 -105q-65 -57 -125 -57q-48 0 -130 49.5t-130 49.5q-80 0 -165 -98l-35 30q74 85 95 105q65 57 125 57q48 0 130 -49.5t130 -49.5q79 0 165 99zM1422 582q0 -41 -37 -41h-548v-546q0 -39 -41 -39t-41 39v546h-546q-39 0 -39 41t39 41h546v548
q0 37 41 37t41 -37v-548h548q37 0 37 -41z" />
  </g>

</svg>
