<?xml version="1.0" standalone="no"?>
<!DOCTYPE svg PUBLIC "-//W3C//DTD SVG 1.1//EN" "http://www.w3.org/Graphics/SVG/1.1/DTD/svg11.dtd" >
<svg viewBox="0 -442 2048 2048">
  <g transform="matrix(1 0 0 -1 0 1606)">
   <path fill="currentColor"
d="M1422 582q0 -41 -37 -41h-548v-546q0 -39 -41 -39t-41 39v546h-546q-39 0 -39 41t39 41h546v548q0 37 41 37t41 -37v-548h548q37 0 37 -41zM834 -100q0 -41 -39 -41q-298 0 -509.5 212.5t-211.5 510.5q0 299 211 511t510 212q39 0 39 -41t-39 -41q-265 0 -452 -188
t-187 -453q0 -264 187.5 -452.5t451.5 -188.5q39 0 39 -41z" />
  </g>

</svg>
