<?xml version="1.0" standalone="no"?>
<!DOCTYPE svg PUBLIC "-//W3C//DTD SVG 1.1//EN" "http://www.w3.org/Graphics/SVG/1.1/DTD/svg11.dtd" >
<svg viewBox="0 -442 2048 2048">
  <g transform="matrix(1 0 0 -1 0 1606)">
   <path fill="currentColor"
d="M1522 98q0 -42 -42 -42q-16 0 -27 11l-457 457l-142 -142l257 -257q11 -11 11 -27q0 -42 -42 -42q-16 0 -27 11l-257 257l-257 -257q-11 -11 -27 -11q-42 0 -42 42q0 16 11 27l257 257l-142 142l-457 -457q-11 -11 -27 -11q-42 0 -42 42q0 16 11 27l457 457l-458 458
q-10 10 -10 25q0 43 43 43q15 0 25 -10l458 -458l142 142l-258 258q-10 10 -10 25q0 43 43 43q15 0 25 -10l258 -258l258 258q10 10 25 10q43 0 43 -43q0 -15 -10 -25l-258 -258l142 -142l458 458q10 10 25 10q43 0 43 -43q0 -15 -10 -25l-458 -458l457 -457q11 -11 11 -27z
M938 582l-142 142l-142 -142l142 -142z" />
  </g>

</svg>
