<?xml version="1.0" standalone="no"?>
<!DOCTYPE svg PUBLIC "-//W3C//DTD SVG 1.1//EN" "http://www.w3.org/Graphics/SVG/1.1/DTD/svg11.dtd" >
<svg viewBox="0 -442 2048 2048">
  <g transform="matrix(1 0 0 -1 0 1606)">
   <path fill="currentColor"
d="M1518 582q0 -298 -211.5 -510.5t-509.5 -212.5t-510.5 212.5t-212.5 510.5q0 300 211.5 511.5t511.5 211.5q299 0 510 -212t211 -511zM1436 582q0 265 -187.5 453t-451.5 188q-266 0 -453.5 -187.5t-187.5 -453.5q0 -264 188.5 -452.5t452.5 -188.5t451.5 188.5
t187.5 452.5zM1318 582q0 -215 -153 -369t-368 -154t-369 154t-154 369q0 217 153 370t370 153q215 0 368 -153.5t153 -369.5zM1236 582q0 182 -129 311.5t-310 129.5q-183 0 -312 -129t-129 -312q0 -181 130 -311t311 -130q180 0 309.5 130t129.5 311zM1100 337
q26 -26 -3 -55t-55 -3l-245 245l-244 -245q-26 -26 -55 3t-3 55l244 245l-244 244q-28 28 1 57t57 1l244 -244l245 244q28 28 57 -1t1 -57l-245 -244z" />
  </g>

</svg>
