<?xml version="1.0" standalone="no"?>
<!DOCTYPE svg PUBLIC "-//W3C//DTD SVG 1.1//EN" "http://www.w3.org/Graphics/SVG/1.1/DTD/svg11.dtd" >
<svg viewBox="0 -442 2048 2048">
  <g transform="matrix(1 0 0 -1 0 1606)">
   <path fill="currentColor"
d="M1518 582q0 -298 -211.5 -510.5t-509.5 -212.5t-510.5 212.5t-212.5 510.5q0 300 211.5 511.5t511.5 211.5q299 0 510 -212t211 -511zM1436 582q0 265 -187.5 453t-451.5 188q-266 0 -453.5 -187.5t-187.5 -453.5q0 -264 188.5 -452.5t452.5 -188.5t451.5 188.5
t187.5 452.5zM910 930q0 -47 -33.5 -80t-80.5 -33t-80.5 33t-33.5 80q0 46 34 79.5t80 33.5t80 -33.5t34 -79.5zM1421 582q0 -41 -37 -41h-1175q-39 0 -39 41t39 41h1175q37 0 37 -41zM910 234q0 -46 -34 -79.5t-80 -33.5t-80 33.5t-34 79.5q0 47 33.5 80t80.5 33t80.5 -33
t33.5 -80z" />
  </g>

</svg>
