<?xml version="1.0" standalone="no"?>
<!DOCTYPE svg PUBLIC "-//W3C//DTD SVG 1.1//EN" "http://www.w3.org/Graphics/SVG/1.1/DTD/svg11.dtd" >
<svg viewBox="0 -442 2048 2048">
  <g transform="matrix(1 0 0 -1 0 1606)">
   <path fill="currentColor"
d="M1515 -76q0 -35 -43 -35h-1352q-43 0 -43 35q0 12 6 24l676 1355q14 28 36 28q23 0 37 -28l677 -1355q6 -12 6 -24zM1406 -29l-610 1222l-610 -1222h1220zM1162 388q0 -41 -37 -41h-288v-288q0 -37 -41 -37t-41 37v288h-285q-39 0 -39 41t39 41h285v285q0 39 41 39
t41 -39v-285h288q37 0 37 -41z" />
  </g>

</svg>
