<?xml version="1.0" standalone="no"?>
<!DOCTYPE svg PUBLIC "-//W3C//DTD SVG 1.1//EN" "http://www.w3.org/Graphics/SVG/1.1/DTD/svg11.dtd" >
<svg viewBox="0 -442 2048 2048">
  <g transform="matrix(1 0 0 -1 0 1606)">
   <path fill="currentColor"
d="M1249 -8q0 -37 -41 -37t-41 37v792q0 171 -163 273q-140 86 -322 86q-183 0 -322 -87q-163 -101 -163 -272v-792q0 -37 -41 -37t-41 37v799q0 202 189 326q164 108 378 108t379 -107q188 -124 188 -327v-799zM1006 16q0 -41 -41 -41q-26 0 -37 25l-246 553l-246 -553
q-11 -25 -37 -25q-41 0 -41 41q0 11 2 16l283 638q11 25 39 25t39 -25l283 -638q2 -5 2 -16z" />
  </g>

</svg>
