<?xml version="1.0" standalone="no"?>
<!DOCTYPE svg PUBLIC "-//W3C//DTD SVG 1.1//EN" "http://www.w3.org/Graphics/SVG/1.1/DTD/svg11.dtd" >
<svg viewBox="0 -442 2048 2048">
  <g transform="matrix(1 0 0 -1 0 1606)">
   <path fill="currentColor"
d="M1249 1216q0 -203 -188 -327q-165 -107 -379 -107t-379 107q-188 124 -188 327v299q0 37 41 37t41 -37v-293q0 -169 164 -271q140 -87 321 -87q182 0 322 86q163 101 163 272v293q0 37 41 37t41 -37v-299zM1207 582q0 -41 -37 -41h-974q-39 0 -39 41t39 41h974
q37 0 37 -41zM1249 -351q0 -37 -41 -37t-41 37v292q0 171 -163 273q-140 86 -322 86q-183 0 -322 -87q-163 -101 -163 -272v-292q0 -37 -41 -37t-41 37v299q0 202 189 326q164 108 378 108t379 -107q188 -124 188 -327v-299z" />
  </g>

</svg>
