<?xml version="1.0" standalone="no"?>
<!DOCTYPE svg PUBLIC "-//W3C//DTD SVG 1.1//EN" "http://www.w3.org/Graphics/SVG/1.1/DTD/svg11.dtd" >
<svg viewBox="0 -442 2048 2048">
  <g transform="matrix(1 0 0 -1 0 1606)">
   <path fill="currentColor"
d="M1249 819q0 -37 -41 -37t-41 37v293q0 171 -163 272q-140 86 -322 86q-181 0 -321 -87q-164 -102 -164 -271v-293q0 -37 -41 -37t-41 37v299q0 203 188 327q165 107 379 107t379 -107q188 -124 188 -327v-299zM1207 582q0 -41 -37 -41h-974q-39 0 -39 41t39 41h974
q37 0 37 -41zM1249 46q0 -203 -188 -327q-165 -107 -379 -107t-378 108q-189 124 -189 326v299q0 37 41 37t41 -37v-292q0 -171 163 -272q139 -87 322 -87q182 0 322 86q163 102 163 273v292q0 37 41 37t41 -37v-299z" />
  </g>

</svg>
