<?xml version="1.0" standalone="no"?>
<!DOCTYPE svg PUBLIC "-//W3C//DTD SVG 1.1//EN" "http://www.w3.org/Graphics/SVG/1.1/DTD/svg11.dtd" >
<svg viewBox="0 -442 2301 2048">
  <g transform="matrix(1 0 0 -1 0 1606)">
   <path fill="currentColor"
d="M2301 389q0 -203 -188 -327q-165 -107 -379 -107q-160 0 -302 65q-158 73 -224 199q-66 -126 -224 -199q-142 -65 -302 -65q-214 0 -379 107q-188 124 -188 327v799q0 37 41 37t41 -37v-793q0 -169 164 -271q140 -87 321 -87q182 0 322 86q163 101 163 272v793
q0 37 41 37t41 -37v-793q0 -169 164 -271q140 -87 321 -87q182 0 322 86q163 101 163 272v793q0 37 41 37t41 -37v-799z" />
  </g>

</svg>
