<?xml version="1.0" standalone="no"?>
<!DOCTYPE svg PUBLIC "-//W3C//DTD SVG 1.1//EN" "http://www.w3.org/Graphics/SVG/1.1/DTD/svg11.dtd" >
<svg viewBox="0 -442 2301 2048">
  <g transform="matrix(1 0 0 -1 0 1606)">
   <path fill="currentColor"
d="M2301 -8q0 -37 -41 -37t-41 37v792q0 171 -163 273q-140 86 -322 86q-183 0 -322 -87q-163 -101 -163 -272v-792q0 -37 -41 -37t-41 37v792q0 171 -163 273q-140 86 -322 86q-183 0 -322 -87q-163 -101 -163 -272v-792q0 -37 -41 -37t-41 37v799q0 202 189 326
q164 108 378 108q161 0 303 -66q157 -72 223 -198q67 125 224 198q142 66 302 66q214 0 379 -107q188 -124 188 -327v-799z" />
  </g>

</svg>
