<?xml version="1.0" standalone="no"?>
<!DOCTYPE svg PUBLIC "-//W3C//DTD SVG 1.1//EN" "http://www.w3.org/Graphics/SVG/1.1/DTD/svg11.dtd" >
<svg viewBox="0 -442 2048 2048">
  <g transform="matrix(1 0 0 -1 0 1606)">
   <path fill="currentColor"
d="M1549 -4q0 -41 -41 -41q-26 0 -37 25l-489 1103l-105 -236l370 -835q2 -5 2 -16q0 -41 -41 -41q-26 0 -37 25l-339 765l-339 -765q-11 -25 -37 -25q-41 0 -41 41q0 11 2 16l370 835l-105 236l-489 -1103q-11 -25 -37 -25q-41 0 -41 41q0 11 2 16l526 1188q11 25 39 25
t39 -25l111 -251l111 251q11 25 39 25t39 -25l526 -1188q2 -5 2 -16z" />
  </g>

</svg>
