<?xml version="1.0" standalone="no"?>
<!DOCTYPE svg PUBLIC "-//W3C//DTD SVG 1.1//EN" "http://www.w3.org/Graphics/SVG/1.1/DTD/svg11.dtd" >
<svg viewBox="0 -442 2048 2048">
  <g transform="matrix(1 0 0 -1 0 1606)">
   <path fill="currentColor"
d="M1249 1183q0 -11 -2 -16l-241 -544h164q37 0 37 -41t-37 -41h-200l-249 -562q-11 -25 -39 -25t-39 25l-249 562h-198q-39 0 -39 41t39 41h162l-241 544q-2 5 -2 16q0 41 41 41q26 0 37 -25l255 -576h468l255 576q11 25 37 25q41 0 41 -41zM879 541h-394l197 -445z" />
  </g>

</svg>
