<?xml version="1.0" standalone="no"?>
<!DOCTYPE svg PUBLIC "-//W3C//DTD SVG 1.1//EN" "http://www.w3.org/Graphics/SVG/1.1/DTD/svg11.dtd" >
<svg viewBox="0 -442 2048 2048">
  <g transform="matrix(1 0 0 -1 0 1606)">
   <path fill="currentColor"
d="M909 1432q0 -46 -33.5 -79.5t-79.5 -33.5q-47 0 -80 33t-33 80t33 80t80 33t80 -33t33 -80zM1422 982q0 -41 -37 -41h-1176q-39 0 -39 41t39 41h1176q37 0 37 -41zM1422 582q0 -41 -37 -41h-1176q-39 0 -39 41t39 41h1176q37 0 37 -41zM1422 182q0 -41 -37 -41h-1176
q-39 0 -39 41t39 41h1176q37 0 37 -41z" />
  </g>

</svg>
