<?xml version="1.0" standalone="no"?>
<!DOCTYPE svg PUBLIC "-//W3C//DTD SVG 1.1//EN" "http://www.w3.org/Graphics/SVG/1.1/DTD/svg11.dtd" >
<svg viewBox="0 -442 2048 2048">
  <g transform="matrix(1 0 0 -1 0 1606)">
   <path fill="currentColor"
d="M1422 182q0 -41 -37 -41h-148v-146q0 -39 -41 -39t-41 39v146h-318v-146q0 -39 -41 -39t-41 39v146h-318v-146q0 -39 -41 -39t-41 39v146h-146q-39 0 -39 41t39 41h146v318h-146q-39 0 -39 41t39 41h146v318h-146q-39 0 -39 41t39 41h146v148q0 37 41 37t41 -37v-148h318
v148q0 37 41 37t41 -37v-148h318v148q0 37 41 37t41 -37v-148h148q37 0 37 -41t-37 -41h-148v-318h148q37 0 37 -41t-37 -41h-148v-318h148q37 0 37 -41zM1155 623v318h-318v-318h318zM755 623v318h-318v-318h318zM1155 223v318h-318v-318h318zM755 223v318h-318v-318h318z
" />
  </g>

</svg>
