<?xml version="1.0" standalone="no"?>
<!DOCTYPE svg PUBLIC "-//W3C//DTD SVG 1.1//EN" "http://www.w3.org/Graphics/SVG/1.1/DTD/svg11.dtd" >
<svg viewBox="0 -442 2048 2048">
  <g transform="matrix(1 0 0 -1 0 1606)">
   <path fill="currentColor"
d="M1900 782q0 -41 -37 -41h-678q-39 0 -39 41t39 41h678q37 0 37 -41zM1900 382q0 -41 -37 -41h-678q-39 0 -39 41t39 41h678q37 0 37 -41zM902 782q0 -41 -37 -41h-678q-39 0 -39 41t39 41h678q37 0 37 -41zM902 382q0 -41 -37 -41h-678q-39 0 -39 41t39 41h678
q37 0 37 -41z" />
  </g>

</svg>
