<?xml version="1.0" standalone="no"?>
<!DOCTYPE svg PUBLIC "-//W3C//DTD SVG 1.1//EN" "http://www.w3.org/Graphics/SVG/1.1/DTD/svg11.dtd" >
<svg viewBox="0 -442 2048 2048">
  <g transform="matrix(1 0 0 -1 0 1606)">
   <path fill="currentColor"
d="M1420 582q0 -90 -67 -156t-157 -66q-91 0 -157.5 65.5t-66.5 156.5t66.5 158.5t157.5 67.5q92 0 158 -67t66 -159zM1421 31q0 -41 -41 -41q-8 0 -14 3l-1169 552q-27 13 -27 37t27 37l1169 552q6 3 14 3q41 0 41 -41q0 -26 -24 -37l-1090 -514l1090 -514q24 -11 24 -37z
M1343 582q0 60 -44 104.5t-103 44.5t-103 -44.5t-44 -104.5q0 -58 44 -101.5t103 -43.5t103 43.5t44 101.5z" />
  </g>

</svg>
