<?xml version="1.0" standalone="no"?>
<!DOCTYPE svg PUBLIC "-//W3C//DTD SVG 1.1//EN" "http://www.w3.org/Graphics/SVG/1.1/DTD/svg11.dtd" >
<svg viewBox="0 -442 2048 2048">
  <g transform="matrix(1 0 0 -1 0 1606)">
   <path fill="currentColor"
d="M1421 582q0 -24 -27 -37l-1169 -552q-6 -3 -14 -3q-41 0 -41 41q0 26 24 37l1090 514l-1090 514q-24 11 -24 37q0 41 41 41q8 0 14 -3l1169 -552q27 -13 27 -37zM619 582q0 -91 -66.5 -156.5t-157.5 -65.5q-90 0 -157 66t-67 156q0 92 66 159t158 67q91 0 157.5 -67.5
t66.5 -158.5zM542 582q0 60 -44 104.5t-103 44.5t-103 -44.5t-44 -104.5q0 -58 44 -101.5t103 -43.5t103 43.5t44 101.5z" />
  </g>

</svg>
