<?xml version="1.0" standalone="no"?>
<!DOCTYPE svg PUBLIC "-//W3C//DTD SVG 1.1//EN" "http://www.w3.org/Graphics/SVG/1.1/DTD/svg11.dtd" >
<svg viewBox="0 -442 2048 2048">
  <g transform="matrix(1 0 0 -1 0 1606)">
   <path fill="currentColor"
d="M579 1448q0 -72 -65 -149q-88 -104 -101 -132q-17 -35 -20 -95h-21q3 63 16 105q8 27 59 129q40 78 40 133q0 57 -29 96q-33 43 -88 43q-93 0 -93 -65q0 -17 15 -45.5t15 -41.5q0 -42 -40 -42q-55 0 -55 78q0 68 58 108q52 36 122 36q78 0 129 -39q58 -43 58 -119z
M1421 31q0 -41 -41 -41q-8 0 -14 3l-1169 552q-27 13 -27 37t27 37l1169 552q6 3 14 3q41 0 41 -41q0 -26 -24 -37l-1090 -514l1090 -514q24 -11 24 -37zM442 954q0 -55 -56 -55t-56 55q0 56 56 56t56 -56z" />
  </g>

</svg>
