<?xml version="1.0" standalone="no"?>
<!DOCTYPE svg PUBLIC "-//W3C//DTD SVG 1.1//EN" "http://www.w3.org/Graphics/SVG/1.1/DTD/svg11.dtd" >
<svg viewBox="0 -442 2048 2048">
  <g transform="matrix(1 0 0 -1 0 1606)">
   <path fill="currentColor"
d="M1421 463q0 -41 -41 -41q-8 0 -14 3l-1169 552q-27 13 -27 37t27 37l1169 552q6 3 14 3q41 0 41 -41q0 -26 -24 -37l-1090 -514l1090 -514q24 -11 24 -37zM1477 310q0 -158 -109 -255q-97 -87 -231 -87q-133 0 -345.5 142t-334.5 142t-206 -75q-77 -68 -77 -150
q0 -59 -30 -59q-29 0 -29 59q0 156 110 253q98 87 232 87q133 0 345 -141.5t335 -141.5q122 0 206 75q77 69 77 151q0 57 28 57q29 0 29 -57zM1477 -100q0 -158 -109 -255q-97 -87 -231 -87q-133 0 -345.5 142t-334.5 142t-206 -75q-77 -68 -77 -150q0 -59 -30 -59
q-29 0 -29 59q0 156 110 253q98 87 232 87q133 0 345 -141.5t335 -141.5q122 0 206 75q77 69 77 151q0 57 28 57q29 0 29 -57z" />
  </g>

</svg>
