<?xml version="1.0" standalone="no"?>
<!DOCTYPE svg PUBLIC "-//W3C//DTD SVG 1.1//EN" "http://www.w3.org/Graphics/SVG/1.1/DTD/svg11.dtd" >
<svg viewBox="0 -442 2048 2048">
  <g transform="matrix(1 0 0 -1 0 1606)">
   <path fill="currentColor"
d="M1421 651q0 -45 -39 -45q-7 0 -15 3l-1170 434q-27 10 -27 39t27 39l1170 434q5 2 13 2q41 0 41 -41q0 -30 -25 -39l-1063 -395l1063 -395q25 -9 25 -36zM1477 454q0 -152 -92 -267q-100 -124 -248 -124q-114 0 -238 88l-208 164q-123 88 -236 88q-162 0 -245 -147
q-29 -52 -38 -142q-5 -51 -29 -51q-28 0 -28 63q0 152 92 268q99 123 248 123q115 0 240 -88q104 -82 207 -164q124 -88 235 -88q85 0 156 50t104 130q15 36 22 109q5 51 29 51q29 0 29 -63zM1477 -318q0 -41 -37 -41h-1286q-39 0 -39 41t39 41h1286q37 0 37 -41z" />
  </g>

</svg>
