<?xml version="1.0" standalone="no"?>
<!DOCTYPE svg PUBLIC "-//W3C//DTD SVG 1.1//EN" "http://www.w3.org/Graphics/SVG/1.1/DTD/svg11.dtd" >
<svg viewBox="0 -442 2048 2048">
  <g transform="matrix(1 0 0 -1 0 1606)">
   <path fill="currentColor"
d="M1421 1231q0 -31 -27 -39l-1170 -334q-11 -3 -15 -3q-39 0 -39 45q0 29 25 36l1032 295l-1032 295q-25 7 -25 39q0 41 41 41q6 0 13 -2l1170 -334q27 -8 27 -39zM1477 705q0 -146 -96.5 -234.5t-243.5 -88.5q-133 0 -345 142.5t-335 142.5q-101 0 -185 -51
q-98 -60 -98 -155q0 -39 -30 -39q-29 0 -29 39q0 145 100 235q95 86 242 86q133 0 344.5 -142t335.5 -142q101 0 185 52q98 60 98 155q0 37 28 37q29 0 29 -37zM1421 -397q0 -45 -39 -45q-4 0 -15 3l-1170 334q-27 8 -27 39t27 39l1170 334q7 2 13 2q41 0 41 -41
q0 -32 -25 -39l-1032 -295l1032 -295q25 -7 25 -36z" />
  </g>

</svg>
