<?xml version="1.0" standalone="no"?>
<!DOCTYPE svg PUBLIC "-//W3C//DTD SVG 1.1//EN" "http://www.w3.org/Graphics/SVG/1.1/DTD/svg11.dtd" >
<svg viewBox="0 -442 2048 2048">
  <g transform="matrix(1 0 0 -1 0 1606)">
   <path fill="currentColor"
d="M1421 900q0 -45 -39 -45q-4 0 -15 3l-1170 334q-27 8 -27 39t27 39l1170 334q7 2 13 2q41 0 41 -41q0 -32 -25 -39l-1032 -295l1032 -295q25 -7 25 -36zM1421 497q0 -31 -27 -39l-1170 -334q-7 -2 -13 -2q-41 0 -41 41q0 32 25 39l1032 295l-1032 295q-25 7 -25 36
q0 45 39 45q4 0 15 -3l1170 -334q27 -8 27 -39zM1421 -101q0 -41 -37 -41h-1175q-39 0 -39 41t39 41h1175q37 0 37 -41zM1421 -401q0 -41 -37 -41h-1175q-39 0 -39 41t39 41h1175q37 0 37 -41z" />
  </g>

</svg>
