<?xml version="1.0" standalone="no"?>
<!DOCTYPE svg PUBLIC "-//W3C//DTD SVG 1.1//EN" "http://www.w3.org/Graphics/SVG/1.1/DTD/svg11.dtd" >
<svg viewBox="0 -442 2048 2048">
  <g transform="matrix(1 0 0 -1 0 1606)">
   <path fill="currentColor"
d="M1421 881q0 -41 -41 -41q-7 0 -14 2l-1169 343q-27 8 -27 37q0 28 20 34l1176 345q17 5 19 5q36 0 36 -41q0 -30 -18 -35l-1047 -307l1041 -305q24 -7 24 -37zM1421 583q0 -41 -41 -41q-4 0 -14 3l-1176 345q-20 6 -20 34q0 41 41 41q9 0 16 -2l1176 -345q18 -5 18 -35z
M1421 238q0 -29 -27 -37l-1169 -343q-7 -2 -14 -2q-41 0 -41 41q0 30 24 37l1041 305l-1047 307q-18 5 -18 35q0 41 36 41q2 0 19 -5l1176 -345q20 -6 20 -34zM1421 -60q0 -28 -20 -34l-1176 -345q-10 -3 -14 -3q-41 0 -41 41q0 30 18 35l1176 345q7 2 16 2q41 0 41 -41z
" />
  </g>

</svg>
