<?xml version="1.0" standalone="no"?>
<!DOCTYPE svg PUBLIC "-//W3C//DTD SVG 1.1//EN" "http://www.w3.org/Graphics/SVG/1.1/DTD/svg11.dtd" >
<svg viewBox="0 -442 2048 2048">
  <g transform="matrix(1 0 0 -1 0 1606)">
   <path fill="currentColor"
d="M1421 1333q0 -27 -18 -35l-1176 -555q-4 -2 -16 -2q-41 0 -41 41q0 25 20 34l1176 555q6 3 14 3q41 0 41 -41zM1421 -169q0 -41 -41 -41q-10 0 -14 5l-1176 555q-20 9 -20 34q0 24 27 37l1169 553q4 2 14 2q41 0 41 -41q0 -26 -24 -37l-1090 -514l1096 -518q18 -9 18 -35
z" />
  </g>

</svg>
