<?xml version="1.0" standalone="no"?>
<!DOCTYPE svg PUBLIC "-//W3C//DTD SVG 1.1//EN" "http://www.w3.org/Graphics/SVG/1.1/DTD/svg11.dtd" >
<svg viewBox="0 -442 2048 2048">
  <g transform="matrix(1 0 0 -1 0 1606)">
   <path fill="currentColor"
d="M1477 1529q0 -146 -96.5 -234.5t-243.5 -88.5q-133 0 -345 142.5t-335 142.5q-101 0 -185 -51q-98 -60 -98 -155q0 -39 -30 -39q-29 0 -29 39q0 145 100 235q95 86 242 86q133 0 344.5 -142t335.5 -142q101 0 185 52q98 60 98 155q0 37 28 37q29 0 29 -37zM1421 582
q0 -25 -27 -37l-1169 -502q-7 -3 -14 -3q-41 0 -41 41q0 27 24 37l1081 464l-1081 464q-24 10 -24 37q0 41 41 41q7 0 14 -3l1169 -502q27 -12 27 -37zM1421 -101q0 -41 -37 -41h-1175q-39 0 -39 41t39 41h1175q37 0 37 -41zM1421 -401q0 -41 -37 -41h-1175q-39 0 -39 41
t39 41h1175q37 0 37 -41z" />
  </g>

</svg>
