<?xml version="1.0" standalone="no"?>
<!DOCTYPE svg PUBLIC "-//W3C//DTD SVG 1.1//EN" "http://www.w3.org/Graphics/SVG/1.1/DTD/svg11.dtd" >
<svg viewBox="0 -442 2048 2048">
  <g transform="matrix(1 0 0 -1 0 1606)">
   <path fill="currentColor"
d="M1421 582q0 -24 -27 -37l-1169 -553q-4 -2 -14 -2q-41 0 -41 41q0 26 24 37l1090 514l-1096 518q-18 9 -18 35q0 41 41 41q6 0 14 -4l1176 -556q20 -9 20 -34zM821 582q0 -24 -27 -37l-569 -270q-4 -2 -14 -2q-41 0 -41 41q0 26 24 37l490 231l-496 234q-18 8 -18 35
q0 41 41 41q6 0 14 -4l576 -272q20 -9 20 -34z" />
  </g>

</svg>
