<?xml version="1.0" standalone="no"?>
<!DOCTYPE svg PUBLIC "-//W3C//DTD SVG 1.1//EN" "http://www.w3.org/Graphics/SVG/1.1/DTD/svg11.dtd" >
<svg viewBox="0 -442 2048 2048">
  <g transform="matrix(1 0 0 -1 0 1606)">
   <path fill="currentColor"
d="M1422 982q0 -41 -37 -41h-336q-13 0 -25 13t-12 26q0 87 -64 152t-151 65q-89 0 -152 -64t-63 -153q0 -39 -39 -39h-334q-39 0 -39 41t39 41h293q17 111 100 183.5t195 72.5q109 0 194 -74t99 -182h295q37 0 37 -41zM1422 582q0 -41 -37 -41h-1176q-39 0 -39 41t39 41
h1176q37 0 37 -41zM1422 182q0 -41 -37 -41h-1176q-39 0 -39 41t39 41h1176q37 0 37 -41z" />
  </g>

</svg>
