<?xml version="1.0" standalone="no"?>
<!DOCTYPE svg PUBLIC "-//W3C//DTD SVG 1.1//EN" "http://www.w3.org/Graphics/SVG/1.1/DTD/svg11.dtd" >
<svg viewBox="0 -442 2048 2048">
  <g transform="matrix(1 0 0 -1 0 1606)">
   <path fill="currentColor"
d="M1421 882q0 -41 -37 -41q-267 0 -496 -31q-237 -32 -424 -146q-178 -108 -212 -335q-6 -39 -41 -39q-41 0 -41 45q0 12 8 53q25 130 106 225q172 203 550 269q-435 77 -590 327q-74 119 -74 224q0 43 41 43q35 0 41 -37q35 -232 211 -339q184 -113 424 -145
q237 -32 497 -32q37 0 37 -41zM1421 41q0 -41 -37 -41h-1175q-39 0 -39 41t39 41h1175q37 0 37 -41zM1421 -259q0 -41 -37 -41h-1175q-39 0 -39 41t39 41h1175q37 0 37 -41z" />
  </g>

</svg>
