<?xml version="1.0" standalone="no"?>
<!DOCTYPE svg PUBLIC "-//W3C//DTD SVG 1.1//EN" "http://www.w3.org/Graphics/SVG/1.1/DTD/svg11.dtd" >
<svg viewBox="0 -442 2048 2048">
  <g transform="matrix(1 0 0 -1 0 1606)">
   <path fill="currentColor"
d="M1421 335q0 -45 -41 -45q-17 0 -27.5 10.5t-13.5 28.5q-28 180 -137 278q-118 106 -289 156q-268 78 -704 78q-39 0 -39 41t39 41q436 0 706 80q173 51 289 156q108 97 135 280q6 37 41 37q41 0 41 -43q0 -22 -12 -76q-42 -188 -196 -297q-178 -126 -455 -178
q269 -47 453 -177q156 -110 198 -295q12 -53 12 -75zM1421 -259q0 -41 -37 -41h-720l-127 -129q-13 -13 -29 -13q-42 0 -42 42q0 16 13 29l70 71h-340q-39 0 -39 41t39 41h421l216 218h-637q-39 0 -39 41t39 41h718l127 129q13 13 29 13q42 0 42 -42q0 -16 -13 -29l-70 -71
h342q37 0 37 -41t-37 -41h-423l-216 -218h639q37 0 37 -41z" />
  </g>

</svg>
