<?xml version="1.0" standalone="no"?>
<!DOCTYPE svg PUBLIC "-//W3C//DTD SVG 1.1//EN" "http://www.w3.org/Graphics/SVG/1.1/DTD/svg11.dtd" >
<svg viewBox="0 -442 2048 2048">
  <g transform="matrix(1 0 0 -1 0 1606)">
   <path fill="currentColor"
d="M1421 465q0 -45 -41 -45q-17 0 -27.5 10.5t-13.5 28.5q-28 180 -137 278q-118 106 -289 156q-268 78 -704 78q-39 0 -39 41t39 41q436 0 706 80q173 51 289 156q108 97 135 280q6 37 41 37q41 0 41 -43q0 -22 -12 -76q-42 -188 -196 -297q-178 -126 -455 -178
q269 -47 453 -177q156 -110 198 -295q12 -53 12 -75zM1475 310q0 -158 -109 -255q-97 -87 -231 -87q-133 0 -345.5 142t-334.5 142t-206 -75q-77 -68 -77 -150q0 -59 -30 -59q-29 0 -29 59q0 156 110 253q98 87 232 87q133 0 345 -141.5t335 -141.5q122 0 206 75
q77 69 77 151q0 57 28 57q29 0 29 -57zM1475 -100q0 -158 -109 -255q-97 -87 -231 -87q-133 0 -345.5 142t-334.5 142t-206 -75q-77 -68 -77 -150q0 -59 -30 -59q-29 0 -29 59q0 156 110 253q98 87 232 87q133 0 345 -141.5t335 -141.5q122 0 206 75q77 69 77 151
q0 57 28 57q29 0 29 -57z" />
  </g>

</svg>
