<?xml version="1.0" standalone="no"?>
<!DOCTYPE svg PUBLIC "-//W3C//DTD SVG 1.1//EN" "http://www.w3.org/Graphics/SVG/1.1/DTD/svg11.dtd" >
<svg viewBox="0 -442 2048 2048">
  <g transform="matrix(1 0 0 -1 0 1606)">
   <path fill="currentColor"
d="M1421 1012q0 -41 -37 -41q-267 0 -496 -31q-237 -32 -424 -146q-178 -108 -212 -335q-6 -39 -41 -39q-41 0 -41 45q0 12 8 53q25 130 106 225q172 203 550 269q-435 77 -590 327q-74 119 -74 224q0 43 41 43q35 0 41 -37q35 -232 211 -339q184 -113 424 -145
q237 -32 497 -32q37 0 37 -41zM1475 310q0 -158 -109 -255q-97 -87 -231 -87q-133 0 -345.5 142t-334.5 142t-206 -75q-77 -68 -77 -150q0 -59 -30 -59q-29 0 -29 59q0 156 110 253q98 87 232 87q133 0 345 -141.5t335 -141.5q122 0 206 75q77 69 77 151q0 57 28 57
q29 0 29 -57zM1475 -100q0 -158 -109 -255q-97 -87 -231 -87q-133 0 -345.5 142t-334.5 142t-206 -75q-77 -68 -77 -150q0 -59 -30 -59q-29 0 -29 59q0 156 110 253q98 87 232 87q133 0 345 -141.5t335 -141.5q122 0 206 75q77 69 77 151q0 57 28 57q29 0 29 -57z" />
  </g>

</svg>
