<?xml version="1.0" standalone="no"?>
<!DOCTYPE svg PUBLIC "-//W3C//DTD SVG 1.1//EN" "http://www.w3.org/Graphics/SVG/1.1/DTD/svg11.dtd" >
<svg viewBox="0 -442 2048 2048">
  <g transform="matrix(1 0 0 -1 0 1606)">
   <path fill="currentColor"
d="M1421 465q0 -45 -41 -45q-17 0 -27.5 10.5t-13.5 28.5q-28 180 -137 278q-118 106 -289 156q-268 78 -704 78q-39 0 -39 41t39 41q436 0 706 80q173 51 289 156q108 97 135 280q6 37 41 37q41 0 41 -43q0 -22 -12 -76q-42 -188 -196 -297q-178 -126 -455 -178
q269 -47 453 -177q156 -110 198 -295q12 -53 12 -75zM1475 -100q0 -158 -109 -255q-97 -87 -231 -87q-112 0 -244 77q-111 71 -221 141l-199 -205q-12 -13 -29 -13q-42 0 -42 42q0 16 13 28l180 186q-71 28 -138 28q-122 0 -206 -75q-77 -68 -77 -150q0 -59 -30 -59
q-29 0 -29 59q0 156 110 253q98 87 232 87q102 0 217 -62l173 179q-180 115 -188 119q-108 59 -202 59q-122 0 -206 -75q-77 -68 -77 -150q0 -59 -30 -59q-29 0 -29 59q0 156 110 253q98 87 232 87q112 0 244 -77l220 -140l198 203q12 13 29 13q42 0 42 -42q0 -15 -13 -28
l-178 -184q71 -28 138 -28q122 0 206 75q77 69 77 151q0 57 28 57q29 0 29 -57q0 -158 -109 -255q-97 -87 -231 -87q-102 0 -218 62l-173 -178q179 -114 188 -119q108 -59 203 -59q122 0 206 75q77 69 77 151q0 57 28 57q29 0 29 -57z" />
  </g>

</svg>
