<?xml version="1.0" standalone="no"?>
<!DOCTYPE svg PUBLIC "-//W3C//DTD SVG 1.1//EN" "http://www.w3.org/Graphics/SVG/1.1/DTD/svg11.dtd" >
<svg viewBox="0 -442 2048 2048">
  <g transform="matrix(1 0 0 -1 0 1606)">
   <path fill="currentColor"
d="M1421 1012q0 -41 -37 -41q-267 0 -496 -31q-237 -32 -424 -146q-178 -108 -212 -335q-6 -39 -41 -39q-41 0 -41 45q0 12 8 53q25 130 106 225q172 203 550 269q-435 77 -590 327q-74 119 -74 224q0 43 41 43q35 0 41 -37q35 -232 211 -339q184 -113 424 -145
q237 -32 497 -32q37 0 37 -41zM1475 -100q0 -158 -109 -255q-97 -87 -231 -87q-112 0 -244 77q-111 71 -221 141l-199 -205q-12 -13 -29 -13q-42 0 -42 42q0 16 13 28l180 186q-71 28 -138 28q-122 0 -206 -75q-77 -68 -77 -150q0 -59 -30 -59q-29 0 -29 59q0 156 110 253
q98 87 232 87q102 0 217 -62l173 179q-180 115 -188 119q-108 59 -202 59q-122 0 -206 -75q-77 -68 -77 -150q0 -59 -30 -59q-29 0 -29 59q0 156 110 253q98 87 232 87q112 0 244 -77l220 -140l198 203q12 13 29 13q42 0 42 -42q0 -15 -13 -28l-178 -184q71 -28 138 -28
q122 0 206 75q77 69 77 151q0 57 28 57q29 0 29 -57q0 -158 -109 -255q-97 -87 -231 -87q-102 0 -218 62l-173 -178q179 -114 188 -119q108 -59 203 -59q122 0 206 75q77 69 77 151q0 57 28 57q29 0 29 -57z" />
  </g>

</svg>
