<?xml version="1.0" standalone="no"?>
<!DOCTYPE svg PUBLIC "-//W3C//DTD SVG 1.1//EN" "http://www.w3.org/Graphics/SVG/1.1/DTD/svg11.dtd" >
<svg viewBox="0 -442 2048 2048">
  <g transform="matrix(1 0 0 -1 0 1606)">
   <path fill="currentColor"
d="M1878 31q0 -43 -41 -43q-35 0 -41 37q-27 183 -135 280q-116 105 -289 156q-270 80 -506 80q-39 0 -39 41t39 41q236 0 506 80q173 51 289 156q108 97 135 280q6 37 41 37q41 0 41 -43q0 -22 -12 -76q-42 -188 -196 -297q-178 -126 -455 -178q277 -52 455 -178
q154 -109 196 -297q12 -54 12 -76zM1221 31q0 -43 -41 -43q-35 0 -41 37q-27 183 -135 280q-116 105 -289 156q-270 80 -506 80q-39 0 -39 41t39 41q236 0 506 80q173 51 289 156q108 97 135 280q6 37 41 37q41 0 41 -43q0 -22 -12 -76q-42 -188 -196 -297
q-178 -126 -455 -178q277 -52 455 -178q154 -109 196 -297q12 -54 12 -76z" />
  </g>

</svg>
