<?xml version="1.0" standalone="no"?>
<!DOCTYPE svg PUBLIC "-//W3C//DTD SVG 1.1//EN" "http://www.w3.org/Graphics/SVG/1.1/DTD/svg11.dtd" >
<svg viewBox="0 -442 2048 2048">
  <g transform="matrix(1 0 0 -1 0 1606)">
   <path fill="currentColor"
d="M1878 582q0 -41 -39 -41q-236 0 -506 -80q-173 -51 -289 -156q-108 -97 -135 -280q-6 -37 -41 -37q-41 0 -41 43q0 22 12 76q42 188 196 297q178 126 455 178q-277 52 -455 178q-154 109 -196 297q-12 54 -12 76q0 43 41 43q35 0 41 -37q27 -183 135 -280
q116 -105 289 -156q270 -80 506 -80q39 0 39 -41zM1221 582q0 -41 -39 -41q-236 0 -506 -80q-173 -51 -289 -156q-108 -97 -135 -280q-6 -37 -41 -37q-41 0 -41 43q0 22 12 76q42 188 196 297q178 126 455 178q-277 52 -455 178q-154 109 -196 297q-12 54 -12 76q0 43 41 43
q35 0 41 -37q27 -183 135 -280q116 -105 289 -156q270 -80 506 -80q39 0 39 -41z" />
  </g>

</svg>
