<?xml version="1.0" standalone="no"?>
<!DOCTYPE svg PUBLIC "-//W3C//DTD SVG 1.1//EN" "http://www.w3.org/Graphics/SVG/1.1/DTD/svg11.dtd" >
<svg viewBox="0 -442 2048 2048">
  <g transform="matrix(1 0 0 -1 0 1606)">
   <path fill="currentColor"
d="M1421 41q0 -41 -39 -41h-590q-248 0 -432 166q-190 171 -190 416t190 416q184 166 432 166h590q39 0 39 -41t-39 -41h-584q-216 0 -378 -140q-168 -147 -168 -360t168 -360q162 -140 378 -140h584q39 0 39 -41zM909 582q0 -47 -33 -80t-80 -33q-48 0 -80.5 33t-32.5 80
t32.5 80t80.5 33q45 0 79 -33.5t34 -79.5z" />
  </g>

</svg>
