<?xml version="1.0" standalone="no"?>
<!DOCTYPE svg PUBLIC "-//W3C//DTD SVG 1.1//EN" "http://www.w3.org/Graphics/SVG/1.1/DTD/svg11.dtd" >
<svg viewBox="0 -442 2048 2048">
  <g transform="matrix(1 0 0 -1 0 1606)">
   <path fill="currentColor"
d="M1421 582q0 -245 -190 -416q-184 -166 -432 -166h-590q-39 0 -39 41t39 41h584q216 0 378 140q168 147 168 360t-168 360q-162 140 -378 140h-584q-39 0 -39 41t39 41h590q248 0 432 -166q190 -171 190 -416zM909 582q0 -47 -33 -80t-80 -33q-48 0 -80.5 33t-32.5 80
t32.5 80t80.5 33q45 0 79 -33.5t34 -79.5z" />
  </g>

</svg>
