<?xml version="1.0" standalone="no"?>
<!DOCTYPE svg PUBLIC "-//W3C//DTD SVG 1.1//EN" "http://www.w3.org/Graphics/SVG/1.1/DTD/svg11.dtd" >
<svg viewBox="0 -442 2048 2048">
  <g transform="matrix(1 0 0 -1 0 1606)">
   <path fill="currentColor"
d="M788 1272q0 -47 -33 -80t-80 -33t-80 33t-33 80t33 80t80 33q46 0 79.5 -33.5t33.5 -79.5zM1020 462q0 -198 -149 -332q-144 -130 -345 -130h-319q-37 0 -37 41t37 41h319q167 0 287 106q125 110 125 274t-125 274q-120 106 -287 106h-319q-37 0 -37 41t37 41h319
q201 0 345 -130q149 -134 149 -332zM1020 -261q0 -41 -37 -41h-774q-39 0 -39 41t39 41h774q37 0 37 -41z" />
  </g>

</svg>
