<?xml version="1.0" standalone="no"?>
<!DOCTYPE svg PUBLIC "-//W3C//DTD SVG 1.1//EN" "http://www.w3.org/Graphics/SVG/1.1/DTD/svg11.dtd" >
<svg viewBox="0 -442 2048 2048">
  <g transform="matrix(1 0 0 -1 0 1606)">
   <path fill="currentColor"
d="M1421 672q0 -245 -190 -416q-184 -166 -432 -166h-590q-39 0 -39 41t39 41h584q216 0 378 140q168 147 168 360t-168 360q-162 140 -378 140h-584q-39 0 -39 41t39 41h590q248 0 432 -166q190 -171 190 -416zM1421 -114q0 -137 -87 -231q-89 -97 -225 -97
q-122 0 -317 136.5t-308 136.5q-95 0 -174 -59q-86 -65 -86 -157q0 -57 -27 -57t-27 57q0 137 89 231.5t225 94.5q122 0 316.5 -136t308.5 -136q95 0 174 60q86 65 86 157q0 55 25 55q27 0 27 -55z" />
  </g>

</svg>
