<?xml version="1.0" standalone="no"?>
<!DOCTYPE svg PUBLIC "-//W3C//DTD SVG 1.1//EN" "http://www.w3.org/Graphics/SVG/1.1/DTD/svg11.dtd" >
<svg viewBox="0 -442 2048 2048">
  <g transform="matrix(1 0 0 -1 0 1606)">
   <path fill="currentColor"
d="M1020 401q0 -41 -37 -41h-319q-201 0 -345 130q-149 134 -149 332t149 332q144 130 345 130h319q37 0 37 -41t-37 -41h-319q-167 0 -287 -106q-125 -110 -125 -274t125 -274q120 -106 287 -106h319q37 0 37 -41zM1020 196q0 -111 -49 -188q-58 -90 -163 -90
q-84 0 -215.5 111.5t-209.5 111.5q-73 0 -116 -53q-40 -49 -40 -123q0 -47 -29 -47q-28 0 -28 57q0 111 50 187q58 89 163 89q84 0 215.5 -111t209.5 -111q73 0 116 53q41 50 41 124q0 45 27 45q28 0 28 -55zM1020 -164q0 -111 -49 -188q-58 -90 -163 -90
q-84 0 -215.5 111.5t-209.5 111.5q-73 0 -116 -53q-40 -49 -40 -123q0 -47 -29 -47q-28 0 -28 57q0 111 50 187q58 89 163 89q84 0 215.5 -111t209.5 -111q73 0 116 53q41 50 41 124q0 45 27 45q28 0 28 -55z" />
  </g>

</svg>
