<?xml version="1.0" standalone="no"?>
<!DOCTYPE svg PUBLIC "-//W3C//DTD SVG 1.1//EN" "http://www.w3.org/Graphics/SVG/1.1/DTD/svg11.dtd" >
<svg viewBox="0 -442 2048 2048">
  <g transform="matrix(1 0 0 -1 0 1606)">
   <path fill="currentColor"
d="M1421 341q0 -41 -39 -41h-590q-248 0 -432 166q-190 171 -190 416t190 416q184 166 432 166h590q39 0 39 -41t-39 -41h-584q-216 0 -378 -140q-168 -147 -168 -360t168 -360q162 -140 378 -140h584q39 0 39 -41zM1421 -259q0 -41 -37 -41h-720l-127 -129q-13 -13 -29 -13
q-42 0 -42 42q0 16 13 29l70 71h-340q-39 0 -39 41t39 41h421l216 218h-637q-39 0 -39 41t39 41h718l127 129q13 13 29 13q42 0 42 -42q0 -16 -13 -29l-70 -71h342q37 0 37 -41t-37 -41h-423l-216 -218h639q37 0 37 -41z" />
  </g>

</svg>
