<?xml version="1.0" standalone="no"?>
<!DOCTYPE svg PUBLIC "-//W3C//DTD SVG 1.1//EN" "http://www.w3.org/Graphics/SVG/1.1/DTD/svg11.dtd" >
<svg viewBox="0 -442 2048 2048">
  <g transform="matrix(1 0 0 -1 0 1606)">
   <path fill="currentColor"
d="M1421 41q0 -41 -39 -41h-590q-248 0 -432 166q-190 171 -190 416t190 416q184 166 432 166h590q39 0 39 -41v-1082zM1421 -318q0 -41 -37 -41h-1175q-39 0 -39 41t39 41h1175q37 0 37 -41zM1339 82v1000h-541q-216 0 -378 -140q-168 -147 -168 -360t168 -360
q162 -140 378 -140h541z" />
  </g>

</svg>
