<?xml version="1.0" standalone="no"?>
<!DOCTYPE svg PUBLIC "-//W3C//DTD SVG 1.1//EN" "http://www.w3.org/Graphics/SVG/1.1/DTD/svg11.dtd" >
<svg viewBox="0 -442 2048 2048">
  <g transform="matrix(1 0 0 -1 0 1606)">
   <path fill="currentColor"
d="M2030 41q0 -41 -37 -41h-319q-189 0 -331 117q-145 121 -161 304h-164q-16 -183 -161 -304q-142 -117 -331 -117h-319q-37 0 -37 41t37 41h319q155 0 272 94q121 96 138 245h-427q-39 0 -39 41t39 41h427q-17 149 -138 245q-117 94 -272 94h-319q-37 0 -37 41t37 41h319
q189 0 331 -117q145 -121 161 -304h164q16 183 161 304q142 117 331 117h319q37 0 37 -41t-37 -41h-319q-155 0 -272 -94q-121 -96 -138 -245h427q39 0 39 -41t-39 -41h-427q17 -149 138 -245q117 -94 272 -94h319q37 0 37 -41z" />
  </g>

</svg>
