<?xml version="1.0" standalone="no"?>
<!DOCTYPE svg PUBLIC "-//W3C//DTD SVG 1.1//EN" "http://www.w3.org/Graphics/SVG/1.1/DTD/svg11.dtd" >
<svg viewBox="0 -442 2048 2048">
  <g transform="matrix(1 0 0 -1 0 1606)">
   <path fill="currentColor"
d="M1457 492q0 -102 -71 -157q-65 -51 -170 -51q-98 0 -166 65q-53 -65 -67 -65q-15 0 -15 23v225q0 23 19 23q15 0 21 -25q26 -103 64 -150q51 -63 144 -63q169 0 169 137q0 71 -68 106q-31 16 -146 44q-99 23 -139 56q-64 52 -64 128q0 93 76 142q64 42 163 42
q82 0 140 -42q40 42 56 42q17 0 17 -23v-178q0 -24 -20 -24q-16 0 -21 30q-3 21 -5 42q-22 125 -167 125q-168 0 -168 -114q0 -60 66 -92q34 -16 118 -32q120 -23 170 -71q64 -61 64 -143zM1479 41q0 -41 -37 -41h-1288q-39 0 -39 41t39 41h602v1245q0 37 41 37t41 -37
v-1245h604q37 0 37 -41z" />
  </g>

</svg>
