<?xml version="1.0" standalone="no"?>
<!DOCTYPE svg PUBLIC "-//W3C//DTD SVG 1.1//EN" "http://www.w3.org/Graphics/SVG/1.1/DTD/svg11.dtd" >
<svg viewBox="0 -442 2048 2048">
  <g transform="matrix(1 0 0 -1 0 1606)">
   <path fill="currentColor"
d="M687 1182q0 -123 -81.5 -215.5t-203.5 -108.5v-1163q0 -37 -41 -37t-41 37v1163q-121 15 -203 108.5t-82 215.5q0 134 96 229t230 95q133 0 229.5 -95.5t96.5 -228.5zM605 1182q0 99 -72.5 170.5t-171.5 71.5t-171.5 -71.5t-72.5 -170.5q0 -100 72 -172t172 -72t172 72
t72 172z" />
  </g>

</svg>
