<?xml version="1.0" standalone="no"?>
<!DOCTYPE svg PUBLIC "-//W3C//DTD SVG 1.1//EN" "http://www.w3.org/Graphics/SVG/1.1/DTD/svg11.dtd" >
<svg viewBox="0 -442 2048 2048">
  <g transform="matrix(1 0 0 -1 0 1606)">
   <path fill="currentColor"
d="M1477 746q0 -152 -92 -267q-100 -124 -248 -124q-51 0 -101 16v-776q0 -37 -41 -37t-41 37v812q-56 33 -158.5 118t-157.5 117v-1047q0 -37 -41 -37t-41 37v1084q-50 16 -101 16q-162 0 -245 -147q-29 -52 -38 -142q-5 -51 -29 -51q-28 0 -28 63q0 152 92 268
q99 123 248 123q51 0 101 -16v776q0 37 41 37t41 -37v-812q58 -32 160.5 -117t155.5 -117v1046q0 37 41 37t41 -37v-1083q50 -17 101 -17q85 0 156 50t104 130q15 36 22 109q5 51 29 51q29 0 29 -63z" />
  </g>

</svg>
