<?xml version="1.0" standalone="no"?>
<!DOCTYPE svg PUBLIC "-//W3C//DTD SVG 1.1//EN" "http://www.w3.org/Graphics/SVG/1.1/DTD/svg11.dtd" >
<svg viewBox="0 -442 2048 2048">
  <g transform="matrix(1 0 0 -1 0 1606)">
   <path fill="currentColor"
d="M455 1082q0 -46 -34 -79.5t-79 -33.5q-47 0 -80 33.5t-33 79.5q0 47 33 79.5t80 32.5q45 0 79 -33.5t34 -78.5zM455 582q0 -46 -34 -79.5t-79 -33.5q-47 0 -80 33.5t-33 79.5q0 47 33 79.5t80 32.5q45 0 79 -33.5t34 -78.5zM455 82q0 -46 -34 -79.5t-79 -33.5
q-47 0 -80 33.5t-33 79.5q0 47 33 79.5t80 32.5q45 0 79 -33.5t34 -78.5z" />
  </g>

</svg>
