<?xml version="1.0" standalone="no"?>
<!DOCTYPE svg PUBLIC "-//W3C//DTD SVG 1.1//EN" "http://www.w3.org/Graphics/SVG/1.1/DTD/svg11.dtd" >
<svg viewBox="0 -442 2336 2048">
  <g transform="matrix(1 0 0 -1 0 1606)">
   <path fill="currentColor"
d="M2336 184q0 -41 -41 -41q-7 0 -14 3l-844 399q-27 13 -27 37t27 37l844 399q7 3 14 3q41 0 41 -41q0 -26 -24 -37l-765 -361l765 -361q24 -11 24 -37zM2336 -108q0 -41 -41 -41q-7 0 -14 3l-1464 691q-27 13 -27 37t27 37l1464 691q7 3 14 3q41 0 41 -41q0 -26 -24 -37
l-1385 -653l1385 -653q24 -11 24 -37zM2336 -401q0 -41 -41 -41q-7 0 -14 3l-2084 984q-27 13 -27 37t27 37l2084 984q7 3 14 3q41 0 41 -41q0 -26 -24 -37l-2005 -946l2005 -946q24 -11 24 -37z" />
  </g>

</svg>
