<?xml version="1.0" standalone="no"?>
<!DOCTYPE svg PUBLIC "-//W3C//DTD SVG 1.1//EN" "http://www.w3.org/Graphics/SVG/1.1/DTD/svg11.dtd" >
<svg viewBox="0 -442 2336 2048">
  <g transform="matrix(1 0 0 -1 0 1606)">
   <path fill="currentColor"
d="M2336 582q0 -24 -27 -37l-2084 -984q-7 -3 -14 -3q-41 0 -41 41q0 26 24 37l2005 946l-2005 946q-24 11 -24 37q0 41 41 41q7 0 14 -3l2084 -984q27 -13 27 -37zM1716 582q0 -24 -27 -37l-1464 -691q-7 -3 -14 -3q-41 0 -41 41q0 26 24 37l1385 653l-1385 653
q-24 11 -24 37q0 41 41 41q7 0 14 -3l1464 -691q27 -13 27 -37zM1096 582q0 -24 -27 -37l-844 -399q-7 -3 -14 -3q-41 0 -41 41q0 26 24 37l765 361l-765 361q-24 11 -24 37q0 41 41 41q7 0 14 -3l844 -399q27 -13 27 -37z" />
  </g>

</svg>
