<?xml version="1.0" standalone="no"?>
<!DOCTYPE svg PUBLIC "-//W3C//DTD SVG 1.1//EN" "http://www.w3.org/Graphics/SVG/1.1/DTD/svg11.dtd" >
<svg viewBox="0 -442 2048 2048">
  <g transform="matrix(1 0 0 -1 0 1606)">
   <path fill="currentColor"
d="M1421 428q0 -41 -41 -41q-10 0 -14 2l-1169 553q-27 13 -27 37q0 25 20 34l1176 555q4 5 14 5q41 0 41 -41q0 -26 -18 -35l-1096 -518l1090 -514q24 -11 24 -37zM1421 30q0 -41 -41 -41q-8 0 -14 3l-1176 555q-20 9 -20 34q0 41 41 41q12 0 16 -2l1176 -555q18 -8 18 -35
zM1421 -367q0 -41 -41 -41q-8 0 -14 3l-1176 555q-20 9 -20 34q0 41 41 41q12 0 16 -2l1176 -555q18 -8 18 -35z" />
  </g>

</svg>
