<?xml version="1.0" standalone="no"?>
<!DOCTYPE svg PUBLIC "-//W3C//DTD SVG 1.1//EN" "http://www.w3.org/Graphics/SVG/1.1/DTD/svg11.dtd" >
<svg viewBox="0 -442 2048 2048">
  <g transform="matrix(1 0 0 -1 0 1606)">
   <path fill="currentColor"
d="M1469 1568q0 -9 -8 -36l-576 -1927q-14 -47 -43 -47q-42 0 -42 38q0 9 8 36l576 1927q14 47 43 47q42 0 42 -38zM1069 1568q0 -9 -8 -36l-576 -1927q-14 -47 -43 -47q-42 0 -42 38q0 9 8 36l576 1927q14 47 43 47q42 0 42 -38zM669 1568q0 -9 -8 -36l-576 -1927
q-14 -47 -43 -47q-42 0 -42 38q0 9 8 36l576 1927q14 47 43 47q42 0 42 -38z" />
  </g>

</svg>
