<?xml version="1.0" standalone="no"?>
<!DOCTYPE svg PUBLIC "-//W3C//DTD SVG 1.1//EN" "http://www.w3.org/Graphics/SVG/1.1/DTD/svg11.dtd" >
<svg viewBox="0 -442 2048 2048">
  <g transform="matrix(1 0 0 -1 0 1606)">
   <path fill="currentColor"
d="M1955 -79q0 -16 -9 -25l-286 -285q-10 -10 -25 -10q-18 0 -30 12l-1122 1123q-8 8 -20 8q-10 0 -18 -8l-195 -195q-7 -7 -15 -7q-10 0 -29.5 17.5t-19.5 26.5q0 3 2 11q53 201 53 331q0 228 -99 428q-44 89 -44 88q0 22 23 22q-2 0 87 -44q198 -98 428 -98q61 0 176.5 27
t165.5 27q9 0 26.5 -19.5t17.5 -29.5q0 -8 -7 -15l-195 -195q-7 -7 -7 -18t8 -19l1122 -1123q12 -12 12 -30z" />
  </g>

</svg>
