<?xml version="1.0" standalone="no"?>
<!DOCTYPE svg PUBLIC "-//W3C//DTD SVG 1.1//EN" "http://www.w3.org/Graphics/SVG/1.1/DTD/svg11.dtd" >
<svg viewBox="0 -442 2433 2048">
  <g transform="matrix(1 0 0 -1 0 1606)">
   <path fill="currentColor"
d="M2433 582q0 -16 -18 -23q-27 -8 -80 -24q-164 -55 -301 -168q-140 -115 -268 -336q-8 -13 -15 -13h-13q-10 -1 -14 -1q-36 0 -36 24v276q0 26 -27 26h-774q-27 0 -27 -26v-276q0 -24 -36 -24q-4 0 -14 1h-13q-7 0 -15 13q-128 221 -266.5 335t-302.5 169q-27 7 -80 24
q-18 7 -18 23t18 23q27 8 80 24q164 55 302.5 169t266.5 335q8 13 15 13q4 0 13 1h14q36 0 36 -24v-276q0 -26 27 -26h774q27 0 27 26v276q0 24 36 24h14q9 -1 14.5 -1t13.5 -13q128 -221 268 -336q137 -113 301 -168q27 -7 80 -24q18 -7 18 -23z" />
  </g>

</svg>
