<?xml version="1.0" standalone="no"?>
<!DOCTYPE svg PUBLIC "-//W3C//DTD SVG 1.1//EN" "http://www.w3.org/Graphics/SVG/1.1/DTD/svg11.dtd" >
<svg viewBox="0 -442 2048 2048">
  <g transform="matrix(1 0 0 -1 0 1606)">
   <path fill="currentColor"
d="M1190 267v-14q-1 -9 -1 -13q0 -7 -13 -15q-221 -128 -335 -266.5t-169 -302.5q-7 -27 -24 -80q-7 -18 -23 -18t-23 18q-8 27 -24 80q-55 164 -169 302.5t-335 266.5q-13 8 -13 15v13q-1 10 -1 14q0 36 24 36h276q26 0 26 27v504q0 27 -26 27h-276q-24 0 -24 36q0 4 1 14
v13q0 7 13 15q221 128 336 268q113 137 168 301q7 27 24 80q7 18 23 18t23 -18q8 -27 24 -80q55 -164 168 -301q115 -140 336 -268q13 -8 13 -13.5t1 -14.5v-14q0 -36 -24 -36h-276q-26 0 -26 -27v-504q0 -27 26 -27h276q24 0 24 -36z" />
  </g>

</svg>
