<?xml version="1.0" standalone="no"?>
<!DOCTYPE svg PUBLIC "-//W3C//DTD SVG 1.1//EN" "http://www.w3.org/Graphics/SVG/1.1/DTD/svg11.dtd" >
<svg viewBox="0 -442 2048 2048">
  <g transform="matrix(1 0 0 -1 0 1606)">
   <path fill="currentColor"
d="M1931 153q0 -24 -26 -36q-20 -8 -59 -25q-149 -75 -237 -230q-15 -27 -26 -27t-26 27q-87 154 -236 230q-19 8 -58 25q-26 12 -26 36q0 42 39 42q7 0 15 -3q144 -52 251 -178v527h-1386q-41 0 -41 41t41 41h1427q41 0 41 -41v-569q107 127 253 179q8 3 15 3q39 0 39 -42z
" />
  </g>

</svg>
