<?xml version="1.0" standalone="no"?>
<!DOCTYPE svg PUBLIC "-//W3C//DTD SVG 1.1//EN" "http://www.w3.org/Graphics/SVG/1.1/DTD/svg11.dtd" >
<svg viewBox="0 -442 2048 2048">
  <g transform="matrix(1 0 0 -1 0 1606)">
   <path fill="currentColor"
d="M1931 582q0 -41 -41 -41h-1386v-527q107 126 251 178q8 3 15 3q39 0 39 -42q0 -24 -26 -36q-19 -8 -58 -25q-149 -76 -236 -230q-15 -27 -26 -27t-26 27q-88 155 -237 230q-20 8 -59 25q-26 12 -26 36q0 42 39 42q7 0 15 -3q146 -52 253 -179v569q0 41 41 41h1427
q41 0 41 -41z" />
  </g>

</svg>
