<?xml version="1.0" standalone="no"?>
<!DOCTYPE svg PUBLIC "-//W3C//DTD SVG 1.1//EN" "http://www.w3.org/Graphics/SVG/1.1/DTD/svg11.dtd" >
<svg viewBox="0 -442 2048 2048">
  <g transform="matrix(1 0 0 -1 0 1606)">
   <path fill="currentColor"
d="M1455 1182q0 -66 -66 -66t-66 66t66 66t66 -66zM1155 1182q0 -66 -66 -66t-66 66t66 66t66 -66zM1455 882q0 -66 -66 -66t-66 66t66 66t66 -66zM855 1182q0 -66 -66 -66t-66 66t66 66t66 -66zM1455 582q0 -66 -66 -66t-66 66t66 66t66 -66zM555 1182q0 -66 -66 -66
t-66 66t66 66t66 -66zM1455 282q0 -66 -66 -66t-66 66t66 66t66 -66zM255 1182q0 -66 -66 -66t-66 66t66 66t66 -66zM1455 -18q0 -66 -66 -66t-66 66t66 66t66 -66zM255 882q0 -66 -66 -66t-66 66t66 66t66 -66zM1155 -18q0 -66 -66 -66t-66 66t66 66t66 -66zM255 582
q0 -66 -66 -66t-66 66t66 66t66 -66zM855 -18q0 -66 -66 -66t-66 66t66 66t66 -66zM255 282q0 -66 -66 -66t-66 66t66 66t66 -66zM555 -18q0 -66 -66 -66t-66 66t66 66t66 -66zM255 -18q0 -66 -66 -66t-66 66t66 66t66 -66z" />
  </g>

</svg>
