<?xml version="1.0" standalone="no"?>
<!DOCTYPE svg PUBLIC "-//W3C//DTD SVG 1.1//EN" "http://www.w3.org/Graphics/SVG/1.1/DTD/svg11.dtd" >
<svg viewBox="0 -442 2891 2048">
  <g transform="matrix(1 0 0 -1 0 1606)">
   <path fill="currentColor"
d="M2891 582q0 -41 -39 -41h-481q-16 -285 -225.5 -483.5t-496.5 -198.5t-495.5 199t-224.5 483h-591q222 -157 287 -431q8 -34 8 -36q0 -27 -21 -27q-47 0 -53 6t-8 13q-22 84 -31 109q-18 53 -48 104q-106 182 -296 265q-16 6 -47 18q-14 6 -14 20q0 18 25 29l40 14
q132 57 226 169q53 63 91 141q24 49 54 163q5 19 20 19q44 0 41 1q21 -4 21 -28q0 -58 -57 -179q-84 -177 -238 -288h591q16 285 224 483.5t496 198.5q289 0 497.5 -198t224.5 -484h481q39 0 39 -41zM2289 623q-15 241 -186 412t-411 187v-599h597zM1610 623v599
q-241 -15 -412 -186.5t-187 -412.5h599zM2289 541h-597v-599q239 16 410 187.5t187 411.5zM1610 -58v599h-599q16 -240 187.5 -412t411.5 -187z" />
  </g>

</svg>
