<?xml version="1.0" standalone="no"?>
<!DOCTYPE svg PUBLIC "-//W3C//DTD SVG 1.1//EN" "http://www.w3.org/Graphics/SVG/1.1/DTD/svg11.dtd" >
<svg viewBox="0 -442 2891 2048">
  <g transform="matrix(1 0 0 -1 0 1606)">
   <path fill="currentColor"
d="M2891 582q0 -41 -41 -41q-14 0 -30 14l-160 142l-348 -314q-13 -12 -31 -12t-31 12l-348 314l-348 -314q-13 -12 -31 -12t-31 12l-348 314l-158 -142q-16 -14 -32 -14h-658q126 -107 178 -251q3 -8 3 -15q0 -39 -42 -39q-24 0 -36 26q-8 19 -25 58q-76 149 -230 236
q-27 15 -27 26t27 26q155 88 230 237q8 20 25 59q12 26 36 26q42 0 42 -39q0 -7 -3 -15q-52 -146 -179 -253h642l176 158q13 12 31 12t31 -12l348 -314l348 314q13 12 31 12t31 -12l348 -314l348 314q13 12 31 12t31 -12l190 -170q10 -9 10 -29z" />
  </g>

</svg>
