<?xml version="1.0" standalone="no"?>
<!DOCTYPE svg PUBLIC "-//W3C//DTD SVG 1.1//EN" "http://www.w3.org/Graphics/SVG/1.1/DTD/svg11.dtd" >
<svg viewBox="0 -442 2048 2048">
  <g transform="matrix(1 0 0 -1 0 1606)">
   <path fill="currentColor"
d="M1931 582q0 -41 -37 -41h-54q-39 0 -39 41t39 41h54q37 0 37 -41zM1631 582q0 -41 -37 -41h-54q-39 0 -39 41t39 41h54q37 0 37 -41zM1331 582q0 -41 -37 -41h-54q-39 0 -39 41t39 41h54q37 0 37 -41zM1031 582q0 -41 -37 -41h-54q-39 0 -39 41t39 41h54q37 0 37 -41z
M731 582q0 -41 -37 -41h-54q-39 0 -39 41t39 41h54q37 0 37 -41zM633 74q0 -27 -21 -27q-45 0 -36 -1q-20 2 -24 19t-12 48q-38 146 -132.5 257.5t-230.5 170.5q-16 5 -46 18q-16 9 -16 23t16 20q169 64 277 191q56 66 92 143q23 49 40 115q3 16 11 47q6 19 20 19q44 0 41 0
q21 -3 21 -27q0 -4 -7 -35q-60 -270 -288 -432h54q39 0 39 -41t-39 -41h-54q229 -166 288 -432q7 -31 7 -35z" />
  </g>

</svg>
