<?xml version="1.0" standalone="no"?>
<!DOCTYPE svg PUBLIC "-//W3C//DTD SVG 1.1//EN" "http://www.w3.org/Graphics/SVG/1.1/DTD/svg11.dtd" >
<svg viewBox="0 -442 2048 2048">
  <g transform="matrix(1 0 0 -1 0 1606)">
   <path fill="currentColor"
d="M1963 74q0 -27 -21 -27q-45 0 -36 -1q-20 2 -24 19t-12 48q-38 146 -132.5 257.5t-230.5 170.5h-328v-395q0 -39 -41 -39t-41 39v395h-759q228 -162 288 -432q7 -31 7 -35q0 -24 -21 -27q3 0 -41 0q-14 0 -20 19q-3 16 -11 47q-17 66 -40 115q-36 77 -92 143
q-108 127 -277 191q-16 6 -16 20t16 23q16 6 46 18q221 96 323 314q23 50 40 114q3 16 11 47q5 18 25 20q-9 -1 36 -1q21 0 21 -27q0 -4 -7 -35q-59 -266 -288 -432h759v397q0 37 41 37t41 -37v-397h328q221 96 323 314q23 50 40 114q3 16 11 47q5 18 25 20q-9 -1 36 -1
q21 0 21 -27q0 -4 -7 -35q-26 -118 -93 -224q-97 -154 -247 -249q150 -95 247 -249q67 -106 93 -224q7 -31 7 -35z" />
  </g>

</svg>
