<?xml version="1.0" standalone="no"?>
<!DOCTYPE svg PUBLIC "-//W3C//DTD SVG 1.1//EN" "http://www.w3.org/Graphics/SVG/1.1/DTD/svg11.dtd" >
<svg viewBox="0 -442 2048 2048">
  <g transform="matrix(1 0 0 -1 0 1606)">
   <path fill="currentColor"
d="M1931 582q0 -41 -39 -41h-450l274 -274q27 -27 -2 -56t-56 -2l-315 315l-315 -315q-27 -27 -56 2t-2 56l274 274h-906q222 -157 287 -431q8 -34 8 -36q0 -27 -21 -27q-47 0 -53 6t-8 13q-22 84 -31 109q-18 53 -48 104q-106 182 -296 265q-16 6 -47 18q-14 6 -14 20
q0 18 25 29l40 14q132 57 226 169q53 63 91 141q24 49 54 163q5 19 20 19q44 0 41 1q21 -4 21 -28q0 -58 -57 -179q-84 -177 -238 -288h906l-275 275q-26 26 3 55t55 3l316 -316l316 316q26 26 55 -3t3 -55l-275 -275h450q39 0 39 -41z" />
  </g>

</svg>
