<?xml version="1.0" standalone="no"?>
<!DOCTYPE svg PUBLIC "-//W3C//DTD SVG 1.1//EN" "http://www.w3.org/Graphics/SVG/1.1/DTD/svg11.dtd" >
<svg viewBox="0 -442 2048 2048">
  <g transform="matrix(1 0 0 -1 0 1606)">
   <path fill="currentColor"
d="M1980 582q0 -41 -39 -41q-19 0 -31 14q-98 110 -148 151q-83 66 -163 66q-78 0 -162 -66q-53 -43 -148 -151q-104 -118 -167 -166q-101 -77 -205 -77q-109 0 -277 123q-145 106 -229 106h-73q244 -175 295 -467q0 -27 -20 -27h-41q-18 0 -21 19q-31 171 -144.5 305
t-276.5 191q-15 4 -15 20t15 23q163 55 276.5 188.5t144.5 304.5q3 19 21 19h41q20 0 20 -27q-51 -292 -295 -467h73q105 0 276 -123q148 -106 230 -106q80 0 163 65q52 41 148 150q107 121 166 167q102 78 205 78q105 0 206 -78q59 -46 164 -167q11 -13 11 -27z" />
  </g>

</svg>
