<?xml version="1.0" standalone="no"?>
<!DOCTYPE svg PUBLIC "-//W3C//DTD SVG 1.1//EN" "http://www.w3.org/Graphics/SVG/1.1/DTD/svg11.dtd" >
<svg viewBox="0 -442 2048 2048">
  <g transform="matrix(1 0 0 -1 0 1606)">
   <path fill="currentColor"
d="M1870 856q0 -56 -28 -56q-19 0 -30 51q-34 153 -157 153q-73 0 -196.5 -102t-213.5 -102q-98 0 -160 81q-57 75 -57 176q0 61 31 61q17 0 26 -34q4 -25 8 -49q11 -51 55 -86t97 -35q72 0 195.5 102t214.5 102q105 0 164 -81q51 -71 51 -181zM1931 582q0 -41 -39 -41
h-1554q222 -157 287 -431q8 -34 8 -36q0 -27 -21 -27q-47 0 -53 6t-8 13q-22 84 -31 109q-18 53 -48 104q-106 182 -296 265q-16 6 -47 18q-14 6 -14 20q0 18 25 29l40 14q132 57 226 169q53 63 91 141q24 49 54 163q5 19 20 19q44 0 41 1q21 -4 21 -28q0 -58 -57 -179
q-84 -177 -238 -288h1554q39 0 39 -41z" />
  </g>

</svg>
