<?xml version="1.0" standalone="no"?>
<!DOCTYPE svg PUBLIC "-//W3C//DTD SVG 1.1//EN" "http://www.w3.org/Graphics/SVG/1.1/DTD/svg11.dtd" >
<svg viewBox="0 -442 2048 2048">
  <g transform="matrix(1 0 0 -1 0 1606)">
   <path fill="currentColor"
d="M1916 72q0 -41 -37 -41h-1145q34 -67 57 -134q3 -9 3 -15q0 -39 -42 -39q-22 0 -36 27q-18 46 -57 135q-138 281 -394 464q-42 25 -124 78q-25 17 -25 35t25 35q42 25 124 78q256 183 394 464q17 46 57 135q14 27 36 27q42 0 42 -39q0 -6 -3 -15q-23 -67 -57 -134h1145
q37 0 37 -41t-37 -41h-1188q-82 -141 -192 -258h1380q37 0 37 -41t-37 -41h-1464q-88 -78 -179 -129q91 -51 179 -129h1464q37 0 37 -41t-37 -41h-1380q110 -117 192 -258h1188q37 0 37 -41z" />
  </g>

</svg>
