<?xml version="1.0" standalone="no"?>
<!DOCTYPE svg PUBLIC "-//W3C//DTD SVG 1.1//EN" "http://www.w3.org/Graphics/SVG/1.1/DTD/svg11.dtd" >
<svg viewBox="0 -442 2048 2048">
  <g transform="matrix(1 0 0 -1 0 1606)">
   <path fill="currentColor"
d="M1916 582q0 -18 -25 -35q-42 -25 -124 -78q-256 -183 -394 -464q-17 -46 -57 -135q-14 -27 -36 -27q-42 0 -42 39q0 6 3 15q23 67 57 134h-1145q-37 0 -37 41t37 41h1188q82 141 192 258h-1380q-37 0 -37 41t37 41h1464q88 78 179 129q-91 51 -179 129h-1464
q-37 0 -37 41t37 41h1380q-110 117 -192 258h-1188q-37 0 -37 41t37 41h1145q-34 67 -57 134q-3 9 -3 15q0 39 42 39q22 0 36 -27q18 -46 57 -135q138 -281 394 -464q42 -25 124 -78q25 -17 25 -35z" />
  </g>

</svg>
