<?xml version="1.0" standalone="no"?>
<!DOCTYPE svg PUBLIC "-//W3C//DTD SVG 1.1//EN" "http://www.w3.org/Graphics/SVG/1.1/DTD/svg11.dtd" >
<svg viewBox="0 -442 2048 2048">
  <g transform="matrix(1 0 0 -1 0 1606)">
   <path fill="currentColor"
d="M1931 582q0 -14 -16 -20q-169 -64 -277 -191q-56 -66 -92 -143q-23 -49 -40 -115q-3 -16 -11 -47q-6 -19 -20 -19q-44 0 -41 0q-21 3 -21 27q0 4 7 35q60 270 288 432h-1554q-39 0 -39 41t39 41h1554q-229 166 -288 432q-7 31 -7 35q0 27 21 27q45 0 36 1q20 -2 24 -19
t12 -48q38 -146 132.5 -257.5t230.5 -170.5q16 -5 46 -18q16 -9 16 -23zM1015 102q0 -56 -28 -56q-19 0 -30 51q-34 153 -157 153q-73 0 -196.5 -102t-213.5 -102q-98 0 -160 81q-57 75 -57 176q0 61 31 61q17 0 26 -34q4 -25 8 -49q11 -51 55 -86t97 -35q72 0 195.5 102
t214.5 102q105 0 164 -81q51 -71 51 -181zM1015 -238q0 -56 -28 -56q-19 0 -30 51q-34 153 -157 153q-73 0 -196.5 -102t-213.5 -102q-98 0 -160 81q-57 75 -57 176q0 61 31 61q17 0 26 -34q4 -25 8 -49q11 -51 55 -86t97 -35q72 0 195.5 102t214.5 102q105 0 164 -81
q51 -71 51 -181z" />
  </g>

</svg>
