<?xml version="1.0" standalone="no"?>
<!DOCTYPE svg PUBLIC "-//W3C//DTD SVG 1.1//EN" "http://www.w3.org/Graphics/SVG/1.1/DTD/svg11.dtd" >
<svg viewBox="0 -442 2048 2048">
  <g transform="matrix(1 0 0 -1 0 1606)">
   <path fill="currentColor"
d="M1870 1057q0 -101 -57 -176q-62 -81 -160 -81q-90 0 -213.5 102t-196.5 102q-123 0 -157 -153q-11 -51 -30 -51q-28 0 -28 56q0 110 51 181q59 81 164 81q91 0 214.5 -102t195.5 -102q53 0 97 35t55 86q4 24 8 49q9 34 26 34q31 0 31 -61zM1931 582q0 -41 -39 -41h-1554
q222 -157 287 -431q8 -34 8 -36q0 -27 -21 -27q-47 0 -53 6t-8 13q-22 84 -31 109q-18 53 -48 104q-106 182 -296 265q-16 6 -47 18q-14 6 -14 20q0 18 25 29l40 14q132 57 226 169q53 63 91 141q24 49 54 163q5 19 20 19q44 0 41 1q21 -4 21 -28q0 -58 -57 -179
q-84 -177 -238 -288h1554q39 0 39 -41z" />
  </g>

</svg>
