<?xml version="1.0" standalone="no"?>
<!DOCTYPE svg PUBLIC "-//W3C//DTD SVG 1.1//EN" "http://www.w3.org/Graphics/SVG/1.1/DTD/svg11.dtd" >
<svg viewBox="0 -442 2048 2048">
  <g transform="matrix(1 0 0 -1 0 1606)">
   <path fill="currentColor"
d="M1873 102q0 -56 -28 -56q-19 0 -30 51q-34 153 -157 153q-73 0 -196.5 -102t-213.5 -102q-98 0 -160 81q-57 75 -57 176q0 61 31 61q17 0 26 -34q4 -25 8 -49q11 -51 55 -86t97 -35q72 0 195.5 102t214.5 102q105 0 164 -81q51 -71 51 -181zM1931 582q0 -41 -39 -41
h-1554q228 -162 288 -432q7 -31 7 -35q0 -24 -21 -27q3 0 -41 0q-14 0 -20 19q-3 16 -11 47q-17 66 -40 115q-36 77 -92 143q-108 127 -277 191q-16 6 -16 20t16 23q16 6 46 18q221 96 323 314q23 50 40 114q3 16 11 47q5 18 25 20q-9 -1 36 -1q21 0 21 -27q0 -4 -7 -35
q-59 -266 -288 -432h1554q39 0 39 -41z" />
  </g>

</svg>
