<?xml version="1.0" standalone="no"?>
<!DOCTYPE svg PUBLIC "-//W3C//DTD SVG 1.1//EN" "http://www.w3.org/Graphics/SVG/1.1/DTD/svg11.dtd" >
<svg viewBox="0 -442 2048 2048">
  <g transform="matrix(1 0 0 -1 0 1606)">
   <path fill="currentColor"
d="M1995 655q0 -277 -202 -471q-178 -172 -464 -238q-131 -30 -305 -30q-376 0 -651 177q-320 206 -320 562q0 254 175 440q156 165 416 247q165 52 382 52q374 0 650 -178q319 -207 319 -561zM1826 655q0 287 -269 446q-225 133 -533 133q-189 0 -321 -39
q-213 -63 -337 -188q-144 -145 -144 -350q0 -288 269 -447q225 -134 533 -134q178 0 308 35q217 58 347 188q147 147 147 356zM1671 655q0 -218 -226 -332q-179 -91 -421 -91q-241 0 -418 90q-224 114 -224 331q0 219 223 334q177 92 419 92q241 0 421 -92
q226 -115 226 -332zM1574 655q0 173 -197 266q-155 73 -351 73q-194 0 -352 -74q-200 -94 -200 -265q0 -169 201 -264q159 -75 351 -75q195 0 350 73q198 94 198 266z" />
  </g>

</svg>
