<?xml version="1.0" standalone="no"?>
<!DOCTYPE svg PUBLIC "-//W3C//DTD SVG 1.1//EN" "http://www.w3.org/Graphics/SVG/1.1/DTD/svg11.dtd" >
<svg viewBox="0 -442 2048 2048">
  <g transform="matrix(1 0 0 -1 0 1606)">
   <path fill="currentColor"
d="M1848 582q0 -341 -241.5 -582.5t-582.5 -241.5t-582.5 241.5t-241.5 582.5t241.5 582.5t582.5 241.5t582.5 -241.5t241.5 -582.5zM1679 582q0 271 -192 463t-463 192t-463 -192t-192 -463t192 -463t463 -192t463 192t192 463zM1519 582q0 -205 -145 -350t-350 -145
t-350 145t-145 350t145 350t350 145t350 -145t145 -350zM1427 582q0 167 -118 285t-285 118t-285 -118t-118 -285t118 -285t285 -118t285 118t118 285z" />
  </g>

</svg>
