<?xml version="1.0" standalone="no"?>
<!DOCTYPE svg PUBLIC "-//W3C//DTD SVG 1.1//EN" "http://www.w3.org/Graphics/SVG/1.1/DTD/svg11.dtd" >
<svg viewBox="0 -442 2048 2048">
  <g transform="matrix(1 0 0 -1 0 1606)">
   <path fill="currentColor"
d="M1948 582q0 -385 -269.5 -654.5t-654.5 -269.5t-654.5 269.5t-269.5 654.5t269.5 654.5t654.5 269.5t654.5 -269.5t269.5 -654.5zM1462 1161q-192 145 -438 145t-438 -145l438 -438zM1748 582q0 246 -145 438l-438 -438l438 -438q145 192 145 438zM883 582l-438 438
q-145 -192 -145 -438t145 -438zM1462 3l-438 438l-438 -438q192 -145 438 -145t438 145z" />
  </g>

</svg>
