<?xml version="1.0" standalone="no"?>
<!DOCTYPE svg PUBLIC "-//W3C//DTD SVG 1.1//EN" "http://www.w3.org/Graphics/SVG/1.1/DTD/svg11.dtd" >
<svg viewBox="0 -442 2048 2048">
  <g transform="matrix(1 0 0 -1 0 1606)">
   <path fill="currentColor"
d="M1652 740q0 -307 -216.5 -523.5t-523.5 -216.5t-523.5 216.5t-216.5 523.5t216.5 523.5t523.5 216.5t523.5 -216.5t216.5 -523.5zM1552 740q0 265 -187.5 452.5t-452.5 187.5t-452.5 -187.5t-187.5 -452.5t187.5 -452.5t452.5 -187.5t452.5 187.5t187.5 452.5zM1296 426
l-71 -71l-313 314l-314 -313l-70 70l313 314l-313 314l71 71l313 -314l314 313l70 -70l-313 -314z" />
  </g>

</svg>
