<?xml version="1.0" standalone="no"?>
<!DOCTYPE svg PUBLIC "-//W3C//DTD SVG 1.1//EN" "http://www.w3.org/Graphics/SVG/1.1/DTD/svg11.dtd" >
<svg viewBox="0 -442 2048 2048">
  <g transform="matrix(1 0 0 -1 0 1606)">
   <path fill="currentColor"
d="M1652 740q0 -307 -216.5 -523.5t-523.5 -216.5t-523.5 216.5t-216.5 523.5t216.5 523.5t523.5 216.5t523.5 -216.5t216.5 -523.5zM1502 740q0 244 -173 417t-417 173t-417 -173t-173 -417t173 -417t417 -173t417 173t173 417zM1280 478l-107 -105l-261 261l-261 -261
l-107 105l262 262l-262 262l107 105l261 -261l261 261l107 -105l-262 -262z" />
  </g>

</svg>
