<?xml version="1.0" standalone="no"?>
<!DOCTYPE svg PUBLIC "-//W3C//DTD SVG 1.1//EN" "http://www.w3.org/Graphics/SVG/1.1/DTD/svg11.dtd" >
<svg viewBox="0 -442 2048 2048">
  <g transform="matrix(1 0 0 -1 0 1606)">
   <path fill="currentColor"
d="M1998 334l-50 -50h-874v-612h-100v612h-874l-50 50v496l50 50h874v448l-198 -255l-79 61l288 371h78l288 -371l-79 -61l-198 255v-448h874l50 -50v-496zM1898 632v148h-824v-148h824zM1898 384v148h-824v-148h824zM974 632v148h-824v-148h824zM974 384v148h-824v-148h824
z" />
  </g>

</svg>
