<?xml version="1.0" standalone="no"?>
<!DOCTYPE svg PUBLIC "-//W3C//DTD SVG 1.1//EN" "http://www.w3.org/Graphics/SVG/1.1/DTD/svg11.dtd" >
<svg viewBox="0 -442 2048 2048">
  <g transform="matrix(1 0 0 -1 0 1606)">
   <path fill="currentColor"
d="M806 1395q0 -68 -92 -68q-54 0 -88.5 38.5t-34.5 93.5q0 121 179 147v-36q-115 -17 -115 -88q0 -40 36 -40q9 0 27 6.5t27 6.5q61 0 61 -60zM800 1164h-208v56h208v-56zM930 991h-468v56h468v-56zM1050 798h-708v56h708v-56zM1280 554h-465q-21 -108 -119 -108t-119 108
h-465v56h465q21 108 119 108t119 -108h465v-56zM1050 310h-708v56h708v-56zM930 117h-468v56h468v-56zM800 -56h-208v56h208v-56zM806 -295q0 -121 -179 -147v36q115 17 115 88q0 40 -36 40q-9 0 -27 -6.5t-27 -6.5q-61 0 -61 60q0 68 92 68q54 0 88.5 -38.5t34.5 -93.5z
M758 610q-17 52 -62 52t-62 -52h124zM758 554h-124q17 -52 62 -52t62 52z" />
  </g>

</svg>
