<?xml version="1.0" standalone="no"?>
<!DOCTYPE svg PUBLIC "-//W3C//DTD SVG 1.1//EN" "http://www.w3.org/Graphics/SVG/1.1/DTD/svg11.dtd" >
<svg viewBox="0 -442 2048 2048">
  <g transform="matrix(1 0 0 -1 0 1606)">
   <path fill="currentColor"
d="M591 935q0 -44 -32.5 -76t-76.5 -32t-76.5 32t-32.5 76t32.5 76.5t76.5 32.5t76.5 -32.5t32.5 -76.5zM822 -127q0 -126 -115 -204q-101 -69 -233 -69q-157 0 -260 59q-127 73 -127 218q0 124 98 200q239 185 252 347l16 192q4 45 29 45t29 -47l67 -792q1 -7 1 -15
q0 -40 -28.5 -64.5t-68.5 -24.5t-68.5 24.5t-28.5 64.5q0 9 1 15l30 361q-37 -66 -90 -124q-69 -75 -69 -195q0 -117 51 -168t172 -51q187 0 268 139q-114 -1 -114 93t94 94t94 -98z" />
  </g>

</svg>
