<?xml version="1.0" standalone="no"?>
<!DOCTYPE svg PUBLIC "-//W3C//DTD SVG 1.1//EN" "http://www.w3.org/Graphics/SVG/1.1/DTD/svg11.dtd" >
<svg viewBox="0 -442 2048 2048">
  <g transform="matrix(1 0 0 -1 0 1606)">
   <path fill="currentColor"
d="M1263 1265q0 -37 -97 -86q-65 -34 -131 -67q-23 -18 -52 -68q18 -13 39 -13q32 0 89 24t89 24q39 0 39 -24q0 -51 -145 -94q-178 -53 -190 -62q-17 -12 -37 -58q6 -2 13 -4q42 0 123.5 23t123.5 23q13 0 24 -2v-57q-13 -4 -181 -35q-119 -21 -167 -54q-27 -18 -47 -82
q8 -4 14 -4q47 0 136.5 25t136.5 25q11 0 21 -2v-51q-181 -55 -396 -114q-22 -40 -38 -87l3 -3q6 0 125 37q49 15 219 49v-56l-224 -70q-154 -48 -206 -87q-4 -3 -33 -63q63 2 188 41q122 37 189 37v-85q-18 -5 -228 -42q-154 -28 -213 -62q-32 -19 -37 -58q15 -8 48 -8
q63 0 184 28.5t183 28.5q5 -14 5 -21q0 -71 -201 -107l-264 -42q-38 -14 -96 -134q-54 -111 -101 -111q-25 0 -61 22q-40 23 -40 46q0 31 68 124t68 127q0 69 -39.5 202.5t-39.5 202.5t40 69q33 0 78 -145q27 -92 55 -184q60 53 60 123q0 55 -46 174t-46 186q0 63 39 63
q28 0 50 -80q11 -53 23 -106q12 -44 40 -85q44 69 41 95l-29 259q0 45 55 61q18 -161 59 -255q30 30 33 35q8 13 8 47q0 47 -19.5 140t-19.5 140q0 87 51 87q18 0 29 -8q5 -26 14 -145q6 -90 30 -142q45 56 45 73q0 7 -13 55q-26 96 -26 222q0 119 51 119q11 0 19.5 -15
t26.5 -120q19 -112 32 -145q45 53 45 65q0 -4 -13 62q-7 36 -7 118q0 91 17 131q32 0 38 -81q7 -98 31 -126q31 30 31 87q0 14 -2 42t-2 42q0 96 44 96q1 0 6 -2q16 -15 16 -45q0 -11 -4 -32.5t-4 -31.5l4 -8l54 86q49 76 114 79q1 -14 1 -21q0 -38 -39.5 -94.5t-39.5 -86.5
q107 48 130 48q36 0 36 -22z" />
  </g>

</svg>
