<?xml version="1.0" standalone="no"?>
<!DOCTYPE svg PUBLIC "-//W3C//DTD SVG 1.1//EN" "http://www.w3.org/Graphics/SVG/1.1/DTD/svg11.dtd" >
<svg viewBox="0 -442 2048 2048">
  <g transform="matrix(1 0 0 -1 0 1606)">
   <path fill="currentColor"
d="M676 961q0 -60 -42.5 -104t-103.5 -44t-104.5 43.5t-43.5 104.5t44 103.5t104 42.5q61 0 103.5 -42.5t42.5 -103.5zM1021 659q0 -111 -69 -193q-73 -86 -182 -86q-100 0 -247.5 116.5t-233.5 116.5q-136 0 -179 -131q-6 -29 -13 -58q-12 -43 -30 -43q-30 0 -30 57
q0 109 70 192q74 86 182 86q100 0 247.5 -117t233.5 -117q155 0 192 184q10 49 31 49q28 0 28 -56zM606 961q0 32 -22 54t-54 22t-55 -22.5t-23 -53.5q0 -32 23 -55t55 -23q31 0 53.5 23t22.5 55z" />
  </g>

</svg>
