<?xml version="1.0" standalone="no"?>
<!DOCTYPE svg PUBLIC "-//W3C//DTD SVG 1.1//EN" "http://www.w3.org/Graphics/SVG/1.1/DTD/svg11.dtd" >
<svg viewBox="0 -442 2048 2048">
  <g transform="matrix(1 0 0 -1 0 1606)">
   <path fill="currentColor"
d="M991 582q0 -297 -95 -505q-97 -212 -323 -398q-35 -29 -46 -29q-19 0 -19 18q0 8 24 32q300 295 300 882t-300 882q-24 24 -24 32q0 18 19 18q11 0 46 -29q226 -186 323 -398q95 -208 95 -505zM591 582q0 -297 -95 -505q-97 -212 -323 -398q-35 -29 -46 -29q-19 0 -19 18
q0 8 24 32q300 295 300 882t-300 882q-24 24 -24 32q0 18 19 18q11 0 46 -29q226 -186 323 -398q95 -208 95 -505z" />
  </g>

</svg>
