<?xml version="1.0" standalone="no"?>
<!DOCTYPE svg PUBLIC "-//W3C//DTD SVG 1.1//EN" "http://www.w3.org/Graphics/SVG/1.1/DTD/svg11.dtd" >
<svg viewBox="0 -442 2048 2048">
  <g transform="matrix(1 0 0 -1 0 1606)">
   <path fill="currentColor"
d="M404 748q0 -44 -32.5 -76t-76.5 -32q-71 0 -105 76q-26 58 -26 139q0 216 146 366q30 31 41 31q20 0 20 -22q0 -8 -14 -23q-148 -161 -148 -352q0 -14 4 -36q33 38 82 38q44 0 76.5 -32.5t32.5 -76.5zM404 108q0 -44 -32.5 -76t-76.5 -32t-76.5 32t-32.5 76t32.5 76.5
t76.5 32.5t76.5 -32.5t32.5 -76.5z" />
  </g>

</svg>
