<?xml version="1.0" standalone="no"?>
<!DOCTYPE svg PUBLIC "-//W3C//DTD SVG 1.1//EN" "http://www.w3.org/Graphics/SVG/1.1/DTD/svg11.dtd" >
<svg viewBox="0 -442 2048 2048">
  <g transform="matrix(1 0 0 -1 0 1606)">
   <path fill="currentColor"
d="M608 614q-57 -175 -69 -307q-26 -279 -26 -707q0 -13 -22 -13t-22 13q0 428 -26 707q-12 132 -69 307q65 83 93 283l-51 -8q-30 -5 -130 -33q-80 -23 -131 -23q-104 0 -104 87t104 87q51 0 131 -23q97 -28 129 -33l55 -8l-10 74q-5 38 -24 102q-32 108 -32 199
q0 121 87 121t87 -121q0 -73 -31 -192t-31 -185q0 -209 92 -327z" />
  </g>

</svg>
