<?xml version="1.0" standalone="no"?>
<!DOCTYPE svg PUBLIC "-//W3C//DTD SVG 1.1//EN" "http://www.w3.org/Graphics/SVG/1.1/DTD/svg11.dtd" >
<svg viewBox="0 -442 2048 2048">
  <g transform="matrix(1 0 0 -1 0 1606)">
   <path fill="currentColor"
d="M931 106q0 -87 -104 -87q-51 0 -131 23q-97 28 -129 33l-55 8l10 -74q5 -38 24 -102q32 -108 32 -199q0 -121 -87 -121t-87 121q0 91 32 199q19 64 24 102l10 74l-55 -8q-32 -5 -129 -33q-80 -23 -131 -23q-104 0 -104 87t104 87q51 0 131 -23q100 -28 130 -33l51 -8
q-28 200 -93 283q57 175 69 307q26 279 26 707q0 13 22 13t22 -13q0 -428 26 -707q12 -132 69 -307q-65 -83 -93 -283l51 8q30 5 130 33q80 23 131 23q104 0 104 -87z" />
  </g>

</svg>
