<?xml version="1.0" standalone="no"?>
<!DOCTYPE svg PUBLIC "-//W3C//DTD SVG 1.1//EN" "http://www.w3.org/Graphics/SVG/1.1/DTD/svg11.dtd" >
<svg viewBox="0 -442 2048 2048">
  <g transform="matrix(1 0 0 -1 0 1606)">
   <path fill="currentColor"
d="M817 510q0 -129 -104 -242q-106 -116 -234 -116q-110 0 -223 136q-110 131 -110 243q0 194 209 319q-117 128 -117 244q0 112 77.5 189t189.5 77q93 0 164 -57q75 -60 75 -151q0 -84 -74 -84q-31 0 -52.5 21t-21.5 51q0 16 6.5 46t6.5 45q0 89 -104 89q-68 0 -115.5 -48
t-47.5 -117q0 -101 123 -206q115 -91 229 -183q123 -119 123 -256zM723 423q0 106 -127 224q-105 87 -211 174q-142 -84 -142 -208q0 -109 125 -226l210 -172q145 87 145 208z" />
  </g>

</svg>
