<?xml version="1.0" standalone="no"?>
<!DOCTYPE svg PUBLIC "-//W3C//DTD SVG 1.1//EN" "http://www.w3.org/Graphics/SVG/1.1/DTD/svg11.dtd" >
<svg viewBox="0 -442 2048 2048">
  <g transform="matrix(1 0 0 -1 0 1606)">
   <path fill="currentColor"
d="M690 1154q0 -70 -100 -112q-34 -14 -194 -55q-112 -28 -128 -62q38 -28 157 -54q132 -29 178 -53q85 -42 85 -122q0 -70 -99 -110q-36 -15 -193 -51q-112 -26 -129 -58q38 -28 157 -54q132 -29 178 -53q85 -42 85 -122q0 -70 -99 -112q-34 -14 -193 -54
q-112 -28 -130 -62q38 -25 158 -49q130 -26 178 -49q85 -42 85 -121q0 -104 -179 -166q-120 -41 -268 -52l-7 99q88 9 198 37q156 39 156 82q0 32 -109 57q-176 39 -204 49q-109 40 -109 108q0 81 86 123q42 21 179 52q117 27 156 59q-3 34 -112 62q-177 44 -200 53
q-107 41 -107 109q0 81 86 121q42 20 179 48q117 23 156 55q-3 33 -112 61q-176 44 -201 54q-107 41 -107 109q0 81 86 122q43 21 180 52q117 27 156 59q-3 33 -112 58q-176 40 -201 49q-108 39 -108 107q0 104 179 166q120 41 268 52l7 -99q-93 -8 -191 -33
q-138 -35 -162 -81q38 -25 158 -49q130 -26 178 -49q85 -42 85 -121z" />
  </g>

</svg>
