<?xml version="1.0" standalone="no"?>
<!DOCTYPE svg PUBLIC "-//W3C//DTD SVG 1.1//EN" "http://www.w3.org/Graphics/SVG/1.1/DTD/svg11.dtd" >
<svg viewBox="0 -442 2048 2048">
  <g transform="matrix(1 0 0 -1 0 1606)">
   <path fill="currentColor"
d="M1501 1259l-65 -245h-74l3 25q1 8 1 29q0 109 -100 161q-48 24 -199 56v-710q198 19 376 154l35 -49q-192 -160 -411 -234v-838l-74 -50v870q-67 -17 -148 -24v-796l-74 -50v846q-222 11 -392 115q-206 126 -206 330q0 210 202 359q162 121 396 168v181l74 49v-214
q45 4 93 4q29 0 55 -4v165l74 49v-219q250 -29 434 -128zM993 574v721q-53 12 -124 12h-24v-713q83 -17 148 -20zM771 615v688q-144 -14 -240 -85q-112 -83 -112 -218q0 -133 115 -242q92 -87 237 -143zM993 491v18q-26 -2 -44 -2q-36 0 -104 9v-39h24q65 0 124 14zM771 477
v48q-171 33 -292 144q-136 123 -136 287q0 110 92 232q-165 -132 -165 -306q0 -176 169 -291q140 -96 332 -114z" />
  </g>

</svg>
