<?xml version="1.0" standalone="no"?>
<!DOCTYPE svg PUBLIC "-//W3C//DTD SVG 1.1//EN" "http://www.w3.org/Graphics/SVG/1.1/DTD/svg11.dtd" >
<svg viewBox="0 -442 2048 2048">
  <g transform="matrix(1 0 0 -1 0 1606)">
   <path fill="currentColor"
d="M671 103q0 -44 -28 -73.5t-73 -29.5q-44 0 -77 31q-2 3 -6 6q-4 -8 -4 -23q0 -198 134 -333q24 -23 24 -32q0 -21 -20 -21q-10 0 -38 29q-143 144 -143 345q0 76 27 132q35 70 103 70q44 0 72.5 -28.5t28.5 -72.5zM298 103q0 -44 -29 -73.5t-73 -29.5q-42 0 -77 31
q-2 3 -7 6q-4 -8 -4 -23q0 -196 136 -333q22 -22 22 -32q0 -21 -18 -21q-11 0 -40 29q-142 142 -142 345q0 76 27 132q34 70 103 70q44 0 73 -28.5t29 -72.5z" />
  </g>

</svg>
