<?xml version="1.0" standalone="no"?>
<!DOCTYPE svg PUBLIC "-//W3C//DTD SVG 1.1//EN" "http://www.w3.org/Graphics/SVG/1.1/DTD/svg11.dtd" >
<svg viewBox="0 -442 2048 2048">
  <g transform="matrix(1 0 0 -1 0 1606)">
   <path fill="currentColor"
d="M2016 1558l-118 -143v31l105 128h13v-16zM1979 1574l-97 -118h-26l97 118h26zM2016 1497l-118 -143v32l118 143v-32zM1929 1574l-97 -118h-26l97 118h26zM2016 1437l-71 -87h-26l97 118v-31zM2016 1376l-21 -26h-26l47 57v-31zM1829 1574l-37 -45v32l11 13h26zM1879 1574
l-87 -106v32l61 74h26zM1664 1495l-32 -39h-26l58 71v-32zM1664 1556l-82 -100h-26l97 118h11v-18zM1664 1456h-8l8 10v-10zM1939 1222l-41 -50v31l16 19h25zM1989 1222l-91 -111v31l66 80h25zM2016 1194l-118 -144v32l116 140h2v-28zM1629 1574l-97 -118h-26l97 118h26z
M2016 1133l-111 -135h-7v23l118 143v-31zM1579 1574l-97 -118h-26l97 118h26zM2016 1072l-61 -74h-26l87 105v-31zM2016 1011l-11 -13h-26l37 45v-32zM1479 1574l-39 -47v31l13 16h26zM1529 1574l-89 -108v31l63 77h26zM1312 1495l-32 -39h-26l58 71v-32zM1312 1556
l-82 -100h-26l97 118h11v-18zM1312 1456h-8l8 10v-10zM1900 870l-2 -2v2h2zM1950 870l-52 -63v31l26 32h26zM2000 870l-102 -124v32l76 92h26zM1277 1574l-97 -118h-26l97 118h26zM2016 829l-118 -144v32l118 143v-31zM1227 1574l-97 -118h-26l97 118h26zM2016 768
l-100 -122h-18v10l118 144v-32zM2016 707l-50 -61h-26l76 93v-32zM2016 646h-26l26 32v-32zM1127 1574l-39 -47v31l13 16h26zM1177 1574l-89 -108v31l63 77h26zM960 1553l-80 -97h-26l97 118h9v-21zM960 1493l-30 -37h-26l56 68v-31zM960 1456h-6l6 7v-7zM1910 518l-12 -15
v15h12zM1960 518l-62 -76v32l36 44h26zM2010 518l-112 -137v32l86 105h26zM927 1574l-97 -118h-26l97 118h26zM2016 464l-118 -143v31l118 144v-32zM877 1574l-97 -118h-26l97 118h26zM2016 403l-90 -109h-26l116 141v-32zM2016 343l-40 -49h-26l66 80v-31zM2016 294h-16
l16 19v-19zM777 1574l-41 -50v32l15 18h26zM827 1574l-91 -111v32l65 79h26zM608 1551l-78 -95h-26l97 118h7v-23zM608 1490l-28 -34h-26l54 66v-32zM608 1456h-4l4 5v-5zM1921 166l-23 -28v28h23zM1971 166l-73 -88v31l47 57h26zM2016 160l-118 -143v31l97 118h21v-6z
M577 1574l-97 -118h-26l97 118h26zM2016 99l-118 -143v31l118 144v-32zM527 1574l-97 -118h-26l97 118h26zM2016 39l-80 -97h-25l105 128v-31zM2016 -22l-30 -36h-25l55 67v-31zM2016 -58h-5l5 7v-7zM427 1574l-43 -52v31l17 21h26zM477 1574l-93 -113v31l67 82h26z
M1806 -66h-146q4 130 4 274h-230q0 -97 5 -274h-147q7 178 7 331q0 159 -7 303h147q-6 -139 -6 -249h232q0 120 -5 249h146q-7 -128 -7 -265v-75q0 -145 7 -294zM256 1549l-76 -93h-26l97 118h5v-25zM256 1488l-26 -32h-26l52 63v-31zM256 1456h-2l2 2v-2zM1931 -186
l-33 -40v31l7 9h26zM1981 -186l-83 -101v31l57 70h26zM2016 -265l-119 -145h-26l145 176v-31zM2016 -204l-169 -206h-26l184 224h11v-18zM2016 -326l-69 -84h-26l95 115v-31zM2016 -387l-19 -23h-26l45 55v-32zM77 1574l-45 -55v32l19 23h26zM127 1574l-95 -115v31l69 84h26
zM227 1574l-184 -224h-11v18l169 206h26zM177 1574l-145 -176v31l119 145h26zM150 1420l-57 -70h-26l83 101v-31zM150 1359l-7 -9h-26l33 40v-31zM1794 -292l-2 -2v2h2zM1844 -292l-52 -63v31l26 32h26zM1894 -292l-97 -118h-5v25l76 93h26zM1258 400q0 -115 -93 -177
q-80 -54 -199 -54q-17 0 -34 1q0 -69 6 -236h-146q7 156 7 296v71q0 126 -7 267q40 0 121.5 1.5t122.5 1.5q92 0 152 -38q70 -46 70 -133zM1664 -328l-67 -82h-26l93 113v-31zM1664 -389l-17 -21h-26l43 52v-31zM37 1222l-5 -7v7h5zM87 1222l-55 -67v31l30 36h25zM137 1222
l-105 -128v31l80 97h25zM1644 -292l-97 -118h-26l97 118h26zM150 1177l-118 -144v32l118 143v-31zM1594 -292l-97 -118h-26l97 118h26zM150 1116l-97 -118h-21v6l118 143v-31zM150 1055l-47 -57h-26l73 88v-31zM150 998h-23l23 28v-28zM1444 -292l-4 -5v5h4zM1494 -292
l-54 -66v32l28 34h26zM1544 -292l-97 -118h-7v23l78 95h26zM1312 -328l-67 -82h-26l93 113v-31zM1312 -389l-17 -21h-26l43 52v-31zM48 870l-16 -19v19h16zM98 870l-66 -80v31l40 49h26zM148 870l-116 -141v32l90 109h26zM1292 -292l-97 -118h-26l97 118h26zM150 812
l-118 -144v32l118 143v-31zM1242 -292l-97 -118h-26l97 118h26zM150 751l-86 -105h-26l112 137v-32zM150 690l-36 -44h-26l62 76v-32zM150 646h-12l12 15v-15zM1092 -292l-4 -5v5h4zM1142 -292l-54 -66v32l28 34h26zM1192 -292l-97 -118h-7v23l78 95h26zM733 127
q0 -196 -317 -196q-56 0 -174 3q7 163 7 331q0 164 -7 303q39 0 119 1.5t120 1.5q217 0 217 -144q0 -106 -106 -142q141 -26 141 -158zM960 -331l-65 -79h-26l91 111v-32zM960 -392l-15 -18h-26l41 50v-32zM58 518l-26 -32v32h26zM108 518l-76 -93v32l50 61h26zM150 508
l-118 -144v32l100 122h18v-10zM942 -292l-97 -118h-26l97 118h26zM150 447l-118 -143v31l118 144v-32zM892 -292l-97 -118h-26l97 118h26zM150 386l-76 -92h-26l102 124v-32zM150 326l-26 -32h-26l52 63v-31zM150 294h-2l2 2v-2zM742 -292l-6 -7v7h6zM792 -292l-56 -68v31
l30 37h26zM842 -292l-97 -118h-9v21l80 97h26zM608 -333l-63 -77h-26l89 108v-31zM608 -394l-13 -16h-26l39 47v-31zM69 166l-37 -45v32l11 13h26zM119 166l-87 -105v31l61 74h26zM592 -292l-97 -118h-26l97 118h26zM150 143l-118 -143v31l111 135h7v-23zM542 -292l-97 -118
h-26l97 118h26zM150 82l-116 -140h-2v28l118 144v-32zM150 22l-66 -80h-25l91 111v-31zM150 -39l-16 -19h-25l41 50v-31zM392 -292l-8 -10v10h8zM492 -292l-97 -118h-11v18l82 100h26zM442 -292l-58 -71v32l32 39h26zM256 -336l-61 -74h-26l87 106v-32zM256 -397l-11 -13
h-26l37 45v-32zM79 -186l-47 -57v31l21 26h26zM129 -186l-97 -118v31l71 87h26zM242 -292l-97 -118h-26l97 118h26zM150 -222l-118 -143v32l118 143v-32zM192 -292l-97 -118h-26l97 118h26zM150 -282l-105 -128h-13v16l118 143v-31zM1124 373q0 96 -131 96q-37 0 -66 -5
q5 -87 5 -195q16 -1 22 -1q170 0 170 105zM558 389q0 80 -101 80q-52 0 -82 -5q5 -50 5 -156q23 -1 33 -1q145 0 145 82zM593 122q0 90 -161 90q-29 0 -52 -2v-28q0 -66 4 -147q20 -4 35 -3l24 1q150 6 150 89z" />
  </g>

</svg>
