<?xml version="1.0" standalone="no"?>
<!DOCTYPE svg PUBLIC "-//W3C//DTD SVG 1.1//EN" "http://www.w3.org/Graphics/SVG/1.1/DTD/svg11.dtd" >
<svg viewBox="0 -442 2048 2048">
  <g transform="matrix(1 0 0 -1 0 1606)">
   <path fill="currentColor"
d="M906 1147q0 -123 -58 -198q-63 -82 -183 -82q-15 0 -78 9q42 -89 61 -144q63 -185 63 -531q0 -36 -2 -101q-3 -69 -3 -100h-34q-82 346 -97 403q-64 232 -146 386q-74 140 -222 325l75 229q180 -255 362 -255q118 0 166 72q35 52 51 181l36 2q9 -79 9 -196z" />
  </g>

</svg>
