<?xml version="1.0" standalone="no"?>
<!DOCTYPE svg PUBLIC "-//W3C//DTD SVG 1.1//EN" "http://www.w3.org/Graphics/SVG/1.1/DTD/svg11.dtd" >
<svg viewBox="0 -442 2048 2048">
  <g transform="matrix(1 0 0 -1 0 1606)">
   <path fill="currentColor"
d="M1014 711q0 -219 -138 -346q-134 -124 -354 -124q-124 0 -203 40q-104 53 -104 165q0 169 111 398q127 265 276 265q134 0 273 -132.5t139 -265.5zM930 591q0 92 -177 199q-163 99 -262 99q-74 0 -124 -99q-41 -83 -41 -167q0 -175 289 -175q101 0 189 27q126 39 126 116
z" />
  </g>

</svg>
