<?xml version="1.0" standalone="no"?>
<!DOCTYPE svg PUBLIC "-//W3C//DTD SVG 1.1//EN" "http://www.w3.org/Graphics/SVG/1.1/DTD/svg11.dtd" >
<svg viewBox="0 -442 2048 2048">
  <g transform="matrix(1 0 0 -1 0 1606)">
   <path fill="currentColor"
d="M1062 695q0 -301 -211 -568q-119 -151 -228 -151q-97 0 -97 78q0 32 22 54.5t54 22.5q35 0 59 -24t35 -24q63 0 127 168q41 110 64 224q20 101 20 168q0 162 -84 162q-83 0 -159 -66q-45 -38 -117 -134q-194 -258 -264 -540q-3 -15 -11 -46q-14 -43 -46 -43q-91 0 -91 39
q0 7 4 23l263 1054l-162 -59q-19 -7 -28 -7q-29 0 -29 35q0 19 36 32l201 73l29 115q6 24 6 47q0 52 -64.5 71.5t-64.5 24.5q0 36 30 53q55 7 132 18q11 2 69 20q49 16 63 16q23 0 23 -15t-17 -83l-53 -211l377 137q19 7 28 7q29 0 29 -35q0 -19 -36 -32l-417 -152
l-179 -715q99 180 215 310q166 185 305 185q167 0 167 -232z" />
  </g>

</svg>
