<?xml version="1.0" standalone="no"?>
<!DOCTYPE svg PUBLIC "-//W3C//DTD SVG 1.1//EN" "http://www.w3.org/Graphics/SVG/1.1/DTD/svg11.dtd" >
<svg viewBox="0 -442 2048 2048">
  <g transform="matrix(1 0 0 -1 0 1606)">
   <path fill="currentColor"
d="M864 810q0 -17 -23 -17q-20 0 -20 20q0 47 -36.5 76.5t-84.5 29.5q-180 0 -304 -261q-103 -217 -103 -422q0 -219 119 -219q151 0 261 230q92 194 92 366q0 147 -75 147q-61 0 -123 -96q-50 -77 -80 -201q-29 -115 -29 -216q0 -21 4.5 -62.5t4.5 -62.5q0 -13 -21 -13
q-18 0 -21 11q-9 37 -9 122q0 126 36 257q41 151 111 231q61 70 125 70q142 0 142 -201q0 -187 -115 -390q-132 -233 -303 -233q-143 0 -221 95q-71 88 -71 234q0 243 160 442q171 212 408 212q70 0 121 -39q55 -42 55 -110z" />
  </g>

</svg>
