<?xml version="1.0" standalone="no"?>
<!DOCTYPE svg PUBLIC "-//W3C//DTD SVG 1.1//EN" "http://www.w3.org/Graphics/SVG/1.1/DTD/svg11.dtd" >
<svg viewBox="0 -442 2714 2048">
  <g transform="matrix(1 0 0 -1 0 1606)">
   <path fill="currentColor"
d="M2714 1405q0 -20 -35 -69q-59 -83 -131 -208q-84 -146 -135 -252q-347 -726 -347 -829q0 -31 29 -31q54 0 177 132q90 96 153 186l28 -17q-253 -337 -384 -337q-76 0 -120 78q-38 66 -38 147q0 246 275 626q133 184 460 546q-373 -239 -846 -960q-89 -136 -164 -243
q-29 -43 -91 -123q-61 -69 -99 -69q-33 0 -67 45q-39 52 -39 151q0 243 229 617q112 182 397 556q-221 -192 -586 -648q-249 -310 -692 -599q-186 -121 -226 -121q-32 0 -32 25q0 14 45 59q493 488 622 937q32 111 32 198q0 201 -205 201q-236 0 -478 -210
q-251 -218 -251 -450q0 -81 46 -137q49 -60 129 -60q135 0 282 229q140 217 140 369q0 32 -9 95l28 6q48 -138 48 -258q0 -154 -85.5 -277.5t-230.5 -174.5q-71 -25 -137 -25q-110 0 -176.5 62.5t-66.5 171.5q0 182 156 364q134 158 319 251q159 80 322 80q167 0 280 -90
q122 -97 122 -259q0 -299 -445 -786q260 204 468 462q215 268 277 337q163 185 317 299q34 25 49 25q29 0 29 -23q0 -11 -13 -34q-158 -275 -350 -774q-74 -194 -118 -315q-27 -75 -74 -228q62 64 271 382q408 621 766 906q109 87 148 87q27 0 27 -23z" />
  </g>

</svg>
