<?xml version="1.0" standalone="no"?>
<!DOCTYPE svg PUBLIC "-//W3C//DTD SVG 1.1//EN" "http://www.w3.org/Graphics/SVG/1.1/DTD/svg11.dtd" >
<svg viewBox="0 -442 2048 2048">
  <g transform="matrix(1 0 0 -1 0 1606)">
   <path fill="currentColor"
d="M1421 397q0 -41 -41 -41q-8 0 -14 3l-1169 552q-27 13 -27 37t27 37l1169 552q6 3 14 3q41 0 41 -41q0 -26 -24 -37l-1090 -514l1090 -514q24 -11 24 -37zM1427 70q0 -15 -11 -42q-45 -109 -145 -182q-103 -75 -218 -75q-148 0 -255 136q-85 127 -169 254
q-105 136 -248 136q-101 0 -174 -56q-45 -35 -92 -105q-38 -56 -51 -56q-19 0 -19 28q0 15 11 42q45 109 146.5 183t216.5 74q148 0 261 -136q88 -127 175 -254q106 -136 235 -136q102 0 176 57q45 34 91 104q37 57 50 57q20 0 20 -29z" />
  </g>

</svg>
