<?xml version="1.0" standalone="no"?>
<!DOCTYPE svg PUBLIC "-//W3C//DTD SVG 1.1//EN" "http://www.w3.org/Graphics/SVG/1.1/DTD/svg11.dtd" >
<svg viewBox="0 -442 2048 2048">
  <g transform="matrix(1 0 0 -1 0 1606)">
   <path fill="currentColor"
d="M1421 -401q0 -41 -41 -41q-8 0 -14 3l-528 249v-211q0 -41 -41 -41t-41 41v250l-559 264q-27 13 -27 37t27 37l559 264v225l-531 -251q-6 -3 -14 -3q-41 0 -41 41q0 26 24 37l562 265v498l-562 265q-24 11 -24 37q0 41 41 41q8 0 14 -3l531 -251v215q0 39 41 39t41 -39
v-253l556 -263q27 -13 27 -37t-27 -37l-556 -263v-224l528 249q6 3 14 3q41 0 41 -41q0 -26 -24 -37l-559 -264v-500l559 -264q24 -11 24 -37zM1284 1014l-446 210v-420zM756 -62v424l-449 -212z" />
  </g>

</svg>
