<?xml version="1.0" standalone="no"?>
<!DOCTYPE svg PUBLIC "-//W3C//DTD SVG 1.1//EN" "http://www.w3.org/Graphics/SVG/1.1/DTD/svg11.dtd" >
<svg viewBox="0 -442 2048 2048">
  <g transform="matrix(1 0 0 -1 0 1606)">
   <path fill="currentColor"
d="M1421 150q0 -24 -27 -37l-557 -263v-251q0 -41 -41 -41t-41 41v212l-530 -250q-6 -3 -14 -3q-41 0 -41 41q0 26 24 37l561 265v498l-561 265q-24 11 -24 37q0 41 41 41q8 0 14 -3l530 -250v225l-558 263q-27 13 -27 37t27 37l558 263v253q0 39 41 39t41 -39v-214l529 250
q6 3 14 3q41 0 41 -41q0 -26 -24 -37l-560 -264v-500l560 -264q24 -11 24 -37q0 -41 -41 -41q-8 0 -14 3l-529 250v-225l557 -263q27 -13 27 -37zM755 803v422l-448 -211zM1284 150l-447 211v-422z" />
  </g>

</svg>
