<?xml version="1.0" standalone="no"?>
<!DOCTYPE svg PUBLIC "-//W3C//DTD SVG 1.1//EN" "http://www.w3.org/Graphics/SVG/1.1/DTD/svg11.dtd" >
<svg viewBox="0 -442 2048 2048">
  <g transform="matrix(1 0 0 -1 0 1606)">
   <path fill="currentColor"
d="M1421 -259q0 -41 -37 -41h-578l-35 -95q-17 -47 -44 -47q-42 0 -42 38q0 15 8 37l24 67h-508q-39 0 -39 41t39 41h538l80 218h-35q-248 0 -432 166q-190 171 -190 416t190 416q184 166 432 166h590q39 0 39 -41t-39 -41h-584q-216 0 -378 -140q-168 -147 -168 -360
t168 -360q162 -140 378 -140h59l165 454q17 46 43 46q42 0 42 -37q0 -15 -8 -37l-155 -426h438q39 0 39 -41t-39 -41h-468l-79 -218h549q37 0 37 -41z" />
  </g>

</svg>
