<?xml version="1.0" standalone="no"?>
<!DOCTYPE svg PUBLIC "-//W3C//DTD SVG 1.1//EN" "http://www.w3.org/Graphics/SVG/1.1/DTD/svg11.dtd" >
<svg viewBox="0 -442 2048 2048">
  <g transform="matrix(1 0 0 -1 0 1606)">
   <path fill="currentColor"
d="M1518 582q0 -298 -211.5 -510.5t-509.5 -212.5t-510.5 212.5t-212.5 510.5q0 300 211.5 511.5t511.5 211.5q299 0 510 -212t211 -511zM1436 582q0 265 -187.5 453t-451.5 188q-266 0 -453.5 -187.5t-187.5 -453.5q0 -264 188.5 -452.5t452.5 -188.5t451.5 188.5
t187.5 452.5zM1201 219q0 -43 -43 -43q-15 0 -25 10l-337 338l-337 -337q-10 -10 -26 -10q-42 0 -42 42q0 16 10 26l337 337l-337 336q-10 10 -10 27q0 42 42 42q15 0 26 -11l337 -336l337 337q10 10 25 10q43 0 43 -43q0 -15 -10 -25l-337 -337l337 -338q10 -10 10 -25z
" />
  </g>

</svg>
