<?xml version="1.0" standalone="no"?>
<!DOCTYPE svg PUBLIC "-//W3C//DTD SVG 1.1//EN" "http://www.w3.org/Graphics/SVG/1.1/DTD/svg11.dtd" >
<svg viewBox="0 -442 2048 2048">
  <g transform="matrix(1 0 0 -1 0 1606)">
   <path fill="currentColor"
d="M1518 582q0 -298 -211.5 -510.5t-509.5 -212.5t-510.5 212.5t-212.5 510.5q0 300 211.5 511.5t511.5 211.5q299 0 510 -212t211 -511zM1388 825q-73 178 -231 286q-163 112 -360 112q-198 0 -359.5 -110t-233.5 -288h1184zM1436 582q0 82 -20 161h-1240q-20 -79 -20 -161
t21 -161h1238q21 79 21 161zM1388 339h-1184q73 -177 233 -286q163 -112 360 -112t359 112q159 109 232 286z" />
  </g>

</svg>
