<?xml version="1.0" standalone="no"?>
<!DOCTYPE svg PUBLIC "-//W3C//DTD SVG 1.1//EN" "http://www.w3.org/Graphics/SVG/1.1/DTD/svg11.dtd" >
<svg viewBox="0 -442 2048 2048">
  <g transform="matrix(1 0 0 -1 0 1606)">
   <path fill="currentColor"
d="M1202 1296q0 -163 -96.5 -260.5t-258.5 -97.5q-55 0 -163 13.5t-163 13.5q-156 0 -234 -95q-68 -82 -68 -181q0 -51 19 -115q20 -67 20 -74q0 -21 -18 -21q-22 0 -47 46q-48 90 -48 201q0 156 90.5 254.5t244.5 98.5q56 0 167.5 -16t167.5 -16q158 0 244 105
q68 83 68 181q0 48 -19 114q-18 63 -18 74q0 21 17 21q22 0 46 -45q49 -91 49 -201zM1421 -353q0 -41 -41 -41q-8 0 -14 3l-1169 552q-27 13 -27 37t27 37l1169 552q6 3 14 3q41 0 41 -41q0 -26 -24 -37l-1090 -514l1090 -514q24 -11 24 -37z" />
  </g>

</svg>
