<?xml version="1.0" standalone="no"?>
<!DOCTYPE svg PUBLIC "-//W3C//DTD SVG 1.1//EN" "http://www.w3.org/Graphics/SVG/1.1/DTD/svg11.dtd" >
<svg viewBox="0 -442 2048 2048">
  <g transform="matrix(1 0 0 -1 0 1606)">
   <path fill="currentColor"
d="M1546 1038q0 -15 -11 -42q-45 -109 -145 -182q-103 -75 -218 -75q-148 0 -261 136q-88 127 -175 254q-106 136 -235 136q-102 0 -176 -57q-45 -34 -91 -104q-37 -57 -50 -57q-20 0 -20 29q0 15 11 42q45 109 146.5 183t216.5 74q148 0 255 -136q85 -127 169 -254
q105 -136 248 -136q101 0 174 56q45 35 92 105q38 56 51 56q19 0 19 -28zM1421 198q0 -24 -27 -37l-1169 -552q-6 -3 -14 -3q-41 0 -41 41q0 26 24 37l1090 514l-1090 514q-24 11 -24 37q0 41 41 41q8 0 14 -3l1169 -552q27 -13 27 -37z" />
  </g>

</svg>
