<?xml version="1.0" standalone="no"?>
<!DOCTYPE svg PUBLIC "-//W3C//DTD SVG 1.1//EN" "http://www.w3.org/Graphics/SVG/1.1/DTD/svg11.dtd" >
<svg viewBox="0 -442 2048 2048">
  <g transform="matrix(1 0 0 -1 0 1606)">
   <path fill="currentColor"
d="M1421 -259q0 -41 -37 -41h-878l-35 -95q-17 -47 -44 -47q-42 0 -42 38q0 15 8 37l24 67h-208q-39 0 -39 41t39 41h238l80 218h-318q-39 0 -39 41t39 41h348l79 218h-427q-39 0 -39 41t39 41h457l107 294q17 46 43 46q42 0 42 -37q0 -15 -8 -37l-97 -266h40q216 0 378 140
q168 147 168 360t-168 360q-162 140 -378 140h-584q-39 0 -39 41t39 41h590q248 0 432 -166q190 -171 190 -416t-190 -416q-184 -166 -432 -166h-75l-80 -218h740q37 0 37 -41t-37 -41h-769l-80 -218h849q37 0 37 -41z" />
  </g>

</svg>
