<?xml version="1.0" standalone="no"?>
<!DOCTYPE svg PUBLIC "-//W3C//DTD SVG 1.1//EN" "http://www.w3.org/Graphics/SVG/1.1/DTD/svg11.dtd" >
<svg viewBox="0 -442 2048 2048">
  <g transform="matrix(1 0 0 -1 0 1606)">
   <path fill="currentColor"
d="M1421 -259q0 -41 -37 -41h-618l-35 -95q-17 -47 -44 -47q-42 0 -42 38q0 15 8 37l24 67h-468q-39 0 -39 41t39 41h498l80 218h-578q-39 0 -39 41t39 41h608l79 218h-104q-248 0 -432 166q-190 171 -190 416t190 416q184 166 432 166h590q39 0 39 -41t-39 -41h-584
q-216 0 -378 -140q-168 -147 -168 -360t168 -360q162 -140 378 -140h128l107 294q17 46 43 46q42 0 42 -37q0 -15 -8 -37l-97 -266h369q39 0 39 -41t-39 -41h-398l-80 -218h480q37 0 37 -41t-37 -41h-509l-80 -218h589q37 0 37 -41z" />
  </g>

</svg>
