<?xml version="1.0" standalone="no"?>
<!DOCTYPE svg PUBLIC "-//W3C//DTD SVG 1.1//EN" "http://www.w3.org/Graphics/SVG/1.1/DTD/svg11.dtd" >
<svg viewBox="0 -442 2048 2048">
  <g transform="matrix(1 0 0 -1 0 1606)">
   <path fill="currentColor"
d="M880 582q0 -3 -377 -999q-9 -25 -37 -25q-41 0 -41 41q0 9 371 983q-371 974 -371 983q0 41 41 41q28 0 37 -25q377 -994 377 -999zM570 582q0 -3 -377 -999q-9 -25 -37 -25q-41 0 -41 41q0 9 371 983q-371 974 -371 983q0 41 41 41q28 0 37 -25q377 -994 377 -999z" />
  </g>

</svg>
