<?xml version="1.0" standalone="no"?>
<!DOCTYPE svg PUBLIC "-//W3C//DTD SVG 1.1//EN" "http://www.w3.org/Graphics/SVG/1.1/DTD/svg11.dtd" >
<svg viewBox="0 -442 2048 2048">
  <g transform="matrix(1 0 0 -1 0 1606)">
   <path fill="currentColor"
d="M1851 711q0 -244 -174 -432q-150 -163 -400 -255q-211 -78 -301 -78q-39 0 -39 33q0 24 131 61q199 56 365 188q255 202 255 494q0 438 -465 564q-92 25 -239 25q-34 0 -72 -2q137 -96 137 -140q0 -43 -54 -50q-8 -22 -53 -142q-107 -289 -232 -527q-205 -388 -343 -388
q-31 0 -44 20q-9 15 -17 29q-25 11 -64 28q-91 47 -137 176q-37 103 -37 228q0 485 441 737q208 119 486 119q182 0 312 -38q250 -73 390 -230q154 -171 154 -420zM842 1211q0 20 -10 50q-13 36 -29 36q-37 0 -152 -45q-102 -40 -208 -140q-99 -93 -157 -196
q-81 -144 -81 -341q0 -179 46 -273q49 -100 116 -100q37 0 80 53q21 26 78 129q157 285 278 666q39 123 39 161z" />
  </g>

</svg>
