<?xml version="1.0" standalone="no"?>
<!DOCTYPE svg PUBLIC "-//W3C//DTD SVG 1.1//EN" "http://www.w3.org/Graphics/SVG/1.1/DTD/svg11.dtd" >
<svg viewBox="0 -442 2048 2048">
  <g transform="matrix(1 0 0 -1 0 1606)">
   <path fill="currentColor"
d="M816 1358q0 -66 -119 -105q-20 -6 -154 -33q-10 -2 -16 -6l-6 -4q-7 -5 -7 -10q0 -17 28 -23q144 -29 168 -37q105 -35 105 -100q0 -29 -21.5 -52t-50.5 -23q-56 0 -119 60q-16 15 -103 116l-6 7q-9 11 -18 11q-14 0 -14 -20q0 -9 3 -18l40 -112q16 -52 16 -105
q0 -98 -78 -98t-78 98q0 53 16 105l40 112q3 9 3 18q0 20 -14 20q-11 0 -25 -16q-94 -107 -103 -116q-63 -60 -119 -60q-29 0 -50.5 23t-21.5 52q0 65 105 101q27 9 168 37q7 1 16 6l6 3q7 4 7 11q0 17 -28 23q-144 29 -168 37q-105 35 -105 100q0 29 21.5 52t50.5 23
q56 0 119 -60q16 -15 103 -116l6 -7q9 -11 18 -11q14 0 14 20q0 9 -3 18l-40 112q-16 52 -16 105q0 98 78 98t78 -98q0 -53 -16 -105l-40 -112q-3 -9 -3 -18q0 -20 14 -20q11 0 25 16q94 107 103 116q63 60 119 60q29 0 50.5 -23t21.5 -52z" />
  </g>

</svg>
