<?xml version="1.0" standalone="no"?>
<!DOCTYPE svg PUBLIC "-//W3C//DTD SVG 1.1//EN" "http://www.w3.org/Graphics/SVG/1.1/DTD/svg11.dtd" >
<svg viewBox="0 -442 2048 2048">
  <g transform="matrix(1 0 0 -1 0 1606)">
   <path fill="currentColor"
d="M1332 837q0 -48 -29 -86q-31 -41 -77 -41h-500q-97 0 -186 -55q-102 -64 -102 -155q0 -66 61 -123q57 22 118 22h214q52 0 52 -61q0 -33 -20 -59q-22 -29 -54 -29h-216q-93 0 -131 -67q-18 -31 -43 -151l-78 -363q-10 -44 -52 -77.5t-88 -33.5q-39 0 -71.5 28.5
t-32.5 67.5q0 21 2 30l161 760q42 198 179 333q148 146 342 146h477q32 0 53 -26.5t21 -59.5z" />
  </g>

</svg>
