<?xml version="1.0" standalone="no"?>
<!DOCTYPE svg PUBLIC "-//W3C//DTD SVG 1.1//EN" "http://www.w3.org/Graphics/SVG/1.1/DTD/svg11.dtd" >
<svg viewBox="0 -442 2048 2048">
  <g transform="matrix(1 0 0 -1 0 1606)">
   <path fill="currentColor"
d="M936 289q0 -325 -159 -535q-148 -196 -355 -196q-286 0 -286 217q0 90 88 90q85 0 85 -86q0 -67 -69 -85h-33q56 -80 213 -80q127 0 219 113q81 100 109 263q17 103 17 289q-86 -220 -276 -220q-178 0 -295 146q-108 135 -108 318q0 193 118 328q124 140 314 140
q74 0 142 -31q276 -126 276 -671zM761 460q0 150 -12 223q-23 131 -93 199q-61 59 -138 59q-129 0 -200 -106q-61 -92 -61 -228v-157q0 -140 49 -232q62 -117 191 -117q126 0 200 121q64 104 64 238z" />
  </g>

</svg>
