<?xml version="1.0" standalone="no"?>
<!DOCTYPE svg PUBLIC "-//W3C//DTD SVG 1.1//EN" "http://www.w3.org/Graphics/SVG/1.1/DTD/svg11.dtd" >
<svg viewBox="0 -442 2048 2048">
  <g transform="matrix(1 0 0 -1 0 1606)">
   <path fill="currentColor"
d="M919 22q0 -190 -126 -325q-129 -139 -317 -139q-155 0 -264.5 112t-109.5 268q0 100 92 100t92 -92q0 -91 -92 -91q-17 0 -33 6q26 -106 114 -176.5t197 -70.5q116 0 189 85q64 74 83 195q6 39 6 140q0 251 -94 345q-56 56 -125 56q-92 0 -162 -42q-45 -27 -89 -79
q-36 -42 -44 -42q-25 0 -25 50v621q0 46 17 46q55 -19 121 -42q78 -23 175 -23q140 0 272 56q21 10 24 10q2 0 3 -1q17 1 17 -19q0 -12 -27 -44q-59 -69 -155.5 -114t-185.5 -45q-106 0 -205 32v-433q101 111 266 111q174 0 285 -144q101 -132 101 -311z" />
  </g>

</svg>
