<?xml version="1.0" standalone="no"?>
<!DOCTYPE svg PUBLIC "-//W3C//DTD SVG 1.1//EN" "http://www.w3.org/Graphics/SVG/1.1/DTD/svg11.dtd" >
<svg viewBox="0 -442 2048 2048">
  <g transform="matrix(1 0 0 -1 0 1606)">
   <path fill="currentColor"
d="M936 426q0 -189 -115 -326q-121 -144 -307 -144q-76 0 -142 29q-286 126 -286 675q0 165 48 307q61 179 180 292q137 130 311 130q109 0 180 -52q81 -58 81 -163q0 -92 -88 -92q-86 0 -86 86q0 85 105 85q-54 86 -190 86q-129 0 -228 -109q-142 -156 -142 -559
q83 219 276 219q180 0 296 -145q107 -134 107 -319zM765 351v146q0 141 -49 233q-63 118 -192 118q-133 0 -204 -125q-59 -104 -59 -247q0 -217 48 -321q17 -38 57 -78q63 -64 148 -64q130 0 196 110q55 91 55 228z" />
  </g>

</svg>
