<?xml version="1.0" standalone="no"?>
<!DOCTYPE svg PUBLIC "-//W3C//DTD SVG 1.1//EN" "http://www.w3.org/Graphics/SVG/1.1/DTD/svg11.dtd" >
<svg viewBox="0 -442 2048 2048">
  <g transform="matrix(1 0 0 -1 0 1606)">
   <path fill="currentColor"
d="M936 -41q0 -172 -132 -289q-127 -112 -301 -112q-159 0 -281 88q-136 97 -136 250q0 109 104 109q102 0 102 -102q0 -106 -93 -106q-16 0 -34 3q39 -87 139 -139q91 -47 193 -47q129 0 193 115q52 93 52 232q0 158 -63 249q-68 98 -194 98q-129 0 -80 -2q-65 3 -65 23
q0 18 44 23q54 2 155 23q83 33 128 139q37 88 37 191q0 236 -217 236q-80 0 -156 -37q-81 -40 -118 -105q7 2 23 2q96 0 96 -96q0 -94 -94 -94q-96 0 -96 100q0 129 122 209q107 71 242 71q141 0 249 -71q124 -81 124 -215q0 -283 -298 -368q150 -27 249 -125
q106 -106 106 -253z" />
  </g>

</svg>
