<?xml version="1.0" standalone="no"?>
<!DOCTYPE svg PUBLIC "-//W3C//DTD SVG 1.1//EN" "http://www.w3.org/Graphics/SVG/1.1/DTD/svg11.dtd" >
<svg viewBox="0 -442 2048 2048">
  <g transform="matrix(1 0 0 -1 0 1606)">
   <path fill="currentColor"
d="M936 347q0 -170 -130 -283q-124 -108 -296 -108q-168 0 -290 94q-134 102 -134 265q0 245 307 387q-45 30 -90 61q-56 39 -82 70q-79 93 -79 214q0 149 112 247q107 95 258 95q144 0 250 -80q117 -88 117 -227q0 -183 -257 -328q166 -106 218 -161q96 -102 96 -246z
M794 1080q0 113 -87 188q-83 71 -197 71q-107 0 -189 -56q-93 -63 -93 -165q0 -82 64 -138q11 -11 34 -30l255 -167q213 120 213 297zM840 280q0 129 -128 213l-275 180q-111 -51 -180 -143q-75 -100 -75 -215q0 -132 100 -219q96 -83 230 -83q125 0 221 70q107 77 107 197z
" />
  </g>

</svg>
