<?xml version="1.0" standalone="no"?>
<!DOCTYPE svg PUBLIC "-//W3C//DTD SVG 1.1//EN" "http://www.w3.org/Graphics/SVG/1.1/DTD/svg11.dtd" >
<svg viewBox="0 -442 2048 2048">
  <g transform="matrix(1 0 0 -1 0 1606)">
   <path fill="currentColor"
d="M1981 90q0 -90 -101 -90h-50v181h52q99 0 99 -91zM1798 149h-97v-38h91v-32h-91v-79h-43v181h140v-32zM1626 149h-97v-38h91v-32h-91v-79h-43v181h140v-32zM1966 582q-202 -185 -389 -381h-283v-221h80q-179 -202 -350 -422q-436 560 -942 1024q506 463 942 1024
q436 -561 942 -1024zM1454 149h-97v-38h91v-32h-91v-79h-43v181h140v-32zM1445 59q-24 -26 -68 -76v76h68zM1937 90q0 60 -49 60h-15v-119h13q51 0 51 59zM1481 840q0 374 -717 374l-37 -157q534 0 534 -258q0 -111 -110 -202q-94 -78 -214 -106l29 -338h110l35 261
q370 145 370 426zM1170 -75q0 60 -43 103t-103 43t-103 -43t-43 -103t43 -102.5t103 -42.5t103 42.5t43 102.5z" />
  </g>

</svg>
