<?xml version="1.0" standalone="no"?>
<!DOCTYPE svg PUBLIC "-//W3C//DTD SVG 1.1//EN" "http://www.w3.org/Graphics/SVG/1.1/DTD/svg11.dtd" >
<svg viewBox="0 -512 2048 2048">
  <g transform="matrix(1 0 0 -1 0 1536)">
   <path fill="currentColor"
d="M0 213q0 57 27.5 103t72.5 77t98.5 47.5t106.5 16.5q25 0 50.5 -4t50.5 -11v779q0 27 16 48t43 29q23 6 99.5 29t178 52.5t215 62.5t211 60.5t164 46t74.5 18.5q35 0 58.5 -23.5t23.5 -58.5v-1028q0 -59 -27.5 -104.5t-73 -76t-99.5 -47t-105 -16.5t-105.5 16.5t-98.5 47
t-71.5 75.5t-27.5 105q0 57 27.5 103t71.5 77t98.5 47t105.5 16q27 0 52.5 -4t49.5 -10v537l-678 -195v-815q0 -59 -27.5 -104.5t-71.5 -76t-98.5 -47t-105.5 -16.5q-53 0 -106.5 16.5t-98.5 47t-72.5 76t-27.5 104.5z" />
  </g>

</svg>
