<?xml version="1.0" standalone="no"?>
<!DOCTYPE svg PUBLIC "-//W3C//DTD SVG 1.1//EN" "http://www.w3.org/Graphics/SVG/1.1/DTD/svg11.dtd" >
<svg viewBox="0 -512 2048 2048">
  <g transform="matrix(1 0 0 -1 0 1536)">
   <path fill="currentColor"
d="M0 901q0 137 52 258t143.5 212t212 143.5t258.5 52.5q137 0 257.5 -52.5t212 -143.5t143.5 -212t52 -258q0 -98 -28.5 -191.5t-81.5 -174.5l358 -359q18 -18 18 -47q0 -16 -18 -43t-45 -53.5t-53.5 -45t-42.5 -18.5q-29 0 -47 19l-359 358q-82 -53 -175 -81.5t-191 -28.5
q-137 0 -258 52t-212.5 143t-143.5 212t-52 258zM266 901q0 -84 32 -156.5t86 -126t127 -85t155 -31.5t154.5 31.5t126.5 85t86 126t32 156.5q0 82 -32 154.5t-86 127t-126.5 86t-154.5 31.5t-155 -31.5t-127 -86t-86 -127t-32 -154.5zM414 901q0 51 19.5 97t54 81t80 54.5
t98.5 19.5q20 0 34.5 -14.5t14.5 -36.5q0 -20 -14.5 -34.5t-34.5 -14.5q-63 0 -107.5 -44t-44.5 -108q0 -20 -14.5 -34.5t-34.5 -14.5q-23 0 -37 14.5t-14 34.5z" />
  </g>

</svg>
