<?xml version="1.0" standalone="no"?>
<!DOCTYPE svg PUBLIC "-//W3C//DTD SVG 1.1//EN" "http://www.w3.org/Graphics/SVG/1.1/DTD/svg11.dtd" >
<svg viewBox="0 -512 2048 2048">
  <g transform="matrix(1 0 0 -1 0 1536)">
   <path fill="currentColor"
d="M0 115v1306q0 47 34 81t81 34h1614q47 0 80.5 -34t33.5 -81v-1306q0 -47 -33.5 -81t-80.5 -34h-1614q-47 0 -81 34t-34 81zM154 154h1536v852q-31 -31 -58 -50q-106 -80 -212.5 -159.5t-211.5 -163.5q-61 -49 -131.5 -94t-156.5 -45q-82 0 -153 45t-132 94
q-104 84 -211 164t-213 159q-27 18 -57 50v-852zM154 1317q0 -31 14 -65.5t35.5 -66.5t47 -59.5t50.5 -46.5q100 -76 199.5 -150.5t199.5 -152.5q20 -16 48 -37.5t58 -42t59.5 -35t54.5 -14.5h2h2q25 0 54.5 14.5t59 35t57 42t48.5 37.5q100 78 199.5 153t199.5 150
q25 18 50.5 46t47 60t36 66.5t14.5 65.5v65h-1536v-65z" />
  </g>

</svg>
