<?xml version="1.0" standalone="no"?>
<!DOCTYPE svg PUBLIC "-//W3C//DTD SVG 1.1//EN" "http://www.w3.org/Graphics/SVG/1.1/DTD/svg11.dtd" >
<svg viewBox="0 -512 2048 2048">
  <g transform="matrix(1 0 0 -1 0 1536)">
   <path fill="currentColor"
d="M0 948q0 23 18.5 32t36.5 13l506 74l227 459q6 14 20 27.5t30 13.5q18 0 30.5 -13.5t18.5 -27.5l227 -459l506 -74q18 -4 36.5 -13t18.5 -32q0 -14 -7 -26.5t-17 -22.5l-367 -356l86 -504q0 -4 1 -9t1 -12q0 -20 -9 -34.5t-32 -14.5t-41 13l-452 237l-453 -237
q-18 -12 -39 -13q-23 0 -33 14.5t-10 34.5q0 6 1 11.5t1 9.5l86 504l-364 356q-10 10 -18.5 22.5t-8.5 26.5zM289 866l274 -268l-65 -377l340 178l340 -178l-66 377l274 268l-378 56l-170 344l-170 -344z" />
  </g>

</svg>
