<?xml version="1.0" standalone="no"?>
<!DOCTYPE svg PUBLIC "-//W3C//DTD SVG 1.1//EN" "http://www.w3.org/Graphics/SVG/1.1/DTD/svg11.dtd" >
<svg viewBox="0 -512 2048 2048">
  <g transform="matrix(1 0 0 -1 0 1536)">
   <path fill="currentColor"
d="M0 57v387q0 37 18.5 82t48 86t65.5 74t71 43q18 6 66 13.5t102.5 14.5t104.5 13t77 10q-92 59 -144.5 153.5t-52.5 205.5q0 88 34 165.5t91.5 136t135 92.5t165.5 34t166 -34t136.5 -92.5t92 -136t33.5 -165.5q0 -109 -52 -204.5t-144 -154.5q27 -4 77 -10t104 -13
t101 -14.5t68 -13.5q35 -10 70.5 -42t65.5 -74t48.5 -87t18.5 -82v-387q-10 -4 -22.5 -14t-27 -19.5t-27.5 -16.5t-22 -7h-1370q-35 0 -53 21.5t-45 35.5z" />
  </g>

</svg>
