<?xml version="1.0" standalone="no"?>
<!DOCTYPE svg PUBLIC "-//W3C//DTD SVG 1.1//EN" "http://www.w3.org/Graphics/SVG/1.1/DTD/svg11.dtd" >
<svg viewBox="0 -512 2048 2048">
  <g transform="matrix(1 0 0 -1 0 1536)">
   <path fill="currentColor"
d="M0 115v1306q0 47 34 81t81 34h1614q47 0 80.5 -34t33.5 -81v-1306q0 -47 -33.5 -81t-80.5 -34h-1614q-47 0 -81 34t-34 81zM115 154q0 -16 11 -27.5t28 -11.5h153q16 0 27.5 11t11.5 28v153q0 16 -11 27.5t-28 11.5h-153q-16 0 -27.5 -11t-11.5 -28v-153zM115 512
q0 -16 11 -27.5t28 -11.5h153q16 0 27.5 11.5t11.5 27.5v154q0 16 -11 27.5t-28 11.5h-153q-16 0 -27.5 -11.5t-11.5 -27.5v-154zM115 870q0 -16 11 -27.5t28 -11.5h153q16 0 27.5 11.5t11.5 27.5v154q0 16 -11 27.5t-28 11.5h-153q-16 0 -27.5 -11.5t-11.5 -27.5v-154z
M115 1229q0 -16 11 -27.5t28 -11.5h153q16 0 27.5 11t11.5 28v153q0 16 -11 27.5t-28 11.5h-153q-16 0 -27.5 -11t-11.5 -28v-153zM461 154q0 -16 11 -27.5t28 -11.5h843q16 0 27.5 11t11.5 28v512q0 16 -11 27.5t-28 11.5h-843q-16 0 -27.5 -11.5t-11.5 -27.5v-512z
M461 870q0 -16 11 -27.5t28 -11.5h843q16 0 27.5 11.5t11.5 27.5v512q0 16 -11 27.5t-28 11.5h-843q-16 0 -27.5 -11t-11.5 -28v-512zM1497 154q0 -16 11.5 -27.5t27.5 -11.5h154q16 0 27.5 11t11.5 28v153q0 16 -11.5 27.5t-27.5 11.5h-154q-16 0 -27.5 -11t-11.5 -28v-153
zM1497 512q0 -16 11.5 -27.5t27.5 -11.5h154q16 0 27.5 11.5t11.5 27.5v154q0 16 -11.5 27.5t-27.5 11.5h-154q-16 0 -27.5 -11.5t-11.5 -27.5v-154zM1497 870q0 -16 11.5 -27.5t27.5 -11.5h154q16 0 27.5 11.5t11.5 27.5v154q0 16 -11.5 27.5t-27.5 11.5h-154
q-16 0 -27.5 -11.5t-11.5 -27.5v-154zM1497 1229q0 -16 11.5 -27.5t27.5 -11.5h154q16 0 27.5 11t11.5 28v153q0 16 -11.5 27.5t-27.5 11.5h-154q-16 0 -27.5 -11t-11.5 -28v-153z" />
  </g>

</svg>
