<?xml version="1.0" standalone="no"?>
<!DOCTYPE svg PUBLIC "-//W3C//DTD SVG 1.1//EN" "http://www.w3.org/Graphics/SVG/1.1/DTD/svg11.dtd" >
<svg viewBox="0 -512 2048 2048">
  <g transform="matrix(1 0 0 -1 0 1536)">
   <path fill="currentColor"
d="M0 78v536q0 33 22.5 55.5t55.5 22.5h690q33 0 55.5 -22.5t22.5 -55.5v-536q0 -33 -22.5 -55.5t-55.5 -22.5h-690q-33 0 -55.5 22.5t-22.5 55.5zM0 922v538q0 31 22.5 53.5t55.5 22.5h690q33 0 55.5 -22.5t22.5 -53.5v-538q0 -33 -22.5 -54.5t-55.5 -21.5h-690
q-33 0 -55.5 21.5t-22.5 54.5zM999 78v536q0 33 21.5 55.5t54.5 22.5h692q31 0 53.5 -22.5t22.5 -55.5v-536q0 -33 -22.5 -55.5t-53.5 -22.5h-692q-33 0 -54.5 22.5t-21.5 55.5zM999 922v538q0 31 21.5 53.5t54.5 22.5h692q31 0 53.5 -22.5t22.5 -53.5v-538
q0 -33 -22.5 -54.5t-53.5 -21.5h-692q-33 0 -54.5 21.5t-21.5 54.5z" />
  </g>

</svg>
