<?xml version="1.0" standalone="no"?>
<!DOCTYPE svg PUBLIC "-//W3C//DTD SVG 1.1//EN" "http://www.w3.org/Graphics/SVG/1.1/DTD/svg11.dtd" >
<svg viewBox="0 -512 2048 2048">
  <g transform="matrix(1 0 0 -1 0 1536)">
   <path fill="currentColor"
d="M0 78v270q0 33 22.5 54.5t55.5 21.5h358q31 0 53.5 -21.5t22.5 -54.5v-270q0 -33 -22.5 -55.5t-53.5 -22.5h-358q-33 0 -55.5 22.5t-22.5 55.5zM0 655v226q0 33 22.5 54t55.5 21h358q31 0 53.5 -21.5t22.5 -53.5v-226q0 -33 -22.5 -55t-53.5 -22h-358q-33 0 -55.5 22.5
t-22.5 54.5zM0 1188v272q0 31 22.5 53.5t55.5 22.5h358q31 0 53.5 -22.5t22.5 -53.5v-272q0 -33 -22.5 -55.5t-53.5 -22.5h-358q-33 0 -55.5 22.5t-22.5 55.5zM666 78v270q0 33 22.5 54.5t54.5 21.5h359q31 0 53.5 -21.5t22.5 -54.5v-270q0 -33 -22.5 -55.5t-53.5 -22.5
h-359q-33 0 -55 22.5t-22 55.5zM666 655v226q0 33 22.5 54t54.5 21h359q31 0 53.5 -21.5t22.5 -53.5v-226q0 -33 -22.5 -55t-53.5 -22h-359q-33 0 -55 22.5t-22 54.5zM666 1188v272q0 31 22.5 53.5t54.5 22.5h359q31 0 53.5 -22.5t22.5 -53.5v-272q0 -33 -22.5 -55.5
t-53.5 -22.5h-359q-33 0 -55 22.5t-22 55.5zM1331 78v270q0 33 22.5 54.5t55.5 21.5h358q31 0 53.5 -21.5t22.5 -54.5v-270q0 -33 -22.5 -55.5t-53.5 -22.5h-358q-33 0 -55.5 22.5t-22.5 55.5zM1331 655v226q0 33 22.5 54t55.5 21h358q31 0 53.5 -21.5t22.5 -53.5v-226
q0 -33 -22.5 -55t-53.5 -22h-358q-33 0 -55.5 22.5t-22.5 54.5zM1331 1188v272q0 31 22.5 53.5t55.5 22.5h358q31 0 53.5 -22.5t22.5 -53.5v-272q0 -33 -22.5 -55.5t-53.5 -22.5h-358q-33 0 -55.5 22.5t-22.5 55.5z" />
  </g>

</svg>
