<?xml version="1.0" standalone="no"?>
<!DOCTYPE svg PUBLIC "-//W3C//DTD SVG 1.1//EN" "http://www.w3.org/Graphics/SVG/1.1/DTD/svg11.dtd" >
<svg viewBox="0 -512 2048 2048">
  <g transform="matrix(1 0 0 -1 0 1536)">
   <path fill="currentColor"
d="M0 901q0 137 52 258t143.5 212t212 143.5t258.5 52.5q137 0 259 -52.5t212 -143.5t142 -212t52 -258q0 -102 -28.5 -195.5t-81.5 -170.5l358 -359q18 -18 18 -46t-18 -48l-94 -94q-20 -18 -48 -18.5t-46 18.5l-359 358q-78 -53 -171 -81.5t-195 -28.5q-137 0 -258 52
t-212.5 142t-143.5 211t-52 260zM266 901q0 -84 32 -156.5t86 -126t127 -85t155 -31.5t155.5 31.5t126.5 85t85 126t32 156.5q0 82 -32 154.5t-85 127t-126.5 86t-155.5 31.5t-155 -31.5t-127 -86t-86 -127t-32 -154.5zM399 868v66q0 33 33 33h168v168q0 33 33 32h65
q14 0 24.5 -9t10.5 -23v-168h166q33 0 33 -33v-66q0 -14 -9.5 -24t-23.5 -10h-166v-166q0 -14 -10 -23.5t-25 -9.5h-65q-33 0 -33 33v166h-168q-14 0 -23.5 10t-9.5 24z" />
  </g>

</svg>
