<?xml version="1.0" standalone="no"?>
<!DOCTYPE svg PUBLIC "-//W3C//DTD SVG 1.1//EN" "http://www.w3.org/Graphics/SVG/1.1/DTD/svg11.dtd" >
<svg viewBox="0 -512 2048 2048">
  <g transform="matrix(1 0 0 -1 0 1536)">
   <path fill="currentColor"
d="M0 713q0 186 86 349t240 267q12 10 28 6q18 -4 25 -16l90 -131q10 -12 6 -27.5t-16 -25.5q-106 -72 -164.5 -182.5t-58.5 -239.5q0 -104 39.5 -197.5t108.5 -162t162 -108.5t197 -40t197.5 40t163.5 108.5t109.5 161.5t39.5 198q0 129 -59 239.5t-164 182.5
q-14 10 -16 24q-4 16 6 29l88 131q10 12 25.5 15t29.5 -5q154 -104 240 -267t86 -349q0 -154 -58.5 -289t-160 -236.5t-237.5 -160t-290 -58.5t-289 58.5t-236 160t-159.5 236.5t-58.5 289zM627 793v704q0 16 11 27.5t28 11.5h157q16 0 27.5 -11.5t11.5 -27.5v-704
q0 -16 -11 -27.5t-28 -11.5h-157q-16 0 -27.5 11t-11.5 28z" />
  </g>

</svg>
