<?xml version="1.0" standalone="no"?>
<!DOCTYPE svg PUBLIC "-//W3C//DTD SVG 1.1//EN" "http://www.w3.org/Graphics/SVG/1.1/DTD/svg11.dtd" >
<svg viewBox="0 -512 2048 2048">
  <g transform="matrix(1 0 0 -1 0 1536)">
   <path fill="currentColor"
d="M0 39v260q0 16 11.5 27.5t27.5 11.5h192q16 0 26.5 -11.5t10.5 -27.5v-260q0 -16 -10 -27.5t-27 -11.5h-192q-39 0 -39 39zM393 39v434q0 16 11.5 27.5t27.5 11.5h193q16 0 26.5 -11.5t10.5 -27.5v-434q0 -16 -10.5 -27.5t-26.5 -11.5h-193q-16 0 -27.5 11.5t-11.5 27.5z
M786 39v676q0 16 11.5 27.5t27.5 11.5h193q16 0 27.5 -11.5t11.5 -27.5v-676q0 -16 -11.5 -27.5t-27.5 -11.5h-193q-16 0 -27.5 11.5t-11.5 27.5zM1182 39v995q0 16 10 27.5t27 11.5h192q16 0 27.5 -11t11.5 -28v-995q0 -16 -11.5 -27.5t-27.5 -11.5h-192q-16 0 -26.5 11.5
t-10.5 27.5zM1575 39v1458q0 39 39 39h190q39 0 39 -39v-1458q0 -39 -39 -39h-190q-39 0 -39 39z" />
  </g>

</svg>
