<?xml version="1.0" standalone="no"?>
<!DOCTYPE svg PUBLIC "-//W3C//DTD SVG 1.1//EN" "http://www.w3.org/Graphics/SVG/1.1/DTD/svg11.dtd" >
<svg viewBox="0 -512 2048 2048">
  <g transform="matrix(1 0 0 -1 0 1536)">
   <path fill="currentColor"
d="M0 651v236q0 12 30.5 21.5t68.5 15.5t74 9t48 5q18 61 49 117q-55 82 -120 157l-7 15q0 8 28 38.5t62.5 65.5t66.5 62.5t40 27.5q2 0 26.5 -18.5t54.5 -41t56.5 -43t32.5 -24.5q29 16 58.5 26.5t60.5 20.5q0 12 3 49t9 75t15.5 69t21.5 31h237q14 0 19 -15
q12 -49 17 -103t14 -106q31 -8 59.5 -19t56.5 -28q8 6 34 26.5t55.5 43t53 40t29.5 17.5t37 -27.5t65 -62.5t61.5 -65.5t27.5 -38.5q0 -4 -17.5 -28.5t-39 -53.5t-42 -55.5t-24.5 -32.5q33 -55 51 -123q49 -10 103.5 -13t101.5 -20q16 -4 16 -18v-236q0 -12 -29.5 -21.5
t-68.5 -15.5t-76 -9t-49 -5q-14 -57 -47 -117q55 -82 121 -157l6 -15q0 -8 -27.5 -38.5t-62.5 -65.5t-66.5 -62.5t-40.5 -27.5q-2 0 -26.5 18.5t-54 41t-56 43t-33.5 24.5q-29 -16 -58.5 -27.5t-59.5 -19.5q-2 -12 -5.5 -49.5t-9.5 -76t-14 -69.5t-21 -31h-237q-14 0 -19 17
q-14 49 -19 103t-11 103q-61 18 -117 50q-41 -31 -81 -60.5t-79 -62.5l-12 -4q-6 0 -37 27.5t-64.5 62.5t-61 65.5t-27.5 38.5q0 2 16 26.5t37.5 53.5t42 55.5t26.5 34.5q-33 55 -51 123q-51 10 -104.5 13t-100.5 20q-16 4 -16 18zM557 768q0 -49 18.5 -93t51 -77t77 -52.5
t93.5 -19.5t93 19.5t75.5 52.5t51 77t19.5 93t-19.5 92t-51 76t-75.5 51.5t-93 18.5t-93.5 -18.5t-77 -51.5t-51 -76t-18.5 -92z" />
  </g>

</svg>
