<?xml version="1.0" standalone="no"?>
<!DOCTYPE svg PUBLIC "-//W3C//DTD SVG 1.1//EN" "http://www.w3.org/Graphics/SVG/1.1/DTD/svg11.dtd" >
<svg viewBox="0 -512 2048 2048">
  <g transform="matrix(1 0 0 -1 0 1536)">
   <path fill="currentColor"
d="M0 1175.5v34.5v36l2 36q25 14 71 23.5t98 15.5t102.5 9t78.5 5q-8 82 11.5 128t59.5 68.5t98.5 29t131.5 6.5q55 0 109.5 -3t97.5 -20.5t68.5 -54.5t25.5 -105v-24l-2 -25q29 -2 79 -5t102.5 -9t99.5 -15.5t72 -23.5v-72v-69q-37 -20 -123 -32.5t-185.5 -19t-193.5 -7.5
t-150 -1q-55 0 -150 1t-194.5 7.5t-184.5 18.5t-122 33q-2 16 -2 34.5zM133 154v837q123 -16 244 -21t244 -5h32q129 2 258 6t258 20v-837q0 -63 -44 -108.5t-107 -45.5h-731q-63 0 -108.5 45t-45.5 109zM303 199q0 -16 10.5 -26.5t26.5 -10.5h39q16 0 27.5 10t11.5 27v614
q0 16 -11.5 27.5t-27.5 11.5h-39q-16 0 -26.5 -11.5t-10.5 -27.5v-614zM504 1384q0 -10 1 -22t3 -23q144 2 291 0q0 12 2 23.5t0 21.5v15q-35 10 -74 11t-74 1q-37 0 -75.5 -1t-73.5 -11v-15zM596 199q0 -16 10 -26.5t27 -10.5h39q16 0 27.5 10t11.5 27v614q0 16 -11.5 27.5
t-27.5 11.5h-39q-16 0 -26.5 -11.5t-10.5 -27.5v-614zM887 199q0 -16 11 -26.5t28 -10.5h39q16 0 27.5 10t11.5 27v614q0 16 -11.5 27.5t-27.5 11.5h-39q-16 0 -27.5 -11.5t-11.5 -27.5v-614z" />
  </g>

</svg>
