<?xml version="1.0" standalone="no"?>
<!DOCTYPE svg PUBLIC "-//W3C//DTD SVG 1.1//EN" "http://www.w3.org/Graphics/SVG/1.1/DTD/svg11.dtd" >
<svg viewBox="-1 -512 2048 2048">
  <g transform="matrix(1 0 0 -1 0 1536)">
   <path fill="currentColor"
d="M0 809.5q2 15.5 14 26.5l867 710q27 20 59 21q33 0 59 -21l240 -196v102q0 16 11.5 27.5t27.5 11.5h223q16 0 26.5 -11.5t10.5 -27.5v-348l328 -268q12 -10 14 -25.5t-8 -28.5l-45 -53q-10 -14 -29 -14h-65q-16 0 -25 8l-743 608q-25 20 -50 0l-743 -608q-8 -8 -25 -8
h-65q-18 0 -29 14l-45 53q-10 12 -8 27.5zM266 76v622l674 553l674 -553v-622q0 -33 -21.5 -54.5t-54.5 -21.5h-422v498h-352v-498h-422q-33 0 -54.5 21.5t-21.5 54.5z" />
  </g>

</svg>
