<?xml version="1.0" standalone="no"?>
<!DOCTYPE svg PUBLIC "-//W3C//DTD SVG 1.1//EN" "http://www.w3.org/Graphics/SVG/1.1/DTD/svg11.dtd" >
<svg viewBox="0 -512 2048 2048">
  <g transform="matrix(1 0 0 -1 0 1536)">
   <path fill="currentColor"
d="M0 39v614q0 16 11.5 27.5t27.5 11.5h229q16 0 27.5 -11t11.5 -28v-346h1229v346q0 16 11.5 27.5t27.5 11.5h229q16 0 27.5 -11t11.5 -28v-614q0 -39 -39 -39h-1765q-39 0 -39 39zM345.5 944.5q6.5 16.5 39.5 16.5h307v499q0 31 21.5 53.5t54.5 22.5h307q33 0 55.5 -22.5
t22.5 -53.5v-499h307q31 0 37 -16.5t-16 -39.5l-504 -506q-23 -23 -55.5 -22.5t-55.5 22.5l-504 506q-23 23 -16.5 39.5z" />
  </g>

</svg>
