<?xml version="1.0" standalone="no"?>
<!DOCTYPE svg PUBLIC "-//W3C//DTD SVG 1.1//EN" "http://www.w3.org/Graphics/SVG/1.1/DTD/svg11.dtd" >
<svg viewBox="0 -512 2048 2048">
  <g transform="matrix(1 0 0 -1 0 1536)">
   <path fill="currentColor"
d="M0 768q0 166 62.5 311.5t171 254t254 171t311.5 62.5t311 -62.5t254 -171t171 -254t62 -311.5t-62 -311.5t-171 -254t-254 -171t-311 -62.5t-311.5 62.5t-254 171t-171 254t-62.5 311.5zM240 768q0 -117 44 -218t119.5 -177t177 -120t218.5 -44t218 44t177 120t120 177
t44 218t-44 218t-120 177t-177 120t-218 44t-218.5 -44t-177 -120t-119.5 -177t-44 -218zM414 793q-10 25 10 43l346 346q14 10 29 10q14 0 28 -10l347 -346q20 -18 10 -43t-37 -25h-209v-360q0 -16 -11.5 -27.5t-27.5 -11.5h-201q-16 0 -27.5 11t-11.5 28v360h-208
q-27 0 -37 25z" />
  </g>

</svg>
