<?xml version="1.0" standalone="no"?>
<!DOCTYPE svg PUBLIC "-//W3C//DTD SVG 1.1//EN" "http://www.w3.org/Graphics/SVG/1.1/DTD/svg11.dtd" >
<svg viewBox="0 -512 2048 2048">
  <g transform="matrix(1 0 0 -1 0 1536)">
   <path fill="currentColor"
d="M0 768q0 166 62.5 311.5t171 254t254 171t311.5 62.5t311 -62.5t254 -171t171 -254t62 -311.5t-62 -311.5t-171 -254t-254 -171t-311 -62.5t-311.5 62.5t-254 171t-171 254t-62.5 311.5zM240 768q0 -117 44 -218t119.5 -177t177 -120t218.5 -44t218 44t177 120t120 177
t44 218t-44 218t-120 177t-177.5 120t-217.5 44q-117 0 -218.5 -44t-177 -120t-119.5 -177t-44 -218zM582 453v628q0 18 16 29q20 8 31 0l545 -315q16 -6 16 -27q0 -20 -16 -27l-545 -315q-8 -4 -15 -4q-8 0 -16 4q-16 10 -16 27z" />
  </g>

</svg>
