<?xml version="1.0" standalone="no"?>
<!DOCTYPE svg PUBLIC "-//W3C//DTD SVG 1.1//EN" "http://www.w3.org/Graphics/SVG/1.1/DTD/svg11.dtd" >
<svg viewBox="0 -512 2048 2048">
  <g transform="matrix(1 0 0 -1 0 1536)">
   <path fill="currentColor"
d="M0 768q0 166 62.5 311.5t171 254t254 171t311.5 62.5q141 0 271 -48.5t239 -140.5l161 162q35 35 58.5 24.5t23.5 -57.5v-463q0 -33 -22 -55q-10 -10 -23.5 -16t-29.5 -6h-463q-47 0 -58.5 23.5t23.5 58.5l160 159q-72 57 -159 88t-181 31q-117 0 -218.5 -44t-177 -120
t-119.5 -177t-44 -218t44 -218t119.5 -177t177 -120t218.5 -44q104 0 198.5 37t169 101.5t123.5 153.5t64 191q0 16 14 27q14 10 31 8l157 -20q16 -4 26.5 -16.5t8.5 -28.5q-20 -147 -89.5 -274.5t-176 -220.5t-242 -145.5t-284.5 -52.5q-166 0 -311.5 62.5t-254 171
t-171 254t-62.5 311.5z" />
  </g>

</svg>
