<?xml version="1.0" standalone="no"?>
<!DOCTYPE svg PUBLIC "-//W3C//DTD SVG 1.1//EN" "http://www.w3.org/Graphics/SVG/1.1/DTD/svg11.dtd" >
<svg viewBox="-2 -512 2048 2048">
  <g transform="matrix(1 0 0 -1 0 1536)">
   <path fill="currentColor"
d="M6 311l150 437q10 33 39 45t59 4l438 -150q45 -16 46 -40.5t-42 -47.5l-202 -100q53 -78 123.5 -134.5t160.5 -86.5q111 -37 221.5 -28t207 56t170 129t110.5 193q6 16 20.5 22t30.5 2l152 -51q16 -6 23 -20.5t1 -30.5q-53 -158 -159.5 -274.5t-243.5 -184t-296 -81
t-315 39.5q-135 47 -241.5 134t-179.5 208l-205 -100q-43 -23 -63.5 -5.5t-4.5 64.5zM203 1024q53 156 159.5 273.5t243.5 185t295 81t316 -39.5q133 -47 240.5 -134t180.5 -208l205 100q43 23 63.5 5.5t4.5 -62.5l-150 -439q-10 -33 -39 -45t-59 -4l-438 150
q-45 16 -46 40.5t40 47.5l202 100q-51 78 -122.5 134.5t-159.5 86.5q-111 37 -221.5 28t-207 -56t-170 -129t-110.5 -193q-6 -16 -20.5 -22t-30.5 -2l-152 51q-16 6 -23 20.5t-1 30.5z" />
  </g>

</svg>
