<?xml version="1.0" standalone="no"?>
<!DOCTYPE svg PUBLIC "-//W3C//DTD SVG 1.1//EN" "http://www.w3.org/Graphics/SVG/1.1/DTD/svg11.dtd" >
<svg viewBox="0 -512 2048 2048">
  <g transform="matrix(1 0 0 -1 0 1536)">
   <path fill="currentColor"
d="M0 115v1306q0 47 34 81t81 34h1614q47 0 80.5 -34t33.5 -81v-1306q0 -47 -33.5 -81t-80.5 -34h-1614q-47 0 -81 34t-34 81zM154 154h1536v1075h-1536v-1075zM307 346v76q0 39 39 39h154q16 0 27.5 -11.5t11.5 -27.5v-76q0 -16 -11.5 -27.5t-27.5 -11.5h-154q-39 0 -39 39
zM307 653v76q0 39 39 39h154q16 0 27.5 -11.5t11.5 -27.5v-76q0 -16 -11.5 -27.5t-27.5 -11.5h-154q-39 0 -39 39zM307 961v75q0 39 39 39h154q16 0 27.5 -11t11.5 -28v-75q0 -16 -11.5 -27.5t-27.5 -11.5h-154q-39 0 -39 39zM692 346v76q0 16 10.5 27.5t26.5 11.5h768
q39 0 39 -39v-76q0 -39 -39 -39h-768q-16 0 -26.5 11.5t-10.5 27.5zM692 653v76q0 16 10.5 27.5t26.5 11.5h768q39 0 39 -39v-76q0 -39 -39 -39h-768q-16 0 -26.5 11.5t-10.5 27.5zM692 961v75q0 16 10.5 27.5t26.5 11.5h768q39 0 39 -39v-75q0 -39 -39 -39h-768
q-16 0 -26.5 11t-10.5 28z" />
  </g>

</svg>
