<?xml version="1.0" standalone="no"?>
<!DOCTYPE svg PUBLIC "-//W3C//DTD SVG 1.1//EN" "http://www.w3.org/Graphics/SVG/1.1/DTD/svg11.dtd" >
<svg viewBox="0 -512 2048 2048">
  <g transform="matrix(1 0 0 -1 0 1536)">
   <path fill="currentColor"
d="M0 117v626q0 39 21.5 69t56.5 42v164q0 113 43 213t117.5 175t175 118t213.5 43t213 -43t175 -118t118 -175.5t43 -212.5v-164q35 -12 56 -42t21 -69v-626q0 -47 -34.5 -82t-81.5 -35h-1020q-47 0 -82 35t-35 82zM313 862h627v156q0 66 -24.5 123t-67.5 99t-100.5 66.5
t-120.5 24.5q-66 0 -122 -24.5t-99.5 -66.5t-68 -99.5t-24.5 -122.5v-156zM494 164h266l-66 285q29 18 47.5 48.5t18.5 65.5q0 55 -39 95t-94 40t-94 -40t-39 -95q0 -35 18 -65.5t47 -46.5z" />
  </g>

</svg>
