<?xml version="1.0" standalone="no"?>
<!DOCTYPE svg PUBLIC "-//W3C//DTD SVG 1.1//EN" "http://www.w3.org/Graphics/SVG/1.1/DTD/svg11.dtd" >
<svg viewBox="0 -512 2048 2048">
  <g transform="matrix(1 0 0 -1 0 1536)">
   <path fill="currentColor"
d="M0 1382q0 63 45 108.5t109 45.5q63 0 108 -45.5t45 -108.5q0 -41 -20.5 -74.5t-55.5 -56.5v-1212q0 -16 -11 -27.5t-27 -11.5h-78q-16 0 -26.5 11.5t-10.5 27.5v1212q-35 23 -56.5 56.5t-21.5 74.5zM307 416v745q0 33 19.5 66t48.5 49q104 55 188 86t144 45q70 16 124 18
q68 0 124.5 -11t107.5 -29.5t99 -43t100 -51.5q63 -29 145 -33q70 -4 164 15.5t207 87.5q29 16 47 6t18 -43v-748q0 -31 -18.5 -64.5t-46.5 -49.5q-113 -68 -207 -87.5t-164 -15.5q-82 4 -145 33q-51 27 -99.5 51.5t-99.5 43t-107.5 29.5t-124.5 11q-55 -2 -124 -18
q-59 -14 -143.5 -45t-188.5 -88q-29 -16 -48.5 -4t-19.5 45z" />
  </g>

</svg>
