<?xml version="1.0" standalone="no"?>
<!DOCTYPE svg PUBLIC "-//W3C//DTD SVG 1.1//EN" "http://www.w3.org/Graphics/SVG/1.1/DTD/svg11.dtd" >
<svg viewBox="0 -512 2048 2048">
  <g transform="matrix(1 0 0 -1 0 1536)">
   <path fill="currentColor"
d="M0 729q0 172 85 324.5t221 266.5t307 180.5t345 66.5t345.5 -66.5t307.5 -180.5t221 -266.5t85 -326.5q0 -182 -78 -350l-27 -60l-174 -26q-27 -104 -110.5 -173t-196.5 -69v-41q0 -16 -12 -27.5t-29 -11.5h-80q-16 0 -27.5 11.5t-11.5 27.5v719q0 16 11.5 28.5
t27.5 12.5h80q16 0 28.5 -12.5t12.5 -28.5v-39q88 0 161 -44t114 -116l39 7q33 90 32 192q0 125 -65.5 233.5t-170 190.5t-232.5 129t-251 47t-250.5 -47t-232 -128t-170 -190.5t-65.5 -232.5q0 -104 32 -194l39 -7q41 72 114 116t161 44v39q0 16 12 28.5t29 12.5h80
q16 0 27 -12.5t11 -28.5v-719q0 -16 -11 -27.5t-27 -11.5h-80q-16 0 -28.5 11.5t-12.5 27.5v41q-55 0 -106.5 18.5t-91.5 50.5t-68.5 76t-40.5 97l-175 26l-26 60q-78 168 -78 352z" />
  </g>

</svg>
