<?xml version="1.0" standalone="no"?>
<!DOCTYPE svg PUBLIC "-//W3C//DTD SVG 1.1//EN" "http://www.w3.org/Graphics/SVG/1.1/DTD/svg11.dtd" >
<svg viewBox="0 -512 2048 2048">
  <g transform="matrix(1 0 0 -1 0 1536)">
   <path fill="currentColor"
d="M0 961v454q0 49 35 85t86 36h454q25 0 53.5 -6t57.5 -18.5t54.5 -28t41.5 -33.5l670 -748q33 -37 34 -86t-34 -84l-526 -524q-35 -35 -86.5 -37t-83.5 37l-670 746q-35 39 -60.5 98t-25.5 109zM195 1223q0 -47 34.5 -82t83.5 -35q47 0 82 35t35 82q0 49 -35 83.5
t-82 34.5q-49 0 -83.5 -34.5t-34.5 -83.5zM791 1534h174q51 0 112.5 -24.5t93.5 -61.5l670 -748q35 -37 35 -87t-35 -85l-524 -524q-35 -35 -86 -36t-86 36l-12 14l514 514q35 35 34.5 84.5t-34.5 85.5l-670 748q-31 35 -84 56.5t-102 27.5z" />
  </g>

</svg>
