<?xml version="1.0" standalone="no"?>
<!DOCTYPE svg PUBLIC "-//W3C//DTD SVG 1.1//EN" "http://www.w3.org/Graphics/SVG/1.1/DTD/svg11.dtd" >
<svg viewBox="-2 -512 2048 2048">
  <g transform="matrix(1 0 0 -1 0 1536)">
   <path fill="currentColor"
d="M10 311q2 16 4 31.5t4 34.5q0 10 -4 20.5t-2 20.5q2 16 15.5 31.5t25.5 35.5q23 37 45.5 90.5t32.5 92.5q4 16 -1 30.5t-1 26.5q4 16 16.5 27.5t20.5 23.5q10 18 21.5 42t21.5 49.5t16 50t8 40.5t-2 33t0 29q6 16 20.5 26.5t24.5 24.5q10 12 21.5 34.5t23 49.5t19.5 52.5
t10 45.5q2 12 -4 24.5t-2 27.5q4 14 18.5 29.5t26.5 31.5q16 25 28.5 58.5t30 61t46 43t77.5 1.5l-2 -4q31 10 54 10h780q78 0 119 -57q41 -53 18 -129l-283 -906q-18 -63 -77.5 -107t-126.5 -44h-893q-10 0 -20.5 -2t-18.5 -12q-12 -20 0 -56q16 -43 60 -75.5t87 -32.5h946
q29 0 57.5 21.5t37.5 47.5l309 987q4 16 5 29.5t-1 28.5q41 -14 61 -43q41 -53 19 -129l-283 -905q-18 -66 -77.5 -109t-127.5 -43h-946q-41 0 -79.5 14.5t-73.5 39t-61.5 58t-41.5 72.5q-25 68 -2 127zM500 961q-10 -39 26 -39h615q16 0 30.5 11t18.5 28l24 75
q4 16 -3 27.5t-23 11.5h-615q-16 0 -31.5 -11t-19.5 -28zM569 1190q-4 -16 3.5 -26.5t23.5 -10.5h614q16 0 30.5 10.5t21.5 26.5l22 78q4 16 -3 27.5t-24 11.5h-614q-16 0 -30.5 -11.5t-20.5 -27.5z" />
  </g>

</svg>
