<?xml version="1.0" standalone="no"?>
<!DOCTYPE svg PUBLIC "-//W3C//DTD SVG 1.1//EN" "http://www.w3.org/Graphics/SVG/1.1/DTD/svg11.dtd" >
<svg viewBox="0 -512 2048 2048">
  <g transform="matrix(1 0 0 -1 0 1536)">
   <path fill="currentColor"
d="M0 115v1075q0 47 34 82t81 35h366l58 125q18 43 66 73.5t95 30.5h443q47 0 95 -30.5t67 -73.5l57 -125h367q47 0 80.5 -35t33.5 -82v-1075q0 -47 -33.5 -81t-80.5 -34h-1614q-47 0 -81 34t-34 81zM442 653q0 -100 38 -187t102.5 -152.5t153 -103.5t186.5 -38t186 38
t152.5 103.5t102.5 152.5t38 187q0 98 -38 186.5t-102.5 153t-152.5 102.5t-186 38t-186.5 -38t-153 -102.5t-102.5 -152.5t-38 -187zM596 653q0 68 25.5 127.5t69.5 103.5t103.5 69.5t127.5 25.5t127 -25.5t103 -69.5t69.5 -103.5t25.5 -127.5t-25.5 -127t-69.5 -104
t-103.5 -70.5t-126.5 -25.5q-68 0 -127.5 25.5t-103.5 70.5t-69.5 104.5t-25.5 126.5z" />
  </g>

</svg>
