<?xml version="1.0" standalone="no"?>
<!DOCTYPE svg PUBLIC "-//W3C//DTD SVG 1.1//EN" "http://www.w3.org/Graphics/SVG/1.1/DTD/svg11.dtd" >
<svg viewBox="0 -512 2048 2048">
  <g transform="matrix(1 0 0 -1 0 1536)">
   <path fill="currentColor"
d="M0 0l2 80q10 4 29.5 8t48.5 8q92 18 108 33q16 10 50 68l233 614l277 725h73h53l11 -20l202 -482q33 -78 64 -151.5t59 -145.5q29 -72 52.5 -130t42.5 -103q12 -29 28.5 -70t36.5 -94q23 -66 64 -150q25 -49 34 -57q20 -18 68 -24q25 -2 49.5 -9.5t52.5 -17.5
q6 -37 7 -55v-10.5l-3 -16.5q-43 0 -90 2t-98 6q-53 4 -99 6t-87 2h-80l-53 -2l-199 -10l-57 -2q0 20 1 39.5t3 38.5l129 26q57 14 67 25q12 8 13 27q0 14 -7 30l-47 115l-90 227l-446 2q-12 -29 -37 -96t-66 -178q-23 -63 -22 -84q0 -27 16 -43q14 -10 40 -17.5t63 -13.5
q14 -4 84 -12v-59q0 -16 -2 -27q-35 0 -121 5t-224 16l-49 -9q-43 -8 -83 -11t-81 -3h-20zM549 655q135 -2 216 -4t105 0l29 2q-18 51 -40.5 111.5t-51.5 130.5t-51.5 122t-38.5 87z" />
  </g>

</svg>
