<?xml version="1.0" standalone="no"?>
<!DOCTYPE svg PUBLIC "-//W3C//DTD SVG 1.1//EN" "http://www.w3.org/Graphics/SVG/1.1/DTD/svg11.dtd" >
<svg viewBox="0 -512 2048 2048">
  <g transform="matrix(1 0 0 -1 0 1536)">
   <path fill="currentColor"
d="M0 0l2 94q27 6 68 12q39 6 69.5 13.5t55.5 17.5q8 14 13 26.5t7 24.5q6 33 8 81t2 112l-2 498q-2 39 -3 139t-5 266q-4 88 -12 109q-4 8 -13 10q-20 14 -69 16q-23 0 -115 13l-4 84l262 6l383 12h45q8 2 15.5 2h13.5l21.5 -1l39.5 -1h76q92 0 193 -27q18 -4 42.5 -13
t53.5 -26q63 -31 104 -75q45 -47 66 -105q10 -29 15 -58.5t5 -62.5q0 -72 -32 -129q-31 -57 -95 -104q-16 -12 -54 -30.5t-97 -47.5q178 -41 268 -145q92 -104 92 -236q0 -72 -28 -162q-23 -66 -72 -116q-66 -72 -141 -109q-78 -35 -205 -59q-70 -12 -199 -11l-199 5
q-63 2 -138 -2.5t-163 -10.5q-25 -2 -93 -4t-181 -6zM537 1419q0 -12 1 -31.5t3 -44.5q2 -51 4 -119.5t0 -158.5v-98v-78q25 -4 52.5 -6t57.5 -2q176 0 267 65q90 66 90 225q0 113 -86 187q-84 76 -258 76q-53 0 -131 -15zM545 457l4 -271q0 -16 10 -43q74 -33 141 -32
q131 0 220 41q82 39 122 112q18 37 28.5 82t10.5 100q0 113 -43 181q-59 94 -141 125q-80 33 -250 32q-37 0 -61.5 -3t-40.5 -7v-143v-174z" />
  </g>

</svg>
