<?xml version="1.0" standalone="no"?>
<!DOCTYPE svg PUBLIC "-//W3C//DTD SVG 1.1//EN" "http://www.w3.org/Graphics/SVG/1.1/DTD/svg11.dtd" >
<svg viewBox="0 -512 2048 2048">
  <g transform="matrix(1 0 0 -1 0 1536)">
   <path fill="currentColor"
d="M0 0l18 84q12 4 32 9t46 11q41 10 71 19.5t50 19.5q29 39 41 103l29 137l57 268l12 64q23 119 41.5 178t18.5 63l30 156l17 64l22 135l9 49v39q-45 23 -148 28q-14 0 -23.5 1.5t-17.5 1.5l21 104l325 -14q31 -2 49.5 -2h26.5q35 0 89 2t132 6q41 4 68.5 6t38.5 2
q-2 -10 -3 -19.5t-3 -19.5q-4 -10 -7.5 -22.5t-7.5 -28.5q-49 -16 -110 -31q-66 -16 -105 -31q-12 -33 -24 -88q-6 -25 -9.5 -45t-5.5 -37q-23 -100 -40 -175.5t-27 -129.5l-64 -311l-39 -158l-43 -235l-14 -45v-10.5l2 -16.5q35 -8 64.5 -13t58.5 -9q4 0 21.5 -2.5
l45.5 -6.5q-2 -18 -3 -32.5t-3 -26.5q-2 -6 -4 -16.5t-6 -22.5q-8 0 -14 -1t-10 -1q-18 -2 -28.5 -2h-14.5h-11.5l-17.5 4q-8 0 -45 4t-105 12l-202 2q-61 0 -181 -12q-39 -4 -63.5 -6t-36.5 -2z" />
  </g>

</svg>
