<?xml version="1.0" standalone="no"?>
<!DOCTYPE svg PUBLIC "-//W3C//DTD SVG 1.1//EN" "http://www.w3.org/Graphics/SVG/1.1/DTD/svg11.dtd" >
<svg viewBox="0 -512 2048 2048">
  <g transform="matrix(1 0 0 -1 0 1536)">
   <path fill="currentColor"
d="M0 1151q14 37 34.5 110.5t45.5 184.5q8 33 13 54.5t9 31.5h58q4 -6 6 -10t4 -9q29 -57 41 -71q16 -4 129 -4q35 0 66.5 1t60.5 1l20 2l113 2l213 -2h289l55 10q10 8 27 53q2 6 4 12.5t6 16.5l43 2h10.5l16.5 -2q2 -39 1 -97.5t1 -138.5v-100v-57q0 -14 -1 -27.5t-3 -23.5
q-20 -8 -37 -11.5t-31 -7.5q-27 51 -53 129q-29 82 -37 92q-12 14 -27 21q-10 4 -60 4h-138h-31l-35 -4q-6 -43 -6 -72l2 -151v-334l2 -359v-147q0 -72 10 -117q8 -4 21.5 -8t34.5 -8q4 0 21 -4t50 -13q27 -10 49 -18q4 -20 4 -33.5v-17.5v-11.5l-2 -17.5h-34q-47 0 -88 2
t-76 6t-95.5 6t-148.5 2q-16 0 -57 -4t-109 -10q-29 -2 -45 -3t-24 -1q0 10 -1.5 16.5t-1.5 10.5l-2 24v10q18 31 80 50q94 27 135 49q4 10 6.5 25.5t4.5 31.5q4 68 6 176.5t0 255.5l-4 428q-2 90 -2 142.5t-4 72.5q0 8 -7 15q-4 6 -12 6q-16 4 -63 4h-127q-90 0 -119 -21
q-41 -29 -121 -153q-23 -35 -35 -35q-23 12 -36 23.5t-19 19.5zM1383 1305.5q-5 13.5 14 33.5l184 185q14 12 33 12q14 0 31 -12l184 -185q18 -20 13 -33.5t-34 -13.5h-118v-1048h118q29 0 34 -13.5t-13 -31.5l-184 -187q-16 -12 -33 -12q-16 0 -31 12l-184 187
q-18 18 -13 31.5t31 13.5h121v1048h-121q-27 0 -32 13.5z" />
  </g>

</svg>
