<?xml version="1.0" standalone="no"?>
<!DOCTYPE svg PUBLIC "-//W3C//DTD SVG 1.1//EN" "http://www.w3.org/Graphics/SVG/1.1/DTD/svg11.dtd" >
<svg viewBox="0 -512 2048 2048">
  <g transform="matrix(1 0 0 -1 0 1536)">
   <path fill="currentColor"
d="M0 233q0 18 12 31l187 185q18 20 31.5 14t13.5 -33v-121h1048v121q0 27 13.5 33t33.5 -14l185 -185q12 -12 12 -31q0 -18 -12 -30l-185 -187q-20 -18 -33.5 -13t-13.5 34v119h-1048v-119q0 -29 -13.5 -34t-31.5 13l-187 187q-12 12 -12 30zM0 1233q14 29 33.5 87
t44.5 146q6 27 11 43.5t9 26.5h56q8 -12 10 -14q27 -47 37 -58q2 0 35.5 -1t77.5 -1h90.5h74.5h123l19 2h108h203h416l53 6q12 10 24 46l4.5 9l6.5 13h39h28v-188v-80v-45q0 -12 -1 -21.5t-3 -19.5q-33 -10 -63 -15q-25 37 -52 103q-27 59 -34 74q-12 10 -27 14q-6 2 -42 3
t-85 1h-103.5h-97.5h-28.5l-34.5 -2q-2 -18 -3 -32.5t-1 -24.5l4 -445l-2 -119q0 -61 12 -92q12 -6 53 -12q4 0 20.5 -4t45.5 -10q14 -4 26.5 -7.5t22.5 -7.5q2 -16 3 -25.5t1 -13.5t-1 -10t-1 -14h-33q-94 0 -157 6q-66 6 -236 6q-14 0 -53 -3t-105 -7q-27 -2 -43 -3
t-24 -1q0 16 -2 20v21v8q20 27 73 39q90 20 132 41q4 8 6 19t4 26q0 18 1 70.5t1 120t-1 142t-2 139t-2 107.5t-1 47q0 8 -6 13q-2 2 -13 6q-14 2 -59 2h-123q-20 0 -62 -1t-85 -2t-78 -4t-41 -7q-41 -25 -117 -123q-20 -29 -33 -29q-23 10 -35 19.5t-18 15.5z" />
  </g>

</svg>
