<?xml version="1.0" standalone="no"?>
<!DOCTYPE svg PUBLIC "-//W3C//DTD SVG 1.1//EN" "http://www.w3.org/Graphics/SVG/1.1/DTD/svg11.dtd" >
<svg viewBox="0 -512 2048 2048">
  <g transform="matrix(1 0 0 -1 0 1536)">
   <path fill="currentColor"
d="M0 78v115q0 31 22.5 53t55.5 22h1689q31 0 53.5 -22.5t22.5 -52.5v-115q0 -33 -22.5 -55.5t-53.5 -22.5h-1689q-33 0 -55.5 22.5t-22.5 55.5zM78 922v114q0 33 21.5 55.5t54.5 22.5h1536q33 0 55 -22.5t22 -55.5v-114q0 -33 -22.5 -54.5t-54.5 -21.5h-1536
q-33 0 -54.5 21.5t-21.5 54.5zM307 500v114q0 33 22.5 55.5t55.5 22.5h1075q31 0 53.5 -22.5t22.5 -55.5v-114q0 -33 -22.5 -55.5t-53.5 -22.5h-1075q-33 0 -55.5 22.5t-22.5 55.5zM385 1343v117q0 31 21.5 53.5t54.5 22.5h921q33 0 55.5 -22.5t22.5 -53.5v-117
q0 -31 -22.5 -53t-55.5 -22h-921q-33 0 -54.5 22.5t-21.5 52.5z" />
  </g>

</svg>
