<?xml version="1.0" standalone="no"?>
<!DOCTYPE svg PUBLIC "-//W3C//DTD SVG 1.1//EN" "http://www.w3.org/Graphics/SVG/1.1/DTD/svg11.dtd" >
<svg viewBox="0 -512 2048 2048">
  <g transform="matrix(1 0 0 -1 0 1536)">
   <path fill="currentColor"
d="M0 756v75q0 39 39 39h213v154q0 31 16.5 37t38.5 -17l215 -215q16 -16 17 -36q0 -18 -17 -35l-215 -215q-23 -23 -39 -17t-16 39v152h-213q-39 0 -39 39zM614 39v1458q0 39 39 39h76q39 0 39 -39v-1458q0 -39 -39 -39h-76q-39 0 -39 39zM922 78v115q0 31 22.5 53t54.5 22
h768q31 0 53.5 -22.5t22.5 -52.5v-115q0 -33 -22.5 -55.5t-53.5 -22.5h-768q-33 0 -55 22.5t-22 55.5zM922 500v114q0 33 22.5 55.5t54.5 22.5h615q31 0 53.5 -22.5t22.5 -55.5v-114q0 -33 -22.5 -55.5t-53.5 -22.5h-615q-33 0 -55 22.5t-22 55.5zM922 922v114
q0 33 22.5 55.5t54.5 22.5h691q33 0 55 -22.5t22 -55.5v-114q0 -33 -22.5 -54.5t-54.5 -21.5h-691q-33 0 -55 21.5t-22 54.5zM922 1343v117q0 31 22.5 53.5t54.5 22.5h537q33 0 55.5 -22.5t22.5 -53.5v-117q0 -31 -22.5 -53t-55.5 -22h-537q-33 0 -55 22.5t-22 52.5z" />
  </g>

</svg>
