<?xml version="1.0" standalone="no"?>
<!DOCTYPE svg PUBLIC "-//W3C//DTD SVG 1.1//EN" "http://www.w3.org/Graphics/SVG/1.1/DTD/svg11.dtd" >
<svg viewBox="0 -512 2048 2048">
  <g transform="matrix(1 0 0 -1 0 1536)">
   <path fill="currentColor"
d="M0 78v115q0 31 22.5 53t53.5 22h768q33 0 55.5 -22.5t22.5 -52.5v-115q0 -33 -22.5 -55.5t-55.5 -22.5h-768q-31 0 -53.5 22.5t-22.5 55.5zM0 500v114q0 33 22.5 55.5t53.5 22.5h614q33 0 55.5 -22.5t22.5 -55.5v-114q0 -33 -22.5 -55.5t-55.5 -22.5h-614
q-31 0 -53.5 22.5t-22.5 55.5zM0 922v114q0 33 22.5 55.5t53.5 22.5h692q31 0 53.5 -22.5t22.5 -55.5v-114q0 -33 -22.5 -54.5t-53.5 -21.5h-692q-31 0 -53.5 21.5t-22.5 54.5zM0 1343v117q0 31 22.5 53.5t53.5 22.5h538q31 0 53.5 -22.5t22.5 -53.5v-117q0 -31 -22.5 -53
t-53.5 -22h-538q-31 0 -53.5 22.5t-22.5 52.5zM1075 39v1458q0 39 39 39h76q16 0 27.5 -11.5t11.5 -27.5v-1458q0 -16 -11.5 -27.5t-27.5 -11.5h-76q-39 0 -39 39zM1305 743q0 16 14 35l217 215q23 23 38 17t15 -39v-152h215q16 0 27.5 -11t11.5 -28v-75q0 -16 -11 -27.5
t-28 -11.5h-215v-154q0 -31 -15 -38t-38 15l-217 218q-14 18 -14 36z" />
  </g>

</svg>
