<?xml version="1.0" standalone="no"?>
<!DOCTYPE svg PUBLIC "-//W3C//DTD SVG 1.1//EN" "http://www.w3.org/Graphics/SVG/1.1/DTD/svg11.dtd" >
<svg viewBox="0 -512 2048 2048">
  <g transform="matrix(1 0 0 -1 0 1536)">
   <path fill="currentColor"
d="M0 115v1306q0 47 34 81t81 34h1614q47 0 80.5 -34t33.5 -81v-1306q0 -47 -33.5 -81t-80.5 -34h-1614q-47 0 -81 34t-34 81zM154 154h1536v1228h-1536v-1228zM307 307v105l277 360l188 -156l354 537l410 -424v-422h-1229zM307 1073q0 66 45 111t111 45q63 0 108 -45
t45 -111q0 -63 -45 -108t-108 -45q-66 0 -111 45t-45 108z" />
  </g>

</svg>
