<?xml version="1.0" standalone="no"?>
<!DOCTYPE svg PUBLIC "-//W3C//DTD SVG 1.1//EN" "http://www.w3.org/Graphics/SVG/1.1/DTD/svg11.dtd" >
<svg viewBox="0 -512 2048 2048">
  <g transform="matrix(1 0 0 -1 0 1536)">
   <path fill="currentColor"
d="M0 1001q0 117 44 220.5t121 180.5t180.5 121t219.5 44q117 0 219.5 -44t179 -121t120.5 -180.5t44 -220.5q0 -84 -24.5 -159.5t-65.5 -143.5l-379 -661q-41 -68 -95 -68t-93 68l-381 663q-41 68 -65.5 143t-24.5 158zM285 1001q0 -57 21.5 -108t60.5 -89t89 -59.5
t109 -21.5q57 0 108.5 21.5t89.5 59.5t59.5 89t21.5 108t-21.5 108.5t-59.5 90.5t-89 60.5t-109 21.5q-59 0 -109 -21.5t-89 -60.5t-60.5 -90t-21.5 -109z" />
  </g>

</svg>
