<?xml version="1.0" standalone="no"?>
<!DOCTYPE svg PUBLIC "-//W3C//DTD SVG 1.1//EN" "http://www.w3.org/Graphics/SVG/1.1/DTD/svg11.dtd" >
<svg viewBox="0 -512 2048 2048">
  <g transform="matrix(1 0 0 -1 0 1536)">
   <path fill="currentColor"
d="M0 535q0 86 23.5 161.5t66.5 141.5q20 33 69.5 99.5t108 154.5t113.5 193.5t90 217.5q10 35 37 51.5t57 12.5q31 4 57.5 -12.5t36.5 -51.5q33 -113 89.5 -218t115 -193t107.5 -154.5t69 -99.5q43 -66 66.5 -141.5t23.5 -161.5q0 -117 -44 -220.5t-120.5 -180.5t-180 -121
t-220.5 -44t-220 44t-180 121t-121 180.5t-44 220.5zM248 410q0 -59 41 -100.5t100 -41.5t100 41t41 101q0 43 -22 75q-6 8 -18.5 24.5t-26.5 39t-28.5 48.5t-22.5 54q-4 20 -23 17q-18 4 -24 -17q-8 -29 -21.5 -54.5t-28 -48t-27 -38.5t-18.5 -25q-23 -33 -22 -75z" />
  </g>

</svg>
