<?xml version="1.0" standalone="no"?>
<!DOCTYPE svg PUBLIC "-//W3C//DTD SVG 1.1//EN" "http://www.w3.org/Graphics/SVG/1.1/DTD/svg11.dtd" >
<svg viewBox="0 -512 2048 2048">
  <g transform="matrix(1 0 0 -1 0 1536)">
   <path fill="currentColor"
d="M0 307v922q0 63 24.5 119.5t65.5 97.5t97.5 65.5t119.5 24.5h1075q4 0 10.5 -1t10.5 -1l-191 -191h-905q-47 0 -80.5 -33.5t-33.5 -80.5v-922q0 -47 33.5 -80.5t80.5 -33.5h1075q47 0 81 33.5t34 80.5v445l193 192v-637q0 -63 -25 -118.5t-67 -97.5t-97 -66.5t-119 -24.5
h-1075q-63 0 -119.5 24.5t-97.5 66.5t-65.5 97.5t-24.5 118.5zM631 324l108 329l652 652l221 -222l-651 -651zM866 629q6 -8 17 -8q10 0 16 8l512 510q18 18 0 35q-18 16 -35 0l-510 -510q-18 -18 0 -35zM1501 1415l92 94q29 29 68 29t65 -29l46 -45l45 -45
q27 -29 27.5 -66.5t-27.5 -66.5l-95 -92z" />
  </g>

</svg>
