<?xml version="1.0" standalone="no"?>
<!DOCTYPE svg PUBLIC "-//W3C//DTD SVG 1.1//EN" "http://www.w3.org/Graphics/SVG/1.1/DTD/svg11.dtd" >
<svg viewBox="0 -512 2048 2048">
  <g transform="matrix(1 0 0 -1 0 1536)">
   <path fill="currentColor"
d="M0 307v922q0 63 24.5 119.5t65.5 97.5t97.5 65.5t119.5 24.5h836q-6 -31 -6 -63v-52q-164 -20 -310 -78h-520q-47 0 -80.5 -33.5t-33.5 -80.5v-922q0 -47 33.5 -80.5t80.5 -33.5h1075q47 0 81 33.5t34 80.5v111q16 10 31.5 21.5t32.5 27.5l129 127v-287q0 -63 -25 -118.5
t-67 -97.5t-97 -66.5t-119 -24.5h-1075q-63 0 -119.5 24.5t-97.5 66.5t-65.5 97.5t-24.5 118.5zM385 388.5v37.5q0 166 56.5 312.5t173 256t293.5 173t419 65.5v231q0 57 28.5 69.5t69.5 -28.5l392 -391q27 -25 26 -65q0 -39 -26 -64l-392 -391q-41 -41 -69.5 -28.5
t-28.5 69.5v260q-207 0 -364.5 -43t-266 -116.5t-170 -174t-77.5 -215.5q-4 -27 -31 -27q-25 0 -29 27q-4 23 -4 42.5z" />
  </g>

</svg>
