<?xml version="1.0" standalone="no"?>
<!DOCTYPE svg PUBLIC "-//W3C//DTD SVG 1.1//EN" "http://www.w3.org/Graphics/SVG/1.1/DTD/svg11.dtd" >
<svg viewBox="0 -512 2048 2048">
  <g transform="matrix(1 0 0 -1 0 1536)">
   <path fill="currentColor"
d="M0 307v922q0 63 24.5 119.5t65.5 97.5t97.5 65.5t119.5 24.5h1075q27 0 52 -6l-187 -187h-940q-47 0 -80.5 -33.5t-33.5 -80.5v-922q0 -47 33.5 -80.5t80.5 -33.5h1075q47 0 81 33.5t34 80.5v326l193 192v-518q0 -63 -25 -118.5t-67 -97.5t-97 -66.5t-119 -24.5h-1075
q-63 0 -119.5 24.5t-97.5 66.5t-65.5 97.5t-24.5 118.5zM385 966.5q0 32.5 23 55.5l98 98q23 23 55.5 23t54.5 -23l340 -340l654 656q23 23 56.5 22.5t55.5 -22.5l99 -99q23 -23 22.5 -55.5t-22.5 -54.5l-711 -711l-98 -98q-23 -23 -55.5 -23t-55.5 23l-100 98l-393 395
q-23 23 -23 55.5z" />
  </g>

</svg>
