<?xml version="1.0" standalone="no"?>
<!DOCTYPE svg PUBLIC "-//W3C//DTD SVG 1.1//EN" "http://www.w3.org/Graphics/SVG/1.1/DTD/svg11.dtd" >
<svg viewBox="0 -512 2048 2048">
  <g transform="matrix(1 0 0 -1 0 1536)">
   <path fill="currentColor"
d="M0 768q0 25 18 43l256 256q27 27 45.5 19.5t18.5 -46.5v-170h360v359h-172q-37 0 -45 18.5t19 44.5l256 256q18 18 43 19q25 0 43 -19l256 -256q27 -27 19.5 -45t-46.5 -18h-172v-359h361v170q0 39 18 46.5t45 -19.5l256 -256q18 -18 18 -43t-18 -43l-256 -256
q-27 -27 -45 -19.5t-18 46.5v176h-361v-365h172q39 0 47 -18.5t-20 -44.5l-256 -256q-18 -18 -43 -19q-25 0 -43 19l-256 256q-27 27 -20 45t46 18h172v365h-360v-176q0 -39 -18.5 -46.5t-45.5 19.5l-256 256q-18 18 -18 43z" />
  </g>

</svg>
