<?xml version="1.0" standalone="no"?>
<!DOCTYPE svg PUBLIC "-//W3C//DTD SVG 1.1//EN" "http://www.w3.org/Graphics/SVG/1.1/DTD/svg11.dtd" >
<svg viewBox="0 -512 2048 2048">
  <g transform="matrix(1 0 0 -1 0 1536)">
   <path fill="currentColor"
d="M0 70v1396q0 29 20.5 49.5t49.5 20.5h489q29 0 49.5 -20.5t20.5 -49.5v-1396q0 -29 -20.5 -49.5t-49.5 -20.5h-489q-29 0 -49.5 20.5t-20.5 49.5zM907 70v1396q0 29 20.5 49.5t49.5 20.5h489q29 0 49.5 -20.5t20.5 -49.5v-1396q0 -29 -20.5 -49.5t-49.5 -20.5h-489
q-29 0 -49.5 20.5t-20.5 49.5z" />
  </g>

</svg>
