<?xml version="1.0" standalone="no"?>
<!DOCTYPE svg PUBLIC "-//W3C//DTD SVG 1.1//EN" "http://www.w3.org/Graphics/SVG/1.1/DTD/svg11.dtd" >
<svg viewBox="0 -512 2048 2048">
  <g transform="matrix(1 0 0 -1 0 1536)">
   <path fill="currentColor"
d="M0 61v1414q0 39 35 57q39 14 63 -14l654 -705q16 -18 16 -45t-16 -45l-654 -705q-16 -18 -41 -18q-6 0 -22 4q-35 16 -35 57zM768 61v1414q0 39 35 57q39 14 63 -14l654 -705q16 -18 16 -45t-16 -45l-654 -705q-16 -18 -41 -18q-6 0 -22 4q-35 16 -35 57z" />
  </g>

</svg>
