<?xml version="1.0" standalone="no"?>
<!DOCTYPE svg PUBLIC "-//W3C//DTD SVG 1.1//EN" "http://www.w3.org/Graphics/SVG/1.1/DTD/svg11.dtd" >
<svg viewBox="0 -512 2048 2048">
  <g transform="matrix(1 0 0 -1 0 1536)">
   <path fill="currentColor"
d="M0 61v1414q0 39 35 57q39 14 63 -14l654 -705q16 -18 16 -45t-16 -45l-654 -705q-16 -18 -41 -18q-6 0 -22 4q-35 16 -35 57zM768 76q0 -31 22.5 -53.5t53.5 -22.5h153q33 0 55.5 22.5t22.5 53.5v1382q0 33 -22.5 55.5t-55.5 22.5h-153q-31 0 -53.5 -22.5t-22.5 -55.5
v-1382z" />
  </g>

</svg>
