<?xml version="1.0" standalone="no"?>
<!DOCTYPE svg PUBLIC "-//W3C//DTD SVG 1.1//EN" "http://www.w3.org/Graphics/SVG/1.1/DTD/svg11.dtd" >
<svg viewBox="-1 -512 2048 2048">
  <g transform="matrix(1 0 0 -1 0 1536)">
   <path fill="currentColor"
d="M0 70v198q0 29 20.5 49.5t49.5 20.5h1396q29 0 49.5 -20.5t20.5 -49.5v-198q0 -29 -20.5 -49.5t-49.5 -20.5h-1396q-29 0 -49.5 20.5t-20.5 49.5zM6 594q-18 43 14 76l699 698q20 20 49 20.5t49 -20.5l699 -698q33 -33 14 -76q-16 -43 -64 -43h-1396q-47 0 -64 43z" />
  </g>

</svg>
