<?xml version="1.0" standalone="no"?>
<!DOCTYPE svg PUBLIC "-//W3C//DTD SVG 1.1//EN" "http://www.w3.org/Graphics/SVG/1.1/DTD/svg11.dtd" >
<svg viewBox="0 -512 2048 2048">
  <g transform="matrix(1 0 0 -1 0 1536)">
   <path fill="currentColor"
d="M0 768q0 166 62.5 311.5t171 254t254 171t311.5 62.5t311 -62.5t254 -171t171 -254t62 -311.5t-62 -311.5t-171 -254t-254 -171t-311 -62.5t-311.5 62.5t-254 171t-171 254t-62.5 311.5zM338 688q0 -33 33 -33h313v-344q0 -33 33 -32h164q33 0 32 32v344h314
q12 0 22.5 9.5t10.5 23.5v158q0 14 -10.5 23.5t-22.5 9.5h-314v346q0 33 -32 32h-164q-33 0 -33 -32v-346h-313q-33 0 -33 -33v-158z" />
  </g>

</svg>
