<?xml version="1.0" standalone="no"?>
<!DOCTYPE svg PUBLIC "-//W3C//DTD SVG 1.1//EN" "http://www.w3.org/Graphics/SVG/1.1/DTD/svg11.dtd" >
<svg viewBox="0 -512 2048 2048">
  <g transform="matrix(1 0 0 -1 0 1536)">
   <path fill="currentColor"
d="M0 770q0 154 58.5 301.5t174.5 263.5q117 117 264.5 175.5t301 58.5t301 -58.5t264.5 -175.5t175 -264t58 -301t-58 -301t-175 -264t-264.5 -175.5t-301 -58.5t-301 58.5t-264.5 175.5t-175 264t-58 301zM385 505q0 -13 10 -24l115 -116q10 -10 23.5 -10.5t23.5 10.5
l244 243l219 -221q10 -10 23.5 -10t23.5 10l113 113q23 23 0 47l-222 219l246 246q23 23 0 47l-117 115q-25 25 -47 0l-243 -244l-222 221q-10 10 -23 10t-24 -10l-110 -113q-25 -23 0 -47l219 -219l-242 -244q-10 -10 -10 -23z" />
  </g>

</svg>
