<?xml version="1.0" standalone="no"?>
<!DOCTYPE svg PUBLIC "-//W3C//DTD SVG 1.1//EN" "http://www.w3.org/Graphics/SVG/1.1/DTD/svg11.dtd" >
<svg viewBox="0 -512 2048 2048">
  <g transform="matrix(1 0 0 -1 0 1536)">
   <path fill="currentColor"
d="M0 768q0 166 62.5 311.5t171 254t254 171t311.5 62.5t311 -62.5t254 -171t171 -254t62 -311.5t-62 -311.5t-171 -254t-254 -171t-311 -62.5t-311.5 62.5t-254 171t-171 254t-62.5 311.5zM240 718q0 -20 14 -34l319 -319q14 -14 38 -24.5t44 -10.5h56q20 0 43.5 10
t38.5 25l550 550q14 14 14.5 34t-14.5 34l-104 107q-16 14 -35.5 14t-34.5 -14l-452 -453q-14 -14 -33.5 -14t-34.5 14l-221 221q-14 14 -33.5 14t-36.5 -14l-104 -106q-14 -14 -14 -34z" />
  </g>

</svg>
