<?xml version="1.0" standalone="no"?>
<!DOCTYPE svg PUBLIC "-//W3C//DTD SVG 1.1//EN" "http://www.w3.org/Graphics/SVG/1.1/DTD/svg11.dtd" >
<svg viewBox="0 -512 2048 2048">
  <g transform="matrix(1 0 0 -1 0 1536)">
   <path fill="currentColor"
d="M0 768q0 166 62.5 311.5t171 254t254 171t311.5 62.5t311 -62.5t254 -171t171 -254t62 -311.5t-62 -311.5t-171 -254t-254 -171t-311 -62.5t-311.5 62.5t-254 171t-171 254t-62.5 311.5zM532 1100l95 -115q4 -8 20 -12q12 0 23 6l10 8l27.5 17.5l39 16.5l46.5 7
q41 0 69.5 -22.5t28.5 -57.5q0 -37 -24.5 -64.5t-61.5 -60.5q-23 -18 -46.5 -40.5t-43 -51.5t-31.5 -63.5t-12 -79.5v-64q0 -12 9 -21t21 -9h164q12 0 20.5 9t8.5 21v51q0 39 25.5 66.5t62.5 60.5q25 20 49.5 46t46 57t34.5 69.5t13 90.5q0 68 -27.5 121t-73.5 87.5
t-103.5 53t-114.5 18.5q-63 0 -113.5 -16.5t-85.5 -35.5t-53 -35.5t-20 -18.5q-16 -16 -3 -39zM672 252q0 -12 9 -21.5t21 -9.5h164q12 0 20.5 9.5t8.5 21.5v156q0 12 -8 21t-21 9h-164q-12 0 -21 -9t-9 -21v-156z" />
  </g>

</svg>
