<?xml version="1.0" standalone="no"?>
<!DOCTYPE svg PUBLIC "-//W3C//DTD SVG 1.1//EN" "http://www.w3.org/Graphics/SVG/1.1/DTD/svg11.dtd" >
<svg viewBox="0 -512 2048 2048">
  <g transform="matrix(1 0 0 -1 0 1536)">
   <path fill="currentColor"
d="M0 768q0 166 62.5 311.5t171 254t254 171t311.5 62.5t311 -62.5t254 -171t171 -254t62 -311.5t-62 -311.5t-171 -254t-254 -171t-311 -62.5t-311.5 62.5t-254 171t-171 254t-62.5 311.5zM573 858q0 -29 29 -29h86v-409h-78q-12 0 -21 -8.5t-9 -20.5v-139q0 -12 9 -21.5
t21 -9.5h402q12 0 20 9.5t8 21.5v139q0 29 -28 29h-78v577q0 12 -8 21.5t-21 9.5h-303q-12 0 -20.5 -9t-8.5 -22v-139zM686 1151q0 -12 9.5 -21.5t21.5 -9.5h188q12 0 20.5 9.5t8.5 21.5v166q0 29 -29 29h-188q-12 0 -21.5 -8.5t-9.5 -20.5v-166z" />
  </g>

</svg>
