<?xml version="1.0" standalone="no"?>
<!DOCTYPE svg PUBLIC "-//W3C//DTD SVG 1.1//EN" "http://www.w3.org/Graphics/SVG/1.1/DTD/svg11.dtd" >
<svg viewBox="0 -512 2048 2048">
  <g transform="matrix(1 0 0 -1 0 1536)">
   <path fill="currentColor"
d="M0 692v154q0 16 11.5 26.5t27.5 10.5h164q18 84 59 158.5t99.5 133t133 99.5t158.5 59v164q0 39 39 39h154q16 0 26.5 -11.5t10.5 -27.5v-164q84 -18 158.5 -59t133 -99.5t99.5 -133t59 -158.5h164q16 0 27.5 -10.5t11.5 -26.5v-154q0 -39 -39 -39h-164
q-18 -84 -59 -158.5t-99.5 -133t-133 -99.5t-158.5 -59v-164q0 -16 -10.5 -27.5t-26.5 -11.5h-154q-39 0 -39 39v164q-84 18 -158.5 59t-133 99.5t-99.5 133t-59 158.5h-164q-39 0 -39 39zM365 653q29 -106 105.5 -183t182.5 -105v174q0 16 11.5 26t27.5 10h154
q16 0 26.5 -10t10.5 -26v-174q106 29 183 105.5t105 182.5h-172q-39 0 -38 39v154q0 16 11 26.5t27 10.5h172q-29 106 -105.5 183t-182.5 105v-172q0 -16 -10.5 -27t-26.5 -11h-154q-39 0 -39 38v172q-106 -29 -183 -105.5t-105 -182.5h174q16 0 26 -10.5t10 -26.5v-154
q0 -16 -10 -27.5t-26 -11.5h-174z" />
  </g>

</svg>
