<?xml version="1.0" standalone="no"?>
<!DOCTYPE svg PUBLIC "-//W3C//DTD SVG 1.1//EN" "http://www.w3.org/Graphics/SVG/1.1/DTD/svg11.dtd" >
<svg viewBox="0 -512 2048 2048">
  <g transform="matrix(1 0 0 -1 0 1536)">
   <path fill="currentColor"
d="M0 768q0 166 62.5 311.5t171 254t254 171t311.5 62.5t311 -62.5t254 -171t171 -254t62 -311.5t-62 -311.5t-171 -254t-254 -171t-311 -62.5t-311.5 62.5t-254 171t-171 254t-62.5 311.5zM240 768q0 -117 44 -218t119.5 -177t177 -120t218.5 -44t218 44t177 120t120 177
t44 218t-44 218t-120 177t-177.5 120t-217.5 44q-117 0 -218.5 -44t-177 -120t-119.5 -177t-44 -218zM451 573.5q0 16.5 12 28.5l166 166l-166 166q-12 12 -12 28.5t12 28.5l112 113q29 29 58 0l166 -166l166 166q29 29 57 0l113 -113q29 -29 0 -57l-166 -166l166 -166
q29 -29 0 -57l-113 -113q-12 -12 -28.5 -12t-28.5 12l-166 166l-166 -166q-12 -12 -28.5 -12t-29.5 12l-112 113q-12 12 -12 28.5z" />
  </g>

</svg>
