<?xml version="1.0" standalone="no"?>
<!DOCTYPE svg PUBLIC "-//W3C//DTD SVG 1.1//EN" "http://www.w3.org/Graphics/SVG/1.1/DTD/svg11.dtd" >
<svg viewBox="0 -512 2048 2048">
  <g transform="matrix(1 0 0 -1 0 1536)">
   <path fill="currentColor"
d="M0 768q0 166 62.5 311.5t171 254t254 171t311.5 62.5t311 -62.5t254 -171t171 -254t62 -311.5t-62 -311.5t-171 -254t-254 -171t-311 -62.5t-311.5 62.5t-254 171t-171 254t-62.5 311.5zM240 768q0 -84 23.5 -160t66.5 -141l770 770q-66 43 -141.5 66.5t-159.5 23.5
q-117 0 -218.5 -44t-177 -120t-119.5 -177t-44 -218zM498 297q66 -41 141.5 -64.5t159.5 -23.5q117 0 218 44t177 120t120 177t44 218q0 84 -23.5 160t-64.5 141z" />
  </g>

</svg>
