<?xml version="1.0" standalone="no"?>
<!DOCTYPE svg PUBLIC "-//W3C//DTD SVG 1.1//EN" "http://www.w3.org/Graphics/SVG/1.1/DTD/svg11.dtd" >
<svg viewBox="0 -512 2048 2048">
  <g transform="matrix(1 0 0 -1 0 1536)">
   <path fill="currentColor"
d="M0 86v522q0 53 26.5 64.5t65.5 -25.5l166 -166l274 275q12 12 31 12t33 -12l160 -160q12 -14 12 -32.5t-12 -31.5l-275 -274l166 -166q39 -39 27 -65.5t-66 -26.5h-520q-37 0 -61 25q-27 27 -27 61zM768 972.5q0 18.5 12 31.5l275 274l-166 166q-39 39 -27 65.5t66 26.5
h520q37 0 61 -25q27 -27 27 -61v-522q0 -53 -26.5 -64.5t-65.5 25.5l-166 166l-274 -273q-12 -14 -31 -14t-33 14l-160 158q-12 14 -12 32.5z" />
  </g>

</svg>
