<?xml version="1.0" standalone="no"?>
<!DOCTYPE svg PUBLIC "-//W3C//DTD SVG 1.1//EN" "http://www.w3.org/Graphics/SVG/1.1/DTD/svg11.dtd" >
<svg viewBox="0 -512 2048 2048">
  <g transform="matrix(1 0 0 -1 0 1536)">
   <path fill="currentColor"
d="M0 202.5q0 18.5 12 33.5l275 272l-166 166q-39 39 -27 65.5t66 26.5h520q38 0 61 -25q27 -27 27 -61v-522q0 -53 -26.5 -64.5t-65.5 27.5l-166 166l-274 -275q-12 -14 -31 -14t-33 14l-160 160q-12 12 -12 30.5zM768 854v522q0 53 26.5 64.5t65.5 -27.5l166 -166l274 275
q12 14 31 14t33 -14l160 -160q12 -12 12 -30.5t-12 -33.5l-275 -272l166 -166q39 -39 27 -65.5t-66 -26.5h-520q-41 0 -61 25q-27 27 -27 61z" />
  </g>

</svg>
