<?xml version="1.0" standalone="no"?>
<!DOCTYPE svg PUBLIC "-//W3C//DTD SVG 1.1//EN" "http://www.w3.org/Graphics/SVG/1.1/DTD/svg11.dtd" >
<svg viewBox="0 -512 2048 2048">
  <g transform="matrix(1 0 0 -1 0 1536)">
   <path fill="currentColor"
d="M0 696v144q0 39 27.5 66.5t66.5 27.5h508v506q0 41 26.5 68.5t67.5 27.5h144q39 0 66.5 -27.5t27.5 -66.5v-508h508q39 0 66.5 -27.5t27.5 -66.5v-144q0 -39 -27.5 -66.5t-66.5 -27.5h-508v-506q0 -41 -27.5 -68.5t-66.5 -27.5h-144q-39 0 -66.5 27.5t-27.5 66.5v508
h-506q-41 0 -68.5 26.5t-27.5 67.5z" />
  </g>

</svg>
