<?xml version="1.0" standalone="no"?>
<!DOCTYPE svg PUBLIC "-//W3C//DTD SVG 1.1//EN" "http://www.w3.org/Graphics/SVG/1.1/DTD/svg11.dtd" >
<svg viewBox="-2 -512 2048 2048">
  <g transform="matrix(1 0 0 -1 0 1536)">
   <path fill="currentColor"
d="M2 1018q-10 37 10 72l72 124q20 35 58 44.5t73 -9.5l332 -192v383q0 41 27.5 68.5t68.5 27.5h141q41 0 69 -27.5t28 -66.5v-385l331 192q35 18 73 9t58 -44l70 -124q20 -35 11 -72t-44 -57l-333 -193l333 -193q35 -20 44.5 -57t-9.5 -72l-72 -124q-20 -35 -58 -44.5
t-73 9.5l-331 192v-383q0 -41 -28 -68.5t-69 -27.5h-141q-41 0 -68.5 27.5t-27.5 66.5v385l-332 -192q-35 -20 -73 -10t-58 45l-72 124q-18 35 -9 72t44 57l334 193l-334 193q-35 20 -45 57z" />
  </g>

</svg>
