<?xml version="1.0" standalone="no"?>
<!DOCTYPE svg PUBLIC "-//W3C//DTD SVG 1.1//EN" "http://www.w3.org/Graphics/SVG/1.1/DTD/svg11.dtd" >
<svg viewBox="0 -512 2048 2048">
  <g transform="matrix(1 0 0 -1 0 1536)">
   <path fill="currentColor"
d="M0 768q0 166 62.5 311.5t171 254t254 171t311.5 62.5t311 -62.5t254 -171t171 -254t62 -311.5t-62 -311.5t-171 -254t-254 -171t-311 -62.5t-311.5 62.5t-254 171t-171 254t-62.5 311.5zM672 1274l14 -739q4 -29 31 -29h162q12 0 21 8t9 21l17 739q0 10 -8 22q-8 8 -23 9
h-193q-14 0 -22 -9q-8 -12 -8 -22zM680 236q0 -12 8 -21.5t21 -9.5h180q12 0 21.5 9t9.5 22v174q0 12 -9.5 21t-21.5 9h-180q-12 0 -20.5 -9t-8.5 -21v-174z" />
  </g>

</svg>
