<?xml version="1.0" standalone="no"?>
<!DOCTYPE svg PUBLIC "-//W3C//DTD SVG 1.1//EN" "http://www.w3.org/Graphics/SVG/1.1/DTD/svg11.dtd" >
<svg viewBox="0 -512 2048 2048">
  <g transform="matrix(1 0 0 -1 0 1536)">
   <path fill="currentColor"
d="M0 588v391q0 16 11.5 27.5t27.5 11.5h539q-57 0 -107.5 21.5t-87.5 58.5t-58.5 87t-21.5 107t21.5 107.5t58.5 87.5t87 58.5t108 21.5q61 0 115.5 -24.5t88.5 -69.5l158 -203l158 203q35 45 89 69.5t116 24.5q57 0 107 -21.5t87 -58.5t58.5 -87t21.5 -108
q0 -57 -21.5 -107t-58.5 -87t-87 -58.5t-107 -21.5h538q16 0 27.5 -11.5t11.5 -27.5v-391q0 -16 -11 -27.5t-28 -11.5h-117v-432q0 -47 -34.5 -82t-83.5 -35h-1332q-49 0 -82.5 35t-33.5 82v432h-119q-16 0 -27.5 11t-11.5 28zM461 1292q0 -49 33.5 -82.5t83.5 -33.5h237
l-151 196q-10 10 -32 24.5t-54 14.5q-49 0 -83 -35t-34 -84zM743 221q0 -33 24 -56.5t56 -23.5h234q33 0 56.5 23.5t23.5 56.5v797h-394v-797zM1065 1176h238q49 0 82.5 33.5t33.5 82.5t-33.5 84t-82.5 35q-33 0 -54.5 -14.5t-31.5 -24.5z" />
  </g>

</svg>
