<?xml version="1.0" standalone="no"?>
<!DOCTYPE svg PUBLIC "-//W3C//DTD SVG 1.1//EN" "http://www.w3.org/Graphics/SVG/1.1/DTD/svg11.dtd" >
<svg viewBox="-1 -512 2048 2048">
  <g transform="matrix(1 0 0 -1 0 1536)">
   <path fill="currentColor"
d="M6 135q20 53 56 89t71 65q29 23 50.5 43t27.5 43q2 6 0 12t-10 25q-6 12 -11.5 27.5t-9.5 35.5q-25 160 13 295t120 242.5t195 185.5t235 121q82 29 179.5 34t203.5 7q61 0 127 2t127.5 11t113.5 28.5t85 54.5q20 20 38.5 41t38 36t43 24.5t58.5 9.5q23 0 42.5 -11.5
t29.5 -31.5q66 -133 83 -281.5t-18 -322.5q-90 -487 -579 -740q-231 -123 -467 -123q-154 0 -307 54q-23 8 -45.5 20t-44.5 25q-29 16 -57.5 30.5t-49.5 14.5q-10 -2 -23.5 -17.5t-27.5 -35t-26.5 -41t-20.5 -33.5q-14 -23 -26.5 -41.5t-22.5 -32.5q-25 -31 -64 -31h-4
q-29 2 -49.5 12.5t-33.5 24.5t-20.5 28.5t-9.5 22.5q-27 37 -10 78zM401 507.5q2 -32.5 29 -54.5q20 -18 51 -19q37 0 62 27q90 102 181 175t191.5 117t212 62t242.5 14q33 -4 57.5 19.5t26.5 56.5q2 35 -20.5 58.5t-57.5 25.5q-147 6 -277 -16.5t-247 -73.5t-223.5 -133
t-206.5 -199q-23 -27 -21 -59.5z" />
  </g>

</svg>
