<?xml version="1.0" standalone="no"?>
<!DOCTYPE svg PUBLIC "-//W3C//DTD SVG 1.1//EN" "http://www.w3.org/Graphics/SVG/1.1/DTD/svg11.dtd" >
<svg viewBox="0 -512 2048 2048">
  <g transform="matrix(1 0 0 -1 0 1536)">
   <path fill="currentColor"
d="M0 442q0 123 63.5 254t174.5 238q10 16 33.5 13t31.5 -21q4 -16 0 -29q-8 -35 -14 -84t-4 -101.5t13 -101.5t38 -84q31 -37 78 -49q-49 154 -40 293t49 259t101.5 217t118.5 167t98 106.5t43 39.5q25 18 47 0q10 -8 13.5 -21.5t-0.5 -24.5q0 -2 -15.5 -42.5t-21.5 -102
t7 -134.5t71 -136q37 -43 67.5 -85t52 -93.5t34 -120t12.5 -162.5q0 -33 -31 -39q-12 -2 -24.5 4t-16.5 19q-14 31 -42 49t-63 18q-47 0 -79.5 -33.5t-32.5 -81.5q0 -121 156 -120q98 0 153 63q37 43 53.5 101.5t20.5 114.5t2 102.5t-4 62.5q-6 12 0 29q8 18 31.5 21
t35.5 -13q111 -106 173.5 -237.5t62.5 -254.5q0 -109 -51.5 -195.5t-145.5 -148t-228 -95.5t-298 -34t-298 34t-228.5 95.5t-145.5 148.5t-51 195z" />
  </g>

</svg>
