<?xml version="1.0" standalone="no"?>
<!DOCTYPE svg PUBLIC "-//W3C//DTD SVG 1.1//EN" "http://www.w3.org/Graphics/SVG/1.1/DTD/svg11.dtd" >
<svg viewBox="0 -512 2048 2048">
  <g transform="matrix(1 0 0 -1 0 1536)">
   <path fill="currentColor"
d="M0 722q0 44 25 83q78 125 178 224t216 168t242.5 104.5t260.5 35.5q135 0 262 -35.5t241.5 -103.5t215 -167t180.5 -226q23 -39 22.5 -83t-22.5 -81q-80 -127 -180.5 -226.5t-215 -167t-241.5 -103t-262 -35.5q-133 0 -260 35.5t-243 104t-216.5 168t-177.5 224.5
q-25 37 -25 81zM154 723q66 -104 149.5 -190.5t182 -145.5t208 -92t228.5 -33t228.5 33t207.5 92t182 145t150 191q-80 129 -187.5 226.5t-236.5 156.5q51 -59 79.5 -133t28.5 -160q0 -96 -35.5 -179t-99 -146.5t-147.5 -99.5t-179 -36q-96 0 -179 36t-146.5 99.5t-99 146.5
t-35.5 179q0 78 25.5 148.5t68.5 128.5q-117 -59 -217.5 -152.5t-175.5 -214.5zM614 813q0 -23 16.5 -40t41.5 -17t41 17.5t16 39.5q0 78 53.5 131t130.5 53q25 0 41.5 17.5t16.5 40.5q0 25 -16.5 41t-41.5 16q-61 0 -116.5 -23.5t-95 -63.5t-63.5 -95.5t-24 -116.5z" />
  </g>

</svg>
