<?xml version="1.0" standalone="no"?>
<!DOCTYPE svg PUBLIC "-//W3C//DTD SVG 1.1//EN" "http://www.w3.org/Graphics/SVG/1.1/DTD/svg11.dtd" >
<svg viewBox="0 -512 2048 2048">
  <g transform="matrix(1 0 0 -1 0 1536)">
   <path fill="currentColor"
d="M0 767q0 44 25 83q78 125 178 224.5t216 168t242.5 104t260.5 35.5q53 0 105 -7t103 -17l89 158q8 14 24 18q12 6 29 -2l133 -76q14 -8 19.5 -23.5t-3.5 -29.5l-774 -1383q-6 -14 -22 -18q-4 -2 -11 -2q-6 0 -18 4l-135 76q-14 8 -18.5 23.5t3.5 29.5l66 115
q-145 68 -269 178.5t-218 259.5q-25 37 -25 81zM154 768q82 -131 191.5 -229.5t240.5 -157.5l57 104q-86 63 -138 159.5t-52 213.5q0 78 25.5 148.5t68.5 130.5q-117 -61 -217.5 -153.5t-175.5 -215.5zM614 858q0 -23 16.5 -40t41.5 -17t41 17.5t16 39.5q0 78 53.5 131
t130.5 53q25 0 41.5 17.5t16.5 40.5q0 25 -16.5 41t-41.5 16q-61 0 -116.5 -23.5t-95 -63.5t-63.5 -95.5t-24 -116.5zM928 154l88 159q209 25 382 145t292 310q-109 170 -263 283l76 137q92 -66 172 -150t146 -188q23 -39 22.5 -83t-22.5 -81q-160 -254 -392.5 -392
t-500.5 -140zM1081 430l285 510q4 -20 6 -39.5t2 -42.5q0 -74 -21.5 -140.5t-60.5 -121.5t-93 -98t-118 -68z" />
  </g>

</svg>
