<?xml version="1.0" standalone="no"?>
<!DOCTYPE svg PUBLIC "-//W3C//DTD SVG 1.1//EN" "http://www.w3.org/Graphics/SVG/1.1/DTD/svg11.dtd" >
<svg viewBox="0 -512 2048 2048">
  <g transform="matrix(1 0 0 -1 0 1536)">
   <path fill="currentColor"
d="M0 92q0 20 6 39t17 35l768 1331q16 27 39.5 48.5t56.5 21.5t56.5 -21.5t39.5 -48.5l770 -1331q10 -16 16.5 -34.5t6.5 -39.5q0 -49 -38 -70.5t-81 -21.5h-1538q-43 0 -81 21.5t-38 70.5zM770 1114l12 -633q0 -14 10.5 -24.5t24.5 -10.5h139q14 0 24.5 10.5t10.5 24.5
l15 633q0 14 -10.5 24.5t-24.5 10.5h-166q-16 0 -25.5 -10.5t-9.5 -24.5zM776 168q0 -16 10.5 -25.5t24.5 -9.5h154q35 0 34 35v147q0 16 -9 26.5t-25 10.5h-154q-14 0 -24.5 -10t-10.5 -27v-147z" />
  </g>

</svg>
