<?xml version="1.0" standalone="no"?>
<!DOCTYPE svg PUBLIC "-//W3C//DTD SVG 1.1//EN" "http://www.w3.org/Graphics/SVG/1.1/DTD/svg11.dtd" >
<svg viewBox="0 -512 2048 2048">
  <g transform="matrix(1 0 0 -1 0 1536)">
   <path fill="currentColor"
d="M0 541v4q0 31 23 57l30 29q20 25 56 24q8 0 10 -2l280 -32q39 63 93.5 134.5t125.5 151.5l-583 457q-31 25 -31 59v4q0 31 23 58l57 57q27 23 57 23h13.5l13.5 -4l803 -293l151 149q70 70 161 110t167 40q72 0 109 -37q20 -18 28 -46t8 -63q0 -76 -38.5 -167t-110.5 -160
l-150 -152l293 -803q6 -12 6 -26q0 -33 -24 -58l-58 -57q-23 -25 -57 -25h-4q-35 4 -59 31l-455 586q-82 -72 -153.5 -126t-135.5 -93l35 -281v-10q0 -33 -22 -55l-31 -31q-23 -23 -58 -23h-4q-39 4 -59 31l-205 272l-274 207q-29 25 -31 60z" />
  </g>

</svg>
