<?xml version="1.0" standalone="no"?>
<!DOCTYPE svg PUBLIC "-//W3C//DTD SVG 1.1//EN" "http://www.w3.org/Graphics/SVG/1.1/DTD/svg11.dtd" >
<svg viewBox="0 -512 2048 2048">
  <g transform="matrix(1 0 0 -1 0 1536)">
   <path fill="currentColor"
d="M0 117v1147q0 47 35 81.5t82 34.5h39v13q0 31 10 62.5t32.5 56t59.5 40t90 15.5t90 -15.5t59.5 -40t33 -56.5t10.5 -62v-13h49v13q0 31 10 62.5t32.5 56t59.5 40t90 15.5t90 -15.5t60.5 -40t34 -56.5t10.5 -62v-13h49v13q0 31 10.5 62.5t33 56t59 40t90.5 15.5
q53 0 90 -15.5t59.5 -40t32.5 -56.5t10 -62v-13h39q47 0 82 -34.5t35 -81.5v-1147q0 -47 -35 -82t-82 -35h-1333q-47 0 -82 35t-35 82zM158 158h282v250h-282v-250zM158 446h282v252h-282v-252zM158 737h282v252h-282v-252zM272 1165q0 -57 76 -57t76 57v228q0 57 -76 57
t-76 -57v-228zM479 158h285v250h-285v-250zM479 446h285v252h-285v-252zM479 737h285v252h-285v-252zM709 1165q0 -31 16 -44t57 -13t58.5 13.5t17.5 43.5v228q0 29 -17.5 43t-58.5 14t-57 -14.5t-16 -42.5v-228zM803 158h284v250h-284v-250zM803 446h284v252h-284v-252z
M803 737h284v252h-284v-252zM1126 158h283v250h-283v-250zM1126 446h283v252h-283v-252zM1126 737h283v252h-283v-252zM1143 1165q0 -57 76 -57t75 57v228q0 57 -75 57q-76 0 -76 -57v-228z" />
  </g>

</svg>
