<?xml version="1.0" standalone="no"?>
<!DOCTYPE svg PUBLIC "-//W3C//DTD SVG 1.1//EN" "http://www.w3.org/Graphics/SVG/1.1/DTD/svg11.dtd" >
<svg viewBox="0 -512 2048 2048">
  <g transform="matrix(1 0 0 -1 0 1536)">
   <path fill="currentColor"
d="M0 866q0 145 76 272.5t206 222.5t303.5 150.5t372.5 55.5t373 -55.5t304 -150.5t206 -222t76 -273q0 -145 -76 -272t-206 -222.5t-304 -150.5t-373 -55q-92 0 -180 12q-176 -139 -411 -192q-25 -4 -50.5 -8.5t-54.5 -8.5q-16 -2 -27.5 6.5t-15.5 24.5t5 26.5t20 20.5
q23 23 43 44.5t36.5 51t30 69.5t23.5 97q-174 98 -275.5 241.5t-101.5 315.5z" />
  </g>

</svg>
