<?xml version="1.0" standalone="no"?>
<!DOCTYPE svg PUBLIC "-//W3C//DTD SVG 1.1//EN" "http://www.w3.org/Graphics/SVG/1.1/DTD/svg11.dtd" >
<svg viewBox="0 -512 2048 2048">
  <g transform="matrix(1 0 0 -1 0 1536)">
   <path fill="currentColor"
d="M0 621v288q0 16 11.5 27.5t27.5 11.5h391q16 0 28.5 -11t12.5 -28v-288q0 -29 22.5 -60t63.5 -58.5t98.5 -45t128.5 -17.5q70 0 128.5 17.5t99.5 45t63.5 58.5t22.5 60v288q0 39 39 39h391q16 0 27.5 -11t11.5 -28v-288q0 -135 -61.5 -254t-168 -207t-249 -139.5
t-304.5 -51.5q-164 0 -306 51.5t-248.5 139.5t-168 206.5t-61.5 254.5zM0 1106v391q0 16 11.5 27.5t27.5 11.5h391q16 0 28.5 -11.5t12.5 -27.5v-391q0 -16 -12.5 -27.5t-28.5 -11.5h-391q-16 0 -27.5 11.5t-11.5 27.5zM1098 1106v391q0 16 11 27.5t28 11.5h391
q16 0 27.5 -11.5t11.5 -27.5v-391q0 -16 -11.5 -27.5t-27.5 -11.5h-391q-39 0 -39 39z" />
  </g>

</svg>
