<?xml version="1.0" standalone="no"?>
<!DOCTYPE svg PUBLIC "-//W3C//DTD SVG 1.1//EN" "http://www.w3.org/Graphics/SVG/1.1/DTD/svg11.dtd" >
<svg viewBox="-1 -512 2048 2048">
  <g transform="matrix(1 0 0 -1 0 1536)">
   <path fill="currentColor"
d="M2.5 1038.5q-12.5 30.5 28.5 75.5l385 424q25 29 63 29q39 0 64 -29l385 -424q41 -45 28.5 -75.5t-67.5 -30.5h-250v-680h174q6 -10 12 -19.5t17 -19.5l252 -281h-695q-33 0 -56.5 23.5t-23.5 56.5v920h-249q-55 0 -67.5 30.5zM823 1526h695q33 0 56 -22.5t23 -57.5v-918
h250q55 0 67.5 -30.5t-28.5 -75.5l-385 -424q-25 -29 -63 -29q-39 0 -64 29l-385 424q-41 45 -28.5 75.5t67.5 30.5h250v678h-174q-6 10 -12.5 20.5t-14.5 20.5z" />
  </g>

</svg>
