<?xml version="1.0" standalone="no"?>
<!DOCTYPE svg PUBLIC "-//W3C//DTD SVG 1.1//EN" "http://www.w3.org/Graphics/SVG/1.1/DTD/svg11.dtd" >
<svg viewBox="0 -512 2048 2048">
  <g transform="matrix(1 0 0 -1 0 1536)">
   <path fill="currentColor"
d="M0 1421v76q0 39 39 39h231q16 0 38 -4t36 -8q6 -4 14.5 -14.5t15.5 -23.5t12 -26.5t7 -21.5l27 -125h1347q35 0 58 -27t16 -59l-108 -578q-6 -25 -26.5 -42t-49.5 -17h-1084l35 -168q4 -16 17.5 -26.5t29.5 -10.5h856q16 0 27.5 -11.5t11.5 -27.5v-78q0 -16 -11 -26.5
t-28 -10.5h-163h-652h-104q-16 0 -36.5 3.5t-35.5 9.5q-6 2 -14 13t-15.5 24.5t-12.5 27t-7 21.5l-215 1016q-4 16 -17.5 26t-29.5 10h-170q-39 0 -39 39zM582 115q0 47 33.5 81.5t80.5 34.5q49 0 83 -34.5t34 -81.5t-34 -81t-83 -34q-47 0 -80.5 34t-33.5 81zM1233 115
q0 47 33.5 81.5t81.5 34.5q47 0 80.5 -34.5t33.5 -81.5t-33.5 -81t-80.5 -34t-81 34t-34 81z" />
  </g>

</svg>
