<?xml version="1.0" standalone="no"?>
<!DOCTYPE svg PUBLIC "-//W3C//DTD SVG 1.1//EN" "http://www.w3.org/Graphics/SVG/1.1/DTD/svg11.dtd" >
<svg viewBox="0 -512 2048 2048">
  <g transform="matrix(1 0 0 -1 0 1536)">
   <path fill="currentColor"
d="M0 379v1042q0 47 34 81t81 34h692q47 0 81 -34t34 -81t33.5 -80.5t80.5 -33.5h443q47 0 80.5 -35t33.5 -82v-221h-1228q-37 0 -72 -12.5t-65.5 -34t-53 -51t-35.5 -64.5zM43 0l246 760q6 23 30.5 39t47.5 16h1476l-260 -758q-6 -23 -30.5 -40t-47.5 -17h-1462z" />
  </g>

</svg>
