<?xml version="1.0" standalone="no"?>
<!DOCTYPE svg PUBLIC "-//W3C//DTD SVG 1.1//EN" "http://www.w3.org/Graphics/SVG/1.1/DTD/svg11.dtd" >
<svg viewBox="0 -512 2048 2048">
  <g transform="matrix(1 0 0 -1 0 1536)">
   <path fill="currentColor"
d="M0 115v1306q0 47 35 81t82 34h1612q47 0 80.5 -34t33.5 -81v-1306q0 -47 -33.5 -81t-80.5 -34h-1612q-47 0 -82 34t-35 81zM154 154h1536v1228h-1536v-1228zM307 264v363h203v-363h-203zM649 264v776h201v-776h-201zM993 264v592h203v-592h-203zM1333 264v922h203v-922
h-203z" />
  </g>

</svg>
