<?xml version="1.0" standalone="no"?>
<!DOCTYPE svg PUBLIC "-//W3C//DTD SVG 1.1//EN" "http://www.w3.org/Graphics/SVG/1.1/DTD/svg11.dtd" >
<svg viewBox="0 -512 2048 2048">
  <g transform="matrix(1 0 0 -1 0 1536)">
   <path fill="currentColor"
d="M0 193v1150q0 39 15.5 75t41 61.5t60.5 41t73 15.5h1153q80 0 136.5 -56.5t56.5 -136.5v-1150q0 -41 -15.5 -76t-41 -60.5t-61.5 -41t-75 -15.5h-1153q-39 0 -73.5 15.5t-60 41t-41 60.5t-15.5 76zM201 559q80 -111 198.5 -169t259.5 -58q96 0 184.5 26.5t160 73.5
t124 112.5t76.5 143.5q82 6 129 57q14 14 4 33q-8 18 -30 15h-4q23 23 30 45q8 20 -8 32q-14 14 -33 2q-8 -4 -29.5 -10t-45.5 -6q-4 0 -7.5 1t-7.5 1q0 2 -1 4t-1 4q-16 61 -57 110.5t-94 72.5q4 4 6 8t6 8q6 16 0 33q-2 6 -12.5 16t-34.5 8q-2 4 -6 8q-12 12 -25 9
q-25 -4 -49 -13l-2 2q-14 8 -31 -2q-59 -37 -98 -100t-68 -135q-35 31 -57 41q-61 35 -129 63.5t-154 61.5q-14 4 -24 -4q-10 -6 -15 -21q-2 -27 8.5 -58.5t38.5 -62.5q-25 -6 -20 -32q12 -68 68 -101l-13 -12q-14 -14 -4 -33q4 -12 26.5 -37.5t65.5 -38.5q-6 -12 -6 -22
t2 -14q6 -33 39 -50q-37 -25 -79 -34t-85 -5.5t-83 20.5t-70 46q-8 8 -19.5 8t-19.5 -8q-23 -18 -4 -39z" />
  </g>

</svg>
