<?xml version="1.0" standalone="no"?>
<!DOCTYPE svg PUBLIC "-//W3C//DTD SVG 1.1//EN" "http://www.w3.org/Graphics/SVG/1.1/DTD/svg11.dtd" >
<svg viewBox="0 -512 2048 2048">
  <g transform="matrix(1 0 0 -1 0 1536)">
   <path fill="currentColor"
d="M2 193v1150q0 39 15.5 75t41 61.5t60.5 41t74 15.5h1153q80 0 136 -56.5t56 -136.5v-1150q0 -41 -15.5 -76t-41 -60.5t-61.5 -41t-74 -15.5h-486v643h172q12 0 21.5 8t9.5 21l12 168q0 14 -8 24q-10 10 -23 10h-184v74q0 41 10.5 54.5t53.5 13.5q25 0 55.5 -4t58.5 -11
q6 0 13.5 1.5t11.5 5.5q10 6 14 22l23 162q4 29 -25 35q-90 25 -188 24q-301 0 -301 -293v-84h-103q-33 0 -32 -32v-168q0 -12 9 -21.5t23 -9.5h103v-643h-393q-39 0 -74 15.5t-60.5 41t-41 60.5t-15.5 76z" />
  </g>

</svg>
