<?xml version="1.0" standalone="no"?>
<!DOCTYPE svg PUBLIC "-//W3C//DTD SVG 1.1//EN" "http://www.w3.org/Graphics/SVG/1.1/DTD/svg11.dtd" >
<svg viewBox="0 -512 2048 2048">
  <g transform="matrix(1 0 0 -1 0 1536)">
   <path fill="currentColor"
d="M0 115v1306q0 47 34 81t81 34h1614q47 0 80.5 -34t33.5 -81v-1306q0 -47 -33.5 -81t-80.5 -34h-1614q-47 0 -81 34t-34 81zM154 160h1536v114h-1536v-114zM154 1145h1536v231h-957l-14 -92h-565v-139zM266 1341h316v93h-316v-93zM557 709q0 -76 28.5 -142.5t78 -116
t116 -78t142.5 -28.5t142 28.5t115.5 78t78 116t28.5 142.5t-28.5 142.5t-78 115.5t-116 77.5t-141.5 28.5q-76 0 -142.5 -28.5t-116 -77.5t-78 -115.5t-28.5 -142.5zM672 709q0 51 19.5 97t53 80t79.5 53t98 19q51 0 97 -19t80 -53t53 -80t19 -97t-19 -97.5t-53 -80
t-80 -53t-97 -19.5t-97.5 19.5t-80 53t-53 79.5t-19.5 98zM743 709q0 -16 12.5 -28.5t28.5 -12.5q18 0 30.5 12.5t12.5 28.5q0 41 28 67.5t67 26.5v2q18 0 30.5 12t12.5 29q0 18 -12.5 30.5t-30.5 12.5q-74 0 -126.5 -53.5t-52.5 -126.5z" />
  </g>

</svg>
