<?xml version="1.0" standalone="no"?>
<!DOCTYPE svg PUBLIC "-//W3C//DTD SVG 1.1//EN" "http://www.w3.org/Graphics/SVG/1.1/DTD/svg11.dtd" >
<svg viewBox="-1 -512 2048 2048">
  <g transform="matrix(1 0 0 -1 0 1536)">
   <path fill="currentColor"
d="M0 803.5q-6 111.5 30 230.5t113 228q78 109 179.5 180t209 102t213 17.5t191.5 -74.5q76 -53 121 -134t59 -176.5t-4 -199t-68 -203.5l414 -297l101 139l-105 74q-14 10 -17 27.5t7 32.5l51 69q10 14 26.5 17.5t32.5 -7.5l344 -247q16 -10 18.5 -27.5t-7.5 -32.5l-49 -69
q-10 -14 -27.5 -17.5t-32.5 6.5l-102 76l-101 -139l248 -178q43 -31 52.5 -83t-21.5 -95q-33 -43 -84 -51.5t-94 22.5l-803 573q-78 -80 -170 -130t-186.5 -68.5t-185.5 -2t-167 71.5q-86 61 -133 157.5t-53 208zM230.5 766q7.5 -41 30 -78t58.5 -63q37 -27 79 -36t83 -2
t78 29.5t64 59.5q39 53 41 114.5t-27 114.5q59 -10 116.5 11.5t96.5 74.5q27 37 36 79t2 84t-29.5 79t-59.5 63q-37 27 -79 36t-84 2t-79 -29.5t-63 -59.5q-37 -53 -39 -114.5t26 -114.5q-59 10 -116.5 -12.5t-96.5 -75.5q-27 -37 -36 -79t-1.5 -83z" />
  </g>

</svg>
