<?xml version="1.0" standalone="no"?>
<!DOCTYPE svg PUBLIC "-//W3C//DTD SVG 1.1//EN" "http://www.w3.org/Graphics/SVG/1.1/DTD/svg11.dtd" >
<svg viewBox="0 -512 2048 2048">
  <g transform="matrix(1 0 0 -1 0 1536)">
   <path fill="currentColor"
d="M0 801v180q0 8 22.5 15.5t52 11.5t56.5 7t37 3q12 49 37 88q-23 31 -45.5 61.5t-46.5 59.5l-4 10q0 6 20.5 29.5t47 50t50 47t29.5 20.5q2 0 20.5 -13t41 -30.5t43 -34t24.5 -20.5q43 25 90 37q0 8 3 37t7 57.5t10.5 52t16.5 23.5h178q8 0 15.5 -23.5t11.5 -52t7 -57.5
t5 -37q45 -12 86 -35q31 23 62.5 45.5t60.5 46.5l8 4q4 0 27.5 -21.5t49.5 -47t47.5 -49t21.5 -29.5q0 -4 -13.5 -22.5t-30 -40t-32 -41t-19.5 -25.5q23 -39 39 -92q10 -2 37 -5t55.5 -8.5t51 -11.5t22.5 -14v-178q0 -10 -22.5 -16.5t-51 -11.5t-56.5 -7t-36 -4
q-14 -43 -37 -88q23 -31 44.5 -60.5t48.5 -58.5l2 -10q0 -6 -20.5 -30t-47.5 -50.5t-50.5 -47t-29.5 -20.5q-2 0 -20.5 13.5t-41 31t-42 32.5t-25.5 20q-45 -23 -88 -37q0 -10 -3 -37t-8 -56.5t-12.5 -52t-15.5 -22.5h-178q-8 0 -15.5 22.5t-11.5 52t-7 56t-3 37.5
q-45 12 -88 37q-31 -23 -61.5 -46.5t-59.5 -48.5l-10 -2q-4 0 -27.5 20.5t-49 47t-46 50.5t-20.5 30q0 2 13 20.5t29.5 40t31 41t18.5 25.5q-23 43 -39 94q-10 2 -37 5t-55.5 7t-51 10.5t-22.5 14.5zM420 889q0 -37 14.5 -70t39 -57.5t58 -38.5t70.5 -14t70 14t57.5 38.5
t38.5 57.5t14 70t-14 70.5t-38.5 58t-57.5 39t-70 14.5q-76 0 -129 -53t-53 -129zM1114 373q0 6 13.5 13t31 14.5t33.5 12.5t22 7q4 23 9.5 39t15.5 37q-4 4 -13 17t-18.5 27.5t-16.5 28t-7 17.5t18.5 23.5t43 41t47 40t28.5 24.5l8 4q4 0 16.5 -8.5t25.5 -19.5t25.5 -21.5
t16.5 -14.5q35 12 76 19q2 6 9 21.5t16.5 30.5t17.5 27.5t14 12.5q4 0 34 -7t63.5 -18.5t60.5 -23.5t27 -23q0 -23 -5.5 -47t-9.5 -47q16 -12 28.5 -26.5t22.5 -30.5q25 2 49.5 3t47.5 1q8 0 18 -26.5t17.5 -60.5t12.5 -64.5t5 -39.5q0 -6 -13.5 -13t-29.5 -13t-32.5 -12.5
t-22.5 -8.5q-9 -38 -23 -71q2 -6 11.5 -18.5t18.5 -27t16 -27.5t7 -18q0 -4 -18.5 -23.5t-43 -41t-47 -40.5t-28.5 -26l-8 -4q-4 0 -16.5 8.5t-25.5 19.5t-25.5 21.5t-16.5 14.5q-37 -12 -78 -19q-2 -6 -9 -21.5t-15.5 -30.5t-16.5 -27.5t-14 -12.5t-35 7.5t-62.5 18.5
t-60 23.5t-26.5 22.5q0 23 5 47.5t9 46.5q-16 12 -28.5 26.5t-22.5 30.5q-23 -2 -45.5 -3t-44.5 -1h-14.5l-8.5 11q-2 8 -8 35.5t-13.5 58t-12.5 55.5t-5 29zM1192 1264q0 6 12.5 12t29.5 10t33.5 6t22.5 4q10 33 31 64q-2 4 -8 17.5t-12.5 27.5t-11.5 25.5t-5 15.5
q0 6 21.5 22.5t49 35t51.5 32.5t28 14t13 -9t20.5 -21.5t20.5 -23.5t13 -15q14 4 28.5 6t29.5 0h14q2 4 11 16.5t18.5 25.5t17.5 23.5t12 10.5t30 -11.5t55.5 -26t53 -28.5t23.5 -20q0 -4 -4 -15.5t-8 -26t-8.5 -27.5t-6.5 -17q20 -25 39 -60q51 -4 74 -7t29 -18.5t5 -52
t3 -106.5q0 -6 -12.5 -12.5t-28.5 -10.5t-32.5 -6t-22.5 -4q-13 -36 -31 -63q2 -4 8 -16.5t13.5 -27t12.5 -26.5t5 -14q0 -6 -22.5 -23.5t-50 -36t-51.5 -33t-26 -14.5q-4 0 -14 9.5t-21.5 21.5t-20.5 23.5t-13 15.5q-14 -4 -28.5 -6t-29.5 0h-14q-4 -4 -12 -16.5t-17.5 -26
t-18.5 -23.5t-13 -10t-30 11t-54.5 25.5t-52 29t-23.5 20.5q0 2 3 14.5t8 26.5t9 27.5t6 17.5q-23 23 -38 59q-53 2 -75 5t-29 18.5t-5 52.5t-4 109zM1397 367q0 -49 34.5 -85t84.5 -36q49 0 84.5 34.5t35.5 86.5q0 49 -34.5 83.5t-85.5 34.5q-49 0 -84 -34.5t-35 -83.5z
M1446 1206q0 -47 31.5 -78.5t76.5 -31.5q47 0 79 31.5t32 76.5q0 47 -31.5 79t-77.5 32q-47 0 -78.5 -32t-31.5 -77z" />
  </g>

</svg>
