<?xml version="1.0" standalone="no"?>
<!DOCTYPE svg PUBLIC "-//W3C//DTD SVG 1.1//EN" "http://www.w3.org/Graphics/SVG/1.1/DTD/svg11.dtd" >
<svg viewBox="0 -512 2048 2048">
  <g transform="matrix(1 0 0 -1 0 1536)">
   <path fill="currentColor"
d="M0 997q0 119 61.5 222.5t167 180.5t246.5 122t303 45t303.5 -45t247 -122t166.5 -180.5t61 -222.5q0 -117 -61 -221t-166.5 -181t-247 -122t-303.5 -45q-37 0 -73.5 3t-71.5 7q-147 -113 -336 -155q-20 -4 -40.5 -7.5t-43.5 -7.5q-12 -2 -21.5 6.5t-13.5 18.5v2
q-4 12 3 19.5t18 17.5q18 18 34.5 36.5t29.5 42t24.5 55.5t19.5 79q-141 78 -224 195.5t-83 256.5zM649 258q6 4 13.5 8t13.5 8q51 -6 102 -6q197 0 369 56.5t298 155t198.5 231.5t72.5 286q0 41 -6 84q96 -78 151.5 -175t55.5 -208q0 -139 -83 -256.5t-224 -195.5
q8 -47 19 -79t25.5 -55.5t30 -42t33.5 -36.5q10 -10 17.5 -18.5t3.5 -18.5v-2q-2 -12 -12.5 -19.5t-22.5 -5.5q-23 4 -43.5 7.5t-40.5 7.5q-96 20 -180 60t-156 95q-35 -4 -71.5 -7t-73.5 -3q-141 0 -265 35t-225 94z" />
  </g>

</svg>
