<?xml version="1.0" standalone="no"?>
<!DOCTYPE svg PUBLIC "-//W3C//DTD SVG 1.1//EN" "http://www.w3.org/Graphics/SVG/1.1/DTD/svg11.dtd" >
<svg viewBox="0 -512 2048 2048">
  <g transform="matrix(1 0 0 -1 0 1536)">
   <path fill="currentColor"
d="M0 193v643q0 49 35 83.5t84 34.5h348q27 14 43 30.5t35 39.5q16 20 32.5 38.5t34.5 37.5q33 35 76 68.5t66 74.5q16 29 23 64.5t12.5 71.5t12.5 70t23.5 60.5t47 42t81.5 15.5q61 0 111.5 -25.5t85.5 -68.5t54.5 -98.5t19.5 -112.5q0 -59 -17.5 -112.5t-42.5 -107.5
q35 2 70 4.5t70 2.5q55 0 107 -10.5t93 -35t66.5 -67.5t25.5 -109q0 -29 -5 -57t-15 -57q18 -43 18 -90q0 -78 -41 -142q10 -59 -7 -118.5t-58 -104.5q-4 -84 -45 -139.5t-102.5 -89t-135 -47t-143.5 -13.5q-72 0 -144.5 10.5t-142.5 28.5q-70 20 -139.5 43t-142.5 23h-375
q-49 0 -84 34.5t-35 84.5zM236 276q0 -35 22 -57t57 -22q33 0 56.5 22.5t23.5 56.5q0 33 -23.5 56.5t-56.5 23.5q-35 0 -57 -23.5t-22 -56.5zM492 193q70 0 136 -16.5t133.5 -35t141.5 -35t160 -16.5q45 0 98 6t99.5 26.5t78 56.5t31.5 95q0 10 -1 18.5t-3 18.5
q35 16 53.5 53t18.5 74q0 39 -21 68q60 49 60 123q0 23 -12.5 43t-26.5 35q16 29 28.5 57.5t12.5 62.5q0 35 -17.5 55.5t-43 31t-56.5 12.5t-57 2q-45 0 -90.5 -3t-90.5 -3q-31 0 -61.5 3t-58.5 15q0 41 16 78t35.5 74.5t35 78.5t15.5 91q0 33 -10.5 65.5t-29.5 59t-47 44
t-65 17.5h-11l-11 -2q-8 -4 -9 -8t-3 -13q-12 -59 -22.5 -123.5t-39.5 -117.5q-29 -51 -74 -88t-86 -78q-29 -31 -49 -56.5t-41.5 -48t-48.5 -42t-65 -35.5h-2v-643z" />
  </g>

</svg>
