<?xml version="1.0" standalone="no"?>
<!DOCTYPE svg PUBLIC "-//W3C//DTD SVG 1.1//EN" "http://www.w3.org/Graphics/SVG/1.1/DTD/svg11.dtd" >
<svg viewBox="0 -512 2048 2048">
  <g transform="matrix(1 0 0 -1 0 1536)">
   <path fill="currentColor"
d="M0 309q0 29 5 57.5t15 57.5q-18 43 -18 90q0 78 41 141q-10 59 7.5 119t58.5 105q4 84 45 139t102 89t135 47t144 13q72 0 144.5 -10t141.5 -29q70 -20 139.5 -42.5t143.5 -22.5h375q49 0 83.5 -35t34.5 -84v-643q0 -49 -34.5 -84t-83.5 -35h-349q-27 -14 -43 -30.5
t-34 -38.5q-16 -20 -32.5 -39t-35.5 -37q-33 -35 -76 -69t-65 -74q-25 -43 -31 -99.5t-18.5 -106.5t-44 -84t-107.5 -34q-61 0 -111.5 25.5t-85 68.5t-54 98.5t-19.5 112.5q0 59 17.5 112.5t41.5 106.5q-35 -2 -69.5 -4t-69.5 -2q-55 0 -107.5 10.5t-93.5 35t-66.5 67.5
t-25.5 108zM119 309q0 -35 17.5 -55.5t43 -30.5t56 -12t57.5 -2q47 0 91 3t89 3q31 0 61.5 -3t59.5 -15q0 -41 -16.5 -78t-36 -75t-34.5 -79t-15 -90q0 -33 10 -65.5t29.5 -59t47 -43t64.5 -16.5q4 0 11.5 -1t11.5 1q8 4 9 8l3 12q12 59 22.5 124t38.5 118q29 51 74 88
t86 78q29 31 49.5 56.5t42 48t47 42t66.5 35.5h2v643q-72 0 -137.5 16.5t-133 36t-141 36t-159.5 16.5q-45 0 -98.5 -7.5t-99.5 -27t-78 -56t-32 -96.5q0 -10 1 -18t3 -19q-35 -16 -53 -53t-18 -74q0 -39 20 -67q-59 -49 -59 -123q0 -23 12 -43.5t27 -34.5
q-16 -29 -28.5 -57.5t-12.5 -63.5zM1202 860q0 -33 23.5 -56.5t56.5 -23.5q35 0 57.5 23.5t22.5 56.5q0 35 -22.5 57.5t-57.5 22.5q-33 0 -56.5 -22.5t-23.5 -57.5z" />
  </g>

</svg>
