<?xml version="1.0" standalone="no"?>
<!DOCTYPE svg PUBLIC "-//W3C//DTD SVG 1.1//EN" "http://www.w3.org/Graphics/SVG/1.1/DTD/svg11.dtd" >
<svg viewBox="0 -512 2048 2048">
  <g transform="matrix(1 0 0 -1 0 1536)">
   <path fill="currentColor"
d="M0 1073q0 137 43 231.5t112.5 153t156.5 84t177 25.5q63 0 125 -21.5t115 -53.5t97 -70t75 -68q31 31 76 68.5t98 69.5t113.5 53.5t126.5 21.5q88 0 175 -25.5t156.5 -84t112.5 -153t43 -231.5q0 -94 -34.5 -177t-76.5 -146.5t-79 -102.5t-39 -43l-615 -612
q-26 -23 -57 -23q-33 0 -55 23l-617 614q-4 2 -39.5 41t-77.5 102.5t-77 146.5t-35 177zM160 1073q0 -68 27.5 -131t61.5 -112.5t63 -79.5l28 -29l561 -559l561 559l29 29q29 30 62.5 79.5t61 113t27.5 130.5q0 104 -29.5 169t-77.5 101.5t-106.5 50t-113.5 13.5
q-53 0 -107.5 -25.5t-102.5 -61.5t-86 -74t-56 -60q-25 -31 -62 -31t-61 31q-18 23 -56.5 60.5t-86.5 73.5t-102.5 61.5t-105.5 25.5q-57 0 -115.5 -13.5t-106.5 -50t-77.5 -101t-29.5 -169.5z" />
  </g>

</svg>
