<?xml version="1.0" standalone="no"?>
<!DOCTYPE svg PUBLIC "-//W3C//DTD SVG 1.1//EN" "http://www.w3.org/Graphics/SVG/1.1/DTD/svg11.dtd" >
<svg viewBox="0 -512 2048 2048">
  <g transform="matrix(1 0 0 -1 0 1536)">
   <path fill="currentColor"
d="M0 307v922q0 63 24.5 118.5t66.5 97.5t97.5 66.5t118.5 24.5h461v-193h-461q-47 0 -80.5 -33.5t-33.5 -80.5v-922q0 -47 33.5 -80.5t80.5 -33.5h461v-193h-461q-63 0 -118.5 24.5t-97.5 66.5t-66.5 97.5t-24.5 118.5zM508 584v368q0 33 22.5 54.5t55.5 21.5h428v293
q0 41 39 57q39 14 65 -14l553 -553q18 -18 18.5 -44t-18.5 -42l-553 -553q-18 -18 -43 -18q-10 0 -22 4q-39 16 -39 57v291h-428q-33 0 -55.5 22.5t-22.5 55.5z" />
  </g>

</svg>
