<?xml version="1.0" standalone="no"?>
<!DOCTYPE svg PUBLIC "-//W3C//DTD SVG 1.1//EN" "http://www.w3.org/Graphics/SVG/1.1/DTD/svg11.dtd" >
<svg viewBox="0 -512 2048 2048">
  <g transform="matrix(1 0 0 -1 0 1536)">
   <path fill="currentColor"
d="M0 193v1150q0 39 15.5 75t41 61.5t60.5 41t76 15.5h1150q80 0 136.5 -56.5t56.5 -136.5v-1150q0 -41 -15.5 -76t-41 -60.5t-61.5 -41t-75 -15.5h-1150q-80 0 -136.5 56.5t-56.5 136.5zM207 1192q0 -57 40 -97t95 -40q57 0 97 40t40 97q0 55 -40 95t-97 40q-55 0 -95 -40
t-40 -95zM213 240q0 -10 9 -19.5t20 -9.5h200q12 0 20.5 9t8.5 20v706q0 29 -29 29h-200q-10 0 -19.5 -8.5t-9.5 -20.5v-706zM580 240q0 -10 9 -19.5t19 -9.5h201q12 0 20.5 9t8.5 20v383q0 68 26.5 113.5t102.5 45.5q59 0 79.5 -28.5t20.5 -81.5v-432q0 -10 8 -19.5
t21 -9.5h204q10 0 19.5 9t9.5 20v477q0 141 -81 208.5t-216 67.5q-55 0 -107.5 -15t-93.5 -56q0 16 -3 34.5t-25 18.5h-195q-10 0 -19 -8.5t-9 -20.5v-706z" />
  </g>

</svg>
