<?xml version="1.0" standalone="no"?>
<!DOCTYPE svg PUBLIC "-//W3C//DTD SVG 1.1//EN" "http://www.w3.org/Graphics/SVG/1.1/DTD/svg11.dtd" >
<svg viewBox="-1 -512 2048 2048">
  <g transform="matrix(1 0 0 -1 0 1536)">
   <path fill="currentColor"
d="M2 950q8 82 45 172t100 176t139 147.5t152 92.5t145.5 30t121.5 -40q53 -41 73.5 -107.5t12.5 -148.5l301 -225q111 63 215 73t180 -47q55 -41 80.5 -108.5t23.5 -150.5t-30.5 -177t-83.5 -188l428 -410q25 -25 4 -53q-12 -16 -33 -17q-10 0 -18 6l-517 293
q-74 -80 -155.5 -135t-161.5 -80.5t-151.5 -19.5t-127.5 47q-76 55 -95 158.5t9 228.5l-303 223q-76 -33 -145.5 -32t-122.5 40q-51 39 -72.5 104.5t-13.5 147.5zM171 858.5q3 -16.5 15 -27.5q21 -14 50 -14q31 0 65.5 17.5t71.5 46t72.5 66.5t66.5 79q10 14 7 30.5
t-15 26.5q-14 10 -30.5 8.5t-27.5 -16.5q-78 -104 -138 -143t-72 -35q-14 10 -31 7t-27 -15q-10 -14 -7 -30.5zM465 754l364 -271q8 -8 23 -8q20 0 33 17q10 14 8 29.5t-16 25.5l-347 258q-16 -14 -32.5 -27.5t-32.5 -23.5zM829.5 239.5q1.5 -16.5 16.5 -26.5q29 -23 69 -23
q41 0 88.5 21.5t95.5 57.5t94 84.5t87 101.5q10 12 8 28.5t-16 26.5q-12 10 -28.5 8t-26.5 -16q-51 -68 -102.5 -116t-95.5 -75.5t-78 -36t-48 4.5q-14 10 -29.5 7t-25.5 -18q-10 -12 -8.5 -28.5z" />
  </g>

</svg>
