<?xml version="1.0" standalone="no"?>
<!DOCTYPE svg PUBLIC "-//W3C//DTD SVG 1.1//EN" "http://www.w3.org/Graphics/SVG/1.1/DTD/svg11.dtd" >
<svg viewBox="0 -512 2048 2048">
  <g transform="matrix(1 0 0 -1 0 1536)">
   <path fill="currentColor"
d="M0 307v922q0 63 24.5 119.5t65.5 97.5t97.5 65.5t119.5 24.5h582q-2 -14 -4 -27.5t-2 -29.5v-88q0 -23 6 -48h-582q-47 0 -80.5 -33.5t-33.5 -80.5v-922q0 -47 33.5 -80.5t80.5 -33.5h1075q47 0 81 33.5t34 80.5v340q41 -31 90 -49t103 -20v-271q0 -63 -25 -118.5
t-67 -97.5t-97 -66.5t-119 -24.5h-1075q-63 0 -119.5 24.5t-97.5 66.5t-65.5 97.5t-24.5 118.5zM692.5 522q-0.5 25 16.5 41l770 772h-269q-25 0 -41 16.5t-16 41.5v86q-2 23 15.5 40t41.5 17h576q23 0 40 -17.5t17 -39.5v-86v-490q0 -25 -17.5 -42t-39.5 -15h-86
q-25 0 -41.5 16.5t-16.5 40.5v268l-772 -770q-16 -16 -40.5 -16t-41.5 16l-79 80q-16 16 -16.5 41z" />
  </g>

</svg>
