<?xml version="1.0" standalone="no"?>
<!DOCTYPE svg PUBLIC "-//W3C//DTD SVG 1.1//EN" "http://www.w3.org/Graphics/SVG/1.1/DTD/svg11.dtd" >
<svg viewBox="0 -512 2048 2048">
  <g transform="matrix(1 0 0 -1 0 1536)">
   <path fill="currentColor"
d="M0 584v368q0 33 22.5 54.5t55.5 21.5h428v293q0 41 37 57q39 14 67 -14l553 -553q16 -18 16.5 -44t-16.5 -42l-553 -553q-18 -18 -43 -18q-8 0 -24 4q-37 16 -37 57v291h-428q-33 0 -55.5 22.5t-22.5 55.5zM922 0v193h460q47 0 81 33.5t34 80.5v922q0 47 -33.5 80.5
t-81.5 33.5h-460v193h460q63 0 118.5 -24.5t97.5 -65.5t67 -97.5t25 -119.5v-922q0 -63 -25 -118.5t-67 -97.5t-97 -66.5t-119 -24.5h-460z" />
  </g>

</svg>
