<?xml version="1.0" standalone="no"?>
<!DOCTYPE svg PUBLIC "-//W3C//DTD SVG 1.1//EN" "http://www.w3.org/Graphics/SVG/1.1/DTD/svg11.dtd" >
<svg viewBox="0 -512 2048 2048">
  <g transform="matrix(1 0 0 -1 0 1536)">
   <path fill="currentColor"
d="M0 1042v187q0 33 22.5 54.5t55.5 21.5h323q-2 12 -2 25v24v4q0 53 4.5 88t15.5 54.5t31.5 27.5t55.5 8h678q33 0 54.5 -8t32.5 -27.5t15 -54.5t4 -88v-25.5l-2 -27.5h324q33 0 55.5 -21.5t22.5 -54.5v-187q0 -63 -45.5 -130.5t-122 -128t-180 -106.5t-222.5 -65
q-51 -10 -91 -41.5t-40 -70.5q0 -35 17.5 -51.5t39 -31t40 -31.5t22.5 -52q4 -23 -2 -47q-4 -14 23.5 -23.5t67.5 -18.5t82 -22.5t64 -34.5q12 -10 19.5 -39.5t9.5 -64.5q2 -33 -6 -58.5t-29 -25.5h-985q-20 0 -28.5 25.5t-6.5 58.5q2 35 9.5 64.5t19.5 39.5q23 20 64 34
t80.5 23t68.5 18t25 24q-4 14 -4 25.5v21.5q2 35 21.5 52t42 31.5t39.5 31t17 51.5q0 39 -39.5 70.5t-93.5 41.5q-117 20 -220 66.5t-180 106t-122 127t-45 130.5zM154 1042q0 -20 23.5 -54t67.5 -70.5t106.5 -71.5t140.5 -60q-25 80 -44.5 175.5t-33.5 189.5h-260v-109z
M1198 786q78 25 140.5 60t106.5 71.5t67.5 70.5t23.5 54v109h-262q-12 -94 -31.5 -189.5t-44.5 -175.5z" />
  </g>

</svg>
