<?xml version="1.0" standalone="no"?>
<!DOCTYPE svg PUBLIC "-//W3C//DTD SVG 1.1//EN" "http://www.w3.org/Graphics/SVG/1.1/DTD/svg11.dtd" >
<svg viewBox="0 -512 2048 2048">
  <g transform="matrix(1 0 0 -1 0 1536)">
   <path fill="currentColor"
d="M0 193v1150q0 39 15.5 75t41 61.5t60.5 41t76 15.5h1150q80 0 136.5 -56.5t56.5 -136.5v-1150q0 -41 -15.5 -76t-41 -60.5t-61.5 -41t-75 -15.5h-337v25q0 39 2 97t-3.5 115.5t-24.5 104.5t-65 66q188 20 290 110t102 287q0 66 -22.5 128t-67.5 114q6 23 8 45t2 45
q0 41 -9.5 91t-31.5 85h-12q-43 2 -79 -8.5t-68 -27.5t-62.5 -37.5t-65.5 -39.5q-33 4 -65.5 6t-65.5 2t-65.5 -2t-65.5 -6q-35 18 -65.5 39t-62.5 38t-67.5 27.5t-79.5 8.5h-12q-23 -35 -32 -85t-9 -91q0 -23 2 -45.5t8 -44.5q-45 -51 -66.5 -114t-21.5 -128
q0 -193 95.5 -283t281.5 -112q-39 -16 -59.5 -50t-32.5 -75q-27 -8 -49.5 -15.5t-50.5 -7.5q-55 0 -88 28.5t-59.5 62.5t-56.5 62.5t-79 28.5q-4 0 -20.5 -2t-16.5 -12q0 -23 19.5 -32t31.5 -19q39 -31 56.5 -71t39 -76.5t62.5 -62.5t127 -26q35 0 80 11q0 -10 -1 -18.5
t-1 -16.5q0 -29 2 -59.5t-2 -59.5h-317q-80 0 -136.5 56.5t-56.5 136.5z" />
  </g>

</svg>
