<?xml version="1.0" standalone="no"?>
<!DOCTYPE svg PUBLIC "-//W3C//DTD SVG 1.1//EN" "http://www.w3.org/Graphics/SVG/1.1/DTD/svg11.dtd" >
<svg viewBox="0 -512 2048 2048">
  <g transform="matrix(1 0 0 -1 0 1536)">
   <path fill="currentColor"
d="M0 39v614q0 16 11.5 27.5t27.5 11.5h229q16 0 27.5 -11t11.5 -28v-346h1229v346q0 16 11.5 27.5t27.5 11.5h229q16 0 27.5 -11t11.5 -28v-614q0 -39 -39 -39h-1765q-39 0 -39 39zM346 969.5q-6 15.5 16 38.5l504 505q23 23 55.5 23t55.5 -23l506 -505q23 -23 15.5 -38.5
t-38.5 -15.5h-307v-499q0 -33 -22.5 -55.5t-55.5 -22.5h-307q-33 0 -54.5 22.5t-21.5 55.5v499h-307q-33 0 -39 15.5z" />
  </g>

</svg>
