<?xml version="1.0" standalone="no"?>
<!DOCTYPE svg PUBLIC "-//W3C//DTD SVG 1.1//EN" "http://www.w3.org/Graphics/SVG/1.1/DTD/svg11.dtd" >
<svg viewBox="0 -512 2048 2048">
  <g transform="matrix(1 0 0 -1 0 1536)">
   <path fill="currentColor"
d="M2 514q-2 35 1 68.5t7 74.5q4 35 7 72t10 66q14 66 30.5 128t44.5 117q20 41 45 81t54 79q10 14 21 24.5t24 20.5q23 23 45 45.5t49 42.5t57.5 36.5t65.5 33.5q33 16 67.5 29.5t71.5 27.5q70 29 156 51l2 2q45 12 85 17.5t79 5.5q59 0 112.5 -9t106.5 -20q41 -8 85 -15
t93 -7h2q29 0 62.5 5t66.5 5q25 0 45.5 -6t32.5 -25q23 -31 26 -71.5t-2 -75.5q-4 -35 -8 -71t2 -72q4 -23 11.5 -39.5t15.5 -36.5q8 -18 11 -40t7 -42q18 -104 15.5 -195.5t-23 -170.5t-56.5 -148.5t-81 -132.5q-37 -49 -79 -97.5t-92 -91.5t-110.5 -77.5t-134.5 -59.5
q-76 -27 -158.5 -34t-158.5 -11h-31q-104 0 -194.5 16.5t-192.5 16.5h-4q-35 0 -77 -10.5t-83 -12.5h-2q-37 0 -65.5 17.5t-42.5 42.5q-20 35 -17.5 72.5t12.5 68.5t10.5 66.5t-5 75.5t-12.5 81t-9 82z" />
  </g>

</svg>
