<?xml version="1.0" standalone="no"?>
<!DOCTYPE svg PUBLIC "-//W3C//DTD SVG 1.1//EN" "http://www.w3.org/Graphics/SVG/1.1/DTD/svg11.dtd" >
<svg viewBox="0 -512 2048 2048">
  <g transform="matrix(1 0 0 -1 0 1536)">
   <path fill="currentColor"
d="M0 1169q0 55 14.5 114.5t43 114t68.5 98.5t93 69q12 -2 26.5 0t26.5 2q10 0 30 -1l40 -2l38.5 -4.5l27.5 -7.5q8 -6 15 -18t12 -26.5t9.5 -30t8.5 -25.5q6 -18 23.5 -65.5t35.5 -97.5t32.5 -93t14.5 -53q0 -37 -24.5 -68t-54 -57.5t-54.5 -50t-25 -45.5q0 -20 16.5 -49
t26.5 -46q84 -145 188.5 -248.5t252.5 -187.5q18 -10 45.5 -27.5t50.5 -17.5t52.5 32t60 70.5t62 70.5t58.5 32q10 0 51.5 -22.5t89.5 -50t93 -55.5t61 -36q16 -10 46 -25.5t40 -35.5q2 -6 2 -23q0 -16 -3 -36.5t-8 -43t-12 -43t-13 -35.5q-18 -39 -59.5 -71.5t-92.5 -55
t-104.5 -36t-92.5 -13.5q-80 0 -153.5 25.5t-145.5 54.5q-123 45 -232.5 118t-203.5 164t-175 196.5t-144 215.5q-25 41 -52.5 95.5t-51 112t-39 113.5t-15.5 105z" />
  </g>

</svg>
