<?xml version="1.0" standalone="no"?>
<!DOCTYPE svg PUBLIC "-//W3C//DTD SVG 1.1//EN" "http://www.w3.org/Graphics/SVG/1.1/DTD/svg11.dtd" >
<svg viewBox="0 -512 2048 2048">
  <g transform="matrix(1 0 0 -1 0 1536)">
   <path fill="currentColor"
d="M0 307v922q0 63 24.5 118.5t66.5 97.5t97.5 66.5t118.5 24.5h1075q63 0 118.5 -24.5t97.5 -66.5t67 -97.5t25 -118.5v-922q0 -63 -25 -118.5t-67 -97.5t-97 -66.5t-119 -24.5h-1075q-63 0 -118.5 24.5t-97.5 66.5t-66.5 97.5t-24.5 118.5zM193 307q0 -47 33.5 -80.5
t80.5 -33.5h1075q47 0 81 33.5t34 80.5v922q0 47 -34 80.5t-81 33.5h-1075q-47 0 -80.5 -33.5t-33.5 -80.5v-922z" />
  </g>

</svg>
