<?xml version="1.0" standalone="no"?>
<!DOCTYPE svg PUBLIC "-//W3C//DTD SVG 1.1//EN" "http://www.w3.org/Graphics/SVG/1.1/DTD/svg11.dtd" >
<svg viewBox="0 -512 2048 2048">
  <g transform="matrix(1 0 0 -1 0 1536)">
   <path fill="currentColor"
d="M0 193v1150q0 39 15.5 75t41 61.5t60.5 41t76 15.5h1150q80 0 136.5 -56.5t56.5 -136.5v-1150q0 -41 -15.5 -76t-41 -60.5t-61.5 -41t-75 -15.5h-1150q-80 0 -136.5 56.5t-56.5 136.5zM193 1040q2 -35 15 -76.5t30 -78.5q16 -37 33.5 -72t33.5 -63q74 -129 176.5 -241
t225.5 -190q31 -18 67.5 -36.5t75.5 -32.5q41 -16 83 -31.5t81 -21.5q63 -10 112.5 2t90.5 34q27 12 57.5 33.5t44.5 52.5q4 8 9 27t9 38t6.5 37.5t-2.5 29.5q-4 12 -24.5 22t-36.5 21q-43 25 -71.5 41t-67.5 38q-16 10 -36 23.5t-38 13.5q-23 0 -46.5 -27.5t-37.5 -43.5
q-12 -14 -36.5 -43t-47.5 -31q-14 -2 -32.5 10t-37.5 23q-106 59 -182 136t-135 177q-10 16 -21.5 37.5t-7.5 38.5q2 18 24.5 33.5t35.5 29.5q14 16 31.5 37t19.5 43q4 16 -5 38t-16 42q-16 43 -28.5 76t-26.5 76q-6 16 -12 40.5t-21 30.5q-8 4 -26.5 7t-39 4.5t-37.5 0
t-24 -1.5h-8q-33 -16 -62.5 -45.5t-51 -69.5t-34 -88t-9.5 -100z" />
  </g>

</svg>
