<?xml version="1.0" standalone="no"?>
<!DOCTYPE svg PUBLIC "-//W3C//DTD SVG 1.1//EN" "http://www.w3.org/Graphics/SVG/1.1/DTD/svg11.dtd" >
<svg viewBox="0 -512 2048 2048">
  <g transform="matrix(1 0 0 -1 0 1536)">
   <path fill="currentColor"
d="M0 399q0 20 13.5 33.5t33.5 13.5q14 0 31 -12q123 -109 287 -108q59 0 117.5 15t107.5 48q-29 16 -47.5 42t-18.5 58q0 23 8 39q-18 6 -44.5 20.5t-51 34t-41 43t-16.5 46.5q0 16 10 28.5t25 22.5q-41 25 -76 74t-35 98q0 33 33 43q-35 35 -55.5 81t-20.5 95
q0 23 9.5 41.5t37.5 18.5q18 0 84 -27t142.5 -60.5t146.5 -67.5t98 -48q25 -14 47.5 -31.5t44.5 -36.5q20 51 47 106.5t60 106.5t73 96t89 74q8 6 24 6q18 0 27 -8q16 6 41.5 13.5t42.5 7.5q29 0 43 -27q31 0 56.5 -15.5t25.5 -50.5q0 -31 -27 -53q96 -43 159.5 -125
t90.5 -182q6 -2 23 -2q47 0 88 16.5t57 16.5q18 0 31.5 -14.5t13.5 -32.5q0 -23 -19.5 -48.5t-33.5 -39.5q23 4 42 -7.5t19 -38.5q0 -29 -26.5 -50t-61.5 -37.5t-72.5 -25.5t-58.5 -11q-43 -139 -133 -246t-210 -178.5t-258 -109.5t-275 -38q-219 0 -415 93.5t-325 273.5
q-8 16 -8 26z" />
  </g>

</svg>
