<?xml version="1.0" standalone="no"?>
<!DOCTYPE svg PUBLIC "-//W3C//DTD SVG 1.1//EN" "http://www.w3.org/Graphics/SVG/1.1/DTD/svg11.dtd" >
<svg viewBox="0 -512 2048 2048">
  <g transform="matrix(1 0 0 -1 0 1536)">
   <path fill="currentColor"
d="M0 862v203q0 16 11.5 28.5t27.5 12.5h125v102q0 358 366 359q123 0 232 -31q33 -10 29 -43l-27 -199q-4 -16 -16 -26q-16 -10 -31 -6q-35 8 -72.5 12t-66.5 4q-53 0 -65.5 -16.5t-12.5 -67.5v-88h223q14 0 29 -14q10 -10 10 -29l-17 -205q0 -16 -11 -25.5t-27 -9.5h-207
v-784q0 -16 -11.5 -27.5t-27.5 -11.5h-258q-16 0 -27.5 11.5t-11.5 27.5v784h-125q-16 0 -27.5 11.5t-11.5 27.5z" />
  </g>

</svg>
