<?xml version="1.0" standalone="no"?>
<!DOCTYPE svg PUBLIC "-//W3C//DTD SVG 1.1//EN" "http://www.w3.org/Graphics/SVG/1.1/DTD/svg11.dtd" >
<svg viewBox="0 -512 2048 2048">
  <g transform="matrix(1 0 0 -1 0 1536)">
   <path fill="currentColor"
d="M0 743q0 115 37 222.5t113 193.5l-3 4l3 2q-16 39 -21.5 81t-5.5 85q0 25 2 56.5t8 65.5t15.5 63.5t23.5 50.5h8q61 0 110.5 -12.5t94.5 -35t87 -52t91 -60.5q86 25 178.5 33t182.5 8t182 -8t180 -33q47 31 90 60.5t87 52t93.5 35t110.5 12.5h10q12 -20 21.5 -50
t15.5 -64t9 -65.5t3 -56.5q0 -43 -6 -85t-20 -81v-2l-2 -4q76 -86 112.5 -193.5t36.5 -222.5q0 -233 -66.5 -383.5t-188.5 -236.5t-292 -120t-376 -34q-207 0 -378 34t-292 120t-187.5 236.5t-66.5 383.5zM250 483q0 -145 64.5 -224t165 -116t219 -43t227.5 -6q74 0 152.5 2
t153.5 12.5t142.5 34t117.5 67.5t80 111.5t30 165.5q0 84 -27 147.5t-75 106.5t-114.5 64.5t-146.5 21.5q-78 0 -156.5 -7t-156.5 -7t-157 7t-157 7q-162 0 -262 -87t-100 -257zM494 524q0 66 26.5 113t65.5 47t66.5 -47t27.5 -113t-27.5 -112.5t-66.5 -46.5t-65.5 46.5
t-26.5 112.5zM795 258q-6 16 12 25q16 6 24 -13q27 -76 93 -75q31 0 56.5 20.5t35.5 54.5q8 20 26 13q16 -6 13 -25q-16 -47 -51 -75.5t-80 -28.5q-43 0 -78 28.5t-51 75.5zM864 369q0 -12 17.5 -21.5t42.5 -9.5t42 9.5t17 21.5t-17.5 21t-41.5 9q-25 0 -42.5 -9t-17.5 -21z
M1167 524q0 -66 28 -112.5t67 -46.5t65.5 46.5t26.5 112.5t-27 113t-65 47q-39 0 -67 -47t-28 -113z" />
  </g>

</svg>
