<?xml version="1.0" standalone="no"?>
<!DOCTYPE svg PUBLIC "-//W3C//DTD SVG 1.1//EN" "http://www.w3.org/Graphics/SVG/1.1/DTD/svg11.dtd" >
<svg viewBox="0 -512 2048 2048">
  <g transform="matrix(1 0 0 -1 0 1536)">
   <path fill="currentColor"
d="M0 117v626q0 49 35 84t82 35h665v156q0 113 43 213t118 175t175 118t213 43t213.5 -43t175 -118t117.5 -175.5t43 -212.5v-152q0 -33 -22.5 -55.5t-55.5 -22.5h-80q-33 0 -55 23t-22 55v152q0 66 -25 123t-67 99t-99 66.5t-123 24.5t-122 -24.5t-99 -66.5t-67.5 -99.5
t-24.5 -122.5v-156h119q47 0 81.5 -34.5t34.5 -84.5v-626q0 -47 -34.5 -82t-81.5 -35h-1020q-47 0 -82 35t-35 82zM494 164h266l-66 285q29 18 47.5 48.5t18.5 65.5q0 55 -39 95t-94 40t-94 -40t-39 -95q0 -35 18 -65.5t47 -46.5z" />
  </g>

</svg>
