<?xml version="1.0" standalone="no"?>
<!DOCTYPE svg PUBLIC "-//W3C//DTD SVG 1.1//EN" "http://www.w3.org/Graphics/SVG/1.1/DTD/svg11.dtd" >
<svg viewBox="0 -512 2048 2048">
  <g transform="matrix(1 0 0 -1 0 1536)">
   <path fill="currentColor"
d="M0 236q0 49 18.5 91t50 74.5t75 51t92.5 18.5t91 -18.5t74.5 -51t51 -74.5t18.5 -91t-18.5 -92.5t-51 -75t-74.5 -50t-91 -18.5t-92.5 18.5t-75 50t-50 74.5t-18.5 93zM0 819v158q0 35 25 57q23 23 53 23q2 0 3 -1t3 -1q193 -14 362.5 -95t301 -212.5t212 -301.5
t95.5 -362q4 -35 -21 -59q-23 -25 -57 -25h-158q-29 0 -51.5 20.5t-26.5 51.5q-12 133 -68.5 249.5t-145.5 205.5t-205.5 145.5t-249.5 68.5q-31 4 -51.5 27t-20.5 51zM0 1331v158q0 33 25 55q23 23 53 23h4q301 -16 565 -137t463 -320t319.5 -463t137.5 -565q4 -31 -23 -57
q-23 -25 -55 -25h-158q-31 0 -53.5 21.5t-24.5 52.5q-14 238 -110 446.5t-255 367.5t-368 255t-446 110q-31 2 -52.5 24.5t-21.5 53.5z" />
  </g>

</svg>
