<?xml version="1.0" standalone="no"?>
<!DOCTYPE svg PUBLIC "-//W3C//DTD SVG 1.1//EN" "http://www.w3.org/Graphics/SVG/1.1/DTD/svg11.dtd" >
<svg viewBox="0 -512 2048 2048">
  <g transform="matrix(1 0 0 -1 0 1536)">
   <path fill="currentColor"
d="M0 193v382q0 23 6 45.5t12 45.5l238 727q20 63 75.5 103t121.5 40h938q66 0 121 -40t75 -103l238 -727q6 -23 12 -45.5t6 -45.5v-382q0 -41 -15.5 -76t-41 -60.5t-61 -41t-74.5 -15.5h-1458q-80 0 -136.5 56.5t-56.5 136.5zM154 193q0 -16 11 -27.5t28 -11.5h1458
q16 0 27.5 11t11.5 28v382q0 16 -11.5 27.5t-27.5 11.5h-1458q-16 0 -27.5 -11t-11.5 -28v-382zM213 768h1417l-188 578q-4 16 -19.5 26t-31.5 10h-938q-16 0 -31.5 -10t-20.5 -26zM1057 385q0 39 27.5 66.5t68.5 27.5q39 0 66.5 -27.5t27.5 -66.5q0 -41 -27.5 -68.5
t-66.5 -27.5q-41 0 -68.5 27.5t-27.5 68.5zM1364 385q0 39 27.5 66.5t68.5 27.5q39 0 66.5 -27.5t27.5 -66.5q0 -41 -27.5 -68.5t-66.5 -27.5q-41 0 -68.5 27.5t-27.5 68.5z" />
  </g>

</svg>
