<?xml version="1.0" standalone="no"?>
<!DOCTYPE svg PUBLIC "-//W3C//DTD SVG 1.1//EN" "http://www.w3.org/Graphics/SVG/1.1/DTD/svg11.dtd" >
<svg viewBox="0 -512 2048 2048">
  <g transform="matrix(1 0 0 -1 0 1536)">
   <path fill="currentColor"
d="M0 754v229q0 63 45 108.5t109 45.5h499q115 0 245 33.5t255 90t235.5 128t186.5 147.5q63 0 108.5 -45t45.5 -109v-368q49 -12 81.5 -52.5t32.5 -93.5t-32.5 -93t-81.5 -52v-369q0 -63 -45.5 -108t-108.5 -45q-68 68 -164 132t-206.5 117.5t-227.5 91.5t-227 50
q-43 -12 -70 -40t-37 -62.5t-2 -70.5t37 -65q-25 -41 -23 -75.5t20.5 -66.5t49.5 -61.5t66 -58.5q-20 -43 -69.5 -65.5t-106 -25.5t-110.5 10.5t-85 43.5q-18 61 -40 125t-36 130.5t-14 138t24 151.5h-200q-63 0 -108.5 45t-45.5 109zM807 741q102 -16 206.5 -49t205 -78
t191.5 -99t165 -112v930q-76 -59 -166 -113.5t-190.5 -98.5t-205 -77.5t-206.5 -48.5v-254z" />
  </g>

</svg>
