<?xml version="1.0" standalone="no"?>
<!DOCTYPE svg PUBLIC "-//W3C//DTD SVG 1.1//EN" "http://www.w3.org/Graphics/SVG/1.1/DTD/svg11.dtd" >
<svg viewBox="0 -512 2048 2048">
  <g transform="matrix(1 0 0 -1 0 1536)">
   <path fill="currentColor"
d="M0 317q104 78 172 172.5t109 201t60 224t28 240.5q6 84 56 159t126 131t163 89t167 33q74 0 163 -33t165.5 -88t129 -129t52.5 -158q6 -121 27.5 -239.5t63.5 -227t109.5 -204t167.5 -171.5q-4 -70 -56 -114.5t-120 -44.5h-469q-18 -82 -82.5 -135.5t-150.5 -53.5
t-151.5 53.5t-84.5 135.5h-469q-68 0 -120 45t-56 114zM238 317h1284q-78 86 -129.5 183.5t-84 202t-50 214t-25.5 222.5q-4 55 -41 104t-89 86t-111.5 57.5t-110.5 20.5q-47 0 -107.5 -21.5t-114 -56.5t-91.5 -83t-40 -99q-6 -111 -23.5 -222.5t-51 -218t-87 -205
t-128.5 -184.5zM713 209q0 -70 49 -119t119 -49q18 0 18 20t-18 21q-53 0 -91 37t-38 90q0 20 -19 20q-20 0 -20 -20z" />
  </g>

</svg>
