<?xml version="1.0" standalone="no"?>
<!DOCTYPE svg PUBLIC "-//W3C//DTD SVG 1.1//EN" "http://www.w3.org/Graphics/SVG/1.1/DTD/svg11.dtd" >
<svg viewBox="0 -512 2048 2048">
  <g transform="matrix(1 0 0 -1 0 1536)">
   <path fill="currentColor"
d="M0 193v643q0 49 35 83.5t84 34.5h348q27 14 42 30.5t34 39.5q16 20 33.5 38.5t33.5 37.5q35 35 77 68.5t65 74.5q25 43 29.5 99.5t17 106.5t44 84t109.5 34q61 0 111.5 -25.5t85.5 -68.5t54.5 -98.5t19.5 -112.5q0 -53 -15.5 -104.5t-38.5 -98.5h134l376 -2
q49 0 93.5 -17.5t76 -49.5t50 -75t18.5 -94q0 -49 -18.5 -92t-50 -74.5t-75.5 -49t-94 -17.5h-200q-10 -59 -39 -107q10 -59 -7.5 -117.5t-56.5 -103.5q0 -76 -28.5 -131t-75.5 -90t-109.5 -52.5t-132.5 -17.5q-78 0 -148.5 16.5t-136 36t-128 36t-123.5 16.5h-375
q-49 0 -84 34.5t-35 84.5zM233 276q0 -35 22.5 -57t57.5 -22q33 0 56.5 22.5t23.5 56.5q0 33 -23.5 56.5t-56.5 23.5q-35 0 -57.5 -23.5t-22.5 -56.5zM489 193q70 0 136.5 -16.5t133 -35t133 -35t138.5 -16.5q43 0 84 8t72 27.5t50 52.5t19 82q0 14 -1 26.5t-3 24.5
q35 16 53.5 53t18.5 74q0 39 -20 68q59 49 59 123q0 23 -12.5 43.5t-26.5 34.5q90 0 178 1t178 1q51 0 84 30.5t33 81.5q0 53 -32.5 85t-84.5 32q-172 0 -340 1t-338 1q0 41 16.5 78t35 74.5t34 78.5t15.5 91q0 33 -10.5 65.5t-29 59t-46 44t-64.5 17.5h-11l-11 -2
q-8 -4 -9 -8t-3 -13q-12 -59 -22.5 -123.5t-39.5 -117.5q-29 -51 -73 -88t-85 -78q-29 -31 -49 -56.5t-41.5 -48t-48.5 -42t-65 -35.5h-5v-643z" />
  </g>

</svg>
