<?xml version="1.0" standalone="no"?>
<!DOCTYPE svg PUBLIC "-//W3C//DTD SVG 1.1//EN" "http://www.w3.org/Graphics/SVG/1.1/DTD/svg11.dtd" >
<svg viewBox="0 -512 2048 2048">
  <g transform="matrix(1 0 0 -1 0 1536)">
   <path fill="currentColor"
d="M0 821q0 51 18.5 94t50 75t75.5 49.5t94 17.5l376 2h134q-23 47 -38.5 98t-15.5 105q0 57 19.5 112.5t54.5 98.5t85 68.5t112 25.5q78 0 109.5 -34t43.5 -84t17.5 -106.5t29.5 -99.5q23 -41 65 -74.5t77 -68.5q16 -18 33.5 -37t33.5 -39q18 -23 33.5 -39t42.5 -31h348
q49 0 84 -34.5t35 -83.5v-643q0 -49 -35 -84t-84 -35h-375q-61 0 -123.5 -16.5t-128 -36t-136 -36t-148.5 -16.5q-70 0 -132.5 17.5t-109.5 52.5t-75.5 90t-28.5 131q-39 45 -56.5 103.5t-7.5 117.5q-29 47 -39 107h-200q-49 0 -93.5 17.5t-76 49t-50 74.5t-18.5 92z
M121 821q0 -51 32.5 -81.5t84.5 -30.5q90 0 178 -1t178 -1q-14 -14 -26.5 -35t-12.5 -43q0 -74 59 -123q-20 -29 -20 -68q0 -37 18.5 -73.5t53.5 -53.5q-2 -12 -3 -24.5t-1 -26.5q0 -49 19 -82t50 -52.5t72 -27.5t84 -8q70 0 137.5 16.5t134 35t133 35t135.5 16.5v643h-4
q-41 16 -66.5 35.5t-47 42t-42 48t-48.5 56.5q-41 41 -85 78t-73 88q-29 53 -39 117.5t-23 123.5q-2 8 -3 12.5t-9 8.5q-4 2 -11 2h-11q-37 0 -65 -17.5t-46 -44t-28.5 -59.5t-10.5 -65q0 -49 15.5 -90.5t34 -79t34.5 -74.5t16 -78q-170 0 -337.5 -1t-339.5 -1
q-51 0 -84 -32t-33 -85zM1524 276q0 -35 23.5 -57t56.5 -22q35 0 57 22.5t22 56.5q0 33 -22.5 56.5t-56.5 23.5q-33 0 -56.5 -23.5t-23.5 -56.5z" />
  </g>

</svg>
