<?xml version="1.0" standalone="no"?>
<!DOCTYPE svg PUBLIC "-//W3C//DTD SVG 1.1//EN" "http://www.w3.org/Graphics/SVG/1.1/DTD/svg11.dtd" >
<svg viewBox="0 -512 2048 2048">
  <g transform="matrix(1 0 0 -1 0 1536)">
   <path fill="currentColor"
d="M0 602q0 61 25.5 111.5t68.5 85.5t98.5 54t112.5 19q53 0 104.5 -15t98.5 -38v133l2 377q0 49 17.5 93t49 76t74.5 50.5t94 18.5q49 0 92.5 -18.5t75 -50.5t49 -76t17.5 -93v-201q59 -10 106 -38q59 10 118 -7.5t104 -56.5q76 0 131 -28.5t90 -76t52 -109.5t17 -132
q0 -78 -16 -148.5t-35.5 -136t-36 -128t-16.5 -124.5v-374q0 -49 -35 -84t-84 -35h-643q-49 0 -84 34.5t-35 84.5v348q-14 27 -30.5 42t-38.5 34q-20 16 -39 33.5t-37 33.5q-35 35 -68.5 77t-74.5 64q-43 25 -99.5 30t-106.5 17.5t-84 44t-34 109.5zM120 591q-1 -7 1 -11
q4 -8 8 -9.5t12 -3.5q59 -12 124 -22t118 -39q51 -29 88 -73t78 -85q31 -29 56.5 -49t48 -41.5t42 -48.5t35.5 -66v-4h643q0 70 16.5 136.5t35 133t35 133t16.5 138.5q0 43 -8.5 84t-28 71.5t-52 50t-81.5 19.5q-14 0 -26.5 -1t-25.5 -3q-16 35 -53 53.5t-74 18.5
q-39 0 -67 -21q-49 59 -123 60q-23 0 -43.5 -12.5t-34.5 -26.5q0 90 -1 178t-1 178q0 51 -30.5 84t-82.5 33q-53 0 -84.5 -33t-31.5 -84q0 -172 -1 -340t-1 -338q-41 0 -78 16.5t-75 35t-79 34t-90 15.5q-33 0 -65.5 -10.5t-59 -29t-43 -46t-16.5 -64.5q0 -4 -1 -11z
M1210 -37q0 -35 23.5 -57.5t56.5 -22.5q35 0 57.5 22.5t22.5 57.5q0 33 -22.5 56.5t-57.5 23.5q-33 0 -56.5 -23.5t-23.5 -56.5z" />
  </g>

</svg>
