<?xml version="1.0" standalone="no"?>
<!DOCTYPE svg PUBLIC "-//W3C//DTD SVG 1.1//EN" "http://www.w3.org/Graphics/SVG/1.1/DTD/svg11.dtd" >
<svg viewBox="0 -512 2048 2048">
  <g transform="matrix(1 0 0 -1 0 1536)">
   <path fill="currentColor"
d="M0 584q0 78 34 109.5t84 44t106.5 17.5t99.5 29q41 23 74.5 65t68.5 77q18 16 36.5 33.5t39.5 33.5q23 18 39 33.5t30 42.5v348q0 49 35 84t84 35h643q49 0 84 -35t35 -84v-375q0 -61 16.5 -123.5t36 -128t35.5 -136t16 -148.5q0 -70 -17 -132.5t-52 -109.5t-90.5 -75.5
t-130.5 -28.5q-45 -39 -103.5 -56.5t-118.5 -7.5q-47 -29 -106 -39v-200q0 -49 -17.5 -93.5t-49 -76t-74.5 -50t-93 -18.5q-51 0 -94 18.5t-74.5 50t-49 75.5t-17.5 94l-2 376v134q-47 -23 -98.5 -38.5t-104.5 -15.5q-57 0 -112.5 19.5t-98.5 54.5t-68.5 85t-25.5 112z
M120 595q1 -7 1 -11q0 -37 16.5 -64.5t43 -46t59 -29t65.5 -10.5q49 0 90 15.5t79 34t75 35t78 16.5q0 -170 1 -338t1 -340q0 -51 31.5 -84t84.5 -33q51 0 82 32.5t31 84.5q0 90 1 178t1 178q14 -14 34.5 -26.5t43.5 -12.5q74 0 123 59q29 -20 67 -20q37 0 74 18.5t53 53.5
q12 -2 24.5 -3t27.5 -1q49 0 81.5 19t52 50t28 72t8.5 84q0 70 -16.5 137.5t-35 134t-35 133t-16.5 136.5h-643v-5q-16 -41 -35.5 -66.5t-42 -47t-48 -42t-56.5 -48.5q-41 -41 -78 -85t-88 -73q-53 -29 -117.5 -39t-124.5 -23l-12 -3l-8 -9q-2 -4 -1 -11zM1210 1223
q0 -33 23.5 -56.5t56.5 -23.5q35 0 57.5 23.5t22.5 56.5q0 35 -22.5 57.5t-57.5 22.5q-33 0 -56.5 -23t-23.5 -57z" />
  </g>

</svg>
