<?xml version="1.0" standalone="no"?>
<!DOCTYPE svg PUBLIC "-//W3C//DTD SVG 1.1//EN" "http://www.w3.org/Graphics/SVG/1.1/DTD/svg11.dtd" >
<svg viewBox="0 -512 2048 2048">
  <g transform="matrix(1 0 0 -1 0 1536)">
   <path fill="currentColor"
d="M0 768q0 166 62.5 311.5t171 254t254 171t311.5 62.5t311 -62.5t254 -171t171 -254t62 -311.5t-62 -311.5t-171 -254t-254 -171t-311 -62.5t-311.5 62.5t-254 171t-171 254t-62.5 311.5zM240 717q0 -29 20.5 -49.5t48.5 -20.5h613l-246 -246q-20 -20 -20.5 -48.5
t20.5 -49.5l74 -74q20 -20 47.5 -20t50.5 20l489 490q20 20 20.5 49t-20.5 49l-489 490q-20 20 -49 20t-49 -20l-74 -74q-20 -20 -20.5 -48t20.5 -50l246 -246h-613q-29 0 -49 -19.5t-20 -48.5v-104z" />
  </g>

</svg>
