<?xml version="1.0" standalone="no"?>
<!DOCTYPE svg PUBLIC "-//W3C//DTD SVG 1.1//EN" "http://www.w3.org/Graphics/SVG/1.1/DTD/svg11.dtd" >
<svg viewBox="0 -512 2048 2048">
  <g transform="matrix(1 0 0 -1 0 1536)">
   <path fill="currentColor"
d="M0 768q0 166 62.5 311.5t171 254t254 171t311.5 62.5t311 -62.5t254 -171t171 -254t62 -311.5t-62 -311.5t-171 -254t-254 -171t-311 -62.5t-311.5 62.5t-254 171t-171 254t-62.5 311.5zM240 769q0 -28 20 -50l490 -490q20 -20 48.5 -20t49.5 20l489 490q20 20 20.5 49
t-20.5 49l-73 74q-20 20 -48 20t-51 -20l-245 -246v612q0 29 -19.5 49.5t-48.5 20.5h-104q-29 0 -49.5 -20.5t-20.5 -49.5v-612l-246 246q-20 20 -49 20t-49 -20l-74 -74q-20 -20 -20 -48z" />
  </g>

</svg>
