<?xml version="1.0" standalone="no"?>
<!DOCTYPE svg PUBLIC "-//W3C//DTD SVG 1.1//EN" "http://www.w3.org/Graphics/SVG/1.1/DTD/svg11.dtd" >
<svg viewBox="0 -512 2048 2048">
  <g transform="matrix(1 0 0 -1 0 1536)">
   <path fill="currentColor"
d="M0 768q0 162 63.5 307.5t173 255t254 173t308.5 63.5q162 0 307 -63.5t254.5 -173t173 -255t63.5 -307.5q0 -164 -63.5 -308.5t-173 -254t-254.5 -173t-307 -63.5q-164 0 -308.5 63.5t-254 173t-173 254t-63.5 308.5zM186 1141h4q4 0 12.5 3t8.5 -9q0 -4 -3 -10.5
t11 -6.5q4 0 5 6t3 0l4 -16v-2q0 -4 -5 -6t-3 -6q4 -4 9.5 -4h9.5l4 2l2 2q0 -6 6 -8.5t10 -2.5h2q0 -2 -4 -4t0 -6l23 -4v-2l14 -29q0 -4 -3 -10t-7 -6t-3 3t1 7t-2 7t-15 3q-2 0 -5 -1t-1 -5l12 -26l3 -2l2 -2q-10 0 -13.5 -24t-3.5 -34l4 -18l2 -6v-4l-4 -19l29 -43h6
q2 -4 -2 -8t-2 -8l8 -8q0 -10 4 -14.5t13 -12.5q-2 -12 20.5 -22.5t28.5 -14.5q8 -23 20 -45.5t29 -38.5l2 -14q0 -2 -5 -4t-1 -6l16 -7q4 4 10.5 -8t10.5 -16l-2 -6l12 -17l6 -2l4 8q-4 10 -14 26.5t-20.5 32t-17.5 28t-7 14.5t-2 16t-4 17q6 -4 15 -7.5t15 -7.5
q4 -25 19.5 -40t27.5 -34q-4 -4 0 -5t7 -1q4 -4 4 -14q14 -16 36.5 -44t22.5 -44v-2l-4 -14q6 -16 20.5 -25.5t28.5 -15.5h4q20 -10 41 -21.5t43 -19.5l23 14q8 -2 17 -10t20.5 -18.5t27 -19.5t35.5 -11q14 10 14 -5v-4l25 -30l4 -15q10 -6 20.5 -15t16.5 -20h4
q10 0 16.5 -9t16.5 -9q6 0 6 6q0 14 2 18.5t5 5.5t6 1t3 4l-4 6q-4 0 -6 -5t-6 -1l-14 -8l-17 4l-24 41l8 57q2 4 -7.5 9t-5.5 10q-14 8 -34 8q-4 0 -20.5 -3t-16.5 3t3 16t7 21.5t6 19.5t2 10l13 27l-3 4l-16 4q-4 0 -13 -6t-17.5 -14.5t-14.5 -16.5t-6 -14l-45 -10
q-14 0 -23 12q-4 16 -17 35.5t-13 34.5q0 23 8 43t-6 43q2 0 5 2t1 6l12 14l2 2l2 -2q14 10 37 7t29 14l16 -13q4 -2 9 4.5t5 10.5l-8 4l39 10l2 -6l19 2l22 -14q4 0 8 5t9 1l20 -21q-4 -8 -1 -12t3 -8q0 -6 10.5 -27.5t18.5 -21.5q10 0 9 13t-1 17q0 20 -8 39t-15 39v6
q0 10 12.5 17.5t12.5 9.5q10 8 22.5 16t18.5 19l8 16v10h6l4 6q0 2 -3 3.5t-7 5.5q-4 2 -8 6l6 4q4 6 6 15t-2 16l15 8q-2 -6 4 -8t10 0l10 16q-4 10 -5 7t5 7q10 4 19.5 9.5t19.5 5.5q2 -2 4 -2q6 0 6 2q0 10 -4 12l12 25q14 0 21 12l18 2q6 2 6 8v2l35 10l4 11l-10 14
q2 0 2 4t-4 6t-7 4t-7 4l-4 -2l4 2h6h13l9 9q0 12 -14 12q-18 0 -41.5 -8.5t-32.5 -28.5l-14 -8l18 18l3 6q0 4 -9.5 5.5t-5.5 1.5q18 0 27.5 4t15.5 9t12.5 10t18.5 9q23 -4 44 -2t44 2q6 4 12 8.5t8 10.5l23 4q4 -4 12 2t8 10q0 10 -11 13t-11 14q0 2 1 6t-3 4
q-6 0 -19.5 -6t-19.5 -10q-4 -2 -5 1t-1 7l2 -2l8 4l23 8l4 4q0 6 -7.5 8t-11.5 2t-12 -3t-8 3l2 4q-12 10 -21.5 22.5t-9.5 16.5t1 8.5t-5 4.5q-4 0 -7 -1t-3 5q0 4 -5 17t-14 13l-8 -8q0 -6 -6 -9t-6 -7h-4l-21 -12q-2 4 -5 2t-7 -2h-2l-2 -2q8 0 7 9t-7 9l-16 -4
q-4 0 -4.5 1t2 4t4.5 7t0 8t-6.5 1t-4.5 1h6l5 5q2 2 -1.5 7t-5.5 7l-22 4l-14 12q-2 -2 -7.5 3t-9.5 7l-16 -6l-39 9q-4 0 -8 -2.5t-4 -6.5t4 -6t4 -6t3 -21.5t-5 -13.5l-10 -14q2 -4 7 -7t10 -7.5t9 -10.5t2 -18l-45 -31v-4q0 -8 4 -15t8 -18q10 -4 9.5 -7t-7 -6t-12.5 -6
t-6 -5t-4 -2h-8h-4q0 2 2 3t2 5l-19 12v-2l-8 16q4 10 1 14.5t-3 10.5q0 16 -14.5 16t-30.5 -4q4 2 -1 6.5t-7 4.5q-16 0 -38 14t-36 14q-6 0 -14 -2t-15 -4q4 2 5 10l-13 23l-2 2q-6 0 -14 -5t-8 9q0 2 2 4t0 4q-2 12 5 20.5t11 18.5q4 4 4 8t4 4q8 0 15.5 4.5t17.5 6.5
l2 6q0 4 -21.5 7t-21.5 7l2 2q20 -6 30.5 -7t17.5 2t16.5 8t29.5 14q0 4 -21.5 8t-27.5 8h12q4 0 10.5 -2t10.5 -4q0 -4 6 -5t10 -1l15 10v6l-4 6l22 4q-2 2 1 4t5 2q6 0 12.5 -6t8.5 -6l20 8q-2 2 5.5 3t4.5 6l-14 16q-2 0 -3 3t1 3q10 0 6 10q-8 4 -17 9.5t-20 5.5
q-4 0 -9 -2t-5 -7q0 -4 5 -4t7 -4q4 -4 -2 -4t-6 -2q-8 0 -15 -12t-18 -17q-4 0 -3 2.5t-1 4.5q-2 4 -7 5t-5 5t5 13t-13 9q-8 0 -11.5 -6t-7.5 -12l-22 25l-17 2q0 8 3.5 14t-9.5 16q-6 4 -11 7.5t-11 3.5q-2 0 -9.5 -4.5t-13.5 -8.5t-6 -8t10 -4h-2q-6 0 -6 -8
q0 -2 9.5 -5t13.5 -3q4 2 6 -1.5t6 -3.5l8 3v-5q-2 -2 -2 -4l2 -8l-20 -10q-2 -2 -4 -2t-5 -2q0 -6 5.5 -12.5t-11.5 -6.5l-6 4q0 8 -16.5 13.5t-40 7.5t-47 3t-35.5 1l-33 -10l8 -19q-4 0 -5 -3t3 -5q-4 4 -15 14.5t-15 10.5l-17 4q-35 -2 -78 -33t-84 -72t-75.5 -84
t-53.5 -71zM471 674h2h-2zM487 1413q14 2 25.5 8t24.5 6l6 -4q6 -2 11 -2t9 -4q8 2 17 -2l6 4v8l-2 5l6 -2q6 0 12 10l-2 4q-4 2 -10 4t-10 2t-16.5 -5t-28 -11.5t-29.5 -12.5t-19 -8zM918 86q0 -4 3 -9t3 -9q0 -5 -2 -7q115 20 217 74.5t182 140.5h-2q-8 -4 -14 0l-5 -4
l-12 4h-4l-4 -8l2 8q-6 8 -14 15l-4 2q-4 0 -4 -8q2 16 -8.5 27.5t-26.5 11.5q0 -2 -2 -2h-4l-5 4h7l4 12l-11 8l-2 -2q-14 2 -20 16l-4 2l-2 -2l-4 -2q-12 -4 -21 -8q-12 4 -18 10l-27 -2q0 6 -4 12.5t-12 6.5q-10 0 -20.5 -2t-14.5 -13q0 -4 2 -8t4 -6v-8l-2 -6l-4 -2h-2
l-6 16l6 10q-2 4 -2 10.5t-2 10.5l-2 4h-6l-15 -10h-8l-4 -4q-2 -2 -2 -4t-2 -3l-2 3h-8q-8 -8 -9 -19l3 -4l-9 -6l-2 -4l-6 -4q0 -2 -1 -2t-1 -2v-2v-9l-2 -2v4l-2 2q-2 12 -23 21h-6v-4q2 -6 8.5 -10.5t10.5 -8.5q-2 2 -5 1t-3 -3v-4l14 -20v-39l4 -10q-4 -16 -16 -27v2
l-4 -2l-3 -2l-2 -10l2 -2v-2l-4 4l-2 -13l-12 -4q-6 -4 -5 -11t-5 -11l2 -4l-6 -6q0 -4 -1 -6.5t-1 -6.5l2 -14l6 -4l4 4l2 6l2 -12q0 -4 -4 -8q-6 -4 -12 -9.5t-6 -15.5z" />
  </g>

</svg>
