<?xml version="1.0" standalone="no"?>
<!DOCTYPE svg PUBLIC "-//W3C//DTD SVG 1.1//EN" "http://www.w3.org/Graphics/SVG/1.1/DTD/svg11.dtd" >
<svg viewBox="0 -512 2048 2048">
  <g transform="matrix(1 0 0 -1 0 1536)">
   <path fill="currentColor"
d="M8 242q0 33 12.5 62.5t34.5 51.5l609 609q-16 66 -17 122q0 98 38 186.5t102.5 153t151.5 102.5t185 38q94 0 181.5 -36t154.5 -101l-442 -162l-43 -236l184 -153l443 159q-10 -92 -50.5 -171t-104 -137t-145 -91t-174.5 -33q-61 0 -127 17l-606 -607q-47 -47 -112 -47
q-68 0 -115 47q-23 23 -50.5 47.5t-52 52t-41 58.5t-16.5 68zM203 242q0 -33 22.5 -56.5t57.5 -23.5q33 0 56 23.5t23 56.5q0 35 -23.5 57.5t-55.5 22.5q-35 0 -57.5 -23t-22.5 -57z" />
  </g>

</svg>
