<?xml version="1.0" standalone="no"?>
<!DOCTYPE svg PUBLIC "-//W3C//DTD SVG 1.1//EN" "http://www.w3.org/Graphics/SVG/1.1/DTD/svg11.dtd" >
<svg viewBox="0 -512 2048 2048">
  <g transform="matrix(1 0 0 -1 0 1536)">
   <path fill="currentColor"
d="M0 76v217q0 31 22.5 53.5t53.5 22.5h1689q33 0 55.5 -22.5t22.5 -53.5v-217q0 -31 -22.5 -53.5t-55.5 -22.5h-1689q-31 0 -53.5 22.5t-22.5 53.5zM0 662v215q0 31 22.5 53t53.5 22h1689q33 0 55.5 -22.5t22.5 -52.5v-215q0 -33 -22.5 -55.5t-55.5 -22.5h-1689
q-31 0 -53.5 22.5t-22.5 55.5zM0 1243v217q0 31 22.5 53.5t53.5 22.5h1689q33 0 55.5 -22.5t22.5 -53.5v-217q0 -31 -22.5 -53.5t-55.5 -22.5h-1689q-31 0 -53.5 22.5t-22.5 53.5zM752 692h999v154h-999v-154zM1059 109h692v153h-692v-153zM1366 1274h385v153h-385v-153z
" />
  </g>

</svg>
