<?xml version="1.0" standalone="no"?>
<!DOCTYPE svg PUBLIC "-//W3C//DTD SVG 1.1//EN" "http://www.w3.org/Graphics/SVG/1.1/DTD/svg11.dtd" >
<svg viewBox="0 -512 2048 2048">
  <g transform="matrix(1 0 0 -1 0 1536)">
   <path fill="currentColor"
d="M0 80v477q0 51 24.5 61.5t59.5 -24.5l162 -162l340 338l-338 338l-164 -164q-35 -35 -59.5 -25.5t-24.5 60.5v477q0 31 23 57q27 23 57 23h477q51 0 61.5 -24.5t-24.5 -59.5l-160 -158l338 -338l332 334l-162 162q-35 35 -24.5 59.5t61.5 24.5h477q33 0 55 -23
q25 -25 25 -57v-477q0 -51 -24.5 -61.5t-59.5 24.5l-162 162l-334 -334l338 -336l158 160q35 35 59.5 24.5t24.5 -61.5v-477q0 -35 -25 -55q-23 -25 -55 -25h-477q-51 0 -61.5 24.5t24.5 59.5l166 166l-336 336l-340 -340l162 -162q35 -35 24.5 -59.5t-61.5 -24.5h-477
q-31 0 -55 25q-25 20 -25 55z" />
  </g>

</svg>
