<?xml version="1.0" standalone="no"?>
<!DOCTYPE svg PUBLIC "-//W3C//DTD SVG 1.1//EN" "http://www.w3.org/Graphics/SVG/1.1/DTD/svg11.dtd" >
<svg viewBox="0 -512 2048 2048">
  <g transform="matrix(1 0 0 -1 0 1536)">
   <path fill="currentColor"
d="M0 852v152q0 18 1 47.5t10 56.5t29.5 46.5t57.5 19.5q-45 29 -71.5 75.5t-26.5 104.5q0 43 16.5 82t46 68.5t68.5 46t82 16.5q45 0 84 -16.5t67.5 -46t46 -68.5t17.5 -82q0 -57 -27.5 -104t-72.5 -76q37 0 57.5 -19.5t29.5 -46.5t11 -56.5t2 -47.5v-152
q-14 -8 -23.5 -18.5t-27.5 -10.5h-328q-16 0 -26.5 10.5t-22.5 18.5zM158 57v387q0 78 45 138.5t98 109.5q10 10 25.5 21.5t33.5 15.5q18 6 41 7t45 5q61 10 130 19.5t135 19.5q-90 57 -144.5 151.5t-54.5 207.5q0 88 34 166.5t92 136t136 91.5t166 34t166 -34t136 -91.5
t92 -136t34 -166.5q0 -113 -54 -207t-145 -152q66 -10 134.5 -19t130.5 -20q23 -4 45 -5t41 -7q18 -4 33.5 -15.5t27.5 -21.5q66 -59 103.5 -116.5t37.5 -131.5v-387q-12 -6 -20 -13t-18.5 -14t-23.5 -14.5t-36 -15.5h-1368q-35 0 -54.5 22.5t-43.5 34.5zM1452 852v152
q0 18 2 47.5t11.5 56.5t30 46.5t56.5 19.5q-45 29 -72.5 75.5t-27.5 104.5q0 43 16.5 82t46 68.5t68.5 46t84 16.5q43 0 82 -16.5t68.5 -46t46 -68.5t16.5 -82q0 -57 -26.5 -104t-71.5 -76q37 0 56.5 -19.5t28.5 -46.5t11 -56.5t2 -47.5v-152q-12 -8 -22.5 -18.5
t-26.5 -10.5h-328q-18 0 -27.5 10.5t-23.5 18.5z" />
  </g>

</svg>
