<?xml version="1.0" standalone="no"?>
<!DOCTYPE svg PUBLIC "-//W3C//DTD SVG 1.1//EN" "http://www.w3.org/Graphics/SVG/1.1/DTD/svg11.dtd" >
<svg viewBox="0 -512 2048 2048">
  <g transform="matrix(1 0 0 -1 0 1536)">
   <path fill="currentColor"
d="M0 391q0 70 23.5 132.5t64.5 113.5t96.5 86t120.5 51q-33 41 -51 90t-18 105q0 66 24.5 123t66.5 99t99 66.5t123 24.5q113 0 196 -72q18 76 61.5 141.5t103 113.5t133 75t157.5 27q96 0 182 -37t149.5 -100.5t100.5 -149.5t37 -182q0 -57 -13 -109.5t-36 -99.5
q117 -59 188.5 -170t71.5 -248q0 -98 -37 -183t-101.5 -149.5t-149.5 -101.5t-183 -37h-1018q-80 0 -151.5 30.5t-125 84t-84 125t-30.5 151.5z" />
  </g>

</svg>
