<?xml version="1.0" standalone="no"?>
<!DOCTYPE svg PUBLIC "-//W3C//DTD SVG 1.1//EN" "http://www.w3.org/Graphics/SVG/1.1/DTD/svg11.dtd" >
<svg viewBox="0 -512 2048 2048">
  <g transform="matrix(1 0 0 -1 0 1536)">
   <path fill="currentColor"
d="M0 385v707q0 33 16.5 70.5t38.5 60.5l258 258q23 23 61 39t70 16h463q31 0 53.5 -22.5t22.5 -53.5v-250q16 8 35.5 13.5t40.5 5.5h463q31 0 53 -22.5t22 -53.5v-1075q0 -33 -22.5 -55.5t-52.5 -22.5h-830q-33 0 -55.5 22.5t-22.5 55.5v229h-536q-33 0 -55.5 22.5
t-22.5 55.5zM154 461h460v293q0 45 10.5 87t45.5 74l159 162v305h-278v-321q0 -31 -22.5 -53.5t-53.5 -22.5h-321v-524zM186 1139h211v211zM768 154h676v921h-279v-321q0 -31 -22.5 -53.5t-52.5 -22.5h-322v-524zM801 831h211v211z" />
  </g>

</svg>
