<?xml version="1.0" standalone="no"?>
<!DOCTYPE svg PUBLIC "-//W3C//DTD SVG 1.1//EN" "http://www.w3.org/Graphics/SVG/1.1/DTD/svg11.dtd" >
<svg viewBox="0 -512 2048 2048">
  <g transform="matrix(1 0 0 -1 0 1536)">
   <path fill="currentColor"
d="M0 1128q0 90 35 170t94 139.5t139 94.5t170 35q88 0 169 -34t143 -95l655 -656q12 -12 12 -28q0 -10 -11 -26.5t-26.5 -32t-32 -27t-26.5 -11.5q-16 0 -29 13l-655 655q-41 41 -92 61.5t-107 20.5q-57 0 -108 -21.5t-89 -59.5t-59.5 -89t-21.5 -109q0 -55 20.5 -106
t61.5 -92l745 -746q55 -55 133 -55q39 0 74 15.5t60.5 41t41 60.5t15.5 73q0 78 -56 134l-563 563q-29 29 -69 28q-41 0 -71 -29.5t-30 -70.5t29 -70l475 -475q12 -12 12 -28q0 -10 -11 -26.5t-26.5 -32t-32 -27t-26.5 -11.5q-16 0 -29 13l-475 473q-35 37 -55.5 85
t-20.5 99q0 53 20.5 100.5t55.5 83t83.5 56t101.5 20.5q51 0 99 -20.5t85 -55.5l561 -563q102 -102 102 -246q0 -74 -27.5 -137t-74.5 -110t-110.5 -75t-137.5 -28q-143 0 -246 103l-745 745q-61 61 -95 142t-34 169z" />
  </g>

</svg>
