<?xml version="1.0" standalone="no"?>
<!DOCTYPE svg PUBLIC "-//W3C//DTD SVG 1.1//EN" "http://www.w3.org/Graphics/SVG/1.1/DTD/svg11.dtd" >
<svg viewBox="0 -512 2048 2048">
  <g transform="matrix(1 0 0 -1 0 1536)">
   <path fill="currentColor"
d="M0 211q0 39 15.5 75t41 61.5t60.5 40.5t76 15q39 0 73.5 -15t61 -40.5t42 -61.5t15.5 -75q0 -41 -15.5 -76t-42 -60.5t-61.5 -41t-73 -15.5q-80 0 -136.5 56.5t-56.5 136.5zM0 768q0 39 15.5 75t41 61.5t60.5 41t76 15.5q39 0 73.5 -15.5t61 -41t42 -61.5t15.5 -75
q0 -41 -15.5 -76t-42 -60.5t-61.5 -41t-73 -15.5q-41 0 -76 15.5t-60.5 41t-41 60.5t-15.5 76zM0 1325q0 39 15.5 75t41 61.5t60.5 41t76 15.5q39 0 73.5 -15.5t61 -41t42 -61.5t15.5 -75q0 -41 -15.5 -76t-42 -60.5t-61.5 -40.5t-73 -15q-41 0 -76 15t-60.5 40.5t-41 60.5
t-15.5 76zM522 154v114q0 33 22.5 55.5t55.5 22.5h1167q31 0 53.5 -22.5t22.5 -55.5v-114q0 -33 -22.5 -54.5t-53.5 -21.5h-1167q-33 0 -55.5 21.5t-22.5 54.5zM522 711v114q0 33 22.5 55.5t55.5 22.5h1167q31 0 53.5 -22.5t22.5 -55.5v-114q0 -33 -22.5 -55.5t-53.5 -22.5
h-1167q-33 0 -55.5 22.5t-22.5 55.5zM522 1268v114q0 33 22.5 55.5t55.5 22.5h1167q31 0 53.5 -22.5t22.5 -55.5v-114q0 -33 -22.5 -55.5t-53.5 -22.5h-1167q-33 0 -55.5 22.5t-22.5 55.5z" />
  </g>

</svg>
