<?xml version="1.0" standalone="no"?>
<!DOCTYPE svg PUBLIC "-//W3C//DTD SVG 1.1//EN" "http://www.w3.org/Graphics/SVG/1.1/DTD/svg11.dtd" >
<svg viewBox="0 -512 2048 2048">
  <g transform="matrix(1 0 0 -1 0 1536)">
   <path fill="currentColor"
d="M0 594q0 55 30.5 90t68.5 61.5t69 50t31 56.5q0 29 -17.5 44t-46.5 15q-25 0 -44 -15t-34 -36l-53 37q23 39 58.5 60.5t78.5 21.5q55 0 96.5 -32t41.5 -91q0 -49 -30 -80t-67 -55.5t-67.5 -47t-30.5 -55.5h143v54h66v-115h-289q-2 10 -3 18.5t-1 18.5zM4 55l37 54
q6 -4 12 -10.5t15 -10.5q12 -8 29.5 -14t37.5 -6q35 0 55.5 18t20.5 47q0 31 -23.5 48.5t-58.5 17.5h-23l-16 37l90 108l6 6l7 6l4 6h-9q-4 -2 -14 -2h-92v-49h-66v111h263v-53l-97 -115q41 -6 74 -35t33 -82t-38 -95t-110 -42q-35 0 -60.5 9t-41.5 20q-25 14 -35 26z
M14 1434l105 102h67v-360h93v-62h-259v62h93v258v8h-2q-10 -16 -22.5 -28.5t-29.5 -27.5zM522 154v114q0 33 22.5 55.5t55.5 22.5h1167q31 0 53.5 -22.5t22.5 -55.5v-114q0 -33 -22.5 -54.5t-53.5 -21.5h-1167q-33 0 -55.5 21.5t-22.5 54.5zM522 711v114q0 33 22.5 55.5
t55.5 22.5h1167q31 0 53.5 -22.5t22.5 -55.5v-114q0 -33 -22.5 -55.5t-53.5 -22.5h-1167q-33 0 -55.5 22.5t-22.5 55.5zM522 1268v114q0 33 22.5 55.5t55.5 22.5h1167q31 0 53.5 -22.5t22.5 -55.5v-114q0 -33 -22.5 -55.5t-53.5 -22.5h-1167q-33 0 -55.5 22.5t-22.5 55.5z
" />
  </g>

</svg>
