<?xml version="1.0" standalone="no"?>
<!DOCTYPE svg PUBLIC "-//W3C//DTD SVG 1.1//EN" "http://www.w3.org/Graphics/SVG/1.1/DTD/svg11.dtd" >
<svg viewBox="0 -512 2048 2048">
  <g transform="matrix(1 0 0 -1 0 1536)">
   <path fill="currentColor"
d="M0 692v152h1536v-152h-1536zM268 1114q0 117 44 202t118 141t170 83t203 27q88 0 176 -20.5t172 -49.5q20 -72 27.5 -156t7.5 -157q0 -10 -1 -22.5t-3 -24.5l-13 -2q-23 2 -50 2t-50 6q-18 59 -44 114.5t-62.5 98.5t-88 68.5t-122.5 25.5q-49 0 -94.5 -13.5t-80 -40
t-56 -66.5t-21.5 -93q0 -59 28.5 -102t75.5 -75t105.5 -54.5t118 -42t113.5 -39t93 -41.5h-696q-33 53 -51.5 110.5t-18.5 120.5zM285 310v63v45l110 2q31 -72 64 -134.5t76 -108.5t104 -71.5t152 -25.5q55 0 110 16.5t100.5 48t74 78.5t28.5 109q0 76 -49 128t-119 88
t-146.5 59.5t-132.5 45.5h617q8 -16 15 -38.5t10.5 -48t5.5 -50t2 -43.5q0 -131 -47.5 -226t-127 -156.5t-186 -91.5t-225.5 -30q-53 0 -93 4t-78 12.5t-78 20.5t-93 29q-12 4 -38 12t-36 16q-8 6 -12 50.5t-6 96.5t-2 100z" />
  </g>

</svg>
