<?xml version="1.0" standalone="no"?>
<!DOCTYPE svg PUBLIC "-//W3C//DTD SVG 1.1//EN" "http://www.w3.org/Graphics/SVG/1.1/DTD/svg11.dtd" >
<svg viewBox="0 -512 2048 2048">
  <g transform="matrix(1 0 0 -1 0 1536)">
   <path fill="currentColor"
d="M0 0v154h1536v-154h-1536zM0 1532q10 2 19.5 2h19.5q72 0 140.5 -5t137.5 -5q100 0 200.5 2t199.5 6q-4 -16 -1 -36.5t3 -37.5v-8q-66 -10 -108 -7t-65.5 -5t-32.5 -39t-9 -109q0 -137 4 -272t10 -273q8 -147 88 -237t238 -90q125 0 207 29.5t131 88t69.5 146.5t20.5 203
q0 20 -2 65t-5 102.5t-8.5 119t-11.5 113.5t-13 89t-15 45q-33 33 -78 33q-6 0 -23.5 -1t-36 -1t-34 1t-21.5 3l2 82q82 4 163 -3t165 -7q39 0 77.5 5t79.5 5q4 0 9.5 -1t9.5 -1q2 -12 4 -24.5t2 -24.5t-4 -29q-23 -6 -52.5 -8t-58 -7t-48 -16.5t-19.5 -38.5q0 -14 1 -27
t3 -28q2 -6 5 -38.5t5 -79t4 -101.5t4 -103t3 -85t1 -50q0 -37 -2 -80.5t-8 -89t-17.5 -87.5t-29.5 -74q-41 -68 -104.5 -114t-137 -72.5t-153.5 -38t-154 -11.5q-72 0 -144.5 9.5t-140.5 35.5q-96 35 -151 88.5t-84 121t-36 148.5t-7 173v321v42l-1 62.5l-5 60.5l-10 38
q-12 16 -37 23.5t-53.5 10.5t-56.5 3t-44 4z" />
  </g>

</svg>
