<?xml version="1.0" standalone="no"?>
<!DOCTYPE svg PUBLIC "-//W3C//DTD SVG 1.1//EN" "http://www.w3.org/Graphics/SVG/1.1/DTD/svg11.dtd" >
<svg viewBox="0 -512 2048 2048">
  <g transform="matrix(1 0 0 -1 0 1536)">
   <path fill="currentColor"
d="M0 115v1306q0 47 34 81t81 34h1614q47 0 80.5 -34t33.5 -81v-1306q0 -47 -33.5 -81t-80.5 -34h-1614q-47 0 -81 34t-34 81zM154 154h460v335h-460v-335zM154 565h460v332h-460v-332zM154 975h460v332h-460v-332zM692 154h461v335h-461v-335zM692 565h461v332h-461v-332z
M692 975h461v332h-461v-332zM1229 154h461v335h-461v-335zM1229 565h461v332h-461v-332zM1229 975h461v332h-461v-332z" />
  </g>

</svg>
