<?xml version="1.0" standalone="no"?>
<!DOCTYPE svg PUBLIC "-//W3C//DTD SVG 1.1//EN" "http://www.w3.org/Graphics/SVG/1.1/DTD/svg11.dtd" >
<svg viewBox="0 -512 2048 2048">
  <g transform="matrix(1 0 0 -1 0 1536)">
   <path fill="currentColor"
d="M0 197q0 39 29 61l1579 1247q20 17 47 17q35 0 59 -29q10 -12 29.5 -33.5t38 -44t32 -47.5t13.5 -43q0 -39 -29 -61l-1579 -1248q-20 -16 -47 -16q-37 0 -59 29q-10 12 -30 33.5t-38 44t-31.5 47t-13.5 43.5zM256 922l117 36l37 117l34 -117l119 -36l-119 -37l-34 -117
l-37 117zM373 1229l235 71l72 236l72 -236l235 -71l-235 -72l-72 -235l-72 235zM942 1382l117 37l37 117l37 -117l116 -37l-116 -36l-37 -117l-37 117zM1286 1153l94 -121l369 291l-94 121zM1536 885l117 35l37 118l36 -118l117 -35l-117 -37l-36 -117l-37 117z" />
  </g>

</svg>
