<?xml version="1.0" standalone="no"?>
<!DOCTYPE svg PUBLIC "-//W3C//DTD SVG 1.1//EN" "http://www.w3.org/Graphics/SVG/1.1/DTD/svg11.dtd" >
<svg viewBox="0 -512 2048 2048">
  <g transform="matrix(1 0 0 -1 0 1536)">
   <path fill="currentColor"
d="M0 358v404q0 25 6 51.5t17.5 53t27 51t31.5 40.5l223 222q16 16 41 31.5t51.5 26.5t53 17.5t51.5 6.5h80v198q0 31 22.5 53.5t52.5 22.5h1108q33 0 55.5 -22.5t22.5 -53.5v-1102q0 -31 -22.5 -53t-55.5 -22h-75v-7q0 -63 -25 -119.5t-65.5 -97.5t-97 -65.5t-120.5 -24.5
q-63 0 -119.5 24.5t-97.5 65.5t-65.5 97.5t-24.5 119.5v7h-307v-7q0 -63 -24.5 -119.5t-65.5 -97.5t-97.5 -65.5t-119.5 -24.5t-119.5 24.5t-97.5 65.5t-65.5 97.5t-24.5 119.5v7h-78q-31 0 -53.5 22.5t-22.5 52.5zM193 700h387v369h-78q-10 0 -31.5 -8t-30.5 -17l-223 -221
q-8 -8 -16 -29.5t-8 -31.5v-62zM346 276q0 -47 34 -80.5t81 -33.5t80.5 33.5t33.5 80.5t-33.5 81t-80.5 34t-81 -33.5t-34 -81.5zM1268 276q0 -47 33.5 -80.5t80.5 -33.5t81 33.5t34 80.5t-33.5 81t-81.5 34q-47 0 -80.5 -33.5t-33.5 -81.5z" />
  </g>

</svg>
