<?xml version="1.0" standalone="no"?>
<!DOCTYPE svg PUBLIC "-//W3C//DTD SVG 1.1//EN" "http://www.w3.org/Graphics/SVG/1.1/DTD/svg11.dtd" >
<svg viewBox="0 -512 2048 2048">
  <g transform="matrix(1 0 0 -1 0 1536)">
   <path fill="currentColor"
d="M0 768q0 166 62.5 311.5t171 254t254 171t311.5 62.5t311 -62.5t254 -171t171 -254t62 -311.5t-62 -311.5t-171 -254t-254 -171t-311 -62.5q-59 0 -115.5 8.5t-112.5 24.5q23 35 46.5 80t35.5 92l11 41q6 23 16 66t29 112q23 -41 76 -70.5t118 -29.5q96 0 176 41
t136.5 114.5t88 174t31.5 217.5q0 88 -35.5 171t-102.5 147.5t-160 102t-208 37.5q-141 0 -248.5 -46t-179 -118.5t-107.5 -160.5t-36 -174q0 -104 40 -187.5t124 -117.5q31 -10 41 20q2 10 7 31.5t9 32.5q4 16 1 23t-13 22q-53 59 -53 155q0 76 27.5 145.5t78.5 122t124 84
t163 31.5q80 0 142.5 -23.5t105.5 -64.5t64.5 -96t21.5 -121q0 -86 -18.5 -164t-52.5 -136t-80 -92t-103 -34q-31 0 -57.5 12.5t-45 34t-25.5 49t1 60.5q18 76 44.5 151.5t26.5 130.5q0 49 -26.5 84t-81.5 35q-66 0 -110 -58.5t-44 -146.5q-2 -23 2 -45q2 -18 7.5 -40.5
t15.5 -41.5q-33 -141 -53.5 -225t-30.5 -131q-12 -55 -18 -80q-10 -45 -13.5 -93t-1.5 -89q-104 45 -192 119.5t-151.5 169t-98.5 207t-35 235.5z" />
  </g>

</svg>
