<?xml version="1.0" standalone="no"?>
<!DOCTYPE svg PUBLIC "-//W3C//DTD SVG 1.1//EN" "http://www.w3.org/Graphics/SVG/1.1/DTD/svg11.dtd" >
<svg viewBox="0 -512 2048 2048">
  <g transform="matrix(1 0 0 -1 0 1536)">
   <path fill="currentColor"
d="M0 193v1150q0 39 15.5 75t41 61.5t60.5 41t76 15.5h1150q80 0 136.5 -56.5t56.5 -136.5v-1150q0 -41 -15.5 -76t-41 -60.5t-61.5 -41t-75 -15.5h-829q27 39 59.5 95.5t49.5 117.5l10 41q6 25 17.5 68t29.5 112q20 -41 75.5 -70.5t121.5 -29.5q96 0 176 42t137 115.5
t89 175t32 220.5q0 90 -37 173t-103.5 147.5t-161 102.5t-208.5 38q-143 0 -251 -46.5t-180.5 -120t-108.5 -162.5t-36 -175q0 -104 40 -188.5t124 -118.5q14 -6 25.5 -1t15.5 21q4 10 8 31.5t8 34.5q8 23 -12 43q-23 29 -37 67.5t-14 91.5q0 76 27.5 145.5t79 123t124 85
t164.5 31.5q82 0 144.5 -23.5t105.5 -64.5t64.5 -97t21.5 -124q0 -86 -18.5 -164t-52 -136t-81 -93t-104.5 -35q-31 0 -57.5 12.5t-45 34t-25.5 49t1 60.5q18 78 45 154.5t27 131.5q0 49 -26.5 85t-82.5 36q-66 0 -110.5 -59t-44.5 -150q-2 -23 2 -45q4 -43 22 -84
q-35 -141 -54.5 -226t-29.5 -132q-12 -55 -18 -80q-16 -70 -14 -142.5t6 -117.5h-260q-80 0 -136.5 56.5t-56.5 136.5z" />
  </g>

</svg>
