<?xml version="1.0" standalone="no"?>
<!DOCTYPE svg PUBLIC "-//W3C//DTD SVG 1.1//EN" "http://www.w3.org/Graphics/SVG/1.1/DTD/svg11.dtd" >
<svg viewBox="0 -512 2048 2048">
  <g transform="matrix(1 0 0 -1 0 1536)">
   <path fill="currentColor"
d="M0 262q0 100 56.5 166t139.5 105.5t179 56t174 18.5q-23 29 -41.5 64t-18.5 76q0 23 6.5 41t14.5 40q-16 -4 -33.5 -4h-34.5q-68 0 -130 23.5t-108 66.5t-74 101.5t-28 130.5q0 68 25 128t67 109.5t98 84t120 49.5q88 18 176 18h411l-127 -74h-127q72 -43 107 -120.5
t35 -157.5q0 -94 -33 -149.5t-73 -94.5t-72.5 -70.5t-32.5 -78.5q0 -45 44 -82t97 -82t97 -107.5t44 -161.5q0 -102 -50 -175.5t-126.5 -121t-170 -70t-181.5 -22.5q-66 0 -141.5 15.5t-140 50.5t-106.5 90t-42 137zM174 307q0 -68 35 -116t87 -78.5t114.5 -44t117.5 -13.5
q51 0 104.5 11.5t96.5 38t69.5 68.5t26.5 103q0 49 -21.5 89.5t-53 72t-70.5 59t-76 52.5q-14 2 -29.5 3t-29.5 1q-57 0 -123 -12.5t-121 -41t-91 -75.5t-36 -117zM276 1247q0 -53 17.5 -117.5t51.5 -120t82.5 -92t111.5 -36.5q96 0 134 61.5t38 147.5q0 53 -14.5 118.5
t-45 124t-78 97t-112.5 38.5q-47 0 -82 -18t-57.5 -49t-34 -71t-11.5 -83zM999 1206h215v-215h107v215h215v105h-215v217h-107v-217h-215v-105z" />
  </g>

</svg>
