<?xml version="1.0" standalone="no"?>
<!DOCTYPE svg PUBLIC "-//W3C//DTD SVG 1.1//EN" "http://www.w3.org/Graphics/SVG/1.1/DTD/svg11.dtd" >
<svg viewBox="0 -512 2048 2048">
  <g transform="matrix(1 0 0 -1 0 1536)">
   <path fill="currentColor"
d="M0 78v1382q0 31 22.5 53.5t55.5 22.5h1689q31 0 53.5 -22.5t22.5 -53.5v-1382q0 -33 -22.5 -55.5t-53.5 -22.5h-1689q-33 0 -55.5 22.5t-22.5 55.5zM154 461q63 0 119.5 -24.5t97.5 -65.5t65.5 -97.5t24.5 -119.5h921q0 63 25 119.5t65.5 97.5t97 65.5t120.5 24.5v614
q-63 0 -120 24.5t-97.5 65.5t-65.5 97.5t-25 119.5h-921q0 -63 -24.5 -119.5t-65.5 -97.5t-97.5 -65.5t-119.5 -24.5v-614zM539 768q0 104 29.5 195.5t81.5 159t122 106.5t150 39t149.5 -39t121.5 -106.5t83 -159t31 -195.5t-31 -195.5t-83 -159t-122 -106.5t-149 -39
q-80 0 -150 39t-122 106.5t-81.5 159t-29.5 195.5zM692 969l94 -99l39 35q8 6 11.5 13.5t7.5 11.5q4 2 8 10h2v-16q0 -8 -1 -16.5t-1 -18.5v-283h-139v-129h438v129h-141v529h-140z" />
  </g>

</svg>
