<?xml version="1.0" standalone="no"?>
<!DOCTYPE svg PUBLIC "-//W3C//DTD SVG 1.1//EN" "http://www.w3.org/Graphics/SVG/1.1/DTD/svg11.dtd" >
<svg viewBox="0 -512 2048 2048">
  <g transform="matrix(1 0 0 -1 0 1536)">
   <path fill="currentColor"
d="M0 115v905q10 -10 20.5 -17.5t20.5 -15.5q129 -96 256 -191.5t252 -195.5q39 -31 82 -62.5t89 -57t96.5 -41t103.5 -15.5q55 0 105 15.5t96 40t89 56t84 64.5q125 100 252 195.5t256 191.5q10 8 20.5 15.5t20.5 17.5v-905q0 -47 -33.5 -81t-80.5 -34h-1614q-47 0 -81 34
t-34 81zM2 1434q0 41 36 71.5t77 30.5h1614q41 0 76.5 -30.5t35.5 -71.5q0 -31 -18.5 -69t-45 -75t-57 -67.5t-53.5 -48.5q-123 -92 -241.5 -182.5t-239.5 -182.5q-25 -18 -57.5 -45t-67.5 -51.5t-71 -42t-66 -17.5h-2h-2q-31 0 -67 17.5t-70.5 42t-67.5 51.5t-58 45
q-121 92 -239.5 182t-241.5 183q-23 18 -53.5 48.5t-57 67.5t-45 75t-18.5 69z" />
  </g>

</svg>
