<?xml version="1.0" standalone="no"?>
<!DOCTYPE svg PUBLIC "-//W3C//DTD SVG 1.1//EN" "http://www.w3.org/Graphics/SVG/1.1/DTD/svg11.dtd" >
<svg viewBox="0 -512 2048 2048">
  <g transform="matrix(1 0 0 -1 0 1536)">
   <path fill="currentColor"
d="M0 1376q0 39 15.5 74t41 60.5t60 41t73.5 15.5t74 -15.5t61.5 -41t41 -60.5t14.5 -74t-14.5 -73.5t-41 -60t-61.5 -41t-74 -15.5t-73.5 15.5t-60 41t-41 60t-15.5 73.5zM10 41v991q0 16 12.5 28.5t28.5 12.5h281q16 0 28.5 -12t12.5 -29v-991q0 -16 -12.5 -28.5
t-28.5 -12.5h-281q-16 0 -28.5 12.5t-12.5 28.5zM524 41v991q0 16 12.5 28.5t28.5 12.5h273q33 0 37 -25.5t4 -48.5q57 53 129.5 76t150.5 23q190 0 304 -95.5t114 -293.5v-668q0 -16 -12.5 -28.5t-28.5 -12.5h-289q-16 0 -27.5 12.5t-11.5 28.5v604q0 76 -27.5 116
t-111.5 40q-53 0 -89 -17.5t-56.5 -47t-28.5 -70.5t-8 -88v-537q0 -16 -12.5 -28.5t-28.5 -12.5h-281q-16 0 -28.5 12.5t-12.5 28.5z" />
  </g>

</svg>
