<?xml version="1.0" standalone="no"?>
<!DOCTYPE svg PUBLIC "-//W3C//DTD SVG 1.1//EN" "http://www.w3.org/Graphics/SVG/1.1/DTD/svg11.dtd" >
<svg viewBox="-1 -512 2048 2048">
  <g transform="matrix(1 0 0 -1 0 1536)">
   <path fill="currentColor"
d="M0 662q-4 39 35 45l158 20q12 2 30 -8q12 -8 15 -27q14 -102 63 -191t123 -153.5t169 -101.5t200 -37q115 0 217 44t178 120t120 177t44 218t-44 218t-120 177t-178.5 120t-216.5 44q-94 0 -181.5 -30.5t-158.5 -88.5l159 -159q35 -35 24 -58.5t-58 -23.5h-463
q-16 0 -29.5 6t-24.5 16q-25 25 -24 55v463q0 47 24.5 57.5t59.5 -24.5l162 -162q109 92 238.5 140.5t271.5 48.5q166 0 311 -62.5t253.5 -171t171 -254t62.5 -311.5t-62.5 -311.5t-171 -254t-254 -171t-310.5 -62.5q-150 0 -285 52.5t-241.5 145.5t-176.5 220t-90 275z" />
  </g>

</svg>
