<?xml version="1.0" standalone="no"?>
<!DOCTYPE svg PUBLIC "-//W3C//DTD SVG 1.1//EN" "http://www.w3.org/Graphics/SVG/1.1/DTD/svg11.dtd" >
<svg viewBox="0 -512 2048 2048">
  <g transform="matrix(1 0 0 -1 0 1536)">
   <path fill="currentColor"
d="M0 651q0 49 37 91t88 42q35 0 68 -22q-20 14 -21 37q0 8 8 24l334 502q14 20 37 21q16 0 24 -9q-25 18 -40 43t-15 56q0 49 38 90t87 41q33 0 62 -19l514 -342q23 -16 36 -40.5t13 -53.5q0 -25 -10.5 -48.5t-26.5 -41.5t-40 -29.5t-48 -11.5q-33 0 -68 23q20 -14 21 -37
q0 -14 -8 -25l-105 -158l227 -151q14 4 28 6t28 2q53 0 94 -29l475 -315q37 -27 58.5 -65.5t21.5 -84.5q0 -74 -52.5 -126t-125.5 -52q-55 0 -99 31l-475 315q-70 47 -75 131l-228 152l-106 -158q-14 -20 -37 -20q-14 0 -25 8q55 -39 56 -100q0 -25 -10.5 -47.5t-28 -41
t-40 -29.5t-46.5 -11q-35 0 -62 18l-514 342q-49 33 -49 92z" />
  </g>

</svg>
