<?xml version="1.0" standalone="no"?>
<!DOCTYPE svg PUBLIC "-//W3C//DTD SVG 1.1//EN" "http://www.w3.org/Graphics/SVG/1.1/DTD/svg11.dtd" >
<svg viewBox="0 -512 2048 2048">
  <g transform="matrix(1 0 0 -1 0 1536)">
   <path fill="currentColor"
d="M0 627q0 195 73.5 365.5t201.5 298.5t299 202t366 74t366 -74t299 -202t201.5 -299t73.5 -365q0 -78 -14.5 -159t-42 -159t-68.5 -149.5t-92 -130.5q-23 -29 -59 -29h-1328q-37 0 -59 29q-53 59 -93 130.5t-67.5 149.5t-42 159t-14.5 159zM158 627q0 -49 33.5 -83
t82.5 -34t83 34t34 83t-34.5 82.5t-82.5 33.5q-49 0 -82.5 -33.5t-33.5 -82.5zM352 1098q0 -49 35 -84t82 -35q49 0 84 35t35 84t-35 82.5t-84 33.5q-47 0 -82 -33.5t-35 -82.5zM743 313q0 -82 57.5 -139t139.5 -57t139.5 57t57.5 139q0 49 -26 91t-67 71q4 14 15.5 55
t27 95.5t33 114t30.5 110.5t22.5 88t9.5 43q0 23 -17.5 40t-40.5 17q-20 0 -35.5 -12t-21.5 -31l-135 -487q-39 -2 -74 -17.5t-60.5 -42t-40 -61.5t-14.5 -74zM823 1292q0 -49 34 -82.5t83 -33.5t83 33.5t34 82.5t-34 83t-83 34t-83 -34t-34 -83zM1292 1098q0 -49 35 -83
t84 -34t83 34t34 83t-34 82.5t-83 33.5t-84 -33.5t-35 -82.5zM1489 627q0 -49 34 -83t83 -34t82.5 34t33.5 83t-33.5 82.5t-82.5 33.5t-83 -33.5t-34 -82.5z" />
  </g>

</svg>
