<?xml version="1.0" standalone="no"?>
<!DOCTYPE svg PUBLIC "-//W3C//DTD SVG 1.1//EN" "http://www.w3.org/Graphics/SVG/1.1/DTD/svg11.dtd" >
<svg viewBox="0 -512 2048 2048">
  <g transform="matrix(1 0 0 -1 0 1536)">
   <path fill="currentColor"
d="M0 866q0 123 49 225.5t130 183.5t184.5 139.5t209.5 92.5q94 31 190.5 45.5t194.5 14.5t194.5 -14.5t190.5 -45.5q106 -35 210 -93t185 -139t130 -183.5t49 -225.5t-49 -225t-130 -183t-184.5 -140.5t-210.5 -92.5q-94 -31 -190 -45t-195 -14q-92 0 -180 12
q-92 -72 -195.5 -119t-215.5 -73q-27 -4 -55.5 -10.5t-53.5 -6.5q-16 0 -27.5 11.5t-11.5 27.5q0 12 8.5 21.5t16.5 17.5q31 33 53 60.5t37.5 57.5t25 64.5t17.5 79.5q-78 43 -145.5 100.5t-120 128t-82 153.5t-29.5 175zM160 866q0 -72 24.5 -133t65.5 -113.5t94 -95.5
t111 -75q27 -14 51 -27.5t49 -28.5q-10 -47 -17.5 -94t-19.5 -94q59 29 111.5 64.5t105.5 76.5q55 -8 110.5 -14t112.5 -6q156 0 308 43q84 25 171 68.5t158.5 107t116.5 143.5t45 178t-45 178t-116.5 143.5t-158.5 107.5t-171 69q-152 43 -308 43q-158 0 -307 -43
q-84 -25 -171 -69t-158.5 -107.5t-116.5 -143t-45 -178.5z" />
  </g>

</svg>
