<?xml version="1.0" standalone="no"?>
<!DOCTYPE svg PUBLIC "-//W3C//DTD SVG 1.1//EN" "http://www.w3.org/Graphics/SVG/1.1/DTD/svg11.dtd" >
<svg viewBox="0 -512 2048 2048">
  <g transform="matrix(1 0 0 -1 0 1536)">
   <path fill="currentColor"
d="M0 997q0 98 40 182.5t106.5 151t150.5 113.5t170 76q76 25 154.5 36t156.5 11q80 0 159 -11.5t155 -35.5q86 -29 170 -76t149.5 -113.5t105 -150.5t39.5 -183q0 -98 -39.5 -182t-105 -149.5t-149.5 -113.5t-170 -77q-154 -47 -314 -47q-37 0 -72.5 3t-72.5 7
q-150 -115 -336 -155q-20 -4 -43 -9.5t-45 -5.5q-12 0 -21.5 9.5t-9.5 23.5q0 10 7.5 17.5l13.5 13.5q51 51 72.5 96t35.5 117q-63 35 -118.5 82t-97.5 104t-66.5 124t-24.5 142zM160 997q0 -72 30.5 -127t77.5 -99t104.5 -78t112.5 -64l-20 -111q33 18 63.5 42t59.5 46
q47 -6 95 -12t95 -6q135 0 264 41q61 18 124 52t114 81t84 105.5t33 129.5q0 72 -33 131.5t-84 105.5t-113.5 80t-124.5 52q-63 23 -129.5 32t-134.5 9q-66 0 -132 -9t-132 -32q-59 -18 -122.5 -52t-115 -80t-84 -105.5t-32.5 -131.5zM649 258l27 16q51 -6 102 -6
q197 0 381 62q111 37 211 99.5t177 147.5t123 190t46 230q0 41 -6 84q90 -72 148.5 -169t58.5 -214q0 -76 -24.5 -142.5t-66.5 -123.5t-97.5 -104t-118.5 -82q14 -72 35.5 -117t72.5 -96q6 -6 13.5 -14.5t7.5 -18.5q0 -16 -10.5 -23.5t-24.5 -7.5q-20 0 -43 5.5t-41 9.5
q-186 41 -336 155q-37 -4 -72.5 -7t-72.5 -3q-129 0 -254 32t-236 97z" />
  </g>

</svg>
