<?xml version="1.0" standalone="no"?>
<!DOCTYPE svg PUBLIC "-//W3C//DTD SVG 1.1//EN" "http://www.w3.org/Graphics/SVG/1.1/DTD/svg11.dtd" >
<svg viewBox="0 -512 2048 2048">
  <g transform="matrix(1 0 0 -1 0 1536)">
   <path fill="currentColor"
d="M0 557q0 8 2 10l209 932q4 16 16.5 26.5t28.5 10.5h344q18 0 31.5 -13.5t13.5 -33.5q0 -6 -1 -10t-3 -11l-180 -524q12 4 47 13.5t81 21.5t95 26.5t93 25.5t75 18.5t37 7.5q18 0 31.5 -13.5t13.5 -33.5q0 -12 -2 -19l-565 -1306q-10 -29 -43 -29q-18 0 -33 13.5t-15 33.5
q0 6 3 10l204 914q-12 -4 -48 -14.5t-82 -22.5t-97 -26.5t-95 -27t-76 -19.5t-38 -7q-20 0 -33.5 14.5t-13.5 32.5z" />
  </g>

</svg>
