<?xml version="1.0" standalone="no"?>
<!DOCTYPE svg PUBLIC "-//W3C//DTD SVG 1.1//EN" "http://www.w3.org/Graphics/SVG/1.1/DTD/svg11.dtd" >
<svg viewBox="0 -512 2048 2048">
  <g transform="matrix(1 0 0 -1 0 1536)">
   <path fill="currentColor"
d="M0 78v383q0 33 22.5 55.5t55.5 22.5h133v153q0 55 40 94t95 39h518v174h-135q-31 0 -53.5 21.5t-22.5 54.5v385q0 31 22.5 53.5t53.5 22.5h385q31 0 53.5 -22.5t22.5 -53.5v-385q0 -33 -22.5 -54.5t-53.5 -21.5h-135v-174h518q55 0 95 -38.5t40 -94.5v-153h135
q31 0 53.5 -22.5t22.5 -55.5v-383q0 -33 -22.5 -55.5t-53.5 -22.5h-385q-33 0 -54 22.5t-21 55.5v383q0 33 21.5 55.5t53.5 22.5h136v153q0 18 -21 19h-518v-172h135q31 0 53.5 -22.5t22.5 -55.5v-383q0 -33 -22.5 -55.5t-53.5 -22.5h-385q-31 0 -53.5 22.5t-22.5 55.5v383
q0 33 22.5 55.5t53.5 22.5h135v172h-518q-20 0 -20 -19v-153h135q33 0 55.5 -22.5t22.5 -55.5v-383q0 -33 -22.5 -55.5t-55.5 -22.5h-383q-33 0 -55.5 22.5t-22.5 55.5z" />
  </g>

</svg>
