<?xml version="1.0" standalone="no"?>
<!DOCTYPE svg PUBLIC "-//W3C//DTD SVG 1.1//EN" "http://www.w3.org/Graphics/SVG/1.1/DTD/svg11.dtd" >
<svg viewBox="-1 -512 2048 2048">
  <g transform="matrix(1 0 0 -1 0 1536)">
   <path fill="currentColor"
d="M0 770q31 137 109.5 253t193.5 204t257 141t302 66v53q0 35 23.5 57.5t56.5 22.5q35 0 57.5 -22.5t22.5 -57.5v-53q160 -12 303 -65.5t258 -141.5t192.5 -204t108.5 -253q6 -29 -20 -43q-10 -6 -19 -6q-20 0 -28 12q-98 102 -218 103q-86 0 -163.5 -54.5t-130.5 -152.5
q-10 -23 -35 -23t-35 23q-82 150 -213 194v-526q0 -68 -23.5 -127t-63.5 -104.5t-93.5 -71t-114.5 -25.5t-115.5 25.5t-94.5 71t-63.5 104.5t-23.5 127q0 35 23.5 57.5t56.5 22.5q35 0 57.5 -22.5t22.5 -57.5q0 -70 40 -119t97 -49q55 0 95 49t40 119v526
q-131 -45 -213 -194q-10 -23 -35 -23t-34 23q-53 98 -130 152.5t-163 54.5q-121 0 -217 -103q-12 -12 -31 -12q-10 0 -19 6q-25 14 -20 43z" />
  </g>

</svg>
