<?xml version="1.0" standalone="no"?>
<!DOCTYPE svg PUBLIC "-//W3C//DTD SVG 1.1//EN" "http://www.w3.org/Graphics/SVG/1.1/DTD/svg11.dtd" >
<svg viewBox="0 -512 2048 2048">
  <g transform="matrix(1 0 0 -1 0 1536)">
   <path fill="currentColor"
d="M0 385v1075q0 31 22.5 53.5t55.5 22.5h921q31 0 53.5 -22.5t22.5 -53.5v-231h33h61q25 0 55.5 -13.5t49.5 -29.5l280 -281q18 -18 30.5 -49t12.5 -55v-62v-678q0 -27 -17 -44t-44 -17h-860q-27 0 -44.5 17.5t-17.5 43.5v246h-536q-33 0 -55.5 22.5t-22.5 55.5zM276 1321
q0 -12 9.5 -21.5t21.5 -9.5h461q12 0 21.5 9.5t9.5 21.5v61q0 12 -9.5 21.5t-21.5 9.5h-461q-12 0 -21.5 -9t-9.5 -22v-61zM737 123h738v555h-367q-27 0 -44 17.5t-17 43.5v367h-310v-983zM1169 801h306q0 2 -3.5 8t-5.5 10l-280 279q0 4 -6 4q-2 0 -2 1t-2 1t-3.5 1t-3.5 1
v-305z" />
  </g>

</svg>
