<?xml version="1.0" standalone="no"?>
<!DOCTYPE svg PUBLIC "-//W3C//DTD SVG 1.1//EN" "http://www.w3.org/Graphics/SVG/1.1/DTD/svg11.dtd" >
<svg viewBox="0 -512 2048 2048">
  <g transform="matrix(1 0 0 -1 0 1536)">
   <path fill="currentColor"
d="M0 57v379q0 39 20.5 87t54.5 90t74.5 73t81.5 35q-35 -59 -34 -129q0 -59 16 -124t59 -106q-18 -37 -18 -75q0 -72 50 -122t122 -50q37 0 68.5 13t55 36.5t37 55.5t13.5 67t-13.5 66.5t-37 55t-55 38t-68.5 14.5q-18 0 -36.5 -5t-35.5 -14q-12 12 -20 31t-13.5 40.5
t-7.5 41.5t-2 37q0 47 28 86t62 67l142 21q-92 57 -142.5 150.5t-50.5 201.5q0 86 33 162t90 133t133 90t162 33t162 -33t133 -90t90 -133t33 -162q0 -109 -50.5 -202t-142.5 -150l158 -23q18 -16 34.5 -36.5t16.5 -47.5q0 -45 -18 -77q-59 33 -121 32q-45 0 -87 -17
t-77 -46q-6 2 -11 3t-11 1q-47 0 -82 -34t-35 -81t34.5 -80.5t82.5 -33.5q47 0 80.5 33.5t33.5 80.5q0 8 -2 15.5t-4 13.5q16 12 35.5 20.5t42.5 8.5q55 0 95 -39t40 -94q0 -23 -8 -41.5t-19 -34.5q-25 10 -45 10q-47 0 -81.5 -34t-34.5 -81t34.5 -80.5t81.5 -33.5t81 33.5
t34 80.5l-2 4q74 74 74 177q0 74 -41 137q45 70 45 157q0 31 -12 62q41 -4 83 -34t74.5 -72t53 -90t20.5 -89v-379q-10 -6 -22.5 -15t-25.5 -18.5t-26.5 -16.5t-21.5 -7h-1344q-35 0 -52 20.5t-44 36.5zM369 287q0 25 17 41t40 16q25 0 41 -16t16 -41q0 -23 -16 -40.5
t-41 -17.5q-23 0 -40 17.5t-17 40.5z" />
  </g>

</svg>
