<?xml version="1.0" standalone="no"?>
<!DOCTYPE svg PUBLIC "-//W3C//DTD SVG 1.1//EN" "http://www.w3.org/Graphics/SVG/1.1/DTD/svg11.dtd" >
<!--
2012-8-4: Created.
-->
<svg>
<metadata>
Created by FontForge 20110222 at Sat Aug  4 15:06:43 2012
 By Ben West,,,
Created by Ben West,,, with FontForge 2.0 (http://fontforge.sf.net)
</metadata>
<defs>
<font id="awesome" horiz-adv-x="920" >
  <font-face 
    font-family="Literate Web"
    font-weight="500"
    font-stretch="normal"
    units-per-em="1000"
    panose-1="2 0 6 3 0 0 0 0 0 0"
    ascent="800"
    descent="-200"
    bbox="9.99952 -0.000352556 947.025 936.037"
    underline-thickness="50"
    underline-position="-100"
    unicode-range="U+000D-F204"
  />
    <missing-glyph />
    <glyph glyph-name="uniF200" unicode="&#xf200;" horiz-adv-x="770" 
d="M10 27.832v185.059c0 12.6953 3.33691 26.8555 10.0098 42.4805s15.5439 30.2734 26.6113 43.9453c11.0674 13.6729 23.1934 25.5537 36.377 35.6445c13.1836 10.0918 26.4482 15.7891 39.7949 17.0898c-11.3936 -19.2061 -16.9268 -40.2021 -16.6016 -62.9883
c0 -19.2061 2.60449 -39.3887 7.8125 -60.5469c5.20801 -21.1592 14.8115 -38.4121 28.8086 -51.7578c-5.85938 -12.0439 -8.78906 -24.251 -8.78906 -36.6211c0 -23.4375 8.13867 -43.2939 24.4141 -59.5703c16.2764 -16.2764 36.1328 -24.4141 59.5703 -24.4141
c12.0439 0 23.1934 2.11621 33.4473 6.34766c10.2549 4.23145 19.2061 10.1729 26.8555 17.8223c7.65039 7.64941 13.6729 16.6826 18.0664 27.0996c4.39453 10.417 6.5918 21.3223 6.5918 32.7148c0 11.3936 -2.19727 22.2168 -6.5918 32.4707
s-10.417 19.2061 -18.0664 26.8555c-7.64941 7.65039 -16.6016 13.835 -26.8555 18.5547s-21.4033 7.08008 -33.4473 7.08008c-5.85938 -0.00195312 -11.7998 -0.81543 -17.8223 -2.44141c-6.02246 -1.62891 -11.7998 -3.90723 -17.334 -6.83594
c-3.90625 3.90723 -7.16113 8.95312 -9.76562 15.1367c-2.60449 6.18457 -4.80176 12.7764 -6.5918 19.7754s-3.01074 13.7529 -3.66211 20.2637s-0.976562 12.5322 -0.976562 18.0664c0 15.2998 4.55762 29.2969 13.6719 41.9922s19.2061 23.6006 30.2734 32.7148
l69.3359 10.2539c-29.9482 18.5547 -53.1416 43.0498 -69.5801 73.4863c-16.4395 30.4365 -24.6582 63.2324 -24.6582 98.3887c0 27.9951 5.37109 54.3623 16.1133 79.1016s25.3906 46.3867 43.9453 64.9414s40.2021 33.2031 64.9414 43.9453
s51.1064 16.1133 79.1016 16.1133s54.3623 -5.37109 79.1016 -16.1133c24.7402 -10.7422 46.3867 -25.3906 64.9414 -43.9453c18.5547 -18.5557 33.2031 -40.2031 43.9453 -64.9414c10.7422 -24.7393 16.1133 -51.1064 16.1133 -79.1016
c-0.00390625 -35.4814 -8.22363 -68.3594 -24.6582 -98.6328c-16.4385 -30.2734 -39.6318 -54.6875 -69.5801 -73.2422l77.1484 -11.2305c5.85938 -5.20801 11.4746 -11.1494 16.8457 -17.8223s8.05664 -14.4043 8.05664 -23.1934
c0 -14.6494 -2.92969 -27.1816 -8.78906 -37.5977c-19.2061 10.7422 -38.8994 15.9502 -59.082 15.625c-14.6484 -0.00292969 -28.8086 -2.77051 -42.4805 -8.30078c-13.6719 -5.53516 -26.2041 -13.0225 -37.5977 -22.4609
c-1.95605 0.651367 -3.74609 1.13965 -5.37109 1.46484c-1.63281 0.334961 -3.42285 0.498047 -5.37109 0.488281c-15.3008 0 -28.6465 -5.53418 -40.0391 -16.6016c-11.3945 -11.0674 -17.0908 -24.251 -17.0898 -39.5508c0 -15.2998 5.61523 -28.4014 16.8457 -39.3066
s24.6582 -16.3574 40.2832 -16.3574c15.2998 0 28.4014 5.45215 39.3066 16.3574s16.3574 24.0068 16.3574 39.3066c-0.0146484 2.60449 -0.339844 5.12695 -0.976562 7.56836c-0.666992 2.44141 -1.31836 4.63867 -1.95312 6.5918
c5.20898 3.90723 10.9873 7.24316 17.334 10.0098c6.34766 2.76758 13.2646 4.15137 20.752 4.15039c17.9033 0 33.3662 -6.34766 46.3867 -19.043s19.5312 -27.9951 19.5312 -45.8984c0 -7.4873 -1.30176 -14.2412 -3.90625 -20.2637s-5.69629 -11.6377 -9.27734 -16.8457
c-8.1377 3.25488 -15.4619 4.88281 -21.9727 4.88281c-15.2998 0 -28.5645 -5.53418 -39.7949 -16.6016s-16.8457 -24.251 -16.8457 -39.5508s5.61523 -28.4014 16.8457 -39.3066c11.2314 -10.9053 24.4961 -16.3574 39.7949 -16.3574
c15.2998 0 28.4834 5.45215 39.5508 16.3574s16.6016 24.0068 16.6016 39.3066l-0.976562 1.95312c24.0898 24.0889 36.1338 52.8975 36.1328 86.4258c0 24.0889 -6.67285 46.3867 -20.0195 66.8945c14.6484 22.7861 21.9727 48.3398 21.9727 76.6602
c0 10.0918 -1.95312 20.1826 -5.85938 30.2734c13.3457 -1.30176 26.8555 -6.83594 40.5273 -16.6016s25.7979 -21.4844 36.377 -35.1562s19.2061 -28.3203 25.8789 -43.9453s10.0098 -30.1113 10.0098 -43.457v-185.059
c-3.25488 -1.95312 -6.91699 -4.39453 -10.9863 -7.32422s-8.21973 -5.94043 -12.4512 -9.0332c-4.2373 -3.09277 -8.5498 -5.77832 -12.9395 -8.05664c-4.39453 -2.27832 -7.89355 -3.41797 -10.498 -3.41797h-656.25c-11.3936 0 -19.8564 3.33691 -25.3906 10.0098
s-12.6953 12.6143 -21.4844 17.8223zM190.176 140.137c0 8.1377 2.76758 14.8115 8.30078 20.0195c5.53418 5.20801 12.0449 7.8125 19.5312 7.8125c8.1377 -0.000976562 14.8115 -2.60547 20.0195 -7.8125c5.20801 -5.20898 7.8125 -11.8818 7.8125 -20.0195
c0 -7.4873 -2.60352 -14.0791 -7.8125 -19.7754c-5.20898 -5.69727 -11.8818 -8.54492 -20.0195 -8.54492c-7.4873 0 -13.9971 2.84863 -19.5312 8.54492s-8.30078 12.2881 -8.30078 19.7754z" />
    <glyph glyph-name="uniF0DB" unicode="&#xf0db;" 
d="M10 56.1523v637.695c0 15.2998 5.53418 28.4834 16.6016 39.5508s24.251 16.6016 39.5508 16.6016h788.086c15.3018 -0.00292969 28.4033 -5.53711 39.3066 -16.6016c10.917 -11.0674 16.3691 -24.251 16.3574 -39.5508v-637.695
c0 -15.2998 -5.45215 -28.4834 -16.3574 -39.5508s-24.0068 -16.6016 -39.3066 -16.6016h-788.086c-15.2998 0 -28.4834 5.53418 -39.5508 16.6016s-16.6016 24.251 -16.6016 39.5508zM85.1953 75.1953h337.891v562.988h-337.891v-562.988zM497.793 75.1953h337.402v562.988
h-337.402v-562.988z" />
    <glyph glyph-name="uniF062" unicode="&#xf062;" horiz-adv-x="771" 
d="M10.0166 375c-0.325195 12.6953 4.23145 23.7627 13.6719 33.2031l328.613 327.637c9.44043 9.44531 20.5078 14.166 33.2031 14.1602c12.6953 0 23.7627 -4.71973 33.2031 -14.1602l327.637 -327.637c9.44238 -9.44043 14.1621 -20.5088 14.1602 -33.2031
c0 -12.6953 -4.71973 -23.7637 -14.1602 -33.2031l-48.8281 -48.8281c-9.44043 -9.44043 -20.2637 -14.1611 -32.4707 -14.1602c-12.207 0 -23.0303 4.71973 -32.4707 14.1602l-166.016 165.039v-412.109c0 -12.6953 -4.47656 -23.5186 -13.4277 -32.4707
c-8.95215 -8.95215 -19.7764 -13.4277 -32.4707 -13.4277h-70.3125c-13.3467 0 -24.333 4.47559 -32.959 13.4277s-12.9395 19.7754 -12.9395 32.4707v412.109l-165.039 -165.039c-9.44043 -9.44043 -20.4268 -14.1611 -32.959 -14.1602
c-12.5322 0 -23.5186 4.71973 -32.959 14.1602l-48.8281 48.8281c-9.44043 9.44043 -14.3232 20.5078 -14.6484 33.2031z" />
    <glyph glyph-name="uniF0AB" unicode="&#xf0ab;" horiz-adv-x="800" 
d="M10 390.137c0 54.0371 10.1729 104.736 30.5176 152.1c20.3447 47.3643 48.1768 88.7051 83.4961 124.023c35.3193 35.3193 76.6602 63.1514 124.023 83.4961s98.0635 30.5176 152.1 30.5176c54.0371 0.000976562 104.655 -10.1719 151.855 -30.5176
c47.2002 -20.3447 88.542 -48.1768 124.023 -83.4961s63.3135 -76.6602 83.4961 -124.023s30.2734 -98.0635 30.2734 -152.1s-10.0908 -104.736 -30.2734 -152.1s-48.0146 -88.7041 -83.4961 -124.023c-35.4824 -35.3193 -76.8232 -63.1514 -124.023 -83.4961
s-97.8193 -30.5176 -151.855 -30.5176s-104.736 10.1729 -152.1 30.5176s-88.7041 48.1768 -124.023 83.4961s-63.1514 76.6602 -83.4961 124.023s-30.5176 98.0635 -30.5176 152.1zM127.188 390.625c0 -9.11426 3.25488 -17.2529 9.76562 -24.4141l239.258 -239.258
c6.51074 -6.51074 14.4043 -9.76562 23.6816 -9.76562s17.334 3.25488 24.1699 9.76562l238.77 239.258c6.52246 6.51074 9.85938 14.4854 10.0098 23.9258c0.158203 9.44043 -3.17871 17.415 -10.0098 23.9258l-35.6445 36.1328
c-6.51074 6.51074 -14.3232 9.76562 -23.4375 9.76562c-9.11426 -0.00195312 -17.415 -3.25684 -24.9023 -9.76562l-119.629 -120.117v298.828c0 9.44043 -3.17383 17.4971 -9.52148 24.1699c-6.34863 6.67285 -14.2422 10.0098 -23.6816 10.0098h-50.7812
c-9.44043 -0.0107422 -17.4971 -3.34766 -24.1699 -10.0098c-6.67285 -6.67285 -10.0098 -14.7295 -10.0098 -24.1699v-298.828l-120.117 120.117c-6.51074 6.51074 -14.4854 9.76562 -23.9258 9.76562c-9.44043 -0.00195312 -17.415 -3.25684 -23.9258 -9.76562
l-36.1328 -36.1328c-6.51074 -6.51074 -9.76562 -14.3232 -9.76562 -23.4375z" />
    <glyph glyph-name="uniF09D" unicode="&#xf09d;" 
d="M10 75.1953v599.609c0 20.5088 7.32422 38.168 21.9727 52.9785c14.6484 14.8145 32.3896 22.2207 53.2227 22.2168h750c20.5078 0 38.0859 -7.32422 52.7344 -21.9727c14.6484 -14.6494 21.9727 -32.3896 21.9727 -53.2227v-599.609
c0 -20.5078 -7.32422 -38.167 -21.9727 -52.9785s-32.2266 -22.2168 -52.7344 -22.2168h-750c-20.5078 0 -38.167 7.32422 -52.9785 21.9727s-22.2168 32.3896 -22.2168 53.2227zM85.1953 75.1953h750v280.762h-750v-280.762zM85.1953 543.945h750v130.859h-750v-130.859z
M136.953 122.07v56.1523h149.902v-56.1523h-149.902zM340.078 122.07v56.1523h217.773v-56.1523h-217.773z" />
    <glyph glyph-name="uniF0A8" unicode="&#xf0a8;" horiz-adv-x="800" 
d="M10 390.137c0 54.0371 10.1729 104.736 30.5176 152.1c20.3447 47.3643 48.1768 88.7051 83.4961 124.023c35.3193 35.3193 76.6602 63.1514 124.023 83.4961s98.0635 30.5176 152.1 30.5176c54.0371 0.000976562 104.655 -10.1719 151.855 -30.5176
c47.2002 -20.3447 88.542 -48.1768 124.023 -83.4961s63.3135 -76.6602 83.4961 -124.023s30.2734 -98.0635 30.2734 -152.1s-10.0908 -104.736 -30.2734 -152.1s-48.0146 -88.7041 -83.4961 -124.023c-35.4824 -35.3193 -76.8232 -63.1514 -124.023 -83.4961
s-97.8193 -30.5176 -151.855 -30.5176s-104.736 10.1729 -152.1 30.5176s-88.7041 48.1768 -124.023 83.4961s-63.1514 76.6602 -83.4961 124.023s-30.5176 98.0635 -30.5176 152.1zM127.188 390.137c0 -9.44141 3.25488 -17.416 9.76562 -23.9258l239.258 -239.258
c6.51074 -6.51074 14.4043 -9.76562 23.6816 -9.76562s17.334 3.25488 24.1699 9.76562l36.1328 36.1328c6.51074 6.51074 9.76562 14.3232 9.76562 23.4375c0.000976562 9.11426 -3.25391 17.2529 -9.76562 24.4141l-120.117 120.117h298.828
c9.44043 0 17.4971 3.17383 24.1699 9.52148s10.0098 14.2412 10.0098 23.6816v50.7812c-0.00488281 9.44043 -3.3418 17.4971 -10.0098 24.1699c-6.67285 6.67285 -14.7295 10.0098 -24.1699 10.0098h-298.828l120.117 120.117
c6.51074 6.51172 9.76562 14.4062 9.76562 23.6816c0.000976562 9.27734 -3.25391 17.334 -9.76562 24.1699l-36.1328 36.1328c-6.51074 6.52148 -14.3232 9.77637 -23.4375 9.76562c-9.11426 0 -17.2529 -3.25488 -24.4141 -9.76562l-239.258 -239.258
c-6.51074 -6.51172 -9.76562 -14.4873 -9.76562 -23.9258z" />
    <glyph glyph-name="uniF0D9" unicode="&#xf0d9;" horiz-adv-x="358" 
d="M10 300.13c0 10.7432 3.74316 19.6943 11.2305 26.8555l262.695 262.207c5.20996 5.20898 11.3945 8.62695 18.5547 10.2539c7.16211 1.60547 14.3242 0.791992 21.4844 -2.44141c7.4873 -2.60352 13.3467 -7.08008 17.5781 -13.4277
c4.23535 -6.34961 6.35156 -13.1045 6.34766 -20.2637v-525.391c0 -8.1377 -2.11621 -15.1367 -6.34766 -20.9961s-10.0908 -10.416 -17.5781 -13.6719c-7.48828 -3.25488 -14.6494 -4.06836 -21.4844 -2.44141c-6.83691 1.62793 -13.0215 5.0459 -18.5547 10.2539
l-262.695 263.184c-7.4873 7.4873 -11.2305 16.1133 -11.2305 25.8789z" />
    <glyph glyph-name="o" unicode="o" horiz-adv-x="10" 
 />
    <glyph glyph-name="uniF064" unicode="&#xf064;" 
d="M10 65.918c0 68.0342 11.6377 132.08 34.9121 192.139s58.7568 112.549 106.445 157.471s108.073 80.5664 181.152 106.934c73.0791 26.3691 159.587 39.8779 259.521 40.5273v143.066c0 23.4375 5.85938 37.5977 17.5781 42.4805s26.2041 -0.976562 43.457 -17.5781
l239.746 -240.723c11.4033 -10.7422 17.0996 -24.0889 17.0898 -40.0391c0 -15.3008 -5.69629 -28.6465 -17.0898 -40.0391l-239.746 -241.211c-16.6025 -16.6016 -30.9248 -22.3799 -42.9688 -17.334c-12.0449 5.0459 -18.0664 19.125 -18.0664 42.2363v161.133
c-85.2861 -0.652344 -160.319 -9.84766 -225.098 -27.5879c-64.7783 -17.7412 -119.466 -41.748 -164.062 -72.0215s-79.5898 -65.918 -104.98 -106.934s-41.3408 -85.124 -47.8516 -132.324c-1.30176 -10.7422 -7.32422 -16.1133 -18.0664 -16.1133h-0.976562
c-10.7422 0 -16.7646 5.37109 -18.0664 16.1133c-1.95312 16.6016 -2.92969 33.2031 -2.92969 49.8047z" />
    <glyph glyph-name="uniF077" unicode="&#xf077;" horiz-adv-x="771" 
d="M10.0166 96.6836c-0.325195 12.207 4.23145 23.0312 13.6719 32.4707l328.613 329.102c9.44043 9.44043 20.5078 14.0791 33.2031 13.916c12.6953 -0.162109 23.7627 -4.80078 33.2031 -13.916l327.637 -329.102c9.44238 -9.43945 14.1621 -20.3447 14.1602 -32.7148
c0 -12.3691 -4.71973 -23.1113 -14.1602 -32.2266l-48.8281 -50.293c-9.44043 -9.43945 -20.5078 -14.0781 -33.2031 -13.916c-12.6973 0.163086 -23.6025 4.80176 -32.7148 13.916l-248.047 249.023l-244.141 -249.023
c-9.44043 -9.43945 -20.4268 -14.0781 -32.959 -13.916c-12.5322 0.163086 -23.5186 4.80176 -32.959 13.916l-48.8281 50.293c-9.44043 9.44043 -14.3232 20.2637 -14.6484 32.4707z" />
    <glyph glyph-name="uniF0E2" unicode="&#xf0e2;" horiz-adv-x="797" 
d="M10.1816 338.379c-1.30176 12.6953 4.39453 20.0195 17.0898 21.9727l77.1484 9.76562c3.90625 0.651367 8.78906 -0.651367 14.6484 -3.90625c3.90625 -2.60449 6.34766 -6.99902 7.32422 -13.1836c4.55762 -33.2031 14.8115 -64.29 30.7617 -93.2617
s35.9697 -53.9551 60.0586 -74.9512s51.5947 -37.5166 82.5195 -49.5605c30.9248 -12.0449 63.4766 -18.0664 97.6562 -18.0664c37.4355 0 72.7539 7.16211 105.957 21.4844c33.2031 14.3232 62.1748 33.8545 86.9141 58.5938s44.2705 53.5479 58.5938 86.4258
c14.3242 32.8779 21.4854 68.3594 21.4844 106.445c0 38.0859 -7.16113 73.5674 -21.4844 106.445s-33.8545 61.6865 -58.5938 86.4258s-53.792 44.2705 -87.1582 58.5938c-33.3662 14.3262 -68.6035 21.4873 -105.713 21.4844
c-30.5986 0 -60.1396 -4.96387 -88.623 -14.8926s-54.2803 -24.333 -77.3926 -43.2129l77.6367 -77.6367c11.3936 -11.3936 15.2998 -20.915 11.7188 -28.5645c-3.58203 -7.66016 -13.0225 -11.4844 -28.3203 -11.4746h-226.074
c-5.20801 0 -10.0098 0.976562 -14.4043 2.92969s-8.38184 4.55762 -11.9629 7.8125c-8.1377 8.1377 -12.0439 17.0898 -11.7188 26.8555v226.074c0 15.2988 3.9873 24.6572 11.9629 28.0762c7.97559 3.41797 17.6592 -0.569336 29.0527 -11.9629l79.1016 -79.1016
c35.4814 29.9502 74.2998 52.8174 116.455 68.6035c42.1553 15.792 86.3447 23.6865 132.568 23.6816c54.0371 0.000976562 104.655 -10.1719 151.855 -30.5176c47.2002 -20.3447 88.46 -48.1768 123.779 -83.4961s63.1514 -76.6602 83.4961 -124.023
s30.5176 -98.0635 30.5176 -152.1c-0.00195312 -54.0361 -10.1738 -104.736 -30.5176 -152.1c-20.3447 -47.3633 -48.1768 -88.7041 -83.4961 -124.023s-76.6602 -63.1514 -124.023 -83.4961s-97.9004 -30.5176 -151.611 -30.5176
c-48.8281 0 -95.2148 8.54492 -139.16 25.6348s-83.252 40.7715 -117.92 71.0449s-63.3955 66.0811 -86.1816 107.422s-37.4346 86.1006 -43.9453 134.277z" />
    <glyph glyph-name="uniF04C" unicode="&#xf04c;" horiz-adv-x="770" 
d="M10 34.1797v681.641c0 9.44043 3.33691 17.4971 10.0098 24.1699s14.7295 10.0098 24.1699 10.0098h238.77c9.44043 -0.00585938 17.4971 -3.34277 24.1699 -10.0098c6.6748 -6.67285 10.0107 -14.7295 10.0098 -24.1699v-681.641
c0 -9.44043 -3.33691 -17.4971 -10.0098 -24.1699s-14.7295 -10.0098 -24.1699 -10.0098h-238.77c-9.44043 0 -17.4971 3.33691 -24.1699 10.0098s-10.0098 14.7295 -10.0098 24.1699zM452.871 34.1797v681.641c0.000976562 9.44043 3.33789 17.4971 10.0098 24.1699
c6.67285 6.67285 14.7295 10.0098 24.1699 10.0098h238.77c9.44043 -0.00585938 17.4971 -3.34277 24.1699 -10.0098c6.67285 -6.67285 10.0098 -14.7295 10.0098 -24.1699v-681.641c-0.00390625 -9.44043 -3.33984 -17.4971 -10.0098 -24.1699
c-6.67285 -6.67285 -14.7295 -10.0098 -24.1699 -10.0098h-238.77c-9.44043 0 -17.4971 3.33691 -24.1699 10.0098s-10.0098 14.7295 -10.0098 24.1699z" />
    <glyph glyph-name="uniF0C9" unicode="&#xf0c9;" 
d="M10 38.0859v104.98c0 10.0908 3.66211 18.7988 10.9863 26.123s16.3574 10.9863 27.0996 10.9863h824.707c10.0908 0 18.7988 -3.66211 26.123 -10.9863s10.9863 -16.0322 10.9863 -26.123v-104.98c0 -10.7422 -3.66211 -19.7754 -10.9863 -27.0996
c-7.32812 -7.32422 -16.0361 -10.9863 -26.123 -10.9863h-824.707c-10.7422 0 -19.7754 3.66211 -27.0996 10.9863s-10.9863 16.3574 -10.9863 27.0996zM10 321.777v106.445c0 10.0928 3.66211 18.7188 10.9863 25.8789c7.32422 7.16895 16.3574 10.749 27.0996 10.7422
h824.707c10.0908 0 18.7988 -3.66211 26.123 -10.9863s10.9863 -15.8691 10.9863 -25.6348v-106.445c0 -10.0908 -3.66211 -18.7178 -10.9863 -25.8789c-7.32812 -7.16113 -16.0361 -10.7422 -26.123 -10.7422h-824.707c-10.7422 0 -19.7754 3.66211 -27.0996 10.9863
s-10.9863 15.8691 -10.9863 25.6348zM10 606.934v105.957c0 10.0908 3.66211 18.7988 10.9863 26.123s16.3574 10.9863 27.0996 10.9863h824.707c10.0908 0 18.7988 -3.66211 26.123 -10.9863s10.9863 -16.0322 10.9863 -26.123v-105.957
c0 -10.0938 -3.66211 -18.8018 -10.9863 -26.123c-7.32812 -7.32422 -16.0361 -10.9863 -26.123 -10.9863h-824.707c-10.7422 0 -19.7754 3.66211 -27.0996 10.9863s-10.9863 16.0322 -10.9863 26.123z" />
    <glyph glyph-name="uniF032" unicode="&#xf032;" horiz-adv-x="713" 
d="M10 0l0.976562 45.8984c8.78906 1.95312 19.8564 3.90625 33.2031 5.85938c12.6953 1.95312 24.0068 4.15039 33.9355 6.5918s18.9619 5.29004 27.0996 8.54492c2.60449 4.55762 4.71973 8.87012 6.34766 12.9395s2.7666 8.05664 3.41797 11.9629
c1.95312 10.7422 3.25488 23.9258 3.90625 39.5508s0.976562 33.8545 0.976562 54.6875l-0.976562 243.164c-0.651367 12.6953 -1.13965 35.3193 -1.46484 67.8711s-1.13965 75.8467 -2.44141 129.883c-1.30176 28.6455 -3.25488 46.3867 -5.85938 53.2227
c-1.30176 2.62793 -3.41797 4.25586 -6.34766 4.88281c-6.51074 4.57129 -17.7412 7.17578 -33.6914 7.8125c-7.4873 0 -26.2041 2.11621 -56.1523 6.34766l-1.95312 41.0156l127.93 2.92969l187.012 5.85938h21.9727c2.60449 0.698242 5.12695 1.02344 7.56836 0.976562
h6.5918l10.498 -0.488281l19.2871 -0.488281h37.1094c29.9482 0 61.3604 -4.39453 94.2383 -13.1836c5.8623 -1.31445 12.7793 -3.42969 20.752 -6.34766c7.97754 -2.92969 16.6846 -7.16113 26.123 -12.6953c20.5078 -10.0908 37.4346 -22.2979 50.7812 -36.6211
c14.6484 -15.2998 25.3906 -32.3896 32.2266 -51.2695c3.25488 -9.44043 5.69629 -18.9619 7.32422 -28.5645c1.62305 -9.60547 2.43652 -19.7773 2.44141 -30.5176c0 -23.4375 -5.20801 -44.4336 -15.625 -62.9883c-10.0938 -18.5547 -25.5557 -35.4814 -46.3867 -50.7812
c-5.20801 -3.90527 -13.9971 -8.87012 -26.3672 -14.8926c-12.3701 -6.02344 -28.1572 -13.7539 -47.3633 -23.1934c57.9424 -13.3467 101.562 -36.9473 130.859 -70.8008c29.9492 -33.8545 44.9229 -72.2656 44.9219 -115.234
c0.000976562 -23.4375 -4.55566 -49.8047 -13.6719 -79.1016c-7.4873 -21.4844 -19.2061 -40.3643 -35.1562 -56.6406c-21.4844 -23.4375 -44.4336 -41.1787 -68.8477 -53.2227c-25.3906 -11.3936 -58.7568 -20.9961 -100.098 -28.8086
c-22.7861 -3.90625 -55.1758 -5.69629 -97.168 -5.37109l-97.168 2.44141c-20.5078 0.650391 -42.9688 0.244141 -67.3828 -1.2207s-50.9443 -3.17383 -79.5898 -5.12695c-8.1377 -0.651367 -23.2744 -1.30176 -45.4102 -1.95312s-51.5947 -1.62793 -88.3789 -2.92969z
M272.207 692.871c-0.00195312 -3.90625 0.161133 -9.0332 0.488281 -15.3809c0.325195 -6.34961 0.813477 -13.5928 1.46484 -21.7285c0.651367 -16.6025 1.30176 -36.0518 1.95312 -58.3496c0.651367 -22.2988 0.651367 -48.0957 0 -77.3926v-47.8516v-38.0859
c8.1377 -1.30176 16.6826 -2.27832 25.6348 -2.92969s18.3105 -0.976562 28.0762 -0.976562c57.292 0 100.749 10.5791 130.371 31.7383c29.2969 21.4844 43.9453 58.1055 43.9453 109.863c0 36.7842 -13.9971 67.2207 -41.9922 91.3086
c-27.3438 24.7393 -69.3359 37.1094 -125.977 37.1094c-17.2529 0 -38.5742 -2.44141 -63.9648 -7.32422zM276.113 223.145l1.95312 -132.324c-0.000976562 -5.20801 1.62695 -12.207 4.88281 -20.9961c24.0889 -10.7422 47.0381 -15.9502 68.8477 -15.625
c42.6436 0 78.4502 6.67285 107.422 20.0195c26.6934 12.6953 46.5498 30.9248 59.5703 54.6875c5.85938 12.0439 10.498 25.3906 13.916 40.0391s5.12695 30.9248 5.12695 48.8281c-0.00195312 36.7842 -7.00098 66.2432 -20.9961 88.3789
c-19.2061 30.5996 -42.1553 50.9443 -68.8477 61.0352c-26.042 10.7422 -66.7324 15.9502 -122.07 15.625c-12.0439 0 -22.0537 -0.488281 -30.0293 -1.46484s-14.5674 -2.11621 -19.7754 -3.41797v-69.8242v-84.9609z" />
    <glyph glyph-name="uni2003" unicode="&#x2003;" horiz-adv-x="10" 
 />
    <glyph glyph-name="uniF054" unicode="&#xf054;" horiz-adv-x="491" 
d="M10 95.9473c0 12.5322 4.71973 23.5186 14.1602 32.959l248.047 248.047l-248.047 245.117c-9.44043 9.44238 -14.1602 20.2656 -14.1602 32.4707c0 12.208 4.71973 23.0312 14.1602 32.4707l48.8281 49.8047c9.44043 9.44531 20.5078 14.166 33.2031 14.1602
c12.6953 0 23.6006 -4.71973 32.7148 -14.1602l328.125 -328.613c9.44043 -9.44043 14.1602 -20.5078 14.1602 -33.2031s-4.71973 -23.7637 -14.1602 -33.2031l-328.125 -327.637c-9.44043 -9.44043 -20.4268 -14.1602 -32.959 -14.1602s-23.5186 4.71973 -32.959 14.1602
l-48.8281 48.8281c-9.44043 9.44043 -14.1602 20.4268 -14.1602 32.959z" />
    <glyph glyph-name="uniF053" unicode="&#xf053;" horiz-adv-x="491" 
d="M10 375.488c0 12.3701 4.71973 23.1123 14.1602 32.2266l327.637 329.102c9.44043 9.44336 20.5078 14.1631 33.2031 14.1602c12.6953 0 23.7627 -4.71973 33.2031 -14.1602l48.8281 -48.8281c9.44043 -9.44043 14.1602 -20.5078 14.1602 -33.2031
c0 -12.6973 -4.71973 -23.6025 -14.1602 -32.7148l-248.047 -249.023l248.047 -244.141c9.44043 -9.44043 14.1602 -20.2637 14.1602 -32.4707s-4.71973 -23.0303 -14.1602 -32.4707l-48.8281 -49.8047c-9.44043 -9.44043 -20.5078 -14.1602 -33.2031 -14.1602
s-23.7637 4.71973 -33.2031 14.1602l-327.637 328.613c-9.44043 9.44043 -14.1602 20.3447 -14.1602 32.7148z" />
    <glyph glyph-name="uniF0D7" unicode="&#xf0d7;" horiz-adv-x="621" 
d="M13.4268 313.985c6.51074 15.3018 18.2295 22.9512 35.1562 22.9492h524.902c16.2803 0 27.6729 -7.64941 34.1797 -22.9492c6.50098 -15.2998 3.7334 -28.9717 -8.30078 -41.0156l-261.719 -262.207c-8.78906 -7.4873 -17.9043 -11.0684 -27.3438 -10.7422
c-9.44141 0 -18.3926 3.58008 -26.8555 10.7422l-261.719 262.207c-12.0439 12.0439 -14.8115 25.7158 -8.30078 41.0156z" />
    <glyph glyph-name="uniF00C" unicode="&#xf00c;" horiz-adv-x="919" 
d="M10 312.744c0 10.9053 3.74316 19.9385 11.2305 27.0996l84.9609 85.4492c7.4873 7.4873 16.6826 11.1494 27.5879 10.9863s19.9385 -3.8252 27.0996 -10.9863l178.223 -178.223c7.4873 -7.4873 16.6826 -11.2314 27.5879 -11.2305
c10.9053 0 19.9385 3.74316 27.0996 11.2305l364.258 363.77c7.49023 7.49023 16.6855 11.2334 27.5879 11.2305c10.9111 0 20.1074 -3.74316 27.5879 -11.2305l84.9609 -84.9609c7.4873 -7.4873 11.1494 -16.6826 10.9863 -27.5879s-3.8252 -19.9385 -10.9863 -27.0996
l-444.336 -444.336c-7.48828 -7.4873 -17.6611 -13.835 -30.5176 -19.043c-12.8584 -5.20801 -24.6582 -7.8125 -35.4004 -7.8125h-42.9688c-11.3936 0 -23.6006 2.68555 -36.6211 8.05664s-23.1123 11.6377 -30.2734 18.7988l-256.836 258.301
c-7.4873 7.4873 -11.2305 16.6826 -11.2305 27.5879z" />
    <glyph glyph-name="uniF08B" unicode="&#xf08b;" horiz-adv-x="845" 
d="M10 149.902v450.195c0 20.5078 3.9873 39.7949 11.9629 57.8613s18.7988 33.9355 32.4707 47.6074s29.541 24.4951 47.6074 32.4707c18.0664 7.98145 37.3535 11.9697 57.8613 11.9629h225.098v-94.2383h-225.098c-15.2998 0 -28.4014 -5.45215 -39.3066 -16.3574
s-16.3574 -24.0068 -16.3574 -39.3066v-450.195c0 -15.2998 5.45215 -28.4014 16.3574 -39.3066s24.0068 -16.3574 39.3066 -16.3574h225.098v-94.2383h-225.098c-20.5078 0 -39.7949 3.9873 -57.8613 11.9629s-33.9355 18.7988 -47.6074 32.4707
s-24.4951 29.541 -32.4707 47.6074s-11.9629 37.3535 -11.9629 57.8613zM258.047 285.156v179.688c0 10.7432 3.66211 19.6133 10.9863 26.6113c7.32422 7.00391 16.3574 10.5029 27.0996 10.498h208.984v143.066c0 13.3467 6.34766 22.624 19.043 27.832
c12.6973 4.54297 23.2764 2.26367 31.7383 -6.83594l270.02 -270.02c5.87012 -5.8584 8.88184 -13.0205 9.0332 -21.4844c0.147461 -8.46387 -2.86426 -15.2998 -9.0332 -20.5078l-270.02 -270.02c-5.86035 -5.85938 -12.8594 -8.78906 -20.9961 -8.78906
c-3.26758 0 -6.84766 0.651367 -10.7422 1.95312c-12.6953 5.20801 -19.043 14.4854 -19.043 27.832v142.09h-208.984c-10.7422 0 -19.7754 3.66211 -27.0996 10.9863s-10.9863 16.3574 -10.9863 27.0996z" />
    <glyph glyph-name="uniF088" unicode="&#xf088;" horiz-adv-x="800" 
d="M10 360.84c0 9.44043 0.813477 18.7988 2.44141 28.0762s4.06934 18.6367 7.32422 28.0762c-5.85938 13.9971 -8.78906 28.6455 -8.78906 43.9453c0 25.3906 6.67285 48.3398 20.0195 68.8477c-3.25488 19.2061 -2.03418 38.5742 3.66211 58.1055
s15.2178 36.6211 28.5645 51.2695c1.30176 27.3438 8.62598 49.9678 21.9727 67.8711s29.9482 32.3896 49.8047 43.457s41.8291 18.7178 65.918 22.9492s47.5264 6.34766 70.3125 6.34766c23.4375 -0.0126953 46.9561 -1.63965 70.5566 -4.88281
c23.6006 -3.25977 46.6309 -7.97949 69.0918 -14.1602c22.7861 -6.51074 45.4912 -13.4277 68.1152 -20.752s45.9805 -10.9863 70.0684 -10.9863h183.105c15.9502 0 29.541 -5.69629 40.7715 -17.0898s16.8457 -25.0654 16.8457 -41.0156v-313.965
c0 -15.9502 -5.61523 -29.6221 -16.8457 -41.0156c-11.2295 -11.3936 -24.8203 -17.0898 -40.7715 -17.0898h-170.41c-8.79102 -4.55762 -15.79 -9.52148 -20.9961 -14.8926c-5.20996 -5.37109 -10.7441 -11.6377 -16.6016 -18.7988
c-5.20801 -6.51074 -10.498 -12.8584 -15.8691 -19.043s-11.1494 -12.207 -17.334 -18.0664c-10.7422 -11.3936 -23.1123 -22.624 -37.1094 -33.6914s-24.5771 -23.1123 -31.7383 -36.1328c-8.1377 -13.9971 -13.1836 -30.1924 -15.1367 -48.584
c-1.95215 -18.3916 -4.96387 -35.7256 -9.0332 -52.002c-4.07031 -16.2764 -11.2314 -29.9482 -21.4844 -41.0156c-10.2539 -11.0674 -27.751 -16.6016 -52.4902 -16.6016c-19.8564 0 -38.0049 4.15039 -54.4434 12.4512s-30.2734 19.4502 -41.5039 33.4473
s-20.0195 30.0293 -26.3672 48.0957s-9.52148 36.377 -9.52148 54.9316c0 19.2061 2.84863 37.5166 8.54492 54.9316s12.4512 34.749 20.2637 52.002c-11.3936 -0.652344 -22.7051 -1.30273 -33.9355 -1.95312c-11.2305 -0.652344 -22.542 -0.977539 -33.9355 -0.976562
c-17.9033 0 -35.4004 1.70898 -52.4902 5.12695s-32.3076 9.11426 -45.6543 17.0898s-24.1699 18.9619 -32.4707 32.959s-12.4512 31.5752 -12.4512 52.7344zM68.1055 360.84c0 -11.3936 2.84863 -20.4268 8.54492 -27.0996
c5.69629 -6.67383 12.6953 -11.6377 20.9961 -14.8926s17.415 -5.20801 27.3438 -5.85938s19.2871 -0.976562 28.0762 -0.976562c15.2998 0 30.1104 0.488281 44.4336 1.46484s28.8086 1.46484 43.457 1.46484c10.0908 0 20.1006 -0.488281 30.0293 -1.46484
s19.6123 -3.41797 29.0527 -7.32422c0 -13.3467 -2.68555 -26.042 -8.05664 -38.0859s-11.2305 -24.251 -17.5781 -36.6211s-11.9629 -25.2275 -16.8457 -38.5742s-7.32422 -27.9951 -7.32422 -43.9453c0 -10.7422 1.62793 -21.4033 4.88281 -31.9824
s8.05664 -20.1826 14.4043 -28.8086s13.9971 -15.625 22.9492 -20.9961s19.4502 -8.05664 31.4941 -8.05664c1.30371 0 3.1748 -0.163086 5.61523 -0.488281c2.44531 -0.325195 4.31641 -0.163086 5.61523 0.488281c2.60449 1.30176 4.06934 2.60352 4.39453 3.90625
l1.46484 5.85938c3.90625 19.2061 7.56836 39.3877 10.9863 60.5469c3.41895 21.1592 9.68457 40.3643 18.7988 57.6172c9.44043 16.6016 21.4844 30.9248 36.1328 42.9688s28.6455 24.7393 41.9922 38.0859c9.44043 10.0908 17.4971 19.2871 24.1699 27.5879
s13.5088 16.1133 20.5078 23.4375s14.6484 14.1602 22.9492 20.5078s19.124 12.126 32.4707 17.334h0.976562v313.965c-23.4375 0 -45.8174 2.68555 -67.1387 8.05664s-42.9688 11.2305 -64.9414 17.5781s-44.9219 12.207 -68.8477 17.5781
s-49.8857 8.05664 -77.8809 8.05664c-14.6484 0 -30.6807 -1.2207 -48.0957 -3.66211c-17.416 -2.44141 -33.6104 -6.83594 -48.584 -13.1836s-27.6689 -15.4619 -38.0859 -27.3438s-15.625 -27.5879 -15.625 -47.1191
c0.00292969 -3.25488 0.166016 -6.18457 0.488281 -8.78906c0.325195 -2.60645 0.813477 -5.69922 1.46484 -9.27734c-11.3936 -5.20801 -20.0195 -13.835 -25.8789 -25.8789s-8.78906 -24.0889 -8.78906 -36.1328c0 -12.6953 3.25488 -23.6006 9.76562 -32.7148
c-19.2061 -15.9502 -28.8086 -35.9697 -28.8086 -60.0586c0 -7.4873 1.95312 -14.5674 5.85938 -21.2402s8.30078 -12.2881 13.1836 -16.8457c-5.20801 -9.44043 -9.84668 -18.7988 -13.916 -28.0762s-6.10352 -19.6123 -6.10352 -31.0059zM596.914 629.883
c0 -10.7422 3.8252 -19.9385 11.4746 -27.5879s16.8457 -11.4746 27.5879 -11.4746c11.3975 0.00195312 20.7568 3.82715 28.0762 11.4746c7.32422 7.64941 10.9863 16.8457 10.9863 27.5879c0 11.3936 -3.66211 20.752 -10.9863 28.0762s-16.6826 10.9863 -28.0762 10.9863
c-10.7451 0 -19.9414 -3.66211 -27.5879 -10.9863c-7.65234 -7.32422 -11.4775 -16.6826 -11.4746 -28.0762z" />
    <glyph glyph-name="uniF099" unicode="&#xf099;" 
d="M10 191.895c0 6.51074 2.19727 11.9629 6.5918 16.3574s9.84668 6.5918 16.3574 6.5918c4.55762 0 9.60254 -1.95312 15.1367 -5.85938c40.0391 -35.4814 86.751 -53.0596 140.137 -52.7344c19.2061 0 38.3301 2.44141 57.373 7.32422s36.54 12.6953 52.4902 23.4375
c-9.44043 5.20801 -17.1719 12.0439 -23.1934 20.5078c-6.02344 8.46387 -9.03418 17.9033 -9.0332 28.3203c0 7.4873 1.30176 13.835 3.90625 19.043c-5.85938 1.95508 -13.1025 5.29199 -21.7285 10.0098c-8.62598 4.71973 -16.9268 10.2539 -24.9023 16.6016
c-7.97559 6.34863 -14.6484 13.3477 -20.0195 20.9961c-5.37109 7.64941 -8.05664 15.2178 -8.05664 22.7051c0 5.20801 1.62793 9.84668 4.88281 13.916s7.32422 7.73145 12.207 10.9863c-13.3467 8.13867 -25.7158 20.1836 -37.1094 36.1328
c-11.3936 15.9512 -17.0898 31.9014 -17.0898 47.8516c0 10.7422 5.37109 17.7402 16.1133 20.9961c-11.3936 11.3936 -20.4268 24.5771 -27.0996 39.5508c-6.67383 14.9736 -10.0098 30.4365 -10.0098 46.3867c0 7.49121 1.54688 14.2461 4.63867 20.2637
c3.09277 6.02637 9.19629 9.03711 18.3105 9.0332c5.85938 0 19.5312 -4.39453 41.0156 -13.1836s44.6777 -18.6357 69.5801 -29.541s48.7471 -21.8916 71.5332 -32.959c22.7871 -11.0674 38.7373 -18.8799 47.8516 -23.4375
c8.13867 -4.55762 15.8701 -9.68457 23.1934 -15.3809c7.3252 -5.69629 14.5674 -11.6377 21.7285 -17.8223c6.51074 16.6016 14.1602 33.9355 22.9492 52.002s18.5547 35.4004 29.2969 52.002c10.7432 16.6016 22.624 32.2266 35.6445 46.875
c13.0205 14.6504 27.5068 26.6943 43.457 36.1328c2.60449 1.95312 6.51074 2.92969 11.7188 2.92969c5.85938 0 10.2539 -1.30176 13.1836 -3.90625c5.20801 1.95312 11.9629 4.15039 20.2637 6.5918c8.2998 2.44141 15.2178 3.66211 20.752 3.66211
c9.44336 0 16.4414 -4.39453 20.9961 -13.1836c10.0908 0 19.2871 -2.52246 27.5879 -7.56836s12.4512 -13.2646 12.4512 -24.6582c0 -10.0947 -4.39453 -18.7207 -13.1836 -25.8789c31.25 -13.998 57.2109 -34.3428 77.8809 -61.0352
c20.6709 -26.6934 35.4004 -56.3154 44.1895 -88.8672c1.95898 -0.643555 5.70312 -0.969727 11.2305 -0.976562c15.3027 0 29.625 2.68555 42.9688 8.05664c13.3467 5.37109 22.624 8.05664 27.832 8.05664c5.85938 0 10.9863 -2.36035 15.3809 -7.08008
s6.5918 -10.0098 6.5918 -15.8691c0 -7.48828 -3.17383 -15.3828 -9.52148 -23.6816c-6.34766 -8.30176 -11.7998 -14.7305 -16.3574 -19.2871c7.4873 1.30176 14.3232 0.0810547 20.5078 -3.66211s9.27734 -10.0098 9.27734 -18.7988
c-0.00683594 -9.44043 -4.32031 -17.5791 -12.9395 -24.4141c-8.62598 -6.83594 -18.6357 -12.9395 -30.0293 -18.3105s-23.1934 -9.52148 -35.4004 -12.4512c-12.207 -2.93262 -21.7285 -4.72266 -28.5645 -5.37109c-13.999 -45.2471 -35.6465 -85.2861 -64.9414 -120.117
c-29.2969 -34.8311 -63.4766 -63.8838 -102.539 -87.1582s-81.0547 -41.0967 -125.977 -53.4668s-89.6816 -18.5547 -134.277 -18.5547c-71.2891 0 -138.835 15.2178 -202.637 45.6543s-116.699 74.9512 -158.691 133.545
c-2.60449 5.20801 -3.90625 9.44043 -3.90625 12.6953z" />
    <glyph glyph-name="uniF0E6" unicode="&#xf0e6;" horiz-adv-x="956" 
d="M10 501.953c0 31.9014 6.51074 61.6055 19.5312 89.1113c13.0205 27.5078 30.3545 52.084 52.002 73.7305c21.6475 21.6494 46.1426 40.1221 73.4863 55.4199c27.3438 15.3047 55.0127 27.6748 83.0078 37.1094c24.7393 8.1377 49.8857 13.9971 75.4395 17.5781
c25.5537 3.58887 51.0254 5.37988 76.416 5.37109c26.042 -0.00585938 51.9209 -1.87793 77.6367 -5.61523c25.7168 -3.74414 50.9443 -9.52246 75.6836 -17.334c27.9961 -9.44043 55.665 -21.8096 83.0078 -37.1094c27.3438 -15.2998 51.6768 -33.7725 72.998 -55.4199
s38.4111 -46.1426 51.2695 -73.4863c12.8564 -27.3438 19.2861 -57.1289 19.2871 -89.3555c0 -31.9014 -6.42871 -61.5234 -19.2871 -88.8672s-29.9482 -51.6768 -51.2695 -72.998s-45.6543 -39.7949 -72.998 -55.4199s-55.0127 -28.1572 -83.0078 -37.5977
c-50.1299 -15.2998 -101.237 -22.9492 -153.32 -22.9492c-12.0439 0 -23.8447 0.488281 -35.4004 1.46484c-11.5557 0.979492 -23.3564 2.11914 -35.4004 3.41797c-48.8281 -37.4346 -103.516 -62.6631 -164.062 -75.6836
c-6.51074 -1.30469 -13.5088 -2.85059 -20.9961 -4.63867c-7.4873 -1.79102 -14.8115 -2.68652 -21.9727 -2.68555c-3.90625 0.000976562 -7.40527 1.54688 -10.498 4.63867c-3.09277 3.09277 -4.63867 6.91797 -4.63867 11.4746c0 3.25488 1.2207 6.10352 3.66211 8.54492
l6.5918 6.5918c16.6016 16.6016 28.4014 32.2266 35.4004 46.875s12.7773 33.6914 17.334 57.1289c-20.5078 11.3936 -39.7949 24.7393 -57.8613 40.0391s-33.9355 32.2266 -47.6074 50.7812s-24.4951 38.7373 -32.4707 60.5469
c-7.97559 21.8105 -11.9629 44.9219 -11.9629 69.3359zM88.125 501.953c0 -23.4375 4.96387 -44.1084 14.8926 -62.0117s22.542 -34.0166 37.8418 -48.3398s32.3076 -27.0186 51.0254 -38.0859s37.0283 -21.4844 54.9316 -31.25l-9.76562 -54.1992
c10.7422 5.85938 21.0771 12.6953 31.0059 20.5078c9.92871 7.81348 19.6123 15.3008 29.0527 22.4609c15.2998 -1.95312 30.7617 -3.90625 46.3867 -5.85938s31.0869 -2.92969 46.3867 -2.92969c43.9453 0 86.9141 6.67285 128.906 20.0195
c19.8564 5.86035 40.0391 14.3242 60.5469 25.3906c20.5078 11.0674 39.0625 24.251 55.6641 39.5508s30.2734 32.4707 41.0156 51.5137s16.1133 40.1211 16.1133 63.2324c0 23.4375 -5.37109 44.8408 -16.1133 64.209s-24.4141 36.54 -41.0156 51.5137
c-16.6025 14.9736 -35.0762 27.9951 -55.4199 39.0625c-20.3447 11.0674 -40.6084 19.5312 -60.791 25.3906c-20.5088 7.49121 -41.5859 12.6992 -63.2324 15.625c-21.6475 2.92969 -43.5391 4.39453 -65.6738 4.39453c-21.4844 0 -42.9688 -1.46484 -64.4531 -4.39453
s-42.9688 -8.1377 -64.4531 -15.625c-19.2061 -5.8623 -39.1436 -14.3262 -59.8145 -25.3906c-20.6709 -11.0693 -39.3877 -24.0898 -56.1523 -39.0625c-16.7646 -14.9756 -30.4365 -32.1465 -41.0156 -51.5137c-10.5791 -19.3701 -15.8691 -40.7734 -15.8691 -64.209z
M326.895 141.113l13.1836 7.8125c16.6016 -1.95312 33.2031 -2.92969 49.8047 -2.92969c64.1279 0 126.14 10.0908 186.035 30.2734c36.1328 12.0439 70.4756 28.2393 103.027 48.584c32.5518 20.3457 61.3604 44.3525 86.4258 72.0215
c25.0654 27.6699 45.085 58.5938 60.0586 92.7734s22.4609 71.6143 22.4609 112.305c0 13.3467 -0.976562 27.0186 -2.92969 41.0156c29.2969 -23.4375 53.4668 -50.9443 72.5098 -82.5195s28.5645 -66.4062 28.5645 -104.492
c0 -24.7393 -3.9873 -47.9326 -11.9629 -69.5801s-18.7988 -41.748 -32.4707 -60.3027s-29.541 -35.4814 -47.6074 -50.7812s-37.3535 -28.6455 -57.8613 -40.0391c4.56641 -23.4375 10.3447 -42.4805 17.334 -57.1289c7.00195 -14.6484 18.8018 -30.2734 35.4004 -46.875
c1.95312 -1.95312 4.15039 -4.31348 6.5918 -7.08008s3.66211 -5.77832 3.66211 -9.0332c0 -5.20801 -1.70898 -9.0332 -5.12695 -11.4746s-7.40527 -3.66211 -11.9629 -3.66211c-6.51074 0 -13.5088 0.895508 -20.9961 2.68555s-14.1602 3.33691 -20.0195 4.63867
c-60.5469 13.3467 -115.234 38.5742 -164.062 75.6836c-12.0469 -1.30176 -23.8477 -2.44141 -35.4004 -3.41797c-11.5566 -0.976562 -23.3574 -1.46484 -35.4004 -1.46484c-41.9922 0 -83.334 5.20801 -124.023 15.625c-40.6904 10.417 -79.1016 26.2041 -115.234 47.3633z
" />
    <glyph glyph-name="uniF023" unicode="&#xf023;" horiz-adv-x="632" 
d="M10 57.1289v305.664c0 12.6953 3.49902 23.9258 10.498 33.6914s16.1943 16.6016 27.5879 20.5078v80.0781c0 36.7842 6.99902 71.4521 20.9961 104.004s33.1221 61.0352 57.373 85.4492s52.7344 43.6201 85.4492 57.6172s67.4639 20.9961 104.248 20.9961
c36.7842 -0.00390625 71.4521 -7.00293 104.004 -20.9961c32.5518 -13.999 61.0352 -33.2051 85.4492 -57.6172c24.4141 -24.4141 43.6201 -52.9785 57.6172 -85.6934s20.9961 -67.3018 20.9961 -103.76v-80.0781c11.3955 -3.90625 20.5098 -10.7422 27.3438 -20.5078
c6.83594 -9.76562 10.2539 -20.9961 10.2539 -33.6914v-305.664c0 -15.2998 -5.61523 -28.6455 -16.8457 -40.0391s-24.4951 -17.0898 -39.7949 -17.0898h-498.047c-15.2998 0 -28.6455 5.69629 -40.0391 17.0898s-17.0898 24.7393 -17.0898 40.0391zM162.832 420.898
h306.152v76.1719c-0.00195312 21.4844 -3.98926 41.5039 -11.9629 60.0586c-7.97559 18.5547 -18.9619 34.668 -32.959 48.3398c-13.9971 13.6748 -30.3545 24.498 -49.0723 32.4707c-18.7178 7.97852 -38.3301 11.9658 -58.8379 11.9629
c-21.4844 0 -41.3408 -3.9873 -59.5703 -11.9629s-34.4238 -18.7988 -48.584 -32.4707s-25.2275 -29.8662 -33.2031 -48.584s-11.9629 -38.6553 -11.9629 -59.8145v-76.1719zM251.211 80.0781h129.883l-32.2266 139.16c9.44043 5.85938 17.1709 13.7529 23.1934 23.6816
s9.0332 20.5889 9.0332 31.9824c0 17.9043 -6.34766 33.3662 -19.043 46.3867s-27.9951 19.5312 -45.8984 19.5312s-33.2031 -6.51074 -45.8984 -19.5312s-19.043 -28.4834 -19.043 -46.3867c0 -11.3945 2.92969 -22.0547 8.78906 -31.9824
c5.85938 -9.92871 13.5088 -17.4971 22.9492 -22.7051z" />
    <glyph glyph-name="uniF0CA" unicode="&#xf0ca;" 
d="M10 94.2383c0 12.6953 2.52246 24.9023 7.56836 36.6211s11.7188 21.7285 20.0195 30.0293s18.1475 14.8926 29.541 19.7754s23.7627 7.32422 37.1094 7.32422c12.6953 0 24.6582 -2.44141 35.8887 -7.32422s21.1592 -11.4746 29.7852 -19.7754
s15.4619 -18.3105 20.5078 -30.0293c5.04688 -11.7188 7.56934 -23.9258 7.56836 -36.6211c0 -13.3467 -2.52246 -25.7158 -7.56836 -37.1094s-11.8818 -21.2402 -20.5078 -29.541s-18.6357 -14.9736 -30.0293 -20.0195s-23.2744 -7.56836 -35.6445 -7.56836
c-26.042 0 -48.2588 9.19629 -66.6504 27.5879s-27.5879 40.6084 -27.5879 66.6504zM10 366.211c0 12.6953 2.52246 24.9023 7.56836 36.6211s11.7188 21.7285 20.0195 30.0293s18.1475 14.9736 29.541 20.0195c11.3936 5.05078 23.7627 7.57324 37.1094 7.56836
c12.6953 0 24.6582 -2.52246 35.8887 -7.56836c11.2305 -5.04688 21.1592 -11.7197 29.7852 -20.0195c8.62598 -8.30078 15.4619 -18.3105 20.5078 -30.0293c5.04688 -11.7188 7.56934 -23.9258 7.56836 -36.6211c0 -13.3477 -2.52246 -25.7178 -7.56836 -37.1094
c-5.0459 -11.3936 -11.8818 -21.2402 -20.5078 -29.541c-8.62598 -8.30176 -18.6357 -14.9746 -30.0293 -20.0195c-11.3936 -5.04883 -23.2744 -7.57129 -35.6445 -7.56836c-13.3467 0 -25.7158 2.52246 -37.1094 7.56836s-21.2402 11.7188 -29.541 20.0195
s-14.9736 18.1475 -20.0195 29.541s-7.56836 23.7627 -7.56836 37.1094zM10 638.184c0 12.6953 2.52246 24.9023 7.56836 36.6211s11.7188 21.7285 20.0195 30.0293c8.30078 8.30371 18.1475 14.9766 29.541 20.0195c11.3936 5.0498 23.7627 7.57324 37.1094 7.56836
c12.6953 0 24.6582 -2.52246 35.8887 -7.56836s21.1592 -11.7188 29.7852 -20.0195s15.4619 -18.3105 20.5078 -30.0293c5.04688 -11.7188 7.56934 -23.9258 7.56836 -36.6211c0 -13.3467 -2.52246 -25.7158 -7.56836 -37.1094s-11.8818 -21.2402 -20.5078 -29.541
s-18.6357 -14.8926 -30.0293 -19.7754s-23.2744 -7.32422 -35.6445 -7.32422c-13.3467 0 -25.7158 2.44141 -37.1094 7.32422s-21.2402 11.4746 -29.541 19.7754c-8.30078 8.30273 -14.9736 18.1494 -20.0195 29.541c-5.0459 11.3965 -7.56836 23.7656 -7.56836 37.1094z
M264.883 66.4062v55.6641c0 10.7422 3.66211 19.7754 10.9863 27.0996s16.3574 10.9863 27.0996 10.9863h569.824c10.0908 0 18.7988 -3.66211 26.123 -10.9863s10.9863 -16.3574 10.9863 -27.0996v-55.6641c0 -10.7422 -3.66211 -19.6123 -10.9863 -26.6113
c-7.32812 -6.99902 -16.0361 -10.498 -26.123 -10.498h-569.824c-10.7422 0 -19.7754 3.49902 -27.0996 10.498s-10.9863 15.8691 -10.9863 26.6113zM264.883 338.379v55.6641c0 10.7422 3.66211 19.7754 10.9863 27.0996s16.3574 10.9863 27.0996 10.9863h569.824
c10.0908 0 18.7988 -3.66211 26.123 -10.9863s10.9863 -16.3574 10.9863 -27.0996v-55.6641c0 -10.7422 -3.66211 -19.7754 -10.9863 -27.0996c-7.32812 -7.32422 -16.0361 -10.9863 -26.123 -10.9863h-569.824c-10.7422 0 -19.7754 3.66211 -27.0996 10.9863
s-10.9863 16.3574 -10.9863 27.0996zM264.883 610.352v55.6641c0 10.7422 3.66211 19.7754 10.9863 27.0996s16.3574 10.9863 27.0996 10.9863h569.824c10.0908 0 18.7988 -3.66211 26.123 -10.9863s10.9863 -16.3574 10.9863 -27.0996v-55.6641
c0 -10.7422 -3.66211 -19.7754 -10.9863 -27.0996c-7.32812 -7.32422 -16.0361 -10.9863 -26.123 -10.9863h-569.824c-10.7422 0 -19.7754 3.66211 -27.0996 10.9863s-10.9863 16.3574 -10.9863 27.0996z" />
    <glyph glyph-name="uniF05D" unicode="&#xf05d;" horiz-adv-x="800" 
d="M10 390.137c0 54.0371 10.1729 104.736 30.5176 152.1c20.3447 47.3643 48.1768 88.7051 83.4961 124.023c35.3193 35.3193 76.6602 63.1514 124.023 83.4961s98.0635 30.5176 152.1 30.5176c54.0371 0.000976562 104.655 -10.1719 151.855 -30.5176
c47.2002 -20.3447 88.542 -48.1768 124.023 -83.4961s63.3135 -76.6602 83.4961 -124.023s30.2734 -98.0635 30.2734 -152.1s-10.0908 -104.736 -30.2734 -152.1s-48.0146 -88.7041 -83.4961 -124.023c-35.4824 -35.3193 -76.8232 -63.1514 -124.023 -83.4961
s-97.8193 -30.5176 -151.855 -30.5176s-104.736 10.1729 -152.1 30.5176s-88.7041 48.1768 -124.023 83.4961s-63.1514 76.6602 -83.4961 124.023s-30.5176 98.0635 -30.5176 152.1zM127.188 390.137c0 -38.0859 7.16113 -73.5684 21.4844 -106.445
c14.3232 -32.8779 33.7725 -61.6865 58.3496 -86.4258s53.3857 -44.2705 86.4258 -58.5938s68.6035 -21.4844 106.689 -21.4844s73.5674 7.16211 106.445 21.4844c32.8779 14.3232 61.6865 33.8545 86.4258 58.5938s44.2705 53.5479 58.5938 86.4258
c14.3242 32.8779 21.4854 68.3594 21.4844 106.445c0 38.0859 -7.16113 73.5674 -21.4844 106.445s-33.8545 61.6865 -58.5938 86.4258c-24.7412 24.7393 -53.6309 44.2705 -86.6699 58.5938c-33.04 14.3262 -68.4404 21.4873 -106.201 21.4844
c-38.0859 0 -73.6494 -7.16113 -106.689 -21.4844s-61.8486 -33.8545 -86.4258 -58.5938s-44.0264 -53.5479 -58.3496 -86.4258s-21.4844 -68.3594 -21.4844 -106.445zM172.109 365.479c0 5.69922 1.62793 10.1748 4.88281 13.4277l56.1523 56.1523
c3.25488 3.25781 7.73145 4.88574 13.4277 4.88281c5.69629 0 10.1729 -1.62793 13.4277 -4.88281l86.9141 -87.8906c9.44043 -8.1377 18.8799 -8.1377 28.3203 0l164.551 166.016c3.25488 3.25488 7.73145 4.88281 13.4277 4.88281
c5.69629 -0.0166016 10.335 -1.64453 13.916 -4.88281l55.6641 -56.1523c3.25488 -3.25488 4.96387 -7.73145 5.12695 -13.4277s-1.5459 -10.1729 -5.12695 -13.4277l-199.707 -200.195c-3.90625 -3.90723 -9.19629 -7.16211 -15.8691 -9.76562
c-6.67285 -2.60449 -12.7764 -3.90625 -18.3105 -3.90625h-55.6641c-5.20801 0.00195312 -11.2305 1.30371 -18.0664 3.90625c-6.83594 2.60449 -12.207 5.85938 -16.1133 9.76562l-122.07 122.07c-3.25586 3.25684 -4.88379 7.7334 -4.88281 13.4277z" />
    <glyph glyph-name="uniF010" unicode="&#xf010;" horiz-adv-x="800" 
d="M10 454.84c0 44.5967 8.46387 86.5889 25.3906 125.977c16.9268 39.3887 40.2832 73.8936 70.0684 103.516c29.7852 29.623 64.29 52.9785 103.516 70.0684s81.2988 25.6348 126.221 25.6348c44.5967 0 86.751 -8.54492 126.465 -25.6348
c39.7139 -17.0908 74.2188 -40.4473 103.516 -70.0684c29.2969 -29.6221 52.4092 -64.1279 69.3359 -103.516s25.3906 -81.3799 25.3906 -125.977c0 -33.2031 -4.63867 -65.0225 -13.916 -95.459s-22.542 -58.1865 -39.7949 -83.252l174.805 -175.293
c5.85938 -5.85938 8.78906 -13.3457 8.78906 -22.4609c0 -9.11426 -2.92969 -16.9268 -8.78906 -23.4375l-45.8984 -45.8984c-6.51074 -5.85938 -14.3232 -8.87012 -23.4375 -9.0332c-9.11816 -0.162109 -16.6055 2.84863 -22.4609 9.0332l-175.293 174.805
c-25.3906 -17.252 -53.2227 -30.5176 -83.4961 -39.7949s-62.0117 -13.916 -95.2148 -13.916c-44.5967 0 -86.5889 8.46387 -125.977 25.3906c-39.3877 16.9277 -73.9746 40.0391 -103.76 69.3359s-53.1416 63.6396 -70.0684 103.027
c-16.9268 39.3887 -25.3906 81.7061 -25.3906 126.953zM139.883 454.84c0 -27.3438 5.20801 -52.8154 15.625 -76.416c10.417 -23.5996 24.4141 -44.1074 41.9922 -61.5234c17.5781 -17.415 38.249 -31.25 62.0117 -41.5039
c23.7637 -10.2539 48.9912 -15.3809 75.6836 -15.3809c26.6934 0 52.002 5.12695 75.9277 15.3809s44.5146 24.0889 61.7676 41.5039c17.2529 17.416 31.0869 37.9238 41.5039 61.5234c10.4189 23.6006 15.627 49.0723 15.625 76.416
c0 26.6934 -5.20801 51.8398 -15.625 75.4395c-10.417 23.6016 -24.252 44.2715 -41.5039 62.0117c-17.2529 17.7412 -37.8418 31.7383 -61.7676 41.9922s-49.2354 15.3809 -75.9277 15.3809s-51.9209 -5.12695 -75.6836 -15.3809s-44.4336 -24.251 -62.0117 -41.9922
c-17.5781 -17.7402 -31.5752 -38.4111 -41.9922 -62.0117c-10.417 -23.5996 -15.625 -48.7461 -15.625 -75.4395zM204.824 438.727v32.2266c0 10.7422 5.37109 16.1133 16.1133 16.1133h228.027c10.7422 0 16.1133 -5.37109 16.1133 -16.1133v-32.2266
c-0.00195312 -4.55664 -1.54883 -8.46289 -4.63867 -11.7188c-3.09473 -3.25488 -6.91992 -4.88281 -11.4746 -4.88281h-228.027c-4.55762 0.00292969 -8.38184 1.63086 -11.4746 4.88281c-3.09277 3.25586 -4.63867 7.16211 -4.63867 11.7188z" />
    <glyph glyph-name="uniF01D" unicode="&#xf01d;" horiz-adv-x="800" 
d="M10 390.137c0 54.0371 10.1729 104.736 30.5176 152.1c20.3447 47.3643 48.1768 88.7051 83.4961 124.023c35.3193 35.3193 76.6602 63.1514 124.023 83.4961s98.0635 30.5176 152.1 30.5176c54.0371 0.000976562 104.655 -10.1719 151.855 -30.5176
c47.2002 -20.3447 88.542 -48.1768 124.023 -83.4961s63.3135 -76.6602 83.4961 -124.023s30.2734 -98.0635 30.2734 -152.1s-10.0908 -104.736 -30.2734 -152.1s-48.0146 -88.7041 -83.4961 -124.023c-35.4824 -35.3193 -76.8232 -63.1514 -124.023 -83.4961
s-97.8193 -30.5176 -151.855 -30.5176s-104.736 10.1729 -152.1 30.5176s-88.7041 48.1768 -124.023 83.4961s-63.1514 76.6602 -83.4961 124.023s-30.5176 98.0635 -30.5176 152.1zM127.188 390.137c0 -38.0859 7.16113 -73.5684 21.4844 -106.445
c14.3232 -32.8779 33.7725 -61.6865 58.3496 -86.4258s53.3857 -44.2705 86.4258 -58.5938s68.6035 -21.4844 106.689 -21.4844s73.5674 7.16211 106.445 21.4844c32.8779 14.3232 61.6865 33.8545 86.4258 58.5938s44.2705 53.5479 58.5938 86.4258
c14.3242 32.8779 21.4854 68.3594 21.4844 106.445c0 38.0859 -7.16113 73.5674 -21.4844 106.445s-33.8545 61.6865 -58.5938 86.4258c-24.7412 24.7393 -53.6309 44.2705 -86.6699 58.5938c-33.04 14.3262 -68.4404 21.4873 -106.201 21.4844
c-38.0859 0 -73.6494 -7.16113 -106.689 -21.4844s-61.8486 -33.8545 -86.4258 -58.5938s-44.0264 -53.5479 -58.3496 -86.4258s-21.4844 -68.3594 -21.4844 -106.445zM294.18 236.328v306.641c0.000976562 5.8623 2.60547 10.583 7.8125 14.1602
c6.51074 2.60449 11.5557 2.60449 15.1367 0l266.113 -153.809c5.20801 -1.95312 7.8125 -6.34766 7.8125 -13.1836c-0.00878906 -6.51074 -2.61328 -10.9053 -7.8125 -13.1836l-266.113 -153.809c-2.60449 -1.30176 -5.0459 -1.95312 -7.32422 -1.95312
c-2.60645 0 -5.21094 0.651367 -7.8125 1.95312c-5.20801 3.25488 -7.8125 7.64941 -7.8125 13.1836z" />
    <glyph glyph-name="uniF007" unicode="&#xf007;" horiz-adv-x="785" 
d="M10 27.832v188.965c0 12.0449 3.01074 25.3906 9.0332 40.0391s13.835 28.6455 23.4375 41.9922s20.2637 25.3906 31.9824 36.1328c11.7188 10.7432 23.2744 17.7422 34.668 20.9961c5.85938 1.95312 16.6016 4.15039 32.2266 6.5918
c15.625 2.44629 32.3076 4.80566 50.0488 7.08008c17.7412 2.28125 34.749 4.39648 51.0254 6.34766c16.2764 1.95508 28.8086 3.58203 37.5977 4.88281c-29.9482 19.2061 -53.4668 44.1895 -70.5566 74.9512s-25.6348 64.209 -25.6348 100.342
c0 28.6455 5.53418 55.583 16.6016 80.8105s25.96 47.3633 44.6777 66.4062s40.6904 34.0986 65.918 45.166c25.2285 11.0674 52.165 16.6016 80.8105 16.6016c28.6465 -0.00390625 55.6641 -5.53809 81.0547 -16.6016c25.3906 -11.0674 47.6074 -26.123 66.6504 -45.166
c19.0439 -19.043 34.0176 -41.1777 44.9219 -66.4062c10.9072 -25.2295 16.3604 -52.166 16.3574 -80.8105c-0.000976562 -35.4824 -8.46387 -68.7676 -25.3906 -99.8535c-16.9268 -31.0869 -40.3643 -56.2334 -70.3125 -75.4395
c8.79004 -1.30176 21.3223 -2.92969 37.5977 -4.88281c16.2764 -1.95312 33.2041 -4.06934 50.7812 -6.34766c17.5791 -2.27832 34.0176 -4.63867 49.3164 -7.08008c15.3008 -2.44141 26.3682 -4.63867 33.2031 -6.5918c11.3936 -3.25488 22.8682 -10.0908 34.4238 -20.5078
c11.5557 -10.418 22.2168 -22.4619 31.9824 -36.1328c9.76953 -13.6719 17.6631 -27.832 23.6816 -42.4805c6.02832 -14.6484 9.03906 -27.9951 9.0332 -40.0391v-188.965c-3.25488 -1.30176 -6.91699 -3.58105 -10.9863 -6.83594s-8.46387 -6.42871 -13.1836 -9.52148
c-4.72754 -3.09277 -9.2041 -5.77832 -13.4277 -8.05664c-4.23828 -2.27832 -7.81934 -3.41797 -10.7422 -3.41797h-668.945c-11.3936 0 -20.0195 3.49902 -25.8789 10.498s-13.1836 12.7764 -21.9727 17.334z" />
    <glyph glyph-name="uniF01C" unicode="&#xf01c;" 
d="M10 38.0859v281.738c0 10.7432 1.46484 23.1123 4.39453 37.1094s6.51074 25.7158 10.7422 35.1562l138.672 323.73c3.90625 9.44043 11.0684 17.4971 21.4844 24.1699c10.417 6.67285 20.6709 10.0098 30.7617 10.0098h487.793
c10.0908 -0.00585938 20.3447 -3.34277 30.7617 -10.0098c10.4199 -6.67285 17.582 -14.7295 21.4844 -24.1699l138.672 -323.73c3.90332 -9.44043 7.40234 -21.1592 10.498 -35.1562c3.10938 -13.9971 4.65625 -26.3672 4.63867 -37.1094v-281.738
c0 -10.7422 -3.66211 -19.7754 -10.9863 -27.0996c-7.32812 -7.32422 -16.0361 -10.9863 -26.123 -10.9863h-824.707c-10.7422 0 -19.7754 3.66211 -27.0996 10.9863s-10.9863 16.3574 -10.9863 27.0996zM126.211 338.867h188.965l55.6641 -112.793h187.012l57.1289 112.793
h179.199c-0.651367 1.30859 -0.976562 2.85449 -0.976562 4.63867c0 1.79883 -0.325195 3.3457 -0.976562 4.63867l-125 290.039h-414.062l-125 -291.016c-0.652344 -0.651367 -0.978516 -1.87207 -0.976562 -3.66211
c-0.00195312 -1.79004 -0.327148 -3.33691 -0.976562 -4.63867z" />
    <glyph glyph-name="uniF09E" unicode="&#xf09e;" horiz-adv-x="785" 
d="M10 115.234c0 15.9502 3.01074 30.7617 9.0332 44.4336s14.1602 25.7979 24.4141 36.377s22.4609 18.8799 36.6211 24.9023s29.2158 9.0332 45.166 9.0332c15.9502 -0.000976562 30.7617 -3.0127 44.4336 -9.0332c13.6719 -6.02246 25.7979 -14.3232 36.377 -24.9023
c10.5791 -10.5801 18.8799 -22.7051 24.9023 -36.377c6.02344 -13.6719 9.03418 -28.4834 9.0332 -44.4336c0 -15.9502 -3.01074 -31.0059 -9.0332 -45.166s-14.3232 -26.3672 -24.9023 -36.6211s-22.7051 -18.3916 -36.377 -24.4141s-28.4834 -9.0332 -44.4336 -9.0332
s-31.0059 3.01074 -45.166 9.0332s-26.3672 14.1602 -36.6211 24.4141s-18.3916 22.3799 -24.4141 36.377s-9.0332 29.1338 -9.0332 45.4102zM10 399.902v77.1484c0 11.3936 4.06934 20.6709 12.207 27.832c7.4873 7.48633 16.1133 11.2295 25.8789 11.2305
c0.651367 -0.0253906 1.13965 -0.188477 1.46484 -0.488281c0.325195 -0.30957 0.813477 -0.47168 1.46484 -0.488281c62.8252 -4.55762 121.826 -20.0195 177.002 -46.3867s104.167 -60.9541 146.973 -103.76s77.3115 -91.8779 103.516 -147.217
c26.2051 -55.3389 41.748 -114.258 46.6309 -176.758c1.30176 -11.3936 -2.11621 -20.9961 -10.2539 -28.8086c-7.4873 -8.1377 -16.7646 -12.207 -27.832 -12.207h-77.1484c-9.44043 0 -17.8232 3.33691 -25.1465 10.0098
c-7.32422 6.67285 -11.6377 15.0557 -12.9395 25.1465c-3.90625 43.2939 -15.0557 83.9033 -33.4473 121.826s-42.0732 71.3701 -71.0449 100.342s-62.4189 52.6533 -100.342 71.0449c-37.9229 18.3926 -78.5322 29.541 -121.826 33.4473
c-10.0908 1.30176 -18.4736 5.69629 -25.1465 13.1836s-10.0098 15.7881 -10.0098 24.9023zM10 649.902v77.1484c0 10.7422 4.06934 19.6943 12.207 26.8555c7.4873 7.49414 16.1133 11.2373 25.8789 11.2305h1.95312c97.9814 -5.20996 189.941 -27.5088 275.879 -66.8945
c85.9375 -39.3887 161.296 -91.4717 226.074 -156.25s116.78 -140.137 156.006 -226.074c39.2285 -85.9375 61.6074 -177.897 67.1387 -275.879c1.30176 -10.0908 -2.44141 -19.3682 -11.2305 -27.832c-7.4873 -8.1377 -16.4385 -12.207 -26.8555 -12.207h-77.1484
c-10.0938 0 -18.8008 3.49902 -26.123 10.498c-7.32422 6.99902 -11.3115 15.5439 -11.9629 25.6348c-4.55762 77.4736 -22.4609 150.146 -53.7109 218.018s-72.7539 127.686 -124.512 179.443s-111.653 93.2617 -179.688 124.512s-140.625 49.1543 -217.773 53.7109
c-10.0908 0.65332 -18.6357 4.6416 -25.6348 11.9629c-6.99902 7.32422 -10.498 16.0322 -10.498 26.123z" />
    <glyph glyph-name="uniF071" unicode="&#xf071;" horiz-adv-x="887" 
d="M10 44.9219c0 6.51074 0.976562 12.8584 2.92969 19.043c1.95312 6.18555 4.71973 11.8818 8.30078 17.0898l375 649.902c5.20996 8.79102 11.6396 16.6846 19.2871 23.6816c7.65039 7.00586 16.8467 10.5049 27.5879 10.498c10.7432 0 19.9395 -3.49902 27.5879 -10.498
c7.65137 -6.99902 14.0811 -14.8926 19.2871 -23.6816l375.977 -649.902c3.25488 -5.20801 5.94043 -10.8232 8.05664 -16.8457c2.10254 -6.02246 3.16016 -12.4512 3.17383 -19.2871c0 -15.9502 -6.18457 -27.4248 -18.5547 -34.4238s-25.5537 -10.498 -39.5508 -10.498
h-750.977c-13.9971 0 -27.1807 3.49902 -39.5508 10.498s-18.5547 18.4736 -18.5547 34.4238zM385.977 543.945l5.85938 -309.082c0 -4.55859 1.70898 -8.5459 5.12695 -11.9629c3.41797 -3.41797 7.40527 -5.12695 11.9629 -5.12695h67.8711
c4.55762 0 8.54492 1.70898 11.9629 5.12695s5.12695 7.40527 5.12695 11.9629l7.32422 309.082c0 4.55957 -1.70898 8.54785 -5.12695 11.9629c-3.41992 3.41797 -7.40723 5.12695 -11.9629 5.12695h-81.0547c-5.20801 0 -9.3584 -1.70898 -12.4512 -5.12695
c-3.0957 -3.41797 -4.64258 -7.40527 -4.63867 -11.9629zM388.906 82.0312c0 -5.20801 1.70898 -9.3584 5.12695 -12.4512s7.40527 -4.63867 11.9629 -4.63867h75.1953c11.3936 0 16.9268 5.69629 16.6016 17.0898v71.7773c0 5.20801 -1.46484 9.52148 -4.39453 12.9395
s-6.99902 5.12695 -12.207 5.12695h-75.1953c-4.55762 0.000976562 -8.54492 -1.62695 -11.9629 -4.88281c-3.41797 -3.25488 -5.12695 -7.64941 -5.12695 -13.1836v-71.7773z" />
    <glyph glyph-name="uniF0EA" unicode="&#xf0ea;" horiz-adv-x="800" 
d="M10 187.988v524.902c0 10.0908 3.66211 18.7988 10.9863 26.123s16.3574 10.9863 27.0996 10.9863h449.707c10.0918 0 18.7988 -3.66211 26.123 -10.9863s10.9863 -16.0322 10.9863 -26.123v-112.793h16.1133h29.7852c8.1377 0 17.1709 -2.19727 27.0996 -6.5918
c9.92871 -4.39648 17.9854 -9.19824 24.1699 -14.4043l136.719 -137.207c5.86523 -5.85938 10.8291 -13.835 14.8926 -23.9258c4.08691 -10.0908 6.12109 -19.043 6.10352 -26.8555v-30.2734v-331.055c0 -8.78906 -2.7666 -15.9502 -8.30078 -21.4844
s-12.6953 -8.30078 -21.4844 -8.30078h-419.922c-8.78906 0 -16.0322 2.84863 -21.7285 8.54492s-8.54492 12.7764 -8.54492 21.2402v120.117h-261.719c-10.7422 0 -19.7754 3.66211 -27.0996 10.9863s-10.9863 16.3574 -10.9863 27.0996zM144.766 645.02
c0.000976562 -3.90625 1.54688 -7.40527 4.63867 -10.498c3.09277 -3.09277 6.59277 -4.63867 10.498 -4.63867h225.098c3.90625 0.0117188 7.40527 1.55859 10.498 4.63867c3.09277 3.09961 4.63867 6.59863 4.63867 10.498v29.7852
c-0.00195312 3.9043 -1.54785 7.40332 -4.63867 10.498c-3.09375 3.10547 -6.59277 4.65137 -10.498 4.63867h-225.098c-3.90625 0 -7.40527 -1.46484 -10.498 -4.39453c-3.09277 -2.93262 -4.63867 -6.51367 -4.63867 -10.7422v-29.7852zM369.863 60.0586h360.352v270.996
h-179.199c-8.78906 0.00195312 -15.9502 2.84961 -21.4844 8.54492c-5.53418 5.69629 -8.30078 12.7764 -8.30078 21.2402v179.199h-151.367v-479.98zM580.801 391.113h149.414c0 0.651367 -0.569336 1.95312 -1.70898 3.90625
c-1.13965 1.95996 -2.03418 3.58789 -2.68555 4.88281l-136.719 136.23c0 1.30176 -0.976562 1.95312 -2.92969 1.95312c-0.651367 0 -0.976562 0.163086 -0.976562 0.488281s-0.325195 0.488281 -0.976562 0.488281s-1.2207 0.163086 -1.70898 0.488281
s-1.05762 0.488281 -1.70898 0.488281v-148.926z" />
    <glyph glyph-name="uniF040" unicode="&#xf040;" horiz-adv-x="770" 
d="M10 0l66.8945 204.102l423.34 422.852l136.719 -136.719l-422.852 -423.34zM150.137 198.975c0 -4.06934 1.62793 -7.73145 4.88281 -10.9863c2.60449 -2.60449 6.18555 -3.90625 10.7422 -3.90625c3.90625 0.000976562 7.32422 1.30371 10.2539 3.90625l336.914 336.914
c6.51074 6.51172 6.51074 13.5098 0 20.9961c-3.25488 3.25488 -6.91699 4.88281 -10.9863 4.88281c-4.07324 -0.0195312 -7.41016 -1.64746 -10.0098 -4.88281l-336.914 -335.938c-3.25488 -3.25488 -4.88281 -6.91699 -4.88281 -10.9863zM548.086 674.805l58.1055 58.1055
c11.3936 11.3965 25.0654 17.0928 41.0156 17.0898c15.9502 0 29.6221 -5.69629 41.0156 -17.0898l27.832 -26.8555l26.8555 -27.832c11.3965 -11.3936 17.0938 -25.1465 17.0898 -41.2598c0 -16.1143 -5.69629 -29.7051 -17.0898 -40.7715l-58.1055 -58.1055z" />
    <glyph glyph-name="uniF081" unicode="&#xf081;" horiz-adv-x="770" 
d="M10 94.2383v561.523c0 12.6953 2.52246 24.9023 7.56836 36.6211s11.7188 21.7285 20.0195 30.0293c8.30078 8.30566 18.1475 14.9785 29.541 20.0195c11.3936 5.05859 23.2744 7.58105 35.6445 7.56836h562.988c26.042 -0.00195312 48.2588 -9.19824 66.6504 -27.5879
c18.3916 -18.3916 27.5879 -40.6084 27.5879 -66.6504v-561.523c0 -13.3467 -2.52246 -25.7158 -7.56836 -37.1094s-11.7188 -21.2402 -20.0195 -29.541s-18.3105 -14.9736 -30.0293 -20.0195s-23.9258 -7.56836 -36.6211 -7.56836h-562.988
c-12.6953 0 -24.6582 2.52246 -35.8887 7.56836s-20.9961 11.7188 -29.2969 20.0195s-14.9736 18.1475 -20.0195 29.541s-7.56836 23.7627 -7.56836 37.1094zM108.145 272.949c26.042 -36.1328 58.3496 -63.6396 96.9238 -82.5195s80.8105 -28.3203 126.709 -28.3203
c31.25 0 61.2793 4.31348 90.0879 12.9395s54.8506 20.5889 78.125 35.8887s43.457 33.6104 60.5469 54.9316c17.0898 21.3223 29.541 44.6777 37.3535 70.0684c26.6924 1.95312 47.6885 11.2305 62.9883 27.832c4.59375 4.55762 5.24512 9.92871 1.95312 16.1133
c-2.60449 5.85938 -7.4873 8.30078 -14.6484 7.32422h-1.95312c7.4873 7.4873 12.3701 14.8115 14.6484 21.9727c2.59375 6.51074 1.29199 11.7188 -3.90625 15.625c-4.55762 4.55762 -9.92871 4.88281 -16.1133 0.976562
c-2.60449 -1.30176 -7.40527 -2.92969 -14.4043 -4.88281s-14.4043 -2.92969 -22.2168 -2.92969c-1.30176 0.0224609 -2.52246 0.185547 -3.66211 0.488281c-1.13965 0.337891 -2.36035 0.5 -3.66211 0.488281c-0.0117188 0.651367 -0.173828 1.30176 -0.488281 1.95312
c-0.352539 0.651367 -0.514648 1.30176 -0.488281 1.95312c-5.20801 19.8574 -14.4854 37.8418 -27.832 53.9551s-28.6455 27.9141 -45.8984 35.4004c1.30176 1.30176 2.27832 2.60449 2.92969 3.90625s1.62793 2.60449 2.92969 3.90625
c1.95312 5.20801 1.95312 10.5791 0 16.1133c-0.651367 1.95312 -2.68555 4.55762 -6.10352 7.8125s-9.0332 4.55762 -16.8457 3.90625c-0.651367 1.30176 -1.62793 2.60449 -2.92969 3.90625c-3.90625 3.90625 -7.97559 5.37109 -12.207 4.39453
c-8.1377 -1.31836 -16.1133 -3.43359 -23.9258 -6.34766l-0.976562 0.976562c-4.55957 2.58594 -9.60449 2.25977 -15.1367 -0.976562c-19.2061 -12.0449 -35.1562 -28.3213 -47.8516 -48.8281c-12.6963 -20.5078 -23.7637 -42.4805 -33.2031 -65.918
c-11.3936 10.0938 -20.6709 16.7666 -27.832 20.0195c-19.8564 11.3936 -40.8525 21.7285 -62.9883 31.0059s-47.2002 19.2871 -75.1953 30.0293c-4.55762 1.30176 -8.46387 0.651367 -11.7188 -1.95312c-3.25488 -1.95312 -5.69629 -5.37109 -7.32422 -10.2539
c-0.651367 -8.78906 0.732422 -18.3105 4.15039 -28.5645s9.68457 -20.4268 18.7988 -30.5176c-8.13867 -1.9541 -11.3945 -7.16211 -9.76562 -15.625c3.90625 -22.1357 14.9736 -38.5742 33.2031 -49.3164l-6.34766 -5.85938
c-4.55762 -4.55762 -5.20801 -9.92871 -1.95312 -16.1133c1.30176 -3.90625 5.61523 -10.0098 12.9395 -18.3105s17.9854 -14.5674 31.9824 -18.7988c-1.95312 -3.90625 -2.92969 -7.4873 -2.92969 -10.7422c0.0136719 -3.25488 0.338867 -5.53418 0.976562 -6.83594
c1.95312 -10.7432 8.30078 -18.8809 19.043 -24.4141c-12.0439 -8.1377 -24.9023 -13.6719 -38.5742 -16.6016s-27.5068 -3.8252 -41.5039 -2.68555c-13.998 1.13965 -27.5068 4.47559 -40.5273 10.0098s-24.4141 13.0205 -34.1797 22.4609
c-2.60449 2.60449 -5.77832 3.90625 -9.52148 3.90625c-3.74316 0.000976562 -6.91699 -1.30176 -9.52148 -3.90625c-7.4873 -5.85938 -8.13867 -12.207 -1.95312 -19.043z" />
    <glyph glyph-name="uniF095" unicode="&#xf095;" horiz-adv-x="800" 
d="M10 585.938c0 17.9033 2.36035 36.54 7.08008 55.9082s11.7188 37.9229 20.9961 55.6641s20.4268 33.7734 33.4473 48.0957c13.0205 14.3232 28.1572 25.5537 45.4102 33.6914c3.90625 -0.651367 8.21973 -0.651367 12.9395 0
c4.71973 0.664062 9.0332 0.990234 12.9395 0.976562c3.25488 -0.0244141 8.1377 -0.1875 14.6484 -0.488281l19.5312 -0.976562l18.7988 -2.19727l13.4277 -3.66211c2.60449 -1.95312 5.0459 -4.88281 7.32422 -8.78906
c2.27832 -3.91406 4.23145 -8.22656 5.85938 -12.9395c1.62793 -4.71973 3.1748 -9.60254 4.63867 -14.6484c1.46484 -5.0459 2.84863 -9.19629 4.15039 -12.4512c1.95312 -5.86133 5.77832 -16.5225 11.4746 -31.9824c5.69629 -15.4619 11.4746 -31.3311 17.334 -47.6074
c5.86035 -16.2764 11.1504 -31.4131 15.8691 -45.4102c4.72168 -14.001 7.08203 -22.627 7.08008 -25.8789c-0.000976562 -12.0469 -3.98828 -23.1152 -11.9629 -33.2031c-7.97559 -10.0947 -16.7646 -19.4531 -26.3672 -28.0762
c-9.60254 -8.63086 -18.4736 -16.7686 -26.6113 -24.4141c-8.1377 -7.65137 -12.207 -15.0576 -12.207 -22.2168c0 -6.51172 2.68555 -14.4873 8.05664 -23.9258c5.37109 -9.44141 9.68457 -16.9287 12.9395 -22.4609c27.3438 -47.2002 58.0244 -87.6465 92.041 -121.338
s75.1143 -64.209 123.291 -91.5527c5.85938 -3.25586 13.2646 -7.73242 22.2168 -13.4277c8.95215 -5.69727 17.1709 -8.5459 24.6582 -8.54492c7.4873 0 16.0322 5.20898 25.6348 15.625c9.60254 10.417 19.3682 21.8916 29.2969 34.4238s20.0195 24.0068 30.2734 34.4238
s19.7754 15.625 28.5645 15.625c3.25488 0 11.6377 -3.66211 25.1465 -10.9863s28.0762 -15.4619 43.7012 -24.4141s30.7617 -17.9854 45.4102 -27.0996s24.5771 -14.9736 29.7852 -17.5781c5.20801 -3.25488 12.6953 -7.40527 22.4609 -12.4512
s16.2764 -10.8232 19.5312 -17.334c0.674805 -1.95312 1 -5.69629 0.976562 -11.2305c0 -5.20898 -0.488281 -11.1494 -1.46484 -17.8223s-2.27832 -13.6719 -3.90625 -20.9961s-3.58105 -14.3232 -5.85938 -20.9961c-2.26953 -6.67383 -4.38574 -12.4512 -6.34766 -17.334
c-5.86328 -12.6953 -15.5469 -24.333 -29.0527 -34.9121c-13.5088 -10.5791 -28.5645 -19.5312 -45.166 -26.8555s-33.6104 -13.1836 -51.0254 -17.5781c-17.417 -4.39453 -32.4727 -6.5918 -45.166 -6.5918c-26.042 0 -51.0254 4.15039 -74.9512 12.4512
s-47.6074 17.1709 -71.0449 26.6113c-40.0391 14.6484 -77.8809 33.8545 -113.525 57.6172s-68.7666 50.4561 -99.3652 80.0781s-59.082 61.6045 -85.4492 95.9473s-49.8047 69.417 -70.3125 105.225c-8.1377 13.3467 -16.6826 28.8896 -25.6348 46.6309
s-17.2529 35.9697 -24.9023 54.6875c-7.64941 18.7188 -13.9971 37.1924 -19.043 55.4199c-5.0459 18.2295 -7.56836 35.3193 -7.56836 51.2695z" />
    <glyph glyph-name="uniF02E" unicode="&#xf02e;" horiz-adv-x="632" 
d="M10 56.1523v652.832c0 15.2998 5.53418 28.4834 16.6016 39.5508s24.251 16.6016 39.5508 16.6016h500c15.3008 -0.00292969 28.4023 -5.53711 39.3066 -16.6016c10.9121 -11.0674 16.3643 -24.251 16.3574 -39.5508v-652.832
c0 -15.2998 -5.45215 -28.4834 -16.3574 -39.5508s-24.0068 -16.6016 -39.3066 -16.6016s-28.3203 5.37109 -39.0625 16.1133l-210.938 210.938l-210.938 -210.938c-10.7422 -10.7422 -23.7627 -16.1133 -39.0625 -16.1133s-28.4834 5.53418 -39.5508 16.6016
s-16.6016 24.251 -16.6016 39.5508z" />
    <glyph glyph-name="uniF04E" unicode="&#xf04e;" horiz-adv-x="770" 
d="M10 29.7852v690.43c0 12.6953 5.69629 21.9727 17.0898 27.832c12.6953 4.53906 22.9492 2.26074 30.7617 -6.83594l319.336 -344.238c5.20898 -5.85938 7.81348 -13.1836 7.8125 -21.9727c0 -8.78906 -2.60449 -16.1133 -7.8125 -21.9727l-319.336 -344.238
c-5.20801 -5.85938 -11.8818 -8.78906 -20.0195 -8.78906c-1.95312 0 -5.53418 0.651367 -10.7422 1.95312c-11.3936 5.20801 -17.0898 14.4854 -17.0898 27.832zM385 29.7852v690.43c0 12.6953 5.69629 21.9727 17.0898 27.832
c12.6953 4.53906 22.9492 2.26074 30.7617 -6.83594l319.336 -344.238c5.20801 -5.85938 7.8125 -13.1836 7.8125 -21.9727c-0.00488281 -8.78906 -2.60938 -16.1133 -7.8125 -21.9727l-319.336 -344.238c-5.20801 -5.85938 -11.8818 -8.78906 -20.0195 -8.78906
c-1.95312 0 -5.53418 0.651367 -10.7422 1.95312c-11.3936 5.20801 -17.0908 14.4854 -17.0898 27.832z" />
    <glyph glyph-name="uniF002" unicode="&#xf002;" horiz-adv-x="800" 
d="M10 455.078c0 44.5967 8.46387 86.5889 25.3906 125.977s40.2832 73.8936 70.0684 103.516s64.29 52.9785 103.516 70.0684s81.2988 25.6348 126.221 25.6348c44.5967 0 86.5068 -8.54492 125.732 -25.6348c39.2256 -17.0908 73.7305 -40.4473 103.516 -70.0684
c29.7852 -29.623 53.1416 -64.1279 70.0684 -103.516s25.3906 -81.3799 25.3906 -125.977c0 -31.9014 -4.63867 -63.0703 -13.916 -93.5059c-9.27734 -30.4365 -22.542 -58.8379 -39.7949 -85.2051l174.805 -175.293c5.85938 -5.85938 8.78906 -13.5088 8.78906 -22.9492
c0 -5.20801 -2.92969 -12.207 -8.78906 -20.9961s-13.1836 -17.4971 -21.9727 -26.123c-8.79199 -8.62598 -17.5 -15.9502 -26.123 -21.9727c-8.63086 -6.02246 -15.5479 -9.0332 -20.752 -9.0332c-9.44043 0 -17.0898 3.09277 -22.9492 9.27734l-175.293 174.805
c-26.6924 -17.2529 -55.1758 -30.5176 -85.4492 -39.7949s-61.3613 -13.916 -93.2617 -13.916c-44.5967 0 -86.5889 8.46387 -125.977 25.3906s-73.9746 40.2021 -103.76 69.8242c-29.7852 29.623 -53.1416 64.1279 -70.0684 103.516s-25.3906 81.3799 -25.3906 125.977z
M139.883 455.078c0 -27.3438 5.20801 -52.8164 15.625 -76.416c10.417 -23.6006 24.4141 -44.1084 41.9922 -61.5234s38.249 -31.25 62.0117 -41.5039c23.7637 -10.2539 48.9912 -15.3809 75.6836 -15.3809s51.8389 5.12695 75.4395 15.3809
s44.1895 24.0889 61.7676 41.5039s31.5752 37.9229 41.9922 61.5234c10.4189 23.6006 15.627 49.0723 15.625 76.416c0 26.6924 -5.20801 51.8389 -15.625 75.4395s-24.415 44.2715 -41.9922 62.0117c-17.5781 17.7402 -38.168 31.7383 -61.7676 41.9922
c-23.6006 10.2539 -48.7471 15.3809 -75.4395 15.3809s-51.9209 -5.12695 -75.6836 -15.3809s-44.4336 -24.251 -62.0117 -41.9922s-31.5752 -38.4111 -41.9922 -62.0117s-15.625 -48.7471 -15.625 -75.4395zM212.148 455.078c0 16.6016 3.17383 32.3896 9.52148 47.3633
s15.1367 28.1572 26.3672 39.5508c11.2305 11.3945 24.251 20.2646 39.0625 26.6113c14.8115 6.34766 30.8428 9.52148 48.0957 9.52148c6.51074 -0.00976562 12.126 -2.36914 16.8457 -7.08008c4.72266 -4.72559 7.08301 -10.667 7.08008 -17.8223
c0 -6.51074 -2.36035 -12.126 -7.08008 -16.8457c-4.71973 -4.72559 -10.335 -7.08594 -16.8457 -7.08008c-20.5078 0 -38.0049 -7.16113 -52.4902 -21.4844s-21.7285 -31.9014 -21.7285 -52.7344c0 -6.51074 -2.35938 -12.126 -7.08008 -16.8457
c-4.71973 -4.71973 -10.335 -7.08008 -16.8457 -7.08008c-7.4873 0.000976562 -13.5088 2.36133 -18.0664 7.08008c-4.55762 4.71973 -6.83594 10.335 -6.83594 16.8457z" />
    <glyph glyph-name="uni00A0" unicode="&#xa0;" horiz-adv-x="10" 
 />
    <glyph glyph-name="uni2006" unicode="&#x2006;" horiz-adv-x="10" 
 />
    <glyph glyph-name="uniF013" unicode="&#xf013;" horiz-adv-x="798" 
d="M10 333.984v115.234c0 3.90625 4.96387 7.40527 14.8926 10.498s21.0771 5.61523 33.4473 7.56836s24.4141 3.41797 36.1328 4.39453s19.5312 1.79004 23.4375 2.44141c5.85938 19.8564 13.835 38.8994 23.9258 57.1289
c-17.9033 26.6924 -37.4346 52.2461 -58.5938 76.6602l-3.41797 7.32422c0 2.6084 4.55762 8.875 13.6719 18.7988c9.11426 9.92969 19.2871 20.5908 30.5176 31.9824c11.2305 11.3945 22.0537 21.5674 32.4707 30.5176c10.417 8.95996 16.9277 13.4365 19.5312 13.4277
c0.651367 0 4.96484 -3.01074 12.9395 -9.0332c7.97559 -6.02246 16.8457 -12.6953 26.6113 -20.0195c9.76562 -7.33008 18.9619 -14.3281 27.5879 -20.9961c8.62598 -6.67969 13.916 -10.668 15.8691 -11.9629c9.44043 5.20801 18.9619 9.52148 28.5645 12.9395
c9.60352 3.41797 19.4502 6.75488 29.541 10.0098c0 3.90625 0.488281 11.8818 1.46484 23.9258s2.44141 24.251 4.39453 36.6211s4.47559 23.6006 7.56836 33.6914s6.5918 15.1367 10.498 15.1367h115.723c4.55762 0 7.64941 -2.44141 9.27734 -7.32422
c3.90625 -15.9521 6.67285 -32.7168 8.30078 -50.293c1.62793 -17.5801 3.90625 -34.832 6.83594 -51.7578c10.0908 -2.60449 19.7754 -5.69629 29.0527 -9.27734s18.4736 -8.1377 27.5879 -13.6719c2.6084 1.95312 8.14258 6.2666 16.6016 12.9395
c8.46387 6.67285 17.4971 13.6719 27.0996 20.9961s18.2295 13.835 25.8789 19.5312s12.4512 8.54492 14.4043 8.54492s7.97559 -4.47559 18.0664 -13.4277s20.6709 -19.124 31.7383 -30.5176s21.0771 -22.0537 30.0293 -31.9824
c8.95703 -9.92871 13.4326 -16.1943 13.4277 -18.7988c-0.0107422 -1.30176 -2.85938 -5.94043 -8.54492 -13.916c-5.69629 -7.97559 -12.0439 -16.6826 -19.043 -26.123s-13.835 -18.4736 -20.5078 -27.0996c-6.67969 -8.62988 -10.667 -13.9189 -11.9629 -15.8691
c10.7422 -17.9033 19.043 -37.9229 24.9023 -60.0586c15.9502 -3.25488 32.7959 -5.37109 50.5371 -6.34766c17.7441 -0.978516 34.2637 -4.23438 49.5605 -9.76562c5.20801 -1.30176 7.8125 -4.23145 7.8125 -8.78906v-115.234
c-0.00585938 -3.90723 -4.80762 -7.40723 -14.4043 -10.498c-9.60547 -3.09473 -20.7539 -5.61816 -33.4473 -7.56836c-12.6953 -1.95312 -25.0645 -3.41797 -37.1094 -4.39453c-12.0439 -0.987305 -20.0186 -1.80078 -23.9258 -2.44141
c-4.55762 -18.5547 -12.207 -37.5977 -22.9492 -57.1289c17.9033 -26.6924 37.5977 -52.2461 59.082 -76.6602l2.92969 -7.32422c0 -2.60449 -4.47559 -8.87012 -13.4277 -18.7988s-19.124 -20.5889 -30.5176 -31.9824s-22.2168 -21.5654 -32.4707 -30.5176
s-16.8457 -13.4277 -19.7754 -13.4277c-0.651367 0 -4.96387 3.01074 -12.9395 9.0332s-16.7646 12.6953 -26.3672 20.0195c-9.60742 7.32422 -18.7217 14.3232 -27.3438 20.9961c-8.63086 6.67285 -14.084 10.6611 -16.3574 11.9629
c-9.44043 -5.20898 -18.9619 -9.68457 -28.5645 -13.4277s-19.2871 -6.91699 -29.0527 -9.52148c-0.663086 -3.90625 -1.55762 -11.9629 -2.68555 -24.1699c-1.14258 -12.207 -2.68945 -24.5771 -4.63867 -37.1094c-1.95801 -12.5322 -4.2373 -23.8447 -6.83594 -33.9355
c-2.60449 -10.0908 -6.02246 -15.1367 -10.2539 -15.1367h-115.723c-4.56055 0 -7.65332 2.7666 -9.27734 8.30078c-4.56055 15.9502 -7.65332 32.7148 -9.27734 50.293c-1.63379 17.5781 -3.42383 34.3428 -5.37109 50.293
c-19.8564 5.85938 -38.8994 13.9971 -57.1289 24.4141c-13.3467 -10.0918 -26.5303 -19.9385 -39.5508 -29.541c-13.0215 -9.60254 -25.8789 -19.7754 -38.5742 -30.5176l-5.85938 -1.95312c-1.95312 0 -7.97559 4.47559 -18.0664 13.4277s-20.5889 19.124 -31.4941 30.5176
s-20.833 22.0547 -29.7852 31.9824c-8.95215 9.92871 -13.4277 16.1953 -13.4277 18.7988c0 0.651367 2.60449 4.96484 7.8125 12.9395c5.20801 7.97559 11.3115 16.6836 18.3105 26.123c6.99902 9.44043 13.835 18.4736 20.5078 27.0996
c6.67383 8.62598 10.9863 14.2412 12.9395 16.8457c-10.7422 17.9033 -19.043 37.9229 -24.9023 60.0586c-16.6016 3.25684 -33.6104 5.37305 -51.0254 6.34766c-17.415 0.976562 -33.7725 4.23145 -49.0723 9.76562c-5.20801 1.30176 -7.8125 4.23145 -7.8125 8.78906z
M281.973 391.113c0 -15.9502 3.01074 -31.0869 9.0332 -45.4102c6.02246 -14.3223 14.3232 -26.8555 24.9023 -37.5977c10.5801 -10.7422 23.1123 -19.2871 37.5977 -25.6348c14.4863 -6.34766 29.7041 -9.52148 45.6543 -9.52148s31.0869 3.17383 45.4102 9.52148
s26.6113 14.8926 36.8652 25.6348s18.5547 23.2744 24.9023 37.5977s9.52148 29.46 9.52148 45.4102c0 15.9521 -3.17383 30.9258 -9.52148 44.9219c-6.34766 13.9971 -14.6484 26.3672 -24.9023 37.1094c-10.2539 10.7461 -22.542 19.1279 -36.8652 25.1465
c-14.3232 6.02637 -29.46 9.03711 -45.4102 9.0332c-15.9502 0 -31.1689 -3.01074 -45.6543 -9.0332s-27.0186 -14.4043 -37.5977 -25.1465s-18.8799 -23.1123 -24.9023 -37.1094c-6.02344 -13.9971 -9.03418 -28.9717 -9.0332 -44.9219z" />
    <glyph glyph-name="uniF037" unicode="&#xf037;" 
d="M10 38.0859v56.1523c0 10.0908 3.66211 18.7178 10.9863 25.8789s16.3574 10.7422 27.0996 10.7422h824.707c10.0908 0 18.7988 -3.66211 26.123 -10.9863s10.9863 -15.8691 10.9863 -25.6348v-56.1523c0 -10.7422 -3.66211 -19.7754 -10.9863 -27.0996
c-7.32812 -7.32422 -16.0361 -10.9863 -26.123 -10.9863h-824.707c-10.7422 0 -19.7754 3.66211 -27.0996 10.9863s-10.9863 16.3574 -10.9863 27.0996zM48.0859 450.195v55.6641c0 10.7422 3.49902 19.7754 10.498 27.0996s15.8691 10.9863 26.6113 10.9863h750
c10.7422 0 19.6943 -3.66211 26.8555 -10.9863s10.7422 -16.3574 10.7422 -27.0996v-55.6641c0 -10.7422 -3.66211 -19.6123 -10.9863 -26.6113c-7.32422 -7.00098 -16.1943 -10.5 -26.6113 -10.498h-750c-10.7422 0 -19.6123 3.49902 -26.6113 10.498
s-10.498 15.8691 -10.498 26.6113zM159.902 244.141v55.6641c0 10.7422 3.66211 19.7754 10.9863 27.0996s16.3574 10.9863 27.0996 10.9863h524.902c10.0908 0 18.7988 -3.66211 26.123 -10.9863s10.9863 -16.3574 10.9863 -27.0996v-55.6641
c0 -10.7422 -3.66211 -19.7754 -10.9863 -27.0996c-7.32715 -7.32422 -16.0352 -10.9863 -26.123 -10.9863h-524.902c-10.7422 0 -19.7754 3.66211 -27.0996 10.9863s-10.9863 16.3574 -10.9863 27.0996zM197.988 655.762v57.1289c0 10.0908 3.5 18.7988 10.498 26.123
c6.99902 7.32422 15.8691 10.9863 26.6113 10.9863h449.707c10.7422 0 19.7754 -3.66211 27.0996 -10.9863s10.9863 -16.0322 10.9863 -26.123v-57.1289c0 -10.0957 -3.66211 -18.7217 -10.9863 -25.8789c-7.32422 -7.16602 -16.3574 -10.7471 -27.0996 -10.7422h-449.707
c-10.7422 0 -19.6123 3.66211 -26.6113 10.9863s-10.498 15.8691 -10.498 25.6348z" />
    <glyph glyph-name="uniF03E" unicode="&#xf03e;" 
d="M10 56.1523v637.695c0 15.2998 5.53418 28.4834 16.6016 39.5508s24.251 16.6016 39.5508 16.6016h788.086c15.3018 -0.00292969 28.4033 -5.53711 39.3066 -16.6016c10.917 -11.0674 16.3691 -24.251 16.3574 -39.5508v-637.695
c0 -15.2998 -5.45215 -28.4834 -16.3574 -39.5508s-24.0068 -16.6016 -39.3066 -16.6016h-788.086c-15.2998 0 -28.4834 5.53418 -39.5508 16.6016s-16.6016 24.251 -16.6016 39.5508zM85.1953 75.1953h750v599.609h-750v-599.609zM159.902 149.902v51.2695l135.254 175.781
l91.7969 -76.1719l172.852 262.207l200.195 -207.031v-206.055h-600.098zM159.902 523.926c0 21.4844 7.32422 39.5508 21.9727 54.1992s32.7148 21.9727 54.1992 21.9727c20.5078 0 38.0859 -7.32422 52.7344 -21.9727s21.9727 -32.7148 21.9727 -54.1992
c0 -20.5078 -7.32422 -38.0859 -21.9727 -52.7344s-32.2266 -21.9727 -52.7344 -21.9727c-21.4844 0 -39.5508 7.32422 -54.1992 21.9727s-21.9727 32.2266 -21.9727 52.7344z" />
    <glyph glyph-name="uniF047" unicode="&#xf047;" horiz-adv-x="800" 
d="M10 390.137c0 8.1377 2.92969 15.1367 8.78906 20.9961l125 125c8.78906 8.78906 16.1943 11.9629 22.2168 9.52148s9.0332 -10.0098 9.0332 -22.7051v-83.0078h175.781v175.293h-83.9844c-12.0439 0.00488281 -19.3682 3.01562 -21.9727 9.0332
c-2.60449 6.02637 0.488281 13.2695 9.27734 21.7285l125 125c5.86035 5.85938 12.8584 8.95215 20.9961 9.27734c8.13867 -0.00976562 15.1367 -3.10254 20.9961 -9.27734l125 -125c8.78906 -8.78906 11.9629 -16.1133 9.52148 -21.9727
s-10.0098 -8.78906 -22.7051 -8.78906h-83.9844v-175.293h176.27v83.0078c0 12.6953 2.92969 20.2637 8.78906 22.7051s13.1836 -0.732422 21.9727 -9.52148l125 -125c5.85938 -5.85938 8.78906 -12.8584 8.78906 -20.9961s-2.92969 -15.1367 -8.78906 -20.9961l-125 -125
c-8.78906 -8.78906 -16.1133 -11.9629 -21.9727 -9.52148s-8.78906 10.0098 -8.78906 22.7051v85.9375h-176.27v-178.223h83.9844c12.6973 0 20.3467 -3.01074 22.9492 -9.0332c2.5957 -6.02246 -0.65918 -13.2646 -9.76562 -21.7285l-125 -125
c-5.85938 -5.85938 -12.8584 -8.95215 -20.9961 -9.27734c-8.1377 0 -15.1367 3.09277 -20.9961 9.27734l-125 125c-8.78906 8.78906 -12.0439 16.1133 -9.76562 21.9727s9.76562 8.78906 22.4609 8.78906h83.9844v178.223h-175.781v-85.9375
c0 -12.6953 -3.01074 -20.2637 -9.0332 -22.7051s-13.4277 0.732422 -22.2168 9.52148l-125 125c-5.85938 5.86035 -8.78906 12.8584 -8.78906 20.9961z" />
    <glyph glyph-name="trademark" unicode="&#x2122;" horiz-adv-x="10" 
 />
    <glyph glyph-name="uniF063" unicode="&#xf063;" horiz-adv-x="771" 
d="M10 375c0 12.6953 4.71973 23.7627 14.1602 33.2031l48.8281 48.8281c9.44043 9.44238 20.5078 14.1621 33.2031 14.1602c12.6953 0 23.6006 -4.71973 32.7148 -14.1602l165.039 -165.039v412.109c0 12.6982 4.47559 23.5215 13.4277 32.4707
c8.95215 8.95508 19.7754 13.4307 32.4707 13.4277h70.3125c13.3467 0 24.333 -4.47559 32.959 -13.4277c8.62695 -8.95215 12.9404 -19.7754 12.9395 -32.4707v-412.109l166.016 165.039c9.44238 9.44238 20.2656 14.1621 32.4707 14.1602
c12.21 0 23.0332 -4.71973 32.4707 -14.1602l49.8047 -48.8281c9.44336 -9.44043 14.1631 -20.5078 14.1602 -33.2031c0 -12.6953 -4.71973 -23.7637 -14.1602 -33.2031l-328.613 -327.637c-9.44043 -9.44043 -20.5078 -14.1602 -33.2031 -14.1602
s-23.7637 4.71973 -33.2031 14.1602l-327.637 327.637c-9.44043 9.44043 -14.1602 20.5078 -14.1602 33.2031z" />
    <glyph glyph-name="uniF091" unicode="&#xf091;" horiz-adv-x="845" 
d="M10 508.789v91.3086c0 10.7432 3.66211 19.6143 10.9863 26.6113c7.32422 7.00488 16.3574 10.5039 27.0996 10.498h157.715c-0.651367 3.90625 -0.976562 7.97559 -0.976562 12.207v11.7188v1.95312c0 17.2549 0.732422 31.5781 2.19727 42.9688
c1.46582 11.3955 3.98828 20.2666 7.56836 26.6113c3.58105 6.35352 8.70801 10.8301 15.3809 13.4277c6.67285 2.62891 15.7061 3.93164 27.0996 3.90625h331.055c10.7432 0 19.6133 -1.30176 26.6113 -3.90625c7.00195 -2.60449 12.292 -7.08008 15.8691 -13.4277
c3.58105 -6.34766 6.02246 -15.2178 7.32422 -26.6113s1.95312 -25.7158 1.95312 -42.9688v-12.4512l-0.976562 -13.4277h158.203c10.7422 0 19.7754 -3.49902 27.0996 -10.498s10.9863 -15.8691 10.9863 -26.6113v-91.3086c0 -20.5078 -7.40527 -41.748 -22.2168 -63.7207
s-34.668 -42.8057 -59.5703 -62.5s-54.1992 -37.0283 -87.8906 -52.002s-69.9053 -25.5537 -108.643 -31.7383c-16.6016 -3.25488 -31.4131 -10.0098 -44.4336 -20.2637s-19.5312 -21.7285 -19.5312 -34.4238c0.00195312 -11.3936 2.85059 -19.7754 8.54492 -25.1465
c5.69629 -5.37109 12.0439 -10.417 19.043 -15.1367c7 -4.71973 13.5098 -9.84668 19.5312 -15.3809c6.02246 -5.53418 9.68457 -13.9971 10.9863 -25.3906c1.30176 -7.4873 0.976562 -15.1367 -0.976562 -22.9492c-1.30078 -4.55762 2.52441 -8.38184 11.4746 -11.4746
c8.95215 -3.09277 19.9385 -6.10352 32.959 -9.0332s26.3672 -6.5918 40.0391 -10.9863s24.0889 -10.0098 31.25 -16.8457c3.90625 -3.25586 7.08008 -9.68457 9.52148 -19.2871c2.44629 -9.60254 3.99219 -20.1006 4.63867 -31.4941
c0.651367 -10.7422 -0.325195 -20.2637 -2.92969 -28.5645s-7.32422 -12.4512 -14.1602 -12.4512h-480.957c-6.51074 0 -11.1494 4.15039 -13.916 12.4512c-2.76953 8.30078 -3.82715 17.8223 -3.17383 28.5645c0.652344 11.3936 2.19824 21.8916 4.63867 31.4941
c2.44141 9.60254 5.61523 16.0322 9.52148 19.2871c7.4873 6.51074 17.9043 12.0449 31.25 16.6016c13.3467 4.55762 26.4492 8.30176 39.3066 11.2305c12.8584 2.92969 24.0068 5.85938 33.4473 8.78906s13.5088 6.83594 12.207 11.7188
c-1.30176 4.55762 -1.95312 8.70801 -1.95312 12.4512v10.498c0.651367 11.3936 4.15039 19.8574 10.498 25.3906c6.34766 5.53418 13.1836 10.6611 20.5078 15.3809s13.7529 9.76562 19.2871 15.1367s8.30078 13.7529 8.30078 25.1465
c-0.000976562 12.6953 -6.42969 24.1699 -19.2871 34.4238c-12.8584 10.2549 -28.0762 17.0088 -45.6543 20.2637c-38.0859 6.51074 -73.8936 17.334 -107.422 32.4707c-33.5283 15.1377 -62.8252 32.3896 -87.8906 51.7578s-44.9219 40.0391 -59.5703 62.0117
s-21.9727 43.2129 -21.9727 63.7207zM85.1953 508.789c0 -6.51074 3.8252 -15.2998 11.4746 -26.3672c7.64941 -11.0684 18.6357 -22.543 32.959 -34.4238c14.3232 -11.8828 31.6572 -23.5195 52.002 -34.9121c20.3447 -11.3936 43.2129 -21.1592 68.6035 -29.2969
c-8.1377 26.042 -15.3809 54.6064 -21.7285 85.6934s-11.7998 61.9307 -16.3574 92.5293h-126.953v-53.2227zM594.961 383.789c25.3906 8.1377 48.2588 17.9033 68.6035 29.2969s37.6787 23.0303 52.002 34.9121s25.3096 23.3564 32.959 34.4238
s11.4746 19.8564 11.4746 26.3672v53.2227h-127.93c-3.90625 -30.5996 -9.0332 -61.4434 -15.3809 -92.5293c-6.34668 -31.0869 -13.5898 -59.6514 -21.7285 -85.6934z" />
    <glyph glyph-name="registered" unicode="&#xae;" horiz-adv-x="10" 
 />
    <glyph glyph-name="uniF0A3" unicode="&#xf0a3;" horiz-adv-x="800" 
d="M10 294.922c0 10.7422 3.74316 19.8564 11.2305 27.3438l69.8242 67.8711l-69.8242 67.8711c-7.4873 7.4873 -11.2305 16.6016 -11.2305 27.3438c0 8.1377 2.68555 15.4619 8.05664 21.9727c5.37109 6.51562 11.9629 10.7471 19.7754 12.6953l95.2148 23.9258
c-1.95312 5.85938 -4.47656 13.6719 -7.56836 23.4375c-3.09277 9.76562 -6.10352 19.6943 -9.0332 29.7852s-5.53418 19.7754 -7.8125 29.0527s-3.41797 16.8457 -3.41797 22.7051c0 10.0908 3.49902 18.6357 10.498 25.6348
c6.99902 7.00488 15.3809 10.5039 25.1465 10.498c5.85938 -0.0205078 13.5098 -1.16016 22.9492 -3.41797c9.44043 -2.27832 19.2061 -4.96387 29.2969 -8.05664s19.9385 -6.10352 29.541 -9.0332s17.334 -5.37109 23.1934 -7.32422l23.9258 94.7266
c1.95312 8.1377 6.34766 14.8926 13.1836 20.2637s14.1602 8.05664 21.9727 8.05664c11.3936 0 20.0195 -3.74316 25.8789 -11.2305l69.3359 -69.8242l67.8711 69.8242c7.4873 7.49414 16.1133 11.2373 25.8789 11.2305c8.78906 0 16.5205 -2.52246 23.1934 -7.56836
s10.9863 -11.9629 12.9395 -20.752l23.9258 -94.7266c5.85938 1.95312 13.6719 4.39453 23.4375 7.32422c9.76562 2.94043 19.6123 5.95117 29.541 9.0332c9.93164 3.09277 19.6152 5.77832 29.0527 8.05664c9.44434 2.27832 17.0947 3.41797 22.9492 3.41797
c9.44141 0 17.8242 -3.49902 25.1465 -10.498c7.32422 -6.99902 10.9863 -15.5439 10.9863 -25.6348c-0.015625 -5.85938 -1.15527 -13.4277 -3.41797 -22.7051c-2.27832 -9.27734 -4.96387 -18.9619 -8.05664 -29.0527
c-3.09277 -10.0938 -6.10352 -19.9404 -9.0332 -29.541c-2.92969 -9.60645 -5.37109 -17.501 -7.32422 -23.6816l94.7266 -23.9258c8.1377 -1.95703 14.8115 -6.26953 20.0195 -12.9395c5.20801 -6.67188 7.8125 -13.915 7.8125 -21.7285
c0.00292969 -10.7422 -3.57812 -19.8574 -10.7422 -27.3438l-70.8008 -67.8711l70.8008 -67.8711c7.49316 -7.4873 11.0732 -16.6016 10.7422 -27.3438c0.00292969 -8.1377 -2.60156 -15.4619 -7.8125 -21.9727c-5.21387 -6.51074 -11.8877 -10.7432 -20.0195 -12.6953
l-94.7266 -23.9258c1.95312 -5.85938 4.39453 -13.6719 7.32422 -23.4375c2.93457 -9.76562 5.94531 -19.6943 9.0332 -29.7852c3.09277 -10.0908 5.77832 -19.7754 8.05664 -29.0527s3.41797 -16.8457 3.41797 -22.7051c0 -9.44043 -3.49902 -17.8223 -10.498 -25.1465
s-15.5439 -10.9863 -25.6348 -10.9863c-5.85938 0 -13.5088 1.13965 -22.9492 3.41797s-19.124 4.96387 -29.0527 8.05664s-19.6943 6.10352 -29.2969 9.0332c-9.60547 2.92969 -17.5 5.37109 -23.6816 7.32422l-23.9258 -94.7266
c-1.95312 -8.1377 -6.2666 -14.8926 -12.9395 -20.2637s-14.0791 -8.05664 -22.2168 -8.05664c-10.7422 0 -19.6943 3.74316 -26.8555 11.2305l-67.8711 69.8242l-69.3359 -69.8242c-5.85938 -7.4873 -14.4863 -11.2305 -25.8789 -11.2305
c-8.1377 0 -15.4619 2.68555 -21.9727 8.05664s-10.9053 12.126 -13.1836 20.2637l-23.9258 94.7266c-5.85938 -1.95312 -13.5908 -4.39453 -23.1934 -7.32422c-9.60352 -2.92969 -19.4502 -5.94043 -29.541 -9.0332s-19.7754 -5.77832 -29.0527 -8.05664
s-17.0088 -3.41699 -23.1934 -3.41797c-10.0908 0 -18.5547 3.66211 -25.3906 10.9863s-10.2539 15.7061 -10.2539 25.1465c0 5.85938 1.13965 13.4277 3.41797 22.7051s4.88281 18.9619 7.8125 29.0527s5.94043 19.9385 9.0332 29.541
c3.09277 9.60352 5.61523 17.4971 7.56836 23.6816l-95.2148 23.9258c-8.1377 1.95312 -14.8115 6.2666 -20.0195 12.9395c-5.20801 6.67383 -7.8125 13.917 -7.8125 21.7285z" />
    <glyph glyph-name="uniF015" unicode="&#xf015;" horiz-adv-x="938" 
d="M10.1631 395.264c0.651367 5.0459 2.92969 9.3584 6.83594 12.9395l423.34 346.68c8.78906 6.51074 18.3916 9.92871 28.8086 10.2539c10.7422 0 20.3447 -3.41797 28.8086 -10.2539l117.188 -95.7031v49.8047c0 5.20801 1.87207 9.68457 5.61523 13.4277
s8.21973 5.61523 13.4277 5.61523h108.887c5.20801 0.00292969 9.52148 -1.86816 12.9395 -5.61523c3.41797 -3.74414 5.12695 -8.21973 5.12695 -13.4277v-169.922l160.156 -130.859c3.91113 -3.25488 6.19043 -7.40527 6.83594 -12.4512
c0.604492 -5.0459 -0.697266 -9.68457 -3.90625 -13.916l-21.9727 -25.8789c-3.26562 -4.56055 -7.98535 -6.83887 -14.1602 -6.83594h-31.7383c-5.21484 0 -9.2832 1.30176 -12.207 3.90625l-362.793 296.875c-8.1377 6.51074 -16.2764 6.51074 -24.4141 0
l-362.793 -296.875c-2.60449 -2.61035 -6.67285 -3.91211 -12.207 -3.90625h-31.7383c-5.85938 0 -10.5791 2.27832 -14.1602 6.83594l-21.9727 25.8789c-3.25488 3.90625 -4.55762 8.38184 -3.90625 13.4277zM140.046 37.1094v303.711l329.102 270.02l329.102 -270.02
v-303.711c0 -10.7422 -3.49902 -19.6123 -10.498 -26.6113s-15.8691 -10.498 -26.6113 -10.498h-206.055v243.164h-171.875v-243.164h-206.055c-10.7422 0 -19.6123 3.49902 -26.6113 10.498s-10.498 15.8691 -10.498 26.6113z" />
    <glyph glyph-name="uniF043" unicode="&#xf043;" horiz-adv-x="572" 
d="M10 276.367c0 27.9951 3.8252 54.2803 11.4746 78.8574s18.4736 47.6074 32.4707 69.0918c6.51074 10.7422 17.8223 26.9365 33.9355 48.584s33.6914 46.7939 52.7344 75.4395s37.5166 60.1396 55.4199 94.4824s32.5518 69.7432 43.9453 106.201
c3.25488 11.3984 9.27734 19.7803 18.0664 25.1465c8.78906 5.38379 18.0664 7.41797 27.832 6.10352c10.0918 1.30176 19.4502 -0.732422 28.0762 -6.10352c8.62695 -5.37109 14.5684 -13.7529 17.8223 -25.1465c10.7422 -36.7842 25.3096 -72.2656 43.7012 -106.445
c18.3926 -34.1807 37.1094 -65.5928 56.1523 -94.2383c19.0439 -28.6455 36.54 -53.792 52.4902 -75.4395s27.1807 -37.8428 33.6914 -48.584c13.9971 -21.4844 24.8213 -44.5156 32.4707 -69.0918c7.64941 -24.5771 11.4746 -50.8633 11.4746 -78.8574
c0 -38.0859 -7.16113 -73.9746 -21.4844 -107.666s-33.9355 -63.0693 -58.8379 -88.1348s-54.1992 -44.7588 -87.8906 -59.082s-69.5801 -21.4844 -107.666 -21.4844s-73.8936 7.16113 -107.422 21.4844s-62.8252 34.0166 -87.8906 59.082s-44.7588 54.4434 -59.082 88.1348
s-21.4844 69.5801 -21.4844 107.666zM131.094 215.332c0 -19.2061 6.67285 -35.5635 20.0195 -49.0723c13.3467 -13.5098 29.6221 -20.2637 48.8281 -20.2637s35.4814 6.67383 48.8281 20.0195c13.3467 13.3467 20.0195 29.7852 20.0195 49.3164
c-0.000976562 13.9971 -3.58203 26.2041 -10.7422 36.6211c-1.95312 2.60449 -4.96387 6.5918 -9.0332 11.9629s-8.38184 11.7188 -12.9395 19.043s-9.19629 15.2178 -13.916 23.6816s-8.38184 17.2529 -10.9863 26.3672
c-1.30273 6.51074 -5.04688 9.27734 -11.2305 8.30078c-5.85938 1.29883 -9.76562 -1.46777 -11.7188 -8.30078c-2.60449 -9.44043 -6.10352 -18.3115 -10.498 -26.6113c-4.39453 -8.30078 -8.95215 -16.1133 -13.6719 -23.4375s-9.11426 -13.5908 -13.1836 -18.7988
s-7.08008 -9.27734 -9.0332 -12.207c-7.4873 -10.7422 -11.0684 -22.9492 -10.7422 -36.6211z" />
    <glyph glyph-name="AE" unicode="&#xc6;" horiz-adv-x="10" 
 />
    <glyph glyph-name="acute" unicode="&#xb4;" horiz-adv-x="10" 
 />
    <glyph glyph-name="uniF0A2" unicode="&#xf0a2;" horiz-adv-x="879" 
d="M10 169.922c33.8545 25.3906 61.8486 53.4668 83.9844 84.2285s39.876 63.4766 53.2227 98.1445s23.1123 71.126 29.2969 109.375c6.18457 38.25 10.7422 77.3936 13.6719 117.432c1.95312 27.3438 11.0684 53.2227 27.3438 77.6367
c16.2764 24.415 36.7842 45.7363 61.5234 63.9648c24.7402 18.2305 51.2695 32.7168 79.5898 43.457c28.3203 10.7422 55.501 16.1133 81.543 16.1133c24.0889 0 50.6182 -5.37109 79.5898 -16.1133c28.9727 -10.7441 55.9092 -25.0664 80.8105 -42.9688
c24.9023 -17.9033 45.8984 -38.8994 62.9883 -62.9883s25.6348 -49.8047 25.6348 -77.1484c1.95508 -39.3877 6.43066 -78.3691 13.4277 -116.943c7.00195 -38.5742 17.3369 -75.5215 31.0059 -110.84c13.6719 -35.3193 31.4941 -68.5225 53.4668 -99.6094
s49.2354 -59.001 81.7871 -83.7402c-1.30371 -22.7871 -10.418 -41.4229 -27.3438 -55.9082c-16.9268 -14.4854 -36.458 -21.7285 -58.5938 -21.7285h-229.004c-5.85938 -26.6924 -19.2871 -48.7471 -40.2832 -66.1621s-45.4912 -26.123 -73.4863 -26.123
s-52.6533 8.70801 -73.9746 26.123s-35.0752 39.4697 -41.2598 66.1621h-229.004c-22.1357 0 -41.667 7.32422 -58.5938 21.9727s-26.042 33.2031 -27.3438 55.6641zM126.211 169.922h626.953c-25.3906 27.9951 -46.4678 57.8613 -63.2324 89.5996
s-30.4365 64.6162 -41.0156 98.6328c-10.583 34.0176 -18.7207 68.8477 -24.4141 104.492c-5.69629 35.6445 -9.84668 71.8584 -12.4512 108.643c-1.30762 17.9033 -7.98047 34.8311 -20.0195 50.7812c-12.0459 15.9502 -26.5312 29.9482 -43.457 41.9922
c-16.9277 12.0439 -35.0762 21.4033 -54.4434 28.0762c-19.3682 6.67285 -37.3535 10.0098 -53.9551 10.0098c-15.3008 0 -32.7969 -3.49902 -52.4902 -10.498c-19.6943 -6.99902 -38.249 -16.1943 -55.6641 -27.5879s-32.3076 -24.9023 -44.6777 -40.5273
c-12.3711 -15.625 -18.8809 -31.7383 -19.5312 -48.3398c-1.9541 -36.1328 -5.77832 -72.3467 -11.4746 -108.643s-13.9971 -71.7773 -24.9023 -106.445s-25.0654 -68.0342 -42.4805 -100.098s-38.3301 -62.0928 -62.7441 -90.0879zM358.145 117.188
c0.000976562 -22.7861 7.97656 -42.1553 23.9258 -58.1055c15.9512 -15.9502 35.3203 -23.9258 58.1055 -23.9258c5.85938 0 8.78906 3.25488 8.78906 9.76562s-2.92969 9.92871 -8.78906 10.2539c-17.2539 0 -32.0645 6.02246 -44.4336 18.0664
c-12.3711 12.0439 -18.5557 26.6924 -18.5547 43.9453c0 6.51074 -3.09277 9.7666 -9.27734 9.76562c-6.5127 0 -9.76758 -3.25488 -9.76562 -9.76562z" />
    <glyph glyph-name="uniF0AA" unicode="&#xf0aa;" horiz-adv-x="800" 
d="M10 390.137c0 54.0371 10.1729 104.736 30.5176 152.1c20.3447 47.3643 48.1768 88.7051 83.4961 124.023c35.3193 35.3193 76.6602 63.1514 124.023 83.4961s98.0635 30.5176 152.1 30.5176c54.0371 0.000976562 104.655 -10.1719 151.855 -30.5176
c47.2002 -20.3447 88.542 -48.1768 124.023 -83.4961s63.3135 -76.6602 83.4961 -124.023s30.2734 -98.0635 30.2734 -152.1s-10.0908 -104.736 -30.2734 -152.1s-48.0146 -88.7041 -83.4961 -124.023c-35.4824 -35.3193 -76.8232 -63.1514 -124.023 -83.4961
s-97.8193 -30.5176 -151.855 -30.5176s-104.736 10.1729 -152.1 30.5176s-88.7041 48.1768 -124.023 83.4961s-63.1514 76.6602 -83.4961 124.023s-30.5176 98.0635 -30.5176 152.1zM127.188 390.137c0 -9.44141 3.25488 -17.416 9.76562 -23.9258l36.1328 -36.1328
c6.51074 -6.51074 14.3232 -9.76562 23.4375 -9.76562s17.2529 3.25488 24.4141 9.76562l120.117 120.117v-298.828c0 -9.44043 3.17383 -17.4971 9.52148 -24.1699c6.34863 -6.67285 14.0801 -10.0098 23.1934 -10.0098h51.2695c9.44043 0 17.4971 3.33691 24.1699 10.0098
c6.67676 6.67285 10.0127 14.7295 10.0098 24.1699v298.828l119.629 -120.117c6.51172 -6.51074 14.4863 -9.76562 23.9258 -9.76562c9.44238 0 17.5801 3.25488 24.4141 9.76562l35.6445 36.1328c6.52246 6.51074 9.85938 14.3232 10.0098 23.4375
c0.158203 9.11621 -3.17871 17.2539 -10.0098 24.4141l-238.77 239.258c-6.51172 6.52148 -14.4863 9.77637 -23.9258 9.76562c-9.44043 0 -17.416 -3.25488 -23.9258 -9.76562l-239.258 -239.258c-6.51074 -6.51172 -9.76562 -14.4873 -9.76562 -23.9258z" />
    <glyph glyph-name="uniF030" unicode="&#xf030;" 
d="M10 56.1523v524.902c0 15.3018 5.53418 28.6475 16.6016 40.0391c11.0674 11.3955 24.251 17.0928 39.5508 17.0898h178.711l28.3203 61.0352c5.85938 13.9971 16.6016 25.96 32.2266 35.8887c15.625 9.93555 31.0869 14.8994 46.3867 14.8926h216.309
c15.3008 0 30.7627 -4.96387 46.3867 -14.8926c15.625 -9.92871 26.5303 -21.8916 32.7148 -35.8887l27.832 -61.0352h179.199c15.3018 0 28.4033 -5.69629 39.3066 -17.0898c10.917 -11.3936 16.3691 -24.7393 16.3574 -40.0391v-524.902
c0 -15.2998 -5.45215 -28.4834 -16.3574 -39.5508s-24.0068 -16.6016 -39.3066 -16.6016h-788.086c-15.2998 0 -28.4834 5.53418 -39.5508 16.6016s-16.6016 24.251 -16.6016 39.5508zM225.82 318.848c0 -32.5518 6.18555 -62.9883 18.5547 -91.3086
c12.3701 -28.3203 29.0527 -53.1416 50.0488 -74.4629s45.8984 -38.167 74.707 -50.5371s59.1631 -18.5547 91.0645 -18.5547s62.1748 6.18555 90.8203 18.5547c28.6455 12.3701 53.4668 29.2158 74.4629 50.5371c20.998 21.3213 37.6807 46.1426 50.0488 74.4629
c12.373 28.3203 18.5576 58.7568 18.5547 91.3086c0 31.9014 -6.18457 62.2559 -18.5547 91.0645s-29.0527 53.7109 -50.0488 74.707c-20.9971 20.9961 -45.8184 37.6797 -74.4629 50.0488c-28.6465 12.374 -58.9199 18.5596 -90.8203 18.5547
c-31.9014 0 -62.2559 -6.18457 -91.0645 -18.5547s-53.7109 -29.0527 -74.707 -50.0488s-37.6787 -45.8174 -50.0488 -74.4629s-18.5547 -59.082 -18.5547 -91.3086zM301.016 318.848c0 22.1357 4.15039 42.8877 12.4512 62.2559s19.6123 36.2139 33.9355 50.5371
s31.1689 25.6348 50.5371 33.9355s40.1201 12.4512 62.2559 12.4512s42.8057 -4.15039 62.0117 -12.4512c19.208 -8.30078 35.9727 -19.6133 50.293 -33.9355c14.3223 -14.3232 25.6348 -31.1689 33.9355 -50.5371s12.4512 -40.1201 12.4512 -62.2559
s-4.15039 -42.8066 -12.4512 -62.0117c-8.30078 -19.2061 -19.6123 -36.1328 -33.9355 -50.7812s-31.1689 -26.123 -50.5371 -34.4238s-39.958 -12.4512 -61.7676 -12.4512c-22.1357 0 -42.8877 4.15039 -62.2559 12.4512s-36.2139 19.7754 -50.5371 34.4238
s-25.6357 31.6572 -33.9355 51.0254c-8.30078 19.3691 -12.4512 39.958 -12.4512 61.7676z" />
    <glyph glyph-name="uniF02C" unicode="&#xf02c;" horiz-adv-x="936" 
d="M10 484.876v221.68c0 15.9502 5.69629 29.7852 17.0898 41.5039s25.3906 17.5781 41.9922 17.5781h221.68c8.1377 0 16.8457 -0.976562 26.123 -2.92969s18.6357 -4.96387 28.0762 -9.0332s18.3105 -8.62598 26.6113 -13.6719s15.0547 -10.498 20.2637 -16.3574
l327.148 -365.234c10.7422 -12.0439 16.2764 -26.042 16.6016 -41.9922s-5.20801 -29.6221 -16.6016 -41.0156l-256.836 -255.859c-11.3936 -11.3936 -25.4727 -17.415 -42.2363 -18.0664c-16.7646 -0.651367 -30.3555 5.37109 -40.7715 18.0664l-327.148 364.258
c-11.3936 12.6953 -21.2402 28.6455 -29.541 47.8516s-12.4512 36.9463 -12.4512 53.2227zM105.215 612.806c0 -15.2998 5.61523 -28.6455 16.8457 -40.0391s24.8213 -17.0898 40.7715 -17.0898c15.2998 0.00683594 28.6455 5.70312 40.0391 17.0898
c11.3936 11.3965 17.0898 24.7432 17.0898 40.0391c0 15.9502 -5.69629 29.541 -17.0898 40.7715s-24.7393 16.8457 -40.0391 16.8457c-15.9502 0 -29.541 -5.61523 -40.7715 -16.8457c-11.2305 -11.2324 -16.8457 -24.8232 -16.8457 -40.7715zM396.23 764.661h84.9609
c16.6016 0 34.9121 -3.9873 54.9316 -11.9629c20.0186 -7.97559 35.2373 -17.9854 45.6543 -30.0293l327.148 -365.234c11.3945 -12.0439 17.0918 -26.2041 17.0898 -42.4805c0 -16.2764 -5.69629 -30.1104 -17.0898 -41.5039l-255.859 -255.859
c-11.3936 -11.3936 -25.3906 -17.2529 -41.9922 -17.5781s-30.5986 5.53418 -41.9922 17.5781l-5.85938 6.83594l250.977 250.977c11.3936 11.3936 17.0088 25.1465 16.8457 41.2598s-5.77832 30.0293 -16.8457 41.748l-327.148 365.234
c-10.0908 11.3975 -23.7627 20.5938 -41.0156 27.5879c-17.2529 7.00195 -33.8545 11.4785 -49.8047 13.4277z" />
    <glyph glyph-name="uniF090" unicode="&#xf090;" horiz-adv-x="845" 
d="M10 285.156v179.688c0 10.7432 3.66211 19.6133 10.9863 26.6113c7.32422 7.00391 16.3574 10.5029 27.0996 10.498h208.984v143.066c0 13.3467 6.02246 22.624 18.0664 27.832c12.6953 4.54297 23.6006 2.26367 32.7148 -6.83594l270.02 -270.02
c5.20801 -5.8584 7.89355 -13.0205 8.05664 -21.4844s-2.52246 -15.2998 -8.05664 -20.5078l-270.02 -270.02c-5.85938 -5.85938 -12.8584 -8.78906 -20.9961 -8.78906c-2.60449 0 -6.51074 0.651367 -11.7188 1.95312c-12.0449 5.20801 -18.0664 14.4854 -18.0664 27.832
v142.09h-208.984c-10.7422 0 -19.7754 3.66211 -27.0996 10.9863s-10.9863 16.3574 -10.9863 27.0996zM460.195 0v94.2383h224.609c15.2998 0 28.4834 5.45215 39.5508 16.3574s16.6016 24.0068 16.6016 39.3066v450.195c0 15.3027 -5.45215 28.4053 -16.3574 39.3066
c-10.9053 10.9102 -24.1699 16.3623 -39.7949 16.3574h-224.609v94.2383h224.609c20.5078 0 39.7949 -3.9873 57.8613 -11.9629s33.9355 -18.6357 47.6074 -31.9824s24.5771 -29.2158 32.7148 -47.6074c8.1377 -18.3926 12.207 -37.8428 12.207 -58.3496v-450.195
c-0.0078125 -20.5078 -4.07715 -39.7949 -12.207 -57.8613c-8.14062 -18.0664 -19.0459 -33.9355 -32.7148 -47.6074c-13.6729 -13.6719 -29.4609 -24.4951 -47.3633 -32.4707c-17.9053 -7.97559 -37.2734 -11.9629 -58.1055 -11.9629h-224.609z" />
    <glyph glyph-name="uniF0C7" unicode="&#xf0c7;" horiz-adv-x="770" 
d="M10 75.1953v599.609c0 20.5088 7.32422 38.168 21.9727 52.9785c14.6484 14.8145 32.3896 22.2207 53.2227 22.2168h524.902c20.5078 0 38.0859 -7.32422 52.7344 -21.9727l75.1953 -75.1953c14.6484 -14.6484 21.9727 -32.2266 21.9727 -52.7344v-524.902
c0 -20.5078 -7.32422 -38.167 -21.9727 -52.9785c-14.6504 -14.8115 -32.3906 -22.2168 -53.2227 -22.2168h-599.609c-20.5078 0 -38.167 7.32422 -52.9785 21.9727s-22.2168 32.3896 -22.2168 53.2227zM85.1953 413.086h524.902v261.719h-524.902v-261.719z
M423.086 450.195v187.988h92.7734v-187.988h-92.7734z" />
    <glyph glyph-name="uniF0E0" unicode="&#xf0e0;" 
d="M10 56.1523v441.895c3.25488 -3.2627 6.5918 -6.11133 10.0098 -8.54492c3.41797 -2.44141 6.75488 -4.96387 10.0098 -7.56836c41.9922 -31.25 83.6592 -62.4189 125 -93.5059s82.3564 -62.9072 123.047 -95.459c12.6953 -10.0908 26.042 -20.2637 40.0391 -30.5176
c13.998 -10.2539 28.4834 -19.5312 43.457 -27.832s30.6807 -14.9746 47.1191 -20.0195c16.4385 -5.0459 33.2842 -7.56836 50.5371 -7.56836c17.9033 0 34.9932 2.52246 51.2695 7.56836s31.9014 11.5557 46.875 19.5312s29.46 17.0898 43.457 27.3438
s27.6689 20.752 41.0156 31.4941c40.6904 32.5527 81.7061 64.3721 123.047 95.459c41.3408 31.0879 83.0078 62.2559 125 93.5059c3.25488 2.6123 6.5918 5.13477 10.0098 7.56836c3.41797 2.44141 6.75488 5.29004 10.0098 8.54492v-441.895
c0 -15.2998 -5.45215 -28.4834 -16.3574 -39.5508s-24.0068 -16.6016 -39.3066 -16.6016h-788.086c-15.2998 0 -28.4834 5.53418 -39.5508 16.6016s-16.6016 24.251 -16.6016 39.5508zM10.9766 700.195c0 13.3516 5.85938 24.9893 17.5781 34.9121
c11.7188 9.93555 24.251 14.8994 37.5977 14.8926h788.086c13.3467 0 25.7979 -4.96387 37.3535 -14.8926s17.334 -21.5654 17.334 -34.9121c0 -10.0908 -3.01074 -21.3213 -9.0332 -33.6914s-13.3467 -24.5771 -21.9727 -36.6211s-17.9033 -23.0303 -27.832 -32.959
s-18.6357 -17.8223 -26.123 -23.6816c-40.0391 -29.9482 -79.3457 -59.6514 -117.92 -89.1113c-38.5752 -29.46 -77.5557 -59.1641 -116.943 -89.1113c-8.14258 -5.85938 -17.501 -13.1836 -28.0762 -21.9727c-10.5791 -8.78906 -21.5654 -17.1719 -32.959 -25.1465
c-11.3936 -7.97559 -22.9492 -14.8115 -34.668 -20.5078s-22.4609 -8.54492 -32.2266 -8.54492h-0.976562h-0.976562c-10.0908 0 -20.9961 2.84766 -32.7148 8.54492c-11.7188 5.69629 -23.1934 12.5322 -34.4238 20.5078s-22.2168 16.3574 -32.959 25.1465
s-20.1826 16.1133 -28.3203 21.9727c-39.3877 29.9482 -78.3691 59.5703 -116.943 88.8672s-77.8809 59.082 -117.92 89.3555c-7.4873 5.86035 -16.1943 13.7549 -26.123 23.6816c-9.92871 9.92871 -19.2061 20.915 -27.832 32.959s-15.9502 24.251 -21.9727 36.6211
s-9.0332 23.6006 -9.0332 33.6914z" />
    <glyph glyph-name="uniF0C2" unicode="&#xf0c2;" horiz-adv-x="938" 
d="M10 190.918c0 22.7871 3.8252 44.3525 11.4746 64.6973s18.1475 38.8184 31.4941 55.4199s29.0527 30.5986 47.1191 41.9922s37.6787 19.6943 58.8379 24.9023c-10.7422 13.3467 -19.043 27.9951 -24.9023 43.9453s-8.78906 33.04 -8.78906 51.2695
c0 21.4844 3.9873 41.5039 11.9629 60.0586s18.7988 34.668 32.4707 48.3398s29.7852 24.4951 48.3398 32.4707c18.5547 7.9834 38.5742 11.9707 60.0586 11.9629c36.7842 0 68.6846 -11.7188 95.7031 -35.1562c5.85938 24.7393 15.8691 47.7705 30.0293 69.0918
s30.9248 39.7949 50.293 55.4199c19.3691 15.625 41.0156 27.832 64.9414 36.6211s49.5605 13.1836 76.9043 13.1836c31.251 -0.00390625 60.873 -6.02637 88.8672 -18.0664c27.9961 -12.0439 52.3291 -28.4014 72.998 -49.0723
c20.6709 -20.6709 37.0283 -45.0029 49.0723 -72.998s18.0664 -57.6172 18.0664 -88.8672c-0.0195312 -18.5547 -2.13574 -36.377 -6.34766 -53.4668c-4.23145 -17.0898 -10.0908 -33.2852 -17.5781 -48.584c38.0859 -19.2061 68.7666 -46.875 92.041 -83.0078
s34.9121 -76.4971 34.9121 -121.094c-0.00488281 -31.9014 -6.02734 -61.6865 -18.0664 -89.3555c-12.0449 -27.6689 -28.5654 -52.002 -49.5605 -72.998c-20.9971 -20.9961 -45.3291 -37.5166 -72.998 -49.5605s-57.4541 -18.0664 -89.3555 -18.0664h-497.07
c-26.042 0 -50.7002 4.96387 -73.9746 14.8926s-43.6201 23.6006 -61.0352 41.0156s-31.0869 37.7607 -41.0156 61.0352s-14.8926 47.9326 -14.8926 73.9746z" />
    <glyph glyph-name="uniF031" unicode="&#xf031;" horiz-adv-x="823" 
d="M10 0l0.976562 39.0625c3.25488 1.30273 8.05664 2.60449 14.4043 3.90625c6.34766 1.30273 14.2412 2.60449 23.6816 3.90625c29.9482 5.85938 47.5264 11.2305 52.7344 16.1133c5.20801 3.25488 13.3467 14.3232 24.4141 33.2031l113.77 299.805l135.254 354.004
h35.6445h25.8789l5.37109 -9.76562l98.6328 -235.352c10.7422 -25.3906 21.1592 -50.0488 31.25 -73.9746s19.6943 -47.6074 28.8086 -71.0449c9.44043 -23.4375 17.9854 -44.5967 25.6348 -63.4766s14.5674 -35.6445 20.752 -50.293
c3.90625 -9.44043 8.54492 -20.834 13.916 -34.1797c5.37012 -13.3467 11.3105 -28.6455 17.8223 -45.8984c7.48926 -21.4844 17.9062 -45.8984 31.25 -73.2422c8.1377 -15.9502 13.6719 -25.2275 16.6016 -27.832c6.51172 -5.85938 17.5791 -9.76562 33.2031 -11.7188
c8.1377 -0.651367 16.1943 -2.19727 24.1699 -4.63867s16.5205 -5.29004 25.6348 -8.54492c1.95312 -12.0439 3.09277 -20.9961 3.41797 -26.8555v-5.12695l-1.46484 -8.05664c-13.9971 0 -28.6455 0.325195 -43.9453 0.976562s-31.25 1.62793 -47.8516 2.92969
c-17.2529 1.30176 -33.3662 2.27832 -48.3398 2.92969s-29.1338 0.976562 -42.4805 0.976562h-39.0625l-25.8789 -0.976562l-97.168 -4.88281l-27.832 -0.976562c-0.0078125 6.51074 0.154297 12.9395 0.488281 19.2871c0.325195 6.34766 0.813477 12.6143 1.46484 18.7988
l62.9883 12.6953c18.5547 4.55762 29.46 8.62598 32.7148 12.207c3.90625 2.60449 6.02246 6.99902 6.34766 13.1836c0.00390625 4.55762 -1.13477 9.44043 -3.41797 14.6484l-22.9492 56.1523l-43.9453 110.84l-217.773 0.976562
c-3.90625 -9.44043 -9.92871 -25.0654 -18.0664 -46.875s-18.8799 -50.7812 -32.2266 -86.9141c-7.4873 -20.5078 -11.0674 -34.1797 -10.7422 -41.0156c0 -8.78906 2.60449 -15.7881 7.8125 -20.9961c4.55762 -3.25488 11.0684 -6.10352 19.5312 -8.54492
c8.46387 -2.44141 18.7178 -4.63867 30.7617 -6.5918c4.55762 -1.30176 18.2295 -3.25488 41.0156 -5.85938v-28.8086c-0.0117188 -5.20801 -0.336914 -9.60254 -0.976562 -13.1836c-11.3936 0 -31.0879 0.813477 -59.082 2.44141
c-27.9951 1.62793 -64.4531 4.23145 -109.375 7.8125l-23.9258 -4.39453c-13.9971 -2.60449 -27.5068 -4.39453 -40.5273 -5.37109s-26.2041 -1.46484 -39.5508 -1.46484h-9.76562zM278.066 319.824c43.9453 -0.664062 79.1016 -1.31543 105.469 -1.95312
c26.3672 -0.651367 43.457 -0.651367 51.2695 0l14.1602 0.976562c-5.85938 16.6016 -12.4512 34.749 -19.7754 54.4434s-15.707 40.9346 -25.1465 63.7207c-9.44141 22.7861 -17.8232 42.6436 -25.1465 59.5703c-7.32422 16.9268 -13.5908 31.0869 -18.7988 42.4805z" />
    </font>
</defs>
</svg>
