<?xml version="1.0" standalone="no"?>
<!DOCTYPE svg PUBLIC "-//W3C//DTD SVG 1.1//EN" "http://www.w3.org/Graphics/SVG/1.1/DTD/svg11.dtd" >
<svg viewBox="0 -419 2154 2048">
  <g transform="matrix(1 0 0 -1 0 1638)">
   <path fill="currentColor"
d="M2154 -239q0 -75 -52.5 -127.5t-127.5 -52.5h-1598q-75 0 -127.5 52.5t-52.5 127.5v1599q0 75 52.5 127.5t127.5 52.5h1598q75 0 127.5 -52.5t52.5 -127.5v-1599zM1796 1400q0 34 -21 41q21 8 21 32q0 43 -34 43h-66v-151h66q34 0 34 35zM1593 1365v34h-33v-34h33z
M1552 1494v22h-101v-22h32v-129h37v129h32zM2112 818v84q0 36 -36 36h-39q-36 0 -36 -34v-88q0 -34 36 -34h39q36 0 36 36zM1410 1365v43q0 25 -23 32q23 8 23 33v43h-37v-51l-4 -10l-9 -4l-10 4l-4 10v51h-36v-43q0 -25 23 -33q-23 -7 -23 -32v-43h36v50l4 11l10 4l9 -4
l4 -11v-50h37zM2107 583v22h-64q2 11 33 42.5t31 46.5q0 44 -35 44h-32q-30 0 -34 -38h21q0 16 13 16h16l10 -4l4 -10q0 -20 -32 -52.5t-32 -47.5v-19h101zM1275 1365v21h-47v44h32v21h-32v43h47v22h-83v-151h83zM2120 436v22h-17v84h-39l-71 -86v-20h70v-51h40v51h17z
M1093 1365v151h-21v-78l-86 78h-10v-151h21v78l85 -78h11zM946 1365v151h-34v-151h34zM2106 317v28h-102v-157h41v66h47v28h-47v35h61zM883 1494v22h-101v-22h32v-129h37v129h32zM763 1365v116q0 35 -33 35h-35q-32 0 -32 -34v-117h36v65h27v-65h37zM640 1365v21h-48v130
h-36v-151h84zM1959 -79v1279q0 60 -42 102t-102 42h-1280q-60 0 -102 -42t-42 -102v-1279q0 -60 42 -102t102 -42h1280q60 0 102 42t42 102zM1795 -360q0 34 -21 41q21 8 21 32q0 43 -34 43h-66v-151h66q34 0 34 35zM1593 -395v34h-33v-34h33zM1552 -266v22h-101v-22h32
v-129h37v129h32zM349 818v84q0 36 -36 36h-39q-36 0 -36 -34v-88q0 -34 36 -34h39q36 0 36 36zM1410 -395v43q0 25 -23 32q23 8 23 33v43h-37v-51l-4 -10l-9 -4l-10 4l-4 10v51h-36v-43q0 -25 23 -33q-23 -7 -23 -32v-43h36v50l4 11l10 4l9 -4l4 -11v-50h37zM319 583v155
h-18l-32 -18v-20h15v-117h35zM1275 -395v21h-47v44h32v21h-32v43h47v22h-83v-151h83zM350 421q0 36 -24 43q24 8 24 33q0 45 -38 45h-35q-38 0 -38 -36q0 -35 24 -42q-24 -9 -24 -34q0 -45 38 -45h35q38 0 38 36zM1092 -395v151h-21v-78l-86 78h-10v-151h21v78l85 -78h11z
M945 -395v151h-34v-151h34zM349 224v84q0 36 -36 36h-39q-36 0 -36 -34v-88q0 -34 36 -34h39q36 0 36 36zM883 -266v22h-101v-22h32v-129h37v129h32zM763 -395v116q0 35 -33 35h-35q-32 0 -32 -34v-117h36v65h27v-65h37zM639 -395v21h-48v130h-36v-151h84zM1759 1465l-4 -10
l-10 -4h-13v43h13l10 -4l4 -10v-15zM1759 1400l-4 -10l-10 -4h-13v44h14q13 0 13 -14v-16zM2071 818l-4 -10l-11 -4l-10 4l-5 10v83l5 11l10 4l11 -4l4 -11v-83zM2063 458h-45l45 53v-53zM1285 988h-42l-127 209h77zM726 1451h-27v29l4 10l10 4l9 -4l4 -10v-29zM1111 988
h-41l-133 209h82zM1650 0h-280v38q73 0 73 36q0 18 -87 226h-413q-83 -203 -83 -218q0 -35 73 -44v-38h-233v38q51 0 81 39q15 19 42 85l336 817h39l347 -817q28 -66 37 -80q28 -44 68 -44v-38zM1758 -295l-4 -10l-10 -4h-13v43h13l10 -4l4 -10v-15zM1758 -360l-4 -10
l-10 -4h-13v44h14q13 0 13 -14v-16zM309 818l-5 -10l-10 -4l-11 4l-4 10v83l4 11l11 4l10 -4l5 -11v-83zM310 489l-5 -10l-10 -4l-11 4l-4 10v16l4 11l11 4l10 -4l5 -11v-16zM310 422l-5 -10l-10 -5l-11 5l-4 10v16q0 15 15 15t15 -15v-16zM309 225l-5 -11l-10 -4l-11 4
l-4 11v83l4 10l11 4l10 -4l5 -10v-83zM726 -309h-27v29l4 10l10 4l9 -4l4 -10v-29zM1332 347l-189 448l-182 -448h371z" />
  </g>

</svg>
