<?xml version="1.0" standalone="no"?>
<!DOCTYPE svg PUBLIC "-//W3C//DTD SVG 1.1//EN" "http://www.w3.org/Graphics/SVG/1.1/DTD/svg11.dtd" >
<svg viewBox="0 -419 2154 2048">
  <g transform="matrix(1 0 0 -1 0 1638)">
   <path fill="currentColor"
d="M2154 -239q0 -75 -52.5 -127.5t-127.5 -52.5h-1598q-75 0 -127.5 52.5t-52.5 127.5v1599q0 75 52.5 127.5t127.5 52.5h1598q75 0 127.5 -52.5t52.5 -127.5v-1599zM1798 1365l-66 75l66 76h-35l-48 -56v56h-37v-151h37v53l44 -53h39zM1652 1365v21h-47v44h32v21h-32v43h47
v22h-83v-151h83zM1541 1365v21h-47v44h32v21h-32v43h47v22h-83v-151h83zM2112 818v84q0 36 -36 36h-39q-36 0 -36 -34v-88q0 -34 36 -34h39q36 0 36 36zM1429 1365v60l-5 13l-11 5q16 8 16 29q0 44 -32 44h-68v-151h36v65h13l10 -4l5 -11v-50h36zM2107 617v35q0 33 -43 35
l43 30v20h-101v-21h59l-43 -30v-20l25 1q23 1 23 -15v-33l-4 -10l-10 -5h-15q-13 0 -14 17h-21q4 -38 33 -38h35q33 0 33 34zM1298 1400v51h-53v-21h16v-30q0 -13 -13 -14l-10 4l-4 10v80l4 10l10 4h16q12 0 13 -16h21q-2 38 -34 38h-32q-34 0 -34 -35v-81q0 -35 34 -35h32
q34 0 34 35zM2098 521v21h-84v-154h36v66h32v22h-32v45h48zM1081 1402h-20q-2 -16 -14 -16h-15l-10 4l-4 10v80l4 10l10 4h15q12 0 14 -16h20q-2 38 -34 38h-32q-34 0 -34 -35v-81q0 -35 34 -35h32q32 0 34 37zM954 1365v151h-33v-151h33zM2106 317v28h-102v-157h41v66h47
v28h-47v35h61zM892 1400q0 28 -24 49l-9 8q-21 19 -11 34q6 4 11 4q10 0 12 -17h21q-3 38 -32 38h-20q-32 0 -32 -35q0 -22 24 -49l8 -9q19 -21 12 -33q-5 -4 -10 -4q-2 0 -5 1l-4 2l-5 9l1 4h-21q0 -37 32 -37h19q33 0 33 35zM781 1365v116q0 35 -32 35h-35q-33 0 -33 -34
v-117h37v65h27v-65h36zM654 1400q0 34 -22 41q22 8 22 32q0 43 -35 43h-66v-151h66q35 0 35 35zM1959 -79v1279q0 59 -42.5 101.5t-101.5 42.5h-1280q-59 0 -101.5 -42.5t-42.5 -101.5v-1279q0 -59 42.5 -101.5t101.5 -42.5h1280q59 0 101.5 42.5t42.5 101.5zM1797 -395
l-66 75l66 76h-35l-48 -56v56h-37v-151h37v53l44 -53h39zM1651 -395v21h-47v44h32v21h-32v43h47v22h-83v-151h83zM1540 -395v21h-47v44h32v21h-32v43h47v22h-83v-151h83zM349 818v84q0 36 -36 36h-39q-36 0 -36 -34v-88q0 -34 36 -34h39q36 0 36 36zM1428 -395v60l-5 13
l-11 5q16 8 16 29q0 44 -32 44h-68v-151h36v65h13l10 -4l5 -11v-50h36zM344 617v35q0 33 -43 35l43 30v20h-101v-21h59l-43 -30v-20l25 1q23 1 23 -15v-33l-4 -10l-10 -5h-15q-13 0 -14 17h-21q4 -38 33 -38h35q33 0 33 34zM1297 -360v51h-53v-21h16v-30q0 -13 -13 -14
l-10 4l-4 10v80l4 10l10 4h16q12 0 13 -16h21q-2 38 -34 38h-32q-34 0 -34 -35v-81q0 -35 34 -35h32q34 0 34 35zM344 506v36h-101v-21h64v-14q-32 -66 -32 -84v-35h37q0 54 21 96zM1081 -358h-20q-2 -16 -14 -16h-15l-10 4l-4 10v80l4 10l10 4h15q12 0 14 -16h20
q-2 38 -34 38h-32q-34 0 -34 -35v-81q0 -35 34 -35h32q32 0 34 37zM954 -395v151h-33v-151h33zM349 224v84q0 36 -36 36h-39q-36 0 -36 -34v-88q0 -34 36 -34h39q36 0 36 36zM892 -360q0 28 -24 49l-9 8q-21 19 -11 34q6 4 11 4q10 0 12 -17h21q-3 38 -32 38h-20
q-32 0 -32 -35q0 -22 24 -49l8 -9q19 -21 12 -33q-5 -4 -10 -4q-2 0 -5 1l-4 2l-5 9l1 4h-21q0 -37 32 -37h19q33 0 33 35zM781 -395v116q0 35 -32 35h-35q-33 0 -33 -34v-117h37v65h27v-65h36zM654 -360q0 34 -22 41q22 8 22 32q0 43 -35 43h-66v-151h66q35 0 35 35z
M2071 818l-4 -10l-11 -4l-10 4l-5 10v83l5 11l10 4l11 -4l4 -11v-83zM1393 1465l-5 -10l-10 -4h-13v43h13l10 -4l5 -10v-15zM745 1451h-27v29l4 10l9 4l10 -4l4 -10v-29zM617 1465l-4 -10l-10 -4h-13v43h13l10 -4l4 -10v-15zM617 1400l-4 -10l-10 -4h-13v44h13q14 0 14 -14
v-16zM1775 210l-22 -210h-440v107q238 177 238 508q0 198 -87 339q-103 167 -289 167q-187 0 -290 -167q-87 -141 -87 -339q0 -331 239 -508v-107h-440l-22 210h57q6 -74 77 -94q32 -9 136 -9h127q-332 202 -332 502q0 239 147 396q151 162 388 162q236 0 387 -162
q148 -158 148 -396q0 -299 -332 -502h127q103 0 135 9q72 20 78 94h57zM309 818l-5 -10l-10 -4l-11 4l-4 10v83l4 11l11 4l10 -4l5 -11v-83zM1392 -295l-5 -10l-10 -4h-13v43h13l10 -4l5 -10v-15zM309 225l-5 -11l-10 -4l-11 4l-4 11v83l4 10l11 4l10 -4l5 -10v-83z
M745 -309h-27v29l4 10l9 4l10 -4l4 -10v-29zM617 -295l-4 -10l-10 -4h-13v43h13l10 -4l4 -10v-15zM617 -360l-4 -10l-10 -4h-13v44h13q14 0 14 -14v-16z" />
  </g>

</svg>
