<?xml version="1.0" standalone="no"?>
<!DOCTYPE svg PUBLIC "-//W3C//DTD SVG 1.1//EN" "http://www.w3.org/Graphics/SVG/1.1/DTD/svg11.dtd" >
<svg viewBox="0 -419 2154 2048">
  <g transform="matrix(1 0 0 -1 0 1638)">
   <path fill="currentColor"
d="M2154 -239q0 -74 -53 -127t-127 -53h-1598q-74 0 -127 53t-53 127v1599q0 74 53 127t127 53h1598q74 0 127 -53t53 -127v-1599zM1846 1365v34h-33v-34h33zM1814 1463v18q0 35 -32 35h-68v-151h37v65q63 -1 63 33zM1675 1400v116h-36v-116l-4 -10l-10 -4l-9 4l-4 10v116
h-37v-118q0 -33 33 -33h35q32 0 32 35zM1548 1478q-3 38 -33 38h-19q-32 0 -32 -35q0 -22 24 -49l8 -9q19 -21 12 -33q-6 -4 -10 -4q-2 0 -5 1l-4 2l-5 9v4h-20q0 -37 32 -37h19q32 0 32 35q0 25 -24 49l-8 8q-14 14 -14 25q0 13 13 13q11 0 13 -17h21zM2112 818v84
q0 36 -36 36h-39q-36 0 -36 -34v-88q0 -34 36 -34h39q36 0 36 36zM1362 1402h-21q-1 -16 -13 -16h-16l-10 4l-4 10v80l4 10l10 4h16q12 0 13 -16h21q-2 38 -34 38h-32q-34 0 -34 -35v-81q0 -35 34 -35h32q32 0 34 37zM2106 619v34q0 36 -64 35v28h64v22h-100v-71h50l9 -5
l5 -10v-32l-5 -11l-9 -4h-16q-13 0 -14 17h-20q4 -38 34 -38h32q34 0 34 35zM1231 1365v151h-33v-151h33zM1158 1365v21h-48v130h-36v-151h84zM2107 388v21h-64q2 11 33 42.5t31 46.5q0 44 -35 44h-32q-30 0 -34 -38h21q0 17 13 17h16l10 -5l4 -10q0 -20 -32 -52.5
t-32 -46.5v-19h101zM1044 1365v21h-48v130h-36v-151h84zM921 1365v151h-33v-151h33zM2106 317v28h-102v-157h41v66h47v28h-47v35h61zM861 1365v60l-5 13l-11 5q16 8 16 29q0 44 -32 44h-68v-151h37v65h13l10 -4l4 -11v-50h36zM731 1465v51h-36v-51l-4 -10l-10 -4l-9 4l-4 10
v51h-37v-51q0 -30 32 -35v-65h37v65q31 5 31 35zM604 1402h-21q-1 -16 -13 -16h-16l-10 4l-4 10v80l4 10l10 4h16q12 0 13 -16h21q-2 38 -34 38h-32q-34 0 -34 -35v-81q0 -35 34 -35h32q32 0 34 37zM1959 -79v1279q0 59 -42.5 101.5t-101.5 42.5h-1280q-59 0 -101.5 -42.5
t-42.5 -101.5v-1279q0 -59 42.5 -101.5t101.5 -42.5h1280q59 0 101.5 42.5t42.5 101.5zM1848 -395v34h-33v-34h33zM1816 -297v18q0 35 -32 35h-68v-151h37v65q63 -1 63 33zM1677 -360v116h-36v-116l-4 -10l-10 -4l-9 4l-4 10v116h-37v-118q0 -33 33 -33h35q32 0 32 35z
M1550 -282q-3 38 -33 38h-19q-32 0 -32 -35q0 -22 24 -49l8 -9q19 -21 12 -33q-6 -4 -10 -4q-2 0 -5 1l-4 2l-5 9v4h-20q0 -37 32 -37h19q32 0 32 35q0 25 -24 49l-8 8q-14 14 -14 25q0 13 13 13q11 0 13 -17h21zM349 818v84q0 36 -36 36h-39q-36 0 -36 -34v-88
q0 -34 36 -34h39q36 0 36 36zM1362 -358h-21q-1 -16 -13 -16h-16l-10 4l-4 10v80l4 10l10 4h16q12 0 13 -16h21q-2 38 -34 38h-32q-34 0 -34 -35v-81q0 -35 34 -35h32q32 0 34 37zM344 619v34q0 36 -64 35v28h64v22h-100v-71h50l9 -5l5 -10v-32l-5 -11l-9 -4h-16
q-13 0 -14 17h-20q4 -38 34 -38h32q34 0 34 35zM1231 -395v151h-33v-151h33zM1158 -395v21h-48v130h-36v-151h84zM349 421v85q0 36 -36 36h-39q-36 0 -36 -35v-87q0 -35 36 -35h39q36 0 36 36zM1044 -395v21h-48v130h-36v-151h84zM921 -395v151h-33v-151h33zM349 224v84
q0 36 -36 36h-39q-36 0 -36 -34v-88q0 -34 36 -34h39q36 0 36 36zM861 -395v60l-5 13l-11 5q16 8 16 29q0 44 -32 44h-68v-151h37v65h13l10 -4l4 -11v-50h36zM731 -295v51h-36v-51l-4 -10l-10 -4l-9 4l-4 10v51h-37v-51q0 -30 32 -35v-65h37v65q31 5 31 35zM604 -358h-21
q-1 -16 -13 -16h-16l-10 4l-4 10v80l4 10l10 4h16q12 0 13 -16h21q-2 38 -34 38h-32q-34 0 -34 -35v-81q0 -35 34 -35h32q32 0 34 37zM1778 1465l-4 -10l-10 -4h-13v43h13l10 -4l4 -10v-15zM2071 818l-4 -10l-11 -4l-10 4l-5 10v83l5 11l10 4l11 -4l4 -11v-83zM825 1465
l-4 -10l-10 -4h-13v43h13l10 -4l4 -10v-15zM1852 226l-23 -246q-300 20 -770 20v45q85 0 111 36q19 27 19 112v345h-145l-327 -538h-219v45q76 -1 212 223q154 254 231 303q-268 96 -268 332q0 146 122 197q79 33 249 33h757l22 -210h-57q-14 108 -57 132q-38 21 -216 21
h-157v-458h170q107 0 133 12q48 22 48 112h57v-295h-57q0 93 -47 114q-24 11 -134 11h-170v-384q0 -94 118 -120q50 -11 192 -11q77 0 111 48q25 35 38 121h57zM1780 -295l-4 -10l-10 -4h-13v43h13l10 -4l4 -10v-15zM309 818l-5 -10l-10 -4l-11 4l-4 10v83l4 11l11 4l10 -4
l5 -11v-83zM309 422l-5 -10l-10 -5l-11 5l-4 10v83l4 11l11 4l10 -4l5 -11v-83zM309 225l-5 -11l-10 -4l-11 4l-4 11v83l4 10l11 4l10 -4l5 -10v-83zM825 -295l-4 -10l-10 -4h-13v43h13l10 -4l4 -10v-15zM1189 583v504h-63q-299 0 -299 -215q0 -107 52 -184q22 -33 65 -66
q49 -39 81 -39h164z" />
  </g>

</svg>
