<?xml version="1.0" standalone="no"?>
<!DOCTYPE svg PUBLIC "-//W3C//DTD SVG 1.1//EN" "http://www.w3.org/Graphics/SVG/1.1/DTD/svg11.dtd" >
<svg viewBox="0 -419 2154 2048">
  <g transform="matrix(1 0 0 -1 0 1638)">
   <path fill="currentColor"
d="M2154 -239q0 -74 -53 -127t-127 -53h-1598q-74 0 -127 53t-53 127v1599q0 74 53 127t127 53h1598q74 0 127 -53t53 -127v-1599zM1713 1365v151h-21v-78l-86 78h-10v-151h20v78l86 -78h11zM1556 1365v116q0 35 -33 35h-35q-32 0 -32 -34v-117h36v65h27v-65h37zM2112 818
v84q0 36 -36 36h-39q-36 0 -36 -34v-88q0 -34 36 -34h39q36 0 36 36zM1418 1365v151h-33v-151h33zM1350 1365v151h-21v-78l-85 78h-11v-151h21v78l85 -78h11zM2106 619v34q0 36 -64 35v28h64v22h-100v-71h49l10 -5l5 -10v-32l-5 -11l-10 -4h-15q-13 0 -14 17h-20
q4 -38 34 -38h32q34 0 34 35zM1191 1365v21h-47v44h32v21h-32v43h47v22h-83v-151h83zM2111 421q0 36 -24 43q24 8 24 33q0 45 -38 45h-35q-38 0 -38 -36q0 -35 24 -42q-24 -9 -24 -34q0 -45 38 -45h35q38 0 38 36zM1077 1365v151h-20l-68 -69l-69 69h-10v-151h21v86l54 -55
l54 55v-86h38zM2106 317v28h-102v-157h41v66h47v28h-47v35h61zM873 1365v60l-5 13l-11 5q16 8 16 29q0 44 -33 44h-67v-151h36v65h13l10 -4l4 -11v-50h37zM738 1365v116q0 35 -33 35h-35q-33 0 -33 -34v-117h37v65h27v-65h37zM1959 -79v1279q0 59 -42.5 101.5t-101.5 42.5
h-1280q-59 0 -101.5 -42.5t-42.5 -101.5v-1279q0 -59 42.5 -101.5t101.5 -42.5h1280q59 0 101.5 42.5t42.5 101.5zM1713 -395v151h-21v-78l-86 78h-10v-151h20v78l86 -78h11zM1556 -395v116q0 35 -33 35h-35q-32 0 -32 -34v-117h36v65h27v-65h37zM349 818v84q0 36 -36 36
h-39q-36 0 -36 -34v-88q0 -34 36 -34h39q36 0 36 36zM1418 -395v151h-33v-151h33zM1350 -395v151h-21v-78l-85 78h-11v-151h21v78l85 -78h11zM344 619v34q0 36 -64 35v28h64v22h-100v-71h50l9 -5l5 -10v-32l-5 -11l-9 -4h-16q-13 0 -14 17h-20q4 -38 34 -38h32q34 0 34 35z
M1191 -395v21h-47v44h32v21h-32v43h47v22h-83v-151h83zM344 422v35q0 34 -43 36l43 29v21h-101v-22h59l-43 -29v-21l25 1q23 1 23 -15v-33l-4 -10l-10 -4h-15q-13 0 -14 16h-21q4 -38 33 -38h35q33 0 33 34zM1077 -395v151h-20l-68 -69l-69 69h-10v-151h21v86l54 -55l54 55
v-86h38zM349 224v84q0 36 -36 36h-39q-36 0 -36 -34v-88q0 -34 36 -34h39q36 0 36 36zM873 -395v60l-5 13l-11 5q16 8 16 29q0 44 -33 44h-67v-151h36v65h13l10 -4l4 -11v-50h37zM738 -395v116q0 35 -33 35h-35q-33 0 -33 -34v-117h37v65h27v-65h37zM1519 1451h-27v29l4 10
l10 4l9 -4l4 -10v-29zM2071 818l-4 -10l-11 -4l-10 4l-5 10v83l5 11l10 4l11 -4l4 -11v-83zM2071 489l-5 -10l-11 -4l-10 4l-5 10v16l5 11l10 4l11 -4l5 -11v-16zM2071 422l-5 -10l-11 -5l-10 5l-5 10v16q0 15 15 15q16 0 16 -15v-16zM836 1465l-4 -10l-10 -4h-13v43h13
l10 -4l4 -10v-15zM701 1451h-27v29l4 10l10 4l9 -4l4 -10v-29zM1794 -32h-176q-5 101 -21 147q-24 69 -93 110q-27 -134 -154 -204q-108 -60 -256 -60q-131 0 -227 48q-115 57 -150 170q-24 77 -24 253v515q0 88 -21 115q-26 34 -116 34v46h285v-710q0 -425 273 -425
q256 0 256 390v550q0 89 -20 115q-26 34 -117 34v46h286v-698q0 -78 -5 -143q212 -40 263 -208q7 -23 17 -125zM1519 -309h-27v29l4 10l10 4l9 -4l4 -10v-29zM309 818l-5 -10l-10 -4l-11 4l-4 10v83l4 11l11 4l10 -4l5 -11v-83zM309 225l-5 -11l-10 -4l-11 4l-4 11v83l4 10
l11 4l10 -4l5 -10v-83zM836 -295l-4 -10l-10 -4h-13v43h13l10 -4l4 -10v-15zM701 -309h-27v29l4 10l10 4l9 -4l4 -10v-29z" />
  </g>

</svg>
