<?xml version="1.0" standalone="no"?>
<!DOCTYPE svg PUBLIC "-//W3C//DTD SVG 1.1//EN" "http://www.w3.org/Graphics/SVG/1.1/DTD/svg11.dtd" >
<svg viewBox="0 -419 2154 2048">
  <g transform="matrix(1 0 0 -1 0 1638)">
   <path fill="currentColor"
d="M2154 -239q0 -74 -53 -127t-127 -53h-1598q-74 0 -127 53t-53 127v1599q0 74 53 127t127 53h1598q74 0 127 -53t53 -127v-1599zM2112 818v84q0 36 -36 36h-39q-36 0 -36 -34v-88q0 -34 36 -34h39q36 0 36 36zM1505 1402h-21q-1 -16 -14 -16h-15l-10 4l-4 10v80l4 10l10 4
h15q12 0 14 -16h21q-2 38 -35 38h-32q-34 0 -34 -35v-81q0 -35 34 -35h32q32 0 35 37zM1379 1365v116q0 35 -33 35h-35q-33 0 -33 -34v-117h37v65h27v-65h37zM2107 702v36h-101v-22h64v-13q-32 -66 -32 -84v-36h37q0 53 32 119zM1248 1365v151h-34v-151h34zM1188 1365v60
l-6 13l-11 5q17 8 17 29q0 44 -33 44h-68v-151h37v65h13l10 -4l4 -11v-50h37zM2120 436v22h-17v84h-39l-71 -86v-20h70v-51h40v51h17zM1058 1465v51h-37v-51l-4 -10l-9 -4l-10 4l-4 10v51h-37v-51q0 -30 32 -35v-65h37v65q32 5 32 35zM929 1400q0 21 -23.5 49t-23.5 31l3 11
q4 2 11 4q11 0 13 -17h20q-2 38 -32 38h-19q-33 0 -33 -35q0 -21 24 -49t24 -32l-4 -10l-10 -4l-9 3l-4 9v4h-21q0 -37 32 -37h19q33 0 33 35zM2106 317v28h-102v-157h41v66h47v28h-47v35h61zM1959 -79v1279q0 59 -42.5 101.5t-101.5 42.5h-1280q-59 0 -101.5 -42.5
t-42.5 -101.5v-1279q0 -59 42.5 -101.5t101.5 -42.5h1280q59 0 101.5 42.5t42.5 101.5zM349 818v84q0 36 -36 36h-39q-36 0 -36 -34v-88q0 -34 36 -34h39q36 0 36 36zM1505 -358h-21q-1 -16 -14 -16h-15l-10 4l-4 10v80l4 10l10 4h15q12 0 14 -16h21q-2 38 -35 38h-32
q-34 0 -34 -35v-81q0 -35 34 -35h32q32 0 35 37zM1379 -395v116q0 35 -33 35h-35q-33 0 -33 -34v-117h37v65h27v-65h37zM344 702v36h-101v-22h64v-13q-32 -66 -32 -84v-36h37q0 53 32 119zM1248 -395v151h-34v-151h34zM1188 -395v60l-6 13l-11 5q17 8 17 29q0 44 -33 44h-68
v-151h37v65h13l10 -4l4 -11v-50h37zM349 421v85q0 36 -36 36h-39q-36 0 -36 -35v-87q0 -35 36 -35h39q36 0 36 36zM1058 -295v51h-37v-51l-4 -10l-9 -4l-10 4l-4 10v51h-37v-51q0 -30 32 -35v-65h37v65q32 5 32 35zM929 -360q0 21 -23.5 49t-23.5 31q1 5 3 11q4 2 11 4
q11 0 13 -17h20q-2 38 -32 38h-19q-33 0 -33 -35q0 -21 24 -49t24 -32l-4 -10l-10 -4l-9 3l-4 9v4h-21q0 -37 32 -37h19q33 0 33 35zM349 224v84q0 36 -36 36h-39q-36 0 -36 -34v-88q0 -34 36 -34h39q36 0 36 36zM2071 818l-4 -10l-11 -4l-10 4l-5 10v83l5 11l10 4l11 -4
l4 -11v-83zM1342 1451h-27v29l4 10l9 4l10 -4l4 -10v-29zM1151 1465l-4 -10l-10 -4h-13v43h13l10 -4l4 -10v-15zM2063 458h-45l45 53v-53zM1813 920q0 -179 -279 -297q-196 -83 -442 -111v-3q19 -13 153 -118q98 -76 161 -97q24 -5 66 -22q34 -23 34 -75q0 -106 -155 -106
q-79 0 -167 105q-44 55 -164 195q-93 105 -203 105q-105 0 -105 -143q0 -26 3 -106l4 -107q2 -49 -34 -49q-56 0 -106 189q-42 158 -42 243q0 140 219 140q33 0 99 -3t99 -3q242 0 398 78q44 22 190 169q125 126 183 126q88 0 88 -110zM309 818l-5 -10l-10 -4l-11 4l-4 10
v83l4 11l11 4l10 -4l5 -11v-83zM1342 -309h-27v29l4 10l9 4l10 -4l4 -10v-29zM1151 -295l-4 -10l-10 -4h-13v43h13l10 -4l4 -10v-15zM309 422l-5 -10l-10 -5l-11 5l-4 10v83l4 11l11 4l10 -4l5 -11v-83zM309 225l-5 -11l-10 -4l-11 4l-4 11v83l4 10l11 4l10 -4l5 -10v-83z
" />
  </g>

</svg>
