<?xml version="1.0" standalone="no"?>
<!DOCTYPE svg PUBLIC "-//W3C//DTD SVG 1.1//EN" "http://www.w3.org/Graphics/SVG/1.1/DTD/svg11.dtd" >
<svg viewBox="0 -419 2155 2048">
  <g transform="matrix(1 0 0 -1 0 1638)">
   <path fill="currentColor"
d="M2155 -239q0 -75 -52.5 -127.5t-127.5 -52.5h-1599q-75 0 -127.5 52.5t-52.5 127.5v1599q0 75 52.5 127.5t127.5 52.5h1599q75 0 127.5 -52.5t52.5 -127.5v-1599zM2112 818v84q0 36 -36 36h-39q-36 0 -36 -34v-88q0 -34 36 -34h39q36 0 36 36zM1397 1400v81q0 35 -32 35
h-36q-32 0 -32 -33v-84q0 -33 32 -33h36q32 0 32 34zM2107 702v36h-101v-22h64v-13q-32 -66 -32 -84v-36h37q0 55 21 97zM1281 1365l-66 75l66 76h-35l-48 -56v56h-37v-151h37v53l45 -53h38zM1133 1482v34h-33v-34h17q-1 -16 -17 -17v-16q33 3 33 33zM2098 521v21h-84v-154
h36v66h32v22h-32v45h48zM1070 1365v151h-21v-78l-85 78h-11v-151h21v78l85 -78h11zM2106 317v28h-102v-157h41v66h47v28h-47v35h61zM1959 -79v1279q0 60 -42 102t-102 42h-1280q-60 0 -102 -42t-42 -102v-1279q0 -60 42 -102t102 -42h1280q60 0 102 42t42 102zM349 818v84
q0 36 -36 36h-39q-36 0 -36 -34v-88q0 -34 36 -34h39q36 0 36 36zM1397 -360v81q0 35 -32 35h-36q-32 0 -32 -33v-84q0 -33 32 -33h36q32 0 32 34zM344 702v36h-101v-22h64v-13q-32 -66 -32 -84v-36h37q0 55 21 97zM1281 -395l-66 75l66 76h-35l-48 -56v56h-37v-151h37v53
l45 -53h38zM1133 -278v34h-33v-34h17q-1 -16 -17 -17v-16q33 4 33 33zM344 426h-20q-2 -17 -14 -17h-16l-9 5l-5 10v82l5 10l9 5h16q12 0 14 -17h20q-2 38 -34 38h-32q-34 0 -34 -36v-83q0 -35 34 -35h32q32 0 34 38zM1070 -395v151h-21v-78l-85 78h-11v-151h21v78l85 -78
h11zM349 224v84q0 36 -36 36h-39q-36 0 -36 -34v-88q0 -34 36 -34h39q36 0 36 36zM2071 818l-4 -10l-11 -4l-10 4l-5 10v83l5 11l10 4l11 -4l4 -11v-83zM1361 1401l-5 -10l-9 -4l-10 4l-4 10v80l5 10l9 4l9 -4l5 -10v-80zM1603 156q0 -78 -44 -123.5t-122 -43.5v635h-242
q0 -186 -83 -183v183h-95q-112 0 -191 74t-79 185q0 113 56 183q61 77 171 77q156 0 199 -143q19 -63 19 -270h411v-574zM309 818l-5 -10l-10 -4l-11 4l-4 10v83l4 11l11 4l10 -4l5 -11v-83zM1361 -359l-5 -10l-9 -4l-10 4l-4 10v80l5 10l9 4l9 -4l5 -10v-80zM309 225
l-5 -11l-10 -4l-11 4l-4 11v83l4 10l11 4l10 -4l5 -10v-83zM1112 730v161q0 167 -127 167q-141 0 -141 -167q0 -71 58 -117q54 -44 126 -44h84z" />
  </g>

</svg>
