<?xml version="1.0" standalone="no"?>
<!DOCTYPE svg PUBLIC "-//W3C//DTD SVG 1.1//EN" "http://www.w3.org/Graphics/SVG/1.1/DTD/svg11.dtd" >
<svg viewBox="0 -419 2155 2048">
  <g transform="matrix(1 0 0 -1 0 1638)">
   <path fill="currentColor"
d="M2155 -239q0 -74 -53 -127t-127 -53h-1599q-75 0 -127.5 52.5t-52.5 127.5v1599q0 75 52.5 127.5t127.5 52.5h1599q74 0 127 -53t53 -127v-1599zM1762 1365v151h-34v-151h34zM1704 1365v60l-5 13l-11 5q16 8 16 29q0 44 -33 44h-67v-151h36v65h13l10 -4l4 -11v-50h37z
M1576 1365v116q0 35 -33 35h-35q-32 0 -32 -34v-117h36v65h27v-65h37zM2112 818v84q0 36 -36 36h-39q-36 0 -36 -34v-88q0 -34 36 -34h39q36 0 36 36zM1451 1400v51h-52v-21h16v-30q0 -13 -14 -14l-10 4l-4 10v80l4 10l10 4h16q12 0 14 -16h20q-2 38 -34 38h-32
q-34 0 -34 -35v-81q0 -35 34 -35h32q34 0 34 35zM1328 1365v116q0 35 -33 35h-35q-33 0 -33 -34v-117h37v65h27v-65h37zM2112 643v61q0 36 -38 36h-35q-38 0 -38 -36v-34q0 -36 38 -36h17q10 0 15 6v-4q0 -31 -52 -31v-22h31q24 0 43 18t19 42zM1203 1365v151h-21v-78
l-85 78h-11v-151h21v78l86 -78h10zM2107 506v36h-101v-21h64v-14q-32 -66 -32 -84v-35h37q0 52 32 118zM1061 1365v116q0 35 -33 35h-35q-32 0 -32 -34v-117h36v65h27v-65h37zM935 1423v93h-36v-116l-4 -10l-10 -4h-13v130h-37v-151h44q56 0 56 58zM2106 317v28h-102v-157
h41v66h47v28h-47v35h61zM800 1365v21h-47v44h31v21h-31v43h47v22h-83v-151h83zM689 1400v81q0 35 -33 35h-67v-151h67q33 0 33 35zM1959 -79v1279q0 59 -42.5 101.5t-101.5 42.5h-1280q-59 0 -101.5 -42.5t-42.5 -101.5v-1279q0 -59 42.5 -101.5t101.5 -42.5h1280
q59 0 101.5 42.5t42.5 101.5zM1762 -395v151h-34v-151h34zM1704 -395v60l-5 13l-11 5q16 8 16 29q0 44 -33 44h-67v-151h36v65h13l10 -4l4 -11v-50h37zM1576 -395v116q0 35 -33 35h-35q-32 0 -32 -34v-117h36v65h27v-65h37zM349 818v84q0 36 -36 36h-39q-36 0 -36 -34v-88
q0 -34 36 -34h39q36 0 36 36zM1451 -360v51h-52v-21h16v-30q0 -13 -14 -14l-10 4l-4 10v80l4 10l10 4h16q12 0 14 -16h20q-2 38 -34 38h-32q-34 0 -34 -35v-81q0 -35 34 -35h32q34 0 34 35zM1328 -395v116q0 35 -33 35h-35q-33 0 -33 -34v-117h37v65h27v-65h37zM349 643v61
q0 36 -38 36h-35q-38 0 -38 -36v-34q0 -36 38 -36h18q9 0 14 6v-4q0 -31 -52 -31v-22h31q24 0 43 18t19 42zM1203 -395v151h-21v-78l-85 78h-11v-151h21v78l86 -78h10zM349 421v85q0 36 -36 36h-39q-36 0 -36 -35v-87q0 -35 36 -35h39q36 0 36 36zM1061 -395v116
q0 35 -33 35h-35q-32 0 -32 -34v-117h36v65h27v-65h37zM935 -337v93h-36v-116l-4 -10l-10 -4h-13v130h-37v-151h44q56 0 56 58zM349 224v84q0 36 -36 36h-39q-36 0 -36 -34v-88q0 -34 36 -34h39q36 0 36 36zM800 -395v21h-47v44h31v21h-31v43h47v22h-83v-151h83zM689 -360
v81q0 35 -33 35h-67v-151h67q33 0 33 35zM1667 1465l-4 -10l-10 -4h-13v43h13l10 -4l4 -10v-15zM1539 1451h-27v29l4 10l10 4l9 -4l4 -10v-29zM2071 818l-4 -10l-11 -4l-10 4l-5 10v83l5 11l10 4l11 -4l4 -11v-83zM1291 1451h-27v29l4 10l9 4l10 -4l4 -10v-29zM2071 670
l-4 -10l-11 -4l-10 4l-5 10v33l5 10l10 5l11 -5l4 -10v-33zM1024 1451h-27v29l4 10l10 4l9 -4l4 -10v-29zM652 1400l-4 -10l-10 -4h-13v108h13l10 -4l4 -10v-80zM1872 936h-585v-303l5 -4q104 90 173 90q97 0 170 -77t73 -175q0 -110 -117 -357l-113 91l76 152q48 96 48 155
q0 42 -28 72t-70 30q-34 0 -64 -14q-19 -9 -86 -58q-70 -51 -70 -59v-422l-123 104v232q-158 -95 -232 -95q-110 0 -187 91q-73 87 -73 199q0 100 78 153q67 46 172 46q128 0 244 -166v315h-565l-120 128h1264zM1667 -295l-4 -10l-10 -4h-13v43h13l10 -4l4 -10v-15z
M1539 -309h-27v29l4 10l10 4l9 -4l4 -10v-29zM309 818l-5 -10l-10 -4l-11 4l-4 10v83l4 11l11 4l10 -4l5 -11v-83zM1291 -309h-27v29l4 10l9 4l10 -4l4 -10v-29zM309 670l-5 -10l-10 -4l-11 4l-4 10v33l4 10l11 5l10 -5l5 -10v-33zM309 422l-5 -10l-10 -5l-11 5l-4 10v83
l4 11l11 4l10 -4l5 -11v-83zM1024 -309h-27v29l4 10l10 4l9 -4l4 -10v-29zM309 225l-5 -11l-10 -4l-11 4l-4 11v83l4 10l11 4l10 -4l5 -10v-83zM652 -360l-4 -10l-10 -4h-13v108h13l10 -4l4 -10v-80zM1155 542q-121 139 -239 139q-58 0 -101 -43.5t-43 -102.5t40 -98t99 -39
t244 144z" />
  </g>

</svg>
