<?xml version="1.0" standalone="no"?>
<!DOCTYPE svg PUBLIC "-//W3C//DTD SVG 1.1//EN" "http://www.w3.org/Graphics/SVG/1.1/DTD/svg11.dtd" >
<svg viewBox="0 -419 2155 2048">
  <g transform="matrix(1 0 0 -1 0 1638)">
   <path fill="currentColor"
d="M2155 -239q0 -74 -53 -127t-127 -53h-1599q-75 0 -127.5 52.5t-52.5 127.5v1599q0 75 52.5 127.5t127.5 52.5h1599q74 0 127 -53t53 -127v-1599zM1652 1365v151h-33v-151h33zM1591 1494v22h-100v-22h32v-129h36v129h32zM2112 818v84q0 36 -36 36h-39q-36 0 -36 -34v-88
q0 -34 36 -34h39q36 0 36 36zM1466 1365v116q0 35 -32 35h-35q-33 0 -33 -34v-117h37v65h27v-65h36zM1334 1365v60l-5 13l-11 5q16 8 16 29q0 44 -33 44h-67v-151h36v65h13l10 -4l4 -11v-50h37zM2111 584v120q0 36 -36 36h-38q-36 0 -36 -34v-122h40v67h30v-67h40z
M1197 1365v116q0 35 -33 35h-35q-32 0 -32 -34v-117h36v65h27v-65h37zM2098 521v21h-84v-154h36v66h32v22h-32v45h48zM1060 1398v118h-37v-116l-4 -10l-9 -4l-10 4l-4 10v35h-36v-37q0 -33 32 -33h36q32 0 32 33zM2106 317v28h-102v-157h41v66h47v28h-47v35h61zM929 1400
v116h-36v-116l-4 -10l-10 -4l-9 4l-4 10v116h-37v-118q0 -33 33 -33h35q32 0 32 35zM798 1400v51h-52v-21h16v-30q0 -13 -14 -14l-9 4l-5 10v80l5 10l10 4h15q12 0 14 -16h20q-2 38 -34 38h-32q-34 0 -34 -35v-81q0 -35 34 -35h32q34 0 34 35zM1959 -79v1279
q0 59 -42.5 101.5t-101.5 42.5h-1280q-59 0 -101.5 -42.5t-42.5 -101.5v-1279q0 -59 42.5 -101.5t101.5 -42.5h1280q59 0 101.5 42.5t42.5 101.5zM1652 -395v151h-33v-151h33zM1591 -266v22h-100v-22h32v-129h36v129h32zM349 818v84q0 36 -36 36h-39q-36 0 -36 -34v-88
q0 -34 36 -34h39q36 0 36 36zM1466 -395v116q0 35 -32 35h-35q-33 0 -33 -34v-117h37v65h27v-65h36zM1334 -395v60l-5 13l-11 5q16 8 16 29q0 44 -33 44h-67v-151h36v65h13l10 -4l4 -11v-50h37zM349 584v120q0 36 -36 36h-38q-36 0 -36 -34v-122h40v67h30v-67h40zM1197 -395
v116q0 35 -33 35h-35q-32 0 -32 -34v-117h36v65h27v-65h37zM350 421q0 36 -24 43q24 8 24 33q0 45 -38 45h-35q-38 0 -38 -36q0 -35 24 -42q-24 -9 -24 -34q0 -45 38 -45h35q38 0 38 36zM1060 -362v118h-37v-116l-4 -10l-9 -4l-10 4l-4 10v35h-36v-37q0 -33 32 -33h36
q32 0 32 33zM349 224v84q0 36 -36 36h-39q-36 0 -36 -34v-88q0 -34 36 -34h39q36 0 36 36zM929 -360v116h-36v-116l-4 -10l-10 -4l-9 4l-4 10v116h-37v-118q0 -33 33 -33h35q32 0 32 35zM798 -360v51h-52v-21h16v-30q0 -13 -14 -14l-9 4l-5 10v80l5 10l10 4h15q12 0 14 -16
h20q-2 38 -34 38h-32q-34 0 -34 -35v-81q0 -35 34 -35h32q34 0 34 35zM2071 818l-4 -10l-11 -4l-10 4l-5 10v83l5 11l10 4l11 -4l4 -11v-83zM1430 1451h-27v29l4 10l9 4l10 -4l4 -10v-29zM1297 1465l-4 -10l-10 -4h-13v43h13l10 -4l4 -10v-15zM2071 673h-30v31l5 10l10 4
l10 -4l5 -10v-31zM1160 1451h-27v29l4 10l10 4l9 -4l4 -10v-29zM1529 507h-237l-4 -5q153 -197 153 -345q0 -105 -83 -160q-71 -47 -181 -47q-156 0 -281 106q-42 36 -42 53q0 6 1.5 18t1.5 18q121 -96 233 -96q101 0 162.5 60.5t61.5 160.5q0 112 -88 226l-308 -148
l-97 107q109 50 319 161q-5 6 -25 31q-152 187 -152 316q0 119 173 208l108 -108q-151 -92 -151 -212q0 -97 95 -218h341v-126zM309 818l-5 -10l-10 -4l-11 4l-4 10v83l4 11l11 4l10 -4l5 -11v-83zM1430 -309h-27v29l4 10l9 4l10 -4l4 -10v-29zM1297 -295l-4 -10l-10 -4h-13
v43h13l10 -4l4 -10v-15zM309 673h-30v31l5 10l10 4l10 -4l5 -10v-31zM1160 -309h-27v29l4 10l10 4l9 -4l4 -10v-29zM310 489l-5 -10l-11 -4l-10 4l-5 10v16l5 11l10 4l11 -4l5 -11v-16zM310 422l-5 -10l-11 -5l-10 5l-5 10v16q0 15 15 15q16 0 16 -15v-16zM309 225l-5 -11
l-10 -4l-11 4l-4 11v83l4 10l11 4l10 -4l5 -10v-83z" />
  </g>

</svg>
