<?xml version="1.0" standalone="no"?>
<!DOCTYPE svg PUBLIC "-//W3C//DTD SVG 1.1//EN" "http://www.w3.org/Graphics/SVG/1.1/DTD/svg11.dtd" >
<svg viewBox="0 -419 2155 2048">
  <g transform="matrix(1 0 0 -1 0 1638)">
   <path fill="currentColor"
d="M2155 -239q0 -74 -53 -127t-127 -53h-1599q-75 0 -127.5 52.5t-52.5 127.5v1599q0 75 52.5 127.5t127.5 52.5h1599q74 0 127 -53t53 -127v-1599zM2112 818v84q0 36 -36 36h-39q-36 0 -36 -34v-88q0 -34 36 -34h39q36 0 36 36zM1463 1365v116q0 35 -32 35h-36
q-32 0 -32 -34v-117h36v65h28v-65h36zM1329 1465v51h-37v-51l-4 -10l-9 -4l-10 4l-4 10v51h-36v-51q0 -30 31 -35v-65h37v65q32 5 32 35zM2112 620q0 36 -24 43q24 8 24 33q0 44 -38 44h-73v-156h73q38 0 38 36zM1192 1365v151h-33v-151h33zM2107 506v36h-101v-21h64v-14
q-32 -66 -32 -84v-35h37q0 52 32 118zM1122 1365v60l-5 13l-11 5q16 8 16 29q0 44 -32 44h-68v-151h36v65h14l10 -4l4 -11v-50h36zM987 1400v81q0 34 -33 34h-35q-32 0 -32 -33v-84q0 -33 32 -33h35q33 0 33 35zM2106 317v28h-102v-157h41v66h47v28h-47v35h61zM1959 -79
v1279q0 59 -42.5 101.5t-101.5 42.5h-1280q-59 0 -101.5 -42.5t-42.5 -101.5v-1279q0 -59 42.5 -101.5t101.5 -42.5h1280q59 0 101.5 42.5t42.5 101.5zM349 818v84q0 36 -36 36h-39q-36 0 -36 -34v-88q0 -34 36 -34h39q36 0 36 36zM1463 -395v116q0 35 -32 35h-36
q-32 0 -32 -34v-117h36v65h28v-65h36zM1329 -295v51h-37v-51l-4 -10l-9 -4l-10 4l-4 10v51h-36v-51q0 -30 31 -35v-65h37v65q32 5 32 35zM349 620q0 36 -23 43q23 8 23 33q0 44 -38 44h-73v-156h73q38 0 38 36zM1192 -395v151h-33v-151h33zM349 421v85q0 36 -36 36h-39
q-36 0 -36 -35v-87q0 -35 36 -35h39q36 0 36 36zM1122 -395v60l-5 13l-11 5q16 8 16 29q0 44 -32 44h-68v-151h36v65h14l10 -4l4 -11v-50h36zM987 -360v81q0 34 -33 34h-35q-32 0 -32 -33v-84q0 -33 32 -33h35q33 0 33 35zM349 224v84q0 36 -36 36h-39q-36 0 -36 -34v-88
q0 -34 36 -34h39q36 0 36 36zM2071 818l-4 -10l-11 -4l-10 4l-5 10v83l5 11l10 4l11 -4l4 -11v-83zM1427 1451h-28v29l5 10l9 4l10 -4l4 -10v-29zM2071 688l-4 -11l-11 -4h-15v45h15l11 -4l4 -10v-16zM2071 620l-4 -10l-11 -4h-15v45h15q15 0 15 -14v-17zM1086 1465l-4 -10
l-10 -4h-14v43h14l10 -4l4 -10v-15zM950 1400l-4 -10l-9 -4l-10 4l-4 10v80l4 10l10 4l9 -4l4 -10v-80zM1707 611q0 -20 -20 -155l-7 -3l-92 37v20q0 17 5.5 50t5.5 50q0 180 -128.5 306.5t-308.5 126.5q-152 0 -280 -99q-137 -106 -137 -255q0 -98 50 -171q93 76 163 76
q77 0 163 -65q60 62 158 62q66 0 122 -36q60 -38 80 -98q9 -27 10 -34v-450h-101l11 234q4 87 -16 166q-28 111 -95 111q-54 0 -86 -75q-25 -58 -25 -122v-139l11 -175h-101v111q-79 -37 -142 -37q-210 0 -210 299q0 7 3 20t3 20q0 -21 -5 -21q-11 0 -45 102
q-50 148 -50 194q0 213 150 352q147 135 361 135q230 0 391.5 -154t161.5 -383zM309 818l-5 -10l-10 -4l-11 4l-4 10v83l4 11l11 4l10 -4l5 -11v-83zM1427 -309h-28v29l5 10l9 4l10 -4l4 -10v-29zM309 688l-5 -11l-11 -4h-14v45h14l11 -4l5 -10v-16zM309 620l-5 -10l-11 -4
h-14v45h15q15 0 15 -14v-17zM1086 -295l-4 -10l-10 -4h-14v43h14l10 -4l4 -10v-15zM309 422l-5 -10l-10 -5l-11 5l-4 10v83l4 11l11 4l10 -4l5 -11v-83zM950 -360l-4 -10l-9 -4l-10 4l-4 10v80l4 10l10 4l9 -4l4 -10v-80zM309 225l-5 -11l-10 -4l-11 4l-4 11v83l4 10l11 4
l10 -4l5 -10v-83zM1074 328q0 159 -117 159q-52 0 -87 -57q-31 -49 -31 -105q0 -64 30 -114q35 -59 95 -59q110 0 110 176z" />
  </g>

</svg>
