<?xml version="1.0" standalone="no"?>
<!DOCTYPE svg PUBLIC "-//W3C//DTD SVG 1.1//EN" "http://www.w3.org/Graphics/SVG/1.1/DTD/svg11.dtd" >
<svg viewBox="0 -419 2155 2048">
  <g transform="matrix(1 0 0 -1 0 1638)">
   <path fill="currentColor"
d="M2155 -239q0 -74 -53 -127t-127 -53h-1599q-74 0 -127 53t-53 127v1599q0 74 53 127t127 53h1599q74 0 127 -53t53 -127v-1599zM1526 1400v116h-36v-116l-4 -10l-10 -4l-9 4l-4 10v116h-37v-118q0 -33 33 -33h35q32 0 32 35zM2112 818v84q0 36 -36 36h-39q-36 0 -36 -34
v-88q0 -34 36 -34h39q36 0 36 36zM1402 1400v51h-52v-21h16v-30q0 -13 -13 -14l-10 4l-4 10v80l4 10l10 4h15q12 0 14 -16h20q-2 38 -34 38h-32q-34 0 -34 -35v-81q0 -35 34 -35h32q34 0 34 35zM2106 622h-20q-2 -17 -14 -17h-16l-9 4l-5 11v82l5 10l9 4h16q12 0 14 -16h20
q-2 38 -34 38h-32q-34 0 -34 -36v-83q0 -36 34 -36h32q32 0 34 39zM1277 1400v116h-36v-116l-4 -10l-10 -4l-9 4l-4 10v116h-37v-118q0 -33 33 -33h35q32 0 32 35zM1150 1365v21h-48v130h-36v-151h84zM2107 506v36h-101v-21h64v-14q-32 -65 -32 -84v-35h37q0 52 32 118z
M1037 1365v21h-48v44h32v21h-32v43h48v22h-84v-151h84zM2106 317v28h-102v-157h41v66h47v28h-47v35h61zM924 1494v22h-100v-22h32v-129h36v129h32zM1959 -79v1279q0 59 -42.5 101.5t-101.5 42.5h-1280q-59 0 -101.5 -42.5t-42.5 -101.5v-1279q0 -59 42.5 -101.5t101.5 -42.5
h1280q59 0 101.5 42.5t42.5 101.5zM1526 -360v116h-36v-116l-4 -10l-10 -4l-9 4l-4 10v116h-37v-118q0 -33 33 -33h35q32 0 32 35zM349 818v84q0 36 -36 36h-39q-36 0 -36 -34v-88q0 -34 36 -34h39q36 0 36 36zM1402 -360v51h-52v-21h16v-30q0 -13 -13 -14l-10 4l-4 10v80
l4 10l10 4h15q12 0 14 -16h20q-2 38 -34 38h-32q-34 0 -34 -35v-81q0 -35 34 -35h32q34 0 34 35zM344 622h-20q-2 -17 -14 -17h-16l-9 4l-5 11v82l5 10l9 4h16q12 0 14 -16h20q-2 38 -34 38h-32q-34 0 -34 -36v-83q0 -36 34 -36h32q32 0 34 39zM1277 -360v116h-36v-116
l-4 -10l-10 -4l-9 4l-4 10v116h-37v-118q0 -33 33 -33h35q32 0 32 35zM1150 -395v21h-48v130h-36v-151h84zM349 421v85q0 36 -36 36h-39q-36 0 -36 -35v-87q0 -35 36 -35h39q36 0 36 36zM1037 -395v21h-48v44h32v21h-32v43h48v22h-84v-151h84zM349 224v84q0 36 -36 36h-39
q-36 0 -36 -34v-88q0 -34 36 -34h39q36 0 36 36zM924 -266v22h-100v-22h32v-129h36v129h32zM2071 818l-4 -10l-11 -4l-10 4l-5 10v83l5 11l10 4l11 -4l4 -11v-83zM1634 1138q-166 -211 -396 -291q-7 -2 -29 -11q99 -40 177 -76q108 -50 108 -139q0 -91 -116 -91
q-50 0 -194 108.5t-210 108.5q-45 0 -84.5 -41t-39.5 -87q0 -63 101 -110q180 -58 342 -118q215 -80 215 -240q0 -120 -109 -178q-86 -46 -217 -46q-105 0 -269 54q-197 65 -197 144q0 32 19 71q21 45 49 47q235 -118 412 -118q189 0 189 98q0 50 -162 108l-301 107
q-162 58 -162 164q0 141 140 204q-76 61 -94 81q-49 54 -49 109q0 107 119 107q60 0 153.5 -100t119.5 -100q71 0 150 75q9 9 122 140q65 76 103 76q45 0 110 -56zM309 818l-5 -10l-10 -4l-11 4l-4 10v83l4 11l11 4l10 -4l5 -11v-83zM309 422l-5 -10l-10 -5l-11 5l-4 10v83
l4 11l11 4l10 -4l5 -11v-83zM309 225l-5 -11l-10 -4l-11 4l-4 11v83l4 10l11 4l10 -4l5 -10v-83z" />
  </g>

</svg>
