<?xml version="1.0" standalone="no"?>
<!DOCTYPE svg PUBLIC "-//W3C//DTD SVG 1.1//EN" "http://www.w3.org/Graphics/SVG/1.1/DTD/svg11.dtd" >
<svg viewBox="0 -419 2155 2048">
  <g transform="matrix(1 0 0 -1 0 1638)">
   <path fill="currentColor"
d="M2155 -239q0 -74 -53 -127t-127 -53h-1599q-74 0 -127 53t-53 127v1599q0 74 53 127t127 53h1599q74 0 127 -53t53 -127v-1599zM1627 1365v116q0 35 -32 35h-36q-32 0 -32 -34v-117h36v65h28v-65h36zM2112 818v84q0 36 -36 36h-39q-36 0 -36 -34v-88q0 -34 36 -34h39
q36 0 36 36zM1501 1400v81q0 35 -32 35h-68v-151h68q32 0 32 35zM1375 1365v116q0 35 -33 35h-35q-32 0 -32 -34l-1 -117h37v65h27v-65h37zM2106 622h-20q-2 -17 -14 -17h-16l-9 4l-5 11v82l5 10l9 4h16q12 0 14 -16h20q-2 38 -34 38h-32q-34 0 -34 -36v-83q0 -36 34 -36h32
q32 0 34 39zM1247 1365v151h-21v-78l-85 78h-11v-151h21v78l85 -78h11zM2098 521v21h-84v-154h36v66h32v22h-32v45h48zM1105 1365v151h-21v-78l-85 78h-11v-151h21v78l85 -78h11zM960 1365v116q0 35 -33 35h-35q-33 0 -33 -34v-117h37v65h27v-65h37zM2106 317v28h-102v-157
h41v66h47v28h-47v35h61zM843 1365l-66 75l66 76h-35l-48 -56v56h-37v-151h37v53l44 -53h39zM1959 -79v1279q0 59 -42.5 101.5t-101.5 42.5h-1280q-59 0 -101.5 -42.5t-42.5 -101.5v-1279q0 -59 42.5 -101.5t101.5 -42.5h1280q59 0 101.5 42.5t42.5 101.5zM1627 -395v116
q0 35 -32 35h-36q-32 0 -32 -34v-117h36v65h28v-65h36zM349 818v84q0 36 -36 36h-39q-36 0 -36 -34v-88q0 -34 36 -34h39q36 0 36 36zM1501 -360v81q0 35 -32 35h-68v-151h68q32 0 32 35zM1375 -395v116q0 35 -33 35h-35q-32 0 -32 -34l-1 -117h37v65h27v-65h37zM344 622
h-20q-2 -17 -14 -17h-16l-9 4l-5 11v82l5 10l9 4h16q12 0 14 -16h20q-2 38 -34 38h-32q-34 0 -34 -36v-83q0 -36 34 -36h32q32 0 34 39zM1247 -395v151h-21v-78l-85 78h-11v-151h21v78l85 -78h11zM350 421q0 36 -24 43q24 8 24 33q0 45 -38 45h-35q-38 0 -38 -36
q0 -35 24 -42q-24 -9 -24 -34q0 -45 38 -45h35q38 0 38 36zM1105 -395v151h-21v-78l-85 78h-11v-151h21v78l85 -78h11zM960 -395v116q0 35 -33 35h-35q-33 0 -33 -34v-117h37v65h27v-65h37zM349 224v84q0 36 -36 36h-39q-36 0 -36 -34v-88q0 -34 36 -34h39q36 0 36 36z
M843 -395l-66 75l66 76h-35l-48 -56v56h-37v-151h37v53l44 -53h39zM1591 1451h-28v29l5 10l9 4l9 -4l5 -10v-29zM2071 818l-4 -10l-11 -4l-10 4l-5 10v83l5 11l10 4l11 -4l4 -11v-83zM1465 1400l-4 -10l-10 -4h-14v108h14l9 -4l5 -10v-80zM1338 1451h-27v29l4 10l10 4l9 -4
l4 -10v-29zM923 1451h-27v29l4 10l10 4l9 -4l4 -10v-29zM1557 949q0 -148 -101 -205q-76 -43 -235 -43q4 -59 4 -90q0 -41 -5 -84h323v-152h-98q8 -19 38 -117q-1 -5 -1 -22q-2 -138 -87 -231q-88 -97 -224 -97q-128 0 -222.5 90.5t-94.5 217.5q0 58 38 155l-5 4h-94v152
h316q45 57 46 174l-316 2v166h516q131 0 131 79q0 40 -41 72q-9 7 -74 46l57 147q58 -32 95 -115q34 -76 34 -149zM1591 -309h-28v29l5 10l9 4l9 -4l5 -10v-29zM309 818l-5 -10l-10 -4l-11 4l-4 10v83l4 11l11 4l10 -4l5 -11v-83zM1465 -360l-4 -10l-10 -4h-14v108h14l9 -4
l5 -10v-80zM1338 -309h-27v29l4 10l10 4l9 -4l4 -10v-29zM310 489l-5 -10l-11 -4l-10 4l-5 10v16l5 11l10 4l11 -4l5 -11v-16zM310 422l-5 -10l-11 -5l-10 5l-5 10v16q0 15 15 15q16 0 16 -15v-16zM923 -309h-27v29l4 10l10 4l9 -4l4 -10v-29zM309 225l-5 -11l-10 -4l-11 4
l-4 11v83l4 10l11 4l10 -4l5 -10v-83zM1417 220q0 155 -226 155q-269 0 -269 -157q0 -160 259 -160q92 0 156 35q80 43 80 127z" />
  </g>

</svg>
