<?xml version="1.0" standalone="no"?>
<!DOCTYPE svg PUBLIC "-//W3C//DTD SVG 1.1//EN" "http://www.w3.org/Graphics/SVG/1.1/DTD/svg11.dtd" >
<svg viewBox="0 -419 2155 2048">
  <g transform="matrix(1 0 0 -1 0 1638)">
   <path fill="currentColor"
d="M2155 -239q0 -74 -53 -127t-127 -53h-1599q-74 0 -127 53t-53 127v1599q0 74 53 127t127 53h1599q74 0 127 -53t53 -127v-1599zM1606 1365v116q0 35 -33 35h-35q-32 0 -32 -34l-1 -117h37v65h27v-65h37zM2112 818v84q0 36 -36 36h-39q-36 0 -36 -34v-88q0 -34 36 -34h39
q36 0 36 36zM1462 1365v21h-47v130h-37v-151h84zM1345 1365v116q0 35 -33 35h-35q-32 0 -32 -34l-1 -117h37v65h27v-65h37zM2112 620v84q0 36 -36 36h-75v-156h75q36 0 36 36zM1205 1365v151h-37v-65h-27v65h-37v-151h37v65h27v-65h37zM2098 521v21h-84v-154h36v66h32v22
h-32v45h48zM1063 1365v151h-21v-78l-86 78h-11v-151h21v78l86 -78h11zM902 1365v151h-34v-151h34zM2106 317v28h-102v-157h41v66h47v28h-47v35h61zM828 1400q0 20 -24 48.5t-24 31.5l4 11q4 2 11 4q11 0 13 -17h20q-2 38 -32 38h-19q-33 0 -33 -35q0 -20 23.5 -48.5
t23.5 -32.5q-1 -4 -3 -10l-10 -4l-9 3l-4 9v4h-21q0 -37 32 -37h19q33 0 33 35zM1959 -79v1279q0 59 -42.5 101.5t-101.5 42.5h-1280q-59 0 -101.5 -42.5t-42.5 -101.5v-1279q0 -59 42.5 -101.5t101.5 -42.5h1280q59 0 101.5 42.5t42.5 101.5zM1606 -395v116q0 35 -33 35
h-35q-32 0 -32 -34l-1 -117h37v65h27v-65h37zM349 818v84q0 36 -36 36h-39q-36 0 -36 -34v-88q0 -34 36 -34h39q36 0 36 36zM1462 -395v21h-47v130h-37v-151h84zM1345 -395v116q0 35 -33 35h-35q-32 0 -32 -34l-1 -117h37v65h27v-65h37zM349 620v84q0 36 -36 36h-75v-156h75
q36 0 36 36zM1205 -395v151h-37v-65h-27v65h-37v-151h37v65h27v-65h37zM350 421q0 36 -24 43q24 8 24 33q0 45 -38 45h-35q-38 0 -38 -36q0 -35 24 -42q-24 -9 -24 -34q0 -45 38 -45h35q38 0 38 36zM1063 -395v151h-21v-78l-86 78h-11v-151h21v78l86 -78h11zM902 -395v151
h-34v-151h34zM349 224v84q0 36 -36 36h-39q-36 0 -36 -34v-88q0 -34 36 -34h39q36 0 36 36zM828 -360q0 20 -24 48.5t-24 31.5l4 11q4 2 11 4q11 0 13 -17h20q-2 38 -32 38h-19q-33 0 -33 -35q0 -20 23.5 -48.5t23.5 -32.5l-3 -10l-10 -4l-9 3l-4 9v4h-21q0 -37 32 -37h19
q33 0 33 35zM1569 1451h-27v29l4 10l10 4l9 -4l4 -10v-29zM2071 818l-4 -10l-11 -4l-10 4l-5 10v83l5 11l10 4l11 -4l4 -11v-83zM1308 1451h-27v29l4 10l10 4l9 -4l4 -10v-29zM2071 620l-4 -10l-11 -4h-15v112h15l11 -4l4 -10v-84zM1762 551q0 -135 -60 -231
q-71 -114 -197 -114q-22 0 -56 11q-41 13 -44 30l21 20q33 -17 73 -17q51 0 83 41q30 38 30 90q0 111 -17 164q-26 83 -104.5 158.5t-161.5 94.5q-51 12 -106 12q-231 0 -332 -123h9q41 0 121.5 9.5t120.5 9.5q112 0 192 -65q85 -69 85 -179q0 -89 -55 -170
q-62 -91 -146 -91q-66 0 -109 66q-13 20 -67 117l-3 -2q-39 -92 -71 -127q-49 -54 -130 -54q-31 0 -96.5 69.5t-69.5 69.5q-33 0 -61 -76l-23 13q55 169 117 260q25 36 181 221q0 36 -25 69.5t-60 33.5q-41 0 -83.5 -75t-64.5 -75q-49 0 -49 73q0 51 56 90q51 37 104 37
q99 0 154 -141q221 150 484 150q168 0 264 -100t96 -269zM1569 -309h-27v29l4 10l10 4l9 -4l4 -10v-29zM309 818l-5 -10l-10 -4l-11 4l-4 10v83l4 11l11 4l10 -4l5 -11v-83zM1308 -309h-27v29l4 10l10 4l9 -4l4 -10v-29zM309 620l-5 -10l-11 -4h-14v112h14l11 -4l5 -10v-84z
M310 489l-5 -10l-11 -4l-10 4l-5 10v16l5 11l10 4l11 -4l5 -11v-16zM310 422l-5 -10l-11 -5l-10 5l-5 10v16q0 15 15 15q16 0 16 -15v-16zM309 225l-5 -11l-10 -4l-11 4l-4 11v83l4 10l11 4l10 -4l5 -10v-83zM1328 509q0 77 -80 121q-53 29 -119 29q-183 0 -275 -49
q-108 -57 -175 -216l176 -3q80 -1 120 39q16 16 69 108l5 6q27 -58 32 -66q20 -33 50 -53q44 -29 90 -29q107 0 107 113z" />
  </g>

</svg>
