<?xml version="1.0" standalone="no"?>
<!DOCTYPE svg PUBLIC "-//W3C//DTD SVG 1.1//EN" "http://www.w3.org/Graphics/SVG/1.1/DTD/svg11.dtd" >
<svg viewBox="0 -419 2155 2048">
  <g transform="matrix(1 0 0 -1 0 1638)">
   <path fill="currentColor"
d="M2155 -239q0 -74 -53 -127t-127 -53h-1599q-75 0 -127.5 52.5t-52.5 127.5v1599q0 75 52.5 127.5t127.5 52.5h1599q74 0 127 -53t53 -127v-1599zM2112 818v84q0 36 -36 36h-39q-36 0 -36 -34v-88q0 -34 36 -34h39q36 0 36 36zM1344 1400v81q0 34 -33 34h-35
q-33 0 -33 -33v-84q0 -33 33 -33h35q33 0 33 35zM2098 583v22h-47v45h31v21h-31v45h47v22h-84v-155h84zM1220 1365v116q0 35 -33 35h-35q-33 0 -33 -34v-117h37v65h27v-65h37zM2098 521v21h-84v-154h36v66h32v22h-32v45h48zM1090 1365v21h-47v130h-37v-151h84zM2106 317v28
h-102v-157h41v66h47v28h-47v35h61zM1959 -79v1279q0 59 -42.5 101.5t-101.5 42.5h-1280q-59 0 -101.5 -42.5t-42.5 -101.5v-1279q0 -59 42.5 -101.5t101.5 -42.5h1280q59 0 101.5 42.5t42.5 101.5zM349 818v84q0 36 -36 36h-39q-36 0 -36 -34v-88q0 -34 36 -34h39
q36 0 36 36zM1344 -360v81q0 34 -33 34h-35q-33 0 -33 -33v-84q0 -33 33 -33h35q33 0 33 35zM336 583v22h-48v45h32v21h-32v45h48v22h-84v-155h84zM1220 -395v116q0 35 -33 35h-35q-33 0 -33 -34v-117h37v65h27v-65h37zM350 421q0 36 -24 43q24 8 24 33q0 45 -38 45h-35
q-38 0 -38 -36q0 -35 24 -42q-24 -9 -24 -34q0 -45 38 -45h35q38 0 38 36zM1090 -395v21h-47v130h-37v-151h84zM349 224v84q0 36 -36 36h-39q-36 0 -36 -34v-88q0 -34 36 -34h39q36 0 36 36zM2071 818l-4 -10l-11 -4l-10 4l-5 10v83l5 11l10 4l11 -4l4 -11v-83zM1307 1400
l-4 -10l-10 -4l-9 4l-4 10v80l4 10l9 4l10 -4l4 -10v-80zM1183 1451h-27v29l4 10l10 4l9 -4l4 -10v-29zM1644 265q0 -285 -267 -285q-128 0 -175 119q-15 62 -58 223q-34 119 -161 119q-31 0 -65 -19q-40 -22 -40 -50q0 -3 2 -4q30 20 60 20q81 0 139 -60.5t58 -141.5
q0 -86 -71 -144q-66 -55 -154 -55q-92 0 -146 98q-45 81 -45 181q0 122 67 205q72 90 191 90q167 0 242 -119q31 -49 76 -220q31 -118 93 -118q141 0 140 161l-3 441q-1 196 -116 263q-82 48 -291 48q-8 0 -81 -15q-99 -20 -146 -96q-18 -29 -49 -129q-20 -64 -56 -64
q-29 0 -82 18q59 410 469 410q201 0 328 -97q141 -107 141 -302v-477zM309 818l-5 -10l-10 -4l-11 4l-4 10v83l4 11l11 4l10 -4l5 -11v-83zM1307 -360l-4 -10l-10 -4l-9 4l-4 10v80l4 10l9 4l10 -4l4 -10v-80zM1183 -309h-27v29l4 10l10 4l9 -4l4 -10v-29zM310 489l-5 -10
l-11 -4l-10 4l-5 10v16l5 11l10 4l11 -4l5 -11v-16zM310 422l-5 -10l-11 -5l-10 5l-5 10v16q0 15 15 15q16 0 16 -15v-16zM309 225l-5 -11l-10 -4l-11 4l-4 11v83l4 10l11 4l10 -4l5 -10v-83zM1010 202q0 49 -55 49q-23 0 -45 -24t-22 -47q0 -19 19 -32.5t39 -13.5
q26 0 45 21t19 47z" />
  </g>

</svg>
