<?xml version="1.0" standalone="no"?>
<!DOCTYPE svg PUBLIC "-//W3C//DTD SVG 1.1//EN" "http://www.w3.org/Graphics/SVG/1.1/DTD/svg11.dtd" >
<svg viewBox="0 -419 2155 2048">
  <g transform="matrix(1 0 0 -1 0 1638)">
   <path fill="currentColor"
d="M2155 -239q0 -75 -52.5 -127.5t-127.5 -52.5h-1599q-75 0 -127.5 52.5t-52.5 127.5v1599q0 75 52.5 127.5t127.5 52.5h1599q75 0 127.5 -52.5t52.5 -127.5v-1599zM2081 978v155h-18l-32 -18v-20h16v-117h34zM1639 1400q0 34 -21 41q21 8 21 32q0 43 -34 43h-66v-151h66
q34 0 34 35zM2112 818v84q0 36 -36 36h-39q-36 0 -36 -34v-88q0 -34 36 -34h39q36 0 36 36zM1397 1365v60l-5 13l-11 5q16 8 16 29q0 44 -33 44h-67v-151h36v65h13l10 -4l4 -11v-50h37zM2112 620v84q0 36 -36 36h-39q-36 0 -36 -34v-88q0 -34 36 -34h39q36 0 36 36z
M1262 1365v116q0 35 -33 35h-35q-32 0 -32 -34v-117h36v65h27v-65h37zM1125 1365v21h-48v44h32v21h-32v43h48v22h-84v-151h84zM2107 506v36h-101v-21h64v-14q-32 -66 -32 -84v-35h37q0 54 21 96zM1010 1365v151h-21v-78l-86 78h-11v-151h21v78l86 -78h11zM2098 326v21h-84
v-154h36v66h32v22h-32v45h48zM861 1365v151h-34v-151h34zM795 1365v21h-48v130h-36v-151h84zM1959 -79v1279q0 60 -42 102t-102 42h-1280q-60 0 -102 -42t-42 -102v-1279q0 -60 42 -102t102 -42h1280q60 0 102 42t42 102zM1726 -295v51h-37v-51l-4 -10l-10 -4l-9 4l-4 10v51
h-37v-51q0 -30 32 -35v-65h37v65q32 5 32 35zM319 978v155h-18l-32 -18v-20h15v-117h35zM1598 -395v60l-5 13l-11 5q16 8 16 29q0 44 -32 44h-68v-151h36v65h13l10 -4l5 -11v-50h36zM349 818v84q0 36 -36 36h-39q-36 0 -36 -34v-88q0 -34 36 -34h39q36 0 36 36zM1460 -390
v116q0 35 -32 35h-36q-32 0 -32 -34v-117h36v65h28v-65h36zM1331 -360q0 34 -21 41q21 8 21 32q0 43 -34 43h-67v-151h67q34 0 34 35zM349 620v84q0 36 -36 36h-39q-36 0 -36 -34v-88q0 -34 36 -34h39q36 0 36 36zM1200 -395v116q0 35 -33 35h-35q-33 0 -33 -34v-117h37v65
h27v-65h37zM349 421v85q0 36 -36 36h-39q-36 0 -36 -35v-87q0 -35 36 -35h39q36 0 36 36zM1071 -395v21h-47v130h-37v-151h84zM957 -395v21h-47v130h-37v-151h84zM349 224v84q0 36 -36 36h-39q-36 0 -36 -34v-88q0 -34 36 -34h39q36 0 36 36zM840 -295v51h-37v-51l-4 -10
l-9 -4l-10 4l-4 10v51h-36v-51q0 -30 31 -35v-65h37v65q32 5 32 35zM708 -360q0 28 -24 49l-9 8q-21 19 -11 34q6 4 11 4q11 0 13 -17h20q-2 38 -32 38h-19q-33 0 -33 -35q0 -25 24 -49l9 -9q14 -14 14 -25q0 -5 -2 -8q-6 -4 -11 -4q-2 0 -4 1l-5 2l-4 9v4h-21q0 -37 32 -37
h20q32 0 32 35zM1602 1465l-4 -10l-10 -4h-13v43h13l10 -4l4 -10v-15zM1602 1400l-4 -10l-10 -4h-13v44h14q13 0 13 -14v-16zM2071 818l-4 -10l-11 -4l-10 4l-5 10v83l5 11l10 4l11 -4l4 -11v-83zM1360 1465l-4 -10l-10 -4h-13v43h13l10 -4l4 -10v-15zM2071 620l-4 -10
l-11 -4l-10 4l-5 10v84l5 10l10 4l11 -4l4 -10v-84zM1225 1451h-27v29l4 10l10 4l9 -4l4 -10v-29zM1486 568q0 -38 -39 -38t-39 38v229h-194v-764q0 -39 -39 -39t-39 39v764h-194v-229q0 -38 -39 -38t-39 38v534q0 39 39 39t39 -39v-228h466v228q0 39 39 39t39 -39v-534z
M1562 -295l-5 -10l-10 -4h-13v43h13l10 -4l5 -10v-15zM309 818l-5 -10l-10 -4l-11 4l-4 10v83l4 11l11 4l10 -4l5 -11v-83zM1424 -304h-28v29l4 10l10 4l9 -4l5 -10v-29zM1294 -295l-4 -10l-10 -4h-13v43h13l10 -4l4 -10v-15zM309 620l-5 -10l-10 -4l-11 4l-4 10v84l4 10
l11 4l10 -4l5 -10v-84zM1294 -360l-4 -10l-10 -4h-13v44h14q13 0 13 -14v-16zM1163 -309h-27v29l4 10l10 4l9 -4l4 -10v-29zM309 422l-5 -10l-10 -5l-11 5l-4 10v83l4 11l11 4l10 -4l5 -11v-83zM309 225l-5 -11l-10 -4l-11 4l-4 11v83l4 10l11 4l10 -4l5 -10v-83z" />
  </g>

</svg>
