<?xml version="1.0" standalone="no"?>
<!DOCTYPE svg PUBLIC "-//W3C//DTD SVG 1.1//EN" "http://www.w3.org/Graphics/SVG/1.1/DTD/svg11.dtd" >
<svg viewBox="0 -419 2155 2048">
  <g transform="matrix(1 0 0 -1 0 1638)">
   <path fill="currentColor"
d="M2155 -239q0 -75 -52.5 -127.5t-127.5 -52.5h-1599q-75 0 -127.5 52.5t-52.5 127.5v1599q0 75 52.5 127.5t127.5 52.5h1599q75 0 127.5 -52.5t52.5 -127.5v-1599zM2081 978v155h-18l-32 -18v-20h16v-117h34zM1639 1400q0 34 -21 41q21 8 21 32q0 43 -34 43h-66v-151h66
q34 0 34 35zM2112 818v84q0 36 -36 36h-39q-36 0 -36 -34v-88q0 -34 36 -34h39q36 0 36 36zM1397 1365v60l-5 13l-11 5q16 8 16 29q0 44 -33 44h-67v-151h36v65h13l10 -4l4 -11v-50h37zM2112 620v84q0 36 -36 36h-39q-36 0 -36 -34v-88q0 -34 36 -34h39q36 0 36 36z
M1262 1365v116q0 35 -33 35h-35q-32 0 -32 -34v-117h36v65h27v-65h37zM1125 1365v21h-48v44h32v21h-32v43h48v22h-84v-151h84zM2098 521v21h-84v-154h36v66h32v22h-32v45h48zM1010 1365v151h-21v-78l-86 78h-11v-151h21v78l86 -78h11zM2098 326v21h-84v-154h36v66h32v22h-32
v45h48zM861 1365v151h-34v-151h34zM795 1365v21h-48v130h-36v-151h84zM1959 -79v1279q0 60 -42 102t-102 42h-1280q-60 0 -102 -42t-42 -102v-1279q0 -60 42 -102t102 -42h1280q60 0 102 42t42 102zM1766 -360q0 28 -24 49l-9 8q-21 19 -11 34q6 4 11 4q11 0 13 -17h20
q-2 38 -32 38h-20q-32 0 -32 -35q0 -25 24 -49l9 -9q13 -13 13 -24q0 -5 -2 -9q-5 -4 -10 -4q-2 0 -5 1l-4 2l-4 9v4h-21q0 -37 32 -37h19q33 0 33 35zM319 978v155h-18l-32 -18v-20h15v-117h35zM1645 -395v151h-36v-65h-28v65h-36v-151h36v65h28v-65h36zM349 818v84
q0 36 -36 36h-39q-36 0 -36 -34v-88q0 -34 36 -34h39q36 0 36 36zM1521 -297v18q0 35 -33 35h-67v-151h36v65h13q51 0 51 33zM1394 -395v116q0 35 -32 35h-35q-33 0 -33 -34v-117h37v65h27v-65h36zM349 620v84q0 36 -36 36h-39q-36 0 -36 -34v-88q0 -34 36 -34h39
q36 0 36 36zM1266 -395v60l-5 13l-11 5q16 8 16 29q0 44 -32 44h-68v-151h37v65h13l10 -4l4 -11v-50h36zM1137 -282q-2 38 -35 38h-32q-34 0 -34 -35v-81q0 -35 34 -35h32q34 0 34 35v51h-52v-21h16v-30q0 -13 -13 -14l-10 4l-4 10v80l4 10l10 4h15q12 0 14 -16h21zM350 421
q0 36 -24 43q24 8 24 33q0 45 -38 45h-35q-38 0 -38 -36q0 -35 24 -42q-24 -9 -24 -34q0 -45 38 -45h35q38 0 38 36zM1009 -360v81q0 34 -32 34h-35q-33 0 -33 -33v-84q0 -33 33 -33h35q32 0 32 35zM349 224v84q0 36 -36 36h-39q-36 0 -36 -34v-88q0 -34 36 -34h39
q36 0 36 36zM876 -395v21h-48v44h32v21h-32v43h48v22h-84v-151h84zM760 -360v81q0 35 -33 35h-67v-151h67q33 0 33 35zM618 -395v151h-34v-151h34zM1602 1465l-4 -10l-10 -4h-13v43h13l10 -4l4 -10v-15zM1602 1400l-4 -10l-10 -4h-13v44h14q13 0 13 -14v-16zM2071 818
l-4 -10l-11 -4l-10 4l-5 10v83l5 11l10 4l11 -4l4 -11v-83zM1360 1465l-4 -10l-10 -4h-13v43h13l10 -4l4 -10v-15zM2071 620l-4 -10l-11 -4l-10 4l-5 10v84l5 10l10 4l11 -4l4 -10v-84zM1225 1451h-27v29l4 10l10 4l9 -4l4 -10v-29zM1355 1094q0 -30 -33 -35h-54v-108
q0 -35 -35 -35q-36 0 -36 35v108h-58v-108q0 -35 -35 -35t-35 35v108q-45 0 -50 1q-28 6 -28 34q0 35 35 35h294q35 0 35 -35zM1554 620q0 -41 -40 -104q-42 -68 -80 -68q-35 0 -35 36q0 6 42.5 55t42.5 82t-42.5 87.5t-42.5 59.5q0 36 36 36t79 -75q40 -69 40 -109z
M1553 1097q0 -3 -63 -58q-66 -58 -82 -110q-29 -96 -65.5 -146.5t-117.5 -107.5q209 -305 325 -643q2 -6 2 -13q0 -34 -36 -34q-23 0 -32 24l-3 8q-15 39 -57 142q-108 255 -249 465q-143 -212 -249 -465l-60 -150q-10 -24 -32 -24q-36 0 -36 34q0 48 141 329
q136 271 182 330q-79 55 -115 106t-64 145q-15 50 -82 109q-60 53 -63 59q0 37 35 37q47 0 111 -73q59 -68 68 -119q13 -77 37 -108q15 -19 66.5 -53t68.5 -51q133 94 156 212q10 51 69 119q63 73 110 73q35 0 35 -37zM938 484q0 -36 -36 -36q-38 0 -80 67q-39 63 -39 105
q0 40 40 109q43 75 79 75t36 -36q0 -5 -42.5 -59.5t-42.5 -87.5t42.5 -82.5t42.5 -54.5zM1484 -295l-4 -10l-10 -4h-13v43h13l10 -4l4 -10v-15zM309 818l-5 -10l-10 -4l-11 4l-4 10v83l4 11l11 4l10 -4l5 -11v-83zM1358 -309h-27v29l4 10l9 4l10 -4l4 -10v-29zM309 620
l-5 -10l-10 -4l-11 4l-4 10v84l4 10l11 4l10 -4l5 -10v-84zM1230 -295l-4 -10l-10 -4h-13v43h13l10 -4l4 -10v-15zM310 489l-5 -10l-11 -4l-10 4l-5 10v16l5 11l10 4l11 -4l5 -11v-16zM310 422l-5 -10l-11 -5l-10 5l-5 10v16q0 15 15 15q16 0 16 -15v-16zM973 -360l-4 -10
l-10 -4l-9 4l-4 10v80l4 10l9 4l10 -4l4 -10v-80zM309 225l-5 -11l-10 -4l-11 4l-4 11v83l4 10l11 4l10 -4l5 -10v-83zM723 -360l-4 -10l-10 -4h-13v108h13l10 -4l4 -10v-80z" />
  </g>

</svg>
