<?xml version="1.0" standalone="no"?>
<!DOCTYPE svg PUBLIC "-//W3C//DTD SVG 1.1//EN" "http://www.w3.org/Graphics/SVG/1.1/DTD/svg11.dtd" >
<svg viewBox="0 -419 2155 2048">
  <g transform="matrix(1 0 0 -1 0 1638)">
   <path fill="currentColor"
d="M2155 -239q0 -74 -53 -127t-127 -53h-1599q-75 0 -127.5 52.5t-52.5 127.5v1599q0 75 52.5 127.5t127.5 52.5h1599q74 0 127 -53t53 -127v-1599zM2081 978v155h-18l-32 -18v-20h16v-117h34zM2112 818v84q0 36 -36 36h-39q-36 0 -36 -34v-88q0 -34 36 -34h39q36 0 36 36z
M1506 1365v151h-21v-78l-86 78h-11v-151h21v78l86 -78h11zM1363 1365v116q0 35 -32 35h-36q-32 0 -32 -34v-117h36v65h28v-65h36zM2081 583v155h-18l-32 -18v-20h16v-117h34zM1229 1365v21h-47v44h32v21h-32v43h47v22h-83v-151h83zM2107 422v35q0 34 -43 36l43 29v21h-101
v-22h59l-43 -29v-21l25 1q23 1 23 -15v-33l-4 -10l-10 -4h-15q-13 0 -14 16h-21q4 -38 33 -38h35q33 0 33 34zM1114 1400v51h-52v-21h16v-30q0 -13 -14 -14l-9 4l-5 10v80l5 10l9 4h16q12 0 14 -16h20q-2 38 -34 38h-32q-34 0 -34 -35v-81q0 -35 34 -35h32q34 0 34 35z
M992 1365v21h-47v44h31v21h-31v43h47v22h-115q-33 0 -33 -34v-117h37v65h27v-65h84zM2098 326v21h-84v-154h36v66h32v22h-32v45h48zM1959 -79v1279q0 59 -42.5 101.5t-101.5 42.5h-1280q-59 0 -101.5 -42.5t-42.5 -101.5v-1279q0 -59 42.5 -101.5t101.5 -42.5h1280
q59 0 101.5 42.5t42.5 101.5zM319 978v155h-18l-32 -18v-20h15v-117h35zM1657 -360q0 21 -24 49t-24 31l4 11q4 2 11 4q10 0 12 -17h21q-2 38 -32 38h-20q-32 0 -32 -35q0 -21 23.5 -49t23.5 -32l-3 -10l-10 -4l-9 3l-5 9l1 4h-21q0 -37 32 -37h19q33 0 33 35zM1537 -395v60
l-6 13l-11 5q17 8 17 29q0 44 -33 44h-68v-151h37v65h13l10 -4l4 -11v-50h37zM349 818v84q0 36 -36 36h-39q-36 0 -36 -34v-88q0 -34 36 -34h39q36 0 36 36zM1409 -395v21h-47v44h31v21h-31v43h47v22h-84v-151h84zM319 583v155h-18l-32 -18v-20h15v-117h35zM1295 -360
q0 34 -22 41q22 8 22 32q0 43 -35 43h-66v-151h66q35 0 35 35zM349 421v85q0 36 -36 36h-39q-36 0 -36 -35v-87q0 -35 36 -35h39q36 0 36 36zM1158 -395v151h-20l-68 -69l-69 69h-11v-151h21v86l55 -55l54 55v-86h38zM947 -360v116h-36v-116l-4 -10l-10 -4l-9 4l-4 10v116
h-37v-118q0 -33 33 -33h35q32 0 32 35zM349 224v84q0 36 -36 36h-39q-36 0 -36 -34v-88q0 -34 36 -34h39q36 0 36 36zM810 -395v151h-20v-78l-86 78h-11v-151h21v78l86 -78h10zM2071 818l-4 -10l-11 -4l-10 4l-5 10v83l5 11l10 4l11 -4l4 -11v-83zM1327 1451h-28v29l5 10
l9 4l9 -4l5 -10v-29zM908 1451h-27v29l4 10l10 4l9 -4l4 -10v-29zM1659 352q0 -37 -40 -37h-293q-40 0 -40 38q0 35 62 261l79 288h-207l-6 -9v-887q0 -39 -39 -39t-39 39l-6 896h-207l79 -288q62 -226 62 -262q0 -37 -40 -37h-293q-40 0 -40 38q0 58 56 265l77 284l-22 -1
q-54 -2 -54 39q0 39 39 39h261q-135 98 -135 110q0 38 41 38q35 -21 221 -148q207 141 221 148q41 0 41 -38q0 -16 -125 -110h251q39 0 39 -39t-76 -38l77 -284q56 -207 56 -266zM1500 -295l-4 -10l-10 -4h-13v43h13l10 -4l4 -10v-15zM309 818l-5 -10l-10 -4l-11 4l-4 10v83
l4 11l11 4l10 -4l5 -11v-83zM1258 -295l-4 -10l-10 -4h-13v43h13l10 -4l4 -10v-15zM1258 -360l-4 -10l-10 -4h-13v44h13q14 0 14 -14v-16zM309 422l-5 -10l-10 -5l-11 5l-4 10v83l4 11l11 4l10 -4l5 -11v-83zM309 225l-5 -11l-10 -4l-11 4l-4 11v83l4 10l11 4l10 -4l5 -10
v-83zM1571 393l-95 385l-101 -385h196zM975 393l-101 385l-95 -385h196z" />
  </g>

</svg>
