<?xml version="1.0" standalone="no"?>
<!DOCTYPE svg PUBLIC "-//W3C//DTD SVG 1.1//EN" "http://www.w3.org/Graphics/SVG/1.1/DTD/svg11.dtd" >
<svg viewBox="0 -419 2155 2048">
  <g transform="matrix(1 0 0 -1 0 1638)">
   <path fill="currentColor"
d="M2155 -239q0 -74 -53 -127t-127 -53h-1599q-75 0 -127.5 52.5t-52.5 127.5v1599q0 75 52.5 127.5t127.5 52.5h1599q74 0 127 -53t53 -127v-1599zM2081 978v154h-18l-32 -17v-21h16v-116h34zM1717 1365l-66 75l66 76h-34l-49 -56v56h-37v-151h37v53l45 -53h38zM1572 1365
v21h-47v44h31v21h-31v43h47v22h-84v-151h84zM2112 818v84q0 36 -36 36h-39q-36 0 -36 -34v-88q0 -34 36 -34h39q36 0 36 36zM1461 1365v21h-47v44h31v21h-31v43h47v22h-84v-151h84zM1349 1365v60l-6 13l-11 5q17 8 17 29q0 44 -33 44h-68v-151h37v65h13l10 -4l4 -11v-50h37z
M2081 583v155h-18l-32 -18v-20h16v-117h34zM1218 1478q-2 38 -35 38h-32q-34 0 -34 -35v-81q0 -35 34 -35h32q34 0 34 35v51h-52v-21h16v-30q0 -13 -13 -14l-10 4l-4 10v80l4 10l10 4h15q12 0 14 -16h21zM2111 421q0 36 -24 43q24 8 24 33q0 45 -38 45h-35q-38 0 -38 -36
q0 -35 24 -42q-24 -9 -24 -34q0 -45 38 -45h35q38 0 38 36zM1058 1365v34h-34v-34h34zM1002 1402h-21q-1 -16 -13 -16h-16l-10 4l-4 10v80l4 10l10 4h16q12 0 13 -16h21q-2 38 -34 38h-32q-35 0 -35 -35v-81q0 -35 35 -35h32q32 0 34 37zM2106 317v28h-102v-157h41v66h47v28
h-47v35h61zM875 1365v151h-20v-78l-86 78h-11v-151h21v78l86 -78h10zM733 1365v116q0 35 -33 35h-35q-32 0 -32 -34v-117h36v65h27v-65h37zM1959 -79v1279q0 59 -42.5 101.5t-101.5 42.5h-1280q-59 0 -101.5 -42.5t-42.5 -101.5v-1279q0 -59 42.5 -101.5t101.5 -42.5h1280
q59 0 101.5 42.5t42.5 101.5zM319 978v154h-18l-32 -17v-21h15v-116h35zM1657 -360q0 21 -24 49t-24 31l4 11q4 2 11 4q10 0 12 -17h21q-2 38 -32 38h-20q-32 0 -32 -35q0 -21 23.5 -49t23.5 -32l-3 -10l-10 -4l-9 3l-5 9l1 4h-21q0 -37 32 -37h19q33 0 33 35zM1537 -395v60
l-6 13l-11 5q17 8 17 29q0 44 -33 44h-68v-151h37v65h13l10 -4l4 -11v-50h37zM349 818v84q0 36 -36 36h-39q-36 0 -36 -34v-88q0 -34 36 -34h39q36 0 36 36zM1409 -395v21h-47v44h31v21h-31v43h47v22h-84v-151h84zM319 583v155h-18l-32 -18v-20h15v-117h35zM1295 -360
q0 34 -22 41q22 8 22 32q0 43 -35 43h-66v-151h66q35 0 35 35zM353 436v22h-17v84h-38l-68 -86v-20h67v-50h39v50h17zM1158 -395v151h-20l-68 -69l-69 69h-11v-151h21v86l55 -55l54 55v-86h38zM947 -360v116h-36v-116l-4 -10l-10 -4l-9 4l-4 10v116h-37v-118q0 -33 33 -33
h35q32 0 32 35zM349 224v84q0 36 -36 36h-39q-36 0 -36 -34v-88q0 -34 36 -34h39q36 0 36 36zM810 -395v151h-20v-78l-86 78h-11v-151h21v78l86 -78h10zM2071 818l-4 -10l-11 -4l-10 4l-5 10v83l5 11l10 4l11 -4l4 -11v-83zM1312 1465l-4 -10l-10 -4h-13v43h13l10 -4l4 -10
v-15zM2071 489l-5 -10l-11 -4l-10 4l-5 10v16l5 11l10 4l11 -4l5 -11v-16zM2071 422l-5 -10l-11 -5l-10 5l-5 10v16q0 15 15 15q16 0 16 -15v-16zM696 1451h-27v29l4 10l10 4l9 -4l4 -10v-29zM1422 447h-408l171 434h66zM1564 881h-146v127h-486v-1028h-146v1158h778v-257z
M1500 -295l-4 -10l-10 -4h-13v43h13l10 -4l4 -10v-15zM309 818l-5 -10l-10 -4l-11 4l-4 10v83l4 11l11 4l10 -4l5 -11v-83zM1258 -295l-4 -10l-10 -4h-13v43h13l10 -4l4 -10v-15zM1258 -360l-4 -10l-10 -4h-13v44h13q14 0 14 -14v-16zM297 458h-42l42 53v-53zM309 225
l-5 -11l-10 -4l-11 4l-4 11v83l4 10l11 4l10 -4l5 -10v-83zM1349 496l-131 332l-130 -332h261z" />
  </g>

</svg>
