<?xml version="1.0" standalone="no"?>
<!DOCTYPE svg PUBLIC "-//W3C//DTD SVG 1.1//EN" "http://www.w3.org/Graphics/SVG/1.1/DTD/svg11.dtd" >
<svg viewBox="0 -419 2155 2048">
  <g transform="matrix(1 0 0 -1 0 1638)">
   <path fill="currentColor"
d="M2155 -239q0 -75 -52.5 -127.5t-127.5 -52.5h-1599q-75 0 -127.5 52.5t-52.5 127.5v1599q0 75 52.5 127.5t127.5 52.5h1599q75 0 127.5 -52.5t52.5 -127.5v-1599zM2081 978v154h-18l-32 -17v-21h16v-116h34zM2112 818v84q0 36 -36 36h-39q-36 0 -36 -34v-88q0 -34 36 -34
h39q36 0 36 36zM1513 1402h-21q-2 -16 -14 -16h-15l-10 4l-4 10v80l4 10l10 4h15q12 0 14 -16h21q-2 37 -35 37h-32q-34 0 -34 -35v-81q0 -34 34 -34h32q32 0 35 37zM1383 1365v150h-34v-150h34zM2107 617v35q0 33 -43 35l43 30v20h-101v-21h59l-43 -30v-20l25 1
q23 1 23 -15v-33l-4 -10l-10 -5h-15q-13 0 -14 17h-21q4 -38 33 -38h35q33 0 33 34zM1315 1365v151h-37v-65h-27v65h-37v-151h37v65h27v-65h37zM1184 1494v22h-101v-22h32v-129h37v129h32zM2120 436v22h-17v84h-39l-71 -86v-20h70v-51h40v51h17zM1064 1400v81q0 34 -33 34
h-35q-33 0 -33 -33v-84q0 -33 33 -33h35q33 0 33 35zM938 1400v51h-53v-21h16v-30q0 -13 -13 -14l-10 4l-4 10v80l4 10l10 4h16q12 0 13 -16h21q-2 38 -34 38h-32q-35 0 -35 -35v-81q0 -35 35 -35h32q34 0 34 35zM2106 317v28h-102v-157h41v66h47v28h-47v35h61zM1959 -79
v1279q0 60 -42 102t-102 42h-1280q-60 0 -102 -42t-42 -102v-1279q0 -60 42 -102t102 -42h1280q60 0 102 42t42 102zM319 978v154h-18l-32 -17v-21h15v-116h35zM349 818v84q0 36 -36 36h-39q-36 0 -36 -34v-88q0 -34 36 -34h39q36 0 36 36zM1513 -358h-21q-2 -16 -14 -16
h-15l-10 4l-4 10v80l4 10l10 4h15q12 0 14 -16h21q-2 37 -35 37h-32q-34 0 -34 -35v-81q0 -34 34 -34h32q32 0 35 37zM1383 -395v150h-34v-150h34zM344 617v35q0 33 -43 35l43 30v20h-101v-21h59l-43 -30v-20l25 1q23 1 23 -15v-33l-4 -10l-10 -5h-15q-13 0 -14 17h-21
q4 -38 33 -38h35q33 0 33 34zM1315 -395v151h-37v-65h-27v65h-37v-151h37v65h27v-65h37zM1184 -266v22h-101v-22h32v-129h37v129h32zM344 422v35q0 34 -43 36l43 29v21h-101v-22h59l-43 -29v-21l25 1q23 1 23 -15v-33l-4 -10l-10 -4h-15q-13 0 -14 16h-21q4 -38 33 -38h35
q33 0 33 34zM1064 -360v81q0 34 -33 34h-35q-33 0 -33 -33v-84q0 -33 33 -33h35q33 0 33 35zM938 -360v51h-53v-21h16v-30q0 -13 -13 -14l-10 4l-4 10v80l4 10l10 4h16q12 0 13 -16h21q-2 38 -34 38h-32q-35 0 -35 -35v-81q0 -35 35 -35h32q34 0 34 35zM349 224v84
q0 36 -36 36h-39q-36 0 -36 -34v-88q0 -34 36 -34h39q36 0 36 36zM2071 818l-4 -10l-11 -4l-10 4l-5 10v83l5 11l10 4l11 -4l4 -11v-83zM2063 458h-45l45 53v-53zM1027 1400l-4 -10l-9 -4l-10 4l-4 10v80l4 10l10 4l9 -4l4 -10v-80zM1631 244h-490v67h217l-415 801h-196v67
h400zM1018 801q0 41 -39.5 -50.5t-39.5 -113.5v-519l-221 -264v648q0 142 65 226q72 93 210 93q25 0 25 -20zM309 818l-5 -10l-10 -4l-11 4l-4 10v83l4 11l11 4l10 -4l5 -11v-83zM1027 -360l-4 -10l-9 -4l-10 4l-4 10v80l4 10l10 4l9 -4l4 -10v-80zM309 225l-5 -11l-10 -4
l-11 4l-4 11v83l4 10l11 4l10 -4l5 -10v-83z" />
  </g>

</svg>
