<?xml version="1.0" standalone="no"?>
<!DOCTYPE svg PUBLIC "-//W3C//DTD SVG 1.1//EN" "http://www.w3.org/Graphics/SVG/1.1/DTD/svg11.dtd" >
<svg viewBox="0 -419 2154 2048">
  <g transform="matrix(1 0 0 -1 0 1638)">
   <path fill="currentColor"
d="M2154 -239q0 -74 -53 -127t-127 -53h-1598q-74 0 -127 53t-53 127v1599q0 74 53 127t127 53h1598q74 0 127 -53t53 -127v-1599zM1709 1365v60l-5 13l-11 5q16 8 16 29q0 44 -32 44h-68v-151h37v65h13l10 -4l4 -11v-50h36zM1576 1365v116q0 35 -32 35h-35q-33 0 -33 -34
v-117h37v65h27v-65h36zM2081 778v155h-18l-32 -18v-21h16v-116h34zM1439 1365v151h-19l-69 -69l-68 69h-11v-151h21v86l54 -55l55 55v-86h37zM2112 620v84q0 36 -36 36h-39q-36 0 -36 -34v-88q0 -34 36 -34h39q36 0 36 36zM1234 1365v151h-21v-78l-85 78h-11v-151h21v78
l86 -78h10zM2112 445v61q0 36 -38 36h-35q-38 0 -38 -36v-34q0 -36 38 -36h17q10 0 15 7v-4q0 -31 -52 -31v-22h31q24 0 43 17.5t19 41.5zM1076 1365v116q0 35 -33 35h-35q-33 0 -33 -34v-117h37v65h27v-65h37zM947 1465v51h-37v-51l-4 -10l-10 -4l-9 4l-4 10v51h-37v-51
q0 -30 32 -35v-65h37v65q32 5 32 35zM2106 317v28h-102v-157h41v66h47v28h-47v35h61zM808 1365v151h-20l-68 -69l-69 69h-10v-151h21v86l54 -55l54 55v-86h38zM1959 -79v1279q0 59 -42.5 101.5t-101.5 42.5h-1280q-59 0 -101.5 -42.5t-42.5 -101.5v-1279q0 -59 42.5 -101.5
t101.5 -42.5h1280q59 0 101.5 42.5t42.5 101.5zM1709 -395v60l-5 13l-11 5q16 8 16 29q0 44 -32 44h-68v-151h37v65h13l10 -4l4 -11v-50h36zM1576 -395v116q0 35 -32 35h-35q-33 0 -33 -34v-117h37v65h27v-65h36zM319 778v155h-18l-32 -18v-21h15v-116h35zM1439 -395v151
h-19l-69 -69l-68 69h-11v-151h21v86l54 -55l55 55v-86h37zM349 620v84q0 36 -36 36h-39q-36 0 -36 -34v-88q0 -34 36 -34h39q36 0 36 36zM1234 -395v151h-21v-78l-85 78h-11v-151h21v78l86 -78h10zM349 421v85q0 36 -36 36h-39q-36 0 -36 -35v-87q0 -35 36 -35h39
q36 0 36 36zM1076 -395v116q0 35 -33 35h-35q-33 0 -33 -34v-117h37v65h27v-65h37zM947 -295v51h-37v-51l-4 -10l-10 -4l-9 4l-4 10v51h-37v-51q0 -30 32 -35v-65h37v65q32 5 32 35zM349 224v84q0 36 -36 36h-39q-36 0 -36 -34v-88q0 -34 36 -34h39q36 0 36 36zM808 -395
v151h-20l-68 -69l-69 69h-10v-151h21v86l54 -55l54 55v-86h38zM1673 1465l-4 -10l-10 -4h-13v43h13l10 -4l4 -10v-15zM1540 1451h-27v29l4 10l9 4l10 -4l4 -10v-29zM2071 620l-4 -10l-11 -4l-10 4l-5 10v84l5 10l10 4l11 -4l4 -10v-84zM2071 473l-4 -10l-11 -5l-10 5l-5 10
v33l5 10l10 4l11 -4l4 -10v-33zM1039 1451h-27v29l4 10l10 4l9 -4l4 -10v-29zM1876 566q0 -123 -85 -235q-86 -115 -204 -142q-52 -12 -127 -12q-17 0 -56 27t-39 43q0 54 57 54q14 0 42 -4t42 -4q95 0 177 91q79 88 79 184q0 107 -80 186t-187 79q-117 0 -189 -88
q-63 -76 -79 -199q-10 -77 -20 -122q-28 -127 -111 -201q-55 -49 -94 -49q-6 0 -33 6q-16 34 -16 53q6 10 42 48q122 129 122 279q0 110 -77.5 190t-187.5 80q-99 0 -180 -75q-84 -76 -84 -174v-99q0 -64 83 -156.5t83 -94.5q0 -54 -72 -54q-20 0 -67 31q-141 92 -141 350
q0 154 116 267.5t270 113.5q191 0 312 -178q117 114 147 134q78 52 192 52q144 0 256 -119q109 -117 109 -262zM1673 -295l-4 -10l-10 -4h-13v43h13l10 -4l4 -10v-15zM1540 -309h-27v29l4 10l9 4l10 -4l4 -10v-29zM309 620l-5 -10l-10 -4l-11 4l-4 10v84l4 10l11 4l10 -4
l5 -10v-84zM309 422l-5 -10l-10 -5l-11 5l-4 10v83l4 11l11 4l10 -4l5 -11v-83zM1039 -309h-27v29l4 10l10 4l9 -4l4 -10v-29zM309 225l-5 -11l-10 -4l-11 4l-4 11v83l4 10l11 4l10 -4l5 -10v-83z" />
  </g>

</svg>
