<?xml version="1.0" standalone="no"?>
<!DOCTYPE svg PUBLIC "-//W3C//DTD SVG 1.1//EN" "http://www.w3.org/Graphics/SVG/1.1/DTD/svg11.dtd" >
<svg viewBox="0 -419 2155 2048">
  <g transform="matrix(1 0 0 -1 0 1638)">
   <path fill="currentColor"
d="M2155 -239q0 -75 -52.5 -127.5t-127.5 -52.5h-1599q-75 0 -127.5 52.5t-52.5 127.5v1599q0 75 52.5 127.5t127.5 52.5h1599q75 0 127.5 -52.5t52.5 -127.5v-1599zM2081 978v155h-18l-32 -18v-20h16v-117h34zM1579 1495v21h-100v-21h32v-130h37v130h31zM2112 818v84
q0 36 -36 36h-39q-36 0 -36 -34v-88q0 -34 36 -34h39q36 0 36 36zM1457 1400v81q0 34 -33 34h-35q-32 0 -32 -33v-84q0 -33 32 -33h35q33 0 33 35zM1325 1365v150h-33v-150h33zM2111 620q0 35 -24 42q24 9 24 34q0 44 -38 44h-35q-38 0 -38 -36q0 -34 24 -42q-24 -8 -24 -34
q0 -44 38 -44h35q38 0 38 36zM1259 1365v60l-5 13l-11 5q16 8 16 29q0 44 -33 44h-67v-151h36v65h13l10 -4l4 -11v-50h37zM2107 422v35q0 34 -43 36l43 29v21h-101v-22h59l-43 -29v-21l25 1q23 1 23 -15v-33l-4 -10l-10 -4h-15q-13 0 -14 16h-21q4 -38 33 -38h35q33 0 33 34
zM1130 1463v18q0 35 -32 35h-68v-151h37v65h12q51 0 51 33zM999 1464v51h-37v-50l-4 -10l-9 -4l-10 4l-4 10v50h-36v-51q0 -29 32 -34v-65h36v65q32 5 32 34zM2098 326v21h-84v-154h36v66h32v22h-32v45h48zM871 1402h-21q-1 -16 -13 -16h-16l-10 4l-4 10v80l4 10l10 4h16
q12 0 13 -16h21q-2 37 -34 37h-32q-34 0 -34 -34v-81q0 -35 34 -35h32q32 0 34 37zM1959 -79v1279q0 60 -42 102t-102 42h-1280q-60 0 -102 -42t-42 -102v-1279q0 -60 42 -102t102 -42h1280q60 0 102 42t42 102zM1726 -295v51h-37v-51l-4 -10l-10 -4l-9 4l-4 10v51h-37v-51
q0 -30 32 -35v-65h37v65q32 5 32 35zM319 978v155h-18l-32 -18v-20h15v-117h35zM1598 -395v60l-5 13l-11 5q16 8 16 29q0 44 -32 44h-68v-151h36v65h13l10 -4l5 -11v-50h36zM349 818v84q0 36 -36 36h-39q-36 0 -36 -34v-88q0 -34 36 -34h39q36 0 36 36zM1460 -390v116
q0 35 -32 35h-36q-32 0 -32 -34v-117h36v65h28v-65h36zM1331 -360q0 34 -21 41q21 8 21 32q0 43 -34 43h-67v-151h67q34 0 34 35zM350 620q0 35 -24 42q24 9 24 34q0 44 -38 44h-35q-38 0 -38 -36q0 -34 24 -42q-24 -8 -24 -34q0 -44 38 -44h35q38 0 38 36zM1200 -395v116
q0 35 -33 35h-35q-33 0 -33 -34v-117h37v65h27v-65h37zM349 421v85q0 36 -36 36h-39q-36 0 -36 -35v-87q0 -35 36 -35h39q36 0 36 36zM1071 -395v21h-47v130h-37v-151h84zM957 -395v21h-47v130h-37v-151h84zM349 224v84q0 36 -36 36h-39q-36 0 -36 -34v-88q0 -34 36 -34h39
q36 0 36 36zM840 -295v51h-37v-51l-4 -10l-9 -4l-10 4l-4 10v51h-36v-51q0 -30 31 -35v-65h37v65q32 5 32 35zM708 -360q0 28 -24 49l-9 8q-21 19 -11 34q6 4 11 4q11 0 13 -17h20q-2 38 -32 38h-19q-33 0 -33 -35q0 -25 24 -49l9 -9q14 -14 14 -25q0 -5 -2 -8q-6 -4 -11 -4
q-2 0 -4 1l-5 2l-4 9v4h-21q0 -37 32 -37h20q32 0 32 35zM2071 818l-4 -10l-11 -4l-10 4l-5 10v83l5 11l10 4l11 -4l4 -11v-83zM1420 1400l-4 -10l-9 -4l-10 4l-4 10v80l4 10l10 4l9 -4l4 -10v-80zM2071 688l-5 -11l-11 -4l-10 4l-5 11v16l5 10l10 4l11 -4l5 -10v-16z
M2071 620l-5 -10l-11 -4l-10 4l-5 10v17q0 14 15 14q16 0 16 -14v-17zM1222 1465l-4 -10l-10 -4h-13v43h13l10 -4l4 -10v-15zM1094 1465l-4 -10l-10 -4h-13v43h13l10 -4l4 -10v-15zM1602 273q0 -37 -35 -37q-12 0 -23 9l-343 293v-346q0 -35 -35 -35t-35 35v345l-324 -291
q-11 -10 -23 -10q-36 0 -36 37q0 14 12 25l351 316l-350 298q-13 11 -13 27q0 36 35 36q12 0 23 -9l325 -277v352q0 35 35 35t35 -35v-347l342 307q11 10 24 10q35 0 35 -36q0 -15 -12 -26l-372 -334l371 -316q13 -11 13 -26zM1562 -295l-5 -10l-10 -4h-13v43h13l10 -4
l5 -10v-15zM309 818l-5 -10l-10 -4l-11 4l-4 10v83l4 11l11 4l10 -4l5 -11v-83zM1424 -304h-28v29l4 10l10 4l9 -4l5 -10v-29zM1294 -295l-4 -10l-10 -4h-13v43h13l10 -4l4 -10v-15zM310 688l-5 -11l-11 -4l-10 4l-5 11v16l5 10l10 4l11 -4l5 -10v-16zM1294 -360l-4 -10
l-10 -4h-13v44h14q13 0 13 -14v-16zM310 620l-5 -10l-11 -4l-10 4l-5 10v17q0 14 15 14q16 0 16 -14v-17zM1163 -309h-27v29l4 10l10 4l9 -4l4 -10v-29zM309 422l-5 -10l-10 -5l-11 5l-4 10v83l4 11l11 4l10 -4l5 -11v-83zM309 225l-5 -11l-10 -4l-11 4l-4 11v83l4 10l11 4
l10 -4l5 -10v-83z" />
  </g>

</svg>
