<?xml version="1.0" standalone="no"?>
<!DOCTYPE svg PUBLIC "-//W3C//DTD SVG 1.1//EN" "http://www.w3.org/Graphics/SVG/1.1/DTD/svg11.dtd" >
<svg viewBox="0 -419 2155 2048">
  <g transform="matrix(1 0 0 -1 0 1638)">
   <path fill="currentColor"
d="M2155 -239q0 -75 -52.5 -127.5t-127.5 -52.5h-1599q-75 0 -127.5 52.5t-52.5 127.5v1599q0 75 52.5 127.5t127.5 52.5h1599q75 0 127.5 -52.5t52.5 -127.5v-1599zM2081 978v154h-18l-32 -17v-21h16v-116h34zM1719 1365v151h-20v-78l-86 78h-11v-151h21v78l86 -78h10z
M1563 1365v116q0 35 -33 35h-35q-33 0 -33 -34v-117h37v65h27v-65h37zM2112 818v84q0 36 -36 36h-39q-36 0 -36 -34v-88q0 -34 36 -34h39q36 0 36 36zM1432 1365v151h-34v-151h34zM1371 1402h-21q-2 -16 -14 -16h-15l-10 4l-4 10v80l4 10l10 4h15q12 0 14 -16h21
q-2 38 -35 38h-32q-34 0 -34 -35v-81q0 -35 34 -35h32q32 0 35 37zM2112 643v61q0 36 -38 36h-35q-38 0 -38 -36v-34q0 -36 38 -36h17q10 0 15 6v-4q0 -31 -52 -31v-22h31q24 0 43 18t19 42zM1243 1365v151h-33v-151h33zM1176 1365v151h-21v-78l-86 78h-11v-151h21v78
l86 -78h11zM2081 388v154h-18l-32 -17v-21h16v-116h34zM1030 1365v21h-47v44h32v21h-32v43h47v22h-115q-32 0 -32 -34v-84q0 -33 32 -33h115zM2098 326v21h-84v-154h36v66h32v22h-32v45h48zM855 1365v151h-36v-65h-28v65h-36v-151h36v65h28v-65h36zM731 1463v18q0 35 -33 35
h-67v-151h36v65h13q51 0 51 33zM1959 -79v1279q0 59 -42.5 101.5t-101.5 42.5h-1280q-59 0 -101.5 -42.5t-42.5 -101.5v-1279q0 -59 42.5 -101.5t101.5 -42.5h1280q59 0 101.5 42.5t42.5 101.5zM319 978v154h-18l-32 -17v-21h15v-116h35zM1719 -395v151h-20v-78l-86 78h-11
v-151h21v78l86 -78h10zM1563 -395v116q0 35 -33 35h-35q-33 0 -33 -34v-117h37v65h27v-65h37zM349 818v84q0 36 -36 36h-39q-36 0 -36 -34v-88q0 -34 36 -34h39q36 0 36 36zM1432 -395v151h-34v-151h34zM1371 -358h-21q-2 -16 -14 -16h-15l-10 4l-4 10v80l4 10l10 4h15
q12 0 14 -16h21q-2 38 -35 38h-32q-34 0 -34 -35v-81q0 -35 34 -35h32q32 0 35 37zM349 643v61q0 36 -38 36h-35q-38 0 -38 -36v-34q0 -36 38 -36h18q9 0 14 6v-4q0 -31 -52 -31v-22h31q24 0 43 18t19 42zM1243 -395v151h-33v-151h33zM1176 -395v151h-21v-78l-86 78h-11
v-151h21v78l86 -78h11zM349 421v85q0 36 -36 36h-39q-36 0 -36 -35v-87q0 -35 36 -35h39q36 0 36 36zM1030 -395v21h-47v44h32v21h-32v43h47v22l-115 -1q-32 0 -32 -33v-84q0 -33 32 -33h115zM349 224v84q0 36 -36 36h-39q-36 0 -36 -34v-88q0 -34 36 -34h39q36 0 36 36z
M855 -395v151h-36v-65h-28v65h-36v-151h36v65h28v-65h36zM731 -297v18q0 35 -33 35h-67v-151h36v65h13q51 0 51 33zM1526 1451h-27v29l4 10l9 4l10 -4l4 -10v-29zM2071 818l-4 -10l-11 -4l-10 4l-5 10v83l5 11l10 4l11 -4l4 -11v-83zM2071 670l-4 -10l-11 -4l-10 4l-5 10v33
l5 10l10 5l11 -5l4 -10v-33zM947 1400l-5 -10l-9 -4l-10 4l-4 10v80l5 10l9 4l9 -4l5 -10v-80zM694 1465l-4 -10l-10 -4h-13v43h13l10 -4l4 -10v-15zM1789 1033q0 -29 -45 -64q-79 -38 -139 -73q-40 -23 -140 -102q-117 -92 -137 -106q-32 -22 -115 -79q-86 -61 -86 -93
q0 -31 49 -103q63 -93 69 -104q71 -145 71 -209q0 -111 -63 -111q-65 0 -82 68q-4 15 -26 117q-66 176 -136 276q-26 -9 -209 -102q-148 -75 -200 -75q-41 0 -41 29q0 38 161 218.5t161 203.5q0 -4 -63 97.5t-63 158.5q0 82 47 82q33 0 89.5 -123t77.5 -123q1 0 133 126
t183 126q69 0 69 -38q0 -11 -167 -151.5t-167 -163.5q0 -18 21.5 -50t38.5 -32q36 0 158 114q182 170 238 213q147 114 241 114q72 0 72 -41zM1526 -309h-27v29l4 10l9 4l10 -4l4 -10v-29zM309 818l-5 -10l-10 -4l-11 4l-4 10v83l4 11l11 4l10 -4l5 -11v-83zM309 670l-5 -10
l-10 -4l-11 4l-4 10v33l4 10l11 5l10 -5l5 -10v-33zM309 422l-5 -10l-10 -5l-11 5l-4 10v83l4 11l11 4l10 -4l5 -11v-83zM947 -360l-5 -10l-9 -4l-10 4l-4 10v80l5 10l9 4l9 -4l5 -10v-80zM309 225l-5 -11l-10 -4l-11 4l-4 11v83l4 10l11 4l10 -4l5 -10v-83zM694 -295
l-4 -10l-10 -4h-13v43h13l10 -4l4 -10v-15zM962 533v25q0 11 -13 43h-28q-40 -34 -122 -143q16 -8 22 -8q17 0 141 83z" />
  </g>

</svg>
