<?xml version="1.0" standalone="no"?>
<!DOCTYPE svg PUBLIC "-//W3C//DTD SVG 1.1//EN" "http://www.w3.org/Graphics/SVG/1.1/DTD/svg11.dtd" >
<svg viewBox="0 -419 2154 2048">
  <g transform="matrix(1 0 0 -1 0 1638)">
   <path fill="currentColor"
d="M2154 -239q0 -74 -53 -127t-127 -53h-1598q-74 0 -127 53t-53 127v1599q0 74 53 127t127 53h1598q74 0 127 -53t53 -127v-1599zM1666 1365v151h-21v-78l-86 78h-11v-151h21v78l86 -78h11zM2081 778v155h-18l-32 -18v-21h16v-116h34zM1509 1365v116q0 35 -33 35h-35
q-32 0 -32 -34l-1 -117h37v65h27v-65h37zM1371 1365v151h-34v-151h34zM2112 620v84q0 36 -36 36h-39q-36 0 -36 -34v-88q0 -34 36 -34h39q36 0 36 36zM1305 1400v51h-53v-21h16v-30q0 -13 -13 -14l-10 4l-4 10v80l4 10l10 4h16q12 0 13 -16h21q-2 38 -34 38h-32
q-34 0 -34 -35v-81q0 -35 34 -35h32q34 0 34 35zM1175 1365v60l-5 13l-11 5q16 8 16 29q0 44 -32 44h-68v-151h37v65h13l10 -4l4 -11v-50h36zM2098 521v21h-84v-154h36v66h32v22h-32v45h48zM1041 1400v81q0 34 -33 34h-35q-32 0 -32 -33v-84q0 -33 32 -33h35q33 0 33 35z
M2106 317v28h-102v-157h41v66h47v28h-47v35h61zM907 1365v21h-47v44h31v21h-31v43h47v22h-83v-151h83zM785 1400v51h-53v-21h16v-30q0 -13 -13 -14l-10 4l-4 10v80l4 10l10 4h16q12 0 13 -16h21q-2 38 -34 38h-32q-35 0 -35 -35v-81q0 -35 35 -35h32q34 0 34 35zM1959 -79
v1279q0 59 -42.5 101.5t-101.5 42.5h-1280q-59 0 -101.5 -42.5t-42.5 -101.5v-1279q0 -59 42.5 -101.5t101.5 -42.5h1280q59 0 101.5 42.5t42.5 101.5zM1666 -395v151h-21v-78l-86 78h-11v-151h21v78l86 -78h11zM319 778v155h-18l-32 -18v-21h15v-116h35zM1509 -395v116
q0 34 -33 34h-35q-32 0 -32 -33l-1 -117h37v65h27v-65h37zM1371 -395v151h-34v-151h34zM349 620v84q0 36 -36 36h-39q-36 0 -36 -34v-88q0 -34 36 -34h39q36 0 36 36zM1305 -360v51h-53v-21h16v-30q0 -13 -13 -14l-10 4l-4 10v80l4 10l10 4h16q12 0 13 -16h21q-2 38 -34 38
h-32q-34 0 -34 -35v-81q0 -35 34 -35h32q34 0 34 35zM1175 -395v60l-5 13l-11 5q16 8 16 29q0 43 -32 43l-68 1v-151h37v65h13l10 -4l4 -11v-50h36zM349 385v121q0 36 -36 36h-38q-36 0 -36 -35v-122h40v68h30v-68h40zM1041 -360v81q0 34 -33 34h-35q-32 0 -32 -33v-84
q0 -33 32 -33h35q33 0 33 35zM349 224v84q0 36 -36 36h-39q-36 0 -36 -34v-88q0 -34 36 -34h39q36 0 36 36zM907 -395v21h-47v44h31v21h-31v43h47v22h-83v-151h83zM785 -360v51h-53v-21h16v-30q0 -13 -13 -14l-10 4l-4 10v80l4 10l10 4h16q12 0 13 -16h21q-2 38 -34 38h-32
q-35 0 -35 -35v-81q0 -35 35 -35h32q34 0 34 35zM1472 1451h-27v29l4 10l10 4l9 -4l4 -10v-29zM2071 620l-4 -10l-11 -4l-10 4l-5 10v84l5 10l10 4l11 -4l4 -10v-84zM1139 1465l-4 -10l-10 -4h-13v43h13l10 -4l4 -10v-15zM1004 1400l-4 -10l-9 -4l-10 4l-4 10v80l4 10l10 4
l9 -4l4 -10v-80zM1750 867q0 -144 -95 -241t-239 -97q-142 0 -243 96t-101 238q0 65 23 121q-5 63 -44 103t-101 40q-96 0 -127 -78q-18 -45 -18 -160v-92q0 -105 200 -221q323 -187 379 -233q210 -172 231 -413l-6 -6q-257 240 -312 282q-213 166 -367 166q-63 0 -118 -17
q15 -45 15 -50q0 -42 -32.5 -74t-74.5 -32q-43 0 -73 30.5t-30 73.5q0 120 195 120q16 0 49 -1t49 -1q-123 39 -204 105q-106 86 -106 192v212q0 18 14 61q32 99 134 154q91 50 203 50q144 0 226 -88q30 18 108 62q50 28 128 28q141 0 239 -94.5t98 -235.5zM1472 -309h-27
v29l4 10l10 4l9 -4l4 -10v-29zM309 620l-5 -10l-10 -4l-11 4l-4 10v84l4 10l11 4l10 -4l5 -10v-84zM1139 -295l-4 -10l-10 -4h-13v43h13l10 -4l4 -10v-15zM309 475h-30v30l5 11l10 4l10 -4l5 -11v-30zM1004 -360l-4 -10l-9 -4l-10 4l-4 10v80l4 10l10 4l9 -4l4 -10v-80z
M309 225l-5 -11l-10 -4l-11 4l-4 11v83l4 10l11 4l10 -4l5 -10v-83zM1538 705v311q0 51 -36.5 83.5t-87.5 32.5q-131 0 -131 -136v-291q0 -49 42 -81q38 -30 88 -30q49 0 87 31.5t38 79.5z" />
  </g>

</svg>
