<?xml version="1.0" standalone="no"?>
<!DOCTYPE svg PUBLIC "-//W3C//DTD SVG 1.1//EN" "http://www.w3.org/Graphics/SVG/1.1/DTD/svg11.dtd" >
<svg viewBox="0 -419 2155 2048">
  <g transform="matrix(1 0 0 -1 0 1638)">
   <path fill="currentColor"
d="M2155 -239q0 -75 -52.5 -127.5t-127.5 -52.5h-1600q-75 0 -127.5 52.5t-52.5 127.5v1599q0 75 52.5 127.5t127.5 52.5h1600q75 0 127.5 -52.5t52.5 -127.5v-1599zM2081 976v154h-18l-32 -17v-21h15v-116h35zM1550 1365v21h-47v130h-36v-151h83zM2112 818v84q0 36 -36 36
h-39q-36 0 -36 -34v-88q0 -34 36 -34h39q36 0 36 36zM1436 1365v116q0 35 -32 35h-35q-33 0 -33 -34v-117h37v65h27v-65h36zM2098 716v22h-84v-155h36v67h32v21h-32v45h48zM1311 1478q-2 38 -35 38h-32q-34 0 -34 -35v-81q0 -35 34 -35h32q34 0 34 35v51h-52v-21h16v-30
q0 -13 -13 -14l-10 4l-4 10v80l4 10l10 4h15q12 0 14 -16h21zM1180 1365v21h-47v44h31v21h-31v43h47v22h-84v-151h84zM2098 521v21h-84v-154h36v66h32v22h-32v45h48zM1063 1365v21h-48v130h-36v-151h84zM951 1365v21h-47v130h-36v-151h83zM2098 326v21h-84v-154h36v66h32v22
h-32v45h48zM833 1365v151h-33v-151h33zM2098 130v22h-84v-155h36v67h32v21h-32v45h48zM1791 561q0 258 -179 436.5t-437 178.5t-437 -178.5t-179 -436.5q0 -259 178.5 -437.5t437.5 -178.5t437.5 178.5t178.5 437.5zM1836 -395v21h-47v44h31v21h-31v43h47v22h-83v-151h83z
M1724 -360v81q0 35 -33 35h-68v-151h68q33 0 33 35zM319 976v154h-18l-32 -17v-21h15v-116h35zM1593 -360v82q0 35 -33 35h-35q-33 0 -33 -35v-84q0 -33 33 -33h35q33 0 33 35zM349 818v84q0 36 -36 36h-39q-36 0 -36 -34v-88q0 -34 36 -34h39q36 0 36 36zM1462 -358h-21
q-1 -16 -14 -16h-15l-10 4l-4 10v80l4 10l10 4h15q12 0 14 -16h21q-2 37 -35 37h-31q-35 0 -35 -35v-81q0 -34 35 -34h31q33 0 35 37zM1334 -395v149h-33v-149h33zM336 716v22h-84v-155h36v67h32v21h-32v45h48zM1268 -395v149h-20v-78l-86 78h-11v-149h21v77l86 -77h10z
M336 521v21h-84v-154h36v66h32v22h-32v45h48zM1119 -360v116h-36v-116l-5 -10l-9 -4l-10 4l-4 10v116h-36v-118q0 -33 32 -33h36q32 0 32 35zM336 326v21h-84v-154h36v66h32v22h-32v45h48zM881 -266v21h-100v-21h32v-130h37v130h31zM761 -360v82q0 35 -33 35h-35
q-33 0 -33 -35v-84q0 -33 33 -33h35q33 0 33 35zM336 -2v22h-48v44h32v22h-32v45h48v21h-84v-154h84zM631 -395v149h-21v-78l-86 78h-10v-149h20v77l86 -77h11zM2071 818l-4 -10l-11 -4l-10 4l-5 10v83l5 11l10 4l11 -4l4 -11v-83zM1400 1451h-27v29l4 10l9 4l10 -4l4 -10
v-29zM1631 561q0 -144 -82 -261l-635 634q117 82 261 82q191 0 323.5 -132t132.5 -323zM1436 187q-117 -82 -261 -82q-191 0 -323.5 132.5t-132.5 323.5q0 143 82 260zM1687 -360l-4 -10l-10 -4h-13v108h13l10 -4l4 -10v-80zM1556 -360l-4 -10l-11 -2l-8 2l-4 10v80l4 10
l8 4l11 -4l4 -10v-80zM309 818l-5 -10l-10 -4l-11 4l-4 10v83l4 11l11 4l10 -4l5 -11v-83zM724 -360l-4 -10l-11 -2l-8 2l-4 10v80l4 10l8 4l11 -4l4 -10v-80z" />
  </g>

</svg>
