<?xml version="1.0" standalone="no"?>
<!DOCTYPE svg PUBLIC "-//W3C//DTD SVG 1.1//EN" "http://www.w3.org/Graphics/SVG/1.1/DTD/svg11.dtd" >
<svg viewBox="0 -419 2155 2048">
  <g transform="matrix(1 0 0 -1 0 1638)">
   <path fill="currentColor"
d="M2155 -239q0 -74 -53 -127t-127 -53h-1599q-75 0 -127.5 52.5t-52.5 127.5v1599q0 75 52.5 127.5t127.5 52.5h1599q74 0 127 -53t53 -127v-1599zM2081 978v154h-18l-32 -17v-21h16v-116h34zM1750 1365v151h-20l-68 -68l-69 68h-11v-151h22v86l54 -55l54 55v-86h38z
M1542 1365v60l-5 13l-11 5q16 9 16 29q0 44 -32 44h-68v-151h37v65h13l10 -4l4 -10v-51h36zM2107 778v22h-64q2 11 33 42.5t31 45.5q0 45 -35 45h-32q-30 0 -34 -39h21q0 17 13 17h16l10 -4l4 -11q0 -19 -32 -51.5t-32 -47.5v-19h101zM1410 1400v81q0 35 -32 35h-35
q-33 0 -33 -33v-85q0 -33 33 -33h35q32 0 32 35zM2107 617v35q0 33 -43 35l43 30v20h-101v-21h59l-43 -30v-20l25 1q23 1 23 -15v-33l-4 -10l-10 -5h-15q-13 0 -14 17h-21q4 -38 33 -38h35q33 0 33 34zM1286 1495v21h-84v-151h36v65h32v21h-32v44h48zM1170 1365v151h-34
v-151h34zM2098 521v21h-84v-154h36v66h32v22h-32v45h48zM1103 1365v21h-48v44h32v21h-32v44h48v21h-84v-151h84zM986 1365v151h-21v-78l-85 78h-11v-151h21v78l86 -78h10zM2098 326v21h-84v-154h36v66h32v22h-32v45h48zM835 1400v116h-37v-116l-4 -10l-10 -4l-9 4l-4 10v116
h-37v-118q0 -33 33 -33h35q33 0 33 35zM701 1402h-21q-1 -16 -14 -16h-15l-10 4l-4 10v80l4 10l10 5h15q12 0 14 -17h21q-2 38 -35 38h-32q-34 0 -34 -35v-81q0 -35 34 -35h32q32 0 35 37zM1959 -79v1279q0 59 -42.5 101.5t-101.5 42.5h-1280q-59 0 -101.5 -42.5
t-42.5 -101.5v-1279q0 -59 42.5 -101.5t101.5 -42.5h1280q59 0 101.5 42.5t42.5 101.5zM319 978v154h-18l-32 -17v-21h15v-116h35zM1750 -395v151h-20l-68 -69l-69 69h-11v-151h22v86l54 -55l54 55v-86h38zM1542 -395v60l-5 13l-11 5q16 8 16 29q0 44 -32 44h-68v-151h37v65
h13l10 -4l4 -11v-50h36zM344 778v22h-64q2 11 33 42.5t31 45.5q0 45 -34 45h-32q-31 0 -35 -39h21q1 17 14 17h15l10 -4l4 -11q0 -19 -32 -51.5t-32 -47.5v-19h101zM1410 -360v81q0 34 -32 34h-35q-33 0 -33 -33v-84q0 -33 33 -33h35q32 0 32 35zM349 620v84q0 36 -36 36
h-39q-36 0 -36 -34v-88q0 -34 36 -34h39q36 0 36 36zM1286 -266v22h-84v-151h36v65h32v21h-32v43h48zM1170 -395v151h-34v-151h34zM349 421v85q0 36 -36 36h-39q-36 0 -36 -35v-87q0 -35 36 -35h39q36 0 36 36zM1103 -395v21h-48v44h32v21h-32v43h48v22h-84v-151h84z
M986 -395v151h-21v-78l-85 78h-11v-151h21v78l86 -78h10zM349 224v84q0 36 -36 36h-39q-36 0 -36 -34v-88q0 -34 36 -34h39q36 0 36 36zM835 -360v116h-37v-116l-4 -10l-10 -4l-9 4l-4 10v116h-37v-118q0 -33 33 -33h35q33 0 33 35zM701 -358h-21q-1 -16 -14 -16h-15l-10 4
l-4 10v80l4 10l10 4h15q12 0 14 -16h21q-2 38 -35 38h-32q-34 0 -34 -35v-81q0 -35 34 -35h32q32 0 35 37zM1506 1465l-4 -10l-10 -4h-13v44h13l10 -5l4 -10v-15zM1374 1400l-4 -10l-10 -4l-9 4l-4 10v80l4 10l9 4l10 -4l4 -10v-80zM1637 1138q-191 -183 -191 -325
q0 -6 3 -50l-4 -9q-13 -9 -29 -9q-31 0 -33 18q-5 46 -23 113q-35 129 -175 262v34l4 9q12 6 40 6q31 0 93.5 -19.5t95.5 -19.5q61 0 135 24q44 14 51 15q19 0 29 -6l4 -9v-34zM1640 734q-191 -183 -191 -338v-440q-11 -19 -36 -19q-33 0 -33 19v440q1 2 1 5q0 7 -12 50
q-41 149 -181 283v32l4 9q9 6 39 6q27 0 92.5 -19.5t97.5 -19.5q60 0 134 24q47 15 52 15q19 0 29 -6l4 -9v-32zM1163 1135q-190 -181 -191 -337l-4 -854q-12 -10 -29 -10q-34 0 -34 19v845q0 7 -13 55q-40 147 -182 282v33l4 9q13 7 40 7q29 0 92.5 -19.5t96.5 -19.5
q55 0 187 39q19 0 29 -7l4 -9v-33zM1506 -295l-4 -10l-10 -4h-13v43h13l10 -4l4 -10v-15zM1374 -360l-4 -10l-10 -4l-9 4l-4 10v80l4 10l9 4l10 -4l4 -10v-80zM309 620l-5 -10l-10 -4l-11 4l-4 10v84l4 10l11 4l10 -4l5 -10v-84zM309 422l-5 -10l-10 -5l-11 5l-4 10v83l4 11
l11 4l10 -4l5 -11v-83zM309 225l-5 -11l-10 -4l-11 4l-4 11v83l4 10l11 4l10 -4l5 -10v-83zM1489 1086h-4q-12 0 -36 -4.5t-36 -4.5q-14 0 -40.5 4.5t-40.5 4.5q29 -42 77 -133h4q17 41 76 133zM1492 681h-4q-12 0 -36 -4.5t-36 -4.5q-14 0 -40.5 4.5t-40.5 4.5
q29 -43 77 -134h4q17 42 76 134zM1015 1083h-4q-12 0 -36 -4.5t-36 -4.5q-14 0 -40.5 4.5t-40.5 4.5q29 -42 76 -134h5q16 41 76 134z" />
  </g>

</svg>
