<?xml version="1.0" standalone="no"?>
<!DOCTYPE svg PUBLIC "-//W3C//DTD SVG 1.1//EN" "http://www.w3.org/Graphics/SVG/1.1/DTD/svg11.dtd" >
<svg viewBox="0 -419 2154 2048">
  <g transform="matrix(1 0 0 -1 0 1638)">
   <path fill="currentColor"
d="M2154 -239q0 -74 -53 -127t-127 -53h-1598q-74 0 -127 53t-53 127v1599q0 74 53 127t127 53h1598q74 0 127 -53t53 -127v-1599zM1603 1402h-21q-1 -16 -13 -16h-16l-10 4l-4 10v80l4 10l10 4h16q12 0 13 -16h21q-2 37 -34 37h-32q-35 0 -35 -35v-81q0 -34 35 -34h32
q32 0 34 37zM2081 778v155h-18l-32 -18v-21h16v-116h34zM1473 1365v150h-34v-150h34zM1414 1463v18q0 34 -32 34l-68 1v-151h37v65h12q51 0 51 33zM2107 617v35q0 33 -43 35l43 30v20h-101v-21h59l-43 -30v-20l25 1q23 1 23 -15v-33l-4 -10l-10 -5h-15q-13 0 -14 17h-21
q4 -38 33 -38h35q33 0 33 34zM1288 1400v81q0 34 -33 34h-35q-32 0 -32 -33v-84q0 -33 32 -33h35q33 0 33 35zM1154 1365v150h-34v-150h34zM2107 506v36h-101v-21h64v-14q-32 -66 -32 -84v-35h37q0 54 21 96zM1085 1365v151h-36v-65h-27v65h-37v-151h37v65h27v-65h36z
M958 1494v22h-100v-22h32v-129h37v129h31zM2106 317v28h-102v-157h41v66h47v28h-47v35h61zM831 1365v21h-48v44h32v21h-32v43h48v22h-84v-151h84zM1959 -79v1279q0 59 -42.5 101.5t-101.5 42.5h-1280q-59 0 -101.5 -42.5t-42.5 -101.5v-1279q0 -59 42.5 -101.5t101.5 -42.5
h1280q59 0 101.5 42.5t42.5 101.5zM1603 -358h-21q-1 -16 -13 -16h-16l-10 4l-4 10v80l4 10l10 4h16q12 0 13 -16h21q-2 37 -34 37h-32q-35 0 -35 -35v-81q0 -34 35 -34h32q32 0 34 37zM319 778v155h-18l-32 -18v-21h15v-116h35zM1473 -395v150h-34v-150h34zM1414 -297v18
q0 35 -32 35h-68v-151h37v65h12q51 0 51 33zM344 583v22h-64q2 12 33 43t31 46q0 44 -34 44h-32q-31 0 -35 -38h21q0 16 14 16h15l10 -4l4 -10q0 -20 -32 -52.5t-32 -47.5v-19h101zM1288 -360v81q0 34 -33 34h-35q-32 0 -32 -33v-84q0 -33 32 -33h35q33 0 33 35zM1154 -395
v150h-34v-150h34zM349 421v85q0 36 -36 36h-39q-36 0 -36 -35v-87q0 -35 36 -35h39q36 0 36 36zM1085 -395v151h-36v-65h-27v65h-37v-151h37v65h27v-65h36zM958 -266v22h-100v-22h32v-129h37v129h31zM349 224v84q0 36 -36 36h-39q-36 0 -36 -34v-88q0 -34 36 -34h39
q36 0 36 36zM831 -395v21h-48v44h32v21h-32v43h48v22h-84v-151h84zM1378 1465l-4 -10l-10 -4h-13v43h13l10 -4l4 -10v-15zM1251 1400l-4 -10l-9 -4l-10 4l-4 10v80l4 10l10 4l9 -4l4 -10v-80zM1559 60l-1 -16q-166 -30 -216 -30q-46 0 -53 50q-4 28 -4 88q0 92 6 276.5
t6 276.5q0 132 -8 183q-27 170 -136 170q-41 0 -70 -29q-78 -78 -78 -549q0 -210 2 -239q12 -174 69 -181v-18q-117 -29 -205 -29q-33 0 -40 6q-40 33 -40 401q0 198 12 295q19 154 76 232q65 89 204 123q152 37 191 37q238 0 238 -315q0 -53 -6 -291l-7 -278
q-4 -157 60 -163zM1378 -295l-4 -10l-10 -4h-13v43h13l10 -4l4 -10v-15zM1251 -360l-4 -10l-9 -4l-10 4l-4 10v80l4 10l10 4l9 -4l4 -10v-80zM309 422l-5 -10l-10 -5l-11 5l-4 10v83l4 11l11 4l10 -4l5 -11v-83zM309 225l-5 -11l-10 -4l-11 4l-4 11v83l4 10l11 4l10 -4
l5 -10v-83z" />
  </g>

</svg>
