<?xml version="1.0" standalone="no"?>
<!DOCTYPE svg PUBLIC "-//W3C//DTD SVG 1.1//EN" "http://www.w3.org/Graphics/SVG/1.1/DTD/svg11.dtd" >
<svg viewBox="0 -419 2155 2048">
  <g transform="matrix(1 0 0 -1 0 1638)">
   <path fill="currentColor"
d="M2155 -239q0 -75 -52.5 -127.5t-127.5 -52.5h-1599q-75 0 -127.5 52.5t-52.5 127.5v1599q0 75 52.5 127.5t127.5 52.5h1599q75 0 127.5 -52.5t52.5 -127.5v-1599zM1661 1365v21h-48v44h32v21h-32v43h48v22h-84v-151h84zM1549 1365v21h-48v44h32v21h-32v43h48v22h-84v-151
h84zM2081 778v155h-18l-32 -18v-21h16v-116h34zM1445 1365l-66 75l66 76h-34l-49 -56v56h-37v-151h37v53l45 -53h38zM2107 617v35q0 33 -43 35l43 30v20h-101v-21h59l-43 -30v-20l25 1q23 1 23 -15v-33l-4 -10l-10 -5h-15q-13 0 -14 17h-21q4 -38 33 -38h35q33 0 33 34z
M1297 1400v81q0 34 -33 34h-35q-33 0 -33 -33v-84q0 -33 33 -33h35q33 0 33 35zM1168 1365v60l-5 13l-11 5q16 8 16 29q0 44 -32 44h-68v-151h36v65h13l10 -4l5 -11v-50h36zM2098 521v21h-84v-154h36v66h32v22h-32v45h48zM1034 1365v21h-47v44h32v21h-32v43h47v22h-83v-151
h83zM2106 317v28h-102v-157h41v66h47v28h-47v35h61zM920 1365v151h-37v-65h-27v65h-37v-151h37v65h27v-65h37zM790 1402h-21q-1 -16 -14 -16h-15l-10 4l-4 10v80l4 10l10 4h15q13 0 14 -16h21q-2 38 -35 38h-32q-34 0 -34 -35v-81q0 -35 34 -35h32q33 0 35 37zM1959 -79
v1279q0 59 -42.5 101.5t-101.5 42.5h-1280q-59 0 -101.5 -42.5t-42.5 -101.5v-1279q0 -59 42.5 -101.5t101.5 -42.5h1280q59 0 101.5 42.5t42.5 101.5zM1726 -295v51h-37v-51l-4 -10l-10 -4l-9 4l-4 10v51h-37v-51q0 -30 32 -35v-65h37v65q32 5 32 35zM1598 -395v60l-5 13
l-11 5q16 8 16 29q0 44 -32 44h-68v-151h36v65h13l10 -4l5 -11v-50h36zM319 778v155h-18l-32 -18v-21h15v-116h35zM1460 -390v116q0 35 -32 35h-36q-32 0 -32 -34v-117h36v65h28v-65h36zM1331 -360q0 34 -21 41q21 8 21 32q0 43 -34 43h-67v-151h67q34 0 34 35zM344 617v35
q0 33 -43 35l43 30v20h-101v-21h59l-43 -30v-20l25 1q23 1 23 -15v-33l-4 -10l-10 -5h-15q-13 0 -14 17h-21q4 -38 33 -38h35q33 0 33 34zM1200 -395v116q0 35 -33 35h-35q-33 0 -33 -34v-117h37v65h27v-65h37zM349 385v121q0 36 -36 36h-38q-36 0 -36 -35v-122h40v68h30
v-68h40zM1071 -395v21h-47v130h-37v-151h84zM957 -395v21h-47v130h-37v-151h84zM349 224v84q0 36 -36 36h-39q-36 0 -36 -34v-88q0 -34 36 -34h39q36 0 36 36zM840 -295v51h-37v-51l-4 -10l-9 -4l-10 4l-4 10v51h-36v-51q0 -30 31 -35v-65h37v65q32 5 32 35zM708 -360
q0 28 -24 49l-9 8q-21 19 -11 34q6 4 11 4q11 0 13 -17h20q-2 38 -32 38h-19q-33 0 -33 -35q0 -25 24 -49l9 -9q14 -14 14 -25q0 -5 -2 -8q-6 -4 -11 -4q-2 0 -4 1l-5 2l-4 9v4h-21q0 -37 32 -37h20q32 0 32 35zM1260 1400l-4 -10l-9 -4l-10 4l-4 10v80l4 10l10 4l9 -4
l4 -10v-80zM1132 1465l-5 -10l-10 -4h-13v43h13l10 -4l5 -10v-15zM1687 760q0 -43 -35 -43h-410q-35 0 -35 43q0 30 81 48t81 61q0 79 -59 135t-138 56q-189 0 -281 -160q-75 -130 -75 -333q0 -211 71 -340q91 -164 285 -164q51 0 105 24q67 30 67 73q0 17 -44.5 73.5
t-44.5 93.5q0 59 31 101q34 47 91 47q62 0 106 -43t44 -105q0 -143 -106 -246t-249 -103q-232 0 -376 182q-134 169 -134 407q0 232 137 399q147 179 373 179q104 0 198 -68q88 -63 137 -161q36 -71 83 -96q11 -6 69 -21q28 -7 28 -39zM1562 -295l-5 -10l-10 -4h-13v43h13
l10 -4l5 -10v-15zM1424 -304h-28v29l4 10l10 4l9 -4l5 -10v-29zM1294 -295l-4 -10l-10 -4h-13v43h13l10 -4l4 -10v-15zM1294 -360l-4 -10l-10 -4h-13v44h14q13 0 13 -14v-16zM1163 -309h-27v29l4 10l10 4l9 -4l4 -10v-29zM309 475h-30v30l5 11l10 4l10 -4l5 -11v-30z
M309 225l-5 -11l-10 -4l-11 4l-4 11v83l4 10l11 4l10 -4l5 -10v-83z" />
  </g>

</svg>
