<?xml version="1.0" standalone="no"?>
<!DOCTYPE svg PUBLIC "-//W3C//DTD SVG 1.1//EN" "http://www.w3.org/Graphics/SVG/1.1/DTD/svg11.dtd" >
<svg viewBox="0 -419 2155 2048">
  <g transform="matrix(1 0 0 -1 0 1638)">
   <path fill="currentColor"
d="M2155 -239q0 -75 -52.5 -127.5t-127.5 -52.5h-1599q-75 0 -127.5 52.5t-52.5 127.5v1599q0 75 52.5 127.5t127.5 52.5h1599q75 0 127.5 -52.5t52.5 -127.5v-1599zM1640 1400v81q0 34 -33 34h-35q-33 0 -33 -33v-84q0 -33 33 -33h35q33 0 33 35zM2081 778v155h-18l-32 -18
v-21h16v-116h34zM1506 1400v81q0 34 -33 34h-35q-33 0 -33 -33v-84q0 -33 33 -33h35q33 0 33 35zM1372 1365v151h-20v-78l-86 78h-11v-151h21v78l86 -78h10zM2107 702v36h-101v-22h64v-13q-32 -66 -32 -84v-36h37q0 53 32 119zM1221 1400v116h-37v-116l-4 -10l-10 -4l-9 4
l-4 10v116h-37v-118q0 -33 33 -33h35q33 0 33 35zM2107 422v35q0 34 -43 36l43 29v21h-101v-22h59l-43 -29v-21l25 1q23 1 23 -15v-33l-4 -10l-10 -4h-15q-13 0 -14 16h-21q4 -38 33 -38h35q33 0 33 34zM1086 1365v151h-20v-78l-86 78h-11v-151h21v78l86 -78h10zM939 1365
v116q0 35 -33 35h-35q-32 0 -32 -34v-117h36v65h27v-65h37zM2106 317v28h-102v-157h41v66h47v28h-47v35h61zM811 1365v151h-37v-65h-27v65h-37v-151h37v65h27v-65h37zM1959 -79v1279q0 59 -42.5 101.5t-101.5 42.5h-1280q-59 0 -101.5 -42.5t-42.5 -101.5v-1279
q0 -59 42.5 -101.5t101.5 -42.5h1280q59 0 101.5 42.5t42.5 101.5zM1640 -360v81q0 34 -33 34h-35q-33 0 -33 -33v-84q0 -21 21 -30l66 4q14 11 14 28zM319 778v155h-18l-32 -18v-21h15v-116h35zM1506 -360v81q0 34 -33 34h-35q-33 0 -33 -33v-84q0 -33 33 -33h35
q33 0 33 35zM1372 -395v151h-20v-78l-86 78h-11v-151h21v78l86 -78h10zM344 702v36h-101v-22h64v-13q-32 -66 -32 -84v-36h37q0 53 32 119zM1221 -360v116h-37v-116l-4 -10l-10 -4l-9 4l-4 10v116h-37v-118q0 -33 33 -33h35q33 0 33 35zM344 388v21h-64q2 12 33 43.5
t31 45.5q0 44 -34 44h-32q-31 0 -35 -38h21q0 17 14 17h15l10 -5l4 -10q0 -20 -32 -52.5t-32 -46.5v-19h101zM1086 -395v151h-20v-78l-86 78h-11v-151h21v78l86 -78h10zM939 -395v116q0 35 -33 35h-35q-32 0 -32 -34v-117h36v65h27v-65h37zM349 224v84q0 36 -36 36h-39
q-36 0 -36 -34v-88q0 -34 36 -34h39q36 0 36 36zM811 -394v150h-37v-65h-27v65h-37v-144l37 -2v60h27v-62zM1603 1400l-4 -10l-10 -4l-9 4l-4 10v80l4 10l9 4l10 -4l4 -10v-80zM1469 1400l-4 -10l-10 -4l-9 4l-4 10v80l4 10l9 4l10 -4l4 -10v-80zM902 1451h-27v29l4 10l10 4
l9 -4l4 -10v-29zM1732 934q0 -190 -111 -320q-116 -136 -304 -136q-143 0 -298 64q-53 -155 -138 -512l-117 28q66 276 152 537q-178 115 -298 409l111 45q92 -223 230 -334q152 396 417 485q45 15 86 15q112 0 191 -84t79 -197zM1603 -360l-4 -10l-10 -4l-9 4l-4 10v80
l4 10l9 4l10 -4l4 -10v-80zM1469 -360l-4 -10l-10 -4l-9 4l-4 10v80l4 10l9 4l10 -4l4 -10v-80zM902 -309h-27v29l4 10l10 4l9 -4l4 -10v-29zM309 225l-5 -11l-10 -4l-11 4l-4 11v83l4 10l11 4l10 -4l5 -10v-83zM1612 917q0 68 -37 119q-41 58 -106 58q-62 0 -143 -53
q-74 -47 -114 -104q-83 -116 -152 -286q116 -55 265 -55q120 0 206 102q81 97 81 219z" />
  </g>

</svg>
