<?xml version="1.0" standalone="no"?>
<!DOCTYPE svg PUBLIC "-//W3C//DTD SVG 1.1//EN" "http://www.w3.org/Graphics/SVG/1.1/DTD/svg11.dtd" >
<svg viewBox="0 -419 2155 2048">
  <g transform="matrix(1 0 0 -1 0 1638)">
   <path fill="currentColor"
d="M2155 -239q0 -75 -52.5 -127.5t-127.5 -52.5h-1599q-75 0 -127.5 52.5t-52.5 127.5v1599q0 75 52.5 127.5t127.5 52.5h1599q75 0 127.5 -52.5t52.5 -127.5v-1599zM2081 778v155h-18l-32 -18v-21h16v-116h34zM1462 1400v81q0 35 -33 35h-67v-151h67q33 0 33 35zM1320 1365
v151h-34v-151h34zM2107 702v36h-101v-22h64v-13q-32 -66 -32 -84v-36h37q0 55 21 97zM1249 1365v151h-37v-65h-27v65h-37v-151h37v65h27v-65h37zM2106 424v33q0 36 -64 36v28h64v21h-100v-71h49l10 -4l5 -11v-32l-5 -10l-10 -4h-15q-13 0 -14 16h-20q4 -38 34 -38h32
q34 0 34 36zM1116 1400v116h-37v-116l-4 -10l-9 -4l-10 4l-4 10v116h-36v-118q0 -33 32 -33h35q33 0 33 35zM988 1400q0 34 -21 41q21 8 21 32q0 43 -34 43h-66v-151h66q34 0 34 35zM2106 317v28h-102v-157h41v66h47v28h-47v35h61zM1959 -79v1279q0 59 -42.5 101.5
t-101.5 42.5h-1280q-59 0 -101.5 -42.5t-42.5 -101.5v-1279q0 -59 42.5 -101.5t101.5 -42.5h1280q59 0 101.5 42.5t42.5 101.5zM319 778v155h-18l-32 -18v-21h15v-116h35zM1462 -360v81q0 35 -33 35h-67v-151h67q33 0 33 35zM1320 -395v151h-34v-151h34zM344 702v36h-101
v-22h64v-13q-32 -66 -32 -84v-36h37q0 55 21 97zM1249 -395v151h-37v-65h-27v65h-37v-151h37v65h27v-65h37zM353 436v22h-17v84h-38l-68 -86v-20h67v-50h39v50h17zM1116 -360v116h-37v-116l-4 -10l-9 -4l-10 4l-4 10v116h-36v-118q0 -33 32 -33h35q33 0 33 35zM988 -360
q0 34 -21 41q21 8 21 32q0 43 -34 43h-66v-151h66q34 0 34 35zM349 224v84q0 36 -36 36h-39q-36 0 -36 -34v-88q0 -34 36 -34h39q36 0 36 36zM1425 1400l-4 -10l-10 -4h-13v108h13l10 -4l4 -10v-80zM952 1465l-4 -10l-10 -4h-13v43h13l10 -4l4 -10v-15zM952 1400l-4 -10
l-10 -4h-13v44h13q14 0 14 -14v-16zM1721 1012l-80 -220h-749l78 220h751zM1456 230l-79 -220h-749l77 220h751zM1425 -360l-4 -10l-10 -4h-13v108h13l10 -4l4 -10v-80zM297 458h-42l42 53v-53zM952 -295l-4 -10l-10 -4h-13v43h13l10 -4l4 -10v-15zM952 -360l-4 -10l-10 -4
h-13v44h13q14 0 14 -14v-16zM309 225l-5 -11l-10 -4l-11 4l-4 11v83l4 10l11 4l10 -4l5 -10v-83z" />
  </g>

</svg>
