<?xml version="1.0" standalone="no"?>
<!DOCTYPE svg PUBLIC "-//W3C//DTD SVG 1.1//EN" "http://www.w3.org/Graphics/SVG/1.1/DTD/svg11.dtd" >
<svg viewBox="0 -419 2154 2048">
  <g transform="matrix(1 0 0 -1 0 1638)">
   <path fill="currentColor"
d="M2154 -239q0 -74 -53 -127t-127 -53h-1598q-74 0 -127 53t-53 127v1599q0 74 53 127t127 53h1598q74 0 127 -53t53 -127v-1599zM1769 1365v151h-21v-78l-86 78h-10v-151h21v78l85 -78h11zM1612 1365v116q0 35 -32 35h-36q-32 0 -32 -34v-117h36v65h28v-65h36zM2081 778
v155h-18l-32 -18v-21h16v-116h34zM1474 1365v151h-33v-151h33zM1409 1365v21h-47v130h-36v-151h83zM2111 620q0 35 -24 42q24 9 24 34q0 44 -38 44h-35q-38 0 -38 -36q0 -35 24 -42q-24 -8 -24 -34q0 -44 38 -44h35q38 0 38 36zM1293 1400v81q0 34 -32 34h-35q-33 0 -33 -33
v-84q0 -33 33 -33h35q32 0 32 35zM1156 1400v51h-52v-21h16v-30q0 -13 -13 -14l-10 4l-4 10v80l4 10l10 4h15q12 0 14 -16h20q-1 38 -34 38h-32q-34 0 -34 -35v-81q0 -35 34 -35h32q34 0 34 35zM2111 385v121q0 36 -36 36h-38q-36 0 -36 -35v-122h40v68h30v-68h40z
M1022 1365v151h-21v-78l-85 78h-11v-151h21v78l86 -78h10zM2106 317v28h-102v-157h41v66h47v28h-47v35h61zM878 1400v81q0 34 -32 34h-35q-33 0 -33 -33v-84q0 -33 33 -33h35q32 0 32 35zM748 1365v151h-19l-69 -69l-68 69h-11v-151h21v86l54 -55l55 55v-86h37zM1959 -79
v1279q0 59 -42.5 101.5t-101.5 42.5h-1280q-59 0 -101.5 -42.5t-42.5 -101.5v-1279q0 -59 42.5 -101.5t101.5 -42.5h1280q59 0 101.5 42.5t42.5 101.5zM1769 -395v151h-21v-78l-86 78h-10v-151h21v78l85 -78h11zM1612 -395v116q0 35 -32 35h-36q-32 0 -32 -34v-117h36v65h28
v-65h36zM319 778v155h-18l-32 -18v-21h15v-116h35zM1474 -395v151h-33v-151h33zM1409 -395v21h-47v130h-36v-151h83zM350 620q0 35 -24 42q24 9 24 34q0 44 -38 44h-35q-38 0 -38 -36q0 -35 24 -42q-24 -8 -24 -34q0 -44 38 -44h35q38 0 38 36zM1293 -360v81q0 34 -32 34
h-35q-33 0 -33 -33v-84q0 -33 33 -33h35q32 0 32 35zM1156 -360v51h-52v-21h16v-30q0 -13 -13 -14l-10 4l-4 10v80l4 10l10 4h15q12 0 14 -16h20q-1 38 -34 38h-32q-34 0 -34 -35v-81q0 -35 34 -35h32q34 0 34 35zM349 421v85q0 36 -36 36h-39q-36 0 -36 -35v-87
q0 -35 36 -35h39q36 0 36 36zM1022 -395v151h-21v-78l-85 78h-11v-151h21v78l86 -78h10zM349 224v84q0 36 -36 36h-39q-36 0 -36 -34v-88q0 -34 36 -34h39q36 0 36 36zM878 -360v81q0 34 -32 34h-35q-33 0 -33 -33v-84q0 -33 33 -33h35q32 0 32 35zM748 -395v151h-19
l-69 -69l-68 69h-11v-151h21v86l54 -55l55 55v-86h37zM1576 1451h-28v29l5 10l9 4l9 -4l5 -10v-29zM2071 688l-5 -11l-11 -4l-10 4l-5 11v16l5 10l10 4l11 -4l5 -10v-16zM2071 620l-5 -10l-11 -4l-10 4l-5 10v17q0 14 15 14q16 0 16 -14v-17zM1257 1400l-4 -10l-10 -4l-9 4
l-4 10v80l4 10l9 4l10 -4l4 -10v-80zM2071 475h-30v30l5 11l10 4l10 -4l5 -11v-30zM842 1400l-4 -10l-10 -4l-9 4l-4 10v80l4 10l9 4l10 -4l4 -10v-80zM1623 976q-2 -6 -13 -27q-29 -55 -100 -66q-26 -4 -127 -2v-972h-175v296q-87 -65 -264 -193l-14 -1l-203 44v23
q229 91 481 207v122q-176 0 -225 13q-127 34 -127 159q0 152 266 152q-10 0 5 0q16 -1 41 -1h40v122q-6 2 -155 17q-119 12 -119 38v16q81 47 224 60q65 6 232 6q77 0 77 47q0 2 -33.5 66t-33.5 87q0 5 6 23h23l116 -109q78 -75 78 -127zM1576 -309h-28v29l5 10l9 4l9 -4
l5 -10v-29zM310 688l-5 -11l-11 -4l-10 4l-5 11v16l5 10l10 4l11 -4l5 -10v-16zM1257 -360l-4 -10l-10 -4l-9 4l-4 10v80l4 10l9 4l10 -4l4 -10v-80zM310 620l-5 -10l-11 -4l-10 4l-5 10v17q0 14 15 14q16 0 16 -14v-17zM309 422l-5 -10l-10 -5l-11 5l-4 10v83l4 11l11 4
l10 -4l5 -11v-83zM309 225l-5 -11l-10 -4l-11 4l-4 11v83l4 10l11 4l10 -4l5 -10v-83zM842 -360l-4 -10l-10 -4l-9 4l-4 10v80l4 10l9 4l10 -4l4 -10v-80zM1208 458v229h-115q-48 0 -82 -32t-34 -80q0 -96 79 -112q4 -5 11 -5h141z" />
  </g>

</svg>
