<?xml version="1.0" standalone="no"?>
<!DOCTYPE svg PUBLIC "-//W3C//DTD SVG 1.1//EN" "http://www.w3.org/Graphics/SVG/1.1/DTD/svg11.dtd" >
<svg viewBox="0 -419 2154 2048">
  <g transform="matrix(1 0 0 -1 0 1638)">
   <path fill="currentColor"
d="M2154 -239q0 -74 -53 -127t-127 -53h-1598q-74 0 -127 53t-53 127v1599q0 74 53 127t127 53h1598q74 0 127 -53t53 -127v-1599zM2081 778v155h-18l-32 -18v-21h16v-116h34zM1481 1365v21h-47v44h32v21h-32v43h47v22h-83v-151h83zM1362 1365v21h-47v130h-36v-151h83z
M2112 643v61q0 36 -38 36h-35q-38 0 -38 -36v-34q0 -36 38 -36h17q10 0 15 6v-4q0 -31 -52 -31v-22h31q24 0 43 18t19 42zM1161 1365v151h-34v-151h34zM2107 506v36h-101v-21h64v-14q-32 -65 -32 -84v-35h37q0 52 32 118zM1103 1365v116q0 35 -33 35h-35q-33 0 -33 -34v-117
h37v65h27v-65h37zM969 1494v22h-100v-22h31v-129h37v129h32zM2106 317v28h-102v-157h41v66h47v28h-47v35h61zM1959 -79v1279q0 59 -42.5 101.5t-101.5 42.5h-1280q-59 0 -101.5 -42.5t-42.5 -101.5v-1279q0 -59 42.5 -101.5t101.5 -42.5h1280q59 0 101.5 42.5t42.5 101.5z
M319 778v155h-18l-32 -18v-21h15v-116h35zM1481 -395v21h-47v44h32v21h-32v43h47v22h-83v-151h83zM1362 -395v21h-47v130h-36v-151h83zM349 643v61q0 36 -38 36h-35q-38 0 -38 -36v-34q0 -36 38 -36h18q9 0 14 6v-4q0 -31 -52 -31v-22h31q24 0 43 18t19 42zM1161 -395v151
h-34v-151h34zM344 424v33q0 36 -64 36v28h64v21h-100v-71h50l9 -4l5 -11v-32l-5 -10l-9 -4h-16q-13 0 -14 16h-20q4 -38 34 -38h32q34 0 34 36zM1103 -395v116q0 35 -33 35h-35q-33 0 -33 -34v-117h37v65h27v-65h37zM969 -266v22h-100v-22h31v-129h37v129h32zM349 224v84
q0 36 -36 36h-39q-36 0 -36 -34v-88q0 -34 36 -34h39q36 0 36 36zM2071 670l-4 -10l-11 -4l-10 4l-5 10v33l5 10l10 5l11 -5l4 -10v-33zM1066 1451h-27v29l4 10l9 4l10 -4l4 -10v-29zM1639 106q-38 -43 -120 -122q-12 -5 -76 -5v932q0 41 -63 41q-32 0 -246 -174t-235 -177
q-33 -13 -65 -13q-44 0 -65 57l-24 95q-34 128 -34 152t15 46.5t38 22.5q52 0 88 -103q9 -24 45 -148q126 84 205 159l171 164q114 109 195 109q62 0 116.5 -53.5t54.5 -115.5v-867zM309 670l-5 -10l-10 -4l-11 4l-4 10v33l4 10l11 5l10 -5l5 -10v-33zM1066 -309h-27v29
l4 10l9 4l10 -4l4 -10v-29zM309 225l-5 -11l-10 -4l-11 4l-4 11v83l4 10l11 4l10 -4l5 -10v-83z" />
  </g>

</svg>
