<?xml version="1.0" standalone="no"?>
<!DOCTYPE svg PUBLIC "-//W3C//DTD SVG 1.1//EN" "http://www.w3.org/Graphics/SVG/1.1/DTD/svg11.dtd" >
<svg viewBox="0 -419 2154 2048">
  <g transform="matrix(1 0 0 -1 0 1638)">
   <path fill="currentColor"
d="M2154 -239q0 -74 -53 -127t-127 -53h-1598q-74 0 -127 53t-53 127v1599q0 74 53 127t127 53h1598q74 0 127 -53t53 -127v-1599zM1806 1365v21h-47v44h31v21h-31v43h47v22h-84v-151h84zM1691 1400v116h-37v-116l-4 -10l-9 -4l-10 4l-4 10v116h-36v-118q0 -33 32 -33h35
q33 0 33 35zM1558 1365v21h-48v130h-36v-151h84zM2081 778v155h-18l-32 -18v-21h16v-116h34zM1368 1365v151h-33v-151h33zM2112 643v61q0 36 -38 36h-35q-38 0 -38 -36v-34q0 -36 38 -36h17q10 0 15 6v-4q0 -31 -52 -31v-22h31q24 0 43 18t19 42zM1310 1365v116q0 35 -33 35
h-35q-32 0 -32 -34l-1 -117h37v65h27v-65h37zM1176 1494v22h-100v-22h32v-129h36v129h32zM2112 421v85q0 36 -36 36h-75v-157h75q36 0 36 36zM975 1423v93h-38v-116l-4 -10l-10 -4h-13v130h-38v-116l-4 -10l-10 -4h-13v130h-38v-151q56 0 65 4v-4h45q58 0 58 58zM2098 326
v21h-84v-154h36v66h32v22h-32v45h48zM776 1365v21h-47v44h31v21h-31v43h47v22h-84v-151h84zM661 1365v151h-21v-78l-85 78h-11v-151h21v78l86 -78h10zM1959 -79v1279q0 59 -42.5 101.5t-101.5 42.5h-1280q-59 0 -101.5 -42.5t-42.5 -101.5v-1279q0 -59 42.5 -101.5
t101.5 -42.5h1280q59 0 101.5 42.5t42.5 101.5zM1806 -395v21h-47v43h31v21h-31v44h47v21h-84v-150h84zM1691 -361v116h-37v-115l-4 -10l-9 -4l-10 4l-4 10v115h-36v-117q0 -33 32 -33h35q33 0 33 34zM1558 -395v21h-48v129h-36v-150h84zM319 778v155h-18l-32 -18v-21h15
v-116h35zM1368 -395v150h-33v-150h33zM349 643v61q0 36 -38 36h-35q-38 0 -38 -36v-34q0 -36 38 -36h18q9 0 14 6v-4q0 -31 -52 -31v-22h31q24 0 43 18t19 42zM1310 -395v115q0 35 -33 35h-35q-32 0 -32 -33l-1 -117h37v64h27v-64h37zM1176 -266v21h-100v-21h32v-129h36v129
h32zM350 421q0 36 -24 43q24 8 24 33q0 45 -38 45h-35q-38 0 -38 -36q0 -35 24 -42q-24 -9 -24 -34q0 -45 38 -45h35q38 0 38 36zM975 -338v93h-38v-115l-4 -10l-10 -4h-13v129h-38v-115l-4 -10l-10 -4h-13v129h-38v-150q56 0 65 3v-3h45q58 0 58 57zM349 224v84
q0 36 -36 36h-39q-36 0 -36 -34v-88q0 -34 36 -34h39q36 0 36 36zM776 -395v21h-47v43h31v21h-31v44h47v21h-84v-150h84zM661 -395v150h-21v-78l-85 78h-11v-150h21v77l86 -77h10zM2071 670l-4 -10l-11 -4l-10 4l-5 10v33l5 10l10 5l11 -5l4 -10v-33zM1273 1451h-27v29l4 10
l10 4l9 -4l4 -10v-29zM2071 422l-4 -10l-11 -5h-15v113h15l11 -4l4 -11v-83zM1827 519q0 -159 -79 -279q-90 -137 -241 -137q-114 0 -134 22q-31 35 -31 121q0 26 15 26q27 0 77.5 -17.5t76.5 -17.5q108 0 168 100q51 85 51 199q0 127 -65 221q-74 106 -196 106
q-97 0 -164 -73q-61 -66 -77 -166q-2 -13 -7 -24q-23 -8 -44 -8q-42 0 -48 13q-1 3 -13 48q-53 203 -233 203q-118 0 -196 -105q-70 -95 -70 -218q0 -116 52 -201q61 -100 172 -100q26 0 76 18t76 18q17 0 17 -25q0 -23 -12 -70q-14 -55 -27 -58q-89 -19 -122 -19
q-155 0 -246 133q-80 117 -80 281q0 189 79 333q96 175 270 175q224 0 302 -231q6 8 10 19q84 219 298 219q175 0 269 -174q76 -140 76 -332zM309 670l-5 -10l-10 -4l-11 4l-4 10v33l4 10l11 5l10 -5l5 -10v-33zM1273 -310h-27v30l4 10l10 4l9 -4l4 -10v-30zM310 489l-5 -10
l-11 -4l-10 4l-5 10v16l5 11l10 4l11 -4l5 -11v-16zM310 422l-5 -10l-11 -5l-10 5l-5 10v16q0 15 15 15q16 0 16 -15v-16zM309 225l-5 -11l-10 -4l-11 4l-4 11v83l4 10l11 4l10 -4l5 -10v-83z" />
  </g>

</svg>
