<?xml version="1.0" standalone="no"?>
<!DOCTYPE svg PUBLIC "-//W3C//DTD SVG 1.1//EN" "http://www.w3.org/Graphics/SVG/1.1/DTD/svg11.dtd" >
<svg viewBox="0 -419 2154 2048">
  <g transform="matrix(1 0 0 -1 0 1638)">
   <path fill="currentColor"
d="M2154 -239q0 -74 -53 -127t-127 -53h-1598q-74 0 -127 53t-53 127v1599q0 74 53 127t127 53h1598q74 0 127 -53t53 -127v-1599zM1529 1365v60l-6 13l-11 5q17 8 17 29q0 43 -33 43l-68 1v-151h37v65h13l10 -4l4 -11v-50h37zM2081 778v155h-18l-32 -18v-21h16v-116h34z
M1395 1365v21h-47v44h31v21h-31v43h47v22h-84v-151h84zM2112 643v61q0 36 -38 36h-35q-38 0 -38 -36v-34q0 -36 38 -36h17q10 0 15 6v-4q0 -31 -52 -31v-22h31q24 0 43 18t19 42zM1278 1365v151h-20l-68 -69l-69 69h-11v-151h21v86l55 -55l54 55v-86h38zM2098 521v21h-84
v-154h36v66h32v22h-32v45h48zM1072 1365v151h-36v-65h-28v65h-36v-151h36v65h28v-65h36zM941 1365l-66 75l66 76h-34l-49 -56v56h-37v-151h37v53l45 -53h38zM2106 317v28h-102v-157h41v66h47v28h-47v35h61zM1959 -79v1279q0 59 -42.5 101.5t-101.5 42.5h-1280
q-59 0 -101.5 -42.5t-42.5 -101.5v-1279q0 -59 42.5 -101.5t101.5 -42.5h1280q59 0 101.5 42.5t42.5 101.5zM1634 -360q0 21 -24 49t-24 31q2 5 4 11q4 2 11 4q11 0 13 -17h20q-2 38 -32 38h-20q-32 0 -32 -35q0 -21 23.5 -49t23.5 -32l-3 -10l-10 -4l-9 3l-4 9v4h-21
q0 -37 32 -37h19q33 0 33 35zM1514 -395v21h-47v130h-36v-151h83zM319 778v155h-18l-32 -18v-21h15v-116h35zM1398 -360v81q0 34 -32 34h-35q-33 0 -33 -33v-84q0 -33 33 -33h35q32 0 32 35zM349 643v61q0 36 -38 36h-35q-38 0 -38 -36v-34q0 -36 38 -36h18q9 0 14 6v-4
q0 -31 -52 -31v-22h31q24 0 43 18t19 42zM1264 -360q0 34 -21 41q21 8 21 32q0 43 -34 43h-66v-151h66q34 0 34 35zM336 388v21h-48v45h32v22h-32v45h48v21h-84v-154h84zM1127 -395v151h-19l-69 -69l-68 69h-11v-151h21v86l54 -55l55 55v-86h37zM349 224v84q0 36 -36 36h-39
q-36 0 -36 -34v-88q0 -34 36 -34h39q36 0 36 36zM929 -295v51h-37v-51l-4 -10l-9 -4l-10 4l-4 10v51h-37v-51q0 -30 32 -35v-65h37v65q32 5 32 35zM800 -360q0 21 -24 49t-24 31q2 5 4 11q4 2 11 4q11 0 13 -17h20q-2 38 -32 38h-19q-33 0 -33 -35q0 -21 23.5 -49t23.5 -32
l-3 -10l-10 -4l-9 3l-4 9v4h-21q0 -37 32 -37h19q33 0 33 35zM1492 1465l-4 -10l-10 -4h-13v43h13l10 -4l4 -10v-15zM2071 670l-4 -10l-11 -4l-10 4l-5 10v33l5 10l10 5l11 -5l4 -10v-33zM1390 899q0 -298 -213 -298q-217 0 -217 301q0 299 217 299q213 0 213 -302z
M1400 476q0 -49 -28 -94q-32 -50 -78 -50q-14 0 -81 33t-92 33q-38 0 -70 -32.5t-32 -70.5v-238q0 -53 22 -53q13 0 70 39.5t85 39.5q30 0 73.5 -19.5t58.5 -43.5v56l-21 -1q-33 -2 -54 36q-18 31 -18 67q0 85 81 85q80 0 80 -59v-285h-72q-12 32 -54.5 62t-76.5 30
q-6 0 -72 -46t-93 -46q-78 0 -78 101v280q0 64 51.5 116t115.5 52q38 0 95 -25q68 -30 92 -36q33 20 33 66q0 15 -12.5 43.5t-12.5 42.5q0 28 35 28q53 0 53 -111zM1362 -360l-4 -10l-10 -4l-9 4l-4 10v80l4 10l9 4l10 -4l4 -10v-80zM309 670l-5 -10l-10 -4l-11 4l-4 10v33
l4 10l11 5l10 -5l5 -10v-33zM1228 -295l-4 -10l-10 -4h-13v43h13l10 -4l4 -10v-15zM1228 -360l-4 -10l-10 -4h-13v44h13q14 0 14 -14v-16zM309 225l-5 -11l-10 -4l-11 4l-4 11v83l4 10l11 4l10 -4l5 -10v-83zM1318 899q0 240 -144 240q-142 0 -142 -237q0 -242 145 -242
q141 0 141 239zM1328 129v78q-38 0 -38 -42q0 -28 26 -39z" />
  </g>

</svg>
