<?xml version="1.0" standalone="no"?>
<!DOCTYPE svg PUBLIC "-//W3C//DTD SVG 1.1//EN" "http://www.w3.org/Graphics/SVG/1.1/DTD/svg11.dtd" >
<svg viewBox="0 -419 2154 2048">
  <g transform="matrix(1 0 0 -1 0 1638)">
   <path fill="currentColor"
d="M2154 -239q0 -74 -53 -127t-127 -53h-1598q-74 0 -127 53t-53 127v1599q0 74 53 127t127 53h1598q74 0 127 -53t53 -127v-1599zM1635 1365v21h-47v44h32v21h-32v43h47v22h-83v-151h83zM1526 1400q0 20 -23.5 48.5t-23.5 31.5q1 5 3 11q5 2 11 4q11 0 13 -17h20
q-2 38 -32 38h-19q-32 0 -32 -35q0 -20 23.5 -48.5t23.5 -32.5l-3 -10l-10 -4l-10 3l-4 9v4h-20q0 -37 32 -37h19q32 0 32 35zM2081 778v155h-18l-32 -18v-21h16v-116h34zM1413 1365v21h-47v44h32v21h-32v43h47v22h-83v-151h83zM2111 584v120q0 36 -36 36h-38q-36 0 -36 -34
v-122h40v67h30v-67h40zM1300 1365v151h-21v-78l-86 78h-10v-151h21v78l85 -78h11zM1146 1365v151h-33v-151h33zM2081 388v154h-18l-32 -17v-21h16v-116h34zM1076 1400v51h-53v-21h16v-30q0 -13 -13 -14l-10 4l-4 10v80l4 10l10 4h15q13 0 14 -16h21q-2 38 -35 38h-31
q-35 0 -35 -35v-81q0 -35 35 -35h31q35 0 35 35zM943 1400v116h-37v-116l-4 -10l-10 -4l-9 4l-4 10v116h-37v-118q0 -33 33 -33h35q33 0 33 35zM2098 326v21h-84v-154h36v66h32v22h-32v45h48zM815 1400q0 34 -21 41q21 8 21 32q0 43 -34 43h-66v-151h66q34 0 34 35z
M1959 -79v1279q0 59 -42.5 101.5t-101.5 42.5h-1280q-59 0 -101.5 -42.5t-42.5 -101.5v-1279q0 -59 42.5 -101.5t101.5 -42.5h1280q59 0 101.5 42.5t42.5 101.5zM1635 -395v21h-47v44h32v21h-32v43h47v22h-83v-151h83zM1526 -360q0 20 -23.5 48.5t-23.5 31.5q1 5 3 11
q5 2 11 4q11 0 13 -17h20q-2 38 -32 38h-19q-32 0 -32 -35q0 -20 23.5 -48.5t23.5 -32.5l-3 -10l-10 -4l-10 3l-4 9v4h-20q0 -37 32 -37h19q32 0 32 35zM319 778v155h-18l-32 -18v-21h15v-116h35zM1413 -395v21h-47v44h32v21h-32v43h47v22h-83v-151h83zM349 584v120
q0 36 -36 36h-38q-36 0 -36 -34v-122h40v67h30v-67h40zM1300 -395v151h-21v-78l-86 78h-10v-151h21v78l85 -78h11zM1146 -395v151h-33v-151h33zM349 421v85q0 36 -36 36h-39q-36 0 -36 -35v-87q0 -35 36 -35h39q36 0 36 36zM1076 -360v51h-53v-21h16v-30q0 -13 -13 -14
l-10 4l-4 10v80l4 10l10 4h15q13 0 14 -16h21q-2 38 -35 38h-31q-35 0 -35 -35v-81q0 -35 35 -35h31q35 0 35 35zM943 -360v116h-37v-116l-4 -10l-10 -4l-9 4l-4 10v116h-37v-118q0 -33 33 -33h35q33 0 33 35zM349 224v84q0 36 -36 36h-39q-36 0 -36 -34v-88q0 -34 36 -34
h39q36 0 36 36zM815 -360q0 34 -21 41q21 8 21 32q0 43 -34 43h-66v-151h66q34 0 34 35zM2071 673h-30v31l5 10l10 4l10 -4l5 -10v-31zM778 1465l-4 -10l-10 -4h-13v43h13l10 -4l4 -10v-15zM778 1400l-4 -10l-10 -4h-13v44h14q13 0 13 -14v-16zM1843 699
q0 -69 -350.5 -336.5t-437.5 -267.5q-29 0 -90.5 54.5t-61.5 82.5q0 14 68 77q97 90 265 218l273 209q174 140 201 140q26 0 79.5 -74t53.5 -103zM1415 867q-12 -16 -163 -134l-188 -146q-102 -94 -262 -241q-107 -98 -162 -98q-31 0 -82 60t-51 92q0 41 138 150
q28 22 180 140l205 192q154 144 210 144q16 0 175 -159zM309 673h-30v31l5 10l10 4l10 -4l5 -10v-31zM309 422l-5 -10l-10 -5l-11 5l-4 10v83l4 11l11 4l10 -4l5 -11v-83zM309 225l-5 -11l-10 -4l-11 4l-4 11v83l4 10l11 4l10 -4l5 -10v-83zM778 -295l-4 -10l-10 -4h-13v43
h13l10 -4l4 -10v-15zM778 -360l-4 -10l-10 -4h-13v44h14q13 0 13 -14v-16z" />
  </g>

</svg>
