<?xml version="1.0" standalone="no"?>
<!DOCTYPE svg PUBLIC "-//W3C//DTD SVG 1.1//EN" "http://www.w3.org/Graphics/SVG/1.1/DTD/svg11.dtd" >
<svg viewBox="0 -419 2155 2048">
  <g transform="matrix(1 0 0 -1 0 1638)">
   <path fill="currentColor"
d="M2155 -239q0 -74 -53 -127t-127 -53h-1599q-74 0 -127 53t-53 127v1599q0 74 53 127t127 53h1599q74 0 127 -53t53 -127v-1599zM1623 1365v21h-47v44h31v21h-31v43h47v22h-84v-151h84zM1514 1400q0 20 -23.5 48.5t-23.5 31.5q1 5 3 11q4 2 11 4q11 0 13 -17h20
q-2 38 -32 38h-19q-33 0 -33 -35q0 -20 24 -48.5t24 -32.5l-3 -10l-11 -4l-9 3l-4 9v4h-21q0 -37 32 -37h20q32 0 32 35zM2081 778v155h-18l-32 -18v-21h16v-116h34zM1401 1365v21h-47v44h31v21h-31v43h47v22h-84v-151h84zM2112 620q0 36 -24 43q24 8 24 33q0 44 -38 44h-73
v-156h73q38 0 38 36zM1287 1365v151h-20v-78l-86 78h-11v-151h21v78l86 -78h10zM1135 1365v151h-33v-151h33zM2107 506v36h-101v-21h64v-14q-32 -66 -32 -84v-35h37q0 54 21 96zM1070 1365v21h-48v130h-36v-151h84zM955 1365v116q0 35 -32 35h-36q-32 0 -32 -34v-117h36v65
h28v-65h36zM2098 326v21h-84v-154h36v66h32v22h-32v45h48zM827 1400q0 34 -21 41q21 8 21 32q0 43 -34 43h-66v-151h66q34 0 34 35zM1959 -79v1279q0 59 -42.5 101.5t-101.5 42.5h-1280q-59 0 -101.5 -42.5t-42.5 -101.5v-1279q0 -59 42.5 -101.5t101.5 -42.5h1280
q59 0 101.5 42.5t42.5 101.5zM1623 -396v21h-47v44h31v21h-31v44h47v21h-84v-151h84zM1514 -361q0 20 -23.5 48.5t-23.5 32.5q1 4 3 10q4 2 11 4q11 0 13 -16h20q-2 37 -32 37h-19q-33 0 -33 -35q0 -20 24 -48.5t24 -32.5l-3 -10l-11 -4l-9 3l-4 9v4h-21q0 -37 32 -37h20
q32 0 32 35zM319 778v155h-18l-32 -18v-21h15v-116h35zM1401 -396v21h-47v44h31v21h-31v44h47v21h-84v-151h84zM349 620q0 36 -23 43q23 8 23 33q0 44 -38 44h-73v-156h73q38 0 38 36zM1287 -396v151h-20v-78l-86 78h-11v-151h21v78l86 -78h10zM1135 -396v151h-33v-151h33z
M349 421v85q0 36 -36 36h-39q-36 0 -36 -35v-87q0 -35 36 -35h39q36 0 36 36zM1070 -396v21h-48v130h-36v-151h84zM955 -396v116q0 35 -32 35h-36q-32 0 -32 -33v-118h36v65h28v-65h36zM349 224v84q0 36 -36 36h-39q-36 0 -36 -34v-88q0 -34 36 -34h39q36 0 36 36zM827 -361
q0 34 -21 41q21 8 21 32q0 43 -34 43h-66v-151h66q34 0 34 35zM2071 688l-4 -11l-11 -4h-15v45h15l11 -4l4 -10v-16zM2071 620l-4 -10l-11 -4h-15v45h15q15 0 15 -14v-17zM919 1451h-28v29l5 10l9 4l9 -4l5 -10v-29zM791 1465l-4 -10l-10 -4h-13v43h13l10 -4l4 -10v-15z
M791 1400l-4 -10l-10 -4h-13v44h13q14 0 14 -14v-16zM1822 411q0 -79 -2 -202h-50v330q0 75 -7 133l-34 65l-52 34l-17 -17v-119q0 -198 -14 -337q-9 -91 -97 -91q-49 0 -76 72q-19 52 -19 112l1 247q0 60 -27 89q-24 24 -85 39q-83 20 -127 20q-224 0 -297 -111l22 1
q143 6 265 -89q129 -102 129 -242q0 -136 -227 -136q-68 0 -147 46q-84 48 -107 108q-16 41 -18 118q-22 -1 -67 -5v-164q0 -43 -30.5 -73t-73.5 -30t-69 34q-24 31 -24 75q0 154 149 281q0 12 1.5 36.5t1.5 36.5q0 105 -64 105q-54 0 -72 -50q-7 -46 -15 -93l-38 14
q-7 38 -7 82q0 66 30 115q35 58 97 58q116 0 116 -181q0 -15 -1 -44.5t-1 -44.5q34 20 73 30q22 123 125 190q92 61 223 61q113 0 204 -49q112 -60 112 -162v-391q0 -34 44 -34q37 0 45 30q20 76 20 466q0 74 -65 114q72 8 77 8q45 0 84 -18q75 -35 97 -103q11 -35 12 -144
q0 -11 1 -73q0 -11 1 -41v-31v-75zM309 688l-5 -11l-11 -4h-14v45h14l11 -4l5 -10v-16zM309 620l-5 -10l-11 -4h-14v45h15q15 0 15 -14v-17zM309 422l-5 -10l-10 -5l-11 5l-4 10v83l4 11l11 4l10 -4l5 -11v-83zM919 -310h-28v30l5 10l9 4l9 -4l5 -10v-30zM309 225l-5 -11
l-10 -4l-11 4l-4 11v83l4 10l11 4l10 -4l5 -10v-83zM791 -296l-4 -10l-10 -4h-13v44h13l10 -4l4 -10v-16zM791 -360l-4 -10l-10 -5h-13v44h13q14 0 14 -14v-15zM1269 350q0 76 -144 112q-96 24 -210 24h-14v-14q0 -66 15 -102q23 -55 80 -91t118 -36q76 0 108 16
q47 23 47 91zM721 319v142q-98 -53 -98 -129q0 -22 17.5 -43.5t38.5 -21.5q42 0 42 52z" />
  </g>

</svg>
