<?xml version="1.0" standalone="no"?>
<!DOCTYPE svg PUBLIC "-//W3C//DTD SVG 1.1//EN" "http://www.w3.org/Graphics/SVG/1.1/DTD/svg11.dtd" >
<svg viewBox="0 -419 2155 2048">
  <g transform="matrix(1 0 0 -1 0 1638)">
   <path fill="currentColor"
d="M2155 -239q0 -75 -52.5 -127.5t-127.5 -52.5h-1599q-75 0 -127.5 52.5t-52.5 127.5v1599q0 75 52.5 127.5t127.5 52.5h1599q75 0 127.5 -52.5t52.5 -127.5v-1599zM1865 1400v51h-53v-21h16v-30q0 -13 -13 -14l-10 4l-4 10v80l4 10l10 4h15q12 0 14 -16h21q-2 38 -35 38
h-32q-34 0 -34 -35v-81q0 -35 34 -35h32q35 0 35 35zM1737 1365v151h-21v-78l-86 78h-10v-151h21v78l85 -78h11zM2081 978v155h-18l-32 -18v-20h16v-117h34zM1586 1365v151h-33v-151h33zM2112 817v84q0 37 -36 37h-75v-157h75q36 0 36 36zM1519 1398v118h-36v-116l-5 -10
l-9 -4l-9 4l-5 10v35h-36v-37q0 -33 32 -33h36q32 0 32 33zM1352 1365v151h-21v-78l-86 78h-10v-151h20v78l86 -78h11zM2107 617v35q0 33 -43 35l43 30v20h-101v-21h59l-43 -30v-20l25 1q23 1 23 -15v-33l-4 -10l-10 -5h-15q-13 0 -14 17h-21q4 -38 33 -38h35q33 0 33 34z
M1203 1365v116q0 35 -33 35h-35q-33 0 -33 -34v-117h37v65h27v-65h37zM2106 424v33q0 36 -64 36v28h64v21h-100v-71h49l10 -4l5 -11v-32l-5 -10l-10 -4h-15q-13 0 -14 16h-20q4 -38 34 -38h32q34 0 34 36zM1074 1400v116h-37v-116l-4 -10l-10 -4l-9 4l-4 10v116h-37v-118
q0 -33 33 -33h35q33 0 33 35zM945 1365v43q0 25 -23 32q23 8 23 33v43h-36v-51l-5 -10l-9 -4l-9 4l-5 10v51h-36v-43q0 -25 23 -33q-23 -7 -23 -32v-43h36v50l5 11l9 4l9 -4l5 -11v-50h36zM2098 326v21h-84v-154h36v66h32v22h-32v45h48zM778 1365v151h-34v-151h34zM719 1365
v116q0 35 -32 35h-35q-33 0 -33 -34v-117h37v65h27v-65h36zM586 1494v22h-101v-22h32v-129h37v129h32zM1959 -79v1279q0 60 -42 102t-102 42h-1280q-60 0 -102 -42t-42 -102v-1279q0 -60 42 -102t102 -42h1280q60 0 102 42t42 102zM319 978v155h-18l-32 -18v-20h15v-117h35z
M1634 -360q0 21 -24 49t-24 31q2 5 4 11q4 2 11 4q11 0 13 -17h20q-2 38 -32 38h-20q-32 0 -32 -35q0 -21 23.5 -49t23.5 -32l-3 -10l-10 -4l-9 3l-4 9v4h-21q0 -23 15 -33l56 4q13 11 13 27zM349 817v84q0 37 -36 37h-75v-157h75q36 0 36 36zM1514 -393v19h-47v130h-36
v-151h15q14 0 68 2zM1398 -360v81q0 34 -32 34h-35q-33 0 -33 -33v-84q0 -33 33 -33h35q32 0 32 35zM344 617v35q0 33 -43 35l43 30v20h-101v-21h59l-43 -30v-20l25 1q23 1 23 -15v-33l-4 -10l-10 -5h-15q-13 0 -14 17h-21q4 -38 33 -38h35q33 0 33 34zM1264 -360
q0 34 -21 41q21 8 21 32q0 43 -34 43h-66v-151h66q34 0 34 35zM349 421v85q0 36 -36 36h-39q-36 0 -36 -35v-87q0 -35 36 -35h39q36 0 36 36zM1127 -395v151h-19l-69 -69l-68 69h-11v-151h21v86l54 -55l55 55v-86h37zM349 224v84q0 36 -36 36h-39q-36 0 -36 -34v-88
q0 -34 36 -34h39q36 0 36 36zM929 -295v51h-37v-51l-4 -10l-9 -4l-10 4l-4 10v51h-37v-51q0 -30 32 -35v-64l37 -1v65q32 5 32 35zM800 -360q0 21 -24 49t-24 31q2 5 4 11q4 2 11 4q11 0 13 -17h20q-2 38 -32 38h-19q-33 0 -33 -35q0 -21 23.5 -49t23.5 -32q-1 -4 -3 -10
l-10 -4l-9 3l-4 9v4h-21q0 -20 11 -30q26 -2 55 -3q18 10 18 31zM2071 818l-4 -11l-11 -4h-15v113h15l11 -5l4 -10v-83zM1166 1451h-27v29l4 10l9 4l10 -4l4 -10v-29zM1657 992h-964v173h964v-173zM683 1451h-27v29l4 10l9 4l10 -4l4 -10v-29zM1657 647h-964v172h964v-172z
M1657 302h-964v172h964v-172zM1657 -44h-964v173h964v-173zM309 818l-5 -11l-11 -4h-14v113h14l11 -5l5 -10v-83zM1362 -360l-4 -10l-10 -4l-9 4l-4 10v80l4 10l9 4l10 -4l4 -10v-80zM1228 -295l-4 -10l-10 -4h-13v43h13l10 -4l4 -10v-15zM1228 -360l-4 -10l-10 -4h-13v44
h13q14 0 14 -14v-16zM309 422l-5 -10l-10 -5l-11 5l-4 10v83l4 11l11 4l10 -4l5 -11v-83zM309 225l-5 -11l-10 -4l-11 4l-4 11v83l4 10l11 4l10 -4l5 -10v-83z" />
  </g>

</svg>
