<?xml version="1.0" standalone="no"?>
<!DOCTYPE svg PUBLIC "-//W3C//DTD SVG 1.1//EN" "http://www.w3.org/Graphics/SVG/1.1/DTD/svg11.dtd" >
<svg viewBox="0 -419 2154 2048">
  <g transform="matrix(1 0 0 -1 0 1638)">
   <path fill="currentColor"
d="M2154 -239q0 -75 -52.5 -127.5t-127.5 -52.5h-1598q-75 0 -127.5 52.5t-52.5 127.5v1599q0 75 52.5 127.5t127.5 52.5h1598q75 0 127.5 -52.5t52.5 -127.5v-1599zM1641 1402h-21q-2 -16 -14 -16h-15l-10 4l-4 10v80l4 10l10 4h15q12 0 14 -16h21q-2 37 -35 37h-32
q-34 0 -34 -35v-81q0 -34 34 -34h32q32 0 35 37zM1511 1365v150h-34v-150h34zM2081 778v155h-18l-32 -18v-21h16v-116h34zM1445 1494v22h-100v-22h31v-129h37v129h32zM2112 620v84q0 36 -36 36h-75v-156h75q36 0 36 36zM1311 1365v21h-48v44h32v21h-32v43h48v22h-84v-151h84
zM1198 1365v151h-21v-78l-86 78h-10v-151h21v78l85 -78h11zM2112 421q0 36 -24 43q24 8 24 33q0 45 -38 45h-73v-157h73q38 0 38 36zM1060 1400v81q0 34 -33 34h-35q-32 0 -32 -33v-84q0 -33 32 -33h35q33 0 33 35zM2106 317v28h-102v-157h41v66h47v28h-47v35h61zM928 1365
v151h-36v-65h-27v65h-37v-151h37v65h27v-65h36zM810 1463v18q0 34 -33 34l-68 1v-151h37v65h13q51 0 51 33zM1959 -79v1279q0 59 -42.5 101.5t-101.5 42.5h-1280q-59 0 -101.5 -42.5t-42.5 -101.5v-1279q0 -59 42.5 -101.5t101.5 -42.5h1280q59 0 101.5 42.5t42.5 101.5z
M1611 -395v34h-33v-34h33zM1579 -297v18q0 35 -33 35h-67v-151h36v65q64 -1 64 33zM319 778v155h-18l-32 -18v-21h15v-116h35zM1440 -360v116h-37v-116l-4 -10l-9 -4l-10 4l-4 10v116h-36v-118q0 -33 32 -33h35q33 0 33 35zM349 620v84q0 36 -36 36h-75v-156h75q36 0 36 36z
M1312 -360q0 28 -24 49l-9 8q-21 19 -11 34q6 4 11 4q11 0 13 -17h20q-2 38 -32 38h-19q-33 0 -33 -35q0 -25 24 -49l9 -9q14 -14 14 -25q0 -4 -2 -8q-6 -4 -11 -4q-2 0 -4 1l-5 2l-4 9v4h-21q0 -37 33 -37h19q32 0 32 35zM350 421q0 36 -24 43q24 8 24 33q0 45 -38 45h-35
q-38 0 -38 -36q0 -35 24 -42q-24 -9 -24 -34q0 -45 38 -45h35q38 0 38 36zM1140 -395v34h-33v-34h33zM1099 -266v22h-101v-22h32v-129h37v129h32zM957 -395v43q0 25 -23 32q23 8 23 33v43h-36v-51l-4 -10l-10 -4l-9 4l-4 10v51h-37v-43q0 -25 23 -33q-23 -7 -23 -32v-43h37
v50l4 11l9 4l10 -4l4 -11v-50h36zM349 224v84q0 36 -36 36h-39q-36 0 -36 -34v-88q0 -34 36 -34h39q36 0 36 36zM823 -395v21h-48v44h32v21h-32v43h48v22h-84v-151h84zM2071 620l-4 -10l-11 -4h-15v112h15l11 -4l4 -10v-84zM2071 489l-4 -10l-11 -4h-15v45h15l11 -4l4 -11
v-16zM2071 422l-4 -10l-11 -5h-15v46h15q15 0 15 -15v-16zM1023 1400l-4 -10l-9 -4l-10 4l-4 10v80l4 10l10 4l9 -4l4 -10v-80zM773 1465l-4 -10l-10 -4h-13v43h13l10 -4l4 -10v-15zM1716 -71q0 -101 -164 -101q-139 0 -186 85q-33 59 -33 205v38q-39 -12 -77 -12
q-121 0 -147 166q-128 -166 -288 -166q-83 0 -135 54t-52 137q0 126 179 210q59 28 285 94v114q0 96 -29 138q-35 50 -127 50q-79 0 -109 -37q-25 -32 -25 -114l-157 -51v22q0 112 124 183q105 60 226 60q119 0 174 -47q59 -51 59 -168v-346q0 -119 14 -155q25 -63 112 -63
q18 0 38 2l4 2q1 -7 -4 -186q10 -150 79 -150q29 0 82.5 52.5t85.5 52.5q71 0 71 -69zM1542 -295l-4 -10l-10 -4h-13v43h13l10 -4l4 -10v-15zM309 620l-5 -10l-11 -4h-14v112h14l11 -4l5 -10v-84zM310 489l-5 -10l-11 -4l-10 4l-5 10v16l5 11l10 4l11 -4l5 -11v-16zM310 422
l-5 -10l-11 -5l-10 5l-5 10v16q0 15 15 15q16 0 16 -15v-16zM309 225l-5 -11l-10 -4l-11 4l-4 11v83l4 10l11 4l10 -4l5 -10v-83zM1098 444v146q-172 -54 -203 -70q-114 -59 -114 -162q0 -52 35 -91t87 -39q87 0 142 66q53 62 53 150z" />
  </g>

</svg>
