<?xml version="1.0" standalone="no"?>
<!DOCTYPE svg PUBLIC "-//W3C//DTD SVG 1.1//EN" "http://www.w3.org/Graphics/SVG/1.1/DTD/svg11.dtd" >
<svg viewBox="0 -419 2154 2048">
  <g transform="matrix(1 0 0 -1 0 1638)">
   <path fill="currentColor"
d="M2154 -239q0 -74 -53 -127t-127 -53h-1598q-74 0 -127 53t-53 127v1599q0 74 53 127t127 53h1598q74 0 127 -53t53 -127v-1599zM1741 1400v51h-52v-21h16v-30q0 -13 -13 -14l-10 4l-4 10v80l4 10l10 4h15q12 0 14 -16h20q-2 38 -34 38h-32q-34 0 -34 -35v-81
q0 -35 34 -35h32q34 0 34 35zM1599 1365v151h-21v-78l-85 78h-11v-151h21v78l86 -78h10zM2081 778v155h-18l-32 -18v-21h16v-116h34zM1445 1365v151h-33v-151h33zM1381 1365v151h-21v-78l-86 78h-10v-151h21v78l85 -78h11zM2112 620v84q0 36 -36 36h-75v-156h75q36 0 36 36z
M1230 1365v151h-33v-151h33zM1161 1400q0 34 -21 41q21 8 21 32q0 43 -34 43h-66v-151h66q34 0 34 35zM2098 521v21h-84v-154h36v66h32v22h-32v45h48zM1030 1365v151h-20l-68 -69l-68 69h-11v-151h21v86l54 -55l55 55v-86h37zM2106 317v28h-102v-157h41v66h47v28h-47v35h61z
M837 1400v81q0 34 -33 34h-35q-33 0 -33 -33v-84q0 -33 33 -33h35q33 0 33 35zM709 1402h-21q-1 -16 -13 -16h-16l-10 4l-4 10v80l4 10l10 4h16q12 0 13 -16h21q-2 38 -34 38h-32q-34 0 -34 -35v-81q0 -35 34 -35h32q32 0 34 37zM1959 -79v1279q0 59 -42.5 101.5
t-101.5 42.5h-1280q-59 0 -101.5 -42.5t-42.5 -101.5v-1279q0 -59 42.5 -101.5t101.5 -42.5h1280q59 0 101.5 42.5t42.5 101.5zM1947 -395v34h-33v-34h33zM1915 -297v18q0 35 -33 35h-67v-151h36v65q64 -1 64 33zM1776 -360v116h-37v-116l-4 -10l-9 -4l-10 4l-4 10v116h-36
v-118q0 -33 32 -33h35q33 0 33 35zM1648 -360q0 28 -24 49l-9 8q-21 19 -11 34q6 4 11 4q11 0 13 -17h20q-2 38 -32 38h-19q-33 0 -33 -35q0 -25 24 -49l9 -9q14 -14 14 -25q0 -4 -2 -8q-6 -4 -11 -4q-2 0 -4 1l-5 2l-4 9v4h-21q0 -37 32 -37h20q32 0 32 35zM319 778v155
h-18l-32 -18v-21h15v-116h35zM1493 -360q0 28 -24 49l-9 8q-21 19 -11 34q6 4 11 4q11 0 13 -17h20q-2 38 -32 38h-19q-33 0 -33 -35q0 -25 24 -49l9 -9q14 -14 14 -25q0 -4 -2 -8q-6 -4 -11 -4q-2 0 -4 1l-5 2l-4 9v4h-21q0 -37 32 -37h20q32 0 32 35zM1380 -358h-21
q-2 -16 -14 -16h-15l-10 4l-4 10v80l4 10l10 4h15q12 0 14 -16h21q-2 38 -35 38h-32q-34 0 -34 -35v-81q0 -35 34 -35h32q32 0 35 37zM349 620v84q0 36 -36 36h-75v-156h75q36 0 36 36zM1250 -395v151h-34v-151h34zM1180 -266v22h-100v-22h32v-129h36v129h32zM344 426h-20
q-2 -17 -14 -17h-16l-9 5l-5 10v82l5 10l9 5h16q12 0 14 -17h20q-2 38 -34 38h-32q-34 0 -34 -36v-83q0 -35 34 -35h32q32 0 34 38zM1045 -395v151h-34v-151h34zM981 -395v60l-5 13l-11 5q16 8 16 29q0 44 -32 44h-68v-151h37v65h13l10 -4l4 -11v-50h36zM349 224v84
q0 36 -36 36h-39q-36 0 -36 -34v-88q0 -34 36 -34h39q36 0 36 36zM844 -358h-21q-2 -16 -14 -16h-15l-10 4l-4 10v80l4 10l10 4h15q12 0 14 -16h20q-2 38 -34 38h-32q-34 0 -34 -35v-81q0 -35 34 -35h32q32 0 35 37zM710 -395v116q0 35 -33 35h-35q-32 0 -32 -34v-117h36v65
h27v-65h37zM573 -395v151h-34v-151h34zM503 -360v81q0 35 -32 35h-68v-151h68q32 0 32 35zM2071 620l-4 -10l-11 -4h-15v112h15l11 -4l4 -10v-84zM1124 1465l-4 -10l-10 -4h-13v43h13l10 -4l4 -10v-15zM1124 1400l-4 -10l-10 -4h-13v44h14q13 0 13 -14v-16zM1361 1192
q0 -63 -64 -63t-64 63q0 65 64 65t64 -65zM1284 1013h-64l-166 230h64zM800 1400l-4 -10l-9 -4l-10 4l-4 10v80l4 10l10 4l9 -4l4 -10v-80zM1439 796q0 -12 -8 -26q-21 -37 -58 -15t-16 58q22 38 59 16q23 -13 23 -33zM1591 651q20 -35 -15 -56t-57 15q-21 36 16 57
q8 4 13 6q26 8 43 -22zM1117 1054q0 -63 -64 -63t-64 63q0 26 19 45.5t45 19.5t45 -19.5t19 -45.5zM1656 412q0 -43 -41 -43q-43 0 -43 43q0 42 43 42q41 0 41 -42zM1217 850q0 -43 -41 -43q-43 0 -43 43t43 43q41 0 41 -43zM993 813q21 -36 -16 -58t-58 15q-22 38 15 59
t59 -16zM1591 170q-20 -36 -56 -16q-38 21 -16 59q21 36 57 15t15 -58zM1878 -295l-4 -10l-10 -4h-13v43h13l10 -4l4 -10v-15zM831 610q-22 -36 -57 -15t-15 56q17 30 43 22q5 -2 13 -6q37 -21 16 -57zM1431 53q22 -38 -15 -59q-37 -22 -59 16q-21 36 16 58q37 21 58 -15z
M778 412q0 -43 -43 -43q-41 0 -41 43q0 42 41 42q43 0 43 -42zM1217 -27q0 -43 -41 -43q-43 0 -43 43q0 41 43 41q41 0 41 -41zM993 10q-22 -38 -59 -16q-37 21 -15 59q21 36 58 15q37 -22 16 -58zM831 213q22 -38 -16 -59q-36 -20 -56 16q-21 37 15 58t57 -15zM309 620
l-5 -10l-11 -4h-14v112h14l11 -4l5 -10v-84zM945 -295l-4 -10l-10 -4h-13v43h13l10 -4l4 -10v-15zM309 225l-5 -11l-10 -4l-11 4l-4 11v83l4 10l11 4l10 -4l5 -10v-83zM673 -309h-27v29l4 10l10 4l9 -4l4 -10v-29zM467 -360l-4 -10l-10 -4h-13v108h13l10 -4l4 -10v-80z" />
  </g>

</svg>
