<?xml version="1.0" standalone="no"?>
<!DOCTYPE svg PUBLIC "-//W3C//DTD SVG 1.1//EN" "http://www.w3.org/Graphics/SVG/1.1/DTD/svg11.dtd" >
<svg viewBox="0 -419 2155 2048">
  <g transform="matrix(1 0 0 -1 0 1638)">
   <path fill="currentColor"
d="M2155 -239q0 -75 -52.5 -127.5t-127.5 -52.5h-1599q-75 0 -127.5 52.5t-52.5 127.5v1599q0 75 52.5 127.5t127.5 52.5h1599q75 0 127.5 -52.5t52.5 -127.5v-1599zM1949 1365v34h-34v-34h34zM1889 1400v81q0 35 -33 35h-68v-151h68q33 0 33 35zM1767 1400v81q0 35 -33 35
h-68v-151h68q33 0 33 35zM1641 1365v116q0 35 -32 35h-36q-32 0 -32 -34v-117h36v65h28v-65h36zM2081 778v155h-18l-32 -18v-21h16v-116h34zM1439 1365v34h-33v-34h33zM1398 1494v22h-101v-22h32v-129h37v129h32zM2098 583v22h-47v45h31v21h-31v45h47v22h-84v-155h84z
M1256 1365v43q0 25 -23 32q23 8 23 33v43h-36v-51l-4 -10l-10 -4l-9 4l-4 10v51h-37v-43q0 -25 23 -33q-23 -7 -23 -32v-43h37v50l4 11l9 4l10 -4l4 -11v-50h36zM2098 521v21h-84v-154h36v66h32v22h-32v45h48zM1122 1365v21h-48v44h32v21h-32v43h48v22h-84v-151h84z
M2106 317v28h-102v-157h41v66h47v28h-47v35h61zM938 1365v151h-21v-78l-85 78h-11v-151h21v78l86 -78h10zM791 1365v151h-33v-151h33zM729 1494v22h-101v-22h32v-129h37v129h32zM609 1365v116q0 35 -32 35h-35q-33 0 -33 -34v-117h37v65h27v-65h36zM485 1365v21h-47v130h-37
v-151h84zM1959 -79v1279q0 60 -42 102t-102 42h-1280q-60 0 -102 -42t-42 -102v-1279q0 -60 42 -102t102 -42h1280q60 0 102 42t42 102zM1949 -395v34h-34v-34h34zM1889 -360v81q0 35 -33 35h-68v-151h68q33 0 33 35zM1767 -360v81q0 35 -33 35h-68v-151h68q33 0 33 35z
M1641 -395v116q0 35 -32 35h-36q-32 0 -32 -34v-117h36v65h28v-65h36zM319 778v155h-18l-32 -18v-21h15v-116h35zM1439 -395v34h-33v-34h33zM1398 -266v22h-101v-22h32v-129h37v129h32zM336 583v22h-48v45h32v21h-32v45h48v22h-84v-155h84zM1256 -395v43q0 25 -23 32
q23 8 23 33v43h-36v-51l-4 -10l-10 -4l-9 4l-4 10v51h-37v-43q0 -25 23 -33q-23 -7 -23 -32v-43h37v50l4 11l9 4l10 -4l4 -11v-50h36zM1122 -395v21h-48v44h32v21h-32v43h48v22h-84v-151h84zM349 421v85q0 36 -36 36h-39q-36 0 -36 -35v-87q0 -35 36 -35h39q36 0 36 36z
M938 -395v151h-21v-78l-85 78h-11v-151h21v78l86 -78h10zM349 224v84q0 36 -36 36h-39q-36 0 -36 -34v-88q0 -34 36 -34h39q36 0 36 36zM791 -395v151h-33v-151h33zM729 -266v22h-101v-22h32v-129h37v129h32zM609 -395v116q0 35 -32 35h-35q-33 0 -33 -34v-117h37v65h27v-65
h36zM485 -395v21h-47v130h-37v-151h84zM1852 1400l-4 -10l-10 -4h-13v108h13l10 -4l4 -10v-80zM1730 1400l-4 -10l-10 -4h-13v108h13l10 -4l4 -10v-80zM1605 1451h-28v29l5 10l9 4l9 -4l5 -10v-29zM1404 1065h-124l-105 39l-114 -39h-115l209 129h40zM573 1451h-27v29l4 10
l9 4l10 -4l4 -10v-29zM1673 0h-294v40q77 0 77 38q0 19 -91 236h-432q-88 -212 -88 -228q0 -37 77 -46v-40h-245v40q54 0 85 40q17 21 45 90l351 855h41l363 -855q29 -68 39 -84q29 -46 72 -46v-40zM1852 -360l-4 -10l-10 -4h-13v108h13l10 -4l4 -10v-80zM1730 -360l-4 -10
l-10 -4h-13v108h13l10 -4l4 -10v-80zM1605 -309h-28v29l5 10l9 4l9 -4l5 -10v-29zM1260 -82q0 -35 -25 -60t-60 -25t-60 25t-25 60t25 60t60 25t60 -25t25 -60zM309 422l-5 -10l-10 -5l-11 5l-4 10v83l4 11l11 4l10 -4l5 -11v-83zM309 225l-5 -11l-10 -4l-11 4l-4 11v83
l4 10l11 4l10 -4l5 -10v-83zM573 -309h-27v29l4 10l9 4l10 -4l4 -10v-29zM1340 363l-199 469l-190 -469h389z" />
  </g>

</svg>
