<?xml version="1.0" standalone="no"?>
<!DOCTYPE svg PUBLIC "-//W3C//DTD SVG 1.1//EN" "http://www.w3.org/Graphics/SVG/1.1/DTD/svg11.dtd" >
<svg viewBox="0 -419 2155 2048">
  <g transform="matrix(1 0 0 -1 0 1638)">
   <path fill="currentColor"
d="M2155 -239q0 -75 -52.5 -127.5t-127.5 -52.5h-1599q-75 0 -127.5 52.5t-52.5 127.5v1599q0 75 52.5 127.5t127.5 52.5h1599q75 0 127.5 -52.5t52.5 -127.5v-1599zM1711 1365v34h-33v-34h33zM1670 1494v22h-101v-22h32v-129h37v129h32zM1528 1365v43q0 25 -23 32
q23 8 23 33v43h-36v-51l-5 -10l-9 -4l-9 4l-5 10v51h-36v-43q0 -25 23 -33q-23 -7 -23 -32v-43h36v50l5 11l9 4l9 -4l5 -11v-50h36zM2081 778v155h-18l-32 -18v-21h16v-116h34zM1393 1365v21h-47v44h32v21h-32v43h47v22h-83v-151h83zM2098 716v22h-84v-155h36v67h32v21h-32
v45h48zM1239 1365l-66 75l66 76h-35l-48 -56v56h-37v-151h37v53l44 -53h39zM2098 521v21h-84v-154h36v66h32v22h-32v45h48zM1094 1365v21h-48v44h32v21h-32v43h48v22h-84v-151h84zM983 1365v21h-48v44h32v21h-32v43h48v22h-84v-151h84zM2106 317v28h-102v-157h41v66h47v28
h-47v35h61zM870 1365v60l-5 13l-11 5q16 8 16 29q0 44 -32 44h-68v-151h37v65h13l10 -4l4 -11v-50h36zM739 1400v51h-52v-21h15v-30q0 -13 -13 -14l-10 4l-4 10v80l4 10l10 4h16q12 0 14 -16h20q-2 38 -34 38h-32q-34 0 -34 -35v-81q0 -35 34 -35h32q34 0 34 35zM1959 -79
v1279q0 60 -42 102t-102 42h-1280q-60 0 -102 -42t-42 -102v-1279q0 -60 42 -102t102 -42h1280q60 0 102 42t42 102zM1711 -395v34h-33v-34h33zM1670 -266v22h-101v-22h32v-129h37v129h32zM1528 -395v43q0 25 -23 32q23 8 23 33v43h-36v-51l-5 -10l-9 -4l-9 4l-5 10v51h-36
v-43q0 -25 23 -33q-23 -7 -23 -32v-43h36v50l5 11l9 4l9 -4l5 -11v-50h36zM319 778v155h-18l-32 -18v-21h15v-116h35zM1393 -395v21h-47v44h32v21h-32v43h47v22h-83v-151h83zM336 716v22h-84v-155h36v67h32v21h-32v45h48zM1239 -395l-66 75l66 76h-35l-48 -56v56h-37v-151
h37v53l44 -53h39zM349 421v85q0 36 -36 36h-39q-36 0 -36 -35v-87q0 -35 36 -35h39q36 0 36 36zM1094 -395v21h-48v44h32v21h-32v43h48v22h-84v-151h84zM983 -395v21h-48v44h32v21h-32v43h48v22h-84v-151h84zM349 224v84q0 36 -36 36h-39q-36 0 -36 -34v-88q0 -34 36 -34h39
q36 0 36 36zM870 -395v60l-5 13l-11 5q16 8 16 29q0 44 -32 44h-68v-151h37v65h13l10 -4l4 -11v-50h36zM739 -360v51h-52v-21h15v-30q0 -13 -13 -14l-10 4l-4 10v80l4 10l10 4h16q12 0 14 -16h20q-2 38 -34 38h-32q-34 0 -34 -35v-81q0 -35 34 -35h32q34 0 34 35zM834 1465
l-4 -10l-10 -4h-13v43h13l10 -4l4 -10v-15zM1833 38q-2 -29 -30.5 -54.5t-57.5 -25.5q-65 0 -65 117v161h79v-155q0 -53 38 -53q17 0 36 10zM1625 189l-20 -189h-396v97q214 158 214 456q0 180 -78 306q-93 150 -261 150q-167 0 -260 -150q-79 -128 -79 -306
q0 -298 215 -456v-97h-395l-21 189h52q5 -67 70 -85q25 -7 121 -7h115q-299 181 -299 451q0 214 132 356q136 146 349 146t348 -144t135 -358q0 -269 -300 -451h115q96 0 122 7q64 17 70 85h51zM671 988q0 -125 -154 -218v32q75 48 81 151l-81 41q11 81 81 81q73 0 73 -87z
M309 422l-5 -10l-10 -5l-11 5l-4 10v83l4 11l11 4l10 -4l5 -11v-83zM309 225l-5 -11l-10 -4l-11 4l-4 11v83l4 10l11 4l10 -4l5 -10v-83zM834 -295l-4 -10l-10 -4h-13v43h13l10 -4l4 -10v-15z" />
  </g>

</svg>
