<?xml version="1.0" standalone="no"?>
<!DOCTYPE svg PUBLIC "-//W3C//DTD SVG 1.1//EN" "http://www.w3.org/Graphics/SVG/1.1/DTD/svg11.dtd" >
<svg viewBox="0 -419 2155 2048">
  <g transform="matrix(1 0 0 -1 0 1638)">
   <path fill="currentColor"
d="M2155 -239q0 -75 -52.5 -127.5t-127.5 -52.5h-1599q-75 0 -127.5 52.5t-52.5 127.5v1599q0 75 52.5 127.5t127.5 52.5h1599q75 0 127.5 -52.5t52.5 -127.5v-1599zM1596 1365v21h-47v130h-37v-151h84zM2107 778v22h-64q2 11 33 42.5t31 45.5q0 45 -35 45h-32
q-30 0 -34 -39h21q0 17 13 17h16l10 -4l4 -11q0 -19 -32 -51.5t-32 -47.5v-19h101zM1485 1365v116q0 35 -33 35h-35q-33 0 -33 -34v-117h37v65h27v-65h37zM1352 1365v60l-6 13l-11 5q17 8 17 29q0 44 -33 44h-68v-151h37v65h13l10 -4l4 -11v-50h37zM2112 620v84q0 36 -36 36
h-39q-36 0 -36 -34v-88q0 -34 36 -34h39q36 0 36 36zM1219 1365v21h-47v44h31v21h-31v43h47v22h-84v-151h84zM2111 422v33q0 37 -37 37h-18q-6 -2 -14 -5l-1 -2v4q0 31 53 31v22h-31q-24 0 -43 -17.5t-19 -41.5v-61q0 -36 37 -36h36q37 0 37 36zM1109 1365v151h-20v-78
l-86 78h-11v-151h21v78l86 -78h10zM963 1365v21h-47v44h32v21h-32v43h47v22h-83v-151h83zM2106 317v28h-102v-157h41v66h47v28h-47v35h61zM855 1478q-2 38 -35 38h-32q-34 0 -34 -35v-81q0 -35 34 -35h32q34 0 34 35v51h-52v-21h16v-30q0 -13 -13 -14l-10 4l-4 10v80l4 10
l10 4h15q12 0 14 -16h21zM1959 -79v1279q0 60 -42 102t-102 42h-1280q-60 0 -102 -42t-42 -102v-1279q0 -60 42 -102t102 -42h1280q60 0 102 42t42 102zM344 778v22h-64q2 11 33 42.5t31 45.5q0 45 -34 45h-32q-31 0 -35 -39h21q1 17 14 17h15l10 -4l4 -11q0 -19 -32 -51.5
t-32 -47.5v-19h101zM1522 -395v34h-34v-34h34zM1480 -266v22h-100v-22h32v-129h36v129h32zM1345 -358h-20q-2 -16 -14 -16h-16l-10 4l-4 10v80l4 10l10 4h16q12 0 14 -16h20q-2 37 -34 37h-32q-34 0 -34 -35v-81q0 -34 34 -34h32q32 0 34 37zM349 620v84q0 36 -36 36h-39
q-36 0 -36 -34v-88q0 -34 36 -34h39q36 0 36 36zM1209 -395v151h-21v-78l-86 78h-10v-151h21v78l85 -78h11zM349 421v85q0 36 -36 36h-39q-36 0 -36 -35v-87q0 -35 36 -35h39q36 0 36 36zM1057 -360v116h-36v-116l-5 -10l-9 -4l-10 4l-4 10v116h-36v-118q0 -33 32 -33h36
q32 0 32 35zM349 224v84q0 36 -36 36h-39q-36 0 -36 -34v-88q0 -34 36 -34h39q36 0 36 36zM929 -279q2 35 -33 35h-68v-151h37v65q61 -1 63 33zM1448 1451h-27v29l4 10l10 4l9 -4l4 -10v-29zM1315 1465l-4 -10l-10 -4h-13v43h13l10 -4l4 -10v-15zM2071 620l-4 -10l-11 -4
l-10 4l-5 10v84l5 10l10 4l11 -4l4 -10v-84zM2071 422l-5 -10l-10 -4l-10 4l-5 10v33l5 10l10 4l10 -4l5 -10v-33zM1447 860q-16 -124 -124 -124q-53 0 -84 41q-28 37 -28 92q0 189 236 332v-48q-114 -73 -124 -230zM1138 860q-16 -124 -123 -124q-53 0 -84 41
q-28 37 -28 92q0 189 235 332v-48q-114 -73 -123 -230zM309 620l-5 -10l-10 -4l-11 4l-4 10v84l4 10l11 4l10 -4l5 -10v-84zM309 422l-5 -10l-10 -5l-11 5l-4 10v83l4 11l11 4l10 -4l5 -11v-83zM892 -295l-4 -10l-10 -4h-13v43h13l10 -4l4 -10v-15zM309 225l-5 -11l-10 -4
l-11 4l-4 11v83l4 10l11 4l10 -4l5 -10v-83z" />
  </g>

</svg>
