<?xml version="1.0" standalone="no"?>
<!DOCTYPE svg PUBLIC "-//W3C//DTD SVG 1.1//EN" "http://www.w3.org/Graphics/SVG/1.1/DTD/svg11.dtd" >
<svg viewBox="0 -419 2155 2048">
  <g transform="matrix(1 0 0 -1 0 1638)">
   <path fill="currentColor"
d="M2155 -239q0 -75 -52.5 -127.5t-127.5 -52.5h-1599q-75 0 -127.5 52.5t-52.5 127.5v1599q0 75 52.5 127.5t127.5 52.5h1599q75 0 127.5 -52.5t52.5 -127.5v-1599zM1675 1465v51h-37v-51l-4 -10l-9 -4l-10 4l-4 10v51h-37v-51q0 -30 32 -35v-65h37v65q32 5 32 35z
M1553 1402h-21q-1 -16 -13 -16h-16l-10 4l-4 10v80l4 10l10 4h16q12 0 13 -16h21q-2 38 -34 38h-32q-35 0 -35 -35v-81q0 -35 35 -35h32q32 0 34 37zM2107 778v22h-64q2 11 33 42.5t31 45.5q0 45 -35 45h-32q-30 0 -34 -39h21q0 17 13 17h16l10 -4l4 -11q0 -19 -32 -51.5
t-32 -47.5v-19h101zM1429 1365v151h-21v-78l-86 78h-11v-151h21v78l86 -78h11zM2112 620v84q0 36 -36 36h-39q-36 0 -36 -34v-88q0 -34 36 -34h39q36 0 36 36zM1282 1365v21h-47v44h31v21h-31v43h47v22h-84v-151h84zM1167 1365v60l-6 13l-11 5q17 8 17 29q0 44 -33 44h-68
v-151h37v65h13l10 -4l4 -11v-50h37zM2106 426h-20q-2 -17 -14 -17h-16l-9 5l-5 10v82l5 10l9 5h16q12 0 14 -17h20q-2 38 -34 38h-32q-34 0 -34 -36v-83q0 -35 34 -35h32q32 0 34 38zM1037 1365v60l-6 13l-11 5q17 8 17 29q0 44 -33 44h-68v-151h37v65h13l10 -4l4 -11v-50
h37zM2106 317v28h-102v-157h41v66h47v28h-47v35h61zM907 1400v116h-37v-116l-4 -10l-9 -4l-10 4l-4 10v116h-37v-118q0 -33 33 -33h35q33 0 33 35zM776 1402h-21q-2 -16 -14 -16h-15l-10 4l-4 10v80l4 10l10 4h15q12 0 14 -16h21q-2 38 -35 38h-32q-34 0 -34 -35v-81
q0 -35 34 -35h32q32 0 35 37zM1959 -79v1279q0 60 -42 102t-102 42h-1280q-60 0 -102 -42t-42 -102v-1279q0 -60 42 -102t102 -42h1280q60 0 102 42t42 102zM1634 -360q0 28 -24 49l-9 8q-21 19 -11 34q6 4 11 4q11 0 13 -17h20q-2 38 -32 38h-20q-32 0 -32 -35
q0 -25 24 -49l9 -9q13 -13 13 -24q0 -5 -2 -9q-5 -4 -10 -4q-2 0 -5 1l-4 2l-4 9v4h-21q0 -37 32 -37h19q33 0 33 35zM1514 -395v21h-47v130h-36v-151h83zM344 778v22h-64q2 11 33 42.5t31 45.5q0 45 -34 45h-32q-31 0 -35 -39h21q1 17 14 17h15l10 -4l4 -11
q0 -19 -32 -51.5t-32 -47.5v-19h101zM1398 -360v81q0 34 -32 34h-35q-33 0 -33 -33v-84q0 -33 33 -33h35q32 0 32 35zM349 620v84q0 36 -36 36h-39q-36 0 -36 -34v-88q0 -34 36 -34h39q36 0 36 36zM1264 -360q0 34 -21 41q21 8 21 32q0 43 -34 43h-66v-151h66q34 0 34 35z
M349 385v121q0 36 -36 36h-38q-36 0 -36 -35v-122h40v68h30v-68h40zM1127 -395v151h-19l-69 -69l-68 69h-11v-151h21v86l54 -55l55 55v-86h37zM349 224v84q0 36 -36 36h-39q-36 0 -36 -34v-88q0 -34 36 -34h39q36 0 36 36zM929 -295v51h-37v-51l-4 -10l-9 -4l-10 4l-4 10v51
h-37v-51q0 -30 32 -35v-65h37v65q32 5 32 35zM800 -360q0 28 -24 49l-9 8q-21 19 -11 34q6 4 11 4q11 0 13 -17h20q-2 38 -32 38h-19q-33 0 -33 -35q0 -25 24 -49l9 -9q13 -13 13 -24q0 -5 -2 -9q-5 -4 -10 -4q-2 0 -5 1l-4 2l-4 9v4h-21q0 -37 32 -37h19q33 0 33 35z
M2071 620l-4 -10l-11 -4l-10 4l-5 10v84l5 10l10 4l11 -4l4 -10v-84zM1130 1465l-4 -10l-10 -4h-13v43h13l10 -4l4 -10v-15zM1000 1465l-4 -10l-10 -4h-13v43h13l10 -4l4 -10v-15zM1749 976l-42 -97q-160 172 -374 172q-160 0 -286.5 -91.5t-172.5 -244.5h764l-40 -96h-743
q-2 -24 -2 -48t2 -48h702l-42 -96h-641q46 -153 172.5 -244.5t286.5 -91.5q219 0 374 175v-141q-151 -130 -374 -130q-205 0 -357 116q-155 118 -202 316h-173l42 96h116q-2 24 -2 48t2 48h-158l42 96h131q47 198 202 316q152 116 357 116q245 0 416 -171zM1362 -360l-4 -10
l-10 -4l-9 4l-4 10v80l4 10l9 4l10 -4l4 -10v-80zM309 620l-5 -10l-10 -4l-11 4l-4 10v84l4 10l11 4l10 -4l5 -10v-84zM1228 -295l-4 -10l-10 -4h-13v43h13l10 -4l4 -10v-15zM1228 -360l-4 -10l-10 -4h-13v44h13q14 0 14 -14v-16zM309 475h-30v30l5 11l10 4l10 -4l5 -11v-30
zM309 225l-5 -11l-10 -4l-11 4l-4 11v83l4 10l11 4l10 -4l5 -10v-83z" />
  </g>

</svg>
