<?xml version="1.0" standalone="no"?>
<!DOCTYPE svg PUBLIC "-//W3C//DTD SVG 1.1//EN" "http://www.w3.org/Graphics/SVG/1.1/DTD/svg11.dtd" >
<svg viewBox="0 -419 2155 2048">
  <g transform="matrix(1 0 0 -1 0 1638)">
   <path fill="currentColor"
d="M2155 -239q0 -74 -53 -127t-127 -53h-1599q-75 0 -127.5 52.5t-52.5 127.5v1599q0 75 52.5 127.5t127.5 52.5h1599q74 0 127 -53t53 -127v-1599zM1729 1365v21h-47v44h31v21h-31v43h47v22h-84v-151h84zM1619 1365l-66 75l66 76h-34l-49 -56v56h-37v-151h37v53l45 -53h38z
M2107 778v22h-64q2 11 33 42.5t31 45.5q0 45 -35 45h-32q-30 0 -34 -39h21q0 17 13 17h16l10 -4l4 -11q0 -19 -32 -51.5t-32 -47.5v-19h101zM1471 1365v151h-33v-151h33zM1409 1365v21h-47v130h-37v-151h84zM2081 583v155h-18l-32 -18v-20h16v-117h34zM1298 1365v60l-6 13
l-11 5q17 8 17 29q0 44 -33 44h-68v-151h37v65h13l10 -4l4 -11v-50h37zM1170 1365v21h-47v44h31v21h-31v43h47v22h-84v-151h84zM2120 436v22h-17v84h-39l-71 -86v-20h70v-51h40v51h17zM1065 1494v22h-101v-22h32v-129h37v129h32zM941 1494v22h-101v-22h32v-129h37v129h32z
M2106 317v28h-102v-157h41v66h47v28h-47v35h61zM814 1365v21h-47v44h31v21h-31v43h47v22h-84v-151h84zM705 1365v21h-48v130h-36v-151h84zM1959 -79v1279q0 59 -42.5 101.5t-101.5 42.5h-1280q-59 0 -101.5 -42.5t-42.5 -101.5v-1279q0 -59 42.5 -101.5t101.5 -42.5h1280
q59 0 101.5 42.5t42.5 101.5zM1634 -360q0 28 -24 49l-9 8q-21 19 -11 34q6 4 11 4q11 0 13 -17h20q-2 38 -32 38h-20q-32 0 -32 -35q0 -25 24 -49l9 -9q13 -13 13 -24q0 -5 -2 -9q-5 -4 -10 -4q-2 0 -5 1l-4 2l-4 9v4h-21q0 -37 32 -37h19q33 0 33 35zM1514 -395v21h-47
v130h-36v-151h83zM344 778v22h-64q2 11 33 42.5t31 45.5q0 45 -34 45h-32q-31 0 -35 -39h21q1 17 14 17h15l10 -4l4 -11q0 -19 -32 -51.5t-32 -47.5v-19h101zM1398 -360v81q0 34 -32 34h-35q-33 0 -33 -33v-84q0 -33 33 -33h35q32 0 32 35zM319 583v155h-18l-32 -18v-20h15
v-117h35zM1264 -360q0 34 -21 41q21 8 21 32q0 43 -34 43h-66v-151h66q34 0 34 35zM349 421v85q0 36 -36 36h-39q-36 0 -36 -35v-87q0 -35 36 -35h39q36 0 36 36zM1127 -395v151h-19l-69 -69l-68 69h-11v-151h21v86l54 -55l55 55v-86h37zM349 224v84q0 36 -36 36h-39
q-36 0 -36 -34v-88q0 -34 36 -34h39q36 0 36 36zM929 -295v51h-37v-51l-4 -10l-9 -4l-10 4l-4 10v51h-37v-51q0 -30 32 -35v-65h37v65q32 5 32 35zM800 -360q0 28 -24 49l-9 8q-21 19 -11 34q6 4 11 4q11 0 13 -17h20q-2 38 -32 38h-19q-33 0 -33 -35q0 -25 24 -49l9 -9
q13 -13 13 -24q0 -5 -2 -9q-5 -4 -10 -4q-2 0 -5 1l-4 2l-4 9v4h-21q0 -37 32 -37h19q33 0 33 35zM1261 1465l-4 -10l-10 -4h-13v43h13l10 -4l4 -10v-15zM2063 458h-45l45 53v-53zM1787 566h-221v45q44 0 53 6q14 9 14 49v349l-195 -410l-195 378v-317q0 -40 14 -49
q9 -6 51 -6v-45h-188v45q41 0 52.5 8.5t11.5 46.5v367q0 41 -13 49q-9 6 -51 6v45h144l195 -377l179 377h149v-45q-43 0 -51 -5q-15 -9 -15 -50v-367q0 -41 15 -50q8 -5 51 -5v-45zM1067 993h-51q-8 57 -29 73.5t-80 16.5h-44v-413q0 -44 17 -53q11 -6 59 -6v-45h-248v45
q48 0 59 6q17 9 17 53v413h-44q-59 0 -80 -16.5t-29 -73.5h-51l16 140h472zM1362 -360l-4 -10l-10 -4l-9 4l-4 10v80l4 10l9 4l10 -4l4 -10v-80zM1228 -295l-4 -10l-10 -4h-13v43h13l10 -4l4 -10v-15zM1228 -360l-4 -10l-10 -4h-13v44h13q14 0 14 -14v-16zM309 422l-5 -10
l-10 -5l-11 5l-4 10v83l4 11l11 4l10 -4l5 -11v-83zM309 225l-5 -11l-10 -4l-11 4l-4 11v83l4 10l11 4l10 -4l5 -10v-83z" />
  </g>

</svg>
