<?xml version="1.0" standalone="no"?>
<!DOCTYPE svg PUBLIC "-//W3C//DTD SVG 1.1//EN" "http://www.w3.org/Graphics/SVG/1.1/DTD/svg11.dtd" >
<svg viewBox="0 -419 2155 2048">
  <g transform="matrix(1 0 0 -1 0 1638)">
   <path fill="currentColor"
d="M2155 -239q0 -75 -52.5 -127.5t-127.5 -52.5h-1599q-75 0 -127.5 52.5t-52.5 127.5v1599q0 75 52.5 127.5t127.5 52.5h1599q75 0 127.5 -52.5t52.5 -127.5v-1599zM1616 1365v21h-48v130h-36v-151h84zM2107 778v22h-64q2 11 33 42.5t31 45.5q0 45 -35 45h-32
q-30 0 -34 -39h21q0 17 13 17h16l10 -4l4 -11q0 -19 -32 -51.5t-32 -47.5v-19h101zM1501 1400v81q0 34 -32 34h-35q-33 0 -33 -33v-84q0 -33 33 -33h35q32 0 32 35zM1372 1365v60l-5 13l-11 5q16 8 16 29q0 44 -32 44h-68v-151h36v65h14l9 -4l5 -11v-50h36zM2120 634v22h-17
v84h-39l-71 -86v-20h70v-50h40v50h17zM1246 1494v22h-101v-22h32v-129h37v129h32zM2107 422v35q0 34 -43 36l43 29v21h-101v-22h59l-43 -29v-21l25 1q23 1 23 -15v-33l-4 -10l-10 -4h-15q-13 0 -14 16h-21q4 -38 33 -38h35q33 0 33 34zM1110 1365v151h-21v-78l-86 78h-10
v-151h21v78l85 -78h11zM964 1400v81q0 34 -32 34h-35q-33 0 -33 -33v-84q0 -33 33 -33h35q32 0 32 35zM2106 317v28h-102v-157h41v66h47v28h-47v35h61zM835 1402h-21q-2 -16 -14 -16h-15l-10 4l-4 10v80l4 10l10 4h15q12 0 14 -16h21q-2 38 -35 38h-32q-34 0 -34 -35v-81
q0 -35 34 -35h32q32 0 35 37zM1959 -79v1279q0 60 -42 102t-102 42h-1280q-60 0 -102 -42t-42 -102v-1279q0 -60 42 -102t102 -42h1280q60 0 102 42t42 102zM1649 -361q0 25 -24 49l-9 9q-14 14 -14 24q0 5 4.5 9t9.5 4q10 0 12 -16h21q-3 37 -32 37h-20q-32 0 -32 -35
q0 -25 24 -49l8 -8q14 -14 14 -26q0 -4 -2 -8q-5 -4 -10 -4q-2 0 -5 2l-4 1l-5 9l1 4h-21q0 -37 32 -37h19q33 0 33 35zM1528 -395v21h-47v44h32v21h-32v43h47v22h-83v-151h83zM344 778v22h-64q2 11 33 42.5t31 45.5q0 45 -34 45h-32q-31 0 -35 -39h21q1 17 14 17h15l10 -4
l4 -11q0 -19 -32 -51.5t-32 -47.5v-19h101zM1400 -395v60l-5 13l-11 5q16 8 16 29q0 44 -33 44h-67v-151h36v65h13l10 -4l4 -11v-50h37zM353 634v22h-17v84h-38l-68 -86v-20h67v-50h39v50h17zM1263 -360v116h-37v-116l-4 -10l-9 -4l-10 4l-4 10v116h-36v-118q0 -33 32 -33
h35q33 0 33 35zM1129 -266v22h-100v-22h32v-129h36v129h32zM349 421v85q0 36 -36 36h-39q-36 0 -36 -35v-87q0 -35 36 -35h39q36 0 36 36zM999 -358h-21q-1 -16 -13 -16h-16l-10 4l-4 10v80l4 10l10 4h16q12 0 13 -16h21q-2 38 -34 38h-32q-34 0 -34 -35v-81q0 -35 34 -35
h32q32 0 34 37zM349 224v84q0 36 -36 36h-39q-36 0 -36 -34v-88q0 -34 36 -34h39q36 0 36 36zM863 -395v151h-33v-151h33zM802 -297v18q0 35 -33 35h-68v-151h37v65q64 -1 64 33zM1465 1400l-4 -10l-10 -4l-9 4l-4 10v80l4 10l9 4l10 -4l4 -10v-80zM1336 1465l-5 -10l-9 -4
h-14v43h14l9 -4l5 -10v-15zM2063 656h-45l45 54v-54zM928 1400l-4 -10l-10 -4l-9 4l-4 10v80l4 10l9 4l10 -4l4 -10v-80zM1693 28h-213v384h85v-342h128v-42zM1303 726h-85v-341h-86v341h-85v43h256v-43zM913 827q-5 -85 -85 -85h-86q-35 0 -60 25t-25 60v213q0 36 24.5 61
t60.5 25h86q80 0 85 -86h-43q-5 43 -42 43h-43q-43 0 -43 -43v-213q0 -43 43 -43h43q38 0 42 43h43zM1363 -295l-4 -10l-10 -4h-13v43h13l10 -4l4 -10v-15zM297 656h-42l42 53v-53zM309 422l-5 -10l-10 -5l-11 5l-4 10v83l4 11l11 4l10 -4l5 -11v-83zM309 225l-5 -11l-10 -4
l-11 4l-4 11v83l4 10l11 4l10 -4l5 -10v-83zM765 -295l-4 -10l-10 -4h-13v43h13l10 -4l4 -10v-15z" />
  </g>

</svg>
