<?xml version="1.0" standalone="no"?>
<!DOCTYPE svg PUBLIC "-//W3C//DTD SVG 1.1//EN" "http://www.w3.org/Graphics/SVG/1.1/DTD/svg11.dtd" >
<svg viewBox="0 -419 2155 2048">
  <g transform="matrix(1 0 0 -1 0 1638)">
   <path fill="currentColor"
d="M2155 -239q0 -75 -52.5 -127.5t-127.5 -52.5h-1599q-75 0 -127.5 52.5t-52.5 127.5v1599q0 75 52.5 127.5t127.5 52.5h1599q75 0 127.5 -52.5t52.5 -127.5v-1599zM2107 778v22h-64q2 11 33 42.5t31 45.5q0 45 -35 45h-32q-30 0 -34 -39h21q0 17 13 17h16l10 -4l4 -11
q0 -19 -32 -51.5t-32 -47.5v-19h101zM1361 1365v43q0 25 -23 32q23 8 23 33v43h-37v-51l-4 -10l-10 -4l-9 4l-4 10v51h-37v-43q0 -25 23 -33q-23 -7 -23 -32v-43h37v50l4 11l9 4l10 -4l4 -11v-50h37zM2106 619v34q0 36 -64 35v28h64v22h-100v-71h49l10 -5l5 -10v-32l-5 -11
l-10 -4h-15q-13 0 -14 17h-20q4 -38 34 -38h32q34 0 34 35zM1223 1400v81q0 34 -33 34h-35q-32 0 -32 -33v-84q0 -33 32 -33h35q33 0 33 35zM2107 506v36h-101v-21h64v-14q-32 -66 -32 -84v-35h37q0 54 21 96zM1090 1400q0 34 -21 41q21 8 21 32q0 43 -34 43h-67v-151h67
q34 0 34 35zM2106 317v28h-102v-157h41v66h47v28h-47v35h61zM1959 -79v1279q0 60 -42 102t-102 42h-1280q-60 0 -102 -42t-42 -102v-1279q0 -60 42 -102t102 -42h1280q60 0 102 42t42 102zM1630 -360v51h-53v-21h16v-30q0 -13 -13 -14l-10 4l-4 10v80l4 10l10 4h16
q12 0 13 -16h21q-2 38 -34 38h-32q-35 0 -35 -35v-81q0 -35 35 -35h32q34 0 34 35zM344 778v22h-64q2 11 33 42.5t31 45.5q0 45 -34 45h-32q-31 0 -35 -39h21q1 17 14 17h15l10 -4l4 -11q0 -19 -32 -51.5t-32 -47.5v-19h101zM1499 -395v151h-21v-78l-86 78h-10v-151h20v78
l86 -78h11zM1347 -395v151h-33v-151h33zM344 619v34q0 36 -64 35v28h64v22h-100v-71h50l9 -5l5 -10v-32l-5 -11l-9 -4h-16q-13 0 -14 17h-20q4 -38 34 -38h32q34 0 34 35zM1278 -337v93h-38v-116l-4 -10l-10 -4h-13v130h-37v-116l-5 -10l-10 -4h-13v130h-37v-151q56 0 65 4
v-4h44q58 0 58 58zM349 421v85q0 36 -36 36h-39q-36 0 -36 -35v-87q0 -35 36 -35h39q36 0 36 36zM1079 -395v116q0 35 -33 35h-35q-32 0 -32 -34v-117h36v65h27v-65h37zM951 -395v60l-5 13l-11 5q16 8 16 29q0 44 -33 44h-67v-151h36v65h13l10 -4l4 -11v-50h37zM349 224v84
q0 36 -36 36h-39q-36 0 -36 -34v-88q0 -34 36 -34h39q36 0 36 36zM820 -360v81q0 35 -32 35h-68v-151h68q32 0 32 35zM1186 1400l-4 -10l-9 -4l-10 4l-4 10v80l4 10l10 4l9 -4l4 -10v-80zM1053 1465l-4 -10l-10 -4h-13v43h13l10 -4l4 -10v-15zM1053 1400l-4 -10l-10 -4h-13
v44h14q13 0 13 -14v-16zM1557 -103h-83v1226h-681v85h764v-1311zM1390 -103h-84v1054h-513v86h597v-1140zM309 422l-5 -10l-10 -5l-11 5l-4 10v83l4 11l11 4l10 -4l5 -11v-83zM1042 -309h-27v29l4 10l10 4l9 -4l4 -10v-29zM914 -295l-4 -10l-10 -4h-13v43h13l10 -4l4 -10
v-15zM309 225l-5 -11l-10 -4l-11 4l-4 11v83l4 10l11 4l10 -4l5 -10v-83zM784 -360l-4 -10l-10 -4h-13v108h13l10 -4l4 -10v-80z" />
  </g>

</svg>
