<?xml version="1.0" standalone="no"?>
<!DOCTYPE svg PUBLIC "-//W3C//DTD SVG 1.1//EN" "http://www.w3.org/Graphics/SVG/1.1/DTD/svg11.dtd" >
<svg viewBox="0 -419 2155 2048">
  <g transform="matrix(1 0 0 -1 0 1638)">
   <path fill="currentColor"
d="M2155 -239q0 -75 -52.5 -127.5t-127.5 -52.5h-1599q-75 0 -127.5 52.5t-52.5 127.5v1599q0 75 52.5 127.5t127.5 52.5h1599q75 0 127.5 -52.5t52.5 -127.5v-1599zM2107 778v22h-64q2 11 33 42.5t31 45.5q0 45 -35 45h-32q-30 0 -34 -39h21q0 17 13 17h16l10 -4l4 -11
q0 -19 -32 -51.5t-32 -47.5v-19h101zM1486 1365l-66 75l66 76h-35l-48 -56v56h-37v-151h37v53l45 -53h38zM1334 1402h-21q-2 -16 -14 -16h-15l-10 4l-4 10v80l4 10l10 4h15q12 0 14 -16h21q-2 38 -35 38h-32q-34 0 -34 -35v-81q0 -35 34 -35h32q32 0 35 37zM2106 619v34
q0 36 -64 35v28h64v22h-100v-71h49l10 -5l5 -10v-32l-5 -11l-10 -4h-15q-13 0 -14 17h-20q4 -38 34 -38h32q34 0 34 35zM1205 1400v81q0 34 -32 34h-35q-33 0 -33 -33v-84q0 -33 33 -33h35q32 0 32 35zM2112 445v61q0 36 -38 36h-35q-38 0 -38 -36v-34q0 -36 38 -36h17
q10 0 15 7v-4q0 -31 -52 -31v-22h31q24 0 43 17.5t19 41.5zM1077 1365v21h-47v129h-36v-150h83zM964 1400q0 34 -21 41q21 8 21 32q0 43 -34 43h-66v-151h66q34 0 34 35zM2106 317v28h-102v-157h41v66h47v28h-47v35h61zM1959 -79v1279q0 60 -42 102t-102 42h-1280
q-60 0 -102 -42t-42 -102v-1279q0 -60 42 -102t102 -42h1280q60 0 102 42t42 102zM1672 -282q-3 38 -33 38h-19q-32 0 -32 -35q0 -22 24 -49l8 -9q19 -21 12 -33q-6 -4 -10 -4q-3 0 -5 1l-5 2l-4 9v4h-20q0 -37 32 -37h19q32 0 32 35q0 25 -24 49l-8 8q-14 14 -14 25
q0 13 13 13q11 0 13 -17h21zM1567 -266v22h-100v-22h32v-129h36v129h32zM344 778v22h-64q2 11 33 42.5t31 45.5q0 45 -34 45h-32q-31 0 -35 -39h21q1 17 14 17h15l10 -4l4 -11q0 -19 -32 -51.5t-32 -47.5v-19h101zM1442 -395v151h-21v-78l-86 78h-10v-151h21v78l85 -78h11z
M344 619v34q0 36 -64 35v28h64v22h-100v-71h50l9 -5l5 -10v-32l-5 -11l-9 -4h-16q-13 0 -14 17h-20q4 -38 34 -38h32q34 0 34 35zM1295 -395v21h-47v44h31v21h-31v43h47v22h-84v-151h84zM1181 -395v151h-20l-68 -69l-69 69h-11v-151h22v86l54 -55l54 55v-86h38zM350 421
q0 36 -24 43q24 8 24 33q0 45 -38 45h-35q-38 0 -38 -36q0 -35 24 -42q-24 -9 -24 -34q0 -45 38 -45h35q38 0 38 36zM985 -395v21h-47v44h31v21h-31v43h47v22h-84v-151h84zM349 224v84q0 36 -36 36h-39q-36 0 -36 -34v-88q0 -34 36 -34h39q36 0 36 36zM875 -395v21h-47v130
h-37v-151h84zM762 -395v21h-47v44h31v21h-31v43h47v22h-84v-151h84zM1169 1400l-4 -10l-10 -4l-9 4l-4 10v80l4 10l9 4l10 -4l4 -10v-80zM2071 473l-4 -10l-11 -5l-10 5l-5 10v33l5 10l10 4l11 -4l4 -10v-33zM928 1465l-5 -10l-9 -4h-14v43h14l9 -4l5 -10v-15zM928 1400
l-5 -10l-9 -4h-14v44h14q14 0 14 -14v-16zM1660 671h-973v487h973v-487zM310 489l-5 -10l-11 -4l-10 4l-5 10v16l5 11l10 4l11 -4l5 -11v-16zM310 422l-5 -10l-11 -5l-10 5l-5 10v16q0 15 15 15q16 0 16 -15v-16zM309 225l-5 -11l-10 -4l-11 4l-4 11v83l4 10l11 4l10 -4
l5 -10v-83z" />
  </g>

</svg>
