<?xml version="1.0" standalone="no"?>
<!DOCTYPE svg PUBLIC "-//W3C//DTD SVG 1.1//EN" "http://www.w3.org/Graphics/SVG/1.1/DTD/svg11.dtd" >
<svg viewBox="0 -419 2155 2048">
  <g transform="matrix(1 0 0 -1 0 1638)">
   <path fill="currentColor"
d="M2155 -239q0 -75 -52.5 -127.5t-127.5 -52.5h-1599q-75 0 -127.5 52.5t-52.5 127.5v1599q0 75 52.5 127.5t127.5 52.5h1599q75 0 127.5 -52.5t52.5 -127.5v-1599zM1728 1402h-21q-1 -16 -13 -16h-16l-10 4l-4 10v80l4 10l10 4h16q12 0 13 -16h21q-2 37 -34 37h-32
q-34 0 -34 -35v-81q0 -34 34 -34h32q32 0 34 37zM1599 1365v150h-33v-150h33zM1537 1365v60l-5 13l-11 5q16 8 16 29q0 44 -33 44h-67v-151h36v65h13l10 -4l4 -11v-50h37zM2107 778v22h-64q2 11 33 42.5t31 45.5q0 45 -35 45h-32q-30 0 -34 -39h21q0 17 13 17h16l10 -4
l4 -11q0 -19 -32 -51.5t-32 -47.5v-19h101zM1408 1494v21h-100v-21h32v-129h36v129h32zM2106 619v34q0 36 -64 35v28h64v22h-100v-71h49l10 -5l5 -10v-32l-5 -11l-10 -4h-15q-13 0 -14 17h-20q4 -38 34 -38h32q34 0 34 35zM1279 1365v21h-47v44h31v21h-31v43h47v22h-83v-151
h83zM2098 521v21h-84v-154h36v66h32v22h-32v45h48zM1160 1365v151h-20l-68 -69l-69 69h-10v-151h21v86l54 -55l54 55v-86h38zM961 1400v81q0 34 -32 34h-35q-33 0 -33 -33v-84q0 -33 33 -33h35q32 0 32 35zM2106 317v28h-102v-157h41v66h47v28h-47v35h61zM836 1365v21h-48
v44h32v21h-32v43h48v22h-84v-151h84zM722 1400v51h-52v-21h16v-30q0 -13 -13 -14l-10 4l-4 10v80l4 10l10 4h15q12 0 14 -16h20q-2 38 -34 38h-32q-34 0 -34 -35v-81q0 -35 34 -35h32q34 0 34 35zM1959 -79v1279q0 60 -42 102t-102 42h-1280q-60 0 -102 -42t-42 -102v-1279
q0 -60 42 -102t102 -42h1280q60 0 102 42t42 102zM1525 -360q0 25 -24 49l-8 8q-14 14 -14 26q0 4 2 8q6 3 11 3q11 0 13 -16h20q-2 37 -32 37h-19q-33 0 -33 -34q0 -29 24 -50l9 -8q20 -18 12 -34q-6 -3 -11 -3q-2 0 -4 1l-5 2l-4 8v5h-20q0 -37 32 -37h19q32 0 32 35z
M344 778v22h-64q2 11 33 42.5t31 45.5q0 45 -34 45h-32q-31 0 -35 -39h21q1 17 14 17h15l10 -4l4 -11q0 -19 -32 -51.5t-32 -47.5v-19h101zM1404 -395v21h-47v44h31v21h-31v43h47v22h-83v-151h83zM344 619v34q0 36 -64 35v28h64v22h-100v-71h50l9 -5l5 -10v-32l-5 -11l-9 -4
h-16q-13 0 -14 17h-20q4 -38 34 -38h32q34 0 34 35zM1294 -297v18q0 35 -33 35h-67v-151h36v65q64 -1 64 33zM1164 -395v116q0 35 -32 35h-35q-33 0 -33 -34v-117h37v65h27v-65h36zM349 385v121q0 36 -36 36h-38q-36 0 -36 -35v-122h40v68h30v-68h40zM1036 -395v151h-36v-65
h-28v65h-36v-151h36v65h28v-65h36zM349 224v84q0 36 -36 36h-39q-36 0 -36 -34v-88q0 -34 36 -34h39q36 0 36 36zM909 -282q-3 37 -33 37h-19q-32 0 -32 -34q0 -26 24 -50l8 -8q14 -14 14 -26q0 -4 -2 -8q-6 -3 -10 -3q-3 0 -5 1l-5 2l-4 8v5h-20q0 -37 32 -37h19
q32 0 32 35q0 25 -24 49l-8 8q-14 14 -14 25q0 5 4.5 8.5t8.5 3.5q11 0 13 -16h21zM1500 1465l-4 -10l-10 -4h-13v43h13l10 -4l4 -10v-15zM925 1400l-4 -10l-10 -4l-9 4l-4 10v80l4 10l9 4l10 -4l4 -10v-80zM1737 562l-565 -562l-562 562l562 563zM1257 -295l-4 -10l-10 -4
h-13v43h13l10 -4l4 -10v-15zM1128 -309h-27v29l4 10l9 4l10 -4l4 -10v-29zM309 475h-30v30l5 11l10 4l10 -4l5 -11v-30zM309 225l-5 -11l-10 -4l-11 4l-4 11v83l4 10l11 4l10 -4l5 -10v-83zM1604 562l-432 430l-428 -430l428 -430zM1388 562l-216 -214l-214 214l214 216z
" />
  </g>

</svg>
