<?xml version="1.0" standalone="no"?>
<!DOCTYPE svg PUBLIC "-//W3C//DTD SVG 1.1//EN" "http://www.w3.org/Graphics/SVG/1.1/DTD/svg11.dtd" >
<svg viewBox="0 -419 2155 2048">
  <g transform="matrix(1 0 0 -1 0 1638)">
   <path fill="currentColor"
d="M2155 -239q0 -74 -53 -127t-127 -53h-1599q-75 0 -127.5 52.5t-52.5 127.5v1599q0 75 52.5 127.5t127.5 52.5h1599q74 0 127 -53t53 -127v-1599zM2107 778v22h-64q2 12 33 43t31 45q0 45 -35 45h-32q-30 0 -34 -39h21q0 17 13 17h16l10 -4l4 -11q0 -19 -32 -51.5
t-32 -47.5v-19h101zM1449 1365v34h-33v-34h33zM1388 1402h-21q-1 -16 -13 -16h-16l-10 4l-4 10v80l4 10l10 4h16q12 0 13 -16h21q-2 38 -34 38h-32q-35 0 -35 -35v-81q0 -35 35 -35h32q32 0 34 37zM2111 619v34q0 36 -37 36h-18q-6 -2 -14 -5l-1 -1v3q0 32 53 32v21h-31
q-24 0 -43 -17.5t-19 -41.5v-61q0 -36 37 -36h36q37 0 37 36zM1261 1400q0 21 -23.5 49t-23.5 32q1 4 3 10q4 2 11 4q11 0 13 -16h20q-2 37 -32 37h-19q-33 0 -33 -35q0 -21 24 -49t24 -32l-3 -10l-11 -4l-9 3l-4 9v4h-21q0 -37 32 -37h20q32 0 32 35zM1137 1365v151h-34
v-151h34zM2098 521v21h-84v-154h36v66h32v22h-32v45h48zM1068 1365v151h-19l-69 -69l-68 69h-11v-151h21v86l54 -55l55 55v-86h37zM2106 317v28h-102v-157h41v66h47v28h-47v35h61zM1959 -79v1279q0 59 -42.5 101.5t-101.5 42.5h-1280q-59 0 -101.5 -42.5t-42.5 -101.5v-1279
q0 -59 42.5 -101.5t101.5 -42.5h1280q59 0 101.5 42.5t42.5 101.5zM1634 -360q0 21 -24 49t-24 31q2 5 4 11q4 2 11 4q11 0 13 -17h20q-2 38 -32 38h-20q-32 0 -32 -35q0 -21 23.5 -49t23.5 -32l-3 -10l-10 -4l-9 3l-4 9v4h-21q0 -37 32 -37h19q33 0 33 35zM1514 -395v21
h-47v130h-36v-151h83zM344 778v22h-64q2 12 33 43t31 45q0 45 -34 45h-32q-31 0 -35 -39h21q0 17 14 17h15l10 -4l4 -11q0 -19 -32 -51.5t-32 -47.5v-19h101zM1398 -360v81q0 34 -32 34h-35q-33 0 -33 -33v-84q0 -33 33 -33h35q32 0 32 35zM349 619v34q0 36 -37 36h-18
l-14 -5l-1 -1v3q0 32 53 32v21h-31q-24 0 -43 -17.5t-19 -41.5v-61q0 -36 37 -36h36q37 0 37 36zM1264 -360q0 34 -21 41q21 8 21 32q0 43 -34 43h-66v-151h66q34 0 34 35zM349 421v85q0 36 -36 36h-39q-36 0 -36 -35v-87q0 -35 36 -35h39q36 0 36 36zM1127 -395v151h-19
l-69 -69l-68 69h-11v-151h21v86l54 -55l55 55v-86h37zM349 224v84q0 36 -36 36h-39q-36 0 -36 -34v-88q0 -34 36 -34h39q36 0 36 36zM929 -295v51h-37v-51l-4 -10l-9 -4l-10 4l-4 10v51h-37v-51q0 -30 32 -35v-65h37v65q32 5 32 35zM800 -360q0 21 -24 49t-24 31q2 5 4 11
q4 2 11 4q11 0 13 -17h20q-2 38 -32 38h-19q-33 0 -33 -35q0 -21 23.5 -49t23.5 -32l-3 -10l-10 -4l-9 3l-4 9v4h-21q0 -37 32 -37h19q33 0 33 35zM2071 620l-5 -11l-10 -4l-10 4l-5 11v32l5 11l10 4l10 -4l5 -11v-32zM1670 555q0 -194 -148.5 -341.5t-342.5 -147.5
q-201 0 -350 149.5t-149 350.5q0 194 148.5 341.5t342.5 147.5q201 0 350 -149.5t149 -350.5zM1362 -360l-4 -10l-10 -4l-9 4l-4 10v80l4 10l9 4l10 -4l4 -10v-80zM309 620l-5 -11l-10 -4l-10 4l-5 11v32l5 11l10 4l10 -4l5 -11v-32zM1228 -295l-4 -10l-10 -4h-13v43h13
l10 -4l4 -10v-15zM1228 -360l-4 -10l-10 -4h-13v44h13q14 0 14 -14v-16zM309 422l-5 -10l-10 -5l-11 5l-4 10v83l4 11l11 4l10 -4l5 -11v-83zM309 225l-5 -11l-10 -4l-11 4l-4 11v83l4 10l11 4l10 -4l5 -10v-83zM1616 553q0 179 -134 313.5t-313 134.5q-173 0 -305.5 -132
t-132.5 -304q0 -179 134 -313.5t313 -134.5q173 0 305.5 132t132.5 304zM1404 725q0 -42 -13 -84q-18 -58 -49 -58q-33 0 -51 58q-13 42 -13 85q0 36 15 77q19 52 49 52t48 -52q14 -40 14 -78zM1054 713q0 -40 -13 -83q-18 -59 -49 -59q-33 0 -51 59q-13 42 -13 85
q0 34 16 77q19 52 48 52q30 0 48 -53q14 -41 14 -78zM1522 428q0 -17 -23 -17q-8 0 -25 5q-25 -107 -107.5 -170t-193.5 -63q-108 0 -188.5 65.5t-104.5 170.5q-19 -7 -27 -7q-22 0 -22 18q0 11 46 28q43 16 59 16q15 0 15 -13q0 -14 -36 -32q70 -177 264 -177
q189 0 260 174q-37 24 -37 30q0 16 17 16q16 0 59.5 -16.5t43.5 -27.5z" />
  </g>

</svg>
