<?xml version="1.0" standalone="no"?>
<!DOCTYPE svg PUBLIC "-//W3C//DTD SVG 1.1//EN" "http://www.w3.org/Graphics/SVG/1.1/DTD/svg11.dtd" >
<svg viewBox="0 -419 2155 2048">
  <g transform="matrix(1 0 0 -1 0 1638)">
   <path fill="currentColor"
d="M2155 -239q0 -75 -52.5 -127.5t-127.5 -52.5h-1599q-75 0 -127.5 52.5t-52.5 127.5v1599q0 75 52.5 127.5t127.5 52.5h1599q75 0 127.5 -52.5t52.5 -127.5v-1599zM1646 1478q-3 38 -33 38h-19q-32 0 -32 -35q0 -22 24 -49l8 -9q19 -21 12 -33q-6 -4 -10 -4q-2 0 -5 1
l-4 2l-5 9v4h-20q0 -37 32 -37h19q32 0 32 35q0 29 -23 49l-9 8q-21 19 -11 34q6 4 11 4q10 0 12 -17h21zM1544 1494v22h-100v-22h32v-129h37v129h31zM2107 778v22h-64q2 11 33 42.5t31 45.5q0 45 -35 45h-32q-30 0 -34 -39h21q0 17 13 17h16l10 -4l4 -11q0 -19 -32 -51.5
t-32 -47.5v-19h101zM1420 1365v116q0 35 -32 35h-36q-32 0 -32 -34v-117h36v65h28v-65h36zM2107 702v36h-101v-22h64v-13q-32 -66 -32 -84v-36h37q0 55 21 97zM1287 1400q0 34 -21 41q21 8 21 32q0 43 -34 43h-66v-151h66q34 0 34 35zM1153 1400v51h-52v-21h16v-30
q0 -13 -14 -14l-9 4l-5 10v80l5 10l10 4h15q12 0 14 -16h20q-2 38 -34 38h-32q-34 0 -34 -35v-81q0 -35 34 -35h32q34 0 34 35zM2112 421q0 36 -24 43q24 8 24 33q0 45 -38 45h-73v-157h73q38 0 38 36zM1022 1365v151h-21v-78l-85 78h-11v-151h21v78l85 -78h11zM2106 317v28
h-102v-157h41v66h47v28h-47v35h61zM871 1365v151h-33v-151h33zM805 1400v81q0 35 -33 35h-68v-151h68q33 0 33 35zM1959 -79v1279q0 59 -42.5 101.5t-101.5 42.5h-1280q-59 0 -101.5 -42.5t-42.5 -101.5v-1279q0 -59 42.5 -101.5t101.5 -42.5h1280q59 0 101.5 42.5
t42.5 101.5zM1646 -282q-3 38 -33 38h-19q-32 0 -32 -35q0 -22 24 -49l8 -9q19 -21 12 -33q-6 -4 -10 -4q-2 0 -5 1l-4 2l-5 9v4h-20q0 -37 32 -37h19q32 0 32 35q0 29 -23 49l-9 8q-21 19 -11 34q6 4 11 4q10 0 12 -17h21zM1544 -266v22h-100v-22h32v-129h37v129h31z
M344 778v22h-64q2 11 33 42.5t31 45.5q0 45 -34 45h-32q-31 0 -35 -39h21q1 17 14 17h15l10 -4l4 -11q0 -19 -32 -51.5t-32 -47.5v-19h101zM1420 -395v116q0 35 -32 35h-36q-32 0 -32 -34v-117h36v65h28v-65h36zM344 702v36h-101v-22h64v-13q-32 -66 -32 -84v-36h37
q0 55 21 97zM1287 -360q0 34 -21 41q21 8 21 32q0 43 -34 43h-66v-151h66q34 0 34 35zM1153 -360v51h-52v-21h16v-30q0 -13 -14 -14l-9 4l-5 10v80l5 10l10 4h15q12 0 14 -16h20q-2 38 -34 38h-32q-34 0 -34 -35v-81q0 -35 34 -35h32q34 0 34 35zM349 421v85q0 36 -36 36
h-39q-36 0 -36 -35v-87q0 -35 36 -35h39q36 0 36 36zM1022 -395v151h-21v-78l-85 78h-11v-151h21v78l85 -78h11zM349 224v84q0 36 -36 36h-39q-36 0 -36 -34v-88q0 -34 36 -34h39q36 0 36 36zM871 -395v151h-33v-151h33zM805 -360v81q0 35 -33 35h-68v-151h68q33 0 33 35z
M1384 1451h-28v29l5 10l9 4l9 -4l5 -10v-29zM1251 1465l-5 -10l-9 -4h-14v43h14l9 -4l5 -10v-15zM1251 1400l-5 -10l-9 -4h-14v44h14q14 0 14 -14v-16zM2071 489l-4 -10l-11 -4h-15v45h15l11 -4l4 -11v-16zM2071 422l-4 -10l-11 -5h-15v46h15q15 0 15 -15v-16zM768 1400
l-4 -10l-10 -4h-13v108h13l10 -4l4 -10v-80zM1713 559q0 -43 -305 -54l-104 -141q18 -4 53 -9l6 -5l4 -9v-14l-5 -11q-9 -4 -98 -8l-69 -89q47 -9 52 -9l8 -5l4 -10v-14l-6 -12q-9 -4 -98 -7l-68 -98q-29 -28 -100 -28q156 348 156 443q0 26 -141 38q-31 2 -181 12l-99 -145
l-85 -13l61 177q-34 1 -42 11q7 10 42 12l-61 179l85 -15l99 -144q51 3 181 13q141 11 141 38q0 96 -156 443q69 0 100 -30l68 -96q39 0 99 -9l5 -10v-15l-5 -10q-9 -4 -59 -13l69 -89q41 0 98 -9l5 -11v-14l-4 -10q-8 -5 -59 -13l104 -142q305 -10 305 -55zM1384 -309h-28
v29l5 10l9 4l9 -4l5 -10v-29zM1251 -295l-5 -10l-9 -4h-14v43h14l9 -4l5 -10v-15zM1251 -360l-5 -10l-9 -4h-14v44h14q14 0 14 -14v-16zM309 422l-5 -10l-10 -5l-11 5l-4 10v83l4 11l11 4l10 -4l5 -11v-83zM309 225l-5 -11l-10 -4l-11 4l-4 11v83l4 10l11 4l10 -4l5 -10v-83
zM768 -360l-4 -10l-10 -4h-13v108h13l10 -4l4 -10v-80z" />
  </g>

</svg>
