<?xml version="1.0" standalone="no"?>
<!DOCTYPE svg PUBLIC "-//W3C//DTD SVG 1.1//EN" "http://www.w3.org/Graphics/SVG/1.1/DTD/svg11.dtd" >
<svg viewBox="0 -419 2155 2048">
  <g transform="matrix(1 0 0 -1 0 1638)">
   <path fill="currentColor"
d="M2155 -239q0 -75 -52.5 -127.5t-127.5 -52.5h-1599q-75 0 -127.5 52.5t-52.5 127.5v1599q0 75 52.5 127.5t127.5 52.5h1599q75 0 127.5 -52.5t52.5 -127.5v-1599zM1573 1400q0 28 -24 49l-9 8q-21 19 -11 34q6 4 11 4q11 0 13 -17h20q-2 38 -32 38h-19q-33 0 -33 -35
q0 -25 24 -49l9 -9q13 -13 13 -24q0 -5 -2 -9q-5 -4 -10 -4q-2 0 -5 1l-4 2l-4 9v4h-21q0 -37 32 -37h19q33 0 33 35zM2107 778v22h-64q2 11 33 42.5t31 45.5q0 45 -35 45h-32q-30 0 -34 -39h21q0 17 13 17h16l10 -4l4 -11q0 -19 -32 -51.5t-32 -47.5v-19h101zM1458 1423v93
h-38v-116l-4 -10l-10 -4h-13v130h-38v-116l-4 -10l-10 -4h-13v130h-38v-151q56 0 65 4v-4h45q58 0 58 58zM2107 702v36h-101v-22h64v-13q-32 -66 -32 -84v-36h37q0 55 21 97zM1263 1400v81q0 34 -33 34h-35q-33 0 -33 -33v-84q0 -33 33 -33h35q33 0 33 35zM1135 1365v60
l-6 13l-11 5q17 8 17 29q0 44 -33 44h-68v-151h37v65h13l10 -4l4 -11v-50h37zM2098 521v21h-84v-154h36v66h32v22h-32v45h48zM1007 1365v60l-6 13l-11 5q17 8 17 29q0 44 -33 44h-68v-151h37v65h13l10 -4l4 -11v-50h37zM2106 317v28h-102v-157h41v66h47v28h-47v35h61z
M877 1365v116q0 35 -32 35h-35q-33 0 -33 -34v-117h37v65h27v-65h36zM1959 -79v1279q0 60 -42 102t-102 42h-1280q-60 0 -102 -42t-42 -102v-1279q0 -60 42 -102t102 -42h1280q60 0 102 42t42 102zM344 778v22h-64q2 11 33 42.5t31 45.5q0 45 -34 45h-32q-31 0 -35 -39h21
q1 17 14 17h15l10 -4l4 -11q0 -19 -32 -51.5t-32 -47.5v-19h101zM1481 -395v116q0 35 -33 35h-35q-33 0 -33 -34v-117h37v65h27v-65h37zM344 702v36h-101v-22h64v-13q-32 -66 -32 -84v-36h37q0 55 21 97zM1252 -395v34h-33v-34h33zM1220 -297v18q0 35 -33 35h-67v-151h36v65
q64 -1 64 33zM336 521v21h-84v-154h36v66h32v22h-32v45h48zM1081 -360v116h-37v-116l-4 -10l-9 -4l-10 4l-4 10v116h-36v-118q0 -33 32 -33h35q33 0 33 35zM953 -360q0 28 -24 49l-9 8q-21 19 -11 34q6 4 11 4q11 0 13 -17h20q-2 38 -32 38h-19q-33 0 -33 -35q0 -25 24 -49
l9 -9q14 -14 14 -25q0 -4 -2 -8q-6 -4 -11 -4q-2 0 -4 1l-5 2l-4 9v4h-21q0 -37 32 -37h20q32 0 32 35zM349 224v84q0 36 -36 36h-39q-36 0 -36 -34v-88q0 -34 36 -34h39q36 0 36 36zM1226 1400l-4 -10l-10 -4l-9 4l-4 10v80l4 10l9 4l10 -4l4 -10v-80zM1098 1465l-4 -10
l-10 -4h-13v43h13l10 -4l4 -10v-15zM970 1465l-4 -10l-10 -4h-13v43h13l10 -4l4 -10v-15zM841 1451h-27v29l4 10l9 4l10 -4l4 -10v-29zM1694 583l-187 -188v150h-103q-12 -116 -91 -194t-195 -92q-38 -4 -75 0q-115 14 -194.5 92.5t-91.5 193.5h-100v75h100q13 115 92 193
t194 92q37 4 75 0q116 -14 194.5 -91.5t91.5 -193.5h103v150zM1444 -309h-27v29l4 10l9 4l10 -4l4 -10v-29zM1183 -295l-4 -10l-10 -4h-13v43h13l10 -4l4 -10v-15zM309 225l-5 -11l-10 -4l-11 4l-4 11v83l4 10l11 4l10 -4l5 -10v-83zM1351 620q-13 91 -77.5 155.5
t-155.5 76.5v-232h233zM1351 545h-233v-233q91 12 156 77t77 156zM1043 620v232q-90 -12 -155 -77t-78 -155h233zM1043 312v233h-233q12 -91 77 -156t156 -77z" />
  </g>

</svg>
