<?xml version="1.0" standalone="no"?>
<!DOCTYPE svg PUBLIC "-//W3C//DTD SVG 1.1//EN" "http://www.w3.org/Graphics/SVG/1.1/DTD/svg11.dtd" >
<svg viewBox="0 -419 2155 2048">
  <g transform="matrix(1 0 0 -1 0 1638)">
   <path fill="currentColor"
d="M2155 -239q0 -74 -53 -127t-127 -53h-1599q-74 0 -127 53t-53 127v1599q0 74 53 127t127 53h1599q74 0 127 -53t53 -127v-1599zM1726 1365v151h-36v-65h-27v65h-37v-151h37v65h27v-65h36zM1587 1494v22h-100v-22h32v-129h37v129h31zM2107 778v22h-64q2 11 33 42.5
t31 45.5q0 45 -35 45h-32q-30 0 -34 -39h21q0 17 13 17h16l10 -4l4 -11q0 -19 -32 -51.5t-32 -47.5v-19h101zM1451 1365v116q0 35 -32 35h-35q-33 0 -33 -34v-117h37v65h27v-65h36zM2111 584v120q0 36 -36 36h-38q-36 0 -36 -34v-122h40v67h30v-67h40zM1321 1365v151h-19
l-69 -69l-68 69h-11v-151h21v86l54 -55l55 55v-86h37zM2098 521v21h-84v-154h36v66h32v22h-32v45h48zM1006 1365v34h-33v-34h33zM974 1463v18q0 35 -32 35h-68v-151h37l-1 65q64 -1 64 33zM2106 317v28h-102v-157h41v66h47v28h-47v35h61zM835 1400v116h-36v-116l-4 -10
l-10 -4l-9 4l-4 10v116h-37v-118q0 -33 33 -33h35q32 0 32 35zM707 1400q0 25 -24 49l-8 8q-14 14 -14 26q0 5 2 8q7 4 11 4q11 0 13 -17h20q-2 38 -32 38h-19q-32 0 -32 -35q0 -22 24 -49l8 -9q19 -21 12 -33q-6 -4 -10 -4q-3 0 -5 1l-5 2l-4 9v4h-20q0 -37 32 -37h19
q32 0 32 35zM1959 -79v1279q0 59 -42.5 101.5t-101.5 42.5h-1280q-59 0 -101.5 -42.5t-42.5 -101.5v-1279q0 -59 42.5 -101.5t101.5 -42.5h1280q59 0 101.5 42.5t42.5 101.5zM1717 -360q0 25 -24 49l-8 8q-14 14 -14 26q0 5 2 8q7 4 11 4q11 0 13 -17h20q-2 38 -32 38h-19
q-32 0 -32 -35q0 -22 24 -49l8 -9q19 -21 12 -33q-6 -4 -10 -4q-3 0 -5 1l-5 2l-4 9v4h-20q0 -37 32 -37h19q32 0 32 35zM1607 -395v60l-5 13l-11 5q16 8 16 29q0 44 -32 44h-68v-151h36v65h13l10 -4l5 -11v-50h36zM344 778v22h-64q2 11 33 42.5t31 45.5q0 45 -34 45h-32
q-31 0 -35 -39h21q1 17 14 17h15l10 -4l4 -11q0 -19 -32 -51.5t-32 -47.5v-19h101zM1479 -360v81q0 34 -33 34h-35q-32 0 -32 -33v-84q0 -33 32 -33h35q33 0 33 35zM1357 -266v22h-101v-22h32v-129h37v129h32zM349 584v120q0 36 -36 36h-38q-36 0 -36 -34v-122h40v67h30v-67
h40zM1237 -395v116q0 35 -32 35h-36q-32 0 -32 -34v-117h36v65h28v-65h36zM349 385v121q0 36 -36 36h-38q-36 0 -36 -35v-122h40v68h30v-68h40zM1107 -395v60l-5 13l-11 5q16 8 16 29q0 44 -32 44h-68v-151h36v65h13l10 -4l5 -11v-50h36zM978 -395v21h-47v44h32v21h-32v43
h47v22h-83v-151h83zM349 224v84q0 36 -36 36h-39q-36 0 -36 -34v-88q0 -34 36 -34h39q36 0 36 36zM867 -297v18q0 35 -32 35h-68v-151h36v65q64 -1 64 33zM733 -360v81q0 34 -33 34h-35q-32 0 -32 -33v-84q0 -33 32 -33h35q33 0 33 35zM1415 1451h-27v29l4 10l9 4l10 -4
l4 -10v-29zM2071 673h-30v31l5 10l10 4l10 -4l5 -10v-31zM938 1465l-4 -10l-10 -4h-14v43h14l10 -4l4 -10v-15zM1512 1158q0 -37 -21 -64q-23 -30 -59 -30q-79 0 -79 82q0 47 41 69q-23 19 -51 19q-103 0 -103 -225q0 -5 2 -144h237v-608h-241q-33 -416 -263 -416
q-56 0 -95 31q-42 33 -42 88q0 37 23.5 64t59.5 27q81 0 81 -78q0 -40 -42 -69q20 -23 50 -23q105 0 105 258q0 60 -1 118h-243v608h246q35 415 258 415q55 0 96 -34t41 -88zM1571 -295l-5 -10l-10 -4h-13v43h13l10 -4l5 -10v-15zM1442 -360l-4 -10l-9 -4l-10 4l-4 10v80
l4 10l10 4l9 -4l4 -10v-80zM309 673h-30v31l5 10l10 4l10 -4l5 -10v-31zM1201 -309h-28v29l5 10l9 4l9 -4l5 -10v-29zM309 475h-30v30l5 11l10 4l10 -4l5 -11v-30zM1071 -295l-5 -10l-10 -4h-13v43h13l10 -4l5 -10v-15zM309 225l-5 -11l-10 -4l-11 4l-4 11v83l4 10l11 4
l10 -4l5 -10v-83zM831 -295l-5 -10l-10 -4h-13v43h13l10 -4l5 -10v-15zM696 -360l-4 -10l-9 -4l-10 4l-4 10v80l4 10l10 4l9 -4l4 -10v-80zM1419 317v488h-177l2 -314q1 -104 -2 -174h177zM1113 805h-182v-488h181q-4 145 -4 263q0 130 5 225z" />
  </g>

</svg>
