<?xml version="1.0" standalone="no"?>
<!DOCTYPE svg PUBLIC "-//W3C//DTD SVG 1.1//EN" "http://www.w3.org/Graphics/SVG/1.1/DTD/svg11.dtd" >
<svg viewBox="0 -419 2155 2048">
  <g transform="matrix(1 0 0 -1 0 1638)">
   <path fill="currentColor"
d="M2155 -239q0 -75 -52.5 -127.5t-127.5 -52.5h-1599q-75 0 -127.5 52.5t-52.5 127.5v1599q0 75 52.5 127.5t127.5 52.5h1599q75 0 127.5 -52.5t52.5 -127.5v-1599zM1945 1400q0 28 -24 49l-9 8q-21 19 -11 34q6 4 11 4q11 0 13 -17h20q-2 38 -32 38h-19q-33 0 -33 -35
q0 -25 24 -49l9 -9q14 -14 14 -25q0 -4 -2 -8q-6 -4 -11 -4q-2 0 -4 1l-5 2l-4 9v4h-21q0 -37 32 -37h20q32 0 32 35zM1826 1365v21h-48v130h-36v-151h84zM1710 1400v81q0 34 -33 34h-35q-33 0 -33 -33v-84q0 -33 33 -33h35q33 0 33 35zM1576 1400q0 34 -22 41q22 8 22 32
q0 43 -35 43h-66v-151h66q35 0 35 35zM2107 778v22h-64q2 11 33 42.5t31 45.5q0 45 -35 45h-32q-30 0 -34 -39h21q0 17 13 17h16l10 -4l4 -11q0 -19 -32 -51.5t-32 -47.5v-19h101zM1439 1365v151h-20l-69 -69l-68 69h-11v-151h21v86l55 -55l54 55v-86h38zM2112 620
q0 36 -24 43q24 8 24 33q0 44 -38 44h-73v-156h73q38 0 38 36zM1240 1465v51h-37v-51l-4 -10l-9 -4l-10 4l-4 10v51h-36v-51q0 -30 32 -35v-65h36v65q32 5 32 35zM1111 1400q0 25 -24 49l-8 8q-14 14 -14 26q0 5 2 8q6 4 11 4q11 0 13 -17h20q-2 38 -32 38h-19
q-32 0 -32 -35q0 -26 23 -49l9 -9q14 -14 14 -25q0 -4 -2 -8q-6 -4 -11 -4q-2 0 -4 1l-5 2l-4 9v4h-20q0 -37 32 -37h19q32 0 32 35zM2106 317v28h-102v-157h41v66h47v28h-47v35h61zM953 1365v34h-34v-34h34zM892 1402h-21q-2 -16 -14 -16h-15l-10 4l-4 10v80l4 10l10 4h15
q12 0 14 -16h21q-2 38 -35 38h-32q-34 0 -34 -35v-81q0 -35 34 -35h32q32 0 35 37zM765 1400q0 25 -24 49l-9 9q-14 14 -14 24q0 5 4.5 9t9.5 4q11 0 13 -16h20q-2 37 -32 37h-19q-33 0 -33 -35q0 -28 24 -49l9 -8q20 -18 11 -34q-5 -4 -10 -4q-2 0 -5 2l-4 1l-4 9v4h-21
q0 -37 32 -37h19q33 0 33 35zM641 1365v151h-34v-151h34zM572 1365v151h-20l-68 -69l-68 69h-11v-151h21v86l54 -55l55 55v-86h37zM1959 -79v1279q0 60 -42 102t-102 42h-1280q-60 0 -102 -42t-42 -102v-1279q0 -60 42 -102t102 -42h1280q60 0 102 42t42 102zM1693 -361
q0 25 -24 49l-9 9q-14 14 -14 24q0 5 4.5 9t9.5 4q11 0 13 -16h20q-2 37 -32 37h-19q-33 0 -33 -35q0 -28 24 -49l9 -8q20 -18 11 -34q-5 -4 -10 -4q-2 1 -5 2l-4 1l-4 9v5h-21q0 -38 32 -38h19q33 0 33 35zM344 778v22h-64q2 11 33 42.5t31 45.5q0 45 -34 45h-32
q-31 0 -35 -39h21q1 17 14 17h15l10 -4l4 -11q0 -19 -32 -51.5t-32 -47.5v-19h101zM1578 -338v93h-38v-115l-4 -10l-10 -5h-13v130h-38v-115l-4 -10l-10 -5h-13v130h-38v-151q56 0 65 4v-4h45q58 0 58 58zM349 620q0 36 -23 43q23 8 23 33q0 44 -38 44h-73v-156h73
q38 0 38 36zM1383 -361v81q0 35 -33 35h-35q-33 0 -33 -33v-84q0 -34 33 -34h35q33 0 33 35zM1255 -396v61l-6 12l-11 5q17 9 17 29q0 44 -33 44h-68v-151h37v65h13l10 -4l4 -10v-51h37zM349 421v85q0 36 -36 36h-39q-36 0 -36 -35v-87q0 -35 36 -35h39q36 0 36 36z
M1127 -396v61l-6 12l-11 5q17 9 17 29q0 44 -33 44h-68v-151h37v65h13l10 -4l4 -10v-51h37zM349 224v84q0 36 -36 36h-39q-36 0 -36 -34v-88q0 -34 36 -34h39q36 0 36 36zM997 -396v116q0 35 -32 35h-35q-33 0 -33 -33v-118h37v65h27v-65h36zM1673 1400l-4 -10l-9 -4l-10 4
l-4 10v80l4 10l10 4l9 -4l4 -10v-80zM1539 1465l-4 -10l-10 -4h-13v43h13l10 -4l4 -10v-15zM1539 1400l-4 -10l-10 -4h-13v44h13q14 0 14 -14v-16zM2071 688l-4 -11l-11 -4h-15v45h15l11 -4l4 -10v-16zM2071 620l-4 -10l-11 -4h-15v45h15q15 0 15 -14v-17zM1788 671
l-139 139l-857 -857l-230 230l857 857l-139 139h508v-508zM309 688l-5 -11l-11 -4h-14v45h14l11 -4l5 -10v-16zM309 620l-5 -10l-11 -4h-14v45h15q15 0 15 -14v-17zM1346 -360l-4 -10l-10 -4l-9 4l-4 10v80l4 10l9 4l10 -4l4 -10v-80zM1218 -296l-4 -10l-10 -4h-13v44h13
l10 -4l4 -10v-16zM309 422l-5 -10l-10 -5l-11 5l-4 10v83l4 11l11 4l10 -4l5 -11v-83zM1090 -296l-4 -10l-10 -4h-13v44h13l10 -4l4 -10v-16zM309 225l-5 -11l-10 -4l-11 4l-4 11v83l4 10l11 4l10 -4l5 -10v-83zM961 -310h-27v30l4 10l9 4l10 -4l4 -10v-30zM1748 767v372
h-372l99 -99l-857 -857l174 -174l857 857zM2106 517v28h-102v-157h41v66h47v28h-47v35h61zM801 -311v16h-16v-16q0 -17 -17 -17h-33v-34q0 -16 -17 -16t-17 16v26q0 14 17 16v17q-17 2 -17 17v8q0 17 17 17t17 -17v-17h33v17q0 34 -33 34h-34q-33 0 -33 -34q0 -29 33 -33
q-33 0 -33 -34v-17q0 -33 33 -33h34q33 0 33 33v17h2q31 0 31 34z" />
  </g>

</svg>
