<?xml version="1.0" standalone="no"?>
<!DOCTYPE svg PUBLIC "-//W3C//DTD SVG 1.1//EN" "http://www.w3.org/Graphics/SVG/1.1/DTD/svg11.dtd" >
<svg viewBox="0 -419 2154 2048">
  <g transform="matrix(1 0 0 -1 0 1638)">
   <path fill="currentColor"
d="M2154 -239q0 -74 -53 -127t-127 -53h-1598q-74 0 -127 53t-53 127v1599q0 74 53 127t127 53h1598q74 0 127 -53t53 -127v-1599zM1718 1402h-21q-2 -16 -14 -16h-15l-10 4l-4 10v80l4 10l10 4h15q12 0 14 -16h21q-2 37 -35 37h-32q-34 0 -34 -35v-81q0 -34 34 -34h32
q32 0 35 37zM1588 1365v150h-34v-150h34zM2107 778v22h-64q2 11 33 42.5t31 45.5q0 45 -35 45h-32q-30 0 -34 -39h21q0 17 13 17h16l10 -4l4 -11q0 -19 -32 -51.5t-32 -47.5v-19h101zM1518 1494v21h-100v-21h32v-129h36v129h32zM1381 1365v150h-34v-150h34zM1319 1365v21
h-47v130h-37v-151h84zM2106 622h-20q-2 -17 -14 -17h-16l-9 4l-5 11v82l5 10l9 4h16q12 0 14 -16h20q-2 38 -34 38h-32q-34 0 -34 -36v-83q0 -36 34 -36h32q32 0 34 39zM1212 1400v81q0 34 -33 34h-35q-33 0 -33 -33v-84q0 -33 33 -33h35q33 0 33 35zM2106 424v33
q0 36 -64 36v28h64v21h-100v-71h49l10 -4l5 -11v-32l-5 -10l-10 -4h-15q-13 0 -14 16h-20q4 -38 34 -38h32q34 0 34 36zM1090 1400v51h-52v-21h16v-30q0 -13 -14 -14l-9 4l-5 10v80l5 10l10 4h15q12 0 14 -16h20q-2 38 -34 38h-32q-34 0 -34 -35v-81q0 -35 34 -35h32
q34 0 34 35zM966 1365v116q0 35 -33 35h-35q-33 0 -33 -34v-117h37v65h27v-65h37zM2098 326v21h-84v-154h36v66h32v22h-32v45h48zM842 1365v21h-47v130h-37v-151h84zM733 1400v51h-53v-21h16v-30q0 -13 -13 -14l-10 4l-4 10v80l4 10l10 4h16q12 0 13 -16h21q-2 38 -34 38
h-32q-35 0 -35 -35v-81q0 -35 35 -35h32q34 0 34 35zM1959 -79v1279q0 59 -42.5 101.5t-101.5 42.5h-1280q-59 0 -101.5 -42.5t-42.5 -101.5v-1279q0 -59 42.5 -101.5t101.5 -42.5h1280q59 0 101.5 42.5t42.5 101.5zM1718 -358h-21q-2 -16 -14 -16h-15l-10 4l-4 10v80l4 10
l10 4h15q12 0 14 -16h21q-2 37 -35 37h-32q-34 0 -34 -35v-81q0 -34 34 -34h32q32 0 35 37zM1588 -395v150h-34v-150h34zM344 778v22h-64q2 11 33 42.5t31 45.5q0 45 -34 45h-32q-31 0 -35 -39h21q1 17 14 17h15l10 -4l4 -11q0 -19 -32 -51.5t-32 -47.5v-19h101zM1518 -266
v21h-100v-21h32v-129h36v129h32zM1381 -395v150h-34v-150h34zM1319 -395v21h-47v130h-37v-151h84zM344 622h-20q-2 -17 -14 -17h-16l-9 4l-5 11v82l5 10l9 4h16q12 0 14 -16h20q-2 38 -34 38h-32q-34 0 -34 -36v-83q0 -36 34 -36h32q32 0 34 39zM1212 -360v81q0 34 -33 34
h-35q-33 0 -33 -33v-84q0 -33 33 -33h35q33 0 33 35zM349 421v85q0 36 -36 36h-39q-36 0 -36 -35v-87q0 -35 36 -35h39q36 0 36 36zM1090 -360v51h-52v-21h16v-30q0 -13 -14 -14l-9 4l-5 10v80l5 10l10 4h15q12 0 14 -16h20q-2 38 -34 38h-32q-34 0 -34 -35v-81
q0 -35 34 -35h32q34 0 34 35zM966 -395v116q0 35 -33 35h-35q-33 0 -33 -34v-117h37v65h27v-65h37zM349 224v84q0 36 -36 36h-39q-36 0 -36 -34v-88q0 -34 36 -34h39q36 0 36 36zM842 -395v21h-47v130h-37v-151h84zM733 -360v51h-53v-21h16v-30q0 -13 -13 -14l-10 4l-4 10
v80l4 10l10 4h16q12 0 13 -16h21q-2 38 -34 38h-32q-35 0 -35 -35v-81q0 -35 35 -35h32q34 0 34 35zM1175 1400l-4 -10l-9 -4l-10 4l-4 10v80l4 10l10 4l9 -4l4 -10v-80zM929 1451h-27v29l4 10l10 4l9 -4l4 -10v-29zM1728 281q0 -117 -76 -205q-79 -93 -194 -93
q-106 0 -187 60q-90 65 -90 168v63q0 12 5 37l-6 4l-47 -3l-103 -322h-231l179 580q-5 1 -35 1q-141 0 -227 69q-94 75 -94 213q0 132 113 213q101 72 238 72t225 -74q94 -80 94 -214q0 -94 -40 -201q-15 -37 -76 -193q4 -8 21 -8q8 0 16 2q65 72 104 97q57 37 136 37
q122 0 201 -92q74 -87 74 -211zM1175 -360l-4 -10l-9 -4l-10 4l-4 10v80l4 10l10 4l9 -4l4 -10v-80zM309 422l-5 -10l-10 -5l-11 5l-4 10v83l4 11l11 4l10 -4l5 -11v-83zM929 -309h-27v29l4 10l10 4l9 -4l4 -10v-29zM309 225l-5 -11l-10 -4l-11 4l-4 11v83l4 10l11 4l10 -4
l5 -10v-83zM1077 887q0 112 -89 112q-80 0 -135.5 -61t-55.5 -142q0 -59 36.5 -94t95.5 -35q67 0 111 79q37 67 37 141zM1542 325q0 59 -26 101q-31 50 -86 50q-72 0 -125 -73q-49 -67 -49 -142q0 -63 37 -104.5t99 -41.5q64 0 110 75q40 66 40 135z" />
  </g>

</svg>
