<?xml version="1.0" standalone="no"?>
<!DOCTYPE svg PUBLIC "-//W3C//DTD SVG 1.1//EN" "http://www.w3.org/Graphics/SVG/1.1/DTD/svg11.dtd" >
<svg viewBox="0 -419 2154 2048">
  <g transform="matrix(1 0 0 -1 0 1638)">
   <path fill="currentColor"
d="M2154 -239q0 -75 -52.5 -127.5t-127.5 -52.5h-1598q-75 0 -127.5 52.5t-52.5 127.5v1599q0 75 52.5 127.5t127.5 52.5h1598q75 0 127.5 -52.5t52.5 -127.5v-1599zM1796 1402h-20q-2 -16 -14 -16h-16l-10 4l-4 10v80l4 10l10 4h16q12 0 14 -16h20q-2 38 -34 38h-32
q-34 0 -34 -35v-81q0 -35 34 -35h32q32 0 34 37zM1592 1365v34h-34v-34h34zM1550 1494v22h-100v-22h32v-129h36v129h32zM2107 778v22h-64q2 11 33 42.5t31 45.5q0 45 -35 45h-32q-30 0 -34 -39h21q0 17 13 17h16l10 -4l4 -11q0 -19 -32 -51.5t-32 -47.5v-19h101zM1409 1365
v43q0 25 -23 32q23 8 23 33v43h-37v-51l-4 -10l-9 -4l-10 4l-4 10v51h-37v-43q0 -25 23 -33q-23 -7 -23 -32v-43h37v50l4 11l10 4l9 -4l4 -11v-50h37zM2106 622h-20q-2 -17 -14 -17h-16l-9 4l-5 11v82l5 10l9 4h16q12 0 14 -16h20q-2 38 -34 38h-32q-34 0 -34 -36v-83
q0 -36 34 -36h32q32 0 34 39zM1274 1365v21h-47v44h31v21h-31v43h47v22h-84v-151h84zM2107 506v36h-101v-21h64v-14q-32 -66 -32 -84v-35h37q0 54 21 96zM1091 1365v151h-21v-78l-86 78h-11v-151h21v78l86 -78h11zM943 1365v151h-33v-151h33zM2106 317v28h-102v-157h41v66
h47v28h-47v35h61zM881 1494v22h-100v-22h32v-129h36v129h32zM762 1365v116q0 35 -33 35h-35q-33 0 -33 -34v-117h37v65h27v-65h37zM637 1365v21h-47v130h-36v-151h83zM1959 -79v1279q0 59 -42.5 101.5t-101.5 42.5h-1280q-59 0 -101.5 -42.5t-42.5 -101.5v-1279
q0 -59 42.5 -101.5t101.5 -42.5h1280q59 0 101.5 42.5t42.5 101.5zM1796 -358h-20q-2 -16 -14 -16h-16l-10 4l-4 10v80l4 10l10 4h16q12 0 14 -16h20q-2 38 -34 38h-32q-34 0 -34 -35v-81q0 -35 34 -35h32q32 0 34 37zM1592 -395v34h-34v-34h34zM1550 -266v22h-100v-22h32
v-129h36v129h32zM344 778v22h-64q2 11 33 42.5t31 45.5q0 45 -34 45h-32q-31 0 -35 -39h21q1 17 14 17h15l10 -4l4 -11q0 -19 -32 -51.5t-32 -47.5v-19h101zM1409 -395v43q0 25 -23 32q23 8 23 33v43h-37v-51l-4 -10l-9 -4l-10 4l-4 10v51h-37v-43q0 -25 23 -33
q-23 -7 -23 -32v-43h37v50l4 11l10 4l9 -4l4 -11v-50h37zM344 622h-20q-2 -17 -14 -17h-16l-9 4l-5 11v82l5 10l9 4h16q12 0 14 -16h20q-2 38 -34 38h-32q-34 0 -34 -36v-83q0 -36 34 -36h32q32 0 34 39zM1274 -395v21h-47v44h31v21h-31v43h47v22h-84v-151h84zM349 422v33
q0 37 -37 37h-18q-6 -2 -14 -5l-1 -2v4q0 31 53 31v22h-31q-24 0 -43 -17.5t-19 -41.5v-61q0 -36 37 -36h36q37 0 37 36zM1091 -395v151h-21v-78l-86 78h-11v-151h21v78l86 -78h11zM943 -395v151h-33v-151h33zM349 224v84q0 36 -36 36h-39q-36 0 -36 -34v-88q0 -34 36 -34
h39q36 0 36 36zM881 -266v22h-100v-22h32v-129h36v129h32zM762 -395v116q0 35 -33 35h-35q-33 0 -33 -34v-117h37v65h27v-65h37zM637 -395v21h-47v130h-36v-151h83zM725 1451h-27v29l4 10l10 4l9 -4l4 -10v-29zM1655 110l-297 -108v130l-89 -64q-95 -68 -207 -68
q-169 0 -273 143q-94 130 -94 309q0 203 115 359q126 171 319 171q53 0 135.5 -22.5t124.5 -49.5l118 68v-735q0 -127 98 -126l11 5h39v-12zM309 422l-5 -10l-10 -4l-10 4l-5 10v33l5 10l10 4l10 -4l5 -10v-33zM309 225l-5 -11l-10 -4l-11 4l-4 11v83l4 10l11 4l10 -4l5 -10
v-83zM725 -309h-27v29l4 10l10 4l9 -4l4 -10v-29zM1358 201v421q0 144 -38 217q-53 102 -191 102q-140 0 -215 -135q-61 -109 -61 -254q0 -168 66 -297q85 -165 244 -165q120 0 195 111z" />
  </g>

</svg>
