<?xml version="1.0" standalone="no"?>
<!DOCTYPE svg PUBLIC "-//W3C//DTD SVG 1.1//EN" "http://www.w3.org/Graphics/SVG/1.1/DTD/svg11.dtd" >
<svg viewBox="0 -419 2154 2048">
  <g transform="matrix(1 0 0 -1 0 1638)">
   <path fill="currentColor"
d="M2154 -239q0 -74 -53 -127t-127 -53h-1598q-74 0 -127 53t-53 127v1599q0 74 53 127t127 53h1598q74 0 127 -53t53 -127v-1599zM1666 1365v151h-21v-78l-86 78h-11v-151h21v78l86 -78h11zM2107 778v22h-64q2 11 33 42.5t31 45.5q0 45 -35 45h-32q-30 0 -34 -39h21
q0 17 13 17h16l10 -4l4 -11q0 -19 -32 -51.5t-32 -47.5v-19h101zM1509 1365v116q0 35 -33 35h-35q-32 0 -32 -34l-1 -117h37v65h27v-65h37zM1371 1365v151h-34v-151h34zM2112 620v84q0 36 -36 36h-75v-156h75q36 0 36 36zM1305 1400v51h-53v-21h16v-30q0 -13 -13 -14l-10 4
l-4 10v80l4 10l10 4h16q12 0 13 -16h21q-2 38 -34 38h-32q-34 0 -34 -35v-81q0 -35 34 -35h32q34 0 34 35zM1175 1365v60l-5 13l-11 5q16 8 16 29q0 44 -32 44h-68v-151h37v65h13l10 -4l4 -11v-50h36zM2107 388v21h-64q2 11 33 42.5t31 46.5q0 44 -35 44h-32q-30 0 -34 -38
h21q0 17 13 17h16l10 -5l4 -10q0 -20 -32 -52.5t-32 -46.5v-19h101zM1041 1400v81q0 34 -33 34h-35q-32 0 -32 -33v-84q0 -33 32 -33h35q33 0 33 35zM2106 317v28h-102v-157h41v66h47v28h-47v35h61zM907 1365v21h-47v44h31v21h-31v43h47v22h-83v-151h83zM785 1400v51h-53
v-21h16v-30q0 -13 -13 -14l-10 4l-4 10v80l4 10l10 4h16q12 0 13 -16h21q-2 38 -34 38h-32q-35 0 -35 -35v-81q0 -35 35 -35h32q34 0 34 35zM1959 -79v1279q0 59 -42.5 101.5t-101.5 42.5h-1280q-59 0 -101.5 -42.5t-42.5 -101.5v-1279q0 -59 42.5 -101.5t101.5 -42.5h1280
q59 0 101.5 42.5t42.5 101.5zM344 778v22h-64q2 11 33 42.5t31 45.5q0 45 -34 45h-32q-31 0 -35 -39h21q1 17 14 17h15l10 -4l4 -11q0 -19 -32 -51.5t-32 -47.5v-19h101zM1366 -395v34h-33v-34h33zM1334 -297v18q0 35 -32 35h-68v-151h37v65q63 -1 63 33zM349 620v84
q0 36 -36 36h-75v-156h75q36 0 36 36zM1195 -360v116h-36v-116l-4 -10l-10 -4l-9 4l-4 10v116h-37v-118q0 -33 33 -33h35q32 0 32 35zM349 421v85q0 36 -36 36h-39q-36 0 -36 -35v-87q0 -35 36 -35h39q36 0 36 36zM1067 -360q0 25 -24 49l-8 8q-14 14 -14 26q0 5 2 8
q7 4 11 4q11 0 13 -17h20q-2 38 -32 38h-19q-32 0 -32 -35q0 -22 24 -49l8 -9q19 -21 12 -33q-6 -4 -10 -4q-3 0 -5 1l-5 2l-4 9v4h-20q0 -37 32 -37h19q32 0 32 35zM349 224v84q0 36 -36 36h-39q-36 0 -36 -34v-88q0 -34 36 -34h39q36 0 36 36zM1472 1451h-27v29l4 10l10 4
l9 -4l4 -10v-29zM2071 620l-4 -10l-11 -4h-15v112h15l11 -4l4 -10v-84zM1139 1465l-4 -10l-10 -4h-13v43h13l10 -4l4 -10v-15zM1004 1400l-4 -10l-9 -4l-10 4l-4 10v80l4 10l10 4l9 -4l4 -10v-80zM1624 1106q-6 -32 -34 -214q-16 -11 -70 -30.5t-70 -19.5l18 130l-1 20
q-32 -3 -203 -49q-39 -34 -39 -185q0 -38 9 -56q2 -4 9 -11q26 -25 77 -57l83 -52q71 -45 111.5 -103t40.5 -142q0 -73 -14 -110q-37 -97 -176 -167q-125 -63 -240 -63q-147 0 -234 60q-50 34 -71 52q-42 35 -53 68l-5 3q-36 61 -36 114q0 35 12 113l6 9l3 14l3 3
q26 96 165 175q114 65 234 88q-46 52 -46 95q0 70 12 115l-9 2q-91 -19 -275 -51q-19 0 -57 -5l-6 2l-9 -2l-3 4l-3 10q20 98 24 174l4 3q56 22 136 46l3 -14q-11 -41 -24 -126q10 -6 24 -6q76 0 285 46q192 42 285 74l129 44zM1298 -295l-4 -10l-10 -4h-13v43h13l10 -4
l4 -10v-15zM309 620l-5 -10l-11 -4h-14v112h14l11 -4l5 -10v-84zM309 422l-5 -10l-10 -5l-11 5l-4 10v83l4 11l11 4l10 -4l5 -11v-83zM309 225l-5 -11l-10 -4l-11 4l-4 11v83l4 10l11 4l10 -4l5 -10v-83zM1398 422q0 73 -69 138q-19 18 -129 94q-145 -22 -209 -87
q-15 -21 -48 -59q-52 -129 -52 -219q0 -161 132 -226h11q20 -3 58 -15h10q155 0 231 114q65 97 65 260z" />
  </g>

</svg>
