<?xml version="1.0" standalone="no"?>
<!DOCTYPE svg PUBLIC "-//W3C//DTD SVG 1.1//EN" "http://www.w3.org/Graphics/SVG/1.1/DTD/svg11.dtd" >
<svg viewBox="0 -419 2155 2048">
  <g transform="matrix(1 0 0 -1 0 1638)">
   <path fill="currentColor"
d="M2155 -239q0 -75 -52.5 -127.5t-127.5 -52.5h-1599q-75 0 -127.5 52.5t-52.5 127.5v1599q0 75 52.5 127.5t127.5 52.5h1599q75 0 127.5 -52.5t52.5 -127.5v-1599zM1604 1365v151h-37v-65h-27v65h-36v-151h36v65h27v-65h37zM2107 778v22h-64q2 11 33 42.5t31 45.5
q0 45 -35 45h-32q-30 0 -34 -39h21q0 17 13 17h16l10 -4l4 -11q0 -19 -32 -51.5t-32 -47.5v-19h101zM1480 1400v51h-52v-21h16v-30q0 -13 -14 -14l-9 4l-5 10v80l5 10l10 4h15q12 0 14 -16h20q-2 38 -34 38h-32q-34 0 -34 -35v-81q0 -35 34 -35h32q34 0 34 35zM1357 1365
v116q0 35 -33 35h-35q-33 0 -33 -34v-117h37v65h27v-65h37zM2112 620v84q0 36 -36 36h-75v-156h75q36 0 36 36zM1232 1365v151h-20v-78l-86 78h-11v-151h21v78l86 -78h10zM2107 506v36h-101v-21h64v-14q-32 -66 -32 -84v-35h37q0 54 21 96zM1088 1365v151h-33v-151h33z
M1026 1494v22h-84v-151h36v65h32v21h-32v43h48zM908 1365v151h-33v-151h33zM2098 326v21h-84v-154h36v66h32v22h-32v45h48zM846 1494v22h-100v-22h32v-129h37v129h31zM1959 -79v1279q0 60 -42 102t-102 42h-1280q-60 0 -102 -42t-42 -102v-1279q0 -60 42 -102t102 -42h1280
q60 0 102 42t42 102zM1604 -395v151h-37v-65h-27v65h-36v-151h36v65h27v-65h37zM344 778v22h-64q2 11 33 42.5t31 45.5q0 45 -34 45h-32q-31 0 -35 -39h21q1 17 14 17h15l10 -4l4 -11q0 -19 -32 -51.5t-32 -47.5v-19h101zM1480 -360v51h-52v-21h16v-30q0 -13 -14 -14l-9 4
l-5 10v80l5 10l10 4h15q12 0 14 -16h20q-2 38 -34 38h-32q-34 0 -34 -35v-81q0 -35 34 -35h32q34 0 34 35zM1357 -395v116q0 35 -33 35h-35q-33 0 -33 -34v-117h37v65h27v-65h37zM349 620v84q0 36 -36 36h-75v-156h75q36 0 36 36zM1232 -395v151h-20v-78l-86 78h-11v-151h21
v78l86 -78h10zM344 422v35q0 34 -43 36l43 29v21h-101v-22h59l-43 -29v-21l25 1q23 1 23 -15v-33l-4 -10l-10 -4h-15q-13 0 -14 16h-21q4 -38 33 -38h35q33 0 33 34zM1088 -395v151h-33v-151h33zM1026 -266v22h-84v-151h36v65h32v21h-32v43h48zM908 -395v151h-33v-151h33z
M349 224v84q0 36 -36 36h-39q-36 0 -36 -34v-88q0 -34 36 -34h39q36 0 36 36zM846 -266v22h-100v-22h32v-129h37v129h31zM1320 1451h-27v29l4 10l10 4l9 -4l4 -10v-29zM2071 620l-4 -10l-11 -4h-15v112h15l11 -4l4 -10v-84zM1484 508h-237v-587h-148v587h-233v131h233v561
h148v-561h237v-131zM1320 -309h-27v29l4 10l10 4l9 -4l4 -10v-29zM309 620l-5 -10l-11 -4h-14v112h14l11 -4l5 -10v-84zM309 225l-5 -11l-10 -4l-11 4l-4 11v83l4 10l11 4l10 -4l5 -10v-83z" />
  </g>

</svg>
