<?xml version="1.0" standalone="no"?>
<!DOCTYPE svg PUBLIC "-//W3C//DTD SVG 1.1//EN" "http://www.w3.org/Graphics/SVG/1.1/DTD/svg11.dtd" >
<svg viewBox="0 -419 2155 2048">
  <g transform="matrix(1 0 0 -1 0 1638)">
   <path fill="currentColor"
d="M2155 -239q0 -75 -52.5 -127.5t-127.5 -52.5h-1599q-75 0 -127.5 52.5t-52.5 127.5v1599q0 75 52.5 127.5t127.5 52.5h1599q75 0 127.5 -52.5t52.5 -127.5v-1599zM2107 778v22h-64q2 11 33 42.5t31 45.5q0 45 -35 45h-32q-30 0 -34 -39h21q0 17 13 17h16l10 -4l4 -11
q0 -19 -32 -51.5t-32 -47.5v-19h101zM1366 1365v33h-33v-33h33zM1334 1463v17q0 35 -32 35h-68v-150h37l-1 64q64 -1 64 34zM2098 583v22h-47v45h31v21h-31v45h47v22h-84v-155h84zM1195 1399v116h-36v-115l-4 -10l-10 -4l-9 4l-4 10v115h-37v-117q0 -33 33 -33h35
q32 0 32 34zM2107 506v36h-101v-21h64v-14q-32 -66 -32 -84v-35h37q0 54 21 96zM1067 1399q0 26 -24 50l-8 8q-14 14 -14 26q0 4 2 8q7 3 11 3q11 0 13 -16h20q-2 37 -32 37h-19q-32 0 -32 -35q0 -25 24 -49l8 -8q14 -14 14 -26q0 -4 -2 -8q-6 -3 -10 -3q-3 0 -5 1l-5 2
l-4 8v5h-20q0 -37 32 -37h19q32 0 32 34zM2106 317v28h-102v-157h41v66h47v28h-47v35h61zM1959 -79v1279q0 60 -42 102t-102 42h-1280q-60 0 -102 -42t-42 -102v-1279q0 -60 42 -102t102 -42h1280q60 0 102 42t42 102zM344 778v22h-64q2 11 33 42.5t31 45.5q0 45 -34 45h-32
q-31 0 -35 -39h21q1 17 14 17h15l10 -4l4 -11q0 -19 -32 -51.5t-32 -47.5v-19h101zM1522 -395v34h-34v-34h34zM1480 -266v22h-100v-22h32v-129h36v129h32zM1345 -358h-20q-2 -16 -14 -16h-16l-10 4l-4 10v80l4 10l10 4h16q12 0 14 -16h20q-2 37 -34 37h-32q-34 0 -34 -35
v-81q0 -35 34 -35h32q32 0 34 38zM336 583v22h-48v45h32v21h-32v45h48v22h-84v-155h84zM1209 -395v151h-21v-78l-86 78h-10v-151h21v78l85 -78h11zM349 421v85q0 36 -36 36h-39q-36 0 -36 -35v-87q0 -35 36 -35h39q36 0 36 36zM1057 -360v116h-36v-116l-5 -10l-9 -4l-10 4
l-4 10v116h-36v-118q0 -33 32 -33h36q32 0 32 35zM349 224v84q0 36 -36 36h-39q-36 0 -36 -34v-88q0 -34 36 -34h39q36 0 36 36zM929 -279q2 33 -33 34l-68 1v-151h37v65q61 -1 63 33zM1298 1465l-4 -10l-10 -5h-14v44h14l10 -4l4 -10v-15zM1290 1083q0 -41 -31.5 -71
t-72.5 -30q-43 0 -71 30.5t-28 73.5q0 41 29 68t70 27t72.5 -28.5t31.5 -69.5zM1479 201q0 -102 -104 -168q-90 -57 -198 -57q-129 0 -216 81q-90 83 -90 211q0 113 105 248q134 172 151 214q24 58 38 146h35q12 -8 15 -33l53 -515q16 -155 16 -204q0 -48 -11 -81
q106 27 106 103q0 2 -31 50t-31 76q0 78 75 78q87 0 87 -149zM309 422l-5 -10l-10 -5l-11 5l-4 10v83l4 11l11 4l10 -4l5 -11v-83zM892 -295l-4 -10l-10 -4h-13v43h13l10 -4l4 -10v-15zM309 225l-5 -11l-10 -4l-11 4l-4 11v83l4 10l11 4l10 -4l5 -10v-83zM1135 593
q-56 -145 -65 -171q-33 -99 -33 -179q0 -87 58 -149l-1 26l-2 4q1 11 43 469z" />
  </g>

</svg>
