<?xml version="1.0" standalone="no"?>
<!DOCTYPE svg PUBLIC "-//W3C//DTD SVG 1.1//EN" "http://www.w3.org/Graphics/SVG/1.1/DTD/svg11.dtd" >
<svg viewBox="0 -419 2155 2048">
  <g transform="matrix(1 0 0 -1 0 1638)">
   <path fill="currentColor"
d="M2155 -239q0 -75 -52.5 -127.5t-127.5 -52.5h-1599q-75 0 -127.5 52.5t-52.5 127.5v1599q0 75 52.5 127.5t127.5 52.5h1599q75 0 127.5 -52.5t52.5 -127.5v-1599zM2107 778v22h-64q2 11 33 42.5t31 45.5q0 45 -35 45h-32q-30 0 -34 -39h21q0 17 13 17h16l10 -4l4 -11
q0 -19 -32 -51.5t-32 -47.5v-19h101zM1360 1365l-66 75l66 76h-35l-48 -56v56h-37v-151h37v53l45 -53h38zM2098 583v22h-47v45h31v21h-31v45h47v22h-84v-155h84zM1213 1398v118h-36v-116l-4 -10l-10 -4l-9 4l-4 10v35h-37v-37q0 -33 32 -33h36q32 0 32 33zM2098 521v21h-84
v-154h36v66h32v22h-32v45h48zM1090 1402h-20q-2 -16 -14 -16h-15l-10 4l-5 10v80l5 10l10 4h15q12 0 14 -16h20q-2 38 -34 38h-32q-34 0 -34 -35v-81q0 -35 34 -35h32q32 0 34 37zM2106 317v28h-102v-157h41v66h47v28h-47v35h61zM1959 -79v1279q0 60 -42 102t-102 42h-1280
q-60 0 -102 -42t-42 -102v-1279q0 -60 42 -102t102 -42h1280q60 0 102 42t42 102zM1645 -360q0 25 -24 49l-8 8q-14 14 -14 26q0 5 2 8q7 4 11 4q11 0 13 -17h20q-2 38 -32 38h-19q-32 0 -32 -35q0 -22 24 -49l8 -9q19 -21 12 -33q-6 -4 -10 -4q-3 0 -5 1l-5 2l-4 9v4h-20
q0 -37 32 -37h19q32 0 32 35zM1528 -395v21h-47v130h-36v-151h83zM344 778v22h-64q2 11 33 42.5t31 45.5q0 45 -34 45h-32q-31 0 -35 -39h21q1 17 14 17h15l10 -4l4 -11q0 -19 -32 -51.5t-32 -47.5v-19h101zM1411 -395v116q0 35 -33 35h-35q-32 0 -32 -34v-117h36v65h27v-65
h37zM336 583v22h-48v45h32v21h-32v45h48v22h-84v-155h84zM1283 -358h-20q-2 -16 -14 -16h-15l-10 4l-4 10v80l4 10l10 4h15q12 0 14 -16h20q-2 38 -34 38h-32q-34 0 -34 -35v-81q0 -35 34 -35h32q32 0 34 37zM1147 -395v151h-33v-151h33zM350 421q0 36 -24 43q24 8 24 33
q0 45 -38 45h-35q-38 0 -38 -36q0 -35 24 -42q-24 -9 -24 -34q0 -45 38 -45h35q38 0 38 36zM1075 -360v81q0 35 -32 35h-68v-151h68q32 0 32 35zM941 -395v116q0 35 -32 35h-35q-33 0 -33 -34v-117h37v65h27v-65h36zM349 224v84q0 36 -36 36h-39q-36 0 -36 -34v-88
q0 -34 36 -34h39q36 0 36 36zM805 -395v60l-5 13l-11 5q16 8 16 29q0 44 -33 44h-67v-151h36v65h13l10 -4l4 -11v-50h37zM1774 877l-377 -2v-214q0 -9 -5 -12.5l-5 -3.5h-75v230h-289v-230q-48 0 -83 -16v246h-349q0 17 -15 18v28h363v241q45 -8 131 -32q-5 -20 -47 -43
v-166h289v226h79q16 0 51 -27q-15 -12 -47 -33v-166l197 1q14 0 33.5 27t19.5 42h28q21 -33 101 -86v-28zM1374 -309h-27v29l4 10l10 4l9 -4l4 -10v-29zM310 489l-5 -10l-11 -4l-10 4l-5 10v16l5 11l10 4l11 -4l5 -11v-16zM310 422l-5 -10l-11 -5l-10 5l-5 10v16q0 15 15 15
q16 0 16 -15v-16zM1039 -360l-4 -10l-10 -4h-13v108h13l10 -4l4 -10v-80zM905 -309h-27v29l4 10l9 4l10 -4l4 -10v-29zM309 225l-5 -11l-10 -4l-11 4l-4 11v83l4 10l11 4l10 -4l5 -10v-83zM768 -295l-4 -10l-10 -4h-13v43h13l10 -4l4 -10v-15z" />
  </g>

</svg>
