<?xml version="1.0" standalone="no"?>
<!DOCTYPE svg PUBLIC "-//W3C//DTD SVG 1.1//EN" "http://www.w3.org/Graphics/SVG/1.1/DTD/svg11.dtd" >
<svg viewBox="0 -419 2155 2048">
  <g transform="matrix(1 0 0 -1 0 1638)">
   <path fill="currentColor"
d="M2155 -239q0 -75 -52.5 -127.5t-127.5 -52.5h-1599q-75 0 -127.5 52.5t-52.5 127.5v1599q0 75 52.5 127.5t127.5 52.5h1599q75 0 127.5 -52.5t52.5 -127.5v-1599zM1542 1365v151h-34v-151h34zM2107 778v22h-64q2 11 33 42.5t31 45.5q0 45 -35 45h-32q-30 0 -34 -39h21
q0 17 13 17h16l10 -4l4 -11q0 -19 -32 -51.5t-32 -47.5v-19h101zM1474 1365v43q0 25 -23 32q23 8 23 33v43h-37v-51l-4 -10l-10 -4l-9 4l-4 10v51h-37v-43q0 -25 23 -33q-23 -7 -23 -32v-43h37v50l4 11l9 4l10 -4l4 -11v-50h37zM1342 1400v51h-53v-21h16v-30q0 -13 -13 -14
l-10 5l-4 10v80l4 10l10 4h15q13 0 14 -16h21q-2 37 -35 37h-31q-35 0 -35 -35v-81q0 -35 35 -35h31q35 0 35 35zM2098 716v22h-84v-155h36v67h32v21h-32v45h48zM1210 1365v151h-20v-78l-86 78h-11v-151h21v78l86 -78h10zM2112 421v85q0 36 -36 36h-75v-157h75q36 0 36 36z
M1062 1365v116q0 35 -33 35h-35q-33 0 -33 -33v-118h37v65h27v-65h37zM2106 317v28h-102v-157h41v66h47v28h-47v35h61zM928 1365l-66 75l66 76h-34l-49 -56v56h-37v-151h37v53l45 -53h38zM1959 -79v1279q0 60 -42 102t-102 42h-1280q-60 0 -102 -42t-42 -102v-1279
q0 -60 42 -102t102 -42h1280q60 0 102 42t42 102zM1645 -360q0 25 -24 49l-8 8q-14 14 -14 26q0 5 2 8q7 4 11 4q11 0 13 -17h20q-2 38 -32 38h-19q-32 0 -32 -35q0 -22 24 -49l8 -9q19 -21 12 -33q-6 -4 -10 -4q-3 0 -5 1l-5 2l-4 9v4h-20q0 -37 32 -37h19q32 0 32 35z
M1528 -395v21h-47v130h-36v-151h83zM344 778v22h-64q2 11 33 42.5t31 45.5q0 45 -34 45h-32q-31 0 -35 -39h21q1 17 14 17h15l10 -4l4 -11q0 -19 -32 -51.5t-32 -47.5v-19h101zM1411 -395v116q0 35 -33 35h-35q-32 0 -32 -34v-117h36v65h27v-65h37zM336 716v22h-84v-155h36
v67h32v21h-32v45h48zM1283 -358h-20q-2 -16 -14 -16h-15l-10 4l-4 10v80l4 10l10 4h15q12 0 14 -16h20q-2 38 -34 38h-32q-34 0 -34 -35v-81q0 -35 34 -35h32q32 0 34 37zM1147 -395v151h-33v-151h33zM349 421v85q0 36 -36 36h-39q-36 0 -36 -35v-87q0 -35 36 -35h39
q36 0 36 36zM1075 -360v81q0 35 -32 35h-68v-151h68q32 0 32 35zM941 -395v116q0 35 -32 35h-35q-33 0 -33 -34v-117h37v65h27v-65h36zM349 224v84q0 36 -36 36h-39q-36 0 -36 -34v-88q0 -34 36 -34h39q36 0 36 36zM805 -395v60l-5 13l-11 5q16 8 16 29q0 44 -33 44h-67
v-151h36v65h13l10 -4l4 -11v-50h37zM2071 422l-4 -10l-11 -5h-15v113h15l11 -4l4 -11v-83zM1025 1451h-27v30l4 10l9 4l10 -4l4 -10v-30zM1709 919q-12 1 -30 -8q-28 -14 -33 -15v-450q-15 0 -15 -15h-85v100h-347v-545q-13 2 -40 2t-69 -2v545h-364v-116q-58 0 -85 -8v549
h139v-37q-8 0 -27 -10q-22 -11 -28 -13v-316h363v563q32 -1 66 -1q47 0 98 2v-36q-6 0 -26 -10q-24 -12 -28 -13v-505h344v376h135q2 -4 17 -16.5t15 -20.5zM1374 -309h-27v29l4 10l10 4l9 -4l4 -10v-29zM309 422l-5 -10l-10 -5l-11 5l-4 10v83l4 11l11 4l10 -4l5 -11v-83z
M1039 -360l-4 -10l-10 -4h-13v108h13l10 -4l4 -10v-80zM905 -309h-27v29l4 10l9 4l10 -4l4 -10v-29zM309 225l-5 -11l-10 -4l-11 4l-4 11v83l4 10l11 4l10 -4l5 -10v-83zM768 -295l-4 -10l-10 -4h-13v43h13l10 -4l4 -10v-15z" />
  </g>

</svg>
