<?xml version="1.0" standalone="no"?>
<!DOCTYPE svg PUBLIC "-//W3C//DTD SVG 1.1//EN" "http://www.w3.org/Graphics/SVG/1.1/DTD/svg11.dtd" >
<svg viewBox="0 -419 2155 2048">
  <g transform="matrix(1 0 0 -1 0 1638)">
   <path fill="currentColor"
d="M2155 -239q0 -75 -52.5 -127.5t-127.5 -52.5h-1599q-75 0 -127.5 52.5t-52.5 127.5v1599q0 75 52.5 127.5t127.5 52.5h1599q75 0 127.5 -52.5t52.5 -127.5v-1599zM1807 1402h-21q-1 -16 -13 -16h-16l-10 4l-4 10v80l4 10l10 4h16q12 0 13 -16h21q-2 38 -34 38h-32
q-35 0 -35 -35v-81q0 -35 35 -35h32q32 0 34 37zM1671 1365v151h-34v-151h34zM1604 1365v151h-37v-65h-27v65h-36v-151h36v65h27v-65h37zM2107 778v22h-64q2 11 33 42.5t31 45.5q0 45 -35 45h-32q-30 0 -34 -39h21q0 17 13 17h16l10 -4l4 -11q0 -19 -32 -51.5t-32 -47.5v-19
h101zM1480 1463v18q0 35 -33 35h-67v-151h36v65h13q51 0 51 33zM1353 1365v116q0 35 -32 35h-35q-33 0 -33 -34v-117h37v65h27v-65h36zM2098 716v22h-84v-155h36v67h32v21h-32v45h48zM1225 1365v60l-5 13l-11 5q16 8 16 29q0 44 -32 44h-68v-151h37v65h13l10 -4l4 -11v-50
h36zM2098 521v21h-84v-154h36v66h32v22h-32v45h48zM1096 1478q-3 38 -35 38h-32q-34 0 -34 -35v-81q0 -35 34 -35h32q34 0 34 35v51h-52v-21h16v-30q0 -13 -13 -14l-10 4l-4 10v80l4 10l10 4h15q12 0 14 -16h21zM968 1400v81q0 34 -32 34h-35q-33 0 -33 -33v-84
q0 -33 33 -33h35q32 0 32 35zM2106 317v28h-102v-157h41v66h47v28h-47v35h61zM835 1365v21h-48v44h32v21h-32v43h48v22h-84v-151h84zM719 1400v81q0 35 -33 35h-68v-151h68q33 0 33 35zM576 1365v151h-33v-151h33zM1959 -79v1279q0 59 -42.5 101.5t-101.5 42.5h-1280
q-59 0 -101.5 -42.5t-42.5 -101.5v-1279q0 -59 42.5 -101.5t101.5 -42.5h1280q59 0 101.5 42.5t42.5 101.5zM1652 -395v34h-33v-34h33zM1617 -266v22h-100v-22h32v-129h36v129h32zM344 778v22h-64q2 11 33 42.5t31 45.5q0 45 -34 45h-32q-31 0 -35 -39h21q1 17 14 17h15
l10 -4l4 -11q0 -19 -32 -51.5t-32 -47.5v-19h101zM1492 -297v18q0 35 -33 35h-67v-151h36v65q64 -1 64 33zM1358 -395v151h-33v-151h33zM336 716v22h-84v-155h36v67h32v21h-32v45h48zM1285 -395v60l-6 13l-11 5q17 8 17 29q0 44 -33 44h-68v-151h37v65h13l10 -4l4 -11v-50
h37zM1150 -358h-21q-1 -16 -13 -16h-16l-10 4l-4 10v80l4 10l10 4h16q12 0 13 -16h21q-2 38 -34 38h-32q-34 0 -34 -35v-81q0 -35 34 -35h32q32 0 34 37zM336 521v21h-84v-154h36v66h32v22h-32v45h48zM1023 -360q0 25 -24 49l-8 8q-14 14 -14 26q0 5 2 8q7 4 11 4
q11 0 13 -17h20q-2 38 -32 38h-19q-32 0 -32 -35q0 -22 24 -49l8 -9q19 -21 12 -33q-6 -4 -11 -4q-2 0 -4 1l-5 2l-4 9v4h-20q0 -37 32 -37h19q32 0 32 35zM349 224v84q0 36 -36 36h-39q-36 0 -36 -34v-88q0 -34 36 -34h39q36 0 36 36zM914 -395v21h-47v44h31v21h-31v43h47
v22h-84v-151h84zM798 -360v81q0 35 -32 35h-68v-151h68q32 0 32 35zM1443 1465l-4 -10l-10 -4h-13v43h13l10 -4l4 -10v-15zM1317 1451h-27v29l4 10l9 4l10 -4l4 -10v-29zM1709 1066h-86v39h86v-39zM1707 928h-51v93h51v-93zM1189 1465l-4 -10l-10 -4h-13v43h13l10 -4l4 -10
v-15zM1534 1066h-90v39h90v-39zM1709 776h-57v84h57v-84zM1372 1068h-80v37h80v-37zM932 1400l-4 -10l-10 -4l-9 4l-4 10v80l4 10l9 4l10 -4l4 -10v-80zM1703 642h-45v72h45v-72zM1201 1072h-70v33h70v-33zM1713 486h-53v90h53v-90zM1183 938h-41v89h41v-89zM682 1400
l-4 -10l-10 -4h-13v108h13l10 -4l4 -10v-80zM1041 1068h-72v37h72v-37zM1707 333h-51v87h51v-87zM1181 792h-42v89h42v-89zM884 1068h-76v37h76v-37zM1709 158h-57v116h57v-116zM1181 615h-37v105h37v-105zM720 1068h-83v37h83v-37zM1703 68h-78v33h78v-33zM1183 453h-41
v111h41v-111zM672 932h-35v89h35v-89zM1561 68h-76v33h76v-33zM1183 305h-39v106h39v-106zM677 778h-40v76h40v-76zM1384 68h-96v31h96v-31zM1187 156h-43v95h43v-95zM674 615h-37v87h37v-87zM1222 68h-95v39h95v-39zM674 451h-37v107h37v-107zM1455 -295l-4 -10l-10 -4h-13
v43h13l10 -4l4 -10v-15zM1037 68h-68v37h68v-37zM674 321h-37v86h37v-86zM1248 -295l-4 -10l-10 -4h-13v43h13l10 -4l4 -10v-15zM886 68h-72v33h72v-33zM674 140h-37v107h37v-107zM724 68h-87v37h87v-37zM309 225l-5 -11l-10 -4l-11 4l-4 11v83l4 10l11 4l10 -4l5 -10v-83z
M762 -360l-4 -10l-10 -4h-14v108h14l9 -4l5 -10v-80z" />
  </g>

</svg>
