<?xml version="1.0" standalone="no"?>
<!DOCTYPE svg PUBLIC "-//W3C//DTD SVG 1.1//EN" "http://www.w3.org/Graphics/SVG/1.1/DTD/svg11.dtd" >
<svg viewBox="0 -419 2155 2048">
  <g transform="matrix(1 0 0 -1 0 1638)">
   <path fill="currentColor"
d="M2155 -239q0 -75 -52.5 -127.5t-127.5 -52.5h-1599q-75 0 -127.5 52.5t-52.5 127.5v1599q0 75 52.5 127.5t127.5 52.5h1599q75 0 127.5 -52.5t52.5 -127.5v-1599zM1732 1400v81q0 35 -33 35h-67v-151h67q33 0 33 35zM1959 1158v42q0 59 -42.5 101.5t-101.5 42.5h-42z
M2107 978v22h-64q2 11 33 42.5t31 45.5q0 44 -35 44h-32q-30 0 -34 -38h21q0 17 13 17h16l10 -4l4 -11q0 -19 -32 -51.5t-32 -47.5v-19h101zM1595 1365v21h-47v44h31v21h-31v43h47v22h-84v-151h84zM2098 911v22h-84v-155h36v67h32v21h-32v45h48zM1959 934v111l-299 299h-112
zM1472 1365v151h-21v-78l-85 78h-11v-151h21v78l85 -78h11zM1314 1365v151h-34v-151h34zM2098 716v22h-84v-155h36v67h32v21h-32v45h48zM1959 708v113l-524 523h-112zM1250 1496v22h-83v-151h36v65h32v21h-32v43h47zM1128 1365v21h-47v44h31v21h-31v43h47v22h-83v-151h83z
M2098 521v21h-84v-154h36v66h32v22h-32v45h48zM1007 1400v81q0 35 -32 35h-68v-151h68q32 0 32 35zM2112 224v84q0 36 -36 36l-75 1v-157h75q36 0 36 36zM872 1365v151h-21v-78l-85 78h-11v-151h21v78l86 -78h10zM718 1400v116h-36v-116l-4 -10l-10 -4l-9 4l-4 10v116h-37
v-118q0 -33 33 -33h35q32 0 32 35zM1959 -84l-301 300q25 34 44 70l257 -257v111l-224 224q15 43 23 90l201 -201v113l-192 191v4q0 63 -11 121l203 -203v116l-281 281q-74 114 -187 187l-281 281h-117l203 -203q-58 12 -121 12l-3 -1l-192 192h-112l200 -200
q-46 -8 -90 -23l-223 223h-112l257 -257q-35 -19 -69 -43l-301 300q-46 -2 -82 -30l322 -322q-30 -28 -55 -58l-315 315q-9 -24 -9 -49v-56l276 -276q-22 -36 -38 -74l-238 237v-112l210 -209q-12 -48 -16 -98l-194 194v-112l195 -194q7 -76 32 -145l-227 226v-112l692 -692
h113l-227 226q69 -25 146 -32l194 -194h111l-193 193q50 4 97 16l209 -209h113l-238 237q39 17 75 39l276 -276h56q25 0 48 8l-314 315q31 26 58 55l322 -322q28 37 30 83zM344 978v22h-64q2 11 33 42.5t31 45.5q0 44 -34 44h-32q-31 0 -35 -38h21q1 17 14 17h15l10 -4
l4 -11q0 -19 -32 -51.5t-32 -47.5v-19h101zM1585 -395v22h-63q1 11 32 42.5t31 45.5q0 44 -34 44h-32q-30 0 -35 -38h21q1 17 14 17h15l10 -4l5 -11q-1 -19 -32.5 -51.5t-31.5 -47.5v-19h100zM349 818v84q0 36 -36 36h-39q-36 0 -36 -34v-88q0 -34 36 -34h39q36 0 36 36z
M1380 -395v21h-47v44h31v21h-31v43h47v22h-84v-151h84zM349 620v84q0 36 -36 36h-39q-36 0 -36 -34v-88q0 -34 36 -34h39q36 0 36 36zM1261 -395v151h-21v-78l-86 78h-10v-151h21v78l85 -78h11zM349 421v85q0 36 -36 36h-39q-36 0 -36 -35v-87q0 -35 36 -35h39q36 0 36 36z
M970 -223l-579 579v-113l466 -466h113zM1111 -395v116q0 35 -33 35h-35q-32 0 -32 -34v-117h36v65h27v-65h37zM976 -395v21h-47v130h-36v-151h83zM349 224v84q0 36 -36 36h-39q-36 0 -36 -34v-88q0 -34 36 -34h39q36 0 36 36zM744 -223l-353 352v-112l241 -240h112z
M865 -297v18q0 35 -32 35h-68v-151h36v65q64 -1 64 33zM517 -222l-124 125q14 -111 124 -125zM1695 1400l-4 -10l-10 -4h-13v108h13l10 -4l4 -10v-80zM971 1400l-4 -10l-10 -4h-14v108h14l9 -4l5 -10v-80zM2071 225l-4 -11l-11 -4h-15v113h15l11 -5l4 -10v-83zM1727 561
q0 -234 -159 -393.5t-393 -159.5t-393 159.5t-159 393.5q0 233 159.5 392.5t392.5 159.5t392.5 -159.5t159.5 -392.5zM309 818l-5 -10l-10 -4l-11 4l-4 10v83l4 11l11 4l10 -4l5 -11v-83zM309 620l-5 -10l-10 -4l-11 4l-4 10v84l4 10l11 4l10 -4l5 -10v-84zM1074 -309h-27
v29l4 10l10 4l9 -4l4 -10v-29zM309 422l-5 -10l-10 -5l-11 5l-4 10v83l4 11l11 4l10 -4l5 -11v-83zM309 225l-5 -11l-10 -4l-11 4l-4 11v83l4 10l11 4l10 -4l5 -10v-83zM829 -295l-5 -10l-9 -4h-14v43h14l9 -4l5 -10v-15zM1687 561q0 216 -148 364t-364 148t-364 -148
t-148 -364q0 -217 147.5 -365t364.5 -148t364.5 148t147.5 365zM1380 253h-410v68q0 67 132 184l9 8q132 117 132 183v35q0 28 -20 48t-48 20h-68q-64 0 -68 -68h-69q16 136 137 136h136q57 0 97 -39.5t40 -96.5v-35q0 -66 -132 -183l-9 -8q-132 -117 -132 -178v-6h273v-68z
" />
  </g>

</svg>
