<?xml version="1.0" standalone="no"?>
<!DOCTYPE svg PUBLIC "-//W3C//DTD SVG 1.1//EN" "http://www.w3.org/Graphics/SVG/1.1/DTD/svg11.dtd" >
<svg viewBox="0 -419 2155 2048">
  <g transform="matrix(1 0 0 -1 0 1638)">
   <path fill="currentColor"
d="M2155 -239q0 -74 -53 -127t-127 -53h-1599q-74 0 -127 53t-53 127v1599q0 74 53 127t127 53h1599q74 0 127 -53t53 -127v-1599zM1687 1365v116q0 35 -33 35h-35q-32 0 -32 -34v-117h36v65h27v-65h37zM1563 1364v151h-21v-78l-86 78h-10v-151h21v78l85 -78h11zM2107 812
v35q0 34 -43 36l43 29v21h-101v-22h59l-43 -29v-21l25 1q23 1 23 -15v-33l-4 -10l-10 -4h-15q-13 0 -14 16h-21q4 -38 33 -38h35q33 0 33 34zM1414 1365v116q0 35 -33 35h-35q-33 0 -33 -34v-117h37v65h27v-65h37zM2112 620v84q0 36 -36 36h-39q-36 0 -36 -34v-88
q0 -34 36 -34h39q36 0 36 36zM1295 1364l-66 76l66 75h-35l-48 -55v55h-37v-151h37v53l44 -53h39zM1150 1365v116q0 35 -32 35h-36q-32 0 -32 -34v-117h36v65h28v-65h36zM2098 521v21h-84v-154h36v66h32v22h-32v45h48zM1027 1494v22h-100v-22h32v-129h37v129h31zM2106 317
v28h-102v-157h41v66h47v28h-47v35h61zM900 1364v116q0 35 -33 35h-35q-32 0 -32 -33v-118h36v65h27v-65h37zM783 1364l-66 76l66 75h-35l-48 -55v55h-37v-151h37v53l44 -53h39zM1959 -79v1279q0 59 -42.5 101.5t-101.5 42.5h-1280q-59 0 -101.5 -42.5t-42.5 -101.5v-1279
q0 -59 42.5 -101.5t101.5 -42.5h1280q59 0 101.5 42.5t42.5 101.5zM1687 -395v116q0 35 -33 35h-35q-32 0 -32 -34v-117h36v65h27v-65h37zM1563 -395v151h-21v-78l-86 78h-10v-151h21v78l85 -78h11zM344 812v35q0 34 -43 36l43 29v21h-101v-22h59l-43 -29v-21l25 1
q23 1 23 -15v-33l-4 -10l-10 -4h-15q-13 0 -14 16h-21q4 -38 33 -38h35q33 0 33 34zM1414 -395v116q0 35 -33 35h-35q-33 0 -33 -34v-117h37v65h27v-65h37zM349 620v84q0 36 -36 36h-39q-36 0 -36 -34v-88q0 -34 36 -34h39q36 0 36 36zM1295 -396l-66 76l66 75h-35l-48 -55
v55h-37v-151h37v53l44 -53h39zM1150 -395v116q0 35 -32 35h-36q-32 0 -32 -34v-117h36v65h28v-65h36zM349 385v121q0 36 -36 36h-38q-36 0 -36 -35v-122h40v68h30v-68h40zM1027 -266v22h-100v-22h32v-129h37v129h31zM349 224v84q0 36 -36 36h-39q-36 0 -36 -34v-88
q0 -34 36 -34h39q36 0 36 36zM900 -396v116q0 35 -33 35h-35q-32 0 -32 -33v-118h36v65h27v-65h37zM783 -396l-66 76l66 75h-35l-48 -55v55h-37v-151h37v53l44 -53h39zM1650 1451h-27v29l4 10l10 4l9 -4l4 -10v-29zM1377 1451h-27v29l4 10l10 4l9 -4l4 -10v-29zM2071 620
l-4 -10l-11 -4l-10 4l-5 10v84l5 10l10 4l11 -4l4 -10v-84zM1114 1451h-28v29l5 10l9 4l9 -4l5 -10v-29zM863 1450h-27v30l4 10l10 4l9 -4l4 -10v-30zM1745 748q0 -14 -35 -53q-37 -42 -43 -66q-52 -209 -134 -402q-126 -296 -236 -296q-26 0 -30 19q-1 5 -1 39q0 26 -60 94
q-66 75 -75 107h10q136 -94 181 -94q39 0 95 96q39 67 64 135q53 146 75 219q40 135 42 224q-12 11 -48 11q-270 0 -320 -29q-8 -5 -33 -53q-96 -188 -246 -369q-183 -221 -332 -274l-14 4q391 385 501 673q-6 8 -17 8q-36 0 -104.5 -24.5t-104.5 -24.5q-39 0 -86.5 61
t-47.5 102q0 15 3 23l7 3q-33 0 36.5 -35t90.5 -35q203 0 264 22q20 7 63 119q43 109 43 140q0 25 -29 44q-13 8 -47 30v11q10 13 33 13q34 0 105 -38q76 -41 76 -70q0 -28 -57 -113t-57 -112q0 -12 20 -12q35 0 103.5 6t103.5 6q22 0 64.5 14t54.5 14q34 0 78 -51t44 -86z
M1650 -309h-27v29l4 10l10 4l9 -4l4 -10v-29zM1377 -309h-27v29l4 10l10 4l9 -4l4 -10v-29zM309 620l-5 -10l-10 -4l-11 4l-4 10v84l4 10l11 4l10 -4l5 -10v-84zM1114 -309h-28v29l5 10l9 4l9 -4l5 -10v-29zM309 475h-30v30l5 11l10 4l10 -4l5 -11v-30zM863 -310h-27v30
l4 10l10 4l9 -4l4 -10v-30zM309 225l-5 -11l-10 -4l-11 4l-4 11v83l4 10l11 4l10 -4l5 -10v-83z" />
  </g>

</svg>
