<?xml version="1.0" standalone="no"?>
<!DOCTYPE svg PUBLIC "-//W3C//DTD SVG 1.1//EN" "http://www.w3.org/Graphics/SVG/1.1/DTD/svg11.dtd" >
<svg viewBox="0 -419 2155 2048">
  <g transform="matrix(1 0 0 -1 0 1638)">
   <path fill="currentColor"
d="M2155 -239q0 -74 -53 -127t-127 -53h-1599q-75 0 -127.5 52.5t-52.5 127.5v1599q0 75 52.5 127.5t127.5 52.5h1599q74 0 127 -53t53 -127v-1599zM1722 1400v81q0 34 -33 34h-35q-33 0 -33 -33v-84q0 -33 33 -33h35q33 0 33 35zM1585 1494v22h-84v-151h37v65h31v21h-31v43
h47zM2107 812v35q0 34 -43 36l43 29v21h-101v-22h59l-43 -29v-21l25 1q23 1 23 -15v-33l-4 -10l-10 -4h-15q-13 0 -14 16h-21q4 -38 33 -38h35q33 0 33 34zM1465 1400v81q0 34 -33 34h-35q-33 0 -33 -33v-84q0 -33 33 -33h35q33 0 33 35zM2081 583v155h-18l-32 -18v-20h16
v-117h34zM1328 1365v151h-20l-68 -69l-69 69h-11v-151h21v86l55 -55l54 55v-86h38zM2107 388v21h-64q2 13 33 43.5t31 45.5q0 44 -35 44h-32q-30 0 -34 -38h21q0 17 13 17h16l10 -5l4 -10q0 -20 -32 -52.5t-32 -46.5v-19h101zM1128 1400v81q0 34 -33 34h-35q-33 0 -33 -33
v-84q0 -33 33 -33h35q33 0 33 35zM994 1463v18q0 35 -33 35h-68v-151h37v65h13q51 0 51 33zM2106 317v28h-102v-157h41v66h47v28h-47v35h61zM860 1400v81q0 34 -33 34h-35q-33 0 -33 -33v-84q0 -33 33 -33h35q33 0 33 35zM729 1400q0 34 -21 41q21 8 21 32q0 43 -35 43h-66
v-151h66q35 0 35 35zM1959 -79v1279q0 59 -42.5 101.5t-101.5 42.5h-1280q-59 0 -101.5 -42.5t-42.5 -101.5v-1279q0 -59 42.5 -101.5t101.5 -42.5h1280q59 0 101.5 42.5t42.5 101.5zM1722 -360v81q0 34 -33 34h-35q-33 0 -33 -33v-84q0 -33 33 -33h35q33 0 33 35z
M1585 -266v22h-84v-151h37v65h31v21h-31v43h47zM344 812v35q0 34 -43 36l43 29v21h-101v-22h59l-43 -29v-21l25 1q23 1 23 -15v-33l-4 -10l-10 -4h-15q-13 0 -14 16h-21q4 -38 33 -38h35q33 0 33 34zM1465 -360v81q0 34 -33 34h-35q-33 0 -33 -33v-84q0 -33 33 -33h35
q33 0 33 35zM319 583v155h-18l-32 -18v-20h15v-117h35zM1328 -395v151h-20l-68 -69l-69 69h-11v-151h21v86l55 -55l54 55v-86h38zM1128 -360v81q0 34 -33 34h-35q-33 0 -33 -33v-84q0 -33 33 -33h35q33 0 33 35zM349 421v85q0 36 -36 36h-39q-36 0 -36 -35v-87q0 -35 36 -35
h39q36 0 36 36zM994 -297v18q0 35 -33 35h-68v-151h37v65h13q51 0 51 33zM349 224v84q0 36 -36 36h-39q-36 0 -36 -34v-88q0 -34 36 -34h39q36 0 36 36zM860 -360v81q0 34 -33 34h-35q-33 0 -33 -33v-84q0 -33 33 -33h35q33 0 33 35zM729 -360q0 34 -21 41q21 8 21 32
q0 43 -35 43h-66v-151h66q35 0 35 35zM1685 1400l-4 -10l-10 -4l-9 4l-4 10v80l4 10l9 4l10 -4l4 -10v-80zM1428 1400l-4 -10l-10 -4l-9 4l-4 10v80l4 10l9 4l10 -4l4 -10v-80zM1091 1400l-4 -10l-10 -4l-9 4l-4 10v80l4 10l9 4l10 -4l4 -10v-80zM957 1465l-4 -10l-10 -4
h-13v43h13l10 -4l4 -10v-15zM823 1400l-4 -10l-10 -4l-9 4l-4 10v80l4 10l9 4l10 -4l4 -10v-80zM692 1465l-4 -10l-10 -4h-13v43h13l10 -4l4 -10v-15zM692 1400l-4 -10l-10 -4h-13v44h14q13 0 13 -14v-16zM1720 842q0 -4 -32 -36q-32 -35 -37 -74l-38 -324
q-23 -189 -70 -319q-18 -49 -85.5 -101.5t-118.5 -52.5q-10 0 -19 2q-22 54 -90 77l-117 39q-2 43 28 43q16 0 18 -5q4 -13 7 -15q147 -14 167 -14q79 0 109 32q36 38 79 306q39 242 39 335v107h-791q-7 -3 -34 -21q-20 -13 -36 -13q-43 0 -69 51q32 49 88 152
q10 28 36.5 101.5t59.5 73.5q75 0 102 -100q-64 -12 -95 -60q-17 -26 -42 -108q25 -30 65 -30h639q23 0 69.5 23t69.5 23q26 0 62 -33.5t36 -58.5zM1685 -360l-4 -10l-10 -4l-9 4l-4 10v80l4 10l9 4l10 -4l4 -10v-80zM1428 -360l-4 -10l-10 -4l-9 4l-4 10v80l4 10l9 4l10 -4
l4 -10v-80zM309 422l-5 -10l-10 -5l-11 5l-4 10v83l4 11l11 4l10 -4l5 -11v-83zM1091 -360l-4 -10l-10 -4l-9 4l-4 10v80l4 10l9 4l10 -4l4 -10v-80zM957 -295l-4 -10l-10 -4h-13v43h13l10 -4l4 -10v-15zM309 225l-5 -11l-10 -4l-11 4l-4 11v83l4 10l11 4l10 -4l5 -10v-83z
M823 -360l-4 -10l-10 -4l-9 4l-4 10v80l4 10l9 4l10 -4l4 -10v-80zM692 -295l-4 -10l-10 -4h-13v43h13l10 -4l4 -10v-15zM692 -360l-4 -10l-10 -4h-13v44h14q13 0 13 -14v-16z" />
  </g>

</svg>
