<?xml version="1.0" standalone="no"?>
<!DOCTYPE svg PUBLIC "-//W3C//DTD SVG 1.1//EN" "http://www.w3.org/Graphics/SVG/1.1/DTD/svg11.dtd" >
<svg viewBox="0 -419 2155 2048">
  <g transform="matrix(1 0 0 -1 0 1638)">
   <path fill="currentColor"
d="M2155 -239q0 -74 -53 -127t-127 -53h-1599q-74 0 -127 53t-53 127v1599q0 74 53 127t127 53h1599q74 0 127 -53t53 -127v-1599zM1600 1365v34h-33v-34h33zM1566 1494v22h-101v-22h32v-129h37v129h32zM2107 812v35q0 34 -43 36l43 29v21h-101v-22h59l-43 -29v-21l25 1
q23 1 23 -15v-33l-4 -10l-10 -4h-15q-13 0 -14 16h-21q4 -38 33 -38h35q33 0 33 34zM1438 1365v116q0 35 -32 35h-36q-32 0 -32 -33v-118h36v65h28v-65h36zM2081 583v155h-18l-32 -18v-20h16v-117h34zM1311 1463v18q0 35 -33 35h-68v-151h37v65h12q52 0 52 33zM1177 1365
v151h-19l-69 -69l-68 69h-11v-151h21v86l55 -55l54 55v-86h37zM2111 421q0 36 -24 43q24 8 24 33q0 45 -38 45h-35q-38 0 -38 -36q0 -35 24 -42q-24 -9 -24 -34q0 -45 38 -45h35q38 0 38 36zM979 1400v81q0 34 -33 34h-35q-33 0 -33 -33v-84q0 -33 33 -33h35q33 0 33 35z
M2106 317v28h-102v-157h41v66h47v28h-47v35h61zM850 1402h-20q-2 -16 -14 -16h-16l-10 5l-4 9v81l5 10l9 4h16q12 0 14 -16h20q-2 37 -34 37h-32q-34 0 -34 -35v-81q0 -35 34 -35h32q32 0 34 37zM1959 -79v1279q0 59 -42.5 101.5t-101.5 42.5h-1280q-59 0 -101.5 -42.5
t-42.5 -101.5v-1279q0 -59 42.5 -101.5t101.5 -42.5h1280q59 0 101.5 42.5t42.5 101.5zM344 812v35q0 34 -43 36l43 29v21h-101v-22h59l-43 -29v-21l25 1q23 1 23 -15v-33l-4 -10l-10 -4h-15q-13 0 -14 16h-21q4 -38 33 -38h35q33 0 33 34zM1455 -360v81q0 34 -32 34h-35
q-33 0 -33 -33v-84q0 -33 33 -33h35q32 0 32 35zM319 583v155h-18l-32 -18v-20h15v-117h35zM1320 -395v151h-20l-68 -69l-68 69h-11v-151h21v86l54 -55l55 55v-86h37zM344 422v35q0 34 -43 36l43 29v21h-101v-22h59l-43 -29v-21l25 1q23 1 23 -15v-33l-4 -10l-10 -4h-15
q-13 0 -14 16h-21q4 -38 33 -38h35q33 0 33 34zM1125 -395v116q0 34 -33 34h-35q-32 0 -32 -33v-117h36v65h27v-65h37zM995 -362v118h-37v-116l-4 -10l-9 -4l-10 4l-4 10v35h-36v-37q0 -33 32 -33h36q32 0 32 33zM349 224v84q0 36 -36 36h-39q-36 0 -36 -34v-88
q0 -34 36 -34h39q36 0 36 36zM1402 1451h-28v30l5 10l9 4l9 -4l5 -10v-30zM1274 1465l-4 -10l-10 -4h-13v43h13l10 -4l4 -10v-15zM2071 489l-5 -10l-11 -4l-10 4l-5 10v16l5 11l10 4l11 -4l5 -11v-16zM2071 422l-5 -10l-11 -5l-10 5l-5 10v16q0 15 15 15q16 0 16 -15v-16z
M942 1400l-4 -10l-10 -4l-9 4l-4 10v80l4 10l9 4l10 -4l4 -10v-80zM1377 1053q0 -45 -66 -73q-52 -22 -105 -22q-229 0 -230 175h59q82 -34 140 -41q12 -1 142 -12q60 -5 60 -27zM1698 801q0 -45 -52 -45h-908q-33 0 -60 39q-26 36 -26 70q0 29 41 29q14 0 40.5 -5.5
t39.5 -5.5h769q11 0 34 11t34 11q29 0 58.5 -37.5t29.5 -66.5zM1555 443q0 -146 -139 -222q-113 -62 -270 -62q-139 0 -240 64q-116 74 -116 205q0 71 45 134q103 144 373 144q20 0 104 -18q243 -52 243 -245zM1419 -360l-4 -10l-10 -4l-9 4l-4 10v80l4 10l9 4l10 -4l4 -10
v-80zM1088 -309h-27v29l4 10l10 4l9 -4l4 -10v-29zM309 225l-5 -11l-10 -4l-11 4l-4 11v83l4 10l11 4l10 -4l5 -10v-83zM1390 430q0 86 -81 132q-66 38 -158 38q-77 0 -135 -49q-62 -51 -62 -127q0 -75 76 -123q65 -41 146 -41q89 0 147 40q67 45 67 130z" />
  </g>

</svg>
