<?xml version="1.0" standalone="no"?>
<!DOCTYPE svg PUBLIC "-//W3C//DTD SVG 1.1//EN" "http://www.w3.org/Graphics/SVG/1.1/DTD/svg11.dtd" >
<svg viewBox="0 -419 2155 2048">
  <g transform="matrix(1 0 0 -1 0 1638)">
   <path fill="currentColor"
d="M2155 -239q0 -74 -53 -127t-127 -53h-1599q-75 0 -127.5 52.5t-52.5 127.5v1599q0 75 52.5 127.5t127.5 52.5h1599q74 0 127 -53t53 -127v-1599zM1722 1400v81q0 34 -33 34h-35q-33 0 -33 -33v-84q0 -33 33 -33h35q33 0 33 35zM1585 1494v22h-84v-151h37v65h31v21h-31v43
h47zM2107 812v35q0 34 -43 36l43 29v21h-101v-22h59l-43 -29v-21l25 1q23 1 23 -15v-33l-4 -10l-10 -4h-15q-13 0 -14 16h-21q4 -38 33 -38h35q33 0 33 34zM1465 1400v81q0 34 -33 34h-35q-33 0 -33 -33v-84q0 -33 33 -33h35q33 0 33 35zM2081 583v155h-18l-32 -18v-20h16
v-117h34zM1328 1365v151h-20l-68 -69l-69 69h-11v-151h21v86l55 -55l54 55v-86h38zM2112 421q0 36 -24 43q24 8 24 33q0 45 -38 45h-73v-157h73q38 0 38 36zM1128 1400v81q0 34 -33 34h-35q-33 0 -33 -33v-84q0 -33 33 -33h35q33 0 33 35zM994 1463v18q0 35 -33 35h-68v-151
h37v65h13q51 0 51 33zM2106 317v28h-102v-157h41v66h47v28h-47v35h61zM860 1400v81q0 34 -33 34h-35q-33 0 -33 -33v-84q0 -33 33 -33h35q33 0 33 35zM729 1400q0 34 -21 41q21 8 21 32q0 43 -35 43h-66v-151h66q35 0 35 35zM1959 -79v1279q0 59 -42.5 101.5t-101.5 42.5
h-1280q-59 0 -101.5 -42.5t-42.5 -101.5v-1279q0 -59 42.5 -101.5t101.5 -42.5h1280q59 0 101.5 42.5t42.5 101.5zM344 812v35q0 34 -43 36l43 29v21h-101v-22h59l-43 -29v-21l25 1q23 1 23 -15v-33l-4 -10l-10 -4h-15q-13 0 -14 16h-21q4 -38 33 -38h35q33 0 33 34z
M1376 -395v34h-34v-34h34zM1334 -266v22h-100v-22h32v-129h36v129h32zM319 583v155h-18l-32 -18v-20h15v-117h35zM1193 -395v43q0 25 -23 32q23 8 23 33v43h-37v-51l-4 -10l-10 -4l-9 4l-4 10v51h-37v-43q0 -25 23 -33q-23 -7 -23 -32v-43h37v50l4 11l9 4l10 -4l4 -11v-50
h37zM349 385v121q0 36 -36 36h-38q-36 0 -36 -35v-122h40v68h30v-68h40zM1058 -395v21h-47v44h31v21h-31v43h47v22h-84v-151h84zM349 224v84q0 36 -36 36h-39q-36 0 -36 -34v-88q0 -34 36 -34h39q36 0 36 36zM1685 1400l-4 -10l-10 -4l-9 4l-4 10v80l4 10l9 4l10 -4l4 -10
v-80zM1428 1400l-4 -10l-10 -4l-9 4l-4 10v80l4 10l9 4l10 -4l4 -10v-80zM2071 489l-4 -10l-11 -4h-15v45h15l11 -4l4 -11v-16zM1091 1400l-4 -10l-10 -4l-9 4l-4 10v80l4 10l9 4l10 -4l4 -10v-80zM2071 422l-4 -10l-11 -5h-15v46h15q15 0 15 -15v-16zM957 1465l-4 -10
l-10 -4h-13v43h13l10 -4l4 -10v-15zM823 1400l-4 -10l-10 -4l-9 4l-4 10v80l4 10l9 4l10 -4l4 -10v-80zM692 1465l-4 -10l-10 -4h-13v43h13l10 -4l4 -10v-15zM692 1400l-4 -10l-10 -4h-13v44h14q13 0 13 -14v-16zM1720 842q0 -2 -31.5 -38t-37.5 -72l-77 -465
q-7 -46 -31 -178q-9 -45 -57.5 -77t-96.5 -32q-78 0 -132 43q-59 46 -59 122q0 68 47.5 115.5t115.5 47.5q82 0 131 -66q68 310 68 600h-791q-5 -2 -34 -21q-20 -13 -36 -13q-43 0 -69 51q32 49 88 152q10 28 36.5 101.5t59.5 73.5q76 0 102 -100q-64 -12 -95 -60
q-17 -26 -42 -108q25 -30 65 -30h639q24 0 70 23t69 23q26 0 62 -33.5t36 -58.5zM309 475h-30v30l5 11l10 4l10 -4l5 -11v-30zM309 225l-5 -11l-10 -4l-11 4l-4 11v83l4 10l11 4l10 -4l5 -10v-83zM1464 145q0 43 -30 73t-73 30t-73 -30t-30 -73t30 -73t73 -30t73 30t30 73z
" />
  </g>

</svg>
