<?xml version="1.0" standalone="no"?>
<!DOCTYPE svg PUBLIC "-//W3C//DTD SVG 1.1//EN" "http://www.w3.org/Graphics/SVG/1.1/DTD/svg11.dtd" >
<svg viewBox="0 -419 2155 2048">
  <g transform="matrix(1 0 0 -1 0 1638)">
   <path fill="currentColor"
d="M2155 -239q0 -75 -52.5 -127.5t-127.5 -52.5h-1599q-75 0 -127.5 52.5t-52.5 127.5v1599q0 75 52.5 127.5t127.5 52.5h1599q75 0 127.5 -52.5t52.5 -127.5v-1599zM1687 1365v116q0 35 -33 35h-35q-32 0 -32 -34v-117h36v65h27v-65h37zM1563 1365v151h-21v-78l-86 78h-10
v-151h21v78l85 -78h11zM2107 812v35q0 34 -43 36l43 29v21h-101v-22h59l-43 -29v-21l25 1q23 1 23 -15v-33l-4 -10l-10 -4h-15q-13 0 -14 16h-21q4 -38 33 -38h35q33 0 33 34zM1414 1365v116q0 35 -33 35h-35q-33 0 -33 -34v-117h37v65h27v-65h37zM2081 583v155h-18l-32 -18
v-20h16v-117h34zM1295 1365l-66 76l66 75h-35l-48 -55v55h-37v-151h37v53l44 -53h39zM1150 1365v116q0 35 -32 35h-36q-32 0 -32 -34v-117h36v65h28v-65h36zM2098 521v21h-84v-154h36v66h32v22h-32v45h48zM1027 1494v22h-100v-22h32v-129h37v129h31zM2106 317v28h-102v-157
h41v66h47v28h-47v35h61zM900 1365v116q0 35 -33 35h-35q-32 0 -32 -33v-118h36v65h27v-65h37zM783 1365l-66 76l66 75h-35l-48 -55v55h-37v-151h37v53l44 -53h39zM1959 -79v1279q0 59 -42.5 101.5t-101.5 42.5h-1280q-59 0 -101.5 -42.5t-42.5 -101.5v-1279
q0 -59 42.5 -101.5t101.5 -42.5h1280q59 0 101.5 42.5t42.5 101.5zM344 812v35q0 34 -43 36l43 29v21h-101v-22h59l-43 -29v-21l25 1q23 1 23 -15v-33l-4 -10l-10 -4h-15q-13 0 -14 16h-21q4 -38 33 -38h35q33 0 33 34zM1376 -395v34h-34v-34h34zM1334 -266v22h-100v-22h32
v-129h36v129h32zM319 583v155h-18l-32 -18v-20h15v-117h35zM1193 -395v43q0 25 -23 32q23 8 23 33v43h-37v-51l-4 -10l-10 -4l-9 4l-4 10v51h-37v-43q0 -25 23 -33q-23 -7 -23 -32v-43h37v50l4 11l9 4l10 -4l4 -11v-50h37zM336 521v21h-84v-154h36v66h32v22h-32v45h48z
M1058 -395v21h-47v44h31v21h-31v43h47v22h-84v-151h84zM349 224v84q0 36 -36 36h-39q-36 0 -36 -34v-88q0 -34 36 -34h39q36 0 36 36zM1650 1451h-27v29l4 10l10 4l9 -4l4 -10v-29zM1377 1451h-27v29l4 10l10 4l9 -4l4 -10v-29zM1114 1451h-28v29l5 10l9 4l9 -4l5 -10v-29z
M863 1451h-27v30l4 10l10 4l9 -4l4 -10v-30zM1505 613q0 -12 -42 -35q-12 -17 -78 -124q-265 -427 -540 -496l1 7q255 163 441 462q102 165 105 202l-8 9l-111 -12q-26 -3 -65 20q-34 -35 -127 -130q-98 -97 -209 -138l-9 3l6 10q72 55 169 162q118 130 118 183q0 18 -27 43
v11q9 5 17 5q23 0 64.5 -30t41.5 -51q0 -10 -16 -30q4 -9 19 -9q88 0 130 19q22 10 29 11q20 0 55.5 -36t35.5 -56zM309 225l-5 -11l-10 -4l-11 4l-4 11v83l4 10l11 4l10 -4l5 -10v-83z" />
  </g>

</svg>
