<?xml version="1.0" standalone="no"?>
<!DOCTYPE svg PUBLIC "-//W3C//DTD SVG 1.1//EN" "http://www.w3.org/Graphics/SVG/1.1/DTD/svg11.dtd" >
<svg viewBox="0 -419 2155 2048">
  <g transform="matrix(1 0 0 -1 0 1638)">
   <path fill="currentColor"
d="M2155 -239q0 -75 -52.5 -127.5t-127.5 -52.5h-1599q-75 0 -127.5 52.5t-52.5 127.5v1599q0 75 52.5 127.5t127.5 52.5h1599q75 0 127.5 -52.5t52.5 -127.5v-1599zM2120 831v22h-17v85h-39l-71 -86v-21h70v-50h40v50h17zM1498 1400v51h-53v-21h16v-30q0 -13 -13 -14l-10 4
l-4 10v80l4 10l10 4h15q12 0 14 -16h21q-2 38 -35 38h-32q-34 0 -34 -35v-81q0 -35 34 -35h32q35 0 35 35zM1370 1365v151h-21v-78l-86 78h-10v-151h21v78l85 -78h11zM2112 620v84q0 36 -36 36h-75v-156h75q36 0 36 36zM1219 1365v151h-33v-151h33zM1152 1398v118h-36v-116
l-5 -10l-9 -4l-9 4l-5 10v35h-36v-37q0 -33 32 -33h36q32 0 32 33zM2098 521v21h-84v-154h36v66h32v22h-32v45h48zM1015 1365v151h-34v-151h34zM953 1465v51h-37v-51l-4 -10l-9 -4l-10 4l-4 10v51h-37v-51q0 -30 32 -35v-65h37v65q32 5 32 35zM2098 326v21h-84v-154h36v66
h32v22h-32v45h48zM1959 -79v1279q0 60 -42 102t-102 42h-1280q-60 0 -102 -42t-42 -102v-1279q0 -60 42 -102t102 -42h1280q60 0 102 42t42 102zM1772 -360q0 25 -24 49l-8 8q-14 14 -14 26q0 5 2 8q6 4 11 4q11 0 13 -17h20q-2 38 -32 38h-19q-32 0 -32 -35q0 -26 23 -49
l9 -9q14 -14 14 -25q0 -4 -2 -8q-6 -4 -11 -4q-2 0 -4 1l-5 2l-4 9v4h-20q0 -37 32 -37h19q32 0 32 35zM1664 -395v151h-19l-69 -69l-68 69h-11v-151h21v86l54 -55l55 55v-86h37zM353 831v21h-17v84h-38l-68 -85v-20h67v-51h39v51h17zM1455 -395v116q0 35 -33 35h-35
q-33 0 -33 -34v-117h37v65h27v-65h37zM1327 -395v60l-6 13l-11 5q17 8 17 29q0 44 -33 44h-68v-151h37v65h13l10 -4l4 -11v-50h37zM349 620v84q0 36 -36 36h-75v-156h75q36 0 36 36zM1197 -360v51h-53v-21h16v-30q0 -13 -13 -14l-10 4l-4 10v80l4 10l10 4h15q13 0 14 -16h21
q-2 38 -35 38h-31q-35 0 -35 -35v-81q0 -35 35 -35h31q35 0 35 35zM344 426h-20q-2 -17 -14 -17h-16l-9 5l-5 10v82l5 10l9 5h16q12 0 14 -17h20q-2 38 -34 38h-32q-34 0 -34 -36v-83q0 -35 34 -35h32q32 0 34 38zM1060 -395v116q0 35 -33 35h-35q-33 0 -33 -34v-117h37v65
h27v-65h37zM349 224v84q0 36 -36 36h-39q-36 0 -36 -34v-88q0 -34 36 -34h39q36 0 36 36zM928 -395v43q0 25 -23 32q23 8 23 33v43h-36v-51l-5 -10l-9 -4l-9 4l-5 10v51h-36v-43q0 -25 23 -33q-23 -7 -23 -32v-43h36v50l5 11l9 4l9 -4l5 -11v-50h36zM798 -395v21h-47v44h32
v21h-32v43h47v22h-83v-151h83zM678 -395v151h-36v-65h-28v65h-36v-151h36v65h28v-65h36zM2063 853h-45l45 54v-54zM2071 620l-4 -10l-11 -4h-15v112h15l11 -4l4 -10v-84zM1657 949h-964v86h964v-86zM1657 776h-964v87h964v-87zM1657 604h-964v86h964v-86zM1657 431h-964v86
h964v-86zM1657 258h-964v87h964v-87zM1657 86h-964v86h964v-86zM297 852h-42l42 54v-54zM1418 -309h-27v29l4 10l10 4l9 -4l4 -10v-29zM1290 -295l-4 -10l-10 -4h-13v43h13l10 -4l4 -10v-15zM309 620l-5 -10l-11 -4h-14v112h14l11 -4l5 -10v-84zM1023 -309h-27v29l4 10l10 4
l9 -4l4 -10v-29zM309 225l-5 -11l-10 -4l-11 4l-4 11v83l4 10l11 4l10 -4l5 -10v-83z" />
  </g>

</svg>
