<?xml version="1.0" standalone="no"?>
<!DOCTYPE svg PUBLIC "-//W3C//DTD SVG 1.1//EN" "http://www.w3.org/Graphics/SVG/1.1/DTD/svg11.dtd" >
<svg viewBox="0 -419 2154 2048">
  <g transform="matrix(1 0 0 -1 0 1638)">
   <path fill="currentColor"
d="M2154 -239q0 -75 -52.5 -127.5t-127.5 -52.5h-1598q-75 0 -127.5 52.5t-52.5 127.5v1599q0 75 52.5 127.5t127.5 52.5h1598q75 0 127.5 -52.5t52.5 -127.5v-1599zM1631 1365v60l-5 13l-11 5q16 8 16 29q0 44 -32 44h-68v-151h37v65h13l10 -4l4 -11v-50h36zM2111 781v120
q0 37 -36 37h-38q-36 0 -36 -35v-122h40v67h30v-67h40zM1494 1365v21h-48v44h32v21h-32v43h48v22h-84v-151h84zM1369 1365v151h-33v-151h33zM2107 702v36h-101v-22h64v-13q-32 -66 -32 -84v-36h37q0 55 21 97zM1311 1494v22h-84v-151h36v65h32v21h-32v43h48zM1197 1365v151
h-33v-151h33zM1131 1400v81q0 35 -32 35h-68v-151h68q32 0 32 35zM2081 388v154h-18l-32 -17v-21h16v-116h34zM1009 1400v81q0 34 -32 34h-35q-33 0 -33 -33v-84q0 -33 33 -33h35q32 0 32 35zM2106 317v28h-102v-157h41v66h47v28h-47v35h61zM886 1365v151h-20l-68 -69
l-68 69h-11v-151h21v86l54 -55l55 55v-86h37zM1959 -79v1279q0 60 -42 102t-102 42h-1280q-60 0 -102 -42t-42 -102v-1279q0 -60 42 -102t102 -42h1280q60 0 102 42t42 102zM1862 -282q-3 38 -33 38h-19q-32 0 -32 -35q0 -22 24 -49l8 -9q19 -21 12 -33q-6 -4 -10 -4
q-2 0 -5 1l-4 2l-5 9v4h-20q0 -37 32 -37h19q32 0 32 35q0 29 -23 49l-9 8q-21 19 -11 34q6 4 10 4q11 0 13 -17h21zM1755 -395v60l-6 13l-11 5q17 8 17 29q0 43 -33 43l-68 1v-151h37v65h13l10 -4l4 -11v-50h37zM1627 -395v21h-48v44h32v21h-32v43h48v22h-84v-151h84z
M349 781v120q0 37 -36 37h-38q-36 0 -36 -35v-122h40v67h30v-67h40zM1522 -266v22h-101v-22h32v-129h37v129h32zM1398 -266v22h-101v-22h32v-129h37v129h32zM344 702v36h-101v-22h64v-13q-32 -66 -32 -84v-36h37q0 55 21 97zM1271 -395v21h-48v44h32v21h-32v43h48v22h-84
v-151h84zM1161 -395v21h-47v130h-36v-151h83zM349 421v85q0 36 -36 36h-39q-36 0 -36 -35v-87q0 -35 36 -35h39q36 0 36 36zM971 -395v21h-48v44h32v21h-32v43h48v22h-84v-151h84zM349 224v84q0 36 -36 36h-39q-36 0 -36 -34v-88q0 -34 36 -34h39q36 0 36 36zM854 -395v151
h-21v-78l-85 78h-11v-151h21v78l86 -78h10zM710 -360v81q0 34 -32 34h-36q-32 0 -32 -33v-84q0 -33 32 -33h36q32 0 32 35zM589 -266v22h-101v-22h32v-129h37v129h32zM1595 1465l-4 -10l-10 -4h-13v43h13l10 -4l4 -10v-15zM2071 870h-30v31l5 10l10 4l10 -4l5 -10v-31z
M1095 1400l-4 -10l-10 -4h-13v108h13l10 -4l4 -10v-80zM973 1400l-4 -10l-10 -4l-9 4l-4 10v80l4 10l9 4l10 -4l4 -10v-80zM1390 1013h-340v-1056h-90v1146h430v-90zM1718 -295l-4 -10l-10 -4h-13v43h13l10 -4l4 -10v-15zM309 870h-30v31l5 10l10 4l10 -4l5 -10v-31z
M309 422l-5 -10l-10 -5l-11 5l-4 10v83l4 11l11 4l10 -4l5 -11v-83zM309 225l-5 -11l-10 -4l-11 4l-4 11v83l4 10l11 4l10 -4l5 -10v-83zM674 -360l-5 -10l-9 -4l-10 4l-4 10v80l5 10l9 4l9 -4l5 -10v-80z" />
  </g>

</svg>
