<?xml version="1.0" standalone="no"?>
<!DOCTYPE svg PUBLIC "-//W3C//DTD SVG 1.1//EN" "http://www.w3.org/Graphics/SVG/1.1/DTD/svg11.dtd" >
<svg viewBox="0 -419 2154 2048">
  <g transform="matrix(1 0 0 -1 0 1638)">
   <path fill="currentColor"
d="M2154 -239q0 -75 -52.5 -127.5t-127.5 -52.5h-1598q-75 0 -127.5 52.5t-52.5 127.5v1599q0 75 52.5 127.5t127.5 52.5h1598q75 0 127.5 -52.5t52.5 -127.5v-1599zM1959 -79v1279q0 59 -42.5 101.5t-101.5 42.5h-1280q-59 0 -101.5 -42.5t-42.5 -101.5v-1279
q0 -59 42.5 -101.5t101.5 -42.5h1280q59 0 101.5 42.5t42.5 101.5zM1945 0h-294v40q77 0 77 38q0 19 -91 236h-400l61 -144q29 -68 39 -84q29 -46 72 -46v-40h-294v40q77 0 77 38q0 19 -91 236h-432q-88 -212 -88 -228q0 -37 77 -46v-40h-245v40q53 0 85 41q18 23 45 89
l351 855h41l252 -595l243 595h41l363 -855q29 -68 39 -84q29 -46 72 -46v-40zM1076 363l-199 470l-190 -470h389zM1612 363l-199 470l-190 -470h389zM349 224v84q0 36 -36 36h-39q-36 0 -36 -34v-88q0 -34 36 -34h39q36 0 36 36zM2111 781v120q0 37 -36 37h-38
q-36 0 -36 -35v-122h40v67h30v-67h40zM349 781v120q0 37 -36 37h-38q-36 0 -36 -35v-122h40v67h30v-67h40zM1795 -360v81q0 35 -32 35h-68v-151h68q32 0 32 35zM1795 1400v81q0 35 -32 35h-68v-151h68q32 0 32 35zM762 -395v116q0 35 -33 35h-35q-33 0 -33 -34v-117h37v65
h27v-65h37zM762 1365v116q0 35 -33 35h-35q-33 0 -33 -34v-117h37v65h27v-65h37zM1409 1365v43q0 25 -23 32q23 8 23 33v43h-37v-51l-4 -10l-9 -4l-10 4l-4 10v51h-37v-43q0 -25 23 -33q-23 -7 -23 -32v-43h37v50l4 11l10 4l9 -4l4 -11v-50h37zM1409 -395v43q0 25 -23 32
q23 8 23 33v43h-37v-51l-4 -10l-9 -4l-10 4l-4 10v51h-37v-43q0 -25 23 -33q-23 -7 -23 -32v-43h37v50l4 11l10 4l9 -4l4 -11v-50h37zM1091 1365v151h-21v-78l-86 78h-11v-151h21v78l86 -78h11zM1091 -395v151h-21v-78l-86 78h-11v-151h21v78l86 -78h11zM2106 317v28h-102
v-157h41v66h47v28h-47v35h61zM344 388v21h-64q2 11 33 42.5t31 46.5q0 44 -34 44h-32q-31 0 -35 -38h21q1 17 14 17h15l10 -5l4 -10q0 -20 -32 -52.5t-32 -46.5v-19h101zM1274 1365v21h-47v44h31v21h-31v43h47v22h-84v-151h84zM1274 -395v21h-47v44h31v21h-31v43h47v22h-84
v-151h84zM2098 521v21h-84v-154h36v66h32v22h-32v45h48zM344 702v36h-101v-22h64v-13q-32 -66 -32 -84v-36h37q0 55 21 97zM2107 702v36h-101v-22h64v-13q-32 -66 -32 -84v-36h37q0 55 21 97zM1550 1494v22h-100v-22h32v-129h36v129h32zM1550 -266v22h-100v-22h32v-129h36
v129h32zM881 1494v22h-100v-22h32v-129h36v129h32zM881 -266v22h-100v-22h32v-129h36v129h32zM637 -395v21h-47v130h-36v-151h83zM637 1365v21h-47v130h-36v-151h83zM943 1365v151h-33v-151h33zM943 -395v151h-33v-151h33zM309 225l-5 -11l-10 -4l-11 4l-4 11v83l4 10l11 4
l10 -4l5 -10v-83zM1759 -360l-4 -10l-10 -4h-13v108h13l10 -4l4 -10v-80zM1759 1400l-4 -10l-10 -4h-13v108h13l10 -4l4 -10v-80zM309 870h-30v31l5 10l10 4l10 -4l5 -10v-31zM2071 870h-30v31l5 10l10 4l10 -4l5 -10v-31zM1592 -395v34h-34v-34h34zM1592 1365v34h-34v-34
h34zM725 -309h-27v29l4 10l10 4l9 -4l4 -10v-29zM725 1451h-27v29l4 10l10 4l9 -4l4 -10v-29z" />
  </g>

</svg>
