<?xml version="1.0" standalone="no"?>
<!DOCTYPE svg PUBLIC "-//W3C//DTD SVG 1.1//EN" "http://www.w3.org/Graphics/SVG/1.1/DTD/svg11.dtd" >
<svg viewBox="0 -419 2155 2048">
  <g transform="matrix(1 0 0 -1 0 1638)">
   <path fill="currentColor"
d="M2155 -239q0 -74 -53 -127t-127 -53h-1599q-74 0 -127 53t-53 127v1599q0 74 53 127t127 53h1599q74 0 127 -53t53 -127v-1599zM1823 1365v151h-33v-151h33zM1766 1365v60l-6 13l-11 5q17 8 17 29q0 44 -33 44h-68v-151h37v65h13l10 -4l4 -11v-50h37zM1635 1400v51h-53
v-21h16v-30q0 -13 -13 -14l-10 4l-4 10v80l4 10l10 4h15q13 0 14 -16h21q-2 38 -35 38h-31q-35 0 -35 -35v-81q0 -35 35 -35h31q35 0 35 35zM2111 781v120q0 37 -36 37h-38q-36 0 -36 -35v-122h40v67h30v-67h40zM1511 1365v116q0 35 -33 35h-35q-32 0 -32 -34v-117h36v65h27
v-65h37zM1387 1365v151h-21v-78l-86 78h-10v-151h21v78l85 -78h11zM2111 620q0 35 -24 42q24 9 24 34q0 44 -38 44h-35q-38 0 -38 -36q0 -34 24 -42q-24 -8 -24 -34q0 -44 38 -44h35q38 0 38 36zM1161 1365v151h-33v-151h33zM2107 388v21h-64q2 11 33 42.5t31 46.5
q0 44 -35 44h-32q-30 0 -34 -38h21q0 17 13 17h16l10 -5l4 -10q0 -20 -32 -52.5t-32 -46.5v-19h101zM1100 1494v22h-100v-22h31v-129h37v129h32zM972 1400v81q0 34 -33 34h-35q-33 0 -33 -33v-84q0 -33 33 -33h35q33 0 33 35zM2098 326v21h-84v-154h36v66h32v22h-32v45h48z
M846 1365v21h-47v130h-36v-151h83zM732 1465v51h-37v-51l-4 -10l-9 -4l-10 4l-4 10v51h-36v-51q0 -30 32 -35v-65h36v65q32 5 32 35zM611 1478q-2 38 -33 38h-19q-32 0 -32 -35q0 -20 23.5 -48.5t23.5 -32.5l-3 -10l-10 -4l-9 3l-5 9v4h-20q0 -37 32 -37h19q32 0 32 35
q0 19 -23.5 48t-23.5 32l4 11q4 2 10 4q12 0 13 -17h21zM1959 -79v1279q0 59 -42.5 101.5t-101.5 42.5h-1280q-59 0 -101.5 -42.5t-42.5 -101.5v-1279q0 -59 42.5 -101.5t101.5 -42.5h1280q59 0 101.5 42.5t42.5 101.5zM1823 -395v151h-33v-151h33zM1766 -395v60l-6 13
l-11 5q17 8 17 29q0 44 -33 44h-68v-151h37v65h13l10 -4l4 -11v-50h37zM1635 -360v51h-53v-21h16v-30q0 -13 -13 -14l-10 4l-4 10v80l4 10l10 4h15q13 0 14 -16h21q-2 38 -35 38h-31q-35 0 -35 -35v-81q0 -35 35 -35h31q35 0 35 35zM349 781v120q0 37 -36 37h-38
q-36 0 -36 -35v-122h40v67h30v-67h40zM1511 -395v116q0 35 -33 35h-35q-32 0 -32 -34v-117h36v65h27v-65h37zM1387 -395v151h-21v-78l-86 78h-10v-151h21v78l85 -78h11zM350 620q0 35 -24 42q24 9 24 34q0 44 -38 44h-35q-38 0 -38 -36q0 -34 24 -42q-24 -8 -24 -34
q0 -44 38 -44h35q38 0 38 36zM1161 -395v151h-33v-151h33zM349 421v85q0 36 -36 36h-39q-36 0 -36 -35v-87q0 -35 36 -35h39q36 0 36 36zM1100 -266v22h-100v-22h31v-129h37v129h32zM972 -360v81q0 34 -33 34h-35q-33 0 -33 -33v-84q0 -33 33 -33h35q33 0 33 35zM349 224v84
q0 36 -36 36h-39q-36 0 -36 -34v-88q0 -34 36 -34h39q36 0 36 36zM846 -395v21h-47v130h-36v-151h83zM732 -295v51h-37v-51l-4 -10l-9 -4l-10 4l-4 10v51h-36v-51q0 -30 32 -35v-65h36v65q32 5 32 35zM611 -282q-2 38 -33 38h-19q-32 0 -32 -35q0 -20 23.5 -48.5t23.5 -32.5
l-3 -10l-10 -4l-9 3l-5 9v4h-20q0 -37 32 -37h19q32 0 32 35q0 19 -23.5 48t-23.5 32l4 11q4 2 10 4q12 0 13 -17h21zM1729 1465l-4 -10l-10 -4h-13v43h13l10 -4l4 -10v-15zM2071 870h-30v31l5 10l10 4l10 -4l5 -10v-31zM1474 1451h-27v29l4 10l10 4l9 -4l4 -10v-29z
M2071 688l-5 -11l-11 -4l-10 4l-5 11v16l5 10l10 4l11 -4l5 -10v-16zM2071 620l-5 -10l-11 -4l-10 4l-5 10v17q0 14 15 14q16 0 16 -14v-17zM935 1400l-4 -10l-10 -4l-9 4l-4 10v80l4 10l9 4l10 -4l4 -10v-80zM1863 1007q-29 -35 -80 -87h-131v-613q0 -84 65 -84q5 0 66 11
l-66 -72q-42 -46 -81 -46q-98 0 -98 125v563l-335 -216v-303q0 -67 65 -67q9 0 34 8t32 7q-62 -74 -64 -75q-43 -44 -82 -44q-99 0 -99 103v293q-76 -57 -161 -118q-118 -84 -165 -84q-53 0 -53 70v532h-223q47 70 85 97h1291zM1729 -295l-4 -10l-10 -4h-13v43h13l10 -4
l4 -10v-15zM309 870h-30v31l5 10l10 4l10 -4l5 -10v-31zM1474 -309h-27v29l4 10l10 4l9 -4l4 -10v-29zM310 688l-5 -11l-11 -4l-10 4l-5 11v16l5 10l10 4l11 -4l5 -10v-16zM310 620l-5 -10l-11 -4l-10 4l-5 10v17q0 14 15 14q16 0 16 -14v-17zM309 422l-5 -10l-10 -5l-11 5
l-4 10v83l4 11l11 4l10 -4l5 -11v-83zM935 -360l-4 -10l-10 -4l-9 4l-4 10v80l4 10l9 4l10 -4l4 -10v-80zM309 225l-5 -11l-10 -4l-11 4l-4 11v83l4 10l11 4l10 -4l5 -10v-83zM1531 917h-328v-227zM1089 608v306h-267v-451q0 -19 18 -19q24 0 123 71q37 27 126 93z" />
  </g>

</svg>
