<?xml version="1.0" standalone="no"?>
<!DOCTYPE svg PUBLIC "-//W3C//DTD SVG 1.1//EN" "http://www.w3.org/Graphics/SVG/1.1/DTD/svg11.dtd" >
<svg viewBox="0 -419 2155 2048">
  <g transform="matrix(1 0 0 -1 0 1638)">
   <path fill="currentColor"
d="M2155 -239q0 -75 -52.5 -127.5t-127.5 -52.5h-1599q-75 0 -127.5 52.5t-52.5 127.5v1599q0 75 52.5 127.5t127.5 52.5h1599q75 0 127.5 -52.5t52.5 -127.5v-1599zM1655 1365v116q0 35 -33 35h-35q-33 0 -33 -34v-117h37v65h27v-65h37zM2111 781v120q0 37 -36 37h-38
q-36 0 -36 -35v-122h40v67h30v-67h40zM1524 1463v18q0 35 -32 35h-68v-151h36v65q64 -1 64 33zM1391 1430v21h-54v-21h54zM2111 620q0 35 -24 42q24 9 24 34q0 44 -38 44h-35q-38 0 -38 -36q0 -34 24 -42q-24 -8 -24 -34q0 -44 38 -44h35q38 0 38 36zM1301 1400q0 28 -24 49
l-9 8q-21 19 -11 34q6 4 11 4q11 0 13 -17h20q-2 38 -32 38h-19q-33 0 -33 -35q0 -25 24 -49l9 -9q14 -14 14 -25q0 -5 -2 -8q-6 -4 -11 -4q-2 0 -4 1l-5 2l-4 9v4h-21q0 -37 32 -37h20q32 0 32 35zM1180 1400v51h-52v-21h16v-30q0 -13 -14 -14l-9 4l-5 10v80l5 10l10 4h15
q12 0 14 -16h20q-2 38 -34 38h-32q-34 0 -34 -35v-81q0 -35 34 -35h32q34 0 34 35zM2107 506v36h-101v-21h64v-14q-32 -66 -32 -84v-35h37q0 54 21 96zM1051 1365v116q0 35 -32 35h-36q-32 0 -32 -34v-117h36v65h28v-65h36zM2098 326v21h-84v-154h36v66h32v22h-32v45h48z
M920 1365v151h-37v-65h-27v65h-36v-151h36v65h27v-65h37zM796 1463v18q0 35 -33 35h-68v-151h37v65q64 -1 64 33zM1959 -79v1279q0 60 -42 102t-102 42h-1280q-60 0 -102 -42t-42 -102v-1279q0 -60 42 -102t102 -42h1280q60 0 102 42t42 102zM1655 -395v116q0 35 -33 35h-35
q-33 0 -33 -34v-117h37v65h27v-65h37zM1524 -297v18q0 35 -32 35h-68v-151h36v65q64 -1 64 33zM349 781v120q0 37 -36 37h-38q-36 0 -36 -35v-122h40v67h30v-67h40zM1391 -330v21h-54v-21h54zM350 620q0 35 -24 42q24 9 24 34q0 44 -38 44h-35q-38 0 -38 -36q0 -34 24 -42
q-24 -8 -24 -34q0 -44 38 -44h35q38 0 38 36zM1301 -360q0 28 -24 49l-9 8q-21 19 -11 34q6 4 11 4q11 0 13 -17h20q-2 38 -32 38h-19q-33 0 -33 -35q0 -25 24 -49l9 -9q14 -14 14 -25q0 -5 -2 -8q-6 -4 -11 -4q-2 0 -4 1l-5 2l-4 9v4h-21q0 -37 32 -37h20q32 0 32 35z
M1180 -360v51h-52v-21h16v-30q0 -13 -14 -14l-9 4l-5 10v80l5 10l10 4h15q12 0 14 -16h20q-2 38 -34 38h-32q-34 0 -34 -35v-81q0 -35 34 -35h32q34 0 34 35zM353 436v22h-17v84h-38l-68 -86v-20h67v-50h39v50h17zM1051 -395v116q0 35 -32 35h-36q-32 0 -32 -34v-117h36v65
h28v-65h36zM349 224v84q0 36 -36 36h-39q-36 0 -36 -34v-88q0 -34 36 -34h39q36 0 36 36zM920 -395v151h-37v-65h-27v65h-36v-151h36v65h27v-65h37zM796 -297v18q0 35 -33 35h-68v-151h37v65q64 -1 64 33zM1618 1451h-27v29l4 10l9 4l10 -4l4 -10v-29zM2071 870h-30v31l5 10
l10 4l10 -4l5 -10v-31zM1488 1465l-5 -10l-9 -4h-14v43h14l9 -4l5 -10v-15zM2071 688l-5 -11l-11 -4l-10 4l-5 11v16l5 10l10 4l11 -4l5 -10v-16zM2071 620l-5 -10l-11 -4l-10 4l-5 10v17q0 14 15 14q16 0 16 -14v-17zM1015 1451h-28v29l5 10l9 4l9 -4l5 -10v-29zM759 1465
l-4 -10l-10 -4h-13v43h13l10 -4l4 -10v-15zM1768 -3q-156 91 -183 275v555q0 38 -54 38q-59 0 -59 -43v-389q0 -64 -87 -64q-91 0 -91 70v383q0 43 -65 43q-54 0 -54 -38v-388q0 -65 -89 -65t-89 65v167h-350q-54 0 -54 92q0 27 14 54q16 32 40 32h350v75q0 25 -27 27
q-111 9 -231 60q-157 67 -157 156q0 22 34 22q12 0 15 -1q43 -13 97 -26q176 -44 372 -44h593q75 0 75 -31v-1025zM1618 -309h-27v29l4 10l9 4l10 -4l4 -10v-29zM309 870h-30v31l5 10l10 4l10 -4l5 -10v-31zM1488 -295l-5 -10l-9 -4h-14v43h14l9 -4l5 -10v-15zM310 688
l-5 -11l-11 -4l-10 4l-5 11v16l5 10l10 4l11 -4l5 -10v-16zM310 620l-5 -10l-11 -4l-10 4l-5 10v17q0 14 15 14q16 0 16 -14v-17zM297 458h-42l42 53v-53zM1015 -309h-28v29l5 10l9 4l9 -4l5 -10v-29zM309 225l-5 -11l-10 -4l-11 4l-4 11v83l4 10l11 4l10 -4l5 -10v-83z
M759 -295l-4 -10l-10 -4h-13v43h13l10 -4l4 -10v-15z" />
  </g>

</svg>
