<?xml version="1.0" standalone="no"?>
<!DOCTYPE svg PUBLIC "-//W3C//DTD SVG 1.1//EN" "http://www.w3.org/Graphics/SVG/1.1/DTD/svg11.dtd" >
<svg viewBox="0 -419 2155 2048">
  <g transform="matrix(1 0 0 -1 0 1638)">
   <path fill="currentColor"
d="M2155 -239q0 -74 -53 -127t-127 -53h-1599q-74 0 -127 53t-53 127v1599q0 74 53 127t127 53h1599q74 0 127 -53t53 -127v-1599zM1578 1365v21h-47v130h-36v-151h83zM2112 817v84q0 37 -36 37h-75v-157h75q36 0 36 36zM1455 1400v116h-37v-116l-4 -10l-9 -4l-10 4l-4 10
v116h-36v-118q0 -33 32 -33h35q33 0 33 35zM2107 702v36h-101v-22h64v-13q-32 -65 -32 -84v-36h37q0 53 32 119zM1311 1400v51h-53v-21h16v-30q0 -13 -13 -14l-10 4l-4 10v80l4 10l10 4h16q12 0 14 -16h20q-2 38 -34 38h-32q-34 0 -34 -35v-81q0 -35 34 -35h32q34 0 34 35z
M1173 1365v151h-21v-78l-86 78h-10v-151h21v78l85 -78h11zM2111 385v121q0 36 -36 36h-38q-36 0 -36 -35v-122h40v68h30v-68h40zM1010 1365v116q0 35 -32 35h-35q-33 0 -33 -34v-117h37v65h27v-65h36zM2106 317v28h-102v-157h41v66h47v28h-47v35h61zM872 1365v151h-37v-65
h-27v65h-36v-151h36v65h27v-65h37zM1959 -79v1279q0 59 -42.5 101.5t-101.5 42.5h-1280q-59 0 -101.5 -42.5t-42.5 -101.5v-1279q0 -59 42.5 -101.5t101.5 -42.5h1280q59 0 101.5 42.5t42.5 101.5zM1694 -360q0 20 -23.5 48.5t-23.5 31.5q1 5 3 11q4 2 11 4q11 0 13 -17h20
q-2 38 -32 38h-19q-33 0 -33 -35q0 -20 24 -48.5t24 -32.5q-1 -4 -3 -10l-11 -4l-9 3l-4 9v4h-21q0 -37 33 -37h19q32 0 32 35zM1585 -395v21h-47v44h31v21h-31v43h47v22h-84v-151h84zM349 781v120q0 37 -36 37h-38q-36 0 -36 -35v-122h40v67h30v-67h40zM1474 -395v21h-47
v130h-37v-151h84zM1362 -360q0 34 -21 41q21 8 21 32q0 43 -34 43h-66v-151h66q34 0 34 35zM344 622h-20q-2 -17 -14 -17h-16l-9 4l-5 11v82l5 10l9 4h16q12 0 14 -16h20q-2 38 -34 38h-32q-34 0 -34 -36v-83q0 -36 34 -36h32q32 0 34 39zM1231 -395v116q0 35 -32 35h-36
q-32 0 -32 -34v-117h36v65h28v-65h36zM349 421v85q0 36 -36 36h-39q-36 0 -36 -35v-87q0 -35 36 -35h39q36 0 36 36zM1102 -395v21h-47v130h-36v-151h83zM988 -395v21h-47v130h-36v-151h83zM349 224v84q0 36 -36 36h-39q-36 0 -36 -34v-88q0 -34 36 -34h39q36 0 36 36z
M871 -295v51h-36v-51l-4 -10l-10 -4l-9 4l-4 10v51h-37v-51q0 -30 32 -35v-65h37v65q31 5 31 35zM740 -282q-3 38 -33 38h-19q-32 0 -32 -35q0 -20 23.5 -48.5t23.5 -32.5q-1 -4 -3 -10l-10 -4l-9 3l-5 9v4h-20q0 -37 32 -37h19q32 0 32 35q0 20 -23.5 48.5t-23.5 31.5
q1 5 4 11q4 2 10 4q12 0 13 -17h21zM2071 818l-4 -11l-11 -4h-15v113h15l11 -5l4 -10v-83zM2071 475h-30v30l5 11l10 4l10 -4l5 -11v-30zM974 1451h-27v29l4 10l9 4l10 -4l4 -10v-29zM1743 574q0 -35 -46 -35h-210v-341q0 -187 -63 -229q-19 9 -19 63l3 989q0 35 -55 64
l-84 45v11q17 11 36 11q40 0 106 -18q81 -22 79 -50q0 -2 -1.5 -5.5t-1.5 -5.5v-479q0 -12 27 -12q26 0 74.5 17.5t74.5 17.5q80 0 80 -43zM1221 902q-14 -31 -98 -192q-161 -309 -494 -513l-22 5q8 14 31 34q312 264 441 571q18 42 19 47q0 19 -17 19q-135 0 -230 -19
q-7 -1 -36 -11q-23 -8 -36 -8q-22 0 -67.5 27t-60.5 46q8 12 22 12q-50 0 65.5 -8.5t127.5 -8.5q33 0 98 3.5t98 3.5q15 0 43.5 8.5t43.5 8.5q72 0 72 -25zM309 870h-30v31l5 10l10 4l10 -4l5 -10v-31zM1326 -295l-5 -10l-9 -4h-14v43h14l9 -4l5 -10v-15zM1326 -360l-5 -10
l-9 -4h-14v44h14q14 0 14 -14v-16zM1195 -309h-28v29l5 10l9 4l9 -4l5 -10v-29zM309 422l-5 -10l-10 -5l-11 5l-4 10v83l4 11l11 4l10 -4l5 -11v-83zM309 225l-5 -11l-10 -4l-11 4l-4 11v83l4 10l11 4l10 -4l5 -10v-83z" />
  </g>

</svg>
