<?xml version="1.0" standalone="no"?>
<!DOCTYPE svg PUBLIC "-//W3C//DTD SVG 1.1//EN" "http://www.w3.org/Graphics/SVG/1.1/DTD/svg11.dtd" >
<svg viewBox="0 -419 2155 2048">
  <g transform="matrix(1 0 0 -1 0 1638)">
   <path fill="currentColor"
d="M2155 -239q0 -74 -53 -127t-127 -53h-1599q-74 0 -127 53t-53 127v1599q0 74 53 127t127 53h1599q74 0 127 -53t53 -127v-1599zM2112 817v84q0 37 -36 37h-75v-157h75q36 0 36 36zM1380 1423v93h-38v-116l-4 -10l-10 -4h-13v130h-38v-116l-4 -10l-10 -4h-13v130h-38v-151
q56 0 65 4v-4h45q58 0 58 58zM2098 716v22h-84v-155h36v67h32v21h-32v45h48zM1185 1400v81q0 34 -33 34h-35q-33 0 -33 -33v-84q0 -33 33 -33h35q33 0 33 35zM2098 521v21h-84v-154h36v66h32v22h-32v45h48zM1054 1365v21h-47v130h-37v-151h84zM2106 317v28h-102v-157h41v66
h47v28h-47v35h61zM1959 -79v1279q0 59 -42.5 101.5t-101.5 42.5h-1280q-59 0 -101.5 -42.5t-42.5 -101.5v-1279q0 -59 42.5 -101.5t101.5 -42.5h1280q59 0 101.5 42.5t42.5 101.5zM1791 -282q-3 38 -33 38h-19q-32 0 -32 -35q0 -22 24 -49l8 -9q19 -21 12 -33q-6 -4 -10 -4
q-3 0 -5 1l-5 2l-4 9v4h-20q0 -37 32 -37h19q32 0 32 35q0 25 -24 49l-8 8q-14 14 -14 25q0 13 13 13q11 0 13 -17h21zM1677 -395v21h-47v44h32v21h-32v43h47v22h-83v-151h83zM1562 -266v22h-100v-22h32v-129h36v129h32zM349 817v84q0 37 -36 37h-75v-157h75q36 0 36 36z
M1434 -395v116q0 35 -33 35h-35q-33 0 -33 -34v-117h37v65h27v-65h37zM344 622h-20q-2 -17 -14 -17h-16l-9 4l-5 11v82l5 10l9 4h16q12 0 14 -16h20q-2 38 -34 38h-32q-34 0 -34 -36v-83q0 -36 34 -36h32q32 0 34 39zM1304 -360v51h-53v-21h16v-30q0 -13 -13 -14l-10 4
l-4 10v80l4 10l10 4h16q12 0 13 -16h21q-2 38 -34 38h-32q-35 0 -35 -35v-81q0 -35 35 -35h32q34 0 34 35zM1172 -360v81q0 34 -32 34h-36q-32 0 -32 -33v-84q0 -33 32 -33h36q32 0 32 35zM349 421v85q0 36 -36 36h-39q-36 0 -36 -35v-87q0 -35 36 -35h39q36 0 36 36z
M1038 -395v60l-5 13l-11 5q16 8 16 29q0 44 -32 44h-68v-151h36v65h13l10 -4l5 -11v-50h36zM349 224v84q0 36 -36 36h-39q-36 0 -36 -34v-88q0 -34 36 -34h39q36 0 36 36zM909 -395v60l-5 13l-11 5q16 8 16 29q0 44 -32 44h-68v-151h36v65h13l10 -4l5 -11v-50h36zM777 -360
v116h-36v-116l-5 -10l-9 -4l-10 4l-4 10v116h-36v-118q0 -33 32 -33h36q32 0 32 35zM643 -360q0 25 -24 49l-8 8q-14 14 -14 26q0 5 2 8q6 4 11 4q11 0 13 -17h20q-2 38 -32 38h-19q-33 0 -33 -35q0 -25 24 -49l9 -9q14 -14 14 -25q0 -4 -2 -8q-6 -4 -11 -4q-2 0 -4 1l-5 2
l-4 9v4h-21q0 -37 33 -37h19q32 0 32 35zM2071 818l-4 -11l-11 -4h-15v113h15l11 -5l4 -10v-83zM1148 1400l-4 -10l-10 -4l-9 4l-4 10v80l4 10l9 4l10 -4l4 -10v-80zM1742 0h-334v45h13q75 0 75 43q0 22 -35 105l-69 164h-217v-540h-640q-43 0 -73.5 30.5t-30.5 73.5v1279
q0 43 30.5 73.5t73.5 30.5h640v-137h28l414 -974q63 -148 116 -148h9v-45zM309 818l-5 -11l-11 -4h-14v113h14l11 -5l5 -10v-83zM1397 -309h-27v29l4 10l10 4l9 -4l4 -10v-29zM1136 -360l-5 -10l-9 -4l-10 4l-4 10v80l4 10l10 4l9 -4l5 -10v-80zM309 422l-5 -10l-10 -5
l-11 5l-4 10v83l4 11l11 4l10 -4l5 -11v-83zM1002 -295l-5 -10l-10 -4h-13v43h13l10 -4l5 -10v-15zM873 -295l-5 -10l-10 -4h-13v43h13l10 -4l5 -10v-15zM309 225l-5 -11l-10 -4l-11 4l-4 11v83l4 10l11 4l10 -4l5 -10v-83zM1106 1061v115l-68 68h-115zM1106 836v112
l-296 296h-111zM1364 413l-189 443v-443h189zM1106 611v112l-522 521q-46 0 -74 -37zM1106 382v116l-615 615v-116zM1106 156v112l-615 616v-113zM1106 -68v111l-615 615v-111zM1048 -124l-557 558v-112l445 -446h112zM823 -124l-332 332v-113l219 -219h113zM596 -124
l-105 106v-12q0 -39 27 -66.5t66 -27.5h12z" />
  </g>

</svg>
