<?xml version="1.0" standalone="no"?>
<!DOCTYPE svg PUBLIC "-//W3C//DTD SVG 1.1//EN" "http://www.w3.org/Graphics/SVG/1.1/DTD/svg11.dtd" >
<svg viewBox="0 -419 2155 2048">
  <g transform="matrix(1 0 0 -1 0 1638)">
   <path fill="currentColor"
d="M2155 -239q0 -75 -52.5 -127.5t-127.5 -52.5h-1599q-75 0 -127.5 52.5t-52.5 127.5v1599q0 75 52.5 127.5t127.5 52.5h1599q75 0 127.5 -52.5t52.5 -127.5v-1599zM2098 978v22h-47v44h31v22h-31v45h47v21h-84v-154h84zM2111 818v84q0 36 -36 36h-38q-36 0 -36 -34v-88
q0 -34 36 -34h38q36 0 36 36zM1413 1400q0 25 -24 49l-8 8q-14 14 -14 25q0 13 13 13q11 0 13 -17h20q-2 38 -32 38h-19q-32 0 -32 -35q0 -22 24 -49l8 -9q19 -21 12 -33q-6 -4 -10 -4q-3 0 -5 1l-5 2l-4 9v4h-20q0 -37 32 -37h19q32 0 32 35zM2111 620v84q0 36 -36 36h-38
q-36 0 -36 -34v-88q0 -34 36 -34h38q36 0 36 36zM1293 1400v51h-53v-21h16v-30q0 -13 -13 -14l-10 4l-4 10v80l4 10l10 4h15q13 0 14 -16h21q-2 38 -35 38h-31q-35 0 -35 -35v-81q0 -35 35 -35h31q35 0 35 35zM1161 1365v116q0 35 -33 35h-35q-33 0 -33 -34v-117h37v65h27
v-65h37zM2114 513v29h-116v-27h78q-57 -43 -57 -130h40q-4 93 55 128zM1037 1494v22h-100v-22h31v-129h37v129h32zM2106 317v28h-102v-157h41v66h47v28h-47v35h61zM1959 -79v1279q0 60 -42 102t-102 42h-1280q-60 0 -102 -42t-42 -102v-1279q0 -60 42 -102t102 -42h1280
q60 0 102 42t42 102zM336 978v22h-48v44h32v22h-32v45h48v21h-84v-154h84zM349 818v84q0 36 -36 36h-39q-36 0 -36 -34v-88q0 -34 36 -34h39q36 0 36 36zM1413 -360q0 25 -24 49l-8 8q-14 14 -14 25q0 13 13 13q11 0 13 -17h20q-2 38 -32 38h-19q-32 0 -32 -35q0 -22 24 -49
l8 -9q19 -21 12 -33q-6 -4 -10 -4q-3 0 -5 1l-5 2l-4 9v4h-20q0 -37 32 -37h19q32 0 32 35zM349 620v84q0 36 -36 36h-39q-36 0 -36 -34v-88q0 -34 36 -34h39q36 0 36 36zM1293 -360v51h-53v-21h16v-30q0 -13 -13 -14l-10 4l-4 10v80l4 10l10 4h15q13 0 14 -16h21
q-2 38 -35 38h-31q-35 0 -35 -35v-81q0 -35 35 -35h31q35 0 35 35zM1161 -395v116q0 35 -33 35h-35q-33 0 -33 -34v-117h37v65h27v-65h37zM349 421v85q0 36 -36 36h-39q-36 0 -36 -35v-87q0 -35 36 -35h39q36 0 36 36zM1037 -266v22h-100v-22h31v-129h37v129h32zM349 224v84
q0 36 -36 36h-39q-36 0 -36 -34v-88q0 -34 36 -34h39q36 0 36 36zM2071 818l-4 -10l-11 -4l-10 4l-5 10v83l5 11l10 4l11 -4l4 -11v-83zM2071 620l-4 -10l-11 -4l-10 4l-5 10v84l5 10l10 4l11 -4l4 -10v-84zM1124 1451h-27v29l4 10l9 4l10 -4l4 -10v-29zM1756 848
q0 -8 -8 -18q-20 -24 -41 -127q-21 -107 -45 -141q-47 -67 -158 -67q-42 0 -81 9l-109 -120l-20 -9h-667q-26 0 -26 27v408q0 27 26 27h667l19 -8q203 -203 203 -214t-50 -65q19 -2 38 -2q91 0 125 62q16 30 33 134q14 89 49 123q8 8 18 8q27 0 27 -27zM309 818l-5 -10
l-10 -4l-11 4l-4 10v83l4 11l11 4l10 -4l5 -11v-83zM309 620l-5 -10l-10 -4l-11 4l-4 10v84l4 10l11 4l10 -4l5 -10v-84zM1124 -309h-27v29l4 10l9 4l10 -4l4 -10v-29zM309 422l-5 -10l-10 -5l-11 5l-4 10v83l4 11l11 4l10 -4l5 -11v-83zM309 225l-5 -11l-10 -4l-11 4l-4 11
v83l4 10l11 4l10 -4l5 -10v-83zM1277 623q-12 33 -47 33q-50 0 -50 -50t50 -50q20 0 34 14q-37 20 -37 35q0 28 26 28q8 0 24 -10zM1453 614l-170 170h-630v-356h630l84 92q-25 10 -55 25q-31 -41 -82 -41q-42 0 -72 30t-30 72t30 72t72 30q46 0 76 -34t25 -80
q41 -21 75 -32z" />
  </g>

</svg>
