<?xml version="1.0" standalone="no"?>
<!DOCTYPE svg PUBLIC "-//W3C//DTD SVG 1.1//EN" "http://www.w3.org/Graphics/SVG/1.1/DTD/svg11.dtd" >
<svg viewBox="0 -419 2155 2048">
  <g transform="matrix(1 0 0 -1 0 1638)">
   <path fill="currentColor"
d="M2155 -239q0 -75 -52.5 -127.5t-127.5 -52.5h-1599q-75 0 -127.5 52.5t-52.5 127.5v1599q0 75 52.5 127.5t127.5 52.5h1599q75 0 127.5 -52.5t52.5 -127.5v-1599zM1783 1365v21h-47v44h32v21h-32v43h47v22h-83v-151h83zM1674 1400q0 25 -24 49l-8 8q-14 14 -14 26
q0 5 2 8q7 4 11 4q11 0 13 -17h20q-2 37 -32 37h-19q-32 0 -32 -34q0 -22 24 -49l8 -9q19 -21 12 -33q-6 -4 -10 -4q-3 0 -5 1l-5 2l-4 9v4h-20q0 -37 32 -37h19q32 0 32 35zM1565 1400v116h-36v-116l-4 -10l-10 -4l-9 4l-4 10v116h-37v-118q0 -33 33 -33h35q32 0 32 35z
M2098 911v22h-84v-155h36v67h32v21h-32v45h48zM1367 1365v21h-47v44h31v21h-31v43h47v22h-84v-151h84zM2111 620q0 35 -24 42q24 9 24 34q0 44 -38 44h-35q-38 0 -38 -36q0 -34 24 -42q-24 -8 -24 -34q0 -44 38 -44h35q38 0 38 36zM1251 1494v22h-100v-22h32v-129h36v129h32
zM2098 521v21h-84v-154h36v66h32v22h-32v45h48zM1123 1365v116q0 35 -32 35h-36q-32 0 -32 -34v-117h36v65h28v-65h36zM992 1423v93h-36v-116l-5 -10l-10 -4h-13v130h-36v-151h43q57 0 57 58zM2106 317v28h-102v-157h41v66h47v28h-47v35h61zM861 1365v151h-33v-151h33z
M792 1365v60l-5 13l-11 5q16 8 16 29q0 44 -32 44h-68v-151h36v65h13l10 -4l5 -11v-50h36zM667 1463v18q0 35 -33 35h-67v-151h36v65q64 -1 64 33zM1959 -79v1279q0 60 -42 102t-102 42h-1280q-60 0 -102 -42t-42 -102v-1279q0 -60 42 -102t102 -42h1280q60 0 102 42t42 102
zM1783 -395v21h-47v44h32v21h-32v43h47v22h-83v-151h83zM1674 -360q0 25 -24 49l-8 8q-14 14 -14 26q0 5 2 8q7 4 11 4q11 0 13 -17h20q-2 37 -32 37h-19q-32 0 -32 -34q0 -22 24 -49l8 -9q19 -21 12 -33q-6 -4 -10 -4q-3 0 -5 1l-5 2l-4 9v4h-20q0 -37 32 -37h19
q32 0 32 35zM1565 -360v116h-36v-116l-4 -10l-10 -4l-9 4l-4 10v116h-37v-118q0 -33 33 -33h35q32 0 32 35zM336 778v22h-48v45h32v21h-32v45h48v22h-84v-155h84zM1367 -395v21h-47v44h31v21h-31v43h47v22h-84v-151h84zM349 620v84q0 36 -36 36h-39q-36 0 -36 -34v-88
q0 -34 36 -34h39q36 0 36 36zM1251 -266v22h-100v-22h32v-129h36v129h32zM349 421v85q0 36 -36 36h-39q-36 0 -36 -35v-87q0 -35 36 -35h39q36 0 36 36zM1123 -395v116q0 35 -32 35h-36q-32 0 -32 -34v-117h36v65h28v-65h36zM992 -337v93h-36v-116l-5 -10l-10 -4h-13v130
h-36v-151h43q57 0 57 58zM349 224v84q0 36 -36 36h-39q-36 0 -36 -34v-88q0 -34 36 -34h39q36 0 36 36zM861 -395v151h-33v-151h33zM792 -395v60l-5 13l-11 5q16 8 16 29q0 44 -32 44h-68v-151h36v65h13l10 -4l5 -11v-50h36zM667 -297v18q0 35 -33 35h-67v-151h36v65
q64 -1 64 33zM2071 688l-5 -11l-11 -4l-10 4l-5 11v16l5 10l10 4l11 -4l5 -10v-16zM2071 620l-5 -10l-11 -4l-10 4l-5 10v17q0 14 15 14q16 0 16 -14v-17zM1087 1451h-28v29l5 10l9 4l9 -4l5 -10v-29zM756 1465l-5 -10l-10 -4h-13v43h13l10 -4l5 -10v-15zM630 1465l-4 -10
l-10 -4h-13v43h13l10 -4l4 -10v-15zM1764 1131q-59 -46 -115 -98q-178 -164 -325 -599q76 -6 126.5 -54t50.5 -123q0 -78 -64 -177q50 0 107 -27v-18q-37 7 -84 7q-24 0 -165 -9q82 127 82 187q0 97 -74 97q-102 0 -160 -274q-17 118 -20 131q-20 78 -67 106q-16 10 -47 20
q-39 3 -64 -28.5t-25 -71.5q0 -58 47 -95q18 -14 99 -52v-12q-38 1 -123 1q-39 0 -114 -7l3 25l78 10q-82 41 -82 144q0 129 115 185q-37 210 -108 386q-108 268 -240 268l-10 20q65 21 169 21q50 0 156 3l8 -20q-18 -22 -47 -24q92 -186 140 -495q74 112 156 415h6
q36 -116 109 -354q51 234 200 483q-34 -2 -45 29q9 6 113 6q36 0 107 -3t107 -3zM309 620l-5 -10l-10 -4l-11 4l-4 10v84l4 10l11 4l10 -4l5 -10v-84zM1087 -309h-28v29l5 10l9 4l9 -4l5 -10v-29zM309 422l-5 -10l-10 -5l-11 5l-4 10v83l4 11l11 4l10 -4l5 -11v-83zM309 225
l-5 -11l-10 -4l-11 4l-4 11v83l4 10l11 4l10 -4l5 -10v-83zM756 -295l-5 -10l-10 -4h-13v43h13l10 -4l5 -10v-15zM630 -295l-4 -10l-10 -4h-13v43h13l10 -4l4 -10v-15zM1246 418q-30 77 -74 292l-115 -305q17 -6 66 -30l33 -52q14 62 90 95z" />
  </g>

</svg>
