<?xml version="1.0" standalone="no"?>
<!DOCTYPE svg PUBLIC "-//W3C//DTD SVG 1.1//EN" "http://www.w3.org/Graphics/SVG/1.1/DTD/svg11.dtd" >
<svg viewBox="0 -419 2155 2048">
  <g transform="matrix(1 0 0 -1 0 1638)">
   <path fill="currentColor"
d="M2155 -239q0 -75 -52.5 -127.5t-127.5 -52.5h-1599q-75 0 -127.5 52.5t-52.5 127.5v1599q0 75 52.5 127.5t127.5 52.5h1599q75 0 127.5 -52.5t52.5 -127.5v-1599zM1840 1366v33h-33v-33h33zM1806 1495v21h-100v-21h31v-129h37v129h32zM1678 1365v116q0 35 -32 35h-36
q-32 0 -32 -33v-118h36v65h28v-65h36zM1551 1464v18q0 34 -33 34h-68v-150h37v65l13 -1q51 -4 51 34zM2098 911v22h-84v-155h36v67h32v21h-32v45h48zM1418 1366v150h-20l-69 -68l-68 68h-11v-150h21v85l55 -54l54 54v-85h38zM2111 584v120q0 36 -36 36h-38q-36 0 -36 -34
v-122h40v67h30v-67h40zM1219 1401v81q0 34 -33 34h-35q-33 0 -33 -33v-84q0 -33 33 -33h35q33 0 33 35zM2098 521v21h-84v-154h36v66h32v22h-32v45h48zM1090 1402h-20q-2 -16 -14 -16h-15l-10 4l-5 10v80l5 10l10 4h15q12 0 14 -16h20q-2 38 -34 38h-32q-34 0 -34 -35v-81
q0 -35 34 -35h32q32 0 34 37zM2106 317v28h-102v-157h41v66h47v28h-47v35h61zM880 1365l-66 75l66 76h-35l-48 -56v56h-37v-151h37v53l44 -53h39zM733 1398v118h-36v-116l-4 -10l-10 -4l-9 4l-5 10v35h-36v-37q0 -33 32 -33h36q32 0 32 33zM610 1402h-20q-2 -16 -14 -16h-16
l-10 4l-4 10v80l4 10l10 4h16q12 0 14 -16h20q-2 38 -34 38h-32q-34 0 -34 -35v-81q0 -35 34 -35h32q32 0 34 37zM1959 -79v1279q0 59 -42.5 101.5t-101.5 42.5h-1280q-59 0 -101.5 -42.5t-42.5 -101.5v-1279q0 -59 42.5 -101.5t101.5 -42.5h1280q59 0 101.5 42.5
t42.5 101.5zM1550 -395v34h-34v-34h34zM336 911v22h-84v-155h36v67h32v21h-32v45h48zM1483 -395v60l-6 13l-11 5q17 8 17 29q0 44 -33 44h-68v-151h37v65h13l10 -4l4 -11v-50h37zM1353 -360v51h-53v-21h16v-30q0 -13 -13 -14l-10 4l-4 10v80l4 10l10 4h16q12 0 13 -16h21
q-2 38 -34 38h-32q-35 0 -35 -35v-81q0 -35 35 -35h32q34 0 34 35zM349 643v61q0 36 -38 36h-35q-38 0 -38 -36v-34q0 -36 38 -36h18q9 0 14 6v-4q0 -31 -52 -31v-22h31q24 0 43 18t19 42zM1226 -360v81q0 34 -33 34h-35q-33 0 -33 -33v-84q0 -33 33 -33h35q33 0 33 35z
M349 421v85q0 36 -36 36h-39q-36 0 -36 -35v-87q0 -35 36 -35h39q36 0 36 36zM1092 -395v21h-47v44h31v21h-31v43h47v22h-84v-151h84zM976 -360v81q0 35 -32 35h-68v-151h68q32 0 32 35zM349 224v84q0 36 -36 36h-39q-36 0 -36 -34v-88q0 -34 36 -34h39q36 0 36 36z
M834 -395v151h-34v-151h34zM1642 1451h-28v30l5 10l9 4l9 -4l5 -10v-30zM1514 1466l-4 -10l-10 -4h-13v43h13l10 -4l4 -10v-15zM2071 673h-30v31l5 10l10 4l10 -4l5 -10v-31zM1182 1401l-4 -10l-10 -4l-9 4l-4 10v80l4 10l9 4l10 -4l4 -10v-80zM1732 674h-336v-676
q-46 1 -92 -17v689h-298v35h298v422h53q24 0 55 -12q39 -15 34 -37q-2 -8 -4 -15q-34 0 -48 -7v-343q22 -8 123 -8q31 0 57 33q19 29 38 59q69 -41 120 -93v-30zM1007 1076l-75 -145q-67 -129 -94 -191q22 -4 60 -24q-18 -22 -45 -32v-680q-36 0 -88 -15v653
q-37 -60 -106 -158h-26q-1 16 -16 16q151 167 234 468q9 56 35 166q34 -23 121 -58zM1446 -295l-4 -10l-10 -4h-13v43h13l10 -4l4 -10v-15zM309 670l-5 -10l-10 -4l-11 4l-4 10v33l4 10l11 5l10 -5l5 -10v-33zM1189 -360l-4 -10l-9 -4l-10 4l-4 10v80l4 10l10 4l9 -4l4 -10
v-80zM309 422l-5 -10l-10 -5l-11 5l-4 10v83l4 11l11 4l10 -4l5 -11v-83zM940 -360l-5 -10l-9 -4h-14v108h14l9 -4l5 -10v-80zM309 225l-5 -11l-10 -4l-11 4l-4 11v83l4 10l11 4l10 -4l5 -10v-83z" />
  </g>

</svg>
