<?xml version="1.0" standalone="no"?>
<!DOCTYPE svg PUBLIC "-//W3C//DTD SVG 1.1//EN" "http://www.w3.org/Graphics/SVG/1.1/DTD/svg11.dtd" >
<svg viewBox="0 -419 2154 2048">
  <g transform="matrix(1 0 0 -1 0 1638)">
   <path fill="currentColor"
d="M2154 -239q0 -74 -53 -127t-127 -53h-1598q-74 0 -127 53t-53 127v1599q0 74 53 127t127 53h1598q74 0 127 -53t53 -127v-1599zM1525 1402h-21q-1 -16 -13 -16h-16l-10 4l-4 10v80l4 10l10 4h16q12 0 13 -16h21q-2 38 -34 38h-32q-34 0 -34 -35v-81q0 -35 34 -35h32
q32 0 34 37zM2098 911v22h-84v-155h36v67h32v21h-32v45h48zM1395 1365v151h-34v-151h34zM1332 1400q0 34 -21 41q21 8 21 32q0 43 -34 43h-66v-151h66q34 0 34 35zM2112 620v84q0 36 -36 36h-75v-156h75q36 0 36 36zM1194 1365v116q0 35 -32 35h-35q-33 0 -33 -34v-117h37
v65h27v-65h36zM2098 521v21h-84v-154h36v66h32v22h-32v45h48zM1057 1365v60l-5 13l-11 5q16 8 16 29q0 44 -32 44h-68v-151h37v65h13l10 -4l4 -11v-50h36zM2106 317v28h-102v-157h41v66h47v28h-47v35h61zM925 1365v116q0 35 -32 35h-35q-33 0 -33 -34v-117h37v65h27v-65h36z
M1959 -79v1279q0 59 -42.5 101.5t-101.5 42.5h-1280q-59 0 -101.5 -42.5t-42.5 -101.5v-1279q0 -59 42.5 -101.5t101.5 -42.5h1280q59 0 101.5 42.5t42.5 101.5zM336 911v22h-84v-155h36v67h32v21h-32v45h48zM1512 -395v116q0 35 -32 35h-36q-32 0 -32 -34v-117h36v65h28
v-65h36zM349 620q0 36 -23 43q23 8 23 33q0 44 -38 44h-73v-156h73q38 0 38 36zM1341 -395v34h-34v-34h34zM1283 -360q0 20 -24 48.5t-24 31.5q2 5 4 11q4 2 11 4q11 0 13 -17h20q-2 38 -32 38h-19q-33 0 -33 -35q0 -20 23.5 -48.5t23.5 -32.5l-3 -10l-10 -4l-9 3l-4 9v4
h-21q0 -37 32 -37h19q33 0 33 35zM1174 -395v21h-48v44h32v21h-32v43h48v22h-84v-151h84zM344 424v33q0 37 -64 36v28h64v21h-100v-71h50l9 -4l5 -11v-32l-5 -10l-9 -4h-16q-13 0 -14 16h-20q4 -38 34 -38h32q34 0 34 36zM1062 -395v60l-6 13l-11 5q17 8 17 29q0 44 -33 44
h-68v-151h37v65h13l10 -4l4 -11v-50h37zM938 -297v18q0 35 -32 35h-68v-151h36v65h13q51 0 51 33zM349 224v84q0 36 -36 36h-39q-36 0 -36 -34v-88q0 -34 36 -34h39q36 0 36 36zM1295 1465l-4 -10l-10 -4h-13v43h13l10 -4l4 -10v-15zM2071 620l-4 -10l-11 -4h-15v112h15
l11 -4l4 -10v-84zM1295 1400l-4 -10l-10 -4h-13v44h14q13 0 13 -14v-16zM1158 1451h-27v29l4 10l9 4l10 -4l4 -10v-29zM1021 1465l-4 -10l-10 -4h-13v43h13l10 -4l4 -10v-15zM889 1451h-27v29l4 10l9 4l10 -4l4 -10v-29zM1032 1120l-111 -114l-115 109l110 117zM1787 313
h-109q-150 0 -199 278q-9 49 -27 176q-46 -63 -163 -124q1 -221 -106 -354q-116 -145 -332 -145q-288 0 -288 260q0 59 15 141q8 43 52 139q49 107 79 107q13 0 13 -12q0 -38 -26.5 -121t-26.5 -125q0 -182 232 -182q66 0 162 30q113 35 132 83q8 20 8 62q0 116 -91 223
l78 167l100 -93q15 4 25 4q49 0 96 56q3 4 67 98q32 -5 46 -105l27 -198q15 -110 87 -146q36 -18 149 -17v-202zM1554 -1l-111 -110l-115 110l112 112zM1476 -309h-28v29l5 10l9 4l9 -4l5 -10v-29zM309 688l-5 -11l-11 -4h-14v45h14l11 -4l5 -10v-16zM309 620l-5 -10l-11 -4
h-14v45h15q15 0 15 -14v-17zM1025 -295l-4 -10l-10 -4h-13v43h13l10 -4l4 -10v-15zM902 -295l-5 -10l-9 -4h-14v43h14l9 -4l5 -10v-15zM309 225l-5 -11l-10 -4l-11 4l-4 11v83l4 10l11 4l10 -4l5 -10v-83z" />
  </g>

</svg>
