<?xml version="1.0" standalone="no"?>
<!DOCTYPE svg PUBLIC "-//W3C//DTD SVG 1.1//EN" "http://www.w3.org/Graphics/SVG/1.1/DTD/svg11.dtd" >
<svg viewBox="0 -419 2155 2048">
  <g transform="matrix(1 0 0 -1 0 1638)">
   <path fill="currentColor"
d="M2155 -239q0 -75 -52.5 -127.5t-127.5 -52.5h-1599q-75 0 -127.5 52.5t-52.5 127.5v1599q0 75 52.5 127.5t127.5 52.5h1599q75 0 127.5 -52.5t52.5 -127.5v-1599zM1646 1365v21h-47v130h-37v-151h84zM1529 1365v116q0 35 -33 35h-35q-32 0 -32 -33v-118h36v65h27v-65h37z
M1397 1403h-21q-1 -17 -13 -17h-16l-10 5l-4 10v80l4 10l10 4h16q12 0 13 -16h21q-2 37 -34 37h-32q-34 0 -34 -35v-81q0 -35 34 -35h32q32 0 34 38zM1264 1365v151h-34v-151h34zM1201 1495v21h-101v-21h32v-130h37v130h32zM1071 1365v61l-5 12l-11 5q16 9 16 29
q0 44 -33 44h-67v-151h36v65h13l10 -4l4 -10v-51h37zM922 1365v21h-47v44h31v21h-31v44h47v21h-84v-151h84zM804 1423v93h-36v-116l-4 -10l-10 -4h-13v130h-37v-151h44q56 0 56 58zM1959 -79v1279q0 60 -42 102t-102 42h-1280q-60 0 -102 -42t-42 -102v-1279q0 -60 42 -102
t102 -42h1280q60 0 102 42t42 102zM1510 -282q-3 38 -33 38h-19q-32 0 -32 -35q0 -22 24 -49l8 -9q19 -21 12 -33q-6 -4 -10 -4q-3 0 -5 1l-5 2l-4 9v4h-20q0 -37 32 -37h19q32 0 32 35q0 25 -24 49l-8 8q-14 14 -14 25q0 5 4.5 9t8.5 4q11 0 13 -17h21zM1388 -395v151h-20
l-68 -69l-68 69h-11v-151h21v86l54 -55l55 55v-86h37zM1181 -395v60l-6 13l-11 5q17 8 17 29q0 44 -33 44h-68v-151h37v65h13l10 -4l4 -11v-50h37zM1049 -360v81q0 34 -33 34h-35q-33 0 -33 -33v-84q0 -33 33 -33h35q33 0 33 35zM924 -266v22h-84v-151h37v65h31v21h-31v43
h47zM1492 1451h-27v30l4 10l10 4l9 -4l4 -10v-30zM1709 1068q0 -190 -235 -332v48q114 73 123 230l-123 63q16 124 123 124q53 0 84 -41q28 -37 28 -92zM1034 1465l-4 -10l-10 -4h-13v44h13l10 -4l4 -10v-16zM1144 -295l-4 -10l-10 -4h-13v43h13l10 -4l4 -10v-15zM1012 -360
l-4 -10l-9 -4l-10 4l-4 10v80l4 10l10 4l9 -4l4 -10v-80zM2098 911v22h-84v-155h36v67h32v21h-32v45h48zM2098 583v22h-47v45h31v21h-31v45h47v22h-84v-155h84zM2106 317v28h-102v-157h41v66h47v28h-47v35h61zM336 911v22h-84v-155h36v67h32v21h-32v45h48zM336 583v22h-48
v45h32v21h-32v45h48v22h-84v-155h84zM349 224v84q0 36 -36 36h-39q-36 0 -36 -34v-88q0 -34 36 -34h39q36 0 36 36zM309 225l-5 -11l-10 -4l-11 4l-4 11v83l4 10l11 4l10 -4l5 -10v-83zM2081 388v154h-18l-32 -17v-21h16v-116h34zM319 388v154h-18l-32 -17v-21h15v-116h35z
" />
  </g>

</svg>
