<?xml version="1.0" standalone="no"?>
<!DOCTYPE svg PUBLIC "-//W3C//DTD SVG 1.1//EN" "http://www.w3.org/Graphics/SVG/1.1/DTD/svg11.dtd" >
<svg viewBox="0 -419 2155 2048">
  <g transform="matrix(1 0 0 -1 0 1638)">
   <path fill="currentColor"
d="M2155 -239q0 -74 -53 -127t-127 -53h-1599q-75 0 -127.5 52.5t-52.5 127.5v1599q0 75 52.5 127.5t127.5 52.5h1599q74 0 127 -53t53 -127v-1599zM1839 1365v34h-34v-34h34zM1804 1495v21h-100v-21h32v-130h37v130h31zM1677 1365v116q0 34 -33 34h-35q-33 0 -33 -33v-117
h37v65h27v-65h37zM1549 1463v18q0 35 -32 35h-68v-151h36v65h13q51 0 51 33zM2098 911v22h-84v-155h36v67h32v21h-32v45h48zM1416 1365v151h-20l-68 -68l-68 68h-11v-151h21v86l54 -54l55 54v-86h37zM2098 583v22h-47v45h31v21h-31v45h47v22h-84v-155h84zM1217 1400v81
q0 35 -32 35h-36q-32 0 -32 -33v-84q0 -34 32 -34h36q32 0 32 35zM2120 436v22h-17v84h-39l-71 -86v-20h70v-51h40v51h17zM1089 1402h-21q-1 -16 -13 -16h-16l-10 4l-4 10v80l4 10l10 4h16q12 0 13 -16h21q-2 37 -34 37h-32q-35 0 -35 -35v-81q0 -34 35 -34h32q32 0 34 37z
M2106 317v28h-102v-157h41v66h47v28h-47v35h61zM881 1365l-66 75l66 76h-34l-49 -56v56h-37v-151h37v53l45 -53h38zM735 1398v118h-37v-116l-4 -10l-9 -4l-10 4l-4 10v35h-37v-37q0 -33 32 -33h36q33 0 33 33zM612 1402h-21q-2 -16 -14 -16h-15l-10 4l-4 10v80l4 10l10 4h15
q12 0 14 -16h21q-2 38 -35 38h-32q-34 0 -34 -35v-81q0 -35 34 -35h32q32 0 35 37zM1959 -79v1279q0 59 -42.5 101.5t-101.5 42.5h-1280q-59 0 -101.5 -42.5t-42.5 -101.5v-1279q0 -59 42.5 -101.5t101.5 -42.5h1280q59 0 101.5 42.5t42.5 101.5zM336 911v22h-84v-155h36v67
h32v21h-32v45h48zM1510 -282q-3 38 -33 38h-19q-32 0 -32 -35q0 -21 23.5 -49t23.5 -32l-3 -10l-10 -4l-10 3l-4 9v4h-20q0 -37 32 -37h19q32 0 32 35q0 21 -23.5 49t-23.5 31q1 5 4 11q4 2 10 4q11 0 13 -17h21zM1388 -395v151h-20l-68 -69l-68 69h-11v-151h21v86l54 -55
l55 55v-86h37zM336 583v22h-48v45h32v21h-32v45h48v22h-84v-155h84zM1181 -395v60l-6 13l-11 5q17 8 17 29q0 44 -33 44h-68v-151h37v65h13l10 -4l4 -11v-50h37zM344 422v35q0 34 -43 36l43 29v21h-101v-22h59l-43 -29v-21l25 1q23 1 23 -15v-33l-4 -10l-10 -4h-15
q-13 0 -14 16h-21q4 -38 33 -38h35q33 0 33 34zM1049 -360v81q0 34 -33 34h-35q-33 0 -33 -33v-84q0 -33 33 -33h35q33 0 33 35zM924 -266v22h-84v-151h37v65h31v21h-31v43h47zM349 224v84q0 36 -36 36h-39q-36 0 -36 -34v-88q0 -34 36 -34h39q36 0 36 36zM1640 1451h-27v29
l4 10l10 4l9 -4l4 -10v-29zM1513 1465l-5 -10l-9 -4h-14v44h14l9 -4l5 -10v-16zM1181 1401l-5 -10l-9 -4l-9 4l-5 10v80l5 10l9 4l9 -4l5 -10v-80zM2063 458h-45l45 53v-53zM1788 306h-170v340h-1056v170h1226v-510zM1144 -295l-4 -10l-10 -4h-13v43h13l10 -4l4 -10v-15z
M1012 -360l-4 -10l-9 -4l-10 4l-4 10v80l4 10l10 4l9 -4l4 -10v-80zM309 225l-5 -11l-10 -4l-11 4l-4 11v83l4 10l11 4l10 -4l5 -10v-83zM1748 346v430h-1146v-90h1056v-340h90z" />
  </g>

</svg>
