<?xml version="1.0" standalone="no"?>
<!DOCTYPE svg PUBLIC "-//W3C//DTD SVG 1.1//EN" "http://www.w3.org/Graphics/SVG/1.1/DTD/svg11.dtd" >
<svg viewBox="0 -419 2155 2048">
  <g transform="matrix(1 0 0 -1 0 1638)">
   <path fill="currentColor"
d="M2155 -239q0 -74 -53 -127t-127 -53h-1599q-75 0 -127.5 52.5t-52.5 127.5v1599q0 75 52.5 127.5t127.5 52.5h1599q74 0 127 -53t53 -127v-1599zM1826 1365v151h-20l-68 -69l-69 69h-11v-151h21v86l55 -55l54 55v-86h38zM1618 1365v60l-5 13l-11 5q16 8 16 29
q0 44 -32 44h-68v-151h37v65h13l10 -4l4 -11v-50h36zM2098 911v22h-84v-155h36v67h32v21h-32v45h48zM1486 1400v81q0 34 -32 34h-35q-33 0 -33 -33v-84q0 -33 33 -33h35q32 0 32 35zM1362 1494v22h-84v-151h36v65h32v21h-32v43h48zM2098 583v22h-47v45h31v21h-31v45h47v22
h-84v-155h84zM1161 1365v21h-47v130h-37v-151h84zM2111 422v33q0 37 -37 37h-18q-6 -2 -14 -5l-1 -2v4q0 32 53 31v22h-31q-24 0 -43 -17.5t-19 -41.5v-61q0 -36 37 -36h36q37 0 37 36zM1056 1365v21h-47v130h-36v-151h83zM938 1365v116q0 35 -33 35h-35q-32 0 -32 -34v-117
h36v65h27v-65h37zM2106 317v28h-102v-157h41v66h47v28h-47v35h61zM806 1365v151h-20l-68 -69l-68 69h-11v-151h21v86l54 -55l55 55v-86h37zM608 1400q0 28 -24 49l-9 8q-21 19 -11 34q6 4 11 4q11 0 13 -17h20q-2 38 -32 38h-19q-33 0 -33 -35q0 -25 24 -49l9 -9
q14 -14 14 -25q0 -5 -2 -8q-6 -4 -11 -4q-2 0 -4 1l-5 2l-4 9v4h-21q0 -37 32 -37h20q32 0 32 35zM1959 -79v1279q0 59 -42.5 101.5t-101.5 42.5h-1280q-59 0 -101.5 -42.5t-42.5 -101.5v-1279q0 -59 42.5 -101.5t101.5 -42.5h1280q59 0 101.5 42.5t42.5 101.5zM1640 -360
q0 21 -23.5 49t-23.5 31q1 5 3 11q4 2 11 4q11 0 13 -17h20q-2 38 -32 38h-19q-33 0 -33 -35q0 -21 24 -49t24 -32q-2 -4 -4 -10l-10 -4l-9 3l-4 9v4h-21q0 -37 32 -37h19q33 0 33 35zM1542 -266v21h-101v-21h32v-130h37v130h32zM336 911v22h-84v-155h36v67h32v21h-32v45h48
zM1418 -396v151h-20v-78l-86 78h-11v-151h21v78l86 -78h10zM336 583v22h-48v45h32v21h-32v45h48v22h-84v-155h84zM1275 -396v116q0 35 -33 35h-35q-33 0 -33 -33v-118h37v65h27v-65h37zM1144 -396v151h-34v-151h34zM344 424v33q0 37 -64 36v28h64v21h-100v-71h50l9 -4l5 -11
v-32l-5 -10l-9 -4h-16q-13 0 -14 16h-20q4 -38 34 -38h32q34 0 34 36zM1077 -396v61l-5 12l-11 5q16 9 16 29q0 44 -33 44h-67v-151h36v65h13l10 -4l4 -10v-51h37zM944 -395v116q0 35 -33 35h-35q-33 0 -33 -34v-117h37v65h27v-65h37zM349 224v84q0 36 -36 36h-39
q-36 0 -36 -34v-88q0 -34 36 -34h39q36 0 36 36zM810 -337v93h-36v-116l-4 -10l-10 -4h-13v130h-37v-151h44q56 0 56 58zM1582 1465l-4 -10l-10 -4h-13v43h13l10 -4l4 -10v-15zM1450 1400l-4 -10l-10 -4l-9 4l-4 10v80l4 10l9 4l10 -4l4 -10v-80zM2071 422l-5 -10l-10 -4
l-10 4l-5 10v33l5 10l10 4l10 -4l5 -10v-33zM901 1451h-27v29l4 10l10 4l9 -4l4 -10v-29zM1315 136l-29 -53l-252 140v640l252 140l29 -53l-221 -123v-568zM1238 -310h-27v30l4 10l10 4l9 -4l4 -10v-30zM1040 -296l-4 -10l-10 -4h-13v44h13l10 -4l4 -10v-16zM907 -309h-27
v29l4 10l9 4l10 -4l4 -10v-29zM309 225l-5 -11l-10 -4l-11 4l-4 11v83l4 10l11 4l10 -4l5 -10v-83z" />
  </g>

</svg>
