<?xml version="1.0" standalone="no"?>
<!DOCTYPE svg PUBLIC "-//W3C//DTD SVG 1.1//EN" "http://www.w3.org/Graphics/SVG/1.1/DTD/svg11.dtd" >
<svg viewBox="0 -419 2155 2048">
  <g transform="matrix(1 0 0 -1 0 1638)">
   <path fill="currentColor"
d="M2155 -239q0 -74 -53 -127t-127 -53h-1599q-74 0 -127 53t-53 127v1599q0 74 53 127t127 53h1599q74 0 127 -53t53 -127v-1599zM1774 1365v21h-47v130h-37v-151h84zM1669 1365v21h-47v130h-36v-151h83zM1557 1400v116h-36v-116l-4 -10l-10 -4l-9 4l-4 10v116h-37v-118
q0 -33 33 -33h35q32 0 32 35zM2098 911v22h-84v-155h36v67h32v21h-32v45h48zM1429 1494v22h-84v-151h37v65h31v21h-31v43h47zM2098 716v22h-84v-155h36v67h32v21h-32v45h48zM1251 1447v18h-17v-16l-5 -12l-12 -5h-33l1 -22q1 -14 -6 -24l-12 -4l-12 4l-5 12v26q0 14 17 16
v17q-17 2 -17 25l5 12l12 5l12 -5l5 -12v-17h33v19q0 32 -31 32h-37q-32 0 -32 -34q0 -30 33 -33q-33 0 -33 -34v-17q0 -33 33 -33h34q33 0 33 50q34 0 34 32zM2098 388v21h-47v45h31v22h-31v45h47v21h-84v-154h84zM1017 1494v22h-83v-151h36v65h31v21h-31v43h47zM2106 317
v28h-102v-157h41v66h47v28h-47v35h61zM910 1365v21h-47v130h-36v-151h83zM800 1365v116q0 35 -32 35h-35q-33 0 -33 -34v-117h37v65h27v-65h36zM676 1365v151h-36v-65h-27v65h-37v-151h37v65h27v-65h36zM1959 -79v1279q0 59 -42.5 101.5t-101.5 42.5h-1280
q-59 0 -101.5 -42.5t-42.5 -101.5v-1279q0 -59 42.5 -101.5t101.5 -42.5h1280q59 0 101.5 42.5t42.5 101.5zM1872 -360q0 20 -23.5 48.5t-23.5 31.5l3 11q5 2 11 4q11 0 13 -17h20q-2 38 -32 38h-19q-32 0 -32 -35q0 -20 23.5 -48.5t23.5 -32.5l-3 -10l-11 -4l-9 3l-4 9v4
h-20q0 -37 32 -37h19q32 0 32 35zM1751 -395v151h-20l-68 -69l-69 69h-10v-151h21v86l54 -55l54 55v-86h38zM1544 -395v60l-6 13l-11 5q17 8 17 29q0 44 -33 44h-68v-151h37v65h13l10 -4l4 -11v-50h37zM336 911v22h-84v-155h36v67h32v21h-32v45h48zM1412 -360v81
q0 34 -33 34h-35q-33 0 -33 -33v-84q0 -33 33 -33h35q33 0 33 35zM336 716v22h-84v-155h36v67h32v21h-32v45h48zM1287 -266v22h-84v-151h37v65h31v21h-31v43h47zM349 421v85q0 36 -36 36h-39q-36 0 -36 -35v-87q0 -35 36 -35h39q36 0 36 36zM1103 -395v151h-36v-65h-28v65
h-36v-151h36v65h28v-65h36zM974 -266v22h-100v-22h32v-129h37v129h31zM349 224v84q0 36 -36 36h-39q-36 0 -36 -34v-88q0 -34 36 -34h39q36 0 36 36zM851 -360v81q0 35 -33 35h-68v-151h68q33 0 33 35zM708 -395v151h-33v-151h33zM645 -337v93h-37v-116l-5 -10l-10 -4h-13
v130h-37v-116l-4 -10l-11 -4h-13v130h-37v-151l33 -1q21 -1 32 5v-4h44q58 0 58 58zM764 1451h-27v29l4 10l9 4l10 -4l4 -10v-29zM1440 692q0 -325 -30 -552q-19 -142 -106 -142q-39 0 -72 27l50 62q10 -8 19 -8q22 0 30 70q29 259 29 551v38l-153 1q-11 -266 -47 -405
q-51 -197 -189 -358l-61 53q127 147 174 333q33 130 43 377l-162 2l1 80l164 -2l9 326l80 -3l-9 -323l228 -2q2 -61 2 -125zM1507 -295l-4 -10l-10 -4h-13v43h13l10 -4l4 -10v-15zM1375 -360l-4 -10l-10 -4l-9 4l-4 10v80l4 10l9 4l10 -4l4 -10v-80zM309 422l-5 -10l-10 -5
l-11 5l-4 10v83l4 11l11 4l10 -4l5 -11v-83zM309 225l-5 -11l-10 -4l-11 4l-4 11v83l4 10l11 4l10 -4l5 -10v-83zM814 -360l-4 -10l-10 -4h-13v108h13l10 -4l4 -10v-80z" />
  </g>

</svg>
